<?xml version="1.0" encoding="UTF-8" standalone="no"?>
<!-- Created with Inkscape (http://www.inkscape.org/) -->

<svg
   xmlns:dc="http://purl.org/dc/elements/1.1/"
   xmlns:cc="http://creativecommons.org/ns#"
   xmlns:rdf="http://www.w3.org/1999/02/22-rdf-syntax-ns#"
   xmlns:svg="http://www.w3.org/2000/svg"
   xmlns="http://www.w3.org/2000/svg"
   xmlns:xlink="http://www.w3.org/1999/xlink"
   xmlns:sodipodi="http://sodipodi.sourceforge.net/DTD/sodipodi-0.dtd"
   xmlns:inkscape="http://www.inkscape.org/namespaces/inkscape"
   width="24.068909"
   height="24.068909"
   id="svg2"
   version="1.1"
   inkscape:version="0.48.3.1 r9886"
   sodipodi:docname="icon_exercise.svg">
  <defs
     id="defs4">
    <linearGradient
       inkscape:collect="always"
       id="linearGradient3759">
      <stop
         style="stop-color:#808080;stop-opacity:1;"
         offset="0"
         id="stop3761" />
      <stop
         style="stop-color:#808080;stop-opacity:0;"
         offset="1"
         id="stop3763" />
    </linearGradient>
    <linearGradient
       id="linearGradient5252">
      <stop
         style="stop-color:#ff6600;stop-opacity:1;"
         offset="0"
         id="stop5254" />
      <stop
         style="stop-color:#366600;stop-opacity:0;"
         offset="1"
         id="stop5256" />
    </linearGradient>
    <radialGradient
       inkscape:collect="always"
       xlink:href="#linearGradient3759"
       id="radialGradient3781"
       cx="18.392857"
       cy="-4.2054815"
       fx="18.392857"
       fy="-4.2054815"
       r="10.322499"
       gradientUnits="userSpaceOnUse" />
  </defs>
  <sodipodi:namedview
     id="base"
     pagecolor="#ffffff"
     bordercolor="#666666"
     borderopacity="1.0"
     inkscape:pageopacity="0.0"
     inkscape:pageshadow="2"
     inkscape:zoom="11.2"
     inkscape:cx="8.0101707"
     inkscape:cy="8.7913564"
     inkscape:document-units="px"
     inkscape:current-layer="layer1"
     showgrid="false"
     inkscape:snap-global="false"
     inkscape:window-width="1615"
     inkscape:window-height="1026"
     inkscape:window-x="65"
     inkscape:window-y="24"
     inkscape:window-maximized="1"
     fit-margin-top="0"
     fit-margin-left="0"
     fit-margin-right="0"
     fit-margin-bottom="0">
    <inkscape:grid
       type="xygrid"
       id="grid3756"
       empspacing="5"
       visible="true"
       enabled="true"
       snapvisiblegridlinesonly="true"
       originx="-323.55293px"
       originy="-620.90573px" />
  </sodipodi:namedview>
  <metadata
     id="metadata7">
    <rdf:RDF>
      <cc:Work
         rdf:about="">
        <dc:format>image/svg+xml</dc:format>
        <dc:type
           rdf:resource="http://purl.org/dc/dcmitype/StillImage" />
        <dc:title />
      </cc:Work>
    </rdf:RDF>
  </metadata>
  <g
     inkscape:label="Ebene 1"
     inkscape:groupmode="layer"
     id="layer1"
     transform="translate(-323.55293,-407.38755)">
    <g
       style="fill:#8f8f8f;overflow:visible;fill-opacity:1"
       id="g3079"
       transform="matrix(0.09544435,0,0,0.09544412,319.73049,397.52678)">
      <path
         inkscape:connector-curvature="0"
         style="fill:#8f8f8f;fill-rule:evenodd;fill-opacity:1"
         id="path109"
         d="M 171.76474,337.2522 171.297,268.485 c -8.461,9.684 -16.381,17.783 -23.904,24.443 -7.561,6.552 -13.356,12.024 -21.133,15.156 -8.063,3.132 -19.295,6.12 -26.063,3.276 -6.769,-3.097 -11.088,-8.856 -14.076,-21.168 -2.952,-12.528 -3.528,-37.009 -3.815,-52.633 -0.469,-15.731 -3.492,-32.399 1.619,-40.14 5.148,-7.704 23.112,-9.144 28.764,-5.436 5.473,3.744 3.313,16.02 4.357,27.684 0.936,11.7 1.475,25.344 1.619,41.76 5.939,-6.12 12.133,-12.132 18.973,-18.432 6.84,-6.336 12.779,-15.156 21.707,-18.972 8.82,-3.816 19.908,-5.04 30.924,-3.816 10.98,1.224 22.824,10.62 34.164,10.836 11.232,-0.036 22.608,-7.164 32.58,-10.296 9.721,-3.096 15.19227,-5.25076 25.56027,-4.39409 -0.19305,81.85351 0.39447,-54.17107 0.39447,120.89829 -37.044,0.001 -74.124,0.001 -111.203,0.001 z"
         sodipodi:nodetypes="ccccccccccccccccccc" />
      <path
         inkscape:connector-curvature="0"
         style="fill:#8f8f8f;fill-rule:evenodd;fill-opacity:1"
         id="path111"
         d="m 230.96,121.397 c 23.946,0 43.38,19.45 43.38,43.416 0,23.965 -19.434,43.416 -43.38,43.416 -23.945,0 -43.38,-19.451 -43.38,-43.416 0,-23.966 19.435,-43.416 43.38,-43.416" />
      <path
         inkscape:connector-curvature="0"
         style="fill:#8f8f8f;fill-rule:evenodd;fill-opacity:1"
         id="path113"
         d="m 58.977,203.397 v 7.596 h 71.063 v -7.596 H 58.977 z" />
      <path
         inkscape:connector-curvature="0"
         style="fill:#8f8f8f;fill-rule:evenodd;fill-opacity:1"
         id="path115"
         d="m 132.956,181.689 c -4.896,0 -8.892,3.96 -8.892,8.856 0,10.728 0,21.456 0,32.184 0,4.896 3.996,8.892 8.892,8.892 1.296,0 2.628,0 3.96,0 4.896,0 8.856,-3.996 8.856,-8.892 0,-10.728 0,-21.456 0,-32.184 0,-4.896 -3.96,-8.856 -8.856,-8.856 -1.332,0 -2.664,0 -3.96,0 z" />
      <path
         inkscape:connector-curvature="0"
         style="fill:#8f8f8f;fill-rule:evenodd;fill-opacity:1"
         id="path117"
         d="m 61.893,181.689 c -4.896,0 -8.893,3.96 -8.893,8.856 0,10.728 0,21.456 0,32.184 0,4.896 3.996,8.892 8.893,8.892 1.295,0 2.627,0 3.959,0 4.896,0 8.856,-3.996 8.856,-8.892 0,-10.728 0,-21.456 0,-32.184 0,-4.896 -3.96,-8.856 -8.856,-8.856 -1.332,0 -2.664,0 -3.959,0 z" />
    </g>
  </g>
</svg>
