<?xml version="1.0" encoding="UTF-8" standalone="no"?>
<!-- Created with Inkscape (http://www.inkscape.org/) -->

<svg
   xmlns:dc="http://purl.org/dc/elements/1.1/"
   xmlns:cc="http://creativecommons.org/ns#"
   xmlns:rdf="http://www.w3.org/1999/02/22-rdf-syntax-ns#"
   xmlns:svg="http://www.w3.org/2000/svg"
   xmlns="http://www.w3.org/2000/svg"
   xmlns:xlink="http://www.w3.org/1999/xlink"
   xmlns:sodipodi="http://sodipodi.sourceforge.net/DTD/sodipodi-0.dtd"
   xmlns:inkscape="http://www.inkscape.org/namespaces/inkscape"
   width="24.068909"
   height="24.068909"
   id="svg2"
   version="1.1"
   inkscape:version="0.48.3.1 r9886"
   sodipodi:docname="icon_muscle.svg">
  <defs
     id="defs4">
    <linearGradient
       inkscape:collect="always"
       id="linearGradient3759">
      <stop
         style="stop-color:#808080;stop-opacity:1;"
         offset="0"
         id="stop3761" />
      <stop
         style="stop-color:#808080;stop-opacity:0;"
         offset="1"
         id="stop3763" />
    </linearGradient>
    <linearGradient
       id="linearGradient5252">
      <stop
         style="stop-color:#ff6600;stop-opacity:1;"
         offset="0"
         id="stop5254" />
      <stop
         style="stop-color:#366600;stop-opacity:0;"
         offset="1"
         id="stop5256" />
    </linearGradient>
    <radialGradient
       inkscape:collect="always"
       xlink:href="#linearGradient3759"
       id="radialGradient3781"
       cx="18.392857"
       cy="-4.2054815"
       fx="18.392857"
       fy="-4.2054815"
       r="10.322499"
       gradientUnits="userSpaceOnUse" />
    <inkscape:perspective
       sodipodi:type="inkscape:persp3d"
       inkscape:vp_x="0 : 526.18109 : 1"
       inkscape:vp_y="0 : 1000 : 0"
       inkscape:vp_z="744.09448 : 526.18109 : 1"
       inkscape:persp3d-origin="372.04724 : 350.78739 : 1"
       id="perspective3383" />
    <inkscape:perspective
       sodipodi:type="inkscape:persp3d"
       inkscape:vp_x="0 : 526.18109 : 1"
       inkscape:vp_y="0 : 1000 : 0"
       inkscape:vp_z="744.09448 : 526.18109 : 1"
       inkscape:persp3d-origin="372.04724 : 350.78739 : 1"
       id="perspective2447" />
    <inkscape:perspective
       id="perspective10"
       inkscape:persp3d-origin="372.04724 : 350.78739 : 1"
       inkscape:vp_z="744.09448 : 526.18109 : 1"
       inkscape:vp_y="0 : 1000 : 0"
       inkscape:vp_x="0 : 526.18109 : 1"
       sodipodi:type="inkscape:persp3d" />
    <radialGradient
       r="13.439453"
       fy="417.59781"
       fx="335.9707"
       cy="417.59781"
       cx="335.9707"
       gradientUnits="userSpaceOnUse"
       id="radialGradient3820"
       xlink:href="#linearGradient3755"
       inkscape:collect="always" />
    <radialGradient
       gradientUnits="userSpaceOnUse"
       r="13.439453"
       fy="417.59781"
       fx="335.9707"
       cy="417.59781"
       cx="335.9707"
       id="radialGradient3819"
       xlink:href="#linearGradient3755"
       inkscape:collect="always" />
    <linearGradient
       id="linearGradient3755-8">
      <stop
         style="stop-color:#444444;stop-opacity:1;"
         offset="0"
         id="stop3757-6" />
      <stop
         style="stop-color:#b3b3b3;stop-opacity:0;"
         offset="1"
         id="stop3759-6" />
    </linearGradient>
    <linearGradient
       id="linearGradient5252-1">
      <stop
         style="stop-color:#ff6600;stop-opacity:1;"
         offset="0"
         id="stop5254-9" />
      <stop
         style="stop-color:#366600;stop-opacity:0;"
         offset="1"
         id="stop5256-0" />
    </linearGradient>
    <radialGradient
       inkscape:collect="always"
       xlink:href="#linearGradient3755-8"
       id="radialGradient3771"
       cx="335.55292"
       cy="417.56317"
       fx="335.55292"
       fy="417.56317"
       r="14.879264"
       gradientTransform="matrix(1,0,0,0.87895301,0,50.544763)"
       gradientUnits="userSpaceOnUse" />
    <linearGradient
       id="linearGradient5252-2">
      <stop
         id="stop5254-0"
         offset="0"
         style="stop-color:#ff6600;stop-opacity:1;" />
      <stop
         id="stop5256-08"
         offset="1"
         style="stop-color:#366600;stop-opacity:0;" />
    </linearGradient>
    <linearGradient
       id="linearGradient3755">
      <stop
         id="stop3757"
         offset="0"
         style="stop-color:#7d7d7d;stop-opacity:1;" />
      <stop
         id="stop3759"
         offset="1"
         style="stop-color:#fff6f6;stop-opacity:0.73640168;" />
    </linearGradient>
    <linearGradient
       id="linearGradient3813">
      <stop
         id="stop3815"
         offset="0"
         style="stop-color:#928c8c;stop-opacity:1;" />
      <stop
         id="stop3817"
         offset="1"
         style="stop-color:#928c8c;stop-opacity:0;" />
    </linearGradient>
  </defs>
  <sodipodi:namedview
     id="base"
     pagecolor="#ffffff"
     bordercolor="#666666"
     borderopacity="1.0"
     inkscape:pageopacity="0.0"
     inkscape:pageshadow="2"
     inkscape:zoom="11.2"
     inkscape:cx="-3.3720443"
     inkscape:cy="10.884462"
     inkscape:document-units="px"
     inkscape:current-layer="layer1"
     showgrid="false"
     inkscape:snap-global="false"
     inkscape:window-width="1615"
     inkscape:window-height="1026"
     inkscape:window-x="65"
     inkscape:window-y="24"
     inkscape:window-maximized="1"
     fit-margin-top="0"
     fit-margin-left="0"
     fit-margin-right="0"
     fit-margin-bottom="0">
    <inkscape:grid
       type="xygrid"
       id="grid3756"
       empspacing="5"
       visible="true"
       enabled="true"
       snapvisiblegridlinesonly="true"
       originx="-323.55293px"
       originy="-620.90573px" />
  </sodipodi:namedview>
  <metadata
     id="metadata7">
    <rdf:RDF>
      <cc:Work
         rdf:about="">
        <dc:format>image/svg+xml</dc:format>
        <dc:type
           rdf:resource="http://purl.org/dc/dcmitype/StillImage" />
        <dc:title />
      </cc:Work>
    </rdf:RDF>
  </metadata>
  <g
     inkscape:label="Ebene 1"
     inkscape:groupmode="layer"
     id="layer1"
     transform="translate(-323.55293,-407.38755)">
    <path
       style="fill:#ffffff;fill-opacity:1;stroke:none"
       d="m 328.23938,419.39463 3.31976,1.06409 1.11267,-1.34214 0.965,-0.37619 1.43114,0.17174 1.33913,1.35141 0.68491,-4.65122 -1.15367,-3.01222 -1.01386,0.68648 -2.06947,0.13309 -1.67886,-0.94114 0.20675,-3.1518 1.53835,-0.73558 2.5983,-0.39816 1.9703,0.78233 0.75997,1.46928 1.13616,2.22165 2.34649,3.44834 1.40248,2.59759 0.87814,3.91883 -0.39714,1.08855 -4.36906,2.43089 -5.32195,1.58629 -5.57105,-4.77568 z"
       id="rect3806"
       inkscape:connector-curvature="0"
       sodipodi:nodetypes="ccccccccccccccccccccccccc" />
    <g
       transform="matrix(0.83851549,0,0,0.83851549,75.762506,224.42186)"
       id="layer1-4-1"
       inkscape:label="Layer 1"
       style="fill:#8f8f8f;fill-opacity:1">
      <path
         sodipodi:nodetypes="csscscccccccsccccccsscccccccscccssccccccccccsccccccccccccccccsccsssssssssssssssccccccsccccccccccccssssssssssssssscccc"
         inkscape:connector-curvature="0"
         id="path3168-5-1"
         d="m 309.64698,219.06751 c -0.18756,0.003 -0.40526,0.0278 -0.72337,0.0709 -1.31418,0.17824 -2.05883,0.34889 -2.10275,0.47871 -0.0208,0.0615 -0.17398,0.11026 -0.34041,0.10991 -0.48492,-4.5e-4 -1.35675,0.36051 -1.67723,0.69501 -0.23371,0.24394 -0.3055,0.45103 -0.42552,1.36165 -0.023,0.1381 -0.0388,0.27914 -0.0496,0.42197 -0.001,0.0153 -0.003,0.0308 -0.004,0.0461 -0.0717,0.61888 -0.10272,1.09335 -0.0709,1.46448 -3.3e-4,0.004 3.3e-4,0.01 0,0.0142 -0.004,1.25408 1.28918,1.89501 2.37224,2.04247 0.28165,0.14097 0.52744,0.13289 0.75883,0.0638 0.23924,0.0127 0.36154,-0.0463 0.62764,-0.20567 0.18673,-0.11185 0.36679,-0.18542 0.55671,-0.21985 0.19149,0.14733 0.44604,0.0887 0.66309,-0.0284 0.41254,-0.0384 0.64876,-0.21446 0.77302,-0.5709 l 0.0922,-0.2624 c 0.43202,0.89003 0.53705,1.94018 0.72692,2.90059 0.0281,0.42151 0.0298,0.84095 0.0177,1.26236 -0.0138,0.27242 -0.0338,0.58648 -0.0603,0.98932 -0.0249,0.37995 -0.0452,0.74675 -0.0674,1.11342 -0.0107,0.17759 -0.0226,0.36383 -0.0319,0.5248 -0.008,0.13381 -0.0157,0.26685 -0.0213,0.40069 -10e-4,0.0272 -0.003,0.0544 -0.004,0.0816 -0.0102,0.19406 -0.025,0.45903 -0.0284,0.55669 l -0.0177,0.51417 c -0.0223,0.0169 -0.0482,0.0436 -0.0745,0.0887 l -0.21634,-0.2553 c -0.67441,-0.79675 -1.12916,-1.02855 -2.28001,-1.15598 -1.02176,-0.11315 -1.66469,0.16215 -2.71975,1.17016 l -0.88293,0.84394 -0.37941,-0.19503 c -0.41753,-0.21611 -2.65565,-0.95387 -2.8935,-0.95387 -0.0829,0 -0.14893,0.046 -0.14893,0.0993 0,0.0533 0.49502,0.18106 0.97868,0.32269 0.43343,0.12829 0.79179,0.30228 1.40775,0.53897 0.24686,0.09 0.36055,0.12909 0.49998,0.18085 0.12633,0.19824 0.70695,0.81842 0.78365,1.97509 0.59348,-2.70073 2.1601,-3.87687 3.4325,-3.7197 0.28914,0.0568 0.25354,0.0509 0.42906,0.0922 0.86441,0.21059 0.96764,0.53853 1.59919,0.96095 0.19527,0.27992 0.25637,0.40734 0.31205,0.45032 0.27429,0.3765 0.1566,0.77367 0.77303,1.69851 0.59908,0.69875 0.95887,1.32785 1.63467,1.64533 3.26806,1.04869 5.96344,-1.37754 4.67002,-1.16662 -3.90215,0.63631 -6.07864,-6.84564 -5.34729,-10.01731 -0.23369,-1.3898 1.87346,1.57575 1.19854,0.12056 -0.39855,-1.0093 -1.17241,-1.82898 -1.65597,-2.78002 -0.53333,-1.0224 -0.73744,0.0729 -1.20209,0.59571 -0.17334,0.69357 -1.14317,-0.1172 -0.95028,0.33333 0.13291,0.15016 0.24648,0.30853 0.34748,0.47516 -0.0519,0.13787 -0.17334,0.44782 -0.39714,0.53189 -0.1156,0.0838 -0.21973,0.13495 -0.31912,0.1702 -0.12428,-0.51771 -0.50691,-1.23751 -0.63473,-1.79425 -1.10792,-1.1287 -0.13061,0.96999 -0.28724,1.55667 -0.15251,1.22512 -0.63723,-0.37157 -0.69501,-0.78366 -0.23617,-0.73374 -0.0688,-2.92518 -1.31906,-1.92544 -0.0471,0.34945 0.58364,1.64656 0.39715,2.41479 0.0517,1.22331 -0.36488,-0.16463 -0.37946,-0.61345 -0.17324,-0.3219 -0.10816,-2.20251 -0.86519,-2.9254 -0.13265,0.14129 -0.31072,0.24179 -0.4468,0.26239 -0.003,-0.0404 -0.006,-0.0832 -0.0142,-0.14184 -0.039,-0.2658 0.008,-0.40969 0.18085,-0.55672 0.32479,-0.27418 0.94492,-0.40951 1.31912,-0.48224 0.1784,0 0.35255,-0.0444 0.38647,-0.0993 0.0339,-0.0549 0.16492,-0.12664 0.2908,-0.15957 0.12588,-0.0329 1.10923,-0.28949 1.95027,-0.37232 0.61316,-0.0604 0.90178,-0.0263 1.52122,0.17375 1.30871,0.42282 1.56996,0.5998 1.85806,1.27301 0.14167,0.33103 0.50768,1.11918 0.81202,1.75168 0.30429,0.63252 0.55314,1.18144 0.55314,1.21981 0,0.0384 0.0774,0.16028 0.17379,0.26949 0.0964,0.10922 0.54634,0.76026 0.99994,1.44675 0.45361,0.6865 1.15679,1.73327 1.5602,2.32615 0.40347,0.59288 0.79559,1.20562 0.87231,1.36164 0.0767,0.15602 0.26725,0.48792 0.42199,0.73756 0.7161,1.15534 1.27039,2.76608 1.41483,4.10266 0.0573,0.53049 0.20197,1.12208 0.33685,1.38647 0.24593,0.48202 0.31539,1.31216 0.12058,1.43257 -0.0503,0.0311 -0.0917,0.11031 -0.1064,0.19149 -0.23348,0.30547 -0.57736,0.91793 -1.22689,1.15595 -2.22732,0.90574 -6.25789,0.50111 -7.09898,0.0106 1.49197,1.37959 1.92632,1.47173 2.04245,2.67366 -1.33364,0.13701 -6.74178,0.26651 -7.65924,-1.15599 0.0622,-1.1341 3.85203,-1.01743 4.34735,-3.80483 -0.60691,0.70662 -2.52745,3.86587 -6.43946,1.0957 -0.51126,-0.36203 -4.4431,-1.19446 -1.0106,1.21984 -0.53434,0.82581 -1.81828,0.75426 -1.81552,1.71975 l 0.0142,5.59906 c 0.006,-0.008 0.0119,-0.0166 0.0177,-0.0248 0.0303,0.28701 0.55707,-0.16327 1.12407,-1.26589 l 0.54607,-1.06028 0.0355,0 c 1.2395,0.0822 2.44927,0.40811 3.67361,0.5993 0.54598,0.029 1.09165,0.0184 1.63467,-0.0284 0.022,-0.001 0.0452,-0.005 0.0674,-0.007 0.065,-0.006 0.13014,-0.0108 0.19499,-0.0177 0.0315,-0.003 0.0638,-0.007 0.0958,-0.0106 0.32732,-0.0355 0.67624,-0.0848 1.06735,-0.15247 1.8599,-0.32181 4.32661,-1.36084 6.02806,-2.5389 0.5955,-0.41231 1.47527,-0.93378 1.95384,-1.15953 1.16553,-0.54978 2.38499,-1.74543 2.66302,-2.60627 0.25291,-0.7831 0.24021,-1.25508 -0.0532,-1.91837 -0.13412,-0.30319 -0.28334,-0.93495 -0.3333,-1.40419 -0.13452,-1.26343 -0.70443,-2.89705 -1.40777,-4.03174 -0.1547,-0.24965 -0.34522,-0.58156 -0.42194,-0.73756 -0.0767,-0.15603 -0.46886,-0.76879 -0.87231,-1.36166 -0.40346,-0.59286 -1.10497,-1.63965 -1.56022,-2.32613 -0.45525,-0.68649 -0.89759,-1.35032 -0.98223,-1.47514 -0.0846,-0.12482 -0.44482,-0.83964 -0.79784,-1.58856 -1.08631,-2.30448 -1.1193,-2.36184 -1.60274,-2.63111 -0.24787,-0.13804 -0.79963,-0.36256 -1.2269,-0.49997 -0.44372,-0.14268 -0.66966,-0.19993 -0.98226,-0.19504 z m -4.62058,3.663 0.0964,1.3024 c -0.15938,0.78882 -0.38647,-1.04548 -0.0964,-1.3024 z"
         style="fill:#8f8f8f;fill-opacity:1" />
    </g>
  </g>
</svg>
