<?xml version="1.0" encoding="UTF-8" standalone="no"?>
<!-- Created with Inkscape (http://www.inkscape.org/) -->

<svg
   xmlns:dc="http://purl.org/dc/elements/1.1/"
   xmlns:cc="http://creativecommons.org/ns#"
   xmlns:rdf="http://www.w3.org/1999/02/22-rdf-syntax-ns#"
   xmlns:svg="http://www.w3.org/2000/svg"
   xmlns="http://www.w3.org/2000/svg"
   xmlns:sodipodi="http://sodipodi.sourceforge.net/DTD/sodipodi-0.dtd"
   xmlns:inkscape="http://www.inkscape.org/namespaces/inkscape"
   width="128.48863"
   height="184.76968"
   id="svg2"
   version="1.1"
   inkscape:version="0.48.3.1 r9886"
   sodipodi:docname="Alternate-incline-curl-1.svg">
  <defs
     id="defs4" />
  <sodipodi:namedview
     id="base"
     pagecolor="#ffffff"
     bordercolor="#666666"
     borderopacity="1.0"
     inkscape:pageopacity="0.0"
     inkscape:pageshadow="2"
     inkscape:zoom="3.959798"
     inkscape:cx="78.418945"
     inkscape:cy="123.54762"
     inkscape:document-units="px"
     inkscape:current-layer="layer1"
     showgrid="false"
     fit-margin-top="0"
     fit-margin-left="0"
     fit-margin-right="0"
     fit-margin-bottom="0"
     inkscape:window-width="1855"
     inkscape:window-height="1056"
     inkscape:window-x="65"
     inkscape:window-y="24"
     inkscape:window-maximized="1" />
  <metadata
     id="metadata7">
    <rdf:RDF>
      <cc:Work
         rdf:about="">
        <dc:format>image/svg+xml</dc:format>
        <dc:type
           rdf:resource="http://purl.org/dc/dcmitype/StillImage" />
        <dc:title></dc:title>
      </cc:Work>
    </rdf:RDF>
  </metadata>
  <g
     inkscape:label="Ebene 1"
     inkscape:groupmode="layer"
     id="layer1"
     transform="translate(-642.48917,-671.289)">
    <path
       style="fill:#000000"
       d="m 674.04693,854.6469 c -1.85065,-0.80347 -4.20457,-1.46086 -5.23095,-1.46086 -1.1874,0 -2.10943,-0.96936 -2.53505,-2.66517 -0.57313,-2.28353 -0.0389,-3.21005 3.73095,-6.47035 7.05637,-6.10263 9.19933,-8.34056 12.68093,-13.24287 4.6745,-6.582 4.7245,-7.03702 0.92419,-8.41123 -4.5464,-1.64399 -4.3906,-1.76826 -4.1059,3.27502 0.21405,3.79168 -0.14531,4.79889 -2.32349,6.51224 -1.41718,1.11476 -4.24932,2.29429 -6.29365,2.62119 -2.20816,0.3531 -5.28212,1.98683 -7.57279,4.02474 -2.12072,1.8867 -4.9929,3.66591 -6.38264,3.9538 -1.38973,0.28789 -3.30818,0.94625 -4.26322,1.46303 -3.19772,1.73031 -7.43578,1.08881 -9.04641,-1.36932 -2.28411,-3.48598 -1.05426,-7.43962 3.18739,-10.24661 3.87785,-2.56624 10.51666,-10.79193 12.12576,-15.0242 1.62421,-4.27199 1.10281,-7.81764 -1.8344,-12.47449 -3.43068,-5.43922 -6.19463,-12.22289 -6.19965,-15.21602 -0.002,-1.22637 -0.84983,-3.61725 -1.88393,-5.31308 -1.03411,-1.69582 -2.21395,-4.60287 -2.62187,-6.46012 -0.40792,-1.85724 -1.58282,-5.33912 -2.61089,-7.73751 -1.55352,-3.62421 -1.65897,-4.73135 -0.62439,-6.55521 2.58323,-4.55397 13.47677,-13.64348 20.0223,-16.70651 6.68218,-3.12697 6.69189,-3.12824 11.56153,-1.5108 5.63378,1.87124 8.43967,4.56862 10.07703,9.68731 1.77058,5.53515 -0.58029,9.55708 -7.98333,13.65807 -8.69187,4.81496 -8.19168,6.66069 2.13083,7.86292 7.86379,0.91587 8.04829,0.88843 7.44788,-1.10785 -1.9863,-6.60417 -1.67226,-8.99812 1.92525,-14.67633 2.18175,-3.44361 4.72581,-6.10952 6.55223,-6.86605 1.64212,-0.68019 2.75906,-1.60339 2.48208,-2.05156 -2.08773,-3.37802 10.85161,-0.40401 14.20834,3.26568 2.83739,3.10193 5.00731,7.59395 5.85749,12.1258 0.78357,4.17677 1.07624,4.18739 7.29066,0.26439 3.08906,-1.95003 4.31675,-3.58612 5.48576,-7.31059 1.98639,-6.32867 2.7871,-12.29832 1.64958,-12.29832 -0.5013,0 -1.59043,-1.31301 -2.4203,-2.91779 -2.0792,-4.02073 -9.31616,-8.66648 -15.70853,-10.08406 -6.34675,-1.40747 -12.33398,-1.0248 -12.33398,0.78833 0,1.73163 -2.46075,3.1795 -5.43555,3.19821 -1.33955,0.008 -3.36455,0.87928 -4.5,1.93523 -1.55939,1.45022 -4.14394,2.06584 -10.56445,2.51637 -9.35964,0.65678 -8.42241,-0.73983 1.31272,-1.95616 3.75685,-0.46938 6.56272,-1.50038 8.41219,-3.091 1.5263,-1.31268 3.73944,-2.38724 4.9181,-2.38791 1.17866,-6.7e-4 2.40203,-0.67622 2.71862,-1.50122 0.31658,-0.825 1.15222,-1.50169 1.85698,-1.50375 1.49577,-0.004 4.74945,-7.38583 4.85168,-11.00676 0.0386,-1.36922 0.48696,-3.38949 0.99624,-4.48949 0.62582,-1.35173 0.7271,-0.21725 0.31247,3.5 -0.33743,3.025 -1.21749,6.67987 -1.9557,8.12193 l -1.34221,2.62194 8.20946,1.10682 c 4.5152,0.60875 9.17857,1.38252 10.36305,1.71949 1.57807,0.44894 2.3174,0.0965 2.76657,-1.31865 0.71226,-2.24414 5.22496,-4.95563 6.32832,-3.80242 0.41333,0.432 -0.0893,1.29518 -1.11705,1.91817 -6.35417,3.85187 -6.35086,3.81806 -0.90626,9.26267 l 4.99392,4.99391 3.83635,-5.83423 c 2.10999,-3.20883 4.6482,-6.56894 5.64045,-7.46692 2.62576,-2.37627 2.23925,-4.59944 -1.6959,-9.75477 -5.22558,-6.84588 -4.39976,-11.99059 2.25,-14.01705 1.2375,-0.37711 2.25,-1.33034 2.25,-2.11828 0,-1.75599 1.96977,-1.92925 2.07608,-0.18261 0.07,1.15049 2.67488,-4.79492 2.84784,-6.5 0.0418,-0.4125 -0.71142,-0.7544 -1.67392,-0.75977 -0.9625,-0.005 -4,-1.0556 -6.75,-2.33383 -6.34363,-2.94859 -13.61238,-2.36322 -21.52593,1.73353 -7.36291,3.81169 -8.97407,5.39593 -8.97407,8.82408 0,1.68137 -0.42102,2.64382 -1,2.28599 -1.89872,-1.17347 -0.9911,-5.13434 1.78624,-7.79521 3.48304,-3.33696 14.4161,-8.70479 17.72969,-8.70479 1.96699,0 2.48407,-0.50811 2.48407,-2.44098 0,-1.34254 0.51046,-2.75646 1.13435,-3.14205 0.78497,-0.48514 0.99346,0.25886 0.67691,2.41563 -0.40343,2.74876 -0.2127,3.05554 1.61565,2.59863 1.15118,-0.28768 4.20748,0.56368 6.8727,1.91446 l 4.79961,2.43252 1.57309,-2.40085 c 0.86521,-1.32047 2.75538,-2.68261 4.2004,-3.02699 4.09424,-0.97575 5.11481,-2.2734 5.28733,-6.72281 0.13299,-3.42998 0.22617,-3.60545 0.55137,-1.03827 0.29833,2.35506 1.21096,3.48013 3.83996,4.73382 1.89675,0.90449 3.44863,2.09453 3.44863,2.64453 0,0.55 -1.58381,0.24474 -3.51958,-0.67837 -3.42371,-1.63265 -3.56145,-1.61859 -5.05671,0.51618 -0.84541,1.207 -2.0741,2.20952 -2.73041,2.22782 -0.65632,0.0183 -2.24013,0.90573 -3.51958,1.97206 -2.93332,2.44471 -1.9512,4.65264 1.11443,2.50539 2.66329,-1.86544 4.45418,-1.89373 7.84602,-0.12396 3.04843,1.5906 4.37661,1.03302 5.75263,-2.41499 l 0.98643,-2.47177 0.0634,2.42126 c 0.0349,1.33169 -0.67092,3.23266 -1.56841,4.22438 -1.49254,1.64924 -1.49672,2.00926 -0.049,4.21871 2.09432,3.19634 3.10889,11.45916 1.81838,14.80921 -0.81255,2.1093 -0.62374,3.51422 0.89461,6.65685 5.84262,12.09284 -1.89406,27.85761 -10.65861,21.71868 -2.05201,-1.43729 -2.07758,-1.33721 -2.7225,10.657 -0.35813,6.65935 -0.6511,14.66151 -0.6511,17.78257 l 0,5.67465 -23.46584,14.16835 c -12.90621,7.79258 -23.87496,14.16834 -24.375,14.16834 -1.06182,0 -2.07873,4.37162 -2.72365,11.70884 -0.39532,4.49757 -0.17686,5.35922 1.5999,6.31011 4.27224,2.28643 12.869,-4.12853 10.55349,-7.8751 -0.32966,-0.5334 -2.37112,-1.26916 -4.53657,-1.63501 -2.16546,-0.36585 -4.51537,-1.36184 -5.22202,-2.2133 -1.13978,-1.37336 -0.77938,-1.46657 3.19243,-0.82574 6.86682,1.10794 8.90172,2.80535 8.71405,7.26883 -0.1452,3.45334 -0.55481,3.95402 -5.00175,6.11381 -2.66398,1.29384 -5.75574,2.1139 -6.87058,1.82237 -1.58559,-0.41464 -2.33594,0.20934 -3.44572,2.86544 -0.78031,1.86753 -1.41874,4.4302 -1.41874,5.69481 0,3.04749 -7.81608,11.88107 -13.41663,15.16321 -4.96562,2.91005 -9.43569,3.2388 -14.44818,1.06259 z m 11.46739,-2.94556 c 3.13509,-0.81659 5.75067,-1.60409 5.8124,-1.75 0.0617,-0.14592 2.01861,-2.59603 4.34862,-5.44471 4.13473,-5.0551 5.25353,-7.06725 3.2364,-5.82059 -1.57532,0.9736 -1.18105,-0.47099 1.16423,-4.26573 1.66371,-2.69194 2.25232,-5.49449 2.54512,-12.11804 0.20948,-4.73893 0.99572,-10.86623 1.74719,-13.61623 2.45014,-8.9662 2.65163,-12.83641 1.09093,-20.9542 -2.22952,-11.5966 0.16902,-16.5458 8.01863,-16.5458 2.18633,0 2.39751,-0.31781 1.82743,-2.75 -1.20704,-5.14969 -5.85484,-12.71378 -8.62501,-14.03682 -5.80906,-2.77442 -13.24125,1.82189 -18.38227,11.36818 -1.6272,3.02154 -1.67643,3.86149 -0.47724,8.14383 0.7354,2.62614 1.6388,9.83439 2.00755,16.01832 0.36875,6.18393 1.13323,11.70628 1.69883,12.27188 0.7045,0.7045 0.88751,-1.65551 0.58109,-7.49351 -0.52381,-9.97996 1.21468,-11.84747 2.11492,-2.27188 0.73342,7.80105 -0.41663,17.3661 -3.06596,25.5 -1.7497,5.37188 -1.82181,6.25 -0.51322,6.25 1.00663,0 0.20874,1.49126 -2.35486,4.40122 -2.13255,2.42066 -5.59626,6.47066 -7.69713,9 -2.10087,2.52933 -4.37662,4.59878 -5.05722,4.59878 -1.80221,0 -7.62301,5.05949 -7.62301,6.62598 0,0.73475 1.2375,1.60159 2.75,1.9263 1.5125,0.32472 3.65,0.97784 4.75,1.45138 2.83357,1.21982 3.70641,1.17763 10.10258,-0.48836 z m -9.27122,-4.0153 c 0.4366,-1.32017 12.66864,-1.79516 12.66864,-0.49193 0,0.54556 -1.4625,1.05986 -3.25,1.14289 -8.26167,0.38375 -9.72732,0.28245 -9.41864,-0.65096 z m 18.66864,-17.50672 c 0,-1.16862 -0.46583,-2.99518 -1.03518,-4.05902 -1.14991,-2.14862 -0.028,-2.59748 1.83518,-0.73426 1.45559,1.45559 1.58226,5.44571 0.2,6.3 -0.55,0.33992 -1,-0.33811 -1,-1.50672 z m 5.55084,-28.6365 c 0.92697,-6.38213 1.44916,-6.77218 1.44916,-1.08246 0,2.5342 -0.48478,4.90726 -1.07729,5.27345 -0.74829,0.46247 -0.86186,-0.81741 -0.37187,-4.19099 z m -5.47668,-23.98434 c -0.0408,-1.72015 0.61172,-3.69678 1.45001,-4.3925 2.28896,-1.89967 2.40579,-0.91469 0.41752,3.52006 l -1.79336,4 -0.0742,-3.12756 z m -41.77085,63.6268 c 2.09182,-0.4126 5.64777,-2.23244 7.90213,-4.04409 2.25435,-1.81165 5.94287,-3.92753 8.19669,-4.70195 8.68754,-2.98507 9.58347,-6.78631 4.09787,-17.38649 -1.925,-3.7198 -3.5,-7.61155 -3.5,-8.64833 0,-1.03677 -0.27992,-2.16496 -0.62204,-2.50709 -0.34212,-0.34212 -0.71566,-2.77962 -0.83008,-5.41666 -0.11443,-2.63705 -1.6555,-8.77909 -3.4246,-13.64899 -3.00064,-8.26001 -3.11188,-9.01409 -1.65726,-11.23412 0.8576,-1.30887 2.79109,-2.62879 4.29663,-2.93315 4.67947,-0.946 13.42836,-5.87155 14.48448,-8.15463 2.09063,-4.51946 -2.47074,-12.71373 -8.72381,-15.67186 -3.24234,-1.53385 -4.08662,-1.61838 -4.96499,-0.4971 -0.58208,0.74306 -3.43711,2.44676 -6.34451,3.786 -5.25708,2.42158 -17.21382,13.00695 -17.21382,15.23949 0,1.67851 4.65389,14.92675 6.46055,18.39127 0.83992,1.61065 1.53208,3.60346 1.53813,4.42846 0.006,0.825 2.03382,5.98567 4.50616,11.46815 5.84039,12.95125 5.91031,16.27391 0.49516,23.53185 -2.2,2.94867 -4,5.72355 -4,6.16642 0,0.44286 -1.84526,2.02634 -4.10058,3.51884 -4.64189,3.07186 -6.59984,6.76586 -4.7607,8.98189 0.66711,0.80381 1.87401,1.13176 2.77149,0.75308 0.87439,-0.36894 3.30128,-1.00838 5.3931,-1.42099 z m 13.72849,-11.84286 c 0.0175,-0.36101 0.69249,-1.52989 1.5,-2.59751 0.80751,-1.06762 1.4682,-3.65512 1.4682,-5.75 0,-2.09488 0.44143,-3.80887 0.98095,-3.80887 1.51242,0 2.42467,4.99438 1.14583,6.27322 -0.61973,0.61973 -1.12678,2.1093 -1.12678,3.31015 0,1.34236 -0.77037,2.38482 -2,2.70638 -1.1,0.28766 -1.98569,0.22764 -1.9682,-0.13337 z m -6.43662,-5.15638 c 1.43794,-2.75 3.05477,-5 3.59296,-5 1.15195,0 1.07167,0.21066 -2.18814,5.7423 -3.48697,5.9171 -4.58386,5.33751 -1.40482,-0.7423 z m -6.39518,-48.2 c -1.45789,-1.45789 -1.5709,-4.45274 -0.2,-5.3 0.55,-0.33992 1,0.16059 1,1.11224 0,0.95165 0.74474,2.55321 1.65499,3.55902 1.36541,1.50876 1.4004,1.82874 0.2,1.82874 -0.80025,0 -1.99499,-0.54 -2.65499,-1.2 z m 0.82896,-10.76094 c -0.80907,-0.51167 -1.15745,-1.24391 -0.77417,-1.62719 0.38328,-0.38328 1.33239,-0.16945 2.10912,0.47519 1.08052,0.89674 2.02676,0.89206 4.02839,-0.0199 1.43889,-0.6556 2.93872,-0.86944 3.33297,-0.47519 1.03265,1.03265 -1.79945,2.57744 -4.72527,2.57744 -1.375,0 -3.16197,-0.41864 -3.97104,-0.93031 z m 33.99619,50.3398 c 0.92234,-4.44287 0.89254,-6.5914 -0.14215,-10.25 -0.72,-2.54587 -1.32573,-8.88666 -1.34605,-14.09063 l -0.037,-9.46178 -5.5,-1.72713 c -3.025,-0.94992 -6.76708,-1.75463 -8.31574,-1.78823 -3.61901,-0.0785 -6.68426,-1.72769 -6.68426,-3.59627 0,-1.61926 -1.56452,-1.97846 -2.44092,-0.56042 -0.50506,0.81721 1.66004,7.73399 5.82084,18.5956 0.84276,2.2 1.55205,5.85453 1.57619,8.12117 l 0.0439,4.12117 5.11674,0.67876 c 2.8142,0.37332 5.38075,0.41474 5.70344,0.0921 0.32269,-0.32268 0.60765,-5.75229 0.63326,-12.06579 0.0393,-9.68124 0.25084,-11.20252 1.35088,-9.71323 0.94801,1.28347 1.16837,4.36109 0.80667,11.26587 -0.27372,5.225 -0.52316,10.47857 -0.55433,11.67459 -0.0491,1.88641 -0.51262,2.11805 -3.49718,1.74787 -1.89229,-0.2347 -4.59229,-0.86463 -6,-1.39985 -3.43195,-1.30482 -3.38302,0.48315 0.19052,6.96246 2.40276,4.35652 3.15292,4.98793 5.94098,5.00052 1.75504,0.008 3.4691,0.46441 3.80902,1.01441 1.33686,2.16309 2.40834,0.75848 3.52515,-4.62114 z m 44.97485,-24.73487 18.5,-11.25906 0.6511,-5.44246 c 0.35811,-2.99336 0.69561,-10.77751 0.75,-17.29811 0.0908,-10.88982 -0.0844,-12.08053 -2.1511,-14.61604 -1.2375,-1.51822 -2.7,-3.53063 -3.25,-4.47204 -0.6829,-1.16888 -0.89167,4.57574 -0.65837,18.11604 l 0.34163,19.82768 -18.05373,10.36205 c -9.92956,5.69912 -18.69115,10.87412 -19.4702,11.5 -0.77906,0.62587 -1.67012,2.83964 -1.98014,4.91947 l -0.56368,3.78153 3.69225,-2.08 c 2.03073,-1.144 12.01724,-7.14658 22.19224,-13.33906 z m -1.71435,-8.07532 13.71435,-7.93134 0,-20.31866 c 0,-11.92041 -0.38601,-20.31867 -0.9339,-20.31867 -0.97105,0 -5.05568,5.41912 -9.62485,12.76937 -1.88138,3.02648 -2.3573,4.62762 -1.63484,5.5 1.31415,1.58685 0.0194,8.82132 -2.1793,12.17698 -0.911,1.39036 -3.56228,3.49864 -5.89174,4.68507 -2.32945,1.18643 -5.76025,3.31821 -7.62398,4.73728 -3.28286,2.4996 -3.3669,2.51171 -2.6928,0.38779 0.65656,-2.06861 0.52295,-2.13207 -2.3674,-1.12449 -3.34588,1.16638 -7.14022,5.29574 -6.59916,7.18182 0.18715,0.6524 0.90371,4.41968 1.59236,8.37174 l 1.2521,7.18556 4.6374,-2.68556 c 2.55057,-1.47706 10.80886,-6.25466 18.35176,-10.61689 z m 34.71105,-40.81867 c 3.36406,-3.52903 3.40948,-4.33904 0.81214,-14.48344 -1.09104,-4.26124 -1.53335,-4.92686 -2.38098,-3.58309 -1.40379,2.22547 -11.52337,2.13436 -11.1223,-0.10014 0.10694,-0.59583 -0.68136,-0.93083 -1.75178,-0.74443 -1.62731,0.28336 -1.74225,0.0931 -0.70144,-1.16098 0.77651,-0.93564 0.87563,-1.72801 0.2635,-2.10633 -0.53971,-0.33355 -1.49346,-3.07362 -2.11946,-6.08903 -0.626,-3.01541 -1.44377,-5.46852 -1.81728,-5.45135 -0.3735,0.0172 -2.2541,1.02967 -4.1791,2.25 -2.92258,1.85274 -3.44599,2.71372 -3.1726,5.21879 0.18007,1.65 1.3818,4.125 2.67051,5.5 1.28871,1.375 3.56725,5.65 5.06343,9.5 3.02726,7.78981 4.43957,9.64547 9.48052,12.45669 4.70498,2.62386 5.39155,2.53134 8.95484,-1.20669 z m -23.9967,-24.54519 c 0,-0.55504 1.35,-1.47977 3,-2.05496 2.4336,-0.84836 3,-0.77243 3,0.40217 0,0.79639 -0.6382,1.44798 -1.41821,1.44798 -0.78002,0 -2.13002,0.27315 -3,0.60699 -0.86999,0.33384 -1.58179,0.15286 -1.58179,-0.40218 z m 23.75426,-1.99919 c 0.57975,-6.03354 -0.9752,-11.15384 -4.4392,-14.61784 -5.65853,-5.65852 -10.81506,-1.95518 -10.81506,7.76721 0,7.32321 1.74915,11.22831 6.44531,14.38964 l 3.44531,2.31929 2.44293,-2.44292 c 1.72414,-1.72415 2.58351,-3.90597 2.92071,-7.41538 z m -30.57798,16.2053 c -6.17414,-4.32454 -8.83893,-18.34565 -4.57738,-24.08445 2.0661,-2.78231 7.4011,-4.5072 7.4011,-2.39289 0,0.58653 -0.83026,1.06642 -1.84501,1.06642 -7.35368,0 -7.94275,16.05944 -0.84367,23.00012 3.37914,3.30373 3.2946,4.81301 -0.13504,2.4108 z m -21.9006,-5.91092 c 0.84809,-1.65 2.41579,-5.84441 3.48379,-9.32092 l 1.94181,-6.32092 -2.59505,0.65131 c -3.45098,0.86615 -4.97799,2.23717 -6.59587,5.92207 -1.05237,2.39691 -1.36506,2.62473 -1.42879,1.04097 -0.20057,-4.98515 6.05359,-9.47251 13.2021,-9.47251 5.82433,0 6.81415,1.24187 2.05635,2.58 -3.65691,1.02851 -3.91155,1.37322 -5.34002,7.22886 -0.90609,3.71426 -2.44359,7.0481 -3.88315,8.42 l -2.38314,2.27114 1.54197,-3 z m 14.72432,1.05902 c 0,-0.85746 0.45,-1.55902 1,-1.55902 0.55,0 1,0.42344 1,0.94098 0,0.51754 -0.45,1.2191 -1,1.55902 -0.55,0.33992 -1,-0.0835 -1,-0.94098 z m -2.75,-20.29235 c -0.6875,-0.23834 -1.25,-1.39226 -1.25,-2.56429 0,-1.9622 0.12798,-2.00298 1.61607,-0.51488 1.80073,1.80073 1.56899,3.74999 -0.36607,3.07917 z m -7.75,-1.26667 c 0.33992,-0.55 1.51803,-1 2.61803,-1 1.1,0 1.72189,0.45 1.38197,1 -0.33992,0.55 -1.51803,1 -2.61803,1 -1.1,0 -1.72189,-0.45 -1.38197,-1 z m 13.7099,-20.62562 c -0.98258,-1.8207 -0.69423,-2.65583 2.01013,-5.82187 3.21898,-3.76851 8.50357,-7.16224 9.53957,-6.12625 0.31555,0.31556 0.10529,0.57374 -0.46724,0.57374 -2.16004,0 -8.1521,6.63892 -9.02566,10 -0.86308,3.32078 -0.9684,3.39116 -2.0568,1.37438 z m 21.82449,-9.83294 c -0.66578,-0.80221 -3.08338,-1.87902 -5.37245,-2.39291 -3.92411,-0.88095 -3.97941,-0.94046 -0.9677,-1.04144 2.08365,-0.0699 4.16975,0.75113 6,2.36131 1.54317,1.35762 2.52336,2.48262 2.1782,2.5 -0.34515,0.0174 -1.17228,-0.62475 -1.83805,-1.42696 z"
       id="path3137"
       inkscape:connector-curvature="0" />
  </g>
</svg>
