<?xml version="1.0" encoding="UTF-8" standalone="no"?>
<!-- Created with Inkscape (http://www.inkscape.org/) -->

<svg
   xmlns:dc="http://purl.org/dc/elements/1.1/"
   xmlns:cc="http://creativecommons.org/ns#"
   xmlns:rdf="http://www.w3.org/1999/02/22-rdf-syntax-ns#"
   xmlns:svg="http://www.w3.org/2000/svg"
   xmlns="http://www.w3.org/2000/svg"
   xmlns:sodipodi="http://sodipodi.sourceforge.net/DTD/sodipodi-0.dtd"
   xmlns:inkscape="http://www.inkscape.org/namespaces/inkscape"
   width="106.64882"
   height="236.9651"
   id="svg2"
   version="1.1"
   inkscape:version="0.48.3.1 r9886"
   sodipodi:docname="Alternate-bicep-curl-1.svg">
  <defs
     id="defs4" />
  <sodipodi:namedview
     id="base"
     pagecolor="#ffffff"
     bordercolor="#666666"
     borderopacity="1.0"
     inkscape:pageopacity="0.0"
     inkscape:pageshadow="2"
     inkscape:zoom="1.979899"
     inkscape:cx="27.609685"
     inkscape:cy="152.07549"
     inkscape:document-units="px"
     inkscape:current-layer="layer1"
     showgrid="false"
     fit-margin-top="0"
     fit-margin-left="0"
     fit-margin-right="0"
     fit-margin-bottom="0"
     inkscape:window-width="1855"
     inkscape:window-height="1056"
     inkscape:window-x="65"
     inkscape:window-y="24"
     inkscape:window-maximized="1" />
  <metadata
     id="metadata7">
    <rdf:RDF>
      <cc:Work
         rdf:about="">
        <dc:format>image/svg+xml</dc:format>
        <dc:type
           rdf:resource="http://purl.org/dc/dcmitype/StillImage" />
        <dc:title></dc:title>
      </cc:Work>
    </rdf:RDF>
  </metadata>
  <g
     inkscape:label="Ebene 1"
     inkscape:groupmode="layer"
     id="layer1"
     transform="translate(-631.70573,-664.79052)">
    <path
       style="fill:#000000"
       d="m 660.25314,898.85441 c -1.70817,-1.59567 -3.10576,-3.87525 -3.10576,-5.06574 0,-1.19049 -0.46954,-3.04188 -1.04342,-4.11418 -1.42914,-2.67037 -2.08495,-8.14249 -1.93845,-16.1745 0.0682,-3.73847 -0.81768,-10.88429 -1.98353,-16 l -2.10676,-9.24437 2.10031,-7 c 1.15517,-3.85 2.69052,-11.18161 3.41188,-16.29247 0.72137,-5.11086 1.59247,-9.57336 1.93577,-9.91667 1.41107,-1.41106 1.58956,0.70665 0.46879,5.56208 -1.14043,4.94059 -0.27087,14.26666 1.84411,19.77819 0.41928,1.09263 0.26193,1.45639 -0.44182,1.02145 -0.60116,-0.37153 -1.38838,-2.02035 -1.7494,-3.66405 -1.00292,-4.56626 -2.10577,-3.61513 -4.02365,3.47009 -1.83712,6.78686 -1.74133,8.80097 1.0237,21.524 0.99619,4.58387 1.38448,9.23983 1.00231,12.01852 -0.48003,3.49025 -0.0332,6.17323 1.93816,11.63837 1.4091,3.90635 2.562,7.82514 2.562,8.70842 0,0.88328 1.0906,2.32055 2.42356,3.19394 3.06513,2.00835 10.07644,1.63131 10.07644,-0.54187 0,-1.16636 -1.16774,-1.45883 -5.25,-1.31491 -6.82332,0.24057 -6.8505,-1.38412 -0.0308,-1.84406 4.04148,-0.27256 5.55831,0.0441 6.72224,1.40349 1.75183,2.04598 4.05861,2.32069 4.05861,0.48332 0,-0.69968 -1.26664,-2.83718 -2.81475,-4.75 -1.54812,-1.91281 -4.50981,-6.54156 -6.58153,-10.2861 -4.94334,-8.93487 -5.85238,-18.10935 -2.68499,-27.09829 2.18872,-6.21149 2.91677,-15.82895 1.05753,-13.96971 -0.56306,0.56306 -1.44946,3.63946 -1.96978,6.83645 -1.18298,7.26851 -2.00648,8.24365 -2.00648,2.37595 0,-2.79591 0.93208,-6.33827 2.46388,-9.36397 1.35514,-2.67673 2.7652,-6.2387 3.13348,-7.91547 0.66296,-3.01843 1.60232,-5.3565 6.04927,-15.0567 1.2607,-2.75 2.57305,-6.81607 2.91632,-9.03571 0.57164,-3.69626 0.43622,-4.03572 -1.60997,-4.03572 -1.56315,0 -2.63138,0.95083 -3.55696,3.16604 -1.60526,3.84194 -6.80183,8.40539 -9.57154,8.40539 -2.7303,0 -7.41372,-5.19619 -8.19234,-9.0893 -0.34768,-1.73838 -0.62226,-5.01695 -0.61018,-7.2857 0.038,-7.14107 5.60003,-16.64007 9.72804,-16.61391 1.27908,0.008 0.87011,0.70452 -1.51982,2.58799 -4.68607,3.69302 -6.5616,7.92042 -6.61097,14.90092 -0.0731,10.33766 4.97978,15.95845 10.87415,12.09631 4.65026,-3.04697 6.00664,-6.37392 6.00664,-14.73316 0,-7.2072 -0.20162,-7.94153 -3,-10.92641 -1.65,-1.75997 -2.35238,-2.99985 -1.56085,-2.75529 3.17648,0.98143 5.46336,5.77609 5.88064,12.32932 0.42561,6.68416 1.24784,7.64779 4.4704,5.23923 1.47979,-1.106 2.40538,-3.7241 2.6355,-7.45469 0.0409,-0.66257 1.66519,-1.50314 3.6096,-1.86791 2.60164,-0.48807 3.96469,-1.49039 5.1612,-3.79531 0.93627,-1.80359 1.80949,-2.5883 2.05872,-1.85005 0.64961,1.9242 -2.54296,6.21796 -4.62328,6.21796 -2.23017,0 -5.13193,3.04016 -5.13193,5.37671 0,0.94557 1.10402,2.71014 2.45338,3.92126 3.10424,2.78622 7.54662,11.25293 7.54662,14.38309 0,1.31075 0.675,3.99868 1.5,5.97318 0.825,1.97451 1.46447,4.54755 1.42105,5.71788 -0.0434,1.17034 -0.30592,1.56538 -0.58333,0.87788 -0.27741,-0.6875 -0.98151,-1.25 -1.56465,-1.25 -1.71798,0 -0.0535,13.11176 2.3559,18.55866 1.90876,4.31506 2.059,5.82306 1.38391,13.89094 -0.41652,4.97772 -0.81481,10.8504 -0.88509,13.0504 l -0.12779,4 7.5,0.50849 c 4.125,0.27966 8.4,0.98916 9.5,1.57666 2.85771,1.52627 8.45984,1.67413 11.75268,0.31018 4.19612,-1.73808 3.19997,-3.27898 -3.77536,-5.8399 -1.66247,-0.61036 -5.67736,-4.07778 -8.92198,-7.70536 l -5.89931,-6.59562 -0.90843,-13.62722 c -0.49964,-7.49498 -0.9695,-14.75223 -1.04413,-16.12723 -0.0746,-1.375 0.18897,-5.65 0.58577,-9.5 0.91888,-8.91535 -0.13953,-10.94815 -3.60352,-6.92101 -2.46689,2.86792 -2.52124,2.87984 -4.59108,1.00666 -1.15205,-1.0426 -2.09464,-2.60101 -2.09464,-3.46314 0,-1.14286 0.42173,-0.96542 1.5567,0.65498 2.14467,3.06194 4.05272,2.78169 5.29346,-0.77749 0.57519,-1.65 1.51921,-3 2.09782,-3 1.14952,0 1.39281,-5.04607 0.46657,-9.67724 l -0.58545,-2.92724 -5.55547,2.80224 c -6.14323,3.09871 -8.60026,3.38163 -12.17298,1.40169 -2.20267,-1.22068 -1.91576,-1.32024 3.5,-1.21456 5.22488,0.10195 6.47412,-0.28729 10.92667,-3.40453 4.69607,-3.28772 4.95184,-3.68307 3.88175,-6 -3.18294,-6.89157 -5.66599,-15.92709 -5.50723,-20.04015 0.12886,-3.33855 -0.32354,-5.01187 -1.68913,-6.24771 -1.73028,-1.56589 -2.25376,-1.57251 -7.24049,-0.0916 -6.18665,1.83724 -18.55249,1.17692 -23.23731,-1.24084 -2.6368,-1.36081 -2.93232,-1.26461 -6.36959,2.07363 -3.37774,3.28041 -4.07668,6.56631 -1.39671,6.56631 1.34104,0 1.33606,13.00031 -0.006,15 -0.69212,1.03147 -0.80493,-0.99885 -0.36116,-6.5 0.54564,-6.76394 0.43313,-7.79874 -0.72818,-6.69742 -0.92353,0.87583 -1.37352,3.7262 -1.37352,8.70021 0,4.49073 -0.36068,7.03687 -0.91789,6.47953 -1.12336,-1.12362 -1.19287,-9.97834 -0.12299,-15.66852 1.08734,-5.783 -0.14918,-13.64671 -2.03223,-12.92412 -1.80163,0.69135 -1.78648,0.36965 0.19644,-4.1718 1.86894,-4.28039 2.72999,-18.68917 1.27888,-21.4006 -0.65559,-1.22508 -0.62713,-1.81728 0.0874,-1.81728 0.58296,0 1.42591,1.0125 1.87322,2.25 1.0397,2.8764 0.56445,14.88489 -0.75408,19.05382 -0.72465,2.29118 -0.64844,4.57658 0.26917,8.07135 l 1.28005,4.87516 2.17104,-2.76002 c 2.84372,-3.61522 2.92472,-11.09262 0.17847,-16.47573 -1.52988,-2.99882 -1.70404,-4.08699 -0.75,-4.6863 1.94639,-1.2227 7.62571,-1.32636 8.35124,-0.15243 0.43399,0.70221 -0.73817,0.92651 -3.47699,0.66532 -2.27243,-0.21671 -4.13169,-0.32459 -4.13169,-0.23972 0,0.0849 0.675,1.7698 1.5,3.74431 0.825,1.9745 1.50689,5.29196 1.51531,7.37212 0.008,2.08017 0.34592,4.25767 0.75,4.83889 2.65345,3.81673 21.51928,5.25143 28.53814,2.17027 l 3.80346,-1.66966 -0.21343,-5.9143 -0.21342,-5.9143 -3.09003,0.35935 c -2.85002,0.33144 -7.00094,1.32613 -12.15989,2.91388 -1.21149,0.37286 -2.52377,0.0898 -3.16445,-0.68249 -0.88059,-1.06155 -0.0201,-1.36673 4.40161,-1.56102 6.61151,-0.29051 7.3327,-0.66597 7.3327,-3.81752 0,-1.34254 0.45,-2.44098 1,-2.44098 0.55,0 1,0.9 1,2 0,3.02822 3.29442,2.46446 5.28439,-0.90429 1.88031,-3.18312 2.16135,-8.46884 0.76929,-14.46884 -0.89412,-3.85382 0.27154,-8.62687 2.10684,-8.62687 1.21461,0 1.03076,2.40872 -0.28422,3.7237 -0.8316,0.8316 -0.79288,2.78807 0.14897,7.52649 1.13086,5.68935 1.07393,6.92319 -0.5109,11.07302 -2.27466,5.95611 -1.71509,17.69253 0.98584,20.67702 1.33352,1.47353 1.61224,2.89509 1.14298,5.82966 -0.46246,2.89209 0.0135,5.44148 1.86811,10.00565 1.36879,3.3686 2.4887,7.00152 2.4887,8.07316 0,1.07164 0.675,2.62344 1.5,3.44844 1.83922,1.83923 1.91074,3.28799 0.21439,4.34317 -0.99882,0.6213 -1.10427,3.03044 -0.4727,10.79969 0.44709,5.5 0.74969,11.35 0.67243,13 -0.29869,6.37958 -0.0522,15.52706 0.76832,28.51677 l 0.85384,13.51676 6.76646,6.73324 c 4.43745,4.41565 7.56171,6.73323 9.07688,6.73323 2.7962,0 5.88588,3.14455 5.10053,5.19113 -0.31244,0.81421 -2.14307,2.23144 -4.06808,3.14941 -3.81727,1.82033 -9.81596,1.43666 -14.51309,-0.92826 -1.43056,-0.72025 -5.07232,-1.22017 -8.09281,-1.11092 -9.03439,0.32678 -10.38592,-2.41622 -7.21669,-14.64669 1.87703,-7.24369 1.34242,-11.97478 -2.20057,-19.47402 -2.18904,-4.63341 -2.48522,-6.50321 -2.29677,-14.5 0.25033,-10.62294 -1.37107,-18.51217 -4.96961,-24.18065 -1.39664,-2.2 -2.60615,-4.12309 -2.68781,-4.27354 -0.0816,-0.15044 -0.82764,-0.0129 -1.65775,0.30563 -1.01535,0.38963 -1.68493,2.51631 -2.04602,6.49838 -0.31195,3.44031 -1.41451,7.33948 -2.63272,9.31059 -3.68101,5.956 -6.09823,15.33717 -6.09823,23.66709 0,5.0093 -0.58827,9.11616 -1.66442,11.61973 -1.1116,2.58604 -1.69284,6.86137 -1.75,12.87212 -0.0835,8.78244 0.01,9.15713 3.86495,15.5 2.1728,3.575 4.45428,6.95 5.06997,7.5 2.22374,1.98648 4.61988,6.69178 4.099,8.04919 -0.79461,2.07071 -7.28433,4.45081 -12.13587,4.45081 -3.33414,0 -4.95402,-0.63699 -7.37787,-2.90121 z m -2.10576,-19.38613 c 0,-1.21252 3.27469,-6.71266 3.9966,-6.71266 0.98792,0 -1.67005,5.68015 -3.05992,6.53914 -0.51518,0.31839 -0.93668,0.39647 -0.93668,0.17352 z m 40.60699,-10.29445 c -0.86706,-2.25952 -0.74939,-4.41821 0.24083,-4.41821 0.4663,0 0.8862,1.35 0.93312,3 0.0951,3.34467 -0.26689,3.78197 -1.17395,1.41821 z m -33.60699,-41.41821 c 0,-0.55 0.675,-1 1.5,-1 0.825,0 1.5,0.45 1.5,1 0,0.55 -0.675,1 -1.5,1 -0.825,0 -1.5,-0.45 -1.5,-1 z m -2.7794,-7.94089 c 0.21071,-1.84078 1.11517,-2.65637 3.67879,-3.31731 3.54824,-0.91478 5.0869,0.077 5.05489,3.2582 -0.0124,1.22803 -0.19047,1.19956 -0.98233,-0.157 -1.13246,-1.94004 -4.7728,-1.35742 -6.75135,1.08053 -1.11303,1.37147 -1.24307,1.25906 -1,-0.86442 z M 635.71215,806.231 c -3.35065,-3.6154 -4.8319,-10.32118 -3.54668,-16.05612 1.24889,-5.5728 3.35182,-9.83599 5.7262,-11.60856 1.52346,-1.13732 1.75486,-3.0965 1.74927,-14.8107 -0.004,-8.91399 -0.42889,-14.242 -1.25,-15.68426 -1.53422,-2.69479 -1.60991,-12.45602 -0.13771,-17.75868 0.60209,-2.16861 1.16359,-6.37137 1.24779,-9.33947 0.1328,-4.68161 0.55007,-5.72602 3.14972,-7.88356 1.64815,-1.36786 5.20176,-4.5901 7.89691,-7.16053 2.69516,-2.57042 6.29516,-5.34968 8,-6.17612 2.53245,-1.22762 3.26553,-2.36001 4.00566,-6.18754 0.72237,-3.73565 0.58034,-5.18185 -0.70096,-7.13736 -2.51474,-3.83798 -3.21577,-11.78402 -1.35679,-15.37889 4.68154,-9.05311 21.58484,-8.02625 23.18899,1.40871 0.35513,2.08874 1.0088,5.2259 1.45261,6.97148 0.49924,1.96364 0.27418,5.96723 -0.59025,10.5 -0.76845,4.02942 -1.3977,7.43872 -1.39835,7.57622 -6.5e-4,0.1375 1.57382,0.25 3.49882,0.25 1.925,0 3.5,0.50109 3.5,1.11354 0,0.75307 -1.45676,0.89509 -4.5,0.43873 -2.78895,-0.41823 -4.5,-0.29372 -4.5,0.32744 0,1.77063 1.77831,2.18001 5.68595,1.30895 2.6406,-0.58863 4.81396,-0.43989 7.06405,0.48343 1.7875,0.73351 3.24942,1.44485 3.24871,1.58078 -7.1e-4,0.13592 -3.55789,0.24713 -7.90483,0.24713 -4.34695,0 -7.69481,-0.3375 -7.4397,-0.75 0.25512,-0.4125 -0.0127,-0.75 -0.59516,-0.75 -0.58246,0 -1.05902,-0.9 -1.05902,-2 0,-1.43928 -0.66667,-2 -2.37788,-2 -4.15657,0 -9.05732,-2.72375 -11.09537,-6.16661 l -1.97324,-3.33339 -0.70209,4.80757 c -0.72708,4.97866 -2.23618,7.69243 -4.2777,7.69243 -1.48073,0 -7.80594,6.43444 -7.05924,7.18115 0.30231,0.3023 -0.7557,1.09034 -2.35113,1.75119 -1.59543,0.66085 -4.37351,2.72101 -6.17351,4.57814 -3.1692,3.26979 -3.25618,3.58275 -2.7496,9.89362 0.3464,4.3154 0.16505,6.44589 -0.53681,6.30646 -1.36275,-0.27072 -2.92597,7.82427 -2.31506,11.98835 0.25812,1.7594 1.21508,4.77051 2.12658,6.69136 1.39326,2.93606 1.49623,4.57716 0.64635,10.30109 -0.64255,4.32754 -0.67329,8.63066 -0.0844,11.80864 0.50961,2.75 1.37504,8.825 1.92318,13.5 2.11999,18.08131 2.2345,18.39692 7.02231,19.35449 1.63766,0.32753 2.97757,1.09251 2.97757,1.69997 0,1.24727 -5.73262,0.33149 -7.66896,-1.22512 -1.48338,-1.19247 -3.83799,-14.14688 -3.45785,-19.02413 0.15839,-2.03213 -0.14496,-4.46841 -0.67411,-5.41395 -0.8754,-1.56427 -1.19175,-1.4895 -3.51109,0.82984 -7.1637,7.1637 -5.34691,24.63955 2.66091,25.59532 3.38963,0.40457 3.47383,2.18358 0.10335,2.18358 -1.43971,0 -3.56532,-1.09798 -4.88748,-2.52462 z m 46.16218,-112.1819 c 1.36328,-2.08102 1.75916,-4.68098 1.71296,-11.25 -0.0851,-12.09627 -2.56041,-16.04348 -10.061,-16.04348 -5.90325,0 -10.20747,2.34544 -11.94775,6.51052 -1.39857,3.34724 -1.0621,6.48948 0.69488,6.48948 0.50164,0 0.64245,1.07424 0.31292,2.3872 -0.44098,1.75698 -0.0196,2.79312 1.59612,3.92482 1.2074,0.84569 3.00654,2.87165 3.9981,4.50214 1.13628,1.86847 3.40445,3.53081 6.13482,4.49623 5.7682,2.03953 5.53621,2.07074 7.55895,-1.01691 z m -35.648,92.12319 c 0.048,-1.16495 0.28494,-1.4019 0.60416,-0.60417 0.28887,0.72187 0.25335,1.58437 -0.079,1.91667 -0.33229,0.33229 -0.56864,-0.25834 -0.52522,-1.3125 z m 5.15305,-3.41667 c 0,-1.925 0.2058,-2.7125 0.45733,-1.75 0.25152,0.9625 0.25152,2.5375 0,3.5 -0.25153,0.9625 -0.45733,0.175 -0.45733,-1.75 z m 23.75632,0.0389 c 1.91857,-0.4861 6.64357,-1.19516 10.5,-1.57567 3.85642,-0.38052 7.79918,-1.10625 8.76168,-1.61274 1.11207,-0.5852 1.75,-0.55759 1.75,0.0757 0,1.46882 -6.36408,2.8435 -16,3.45611 -5.94091,0.37769 -7.44977,0.27429 -5.01168,-0.34344 z m 4.01168,-3.07408 c 0,-0.70582 7.42219,-4.57536 12,-6.25618 3.44824,-1.26607 -4.29466,-0.59177 -10.00588,0.87138 -3.39208,0.86901 -6.39781,1.34962 -6.6794,1.06803 -0.71087,-0.71087 8.89774,-3.47469 14.8037,-4.25815 4.11773,-0.54623 4.88158,-0.39142 4.88158,0.98937 0,0.97682 -1.61591,2.28348 -4.00711,3.24025 -2.20392,0.88183 -5.57892,2.40468 -7.5,3.38411 -1.92109,0.97942 -3.49289,1.41196 -3.49289,0.96119 z m -17,-3.78448 c 0,-0.51574 1.31747,-1.48341 2.92771,-2.15039 5.99009,-2.48118 7.76209,-7.09329 3.18513,-8.29019 -1.64045,-0.42899 -2.30504,0.14978 -3.28552,2.86124 -1.11747,3.0903 -2.82732,4.63404 -2.82732,2.55264 0,-1.38322 3.08931,-7.15364 3.82984,-7.15364 0.37585,0 2.25539,0.48688 4.17676,1.08195 4.93296,1.5278 15.90564,1.28297 20.98878,-0.46831 3.23265,-1.11374 3.95405,-1.15826 2.90309,-0.17917 -2.37327,2.21097 -7.90813,3.56553 -14.56913,3.56553 -5.79321,0 -6.47372,0.22278 -7.48934,2.45181 -0.61441,1.34849 -2.74226,3.20818 -4.72856,4.13263 -1.98629,0.92445 -3.94894,1.87269 -4.36144,2.1072 -0.4125,0.23452 -0.75,0.004 -0.75,-0.5113 z m 16.65266,-17.23892 c -1.45896,-1.14762 -2.65266,-2.76353 -2.65266,-3.59092 0,-0.99372 1.05965,-0.44469 3.12179,1.61745 3.66774,3.66774 3.35536,4.98182 -0.46913,1.97347 z m 8.34734,-4.31898 c 0,-0.20765 0.6853,-0.9463 1.52289,-1.64144 1.27335,-1.05678 1.41968,-0.99492 0.89301,0.37756 -0.53789,1.40173 -2.4159,2.38422 -2.4159,1.26388 z m -10.5,-2.62244 c -0.33992,-0.55 -0.14148,-1 0.44098,-1 0.58246,0 1.05902,0.45 1.05902,1 0,0.55 -0.19844,1 -0.44098,1 -0.24254,0 -0.7191,-0.45 -1.05902,-1 z m -11.0573,-3.41824 c -2.90688,-2.12556 -1.08044,-2.96291 2.46437,-1.12982 1.70111,0.87968 3.09293,1.81286 3.09293,2.07374 0,1.02825 -3.7256,0.39545 -5.5573,-0.94392 z m 37.8073,-1.68114 c -2.87662,-2.03746 -4.22813,-3.71958 -4.18232,-5.20541 0.0657,-2.1311 0.0962,-2.1368 1.04452,-0.19521 1.20352,2.46411 7.21241,6.5 9.67761,6.5 4.47968,0 11.59029,-11.11233 13.30441,-20.79189 1.92514,-10.87112 2.47561,-11.85673 6.36824,-11.40228 3.02188,0.35278 3.68965,-0.007 5.4854,-2.95207 4.15702,-6.81856 1.83846,-18.35542 -4.3327,-21.55901 -1.79664,-0.93267 -2.57252,-1.80034 -1.83312,-2.04996 1.659,-0.56008 5.84705,2.19365 7.21031,4.74091 1.93875,3.6226 2.78612,10.91616 1.80351,15.52332 -1.09868,5.15137 -4.96437,8.88308 -8.50154,8.20691 -2.51461,-0.4807 -2.65232,-0.19827 -4.23127,8.67825 -1.44825,8.14174 -5.23941,15.95158 -9.75796,20.10156 -4.61746,4.24081 -6.54774,4.30564 -12.05509,0.40488 z m -62.5,-1.47135 c -0.4125,-0.41943 -0.75,-2.1276 -0.75,-3.79594 0,-2.16885 0.30727,-2.72606 1.07818,-1.95515 0.59299,0.593 0.9305,2.30117 0.75,3.79594 -0.1805,1.49477 -0.66568,2.37459 -1.07818,1.95515 z m 29.25,-0.42927 c 0,-0.55 1.15156,-1 2.55902,-1 1.45136,0 2.2915,0.43284 1.94098,1 -0.33992,0.55 -1.49148,1 -2.55902,1 -1.06754,0 -1.94098,-0.45 -1.94098,-1 z m 4.25,-4.07854 c -1.2375,-0.47135 -2.25,-1.32533 -2.25,-1.89771 0,-0.68613 0.61955,-0.65378 1.81844,0.0949 1.47148,0.91895 2.61249,0.63436 5.98013,-1.49153 2.28893,-1.4449 4.84563,-2.62712 5.68156,-2.62712 0.89926,0 1.51987,-0.89833 1.51987,-2.2 0,-1.51322 0.32241,-1.87759 1.03278,-1.16722 1.73063,1.73063 0.10459,3.92399 -4.32267,5.83087 -2.31556,0.99733 -4.88511,2.37617 -5.71011,3.06408 -0.98926,0.82488 -2.26611,0.95894 -3.75,0.39373 z m 27.75,-2.33835 c 0,-0.47405 1.2918,-2.96136 2.87067,-5.52734 4.25355,-6.9129 4.75515,-9.05577 2.11979,-9.05577 -3.14794,0 -7.65549,-5.04231 -9.01244,-10.08164 -2.15312,-7.99607 0.76003,-17.8347 5.55964,-18.77667 1.36997,-0.26887 1.14323,0.23038 -0.90833,2 -2.86613,2.47225 -4.87559,8.67747 -4.083,12.60831 0.24952,1.2375 0.66781,3.29757 0.92954,4.57794 0.76071,3.7214 5.04574,7.67206 8.32139,7.67206 5.58004,0 8.7077,-6.91495 7.07662,-15.64572 -0.89702,-4.80147 -4.95182,-10.35428 -7.56097,-10.35428 -0.7221,0 -1.31291,-0.45 -1.31291,-1 0,-2.42658 5.68694,0.75739 7.98015,4.46788 4.28844,6.93884 3.80058,16.43439 -1.13307,22.0535 -1.67984,1.91324 -2.59026,3.47862 -2.02315,3.47862 0.56711,0 2.18374,-1.4625 3.5925,-3.25 1.9793,-2.51142 2.56391,-2.83263 2.57248,-1.41345 0.006,1.01011 -2.61413,4.61011 -5.82273,8 -3.2086,3.3899 -6.5836,7.27608 -7.5,8.63596 -0.9164,1.35987 -1.66618,2.08464 -1.66618,1.6106 z m -41.37543,-2.06687 c -2.21229,-1.67525 -1.50292,-4.55239 1.09404,-4.43729 1.04763,0.0464 1.26651,0.2867 0.53139,0.58333 -0.6875,0.27741 -1.25,1.19814 -1.25,2.04605 0,1.17515 0.70402,1.40087 2.96123,0.94942 3.47595,-0.69519 5.06168,0.83468 1.77752,1.71491 -2.94438,0.78916 -2.94012,0.78987 -5.11418,-0.85642 z m 32.87543,-0.50338 c -1.1,-0.40485 -2.5625,-0.52522 -3.25,-0.26749 -0.6875,0.25774 -1.25,-0.0295 -1.25,-0.63838 0,-1.41825 5.66793,-1.4533 6.54112,-0.0405 0.92801,1.50155 0.28167,1.80122 -2.04112,0.94633 z m -17.25,-2.40491 c 0.9625,-0.73064 1.75,-1.77158 1.75,-2.3132 0,-1.51174 3.91593,-4.71215 4.7478,-3.88028 0.40455,0.40454 -0.0482,1.17415 -1.00613,1.71022 -0.95792,0.53608 -1.74167,1.6115 -1.74167,2.38982 0,0.77832 -0.87042,1.88095 -1.93426,2.45031 -2.72872,1.46036 -3.90508,1.22917 -1.81574,-0.35687 z m -29.25,-1.39948 c 0,-1.04177 2.16097,-3.20847 3.2,-3.20847 1.4734,0 0.82042,1.50615 -1.2,2.76793 -1.1,0.68696 -2,0.88521 -2,0.44054 z m 71.05763,-0.95847 c 0.0317,-0.9625 0.42995,-3.55 0.885,-5.75 0.81853,-3.95723 0.8286,-3.93852 0.94237,1.75 0.0649,3.24333 -0.32094,5.75 -0.885,5.75 -0.55,0 -0.97407,-0.7875 -0.94237,-1.75 z m -55.3255,-2.78605 c -2.05267,-1.39483 -3.73213,-2.96983 -3.73213,-3.5 0,-1.47722 0.84737,-1.18215 4.41111,1.53605 3.96092,3.02114 6.92808,3.16495 10.31602,0.5 1.39842,-1.1 3.36607,-2 4.37254,-2 2.65658,0 4.13466,-3.52691 3.48886,-8.32486 l -0.56197,-4.17514 1.46402,3 c 2.49429,5.11115 0.5114,9.90138 -4.55968,11.01518 -1.61199,0.35405 -2.9309,0.98574 -2.9309,1.40376 0,0.99492 -4.61428,3.08106 -6.81492,3.08106 -0.94644,0 -3.40027,-1.14122 -5.45295,-2.53605 z m 25.26787,-0.55757 c 0,-0.49851 0.9,-0.90638 2,-0.90638 1.1,0 2,0.17252 2,0.38337 0,0.21085 -0.9,0.61872 -2,0.90638 -1.1,0.28766 -2,0.11514 -2,-0.38337 z m -2.37177,-4.18412 c -1.67243,-1.22723 -1.32638,-1.36545 3.2493,-1.29788 2.81659,0.0416 5.12139,0.41312 5.12177,0.82562 3.9e-4,0.4125 -0.5618,0.75614 -1.2493,0.76365 -0.6875,0.008 -2.15,0.25406 -3.25,0.54789 -1.1,0.29383 -2.8423,-0.0838 -3.87177,-0.83928 z m -30.62823,-1.68833 c 0,-1.64983 3.32575,-8.03393 4.18521,-8.03393 1.18983,0 1.03466,0.64869 -1.20553,5.03984 -1.98881,3.89838 -2.97968,4.89404 -2.97968,2.99409 z m 70,-17.03393 c -1.26918,-5.29053 -2.88962,-6.19981 -7.06574,-3.96482 -1.33333,0.71358 -1.93426,0.71358 -1.93426,0 0,-0.56935 0.61386,-1.03518 1.36414,-1.03518 0.75028,0 2.13946,-2.03014 3.08707,-4.51141 0.94761,-2.48128 2.55416,-4.95628 3.57011,-5.5 3.16054,-1.69147 3.59446,-1.07937 0.89776,1.26638 -1.4195,1.23477 -3.08472,3.45479 -3.70047,4.93339 -1.03683,2.4897 -0.9277,2.71138 1.47689,3 2.1181,0.25423 2.84311,1.14068 3.93529,4.81164 1.59616,5.36487 1.64581,6 0.46895,6 -0.49514,0 -1.44003,-2.25 -2.09974,-5 z m -50,1.96021 c -0.825,-0.55504 -4.2,-0.79077 -7.5,-0.52384 -5.51176,0.44583 -5.69485,0.39905 -2.25,-0.57487 3.88061,-1.0971 4.53509,-2.52603 2.71482,-5.92724 -0.59561,-1.11291 -0.64104,-1.93426 -0.10699,-1.93426 1.11432,0 2.14217,2.43833 2.14217,5.08179 0,1.86611 1.56596,2.29643 8.25,2.26709 2.18114,-0.01 2.28335,1.23248 0.16821,2.04413 -1.92823,0.73993 -1.6164,0.77941 -3.41821,-0.4328 z"
       id="path3009"
       inkscape:connector-curvature="0" />
  </g>
</svg>
