<?xml version="1.0" encoding="UTF-8" standalone="no"?>
<!-- Created with Inkscape (http://www.inkscape.org/) -->

<svg
   xmlns:dc="http://purl.org/dc/elements/1.1/"
   xmlns:cc="http://creativecommons.org/ns#"
   xmlns:rdf="http://www.w3.org/1999/02/22-rdf-syntax-ns#"
   xmlns:svg="http://www.w3.org/2000/svg"
   xmlns="http://www.w3.org/2000/svg"
   xmlns:sodipodi="http://sodipodi.sourceforge.net/DTD/sodipodi-0.dtd"
   xmlns:inkscape="http://www.inkscape.org/namespaces/inkscape"
   width="105.776"
   height="236.98483"
   id="svg2"
   version="1.1"
   inkscape:version="0.48.3.1 r9886"
   sodipodi:docname="Alternate-bicep-curl-2.svg">
  <defs
     id="defs4" />
  <sodipodi:namedview
     id="base"
     pagecolor="#ffffff"
     bordercolor="#666666"
     borderopacity="1.0"
     inkscape:pageopacity="0.0"
     inkscape:pageshadow="2"
     inkscape:zoom="2.8"
     inkscape:cx="35.292961"
     inkscape:cy="152.93853"
     inkscape:document-units="px"
     inkscape:current-layer="layer1"
     showgrid="false"
     fit-margin-top="0"
     fit-margin-left="0"
     fit-margin-right="0"
     fit-margin-bottom="0"
     inkscape:window-width="1855"
     inkscape:window-height="1056"
     inkscape:window-x="65"
     inkscape:window-y="24"
     inkscape:window-maximized="1" />
  <metadata
     id="metadata7">
    <rdf:RDF>
      <cc:Work
         rdf:about="">
        <dc:format>image/svg+xml</dc:format>
        <dc:type
           rdf:resource="http://purl.org/dc/dcmitype/StillImage" />
        <dc:title></dc:title>
      </cc:Work>
    </rdf:RDF>
  </metadata>
  <g
     inkscape:label="Ebene 1"
     inkscape:groupmode="layer"
     id="layer1"
     transform="translate(-632.34033,-656.41546)">
    <path
       style="fill:#000000"
       d="m 660.85971,890.49908 c -1.70817,-1.59567 -3.10576,-3.87525 -3.10576,-5.06574 0,-1.19049 -0.46954,-3.04188 -1.04342,-4.11418 -1.42914,-2.67037 -2.08495,-8.14249 -1.93845,-16.1745 0.0682,-3.73847 -0.81768,-10.88429 -1.98353,-16 l -2.10676,-9.24437 2.11303,-7 c 1.16217,-3.85 2.53024,-10.15 3.04016,-14 0.50992,-3.85 1.37529,-8.03367 1.92305,-9.29705 0.54775,-1.26338 0.99592,-5.63676 0.99592,-9.71862 0,-6.13418 -0.25617,-7.32326 -1.47676,-6.85488 -2.4605,0.94419 -4.05802,-3.86006 -2.24643,-6.75571 1.90932,-3.05184 3.07851,-11.14702 3.15923,-21.87374 0.0501,-6.65352 0.48699,-9.1517 2.0113,-11.5 1.07104,-1.65 2.0349,-3.13886 2.14191,-3.30858 0.10702,-0.16972 1.93072,0.42457 4.05266,1.32065 5.47208,2.3108 20.61455,2.44008 25.66154,0.21908 l 3.80346,-1.67377 -0.21343,-5.9143 -0.21342,-5.9143 -3.09003,0.35935 c -2.85002,0.33144 -7.00094,1.32613 -12.15989,2.91388 -1.21149,0.37286 -2.52377,0.0898 -3.16445,-0.68249 -0.88059,-1.06155 -0.0201,-1.36673 4.40161,-1.56102 6.61151,-0.29051 7.3327,-0.66597 7.3327,-3.81752 0,-1.34254 0.45,-2.44098 1,-2.44098 0.55,0 1,0.9 1,2 0,3.02822 3.29442,2.46446 5.28439,-0.90429 1.88507,-3.19117 2.16091,-8.47 0.75856,-14.51645 -0.6234,-2.68786 -0.53423,-4.84005 0.28357,-6.84425 l 1.19291,-2.92351 1.89527,2.09425 c 1.868,2.06411 1.86426,2.09425 -0.25971,2.09425 -2.48563,0 -2.77399,2.60295 -1.09511,9.88528 0.79973,3.46892 0.66406,5.42978 -0.64924,9.38377 -2.06305,6.21126 -1.52179,17.84566 0.95768,20.58545 0.89743,0.99164 1.63168,2.87005 1.63168,4.17424 0,1.84431 0.26667,2.10459 1.2,1.17126 0.66,-0.66 1.88513,-1.2 2.72251,-1.2 0.99982,0 0.67368,0.59812 -0.95,1.74223 -1.35988,0.95823 -2.86604,1.61455 -3.34702,1.4585 -1.36576,-0.44312 1.71057,10.09343 5.99035,20.51719 1.0549,2.56931 1.06842,3.37557 0.0671,4 -0.96006,0.59869 -1.06352,3.12695 -0.44123,10.78208 0.44709,5.5 0.74969,11.35 0.67243,13 -0.29869,6.37958 -0.0522,15.52706 0.76832,28.51677 l 0.85384,13.51676 6.76646,6.73324 c 4.43745,4.41565 7.56171,6.73323 9.07688,6.73323 2.7962,0 5.88588,3.14455 5.10053,5.19113 -0.31244,0.81421 -2.14307,2.23144 -4.06808,3.14941 -3.81727,1.82033 -9.81596,1.43666 -14.51309,-0.92826 -1.43056,-0.72025 -5.07232,-1.22017 -8.09281,-1.11092 -9.03439,0.32678 -10.38592,-2.41622 -7.21669,-14.64669 1.87703,-7.24369 1.34242,-11.97478 -2.20057,-19.47402 -2.18904,-4.63341 -2.48522,-6.50321 -2.29677,-14.5 0.25033,-10.62294 -1.37107,-18.51217 -4.96961,-24.18065 -1.39664,-2.2 -2.60615,-4.12309 -2.68781,-4.27354 -0.0816,-0.15044 -0.82764,-0.0129 -1.65775,0.30563 -1.01535,0.38963 -1.68493,2.51631 -2.04602,6.49838 -0.31195,3.44031 -1.41451,7.33948 -2.63272,9.31059 -3.68103,5.956 -6.09825,15.33717 -6.09825,23.66709 0,5.0093 -0.58827,9.11616 -1.66442,11.61973 -1.1116,2.58604 -1.69284,6.86137 -1.75,12.87212 -0.0835,8.78244 0.01,9.15713 3.86495,15.5 2.1728,3.575 4.45428,6.95 5.06997,7.5 2.22374,1.98648 4.61988,6.69178 4.099,8.04919 -0.79461,2.07071 -7.28433,4.45081 -12.13587,4.45081 -3.33414,0 -4.95402,-0.63699 -7.37787,-2.90121 z m 12.39424,-1.09879 c 0,-1.16636 -1.16774,-1.45883 -5.25,-1.31491 -6.82332,0.24057 -6.8505,-1.38412 -0.0308,-1.84406 4.04148,-0.27256 5.55831,0.0441 6.72224,1.40349 1.75183,2.04598 4.05861,2.32069 4.05861,0.48332 0,-0.69968 -1.26664,-2.83718 -2.81475,-4.75 -1.54812,-1.91281 -4.50981,-6.54156 -6.58153,-10.2861 -4.94334,-8.93487 -5.85238,-18.10935 -2.68499,-27.09829 2.18872,-6.21149 2.91677,-15.82895 1.05753,-13.96971 -0.56306,0.56306 -1.44946,3.63946 -1.96978,6.83645 -1.18298,7.26851 -2.00648,8.24365 -2.00648,2.37595 0,-2.79591 0.93208,-6.33827 2.46388,-9.36397 1.35514,-2.67673 2.7652,-6.2387 3.13348,-7.91547 0.66296,-3.01843 1.60232,-5.3565 6.04927,-15.0567 1.2607,-2.75 2.57753,-6.84408 2.92628,-9.09796 l 0.63408,-4.09796 -5.0855,1.04176 c -4.22306,0.86508 -5.68786,0.7545 -8.63742,-0.65205 -5.3808,-2.56592 -5.70688,-2.32523 -4.959,3.66053 0.48722,3.89962 0.18179,6.89986 -1.12422,11.043 -1.55771,4.94162 -1.6402,6.58091 -0.62814,12.48282 0.64079,3.73678 1.48054,7.61625 1.86612,8.62105 0.4612,1.20186 0.3271,1.59579 -0.39195,1.15139 -0.60116,-0.37153 -1.38838,-2.02035 -1.7494,-3.66405 -1.00292,-4.56626 -2.10577,-3.61513 -4.02365,3.47009 -1.83712,6.78686 -1.74133,8.80097 1.0237,21.524 0.99619,4.58387 1.38448,9.23983 1.00231,12.01852 -0.48003,3.49025 -0.0332,6.17323 1.93816,11.63837 1.4091,3.90635 2.562,7.81 2.562,8.67477 0,0.86477 1.0125,2.2885 2.25,3.16383 2.88437,2.04025 10.25,1.69667 10.25,-0.47811 z m -14.5,-18.28734 c 0,-1.21252 3.27469,-6.71266 3.9966,-6.71266 0.98792,0 -1.67005,5.68015 -3.05992,6.53914 -0.51518,0.31839 -0.93668,0.39647 -0.93668,0.17352 z m 7,-51.71266 c 0,-0.55 0.675,-1 1.5,-1 0.825,0 1.5,0.45 1.5,1 0,0.55 -0.675,1 -1.5,1 -0.825,0 -1.5,-0.45 -1.5,-1 z m -3,-7.84501 c 0,-1.51118 0.61714,-2.15499 2.06574,-2.15499 1.13616,0 2.90594,-0.44966 3.93285,-0.99925 1.50035,-0.80296 1.99645,-0.59173 2.52557,1.07536 0.36215,1.14104 0.39236,2.3407 0.0671,2.66592 -0.32522,0.32522 -0.59131,0.0663 -0.59131,-0.57536 0,-1.73379 -4.07189,-1.41159 -6.17126,0.48832 -1.7179,1.55468 -1.82874,1.52437 -1.82874,-0.5 z m 62.28769,59.70492 c 4.16671,-1.69463 3.14512,-3.25085 -3.81037,-5.80448 -1.66247,-0.61036 -5.67736,-4.07778 -8.92198,-7.70536 l -5.89931,-6.59562 -0.90843,-13.62722 c -0.49964,-7.49498 -0.9695,-14.75223 -1.04413,-16.12723 -0.0746,-1.375 0.18897,-5.65 0.58577,-9.5 0.91888,-8.91535 -0.13953,-10.94815 -3.60352,-6.92101 -2.46689,2.86792 -2.52124,2.87984 -4.59108,1.00666 -1.15205,-1.0426 -2.09464,-2.60101 -2.09464,-3.46314 0,-1.14286 0.42173,-0.96542 1.5567,0.65498 2.14467,3.06194 4.05272,2.78169 5.29346,-0.77749 0.57519,-1.65 1.51921,-3 2.09782,-3 1.14952,0 1.39281,-5.04607 0.46657,-9.67724 l -0.58545,-2.92724 -5.55547,2.80224 c -6.14323,3.09871 -8.60026,3.38163 -12.17298,1.40169 -2.20267,-1.22068 -1.91576,-1.32024 3.5,-1.21456 5.22488,0.10195 6.47412,-0.28729 10.92667,-3.40453 4.69607,-3.28772 4.95184,-3.68307 3.88175,-6 -3.18294,-6.89157 -5.66599,-15.92709 -5.50723,-20.04015 0.12886,-3.33855 -0.32354,-5.01187 -1.68913,-6.24771 -1.73028,-1.56589 -2.25376,-1.57251 -7.24049,-0.0916 -6.18344,1.83628 -18.55175,1.1773 -23.23138,-1.23777 -2.501,-1.29072 -2.95866,-1.2381 -4.89129,0.56242 -2.23956,2.08647 -2.48872,4.20833 -1.47655,12.57446 0.58492,4.8346 -1.04647,14.35215 -3.56626,20.80563 -0.81423,2.08535 -0.79327,3.10784 0.0816,3.98276 0.90282,0.90282 1.31318,0.65684 1.761,-1.05564 0.78654,-3.00777 2.35061,-2.83888 2.35061,0.25382 0,4.62893 9.55746,6.97864 16.53212,4.06445 1.90733,-0.79694 3.52413,-2.14694 3.59288,-3 0.0687,-0.85307 0.2375,-2.00103 0.375,-2.55103 0.1375,-0.55 0.30625,-1.65461 0.375,-2.45469 0.0715,-0.8321 1.63804,-1.73853 3.66029,-2.11791 2.60164,-0.48807 3.96469,-1.49039 5.1612,-3.79531 0.93627,-1.80359 1.80949,-2.5883 2.05872,-1.85005 0.623,1.84538 -2.50598,6.21796 -4.44952,6.21796 -2.30595,0 -5.30569,2.94166 -5.30569,5.20295 0,1.04114 1.10402,2.8839 2.45338,4.09502 3.10424,2.78622 7.54662,11.25293 7.54662,14.38309 0,1.31075 0.675,3.99868 1.5,5.97318 0.825,1.97451 1.46447,4.54755 1.42105,5.71788 -0.0434,1.17034 -0.30592,1.56538 -0.58333,0.87788 -0.27741,-0.6875 -0.98151,-1.25 -1.56465,-1.25 -1.71798,0 -0.0535,13.11176 2.3559,18.55866 1.90876,4.31506 2.059,5.82306 1.38391,13.89094 -0.41652,4.97772 -0.81481,10.8504 -0.88509,13.0504 l -0.12779,4 7.5,0.5 c 4.125,0.275 8.32906,0.99115 9.34237,1.59144 2.53202,1.50001 8.58285,1.636 11.94532,0.26847 z m -25.6807,-10.4417 c -0.86706,-2.25952 -0.74939,-4.41821 0.24083,-4.41821 0.4663,0 0.8862,1.35 0.93312,3 0.0951,3.34467 -0.26689,3.78197 -1.17395,1.41821 z m -23.61867,-86.37927 c 1.91857,-0.4861 6.64357,-1.19516 10.5,-1.57567 3.85642,-0.38052 7.79918,-1.10625 8.76168,-1.61274 1.11207,-0.5852 1.75,-0.55759 1.75,0.0757 0,1.46882 -6.36408,2.8435 -16,3.45611 -5.94091,0.37769 -7.44977,0.27429 -5.01168,-0.34344 z m 4.86402,-3.75058 c 1.29379,-0.9836 4.66879,-2.77989 7.5,-3.99176 6.2104,-2.65829 3.70061,-2.97584 -5.90785,-0.74749 -3.67379,0.852 -6.89609,1.33262 -7.16069,1.06803 -0.68558,-0.68559 9.05042,-3.45994 14.83462,-4.22724 4.1351,-0.54854 4.88158,-0.3947 4.88158,1.00602 0,0.90947 -1.0125,2.04919 -2.25,2.53271 -1.2375,0.48352 -4.5,1.91537 -7.25,3.18187 -6.74147,3.10477 -7.40266,3.27234 -4.64766,1.17786 z m -17.30234,-3.09353 c 0.5225,-0.44284 2.6375,-2.04075 4.7,-3.55089 4.26823,-3.12517 4.76804,-5.31613 1.5,-6.57533 -1.95015,-0.75141 -2.49212,-0.38063 -4.06677,2.78222 l -1.81677,3.64917 0.58552,-3.46875 c 0.81712,-4.84079 1.67404,-5.34929 6.67082,-3.95852 5.69725,1.58574 15.60026,1.35737 20.94176,-0.48293 3.21593,-1.10798 3.89653,-1.14528 2.83391,-0.15533 -2.37327,2.21097 -7.90813,3.56553 -14.56913,3.56553 -5.87944,0 -6.46313,0.19954 -7.54784,2.58021 -0.64659,1.41911 -2.86902,3.44411 -4.93872,4.5 -3.89263,1.98587 -5.95148,2.52045 -4.29278,1.11462 z m 60.66679,25.24447 c -3.53184,-2.47381 -5.21679,-6.81133 -5.21679,-13.42948 0,-5.83007 2.41577,-12.91268 4.93548,-14.46994 0.56572,-0.34964 0.18874,-1.92712 -0.91238,-3.81785 -1.03205,-1.77212 -2.18148,-5.02203 -2.55429,-7.22203 -0.83629,-4.9351 -4.86396,-19.11228 -6.39213,-22.5 -0.62026,-1.375 -2.24125,-4.02905 -3.60221,-5.89788 -1.36096,-1.86884 -2.48435,-4.79384 -2.49643,-6.5 -0.0121,-1.70617 -0.91208,-5.06376 -2,-7.46132 -1.08792,-2.39757 -1.97804,-6.32007 -1.97804,-8.71667 0,-3.65446 -0.57005,-4.92751 -3.53333,-7.8908 -1.94334,-1.94333 -4.19334,-3.53333 -5,-3.53333 -0.80667,0 -1.46667,-0.45 -1.46667,-1 0,-1.33373 0.34255,-1.28116 4.46666,0.68549 4.13106,1.96997 7.53334,8.07063 7.53334,13.50811 0,1.95918 0.675,5.17765 1.5,7.15216 0.825,1.9745 1.5,4.91188 1.5,6.52751 0,1.86522 1.21815,4.39554 3.33711,6.93177 1.83542,2.19684 3.8036,5.27692 4.37373,6.84461 1.86823,5.137 4.11544,13.76428 4.77985,18.35035 0.35857,2.475 1.40494,6.39344 2.32527,8.70765 1.45664,3.66276 1.99778,4.14368 4.17869,3.71369 2.33964,-0.46129 2.37695,-0.40888 0.56413,0.79235 -8.10062,5.36773 -10.67423,14.52965 -6.60151,23.50102 5.23758,11.53732 15.94219,2.39699 14.85153,-12.68124 -0.35899,-4.96305 -0.95829,-6.59143 -3.37268,-9.1641 -2.46667,-2.62836 -2.57802,-2.94324 -0.69647,-1.96934 7.95114,4.11556 7.32065,23.74176 -0.94877,29.53389 -2.82251,1.97696 -4.75729,1.97834 -7.57409,0.005 z m -10.98377,-12.22163 c -3.73331,-3.48743 -4.80804,-8.09224 -3.2159,-13.77883 1.63617,-5.8438 0.63516,-10.29697 -3.5453,-15.77195 -3.33063,-4.36199 -5.92911,-9.54293 -5.16797,-10.30407 0.19789,-0.19789 0.98946,0.87702 1.75905,2.38869 0.76958,1.51167 2.84412,4.56293 4.61007,6.78058 5.33783,6.70313 6.47342,11.65562 4.14749,18.08788 -1.59371,4.40733 0.54323,11.18761 3.93208,12.47605 1.30229,0.49513 2.08917,1.35108 1.74862,1.90211 -0.85285,1.37993 -0.91083,1.35574 -4.26814,-1.78046 z m -33.58036,-30.27625 c -1.45896,-1.14762 -2.65266,-2.76353 -2.65266,-3.59092 0,-0.99372 1.05965,-0.44469 3.12179,1.61745 3.66774,3.66774 3.35536,4.98182 -0.46913,1.97347 z m -23.20503,-3.47433 c -1.6212,-0.72515 -4.74763,-2.88112 -6.94763,-4.79103 l -4,-3.47258 -0.33518,-13.35174 c -0.51094,-20.35338 -0.49537,-20.60099 1.51103,-24.03642 1.03262,-1.76808 3.89049,-4.47657 6.35082,-6.01885 2.46033,-1.54228 5.69939,-3.58992 7.19792,-4.55031 3.50887,-2.2488 4.81379,-9.01245 2.43827,-12.63796 -2.47764,-3.78135 -3.16118,-11.74387 -1.31468,-15.31461 3.04163,-5.88187 13.09634,-8.1492 19.31719,-4.35602 2.65041,1.6161 3.35142,2.87628 4.30905,7.74626 0.62903,3.1989 1.29478,6.29214 1.47946,6.87387 0.69398,2.18611 -1.99936,13.7934 -3.30099,14.22599 -1.12384,0.37351 -1.12788,0.0556 -0.0244,-1.91799 1.66304,-2.97435 1.71208,-18.51995 0.0679,-21.53772 -2.25139,-4.13249 -4.22987,-5.32798 -8.81748,-5.32798 -5.90325,0 -10.20747,2.34544 -11.94775,6.51052 -1.39857,3.34724 -1.0621,6.48948 0.69488,6.48948 0.50164,0 0.63883,1.08864 0.30488,2.4192 -0.46476,1.85175 -0.0362,2.79329 1.82682,4.01402 1.33871,0.87716 2.95183,2.73131 3.58472,4.12036 0.65504,1.43765 2.98287,3.33957 5.40412,4.41534 2.70996,1.20404 3.52767,1.91048 2.25342,1.94679 -4.06776,0.11589 -6.53432,-1.23514 -8.72567,-4.77938 l -2.24828,-3.63633 -0.71353,4.9835 c -0.39244,2.74093 -1.2983,5.17769 -2.01302,5.41503 -0.71473,0.23734 -2.49254,1.70727 -3.95071,3.2665 -1.45817,1.55923 -3.03317,2.84166 -3.5,2.84985 -0.46683,0.008 -2.64879,1.53748 -4.84879,3.39844 -3.93242,3.3264 -3.99596,3.48665 -3.76111,9.48512 0.40748,10.40757 0.39059,11.43057 -0.29207,17.69122 -0.50689,4.64875 -0.28308,6.8263 0.94589,9.20286 1.65175,3.19413 9.38523,9.20748 11.8413,9.20748 1.89922,0 6.87412,-5.42066 11.07508,-12.06742 l 3.51878,-5.56742 -3.09823,-0.93258 c -1.70402,-0.51292 -3.30031,-1.56264 -3.54731,-2.3327 -0.34629,-1.07966 0.0901,-1.02244 1.9068,0.25 6.69663,4.6905 21.91087,-2.20323 21.91087,-9.92804 0,-3.1133 -3.57716,-5.41529 -8.47251,-5.45225 -3.33717,-0.0252 -3.71341,-0.21302 -2.19505,-1.09582 2.86097,-1.66343 8.26867,-0.13654 10.99606,3.10478 1.34699,1.60081 2.72411,2.6355 3.06028,2.29933 0.33617,-0.33616 0.61122,-0.13436 0.61122,0.44847 0,0.58282 -0.71242,1.33305 -1.58316,1.66719 -0.87073,0.33413 -1.40422,1.14432 -1.18552,1.80043 0.88623,2.65869 -10.19203,9.80603 -15.1992,9.80603 -1.11767,0 -2.03212,0.35267 -2.03212,0.78372 0,2.18187 -12.17491,18.68569 -14.42004,19.54722 -0.65159,0.25004 -2.51113,-0.13869 -4.13233,-0.86385 z m 31.55237,-0.84465 c 0,-0.20765 0.6853,-0.9463 1.52289,-1.64144 1.27335,-1.05678 1.41968,-0.99492 0.89301,0.37756 -0.53789,1.40173 -2.4159,2.38422 -2.4159,1.26388 z m -10.5,-2.62244 c -0.33992,-0.55 -0.14148,-1 0.44098,-1 0.58246,0 1.05902,0.45 1.05902,1 0,0.55 -0.19844,1 -0.44098,1 -0.24254,0 -0.7191,-0.45 -1.05902,-1 z m -3.5,-7 c 0,-0.55 0.47656,-1 1.05902,-1 0.58246,0 0.7809,0.45 0.44098,1 -0.33992,0.55 -0.81648,1 -1.05902,1 -0.24254,0 -0.44098,-0.45 -0.44098,-1 z m 32.45473,-5.19252 c 0.30645,-2.92721 -0.0629,-6.01874 -0.98174,-8.21788 -0.81014,-1.93895 -1.44785,-4.32732 -1.41712,-5.30748 0.0307,-0.98017 0.90559,0.24288 1.94413,2.71788 2.0469,4.87808 2.41487,10.32816 0.91145,13.5 -0.68972,1.45515 -0.81414,0.72163 -0.45672,-2.69252 z m -29.80702,1.50689 c -0.83202,-0.83202 7.7195,-6.31437 9.84934,-6.31437 0.82662,0 1.50295,-0.675 1.50295,-1.5 0,-0.825 0.45,-1.5 1,-1.5 0.55,0 0.99311,0.3375 0.98469,0.75 -0.0331,1.62129 -1.65464,3.03148 -5.48469,4.76982 -2.2,0.99852 -4.71152,2.41602 -5.58115,3.15001 -0.86963,0.73399 -1.89165,1.02404 -2.27114,0.64454 z m -25.0731,-2.64822 c 0.36338,-0.94694 1.49349,-2.16741 2.51136,-2.71216 1.52362,-0.81542 1.6746,-1.45353 0.85437,-3.61091 -1.37122,-3.60658 -0.42084,-4.13824 1.35132,-0.75595 l 1.44818,2.76394 2.74182,-2.74182 c 2.23429,-2.23429 2.62639,-3.31901 2.11821,-5.85992 -0.80049,-4.00244 -3.5226,-7.0028 -5.81055,-6.40449 -0.98412,0.25736 -1.78932,0.0601 -1.78932,-0.43846 0,-0.49851 1.125,-0.90638 2.5,-0.90638 2.48496,0 6.5,3.08849 6.5,5 0,1.71875 1.45829,1.09664 2.93013,-1.25 0.77617,-1.2375 1.67192,-4.95 1.99055,-8.25 l 0.57932,-6 4.30466,-1.362 c 2.36757,-0.74911 4.50357,-1.16311 4.74667,-0.92 1.14771,1.14771 3.15005,9.84852 2.37649,10.32661 -0.48245,0.29817 -1.40038,-1.53566 -2.03983,-4.07518 -1.08151,-4.29505 -1.345,-4.57231 -3.77532,-3.97261 -3.70655,0.91463 -4.03634,1.44918 -4.6097,7.47197 -0.28351,2.97814 -1.2893,6.31095 -2.25062,7.45778 -1.71133,2.04156 -1.69973,2.04105 0.7548,-0.0334 3.22632,-2.72674 8.99285,-5.50325 8.99285,-4.32994 0,0.50047 -1.49944,1.53645 -3.3321,2.30218 -3.60489,1.50622 -7.61987,5.92162 -7.74685,8.51946 -0.0434,0.88833 -0.27642,1.14114 -0.51778,0.56181 -0.24135,-0.57934 -2.5183,0.88316 -5.05988,3.25 -2.54159,2.36683 -5.08565,4.30333 -5.65349,4.30333 -0.56783,0 -1.87472,0.76227 -2.90419,1.69393 -1.76077,1.59348 -1.8326,1.59183 -1.2111,-0.0278 z m -2.84544,-0.27032 c -0.40105,-0.40104 -0.72917,-1.41916 -0.72917,-2.2625 0,-1.12559 0.29583,-1.2375 1.1125,-0.42083 0.61187,0.61187 0.94,1.63 0.72917,2.2625 -0.21084,0.6325 -0.71146,0.82188 -1.1125,0.42083 z m 44.52083,-2.20065 c -1.7875,-0.17704 -3.25,-0.74339 -3.25,-1.25854 0,-1.29666 5.72978,-1.18288 6.54112,0.12989 0.86701,1.40285 0.55558,1.50965 -3.29112,1.12865 z m -32.02749,-20.75188 c -1.22238,-0.85619 -2.22251,-2.05094 -2.22251,-2.65499 0,-0.60792 0.79052,-0.38287 1.77056,0.50405 0.97381,0.88129 2.88631,2.04751 4.25,2.5916 2.15605,0.86024 2.215,0.99753 0.45195,1.05265 -1.11512,0.0349 -3.02763,-0.63713 -4.25,-1.49331 z m -3.22251,-5.47999 c 0,-2.27104 3.25057,-6.59634 6.77049,-9.00902 2.89188,-1.9822 4.82178,-2.45429 10.03314,-2.45429 5.81226,0 6.65024,0.26297 8.44516,2.65017 1.24908,1.66124 1.68367,3.1501 1.16463,3.98992 -0.60748,0.98292 -0.98362,0.68058 -1.41225,-1.13514 -1.50306,-6.36704 -12.18525,-6.54376 -19.07904,-0.31564 -2.15717,1.94888 -3.92213,4.13949 -3.92213,4.86804 0,0.72854 -0.45,1.60273 -1,1.94265 -0.55,0.33992 -1,0.0984 -1,-0.53669 z m 28,-7.96331 c 0,-0.55 1.32344,-1 2.94098,-1 1.61754,0 3.2191,0.45 3.55902,1 0.3678,0.59512 -0.82295,1 -2.94098,1 -1.95746,0 -3.55902,-0.45 -3.55902,-1 z m -1,-3 c -1.09674,-0.70877 -0.34157,-0.97349 2.80902,-0.98469 2.62138,-0.009 4.06696,0.37634 3.69098,0.98469 -0.78398,1.2685 -4.53713,1.2685 -6.5,0 z"
       id="path3060"
       inkscape:connector-curvature="0" />
  </g>
</svg>
