<?xml version="1.0" encoding="UTF-8" standalone="no"?>
<!-- Created with Inkscape (http://www.inkscape.org/) -->

<svg
   xmlns:dc="http://purl.org/dc/elements/1.1/"
   xmlns:cc="http://creativecommons.org/ns#"
   xmlns:rdf="http://www.w3.org/1999/02/22-rdf-syntax-ns#"
   xmlns:svg="http://www.w3.org/2000/svg"
   xmlns="http://www.w3.org/2000/svg"
   xmlns:sodipodi="http://sodipodi.sourceforge.net/DTD/sodipodi-0.dtd"
   xmlns:inkscape="http://www.inkscape.org/namespaces/inkscape"
   width="128.48863"
   height="184.76968"
   id="svg2"
   version="1.1"
   inkscape:version="0.48.3.1 r9886"
   sodipodi:docname="Alternate-hammer-curl-2.svg">
  <defs
     id="defs4" />
  <sodipodi:namedview
     id="base"
     pagecolor="#ffffff"
     bordercolor="#666666"
     borderopacity="1.0"
     inkscape:pageopacity="0.0"
     inkscape:pageshadow="2"
     inkscape:zoom="3.959798"
     inkscape:cx="78.418945"
     inkscape:cy="123.54762"
     inkscape:document-units="px"
     inkscape:current-layer="layer1"
     showgrid="false"
     fit-margin-top="0"
     fit-margin-left="0"
     fit-margin-right="0"
     fit-margin-bottom="0"
     inkscape:window-width="1855"
     inkscape:window-height="1056"
     inkscape:window-x="65"
     inkscape:window-y="24"
     inkscape:window-maximized="1" />
  <metadata
     id="metadata7">
    <rdf:RDF>
      <cc:Work
         rdf:about="">
        <dc:format>image/svg+xml</dc:format>
        <dc:type
           rdf:resource="http://purl.org/dc/dcmitype/StillImage" />
        <dc:title></dc:title>
      </cc:Work>
    </rdf:RDF>
  </metadata>
  <g
     inkscape:label="Ebene 1"
     inkscape:groupmode="layer"
     id="layer1"
     transform="translate(-642.48917,-671.289)">
    <path
       style="fill:#000000"
       d="m 674.40406,854.64689 c -1.85065,-0.80347 -4.20457,-1.46086 -5.23095,-1.46086 -1.1874,0 -2.10943,-0.96936 -2.53505,-2.66517 -0.57313,-2.28353 -0.0389,-3.21005 3.73095,-6.47035 7.05637,-6.10263 9.19933,-8.34056 12.68093,-13.24287 4.6745,-6.582 4.7245,-7.03702 0.92419,-8.41123 -4.5464,-1.64399 -4.3906,-1.76826 -4.1059,3.27502 0.21405,3.79168 -0.14531,4.79889 -2.32349,6.51224 -1.41718,1.11476 -4.24932,2.29429 -6.29365,2.62119 -2.20816,0.3531 -5.28212,1.98683 -7.5728,4.02474 -2.12071,1.8867 -4.99289,3.66591 -6.38263,3.9538 -1.38973,0.28789 -3.30818,0.94625 -4.26322,1.46303 -3.19772,1.73031 -7.43578,1.08881 -9.04641,-1.36932 -2.28411,-3.48598 -1.05426,-7.43962 3.18739,-10.24661 3.87785,-2.56624 10.51666,-10.79193 12.12576,-15.0242 1.62421,-4.27199 1.10281,-7.81764 -1.8344,-12.47449 -3.43068,-5.43922 -6.19463,-12.22289 -6.19965,-15.21602 -0.002,-1.22637 -0.84983,-3.61725 -1.88393,-5.31308 -1.03411,-1.69582 -2.21395,-4.60287 -2.62187,-6.46012 -0.40792,-1.85724 -1.58282,-5.33912 -2.61089,-7.73751 -1.55352,-3.62421 -1.65897,-4.73135 -0.6244,-6.55521 2.58324,-4.55397 13.47678,-13.64348 20.02231,-16.70651 6.68218,-3.12697 6.69189,-3.12824 11.56153,-1.5108 5.63378,1.87124 8.43967,4.56862 10.07703,9.68731 1.77058,5.53515 -0.58029,9.55708 -7.98333,13.65807 -8.69187,4.81496 -8.19168,6.66069 2.13083,7.86292 7.86379,0.91587 8.04829,0.88843 7.44788,-1.10785 -1.9863,-6.60417 -1.67226,-8.99812 1.92525,-14.67633 2.18175,-3.44361 4.72581,-6.10952 6.55223,-6.86605 1.64212,-0.68019 2.75906,-1.60339 2.48208,-2.05156 -2.08773,-3.37802 10.85161,-0.40401 14.20834,3.26568 2.83739,3.10193 5.00731,7.59395 5.85749,12.1258 0.78357,4.17677 1.07624,4.18739 7.29066,0.26439 3.08906,-1.95003 4.31675,-3.58612 5.48576,-7.31059 1.98639,-6.32867 2.7871,-12.29832 1.64958,-12.29832 -0.5013,0 -1.59043,-1.31301 -2.4203,-2.91779 -2.0792,-4.02073 -9.31616,-8.66648 -15.70853,-10.08406 -6.34675,-1.40747 -12.33398,-1.0248 -12.33398,0.78832 0,1.73164 -2.46075,3.17951 -5.43555,3.19822 -1.33955,0.008 -3.36455,0.87927 -4.5,1.93523 -1.55939,1.45022 -4.14394,2.06584 -10.56445,2.51637 -9.35964,0.65678 -8.42241,-0.73983 1.31272,-1.95616 3.75685,-0.46939 6.56272,-1.50038 8.41219,-3.091 1.5263,-1.31268 3.90009,-2.40043 5.27509,-2.41722 l 2.5,-0.0305 -3.05646,-2.78366 c -5.11137,-4.65517 -11.53778,-13.97059 -7.0931,-10.28183 1.10965,0.92092 1.35415,-0.0181 1.37124,-5.26627 0.0119,-3.64521 0.66743,-7.68323 1.52711,-9.4065 1.35807,-2.72231 1.34613,-3.18759 -0.12125,-4.7281 -1.51922,-1.59492 -1.48183,-1.63413 0.56177,-0.58912 1.44094,0.73683 2.40115,0.77676 2.80902,0.11681 0.34084,-0.55148 1.35234,-1.0027 2.24778,-1.0027 1.27661,0 1.07403,0.59366 -0.93839,2.75 -6.93739,7.4335 -5.81678,23.25 1.64727,23.25 1.17975,0 2.67751,-0.5325 3.32834,-1.18333 0.65084,-0.65084 1.52763,-0.83904 1.94843,-0.41824 1.48286,1.48286 -3.13504,3.75941 -6.5434,3.22578 l -3.31165,-0.51848 3.60606,2.44714 c 4.35383,2.95459 5.51723,3.06132 5.51723,0.50615 0,-1.06754 0.52647,-2.26636 1.16994,-2.66405 0.7679,-0.47459 0.96674,-0.19354 0.57864,0.81783 -0.48409,1.26153 0.89022,1.74068 7.58006,2.64281 4.49425,0.60605 9.14048,1.3776 10.32496,1.71457 1.59064,0.45251 2.31806,0.0945 2.78278,-1.36973 0.6269,-1.97518 6.54936,-5.55052 7.54176,-4.5529 0.48913,0.49171 -0.81228,1.64718 -6.09037,5.4074 -2.18035,1.55333 -2.17741,1.56017 2.82435,6.56193 l 5.00698,5.00698 3.89045,-5.92389 c 2.13975,-3.25814 5.3452,-7.20296 7.12323,-8.76626 3.14984,-2.76944 3.20856,-2.97004 2.28895,-7.81913 -0.5191,-2.73722 -0.68216,-7.18609 -0.36235,-9.88639 0.34071,-2.87677 0.11643,-5.77857 -0.54166,-7.00822 -0.61772,-1.15423 -0.73473,-2.33864 -0.26001,-2.63203 0.47472,-0.29339 1.66326,1.24096 2.64121,3.40967 0.97796,2.16871 2.61577,4.70119 3.63959,5.62774 1.02382,0.92654 1.86149,2.36832 1.86149,3.20395 0,1.17044 -0.53148,1.02003 -2.31445,-0.65499 -3.14711,-2.95655 -3.68555,-2.7569 -3.68555,1.36659 0,5.28083 3.74875,15.87997 6.44596,18.22516 l 2.36681,2.05792 0.55395,-2.11832 c 0.30467,-1.16508 0.82542,-1.84686 1.1572,-1.51507 0.33179,0.33179 -0.52706,4.36213 -1.90855,8.95633 -1.38149,4.59419 -3.21559,12.14424 -4.07579,16.77788 -0.86019,4.63364 -2.66404,10.39301 -4.00855,12.79861 -1.93848,3.46831 -2.24649,4.89478 -1.4878,6.89029 0.52622,1.38408 0.95677,5.12066 0.95677,8.30352 0,11.06183 -6.92595,16.38175 -13.79853,10.59885 l -3.07782,-2.58981 -11.42569,7.03687 c -6.28414,3.87028 -11.88071,7.03687 -12.43683,7.03687 -1.15639,0 -2.16313,4.17175 -2.82562,11.70884 -0.39532,4.49757 -0.17686,5.35922 1.5999,6.31011 4.27224,2.28643 12.869,-4.12853 10.55349,-7.8751 -0.32966,-0.5334 -2.37112,-1.26916 -4.53657,-1.63501 -2.16546,-0.36585 -4.51537,-1.36184 -5.22202,-2.2133 -1.13978,-1.37336 -0.77938,-1.46657 3.19243,-0.82574 6.86682,1.10794 8.90172,2.80535 8.71405,7.26883 -0.1452,3.45334 -0.55481,3.95402 -5.00175,6.11381 -2.66398,1.29384 -5.75574,2.1139 -6.87058,1.82237 -1.58559,-0.41464 -2.33594,0.20934 -3.44572,2.86544 -0.78031,1.86753 -1.41874,4.4302 -1.41874,5.69481 0,3.04749 -7.81608,11.88107 -13.41663,15.16321 -4.96562,2.91005 -9.43569,3.2388 -14.44818,1.06259 z m 11.46739,-2.94556 c 3.13509,-0.81659 5.75067,-1.60409 5.8124,-1.75 0.0617,-0.14592 2.01861,-2.59603 4.34862,-5.44471 4.13473,-5.0551 5.25353,-7.06725 3.2364,-5.82059 -1.57351,0.97248 -1.1818,-0.46978 1.15413,-4.24938 1.65706,-2.68119 2.23954,-5.47738 2.52433,-12.11803 0.20361,-4.74793 0.9944,-10.88259 1.7573,-13.63259 2.46893,-8.89963 2.67663,-12.81445 1.11171,-20.9542 -2.22952,-11.5966 0.16902,-16.5458 8.01863,-16.5458 2.18633,0 2.39751,-0.31781 1.82743,-2.75 -1.20704,-5.14969 -5.85484,-12.71378 -8.62501,-14.03682 -5.80906,-2.77442 -13.24125,1.82189 -18.38227,11.36818 -1.6272,3.02154 -1.67643,3.86149 -0.47724,8.14383 0.7354,2.62614 1.6388,9.83439 2.00755,16.01832 0.36875,6.18393 1.13323,11.70628 1.69883,12.27188 0.7045,0.7045 0.88751,-1.65551 0.58109,-7.49351 -0.52381,-9.97996 1.21467,-11.84747 2.11492,-2.27188 0.73342,7.80105 -0.41663,17.3661 -3.06596,25.5 -1.7497,5.37188 -1.82181,6.25 -0.51322,6.25 1.00663,0 0.20874,1.49126 -2.35486,4.40122 -2.13255,2.42066 -5.59626,6.47066 -7.69713,9 -2.10087,2.52933 -4.37662,4.59878 -5.05722,4.59878 -1.80221,0 -7.62301,5.05949 -7.62301,6.62598 0,0.73475 1.2375,1.60159 2.75,1.9263 1.5125,0.32472 3.65,0.97784 4.75,1.45138 2.83357,1.21982 3.70641,1.17763 10.10258,-0.48836 z m -9.27122,-4.0153 c 0.4366,-1.32017 12.66864,-1.79516 12.66864,-0.49193 0,0.54556 -1.4625,1.05986 -3.25,1.14289 -8.26167,0.38375 -9.72732,0.28245 -9.41864,-0.65096 z m 18.66864,-17.50672 c 0,-1.16862 -0.46583,-2.99518 -1.03518,-4.05902 -1.14991,-2.14862 -0.028,-2.59748 1.83518,-0.73426 1.45559,1.45559 1.58226,5.44571 0.2,6.3 -0.55,0.33992 -1,-0.33811 -1,-1.50672 z m 5.55084,-28.6365 c 0.92697,-6.38213 1.44916,-6.77218 1.44916,-1.08246 0,2.5342 -0.48478,4.90726 -1.07729,5.27345 -0.74829,0.46247 -0.86185,-0.81741 -0.37187,-4.19099 z m -5.47668,-23.98434 c -0.0408,-1.72015 0.61172,-3.69678 1.45001,-4.3925 2.28896,-1.89967 2.40579,-0.91469 0.41752,3.52006 l -1.79336,4 -0.0742,-3.12756 z m -41.77085,63.6268 c 2.09181,-0.4126 5.64777,-2.23244 7.90213,-4.04409 2.25435,-1.81165 5.94287,-3.92753 8.19669,-4.70195 8.68755,-2.98507 9.58347,-6.78631 4.09787,-17.38649 -1.925,-3.7198 -3.5,-7.61155 -3.5,-8.64833 0,-1.03677 -0.27992,-2.16496 -0.62204,-2.50709 -0.34212,-0.34212 -0.71566,-2.77962 -0.83008,-5.41666 -0.11443,-2.63705 -1.6555,-8.77909 -3.4246,-13.64899 -3.00064,-8.26001 -3.11188,-9.01409 -1.65726,-11.23412 0.8576,-1.30887 2.79109,-2.62879 4.29663,-2.93315 4.67947,-0.946 13.42836,-5.87155 14.48448,-8.15463 2.09063,-4.51946 -2.47074,-12.71373 -8.72381,-15.67186 -3.24234,-1.53385 -4.08662,-1.61838 -4.96499,-0.4971 -0.58208,0.74306 -3.43711,2.44676 -6.34451,3.786 -5.25708,2.42158 -17.21382,13.00695 -17.21382,15.23949 0,1.67851 4.65389,14.92675 6.46055,18.39127 0.83992,1.61065 1.53208,3.60346 1.53813,4.42846 0.006,0.825 2.03382,5.98567 4.50616,11.46815 5.84039,12.95125 5.91031,16.27391 0.49516,23.53185 -2.2,2.94867 -4,5.72355 -4,6.16642 0,0.44286 -1.84526,2.02634 -4.10058,3.51884 -4.64189,3.07186 -6.59984,6.76586 -4.7607,8.98189 0.66711,0.80381 1.87401,1.13176 2.77149,0.75308 0.87439,-0.36894 3.30128,-1.00838 5.3931,-1.42099 z m 13.72849,-11.84286 c 0.0175,-0.36101 0.69249,-1.52989 1.5,-2.59751 0.80751,-1.06762 1.4682,-3.65512 1.4682,-5.75 0,-2.09488 0.44143,-3.80887 0.98095,-3.80887 1.51242,0 2.42467,4.99438 1.14583,6.27322 -0.61973,0.61973 -1.12678,2.1093 -1.12678,3.31015 0,1.34236 -0.77037,2.38482 -2,2.70638 -1.1,0.28766 -1.98569,0.22764 -1.9682,-0.13337 z m -6.43662,-5.15638 c 1.43794,-2.75 3.05477,-5 3.59296,-5 1.15195,0 1.07167,0.21066 -2.18814,5.7423 -3.48697,5.9171 -4.58386,5.33751 -1.40482,-0.7423 z m -6.39518,-48.2 c -1.45789,-1.45789 -1.5709,-4.45274 -0.2,-5.3 0.55,-0.33992 1,0.16059 1,1.11224 0,0.95165 0.74474,2.55321 1.65499,3.55902 1.36541,1.50876 1.4004,1.82874 0.2,1.82874 -0.80025,0 -1.99499,-0.54 -2.65499,-1.2 z m 0.82896,-10.76094 c -0.80907,-0.51167 -1.15745,-1.24391 -0.77417,-1.62719 0.38328,-0.38328 1.33239,-0.16945 2.10912,0.47519 1.08052,0.89674 2.02676,0.89206 4.02839,-0.0199 1.43888,-0.6556 2.93872,-0.86944 3.33297,-0.47519 1.03265,1.03265 -1.79945,2.57744 -4.72527,2.57744 -1.375,0 -3.16197,-0.41864 -3.97104,-0.93031 z m 33.99619,50.3398 c 0.92234,-4.44287 0.89254,-6.5914 -0.14215,-10.25 -0.72,-2.54587 -1.32573,-8.88666 -1.34605,-14.09063 l -0.037,-9.46178 -5.5,-1.72713 c -3.025,-0.94992 -6.76708,-1.75463 -8.31574,-1.78823 -3.61901,-0.0785 -6.68426,-1.72769 -6.68426,-3.59627 0,-1.61926 -1.56452,-1.97846 -2.44092,-0.56042 -0.50506,0.81721 1.66004,7.73399 5.82084,18.5956 0.84276,2.2 1.55205,5.85453 1.57619,8.12117 l 0.0439,4.12117 5.11674,0.67876 c 2.8142,0.37332 5.38075,0.41474 5.70344,0.0921 0.32269,-0.32268 0.60765,-5.75229 0.63326,-12.06579 0.0393,-9.68124 0.25084,-11.20252 1.35088,-9.71323 0.94801,1.28347 1.16837,4.36109 0.80667,11.26587 -0.27372,5.225 -0.52316,10.47857 -0.55433,11.67459 -0.0491,1.88641 -0.51262,2.11805 -3.49718,1.74787 -1.89229,-0.2347 -4.59229,-0.86463 -6,-1.39985 -3.43195,-1.30482 -3.38302,0.48315 0.19052,6.96246 2.40276,4.35652 3.15292,4.98793 5.94098,5.00052 1.75504,0.008 3.4691,0.46441 3.80902,1.01441 1.33686,2.16309 2.40834,0.75848 3.52515,-4.62114 z m 32.4196,-17.12948 c 10.8952,-6.58362 10.10656,-5.88017 8.61166,-7.68141 -0.67572,-0.8142 -0.93829,-1.95007 -0.58348,-2.52417 0.35481,-0.57409 0.20404,-1.0438 -0.33505,-1.0438 -1.01451,0 -18.16022,9.64168 -19.25764,10.8293 -0.34087,0.36888 -0.8752,2.35896 -1.18741,4.42238 -0.66343,4.38486 -1.62995,4.6882 12.75192,-4.0023 z m 21.9574,-1.79438 c 2.64163,-2.64164 3.74095,-8.70035 2.559,-14.1035 -1.16599,-5.33014 -2.25495,-7.11232 -5.86576,-9.59983 -8.58777,-5.91618 -12.82608,17.41678 -4.33478,23.86404 2.3545,1.78773 5.76482,1.716 7.64154,-0.16071 z m -19.15317,-9.23571 c 3.14728,-1.80214 4.75674,-3.39384 4.77197,-4.71929 0.0439,-3.82027 3.80719,-10.48416 6.49858,-11.50743 3.63654,-1.38261 3.94167,-1.31682 7.40374,1.59632 l 3.07673,2.5889 0,-20.5889 c 0,-12.08781 -0.38561,-20.58889 -0.9339,-20.58889 -0.97105,0 -5.05568,5.41911 -9.62485,12.76937 -1.88138,3.02648 -2.3573,4.62762 -1.63484,5.5 1.31415,1.58685 0.0194,8.82132 -2.1793,12.17698 -0.911,1.39036 -3.56228,3.49864 -5.89174,4.68507 -2.32945,1.18643 -5.76025,3.31821 -7.62398,4.73728 -3.28286,2.4996 -3.3669,2.51171 -2.6928,0.38779 0.65656,-2.06861 0.52295,-2.13207 -2.3674,-1.12449 -3.34588,1.16638 -7.14022,5.29574 -6.59916,7.18182 0.18715,0.6524 0.90371,4.41968 1.59236,8.37174 l 1.2521,7.18556 5.10175,-2.96627 c 2.80597,-1.63145 7.2388,-4.18995 9.85074,-5.68556 z m 26.21463,-29.7686 c 0.84242,-5.47288 2.04207,-11.59975 2.66589,-13.61526 1.03161,-3.33302 0.86377,-4.13303 -1.85518,-8.84242 -1.86154,-3.2243 -3.18913,-4.6574 -3.51875,-3.79841 -0.54806,1.42821 0.28778,37.09538 0.85599,36.52717 0.17621,-0.17621 1.00964,-4.79819 1.85205,-10.27108 z m 8.78639,36.82877 c -2.18112,-0.77845 -1.34833,-2.27946 1.2647,-2.27946 5.56299,0 8.25785,-10.52948 4.86505,-19.00894 -1.82233,-4.55444 -5.33498,-7.31384 -5.44357,-4.27624 -0.33975,9.50446 -2.0646,19.8136 -3.56631,21.31531 -1.38661,1.38661 -7.36987,2.39293 -7.36987,1.23953 0,-0.53919 1.4625,-1.39931 3.25,-1.91138 3.49405,-1.00096 3.58989,-1.26204 5.63843,-15.35828 0.43961,-3.025 1.99908,-8.02533 3.46548,-11.11184 3.64676,-7.67574 6.8828,-25.44701 5.52753,-30.35539 -0.55638,-2.01503 -0.74726,-4.87173 -0.42419,-6.34823 0.3752,-1.71472 -0.14319,-4.11566 -1.43492,-6.64598 -1.11228,-2.1788 -2.02233,-5.68213 -2.02233,-7.78519 0,-6.58472 -5.18501,-11.75337 -11.79057,-11.75337 -1.58944,0 -5.23388,-1.28182 -8.09876,-2.84849 -6.59012,-3.60383 -12.85516,-3.29779 -21.61067,1.05565 -7.85521,3.90579 -9.5,5.48384 -9.5,9.11449 0,3.35322 -1.23892,2.87244 -1.71259,-0.6646 -0.19431,-1.45094 0.7025,-3.23127 2.49072,-4.94448 3.48974,-3.34339 14.42078,-8.71257 17.7378,-8.71257 1.96699,0 2.48407,-0.50811 2.48407,-2.44098 0,-1.34254 0.51046,-2.75647 1.13435,-3.14205 0.78497,-0.48514 0.99346,0.25886 0.67691,2.41563 -0.40343,2.74876 -0.2127,3.05554 1.61565,2.59863 1.15118,-0.28768 4.20748,0.56368 6.8727,1.91446 l 4.79961,2.43252 1.57309,-2.40085 c 0.86521,-1.32047 2.75538,-2.68261 4.2004,-3.02699 4.09424,-0.97575 5.11481,-2.2734 5.28733,-6.72282 0.13299,-3.42997 0.22617,-3.60545 0.55137,-1.03827 0.29833,2.35507 1.21096,3.48014 3.83996,4.73383 1.89675,0.90449 3.44863,2.09453 3.44863,2.64453 0,0.55 -1.61286,0.23088 -3.58414,-0.70916 -3.34536,-1.59528 -3.64651,-1.59771 -4.52026,-0.0364 -0.51486,0.92001 -2.72699,2.67927 -4.91585,3.90948 -2.18886,1.23021 -3.97975,2.49158 -3.97975,2.80305 0,0.31147 2.71143,1.51619 6.0254,2.67715 l 6.0254,2.11085 1.69021,-2.8613 c 0.92961,-1.57371 2.01019,-2.86129 2.40127,-2.86129 0.39109,0 0.91687,-0.7875 1.16839,-1.75 0.31704,-1.21318 0.49291,-0.9999 0.57333,0.69528 0.0668,1.4078 -1.01644,3.62729 -2.55308,5.2312 -2.3523,2.45527 -2.53033,3.09045 -1.5,5.35177 0.64299,1.41122 1.16908,3.59923 1.16908,4.86225 0,1.26302 0.8506,4.76871 1.89022,7.79043 1.03963,3.02171 1.92964,8.29398 1.97781,11.71614 0.0482,3.42215 0.30469,6.57337 0.57003,7.0027 0.78782,1.27473 -4.14588,24.00536 -5.73769,26.43478 -1.33622,2.03932 -1.25932,2.47688 0.87041,4.95284 2.50182,2.90854 4.41458,8.50474 4.42364,12.94237 0.0139,6.78096 -5.73551,14.48049 -9.74442,13.0497 z m -5.25,-20.77946 c 0,-0.825 0.45,-1.5 1,-1.5 0.55,0 1,0.675 1,1.5 0,0.825 -0.45,1.5 -1,1.5 -0.55,0 -1,-0.675 -1,-1.5 z m 7.67638,-27 c 0.37075,-1.1 1.25807,-2.91493 1.9718,-4.03318 1.01471,-1.5898 1.049,-2.84353 0.15724,-5.74915 -0.62725,-2.04378 -0.84008,-4.01635 -0.47294,-4.38348 1.13528,-1.13529 1.7089,0.20415 2.26127,5.2802 0.45979,4.22526 0.18542,5.2911 -2.02992,7.88561 -1.8252,2.13761 -2.36778,2.42507 -1.88745,1 z m -47.4007,-21 c 0.84809,-1.65 2.41579,-5.84441 3.48379,-9.32092 l 1.94181,-6.32092 -2.59505,0.65131 c -3.45098,0.86614 -4.97799,2.23717 -6.59587,5.92207 -1.05237,2.39691 -1.36507,2.62473 -1.42879,1.04097 -0.20697,-5.14437 6.07395,-9.47251 13.74633,-9.47251 4.737,0 8.44898,2.05646 6.76023,3.74521 -0.38328,0.38328 -1.05518,0.11711 -1.49312,-0.59147 -0.57917,-0.93713 -1.72294,-1.05059 -4.19562,-0.41621 -3.1569,0.80993 -3.50639,1.31255 -4.89939,7.04616 -0.90966,3.74419 -2.43791,7.06785 -3.88315,8.44517 l -2.38314,2.27114 1.54197,-3 z m 14.73887,1.93856 c 0.008,-0.51621 0.70442,-2.91965 1.54759,-5.34097 1.06845,-3.06827 1.21557,-4.71988 0.48545,-5.45 -0.57618,-0.57618 -1.03328,-1.52009 -1.01579,-2.09759 0.0175,-0.5775 0.6925,-0.17649 1.5,0.89113 2.1086,2.78782 1.83968,8.24376 -0.5318,10.78924 -1.1,1.18072 -1.99345,1.7244 -1.98545,1.20819 z m -23.90549,-5.56494 c 0.44571,-2.81951 1.1172,-5.40701 1.4922,-5.75 0.375,-0.34299 0.39808,1.17638 0.0513,3.37638 -0.3468,2.2 -0.63549,4.7875 -0.64154,5.75 -0.006,0.9625 -0.3938,1.75 -0.86166,1.75 -0.46787,0 -0.48599,-2.30687 -0.0403,-5.12638 z m 30.39094,1.12638 c -0.34907,-0.56481 0.46994,-1 1.88197,-1 1.375,0 2.77811,0.45 3.11803,1 0.34907,0.56481 -0.46994,1 -1.88197,1 -1.375,0 -2.77811,-0.45 -3.11803,-1 z m -61.13935,-0.99023 c -3.20056,-1.29177 -5.78226,-8.91715 -4.98597,-14.7267 0.74391,-5.42745 4.61839,-11.86716 8.0922,-13.44994 5.03004,-2.29183 9.76741,1.08831 11.13934,7.94798 0.55306,2.76528 0.30386,3.30258 -1.92465,4.14986 -4.43723,1.68703 -5.03009,4.30772 -2.18499,9.65862 2.74702,5.16644 3.10958,6.41657 1.35085,4.65784 -0.87009,-0.87009 -1.76094,-0.67402 -3.63486,0.8 -2.66972,2.1 -4.48266,2.3222 -7.85192,0.96234 z m 8.16213,-4.04664 c 0.35729,-0.57809 -0.0642,-2.14046 -0.93658,-3.47192 -0.87241,-1.33147 -1.5862,-3.22877 -1.5862,-4.21625 0,-1.96289 4.45986,-7.27496 6.10786,-7.27496 1.32692,0 0.13778,-3.95087 -1.88113,-6.25 -3.43267,-3.90912 -9.91999,-0.23948 -12.29418,6.95436 -1.70096,5.15398 -0.69758,12.85241 2.05735,15.78489 2.12577,2.26278 2.46362,2.32758 5.08024,0.97448 1.54167,-0.79723 3.09536,-1.9225 3.45264,-2.5006 z m 55.72722,1.37459 c -2.0472,-0.82607 -1.41676,-2.19409 0.75,-1.62747 1.1,0.28766 2,0.92053 2,1.40638 0,0.95338 -0.77982,1.01607 -2.75,0.22109 z m 0,-6 c -0.6875,-0.27741 -1.25,-1.10417 -1.25,-1.83724 0,-0.73306 -1.35,-1.93041 -3,-2.66077 -3.65982,-1.62 -3.91215,-2.73674 -0.46969,-2.07867 1.39167,0.26604 2.96619,1.29816 3.49894,2.29361 0.53274,0.99544 1.87564,2.09777 2.98421,2.44962 1.10857,0.35185 1.75749,1.05732 1.44204,1.56773 -0.61809,1.0001 -1.25472,1.05287 -3.2055,0.26572 z m -31.65504,-4.33772 c -1.15954,-3.4862 -3.56858,-6 -5.74995,-6 -1.01475,0 -1.84501,-0.47989 -1.84501,-1.06642 0,-0.58654 1.193,-0.92404 2.6511,-0.75 3.29154,0.39286 6.65215,4.7221 6.15046,7.9232 l -0.37507,2.39322 -0.83153,-2.5 z m 19.65504,-2.66228 c -0.6875,-0.27741 -1.25,-1.39344 -1.25,-2.48007 0,-2.2577 1.49718,-1.66569 3.02981,1.19804 1.03523,1.93435 0.60494,2.2443 -1.77981,1.28203 z m -7.75,-1.33772 c 0.33992,-0.55 1.51803,-1 2.61803,-1 1.1,0 1.72189,0.45 1.38197,1 -0.33992,0.55 -1.51803,1 -2.61803,1 -1.1,0 -1.72189,-0.45 -1.38197,-1 z m 13.7099,-20.62562 c -0.98258,-1.8207 -0.69423,-2.65583 2.01013,-5.82187 3.21898,-3.76852 8.50357,-7.16224 9.53957,-6.12625 0.31555,0.31556 0.10529,0.57374 -0.46724,0.57374 -2.16004,0 -8.1521,6.63892 -9.02566,10 -0.86308,3.32078 -0.9684,3.39116 -2.0568,1.37438 z m 21.82449,-9.83295 c -0.66578,-0.80221 -3.08338,-1.87901 -5.37245,-2.3929 -3.92411,-0.88095 -3.97941,-0.94047 -0.9677,-1.04144 2.08365,-0.0699 4.16975,0.75113 6,2.36131 1.54317,1.35762 2.52336,2.48262 2.1782,2.5 -0.34515,0.0174 -1.17228,-0.62475 -1.83805,-1.42697 z"
       id="path3124"
       inkscape:connector-curvature="0" />
  </g>
</svg>
