<?xml version="1.0" encoding="UTF-8" standalone="no"?>
<!-- Created with Inkscape (http://www.inkscape.org/) -->

<svg
   xmlns:dc="http://purl.org/dc/elements/1.1/"
   xmlns:cc="http://creativecommons.org/ns#"
   xmlns:rdf="http://www.w3.org/1999/02/22-rdf-syntax-ns#"
   xmlns:svg="http://www.w3.org/2000/svg"
   xmlns="http://www.w3.org/2000/svg"
   xmlns:sodipodi="http://sodipodi.sourceforge.net/DTD/sodipodi-0.dtd"
   xmlns:inkscape="http://www.inkscape.org/namespaces/inkscape"
   width="106.64882"
   height="236.9651"
   id="svg2"
   version="1.1"
   inkscape:version="0.48.3.1 r9886"
   sodipodi:docname="Neues Dokument 1">
  <defs
     id="defs4" />
  <sodipodi:namedview
     id="base"
     pagecolor="#ffffff"
     bordercolor="#666666"
     borderopacity="1.0"
     inkscape:pageopacity="0.0"
     inkscape:pageshadow="2"
     inkscape:zoom="1.979899"
     inkscape:cx="27.609685"
     inkscape:cy="152.07549"
     inkscape:document-units="px"
     inkscape:current-layer="layer1"
     showgrid="false"
     fit-margin-top="0"
     fit-margin-left="0"
     fit-margin-right="0"
     fit-margin-bottom="0"
     inkscape:window-width="1855"
     inkscape:window-height="1056"
     inkscape:window-x="65"
     inkscape:window-y="24"
     inkscape:window-maximized="1" />
  <metadata
     id="metadata7">
    <rdf:RDF>
      <cc:Work
         rdf:about="">
        <dc:format>image/svg+xml</dc:format>
        <dc:type
           rdf:resource="http://purl.org/dc/dcmitype/StillImage" />
        <dc:title></dc:title>
      </cc:Work>
    </rdf:RDF>
  </metadata>
  <g
     inkscape:label="Ebene 1"
     inkscape:groupmode="layer"
     id="layer1"
     transform="translate(-631.70573,-664.79052)">
    <path
       style="fill:#000000"
       d="m 435.99927,900.87472 c -1.70817,-1.59567 -3.10576,-3.87525 -3.10576,-5.06574 0,-1.19049 -0.46954,-3.04188 -1.04342,-4.11418 -1.42914,-2.67037 -2.08495,-8.14249 -1.93845,-16.1745 0.0682,-3.73847 -0.81768,-10.88429 -1.98353,-16 l -2.10676,-9.24437 2.10031,-7 c 1.15517,-3.85 2.69052,-11.18161 3.41188,-16.29247 0.72137,-5.11086 1.59247,-9.57336 1.93577,-9.91667 1.41107,-1.41106 1.58956,0.70665 0.46879,5.56208 -1.14043,4.94059 -0.27087,14.26666 1.84411,19.77819 0.41928,1.09263 0.26193,1.45639 -0.44182,1.02145 -0.60116,-0.37153 -1.38838,-2.02035 -1.7494,-3.66405 -1.00292,-4.56626 -2.10577,-3.61513 -4.02365,3.47009 -1.83712,6.78686 -1.74133,8.80097 1.0237,21.524 0.99619,4.58387 1.38448,9.23983 1.00231,12.01852 -0.48003,3.49025 -0.0332,6.17323 1.93816,11.63837 1.4091,3.90635 2.562,7.82514 2.562,8.70842 0,0.88328 1.0906,2.32055 2.42356,3.19394 3.06513,2.00835 10.07644,1.63131 10.07644,-0.54187 0,-1.16636 -1.16774,-1.45883 -5.25,-1.31491 -6.82332,0.24057 -6.8505,-1.38412 -0.0308,-1.84406 4.04148,-0.27256 5.55831,0.0441 6.72224,1.40349 1.75183,2.04598 4.05861,2.32069 4.05861,0.48332 0,-0.69968 -1.26664,-2.83718 -2.81475,-4.75 -1.54812,-1.91281 -4.50981,-6.54156 -6.58153,-10.2861 -4.94334,-8.93487 -5.85238,-18.10935 -2.68499,-27.09829 2.18872,-6.21149 2.91677,-15.82895 1.05753,-13.96971 -0.56306,0.56306 -1.44946,3.63946 -1.96978,6.83645 -1.18298,7.26851 -2.00648,8.24365 -2.00648,2.37595 0,-2.79591 0.93208,-6.33827 2.46388,-9.36397 1.35514,-2.67673 2.7652,-6.2387 3.13348,-7.91547 0.66296,-3.01843 1.60232,-5.3565 6.04927,-15.0567 1.2607,-2.75 2.57305,-6.81607 2.91632,-9.03571 0.57164,-3.69626 0.43622,-4.03572 -1.60997,-4.03572 -1.56315,0 -2.63138,0.95083 -3.55696,3.16604 -1.60526,3.84194 -6.80183,8.40539 -9.57154,8.40539 -2.7303,0 -7.41372,-5.19619 -8.19234,-9.0893 -0.34768,-1.73838 -0.62226,-5.01695 -0.61018,-7.2857 0.038,-7.14107 5.60003,-16.64007 9.72804,-16.61391 1.27908,0.008 0.87011,0.70452 -1.51982,2.58799 -4.68607,3.69302 -6.5616,7.92042 -6.61097,14.90092 -0.0731,10.33766 4.97978,15.95845 10.87415,12.09631 4.65026,-3.04697 6.00664,-6.37392 6.00664,-14.73316 0,-7.2072 -0.20162,-7.94153 -3,-10.92641 -1.65,-1.75997 -2.35238,-2.99985 -1.56085,-2.75529 3.17648,0.98143 5.46336,5.77609 5.88064,12.32932 0.42561,6.68416 1.24784,7.64779 4.4704,5.23923 1.47979,-1.106 2.40538,-3.7241 2.6355,-7.45469 0.0409,-0.66257 1.66519,-1.50314 3.6096,-1.86791 2.60164,-0.48807 3.96469,-1.49039 5.1612,-3.79531 0.93627,-1.80359 1.80949,-2.5883 2.05872,-1.85005 0.64961,1.9242 -2.54296,6.21796 -4.62328,6.21796 -2.23017,0 -5.13193,3.04016 -5.13193,5.37671 0,0.94557 1.10402,2.71014 2.45338,3.92126 3.10424,2.78622 7.54662,11.25293 7.54662,14.38309 0,1.31075 0.675,3.99868 1.5,5.97318 0.825,1.97451 1.46447,4.54755 1.42105,5.71788 -0.0434,1.17034 -0.30592,1.56538 -0.58333,0.87788 -0.27741,-0.6875 -0.98151,-1.25 -1.56465,-1.25 -1.71798,0 -0.0535,13.11176 2.3559,18.55866 1.90876,4.31506 2.059,5.82306 1.38391,13.89094 -0.41652,4.97772 -0.81481,10.8504 -0.88509,13.0504 l -0.12779,4 7.5,0.50849 c 4.125,0.27966 8.4,0.98916 9.5,1.57666 2.85771,1.52627 8.45984,1.67413 11.75268,0.31018 4.19612,-1.73808 3.19997,-3.27898 -3.77536,-5.8399 -1.66247,-0.61036 -5.67736,-4.07778 -8.92198,-7.70536 l -5.89931,-6.59562 -0.90843,-13.62722 c -0.49964,-7.49498 -0.9695,-14.75223 -1.04413,-16.12723 -0.0746,-1.375 0.18897,-5.65 0.58577,-9.5 0.91888,-8.91535 -0.13953,-10.94815 -3.60352,-6.92101 -2.46689,2.86792 -2.52124,2.87984 -4.59108,1.00666 -1.15205,-1.0426 -2.09464,-2.60101 -2.09464,-3.46314 0,-1.14286 0.42173,-0.96542 1.5567,0.65498 2.14467,3.06194 4.05272,2.78169 5.29346,-0.77749 0.57519,-1.65 1.51921,-3 2.09782,-3 1.14952,0 1.39281,-5.04607 0.46657,-9.67724 l -0.58545,-2.92724 -5.55547,2.80224 c -6.14323,3.09871 -8.60026,3.38163 -12.17298,1.40169 -2.20267,-1.22068 -1.91576,-1.32024 3.5,-1.21456 5.22488,0.10195 6.47412,-0.28729 10.92667,-3.40453 4.69607,-3.28772 4.95184,-3.68307 3.88175,-6 -3.18294,-6.89157 -5.66599,-15.92709 -5.50723,-20.04015 0.12886,-3.33855 -0.32354,-5.01187 -1.68913,-6.24771 -1.73028,-1.56589 -2.25376,-1.57251 -7.24049,-0.0916 -6.18665,1.83724 -18.55249,1.17692 -23.23731,-1.24084 -2.6368,-1.36081 -2.93232,-1.26461 -6.36959,2.07363 -3.37774,3.28041 -4.07668,6.56631 -1.39671,6.56631 1.34104,0 1.33606,13.00031 -0.006,15 -0.69212,1.03147 -0.80493,-0.99885 -0.36116,-6.5 0.54564,-6.76394 0.43313,-7.79874 -0.72818,-6.69742 -0.92353,0.87583 -1.37352,3.7262 -1.37352,8.70021 0,4.49073 -0.36068,7.03687 -0.91789,6.47953 -1.12336,-1.12362 -1.19287,-9.97834 -0.12299,-15.66852 1.08734,-5.783 -0.14918,-13.64671 -2.03223,-12.92412 -1.80163,0.69135 -1.78648,0.36965 0.19644,-4.1718 1.86894,-4.28039 2.72999,-18.68917 1.27888,-21.4006 -0.65559,-1.22508 -0.62713,-1.81728 0.0874,-1.81728 0.58296,0 1.42591,1.0125 1.87322,2.25 1.0397,2.8764 0.56445,14.88489 -0.75408,19.05382 -0.72465,2.29118 -0.64844,4.57658 0.26917,8.07135 l 1.28005,4.87516 2.17104,-2.76002 c 2.84372,-3.61522 2.92472,-11.09262 0.17847,-16.47573 -1.52988,-2.99882 -1.70404,-4.08699 -0.75,-4.6863 1.94639,-1.2227 7.62571,-1.32636 8.35124,-0.15243 0.43399,0.70221 -0.73817,0.92651 -3.47699,0.66532 -2.27243,-0.21671 -4.13169,-0.32459 -4.13169,-0.23972 0,0.0849 0.675,1.7698 1.5,3.74431 0.825,1.9745 1.50689,5.29196 1.51531,7.37212 0.008,2.08017 0.34592,4.25767 0.75,4.83889 2.65345,3.81673 21.51928,5.25143 28.53814,2.17027 l 3.80346,-1.66966 -0.21343,-5.9143 -0.21342,-5.9143 -3.09003,0.35935 c -2.85002,0.33144 -7.00094,1.32613 -12.15989,2.91388 -1.21149,0.37286 -2.52377,0.0898 -3.16445,-0.68249 -0.88059,-1.06155 -0.0201,-1.36673 4.40161,-1.56102 6.61151,-0.29051 7.3327,-0.66597 7.3327,-3.81752 0,-1.34254 0.45,-2.44098 1,-2.44098 0.55,0 1,0.9 1,2 0,3.02822 3.29442,2.46446 5.28439,-0.90429 1.88031,-3.18312 2.16135,-8.46884 0.76929,-14.46884 -0.89412,-3.85382 0.27154,-8.62687 2.10684,-8.62687 1.21461,0 1.03076,2.40872 -0.28422,3.7237 -0.8316,0.8316 -0.79288,2.78807 0.14897,7.52649 1.13086,5.68935 1.07393,6.92319 -0.5109,11.07302 -2.27466,5.95611 -1.71509,17.69253 0.98584,20.67702 1.33352,1.47353 1.61224,2.89509 1.14298,5.82966 -0.46246,2.89209 0.0135,5.44148 1.86811,10.00565 1.36879,3.3686 2.4887,7.00152 2.4887,8.07316 0,1.07164 0.675,2.62344 1.5,3.44844 1.83922,1.83923 1.91074,3.28799 0.21439,4.34317 -0.99882,0.6213 -1.10427,3.03044 -0.4727,10.79969 0.44709,5.5 0.74969,11.35 0.67243,13 -0.29869,6.37958 -0.0522,15.52706 0.76832,28.51677 l 0.85384,13.51676 6.76646,6.73324 c 4.43745,4.41565 7.56171,6.73323 9.07688,6.73323 2.7962,0 5.88588,3.14455 5.10053,5.19113 -0.31244,0.81421 -2.14307,2.23144 -4.06808,3.14941 -3.81727,1.82033 -9.81596,1.43666 -14.51309,-0.92826 -1.43056,-0.72025 -5.07232,-1.22017 -8.09281,-1.11092 -9.03439,0.32678 -10.38592,-2.41622 -7.21669,-14.64669 1.87703,-7.24369 1.34242,-11.97478 -2.20057,-19.47402 -2.18904,-4.63341 -2.48522,-6.50321 -2.29677,-14.5 0.25033,-10.62294 -1.37107,-18.51217 -4.96961,-24.18065 -1.39664,-2.2 -2.60615,-4.12309 -2.68781,-4.27354 -0.0816,-0.15044 -0.82764,-0.0129 -1.65775,0.30563 -1.01535,0.38963 -1.68493,2.51631 -2.04602,6.49838 -0.31195,3.44031 -1.41451,7.33948 -2.63272,9.31059 -3.68101,5.956 -6.09823,15.33717 -6.09823,23.66709 0,5.0093 -0.58827,9.11616 -1.66442,11.61973 -1.1116,2.58604 -1.69284,6.86137 -1.75,12.87212 -0.0835,8.78244 0.01,9.15713 3.86495,15.5 2.1728,3.575 4.45428,6.95 5.06997,7.5 2.22374,1.98648 4.61988,6.69178 4.099,8.04919 -0.79461,2.07071 -7.28433,4.45081 -12.13587,4.45081 -3.33414,0 -4.95402,-0.63699 -7.37787,-2.90121 z m -2.10576,-19.38613 c 0,-1.21252 3.27469,-6.71266 3.9966,-6.71266 0.98792,0 -1.67005,5.68015 -3.05992,6.53914 -0.51518,0.31839 -0.93668,0.39647 -0.93668,0.17352 z m 40.60699,-10.29445 c -0.86706,-2.25952 -0.74939,-4.41821 0.24083,-4.41821 0.4663,0 0.8862,1.35 0.93312,3 0.0951,3.34467 -0.26689,3.78197 -1.17395,1.41821 z m -33.60699,-41.41821 c 0,-0.55 0.675,-1 1.5,-1 0.825,0 1.5,0.45 1.5,1 0,0.55 -0.675,1 -1.5,1 -0.825,0 -1.5,-0.45 -1.5,-1 z m -2.7794,-7.94089 c 0.21071,-1.84078 1.11517,-2.65637 3.67879,-3.31731 3.54824,-0.91478 5.0869,0.077 5.05489,3.2582 -0.0124,1.22803 -0.19047,1.19956 -0.98233,-0.157 -1.13246,-1.94004 -4.7728,-1.35742 -6.75135,1.08053 -1.11303,1.37147 -1.24307,1.25906 -1,-0.86442 z m -26.65583,-13.58373 c -3.35065,-3.6154 -4.8319,-10.32118 -3.54668,-16.05612 1.24889,-5.5728 3.35182,-9.83599 5.7262,-11.60856 1.52346,-1.13732 1.75486,-3.0965 1.74927,-14.8107 -0.004,-8.91399 -0.42889,-14.242 -1.25,-15.68426 -1.53422,-2.69479 -1.60991,-12.45602 -0.13771,-17.75868 0.60209,-2.16861 1.16359,-6.37137 1.24779,-9.33947 0.1328,-4.68161 0.55007,-5.72602 3.14972,-7.88356 1.64815,-1.36786 5.20176,-4.5901 7.89691,-7.16053 2.69516,-2.57042 6.29516,-5.34968 8,-6.17612 2.53245,-1.22762 3.26553,-2.36001 4.00566,-6.18754 0.72237,-3.73565 0.58034,-5.18185 -0.70096,-7.13736 -2.51474,-3.83798 -3.21577,-11.78402 -1.35679,-15.37889 4.68154,-9.05311 21.58484,-8.02625 23.18899,1.40871 0.35513,2.08874 1.0088,5.2259 1.45261,6.97148 0.49924,1.96364 0.27418,5.96723 -0.59025,10.5 -0.76845,4.02942 -1.3977,7.43872 -1.39835,7.57622 -6.5e-4,0.1375 1.57382,0.25 3.49882,0.25 1.925,0 3.5,0.50109 3.5,1.11354 0,0.75307 -1.45676,0.89509 -4.5,0.43873 -2.78895,-0.41823 -4.5,-0.29372 -4.5,0.32744 0,1.77063 1.77831,2.18001 5.68595,1.30895 2.6406,-0.58863 4.81396,-0.43989 7.06405,0.48343 1.7875,0.73351 3.24942,1.44485 3.24871,1.58078 -7.1e-4,0.13592 -3.55789,0.24713 -7.90483,0.24713 -4.34695,0 -7.69481,-0.3375 -7.4397,-0.75 0.25512,-0.4125 -0.0127,-0.75 -0.59516,-0.75 -0.58246,0 -1.05902,-0.9 -1.05902,-2 0,-1.43928 -0.66667,-2 -2.37788,-2 -4.15657,0 -9.05732,-2.72375 -11.09537,-6.16661 l -1.97324,-3.33339 -0.70209,4.80757 c -0.72708,4.97866 -2.23618,7.69243 -4.2777,7.69243 -1.48073,0 -7.80594,6.43444 -7.05924,7.18115 0.30231,0.3023 -0.7557,1.09034 -2.35113,1.75119 -1.59543,0.66085 -4.37351,2.72101 -6.17351,4.57814 -3.1692,3.26979 -3.25618,3.58275 -2.7496,9.89362 0.3464,4.3154 0.16505,6.44589 -0.53681,6.30646 -1.36275,-0.27072 -2.92597,7.82427 -2.31506,11.98835 0.25812,1.7594 1.21508,4.77051 2.12658,6.69136 1.39326,2.93606 1.49623,4.57716 0.64635,10.30109 -0.64255,4.32754 -0.67329,8.63066 -0.0844,11.80864 0.50961,2.75 1.37504,8.825 1.92318,13.5 2.11999,18.08131 2.2345,18.39692 7.02231,19.35449 1.63766,0.32753 2.97757,1.09251 2.97757,1.69997 0,1.24727 -5.73262,0.33149 -7.66896,-1.22512 -1.48338,-1.19247 -3.83799,-14.14688 -3.45785,-19.02413 0.15839,-2.03213 -0.14496,-4.46841 -0.67411,-5.41395 -0.8754,-1.56427 -1.19175,-1.4895 -3.51109,0.82984 -7.1637,7.1637 -5.34691,24.63955 2.66091,25.59532 3.38963,0.40457 3.47383,2.18358 0.10335,2.18358 -1.43971,0 -3.56532,-1.09798 -4.88748,-2.52462 z m 46.16218,-112.1819 c 1.36328,-2.08102 1.75916,-4.68098 1.71296,-11.25 -0.0851,-12.09627 -2.56041,-16.04348 -10.061,-16.04348 -5.90325,0 -10.20747,2.34544 -11.94775,6.51052 -1.39857,3.34724 -1.0621,6.48948 0.69488,6.48948 0.50164,0 0.64245,1.07424 0.31292,2.3872 -0.44098,1.75698 -0.0196,2.79312 1.59612,3.92482 1.2074,0.84569 3.00654,2.87165 3.9981,4.50214 1.13628,1.86847 3.40445,3.53081 6.13482,4.49623 5.7682,2.03953 5.53621,2.07074 7.55895,-1.01691 z m -35.648,92.12319 c 0.048,-1.16495 0.28494,-1.4019 0.60416,-0.60417 0.28887,0.72187 0.25335,1.58437 -0.079,1.91667 -0.33229,0.33229 -0.56864,-0.25834 -0.52522,-1.3125 z m 5.15305,-3.41667 c 0,-1.925 0.2058,-2.7125 0.45733,-1.75 0.25152,0.9625 0.25152,2.5375 0,3.5 -0.25153,0.9625 -0.45733,0.175 -0.45733,-1.75 z m 23.75632,0.0389 c 1.91857,-0.4861 6.64357,-1.19516 10.5,-1.57567 3.85642,-0.38052 7.79918,-1.10625 8.76168,-1.61274 1.11207,-0.5852 1.75,-0.55759 1.75,0.0757 0,1.46882 -6.36408,2.8435 -16,3.45611 -5.94091,0.37769 -7.44977,0.27429 -5.01168,-0.34344 z m 4.01168,-3.07408 c 0,-0.70582 7.42219,-4.57536 12,-6.25618 3.44824,-1.26607 -4.29466,-0.59177 -10.00588,0.87138 -3.39208,0.86901 -6.39781,1.34962 -6.6794,1.06803 -0.71087,-0.71087 8.89774,-3.47469 14.8037,-4.25815 4.11773,-0.54623 4.88158,-0.39142 4.88158,0.98937 0,0.97682 -1.61591,2.28348 -4.00711,3.24025 -2.20392,0.88183 -5.57892,2.40468 -7.5,3.38411 -1.92109,0.97942 -3.49289,1.41196 -3.49289,0.96119 z m -17,-3.78448 c 0,-0.51574 1.31747,-1.48341 2.92771,-2.15039 5.99009,-2.48118 7.76209,-7.09329 3.18513,-8.29019 -1.64045,-0.42899 -2.30504,0.14978 -3.28552,2.86124 -1.11747,3.0903 -2.82732,4.63404 -2.82732,2.55264 0,-1.38322 3.08931,-7.15364 3.82984,-7.15364 0.37585,0 2.25539,0.48688 4.17676,1.08195 4.93296,1.5278 15.90564,1.28297 20.98878,-0.46831 3.23265,-1.11374 3.95405,-1.15826 2.90309,-0.17917 -2.37327,2.21097 -7.90813,3.56553 -14.56913,3.56553 -5.79321,0 -6.47372,0.22278 -7.48934,2.45181 -0.61441,1.34849 -2.74226,3.20818 -4.72856,4.13263 -1.98629,0.92445 -3.94894,1.87269 -4.36144,2.1072 -0.4125,0.23452 -0.75,0.004 -0.75,-0.5113 z m 16.65266,-17.23892 c -1.45896,-1.14762 -2.65266,-2.76353 -2.65266,-3.59092 0,-0.99372 1.05965,-0.44469 3.12179,1.61745 3.66774,3.66774 3.35536,4.98182 -0.46913,1.97347 z m 8.34734,-4.31898 c 0,-0.20765 0.6853,-0.9463 1.52289,-1.64144 1.27335,-1.05678 1.41968,-0.99492 0.89301,0.37756 -0.53789,1.40173 -2.4159,2.38422 -2.4159,1.26388 z m -10.5,-2.62244 c -0.33992,-0.55 -0.14148,-1 0.44098,-1 0.58246,0 1.05902,0.45 1.05902,1 0,0.55 -0.19844,1 -0.44098,1 -0.24254,0 -0.7191,-0.45 -1.05902,-1 z m -11.0573,-3.41824 c -2.90688,-2.12556 -1.08044,-2.96291 2.46437,-1.12982 1.70111,0.87968 3.09293,1.81286 3.09293,2.07374 0,1.02825 -3.7256,0.39545 -5.5573,-0.94392 z m 37.8073,-1.68114 c -2.87662,-2.03746 -4.22813,-3.71958 -4.18232,-5.20541 0.0657,-2.1311 0.0962,-2.1368 1.04452,-0.19521 1.20352,2.46411 7.21241,6.5 9.67761,6.5 4.47968,0 11.59029,-11.11233 13.30441,-20.79189 1.92514,-10.87112 2.47561,-11.85673 6.36824,-11.40228 3.02188,0.35278 3.68965,-0.007 5.4854,-2.95207 4.15702,-6.81856 1.83846,-18.35542 -4.3327,-21.55901 -1.79664,-0.93267 -2.57252,-1.80034 -1.83312,-2.04996 1.659,-0.56008 5.84705,2.19365 7.21031,4.74091 1.93875,3.6226 2.78612,10.91616 1.80351,15.52332 -1.09868,5.15137 -4.96437,8.88308 -8.50154,8.20691 -2.51461,-0.4807 -2.65232,-0.19827 -4.23127,8.67825 -1.44825,8.14174 -5.23941,15.95158 -9.75796,20.10156 -4.61746,4.24081 -6.54774,4.30564 -12.05509,0.40488 z m -62.5,-1.47135 c -0.4125,-0.41943 -0.75,-2.1276 -0.75,-3.79594 0,-2.16885 0.30727,-2.72606 1.07818,-1.95515 0.59299,0.593 0.9305,2.30117 0.75,3.79594 -0.1805,1.49477 -0.66568,2.37459 -1.07818,1.95515 z m 29.25,-0.42927 c 0,-0.55 1.15156,-1 2.55902,-1 1.45136,0 2.2915,0.43284 1.94098,1 -0.33992,0.55 -1.49148,1 -2.55902,1 -1.06754,0 -1.94098,-0.45 -1.94098,-1 z m 4.25,-4.07854 c -1.2375,-0.47135 -2.25,-1.32533 -2.25,-1.89771 0,-0.68613 0.61955,-0.65378 1.81844,0.0949 1.47148,0.91895 2.61249,0.63436 5.98013,-1.49153 2.28893,-1.4449 4.84563,-2.62712 5.68156,-2.62712 0.89926,0 1.51987,-0.89833 1.51987,-2.2 0,-1.51322 0.32241,-1.87759 1.03278,-1.16722 1.73063,1.73063 0.10459,3.92399 -4.32267,5.83087 -2.31556,0.99733 -4.88511,2.37617 -5.71011,3.06408 -0.98926,0.82488 -2.26611,0.95894 -3.75,0.39373 z m 27.75,-2.33835 c 0,-0.47405 1.2918,-2.96136 2.87067,-5.52734 4.25355,-6.9129 4.75515,-9.05577 2.11979,-9.05577 -3.14794,0 -7.65549,-5.04231 -9.01244,-10.08164 -2.15312,-7.99607 0.76003,-17.8347 5.55964,-18.77667 1.36997,-0.26887 1.14323,0.23038 -0.90833,2 -2.86613,2.47225 -4.87559,8.67747 -4.083,12.60831 0.24952,1.2375 0.66781,3.29757 0.92954,4.57794 0.76071,3.7214 5.04574,7.67206 8.32139,7.67206 5.58004,0 8.7077,-6.91495 7.07662,-15.64572 -0.89702,-4.80147 -4.95182,-10.35428 -7.56097,-10.35428 -0.7221,0 -1.31291,-0.45 -1.31291,-1 0,-2.42658 5.68694,0.75739 7.98015,4.46788 4.28844,6.93884 3.80058,16.43439 -1.13307,22.0535 -1.67984,1.91324 -2.59026,3.47862 -2.02315,3.47862 0.56711,0 2.18374,-1.4625 3.5925,-3.25 1.9793,-2.51142 2.56391,-2.83263 2.57248,-1.41345 0.006,1.01011 -2.61413,4.61011 -5.82273,8 -3.2086,3.3899 -6.5836,7.27608 -7.5,8.63596 -0.9164,1.35987 -1.66618,2.08464 -1.66618,1.6106 z m -41.37543,-2.06687 c -2.21229,-1.67525 -1.50292,-4.55239 1.09404,-4.43729 1.04763,0.0464 1.26651,0.2867 0.53139,0.58333 -0.6875,0.27741 -1.25,1.19814 -1.25,2.04605 0,1.17515 0.70402,1.40087 2.96123,0.94942 3.47595,-0.69519 5.06168,0.83468 1.77752,1.71491 -2.94438,0.78916 -2.94012,0.78987 -5.11418,-0.85642 z m 32.87543,-0.50338 c -1.1,-0.40485 -2.5625,-0.52522 -3.25,-0.26749 -0.6875,0.25774 -1.25,-0.0295 -1.25,-0.63838 0,-1.41825 5.66793,-1.4533 6.54112,-0.0405 0.92801,1.50155 0.28167,1.80122 -2.04112,0.94633 z m -17.25,-2.40491 c 0.9625,-0.73064 1.75,-1.77158 1.75,-2.3132 0,-1.51174 3.91593,-4.71215 4.7478,-3.88028 0.40455,0.40454 -0.0482,1.17415 -1.00613,1.71022 -0.95792,0.53608 -1.74167,1.6115 -1.74167,2.38982 0,0.77832 -0.87042,1.88095 -1.93426,2.45031 -2.72872,1.46036 -3.90508,1.22917 -1.81574,-0.35687 z m -29.25,-1.39948 c 0,-1.04177 2.16097,-3.20847 3.2,-3.20847 1.4734,0 0.82042,1.50615 -1.2,2.76793 -1.1,0.68696 -2,0.88521 -2,0.44054 z m 71.05763,-0.95847 c 0.0317,-0.9625 0.42995,-3.55 0.885,-5.75 0.81853,-3.95723 0.8286,-3.93852 0.94237,1.75 0.0649,3.24333 -0.32094,5.75 -0.885,5.75 -0.55,0 -0.97407,-0.7875 -0.94237,-1.75 z m -55.3255,-2.78605 c -2.05267,-1.39483 -3.73213,-2.96983 -3.73213,-3.5 0,-1.47722 0.84737,-1.18215 4.41111,1.53605 3.96092,3.02114 6.92808,3.16495 10.31602,0.5 1.39842,-1.1 3.36607,-2 4.37254,-2 2.65658,0 4.13466,-3.52691 3.48886,-8.32486 l -0.56197,-4.17514 1.46402,3 c 2.49429,5.11115 0.5114,9.90138 -4.55968,11.01518 -1.61199,0.35405 -2.9309,0.98574 -2.9309,1.40376 0,0.99492 -4.61428,3.08106 -6.81492,3.08106 -0.94644,0 -3.40027,-1.14122 -5.45295,-2.53605 z m 25.26787,-0.55757 c 0,-0.49851 0.9,-0.90638 2,-0.90638 1.1,0 2,0.17252 2,0.38337 0,0.21085 -0.9,0.61872 -2,0.90638 -1.1,0.28766 -2,0.11514 -2,-0.38337 z m -2.37177,-4.18412 c -1.67243,-1.22723 -1.32638,-1.36545 3.2493,-1.29788 2.81659,0.0416 5.12139,0.41312 5.12177,0.82562 3.9e-4,0.4125 -0.5618,0.75614 -1.2493,0.76365 -0.6875,0.008 -2.15,0.25406 -3.25,0.54789 -1.1,0.29383 -2.8423,-0.0838 -3.87177,-0.83928 z m -30.62823,-1.68833 c 0,-1.64983 3.32575,-8.03393 4.18521,-8.03393 1.18983,0 1.03466,0.64869 -1.20553,5.03984 -1.98881,3.89838 -2.97968,4.89404 -2.97968,2.99409 z m 70,-17.03393 c -1.26918,-5.29053 -2.88962,-6.19981 -7.06574,-3.96482 -1.33333,0.71358 -1.93426,0.71358 -1.93426,0 0,-0.56935 0.61386,-1.03518 1.36414,-1.03518 0.75028,0 2.13946,-2.03014 3.08707,-4.51141 0.94761,-2.48128 2.55416,-4.95628 3.57011,-5.5 3.16054,-1.69147 3.59446,-1.07937 0.89776,1.26638 -1.4195,1.23477 -3.08472,3.45479 -3.70047,4.93339 -1.03683,2.4897 -0.9277,2.71138 1.47689,3 2.1181,0.25423 2.84311,1.14068 3.93529,4.81164 1.59616,5.36487 1.64581,6 0.46895,6 -0.49514,0 -1.44003,-2.25 -2.09974,-5 z m -50,1.96021 c -0.825,-0.55504 -4.2,-0.79077 -7.5,-0.52384 -5.51176,0.44583 -5.69485,0.39905 -2.25,-0.57487 3.88061,-1.0971 4.53509,-2.52603 2.71482,-5.92724 -0.59561,-1.11291 -0.64104,-1.93426 -0.10699,-1.93426 1.11432,0 2.14217,2.43833 2.14217,5.08179 0,1.86611 1.56596,2.29643 8.25,2.26709 2.18114,-0.01 2.28335,1.23248 0.16821,2.04413 -1.92823,0.73993 -1.6164,0.77941 -3.41821,-0.4328 z"
       id="path3009"
       inkscape:connector-curvature="0" />
    <path
       style="fill:#000000"
       d="m 660.32005,898.81809 c -1.70817,-1.59567 -3.10576,-3.87525 -3.10576,-5.06574 0,-1.19049 -0.46954,-3.04188 -1.04342,-4.11418 -1.42914,-2.67037 -2.08495,-8.14249 -1.93845,-16.1745 0.0682,-3.73847 -0.81768,-10.88429 -1.98353,-16 l -2.10676,-9.24437 2.11303,-7 c 1.16217,-3.85 2.53024,-10.15 3.04016,-14 0.50992,-3.85 1.37529,-8.03367 1.92305,-9.29705 0.54775,-1.26338 0.99592,-5.63676 0.99592,-9.71862 0,-6.13418 -0.25617,-7.32326 -1.47676,-6.85488 -2.4605,0.94419 -4.05802,-3.86006 -2.24643,-6.75571 1.92052,-3.06974 3.07899,-11.16223 3.15923,-22.06864 0.0408,-5.54105 0.51736,-9.15016 1.31396,-9.95 2.26888,-2.27814 1.3183,-4.35012 -4.75131,-10.35639 -6.76848,-6.69786 -8.45189,-10.35689 -10.12096,-21.99871 -2.03901,-14.22217 -1.75297,-15.46307 5.658,-24.54516 2.24176,-2.74726 8.46427,-6.5556 8.46427,-5.18036 0,0.48816 -1.19952,1.5261 -2.6656,2.30654 -3.58167,1.90663 -11.3344,12.70576 -11.3344,15.78821 0,1.35798 1.35,4.86112 3,7.78476 3.51475,6.22779 3.7416,7.32712 1,4.84601 -2.48128,-2.24553 -2.4975,-1.27667 -0.10719,6.40341 1.37356,4.41328 3.29382,7.61453 7,11.66968 2.80895,3.07345 5.10719,5.96335 5.10719,6.422 0,1.40372 9.2106,6.07316 10.90723,5.52957 1.95609,-0.62672 6.47925,-7.78312 7.91614,-12.52466 0.58336,-1.925 1.37228,-6.65 1.75317,-10.5 0.99929,-10.10087 2.40617,-12.49384 1.76377,-3 -0.71193,10.52125 -1.88685,14.90966 -5.69042,21.25405 -3.49716,5.8333 -6.03693,7.07654 -11.21185,5.48831 -6.18413,-1.89796 -7.46456,0.68985 -6.06504,12.25764 0.58491,4.8346 -1.04647,14.35215 -3.56626,20.80563 -0.81423,2.08535 -0.79327,3.10784 0.0816,3.98276 0.90282,0.90282 1.31317,0.65684 1.761,-1.05564 0.78654,-3.00776 2.35061,-2.83887 2.35061,0.25383 0,4.62893 9.55746,6.97864 16.53212,4.06445 1.90733,-0.79694 3.52413,-2.14694 3.59288,-3 0.0687,-0.85307 0.2375,-2.00103 0.375,-2.55103 0.1375,-0.55 0.30625,-1.65461 0.375,-2.45469 0.0715,-0.8321 1.63804,-1.73853 3.66029,-2.11791 2.60164,-0.48807 3.96469,-1.49039 5.1612,-3.79531 0.93627,-1.80359 1.80949,-2.5883 2.05872,-1.85005 0.64961,1.9242 -2.54296,6.21796 -4.62328,6.21796 -2.23017,0 -5.13193,3.04016 -5.13193,5.37671 0,0.94557 1.10402,2.71014 2.45338,3.92126 3.19037,2.86352 7.54492,11.28169 7.55278,14.60097 0.003,1.43058 0.67839,3.89 1.5,5.46537 0.82161,1.57537 1.45831,4.05037 1.41489,5.5 -0.0434,1.44963 -0.30592,2.07319 -0.58333,1.38569 -0.27741,-0.6875 -0.98151,-1.25 -1.56465,-1.25 -1.71798,0 -0.0535,13.11176 2.3559,18.55866 1.90876,4.31506 2.059,5.82306 1.38391,13.89094 -0.41652,4.97772 -0.81481,10.8504 -0.88509,13.0504 l -0.12779,4 7.5,0.50849 c 4.125,0.27966 8.4,0.98916 9.5,1.57666 2.85771,1.52627 8.45984,1.67413 11.75268,0.31018 4.19612,-1.73808 3.19997,-3.27898 -3.77536,-5.8399 -1.66247,-0.61036 -5.67736,-4.07778 -8.92198,-7.70536 l -5.89931,-6.59562 -0.90843,-13.62722 c -0.49964,-7.49498 -0.9695,-14.75223 -1.04413,-16.12723 -0.0746,-1.375 0.18897,-5.65 0.58577,-9.5 0.91888,-8.91535 -0.13953,-10.94815 -3.60352,-6.92101 -2.46689,2.86792 -2.52124,2.87984 -4.59108,1.00666 -1.15205,-1.0426 -2.09464,-2.60101 -2.09464,-3.46314 0,-1.14286 0.42173,-0.96542 1.5567,0.65498 2.14467,3.06194 4.05272,2.78169 5.29346,-0.77749 0.57519,-1.65 1.51921,-3 2.09782,-3 1.14952,0 1.39281,-5.04607 0.46657,-9.67724 l -0.58545,-2.92724 -5.55547,2.80224 c -6.14323,3.09871 -8.60026,3.38163 -12.17298,1.40169 -2.20267,-1.22068 -1.91576,-1.32024 3.5,-1.21456 5.22488,0.10195 6.47412,-0.28729 10.92667,-3.40453 4.69607,-3.28772 4.95184,-3.68307 3.88175,-6 -3.18294,-6.89157 -5.66599,-15.92709 -5.50723,-20.04015 0.12886,-3.33855 -0.32354,-5.01187 -1.68913,-6.24771 -1.71995,-1.55654 -2.27207,-1.56707 -7.09316,-0.13536 -5.54376,1.64632 -13.24589,1.6144 -13.78906,-0.0571 -0.19086,-0.58736 2.25294,-1.04419 5.92228,-1.10709 3.43598,-0.0589 7.95878,-0.83349 10.05068,-1.72131 l 3.80346,-1.61422 -0.21343,-5.9143 -0.21342,-5.9143 -3.09003,0.3487 c -1.69952,0.19178 -4.21503,0.603 -5.59003,0.91382 -2.402,0.54296 -2.4118,0.52607 -0.25,-0.43087 1.47875,-0.65458 2.25,-1.86397 2.25,-3.52821 0,-1.39272 0.45,-2.53222 1,-2.53222 0.55,0 1,0.9 1,2 0,3.08711 3.31067,2.43696 5.37357,-1.05526 1.53456,-2.59781 1.71019,-4.43198 1.17299,-12.25 -0.71113,-10.34923 0.057,-12.89526 2.93205,-9.71837 1.78467,1.97199 1.77641,2.02359 -0.32362,2.02359 -2.48563,0 -2.77399,2.60295 -1.09511,9.88528 0.79973,3.46892 0.66406,5.42978 -0.64924,9.38377 -2.06305,6.21126 -1.52179,17.84566 0.95768,20.58545 0.89743,0.99164 1.63168,2.87005 1.63168,4.17424 0,1.84431 0.26667,2.10459 1.2,1.17126 0.66,-0.66 1.88513,-1.2 2.72251,-1.2 0.99982,0 0.67368,0.59812 -0.95,1.74223 -1.35988,0.95823 -2.86604,1.61455 -3.34702,1.4585 -1.36576,-0.44312 1.71057,10.09343 5.99035,20.51719 1.0665,2.59755 1.07579,3.3687 0.0482,4 -0.98926,0.60777 -1.07952,3.01087 -0.40499,10.78208 0.47739,5.5 0.78847,11.35 0.69128,13 -0.34751,5.89997 -0.1085,15.21 0.73208,28.51677 l 0.85384,13.51676 6.76646,6.73324 c 4.43745,4.41565 7.56171,6.73323 9.07688,6.73323 2.7962,0 5.88588,3.14455 5.10053,5.19113 -0.31244,0.81421 -2.14307,2.23144 -4.06808,3.14941 -3.81727,1.82033 -9.81596,1.43666 -14.51309,-0.92826 -1.43056,-0.72025 -5.07232,-1.22017 -8.09281,-1.11092 -9.03439,0.32678 -10.38592,-2.41622 -7.21669,-14.64669 1.87703,-7.24369 1.34242,-11.97478 -2.20057,-19.47402 -2.18904,-4.63341 -2.48522,-6.50321 -2.29677,-14.5 0.25033,-10.62294 -1.37107,-18.51217 -4.96961,-24.18065 -1.39664,-2.2 -2.60615,-4.12309 -2.68781,-4.27354 -0.0816,-0.15044 -0.82764,-0.0129 -1.65775,0.30563 -1.01535,0.38963 -1.68493,2.51631 -2.04602,6.49838 -0.31195,3.44031 -1.41451,7.33948 -2.63272,9.31059 -3.68098,5.956 -6.0982,15.33717 -6.0982,23.66709 0,5.0093 -0.58827,9.11616 -1.66442,11.61973 -1.1116,2.58604 -1.69284,6.86137 -1.75,12.87212 -0.0835,8.78244 0.01,9.15713 3.86495,15.5 2.1728,3.575 4.45428,6.95 5.06997,7.5 2.22374,1.98648 4.61988,6.69178 4.099,8.04919 -0.79461,2.07071 -7.28433,4.45081 -12.13587,4.45081 -3.33414,0 -4.95402,-0.63699 -7.37787,-2.90121 z m 12.39424,-1.09879 c 0,-1.16636 -1.16774,-1.45883 -5.25,-1.31491 -6.82332,0.24057 -6.8505,-1.38412 -0.0308,-1.84406 4.04148,-0.27256 5.55831,0.0441 6.72224,1.40349 1.75183,2.04598 4.05861,2.32069 4.05861,0.48332 0,-0.69968 -1.26664,-2.83718 -2.81475,-4.75 -1.54812,-1.91281 -4.50981,-6.54156 -6.58153,-10.2861 -4.94334,-8.93487 -5.85238,-18.10935 -2.68499,-27.09829 2.18872,-6.21149 2.91677,-15.82895 1.05753,-13.96971 -0.56306,0.56306 -1.44946,3.63946 -1.96978,6.83645 -1.18298,7.26851 -2.00648,8.24365 -2.00648,2.37595 0,-2.79591 0.93208,-6.33827 2.46388,-9.36397 1.35514,-2.67673 2.7652,-6.2387 3.13348,-7.91547 0.66296,-3.01843 1.60232,-5.3565 6.04927,-15.0567 1.2607,-2.75 2.58029,-6.86136 2.93242,-9.13636 l 0.64022,-4.13635 -4.66453,1.06739 c -4.55236,1.04173 -5.38393,0.91276 -13.39436,-2.07738 -1.06742,-0.39845 -1.2001,0.61661 -0.65298,4.99564 0.50666,4.05519 0.21662,6.98679 -1.10655,11.18438 -1.55771,4.94162 -1.6402,6.58091 -0.62814,12.48282 0.64079,3.73678 1.48054,7.61625 1.86612,8.62105 0.4612,1.20186 0.3271,1.59579 -0.39196,1.15139 -0.60115,-0.37153 -1.38837,-2.02035 -1.74939,-3.66405 -1.00292,-4.56626 -2.10577,-3.61513 -4.02365,3.47009 -1.83712,6.78686 -1.74133,8.80097 1.0237,21.524 0.99619,4.58387 1.38448,9.23983 1.00231,12.01852 -0.48003,3.49025 -0.0332,6.17323 1.93816,11.63837 1.4091,3.90635 2.562,7.81 2.562,8.67477 0,0.86477 1.0125,2.2885 2.25,3.16383 2.88437,2.04025 10.25,1.69667 10.25,-0.47811 z m -14.5,-18.28734 c 0,-1.21252 3.27469,-6.71266 3.9966,-6.71266 0.98792,0 -1.67005,5.68015 -3.05992,6.53914 -0.51518,0.31839 -0.93668,0.39647 -0.93668,0.17352 z m 7,-51.71266 c 0,-0.55 0.675,-1 1.5,-1 0.825,0 1.5,0.45 1.5,1 0,0.55 -0.675,1 -1.5,1 -0.825,0 -1.5,-0.45 -1.5,-1 z m -3,-7.84501 c 0,-1.58202 0.61153,-2.15499 2.3,-2.15499 1.265,0 2.85874,-0.55874 3.54164,-1.24164 0.98886,-0.98886 1.43364,-0.93796 2.18469,0.25 0.51867,0.8204 0.91441,2.16664 0.87941,2.99164 -0.0433,1.02165 -0.22448,1.10137 -0.56802,0.25 -0.71598,-1.77438 -4.3507,-1.54823 -6.50898,0.40499 -1.7179,1.55468 -1.82874,1.52437 -1.82874,-0.5 z m 36.60699,49.26322 c -0.86706,-2.25952 -0.74939,-4.41821 0.24083,-4.41821 0.4663,0 0.8862,1.35 0.93312,3 0.0951,3.34467 -0.26689,3.78197 -1.17395,1.41821 z m 24.6098,-67.97891 c -3.53184,-2.47381 -5.21679,-6.81133 -5.21679,-13.42948 0,-5.83007 2.41577,-12.91268 4.93548,-14.46994 0.56572,-0.34964 0.18874,-1.92712 -0.91238,-3.81785 -1.03205,-1.77212 -2.18148,-5.02203 -2.55429,-7.22203 -0.83629,-4.9351 -4.86396,-19.11228 -6.39213,-22.5 -0.62026,-1.375 -2.24125,-4.02905 -3.60221,-5.89788 -1.36096,-1.86884 -2.48435,-4.79384 -2.49643,-6.5 -0.0121,-1.70617 -0.91208,-5.06376 -2,-7.46132 -1.08792,-2.39757 -1.97804,-6.32007 -1.97804,-8.71667 0,-3.65446 -0.57005,-4.92751 -3.53333,-7.8908 -1.94334,-1.94333 -4.19334,-3.53333 -5,-3.53333 -0.80667,0 -1.46667,-0.45 -1.46667,-1 0,-1.33373 0.34255,-1.28116 4.46666,0.68549 4.13106,1.96997 7.53334,8.07063 7.53334,13.50811 0,1.95918 0.675,5.17765 1.5,7.15216 0.825,1.9745 1.5,4.91188 1.5,6.52751 0,1.86522 1.21815,4.39554 3.33711,6.93177 1.83542,2.19684 3.8036,5.27692 4.37373,6.84461 1.86823,5.137 4.11544,13.76428 4.77985,18.35035 0.35857,2.475 1.40494,6.39344 2.32527,8.70765 1.45664,3.66276 1.99778,4.14368 4.17869,3.71369 2.33964,-0.46129 2.37695,-0.40888 0.56413,0.79235 -8.10062,5.36773 -10.67423,14.52965 -6.60151,23.50102 5.23758,11.53732 15.94219,2.39699 14.85153,-12.68124 -0.35899,-4.96305 -0.95829,-6.59143 -3.37268,-9.1641 -2.46667,-2.62836 -2.57802,-2.94324 -0.69647,-1.96934 7.95114,4.11556 7.32065,23.74176 -0.94877,29.53389 -2.82251,1.97696 -4.75729,1.97834 -7.57409,0.005 z m -10.98377,-12.22163 c -3.73331,-3.48743 -4.80804,-8.09224 -3.2159,-13.77883 1.63617,-5.8438 0.63516,-10.29697 -3.5453,-15.77195 -3.33063,-4.36199 -5.92911,-9.54293 -5.16797,-10.30407 0.19789,-0.19789 0.98946,0.87702 1.75905,2.38869 0.76958,1.51167 2.84412,4.56293 4.61007,6.78058 5.33783,6.70313 6.47342,11.65562 4.14749,18.08788 -1.59371,4.40733 0.54323,11.18761 3.93208,12.47605 1.30229,0.49513 2.08917,1.35108 1.74862,1.90211 -0.85285,1.37993 -0.91083,1.35574 -4.26814,-1.78046 z m -37.2447,-6.17873 c 1.91857,-0.4861 6.64357,-1.19516 10.5,-1.57567 3.85642,-0.38052 7.79918,-1.10625 8.76168,-1.61274 1.11207,-0.5852 1.75,-0.55759 1.75,0.0757 0,1.46882 -6.36408,2.8435 -16,3.45611 -5.94091,0.37769 -7.44977,0.27429 -5.01168,-0.34344 z m 4.86402,-3.75058 c 1.29379,-0.9836 4.66879,-2.77989 7.5,-3.99176 6.2104,-2.65829 3.70061,-2.97584 -5.90785,-0.74749 -3.67379,0.852 -6.89609,1.33262 -7.16069,1.06803 -0.68558,-0.68559 9.05042,-3.45994 14.83462,-4.22724 4.1351,-0.54854 4.88158,-0.3947 4.88158,1.00602 0,0.90947 -1.0125,2.04919 -2.25,2.53271 -1.2375,0.48352 -4.5,1.91537 -7.25,3.18187 -6.74147,3.10477 -7.40266,3.27234 -4.64766,1.17786 z m -17.30234,-3.09353 c 0.5225,-0.44284 2.6375,-2.04075 4.7,-3.55089 4.26823,-3.12517 4.76804,-5.31613 1.5,-6.57533 -1.95148,-0.75192 -2.48811,-0.38279 -4.04467,2.78222 l -1.79467,3.64917 0.65002,-3.5 c 0.35751,-1.925 0.94012,-3.80856 1.29467,-4.18568 0.35456,-0.37713 3.37182,-0.11322 6.70502,0.58647 3.3332,0.69968 6.7082,1.18537 7.5,1.0793 0.7918,-0.10607 3.87997,-0.5083 6.8626,-0.89386 2.98264,-0.38555 6.35764,-1.17775 7.5,-1.76043 1.84108,-0.93908 1.90663,-0.89068 0.57703,0.42604 -2.39027,2.36711 -7.79584,3.74816 -14.67066,3.74816 -5.87944,0 -6.46313,0.19954 -7.54784,2.58021 -0.64659,1.41911 -2.86902,3.44411 -4.93872,4.5 -3.89263,1.98587 -5.95148,2.52045 -4.29278,1.11462 z m 16.877,-16.67336 c -1.69187,-1.27997 -1.72067,-1.46174 -0.23602,-1.48967 0.93004,-0.0175 1.9876,0.44814 2.35014,1.03473 1.08933,1.76258 -0.059,2.0097 -2.11412,0.45494 z m -14.84222,-3.38429 c -0.33319,-0.53911 0.78012,-1.6716 2.47402,-2.51663 3.45761,-1.72488 3.63068,-0.15428 0.23169,2.10257 -1.2954,0.86011 -2.33199,1.01875 -2.70571,0.41406 z m 22.41522,-1.51474 c 0,-0.20765 0.6853,-0.9463 1.52289,-1.64144 1.27335,-1.05678 1.41968,-0.99492 0.89301,0.37756 -0.53789,1.40173 -2.4159,2.38422 -2.4159,1.26388 z m -29.5,-4.62244 c -0.99206,-2.2 -2.18541,-4 -2.65187,-4 -0.46647,0 -0.83494,-0.5625 -0.81882,-1.25 0.0488,-2.07846 5.97069,5.128 5.97069,7.26578 0,2.86389 -0.47073,2.48434 -2.5,-2.01578 z m 5.23037,-4.07693 c 0.29872,-1.14231 1.38159,-2.60055 2.40638,-3.24054 2.87319,-1.79434 2.3223,-4.38816 -1.0367,-4.88115 -2.82295,-0.41433 -2.85973,-0.36423 -1.38499,1.8865 0.83323,1.27166 1.12145,2.31212 0.6405,2.31212 -0.77866,0 -3.6537,-3.71705 -3.86737,-5 -0.0458,-0.275 -1.04746,-2.03729 -2.22591,-3.9162 -2.62776,-4.18967 -3.65692,-9.78849 -2.76725,-15.05436 0.74925,-4.43482 3.87019,-9.02944 6.13331,-9.02944 0.9776,0 0.59414,0.76698 -1.12493,2.25 -2.741,2.36464 -4.73235,8.65509 -3.95708,12.5 0.24952,1.2375 0.66781,3.29757 0.92954,4.57794 0.76071,3.7214 5.04574,7.67206 8.32139,7.67206 5.58004,0 8.7077,-6.91496 7.07661,-15.64572 -0.89701,-4.80147 -4.95181,-10.35428 -7.56096,-10.35428 -0.7221,0 -1.31291,-0.45 -1.31291,-1 0,-0.55 0.25458,-1 0.56574,-1 1.39165,0 5.0865,2.42202 6.66202,4.36704 0.95027,1.17313 1.73777,1.57046 1.75,0.88296 0.0122,-0.6875 1.14724,-1.25 2.52224,-1.25 1.375,0 2.5,-0.4132 2.5,-0.91821 0,-0.50502 0.24967,-1.56884 0.55481,-2.36404 0.8629,-2.24867 -4.98377,-2.94193 -13.55481,-1.60725 -4.125,0.64235 -8.3398,1.89277 -9.36622,2.7787 -1.74048,1.50227 -1.84086,1.47604 -1.48979,-0.3892 0.23902,-1.2699 1.28534,-2.0917 2.86623,-2.2512 1.36938,-0.13816 4.85228,-0.73293 7.73978,-1.32172 5.46136,-1.11361 6.23636,-2.21554 4.21482,-5.99282 -0.59561,-1.11291 -0.64104,-1.93426 -0.10699,-1.93426 1.0929,0 2.14217,2.42465 2.14217,4.95012 0,1.33513 1.03473,1.92533 4.09519,2.33582 3.36208,0.45095 4.90497,0.0357 8.61874,-2.31947 l 4.52356,-2.86876 -2.72608,-0.6842 c -1.8474,-0.46367 -3.00887,-0.23767 -3.60343,0.70114 -0.69735,1.10113 -0.8805,1.02632 -0.89267,-0.36465 -0.0103,-1.17174 -0.80104,-1.75 -2.39319,-1.75 -4.15657,0 -9.05732,-2.72375 -11.09537,-6.16661 l -1.97324,-3.33339 -0.70209,4.80757 c -0.7088,4.85351 -2.23257,7.69243 -4.12885,7.69243 -0.5679,0 -0.30923,-0.79926 0.57483,-1.77613 2.50286,-2.76563 3.26292,-9.71976 1.37694,-12.59814 -2.48775,-3.79679 -3.17608,-11.75479 -1.32616,-15.33214 3.04163,-5.88187 13.09634,-8.1492 19.31719,-4.35602 2.65041,1.6161 3.35142,2.87628 4.30905,7.74626 0.62903,3.1989 1.30249,6.31223 1.49659,6.91852 0.1941,0.6063 -0.28195,4.4313 -1.05787,8.5 -0.77593,4.06871 -1.41131,7.51015 -1.41196,7.64765 -6.5e-4,0.1375 1.27908,0.25 2.84383,0.25 2.56584,0 6.15499,2.55064 6.15499,4.37405 0,0.39412 -1.6875,0.45126 -3.75,0.12698 l -3.75,-0.5896 3.17126,1.4629 c 3.09109,1.42593 6.05023,5.23751 4.9333,6.35444 -0.30662,0.30662 -0.83326,-0.16118 -1.17033,-1.03956 -0.33706,-0.87837 -2.08969,-2.4684 -3.89472,-3.5334 -3.27188,-1.93046 -3.28964,-1.92983 -5.82452,0.20391 -2.62942,2.21334 -5.01524,7.56192 -2.7481,6.16074 1.49417,-0.92344 6.03311,3.2438 6.03311,5.53904 0,0.94099 -0.66086,3.22504 -1.46858,5.07569 l -1.46857,3.36481 0.5706,-4.50268 c 0.75018,-5.91975 -1.44767,-8.22628 -6.98277,-7.32806 -2.73035,0.44307 -3.60569,1.0056 -3.20197,2.05768 2.5424,6.62538 1.65967,14.80237 -2.07739,19.24362 -2.48625,2.95473 -2.0812,4.27082 0.54765,1.77944 2.51715,-2.38552 -1.24478,3.79523 -4.63842,7.62079 -3.70438,4.17586 -4.30493,4.43844 -3.55018,1.55228 z m 18.99658,-51.62959 c 1.36328,-2.08102 1.75916,-4.68098 1.71296,-11.25 -0.0851,-12.09627 -2.56041,-16.04348 -10.061,-16.04348 -5.90325,0 -10.20747,2.34544 -11.94775,6.51052 -1.39857,3.34724 -1.0621,6.48948 0.69488,6.48948 0.50164,0 0.64245,1.07424 0.31292,2.38719 -0.44098,1.75699 -0.0196,2.79313 1.59612,3.92483 1.2074,0.84569 3.00654,2.87165 3.9981,4.50213 1.13628,1.86848 3.40445,3.53082 6.13482,4.49624 5.7682,2.03953 5.53621,2.07074 7.55895,-1.01691 z m 23.72778,45.514 c 0.30645,-2.92721 -0.0629,-6.01874 -0.98174,-8.21788 -0.81014,-1.93895 -1.44785,-4.32732 -1.41712,-5.30748 0.0307,-0.98017 0.90559,0.24288 1.94413,2.71788 2.0469,4.87808 2.41487,10.32816 0.91145,13.5 -0.68972,1.45515 -0.81414,0.72163 -0.45672,-2.69252 z m -22.45473,-3.80748 c 0,-0.55 0.8625,-1 1.91667,-1 1.05416,0 2.06666,-0.40234 2.25,-0.89409 0.48343,-1.2967 8.09206,0.17027 8.58718,1.65564 0.30704,0.92113 -0.20241,1.02472 -1.91787,0.38997 -1.28479,-0.4754 -2.89848,-0.66647 -3.58598,-0.42461 -0.6875,0.24187 -1.25,-0.0799 -1.25,-0.715 0,-0.69625 -0.62396,-0.53081 -1.57143,0.41666 -1.75976,1.75976 -4.42857,2.10412 -4.42857,0.57143 z m 1.5,-5 c -0.36018,-0.58279 0.6486,-1 2.41793,-1 3.86773,0 6.30873,-3.51521 7.25043,-10.44116 0.65625,-4.82656 0.67622,-4.76494 0.43501,1.34202 -0.21997,5.56942 -0.60756,6.70599 -2.98386,8.75 -2.85041,2.45182 -6.0619,3.06039 -7.11951,1.34914 z"
       id="path2996"
       inkscape:connector-curvature="0" />
  </g>
</svg>
