<?xml version="1.0" encoding="UTF-8" standalone="no"?>
<!-- Created with Inkscape (http://www.inkscape.org/) -->

<svg
   xmlns:dc="http://purl.org/dc/elements/1.1/"
   xmlns:cc="http://creativecommons.org/ns#"
   xmlns:rdf="http://www.w3.org/1999/02/22-rdf-syntax-ns#"
   xmlns:svg="http://www.w3.org/2000/svg"
   xmlns="http://www.w3.org/2000/svg"
   xmlns:xlink="http://www.w3.org/1999/xlink"
   xmlns:sodipodi="http://sodipodi.sourceforge.net/DTD/sodipodi-0.dtd"
   xmlns:inkscape="http://www.inkscape.org/namespaces/inkscape"
   width="149.33464"
   height="269.45398"
   id="svg2"
   version="1.1"
   inkscape:version="0.48.3.1 r9886"
   sodipodi:docname="Arnold-press-1.svg">
  <defs
     id="defs4">
    <radialGradient
       gradientUnits="userSpaceOnUse"
       gradientTransform="matrix(1,0,0,0.91819829,-19.285714,-7.9105395)"
       r="209.56604"
       fy="287.50052"
       fx="398.1105"
       cy="287.50052"
       cx="398.1105"
       id="radialGradient5255"
       xlink:href="#linearGradient5249"
       inkscape:collect="always" />
    <linearGradient
       id="linearGradient5249"
       inkscape:collect="always">
      <stop
         id="stop5251"
         offset="0"
         style="stop-color:#e3e3e3;stop-opacity:1;" />
      <stop
         id="stop5253"
         offset="1"
         style="stop-color:#e3e3e3;stop-opacity:0;" />
    </linearGradient>
  </defs>
  <sodipodi:namedview
     id="base"
     pagecolor="#ffffff"
     bordercolor="#666666"
     borderopacity="1.0"
     inkscape:pageopacity="0.0"
     inkscape:pageshadow="2"
     inkscape:zoom="1.979899"
     inkscape:cx="-68.845356"
     inkscape:cy="106.72914"
     inkscape:document-units="px"
     inkscape:current-layer="layer1"
     showgrid="false"
     showguides="true"
     inkscape:guide-bbox="true"
     fit-margin-top="0"
     fit-margin-left="0"
     fit-margin-right="0"
     fit-margin-bottom="0"
     inkscape:window-width="1615"
     inkscape:window-height="1026"
     inkscape:window-x="65"
     inkscape:window-y="24"
     inkscape:window-maximized="1">
    <sodipodi:guide
       orientation="-0.70710678,0.70710678"
       position="-2243.3868,451.16405"
       id="guide2985" />
  </sodipodi:namedview>
  <metadata
     id="metadata7">
    <rdf:RDF>
      <cc:Work
         rdf:about="">
        <dc:format>image/svg+xml</dc:format>
        <dc:type
           rdf:resource="http://purl.org/dc/dcmitype/StillImage" />
        <dc:title></dc:title>
      </cc:Work>
    </rdf:RDF>
  </metadata>
  <g
     inkscape:label="Ebene 1"
     inkscape:groupmode="layer"
     id="layer1"
     transform="translate(-814.81534,-208.35797)">
    <path
       style="fill:#000000"
       d="m 876.23716,477.20109 c -0.70184,-0.38284 -2.08189,-1.40552 -3.06676,-2.27261 -1.57876,-1.38997 -1.86418,-1.81943 -2.41163,-3.62878 -0.34153,-1.12873 -0.76423,-3.20292 -0.93933,-4.6093 -0.25522,-2.04965 -0.62643,-3.20878 -1.87078,-5.84147 -1.46175,-3.09267 -1.53911,-3.3759 -1.32522,-4.85168 0.12492,-0.86199 0.18785,-1.97551 0.13986,-2.47447 -0.048,-0.49895 -0.0549,-1.65561 -0.0154,-2.57037 0.0396,-0.91476 0.0834,-3.43221 0.0972,-5.59436 0.0249,-3.86448 -0.005,-4.044 -1.73531,-10.5839 -2.08895,-7.89337 -2.17767,-9.35838 -0.93392,-15.42228 0.66521,-3.24319 1.13001,-4.60899 2.65596,-7.80423 1.72832,-3.61904 1.86835,-4.07516 2.13535,-6.95513 0.15715,-1.69516 0.22881,-4.11682 0.15924,-5.38147 -0.11416,-2.07494 -0.24666,-2.48324 -1.35744,-4.18324 -0.677,-1.03611 -1.61918,-2.75334 -2.09374,-3.81604 -0.47456,-1.06271 -1.03969,-1.93586 -1.25586,-1.94032 -0.82634,-0.0171 -2.18644,-0.96292 -2.63669,-1.83358 -0.25827,-0.49942 -0.67882,-2.03621 -0.93461,-3.41509 -0.25577,-1.37888 -0.56022,-2.66105 -0.67654,-2.84928 -0.14914,-0.24131 -6.04474,0.90804 -19.99193,3.89743 -18.79859,4.0292 -19.84717,4.22094 -21.12572,3.86298 -1.77728,-0.4976 -3.56436,-2.20563 -3.83891,-3.66914 -0.23326,-1.24342 0.52235,-4.11984 1.33987,-5.10045 0.35894,-0.43057 2.74887,-1.094 9.55067,-2.65126 l 9.07193,-2.07701 0.0789,-12.07046 0.0789,-12.07044 -4.50835,-3.73422 c -2.47959,-2.05384 -4.65836,-4.06351 -4.84172,-4.46597 -0.54222,-1.18999 -0.40887,-4.209 0.24197,-5.47808 1.06765,-2.08192 1.66225,-2.4008 5.17018,-2.77275 1.74634,-0.18515 3.61605,-0.40567 4.15491,-0.49004 l 0.97975,-0.15339 -1.02049,-1.02049 c -1.30067,-1.30067 -3.32055,-4.96556 -3.92301,-7.11799 -0.55543,-1.98434 -1.27815,-8.11678 -1.68875,-14.32902 -0.1636,-2.47561 -0.34917,-4.55279 -0.41235,-4.61598 -0.0631,-0.0631 -0.76134,0.24643 -1.55146,0.68805 -3.20671,1.79227 -7.4572,1.12911 -9.72564,-1.51739 -2.57206,-3.00071 -3.62535,-6.79035 -3.35326,-12.06477 0.29918,-5.80005 1.87826,-9.86493 5.24472,-13.50103 2.59319,-2.80085 4.30322,-3.64921 7.34818,-3.64543 1.97833,0.002 2.49454,0.12345 3.85479,0.90361 2.55011,1.46252 4.33448,4.58006 4.76019,8.31668 0.29879,2.62257 0.39495,2.82058 1.69088,3.48171 l 1.17371,0.59879 0.88396,-1.28426 c 1.29035,-1.87468 3.79518,-4.10833 5.40632,-4.82101 3.33517,-1.47531 7.49904,-0.40192 9.6132,2.47814 l 1.08764,1.48168 1.28187,-0.96753 c 2.38722,-1.8018 2.64945,-2.30829 2.83886,-5.48302 l 0.16996,-2.84909 -1.02591,-0.44048 c -1.32754,-0.57 -3.13447,-2.46712 -3.74457,-3.93154 -0.38929,-0.9344 -0.42205,-1.46742 -0.173,-2.81469 0.16898,-0.91408 0.41165,-1.8242 0.53925,-2.02246 0.1276,-0.19828 0.23282,-1.85737 0.23383,-3.68688 0.002,-3.06047 0.0698,-3.45548 0.85234,-4.94125 1.18031,-2.24108 3.00838,-4.12807 4.89185,-5.04958 4.11399,-2.01277 10.19386,-1.33383 13.10609,1.46359 2.44107,2.34481 4.55997,6.25213 5.1889,9.5685 0.44225,2.33202 1.21283,9.26636 1.21283,10.91419 0,1.47126 -1.17839,5.24698 -2.05525,6.58521 -0.25496,0.38912 -0.94901,1.03736 -1.54232,1.44052 l -1.07878,0.73306 1.91653,0 c 1.0541,0 2.68461,-0.19271 3.62338,-0.42824 2.8253,-0.70885 4.62094,-0.83478 6.84258,-0.4798 3.77072,0.60247 5.58625,1.76122 8.34239,5.32458 1.15151,1.48876 1.26912,1.55614 3.30128,1.89175 3.46424,0.5721 5.34791,1.43626 7.32788,3.36171 0.97477,0.94793 1.82339,1.64086 1.88582,1.53984 0.0625,-0.10102 0.27547,-1.57676 0.47342,-3.27939 0.31469,-2.70691 0.29518,-3.3598 -0.15533,-5.19816 -0.60451,-2.46678 -0.95478,-2.87268 -2.10231,-2.43641 -1.43034,0.54383 -4.67803,0.37555 -6.10747,-0.31643 -2.36949,-1.14703 -4.24318,-3.98094 -5.133,-7.76349 -0.59309,-2.52115 -0.41361,-8.67928 0.33278,-11.4182 1.35756,-4.98169 4.50776,-9.40653 7.87806,-11.06573 1.77269,-0.87269 2.14259,-0.94678 4.04675,-0.81053 4.0076,0.28674 5.72237,1.95758 7.56904,7.37512 0.56039,1.64403 1.19916,3.19326 1.41949,3.44275 0.22033,0.24946 0.72266,0.85197 1.11627,1.33888 l 0.71565,0.88532 1.83205,-1.87231 c 2.53776,-2.59353 4.51707,-3.47713 7.45637,-3.3287 1.79968,0.091 2.46546,0.27569 3.65571,1.01475 3.75089,2.32907 5.84717,8.49677 5.04542,14.84469 -0.69058,5.46756 -2.48323,9.42715 -5.71365,12.62028 -2.51907,2.49002 -4.31819,3.30305 -7.02561,3.17485 -1.17567,-0.0555 -2.13733,-0.0762 -2.13696,-0.0454 3.1e-4,0.0307 0.20024,1.00445 0.44411,2.16388 1.51429,7.19863 1.00396,14.49322 -1.37401,19.64034 -0.67364,1.45806 -1.27742,3.30387 -1.38769,4.24236 -0.2588,2.20193 -0.85224,2.77657 -2.86745,2.77657 -1.09931,0 -2.09928,-0.26012 -3.40198,-0.88493 -1.01476,-0.48669 -2.49402,-1.11132 -3.28728,-1.38803 -0.91173,-0.31808 -2.20696,-1.20491 -3.52115,-2.41094 -2.25231,-2.06692 -2.37653,-2.12815 -4.89837,-2.41424 -2.22584,-0.25249 -5.06807,-1.62153 -6.56165,-3.16054 l -1.19717,-1.23361 -0.21104,5.51935 c -0.20655,5.40233 -0.6435,8.20567 -1.55321,9.96482 -0.29345,0.56749 -0.49149,2.30369 -0.60516,5.30537 -0.26462,6.98843 -0.25976,7.07798 0.45662,8.43614 0.47795,0.90611 0.65251,1.74282 0.63089,3.02398 -0.0165,0.97418 0.0593,2.41848 0.16818,3.20955 0.20375,1.47948 0.26231,1.52971 2.10245,1.80319 0.45553,0.0677 0.62741,0.3599 0.69642,1.18387 l 0.0917,1.09398 2.02515,0.19264 c 4.98853,0.47448 9.46028,0.78087 11.5507,0.79141 3.48464,0.0177 5.68951,1.30654 6.19842,3.62364 0.14507,0.66053 0.60324,1.10745 1.86574,1.81995 1.55108,0.87536 5.66811,4.03545 9.87544,7.58006 1.39808,1.17782 2.30249,1.64817 4.38478,2.28031 4.72553,1.43453 6.31448,2.51239 7.48611,5.07813 1.3412,2.93715 1.62885,4.76875 1.63799,10.4304 0.006,2.92718 0.19363,9.8808 0.41983,15.45249 0.35507,8.74742 0.35126,10.81143 -0.0278,15.11986 -0.66736,7.58398 -0.63169,7.7915 1.9595,11.39575 2.03708,2.83354 3.35689,4.21279 6.94634,7.25905 2.25006,1.90953 3.24179,2.39365 6.98296,3.40874 5.15574,1.3989 6.0975,2.06939 6.0975,4.34128 0,2.06617 -1.44192,3.63328 -4.29862,4.67191 -1.69156,0.61504 -8.5779,0.84745 -12.15286,0.41016 -2.31608,-0.28332 -2.95006,-0.49468 -4.53597,-1.51207 l -1.84359,-1.18274 -5.28408,-0.21061 c -3.51573,-0.14013 -5.55299,-0.34966 -6.08753,-0.6261 -1.02988,-0.53257 -2.33282,-2.07979 -2.57965,-3.06336 -0.34317,-1.3672 0.18336,-5.90527 1.13381,-9.77211 0.74326,-3.02399 0.95969,-4.65694 1.08215,-8.16476 0.13782,-3.94804 0.0896,-4.55285 -0.48436,-6.07241 -0.35058,-0.92819 -1.19633,-2.42506 -1.87952,-3.32636 -1.5121,-1.99491 -2.47728,-4.06913 -3.01412,-6.47756 -0.57984,-2.60128 -0.52478,-10.319 0.0927,-13.00263 0.26792,-1.16423 0.57105,-2.79718 0.67363,-3.62877 l 0.1865,-1.51198 -2.65489,-1.70508 c -1.46021,-0.9378 -2.99513,-1.91793 -3.41092,-2.17808 l -0.756,-0.47299 0.1021,2.95065 c 0.0761,2.19803 -0.002,3.03439 -0.30241,3.27891 -0.22246,0.18054 -5.71155,1.57736 -12.19797,3.10405 -6.48644,1.52669 -12.03166,2.84353 -12.3227,2.92631 -0.49428,0.14056 -0.52921,1.07904 -0.52921,14.21199 0,13.25242 0.0304,14.05211 0.52921,13.89844 2.56629,-0.7907 15.19864,-3.56106 16.85865,-3.69718 1.89484,-0.1554 2.22776,-0.0978 3.17518,0.54904 1.53765,1.04986 1.96176,2.11644 1.96176,4.93362 0,4.34518 1.74556,3.51474 -18.13276,8.62646 -19.58246,5.03561 -17.61299,4.13644 -17.66738,8.06613 -0.0166,1.19763 -0.1722,2.83991 -0.34585,3.64952 -0.27939,1.30274 -0.22334,1.73036 0.4875,3.71924 1.87076,5.23427 6.19176,12.29452 9.94813,16.25464 1.36921,1.44346 2.6461,2.92171 2.83752,3.285 1.12046,2.12641 -0.74856,6.11923 -3.09644,6.61497 -0.51716,0.10922 -1.23696,0.4708 -1.59953,0.80355 -0.85437,0.78404 -4.03889,1.46677 -7.65668,1.6415 -2.57828,0.12455 -3.0036,0.0674 -4.14886,-0.55732 z m 5.67052,-1.63098 c 0.90944,-0.26471 2.3339,-0.50284 3.16549,-0.52919 l 1.51198,-0.048 -0.10282,-1.43639 c -0.0983,-1.37359 -0.0683,-1.43639 0.68787,-1.43639 0.57072,0 0.87285,0.216 1.08587,0.7763 0.23662,0.62237 0.42999,0.73624 0.9753,0.57427 0.89163,-0.26486 1.38539,-0.92362 1.6168,-2.15712 0.31314,-1.66924 -0.0986,-2.45351 -2.48201,-4.72729 -1.25526,-1.19751 -2.77557,-2.99378 -3.37849,-3.99169 -0.60291,-0.9979 -1.85998,-2.98197 -2.79349,-4.40903 -1.9038,-2.91031 -3.97224,-7.39823 -4.67613,-10.14577 -0.41955,-1.63768 -0.42053,-2.07068 -0.01,-4.219 0.25195,-1.31671 0.46287,-3.41463 0.46871,-4.66201 0.0148,-3.14871 0.64748,-6.37358 1.80971,-9.22313 0.89197,-2.18698 1.00007,-2.79072 1.12599,-6.29015 0.0766,-2.12904 0.045,-4.37411 -0.0704,-4.98907 l -0.20975,-1.11811 -0.42838,0.8176 c -0.40637,0.7756 -1.29174,4.25965 -2.3747,9.34482 -0.57172,2.6846 -0.99689,3.41939 -1.80017,3.11114 -0.4914,-0.18857 -0.53866,-0.44922 -0.38325,-2.11348 0.37598,-4.02621 1.68354,-8.93261 3.2162,-12.06823 0.81295,-1.66318 1.62515,-3.74864 1.80488,-4.63434 0.17973,-0.8857 1.00597,-2.87023 1.83606,-4.41006 2.62416,-4.86781 3.4105,-7.80302 2.99372,-11.17498 -0.41998,-3.39795 -0.52408,-3.6687 -2.10548,-5.47587 -1.35389,-1.54717 -1.9206,-2.88133 -1.22387,-2.88133 0.40856,0 3.58825,3.52689 3.81023,4.22631 0.39427,1.2422 0.75822,0.55417 0.756,-1.42912 -0.004,-3.31531 -0.52538,-6.90288 -1.41071,-9.70189 -0.72958,-2.30656 -1.02393,-2.80943 -2.45481,-4.19365 -0.8942,-0.86506 -2.24822,-1.87413 -3.00893,-2.24238 -1.31578,-0.63696 -1.52716,-0.65264 -4.3427,-0.32231 -4.78344,0.56123 -7.90092,2.05361 -9.0678,4.34089 -0.58588,1.14841 -0.62395,1.54598 -0.42602,4.4497 0.30073,4.41218 0.78756,6.00238 3.03695,9.91988 l 1.95164,3.39899 -0.01,3.56353 c -0.006,1.95993 -0.13631,4.54071 -0.29149,5.73507 -0.27847,2.14327 -0.58883,3.02276 -2.98255,8.45203 -1.4183,3.21692 -2.05756,5.51143 -2.4848,8.91868 -0.35927,2.86531 -0.22964,3.68349 1.69495,10.69751 2.23115,8.13107 2.83706,13.51093 1.80101,15.99059 -0.37529,0.89818 -0.39495,1.34557 -0.10896,2.4813 0.26932,1.06954 0.26261,1.74526 -0.0293,2.96255 -0.37815,1.57633 -0.37775,1.5781 1.00498,4.33132 0.82275,1.63818 1.50165,3.48915 1.67536,4.5677 0.16063,0.99738 0.5607,2.7451 0.88909,3.88383 0.32839,1.13873 0.68177,2.56663 0.78534,3.17312 0.33578,1.96656 4.07362,4.77069 6.38146,4.78741 0.50429,0.004 1.66096,-0.20995 2.57037,-0.47466 z m -3.4554,-2.10042 c -1.07743,-1.07743 -0.10858,-2.06066 1.86841,-1.89612 1.34569,0.11196 1.65511,0.89663 0.61301,1.55448 -1.20139,0.75843 -1.96016,0.86288 -2.48142,0.34164 z m 5.59498,-2.88218 c -0.87506,-1.18357 -0.64755,-1.93769 0.49785,-1.65021 1.19389,0.29965 1.58646,0.72229 1.58646,1.70799 0,1.22903 -1.15662,1.19697 -2.08431,-0.0578 z m -12.67271,-16.974 c -0.83431,-0.83433 -0.0756,-2.76229 1.58578,-4.02946 2.22093,-1.69401 3.56563,-0.12386 1.39075,1.62394 -0.67244,0.54038 -1.22261,1.17051 -1.22261,1.40026 0,0.43949 -0.79464,1.36813 -1.17072,1.36813 -0.12117,0 -0.38361,-0.16329 -0.5832,-0.36287 z m -0.97918,-35.64396 c -0.18436,-0.34447 -0.41428,-2.12573 -0.51097,-3.95831 l -0.17577,-3.33202 0.72713,0.10277 c 0.70746,0.1 0.72477,0.1683 0.64004,2.52694 -0.0579,1.61127 0.0689,2.86624 0.37799,3.74239 0.57582,1.63207 0.58313,1.54455 -0.12907,1.54455 -0.32679,0 -0.74498,-0.28184 -0.92935,-0.62632 z m 7.71215,-11.75008 c -0.9347,-0.38988 -1.4234,-1.12952 -1.20369,-1.82178 0.26067,-0.82127 0.57172,-0.78127 1.06301,0.1367 0.43738,0.81726 1.24101,0.959 2.57078,0.45343 0.74946,-0.28494 0.79021,-0.25414 0.70009,0.5292 -0.0851,0.73997 -0.22917,0.83877 -1.30528,0.89544 -0.66529,0.0349 -1.4865,-0.0518 -1.82491,-0.19299 z m -4.07185,-12.83717 c 0,-1.04447 5.28841,-5.92658 6.42594,-5.93225 0.12474,-4.5e-4 0.2268,0.22881 0.2268,0.50985 0,0.60181 -5.62387,6.14178 -6.23479,6.14178 -0.23856,0 -0.41795,-0.30881 -0.41795,-0.71938 z m 86.18045,49.48323 c 2.06599,-1.05485 2.28803,-1.80868 0.85172,-2.89126 -0.95005,-0.71613 -5.43999,-2.31984 -6.53443,-2.33401 -1.40017,-0.0182 -3.33091,-1.36583 -5.96229,-4.16197 -3.48324,-3.70132 -6.38478,-7.05997 -7.69326,-8.90522 l -1.01509,-1.43155 0.26714,-5.22119 c 0.33315,-6.51152 0.33826,-14.9151 0.0173,-28.35462 -0.20762,-8.6931 -0.34954,-10.8755 -0.85122,-13.08805 -0.8139,-3.5898 -1.29547,-4.10484 -5.15682,-5.51534 -4.03032,-1.47219 -5.62707,-2.2896 -7.39803,-3.78709 -1.37253,-1.1606 -2.47782,-2.04714 -5.98506,-4.80072 -0.8316,-0.65288 -3.26721,-2.0946 -5.41247,-3.20381 -3.63188,-1.87785 -3.99631,-2.00332 -5.29196,-1.82201 -2.85713,0.39985 -4.33732,1.09432 -6.08992,2.85727 -1.48503,1.49377 -1.811,2.05962 -2.80298,4.86554 -0.61738,1.74634 -1.12126,3.32574 -1.1197,3.50974 0.002,0.19307 0.88785,0.41685 2.09531,0.52906 2.74652,0.25526 4.37199,0.80122 4.50935,1.51463 0.10234,0.53147 -0.0712,0.55196 -3.01984,0.3564 -1.72062,-0.11412 -3.35834,-0.27236 -3.63937,-0.35168 -0.38271,-0.10797 -0.59102,0.14412 -0.82991,1.00441 -0.79696,2.86987 -0.17032,4.43059 2.60088,6.4778 1.99364,1.47279 2.58667,1.53595 7.9862,0.85065 4.76465,-0.60473 6.48009,-0.0618 12.57476,3.98028 1.85609,1.23098 4.40756,2.87813 5.66996,3.66033 2.60342,1.61317 3.17267,2.64053 1.04762,1.89078 -0.6862,-0.2421 -1.41106,-0.44019 -1.61081,-0.44019 -0.63023,0 -1.79721,7.53866 -1.77883,11.4911 0.0248,5.32468 0.91568,8.33304 3.45236,11.65757 2.1305,2.7922 2.24406,3.26732 2.23671,9.35908 -0.007,4.99565 -0.0776,5.71662 -0.86976,8.76952 -1.10911,4.27426 -1.4521,8.66228 -0.76518,9.78856 0.98178,1.60971 1.23822,1.6821 5.99639,1.69269 l 4.43691,0.01 2.55923,1.25787 c 3.08363,1.5156 3.69754,1.65779 8.15361,1.88848 4.75555,0.24618 7.3205,-0.0555 9.37153,-1.10291 z m -3.29896,-1.40897 c -0.19349,-0.23316 -0.68639,-0.50792 -1.09536,-0.61057 -0.74323,-0.18652 -0.9696,-0.60451 -0.48839,-0.9019 0.77762,-0.48061 3.07114,0.83774 3.07114,1.76531 0,0.35073 -1.14843,0.1555 -1.48739,-0.25284 z m -23.53407,-6.23027 c -0.94862,-0.39155 -1.88941,-2.06128 -1.89074,-3.35581 -0.004,-1.76835 1.95257,-4.18431 2.74438,-3.3925 0.25573,0.25575 0.18091,0.7762 -0.29405,2.04574 -0.35041,0.9365 -0.6371,1.84125 -0.6371,2.01054 0,0.1693 0.68712,0.59336 1.52694,0.94238 1.22385,0.50859 1.50895,0.76037 1.43637,1.26844 -0.0702,0.49039 -0.33009,0.64827 -1.14891,0.69755 -0.58215,0.0349 -1.3637,-0.0623 -1.73689,-0.21634 z m -1.44535,-25.10895 c -0.10664,-0.17258 0.31145,-0.87316 0.92909,-1.55685 l 1.12302,-1.24304 -0.18674,-2.29873 c -0.22833,-2.81103 0.10431,-3.58541 1.05324,-2.45175 0.57015,0.68117 0.61088,0.98762 0.42086,3.16599 -0.20097,2.30392 -0.76064,3.98775 -1.48462,4.46675 -0.49656,0.32852 -1.63203,0.2781 -1.85485,-0.0823 z m -5.13371,-28.09003 c -1.34537,-0.32466 -2.13537,-0.81446 -3.9189,-2.42962 -1.36368,-1.23495 -1.85632,-1.48865 -3.22986,-1.66323 -2.33526,-0.29683 -2.67916,-0.43672 -2.67916,-1.08983 0,-0.49049 0.21732,-0.58443 1.35218,-0.58443 1.70717,0 4.20211,1.08963 6.56919,2.869 0.9984,0.75053 2.03994,1.38433 2.31452,1.40848 0.27458,0.0241 1.1762,0.0582 2.0036,0.0756 1.17448,0.0247 1.52746,0.14757 1.6096,0.56002 0.18784,0.94329 -1.85415,1.37699 -4.02117,0.85403 z m 5.30804,-0.91266 c -0.85719,-0.85719 -1.36459,-1.95836 -2.26745,-4.92092 -0.82338,-2.7016 -0.79159,-3.27295 0.22916,-4.12008 0.71207,-0.59097 1.0416,0.20093 1.05006,2.52339 0.01,2.5491 0.68581,4.41919 1.9593,5.41588 0.60613,0.47435 0.85382,0.88265 0.73046,1.20409 -0.25212,0.65704 -0.98629,0.61288 -1.70153,-0.10236 z m -35.90318,50.93713 c 8.67772,-2.24574 16.07698,-4.21283 16.44279,-4.37134 1.46733,-0.63571 1.4949,-5.00678 0.0366,-5.78728 -1.06198,-0.56836 -2.73882,-0.33912 -12.03198,1.64491 -5.06746,1.08186 -9.31992,1.90127 -9.44993,1.82092 -0.13001,-0.0804 -0.23636,-6.73785 -0.23636,-14.7945 0,-10.09223 -0.0994,-14.64843 -0.31968,-14.64843 -0.17584,0 -0.92428,0.15223 -1.6632,0.33828 l -1.3435,0.3383 -0.008,2.00529 c -0.0111,2.96853 -0.40619,4.25035 -2.80513,9.09759 l -2.17702,4.3988 0.10418,7.41997 0.10419,7.41999 -0.7973,1.95434 c -1.2209,2.99264 -2.282,7.24631 -1.80767,7.24631 0.0956,0 7.27377,-1.83743 15.95148,-4.08315 z M 895.5918,392.7509 c 11.31387,-2.66417 20.85313,-4.97172 20.93666,-5.06458 0.0426,-0.0475 0.008,-1.38848 -0.0781,-2.98014 l -0.15573,-2.89394 -8.13389,-0.3801 c -4.47364,-0.20906 -8.53801,-0.49599 -9.03194,-0.63766 -1.18085,-0.33866 -6.24958,-4.76759 -8.23929,-7.1993 -0.77195,-0.9434 -0.89936,-0.98991 -2.18405,-0.79726 -1.49717,0.22451 -1.56799,0.38308 -0.95543,2.13908 0.61547,1.76431 1.17621,16.24644 0.71571,18.48427 -0.11124,0.54053 -0.13298,0.9828 -0.0483,0.9828 0.0847,0 3.31314,-0.74393 7.17439,-1.65317 z m -55.20464,-9.63688 c 10.34963,-2.20984 18.90323,-4.10365 19.00803,-4.20845 0.10478,-0.1048 -0.18151,-1.35894 -0.63623,-2.787 -0.65342,-2.05207 -0.9297,-2.56523 -1.31776,-2.44757 -0.27005,0.0818 -3.00847,0.70273 -6.08537,1.37962 -3.0769,0.67689 -5.81815,1.29862 -6.09168,1.38163 -0.27352,0.083 -0.71577,-0.0675 -0.98279,-0.33457 -0.42284,-0.42287 -0.48547,-1.59155 -0.48547,-9.06367 l 0,-8.57821 -3.25075,-2.75295 -3.25079,-2.75294 -0.079,11.93523 -0.0789,11.93524 -0.97935,0.31393 c -0.53863,0.17267 -4.38132,1.07431 -8.53927,2.00361 -10.79553,2.41286 -9.73248,2.02054 -10.25652,3.78515 -0.71053,2.39265 -0.12382,3.38531 2.54536,4.30651 0.24948,0.0861 0.72578,0.0993 1.05841,0.0293 0.33263,-0.07 9.07267,-1.93516 19.42228,-4.14501 z m 23.75076,-0.13213 c -0.14703,-3.19107 -0.0997,-3.68443 0.45713,-4.76276 2.09329,-4.05383 8.23262,-6.7809 13.28492,-5.90107 3.36796,0.58649 5.91205,2.17403 7.62265,4.75655 1.06646,1.61005 1.2091,1.12224 0.32655,-1.1168 -0.33264,-0.84392 -0.60481,-2.14507 -0.60481,-2.89146 0,-1.54948 0.14113,-1.64676 3.28694,-2.26567 l 1.85921,-0.36578 3.55049,3.61619 c 1.95276,1.98892 4.02674,3.94117 4.60887,4.33836 l 1.05839,0.72217 -0.95079,-1.09738 c -0.52292,-0.60354 -1.1196,-1.60892 -1.32595,-2.23418 -0.79225,-2.40052 0.39904,-8.7254 2.45472,-13.03266 1.51057,-3.16514 2.97277,-4.73888 5.61749,-6.04602 2.20734,-1.09097 2.49603,-1.15541 5.17766,-1.15541 2.76732,0 2.8066,-0.01 1.5353,-0.37852 -0.71757,-0.20816 -3.9942,-0.58103 -7.28141,-0.82857 -10.32542,-0.77755 -10.65296,-0.86088 -10.01597,-2.54845 0.41667,-1.1039 -0.0311,-1.25479 -1.28518,-0.43307 -1.01417,0.66451 -1.43695,0.21073 -1.28529,-1.37953 0.0649,-0.67968 0.0387,-1.2358 -0.0582,-1.2358 -0.0968,0 -0.63747,0.34042 -1.20143,0.7565 -2.79861,2.06475 -7.55925,2.99116 -15.46591,3.0096 l -5.94108,0.0138 0.15849,0.97653 c 0.19629,1.20962 -0.99193,3.78178 -2.34699,5.08065 -0.51527,0.4939 -2.52704,1.71446 -4.47061,2.71237 l -3.53375,1.8144 0,1.35386 c 0,1.03716 -0.12128,1.37788 -0.5184,1.45648 -0.70248,0.13904 -0.99522,-1.1286 -0.56306,-2.43808 0.41884,-1.2691 1.73242,-2.51884 4.17979,-3.97666 1.03882,-0.61879 2.63775,-1.8096 3.55317,-2.64626 1.34769,-1.23169 1.66363,-1.70244 1.66031,-2.47362 -0.009,-2.00257 -0.1976,-2.21656 -2.13549,-2.41911 -1.4684,-0.15347 -2.95171,-0.61686 -4.25197,-1.32831 -0.43737,-0.23932 -0.86597,1.99996 -0.86597,4.52431 0,2.62443 -0.0184,2.69487 -0.68038,2.60086 -0.92929,-0.13199 -0.99128,-0.92734 -0.37125,-4.76274 0.68408,-4.23156 1.47874,-5.07483 3.42577,-3.63532 1.45716,1.07733 5.28996,1.57658 12.14095,1.58145 6.68883,0.006 10.49095,-0.47567 12.90827,-1.63103 1.35623,-0.64821 3.09439,-2.38695 3.85338,-3.85468 l 0.46639,-0.90192 -1.5034,1.01173 c -1.8888,1.27106 -4.07829,2.09554 -7.29685,2.74771 -2.07974,0.4214 -3.59325,0.47964 -8.72284,0.33562 -7.00287,-0.1966 -10.76295,-0.81844 -13.67417,-2.26136 l -1.73536,-0.86013 -1.54245,3.49665 -1.54246,3.49662 -0.0553,4.68718 -0.0551,4.68715 1.617,3.47757 c 1.31346,2.82482 1.78322,4.30061 2.50259,7.86234 0.4871,2.41162 1.218,5.40536 1.62424,6.65275 0.40626,1.24739 0.88656,2.94837 1.06733,3.77996 0.28981,1.33322 1.00368,2.87279 1.33203,2.87279 0.0637,0 0.0419,-1.60194 -0.0482,-3.55983 z m 4.35378,-17.2048 c -0.4601,-0.46009 -0.16245,-1.62448 0.53147,-2.07917 0.58646,-0.38426 1.75074,-0.49148 5.82116,-0.53617 4.90509,-0.0539 5.0881,-0.034 5.0881,0.54896 0,0.57464 -0.16596,0.59947 -3.32881,0.49784 -3.62423,-0.11647 -5.70936,0.26176 -6.5865,1.19473 -0.55126,0.58634 -1.16298,0.73624 -1.52542,0.37381 z m 22.23631,-1.97565 c -0.19958,-0.1996 -0.36421,-0.64185 -0.36585,-0.98281 -0.007,-1.19599 1.67674,-5.35734 2.72455,-6.73883 2.07014,-2.72942 2.41296,-1.648 0.41752,1.31706 -1.27774,1.89861 -1.62398,3.03534 -1.41016,4.62955 0.22207,1.65564 -0.52052,2.62057 -1.36606,1.77503 z m -20.32113,-2.53212 c 0,-0.93756 3.34036,-3.67897 6.70475,-5.50254 4.37418,-2.37091 5.2907,-2.74324 8.05383,-3.27191 1.24709,-0.23861 2.70511,-0.70434 3.24005,-1.03495 1.25701,-0.77688 2.26201,-0.79055 2.26201,-0.0308 0,0.7314 -1.44276,1.42162 -3.78923,1.81276 -3.16335,0.52732 -6.04545,1.71528 -8.60191,3.54561 -1.33285,0.95425 -2.37688,1.78147 -2.32008,1.83829 0.14567,0.14566 1.87544,-0.588 6.27158,-2.65992 3.01373,-1.42039 4.21149,-1.82801 5.74556,-1.95535 1.77448,-0.14727 3.10352,0.16841 2.64392,0.62799 -0.1011,0.10111 -1.52599,0.5222 -3.16641,0.93576 -1.75764,0.4431 -4.16241,1.35024 -5.85534,2.20876 -3.03898,1.5411 -4.29584,2.00846 -8.54665,3.17796 -2.10192,0.5783 -2.64208,0.64134 -2.64208,0.30829 z m -18.89984,11.83167 c 2.66111,-0.58647 5.13285,-1.13582 5.49281,-1.22076 0.51843,-0.12237 0.61271,-0.2986 0.45359,-0.84801 -0.17189,-0.59352 -11.20584,-10.79909 -11.67567,-10.79909 -0.092,0 -0.16748,3.20703 -0.16748,7.12672 0,6.64659 0.0357,7.11598 0.52919,6.96709 0.29106,-0.0878 2.70646,-0.63948 5.36756,-1.22595 z m 3.1228,-8.79089 c -0.6853,-2.02987 -0.763,-4.77132 -0.28154,-9.93201 0.35504,-3.80565 0.3984,-3.96031 2.01157,-7.17691 1.13816,-2.2694 1.64873,-3.64638 1.64873,-4.44653 0,-0.63749 0.14836,-1.96171 0.32971,-2.9427 0.2732,-1.47792 0.24137,-2.10995 -0.18573,-3.68779 -0.2835,-1.0473 -0.62777,-1.97361 -0.76503,-2.05845 -0.29693,-0.18353 -6.78333,0.63418 -7.23244,0.91176 -0.17119,0.1058 -0.31125,0.86158 -0.31125,1.67954 0,2.14397 -0.64615,2.50155 -4.26992,2.36303 -2.67223,-0.10213 -2.79426,-0.13791 -3.40874,-0.99885 -0.3505,-0.4911 -0.91332,-1.18156 -1.25069,-1.53435 l -0.61343,-0.64144 -5.58572,0.56225 c -6.33107,0.63727 -6.84483,0.86567 -7.1554,3.18104 -0.32719,2.43939 -0.0741,2.72939 9.17534,10.51412 4.7427,3.99166 10.82301,9.19275 13.51181,11.55803 2.68877,2.36525 4.90161,4.30437 4.91736,4.30915 0.0157,0.006 -0.2248,-0.74216 -0.53463,-1.65989 z m 29.50624,-17.97959 c 3.62169,-0.92628 3.91935,-1.12902 4.1635,-2.83591 0.19573,-1.36829 0.91721,-2.61491 1.51338,-2.61491 0.1437,0 0.18212,0.37421 0.0853,0.8316 -0.45086,2.13109 -0.45108,2.19238 -0.008,2.19238 0.79614,0 1.03424,-0.99267 0.86923,-3.62354 -0.10684,-1.70279 0.005,-3.52357 0.32659,-5.37292 0.26849,-1.53852 0.48363,-3.17148 0.47809,-3.62877 l -0.0101,-0.83147 -0.63358,0.756 c -0.34849,0.4158 -0.76766,1.1364 -0.93151,1.60133 -0.16385,0.46493 -0.45254,0.79447 -0.64154,0.73231 -0.83735,-0.27543 -0.45876,-1.5307 1.27178,-4.21655 1.69553,-2.63149 2.46134,-4.43729 2.46527,-5.8131 0.002,-0.45865 -0.0789,-0.50904 -0.36117,-0.2268 -0.6712,0.67119 -1.69358,0.40163 -2.50333,-0.65999 -0.77247,-1.01277 -0.79933,-1.02134 -2.72266,-0.86695 l -1.94247,0.15592 -0.51081,-1.07115 c -0.54893,-1.15106 -0.41657,-2.03333 0.30501,-2.03333 0.2456,0 0.62523,0.37423 0.84362,0.83161 0.3675,0.7697 0.56086,0.84284 2.59845,0.98279 2.09036,0.14357 2.52155,0.34289 2.86712,1.32531 0.0516,0.14681 0.37564,0.1775 0.72003,0.0683 0.55614,-0.17653 0.6494,-0.5274 0.83444,-3.13971 0.11457,-1.61753 0.27955,-3.48529 0.36662,-4.15056 0.15104,-1.15422 0.13963,-1.17499 -0.24991,-0.45358 -0.28123,0.52075 -0.7119,0.78547 -1.38415,0.85074 -1.04478,0.10145 -1.34435,-0.39067 -0.41698,-0.68499 0.6158,-0.19545 1.25548,-1.37062 1.25548,-2.30649 0,-0.33014 -0.20839,-1.09901 -0.46309,-1.70856 -0.55153,-1.32006 -0.38291,-2.1705 0.31547,-1.5909 0.38656,0.32082 0.45001,0.19004 0.45001,-0.92756 l 0,-1.30106 -1.09087,1.27446 c -1.62402,1.89729 -3.11228,2.54697 -6.19234,2.70315 -2.57106,0.13035 -2.60671,0.12227 -3.70436,-0.84151 -0.60959,-0.5352 -1.10833,-1.16313 -1.10833,-1.39536 0,-0.53084 -0.11346,-0.55402 1.63883,0.33498 0.81821,0.41509 1.93575,0.75473 2.48344,0.75473 1.50938,0 4.28449,-1.15662 5.57717,-2.32446 1.62942,-1.47212 1.94716,-2.62396 1.33337,-4.83376 -0.89927,-3.23766 -1.08216,-4.13576 -0.97049,-4.76574 0.20605,-1.16224 2.03988,3.2151 2.48573,5.93341 1.05155,6.41118 2.49441,9.06261 5.74701,10.56086 1.45897,0.67203 2.46901,0.73712 1.25845,0.0811 -0.47209,-0.25584 -0.78695,-0.53653 -0.69971,-0.62378 0.28192,-0.28192 4.00026,1.10696 5.48581,2.04909 1.02758,0.65165 1.38809,0.77212 1.25236,0.41843 -0.10482,-0.27316 -0.19058,-1.62222 -0.19058,-2.99791 l 0,-2.50125 -1.47673,0.14189 c -1.9619,0.18852 -3.31473,-0.30055 -5.04554,-1.8241 -2.58302,-2.27364 -4.56852,-6.32406 -3.78571,-7.72284 0.24555,-0.43876 0.33359,-0.38245 0.6181,0.39555 0.84504,2.31072 1.07504,2.79418 1.83282,3.85247 2.15538,3.01016 5.29161,4.70114 7.10199,3.82921 0.7448,-0.3587 0.93749,-0.70409 1.24881,-2.23854 0.20248,-0.9979 0.71854,-2.7834 1.1468,-3.96774 0.42825,-1.18436 0.77864,-2.35055 0.77864,-2.59155 0,-0.63639 -1.96822,-2.83619 -3.42905,-3.83247 -2.24631,-1.53204 -5.1971,-2.52404 -7.16979,-2.41041 -1.73055,0.0997 -2.57525,-0.17505 -1.87286,-0.60915 0.2582,-0.15957 0.0689,-0.65575 -0.65704,-1.72234 -2.54807,-3.74366 -4.48026,-4.52313 -10.55973,-4.25996 -3.94702,0.17084 -8.60345,0.60597 -8.75126,0.81774 -0.0498,0.0713 -0.35758,0.79873 -0.68404,1.61653 -0.66712,1.67117 -1.34955,2.16529 -1.34955,0.97716 0,-0.41883 0.11616,-1.07654 0.25812,-1.46159 0.14198,-0.38504 0.34653,-1.06581 0.45463,-1.51281 0.18858,-0.77993 0.15569,-0.80613 -0.8139,-0.64881 -2.10356,0.34138 -7.68212,-1.53377 -10.47107,-3.51969 -0.85801,-0.61095 -0.88551,-0.70726 -0.82759,-2.89788 0.0484,-1.83014 0.1471,-2.24918 0.51326,-2.17888 0.29918,0.0574 0.55626,0.70268 0.75599,1.89736 0.16646,0.99566 0.40349,1.96543 0.52674,2.15505 0.27632,0.42508 3.63609,1.79914 6.27745,2.5673 2.4873,0.72336 4.64108,0.38096 6.197,-0.98514 2.92763,-2.57051 3.37215,-10.60998 1.00106,-18.10517 -1.1299,-3.57176 -2.26393,-5.60392 -4.04148,-7.24242 -2.28534,-2.10657 -5.14203,-2.91308 -8.44672,-2.38475 -3.45963,0.55313 -5.63966,2.06446 -7.04935,4.88704 -1.55215,3.10791 -1.49317,7.28904 0.11318,8.02094 0.40436,0.18424 0.73521,0.54817 0.73521,0.80875 0,0.37798 -0.21471,0.4335 -1.06171,0.27461 -0.67353,-0.12635 -1.22634,-0.0626 -1.51199,0.17453 -0.58994,0.4896 -0.5882,2.78457 0.004,3.9278 0.47539,0.91928 2.22781,2.4198 2.82605,2.4198 0.19219,0 0.62159,0.27217 0.95425,0.6048 0.5046,0.50461 0.6018,0.99298 0.58675,2.94838 -0.0336,4.38877 -0.28234,5.14612 -2.26727,6.9073 l -1.75625,1.55829 1.43035,0.63271 c 1.46908,0.64985 3.22713,1.8636 2.69933,1.8636 -0.16271,0 -1.08687,-0.27216 -2.05371,-0.60478 -2.54165,-0.87446 -2.55319,-0.86894 -2.05251,0.98277 0.30988,1.14604 0.3918,2.72301 0.29448,5.66996 -0.14843,4.49491 -0.71785,6.88229 -2.39985,10.0619 l -0.9236,1.74597 0.61453,0.67321 c 0.33801,0.37027 0.90998,1.3536 1.27106,2.1852 1.85566,4.27378 5.83281,5.39464 11.90686,3.35565 4.99209,-1.67579 8.30355,-3.81839 9.9042,-6.40828 1.00487,-1.62593 0.7452,-4.16943 -0.72012,-7.05379 -1.30706,-2.57283 -1.11388,-3.3651 0.40007,-1.6408 1.59733,1.81926 2.57568,4.20735 2.53791,6.19495 -0.0659,3.47326 -1.92061,5.60536 -7.62476,8.76554 -4.42357,2.45073 -6.18101,3.06451 -8.81806,3.07967 -1.94418,0.0112 -2.56275,-0.12527 -4.27127,-0.94231 -2.45832,-1.17558 -4.32832,-3.09956 -4.63343,-4.7671 -0.11957,-0.65358 -0.41504,-1.49518 -0.65656,-1.87019 l -0.43918,-0.68188 -0.91211,1.03883 c -0.89641,1.02096 -0.90412,1.05792 -0.44855,2.14828 0.68299,1.63456 1.17709,7.43465 0.84442,9.9121 l -0.27644,2.05872 2.21679,2.02364 c 3.63318,3.31658 5.03354,6.6763 4.90428,11.76626 -0.1053,4.14688 0.48361,5.16143 3.64313,6.27617 0.73008,0.25758 1.37921,0.41654 1.44252,0.35321 0.18174,-0.18172 -1.1177,-3.317 -1.59414,-3.84632 -0.56668,-0.62955 -0.54903,-1.48817 0.0305,-1.48817 0.55184,0 2.04933,2.28085 2.76252,4.20764 0.2823,0.76268 0.56001,1.44623 0.61711,1.51897 0.21245,0.27068 4.63529,0.53641 9.64402,0.57937 4.25935,0.0366 5.57851,-0.0606 7.50282,-0.55279 z m -8.5824,-0.23493 c -1.22153,-0.61372 -2.29119,-2.08314 -2.74603,-3.77234 -0.41366,-1.53619 -0.27006,-2.19953 0.47616,-2.19953 0.48972,0 0.65433,0.30293 0.89135,1.64031 0.28064,1.58343 0.35648,1.68226 2.18647,2.84895 1.48674,0.94783 1.8238,1.29529 1.56224,1.61043 -0.44882,0.54081 -1.1104,0.50513 -2.37019,-0.12782 z m 8.52537,-4.66779 c -0.58192,-0.58191 -0.42866,-1.65239 0.36829,-2.57243 0.55223,-0.63751 0.82208,-0.76278 1.08541,-0.50391 0.26558,0.2611 0.25157,0.69471 -0.0579,1.79029 -0.43457,1.53868 -0.80339,1.87849 -1.39582,1.28605 z m -10.97384,-3.24641 c -0.78077,-0.78076 -1.25085,-2.44243 -0.69095,-2.44243 0.10614,0 0.78349,0.5443 1.50522,1.20958 0.72175,0.66526 1.45138,1.20959 1.62141,1.20959 0.17004,0 0.30917,0.20411 0.30917,0.4536 0,0.82692 -1.76417,0.55034 -2.74485,-0.43034 z m -10.37712,-2.47104 c -1.27555,-1.00335 -2.55405,-3.90258 -1.72094,-3.90258 0.15235,0 0.687,0.5177 1.18815,1.15042 1.27265,1.60685 2.80024,2.39632 3.77631,1.95159 0.41039,-0.18698 0.82778,-0.25835 0.92753,-0.15861 0.39077,0.39078 0.14606,0.90678 -0.58883,1.24162 -1.18361,0.5393 -2.68839,0.42064 -3.58222,-0.28243 z m 9.58186,-0.73961 c -0.84451,-0.50618 -1.21482,-0.9118 -1.10164,-1.20673 0.21135,-0.55077 0.6423,-0.54828 1.61776,0.01 1.1258,0.64356 2.63565,0.57442 3.01702,-0.13819 0.41839,-0.78177 1.93661,-1.0372 3.95969,-0.66618 1.91672,0.3515 3.01821,-0.0396 4.15312,-1.47434 0.64689,-0.8178 0.67413,-1.00572 0.378,-2.60762 -0.42854,-2.31826 -0.40325,-3.1272 0.0978,-3.1272 0.65823,0 1.24627,1.79758 1.24627,3.80978 0,3.33776 -1.09865,4.2944 -5.33485,4.64531 -2.05473,0.17019 -2.92369,0.38182 -3.58978,0.87429 -1.19329,0.88226 -2.84737,0.83816 -4.44339,-0.11846 z m 14.35461,-1.10897 c -0.74416,-0.55412 -1.07323,-2.35639 -0.43023,-2.35639 0.26442,0 0.6299,0.27867 0.81217,0.61926 0.18228,0.3406 0.67441,0.74968 1.09362,0.90906 0.4192,0.1594 0.70661,0.45905 0.63869,0.66592 -0.17357,0.52858 -1.48687,0.62931 -2.11425,0.16215 z m -19.91732,-2.74479 c -0.56513,-0.37992 -1.071,-0.99228 -1.12415,-1.3608 -0.11955,-0.8289 -0.15731,-0.83063 1.80539,0.083 2.05378,0.95609 2.23089,0.94819 3.32733,-0.14824 0.49896,-0.49894 1.03281,-0.90719 1.18633,-0.90719 0.50992,0 0.28854,1.41848 -0.34761,2.22721 -0.53568,0.68101 -0.85869,0.79676 -2.22326,0.79676 -1.1613,0 -1.87663,-0.1883 -2.62403,-0.69077 z m -8.9325,-3.31597 c -1.05379,-1.19166 -1.67204,-2.37797 -1.48852,-2.85623 0.13593,-0.35423 0.44802,-0.15946 1.32123,0.82451 1.12961,1.27292 1.15656,1.2839 2.25728,0.92065 1.09293,-0.36071 1.10494,-0.38154 0.6341,-1.10016 -0.48056,-0.73341 -0.38929,-1.64434 0.16475,-1.64434 0.16213,0 0.52837,0.3954 0.81386,0.87869 0.57912,0.98039 2.43178,2.14529 3.41186,2.14529 0.70327,0 0.84327,0.58216 0.27635,1.14911 -0.48685,0.48685 -1.29905,0.45723 -2.34891,-0.0857 -0.76663,-0.39647 -0.99203,-0.39647 -1.94085,0 -1.5011,0.62717 -2.40099,0.55988 -3.10115,-0.23188 z m 11.66186,-0.61161 c -0.56085,-0.37796 -1.22736,-1.06177 -1.48111,-1.51956 -0.4096,-0.73898 -0.41048,-0.86495 -0.008,-1.12258 0.7171,-0.45874 0.91721,-0.36098 1.25713,0.61416 0.68517,1.96542 1.71153,1.81238 5.80926,-0.86622 1.30859,-0.85539 2.94154,-1.70141 3.62879,-1.88004 0.68723,-0.17866 1.75408,-0.45544 2.37076,-0.61508 1.32662,-0.34343 1.49812,-0.57341 1.77468,-2.37956 0.15711,-1.02609 0.059,-1.77723 -0.38967,-2.9803 -0.70806,-1.89901 -0.49782,-2.35074 0.51256,-1.1013 1.32088,1.63342 1.66942,4.79265 0.72369,6.55977 -0.47103,0.88013 -1.62289,1.46283 -3.78648,1.9155 -1.72799,0.36155 -2.26029,0.63532 -3.42042,1.75917 -0.75568,0.73207 -1.80946,1.54976 -2.34173,1.81713 -1.41617,0.71136 -3.42461,0.62447 -4.64967,-0.20109 z m -11.57609,-3.5549 c -1.40056,-0.4197 -2.00871,-1.16373 -2.00871,-2.45751 0,-1.39621 0.2719,-1.45916 1.15326,-0.26704 0.75671,1.02346 2.51398,1.62165 3.93127,1.33819 l 0.93282,-0.18657 -1.04309,-0.98375 c -1.04989,-0.99018 -1.40223,-2.27315 -0.62427,-2.27315 0.23035,0 0.62967,0.32181 0.88737,0.71512 0.48656,0.74255 2.41536,1.40167 4.10184,1.40167 0.97341,0 1.49289,0.47759 1.02665,0.94382 -0.15749,0.1575 -0.9553,0.39998 -1.77292,0.53888 -0.81762,0.13887 -2.09894,0.5395 -2.84737,0.89026 -1.44546,0.67742 -2.33965,0.7588 -3.73685,0.34008 z m 13.8437,-1.30436 c -0.48018,-1.25136 0.008,-2.13781 1.68665,-3.06949 1.4439,-0.80089 1.80273,-1.19651 2.72157,-3.00057 1.29336,-2.53939 2.48118,-3.32378 3.76219,-2.48443 1.13301,0.74239 0.94729,1.11983 -0.50572,1.02774 l -1.27952,-0.0812 -0.35033,1.39615 c -0.51162,2.03892 -1.13255,2.80221 -3.15763,3.88156 -1.58042,0.84237 -1.80068,1.06729 -1.72774,1.7643 0.0935,0.89413 -0.846,1.35666 -1.14947,0.56582 z m 11.25905,-7.40483 c -0.67275,-0.74339 -0.65599,-1.38991 0.0286,-1.10895 0.96563,0.39622 1.41191,0.30782 1.53295,-0.30363 0.31774,-1.60507 1.42287,-1.76044 3.4369,-0.48318 1.5264,0.96803 1.88974,1.38697 1.60392,1.84942 -0.11911,0.19273 -0.49337,0.10239 -1.00064,-0.24153 -0.44569,-0.30217 -1.17199,-0.70423 -1.614,-0.89344 -0.74041,-0.31697 -0.81961,-0.28036 -1.00677,0.46531 -0.11173,0.44514 -0.36244,0.91067 -0.55716,1.03453 -0.64449,0.41 -1.9158,0.24292 -2.42393,-0.31854 z m -13.04997,-18.40295 c -0.33265,-0.0755 -1.58191,-0.53593 -2.77616,-1.02332 -1.57828,-0.64413 -2.67266,-0.88617 -4.00676,-0.88617 -1.41938,0 -1.8354,-0.1015 -1.8354,-0.44783 0,-1.14026 4.02438,-0.82201 7.40873,0.58587 1.0489,0.43636 2.4204,0.75782 3.25077,0.76197 1.02273,0.006 1.43639,0.1285 1.43639,0.42843 0,0.71416 -1.66426,0.99222 -3.47757,0.58105 z m 5.39574,-1.47043 c -0.20207,-0.52661 0.46761,-1.15925 1.91789,-1.81182 0.5298,-0.23837 1.20299,-0.83925 1.49598,-1.33525 0.29298,-0.49599 0.7223,-0.97455 0.954,-1.06346 0.89531,-0.34356 0.94943,0.24404 0.153,1.66084 -0.71021,1.26345 -0.9959,1.50377 -1.98677,1.67118 -0.64717,0.10933 -1.31572,0.44921 -1.51672,0.77109 -0.43564,0.69754 -0.77709,0.73361 -1.01738,0.10742 z m 8.06096,-2.56047 c -0.4032,-0.26468 -0.4032,-0.33087 0,-0.59552 0.59997,-0.39387 2.41918,-0.39173 2.41918,0.003 0,0.17042 -0.34907,0.44259 -0.77569,0.6048 -0.9528,0.36226 -1.07458,0.36136 -1.64349,-0.0122 z m -18.56556,-3.3343 c -1.22283,-1.07366 -2.60227,-3.29965 -2.60227,-4.19925 0,-1.12767 0.7408,-0.65627 1.51199,0.96211 0.50631,1.06255 1.22391,1.93108 2.17279,2.62984 0.77926,0.57385 1.34955,1.15219 1.26735,1.28521 -0.31198,0.5048 -1.34089,0.20798 -2.34986,-0.67791 z m -16.85812,47.99458 c 0.18331,-0.22087 0.46261,-1.27549 0.62067,-2.34358 0.15806,-1.0681 0.63711,-2.81828 1.06454,-3.88931 0.80464,-2.01626 0.95857,-2.58733 0.50392,-1.8695 -0.14519,0.2292 -0.41526,0.32322 -0.60017,0.20893 -0.49532,-0.30612 -0.40881,-2.39756 0.15775,-3.81356 0.95402,-2.38432 0.1708,-5.31448 -2.25881,-8.45061 -1.07026,-1.38151 -1.17178,-1.43553 -2.98587,-1.58838 -3.07831,-0.25939 -5.31103,-1.94434 -7.00382,-5.28545 -2.06937,-4.08437 -2.0437,-11.49625 0.0579,-16.69912 0.80686,-1.9976 0.76634,-2.10945 -0.97708,-2.69682 -2.31192,-0.77891 -3.67337,-2.53539 -2.19357,-2.83002 0.41825,-0.0833 0.36503,-0.23973 -0.31438,-0.92441 -1.50884,-1.52049 -3.25785,-0.8645 -5.87228,2.20247 -2.20348,2.58489 -2.94553,4.03991 -2.73186,5.35659 0.0917,0.56446 1.01788,2.68533 2.05841,4.71307 1.04051,2.02772 2.20175,4.29912 2.58049,5.04754 0.73486,1.45213 1.29863,5.26393 1.30302,8.80997 0.004,2.99357 1.13356,10.89502 1.88821,13.20493 0.36399,1.11415 1.35362,3.04631 2.19917,4.29371 1.42537,2.10278 1.67951,2.32416 3.48899,3.03942 1.26034,0.4982 2.39108,1.2241 3.19226,2.04933 0.90687,0.93414 1.59833,1.34815 2.57037,1.53902 1.99372,0.39148 2.88253,0.3712 3.2522,-0.0742 z m -4.74193,-3.08615 c -1.78261,-0.80975 -1.82742,-1.35303 -0.11102,-1.34616 1.47056,0.007 2.60493,0.60517 2.72477,1.43949 0.12651,0.88088 -0.51996,0.8578 -2.61375,-0.0933 z m 1.30404,-8.11748 c -0.74796,-1.14151 -1.0549,-2.58729 -1.0549,-4.96893 0,-2.10739 0.33044,-3.38409 0.87588,-3.38409 0.13739,0 0.31817,1.19901 0.40172,2.66443 0.15465,2.71209 0.44187,3.61995 1.52001,4.80453 0.33552,0.36863 0.52507,0.874 0.42531,1.13398 -0.27976,0.72902 -1.62849,0.57356 -2.16802,-0.24992 z m -10.98043,-27.8006 c -0.47849,-0.50932 -1.27672,-0.82671 -2.7345,-1.08722 -1.13233,-0.20235 -2.45519,-0.60949 -2.93972,-0.90473 -1.03379,-0.62998 -1.79378,-1.90734 -1.5354,-2.58068 0.29796,-0.77646 1.11685,-0.53903 1.45147,0.42085 0.34754,0.99693 0.43419,1.03485 3.48274,1.52423 2.38215,0.38241 4.18626,1.56793 3.98402,2.61801 -0.15773,0.81914 -0.94391,0.82353 -1.70861,0.01 z m 21.79462,34.26768 c 0.93277,-0.002 1.13399,-0.1103 1.13399,-0.6094 0,-0.33375 -0.36457,-0.91208 -0.81013,-1.28521 -0.44559,-0.37311 -1.32877,-1.13527 -1.96262,-1.69368 -0.81481,-0.71783 -1.19157,-0.89501 -1.28592,-0.60478 -0.0733,0.22576 -0.35505,1.15891 -0.62584,2.07366 -0.27079,0.91476 -0.57065,1.85442 -0.66636,2.08815 -0.14223,0.34737 0.12331,0.38926 1.45446,0.22942 0.89564,-0.10752 2.13873,-0.19671 2.76242,-0.19816 z m -4.42886,-5.66628 c -0.10049,-0.10048 -0.17195,0.0781 -0.15883,0.39691 0.0145,0.35227 0.0861,0.42391 0.1827,0.1827 0.0873,-0.21831 0.0766,-0.47912 -0.0238,-0.57961 z m 0.30239,-1.20959 c -0.10047,-0.10048 -0.17195,0.0782 -0.15882,0.3969 0.0145,0.35228 0.0862,0.42394 0.1827,0.1827 0.0873,-0.21828 0.0766,-0.47911 -0.0238,-0.5796 z m 0.3024,-1.20957 c -0.10048,-0.10049 -0.17195,0.0781 -0.15881,0.39688 0.0145,0.35228 0.0861,0.42392 0.18268,0.18272 0.0873,-0.21831 0.0766,-0.47914 -0.0238,-0.5796 z m 0.13762,-6.71229 c -0.17299,-1.09337 -0.45635,-2.49114 -0.62966,-3.10614 l -0.31516,-1.1182 -1.05849,0.71831 c -0.58216,0.39507 -1.19886,0.76511 -1.37042,0.8223 -0.17157,0.0571 0.27827,0.98557 0.99962,2.06305 1.29003,1.92693 2.29892,4.43331 2.41541,6.00059 0.0327,0.43828 0.10739,-0.14563 0.16624,-1.29757 0.0589,-1.15193 -0.0345,-2.98899 -0.20754,-4.08234 z m 67.46324,4.1463 c 0.13565,-0.21378 0.24872,-0.82822 0.25128,-1.36542 0.002,-0.53719 0.55514,-2.35854 1.22799,-4.04746 2.77813,-6.97319 3.1495,-11.89293 1.44695,-19.16764 -0.57326,-2.44937 -0.76532,-2.84254 -1.92026,-3.93115 -2.65171,-2.4994 -3.92493,-6.27354 -3.87654,-11.49112 0.0371,-4.00662 0.6835,-7.09558 2.0483,-9.78887 0.94853,-1.87184 0.95785,-2.08791 0.0954,-2.21041 -0.47414,-0.0674 -0.77098,-0.40475 -0.97919,-1.11301 -0.29301,-0.9967 -0.32522,-1.01315 -1.66317,-0.85 -2.07577,0.25313 -4.40524,1.10325 -5.43396,1.98311 -1.0647,0.91062 -1.61431,2.75606 -0.82084,2.75606 0.26244,0 0.82376,0.15791 1.24739,0.35094 0.61351,0.27953 0.77022,0.568 0.77022,1.41781 l 0,1.06685 -0.61658,-0.6618 c -0.71532,-0.76782 -1.42402,-0.82809 -2.82978,-0.24075 -1.61996,0.67687 -2.08979,2.70497 -1.26305,5.45204 0.58427,1.94136 1.50157,3.20193 3.22616,4.43343 1.64483,1.17451 1.93323,1.62767 1.3705,2.15333 -0.32424,0.3029 -0.3224,0.60784 0.0104,1.71349 0.964,3.20312 0.25821,9.79997 -1.53718,14.36775 -1.48053,3.76677 -1.81328,5.57219 -1.76411,9.57162 0.0454,3.69299 0.25837,4.61616 1.47179,6.38019 0.60717,0.88269 1.10303,1.19624 2.52083,1.59407 0.97073,0.27238 2.23499,0.81418 2.80942,1.204 0.57444,0.38982 1.2355,0.79063 1.46903,0.89069 0.65018,0.27858 2.46182,-0.0308 2.73906,-0.46775 z m -4.17731,-2.52269 c -0.10635,-0.27713 0.18304,-0.92018 0.70349,-1.56322 1.17825,-1.45576 1.79717,-1.83387 2.25403,-1.377 0.27219,0.27218 0.0827,0.71286 -0.80982,1.88317 -1.19725,1.56994 -1.83116,1.88194 -2.1477,1.05705 z m -3.91083,-3.6322 c -0.63378,-1.51685 -0.29675,-4.44795 0.68756,-5.97947 0.88057,-1.37013 1.15316,-1.31478 0.63985,0.12991 -0.20163,0.56752 -0.37235,2.35786 -0.37937,3.97856 -0.008,1.6207 -0.12174,2.94746 -0.25497,2.94838 -0.13323,8.6e-4 -0.4451,-0.48392 -0.69307,-1.07738 z m 2.39974,-20.25485 c -0.10829,-0.28224 -0.0404,-1.55101 0.15077,-2.81952 0.19123,-1.26851 0.26244,-2.81668 0.15827,-3.44038 -0.15364,-0.91971 -0.0973,-1.13399 0.29797,-1.13399 0.26807,0 0.54934,0.30617 0.62505,0.68039 0.26574,1.31351 0.40042,5.52663 0.20055,6.27316 -0.2388,0.89189 -1.15166,1.17249 -1.43261,0.44034 z m -0.0415,-8.61788 c -0.89983,-0.36114 -1.68098,-2.23406 -1.47113,-3.52725 0.17611,-1.08529 1.25832,-2.8087 1.76371,-2.8087 0.31034,0 0.21454,1.41813 -0.20661,3.05862 -0.16484,0.64209 -0.0189,0.96262 0.77655,1.70608 1.44871,1.35393 0.9337,2.29214 -0.86252,1.57125 z M 847.92314,313.081 c 2.60055,-1.18084 5.44942,-4.78325 6.83285,-8.64021 1.71135,-4.77125 1.82779,-9.43836 0.33589,-13.4633 -2.33313,-6.29445 -7.70659,-7.52923 -12.25043,-2.815 -2.88768,2.99597 -4.40184,6.49937 -5.078,11.74939 -0.7459,5.79139 1.2488,11.27783 4.77823,13.14255 1.42613,0.75348 3.75525,0.76499 5.38146,0.0265 z m -20.11731,-7.1539 1.12023,-0.77632 -2.42128,-4.73977 c -1.42498,-2.78944 -2.48788,-5.26571 -2.58309,-6.018 -0.46429,-3.66756 5.74485,-10.21745 9.16044,-9.66318 0.98896,0.16049 1.05275,0.1245 0.86954,-0.49065 -0.37219,-1.24957 -1.62351,-3.15102 -2.68977,-4.08719 -2.87627,-2.52542 -6.71141,-1.82772 -9.98844,1.81714 -2.50917,2.79079 -4.08222,6.56166 -4.71223,11.29597 -0.84529,6.35188 1.84931,12.54782 5.90482,13.57755 1.85968,0.47218 3.82306,0.13555 5.33978,-0.91555 z m 100.58538,-13.08985 c 1.70806,-0.87137 4.7264,-4.24406 5.77559,-6.4536 1.31414,-2.76739 1.87109,-5.11916 2.06156,-8.70504 0.25636,-4.82588 -0.95816,-8.68023 -3.4423,-10.92453 -3.81871,-3.44994 -9.11943,-1.25912 -12.44461,5.14343 -1.37988,2.65693 -2.01992,4.90197 -2.42195,8.49547 -0.38295,3.4228 -0.004,5.63483 1.49198,8.69434 1.2426,2.54247 2.42618,3.78507 4.12212,4.3277 1.21888,0.39 3.49018,0.11984 4.85761,-0.57777 z m -20.57386,-7.61466 c 0.56923,-0.35549 0.5548,-0.40578 -0.37632,-1.31086 -1.35385,-1.31601 -2.30067,-3.81444 -2.48078,-6.54623 -0.14071,-2.1344 -0.0993,-2.33918 0.65415,-3.23461 0.44241,-0.52576 1.07056,-1.04042 1.39587,-1.14366 0.42349,-0.13442 0.59185,-0.46115 0.59266,-1.15017 0.002,-2.18068 2.32947,-4.23395 6.09944,-5.38222 l 2.01822,-0.6147 -0.45744,-1.54033 c -1.02744,-3.45978 -2.29409,-5.36228 -4.17693,-6.27376 -6.09145,-2.94882 -12.83232,5.37974 -12.96913,16.02379 -0.0929,7.23621 3.05609,12.10579 7.55773,11.68676 0.85283,-0.0793 1.81696,-0.31068 2.14253,-0.51401 z"
       id="path3040"
       inkscape:connector-curvature="0" />
  </g>
</svg>
