<?xml version="1.0" encoding="UTF-8" standalone="no"?>
<!-- Created with Inkscape (http://www.inkscape.org/) -->

<svg
   xmlns:dc="http://purl.org/dc/elements/1.1/"
   xmlns:cc="http://creativecommons.org/ns#"
   xmlns:rdf="http://www.w3.org/1999/02/22-rdf-syntax-ns#"
   xmlns:svg="http://www.w3.org/2000/svg"
   xmlns="http://www.w3.org/2000/svg"
   xmlns:xlink="http://www.w3.org/1999/xlink"
   xmlns:sodipodi="http://sodipodi.sourceforge.net/DTD/sodipodi-0.dtd"
   xmlns:inkscape="http://www.inkscape.org/namespaces/inkscape"
   width="202.60559"
   height="158.22046"
   id="svg2"
   version="1.1"
   inkscape:version="0.48.3.1 r9886"
   sodipodi:docname="Back-extension-on-stability-ball-2.svg"
   inkscape:export-filename="/home/christian/Dokumente/Code/workspace/opentraining-exercises/Back-extension-on-stability-ball-2.png"
   inkscape:export-xdpi="214"
   inkscape:export-ydpi="214">
  <defs
     id="defs4">
    <radialGradient
       gradientUnits="userSpaceOnUse"
       gradientTransform="matrix(1,0,0,0.91819829,-19.285714,-7.9105395)"
       r="209.56604"
       fy="287.50052"
       fx="398.1105"
       cy="287.50052"
       cx="398.1105"
       id="radialGradient5255"
       xlink:href="#linearGradient5249"
       inkscape:collect="always" />
    <linearGradient
       id="linearGradient5249"
       inkscape:collect="always">
      <stop
         id="stop5251"
         offset="0"
         style="stop-color:#e3e3e3;stop-opacity:1;" />
      <stop
         id="stop5253"
         offset="1"
         style="stop-color:#e3e3e3;stop-opacity:0;" />
    </linearGradient>
  </defs>
  <sodipodi:namedview
     id="base"
     pagecolor="#ffffff"
     bordercolor="#666666"
     borderopacity="1.0"
     inkscape:pageopacity="0.0"
     inkscape:pageshadow="2"
     inkscape:zoom="2.8"
     inkscape:cx="125.55158"
     inkscape:cy="81.225892"
     inkscape:document-units="px"
     inkscape:current-layer="layer1"
     showgrid="false"
     showguides="true"
     inkscape:guide-bbox="true"
     fit-margin-top="0"
     fit-margin-left="0"
     fit-margin-right="0"
     fit-margin-bottom="0"
     inkscape:window-width="830"
     inkscape:window-height="692"
     inkscape:window-x="256"
     inkscape:window-y="189"
     inkscape:window-maximized="0">
    <sodipodi:guide
       orientation="-0.70710678,0.70710678"
       position="-1770.8042,555.15896"
       id="guide2985" />
  </sodipodi:namedview>
  <metadata
     id="metadata7">
    <rdf:RDF>
      <cc:Work
         rdf:about="">
        <dc:format>image/svg+xml</dc:format>
        <dc:type
           rdf:resource="http://purl.org/dc/dcmitype/StillImage" />
        <dc:title></dc:title>
      </cc:Work>
    </rdf:RDF>
  </metadata>
  <g
     inkscape:label="Ebene 1"
     inkscape:groupmode="layer"
     id="layer1"
     transform="translate(-342.23277,-423.58638)">
    <path
       style="fill:#000000"
       d="m 342.86119,580.2963 c -0.65524,-0.65525 -0.67387,-0.73072 -0.59713,-2.41879 0.0681,-1.49818 0.1673,-1.85792 0.70759,-2.56625 0.34561,-0.45313 1.11541,-1.15183 1.71068,-1.55271 0.69104,-0.46538 1.48874,-1.3322 2.20661,-2.39783 2.05054,-3.0439 2.94645,-3.87398 6.36805,-5.90012 1.73772,-1.02899 3.61586,-2.22045 4.17365,-2.64767 1.2792,-0.97976 2.56537,-2.64362 3.92083,-5.07224 0.97083,-1.73941 1.52916,-2.59811 3.6023,-5.54023 0.39537,-0.5611 1.07731,-1.94527 1.51539,-3.07593 0.66497,-1.71621 0.99171,-2.24032 1.97814,-3.17326 1.85792,-1.75714 2.79375,-2.14162 4.86687,-1.99952 2.87179,0.19684 4.99825,1.75217 6.66115,4.87209 0.83438,1.56545 3.05087,3.67247 4.1986,3.99121 1.36661,0.37954 4.28118,0.27778 6.21578,-0.21701 0.97114,-0.24837 3.46866,-1.20875 5.55004,-2.13419 5.4358,-2.41687 6.39595,-2.65659 10.62643,-2.65299 3.00356,0.003 3.63561,0.0674 4.76889,0.48954 1.50726,0.56137 3.03352,1.48251 4.97999,3.00557 0.75459,0.59042 1.46488,1.07351 1.5784,1.07351 0.11354,0 0.43308,-0.40326 0.71009,-0.89615 0.44735,-0.79596 0.52371,-1.35166 0.68297,-4.97029 0.0986,-2.24078 0.11666,-4.09968 0.04,-4.13089 -0.0765,-0.0312 -0.47569,-0.26183 -0.88694,-0.51253 -0.61408,-0.37435 -0.72335,-0.5529 -0.61136,-0.99909 0.12044,-0.47992 -6.9e-4,-0.61215 -1.03936,-1.13386 -0.64663,-0.32483 -1.19804,-0.60922 -1.22535,-0.63199 -0.0977,-0.0814 0.81562,-3.65136 1.83011,-7.15411 1.17136,-4.0444 1.90209,-7.9903 1.90492,-10.28638 8.8e-4,-0.86003 0.15575,-3.09702 0.34374,-4.97109 0.51435,-5.12744 1.67523,-8.6853 3.97797,-12.19186 2.12829,-3.24089 2.77369,-3.81708 6.04628,-5.39788 1.6081,-0.77678 3.67774,-1.63293 4.59919,-1.90255 4.81644,-1.40927 5.95335,-1.8423 7.09245,-2.70135 0.64502,-0.48644 1.17277,-0.97711 1.17277,-1.09035 0,-0.11325 0.47493,-0.56855 1.0554,-1.01178 0.88015,-0.67204 1.2114,-0.79627 1.99472,-0.7481 0.82435,0.0506 1.20261,-0.11544 3.09073,-1.35747 2.64124,-1.73745 6.03634,-3.2611 9.70477,-4.35528 3.50004,-1.04396 5.16216,-1.80201 6.71616,-3.06306 4.02637,-3.26736 13.03735,-9.60624 16.55973,-11.64914 3.66605,-2.12624 7.36542,-3.83738 9.78732,-4.52713 1.80342,-0.51361 2.38748,-0.58349 4.02091,-0.48117 1.09648,0.0686 2.72035,0.3677 3.80979,0.70152 4.29469,1.31593 4.43639,1.33584 5.81947,0.81805 0.68207,-0.25536 1.56299,-0.7974 1.95763,-1.20456 0.63807,-0.65833 0.79375,-1.0966 1.4065,-3.95943 0.736,-3.43868 1.36299,-4.95974 2.99082,-7.25553 2.55431,-3.60245 5.4524,-5.01709 10.27567,-5.01585 4.25763,8.8e-4 7.59819,1.18321 9.90866,3.5063 1.78094,1.7907 4.37872,5.75423 4.9061,7.48543 0.63073,2.07053 1.01203,4.9389 0.86534,6.50975 -0.35963,3.85107 -3.7936,9.99193 -8.28534,14.81634 -4.06492,4.36596 -7.37546,5.85193 -10.02842,4.50133 -0.51728,-0.26333 -1.81565,-1.35992 -2.8853,-2.43685 l -1.9448,-1.95806 -2.14441,0.66398 c -1.24979,0.38698 -2.19965,0.80795 -2.27682,1.00903 -0.0728,0.18978 0.0348,0.87518 0.23895,1.52313 0.41627,1.32054 0.37482,1.50974 -0.67137,3.06437 -0.68582,1.01911 -1.35121,2.77806 -1.13334,2.99594 0.0514,0.0514 1.28935,0.3865 2.75114,0.74479 6.52894,1.60032 12.79054,4.3955 16.9493,7.5662 1.99852,1.52371 4.73412,4.39248 6.33773,6.64622 1.71416,2.40913 4.15183,7.25207 5.1201,10.1721 2.54244,7.66735 4.0654,17.07419 3.77519,23.31826 -0.15288,3.28956 -1.01928,9.22543 -1.71175,11.72766 -1.63402,5.90448 -4.53034,10.87849 -9.13049,15.68032 -2.99489,3.12617 -4.62848,4.34083 -8.18325,6.08471 -4.17178,2.04654 -7.38722,3.02998 -14.18488,4.33841 -5.96063,1.14732 -7.25584,1.26168 -14.18489,1.25258 -8.97948,-0.0117 -15.00877,-0.78889 -20.964,-2.70196 -7.82314,-2.51311 -15.77184,-8.09933 -19.18776,-13.48486 -2.34913,-3.70361 -4.06251,-8.51094 -4.85661,-13.62642 -0.40131,-2.58523 -0.25759,-2.41156 -1.79123,-2.16457 -1.54254,0.24842 -1.30404,-0.21602 -2.45792,4.78623 -0.39007,1.69104 -0.96016,3.81866 -1.26684,4.72803 -1.00423,2.97766 -4.20278,9.51192 -5.97656,12.20935 -0.94498,1.43705 -1.92073,3.15427 -2.16833,3.81603 -1.01461,2.71179 -2.75254,4.5811 -5.52994,5.94799 -1.39868,0.68834 -1.58744,0.72188 -4.04038,0.71771 -1.95315,-0.004 -2.84773,-0.10528 -3.71274,-0.42311 -1.08647,-0.39924 -1.21138,-0.40142 -2.6806,-0.0468 -2.56725,0.61956 -4.67313,0.79541 -9.58285,0.80021 -7.33937,0.007 -12.19684,-0.50868 -17.87072,-1.89788 -1.72005,-0.42113 -5.18809,-1.06929 -7.70674,-1.44032 -2.51866,-0.37104 -5.3333,-0.818 -6.25476,-0.99324 -0.94965,-0.18061 -3.94932,-0.3801 -6.92491,-0.46053 -5.97209,-0.16142 -7.10663,-0.006 -12.17442,1.66833 -3.51147,1.16012 -7.52494,2.01598 -10.16398,2.16745 -1.92368,0.1104 -2.27261,0.20302 -3.73116,0.99037 -2.03055,1.09611 -2.95503,1.14163 -3.90444,0.19223 z m 3.51417,-1.53693 c 0.11672,-0.11154 0.69444,-0.46925 1.28381,-0.7949 0.89423,-0.49408 1.77337,-0.68246 5.31101,-1.13799 3.07652,-0.39614 4.89654,-0.75655 6.63514,-1.31392 4.98474,-1.59803 5.57542,-1.6984 11.44281,-1.94451 7.2375,-0.30358 9.91239,-0.005 22.33839,2.49182 8.12109,1.63195 9.71891,1.81249 17.20368,1.94384 4.96167,0.087 7.0067,0.0417 8.26521,-0.18355 0.91975,-0.1646 2.52671,-0.27667 3.57103,-0.24906 6.6591,0.17613 6.52846,0.18174 8.23241,-0.35357 2.47756,-0.77838 3.14027,-1.52777 5.85297,-6.61848 0.38878,-0.72959 1.23689,-2.08665 1.8847,-3.01568 2.19946,-3.15429 3.78764,-6.52112 5.79086,-12.27622 0.73691,-2.1171 1.85242,-7.08838 1.63856,-7.30224 -0.0526,-0.0526 -1.6448,0.0152 -3.53821,0.15067 -7.12593,0.50991 -11.23756,-0.32092 -18.50096,-3.73839 -1.40189,-0.6596 -2.60816,-1.13976 -2.68061,-1.06702 -0.0725,0.0728 -0.13866,3.06391 -0.14716,6.64708 -0.015,6.30385 -0.0322,6.55299 -0.53233,7.69276 -0.28429,0.64785 -0.80967,1.42426 -1.16749,1.72535 -0.70693,0.59484 -2.16524,1.07351 -2.93498,0.96337 -0.67491,-0.0966 -0.768,-0.79591 -0.11842,-0.88956 0.94665,-0.13647 -3.07961,-1.29471 -5.36493,-1.54332 -1.21703,-0.1324 -3.55834,-0.20759 -5.20292,-0.16709 l -2.99016,0.0736 -3.34616,1.61574 c -1.84039,0.88865 -3.89905,1.74039 -4.57478,1.89271 -0.70969,0.16 -2.7382,0.27369 -4.80276,0.26919 -3.66724,-0.008 -4.97692,-0.19617 -8.34387,-1.19889 -1.57824,-0.47002 -1.59889,-0.48641 -3.36936,-2.67261 -2.95441,-3.6482 -4.99604,-5.08258 -7.56594,-5.31562 -2.85662,-0.25903 -4.96281,1.18992 -6.72668,4.62764 -2.29447,4.47178 -5.4563,7.67103 -9.95898,10.07684 -2.07325,1.10775 -4.38564,3.27536 -5.40807,5.06947 -0.41384,0.7262 -0.9678,1.34056 -1.43109,1.58716 -0.41574,0.22129 -1.29363,1.03291 -1.95086,1.8036 -1.04536,1.22582 -1.17783,1.48859 -1.05807,2.09868 0.0753,0.38357 0.30555,0.82307 0.51167,0.97664 0.43684,0.32549 1.44588,0.3695 1.75254,0.0764 z m 77.9948,-3.51254 c -0.5891,-0.5891 0.38975,-2.3291 1.82081,-3.23665 1.12667,-0.71451 1.76841,-0.81423 1.96376,-0.30514 0.17128,0.44632 -0.26122,0.93931 -1.28005,1.45907 -0.51798,0.26426 -0.98657,0.74209 -1.24356,1.26814 -0.39414,0.80675 -0.92551,1.15003 -1.26096,0.81458 z m -24.95228,-5.34378 c -1.81529,-0.38962 -3.23505,-0.91966 -3.58148,-1.33709 -0.30175,-0.36358 -0.1115,-1.44313 0.25432,-1.44313 0.13114,0 0.65697,0.29169 1.16849,0.64821 1.4118,0.98397 2.90991,1.25153 6.96143,1.24326 3.07781,-0.006 3.80258,-0.078 5.2191,-0.51676 1.71726,-0.53187 2.26427,-0.51215 2.26427,0.0817 0,1.30857 -8.22697,2.19504 -12.28613,1.32383 z m 29.36717,-0.11232 c -0.27823,-0.45016 0.11689,-1.27229 0.73099,-1.52098 0.33943,-0.13746 1.58264,-0.49252 2.76268,-0.78901 2.72466,-0.68461 3.59464,-1.14214 5.10681,-2.68571 1.2784,-1.30495 2.01809,-1.59194 2.01809,-0.78299 0,0.65109 -2.35483,3.05002 -3.62799,3.69591 -0.5825,0.29551 -1.69751,0.68537 -2.47782,0.86633 -0.78032,0.18096 -1.99035,0.58181 -2.68898,0.89078 -1.42159,0.62869 -1.61515,0.66326 -1.82378,0.32567 z m -11.66397,-4.92774 c -0.15358,-0.1577 -0.27925,-0.48165 -0.27925,-0.71986 0,-0.39389 0.12126,-0.42212 1.3389,-0.31171 1.12998,0.10246 1.44764,0.0463 2.03575,-0.35989 1.01043,-0.69789 2.16937,-2.71677 2.45828,-4.28237 0.13569,-0.73523 0.2896,-1.56929 0.34205,-1.85347 0.0762,-0.41278 0.21735,-0.50263 0.70188,-0.44677 0.4958,0.0572 0.6188,0.19595 0.67385,0.76028 0.087,0.8905 -0.87659,3.45512 -1.85229,4.93059 -1.15713,1.74984 -2.12198,2.38611 -3.77061,2.48654 -0.91786,0.0559 -1.4614,-0.0111 -1.64856,-0.20334 z m -43.94498,-1.65793 c -0.73397,-0.5573 -1.56395,-1.07086 -1.84439,-1.14125 -1.0038,-0.25194 -2.02087,0.12707 -2.80767,1.04628 -1.19539,1.39652 -2.22718,0.96793 -1.39406,-0.57909 0.91264,-1.69466 2.32123,-2.37518 4.19045,-2.02452 0.87234,0.16366 4.4923,2.93118 4.36026,3.33353 -0.20152,0.61415 -1.18933,0.36373 -2.50459,-0.63495 z m 129.66858,14.39006 c 1.41289,-0.1291 4.17728,-0.53417 6.14306,-0.9002 11.34431,-2.11222 16.92156,-4.63727 22.02919,-9.97356 5.11148,-5.3403 8.11076,-10.97565 9.33498,-17.53951 0.8473,-4.54286 0.9791,-5.69121 1.08195,-9.42724 0.15746,-5.71976 -0.62153,-11.17799 -2.65237,-18.5847 -1.44692,-5.27705 -3.03703,-8.93325 -5.50901,-12.66693 -1.41406,-2.13583 -5.77768,-6.49275 -7.96528,-7.95307 -2.16085,-1.44245 -6.34261,-3.4509 -9.50625,-4.56576 -2.29286,-0.80798 -7.14597,-2.12947 -7.82481,-2.13068 -0.23695,-3.4e-4 -0.46838,0.49504 -0.75623,1.61893 -0.22812,0.89076 -0.64561,2.14424 -0.92772,2.78554 -0.93523,2.12589 -3.59456,4.49453 -6.90997,6.15464 -1.36325,0.68262 -1.70007,0.98271 -2.62768,2.34111 -0.58518,0.85697 -1.76493,2.3509 -2.62166,3.31986 -0.85672,0.96896 -1.55907,1.87273 -1.56077,2.00839 -0.002,0.13565 0.20512,1.59324 0.45962,3.23906 0.33446,2.16289 0.47219,4.19995 0.49684,7.34841 0.0322,4.11349 0.002,4.4617 -0.549,6.25475 -1.20146,3.9124 -1.27317,4.78072 -0.84957,10.28686 0.41567,5.40297 1.03818,8.02071 2.12578,8.93911 0.2085,0.17608 1.44637,0.87301 2.75082,1.54875 2.76765,1.43371 3.5601,2.29699 4.26246,4.64336 0.24691,0.82483 0.86295,2.20336 1.36902,3.06338 1.45627,2.47488 2.21705,4.07563 2.21705,4.66483 0,0.92109 -1.16191,1.70187 -2.53021,1.70024 -0.63559,-6.9e-4 -1.42793,-0.14344 -1.76075,-0.31706 -0.60503,-0.31565 -0.6051,-0.3156 -0.47501,0.3923 0.0715,0.38939 0.61362,1.864 1.20457,3.2769 1.21356,2.90147 1.49388,4.36074 1.1109,5.78301 -0.20255,0.7522 -0.40737,1.02422 -0.91566,1.21607 -0.50267,0.18975 -0.65475,0.38805 -0.65475,0.85379 0,1.08555 -0.40431,1.7577 -1.27651,2.12212 -1.00215,0.41873 -2.58925,0.26602 -3.41456,-0.32853 -0.47964,-0.34553 -0.63728,-0.36151 -1.11692,-0.11323 -1.34927,0.69843 -3.18851,0.0813 -4.0354,-1.35411 -0.35078,-0.59454 -0.63318,-0.78248 -1.34738,-0.89668 -1.1574,-0.18508 -2.90669,-1.87907 -3.67628,-3.56008 -0.56112,-1.22566 -1.74104,-5.5296 -2.00033,-7.29651 -0.0812,-0.55287 -0.38013,-1.75914 -0.66445,-2.68061 -0.28432,-0.92145 -0.62347,-2.42929 -0.75366,-3.35076 -0.41627,-2.94624 -0.72064,-5.19116 -1.01463,-7.48336 -0.30633,-2.38865 -0.42441,-2.71545 -3.11696,-8.62777 -0.93011,-2.04232 -1.89916,-4.45488 -2.15343,-5.36121 -1.07772,-3.84141 -1.30586,-10.425 -0.66693,-19.24573 0.15484,-2.13755 0.12593,-2.84881 -0.15408,-3.79171 -0.20786,-0.69996 -0.30487,-1.64053 -0.24439,-2.36975 l 0.10029,-1.20915 -2.14307,0.11851 c -1.7045,0.0942 -2.69213,0.30346 -4.82616,1.02233 -2.18287,0.73529 -4.82052,1.36646 -5.74964,1.37582 -0.0921,8.9e-4 -0.16754,0.21571 -0.16754,0.47727 0,0.29873 -0.59224,1.04031 -1.5925,1.99408 -1.29858,1.2382 -1.60089,1.65661 -1.63794,2.26687 -0.0253,0.4165 -0.45829,1.43289 -0.97641,2.29197 -0.51204,0.84897 -0.93098,1.65733 -0.93098,1.79636 0,0.79168 -0.8126,2.74755 -1.64923,3.96957 -1.04517,1.52664 -1.74009,3.36315 -2.26135,5.97621 -0.43507,2.18104 -0.63262,8.38038 -0.40375,12.67069 l 0.18173,3.40666 -0.50263,-4e-5 c -0.62923,-5e-5 -0.62885,0.0197 0.0696,3.60176 1.48542,7.61825 4.15956,12.78649 8.68644,16.78815 4.8586,4.29489 10.81926,7.33519 17.62837,8.99151 6.23156,1.51584 16.23658,2.11172 23.82115,1.41877 z m -3.64955,-2.11893 c 0.27987,-0.42409 0.21604,-0.65456 -0.64955,-2.34553 -0.52797,-1.03137 -1.43352,-2.62916 -2.01235,-3.55062 -0.67455,-1.07383 -1.44664,-2.81703 -2.1504,-4.85506 -0.6313,-1.82815 -1.34508,-3.47332 -1.67929,-3.8705 -0.31971,-0.37996 -0.5813,-0.83391 -0.5813,-1.00877 0,-0.48855 0.5375,-0.37783 1.05496,0.21728 0.25596,0.29439 0.61111,0.62108 0.78922,0.726 0.17812,0.10493 0.88728,1.73579 1.5759,3.62413 0.68863,1.88835 1.65094,4.09985 2.13848,4.91446 0.48754,0.81459 1.11717,1.9631 1.39919,2.55222 0.43258,0.90371 0.59994,1.06085 1.07059,1.00523 0.33169,-0.0391 0.69561,-0.31243 0.89766,-0.67403 0.30715,-0.54969 0.30169,-0.75356 -0.0569,-2.12214 -0.21821,-0.83272 -0.84303,-2.61979 -1.38848,-3.97126 -1.16444,-2.88512 -2.85116,-8.60869 -2.74896,-9.32807 0.12862,-0.90542 0.66903,-0.53578 1.06401,0.72778 0.59704,1.90994 1.21274,2.93536 2.46691,4.10849 1.05057,0.98268 1.23019,1.06985 1.96028,0.95138 1.67034,-0.27106 1.68212,-0.93938 0.0566,-3.20936 -0.50357,-0.70325 -1.38915,-2.53836 -2.05325,-4.25476 -1.3365,-3.45428 -1.47535,-3.59589 -4.09827,-4.17943 -1.65787,-0.36884 -3.30094,-1.24825 -4.25442,-2.27707 -0.60944,-0.6576 -0.70801,-1.19153 -0.21997,-1.19153 0.28024,0 0.28185,-0.10009 0.0121,-0.74574 -0.61742,-1.47768 -1.0708,-6.11878 -1.0946,-11.2053 l -0.0229,-4.91444 0.74338,-2.53923 c 0.65345,-2.23211 0.74226,-2.84486 0.73426,-5.06598 -0.0138,-3.86706 -0.96774,-10.52289 -1.71511,-11.96811 -0.17654,-0.34141 -0.32099,-1.02783 -0.32099,-1.52538 0,-0.7607 0.0723,-0.90463 0.45431,-0.90463 0.28241,0 0.62883,0.29583 0.9156,0.78184 0.25371,0.43002 0.52676,0.78184 0.60677,0.78184 0.45743,-10e-6 4.61737,-5.98617 5.61422,-8.07888 0.98337,-2.0644 1.56785,-4.80959 1.56785,-7.36387 0,-1.80263 -0.16495,-1.88644 -1.89847,-0.96471 -1.08377,0.57625 -1.67568,0.58849 -1.67568,0.0348 0,-0.51017 0.92898,-1.21253 2.56892,-1.94225 2.92109,-1.2998 3.49151,-1.64315 4.69074,-2.82334 2.19187,-2.15714 3.62387,-4.79548 4.04623,-7.45479 0.14916,-0.93916 -0.46033,-2.68993 -1.58888,-4.56405 -0.8449,-1.4031 -0.96662,-1.91409 -0.45597,-1.91409 0.60803,0 2.11274,1.69674 2.79203,3.14835 1.34138,2.86645 1.06847,6.27213 -0.71687,8.94569 -1.22433,1.83345 -3.8225,4.42004 -5.12473,5.10188 l -1.04853,0.54902 -0.12246,1.45905 c -0.17875,2.1299 -0.77632,5.23905 -1.37339,7.14574 -0.28691,0.9162 -0.48967,1.69776 -0.4506,1.73684 0.0391,0.0391 0.52379,-0.12303 1.07713,-0.36022 1.20731,-0.51752 3.79104,-2.87379 4.25821,-3.88335 1.29873,-2.80652 2.66396,-6.38791 2.94579,-7.72768 0.18377,-0.8736 0.6196,-2.21822 0.96852,-2.98802 0.4569,-1.00806 0.58986,-1.56591 0.47524,-1.99393 -0.21186,-0.79116 0.33107,-3.05849 0.81756,-3.41422 0.21284,-0.15563 1.05409,-0.49783 1.86948,-0.76043 2.52566,-0.81344 2.47231,-0.63411 1.14434,-3.84662 -0.87534,-2.11756 -1.17632,-3.14835 -1.26745,-4.34072 -0.11092,-1.45151 -0.0703,-1.64756 0.56701,-2.73296 0.784,-1.33528 1.67897,-2.05518 2.06949,-1.66466 0.18194,0.18193 0.0854,0.483 -0.36187,1.12838 -0.33552,0.48414 -0.75294,1.35517 -0.92763,1.93561 -0.3076,1.02209 -0.29228,1.1316 0.48651,3.47602 1.36677,4.11442 4.84508,9.20474 6.71042,9.82037 0.43916,0.14493 1.28183,0.21706 1.87262,0.1603 2.31274,-0.22222 4.37785,-1.76305 7.71899,-5.7593 3.25476,-3.89292 5.07274,-6.94229 6.23667,-10.46097 0.78699,-2.37915 0.69678,-4.09692 -0.38309,-7.29537 -1.03125,-3.05439 -2.35638,-5.23988 -4.40199,-7.25997 -3.40412,-3.36168 -7.31534,-4.27232 -12.35338,-2.8762 -3.00561,0.83289 -5.04676,2.26832 -6.37878,4.48585 -0.95539,1.59049 -1.50867,3.20703 -2.18723,6.39038 -0.30608,1.43589 -0.67015,2.89476 -0.80906,3.24194 -0.35776,0.89417 -1.39146,1.86101 -2.72462,2.54837 -0.93957,0.48445 -1.44679,0.59059 -2.82093,0.59028 -1.42757,-2.2e-4 -1.90326,-0.10822 -3.21612,-0.72951 -3.81614,-1.80592 -8.59087,-1.0307 -15.65023,2.54098 -4.87145,2.46471 -8.83716,5.06613 -13.55364,8.89092 -1.98499,1.6097 -7.50603,5.47059 -8.72236,6.09958 -0.39937,0.20653 -1.84572,0.60281 -3.21412,0.88064 -2.4243,0.4922 -3.39081,0.84858 -4.59334,1.69366 -0.32295,0.22696 -1.37844,0.72822 -2.34553,1.11391 -2.53647,1.01159 -3.22632,1.39488 -4.56103,2.53417 -0.65534,0.55938 -1.32997,1.01707 -1.49917,1.01707 -0.42403,0 -0.26582,0.4353 1.50205,4.13261 1.46334,3.06046 3.33781,5.86231 4.96985,7.42869 l 0.75765,0.72719 1.60768,-1.53902 c 1.41945,-1.35885 1.60767,-1.63443 1.60767,-2.35374 0,-0.87439 0.55299,-1.3454 0.91266,-0.77738 0.60022,0.94791 0.0589,2.33447 -1.44642,3.70434 -0.93112,0.84741 -1.68978,1.96989 -1.45713,2.1559 0.0506,0.0405 0.89632,0.72902 1.8792,1.53001 0.98289,0.801 2.00664,1.57161 2.27501,1.71247 1.17047,0.61438 5.18525,0.11428 7.77728,-0.96878 2.128,-0.88917 3.36481,-1.15662 7.05312,-1.52518 l 2.77461,-0.27726 0.4138,-1.15113 0.4138,-1.15114 -0.80414,-1.05316 c -0.80852,-1.05888 -1.08514,-2.35257 -0.57097,-2.67034 0.35494,-0.21937 0.88374,0.33057 0.88374,0.91909 0,0.55958 0.80864,1.16023 1.12939,0.83888 0.29276,-0.2933 0.87942,-2.75114 0.89592,-3.75347 0.008,-0.49633 0.13524,-1.81626 0.28236,-2.93315 l 0.26751,-2.03072 -0.89667,0.20767 c -1.71739,0.39774 -3.83496,0.0731 -6.25787,-0.95943 -3.00414,-1.28019 -4.72412,-1.42025 -6.87481,-0.55984 -0.82384,0.32959 -1.59935,0.53654 -1.72337,0.45988 -0.53289,-0.32934 -0.12808,-0.8031 1.2775,-1.49514 2.18063,-1.07363 4.22081,-1.14611 6.53883,-0.23229 0.92145,0.36326 2.04477,0.72746 2.49626,0.80936 1.21948,0.22115 3.67349,-0.24338 5.34886,-1.01253 l 1.47865,-0.67887 1.03605,-2.16014 c 0.56982,-1.18809 1.14601,-2.78443 1.28041,-3.54742 0.22486,-1.27655 0.20516,-1.45064 -0.24676,-2.18187 -0.2701,-0.43705 -0.43422,-0.94286 -0.3647,-1.12404 0.31717,-0.82653 2.59765,0.12473 2.59765,1.08358 0,1.13919 -0.92162,4.02488 -2.12602,6.6567 -1.99635,4.3624 -2.37174,5.68512 -2.49569,8.79359 -0.12275,3.07859 -0.40677,4.14876 -2.25346,8.49081 -1.50118,3.52969 -1.67662,4.6889 -0.91941,6.07505 0.37629,0.68884 0.45867,1.02514 0.27855,1.13733 -0.17475,0.10886 -0.33315,2.42257 -0.50029,7.30758 -0.24074,7.03627 -0.15481,9.44299 0.4338,12.1489 0.29966,1.37765 1.76525,5.4803 3.2809,9.18427 1.41767,3.46453 1.83801,4.87288 1.84175,6.17082 0.002,0.50671 0.16721,1.36116 0.36833,1.89876 0.20113,0.53761 0.49745,2.48531 0.65851,4.32823 0.20481,2.34376 0.4891,4.02209 0.94594,5.5846 0.35921,1.22862 0.72344,2.83698 0.80938,3.57414 0.24001,2.05881 0.75201,3.83575 1.57755,5.47505 0.94134,1.86925 1.73008,2.81773 2.45904,2.95708 0.74286,0.14201 0.90426,-0.16579 0.45028,-0.85866 -0.20196,-0.30822 -0.77492,-1.83677 -1.27324,-3.39678 -0.49833,-1.56001 -1.14594,-3.31052 -1.43914,-3.89002 -0.60763,-1.20097 -0.6862,-1.96204 -0.20256,-1.96204 0.43949,0 0.98759,1.12391 2.1243,4.35599 1.76932,5.03082 3.44134,8.15351 4.36571,8.15351 0.44338,0 1.22129,-0.50544 1.22129,-0.79352 0,-0.0503 -0.64621,-1.32479 -1.43602,-2.83219 -0.97814,-1.86685 -1.71529,-3.67915 -2.31191,-5.68386 -0.75958,-2.5523 -0.98417,-3.04524 -1.69136,-3.71221 -0.72513,-0.68388 -1.08382,-1.49817 -0.65993,-1.49817 0.20826,0 1.92346,1.1684 2.13058,1.45135 0.0902,0.12321 0.58178,1.48056 1.09244,3.01632 1.16474,3.50285 3.68776,8.48329 4.95588,9.78288 0.74077,0.75914 1.07049,0.94552 1.58081,0.89353 0.35463,-0.0362 0.78446,-0.2773 0.95517,-0.53597 z M 483.31321,528.6045 c -1.39877,-4.44704 -1.3377,-11.38794 0.12543,-14.2559 0.42828,-0.83952 0.96551,-1.25881 1.24928,-0.97504 0.0777,0.0779 -0.14036,1.32163 -0.48484,2.76405 -0.86012,3.6016 -0.95805,6.15514 -0.36713,9.5723 0.25732,1.48799 0.46785,3.02096 0.46785,3.4066 0,1.13364 -0.5648,0.8417 -0.99059,-0.51201 z m -0.56751,-19.77445 c -0.35362,-0.66073 -0.10259,-1.7308 1.13581,-4.84185 1.32955,-3.34002 1.4941,-4.22308 0.97698,-5.24303 -0.65874,-1.29925 -0.96802,-1.54718 -1.58135,-1.26773 -0.29537,0.13457 -0.54959,0.32906 -0.56495,0.43221 -0.0154,0.10314 -0.0405,0.31317 -0.0559,0.46675 -0.0154,0.15358 -0.22897,0.27924 -0.4747,0.27924 -0.32536,0 -0.46658,-0.17324 -0.51969,-0.63758 -0.0886,-0.77393 0.60356,-1.5904 1.63729,-1.93156 0.94783,-0.31281 1.69303,-0.0155 2.45081,0.97805 0.48162,0.63144 0.62103,1.10513 0.72331,2.45759 0.12114,1.60159 0.0896,1.75221 -0.71544,3.42012 -0.46319,0.95961 -1.17299,2.74734 -1.57733,3.97272 -0.40434,1.22539 -0.8368,2.26185 -0.961,2.30326 -0.12423,0.0414 -0.33747,-0.13328 -0.47389,-0.38819 z m -14.51309,-1.11491 c -0.44317,-0.44316 -0.84939,-1.93059 -0.59635,-2.18362 0.0769,-0.0769 0.49388,0.27369 0.92655,0.77918 0.43267,0.50547 0.98494,0.98198 1.22724,1.05888 0.24231,0.0769 0.44056,0.28385 0.44056,0.45985 0,0.49471 -1.47328,0.41044 -1.998,-0.11429 z m -1.35276,-3.01765 c 0,-0.57733 4.05854,-1.75061 6.14306,-1.77589 1.74656,-0.0212 1.78856,-0.009 1.85237,0.53679 0.0652,0.5583 0.0647,0.55846 -1.89876,0.55846 -1.60455,0 -2.13911,0.092 -2.92032,0.50261 -1.13702,0.59762 -3.17635,0.71192 -3.17635,0.17803 z m 30.18407,-28.77746 c -0.13784,-0.13783 -0.25061,-0.52475 -0.25061,-0.85982 0,-0.43166 -0.24271,-0.80926 -0.83274,-1.29563 -0.73191,-0.6033 -1.00082,-0.68641 -2.22066,-0.68641 -1.48443,0 -1.98128,-0.3132 -1.29403,-0.81573 0.72566,-0.53061 2.38626,-0.36892 3.78896,0.36896 1.09945,0.57834 1.51255,0.67016 3.01524,0.67016 1.71899,0 1.75024,0.0102 2.44615,0.80283 0.75985,0.86543 0.78949,1.2814 0.0987,1.3843 -0.27514,0.041 -0.62191,-0.186 -0.93858,-0.61431 -0.46041,-0.62273 -0.61152,-0.67929 -1.81458,-0.67929 l -1.31237,0 0.11536,0.86007 c 0.12254,0.91359 -0.29796,1.36772 -0.80079,0.86487 z m 8.68474,-2.49846 c 0,-0.17972 0.59225,-0.72894 1.3161,-1.2205 0.72386,-0.49156 1.79925,-1.45928 2.38975,-2.15047 0.96859,-1.13373 1.10128,-1.21895 1.35585,-0.87079 0.21447,0.2933 0.22164,0.49917 0.0299,0.85768 -0.39162,0.73211 -2.67655,3.05084 -3.34924,3.39881 -0.80009,0.41386 -1.74232,0.4059 -1.74232,-0.0147 z m -108.88264,84.83381 c 5.71052,-2.32466 7.14021,-2.63049 11.48271,-2.45626 2.25671,0.0906 4.05918,0.30835 5.9242,0.71584 4.45012,0.97233 4.29844,0.97124 4.69022,0.0336 0.18475,-0.44217 0.33592,-1.42785 0.33592,-2.19039 l 0,-1.38641 -0.50263,0.45242 c -0.27643,0.24883 -0.6865,0.51757 -0.91128,0.5972 -0.53187,0.18843 -1.4874,-0.0547 -1.4996,-0.38166 -0.0133,-0.35648 -1.87945,-1.75226 -3.30683,-2.47329 -3.9256,-1.98305 -10.69788,-2.17142 -14.09582,-0.39208 -6.52049,3.41448 -7.19802,3.61893 -12.53852,3.78329 -3.90923,0.12032 -4.1537,0.0583 -5.64699,-1.43077 -0.88532,-0.88287 -2.82438,-3.96921 -2.82438,-4.49549 0,-0.49817 -0.67918,-1.64145 -1.30476,-2.19636 -1.35111,-1.19843 -4.41647,-1.31733 -6.05233,-0.23475 -0.93472,0.61856 -2.61537,2.94178 -3.28156,4.53618 -0.31932,0.76423 -0.31553,0.80025 0.0683,0.64847 3.89531,-1.54038 8.3198,0.42137 12.4095,5.50219 l 1.72744,2.14609 1.96065,0.36032 c 3.57726,0.6574 4.61818,0.76959 6.75889,0.72838 2.10405,-0.0404 2.16042,-0.0564 6.60687,-1.86652 z m 49.01574,-12.13268 c 1.90435,-0.12311 3.76402,-0.30559 4.13261,-0.40552 0.83987,-0.22767 0.86633,-0.4017 1.21159,-7.96934 0.28001,-6.13719 0.53005,-8.66028 1.0226,-10.31893 0.31499,-1.06064 0.58371,-1.51147 2.67442,-4.48677 0.67473,-0.9602 1.03378,-1.7353 1.13826,-2.45722 0.084,-0.58001 0.49175,-1.60943 0.90625,-2.28759 0.41449,-0.67817 0.75362,-1.40224 0.75362,-1.60908 0,-0.23012 -0.38467,-0.54622 -0.99119,-0.81452 -1.16544,-0.51552 -3.86556,-2.33281 -4.42587,-2.97878 -0.44205,-0.50964 -0.51595,-1.07136 -0.14094,-1.07136 0.13749,0 1.11759,0.54263 2.178,1.20584 2.10432,1.3161 3.35799,1.80841 4.11786,1.61703 0.26991,-0.0679 0.98958,-0.6304 1.59928,-1.24984 l 1.10851,-1.12625 -0.88513,-0.004 c -2.36901,-0.0108 -6.55727,-3.422 -10.82879,-8.81962 -1.38172,-1.74599 -3.96367,-6.6565 -4.58076,-8.71197 -0.14753,-0.49145 -0.3695,-0.89353 -0.49325,-0.89353 -0.12376,0 -0.60145,0.49317 -1.06155,1.09592 -0.72881,0.95479 -0.82268,1.21369 -0.72904,2.01045 0.17848,1.51845 1.46044,4.48141 2.86325,6.61778 1.27375,1.93982 1.48764,2.43536 1.18274,2.74026 -0.55761,0.55761 -2.47947,-2.2067 -4.55665,-6.55404 l -1.44534,-3.02497 -3.91556,1.26165 c -3.13832,1.01121 -4.31335,1.50948 -5.91967,2.51027 -2.19807,1.36945 -3.91517,2.73864 -4.97654,3.96824 -1.61622,1.87238 -3.39306,6.07113 -4.20043,9.92576 -0.4353,2.07831 -0.46565,3.48521 -0.29392,13.62641 0.0625,3.68894 0.009,4.36096 -0.64441,8.13948 -0.39187,2.2652 -0.7125,4.29952 -0.7125,4.52071 0,0.72292 3.85968,2.40603 10.72244,4.6758 l 3.23907,1.07127 4.24429,0.0102 c 2.33436,0.005 5.8024,-0.0906 7.70675,-0.21366 z m -12.29887,-3.49396 c -0.30123,-0.79231 0.032,-3.10249 1.05848,-7.33814 0.80502,-3.32184 0.81173,-3.3893 0.77754,-7.81843 -0.0292,-3.78553 0.0464,-4.94253 0.49515,-7.57761 0.54685,-3.21085 0.55146,-3.22055 1.88024,-3.95553 0.59015,-0.32643 0.67392,-0.51295 0.81281,-1.80992 0.18298,-1.70861 1.14679,-4.61217 2.03436,-6.12865 1.09419,-1.86951 3.45321,-4.09384 3.45321,-3.25603 0,0.093 -0.45186,0.71997 -1.00413,1.39323 -1.19488,1.45666 -1.9674,3.01875 -2.5722,5.20127 -0.42204,1.52299 -0.59239,3.28866 -0.31729,3.28866 0.30184,0 2.11791,-1.39991 3.61522,-2.78681 1.34534,-1.2461 1.64455,-1.65209 1.76285,-2.39184 0.24134,-1.50931 1.18522,-1.36217 1.19275,0.18592 0.007,1.43191 -2.58192,4.14413 -6.17675,6.47102 -3.39164,2.19536 -3.40962,2.24803 -3.65164,10.69613 l -0.1792,6.25476 -0.89404,3.68584 c -0.49172,2.0272 -0.96605,4.18844 -1.05405,4.80275 -0.24227,1.69124 -0.81194,2.19166 -1.23331,1.08338 z m 13.43505,-17.81396 c -0.34386,-0.41432 -0.2415,-0.4673 1.32104,-0.68356 0.55288,-0.0764 1.74685,-0.39374 2.65327,-0.70493 1.6895,-0.58006 2.15507,-0.51989 2.0029,0.25882 -0.14492,0.74162 -1.70667,1.32354 -3.77405,1.40625 -1.53439,0.0614 -1.96783,0.007 -2.20316,-0.27658 z m 0.31581,-2.9497 c -2.07667,-0.46159 -4.72717,-1.58115 -5.14056,-2.17134 -0.34366,-0.49067 -0.46039,-1.36276 -0.1648,-1.23138 0.0921,0.0409 1.06639,0.5268 2.165,1.07968 l 1.99747,1.00522 2.35852,-0.0623 c 1.29718,-0.0342 2.81086,-0.0845 3.36375,-0.1117 0.93513,-0.0461 1.00523,-0.0108 1.00523,0.50598 0,1.14363 -2.71681,1.62316 -5.58461,0.98574 z m -29.07877,16.60876 c 0.76948,-3.18909 1.70967,-8.90853 1.68727,-10.26392 l -0.027,-1.63129 -0.19155,1.3403 c -0.44896,3.14144 -0.69223,4.1827 -1.6624,7.11545 -0.97373,2.94348 -1.00497,3.11523 -0.6402,3.5183 0.49974,0.5522 0.68585,0.5346 0.83386,-0.0789 z"
       id="path3048"
       inkscape:connector-curvature="0" />
  </g>
</svg>
