<?xml version="1.0" encoding="UTF-8" standalone="no"?>
<!-- Created with Inkscape (http://www.inkscape.org/) -->

<svg
   xmlns:dc="http://purl.org/dc/elements/1.1/"
   xmlns:cc="http://creativecommons.org/ns#"
   xmlns:rdf="http://www.w3.org/1999/02/22-rdf-syntax-ns#"
   xmlns:svg="http://www.w3.org/2000/svg"
   xmlns="http://www.w3.org/2000/svg"
   xmlns:xlink="http://www.w3.org/1999/xlink"
   xmlns:sodipodi="http://sodipodi.sourceforge.net/DTD/sodipodi-0.dtd"
   xmlns:inkscape="http://www.inkscape.org/namespaces/inkscape"
   width="202.60559"
   height="158.22046"
   id="svg2"
   version="1.1"
   inkscape:version="0.48.3.1 r9886"
   sodipodi:docname="Back-extension-on-stability-ball-2.svg"
   inkscape:export-filename="/home/christian/Dokumente/Code/workspace/opentraining-exercises/Back-extension-on-stability-ball-2.png"
   inkscape:export-xdpi="214"
   inkscape:export-ydpi="214">
  <defs
     id="defs4">
    <radialGradient
       gradientUnits="userSpaceOnUse"
       gradientTransform="matrix(1,0,0,0.91819829,-19.285714,-7.9105395)"
       r="209.56604"
       fy="287.50052"
       fx="398.1105"
       cy="287.50052"
       cx="398.1105"
       id="radialGradient5255"
       xlink:href="#linearGradient5249"
       inkscape:collect="always" />
    <linearGradient
       id="linearGradient5249"
       inkscape:collect="always">
      <stop
         id="stop5251"
         offset="0"
         style="stop-color:#e3e3e3;stop-opacity:1;" />
      <stop
         id="stop5253"
         offset="1"
         style="stop-color:#e3e3e3;stop-opacity:0;" />
    </linearGradient>
  </defs>
  <sodipodi:namedview
     id="base"
     pagecolor="#ffffff"
     bordercolor="#666666"
     borderopacity="1.0"
     inkscape:pageopacity="0.0"
     inkscape:pageshadow="2"
     inkscape:zoom="2.8"
     inkscape:cx="125.55158"
     inkscape:cy="81.225892"
     inkscape:document-units="px"
     inkscape:current-layer="layer1"
     showgrid="false"
     showguides="true"
     inkscape:guide-bbox="true"
     fit-margin-top="0"
     fit-margin-left="0"
     fit-margin-right="0"
     fit-margin-bottom="0"
     inkscape:window-width="830"
     inkscape:window-height="692"
     inkscape:window-x="256"
     inkscape:window-y="189"
     inkscape:window-maximized="0">
    <sodipodi:guide
       orientation="-0.70710678,0.70710678"
       position="-1770.8042,555.15896"
       id="guide2985" />
  </sodipodi:namedview>
  <metadata
     id="metadata7">
    <rdf:RDF>
      <cc:Work
         rdf:about="">
        <dc:format>image/svg+xml</dc:format>
        <dc:type
           rdf:resource="http://purl.org/dc/dcmitype/StillImage" />
        <dc:title />
      </cc:Work>
    </rdf:RDF>
  </metadata>
  <g
     inkscape:label="Ebene 1"
     inkscape:groupmode="layer"
     id="layer1"
     transform="translate(-342.23277,-423.58638)">
    <path
       style="fill:#000000"
       d="m 342.95538,581.15204 c -0.59466,-0.59463 -0.65798,-0.80132 -0.65798,-2.14738 0,-2.21148 0.6494,-3.29477 2.81932,-4.70292 0.4983,-0.32341 1.09867,-0.9188 1.33418,-1.32316 0.61039,-1.04801 2.89851,-4.02362 3.52957,-4.59005 0.29314,-0.26307 1.69786,-1.1672 3.1216,-2.00911 5.29738,-3.13249 6.3044,-4.07856 8.43556,-7.92499 0.99895,-1.80293 1.52503,-2.61378 3.66704,-5.65209 0.40438,-0.57355 1.05511,-1.88962 1.4461,-2.92463 0.8364,-2.21409 2.20516,-3.86763 4.01834,-4.85451 1.08571,-0.59089 1.30882,-0.63045 2.93116,-0.51925 2.91676,0.19994 5.0503,1.75863 6.73585,4.92104 0.86946,1.63128 3.11364,3.70822 4.3768,4.05061 1.37622,0.37302 5.12157,0.1171 6.99333,-0.4779 0.86662,-0.27547 3.11848,-1.19832 5.00414,-2.0508 5.04009,-2.2785 6.1746,-2.55658 10.41502,-2.55298 3.0266,0.004 3.66348,0.068 4.80547,0.49327 1.5188,0.56571 3.05679,1.49388 5.01818,3.02863 0.76038,0.59494 1.4761,1.08177 1.59051,1.08177 0.11439,0 0.43874,-0.41057 0.72075,-0.91234 0.40803,-0.72601 0.53193,-1.35801 0.60673,-3.09508 0.0517,-1.20052 0.13886,-3.02271 0.19371,-4.04935 0.0966,-1.80695 0.0821,-1.87457 -0.45273,-2.11827 -0.42271,-0.19259 -0.55247,-0.42472 -0.55247,-0.98824 0,-0.54938 -0.11953,-0.77449 -0.47028,-0.88583 -0.25866,-0.082 -0.89703,-0.33802 -1.41858,-0.56872 l -0.94828,-0.41948 0.75272,-2.30403 c 1.14738,-3.51205 2.70884,-9.71749 3.07822,-12.2331 0.18178,-1.23803 0.43785,-3.71973 0.56904,-5.51488 0.13121,-1.79516 0.29011,-3.87965 0.35312,-4.63223 0.25581,-3.05546 2.22567,-8.15332 4.24221,-10.97861 1.82355,-2.5549 2.66716,-3.24213 5.85535,-4.77003 1.6255,-0.77898 3.46192,-1.56683 4.08094,-1.75078 6.39628,-1.90071 7.7278,-2.51976 8.73884,-4.06279 0.59022,-0.90077 2.28964,-1.79499 3.14695,-1.65587 0.67111,0.10889 0.76935,0.0374 1.39607,-1.01488 0.37079,-0.6226 2.25015,-2.71405 4.17635,-4.64765 l 3.50218,-3.51565 1.97199,-4.05176 c 6.03773,-12.40534 10.55287,-19.75832 14.67731,-23.90226 2.99462,-3.00875 4.45316,-3.71426 9.21054,-4.4553 3.17052,-0.49387 3.7004,-0.72876 4.80982,-2.13229 1.30954,-1.6567 1.3446,-2.16781 0.39004,-5.68535 -0.68218,-2.51384 -0.81113,-3.35127 -0.80726,-5.2427 0.009,-4.37276 0.93805,-6.93989 3.38501,-9.35313 3.40896,-3.36193 9.40006,-5.22365 13.4558,-4.18134 1.67222,0.42976 5.87768,2.52818 7.48079,3.73275 2.07612,1.55996 4.67931,5.25535 5.34624,7.58933 0.59337,2.07656 0.50669,8.8888 -0.15275,12.00412 -0.70265,3.31938 -1.50396,5.88402 -2.51848,8.06058 -1.1114,2.38436 -1.98759,3.48257 -3.27626,4.1064 -1.514,0.7329 -2.89731,0.63936 -5.99822,-0.40569 l -2.61676,-0.88187 -1.58922,1.59987 c -0.87406,0.87993 -1.5892,1.71796 -1.5892,1.86228 0,0.1443 0.41563,0.74261 0.92365,1.32956 l 0.92361,1.06717 -0.14967,1.81651 c -0.12726,1.54462 -0.0461,2.30409 0.54259,5.07427 0.95085,4.47472 1.06064,5.90301 0.58118,7.56055 -0.59954,2.07263 -2.25512,5.07118 -3.80348,6.88873 -0.99388,1.16668 -1.49702,1.98162 -1.71439,2.7768 -0.1692,0.61901 -0.59366,1.83455 -0.94322,2.70116 -0.34956,0.86663 -0.63592,1.63303 -0.63636,1.70314 -4.1e-4,0.0701 2.91145,0.12317 6.47078,0.11796 7.3276,-0.011 10.23701,0.28417 15.25724,1.54638 11.66495,2.93283 19.46932,9.50497 24.07964,20.2777 1.778,4.15454 3.63008,11.23991 4.51037,17.25496 0.48631,3.32289 0.66406,9.32429 0.3487,11.77262 -0.14352,1.11424 -0.35875,2.88689 -0.47833,3.93919 -0.91487,8.05242 -3.875,14.61357 -9.39392,20.82153 -3.70454,4.16709 -6.84122,6.35234 -12.14688,8.46242 -3.23979,1.28847 -9.12763,2.71954 -15.14252,3.68048 -8.3753,1.33803 -21.00224,0.70263 -29.23447,-1.47104 -7.49769,-1.97975 -13.96152,-5.72664 -19.07443,-11.05686 -3.58836,-3.74086 -6.02998,-9.05202 -7.28509,-15.84697 -0.27188,-1.47189 -0.53956,-2.90988 -0.59483,-3.19547 -0.0698,-0.36061 -0.21857,-0.48673 -0.48692,-0.41286 -0.21254,0.0585 -0.84961,0.1691 -1.41573,0.24573 l -1.02931,0.13927 -0.84698,3.65002 c -1.14243,4.92319 -1.49324,5.96101 -3.43575,10.16429 -1.94795,4.21498 -2.58064,5.37812 -4.40038,8.0894 -0.73762,1.09901 -1.47315,2.37241 -1.63452,2.82975 -1.03343,2.92906 -2.6869,4.82895 -5.40158,6.20647 -1.75862,0.8924 -1.77471,0.89571 -4.374,0.89127 -1.98376,-0.004 -2.88401,-0.10546 -3.75719,-0.42635 -1.09481,-0.40227 -1.22067,-0.40449 -2.70115,-0.0472 -2.58696,0.62429 -4.70899,0.80148 -9.65635,0.80634 -7.39567,0.008 -12.29039,-0.51259 -18.00779,-1.91242 -1.73324,-0.42438 -5.22788,-1.07749 -7.76585,-1.4514 -2.53797,-0.37389 -5.3742,-0.82426 -6.30273,-1.00082 -0.95693,-0.18201 -3.9796,-0.38304 -6.97801,-0.46407 -6.01791,-0.1627 -7.16116,-0.005 -12.26781,1.68113 -3.53839,1.16901 -7.58264,2.03144 -10.24192,2.18404 -1.93843,0.11124 -2.29005,0.20459 -3.75977,0.99798 -2.02971,1.09565 -2.97968,1.14843 -3.91085,0.21723 z m 3.51758,-1.57224 c 0.11761,-0.11242 0.69976,-0.47287 1.29367,-0.801 0.90106,-0.49789 1.78696,-0.68769 5.35172,-1.14673 3.10014,-0.39916 4.9341,-0.76234 6.68604,-1.32399 5.02296,-1.61028 5.61817,-1.71142 11.53056,-1.95943 7.29302,-0.30589 9.98842,-0.005 22.50972,2.51094 8.18337,1.64443 9.79345,1.82635 17.33562,1.95875 4.99973,0.0877 7.06044,0.0419 8.3286,-0.18498 0.9268,-0.16588 2.5461,-0.27879 3.59842,-0.25094 6.71961,0.1777 6.57531,0.18402 8.32859,-0.36355 1.37319,-0.42882 1.87798,-0.72312 2.70497,-1.57676 0.55919,-0.57722 1.29876,-1.60614 1.64348,-2.28648 1.16391,-2.29703 2.52277,-4.60677 3.44249,-5.85144 2.54687,-3.44664 6.01,-11.66719 6.94644,-16.48893 0.19829,-1.02107 0.40317,-2.05939 0.45525,-2.30744 0.0927,-0.44148 -0.0217,-0.45095 -5.46682,-0.45384 -4.92137,-0.004 -5.81437,-0.0602 -7.75843,-0.5011 -2.23007,-0.50567 -5.2328,-1.65156 -9.25742,-3.53275 -1.22393,-0.57208 -2.28753,-0.97766 -2.36352,-0.90128 -0.076,0.0764 -0.14277,3.04233 -0.1484,6.59095 -0.0103,6.26277 -0.0257,6.48692 -0.53642,7.63905 -0.28941,0.6528 -0.82118,1.43518 -1.18175,1.73857 -1.1728,0.98683 -3.56137,1.29687 -3.56137,0.46226 0,-0.17472 0.22396,-0.35006 0.49771,-0.38961 0.93971,-0.13579 -3.14124,-1.30559 -5.41926,-1.55343 -1.22635,-0.13345 -3.58561,-0.20919 -5.2428,-0.16839 l -3.01308,0.0742 -3.37184,1.62813 c -1.8545,0.89545 -3.92896,1.75374 -4.60986,1.90725 -0.71515,0.16119 -2.75921,0.27577 -4.83961,0.2712 -3.68892,-0.009 -5.01704,-0.19821 -8.38286,-1.2006 -1.56537,-0.46619 -1.58715,-0.4837 -3.52078,-2.83086 -3.2447,-3.93857 -5.61057,-5.42285 -8.3551,-5.2417 -2.59783,0.17146 -4.32316,1.52964 -5.94368,4.67872 -2.43692,4.73557 -5.21371,7.45489 -10.91039,10.68464 -1.90729,1.08133 -3.88157,3.17107 -4.95146,5.24102 -0.20795,0.40234 -0.52746,0.73154 -0.70999,0.73154 -0.44234,0 -2.9933,2.56741 -3.26748,3.28852 -0.26707,0.70247 -0.0638,1.59741 0.4284,1.88476 0.4718,0.27552 1.4535,0.28955 1.73064,0.0248 z m 78.52272,-3.71873 c -0.2423,-0.63146 0.12897,-1.47147 1.04191,-2.35746 1.44016,-1.39761 2.92226,-1.77309 2.92226,-0.74035 0,0.27326 -0.39026,0.63393 -1.10951,1.02538 -0.75736,0.41221 -1.2396,0.87007 -1.51941,1.44264 -0.43764,0.89552 -1.11134,1.21327 -1.33525,0.62979 z m -25.07339,-5.20554 c -1.8292,-0.39259 -3.25987,-0.9267 -3.60895,-1.34733 -0.31072,-0.37436 -0.10889,-1.45421 0.27182,-1.45421 0.1407,0 0.60264,0.26451 1.02652,0.58784 1.0572,0.80637 2.65253,1.19452 5.57452,1.35638 2.75075,0.1523 5.97552,-0.16333 7.46002,-0.7303 1.04751,-0.40004 1.65642,-0.30682 1.65642,0.25366 0,1.31859 -8.29007,2.21185 -12.38035,1.33396 z m 29.59239,-0.11318 c -0.26424,-0.42752 0.0978,-1.25513 0.66124,-1.5119 0.30335,-0.13822 1.43388,-0.46088 2.51227,-0.71695 2.76816,-0.65748 3.81512,-1.18305 5.41306,-2.71751 0.76957,-0.73895 1.55992,-1.34358 1.75633,-1.34358 0.72574,0 0.33392,0.95818 -0.93718,2.29183 -1.46863,1.54087 -2.78667,2.29189 -4.87035,2.77511 -0.79291,0.18389 -1.984,0.58682 -2.64691,0.89545 -1.33431,0.62114 -1.67093,0.67951 -1.88846,0.32755 z m -11.75342,-4.96553 c -0.15476,-0.15893 -0.28137,-0.48536 -0.28137,-0.72539 0,-0.39691 0.12217,-0.42535 1.34916,-0.31412 1.13862,0.10325 1.45873,0.0467 2.05136,-0.36264 1.01818,-0.70321 2.18602,-2.73762 2.47714,-4.31518 0.13671,-0.74089 0.29182,-1.58133 0.34466,-1.8677 0.0768,-0.41593 0.21902,-0.50647 0.70726,-0.45021 0.48001,0.0553 0.62662,0.20506 0.68316,0.6974 0.18499,1.61104 -1.82173,5.5758 -3.45119,6.81862 -0.66279,0.50555 -1.12912,0.65773 -2.21897,0.72415 -0.92491,0.0563 -1.47262,-0.0114 -1.66121,-0.20493 z m -43.51066,-1.16398 c -0.42749,-0.29383 -1.1824,-0.81385 -1.67762,-1.15561 -0.7519,-0.51891 -1.06743,-0.60299 -1.91331,-0.50986 -0.83374,0.0917 -1.15774,0.27465 -1.83137,1.03339 -0.45015,0.50701 -0.98511,0.92185 -1.18883,0.92185 -0.95014,0 -0.51737,-1.58108 0.77047,-2.81491 0.68172,-0.6531 1.96049,-0.93324 3.19941,-0.70078 0.87925,0.1649 4.52684,2.95379 4.39343,3.35908 -0.15676,0.47625 -0.95366,0.4157 -1.75218,-0.13316 z m 132.48034,14.27313 c 8.90472,-1.36675 15.54353,-3.3232 19.88933,-5.86128 4.65845,-2.72067 9.64479,-8.24552 12.41566,-13.7565 1.70972,-3.40042 3.16674,-8.47984 3.4524,-12.03568 0.0597,-0.74285 0.2316,-2.2116 0.38204,-3.26393 0.42514,-2.97398 0.15981,-9.4878 -0.55408,-13.60326 -0.71743,-4.13586 -2.31484,-10.38504 -3.40951,-13.33836 -4.67224,-12.60523 -14.01622,-19.77961 -28.68683,-22.02596 -2.99423,-0.45847 -11.45757,-0.66914 -14.82453,-0.36901 -2.22547,0.19839 -2.6338,0.29937 -3.15137,0.77931 -0.32704,0.30327 -1.47957,1.02821 -2.56117,1.61098 -1.08161,0.58278 -2.01359,1.13567 -2.07104,1.22866 -0.0575,0.093 0.19524,1.10111 0.56158,2.24029 0.93279,2.90063 2.04821,8.60264 2.07611,10.61315 0.013,0.92853 -0.0831,2.73509 -0.21331,4.01459 -0.1996,1.96128 -0.17533,2.66774 0.15453,4.50193 0.47071,2.61719 1.81479,7.79552 2.4993,9.62898 1.02767,2.7526 1.58227,3.19111 5.51926,4.36385 1.96975,0.58675 2.3934,0.8022 3.08721,1.5702 0.44229,0.48953 1.07418,1.4255 1.40421,2.07992 0.62993,1.24915 1.22374,2.06969 3.19448,4.41419 2.15003,2.55785 2.29427,3.53606 0.67151,4.55428 -0.58422,0.36656 -1.02166,0.44583 -2.11954,0.38421 -1.36233,-0.0764 -1.38038,-0.0698 -1.18675,0.4395 0.34321,0.9027 0.87078,1.83411 1.9849,3.50426 1.3545,2.03053 1.82327,3.23326 1.82327,4.67796 0,0.92825 -0.10877,1.23994 -0.60664,1.73777 -0.47464,0.47462 -0.59358,0.78744 -0.54663,1.43761 0.033,0.45703 -0.045,1.02722 -0.17342,1.26711 -0.52603,0.98289 -3.06064,1.5204 -4.36561,0.92582 -0.43478,-0.1981 -0.68177,-0.15566 -1.30491,0.22423 -0.42277,0.25772 -1.05722,0.46898 -1.40992,0.46944 -0.87001,0 -2.13057,-0.62639 -2.55284,-1.27082 -0.21819,-0.333 -0.56652,-0.52956 -0.9398,-0.53035 -1.90978,-0.004 -3.92046,-1.46762 -5.33717,-3.88486 -0.80813,-1.37889 -2.31775,-4.81312 -2.79389,-6.35582 -0.15283,-0.49523 -0.51414,-1.31385 -0.8029,-1.81915 -0.7911,-1.38432 -1.8822,-4.2536 -2.25278,-5.92413 -0.18126,-0.81714 -0.57283,-2.04285 -0.87013,-2.72376 -0.29731,-0.6809 -0.70601,-1.89646 -0.90821,-2.70115 -0.447,-1.77893 -0.87468,-2.53556 -4.14476,-7.33287 -3.06307,-4.49363 -4.08401,-6.61445 -5.12819,-10.65293 -0.64039,-2.4768 -1.65267,-8.50279 -1.65267,-9.8382 0,-0.49914 -1.72185,-0.38375 -2.88428,0.1933 -0.60601,0.30082 -1.31671,0.91775 -1.7504,1.5194 -0.4016,0.55713 -1.14105,1.26617 -1.64324,1.57568 -0.51193,0.31552 -0.91575,0.74073 -0.91914,0.96785 -0.0111,0.75223 -0.65979,1.67605 -2.07696,2.9585 -1.14586,1.03695 -1.39939,1.3903 -1.35087,1.88273 0.0377,0.38373 -0.27356,1.17332 -0.84841,2.15151 -0.49949,0.84991 -1.06802,2.16224 -1.2634,2.91627 -0.41752,1.61123 -0.81052,2.42929 -1.72762,3.59618 -0.79492,1.01141 -1.60986,3.44954 -2.10947,6.31109 -0.295,1.68962 -0.34175,3.29631 -0.25815,8.87242 l 0.102,6.8092 -0.75153,0 c -0.89255,0 -0.88051,-0.11981 -0.30771,3.06118 1.79453,9.96596 5.44094,15.71995 13.28714,20.96687 5.88253,3.93377 13.08808,6.22619 22.05953,7.01819 1.54754,0.13663 3.16824,0.28864 3.60156,0.33778 2.18399,0.24775 11.50462,-0.0904 14.29366,-0.51837 z M 397.35087,558.91853 c 5.7543,-2.3425 7.19497,-2.65065 11.57076,-2.47509 2.27402,0.0912 4.09031,0.3107 5.96963,0.72132 4.48425,0.97978 4.33144,0.97869 4.7262,0.0339 0.18617,-0.44555 0.3385,-1.4388 0.3385,-2.20718 l 0,-1.39704 -0.50647,0.4559 c -0.27855,0.2507 -0.69178,0.52153 -0.91829,0.60177 -0.53595,0.18988 -1.49881,-0.0552 -1.5111,-0.38457 -0.0135,-0.35924 -1.89387,-1.7657 -3.33219,-2.4923 -2.14794,-1.08503 -4.32011,-1.52421 -7.68797,-1.55439 -3.77197,-0.0339 -5.15336,0.30582 -8.11095,1.99395 -2.88759,1.64824 -4.43375,2.24233 -6.95398,2.67202 -2.73721,0.46671 -7.45069,0.48669 -8.32357,0.0353 -1.48378,-0.76732 -3.36494,-3.4326 -4.64786,-6.58526 -0.24474,-0.60139 -0.71611,-1.17594 -1.2927,-1.57567 -0.82279,-0.57035 -1.08935,-0.62907 -2.85588,-0.62907 -1.7566,0 -2.04217,0.062 -2.90107,0.62987 -0.96834,0.6402 -2.57629,2.86329 -3.26533,4.51451 -0.34068,0.81648 -0.33891,0.85842 0.0301,0.71227 3.91994,-1.55217 8.35779,0.42062 12.48739,5.55104 l 1.74069,2.16254 1.9757,0.36305 c 3.60468,0.66245 4.65358,0.77555 6.81072,0.73397 2.12016,-0.0406 2.17698,-0.0569 6.65755,-1.88082 z m 101.62902,0.37386 c 0.23947,-0.12816 0.4354,-0.41198 0.4354,-0.63069 0,-0.21871 -0.76221,-1.40535 -1.69381,-2.63695 -0.93159,-1.23165 -2.37503,-3.55504 -3.20764,-5.16314 -1.15727,-2.2352 -1.69937,-3.04639 -2.30167,-3.44422 -0.77411,-0.51128 -1.31602,-1.28235 -1.07243,-1.5259 0.0681,-0.0682 0.51298,0.0848 0.98869,0.33981 0.47571,0.25495 0.97352,0.46355 1.10628,0.46355 0.13273,0 0.68054,0.83566 1.21735,1.85706 1.60793,3.05942 2.47548,4.43879 4.35339,6.92174 1.92095,2.5398 2.55453,3.17544 3.7185,3.73043 0.68,0.32425 0.79313,0.32387 1.2943,-0.005 0.32614,-0.2137 0.54917,-0.57623 0.54917,-0.89265 0,-0.6206 -1.31457,-2.45356 -3.51775,-4.90501 -1.10363,-1.22796 -2.01666,-2.59501 -3.12838,-4.68406 -1.02143,-1.91936 -1.8255,-3.14598 -2.30149,-3.51092 -0.40235,-0.30846 -0.73156,-0.75832 -0.73156,-0.9996 0,-0.56397 0.0168,-0.56099 1.25601,0.22495 0.884,0.56064 1.29004,1.09371 2.61456,3.43273 0.86242,1.52296 2.01673,3.32614 2.5651,4.00708 0.54839,0.68094 1.476,1.87113 2.06137,2.64487 0.58538,0.77377 1.20946,1.40686 1.38688,1.40686 0.53755,0 1.14585,-0.70899 1.14585,-1.33555 0,-0.75455 -1.23599,-3.33574 -2.67259,-5.58124 -1.46081,-2.28338 -4.08251,-7.64628 -4.14442,-8.47776 -0.0825,-1.10776 0.45533,-0.9045 1.10216,0.41651 1.22595,2.50368 3.68479,4.59065 5.07994,4.31164 1.74034,-0.34808 1.71222,-1.07863 -0.11646,-3.02569 -1.53883,-1.63844 -1.49576,-1.57747 -3.39315,-4.80398 -1.4514,-2.46812 -1.58701,-2.55509 -4.36191,-2.7976 -2.06219,-0.18021 -3.7067,-0.7432 -4.77425,-1.63442 -0.66107,-0.55188 -0.73443,-0.70233 -0.48753,-0.99985 0.23856,-0.28744 0.23202,-0.46405 -0.0366,-0.9854 -0.61415,-1.19247 -1.96329,-5.80735 -2.65342,-9.07634 -0.7968,-3.77415 -1.03744,-7.21978 -0.68641,-9.82817 0.19411,-1.44234 0.17898,-2.28057 -0.071,-3.93684 -0.54327,-3.59926 -2.60356,-10.10519 -3.96953,-12.53482 -1.09155,-1.9415 -0.50892,-3.01282 0.882,-1.62189 l 0.68771,0.6877 1.13935,-1.88624 c 1.37462,-2.27578 2.28527,-4.36713 3.04872,-7.00161 0.46169,-1.59323 0.57087,-2.45799 0.57087,-4.52228 0,-1.4038 -0.10856,-3.05855 -0.24125,-3.67722 -0.23339,-1.08828 -0.26018,-1.11766 -0.8235,-0.90349 -0.32024,0.12176 -0.93026,0.52693 -1.3556,0.90039 -0.84155,0.73889 -1.2567,0.75719 -1.36032,0.0599 -0.0894,-0.60209 0.81403,-1.47799 2.9928,-2.90133 2.04941,-1.33882 2.65415,-1.93638 3.81274,-3.76751 1.51894,-2.40068 2.12555,-4.25265 2.17985,-6.65517 0.0374,-1.65821 -0.55222,-2.93359 -2.22219,-4.80599 -0.64997,-0.72875 -1.18176,-1.4731 -1.18176,-1.65414 0,-0.91812 2.19208,0.32259 3.31936,1.87876 0.34092,0.47061 0.67454,0.90072 0.74139,0.95584 0.16786,0.13835 3.36746,-3.39821 3.36746,-3.7221 0,-0.14382 -0.98762,-1.10077 -2.1947,-2.12656 -2.82925,-2.40428 -3.72529,-3.69483 -3.8424,-5.53407 -0.058,-0.91152 0.0318,-1.64765 0.27076,-2.21966 0.57049,-1.36534 0.92575,-0.94041 0.93318,1.11612 0.005,1.23416 0.12339,1.9991 0.38703,2.48885 0.64781,1.20347 3.93042,4.01612 6.33446,5.4276 4.07286,2.39131 5.42043,2.73136 7.27187,1.83509 2.49339,-1.20703 4.12624,-4.88271 5.39033,-12.13406 0.48778,-2.79808 0.55156,-3.69761 0.44687,-6.30271 -0.14411,-3.58565 -0.50106,-5.05333 -1.62643,-6.68731 -1.19232,-1.73119 -4.15756,-4.43344 -6.14556,-5.60052 -5.82301,-3.41844 -11.46773,-2.74644 -16.23997,1.93334 -3.56649,3.49741 -4.12575,6.67005 -2.36088,13.39329 1.08919,4.14934 0.95632,5.04937 -1.07016,7.24783 -1.34266,1.45661 -2.35059,1.89204 -4.87588,2.10638 -2.53447,0.21514 -3.12786,0.37829 -5.00214,1.37555 -1.70052,0.90477 -5.0938,4.08344 -7.04851,6.60273 -3.02755,3.90197 -6.82727,10.10687 -8.31788,13.58297 -0.90867,2.11905 -3.30788,6.84647 -4.93025,9.71459 -1.04707,1.85108 -1.44834,2.32761 -2.98616,3.54637 -2.67466,2.11969 -3.13128,2.60036 -4.05188,4.26539 -0.46523,0.84137 -1.29043,2.10248 -1.83381,2.80244 l -0.98794,1.27266 0.70098,1.76614 c 0.7958,2.00511 2.34566,4.78014 3.68932,6.60576 1.00011,1.35888 3.73133,4.14057 4.84181,4.93129 l 0.70456,0.5017 0,-0.4834 c 0,-0.26588 0.24306,-1.10845 0.5401,-1.87238 0.78278,-2.01294 0.77901,-1.9861 0.41144,-2.92309 -0.43531,-1.10965 -0.12854,-1.46977 0.69813,-0.81954 0.48951,0.38508 0.6013,0.65782 0.6013,1.46719 0,0.54679 -0.20254,1.52706 -0.45009,2.17835 -0.24754,0.6513 -0.45012,1.70027 -0.45019,2.33103 -1.3e-4,1.31815 0.24581,1.62776 1.86021,2.3419 0.95394,0.42199 1.11636,0.43563 1.68001,0.14128 1.20445,-0.629 2.52433,-1.71401 2.84916,-2.34215 0.18809,-0.3637 0.83974,-0.90545 1.52747,-1.26985 2.51734,-1.33381 4.00548,-2.27922 4.00927,-2.54707 0.002,-0.18545 -0.23978,-0.12948 -0.72766,0.16799 -0.48149,0.29358 -1.1326,0.44633 -1.90487,0.44688 -1.04882,6.7e-4 -1.29965,-0.1019 -2.36353,-0.96785 -1.30521,-1.06229 -1.68646,-1.95757 -0.83362,-1.95757 0.29059,0 0.83987,0.36379 1.30996,0.8676 0.44525,0.4772 0.96149,0.9175 1.14718,0.97843 0.1857,0.061 0.87256,-0.0719 1.52636,-0.29513 0.65379,-0.22328 1.31467,-0.35761 1.46862,-0.29854 0.50365,0.19326 0.091,-2.57432 -0.61473,-4.1228 -0.7307,-1.60336 -0.71161,-2.63314 0.0963,-5.19684 0.63417,-2.01228 0.58981,-2.28105 -0.56325,-3.41268 -0.79404,-0.77929 -1.01292,-1.15425 -1.01292,-1.7351 0,-1.0006 0.75091,-1.04342 1.09291,-0.0623 0.13014,0.37325 0.46924,0.76578 0.75359,0.87226 0.44322,0.166 0.53731,0.10933 0.6592,-0.39727 0.0781,-0.32499 0.15418,-1.08445 0.16883,-1.68767 0.0221,-0.90727 -0.0268,-1.05236 -0.28316,-0.83967 -0.20118,0.16697 -1.16794,0.23582 -2.75744,0.19638 -2.20937,-0.0548 -2.55722,-0.008 -3.57315,0.48973 -0.61901,0.30275 -1.64421,1.08778 -2.2782,1.74451 -1.15615,1.19761 -1.51256,1.39122 -1.77607,0.96485 -0.39015,-0.63127 2.35189,-3.54456 3.99599,-4.24558 0.52727,-0.22482 1.7597,-0.48051 2.73874,-0.56822 3.2452,-0.29069 3.57618,-0.6667 3.76403,-4.27597 0.12098,-2.32434 0.28024,-3.16932 1.08608,-5.76254 0.79311,-2.55222 0.93176,-3.27622 0.8659,-4.5214 -0.0642,-1.21272 -0.18841,-1.6133 -0.68275,-2.2008 -0.82518,-0.98066 -0.6188,-1.47019 0.55353,-1.31294 0.48627,0.0652 1.09139,0.30442 1.34469,0.53157 0.41924,0.37597 0.44938,0.59469 0.33608,2.43888 -0.0792,1.28764 -0.46361,3.33831 -1.05517,5.62743 -1.11514,4.31526 -1.28888,6.23569 -0.81964,9.05953 0.30405,1.82984 0.30733,2.33833 0.027,4.2053 -0.17536,1.16808 -0.56548,3.11827 -0.86695,4.33377 -0.96499,3.89062 -0.95799,4.89844 0.0417,6.00382 0.24347,0.26922 0.38536,0.83079 0.39823,1.5761 0.0331,1.92058 1.85438,13.83552 2.46506,16.12683 0.71368,2.67777 1.93289,5.19975 4.73361,9.79173 2.93509,4.81229 3.61516,6.09414 3.9409,7.42821 0.15116,0.61901 0.52316,1.62336 0.8267,2.23185 0.30352,0.60845 0.88904,2.44502 1.30113,4.08124 0.46653,1.85233 1.09689,3.66632 1.67051,4.8072 0.50669,1.00774 1.21388,2.73509 1.57154,3.83848 0.87727,2.70652 2.05549,4.87895 3.47109,6.40002 1.02424,1.10054 1.28465,1.26349 2.01929,1.26349 0.7656,0 0.82179,-0.0403 0.60918,-0.43767 -0.12883,-0.24071 -0.33056,-0.49716 -0.44828,-0.56995 -0.11773,-0.0727 -0.85156,-1.36722 -1.63074,-2.87658 -0.77919,-1.50934 -1.79655,-3.25068 -2.26082,-3.86963 -0.89107,-1.18804 -1.01153,-1.57024 -0.57906,-1.83752 0.38125,-0.23562 1.2895,0.94261 2.6775,3.47336 2.2889,4.17337 5.01212,7.91875 5.75763,7.91875 0.18332,0 0.52923,-0.1048 0.76871,-0.23302 z m -18.87531,-45.63057 c -1.59346,-3.38422 -2.468,-7.81596 -2.22475,-11.27387 0.13114,-1.86401 0.68175,-3.36193 1.16415,-3.16702 0.14205,0.0574 0.19465,1.46126 0.1426,3.80505 -0.0928,4.17864 0.0358,4.93352 1.55091,9.10453 0.49231,1.35527 0.8951,2.69741 0.8951,2.98254 0,1.05745 -0.62734,0.46163 -1.52801,-1.45123 z m -17.24749,-11.95388 c -0.0883,-0.14301 0.19665,-0.3892 0.68861,-0.59475 0.46166,-0.1929 1.41509,-0.89983 2.11871,-1.57097 1.37695,-1.31341 2.25326,-1.69703 2.81379,-1.23184 0.63503,0.52703 0.2918,1.17849 -0.8322,1.57957 -0.57393,0.20479 -1.44933,0.69847 -1.94532,1.09705 -0.94323,0.758 -2.56635,1.1695 -2.84359,0.72094 z m 13.56584,-6.95428 c -0.27936,-0.7018 -0.0856,-2.36215 0.70068,-6.00727 0.60144,-2.78795 0.49073,-3.60941 -0.63453,-4.70823 -0.7929,-0.77422 -0.86448,-0.79934 -1.33613,-0.46897 -0.2832,0.19834 -0.49836,0.58651 -0.49836,0.89902 0,0.78297 -0.83946,0.7586 -1.03741,-0.0301 -0.18725,-0.74607 0.28228,-1.62677 1.14996,-2.15695 1.42562,-0.87113 2.70833,-0.26776 3.62755,1.70635 0.66821,1.43504 0.70043,3.18566 0.0912,4.95644 -0.24508,0.71229 -0.61824,2.45014 -0.82927,3.8619 -0.4004,2.67855 -0.73348,3.20444 -1.23368,1.94781 z m 8.49632,-35.71454 c -0.50214,-1.20174 -1.55588,-1.76932 -2.949,-1.5884 -1.90044,0.24682 -2.00789,0.23757 -2.09244,-0.18001 -0.0567,-0.27967 0.15686,-0.49739 0.7173,-0.73156 1.08815,-0.45465 2.15546,-0.41852 3.51954,0.11916 1.11244,0.43847 1.19723,0.44069 2.72787,0.0713 1.51653,-0.36603 1.61118,-0.36437 2.36474,0.0414 0.83129,0.44767 1.31515,1.09889 1.08871,1.46527 -0.22529,0.36452 -0.83704,0.25001 -1.37766,-0.25789 -0.5798,-0.54469 -1.22857,-0.5988 -2.42918,-0.20256 -0.64506,0.2129 -0.79951,0.36049 -0.67723,0.64718 0.29178,0.68403 0.21695,1.25632 -0.17465,1.33574 -0.26364,0.0535 -0.48962,-0.17302 -0.718,-0.71962 z m 4.59175,-5.54514 c 0,-0.12963 0.39573,-0.96531 0.87939,-1.85704 0.48365,-0.89177 0.95124,-2.07719 1.03907,-2.63431 0.23111,-1.46582 0.49811,-1.90528 0.93654,-1.54142 0.44194,0.36678 0.29399,1.83302 -0.36018,3.56975 -0.72767,1.93183 -1.27576,2.69871 -1.92876,2.69871 -0.31133,0 -0.56606,-0.10602 -0.56606,-0.23569 z m -45.13199,93.65573 c 6.33788,-0.24197 7.66034,-0.45402 7.86284,-1.26081 0.0763,-0.30389 0.28745,-3.76682 0.46929,-7.69544 0.438,-9.4629 0.69724,-10.61077 3.12474,-13.83599 0.99294,-1.31926 1.34034,-2.00626 1.63386,-3.23117 0.20502,-0.85561 0.4967,-1.70762 0.64817,-1.89333 0.41873,-0.51339 1.00496,-1.73835 1.00496,-2.09993 0,-0.17682 -0.32455,-0.45593 -0.72121,-0.62025 -1.16695,-0.48335 -4.62897,-2.8394 -4.89059,-3.32823 -0.67731,-1.26559 -0.0994,-1.20919 2.01025,0.19619 1.8539,1.23501 3.57587,1.91478 4.34395,1.71481 0.49613,-0.12915 2.63407,-1.94357 2.63407,-2.23546 0,-0.0852 -0.35789,-0.15493 -0.79533,-0.15493 -1.02687,0 -2.49832,-0.75554 -4.73041,-2.42894 -3.48724,-2.61436 -6.6658,-6.51245 -8.9065,-10.92268 -0.86897,-1.71034 -1.72626,-3.52435 -1.90505,-4.03116 -0.29595,-0.83879 -0.28954,-0.96141 0.0714,-1.36676 0.39231,-0.4406 0.38882,-0.44139 -0.32837,-0.0745 -0.3987,0.20393 -0.84156,0.59765 -0.98417,0.87491 -0.1426,0.27728 -0.51379,0.77718 -0.82485,1.11088 l -0.56561,0.60675 0.61735,1.98007 c 0.73259,2.34967 1.6144,4.16792 2.95958,6.10249 1.67886,2.41449 1.08038,3.25561 -0.71308,1.00216 -0.93845,-1.17918 -4.37881,-7.66922 -4.37881,-8.26041 0,-0.14209 -1.77323,0.33428 -4.12223,1.10741 -4.92189,1.61993 -7.14467,2.87692 -9.96206,5.63358 -1.56353,1.52985 -1.99316,2.12252 -2.85555,3.9392 -1.23707,2.60604 -1.80736,4.40829 -2.44095,7.71407 -0.43747,2.28261 -0.46709,2.91004 -0.30526,6.46706 0.35211,7.73937 0.26916,10.03323 -0.54459,15.06135 -0.71144,4.39598 -0.72588,4.60492 -0.33438,4.83959 2.27061,1.36112 11.92765,4.83692 14.14973,5.09284 1.95868,0.22558 2.79201,0.22523 8.7788,-0.004 z m -9.49209,-3.51155 c -0.27724,-0.72245 0.15011,-3.90377 0.9652,-7.18524 0.83739,-3.3712 0.83874,-3.38451 0.87354,-8.5537 0.0253,-3.74906 0.1421,-5.79817 0.42361,-7.4282 0.49914,-2.89008 0.6018,-3.11558 1.69954,-3.73255 0.75891,-0.42652 0.91598,-0.63282 0.91727,-1.20476 0.002,-1.256 0.88605,-4.40579 1.70797,-6.09135 0.83221,-1.70669 3.03228,-4.39051 3.59913,-4.39051 0.49557,0 0.3934,0.24221 -0.67762,1.60649 -0.54785,0.69786 -1.24504,1.76145 -1.54929,2.36352 -0.72479,1.43424 -1.50608,4.25568 -1.50608,5.43887 l 0,0.93898 0.67388,-0.40981 c 1.17671,-0.7156 4.06197,-3.27082 4.51614,-3.99955 0.24058,-0.38601 0.43741,-0.96247 0.43741,-1.28101 0,-0.31854 0.10569,-0.64451 0.23496,-0.72438 0.40244,-0.24872 0.89052,0.36543 0.89052,1.12056 0,1.57858 -2.34085,4.0936 -6.14964,6.60714 -1.21575,0.80232 -2.36375,1.6927 -2.5511,1.97864 -0.84999,1.29728 -1.02131,2.5866 -1.1936,8.98283 l -0.16975,6.30274 -0.91942,3.93918 c -0.5057,2.16657 -0.9877,4.42038 -1.07114,5.00842 -0.12076,0.85114 -0.23976,1.0692 -0.58341,1.0692 -0.23742,0 -0.49309,-0.15997 -0.56812,-0.35551 z m 14.10659,-17.83983 c -1.02323,-0.3098 -0.67145,-0.80989 0.6893,-0.97986 0.68862,-0.0861 1.78128,-0.36501 2.42811,-0.61997 1.78232,-0.70253 2.72096,-0.60303 2.26947,0.24058 -0.54362,1.01577 -3.80417,1.83849 -5.38688,1.35925 z m -1.01294,-3.40588 c -3.05559,-0.80921 -4.8396,-1.88712 -4.8396,-2.92414 0,-0.25324 0.0455,-0.46043 0.10128,-0.46043 0.0556,0 0.68878,0.3544 1.40685,0.78756 2.16829,1.30796 3.18007,1.54735 5.78842,1.36951 4.17376,-0.28455 3.83759,-0.31426 3.91416,0.34598 0.0584,0.50399 -0.065,0.64308 -0.84867,0.95666 -1.20907,0.48378 -3.53131,0.45219 -5.52245,-0.0751 z m -27.69681,12.61615 c 0.56905,-2.88692 0.79289,-4.6148 0.78095,-6.02832 l -0.0168,-1.98144 -0.77261,3.52287 c -0.42494,1.93759 -1.06531,4.67254 -1.42309,6.07764 l -0.65046,2.55475 0.48298,0.38091 c 0.45725,0.36071 0.49144,0.35805 0.64211,-0.0492 0.0876,-0.23665 0.51812,-2.25134 0.95685,-4.47714 z m 68.62523,-39.22078 c 3.36146,-1.94707 3.52432,-2.16822 4.7417,-6.43811 0.71516,-2.50847 1.12499,-3.5947 1.46518,-3.88347 0.0743,-0.0631 0.8535,-0.87344 1.73151,-1.80078 1.34505,-1.42058 1.7123,-1.98736 2.33232,-3.59939 l 0.73592,-1.91335 -0.24086,-3.82663 c -0.13611,-2.16272 -0.3948,-4.31607 -0.59488,-4.95216 -0.1947,-0.61902 -0.4173,-2.02454 -0.49465,-3.12339 -0.11889,-1.68879 -0.22505,-2.08932 -0.6862,-2.58862 l -0.54555,-0.59069 0.1298,0.56273 c 0.33194,1.4391 0.38527,2.94065 0.14541,4.09602 -0.37128,1.78843 -2.27947,4.92487 -4.11031,6.75603 l -1.51028,1.51054 0.11805,3.54 c 0.13073,3.92138 0.25754,4.35833 1.58166,5.44978 0.70497,0.58109 0.78616,0.73645 0.53988,1.03319 -0.42006,0.50615 -0.98111,0.42967 -1.58812,-0.21646 -0.29232,-0.31115 -0.60091,-0.48841 -0.68577,-0.39393 -0.22996,0.25606 -0.95997,3.43791 -0.82071,3.57717 0.27887,0.27885 1.09796,-0.45459 1.42752,-1.27826 0.38124,-0.95279 0.51496,-1.04112 0.93712,-0.61895 0.71572,0.71572 -0.2459,2.16261 -1.88984,2.84355 -0.38164,0.15808 -0.86302,0.63751 -1.11327,1.10877 -0.24248,0.45663 -0.70702,1.13683 -1.03233,1.51154 -0.3253,0.37471 -1.05967,1.36601 -1.63195,2.20289 -1.57891,2.30894 -1.41752,2.46626 1.05865,1.03198 z"
       id="path3012"
       inkscape:connector-curvature="0" />
  </g>
</svg>
