<?xml version="1.0" encoding="UTF-8" standalone="no"?>
<!-- Created with Inkscape (http://www.inkscape.org/) -->

<svg
   xmlns:dc="http://purl.org/dc/elements/1.1/"
   xmlns:cc="http://creativecommons.org/ns#"
   xmlns:rdf="http://www.w3.org/1999/02/22-rdf-syntax-ns#"
   xmlns:svg="http://www.w3.org/2000/svg"
   xmlns="http://www.w3.org/2000/svg"
   xmlns:xlink="http://www.w3.org/1999/xlink"
   xmlns:sodipodi="http://sodipodi.sourceforge.net/DTD/sodipodi-0.dtd"
   xmlns:inkscape="http://www.inkscape.org/namespaces/inkscape"
   width="611.86719"
   height="895.86127"
   id="svg2"
   version="1.1"
   inkscape:version="0.48.3.1 r9886"
   sodipodi:docname="Barbell-shrugs-2.svg">
  <defs
     id="defs4">
    <radialGradient
       gradientUnits="userSpaceOnUse"
       gradientTransform="matrix(1,0,0,0.91819829,-19.285714,-7.9105395)"
       r="209.56604"
       fy="287.50052"
       fx="398.1105"
       cy="287.50052"
       cx="398.1105"
       id="radialGradient5255"
       xlink:href="#linearGradient5249"
       inkscape:collect="always" />
    <linearGradient
       id="linearGradient5249"
       inkscape:collect="always">
      <stop
         id="stop5251"
         offset="0"
         style="stop-color:#e3e3e3;stop-opacity:1;" />
      <stop
         id="stop5253"
         offset="1"
         style="stop-color:#e3e3e3;stop-opacity:0;" />
    </linearGradient>
  </defs>
  <sodipodi:namedview
     id="base"
     pagecolor="#ffffff"
     bordercolor="#666666"
     borderopacity="1.0"
     inkscape:pageopacity="0.0"
     inkscape:pageshadow="2"
     inkscape:zoom="0.35"
     inkscape:cx="-182.6941"
     inkscape:cy="98.529207"
     inkscape:document-units="px"
     inkscape:current-layer="layer1"
     showgrid="false"
     showguides="true"
     inkscape:guide-bbox="true"
     fit-margin-top="0"
     fit-margin-left="0"
     fit-margin-right="0"
     fit-margin-bottom="0"
     inkscape:window-width="1201"
     inkscape:window-height="886"
     inkscape:window-x="215"
     inkscape:window-y="103"
     inkscape:window-maximized="0">
    <sodipodi:guide
       orientation="-0.70710678,0.70710678"
       position="-2643.9865,592.70698"
       id="guide2985" />
  </sodipodi:namedview>
  <metadata
     id="metadata7">
    <rdf:RDF>
      <cc:Work
         rdf:about="">
        <dc:format>image/svg+xml</dc:format>
        <dc:type
           rdf:resource="http://purl.org/dc/dcmitype/StillImage" />
        <dc:title></dc:title>
      </cc:Work>
    </rdf:RDF>
  </metadata>
  <g
     inkscape:label="Ebene 1"
     inkscape:groupmode="layer"
     id="layer1"
     transform="translate(-1215.415,276.50635)">
    <path
       style="fill:#000000"
       d="m 1442.2478,616.29646 c -3.0721,-1.6673 -8.4112,-5.5928 -11.8646,-8.7234 -5.8342,-5.2886 -6.4459,-6.2586 -8.6344,-13.6918 -1.2955,-4.4 -2.7922,-11.6 -3.326,-16 -1.1339,-9.3453 -2.2531,-12.7022 -8.4778,-25.4274 -4.9489,-10.1171 -5.5709,-14.0591 -3.2654,-20.6969 1.1108,-3.1984 1.1187,-4.4 0.045,-6.8757 -1.7846,-4.1149 -1.6793,-10.1264 0.2714,-15.5 1.1689,-3.2199 1.6494,-8.0557 1.6894,-17 0.06,-13.5178 -0.1394,-14.5278 -7.8172,-39.5 -7.5824,-24.662 -8.0764,-27.7172 -6.7521,-41.7618 1.6449,-17.443 4.886,-29.1133 12.0603,-43.42517 9.1917,-18.3363 9.8161,-20.8322 10.585,-42.313 0.3642,-10.175 1.3117,-31.9677 2.1056,-48.4282 0.7938,-16.4604 1.336,-29.9768 1.2048,-30.0363 -3.2361,-1.4677 -11.7385,-7.9223 -11.7385,-8.9114 0,-0.7454 1.3268,-6.4124 2.9484,-12.5932 2.7271,-10.3945 7.6418,-37.86006 6.8831,-38.46605 -0.1823,-0.14563 -15.6871,2.45745 -34.4552,5.7846 l -34.1237,6.04938 -1.1314,11.15967 c -2.25,22.193 -9.7896,39.3642 -22.4179,51.0558 -6.9531,6.4373 -10.257,8.0303 -25.8916,12.484 -10.7657,3.0668 -11.6417,3.1657 -18.1485,2.0503 -3.7603,-0.6446 -9.3853,-2.3921 -12.5,-3.8834 -7.5326,-3.6064 -17.6336,-13.9183 -22.3467,-22.8133 -3.7728,-7.1204 -8.8165,-22.6817 -8.8165,-27.2015 0,-2.4844 -0.093,-2.5148 -5.7082,-1.8549 -3.1395,0.369 -6.6683,0.9119 -7.8417,1.2064 -4.8063,1.2063 -10.8769,-7.7126 -9.0285,-13.265 1.6332,-4.90608 4.1385,-6.53554 12.6664,-8.23833 l 8.412,-1.67965 0.6924,-7.59269 c 2.5541,-28.00892 19.8207,-53.77926 39.3466,-58.72453 2.1786,-0.55176 6.661,-1.97539 9.961,-3.16361 4.9522,-1.78311 7.4845,-2.07678 14.5,-1.68157 19.918,1.12207 32.4591,12.73699 41.8329,38.74347 1.6851,4.675 3.3316,9.78137 3.659,11.34749 0.4845,2.31811 1.0054,2.7515 2.8017,2.33118 1.2135,-0.28396 18.0681,-3.13225 37.4547,-6.32954 l 35.2482,-5.81325 0.6394,-3.40864 c 0.3517,-1.87475 0.015,-7.95782 -0.7482,-13.51794 -0.7632,-5.56011 -1.3877,-14.62076 -1.3877,-20.13476 0,-9.30391 0.2354,-10.50333 3.2709,-16.665 1.7989,-3.65175 5.3064,-8.9037 7.7945,-11.67102 4.3751,-4.866213 4.5566,-5.326303 5.5259,-14.007273 l 1.0021,-8.9758 -6.1914,-12.32773 c -3.4052,-6.78024 -8.1195,-16.82772 -10.4761,-22.32772 -3.6835,-8.59669 -4.8175,-10.30848 -8.0809,-12.1982 -5.1113,-2.9598 -6.345,-4.90073 -6.345,-9.9822 0,-8.46504 -3.0099,-13.64022 -15.2288,-26.1841999 -17.4847,-17.9498801 -22.0023,-28.4751401 -23.8793,-55.6354001 -0.8953,-12.95464 -1.3532,-15.48651 -3.3579,-18.5679 -8.4652,-13.01126 -12.0666,-26.850017 -11.3253,-43.518667 0.3831,-8.61475 0.8422,-10.82352 3.0208,-14.53588 4.316,-7.35458 10.3223,-13.35998 16.8322,-16.82972 5.4016,-2.87903 7.2528,-3.33072 14.3209,-3.49432 6.6064,-0.1529 9.2343,-0.71862 14.1174,-3.03916 5.4922,-2.60998 7.1003,-2.87595 19,-3.1427 18.475,-0.41414 19.6248,-0.78107 21.6246,-6.90046 2.3379,-7.15437 2.9889,-14.47119 1.2874,-14.47119 -4.2708,0 -13.8172,-12.54792 -14.8656,-19.53964 -0.7279,-4.85358 1.4305,-13.48982 4.1531,-16.61757 1.0062,-1.15589 1.5148,-4.64836 1.6814,-11.54515 0.2105,-8.71281 0.6123,-10.6858 3.3805,-16.60132 1.7693,-3.78099 5.455,-9.15956 8.438,-12.31365 8.653,-9.14921 17.1651,-12.5011 31.688,-12.47801 6.9597,0.0111 10.2984,0.56493 16.1902,2.68582 13.2241,4.76036 19.7094,10.86929 26.444,24.90952 5.9308,12.36433 6.9068,18.89987 6.9448,46.5 0.032,23.46048 -0.065,24.72687 -2.2859,29.8471 -1.2758,2.9409 -2.1758,5.48562 -2,5.65493 0.9308,0.89665 4.0131,0.76588 10.1614,-0.43112 13.6637,-2.66019 23.8945,0.24745 37.4915,10.65525 8.0489,6.16114 15.0646,14.15212 18.6227,21.21168 3.2989,6.54545 4.6489,16.5359 4.4001,32.56216 l -0.2173,13.999997 4.1806,10.92915 c 4.6729,12.21626 5.2198,18.55133 3.0962,35.86576 -1.3335,10.87338 0.2779,20.08138 6.2484,35.7050901 12.1707,31.8482899 12.0957,31.5830599 12.5809,44.4999999 0.248,6.6 -0.08,16.275 -0.7291,21.5 -2.4428,19.66793 -2.4311,29.70854 0.045,39.000003 1.7827,6.68837 2.2355,10.89774 2.1245,19.75 -0.1381,11.02433 -0.096,11.24887 2.0866,11.19352 1.2252,-0.0311 11.9026,-1.71856 23.7276,-3.75 l 21.5,-3.69352 0.7196,-9.36025 c 1.8364,-23.887373 12.9963,-46.013893 28.2355,-55.981833 15.427,-10.09082 35.7866,-12.85641 49.2546,-6.69059 13.9647,6.39329 28.5264,29.16718 31.7668,49.682133 0.4388,2.77793 0.9881,3.56139 2.3,3.28067 0.9479,-0.20284 9.1422,-1.54201 18.2094,-2.97593 l 16.4858,-2.60713 2.2642,2.63223 c 2.6026,3.02568 2.8781,6.43278 0.839,10.37589 -1.2937,2.50181 -2.3308,2.91401 -11.25,4.47148 -5.4037,0.94359 -13.6984,2.4161 -18.4327,3.27224 l -8.6079,1.55663 -0.6545,9.31047 c -1.3566,19.29942 -8.6507,37.81099 -19.6124,49.7737 -7.2338,7.89442 -12.481,10.76991 -27.013,14.80327 -13.8376,3.84063 -21.3889,3.75884 -30.3165,-0.32836 -14.6742,-6.71807 -28.0209,-26.50992 -31.8346,-47.20769 l -1.2036,-6.53184 -3.5748,0.68104 c -1.9662,0.37457 -12.7999,2.31111 -24.0749,4.30342 -11.275,1.99232 -20.4304,4.05396 -20.3454,4.58142 0.085,0.52747 0.463,3.88446 0.8399,7.45998 0.6079,5.76742 0.4387,6.81427 -1.4992,9.2779 -2.9924,3.8043 -9.1122,6.73352 -15.3137,7.32982 -11.7578,1.1306 -11.9672,1.21309 -11.3181,4.45851 0.3228,1.61404 3.5598,8.0701 7.1934,14.3468 5.6567,9.77146 6.446,11.71223 5.4897,13.49913 -0.6143,1.1478 -1.5622,2.0869 -2.1065,2.0869 -2.1904,0 -2.6911,4.6438 -1.2416,11.5177 0.9576,4.5415 1.5891,14.6727 1.8065,28.9823 0.3006,19.7894 0.5935,22.9926 2.9146,31.8782 3.1815,12.1793 3.3258,21.3993 0.5036,32.1743 -1.1423,4.361 -1.8311,9.1578 -1.5307,10.6596 0.3003,1.5018 1.5104,17.7059 2.6891,36.0092 1.7367,26.96827 1.9858,36.88147 1.3136,52.27867 -0.4561,10.45 -0.8442,24.4 -0.8623,31 -0.03,10.9917 0.1945,12.4852 2.6732,17.7748 2.7917,5.9577 11.6866,17.469 18.4451,23.8709 7.8429,7.429 22.0016,18.2061 26.8488,20.4364 2.75,1.2654 8.15,3.0256 12,3.9117 15.5429,3.5772 19.6288,4.8196 22.0097,6.6924 2.2359,1.7589 2.4903,2.6841 2.4903,9.0578 l 0,7.0988 -4.4817,4.2943 c -5.1367,4.9218 -12.4429,7.499 -26.5901,9.3795 -11.797,1.5681 -20.8334,0.1435 -39.3748,-6.2073 l -15.0534,-5.1561 -20,-0.6119 c -15.8097,-0.4838 -20.6442,-0.9577 -23.0751,-2.2619 -4.0768,-2.1873 -10.2072,-9.0638 -11.0405,-12.3842 -1.2264,-4.8864 1.4709,-26.5874 5.0261,-40.4368 4.4055,-17.1621 5.9556,-28.0734 5.386,-37.9129 -0.539,-9.311 -2.8952,-14.7195 -11.7612,-26.9966 -9.3503,-12.9479 -12.0353,-21.863 -12.0353,-39.96157 0,-13.1313 1.4364,-25.2616 4.1484,-35.0342 2.8444,-10.2496 2.2483,-15.9923 -2.4656,-23.7522 -3.6773,-6.0535 -3.6828,-6.0796 -3.6828,-17.5325 0,-6.3085 -0.4781,-12.8414 -1.0624,-14.5176 -0.5843,-1.6762 -5.2627,-8.7979 -10.3963,-15.8259 -7.2606,-9.9398 -14.1852,-21.1742 -16.1481,-26.1984 -0.059,-0.1505 -0.7908,-0.011 -1.6267,0.3096 -0.887,0.3404 -1.7382,2.3279 -2.0442,4.7736 -6.041,48.2719 -7.1197,52.1131 -19.0686,67.9027 -3.102,4.0991 -4.0214,6.3604 -4.7509,11.6851 -1.0889,7.9486 -7.168,20.4668 -14.1131,29.0625 -4.5574,5.6405 -4.719,6.0687 -4.976,13.1849 -0.1461,4.0453 0.3297,15.90507 1.0572,26.35507 1.5614,22.426 1.0878,28.0582 -3.3182,39.4592 -3.6068,9.333 -4.7155,13.7153 -7.0943,28.0408 -0.8676,5.225 -2.6896,15.0252 -4.0488,21.7783 -2.8982,14.3988 -2.7128,15.6731 4.3184,29.6802 10.4504,20.8186 26.5179,45.2613 36.8391,56.0415 10.8801,11.364 12.4329,13.8182 12.4329,19.6504 0,9.2028 -6.7254,18.8496 -13.1413,18.8496 -2.0798,0 -3.7409,0.895 -5.466,2.9451 -1.8708,2.2234 -3.6318,3.0928 -7.1854,3.5476 -2.589,0.3313 -7.2118,1.256 -10.2729,2.0548 -3.0611,0.7989 -9.3611,1.4405 -14,1.4258 -7.4681,-0.024 -9.0743,-0.3739 -14.02,-3.0581 z m 25.3728,-6.6468 c 2.3582,-0.9436 5.3468,-1.3126 7.8792,-0.9729 6.0322,0.8091 6.8336,0.1851 6.8336,-5.3207 0,-8.6523 1.7616,-10.1881 5.1325,-4.4748 2.3171,3.9272 5.5563,4.6258 8.1139,1.75 2.2531,-2.5335 4.1241,-9.6376 3.3503,-12.721 -0.3661,-1.4586 -5.0377,-7.0119 -10.3812,-12.3406 -14.8997,-14.8582 -32.3725,-43.7194 -39.7211,-65.6104 -2.6658,-7.9414 -2.9907,-12.4041 -1.4253,-19.578 0.54,-2.475 1.3891,-11.2891 1.8868,-19.5869 0.9777,-16.3019 2.4102,-23.2346 7.524,-36.4131 1.8141,-4.675 3.6213,-10.4625 4.0159,-12.8612 0.7992,-4.8569 -0.3562,-32.1611 -1.3582,-32.0998 -0.3507,0.021 -2.1716,2.1224 -4.0465,4.6687 -4.5813,6.2221 -7.4488,14.936 -10.6265,32.2923 -1.4601,7.975 -2.8005,14.651 -2.9787,14.8356 -0.1781,0.1846 -0.8008,-0.5556 -1.3838,-1.645 -0.7908,-1.4774 -0.423,-5.6276 1.4476,-16.3356 3.4211,-19.5834 5.8758,-27.9518 10.9577,-37.355 2.3779,-4.4 5.2935,-11.82497 6.4791,-16.49997 2.2987,-9.0641 6.9996,-18.4603 11.8676,-23.7213 3.3882,-3.6616 6.6015,-11.5598 8.6339,-21.2217 1.678,-7.9767 3.1539,-12.057 4.3612,-12.057 0.4943,0 3.2175,-3.532 6.0516,-7.8488 6.1506,-9.3685 8.1077,-16.7399 10.6574,-40.1397 0.9282,-8.5186 1.931,-16.1227 2.2284,-16.8978 0.7199,-1.876 -0.6898,-1.516 -20.7361,5.2963 -14.5655,4.9498 -17.3655,5.59 -24.4483,5.59 -7.848,0 -21.0449,-3.1184 -27.6721,-6.5387 l -2.5698,-1.3264 -1.7988,17.1826 c -2.5801,24.6462 -3.4643,40.0043 -2.8372,49.28 0.653,9.66 -1.2477,29.9072 -3.4642,36.9025 -0.8714,2.75 -3.8085,9.95 -6.527,16 -9.1421,20.34597 -12.7331,33.93747 -12.7331,48.19377 0,7.5153 1.0847,12.7367 7.5418,36.3062 4.9258,17.9801 6.4181,25.9171 7.4771,39.7677 0.8493,11.1086 0.7553,12.7311 -0.9945,17.1706 -1.6954,4.3011 -1.7947,5.644 -0.8093,10.9428 0.8862,4.7651 0.834,7.2459 -0.2472,11.7531 l -1.3706,5.713 5.2519,10.0764 c 4.1661,7.9932 5.6404,12.1438 7.131,20.0764 1.0334,5.5 2.5525,11.875 3.3756,14.1666 0.8232,2.2917 1.8087,6.3417 2.1902,9 0.584,4.0706 1.4698,5.572 5.6129,9.5135 2.7057,2.574 7.2644,5.8642 10.1303,7.3115 4.6388,2.3426 5.9237,2.5582 11.7048,1.9642 3.5717,-0.367 8.2037,-1.3513 10.2932,-2.1874 z m -15.9255,-10.7684 c -1.0131,-2.6401 0.4294,-4.3666 4.5827,-5.485 4.6985,-1.2652 8.0556,-0.051 8.0556,2.9132 0,2.3056 -2.1402,3.1937 -5.8896,2.4439 -1.6271,-0.3254 -3.1621,-0.097 -3.5481,0.5272 -0.9634,1.5588 -2.524,1.3641 -3.2006,-0.3993 z m 25.8675,-6.6708 c -0.676,-0.6761 -1.2292,-1.742 -1.2292,-2.3687 0,-0.6267 -1.1603,-1.6682 -2.5785,-2.3143 -3.1943,-1.4555 -2.6852,-3.538 0.9703,-3.9689 4.3575,-0.5136 7.7867,2.3187 7.417,6.1261 -0.3307,3.4064 -2.5016,4.6038 -4.5796,2.5258 z m -52.7341,-68.8449 c -1.5358,-4.8387 4.5725,-13.5339 12.2053,-17.3741 4.1617,-2.0939 4.5,-2.0414 4.1192,0.6398 -0.2038,1.435 -2.2275,3.4801 -5.5872,5.646 -3.5272,2.2741 -5.4477,4.2564 -5.8127,6 -0.2998,1.4322 -0.7505,3.6165 -1.0015,4.854 -0.567,2.7962 -3.0627,2.9452 -3.9231,0.2343 z m -2.5454,-134.0784 c -1.4076,-2.63 -3.1293,-26.10837 -1.9983,-27.24967 0.4599,-0.4641 1.6715,-0.679 2.6924,-0.4776 1.7004,0.3355 1.826,1.2892 1.496,11.362 -0.2735,8.34667 0.015,11.89487 1.1989,14.72757 1.4843,3.5523 1.4672,3.7318 -0.3545,3.7318 -1.0526,0 -2.4181,-0.9424 -3.0345,-2.0941 z m 30.7364,-44.92247 c -1.5477,-0.4645 -3.4602,-1.381 -4.25,-2.0365 -1.6214,-1.3456 -1.973,-6.9469 -0.4361,-6.9469 0.55,0 1,0.6495 1,1.4433 0,3.791 7.7214,5.841 11.6462,3.092 3.3416,-2.3406 4.8097,0.866 1.7824,3.8933 -1.6962,1.6961 -5.2635,1.8993 -9.7425,0.5548 z m 21.141,-29.7508 c -5.6178,-6.2217 -6.9951,-8.778 -6.6457,-12.3348 0.4497,-4.5784 2.2788,-4.6429 3.6315,-0.128 0.6304,2.104 2.5405,5.9305 4.2447,8.5033 4.4006,6.6438 3.5793,9.2864 -1.2305,3.9595 z m -35.5155,1.1368 c -1.7582,-4.5816 7.5615,-14.1298 16.8549,-17.2682 3.2594,-1.1007 7.2898,-3.1488 8.9566,-4.5513 3.841,-3.232 7.1459,-3.4262 6.6965,-0.3935 -0.3873,2.6133 -9.7441,8.1142 -17.8196,10.4763 -6.8364,1.9996 -7.5757,2.5966 -10.5948,8.5545 -2.6596,5.2484 -3.1535,5.6323 -4.0936,3.1822 z m 240.9537,219.42257 c 7.9314,-3.7872 9.819,-5.8197 8.0593,-8.6779 -1.7239,-2.8 -10.3944,-6.9437 -23.3246,-11.1471 -15.0267,-4.885 -19.8771,-7.9323 -31.0017,-19.4769 -4.6741,-4.8505 -11.9817,-12.352 -16.2392,-16.67 -4.2576,-4.318 -8.9638,-10.2065 -10.4584,-13.0855 -2.4521,-4.7234 -2.7173,-6.2601 -2.7162,-15.7346 7e-4,-5.775 0.6106,-18.3861 1.3553,-28.0246 1.355,-17.5364 1.2345,-27.1309 -0.8789,-69.97537 -0.529,-10.725 -0.9863,-20.175 -1.0163,-21 -0.035,-0.9581 -0.9429,-0.4162 -2.5136,1.5 l -2.459,3 -0.035,-2.5 c -0.019,-1.375 1.1557,-7.225 2.6107,-13 2.1022,-8.3443 2.7055,-13.3742 2.9382,-24.5 0.3266,-15.6137 -0.3765,-19.0187 -3.7091,-17.961 -1.9752,0.6269 -2.0819,0.4252 -1.4172,-2.6805 1.628,-7.6074 1.6992,-35.2909 0.1215,-47.2689 -0.8628,-6.5507 -1.765,-12.1065 -2.0048,-12.3464 -0.5503,-0.5502 -7.5508,4.2521 -14.0766,9.6565 -9.6645,8.0037 -33.5284,14.4768 -53.6677,14.5575 l -10.6677,0.043 4.0966,7.8798 c 2.2532,4.3338 7.0545,11.9838 10.6696,17 11.6908,16.2214 11.9836,16.9707 12.6165,32.2861 0.4304,10.4168 0.6211,11.1863 4.9502,19.9761 4.6114,9.3631 5.2435,12.0826 3.5147,15.1216 -2.4026,4.2236 -5.0119,23.5719 -4.9949,37.0372 0.027,21.16057 2.8913,31.43947 12.2674,44.02147 6.8073,9.1347 8.4724,13.2772 9.7744,24.3171 1.5042,12.7547 -0.068,30.5925 -4.0855,46.3606 -1.6816,6.6 -3.4576,16.725 -3.9465,22.5 -0.8534,10.08 -0.7932,10.6646 1.5038,14.6129 1.317,2.2638 3.6462,4.6053 5.1809,5.2082 1.6615,0.6528 9.0514,1.0357 18.2882,0.9477 15.4102,-0.1468 15.5696,-0.1254 27.5,3.6943 28.3447,9.0748 25.6737,8.542 41.5,8.2784 14.4498,-0.2406 14.5269,-0.2543 22.2652,-3.9494 z m -8.714,-7.7353 c -0.9673,-1.0689 -3.062,-2.2296 -4.655,-2.5795 -3.9432,-0.8661 -3.816,-3.4772 0.1695,-3.4772 5.1109,0 8.8874,2.6464 8.9189,6.25 0.02,2.3229 -2.2457,2.224 -4.4334,-0.1933 z m -92.8197,-19.0532 c -3.5478,-2.7907 -4.3121,-7.4948 -2.327,-14.3231 0.8775,-3.0185 1.5954,-6.7315 1.5954,-8.251 0,-5.9469 1.0939,-1.2213 1.7783,7.6823 l 0.7217,9.3883 5,1.5817 c 3.7126,1.1745 5,2.0757 5,3.5 0,2.9521 -8.1789,3.2453 -11.7684,0.4218 z m -0.395,-94.2535 c 0.3134,-1.2375 1.9564,-6.075 3.6512,-10.75 2.8004,-7.7249 3.0467,-9.3663 2.7009,-18 -0.291,-7.262 -1.1385,-11.80867 -3.5976,-19.30007 -4.1449,-12.6265 -3.8653,-16.546 0.5831,-8.1739 1.7458,3.2857 4.3783,9.5624 5.85,13.9482 3.268,9.73877 3.49,20.25717 0.6698,31.72177 -2.3387,9.5069 -4.3559,12.804 -7.8336,12.804 -2.1917,0 -2.5053,-0.3486 -2.0238,-2.25 z m 4.8172,-92.35037 c -3.9661,-3.3948 -7.1538,-8.0067 -7.1538,-10.3499 0,-2.0194 3.8629,-1.0572 4.5588,1.1355 0.3815,1.2019 3.2026,4.5769 6.2692,7.5 5.1132,4.874 5.3665,5.3148 3.0538,5.3148 -1.4499,0 -4.3096,-1.5303 -6.728,-3.6004 z m -4.9858,-37.6972 c -1.0235,-1.2332 -0.6635,-1.5745 2.2346,-2.1182 4.7907,-0.8987 7.2344,-3.1594 10.9218,-10.1036 3.4433,-6.4846 6.3186,-7.9756 5.9688,-3.0951 -0.6072,8.4712 -15.1443,20.1136 -19.1252,15.3169 z m -282.1472,-14.3012 c 11.0626,-3.2853 23.8725,-20.2977 28.9356,-38.4286 4.4728,-16.0172 4.662,-36.87008 0.4838,-53.32807 -2.6931,-10.60833 -9.5709,-23.45126 -16.1894,-30.23051 -8.392,-8.59582 -13.543,-10.91403 -24.2508,-10.91403 -9.6813,0 -14.5783,1.90948 -21.3772,8.33544 -10.8096,10.21685 -20.5441,32.86175 -20.6054,47.93361 -0.016,3.91401 0.1698,4.22695 2.2326,3.76284 8.7778,-1.97483 43.3806,-7.50388 44.4336,-7.09984 2.6909,1.03261 5.3091,6.99713 5.2974,12.06795 -0.01,2.75 -0.3773,5.57631 -0.8243,6.28071 -0.4901,0.7724 -10.5053,2.9066 -25.2347,5.3774 -13.4321,2.2531 -24.7218,4.3768 -25.0884,4.7193 -1.3466,1.2581 4.1543,19.294 8.3376,27.3365 5.6596,10.8808 15.1089,20.6433 22.8288,23.5856 6.6612,2.5388 13.8088,2.7434 21.0208,0.6017 z m 29.5862,-14.7364 c 21.1653,-23.5165 25.4001,-65.77431 9.764,-97.43233 -8.3598,-16.92593 -19.245,-25.40896 -33.371,-26.00665 l -7.5,-0.31734 6.5,3.51866 c 9.3548,5.06404 16.9996,13.69262 23.0591,26.02648 5.9224,12.05458 7.6551,18.47433 8.946,33.14514 2.3502,26.71014 -4.1382,51.29824 -17.8478,67.63464 l -2.6573,3.1664 4.3776,-2.4499 c 2.4077,-1.3475 6.3359,-4.6257 8.7294,-7.2851 z m 153.393,-8.7671 c 7.975,-2.2126 18.1724,-5.186 22.6609,-6.6076 l 8.1609,-2.5846 0.3391,-9.6837 c 0.3081,-8.798 0.5954,-10.0194 3.1408,-13.3538 3.2837,-4.3015 6.1839,-5.9287 13.6983,-7.6855 7.1834,-1.67946 13.9415,-4.59415 16.75,-7.22417 3.0783,-2.88255 2.8234,-1.05395 -0.6071,4.35529 -4.8791,7.69358 -12.9279,12.88638 -19.9737,12.88638 -2.8678,0 -3.8622,2.3313 -4.345,10.1874 -0.373,6.0701 -0.2224,6.7381 1.6324,7.2363 3.9702,1.0666 19.1332,0.5226 26.0434,-0.9343 10.7842,-2.2737 28.7957,-8.1921 31.0225,-10.1937 9.9261,-8.9226 16.4986,-14.283 19.2275,-15.6815 1.7875,-0.9161 3.25,-2.00557 3.25,-2.42113 0,-0.41556 -2.475,-5.08771 -5.5,-10.38256 -3.4262,-5.99706 -5.5,-10.80043 -5.5,-12.73908 l 0,-3.11209 -3.9601,2.02033 c -5.0592,2.581 -11.5817,2.59706 -15.7774,0.0389 -1.7807,-1.08569 -6.0651,-4.95852 -9.5211,-8.60629 l -6.2834,-6.6323 -11.3228,1.74363 -11.3228,1.74363 0.4608,3.6164 c 0.3369,2.64374 -0.243,4.89634 -2.1562,8.37528 -3.4136,6.20743 -8.3656,8.33969 -16.8411,7.25146 -12.2438,-1.57207 -15.4865,-1.23115 -22.308,2.34534 -8.4881,4.45031 -13.129,4.08661 -19.2235,-1.50652 -2.3344,-2.14239 -5.8931,-5.14623 -7.9082,-6.67518 l -3.6638,-2.77992 -15.1103,2.75886 c -8.3107,1.51738 -15.6242,3.07644 -16.2522,3.46458 -0.628,0.38814 -2.3753,7.15798 -3.8828,15.0441 -1.5075,7.88616 -3.7194,18.98086 -4.9155,24.65486 -1.196,5.6741 -1.9272,10.9609 -1.625,11.7485 0.3022,0.7876 2.9264,2.4831 5.8315,3.7677 4.7704,2.1095 24.3135,8.8073 29.2819,10.0355 3.7834,0.9352 12.0309,-0.4562 26.5,-4.4705 z m -252.7971,-33.4436 c 1.017,-2.232 0.8425,-2.8633 -1.4154,-5.1212 l -2.5753,-2.57531 -0.6727,3.06251 c -0.6873,3.1293 0.7328,7.1799 2.5172,7.1799 0.5424,0 1.5082,-1.1457 2.1462,-2.5459 z m 62.6772,-7.44313 c 1.0487,-0.008 1.2549,-1.12117 0.8589,-4.63466 -0.2867,-2.54303 -1.0112,-4.92651 -1.61,-5.29663 -1.0075,-0.62267 -56.9361,8.39408 -57.8721,9.33007 -0.2304,0.23042 0.1128,1.41245 0.7627,2.62675 0.6499,1.2143 0.9388,3.4219 0.642,4.9056 l -0.5396,2.6979 28.189,-4.809 c 15.504,-2.645 28.8101,-4.81399 29.5691,-4.82003 z m 119.6199,-21.5481 c 33.9211,-6.07703 54.6168,-10.21953 55.6587,-11.14083 2.0215,-1.78755 4.3491,-7.14765 3.4808,-8.01593 -0.64,-0.64002 -16.1416,1.79617 -81.8895,12.8696 l -36.75,6.18952 0,3.73559 c 0,5.41775 0.8908,7.13895 3.3856,6.5421 1.1629,-0.27823 26.4144,-4.85925 56.1144,-10.18005 z m 322.9455,7.10761 c 7.4992,-3.66901 14.5777,-11.75481 20.0409,-22.89266 5.096,-10.38914 7.0486,-17.21337 8.634,-30.17467 3.0103,-24.61172 -4.8506,-52.693653 -18.8035,-67.172863 -8.5886,-8.91259 -12.7735,-10.81433 -23.8169,-10.82313 -8.1083,-0.006 -9.529,0.28586 -14.3393,2.95039 -14.338,7.94203 -26.2555,30.39379 -28.5535,53.792443 -0.594,6.04897 -0.4782,6.75088 1.115,6.75849 0.9778,0.005 12.0562,-1.8404 24.6186,-4.10014 l 22.8408,-4.10862 2.9092,2.78723 c 2.2909,2.19487 2.9092,3.6632 2.9092,6.909 0,7.1259 0.026,7.1146 -27.9406,12.03279 -13.9839,2.45919 -25.5131,4.47125 -25.6202,4.47125 -0.1072,0 0.3998,2.8125 1.1267,6.25 4.628,21.88591 17.922,40.4286 32.4341,45.23963 6.4955,2.15337 15.7365,1.36324 22.4455,-1.91914 z m 19.0884,-6.59379 c 9.5212,-6.55079 18.4891,-21.10849 22.5454,-36.59854 2.6458,-10.10345 3.6039,-29.27933 2.0082,-40.19236 -2.92,-19.969853 -13.1627,-39.410523 -24.8391,-47.144673 -5.686,-3.76628 -13.8254,-6.27798 -18.9681,-5.8533 l -3.7803,0.31217 5,2.44007 c 6.3875,3.11715 16.1338,12.83429 20.6718,20.60981 8.5028,14.56896 12.04,28.517093 12.1601,47.950123 0.1505,24.34763 -5.2576,42.14704 -17.5465,57.75 -3.5759,4.54036 -3.0114,4.68962 2.7485,0.7267 z m -258.3836,-2.28129 c 3.4923,-1.38692 9.0467,-2.85129 12.343,-3.25416 5.469,-0.66841 5.875,-0.58997 4.6413,0.89656 -1.1813,1.42338 -0.9911,1.76759 1.5067,2.72645 5.6057,2.15193 13.2656,-1.04486 14.9088,-6.22203 1.1033,-3.4761 -6.4751,-33.77061 -11.5927,-46.34223 -13.4251,-32.978663 -15.7259,-40.204673 -21.4923,-67.500003 -4.6681,-22.09684 -10.5933,-33.88469 -21.6386,-43.04882 -14.7051,-12.2005799 -31.8864,-34.04676 -31.7709,-40.39696 l 0.055,-3.05422 2.1944,2.96517 c 1.207,1.63085 4.1394,5.00585 6.5165,7.5 l 4.3222,4.53483 -0.4107,-10.05751 c -0.6053,-14.82724 -2.6978,-18.67524 -22.4657,-41.31498 -6.2132,-7.11574 -10.2678,-13.66601 -10.2678,-16.58767 0,-2.95436 -1.6925,-1.50951 -2.8818,2.46016 -0.7019,2.34269 -1.8163,4 -2.6897,4 -2.2428,0 -2.7709,-2.54395 -1.073,-5.16921 2.2222,-3.43579 10.6069,-32.404177 11.3207,-39.111817 0.7069,-6.64266 1.8699,-8.04315 3.3802,-4.07062 0.7997,2.10319 0.5164,6.26406 -1.1784,17.31018 -1.2271,7.997807 -2.1802,16.053587 -2.1179,17.901727 0.1698,5.04357 4.4736,12.884 10.9531,19.95397 4.7897,5.22621 6.9069,6.71481 12.2868,8.63896 7.6019,2.71883 8.7087,5.08974 2.3181,4.96553 l -4.182,-0.0813 3.0319,4.40662 c 7.9214,11.51349 12.6929,26.5575 10.8958,34.35359 -2.0625,8.9468001 -1.7075,9.9500401 6.1862,17.4833501 3.9875,3.8054499 9.95,8.9832499 13.25,11.5062299 8.8459,6.76302 12.3665,14.02471 18.4696,38.09549 4.56,17.98496 5.1266,19.51026 8.2874,22.31101 1.866,1.65345 4.8216,3.77284 6.5679,4.70976 1.7463,0.93692 3.1751,2.16585 3.1751,2.73095 0,1.6466 -4.6998,2.36584 -7.9823,1.22156 -2.6586,-0.92675 -3.0177,-0.82862 -3.0177,0.82461 0,2.10239 2.5193,5.02375 4.3215,5.01121 5.5216,-0.0384 20.9331,-2.51848 28.6615,-4.61224 13.8519,-3.75277 14.6067,-4.26729 15.3398,-10.45667 0.3371,-2.84672 1.3128,-6.24394 2.1681,-7.54937 1.8492,-2.8222 5.1155,-3.33063 4.0056,-0.62352 -1.259,3.07093 -1.8064,10.25 -0.7815,10.25 0.5363,0 1.6917,-0.7919 2.5676,-1.75977 1.1919,-1.31696 1.5947,-3.89618 1.6011,-10.25 0.01,-4.66963 0.6883,-12.31523 1.519,-16.99023 1.7256,-9.7099 1.8138,-11.90674 1.0039,-25 -0.562,-9.08649 -0.4456,-9.84822 2.6742,-17.4999999 3.6592,-8.97449 4.7336,-19.3164401 3.4405,-33.1157501 l -0.72,-7.68403 -1.5097,3.11711 c -0.8303,1.7144 -2.3606,3.38718 -3.4006,3.71727 -2.6498,0.841 -5.891,-0.37439 -5.891,-2.20898 0,-0.94423 0.5689,-1.3213 1.4711,-0.9751 0.8091,0.31048 2.1414,-0.10584 2.9607,-0.92516 2.4831,-2.48312 2.8963,-7.93339 1.1783,-15.54128 -2.354,-10.42374 -2.077,-13.57174 1.8868,-21.44141 1.9233,-3.81847 3.4983,-7.94674 3.5,-9.17393 0.01,-5.10189 -5.4027,-25.097567 -8.0687,-29.823367 -1.5683,-2.78005 -5.7937,-7.87995 -9.3898,-11.33311 -7.0074,-6.72882 -8.0686,-9.11226 -4.0571,-9.11226 3.3381,0 15.9405,11.92545 19.0158,17.99433 1.2796,2.5251 3.0459,7.04687 3.9252,10.04838 1.5316,5.228477 1.8183,5.541137 6.8382,7.457287 2.8817,1.1 5.2395,2.45 5.2395,3 0,0.55 -1.9125,1.13837 -4.25,1.3075 l -4.25,0.3075 0,7.96746 c 0,7.12961 -0.3716,8.70535 -3.5336,14.98423 l -3.5335,7.01676 3.0829,9.62442 c 1.6957,5.29343 3.706,13.7744 4.4674,18.8466 1.1237,7.48528 1.8677,9.70551 3.9506,11.78841 2.7918,2.79179 3.5068,7.65712 1.1252,7.65712 -0.7925,0 -1.7191,-0.45 -2.059,-1 -1.4628,-2.36689 -2.3004,-0.48067 -3.3307,7.5003201 -0.6833,5.29345 -2.2588,11.1467899 -4.1761,15.5152399 l -3.0789,7.01493 1.6546,6.59759 c 1.2943,5.1607 1.503,8.82257 0.9583,16.8138 -0.8717,12.78974 -0.1911,15.50184 8.0458,32.05812 7.7911,15.66008 9.358,22.323503 7.5531,32.119343 -1.6092,8.73343 -4.8187,14.76957 -11.1025,20.88066 -2.8277,2.75 -6.0449,6.45186 -7.1494,8.22637 l -2.0081,3.22636 4.067,3.8688 c 3.9349,3.74318 4.0664,4.07676 4.0516,10.27363 -0.01,3.52266 -0.3459,6.90646 -0.75,7.51955 -0.4041,0.61309 -3.3802,1.44022 -6.6136,1.83806 l -5.8788,0.72335 5.2913,5.35793 c 6.8854,6.97197 10.0251,8.32213 14.2881,6.14439 1.7481,-0.89298 5.1201,-3.29336 7.4934,-5.33419 4.2701,-3.67197 4.308,-3.68271 3.6426,-1.03153 l -0.6724,2.67906 6.3573,-0.54441 c 10.3134,-0.88317 11.5412,-1.22427 16.7916,-4.66487 3.1998,-2.09675 4.8488,-3.82435 4.565,-4.7825 -0.2443,-0.825 -1.156,-5.96366 -2.0259,-11.41925 -1.3524,-8.48117 -1.4078,-11.81566 -0.382,-23 1.1395,-12.4247 1.0881,-13.50706 -1.0251,-21.58075 -3.1266,-11.945723 -3.6124,-23.129773 -1.6231,-37.365593 2.1407,-15.31893 2.2277,-29.34948 0.2337,-37.71286 -0.8626,-3.61814 -3.6705,-11.49314 -6.2398,-17.5 -10.821,-25.29917 -13.1107,-37.51153 -10.7661,-57.42155 1.8806,-15.96971 1.4539,-20.19151 -2.9492,-29.18055 l -3.5854,-7.31945 -0.6475,-18.499997 c -0.7541,-21.54601 -2.1398,-28.44892 -7.1924,-35.82861 -5.4412,-7.94745 -17.7508,-18.91889 -25.2964,-22.54647 -8.5453,-4.10825 -18.0949,-4.31738 -25.6823,-0.56244 -4.5774,2.26533 -5.142,2.33455 -7.6778,0.94133 -2.6492,-1.45552 -2.8287,-1.39252 -5.5888,1.96197 -4.0048,4.86702 -8.1589,13.41948 -8.7848,18.0857 -0.5689,4.24154 -1.3108,4.80468 -3.2507,2.46733 -1.211,-1.45927 -1.0194,-7.50269 0.3336,-10.51881 0.5728,-1.27684 -0.7792,-1.5 -9.0881,-1.5 -9.229,0 -10.1923,-0.20588 -17.6723,-3.77728 -8.3791,-4.00068 -18.4914,-10.78757 -22.5009,-15.10152 -2.249,-2.41975 -2.3289,-2.87343 -1.1806,-6.70597 0.6774,-2.26085 1.1164,-5.97917 0.9756,-8.26293 -0.1955,-3.17207 0.083,-4.08031 1.1806,-3.84734 2.8576,0.60663 3.709,3.16026 3.1938,9.579 -0.5011,6.24199 -0.4642,6.35637 2.8676,8.89253 1.8563,1.41306 8.1267,4.87756 13.9341,7.69889 11.9844,5.82217 18.9275,7.12828 26.5493,4.99431 6.4528,-1.80667 10.2324,-6.02912 14.778,-16.5095 3.8515,-8.87992 3.8908,-9.10129 4.3919,-24.71123 0.3134,-9.7641 0.038,-19.26656 -0.7236,-25 -2.3072,-17.36011 -9.2641,-33.51826 -17.3912,-40.39277 -10.6376,-8.9982 -29.5622,-11.32702 -43.4604,-5.34815 -12.4628,5.36133 -22.5042,23.42204 -20.7643,37.34725 0.5483,4.38826 1.1198,5.57814 3.1164,6.48783 1.4195,0.64679 2.4449,1.96179 2.4449,3.13544 0,2.28429 -1.1786,2.55134 -3.8626,0.87515 -4.512,-2.81782 -9.1765,1.81087 -9.1154,9.04551 0.036,4.21836 3.3995,10.41795 7.3897,13.6189 8.1555,6.54252 9.5883,8.2531 9.5883,11.44712 0,11.77242 -8.8056,35.03476 -13.2619,35.03476 -0.5236,0 -0.6363,-0.7875 -0.2505,-1.75 0.3858,-0.9625 1.2741,-3.60968 1.9738,-5.88262 l 1.2722,-4.13261 -3.5076,0.96851 c -1.9292,0.53268 -9.4068,1.04431 -16.6168,1.13694 -11.9719,0.15382 -13.5429,0.39317 -18.1092,2.75893 -3.415,1.76933 -7.9102,2.9372 -14.1809,3.68426 -10.2672,1.22319 -13.6899,2.63821 -18.5931,7.68692 -5.8305,6.00343 -9.1758,13.93729 -9.579,22.71792 -0.6858,14.93273 5.7462,35.438957 13.4614,42.916807 2.9228,2.83288 3.1857,3.47077 1.99,4.82947 -1.8977,2.15658 -0.4653,23.83483 2.2612,34.21958 3.7708,14.36231 9.4611,22.35565 25.3169,35.5634101 7.27,6.05583 8.5785,8.59282 10.3497,20.0671799 0.7488,4.85091 4.7102,10.2153 7.5437,10.2153 1.2374,0 2.1203,0.95145 2.5518,2.75 1.358,5.65979 8.7761,23.17346 15.0005,35.41533 5.1722,10.17222 7.9613,14.30597 14.1693,21 7.1388,7.69766 18.5635,22.622293 20.9245,27.334673 0.5512,1.1 1.8151,5.51863 2.8087,9.81918 1.9889,8.60812 2.0881,8.17655 -4.5204,19.66522 -2.3275,4.0464 -2.5765,8.97639 -0.6471,12.81526 2.6576,5.28769 2.6813,8.76096 0.103,15.10616 -1.3531,3.32994 -2.4602,6.22818 -2.4602,6.44053 0,0.21236 2.1375,2.06001 4.75,4.1059 5.54,4.33841 8.006,4.371 18.4003,0.24316 z M 1592.3589,75.428937 c -0.7233,-1.35163 -1.0415,-8.76722 -0.9144,-21.31033 0.2148,-21.18447 -0.6167,-26.67484 -6.1228,-40.4257 -3.1429,-7.8489999 -3.9244,-13.7472599 -1.7383,-13.1191599 1.6193,0.46522 10.3384,17.7869799 12.3107,24.4568299 1.2161,4.11239 1.4635,9.84879 1.2287,28.48675 -0.2636,20.92045 -0.468,23.37096 -1.9742,23.66103 -0.9241,0.17797 -2.1795,-0.60927 -2.7897,-1.74942 z m -55.1738,-9.47392 c -0.608,-1.33444 -0.8408,-3.4809 -0.5173,-4.7699 0.6473,-2.57919 4.1894,-6.80384 5.7046,-6.80384 1.2661,0 1.2166,5.53952 -0.091,10.25 -1.1991,4.31779 -3.4636,4.90604 -5.0958,1.32374 z m -77.8517,-16.69703 c -9.075,-6.0739 -18.1582,-12.64372 -20.185,-14.59962 -5.143,-4.96309 -8.3028,-11.19737 -7.4326,-14.66455 1.1643,-4.63897 3.9166,-2.92201 5.4468,3.39793 1.6951,7.00086 4.5009,9.9073 14.581,15.10378 12.3138,6.34798 20.7963,11.41417 23.8398,14.23842 2.8226,2.61915 3.8208,7.68153 1.5,7.6074 -0.6875,-0.022 -8.675,-5.00947 -17.75,-11.08336 z m 34.0084,-14.86495 c -2.0077,-2.81959 -2.0268,-3.01176 -0.2992,-3.01176 1.015,0 3.0671,-1.39226 4.5603,-3.09391 l 2.7149,-3.09391 9.5268,0.71425 c 9.1814,0.68836 9.67,0.61942 13.4799,-1.90182 5.718,-3.784 7.2235,-7.22032 5.9969,-13.68814 -2.1354,-11.2599399 -0.5792,-15.9759099 2.9737,-9.0116299 2.5389,4.97664 2.8252,16.6528799 0.5177,21.1150099 -2.3123,4.47154 -8.5321,7.0801 -20.3251,8.52432 -7.5326,0.92247 -10.9314,1.7933 -12.5,3.20264 -3.7143,3.33734 -4.4253,3.36354 -6.6459,0.24495 z m 59.7014,-1.02539 c -1.8247,-1.4353 -4.052,-1.98637 -8.0286,-1.98637 -4.9418,0 -5.773,-0.32043 -8.1455,-3.14002 -1.4532,-1.72701 -2.3932,-3.78881 -2.0889,-4.58179 0.3042,-0.79297 0.5532,-1.85496 0.5532,-2.35998 0,-2.11075 3.0653,-0.69271 4.5,2.08179 1.4611,2.82545 1.899,3 7.5257,3 6.4629,0 9.9743,2.09148 9.9743,5.94098 0,2.9059 -1.4696,3.26402 -4.2902,1.04539 z m -132.2806,-13.53279 c -1.1416,-2.98905 -1.3985,-4.88429 -0.75,-5.53278 1.6594,-1.65937 4.1634,0.0721 5.3636,3.70887 2.3887,7.23771 -1.8988,8.93267 -4.6136,1.82391 z m 53.0708,-14.3242799 c -7.1115,-4.41681 -9.6368,-10.25019 -4.7397,-10.94885 1.6266,-0.23207 2.2397,0.18609 2.2397,1.52749 0,1.01588 0.735,2.89633 1.6332,4.17878 2.8868,4.12137 9.444,1.68579 25.0908,-9.3195501 5.0029,-3.51882 7.6344,-4.6156 13.4133,-5.59033 8.8079,-1.48563 11.3952,-3.69072 12.4389,-10.60128 0.7058,-4.67305 0.01,-7.70254 -4.0711,-17.62556 -0.4825,-1.17422 -0.2598,-1.75 0.6766,-1.75 2.0426,0 7.5003,9.80843 8.2274,14.78577 0.3995,2.73503 0.044,6.28833 -0.9829,9.82027 -1.9523,6.71554 -4.4938,8.5408 -15.2126,10.92551 -6.8061,1.5142201 -8.0456,2.1955601 -13.8969,7.6389701 -3.5333,3.28706 -7.9606,6.6184 -9.8383,7.40298 -4.7479,1.9838 -11.386,1.78694 -14.9784,-0.4442 z m -59.5637,-3.71646 c -0.6259,-1.60206 -3.3492,-9.36026 -6.0516,-17.2404301 -2.7025,-7.88017 -5.5914,-15.63844 -6.4199,-17.24058 -2.2174,-4.28796 -5.6253,-6.13489 -10.6214,-5.75625 -3.5186,0.26668 -4.3473,-0.006 -4.6557,-1.5318 -0.5461,-2.70138 1.0035,-3.75798 5.6045,-3.82148 5.46,-0.0754 8.8617,2.52792 13.484,10.31912 5.9748,10.07089 13.2482,34.7342601 10.9276,37.0548201 -0.8393,0.83925 -1.4218,0.38105 -2.2675,-1.7834 z M 1553.3334,-9.618723 c -1.1,-1.1 -2,-2.41786 -2,-2.92857 0,-0.51072 -0.6805,-1.60907 -1.5122,-2.44079 -1.183,-1.18305 -3.0136,-1.38636 -8.4096,-0.93398 l -6.8973,0.57825 -2.0904,-4.09762 c -2.6047,-5.10554 -2.6278,-6.81938 -0.11,-8.16684 1.7278,-0.92468 2.2067,-0.57825 3.7529,2.71481 1.7582,3.74451 1.8284,3.77885 8.7695,4.28808 7.7658,0.56974 11.0325,1.94729 12.0237,5.07034 0.5062,1.59485 1.2138,1.94731 3.0064,1.49739 3.2615,-0.81857 3.8154,0.70635 1.3808,3.80139 -2.4609,3.1285601 -5.1898,3.3415101 -7.9138,0.61754 z m -71.7708,-4.17081 c -1.5895,-1.58948 -1.5781,-5.98746 0.021,-8.09271 0.6875,-0.90517 3.275,-2.51195 5.75,-3.5706 5.5692,-2.38217 8.4856,-5.45637 10.4452,-11.01042 3.1607,-8.95853 8.9963,-13.64225 14.0999,-11.31688 2.8011,1.27626 3.624,5.824 0.862,4.76414 -4.6815,-1.79647 -6.2612,-1.74391 -7.3249,0.24375 -0.5952,1.11213 -1.0822,3.03455 -1.0822,4.27206 0,4.22665 -3.8287,10.3753 -8.047,12.92306 -9.986,6.03121 -10.453,6.45486 -10.453,9.48223 0,3.19688 -2.1946,4.38154 -4.2708,2.30537 z m -61.0294,-23.08845 c -2.3553,-2.83796 -7.1998,-18.3243 -7.1998,-23.01548 0,-6.92405 2.0131,-5.65893 4.0065,2.51793 0.8865,3.6364 3.0478,9.35088 4.8027,12.69884 1.755,3.34796 3.1908,6.75563 3.1908,7.57259 0,1.80959 -3.3548,1.96763 -4.8002,0.22612 z m 103.9745,-6.05519 c -2.0085,-2.138 -2.8997,-4.68555 -1.6391,-4.68555 0.2944,0 1.6246,0.71379 2.956,1.5862 2.8594,1.87354 4.5088,1.16194 4.5088,-1.94522 0,-5.50751 5.5862,-6.12608 12.5617,-1.39098 8.4803,5.75656 9.0741,10.29154 0.6388,4.87864 -5.8795,-3.77286 -8.2005,-4.00739 -8.2005,-0.82864 0,1.265 -0.54,2.84 -1.2,3.5 -2.0262,2.02627 -7.2425,1.42234 -9.6257,-1.11445 z m -58.7943,-1.13766 c -0.8212,-2.14011 0.1983,-3.21355 3.7215,-3.91817 1.7286,-0.34574 5.9005,-2.58345 9.2708,-4.9727 6.4096,-4.5439 11.2125,-6.61798 20.971,-9.056 7.0748,-1.76754 9.0742,-3.44315 11.0588,-9.26775 2.1588,-6.33559 0.3032,-15.08766 -5.7179,-26.969737 -1.6943,-3.34355 -2.2349,-5.46815 -1.6359,-6.42876 1.3953,-2.23734 3.8861,-0.0956 7.5188,6.46494 6.7852,12.253607 7.4048,31.736187 1.1844,37.241527 -1.2383,1.09601 -5.8515,3.06131 -10.2515,4.36735 -10.6186,3.15188 -17.1258,6.01284 -23.6135,10.38194 -5.7027,3.84039 -11.4783,4.83668 -12.5065,2.15736 z m 65.8592,-15.50696 c -8.0722,-1.26605 -14.2392,-6.12955 -14.2392,-11.22949 0,-3.98197 1.8799,-3.52851 7,1.68856 l 4.4164,4.5 11.6848,0 c 11.9206,0 13.9511,0.67934 11.9085,3.98431 -0.9917,1.60471 -13.2878,2.23023 -20.7705,1.05662 z m -43.4965,-62.956637 c -6.5062,-4.41976 -7.0584,-4.54152 -29.7844,-6.56805 -16.1337,-1.43868 -22.9583,-2.8046 -22.9583,-4.59501 0,-1.96092 6.0142,-2.16672 15.4906,-0.53005 5.5052,0.95081 15.2413,1.99266 21.6357,2.31522 l 11.6262,0.58649 6.8053,5.10355 c 3.7429,2.80696 6.9861,5.66606 7.2071,6.35356 0.8184,2.54613 -4.3887,1.16114 -10.0221,-2.66571 z m 15.626,0.43401 c -0.7052,-1.83771 4.3248,-8.81836 8.795,-12.20581 4.1763,-3.16468 14.7548,-8.31065 17.0863,-8.3117 2.8555,-0.001 1.9953,2.87943 -1.4932,5.00096 -1.7838,1.08479 -5.4606,2.76567 -8.1706,3.7353 -3.5325,1.26391 -5.738,2.89523 -7.7914,5.76295 -5.7092,7.9733 -7.2529,9.07583 -8.4261,6.0183 z m 35.9921,-12.02054 c -0.8812,-2.29645 0.3905,-6.09922 3.0768,-9.2003 1.8493,-2.13485 2.7034,-2.52197 3.606,-1.63437 0.9083,0.89332 0.5893,2.45899 -1.3752,6.75 -2.5654,5.60375 -4.2324,6.88662 -5.3076,4.08467 z m -118.5973,-1.72466 c -1.8743,-1.46809 -4.6117,-2.27917 -8.6874,-2.57398 -8.9424,-0.64683 -8.7499,-5.19912 0.2198,-5.19912 4.5781,0 14.2041,5.16092 14.2041,7.61544 0,2.61131 -2.5158,2.68046 -5.7365,0.15766 z m 43.5116,-1.08032 c -6.7915,-3.77383 -14.2618,-22.69761 -8.9577,-22.69139 0.6505,7.6e-4 1.9943,2.76336 2.9864,6.1391 1.4614,4.97271 2.8375,7.147 7.25,11.45496 2.9954,2.92448 5.4462,5.56188 5.4462,5.86089 0,0.99693 -4.4701,0.48938 -6.7249,-0.76356 z m -15.7751,299.43941 c 14.516,-2.48871 15.973,-2.9235 15.7084,-4.68767 -1.3304,-8.87191 -1.3071,-10.2737 0.2326,-13.97468 0.9084,-2.18341 2.7942,-5.62445 4.1907,-7.64675 2.4971,-3.61625 2.5159,-3.78124 1.1346,-10 -1.0601,-4.77257 -1.8167,-6.30266 -3.0854,-6.23976 -0.9245,0.0458 -3.7008,0.15834 -6.1697,0.25 l -4.4888,0.16667 -4.1719,8.25 c -3.5465,7.01315 -4.242,9.41189 -4.6397,16 -0.396,6.56186 -0.7383,7.75 -2.2323,7.75 -2.2844,0 -2.9841,-1.97332 -2.954,-8.33179 0.034,-7.27578 1.5088,-12.98528 5.6411,-21.84442 l 3.5806,-7.67622 7.2998,-0.68405 7.2999,-0.68405 -2.9268,-4.63973 c -1.6097,-2.55186 -6.4894,-8.46474 -10.8438,-13.139743 l -7.9171,-8.5 -0.7073,5.2457 c -0.5686,4.21625 -1.7784,6.669323 -6.1647,12.500003 -6.5796,8.74599 -10.0212,15.24522 -10.864,20.51566 -0.3453,2.15966 0.076,9.50935 0.9355,16.33265 0.8598,6.82329 1.8385,14.99349 2.1748,18.15599 0.3678,3.45895 1.0808,5.72516 1.7895,5.68766 0.6479,-0.0343 8.378,-1.29675 17.178,-2.80547 z m 101.2484,-2.73644 18.2485,-2.89575 0,-3.05887 c 8e-4,-1.68238 -0.587,-3.86378 -1.3064,-4.84755 -1.4482,-1.98052 -4.329,-1.72682 -28.1169,2.47616 -6.0087,1.06164 -11.285,1.93026 -11.725,1.93026 -0.9303,0 0,5.65348 1.3674,8.32756 0.5147,1.00516 1.4638,1.63324 2.1091,1.39575 0.6454,-0.2375 9.3851,-1.7349 19.4218,-3.32756 z m 102.7516,-19.34352 c 14.3,-2.67988 35.9848,-6.58278 48.1885,-8.67311 18.5874,-3.18378 22.2646,-4.09159 22.6573,-5.59352 0.2579,-0.9861 -0.2769,-2.68751 -1.1884,-3.78092 -1.6489,-1.9778 -1.7395,-1.97247 -17.6574,1.0376 -8.8,1.66409 -30.4,5.49344 -48,8.50966 -17.6,3.01623 -33.0125,5.70953 -34.25,5.98511 -1.8866,0.42014 -2.25,1.16411 -2.25,4.607 0,4.10161 0,4.10525 3.25,3.44332 1.7875,-0.36445 14.95,-2.85526 29.25,-5.53514 z m -101.3317,2.29551 c 3.7575,-0.34922 6.8379,-0.90782 6.8454,-1.24134 0.01,-0.33352 0.2737,-1.57598 0.5917,-2.76101 l 0.578,-2.15462 -7.8417,2.22606 c -4.3129,1.22432 -9.1917,3.00635 -10.8417,3.96006 l -3,1.734 3.4183,-0.5641 c 1.8801,-0.31026 6.4926,-0.84983 10.25,-1.19905 z m -20.1683,-2.46713 c 3.025,-1.69574 7.75,-3.92751 10.5,-4.95949 l 5,-1.87633 -4.5,0.44444 c -2.475,0.24445 -8.0197,0.72578 -12.3216,1.06964 -6.39,0.51076 -7.7163,0.89993 -7.2458,2.12607 0.3168,0.82547 0.8478,2.58406 1.1801,3.90796 0.3323,1.32391 0.8928,2.39895 1.2457,2.38898 0.3529,-0.01 3.1166,-1.40553 6.1416,-3.10127 z m 36.093,-13.27719 c 5.0863,-4.73175 5.3679,-6.14133 2.2794,-11.41135 -1.9366,-3.3047 -2.7982,-6.41149 -3.153,-11.36966 -0.4594,-6.421833 -1.2763,-8.157443 -2.7311,-5.80339 -2.4931,4.03382 -22.069,9.9581 -39.4883,11.95038 -5.775,0.6605 -10.6098,1.30988 -10.744,1.44306 -0.1341,0.13319 1.4094,3.88192 3.4302,8.33051 l 3.6742,8.08835 18.5698,-0.48159 c 15.1663,-0.39331 19.028,-0.21254 21.0698,0.9863 3.3533,1.96887 3.0289,2.04811 7.093,-1.73261 z m 230.7076,-12.71439 c 9.1847,-1.71104 17.0055,-3.59929 17.3796,-4.19612 1.2249,-1.95401 -1.0794,-4.75165 -3.4702,-4.21317 -1.2155,0.27376 -7.835,1.40788 -14.71,2.52026 -17.9175,2.89906 -17,2.57421 -17,6.01905 0,1.63952 0.2478,2.98095 0.5506,2.98095 0.3028,0 8.0653,-1.39994 17.25,-3.11097 z m -218.7809,-0.93665 c 1.6284,-3.93129 0.7092,-15.642193 -1.5744,-20.058183 -0.926,-1.79071 -3.4474,-7.78697 -5.6031,-13.32502 -2.1557,-5.53805 -3.6381,-8.71918 -3.2942,-7.06918 0.344,1.65 1.0167,8.625 1.4949,15.5 0.4783,6.875 1.1304,13.625003 1.4491,15.000003 0.9776,4.21716 4.6953,13 5.5028,13 0.4194,0 1.3306,-1.37143 2.0249,-3.04762 z m -43.2361,-9.97115 c 10.4033,-2.05668 15.4104,-4.20635 22.7164,-9.752783 4.1927,-3.18292 5.0498,-4.3897 5.3081,-7.47415 l 0.3081,-3.67836 -5.6807,3.42073 c -10.7418,6.46842 -29.738,11.39892 -44.1855,11.46844 -4.2945,0.0207 -7.25,0.45563 -7.25,1.067013 0,0.56766 0.6653,2.62443 1.4785,4.5706 l 1.4785,3.53848 8.2715,-0.66233 c 4.5493,-0.36429 12.4491,-1.48823 17.5551,-2.49764 z"
       id="path3011"
       inkscape:connector-curvature="0" />
  </g>
</svg>
