<?xml version="1.0" encoding="UTF-8" standalone="no"?>
<!-- Created with Inkscape (http://www.inkscape.org/) -->

<svg
   xmlns:dc="http://purl.org/dc/elements/1.1/"
   xmlns:cc="http://creativecommons.org/ns#"
   xmlns:rdf="http://www.w3.org/1999/02/22-rdf-syntax-ns#"
   xmlns:svg="http://www.w3.org/2000/svg"
   xmlns="http://www.w3.org/2000/svg"
   xmlns:xlink="http://www.w3.org/1999/xlink"
   xmlns:sodipodi="http://sodipodi.sourceforge.net/DTD/sodipodi-0.dtd"
   xmlns:inkscape="http://www.inkscape.org/namespaces/inkscape"
   width="611.86719"
   height="895.86127"
   id="svg2"
   version="1.1"
   inkscape:version="0.48.3.1 r9886"
   sodipodi:docname="Barbell-shrugs-1.svg">
  <defs
     id="defs4">
    <radialGradient
       gradientUnits="userSpaceOnUse"
       gradientTransform="matrix(1,0,0,0.91819829,-19.285714,-7.9105395)"
       r="209.56604"
       fy="287.50052"
       fx="398.1105"
       cy="287.50052"
       cx="398.1105"
       id="radialGradient5255"
       xlink:href="#linearGradient5249"
       inkscape:collect="always" />
    <linearGradient
       id="linearGradient5249"
       inkscape:collect="always">
      <stop
         id="stop5251"
         offset="0"
         style="stop-color:#e3e3e3;stop-opacity:1;" />
      <stop
         id="stop5253"
         offset="1"
         style="stop-color:#e3e3e3;stop-opacity:0;" />
    </linearGradient>
  </defs>
  <sodipodi:namedview
     id="base"
     pagecolor="#ffffff"
     bordercolor="#666666"
     borderopacity="1.0"
     inkscape:pageopacity="0.0"
     inkscape:pageshadow="2"
     inkscape:zoom="0.35"
     inkscape:cx="-182.6941"
     inkscape:cy="98.529207"
     inkscape:document-units="px"
     inkscape:current-layer="layer1"
     showgrid="false"
     showguides="true"
     inkscape:guide-bbox="true"
     fit-margin-top="0"
     fit-margin-left="0"
     fit-margin-right="0"
     fit-margin-bottom="0"
     inkscape:window-width="1201"
     inkscape:window-height="886"
     inkscape:window-x="215"
     inkscape:window-y="103"
     inkscape:window-maximized="0">
    <sodipodi:guide
       orientation="-0.70710678,0.70710678"
       position="-2643.9865,592.70698"
       id="guide2985" />
  </sodipodi:namedview>
  <metadata
     id="metadata7">
    <rdf:RDF>
      <cc:Work
         rdf:about="">
        <dc:format>image/svg+xml</dc:format>
        <dc:type
           rdf:resource="http://purl.org/dc/dcmitype/StillImage" />
        <dc:title></dc:title>
      </cc:Work>
    </rdf:RDF>
  </metadata>
  <g
     inkscape:label="Ebene 1"
     inkscape:groupmode="layer"
     id="layer1"
     transform="translate(-1215.415,276.50635)">
    <path
       style="fill:#000000"
       d="m 1442.2478,616.29649 c -3.0721,-1.66732 -8.4112,-5.59283 -11.8647,-8.72335 -5.8342,-5.28862 -6.4459,-6.2586 -8.6344,-13.69185 -1.2954,-4.4 -2.7921,-11.6 -3.326,-16 -1.1338,-9.34526 -2.253,-12.70218 -8.4778,-25.42742 -4.9489,-10.11707 -5.5708,-14.05911 -3.2654,-20.69685 1.1109,-3.1984 1.1188,-4.40002 0.045,-6.87573 -1.7845,-4.11489 -1.6792,-10.12642 0.2715,-15.5 1.1688,-3.21994 1.6494,-8.05573 1.6894,-17 0.06,-13.51778 -0.1395,-14.52779 -7.8173,-39.5 -7.595,-24.70289 -8.08,-27.71296 -6.7299,-41.76175 1.6836,-17.51806 4.1678,-26.50808 11.6157,-42.0352 9.7772,-20.38302 10.2383,-22.21372 11.0075,-43.70305 0.3642,-10.175 1.3117,-31.96767 2.1055,-48.42815 0.7939,-16.46049 1.3361,-29.97683 1.2049,-30.03633 -3.0629,-1.38917 -11.7367,-7.89214 -11.7319,-8.79573 0,-0.68189 1.5787,-7.46833 3.5,-15.08099 3.8339,-15.19021 4.1385,-17.6588 2.1794,-17.6588 -1.2928,0 -51.1829,8.56339 -55.2919,9.49057 -1.9101,0.43103 -2.1702,1.40964 -2.7984,10.53072 -0.8324,12.08518 -5.6942,29.17381 -10.7204,37.68076 -3.7731,6.38595 -15.0913,18.33392 -19.5007,20.58574 -5.2346,2.67323 -26.5892,8.71221 -30.8074,8.71221 -5.8363,0 -14.9241,-2.5453 -20.4076,-5.71574 -13.644,-7.88863 -25.291,-27.25598 -28.6561,-47.65131 -0.7133,-4.3229 0.755,-4.08579 -12.4596,-2.01216 -3.491,0.5478 -4.3141,0.26287 -7,-2.42307 -2.5198,-2.51976 -3.0439,-3.84521 -3.0439,-7.69772 0,-6.90206 3.2327,-9.69489 13.1103,-11.32644 l 7.6103,-1.25705 0.6273,-6.74986 c 1.4688,-15.80422 8.1293,-32.99757 17.1828,-44.35575 5.172,-6.48858 14.6998,-13.28456 20.8135,-14.84581 2.2857,-0.58368 6.6308,-2.05211 9.6558,-3.26317 7.6779,-3.07383 21.0072,-2.92999 29.4747,0.31809 6.8453,2.6258 14.7159,9.50934 19.8638,17.37262 4.1093,6.27686 10.179,20.36468 11.8003,27.38839 0.9842,4.26393 1.585,5.20937 3.2829,5.16648 1.1431,-0.0289 15.772,-2.39137 32.5089,-5.25 l 30.4305,-5.1975 0.8021,-3 c 0.4411,-1.65 1.3061,-7.67244 1.9221,-13.38319 0.9428,-8.74058 0.8445,-12.49894 -0.6218,-23.75711 -0.9956,-7.64439 -1.4916,-15.79874 -1.1577,-19.03393 0.7241,-7.01543 4.9719,-15.82166 11.5764,-23.99893 l 4.9858,-6.173163 0.6219,-9.32684 0.6218,-9.32684 -5.0203,-11.46005 c -4.3363,-9.89853 -5.4936,-11.70284 -8.4935,-13.24188 -4.6675,-2.39458 -6.5979,-5.42056 -6.5979,-10.34244 0,-8.358 -2.6359,-13.32731 -11.9112,-22.45563 -4.7503,-4.675 -10.2612,-10.5249999 -12.2464,-12.9999999 -8.2922,-10.33822 -13.532,-25.3919801 -14.7428,-42.3556601 -0.7215,-10.10892 -0.7549,-10.21021 -6.8002,-20.65154 -8.0244,-13.85965 -8.6951,-16.19629 -8.7518,-30.4928 -0.054,-13.698757 0.5255,-15.456857 8.2803,-25.106527 3.8627,-4.80652 6.3902,-6.73908 13.7042,-10.47839 4.9323,-2.52171 12.1179,-6.47278 15.9679,-8.78015 3.85,-2.30738 10.15,-5.15693 14,-6.33234 6.2834,-1.91833 7.6912,-2.8622 13.7522,-9.21985 7.5071,-7.87463 8.3129,-9.68461 12.2353,-27.48422 2.9805,-13.52535 2.9531,-13.09852 0.8411,-13.09852 -2.2043,0 -9.7474,-7.94043 -12.3043,-12.95235 -3.3857,-6.63661 -2.0339,-19.06457 2.6348,-24.2235 1.1957,-1.32125 1.469,-2.99489 1.0688,-6.54538 -1.6523,-14.65959 6.2891,-30.98952 19.0065,-39.08323 7.6558,-4.87231 14.9976,-6.51409 26.7858,-5.98982 9.2223,0.41016 10.9233,0.80946 18.4056,4.32067 9.8312,4.6135 14.6624,9.52833 20.7156,21.07428 7.0645,13.4749 7.8024,18.03472 7.8324,48.39933 l 0.026,26.5 -4.2407,8.55066 c -2.3324,4.70287 -5.624,9.96554 -7.3147,11.69483 -4.8541,4.96486 -3.2224,6.55958 9.7944,9.5728 5.9185,1.37007 14.586,2.79592 19.261,3.16855 11.4959,0.91631 20.3139,3.01488 26.2547,6.2483 7.1908,3.9137 17.9736,15.92461 22.4773,25.03712 l 3.7513,7.59039 0.6016,20.568667 0.6016,20.56868 3.7302,9 c 4.6171,11.13975 5.2424,17.44502 3.2286,32.55684 -1.9268,14.4595101 -1.0206,19.6481801 7.325,41.94316 10.5577,28.20431 11.0323,30.20011 11.0102,46.30162 -0.011,7.80911 -0.6714,18.69838 -1.4683,24.19838 -1.9956,13.773753 -1.8643,19.877593 0.6257,29.090043 1.5016,5.55542 2.1714,11.10844 2.25,18.65509 0.084,8.10486 0.4324,10.74633 1.4156,10.75 1.6079,0.006 29.5411,-4.45133 41.4465,-6.61367 l 8.75,-1.58924 0,-4.26512 c 0,-13.99448 6.0915,-33.44012 14.3634,-45.851513 6.3837,-9.57831 8.1331,-11.33069 16.0763,-16.10431 8.4014,-5.04889 15.3279,-7.4125 24.8228,-8.47048 21.7313,-2.42142 35.3547,6.33258 47.5753,30.57057 3.2395,6.425153 7.1622,19.087633 7.1622,23.119803 0,2.68194 -0.946,2.73793 23,-1.36105 l 13.5,-2.31088 2.25,2.49615 c 2.4498,2.71779 2.8898,6.88626 1.1337,10.7404 -0.9762,2.14252 -2.3249,2.66581 -10.75,4.17075 -5.2985,0.94647 -13.6837,2.46356 -18.6337,3.37132 l -9,1.65047 -0.6774,10.18207 c -1.3072,19.65113 -8.852,38.08679 -20.4563,49.9848 -9.7427,9.98931 -25.3131,15.78872 -42.3663,15.77987 -8.915,-0.005 -9.8896,-0.21586 -15.8264,-3.43003 -12.3977,-6.7121 -24.3482,-23.68096 -28.5683,-40.56504 -0.9623,-3.85 -2.0547,-8.15347 -2.4275,-9.56326 l -0.6778,-2.56327 -26,4.62632 c -23.8237,4.23907 -25.9773,4.78845 -25.7279,6.56326 0.1497,1.06532 0.5519,5.43004 0.8938,9.69937 0.54,6.74444 0.3732,8.04167 -1.2722,9.89174 -3.168,3.56205 -11.3411,6.82527 -17.1217,6.83607 l -5.228,0.01 2.978,4.69578 c 3.6021,5.67998 3.6761,6.8007 0.5824,8.82774 -3.2773,2.14736 -3.5793,4.08014 -1.8887,12.08606 0.9383,4.44334 1.5737,14.70356 1.7892,28.89042 0.3006,19.78941 0.5935,22.99258 2.9146,31.87822 3.1363,12.00595 3.3218,21.44253 0.6229,31.68941 -1.6769,6.36696 -1.8306,8.79417 -1.0718,16.93237 3.2497,34.85454 4.1313,66.54047 3.0048,108 -0.4726,17.39411 -0.4591,17.53494 2.2306,23.2748 2.7917,5.95769 11.6866,17.46905 18.4451,23.8709 7.8429,7.42897 22.0016,18.20613 26.8489,20.43645 2.75,1.26534 8.15,3.02559 12,3.91168 15.5428,3.5772 19.6287,4.81959 22.0096,6.6924 2.236,1.75883 2.4904,2.68406 2.4904,9.05777 l 0,7.09883 -4.4818,4.29425 c -5.2036,4.98593 -12.5812,7.55604 -27.0455,9.4217 -11.9828,1.54559 -19.7883,0.28901 -38.9727,-6.27401 l -15,-5.13154 -20,-0.61197 c -15.8097,-0.48375 -20.6443,-0.95764 -23.0751,-2.26188 -4.6387,-2.48879 -10.2268,-9.20639 -10.9747,-13.19301 -1.1073,-5.9025 1.3738,-25.65456 4.9941,-39.75888 4.3726,-17.03486 5.9206,-27.96275 5.3522,-37.78203 -0.539,-9.31095 -2.8952,-14.71942 -11.7612,-26.99659 -9.3503,-12.94812 -12.0353,-21.86319 -12.0353,-39.96182 0,-13.41552 1.4537,-25.60271 4.1247,-34.58034 2.9832,-10.02724 2.3239,-16.62053 -2.4327,-24.32682 l -3.692,-5.98157 0,-11.45005 c 0,-6.29753 -0.4781,-12.82149 -1.0624,-14.4977 -0.5843,-1.6762 -5.2627,-8.79786 -10.3963,-15.82591 -7.2606,-9.93983 -14.1852,-21.17416 -16.1482,-26.19843 -0.059,-0.15044 -0.7908,-0.0111 -1.6266,0.30967 -0.8871,0.34037 -1.7382,2.32791 -2.0442,4.77353 -6.0294,48.1792 -7.1358,52.13445 -18.9521,67.74883 -2.9371,3.8812 -3.95,6.36457 -4.7661,11.68509 -1.2495,8.14607 -7.3935,20.7745 -14.2145,29.21645 -4.5573,5.64044 -4.719,6.0687 -4.976,13.18488 -0.1461,4.0453 0.3297,15.90509 1.0573,26.35509 1.5614,22.42597 1.0878,28.05821 -3.3182,39.45917 -3.6209,9.36944 -4.7416,13.81181 -7.0741,28.04083 -0.8566,5.225 -2.6793,15.02261 -4.0505,21.77246 -2.9238,14.39252 -2.7399,15.66184 4.2999,29.68607 10.4504,20.8186 26.5178,45.26125 36.8391,56.04147 10.961,11.4484 12.4329,13.79535 12.4329,19.82382 0,9.19906 -6.6685,18.67618 -13.1413,18.67618 -2.0798,0 -3.741,0.89504 -5.466,2.94513 -1.8708,2.22335 -3.6318,3.09278 -7.1854,3.54755 -2.589,0.33133 -7.2118,1.25602 -10.2729,2.05487 -3.0611,0.79885 -9.3611,1.44046 -14,1.4258 -7.4682,-0.0236 -9.0743,-0.37393 -14.02,-3.05815 z m 25.1952,-6.57572 c 2.519,-1.0079 5.4725,-1.39061 8.0568,-1.04399 6.0322,0.80909 6.8336,0.1851 6.8336,-5.32069 0,-8.65232 1.7615,-10.18814 5.1325,-4.4748 2.3171,3.92722 5.5563,4.62584 8.1139,1.75 2.2531,-2.5335 4.1241,-9.63763 3.3502,-12.72096 -0.3661,-1.45868 -5.0376,-7.01194 -10.3811,-12.34059 -14.8997,-14.85825 -32.3726,-43.71947 -39.7211,-65.61046 -2.6659,-7.9414 -2.9908,-12.4041 -1.4254,-19.57799 0.5401,-2.475 1.3892,-11.28908 1.8868,-19.58685 0.9778,-16.3019 2.4103,-23.2346 7.5241,-36.41315 1.8141,-4.675 3.6213,-10.46253 4.0159,-12.86118 0.7991,-4.85693 -0.3562,-32.16112 -1.3582,-32.09982 -0.3507,0.0214 -2.1716,2.12238 -4.0465,4.66873 -4.5975,6.24411 -7.4678,14.98805 -10.5921,32.26805 -1.4394,7.96167 -2.7792,14.63771 -2.9771,14.83564 -0.1979,0.19793 -0.8369,-0.53142 -1.4199,-1.62079 -0.7902,-1.47659 -0.4374,-5.50665 1.3863,-15.83564 3.5404,-20.05193 6.0885,-28.82422 10.9955,-37.85499 2.413,-4.44061 5.3061,-11.78185 6.5027,-16.5 2.2987,-9.06411 6.9996,-18.46034 11.8676,-23.72129 3.1049,-3.35546 6.3492,-10.88992 8.1924,-19.02574 2.4704,-10.90359 3.3175,-13.37741 4.8644,-14.20531 0.8956,-0.47931 3.7824,-4.27171 6.415,-8.42756 5.7361,-9.05491 7.7544,-16.8678 10.2322,-39.60856 0.9282,-8.51865 1.9311,-16.12269 2.2285,-16.89787 0.7199,-1.87598 -0.6898,-1.51593 -20.7361,5.29635 -14.5655,4.94977 -17.3656,5.58998 -24.4484,5.58998 -7.848,0 -21.0449,-3.11835 -27.672,-6.53872 l -2.5699,-1.32636 -1.8371,17.18254 c -1.0105,9.4504 -2.1801,29.55754 -2.5992,44.68254 -0.4191,15.125 -1.2038,30.2 -1.7438,33.5 -1.079,6.59393 -4.014,14.76455 -9.6987,27 -7.5881,16.33206 -11.4874,31.57716 -11.4744,44.86047 0.01,7.38702 1.6205,15.25327 7.5144,36.63953 4.9305,17.89063 6.435,25.87072 7.4975,39.76776 0.8546,11.17872 0.7626,12.71254 -1.0369,17.27797 -1.7891,4.53883 -1.8529,5.54854 -0.6781,10.73224 1.1062,4.88068 1.0704,6.5824 -0.243,11.57338 l -1.5398,5.85135 5.29,10.14865 c 4.2055,8.06818 5.6752,12.19865 7.169,20.14865 1.0335,5.5 2.5526,11.87498 3.3757,14.16662 0.8232,2.29165 1.8087,6.34165 2.1901,9 0.5841,4.07062 1.4698,5.57194 5.613,9.51346 2.7057,2.57405 7.2643,5.8699 10.1303,7.32413 4.577,2.32242 5.9791,2.56999 11.5272,2.03527 3.4739,-0.33483 8.1059,-1.32483 10.2932,-2.2 z m -15.748,-10.83948 c -1.0131,-2.64011 0.4294,-4.36664 4.5827,-5.48501 4.6985,-1.26518 8.0557,-0.0511 8.0557,2.9132 0,2.30566 -2.1403,3.19376 -5.8897,2.44388 -1.627,-0.32541 -3.1621,-0.0973 -3.548,0.52719 -0.9634,1.5588 -2.524,1.36413 -3.2007,-0.39926 z m 25.8676,-6.67081 c -0.6761,-0.67606 -1.2292,-1.74196 -1.2292,-2.36867 0,-0.62672 -1.1604,-1.66818 -2.5786,-2.31436 -3.1942,-1.45541 -2.6851,-3.53797 0.9703,-3.96882 4.3576,-0.5136 7.7867,2.31868 7.4171,6.12603 -0.3308,3.40647 -2.5016,4.60379 -4.5796,2.52582 z m -52.7342,-68.84489 c -1.5357,-4.83874 4.5726,-13.53385 12.2053,-17.37412 4.1617,-2.09387 4.5,-2.04133 4.1192,0.63982 -0.2038,1.43504 -2.2275,3.48007 -5.5871,5.64604 -3.5273,2.27406 -5.4477,4.25635 -5.8128,6 -0.2998,1.43218 -0.7504,3.61646 -1.0014,4.85396 -0.5671,2.79618 -3.0628,2.94523 -3.9232,0.2343 z m -2.5655,-134.11611 c -1.3869,-2.59127 -3.0565,-26.02801 -1.9386,-27.21197 0.4382,-0.46408 1.632,-0.67793 2.6529,-0.47523 1.7,0.33753 1.8263,1.29488 1.5013,11.37485 -0.2687,8.33247 0.023,11.90977 1.199,14.72523 1.4781,3.53771 1.4606,3.71893 -0.3599,3.71893 -1.0526,0 -2.4272,-0.95931 -3.0547,-2.13181 z m 31.0705,-44.59555 c -1.375,-0.25024 -3.2875,-1.15871 -4.25,-2.0188 -1.8898,-1.68878 -2.3791,-6.747 -0.75,-7.75384 0.55,-0.33992 1,0.28301 1,1.38428 0,4.28854 7.4165,6.61359 11.6461,3.65103 3.3417,-2.34059 4.8097,0.86599 1.7825,3.89326 -1.5278,1.52778 -4.3056,1.77645 -9.4286,0.84407 z m 20.827,-30.04005 c -5.6178,-6.22173 -6.995,-8.778 -6.6456,-12.3348 0.4497,-4.57839 2.2788,-4.64285 3.6315,-0.12797 0.6304,2.10397 2.5404,5.93047 4.2446,8.50333 4.4007,6.64373 3.5794,9.28636 -1.2305,3.95944 z m -35.5155,1.13685 c -1.7581,-4.58161 7.5616,-14.12985 16.8549,-17.26827 3.2594,-1.10071 7.2899,-3.14877 8.9566,-4.55123 3.4919,-2.93822 5.6732,-3.24459 6.5645,-0.92198 0.4018,1.04718 -0.2337,2.27942 -1.7814,3.45406 -3.7411,2.83932 -14.018,7.57348 -18.0188,8.30055 -4.0988,0.74488 -5.7477,2.31432 -8.7911,8.36743 -2.3537,4.68135 -2.8592,5.0312 -3.7847,2.61944 z m 235.7987,221.59342 c 7.8321,-2.63846 13.8897,-6.48523 13.8897,-8.82042 0,-3.82112 -7.829,-8.0666 -25,-13.55681 -13.9629,-4.46451 -18.9802,-7.65791 -30.0017,-19.09552 -4.674,-4.85053 -11.9817,-12.35204 -16.2392,-16.67002 -4.2575,-4.31798 -8.9565,-10.20645 -10.4421,-13.08548 -2.4553,-4.75819 -2.7007,-6.23576 -2.6959,-16.23461 0,-6.05 0.6034,-18.47449 1.3345,-27.60997 1.3333,-16.66225 1.1906,-27.85714 -0.8909,-69.89003 -0.5311,-10.725 -0.9901,-20.175 -1.0201,-21 -0.035,-0.95808 -0.9429,-0.41617 -2.5136,1.5 l -2.459,3 -0.035,-2.5 c -0.019,-1.375 1.1434,-7.225 2.5833,-13 1.9312,-7.74585 2.7432,-14.04105 3.0956,-24 0.5427,-15.33849 -0.3394,-19.57175 -3.8464,-18.45868 -1.9665,0.62416 -2.0739,0.41988 -1.4099,-2.68286 1.6281,-7.60731 1.6992,-35.29082 0.1215,-47.26882 -0.8628,-6.55069 -1.7759,-12.11748 -2.029,-12.37063 -0.417,-0.41698 -6.5309,3.8395 -16.9048,11.7692 -8.4568,6.46425 -31.9445,12.26075 -50.3139,12.41688 l -11.1663,0.0949 4.0953,7.87973 c 2.2523,4.33385 7.23,12.20782 11.0615,17.49771 3.8314,5.28989 7.8305,11.27622 8.8869,13.30297 2.2403,4.29814 3.8536,14.39581 3.661,22.91488 -0.1191,5.26879 0.4196,7.08913 4.4965,15.19529 4.7055,9.35601 5.4134,12.36198 3.6437,15.47299 -2.4026,4.22356 -5.0119,23.57187 -4.9949,37.03719 0.027,21.16061 2.8912,31.4395 12.2674,44.02147 6.8298,9.16502 8.4721,13.27525 9.7987,24.52387 1.5106,12.8083 -0.034,30.18928 -4.1015,46.1539 -1.6816,6.6 -3.4413,16.725 -3.9106,22.5 -0.8128,10.00234 -0.7418,10.69493 1.4995,14.61285 3.3462,5.84962 6.3183,6.79956 18.7106,5.98045 13.6518,-0.90236 21.0149,0.31409 41.2185,6.80969 16.9881,5.46177 17.0094,5.46566 30.2816,5.53131 10.839,0.0536 14.3936,-0.30894 19.3287,-1.97144 z m -3.559,-9.90618 c -0.9672,-1.06883 -3.062,-2.22958 -4.6549,-2.57945 -3.9433,-0.86609 -3.8161,-3.47723 0.1694,-3.47723 5.1109,0 8.8874,2.64638 8.9189,6.25 0.02,2.32286 -2.2457,2.22404 -4.4334,-0.19332 z m -92.8196,-19.05316 c -3.5478,-2.79072 -4.3121,-7.49484 -2.3271,-14.3231 0.8775,-3.01853 1.5955,-6.73148 1.5955,-8.25099 0,-6.146 1.2307,-0.97559 1.8443,7.74821 l 0.6557,9.32236 4.9999,1.58175 c 3.7126,1.17448 5,2.07568 5,3.5 0,2.9521 -8.1789,3.24522 -11.7683,0.42177 z m -0.3935,-94.25352 c 0.3142,-1.2375 1.975,-6.24329 3.6908,-11.12398 4.0289,-11.46097 4.1283,-19.46677 0.399,-32.13669 -1.4552,-4.94413 -3.075,-10.4771 -3.5994,-12.29549 -0.5244,-1.81838 -0.8111,-4.04589 -0.6369,-4.95001 0.4575,-2.37571 6.144,8.73145 9.3467,18.25617 3.336,9.92139 3.5457,21.28778 0.5958,32.28843 -2.4649,9.19179 -4.3873,12.21157 -7.7737,12.21157 -2.1922,0 -2.5052,-0.34819 -2.0223,-2.25 z m 4.8157,-92.35037 c -3.9661,-3.3948 -7.1538,-8.00673 -7.1538,-10.34997 0,-2.01937 3.8628,-1.05714 4.5588,1.13559 0.3815,1.20188 3.2025,4.57688 6.2691,7.5 5.1132,4.874 5.3665,5.31475 3.0538,5.31475 -1.4499,0 -4.3096,-1.53031 -6.7279,-3.60037 z m -4.9858,-37.69725 c -1.0235,-1.23322 -0.6635,-1.57444 2.2346,-2.11813 4.7906,-0.89873 7.2343,-3.15941 10.9217,-10.10365 3.4433,-6.48463 6.3186,-7.97559 5.9688,-3.09504 -0.6072,8.47113 -15.1443,20.1135 -19.1251,15.31682 z m -273.8173,1.65359 c 8.2905,-2.88135 18.9541,-14.96446 24.5706,-27.84133 8.2513,-18.91774 9.2861,-47.28376 2.4896,-68.24176 -4.8985,-15.10508 -14.8503,-28.33701 -25.5003,-33.90532 -7.243,-3.78697 -18.9086,-4.03719 -25.9906,-0.55748 -13.3262,6.54775 -25.005,25.74792 -28.6483,47.09839 -0.9377,5.49539 -1.4341,10.26246 -1.1031,10.59351 0.3311,0.33105 10.7953,-1.16061 23.2538,-3.31479 22.4849,-3.88785 22.6697,-3.90257 25.0906,-1.99833 4.2377,3.33339 5.6412,14.92917 2.1324,17.6174 -0.63,0.48263 -9.9204,2.34714 -20.6454,4.14334 -10.725,1.79621 -21.6696,3.71153 -24.3213,4.25627 l -4.8213,0.99045 0.6569,4.15184 c 1.0754,6.79657 6.0181,20.28316 9.5989,26.19141 11.678,19.26857 26.7761,26.53747 43.2375,20.8164 z m 24.9736,-10.64353 c 2.1033,-1.64899 6.0287,-6.1371 8.7229,-9.97358 24.7824,-35.28885 15.4092,-98.39266 -17.0472,-114.76812 -4.6037,-2.32273 -18.0035,-4.07633 -17.9963,-2.35511 0,0.4864 2.1396,1.74801 4.75,2.80357 7.7069,3.11635 17.8615,14.16687 23.5215,25.59676 6.5374,13.2016 8.7461,22.46781 9.4117,39.48404 0.9126,23.33374 -3.195,39.79253 -14.0479,56.2887 -5.6109,8.52842 -5.1307,9.05129 2.6853,2.92374 z m 153.1757,-29.79961 c 9.9,-2.74825 20.0977,-5.72749 22.6615,-6.62053 l 4.6614,-1.62372 0.3386,-9.66524 c 0.3074,-8.77807 0.5957,-10.00211 3.1402,-13.33534 3.177,-4.16173 6.4952,-6.14022 12.2329,-7.29383 l 3.9654,-0.79729 -6,-0.92967 c -11.1914,-1.73405 -15.8773,-1.2792 -22.4806,2.18217 -3.5319,1.85137 -7.5446,3.17062 -9.644,3.17062 -4.4055,0 -13.7689,-4.83371 -20.0168,-10.3334 l -4.5528,-4.00749 -21.6221,3.72297 c -11.8921,2.04763 -21.6877,3.81183 -21.7679,3.92044 -0.8137,1.10197 -6.4529,32.15847 -6.0364,33.24385 0.3062,0.79781 2.9335,2.50165 5.8386,3.78631 4.7704,2.10952 24.3136,8.8073 29.282,10.03545 3.9513,0.97672 12.2966,-0.54082 30,-5.4553 z m 75,-15.15297 c 16.6553,-4.82767 18.0645,-5.54308 27.5787,-14.00098 4.6317,-4.11745 9.8837,-8.23416 11.6712,-9.14825 3.8196,-1.95327 3.9242,-2.48387 1.1775,-5.97577 -2.5653,-3.26117 -3.7268,-3.27695 -9.9275,-0.13486 -6.1068,3.09459 -10.5097,3.16486 -15.6639,0.25 -4.7002,-2.65808 -13.1035,-11.68062 -15.8752,-17.04495 -1.4968,-2.89683 -2.4341,-3.68296 -3.9608,-3.32176 -1.1,0.26025 -4.1375,0.78157 -6.75,1.15849 -5.0856,0.73373 -5.179,0.90302 -3.7929,6.87899 0.7293,3.14474 0.5332,4.65803 -0.991,7.64567 -1.0452,2.0487 -2.6223,4.44685 -3.5046,5.32923 -2.9171,2.91702 0.3044,1.66607 5.0625,-1.96587 l 4.6772,-3.5702 -2.8169,5.17561 c -4.8022,8.82324 -13.4294,14.9399 -21.0991,14.95921 -2.9886,0.008 -3.9737,2.26377 -4.4628,10.22169 -0.3338,5.43036 -0.1171,6.80705 1.1324,7.19112 0.8498,0.26126 6.9452,0.33009 13.5452,0.15296 10.1279,-0.27181 13.8721,-0.86468 24,-3.80033 z m -323.6957,-1.89269 c 0.2918,-2.50881 -1.9266,-5.86717 -3.8757,-5.86717 -1.0505,0 -1.2529,4.99146 -0.3028,7.4673 0.9497,2.47476 3.8329,1.37063 4.1785,-1.60013 z m 36.5987,-2.35826 c 14.2467,-2.42824 26.3598,-4.87167 26.9179,-5.42985 0.6865,-0.68649 0.624,-2.31952 -0.1931,-5.04696 -0.9467,-3.15975 -1.6862,-4.02092 -3.4179,-3.98042 -1.2155,0.0284 -14.4545,2.16841 -29.42,4.75551 -23.2255,4.01499 -27.0718,4.92268 -26.2653,6.19832 0.5196,0.82197 0.9517,3.17074 0.9601,5.21949 0.014,3.51875 0.1676,3.69659 2.7653,3.21194 1.5125,-0.28218 14.4064,-2.49979 28.653,-4.92803 z m 147.9038,-25.88412 c 32.3437,-5.68609 59.2798,-10.81136 59.8579,-11.3895 1.3196,-1.3196 -0.7653,-8.22576 -2.4923,-8.25543 -2.4841,-0.0427 -118.2085,19.35712 -118.8428,19.92255 -1.082,0.96463 0.3231,10.09936 1.5504,10.07916 0.616,-0.0101 27.583,-4.67069 59.9268,-10.35678 z m 316.9952,8.93127 c 12.8798,-4.59415 24.3301,-20.16901 29.8807,-40.64434 1.9364,-7.14324 2.2831,-10.89991 2.2988,-24.91172 0.016,-13.95817 -0.3219,-17.74249 -2.1906,-24.5655 -13.6541,-49.852883 -54.0881,-58.649723 -74.7122,-16.25443 -4.9455,10.16597 -8.5409,24.07548 -8.5656,33.13732 -0.011,4.11866 0.2407,4.74346 1.7368,4.3077 0.9625,-0.28033 10.975,-2.13092 22.25,-4.11241 11.275,-1.98149 21.2987,-3.84132 22.2748,-4.13294 2.4979,-0.74628 8.7252,5.65803 8.7252,8.97321 0,3.45726 -1.9508,7.50234 -3.9017,8.09021 -0.879,0.26488 -12.3978,2.33561 -25.5973,4.60162 -13.1995,2.26601 -24.1842,4.30517 -24.4105,4.53146 -0.2263,0.22629 0.1588,3.00171 0.8558,6.1676 4.5747,20.7782 17.2286,39.00239 30.7496,44.28547 5.6828,2.22047 15.1773,2.46317 20.6062,0.52675 z m -235.6846,-8.01497 c 6.5397,-3.02152 15.7196,-5.54109 20.1887,-5.54109 1.1584,0 1.1989,0.28909 0.2076,1.48343 -1.0213,1.23065 -0.7755,1.65665 1.4427,2.5 5.4041,2.05463 10.3721,0.84595 13.7714,-3.35047 2.2499,-2.77764 2.21,-6.04731 -0.1579,-12.92975 -1.0615,-3.08544 -2.8746,-10.16813 -4.0291,-15.73931 -1.234,-5.95512 -3.4776,-12.87698 -5.4443,-16.79666 -1.8399,-3.66698 -4.4943,-9.81724 -5.8987,-13.66724 -1.4043,-3.85 -3.6805,-9.72873 -5.058,-13.06385 -3.3513,-8.11349 -7.1767,-21.9346 -9.7218,-35.124563 -4.904,-25.4144 -11.6865,-39.67828 -23.4528,-49.32235 -13.2491,-10.85946 -31.4652,-34.1694999 -31.4652,-40.26407986 0,-1.71884004 0.3613,-2.69766004 0.8029,-2.17516004 0.4415,0.5225 2.7165,3.49894004 5.0555,6.61431 4.263,5.67823 7.0674,7.8335399 7.2268,5.55431 0.2949,-4.21436 -0.306,-12.99583 -1.1979,-17.5084 -1.2983,-6.5681301 -6.4152,-14.3476901 -18.3873,-27.9554101 -4.95,-5.62626 -10.4062,-12.74341 -12.1249,-15.81589 l -3.1249,-5.58634 -0.6803,3.62627 c -0.7041,3.75313 -2.9475,5.5436 -4.7222,3.76883 -0.6905,-0.6905 -0.5325,-1.95656 0.4914,-3.93646 1.2901,-2.49489 7.261,-23.82578 9.1392,-32.64947 0.5004,-2.351 0.8545,-2.63041 2.0629,-1.62756 1.7681,1.46739 1.8199,4.44256 0.3051,17.53774 -1.1623,10.04916 -1.1589,10.08306 1.5241,15 1.479,2.71044 4.9546,7.506 7.7235,10.65681 5.9663,6.78908 9.6703,8.15848 19.3773,7.16396 5.5512,-0.56874 6.5288,-0.43371 6.5288,0.90182 0,1.85631 -2.5587,2.79414 -9.8445,3.60827 l -5.3445,0.59721 3.2223,4 c 4.3547,5.40566 10.725,18.70522 11.5296,24.0709601 0.5434,3.6238 1.0025,4.32962004 2.6977,4.14796004 1.5036,-0.16114004 2.2615,0.57265 2.8712,2.77991996 2.0771,7.51972 7.5989,6.33673 23.9765,-5.13669 6.057,-4.24329 9.0778,-5.63917 14.816,-6.8462201 8.8029,-1.85176 10.8955,-2.91188 12.1236,-6.14183 1.6203,-4.26187 1.0822,-12.20092 -1.1841,-17.46915 -2.3803,-5.53307 -1.9299,-7.17976 1.1911,-4.35525 1.5808,1.43056 2.2501,1.57485 2.8444,0.6132 0.6039,-0.97716 1.0636,-0.91255 2.0614,0.28977 2.2116,2.66481 4.8967,1.87907 5.8185,-1.70267 0.7171,-2.78597 1.3293,-3.29226 4.2877,-3.546 3.8166,-0.32734 12.1135,4.39596 14.0377,7.99153 1.6738,3.1275 0.2448,3.31706 -3.8365,0.50891 -2.0725,-1.42597 -5.0056,-3.05668 -6.5181,-3.6238 -2.4199,-0.90735 -2.75,-0.79401 -2.75,0.94411 0,2.63425 -3.464,5.97525 -6.1953,5.97525 -1.2074,0 -3.5193,-1.2375 -5.1376,-2.75 l -2.9424,-2.75 1.7293,2.71425 c 2.6721,4.19437 3.0987,13.34108 0.8929,19.14785 -2.1758,5.7279601 -5.2967,7.7282301 -15.7139,10.0715801 -6.1898,1.39242 -7.5289,2.16922 -13.5807,7.87818 -10.2008,9.6229499 -18.2627,11.0682499 -26.1926,4.69567 -4.2109,-3.384 -4.4765,-3.12525 -5.4682,5.3275499 -0.5189,4.42246 -0.306,5.43616 1.4812,7.05179 2.0615,1.86363 2.1413,1.84255 6.4789,-1.71174 2.4154,-1.97923 4.6744,-3.31582 5.02,-2.9702 1.5484,1.54837 0.3852,5.69209 -2.3716,8.44892 -1.65,1.65 -3,3.18716 -3,3.41592 0,0.40865 13.2067,10.29882 15.8498,11.86947 1.0794,0.64145 1.1339,0.39881 0.2721,-1.21143 -0.962,-1.7975 -0.7149,-2.08159 2.303,-2.64774 2.0832,-0.39081 4.0386,-1.63852 5.0952,-3.25115 1.7121,-2.61293 1.7306,-2.61606 12.0299,-2.03282 10.1118,0.57262 10.3905,0.52948 14.1326,-2.18709 5.9729,-4.33606 6.7809,-6.62746 5.4624,-15.49214 -1.6013,-10.7664299 -0.01,-13.90342986 3.4911,-6.8668699 2.5748,5.1802599 2.5854,17.6408099 0.018,21.4508899 -2.8852,4.28189 -9.5556,6.91103 -19.6569,7.74777 -7.3114,0.60563 -9.6401,1.22476 -12.7732,3.396 -2.1074,1.46044 -4.7871,2.65534 -5.9549,2.65534 -2.0201,0 -1.9623,0.26739 1.1909,5.5038 2.8831,4.78779 8.1323,20.92704 10.138,31.17037 0.4413,2.25338 1.46,3.52146 3.5117,4.37133 3.3588,1.39123 3.8061,3.90223 0.8336,4.67954 -1.2849,0.33602 -1.8477,1.08197 -1.5,1.98817 0.3061,0.7977 0.5566,1.92786 0.5566,2.51147 0,2.01628 15.0788,0.0999 25.5,-3.24077 14.4809,-4.64213 15.5,-5.37481 15.5,-11.14375 0,-3.55823 0.5977,-5.4231 2.4149,-7.5344 1.3282,-1.54317 2.6384,-2.58076 2.9116,-2.30576 0.2731,0.275 0.058,2.90872 -0.4789,5.85271 -1.08,5.92619 -0.9171,6.49492 1.5859,5.53444 2.7843,-1.06843 3.6547,-4.87743 2.4249,-10.61158 -1.0513,-4.90236 -0.754,-13.34092 0.7233,-20.52557 0.4632,-2.25272 0.2948,-3.25 -0.549,-3.25 -0.6695,0 -2.28,-0.83594 -3.5789,-1.85764 -1.803,-1.41824 -3.4983,-1.74842 -7.1672,-1.39588 -4.227,0.40616 -5.1356,0.13178 -7.5461,-2.27872 -3.2231,-3.22306 -3.8375,-8.47172 -0.9905,-8.46144 0.9625,0.003 2.5166,1.35348 3.4535,3 1.5937,2.80082 2.0884,2.99368 7.6786,2.99368 6.481,0 9.0274,1.46725 9.2355,5.32143 0.065,1.19821 0.5127,-0.0714 0.9956,-2.82143 0.5717,-3.25648 0.4866,-6.69511 -0.2441,-9.86118 -1.5033,-6.51375 -0.5681,-17.11199 1.9978,-22.6388199 2.6957,-5.80654996 2.7738,-7.41706 0.284,-5.86217996 -2.9155,1.82077996 -6.7273,0.24531 -9.0883,-3.75633004 l -2.143,-3.63199 -6.9389,0.68374 -6.939,0.68375 -2.0429,-3.3085 c -2.3945,-3.8779901 -2.3094,-9.1387101 0.1555,-9.6052001 1.1345,-0.2147 2.023,0.80401 2.8276,3.24181 1.0928,3.31124 1.4592,3.55654 5.3456,3.57876 6.6355,0.0379 11.9997,1.6711901 14.3195,4.3598301 1.448,1.67819 3.1218,2.46068 5.141,2.40328 2.8098,-0.0799 3.0335,-0.38389 3.6383,-4.9432 0.7705,-5.8078001 -0.3619,-22.6859201 -1.5721,-23.4339001 -0.4698,-0.29035 -0.8542,0.15782 -0.8542,0.99593 0,3.15542 -8.2258,5.05401 -9.3382,2.15533 -0.3823,-0.99638 0.2767,-1.53455 2.143,-1.75 2.1339,-0.24634 2.9571,-1.11328 3.9528,-4.16311 1.0942,-3.35167 0.9805,-4.86313 -0.8759,-11.63687 l -2.1335,-7.78488 3.1816,-4.62419 c 7.2168,-10.48937 7.2039,-13.90112 -0.1221,-32.23313 -4.2438,-10.619177 -4.7814,-11.357537 -14.5587,-19.996487 -2.455,-2.16916 -3.0129,-3.23972 -2.2787,-4.37246 0.8414,-1.29813 1.5911,-1.1735 5.571,0.92612 11.9657,6.3126 22.3773,26.865777 22.4413,44.300827 0.014,3.92825 0.4398,5.00372 2.5174,6.36501 3.9723,2.60276 3.243,4.61463 -1.5474,4.26874 -3.8104,-0.27511 -4.1849,-0.0502 -6.3943,3.83948 l -2.3469,4.1317 2.4842,5.19059 c 2.6747,5.58878 5.2902,20.07099 5.2335,28.97753 -0.019,3.025 -0.6068,8.9884101 -1.3055,13.2520201 l -1.2704,7.75203 3.5045,1.74797 c 4.2932,2.1414 6.086,4.70432 4.4411,6.3491399 -0.8749,0.87494 -1.8145,0.63836 -3.8623,-0.9724799 -3.8569,-3.03381 -5.1129,-2.68332 -7.5578,2.1089999 -2.0474,4.0133 -2.0942,4.65405 -0.8848,12.1015 0.9308,5.73138 1.0415,11.42931 0.4083,21.01232 -1.5849,23.98681 -1.9254,22.07249 7.2305,40.6485 9.225,18.716373 9.7686,20.048163 11.8363,29.000003 4.107,17.78072 -0.5366,28.7791 -17.3808,41.16652 -2.2485,1.65358 -4.0882,3.37536 -4.0882,3.82619 0,0.45082 2.25,2.43614 5,4.41182 4.7141,3.38676 5,3.84684 5,8.04675 0,4.25377 -1.6292,9.54872 -2.938,9.54872 -0.3394,0 -1.6195,-0.70221 -2.8449,-1.56047 -2.8572,-2.00129 -11.2171,-1.03489 -11.2171,1.2967 0,1.96072 12.6557,14.15157 16.3344,15.73451 4.1098,1.76837 6.7794,0.89712 12.4495,-4.06296 5.5028,-4.81371 6.841,-5.44406 5.2512,-2.47352 -0.5693,1.06384 -1.0352,2.07968 -1.0352,2.25741 0,0.17774 3.7125,0.15656 8.25,-0.0471 8.5292,-0.38274 12.5427,-1.79363 18.0343,-6.33975 l 2.7842,-2.30486 -2.0012,-11.65596 c -1.6613,-9.67651 -1.8382,-13.07298 -1.0418,-20 1.4056,-12.2254 1.2014,-18.10867 -0.9443,-27.20737 -3.1528,-13.36907 -3.3216,-18.82183 -1.1175,-36.108473 1.12,-8.78444 2.0363,-18.59092 2.0363,-21.79211 0,-9.16253 -2.7326,-20.23206 -8.2046,-33.23605 -11.0466,-26.2518499 -12.8234,-35.6739999 -10.7719,-57.12389 1.6079,-16.81111 1.1131,-21.59759 -3.0514,-29.51901 l -3.342,-6.3571 -0.7432,-20 c -0.7722,-20.78009 -1.5618,-25.982337 -4.9524,-32.628547 -2.3937,-4.69206 -14.7987,-18.00642 -19.4616,-20.88824 -4.4096,-2.72527 -18.3218,-5.64374 -32.9728,-6.91696 -12.6989,-1.10357 -17.3654,-2.09279 -20.9491,-4.44091 -2.1572,-1.41348 -2.2493,-1.28864 -4.3723,5.92756 -1.4829,5.04019 -2.8368,7.72898 -4.281,8.50192 -3.4434,1.84283 -4.0999,-0.1537 -2.0295,-6.17156 1.0397,-3.02197 2.1905,-7.26947 2.5573,-9.43888 l 0.6669,-3.94438 -10.2961,0 c -9.4737,0 -10.8269,-0.25144 -16.9395,-3.14754 -7.3805,-3.49681 -20.3421,-11.97028 -23.2165,-15.17746 -1.4838,-1.65561 -1.7225,-2.94443 -1.1806,-6.37507 0.3735,-2.36496 0.6549,-6.39349 0.6252,-8.95228 -0.048,-4.16839 0.1536,-4.59806 1.9416,-4.13051 2.5466,0.66597 3.391,4.0788 2.5596,10.34582 -0.5895,4.44386 -0.3925,5.22147 1.9046,7.51854 4.3448,4.34482 24.691,13.53469 31.2744,14.12589 12.4827,1.12097 19.1259,-3.41242 25.0334,-17.08303 7.9825,-18.47225 5.8556,-57.62253 -4.2065,-77.43182 -3.7844,-7.45021 -10.0256,-13.78949 -16.8945,-17.16 -10.7121,-5.25622 -25.8315,-5.73436 -36.1599,-1.14351 -12.1407,5.39644 -20.7061,19.68317 -20.7197,34.55976 -0.01,6.63495 0.1407,7.06883 3.2499,9.6065 2.3151,1.88949 3.0621,3.16409 2.5842,4.40955 -0.624,1.62601 -0.8486,1.63632 -3.1269,0.1435 -3.4135,-2.23664 -6.2299,-2.00739 -7.883,0.64166 -2.207,3.53666 -2.7858,7.50796 -1.6815,11.53747 1.252,4.56839 8.5086,13.21253 11.0916,13.21253 2.4888,0 4.9479,4.85877 4.9479,9.77603 0,5.38683 -4.8503,26.97567 -7.0205,31.24859 -2.2048,4.34099 -9.9903,11.74006 -15.9941,15.20028 -2.467,1.4218 -7.9018,3.99025 -12.0775,5.70766 -4.2003,1.72756 -9.8983,5.09115 -12.7543,7.52899 -5.3301,4.5497 -6.1337,4.93973 -12.324,5.98151 -4.4782,0.75365 -13.4732,9.94663 -17.4916,17.87672 -2.4212,4.777907 -2.5661,5.799377 -2.0145,14.197137 1.0123,15.4108 8.3436,31.99404 16.1912,36.62426 3.992,2.35536 4.4156,3.80279 1.3475,4.60511 -2.0419,0.53397 -2.1119,0.96728 -1.5601,9.65638 0.6813,10.73028 3.5036,22.28416 7.3742,30.1888601 2.1104,4.31006004 5.8589,8.60607 15.5608,17.8337999 12.6922,12.07181 12.7883,12.19728 13.888,18.11534 2.0055,10.79338 3.7457,14.50739 7.54,16.09276 1.8821,0.78638 3.6575,2.20305 3.9455,3.14817 2.2554,7.40211 8.8253,22.97512 14.486,34.33695 5.6836,11.40771 8.0586,14.99322 14.63,22.086313 6.9798,7.53396 18.4072,22.41339 21.0779,27.4452 0.5401,1.01747 1.7869,5.73729 2.7708,10.4885 l 1.7888,8.63856 -4.182,6.92155 c -4.7586,7.87577 -5.0498,10.40204 -2.1495,18.65376 1.3577,3.86305 1.8208,6.91185 1.3948,9.18282 -0.7273,3.87665 -4.5226,8.46475 -7.0021,8.46475 -1.3464,0 -1.4367,0.28136 -0.4655,1.45152 1.6163,1.94759 10.9622,6.54848 13.3021,6.54848 1.028,0 5.238,-1.55651 9.3555,-3.45891 z m 97.4221,-102.467153 c -0.7114,-1.32928 -1.0164,-8.9746 -0.87,-21.81033 0.2457,-21.54881 -0.2851,-24.95045 -6.2289,-39.913 -3.101,-7.8064 -3.8732,-13.80414 -1.6907,-13.13274 1.6198,0.49829 10.3053,17.7601 12.3013,24.44795 1.2404,4.15626 1.4838,9.72338 1.2452,28.48668 -0.2659,20.91681 -0.4699,23.35423 -1.979,23.644513 -0.9254,0.17801 -2.1754,-0.597383 -2.7779,-1.723073 z m -127.0395,-27.11309 c -21.4843,-14.5523 -27.7947,-21.7308 -25.4891,-28.99525 1.0779,-3.39626 3.8075,-1.9233 4.7063,2.53969 1.8515,9.19353 4.2859,11.72408 17.7828,18.48469 10.8031,5.41129 19.9506,11.13174 22.032,13.77788 2.4724,3.14309 2.5832,6.26476 0.218,6.13935 -0.9625,-0.051 -9.625,-5.4269 -19.25,-11.94636 z m 68.0352,-4.89511 c -1.6625,-3.10635 -1.2143,-5.69947 1.5537,-8.98901 3.4129,-4.05601 4.4111,-3.88085 4.4111,0.77405 0,8.01464 -3.4956,12.82883 -5.9648,8.21496 z m -104.5541,-22.45666 c -1.9787,-4.73565 -1.8663,-6.60908 0.3965,-6.60908 2.5726,0 4.0132,1.9996 4.3439,6.02938 0.4086,4.97863 -2.7414,5.36384 -4.7404,0.5797 z m -6.7591,-19.24418 c -0.7965,-1.57569 -3.3726,-8.7149 -5.7248,-15.8648999 -5.0286,-15.28586 -8.1949,-22.0002401 -11.1102,-23.5604901 -1.2732,-0.6814 -3.8622,-0.8704 -6.5014,-0.47463 -3.8455,0.57668 -4.3856,0.42846 -4.3856,-1.20361 0,-2.78824 2.0034,-4.26127 5.7956,-4.26127 6.7785,0 12.6856,6.8454 18.1625,21.04753014 4.2739,11.08265986 7.5691,24.82523986 6.2653,26.12909986 -0.7376,0.73756 -1.4872,0.19463 -2.5014,-1.81173 z m 58.528,-33.0315699 c -0.7348,-0.29393 -1.25,-2.3132901 -1.25,-4.8998201 0,-4.30698 0.1108,-4.45533 5.25,-7.03066 7.3072,-3.66174 8.4441,-4.87187 12.1861,-12.9709 3.6101,-7.81363 6.3927,-10.43195 11.0864,-10.43195 3.4312,0 5.4775,1.53408 5.4775,4.1064 0,1.47972 -0.4532,1.5673 -3.412,0.65923 -4.7755,-1.46563 -6.2021,-0.58021 -6.9885,4.33719 -1.0515,6.57607 -4.2083,11.23972 -9.9487,14.69746 -2.8329,1.70645 -5.9134,3.38809 -6.8456,3.73697 -1.0653,0.39874 -1.8081,1.96646 -2,4.22124 -0.3057,3.5928801 -1.2177,4.5098601 -3.5552,3.5748401 z m -51.5811,-4.8072701 c -2.0245,-2.02451 -7.2473,-16.03071 -8.0268,-21.52606 -0.7012,-4.94223 0.6501,-8.59875 2.2562,-6.1055 0.4941,0.76698 1.3966,3.91698 2.0056,7 0.609,3.08303 2.7013,8.71235 4.6496,12.50961 3.3103,6.45221 3.8179,9.59589 1.5493,9.59589 -0.528,0 -1.6232,-0.66327 -2.4339,-1.47394 z m 39.3311,-27.28779 c 0,-1.7073 9.7963,-9.53023 15.8627,-12.66727 1.582,-0.81806 6.7735,-2.46482 11.5367,-3.65948 9.5425,-2.39332 11.6855,-4.12501 13.7876,-11.14144 1.5638,-5.21931 0.011,-12.71491 -4.6803,-22.59347 -3.7966,-7.99462 -4.3644,-11.176607 -1.9943,-11.176607 1.4549,0 6.8848,7.734687 9.1794,13.075887 2.4225,5.63871 3.6629,17.7611 2.3965,23.42 -1.9123,8.54504 -3.5662,9.92156 -16.8766,14.04555 -6.7836,2.1018 -14.9045,5.4864 -19.2996,8.04362 -8.3502,4.85846 -9.9121,5.27655 -9.9121,2.65321 z m 59.5,-11.70416 c -6.6345,-2.40558 -11.8775,-9.94673 -8.4067,-12.09176 0.6013,-0.37162 2.9808,1.17682 5.2878,3.44099 4.0605,3.98507 4.4012,4.11475 10.6567,4.05705 3.5542,-0.0328 8.7122,-0.43456 11.4622,-0.89282 5.0865,-0.84762 7.5,-0.0581 7.5,2.45355 0,3.35517 -19.4667,5.58317 -26.5,3.03299 z m -105.9259,-58.185157 c -2.192,-1.19656 -4.3955,-1.44349 -8.7858,-0.98461 -4.6858,0.48976 -5.9754,0.3117 -6.436,-0.88866 -1.191,-3.10358 1.5847,-4.47632 9.0201,-4.46094 8.4824,0.0175 12.1276,1.52073 12.1276,5.0011 0,3.01374 -2.0161,3.46729 -5.9259,1.33311 z m 14.5374,-4.71461 c -2.1925,-2.64184 -0.4713,-3.37117 9.6233,-4.07763 5.3709,-0.37587 15.9302,-1.5618 23.4651,-2.6354 l 13.7,-1.95201 6.55,3.22998 c 6.3167,3.11488 8.0674,5.28125 5.1673,6.39412 -0.7605,0.29184 -4.2391,-0.67159 -7.7302,-2.14097 l -6.3475,-2.6716 -16.0197,2.0815 c -26.8951,3.49456 -26.9746,3.49952 -28.4083,1.77201 z m 66.1385,-3.29662 c -2.2522,-0.90877 -1.3206,-3.01788 3.155,-7.14342 4.8445,-4.46545 12.1562,-7.1943 19.2765,-7.1943 3.0934,0 4.3185,0.40879 4.3185,1.44098 0,2.04037 -0.9857,2.46132 -9.6416,4.11747 -6.9435,1.32851 -8.0245,1.85976 -11.1033,5.45667 -3.4596,4.0417 -3.7815,4.21983 -6.0051,3.3226 z m -40.8066,-16.20915 c -3.702,-2.25751 -10.4434,-14.53838 -10.4434,-19.0248 0,-5.22641 2.6218,-3.72001 4.6056,2.64623 1.3742,4.40972 3.04,6.97576 7.1467,11.00871 6.6837,6.56359 5.9027,9.7676 -1.3089,5.36986 z m 293.3463,333.94341 c 8.78,-6.94019 16.8182,-20.87039 20.8064,-36.05723 3.5131,-13.37754 3.678,-35.48892 0.3607,-48.35067 -3.4693,-13.45054 -11.9671,-28.953843 -19.4921,-35.560843 -6.6866,-5.87098 -18.2298,-9.95327 -24.0286,-8.49785 -2.0795,0.5219 -1.6551,0.94455 3.5704,3.55577 12.1328,6.06282 24.0453,23.35075 29.1741,42.338843 3.1933,11.8221 3.2348,39.226 0.078,51.70926 -2.7147,10.73618 -6.5295,19.22721 -12.598,28.04074 -2.5562,3.7125 -4.2411,6.75 -3.7442,6.75 0.497,0 3.1398,-1.76761 5.8729,-3.92802 z m -305.5397,-20.22274 20.75,-3.31748 0,-4.298 c 0,-5.03362 1.8201,-9.82024 5.6368,-14.8242 2.7149,-3.55941 2.7284,-3.65401 1.5243,-10.67563 -1.2145,-7.08253 -4.0833,-13.18513 -10.1081,-21.5021 -3.2406,-4.47345 -4.5678,-4.86909 -12.135,-3.61725 -3.2937,0.54488 -3.8861,1.20724 -7.3611,8.23003 -3.0732,6.21094 -3.8784,9.08668 -4.3109,15.39643 -0.4469,6.52044 -0.8112,7.75896 -2.2819,7.75896 -5.5589,0 -3.373,-19.21216 3.6059,-31.69151 3.4054,-6.08955 3.5505,-6.20587 8.1121,-6.50446 l 4.6447,-0.30403 -5.0348,-5.5 c -2.7691,-3.025 -6.6199,-8.36046 -8.5574,-11.856573 l -3.5228,-6.35657 -0.6625,3.92156 c -0.4488,2.65589 -2.8963,6.891983 -7.5834,13.125123 -9.8587,13.1105 -10.6921,16.43331 -8.4465,33.67584 1.7215,13.21775 1.6799,34.7788 -0.078,40.3868 -0.6961,2.2207 -0.5383,2.35496 2.1538,1.83336 1.5977,-0.30955 12.2424,-2.05568 23.6549,-3.8803 z m 101.1005,-3.37742 c 7.7822,-1.3905 14.7314,-2.73382 15.4426,-2.98516 1.7824,-0.62988 0.053,-3.7022 -3.3324,-5.92042 -2.4918,-1.63271 -3.2669,-1.60949 -15.7906,0.47295 -7.2435,1.20448 -13.3122,2.31797 -13.4858,2.47444 -0.4974,0.44816 1.8277,8.48637 2.4547,8.48637 0.3091,0 6.9292,-1.13768 14.7115,-2.52818 z m -3.8925,-12.89992 c 6.6901,-1.13977 8.3182,-1.80754 10.219,-4.19141 1.9014,-2.38456 2.0274,-2.96643 0.792,-3.65776 -0.8986,-0.50287 -1.469,-2.32958 -1.469,-4.7042 0,-4.72444 5.25,-19.34639 8.4549,-23.54834 l 2.3302,-3.05505 -2.4066,-7.45757 c -1.9641,-6.08637 -2.2886,-8.62594 -1.7649,-13.81198 l 0.6418,-6.354413 -5.2183,3.58951 c -2.87,1.974233 -8.8127,4.725023 -13.206,6.112863 -8.2067,2.59247 -23.8122,5.49529 -29.5811,5.50243 -1.7875,0.002 -3.25,0.46854 -3.25,1.03628 0,0.56774 1.339,4.50524 2.9756,8.75 l 2.9756,7.71774 19.0584,-0.34422 c 19.9298,-0.35996 21.9904,0.01 21.9904,3.94361 0,2.58359 -3.7618,4.77969 -11.7116,6.83718 -5.0709,1.31239 -17.7551,6.67524 -19.9637,8.4406 -0.165,0.13189 3.3025,13.61358 4.2234,16.42059 0.289,0.88074 1.4743,1.11012 3.6888,0.71383 1.7947,-0.32116 6.8442,-1.19402 11.2211,-1.93969 z m 102.0419,-5.11491 c 14.3,-2.51491 37.4646,-6.58358 51.4768,-9.04148 14.0121,-2.45791 25.8668,-4.8591 26.3437,-5.336 1.2543,-1.25428 0.4487,-4.19565 -1.4821,-5.41149 -1.2289,-0.77382 -9.9542,0.46286 -33.5,4.74813 -24.8275,4.51852 -70.5493,12.49162 -72.0884,12.57096 -0.1375,0.007 -0.25,1.77076 -0.25,3.91927 0,3.20288 0.3152,3.83586 1.75,3.51478 0.9625,-0.21539 13.45,-2.44926 27.75,-4.96417 z m -77.2618,-23.51101 c -2.515,-5.8289 -2.5313,-5.84289 -4.24,-3.64866 -3.6699,4.71265 -4.9981,8.66465 -4.9981,14.87172 l 0,6.26835 5.8814,-5.82004 5.8814,-5.82005 -2.5247,-5.85132 z m -38.7278,3.48082 7.9897,-3.57321 -8.9882,0.6447 c -4.9434,0.35458 -9.1228,0.77937 -9.2874,0.94397 -0.2433,0.24328 1.857,5.55774 2.1964,5.55774 0.055,0 3.6951,-1.60794 8.0895,-3.5732 z m 46.9944,-6.44853 c 1.2017,-5.47143 -1.8826,-19.33282 -6.6983,-30.10296 -1.6908,-3.781423 -3.4639,-6.875313 -3.9403,-6.875313 -0.4764,0 -0.8661,3.20783 -0.8661,7.128523 0,6.037 0.5922,8.5252 3.8676,16.25 2.1272,5.01681 4.1726,10.80898 4.5453,12.87148 0.8179,4.52578 2.1869,4.84826 3.0918,0.72827 z m 222.8721,-0.98223 c 8.7323,-1.64782 16.0448,-2.99604 16.25,-2.99604 0.2052,0 0.3731,-0.91412 0.3731,-2.03138 0,-3.76528 -1.2628,-3.71579 -29.75,1.1657 -5.9821,1.02509 -6.25,1.19516 -6.25,3.96833 0,3.62783 -0.4254,3.63017 19.3769,-0.10661 z m -271.8768,-26.01282 c 11.8607,-2.77436 16.0759,-4.505023 22.9911,-9.439653 5.3756,-3.83592 6.4085,-5.08791 7.3797,-8.94471 1.4967,-5.94405 1.5328,-5.87838 -1.6208,-2.94828 -7.4656,6.93641 -31.1249,14.34942 -45.7976,14.34942 l -5.3267,0 0.5224,3.750003 c 0.9326,6.69459 0.7733,6.57328 7.6193,5.80446 3.4279,-0.38497 9.8326,-1.54202 14.2326,-2.57124 z"
       id="path3013"
       inkscape:connector-curvature="0" />
  </g>
</svg>
