<?xml version="1.0" encoding="UTF-8" standalone="no"?>
<!-- Created with Inkscape (http://www.inkscape.org/) -->

<svg
   xmlns:dc="http://purl.org/dc/elements/1.1/"
   xmlns:cc="http://creativecommons.org/ns#"
   xmlns:rdf="http://www.w3.org/1999/02/22-rdf-syntax-ns#"
   xmlns:svg="http://www.w3.org/2000/svg"
   xmlns="http://www.w3.org/2000/svg"
   xmlns:xlink="http://www.w3.org/1999/xlink"
   xmlns:sodipodi="http://sodipodi.sourceforge.net/DTD/sodipodi-0.dtd"
   xmlns:inkscape="http://www.inkscape.org/namespaces/inkscape"
   width="759.948"
   height="882.40033"
   id="svg2"
   version="1.1"
   inkscape:version="0.48.3.1 r9886"
   sodipodi:docname="Barbell-front-raises-1.svg">
  <defs
     id="defs4">
    <radialGradient
       gradientUnits="userSpaceOnUse"
       gradientTransform="matrix(1,0,0,0.91819829,-19.285714,-7.9105395)"
       r="209.56604"
       fy="287.50052"
       fx="398.1105"
       cy="287.50052"
       cx="398.1105"
       id="radialGradient5255"
       xlink:href="#linearGradient5249"
       inkscape:collect="always" />
    <linearGradient
       id="linearGradient5249"
       inkscape:collect="always">
      <stop
         id="stop5251"
         offset="0"
         style="stop-color:#e3e3e3;stop-opacity:1;" />
      <stop
         id="stop5253"
         offset="1"
         style="stop-color:#e3e3e3;stop-opacity:0;" />
    </linearGradient>
  </defs>
  <sodipodi:namedview
     id="base"
     pagecolor="#ffffff"
     bordercolor="#666666"
     borderopacity="1.0"
     inkscape:pageopacity="0.0"
     inkscape:pageshadow="2"
     inkscape:zoom="0.35"
     inkscape:cx="-106.2554"
     inkscape:cy="92.41274"
     inkscape:document-units="px"
     inkscape:current-layer="layer1"
     showgrid="false"
     showguides="true"
     inkscape:guide-bbox="true"
     fit-margin-top="0"
     fit-margin-left="0"
     fit-margin-right="0"
     fit-margin-bottom="0"
     inkscape:window-width="1201"
     inkscape:window-height="886"
     inkscape:window-x="65"
     inkscape:window-y="24"
     inkscape:window-maximized="0">
    <sodipodi:guide
       orientation="-0.70710678,0.70710678"
       position="-2567.5478,586.59051"
       id="guide2985" />
  </sodipodi:namedview>
  <metadata
     id="metadata7">
    <rdf:RDF>
      <cc:Work
         rdf:about="">
        <dc:format>image/svg+xml</dc:format>
        <dc:type
           rdf:resource="http://purl.org/dc/dcmitype/StillImage" />
        <dc:title></dc:title>
      </cc:Work>
    </rdf:RDF>
  </metadata>
  <g
     inkscape:label="Ebene 1"
     inkscape:groupmode="layer"
     id="layer1"
     transform="translate(-1138.9763,269.16191)">
    <path
       style="fill:#000000"
       d="m 1372.3735,609.46693 c -6.9989,-4.0661 -16.7189,-12.14981 -18.1565,-15.09981 -2.0937,-4.2964 -5.349,-17.3125 -5.3711,-21.4765 -0.035,-6.6181 -1.7987,-12.3337 -7.6466,-24.7839 -5.2553,-11.1887 -5.5265,-12.1427 -4.8408,-17.0343 0.3995,-2.85 0.6395,-6.9818 0.5334,-9.1818 -0.3096,-6.4214 -0.1483,-14.2285 0.5371,-25.993 0.7949,-13.6434 -0.1397,-19.6832 -7.3518,-47.507 -6.9345,-26.7526 -7.2484,-34.0657 -2.4468,-57 2.6648,-12.7283 3.8352,-16.1194 9.5787,-27.75393 3.5987,-7.28966 6.7774,-15.16466 7.0639,-17.5 2.343,-19.09983 2.8735,-26.93598 3.0973,-45.74609 0.1884,-15.839 0.6641,-22.89991 1.8066,-26.81676 0.8529,-2.92422 1.8651,-10.83393 2.2493,-17.57713 l 0.6985,-12.26037 -3.4289,-2.02309 c -1.8859,-1.11269 -5.3174,-3.75947 -7.6256,-5.88172 -4.7732,-4.3887 -5.3359,-7.55331 -2.5715,-14.46218 0.8938,-2.23395 1.3718,-4.31506 1.0622,-4.62469 -0.3096,-0.30963 -14.0771,2.63404 -30.5943,6.54149 -16.5173,3.90745 -30.204,7.10445 -30.415,7.10445 -0.2109,0 -0.6895,4.8375 -1.0635,10.75 -0.8562,13.53727 -4.8813,30.76043 -9.2075,39.39817 -3.7764,7.54009 -13.8294,19.71363 -18.8337,22.80649 -5.7959,3.58204 -28.9678,11.04534 -34.2934,11.04534 -10.6545,0 -21.4877,-4.46322 -30.0985,-12.40036 -8.6352,-7.95962 -17.57,-23.83443 -20.8808,-37.09964 -0.9609,-3.85 -1.8219,-7.13772 -1.9133,-7.30604 -0.091,-0.16833 -2.8684,0.39417 -6.1711,1.25 -8.0978,2.09835 -10.6298,1.96457 -13.7589,-0.72696 -3.4344,-2.95411 -4.427,-9.94124 -2.0621,-14.51453 1.6503,-3.19138 6.6736,-5.377 15.6958,-6.82924 l 3.5911,-0.57803 1.1196,-11.1476 c 1.4919,-14.85512 3.2535,-21.23087 9.1589,-33.1476 9.2402,-18.64618 15.088,-23.30745 41.0393,-32.71217 7.376,-2.67307 20.8119,-2.12176 29.5,1.21047 7.2104,2.76547 17.0393,12.21429 22.5454,21.67363 2.9602,5.0855 9.5458,20.48266 11.3069,26.43543 0.4139,1.39917 4.9182,0.61934 34.7754,-6.02072 l 34.3,-7.62808 1.7834,-12.47928 c 0.9808,-6.86361 1.9511,-17.42928 2.1562,-23.47928 0.2052,-6.05 0.7198,-14.88924 1.1438,-19.64276 l 0.7708,-8.64277 -4.4943,-5.85723 c -5.5059,-7.17569 -14.4865,-24.04598 -15.1974,-28.54889 -0.2873,-1.81959 -1.2512,-8.033338 -2.1421,-13.808338 -0.8909,-5.775 -2.4563,-12.15348 -3.4785,-14.17441 -1.0223,-2.02092 -2.7763,-7.53806 -3.8978,-12.2603 -2.2326,-9.40015 -2.8379,-10.56188 -11.2369,-21.56529 -3.2635,-4.27542 -7.9964,-12.44436 -11.0082,-19 l -5.2834,-11.5000002 -0.043,-15.9999998 c -0.04,-14.83179 -0.2525,-16.64367 -2.91,-24.81583 -2.4964,-7.67662 -2.7927,-9.80879 -2.2932,-16.5 0.5769,-7.72789 4.881,-22.69227 8.6542,-30.08835 1.809,-3.54593 14.8453,-17.070752 21.3046,-22.103072 1.5157,-1.18079 5.7907,-3.72611 9.5,-5.65625 3.7094,-1.93015 9.6738,-6.28297 13.2544,-9.67293 3.5805,-3.38997 10.0119,-9.08858 14.2919,-12.66358 8.5157,-7.11298 11.7901,-12.34073 13.7796,-22 0.623,-3.025 2.2096,-9.26284 3.5256,-13.86187 2.9562,-10.33069 2.9583,-10.97263 0.04,-12.08227 -3.0525,-1.16057 -9.0586,-8.20911 -11.7732,-13.81661 -1.6761,-3.4625 -2.018,-5.55265 -1.5886,-9.71305 0.5023,-4.86594 2.9398,-11.3147 4.7348,-12.5262 0.4074,-0.275 0.9213,-5 1.1418,-10.5 0.3467,-8.64584 0.8281,-10.91044 3.5547,-16.72333 6.3193,-13.47246 17.6823,-21.88719 32.2892,-23.91139 9.8281,-1.36197 18.2665,0.17336 28.7803,5.23644 7.1909,3.46286 8.8937,4.81009 12.8852,10.19423 11.6869,15.76457 13.8251,24.76498 13.8273,58.20405 l 0,25 -3.6977,7.30767 c -2.0337,4.01921 -5.2962,9.53275 -7.25,12.25231 -1.9538,2.71956 -3.5523,5.78959 -3.5523,6.8223 0,3.29681 14.329,9.70999 28.0227,12.54196 6.5035,1.34499 13.3214,3.23089 15.1509,4.19088 2.5332,1.32924 5.2746,1.68288 11.4966,1.48307 10.2633,-0.32959 14.942,1.57134 21.6692,8.80422 7.6775,8.25449 11.3692,17.44846 13.1627,32.780582 0.8238,7.04262 1.4979,16.77644 1.4979,21.63072 0,8.2142 0.2126,9.13499 3.0676,13.28456 6.9151,10.05086 10.4729,21.45056 11.3607,36.40174 1.2571,21.171479 2.5912,27.8834 6.8574,34.5 6.8665,10.64948 15.6934,29.60769 17.2272,37 0.8498,4.09609 1.4595,12.66762 1.4697,20.66203 0.018,14.528728 1.439,24.281888 5.0742,34.837958 2.0712,6.01481 9.6653,24.04117 10.4718,24.85764 0.1943,0.19669 4.5904,-0.66385 9.7692,-1.91233 l 9.4159,-2.26995 0.637,-11.15392 c 0.826,-14.46199 3.4592,-24.66273 9.5565,-37.021428 8.7876,-17.81163 17.3192,-24.99446 36.7007,-30.89863 21.4415,-6.53166 34.6148,-3.10191 48.9819,12.75267 6.5418,7.21915 14.6483,22.75491 17.2955,33.145948 1.2139,4.76525 2.2352,6.94205 3.1989,6.81848 0.7787,-0.0998 8.7157,-1.78733 17.6378,-3.75 8.9218,-1.96266 16.9308,-3.56848 17.7974,-3.56848 2.3296,0 6.4802,4.92916 6.4802,7.69568 0,3.61291 -2.7484,8.20687 -5.2682,8.80593 -1.2275,0.29182 -9.6568,2.26011 -18.7318,4.37397 l -16.5,3.8434 -0.601,11.39051 c -1.0189,19.30882 -5.032,32.7279 -13.7862,46.09907 -8.0647,12.31807 -13.2206,16.02547 -31.1573,22.40409 -9.3545,3.32662 -10.7111,3.54847 -19.75,3.22967 -8.3532,-0.29462 -10.5114,-0.75065 -15.4891,-3.27284 -7.3569,-3.72768 -16.3844,-12.65602 -22.1182,-21.8751 -4.8052,-7.7261 -10.0061,-19.85332 -11.1314,-25.95543 -0.3814,-2.06857 -1.0449,-3.97823 -1.4745,-4.24369 -0.4295,-0.26546 -4.8785,0.47296 -9.8866,1.64095 -8.934,2.08356 -9.1057,2.17917 -9.1057,5.07062 0,4.33713 -4.5174,8.32908 -11.6022,10.25266 -3.2438,0.88072 -7.5827,2.05491 -9.642,2.60931 -2.4836,0.66864 -4.2246,1.93713 -5.1713,3.76787 -1.5664,3.02905 -10.0804,8.16333 -13.537,8.16333 -1.2,0 -3.6672,1.575 -5.4827,3.5 -2.6732,2.83434 -4.0392,3.49929 -7.1829,3.49626 -3.9025,-0.004 -8.9193,-2.40121 -13.1319,-6.27557 -1.2375,-1.13812 -2.25,-1.75142 -2.25,-1.36289 0,2.05242 3.444,8.41355 6.9165,12.77475 5.1558,6.47542 6.126,10.5725 3.0526,12.89078 -2.4471,1.84586 -2.4446,0.84179 -0.044,17.47667 0.5555,3.85 1.0247,15.03014 1.0427,24.84476 0.029,15.66059 0.308,18.72056 2.2823,25 2.4142,7.67867 2.3576,6.06336 1.7917,51.15524 -0.1508,12.01678 0.4418,29.18071 1.4846,43.00002 1.3648,18.0847 1.5541,26.9536 0.8859,41.5 -0.4673,10.175 -0.8637,23.45 -0.8808,29.5 l -0.031,11 9.5175,12.954 c 5.8525,7.9657 11.6287,14.6159 15,17.2698 3.0154,2.3737 8.1476,6.6061 11.4049,9.4054 6.7607,5.8101 11.3553,8.0067 22.9098,10.9527 11.9646,3.0505 18.7004,5.6 21.3356,8.0757 1.966,1.847 2.3322,3.1837 2.3322,8.5138 0,5.8244 -0.2766,6.629 -3.5083,10.2062 -7.2662,8.0427 -19.3718,10.7265 -43.9917,9.7529 -18.9667,-0.7501 -23.0969,-1.5926 -29.8832,-6.0959 -7.8701,-5.2225 -9.433,-5.5346 -27.714,-5.5346 -19.6179,0 -21.3441,-0.4646 -27.7898,-7.4787 l -4.387,-4.7739 0.564,-13.1237 c 0.4199,-9.7695 1.328,-16.1907 3.5533,-25.1237 4.2295,-16.9786 5.5138,-27.1725 4.9002,-38.8949 -0.6408,-12.2404 -2.0462,-16.0793 -10.3853,-28.3682 -7.0138,-10.3358 -9.642,-17.4416 -11.4511,-30.9601 -1.5076,-11.26583 -0.6117,-29.92546 2.0299,-42.27682 2.8429,-13.29316 2.7002,-18.26129 -0.687,-23.91214 -2.4985,-4.16825 -2.7981,-5.73112 -3.2765,-17.08786 l -0.5265,-12.5 -11.5851,-17.5 c -6.3718,-9.625 -12.5566,-19.4125 -13.7438,-21.75 -3.7538,-7.39041 -4.2383,-6.52743 -6.5966,11.75 -2.6169,20.28169 -4.6231,32.20403 -6.2261,37 -1.8874,5.64711 -7.6139,15.33594 -11.9703,20.25288 -2.3083,2.60531 -3.3268,4.7458 -3.3307,7 -0.01,5.49793 -1.8952,10.67328 -9.5641,26.24712 -7.3076,14.84019 -10.6661,23.61292 -9.8952,25.84712 0.2187,0.6341 0.8718,9.9317 1.4513,20.6613 1.1759,21.776 0.7489,25.8689 -3.9784,38.1271 -3.9312,10.194 -4.7549,14.2065 -7.0413,34.2999 -2.7398,24.0784 -2.6078,28.5878 1.1483,39.2349 3.9988,11.3348 8.0752,19.3769 16.9659,33.4704 9.0731,14.3829 11.4202,17.4261 21.501,27.8773 11.1757,11.5864 12.3281,16.4516 6.5637,27.7114 -2.283,4.4595 -6.3662,7.2706 -10.5608,7.2706 -1.4866,0 -2.9497,0.8133 -3.5793,1.9896 -1.4328,2.67741 -6.1699,5.00801 -10.2058,5.02121 -1.8149,0.01 -5.5087,0.681 -8.2086,1.5 -2.7272,0.8273 -8.7273,1.485 -13.5,1.4798 -7.6597,-0.01 -9.1332,-0.3243 -13.5911,-2.9143 z m 24.6173,-6.73991 c 2.6017,-1.041 5.4496,-1.3935 8.206,-1.0157 2.3218,0.3183 4.6622,0.2638 5.2009,-0.121 0.5386,-0.3849 0.9785,-2.9497 0.9776,-5.6997 0,-4.6599 0.1673,-5 2.4847,-5 1.7061,0 2.8868,0.835 3.7617,2.6604 1.0814,2.2563 1.691,2.5524 4.0134,1.9492 4.9506,-1.2858 7.8377,-10.5054 5.1424,-16.421 -0.6028,-1.3231 -4.4886,-5.4782 -8.635,-9.2336 -5.7319,-5.1913 -9.8226,-10.3187 -17.0661,-21.3915 -10.3214,-15.7775 -21.0405,-36.8578 -23.7928,-46.7912 -1.6123,-5.8188 -1.62,-6.935 -0.1178,-17 0.8843,-5.9248 1.8608,-15.9473 2.1699,-22.2723 0.6131,-12.5455 2.5683,-21.2416 7.5062,-33.3846 3.7612,-9.2496 4.5265,-16.8426 3.336,-33.0998 l -0.8044,-10.9845 -3.1593,4.9845 c -3.7316,5.8872 -6.3134,13.9329 -9.3008,28.9844 -3.457,17.4176 -3.9158,18.8478 -5.5983,17.4515 -1.9234,-1.5963 -1.8177,-5.5186 0.4867,-18.061 3.2671,-17.7825 6.0344,-27.0577 10.5588,-35.3905 2.4065,-4.4322 5.3052,-11.7909 6.4996,-16.50002 1.1857,-4.675 3.3009,-10.525 4.7004,-13 10.2729,-18.16786 15.3129,-27.97754 15.3129,-29.80479 0,-2.89137 3.2449,-13.16189 4.0092,-12.68955 1.1725,0.72468 10.6174,-14.40667 12.4874,-20.00566 0.9185,-2.75 2.2691,-10.625 3.0014,-17.5 0.7323,-6.875 1.6609,-15.38225 2.0634,-18.90499 l 0.732,-6.405 -2.3967,0.7466 c -11.2101,3.49209 -13.1034,3.7632 -26.3967,3.77983 -15.2684,0.0191 -26.4239,-1.33141 -36.3678,-4.40275 -4.6947,-1.45006 -6.6023,-1.67102 -7.125,-0.8253 -0.3926,0.63521 -1.0076,5.51018 -1.3666,10.83327 -0.359,5.32309 -1.3716,12.60334 -2.2502,16.17834 -1.1823,4.81129 -1.6985,13.12492 -1.9868,32 -0.2143,14.025 -0.8175,29.41522 -1.3405,34.20048 -0.9559,8.74502 -1.2854,9.68637 -12.4898,35.67234 -5.2063,12.0748 -7.6499,22.1637 -8.2659,34.1272 -0.5342,10.3752 -0.4686,10.7792 5.5175,34 6.7815,26.3063 7.7219,31.0532 9.0884,45.878 0.8655,9.3897 0.7655,10.8629 -1.0502,15.4693 -1.7981,4.5618 -1.8841,5.7415 -0.8271,11.3433 0.8729,4.6261 0.8915,7.0785 0.072,9.4299 -1.9164,5.4974 -1.251,8.914 3.3968,17.4405 3.2605,5.9815 5.0389,10.8604 6.4391,17.6654 1.0639,5.1709 2.8511,12.7479 3.9715,16.8376 1.1204,4.0898 2.3086,8.786 2.6405,10.436 0.7564,3.7608 7.8918,10.5315 14.7863,14.0305 4.5207,2.29431 5.9383,2.54251 11.4743,2.00901 3.474,-0.33491 8.1094,-1.32621 10.3009,-2.20311 z m -14.5459,-8.9078 c -0.8643,-0.8643 -1.5714,-2.204 -1.5714,-2.977 0,-2.372 4.5426,-4.6065 8.6736,-4.2665 3.0602,0.2518 3.889,0.755 4.1391,2.5126 0.2419,1.7003 -0.5976,2.6621 -3.7102,4.25 -4.8327,2.4655 -5.5036,2.5083 -7.5311,0.4809 z m 21.8135,-9.982 c -4.2923,-4.5512 -4.1233,-7.0084 0.4672,-6.792 6.1692,0.2908 9.7426,6.8864 5.0823,9.3805 -1.7781,0.9516 -2.5505,0.5913 -5.5495,-2.5885 z m -48.1349,-64.0974 c -2.0163,-0.8322 -1.4372,-6.7757 1.0148,-10.4142 2.9075,-4.3145 10.0906,-9.3964 12.1593,-8.6025 0.9468,0.3633 1.5759,1.7946 1.5759,3.5852 0,2.2245 -0.8775,3.6498 -3.4596,5.6193 -1.9028,1.4513 -4.2653,4.2867 -5.25,6.3009 -1.7405,3.5601 -3.4767,4.5694 -6.0404,3.5113 z m -3.1588,-132.7394 c -1.2411,-1.4954 -3.0712,-15.0813 -3.0836,-22.8912 -0.01,-5.17557 1.7556,-6.99 4.5447,-4.67521 1.246,1.03404 1.4064,2.7563 0.8721,9.36187 -0.4928,6.09224 -0.2552,9.43834 0.9604,13.52624 0.8884,2.9873 1.6152,5.5748 1.6152,5.75 0,0.9651 -3.9306,0.107 -4.9088,-1.0717 z m 27.4088,-45.80477 c -2.6169,-1.48395 -3.466,-2.82315 -3.4847,-5.49603 -0.025,-3.53484 1.8654,-3.68722 3.744,-0.30185 1.5536,2.79961 2.1169,3.08087 5.2407,2.6169 1.925,-0.28591 4.5125,-0.82077 5.75,-1.18858 1.7833,-0.53005 2.25,-0.27122 2.25,1.24788 0,1.05415 -0.54,2.45663 -1.2,3.11663 -1.5099,1.50987 -9.6404,1.51321 -12.3,0.005 z m -11.8838,-27.3629 c -0.9596,-2.50056 3.0968,-9.22168 7.4832,-12.39917 2.2247,-1.61161 6.375,-3.69668 9.2228,-4.63348 2.8478,-0.93679 6.4498,-2.76217 8.0045,-4.05638 3.5392,-2.94621 7.6733,-3.16825 7.6733,-0.41214 0,1.06754 -0.5078,2.25482 -1.1284,2.63839 -0.7715,0.47681 -0.6134,0.98564 0.5,1.6087 0.9606,0.53756 1.6284,2.1878 1.6284,4.02376 0,1.71185 1.1477,5.07079 2.5504,7.46432 1.4027,2.39352 2.2761,4.79556 1.9409,5.33786 -0.9638,1.55946 -4.036,1.14997 -5.732,-0.76401 -1.7717,-1.99937 -4.7593,-10.34679 -4.7593,-13.29752 0,-1.82504 -0.5337,-1.70885 -6.9172,1.50584 -4.8066,2.42057 -8.3738,5.17056 -11.6908,9.01258 -4.8002,5.56005 -7.6681,6.85786 -8.7758,3.97125 z m 232.4904,217.74587 c 7.1942,-2.5428 12.8652,-6.2263 12.881,-8.3666 0.03,-4.113 -8.4919,-8.6391 -23.8062,-12.6435 -10.0991,-2.6407 -20.1814,-7.158 -20.1814,-9.0421 0,-0.4289 -4.3273,-5.2475 -9.6163,-10.7078 -5.2889,-5.4604 -13.9354,-15.2986 -19.2143,-21.8626 l -9.5981,-11.9347 -0.4211,-6.5653 c -0.2315,-3.611 0.3829,-17.8154 1.3655,-31.5654 1.6891,-23.6376 1.6958,-26.2807 0.1226,-48.50002 -0.9152,-12.925 -1.6582,-27.2125 -1.6511,-31.75 0.012,-7.58761 -0.1478,-8.25 -1.9872,-8.25 -2.6345,0 -2.6381,-3.67306 -0.016,-16.09821 1.0914,-5.17098 1.9914,-12.81424 2,-16.98501 0.019,-9.36459 -1.78,-18.91678 -3.5634,-18.91678 -2.2924,0 -2.464,-1.66434 -0.9257,-8.97753 1.948,-9.26041 1.9068,-22.57391 -0.1265,-40.85541 -0.8973,-8.06688 -1.7863,-14.84359 -1.9757,-15.05936 -0.1893,-0.21576 -2.8688,1.80924 -5.9544,4.5 -10.539,9.19053 -15.2084,12.0634 -24.7494,15.22711 -12.9177,4.28343 -25.8847,6.36468 -37.27,5.98197 -5.183,-0.17423 -9.4227,-0.17486 -9.4215,-0.001 0.011,1.50781 10.905,19.42725 15.8825,26.12434 9.7211,13.07938 10.3184,14.64361 11.0973,29.06028 0.6616,12.24455 0.7624,12.66262 4.9331,20.45738 4.7934,8.95836 4.8063,9.22669 1.2194,25.24315 -4.1143,18.371 -3.7856,38.49099 0.8752,53.58089 1.1963,3.8732 4.4106,9.818 8.5014,15.7232 3.7837,5.462 7.1657,11.6193 7.9618,14.4954 3.6705,13.2613 2.5505,37.6241 -2.6346,57.3087 -3.8621,14.6622 -4.9059,29.2174 -2.4375,33.9908 3.0835,5.9629 4.8709,6.4637 23.5121,6.5881 l 16.8394,0.1124 8.3761,4.2186 c 4.6068,2.3203 10.354,4.7177 12.7714,5.3277 13.2349,3.3395 37.9541,3.4137 47.2113,0.1417 z m -4.1099,-9.692 c -0.6865,-0.8272 -2.6541,-1.8683 -4.3725,-2.3136 -4.0897,-1.0597 -3.9888,-2.5994 0.1966,-3.0011 3.9924,-0.383 8.1792,2.0954 8.1792,4.8417 0,2.3381 -2.2362,2.6023 -4.0033,0.473 z m -89.6981,-24.4555 c -6.1282,-3.7366 -7.9123,-10.9735 -4.3959,-17.8304 3.5776,-6.9763 9.0969,-10.253 9.0975,-5.4011 10e-5,0.93 -0.9922,4.4586 -2.2053,7.8412 -2.5585,7.1348 -2.0724,8.3509 4.0746,10.1925 4.9809,1.4923 6.8639,3.5687 5.1305,5.6573 -1.7464,2.1042 -7.8926,1.8629 -11.7014,-0.4595 z m -4.3076,-93.7905 c -0.01,-0.9625 1.4575,-2.9544 3.25,-4.4263 l 3.259,-2.6763 0.3385,-11.0737 c 0.2619,-8.5705 0.6496,-11.0737 1.7148,-11.0737 2.5761,0 3.7777,4.2955 3.5793,12.796 -0.2095,8.9761 -2.2162,15.6432 -5.1871,17.2332 -3.0503,1.6324 -6.9443,1.1961 -6.9545,-0.7792 z m 10.4968,-81.53546 c -5.2508,-3.16934 -12.4878,-9.0274 -12.4878,-10.10837 0,-1.76324 2.1333,-3.60619 4.1743,-3.60619 0.9759,0 2.444,1.29489 3.2624,2.87753 0.8184,1.58263 3.8674,4.94666 6.7757,7.4756 4.7771,4.15415 5.0462,4.59702 2.7876,4.58704 -1.375,-0.006 -3.4055,-0.55759 -4.5122,-1.22561 z m -9.1817,-40.35917 c -0.653,-1.70169 1.9839,-4.35539 4.3279,-4.35539 2.4273,0 8.0433,-4.03058 9.4032,-6.74865 3.1911,-6.37804 5.9628,-7.58465 5.9628,-2.59578 0,2.72718 -6.2359,10.54045 -10.8317,13.57145 -3.398,2.24104 -8.0257,2.30808 -8.8622,0.12837 z m -278.6291,25.4589 c 6.5879,-2.42209 15.3714,-11.57186 20.527,-21.38286 13.6302,-25.93849 12.8052,-64.90703 -1.9357,-91.43143 -4.7833,-8.60683 -15.1838,-19.32232 -21.9834,-22.64902 -23.2475,-11.37397 -47.5945,7.49227 -54.6763,42.36821 -1.6723,8.23529 -2.8929,20.28081 -2.0551,20.28081 0.335,0 10.6172,-2.25 22.8492,-5 12.2321,-2.75 23.142,-5 24.2444,-5 6.7834,0 11.0902,17.44317 4.9579,20.08024 -1.1578,0.49785 -12.5881,3.32908 -25.4008,6.29162 -12.8127,2.96253 -23.5832,5.67383 -23.9345,6.0251 -0.8954,0.89539 1.5136,9.80258 4.8193,17.81878 7.6564,18.56715 22.0951,32.55456 35.8426,34.7224 5.6576,0.89214 10.0614,0.3336 16.7454,-2.12385 z m 25.5364,-12.71362 c 7.8226,-7.34074 12.1353,-14.41582 16.4257,-26.94685 9.7653,-28.52155 3.9288,-67.2465 -13.358,-88.63107 -9.2472,-11.43914 -18.4201,-16.53591 -29.7092,-16.50744 -7.3392,0.0185 -10.4393,1.41179 -5.2905,2.37771 8.434,1.58222 20.2422,12.02531 27.9113,24.68452 10.1011,16.67366 13.2963,30.05846 13.2305,55.42246 -0.043,16.64171 -0.2505,18.66462 -2.7472,26.80747 -3.0689,10.00874 -6.3974,17.0664 -11.2917,23.94253 -1.8595,2.6125 -2.9482,4.75 -2.4192,4.75 0.5289,0 3.7907,-2.6547 7.2483,-5.89933 z m -101.8083,-42.69354 c 0.6975,-2.31729 -2.9092,-7.83167 -4.4852,-6.85764 -1.4724,0.91002 -1.063,5.80121 0.6958,8.31227 1.698,2.42414 2.7427,2.02309 3.7894,-1.45463 z m 38.8449,-5.64738 26.75,-6.11511 0,-3.63119 c 0,-1.99715 -0.5715,-4.41281 -1.2701,-5.36811 -1.1869,-1.6233 -3.2415,-1.29063 -31.405,5.08489 l -30.135,6.82183 1.3696,2.47397 c 0.7533,1.36068 1.3856,3.74722 1.4051,5.30343 0.042,3.36693 -3.6501,3.87382 33.2854,-4.56971 z m 235.9134,-3.14192 c 2.0149,-0.96993 5.9524,-4.3952 8.75,-7.61172 4.4229,-5.08513 5.088,-6.41304 5.0976,-10.17715 0.034,-13.16943 2.9698,-17.03522 14.3312,-18.86803 l 7.7348,-1.24775 6.9524,-9.53239 c 3.8238,-5.24282 6.7815,-9.70325 6.5727,-9.91207 -0.2089,-0.20883 -11.3978,2.18853 -24.8643,5.32746 l -24.4846,5.70715 -0.6139,5.87341 c -0.7582,7.25444 -2.7744,11.30384 -6.9378,13.93458 -2.763,1.74582 -4.2611,1.94214 -10.9386,1.43345 -7.0646,-0.53818 -8.6726,-0.27755 -18.5,2.99849 -5.9196,1.97335 -11.7596,4.23339 -12.9777,5.02232 -2.6685,1.72827 -6.628,1.84775 -9.6009,0.28973 -4.109,-2.15335 -9.937,-7.22251 -11.771,-10.23822 l -1.8327,-3.01377 -3.1987,6.83543 c -2.3502,5.02218 -2.938,7.2633 -2.216,8.44834 1.6299,2.67489 13.0872,8.28012 26.3341,12.88336 l 12.5,4.34368 18,-0.36639 c 14.6082,-0.29735 18.6903,-0.6987 21.6634,-2.12991 z m 58.7405,-13.08115 c 16.9306,-4.88545 19.6019,-6.22009 29.7869,-14.88256 4.8699,-4.14188 10.0731,-7.99406 11.5627,-8.56039 3.394,-1.29042 2.9723,-2.61245 -3.3341,-10.45138 -4.8968,-6.08683 -5.9194,-8.89698 -5.9194,-16.26735 0,-2.40625 -0.2028,-4.375 -0.4506,-4.375 -0.2478,0 -7.1595,1.59861 -15.3593,3.55247 l -14.9088,3.55246 -4.5021,6.69754 c -2.4762,3.68364 -6.5551,9.92091 -9.0643,13.8606 -5.1621,8.10514 -10.246,11.74782 -17.9649,12.87214 -2.6125,0.38053 -4.782,0.75328 -4.8211,0.82833 -0.039,0.075 -0.39,3.64027 -0.7797,7.92271 -0.6651,7.30919 -0.5841,7.81229 1.3212,8.21107 1.1163,0.23365 2.9296,0.64491 4.0296,0.91392 5.1278,1.25405 18.5648,-0.45832 30.4039,-3.87456 z m -174.8468,-11.61417 c 16.7436,-3.89263 35.1087,-8.14588 40.8112,-9.45167 5.7026,-1.3058 10.5942,-2.59997 10.8701,-2.87594 0.7472,-0.74712 -0.452,-4.82203 -2.0699,-7.03406 -1.3838,-1.89203 -2.3751,-1.72514 -40.7934,6.86781 -21.6563,4.84384 -39.7483,9.14967 -40.2045,9.56852 -0.6642,0.60997 0.04,10.00283 0.7501,10.00283 0.1064,0 13.8928,-3.18487 30.6364,-7.07749 z m 65.7885,2.22592 c 1.4599,-1.01837 4.215,-2.15174 6.1225,-2.51862 1.9074,-0.36687 6.2827,-1.79306 9.7228,-3.16932 6.6516,-2.66106 11.236,-3.16078 17.9831,-1.96024 3.6553,0.65041 4.4841,0.43255 6.6699,-1.75322 3.3955,-3.39555 4.2786,-10.10388 2.6604,-20.21035 -1.3075,-8.16565 -3.1698,-12.29195 -20.9369,-46.38993 -7.356,-14.11726 -9.2151,-22.73057 -10.0684,-46.64674 -0.833,-23.347118 -1.2156,-24.729778 -11.2796,-40.761608 -3.5861,-5.71272 -8.3551,-14.03597 -10.5976,-18.49612 l -4.0773,-8.10937 0.05,-13.31645 c 0.085,-22.85152 -4.0993,-48.10362 -10.1114,-61.01412 -1.0535,-2.26229 -1.7159,-2.60574 -4.1042,-2.12808 -4.6157,0.92315 -4.6159,-1.7891 -6e-4,-10.79069 3.3111,-6.45771 4.1219,-9.08965 4.1219,-13.37955 0,-6.23165 0.6872,-8.50401 2.5718,-8.50401 3.5339,0 4.5018,9.37681 1.9555,18.94471 -0.9428,3.54265 -1.1126,5.85007 -0.486,6.60509 0.5297,0.6382 1.6054,2.91308 2.3904,5.05529 0.7851,2.1422 1.4591,3.33241 1.4978,2.64491 0.1228,-2.17851 1.8288,-1.3492 2.4686,1.20003 1.0293,4.10113 11.1802,14.22349 16.1773,16.13192 9.5879,3.66166 31.9645,-0.64114 48.9246,-9.40776 9.619,-4.97198 18.03,-13.40666 19.1972,-19.25111 1.2498,-6.25801 -0.032,-13.9047 -3.6142,-21.55943 -1.6957,-3.62351 -3.083,-7.44805 -3.083,-8.49898 0,-3.73182 4.9341,1.05448 8.6083,8.35035 4.3738,8.68525 5.5682,14.72614 4.2084,21.28498 -2.3896,11.52658 -8.9987,17.62387 -30.3167,27.96908 -17.6747,8.57719 -21.4723,9.68332 -33.0304,9.62068 -11.434,-0.062 -14.4674,-1.24183 -20.9152,-8.13504 -2.5049,-2.67797 -4.5544,-4.75871 -4.5544,-4.62387 0,2.23376 3.0703,23.97385 3.4792,24.63547 0.7633,1.23509 8.8337,2.38653 11.2816,1.6096 1.7742,-0.56312 1.5955,-0.9843 -1.9013,-4.48108 -3.9166,-3.91666 -4.7917,-6.4007 -2.7083,-7.6883 0.6676,-0.41257 2.0008,0.45476 3.1734,2.06444 2.3981,3.29219 7.2778,5.52902 12.0615,5.52902 4.4103,0 6.6139,0.85687 6.6139,2.57181 0,1.96402 -3.6308,3.60991 -7.3167,3.31671 -1.7508,-0.13927 -5.378,0.7288397 -8.0604,1.9291297 -2.6824,1.20029 -6.6199,2.18235 -8.75,2.18235 -3.5991,0 -3.8729,0.20323 -3.8729,2.8750001 0,1.58125 0.2909,4.3294392 0.6464,6.1070792 0.6097,3.048351 0.8441,3.200001 4.1239,2.667771 4.6503,-0.75464 4.7672,-1.00382 2.1388,-4.558941 -5.2303,-7.0743793 2.8425,-4.0045392 12.0465,4.580891 4.5838,4.27579 5.3178,5.40191 4.2363,6.5 -1.0858,1.10251 -2.1053,0.88803 -6,-1.26216 -4.6867,-2.58746 -4.6964,-2.58833 -8.6919,-0.77622 -2.2,0.99777 -5.0125,1.82593 -6.25,1.84036 -2.0455,0.0238 -2.25,0.50536 -2.25,5.29923 0,4.61043 0.7763,6.65231 6.1779,16.25 19.4808,34.61424 18.5373,32.48108 19.4997,44.08388 l 0.5894,7.10689 10.6165,0.64906 c 43.0043,2.62917 56.9262,1.9342 70.719,-3.5302 l 5.8975,-2.33647 0.5097,-5.05693 c 0.497,-4.92993 3.1116,-10.43924 4.9543,-10.43924 1.4289,0 2.1853,1.78971 1.0523,2.48992 -1.2408,0.76686 -1.3684,9.51008 -0.1387,9.51008 2.7117,0 3.522,-3.6247 3.653,-16.34048 0.074,-7.23774 0.4625,-18.55952 0.8623,-25.15952 l 0.7268,-12 -4.1497,4.5 c -2.2824,2.475 -4.7903,5.9625 -5.5733,7.75 -1.2344,2.8182 -1.9114,3.25 -5.0957,3.25 -4.5578,0 -8.301,-3.20847 -8.301,-7.1153 0,-3.46724 2.0101,-4.86904 3.4381,-2.39774 0.5841,1.01065 1.8836,2.69872 2.8879,3.75127 1.7874,1.87335 1.8905,1.8119 4.8835,-2.91225 1.6817,-2.65429 4.9993,-7.30098 7.3725,-10.32598 4.8223,-6.14675 6.8602,-10.47112 7.8944,-16.752511 0.5997,-3.6421192 0.4719,-4.1648992 -0.8903,-3.6421492 -2.8068,1.0770602 -6.611,-0.56243 -7.8497,-3.38293 -1.7677,-4.0248001 -2.6088,-4.3383601 -9.8317,-3.6651901 l -6.5952,0.6146901 -1.6548,-3.4870898 c -1.9582,-4.12662 -2.1034,-6.83612 -0.4547,-8.48482 1.8671,-1.86706 2.5576,-1.46459 3.7652,2.19455 1.2682,3.84281 2.9797,4.5715 10.7848,4.5918 5.3372,0.0139 7.2482,1.09874 9.8546,5.5944898 1.7808,3.07162 4.3938,0.13174 4.4025,-4.9532798 0,-2.27016 0.6479,-8.39599 1.4312,-13.61295 1.394,-9.28419 1.4193,-12.29193 0.067,-8.03269 -0.8738,2.75329 -4.9786,4.37055 -7.5712,2.98304 -1.064,-0.56943 -1.9345,-1.49605 -1.9345,-2.05916 0,-0.56311 0.4407,-0.75147 0.9793,-0.41857 1.8741,1.15821 4.9398,-1.53459 5.962,-5.23673 0.7942,-2.87651 0.6584,-5.04588 -0.5957,-9.51548 -1.7663,-6.29523 -1.3273,-7.82917 1.6999,-5.93869 2.1697,1.35503 2.7141,-0.0484 1.0426,-2.68805 -0.7256,-1.14578 -1.4209,-1.00752 -3.9345,0.78233 -9.1297,6.50093 -23.5408,9.78686 -31.4599,7.17331 -4.3851,-1.44722 -9.9897,-7.96698 -8.6759,-10.09268 0.7198,-1.16476 1.3266,-0.99629 3.3886,0.94084 3.5797,3.36291 11.094,5.10987 17.1294,3.98232 9.4204,-1.7599 21.2701,-9.48768 25.1473,-16.39973 2.4159,-4.3069 4.8029,-16.17202 4.048,-20.12123 l -0.4743,-2.4808 2.3716,2.228 c 1.9594,1.84076 2.3716,3.22219 2.3716,7.94834 0,5.79696 -3.2437,18.34559 -5.0271,19.44779 -1.3593,0.84007 -1.2156,5.54751 0.5212,17.07036 1.9594,12.99993 1.8888,17.90503 -0.4297,29.85498 l -1.9289,9.9421097 3.8318,4.5578901 c 6.0075,7.1456102 8.3758,9.0141802 14.6651,11.5703402 6.7419,2.7401 7.6108,4.84251 2.1879,5.29373 -4.6678,0.38839 -10.5852,-2.57078 -16.8399,-8.42126 -4.1812,-3.911081 -4.7949,-4.202261 -5.2432,-2.48782 -0.3241,1.23916 0.3351,2.67459 1.8219,3.96731 1.3198,1.14761 2.5946,3.67492 2.9409,5.83061 0.3362,2.09274 1.2816,5.32556 2.101,7.18406 1.3723,3.11256 1.5931,3.23777 2.7998,1.58752 1.7133,-2.34314 4.6046,-1.23757 4.5818,1.75202 -0.01,1.25476 -0.6346,5.20638 -1.389,8.78138 -1.5862,7.51625 -0.7256,20.79279 1.802,27.80019 0.8531,2.3651 5.3585,10.4651 10.012,18 11.63,18.831308 15.7013,27.687758 16.3304,35.524068 0.647,8.0603 -0.3941,10.0868 -11.2768,21.95028 -4.6537,5.07306 -8.4543,9.44913 -8.4459,9.7246 0.01,0.27547 0.4021,1.11121 0.8748,1.8572 0.7109,1.122 1.4944,1.05501 4.5347,-0.3877 5.9606,-2.82847 10.6046,0.5288 12.1071,8.75241 0.5914,3.23696 0.3083,4.08864 -2.176,6.54643 -1.829,1.80946 -4.9073,3.3117 -8.5611,4.1779 l -5.7051,1.35253 3.2051,4.47764 c 3.6178,5.05405 9.1503,9.22444 12.2373,9.22444 2.4761,0 4.4679,-1.79057 4.4679,-4.01654 0,-1.1975 1.7497,-1.96184 6.75,-2.9486 5.9797,-1.18003 7.2816,-1.87848 11.4078,-6.12008 3.2396,-3.33014 5.9799,-5.12861 9,-5.90657 13.7791,-3.54944 16.8499,-5.34282 16.8309,-9.82964 -0.02,-4.78529 -7.9531,-30.42985 -12.4287,-40.17857 -6.1511,-13.39808 -7.0891,-18.10862 -6.793,-34.112658 0.4145,-22.40198 -1.9395,-30.92436 -14.8594,-53.79582 -4.0742,-7.21237 -8.1866,-14.55689 -9.1387,-16.32116 -1.4489,-2.68475 -1.7094,-5.740051 -1.5979,-18.73905 0.1303,-15.19428 0.062,-15.7266 -3.1345,-24.5313 -1.7972,-4.95 -5.0156,-12.47751 -7.1521,-16.7278 -3.8235,-7.60667 -3.8845,-7.90449 -3.8919,-19 -0.016,-24.63108 -6.321,-44.579362 -16.5576,-52.391102 -3.2466,-2.47755 -4.6271,-2.86978 -9.8552,-2.80019 -3.3438,0.0445 -7.8797,0.39963 -10.0797,0.78917 -2.6506,0.46932 -4.7122,0.27335 -6.1111,-0.58092 -8.2892,-5.06189 -12.9876,-6.8869 -20.1204,-7.81529 -7.0374,-0.91596 -20.117,-4.98478 -22.8623,-7.11202 -0.7211,-0.55874 -1.4916,0.47997 -2.2611,3.04812 -1.5118,5.04585 -4.3911,8.59332 -6.3613,7.83729 -1.3496,-0.51787 -1.3133,-1.22151 0.311,-6.03275 1.0113,-2.99558 2.1211,-7.21237 2.4662,-9.37065 l 0.6275,-3.92414 -9.8442,0.0401 c -9.7892,0.0399 -9.8975,0.0134 -19.3443,-4.7317 -5.225,-2.62451 -12.3543,-7.05625 -15.8429,-9.84833 l -6.3428,-5.0765 0.6316,-4.65167 c 0.3475,-2.55842 0.61,-6.56417 0.5835,-8.90167 -0.034,-2.9804 0.3661,-4.25 1.3387,-4.25 2.8759,0 3.9319,2.85597 3.2981,8.91958 -0.831,7.95048 0.4041,9.29793 14.9674,16.32874 16.7324,8.07798 26.5176,8.70253 34.2612,2.18674 3.594,-3.02414 9.8442,-15.78584 11.1794,-22.82602 1.2981,-6.84518 1.2619,-33.74512 -0.057,-41.99834 -1.6576,-10.37632 -5.6258,-21.69421 -9.9541,-28.39096 -7.3167,-11.32039 -17.8143,-16.61584 -33.0636,-16.67873 -12.1531,-0.0501 -17.8764,2.15762 -25.5875,9.87029 -8.0662,8.0678 -10.8493,14.82211 -10.8861,26.41891 -0.025,7.94885 0.1,8.42187 2.7236,10.33341 3.4469,2.5109 3.7809,5.40624 0.5,4.3351 -7.9231,-2.58675 -11.1047,0.20632 -10.4653,9.18714 0.3009,4.22596 1.0725,6.04413 4.169,9.82293 2.0898,2.5504 4.8223,5.02588 6.0721,5.50106 6.9972,2.66032 7.0548,11.63918 0.2366,36.85818 l -2.2624,8.36799 -9,8.0696 c -18.6575,16.72872 -21.4369,19.75991 -20.8427,22.73066 0.5195,2.59795 0.2551,2.79556 -6.4769,4.84035 -8.3268,2.52919 -19.6718,10.51368 -28.439,20.015132 -7.1599,7.75955 -8.3223,10.00206 -11.3297,21.85768 -3.1335,12.35235 -3.0451,15.60058 0.72,26.47548 3.0085,8.68936 3.1117,9.52218 2.6229,21.16025 -0.4666,11.10788 -0.3016,12.69672 1.9852,19.1148798 4.2481,11.9229802 11.7482,26.7671602 16.1681,32.0000002 5.4837,6.49225 6.6887,8.86596 7.942,15.6456 0.5699,3.08288 2.4055,7.76447 4.0791,10.40352 2.0539,3.23866 3.005,5.96071 2.9262,8.37458 -0.064,1.96696 0.3677,5.3763 0.9599,7.5763 0.5922,2.2 1.3631,6.925 1.7131,10.5 0.9296,9.495758 3.015,16.111478 6.8244,21.649328 1.8528,2.69355 3.7147,5.98741 4.1376,7.31969 0.4228,1.33228 5.1622,6.94677 10.5318,12.47664 l 9.7631,10.05433 3.1074,11.23357 c 4.0821,14.75681 4.0347,15.78092 -0.927,20.02795 -4.4522,3.81092 -6.8469,7.9299 -9.461,16.27359 l -1.7343,5.53512 3.4642,3.46488 c 5.6845,5.68558 6.1269,15.76329 0.7667,17.46455 -2.4463,0.77641 -2.5401,3.28455 -0.2289,6.12007 3.762,4.61533 8.71,5.57241 13.0734,2.5287 z m 50.5546,-137.051228 c -5.3418,-3.24853 -10.3341,-18.24732 -6.9957,-21.01789 2.5545,-2.12011 4.2593,0.23278 5.0163,6.92328 0.7232,6.39226 2.3963,8.39137 10.4221,12.4531 1.8386,0.93049 3.1886,1.82099 3,1.9789 -0.1886,0.15791 -2.1542,0.56386 -4.368,0.90212 -2.9782,0.45505 -4.8183,0.13266 -7.0747,-1.23951 z m 35.776,-13.32098 c -2.0711,-2.0711 -1.4125,-8.20562 1.1383,-10.6019 4.498,-4.22573 5.5788,-2.60739 3.5744,5.35263 -1.2923,5.13239 -2.9657,6.99626 -4.7127,5.24927 z m -127.475,-8.40831 c -1.1909,-1.19091 -0.7733,-7.06319 0.5823,-8.18825 2.2149,-1.83821 3.8783,0.23834 3.5357,4.41382 -0.3044,3.71021 -2.3277,5.56468 -4.118,3.77443 z m 89.0614,-3.93329 c -2.9853,-1.61977 -5.7626,-6.14295 -5.7626,-9.38495 0,-3.05059 1.5929,-2.50607 5.5804,1.90764 1.9663,2.17652 4.4402,4.23184 5.4974,4.56739 2.3247,0.73783 2.5264,3.0295 0.3404,3.86832 -2.1323,0.81827 -2.4943,0.75694 -5.6556,-0.9584 z m -4.5656,-14.52112 c -3.9962,-2.93881 -5.1901,-5.18169 -3.3603,-6.31256 0.4602,-0.28441 2.9681,0.61755 5.5732,2.00435 4.9706,2.64602 10.5901,2.60476 10.5901,-0.0777 0,-2.71179 7.0877,-3.34546 16.012,-1.43155 6.1687,1.32296 9.2266,0.31659 13.9988,-4.60709 l 3.2733,-3.37722 -0.6451,-8.30584 c -0.6648,-8.5593 0.095,-12.086071 2.069,-9.60316 3.8542,4.84798 4.2428,18.66163 0.6627,23.56077 -3.4072,4.66257 -8.1087,6.28237 -19.4245,6.69231 -8.4198,0.30504 -10.7167,0.73777 -13.0424,2.45724 -4.3416,3.20992 -10.5173,2.81693 -15.7068,-0.9995 z m -39.0497,-0.44301 c -3.0804,-2.59197 -6.8378,-11.54428 -5.6511,-13.46432 0.9098,-1.47214 2.2188,-0.41782 5.0505,4.06779 1.3561,2.14821 4.1948,5.05012 6.3082,6.44871 3.2228,2.13276 4.2806,2.37631 6.5589,1.51011 3.5576,-1.3526 3.5862,-1.34575 3.5862,0.86024 0,2.37852 -1.8769,3.10699 -8.0051,3.10699 -3.7203,0 -5.5376,-0.58575 -7.8476,-2.52952 z m -52.4834,-4.94941 c -1.8216,-1.82159 -2.4254,-4.99625 -2.9557,-15.54072 -0.2081,-4.13581 -1.0191,-8.85671 -1.8023,-10.49089 -1.8776,-3.917401 -6.093,-5.9949 -9.0035,-4.437251 -1.6955,0.90744 -2.449,0.82973 -3.6558,-0.37705 -2.5873,-2.587289 -0.8116,-4.6755992 3.972,-4.6714192 8.7342,0.008 15.1279,7.0038602 16.1454,17.6670002 0.3238,3.39391 1.31,7.97334 2.1916,10.17652 2.0568,5.14042 1.6061,8.55834 -1.1809,8.95596 -1.169,0.16677 -2.8388,-0.4102 -3.7108,-1.28215 z m 71.3366,-8.64452 c -3.534,-1.40923 -7.0005,-4.9006 -7.0005,-7.05086 0,-2.42134 1.3116,-2.30298 6.3219,0.57047 7.1152,4.0806 8.1292,4.0945 12.4721,0.17101 2.1497,-1.94218 4.2005,-3.23931 4.5573,-2.88253 1.4592,1.45916 0.5103,6.0968 -1.6657,8.14105 -2.5449,2.39078 -9.9889,2.92347 -14.6851,1.05086 z m 12.4569,-14.73947 c -3.1066,-1.89448 -8.4574,-7.646341 -8.4574,-9.09136 0,-1.5292402 2.7556,-3.0767502 4.3733,-2.4559802 0.8947,0.34333 1.6267,1.6689502 1.6267,2.9458202 0,1.276869 0.7442,3.065819 1.6539,3.97544 2.5027,2.50275 7.4339,1.15233 18.3461,-5.02414 11.3405,-6.4188703 13.0054,-7.0809702 21.5457,-8.5682103 8.0724,-1.4057497 9.9813,-3.2367897 10.8208,-10.3797697 0.4922,-4.18804 0.1594,-6.59985 -1.5143,-10.97351 -2.3642,-6.17788 -1.7767,-8.41695 1.1938,-4.55043 5.1855,6.74956 6.4843,16.12006 3.3278,24.00889 -2.0073,5.0167697 -6.3983,7.4458898 -15.0191,8.3086198 -7.3354,0.7341 -10.7938,2.1626202 -12.8563,5.3103892 -0.8414,1.284021 -3.8852,3.685451 -6.7641,5.336491 -6.3085,3.61796 -13.496,4.07325 -18.2769,1.15775 z m 7.7718,-18.3078903 c -1.3691,-1.3690597 -1.6146,-5.6745897 -0.4299,-7.5386897 0.4228,-0.66522 3.2284,-2.30418 6.2347,-3.64213 6.3508,-2.82641 8.7965,-5.25229 12.2476,-12.14837 4.3257,-8.64372 9.2164,-11.25593 14.0117,-7.48394 1.4887,1.171 2.7067,2.54644 2.7067,3.05652 0,1.28136 -3.6904,1.16349 -6.2366,-0.19919 -2.6286,-1.40679 -4.2377,0.4487 -5.1145,5.89753 -0.8724,5.4213 -5.6512,10.66944 -11.6939,12.84237 -5.86,2.10722 -7.341,3.54971 -7.4073,7.21457 -0.053,2.9052197 -2.3499,3.9698897 -4.3185,2.0013297 z m 43.3858,-26.2940097 c -2.7894,-4.25722 -1.8691,-5.79888 1.803,-3.02032 2.2,1.66473 4.582,0.39771 4.582,-2.4373 0,-6.04294 8.2208,-4.91243 15.6723,2.15521 5.0725,4.81125 3.1032,6.33381 -2.8742,2.22212 -5.6851,-3.91069 -7.7981,-4.32426 -7.7981,-1.52632 0,5.17086 -8.4389,7.10295 -11.385,2.60661 z m -156.5904,-4.16796 c -3.0991,-2.60769 -3.8282,-6.28186 -1.4047,-7.07885 1.5715,-0.51682 9.8016,5.94614 10.1989,8.00902 0.5322,2.76387 -5.1138,2.16669 -8.7942,-0.93017 z m 49.4754,-59.938722 c -3.7374,-2.56329 -5.7792,-3.32546 -8.0858,-3.01837 -4.1708,0.5553 -5.6381,-0.56902 -5.2443,-4.01864 0.4546,-3.98214 4.2205,-4.27502 11.5896,-0.90133 7.0035,3.20631 10.2405,6.10941 10.2405,9.184152 0,3.25477 -2.4645,2.89355 -8.5,-1.245812 z m 12.75,-14.67526 c -3.2693,-1.04877 -4.3235,-3.15204 -2,-3.99015 0.6875,-0.24799 3.95,-0.53439 7.25,-0.63645 8.5911,-0.2657 26.6627,-2.09673 36,-3.64754 l 8,-1.3287 7.3361,3.41641 c 4.4648,2.07922 7.1722,3.90894 6.9172,4.67479 -0.7437,2.23358 -3.816,2.00339 -9.9396,-0.74472 l -5.989,-2.68774 -20.3286,3.09543 c -22.0684,3.36034 -22.4525,3.3864 -27.2461,1.84867 z m 70.2628,-1.73258 c -0.8842,-1.43057 0.9308,-4.32496 4.894,-7.8047 2.7077,-2.37738 4.7757,-3.19855 9.2882,-3.68815 3.1928,-0.34641 7.4925,-0.87143 9.555,-1.16672 2.9508,-0.42247 3.75,-0.20669 3.75,1.01246 0,1.6415 -3.918,2.95154 -12.2524,4.09671 -3.9563,0.54361 -5.2826,1.31274 -7.9174,4.59136 -3.0484,3.79338 -6.0513,5.00768 -7.3174,2.95904 z m -42.4891,-19.65415 c -6.1367,-5.1637 -11.7294,-20.36652 -7.4923,-20.36652 0.8423,0 1.6927,0.5625 1.8898,1.25 2.1575,7.52465 4.4199,11.59715 8.7224,15.70088 2.671,2.54762 4.8564,4.95088 4.8564,5.34058 0,1.71264 -5.1224,0.47645 -7.9763,-1.92494 z m 277.5482,332.96598 c 11.2501,-3.80663 23.4412,-20.77972 28.6101,-39.8325 3.1875,-11.74892 3.1465,-37.1397 -0.081,-50 -5.3354,-21.261938 -17.3749,-39.063278 -30.9341,-45.738468 -5.6992,-2.80567 -7.6763,-3.26152 -14.1462,-3.26152 -6.2093,0 -8.5133,0.48731 -13.2111,2.79424 -15.0985,7.41443 -26.5171,28.725118 -29.0682,54.250158 -0.6262,6.26565 -0.8605,11.67007 -0.5208,12.00982 0.3398,0.33976 11.2018,-1.89596 24.1379,-4.96825 12.936,-3.07229 24.4819,-5.58598 25.6576,-5.58598 1.1756,0 3.5089,1.37149 5.1852,3.04775 2.7275,2.72751 2.994,3.5247 2.5361,7.58696 -0.2814,2.49657 -0.9557,4.98333 -1.4985,5.52613 -0.5428,0.5428 -12.6312,3.69305 -26.8631,7.00056 -14.2318,3.3075 -26.087,6.22267 -26.3448,6.47816 -0.9861,0.97731 3.2116,14.20842 6.9355,21.86044 6.6671,13.69984 17.8765,25.47206 27.5332,28.91569 5.5225,1.96933 16.1239,1.92937 22.0719,-0.0832 z m 28.765,-15.32966 c 6.9029,-7.45602 12.7444,-19.0947 15.8112,-31.50284 4.3669,-17.66856 2.7811,-42.91204 -3.8007,-60.49999 -8.8957,-23.771058 -28.1996,-39.966148 -44.5261,-37.355428 l -4.1393,0.66189 4.909,1.9228 c 11.456,4.48719 21.2038,14.74971 29.337,30.88596 7.5255,14.930468 9.5794,25.163378 9.5109,47.384768 -0.047,15.3189 -0.3808,19.17345 -2.2391,25.87816 -2.6409,9.52819 -7.9516,20.83346 -12.7233,27.08464 l -3.5194,4.61077 2.8604,-1.47919 c 1.5732,-0.81355 5.407,-4.22975 8.5194,-7.59154 z m -229.8369,-6.95242 c 66.0574,-15.61181 61.9608,-14.5125 62.294,-16.71628 0.1617,-1.06947 -0.6427,-2.79224 -1.7876,-3.82839 -2.0464,-1.85196 -2.4073,-1.81286 -21.2941,2.30736 -21.2368,4.63291 -86.0239,19.44739 -86.5373,19.78798 -0.1788,0.11858 -0.016,2.27776 0.3622,4.79816 0.6043,4.03012 0.9449,4.52195 2.825,4.07993 1.1758,-0.27643 21.0378,-4.96938 44.1378,-10.42876 z m -106.4671,-17.23286 c 1.6319,-1.20652 2.9671,-2.99239 2.9671,-3.9686 0,-4.11888 -7.8883,-19.84896 -9.9539,-19.84896 -0.3784,0 -1.1856,8.4375 -1.7938,18.75 -0.6081,10.3125 -1.4032,19.875 -1.7669,21.25 -0.3636,1.375 1.1932,-1.20997 3.4596,-5.74438 2.3725,-4.74657 5.3796,-9.17509 7.0879,-10.43806 z m 69.9671,10.7071 5.5,-1.37772 -7.9481,0.086 c -6.499,0.0703 -8.1399,-0.22722 -9,-1.63204 -0.8173,-1.33483 -0.6189,-2.03957 0.8892,-3.15948 1.5469,-1.14866 6.2385,-1.44143 23.0986,-1.44143 22.674,0 21.9693,0.0976 54.2103,-7.51222 9.4676,-2.23464 11.25,-2.9572 11.25,-4.56054 0,-1.04786 -2.5568,-7.04178 -5.6819,-13.31983 -5.5647,-11.17918 -5.7163,-11.37021 -7.3509,-9.26102 -3.5852,4.62612 -4.4854,7.46316 -4.9672,15.65361 -0.4863,8.26667 -0.5686,8.5 -3,8.5 -2.136,0 -2.5416,-0.5096 -2.786,-3.5 -0.3402,-4.16364 3.6715,-16.43603 7.4838,-22.89415 3.0054,-5.09116 3.0296,-7.18632 0.1669,-14.44903 -1.5342,-3.89243 -1.7937,-6.16239 -1.2518,-10.95206 l 0.6836,-6.04194 -4.4634,3.20538 c -5.4132,3.88743 -16.1057,7.62184 -28.2791,9.87656 -7.0921,1.31359 -14.6376,1.65527 -34.8225,1.57687 -14.1727,-0.0551 -27.7852,-0.40251 -30.25,-0.77213 l -4.4815,-0.67204 0,3.18463 c 0,4.04947 5.9573,21.92933 9.926,29.79123 1.6687,3.30569 5.5112,10.09568 8.5389,15.08887 3.0278,4.99319 6.4388,10.90886 7.5801,13.14593 2.3168,4.54131 2.4929,4.55823 14.955,1.43655 z m -7.3333,-10.19133 c -3.658,-3.65797 6.7073,-11.80538 22.6466,-17.80098 3.7474,-1.40956 9.1344,-3.73898 11.9712,-5.1765 2.8368,-1.43752 6.7458,-3.19896 8.6867,-3.9143 l 3.5288,-1.30063 -3.0501,-0.0705 c -5.8573,-0.13531 -29.9965,1.93674 -35.6937,3.06385 -3.2355,0.64012 -8.0243,2.60561 -10.9662,4.50101 -2.8724,1.85057 -5.4627,3.35779 -5.7563,3.34937 -1.7597,-0.0505 -3.1618,-2.03847 -2.8712,-4.07075 0.9984,-6.98079 26.9792,-12.86868 56.8375,-12.88076 17.2005,-0.007 19,0.33382 19,3.59815 0,2.99405 -4.4533,5.87124 -11.3901,7.35892 -2.7466,0.58902 -8.3949,2.59463 -12.5518,4.4569 -4.157,1.86228 -11.2174,4.78569 -15.6898,6.49647 -4.4725,1.71079 -11.3183,5.34834 -15.2129,8.08345 -7.1337,5.00982 -8.2697,5.52533 -9.4887,4.30626 z m 201.8333,-20.40907 c 19.25,-4.48137 35.3306,-8.66011 35.7347,-9.2861 1.1837,-1.83376 0.8875,-3.21758 -1.0673,-4.98664 -1.7185,-1.55525 -4.0656,-1.12619 -37.7166,6.895 -19.7363,4.7044 -35.9477,8.64346 -36.0255,8.75347 -0.078,0.11 0.071,1.90168 0.3297,3.98151 0.3644,2.92494 0.842,3.66928 2.1081,3.2861 0.9003,-0.27247 17.3869,-4.16197 36.6369,-8.64334 z M 1526.8374,132.8906 c 6.1491,-5.855 7.3979,-8.76493 6.616,-15.41758 -0.8708,-7.40906 -3.9876,-13.92372 -11.5253,-24.089778 -11.6109,-15.65954 -15.4185,-25.47801 -17.2138,-44.38773 -0.8996,-9.47567 -1.5968,-12.63011 -3.3687,-15.24114 -1.2289,-1.81086 -2.5259,-5.22101 -2.8824,-7.57811 -1.2421,-8.21371 -2.6407,-7.72806 -2.0573,0.71435 0.3462,5.00912 -0.1487,13.96708 -1.3236,23.96072 -2.1363,18.17115 -1.6555,23.36133 2.4109,26.02577 2.7112,1.77642 2.5786,0.50176 2.3423,22.513498 -0.088,8.15609 0.3448,10.84391 3.056,19 1.7369,5.225 5.1375,13.71034 7.5569,18.85632 l 4.399,9.35632 3.8945,-4.85632 c 2.142,-2.67098 5.7849,-6.65632 8.0955,-8.85632 z m 214.8551,-16.39539 c 17.2182,-4.18323 18.181,-4.52963 18.181,-6.54118 0,-3.7067 -4.9462,-3.14593 -34.75,3.93975 -1.7105,0.40666 -2.25,1.24968 -2.25,3.51587 0,1.88106 0.5139,2.98095 1.3928,2.98095 0.766,0 8.6078,-1.75293 17.4262,-3.89539 z M 1466.668,104.53158 c 10.8179,-2.33143 16.4976,-5.34234 21.3847,-11.336248 3.3725,-4.13621 5.8208,-8.02927 5.8208,-9.25556 0,-0.32028 -2.2577,0.97067 -5.017,2.86878 -5.4631,3.75795 -12.3493,6.59754 -23.983,9.889588 -6.7089,1.89847 -9.7678,2.103 -29,1.93907 -11.825,-0.10079 -26.5829,-0.54258 -32.7953,-0.98177 l -11.2952,-0.79851 0.2952,4.51683 0.2953,4.51684 10,0.62163 c 5.5,0.3419 20.125,0.48683 32.5,0.32206 17.9049,-0.23839 24.3982,-0.70867 31.7945,-2.30271 z"
       id="path3016"
       inkscape:connector-curvature="0" />
  </g>
</svg>
