<?xml version="1.0" encoding="UTF-8" standalone="no"?>
<!-- Created with Inkscape (http://www.inkscape.org/) -->

<svg
   xmlns:dc="http://purl.org/dc/elements/1.1/"
   xmlns:cc="http://creativecommons.org/ns#"
   xmlns:rdf="http://www.w3.org/1999/02/22-rdf-syntax-ns#"
   xmlns:svg="http://www.w3.org/2000/svg"
   xmlns="http://www.w3.org/2000/svg"
   xmlns:xlink="http://www.w3.org/1999/xlink"
   xmlns:sodipodi="http://sodipodi.sourceforge.net/DTD/sodipodi-0.dtd"
   xmlns:inkscape="http://www.inkscape.org/namespaces/inkscape"
   width="781.93695"
   height="897.29553"
   id="svg2"
   version="1.1"
   inkscape:version="0.48.3.1 r9886"
   sodipodi:docname="Barbell-upright-rows-2.svg">
  <defs
     id="defs4">
    <radialGradient
       gradientUnits="userSpaceOnUse"
       gradientTransform="matrix(1,0,0,0.91819829,-19.285714,-7.9105395)"
       r="209.56604"
       fy="287.50052"
       fx="398.1105"
       cy="287.50052"
       cx="398.1105"
       id="radialGradient5255"
       xlink:href="#linearGradient5249"
       inkscape:collect="always" />
    <linearGradient
       id="linearGradient5249"
       inkscape:collect="always">
      <stop
         id="stop5251"
         offset="0"
         style="stop-color:#e3e3e3;stop-opacity:1;" />
      <stop
         id="stop5253"
         offset="1"
         style="stop-color:#e3e3e3;stop-opacity:0;" />
    </linearGradient>
  </defs>
  <sodipodi:namedview
     id="base"
     pagecolor="#ffffff"
     bordercolor="#666666"
     borderopacity="1.0"
     inkscape:pageopacity="0.0"
     inkscape:pageshadow="2"
     inkscape:zoom="0.35"
     inkscape:cx="-146.79503"
     inkscape:cy="94.850954"
     inkscape:document-units="px"
     inkscape:current-layer="layer1"
     showgrid="false"
     showguides="true"
     inkscape:guide-bbox="true"
     fit-margin-top="0"
     fit-margin-left="0"
     fit-margin-right="0"
     fit-margin-bottom="0"
     inkscape:window-width="1201"
     inkscape:window-height="886"
     inkscape:window-x="165"
     inkscape:window-y="74"
     inkscape:window-maximized="0">
    <sodipodi:guide
       orientation="-0.70710678,0.70710678"
       position="-2558.0874,589.02873"
       id="guide2985" />
  </sodipodi:namedview>
  <metadata
     id="metadata7">
    <rdf:RDF>
      <cc:Work
         rdf:about="">
        <dc:format>image/svg+xml</dc:format>
        <dc:type
           rdf:resource="http://purl.org/dc/dcmitype/StillImage" />
        <dc:title></dc:title>
      </cc:Work>
    </rdf:RDF>
  </metadata>
  <g
     inkscape:label="Ebene 1"
     inkscape:groupmode="layer"
     id="layer1"
     transform="translate(-1129.5159,281.61888)">
    <path
       style="fill:#000000"
       d="m 1434.1293,614.12677 c -5.7434,-2.72109 -19.8612,-13.6059 -21.2219,-16.362 -2.0435,-4.13938 -4.4494,-14.07761 -5.8919,-24.33844 -1.1909,-8.47102 -2.2589,-11.78981 -6.9852,-21.70596 -6.2075,-13.0235 -7.1898,-17.45212 -5.148,-23.20769 1.1995,-3.38101 1.1833,-4.65059 -0.1187,-9.32849 -1.2629,-4.53749 -1.3019,-6.17177 -0.2407,-10.08636 3.6173,-13.34284 2.5188,-25.59861 -4.909,-54.76891 -9.1817,-36.05773 -9.1724,-35.90977 -3.9343,-62.82965 2.6377,-13.5558 3.5142,-16.17392 9.5413,-28.5 6.0675,-12.4087 6.7546,-14.47359 8.0109,-24.07294 0.7558,-5.775 1.8293,-22.2 2.3855,-36.5 0.9097,-23.38823 1.974,-39.22709 3.6353,-54.10008 l 0.5697,-5.10009 -5.3795,-3.03601 c -8.2866,-4.67662 -8.4014,-4.94554 -5.9543,-13.94766 1.1509,-4.23379 1.8943,-7.89594 1.6522,-8.13811 -0.2422,-0.24217 -22.4441,3.7812 -49.3376,8.94082 l -48.8973,9.38113 -0.6408,11 c -0.7981,13.69931 -1.9582,20.90604 -5.1783,32.16782 -6.9391,24.2688 -21.1783,44.04249 -37.1698,51.61712 -6.1607,2.91814 -7.665,3.21506 -16.2876,3.21506 -8.6226,0 -10.1269,-0.29692 -16.2876,-3.21506 -7.8555,-3.72087 -17.0599,-12.00607 -22.9589,-20.66611 -7.7038,-11.30936 -15.2699,-30.54238 -17.2748,-43.91247 -0.5241,-3.49494 -1.1452,-4.70636 -2.4129,-4.70636 -0.9389,0 -10.6435,1.8 -21.5658,4 -10.9223,2.2 -20.8506,4 -22.063,4 -2.6379,0 -9.0963,-6.79447 -10.0428,-10.56538 -0.3611,-1.43869 -0.155,-4.28949 0.4578,-6.3351 2.0207,-6.7444 3.8169,-7.58907 24.648,-11.59051 10.45,-2.00734 21.0748,-4.0919 23.6107,-4.63235 l 4.6107,-0.98264 0.6985,-10.19701 c 1.7522,-25.57748 8.7888,-47.02448 21.0794,-64.24822 14.5207,-20.34902 35.5895,-27.08842 55.3942,-17.7193 15.8261,7.48691 31.8023,32.41888 37.4779,58.48662 1.1707,5.37711 2.5786,9.76294 3.1286,9.7463 2.899,-0.0877 104.5888,-19.71791 105.1736,-20.30269 1.0687,-1.06869 4.1678,-21.06871 4.9059,-31.65972 0.4746,-6.81128 0.1737,-12.84947 -1.0634,-21.33465 -1.0895,-7.47316 -1.4755,-13.83505 -1.0472,-17.26263 0.8531,-6.8283 6.0956,-17.35905 11.9634,-24.031233 4.5094,-5.1276 4.5104,-5.13022 5.184,-14.71283 l 0.6737,-9.58431 -4.645,-10.40631 c -2.5548,-5.72347 -4.645,-10.8606 -4.645,-11.41585 0,-0.55525 -1.3591,-1.5725 -3.0203,-2.26057 -4.9527,-2.0515 -7.919,-6.3814 -7.818,-11.4122 0.1515,-7.54767 -3.6965,-13.98891 -15.3015,-25.61369 -16.7283,-16.7567897 -21.938,-29.07249 -23.839,-56.35601 -0.999,-14.33748 -1.1808,-15.17672 -4.8992,-22.60572 -4.7386,-9.46757 -7.1367,-24.457873 -5.1297,-32.065237 2.4577,-9.315 11.9932,-21.59156 19.5077,-25.11521 2.2,-1.03161 7.9585,-4.7724 12.7966,-8.31287 4.8381,-3.54047 11.4097,-7.39002 14.6036,-8.55456 4.6257,-1.68663 7.331,-3.67743 13.2989,-9.78673 6.9188,-7.08272 7.6509,-8.24311 9.5708,-15.16939 4.109,-14.82337 5.7719,-24.31939 4.3422,-24.79595 -2.3472,-0.78241 -8.1655,-6.42136 -11.2473,-10.90057 -3.9716,-5.77243 -4.8662,-13.34881 -2.367,-20.04514 0.9768,-2.61709 2.3413,-5.43334 3.0323,-6.25834 0.7562,-0.90291 1.4108,-5.48057 1.6445,-11.5 0.3362,-8.66283 0.8098,-10.89902 3.5417,-16.72333 10.8951,-23.22765 37.3486,-31.13705 62.3266,-18.63517 9.0305,4.51991 13.8505,9.78225 19.484,21.27203 6.4615,13.17827 7.5951,20.02607 7.7954,47.08647 l 0.1777,24 -3.8637,8.73833 c -2.125,4.80608 -5.6662,10.78623 -7.8695,13.28921 -3.7403,4.24921 -3.8983,4.66967 -2.3841,6.34288 2.0587,2.27485 21.3307,6.5925 35.7028,7.99878 12.4202,1.21529 20.0687,3.81378 26.7344,9.08266 6.1911,4.89384 14.5288,15.38375 17.6552,22.21281 3.0537,6.67021 4.4869,18.918014 3.7927,32.411567 -0.5131,9.97221 -0.4707,10.2149 4.1069,23.50709 5.0977,14.80271 5.2456,16.2884 3.4422,34.59516 -1.4293,14.50956 -0.4384,20.5838103 6.1863,37.92115 2.2908,5.9952 5.9925,16.07537 8.226,22.40037 l 4.061,11.5 -0.035,15.5 c -0.021,9.1632 -0.6932,19.68778 -1.6451,25.74342 -2.1467,13.655833 -2.0458,16.948223 0.891,29.070283 2.5803,10.65063 3.0989,20.12996 1.5419,28.18629 -0.4783,2.475 -0.7067,4.66445 -0.5076,4.86544 0.3129,0.31589 134.8441,-25.79751 135.0358,-26.21136 0.039,-0.0847 0.5908,-5.56562 1.2256,-12.17973 2.6409,-27.514173 12.0092,-50.750963 26.7694,-66.397523 18.7451,-19.87083 44.1207,-19.87232 62.8638,-0.004 10.7996,11.44817 18.3098,25.99996 23.3649,45.272 l 2.7049,10.312323 19.9535,-4.254993 c 21.7497,-4.63801 22.2229,-4.62116 25.5963,0.911353 3.0915,5.07013 1.9391,14.93469 -1.8834,16.12211 -1.7778,0.55259 -40.7217,8.56438 -41.6284,8.56438 -0.2959,0 -0.538,4.32975 -0.538,9.62166 0,17.75267 -4.5627,40.26986 -10.9482,54.03011 -7.4572,16.06947 -19.4611,30.4815 -29.7171,35.67862 -15.086,7.64465 -33.0457,4.92767 -46.3204,-7.00746 -13.4569,-12.09886 -24.8506,-35.7524 -29.0572,-60.32293 -0.7062,-4.125 -1.3683,-7.62032 -1.4713,-7.76739 -0.1582,-0.22592 -124.6422,24.68993 -131.2358,26.26725 -1.9658,0.47026 -2.25,1.17706 -2.25,5.59612 0,4.2213 -0.469,5.52685 -2.8355,7.89335 -3.0267,3.02672 -11.3898,6.01067 -16.846,6.01067 -1.8252,0 -3.3185,0.20502 -3.3185,0.45559 0,0.25058 1.125,2.11337 2.5,4.13955 3.148,4.63889 3.1294,5.74032 -0.1486,8.77987 -2.9156,2.70349 -2.8963,1.54486 -0.3612,21.62499 0.5902,4.675 0.9885,15.7 0.8851,24.5 -0.1699,14.45998 0.044,16.72189 2.2183,23.5 2.2025,6.86453 2.3727,8.77094 2.0082,22.5 -0.8031,30.24945 -0.4562,49.61472 1.3725,76.62928 1.6726,24.70868 1.732,29.62404 0.5613,46.5 -0.7199,10.3789 -1.1261,22.02901 -0.9027,25.88914 0.3906,6.74698 0.6346,7.3271 6.3095,15 3.2467,4.38987 7.6647,10.37688 9.8178,13.30446 2.153,2.92759 6.4065,7.20259 9.4522,9.5 3.0457,2.29742 8.1785,6.48643 11.4063,9.30892 6.2984,5.50759 13.5002,8.69638 28.0036,12.39942 8.481,2.1654 16.1191,5.31713 17.7034,7.30498 0.5101,0.64009 1.2283,3.65463 1.596,6.69897 0.5778,4.78415 0.3553,5.99997 -1.64,8.96083 -2.8517,4.2316 -8.836,8.45552 -14.7817,10.43335 -6.4426,2.14313 -29.2005,3.00176 -43.4855,1.64067 -11.3382,-1.08032 -12.3104,-1.35149 -18,-5.02087 -11.4165,-7.36274 -12.1602,-7.54123 -30.4015,-7.29657 -18.7182,0.25106 -22.1638,-0.62947 -27.863,-7.12058 -2.832,-3.22545 -3.25,-4.41576 -3.25,-9.25364 0,-7.26459 2.7233,-29.38197 4.4793,-36.37836 2.168,-8.63813 4.5207,-26.37596 4.5207,-34.08287 0,-11.37407 -2.3474,-19.38032 -8.0387,-27.41713 -12.4898,-17.6371 -14.4058,-24.34646 -14.4219,-50.5 -0.01,-16.52204 0.3296,-21.05115 2.2243,-29.65708 3.0304,-13.76369 2.9103,-16.55032 -0.9789,-22.73232 -3.0812,-4.8975 -3.2388,-5.65266 -3.7798,-18.1106 l -0.5645,-13 -11.2843,-16.90967 c -6.2064,-9.30032 -12.4158,-19.14252 -13.7987,-21.87156 -1.5692,-3.09673 -2.8677,-4.60855 -3.4544,-4.0219 -1.1047,1.10477 -3.3329,13.69312 -4.9212,27.80313 -2.5279,22.4567 -7.5977,36.6132 -16.2998,45.51391 -2.3621,2.41603 -3.2488,4.58592 -4.2673,10.44293 -0.9977,5.73725 -3.2598,11.38571 -10.0997,25.21818 l -8.814,17.82498 0.4876,15 c 0.2682,8.25 0.482,21.3 0.4753,29 -0.012,13.53222 -0.1173,14.23389 -3.1548,21 -1.7283,3.85 -3.8361,9.7 -4.6839,13 -1.6483,6.41576 -5.6253,41.39554 -5.6253,49.47711 0,5.66907 4.4067,18.88801 10.1276,30.38011 6.9145,13.88975 22.0063,35.73233 31.7703,45.98169 12.3893,13.00507 13.2265,15.66712 8.2416,26.20412 -3.0193,6.38217 -6.0628,9.09438 -11.3938,10.15354 -1.7851,0.35467 -4.4387,1.91804 -5.8969,3.47414 -1.8999,2.02753 -3.6115,2.82929 -6.0399,2.82929 -1.8638,0 -5.9751,0.67367 -9.1362,1.49704 -3.1612,0.82338 -9.4432,1.74488 -13.9601,2.04778 -6.7724,0.45416 -8.9141,0.2184 -12.2126,-1.34438 z m 22.3534,-8.62462 c 2.0385,-1.05417 5.0217,-1.53521 8.4035,-1.35508 l 5.2431,0.27926 0,-5.5 c 0,-5.28518 0.1097,-5.51258 2.8096,-5.82218 2.3567,-0.27023 2.9996,0.18099 3.9877,2.79877 1.0025,2.6559 1.5523,3.02936 3.6903,2.50637 3.5446,-0.86707 4.7328,-2.33243 6.1152,-7.54201 1.8778,-7.07601 0.7148,-9.45472 -9.1864,-18.7896 -5.086,-4.79505 -10.5234,-11.06337 -12.6128,-14.54005 -2.0199,-3.36121 -6.3672,-10.14696 -9.6606,-15.07944 -6.8857,-10.31272 -14.4983,-25.91909 -18.3592,-37.63768 l -2.6688,-8.10045 1.6804,-10.64687 c 0.9242,-5.85577 1.9478,-15.82186 2.2748,-22.14686 0.7065,-13.67058 2.4247,-21.54044 7.2048,-33 3.2484,-7.7877 3.5796,-9.5056 3.9531,-20.5 0.2243,-6.6 0.04,-15.09704 -0.4102,-18.8823 l -0.8179,-6.88231 -3.1404,4.88231 c -4.0613,6.31381 -5.8135,11.66791 -8.8998,27.19348 -3.2079,16.13767 -4.3074,20.18882 -5.4793,20.18882 -1.9806,0 -2.2029,-5.64285 -0.6078,-15.43224 3.0316,-18.60594 6.4245,-30.52693 11.2053,-39.36967 2.4686,-4.56605 5.5747,-12.3609 6.9023,-17.32189 1.3277,-4.96099 3.538,-10.9381 4.9119,-13.28246 1.3739,-2.34437 3.8083,-6.69951 5.4097,-9.67811 1.6015,-2.9786 4.2911,-7.89063 5.9769,-10.91563 1.6858,-3.025 3.3654,-7.3 3.7323,-9.5 0.8486,-5.08733 3.528,-12.5 4.5184,-12.5 1.5148,0 10.0128,-13.64608 11.9581,-19.20225 1.1208,-3.20136 2.6719,-12.19227 3.5367,-20.5 0.8472,-8.13876 1.9646,-17.47138 2.4833,-20.73916 0.5186,-3.26777 0.7921,-6.09221 0.6078,-6.27652 -0.1843,-0.18431 -4.1107,1.06084 -8.7253,2.767 -22.021,8.14192 -26.9774,9.42088 -36.3901,9.39014 -8.5807,-0.028 -14.6328,-1.49193 -28.61,-6.92043 -1.3927,-0.54092 -1.7054,0.79941 -2.3172,9.93376 -0.3891,5.80747 -0.8821,11.56893 -1.0956,12.80325 -1.4222,8.22005 -2.4772,25.52236 -2.4772,40.6264 0,19.09003 -1.1485,31.82379 -3.5559,39.42559 -0.8374,2.64428 -4.2542,10.96928 -7.593,18.5 -8.1883,18.46897 -11.0452,29.59733 -11.217,43.69222 -0.1274,10.45387 0.1482,12.04261 5.5525,32 6.8506,25.2982 8.7323,34.8315 9.4742,48 0.4843,8.59626 0.2757,10.71975 -1.4858,15.1274 -1.9228,4.81122 -1.9581,5.47624 -0.5719,10.78456 1.3411,5.13563 1.3187,6.16025 -0.2429,11.11437 l -1.7203,5.45721 5.6196,11.25823 c 4.1601,8.33439 5.9288,13.20603 6.8101,18.75823 0.6549,4.125 2.2571,11.0668 3.5605,15.42623 1.3034,4.35942 2.3699,8.98197 2.3699,10.27234 0,3.29479 6.8481,10.37024 13.7351,14.19101 5.3769,2.98303 6.2761,3.16874 13.3613,2.75943 4.2369,-0.24476 8.9942,-1.16164 10.757,-2.07319 z m -14.4686,-8.34113 c -0.6134,-0.40408 -1.4191,-1.70894 -1.7904,-2.89968 -0.8987,-2.88164 2.593,-5.33501 7.5929,-5.33501 7.153,0 6.826,5.14346 -0.5042,7.9304 -3.2977,1.25377 -3.8122,1.28331 -5.2983,0.30429 z m 21.3041,-11.04124 c -4.264,-4.36669 -4.1871,-7.19345 0.1956,-7.19345 4.2961,0 7.1155,2.59799 7.1155,6.5567 0,1.89382 -0.1882,3.4433 -0.4182,3.4433 -0.23,0 -1.0294,0.23453 -1.7764,0.52118 -0.747,0.28664 -3.0494,-1.21083 -5.1165,-3.32773 z m -48.4389,-64.85573 c -1.9252,-0.77684 -1.4811,-7.22773 0.7456,-10.83066 2.4572,-3.97572 9.2223,-8.80239 11.6836,-8.33582 1.2028,0.228 1.9228,1.38733 2.1214,3.41588 0.2549,2.60415 -0.306,3.49112 -3.6915,5.83728 -2.5392,1.75965 -4.225,3.82668 -4.6319,5.67939 -0.5198,2.36649 -3.2361,5.17365 -4.6615,4.81726 -0.1736,-0.0434 -0.8782,-0.30592 -1.5657,-0.58333 z m -3.1629,-134.73277 c -1.6323,-1.96676 -3.0745,-11.72803 -3.0813,-20.85495 -0.01,-7.54434 0.059,-7.75 2.4268,-7.75 2.8926,0 4.0229,2.64968 3.0397,7.12597 -1.3827,6.29545 -0.5732,14.7166 2.0305,21.12403 0.5355,1.31768 0.2209,1.75 -1.2734,1.75 -1.0915,0 -2.5055,-0.62777 -3.1423,-1.39505 z m 28.3782,-46.55647 c -2.9774,-1.20687 -4.6641,-3.62965 -4.2921,-6.16511 0.4903,-3.34072 2.1136,-3.2441 4.0994,0.24398 1.86,3.26708 2.1654,3.30673 10.1107,1.31257 2.1376,-0.53649 2.6167,-0.30731 2.6167,1.25167 0,1.04963 -0.54,2.44841 -1.2,3.10841 -1.3515,1.35148 -8.2409,1.5025 -11.3347,0.24848 z m -12.9494,-27.9985 c -1.5842,-4.99112 6.7621,-13.45289 17.2054,-17.44349 3.8757,-1.48099 7.8437,-3.57331 8.8177,-4.6496 0.974,-1.07629 2.8601,-1.95689 4.1913,-1.95689 2.0692,0 2.3767,0.41716 2.1189,2.87498 -0.1659,1.58124 0.3005,3.60051 1.0365,4.48727 0.7359,0.88675 1.0858,2.26951 0.7776,3.07279 -0.3083,0.80328 0.5414,3.53283 1.8881,6.06565 2.8747,5.40655 3.06,7.32744 0.791,8.19815 -3.3716,1.29381 -8.3219,-7.58931 -8.3368,-14.96 l -0.01,-2.76116 -7.8038,3.92366 c -5.7851,2.90868 -9.0386,5.36904 -12.5773,9.51116 -5.0479,5.90863 -7.0911,6.82583 -8.1031,3.63748 z m 235.7158,220.96017 c 7.7996,-2.40905 13.1613,-5.84043 13.5737,-8.68693 0.5665,-3.90949 -9.687,-9.00615 -25.8054,-12.82692 -4.125,-0.97781 -9.253,-2.65703 -11.3955,-3.7316 -5.8019,-2.90996 -29.4566,-28.08269 -41.5952,-44.2647 l -5.251,-7 0.8176,-20.5 c 1.0537,-26.41987 1.0407,-60.06038 -0.033,-86.25 -0.7676,-18.71804 -1.0212,-20.75 -2.5897,-20.75 -2.8651,0 -3.058,-2.66971 -0.9427,-13.04935 2.9863,-14.65448 3.3999,-20.88646 1.9883,-29.96059 -0.89,-5.72136 -1.8718,-8.72587 -3.2803,-10.03806 -1.8492,-1.72283 -1.9184,-2.32947 -0.8641,-7.57914 1.5732,-7.83343 1.385,-34.75703 -0.3265,-46.73036 -0.7751,-5.42162 -1.56,-10.0083 -1.7443,-10.19262 -0.1843,-0.18432 -3.4216,2.00156 -7.194,4.8575 -3.7724,2.85594 -9.1608,6.66198 -11.9741,8.45787 -9.7491,6.22334 -31.6243,11.42686 -48.8645,11.62353 -5.3621,0.0612 -9.7496,0.27041 -9.75,0.46499 0,1.7272 8.9811,16.63955 15.6744,26.01743 4.565,6.39584 8.8097,13.4288 9.4327,15.6288 0.6229,2.2 1.4541,9.175 1.8469,15.5 0.6804,10.95488 0.9117,11.86961 4.8798,19.29751 4.1272,7.72558 5.0418,12.11261 3.2246,15.46606 -1.9182,3.53991 -4.2589,19.12747 -4.7657,31.73643 -0.8686,21.61428 2.6019,35.70341 11.8658,48.17021 10.2062,13.735 11.9786,22.72349 9.4044,47.69428 -0.9148,8.87453 -2.2891,18.83551 -3.0539,22.13551 -2.2425,9.67632 -4.5096,25.07014 -4.5096,30.6212 0,6.09506 2.6601,11.08115 6.8342,12.81014 3.3812,1.40052 4.7433,1.45687 13.1658,0.54473 8.2894,-0.89772 22.813,0.87248 27.7142,3.37792 2.0822,1.0644 5.6857,2.92347 8.0078,4.13127 6.2865,3.26985 16.9894,4.82358 33.9227,4.92449 12.473,0.0743 16.2811,-0.26078 21.587,-1.8996 z m -3.6011,-9.53043 c -0.3209,-0.83615 -1.9534,-1.79428 -3.6278,-2.12916 -3.4811,-0.69622 -4.6981,-2.05531 -3.1904,-3.563 1.3557,-1.35564 7.6687,-0.16361 9.6554,1.82315 2.1816,2.18156 1.9668,5.38929 -0.3608,5.38929 -1.0412,0 -2.1556,-0.68413 -2.4764,-1.52028 z m -87.4216,-23.46416 c -5.1986,-1.2317 -10.2181,-6.99517 -10.2034,-11.7159 0.013,-4.13465 2.2881,-9.46868 5.4849,-12.85825 5.6428,-5.98314 7.2556,-2.18221 3.3759,7.95613 -2.4471,6.39449 -1.8309,8.02733 3.4527,9.14947 5.9299,1.25943 8.5635,5.37506 4.7466,7.41781 -2.1484,1.1498 -2.2158,1.15029 -6.8567,0.0507 z m -7.8459,-96.51162 c -0.4171,-1.08692 0.6037,-2.74752 3.0874,-5.0225 2.4881,-2.279 3.5381,-3.98885 3.187,-5.19006 -0.2879,-0.98526 -1.0561,-4.59591 -1.7071,-8.02366 -1.0298,-5.42225 -0.9692,-6.55952 0.466,-8.75 2.212,-3.37586 5.3648,-3.26674 6.7116,0.23228 1.7962,4.66666 0.6184,17.08667 -2.1574,22.75 -2.1069,4.2988 -2.9074,5.04402 -5.7075,5.31387 -2.2877,0.22047 -3.4423,-0.16933 -3.88,-1.30993 z m 11.1369,-82.50322 c -1.1,-0.47988 -4.429,-3.05669 -7.3978,-5.72624 -4.9004,-4.40652 -5.2888,-5.05739 -4.2148,-7.06411 1.6202,-3.0274 3.771,-2.77157 5.5453,0.65959 0.8163,1.57848 3.7529,4.90972 6.5257,7.40276 2.7729,2.49304 5.0416,4.80156 5.0416,5.13004 0,0.85358 -3.1496,0.62335 -5.5,-0.40204 z m -9.9474,-41.72434 c -0.688,-1.79273 1.7016,-4.27638 4.1144,-4.27638 2.7412,0 7.9498,-4.1112 10.3989,-8.2079 1.4113,-2.36066 3.2113,-4.2921 4,-4.2921 2.5769,0 2.0816,3.99628 -1.0273,8.288 -5.9466,8.209 -15.7644,12.97494 -17.486,8.48838 z m -308.7084,47.19466 c 11.3274,-5.18585 20.0118,-14.87354 27.7635,-30.97104 8.7927,-18.25927 11.824,-33.5523 11.7935,-59.5 -0.018,-15.37485 -0.4025,-20.26941 -2.2761,-28.97444 -5.9984,-27.8694 -20.1246,-50.96744 -35.9116,-58.71985 -5.043,-2.47644 -6.8284,-2.80571 -15.2135,-2.80571 -8.3513,0 -10.1806,0.33424 -15.1287,2.76419 -16.6719,8.18742 -30.8518,32.16366 -36.2157,61.23581 -1.5673,8.49477 -3.1966,25.5 -2.4432,25.5 0.2469,0 8.2513,-1.575 17.7876,-3.5 9.5362,-1.925 18.4404,-3.5 19.787,-3.5 1.5229,0 3.9597,1.51146 6.4472,3.99892 3.9737,3.97365 3.9963,4.03997 3.5851,10.49721 -0.2275,3.57407 -0.9018,6.98639 -1.4984,7.58294 -0.8742,0.87425 -40.5619,9.8793 -43.6844,9.91191 -2.5527,0.0267 3.7183,22.79913 9.7784,35.50902 13.6608,28.65125 34.7535,40.43674 55.4293,30.97104 z m -7.691,-6.71784 c -1.8212,-1.82119 -1.455,-2.64252 3.6854,-8.26702 13.4573,-14.72442 21.5113,-41.72478 21.4728,-71.98618 -0.047,-36.83993 -11.0677,-66.13517 -29.7106,-78.975 -3.3626,-2.31589 -5.6008,-4.59027 -5.6008,-5.69122 0,-3.08895 4.4025,-2.1641 9.7248,2.04291 20.4128,16.13543 30.5948,43.58924 30.6432,82.62331 0.039,31.59673 -6.8337,55.90765 -20.8359,73.70283 -5.1328,6.52322 -7.6488,8.28043 -9.3789,6.55037 z m -69.1532,-62.79781 c 18.975,-3.87246 38.1,-7.77347 42.5,-8.66892 4.4,-0.89545 8.3306,-2.11373 8.7347,-2.70728 2.864,-4.20695 -2.0111,-13.34232 -6.5275,-12.23181 -3.3829,0.83181 -84.7935,16.65262 -85.6909,16.65262 -0.4336,0 -1.5312,1.56536 -2.4391,3.47858 -1.4963,3.15311 -1.5069,3.75664 -0.114,6.4503 1.831,3.54073 4.2999,5.12433 7.0368,4.51361 1.1,-0.24546 17.525,-3.61465 36.5,-7.4871 z m 282,-12.49832 c 9.1696,-2.7199 33.4126,-11.55461 34.7482,-12.66303 0.6885,-0.57141 1.2588,-2.67133 1.2674,-4.66648 0.026,-6.07849 2.5643,-14.88799 5.3366,-18.52262 2.7041,-3.54529 5.8474,-4.96199 13.6478,-6.15117 5.7767,-0.88066 7.3682,-1.75779 10.0672,-5.54812 l 2.2062,-3.09842 -2.8867,1.47453 c -3.2571,1.66371 -12.4263,3.83187 -26.2796,6.21412 -5.1661,0.88837 -11.5358,2.70113 -14.1549,4.02834 -6.7761,3.43371 -19.4775,4.45999 -23.7755,1.92108 -3.2717,-1.93264 -3.6149,-1.87906 -49.2938,7.69564 l -4.6171,0.96778 -1.7251,7.98422 c -0.9488,4.39132 -1.4909,8.5944 -1.2047,9.34017 0.561,1.46204 15.5094,7.56488 27.664,11.29411 8.6421,2.65155 19.4908,2.55049 29,-0.27015 z m -104.7942,-23.92908 c 29.8618,-5.75961 65.0942,-12.70776 78.2942,-15.44033 22.3397,-4.6246 24.1808,-5.17045 26.6129,-7.89029 2.3754,-2.65648 4.6863,-9.73148 3.5498,-10.86803 -0.2565,-0.25646 -18.623,3.12336 -40.8145,7.51071 -22.1915,4.38735 -59.0232,11.46704 -81.8482,15.73264 -22.825,4.26561 -41.6034,7.82269 -41.7298,7.90463 -0.3414,0.22133 0.967,13.52268 1.3302,13.52268 0.1712,0 24.7436,-4.71241 54.6054,-10.47201 z m 182.2942,7.49407 c 19.3333,-5.19787 23.5833,-7.21886 34.3178,-16.31902 5.5343,-4.69161 10.9892,-8.82441 12.1222,-9.18401 2.6925,-0.85457 2.6055,-2.77334 -0.2779,-6.12551 l -2.338,-2.71801 -6.4911,3.16224 c -3.5701,1.73924 -7.1305,3.15974 -7.912,3.15667 -4.723,-0.0185 -9.687,-2.60159 -14.5275,-7.55947 l -5.2436,-5.37085 -7.5948,1.64812 c -4.728,1.02603 -7.2407,2.00216 -6.6568,2.58605 0.9821,0.98217 -3.466,9.22306 -7.3122,13.54689 -3.0588,3.43861 -9.482,6.86557 -14.3309,7.64582 -2.3346,0.37567 -4.5452,1.16918 -4.9124,1.76334 -0.3672,0.59416 -0.9508,4.16995 -1.297,7.9462 -0.6191,6.7547 -0.5881,6.87489 1.9124,7.42017 1.398,0.30484 2.9918,0.73345 3.5418,0.95247 2.544,1.01308 19.8116,-0.61844 27,-2.5511 z m 280.1117,-9.18018 c 9.9725,-3.67179 18.0532,-11.91152 26.9411,-27.47117 14.2909,-25.01839 18.5017,-67.20807 9.9114,-99.307043 -9.9221,-37.07566 -31.8745,-59.34772 -54.3033,-55.09417 -11.8915,2.25517 -20.2502,7.98145 -28.3009,19.38794 -11.6017,16.43761 -18.2944,36.09258 -20.3443,59.746313 l -0.6589,7.60375 19.2745,-3.8099 19.2745,-3.8099 3.1907,1.97191 c 3.2802,2.02729 6.4035,7.24245 6.4035,10.6923 0,1.0723 -0.4855,3.34225 -1.0788,5.04433 -0.9351,2.68245 -1.7677,3.23545 -6.25,4.15142 -2.8442,0.58121 -12.7246,2.57168 -21.9566,4.42327 -9.232,1.85159 -17.0583,3.6394 -17.3918,3.97292 -0.9463,0.94631 2.5201,17.22502 5.7213,26.86765 12.484,37.60513 34.8439,54.73344 59.5676,45.63038 z m -4.945,-9.50855 c -1.4985,-1.49847 -0.3881,-3.45447 5.1113,-9.00333 14.1416,-14.26904 21.4125,-39.96435 21.4573,-75.83 0.017,-13.70775 -0.4035,-19.02864 -2.1719,-27.475273 -4.1332,-19.74241 -12.7941,-35.12878 -24.7436,-43.95822 -6.0865,-4.49733 -7.3449,-6.31491 -5.263,-7.60163 2.4268,-1.49981 6.656,1.10513 14.4529,8.90199 6.8305,6.83049 9.0639,9.90821 12.8448,17.70063 10.1093,20.835 12.8688,49.070643 8.0635,82.506233 -3.4794,24.21049 -12.022,42.97253 -23.8432,52.36685 -4.0081,3.18518 -4.7964,3.50446 -5.9081,2.39275 z m -333.704,-8.30247 c 4.7384,-3.14351 11.5469,-4.90396 28.961,-7.48838 10.6914,-1.58671 14.0763,-3.19246 14.0763,-6.6777 0,-5.26454 -6.7189,-31.35071 -10.0102,-38.86478 -2.0477,-4.675 -4.8667,-11.65 -6.2644,-15.5 -1.3976,-3.85 -3.4753,-9.15775 -4.617,-11.795 -2.9695,-6.8592 -7.6008,-23.435913 -10.0561,-35.993823 -2.7474,-14.05152 -6.4059,-25.584 -10.7679,-33.94293 -2.6652,-5.10716 -5.75,-8.7852 -12.7825,-15.24055 -15.6237,-14.34156 -31.5019,-34.3486097 -31.5019,-39.6934697 0,-1.55882 0.3375,-2.8027903 0.75,-2.7643703 0.4125,0.0384 2.7793,2.8509203 5.2596,6.2500003 6.0997,8.3590899 7.5262,8.1872499 7.3645,-0.88713 -0.251,-14.0837203 -4.2395,-21.6229803 -21.7661,-41.1430803 -4.3406,-4.8343 -8.9328,-11.01684 -10.2049,-13.73898 -1.8803,-4.02364 -2.4301,-4.58474 -2.9394,-3 -1.5563,4.84269 -2.5237,6.44934 -3.8832,6.44934 -2.3403,0 -2.7735,-1.72615 -1.1978,-4.77315 1.5496,-2.99671 7.9714,-25.1045 9.1559,-31.520373 0.3945,-2.13693 1.194,-3.63158 1.8308,-3.4227 1.7271,0.56646 1.9623,7.197333 0.6337,17.861163 -1.1649,9.34965 -1.1298,9.78535 1.1476,14.23098 1.2921,2.52231 4.8243,7.48376 7.8493,11.02543 4.62,5.40911 6.22,6.5973 10,7.42633 2.5893,0.56789 6.6229,0.64837 9.5,0.18954 5.4222,-0.86472 6.5,-0.6228 6.5,1.45893 0,1.37934 -7.7001,3.52385 -12.6528,3.52385 l -2.5544,0 3.2211,3.66866 c 3.9772,4.52969 10.5815,17.97736 11.5006,23.41708 0.507,3.00104 1.2993,4.2731603 3.0839,4.9516703 1.3536,0.51464 2.4016,1.729 2.4016,2.78285 0,1.02837 0.882,2.66797 1.96,3.64355 3.1412,2.8427099 7.8652,1.2076999 19.9542,-6.90622 7.5906,-5.0947203 12.2956,-7.5719303 15.2772,-8.0436303 6.5215,-1.03169 11.7101,-2.69037 12.8997,-4.12368 0.587,-0.70731 1.4353,-3.89698 1.8851,-7.08815 0.7074,-5.01833 0.481,-6.6559 -1.6758,-12.12216 -2.822,-7.15206 -2.2804,-9.12576 1.2843,-4.67997 1.944,2.42463 2.4063,2.64231 2.4103,1.13499 0.01,-1.75233 0.1539,-1.76744 2.4698,-0.25 3.43,2.2474 4.3969,2.03447 5.154,-1.13499 1.8084,-7.57009 7.2775,-7.19807 16.1312,1.09729 5.7303,5.36894 3.8701,6.27026 -3.4111,1.65271 -5.8433,-3.70577 -7.1196,-3.74944 -7.5225,-0.25739 -0.4628,4.0115 -5.1988,6.1484 -8.9083,4.01945 l -2.686,-1.54158 1.0054,3.63976 c 1.3507,4.88965 0.4247,15.21479 -1.6482,18.37845 -1.9663,3.00091 -4.2936,4.04845 -15.0456,6.77211 -7.2695,1.84149 -8.3408,2.4462403 -12.2491,6.9139803 -8.22,9.3966297 -19.1157,11.8513397 -26.9691,6.0758899 l -4.0784,-2.9993299 -1.1186,4.4421499 c -1.5925,6.3245398 -1.3943,8.9969198 0.8155,10.9967998 1.8547,1.67844 2.0804,1.63351 5.5,-1.09501 1.9613,-1.56491 3.5659,-3.18278 3.566,-3.59528 0,-0.4125 0.675,-0.75 1.5,-0.75 2.7072,0 1.8248,5.829 -1.3652,9.01901 l -2.8651,2.86517 2.6151,2.3855 c 3.0172,2.75222 12.631,9.73032 13.4056,9.73032 0.2873,0 0.287,-0.9 -7e-4,-2 -0.4281,-1.63738 -0.031,-2 2.1925,-2 1.7437,0 3.7455,-1.10279 5.5941,-3.08173 l 2.8788,-3.08174 9.9134,0.70283 9.9134,0.70282 4.6758,-4.30998 4.6758,-4.30998 -0.6956,-9.81111 c -0.7848,-11.0696397 0.3151,-12.7738097 3.589,-5.5611098 2.4036,5.2950798 2.583,14.6625498 0.3702,19.3256898 -2.3268,4.90321 -9.5328,8.05568 -21.0982,9.22998 -7.6873,0.78053 -9.7153,1.36694 -12.3267,3.56428 -1.7191,1.44653 -4.2946,2.63005 -5.7232,2.63005 l -2.5976,0 2.2338,2.37782 c 2.9243,3.11281 7.3107,14.66148 10.2564,27.00386 2.2065,9.24539 2.5689,9.98229 5.627,11.4441 3.5962,1.71898 3.7757,3.49751 0.4031,3.99377 -2.3678,0.3484 -2.6083,0.94237 -1.2505,3.08724 1.3618,2.15111 18.611,0.76721 28.3474,-2.2743 11.21,-3.50188 12.7314,-4.70877 12.7314,-10.09978 0,-3.23317 0.6489,-5.17512 2.4149,-7.22695 1.3282,-1.54317 2.6651,-2.55644 2.9707,-2.25171 0.3057,0.30472 0.1644,3.00472 -0.314,6 -0.4785,2.99527 -0.7547,5.56904 -0.6139,5.71949 0.1408,0.15044 1.0299,-0.0234 1.9758,-0.38639 2.8912,-1.10947 3.6907,-4.98261 2.435,-11.79721 -0.9692,-5.26033 -0.8554,-7.86371 0.7283,-16.66218 1.0324,-5.73527 1.7967,-13.01526 1.6984,-16.17776 -0.7013,-22.58072 -0.7424,-21.9909 2.0316,-29.1190597 3.1705,-8.1469603 3.2296,-8.5397003 0.8419,-5.59097 -2.5404,3.13723 -6.6151,2.01266 -9.3203,-2.5722703 -2.0422,-3.46127 -2.0597,-3.4677 -9.4619,-3.4677 -7.2885,0 -7.4504,-0.0558 -9.4218,-3.25 -2.3715,-3.84238 -2.2207,-8.0895 0.3042,-8.56841 1.2272,-0.23277 2.2123,0.7258 3.217,3.13049 l 1.4482,3.46599 7.6409,0.38585 c 7.0109,0.35403 7.8521,0.63119 10.2012,3.36097 1.6749,1.94629 3.5239,2.98699 5.347,3.00948 2.6214,0.0323 2.8261,-0.28034 3.4493,-5.26849 0.3644,-2.91657 0.3356,-9.66448 -0.064,-14.99535 -0.6427,-8.57207 -0.8835,-9.46581 -2.0834,-7.73151 -0.7462,1.07854 -1.864,2.54933 -2.484,3.26842 -1.5825,1.83567 -6.3481,1.09215 -6.7551,-1.05393 -0.2239,-1.18074 0.1365,-1.56703 1.1125,-1.19249 0.7941,0.3047 2.1591,-0.16134 3.0334,-1.03566 2.7652,-2.76518 2.9868,-7.6661 0.6887,-15.23196 l -2.1391,-7.04245 4.0918,-6.33075 c 2.2505,-3.4819 4.3447,-7.33867 4.6539,-8.57059 0.8482,-3.37925 -1.1767,-11.36321 -5.8436,-23.041297 -3.8667,-9.67566 -4.6925,-10.93726 -10.4903,-16.02746 -6.3574,-5.58142 -7.8128,-8.28086 -4.4646,-8.28086 2.8867,0 11.1184,5.95134 14.417,10.42317 6.7957,9.2129 11.6969,23.775907 11.737,34.874807 0.014,3.9428 0.4915,5.20581 2.6776,7.08621 3.3682,2.89719 2.36,5.01303 -2.0247,4.2493 -2.8243,-0.49193 -3.3996,-0.13288 -5.797,3.61804 l -2.6616,4.16416 2.5296,4.99184 c 4.8546,9.58016 6.5619,28.42474 3.9142,43.20428 l -1.274,7.1117903 3.3876,1.22498 c 3.8668,1.39824 6.3182,5.3989299 4.4518,7.2653099 -0.8795,0.8795098 -1.7452,0.60953 -3.5837,-1.11763 -3.2685,-3.07064 -5.7246,-2.37003 -7.9954,2.2807198 -1.8065,3.6998 -1.819,4.22532 -0.2738,11.5 1.4755,6.94593 1.485,9.13303 0.1073,24.62303 -1.7646,19.84071 -2.1729,17.97215 8.6302,39.5 8.7106,17.358193 10.9863,24.299653 11.6472,35.527493 0.5203,8.83921 0.4566,9.17592 -3.0519,16.14287 -2.3963,4.75832 -4.6736,7.79327 -6.8746,9.16182 -4.3227,2.68769 -11.4095,10.10819 -12.2089,12.7839 -0.5395,1.80572 -0.2856,2.0498 1.7315,1.66421 1.7471,-0.33396 3.0582,0.37332 5.0249,2.71064 4.0857,4.8556 3.7625,11.79762 -0.9106,19.55812 l -3.5717,5.93141 3.557,3.25976 c 4.3265,3.9649 7.2667,4.11747 13.1301,0.68131 3.6341,-2.12974 6.1015,-2.67577 14.178,-3.13762 9.8199,-0.56155 13.7426,-1.80838 19.1291,-6.08022 l 2.3507,-1.86432 -1.6651,-9.77496 c -1.3276,-7.79381 -1.5285,-13.04713 -0.9912,-25.9197 0.6062,-14.52175 0.4619,-16.96568 -1.4356,-24.31133 -2.5888,-10.02147 -2.7502,-22.344293 -0.5029,-38.373543 2.9628,-21.1323 0.9173,-35.54999 -7.7422,-54.57016 -9.3787,-20.5999698 -11.8649,-35.44766 -9.3508,-55.84384 1.8155,-14.72883 1.0427,-21.3844 -3.252,-28.00625 -2.9947,-4.61753 -4.1146,-12.71221 -4.2252,-30.53959 -0.084,-13.518157 -1.9626,-23.491747 -5.592,-29.684877 -3.3575,-5.72915 -16.2698,-18.52981 -20.9149,-20.73404 -4.7523,-2.25511 -22.1449,-5.57667 -29.3151,-5.59845 -7.0206,-0.0213 -18.6845,-2.40536 -21.8201,-4.45986 -3.1562,-2.06802 -3.21,-2.03794 -3.9863,2.22722 -0.3753,2.0625 -1.5703,5.6625 -2.6554,8 -1.5498,3.33846 -2.5085,4.25 -4.4698,4.25 -1.9823,0 -2.3503,-0.36063 -1.7854,-1.75 1.3564,-3.33654 4.5025,-14.75142 4.5025,-16.33634 0,-1.35551 -1.4714,-1.57938 -9.8796,-1.50318 l -9.8797,0.0895 -9.3703,-4.76415 c -11.5536,-5.87416 -21.7258,-13.31164 -22.5169,-16.46332 -0.3249,-1.29454 -0.042,-4.31496 0.6296,-6.71203 0.6711,-2.39708 0.9137,-5.75381 0.5391,-7.45941 -0.5185,-2.36082 -0.3333,-3.10107 0.7759,-3.10107 2.7696,0 3.8161,2.73735 3.5998,9.41649 -0.2731,8.43601 0.5322,9.34173 14.3582,16.14868 13.2663,6.53142 20.0531,8.13147 27.46,6.47388 7.2895,-1.63132 10.462,-4.67726 15.1933,-14.58742 5.1113,-10.70589 6.6167,-21.25238 5.7027,-39.95163 -0.7726,-15.80673 -3.4249,-28.32829 -8.0172,-37.84988 -4.697,-9.73885 -9.4301,-14.95426 -16.8869,-18.60788 -16.2904,-7.98184 -35.0887,-5.90451 -46.3629,5.1234 -10.3569,10.13063 -15.3656,34.22582 -7.8285,37.65998 1.4523,0.66172 2.4834,1.97077 2.4834,3.15294 0,2.0871 -2.4072,2.78962 -3.5,1.02144 -1.1688,-1.89107 -6.3175,-1.09866 -7.9433,1.22251 -1.7509,2.4998 -2.0537,9.34022 -0.5844,13.20472 1.2354,3.24916 8.8581,11.57277 10.5983,11.57277 2.4297,0 4.4294,4.30827 4.4294,9.54305 0,4.96034 -2.8884,20.40387 -5.1353,27.45695 -2.6822,8.41942 -9.5028,14.6187 -25.8647,23.50841 -5.775,3.13767 -12.8135,7.88599 -15.6411,10.55183 -2.8276,2.66584 -6.4276,5.12787 -8,5.47117 -5.0011,1.09189 -7.2908,2.69475 -11.2786,7.89555 -8.7256,11.37953 -10.1716,16.994974 -7.6482,29.700997 2.7491,13.84277 11.5227,29.45337 17.6457,31.39674 1.0572,0.33555 1.9222,1.25476 1.9222,2.0427 0,2.13132 -4.3191,1.75602 -7.3651,-0.63997 l -2.6349,-2.07258 0,7.1655 c 0,10.12809 3.4574,26.1502 7.4963,34.73864 3.3566,7.1377003 7.3088,11.4997203 24.7632,27.33109 3.3844,3.06965 3.9573,4.34662 5.7408,12.7964 2.1869,10.36063 2.9926,11.79336 7.7497,13.78185 1.7875,0.74719 3.25,1.98315 3.25,2.7466 0,2.43362 8.5137,22.66049 14.8825,35.35795 4.9281,9.8251 7.8099,14.11317 14.4493,21.500003 4.5614,5.07492 9.8127,11.47712 11.6695,14.22712 1.8569,2.75 4.6718,6.63179 6.2553,8.62619 2.9007,3.65335 6.6927,15.62944 6.7263,21.243 0.01,1.57805 -1.6606,5.62805 -3.711,9 -4.2649,7.01345 -4.6958,11.3831 -1.8373,18.63081 2.3364,5.92414 1.6882,17.87889 -1.2857,23.70808 -1.1348,2.22435 -1.7825,4.325 -1.4394,4.6681 1.6567,1.65671 8.0714,0.4289 12.2532,-2.34532 z M 1585.066,94.470107 c -1.4926,-2.27799 -1.6102,-4.54132 -1.0037,-19.31209 0.7998,-19.47522 -0.204,-26.5355 -5.8518,-41.15949 -7.7554,-20.08128 -1.9587,-18.51383 7.1377,1.93009 l 3.7811,8.49772 0,25.9158 c 0,27.09057 -0.4339,29.667103 -4.0633,24.12797 z m -125.7739,-25.96297 c -18.8884,-12.74115 -22.767,-16.09876 -25.7755,-22.3136 -2.399,-4.95571 -1.9378,-9.61404 0.8984,-9.07317 1.1577,0.22076 2.1459,2.10939 3.0434,5.81644 1.7596,7.26694 4.5373,9.96779 16.6143,16.15428 12.9489,6.63311 22.3358,12.55425 23.5759,14.87135 1.3758,2.57067 1.2215,5.96984 -0.2693,5.93306 -0.6875,-0.017 -8.8267,-5.14172 -18.0872,-11.38836 z m 67.5372,-4.7808 c -1.6992,-1.69916 -1.4886,-7.94295 0.3567,-10.57749 0.8562,-1.22238 2.4813,-2.22251 3.6113,-2.22251 1.8251,0 1.9807,0.41885 1.3932,3.75 -0.939,5.32396 -2.5916,10.25 -3.4388,10.25 -0.3973,0 -1.2624,-0.54 -1.9224,-1.2 z m -103.9048,-21.0167 c -1.817,-2.32018 -3.362,-8.11649 -2.4157,-9.06282 1.3817,-1.38164 5.0107,0.99385 5.6972,3.72929 1.1776,4.69182 -1.0054,8.23994 -3.2815,5.33353 z m 123.4319,-3.7833 c -1.8456,-1.45179 -4.0568,-2 -8.0667,-2 -4.9562,0 -5.7369,-0.29863 -7.5923,-2.90437 -3.6851,-5.17523 -1.674,-10.94366 2.0935,-6.00474 1.0107,1.32501 2.2572,2.91979 2.7699,3.54395 0.5704,0.69445 2.6974,0.93589 5.4808,0.62216 5.9335,-0.6688 9.5877,1.5288 9.5877,5.76605 0,3.49992 -0.8255,3.68866 -4.2729,0.97695 z m -133.5247,-22.73862 c -1.6234,-4.26876 -4.1953,-11.5863798 -5.7152,-16.2613797 -5.3327,-16.4025203 -7.9237,-19.6232103 -15.0057,-18.6525203 -5.6093,0.76885 -7.2854,-1.46833 -3.4356,-4.58571 4.852,-3.92892 11.4742,-0.32371 17.2289,9.37965 3.9509,6.66181 10.0669,24.07826 11.2337,31.99035 1.1213,7.60325 -1.0642,6.65394 -4.3061,-1.87039 z m 59.2227,-29.59605 c -0.3113,-0.81121 -0.4218,-2.98028 -0.2456,-4.82013 0.2794,-2.91582 0.9756,-3.66609 5.4247,-5.8452 7.2678,-3.55975 8.2741,-4.62209 11.8859,-12.54773 3.0715,-6.74007 7.2264,-11.45227 10.0977,-11.45227 2.7296,0 6.4122,2.38946 6.4122,4.16052 0,2.10645 -0.7931,2.24883 -4.5565,0.81798 -3.0242,-1.14977 -5.4396,0.13305 -5.4491,2.89394 -0.012,3.49499 -2.1896,9.20603 -4.6045,12.07609 -1.3934,1.65585 -5.2201,4.44266 -8.5039,6.19292 -5.5052,2.93422 -5.9478,3.42301 -5.6783,6.27042 0.2414,2.55048 -0.1002,3.14387 -1.9622,3.40827 -1.302,0.18488 -2.4936,-0.30299 -2.8204,-1.15481 z m -51.9113,-5.63859 c -4.9993,-9.6676 -8.5021,-26.02674 -5.5728,-26.02674 1.4107,0 1.9817,1.31961 3.0822,7.12231 0.5504,2.90234 2.5704,8.45363 4.4888,12.33619 1.9184,3.88257 3.488,7.61773 3.488,8.30036 0,2.48249 -3.9519,1.23477 -5.4862,-1.73212 z m 40.4862,-24.9435 c 0,-1.26045 2.6536,-3.76234 7.75,-7.30689 8.5139,-5.92145 10.7016,-6.93196 20.1273,-9.29696 8.1964,-2.05655 10.5899,-3.69047 12.5379,-8.55908 2.889,-7.22029 1.4979,-15.26464 -4.7831,-27.659547 -2.9686,-5.85838 -3.3092,-8.26077 -1.1711,-8.26077 6.3408,0 14.083,22.419217 12.1478,35.176747 -1.3158,8.67494 -3.4634,10.4881 -18.1287,15.30588 -7.9784,2.62102 -15.5291,5.86893 -19.5,8.38781 -7.2327,4.58799 -8.9801,5.01856 -8.9801,2.21281 z m 57.5,-12.55442 c -4.2171,-2.23341 -6.5,-5.26775 -6.5,-8.6396 0,-3.996 1.8594,-3.65157 6.547,1.21271 l 3.953,4.10192 8,-0.6062 c 4.4,-0.33342 9.6795,-0.88687 11.7323,-1.2299 2.9676,-0.4959 3.8663,-0.27424 4.3867,1.08182 0.382,0.99533 -0.015,2.37467 -0.9525,3.31248 -2.4023,2.40231 -22.9815,2.98316 -27.1665,0.76677 z m -104.7882,-58.185067 c -2.2033,-1.17706 -3.7729,-1.27942 -7.4835,-0.48802 -4.8432,1.03294 -7.2283,0.2505 -7.2283,-2.3712 0,-1.908 2.4182,-2.48607 10.3318,-2.4698 8.0104,0.0165 12.1682,1.55914 12.1682,4.51479 0,2.49992 -3.8744,2.90498 -7.7882,0.81423 z m 16.0321,-3.46722 c -2.4505,-1.37135 -2.1699,-3.75216 0.5061,-4.29413 1.2375,-0.25064 6.75,-0.68868 12.25,-0.97343 5.5,-0.28475 15.3211,-1.28395 21.8246,-2.22044 l 11.8247,-1.70271 6.9253,3.35028 c 3.809,1.84265 6.9254,3.65824 6.9254,4.03464 0,0.3764 -0.6516,1.22518 -1.4481,1.88617 -1.1543,0.95795 -2.677,0.65032 -7.5043,-1.51605 -5.1219,-2.29857 -6.9426,-2.62984 -11.8019,-2.14727 -8.9442,0.88822 -32.4649,3.63957 -35.2518,4.1236 -1.3784,0.23939 -3.2909,-0.004 -4.25,-0.54066 z m 64.7519,-4.88336 c -1.0965,-1.77419 3.5308,-6.973 8.405,-9.4429 7.6434,-3.87321 20.0992,-5.46324 20.0992,-2.56574 0,1.8519 -3.3904,3.23145 -10.1914,4.14683 -6.7743,0.91179 -7.5523,1.27191 -10.6415,4.92617 -3.221,3.80997 -6.3831,5.02005 -7.6713,2.93564 z m -41.1691,-16.37314 c -3.6997,-3.11494 -9.5452,-14.89027 -9.1393,-18.41016 0.5426,-4.70419 2.9425,-3.05301 4.9186,3.38406 1.5076,4.91102 2.9183,7.08471 7.2676,11.19808 2.9683,2.80728 5.1485,5.35251 4.845,5.65607 -1.2975,1.29743 -5.2736,0.3764 -7.8919,-1.82805 z m -12.3267,324.73461 c 12.925,-2.55554 23.879,-4.98226 24.3422,-5.39273 0.4632,-0.41047 0.077,-4.18462 -0.8577,-8.387 -1.9159,-8.61155 -1.5229,-10.4609 3.7778,-17.77835 2.7037,-3.73239 2.9371,-4.66078 2.469,-9.82269 -0.2843,-3.13539 -1.4753,-7.86728 -2.6466,-10.51531 l -2.1297,-4.8146 -4.1228,4.29062 c -2.6525,2.76039 -7.0681,5.64487 -12.3809,8.0878 -5.3551,2.46236 -9.0697,4.89501 -10.567,6.92021 -1.983,2.68213 -2.7378,3.03133 -5.3466,2.47341 -3.7606,-0.80425 -3.7233,-0.76869 -2.9421,-2.80461 0.3535,-0.92118 4.9766,-4.54805 10.2736,-8.05972 5.2969,-3.51167 12.0763,-8.88306 15.0652,-11.93642 l 5.4344,-5.55156 -5.0349,-5.78185 c -5.2114,-5.98467 -6.2901,-6.70646 -15.0712,-10.08434 l -5.2372,-2.01467 -1.0901,3.65859 c -0.5995,2.01222 -0.9428,8.27216 -0.7627,13.91099 0.3346,10.48074 -0.1075,11.78234 -3.4227,10.07727 -2.044,-1.05125 -2.3649,-8.02681 -0.7774,-16.89603 0.5349,-2.9885 1.1793,-8.51553 1.4319,-12.28228 0.2527,-3.76675 0.6732,-7.062433 0.9345,-7.323743 0.2613,-0.26131 1.9088,0.26626 3.661,1.17237 1.7522,0.90611 3.3133,1.50179 3.4692,1.32374 0.1558,-0.17806 -1.2307,-3.02374 -3.081,-6.32374 -2.9177,-5.20335 -3.3659,-5.63061 -3.3763,-3.21788 -0.017,4.04295 -2.2586,8.30955 -8.5196,16.217883 -3.7718,4.76434 -6.169,9.01809 -7.5058,13.31879 -1.8651,6.00091 -1.889,6.85233 -0.4752,16.92407 2.141,15.25201 1.915,34.63286 -0.533,45.70647 -1.0881,4.92214 -1.9783,9.08464 -1.9783,9.25 0,0.79832 5.3098,-0.0561 27,-4.34469 z m 115.9514,-6.58102 c 2.3667,-2.02641 3.4936,-5.86455 2.677,-9.11786 l -0.5883,-2.34423 -15.5985,3.07809 -15.5986,3.0781 0.6355,4.51613 c 1.1954,8.49618 0.059,8.08059 14.0271,5.12853 6.863,-1.45043 13.3469,-3.39786 14.4458,-4.33876 z m 238.1976,-48.07534 c 1.1005,-1.96663 -0.7002,-6.42536 -3.2282,-7.99318 -1.1234,-0.69672 -27.0432,4.03254 -89.8116,16.38684 -48.5279,9.55142 -88.7,17.65516 -89.2714,18.0083 -0.7113,0.4396 -0.6559,2.35362 0.1757,6.06963 l 1.2147,5.42755 89.9825,-18.09573 c 71.2613,-14.33083 90.1814,-18.45103 90.9383,-19.80341 z m -255.899,35.16226 10.75,-2.14102 0,-3.9255 c 0,-2.15903 0.4694,-4.80261 1.0431,-5.87461 0.8075,-1.50876 0.6945,-2.08287 -0.5,-2.54125 -1.0059,-0.38599 -1.5362,-1.86049 -1.5234,-4.23516 0.026,-4.8283 5.2669,-19.51893 8.4537,-23.69703 l 2.5333,-3.32138 -2.5215,-7.98207 c -2.0435,-6.46868 -2.3937,-9.06955 -1.8474,-13.71769 0.7248,-6.167443 0.3598,-6.366443 -4.1922,-2.285473 -4.8832,4.377813 -20.9183,9.009243 -37.2583,10.761323 -4.572,0.49024 -8.5344,1.11305 -8.8053,1.38403 -0.271,0.27097 0.9192,4.15407 2.645,8.6291 l 3.1377,8.13643 17.1677,-0.59057 c 19.3691,-0.66629 23.0172,-0.0901 23.4696,3.70728 0.3834,3.21768 -2.8176,5.43725 -10.0237,6.95027 -5.7535,1.20805 -19.0949,6.96801 -20.1705,8.70833 -0.9052,1.46468 4.6294,24.17149 5.8922,24.17401 0.55,10e-4 5.8375,-0.96147 11.75,-2.13902 z m 25.2141,-35.15797 c -1.4359,-3.13642 -2.7936,-5.70258 -3.0172,-5.70258 -0.2235,0 -1.7613,2.3625 -3.4173,5.25 -2.4944,4.34952 -3.0124,6.36316 -3.0202,11.74 l -0.01,6.49 6.0374,-6.03742 6.0374,-6.03742 -2.6107,-5.70258 z m -32.493,0.73482 c 3.2749,-1.21086 2.9531,-1.26895 -4.4711,-0.8071 -4.4,0.27372 -9.0188,0.70403 -10.264,0.95625 -2.1761,0.44077 -2.2041,0.5744 -0.7228,3.43906 l 1.5413,2.98046 5.1939,-2.63195 c 2.8566,-1.44757 6.7819,-3.21909 8.7227,-3.93672 z m 40.1986,-14.08438 c -0.6405,-4.11971 -3.038,-12.28219 -5.3278,-18.13886 -4.581,-11.716723 -5.6516,-11.849473 -5.7594,-0.71415 -0.047,4.81859 0.6504,7.57521 3.54,13.99999 1.979,4.4 4.0597,9.8 4.6238,12 1.7859,6.96469 1.9758,7.19241 3.0615,3.6717 0.7202,-2.33536 0.679,-5.56291 -0.1381,-10.81868 z m 315.1726,-3.91483 c 18.5513,-3.70599 18.5581,-3.70834 19.1962,-6.61338 0.6333,-2.88339 -1.5465,-7.8248 -3.4517,-7.8248 -1.7744,0 -37.265,7.84482 -37.7685,8.34834 -0.288,0.28799 -0.206,2.83276 0.1822,5.65505 0.4929,3.58424 1.0944,4.98229 1.9948,4.63677 0.709,-0.27207 9.6401,-2.16296 19.847,-4.20198 z M 1525.6293,99.30967 c 14.9213,-2.529663 27.1435,-10.625883 28.5065,-18.883333 l 0.6603,-4 -2.8334,2.63998 c -7.4682,6.95839 -32.1751,14.86002 -46.4644,14.86002 -3.8656,0 -3.869,0.0037 -3.869,4.117493 l 0,4.11749 7.75,-0.70531 c 4.2625,-0.38792 11.575,-1.35377 16.25,-2.14634 z"
       id="path3079"
       inkscape:connector-curvature="0" />
  </g>
</svg>
