<?xml version="1.0" encoding="UTF-8" standalone="no"?>
<!-- Created with Inkscape (http://www.inkscape.org/) -->

<svg
   xmlns:dc="http://purl.org/dc/elements/1.1/"
   xmlns:cc="http://creativecommons.org/ns#"
   xmlns:rdf="http://www.w3.org/1999/02/22-rdf-syntax-ns#"
   xmlns:svg="http://www.w3.org/2000/svg"
   xmlns="http://www.w3.org/2000/svg"
   xmlns:xlink="http://www.w3.org/1999/xlink"
   xmlns:sodipodi="http://sodipodi.sourceforge.net/DTD/sodipodi-0.dtd"
   xmlns:inkscape="http://www.inkscape.org/namespaces/inkscape"
   width="759.948"
   height="882.40033"
   id="svg2"
   version="1.1"
   inkscape:version="0.48.3.1 r9886"
   sodipodi:docname="Barbell-front-raises-1.svg">
  <defs
     id="defs4">
    <radialGradient
       gradientUnits="userSpaceOnUse"
       gradientTransform="matrix(1,0,0,0.91819829,-19.285714,-7.9105395)"
       r="209.56604"
       fy="287.50052"
       fx="398.1105"
       cy="287.50052"
       cx="398.1105"
       id="radialGradient5255"
       xlink:href="#linearGradient5249"
       inkscape:collect="always" />
    <linearGradient
       id="linearGradient5249"
       inkscape:collect="always">
      <stop
         id="stop5251"
         offset="0"
         style="stop-color:#e3e3e3;stop-opacity:1;" />
      <stop
         id="stop5253"
         offset="1"
         style="stop-color:#e3e3e3;stop-opacity:0;" />
    </linearGradient>
  </defs>
  <sodipodi:namedview
     id="base"
     pagecolor="#ffffff"
     bordercolor="#666666"
     borderopacity="1.0"
     inkscape:pageopacity="0.0"
     inkscape:pageshadow="2"
     inkscape:zoom="0.35"
     inkscape:cx="-106.2554"
     inkscape:cy="92.41274"
     inkscape:document-units="px"
     inkscape:current-layer="layer1"
     showgrid="false"
     showguides="true"
     inkscape:guide-bbox="true"
     fit-margin-top="0"
     fit-margin-left="0"
     fit-margin-right="0"
     fit-margin-bottom="0"
     inkscape:window-width="1201"
     inkscape:window-height="886"
     inkscape:window-x="65"
     inkscape:window-y="24"
     inkscape:window-maximized="0">
    <sodipodi:guide
       orientation="-0.70710678,0.70710678"
       position="-2567.5478,586.59051"
       id="guide2985" />
  </sodipodi:namedview>
  <metadata
     id="metadata7">
    <rdf:RDF>
      <cc:Work
         rdf:about="">
        <dc:format>image/svg+xml</dc:format>
        <dc:type
           rdf:resource="http://purl.org/dc/dcmitype/StillImage" />
        <dc:title />
      </cc:Work>
    </rdf:RDF>
  </metadata>
  <g
     inkscape:label="Ebene 1"
     inkscape:groupmode="layer"
     id="layer1"
     transform="translate(-1138.9763,269.16191)">
    <path
       style="fill:#000000"
       d="m 1372.4621,608.62217 c -2.7202,-1.71906 -7.7379,-5.34161 -11.1506,-8.05011 -5.935,-4.71046 -6.3138,-5.28214 -8.7137,-13.15027 -1.38,-4.52413 -2.943,-12.03908 -3.4734,-16.69988 -1.1067,-9.72607 -1.4119,-10.64772 -7.8414,-23.68628 -3.8391,-7.78527 -4.721,-10.53983 -4.5532,-14.22164 0.2321,-5.09474 0.2809,-13.63234 0.119,-20.81624 -0.059,-2.6125 0.452,-8.57501 1.1353,-13.25 1.6436,-11.24531 0.4092,-20.23932 -6.5687,-47.86126 -7.4773,-29.59889 -7.7714,-31.85483 -5.8533,-44.88509 3.1347,-21.29383 5.2133,-28.62613 12.0731,-42.5885 l 6.4772,-13.1835 1.9478,-17.49083 c 1.2641,-11.35163 1.9024,-23.45773 1.8185,-34.49082 -0.097,-12.80507 0.2758,-18.60394 1.5123,-23.5 0.9028,-3.575 1.9301,-12.19114 2.2829,-19.14699 l 0.6415,-12.64699 -2.9514,-1.52623 c -1.6233,-0.83943 -4.8493,-3.58519 -7.1689,-6.1017 -4.962,-5.38311 -4.9877,-4.97496 1.3254,-21.07809 3.3354,-8.50781 4.673,-13.7315 5.9041,-23.05627 1.6673,-12.62878 2.0091,-22.10661 0.9825,-27.23992 -0.5613,-2.8061 -1.0144,-3.09685 -5.75,-3.68904 -17.9213,-2.24109 -35.9248,-21.2052 -43.8408,-46.18009 -2.9205,-9.214 -3.53,-10.35023 -5.3,-9.88062 -10.0347,2.66234 -13.314,2.89783 -15.9848,1.14785 -2.74,-1.79532 -5.5152,-7.039542 -5.5152,-10.421922 0,-1.03633 1.0221,-3.40094 2.2713,-5.25468 2.2718,-3.37101 2.9208,-3.66054 15.4787,-6.90453 l 4.25,-1.09788 0.013,-7.21145 c 0.035,-19.4122 8.9457,-42.46992 21.0962,-54.59169 2.4149,-2.40911 7.3795,-5.78618 11.0326,-7.50459 l 6.6419,-3.12437 -7.0305,-7.99541 c -8.7234,-9.9207 -16.1133,-21.02272 -18.1426,-27.25597 -0.8486,-2.60669 -1.992,-8.42344 -2.5408,-12.92615 -0.5489,-4.50268 -2.1934,-12.34206 -3.6545,-17.42084 -2.1574,-7.49877 -2.5373,-10.39837 -2.0219,-15.42935 1.0003,-9.76324 3.2074,-15.63769 8.5043,-22.634725 5.7165,-7.551313 9.8498,-11.245923 15.8338,-14.153163 2.3625,-1.14778 8.4664,-6.15675 13.5642,-11.13104 5.0977,-4.97429 12.528,-11.89687 16.5117,-15.38352 8.1724,-7.15281 10.5856,-11.1451 12.6398,-20.91046 0.786,-3.73651 2.5819,-10.77172 3.9909,-15.63379 3.0186,-10.41628 2.9273,-9.61639 1.0966,-9.61639 -4.0678,0 -13.8137,-12.40843 -15.0533,-19.16567 -0.7446,-4.05907 1.4077,-12.85915 4.0642,-16.61714 1.155,-1.634 1.6835,-4.96065 1.8595,-11.70455 0.2239,-8.58402 0.5727,-10.08326 3.9228,-16.86185 2.6006,-5.26183 5.4229,-9.05639 9.64,-12.96066 7.7314,-7.15793 14.5449,-9.84142 26.5328,-10.44997 7.8441,-0.3982 10.0289,-0.11299 17,2.2192 10.7236,3.58758 16.4405,7.43958 21.2398,14.31114 10.9315,15.6517 13.1621,25.05317 13.5105,56.94499 l 0.2489,22.78451 -3.4364,7.5 c -1.8899,4.125 -5.3774,10.28064 -7.75,13.67919 -4.7838,6.85281 -5.3427,9.69968 -2.231,11.36501 1.1454,0.61302 7.3813,1.69733 13.8576,2.40958 9.6212,1.05814 12.6428,1.80359 16.5195,4.07548 l 4.7445,2.78048 12.1479,-1.16944 c 11.3158,-1.08932 12.6614,-1.02651 19.6447,0.91702 12.1722,3.3877 16.289,6.16755 22.2713,15.03854 l 5.2319,7.75837 9,2.23793 c 4.95,1.23086 10.575,2.88634 12.5,3.67883 5.3933,2.22034 15.6337,9.875103 18.7229,13.995468 2.7369,3.65046 7.2039,7.92704 10.0045,9.57797 0.7879,0.46443 5.334,1.65446 10.1025,2.6445 16.2526,3.37434 26.1299,8.55728 42.6701,22.39014 11.3379,9.4821 24.1001,18.46842 30.3597,21.37729 3.9661,1.84311 8.7762,2.85739 18.5,3.90103 17.1494,1.84063 22.6398,3.43903 26.3577,7.6735 l 2.9297,3.33674 7.9264,-1.86651 c 4.3596,-1.02657 9.5015,-2.29345 11.4265,-2.81524 l 3.5,-0.94875 0.1667,-10.45873 c 0.2519,-15.80501 2.4631,-24.90647 9.5487,-39.30357 4.534,-9.21249 12.8037,-19.029635 19.1756,-22.763825 2.3079,-1.35251 9.1266,-4.12119 15.1526,-6.152633 19.3722,-6.53055 30.821,-5.13132 44.0406,5.382463 9.9554,7.917755 20.1358,24.464815 23.9545,38.935285 0.9904,3.75314 1.9139,6.97594 2.0523,7.16178 0.1383,0.18585 8.7029,-1.55364 19.0324,-3.86551 l 18.781,-4.20341 2.7978,3.13129 c 3.2081,3.5905 3.5809,7.529 1.0256,10.83522 -1.3752,1.77922 -5.526,3.17067 -20.3368,6.81743 l -18.6091,4.58195 -0.5645,12.68257 c -0.681,15.29781 -3.0748,25.24678 -9.0749,37.71587 -7.8845,16.38525 -17.5984,24.38399 -37.6425,30.99592 -18.5168,6.10814 -31.8306,3.01653 -45.0756,-10.46706 -8.6689,-8.82497 -15.167,-19.89533 -19.1626,-32.64576 l -3.1598,-10.08359 -9.801,2.45762 -9.801,2.45763001 0,3.28707999 c 0,2.41844 -0.7861,3.9485 -2.9746,5.79003 -2.9755,2.50373 -4.5683,3.14337 -15.2146,6.11003 -4.1355,1.15236 -6.2699,2.40079 -7.8154,4.57121 -2.4292,3.41162 -9.6974,7.99359 -12.6799,7.99359 -1.1048,0 -3.6304,1.575 -5.6125,3.5 -2.9338,2.8492 -4.3691,3.5 -7.7192,3.5 -2.2634,0 -5.0982,-0.51581 -6.2995,-1.14625 -4.3211,-2.26758 -11.3311,-8.78277 -13.2163,-12.28323 -1.0575,-1.96379 -2.158,-3.54827 -2.4454,-3.52108 -0.2874,0.0272 -20.9976,5.11663 -46.0226,11.30987 l -45.5,11.26042 -0.7953,6.39543 c -1.4621,11.75678 -5.9641,15.69248 -16.824,14.70774 -5.0819,-0.46081 -7.7016,-0.0131 -16.3758,2.79836 -5.6794,1.8408 -12.2303,4.31835 -14.5576,5.50565 -4.1301,2.107 -7.8015,2.26403 -12.4473,0.53239 -1.7274,-0.64388 -1.6856,-0.48785 0.3069,1.14484 2.483,2.03463 2.7288,5.01682 2.2947,27.84785 -0.1527,8.035322 0.231,10.225442 3.4165,19.500002 1.9738,5.7464 6.5942,16.52301 10.2676,23.94801 l 6.679,13.5 0.144,12 c 0.093,7.74037 0.6959,13.72063 1.699,16.84727 1.5226,4.74583 6.2989,12.65273 7.6431,12.65273 1.0002,0 4.0492,6.75969 4.0492,8.97722 0,1.05016 -0.9628,2.58372 -2.1395,3.40792 -2.3126,1.61986 -2.3217,0.99493 0.2337,16.11486 0.6507,3.85 1.284,15.775 1.4072,26.49999 0.1953,16.99441 0.5157,20.4637 2.4936,27 1.8508,6.11603 2.222,9.43758 2.0119,18 -0.7055,28.75637 -0.1121,66.15525 1.3234,83.41311 1.4235,17.11348 1.4268,20.96718 0.034,40.5 -2.0805,29.18464 -1.9862,29.86311 5.5921,40.21718 11.8763,16.22618 14.0609,18.70595 21.268,24.14124 4.0014,3.01772 8.1753,6.48979 9.2753,7.7157 3.134,3.49274 10.4932,6.76429 23.6606,10.51839 16.8386,4.8008 20.5291,6.71663 21.808,11.32108 0.5611,2.02032 1.0228,4.73029 1.0258,6.02217 0.016,6.66828 -7.1862,13.58337 -17.4492,16.75388 -11.1453,3.44311 -48.287,2.62787 -55.8149,-1.22511 -1.7767,-0.90934 -5.1922,-3.05382 -7.5901,-4.7655 l -4.3599,-3.11213 -20.2213,-0.5 -20.2214,-0.5 -3.6399,-2.77887 c -6.9871,-5.33419 -8.6977,-8.57802 -8.6977,-16.49316 0,-9.68604 1.605,-20.48844 5.1598,-34.72797 2.2852,-9.15401 3.1277,-15.22653 3.5526,-25.60455 0.7787,-19.02305 -0.8136,-25.09767 -9.665,-36.87302 -9.4228,-12.53546 -12.4837,-24.15353 -12.3884,-47.02243 0.048,-11.53306 0.5912,-18.05932 2.1224,-25.5 3.6019,-17.50384 3.602,-17.5991 0,-24.15491 -3.0033,-5.47105 -3.2431,-6.64936 -3.7467,-18.41305 l -0.5377,-12.56797 -12.3183,-18.63275 c -6.775,-10.24801 -12.8362,-20.00493 -13.4692,-21.68204 -1.1873,-3.14561 -2.1496,-3.76906 -3.1984,-2.07216 -0.7128,1.15334 -3.0647,15.77426 -4.0251,25.02287 -0.3713,3.575 -1.5638,11.225 -2.6502,17 -2.1415,11.38503 -6.7517,21.50849 -13.6135,29.89437 -2.8506,3.48361 -3.7642,5.65981 -4.4081,10.5 -0.614,4.61565 -2.9482,10.49082 -9.5647,24.07522 l -8.7525,17.96959 0.5,16.03042 c 0.275,8.81672 0.4709,21.43041 0.4353,28.03041 -0.06,11.15441 -0.2927,12.55664 -3.2991,19.89959 -1.7789,4.34478 -3.8767,10.66945 -4.6619,14.05483 -2.1415,9.23429 -5.6921,42.26722 -5.2179,48.54558 1.2641,16.73716 21.1098,52.32172 41.0983,73.69173 11.0439,11.8072 11.9902,14.20041 9.1626,23.17079 -2.2521,7.14438 -7.0218,12.13748 -11.5945,12.13748 -2.4328,0 -3.94,0.79116 -5.85,3.07061 -2.1729,2.59336 -3.5831,3.20466 -9.0728,3.93308 -3.575,0.47434 -8.072,1.34257 -9.9934,1.92938 -1.9214,0.58681 -7.3458,1.06693 -12.0542,1.06693 -7.8669,0 -8.9617,-0.25337 -13.5066,-3.12558 z m 24.983,-6.6182 c 1.9546,-0.99606 4.4673,-1.31024 7.5546,-0.94459 2.5443,0.30133 5.1332,0.23437 5.7531,-0.1488 0.6362,-0.39319 1.048,-2.86741 0.9454,-5.67975 -0.1709,-4.68183 -0.033,-4.98308 2.2886,-4.98308 1.6344,0 2.8943,0.84601 3.7231,2.5 1.3893,2.77277 4.5663,2.92003 7.4532,0.34547 2.4886,-2.2194 4.0758,-9.62284 2.7942,-13.03354 -0.5812,-1.54657 -5.2113,-6.86194 -10.2893,-11.81194 -5.717,-5.57304 -10.966,-11.8558 -13.785,-16.5 -2.5038,-4.125 -7.038,-11.41049 -10.076,-16.18998 -6.1949,-9.74585 -14.1598,-27.18582 -16.3878,-35.88277 -1.3524,-5.27858 -1.3064,-6.70676 0.5622,-17.46745 1.1192,-6.44537 2.0349,-15.86357 2.0349,-20.92935 0,-10.37071 2.0264,-19.60964 7.0252,-32.03044 3.7912,-9.42025 4.5327,-16.40966 3.4978,-32.97169 l -0.7302,-11.68758 -2.6074,3.82962 c -3.9609,5.81772 -6.9263,15.004 -10.2154,31.64541 -1.6413,8.30416 -3.3893,15.50357 -3.8845,15.9987 -0.5336,0.53367 -1.37,0.0224 -2.054,-1.25553 -1.3695,-2.55899 -0.2682,-11.34899 3.6395,-29.04823 2.9531,-13.37548 4.429,-17.49858 8.9527,-25.01071 1.8217,-3.025 4.4105,-9.63046 5.753,-14.67879 2.2745,-8.55308 6.7438,-17.97572 15.1381,-31.91581 1.7597,-2.92229 3.7453,-7.47149 4.4123,-10.10933 0.6671,-2.63784 1.6899,-6.70857 2.2729,-9.04607 0.5829,-2.3375 1.4347,-4.25 1.8927,-4.25 1.0226,0 7.841,-9.95655 10.7899,-15.75592 1.1903,-2.34076 2.7857,-7.51576 3.5455,-11.5 1.5512,-8.13492 4.0553,-34.59401 3.3415,-35.3078 -0.2544,-0.25439 -2.0265,0.19096 -3.9381,0.98967 -12.7458,5.32551 -44.7405,3.83871 -65.9562,-3.065 -1.3839,-0.45032 -1.7298,0.78087 -2.3334,8.30518 -0.3898,4.85863 -1.6395,13.33387 -2.7773,18.83387 -1.7357,8.39071 -2.1032,14.18415 -2.2833,36 -0.2663,32.23875 -0.9441,37.20492 -6.9781,51.12223 -9.4205,21.72869 -10.6771,25.02086 -12.7398,33.37778 -1.4082,5.70532 -2.1252,11.95225 -2.1807,19 -0.076,9.59808 0.3298,11.9942 4.7199,27.89558 6.3464,22.9872 8.5841,34.17393 9.6673,48.32822 0.7946,10.3832 0.6815,12.33725 -0.9884,17.08861 -1.6985,4.83258 -1.7506,5.87665 -0.5247,10.52377 1.1887,4.50611 1.1579,5.79382 -0.2435,10.17608 -1.8847,5.89359 -1.1402,8.91832 4.4444,18.05696 2.5135,4.11293 4.0302,8.55827 5.8004,17 1.3183,6.28692 3.1045,13.39985 3.9694,15.80651 0.8649,2.40665 1.5725,5.46649 1.5725,6.79966 0,6.09831 9.4043,15.82302 18.5,19.13025 3.7714,1.37128 15.0011,0.45206 18.9288,-1.54942 z m -14.1823,-8.40969 c -1.9167,-1.91674 -1.4843,-5.64888 0.7958,-6.86919 1.1233,-0.60116 3.7108,-0.95449 5.75,-0.78518 2.9341,0.24361 3.7726,0.7641 4.019,2.49464 0.5165,3.62911 -7.957,7.76751 -10.5648,5.15973 z m 20.9165,-11.17834 c -5.0121,-5.17122 -2.3675,-8.54101 4.3139,-5.49676 4.1852,1.90688 4.7737,8.82857 0.7507,8.82857 -1.0094,0 -3.2885,-1.49932 -5.0646,-3.33181 z m -48.1651,-64.17067 c -3.0102,-3.62716 1.4224,-11.90143 8.6426,-16.13275 4.079,-2.39044 4.6584,-2.49443 6.0644,-1.0885 2.2186,2.21866 0.9793,5.88837 -2.7283,8.07849 -1.7082,1.00903 -3.6137,3.0295 -4.2345,4.48992 -2.459,5.78439 -5.359,7.52677 -7.7442,4.65284 z m -3.066,-132.62476 c -0.6261,-1.16999 -1.3303,-5.7825 -1.5648,-10.25 -0.2344,-4.46753 -0.5827,-10.03526 -0.7739,-12.37276 -0.3145,-3.84614 -0.1333,-4.25 1.9072,-4.25 3.62,0 4.4058,1.8646 3.3714,8 -1.026,6.08596 -0.3946,12.78806 1.6723,17.75 1.3093,3.14296 1.2743,3.25 -1.0599,3.25 -1.4385,0 -2.8738,-0.85955 -3.5523,-2.12724 z m 26.4724,-46.20138 c -2.1653,-1.86252 -2.5729,-2.86334 -2.0367,-5 0.863,-3.43815 1.7321,-3.36225 3.8359,0.33493 1.8434,3.23955 4.5347,3.80413 9.3701,1.9657 3.3041,-1.25621 3.8527,-0.80656 3.0274,2.48141 -0.5866,2.33729 -1.085,2.54657 -6.0643,2.54657 -4.2387,0 -6.0172,-0.50928 -8.1324,-2.32862 z m -10.4043,-27.67471 c 0,-4.83835 7.8249,-12.08151 16.634,-15.39749 3.9237,-1.47697 7.931,-3.56601 8.905,-4.64229 2.3647,-2.61298 6.461,-2.62307 6.461,-0.0159 0,1.06754 -0.483,2.23952 -1.0734,2.60441 -0.6696,0.41379 -0.2781,1.22054 1.0404,2.14402 1.3885,0.97258 1.912,2.11663 1.5255,3.33426 -0.3349,1.0552 0.543,4.08618 2.038,7.03655 2.7292,5.38581 2.3735,7.44062 -1.1743,6.78355 -2.3259,-0.43077 -6.6956,-9.04579 -6.7877,-13.38225 l -0.069,-3.22558 -7.6053,3.82044 c -5.4293,2.72733 -8.8179,5.26868 -11.8431,8.88203 -4.9373,5.897 -8.0516,6.69312 -8.0516,2.05825 z m 225.5467,220.9218 c 3.4159,-0.59484 9.0777,-2.50811 12.582,-4.25172 5.149,-2.56201 6.43,-3.67673 6.6773,-5.81051 0.2271,-1.95903 -0.418,-3.1473 -2.5,-4.60518 -3.8968,-2.72868 -14.3831,-6.67511 -23.306,-8.77095 -9.2691,-2.17719 -13.9015,-4.44291 -17.6235,-8.61966 -1.5821,-1.77538 -6.7948,-7.30777 -11.5838,-12.29421 -13.6455,-14.20787 -26.5667,-30.846 -27.4004,-35.28212 -0.3911,-2.08127 -0.077,-12.55912 0.6983,-23.28412 1.7904,-24.77098 1.7856,-47.38326 -0.016,-76.67929 -1.2862,-20.91313 -1.6039,-23.22592 -3.25,-23.65638 -2.3051,-0.60281 -2.2853,-2.20435 0.1756,-14.16434 3.1183,-15.15506 2.2248,-37.5 -1.4995,-37.5 -2.0874,0 -2.2501,-1.93503 -0.7114,-8.45577 1.6615,-7.04059 1.0475,-35.7017 -1.0464,-48.84433 l -1.2427,-7.8001 -6.8258,5.8001 c -3.7542,3.19005 -9.1542,7.27674 -12,9.08152 -9.8823,6.26722 -31.0418,11.38552 -47.9242,11.59242 -5.3625,0.0657 -9.75,0.29259 -9.75,0.50416 0,1.67074 9.5491,17.66092 14.7355,24.67487 9.9896,13.50982 10.555,14.95593 11.2892,28.87562 0.6231,11.81206 0.7371,12.27413 5.306,21.49893 4.7012,9.49192 5.5267,12.81514 3.6496,14.69225 -2.4161,2.4161 -5.1601,21.79371 -5.1516,36.38033 0.012,20.58525 2.9602,31.09891 12.1889,43.46531 2.0665,2.76908 4.6893,6.89285 5.8285,9.16392 5.8631,11.68845 5.4661,37.75071 -0.9578,62.87077 -1.7319,6.77257 -3.3087,15.98746 -3.6197,21.15355 -0.4978,8.27132 -0.336,9.50139 1.6796,12.76265 1.2268,1.985 3.1766,4.11539 4.3328,4.7342 1.2875,0.68906 8.5341,1.1686 18.6983,1.23735 l 16.596,0.11225 8.4624,4.19079 c 9.6261,4.76714 14.1373,6.04566 25.4623,7.21626 11.8354,1.22336 21.0657,1.22712 28.0467,0.0114 z m 1.5925,-11.95174 c -1.2984,-1.0817 -3.2109,-1.96673 -4.25,-1.96673 -1.039,0 -1.8892,-0.675 -1.8892,-1.5 0,-1.07232 1.0692,-1.49094 3.75,-1.4682 4.4704,0.0379 7.25,1.88908 7.25,4.82844 0,2.64752 -1.7642,2.68618 -4.8608,0.10649 z m -89.1237,-24.21673 c -4.0223,-2.75896 -6.4718,-8.50395 -5.6022,-13.13933 0.8548,-4.55641 6.0756,-11.61067 8.593,-11.61067 2.6721,0 2.6123,3.2449 -0.1839,9.97326 -2.5758,6.19793 -1.9051,8.0186 3.5138,9.53898 5.0285,1.41087 7.4076,3.88667 5.7055,5.93757 -1.9131,2.30506 -8.1768,1.94057 -12.0262,-0.69981 z m -3.6198,-93.16135 c -0.373,-0.97188 0.7351,-2.78947 3.0068,-4.93194 l 3.5975,-3.39286 0,-10.70526 c 0,-9.63937 0.1735,-10.67183 1.7424,-10.36969 0.9583,0.18456 2.3552,1.61416 3.1042,3.17692 1.9536,4.07597 0.2039,20.74532 -2.5692,24.47654 -2.324,3.12703 -7.929,4.22906 -8.8817,1.74628 z m 5.1043,-85.24487 c -4.6465,-3.5538 -6,-5.18163 -6,-7.21636 0,-3.83952 3.665,-4.10389 5.9276,-0.4276 0.9478,1.54009 4.0518,4.93272 6.8978,7.53914 l 5.1746,4.73898 -3,-0.0226 c -2.0029,-0.0151 -4.9942,-1.54782 -9,-4.61156 z M 1504.62,281.1575 c -0.8422,-2.19496 -0.05,-3.15284 3.1982,-3.86623 4.7555,-1.0445 9.0324,-4.29829 11.1781,-8.50429 2.0751,-4.0676 4.6181,-5.25015 5.6284,-2.61737 0.7103,1.85091 -0.9241,4.81489 -5.3658,9.73135 -5.7232,6.33487 -13.1954,9.01802 -14.6389,5.25654 z m -84.4902,-37.38733 c 4.8495,-0.8801 6.0096,-1.63917 11.6365,-7.61398 5.5514,-5.89466 6.2549,-7.09868 6.2936,-10.77243 0.1324,-12.57903 3.754,-17.87332 13.1009,-19.15193 2.9455,-0.40293 6.3048,-1.09152 7.4651,-1.53021 1.1602,-0.43868 5.7145,-5.67026 10.1206,-11.62574 9.1256,-12.33478 11.561,-14.81412 13.7326,-13.98081 2.4546,0.94192 1.8649,2.74525 -3.7128,11.35554 -2.8875,4.4574 -6.6,10.27077 -8.25,12.9186 -4.178,6.7046 -10.3494,11.15702 -16.6171,11.98845 -6.0061,0.79674 -7.1344,2.703 -6.6774,11.28142 l 0.2945,5.5272 4,0.87522 c 6.8135,1.49081 19.1904,0.0558 32.4039,-3.75707 13.3916,-3.86424 19.786,-6.37629 22.1172,-8.68874 4.0871,-4.05432 15.041,-12.82871 17.7898,-14.25017 3.7245,-1.926 3.4941,-3.15979 -1.7928,-9.59778 -6.1607,-7.50221 -6.3799,-8.28576 -6.9922,-25 l -0.5678,-15.5 -6.4791,-12.70744 c -3.5634,-6.98909 -6.929,-12.83579 -7.479,-12.99267 -0.55,-0.15688 -2.2468,1.96148 -3.7706,4.70745 -2.3913,4.30898 -2.735,5.93713 -2.5096,11.88972 0.2059,5.44129 -0.078,7.11068 -1.3435,7.90915 -2.5277,1.59448 -4.8763,0.10161 -4.8763,-3.09967 0,-5.20236 6.1828,-21.35613 9.7197,-25.39483 1.3118,-1.49786 1.2277,-2.53348 -0.7457,-9.18098 -1.6103,-5.42407 -2.1032,-9.16824 -1.7854,-13.5617 0.2415,-3.33796 0.2714,-6.069022 0.067,-6.069022 -0.2048,0 -2.0335,1.32158 -4.0638,2.936842 -9.6721,7.69511 -25.9848,11.03577 -57.4914,11.77356 l -23.8,0.55733 0.5634,2.61613 c 1.2359,5.73824 -5.0673,17.35861 -11.9264,21.98702 -1.9324,1.30398 -5.1726,3.93558 -7.2003,5.84799 -5.2706,4.97081 -9.7873,7.60595 -18.3366,10.69804 -4.125,1.49191 -9.5344,3.4522 -12.021,4.35619 l -4.5209,1.64361 0.4048,7.04164 c 0.3788,6.59105 -1.7751,27.86303 -3.9455,38.96584 -0.5295,2.7083 -2.5632,8.46911 -4.5195,12.80181 -2.9499,6.53335 -3.3398,8.13914 -2.2849,9.41015 2.1223,2.55732 14.4421,8.27672 26.7489,12.41808 11.4838,3.8644 11.8384,3.91651 26.7516,3.93104 8.3124,0.008 17.5374,-0.42518 20.5,-0.96284 z m 2.8349,-72.47243 c -1.3226,-1.32484 -1.1911,-2.1644 0.623,-3.97857 1.3517,-1.35168 5.3821,-1.57143 28.8219,-1.57143 29.5452,0 34.3142,-0.67726 39.6614,-5.63255 3.3194,-3.07602 5.9453,-3.1001 5.9453,-0.0545 0,3.53316 -4.8225,7.38901 -12.0119,9.6041 -5.7033,1.75723 -9.851,2.03434 -34.2897,2.291 -16.6457,0.17483 -28.1821,-0.0892 -28.75,-0.65801 z m 3.7183,-8.21667 c -1.6981,-1.69806 -0.3033,-4.58565 3.5833,-7.41852 5.3747,-3.91755 9.6513,-6.11028 22.75,-11.66478 19.7181,-8.36143 21.4984,-9.20257 19.5,-9.21286 -1.1,-0.006 -9.9087,0.63725 -19.5749,1.42869 -18.5613,1.51975 -25.5128,3.17294 -30.313,7.20894 -3.6657,3.08214 -7.1121,2.77445 -7.1121,-0.63497 0,-7.2958 20.9353,-12.7215 53.0488,-13.7484 20.1957,-0.6458 22.8002,-0.11951 22.2611,4.49833 -0.3255,2.789 -2.5502,3.9592 -14.3099,7.52713 -10.4452,3.16912 -33.7153,13.61736 -40.2208,18.05906 -6.7167,4.58602 -8.3227,5.24719 -9.6125,3.95738 z m -71.4659,-8.45494 c 7.2161,-1.52733 10.4652,-3.28903 16.112,-8.73593 12.8802,-12.42416 19.6872,-32.0011 19.6872,-56.619962 0,-19.18989 -4.2876,-36.98734 -12.0767,-50.12931 -5.1353,-8.66434 -15.5432,-18.86819 -22.5353,-22.09345 -12.4647,-5.74963 -27.9945,-2.23394 -37.4171,8.47061 -10.4697,11.89421 -17.9709,32.50798 -17.9709,49.38501 0,5.21483 0.2238,5.91671 1.75,5.48904 0.9625,-0.26971 11.7654,-2.84213 24.0065,-5.71648 21.9502,-5.15416 22.2854,-5.19999 24.3524,-3.32937 1.1527,1.0432 2.7248,3.11294 3.4935,4.59943 1.5531,3.00342 1.8469,10.54438 0.4939,12.6804 -0.4991,0.788 -11.7359,4.02145 -26.2347,7.54917 -29.1234,7.086062 -26.6836,5.046852 -22.2207,18.572452 6.3435,19.22544 21.11,35.8097 35.2885,39.63263 5.8559,1.57893 6.8828,1.59796 13.2714,0.24577 z m 32.8958,-15.76811 c 11.8852,-11.88515 18.5541,-29.30148 19.5709,-51.110282 2.1049,-45.14896 -24.551,-84.93447 -53.2926,-79.54251 l -3.7375,0.70115 5.5389,2.25115 c 3.0463,1.23813 6.8842,3.20918 8.5286,4.3801 4.9216,3.50446 14.7606,14.5686 18.6519,20.9743 12.4639,20.51781 16.7254,54.05458 10.1319,79.735812 -1.7844,6.95008 -8.5089,21.52328 -12.1126,26.25 -4.2769,5.60964 -0.4637,3.54448 6.7205,-3.63972 z m 78.363,-34.51184 c 10.867,-2.46972 13.5087,-3.57601 17.835,-7.469132 4.6741,-4.20604 9.7054,-10.82748 9.7054,-12.77274 0,-0.81867 -1.7225,-0.0286 -4.4101,2.02292 -5.2234,3.98712 -18.1708,8.86684 -29.754,11.21389 -6.7646,1.37069 -11.982,1.58799 -28.0724,1.16919 -15.426,-0.40152 -19.7635,-0.23987 -19.7635,0.73651 0,0.68801 -0.2925,2.713622 -0.6501,4.501372 l -0.6501,3.25045 24.4001,-0.53539 c 16.9156,-0.37115 26.5349,-1.02055 31.3597,-2.11707 z m -181.6534,-7.329392 c 0.2281,-2.29204 -0.2821,-3.49157 -2,-4.70244 -2.2365,-1.57643 -2.3333,-1.53376 -3.2034,1.4126 -0.7095,2.4028 -0.5156,3.45963 0.9271,5.05379 2.3977,2.649422 3.8987,2.030242 4.2763,-1.76395 z m 35.765,-4.26905 c 15.8901,-3.85 29.2371,-7 29.66,-7 1.1616,0 0.9214,-4.57102 -0.3917,-7.45295 -0.681,-1.49469 -1.9876,-2.54705 -3.1624,-2.54705 -1.5503,0 -48.372,10.80364 -53.9774,12.45475 -4.831,1.42299 -4.7015,1.23434 -3.0789,4.48705 0.8352,1.67412 1.2318,3.94709 0.8815,5.05104 -0.3504,1.10394 -0.2287,2.00716 0.2703,2.00716 0.4991,0 13.9085,-3.15 29.7986,-7 z m 146.0669,-3.55976 c 11.7748,-3.40114 12.9696,-4.26726 13.5998,-9.85869 0.572,-5.07486 3.0463,-9.58155 5.2604,-9.58155 1.1456,0 1.2463,0.54149 0.477,2.5651 -1.2372,3.25401 -1.2659,8.4349 -0.047,8.4349 0.5107,0 1.6357,-0.70714 2.5,-1.57143 2.0779,-2.07798 2.0916,-12.08794 0.024,-17.25661 l -1.5479,-3.86852 -7.1252,1.61756 c -7.0482,1.60008 -7.1405,1.66331 -8.5355,5.84828 -0.7757,2.3269 -1.9578,4.23072 -2.6269,4.23072 -1.7809,0 -3.6167,-2.13189 -3.6167,-4.2 0,-0.99 -0.4448,-1.8 -0.9886,-1.8 -2.3862,0 -35.01,8.23456 -34.9977,8.83377 0.071,3.47902 1.9842,5.66976 8.1484,9.33184 6.9678,4.13952 8.0905,6.05483 3.9079,6.66727 -5.7984,0.84903 -12.1202,-3.58426 -15.4935,-10.86515 -1.1757,-2.5377 -2.5739,-4.49283 -3.1071,-4.34473 -0.5332,0.1481 -2.8819,0.76085 -5.2194,1.36168 l -4.25,1.09241 0,7.3981 0,7.39809 3.25,0.40332 c 1.7875,0.22183 11.8622,0.47534 22.3881,0.56336 17.823,0.14904 19.7472,-0.0159 28,-2.39972 z m -30.5097,-24.37404 c 11.2044,-2.71359 27.1216,-6.53647 35.3716,-8.4953 20.9149,-4.9659 23.5,-5.70656 23.5,-6.73298 0,-2.18985 -3.019,-7.83981 -4.199,-7.85827 -1.3067,-0.0204 -79.0171,18.11985 -79.626,18.58744 -0.1788,0.13729 -0.015,2.31585 0.3635,4.84126 0.519,3.46101 1.1232,4.59165 2.4535,4.59165 0.9707,0 10.9321,-2.22021 22.1364,-4.9338 z m 72.8172,-0.0274 c 1.5149,-1.07868 4.5093,-2.39294 6.6544,-2.92056 2.145,-0.52762 7.05,-2.11057 10.9,-3.51766 7.5652,-2.7649 10.956,-3.13807 14.8975,-1.63951 3.1627,1.20248 7.6691,-0.23682 9.3952,-3.00074 3.5213,-5.63839 1.4429,-25.81901 -3.4283,-33.28877 -4.1342,-6.33952 -8.1444,-7.50286 -23.8036,-6.90533 -11.8007,0.45029 -14.1306,0.25556 -20.6557,-1.72637 -11.1988,-3.40153 -16.0756,-6.30741 -26.1583,-15.58663 -5.0858,-4.68043 -11.5162,-10.08281 -14.29,-12.00531 -6.7811,-4.69995 -22.1487,-11.22799 -31.9568,-13.57494 -16.7106,-3.99864 -20.0648,-5.07141 -22.25,-7.11615 -4.6518,-4.35286 -1.9903,-8.39896 2.8472,-4.32844 3.8974,3.27948 6.2871,3.42242 5.3776,0.32167 -2.7971,-9.53654 -8.1915,-15.38789 -20.8562,-22.62322 -9.8463,-5.62515 -14.8723,-7.34578 -21.3686,-7.31548 -4.3993,0.0205 -5.25,-0.26739 -5.25,-1.77678 0,-2.01952 2.6524,-3.00034 8.1694,-3.02087 l 3.6694,-0.0137 -1.0165,-3.75 c -1.4176,-5.22921 -6.5309,-14.627655 -9.4509,-17.370845 -1.3435,-1.26213 -4.5585,-3.43877 -7.1446,-4.836973 -5.339,-2.8867 -6.8651,-6.04219 -2.9222,-6.04219 4.2239,0 9.1666,2.70267 13.4591,7.359493 4.3678,4.73843 11.4976,17.890175 12.6972,23.421355 0.6064,2.79589 1.6966,3.78118 7.3753,6.66554 9.1175,4.63095 18.641,11.45645 21.6211,15.49578 1.3624,1.84659 3.5043,6.66183 4.7599,10.70054 l 2.2828,7.3431 3.6092,0.007 c 2.8258,0.006 4.6538,-0.91242 8.4219,-4.22917 7.4662,-6.57196 10.4689,-11.99912 10.4689,-18.9219 0,-6.34857 -2.6497,-14.57279 -6.5438,-20.31109 -2.7129,-3.9977 -3.1563,-6.53064 -1.1433,-6.53064 2.1765,0 6.368,5.09755 10.1324,12.32266 2.9659,5.69251 3.5547,7.85783 3.5547,13.07185 0,9.70524 -2.197,14.711 -9.263,21.10539 -3.3406,3.0231 -5.8494,5.72106 -5.5749,5.99548 0.9933,0.99337 5.4076,0.69301 8.5174,-0.57957 3.9881,-1.63196 8.3205,-0.0273 8.3205,3.08179 0,1.71927 -0.4329,1.93664 -2.75,1.38078 -3.8079,-0.91352 -2.7165,-0.11095 3.9152,2.87905 l 5.6651,2.55422 -1.0308,-2.95686 c -2.4934,-7.15262 2.5151,-3.27846 6.3114,4.88191 2.1836,4.69385 4.5293,6.43165 7.5982,5.6291 1.5419,-0.40321 2.1801,0.0565 2.644,1.90482 0.5585,2.22542 1.2406,2.48863 7.8792,3.04052 6.3383,0.52694 7.5466,0.9523 9.4486,3.32631 1.8509,2.31015 2.4184,2.52503 3.75,1.41987 1.352,-1.12206 1.5691,-0.96708 1.5691,1.12023 0,5.45311001 -6.0155,6.71010001 -8.7965,1.8381 -1.9662,-3.44456 -3.1749,-4.09741 -6.147,-3.32018 -2.0411,0.53376 -2.0589,0.64441 -0.3978,2.4799 1.577,1.74257 12.4613,8.82462 13.5624,8.82462 1.2286,0 4.7789,-20.56663 4.7789,-27.68366 0,-5.68607 -0.7467,-6.55283 -2.8054,-3.25641 -0.9424,1.50917 -2.1225,1.97707 -4.4135,1.75 -3.7217,-0.36886 -4.8725,-2.5168 -1.5981,-2.98283 3.7524,-0.53406 5.3753,-5.19936 3.9261,-11.286 -2.1425,-8.99859 -2.3507,-10.5411 -1.4226,-10.5411 0.5024,0 1.4535,0.54 2.1135,1.2 0.9333,0.93333 1.2,0.46178 1.2,-2.12197 0,-3.25663 -0.044,-3.29022 -2.25,-1.70777 -4.7479,3.40624 -11.0852,6.98261 -14.5942,8.23606 -5.0753,1.81295 -17.5429,1.76197 -21.1172,-0.0863 -3.5649,-1.84353 -7.0386,-6.15874 -7.0386,-8.74377 0,-1.81568 0.2106,-1.77682 2.9746,0.54892 6.9976,5.88813 17.9767,6.13946 27.7767,0.63587 12.7127,-7.1393 16.2004,-11.54109 18.3385,-23.14506 1.3715,-7.44357 0.6623,-13.9178 -2.123,-19.381175 -1.0722,-2.10308 -2.2236,-6.098763 -2.5586,-8.879293 l -0.6092,-5.05551 2.6678,3.79604 c 3.3734,4.79988 7.5106,13.630298 7.5234,16.057558 0.01,1.57136 0.548,1.38104 3.5446,-1.25 3.9152,-3.437605 7.8208,-4.188805 7.284,-1.400985 -0.1804,0.936435 -2.3509,3.243005 -4.8234,5.125705 -4.2759,3.25595 -4.5485,3.76797 -5.5821,10.48579 -1.0696,6.95107 -1.0459,7.09957 1.5,9.39546 4.0053,3.61211 9.7714,6.802 19.5867,10.83581 4.95,2.03429 11.925,5.21044 15.5,7.05809 8.2616,4.26979 16.6124,6.39653 25.1165,6.39653 6.0704,0 6.6501,-0.17636 6.2028,-1.88714 -1.3598,-5.19995 5.1048,-2.007 8.2757,4.08749 2.9872,5.74131 0.663,10.05476 -3.0105,5.58729 -1.2503,-1.52047 -3.6269,-2.8116 -5.9384,-3.22613 l -3.854,-0.69113 3.7584,4.49626 c 2.7198,3.25376 5.8635,5.45851 11.3761,7.97839 12.8962,5.89499 18.6654,6.95529 33.5734,6.17032 11.9643,-0.62998 13.478,-0.50639 19,1.55142 7.7092,2.87289 12.5,7.70801 12.5,12.61573 l 0,3.54009 3.75,-0.70078 c 2.0625,-0.38542 4.2831,-1.14121 4.9347,-1.67953 0.6516,-0.53831 2.6622,-0.83553 4.4681,-0.6605 6.9287,0.67153 10.6725,12.45069 5.3002,16.67651 -1.4008,1.10189 -3.9883,2.31688 -5.75,2.69997 -1.7616,0.38311 -4.2265,1.08225 -5.4774,1.55368 l -2.2744,0.85713 2.6036,3.93436 c 2.5738,3.8893 8.5387,8.69347 11.4452,9.21797 2.9656,0.53519 5.9621,-1.17889 5.7275,-3.27632 -0.1927,-1.72366 0.7935,-2.29512 6.4566,-3.74128 5.3181,-1.35803 7.675,-2.63372 11.5324,-6.24183 3.7624,-3.51934 6.5206,-5.04281 12.3159,-6.80266 12.1566,-3.69161 12.9676,-4.3085 12.9676,-9.86319999 0,-3.34529001 -1.0048,-6.84926001 -3.3935,-11.83355001 -4.6987,-9.80458 -7.3889,-11.02962 -25.6353,-11.6735 -9.1064,-0.32135 -14.7638,-0.9934 -17.3068,-2.0559 -4.203,-1.75613 -33.3894,-21.88885 -38.3018,-26.42048 -11.843,-10.92509 -18.2799,-14.37377 -32.8763,-17.61396 -18.1297,-4.02456 -22.3413,-6.07909 -25.9127,-12.64087 -4.5432,-8.34731 -16.6611,-15.602915 -29.3236,-17.557445 -3.5281,-0.544583 -4.25,-0.379513 -4.25,0.97179 0,2.56926 -2.7857,1.89863 -4.6615,-1.122193 -7.3815,-11.88776 -11.0234,-16.58241 -15.2976,-19.72 -9.9198,-7.2818 -23.3102,-9.83054 -36.9891,-7.04056 l -8.274,1.68756 -3.335,-3.23249 c -3.1636,-3.06629 -3.8907,-3.28145 -14.139,-4.18434 -5.9421,-0.52351 -12.5974,-1.56762 -14.7895,-2.32026 -2.1922,-0.75263 -4.2553,-1.047 -4.5848,-0.65416 -0.3294,0.39284 -1.372,2.8163 -2.3168,5.38548 -3.7729,10.25901 -7.9186,8.79673 -4.6906,-1.65446 1.1429,-3.70009 2.0771,-7.91754 2.0762,-9.37211 l 0,-2.64466 -9.7483,0 c -11.4639,0 -16.0299,-1.59045 -28.7483,-10.01388 -11.3418,-7.51165 -12.979,-9.45496 -11.9607,-14.19666 0.4476,-2.0842 0.8013,-5.92696 0.7861,-8.53946 -0.018,-3.10461 0.3978,-4.75 1.2009,-4.75 2.539,0 3.5822,2.91338 3.3716,9.41649 -0.274,8.4656 0.4473,9.25133 15.0747,16.42041 9.8241,4.81489 12.4541,5.67834 18.3025,6.0088 8.4316,0.47643 14.7519,-1.67996 18.128,-6.18498 7.7738,-10.37322 11.3338,-27.16264 10.1826,-48.02201 -2.273,-41.19296 -17.4836,-60.67827 -46.4224,-59.46929 -10.4676,0.4373 -17.8638,3.45918 -24.038,9.82121 -7.4192,7.64502 -11.9375,20.35082 -10.7153,30.13263 0.535,4.28205 1.1495,5.64717 2.885,6.40888 1.2129,0.53232 2.3491,1.98036 2.5249,3.21786 0.3793,2.67135 0.017,2.73419 -3.9455,0.68492 -4.3861,-2.26815 -7.507,-0.0654 -8.4066,5.93343 -1.0799,7.2012 4.2499,16.31415 11.7187,20.03691 1.2726,0.6343 2.9493,2.47866 3.726,4.09858 1.2519,2.61104 1.1617,4.25333 -0.7947,14.47073 -1.2138,6.33899 -2.8218,13.55043 -3.5734,16.02543 -0.7517,2.475 -1.6391,5.73332 -1.9721,7.24072 -0.4241,1.91985 -5.0604,6.6354 -15.4795,15.74417 -8.1807,7.1519 -15.113,13.62624 -15.4051,14.38743 -0.2921,0.76118 -0.056,1.85856 0.5235,2.43861 1.9264,1.92639 0.061,3.7827 -4.9662,4.94323 -7.637,1.76283 -16.4511,7.45482 -21.674,13.996633 -6.3279,7.925975 -8.2792,12.512465 -9.0409,21.251105 -0.5539,6.35422 -0.2766,8.72548 1.8125,15.5 1.3565,4.39896 2.9814,11.82311 3.6108,16.49811 2.0373,15.13072 4.9412,20.96101 18.0469,36.23366 7.9985,9.32096 10.5044,10.62276 16.8763,8.76693 2.543,-0.74067 6.7245,-1.53474 9.2921,-1.76463 l 4.6683,-0.41798 -0.5451,-5.659 -0.5451,-5.65899 3.7047,4.25 c 5.3069,6.08813 6.587,5.26756001 1.4165,-0.90803 -4.3859,-5.23847 -6.9572,-6.71753 -23.219,-13.35618 -9.2408,-3.77243 -17.8646,-10.29163 -21.2455,-16.06077 -3.5565,-6.06873 -4.7082,-18.97715 -1.9401,-21.74523 2.5952,-2.59524 3.3954,-1.24018 3.2969,5.5829 -0.1265,8.75883 1.5041,12.75202 7.5332,18.44806 6.2503,5.90512 10.899,8.62248 24.5413,14.34532 8.5002,3.56577 11.2443,5.27993 15.4607,9.65779 6.0836,6.31644 11.9847,8.63808001 14.2337,5.5998 1.2553,-1.69582 1.6228,-1.54064 5.6568,2.38851001 2.3729,2.31117999 6.5643,5.18857999 9.3143,6.39419999 2.75,1.20563 7.5256,4.52108 10.6124,7.36767 8.7667,8.0845 12.8089,9.03597 38.3876,9.03597 17.6214,0 21.483,0.26508 24.0024,1.64762 4.5476,2.49563 6.4775,5.12643 7.3081,9.96232 0.7103,4.13561 0.926,4.37138 3.7218,4.06783 1.6322,-0.17722 3.5126,-1.02662 4.1785,-1.88755 1.0313,-1.33319 1.6645,-1.37739 4.2703,-0.29806 4.4318,1.83572 7.6716,6.20594 8.4503,11.39892 0.763,5.08834 -0.3873,8.14274 -3.4303,9.10858 -3.0255,0.96026 -2.4086,3.93533 1.5337,7.39675 4.0889,3.59008 7.4945,3.93102 11.4108,1.14234 z m -6.4511,-33.0477 c -2.6107,-4.2241 6.5895,-9.52456 18.9747,-10.93187 5.835,-0.66301 9.457,-1.5874 10.7284,-2.73802 1.4264,-1.29085 2.3387,-1.47264 3.5514,-0.70768 4.8635,3.06782 -0.5145,5.98275 -12.3454,6.6914 -8.6327,0.51707 -12.4415,1.94003 -16.3279,6.10011 -2.6243,2.80906 -3.6137,3.15159 -4.5812,1.58606 z m -25.6807,-8.10972 c -1.6104,-1.72741 -3.713,-2.88138 -5.25,-2.88138 -1.8971,0 -2.5638,-0.52006 -2.5638,-2 0,-1.49341 0.6667,-2 2.632,-2 5.2624,0 11.7686,5.9247 9.8735,8.99105 -0.905,1.46433 -1.6879,1.11228 -4.6917,-2.10972 z m -62.3138,-14.10864 c -4.154,-1.48071 -11.2618,-6.45913 -12.485,-8.74470999 -0.5582,-1.04311 -1.015,-3.05113001 -1.015,-4.46229001 0,-3.90309 3.3408,-3.39992 4.5432,0.68426 0.7674,2.60669001 2.1304,3.83623001 6.8856,6.2116 5.0727,2.53393 7.311,3.01255 15.5,3.31436 11.2385,0.4142 12.2299,0.64685 11.4474,2.68619 -0.4827,1.25771 -2.5289,1.52347 -11.2332,1.45891 -5.8536,-0.0434 -11.993,-0.56017 -13.643,-1.14832 z m -30.6881,-20.02274 c -1.7376,-3.15879 -3.0406,-4.33124 -5.0749,-4.56642 -1.9467,-0.22506 -2.737,-0.88379 -2.737,-2.28139 0,-2.73957 2.2813,-3.32523 5.8215,-1.49452 4.108,2.12433 7.1785,6.28503 7.1785,9.72719 0,4.23487 -2.4575,3.57889 -5.1881,-1.38486 z m 287.1881,-0.66843 c 0,-2.29789 5.7287,-6.09655 9.118,-6.04612 1.3101,0.0195 3.4656,0.63588 4.7901,1.36977 2.1047,1.16626 3.3391,1.01507 9.7995,-1.2002 6.7142,-2.30233 7.5352,-2.39081 8.9602,-0.96574 1.9926,1.99259 0.7582,4.1054 -1.9801,3.3893 -1.1477,-0.30012 -4.0791,0.33568 -6.5143,1.41288 -5.1065,2.25886 -8.1943,2.44206 -12.8407,0.76188 -2.9287,-1.05901 -3.6512,-0.94397 -6.2805,1 -3.6547,2.702 -5.0522,2.77896 -5.0522,0.27823 z m -236.5,-9.3601 c -6.3409,-2.82922 -8.1584,-3.16128 -19.3032,-3.52667 -10.7209,-0.3515 -12.2628,-0.61366 -11.9884,-2.03839 0.4056,-2.10587 8.2982,-3.40729 15.7916,-2.60387 12.5582,1.34645 25.4093,6.09426 24.8132,9.16717 -0.4852,2.50117 -1.7817,2.36219 -9.3132,-0.99824 z m -64.7988,-6.35357 c -0.3856,-0.38567 -0.7012,-2.14613 -0.7012,-3.91212 0,-1.76599 -0.6348,-3.73777 -1.4108,-4.38173 -2.3213,-1.92653 -8.2163,-2.40762 -14.457,-1.17984 -4.2709,0.84025 -6.6572,0.85911 -8.7521,0.0692 -5.9275,-2.23521 -13.0921,-11.65139 -10.6917,-14.05181 1.5238,-1.52373 4.009,-0.0564 5.3377,3.15144 0.6651,1.60561 2.6495,3.80943 4.4098,4.89738 2.8374,1.75357 4.3366,1.90888 13.2093,1.36832 l 10.0087,-0.60976 3.3242,2.97014 c 2.7609,2.46686 3.3409,3.71386 3.423,7.35964 0.072,3.21544 -0.3153,4.47388 -1.4499,4.70495 -0.8518,0.1735 -1.8643,-1.1e-4 -2.25,-0.38578 z m 92.7534,-2.82245 c -2.887,-2.88695 -3.2753,-5.10439 -0.7046,-4.02384 4.6683,1.96224 6.25,1.78381 6.25,-0.70503 0,-6.95831 8.0261,-6.43839 16.25,1.05265 4.6619,4.24645 3.3136,6.9351 -1.5567,3.10416 -1.417,-1.11463 -4.1777,-2.69567 -6.1348,-3.51342 l -3.5585,-1.48681 0,2.81342 c 0,1.54739 -0.54,3.35343 -1.2,4.01342 -2.018,2.01797 -6.7017,1.38923 -9.3454,-1.25455 z m 101.8719,-31.31824 c -4.8206,-7.5735 -5.3302,-8.02663 -14.1498,-12.58178 -7.8781,-4.06891 -11.1767,-6.74857 -11.1767,-9.07968 0,-2.09395 6.1886,0.31702 13.6845,5.33123 11.5763,7.74373 20.5694,17.05304 20.1323,20.84029 -0.5947,5.15367 -3.2306,3.75344 -8.4903,-4.51006 z m -200.3617,-48.769588 c -0.8142,-0.98114 -0.9321,-1.89032 -0.3238,-2.49857 0.5259,-0.5259 7.2943,-1.38235 15.0409,-1.90323 7.7466,-0.52088 19.4248,-1.69144 25.9514,-2.60123 l 11.8667,-1.65418 6.75,3.05797 c 4.0925,1.85403 6.75,3.665 6.75,4.5998 0,2.17825 -3.8793,1.95591 -9.6671,-0.55406 -5.602,-2.42943 -9.6729,-2.29696 -31.3329,1.01957 -16.4088,2.51248 -23.2716,2.65885 -25.0352,0.53393 z m 73.0352,-2.30422 c 0,-2.82093 6.5512,-8.98256 10.2551,-9.64526 7.3698,-1.31861 16.8699,-2.11485 17.2818,-1.44845 0.9445,1.52825 -2.759,3.16291 -9.5462,4.21346 -6.318,0.97795 -7.4698,1.5148 -10.5394,4.91239 -3.702,4.09769 -7.4513,5.08787 -7.4513,1.96786 z m -38.5,-15.92131 c -5.1087,-1.07932 -14.1106,-14.93386 -13.3165,-20.49511 0.4462,-3.12472 3.8096,-3.61567 3.8385,-0.5603 0.041,4.3117 3.9755,11.29789 8.7411,15.5198 4.711,4.17351 5.0126,6.43892 0.7369,5.53561 z m 27.5,179.294148 c 8.2858,-2.03688 8.9476,-2.34756 5.1781,-2.4308 -2.7084,-0.0598 -5.9751,-1.06425 -8.75,-2.69046 -7.3484,-4.30642 -5.0417,-8.28913 2.556,-4.41311 4.8308,2.46448 9.5701,1.98816 10.5372,-1.05905 0.8487,-2.67391 4.3005,-3.30346 13.8599,-2.52781 7.9084,0.64168 8.3339,0.56605 11.7367,-2.08627 4.2808,-3.3366 7.3251,-7.20923 6.3967,-8.13713 -0.3751,-0.37489 -10.8818,-0.68748 -23.3483,-0.69466 -12.4664,-0.007 -23.3306,-0.23217 -24.1426,-0.5 -0.9551,-0.31506 -1.5965,0.30026 -1.8169,1.74312 -0.6061,3.96785 -5.0147,6.47078 -10.7423,6.09884 l -5.065,-0.32891 2.7199,6.5 c 1.4959,3.575 3.0368,8.21764 3.4241,10.31697 0.6922,3.75167 0.7663,3.80609 4.3304,3.18081 1.9943,-0.3499 7.9011,-1.68709 13.1261,-2.97154 z m 29.7584,-6.72114 18.2585,-4.19823 -0.6411,-3.55343 c -0.3526,-1.95439 -0.7879,-3.72245 -0.9674,-3.92901 -0.1794,-0.20656 -1.5235,1.0474 -2.987,2.78659 -3.5053,4.16584 -8.3783,6.10844 -16.9214,6.74561 -8.6434,0.64464 -12.7306,1.83568 -15.0341,4.38102 -0.9767,1.07929 -1.3686,1.9631 -0.8709,1.96401 0.4978,9.2e-4 9.1213,-1.88753 19.1634,-4.19656 z m 351.2416,-1.10584 c 11.2808,-4.13984 21.8393,-18.99505 27.1888,-38.25324 1.8898,-6.80323 2.2009,-10.39094 2.1629,-24.94602 -0.039,-15.09189 -0.3405,-18.12242 -2.6829,-27 -11.1976,-42.43838 -43.0544,-60.991748 -66.7185,-38.85675 -9.9284,9.28691 -17.8836,27.22985 -19.9082,44.90306 -1.4609,12.75293 -1.3643,15.45369 0.5528,15.45369 0.8772,0 11.7351,-2.47499 24.1287,-5.5 12.3935,-3.025 23.3412,-5.5 24.3281,-5.5 0.987,0 3.1791,1.38463 4.8714,3.07693 2.3597,2.35975 3.0769,3.96548 3.0769,6.88921 0,6.68369 -1.0927,7.20963 -28.2608,13.60262 -13.6184,3.20459 -25.3028,6.16156 -25.9654,6.57106 -1.4876,0.9194 1.9714,12.33923 6.47,21.36018 8.609,17.26371 19.4861,27.24543 32.7562,30.05965 6.3801,1.35305 10.3663,0.94106 18,-1.86039 z m 28.7684,-15.42778 c 14.9784,-19.0173 20.7096,-48.30039 14.8296,-75.77148 -4.649,-21.71985 -16.9215,-41.48232 -30.2401,-48.695775 -5.6127,-3.03989 -15.0082,-5.024153 -19.5184,-4.122133 -3.0762,0.615253 -3.0383,0.657093 3.1323,3.458173 7.4894,3.39971 19.6918,15.229565 24.9451,24.183645 8.3681,14.26322 13.0831,33.44349 13.0831,53.22132 0,20.43924001 -4.1828,36.35087 -13.1783,50.13054 l -4.8623,7.44822 4.4193,-3.04052 c 2.4306,-1.67229 5.756,-4.73768 7.3897,-6.81199 z m -169.8334,-19.7313 c 1.6837,-1.04057 1.2435,-4.06864 -0.8694,-5.98077 -1.8549,-1.67873999 -4.1193,-1.23289 -55.1882,10.86656 -29.2896,6.93941 -53.4483,12.81164 -53.6861,13.04939 -0.2377,0.23773 -0.1372,2.39962 0.2234,4.80417 l 0.6556,4.37192 53.8998,-13.22652 c 29.6449,-7.27459 54.3791,-13.52272 54.9649,-13.88475 z m -253.2494,19.28551 c 1.2729,-1.19588 2.3144,-2.53949 2.3144,-2.98582 0,-0.44632 -1.9125,-2.05092 -4.25,-3.56581 -2.3375,-1.51486 -6.4279,-4.44625 -9.0898,-6.51418 -2.6619,-2.06794 -5.4069,-3.75988 -6.1,-3.75988 -0.693,0 -3.0151,-1.26411 -5.1602,-2.80914 -5.4378,-3.91679 -7.2039,-4.41068 -11.1342,-3.11358 l -3.4289,1.13164 4.985,3.35706 c 2.7417,1.84638 7.6159,6.34628 10.8315,9.99978 8.5579,9.72325 16.2563,12.74662 21.0322,8.25993 z m 188.0644,-17.49814 45.25,-10.69020999 0,-3.36642001 c 0,-4.25462 -3.4119,-7.5827 -10.0258,-9.77948 -3.9519,-1.31261 -7.2863,-1.48576 -18.1575,-0.94286 -10.6163,0.53017 -14.7231,0.3334 -20.2521,-0.97037 -10.2162,-2.40906 -19.0018,-7.16654 -27.0991,-14.67447 -6.5626,-6.0849 -7.6815,-6.72808 -13.4818,-7.74978 -3.4788,-0.61279 -7.9583,-2.19488 -9.9543,-3.51577 -5.9906,-3.96444 -12.9529,-7.18425 -24.0294,-11.11277 -5.775,-2.04823 -12.3847,-4.75715 -14.6882,-6.01982 -2.3036,-1.26267 -4.3889,-2.09514 -4.6341,-1.84993 -0.2452,0.24521 -0.2653,15.3855 -0.044,33.64509 l 0.4013,33.19925 4.2328,0.67588 c 2.328,0.37173 10.0531,0.70923 17.167,0.75 15.1515,0.0868 19.2013,1.4678 25.3292,8.63708 2.0551,2.4043 3.9615,4.39021 4.2365,4.41313 0.275,0.0229 20.8625,-4.76892 45.75,-10.64854 z m 161.1767,-24.80521 c 19.4847,-4.66165 35.8542,-8.90327 36.3768,-9.42582 1.2839,-1.28388 0.07,-5.73918 -1.7543,-6.43926 -1.5519,-0.59551 -73.4547,17.01289 -74.8843,18.33855 -1.1913,1.10467 2.0997,7.02972 3.593,6.46882 0.6832,-0.25661 17.1841,-4.28064 36.6688,-8.94229 z m 113.1547,-27.98618 c 9.4854,-2.45511 17.6373,-4.85487 18.1152,-5.33278 1.2773,-1.27725 -0.1482,-4.20181 -2.0536,-4.21324 -0.9036,-0.005 -8.9555,1.65148 -17.893,3.682 l -16.25,3.69185 0,3.31801 c 0,1.8249 0.1879,3.318 0.4175,3.318 0.2297,0 8.1784,-2.00873 17.6639,-4.46384 z"
       id="path3003"
       inkscape:connector-curvature="0" />
  </g>
</svg>
