<?xml version="1.0" encoding="UTF-8" standalone="no"?>
<!-- Created with Inkscape (http://www.inkscape.org/) -->

<svg
   xmlns:dc="http://purl.org/dc/elements/1.1/"
   xmlns:cc="http://creativecommons.org/ns#"
   xmlns:rdf="http://www.w3.org/1999/02/22-rdf-syntax-ns#"
   xmlns:svg="http://www.w3.org/2000/svg"
   xmlns="http://www.w3.org/2000/svg"
   xmlns:xlink="http://www.w3.org/1999/xlink"
   xmlns:sodipodi="http://sodipodi.sourceforge.net/DTD/sodipodi-0.dtd"
   xmlns:inkscape="http://www.inkscape.org/namespaces/inkscape"
   width="781.93695"
   height="897.29553"
   id="svg2"
   version="1.1"
   inkscape:version="0.48.3.1 r9886"
   sodipodi:docname="Barbell-upright-rows-1.svg">
  <defs
     id="defs4">
    <radialGradient
       gradientUnits="userSpaceOnUse"
       gradientTransform="matrix(1,0,0,0.91819829,-19.285714,-7.9105395)"
       r="209.56604"
       fy="287.50052"
       fx="398.1105"
       cy="287.50052"
       cx="398.1105"
       id="radialGradient5255"
       xlink:href="#linearGradient5249"
       inkscape:collect="always" />
    <linearGradient
       id="linearGradient5249"
       inkscape:collect="always">
      <stop
         id="stop5251"
         offset="0"
         style="stop-color:#e3e3e3;stop-opacity:1;" />
      <stop
         id="stop5253"
         offset="1"
         style="stop-color:#e3e3e3;stop-opacity:0;" />
    </linearGradient>
  </defs>
  <sodipodi:namedview
     id="base"
     pagecolor="#ffffff"
     bordercolor="#666666"
     borderopacity="1.0"
     inkscape:pageopacity="0.0"
     inkscape:pageshadow="2"
     inkscape:zoom="0.35"
     inkscape:cx="-146.79503"
     inkscape:cy="94.850954"
     inkscape:document-units="px"
     inkscape:current-layer="layer1"
     showgrid="false"
     showguides="true"
     inkscape:guide-bbox="true"
     fit-margin-top="0"
     fit-margin-left="0"
     fit-margin-right="0"
     fit-margin-bottom="0"
     inkscape:window-width="1201"
     inkscape:window-height="886"
     inkscape:window-x="165"
     inkscape:window-y="74"
     inkscape:window-maximized="0">
    <sodipodi:guide
       orientation="-0.70710678,0.70710678"
       position="-2558.0874,589.02873"
       id="guide2985" />
  </sodipodi:namedview>
  <metadata
     id="metadata7">
    <rdf:RDF>
      <cc:Work
         rdf:about="">
        <dc:format>image/svg+xml</dc:format>
        <dc:type
           rdf:resource="http://purl.org/dc/dcmitype/StillImage" />
        <dc:title></dc:title>
      </cc:Work>
    </rdf:RDF>
  </metadata>
  <g
     inkscape:label="Ebene 1"
     inkscape:groupmode="layer"
     id="layer1"
     transform="translate(-1129.5159,281.61888)">
    <path
       style="fill:#000000"
       d="m 1433.0756,612.57776 c -6.2753,-3.1608 -17.756,-11.7832 -19.6339,-14.7458 -1.9079,-3.0099 -5.4691,-16.7748 -6.2773,-24.2628 -0.8787,-8.1419 -1.8838,-11.2097 -7.8628,-24 -4.1086,-8.7891 -5.0992,-11.9044 -4.9286,-15.5 0.204,-4.2986 0.2254,-12.8992 0.054,-21.5 -0.044,-2.2 0.5201,-7.3045 1.2534,-11.3433 1.9464,-10.72 0.2422,-23.042 -7.1447,-51.6567 -7.6233,-29.5306 -7.8939,-34.6679 -3.0782,-58.427 2.8176,-13.901 3.7823,-16.7698 9.7522,-29 l 6.6253,-13.57297 1.7965,-15.00154 c 0.9881,-8.25084 2.0974,-25.57584 2.4653,-38.5 0.3679,-12.92415 1.3454,-29.98755 2.1724,-37.91867 1.2493,-11.98154 1.278,-14.54639 0.1702,-15.16639 -0.7334,-0.4104 -3.5781,-2.25413 -6.3216,-4.09718 -3.8763,-2.60403 -4.9594,-3.90438 -4.8593,-5.83361 0.071,-1.36543 1.7727,-9.68261 3.7819,-18.48261 4.7037,-20.60266 9.3718,-46.4108 10.1766,-56.26278 0.4254,-5.20779 0.072,-11.49677 -1.08,-19.23722 -2.6216,-17.61 -0.6987,-26.43838 8.3786,-38.468114 5.4774,-7.2589 6.2942,-10.66742 6.2133,-25.928429 -0.1593,-30.05853 -4.9136,-43.65108 -24.2622,-69.3648303 -12.896,-17.1383497 -15.7466,-22.4201397 -19.9418,-36.9498397 -3.4563,-11.9704 -5.6815,-16.90854 -10.2143,-22.66753 -4.0115,-5.09654 -7.9638,-6.6113 -17.3989,-6.66817 -4.2801,-0.0258 -12.7218,-0.8613 -18.7592,-1.85667 -6.7096,-1.10619 -12.1524,-1.51165 -14,-1.04295 -1.6626,0.42175 -6.443,1.49795 -10.623,2.39155 l -7.6002,1.62473 -0.6279,10.26267 c -2.2889,37.40931 -19.3699,71.0954 -41.5346,81.91218 -6.203,3.02714 -7.3241,3.2386 -17.1372,3.23227 -11.9667,-0.008 -16.4691,-1.50961 -25.5667,-8.52831 -13.4282,-10.35982 -26.9789,-35.5986199 -30.6703,-57.12484 -0.6435,-3.75304 -1.6728,-6.82372 -2.2872,-6.82372 -0.6144,0 -10.0535,1.8 -20.9758,4 -10.9223,2.2 -21.0706,4 -22.552,4 -1.9089,0 -3.8953,-1.30408 -6.8206,-4.47766 -5.1926,-5.63329 -5.5818,-10.21931 -1.3611,-16.03993 l 2.7663,-3.81495 23.9837,-4.58612 23.9837,-4.58613 0.6753,-10.17211 c 1.6654,-25.08453 7.712,-44.413477 19.3789,-61.947637 6.48,-9.73896 14.3411,-17.19485 22.196,-21.05203 4.6975,-2.30669 7.3688,-2.88805 14.5958,-3.17651 10.8714,-0.43392 15.4185,0.76913 24.1585,6.39171 6.6894,4.30334 6.782,4.32907 8.3992,2.33197 2.6446,-3.26599 45.0957,-17.52621 59.5672,-20.0099 11.5403,-1.98062 12.2598,-1.99364 20,-0.36203 4.416,0.93087 13.3719,3.46477 19.9019,5.63088 12.5196,4.15291 25.0991,5.79611 44.7677,5.84776 l 8.6404,0.0227 2.1726,-8.05192 c 2.3453,-8.69154 5.0011,-20.67813 5.0291,-22.69808 0.01,-0.6875 -0.6124,-1.25 -1.3823,-1.25 -1.8784,-1e-5 -10.8697,-9.94067 -12.9428,-14.30945 -2.8821,-6.07358 -1.4431,-17.40857 2.8806,-22.69056 0.7195,-0.87891 1.4172,-5.84761 1.6851,-12 0.4019,-9.23143 0.8278,-11.22972 3.5253,-16.53989 10.8696,-21.39753 33.5501,-29.51927 57.3568,-20.53909 9.23,3.4817 14.4063,7.56504 19.7861,15.60848 5.4739,8.18415 8.6243,15.72614 10.6394,25.4705 1.8087,8.74624 2.8937,41.76055 1.6468,50.11005 -1.1842,7.92972 -7.633,21.97942 -12.2366,26.65925 -3.0909,3.14204 -3.1479,3.34458 -1.4656,5.20356 0.9628,1.06385 4.2113,2.48497 7.2189,3.15805 6.5769,1.47182 6.3449,1.72064 9.2713,-9.94713 1.1649,-4.64464 2.7923,-9.74876 3.6165,-11.34248 0.8241,-1.59373 7.8994,-9.2975 15.7227,-17.11949 13.0133,-13.01093 14.8984,-15.37123 22.1413,-27.72181 11.8014,-20.12393 22.2076,-29.794 36.0539,-33.50338 4.7805,-1.28067 8.5831,-1.47229 18.7086,-0.94276 11.742,0.61406 13.0477,0.50049 17.166,-1.49315 4.0656,-1.96812 4.7504,-2.03332 7.7914,-0.74183 8.0378,3.41358 12.2516,10.20824 12.3003,19.83396 0.028,5.51058 -0.5105,7.74263 -3.1358,13 -7.4899,14.99889 -12.3335,26.56095 -12.3321,29.4372 0,5.29861 -3.8649,18.50948 -7.1248,24.33671 -1.7148,3.06529 -5.0789,8.34127 -7.4757,11.7244 -3.0515,4.30725 -3.8393,6.02444 -2.6279,5.72847 0.9515,-0.23247 12.08,-2.40544 24.73,-4.82883 31.5361,-6.04144 97.8234,-20.50032 98.8004,-21.55079 0.2558,-0.275 0.9779,-6.38634 1.6046,-13.58075 3.2995,-37.87717 19.2687,-68.99212 40.8686,-79.62983 6.2119,-3.05926 7.3838,-3.28942 16.749,-3.28942 9.621,0 10.4086,0.16729 17.6684,3.75261 4.1792,2.06393 9.8789,5.80285 12.666,8.30872 11.9009,10.6999 22.4069,32.09615 27.0173,55.02208 l 1.6256,8.08341 19.7628,-4.49556 c 17.7012,-4.02661 20.0311,-4.35194 22.3353,-3.11877 5.0502,2.70279 6.9908,10.97427 3.9529,16.84886 -1.5648,3.02598 -3.2563,3.50245 -32.7138,9.21492 -13.2456,2.56862 -12.8309,2.12432 -12.8431,13.75873 -0.029,27.64103 -15.0362,63.56928 -32.2808,77.282197 -11.3764,9.04647 -24.625,12.02327 -37.2982,8.38042 -20.9643,-6.02607 -38.5676,-31.390457 -44.8801,-64.667137 -0.8587,-4.52657 -1.7389,-8.40784 -1.9561,-8.62504 -0.2172,-0.2172 -4.5988,0.54332 -9.7369,1.69006 -26.9823,6.02204 -72.5556,15.77961 -105.8419,22.66151 l -37.5,7.75308 -12.5,10.21036 c -17.2857,14.119457 -19.5577,16.842377 -17.8348,21.374077 0.5311,1.39687 1.2242,6.20409 1.5403,10.68269 0.5435,7.70219 0.411,8.44508 -2.4492,13.72583 -3.0197,5.57537 -3.0219,5.5914 -1.617,11.86993 5.7601,25.74151 5.5939,40.42688 -0.648,57.2870197 -2.1009,5.67472 -2.2188,7.4908503 -2.1744,33.5000003 0.085,49.503759 -0.1005,45.43334 2.1584,47.47768 1.7245,1.560639 2.0247,3.068429 2.0247,10.169869 0,7.546224 0.4673,9.581704 4.9234,21.445474 2.7079,7.20935 7.0244,16.72384 9.5923,21.14332 6.3833,10.98603 7.4824,14.59846 7.4962,24.63939 0.014,10.55223 1.6991,17.2225 6.2686,24.82158 8.2008,13.63778 8.9885,17.01801 4.5224,19.4082 -2.2586,1.20872 -2.2665,0.36181 0.2044,21.89449 0.5995,5.225 1.0177,16.25 0.9292,24.5 -0.1443,13.4537 0.1172,16.03087 2.5362,25 2.5352,9.40031 2.6483,10.71962 1.8848,22 -1.2751,18.83863 -0.8458,47.81872 1.1021,74.41207 1.1232,15.3336 1.5558,28.3496 1.1633,35 -0.3436,5.8234 -0.8922,18.0129 -1.219,27.0879 l -0.5942,16.5 8.7205,12 c 10.2368,14.0866 13.3948,17.6163 19.4698,21.7614 2.475,1.6887 6.6512,5.0516 9.2803,7.473 5.8271,5.3665 12.4984,8.4142 25.7983,11.7856 10.3455,2.6224 18.0041,5.6699 19.8556,7.9007 0.5698,0.6866 1.1552,3.9894 1.3009,7.3397 0.212,4.875 -0.1506,6.6554 -1.8156,8.9155 -2.6103,3.5433 -10.807,9.0417 -15.4195,10.3435 -5.891,1.6626 -31.659,2.3119 -43.4943,1.096 -9.4342,-0.9693 -11.6336,-1.55 -15.5,-4.0924 -2.4781,-1.6296 -6.9807,-4.195 -10.0057,-5.7011 -5.3656,-2.6713 -5.8901,-2.7336 -21.4697,-2.5507 -8.7833,0.1032 -17.6159,-0.2557 -19.6278,-0.7974 -2.2527,-0.6066 -5.242,-2.7032 -7.7803,-5.4571 -3.8421,-4.1681 -4.1222,-4.8662 -4.1222,-10.2742 0,-7.4648 2.6747,-29.1351 4.4732,-36.2425 4.3883,-17.341 5.5143,-39.9601 2.5048,-50.3172 -0.61,-2.0995 -4.0877,-8.1745 -7.7282,-13.5 -10.6501,-15.5794 -13.2498,-25.1328 -13.2498,-48.69 0,-11.26948 0.5341,-17.01549 2.5,-26.89558 3.3182,-16.67624 3.2425,-18.6133 -1,-25.59719 -3.4203,-5.63044 -3.5,-6.00412 -3.5,-16.41293 0,-6.83341 -0.4985,-11.84432 -1.3907,-13.97963 -0.7648,-1.83057 -5.886,-10.04991 -11.3804,-18.2652 -5.4944,-8.21529 -11.2216,-17.36772 -12.7271,-20.33874 -2.3815,-4.69963 -2.8947,-5.18664 -3.9479,-3.74633 -0.6658,0.91053 -2.0025,7.86266 -2.9705,15.44917 -2.693,21.10592 -5.4828,36.27793 -7.5159,40.87407 -2.4372,5.50959 -8.3278,14.6525 -11.1107,17.24525 -1.5788,1.47086 -2.6069,4.2539 -3.5279,9.55008 -1.0145,5.83436 -3.2336,11.3853 -10.1139,25.29928 l -8.8142,17.82495 0.4931,15.5 c 0.2713,8.525 0.4838,21.575 0.4724,29 -0.02,12.9584 -0.1467,13.7809 -3.1601,20.5 -4.5175,10.0727 -5.9474,16.6369 -8.255,37.8961 -2.7249,25.1023 -2.6559,27.7032 1.015,38.2743 6.8516,19.7301 22.999,46.0969 37.5438,61.3045 13.5498,14.1672 14.5226,17.014 9.4665,27.7014 -3.1399,6.6372 -5.6915,8.918 -11.1288,9.9474 -1.8962,0.359 -4.369,1.7671 -5.495,3.1292 -1.6011,1.9367 -3.7807,2.7849 -10,3.8913 -4.374,0.7782 -9.9777,1.8247 -12.4527,2.3257 -8.4437,1.7092 -15.215,1.2278 -20.5537,-1.4613 z m 21.2688,-7.223 c 2.6317,-0.9429 7.2599,-1.7304 10.2849,-1.75 l 5.5,-0.036 0,-5.5 c 0,-5.2852 0.1097,-5.5126 2.8096,-5.8222 2.3567,-0.2702 2.9996,0.181 3.9877,2.7988 1.0025,2.6559 1.5523,3.0293 3.6903,2.5064 1.3818,-0.3381 3.0508,-1.1475 3.7089,-1.7988 1.8551,-1.8361 3.6931,-9.9956 2.9334,-13.0225 -0.3924,-1.5637 -4.3377,-6.2154 -9.2794,-10.941 -14.7879,-14.1411 -35.1639,-47.9325 -41.4313,-68.7095 -2.2359,-7.4121 -2.2421,-7.5963 -0.6082,-18 0.9079,-5.7812 1.9199,-15.9112 2.2487,-22.5112 0.6577,-13.1991 2.8851,-23.0124 7.7172,-34 2.7287,-6.2048 3.1214,-8.3065 3.457,-18.5 0.2083,-6.325 0.016,-14.8382 -0.4276,-18.9183 l -0.8063,-7.4182 -3.2672,5.2623 c -4.0142,6.4656 -6.5207,14.2287 -9.2259,28.5742 -2.8358,15.0383 -3.9026,18.7003 -5.3129,18.2375 -1.9159,-0.6286 -1.975,-5.3656 -0.2013,-16.1542 2.9031,-17.6577 6.3371,-29.5279 11.1049,-38.3852 2.4578,-4.5661 5.5551,-12.3609 6.8827,-17.3219 1.3277,-4.961 3.538,-10.93811 4.9119,-13.28247 1.3739,-2.34437 3.8083,-6.69951 5.4098,-9.67811 1.6014,-2.9786 4.291,-7.89063 5.9768,-10.91563 1.6859,-3.025 3.3654,-7.3 3.7323,-9.5 0.8611,-5.16231 3.5334,-12.5 4.5524,-12.5 1.6014,0 10.571,-14.7118 12.2071,-20.02179 0.9284,-3.01301 2.6191,-13.80321 3.7572,-23.97821 1.1381,-10.175 2.3212,-19.5125 2.6292,-20.75 0.3079,-1.2375 0.3396,-2.25 0.071,-2.25 -0.2692,0 -3.5805,1.17768 -7.3585,2.61707 -3.7779,1.43939 -12.494,4.40399 -19.369,6.588 -11.4266,3.62995 -13.187,3.92737 -20.5,3.46357 -6.8961,-0.43736 -17.7242,-3.3231 -26.6036,-7.08995 -1.3875,-0.58863 -1.6989,0.70469 -2.3116,9.60119 -0.7469,10.84456 -1.155,14.59133 -2.6486,24.32012 -0.5066,3.3 -0.9245,14.90524 -0.9287,25.78941 -0.01,21.51401 -1.2813,36.50155 -3.7079,43.64942 -0.8516,2.50864 -4.2238,10.60848 -7.4938,17.99968 -7.1723,16.2118 -10.6356,28.4893 -11.4654,40.6443 -0.6876,10.0717 -0.4842,11.2351 6.3676,36.4172 5.7603,21.1702 8.179,33.7431 8.9212,46.3735 0.5204,8.8556 0.3288,10.7932 -1.5269,15.4386 -2.025,5.0691 -2.0502,5.5593 -0.5508,10.7172 1.4562,5.009 1.4415,5.8169 -0.1995,11.0231 l -1.7709,5.6179 5.6719,11.1648 c 4.4103,8.6814 5.912,12.8332 6.7513,18.6649 0.5937,4.125 2.1856,11.0107 3.5376,15.3016 1.3519,4.2909 2.4581,8.9904 2.4581,10.4434 0,3.3044 8.4888,11.8095 15,15.0286 5.542,2.74 13.9188,2.947 20.715,0.5119 z m -13.9506,-10.903 c -1.056,-2.3178 -0.9194,-2.8387 1.1929,-4.5492 3.4497,-2.7934 10.4163,-2.2217 10.8588,0.8911 0.231,1.6253 -0.5769,2.7689 -3,4.2462 -4.6115,2.8116 -7.5909,2.618 -9.0517,-0.5881 z m 22.779,-9.338 c -3.3609,-3.4419 -3.6866,-4.1672 -2.5089,-5.5862 1.4618,-1.7614 6.1274,-1.3987 8.6201,0.67 1.9028,1.5792 1.7331,7.5088 -0.2365,8.2646 -0.87,0.3339 -1.6786,0.607 -1.797,0.607 -0.1184,0 -1.9534,-1.7799 -4.0777,-3.9554 z m -48.8768,-64.7112 c -1.3747,-1.3747 -0.595,-7.7133 1.3323,-10.8318 2.3476,-3.7984 9.4101,-8.7596 11.8202,-8.3034 1.0629,0.2012 1.7931,1.4714 1.9863,3.4552 0.2607,2.6763 -0.2842,3.5564 -3.7098,5.9919 -2.4039,1.7091 -4.2647,3.9617 -4.6368,5.6131 -0.7864,3.4903 -4.9056,5.9616 -6.7922,4.075 z m -3.6664,-136.5834 c -0.6575,-1.7875 -1.4383,-8.5375 -1.7351,-15 -0.5186,-11.2907 -0.461,-11.74997 1.4751,-11.74997 3.6712,0 4.5862,2.35937 3.4396,8.86907 -1.0009,5.6824 -0.017,14.045 2.2806,19.3809 0.6036,1.4019 0.2544,1.75 -1.7557,1.75 -1.919,0 -2.7903,-0.7644 -3.7045,-3.25 z m 28.228,-44.98016 c -2.5002,-1.20492 -3.8202,-4.78915 -2.7687,-7.51757 0.5801,-1.50501 1.0665,-1.27374 3.4475,1.63914 2.5319,3.09746 3.0955,3.33071 6.5035,2.69136 2.0523,-0.385 4.3745,-0.94677 5.1604,-1.24836 1.7796,-0.68289 1.9551,2.73954 0.229,4.46562 -1.4772,1.47725 -9.4837,1.45802 -12.5717,-0.0302 z m -11.7124,-27.71983 c -1.5514,-4.88798 6.1568,-12.91425 16.4095,-17.08661 3.9791,-1.61933 8.3845,-3.84855 9.7896,-4.95381 1.4051,-1.10526 3.428,-2.00956 4.4952,-2.00956 1.5407,0 1.8784,0.59244 1.639,2.87498 -0.1659,1.58124 0.2006,3.49374 0.8145,4.25 0.6138,0.75626 1.1093,2.59252 1.1012,4.08057 -0.01,1.48806 0.9414,4.32628 2.1101,6.30716 3.2132,5.44588 2.4743,8.36771 -1.7749,7.01906 -2.2795,-0.72348 -6.1001,-9.20042 -6.1001,-13.53454 0,-2.78809 -0.2471,-3.05538 -2.25,-2.43421 -6.4765,2.00858 -13.8571,6.73813 -17.4059,11.15389 -5.6145,6.98598 -7.6666,7.99317 -8.8282,4.33307 z m 234.9841,221.36929 c 5.9254,-1.6646 12.3742,-5.223 13.899,-7.6693 2.5752,-4.1316 -5.4919,-8.9545 -22.2887,-13.3254 -5.8357,-1.5185 -12.4859,-3.6978 -14.7783,-4.8428 -5.9872,-2.9903 -29.576,-28.3054 -43.332,-46.5029 -3.2241,-4.265 -3.744,-9.7779 -2.6011,-27.5789 1.1952,-18.6151 1.2769,-56.9903 0.1774,-83.24997 -0.8025,-19.16572 -1.0601,-21.25 -2.6261,-21.25 -2.8624,0 -3.0549,-2.67203 -0.9401,-13.04935 2.9864,-14.65448 3.4,-20.88646 1.9884,-29.96059 -0.8901,-5.72136 -1.8719,-8.72587 -3.2804,-10.03806 -1.8492,-1.72283 -1.9184,-2.32947 -0.8641,-7.57914 2.0817,-10.36567 1.3801,-37.12463 -1.4203,-54.16848 l -0.5414,-3.29563 -5.1962,3.75193 c -2.8578,2.06356 -6.9458,5.21799 -9.0843,7.00983 -9.1987,7.70761 -33.3329,14.4839 -52.3589,14.7011 -6.1859,0.0706 -11.2484,0.4815 -11.25,0.91308 -0.01,1.77818 9.6858,17.80387 15.6151,25.81866 9.0865,12.2825 10.2874,15.50079 11.2321,30.10267 0.7655,11.83262 0.9521,12.58801 4.9726,20.129 4.0049,7.51172 5.2256,13.09122 3.3288,15.21498 -2.3395,2.6195 -4.6503,21.40511 -4.6065,37.44997 0.06,22.1215 2.2707,30.2555 11.6265,42.7851 10.4082,13.9393 12.0672,23.4519 8.9076,51.0775 -1.1551,10.0994 -2.3174,18.714 -2.5829,19.1436 -1.013,1.639 -4.4858,24.7421 -4.4909,29.8758 -0.011,10.8031 6.6239,15.9955 17.7858,13.9197 4.3763,-0.8139 8.6057,-0.8138 15.8397,4e-4 8.2332,0.9266 11.1954,1.7759 17.8692,5.123 10.4093,5.2205 14.4494,6.1826 29.5,7.0249 14.6524,0.8201 22.5997,0.4077 29.5,-1.5307 z m -3.0769,-9.903 c -1.4933,-1.3839 -3.8074,-2.5163 -5.1424,-2.5163 -1.783,0 -2.3313,-0.4645 -2.0654,-1.75 0.2804,-1.3563 1.2323,-1.6963 4.2318,-1.5115 4.2653,0.2628 7.5529,2.5948 7.5529,5.3575 0,2.9357 -1.6949,3.0913 -4.5769,0.4203 z m -89.7161,-24.1919 c -3.8359,-1.5904 -7.7135,-7.1462 -7.7014,-11.0345 0.013,-4.1253 2.291,-9.4619 5.4849,-12.8485 5.6571,-5.9982 7.2549,-2.1803 3.3538,8.0139 -2.4679,6.449 -2.1747,7.0952 4.3148,9.5083 5.0244,1.8682 6.7898,4.1881 4.9105,6.4526 -1.6444,1.9813 -5.4435,1.9476 -10.3626,-0.092 z m -5.3439,-95.8204 c -0.417,-1.0869 0.6037,-2.7475 3.0874,-5.0225 2.4881,-2.279 3.5381,-3.9889 3.187,-5.1901 -0.2879,-0.9852 -1.0561,-4.5959 -1.7071,-8.0236 -1.0298,-5.4223 -0.9692,-6.5596 0.466,-8.75 2.0891,-3.1883 4.1115,-3.1984 6.187,-0.031 2.4714,3.7718 1.5699,16.4787 -1.6328,23.013 -2.1069,4.2988 -2.9073,5.044 -5.7075,5.3138 -2.2877,0.2205 -3.4423,-0.1693 -3.88,-1.3099 z m 11.1369,-82.50325 c -1.1,-0.47988 -4.429,-3.05669 -7.3978,-5.72624 -4.9004,-4.40652 -5.2887,-5.05739 -4.2148,-7.06411 1.4116,-2.63762 2.5834,-2.78828 4.3232,-0.55588 0.7092,0.90997 3.8769,4.35697 7.0394,7.66 3.1625,3.30303 5.75,6.15851 5.75,6.34551 0,0.6354 -3.4917,0.21686 -5.5,-0.65928 z m -9.65,-41.00072 c -0.082,-0.55 -0.195,-1.47985 -0.25,-2.06633 -0.055,-0.58647 2.3584,-2.04897 5.3631,-3.25 3.8535,-1.54028 6.1247,-3.2149 7.7086,-5.68367 4.5134,-7.03509 5.0674,-7.58516 6.3686,-6.32322 0.6836,0.6631 0.9496,2.2273 0.6093,3.58334 -0.7853,3.1286 -8.0797,11.39381 -11.7144,13.27341 -3.248,1.67959 -7.8633,1.94587 -8.0852,0.46647 z m -107.5474,-34.63575 c 7.8025,-1.77328 36.3818,-11.85747 38.4357,-13.562 0.6939,-0.57593 1.2617,-2.54489 1.2617,-4.37547 0,-5.49853 2.1193,-13.65555 4.5472,-17.50151 2.7486,-4.35415 7.0012,-6.50842 14.7118,-7.45269 6.4422,-0.78894 8.4698,-2.52888 13.3098,-11.42166 2.8295,-5.19868 5.0504,-6.83176 6.8472,-5.03495 0.7754,0.77539 0.091,2.93798 -2.4172,7.63972 -6.4623,12.11306 -12.4259,17.2597 -21.811,18.82287 -5.0564,0.84221 -5.8946,2.32214 -6.3025,11.12833 -0.2685,5.79529 -0.2242,5.90339 2.6709,6.5247 6.0986,1.30884 18.0707,0.82082 25.4438,-1.03717 23.8655,-6.01401 27.2192,-7.50047 38.4266,-17.03203 5.0496,-4.29449 10.5874,-8.53537 12.3061,-9.42418 3.113,-1.60978 3.119,-1.62863 1.5583,-4.87712 -0.8618,-1.7936 -3.0992,-5.61661 -4.9721,-8.49558 -2.8095,-4.31878 -3.5648,-6.68045 -4.3176,-13.5 -0.5018,-4.54603 -0.8552,-11.24579 -0.7854,-14.88836 0.1111,-5.7948 -0.3385,-7.5452 -3.596,-14 -4.4294,-8.77724 -10.8751,-20.46569 -11.791,-21.38156 -0.3589,-0.35893 -1.8701,1.42497 -3.3582,3.96423 -2.4023,4.09919 -2.6897,5.55251 -2.5635,12.96205 0.1183,6.94835 -0.1366,8.4522 -1.5234,8.98435 -3.2846,1.26043 -5.3838,-0.32087 -5.3838,-4.05564 0,-4.54171 4.4981,-17.55003 8.0315,-23.22704 l 2.756,-4.42796 -2.0661,-5.59779 c -1.1364,-3.07878 -2.3261,-8.8433 -2.6438,-12.81004 l -0.5776,-7.212254 -4.4178,2.97391 c -9.6685,6.508424 -36.6807,11.886984 -63.7263,12.688924 l -17.1441,0.50834 -0.3858,6.8262 c -0.3386,5.9933 -0.8701,7.53395 -4.3558,12.62667 -3.554,5.19237 -4.9661,6.29268 -13.4702,10.49568 -5.2714,2.60529 -10.6485,6.05892 -12.0803,7.75894 -2.2149,2.62984 -3.0369,2.97239 -5.8048,2.41882 -2.2608,-0.45216 -3.0587,-1.07703 -2.6697,-2.09073 0.3051,-0.7952 0.5548,-1.58761 0.5548,-1.76091 0,-0.17329 4.3875,-3.23775 9.75,-6.8099 5.3625,-3.57215 12.3968,-9.2723 15.6317,-12.667 l 5.8818,-6.17217 -0.6007,-5.07175 c -0.3304,-2.78946 -0.7279,-5.19896 -0.8834,-5.35445 -0.1555,-0.15549 -4.0764,-0.80215 -8.7132,-1.43701 -4.6368,-0.63487 -10.1161,-2.01421 -12.1763,-3.06521 l -3.7457,-1.91091 -1.1288,3.42037 c -0.6208,1.88121 -1.0456,8.26707 -0.9439,14.1908 0.1915,11.15372 -0.4599,12.93825 -3.7319,10.22279 -1.7087,-1.41813 -1.5297,-9.17949 0.5617,-24.34994 0.9296,-6.743764 0.5094,-8.444514 -2.1008,-8.501654 -1.7003,-0.0372 -10.2137,13.638524 -11.9369,19.175274 -1.7991,5.78025 -1.8194,6.68586 -0.382,16.99192 0.8351,5.98745 1.5184,16.44626 1.5184,23.2418 0,13.11294 -0.2473,14.63086 -8.4362,51.77852 -2.5101,11.38655 -4.5638,21.38991 -4.5638,22.22968 0,2.10561 5.2781,4.60808 21.0341,9.97282 15.1758,5.16718 20.4315,5.64911 32.2685,2.95893 z m 25.4476,-76.21142 c -1.0506,-4.01749 0.2032,-4.29695 23.3627,-5.20735 12.3129,-0.48403 25.3121,-1.05495 28.8871,-1.26873 7.4634,-0.44628 15.7424,-3.6452 18.934,-7.31586 2.353,-2.70621 4.3717,-2.69749 4.8988,0.0212 0.6022,3.10551 -2.9166,6.78138 -9.2332,9.64546 -6.0377,2.73763 -6.9694,2.85085 -32.1587,3.90807 -14.2675,0.59883 -27.796,1.32725 -30.0632,1.61873 -3.4832,0.44779 -4.2007,0.23049 -4.6275,-1.40147 z m 3.9165,-7.8195 c -1.5884,-1.58835 -0.4017,-4.40983 3.0833,-7.33109 2.0625,-1.72886 12.75,-7.60367 23.75,-13.05515 11,-5.45147 18.875,-9.71313 17.5,-9.47034 -1.375,0.24279 -8.125,0.94301 -15,1.55604 -21.6411,1.92969 -30.1045,4.11025 -34.4073,8.86483 -1.972,2.17898 -6.0265,2.82759 -7.0745,1.13175 -1.3841,-2.23945 2.695,-7.23742 7.8029,-9.56067 9.9078,-4.50637 35.6681,-8.4687 55.0577,-8.4687 12.1383,0 13.6212,0.3865 13.6212,3.55028 0,3.07889 -2.9906,5.05289 -11.5,7.59088 -3.85,1.14829 -9.6337,3.41608 -12.8527,5.03954 -3.2189,1.62347 -9.8648,4.69191 -14.7685,6.81877 -4.9037,2.12685 -12.0506,6.14705 -15.882,8.93377 -7.0169,5.10367 -8.1107,5.61951 -9.3301,4.40009 z m 11.8333,-58.40534 c 15.1198,-1.998274 33.1788,-4.911374 36.6392,-5.910294 4.5511,-1.31376 15.0845,-8.38066 16.0206,-10.748349 0.3848,-0.97314 0.7313,-2.99758 0.7699,-4.49874 l 0.07,-2.72939 -4.25,2.97011 c -4.0732,2.84657 -13.6813,6.684769 -22.3262,8.918789 -7.9603,2.05711 -30.7781,5.06988 -38.3977,5.06988 -19.5254,0 -41.4935,-2.90593 -51.921,-6.86806 -3.9212,-1.48994 -5.1051,-1.63318 -5.1051,-0.61765 0,0.72717 -0.2539,1.9838 -0.5642,2.7925 -0.683,1.77975 9.3759,8.18281 16.3973,10.437784 2.8839,0.9262 10.9707,1.74505 21.1669,2.14331 17.1123,0.66841 19.799,0.58654 31.5,-0.95989 z m 4.2894,-14.992674 c 12.5698,-1.378169 25.7352,-4.245029 32.1325,-6.997079 l 5.0781,-2.18453 0,-4.82109 c 0,-3.65598 0.5836,-5.49916 2.4149,-7.62686 1.3282,-1.54317 2.6804,-2.5411 3.0048,-2.21762 0.3245,0.32348 0.1356,2.98382 -0.4197,5.91186 -1.1256,5.93538 -1.0209,6.32898 1.4335,5.38715 2.9211,-1.12093 3.6903,-4.98496 2.3934,-12.02349 -1.053,-5.71448 -0.9197,-7.96307 1.1539,-19.46811 2.0547,-11.4008 2.2007,-13.78672 1.1818,-19.31678 -1.7038,-9.24682 -1.4553,-12.16543 1.8374,-21.5787703 3.4521,-9.8689896 3.514,-10.1789096 1.4433,-7.2225096 -1.5365,2.1937296 -4.8926,2.8870396 -7.0538,1.4571996 -0.6107,-0.40408 -1.8598,-2.1971896 -2.7756,-3.9846896 -1.6651,-3.2497901 -1.6658,-3.2500001 -9.5256,-3.2500001 l -7.8604,0 -1.6786,-3.53738 c -2.015,-4.24617 -1.7046,-7.81728 0.7196,-8.27936 1.2358,-0.23558 2.2192,0.74068 3.2634,3.23978 1.4582,3.48997 1.6288,3.57696 7.0132,3.57696 6.5707,0 12.4346,2.20792 13.1522,4.95213 0.3938,1.5056501 1.3097,1.9490901 3.8302,1.8543401 3.2727,-0.12303 3.3208,-0.19452 3.9857,-5.9232801 0.7692,-6.62771 -0.3421,-22.88319 -1.5645,-22.88319 -0.4479,0 -1.0996,0.89895 -1.4484,1.99768 -0.6781,2.13672 -4.5276,3.5897 -6.9985,2.64155 -2.2698,-0.87102 -1.8036,-2.34677 0.9606,-3.04053 1.7873,-0.44858 2.7889,-1.70676 3.6519,-4.58726 1.027,-3.42776 0.886,-4.99047 -1.0337,-11.457 l -2.2229,-7.48785 2.9303,-4.2833 c 5.966,-8.72058 6.5397,-10.52434 5.3041,-16.67687 -1.4821,-7.38022 -7.1073,-22.174867 -8.6574,-22.769687 -0.6747,-0.2589 -3.9607,0.90942 -7.3024,2.59627 -9.4219,4.756177 -16.173,3.872847 -23.7745,-3.11071 -2.0905,-1.92046 -2.3469,-1.927 -10.6796,-0.27214 -7.8109,1.55123 -8.6407,1.94418 -9.7474,4.616037 -0.6654,1.60626 -2.4526,4.25098 -3.9717,5.87714 -2.5423,2.72155 -3.3091,2.95667 -9.6434,2.95667 -5.9713,0 -7.8031,0.48129 -13.8488,3.63855 -3.832,2.00121 -8.3173,4.87583 -9.9673,6.38805 -4.8114,4.40961 -8.8646,5.9734 -15.4825,5.9734 -7.9635,0 -11.7559,-1.70617 -16.7317,-7.52727 l -4.0919,-4.78716 -6.347,1.31041 c -3.4908,0.72072 -6.5009,1.43295 -6.6891,1.58272 -0.1882,0.14977 1.6901,3.17978 4.1739,6.73335 2.7533,3.93916 5.358,9.28804 6.673,13.70377 2.3684,7.95257 7.8529,14.97696 14.4806,18.54621 4.1597,2.24015 4.071,3.81774 -0.2387,4.24584 -3.907,0.38809 -10.4722,-2.90367 -13.0341,-6.53523 -2.6883,-3.81069 -6.7875,-12.19589 -7.5885,-15.52264 -0.6265,-2.60218 -0.9702,-2.7503 -6.393,-2.75558 -10.6868,-0.0104 -20.7046,-4.67415 -20.0382,-9.3287 0.411,-2.86987 3.5457,-3.32354 5.8529,-0.84704 1.7634,1.89283 15.6091,5.85983 16.6877,4.78128 0.587,-0.58699 -5.6061,-11.58303 -6.5568,-11.64175 -2.4501,-0.15132 -63.915,13.65605 -63.5342,14.27222 0.6929,1.12116 12.235,0.93132 16.5696,-0.27253 3.2882,-0.91322 4.2017,-0.72465 8,1.6515 12.2747,7.67871 15.2231,12.02843 19.2442,28.3906 2.3806,9.68719 7.0863,18.76354 18.7577,36.1799097 11.6027,17.3139203 17.3296,28.2397703 21.1344,40.3200903 4.1122,13.05664 4.9467,18.97307 4.1872,29.68585 l -0.6926,9.76987 5.8285,2.61737 c 7.9042,3.54941 13.545,5.54387 14.1025,4.9863 0.7985,-0.79847 -3.1083,-10.54122 -5.0723,-12.64935 -1.8614,-1.99791 -1.7067,-4.91004 0.2607,-4.91004 1.4864,0 6.1494,6.77004 8.9982,13.06394 1.3533,2.98983 2.6184,5.651169 2.8114,5.914079 1.3885,1.89186 33.631,2.53466 48.0175,0.9573 z m -19.4103,-1.371899 c -7.0016,-3.04732 -13.1555,-17.01428 -9.0118,-20.45331 1.9655,-1.63118 3.3377,0.39893 4.3396,6.42002 0.8606,5.17231 0.8453,5.15665 11.9033,12.16811 1.6394,1.03948 1.6911,1.33556 0.3898,2.234689 -1.978,1.36671 -3.839,1.27648 -7.6209,-0.369509 z m 42.8209,-22.76342 c -3.3125,-3.31255 0.2993,-13.97359 4.2239,-12.46758 1.8227,0.69945 1.6904,3.1063 -0.5729,10.41758 -1.0878,3.51381 -1.7918,3.90915 -3.651,2.05 z m -49.0966,-4.08591 c -2.4315,-1.16731 -6.3993,-8.42635 -5.4475,-9.96632 0.2858,-0.4624 2.4221,0.86768 4.7475,2.95575 2.3253,2.08806 5.0647,4.27432 6.0875,4.85834 2.1364,1.21989 1.2674,3.47321 -1.2999,3.37046 -0.9301,-0.0372 -2.7695,-0.58543 -4.0876,-1.21823 z m 68.3888,-20.72268 c -1.4585,-1.6117 -2.8947,-1.96353 -7.2678,-1.78054 -4.8861,0.20447 -5.7028,-0.0657 -7.8921,-2.61097 -2.5469,-2.96094 -2.8871,-7.59942 -0.6122,-8.34614 0.671,-0.22027 2.1298,1.09503 3.2418,2.92288 1.934,3.17917 2.2858,3.32336 8.1097,3.32336 6.6269,0 8.9284,1.59593 8.9284,6.19113 0,2.84314 -2.0811,2.98177 -4.5078,0.30028 z m -65.3406,-1.87655 c -2.3737,-1.50429 -0.9047,-4.58521 2.357,-4.94317 1.7584,-0.19298 3.8797,-1.42955 5.1464,-3 2.2946,-2.84492 5.0425,-3.17135 18.086,-2.14852 5.0726,0.39778 5.3875,0.26754 9.8058,-4.0561 l 4.5649,-4.46707 -0.6846,-9.7500003 c -0.7731,-11.00798 0.3328,-12.6975096 3.5998,-5.5 2.4036,5.29508 2.583,14.6625503 0.3702,19.3256903 -2.355,4.96265 -9.5757,8.13203 -21.0954,9.25935 -7.7194,0.75541 -9.7012,1.32338 -12.3267,3.53255 -3.1218,2.62684 -7.2709,3.36484 -9.8234,1.74727 z m -48.1863,-7.91427 c -2.4272,-2.42723 -4.0533,-5.15274 -4.5024,-7.54663 -0.8778,-4.67934 0.2479,-5.94635 2.358,-2.65396 0.8813,1.375 3.3583,4.21821 5.5046,6.31825 3.3397,3.26787 4.4562,3.77825 7.7458,3.54073 2.1139,-0.15263 4.1995,0.0785 4.6345,0.51352 1.4567,1.45666 -3.0403,3.6275 -7.5146,3.6275 -3.792,0 -4.9711,-0.54464 -8.2259,-3.79941 z m 15.5347,-12.49213 c -2.8984,-1.6366 -4.0871,-3.0091 -4.3164,-4.98355 -0.3791,-3.2644803 -0.2487,-3.2858603 4.1637,-0.68251 1.9039,1.12333 4.8698,2.44626 6.5909,2.93986 2.7159,0.77893 3.5714,0.5092 6.4775,-2.0424 1.8416,-1.6169203 3.6264,-2.9398603 3.9663,-2.9398603 1.4729,0 0.4848,6.8106103 -1.2107,8.3450103 -2.7286,2.46929 -10.7478,2.14356 -15.6713,-0.63655 z m 20.6697,-8.7405303 c -5.157,-1.15857 -10.6697,-6.10727999 -10.6697,-9.57818 0,-4.3133396 3.584,-4.0045496 4.7272,0.40728 1.7029,6.57169 7.1352,5.52752 21.5391,-4.1401896 9.436,-6.3332801 11.7433,-7.4276101 18.029,-8.5509301 9.4744,-1.69316 11.0989,-3.11093 12.1543,-10.60769 0.7385,-5.24551 0.5316,-6.79131 -1.6492,-12.31825 -2.822,-7.15206 -2.2804,-9.12576 1.2843,-4.67997 1.882,2.34723 2.4065,2.60688 2.4103,1.1933 0.01,-1.66722 0.1766,-1.68652 2.2275,-0.25 3.2085,2.2473 4.6506,1.9284 5.3963,-1.1933 1.7814,-7.45688 7.2973,-7.07176 16.1312,1.12626 5.3487,4.96371 3.4771,6.49526 -2.7679,2.26493 -5.9482,-4.02934 -7.628,-4.16168 -8.3291,-0.65619 -0.8512,4.25578 -4.834,6.02157 -8.6466,3.83345 l -2.7843,-1.59797 1.0054,3.63976 c 1.3535,4.90005 0.4231,15.21723 -1.6589,18.39478 -1.9153,2.92311 -5.9485,4.71328 -16.1655,7.1752601 -6.2606,1.5086 -7.5308,2.22916 -10.7785,6.1144696 -6.2241,7.44604 -14.3566,11.01788 -21.4549,9.42318 z m -34.3634,-2.90565 c -2.3658,-1.86091 -2.6492,-1.87093 -7.149,-0.25278 -4.2302,1.52116 -4.9494,1.53691 -7.399,0.16201 -3.5395,-1.98668 -7.2635,-7.57844 -7.2387,-10.8693896 0.019,-2.49956 0.16,-2.43462 3.5829,1.64788 2.8916,3.4488296 4.1964,4.24999961 6.9214,4.24999961 3.6676,0 5.3422,-1.53386001 3.589,-3.28713001 -1.573,-1.5730196 -1.3888,-5.7128696 0.2542,-5.7128696 0.7519,0 2.5118,1.72967 3.9108,3.84371 2.4542,3.7085396 7.8131,7.1562896 11.1232,7.1562896 1.875,0 1.9593,0.45815 0.5637,3.06574 -1.3256,2.47695 -5.0071,2.47539 -8.1585,-0.003 z m -18.7555,-16.8138297 c -3.6945,-1.87283 -5.1713,-5.16735 -4.3177,-9.63238 l 0.4992,-2.61153 3.7012,4.17071 c 3.4751,3.91596 4.0899,4.19882 10.0661,4.6311 l 6.365,0.46041 -4.1823,-3.97855 c -4.291,-4.08192 -5.4243,-7.28821 -2.5762,-7.28821 0.8833,0 2.4672,1.0947 3.5196,2.43268 1.3282,1.68846 3.6666,2.78775 7.6439,3.59336 8.7484,1.77199 10.6869,2.71894 9.2097,4.49889 -0.6977,0.84073 -2.9088,1.47507 -5.1416,1.47507 -2.1545,0 -5.6815,0.9 -7.8377,2 -4.8757,2.48738 -12.3172,2.59646 -16.9492,0.24845 z m 56.3743,-1.58312 c -0.3113,-0.81121 -0.4218,-2.98028 -0.2456,-4.82013 0.28,-2.92233 0.9703,-3.66123 5.461,-5.8452 7.1772,-3.49049 8.2766,-4.62934 11.5828,-11.99799 3.3089,-7.37468 5.2245,-9.8293 8.7106,-11.16193 3.2238,-1.23235 8.0661,0.73748 8.0661,3.28124 0,2.14868 -0.3336,2.21699 -4.7045,0.96343 -3.8764,-1.11174 -4.802,-0.20613 -5.7664,5.64196 -0.3834,2.32469 -1.6824,5.68898 -2.8869,7.4762 -2.0466,3.03706 -3.3398,4.05421 -11.8602,9.32878 -2.5159,1.55744 -3.282,2.72457 -3.282,5 0,2.31866 -0.4934,3.03838 -2.2545,3.28845 -1.302,0.18488 -2.4936,-0.30299 -2.8204,-1.15481 z m -24.0451,-23.11744 c -0.9046,-2.35743 0.5002,-3.52185 3.5203,-2.91783 3.0774,0.61549 6.7897,-0.96968 14.0997,-6.02069 2.475,-1.71015 9.8806,-4.90937 16.457,-7.10937 l 11.957,-4 2.4623,-4.81661 c 2.3877,-4.6704 2.4239,-5.05357 1.1947,-12.62315 -1.0811,-6.65697 -1.0521,-8.21829 0.1972,-10.6026 l 1.465,-2.79606 1.0481,3.41921 c 2.5912,8.45367 3.4197,16.63416 2.2535,22.25162 -1.5763,7.59289 -3.8992,10.20561 -10.8065,12.15468 -13.0488,3.68203 -18.4233,5.85058 -24.9017,10.04755 -6.0495,3.91915 -7.4847,4.425 -12.608,4.44396 -4.1466,0.0154 -5.9389,-0.38919 -6.3386,-1.43071 z m 68.8098,-20.57352 c -3.7036,-2.25807 -6.9747,-8.58944 -5.3019,-10.26225 0.6996,-0.69958 2.4054,0.10673 5.3766,2.54142 7.0042,5.73936 13.196,6.65213 27.9855,4.12544 3.3442,-0.57134 3.75,-0.41389 3.75,1.45499 0,3.36753 -3.1057,4.16626 -16.1843,4.16229 -10.5884,-0.003 -12.78,-0.28679 -15.6259,-2.02189 z m -258.5102,83.51264 c 10.1303,-4.97606 17.5245,-13.28236 24.7603,-27.8144503 8.6443,-17.3610397 12.0412,-31.1782197 13.195,-53.6725597 2.1716,-42.33807 -14.2759,-83.389717 -38.2757,-95.533197 -5.2702,-2.66659 -6.8142,-2.96474 -15.3592,-2.96571 -8.446,-9.7e-4 -10.1102,0.31099 -15,2.81166 -15.0021,7.67223 -28.3881,27.99453 -34.6192,52.558117 -2.3774,9.37224 -5.2417,32.60154 -4.154,33.68923 0.3098,0.30986 8.8697,-1.03941 19.0219,-2.99836 10.1523,-1.95896 18.9588,-3.56174 19.5702,-3.56174 2.1261,0 8.066,6.12115 9.1618,9.44144 1.5093,4.57316 -0.4267,12.38451 -3.3709,13.60079 -1.1604,0.47937 -11.0881,2.70673 -22.0615,4.94969 -10.9734,2.24295 -20.1472,4.2736 -20.3861,4.51254 -0.7796,0.77958 1.9232,12.799 4.8812,21.70704 12.8398,38.66747 37.43,55.65691 62.6362,43.27551 z m -9.6767,-5.9835 c -1.0284,-1.23914 -0.6111,-2.19478 2.4264,-5.55696 14.8331,-16.4184303 22.9609,-42.82672 22.9128,-74.44655 -0.033,-21.76317 -3.4199,-39.41862 -10.4426,-54.437337 -5.066,-10.834 -10.6546,-18.0195 -18.5734,-23.88053 -3.5745,-2.64555 -6.3261,-5.44332 -6.3261,-6.43213 0,-4.8571 9.9613,0.92933 19.0683,11.07651 26.3557,29.36623 29.1879,103.209437 5.4024,140.8589067 -3.5437,5.6091603 -11.1799,14.3145803 -12.5565,14.3145803 -0.3681,0 -1.2282,-0.67342 -1.9113,-1.49649 z m -61.1139,-64.03998 c 23.3139,-4.68449 42.7764,-8.75673 43.25,-9.04941 1.9722,-1.21893 0.8417,-7.40332 -1.889,-10.33288 l -2.75,-2.95031 -32,6.32753 c -17.6,3.48014 -37.4647,7.32925 -44.1437,8.55357 -10.8277,1.9848 -12.2636,2.48918 -13.25,4.65406 -1.7632,3.86974 -1.2969,7.23423 1.3726,9.90371 1.714,1.71403 3.1796,2.31415 4.75,1.94495 1.2491,-0.29367 21.3461,-4.36672 44.6601,-9.05122 z m 182.2185,-36.50193 c 35.9165,-7.72112 65.4955,-14.23122 65.7311,-14.46689 0.8253,-0.82524 -4.9985,-11.494707 -6.2742,-11.494707 -1.5021,0 -127.8278,25.896497 -128.0863,26.257427 -0.096,0.13341 0.035,3.28007 0.2905,6.99257 0.316,4.59331 0.8753,6.75 1.7504,6.75 0.7073,0 30.6721,-6.31728 66.5885,-14.0384 z m 77.1115,0.12686 c 2.0454,-0.47511 5.7717,-2.67078 8.2807,-4.87926 2.7407,-2.41244 8.4746,-5.66652 14.3632,-8.15136 8.3152,-3.50874 10.2159,-3.97836 12.5344,-3.09688 3.836,1.45842 4.3824,1.35021 7.1482,-1.41551 3.8922,-3.892247 3.3489,-9.345327 -1.8978,-19.045447 -4.1129,-7.604 -5.0156,-8.53503 -18.2374,-18.80873 -7.6507,-5.9448 -15.7737,-11.92126 -18.0511,-13.28103 -7.4128,-4.42586 -15.5588,-5.39838 -43.9851,-5.25116 -28.9077,0.14971 -24.5215,0.8975 -50.8741,-8.67329 -9.0166,-3.27466 -10.6392,-3.56806 -16.5,-2.98353 -10.0533,1.0027 -20.2819,3.92693 -34.8552,9.96466 -7.3453,3.04319 -13.9607,5.53308 -14.7008,5.53308 -0.74,0 -3.6472,0.49362 -6.4604,1.09693 -3.8235,0.82001 -5.3897,1.7002 -6.2036,3.4865 -0.9481,2.08092 -0.5449,3.16487 3.1218,8.39202 8.234,11.73849 16.9033,33.58039 19.4583,49.024547 0.2274,1.375 0.9624,2.37153 1.6332,2.2145 4.1654,-0.97501 124.5002,-25.214497 125.1752,-25.214497 0.4573,0 0.8315,-0.6074 0.8315,-1.34978 0,-1.00464 -3.3881,-1.65724 -13.25,-2.55215 -7.2875,-0.66129 -14.1556,-1.42584 -15.2624,-1.69899 -1.3648,-0.33682 -3.9391,1.01143 -8,4.19001 -7.5613,5.9184 -14.5405,9.05235 -23.1903,10.41338 -3.7385,0.58825 -9.2994,1.50334 -12.3575,2.03354 -17.7634,3.079707 -54.4398,-2.61872 -54.4398,-8.45833 0,-4.03695 2.6389,-4.05879 18.4615,-0.1528 14.4485,3.56677 15.7499,3.72167 25.8761,3.08019 13.3763,-0.84738 28.548,-3.81631 35.7278,-6.99155 4.196,-1.85567 5.7617,-3.15346 6.557,-5.4348 0.5746,-1.64835 1.7963,-3.23552 2.7148,-3.52705 3.4207,-1.08569 11.9476,-0.75621 21.1628,0.81772 14.2468,2.4333 15.6951,2.29546 16.5451,-1.57469 l 0.704,-3.2053 1.8755,2.31608 c 1.1575,1.42946 1.8763,3.90064 1.8778,6.4553 0,3.17822 0.9305,5.50554 4,10.02419 3.7538,5.52607 3.9976,6.32667 3.9976,13.127557 0,7.70864 -0.6935,9.04595 -5,9.64165 -2.4553,0.33963 -2.4374,0.38578 1,2.57897 3.8837,2.47799 4.8397,2.60478 10.219,1.35531 z m -1.8773,-21.640457 c -1.0034,-2.61475 2.3345,-4.79956 11.8792,-7.77544 5.8795,-1.83312 10.0549,-3.93466 14.1769,-7.13548 6.791,-5.27331 10.6022,-5.96662 10.6022,-1.92867 0,2.21601 -0.3431,2.5223 -2.2805,2.03603 -2.5654,-0.64387 -5.2924,0.98754 -11.0115,6.58745 -2.1765,2.13122 -5.5846,4.20019 -8,4.85664 -3.5997,0.97834 -8.6469,2.71395 -13.4496,4.62495 -0.6828,0.27171 -1.5454,-0.29775 -1.9167,-1.26548 z m -25.8417,-23.87833 c -2.3492,-1.89535 -2.7389,-2.68679 -1.7966,-3.64845 1.866,-1.90419 8.7015,0.99463 9.1162,3.86598 0.4438,3.07378 -3.381,2.96011 -7.3196,-0.21753 z m -43.5,-2.79388 c -3.522,-1.33072 -9.0963,-2.29344 -15.5,-2.67693 -9.3981,-0.56282 -10.0192,-0.73428 -10.3195,-2.84886 -0.2971,-2.09181 0.054,-2.24972 5,-2.24598 7.5977,0.006 23.7022,2.77701 27.8195,4.78719 1.925,0.93983 3.6455,2.49629 3.8233,3.45879 0.4426,2.39541 -3.7099,2.21348 -10.8233,-0.47421 z m 441.0941,42.003127 c 17.3192,-8.04285 30.9585,-29.623617 37.4649,-59.278917 2.3937,-10.9098 2.9879,-38.76021 1.1109,-52.06797 -4.8554,-34.42545 -22.0739,-62.56725 -42.1443,-68.88015 -7.6181,-2.3962 -17.2645,-1.74441 -24.6197,1.66352 -17.4458,8.0833 -32.709,34.02649 -37.2604,63.33235 -2.2571,14.53319 -2.7982,24.4435 -1.3373,24.49099 0.6555,0.0213 9.7804,-1.63697 20.2776,-3.68505 l 19.0857,-3.7238 3.0923,2.20188 c 4.052,2.88533 5.508,7.38993 4.3654,13.50594 -0.4885,2.61507 -1.055,4.89301 -1.2587,5.06208 -0.2038,0.16908 -10.1886,2.35393 -22.1886,4.85523 -11.9999,2.5013 -22.0272,4.75694 -22.2828,5.01252 -0.94,0.94004 3.8943,20.49643 7.1757,29.02823 10.6584,27.711717 27.1995,42.416797 46.5193,41.355727 4.3129,-0.23686 8.4643,-1.23064 12,-2.87258 z m -8.0097,-7.17724 c -0.9253,-1.11486 -0.1545,-2.54797 3.8024,-7.069667 5.5717,-6.36714 11.8473,-17.79053 15.1249,-27.53201 6.1133,-18.16902 8.3503,-43.93686 5.6092,-64.61212 -3.8033,-28.6872 -12.9385,-47.83993 -28.2088,-59.14203 -6.2539,-4.62875 -7.5078,-6.45064 -5.3553,-7.78098 2.406,-1.48695 6.5633,1.06539 14.3748,8.82512 12.3708,12.289 18.3315,24.33222 22.8121,46.09034 3.1597,15.34384 3.1338,46.72408 -0.052,62.48642 -3.6957,18.28717 -9.8169,32.255 -19.2377,43.898077 -5.1629,6.38075 -6.8329,7.29138 -8.87,4.83685 z M 1560.673,-104.74956 c -2.0223,-0.67412 -4.0282,0.69565 -3.4033,2.32407 0.5419,1.41224 0.8152,1.39232 2.5599,-0.18657 1.158,-1.04803 1.5014,-1.91818 0.8434,-2.1375 z m -23.1616,-0.71478 c 3.8877,-2.03284 6.8656,-2.65661 15.0685,-3.15635 9.6416,-0.5874 10.5554,-0.83759 16.0648,-4.39847 5.447,-3.52057 5.8898,-4.09692 6.5548,-8.53107 0.3958,-2.63971 0.2204,-7.40461 -0.3942,-10.7099 -1.1399,-6.12943 -1.8174,-7.68788 -9.1119,-20.96093 -4.1113,-7.48108 -4.2373,-7.9648 -3.1739,-12.18806 0.7705,-3.05965 0.795,-5.21954 0.081,-7.09843 -0.5647,-1.48535 -0.8898,-2.83754 -0.7225,-3.00487 0.1673,-0.16734 1.7942,0.63912 3.6152,1.79212 2.5302,1.60198 3.2077,2.63671 2.873,4.38758 -0.4127,2.15866 -0.2008,2.1006 3.6628,-1.00361 12.5708,-10.10026 21.0237,-14.11116 41.1989,-19.54897 4.4541,-1.20049 9.4716,-3.01786 11.1501,-4.0386 3.9823,-2.42183 8.0674,-8.59866 12.2396,-18.50691 1.8528,-4.4 4.7087,-10.025 6.3465,-12.5 7.7254,-11.6744 2.1952,-26.94804 -8.2838,-22.87879 -2.5045,0.97256 -8.4122,1.37879 -20.0512,1.37879 l -16.5006,0 -6.8728,3.37342 c -11.135,5.46543 -19.9347,15.5572 -31.626,36.26944 -3.645,6.45749 -20.7971,25.15426 -27.849,30.35714 -3.2013,2.36188 -4.6064,4.44626 -6.6057,9.79926 -1.3967,3.7396 -2.8167,9.3646 -3.1556,12.5 -0.3389,3.13541 -1.9152,8.36012 -3.5029,11.61046 -1.5877,3.25035 -2.8868,7.41285 -2.8868,9.25 0,3.71214 0.199,3.85744 2.9395,2.14601 1.4547,-0.90849 2.5168,-0.91887 4.4383,-0.0434 5.8436,2.66253 7.8832,13.74043 3.8029,20.65588 -2.3783,4.03099 -2.1628,5.24309 1.1716,6.58844 3.3235,1.34095 4.3311,1.17811 9.5298,-1.54022 z m -0.1321,-9.54657 c -0.9625,-0.5606 -1.75,-1.73603 -1.75,-2.61205 0,-1.35505 0.9233,-1.49626 6.1863,-0.94617 l 6.1863,0.6466 5.0637,-5.39905 c 7.2181,-7.69609 14.1282,-10.6447 17.3637,-7.40923 1.9867,1.98671 1.4256,2.54639 -3.8125,3.80301 -3.8207,0.91657 -6.5599,2.6047 -11.52,7.09974 -6.0351,5.46926 -6.8506,5.89504 -11.2374,5.86684 -2.6016,-0.0167 -5.5176,-0.48908 -6.4801,-1.04969 z m 61.9375,-85.56573 c -3.3695,-3.3695 6.4566,-13.48823 20.0082,-20.60417 9.6158,-5.04921 12.6616,-5.82702 12.1276,-3.09701 -0.1778,0.90915 -4.9677,4.21369 -10.6441,7.34344 -7.9421,4.37889 -11.3428,6.93656 -14.755,11.09701 -4.6301,5.64551 -5.5969,6.40049 -6.7367,5.26073 z m 35.0644,-39.1956 c -3.0736,-1.85505 -3.1124,-3.50752 -0.093,-3.95594 2.5127,-0.37314 6.9141,3.061 5.9411,4.63542 -0.9426,1.5251 -2.4941,1.34483 -5.8482,-0.67948 z m -124.4227,129.6862 c 12.2136,-2.43253 14.4641,-4.1281 13.2875,-10.01114 -1.1163,-5.58177 -1.7831,-5.81653 -10.9008,-3.83774 -4.5188,0.98068 -10.7803,2.30991 -13.9146,2.95383 l -5.6986,1.17076 1.9449,3.18976 c 1.0697,1.75437 1.9466,4.42726 1.9487,5.93976 0.01,3.30711 -0.2326,3.29654 13.3329,0.59477 z m -0.364,-24.86185 c 0.9452,-3.56561 2.0557,-7.25158 2.4676,-8.19105 0.5814,-1.32576 0.1131,-1.86119 -2.0919,-2.3919 -1.5625,-0.37607 -4.479,-1.50387 -6.4812,-2.50621 l -3.6402,-1.82244 -1.1845,4.71434 c -2.007,7.98823 -3.9505,11.21434 -6.7559,11.21434 -1.9787,0 -2.3463,-0.36105 -1.7816,-1.75 1.3643,-3.35594 4.5025,-14.75576 4.5025,-16.3558 0,-1.35694 -1.2596,-1.59492 -7.9564,-1.50319 l -7.9564,0.10899 -15.5195,-7.863 c -8.5357,-4.32466 -16.7106,-8.96689 -18.1664,-10.31607 -2.3735,-2.19967 -2.5664,-2.88524 -1.8678,-6.637 0.4285,-2.30116 0.7757,-6.32143 0.7716,-8.93393 0,-3.09359 0.421,-4.75 1.2213,-4.75 2.5752,0 3.5485,2.89998 3.3684,10.03626 -0.2177,8.62786 -0.5749,8.24801 15.0372,15.991 13.4275,6.6595 20.67,8.09389 28.4634,5.63723 6.6177,-2.08604 9.3397,-5.05792 14.131,-15.42793 2.6573,-5.75147 3.7683,-9.89563 4.6002,-17.15965 1.1648,-10.17146 0.6096,-28.63329 -1.1602,-38.57691 -2.761,-15.51314 -9.8799,-30.14568 -17.4902,-35.95033 -11.8645,-9.04952 -31.2228,-10.81061 -44.4429,-4.04312 -10.655,5.4544 -18.1099,18.12176 -18.8389,32.01105 -0.4406,8.39528 -0.4809,8.27942 4.2709,12.27183 2.4587,2.0657 1.9764,4.58322 -0.7153,3.73371 -5.8575,-1.84869 -7.484,-1.74105 -9.1265,0.60399 -1.8084,2.58194 -2.1413,9.3807 -0.6512,13.3001 1.2354,3.24916 8.8581,11.57277 10.5984,11.57277 2.4297,0 4.4293,4.30827 4.4293,9.54305 0,4.34615 -2.0049,15.75312 -4.5107,25.66343 -0.5809,2.29782 -0.3298,2.78036 1.6632,3.19579 5.9849,1.24749 8.8475,1.22308 8.8475,-0.0755 0,-0.72975 0.9,-1.32681 2,-1.32681 1.2786,0 2,0.66667 2,1.84831 0,1.20074 1.3138,2.37729 3.75,3.35815 4.4561,1.79414 28.0335,18.88376 35.4089,25.66544 l 5.1896,4.77188 7.949,-1.58898 7.949,-1.58897 1.7187,-6.48291 z m 84.0348,7.49962 c 26.1131,-5.06638 116.9164,-23.95116 125,-25.99683 9.9924,-2.52869 52.3753,-11.39511 64.7623,-13.54813 8.716,-1.51496 9.8525,-2.5309 7.9425,-7.1002 -2.6682,-6.38338 -1.5115,-6.40372 -35.2898,0.62037 -17.0032,3.53578 -32.94,6.93875 -35.415,7.56215 -2.475,0.62341 -34.2,7.1746 -70.5,14.55819 -36.3,7.3836 -67.0185,13.65918 -68.2634,13.94574 -1.7157,0.39492 -2.1531,1.0601 -1.8076,2.74859 0.2507,1.22517 0.7313,3.93759 1.0681,6.02761 0.4758,2.9526 0.9904,3.69205 2.3076,3.31584 0.9324,-0.2663 5.5203,-1.2263 10.1953,-2.13333 z m 15.8681,-24.61178 c 3.3136,-2.68119 7.8214,-7.38387 10.0173,-10.4504 4.5858,-6.40391 9.5727,-17.85792 10.6323,-24.42036 0.701,-4.34125 0.6606,-4.44178 -1.1455,-2.84959 -1.0297,0.90773 -3.5597,2.34727 -5.6222,3.19898 -3.2629,1.34742 -3.7501,1.97732 -3.7508,4.84958 -4e-4,1.81557 -1.3491,6.15107 -2.997,9.63444 -4.4933,9.49804 -19.8279,24.62841 -22.984,22.67786 -1.9839,-1.22615 -0.9672,-3.43951 3.08,-6.70481 10.2287,-8.25271 11.3557,-9.5276 14.5776,-16.49092 1.8283,-3.95145 3.3242,-8.06464 3.3242,-9.14041 0,-1.88555 -0.3367,-1.85741 -9.3528,0.7818 -5.1441,1.50576 -10.958,3.59395 -12.9198,4.64041 -3.866,2.06226 -22.7274,16.2357 -22.7274,17.07861 0,0.28342 0.8648,1.72974 1.9217,3.21404 1.0569,1.4843 3.0322,5.20986 4.3895,8.27901 l 2.4679,5.58027 12.5321,-2.50181 c 12.0013,-2.39584 12.7873,-2.70828 18.5569,-7.3767 z m 274.5442,-34.8468 c 9.8519,-2.16237 18.2825,-4.51487 18.7347,-5.22777 1.3526,-2.13221 0.9652,-5.44083 -0.8971,-7.66062 l -1.75,-2.086 -19,4.24616 -19,4.24615 -0.3008,5.76087 c -0.2907,5.56642 -0.2232,5.74218 2,5.20684 1.2654,-0.30473 10.3614,-2.32326 20.2132,-4.48563 z"
       id="path3077"
       inkscape:connector-curvature="0" />
  </g>
</svg>
