<?xml version="1.0" encoding="UTF-8" standalone="no"?>
<!-- Created with Inkscape (http://www.inkscape.org/) -->

<svg
   xmlns:dc="http://purl.org/dc/elements/1.1/"
   xmlns:cc="http://creativecommons.org/ns#"
   xmlns:rdf="http://www.w3.org/1999/02/22-rdf-syntax-ns#"
   xmlns:svg="http://www.w3.org/2000/svg"
   xmlns="http://www.w3.org/2000/svg"
   xmlns:xlink="http://www.w3.org/1999/xlink"
   xmlns:sodipodi="http://sodipodi.sourceforge.net/DTD/sodipodi-0.dtd"
   xmlns:inkscape="http://www.inkscape.org/namespaces/inkscape"
   width="241.869"
   height="176.42314"
   id="svg2"
   version="1.1"
   inkscape:version="0.48.3.1 r9886"
   sodipodi:docname="Bench-dips-1.svg">
  <defs
     id="defs4">
    <radialGradient
       gradientUnits="userSpaceOnUse"
       gradientTransform="matrix(1,0,0,0.91819829,-19.285714,-7.9105395)"
       r="209.56604"
       fy="287.50052"
       fx="398.1105"
       cy="287.50052"
       cx="398.1105"
       id="radialGradient5255"
       xlink:href="#linearGradient5249"
       inkscape:collect="always" />
    <linearGradient
       id="linearGradient5249"
       inkscape:collect="always">
      <stop
         id="stop5251"
         offset="0"
         style="stop-color:#e3e3e3;stop-opacity:1;" />
      <stop
         id="stop5253"
         offset="1"
         style="stop-color:#e3e3e3;stop-opacity:0;" />
    </linearGradient>
  </defs>
  <sodipodi:namedview
     id="base"
     pagecolor="#ffffff"
     bordercolor="#666666"
     borderopacity="1.0"
     inkscape:pageopacity="0.0"
     inkscape:pageshadow="2"
     inkscape:zoom="1.979899"
     inkscape:cx="159.19664"
     inkscape:cy="177.03169"
     inkscape:document-units="px"
     inkscape:current-layer="layer1"
     showgrid="false"
     showguides="true"
     inkscape:guide-bbox="true"
     fit-margin-top="0"
     fit-margin-left="0"
     fit-margin-right="0"
     fit-margin-bottom="0"
     inkscape:window-width="1615"
     inkscape:window-height="1026"
     inkscape:window-x="65"
     inkscape:window-y="24"
     inkscape:window-maximized="1">
    <sodipodi:guide
       orientation="-0.70710678,0.70710678"
       position="-1745.0648,567.36451"
       id="guide2985" />
  </sodipodi:namedview>
  <metadata
     id="metadata7">
    <rdf:RDF>
      <cc:Work
         rdf:about="">
        <dc:format>image/svg+xml</dc:format>
        <dc:type
           rdf:resource="http://purl.org/dc/dcmitype/StillImage" />
        <dc:title />
      </cc:Work>
    </rdf:RDF>
  </metadata>
  <g
     inkscape:label="Ebene 1"
     inkscape:groupmode="layer"
     id="layer1"
     transform="translate(-316.49332,-417.58926)">
    <path
       style="fill:#000000"
       d="m 372.93973,592.13486 c -1.25437,-2.40521 -6.26073,-20.01702 -6.26073,-22.02449 0,-1.90846 -4.05139,-2.07859 -12.46409,-0.52342 -7.63431,1.41128 -13.0297,-0.0253 -16.0557,-4.27488 -2.16432,-3.0395 -2.20533,-3.50589 -1.04575,-11.89146 1.31069,-9.47835 1.21687,-10.63943 -1.38255,-17.10873 -0.9556,-2.37822 -1.52847,-5.41724 -1.27305,-6.75335 0.40932,-2.14123 0.0322,-2.48234 -3.18054,-2.87655 -2.00471,-0.24598 -5.41575,-0.21954 -7.58011,0.0587 l -3.93517,0.506 0.38548,30.43652 c 0.28191,22.25767 0.0734,30.54247 -0.77573,30.83078 -1.24178,0.42164 -2.01346,-11.85831 -2.7292,-43.43061 -0.48177,-21.25197 -0.48003,-21.2554 11.10223,-21.94392 6.75642,-0.40163 8.36255,-0.85267 10.32415,-2.89932 2.60232,-2.71514 6.44653,-3.16712 8.26822,-0.97212 0.66259,0.79837 2.57159,1.41272 4.24222,1.36521 4.07414,-0.11584 5.88173,1.94683 7.30353,8.33416 0.98367,4.41907 1.75816,5.64887 4.47444,7.105 1.80668,0.9685 3.86043,2.21615 4.56389,2.77255 2.13851,1.69145 7.09181,2.17367 12.43519,1.2106 2.78905,-0.50268 9.63488,-1.03414 15.21296,-1.18101 8.37483,-0.22051 10.93719,-0.68563 14.70586,-2.66933 2.51014,-1.32127 6.84584,-2.55367 9.63488,-2.73867 2.78904,-0.185 10.54765,-0.76281 17.24135,-1.28401 7.08603,-0.55175 12.88398,-0.57279 13.87854,-0.0504 0.93949,0.4935 3.94939,0.89726 6.68864,0.89726 3.72331,0 5.45261,-0.5217 6.85092,-2.06681 1.3906,-1.5366 2.60175,-1.90621 4.72107,-1.44072 2.33935,0.51381 2.85064,0.2826 2.85064,-1.28904 0,-1.05331 0.63927,-2.78937 1.42059,-3.8579 0.84775,-1.15937 1.21165,-3.23037 0.90242,-5.1359 -0.29264,-1.80335 -0.0281,-3.49599 0.60781,-3.88901 1.80715,-1.11688 1.30447,-5.44225 -1.12262,-9.6594 -2.08563,-3.62387 -2.15628,-4.29989 -0.97488,-9.3287 0.70055,-2.98194 1.25903,-6.10629 1.24108,-6.94301 -0.0753,-3.50539 -0.62351,-5.65276 -1.7478,-6.84522 -0.65708,-0.69692 -1.50593,-3.75818 -1.88633,-6.80279 -1.12652,-9.01647 2.79389,-21.76633 7.58274,-24.66038 6.58493,-3.97945 16.87507,-2.02402 21.37451,4.0618 2.43475,3.29316 3.00431,11.23177 1.06572,14.85404 -1.49525,2.79392 1.14391,5.71514 6.52426,7.22154 4.27918,1.19816 6.59459,3.31153 6.59459,6.01922 0,1.68521 -1.42926,1.28271 -4.02177,-1.13257 -1.30671,-1.21739 -4.01701,-2.47508 -6.02287,-2.79488 -5.34599,-0.8523 -7.19988,-4.98022 -5.88988,-13.11456 0.85045,-5.28079 0.72435,-6.53278 -0.94607,-9.39292 -2.18168,-3.73557 -6.87225,-5.4639 -12.39591,-4.56753 -6.91599,1.12231 -11.29913,8.15617 -11.27755,18.09771 0.0215,9.88766 0.52703,10.94303 5.2421,10.94303 4.81053,0 7.66688,-1.30997 10.71262,-4.91298 2.1166,-2.50387 2.27727,-2.54529 2.28195,-0.58834 0.005,2.19175 -2.9695,5.44353 -6.77055,7.40106 -1.92901,0.99345 -2.09104,1.55968 -1.26775,4.43038 0.51918,1.81025 0.94396,3.86486 0.94396,4.5658 0,1.98796 -2.02436,1.49637 -2.06065,-0.5004 -0.0177,-0.97617 -0.68771,-2.64076 -1.48881,-3.6991 -0.80111,-1.05835 -1.21604,-2.31342 -0.92209,-2.78905 0.29396,-0.47563 -0.29114,-0.86271 -1.30023,-0.86018 -1.62634,0.004 -1.86647,1.13659 -2.11441,9.97196 -0.24764,8.82438 -0.0365,10.27645 1.84075,12.66306 1.16625,1.48265 1.78774,3.23408 1.38108,3.89206 -0.50688,0.82017 -0.18261,0.9827 1.03124,0.5169 0.97384,-0.3737 1.91806,-0.67945 2.09826,-0.67945 0.1802,0 0.0907,-1.76639 -0.19885,-3.9253 -0.31462,-2.34566 -0.0717,-4.20637 0.60361,-4.62375 0.72859,-0.45029 1.1301,0.31742 1.1301,2.16082 0,3.86791 4.32532,8.41662 8.00328,8.41662 4.14177,0 9.48617,-1.96193 11.45741,-4.20602 1.20748,-1.37463 2.45099,-1.76382 4.21831,-1.32025 2.4529,0.61564 3.19788,3.11192 3.76798,12.62565 0.16496,2.75294 -2.23664,11.15617 -3.18838,11.15617 -0.51263,0 -0.93207,-0.42013 -0.93207,-0.9336 0,-0.51349 -1.35173,-1.23051 -3.00385,-1.59338 -3.11283,-0.68369 -6.1147,0.3169 -5.79833,1.93271 0.0998,0.50986 -1.41585,1.8165 -3.36818,2.90364 -1.95233,1.08715 -3.86717,2.48233 -4.2552,3.1004 -0.38802,0.61808 -1.07229,0.75698 -1.5206,0.30868 -0.44829,-0.4483 0.59876,-2.07837 2.3268,-3.62237 2.73603,-2.44464 2.93246,-2.94378 1.52059,-3.86406 -1.36008,-0.88655 -1.13109,-1.1668 1.42131,-1.73953 1.67342,-0.37549 4.32903,-1.38161 5.90134,-2.2358 2.63578,-1.43196 2.97046,-1.40698 4.29107,0.32026 1.24555,1.6291 1.56504,1.67501 2.45025,0.35207 1.96671,-2.93923 1.22987,-4.04146 -2.24714,-3.36148 -1.81288,0.35453 -4.29663,1.2911 -5.51944,2.08126 -2.55186,1.64896 -6.54804,1.37302 -7.16311,-0.49463 -0.27095,-0.82275 0.63655,-1.26774 2.58543,-1.26774 1.65161,0 3.57107,-0.68459 4.26549,-1.5213 0.69775,-0.84074 2.90839,-1.5212 4.94161,-1.52109 l 3.67906,2.1e-4 0,-5.48222 0,-5.48223 -4.40931,4.46651 c -4.37386,4.43058 -8.11188,5.31522 -4.53098,1.0723 1.82462,-2.16197 1.82226,-2.16556 -0.26734,-0.40641 -2.57894,2.1711 -7.0559,2.27232 -10.9387,0.2473 -4.2095,-2.19541 -4.73482,-1.82696 -0.89826,0.63003 3.42643,2.19435 4.41516,4.9543 1.77484,4.9543 -0.83671,0 -1.52129,-0.40756 -1.52129,-0.90568 0,-1.94853 -2.85966,-1.93177 -3.37,0.0198 -0.37024,1.41582 0.15415,2.32677 1.76084,3.05883 2.00416,0.91315 5.66595,5.67296 5.66595,7.36491 0,0.33229 -0.62922,0.60417 -1.39826,0.60417 -0.76903,0 -1.96538,-1.36917 -2.65853,-3.04259 -0.69315,-1.67343 -1.78944,-3.0426 -2.43618,-3.0426 -1.54337,0 -3.77849,5.88545 -2.52851,6.65798 1.33546,0.82536 -0.0531,2.70719 -1.5686,2.12567 -0.69143,-0.26532 -1.88486,-0.0944 -2.65209,0.37973 -1.07542,0.66464 -0.82202,1.11172 1.10616,1.9517 7.15651,3.11757 14.01053,7.48882 16.9142,10.78729 2.08478,2.36824 3.81844,3.48422 4.81726,3.10093 3.96928,-1.52316 14.74404,-22.5487 14.74579,-28.77454 2.8e-4,-0.99376 0.91306,-4.20778 2.02839,-7.14226 2.15378,-5.66663 2.60655,-8.83359 1.13269,-7.92269 -1.12065,0.6926 -11.22711,-2.73337 -14.61851,-4.95551 -2.4134,-1.58131 -4.14963,-5.17687 -3.22344,-6.67547 0.23912,-0.38689 2.29007,1.06148 4.55767,3.21859 5.24723,4.99158 11.58358,5.67506 15.86385,1.71117 1.2053,-1.11623 2.9603,-1.87409 3.89999,-1.68415 1.52754,0.30875 1.48151,0.63329 -0.43447,3.0635 -2.46908,3.13175 -1.66442,4.07696 3.47079,4.07696 4.43393,0 6.44065,-1.16078 4.18703,-2.42198 -2.41717,-1.35271 -2.11597,-3.17177 0.31018,-1.87333 1.07895,0.57743 2.957,1.04988 4.17344,1.04988 2.11936,0 2.14312,0.10467 0.56898,2.50711 -1.48039,2.25937 -1.49337,2.93586 -0.1314,6.84583 2.07213,5.94869 1.90658,10.86568 -0.48755,14.48069 -2.65312,4.00608 -2.55003,5.3839 0.50709,6.77682 3.1628,1.44107 3.36741,3.35719 0.25355,2.37443 -7.27384,-2.2957 -13.26703,-1.2051 -14.26079,2.59506 -0.27979,1.06993 -1.17898,1.94534 -1.99819,1.94534 -1.42015,0 -2.75722,3.99602 -2.75722,8.24035 0,1.52679 0.76205,1.90162 3.86606,1.90162 3.10857,0 4.30122,-0.58859 6.08701,-3.00399 1.29475,-1.75124 3.80626,-3.44293 6.02237,-4.05653 5.31845,-1.47256 6.74733,-2.57745 5.96609,-4.61332 -0.47048,-1.22606 -0.25115,-1.57723 0.7461,-1.19455 1.04515,0.40106 1.58902,-0.78882 2.09132,-4.5753 0.37336,-2.81453 2.21007,-9.73936 4.08158,-15.38851 1.87151,-5.64915 3.68706,-13.03946 4.03457,-16.42291 0.68461,-6.66573 0.25143,-7.27093 -6.52597,-9.11745 -1.39452,-0.37994 -3.23506,-1.30245 -4.09009,-2.05001 -0.86266,-0.75423 -4.69965,-1.53109 -8.62068,-1.74539 -3.88634,-0.21241 -8.52042,-1.14091 -10.29796,-2.06336 -1.77755,-0.92243 -3.89924,-1.42107 -4.71486,-1.10809 -0.81562,0.31298 -1.76394,0.11442 -2.10737,-0.44126 -1.066,-1.72482 3.32372,-2.38661 8.32351,-1.25485 2.62526,0.59427 6.82695,1.33179 9.33709,1.63894 2.51013,0.30716 8.21499,2.05111 12.67746,3.87544 l 8.11358,3.31696 0.0852,8.5646 c 0.0814,8.19311 -1.08097,13.07356 -5.66346,23.77755 -0.4776,1.11561 -1.43817,5.22311 -2.1346,9.12777 -1.38935,7.78965 -2.11433,9.15312 -6.18782,11.6374 l -2.74456,1.6738 11.11169,7.97303 c 6.11142,4.38517 11.11168,8.35007 11.11168,8.81091 0,2.194 -3.95746,0.14413 -14.93364,-7.7353 l -11.94262,-8.57317 -1.75229,2.23444 c -0.96376,1.22895 -1.76244,2.48804 -1.77485,2.798 -0.0124,0.30995 4.5181,4.18926 10.06778,8.62068 9.20132,7.34724 11.99485,10.59261 9.11787,10.59261 -1.0617,0 -20.63104,-15.44104 -21.64157,-17.07611 -0.28671,-0.46391 -2.45388,-0.9192 -4.81592,-1.01175 -4.50863,-0.17667 -5.89401,-1.30653 -5.91975,-4.82794 -0.008,-1.16862 -0.89147,-2.91747 -1.96206,-3.88634 -1.86681,-1.68945 -2.06409,-1.62622 -4.81743,1.54388 -1.57901,1.818 -3.66959,4.13734 -4.64576,5.15408 -0.97616,1.01675 -1.77484,2.47733 -1.77484,3.24575 0,0.7684 -0.63685,1.92563 -1.4152,2.57162 -0.77837,0.64598 -1.72257,2.81288 -2.09824,4.81534 -1.27824,6.81366 -6.42215,12.72478 -12.20662,14.02726 -1.11562,0.25119 -3.75366,0.88132 -5.8623,1.40027 -2.6814,0.65991 -5.36056,0.54083 -8.91237,-0.39613 -3.47135,-0.91572 -6.10736,-1.04458 -8.32977,-0.40721 -5.30373,1.5211 -10.67947,1.12417 -12.74466,-0.94102 -1.78816,-1.78816 -10.3563,-3.42983 -17.90336,-3.43032 -6.72491,-4.3e-4 -22.57689,2.19233 -26.75019,3.70027 -8.50425,3.07285 -19.35219,1.37034 -31.05905,-4.87452 -4.11307,-2.19405 -5.9095,-2.14122 -4.73678,0.13932 1.17683,2.28857 6.25807,20.18734 6.25807,22.04422 0,2.2596 -1.83892,2.77505 -2.86704,0.80363 z m 99.44939,-20.43745 c 4.74823,1.32162 6.22287,1.34924 10.19495,0.19104 5.48936,-1.60063 11.00405,-7.42498 13.23804,-13.9814 1.41478,-4.15214 1.37456,-4.41425 -1.18826,-7.74178 -2.75659,-3.57913 -5.25479,-5.89192 -6.42414,-5.94739 -0.78499,-0.0372 -1.74446,4.07055 -2.06527,8.84198 -0.41946,6.23872 -1.73371,3.28347 -2.02945,-4.56348 l -0.29621,-7.85961 -5.07098,-2.76985 c -2.78904,-1.52343 -5.61235,-2.57599 -6.27401,-2.33904 -0.66165,0.23696 -2.40136,-0.51179 -3.86602,-1.66389 l -2.66301,-2.09472 -0.55298,2.1146 c -0.51445,1.96728 -1.15019,2.09178 -9.12505,1.78707 -6.03423,-0.23056 -8.25403,-0.009 -7.49781,0.74673 0.59084,0.59084 1.07426,2.35215 1.07426,3.91401 0,2.2342 0.48661,2.86466 2.28194,2.95654 4.40851,0.22563 6.29346,-0.33891 8.10474,-2.42734 2.28194,-2.6311 3.86152,-1.2729 3.09084,2.65765 -0.52142,2.65936 -0.86881,2.85363 -4.48586,2.50869 -2.15637,-0.20564 -3.92068,-0.33346 -3.92068,-0.28405 0,0.0494 0.86404,1.88704 1.92009,4.0836 3.97366,8.26509 4.67793,12.32678 2.81487,16.23368 -0.93081,1.95191 -1.69237,4.38966 -1.69237,5.41723 0,1.7736 0.22508,1.78736 4.4406,0.27147 4.00318,-1.43954 4.98736,-1.44463 9.99177,-0.0517 z m 19.03614,-17.81705 c 0,-0.24598 0.45639,-0.72931 1.0142,-1.07405 0.55781,-0.34475 1.0142,-0.14349 1.0142,0.44724 0,0.59073 -0.45639,1.07405 -1.0142,1.07405 -0.55781,0 -1.0142,-0.20125 -1.0142,-0.44724 z m -16.3296,-9.44118 c -4.90446,-5.24444 -6.40578,-7.35293 -5.23551,-7.35293 1.6515,0 10.40894,8.1787 10.40894,9.72107 0,2.31661 -1.38544,1.68242 -5.17343,-2.36814 z m -19.8364,25.66493 c 0.39396,-1.02664 -0.007,-1.06789 -1.8634,-0.19175 -1.30093,0.61394 -2.16149,1.44609 -1.91233,1.84923 0.63537,1.02805 3.1726,-0.0857 3.77573,-1.65748 z m -51.05496,0.32872 c 7.71045,-1.77017 22.4747,-3.22584 29.41172,-2.89983 16.09699,0.75651 21.35598,0.51353 22.40168,-1.03503 1.7802,-2.63627 0.31269,-11.60635 -2.62508,-16.04561 -1.48722,-2.24734 -3.42959,-4.36451 -4.31637,-4.7048 -1.98445,-0.76151 -12.62182,1.34399 -11.98618,2.37247 0.25232,0.40827 -1.7231,2.88478 -4.38984,5.50333 -5.0652,4.97371 -8.03558,5.75215 -14.29717,3.74683 -2.05462,-0.658 -1.60704,-0.83118 2.35996,-0.9131 3.90945,-0.0807 5.45736,-0.66284 7.6853,-2.89014 l 2.78984,-2.78904 -4.60931,0.19999 c -2.53512,0.11 -5.53711,0.63443 -6.6711,1.1654 -7.15179,3.34871 -9.49393,3.69029 -22.99821,3.35418 -16.59278,-0.41299 -23.72473,0.86056 -31.04587,5.54382 -2.94758,1.88556 -6.03497,3.42828 -6.86085,3.42828 -0.82588,0 -1.5016,0.45638 -1.5016,1.01419 0,1.39338 1.01293,1.26679 4.52741,-0.56582 3.67563,-1.91663 8.6329,-1.24453 16.50774,2.23809 9.80415,4.33586 16.99727,5.25594 25.61793,3.27679 z m 10.14197,-3.65176 c -3.02861,-0.54332 -5.22026,-2.31149 -2.86511,-2.31149 3.18957,0 7.9361,1.28899 7.9361,2.15516 0,0.91433 -0.72171,0.93659 -5.07099,0.15633 z m 24.08719,-1.99641 c -0.97617,-0.25509 -1.77485,-0.93997 -1.77485,-1.52194 0,-0.60237 0.98286,-0.79471 2.28194,-0.44658 1.25507,0.33635 2.85243,0.61778 3.5497,0.62539 0.69726,0.008 1.26774,0.47024 1.26774,1.02805 0,1.03018 -2.11028,1.15505 -5.32453,0.31508 z m -45.05199,-3.28207 c -14.25804,-0.89321 -12.74137,-2.39127 1.9438,-1.91995 8.21045,0.26351 13.37197,0.86062 14.14806,1.63671 1.33921,1.33921 0.89043,1.34711 -16.09186,0.28324 z m 34.91001,0.18911 c -3.2074,-0.20127 -5.83163,-0.79955 -5.83163,-1.32952 0,-1.05931 9.02029,-1.33036 11.58032,-0.34798 1.57572,0.60466 2.33281,2.61066 0.8436,2.23522 -0.41836,-0.10548 -3.38489,-0.35645 -6.59229,-0.55772 z m -74.28995,3.70324 c 1.94727,-0.76492 1.93989,-0.79936 -0.18449,-0.86107 -2.016,-0.0585 -3.03158,-1.14285 -7.18883,-7.67513 -1.1718,-1.84125 -3.09156,-5.96264 -5.15485,-11.06658 -0.44052,-1.08971 -0.75716,2.68134 -0.72096,8.58602 0.0621,10.11801 0.16121,10.57754 2.5393,11.76767 2.38889,1.19554 6.48611,0.90827 10.70983,-0.75091 z m 7.1144,-5.08897 c 2.22297,-1.17437 5.07456,-3.08504 6.33686,-4.24593 2.93726,-2.70129 3.44711,-2.77146 24.58114,-3.3832 14.56199,-0.4215 18.54546,-0.86568 22.18772,-2.47408 2.44158,-1.07818 6.45765,-1.96034 8.92459,-1.96034 2.46693,0 5.76258,-0.6605 7.32369,-1.46778 1.56109,-0.80727 5.86351,-2.02517 9.56092,-2.70644 6.49277,-1.19635 6.70187,-1.32818 6.1174,-3.85677 -0.95908,-4.14929 -3.13637,-5.15358 -11.17294,-5.15358 -5.93382,0 -7.27326,0.28029 -6.83219,1.42968 0.32324,0.84237 -0.25983,1.68625 -1.41937,2.05428 -1.08241,0.34354 -2.82081,1.56696 -3.86313,2.71872 -1.79186,1.97998 -1.79915,2.16429 -0.13375,3.38206 2.41384,1.76504 2.20921,2.79149 -0.479,2.40262 -1.4128,-0.20437 -2.46248,-1.26067 -2.84169,-2.85958 -0.581,-2.44981 -0.64134,-2.46694 -1.78557,-0.5071 -0.76958,1.31812 -1.19506,1.52155 -1.2151,0.58096 -0.0169,-0.79609 1.45242,-2.69798 3.2653,-4.22644 2.89151,-2.43787 3.07396,-2.86653 1.48619,-3.49198 -2.29351,-0.90346 -10.24766,1.28696 -13.25038,3.64891 -1.96805,1.54807 -4.96897,1.84625 -21.50388,2.13675 -18.57787,0.32638 -19.32298,0.26175 -22.4158,-1.94434 -1.75953,-1.25507 -3.58975,-2.28194 -4.06715,-2.28194 -1.2779,0 -6.1829,-4.75424 -8.1602,-7.90937 -6.0572,-9.66538 -11.44972,-13.43531 -11.44972,-8.00454 0,1.28791 -0.67007,3.22757 -1.48905,4.31034 -2.99536,3.96022 -1.83848,7.77749 5.55636,18.33397 2.22545,3.17693 4.04627,6.56119 4.04627,7.52057 0,2.77959 2.74745,7.32088 5.27928,8.72617 3.01719,1.6747 2.72494,1.70512 7.4132,-0.77162 z m -5.75696,-7.75321 c -1.02201,-1.76456 -1.32859,-3.53413 -0.83462,-4.81744 0.78076,-2.02839 0.78076,-2.02839 1.47923,0 0.38415,1.11562 1.11772,3.07674 1.63015,4.35806 1.73403,4.33591 0.15517,4.65476 -2.27476,0.45938 z m 52.49662,-7.18854 c -0.68022,-1.10063 1.62571,-2.19279 4.62975,-2.19279 1.16986,0 1.85359,0.53715 1.61368,1.26775 -0.50694,1.54385 -5.41184,2.27057 -6.24343,0.92504 z m 109.2645,-7.43978 c 0.68052,-2.60234 0.0702,-3.88078 -1.8527,-3.88078 -1.58173,0 -2.99945,3.51352 -2.04249,5.06191 1.09809,1.77676 3.29597,1.1103 3.89519,-1.18113 z m -41.92198,-5.29357 c 0,-0.21923 -0.70829,-0.67038 -1.57398,-1.00259 -0.90255,-0.34633 -1.30965,-0.17631 -0.95433,0.39859 0.59559,0.9637 2.52831,1.42541 2.52831,0.604 z m 53.53564,-3.6582 c 4.30093,0 6.53996,-8.63387 4.75773,-18.34617 -0.66651,-3.6322 -0.67953,-3.64008 -5.83202,-3.53328 -4.57883,0.0949 -5.24905,0.3925 -5.91436,2.62611 -5.57063,18.70213 -5.97534,20.75662 -4.33044,21.98357 1.29174,0.96352 2.36674,0.80911 5.29556,-0.76065 2.02115,-1.08327 4.73174,-1.96958 6.02353,-1.96958 z m -50.19282,-1.26775 c 1.22046,-7.70426 1.69245,-10.20658 2.26614,-12.01409 0.52306,-1.64802 0.28098,-1.79009 -1.74004,-1.02112 -1.97978,0.75327 -2.31753,1.54653 -2.15561,5.0626 0.10561,2.29316 -0.23668,4.16937 -0.76065,4.16937 -1.07997,0 -1.31193,5.38785 -0.27653,6.42325 1.36963,1.36963 2.15727,0.59577 2.66669,-2.62001 z m -125.0465,-2.78904 c 0,-0.55781 -0.45639,-1.0142 -1.0142,-1.0142 -0.5578,0 -1.01419,0.45639 -1.01419,1.0142 0,0.55781 0.45639,1.0142 1.01419,1.0142 0.55781,0 1.0142,-0.45639 1.0142,-1.0142 z M 542.4681,511.59587 c 2.2327,-3.46004 4.13464,-14.88176 2.75495,-16.5442 -0.63853,-0.76938 -3.41504,-1.33027 -6.73257,-1.36008 -4.24324,-0.0381 -5.99561,-0.51218 -7.05355,-1.90813 -2.62307,-3.46111 -1.01654,-4.80657 2.0626,-1.72742 1.24786,1.24786 2.73989,1.50206 6.1073,1.0405 4.07533,-0.55858 4.63362,-0.36135 6.53475,2.30853 2.80316,3.93667 2.71038,10.56616 -0.21989,15.71191 -1.24589,2.18787 -2.8811,4.18066 -3.63378,4.42844 -1.06288,0.34989 -1.02264,-0.0855 0.18019,-1.94955 z m -59.15641,-16.94872 c 0,-0.47136 0.92356,-1.69282 2.05236,-2.71438 1.36865,-1.23859 1.67626,-2.0898 0.9234,-2.55509 -1.29794,-0.80217 2.48045,-9.08648 4.14423,-9.08648 1.37899,0 1.24418,1.49378 -0.51469,5.70336 l -1.50828,3.60982 5.31152,-0.48614 c 2.92134,-0.26738 6.45253,-0.93902 7.8471,-1.49253 1.87094,-0.74259 2.86788,-0.65068 3.80324,0.35063 1.79125,1.91754 1.62452,2.15989 -1.52139,2.21129 -4.47536,0.0731 -13.65948,2.31397 -15.89162,3.87742 -2.28643,1.60148 -4.64587,1.8971 -4.64587,0.5821 z m 24.51992,-4.86714 c 0.40509,-2.05979 5.60607,-6.07002 6.59274,-5.08335 0.64688,0.6469 -5.14144,6.75071 -6.40179,6.75071 -0.28538,0 -0.3713,-0.75031 -0.19095,-1.66736 z"
       id="path5486"
       inkscape:connector-curvature="0" />
  </g>
</svg>
