<?xml version="1.0" encoding="UTF-8" standalone="no"?>
<!-- Created with Inkscape (http://www.inkscape.org/) -->

<svg
   xmlns:dc="http://purl.org/dc/elements/1.1/"
   xmlns:cc="http://creativecommons.org/ns#"
   xmlns:rdf="http://www.w3.org/1999/02/22-rdf-syntax-ns#"
   xmlns:svg="http://www.w3.org/2000/svg"
   xmlns="http://www.w3.org/2000/svg"
   xmlns:xlink="http://www.w3.org/1999/xlink"
   xmlns:sodipodi="http://sodipodi.sourceforge.net/DTD/sodipodi-0.dtd"
   xmlns:inkscape="http://www.inkscape.org/namespaces/inkscape"
   width="241.869"
   height="176.42314"
   id="svg2"
   version="1.1"
   inkscape:version="0.48.3.1 r9886"
   sodipodi:docname="Bench-dips-1.svg">
  <defs
     id="defs4">
    <radialGradient
       gradientUnits="userSpaceOnUse"
       gradientTransform="matrix(1,0,0,0.91819829,-19.285714,-7.9105395)"
       r="209.56604"
       fy="287.50052"
       fx="398.1105"
       cy="287.50052"
       cx="398.1105"
       id="radialGradient5255"
       xlink:href="#linearGradient5249"
       inkscape:collect="always" />
    <linearGradient
       id="linearGradient5249"
       inkscape:collect="always">
      <stop
         id="stop5251"
         offset="0"
         style="stop-color:#e3e3e3;stop-opacity:1;" />
      <stop
         id="stop5253"
         offset="1"
         style="stop-color:#e3e3e3;stop-opacity:0;" />
    </linearGradient>
  </defs>
  <sodipodi:namedview
     id="base"
     pagecolor="#ffffff"
     bordercolor="#666666"
     borderopacity="1.0"
     inkscape:pageopacity="0.0"
     inkscape:pageshadow="2"
     inkscape:zoom="1.979899"
     inkscape:cx="159.19664"
     inkscape:cy="177.03169"
     inkscape:document-units="px"
     inkscape:current-layer="layer1"
     showgrid="false"
     showguides="true"
     inkscape:guide-bbox="true"
     fit-margin-top="0"
     fit-margin-left="0"
     fit-margin-right="0"
     fit-margin-bottom="0"
     inkscape:window-width="1615"
     inkscape:window-height="1026"
     inkscape:window-x="65"
     inkscape:window-y="24"
     inkscape:window-maximized="1">
    <sodipodi:guide
       orientation="-0.70710678,0.70710678"
       position="-1745.0648,567.36451"
       id="guide2985" />
  </sodipodi:namedview>
  <metadata
     id="metadata7">
    <rdf:RDF>
      <cc:Work
         rdf:about="">
        <dc:format>image/svg+xml</dc:format>
        <dc:type
           rdf:resource="http://purl.org/dc/dcmitype/StillImage" />
        <dc:title></dc:title>
      </cc:Work>
    </rdf:RDF>
  </metadata>
  <g
     inkscape:label="Ebene 1"
     inkscape:groupmode="layer"
     id="layer1"
     transform="translate(-316.49332,-417.58926)">
    <path
       style="fill:#000000"
       d="m 374.26762,592.80726 c -1.8034,-3.454 -6.3314,-20.613 -5.803,-21.9902 1.1804,-3.076 2.399,-0.8014 5.4933,10.2537 2.1389,7.6418 2.9148,11.9585 2.266,12.6073 -0.6488,0.6488 -1.3186,0.3506 -1.9563,-0.8708 z m -54.5859,-16.559 c -0.3193,-7.3141 -0.7704,-20.84288 -1.0026,-30.06401 -0.508,-20.17163 -0.2423,-20.83776 8.4103,-21.08084 3.7493,-0.10534 5.8467,-0.66558 6.6872,-1.78624 1.5461,-2.06141 7.1129,-2.96607 8.0691,-1.31132 0.5059,0.87551 2.125,1.00417 5.7063,0.45344 8.0618,-1.23976 10.509,0.46102 11.9222,8.28585 1.2272,6.79514 7.1663,7.39141 22.0778,2.21655 5.5,-1.9087 11.35,-3.48205 13,-3.49632 3.0716,-0.0266 5.6671,-1.41276 11.7772,-6.28993 1.9117,-1.52597 5.6689,-3.40211 8.3493,-4.1692 2.6805,-0.76709 6.8985,-2.05154 9.3735,-2.85433 8.3625,-2.71244 13.475,-3.89594 20,-4.62987 8.1013,-0.91121 11.5711,-2.32389 12.2697,-4.99538 0.3373,-1.2899 1.3576,-2.07672 2.6929,-2.07672 1.5768,0 2.6649,-1.16433 4.082,-4.36789 1.0627,-2.40234 2.5582,-4.88744 3.3233,-5.52243 0.7651,-0.63499 1.6632,-2.51515 1.9958,-4.17812 0.3326,-1.66297 1.8127,-4.60731 3.2891,-6.54297 2.0935,-2.74465 2.8316,-5.10098 3.3532,-10.70399 0.3679,-3.95153 1.192,-8.4514 1.8314,-9.9997 0.6395,-1.5483 1.1626,-3.87188 1.1626,-5.16349 0,-2.41145 6.9781,-8.52141 9.7322,-8.52141 1.0615,0 1.0991,-0.44678 0.1818,-2.16071 -1.5722,-2.93771 -0.6378,-15.21515 1.568,-20.60219 0.96,-2.34459 3.0854,-5.217 4.7231,-6.38313 7.2936,-5.1935 18.7969,-2.61113 22.2242,4.98908 1.6818,3.72961 1.7051,4.57354 0.3327,12.02072 l -1.4761,8.0095 3.8571,3.76631 c 2.1214,2.07147 3.857,4.53499 3.857,5.47447 0,0.93949 1.4104,2.8949 3.1342,4.34536 2.6694,2.24614 3.2397,3.5568 3.8462,8.83889 0.3916,3.41093 1.673,8.3572 2.8474,10.9917 1.1745,2.6345 2.3385,7.3595 2.5866,10.5 0.2482,3.1405 0.9208,8.41 1.4947,11.71 0.574,3.3 1.9486,12.90257 3.0548,21.33905 2.2035,16.80553 2.0183,18.08458 -2.9935,20.67628 -1.6337,0.84482 -2.9704,1.88756 -2.9704,2.3172 0,0.42965 4.1625,3.56253 9.25,6.96196 13.1738,8.80263 14.455,9.89183 13.1619,11.18963 -0.7859,0.7888 -2.7304,-0.115 -7,-3.2535 -3.2515,-2.39019 -8.6636,-6.17089 -12.0269,-8.40161 l -6.1151,-4.05583 -1.5217,2.61341 -1.5217,2.61341 10.3522,8.00002 c 9.4225,7.2815 12.2816,10.5 9.3277,10.5 -0.6014,0 -6.2264,-4.0642 -12.5,-9.0315 -6.2735,-4.96725 -11.4064,-8.81566 -11.4064,-8.55198 0,1.62094 -6.0237,-1.98782 -6.6989,-4.01322 -0.6723,-2.0169 -19.6719,-18.41407 -21.3011,-18.38339 -0.275,0.005 -1.6293,2.35999 -3.0097,5.23291 -1.5569,3.24053 -3.2652,5.36723 -4.5,5.6021 -1.0946,0.20822 -3.1639,1.21124 -4.5984,2.22892 -1.4345,1.01769 -5.9345,2.35401 -10,2.9696 -4.0655,0.61559 -9.0281,1.98039 -11.028,3.0329 -3.929,2.06773 -9.845,2.53252 -11.4759,0.9016 -1.6732,-1.6732 -19.6875,0.6145 -23.5941,2.9963 -1.8116,1.10454 -4.6065,2.00995 -6.2108,2.012 -1.6043,0.002 -5.7051,1.53628 -9.1128,3.40937 -3.4077,1.87309 -8.7032,4.19599 -11.7678,5.16209 -5.7714,1.8193 -5.7786,1.8189 -24.2251,-1.2333 -2.0633,-0.3414 -6.5057,0.8243 -13.9964,3.6728 -9.4076,3.5774 -11.5305,4.0531 -14.8748,3.3329 -5.619,-1.2101 -7.5426,-4.3646 -8.5094,-13.95473 -0.4441,-4.40514 -1.435,-9.16001 -2.2021,-10.56637 -0.7671,-1.40636 -2.4484,-4.47892 -3.7364,-6.82792 -1.6483,-3.00636 -2.2312,-5.42888 -1.9687,-8.18194 l 0.373,-3.91105 -4.0313,0.6663 c -2.2172,0.36646 -4.4236,0.89981 -4.903,1.18522 -0.4795,0.2854 -0.7045,13.80505 -0.5,30.04367 0.2716,21.57462 0.063,29.62952 -0.7732,29.91402 -0.8037,0.2733 -1.318,-3.5743 -1.7254,-12.909 z m 34.8703,-9.7187 c 3.9041,-1.7295 3.94,-1.7908 1.5,-2.5566 -2.7943,-0.8769 -10.3574,-8.54683 -12.5952,-12.77302 -0.8009,-1.5125 -1.6035,-2.75 -1.7837,-2.75 -0.1801,0 -0.1409,2.3625 0.087,5.25 0.5389,6.82142 2.9627,13.50812 5.1008,14.07202 2.7693,0.7304 3.5068,0.6112 7.6909,-1.2424 z m 10.6152,-3.9303 c 3.3264,-2.58133 9.8842,-3.20826 16.6484,-1.5916 3.155,0.7541 7.6631,1.3871 10.018,1.4067 4.7105,0.039 14.1661,-2.82992 19.3772,-5.87958 1.8377,-1.07546 5.5912,-2.50093 8.3412,-3.16771 2.75,-0.66677 6.7021,-2.0625 8.7825,-3.1016 2.4244,-1.21098 6.8503,-2.07501 12.3274,-2.40658 9.1322,-0.55285 12.1774,-1.33904 14.6104,-3.77207 3.4114,-3.41143 -1.5149,-14.27568 -8.326,-18.36184 -2.453,-1.47155 -2.9464,-1.39663 -8.4113,1.2771 -3.193,1.56219 -5.2765,3.01668 -4.63,3.23219 0.7395,0.2465 0.1191,1.75015 -1.6726,4.05376 -1.5664,2.01405 -3.123,4.42139 -3.4589,5.34964 -0.96,2.65221 -10.8912,4.96472 -12.2033,2.84159 -0.5527,-0.89427 1.0162,-1.49443 5.8568,-2.24039 1.0312,-0.15891 2.9692,-1.70981 4.3068,-3.44644 l 2.4319,-3.1575 -3.6872,0.83159 c -2.0279,0.45738 -5.541,2.15037 -7.8068,3.76221 -6.6145,4.70534 -8.667,5.52399 -17.1197,6.82798 -17.6552,2.72368 -24.3993,5.52675 -33.5605,13.94885 -5.6726,5.215 -6.816,7.4673 -1.8243,3.5937 z m 18.8848,-10.14932 c 0,-0.55 1.2375,-1.00534 2.75,-1.01187 1.5125,-0.007 5.225,-0.67619 8.25,-1.48813 6.2823,-1.68624 16,-1.98992 16,-0.5 0,0.55 -1.2375,1.03443 -2.75,1.07651 -1.5125,0.0421 -3.425,0.22492 -4.25,0.4063 -10.6475,2.34093 -20,3.0504 -20,1.51719 z m 29,-1 c 0,-0.55 1.8,-1 4,-1 2.2,0 4,0.45 4,1 0,0.55 -1.8,1 -4,1 -2.2,0 -4,-0.45 -4,-1 z m 10.6292,-6.99386 c 1.6668,-1.71888 9.2118,-3.19452 11.0562,-2.16235 2.1675,1.21301 0.8055,1.7892 -6.1854,2.61662 -4.5559,0.53923 -5.7282,0.42989 -4.8708,-0.45427 z m 13.3708,-0.006 c 0,-0.55 1.575,-1 3.5,-1 1.925,0 3.5,0.45 3.5,1 0,0.55 -1.575,1 -3.5,1 -1.925,0 -3.5,-0.45 -3.5,-1 z m -74.7893,14.88723 c 2.5912,-1.38674 6.5346,-5.78922 7.3535,-8.20955 0.3456,-1.02153 1.2219,-1.59002 1.9942,-1.29368 0.7576,0.29076 1.6223,0.13271 1.9214,-0.35121 0.7242,-1.17177 9.5468,-4.06286 14.1351,-4.63196 2.0144,-0.24985 4.0002,-0.66292 4.4128,-0.91795 0.4127,-0.25502 4.0417,-1.15605 8.0646,-2.00229 4.0229,-0.84625 8.0104,-2.15965 8.8611,-2.91868 0.8506,-0.75904 3.6904,-2.51367 6.3105,-3.89919 4.0405,-2.13659 4.4581,-2.61618 2.75,-3.15831 -1.1076,-0.35155 -2.0139,-1.36987 -2.0139,-2.26293 0,-1.3542 -0.2437,-1.30152 -1.4682,0.31739 -1.2075,1.59647 -1.4738,1.65757 -1.5,0.34414 -0.017,-0.87834 0.8682,-2.6347 1.9682,-3.90301 2.4161,-2.78572 2.5379,-4 0.4012,-4 -2.7019,0 -8.2178,3.05519 -11.409,6.31925 -2.3725,2.42663 -4.722,3.47615 -10.7636,4.8082 -4.2507,0.9372 -11.1036,2.63421 -15.2286,3.77113 -8.1195,2.23791 -14.5166,2.69248 -15.5,1.10142 -0.3399,-0.55 -1.8289,-1.00168 -3.309,-1.00374 -2.6463,-0.004 -8.6771,-3.08751 -10.6733,-5.45782 -2.2386,-2.65817 -10.3156,-8.53844 -11.7282,-8.53844 -1.1044,0 -1.6732,1.61337 -2.1385,6.06554 -0.7417,7.09581 0.7515,10.01561 8.6996,17.01184 2.5941,2.28339 5.3382,5.3376 6.0981,6.78712 3.4238,6.53099 7.8815,8.63468 12.762,6.02273 z m -5.9102,-7.14117 c -2.0024,-2.20384 -2.7303,-5.74606 -1.1807,-5.74606 0.96,0 4.3266,6.88698 3.6818,7.53181 -0.2532,0.25317 -1.3787,-0.55042 -2.5011,-1.78575 z m 50.1407,-20.27786 c 2.1436,-1.62137 5.5588,-1.97475 5.5588,-0.57519 0,1.13332 -2.5257,2.11635 -5.3318,2.07519 -2.1216,-0.0311 -2.1265,-0.0633 -0.227,-1.5 z m 121.4683,16.7818 c 3.078,-4.1196 7.3748,-8.19354 9.2894,-8.80752 2.0065,-0.64345 3.4466,-4.41885 2.0283,-5.31733 -0.5428,-0.34383 -1.2146,-3.77515 -1.493,-7.62515 -0.2783,-3.85 -1.2077,-10.825 -2.0653,-15.5 -2.3785,-12.96581 -2.6951,-15.02466 -3.3054,-21.5 -0.311,-3.3 -1.6642,-8.82454 -3.007,-12.27675 -1.3428,-3.45221 -2.183,-6.6949 -1.8671,-7.20598 1.0762,-1.74133 -2.2455,-7.80719 -4.6481,-8.48796 -5.296,-1.50062 -7.8413,-2.84794 -7.8413,-4.15063 0,-1.65792 0.5133,-1.70953 3.1212,-0.31383 4.1114,2.20036 3.891,0.19208 -0.6136,-5.59151 -4.2458,-5.45137 -4.5995,-6.32287 -4.0482,-9.97334 1.7953,-11.88595 1.7821,-12.29804 -0.5267,-16.40603 -1.9554,-3.47915 -2.8491,-4.10885 -6.6379,-4.67702 -10.68,-1.60156 -16.1899,4.56664 -16.3912,18.34969 -0.065,4.44253 0.1818,8.56243 0.5482,9.15534 1.8518,2.99618 13.661,-0.44635 15.1888,-4.4277 0.3154,-0.82186 1.2306,-1.49428 2.0338,-1.49428 1.8141,0 1.0605,2.79395 -2.3284,8.63288 -1.9217,3.31099 -2.1194,4.24007 -0.9942,4.67186 0.7725,0.29643 1.9019,0.0416 2.5097,-0.56622 1.6395,-1.63945 2.4633,-0.21395 1.2196,2.11009 -1.4991,2.8011 -1.3502,6.73017 0.3819,10.07987 1.5622,3.02087 5.2245,5.30532 4.192,2.61489 -0.3122,-0.81363 -0.1278,-1.75112 0.4097,-2.08331 1.1558,-0.71433 3.9375,5.48399 3.9304,8.75782 -0.01,2.18248 -0.1124,2.15113 -2.4641,-0.71788 l -2.459,-3 -0.036,3.62557 c -0.037,3.6908 3.9963,14.1583 5.9107,15.34151 0.6501,0.40173 1.0533,-0.52022 1.0533,-2.40806 0,-1.68246 0.45,-3.05902 1,-3.05902 0.55,0 1.0062,1.9125 1.0137,4.25 0.01,2.3375 0.3034,5.33287 0.6575,6.65637 0.4862,1.81708 0.3265,2.21023 -0.6521,1.60544 -2.07,-1.27934 -0.3423,5.86842 3.1224,12.91797 l 2.9834,6.07022 -0.3983,-4 c -0.219,-2.2 0.2625,-5.575 1.0701,-7.5 2.066,-4.92418 1.7332,-8.43882 -1.158,-12.22933 -1.373,-1.80009 -3.4634,-5.52239 -4.6453,-8.27178 -1.8171,-4.22715 -1.9811,-5.56185 -1.062,-8.64541 0.5978,-2.00558 1.8222,-3.92867 2.7209,-4.27354 2.3059,-0.88486 3.1902,0.36907 1.0894,1.54475 -1.2983,0.72654 -1.7417,2.26502 -1.7417,6.04298 0,4.07711 0.5378,5.7018 2.75,8.30758 5.2193,6.14781 5.925,7.17399 6.5329,9.49831 0.3504,1.33999 -0.076,3.65089 -1.0018,5.42966 -0.8866,1.70323 -1.7502,5.57178 -1.9192,8.59678 -0.1691,3.025 -0.3538,6.175 -0.4105,7 -0.1635,2.37787 3.4779,13.82925 4.8263,15.17762 1.6539,1.65393 1.539,2.82238 -0.2777,2.82238 -0.825,0 -1.5,-0.40186 -1.5,-0.89301 0,-1.63574 -2.7776,-1.98803 -6.5488,-0.83061 -6.0334,1.85171 -8.2158,9.81617 -3.8782,14.15369 2.2668,2.26681 4.0028,1.94351 6.3365,-1.18007 z m -0.4348,-59.28649 c -2.313,-3.33776 -2.6556,-4.54437 -1.8985,-6.6864 1.3378,-3.78475 3.8659,-4.37017 3.1709,-0.73424 -0.2948,1.54213 0.096,4.59606 0.8691,6.78649 0.7729,2.19044 1.2422,4.14557 1.0431,4.34474 -0.1992,0.19917 -1.6322,-1.4706 -3.1846,-3.71059 z m -71.49,57.66405 c 0.01,-0.47985 -0.6547,-0.31636 -1.4737,0.3633 -0.8189,0.67967 -1.2126,1.68281 -0.875,2.22921 0.6198,1.00278 2.3185,-0.87232 2.3487,-2.59251 z m 9.4878,-1.26226 c 1.142,-0.7904 4.5514,-1.3653 8.097,-1.3653 4.6584,0 6.6683,-0.47166 8.3963,-1.97031 1.2495,-1.08367 3.0885,-2.22952 4.0867,-2.54633 2.4849,-0.78869 6.9475,-10.07484 6.9475,-14.45702 0,-2.78414 -0.719,-4.21188 -3.2312,-6.41631 -1.7772,-1.55944 -4.2657,-3.22867 -5.5301,-3.70939 -2.2627,-0.86026 -2.2932,-0.77898 -1.9383,5.15843 0.1983,3.31786 0.064,6.21567 -0.2982,6.43958 -0.3623,0.22391 -1.4238,-2.83838 -2.359,-6.80509 l -1.7003,-7.2122 -5.7214,-1.6949 c -3.1468,-0.9322 -6.3965,-1.65901 -7.2215,-1.61515 -0.825,0.0439 -2.7375,-0.25053 -4.25,-0.65419 -2.2854,-0.60996 -2.75,-0.4162 -2.75,1.14709 0,1.44883 -1.2129,2.16303 -5.2792,3.1084 -2.9036,0.67507 -6.7072,1.22739 -8.4523,1.22739 l -3.173,0 2.4335,2.62581 c 1.3385,1.44419 2.1904,3.01919 1.8933,3.5 -0.6008,0.97211 2.9632,1.14631 6.1171,0.29898 1.1217,-0.30134 2.4717,-1.53269 3,-2.73634 1.4039,-3.19825 3.9504,-2.79496 4.0081,0.63475 0.051,3.01788 -1.9235,4.6768 -5.5658,4.6768 -2.0579,0 -2.0239,0.16015 0.7973,3.75 5.3376,6.79203 6.5206,10.04373 5.8207,15.99936 -0.6189,5.26556 -0.5793,5.37924 1.633,4.68882 1.247,-0.38917 3.155,-1.32196 4.2398,-2.07288 z m 2.9522,-28.66879 c -4.9528,-3.41315 -7.1661,-6.33344 -3.7478,-4.94492 4.5226,1.83711 10.3231,5.73248 10.3231,6.93255 0,2.01812 -1.3584,1.60747 -6.5753,-1.98763 z m 49.5753,21.85616 c 0,-0.66135 -3.4875,-3.70791 -7.75,-6.77015 -9.325,-6.69924 -13.0088,-10.42365 -11.652,-11.78045 0.6285,-0.62858 2.7238,0.53643 5.9367,3.30095 2.7309,2.34981 7.2427,5.881 10.0261,7.84709 5.0131,3.54101 5.0825,3.55716 7.3608,1.7123 1.265,-1.02432 3.3713,-1.86241 4.6806,-1.86241 l 2.3806,0 -2.3914,-6.35353 c -1.3153,-3.49445 -2.8315,-7.20695 -3.3693,-8.25 -3.5696,-6.92277 -4.7809,-10.61038 -5.2217,-15.89647 l -0.5004,-6 -2.9144,5.7544 c -1.8417,3.63649 -5.6557,8.37704 -10.3626,12.8802 -6.1832,5.91556 -7.5364,7.78304 -7.9673,10.9956 -0.2866,2.13733 -0.094,3.8698 0.4292,3.8698 0.5216,0 4.9146,3.15633 9.7623,7.01407 6.9425,5.52476 9.1048,6.77275 10.1834,5.87756 0.7532,-0.62509 1.3694,-1.67762 1.3694,-2.33896 z m -162.2279,-9.55267 c -0.9806,-3.86307 -1.1567,-3.99914 -5.1437,-3.975 l -4.1284,0.025 4.2113,3.97499 c 5.3524,5.05211 6.3482,5.04719 5.0608,-0.025 z m 72.4277,-0.16352 c 1.4849,-1.04563 5.1974,-3.04458 8.25,-4.44212 3.0526,-1.39753 5.5502,-2.81648 5.5502,-3.15322 0,-1.68335 -4.6558,-5.24114 -6.8587,-5.24114 -4.2651,0 -14.4183,3.21072 -12.9747,4.10293 0.984,0.60815 0.6368,1.49287 -1.4341,3.65446 -3.2208,3.36172 -3.2684,3.65967 -0.9825,6.14615 1.97,2.14284 4.3113,1.84717 8.4498,-1.06706 z m 74.8456,-18.60082 c 3.05,-3.21943 6.3453,-7.40199 7.323,-9.29458 0.9777,-1.89259 2.3813,-4.51891 3.1192,-5.83626 1.144,-2.04242 1.1058,-2.88977 -0.2599,-5.7535 l -1.6014,-3.35832 -2.0631,6.14788 c -1.2282,3.65988 -2.9737,6.74585 -4.3132,7.62547 -2.1052,1.38255 -2.25,1.33236 -2.25,-0.7803 0,-2.09065 -0.3148,-2.21022 -4.25,-1.61422 -2.3375,0.35402 -5.0111,0.75269 -5.9414,0.88592 -0.9303,0.13324 -1.6623,-0.20775 -1.6267,-0.75775 0.047,-0.72899 9.2511,-3.99873 12.5681,-4.46487 0.1375,-0.0193 0.25,0.63987 0.25,1.46487 0,2.02149 1.6298,1.90729 2.4269,-0.17005 1.1307,-2.94656 -1.8236,-3.93695 -7.17,-2.40362 -2.1337,0.61193 -3.4477,0.57398 -3.8715,-0.11181 -0.8702,-1.40796 1.5152,-2.78056 4.8646,-2.79921 1.771,-0.01 2.75,-0.54933 2.75,-1.51531 0,-2.19751 1.6803,-1.8306 2.2898,0.5 0.7514,2.87347 2.3957,2.46285 3.0032,-0.75 0.2861,-1.5125 0.8396,-3.7625 1.2302,-5 0.934,-2.95935 -0.3388,-2.89365 -7.6689,0.39589 -3.2427,1.45524 -6.194,2.34774 -6.5584,1.98333 -0.9169,-0.9169 0.445,-2.06232 5.8209,-4.89578 8.4716,-4.46512 9.0444,-5.05837 7.2952,-7.55565 -1.9727,-2.81641 -4.8446,-2.94027 -4.1222,-0.17779 0.6061,2.31769 -1.0686,2.73985 -1.933,0.48726 -0.3193,-0.832 0.032,-2.25173 0.7814,-3.15495 0.749,-0.90321 1.3674,-3.8052 1.3741,-6.44886 0.014,-5.28996 -1.2576,-6.18403 -6.7488,-4.74696 -1.5051,0.39389 -2.9802,0.32189 -3.278,-0.15999 -0.5903,-0.95514 2.5849,-2.97177 4.6988,-2.9843 0.7237,-0.004 1.8543,-1.16825 2.5125,-2.58656 1.0586,-2.281 1.0008,-2.49966 -0.5,-1.89367 -0.9332,0.3768 -3.3885,0.92557 -5.4561,1.21949 -3.2442,0.46116 -3.5318,0.7008 -2.0985,1.74882 1.3215,0.96633 1.3925,1.38027 0.3474,2.02619 -0.844,0.52157 -1.9384,0.0399 -3.0618,-1.34736 -0.9616,-1.18751 -2.3636,-2.15911 -3.1156,-2.15911 -2.1468,0 -5.8122,2.95082 -5.8122,4.67915 0,1.28796 0.2699,1.3418 1.521,0.30348 1.7836,-1.48032 6.7504,-2.23067 5.9249,-0.89512 -0.3101,0.50187 -1.1269,0.91249 -1.815,0.91249 -1.7389,0 -7.6654,5.9607 -8.7421,8.79247 -1.3271,3.49067 -1.0742,7.19915 0.5331,7.81592 2.5469,0.97733 5.3785,-1.49332 7.956,-6.9419 2.763,-5.84032 5.056,-8.3915 6.0691,-6.75225 0.3438,0.55625 -0.4583,2.72753 -1.7824,4.82506 -3.6739,5.81979 -4.2243,9.70093 -1.7297,12.19555 1.1358,1.13583 2.5151,2.06515 3.0651,2.06515 0.55,0 1,0.45 1,1 0,0.55 -0.3808,1 -0.8463,1 -1.2147,0 -7.0252,-2.98312 -7.5898,-3.89659 -0.5335,-0.86323 -6.3736,-0.22531 -6.9751,0.76189 -0.2127,0.34908 1.1059,0.71264 2.9302,0.80789 4.8025,0.25077 8.1658,2.83296 8.919,6.84761 0.3533,1.88366 1.4119,3.85904 2.3522,4.38974 1.416,0.79911 1.4829,1.19039 0.3889,2.27718 -1.0914,1.08412 -1.6564,0.90181 -3.25,-1.0485 -1.061,-1.29844 -1.9291,-3.42736 -1.9291,-4.73095 0,-4.19398 -6.8991,-4.35031 -6.9847,-0.15827 -0.01,0.4125 0.6291,0.75 1.4166,0.75 1.286,0 5.5681,4.92531 5.5681,6.40437 0,1.40337 -2.6226,0.42957 -3.7636,-1.39746 -1.5229,-2.4386 -5.197,-2.11712 -6.6853,0.58495 -0.5781,1.04948 -1.5011,2.23875 -2.0511,2.64283 -0.55,0.40407 0.1826,0.74157 1.6281,0.75 1.4965,0.009 3.2187,0.88002 4,2.02367 0.7545,1.1046 2.6094,2.10275 4.1219,2.21811 3.5798,0.27303 3.4715,0.98541 -0.7992,5.25607 -3.3826,3.38263 -3.8,5.51746 -1.0788,5.51746 0.6896,0 2.5755,1.38697 4.1909,3.08217 4.4257,4.64423 8.3662,3.66525 15.4825,-3.84651 z m -10.5454,-8.1915 c -2.4748,-0.49419 -2.6793,-0.72554 -1.1682,-1.32161 2.5789,-1.01723 5.6682,-0.89818 5.6682,0.21843 0,1.45445 -1.2303,1.75608 -4.5,1.10318 z m 4,-28.04416 c 0.34,-0.55 1.4915,-1 2.5591,-1 1.0675,0 1.9409,0.45 1.9409,1 0,0.55 -1.1515,1 -2.559,1 -1.4513,0 -2.2915,-0.43284 -1.941,-1 z m -18,35 c -0.3399,-0.55 -0.1414,-1 0.441,-1 0.5825,0 1.059,-0.60277 1.059,-1.33948 0,-0.73672 1.2375,-1.94784 2.75,-2.69139 l 2.75,-1.3519 -2.5,-0.37936 c -1.375,-0.20864 -2.95,-0.94798 -3.5,-1.64297 -1.5018,-1.89775 -6.5869,-2.98504 -5.9278,-1.26748 0.2854,0.74368 -0.1366,1.8961 -0.9376,2.56092 -2.7591,2.2898 -2.5925,-0.62082 0.3876,-6.77287 3.4523,-7.12674 3.4499,-7.11547 1.4778,-7.11547 -0.825,0 -1.5285,-0.5625 -1.5634,-1.25 -0.035,-0.6875 -0.5011,-0.15438 -1.0361,1.18472 -0.535,1.33909 -0.7214,3.08966 -0.4142,3.89016 0.3131,0.81574 -0.3367,2.08251 -1.4784,2.88216 -1.8447,1.2921 -5.0079,7.23898 -5.0079,9.41508 0,0.48284 0.7875,0.90382 1.75,0.93552 0.9625,0.0317 4,1.14067 6.75,2.46436 5.796,2.78982 5.8141,2.79519 5,1.478 z m 0.9297,-27.81929 c -0.1292,-0.17561 -1.1558,0.25585 -2.2814,0.9588 -1.5463,0.96567 -1.7792,1.6002 -0.9529,2.59589 0.8756,1.05508 1.3305,0.86393 2.2814,-0.9588 0.6532,-1.25213 1.082,-2.42028 0.9529,-2.59589 z"
       id="path5520"
       inkscape:connector-curvature="0" />
  </g>
</svg>
