<?xml version="1.0" encoding="UTF-8" standalone="no"?>
<!-- Created with Inkscape (http://www.inkscape.org/) -->

<svg
   xmlns:dc="http://purl.org/dc/elements/1.1/"
   xmlns:cc="http://creativecommons.org/ns#"
   xmlns:rdf="http://www.w3.org/1999/02/22-rdf-syntax-ns#"
   xmlns:svg="http://www.w3.org/2000/svg"
   xmlns="http://www.w3.org/2000/svg"
   xmlns:xlink="http://www.w3.org/1999/xlink"
   xmlns:sodipodi="http://sodipodi.sourceforge.net/DTD/sodipodi-0.dtd"
   xmlns:inkscape="http://www.inkscape.org/namespaces/inkscape"
   width="276.20435"
   height="286.7818"
   id="svg2"
   version="1.1"
   inkscape:version="0.48.3.1 r9886"
   sodipodi:docname="Bench-press-1.svg"
   inkscape:export-filename="/home/christian/Arbeitsfläche/Dropbox/Website/opentraining/cc_exercises/Bench-press-1.png"
   inkscape:export-xdpi="199.63289"
   inkscape:export-ydpi="199.63289">
  <defs
     id="defs4">
    <radialGradient
       gradientUnits="userSpaceOnUse"
       gradientTransform="matrix(1,0,0,0.91819829,-19.285714,-7.9105395)"
       r="209.56604"
       fy="287.50052"
       fx="398.1105"
       cy="287.50052"
       cx="398.1105"
       id="radialGradient5255"
       xlink:href="#linearGradient5249"
       inkscape:collect="always" />
    <linearGradient
       id="linearGradient5249"
       inkscape:collect="always">
      <stop
         id="stop5251"
         offset="0"
         style="stop-color:#e3e3e3;stop-opacity:1;" />
      <stop
         id="stop5253"
         offset="1"
         style="stop-color:#e3e3e3;stop-opacity:0;" />
    </linearGradient>
  </defs>
  <sodipodi:namedview
     id="base"
     pagecolor="#ffffff"
     bordercolor="#666666"
     borderopacity="1.0"
     inkscape:pageopacity="0.0"
     inkscape:pageshadow="2"
     inkscape:zoom="2.8"
     inkscape:cx="199.26055"
     inkscape:cy="110.28328"
     inkscape:document-units="px"
     inkscape:current-layer="layer1"
     showgrid="false"
     showguides="true"
     inkscape:guide-bbox="true"
     fit-margin-top="0"
     fit-margin-left="0"
     fit-margin-right="0"
     fit-margin-bottom="0"
     inkscape:window-width="1615"
     inkscape:window-height="1026"
     inkscape:window-x="65"
     inkscape:window-y="24"
     inkscape:window-maximized="1">
    <sodipodi:guide
       orientation="-0.70710678,0.70710678"
       position="-1711.4205,579.07563"
       id="guide2985" />
  </sodipodi:namedview>
  <metadata
     id="metadata7">
    <rdf:RDF>
      <cc:Work
         rdf:about="">
        <dc:format>image/svg+xml</dc:format>
        <dc:type
           rdf:resource="http://purl.org/dc/dcmitype/StillImage" />
        <dc:title />
      </cc:Work>
    </rdf:RDF>
  </metadata>
  <g
     inkscape:label="Ebene 1"
     inkscape:groupmode="layer"
     id="layer1"
     transform="translate(-282.84913,-318.94173)">
    <path
       style="fill:#000000"
       d="m 453.25229,603.8772 c -0.50026,-0.2609 -1.39812,-0.47437 -1.99524,-0.47437 -2.08694,0 -6.02095,-2.55362 -6.72432,-4.36483 -0.18683,-0.4811 -0.49372,-1.92485 -0.68198,-3.20833 -0.32344,-2.2051 -0.57,-2.86897 -2.19505,-5.91042 -0.55014,-1.02963 -0.67213,-1.81 -0.67213,-4.29958 0,-1.67289 -0.19842,-3.82186 -0.44094,-4.77548 -0.80842,-3.17887 -0.9307,-5.88456 -0.37011,-8.18957 0.4958,-2.03859 0.48586,-2.31475 -0.26482,-7.35765 -0.42897,-2.88175 -1.24591,-7.52591 -1.81543,-10.32034 -0.91936,-4.51091 -1.03789,-5.68627 -1.05678,-10.47911 -0.0196,-4.96824 0.0489,-5.64968 0.8601,-8.55326 0.48476,-1.73521 1.74558,-5.23109 2.80183,-7.76862 1.86295,-4.47557 1.91329,-4.67109 1.68106,-6.53032 -0.13166,-1.05413 -0.24931,-3.63137 -0.26144,-5.7272 -0.0241,-4.16723 -0.0375,-4.20465 -2.59832,-7.251 -0.56293,-0.66966 -1.3376,-1.99145 -1.7215,-2.93732 -0.38839,-0.95692 -0.89992,-1.71976 -1.15321,-1.71976 -1.1699,0 -2.41252,-1.05841 -3.16032,-2.69181 -0.8347,-1.82323 -1.70904,-5.81188 -1.70904,-7.7965 0,-0.67293 -0.14009,-1.3101 -0.31132,-1.41593 -0.17123,-0.10582 -9.50319,2.81514 -20.73769,6.49102 -11.2345,3.67588 -20.64435,6.68342 -20.91078,6.68342 -0.26643,0 -1.50885,-1.0565 -2.76093,-2.34778 l -2.27651,-2.34777 0,-2.88909 c 0,-2.40808 0.0925,-2.94667 0.55571,-3.23491 0.30564,-0.1902 4.84262,-1.73325 10.08218,-3.42902 l 9.52647,-3.08319 0.0726,-11.57786 0.0726,-11.57786 -13.69775,-12.06686 c -14.71331,-12.96148 -14.67998,-12.92536 -15.08517,-16.34664 -0.35153,-2.96807 1.11255,-5.8087 3.67745,-7.13506 l 0.89034,-0.46041 -0.75286,-2.95374 c -0.51144,-2.00654 -0.96168,-3.10649 -1.40403,-3.43006 -2.11118,-1.54433 -2.84721,-2.3766 -3.18535,-3.60188 -0.20037,-0.72607 -0.77471,-2.17751 -1.27632,-3.22542 -2.57654,-5.38274 -6.38955,-17.89836 -8.2213,-26.98516 -0.26466,-1.31296 -0.698,-2.26708 -1.40452,-3.09248 -0.56196,-0.65653 -1.21093,-1.76691 -1.44214,-2.46751 -0.23122,-0.70059 -0.55066,-1.27381 -0.70986,-1.27381 -0.27484,0 -12.72067,2.78531 -13.45183,3.01044 -0.24613,0.0758 -0.21852,0.87751 0.0949,2.75575 0.63649,3.81437 0.61803,11.21928 -0.0365,14.65601 -1.02788,5.39682 -3.07765,9.9269 -5.87822,12.99117 -3.03803,3.32409 -6.82902,4.54277 -11.29699,3.63162 l -2.50953,-0.51176 -1.445,0.90878 c -5.1679,3.25015 -11.70961,1.98896 -16.94968,-3.26778 -2.7763,-2.78512 -4.83265,-5.80981 -6.87781,-10.11655 -1.45131,-3.05619 -3.18019,-8.23282 -3.18019,-9.52214 0,-0.4361 -0.17305,-0.5338 -0.71449,-0.40335 -0.39297,0.0947 -4.07256,0.9431 -8.17688,1.8854 l -7.4624,1.71328 -0.87326,-0.93172 c -0.70076,-0.74767 -0.8723,-1.2287 -0.8684,-2.43507 0.002,-0.82685 0.10985,-1.66686 0.23816,-1.8667 0.12832,-0.19984 3.94863,-1.17806 8.48957,-2.17383 l 8.25628,-1.81047 0.031,-5.7649 c 0.0277,-5.15541 0.11953,-6.10061 0.86846,-8.94038 0.96922,-3.67504 2.81074,-7.60775 4.6356,-9.89968 3.31354,-4.16164 8.29609,-5.70771 13.43762,-4.16965 0.99225,0.29682 1.28384,0.27098 1.75514,-0.15553 0.31085,-0.28132 1.34725,-0.86278 2.30309,-1.29213 6.11791,-2.74804 12.87466,-0.0149 18.40948,7.44661 1.97166,2.65803 4.30272,6.99473 5.40249,10.05082 0.64731,1.79877 0.78157,1.96315 1.46356,1.79198 0.41299,-0.10365 3.71482,-0.863 7.33741,-1.68744 l 6.58654,-1.49897 0.22206,-1.30078 c 0.3834,-2.24589 1.06175,-3.19065 2.5678,-3.57624 2.94288,-0.75346 4.09337,-1.27291 4.87399,-2.20063 1.12635,-1.33859 3.70502,-2.06645 6.42212,-1.81273 2.33223,0.21779 3.4643,0.81654 3.70091,1.95741 0.0901,0.43442 0.23799,1.1471 0.32864,1.58373 0.12667,0.61007 0.36561,0.79565 1.03204,0.80153 0.47696,0.004 14.24939,-3.02066 30.60538,-6.72195 l 29.73816,-6.72962 0.1999,-1.2501 c 0.25603,-1.60112 0.8384,-2.70252 2.02564,-3.83097 0.83618,-0.79478 1.25353,-0.92197 3.53914,-1.07863 2.33434,-0.16 2.68548,-0.10788 3.54256,0.52579 0.93387,0.69043 0.99173,0.69421 3.14104,0.20536 3.05933,-0.69583 4.90178,-0.63938 6.3876,0.1957 l 1.23431,0.69372 7.38275,-1.66649 c 4.0605,-0.91657 7.6109,-1.73156 7.88975,-1.81109 0.41867,-0.11939 0.54017,-0.87837 0.69737,-4.35608 0.22369,-4.94876 0.84181,-8.23516 2.26221,-12.02753 1.88801,-5.04085 4.86895,-8.93254 8.09384,-10.56671 1.93748,-0.9818 5.07923,-1.48172 7.17495,-1.1417 1.46576,0.23781 1.6773,0.18678 2.75331,-0.66425 3.96417,-3.13529 9.59926,-3.25071 14.16534,-0.29014 2.08235,1.35017 4.78871,4.16636 6.54135,6.80684 1.56799,2.36224 3.80855,7.12664 4.54098,9.65598 0.49521,1.71027 0.66977,1.97562 1.21351,1.84494 7.98594,-1.91925 16.77112,-3.72755 17.37411,-3.57621 0.42266,0.10608 0.97046,0.57028 1.21732,1.03156 0.48706,0.91009 0.554,3.20685 0.10467,3.59182 -0.15306,0.13112 -4.27939,1.14408 -9.16963,2.25102 l -8.89138,2.01264 0,6.85508 c 0,7.77713 -0.34863,9.99229 -2.30331,14.63503 -2.16231,5.13583 -4.81514,8.36962 -8.24953,10.05605 -1.65784,0.81409 -2.14778,0.89939 -5.16581,0.89939 -2.88553,0 -3.46248,0.0906 -4.28691,0.67301 -2.67629,1.89073 -3.63924,2.18492 -7.15153,2.18492 -3.15431,0 -3.46281,-0.06 -5.52249,-1.07397 -5.07473,-2.49828 -9.96201,-9.21546 -12.50354,-17.18509 -0.52912,-1.65919 -1.06307,-3.69723 -1.18655,-4.52897 -0.12348,-0.83175 -0.32645,-1.57527 -0.45105,-1.65228 -0.23168,-0.14318 -15.23999,3.19739 -15.49049,3.44789 -0.076,0.076 0.0156,1.68669 0.20348,3.57925 0.23125,2.32872 0.24011,4.0569 0.0274,5.34632 -0.63189,3.83028 -0.38869,9.57826 0.66134,15.63075 1.13783,6.55859 1.1057,8.87395 -0.18908,13.62666 -0.60663,2.22675 -0.72836,3.13122 -0.48307,3.58953 0.52803,0.98664 0.39384,1.74393 -0.78352,4.42172 -1.00763,2.2918 -1.112,2.80471 -1.1177,5.4931 -0.0105,4.9337 -0.86719,9.55053 -2.41033,12.98909 -0.62056,1.38281 -1.66918,2.65607 -4.44591,5.39837 -1.99858,1.9738 -3.71536,3.91372 -3.81505,4.31093 -0.11197,0.44613 0.0533,1.06109 0.43231,1.60875 1.26161,1.8229 1.67092,3.48473 1.68643,6.84702 0.0135,2.92178 0.10447,3.42132 0.90493,4.96754 1.39496,2.69457 5.78824,8.43918 6.94693,9.08372 0.57174,0.31804 1.32798,1.045 1.68054,1.61544 0.68153,1.10274 1.29837,1.38066 4.89333,2.20468 1.8005,0.41271 2.48399,0.75833 3.65181,1.84667 1.20082,1.11908 2.14065,1.58007 5.72364,2.80749 2.3578,0.80771 6.00168,1.9197 8.0975,2.4711 3.82197,1.00554 6.22271,1.89965 7.13324,2.65666 0.26836,0.22312 1.55965,0.80821 2.86955,1.30023 1.30989,0.492 4.24071,1.78659 6.51293,2.87686 3.64424,1.74858 4.50535,2.32502 7.30363,4.88904 2.626,2.40617 3.7465,3.18248 6.50656,4.50792 1.83384,0.88066 3.81142,2.05543 4.39466,2.6106 1.72985,1.6467 2.95038,4.60963 3.84498,9.33424 0.24302,1.2833 0.2087,1.95381 -0.15242,2.97725 -0.61274,1.73675 -0.58915,4.56834 0.0731,8.77326 0.62519,3.96964 0.77161,18.89816 0.28598,29.15984 -0.31707,6.70023 -0.0181,9.52418 1.20002,11.33161 0.37385,0.55474 2.03593,2.05831 3.69357,3.34125 1.65761,1.28295 4.51866,3.89736 6.35787,5.80979 1.83918,1.91245 3.57471,3.47717 3.85669,3.47717 0.28199,0 1.49223,0.4111 2.68942,0.91355 1.19719,0.50246 2.7467,1.01548 3.44334,1.14004 1.33472,0.23865 4.08453,2.04903 4.61345,3.03735 0.17167,0.32075 0.31211,1.08809 0.31211,1.7052 0,0.98474 -0.20395,1.27336 -1.66713,2.35915 -2.72555,2.02259 -4.62141,2.38066 -7.97695,1.50666 -0.955,-0.24875 -2.92679,-0.55343 -4.38179,-0.67708 -2.47193,-0.21009 -2.89316,-0.36057 -6.42268,-2.29455 -4.0043,-2.19412 -6.80857,-3.24033 -8.71485,-3.25136 -0.63938,-0.004 -2.59148,0.23338 -4.33799,0.52685 -1.80594,0.30344 -3.66475,0.44165 -4.30991,0.32045 -1.23804,-0.23257 -2.91069,-1.67472 -3.68978,-3.18132 -0.83863,-1.62172 -0.40286,-4.87043 1.17292,-8.74423 1.74467,-4.28901 2.46039,-9.05313 1.93359,-12.87084 -0.67694,-4.90588 -1.93419,-9.38545 -3.0829,-10.98436 -1.66191,-2.31326 -2.58629,-4.64325 -3.18537,-8.02897 -0.49122,-2.77617 -0.50959,-3.67839 -0.16808,-8.25627 0.21087,-2.82673 0.3813,-6.08268 0.37874,-7.23545 l -0.005,-2.09595 -2.13022,-1.07954 c -1.17163,-0.59375 -2.94182,-1.83033 -3.93378,-2.74795 l -1.80356,-1.66839 -0.21002,1.11948 c -0.24308,1.29575 -1.74139,3.13229 -3.16315,3.87719 -0.54169,0.28382 -6.53546,2.48091 -13.31949,4.88244 -6.78402,2.40153 -12.39374,4.42557 -12.46603,4.49786 -0.0723,0.0723 -0.2253,6.94946 -0.34003,15.2826 l -0.20859,15.15117 0.76654,-0.33142 c 4.96462,-2.14651 21.18247,-8.24763 21.54939,-8.10683 0.26575,0.10198 1.73572,0.97574 3.26661,1.9417 l 2.78342,1.75628 0,3.2947 c 0,2.85963 -0.0762,3.33549 -0.57724,3.60363 -0.31749,0.16991 -9.57007,3.83398 -20.56129,8.14238 -10.99122,4.3084 -20.18446,7.91338 -20.4294,8.01107 -0.37161,0.1482 -0.4105,1.26206 -0.23487,6.72778 0.11577,3.6026 0.35061,7.03876 0.52188,7.6359 0.17125,0.59715 1.07567,1.87711 2.0098,2.84435 2.63616,2.72961 3.83868,4.39164 5.29309,7.31574 0.90844,1.82641 1.99829,3.38225 3.37059,4.81174 1.11542,1.16192 2.02804,2.34694 2.02804,2.63338 0,0.28644 0.64304,1.20826 1.42897,2.04849 1.82225,1.94813 1.85502,2.77646 0.18082,4.57022 -1.22351,1.31088 -1.28934,1.33716 -3.33426,1.33119 -1.14737,-0.003 -2.08611,0.10592 -2.08611,0.24282 0,0.58237 -2.13931,1.50759 -3.49304,1.5107 -0.88984,0.002 -1.78839,0.24131 -2.38162,0.63419 -1.13131,0.74924 -2.82449,0.81424 -4.08504,0.15682 z m 3.17548,-1.90138 c 0.50026,-0.2609 1.56905,-0.47525 2.3751,-0.47632 1.68008,-0.002 2.95279,-0.80488 3.26806,-2.061 0.23087,-0.91985 0.69643,-1.01233 1.48834,-0.29567 0.30584,0.27679 1.11311,0.57795 1.79393,0.66927 1.10063,0.14763 1.33318,0.0528 2.09757,-0.85567 0.84601,-1.00543 0.85071,-1.03561 0.29515,-1.89461 -1.46529,-2.26557 -2.6229,-3.76306 -4.40119,-5.69342 -1.06223,-1.15307 -2.46689,-3.08674 -3.12148,-4.29705 -1.21018,-2.23757 -2.69443,-4.27772 -5.51005,-7.57366 -1.7574,-2.05722 -2.12088,-3.02033 -2.59982,-6.88877 -0.39872,-3.22041 -0.43128,-15.87449 -0.0451,-17.53669 0.15008,-0.64603 0.86247,-2.05753 1.58309,-3.13666 1.96222,-2.93846 2.38317,-4.75511 2.16422,-9.34008 -0.10017,-2.09762 -0.30295,-4.13781 -0.45061,-4.53375 -0.24897,-0.66756 -0.34673,-0.59081 -1.3445,1.05551 -1.98752,3.2794 -4.78062,11.93899 -4.78062,14.82161 0,1.14025 -0.0543,1.22926 -0.51599,0.84608 -1.57389,-1.30622 1.56624,-13.41623 4.65898,-17.96748 1.54813,-2.27822 2.11216,-3.9438 2.4862,-7.34171 0.2425,-2.20287 0.47095,-2.90942 1.38673,-4.28867 2.13482,-3.21527 2.24826,-3.57899 2.05356,-6.58421 -0.11878,-1.8334 -0.0511,-2.99235 0.20486,-3.50567 0.51607,-1.03513 0.9555,-0.96531 1.16956,0.18582 l 0.17714,0.95265 0.54046,-1.01626 c 0.64167,-1.2066 0.72297,-5.19875 0.2098,-10.30246 -0.75563,-7.5149 -3.22565,-12.62412 -7.07023,-14.62472 -1.66315,-0.86545 -6.35818,-1.14344 -9.72389,-0.57575 -2.86074,0.48253 -4.40002,1.59996 -6.09927,4.42772 -1.46387,2.43607 -1.57688,3.90111 -0.55635,7.21261 0.86514,2.80726 1.59859,4.24305 3.46414,6.78137 0.83435,1.13523 1.8423,2.73596 2.2399,3.55716 0.65944,1.36203 0.68617,1.60437 0.30457,2.76064 -0.40672,1.23238 -0.39501,1.67586 0.18697,7.07406 0.14228,1.31974 0.0357,2.29607 -0.3988,3.65181 -0.91661,2.86034 -0.72692,5.3033 0.76759,9.88568 1.03304,3.16743 1.17841,3.88861 0.76791,3.80955 -0.72332,-0.1393 -1.61539,-1.81276 -2.79364,-5.24065 l -1.02481,-2.98151 -0.68743,1.83733 c -1.55796,4.16403 -2.04045,6.99214 -2.04816,12.00527 -0.007,4.48638 0.0829,5.19696 1.54463,12.22563 1.3729,6.60146 1.55495,7.93866 1.57791,11.59054 0.0194,3.07879 -0.11191,4.55809 -0.51642,5.81959 -0.54055,1.68568 -0.53989,1.69382 0.19327,2.38162 0.40462,0.37958 0.8998,1.00132 1.10039,1.38163 0.43548,0.82565 0.14478,1.79467 -0.46786,1.55958 -0.52877,-0.20291 -0.53259,-0.14678 -0.067,0.98315 0.20261,0.49166 0.38123,2.46881 0.39694,4.39366 0.0276,3.37799 0.0641,3.55521 1.05144,5.09434 1.42572,2.22257 1.99383,4.02084 1.99383,6.31124 0,1.72927 0.10465,2.06477 0.87325,2.79952 1.01268,0.96806 5.0745,2.77707 6.23544,2.77707 0.4359,0 0.88086,0.14289 0.9888,0.31755 0.28674,0.46397 1.53892,0.38796 2.58348,-0.15682 z m 4.30734,-3.39973 c -0.20959,-0.20958 -0.38106,-0.53951 -0.38106,-0.73318 0,-0.19367 -0.18829,-0.60962 -0.41843,-0.92435 -0.37678,-0.51528 -0.4671,-0.52355 -0.90749,-0.0832 -0.57161,0.57162 -5.86346,1.06282 -7.71266,0.71591 -0.96429,-0.1809 -1.14552,-0.33676 -1.06331,-0.91447 0.0828,-0.58154 0.2824,-0.685 1.21052,-0.62727 3.88679,0.24174 7.30362,0.0237 7.30362,-0.46606 0,-0.97475 2.33097,0.18227 3.0091,1.49362 0.74089,1.43272 -0.0204,2.5589 -1.04029,1.53897 z M 444.4766,579.55985 c 0,-0.1894 0.63054,-1.15396 1.40121,-2.14345 0.77065,-0.9895 1.94955,-2.79937 2.61977,-4.02193 1.12243,-2.04745 1.22685,-2.15049 1.32328,-1.30585 0.19816,1.73553 -3.46768,7.8156 -4.71225,7.8156 -0.3476,0 -0.63201,-0.15497 -0.63201,-0.34437 z m 7.41137,-54.57086 c -0.95119,-0.58 -1.64418,-1.76563 -1.25782,-2.15199 0.098,-0.0979 0.8951,0.13035 1.77143,0.50733 1.00082,0.43054 1.88897,0.61124 2.38833,0.4859 0.5691,-0.14283 0.85104,-0.0535 0.99225,0.31453 0.53913,1.40494 -2.05301,1.9669 -3.89419,0.84423 z m 7.74062,-11.96624 c -0.11998,-0.11999 -0.31131,-0.92037 -0.42516,-1.77862 -0.15833,-1.19356 -0.52264,-1.94055 -1.54946,-3.17705 -1.3026,-1.56859 -1.5798,-2.78684 -0.6341,-2.78684 0.6232,0 2.701,2.464 3.38861,4.01846 0.71986,1.62735 0.68208,3.707 -0.0699,3.84921 -0.27049,0.0511 -0.58997,-0.005 -0.70997,-0.12516 z m -10.62691,-1.60184 c -0.78747,-0.31776 -0.36407,-1.18753 1.42896,-2.93545 1.00426,-0.97898 2.29325,-2.34065 2.86443,-3.02594 1.12661,-1.35168 1.91423,-1.23287 1.54626,0.23325 -0.29597,1.17926 -2.93809,4.60256 -4.09817,5.30989 -1.08526,0.6617 -1.11841,0.66967 -1.74148,0.41825 z m 96.75706,57.22952 c 0.20866,-0.25141 0.33333,-0.85872 0.27706,-1.34958 -0.094,-0.81969 -0.2318,-0.90566 -1.69009,-1.05436 -0.87325,-0.089 -1.94104,-0.41056 -2.37288,-0.71448 -0.43183,-0.30393 -1.10215,-0.55259 -1.48962,-0.55259 -0.38745,0 -0.7934,-0.14391 -0.90212,-0.31979 -0.38021,-0.61521 0.85798,-0.71475 2.64492,-0.21263 0.9912,0.27852 2.34484,0.59145 3.00811,0.69541 0.9094,0.14254 1.35812,0.43858 1.82473,1.20382 l 0.61874,1.01481 -0.0184,-0.95265 c -0.0143,-0.74459 -0.31307,-1.16707 -1.36736,-1.93444 -0.74192,-0.53998 -1.93502,-1.07551 -2.65131,-1.19005 -0.71633,-0.11454 -2.62963,-0.73845 -4.25173,-1.38645 -2.72197,-1.08735 -3.17091,-1.39988 -5.82346,-4.05375 -1.58079,-1.58156 -4.14484,-3.80248 -5.69791,-4.93538 -4.29386,-3.1322 -5.16798,-3.98876 -5.71807,-5.60315 -0.93239,-2.73638 -1.23749,-6.6493 -1.02371,-13.12799 0.54729,-16.58552 0.57098,-18.69919 0.24022,-21.43454 -0.19005,-1.57187 -0.50966,-4.23232 -0.71023,-5.91211 -0.29687,-2.48634 -0.46057,-3.04719 -0.88043,-3.01671 -0.37808,0.0274 -0.5427,-0.29068 -0.61662,-1.19172 -0.079,-0.96319 0.14433,-1.62636 1.03203,-3.06458 0.6231,-1.00948 1.13289,-2.24824 1.13289,-2.75282 0,-1.56912 -1.82804,-6.83549 -3.0464,-8.77638 -1.1031,-1.75724 -1.3307,-1.92984 -4.50291,-3.41487 -2.79743,-1.30959 -3.76318,-1.96931 -5.93509,-4.05444 -1.4267,-1.3697 -3.61499,-3.09691 -4.86285,-3.83825 -3.22749,-1.91741 -10.68981,-4.96213 -12.7477,-5.20122 -1.9907,-0.23128 -5.88049,0.47001 -7.66965,1.38277 -3.02131,1.54136 -4.66078,5.2962 -5.83587,13.36575 -0.27031,1.85626 -0.49147,3.51411 -0.49147,3.68412 0,0.53171 4.95788,2.92459 7.05218,3.40369 1.09888,0.25137 3.78417,0.61205 5.96732,0.80149 5.8469,0.50735 7.53843,1.10671 10.79666,3.82552 3.30844,2.76071 6.70173,4.47771 9.35193,4.73206 1.43909,0.13811 1.93896,0.31479 2.01491,0.71218 0.0825,0.43173 -0.27427,0.5687 -1.94842,0.74798 l -2.04944,0.21948 -0.50763,3.38016 c -0.79748,5.31023 -0.93749,8.24448 -0.53696,11.25421 0.67976,5.10812 1.72852,7.53352 5.18676,11.99502 0.98911,1.27606 1.50835,2.2566 1.50835,2.84839 0,1.05615 -0.47879,1.46496 -1.10605,0.94437 -0.37182,-0.30858 -0.39889,-0.198 -0.16818,0.68715 0.64951,2.49193 1.04055,7.13118 0.85965,10.19866 -0.22069,3.74217 -0.70945,5.56878 -2.45706,9.18262 -2.42071,5.00575 -1.15012,8.18897 3.26867,8.18897 3.3757,0 6.27151,-0.4044 6.27151,-0.87581 0,-1.03534 3.01874,0.0895 7.75676,2.89019 1.45187,0.85823 2.24352,1.16865 2.32869,0.91313 0.20799,-0.62393 0.88996,-0.44597 1.31185,0.34235 0.70464,1.31664 1.60016,1.60808 5.6202,1.82907 2.11161,0.11608 4.11216,0.36949 4.44569,0.56312 0.90685,0.52645 4.10165,0.46637 4.55987,-0.0857 z m -31.96759,-11.6088 c -0.97387,-0.40196 -1.22913,-1.69246 -0.6165,-3.1167 0.27708,-0.64412 0.54486,-1.51719 0.59508,-1.94014 0.0502,-0.42295 0.25232,-0.82196 0.44911,-0.88668 0.62718,-0.20627 0.74207,0.79941 0.26989,2.36254 -0.64727,2.1428 -0.42427,2.56933 1.47503,2.82128 0.87394,0.11594 1.47283,0.31938 1.33087,0.4521 -0.43897,0.41039 -2.7606,0.61423 -3.50348,0.3076 z m -7.40822,-58.86242 c -1.88063,-0.5072 -3.61285,-1.59406 -4.59693,-2.88426 -0.74028,-0.97055 -1.40342,-1.35496 -4.37434,-2.53566 -1.09417,-0.43485 -1.17308,-0.54313 -0.84398,-1.15807 0.28991,-0.5417 0.55428,-0.64011 1.31233,-0.4885 0.99282,0.19856 5.34313,2.95545 5.34313,3.38606 0,0.13654 0.72458,0.78014 1.61018,1.43023 1.58989,1.16709 1.63791,1.17941 3.81059,0.97748 1.98581,-0.18456 2.2004,-0.14855 2.2004,0.3693 0,1.34924 -1.60405,1.67405 -4.46138,0.90342 z m 4.42476,-2.18728 c -0.0201,-0.0437 -0.0667,-1.4369 -0.10342,-3.0961 -0.0567,-2.56132 -0.21897,-3.39184 -1.0748,-5.50171 -1.15736,-2.85321 -1.30238,-4.12571 -0.45228,-3.96865 0.31759,0.0587 0.99539,0.9871 1.58182,2.16674 0.88993,1.79012 1.05385,2.51194 1.23505,5.4386 0.22804,3.68319 0.0451,5.04051 -0.67947,5.04051 -0.25865,0 -0.48675,-0.0357 -0.5069,-0.0794 z m -36.16395,55.23345 18.89416,-7.39828 0.0863,-2.20518 0.0863,-2.20518 -2.19739,-1.34958 c -1.20856,-0.74228 -2.31912,-1.34933 -2.46792,-1.34901 -0.14879,3.1e-4 -5.19574,1.9353 -11.21544,4.29997 -6.01971,2.36467 -11.23545,4.25779 -11.59054,4.20695 -0.6399,-0.0916 -0.64528,-0.23366 -0.60787,-16.0332 l 0.0377,-15.94075 -0.99014,0.40402 c -0.84474,0.34469 -1.13876,0.79697 -2.00228,3.08002 -0.55668,1.4718 -1.10563,3.31904 -1.21988,4.10497 -0.11424,0.78593 -0.90131,2.92939 -1.74903,4.76323 -1.92675,4.16807 -2.50074,7.99063 -1.92848,12.84288 0.73273,6.21292 0.14707,9.6634 -2.5307,14.90979 -0.99002,1.93969 -1.6746,3.73866 -1.78842,4.69973 l -0.18442,1.55709 1.23693,-0.49459 c 0.6803,-0.27203 9.73929,-3.82382 20.13107,-7.89288 z m 3.92329,-44.52998 c 15.16305,-5.34795 15.76786,-5.63824 16.19482,-7.77305 0.10975,-0.54875 0.0575,-1.26313 -0.11609,-1.5875 -0.34134,-0.63779 -0.62865,-0.68994 -6.72675,-1.22099 -2.70946,-0.23595 -4.56555,-0.60797 -6.86434,-1.37584 -3.08036,-1.02894 -3.17119,-1.04003 -4.06635,-0.49634 -2.05988,1.25109 -4.38397,0.32893 -8.85433,-3.51324 -1.04791,-0.90065 -2.15,-1.63882 -2.44909,-1.64037 -0.29909,-0.002 -1.35077,0.2991 -2.33708,0.66813 l -1.79328,0.67095 0.21416,1.31373 c 0.11779,0.72255 0.34521,2.7427 0.50537,4.48921 0.16017,1.74652 0.4305,3.81853 0.60074,4.60446 0.17024,0.78594 0.31574,2.04077 0.32335,2.78852 0.008,0.80724 0.18051,1.42351 0.42411,1.51699 0.22566,0.0866 5.83437,-1.61268 12.46379,-3.77616 8.67358,-2.83058 12.16929,-3.84239 12.46639,-3.60834 0.3388,0.26691 0.3388,0.3964 0,0.7217 -0.22708,0.21804 -5.95014,2.20282 -12.7179,4.41064 l -12.30502,4.01421 0,2.5573 c 0,1.91351 0.0999,2.51984 0.39694,2.40848 0.21832,-0.0818 6.80657,-2.40946 14.64056,-5.17249 z m -67.90938,-10.11297 c 11.00307,-3.59948 20.21993,-6.66726 20.4819,-6.8173 1.05519,-0.60428 0.49373,-1.612 -2.20918,-3.96514 l -2.68551,-2.33797 -5.65994,1.88972 c -4.572,1.52648 -5.74962,1.8153 -6.12648,1.50254 -0.38411,-0.31879 -0.46653,-1.6044 -0.46653,-7.27701 l 0,-6.88982 -3.33426,-2.92795 -3.33426,-2.92796 0,10.9454 c 0,8.80255 -0.0844,11.02754 -0.43121,11.36501 -0.23716,0.23079 -4.88131,1.84407 -10.32034,3.58507 l -9.88912,3.16545 0,1.90612 c 0,1.89183 0.0135,1.91978 1.80111,3.72624 0.99062,1.00106 1.88372,1.77105 1.98468,1.71111 0.10096,-0.0599 9.18608,-3.05403 20.18914,-6.65351 z m 25.42759,-1.52725 c 2.02515,-4.03667 4.51722,-6.2827 7.70667,-6.94579 3.61945,-0.75248 9.98131,-0.11987 12.68969,1.26184 0.6951,0.35462 1.79216,1.257 2.43792,2.00529 l 1.1741,1.36054 -0.10795,-1.57204 c -0.10577,-1.54026 -0.0823,-1.58685 1.16225,-2.30455 1.91626,-1.10509 4.54264,-1.81069 5.35705,-1.43923 0.37201,0.16969 2.10535,1.37046 3.85187,2.66839 1.74652,1.29792 3.31838,2.44665 3.49303,2.55272 0.19837,0.12048 0.27669,-0.32043 0.20865,-1.17482 -0.12329,-1.54841 0.68811,-7.61212 1.40232,-10.47978 0.5612,-2.25329 2.07053,-5.59608 3.18862,-7.06196 1.16687,-1.52985 6.18929,-3.87781 8.34901,-3.90313 1.22853,-0.0144 0.32535,-0.43446 -2.66948,-1.24152 -1.39722,-0.37653 -5.35031,-1.71375 -8.78465,-2.97159 -4.97308,-1.82142 -6.34144,-2.4486 -6.72173,-3.08086 -0.37709,-0.62692 -1.30107,-1.05801 -4.39364,-2.04985 -2.15388,-0.69079 -4.63063,-1.33383 -5.50389,-1.42897 -1.91501,-0.20865 -1.95522,-0.68652 -0.0964,-1.14559 1.2864,-0.31769 1.3259,-0.35962 0.67298,-0.71448 -0.95985,-0.5217 -4.11564,-0.4714 -6.93281,0.1105 -6.22704,1.28623 -14.02579,5.41141 -18.50896,9.79038 -3.80614,3.71766 -4.4684,5.34634 -3.61846,8.89866 0.39114,1.63476 0.63071,2.08987 1.13917,2.16406 0.35412,0.0517 1.07852,0.71473 1.60977,1.47344 0.87644,1.25172 0.96464,1.6047 0.95232,3.81114 -0.007,1.3374 -0.20974,3.47129 -0.4495,4.74197 -0.38129,2.02076 -0.3699,2.8426 0.0909,6.55724 0.65438,5.27519 0.91269,6.03708 1.2243,3.61104 0.12787,-0.99551 0.61245,-2.56738 1.07685,-3.49305 z m 22.24688,-8.60222 c -0.42073,-0.56074 -1.12328,-1.73401 -1.56121,-2.60727 -1.47144,-2.93413 -3.33143,-4.28691 -5.89425,-4.28691 -1.47452,0 -2.25632,-0.68252 -1.63682,-1.42897 1.17014,-1.40993 5.559,0.16917 7.35703,2.64704 1.76742,2.4357 3.43926,5.26146 3.43945,5.81342 3.2e-4,0.98932 -0.91414,0.91565 -1.7042,-0.13731 z m 8.42833,-10.31333 c 0.10819,-2.26286 0.31403,-3.16941 1.09957,-4.84261 0.97337,-2.07331 2.46534,-4.12265 3.00137,-4.12265 0.50066,0 0.32566,0.48827 -0.98859,2.75832 -1.08921,1.88132 -1.3249,2.62608 -1.59605,5.04342 -0.38981,3.47523 -0.52809,3.94757 -1.15565,3.94757 -0.41922,0 -0.47367,-0.42025 -0.36065,-2.78405 z m -34.45075,1.07607 c -0.6242,-1.62664 1.53117,-5.3488 5.3396,-9.22112 3.13152,-3.18404 4.40805,-3.93801 8.06676,-4.76454 2.84349,-0.64236 3.32363,-0.8749 4.95275,-2.39871 1.55963,-1.45882 2.33326,-1.77362 2.60681,-1.06077 0.13891,0.36201 -0.18411,0.85283 -1.04405,1.58636 -2.31569,1.97528 -4.07046,2.91365 -6.326,3.38282 -3.21199,0.66814 -3.97179,1.07114 -6.68552,3.54606 -2.74083,2.49962 -3.37453,3.39562 -4.88481,6.90668 -1.00718,2.34147 -1.65508,2.98862 -2.02554,2.02322 z m 11.63887,-4.50447 c -0.30335,-0.79053 0.40013,-1.94718 1.80187,-2.9626 1.39481,-1.01039 10.57648,-4.73872 15.63944,-6.35059 3.14074,-0.9999 4.68005,-1.22764 4.68005,-0.69241 0,0.45515 -2.81713,1.67034 -8.85266,3.81867 -7.43423,2.64619 -8.64514,3.21656 -10.79075,5.08276 -2.01714,1.75446 -2.19756,1.83485 -2.47795,1.10417 z m 5.01242,0.22348 c -0.56778,-0.37756 -0.17923,-0.9971 0.62534,-0.9971 1.09757,0 2.68056,-0.83562 4.76508,-2.51534 2.17046,-1.74898 2.61953,-1.91649 7.30189,-2.72374 1.67517,-0.2888 3.46138,-0.79908 3.96936,-1.13395 1.23742,-0.81575 2.35256,-0.80877 2.35256,0.0147 0,1.00747 -1.19161,1.52645 -5.4506,2.37388 -4.9385,0.98265 -5.39924,1.15607 -6.86698,2.58474 -0.64804,0.63078 -1.68174,1.40449 -2.29712,1.71936 -1.36521,0.69852 -3.80326,1.07392 -4.39953,0.67742 z m 26.58991,19.99595 c 0.26172,-0.16582 0.307,-0.34953 0.11537,-0.46796 -0.1735,-0.10723 -0.49205,0.0178 -0.70788,0.27786 -0.42849,0.51629 -0.0924,0.62412 0.59251,0.1901 z m -45.01196,-9.91647 c -0.34262,-0.93989 -0.9363,-2.85057 -1.3193,-4.24596 -0.38299,-1.39538 -0.9369,-2.70555 -1.23091,-2.91148 -0.29401,-0.20594 -5.09971,-4.18824 -10.67934,-8.84957 -5.57963,-4.66134 -10.64492,-8.67884 -11.2562,-8.92779 -5.71707,-2.32837 -8.72735,-4.74029 -10.81221,-8.66306 -1.03213,-1.942 -2.13284,-3.1846 -6.61248,-7.46489 -2.37991,-2.27401 -4.04214,-4.75035 -5.63948,-8.4016 -0.65803,-1.50415 -1.23642,-2.79144 -1.2853,-2.86066 -0.26306,-0.37253 -2.6243,1.66965 -3.10725,2.68737 -0.64814,1.36586 -0.52213,3.61642 0.29046,5.18781 0.58581,1.13283 51.83764,46.59603 52.16259,46.27109 0.0618,-0.0618 -0.16796,-0.88137 -0.51058,-1.82126 z m -10.12749,0.34549 c 2.23277,-0.70393 4.05958,-1.3239 4.05958,-1.3777 0,-0.0538 -1.46216,-1.37125 -3.24925,-2.92764 -1.78708,-1.5564 -3.71619,-3.2376 -4.2869,-3.73598 l -1.03767,-0.90615 0,5.11367 c 0,2.81253 0.1023,5.11368 0.22733,5.11368 0.12503,0 2.05414,-0.57594 4.28691,-1.27988 z m 11.86036,-2.36157 c -0.30095,-0.78802 -0.68616,-1.51866 -0.85602,-1.62363 -0.16986,-0.10499 -0.0716,0.35795 0.2183,1.02875 0.28993,0.67079 0.60122,1.47536 0.69174,1.78792 0.0905,0.31257 0.23851,0.49438 0.32887,0.40402 0.0904,-0.0904 -0.0819,-0.80904 -0.38289,-1.59706 z m -5.76654,-9.75482 c -1.30895,-2.59923 -3.89611,-5.3605 -6.32115,-6.74656 -0.87326,-0.49912 -3.03233,-1.80783 -4.79793,-2.90825 -1.76561,-1.10041 -3.62327,-2.09595 -4.12814,-2.21232 l -0.91794,-0.21157 1.11142,0.94956 c 2.43129,2.07722 16.04151,13.39252 16.11959,13.40155 0.0459,0.005 -0.43377,-1.01728 -1.06585,-2.27241 z m 3.01623,-1.70136 c 0.41996,-0.61663 1.95073,-2.24489 3.40171,-3.61837 l 2.63814,-2.49721 -2.14149,-0.5248 c -1.67612,-0.41076 -2.44984,-0.45375 -3.56048,-0.19782 -1.94971,0.44928 -2.53041,0.42138 -2.53041,-0.12158 0,-1.15985 5.3895,-1.6022 8.36869,-0.68686 l 1.5414,0.47358 2.73219,-1.56661 c 1.5027,-0.86163 2.83542,-1.56661 2.96159,-1.56661 0.12617,0 0.27506,-0.31766 0.33087,-0.7059 0.0625,-0.43456 0.5857,-0.97693 1.36122,-1.41102 1.4875,-0.83259 1.83361,-1.56014 1.25892,-2.64631 -0.23102,-0.43663 -0.66078,-1.33468 -0.95503,-1.99566 -0.29425,-0.66098 -0.80217,-1.34478 -1.12871,-1.51953 -0.69742,-0.37325 -0.7959,-1.24804 -0.1405,-1.24804 0.61838,0 2.40474,2.22054 2.40474,2.98921 0,0.34192 0.32152,0.97199 0.71449,1.40018 0.44565,0.48559 0.57781,0.82759 0.35125,0.90895 -0.19977,0.0717 -0.29179,0.40359 -0.20449,0.73746 0.10692,0.40884 -0.18128,0.91758 -0.88276,1.55828 l -1.0415,0.95126 2.9111,-1.0178 c 1.60111,-0.55978 2.91201,-1.1175 2.91312,-1.23936 10e-4,-0.12186 -0.74819,-0.26476 -1.66511,-0.31755 -2.0263,-0.11666 -2.20887,-0.69237 -0.26363,-0.83135 1.84827,-0.13207 2.98786,0.16391 2.77427,0.72055 -0.13318,0.34704 0.037,0.37643 0.84228,0.14548 0.55505,-0.15919 1.04585,-0.28943 1.09067,-0.28943 0.0448,0 0.0815,-0.6992 0.0815,-1.55377 0,-1.14497 0.13655,-1.60617 0.519,-1.75293 0.44099,-0.16923 0.49407,-0.0134 0.35319,1.03699 -0.21899,1.63268 0.07,2.01728 1.42347,1.89474 l 1.11959,-0.10136 -2.03445,-2.85794 c -3.18891,-4.47968 -3.57796,-5.46697 -4.05333,-10.28608 -0.43036,-4.36295 -0.32896,-4.07046 -2.72646,-7.8642 -0.34171,-0.54071 -0.64648,-0.65046 -1.44597,-0.52072 -1.17799,0.19116 -1.79362,-0.42845 -1.00132,-1.00779 0.43112,-0.31524 0.23637,-0.50662 -1.30107,-1.27849 -0.99444,-0.49927 -2.45112,-0.98952 -3.23705,-1.08945 -0.79618,-0.10123 -1.35866,-0.32231 -1.2702,-0.49924 0.18928,-0.37855 2.97188,-0.39985 4.20752,-0.0322 2.3382,0.6957 -0.0587,-3.30007 -3.57733,-5.96368 l -2.04783,-1.5502 -3.18115,0.17515 c -3.34714,0.18429 -4.82529,0.55512 -6.29529,1.57931 -0.81661,0.56896 -0.84986,0.66676 -0.39693,1.16725 0.50766,0.56095 0.66402,1.29011 0.27665,1.29011 -0.11973,0 -0.52455,-0.28828 -0.89962,-0.64063 -0.93828,-0.88148 -4.8115,-1.90022 -7.21432,-1.89754 -2.04484,0.002 -6.28902,0.8778 -8.816,1.81861 -1.70215,0.63372 -4.25534,2.09069 -5.50207,3.13974 -1.04,0.8751 -1.56681,0.94446 -2.1191,0.27899 -0.50902,-0.61334 -2.35598,-0.61537 -2.96808,-0.003 -0.62866,0.62866 -0.94236,2.15998 -0.68373,3.33753 0.12054,0.54885 0.0784,0.95264 -0.0996,0.95264 -0.36424,0 -0.3874,-0.0545 -2.01651,-4.74385 -1.15762,-3.3322 -1.64327,-4.48797 -3.99038,-9.49642 -0.96121,-2.05109 -3.82338,-5.01936 -5.86408,-6.08145 -0.82028,-0.42692 -1.56379,-0.70385 -1.65224,-0.61541 -0.0884,0.0884 0.0567,0.9026 0.3224,1.80921 0.53981,1.84146 0.48644,3.40926 -0.11606,3.40926 -0.21832,0 -0.41794,-0.1429 -0.44362,-0.31755 -0.19642,-1.33612 -0.99154,-4.16638 -1.38332,-4.92401 -0.26256,-0.50773 -1.15567,-1.42736 -1.98469,-2.04362 -2.19303,-1.63019 -2.33473,-1.77134 -2.12266,-2.11447 0.25428,-0.41144 1.20445,-0.0882 3.01467,1.02567 2.10723,1.29659 2.6625,1.23186 2.39492,-0.27923 -0.11597,-0.65494 -0.40881,-2.36469 -0.65076,-3.79943 -0.58941,-3.49532 -1.67368,-5.39374 -4.97176,-8.70501 -2.08278,-2.0911 -2.87337,-3.13323 -3.32074,-4.37734 -0.37553,-1.04432 -0.73336,-1.57674 -0.99278,-1.47719 -0.80089,0.30733 -1.15655,-1.06821 -0.7481,-2.89334 0.30814,-1.37693 0.62076,-1.89208 1.65023,-2.71939 0.69854,-0.56136 1.92772,-1.94227 2.73152,-3.06869 1.38266,-1.93761 1.47303,-2.19398 1.67646,-4.75525 0.31022,-3.90577 0.35246,-3.83773 -2.42819,-3.91096 -4.6763,-0.12316 -4.39935,-0.16265 -4.51356,0.64364 -0.13066,0.92256 0.66099,1.83223 1.78827,2.05484 0.86156,0.17014 2.89479,-0.12485 3.98107,-0.57758 0.48008,-0.20009 0.56461,-0.11457 0.47633,0.48188 -0.0795,0.53745 -0.72376,1.04696 -2.48895,1.96852 -3.56788,1.86269 -5.08078,3.54099 -5.08078,5.63624 0,0.64911 -0.15705,0.96841 -0.47632,0.96841 -0.34402,0 -0.47633,-0.35283 -0.47633,-1.27019 l 0,-1.2702 -2.02124,0 c -1.51861,0 -2.21572,-0.15298 -2.80333,-0.61519 -0.68266,-0.53698 -0.96062,-0.57177 -2.18628,-0.27368 -0.7723,0.18784 -1.52352,0.44826 -1.66937,0.57871 -0.3462,0.30964 0.54828,2.02305 1.95439,3.74374 1.01908,1.24709 1.31004,2.12713 3.25456,9.84402 2.77664,11.01916 4.98792,17.79769 6.51836,19.98163 0.93829,1.33894 1.09145,1.75231 0.78576,2.12064 -0.73052,0.88023 0.83639,2.99326 2.65167,3.57587 0.86419,0.27735 0.98893,0.53452 1.82997,3.77263 0.49641,1.91124 1.11508,3.63364 1.37482,3.82754 0.25974,0.19391 0.47225,0.66926 0.47225,1.05635 0,0.38709 0.50271,1.87176 1.11712,3.29926 1.30855,3.04021 4.05059,6.69571 7.49632,9.99357 1.93203,1.84913 2.46211,2.21082 2.62354,1.79015 0.33432,-0.87122 1.03631,0.001 1.76638,2.19498 1.88069,5.65148 6.30333,8.82052 15.81918,11.33523 1.95011,0.51535 3.41929,1.19752 5.71588,2.65398 6.40773,4.06369 9.63012,6.99001 10.41281,9.45606 0.26154,0.82404 0.51511,0.72351 1.3806,-0.54729 z m 9.40966,-10.29339 c -0.72015,-0.79575 -1.10476,-3.65859 -0.46277,-3.44459 0.23913,0.0797 0.52949,0.60799 0.64525,1.17396 0.11575,0.56597 0.51239,1.35043 0.88142,1.74324 0.36903,0.39282 0.67096,0.81217 0.67096,0.93191 0,0.46564 -1.20075,0.18567 -1.73486,-0.40452 z m -26.3816,-3.32302 c -0.2774,-0.42335 -0.62844,-1.64762 -0.78011,-2.7206 -0.36287,-2.56723 -0.65612,-2.88918 -2.41238,-2.64846 -1.12277,0.1539 -1.39859,0.0967 -1.39859,-0.29009 0,-0.3041 0.51334,-0.61105 1.39189,-0.83227 0.93258,-0.23482 1.72423,-0.72899 2.39897,-1.49748 1.39368,-1.58731 1.19644,-2.13295 -0.87901,-2.43164 -2.10768,-0.30332 -2.91185,-0.72388 -2.91185,-1.52284 0,-0.74446 0.29917,-0.7862 1.13012,-0.15771 0.73728,0.55765 2.23577,0.60577 4.69678,0.15083 2.11794,-0.39152 3.06448,-0.18317 3.06448,0.67455 0,0.64444 -0.61423,0.81911 -1.1273,0.32057 -0.16592,-0.16121 -0.69325,-0.21627 -1.17184,-0.12235 -0.7512,0.14743 -0.8443,0.28519 -0.68098,1.00761 0.28887,1.27773 1.26856,1.94825 2.84655,1.94825 1.14686,0 1.34992,0.0884 1.18583,0.51597 -0.1626,0.42373 -0.53191,0.48569 -2.06596,0.34658 -1.02738,-0.0932 -2.06303,-0.33126 -2.30144,-0.52912 -0.33943,-0.2817 -0.57488,-0.16114 -1.08533,0.55571 -0.60968,0.85622 -0.61854,0.96304 -0.13689,1.65071 0.28325,0.40437 0.59836,1.60593 0.70027,2.67012 0.1538,1.60617 0.30665,1.98813 0.89976,2.24835 0.39297,0.1724 0.71448,0.56537 0.71448,0.87326 0,0.86805 -1.46835,0.71967 -2.07745,-0.20995 z m 19.79185,-0.13301 c -1.32453,-1.14633 -2.07744,-1.32726 -3.90297,-0.93791 -1.7787,0.37935 -3.05445,-0.0527 -3.97565,-1.3464 -1.19809,-1.68255 -0.57492,-2.12332 1.05864,-0.74877 0.8683,0.73062 1.19862,0.81181 2.82438,0.69422 1.67769,-0.12136 1.8411,-0.0764 1.8411,0.50631 0,0.49737 0.0847,0.5548 0.38106,0.25842 0.59552,-0.59552 1.34702,-0.45185 2.15932,0.41281 0.83816,0.89218 1.97197,1.00556 3.1755,0.31755 1.06479,-0.60868 2.11063,-0.59167 2.35236,0.0383 0.15524,0.40457 0.0494,0.47589 -0.4949,0.33354 -0.46355,-0.12122 -0.99789,0.076 -1.61683,0.59683 -1.23462,1.03886 -2.50561,0.99712 -3.80201,-0.12487 z m -13.87873,-1.07913 c -0.42284,-0.21985 -0.83416,-0.5977 -0.91405,-0.83966 -0.117,-0.35433 0.0944,-0.3865 1.08634,-0.16533 0.67738,0.15103 1.91903,0.25123 2.75921,0.22267 1.27635,-0.0434 1.51089,0.036 1.42589,0.48287 -0.12953,0.68092 -3.21582,0.89301 -4.35739,0.29945 z m 33.31755,-0.75384 c 0,-0.91604 -0.23494,-1.36318 -1.16282,-2.21309 -0.92802,-0.85003 -1.06144,-1.104 -0.66076,-1.25776 0.73388,-0.28162 2.04153,0.70075 2.43492,1.82923 0.50166,1.43908 0.4363,2.7896 -0.13502,2.7896 -0.33556,0 -0.47632,-0.33926 -0.47632,-1.14798 z m -14.9248,-0.42206 c 0,-0.721 1.58027,-2.03155 3.02891,-2.51195 1.19466,-0.39617 1.60008,-0.6952 1.67702,-1.23696 0.0558,-0.39296 0.25193,-0.71448 0.43582,-0.71448 0.23072,0 0.23268,-0.12303 0.006,-0.39694 -0.18041,-0.21831 -0.42822,-0.96852 -0.55069,-1.66713 -0.12248,-0.6986 -0.56396,-1.86722 -0.98107,-2.59694 -0.41711,-0.7297 -0.75838,-1.40846 -0.75838,-1.50835 0,-0.45189 0.76268,-0.10289 1.59582,0.73026 0.66507,0.66506 0.97014,1.35108 1.12714,2.53459 0.18501,1.39468 1.04829,3.33985 1.07766,2.42818 0.015,-0.46691 5.10519,-0.38305 5.964,0.0983 0.39297,0.22023 0.71449,0.60974 0.71449,0.86557 0,0.53236 -0.81309,0.63032 -1.11931,0.13485 -0.12689,-0.20531 -0.88502,-0.255 -2.00341,-0.1313 -0.98961,0.10946 -2.15653,0.0696 -2.59316,-0.0886 -1.25875,-0.45596 -1.90529,-0.16143 -1.90529,0.86796 0,1.15124 -1.29801,2.22261 -2.69278,2.22261 -0.61609,0 -1.24676,0.25125 -1.59413,0.63509 -0.59786,0.66064 -1.42897,0.85562 -1.42897,0.33526 z m -15.65459,-1.806 c -0.43457,-0.43458 -0.20762,-0.65613 1.06169,-1.03642 1.73438,-0.51964 2.006,-1.31669 1.75277,-5.14352 -0.21246,-3.2107 0.0849,-4.73372 0.92419,-4.73372 0.56736,0 0.60042,0.28801 0.16465,1.43419 -0.232,0.6102 -0.1885,1.3461 0.15878,2.68629 1.10031,4.24626 0.27208,6.21572 -2.87127,6.82762 -0.53237,0.10363 -1.06823,0.0881 -1.19081,-0.0344 z m 7.08077,-1.24114 c 0,-0.0943 0.57159,-0.71523 1.2702,-1.3798 0.99265,-0.94429 1.27126,-1.44456 1.27505,-2.28951 0.002,-0.59466 0.10985,-1.2241 0.23817,-1.39875 0.75896,-1.03304 1.85705,-1.5685 3.65018,-1.77993 1.45817,-0.17193 2.11032,-0.41129 2.52887,-0.92819 0.82243,-1.01566 0.72336,-3.2872 -0.23298,-5.34152 -1.10161,-2.36639 -1.01662,-3.03449 0.20806,-1.6356 1.1496,1.31311 1.84941,2.8131 1.88419,4.03855 0.0138,0.4859 0.0959,0.70846 0.18254,0.49459 0.1132,-0.27952 0.39635,-0.21234 1.00697,0.23894 0.71074,0.52526 1.03066,0.57581 1.95881,0.30947 1.70205,-0.48841 3.01125,-0.38179 3.90042,0.31763 0.44864,0.35291 1.03305,0.54979 1.31302,0.44235 0.65042,-0.24958 0.65295,0.3085 0.004,0.8472 -0.41694,0.34604 -0.67528,0.3215 -1.54468,-0.1467 -0.86701,-0.46691 -1.25321,-0.50415 -2.27787,-0.21964 -1.93076,0.53609 -2.79841,0.42235 -3.63952,-0.47709 l -0.76984,-0.82321 -0.15878,1.20942 c -0.20372,1.55182 -1.71005,2.6593 -3.61938,2.66104 -1.91419,0.002 -3.22966,0.92142 -3.47193,2.42731 -0.25479,1.58378 -1.90011,3.60494 -2.93458,3.60494 -0.42392,0 -0.77076,-0.0772 -0.77076,-0.1715 z m 20.00558,-4.13118 c 0,-0.79461 -0.21934,-1.86891 -0.48742,-2.38733 -0.44179,-0.85431 -0.43979,-0.96086 0.0213,-1.13782 0.85547,-0.32827 1.23417,0.4354 1.36512,2.75287 0.10622,1.8797 0.0474,2.21701 -0.38687,2.21701 -0.39614,0 -0.51216,-0.3273 -0.51216,-1.44473 z m -30.24745,-0.13802 c -0.47978,-0.3774 -0.87233,-0.89016 -0.87233,-1.13946 0,-0.58961 0.45328,-0.57864 0.95264,0.023 0.46817,0.56411 2.03885,0.61812 3.46971,0.11932 1.45607,-0.50759 2.03208,0.12297 0.72824,0.79722 -1.73515,0.89728 -3.29877,0.97033 -4.27826,0.19986 z m -3.01579,-3.39078 c -0.21831,-0.0881 -0.39694,-0.44996 -0.39694,-0.80415 0,-0.55458 0.1433,-0.61709 1.03232,-0.45031 0.67442,0.12652 1.61138,-0.0263 2.70257,-0.44098 2.01011,-0.76378 3.25119,-0.82422 3.25119,-0.15833 0,0.31985 -0.3199,0.47633 -0.97384,0.47633 -0.5495,0 -1.42735,0.34591 -2.01465,0.79387 -0.9842,0.75068 -2.55541,1.00533 -3.60065,0.58357 z m -16.77041,-2.10745 c -1.75257,-1.75258 -2.35875,-3.83043 -0.96098,-3.29405 0.26162,0.10039 0.76976,0.75899 1.1292,1.46355 0.88366,1.73212 1.99749,2.45225 3.05069,1.97239 0.65277,-0.29743 0.82565,-0.27187 0.98591,0.14577 0.25227,0.65739 -0.42127,1.06649 -1.76589,1.07258 -0.84524,0.004 -1.3644,-0.28572 -2.43893,-1.36024 z m 26.42919,-0.43434 c -0.92041,-0.92041 0.69149,-2.86942 3.90698,-4.72411 1.34704,-0.77697 2.71087,-1.70187 3.03075,-2.05533 0.56504,-0.62436 0.56175,-0.67797 -0.11569,-1.88331 -0.81764,-1.45478 -0.40779,-2.00389 0.5689,-0.76222 0.91096,1.15809 1.09755,2.09936 0.67186,3.38921 -0.48816,1.47916 -1.30945,2.14592 -3.04195,2.46959 -2.49576,0.46626 -3.50785,1.1159 -3.92915,2.52205 -0.36394,1.21473 -0.64872,1.4871 -1.0917,1.04412 z m -17.35934,-0.5482 c 0,-0.63513 0.72192,-0.82784 3.1012,-0.82784 3.33515,0 4.71258,-0.90562 8.45619,-5.55968 0.50573,-0.62872 1.43629,-1.40677 2.06791,-1.729 1.07142,-0.54659 4.46385,-1.62891 6.45966,-2.06088 0.71509,-0.15477 0.87326,-0.36047 0.87326,-1.13561 0,-0.62971 0.15946,-0.94659 0.47633,-0.94659 0.70016,0 0.63824,2.29593 -0.0794,2.94314 -0.30564,0.27566 -1.52331,0.72515 -2.70594,0.99887 -3.23069,0.74775 -4.57751,1.58647 -7.48099,4.65873 -3.39318,3.59045 -4.42086,4.10121 -8.25178,4.10121 -2.28114,0 -2.91645,-0.0964 -2.91645,-0.44235 z m -5.18001,-0.0803 c -0.12008,-0.12007 -0.21832,-0.75636 -0.21832,-1.41396 0,-0.94304 -0.1845,-1.32604 -0.87326,-1.81279 -1.35877,-0.96026 -6.36004,-3.33866 -5.55711,-2.64274 1.12175,0.97225 0.77007,1.8909 -0.56203,1.46811 -0.89793,-0.28499 -1.44719,-1.50716 -2.88103,-6.41057 -0.69098,-2.363 -1.76683,-5.3433 -2.3908,-6.6229 -1.11031,-2.277 -1.19622,-3.15002 -0.2752,-2.79659 0.83454,0.32025 1.67835,2.12589 2.86065,6.12143 0.64186,2.16919 1.33168,4.21767 1.53293,4.55218 0.36485,0.60644 3.17466,2.54928 6.63708,4.58921 2.01154,1.18512 2.87065,2.44261 2.71819,3.97866 -0.0959,0.96582 -0.55582,1.42524 -0.9911,0.98996 z m 44.13267,-0.64172 c -0.11644,-0.11643 -0.2117,-0.53311 -0.2117,-0.92596 0,-0.45394 -0.46294,-1.08092 -1.2702,-1.72028 -1.389,-1.10011 -1.59541,-1.58774 -0.67205,-1.58774 0.93278,0 2.8949,2.36815 2.8949,3.49395 0,0.90966 -0.28585,1.19514 -0.74095,0.74003 z m -59.79761,-4.07925 c -0.10138,-0.2642 -0.0446,-0.65717 0.12614,-0.87326 0.17075,-0.21609 0.38425,-0.80147 0.47444,-1.30085 0.13653,-0.75593 -0.20193,-1.39059 -2.02145,-3.79046 -1.202,-1.58538 -2.18544,-2.99873 -2.18544,-3.14079 0,-0.70597 1.06115,-0.10543 1.98159,1.12144 0.56932,0.75885 1.64243,2.1292 2.38471,3.04523 1.4165,1.7481 1.68086,2.91863 1.03989,4.60452 -0.34548,0.90867 -1.49735,1.12254 -1.79988,0.33417 z m 55.85135,-0.64529 c -0.53096,-0.37191 -1.08433,-0.44504 -2.15393,-0.28464 -1.89644,0.28439 -3.98901,-0.32251 -5.09603,-1.478 -0.97892,-1.02177 -0.79987,-1.61504 0.28169,-0.93334 1.8431,1.16171 2.35415,1.30242 4.42778,1.21914 1.8279,-0.0734 2.23859,0.0127 2.81604,0.5901 0.89561,0.89561 0.68853,1.562 -0.27555,0.88674 z m -7.80325,-4.88497 c -3.29539,-0.19161 -4.02208,-0.55604 -4.02208,-2.01701 0,-0.5501 0.0815,-0.53403 0.93521,0.18429 0.83582,0.7033 1.14801,0.77059 2.93733,0.63314 2.18848,-0.1681 3.74863,0.2523 3.74863,1.01015 0,0.2663 -0.10717,0.45871 -0.23817,0.42759 -0.13098,-0.0311 -1.6434,-0.1383 -3.36092,-0.23816 z m -53.36696,-8.78137 c -0.10601,-0.27626 -0.19328,-0.88357 -0.19393,-1.34958 -5.7e-4,-0.466 -0.28645,-1.31516 -0.6351,-1.887 -0.7941,-1.30244 -0.79772,-1.65945 -0.0168,-1.65945 1.03247,0 1.60575,1.2156 1.60575,3.40492 0,1.89897 -0.34421,2.5744 -0.7599,1.49111 z m -1.08479,-14.60632 c -0.38907,-0.27252 -1.0679,-1.20689 -1.50851,-2.07638 -0.8783,-1.73325 -2.41554,-7.24137 -2.14371,-7.68119 0.30569,-0.49464 0.72612,0.25235 1.22609,2.17846 0.61363,2.36392 1.74926,4.87328 2.87103,6.34399 0.9847,1.29101 0.71276,2.04597 -0.4449,1.23512 z m 72.52148,22.11265 c 3.4289,-3.83899 4.8106,-6.15909 6.06225,-10.17952 0.25637,-0.8235 0.57275,-4.09509 0.74669,-7.72123 0.16599,-3.46074 0.39776,-6.44751 0.51502,-6.63725 0.14054,-0.22738 0.3452,-0.16447 0.60042,0.18457 0.34444,0.47104 0.43288,0.4193 0.80054,-0.46833 0.326,-0.78704 0.33494,-1.29092 0.0423,-2.38502 -0.32901,-1.23014 -0.28102,-1.65526 0.42396,-3.75534 1.23734,-3.68597 1.30403,-6.16962 0.32448,-12.0837 -0.49649,-2.99762 -0.91751,-7.05517 -1.02684,-9.89624 l -0.18532,-4.81546 -0.7578,0.34529 c -1.30591,0.59501 -1.5713,-0.15297 -0.49413,-1.39267 1.44068,-1.65805 1.65884,-2.28435 1.65884,-4.76223 l 0,-2.30401 -0.99032,1.01294 c -0.64707,0.66183 -1.29847,1.01293 -1.87932,1.01293 -1.62435,0 -1.90952,0.26484 -1.69948,1.57839 0.22392,1.40026 -0.87107,4.28604 -1.53833,4.05421 -0.40654,-0.14125 -0.41167,-0.38246 -0.0539,-2.53881 0.13919,-0.83894 0.0445,-1.42736 -0.3191,-1.98223 -0.6847,-1.04498 -3.3742,-2.38176 -4.79194,-2.38176 -0.74495,0 -1.19864,-0.17381 -1.32702,-0.50837 -0.27274,-0.71074 0.44393,-1.06883 2.15047,-1.07451 1.67388,-0.006 2.62587,-0.76651 2.45635,-1.96335 -0.1026,-0.72443 -0.17108,-0.73858 -3.12162,-0.645 -3.08551,0.0979 -4.60192,0.4549 -4.86709,1.14593 -0.0822,0.21427 -0.0273,1.02284 0.12213,1.79683 0.14939,0.77398 0.28211,2.19318 0.29493,3.15376 0.0207,1.555 0.15285,1.88937 1.20464,3.04923 0.64973,0.71649 2.12911,2.03724 3.2875,2.935 2.14463,1.6621 2.9131,2.79472 3.29438,4.85545 0.28656,1.54882 -0.246,1.78571 -0.90547,0.40278 -0.63727,-1.33636 -1.16082,-1.15221 -1.16082,0.40831 0,2.89121 -1.25806,9.18563 -2.84403,14.22947 -1.28708,4.09331 -1.41695,5.58536 -0.80093,9.2017 0.29113,1.70903 0.46888,3.51911 0.39501,4.02241 -0.11301,0.77 -0.0422,0.88586 0.4464,0.73077 1.14284,-0.36273 0.57452,0.72748 -1.45066,2.78278 -1.11726,1.13387 -2.26227,2.50808 -2.54448,3.05381 -0.8942,1.7292 -1.73737,6.12715 -1.81703,9.47762 l -0.0768,3.23008 1.20655,1.33551 c 1.45291,1.6082 2.52088,3.89447 2.31711,4.96039 -0.10817,0.56587 0.053,0.91016 0.59081,1.26259 0.40674,0.26651 0.87011,0.40385 1.02971,0.30521 0.15961,-0.0986 0.55707,-1.11124 0.88326,-2.25022 0.60991,-2.12964 1.39487,-2.78733 1.39487,-1.16868 0,0.49619 -0.21279,1.60365 -0.47288,2.461 -0.67543,2.2265 -0.60661,2.32137 0.55227,0.76125 0.56762,-0.76414 1.6136,-2.04046 2.32441,-2.83628 z m -1.04341,-5.19326 c 0.66524,-1.73359 1.5219,-5.67073 1.80761,-8.30769 0.29558,-2.72795 0.26683,-3.45713 -0.20922,-5.3051 -0.30355,-1.17834 -0.43812,-2.25585 -0.29903,-2.39445 0.38302,-0.3817 1.41494,1.07015 1.81714,2.55661 0.74113,2.73913 -0.58398,11.75671 -1.97369,13.4312 -0.45642,0.54996 -1.35224,0.56519 -1.14281,0.0194 z m 3.6846,-17.7385 c -0.86018,-1.208 -1.13428,-3.6788 -0.62,-5.5887 0.59687,-2.21662 1.09284,-1.67365 0.87246,0.95513 -0.17791,2.12208 -0.12891,2.39473 0.62629,3.48448 0.76728,1.10718 0.83587,2.15202 0.14129,2.15202 -0.16824,0 -0.62726,-0.45131 -1.02004,-1.00293 z m 3.05857,-4.38561 c -0.26669,-0.43151 0.79761,-2.54576 1.50666,-2.99301 0.8476,-0.53465 1.01447,0.0402 0.36423,1.25474 -0.78473,1.46567 -1.58171,2.20617 -1.87089,1.73827 z m -6.33448,-0.60841 c -0.36364,-0.58837 0.60306,-2.38385 2.71945,-5.05098 2.44309,-3.07884 3.76775,-5.46333 3.76775,-6.78221 0,-1.14935 0.62649,-2.49298 1.1624,-2.49298 0.5628,0 0.53908,0.40635 -0.19018,3.25776 -0.80178,3.13492 -1.54539,4.52444 -3.35475,6.2687 -0.81527,0.78594 -1.90085,2.25063 -2.4124,3.25488 -0.89478,1.75659 -1.32096,2.14564 -1.69227,1.54483 z m -45.01648,26.33596 c 1.43077,-1.14342 4.90898,-2.64877 7.79536,-3.3738 1.72198,-0.43255 2.10592,-0.63888 1.94913,-1.04745 -0.10739,-0.27985 -0.27807,-1.4394 -0.3793,-2.57679 -0.21868,-2.45698 -0.60274,-3.30439 -2.21772,-4.89326 -1.46744,-1.44373 -2.74641,-2.13055 -5.6118,-3.0136 -2.47254,-0.76198 -7.31028,-0.92254 -9.12807,-0.30296 -1.49698,0.51023 -3.57401,1.97174 -4.23429,2.97945 -0.53907,0.82272 -0.52873,0.88716 0.4317,2.6891 0.5412,1.0154 1.32854,2.7519 1.74962,3.8589 0.4211,1.107 1.20355,2.97009 1.73877,4.1402 l 0.97314,2.12749 1.82998,0.1147 c 1.00649,0.0631 2.30278,0.14172 2.88064,0.17474 0.74715,0.0427 1.38927,-0.21055 2.22284,-0.87672 z m -4.30164,-3.16572 c 0.0552,-0.10143 0.51746,-1.11325 1.02723,-2.24849 1.93983,-4.31994 2.85472,-5.83664 3.88295,-6.43716 0.62158,-0.36302 1.27912,-0.51581 1.67672,-0.38962 0.6066,0.19253 0.57874,0.25842 -0.38341,0.90681 -1.23614,0.83303 -2.28943,2.57702 -3.00003,4.96733 -0.6979,2.34752 -1.23057,3.08126 -2.35692,3.24657 -0.5208,0.0764 -0.90174,0.056 -0.84654,-0.0454 z m 26.35748,-0.94173 c 0.91428,-0.50386 2.03335,-1.00121 2.48684,-1.10524 0.45348,-0.10404 1.64991,-0.68618 2.65871,-1.29364 1.0088,-0.60747 2.96976,-1.48268 4.35768,-1.9449 2.87315,-0.95684 2.83712,-0.90795 3.6123,-4.9017 0.61402,-3.16352 0.74544,-3.44863 2.58757,-5.61405 1.73353,-2.03776 2.19374,-3.49398 1.61785,-5.11923 -0.26442,-0.74621 -0.39911,-2.50707 -0.36919,-4.82661 0.0432,-3.34441 0.16984,-4.06348 1.50524,-8.54224 1.65788,-5.56031 2.95652,-13.53482 2.4945,-15.31784 -0.18955,-0.73148 -0.94771,-1.63485 -2.48843,-2.96504 -2.74101,-2.36646 -3.75797,-3.6252 -4.45948,-5.51967 -0.30023,-0.81079 -0.59174,-1.53348 -0.64779,-1.60597 -0.0561,-0.0725 -13.22978,2.85515 -29.27493,6.50588 l -29.173,6.63767 -0.32768,1.7504 c -0.35912,1.91834 -2.10382,4.8066 -4.02024,6.65531 -1.03597,0.99936 -1.13381,1.24736 -1.12745,2.85793 0.01,2.44571 0.75164,3.8542 3.69478,7.01392 3.95789,4.24914 4.75744,5.64878 5.64284,9.87786 1.03659,4.95132 1.65356,6.25284 3.6409,7.6806 0.89277,0.6414 1.71564,1.16618 1.82858,1.16618 0.11294,0 0.71017,-0.51981 1.32718,-1.15512 0.61701,-0.63531 2.06041,-1.59538 3.20757,-2.13349 1.76795,-0.82931 2.5486,-0.99726 5.12363,-1.10232 3.8302,-0.15627 6.06396,0.30656 9.17297,1.90061 4.62527,2.37147 5.6352,3.82629 6.02743,8.68252 l 0.17954,2.22284 2.85793,0.23117 c 1.57187,0.12714 3.35808,0.36258 3.96936,0.5232 1.76599,0.46404 2.13424,0.41119 3.89479,-0.55903 z m 12.39679,-1.551 c -0.20771,-1.54857 -0.36358,-1.58664 -2.95453,-0.72158 -1.49458,0.499 -1.60735,0.58781 -0.78176,0.6157 0.53061,0.0179 1.60233,0.35871 2.38161,0.75733 0.77928,0.39862 1.44342,0.7174 1.47588,0.70841 0.0324,-0.009 -0.0221,-0.62094 -0.1212,-1.35986 z m -114.98448,-3.01815 c 4.50687,-2.6412 7.82233,-9.56334 8.47571,-17.69584 0.64754,-8.05999 -1.01861,-16.96984 -4.48332,-23.97493 -3.71836,-7.51792 -8.57781,-12.16933 -13.77112,-13.18156 -3.41605,-0.66582 -7.22593,0.80674 -9.62855,3.72154 -2.3522,2.85363 -4.46773,8.31829 -5.12117,13.22861 -0.3673,2.76013 -0.32405,9.18123 0.0645,9.56834 0.11596,0.11554 2.95187,-0.40721 6.30203,-1.16167 l 6.0912,-1.37175 0.76117,0.88491 c 1.02513,1.19179 1.2128,2.12906 0.68551,3.42368 l -0.44106,1.08289 -6.16974,1.447 -6.16975,1.447 0.0614,1.09943 c 0.0949,1.69869 1.60794,6.19505 3.09983,9.21166 3.29137,6.65515 7.54696,11.1536 12.19041,12.88614 0.74741,0.27887 2.1302,0.39768 3.88223,0.33356 2.26746,-0.083 2.96305,-0.24125 4.17076,-0.94901 z m -4.02628,-0.53547 c -0.10361,-0.16766 0.79279,-1.27511 1.99202,-2.461 2.46506,-2.43767 3.54537,-4.39724 4.51492,-8.18961 2.12478,-8.31101 0.17883,-23.31035 -4.14036,-31.91366 -2.26507,-4.51178 -5.75848,-7.9226 -9.28162,-9.0622 -1.91153,-0.61831 -2.7506,-1.25385 -2.27858,-1.72588 0.41048,-0.41048 2.29859,0.11097 4.59396,1.26873 6.18074,3.11749 10.26007,10.58539 12.40886,22.7165 0.59294,3.34749 0.73019,5.2866 0.74039,10.46024 0.0112,5.68677 -0.0631,6.61274 -0.71057,8.8539 -1.12458,3.89265 -2.20422,5.86121 -4.50506,8.21435 -1.98074,2.02576 -2.90372,2.53477 -3.33396,1.83863 z m 16.24749,-1.16125 c 3.37481,-1.60715 6.50878,-6.32354 8.09911,-12.18853 0.6511,-2.40119 0.73124,-3.40028 0.72601,-9.05014 -0.005,-4.83805 -0.14233,-7.02905 -0.57867,-9.19739 -1.7358,-8.62602 -5.41064,-15.92888 -10.36939,-20.60672 -4.42077,-4.17033 -9.09682,-5.22616 -13.40706,-3.02724 l -1.34973,0.68858 0.78851,0.50711 c 0.43368,0.27892 1.62523,1.29502 2.64789,2.25802 11.94696,11.24988 15.6319,36.28848 7.22061,49.06288 -0.68899,1.04637 -1.19349,1.96172 -1.12111,2.03409 0.0724,0.0724 0.66904,0.23994 1.32592,0.37234 1.796,0.36203 4.17444,0.0249 6.01791,-0.853 z m -3.39463,-0.72025 c 0,-0.32921 0.32152,-0.80929 0.71448,-1.06683 2.32686,-1.52494 4.77985,-5.32484 5.7921,-8.97248 0.71893,-2.59068 0.99636,-10.92018 0.49917,-14.98697 -1.86464,-15.25183 -6.6869,-24.06835 -14.56282,-26.62518 -1.22677,-0.39825 -1.6534,-0.68542 -1.57529,-1.06033 0.16635,-0.79856 1.68439,-0.52294 4.33566,0.7872 6.74012,3.33064 11.05985,11.70542 12.92351,25.05519 0.68048,4.87431 0.69972,12.53518 0.0391,15.5599 -1.05275,4.82014 -3.12652,8.64293 -5.83204,10.75078 -1.65498,1.28938 -2.33387,1.45191 -2.33387,0.55872 z m -50.06132,-17.96908 c 0.21712,-0.5658 -0.3764,-2.39057 -0.77756,-2.39057 -0.15756,0 -0.28648,0.41701 -0.28648,0.92668 0,1.64834 0.65006,2.54269 1.06404,1.46389 z m 14.60789,-2.87159 c 7.36108,-1.66179 13.7053,-3.15914 14.09827,-3.32746 0.8006,-0.34292 0.95643,-1.4721 0.31755,-2.301 -0.36041,-0.46762 -1.43415,-0.28349 -11.66992,2.00114 -19.04624,4.25113 -17.18577,3.76129 -16.82761,4.43052 0.17329,0.32379 0.31507,0.95535 0.31507,1.40347 0,0.44811 0.0861,0.81475 0.19143,0.81475 0.10529,0 6.21413,-1.35964 13.57521,-3.02142 z m 63.87406,-14.55382 c 3.15451,-0.71033 3.17504,-0.72109 3.10802,-1.62882 -0.15103,-2.04552 0.29566,-2.0992 -18.38679,2.20962 -0.6197,0.14292 -0.64718,0.26121 -0.35615,1.53303 l 0.31537,1.37816 6.07203,-1.38848 c 3.33961,-0.76365 7.501,-1.71024 9.24752,-2.10351 z m 10.19172,-0.2479 c 0.33272,-0.37153 1.28932,-1.13848 2.12578,-1.70433 l 1.52086,-1.02883 -0.97326,-0.19465 c -1.26898,-0.25379 -2.54477,-1.55008 -2.54477,-2.58564 0,-0.97882 -0.74914,-2.28031 -1.87003,-3.24877 -0.65797,-0.56851 -0.73827,-0.78295 -0.41446,-1.10677 0.5299,-0.52989 1.95345,0.23378 2.50753,1.34517 0.21505,0.43135 0.53864,0.76998 0.71908,0.75252 0.18044,-0.0174 1.09482,-0.0532 2.03195,-0.0794 l 1.70389,-0.0476 -0.22223,-1.21528 c -0.34183,-1.86931 -0.47617,-1.96021 -2.89693,-1.96021 -2.57723,0 -3.81547,0.45608 -5.41192,1.99338 -0.85933,0.82749 -1.72906,1.25936 -3.40646,1.69146 -1.9855,0.51148 -2.29116,0.69117 -2.57867,1.51592 -0.1794,0.51461 -0.25408,1.00775 -0.16597,1.09586 0.0881,0.0881 0.16021,-0.007 0.16021,-0.21026 0,-0.62158 0.99319,-0.41493 2.11381,0.43981 1.15238,0.87896 2.01432,2.28208 2.01432,3.27903 0,1.77622 4.2654,2.7447 5.58727,1.26861 z m -2.09423,-2.96526 c 0,-0.96899 -1.69109,-2.95262 -2.6318,-3.08707 -0.38278,-0.0547 -0.74364,-0.34954 -0.80189,-0.65518 -0.0823,-0.43168 0.11191,-0.55571 0.87002,-0.55571 1.76222,0 4.46237,3.48938 3.67988,4.75548 -0.39074,0.63222 -1.11621,0.33485 -1.11621,-0.45752 z m 129.24897,0.91022 c 3.76789,-1.11895 7.8767,-6.9035 9.50955,-13.38792 1.3002,-5.1634 1.35908,-12.97761 0.14272,-18.94123 -1.94201,-9.52149 -7.1453,-17.79567 -12.90423,-20.5201 -1.66577,-0.78804 -2.39113,-0.94345 -4.40447,-0.94366 -2.05522,-2.1e-4 -2.69765,0.14335 -4.36107,0.97456 -2.53013,1.26433 -4.47236,3.4737 -6.26143,7.12269 -1.62699,3.31837 -2.5075,6.49299 -2.98255,10.75331 -0.46293,4.15155 -0.44151,6.55216 0.0585,6.55672 0.21831,0.002 3.36821,-0.66735 6.99978,-1.48743 l 6.60285,-1.49105 0.80388,0.80388 c 0.96864,0.96865 1.32985,3.00548 0.68548,3.86549 -0.31987,0.42693 -2.35392,1.02224 -7.59491,2.22284 l -7.15803,1.63975 0.42063,2.06407 c 0.99229,4.86923 2.6311,9.01869 5.02097,12.71306 4.55448,7.0405 9.7322,9.7448 15.42232,8.05502 z m -2.74121,-1.45497 c -0.13798,-0.22325 0.0793,-0.56988 0.53697,-0.85679 2.69845,-1.69155 5.13303,-5.40201 6.38742,-9.73487 0.66971,-2.31324 0.73141,-3.13944 0.72256,-9.6741 -0.0108,-7.94365 -0.42151,-11.14443 -2.119,-16.51253 -1.99116,-6.2968 -4.89732,-10.26533 -8.92595,-12.1889 -1.25533,-0.59938 -2.53249,-1.16989 -2.83813,-1.26778 -0.30565,-0.0979 -0.55571,-0.41552 -0.55571,-0.70583 0,-0.43199 0.21483,-0.49298 1.18301,-0.33586 3.81904,0.61974 8.17916,4.42605 10.52124,9.18485 4.12882,8.38925 5.63165,23.55328 3.20136,32.30291 -0.94629,3.40686 -2.3685,5.9044 -4.65757,8.17914 -1.92588,1.91383 -2.96823,2.39931 -3.4562,1.60976 z m -84.43254,-7.66302 29.53204,-6.73848 0.16486,-1.42644 0.16486,-1.42644 -30.01445,6.79622 c -16.50795,3.73792 -30.02722,6.81141 -30.04281,6.82997 -0.13224,0.15739 0.30175,2.72949 0.45865,2.71828 0.11264,-0.008 13.49423,-3.04694 29.73685,-6.75311 z m 100.01455,5.67676 c 3.18201,-1.55681 5.96753,-5.44388 7.75172,-10.8171 1.38136,-4.1601 1.74623,-7.32577 1.53331,-13.30269 -0.25696,-7.21349 -1.38658,-12.09734 -4.02068,-17.38336 -5.1304,-10.29558 -12.47247,-14.35613 -19.03877,-10.52946 l -1.40337,0.81784 1.14298,0.58638 c 1.7615,0.90371 4.73981,3.82763 6.50101,6.38229 4.1676,6.04525 6.3484,12.61669 7.04862,21.23978 0.71977,8.86395 -1.02145,16.97678 -4.84262,22.56312 -0.43828,0.64074 -0.70189,1.26314 -0.58581,1.38312 0.46711,0.48277 4.22728,-0.11488 5.91361,-0.93992 z m -3.22365,-0.38373 c -0.13586,-0.35405 0.0973,-0.73189 0.72445,-1.17398 5.64769,-3.98113 8.01045,-12.58553 6.78433,-24.70625 -0.94829,-9.37435 -3.26077,-15.99297 -7.02185,-20.09753 -1.7885,-1.95182 -3.17579,-2.83319 -6.72196,-4.27058 -1.17266,-0.47532 -0.91343,-1.16316 0.4138,-1.09793 1.82339,0.0896 4.95419,1.95196 7.09312,4.21935 3.4241,3.62971 5.61745,8.77956 6.97227,16.37043 1.00809,5.64813 1.00844,15.96507 0,19.92101 -1.17754,4.62233 -3.0993,7.92059 -5.90956,10.14246 -1.71168,1.35329 -2.044,1.45191 -2.33521,0.69302 z m -51.56198,-11.49529 c 0.42465,-0.30899 1.04334,-1.0845 1.37488,-1.72336 0.54493,-1.05007 0.56401,-1.33788 0.19876,-2.99871 -0.28626,-1.30169 -0.70087,-2.13796 -1.4225,-2.86919 -1.14793,-1.16321 -1.92416,-1.25852 -5.0141,-0.61571 -1.63765,0.34069 -1.80409,0.44169 -1.34958,0.8189 0.28515,0.23666 0.51846,0.74788 0.51846,1.13606 0,0.38817 0.28579,0.96441 0.63509,1.28052 0.90485,0.81888 0.88902,3.39789 -0.0265,4.31338 -0.36386,0.36385 -0.60869,0.71442 -0.54407,0.77904 0.89226,0.89227 4.33886,0.81823 5.62953,-0.12093 z m -1.67715,-0.60759 c -0.0932,-0.15075 -0.0128,-0.89118 0.17868,-1.6454 0.26415,-1.04066 0.25199,-1.63704 -0.0504,-2.47339 -0.52546,-1.45314 -0.0324,-2.00488 0.89857,-1.00557 0.77471,0.83156 0.91596,3.12218 0.27052,4.3872 -0.42497,0.8329 -1.0268,1.17488 -1.29733,0.73716 z m -13.22586,-4.50393 c 0,-0.53235 -0.56318,-0.66416 -0.75063,-0.17569 -0.1106,0.28822 0.001,0.4745 0.28428,0.4745 0.2565,0 0.46635,-0.13446 0.46635,-0.29881 z m 7.22069,-0.65384 c 0.0492,-0.5157 -0.28914,-1.2166 -0.96574,-2.00031 l -1.04156,-1.20645 -2.16186,0.22149 c -1.48614,0.15226 -2.33387,0.40613 -2.7122,0.81221 -0.52578,0.56436 -0.49956,0.6467 0.5872,1.84466 l 1.13754,1.25393 2.5404,-0.0658 c 2.45797,-0.0637 2.54285,-0.0916 2.61622,-0.8597 z m 27.55092,-2.8729 c 7.85933,-1.77794 14.48351,-3.41532 14.72039,-3.63861 0.36237,-0.34158 0.35901,-0.54996 -0.0212,-1.31354 -0.24854,-0.49915 -0.58525,-0.89019 -0.74825,-0.86898 -0.16299,0.0212 -7.15902,1.58284 -15.54673,3.4703 l -15.25038,3.43173 0.30847,1.32954 c 0.29888,1.28821 0.3386,1.32165 1.27823,1.07586 0.53336,-0.13952 7.40012,-1.70835 15.25946,-3.4863 z m 54.38112,-12.36944 c 4.56425,-1.04791 8.37824,-1.90529 8.47551,-1.90529 0.37271,0 0.15543,-1.84528 -0.25763,-2.1881 -0.33178,-0.27534 -2.40668,0.0891 -8.77861,1.54194 -4.58928,1.04638 -8.41202,1.97041 -8.49503,2.0534 -0.22889,0.22888 0.23654,2.40334 0.51439,2.40334 0.1335,0 3.97711,-0.85738 8.54137,-1.90529 z"
       id="path5679"
       inkscape:connector-curvature="0" />
  </g>
</svg>
