<?xml version="1.0" encoding="UTF-8" standalone="no"?>
<!-- Created with Inkscape (http://www.inkscape.org/) -->

<svg
   xmlns:dc="http://purl.org/dc/elements/1.1/"
   xmlns:cc="http://creativecommons.org/ns#"
   xmlns:rdf="http://www.w3.org/1999/02/22-rdf-syntax-ns#"
   xmlns:svg="http://www.w3.org/2000/svg"
   xmlns="http://www.w3.org/2000/svg"
   xmlns:xlink="http://www.w3.org/1999/xlink"
   xmlns:sodipodi="http://sodipodi.sourceforge.net/DTD/sodipodi-0.dtd"
   xmlns:inkscape="http://www.inkscape.org/namespaces/inkscape"
   width="276.20435"
   height="286.7818"
   id="svg2"
   version="1.1"
   inkscape:version="0.48.3.1 r9886"
   sodipodi:docname="Bench-press-1.svg"
   inkscape:export-filename="/home/christian/Arbeitsfläche/Dropbox/Website/opentraining/cc_exercises/Bench-press-1.png"
   inkscape:export-xdpi="199.63289"
   inkscape:export-ydpi="199.63289">
  <defs
     id="defs4">
    <radialGradient
       gradientUnits="userSpaceOnUse"
       gradientTransform="matrix(1,0,0,0.91819829,-19.285714,-7.9105395)"
       r="209.56604"
       fy="287.50052"
       fx="398.1105"
       cy="287.50052"
       cx="398.1105"
       id="radialGradient5255"
       xlink:href="#linearGradient5249"
       inkscape:collect="always" />
    <linearGradient
       id="linearGradient5249"
       inkscape:collect="always">
      <stop
         id="stop5251"
         offset="0"
         style="stop-color:#e3e3e3;stop-opacity:1;" />
      <stop
         id="stop5253"
         offset="1"
         style="stop-color:#e3e3e3;stop-opacity:0;" />
    </linearGradient>
  </defs>
  <sodipodi:namedview
     id="base"
     pagecolor="#ffffff"
     bordercolor="#666666"
     borderopacity="1.0"
     inkscape:pageopacity="0.0"
     inkscape:pageshadow="2"
     inkscape:zoom="2.8"
     inkscape:cx="199.26055"
     inkscape:cy="110.28328"
     inkscape:document-units="px"
     inkscape:current-layer="layer1"
     showgrid="false"
     showguides="true"
     inkscape:guide-bbox="true"
     fit-margin-top="0"
     fit-margin-left="0"
     fit-margin-right="0"
     fit-margin-bottom="0"
     inkscape:window-width="1615"
     inkscape:window-height="1026"
     inkscape:window-x="65"
     inkscape:window-y="24"
     inkscape:window-maximized="1">
    <sodipodi:guide
       orientation="-0.70710678,0.70710678"
       position="-1711.4205,579.07563"
       id="guide2985" />
  </sodipodi:namedview>
  <metadata
     id="metadata7">
    <rdf:RDF>
      <cc:Work
         rdf:about="">
        <dc:format>image/svg+xml</dc:format>
        <dc:type
           rdf:resource="http://purl.org/dc/dcmitype/StillImage" />
        <dc:title></dc:title>
      </cc:Work>
    </rdf:RDF>
  </metadata>
  <g
     inkscape:label="Ebene 1"
     inkscape:groupmode="layer"
     id="layer1"
     transform="translate(-282.84913,-318.94173)">
    <path
       style="fill:#000000"
       d="m 453.1969,605.2647 c -0.50499,-0.26462 -1.41134,-0.48118 -2.0141,-0.48118 -2.10668,0 -6.07792,-2.59006 -6.78793,-4.42713 -0.1886,-0.4879 -0.49839,-1.95228 -0.68842,-3.25412 -0.32651,-2.2365 -0.57539,-2.90989 -2.21581,-5.99472 -0.55536,-1.04433 -0.67851,-1.83582 -0.67851,-4.36097 0,-1.69675 -0.20029,-3.87641 -0.4451,-4.84359 -0.81606,-3.22422 -0.93951,-5.96853 -0.37361,-8.30647 0.50049,-2.06763 0.49046,-2.34774 -0.26732,-7.46267 -0.43305,-2.92282 -1.2577,-7.63326 -1.83261,-10.46757 -0.92807,-4.57529 -1.0477,-5.76742 -1.06677,-10.62865 -0.0198,-5.03913 0.0495,-5.7303 0.86824,-8.67531 0.48934,-1.75997 1.76208,-5.30574 2.82833,-7.87949 1.88056,-4.53943 1.93138,-4.73774 1.69695,-6.62349 -0.1329,-1.06918 -0.25166,-3.6832 -0.2639,-5.80893 -0.0243,-4.22671 -0.038,-4.26467 -2.62291,-7.35448 -0.56825,-0.67921 -1.35024,-2.01987 -1.73777,-2.97923 -0.39207,-0.97059 -0.90844,-1.7443 -1.16412,-1.7443 -1.18096,0 -2.43534,-1.07352 -3.19021,-2.73022 -0.84261,-1.84926 -1.72522,-5.89482 -1.72522,-7.90776 0,-0.68255 -0.14142,-1.3288 -0.31427,-1.43614 -0.17284,-0.10733 -9.59307,2.85531 -20.93384,6.58365 -11.34076,3.72832 -20.83962,6.77878 -21.10858,6.77878 -0.26893,0 -1.52313,-1.07157 -2.78703,-2.38126 l -2.29805,-2.38129 0,-2.93031 c 0,-2.44246 0.0934,-2.98872 0.56096,-3.28108 0.30853,-0.19291 4.88843,-1.75799 10.17756,-3.47794 l 9.61657,-3.12719 0.0841,-11.8236 c 0.0462,-6.503 -0.0402,-11.8236 -0.19201,-11.8236 -0.36181,0 -5.18993,3.61769 -5.86191,4.39231 -0.28624,0.32996 -0.69173,1.1362 -0.9011,1.79164 -0.74547,2.33389 -3.34599,3.80459 -5.97063,3.37663 -1.08736,-0.17729 -3.79055,-2.31755 -7.09711,-5.61911 -1.40084,-1.39872 -3.14288,-4.56299 -4.74098,-8.61163 l -0.88994,-2.25457 0.22707,-7.58296 0.22705,-7.58295 -1.43096,-1.43778 c -1.41582,-1.42259 -2.46357,-3.83754 -2.46357,-5.67831 0,-0.41072 -0.14722,-0.74674 -0.32713,-0.74674 -0.62522,0 -11.05404,2.66776 -11.30574,2.89209 -0.13929,0.12412 -0.11191,0.86485 0.061,1.64605 0.17275,0.78119 0.47852,3.26053 0.67947,5.50966 0.77562,8.6816 -1.00785,16.75238 -4.91885,22.25926 -1.55823,2.19407 -2.74607,3.2393 -5.02455,4.42132 -1.75487,0.91037 -6.27817,1.25646 -8.44713,0.64631 -1.30764,-0.36787 -1.45437,-0.33797 -2.79735,0.57008 -4.05784,2.74369 -9.58785,2.59151 -14.20307,-0.3908 -5.23155,-3.3806 -10.65477,-11.59473 -12.88601,-19.51747 -0.47394,-1.68286 -0.89812,-3.10414 -0.94264,-3.15838 -0.0445,-0.0543 -3.64927,0.77913 -8.01058,1.85195 -4.3613,1.07281 -8.06213,1.95059 -8.22406,1.95059 -0.16193,0 -0.6485,-0.35576 -1.08125,-0.79056 -0.64693,-0.65 -0.7868,-1.10932 -0.7868,-2.58354 0,-1.55036 0.0976,-1.83606 0.72124,-2.11132 0.39668,-0.17507 4.11109,-1.11659 8.25423,-2.09225 4.14315,-0.97566 7.68319,-1.8277 7.86678,-1.89344 0.22368,-0.0801 0.25067,-1.11412 0.0819,-3.13464 -0.30583,-3.65974 0.14648,-9.21881 1.03375,-12.70494 0.89165,-3.50348 3.13234,-7.96874 5.11102,-10.18529 3.01532,-3.37786 7.67616,-4.82381 11.87138,-3.68289 1.75824,0.47816 1.76682,0.47693 3.15761,-0.44676 2.27706,-1.51236 4.19799,-2.00037 7.37498,-1.87364 2.4678,0.0985 3.09382,0.25526 5.19237,1.30071 1.31244,0.65383 3.19539,1.91543 4.18432,2.80358 3.48289,3.12789 7.41969,9.06235 9.12099,13.74925 0.839,2.31134 0.87432,2.35359 1.80966,2.16562 0.52469,-0.10543 3.9338,-0.94451 7.57582,-1.86463 l 6.62187,-1.67293 -0.0786,-0.93803 c -0.13614,-1.62288 0.54667,-4.19668 1.29457,-4.87983 0.38909,-0.3554 1.74773,-0.8768 3.0192,-1.15868 2.0873,-0.46274 2.46689,-0.67423 3.90973,-2.17828 1.69318,-1.765 1.63977,-1.75169 4.31635,-1.0767 0.64447,0.1625 0.88042,0.074 1.03069,-0.38705 0.59753,-1.83275 2.19061,-4.66534 3.22679,-5.73735 0.65371,-0.6763 2.13601,-1.6762 3.29403,-2.22199 1.78467,-0.84114 2.5727,-1.01148 5.17207,-1.11804 3.86646,-0.1585 6.12133,0.31093 9.25975,1.92772 3.85085,1.98383 4.70093,2.82664 5.49266,5.44567 0.37135,1.22841 0.76933,2.23652 0.88437,2.24023 0.11508,0.004 10.05417,-2.41608 22.08691,-5.37731 l 21.87772,-5.38408 0,-1.02085 c 0,-2.41606 2.98408,-4.10694 7.37515,-4.17905 1.92197,-0.0316 3.27417,-0.25044 4.57991,-0.7413 2.74388,-1.03151 4.21481,-0.93717 5.46236,0.35027 l 1.01434,1.04676 6.33091,-1.57003 6.33091,-1.57001 0,-4.10471 c 0,-4.73548 0.57698,-8.52658 1.84513,-12.12375 1.90944,-5.41623 4.89656,-9.40661 8.43936,-11.27387 1.5618,-0.82315 2.07893,-0.92063 5.14721,-0.97019 3.3589,-0.0543 3.43474,-0.0724 4.96856,-1.19164 2.30328,-1.68069 4.41462,-2.24623 7.75411,-2.07702 2.24035,0.11351 3.1509,0.32378 4.69802,1.08491 4.96319,2.44173 10.59648,10.02128 12.85006,17.28967 0.31581,1.01859 0.72817,1.85233 0.91636,1.85274 0.18818,3.2e-4 4.29003,-0.97248 9.11523,-2.16203 l 8.77309,-2.1628 0.77887,0.90979 c 0.64518,0.75364 0.76243,1.19378 0.6832,2.56464 l -0.0957,1.65483 -9.13576,2.27961 -9.13573,2.27957 0.16027,1.90746 c 0.0882,1.0491 0.14187,4.37137 0.11934,7.38283 -0.0357,4.77523 -0.14763,5.88719 -0.87537,8.69616 -1.73085,6.68082 -5.43184,12.25929 -9.44838,14.24144 -1.62891,0.80385 -2.16793,0.89839 -5.22452,0.91632 -3.26588,0.0191 -3.45328,0.0583 -4.48773,0.93667 -2.08548,1.77085 -3.64838,2.26423 -7.17002,2.26334 -2.92441,-6.4e-4 -3.39114,-0.0892 -5.32191,-1.00758 -6.11312,-2.90802 -12.18976,-12.05619 -14.09214,-21.21515 -0.22076,-1.06286 -0.49909,-2.04634 -0.61849,-2.18549 -0.35734,-0.41642 -12.54023,2.75214 -12.36327,3.21548 0.0833,0.21818 0.24585,1.45259 0.36119,2.74311 0.20766,2.32369 0.19808,2.36357 -0.98924,4.11786 -0.65944,0.97429 -1.39643,2.23783 -1.63779,2.80787 -0.61027,1.44125 -0.59153,7.94919 0.0281,9.71344 1.34212,3.82208 1.25091,8.66244 -0.26283,13.94933 -0.42168,1.47269 -0.94165,3.93289 -1.1555,5.46711 -0.61304,4.3981 -1.14397,4.68554 -8.50481,4.60446 -4.76504,-0.0525 -5.43132,-0.13759 -9.39318,-1.19989 -2.34538,-0.62886 -4.22062,-1.04073 -4.16718,-0.91526 0.48508,1.13893 3.84884,5.23253 4.67261,5.68647 0.57715,0.31801 1.34055,1.05161 1.69644,1.6302 0.68798,1.11848 1.31066,1.40036 4.93961,2.23614 1.81755,0.4186 2.50749,0.76915 3.68636,1.87304 1.21218,1.13502 2.1609,1.60261 5.77778,2.84755 2.3801,0.81924 6.05844,1.94708 8.17409,2.50636 3.85811,1.01987 6.28157,1.92675 7.20072,2.69456 0.27089,0.22631 1.5744,0.81974 2.89668,1.31878 1.32228,0.49903 4.28082,1.81208 6.57455,2.91791 3.67869,1.77354 4.54795,2.35819 7.37271,4.9588 2.65083,2.44052 3.78193,3.2279 6.5681,4.57225 1.8512,0.89324 3.84749,2.08477 4.43624,2.64787 1.74621,1.67018 2.97827,4.67541 3.88134,9.46744 0.24531,1.3016 0.21065,1.98168 -0.15385,3.01974 -0.61856,1.76152 -0.59474,4.63351 0.0738,8.89845 0.63114,4.02628 0.77895,19.16783 0.28872,29.57596 -0.32007,6.79584 -0.0182,9.66008 1.21135,11.4933 0.37737,0.56265 2.05519,2.08769 3.7285,3.38894 1.6733,1.30125 4.56141,3.95297 6.41803,5.89269 1.8566,1.93974 3.60854,3.52679 3.8932,3.52679 0.28466,0 1.50633,0.41697 2.71485,0.92658 1.20851,0.50964 2.77266,1.02994 3.47591,1.15628 1.34735,0.24209 4.12316,2.0783 4.65709,3.08072 0.17329,0.32535 0.31507,1.10364 0.31507,1.72957 0,0.9988 -0.2059,1.29148 -1.6829,2.39281 -2.75136,2.05143 -4.66514,2.41463 -8.05242,1.52811 -0.96402,-0.25228 -2.95447,-0.56134 -4.42323,-0.68674 -2.49533,-0.21306 -2.92054,-0.36573 -6.48345,-2.32726 -4.04218,-2.22544 -6.87295,-3.2866 -8.79726,-3.29775 -0.64542,0 -2.616,0.23671 -4.37903,0.53438 -1.82303,0.30771 -3.69944,0.44796 -4.35069,0.32502 -1.24974,-0.23592 -2.93823,-1.69865 -3.72467,-3.22675 -0.84657,-1.64487 -0.40668,-4.93993 1.18399,-8.86901 1.7612,-4.35021 2.48368,-9.18232 1.9519,-13.05451 -0.68336,-4.97588 -1.9525,-9.51937 -3.11206,-11.14111 -1.67762,-2.34626 -2.61076,-4.70949 -3.21551,-8.14353 -0.49586,-2.8158 -0.5144,-3.73089 -0.16967,-8.37408 0.21286,-2.86707 0.38491,-6.16949 0.38233,-7.33872 l -0.005,-2.12585 -2.15036,-1.09494 c -1.18272,-0.60222 -2.96966,-1.85645 -3.971,-2.78717 l -1.82062,-1.69221 -0.21201,1.13547 c -0.24536,1.31425 -1.75785,3.177 -3.19305,3.93252 -0.54683,0.28786 -6.59729,2.51631 -13.44549,4.95211 -6.84819,2.43581 -12.51097,4.48873 -12.58394,4.56205 -0.0729,0.0733 -0.22745,7.04862 -0.34324,15.50068 l -0.21059,15.36737 0.7738,-0.33615 c 5.01159,-2.17714 21.38283,-8.36533 21.75322,-8.22251 0.26829,0.10343 1.75215,0.98967 3.29752,1.96941 l 2.80975,1.78134 0,3.34171 c 0,2.90045 -0.0771,3.38309 -0.58271,3.65506 -0.32048,0.17234 -9.66058,3.88869 -20.75577,8.25857 -11.09519,4.36987 -20.37537,8.02634 -20.62265,8.1254 -0.37512,0.15029 -0.41437,1.28009 -0.23707,6.82374 0.11685,3.65402 0.35391,7.13923 0.5268,7.74491 0.17287,0.6057 1.08585,1.9039 2.02881,2.88489 2.66109,2.7686 3.87499,4.45436 5.34317,7.42021 0.91702,1.85243 2.01719,3.43049 3.40246,4.88042 1.12597,1.17848 2.04723,2.38039 2.04723,2.67094 0,0.29046 0.64911,1.22546 1.44248,2.07767 1.83948,1.97591 1.87258,2.81611 0.18253,4.63549 -1.23508,1.32958 -1.30153,1.35623 -3.3658,1.35013 -1.1582,0 -2.10584,0.10745 -2.10584,0.24628 0,0.59067 -2.15955,1.52914 -3.52608,1.53229 -0.89826,0 -1.80531,0.24477 -2.40414,0.64325 -1.14202,0.75995 -2.85122,0.82589 -4.1237,0.15908 z m 3.20553,-1.92856 c 0.50499,-0.26462 1.58388,-0.48204 2.39756,-0.48314 1.69597,0 2.98073,-0.81632 3.29897,-2.09041 0.23306,-0.93292 0.70303,-1.02677 1.50243,-0.29987 0.30873,0.28075 1.12363,0.58623 1.8109,0.67882 1.11102,0.14974 1.34578,0.0538 2.1174,-0.86786 0.85401,-1.01974 0.85876,-1.05042 0.29793,-1.92169 -1.47914,-2.29785 -2.64769,-3.81669 -4.44281,-5.77459 -1.07227,-1.16956 -2.49022,-3.13085 -3.151,-4.35836 -1.22164,-2.26957 -2.71993,-4.33877 -5.56217,-7.68176 -1.77403,-2.08659 -2.14095,-3.06341 -2.6244,-6.98709 -0.4025,-3.26637 -0.43538,-16.10104 -0.0455,-17.78696 0.1515,-0.65524 0.87063,-2.08688 1.59807,-3.18141 1.98079,-2.98038 2.40572,-4.82297 2.1847,-9.47336 -0.10113,-2.12754 -0.30582,-4.19685 -0.45488,-4.59845 -0.25133,-0.67708 -0.35001,-0.59924 -1.35722,1.07057 -2.00632,3.3262 -4.82583,12.10936 -4.82583,15.03311 0,1.15654 -0.0548,1.24681 -0.52088,0.85817 -1.58878,-1.32486 1.58107,-13.60768 4.70306,-18.22389 1.56275,-2.31072 2.13213,-4.00008 2.50971,-7.44648 0.24478,-2.23429 0.4754,-2.95093 1.39985,-4.34986 2.155,-3.26115 2.26952,-3.63005 2.07297,-6.67817 -0.11989,-1.85955 -0.0515,-3.03505 0.20681,-3.55569 0.52095,-1.0499 0.96453,-0.97909 1.18062,0.18848 l 0.17881,0.96624 0.54557,-1.03079 c 0.64776,-1.2238 0.72982,-5.27292 0.21178,-10.44946 -0.76274,-7.62213 -3.25614,-12.80427 -7.13708,-14.83342 -1.6789,-0.8778 -6.41834,-1.15974 -9.81589,-0.58394 -2.88781,0.4894 -4.44164,1.62277 -6.15695,4.4909 -1.47771,2.47083 -1.5918,3.95677 -0.56161,7.31552 0.87332,2.84731 1.61371,4.30359 3.4969,6.87813 0.84225,1.15145 1.85973,2.77501 2.26108,3.60794 0.66568,1.38145 0.69267,1.62725 0.30746,2.80004 -0.41057,1.24995 -0.39874,1.69975 0.18873,7.17499 0.14362,1.33856 0.0359,2.32884 -0.40257,3.70393 -0.92527,2.90116 -0.73379,5.37896 0.77485,10.02675 1.04281,3.21263 1.18957,3.94409 0.77518,3.86392 -0.73016,-0.1413 -1.63067,-1.83864 -2.82008,-5.31545 l -1.03449,-3.02405 -0.69393,1.86354 c -1.5727,4.22346 -2.05976,7.09191 -2.06754,12.17659 -0.008,4.5504 0.0837,5.27113 1.55925,12.40008 1.38589,6.69565 1.56964,8.05196 1.59284,11.75593 0.0195,3.12271 -0.11297,4.62315 -0.52132,5.90268 -0.54565,1.70972 -0.545,1.71795 0.1951,2.41559 0.40845,0.38503 0.90832,1.01562 1.11082,1.40137 0.43959,0.83743 0.14614,1.82022 -0.47231,1.5818 -0.53377,-0.20581 -0.53763,-0.14888 -0.0677,0.99719 0.20453,0.49865 0.38485,2.50405 0.4007,4.45634 0.0279,3.42622 0.0647,3.60592 1.06138,5.16708 1.4392,2.25421 2.01269,4.07818 2.01269,6.40124 0,1.75399 0.10564,2.09428 0.88151,2.83952 1.02226,0.98188 5.12251,2.81667 6.29443,2.81667 0.44003,0 0.88918,0.14491 0.99814,0.3221 0.28946,0.47057 1.55348,0.39349 2.60792,-0.15908 z m 4.34807,-3.44819 c -0.21157,-0.21262 -0.38466,-0.54728 -0.38466,-0.74368 0,-0.19646 -0.19007,-0.61834 -0.42237,-0.93751 -0.38035,-0.52268 -0.47154,-0.53105 -0.91608,-0.0843 -0.57704,0.57976 -5.91893,1.07793 -7.7856,0.72611 -0.97343,-0.18349 -1.15638,-0.34154 -1.07339,-0.92756 0.0836,-0.58981 0.28508,-0.69473 1.22197,-0.63621 3.92356,0.24517 7.37271,0.0237 7.37271,-0.47271 0,-0.98868 2.35301,0.18484 3.03754,1.51489 0.74791,1.45325 -0.0206,2.59545 -1.05012,1.56102 z m -16.41229,-19.28766 c 0,-0.19211 0.63651,-1.17043 1.41446,-2.17403 0.77795,-1.00362 1.96801,-2.83928 2.64456,-4.07929 1.13303,-2.07672 1.23844,-2.18124 1.33579,-1.32451 0.20005,1.76031 -3.50049,7.92713 -4.75682,7.92713 -0.35089,0 -0.63799,-0.15716 -0.63799,-0.3493 z m 7.48148,-55.34957 c -0.96019,-0.58827 -1.65973,-1.79082 -1.26972,-2.1827 0.0989,-0.0994 0.90357,0.1322 1.78818,0.51457 1.01028,0.43669 1.90685,0.61995 2.41093,0.49284 0.57448,-0.14488 0.85908,-0.0543 1.00163,0.319 0.54423,1.425 -2.07243,1.99497 -3.93102,0.85629 z m 7.81383,-12.137 c -0.12112,-0.1217 -0.31425,-0.93351 -0.42919,-1.80401 -0.15982,-1.21058 -0.52757,-1.96823 -1.56411,-3.22238 -1.31491,-1.59097 -1.59473,-2.82662 -0.6401,-2.82662 0.6291,0 2.72655,2.49917 3.42068,4.07581 0.72665,1.65056 0.68852,3.7599 -0.0706,3.90414 -0.27306,0.0517 -0.59556,-0.006 -0.7167,-0.12694 z m -10.72743,-1.6247 c -0.79492,-0.32228 -0.36751,-1.20449 1.44248,-2.97734 1.01374,-0.99295 2.31494,-2.37406 2.89151,-3.06913 1.13728,-1.37097 1.93235,-1.25044 1.56089,0.2366 -0.29877,1.19607 -2.96587,4.66822 -4.13693,5.38566 -1.09552,0.67115 -1.12898,0.6792 -1.75795,0.42421 z m 97.67229,58.04616 c 0.21064,-0.25497 0.33649,-0.87095 0.27966,-1.36879 -0.0949,-0.83142 -0.23397,-0.91862 -1.70606,-1.06939 -0.88151,-0.0905 -1.95942,-0.41642 -2.39532,-0.72468 -0.43592,-0.30826 -1.11258,-0.56047 -1.50372,-0.56047 -0.39111,0 -0.8009,-0.14603 -0.91064,-0.32439 -0.38382,-0.62397 0.86608,-0.72492 2.66993,-0.21569 1.00057,0.28249 2.36702,0.59992 3.03657,0.70539 0.91798,0.14452 1.37096,0.44481 1.84197,1.22096 l 0.62461,1.0293 -0.0186,-0.96621 c -0.0145,-0.75529 -0.31603,-1.18372 -1.38032,-1.96209 -0.74893,-0.54766 -1.9533,-1.0908 -2.6764,-1.20702 -0.7231,-0.11616 -2.65449,-0.74897 -4.29195,-1.40621 -2.74769,-1.10291 -3.20088,-1.41987 -5.87854,-4.11162 -1.59572,-1.60413 -4.18403,-3.85675 -5.75179,-5.00582 -4.33447,-3.17688 -5.21687,-4.04567 -5.77216,-5.6831 -0.94119,-2.77543 -1.24919,-6.74418 -1.03341,-13.31533 0.55249,-16.82219 0.57641,-18.96603 0.24253,-21.74042 -0.19188,-1.5943 -0.51451,-4.29271 -0.71698,-5.99646 -0.29967,-2.52183 -0.46491,-3.09069 -0.88875,-3.05977 -0.38166,0.0278 -0.54782,-0.29483 -0.62245,-1.20873 -0.0798,-0.97693 0.14568,-1.64955 1.04179,-3.10831 0.66409,-1.08099 1.1436,-2.27855 1.1436,-2.85594 0,-1.67608 -1.84952,-6.90701 -3.16545,-8.95272 -1.19079,-1.85116 -1.37688,-1.99159 -4.23136,-3.19289 -2.59359,-1.09151 -3.37655,-1.62424 -5.96068,-4.05567 -1.63619,-1.53951 -3.9826,-3.40063 -5.21425,-4.13583 -3.21476,-1.91895 -10.75417,-5.00418 -12.81734,-5.24504 -2.00953,-0.23457 -5.9361,0.47673 -7.74218,1.40251 -3.0499,1.56336 -4.70487,5.37179 -5.89108,13.55649 -0.27286,1.88273 -0.49612,3.56426 -0.49612,3.73667 0,0.53931 5.00479,2.96635 7.11889,3.45227 1.10928,0.25497 3.81998,0.62079 6.02376,0.81293 5.90222,0.5146 7.60975,1.1225 10.8988,3.88012 3.33972,2.8001 6.76511,4.54161 9.44038,4.79958 1.45269,0.14008 1.95729,0.31928 2.03397,0.72233 0.0833,0.43791 -0.27686,0.57684 -1.96686,0.75867 l -2.06881,0.2226 -0.51245,3.42841 c -0.80501,5.386 -0.94634,8.36212 -0.54203,11.4148 0.68619,5.18101 1.74487,7.64102 5.23582,12.1662 0.99846,1.29428 1.52262,2.2888 1.52262,2.88903 0,1.07122 -0.48331,1.48586 -1.1165,0.95783 -0.37535,-0.31297 -0.40266,-0.20081 -0.16977,0.69698 0.65565,2.52746 1.05039,7.23293 0.86777,10.34419 -0.22277,3.79557 -0.71615,5.64824 -2.48028,9.31365 -2.44363,5.07719 -1.16102,8.30583 3.29957,8.30583 3.40763,0 6.33082,-0.41017 6.33082,-0.88833 0,-1.0501 3.04731,0.0907 7.83014,2.93144 1.46561,0.87048 2.26474,1.18538 2.35072,0.92622 0.20993,-0.6329 0.89837,-0.45239 1.32426,0.34716 0.7113,1.33543 1.61528,1.63106 5.67338,1.8552 2.13155,0.11771 4.15103,0.37475 4.48773,0.57114 0.91542,0.53398 4.14045,0.47303 4.603,-0.087 z m -32.26999,-11.77443 c -0.98306,-0.40771 -1.24075,-1.71662 -0.62231,-3.16117 0.27969,-0.65333 0.55001,-1.53884 0.60071,-1.96783 0.0506,-0.42898 0.2547,-0.8337 0.45334,-0.89933 0.63312,-0.20923 0.74909,0.81081 0.27246,2.39624 -0.6534,2.1734 -0.42829,2.606 1.48897,2.86155 0.88221,0.11759 1.48677,0.32393 1.34347,0.45855 -0.44313,0.41624 -2.78672,0.62299 -3.53664,0.31199 z m -7.47827,-59.70239 c -1.89843,-0.51444 -3.64704,-1.61681 -4.64043,-2.92543 -0.74728,-0.98438 -1.41668,-1.37429 -4.41572,-2.57183 -1.1045,-0.44106 -1.18417,-0.55087 -0.85195,-1.1746 0.29265,-0.54944 0.55951,-0.64925 1.32473,-0.49547 1.00222,0.2014 5.39368,2.99762 5.39368,3.43439 0,0.13848 0.73144,0.79125 1.62543,1.45063 1.60491,1.18374 1.65338,1.19624 3.8466,0.99143 2.00461,-0.18719 2.22123,-0.15067 2.22123,0.37457 0,1.36849 -1.61922,1.69794 -4.50357,0.91631 z m 4.4666,-2.21848 c -0.0204,-0.0442 -0.0674,-1.45743 -0.1044,-3.1403 -0.0573,-2.59788 -0.22103,-3.44023 -1.08496,-5.58022 -1.1683,-2.89392 -1.3147,-4.18457 -0.45657,-4.02527 0.32061,0.0595 1.00481,1.00118 1.5968,2.19766 0.89835,1.81565 1.06382,2.54778 1.24673,5.51621 0.23019,3.73575 0.0454,5.11242 -0.68589,5.11242 -0.26111,0 -0.49137,-0.0362 -0.51171,-0.0806 z m -36.50602,56.02161 19.07288,-7.50385 0.0872,-2.23664 0.0871,-2.23666 -2.21817,-1.36884 c -1.21999,-0.75287 -2.34104,-1.36858 -2.49126,-1.36825 -0.15019,3.2e-4 -5.24489,1.96292 -11.32153,4.36132 -6.07665,2.39842 -11.3417,4.31855 -11.70017,4.26698 -0.64595,-0.0928 -0.65139,-0.23699 -0.61362,-16.26198 l 0.038,-16.16823 -0.99952,0.40979 c -0.85273,0.3496 -1.14952,0.80834 -2.02122,3.12397 -0.56194,1.4928 -1.11608,3.3664 -1.23142,4.16355 -0.11532,0.79715 -0.90983,2.97119 -1.76558,4.83121 -1.94496,4.22754 -2.52439,8.10464 -1.94671,13.02614 0.73967,6.30158 0.14845,9.80131 -2.55464,15.12256 -0.99938,1.96735 -1.69043,3.79201 -1.80535,4.76679 l -0.18614,1.5793 1.24862,-0.50164 c 0.68674,-0.27591 9.83142,-3.87838 20.32149,-8.00552 z m 3.9604,-45.16541 c 15.30646,-5.42427 15.917,-5.7187 16.348,-7.88398 0.11079,-0.55658 0.0581,-1.28115 -0.11718,-1.61014 -0.34457,-0.6469 -0.6346,-0.69979 -6.79038,-1.23843 -2.73508,-0.23931 -4.60873,-0.61665 -6.92927,-1.39546 -3.10951,-1.04362 -3.20119,-1.05487 -4.10481,-0.50345 -2.07937,1.26896 -4.42545,0.33364 -8.93808,-3.56336 -1.05781,-0.9135 -2.17034,-1.6622 -2.47226,-1.66377 -0.30192,-0.002 -1.36355,0.30337 -2.3592,0.67766 l -1.81023,0.68054 0.21619,1.33246 c 0.11891,0.73287 0.34848,2.78184 0.51015,4.55327 0.16169,1.77145 0.43457,3.87303 0.6064,4.67017 0.17187,0.79715 0.31876,2.06989 0.32642,2.82831 0.009,0.81876 0.18221,1.44382 0.42812,1.53864 0.22781,0.0879 5.88957,-1.63568 12.5817,-3.83004 8.75561,-2.87097 12.2844,-3.89722 12.58429,-3.65984 0.34201,0.27073 0.34201,0.40206 0,0.732 -0.22921,0.22116 -6.00641,2.23426 -12.83817,4.47358 l -12.42142,4.07148 0,2.59381 c 0,1.94082 0.10087,2.5558 0.40068,2.44286 0.22039,-0.0829 6.87095,-2.44386 14.77905,-5.24631 z m -68.55173,-10.25729 c 11.10715,-3.65084 20.41118,-6.76241 20.67564,-6.91457 1.06515,-0.61292 0.49841,-1.63502 -2.23009,-4.02173 l -2.71089,-2.37133 -5.7135,1.91668 c -4.61523,1.54826 -5.804,1.8412 -6.18441,1.52398 -0.38775,-0.32333 -0.47095,-1.62729 -0.47095,-7.38085 l 0,-6.98814 -3.3658,-2.96973 -3.36581,-2.96976 0,11.1016 c 0,8.92816 -0.0852,11.18491 -0.43528,11.5272 -0.2394,0.23408 -4.92749,1.87039 -10.41794,3.63622 l -9.98269,3.21063 0,1.93331 c 0,1.91884 0.0136,1.94718 1.81814,3.77941 1,1.01534 1.90156,1.79634 2.00347,1.73554 0.10192,-0.0608 9.27297,-3.09761 20.38011,-6.74846 z m 25.66809,-1.54903 c 2.04433,-4.09429 4.55997,-6.37236 7.77959,-7.04492 3.65368,-0.76322 10.07572,-0.12158 12.80971,1.27986 0.70168,0.35966 1.80911,1.27493 2.46098,2.03389 l 1.18521,1.37996 -0.10897,-1.59447 c -0.10676,-1.56225 -0.0831,-1.6095 1.17324,-2.33744 1.9344,-1.12086 4.58561,-1.83653 5.40772,-1.45977 0.37552,0.1721 2.12526,1.39001 3.88831,2.70646 1.76305,1.31646 3.34976,2.48158 3.52607,2.58917 0.20026,0.12219 0.2793,-0.32502 0.21062,-1.19161 -0.12443,-1.57049 0.69462,-7.72073 1.41559,-10.62931 0.5665,-2.28544 2.09013,-5.67593 3.21877,-7.16274 1.17792,-1.55168 6.24784,-3.93314 8.428,-3.95884 1.24016,-0.0146 0.32842,-0.44065 -2.69474,-1.25922 -1.41043,-0.38191 -5.40091,-1.7382 -8.86774,-3.014 -5.02013,-1.84741 -6.40143,-2.48353 -6.78532,-3.12483 -0.38064,-0.63585 -1.31336,-1.0731 -4.43519,-2.0791 -2.17425,-0.70064 -4.67444,-1.35285 -5.55596,-1.44938 -1.93312,-0.21161 -1.97371,-0.6963 -0.0973,-1.16191 1.29857,-0.32222 1.33844,-0.36474 0.67936,-0.72468 -0.96895,-0.52915 -4.15458,-0.47812 -6.99839,0.11207 -6.28595,1.30459 -14.15846,5.48864 -18.68405,9.9301 -3.84213,3.7707 -4.51066,5.42263 -3.65266,9.02564 0.39483,1.65809 0.63666,2.11969 1.14993,2.19494 0.35747,0.0523 1.08872,0.72492 1.62498,1.49447 0.88474,1.26958 0.97377,1.6276 0.96135,3.86552 -0.008,1.35649 -0.21173,3.52082 -0.45376,4.80964 -0.38489,2.04961 -0.3734,2.88315 0.0917,6.65081 0.66057,5.35047 0.92132,6.12323 1.23587,3.66256 0.12907,-1.0097 0.61824,-2.60402 1.08703,-3.54287 z m 22.45733,-8.72499 c -0.42472,-0.56874 -1.1339,-1.75876 -1.57597,-2.64447 -1.48538,-2.976 -3.36295,-4.34809 -5.95001,-4.34809 -1.48848,0 -2.27767,-0.69225 -1.6523,-1.44935 1.1812,-1.43006 5.61158,0.17157 7.42661,2.6848 1.78415,2.47046 3.47179,5.33654 3.47199,5.89638 3.3e-4,1.00344 -0.92279,0.92871 -1.72032,-0.13927 z m 8.50805,-10.46049 c 0.10922,-2.29516 0.317,-3.21465 1.10997,-4.91173 0.98257,-2.10289 2.48866,-4.18147 3.02976,-4.18147 0.5054,0 0.32875,0.49525 -0.99796,2.79767 -1.0995,1.90818 -1.33742,2.66356 -1.61112,5.1154 -0.3935,3.52482 -0.53309,4.0039 -1.16657,4.0039 -0.4232,0 -0.47817,-0.42626 -0.36408,-2.82377 z m -34.77661,1.09141 c -0.63011,-1.64982 1.54565,-5.42513 5.3901,-9.3527 3.16113,-3.22948 4.44975,-3.99421 8.14306,-4.83253 2.87039,-0.65153 3.35506,-0.88738 4.9996,-2.43293 1.57439,-1.47964 2.35533,-1.79895 2.63147,-1.07592 0.14024,0.36718 -0.18585,0.865 -1.05393,1.60899 -2.33759,2.00347 -4.10896,2.95524 -6.38584,3.43109 -3.24237,0.67769 -4.00936,1.08644 -6.74876,3.59667 -2.76674,2.5353 -3.40644,3.44407 -4.93101,7.00526 -1.0167,2.37486 -1.67072,3.03123 -2.04469,2.05207 z m 11.74895,-4.56873 c -0.30623,-0.80182 0.40392,-1.97498 1.81892,-3.0049 1.408,-1.0248 10.67653,-4.80633 15.78737,-6.4412 3.17045,-1.01418 4.72432,-1.24517 4.72432,-0.70229 0,0.46165 -2.84376,1.69416 -8.9364,3.87316 -7.50454,2.68397 -8.72691,3.26246 -10.89281,5.15529 -2.03624,1.77949 -2.21836,1.86104 -2.5014,1.11994 z m 5.05982,0.22666 c -0.57313,-0.38295 -0.18091,-1.01133 0.63126,-1.01133 1.10796,0 2.70594,-0.84755 4.81017,-2.55123 2.19099,-1.77394 2.64429,-1.94385 7.37096,-2.7626 1.69101,-0.29293 3.49412,-0.8105 4.00691,-1.15015 1.24913,-0.82738 2.3748,-0.82031 2.3748,0.0149 0,1.02185 -1.20288,1.54824 -5.50215,2.40777 -4.98522,0.99665 -5.45032,1.17256 -6.93194,2.62162 -0.65416,0.63978 -1.69765,1.42452 -2.31885,1.74389 -1.37812,0.70849 -3.83923,1.08926 -4.44116,0.68709 z m 26.84144,20.28128 c 0.26418,-0.16818 0.30991,-0.35451 0.11647,-0.47463 -0.17515,-0.10876 -0.49671,0.0181 -0.71457,0.28182 -0.43255,0.52366 -0.0933,0.63304 0.5981,0.19281 z m -45.43772,-10.05797 c -0.34586,-0.95329 -0.94517,-2.89125 -1.33177,-4.30654 -0.39124,-1.43216 -0.95169,-2.74833 -1.26386,-2.96801 -0.3085,-0.21712 -4.98998,-4.10677 -10.40326,-8.64367 -8.7653,-7.34624 -9.86255,-8.17131 -10.0269,-7.5398 -0.10152,0.39 -0.4949,1.29879 -0.87423,2.0195 l -0.68966,1.31039 2.74098,2.46725 c 6.88004,6.19292 22.26209,19.61063 22.3641,19.50813 0.0623,-0.0626 -0.16953,-0.89394 -0.5154,-1.84725 z m -10.22329,0.35043 c 2.25389,-0.71398 4.09798,-1.34281 4.09798,-1.39737 0,-0.0546 -1.476,-1.3908 -3.27997,-2.96942 -1.80401,-1.57861 -3.75135,-3.2838 -4.32747,-3.78928 l -1.04747,-0.9191 0,5.18666 c 0,2.85265 0.10326,5.18665 0.22947,5.18665 0.12621,0 2.07358,-0.58418 4.32746,-1.29814 z m 11.97255,-2.39527 c -0.3038,-0.79927 -0.69265,-1.54034 -0.86413,-1.64682 -0.17145,-0.10647 -0.0722,0.36308 0.22039,1.04344 0.29267,0.68036 0.60689,1.49641 0.69827,1.81344 0.0913,0.31703 0.24075,0.50142 0.33198,0.40978 0.0912,-0.0917 -0.0827,-0.82058 -0.38651,-1.61984 z m -5.82109,-9.89404 c -1.32133,-2.63631 -3.93295,-5.43699 -6.38094,-6.84281 -0.88151,-0.50626 -3.06102,-1.83364 -4.84333,-2.94976 -1.78229,-1.11612 -3.65753,-2.12588 -4.16718,-2.24389 l -0.92661,-0.2146 1.12192,0.96312 c 2.45429,2.10686 16.19325,13.58363 16.27207,13.59279 0.0462,0.006 -0.43788,-1.0318 -1.07593,-2.30485 z m -85.19115,0.36236 c 4.46833,-2.16638 7.78733,-8.60118 8.79438,-17.05047 0.42828,-3.59323 0.18884,-7.98508 -0.71114,-13.04424 -1.99623,-11.22162 -7.98121,-21.09333 -14.85906,-24.50875 -2.25319,-1.11889 -2.76919,-1.2492 -4.94676,-1.2492 -2.00952,0 -2.74784,0.15568 -4.25729,0.89771 -3.35199,1.64779 -6.11395,5.65995 -7.80973,11.34485 -0.76072,2.5502 -0.87692,3.56261 -0.99679,8.68418 -0.0747,3.1886 -0.017,5.96955 0.12804,6.17988 0.19634,0.28481 1.76001,0.007 6.12358,-1.09097 6.55498,-1.64819 7.09503,-1.62498 7.91225,0.34022 0.44211,1.06317 0.33758,2.08099 -0.32198,3.13526 -0.20731,0.33137 -2.50054,1.05609 -6.49119,2.05137 -4.60019,1.14731 -6.17063,1.66229 -6.17063,2.02347 0,1.01881 2.26642,7.22671 3.64603,9.98679 1.65155,3.30407 4.73306,7.56581 6.70608,9.27449 4.41922,3.82715 9.30181,4.94165 13.25421,3.02541 z m -3.34219,-0.68355 c -0.25912,-0.26034 0.18763,-0.8858 1.65898,-2.3226 2.20981,-2.15791 3.6479,-4.73767 4.59723,-8.24686 0.80059,-2.95941 0.77536,-12.99501 -0.0441,-17.55337 -2.56933,-14.292 -7.07145,-21.80785 -14.59175,-24.35962 -1.47568,-0.50071 -1.95323,-0.80687 -1.87257,-1.2005 0.15885,-0.77515 1.60265,-0.52999 4.25267,0.72215 5.76797,2.72535 9.74196,8.73327 12.19982,18.44383 1.65945,6.55611 2.15561,10.92241 1.97098,17.34485 -0.1701,5.91674 -0.54666,7.88021 -2.1619,11.27282 -1.56786,3.29304 -5.12642,6.78646 -6.00933,5.8993 z m 57.1167,0.67157 c 0.47037,-0.37176 1.20819,-1.37579 1.63958,-2.23115 0.43825,-0.86897 1.51722,-2.16953 2.44524,-2.94746 3.72384,-3.12156 4.79631,-4.28009 5.72979,-6.18965 1.84845,-3.78119 2.42512,-9.04832 1.59893,-14.60433 -0.42215,-2.83897 -0.26255,-4.61864 0.46895,-5.22861 0.24929,-0.2079 0.3687,-0.59943 0.26534,-0.87008 -0.29268,-0.76637 0.51661,-1.06093 2.92968,-1.06628 3.48831,-0.008 4.83385,-0.88644 8.64253,-5.64395 0.5105,-0.63769 1.44987,-1.42684 2.08747,-1.75368 1.08154,-0.55438 4.50606,-1.65216 6.52075,-2.09028 0.72185,-0.15698 0.88153,-0.36561 0.88153,-1.15181 0,-0.63872 0.16096,-0.96011 0.48082,-0.96011 0.70679,0 0.64428,2.3287 -0.0801,2.98514 -0.30852,0.2796 -1.53772,0.73549 -2.73152,1.01311 -3.26125,0.75843 -4.62083,1.60912 -7.55176,4.72524 -3.31356,3.5229 -4.51811,4.15972 -7.86792,4.15972 -1.4503,0 -2.40546,0.12463 -2.29772,0.29983 0.10143,0.1649 0.0379,0.39087 -0.14136,0.50213 -0.17916,0.11126 -0.32485,0.6648 -0.32374,1.23005 0.002,0.80949 0.21134,1.14745 0.98764,1.5914 1.1345,0.6488 2.31203,0.70252 4.89234,0.22325 2.13797,-0.3971 3.09347,-0.18579 3.09347,0.68417 0,0.65364 -0.62005,0.83081 -1.13797,0.32516 -0.16749,-0.16351 -0.69981,-0.21938 -1.18292,-0.1241 -0.7583,0.14953 -0.85229,0.28926 -0.68742,1.02198 0.29161,1.29596 1.28056,1.97607 2.87347,1.97607 1.15772,0 1.36269,0.0897 1.19704,0.52333 -0.16413,0.42977 -0.53693,0.49262 -2.08549,0.35153 -1.0371,-0.0945 -2.08254,-0.336 -2.32321,-0.53668 -0.34262,-0.28572 -0.58032,-0.16343 -1.09559,0.56364 -0.61545,0.86844 -0.6244,0.97677 -0.13817,1.67425 0.28592,0.41015 0.604,1.62886 0.70687,2.70824 0.15525,1.62908 0.30956,2.0165 0.90828,2.28043 1.00384,0.44251 0.95325,1.4535 -0.0727,1.4535 -1.08599,0 -1.75232,-1.13564 -2.09483,-3.5703 -0.33437,-2.37691 -0.7843,-2.95447 -2.09612,-2.69087 l -0.94561,0.19003 -0.0817,2.62668 c -0.0449,1.44467 -0.16043,2.87557 -0.25652,3.1798 -0.13714,0.43406 0.12195,0.62899 1.2039,0.90577 5.24705,1.3423 8.48027,3.07592 14.5213,7.78622 1.93939,1.51218 3.75591,3.78126 4.4438,5.55095 0.0758,0.19486 0.38819,-0.009 0.69431,-0.45091 0.30612,-0.44285 1.89213,-2.13412 3.52447,-3.75832 l 2.96791,-2.95314 -2.13895,-0.52668 c -1.67052,-0.41131 -2.45269,-0.45403 -3.57138,-0.19502 -1.96817,0.4557 -2.55437,0.42739 -2.55437,-0.12331 0,-1.17641 5.44048,-1.62508 8.44786,-0.69667 l 1.55597,0.48035 2.75804,-1.58898 c 1.51692,-0.87394 2.86224,-1.58895 2.98961,-1.58895 0.12736,0 0.27766,-0.32219 0.33398,-0.71598 0.063,-0.44077 0.59125,-0.99088 1.37411,-1.43116 1.50157,-0.84447 1.85095,-1.5824 1.27083,-2.68408 -0.23319,-0.44286 -0.66703,-1.35372 -0.96406,-2.02414 -0.29705,-0.6704 -0.80975,-1.36395 -1.13938,-1.54121 -0.70403,-0.37857 -0.80345,-1.26585 -0.14184,-1.26585 0.62423,0 2.42748,2.25223 2.42748,3.03186 0,0.34679 0.32456,0.98588 0.72125,1.42017 0.44987,0.49253 0.58329,0.8394 0.35458,0.92193 -0.20165,0.0727 -0.29456,0.40935 -0.20642,0.74797 0.10794,0.41467 -0.183,0.93068 -0.89112,1.58052 l -1.05135,0.96485 2.93864,-1.03233 c 1.61625,-0.56778 2.93956,-1.13345 2.94066,-1.25705 8e-4,-0.12362 -0.75525,-0.26855 -1.68086,-0.32208 -2.04546,-0.11832 -2.22976,-0.70227 -0.26611,-0.84322 1.86576,-0.13395 3.01613,0.16626 2.80051,0.73083 -0.13444,0.35201 0.0373,0.38182 0.85025,0.14756 0.56031,-0.16147 1.05574,-0.29356 1.10099,-0.29356 0.0452,0 0.0822,-0.70918 0.0822,-1.57595 0,-1.1613 0.13785,-1.62908 0.5239,-1.77793 0.44517,-0.17163 0.49875,-0.0136 0.35654,1.05178 -0.22106,1.65598 0.0706,2.04607 1.43693,1.92179 l 1.13019,-0.10281 -2.0537,-2.89872 c -3.21907,-4.54361 -3.61182,-5.545 -4.09166,-10.43288 -0.43444,-4.4252 -0.33209,-4.12853 -2.75225,-7.97641 -0.34496,-0.54843 -0.65261,-0.65975 -1.45966,-0.52815 -1.18912,0.19388 -1.81058,-0.43456 -1.01079,-1.02219 0.4352,-0.31972 0.2386,-0.51382 -1.31338,-1.29671 -1.00384,-0.50641 -2.47429,-1.00364 -3.26767,-1.10501 -0.8037,-0.10267 -1.3715,-0.32691 -1.28221,-0.50635 0.19107,-0.38397 3,-0.40557 4.24733,-0.0326 2.36032,0.70562 -0.0593,-3.34717 -3.61118,-6.04879 l -2.06719,-1.57231 -3.21125,0.17763 c -3.37881,0.18693 -4.87094,0.56306 -6.35484,1.60187 -0.82433,0.57706 -0.85789,0.67626 -0.40069,1.18389 0.51247,0.56896 0.67031,1.30853 0.27928,1.30853 -0.12086,0 -0.52953,-0.2924 -0.90813,-0.64978 -0.94716,-0.89405 -4.857,-1.92732 -7.28257,-1.9246 -3.52431,0.004 -8.86399,1.51454 -12.10491,3.42446 -3.32717,1.96075 -6.47923,5.70991 -6.53753,7.77599 -0.0413,1.46218 -0.9375,1.70471 -1.09828,0.29718 -0.11893,-1.04133 -0.42038,-1.01271 -3.17459,0.30144 -1.76422,0.8418 -3.57691,2.6904 -4.60713,4.69841 -0.76975,1.50032 -0.85266,2.42534 -0.33085,3.69111 l 0.40874,0.9915 1.95448,-0.98132 c 1.43433,-0.72016 2.43048,-0.98877 3.74305,-1.0093 0.98372,-0.0154 1.82464,0.11698 1.86871,0.29413 0.044,0.17713 -1.14226,0.73148 -2.6363,1.23186 -2.59129,0.8679 -4.65626,2.24431 -4.65626,3.10368 0,0.20525 0.73035,1.14909 1.62301,2.09745 1.62579,1.72725 2.86472,4.24253 2.86472,5.81606 l 0,0.80829 1.25521,-0.64342 c 2.01754,-1.03417 3.66163,-3.85187 4.29438,-7.35982 0.27382,-1.51786 0.5298,-2.15538 0.86554,-2.15538 1.22114,0 0.33563,5.43045 -1.31088,8.03908 -1.00732,1.59593 -2.44242,2.63893 -4.05153,2.9445 -1.05719,0.20075 -1.17125,0.38539 -1.51935,2.45935 -0.23135,1.37833 -1.32168,2.26205 -1.66898,1.35271 -0.11153,-0.29202 -0.0373,-1.25141 0.16504,-2.13198 0.56598,-2.46367 0.46333,-4.78168 -0.26061,-5.88517 -0.3433,-0.52328 -1.76298,-2.04511 -3.15483,-3.38183 l -2.53063,-2.43042 -0.21725,-2.25456 c -0.39822,-4.13245 -0.59966,-5.30353 -0.88207,-5.12815 -0.15402,0.0957 -0.28006,0.61791 -0.28006,1.16059 0,0.84052 -0.0711,0.92728 -0.48083,0.58571 -0.5585,-0.46572 -0.64496,-2.63293 -0.14267,-3.57594 0.18598,-0.34919 1.1245,-0.98428 2.08558,-1.41134 1.78797,-0.79451 5.06714,-3.39326 5.45094,-4.3199 0.57824,-1.39609 1.30753,-5.47083 1.05903,-5.91703 -0.15084,-0.2708 -1.03258,-0.67487 -1.95942,-0.89792 -0.92685,-0.22306 -2.14934,-0.6001 -2.71668,-0.83788 -1.69079,-0.70866 -2.3343,-0.57523 -2.3343,0.48401 0,1.60715 1.84097,2.71896 4.5637,2.75613 1.15178,0.0157 1.84736,0.16313 1.84736,0.39151 0,0.61284 -0.70562,0.9494 -2.88499,1.37601 -1.14596,0.22431 -2.66533,0.66433 -3.37638,0.9778 -1.55615,0.68603 -3.03466,2.35734 -3.03466,3.43039 0,0.47903 -0.18571,0.78047 -0.48084,0.78047 -0.32054,0 -0.48081,-0.32207 -0.48081,-0.96624 0,-0.53143 -0.1082,-0.96267 -0.24042,-0.95829 -0.13223,0.005 -1.50701,0.33163 -3.05508,0.72724 l -2.81464,0.71929 1.07828,1.79923 c 0.59307,0.98956 1.16996,2.0392 1.28198,2.33251 0.11202,0.29331 0.47903,0.53332 0.81559,0.53332 0.98485,0 1.43438,0.82807 1.23999,2.28423 -0.0963,0.7215 -0.24977,1.38685 -0.34103,1.47854 -0.37899,0.38078 -0.85,-0.32783 -0.85456,-1.28566 -0.007,-1.26499 -0.29546,-1.74789 -1.38936,-2.31813 l -0.8496,-0.44288 0,9.28732 c 0,8.32038 0.0655,9.50039 0.62947,11.33421 0.8344,2.7134 2.99907,5.92467 6.90352,10.24141 3.08015,3.40538 3.25711,3.54435 4.52464,3.55273 0.86464,0.006 1.61377,-0.22416 2.17434,-0.6672 z m -1.89071,-2.41152 c -0.39423,-0.3015 -1.13491,-0.45261 -1.92332,-0.39237 -0.96937,0.0741 -1.28221,-0.0199 -1.28221,-0.38515 0,-0.34546 0.41101,-0.50696 1.44249,-0.56685 1.62389,-0.0942 2.98679,0.46875 3.14605,1.29964 0.13066,0.68165 -0.52262,0.70278 -1.38301,0.0447 z m -3.07354,-9.10932 c -0.77781,-0.50053 -2.14381,-1.69313 -3.03558,-2.65021 -1.48109,-1.58961 -1.67182,-1.97566 -2.20459,-4.46236 -0.76216,-3.55736 -0.83534,-5.97396 -0.18094,-5.97396 0.35026,0 0.5388,0.52479 0.69433,1.93248 0.24289,2.1987 1.23307,5.0693 2.29444,6.65179 0.59565,0.88806 2.43524,2.23099 5.66614,4.13632 0.59279,0.34957 0.17489,0.80561 -0.98992,1.08034 -0.59603,0.14057 -1.22789,-0.0606 -2.24388,-0.7144 z m 48.92432,-0.99545 c -0.72696,-0.8071 -1.11522,-3.71081 -0.46715,-3.49375 0.24139,0.0809 0.53451,0.61668 0.65136,1.19071 0.11684,0.57407 0.51722,1.36971 0.88975,1.76813 0.37252,0.39842 0.67731,0.82376 0.67731,0.94519 0,0.47232 -1.21211,0.18834 -1.75127,-0.41028 z m -6.65208,-3.50534 c -1.33707,-1.16269 -2.0971,-1.34621 -3.93989,-0.9513 -1.79552,0.38478 -3.08335,-0.0534 -4.01326,-1.36561 -1.20941,-1.70656 -0.58035,-2.15362 1.06865,-0.75947 0.87651,0.74107 1.20996,0.82341 2.8511,0.70413 1.69357,-0.12307 1.85851,-0.0774 1.85851,0.51354 0,0.50448 0.0855,0.56272 0.38466,0.26212 0.60116,-0.60402 1.35977,-0.4583 2.17977,0.4187 0.84607,0.9049 1.9906,1.0199 3.20552,0.32208 1.07486,-0.61739 2.13058,-0.60012 2.37461,0.0388 0.15672,0.41033 0.05,0.48266 -0.49958,0.33829 -0.46794,-0.12294 -1.00733,0.077 -1.63212,0.60536 -1.2463,1.05367 -2.5293,1.01134 -3.83797,-0.12666 z m -14.01002,-1.09453 c -0.42684,-0.22299 -0.84206,-0.60624 -0.92269,-0.85165 -0.11811,-0.35938 0.0953,-0.392 1.09661,-0.16767 0.68379,0.15316 1.93718,0.2548 2.78532,0.22583 1.28841,-0.0439 1.52518,0.0365 1.43937,0.48978 -0.13075,0.69061 -3.24624,0.90573 -4.39861,0.30371 z m 33.63271,-0.76461 c 0,-0.9291 -0.23717,-1.38263 -1.17383,-2.24467 -0.93679,-0.86215 -1.07148,-1.11974 -0.667,-1.27571 0.74083,-0.28562 2.06084,0.71076 2.45794,1.85535 0.50643,1.45962 0.44045,2.8294 -0.13629,2.8294 -0.33873,0 -0.48082,-0.3441 -0.48082,-1.16437 z m -15.06596,-0.42808 c 0,-0.73128 1.5952,-2.06055 3.05756,-2.54778 1.20594,-0.40182 1.6152,-0.70514 1.69287,-1.25461 0.0564,-0.39859 0.25431,-0.7247 0.43994,-0.7247 0.2329,0 0.23487,-0.12477 0.007,-0.40259 -0.18211,-0.22143 -0.43228,-0.98234 -0.55591,-1.69092 -0.12363,-0.70858 -0.56928,-1.89387 -0.99034,-2.634 -0.42105,-0.74011 -0.76555,-1.42856 -0.76555,-1.52988 0,-0.45833 0.76987,-0.10437 1.61091,0.74069 0.67136,0.67455 0.97932,1.37037 1.13779,2.57076 0.18677,1.41457 1.05823,3.38751 1.08786,2.46283 0.0151,-0.47357 5.15349,-0.38853 6.02043,0.0997 0.39668,0.22336 0.72125,0.61843 0.72125,0.87792 0,0.53996 -0.82077,0.63931 -1.12991,0.13677 -0.12809,-0.20825 -0.8934,-0.25864 -2.02236,-0.13317 -0.99897,0.111 -2.17693,0.0706 -2.61769,-0.0899 -1.27065,-0.46247 -1.92331,-0.16372 -1.92331,0.88035 0,1.16767 -1.31029,2.25433 -2.71824,2.25433 -0.62194,0 -1.25857,0.25483 -1.60922,0.64416 -0.60352,0.67006 -1.44249,0.86783 -1.44249,0.34003 z m -15.80267,-1.83176 c -0.43871,-0.44077 -0.20959,-0.6655 1.07171,-1.05122 1.75079,-0.52705 2.02499,-1.33549 1.76936,-5.21691 -0.21447,-3.25651 0.0857,-4.80127 0.93293,-4.80127 0.57273,0 0.6061,0.29212 0.16621,1.45465 -0.2342,0.61892 -0.1903,1.36531 0.16029,2.72462 1.11072,4.30686 0.27464,6.30443 -2.89843,6.92506 -0.53742,0.1051 -1.07835,0.0895 -1.20207,-0.035 z m 7.14774,-1.25886 c 0,-0.0957 0.57699,-0.72543 1.2822,-1.39949 1.00205,-0.95777 1.2833,-1.46516 1.28712,-2.32218 0.003,-0.60314 0.11089,-1.24157 0.24042,-1.4187 0.76614,-1.04779 1.87463,-1.59089 3.6847,-1.80533 1.47197,-0.17439 2.13028,-0.41717 2.5528,-0.94143 0.83021,-1.03016 0.7302,-3.33412 -0.23518,-5.41776 -1.11202,-2.40015 -1.02624,-3.07778 0.21002,-1.65895 1.16048,1.33186 1.86691,2.85325 1.90201,4.0962 0.014,0.49282 0.0968,0.71857 0.18428,0.50164 0.11426,-0.2835 0.40009,-0.21536 1.01649,0.24236 0.71746,0.53275 1.0404,0.58401 1.97732,0.31387 1.71817,-0.49537 3.03974,-0.38721 3.93733,0.32216 0.45289,0.35796 1.04282,0.55765 1.32545,0.44868 0.65655,-0.25316 0.65911,0.3129 0.004,0.85928 -0.42088,0.35099 -0.68166,0.3261 -1.55929,-0.14881 -0.87521,-0.47355 -1.26506,-0.51132 -2.29942,-0.22276 -1.94902,0.54375 -2.82488,0.42838 -3.67395,-0.48389 l -0.77711,-0.83495 -0.16029,1.22667 c -0.20565,1.57396 -1.72622,2.69725 -3.65361,2.69902 -1.93229,0.002 -3.26022,0.93457 -3.50477,2.46194 -0.25721,1.60638 -1.91809,3.65638 -2.96234,3.65638 -0.42793,0 -0.77805,-0.0783 -0.77805,-0.17395 z m 20.1948,-4.19014 c 0,-0.80595 -0.22141,-1.89556 -0.49204,-2.42138 -0.44595,-0.86651 -0.44395,-0.97458 0.0217,-1.15405 0.86357,-0.33297 1.24585,0.44161 1.37804,2.79214 0.10722,1.90653 0.0479,2.24866 -0.39054,2.24866 -0.39988,0 -0.517,-0.33197 -0.517,-1.46537 z m -30.53355,-0.13998 c -0.48433,-0.38278 -0.88059,-0.90286 -0.88059,-1.15572 0,-0.59801 0.45757,-0.58689 0.96166,0.0233 0.47259,0.57218 2.05812,0.62696 3.50253,0.12103 1.46984,-0.51482 2.05129,0.12474 0.73513,0.8086 -1.75157,0.91009 -3.32998,0.98418 -4.31873,0.20272 z m -31.87513,-3.62845 c -0.37086,-0.57574 -1.03224,-3.57018 -0.85293,-3.86169 0.0828,-0.13465 0.42477,-0.24483 0.75989,-0.24483 0.45988,0 0.60027,0.21717 0.57254,0.8857 -0.0203,0.48714 0.0762,1.5017 0.21414,2.25457 0.24941,1.36065 -0.11374,1.8665 -0.69364,0.96625 z m 28.83081,0.18929 c -0.22037,-0.0894 -0.40069,-0.45638 -0.40069,-0.81564 0,-0.56249 0.14465,-0.62589 1.04209,-0.45672 0.6808,0.12833 1.62661,-0.0267 2.72813,-0.44728 2.02911,-0.77467 3.28194,-0.83599 3.28194,-0.16059 0,0.32443 -0.32293,0.48312 -0.98305,0.48312 -0.5547,0 -1.44086,0.35085 -2.03373,0.80521 -0.99349,0.76139 -2.57956,1.01968 -3.63469,0.5919 z m 9.75014,-2.57807 c -0.92911,-0.93353 0.69803,-2.91037 3.94394,-4.79153 1.35978,-0.78804 2.7365,-1.72615 3.0594,-2.08465 0.5704,-0.63326 0.56707,-0.68765 -0.11678,-1.91019 -0.82536,-1.47554 -0.41163,-2.03248 0.5743,-0.7731 0.91955,1.17463 1.10793,2.12933 0.67822,3.43758 -0.49279,1.50028 -1.32185,2.17655 -3.07073,2.50483 -2.51938,0.47292 -3.54104,1.13183 -3.96633,2.55804 -0.36737,1.23208 -0.65485,1.50833 -1.10202,1.05902 z m 21.79756,-1.28832 c -0.11753,-0.11809 -0.21369,-0.54072 -0.21369,-0.93917 0,-0.46041 -0.46732,-1.09636 -1.2822,-1.74483 -1.40215,-1.11581 -1.61052,-1.6104 -0.67842,-1.6104 0.94159,0 2.92227,2.40195 2.92227,3.54381 0,0.92263 -0.28854,1.21219 -0.74796,0.75059 z m -3.98356,-4.79196 c -0.536,-0.37722 -1.09462,-0.45138 -2.17431,-0.28871 -1.9144,0.28846 -4.02675,-0.32711 -5.14424,-1.49908 -0.98818,-1.03635 -0.80744,-1.63809 0.28436,-0.94665 1.86053,1.17827 2.37641,1.321 4.46965,1.23653 1.84519,-0.0745 2.25976,0.0128 2.84269,0.59852 0.90407,0.90838 0.69503,1.58428 -0.27815,0.89939 z m -7.87707,-4.95468 c -3.32656,-0.19435 -4.06013,-0.56398 -4.06013,-2.0458 0,-0.55793 0.0823,-0.54164 0.94406,0.18694 0.84371,0.71331 1.15888,0.78158 2.96511,0.64217 2.20917,-0.17052 3.78409,0.2559 3.78409,1.02455 0,0.27011 -0.10818,0.46527 -0.24042,0.4337 -0.13224,-0.0315 -1.65896,-0.14027 -3.39271,-0.24156 z m -80.6722,40.69622 c 6.13369,-2.86231 10.01165,-13.5395 8.96954,-24.69585 -1.06554,-11.40706 -4.67249,-20.14969 -10.89515,-26.40805 -3.22664,-3.24514 -5.78088,-4.52892 -9.3531,-4.70092 -2.1131,-0.10173 -2.71728,-0.002 -4.24734,0.70193 -1.57249,0.72334 -2.34129,1.50034 -1.48453,1.50034 0.64443,0 5.78629,5.26276 7.30783,7.47963 9.09068,13.24503 10.68161,33.52454 3.51332,44.78378 -1.33275,2.09339 -1.35292,2.07372 2.18254,2.12764 1.78083,0.0271 2.60767,-0.13555 4.00689,-0.7885 z m -3.08969,-0.62061 c -0.11908,-0.31178 0.38446,-0.99743 1.41862,-1.93166 5.63237,-5.08813 7.11011,-14.74146 4.36351,-28.50467 -1.62165,-8.12618 -3.99627,-13.70265 -7.42253,-17.43086 -2.2041,-2.3983 -3.95409,-3.56935 -6.71221,-4.49155 -1.54629,-0.51703 -2.02863,-0.81905 -1.94673,-1.21891 0.23745,-1.15916 4.2009,0.1501 7.10618,2.3474 4.90108,3.70675 8.32086,10.42599 10.25532,20.14978 2.14727,10.79351 1.80869,19.50869 -0.98486,25.34991 -0.87617,1.83203 -4.77502,6.21394 -5.52892,6.21394 -0.20007,0 -0.44685,-0.21752 -0.54838,-0.48338 z m -51.08368,-18.31887 c 0,-0.59832 -0.21637,-1.26827 -0.48084,-1.48882 -0.40946,-0.34143 -0.48082,-0.25562 -0.48082,0.57839 0,0.53863 0.0877,1.2086 0.19458,1.4888 0.33614,0.88017 0.76708,0.55526 0.76708,-0.57837 z m 16.26647,-2.76034 c 7.09538,-1.75868 13.04562,-3.28763 13.2228,-3.39765 0.4483,-0.2784 0.4027,-1.5428 -0.0786,-2.17875 -0.36599,-0.4836 -1.067,-0.36603 -8.09396,1.35736 -4.23129,1.03775 -10.57821,2.56977 -14.10429,3.40447 -3.52607,0.83471 -6.4476,1.54941 -6.49224,1.58823 -0.0446,0.0388 0.009,0.72671 0.11773,1.52869 l 0.19892,1.45817 1.16448,-0.28145 c 0.64046,-0.15479 6.96978,-1.72038 14.06513,-3.47907 z m 159.54916,2.10677 c 0.941,-1.00249 1.04675,-1.32927 1.22486,-3.78443 0.12265,-1.69037 0.51863,-3.5833 1.0675,-5.10282 0.74173,-2.05349 0.86887,-2.89842 0.84807,-5.6364 -0.0135,-1.77144 -0.2551,-4.50797 -0.53694,-6.08119 -0.28185,-1.57321 -0.51468,-3.67479 -0.51737,-4.67017 -0.003,-1.15673 -0.10588,-1.64961 -0.28471,-1.36589 -0.53439,0.84769 -0.9926,-0.01 -0.9926,-1.85605 0,-1.7577 0.0966,-1.98524 1.79984,-4.24428 2.25291,-2.98792 2.46376,-3.55525 2.19287,-5.9004 l -0.21899,-1.89594 -0.6098,0.9677 c -0.36548,0.57997 -1.16941,1.18242 -2.00652,1.50363 -1.38995,0.53337 -1.39598,0.54259 -1.2433,1.90345 0.17325,1.54449 -0.58424,3.76369 -1.28469,3.76369 -0.36072,0 -0.3808,-0.29847 -0.10962,-1.62868 0.23249,-1.14029 0.22974,-1.79221 -0.01,-2.17404 -0.55867,-0.8929 -3.28141,-1.75672 -4.86446,-1.54333 -1.15611,0.15587 -1.36821,0.10181 -1.28221,-0.32666 0.0567,-0.28238 0.82431,-0.78736 1.70584,-1.1222 1.7661,-0.6708 2.40414,-1.31995 2.40414,-2.44594 0,-0.91098 -0.32098,-0.93025 -1.67514,-0.10068 -0.68032,0.41676 -1.61652,0.64337 -2.66113,0.64415 -0.93799,6.5e-4 -1.90935,0.21076 -2.324,0.50259 -0.63453,0.44654 -0.71243,0.78112 -0.71243,3.05977 0,2.46055 -0.10993,2.73808 -1.03002,2.60046 -0.12575,-0.0188 -0.11064,0.29015 0.0335,0.68654 0.27384,0.75281 0.63272,0.98483 3.60465,2.33046 2.05489,0.93041 2.84698,2.16291 2.33157,3.62793 -0.47395,1.34717 -1.08859,1.27175 -1.12506,-0.13806 -0.0536,-2.07328 -0.53916,-0.003 -0.579,2.46929 -0.044,2.73281 -0.49126,4.26596 -1.82467,6.25539 -1.55814,2.32473 -1.49489,3.58289 0.24415,4.85637 1.41938,1.03943 2.35096,2.73959 2.69883,4.92541 0.33565,2.10905 -0.3496,1.67089 -1.63138,-1.04309 -1.14348,-2.42112 -1.78795,-3.0841 -4.16511,-4.28479 -1.85254,-0.93567 -3.56894,-1.13259 -6.10363,-0.70026 -1.2269,0.20927 -2.51473,0.39806 -2.86184,0.41954 -0.88127,0.0546 -1.03899,-1.0244 -0.19557,-1.33788 0.64008,-0.23792 0.62256,-0.30857 -0.49909,-2.01147 -1.68475,-2.55782 -2.89092,-3.73237 -4.56655,-4.44679 -1.44796,-0.61736 -4.2051,-1.22624 -4.2051,-0.92863 0,0.0825 0.22851,0.69954 0.50781,1.37119 0.27931,0.67165 0.4407,1.57402 0.35865,2.00525 -0.11891,0.625 0.0683,0.91299 0.92247,1.41938 1.27117,0.75359 3.98102,4.36708 4.73171,6.30959 0.29234,0.75645 0.53152,1.95218 0.53152,2.65716 0,0.86716 0.14128,1.28181 0.43673,1.28181 0.24022,0 0.99754,0.45426 1.68292,1.00949 2.29134,1.8562 5.44441,3.12861 8.79934,3.55094 1.68602,0.21224 3.31165,0.29097 3.61252,0.17497 0.30088,-0.11601 0.84697,-0.72166 1.21353,-1.34588 0.36655,-0.62423 0.79647,-1.13495 0.95534,-1.13495 0.56607,0 0.27601,1.25428 -0.506,2.18806 -1.24189,1.48293 -2.33761,1.78285 -5.86515,1.60535 -3.7452,-0.18845 -5.1784,-0.77951 -8.13161,-3.35353 l -2.03735,-1.77573 -0.10201,1.38272 c -0.0687,0.93268 0.13113,1.88284 0.61431,2.91934 0.70303,1.50816 0.76424,1.55101 3.30752,2.31466 6.96128,2.09021 9.6462,2.5644 12.80554,2.26149 2.53739,-0.24325 3.51476,-0.63599 4.66712,-1.87536 0.96865,-1.04181 1.30647,-1.05576 1.30647,-0.054 0,0.45033 -0.33979,1.05038 -0.80138,1.4152 -0.86661,0.68494 -1.01176,1.02379 -0.43853,1.02379 0.19954,0 0.8263,-0.49376 1.39275,-1.09726 z m -3.90925,-11.35183 c 0.9363,-4.98693 0.95842,-5.2529 0.57712,-6.94268 -0.71344,-3.16172 -0.74882,-3.47596 -0.39141,-3.47596 1.26379,0 2.18823,7.10685 1.27725,9.81906 -0.53402,1.58989 -1.74181,2.0849 -1.46296,0.59958 z m 2.15681,-15.56597 c -0.19845,-0.37256 -0.31639,-1.21475 -0.26212,-1.87154 0.0868,-1.04923 0.21101,-1.20705 1.0243,-1.30036 0.79617,-0.0913 0.88831,-0.0239 0.65883,0.48312 -0.14672,0.32412 -0.27818,1.15813 -0.29209,1.85334 -0.0287,1.43125 -0.59023,1.84681 -1.12892,0.83544 z m -62.25032,24.62191 c 1.4198,-1.53852 1.25346,-2.17896 -0.63649,-2.45058 -0.81971,-0.11781 -1.81326,-0.31718 -2.20791,-0.44303 -0.6793,-0.21663 -0.70663,-0.16247 -0.51287,1.01597 0.11254,0.68462 0.20624,1.77817 0.20818,2.4301 0.003,1.18237 0.007,1.18457 1.04532,0.8918 0.57298,-0.16142 1.51968,-0.81135 2.10377,-1.44426 z m -19.78708,-3.08223 c -0.16892,-0.4243 -0.31626,-0.60212 -0.32745,-0.39518 -0.0272,0.50263 0.34628,1.45628 0.507,1.2948 0.0702,-0.0705 -0.0106,-0.47533 -0.17955,-0.89962 z m -0.22955,-5.54896 c 0.48225,-1.93058 3.68732,-4.59549 7.05082,-5.86252 l 1.55934,-0.58742 -1.35681,-0.40254 -1.35681,-0.40252 -1.75958,1.90959 c -1.04175,1.13062 -2.39938,2.20454 -3.32793,2.63255 -1.51905,0.70019 -1.56834,0.76601 -1.56834,2.09366 0,1.47579 0.45306,1.84524 0.75931,0.6192 z m -12.33602,-3.91866 c -0.50179,-1.60474 -0.4167,-1.50148 -1.03924,-1.26142 -0.313,0.12067 -0.52672,0.56471 -0.52672,1.09434 0,1.03768 0.79268,3.43774 1.36666,4.13795 0.32826,0.40048 0.41407,0.2115 0.49927,-1.09948 0.0565,-0.87068 -0.0783,-2.16281 -0.29997,-2.87139 z m -4.93175,-1.64707 c 5.46541,-1.35385 10.03639,-2.55165 10.15771,-2.66179 0.12133,-0.11015 -0.17938,-0.69091 -0.66828,-1.29063 l -0.88886,-1.09038 -8.923,2.17832 c -12.36573,3.01875 -11.13998,2.58977 -10.88011,3.80781 0.27353,1.28204 0.40532,1.50778 0.88362,1.51357 0.20999,0.003 4.8535,-1.10306 10.31892,-2.4569 z m 89.59443,-1.22693 c 0,-0.25213 0.3598,-0.88803 0.79954,-1.41313 0.43973,-0.5251 1.23311,-1.7829 1.76304,-2.7951 0.89791,-1.71512 0.96349,-2.07646 0.96349,-5.30869 l 0,-3.46832 -1.41976,-0.39941 c -1.86665,-0.52512 -2.71668,-1.49346 -3.34933,-3.81559 l -0.52003,-1.90862 -13.86847,3.42255 -13.86847,3.42256 2.48886,0.17857 c 2.70546,0.19411 3.93524,0.69801 5.79368,2.37402 1.01193,0.9126 1.50725,1.10024 3.42677,1.29808 4.10664,0.42325 6.79355,2.16896 9.46821,6.15152 l 1.59357,2.37285 2.80348,0.10732 c 1.54191,0.059 3.05592,0.13714 3.36445,0.17356 0.30852,0.0364 0.56097,-0.14005 0.56097,-0.39217 z m -59.97339,-3.4444 c 0.96505,-1.12592 1.21889,-1.58929 0.80139,-1.46285 -0.33608,0.10178 -1.90928,0.50115 -3.49603,0.88749 -3.16625,0.77089 -3.54406,0.9702 -3.25815,1.71885 0.14882,0.38965 0.6885,0.50473 2.36658,0.5046 l 2.17378,-1.7e-4 1.41243,-1.64792 z m -14.71536,0.006 c 0.96968,-0.41519 1.80263,-0.77454 1.85105,-0.79857 0.0484,-0.024 -0.49255,-0.62697 -1.20208,-1.33988 -1.13201,-1.13742 -1.29007,-1.47752 -1.29007,-2.77605 0,-1.22307 -0.13904,-1.57137 -0.80139,-2.00741 -0.87141,-0.57371 -1.07708,-1.41976 -0.34514,-1.41976 0.25094,0 0.87019,0.35 1.37616,0.77777 0.50596,0.42776 1.74314,0.99374 2.74928,1.25773 l 1.82937,0.48 0,-1.21831 c 0,-0.67007 -0.1803,-1.36189 -0.40068,-1.53739 -0.59791,-0.47613 -4.60511,-1.14897 -5.49954,-0.92341 -0.42812,0.10797 -1.09275,0.70732 -1.47694,1.33194 -0.8125,1.32087 -1.83195,1.91698 -3.84218,2.2466 -0.79336,0.13009 -1.67974,0.36158 -1.96971,0.51441 -0.64909,0.34209 -1.2358,1.95595 -1.2358,3.39931 0,1.14524 0.43323,1.33128 1.76304,0.75713 0.61174,-0.26413 0.60805,-0.27786 -0.0802,-0.29944 -0.50386,-0.0158 -0.72125,-0.21984 -0.72125,-0.67692 0,-1.67744 2.48417,-0.79758 4.51809,1.60026 1.59542,1.8809 1.79838,1.90774 4.77793,0.63199 z m -1.844,-1.33641 c -0.17586,-0.22143 -0.56371,-0.88507 -0.86191,-1.47473 -0.3259,-0.64448 -0.98122,-1.25647 -1.64285,-1.53421 -1.11333,-0.4674 -1.51839,-1.41967 -0.60389,-1.41967 1.01256,0 2.34128,0.98668 3.31224,2.45952 0.54962,0.83374 0.99931,1.70843 0.99931,1.94378 0,0.54099 -0.78032,0.5574 -1.2029,0.0252 z m 130.78648,-0.17285 c 3.07434,-1.36642 6.0833,-5.39033 7.78943,-10.41687 2.3559,-6.94092 2.34945,-16.73421 -0.0164,-24.90164 -2.46147,-8.4975 -7.11039,-15.2481 -12.2457,-17.78176 -1.62471,-0.80157 -2.22129,-0.91689 -4.74341,-0.91689 -2.44022,0 -3.12533,0.12334 -4.44396,0.8 -3.3726,1.73071 -6.78547,7.06999 -8.23832,12.8884 -0.72227,2.89261 -1.28693,12.23181 -0.74046,12.24669 0.15405,0.004 3.35904,-0.75672 7.12222,-1.69093 l 6.84212,-1.69854 0.7694,0.96625 c 0.97294,1.22183 1.10165,3.83318 0.21162,4.2934 -0.30854,0.15954 -3.6927,1.0446 -7.5204,1.9668 l -6.95942,1.67673 0.19278,1.02378 c 1.51501,8.04589 6.3364,16.7017 11.16374,20.04226 3.56407,2.46638 7.43734,3.00432 10.81678,1.50232 z m -3.45607,-1.05109 c -0.11441,-0.18601 0.71658,-1.18951 1.84669,-2.22996 2.37031,-2.18232 3.72173,-4.5018 4.79677,-8.23282 0.67195,-2.33209 0.7381,-3.19492 0.72747,-9.49006 -0.01,-5.80808 -0.12876,-7.54797 -0.73771,-10.7897 -2.07971,-11.07143 -6.03462,-17.36933 -12.34821,-19.6636 -1.25449,-0.45584 -2.00924,-0.92097 -2.08109,-1.28246 -0.0963,-0.48435 0.0575,-0.53943 1.0531,-0.37709 0.64123,0.10454 1.98012,0.56465 2.97534,1.02243 7.15811,3.29272 11.38434,12.49415 12.59755,27.42757 0.59905,7.37378 -0.34424,13.91334 -2.62792,18.21839 -1.02803,1.93794 -4.6725,5.73552 -5.5043,5.73552 -0.26933,0 -0.58327,-0.1522 -0.69769,-0.33822 z m -104.00939,-2.34469 c 3.05588,-1.27402 6.82016,-2.1425 9.36265,-2.16011 1.07738,-0.008 9.41354,-1.92157 22.84421,-5.24544 l 21.1478,-5.2337 0.29941,-1.04897 c 0.20163,-0.70636 0.18623,-1.16269 -0.0472,-1.39715 -0.24834,-0.24952 -9.32327,1.85948 -32.02546,7.44265 -17.42339,4.28495 -32.18511,7.92253 -32.80382,8.08349 -1.09646,0.28527 -1.12209,0.32842 -1.01298,1.70691 l 0.11195,1.41425 4.69934,-1.21297 c 2.58462,-0.66713 5.92543,-1.72416 7.42402,-2.34896 z m 119.40583,0.0269 c 2.55915,-1.30713 4.49316,-3.52453 6.25161,-7.16759 2.49511,-5.16926 3.03884,-7.8664 3.01913,-14.97672 -0.0178,-6.46185 -0.51647,-9.77927 -2.25596,-15.01027 -2.37275,-7.13536 -6.85228,-13.27303 -11.42951,-15.66026 -1.81365,-0.94589 -2.26095,-1.04176 -4.88805,-1.04778 -2.46902,-0.006 -3.12142,0.11202 -4.46314,0.80499 -0.86428,0.44639 -1.61948,0.95644 -1.6782,1.13345 -0.0587,0.17701 0.42463,0.60895 1.07412,0.95984 1.92359,1.03921 5.3412,4.62195 7.30969,7.66284 3.16277,4.88582 5.06056,10.10998 6.10592,16.80825 0.81834,5.24342 0.53083,13.69666 -0.60468,17.77956 -0.86354,3.10499 -2.11779,6.05337 -3.58908,8.43688 l -0.8737,1.41541 2.20955,-0.15998 c 1.48332,-0.10738 2.73631,-0.42903 3.8123,-0.97862 z m -3.04525,-0.42089 c 0,-0.27507 0.8668,-1.30647 1.92624,-2.29199 4.52789,-4.21202 6.42666,-11.85325 5.46873,-22.00809 -0.68789,-7.29232 -2.2804,-13.67096 -4.46236,-17.87362 -2.15477,-4.15032 -6.28589,-7.74535 -9.68533,-8.42848 -1.07871,-0.21676 -1.60222,-0.98591 -0.94768,-1.39237 1.09101,-0.67749 5.58259,1.54573 7.99576,3.95774 4.44876,4.44659 7.02753,11.20142 8.22324,21.54011 1.44161,12.46454 -0.66356,21.15919 -6.26075,25.85779 -1.45207,1.21894 -2.25785,1.44696 -2.25785,0.63891 z m -127.31298,-0.60659 c 1.64538,-0.42444 3.03389,-0.82011 3.08557,-0.87927 0.0517,-0.0591 0.62847,-1.33951 1.28177,-2.84524 0.6533,-1.50572 1.47852,-3.21224 1.83381,-3.79224 0.76181,-1.24368 2.2796,-2.12125 3.17495,-1.83574 0.5758,0.18363 0.53709,0.26932 -0.41184,0.91185 -0.57603,0.39005 -1.37515,1.28464 -1.7758,1.98797 -0.76095,1.33584 -1.84539,4.6073 -1.60672,4.84712 0.076,0.0762 2.62033,-0.46352 5.65422,-1.19954 l 5.51619,-1.33822 -0.21378,-0.99839 c -0.32165,-1.50217 -0.92568,-2.52636 -2.27886,-3.86401 -2.59153,-2.5618 -6.57501,-3.84898 -11.3949,-3.68201 -4.86504,0.16852 -6.93566,1.45182 -9.16971,5.68306 -1.03154,1.95373 -1.14137,2.95807 -0.32346,2.95807 0.84916,0 1.87386,1.39201 1.87881,2.55227 0.006,1.36996 0.25572,1.82706 1.11701,2.04327 0.35262,0.0886 0.6411,0.17485 0.6411,0.19185 0,0.0169 1.34625,-0.31635 2.99164,-0.7408 z m 29.06362,-1.03061 c 0.70521,-0.45588 1.06585,-0.7597 0.80138,-0.67517 -0.26444,0.0845 -1.31572,0.3414 -2.33613,0.57082 -1.19527,0.26873 -1.70844,0.51075 -1.44247,0.68029 0.72004,0.45903 1.65641,0.27788 2.97722,-0.57594 z m 35.42106,-8.16928 c 0,-0.53142 -0.11927,-0.96624 -0.26503,-0.96624 -0.14577,0 -0.20152,0.43482 -0.12391,0.96624 0.0777,0.53143 0.1969,0.96624 0.26505,0.96624 0.0683,0 0.12389,-0.43481 0.12389,-0.96624 z m 12.29578,-2.77193 c 2.6809,-0.91782 3.77135,-3.56472 2.61456,-6.34647 -0.51093,-1.22869 -1.56873,-2.1544 -2.46179,-2.1544 -0.30329,0 -1.57233,0.3802 -2.82008,0.84492 -1.80765,0.67321 -2.1966,0.93214 -1.91406,1.2742 0.19503,0.2361 0.26155,0.58059 0.1478,0.76549 -0.38076,0.61902 -1.32274,0.34516 -2.27271,-0.66075 -0.86618,-0.9172 -1.06573,-0.98251 -2.49505,-0.81669 -2.237,0.25952 -3.55124,1.11511 -3.67572,2.39292 -0.0818,0.84059 0.0145,1.0311 0.52173,1.0311 0.34217,0 0.79921,0.21435 1.0156,0.47634 0.25956,0.31426 0.57292,0.38374 0.92078,0.20422 0.29002,-0.14967 1.30716,-0.37205 2.26033,-0.49413 0.95316,-0.12209 2.13606,-0.43137 2.62864,-0.68732 1.25561,-0.6524 2.44313,-0.58647 2.83948,0.15764 0.52436,0.98443 0.38864,2.4384 -0.31105,3.33214 -0.47034,0.6008 -0.53487,0.86497 -0.24041,0.98426 0.75453,0.30568 1.72917,0.21445 3.24195,-0.30347 z m -0.22652,-2.53389 c 0.14667,-1.07524 0.0562,-1.65606 -0.35653,-2.289 -0.73735,-1.13071 -0.17302,-1.81491 0.78125,-0.94718 1.02002,0.9275 0.87502,4.67703 -0.18087,4.67703 -0.33716,0 -0.39433,-0.33776 -0.24385,-1.44085 z m 20.06668,-5.11442 c 12.81362,-3.18159 13.22514,-3.30773 13.31597,-4.08111 0.0515,-0.43892 -0.0927,-1.03256 -0.32054,-1.31916 -0.37571,-0.47261 -1.70526,-0.20262 -14.2767,2.89902 l -13.86242,3.42012 -0.002,1.39442 c -0.002,1.38223 0.008,1.39259 0.9607,1.18211 0.52922,-0.11678 6.91222,-1.68973 14.18446,-3.4954 z m 60.58389,-15.05255 c 1.26455,-0.33502 1.53429,-1.00056 0.8933,-2.20397 -0.28906,-0.5427 -0.85643,-0.4463 -8.89533,1.51127 -4.72262,1.15001 -8.63696,2.1353 -8.69853,2.18955 -0.0616,0.0543 -0.016,0.66876 0.10107,1.36562 l 0.21306,1.26704 7.59218,-1.90553 c 4.17569,-1.04804 8.13309,-2.04883 8.79425,-2.22398 z"
       id="path5713"
       inkscape:connector-curvature="0" />
  </g>
</svg>
