<?xml version="1.0" encoding="UTF-8" standalone="no"?>
<!-- Created with Inkscape (http://www.inkscape.org/) -->

<svg
   xmlns:dc="http://purl.org/dc/elements/1.1/"
   xmlns:cc="http://creativecommons.org/ns#"
   xmlns:rdf="http://www.w3.org/1999/02/22-rdf-syntax-ns#"
   xmlns:svg="http://www.w3.org/2000/svg"
   xmlns="http://www.w3.org/2000/svg"
   xmlns:xlink="http://www.w3.org/1999/xlink"
   xmlns:sodipodi="http://sodipodi.sourceforge.net/DTD/sodipodi-0.dtd"
   xmlns:inkscape="http://www.inkscape.org/namespaces/inkscape"
   width="190.51665"
   height="165.85437"
   id="svg2"
   version="1.1"
   inkscape:version="0.48.3.1 r9886"
   sodipodi:docname="Bent-knee-hip-raise-2.svg"
   inkscape:export-filename="/home/christian/Dokumente/Code/workspace/opentraining-exercises/Back-extension-on-stability-ball-2.png"
   inkscape:export-xdpi="214"
   inkscape:export-ydpi="214">
  <defs
     id="defs4">
    <radialGradient
       gradientUnits="userSpaceOnUse"
       gradientTransform="matrix(1,0,0,0.91819829,-19.285714,-7.9105395)"
       r="209.56604"
       fy="287.50052"
       fx="398.1105"
       cy="287.50052"
       cx="398.1105"
       id="radialGradient5255"
       xlink:href="#linearGradient5249"
       inkscape:collect="always" />
    <linearGradient
       id="linearGradient5249"
       inkscape:collect="always">
      <stop
         id="stop5251"
         offset="0"
         style="stop-color:#e3e3e3;stop-opacity:1;" />
      <stop
         id="stop5253"
         offset="1"
         style="stop-color:#e3e3e3;stop-opacity:0;" />
    </linearGradient>
  </defs>
  <sodipodi:namedview
     id="base"
     pagecolor="#ffffff"
     bordercolor="#666666"
     borderopacity="1.0"
     inkscape:pageopacity="0.0"
     inkscape:pageshadow="2"
     inkscape:zoom="2.8"
     inkscape:cx="89.331162"
     inkscape:cy="46.336161"
     inkscape:document-units="px"
     inkscape:current-layer="layer1"
     showgrid="false"
     showguides="true"
     inkscape:guide-bbox="true"
     fit-margin-top="0"
     fit-margin-left="0"
     fit-margin-right="0"
     fit-margin-bottom="0"
     inkscape:window-width="830"
     inkscape:window-height="935"
     inkscape:window-x="348"
     inkscape:window-y="117"
     inkscape:window-maximized="0">
    <sodipodi:guide
       orientation="-0.70710678,0.70710678"
       position="-1766.3536,560.63477"
       id="guide2985" />
  </sodipodi:namedview>
  <metadata
     id="metadata7">
    <rdf:RDF>
      <cc:Work
         rdf:about="">
        <dc:format>image/svg+xml</dc:format>
        <dc:type
           rdf:resource="http://purl.org/dc/dcmitype/StillImage" />
        <dc:title />
      </cc:Work>
    </rdf:RDF>
  </metadata>
  <g
     inkscape:label="Ebene 1"
     inkscape:groupmode="layer"
     id="layer1"
     transform="translate(-337.78215,-421.42828)">
    <path
       style="fill:#000000"
       d="m 409.25359,586.07683 c -1.91673,-0.68322 -3.90894,-1.66619 -4.42714,-2.18439 -1.82989,-1.82989 0.9422,-5.20673 7.10218,-8.6516 l 6.08119,-3.40079 -2.4108,-1.92231 c -3.69296,-2.94466 -3.07603,-4.66081 0.81173,-2.25804 3.21787,1.98874 3.23041,1.98925 8.65533,0.34672 2.98804,-0.9047 7.10231,-2.74278 9.14286,-4.08459 2.04055,-1.34181 5.53116,-2.91112 7.75694,-3.48731 2.22576,-0.5762 6.77847,-2.32116 10.11713,-3.87768 l 6.07029,-2.83006 0,-3.79525 c 0,-5.03236 -1.2724,-5.60679 -2.60047,-1.17405 -0.58792,1.96227 -1.45737,3.56776 -1.93213,3.56776 -1.07614,0 -1.0738,-0.22832 0.0322,-3.13727 0.87343,-2.29734 0.8465,-2.3208 -1.09942,-0.95784 -3.53315,2.47472 -3.68924,1.49323 -0.35028,-2.20258 4.79583,-5.30842 4.36834,-6.97451 -2.84484,-11.08757 -5.45531,-3.11068 -14.29685,-7.15469 -18.40892,-8.42 -1.30217,-0.40068 -1.57378,0.0889 -1.57378,2.83737 0,2.46039 -0.67111,3.99273 -2.58838,5.91 -1.4236,1.42359 -2.79598,2.38074 -3.04973,2.12698 -0.8033,-0.80328 0.36765,-3.81008 1.67987,-4.31364 0.78356,-0.30068 1.26034,-1.81381 1.26034,-3.99995 0,-3.05916 -0.35077,-3.66163 -2.6979,-4.63384 -1.48386,-0.61462 -2.70255,-1.37193 -2.70822,-1.68288 -0.0101,-0.55191 -5.11124,-3.03905 -8.36522,-4.07857 -2.42474,-0.77459 -0.8654,-2.42876 1.68589,-1.78842 1.77603,0.44575 2.19313,0.20903 2.19313,-1.24473 0,-2.37589 5.45531,-10.21562 10.41625,-14.96904 4.83718,-4.63482 5.03472,-6.73089 0.84692,-8.98618 -4.43059,-2.38602 -5.64626,-3.99193 -8.67363,-11.45803 -1.47249,-3.63147 -3.89066,-8.12025 -5.37368,-9.97505 -3.56706,-4.4613 -1.45231,-4.33712 2.83167,0.16627 2.01556,2.1188 3.97005,5.45653 4.87113,8.31854 2.31268,7.34563 3.2637,8.80286 7.28165,11.15754 2.04758,1.19996 4.4521,2.98753 5.34333,3.97234 1.45969,1.61292 1.4728,1.79056 0.13212,1.79056 -0.81859,0 -1.48833,0.55845 -1.48833,1.241 0,0.68255 -2.748,4.08325 -6.10667,7.55713 -6.45108,6.67233 -10.3809,12.77335 -8.62901,13.39649 0.55114,0.19604 2.97925,1.63595 5.39579,3.19979 2.41655,1.56384 4.66075,2.77465 4.98712,2.69068 1.22682,-0.31566 18.38468,6.15571 20.54019,7.74709 1.23654,0.9129 3.56349,2.33995 5.17098,3.17121 1.60751,0.83126 2.92273,2.108 2.92273,2.83722 0,0.90116 0.95319,1.32586 2.97567,1.32586 1.63662,0 3.76122,0.59416 4.72134,1.32035 1.67534,1.26716 1.64839,1.3215 -0.66887,1.34897 -1.32801,0.0157 -3.45261,-0.36608 -4.72133,-0.84845 -1.49884,-0.56986 -2.30681,-0.56986 -2.30681,0 0,0.48237 0.39895,0.87703 0.88655,0.87703 1.46415,0 5.50167,6.80468 4.92664,8.3032 -0.83603,2.17861 10.87909,1.03426 14.34682,-1.40145 1.44299,-1.01355 6.36473,-3.12871 10.93718,-4.70038 6.57857,-2.2612 8.92101,-3.5494 11.22423,-6.17262 3.05232,-3.47641 7.42074,-6.24002 8.36728,-5.29347 0.77096,0.77096 -1.18587,2.96962 -2.64298,2.96962 -0.65761,0 -2.44622,1.81766 -3.97471,4.03925 -1.74146,2.53114 -3.68828,4.24364 -5.21418,4.58668 -7.3524,1.65291 -10.02343,2.55785 -13.82251,4.68309 -3.69485,2.06691 -4.01535,2.47738 -2.69791,3.45509 1.22249,0.90722 0.10134,1.08641 -6.14898,0.98284 -5.42799,-0.0899 -8.55657,0.30116 -10.79162,1.34901 -5.00981,2.34877 -13.52819,5.71856 -18.78259,7.43024 -2.66389,0.86779 -6.5084,2.66376 -8.54337,3.99106 -2.03496,1.3273 -6.12805,3.14332 -9.09574,4.03562 -2.96769,0.89227 -6.11574,2.38167 -6.99566,3.30975 -0.87994,0.92808 -2.90336,2.36145 -4.49651,3.1853 -3.8698,2.00111 -7.84281,4.98226 -7.84281,5.88485 0,0.40161 0.80936,0.73019 1.7986,0.73019 0.98924,0 1.7986,0.40468 1.7986,0.89929 0,1.36223 6.85733,1.07693 12.51119,-0.52051 2.76385,-0.78091 7.10692,-2.00211 9.65124,-2.71382 3.61654,-1.01164 5.35065,-2.17828 7.94661,-5.34631 3.2248,-3.93546 8.85845,-7.60677 11.67264,-7.60677 2.31637,0 1.55307,1.33075 -1.53795,2.68132 l -2.92273,1.27703 4.64518,0.31343 c 4.98934,0.33666 14.55387,-1.75341 17.8214,-3.89437 1.10181,-0.72194 7.48984,-2.10669 14.19559,-3.07721 16.15505,-2.33813 24.72081,-5.2209 26.74356,-9.00044 0.52669,-0.98411 1.58152,-1.78929 2.34409,-1.78929 0.76257,0 2.56941,-1.18291 4.01521,-2.62873 2.14787,-2.14786 2.62873,-3.38983 2.62873,-6.78942 0,-6.02702 -1.87371,-8.94665 -7.42788,-11.57421 -2.61704,-1.23805 -5.55738,-3.14804 -6.53408,-4.24444 -0.9767,-1.09638 -4.59719,-3.35332 -8.04555,-5.01539 -3.44835,-1.66209 -5.55871,-3.02195 -4.68968,-3.02195 2.38864,0 6.01327,-2.69961 6.01327,-4.47867 0,-2.15073 3.37471,-6.27287 5.9312,-7.24486 1.42279,-0.54094 4.08279,-0.27642 8.26688,0.82207 11.4304,3.00097 14.57955,6.41104 14.57955,15.78758 0,5.89543 -1.75958,10.73584 -4.42037,12.15985 -1.50168,0.80368 -1.87474,1.86511 -1.87474,5.33401 0,6.41238 -1.49388,9.77976 -5.27024,11.87969 -1.80021,1.00106 -5.49889,3.22707 -8.21927,4.94671 -5.7627,3.64279 -11.30212,5.40642 -20.68394,6.58536 -8.92315,1.12129 -15.27684,2.54093 -16.71533,3.73479 -1.9683,1.63354 -10.41606,3.50744 -16.10916,3.57339 -8.6364,0.10004 -12.05793,1.00896 -13.31472,3.53703 -1.25283,2.52002 -7.30702,6.27699 -10.15116,6.29934 -1.03545,0.009 -4.23511,0.82418 -7.11037,1.81339 -6.06341,2.08613 -10.28981,2.21909 -15.17591,0.47745 z m 51.78944,-36.4495 c -0.21779,-1.48383 -0.55238,-2.6979 -0.74354,-2.6979 -0.19118,0 -0.34759,1.21407 -0.34759,2.6979 0,1.48386 0.33459,2.69791 0.74354,2.69791 0.40895,0 0.56538,-1.21405 0.34759,-2.69791 z m 63.68082,-15.79632 c 0.48238,-1.26872 0.87706,-5.13163 0.87706,-8.58423 0,-8.99188 -2.06408,-10.74663 -15.61971,-13.27911 -4.75295,-0.88794 -7.76215,0.54802 -7.76215,3.70408 0,1.05296 -0.87394,2.84474 -1.94211,3.98178 l -1.94215,2.06729 3.44531,1.43956 c 1.8949,0.79174 5.29816,2.99502 7.56275,4.89615 2.26462,1.90115 5.20059,3.7242 6.52438,4.05124 1.3238,0.32703 3.10642,1.36758 3.9614,2.31233 2.13464,2.35874 3.85309,2.15194 4.89522,-0.58909 z m -104.88817,32.4437 c -1.43033,-0.60697 -4.67836,-2.75225 -7.21788,-4.76728 l -4.61726,-3.66369 -3.8126,1.88632 c -2.09692,1.03747 -5.97105,1.98707 -8.60917,2.1102 -2.63814,0.12314 -5.25645,0.50809 -5.81845,0.85543 -0.56204,0.34734 -2.97454,0.66101 -5.36111,0.69701 -4.26619,0.0644 -7.23266,-1.31189 -7.13183,-3.30869 0.10233,-2.02569 12.00045,-10.25802 17.03552,-11.78692 1.23655,-0.37546 3.87401,-1.41104 5.86104,-2.30127 3.45967,-1.55 3.72144,-1.96715 6.17627,-9.84212 1.40991,-4.52294 3.5275,-9.36919 4.70576,-10.76946 1.17824,-1.40025 2.16966,-3.29689 2.20312,-4.21471 0.0519,-1.42395 0.20495,-1.36989 1.04296,0.3686 0.80039,1.66046 0.65202,2.40913 -0.8021,4.04686 -2.76598,3.1152 -7.67001,19.05345 -6.9854,22.70273 0.81421,4.34009 5.65035,9.51376 12.94288,13.84618 3.48206,2.06864 6.33102,3.89827 6.33102,4.06578 0,0.96946 -3.72423,1.01647 -5.94277,0.075 z m -29.37699,-6.92324 c 0.99953,-0.82953 1.45116,-0.79366 2.04189,0.16214 0.63805,1.0324 1.55343,1.03658 5.76491,0.0263 6.82186,-1.63655 8.34265,-3.41652 6.93454,-8.11639 -1.14709,-3.82861 -1.55097,-4.06225 -4.78453,-2.76777 -1.13617,0.45484 -4.26081,1.49781 -6.94366,2.31773 -5.70125,1.74238 -15.00743,8.50977 -13.30347,9.67417 1.43161,0.97832 8.64446,0.0698 10.29032,-1.29614 z m 78.48622,1.51713 -4.04685,-1.17237 3.5972,-0.076 c 4.28319,-0.0905 7.64407,0.70219 7.64407,1.80291 0,1.05038 -2.2543,0.87662 -7.19442,-0.55453 z m 13.44652,-1.75283 c 1.93753,-2.06239 9.77334,-5.45366 10.62753,-4.59949 0.84575,0.84576 -0.80002,2.1022 -3.44708,2.63161 -1.53577,0.30717 -3.93361,1.37114 -5.32853,2.36442 -3.45992,2.46368 -4.35825,2.27132 -1.85192,-0.39654 z m 10.83463,-0.49542 c 0.7419,-0.47947 2.04307,-0.87796 2.89143,-0.88553 0.84837,-0.008 2.92521,-1.22783 4.61522,-2.71167 1.69001,-1.48385 4.03103,-2.6856 5.20229,-2.67056 2.02098,0.026 2.04009,0.0793 0.37495,1.04517 -0.96501,0.55979 -2.72092,2.16623 -3.90196,3.56985 -1.79777,2.13651 -2.82993,2.5498 -6.33915,2.53827 -3.03788,-0.01 -3.82042,-0.25374 -2.84278,-0.88553 z m 9.66749,-7.83853 c -1.3602,-0.20605 -2.4731,-0.75245 -2.4731,-1.21421 0,-1.34238 6.67983,-0.96878 8.59632,0.48079 1.6561,1.25261 1.60725,1.31489 -0.95224,1.21419 -1.48386,-0.0584 -3.8108,-0.27472 -5.17098,-0.48077 z m -23.15702,-7.85456 c 0,-0.71734 -0.70483,-1.69871 -1.56629,-2.1808 -2.35621,-1.31861 -0.57958,-2.35767 2.01214,-1.17679 2.463,1.12221 3.14869,4.66186 0.9031,4.66186 -0.74191,0 -1.34895,-0.58692 -1.34895,-1.30427 z m 4.43743,-2.51776 c -0.56191,-1.11289 -2.29606,-3.12543 -3.85366,-4.47231 -3.39392,-2.93478 -1.58977,-3.31955 2.42496,-0.51717 3.3962,2.37061 4.15371,3.35821 4.17191,5.43913 0.0193,2.21185 -1.5274,1.95832 -2.74321,-0.44965 z m -17.25248,-1.00284 c -4.21143,-1.10912 -4.37014,-2.36954 -0.29838,-2.36954 1.6907,0 3.8153,-0.27812 4.72134,-0.61804 1.38892,-0.52107 1.47221,-0.40229 0.531,0.75724 -0.61396,0.75638 -0.89055,1.601 -0.61464,1.87692 1.03762,1.03761 -1.08498,1.21049 -4.33932,0.35342 z m 29.38402,-4.2434 c -1.69156,-1.86915 -1.68965,-1.87104 0.75993,-0.75496 1.35065,0.61541 2.45574,1.45865 2.45574,1.87387 0,1.32428 -1.46637,0.81405 -3.21567,-1.11891 z m -35.45429,0.0753 c -1.15282,-0.74501 -1.12013,-0.87377 0.22481,-0.88554 0.86559,-0.008 1.57379,0.39092 1.57379,0.88554 0,1.09679 -0.10145,1.09679 -1.7986,0 z m 30.45128,-1.43697 c -0.61071,-1.43545 -2.3282,-3.92513 -3.81667,-5.53261 -3.13958,-3.39065 -2.13088,-3.8081 2.17305,-0.89931 1.69528,1.14574 3.30312,3.18431 3.70679,4.69978 0.98365,3.69291 -0.64664,5.06162 -2.06317,1.73214 z m -34.68182,-2.20118 c 0.73871,-1.70864 2.21722,-5.03604 3.2856,-7.39425 1.06837,-2.3582 2.50501,-7.21442 3.19249,-10.79162 0.68748,-3.57719 1.86178,-8.6487 2.60952,-11.26999 0.87967,-3.08378 1.0865,-5.48414 0.586,-6.80057 -0.42545,-1.11901 -7.10572,-8.48441 -14.84505,-16.36757 -7.73933,-7.88315 -14.68118,-15.74941 -15.42634,-17.48057 -0.74514,-1.73115 -1.58438,-5.59069 -1.86494,-8.57674 -0.43939,-4.67648 -0.18429,-6.07216 1.83997,-10.06689 1.94236,-3.83303 2.25008,-5.36755 1.77355,-8.84419 -0.69865,-5.09722 -3.90428,-9.43732 -5.53332,-7.49152 -5.70228,6.81118 -7.30656,9.42879 -8.28931,13.52535 -0.87935,3.66548 -2.25137,5.89935 -6.28939,10.2399 -2.84058,3.05342 -5.4469,6.44085 -5.79184,7.52761 -0.94007,2.9619 1.49205,5.90942 7.04289,8.5354 6.11501,2.89286 11.05313,8.42525 15.30715,17.14928 2.10651,4.31999 4.44209,7.61871 6.53158,9.22509 6.12711,4.71043 9.31036,7.63346 9.31036,8.54924 0,0.52534 -0.5848,0.43093 -1.3707,-0.22131 -1.57046,-1.30337 -1.47695,-1.38625 -2.85633,2.5318 -0.96596,2.74387 -0.91466,2.9226 0.69258,2.41248 2.8389,-0.90105 1.97371,1.07517 -1.37748,3.14631 -3.56365,2.20247 -7.47067,7.01254 -9.73472,11.98485 -0.85657,1.88116 -1.95433,3.175 -2.43944,2.87519 -1.11616,-0.68984 2.90202,-8.73676 6.50645,-13.03004 1.47335,-1.75494 3.45193,-5.2068 4.39685,-7.67079 1.60232,-4.17828 1.61576,-4.54059 0.1996,-5.37932 -4.37223,-2.5895 -8.62176,-7.54541 -11.9417,-13.92676 -5.00304,-9.61649 -7.19876,-12.00214 -14.65069,-15.91801 -3.49642,-1.83732 -6.54926,-4.07527 -6.78409,-4.97322 -0.23481,-0.89795 -0.88389,-1.57819 -1.44239,-1.51163 -2.722,0.3244 -4.37204,-0.30419 -7.02816,-2.67743 -3.78887,-3.38536 -3.8403,-7.73965 -0.14591,-12.35096 3.61728,-4.51504 6.5761,-9.54736 6.59347,-11.21407 0.0205,-1.96963 5.24446,-9.67136 7.61216,-11.22274 2.38716,-1.56411 10.7661,-3.23924 12.62828,-2.52466 0.74667,0.28652 1.35758,1.12855 1.35758,1.87119 0,0.96789 -0.59794,1.20015 -2.1117,0.82021 -1.65106,-0.4144 -2.33348,-0.0433 -3.12828,1.70112 -0.55912,1.2271 -1.71321,2.23111 -2.56465,2.23111 -1.20409,0 -1.30829,-0.23982 -0.46893,-1.07916 2.22489,-2.22491 1.26796,-3.30694 -2.02957,-2.29489 -3.73677,1.14683 -8.10976,6.2983 -8.99678,10.59836 -0.35369,1.71472 -2.12503,5.29702 -3.93629,7.96069 -1.81125,2.66368 -3.94284,5.81269 -4.73686,6.99784 -2.53893,3.78954 -0.29414,7.9131 5.2657,9.67281 1.68362,0.53286 2.02344,0.30467 2.02344,-1.35874 0,-1.98277 2.19904,-5.33933 6.53334,-9.97229 1.2388,-1.32417 3.36643,-5.37103 4.72809,-8.99302 1.36167,-3.622 3.5329,-7.64541 4.82498,-8.94091 1.29209,-1.29551 3.22917,-3.42011 4.30464,-4.72132 2.5781,-3.11931 4.0598,-2.98462 7.25971,0.65989 4.12115,4.69371 4.48286,9.41976 1.24971,16.32882 -2.45045,5.23654 -2.5853,6.07338 -1.93417,12.00494 l 0.69992,6.37603 7.07563,7.16849 c 7.67254,7.77321 8.61331,8.72232 12.8574,12.97119 12.36033,12.3743 13.47297,14.99171 10.07585,23.70307 -0.92333,2.36773 -1.95296,6.1814 -2.28809,8.4748 -0.59157,4.0485 -0.52964,4.19759 2.12844,5.12419 3.6767,1.28171 3.48189,2.28703 -0.30547,1.57651 -2.37591,-0.44572 -3.17138,-0.23694 -3.62768,0.95213 -0.60604,1.57932 1.31153,3.50709 2.15064,2.16211 0.79451,-1.27347 8.29562,-2.9327 10.90185,-2.41145 4.39441,0.87888 10.09942,8.70115 8.37773,11.4869 -1.00256,1.6222 -2.13396,0.64472 -3.01072,-2.60111 -1.11915,-4.14325 -2.84516,-5.27769 -9.24686,-6.07752 -5.62719,-0.70309 -7.55452,0.53506 -3.46787,2.22781 1.55705,0.64494 2.83862,1.99832 3.17988,3.35805 0.89697,3.57377 -0.18513,3.56736 -3.47155,-0.0206 -3.98246,-4.34785 -6.7427,-4.39336 -9.0285,-0.14885 -0.93627,1.73854 -2.28236,3.64237 -2.99132,4.23076 -1.08939,0.90411 -1.08102,0.58866 0.054,-2.03683 z m 19.51866,-3.55627 c 0,-0.98924 0.18811,-1.7986 0.418,-1.7986 0.22991,0 0.85118,0.80936 1.3806,1.7986 0.76828,1.43555 0.6839,1.7986 -0.41802,1.7986 -0.78105,0 -1.38058,-0.78106 -1.38058,-1.7986 z m 18.43567,0.89931 c -0.30569,-0.49462 0.0512,-0.89931 0.79315,-0.89931 0.74193,0 1.59907,0.40469 1.90476,0.89931 0.3057,0.49462 -0.0512,0.89929 -0.79317,0.89929 -0.74191,0 -1.59904,-0.40467 -1.90474,-0.89929 z m -10.34196,-5.3671 c 0,-0.47882 1.11289,-1.4581 2.47307,-2.1762 l 2.47309,-1.30562 -2.69791,-1.06235 c -4.81228,-1.89497 -9.09948,-2.08259 -12.20356,-0.53407 -3.55607,1.774 -4.19789,1.43242 -1.64671,-0.87639 3.53471,-3.19887 17.33826,-1.71548 18.54307,1.99271 0.18102,0.55711 -1.12746,1.87234 -2.90771,2.92273 -3.66409,2.16185 -4.03334,2.257 -4.03334,1.03919 z m -32.35065,-8.67943 c -0.0316,-1.31739 7.24891,-10.45567 7.85071,-9.85389 0.53477,0.53478 -1.25479,3.23354 -5.11448,7.71298 -1.49163,1.73117 -2.72293,2.69458 -2.73623,2.14091 z m -1.79847,-5.09945 c -0.0133,-0.39067 0.78503,-2.29681 1.77427,-4.23586 2.36357,-4.63297 2.26884,-6.41438 -0.44966,-8.45589 -3.27762,-2.46138 -2.74873,-3.44552 0.88256,-1.64223 1.72196,0.85511 2.95369,2.04764 2.73719,2.65008 -0.21649,0.60242 -0.007,1.33452 0.46639,1.62686 1.72352,1.06519 0.78844,4.12596 -2.26319,7.40817 -1.71778,1.84753 -3.13418,3.03953 -3.14756,2.64887 z m -14.41315,-4.93504 c 0,-0.38457 0.64312,-1.61741 1.42916,-2.73962 0.78603,-1.12224 1.20839,-2.61572 0.93857,-3.31887 -0.75476,-1.96687 1.02169,-2.50535 2.03275,-0.61616 0.6637,1.24013 0.4474,2.40317 -0.84096,4.5217 -1.59771,2.62721 -3.55952,3.81378 -3.55952,2.15295 z m 23.87725,-10.40213 c -2.5889,-3.39423 -2.97102,-5.28944 -0.90676,-4.49731 1.62367,0.62306 5.35815,7.50491 4.07259,7.50491 -0.4795,0 -1.90412,-1.35343 -3.16583,-3.0076 z m -9.01601,-6.0301 c -1.47132,-2.47804 -4.03287,-5.945 -5.69237,-7.70436 -1.65948,-1.75936 -2.77656,-3.43955 -2.48239,-3.73371 1.31936,-1.31936 12.19885,11.99934 12.19885,14.93387 0,2.12396 -1.4196,0.89073 -4.02409,-3.4958 z m 2.26236,-3.50073 c -1.07687,-1.51234 -1.53505,-2.74968 -1.01816,-2.74968 1.13226,0 4.12088,4.35456 3.44946,5.02599 -0.26035,0.26034 -1.35445,-0.764 -2.4313,-2.27631 z m -36.00894,-24.20639 c 0,-0.77635 3.88991,-3.72374 4.91452,-3.72374 1.47581,0 0.10448,1.94726 -2.21661,3.14756 -1.48385,0.76732 -2.69791,1.02661 -2.69791,0.57618 z m 17.099,-23.28358 c 0.0323,-1.77146 1.17629,-4.72133 1.83107,-4.72133 0.40385,0 0.69975,1.21406 0.65757,2.69791 -0.0462,1.62528 -0.55862,2.69789 -1.28882,2.69789 -0.66665,0 -1.20657,-0.30351 -1.19982,-0.67447 z m -17.07039,-3.52366 c -0.0465,-1.70847 1.00124,-3.89558 1.86621,-3.89558 1.17859,0 0.98161,1.21881 -0.51727,3.2005 -0.72618,0.96011 -1.3332,1.27291 -1.34894,0.69508 z m 15.83461,-1.82164 c -1.01279,-1.0128 -0.61683,-2.07394 0.77387,-2.07394 0.74191,0 1.34894,0.3808 1.34894,0.84623 0,1.13399 -1.40435,1.94617 -2.12281,1.22771 z m -15.97792,-4.15383 c 1.34942,-1.65894 3.71192,-2.05228 3.71192,-0.61803 0,0.49461 -0.3716,0.89931 -0.82575,0.89931 -0.45418,0 -1.56705,0.27811 -2.47309,0.61803 -1.45012,0.54403 -1.49957,0.43638 -0.41308,-0.89931 z"
       id="path3101"
       inkscape:connector-curvature="0" />
  </g>
</svg>
