<?xml version="1.0" encoding="UTF-8" standalone="no"?>
<!-- Created with Inkscape (http://www.inkscape.org/) -->

<svg
   xmlns:dc="http://purl.org/dc/elements/1.1/"
   xmlns:cc="http://creativecommons.org/ns#"
   xmlns:rdf="http://www.w3.org/1999/02/22-rdf-syntax-ns#"
   xmlns:svg="http://www.w3.org/2000/svg"
   xmlns="http://www.w3.org/2000/svg"
   xmlns:xlink="http://www.w3.org/1999/xlink"
   xmlns:sodipodi="http://sodipodi.sourceforge.net/DTD/sodipodi-0.dtd"
   xmlns:inkscape="http://www.inkscape.org/namespaces/inkscape"
   width="899.68842"
   height="846.41132"
   id="svg2"
   version="1.1"
   inkscape:version="0.48.3.1 r9886"
   sodipodi:docname="Bent-arm-pullover-1.svg">
  <defs
     id="defs4">
    <radialGradient
       gradientUnits="userSpaceOnUse"
       gradientTransform="matrix(1,0,0,0.91819829,-19.285714,-7.9105395)"
       r="209.56604"
       fy="287.50052"
       fx="398.1105"
       cy="287.50052"
       cx="398.1105"
       id="radialGradient5255"
       xlink:href="#linearGradient5249"
       inkscape:collect="always" />
    <linearGradient
       id="linearGradient5249"
       inkscape:collect="always">
      <stop
         id="stop5251"
         offset="0"
         style="stop-color:#e3e3e3;stop-opacity:1;" />
      <stop
         id="stop5253"
         offset="1"
         style="stop-color:#e3e3e3;stop-opacity:0;" />
    </linearGradient>
  </defs>
  <sodipodi:namedview
     id="base"
     pagecolor="#ffffff"
     bordercolor="#666666"
     borderopacity="1.0"
     inkscape:pageopacity="0.0"
     inkscape:pageshadow="2"
     inkscape:zoom="0.35"
     inkscape:cx="-8.5352067"
     inkscape:cy="30.50531"
     inkscape:document-units="px"
     inkscape:current-layer="layer1"
     showgrid="false"
     showguides="true"
     inkscape:guide-bbox="true"
     fit-margin-top="0"
     fit-margin-left="0"
     fit-margin-right="0"
     fit-margin-bottom="0"
     inkscape:window-width="1201"
     inkscape:window-height="886"
     inkscape:window-x="166"
     inkscape:window-y="73"
     inkscape:window-maximized="0">
    <sodipodi:guide
       orientation="-0.70710678,0.70710678"
       position="-2419.8276,524.68309"
       id="guide2985" />
  </sodipodi:namedview>
  <metadata
     id="metadata7">
    <rdf:RDF>
      <cc:Work
         rdf:about="">
        <dc:format>image/svg+xml</dc:format>
        <dc:type
           rdf:resource="http://purl.org/dc/dcmitype/StillImage" />
        <dc:title></dc:title>
      </cc:Work>
    </rdf:RDF>
  </metadata>
  <g
     inkscape:label="Ebene 1"
     inkscape:groupmode="layer"
     id="layer1"
     transform="translate(-991.25607,295.0803)">
    <path
       style="fill:#000000"
       d="m 1343.4445,550.25494 c -19.4854,-6.46435 -39.5543,-25.07412 -51.4795,-47.73672 l -3.5579,-6.76143 -21.9769,11.92423 c -12.0873,6.55832 -22.9587,11.92422 -24.1587,11.92422 -3.3243,0 -6.327,-4.53384 -6.327,-9.55306 l 0,-4.28335 23.0474,-12.3318 c 20.1495,-10.78119 22.9728,-12.58327 22.4535,-14.33179 -5.5504,-18.68897 -5.8695,-20.73227 -5.9358,-38 -0.072,-18.85377 1.0278,-24.99149 6.4871,-36.19467 6.2054,-12.73433 17.9335,-20.83365 31.8584,-22.00106 6.0539,-0.50753 8.3448,-0.18969 15.5676,2.15983 4.6579,1.51521 11.5941,4.68169 15.4137,7.03661 l 6.9446,4.28166 26.4847,-14.41765 26.4847,-14.41765 -0.519,-52.72354 c -0.3674,-37.32036 -0.8503,-53.06088 -1.653,-53.87824 -0.8475,-0.86299 -91.617,-57.34276 -120.8414,-75.19152 l -3.7075,-2.26434 -82.8217,40.05529 c -45.5519,22.0304 -83.4835,40.05123 -84.2925,40.04627 -0.809,-0.005 -7.4333,-4.73107 -14.7208,-10.50249 l -13.25,-10.49348 0,-14.29751 c 0,-9.3905 0.3922,-14.68978 1.1429,-15.44046 0.6286,-0.62863 15.0286,-7.29057 32,-14.80431 l 30.8571,-13.66135 0,-40.77325 c 0,-31.70358 -0.282,-41.0073 -1.2678,-41.82541 -0.6973,-0.57869 -13.6301,-8.710157 -28.7396,-18.069937 l -27.4719,-17.01778 -1.1924,5.19749 c -0.6558,2.85863 -2.0896,7.2225 -3.1863,9.6975 -2.1489,4.84991 -4.142,19.682197 -4.142,30.824117 0,4.28343 1.7121,15.20839 4.5119,28.78942 2.4815,12.03755 4.7969,25.14061 5.1451,29.1179 0.583,6.65652 0.4284,7.54114 -1.9446,11.12684 -3.6784,5.55857 -8.6165,8.28406 -16.0971,8.88453 -8.971,0.7201 -16.4305,-1.69328 -23.8902,-7.7292 -7.011,-5.67287 -18.1656,-10.62648 -28.7251,-12.75649 -11.8429,-2.38885 -20.33481,-7.52299 -25.95559,-15.69251 -2.61427,-3.79972 -2.88824,-4.94164 -2.67482,-11.14896 0.206,-5.9916 0.66485,-7.50357 3.43407,-11.31569 1.75796,-2.42002 3.1963,-5.42486 3.1963,-6.67742 0,-2.93452 4.43514,-6.42254 8.16644,-6.42254 1.5931,0 5.6782,0.93703 9.0778,2.08228 6.8884,2.32053 8.2536,2.21543 18.2558,-1.4054 4.495,-1.62722 7.4122,-3.31826 8.152,-4.72546 0.6336,-1.20528 1.4742,-8.63607 1.868,-16.512867 l 0.7159,-14.32145 -4.0481,-15.80855 c -5.9896,-23.39059 -7.1878,-30.97168 -7.1878,-45.47639 0,-12.33129 0.4481,-16.9606401 3.4204,-35.33216 0.7531,-4.65446 1.0993,-12.21042 0.8279,-18.06814 -0.4313,-9.31119 -0.2744,-10.447 2.0873,-15.10744 3.3999,-6.70943 7.1814,-11.06217 12.5905,-14.49252 4.0659,-2.57855 5.2856,-2.8319 13.6332,-2.8319 5.0422,0 11.5916,0.46007 14.5542,1.02237 3.8758,0.73564 7.4059,0.68329 12.5868,-0.18665 9.1292,-1.53292 17.704,0.15326 33.5842,6.60409 6.0682,2.46503 11.349,4.28671 11.7349,4.04816 1.7865,-1.10409 4.0334,-12.60919 3.398,-17.39907 -0.5666,-4.27118 -0.2907,-5.62948 1.9046,-9.3755 2.8921,-4.93488 8.9222,-10.73761 13.8682,-13.34516 4.3343,-2.28507 19.1741,-2.9935 28.7769,-1.37378 3.9818,0.67161 9.7048,2.5179 12.7179,4.10286 3.0131,1.58497 9.379,3.80252 14.1466,4.9279 13.5142,3.18998 17.397,5.73833 34.6247,22.72478 9.9533,9.81399 16.2074,15.25 17.5449,15.25 3.0994,0 9.3828,3.49628 19.0959,10.62549 7.5533,5.54393 9.2564,6.37451 13.0714,6.37451 5.2455,0 6.8995,1.04384 17.3315,10.93792 7.1355,6.7676 9.2427,8.11414 19.5,12.4606299 21.6857,9.18925 25.9803,11.98184 28.0443,18.2357901 1.2274,3.71908 6.7487,8.47312 11.859,10.21109 1.8718,0.63659 13.5718,1.83063 26,2.65342 33.1035,2.19157 46.1365,4.8091 54.7279,10.99155 2.6778,1.92696 5.8538,4.21369 7.0577,5.08161 1.204,0.86793 5.2411,2.21662 8.9714,2.99709 14.2337,2.97809 21.8401,7.96724 35.8823,23.53574 8.965,9.93937 9.7154,10.19432 42.1895,14.3341 21.1085,2.69089 24.7087,3.8296 34.6342,10.9545 7.6075,5.46099 10.5812,8.576457 15.9292,16.688767 4.7004,7.1301 9.5717,10.88026 17.2957,13.31503 5.8936,1.85778 11.3978,7.16426 14.4863,13.96575 2.4038,5.29374 2.3834,7.5824 -0.1437,16.14019 -1.4022,4.74839 -2.0309,9.55731 -1.9564,14.96472 0.1689,12.26506 -2.8339,40.33942 -6.1537,57.5321 -1.9017,9.84844 -3.1945,20.28794 -3.5456,28.63145 l -0.5527,13.13145 5.649,3.61361 c 5.6151,3.59197 9.6147,8.52747 9.6218,11.87349 0,0.9625 0.4304,1.75 0.9519,1.75 0.5215,0 11.209,-5.57333 23.75,-12.38517 12.541,-6.81185 35.4019,-19.22449 50.8019,-27.58364 15.4,-8.35915 28.3479,-15.53128 28.7732,-15.93806 0.4253,-0.40677 -0.2365,-4.75664 -1.4707,-9.66636 -1.8686,-7.43401 -2.2466,-11.68594 -2.2605,-25.42677 -0.014,-14.24754 0.296,-17.58595 2.2738,-24.45493 8.5377,-29.65162 28.1836,-41.61075 53.7405,-32.71366 4.4311,1.54255 10.5634,4.46868 13.6275,6.50249 7.2894,4.83843 20.3828,18.54238 25.2492,26.42655 l 3.8573,6.24933 6.1048,-3.38898 c 30.7815,-17.08768 43.8028,-23.69277 45.5898,-23.12558 3.0367,0.96381 6.0151,5.42989 6.0151,9.01964 0,3.21185 -0.2591,3.38611 -25.25,16.98126 -13.8875,7.55486 -25.3294,13.80069 -25.4263,13.87961 -0.097,0.0789 1.3148,4.42315 3.1372,9.65383 5.4593,15.66917 6.9644,24.62255 6.8871,40.97044 -0.077,16.31778 -1.7328,24.45653 -7.3755,36.25594 -6.0931,12.74125 -15.4868,20.20553 -28.6602,22.77352 -22.5788,4.40149 -50.8225,-16.40483 -66.9256,-49.30223 -2.0501,-4.18828 -3.2458,-5.6136 -4.3562,-5.1929 -1.3265,0.50255 -61.5228,32.94201 -89.0305,47.97807 l -9.5,5.19281 -0.6314,4.89739 c -0.9084,7.04589 -3.4473,16.10548 -5.3105,18.94905 -0.8829,1.34737 -4.4995,3.76214 -8.0371,5.36615 -8.5753,3.88824 -14.2011,8.5705 -16.4757,13.71253 -2.0666,4.67198 -5.4562,6.93201 -11.9552,7.97125 -6.6542,1.06404 -12.2176,-1.65984 -17.7357,-8.68354 -2.5572,-3.25492 -5.1456,-5.91141 -5.752,-5.90331 -0.6063,0.008 -6.7274,3.10384 -13.6024,6.87941 -12.442,6.8328 -12.5014,6.88267 -12.7887,10.73527 -0.1885,2.52863 -1.0821,4.56401 -2.5774,5.87059 -1.5936,1.39254 -2.6358,3.94804 -3.4311,8.41371 -1.5419,8.65712 -4.7168,12.08629 -11.1899,12.08629 -2.5371,0 -5.14,-0.52709 -5.7843,-1.17132 -0.895,-0.89509 -1.6388,-0.57691 -3.1539,1.34923 -1.1054,1.40521 -4.7222,3.51943 -8.1737,4.7779 -3.405,1.24155 -8.6176,4.23382 -11.5834,6.64951 -9.9285,8.08691 -15.1739,9.71644 -23.3712,7.26048 -3.5697,-1.06951 -4.2608,-0.87875 -12.116,3.3446 -4.5818,2.46334 -25.2777,13.56595 -45.9911,24.67246 l -37.6607,20.19366 2.3792,6.07115 c 10.5365,26.88581 11.1049,56.93298 1.4666,77.52978 -4.5717,9.76939 -10.2732,15.85878 -18.5867,19.85108 -5.0107,2.40623 -7.421,2.89802 -15.4377,3.14981 -5.999,0.18842 -10.9741,-0.19066 -13.5,-1.02864 z m 24.9915,-6.2926 c 6.0919,-2.08661 14.1216,-9.79097 17.2972,-16.59656 4.7024,-10.07736 6.5703,-19.44346 6.5336,-32.76054 -0.039,-14.2149 -1.6181,-22.89706 -6.965,-38.29786 -13.6363,-39.27702 -42.6805,-67.88159 -69.0476,-68.0025 -12.85,-0.0589 -23.8985,7.28942 -29.7145,19.76309 -7.8552,16.84737 -8.3901,41.62301 -1.3655,63.25535 l 2.2703,6.99124 16,-8.80528 c 8.8,-4.84291 16.9518,-8.8275 18.1151,-8.85466 1.1633,-0.0272 3.3008,0.88328 4.75,2.0232 2.0326,1.59885 2.6349,2.95395 2.6349,5.92857 0,2.1208 -0.6493,4.5053 -1.4429,5.2989 -0.7936,0.79359 -8.6686,5.35578 -17.5,10.1382 -8.8314,4.78242 -16.0571,9.26843 -16.0571,9.96891 0,2.09818 9.5134,17.26946 15.39,24.54282 5.7105,7.06777 12.7499,13.45734 20.871,18.94447 12.7597,8.62116 25.5943,10.79078 38.2305,6.46265 z m -2.4915,-5.18329 c 0,-0.53506 1.5403,-3.26169 3.4228,-6.05918 5.7927,-8.60793 7.8017,-15.2678 8.3302,-27.61463 0.8117,-18.96635 -4.4081,-38.898 -16.7605,-64 -14.1135,-28.68059 -29.3223,-41.88811 -50.9917,-44.28187 -9.0066,-0.99493 -7.3479,-2.7226 2.5907,-2.69853 7.3189,0.0177 8.8184,0.37883 15.7046,3.78222 16.9148,8.35971 30.4307,25.74008 41.8167,53.77264 2.7757,6.83405 6.4311,17.60054 8.123,23.92554 2.701,10.09789 3.0875,13.20691 3.1701,25.5 0.1099,16.3614 -1.3341,22.23324 -7.8611,31.96482 -3.6046,5.37439 -7.5448,8.35588 -7.5448,5.70899 z m -122,-24.98525 c 0,-0.99629 -1.0125,-2.90157 -2.25,-4.23396 l -2.25,-2.42252 -0.3128,2.18237 c -0.4011,2.7984 1.4563,6.28555 3.3479,6.28555 0.8057,0 1.4649,-0.81515 1.4649,-1.81144 z m 46.5,-23.18453 c 17.6,-9.49211 32.7458,-18.0995 33.6573,-19.12755 1.9085,-2.1525 1.4772,-4.99913 -0.9912,-6.54064 -1.3824,-0.86335 -9.0872,2.90601 -40.6858,19.90441 -21.4392,11.5332 -39.1009,21.08032 -39.2482,21.21582 -0.1474,0.1355 0.4124,1.55082 1.2438,3.14515 0.8315,1.59433 1.5145,3.50001 1.5179,4.23485 0,0.89036 2.0911,0.18354 6.2562,-2.1188 3.4375,-1.90018 20.65,-11.22113 38.25,-20.71324 z m 138.5,-74.50103 c 46.1252,-24.68793 47.4212,-25.41505 46.6592,-26.17706 -0.2828,-0.28284 -11.9093,5.75306 -25.8367,13.41311 -13.9274,7.66005 -34.2003,18.61492 -45.0509,24.34415 -10.8505,5.72924 -19.738,10.78086 -19.75,11.22582 -0.012,0.44496 0.3159,0.61384 0.7284,0.37529 0.4125,-0.23855 19.875,-10.67014 43.25,-23.18131 z m -3.2238,-4.12058 c 22.9481,-12.43967 44.4959,-24.15584 47.8841,-26.03595 l 6.1604,-3.41837 -1.6604,-3.8956 -1.6603,-3.8956 -9.5,5.10079 c -19.9129,10.69172 -86.5196,46.99767 -86.9293,47.38335 -0.5261,0.49534 2.6822,7.37896 3.4393,7.37896 0.2983,0 19.3181,-10.17791 42.2662,-22.61758 z m -3.1443,-12.03204 c 24.1275,-13.00729 44.2294,-23.96615 44.6711,-24.35301 0.4416,-0.38686 -0.2071,-2.41538 -1.4417,-4.50783 -1.8707,-3.17066 -2.3167,-5.68532 -2.6768,-15.09483 l -0.4322,-11.29039 -8.8562,4.44784 c -9.1835,4.61221 -11.8554,5.32698 -11.9541,3.19784 -0.032,-0.6875 -0.01,-17.24024 0.054,-36.78386 l 0.1117,-35.53387 -7.593,-2.23389 c -4.2422,-1.24809 -10.9957,-4.3523 -15.3037,-7.03434 -4.2409,-2.64024 -8.3142,-5.1591 -9.0517,-5.59747 -1.1162,-0.66342 -1.2838,8.14808 -1,52.5682 l 0.341,53.36523 -25.7325,14.06581 c -14.1529,7.7362 -26.0398,14.3731 -26.4154,14.74868 -0.3755,0.37557 2.2202,3.72096 5.7684,7.43418 3.5481,3.71323 8.1768,8.88883 10.2858,11.50133 2.109,2.6125 4.1773,4.75 4.5961,4.75 0.4188,0 20.5021,-10.64233 44.6295,-23.64962 z m 73.1181,-10.66273 c 2.8109,-2.54395 2.8429,-4.99223 0.1226,-9.39379 -1.1701,-1.89322 -2.6759,-5.29956 -3.3461,-7.56966 -1.4393,-4.87456 -3.2364,-6.26482 -6.9071,-5.34353 -4.3071,1.081 -5.2412,5.06373 -2.6081,11.11933 3.6491,8.39222 3.6859,8.86645 0.6435,8.28485 -3.0855,-0.58984 -3.381,0.248 -0.8843,2.50751 4.2506,3.84672 9.0058,3.99154 12.9795,0.39529 z m 12.0956,-9.57076 c 1.4599,-1.0357 5.5209,-2.68518 9.0245,-3.66549 5.5775,-1.5606 6.5436,-2.19732 7.7635,-5.11689 1.726,-4.13092 4.9652,-4.5198 6.3919,-0.76737 0.7831,2.05982 1.4205,2.43441 3.2252,1.8955 6.1968,-1.85044 8.1956,-8.40449 4.8617,-15.94136 l -2.1041,-4.75674 -2.7542,1.73336 c -9.1864,5.78158 -9.0476,5.62338 -8.5022,9.68905 0.4115,3.06843 0.1928,3.81305 -1.1203,3.81305 -0.8974,0 -1.6459,-0.3375 -1.6634,-0.75 -0.018,-0.4125 -0.6288,-1.53632 -1.3584,-2.49737 -1.1202,-1.47566 -1.8198,-1.5754 -4.499,-0.64144 -5.5066,1.91961 -11.1108,-2.0311 -11.1108,-7.83256 0,-1.37981 -0.3422,-1.31658 -2.25,0.41582 -1.2375,1.12369 -3.375,2.30759 -4.75,2.63088 -1.375,0.3233 -3.3471,1.20734 -4.3823,1.96455 -1.7212,1.25888 -1.753,1.58361 -0.3719,3.79343 0.8308,1.32918 1.7936,3.95195 2.1397,5.82839 0.6209,3.36716 6.3185,11.99735 7.9601,12.05738 0.4651,0.017 2.0401,-0.81648 3.5,-1.85219 z m -30.3599,-11.07191 c 0.765,-2.41026 6.1303,-7.04498 8.1556,-7.04498 0.8183,0 2.5985,-1.31996 3.956,-2.93325 1.3574,-1.61329 4.0805,-3.46537 6.0511,-4.11575 1.9707,-0.65038 4.4758,-2.07525 5.5669,-3.16637 1.9785,-1.97848 1.9758,-1.9924 -0.9957,-5.13425 -1.6388,-1.73271 -3.4836,-4.1333 -4.0996,-5.33464 -3.1219,-6.08829 1.2398,-21.35595 5.0207,-17.57498 0.622,0.62198 0.3656,2.22657 -0.7193,4.50161 -2.2638,4.74738 -1.2767,9.44568 3.0174,14.36179 2.9764,3.40742 3.6323,3.73732 5.2321,2.63142 6.9828,-4.82717 8.0159,-5.26742 11.7513,-5.00798 5.3319,0.37029 5.6828,2.36085 0.5379,3.05092 -5.2403,0.70287 -7.4162,2.70723 -8.9723,8.26477 -0.9991,3.56861 -0.9941,4.74419 0.025,5.97252 1.5818,1.90585 3.7091,1.27677 10.6094,-3.13733 2.9048,-1.85816 5.6924,-3.37848 6.1946,-3.37848 1.601,0 6.1829,-4.09253 6.1829,-5.52245 0,-0.75751 -1.3034,-3.31235 -2.8964,-5.67742 -1.593,-2.36507 -3.9377,-6.44793 -5.2104,-9.07302 -2.5418,-5.24287 -2.2943,-5.12175 -17.7862,-8.70557 -8.703,-2.01333 -12.0406,-4.10686 -14.702,-9.22188 -1.5296,-2.93989 -1.8973,-7.79966 -0.5901,-7.79966 0.4481,0 1.5924,1.63071 2.5428,3.62381 0.9505,1.99309 1.8653,3.45559 2.0331,3.25 0.1677,-0.2056 -0.1122,-4.64881 -0.622,-9.87381 -0.5098,-5.225 -0.706,-17.375 -0.436,-27 0.7843,-27.95765 -1.5227,-47.12687 -7.2694,-60.40113 -1.9305,-4.45927 -2.2407,-4.7385 -3.4409,-3.09723 -0.7255,0.99215 -1.8373,1.4836 -2.4707,1.09212 -1.906,-1.17796 -1.2946,-5.84509 1.3222,-10.09376 2.9834,-4.84389 3.1162,-7.42347 0.6325,-12.28984 -2.4459,-4.79233 -4.521,-6.53123 -10.4236,-8.73479 -4.676,-1.7457 -8.7487,-4.86461 -11.7297,-8.98288 -2.9286,-4.0459 -16.5889,-14.88326 -21.4508,-17.01804 -7.3714,-3.23659 -16.4043,-5.3015 -31.0023,-7.08711 -14.816,-1.81226 -19.5,-3.32235 -19.5,-6.28662 0,-1.10074 0.6572,-2.36915 1.4605,-2.81869 1.1842,-0.66273 0.7805,-1.66534 -2.1342,-5.29969 -5.8997,-7.35633 -8.5049,-14.03556 -8.4892,-21.76495 0.023,-11.48645 2.777,-19.843207 8.1367,-24.693717 3.324,-3.00818 3.5014,-0.9732 0.4975,5.70555 -2.052,4.56221 -2.9444,8.386737 -3.2753,14.036757 -0.4196,7.16476 -0.2135,8.2486 2.6624,14 1.7145,3.42871 5.7742,9.61689 9.0217,13.75151 l 5.9044,7.51749 9.8577,1.19277 c 5.4218,0.65603 14.1328,2.46727 19.3578,4.02499 l 9.5,2.83222 7,-14.04248 c 6.5303,-13.10034 7.3568,-14.28093 12.3183,-17.59648 2.964,-1.98065 6.2842,-5.26647 7.5,-7.42226 2.9802,-5.28409 4.6817,-5.6501 4.6817,-1.00707 0,3.90201 -1.8102,6.12167 -10.8426,13.29502 -4.8247,3.83177 -6.1195,6.08748 -11.2687,19.63215 -3.7267,9.80287 -3.7519,9.96369 -1.7806,11.34447 3.9638,2.77633 16.7733,14.35545 17.1694,15.52025 0.3886,1.14245 1.8792,-21.96972 2.0193,-31.30856 0.037,-2.475 -0.3006,-6.6375 -0.7506,-9.25 -1.0209,-5.92759 0.8151,-6.51413 3.1303,-1 1.2819,3.05316 1.4239,5.51533 0.7642,13.25 -1.0555,12.37446 -1.1424,27.77933 -0.1762,31.23181 0.4204,1.5025 2.0144,3.37819 3.5421,4.16822 l 2.7777,1.4364 -0.395,-6.20414 c -0.2773,-4.35439 0.1118,-7.38603 1.3048,-10.16822 1.0242,-2.38839 1.7607,-6.94789 1.8529,-11.47073 0.1436,-7.04554 0.5369,-8.28797 6.403,-20.22602 3.4375,-6.99565 6.25,-12.8989 6.25,-13.11834 0,-0.21944 -1.3138,-0.66174 -2.9196,-0.98289 -3.588,-0.7176 -5.0186,-4.15646 -2.6956,-6.47948 1.4538,-1.45382 1.7665,-1.40132 3.6417,0.61151 3.0377,3.26056 4.443,2.88357 12.6753,-3.40035 3.86,-2.94641 4.1423,-3.39743 2.1248,-3.39525 -1.2797,0.001 -6.5216,1.12639 -11.6488,2.5 -10.9832,2.94247 -12.9117,3.04833 -15.3491,0.84249 -3.5725,-3.23303 -1.5234,-6.50153 2.4455,-3.90097 2.1422,1.40365 3.1755,1.28569 12.7762,-1.45844 5.7449,-1.642077 12.3586,-2.985597 14.697,-2.985597 5.3594,0 22.0805,2.851887 24.7464,4.220647 8.6775,4.45541 32.3985,29.53332 38.2497,40.43776 l 2.9718,5.53829 2.2243,-3.5991 c 2.3478,-3.79877 5.6494,-6.5976 7.7829,-6.5976 2.2143,0 1.3862,4.54922 -1.2849,7.05863 -5.8639,5.50885 -6.5718,7.84208 -5.8353,19.23372 0.7607,11.76674 -0.4041,20.0839 -4.3668,31.18178 -2.0953,5.86795 -2.3979,8.08852 -1.908,14 0.5864,7.07401 12.0227,63.20945 13.0962,64.28298 0.317,0.31692 0.5763,-1.97378 0.5763,-5.09044 0,-6.41585 1.4232,-7.57266 2.3581,-1.91667 1.5281,9.24483 1.1692,10.21765 -6.7792,18.37482 -9.1526,9.39312 -10.7138,13.33006 -8.1538,20.56197 0.9371,2.64726 2.1235,6.83821 2.6364,9.31321 0.9882,4.76851 3.8694,8 7.1326,8 2.3661,0 17.3783,-3.65297 20.5559,-5.00195 1.7204,-0.73035 2.25,-1.77573 2.25,-4.44143 0,-4.19054 -1.3274,-5.03882 -9.2829,-5.93232 -5.318,-0.59729 -5.99,-0.44232 -8.3602,1.92782 -2.722,2.72204 -5.7321,2.60984 -5.1808,-0.19312 0.5554,-2.82419 5.4398,-5.61569 10.7126,-6.12234 4.6039,-0.44237 5.1211,-0.75331 6.0046,-3.61036 3.0039,-9.7133 2.034,-15.52758 -3.4497,-20.67923 -3.0331,-2.8495 -3.1176,-4.18382 -0.2383,-3.76662 3.4806,0.50434 8.6299,8.09712 9.3931,13.85042 l 0.657,4.952 4.8606,-3.56803 c 3.3936,-2.49118 5.7114,-3.47878 7.6796,-3.27233 1.9021,0.19952 3.6856,-0.50778 5.4832,-2.17459 4.0005,-3.70952 2.7528,-6.31974 -5.5712,-11.65531 l -7.008,-4.49201 0.5986,-13.24327 c 0.3293,-7.2838 1.724,-19.95594 3.0994,-28.1603 3.7121,-22.14235 6.8602,-50.39334 7.0669,-63.41703 0.1003,-6.325 0.7761,-13.3892 1.5017,-15.69821 1.0663,-3.39321 1.0789,-4.77858 0.066,-7.22488 -1.8924,-4.56875 -8.9652,-10.51829 -17.762,-14.94126 -8.4211,-4.234 -11.6009,-7.33108 -18.5807,-18.09732 -7.64,-11.784497 -19.0371,-17.431357 -42.6697,-21.141247 -6.8857,-1.08093 -15.8944,-2.56822 -20.0194,-3.3051 -4.125,-0.73687 -7.6893,-1.16974 -7.9207,-0.96193 -0.2313,0.20781 0.5562,1.41756 1.75,2.68834 2.6384,2.80842 2.7292,3.68161 0.3829,3.68161 -2.4801,0 -6.6503,-3.93644 -15.746,-14.86325 -17.1193,-20.56571 -30.7452,-28.13675 -50.6388,-28.13675 -9.0711,0 -19.8274,2.85998 -19.8274,5.27185 0,0.83481 -0.2946,0.8336 -1.1328,-0.005 -0.623,-0.62303 -0.8703,-1.81695 -0.5494,-2.65315 1.0108,-2.63415 8.2949,-6.72285 13.3358,-7.48571 l 4.8464,-0.73341 -4.2287,-2.20692 c -5.2921,-2.7619 -13.8243,-4.72926 -27.0336,-6.23341 -9.0797,-1.0339 -10.5489,-0.98072 -12.75,0.46146 -3.0486,1.99753 -3.1257,4.33821 -0.3982,12.09821 1.7577,5.0011 1.9122,6.53642 0.9733,9.67027 -1.5329,5.11657 -5.6747,9.81544 -8.6517,9.81544 -3.3355,0 -3.0156,-1.43716 1.002,-4.50154 1.8772,-1.43183 3.6782,-3.29411 4.0022,-4.13841 0.324,-0.8443 -0.3821,-4.73237 -1.569,-8.64015 -1.8785,-6.18452 -2.0042,-7.68057 -0.9701,-11.54701 0.6534,-2.44307 1.0143,-4.6157 0.8019,-4.82807 -0.433,-0.43305 -11.5597,-0.50517 -16.1781,-0.10485 -1.9702,0.17077 -2.9142,-0.16907 -2.75,-0.98997 0.1375,-0.6875 -0.088,-1.25781 -0.5,-1.26736 -2.8559,-0.0661 -14.6759,-3.1462 -17.4138,-4.53772 -1.8349,-0.93259 -5.2615,-3.74041 -7.6146,-6.23959 l -4.2784,-4.54397 -11.2216,1.26301 c -12.514,1.40846 -17.9123,2.98692 -33.3754,9.75892 -13.409,5.87278 -19.6927,10.10813 -30.3462,20.45431 l -8.5,8.25477 6.4613,0.76653 c 6.6424,0.78802 11.2743,3.20905 11.8626,6.20047 0.4618,2.34852 -2.6554,3.2537 -4.1528,1.20588 -0.8913,-1.21888 -3.3463,-1.8458 -8.8615,-2.26292 l -7.6287,-0.57695 -1.9802,3.88749 c -5.1626,10.13549 -6.6748,24.06075 -3.7004,34.07658 1.9236,6.477497 11.324,16.310917 15.5927,16.310917 1.5089,0 3.5677,0.3013 4.5752,0.66957 1.7502,0.63976 1.7539,0.58062 0.082,-1.32875 -1.7707,-2.02191 -2.4198,-6.34082 -0.953,-6.34082 2.0963,0 8.4113,8.4492 12.706,17 5.9823,11.91081 7.8524,14.14467 19.1037,22.81991 5.0086,3.86192 10.7967,9.32396 12.8623,12.13785 3.8987,5.31113 12.8381,11.3532 10.5943,7.16063 -1.2511,-2.33777 -1.4115,-6.11839 -0.2595,-6.11839 1.4979,0 6.91,6.46295 12.9798,15.5 6.3277,9.42116 16.7351,19.58668 22.443,21.92147 8.2512,3.37511 8.3454,3.24558 2.8846,-3.9679 -2.8112,-3.71351 -5.1112,-7.80972 -5.1112,-9.1027 0,-5.15765 3.8233,-1.95479 14.7787,12.38046 4.9467,6.47277 10.0791,12.77409 11.4053,14.00293 3.0512,2.82709 12.6398,6.16331 19.9165,6.92962 l 5.6006,0.5898 0.7074,-7.87684 c 0.6657,-7.41372 2.4891,-12.37684 4.5471,-12.37684 1.6843,0 2.0166,3.45539 1.1058,11.5 -0.547,4.8316 -0.541,9.98025 0.015,13 1.4146,7.68028 7.0694,18.12738 14.8851,27.5 8.7211,10.45832 11.0651,15.3181 14.4696,30 1.4667,6.325 4.1603,16.225 5.9857,22 5.1787,16.38378 5.9483,22.91246 5.144,43.64207 l -0.7038,18.14264 2.5986,5.12823 c 2.2635,4.46668 2.8444,4.99671 4.5037,4.10871 1.0477,-0.56074 2.1845,-1.90024 2.5262,-2.97667 z m -13.9933,-122.9498 c 0.8567,-10.82395 -0.7394,-17.42627 -6.5646,-27.15529 -2.1603,-3.60807 -3.9278,-7.09557 -3.9278,-7.75 0,-3.89809 5.6923,2.27667 10.0417,10.89275 4.1741,8.26886 5.218,13.96914 4.4257,24.16736 -0.6104,7.85675 -0.8839,8.75 -2.6798,8.75 -1.903,0 -1.9658,-0.43174 -1.2952,-8.90482 z m 135.5076,-31.25758 c 0,-1.18932 1.7696,-7.60182 3.9324,-14.25 2.1629,-6.64818 4.2438,-14.43463 4.6243,-17.30323 0.7923,-5.97353 -1.6927,-21.85122 -4.6522,-29.72477 -2.0157,-5.36242 -1.8417,-6.58231 0.6444,-4.519 4.3692,3.62611 8.4117,17.0774 8.4363,28.07133 0.014,6.28705 -5.7561,29.90154 -9.0993,37.23898 -1.4545,3.19242 -3.8859,3.49694 -3.8859,0.48669 z m -125.7444,-15.40036 c -3.9554,-2.3707 -6.4555,-6.57071 -4.8606,-8.16563 0.3494,-0.34939 2.5991,0.749 4.9994,2.44086 2.4003,1.69187 5.3184,3.37901 6.4848,3.74921 2.491,0.7906 2.8025,3.06275 0.539,3.93133 -2.3072,0.88537 -2.5184,0.82771 -7.1626,-1.95577 z m -25.0894,-20.76784 c -4.8234,-4.91471 -9.7877,-6.82364 -23.3834,-8.99176 -6.5012,-1.03675 -9.6118,-2.07251 -12.2365,-4.07453 -5.3718,-4.09724 -6.0611,-6.05302 -2.986,-8.4719 3.3251,-2.61549 10.7129,-5.41783 13.0808,-4.9618 3.2852,0.63266 1.9859,3.12158 -2.3911,4.58059 -7.9263,2.64208 -4.7186,5.92879 8.9148,9.13458 15.5009,3.6449 24.8352,9.47797 24.8352,15.51971 0,2.51235 -1.2669,1.91844 -5.8338,-2.73489 z m -81.2043,-32.9194 c -4.71,-2.37511 -6.2055,-5.54661 -3.9163,-8.30504 2.0437,-2.46244 4.1348,-1.76005 3.7759,1.26828 -0.2838,2.39456 0.1483,2.85534 3.6785,3.92315 5.0686,1.53315 10.0763,1.66072 12.5805,0.32049 1.5115,-0.80889 2.0832,-0.69375 2.5462,0.51273 1.8851,4.91267 -10.4551,6.42035 -18.6648,2.28039 z m -20.5783,-10.19277 c -0.3357,-0.87482 -0.3968,-2.70808 -0.1357,-4.07391 0.6126,-3.20481 -0.7053,-3.13661 -5.1535,0.26668 -5.1251,3.92107 -10.5211,3.62678 -19.8055,-1.08013 -7.505,-3.80484 -9.8332,-6.37982 -8.7769,-9.70764 0.8496,-2.67715 2.162,-2.46253 3.7757,0.6175 1.4244,2.71849 11.2159,7.40694 15.487,7.41564 3.026,0.006 4.2253,-3.36265 4.2253,-11.86934 0,-4.18725 0.5283,-7.46627 1.3936,-8.64964 0.9705,-1.32732 1.1223,-2.61934 0.5,-4.25623 -1.5484,-4.072587 -0.9968,-11.375647 1.2024,-15.918567 2.9924,-6.18139 9.1763,-9.60471 18.7698,-10.39066 6.8048,-0.55747 7.6226,-0.8755 10.7353,-4.17475 4.1209,-4.36804 8.8842,-6.05677 17.3708,-6.15856 4.9944,-0.0599 6.5412,0.26481 6.7757,1.42238 0.2438,1.20393 -0.6544,1.43389 -4.5507,1.16503 -6.0943,-0.42051 -10.2054,1.27626 -17.5124,7.22788 -5.3182,4.33169 -6.3209,4.74299 -13.8705,5.68964 -4.4758,0.56122 -8.9604,1.46058 -9.9656,1.99857 -3.916,2.09579 -6.4864,10.45592 -4.7926,15.588107 0.8834,2.67655 1.521,3.30019 2.7943,2.73303 2.4631,-1.09704 6.5817,-1.04068 7.1425,0.0977 0.271,0.55 -1.7349,2.20308 -4.4574,3.6735 -6.6437,3.58816 -7.5352,5.07463 -7.5352,12.56298 l 0,6.35419 3.75,-0.63264 c 7.8213,-1.31947 7.5483,-1.01921 8.7075,-9.57655 0.7431,-5.48617 6.0832,-12.37379 11.2758,-14.54337 5.8653,-2.450667 7.4314,0.54086 1.7056,3.25793 -4.6671,2.21469 -8.4389,7.82063 -8.4389,12.54251 0,3.14008 0.2811,3.60073 1.9339,3.16852 2.734,-0.71496 9.0661,1.56929 9.0661,3.27052 0,1.03007 -1.3103,1.42288 -4.75,1.424 -2.6125,8.6e-4 -6.325,0.78836 -8.25,1.75 -2.931,1.46418 -3.5813,2.39722 -4,5.73877 -0.5287,4.21869 -3.4338,6.14875 -4.6164,3.06691 z m 233.5407,-20.15455 c -3.2507,-3.48262 -8.338,-5.98186 -16.1926,-7.95486 -9.5918,-2.4094 -12.7317,-4.60614 -12.7317,-8.907437 0,-2.85222 0.5384,-3.76748 2.9503,-5.0147 3.22,-1.66511 9.6049,-2.05442 10.4796,-0.63899 0.7808,1.26337 -1.3991,2.76887 -5.1799,3.57729 -1.7875,0.38221 -3.25,1.11579 -3.25,1.63017 0,1.50038 5.6569,4.526307 13.8733,7.420957 9.3725,3.30192 14.1267,6.67938 14.1267,10.03578 0,3.13244 -1.0492,3.09429 -4.0757,-0.14821 z m -120.974,-25.542017 c -10.9456,-8.52508 -14.5696,-10.48927 -24.4503,-13.25184 -8.5061,-2.37821 -13.5,-4.6942 -13.5,-6.26069 0,-1.98107 3.7538,-1.65284 11.594,1.01379 12.8026,4.35445 22.5566,10.33247 33.406,20.47373 9.3762,8.764347 5.2573,7.61041 -7.0497,-1.97499 z m -133.7413,-15.8451 c -3.6954,-0.87555 -7.209,-3.6393 -7.209,-5.67055 0,-1.8457 1.3638,-1.68988 5.7404,0.65587 2.5512,1.36736 4.7302,1.81386 6.8819,1.4102 3.8366,-0.71976 5.5622,1.24963 2.8393,3.24062 -2.0201,1.47714 -3.3131,1.53415 -8.2526,0.36386 z m 13.0361,-0.23226 c -4.1289,-5.02204 0.084,-11.90393 10.2169,-16.69173 3.503,-1.65508 6.6713,-3.49835 7.0408,-4.09615 0.3695,-0.5978 2.9229,-2.86632 5.6743,-5.04116 4.6327,-3.66196 5.4702,-3.95426 11.3298,-3.95426 3.9556,0 7.9514,0.69842 10.6602,1.8633 4.9377,2.12341 14.8329,10.61527 14.8329,12.72937 0,2.78349 -3.705,1.31444 -9.3307,-3.69965 -7.6723,-6.83823 -13.039,-8.50888 -20.4307,-6.36006 -4.2537,1.23659 -5.78,2.27026 -7.3958,5.00879 -1.3644,2.31251 -4.2304,4.61704 -8.6894,6.98695 -9.7985,5.20791 -10.6534,6.02483 -10.6534,10.18007 0,3.82085 -1.4868,5.2252 -3.2549,3.07453 z m -27.5439,-7.4154 c -0.3857,-0.38568 -0.7012,-2.46085 -0.7012,-4.61149 0,-5.20749 3.7798,-8.96908 11.172,-11.11805 3.6278,-1.05462 6.144,-2.47182 7.1707,-4.03863 2.4497,-3.73879 9.6012,-5.57508 22.6733,-5.82183 11.6528,-0.21996 16.5253,0.53717 15.3803,2.38991 -0.3836,0.62059 -2.3951,0.75954 -5.1074,0.3528 -5.8836,-0.8823 -21.8183,1.28506 -26.4444,3.59684 -2.0105,1.00471 -4.4941,2.89284 -5.519,4.19584 -2.222,2.82486 -5.4593,4.68671 -8.149,4.68671 -3.3218,0 -6.3169,3.22792 -6.5046,7.01015 -0.1647,3.31938 -2.2477,5.08079 -3.9707,3.35775 z m -11.4515,-9.27204 c -4.1562,-4.15621 -9.0133,-13.73231 -7.6544,-15.09121 1.9177,-1.9177 4.152,0.0137 4.8154,4.16271 0.7311,4.57199 5.2538,9.83264 8.4533,9.83264 2.5591,0 3.8265,1.94854 2.0141,3.09649 -2.4451,1.5487 -4.66,0.96783 -7.6284,-2.00063 z m 71.2747,-18.70396 c 0.026,-4.97072 2.267,-7.79949 7.1486,-9.02468 3.1262,-0.78462 4.389,0.53445 1.9147,2.00006 -3.8206,2.26314 -5.776,4.80463 -5.2486,6.82163 0.7182,2.74634 -0.2243,4.81108 -2.1961,4.81112 -1.2899,3e-5 -1.6378,-0.99046 -1.6186,-4.60813 z m -46.9877,1.01615 c -4.7449,-1.73719 -16.5367,-9.26499 -16.5367,-10.55689 0,-2.53951 3.4934,-1.71893 8.3759,1.96746 3.2659,2.46576 8.1346,4.88636 12.4875,6.20852 3.924,1.19188 6.8835,2.57336 6.5766,3.06996 -0.819,1.32508 -6.3581,0.97503 -10.9033,-0.68905 z m 22.1216,-4.5923 c 0.3189,-2.92366 1.2362,-6.36584 2.0385,-7.64928 2.8964,-4.63345 13.3032,-6.65174 13.3032,-2.58003 0,1.00367 -0.6156,1.3676 -1.75,1.03454 -0.9625,-0.28258 -3.1,0.0567 -4.75,0.7539 -2.5242,1.06662 -3.2388,2.20605 -4.5051,7.18368 -1.0181,4.00195 -2.0568,6.02226 -3.2106,6.24447 -1.4911,0.28715 -1.6327,-0.34028 -1.126,-4.98728 z m -3.622,-12.27708 c -1.7818,-1.89664 -2.7244,-2.24078 -4.1086,-1.5 -3.1671,1.69496 -5.0966,1.17117 -4.7473,-1.28867 0.278,-1.95756 0.8611,-2.22647 4.4858,-2.06898 5.4081,0.23496 10.3338,2.78256 10.3338,5.34466 0,2.77688 -3.1382,2.5206 -5.9637,-0.48701 z m 203.9637,329.902307 c 0,-0.85746 -0.45,-1.2809 -1,-0.94098 -0.55,0.33992 -1,1.04148 -1,1.55902 0,0.51754 0.45,0.94098 1,0.94098 0.55,0 1,-0.70156 1,-1.55902 z m 14.9799,-13.61334 c 18.0882,-9.85258 18.6179,-10.22982 16.8477,-12 -1.0052,-1.0052 -1.8276,-2.50264 -1.8276,-3.32764 0,-0.825 -0.1922,-1.5 -0.4271,-1.5 -0.2349,0 -8.2224,4.24013 -17.75,9.4225 -16.7534,9.11274 -17.3424,9.53985 -17.9142,12.99205 -0.6055,3.6551 -0.3193,4.58545 1.4103,4.58545 0.5421,0 9.3895,-4.57756 19.6609,-10.17236 z m -98.2612,-10.32764 c -0.3409,-8.26046 -1.1197,-12.17782 -4.4772,-22.51955 -2.2354,-6.88575 -4.3552,-14.31075 -4.7106,-16.5 -1.3348,-8.22254 -1.458,-8.48045 -4.05,-8.48045 l -2.4809,0 0,32.99908 0,32.99909 8.0656,-4.24909 8.0657,-4.24908 -0.4126,-10 z m 144.8435,12.44151 c 2.7297,-2.56436 3.0473,-5.63525 1.3004,-12.57263 -1.0538,-4.18497 -1.3292,-4.47053 -3.75,-3.88742 -7.417,1.78663 -10.1126,2.65926 -10.1126,3.27365 0,0.37291 0.7441,2.62646 1.6535,5.00787 1.0872,2.84667 1.3158,4.66773 0.6673,5.31622 -1.7953,1.79531 -4.199,-0.1915 -5.9492,-4.91737 -0.9496,-2.56401 -1.8135,-4.79118 -1.9198,-4.94927 -0.4124,-0.61302 -5.4518,2.15787 -5.4518,2.99761 0,3.29942 5.6117,9.87592 10.0005,11.71983 3.9024,1.63954 10.772,0.63227 13.5617,-1.98849 z m -65.5181,-5.19151 c 2.9513,-1.68519 3.9358,-2.87756 3.9218,-4.75 -0.016,-2.11916 -1.7551,-3.52826 -11.4168,-9.25 -6.269,-3.7125 -11.8609,-6.75 -12.4266,-6.75 -0.5656,0 -2.2192,0.54254 -3.6745,1.20565 -2.5854,1.17796 -2.5118,1.24112 3.2029,2.75 5.2716,1.39187 6.0351,1.93929 7.7331,5.54435 2.1828,4.63427 7.6153,13.5 8.2721,13.5 0.2462,0 2.2208,-1.0125 4.388,-2.25 z m 21.0571,-11.37471 c 5.7193,-3.09359 10.5918,-5.79911 10.8277,-6.01226 0.2359,-0.21316 -0.6449,-2.96954 -1.9573,-6.12529 -4.4948,-10.80777 -2.3069,-19.79403 6.9873,-28.69842 2.1131,-2.0245 3.0333,-3.84809 3.0155,-5.97641 -0.042,-5.05173 -9.5692,-48.06291 -10.646,-48.06291 -0.5482,0 -16.1463,7.39526 -34.6626,16.43391 l -33.6658,16.43391 0.043,15.06609 c 0.039,13.73935 2.0121,36.95485 3.2448,38.18759 0.2788,0.27877 3.6918,-1.09702 7.5844,-3.05732 3.8927,-1.9603 7.728,-3.56418 8.523,-3.56418 0.7949,0 7.5562,3.66032 15.0249,8.13405 11.3211,6.78122 13.5796,8.52754 13.5796,10.5 0,1.30127 0.3831,2.36595 0.8513,2.36595 0.4682,0 5.5307,-2.53112 11.25,-5.62471 z m 71.3988,-5.66895 c 1.1,-1.23478 2.8504,-5.67394 3.8897,-9.86481 l 1.8898,-7.61975 -3.6983,-6.08804 c -2.0341,-3.34843 -4.1673,-6.37794 -4.7406,-6.73225 -0.5733,-0.35431 -1.9528,0.26619 -3.0655,1.3789 l -2.0231,2.0231 2.0808,6.62904 c 1.1444,3.64597 1.8271,7.29019 1.517,8.09826 -0.957,2.49384 -3.0482,1.629 -4.3061,-1.78079 -2.7486,-7.4508 -5.1035,-11.75 -6.4361,-11.75 -0.7801,0 -3.3036,1.575 -5.6076,3.5 -2.3041,1.925 -4.8059,3.5 -5.5595,3.5 -0.7536,0 -1.8436,0.88454 -2.4221,1.96564 -0.8932,1.66896 -0.6012,2.19877 1.9351,3.51035 3.9435,2.03924 5.0465,4.33755 5.0465,10.51545 0,2.81761 0.4832,7.04199 1.0738,9.38752 l 1.0738,4.2646 8.6762,-4.34609 c 4.7719,-2.39034 9.5762,-5.35636 10.6762,-6.59113 z m -16.8571,0.59871 c -0.2897,-0.99278 -0.5079,-3.4502 -0.4848,-5.46094 0.027,-2.34281 -0.892,-5.03015 -2.5581,-7.48214 -3.122,-4.59437 -3.2099,-5.36197 -0.6142,-5.36197 2.3355,0 6.7095,6.11621 7.5208,10.51636 1.014,5.49908 -2.4777,12.53782 -3.8637,7.78869 z m 75.8571,-52.34759 c 22.55,-12.21816 52.7,-28.53056 67,-36.24977 14.3,-7.71921 26.1593,-14.15818 26.3541,-14.30881 1.0655,-0.82391 -1.7868,-5.93507 -3.4325,-6.1508 -1.5962,-0.20926 -136.4655,72.05725 -143.2402,76.75192 l -2.1646,1.5 2.0679,3.21547 2.0679,3.21546 5.1737,-2.87931 c 2.8455,-1.58362 23.6237,-12.87599 46.1737,-25.09416 z m 126.1619,24.89608 c 11.732,-4.38951 19.2007,-14.73861 23.4318,-32.4687 2.9674,-12.43429 2.3406,-33.4839 -1.4109,-47.38484 -6.4396,-23.86166 -14.771,-39.04643 -29.6828,-54.09939 -8.7753,-8.85832 -11.7986,-11.22281 -18.4057,-14.39466 -23.7541,-11.40359 -44.105,-0.3186 -51.7357,28.1801 -2.7479,10.26294 -2.9748,31.13303 -0.4632,42.61436 2.8828,13.17861 0.4984,13.05468 22.43,1.1657 20.5813,-11.15694 21.0868,-11.28495 24.6233,-6.23587 0.8532,1.21813 1.5513,3.86265 1.5513,5.87673 l 0,3.66195 -19.75,10.73187 c -10.8625,5.90253 -19.973,10.93994 -20.2454,11.19424 -1.1178,1.04331 9.7879,19.92182 15.9131,27.54677 17.1545,21.35485 36.7577,29.9672 53.7442,23.61174 z m -2.6619,-5.34382 c 0,-0.26966 2.0172,-3.43678 4.4827,-7.03805 11.4757,-16.76189 12.0749,-39.10282 1.8902,-70.47167 -6.8339,-21.04835 -19.952,-43.72026 -29.5379,-51.0502 -8.6105,-6.58412 -17.4358,-9.9498 -26.0899,-9.9498 -4.1186,0 -4.8393,-0.2766 -4.5599,-1.75 0.7102,-3.74486 14.0216,-2.19357 23.88,2.78294 15.6539,7.90206 29.8508,28.56307 39.4875,57.46706 7.0971,21.28658 9.4697,44.31531 5.9556,57.8067 -2.7292,10.47797 -10.0643,22.6933 -13.627,22.6933 -1.0347,0 -1.8813,-0.22063 -1.8813,-0.49028 z m -367.0008,-11.75972 c 0,-2.92925 -6.2919,-13.99571 -13.4992,-23.75 -8.0085,-10.83852 -13.4979,-20.87373 -13.4992,-24.67804 -7e-4,-1.90684 -0.7168,-2.26171 -5.7508,-2.84992 -12.9963,-1.51858 -19.1615,-3.82135 -25.7733,-9.62662 -1.9684,-1.72827 -4.2212,-4.38431 -5.0062,-5.90231 -1.0973,-2.12197 -2.4147,-2.91953 -5.6989,-3.45011 -9.9406,-1.60596 -22.0336,-9.81146 -31.3931,-21.30121 -3.092,-3.79575 -7.1944,-7.16743 -12.7186,-10.4531 -7.4994,-4.46054 -11.9582,-8.33073 -35.1745,-30.5311 -4.7867,-4.57735 -8.2119,-8.99819 -10.7848,-13.9201 -2.0736,-3.96687 -4.1635,-7.45555 -4.6442,-7.7526 -0.4806,-0.29706 -4.8525,-0.73961 -9.7152,-0.98345 -4.9618,-0.24882 -11.8523,-1.37749 -15.7034,-2.57224 -5.6784,-1.7616 -7.3491,-1.92723 -9.684,-0.96008 -3.5056,1.45205 -6.3625,0.83996 -18.9183,-4.05318 -13.561,-5.2849 -16.965,-7.1352 -26.4737,-14.390287 -8.9685,-6.84301 -9.2015,-6.93316 -24.6572,-9.54156 -8.71,-1.46996 -11.4696,-2.38831 -15.5086,-5.16111 -2.7023,-1.85514 -9.6344,-5.08785 -15.4047,-7.18381 -16.3926,-5.95437 -15.8867,-5.52616 -17.4182,-14.74414 -0.4929,-2.96685 -1.3056,-3.90237 -4.9127,-5.6548 -6.8013,-3.30434 -23.4508,-16.34406 -31.5023,-24.67228 l -7.3418,-7.59417 -6.6582,1.62089 c -3.662,0.89149 -7.1997,2.12364 -7.8615,2.73811 -2.0474,1.90073 -4.2093,12.07078 -3.3633,15.8217 1.3577,6.01969 3.8539,8.37554 18.3509,17.31884 7.8187,4.82338 87.2214,53.960487 176.4506,109.193577 99.2154,61.41459 164.4704,101.20954 167.9899,102.44655 5.1877,1.82332 11.6802,3.43378 15.0253,3.72698 0.6875,0.0603 1.2496,-0.45293 1.2492,-1.14043 z M 1192.0491,218.9237 c 61.9991,-29.99241 79.6727,-38.93993 78.6781,-39.83184 -2.4591,-2.20522 -37.4564,-23.48662 -38.6238,-23.48662 -0.647,0 -11.1247,4.9781 -23.2837,11.06244 -12.1591,6.08434 -22.7302,10.82347 -23.4913,10.53139 -1.129,-0.43324 -1.384,-5.27975 -1.3845,-26.31245 l -6e-4,-25.78138 -12.2004,-7.5 c -6.7101,-4.125 -13.9752,-8.57695 -16.1445,-9.89321 l -3.9442,-2.39322 0.3952,41.31634 0.3951,41.31633 -31.7458,14.07688 -31.7459,14.07688 0,12.07625 0,12.07624 10.75,8.6317 c 5.9125,4.74743 11.1199,8.65062 11.5719,8.67375 0.4521,0.0231 36.8043,-17.36463 80.7828,-38.63948 z m 348.264,18.75251 30.8685,-15.13508 -0.6185,-3.09294 c -0.3403,-1.70112 -0.6186,-4.62148 -0.6186,-6.48969 l 0,-3.39674 -5.3131,5.31304 c -5.7362,5.73625 -17.5981,12.47987 -26.6184,15.13293 -10.5617,3.10639 -23.2529,1.48869 -32.9856,-4.20455 l -4.4171,-2.58382 0.7071,2.44294 c 0.389,1.34362 0.9801,8.60893 1.3136,16.14515 l 0.6065,13.7022 3.1035,-1.34917 c 1.7069,-0.74205 16.9943,-8.15997 33.9721,-16.48427 z m -4.3964,-13.15038 c 13.3867,-3.08467 25.498,-12.46689 31.8001,-24.63454 7.5504,-14.57794 9.5594,-26.5481 6.7816,-40.40774 -2.8342,-14.14148 -4.8695,-17.40011 -21.2284,-33.9881 -19.1598,-19.42805 -22.9711,-21.44634 -35.4468,-18.77077 -7.2113,1.54654 -13.1415,7.30821 -19.6679,19.10918 -8.7974,15.90734 -12.3797,28.00188 -8.7108,29.40975 2.2568,0.86605 1.82,2.68087 -1.3844,5.75088 -3.5362,3.38785 -4.5286,8.5865 -3,15.71434 1.3555,6.32046 4.5681,9.89641 8.8909,9.89641 2.5426,0 3.2849,-0.53744 4.1433,-3 1.1909,-3.41616 3.4145,-3.94809 4.3382,-1.03777 1.1999,3.78076 -3.6151,9.03777 -8.2779,9.03777 -1.8959,0 -2.2224,0.38596 -1.7052,2.0157 0.3519,1.10863 0.1324,3.5532 -0.4878,5.43238 -0.9936,3.01074 -0.8401,3.87024 1.292,7.2343 2.6965,4.25461 11.0014,12.33827 14.7528,14.35973 8.1307,4.38129 19.1081,5.90674 27.9103,3.87848 z m -457.0852,-40.86298 c 4.7992,-2.44837 7.1064,-5.93101 7.1365,-10.77243 0.013,-2.08185 -2.3264,-15.57051 -5.1985,-29.97479 l -5.2221,-26.18962 1.0924,-15.31038 c 0.9357,-13.113377 1.5217,-16.386617 4.0835,-22.810387 1.6451,-4.125 3.2704,-9.09247 3.6118,-11.03883 0.6157,-3.51005 0.5569,-3.5801 -7.2294,-8.61307 -9.1993,-5.94622 -12.1612,-10.60462 -12.1612,-19.12631 0,-4.57393 2.5141,-13.39347 4.859,-17.04528 0.4674,-0.72791 3.8731,-2.08646 7.5682,-3.01898 l 6.7183,-1.6955 -5.9468,-6.09633 c -3.2708,-3.3529801 -8.0285,-7.5285501 -10.5728,-9.2790501 -2.8343,-1.95005004 -4.6259,-3.93873 -4.6259,-5.13469 0,-6.47021 12.427,2.72524996 29.6783,21.9606801 9.8163,10.94534 19.5978,19.20129 28.8266,24.33078 10.5553,5.86681 9.9738,6.12845 10.1345,-4.55958 0.4303,-28.60671 16.2014,-50.95347 40.7211,-57.69946 l 5.8605,-1.61237 -12.3605,-8.04458 c -31.6625,-20.60681 -52.9762,-30.01753 -66.6105,-29.41073 -12.3501,0.54963 -19.8972,0.46012 -28.75,-0.34099 -11.8435,-1.07173 -16.1945,0.10504 -21.0648,5.69711 -2.0249,2.32495 -4.5811,6.21636 -5.6806,8.64759 -2.1388,4.72966 -2.0964,9.678 0.2102,24.50834 0.7609,4.89247 0.7653,7.24113 0.015,7.99164 -0.7505,0.75052 -1.34,0.62452 -2.0059,-0.42875 -0.8346,-1.32007 -0.9455,-1.31911 -0.9643,0.008 -0.012,0.825 -0.6455,5.7749999 -1.4085,10.99999986 -3.6585,25.05223014 -3.0881,33.19330014 4.4405,63.38505014 5.3526,21.46515 5.7703,26.07941 3.9367,43.488417 -1.3967,13.25981 -1.998,14.19802 -10.4789,16.34868 -3.8496,0.9762 -10.5232,3.57557 -14.8304,5.77638 -8.6704,4.43029 -16.11,5.53101 -15.4861,2.29123 0.1965,-1.02015 1.6757,-1.98559 3.666,-2.39265 7.1251,-1.45724 6.4956,-4.1563 -1.2756,-5.46923 -3.4906,-0.58974 -4.2447,-0.34844 -6.2704,2.00665 -1.2665,1.47271 -2.3027,3.35365 -2.3027,4.18023 0,0.82658 -1.25254,3.16399 -2.78342,5.19424 -2.36806,3.14052 -2.76522,4.57771 -2.66154,9.63117 0.11971,5.83481 0.21512,6.02556 5.39796,10.79121 6.9683,6.40732 13.4098,9.54401 22.1434,10.78266 7.9451,1.12681 16.8493,5.29098 25.7417,12.03843 10.3021,7.81717 21.939,10.14289 30.049,6.0055 z m -7.8113,-38.3585 c -1.4016,-3.68652 -1.7754,-24.9318 -0.4468,-25.39311 0.7601,-0.26391 1.1628,1.82752 1.2324,6.40101 0.057,3.73614 0.781,9.26799 1.6092,12.29299 0.8281,3.025 1.5111,6.2875 1.5176,7.25 0.017,2.55111 -2.8886,2.14194 -3.9124,-0.55089 z m -28.3257,0.6662 c -0.9625,-0.28158 -1.75,-1.15396 -1.75,-1.93863 0,-1.05535 1.3736,-1.42668 5.2775,-1.42668 3.2548,0 6.1673,-0.62331 7.5994,-1.62635 2.079,-1.4562 2.2584,-2.16242 1.7145,-6.75 -0.3367,-2.83973 -0.165,-5.79229 0.3852,-6.62365 1.0594,-1.60076 1.0944,-1.56844 1.6234,1.5 1.7088,9.911 1.6449,11.10399 -0.7406,13.84733 -1.8378,2.11343 -3.4649,2.80357 -7.3594,3.12162 -2.75,0.22457 -5.7875,0.17794 -6.75,-0.10364 z m 18.4148,-49.882867 c -2.9668,-3.77163 -8.0338,-18.48162 -10.7597,-31.23612 -4.1341,-19.34349 -2.9993,-44.28092 2.5062,-55.0724501 1.9693,-3.86029 3.7781,-5.81775 4.6085,-4.98735 0.2128,0.21274 -0.6847,3.33891 -1.9944,6.9470401 -1.3097,3.60814 -3.1042,10.06035 -3.9879,14.33826 -1.4691,7.11275 -1.4719,8.81333 -0.032,19.8828 2.1633,16.62796 4.0202,24.26194 9.1202,37.49416 2.4057,6.24183 4.3741,11.95278 4.3741,12.69099 0,2.51312 -1.8349,2.48569 -3.8352,-0.0573 z m -10.4982,-125.14911 c -1.4688,-1.46887 -0.552,-5.36024 1.5834,-6.71983 1.2375,-0.78793 5.0726,-2.21044 8.5225,-3.16114 5.3449,-1.47294 6.8744,-2.44746 10.3431,-6.59045 2.2388,-2.67405 4.4787,-4.86191 4.9775,-4.86191 1.9833,0 0.7351,5.41217 -2.1863,9.48015 -3.137,4.36824 -5.665,5.51985 -12.1172,5.51985 -2.1263,0 -3.8333,0.98602 -6.059,3.5 -3.1755,3.58677 -3.9033,3.994 -5.064,2.83333 z m 812.2491,201.588987 c 14.7968,-8.03461 24.0843,-13.65151 24.0843,-14.56574 0,-2.09659 -1.8762,-5.35658 -3.0829,-5.35658 -0.8167,0 -46.5566,24.46343 -47.7589,25.54328 -0.332,0.29814 2.0281,7.45672 2.4584,7.45672 0.1181,0 11.0527,-5.88495 24.2991,-13.07768 z m -654.9366,-11.57675 c 9.9115,-4.75994 18.018,-8.92244 18.0145,-9.25 -0.01,-0.51569 -28.2048,-18.30988 -34.6704,-21.87751 l -2.3232,-1.28193 0,20.53193 c 0,11.29257 0.2156,20.53194 0.4791,20.53194 0.2635,0 8.5885,-3.89449 18.5,-8.65443 z m 55.5544,-51.48813 c -5.4826,-6.51561 -7.8578,-12.766867 -8.3234,-21.906107 -0.5591,-10.97408 0.957,-18.05576 6.0395,-28.21031 4.6856,-9.36156 15.9527,-21.53486 26.4667,-28.59536 15.1552,-10.1772 37.5728,-18.97032 54.6486,-21.4354401 l 8.8046,-1.27106 -10.8348,-5.14816 c -5.9591,-2.83149004 -11.9597,-5.46304 -13.3347,-5.84789 -5.8064,-1.62516 -10.7242,-5.09921 -18.4406,-13.0268299 -7.8788,-8.09452 -8.3615,-8.4146 -12.6257,-8.37239 -2.4386,0.0241 -6.1034,0.64 -8.1442,1.36858 -4.084,1.45804 -5.5879,0.31035 -3.2021,-2.44368 1.148,-1.32512 0.092,-2.46911 -7.8443,-8.5 l -9.1708,-6.96879 -8.1907,-0.3487 c -11.5472,-0.49158 -23.0261,3.08324 -30.8816,9.61737 -4.188,3.48346 -10.3977,11.89354 -12.6711,17.16077 l -1.9117,4.42944 2.7914,2.2845999 c 1.7895,1.46459 4.1557,2.2975 6.5924,2.32056 3.4167,0.0323 3.9498,-0.32016 5.2727,-3.48632 2.1766,-5.2092599 8.2074,-11.4777199 11.0426,-11.4777199 1.311,0 2.3837,0.28718 2.3837,0.63817 0,0.35099 -1.8,2.59094 -4,4.97766 -4.2244,4.58291 -5.3775,8.1303499 -2.25,6.9220099 10.2044,-3.9425999 24.25,-1.97223 24.25,3.40188 0,2.86547 -2.1744,3.03341 -5.3268,0.41143 -3.6676,-3.05059 -5.6205,-2.96663 -14.9996,0.64495 -9.0006,3.46579996 -19.6776,4.58632 -23.661,2.48312996 -1.3819,-0.72965996 -5.4376,-3.83015996 -9.0126,-6.89000996 -9.5775,-8.1973599 -11.0427,-8.7217799 -21.1568,-7.5725399 -26.006,2.95501 -42.0917,16.7338999 -47.4024,40.6047 -2.726,12.25281 -0.8503,39.37862 2.723,39.37862 2.4444,0 22.7555,9.25335 24.4703,11.14822 3.0904,3.41488 6.5944,4.68826 18.8428,6.84771 13.2353,2.33346 18.4856,4.61886 27.1021,11.79728 6.7829,5.650917 11.1304,8.013487 23.6266,12.839507 8.1715,3.15586 9.5031,3.38869 16.1013,2.81551 5.4116,-0.4701 8.0599,-0.24118 10.6931,0.92431 1.925,0.85205 3.6525,1.56679 3.8389,1.58832 0.1864,0.0215 -0.8511,-1.37501 -2.3054,-3.10342 z m -19.9853,-6.10744 c -0.7423,-1.7875 -1.6663,-6.236237 -2.0533,-9.886077 -0.6989,-6.59223 -0.726,-6.63972 -4.0963,-7.18665 -3.5025,-0.56838 -15.9892,-8.16791 -16.7719,-10.20753 -0.2429,-0.63311 -0.075,-1.74384 0.3724,-2.4683 0.6171,-0.99858 1.8436,-0.43597 5.0702,2.3259 2.41,2.0629 5.8121,3.90425 7.8434,4.24519 1.973,0.33116 4.3441,0.80841 5.2691,1.06055 1.3497,0.36789 1.8075,-0.48889 2.3177,-4.33732 1.0117,-7.6315 4.3995,-18.27531 7.9719,-25.04576 3.7275,-7.06427 3.7936,-7.00231 -5.5849,-5.2349 -8.8285,1.66375 -14.5752,6.40878 -22.4363,18.5253 -3.7323,5.75278 -7.3966,10.4596 -8.1429,10.4596 -0.7463,0 -1.7612,-1.06363 -2.2555,-2.36362 -1.0991,-2.89084 -3.57,-3.96461 -6.0585,-2.63279 -4.8271,2.58336 -12.1793,-0.2619 -20.6633,-7.9966 -5.7002,-5.19679 -27.826,-17.00699 -31.8616,-17.00699 -2.7579,0 -3.4572,-2.68335 -0.95,-3.64545 4.9058,-1.88254 28.2708,8.79235 37.1515,16.97362 7.8013,7.18684 8.9411,7.67214 18.0143,7.6699 l 7.8158,-0.002 3.3902,-4.97421 c 4.8546,-7.12273 15.2319,-16.74604 20.6358,-19.13646 3.0004,-1.3272 7.0659,-2.10738 11.5514,-2.21673 3.8068,-0.0928 6.9218,-0.44115 6.9221,-0.77411 2e-4,-0.33295 2.7299,-3.58411 6.066,-7.22479 11.6065,-12.66654 30.7744,-24.8637101 46.5825,-29.6420501 7.8715,-2.37931004 14.852,-2.42383004 14.852,-0.0947 0,0.99265 -2.1513,1.80399 -7,2.64002 -12.4794,2.15172 -22.1069,6.7568801 -36.6222,17.5175201 -16.1794,11.99426 -25.8876,26.01212 -31.3649,45.28862 -3.6656,12.90054 -4.0891,20.50713 -1.6461,29.56764 2.1704,8.049567 2.0621,9.053137 -0.9769,9.053137 -1.3038,0 -2.4582,-1.12272 -3.3417,-3.25 z m -33.0858,-120.499997 c 1.0715,-4.3384 6.3441,-11.90888 11.4018,-16.37088 7.4402,-6.56384 21.8159,-12.87912 29.3173,-12.87912 1.5501,0 2.8185,-0.12612 2.8185,-0.28027 0,-1.22607 -25.2613,-25.81603 -27.9362,-27.19378 -1.8899,-0.97342 -7.5149,-2.84153 -12.5,-4.15136 -4.9851,-1.30983 -13.0677,-4.26154 -17.9614,-6.55936 -8.3438,-3.91782 -9.5645,-4.20533 -19.6129,-4.61934 -6.4543,-0.26593 -12.0622,0.003 -14.1024,0.67686 -1.8629,0.61509 -5.9475,3.55939 -9.0768,6.5429 -7.4484,7.10128 -7.9434,9.61565 -3.8439,19.52623 2.7283,6.59566 2.9088,7.61145 1.5871,8.93316 -1.3217,1.3217 -1.7031,1.2996 -3.3539,-0.19435 -1.7754,-1.60672 -1.9133,-1.52044 -2.9456,1.84332 l -1.0831,3.52893 5.1645,2.59812 c 2.8405,1.42897 7.1335,3.74288 9.5399,5.14202 4.1349,2.40409 4.3135,2.42833 3.25,0.44115 -1.5373,-2.87257 -1.4119,-4.23423 0.3902,-4.23423 0.8335,0 3.7865,3.1126 6.5622,6.91689 2.7757,3.80429 5.5812,7.12799 6.2345,7.386 0.6533,0.258 3.5563,2.36345 6.4511,4.67877 4.4832,3.58578 6.0885,4.26798 10.8311,4.6031 5.608,0.39626 13.56,3.23815 14.8355,5.30192 1.2448,2.01405 3.3409,1.16327 4.0325,-1.63668 z m -45.9624,-37.25 c -1.2077,-1.95411 0.6499,-2.8907 10.035,-5.05938 10.4137,-2.4064 24.0019,-2.39972 26.9094,0.0132 2.6791,2.22348 1.9612,4.38102 -1.1944,3.58981 -7.2913,-1.82808 -15.9052,-1.70243 -24.579,0.35852 -10.1645,2.4152 -10.3459,2.43301 -11.171,1.09785 z"
       id="path3141"
       inkscape:connector-curvature="0" />
  </g>
</svg>
