<?xml version="1.0" encoding="UTF-8" standalone="no"?>
<!-- Created with Inkscape (http://www.inkscape.org/) -->

<svg
   xmlns:dc="http://purl.org/dc/elements/1.1/"
   xmlns:cc="http://creativecommons.org/ns#"
   xmlns:rdf="http://www.w3.org/1999/02/22-rdf-syntax-ns#"
   xmlns:svg="http://www.w3.org/2000/svg"
   xmlns="http://www.w3.org/2000/svg"
   xmlns:xlink="http://www.w3.org/1999/xlink"
   xmlns:sodipodi="http://sodipodi.sourceforge.net/DTD/sodipodi-0.dtd"
   xmlns:inkscape="http://www.inkscape.org/namespaces/inkscape"
   width="190.51665"
   height="165.85437"
   id="svg2"
   version="1.1"
   inkscape:version="0.48.3.1 r9886"
   sodipodi:docname="Bent-knee-hip-raise-2.svg"
   inkscape:export-filename="/home/christian/Dokumente/Code/workspace/opentraining-exercises/Back-extension-on-stability-ball-2.png"
   inkscape:export-xdpi="214"
   inkscape:export-ydpi="214">
  <defs
     id="defs4">
    <radialGradient
       gradientUnits="userSpaceOnUse"
       gradientTransform="matrix(1,0,0,0.91819829,-19.285714,-7.9105395)"
       r="209.56604"
       fy="287.50052"
       fx="398.1105"
       cy="287.50052"
       cx="398.1105"
       id="radialGradient5255"
       xlink:href="#linearGradient5249"
       inkscape:collect="always" />
    <linearGradient
       id="linearGradient5249"
       inkscape:collect="always">
      <stop
         id="stop5251"
         offset="0"
         style="stop-color:#e3e3e3;stop-opacity:1;" />
      <stop
         id="stop5253"
         offset="1"
         style="stop-color:#e3e3e3;stop-opacity:0;" />
    </linearGradient>
  </defs>
  <sodipodi:namedview
     id="base"
     pagecolor="#ffffff"
     bordercolor="#666666"
     borderopacity="1.0"
     inkscape:pageopacity="0.0"
     inkscape:pageshadow="2"
     inkscape:zoom="2.8"
     inkscape:cx="89.331162"
     inkscape:cy="46.336161"
     inkscape:document-units="px"
     inkscape:current-layer="layer1"
     showgrid="false"
     showguides="true"
     inkscape:guide-bbox="true"
     fit-margin-top="0"
     fit-margin-left="0"
     fit-margin-right="0"
     fit-margin-bottom="0"
     inkscape:window-width="830"
     inkscape:window-height="935"
     inkscape:window-x="348"
     inkscape:window-y="117"
     inkscape:window-maximized="0">
    <sodipodi:guide
       orientation="-0.70710678,0.70710678"
       position="-1766.3536,560.63477"
       id="guide2985" />
  </sodipodi:namedview>
  <metadata
     id="metadata7">
    <rdf:RDF>
      <cc:Work
         rdf:about="">
        <dc:format>image/svg+xml</dc:format>
        <dc:type
           rdf:resource="http://purl.org/dc/dcmitype/StillImage" />
        <dc:title></dc:title>
      </cc:Work>
    </rdf:RDF>
  </metadata>
  <g
     inkscape:label="Ebene 1"
     inkscape:groupmode="layer"
     id="layer1"
     transform="translate(-337.78215,-421.42828)">
    <path
       style="fill:#000000"
       d="m 410.41623,585.41517 c -1.89661,-0.67605 -3.86788,-1.64869 -4.38064,-2.16144 -1.79281,-1.79282 0.92533,-5.14815 6.85833,-8.46608 l 5.84809,-3.27043 -6.22058,-5.97877 c -4.11926,-3.95914 -6.22059,-6.66136 -6.22059,-7.9994 0,-2.55365 -4.26547,-11.07862 -5.24141,-10.47546 -0.40082,0.24772 -2.35978,2.56504 -4.35325,5.14959 -4.383,5.68263 -6.27307,11.00699 -6.31993,17.8033 -0.0392,5.67973 -1.73821,9.7584 -4.93867,11.8554 -3.79164,2.48439 -28.87614,0.66996 -36.27119,-2.62357 -4.93936,-2.19985 -9.89991,-7.6646 -8.35751,-9.207 0.28124,-0.28125 -0.28696,-1.07053 -1.26268,-1.75396 -0.97573,-0.68342 -1.77405,-2.14546 -1.77405,-3.24897 0,-2.18267 2.97016,-5.90138 4.71347,-5.90138 1.36246,0 9.09731,-4.07883 12.63867,-6.66476 1.46826,-1.07213 4.07107,-2.48864 5.78404,-3.1478 6.34345,-2.44096 7.1439,-3.53013 16.61637,-22.60971 12.37103,-24.91789 14.77013,-29.05382 18.22712,-31.42259 3.45624,-2.36825 8.10582,-2.58536 11.8738,-0.55441 1.46826,0.79138 4.95561,2.59384 7.74968,4.00548 2.79406,1.41163 5.79731,3.63016 6.6739,4.93005 0.87658,1.2999 3.15821,3.99985 5.0703,5.99989 4.09066,4.2788 7.82897,10.33347 9.4158,15.25007 1.59529,4.9428 1.50325,4.87774 4.89559,3.46032 1.68656,-0.70469 4.20572,-1.28125 5.59813,-1.28125 1.64699,0 3.4185,-0.92567 5.06955,-2.64899 1.39584,-1.45694 3.97347,-3.11087 5.72807,-3.67539 1.75459,-0.56451 3.68633,-1.42003 4.29273,-1.90113 1.32224,-1.04904 7.03557,-0.12366 7.90311,1.28005 0.43055,0.69661 -0.26427,0.81853 -2.3208,0.40723 -1.75906,-0.35181 -3.42776,-0.17837 -4.16421,0.43283 -0.67589,0.56093 -1.46901,0.77977 -1.7625,0.48628 -0.80795,-0.80795 -6.70274,2.47166 -9.14441,5.08759 -1.18652,1.27118 -2.98847,2.31273 -4.00434,2.31456 -1.01589,0.002 -3.12235,0.78093 -4.68106,1.73133 -2.00344,1.2216 -2.94568,1.41621 -3.21511,0.66406 -0.20963,-0.58516 -0.69324,-0.77328 -1.0747,-0.41806 -0.38145,0.35524 -0.23953,1.19296 0.31538,1.86158 0.55492,0.66864 0.74123,1.48342 0.41403,1.81062 -0.32721,0.3272 0.27693,1.40715 1.34249,2.39989 1.06559,0.99273 1.93742,2.1898 1.93742,2.66016 0,0.47035 0.52535,0.85518 1.16744,0.85518 1.16674,0 5.08283,4.64128 5.03759,5.97048 -0.0131,0.38688 -1.2373,-0.6981 -2.72029,-2.41106 l -2.69637,-3.11449 1.41351,2.90197 c 0.77744,1.59608 2.20179,3.39424 3.16524,3.99592 2.42552,1.51476 2.1895,2.28246 -0.54123,1.76046 -1.6261,-0.31086 -2.84222,-1.56893 -4.18166,-4.32588 -1.0388,-2.13815 -2.35511,-3.88754 -2.92515,-3.88754 -0.57005,0 -2.15128,1.6087 -3.51385,3.57489 -1.36257,1.9662 -4.02101,4.96945 -5.90763,6.6739 -3.27299,2.95695 -3.7354,3.099 -10.08752,3.099 -6.137,0 -6.88442,-0.20659 -9.56336,-2.64348 -2.05229,-1.86684 -2.48057,-2.65113 -1.45777,-2.66955 0.79655,-0.0143 1.94677,0.57456 2.55605,1.30869 0.60927,0.73413 1.67137,1.33479 2.36022,1.33479 0.95019,0 0.82423,-0.5906 -0.52192,-2.4471 -1.70264,-2.34816 -2.72541,-5.79692 -4.2883,-14.46012 l -0.7224,-4.00433 -2.47614,6.24094 c -2.02932,5.11477 -2.30908,6.68038 -1.55032,8.67607 0.5092,1.33932 1.35981,2.43512 1.89023,2.43512 0.53042,0 0.71287,0.40697 0.40546,0.90437 -0.30741,0.4974 -0.93169,0.67399 -1.3873,0.39241 -1.25758,-0.77723 -1.01262,0.19315 1.08556,4.30026 1.05266,2.06053 2.15385,4.58789 2.4471,5.61635 0.60438,2.11966 8.49588,9.25323 10.23637,9.25323 2.26926,0 11.69816,-3.65557 14.75476,-5.7204 1.72013,-1.16199 5.52481,-2.79161 8.45486,-3.62139 4.9094,-1.39031 7.97711,-2.71251 10.96579,-4.72631 0.92526,-0.62346 0.67094,-1.83029 -1.23322,-5.85192 -2.46033,-5.19632 -4.86329,-8.08532 -10.22193,-12.28948 -4.47406,-3.51017 -1.80054,-3.02249 3.52928,0.64378 3.67065,2.52497 4.89649,2.95988 6.27032,2.22463 2.61567,-1.39986 10.13151,-1.11407 12.11037,0.46051 1.58991,1.26509 1.28992,1.32951 -3.77103,0.80982 -3.02409,-0.31053 -6.29978,-0.31024 -7.2793,6.5e-4 -1.6921,0.53704 -1.62014,0.84069 1.4425,6.08654 1.77289,3.03671 3.28427,5.62567 3.35861,5.75326 0.0744,0.12758 1.84971,-0.37296 3.94527,-1.11232 2.09556,-0.73936 5.6,-1.34428 7.78766,-1.34428 2.66473,0 4.87974,-0.64242 6.71099,-1.94637 1.50338,-1.07051 6.43523,-3.21878 10.95964,-4.77393 6.50945,-2.23743 8.82729,-3.51211 11.1063,-6.10775 3.02027,-3.4399 7.34277,-6.17448 8.27938,-5.23787 0.76286,0.76286 -1.17342,2.93841 -2.61522,2.93841 -0.65069,0 -2.42053,1.79858 -3.93296,3.99682 -1.73304,2.51889 -3.64086,4.19284 -5.1594,4.52693 -6.42422,1.41341 -11.63303,3.26021 -14.86747,5.27132 -1.95768,1.21724 -3.05887,2.21523 -2.44709,2.21773 0.61177,0.003 1.11231,0.37304 1.11231,0.82341 0,0.45037 -3.10336,0.7707 -6.89636,0.71185 -4.71849,-0.0732 -7.87992,0.3532 -10.01085,1.35024 -4.98408,2.33198 -13.40228,5.66081 -18.58527,7.34921 -2.6359,0.85868 -6.44002,2.63578 -8.4536,3.94913 -2.01358,1.31336 -6.06367,3.1103 -9.00018,3.99322 -2.93652,0.88291 -6.05149,2.35666 -6.92217,3.27499 -0.87068,0.91832 -2.87285,2.33665 -4.44927,3.15184 -3.82914,1.98009 -7.7604,4.92992 -7.7604,5.82303 0,0.39737 0.80086,0.7225 1.77971,0.7225 0.97883,0 1.7797,0.40043 1.7797,0.88985 0,1.34791 6.78529,1.06561 12.37973,-0.51505 2.73483,-0.7727 7.03225,-1.98108 9.54985,-2.68531 3.57856,-1.001 5.29443,-2.1554 7.86312,-5.29015 3.19093,-3.89411 8.7654,-7.52684 11.55002,-7.52684 2.29203,0 1.53676,1.31676 -1.5218,2.65315 l -2.89201,1.26362 4.59636,0.31014 c 4.93692,0.33311 14.40097,-1.73499 17.63418,-3.85347 1.09024,-0.71435 7.41114,-2.08455 14.04646,-3.04488 15.98532,-2.31356 24.46108,-5.16603 26.46257,-8.90586 0.52114,-0.97378 1.5649,-1.7705 2.31946,-1.7705 0.75456,0 2.54242,-1.1705 3.97303,-2.60111 2.1253,-2.1253 2.60111,-3.35421 2.60111,-6.71809 0,-5.9637 -1.85403,-8.85267 -7.34984,-11.4526 -2.58956,-1.22506 -5.49899,-3.11499 -6.46543,-4.19986 -0.96643,-1.08486 -4.5489,-3.31809 -7.96102,-4.96269 -3.41213,-1.64462 -5.50033,-2.99022 -4.64042,-2.99022 2.36354,0 5.95009,-2.67124 5.95009,-4.4316 0,-2.12814 3.33925,-6.20698 5.86889,-7.16874 1.40784,-0.53526 4.0399,-0.27353 8.18003,0.81343 11.31032,2.96943 14.42638,6.34367 14.42638,15.62171 0,5.8335 -1.7411,10.62305 -4.37393,12.03209 -1.4859,0.79524 -1.85504,1.84552 -1.85504,5.27796 0,6.34501 -1.47819,9.67701 -5.21487,11.75488 -1.78131,0.99054 -5.44112,3.19318 -8.13293,4.89475 -5.70215,3.60452 -11.18336,5.34963 -20.46662,6.51618 -8.82941,1.10951 -15.11633,2.51423 -16.53973,3.69554 -1.86688,1.54938 -10.23003,3.47315 -15.14833,3.48458 -8.86188,0.0206 -12.87559,0.97127 -13.74402,3.25543 -0.96464,2.53719 -5.50207,5.43933 -9.73882,6.22893 -1.71296,0.31925 -5.27945,1.3215 -7.92552,2.22723 -5.65675,1.93624 -9.89931,2.03453 -14.65468,0.33949 z m -27.5469,-5.4635 c 2.29131,-0.61461 3.58969,-3.44904 4.69202,-10.24292 1.584,-9.76256 2.6681,-12.08612 10.07552,-21.59502 6.96229,-8.93751 10.7935,-16.3974 12.74524,-24.81679 0.31499,-1.35882 1.3012,-2.86044 2.19156,-3.33695 2.09867,-1.12318 2.8749,-1.09966 2.15495,0.0652 -0.3167,0.51241 0.28307,2.7588 1.33278,4.99197 1.04971,2.23319 1.69531,4.2736 1.43463,4.53427 -0.80613,0.80613 -3.06477,-1.58774 -3.35556,-3.55646 -0.15173,-1.02731 -0.87653,-2.05414 -1.61066,-2.28184 -0.73413,-0.22768 -1.04854,-0.10629 -0.69869,0.26977 0.34984,0.37607 0.21611,1.46845 -0.29717,2.42754 -0.70781,1.32254 -0.51065,2.74524 0.81615,5.88951 0.96216,2.28015 2.03638,6.14789 2.38715,8.59499 0.71242,4.97006 1.61419,7.07541 4.28785,10.01085 2.50199,2.74695 8.20736,2.74474 11.38959,-0.005 3.76589,-3.2534 8.1127,-9.46635 8.10892,-11.59019 -0.006,-3.14811 -5.25108,-17.48384 -7.85648,-21.47151 -2.43265,-3.72327 -6.55525,-8.81952 -11.6709,-14.42726 -2.53745,-2.78154 -3.21599,-3.07933 -5.74888,-2.52301 -4.44131,0.97547 -7.78627,3.94979 -10.52513,9.35885 -1.37783,2.72109 -3.13845,5.47305 -3.91252,6.11547 -0.77406,0.64249 -1.40739,1.51004 -1.40739,1.92796 0,0.41791 -1.72724,3.33525 -3.83829,6.48296 -2.11106,3.14771 -5.95976,10.73115 -8.55266,16.85209 -5.33034,12.58304 -9.08022,17.35297 -15.04762,19.14084 -2.03493,0.60968 -5.68175,2.34052 -8.10405,3.8463 -3.50734,2.18028 -5.09355,2.65048 -7.78943,2.309 -3.48831,-0.44186 -10.94899,2.1269 -10.94899,3.76981 0,1.3836 3.66294,4.35304 7.89961,6.40398 3.26286,1.57952 6.04869,2.00566 15.17805,2.32173 6.14993,0.21292 11.34853,0.54191 11.55246,0.73111 0.5321,0.49366 2.87809,0.40298 5.11794,-0.19782 z m -1.69173,-9.94274 c 1.45773,-1.36172 2.93341,-3.76433 3.2793,-5.33911 0.62771,-2.85793 2.26717,-4.00511 2.26717,-1.58641 0,3.79129 -4.03868,9.40139 -6.768,9.40139 -1.01926,0 -0.66908,-0.70978 1.22153,-2.47587 z m 8.23582,-24.57128 c -0.0509,-2.04851 6.4212,-13.82306 9.34468,-17.00059 2.55783,-2.78009 2.94283,-3.0001 1.75847,-1.00488 -5.58955,9.41636 -7.56598,12.9642 -7.58332,13.61256 -0.0278,1.03899 -3.49564,5.36703 -3.51983,4.39291 z m 9.77932,-6.45398 c -0.006,-0.56182 0.98554,-2.7642 2.2032,-4.8942 1.21764,-2.12998 2.21872,-3.41303 2.22463,-2.85121 0.006,0.56182 -0.98555,2.7642 -2.2032,4.8942 -1.21766,2.12998 -2.21874,3.41303 -2.22463,2.85121 z m 2.61631,-18.92075 c 1.20452,-2.25067 2.95944,-2.46594 2.54465,-0.31214 -0.16386,0.85086 -1.02732,1.68749 -1.91879,1.85917 -1.38815,0.26733 -1.47801,0.0452 -0.62586,-1.54703 z m 4.49179,-7.45885 c 0,-0.93582 6.19848,-4.06809 6.63921,-3.35498 0.25301,0.40939 -0.0383,1.15795 -0.64747,1.66348 -1.25917,1.045 -5.99174,2.38104 -5.99174,1.6915 z m -57.67649,52.63657 c 0.82431,-0.42049 3.0267,-0.7752 4.89419,-0.78825 2.22101,-0.0155 6.41334,-1.50681 12.12057,-4.31152 7.57435,-3.72227 9.12308,-4.87871 11.74233,-8.76809 1.65947,-2.46417 4.3706,-7.83666 6.02475,-11.93886 1.65415,-4.10222 5.53268,-11.4265 8.61897,-16.27621 3.08629,-4.8497 6.76768,-11.07678 8.18087,-13.83793 1.84151,-3.59802 3.7023,-5.73637 6.56816,-7.54786 l 3.9987,-2.52756 -2.45848,-1.49288 c -3.99171,-2.42392 -6.89107,-2.78596 -10.43899,-1.30355 -2.6855,1.12207 -3.75514,2.39819 -5.96072,7.11142 -1.47836,3.15918 -3.02268,5.95085 -3.43182,6.20372 -0.92643,0.57256 -10.00823,19.17124 -12.27698,25.14207 -2.75359,7.24686 -9.25674,15.62015 -13.21875,17.02011 -1.87198,0.66147 -6.24025,2.95514 -9.70726,5.09706 -3.46702,2.14192 -6.58323,3.89439 -6.92494,3.89439 -0.3417,0 -2.0304,0.58877 -3.75264,1.30837 -2.74078,1.14517 -3.0125,1.53043 -2.17852,3.08873 0.76268,1.42508 1.52646,1.67171 3.82732,1.23586 1.58097,-0.29948 3.54893,-0.88854 4.37324,-1.30902 z m 34.58021,-35.42034 c 3.1468,-7.73261 4.41802,-10.1248 5.04643,-9.49639 0.59705,0.59705 -6.09178,15.67691 -6.95366,15.67691 -0.33437,0 0.52388,-2.78124 1.90723,-6.18052 z m 141.46877,3.89796 c 0.47731,-1.25541 0.86783,-5.07773 0.86783,-8.49405 0,-8.8974 -2.04238,-10.63373 -15.45559,-13.13959 -4.70302,-0.87863 -7.68059,0.54226 -7.68059,3.66514 0,1.04191 -0.86478,2.81487 -1.92173,3.93995 l -1.92173,2.04559 3.4091,1.42441 c 1.875,0.78343 5.2425,2.96356 7.48331,4.84473 2.24082,1.88117 5.14594,3.68508 6.45581,4.00867 1.3099,0.32359 3.0738,1.35321 3.9198,2.28804 2.11221,2.33396 3.8126,2.12933 4.84379,-0.58289 z m -55.19292,26.75352 -4.00434,-1.16006 3.55942,-0.0752 c 4.23819,-0.0896 7.56375,0.69481 7.56375,1.78398 0,1.03934 -2.23062,0.8674 -7.11883,-0.54871 z m 13.30524,-1.73442 c 1.91719,-2.04073 9.67068,-5.39636 10.51588,-4.55117 0.83687,0.83688 -0.79162,2.08013 -3.41086,2.60397 -1.51963,0.30393 -3.89228,1.35674 -5.27255,2.33957 -3.42357,2.4378 -4.31245,2.24746 -1.83247,-0.39237 z m 10.7208,-0.49021 c 0.73413,-0.47444 2.0216,-0.86874 2.86105,-0.87624 0.83946,-0.007 2.89449,-1.21492 4.56675,-2.68318 1.67225,-1.46826 3.98867,-2.65738 5.14762,-2.6425 1.99975,0.0257 2.01866,0.0784 0.37102,1.03419 -0.95488,0.55392 -2.69233,2.14348 -3.86098,3.53235 -1.77887,2.11407 -2.80019,2.52301 -6.27254,2.51161 -3.00597,-0.01 -3.78028,-0.25108 -2.81292,-0.87623 z m 9.56592,-7.75619 c -1.3459,-0.20389 -2.4471,-0.74454 -2.4471,-1.20145 0,-1.32827 6.60964,-0.9586 8.50599,0.47573 1.63871,1.23946 1.59038,1.30109 -0.94224,1.20145 -1.46826,-0.0577 -3.77075,-0.27184 -5.11665,-0.47573 z m -22.91372,-7.77202 c 0,-0.70982 -0.69742,-1.68087 -1.54983,-2.1579 -2.33145,-1.30474 -0.57349,-2.33289 1.99099,-1.16443 2.43712,1.11042 3.11563,4.61289 0.89362,4.61289 -0.73413,0 -1.33478,-0.58076 -1.33478,-1.29056 z m 4.39082,-2.49132 c -0.556,-1.10119 -2.27194,-3.09259 -3.81319,-4.42533 -3.3957,-2.93632 -1.73748,-3.24654 2.50621,-0.46886 2.5476,1.66751 4.92484,4.80185 4.92484,6.4933 0,1.30338 -2.77071,0.0788 -3.61786,-1.59911 z m -17.07123,-0.9923 c -4.16718,-1.09748 -4.32423,-2.34465 -0.29524,-2.34465 1.67294,0 3.77522,-0.27518 4.67173,-0.61153 1.37433,-0.51561 1.45675,-0.39808 0.52543,0.74926 -0.60753,0.74844 -0.88121,1.58418 -0.60819,1.8572 1.02672,1.02672 -1.07358,1.19778 -4.29373,0.34972 z m 29.07531,-4.19882 c -1.67379,-1.84951 -1.67189,-1.85139 0.75193,-0.74702 1.33647,0.60893 2.42994,1.44332 2.42994,1.85418 0,1.31035 -1.45096,0.80548 -3.18187,-1.10716 z m -35.08182,0.0745 c -1.1407,-0.73718 -1.10835,-0.86458 0.22247,-0.87622 0.85648,-0.007 1.55724,0.38681 1.55724,0.87622 0,1.08527 -0.10037,1.08527 -1.77971,0 z m 30.13136,-1.42187 c -0.60428,-1.42036 -2.30373,-3.88388 -3.77657,-5.47449 -3.10659,-3.35502 -2.10848,-3.76808 2.15023,-0.88986 1.67747,1.13373 3.26842,3.15086 3.66784,4.65041 0.97331,3.65412 -0.63985,5.00846 -2.0415,1.71394 z m -43.93762,0.51011 c -0.53534,-0.86619 4.59627,-3.53751 6.79555,-3.53751 0.58031,0 2.58052,-1.65231 4.44492,-3.67181 2.47525,-2.68116 3.87883,-3.54392 5.20243,-3.19779 0.99695,0.26071 1.81263,0.15101 1.81263,-0.24377 0,-1.11771 8.67385,-2.92434 11.10751,-2.31352 4.20641,1.05574 9.56997,8.70571 7.94604,11.33329 -0.99204,1.60515 -2.11157,0.63794 -2.9791,-2.57378 -1.10738,-4.09973 -2.81527,-5.22224 -9.14971,-6.01368 -5.56808,-0.69568 -7.47515,0.52946 -3.43143,2.20442 1.54068,0.63817 2.80879,1.97732 3.14647,3.32275 0.88754,3.53623 -0.18319,3.5299 -3.43508,-0.0204 -3.70201,-4.04165 -6.75243,-4.31975 -9.08156,-0.82793 -0.89775,1.3459 -1.54277,2.87853 -1.43337,3.40585 0.11914,0.57434 -0.82576,0.80836 -2.3567,0.58366 -1.40557,-0.2063 -3.78714,0.26178 -5.29236,1.04017 -1.75878,0.90949 -2.93669,1.09174 -3.29624,0.50999 z m 28.93377,-6.20706 c 0,-0.97885 0.18613,-1.77971 0.41362,-1.77971 0.22749,0 0.84223,0.80086 1.36608,1.77971 0.76022,1.42047 0.67673,1.77971 -0.41362,1.77971 -0.77284,0 -1.36608,-0.77287 -1.36608,-1.77971 z m 18.24199,0.88985 c -0.30248,-0.48942 0.0507,-0.88985 0.78482,-0.88985 0.73413,0 1.58226,0.40043 1.88474,0.88985 0.30248,0.48942 -0.0507,0.88986 -0.78483,0.88986 -0.73413,0 -1.58225,-0.40044 -1.88473,-0.88986 z m -10.23331,-5.3107 c 0,-0.47379 1.10119,-1.44279 2.44709,-2.15334 l 2.4471,-1.2919 -2.66956,-1.0512 c -4.76172,-1.87505 -9.00388,-2.06071 -12.07533,-0.52846 -3.51872,1.75536 -4.15381,1.41737 -1.62942,-0.86717 3.49757,-3.16526 17.1561,-1.69747 18.34825,1.97177 0.17911,0.55126 -1.11562,1.85266 -2.87718,2.89201 -3.62559,2.13916 -3.99095,2.23329 -3.99095,1.02829 z"
       id="path3135"
       inkscape:connector-curvature="0" />
  </g>
</svg>
