<?xml version="1.0" encoding="UTF-8" standalone="no"?>
<!-- Created with Inkscape (http://www.inkscape.org/) -->

<svg
   xmlns:dc="http://purl.org/dc/elements/1.1/"
   xmlns:cc="http://creativecommons.org/ns#"
   xmlns:rdf="http://www.w3.org/1999/02/22-rdf-syntax-ns#"
   xmlns:svg="http://www.w3.org/2000/svg"
   xmlns="http://www.w3.org/2000/svg"
   xmlns:xlink="http://www.w3.org/1999/xlink"
   xmlns:sodipodi="http://sodipodi.sourceforge.net/DTD/sodipodi-0.dtd"
   xmlns:inkscape="http://www.inkscape.org/namespaces/inkscape"
   width="899.68842"
   height="846.41132"
   id="svg2"
   version="1.1"
   inkscape:version="0.48.3.1 r9886"
   sodipodi:docname="Bent-arm-pullover-1.svg">
  <defs
     id="defs4">
    <radialGradient
       gradientUnits="userSpaceOnUse"
       gradientTransform="matrix(1,0,0,0.91819829,-19.285714,-7.9105395)"
       r="209.56604"
       fy="287.50052"
       fx="398.1105"
       cy="287.50052"
       cx="398.1105"
       id="radialGradient5255"
       xlink:href="#linearGradient5249"
       inkscape:collect="always" />
    <linearGradient
       id="linearGradient5249"
       inkscape:collect="always">
      <stop
         id="stop5251"
         offset="0"
         style="stop-color:#e3e3e3;stop-opacity:1;" />
      <stop
         id="stop5253"
         offset="1"
         style="stop-color:#e3e3e3;stop-opacity:0;" />
    </linearGradient>
  </defs>
  <sodipodi:namedview
     id="base"
     pagecolor="#ffffff"
     bordercolor="#666666"
     borderopacity="1.0"
     inkscape:pageopacity="0.0"
     inkscape:pageshadow="2"
     inkscape:zoom="0.35"
     inkscape:cx="-8.5352067"
     inkscape:cy="30.50531"
     inkscape:document-units="px"
     inkscape:current-layer="layer1"
     showgrid="false"
     showguides="true"
     inkscape:guide-bbox="true"
     fit-margin-top="0"
     fit-margin-left="0"
     fit-margin-right="0"
     fit-margin-bottom="0"
     inkscape:window-width="1201"
     inkscape:window-height="886"
     inkscape:window-x="166"
     inkscape:window-y="73"
     inkscape:window-maximized="0">
    <sodipodi:guide
       orientation="-0.70710678,0.70710678"
       position="-2419.8276,524.68309"
       id="guide2985" />
  </sodipodi:namedview>
  <metadata
     id="metadata7">
    <rdf:RDF>
      <cc:Work
         rdf:about="">
        <dc:format>image/svg+xml</dc:format>
        <dc:type
           rdf:resource="http://purl.org/dc/dcmitype/StillImage" />
        <dc:title></dc:title>
      </cc:Work>
    </rdf:RDF>
  </metadata>
  <g
     inkscape:label="Ebene 1"
     inkscape:groupmode="layer"
     id="layer1"
     transform="translate(-991.25607,295.0803)">
    <path
       style="fill:#000000"
       d="m 1318.2072,463.39777 -13.2372,-10.7211 -0.013,-15.141 -0.013,-15.141 49.9029,-27.1354 49.903,-27.1353 -0.519,-52.72368 c -0.3674,-37.32044 -0.8503,-53.06099 -1.653,-53.87835 -0.8475,-0.86304 -91.5996,-57.33195 -120.8453,-75.1939 l -3.7113,-2.26672 -82.8215,40.05767 c -45.5518,22.03171 -83.4817,40.05361 -84.2887,40.04865 -0.8069,-0.005 -7.4296,-4.73107 -14.7171,-10.50249 l -13.25,-10.49348 0,-14.29751 c 0,-9.53754 0.3873,-14.68485 1.1634,-15.46098 0.6399,-0.6399 15.0399,-7.3039 32,-14.80887 l 30.8366,-13.6454 0,-40.76868 c 0,-31.6999 -0.282,-41.00274 -1.2678,-41.82085 -0.6973,-0.57869 -13.6301,-8.71016 -28.7396,-18.069937 l -27.4719,-17.01778 -1.1924,5.19749 c -0.6558,2.85863 -2.0896,7.2225 -3.1863,9.6975 -2.1489,4.84991 -4.142,19.682197 -4.142,30.824117 0,4.28343 1.7121,15.20839 4.5119,28.78942 2.4815,12.03755 4.794,25.10721 5.1389,29.04369 0.5544,6.32865 0.3651,7.58096 -1.6351,10.81732 -3.4693,5.61335 -8.836,8.66106 -16.3075,9.26079 -9.0714,0.72818 -16.4931,-1.66135 -23.9831,-7.72173 -7.011,-5.67287 -18.1656,-10.62648 -28.7251,-12.75649 -11.8429,-2.38885 -20.33481,-7.52299 -25.95559,-15.69251 -2.61427,-3.79972 -2.88824,-4.94164 -2.67482,-11.14896 0.20601,-5.9916 0.66486,-7.50357 3.43407,-11.31569 1.75797,-2.42002 3.1963,-5.42486 3.1963,-6.67742 0,-2.93452 4.43514,-6.42254 8.16644,-6.42254 1.5931,0 5.6782,0.93703 9.0778,2.08228 6.8884,2.32053 8.2536,2.21543 18.2558,-1.4054 4.495,-1.62722 7.4122,-3.31826 8.152,-4.72546 0.6336,-1.20528 1.4742,-8.63607 1.868,-16.51287 l 0.7159,-14.321447 -4.0481,-15.80855 c -5.9896,-23.39059 -7.1878,-30.97168 -7.1878,-45.47639 0,-12.33129 0.4481,-16.96064 3.4204,-35.33216 0.7531,-4.65446 1.0993,-12.21042 0.8279,-18.06814 -0.4313,-9.31119 -0.2744,-10.447 2.0873,-15.10744 3.3999,-6.70943 7.1814,-11.06217 12.5905,-14.49252 4.0659,-2.57855 5.2856,-2.8319 13.6332,-2.8319 5.0422,0 11.5916,0.46524 14.5542,1.03386 3.8952,0.74763 7.2649,0.70156 12.1715,-0.16641 6.4514,-1.14126 12.7146,-0.64181 21.2418,1.69393 1.9034,0.52136 2.1017,-0.14898 3.2544,-11.00489 2.2464,-21.15485 9.3142,-37.788863 20.4342,-48.091553 7.5452,-6.99068 14.4944,-9.63558 25.4938,-9.70306 7.6134,-0.0467 8.8108,0.24358 16.5,4.00031 14.6823,7.17346 25.6787,18.05467 35.8151,35.440223 3.7224,6.38441 5.0099,7.76138 8.4197,9.00462 l 4.0253,1.46768 54.2654,-18.08165 54.2653,-18.081653 0,-3.09598 c 0,-5.20779 5.3519,-14.55432 10.0921,-17.62477 4.9845,-3.22864 12.2161,-4.60966 14.4463,-2.75879 1.9395,1.60965 5.2133,-1.25016 10.0665,-8.79356 5.1207,-7.9593 8.1616,-9.47467 17.8951,-8.91783 4.4,0.25173 9.232,1.02732 10.7377,1.72354 2.8008,1.29499 7.7623,9.7017 7.7623,13.15232 0,2.36908 0.8703,2.29561 10.6904,-0.90246 l 8.3096,-2.70612 0,-8.07137 c 0,-5.83792 0.4569,-8.75555 1.6511,-10.54388 3.1541,-4.72325 7.5449,-8.75717 11.4472,-10.51685 3.4862,-1.57206 4.5301,-1.62432 9.3499,-0.46808 6.5031,1.56007 13.4199,0.80432 18.9316,-2.06854 3.1907,-1.66311 4.9348,-1.92843 9.037,-1.3748 6.9628,0.9397 8.4171,1.90247 10.6133,7.0261 1.0443,2.43631 2.2482,4.42966 2.6753,4.42966 0.427,0 28.0055,-9.07225 61.2855,-20.16056 l 60.5091,-20.16056 0.1026,-16.58944 c 0.089,-14.41766 0.4378,-17.85044 2.6626,-26.22177 6.2366,-23.46723 18.956,-39.82307 34.2348,-44.02259 6.6275,-1.82165 16.3518,-1.34013 22.4798,1.11314 7.6338,3.05609 18.151,10.25912 23.1292,15.84071 5.9381,6.65788 13.3209,18.39243 16.5952,26.37687 1.5377,3.74973 3.2557,6.81915 3.8178,6.82094 0.5622,0.002 12.4872,-3.83386 26.5,-8.52368 15.5001,-5.18755 26.352,-8.3149 27.7098,-7.98551 3.7665,0.91375 6.6521,8.78715 4.4754,12.21133 -0.4191,0.65939 -12.8997,5.33509 -27.7347,10.39044 -14.8349,5.05535 -27.0424,9.24085 -27.1277,9.30111 -0.085,0.0603 0.5214,3.70957 1.3484,8.10957 2.1538,11.45942 2.0891,35.78877 -0.1223,46 -3.3175,15.31862 -10.2762,29.2147 -19.054,38.04948 -11.7142,11.79024 -28.8288,14.42517 -44.3552,6.82884 -6.5198,-3.18986 -17.7827,-13.5874 -23.6987,-21.87785 -5.6376,-7.90043 -11.8813,-20.87817 -15.1552,-31.50047 -1.4409,-4.675 -2.6881,-8.601 -2.7716,-8.72444 -0.083,-0.12344 -26.9008,8.68457 -59.594,19.57335 l -59.4422,19.79779 0.031,4.95599 c 0.024,3.83922 0.6522,5.77075 2.7886,8.57166 2.5674,3.36602 2.7123,4.05992 2.0986,10.0499 -0.898,8.76464 0.8954,14.61709 10.6696,34.817993 6.8838,14.22707 8.555,18.7756 11.941,32.5 2.1677,8.78637 3.9447,18.46805 3.9542,21.54365 0.015,4.88376 0.4723,6.17009 3.6381,10.23359 4.448,5.70912 5.3639,11.3733 3.0053,18.58443 -2.5407,7.7675399 -2.1183,10.9495899 2.4108,18.16482 8.8827,14.15089 10.5283,20.66243 9.5341,37.72557 l -0.658,11.29431 4.4738,7.20569 c 7.9233,12.76142 9.0201,16.47472 9.0696,30.705697 0.04,11.49519 -0.1653,12.92091 -2.554,17.73622 l -2.5974,5.23622 9.4004,10.76378 c 13.3878,15.32948 18.2583,26.46572 18.2869,41.81289 0.01,3.69514 0.305,4.15668 3.4103,5.27955 4.5506,1.64552 8.3074,4.71011 10.1558,8.28453 2.3708,4.5846 3.6687,13.62049 2.9035,20.21342 -0.6171,5.31781 -1.2223,6.57189 -5.2486,10.87631 -2.5031,2.67599 -7.7932,6.8862 -11.7559,9.35602 -3.9627,2.46983 -31.2242,16.25572 -60.5812,30.63531 l -53.3763,26.1447 -9.75,0.44683 -9.75,0.44683 0,32.96526 0,32.96525 3.25,-1.9507 c 7.4342,-4.46213 70.5997,-36.21242 72.0427,-36.21242 0.8631,0 7.5629,3.59726 14.8883,7.99392 l 13.319,7.99391 0.5014,15.25609 c 0.4325,13.15431 0.2797,15.46909 -1.1091,16.80229 -1.8733,1.79845 -216.0686,116.96801 -217.4599,116.92491 -0.5128,-0.016 -6.8892,-4.8534 -14.1697,-10.75 z m 121.2794,-52.4594 106.4579,-57.2383 -0.026,-12.51171 -0.027,-12.51171 -11.398,-6.75 c -6.269,-3.7125 -11.9287,-6.75 -12.5773,-6.75 -0.6485,0 -18.1973,8.775 -38.9972,19.5 -20.7999,10.725 -38.5283,19.5 -39.3963,19.5 -0.8681,0 -1.6044,-0.5625 -1.6363,-1.25 -0.032,-0.6875 -0.01,-17.24024 0.054,-36.78386 l 0.1117,-35.53387 -7.593,-2.23389 c -4.2422,-1.24809 -10.9957,-4.3523 -15.3037,-7.03434 -4.2409,-2.64024 -8.3142,-5.1591 -9.0517,-5.59747 -1.1162,-0.66342 -1.2838,8.14808 -1,52.5682 l 0.341,53.36525 -49.712,27 -49.712,27 -0.018,12 -0.018,12 11.2298,9.1926 c 6.1765,5.056 11.3614,9.2185 11.522,9.25 0.1607,0.031 48.1982,-25.6998 106.75,-57.1809 z m 48.5879,-147.2399 c 86.0974,-41.8628 97.1445,-47.84127 101.9949,-55.19793 1.2948,-1.96377 1.8622,-4.65141 1.8629,-8.82389 10e-4,-8.09534 -1.4632,-12.82155 -5.1003,-16.45867 -5.0108,-5.01076 -6.0915,-4.23881 -8.6076,6.14854 -2.6153,10.79664 -9.5164,23.19161 -15.7799,28.34201 -5.358,4.40577 -17.7334,10.9324 -24.4315,12.88487 -15.9274,4.64273 -34.5339,-1.42332 -45.1104,-14.70674 -2.2408,-2.81437 -6.0942,-9.02821 -8.5632,-13.80853 -5.2996,-10.26104 -10.0622,-15.56082 -14.7785,-16.44562 -3.4211,-0.6418 -4.0869,-0.38455 -13.1164,5.06845 -5.3324,3.22022 -10.9336,3.93726 -19.2068,2.45876 l -6.845,-1.22327 -4.9253,3.12352 c -7.4214,4.70653 -15.0499,7.1834 -23.9795,7.7859 -14.8743,1.00359 -29.2092,-4.39702 -45.0856,-16.98577 -4.3768,-3.4705 -12.0014,-8.53152 -16.9434,-11.24672 -6.4065,-3.51974 -12.1471,-7.8819 -20,-15.19756 -22.8353,-21.27299 -24.9311,-23.5243 -28.8138,-30.95168 -2.0736,-3.96687 -4.1831,-7.46761 -4.6876,-7.77941 -0.5045,-0.3118 -4.8777,-0.759 -9.7183,-0.99378 -4.9386,-0.23954 -11.8112,-1.35663 -15.6601,-2.54543 -5.672,-1.75189 -7.3474,-1.91627 -9.6808,-0.94975 -3.5056,1.45205 -6.3625,0.83996 -18.9183,-4.05318 -13.561,-5.2849 -16.965,-7.1352 -26.4737,-14.39029 -8.9685,-6.843007 -9.2015,-6.933157 -24.6572,-9.541557 -8.71,-1.46996 -11.4696,-2.38831 -15.5086,-5.16111 -2.7023,-1.85514 -9.6344,-5.08785 -15.4047,-7.18381 -16.3926,-5.95437 -15.8867,-5.52616 -17.4182,-14.74414 -0.4929,-2.96685 -1.3056,-3.90237 -4.9127,-5.6548 -6.8013,-3.30434 -23.4508,-16.34406 -31.5023,-24.67228 l -7.3418,-7.59417 -6.6582,1.62089 c -3.662,0.89149 -7.1997,2.12364 -7.8615,2.73811 -0.6619,0.61447 -1.8626,3.65788 -2.6682,6.76313 -1.6417,6.3278 -1.0001,11.21909 2.0064,15.2964 2.7092,3.67405 351.2703,219.301587 359.3652,222.311117 9.3238,3.46647 13.4543,4.17452 22.63,3.87928 l 8.1301,-0.26159 24.3699,-11.8493 z m -296.0254,-44.20336 c 61.9991,-29.99241 79.6727,-38.93993 78.6781,-39.83184 -2.4591,-2.20522 -37.4564,-23.48662 -38.6238,-23.48662 -0.647,0 -11.1247,4.9781 -23.2837,11.06244 -12.1591,6.08434 -22.7302,10.82347 -23.4913,10.53139 -1.129,-0.43324 -1.384,-5.27975 -1.3845,-26.31245 l -6e-4,-25.78138 -12.2004,-7.5 c -6.7101,-4.125 -13.9752,-8.57695 -16.1445,-9.89321 l -3.9442,-2.39322 0.3952,41.31634 0.3951,41.31633 -31.7458,14.07688 -31.7459,14.07688 0,12.07625 0,12.07624 10.75,8.6317 c 5.9125,4.74743 11.1198,8.65062 11.5719,8.67375 0.452,0.0231 36.8042,-17.36463 80.7827,-38.63948 z m 343.8676,5.60213 c 13.3867,-3.08467 25.498,-12.46689 31.8001,-24.63454 7.5504,-14.57794 9.5594,-26.5481 6.7816,-40.40774 -2.846,-14.20012 -4.8765,-17.44278 -21.3107,-34.03154 -19.2332,-19.41409 -22.96,-21.38763 -35.3645,-18.72733 -7.2773,1.56069 -13.1301,7.29199 -19.8691,19.45659 -8.7048,15.71323 -12.199,27.64661 -8.5096,29.06234 2.2568,0.86605 1.82,2.68087 -1.3844,5.75088 -3.5362,3.38785 -4.5286,8.5865 -3,15.71434 1.3555,6.32046 4.5681,9.89641 8.8909,9.89641 2.5426,0 3.2849,-0.53744 4.1433,-3 1.1909,-3.41616 3.4145,-3.94809 4.3382,-1.03777 0.7853,2.47429 -0.8392,5.56652 -4.0188,7.64989 -4.696,3.07691 -12.718,-0.32498 -16.0751,-6.81692 -2.48,-4.79564 -2.9846,-16.48874 -0.9191,-21.2952 1.0447,-2.43087 1.779,-6.94473 1.872,-11.50666 0.1436,-7.04554 0.5369,-8.28797 6.403,-20.22602 3.4375,-6.99565 6.25,-12.8989 6.25,-13.11834 0,-0.21944 -1.3138,-0.66174 -2.9196,-0.98289 -3.588,-0.7176 -5.0186,-4.15646 -2.6956,-6.47948 1.4538,-1.45382 1.7665,-1.40132 3.6417,0.61151 3.0377,3.26056 4.443,2.88357 12.6753,-3.40035 5.5333,-4.22362 4.3753,-4.30077 -10.4963,-0.69927 -11.6794,2.82846 -13.2726,2.72768 -15.6162,-0.98781 -1.7206,-2.72765 0.6528,-4.25334 3.6063,-2.31819 2.2452,1.47116 3.1209,1.37533 12.8548,-1.4069 11.9784,-3.42378 15.4229,-3.59404 28.1781,-1.39286 10.2593,1.77046 12.2615,2.60463 18.7715,7.82063 l 4.5,3.60556 2.2157,-2.52541 c 7.3592,-8.38771 4.8271,-28.417617 -5.6997,-45.085547 -2.379,-3.76682 -4.3055,-7.98708 -4.2811,-9.37836 0.024,-1.39129 0.1579,-7.25685 0.2968,-13.03459 0.3113,-12.94644 -1.3124,-19.17999 -8.0736,-30.99502 -6.0704,-10.6079501 -6.9703,-15.9805001 -4.0668,-24.28088 2.2317,-6.37983 2.0745,-7.38092 -2.0836,-13.26952 -2.1817,-3.08964 -3.0658,-5.81745 -3.7275,-11.5 -0.4771,-4.09728 -1.3801,-8.75533 -2.0067,-10.35121 -0.6266,-1.59589 -2.2266,-8.03489 -3.5554,-14.3089 -1.9953,-9.42012 -3.8039,-14.31489 -10.3825,-28.09839 -10.955,-22.953093 -13.4687,-31.556373 -11.3048,-38.691103 0.7479,-2.46579 0.4173,-3.89034 -1.8567,-8 -1.5217,-2.75 -3.0674,-7.025 -3.435,-9.5 -1.0165,-6.84538 -8.4517,-24.88285 -10.7678,-26.1224 -3.6638,-1.96077 -18.9627,1.57693 -21.071,4.8724 -1.2321,1.92583 -4.428,1.49388 -9.0686,-1.22564 -3.5969,-2.10795 -4.7457,-2.33167 -7.7349,-1.50633 -5.0994,1.40803 -8.5521,5.56083 -10.3444,12.44209 -1.6612,6.37763 -2.0259,11.58791 -0.8024,11.4638 3.0473,-0.30911 6.75,-2.69011 6.75,-4.34059 0,-2.8675 1.9406,-2.96855 5.084,-0.26472 2.4346,2.09415 2.8597,3.28697 3.2269,9.05332 0.4435,6.96507 -0.8175,10.22328 -3.5506,9.17447 -0.7806,-0.29954 -2.4945,-0.27474 -3.8088,0.0551 l -2.3895,0.59973 2.1033,4.14937 c 2.6413,5.21063 2.814,5.31224 11.3086,6.6541 14.186,2.2409 17.5907,3.1788 20.5361,5.65715 1.6445,1.38375 2.99,3.37592 2.99,4.42702 0,2.43448 -0.1726,2.41237 -4.5952,-0.58889 -5.0825,-3.44913 -5.6195,-3.16652 -3.4775,1.83044 2.5978,6.06046 5.0716,18.738123 5.0785,26.026523 0,3.37867 -0.7683,12.31347 -1.7144,19.85511 -1.4248,11.35733 -1.514,14.70602 -0.5192,19.5 1.3791,6.64632 12.8437,30.28793 14.6877,30.28793 1.8866,0 4.4504,-3.30018 5.1006,-6.56562 0.5798,-2.91151 0.4284,-3.21163 -6.1483,-12.19346 -3.8156,-5.21092 -5.8966,-16.2409 -3.0641,-16.2409 1.2707,0 2.4923,2.27145 6.0969,11.33714 0.9699,2.43931 5.3683,7.54707 12.0738,14.0211 l 10.5481,10.18395 -0.2519,9.9789099 c -0.1894,7.5007201 0.1929,11.2771101 1.5394,15.2064301 1.8359,5.35752 1.6021,7.27247 -0.8878,7.27247 -3.2611,0 -4.8606,-6.03135 -5.0186,-18.9244501 -0.1502,-12.2506099 -0.1911,-12.4577499 -2.9198,-14.8048799 -4.2938,-3.69338 -7.1786,-2.73913 -12.7859,4.22933 -7.0653,8.7804299 -8.2677,13.79054 -6.9993,29.16526 0.8601,10.42647 1.4,12.8727 3.6491,16.53573 1.4518,2.36446 3.05,4.97401 3.5516,5.79901 0.5016,0.825 1.1876,2.37162 1.5245,3.43693 0.5792,1.83161 0.7517,1.79773 3.1724,-0.62307 1.408,-1.40799 2.8703,-4.07689 3.2495,-5.93089 0.7623,-3.72744 4.1099,-5.45096 4.1099,-2.11602 0,2.33645 -5.5213,13.59081 -7.4547,15.1954 -1.1447,0.95 0.145,2.7288 7.1404,9.84853 7.2071,7.33523 24.3143,28.25297 24.3143,29.73026 0,0.25237 -0.8045,0.45886 -1.7878,0.45886 -2.4801,0 -6.6503,-3.93644 -15.746,-14.86325 -17.2159,-20.68175 -30.7734,-28.16593 -50.9263,-28.11301 -7.2629,0.0191 -10.2091,0.50436 -14.9878,2.46879 -3.2713,1.34477 -6.1394,2.2535 -6.3736,2.01939 -2.1544,-2.15442 6.7697,-8.36881 13.4751,-9.38356 l 4.8464,-0.73341 -4.2287,-2.20692 c -5.2921,-2.7619 -13.8243,-4.72926 -27.0336,-6.23341 -9.0797,-1.0339 -10.549,-0.98072 -12.75,0.46146 -3.0486,1.99753 -3.1257,4.33821 -0.3982,12.09821 1.7577,5.0011 1.9122,6.53642 0.9733,9.67027 -1.3059,4.35868 -5.5972,9.81544 -7.7191,9.81544 -0.9411,0 -1.288,0.63615 -0.9545,1.75 1.9896,6.6448 2.8201,17.13794 2.3488,29.677107 -0.6239,16.59872 -0.4449,17.07418 9.8221,26.08814 3.7584,3.29964 7.5425,7.72724 8.9089,10.42373 7.6075,15.01265 4.7598,33.07679 -6.411,40.66755 -3.7192,2.52725 -6.5345,3.04959 -7.5532,1.40139 -0.949,-1.53555 0.5246,-3.40095 6.5492,-8.2907 5.1254,-4.15996 5.6379,-4.95961 6.6415,-10.36252 2.6086,-14.04453 -2.193,-24.3005 -16.4852,-35.21133 -9.4314,-7.20012 -11.0166,-8.9248 -11.7992,-12.83771 -0.7318,-3.65912 1.243,-5.49914 3.1309,-2.91723 1.0732,1.46762 1.4053,0.99963 2.4852,-3.50205 2.5236,-10.519297 -0.035,-28.859967 -7.0557,-50.578897 -3.5675,-11.03619 -3.8053,-18.07353 -0.8815,-26.08246 9.3688,-25.6624301 9.7386,-28.6473901 5.2315,-42.22502 l -2.8215,-8.5 -0.093,-30 c -0.051,-16.5 0.3223,-31.75648 0.8298,-33.90328 0.5074,-2.1468 3.604,-8.31693 6.8813,-13.711393 8.5405,-14.05771 8.5107,-13.91766 5.8399,-27.38 -2.44,-12.29931 -5.0555,-18.20493 -8.9794,-20.27521 -1.5691,-0.82785 -5.1164,-1.19586 -9.6656,-1.00274 -5.8857,0.24987 -7.6337,0.725 -9.6558,2.62469 -1.358,1.27577 -2.6864,3.15081 -2.9521,4.16675 -0.3991,1.52611 -0.1113,1.71045 1.6558,1.0606 5.0591,-1.86049 7.6389,-2.12479 7.6389,-0.78261 0,1.53516 -4.9468,4.39321 -13.3231,7.69763 -4.0575,1.60064 -5.422,2.55618 -4.5,3.15137 1.076,0.6947 1.043,1.03804 -0.1769,1.83888 -2.516,1.65163 -4.9791,1.14091 -7.4724,-1.54936 -2.3371,-2.52176 -2.4325,-2.53647 -5.7022,-0.87941 -4.647,2.35498 -6.7503,4.3798 -8.876,8.54473 l -1.8377,3.60065 2.222,-0.42478 c 4.5114,-0.8624 7.6508,6.32519 7.6607,17.53922 0.01,7.091563 0.8124,9.160813 5.5263,14.184263 5.448,5.8057 8.4793,11.03926 8.4793,14.63955 0,3.34974 -2.3061,4.83308 -3.281,2.11045 -0.2462,-0.6875 -0.9909,0.775 -1.655,3.25 -0.664,2.475 -3.4077,11.475 -6.0969,20 -10.2623,32.53169 -11.8463,43.3919499 -8.6783,59.5 2.8997,14.7436 2.9599,16.77313 0.6921,23.3264 l -2.1038,6.07901 2.0034,6.67774 c 2.4421,8.1403 1.8778,12.43458 -3.8654,29.41685 -7.785,23.019647 -8.0232,47.929747 -0.5767,60.316277 4.6865,7.79551 6.7288,12.83889 9.2393,22.81631 2.5561,10.15839 2.5338,12.86741 -0.1062,12.86741 -1.5248,0 -1.8037,-0.77469 -5.6431,-15.67337 -1.1678,-4.53175 -3.6246,-10.60085 -5.5141,-13.62168 -2.9993,-4.79497 -3.8965,-5.52644 -7.4821,-6.0998 -5.3898,-0.86186 -17.5671,-7.05432 -18.9487,-9.63588 -1.1524,-2.15328 -0.4799,-5.96927 1.0519,-5.96927 0.4954,0 1.5089,1.16088 2.2523,2.57973 1.4036,2.67884 11.1937,7.40665 15.356,7.41564 2.011,0.004 2.0824,-0.25842 1.1531,-4.24537 -1.4942,-6.41073 -0.213,-29.72215 2.2397,-40.749997 1.162,-5.225 2.0886,-10.0625 2.059,-10.75 -0.03,-0.6875 -0.1195,-2.38214 -0.1997,-3.76587 -0.08,-1.38374 1.0354,-4.22042 2.4792,-6.30375 2.1212,-3.06088 2.622,-4.92913 2.6097,-9.73413 -0.022,-8.38935 -0.793,-9.2874 -5.9715,-6.95223 -2.2762,1.02644 -5.1583,3.07811 -6.4046,4.55925 -2.6608,3.16221 -5.7027,4.94673 -8.4321,4.94673 -3.3273,0 -6.3169,3.22765 -6.5046,7.0224 -0.1361,2.75361 -0.5883,3.4776 -2.1719,3.4776 -1.6395,0 -2.0556,-0.76947 -2.3084,-4.26852 -0.259,-3.58392 0.1486,-4.7256 2.5415,-7.11843 1.6282,-1.62821 5.2458,-3.54643 8.4389,-4.47469 3.6278,-1.05462 6.144,-2.47182 7.1707,-4.03863 0.9135,-1.39429 3.6686,-3.10705 6.5226,-4.05499 4.7251,-1.56943 4.9626,-1.8247 5.4373,-5.84293 0.273,-2.311 1.0793,-6.09449 1.7917,-8.40778 1.1598,-3.76576 1.1048,-4.41652 -0.5254,-6.21782 -1.3772,-1.52185 -2.2611,-1.77613 -3.6291,-1.04403 -3.1785,1.70108 -5.1092,1.18095 -4.7594,-1.28218 0.2856,-2.01087 0.8206,-2.22461 5.0339,-2.01111 3.8493,0.19505 4.6082,-0.0379 4.1356,-1.26927 -1.2386,-3.22774 -14.3021,0.0234 -33.0037,8.21367 -13.409,5.87241 -19.6927,10.10776 -30.3462,20.45394 l -8.5,8.25477 6.4613,0.76653 c 6.6424,0.78802 11.2743,3.20905 11.8626,6.20047 0.4618,2.34852 -2.6554,3.2537 -4.1528,1.20588 -0.8913,-1.21888 -3.3463,-1.8458 -8.8615,-2.26292 l -7.6287,-0.57695 -1.9802,3.88749 c -5.1955,10.19998 -6.7841,25.38437 -3.6255,34.654267 2.0814,6.1087 11.5742,15.73323 15.5178,15.73323 1.5089,0 3.5677,0.3013 4.5752,0.66957 1.7502,0.63976 1.7539,0.58062 0.082,-1.32875 -1.7707,-2.02191 -2.4198,-6.34082 -0.953,-6.34082 2.0963,0 8.4113,8.4492 12.706,17 5.9823,11.91081 7.8524,14.14467 19.1037,22.81991 5.0086,3.86192 10.8367,9.37842 12.9511,12.25889 3.1135,4.24143 5.2198,5.87265 11.0778,8.57921 3.9783,1.83809 7.8665,3.34199 8.6404,3.34199 0.7739,0 5.1909,3.72288 9.8155,8.27306 22.5045,22.14215 49.0778,25.90454 69.3015,9.81208 6.4858,-5.16095 8.607,-5.69252 8.607,-2.15697 0,1.31486 1.026,1.97974 3.75,2.42998 9.8036,1.62044 15.961,0.2968 21.8943,-4.70661 5.5087,-4.64531 16.0528,-2.96888 22.0209,3.50114 1.1909,1.29103 3.7871,5.77933 5.7695,9.97401 3.8678,8.18409 13.0296,19.14309 19.1836,22.94644 8.3207,5.14249 19.8272,7.04266 29.3539,4.84746 z m -63.1895,-46.60361 c -2.5709,-0.67523 -3.1457,-5.96275 -2.3047,-21.20218 1.0142,-18.37914 1.0228,-21.82232 0.068,-27.3648 -1.0199,-5.92175 0.8171,-6.51798 3.1177,-1.0119 1.2043,2.8824 1.4185,5.68659 0.9358,12.25 -0.3443,4.68154 -0.8978,12.15269 -1.2299,16.60255 -0.5422,7.26326 0.2841,14.7381 2.1734,19.66158 0.6768,1.76359 0.3622,1.88491 -2.7605,1.06475 z m -93.0445,-3.44062 c -4.301,-3.20862 -7.5244,-9.65155 -8.2958,-16.58173 -0.7508,-6.74599 -10e-4,-10.81658 1.5346,-8.33174 0.4782,0.77376 1.1793,4.13615 1.558,7.47197 0.8399,7.39974 2.3311,10.07366 8.0484,14.43193 2.4291,1.85174 4.4166,3.76424 4.4166,4.25 0,1.61243 -4.4585,0.85085 -7.2618,-1.24043 z m 65.8334,-21.20031 c -1.6984,-1.24192 -1.3541,-2.24859 5.5589,-16.25 6.9471,-14.07068 7.6742,-15.12972 12.6878,-18.48005 2.964,-1.98065 6.2842,-5.26647 7.5,-7.42226 2.9802,-5.28409 4.6817,-5.6501 4.6817,-1.00707 0,3.9033 -1.8076,6.11885 -10.8568,13.30699 -4.2013,3.33728 -7.7825,9.23101 -10.133,16.67634 -1.7557,5.56133 -6.0042,14.5 -6.8917,14.5 -0.405,0 -1.551,-0.59578 -2.5469,-1.32395 z M 1345.3934,99.70877 c -1.9079,-4.56632 -1.8842,-8.532117 0.051,-8.532117 1.0034,0 1.5,1.003487 1.5,3.031377 0,3.8648 2.4784,4.93466 5.1779,2.23516 1.9406,-1.94064 1.9687,-2.47167 0.7992,-15.106107 -1.3355,-14.42869 -0.9365,-18.67107 2.1217,-22.55898 3.9465,-5.01714 5.5711,-1.75535 1.7785,3.57081 -1.9556,2.7464 -2.0303,3.4275 -0.9497,8.65437 0.6452,3.12036 1.4404,10.46626 1.7673,16.32424 0.5855,10.495127 0.5562,10.688877 -2.0049,13.249997 -1.6797,1.67966 -3.6945,2.59913 -5.6956,2.59913 -2.5882,0 -3.3344,-0.5693 -4.5455,-3.46788 z m 118.3927,-5.86615 c -13.3142,-10.802637 -18.0054,-13.652237 -26.7049,-16.221417 -11.3899,-3.3637 -16.1367,-5.45122 -16.1367,-7.09642 0,-1.98107 3.7538,-1.65284 11.594,1.01379 12.8026,4.35445 22.5566,10.33247 33.406,20.473727 7.6217,7.12431 6.03,8.47408 -2.1584,1.83032 z M 1325.1535,74.192213 c -3.6954,-0.87555 -7.209,-3.6393 -7.209,-5.67055 0,-1.8457 1.3638,-1.68988 5.7404,0.65587 2.5512,1.36736 4.7302,1.81386 6.8819,1.4102 3.8366,-0.71976 5.5622,1.24963 2.8393,3.24062 -2.0201,1.47714 -3.3131,1.53415 -8.2526,0.36386 z m -25.9593,-16.9197 c -4.1562,-4.15621 -9.0133,-13.73231 -7.6544,-15.09121 1.9177,-1.9177 4.152,0.0137 4.8154,4.16271 0.7311,4.57199 5.2538,9.83264 8.4533,9.83264 2.5591,0 3.8265,1.94854 2.0141,3.09649 -2.4451,1.5487 -4.66,0.96783 -7.6284,-2.00063 z m 52.7503,-7.62086 c 0,-0.89444 1.2404,-1.77309 3,-2.125 2.6373,-0.52747 3,-1.01685 3,-4.04832 0,-2.74452 0.3571,-3.38025 1.75,-3.11479 2.7499,0.52413 2.6111,4.23042 -0.2874,7.6752 -2.8272,3.35983 -7.4626,4.36171 -7.4626,1.61291 z m -28.4633,-10.06695 c -4.7449,-1.73719 -16.5367,-9.26499 -16.5367,-10.55689 0,-2.53951 3.4934,-1.71893 8.3759,1.96746 3.2659,2.46576 8.1346,4.88636 12.4875,6.20852 3.924,1.19188 6.8835,2.57336 6.5766,3.06996 -0.819,1.32508 -6.3581,0.97503 -10.9033,-0.68905 z m 202.2274,-3.15805 c -2.7602,-3.12475 -5.7641,-9.65198 -5.7641,-12.52503 0,-1.54255 0.9577,-4.68203 2.1283,-6.97661 1.815,-3.55765 2.0498,-5.31875 1.5946,-11.96016 -0.2936,-4.2835101 -0.1422,-7.7882001 0.3364,-7.7882001 3.1748,0 3.9523,12.7633401 1.3439,22.0596201 l -1.5968,5.69082 2.7509,4.15676 c 3.2245,4.87257 5.0271,4.80604 4.7332,-0.1747 -0.2063,-3.49446 1.6328,-5.51597 3.7997,-4.17673 1.7374,1.07376 1.0403,10.0161 -0.919,11.78924 -2.3848,2.15823 -6.4574,2.1122 -8.4071,-0.095 z m -165.0975,-1.91667 c -0.3666,-0.36666 -0.6666,-2.82028 -0.6666,-5.45249 0,-5.19246 4.5483,-15.02665 12.0487,-26.051 4.8224,-7.0880601 6.7162,-11.57684 7.5563,-17.91044 0.6992,-5.27043 1.8606,-6.85376 3.6874,-5.02695 2.7639,2.76385 -2.7241,17.7667299 -12.2951,33.61194 -3.3846,5.6034 -5.2127,9.86277 -5.6409,13.14284 -0.9063,6.94245 -2.6218,9.75402 -4.6898,7.6861 z m -2.0596,-29.91512 c -1.1012,-2.8694401 -0.6356,-9.9977701 1.4724,-22.54288 2.0326,-12.09706 3.8089,-16.38699 5.9137,-14.28217 0.6766,0.6766 0.1961,3.78237 -1.4633,9.45715 -1.9952,6.82308 -2.3547,9.72693 -1.8674,15.0845199 0.3318,3.64916 0.2982,8.26166 -0.075,10.2500001 -0.6998,3.72985 -2.8986,4.85307 -3.9806,2.03338 z m 163.3959,-17.91055 c -1.8662,-4.9084 -0.5283,-10.50766 2.5106,-10.50766 1.0388,0 1.4295,1.19076 1.3945,4.25 -0.027,2.3375 0.095,5.13276 0.2716,6.21169 0.5143,3.14947 -2.9821,3.18796 -4.1767,0.046 z m -131.3363,-89.174333 c -0.3666,-0.36666 -0.6663,-2.95416 -0.6658,-5.75 8e-4,-5.30812 4.8574,-17.58333 6.9567,-17.58333 1.4429,0 1.3768,0.38112 -1.5259,8.79072 -1.899,5.502 -2.3973,8.45325 -1.9121,11.32518 0.5066,2.99801 0.332,3.8841 -0.765,3.8841 -0.7816,0 -1.7212,-0.3 -2.0879,-0.66667 z m -33.6315,-19.26759 c -1.3012,-2.43139 -1.3378,-5.06574 -0.07,-5.06574 0.5306,0 1.4465,0.9 2.0352,2 0.5887,1.1 1.9545,2 3.0351,2 1.0807,0 1.9649,0.675 1.9649,1.5 0,2.30813 -5.6869,1.95355 -6.9649,-0.43426 z m 34.4301,-19.01726 c -3.3049,-1.33965 -5.0125,-3.90453 -3.5555,-5.34086 0.9583,-0.94478 1.4823,-0.86279 2.4076,0.37674 0.6505,0.87139 2.4202,1.89247 3.9327,2.26905 1.5125,0.37658 2.75,1.35112 2.75,2.16564 0,1.61041 -2.3203,1.83235 -5.5348,0.52943 z m 71.1237,-5.22499 c -2.3341,-3.33231 -4.1826,-12.62982 -2.7883,-14.0241 0.8451,-0.8451 1.2448,-0.77293 1.5699,0.28339 0.2398,0.77947 1.186,3.66722 2.1026,6.41722 2.5206,7.56213 2.8674,9.5 1.7001,9.5 -0.5829,0 -1.7458,-0.97943 -2.5843,-2.17651 z m -18.9223,-16.49016 c -0.3666,-0.36666 -0.6666,-1.49166 -0.6666,-2.5 0,-1.94007 2.4547,-2.52454 3.5,-0.83333 0.3399,0.55 2.1399,1 4,1 3.6892,0 5.428,1.42992 2.9124,2.39522 -2.12,0.81351 -8.9135,0.77038 -9.7458,-0.0619 z m -364.7796,346.72428 c 4.8592,-2.47898 7.113,-5.94863 7.113,-10.9505 0,-2.17979 -2.2959,-15.35813 -5.1019,-29.28518 l -5.1018,-25.32193 0.6755,-13.81602 c 0.6647,-13.595437 1.4433,-17.769757 5.3505,-28.683977 4.092,-11.43034 4.2404,-10.8981 -4.6372,-16.6364 -9.2249,-5.96283 -12.1851,-10.61313 -12.1851,-19.14181 0,-4.57393 2.5141,-13.39347 4.859,-17.04528 0.4674,-0.72791 3.8731,-2.08646 7.5682,-3.01898 l 6.7183,-1.6955 -5.9468,-6.09633 c -3.2708,-3.35298 -8.0285,-7.52855 -10.5728,-9.27905 -2.8343,-1.9500501 -4.6259,-3.9387301 -4.6259,-5.1346901 0,-6.4702099 12.427,2.72525 29.6783,21.9606801 9.8163,10.94534 19.5978,19.20129 28.8266,24.33078 9.8384,5.46834 10.118,5.49152 9.6708,0.80166 -0.5315,-5.57277 1.5227,-19.85547 3.8131,-26.51265 l 1.9353,-5.62512 -4.8765,-9.20365 c -2.682,-5.0620101 -6.1164,-12.80366 -7.6318,-17.20366 -1.5154,-4.4 -2.8758,-8.15932 -3.023,-8.35405 -0.1472,-0.19473 -10.5335,3.06777 -23.0807,7.25 -12.5472,4.18223 -23.7927,7.6040499 -24.99,7.6040499 -4.4147,0 -7.8096,-7.9601899 -5.7187,-13.4089999 0.3925,-1.02284 9.2925,-4.38272 25.4596,-9.61139 l 24.8562,-8.03883 -0.5971,-6.72039 c -0.3284,-3.69622 -0.9758,-7.46075 -1.4387,-8.36564 -1.1634,-2.27419 -10.1733,-4.31663 -17.3834,-3.94063 -11.0623,0.57688 -18.9372,0.48171 -28,-0.33841 -11.8435,-1.07173 -16.1945,0.10504 -21.0648,5.69711 -2.0249,2.32495 -4.5811,6.21636 -5.6806,8.64759 -2.1388,4.72966 -2.0964,9.678 0.2102,24.50834 0.761,4.89247 0.7653,7.24113 0.015,7.99164 -0.7505,0.75052 -1.34,0.62452 -2.0059,-0.42875 -0.8346,-1.32007 -0.9455,-1.31911 -0.9643,0.008 -0.012,0.825 -0.6455,5.7749999 -1.4085,10.9999999 -3.6585,25.0522301 -3.0881,33.1933001 4.4405,63.3850501 5.3526,21.46515 5.7703,26.07941 3.9367,43.488417 -1.3967,13.25981 -1.998,14.19802 -10.4789,16.34868 -3.8496,0.9762 -10.5232,3.57557 -14.8304,5.77638 -8.6704,4.43029 -16.11,5.53101 -15.4861,2.29123 0.1965,-1.02015 1.6757,-1.98559 3.666,-2.39265 7.1251,-1.45724 6.4956,-4.1563 -1.2756,-5.46923 -3.4906,-0.58974 -4.2447,-0.34844 -6.2704,2.00665 -1.2665,1.47235 -2.3027,3.38 -2.3027,4.23922 0,0.85922 -1.2394,2.97381 -2.75421,4.69909 -2.43935,2.77827 -2.73957,3.87623 -2.62619,9.60433 0.12798,6.46534 0.12974,6.46905 5.3688,11.28636 6.9336,6.37546 13.3865,9.51321 22.108,10.75015 7.9451,1.12681 16.8493,5.29098 25.7417,12.03843 10.3021,7.81717 21.939,10.14289 30.049,6.0055 z m -7.8113,-38.3585 c -1.4016,-3.68652 -1.7754,-24.9318 -0.4468,-25.39311 0.7601,-0.26391 1.1628,1.82752 1.2324,6.40101 0.057,3.73614 0.781,9.26799 1.6092,12.29299 0.8281,3.025 1.5111,6.2875 1.5176,7.25 0.017,2.55111 -2.8886,2.14194 -3.9124,-0.55089 z m -28.3257,0.6662 c -0.9625,-0.28158 -1.75,-1.15396 -1.75,-1.93863 0,-1.05535 1.3736,-1.42668 5.2775,-1.42668 3.2548,0 6.1674,-0.62331 7.5994,-1.62635 2.079,-1.4562 2.2584,-2.16242 1.7145,-6.75 -0.3367,-2.83973 -0.165,-5.79229 0.3852,-6.62365 1.0594,-1.60076 1.0944,-1.56844 1.6234,1.5 1.7088,9.911 1.6449,11.10399 -0.7406,13.84733 -1.8378,2.11343 -3.4649,2.80357 -7.3594,3.12162 -2.75,0.22457 -5.7875,0.17794 -6.75,-0.10364 z m 18.4148,-49.88287 c -2.9668,-3.77163 -8.0338,-18.481617 -10.7597,-31.236117 -4.1341,-19.34349 -2.9993,-44.28092 2.5062,-55.07245 1.9693,-3.86029 3.7781,-5.81775 4.6085,-4.98735 0.2128,0.21274 -0.6847,3.33891 -1.9944,6.94704 -1.3097,3.60814 -3.1042,10.06035 -3.9879,14.33826 -1.4691,7.11275 -1.4719,8.81333 -0.032,19.8828 2.1633,16.62796 4.0202,24.26194 9.1202,37.49416 2.4057,6.24183 4.3741,11.952777 4.3741,12.690987 0,2.51312 -1.8348,2.48569 -3.8352,-0.0573 z m -10.4982,-125.149107 c -1.4688,-1.46887 -0.552,-5.36024 1.5834,-6.71983 1.2375,-0.78793 5.0726,-2.21044 8.5225,-3.16114 5.345,-1.47294 6.8744,-2.44746 10.3431,-6.59045 2.2388,-2.67405 4.4787,-4.86191 4.9775,-4.86191 1.9833,0 0.7351,5.41217 -2.1863,9.48015 -3.137,4.36824 -5.665,5.51985 -12.1172,5.51985 -2.1263,0 -3.8333,0.98602 -6.059,3.5 -3.1755,3.58677 -3.9033,3.994 -5.064,2.83333 z m 158.0834,189.626337 c 9.4875,-4.54789 17.2471,-8.53681 17.2436,-8.86427 -0.01,-0.51557 -28.206,-18.31036 -34.6704,-21.87734 l -2.3232,-1.28193 0,20.63892 c 0,16.10726 0.2744,20.53074 1.25,20.14621 0.6875,-0.27099 9.0125,-4.21371 18.5,-8.76159 z m 54.4671,-51.70967 c -5.7171,-7.26505 -7.5435,-12.12234 -8.0089,-21.298667 -0.5567,-10.97611 0.9598,-18.05755 6.0414,-28.21031 4.6525,-9.29545 15.9432,-21.5308 26.2504,-28.44677 13.0591,-8.76251 36.5584,-18.66395 49.308,-20.776 4.2057,-0.69671 4.2925,-0.78844 3.6564,-3.86595 -0.7767,-3.75827 -2.2841,-5.0665201 -8.3778,-7.2707801 -12.0112,-4.34485 -15.0867,-6.29372 -23.3829,-14.8170599 -8.0288,-8.24854 -8.4998,-8.56284 -12.77,-8.52057 -2.4386,0.0241 -6.1264,0.64788 -8.1951,1.38608 -4.2257,1.50787 -5.8271,0.43027 -3.3796,-2.27419 1.4377,-1.58871 0.8637,-2.24337 -7.617,-8.68699 l -9.1719,-6.96879 -7.8282,-0.35785 c -8.7037,-0.39786 -14.4384,0.73996 -22.9919,4.56179 l -5.75,2.56919 0,10.0596 0,10.0596 3.2976,-3.19616 c 2.8761,-2.78767 7.7024,-4.39049 7.7024,-2.558 0,0.35099 -1.8,2.59094 -4,4.97766 -4.1665,4.5201 -5.3739,8.1253399 -2.33,6.9572799 10.497,-4.0280499 24.33,-2.1139399 24.33,3.36661 0,2.89503 -2.1846,3.02503 -5.4316,0.32322 -3.4977,-2.91049 -5.5098,-2.75173 -17.2911,1.3643 l -8.2228,2.87276 -1.6088,5.4343401 c -0.8848,2.98889 -3.4182,9.03317 -5.6298,13.43174 -16.1333,32.08749 -49.3754,34.30618 -75.5344,5.04141 l -6.0619,-6.78157 -1.7279,7.76656 c -2.7745,12.47079 -0.9437,39.60752 2.6721,39.60752 2.4444,0 22.7555,9.25335 24.4703,11.14822 3.0904,3.41488 6.5944,4.68826 18.8428,6.84771 13.2353,2.33346 18.4856,4.61886 27.1021,11.797277 6.7829,5.65092 11.1304,8.01349 23.6266,12.83951 8.1715,3.15586 9.5031,3.38869 16.1013,2.81551 5.4116,-0.4701 8.0599,-0.24118 10.6931,0.92431 1.925,0.85205 3.6503,1.56679 3.834,1.58832 0.1837,0.0215 -0.9939,-1.64836 -2.6169,-3.71086 z m -19.6689,-5.5 c -0.7423,-1.7875 -1.6663,-6.23624 -2.0533,-9.88608 -0.6989,-6.592227 -0.726,-6.639717 -4.0963,-7.186647 -3.5025,-0.56838 -15.9892,-8.16791 -16.7719,-10.20753 -0.2429,-0.63311 -0.075,-1.74384 0.3724,-2.4683 0.6171,-0.99858 1.8436,-0.43597 5.0702,2.3259 2.41,2.0629 5.8121,3.90425 7.8434,4.24519 1.973,0.33116 4.3441,0.80841 5.2691,1.06055 1.3497,0.36789 1.8075,-0.48889 2.3177,-4.33732 1.0117,-7.6315 4.3995,-18.27531 7.9719,-25.04576 3.7275,-7.06427 3.7936,-7.00231 -5.5849,-5.2349 -8.8285,1.66375 -14.5752,6.40878 -22.4363,18.5253 -3.7323,5.75278 -7.3966,10.4596 -8.1429,10.4596 -0.7463,0 -1.7612,-1.06363 -2.2555,-2.36362 -1.0991,-2.89084 -3.57,-3.96461 -6.0585,-2.63279 -4.8271,2.58336 -12.1793,-0.2619 -20.6633,-7.9966 -5.7002,-5.19679 -27.826,-17.00699 -31.8616,-17.00699 -2.7579,0 -3.4572,-2.68335 -0.95,-3.64545 4.9058,-1.88254 28.2708,8.79235 37.1515,16.97362 7.8013,7.18684 8.9411,7.67214 18.0143,7.6699 l 7.8158,-0.002 3.3689,-4.94297 c 5.0662,-7.43326 13.9819,-15.81886 19.9114,-18.72742 4.0194,-1.97162 6.9446,-2.61827 12.2494,-2.70794 3.833,-0.0648 6.9694,-0.39022 6.9697,-0.72318 3e-4,-0.33295 2.73,-3.58411 6.0661,-7.22479 11.6065,-12.66654 30.7744,-24.86371 46.5825,-29.64205 7.8715,-2.3793101 14.852,-2.4238301 14.852,-0.0947 0,0.99265 -2.1513,1.80399 -7,2.64002 -12.4794,2.15172 -22.1069,6.75688 -36.6222,17.51752 -16.1794,11.99426 -25.8876,26.01212 -31.3649,45.28862 -3.6656,12.90054 -4.0891,20.50713 -1.6461,29.567637 2.1704,8.04957 2.0621,9.05314 -0.9769,9.05314 -1.3038,0 -2.4582,-1.12272 -3.3417,-3.25 z m 160.5235,-46.883987 c 0.7153,-1.33668 0.383,-3.85069 -1.1965,-9.05096 -1.9072,-6.2788 -2.035,-7.76866 -0.999,-11.64216 0.6534,-2.44307 1.0611,-4.54335 0.9059,-4.6673 -0.1552,-0.12395 -2.6094,-0.48804 -5.4538,-0.80908 l -5.1716,-0.58372 -0.5896,3.69361 c -0.6021,3.77169 0.5967,9.12704 4.3468,19.41862 1.1473,3.14876 2.0861,6.42163 2.0861,7.27305 0,1.36678 0.2974,1.35312 2.5406,-0.11663 1.3973,-0.91557 2.9863,-2.49751 3.5311,-3.51543 z m 79.9283,-11.6917 c 0,-1.75217 -0.9859,-3.74671 -2.595,-5.25 -5.7011,-5.326 -5.8949,-6.38909 -5.9127,-32.42431 l -0.016,-24 -5.9557,-12 c -5.8564,-11.80003 -5.9624,-12.16365 -6.3571,-21.82083 -0.2562,-6.26746 0.2304,-14.00049 1.3448,-21.37258 2.0354,-13.46496 1.6303,-21.3803 -1.5196,-29.687423 -3.3218,-8.76033 -11.1993,-16.60774 -16.6887,-16.62475 -0.9898,-0.003 -3.5267,-0.48515 -5.6376,-1.07129 -3.3224,-0.92255 -4.1759,-1.80399 -6.354,-6.5615 -1.3838,-3.02268 -3.0317,-5.30158 -3.662,-5.06423 -0.6303,0.23735 -4.986,1.67854 -9.6794,3.20264 l -8.5334,2.7711 0.3922,3.35921 c 0.3106,2.66068 -0.7654,5.38775 -5.1747,13.11443 -3.0617,5.36537 -6.8958,12.982923 -8.5202,16.927893 l -2.9533,7.17268 -0.3386,27.82732 -0.3386,27.82733 3.25,10.42472 c 1.7875,5.7336 3.25,12.2890399 3.25,14.5676299 0,4.68701 -2.7087,15.4724001 -5.8221,23.1827801 l -2.0897,5.17513 6.2059,0.5145 c 38.7217,3.21025 46.9128,5.1002 57.4007,13.24424 3.1621,2.45539 6.8868,4.68652 8.2772,4.95807 1.3904,0.27154 5.453,1.32733 9.028,2.34618 8.8483,2.52174 9,2.50929 9,-0.73894 z m -284.292,-9.28035 c 3.6366,-1.74444 7.7257,-4.72098 9.872,-7.18596 4.8255,-5.54205 10.8922,-18.24681 13.4697,-28.2080001 5.5899,-21.6032899 2.4153,-51.7072799 -8.1222,-77.0193299 -7.7657,-18.6542 -23.1083,-37.006233 -36.4065,-43.547683 -6.3858,-3.14119 -7.7457,-3.43299 -16,-3.43299 -7.4689,0 -9.849,0.40763 -13.833,2.36921 -10.4368,5.13865 -18.951,17.48284 -23.8858,34.630793 -2.035,7.07156 -2.3022,10.16639 -2.3022,26.66701 0,10.26685 0.2553,18.92222 0.5675,19.23415 0.3121,0.31194 8.7625,-2.16899 18.7787,-5.51316 17.5438,-5.85747 18.3035,-6.01988 20.7281,-4.43127 4.7095,3.08583 5.6303,9.1958 1.9416,12.88448 -0.8146,0.81458 -9.2514,4.05222 -18.7485,7.19474 -9.4971,3.14252 -17.6217,6.03426 -18.0547,6.42609 -0.9977,0.90295 3.4618,13.39064 8.0486,22.5379599 10.8947,21.7266801 27.5036,37.2571001 43.2387,40.4308801 6.6702,1.34539 13.731,0.30989 20.708,-3.03692 z m -9.2371,-1.94092 c -0.3558,-0.57582 1.6187,-3.27722 4.3879,-6.00311 6.1574,-6.06102 11.5865,-16.69727 13.7561,-26.9499301 2.2825,-10.7859299 1.3473,-33.4380199 -2.0507,-49.6725299 -8.3226,-39.76293 -24.1002,-62.261003 -47.3142,-67.468113 -3.4396,-0.77151 -5.25,-1.68827 -5.25,-2.65839 0,-2.38609 10.0155,-0.849 16.907,2.59472 18.0152,9.00229 29.557,27.122193 37.4416,58.780883 4.1923,16.83319 5.1207,24.27976 5.1024,40.92343 -0.02,17.9418499 -1.3095,24.60583 -6.7735,35 -3.0438,5.79031 -12.49,16.5 -14.5533,16.5 -0.5534,0 -1.2974,-0.47113 -1.6533,-1.04696 z m 148.8549,-45.27891 c 0.7351,-8.69636 4.6749,-24.28834 11.6166,-45.97352 2.7816,-8.68966 5.0532,-17.23966 5.0478,-19 -0.011,-3.54135 -3.2595,-11.10699 -7.3385,-17.09016 -1.4585,-2.13925 -2.6517,-4.951753 -2.6517,-6.250003 0,-1.29825 -0.1125,-2.36043 -0.25,-2.3604 -0.217,5e-5 -99.0178,33.252333 -102.5862,34.526283 -1.9716,0.70388 19.1147,21.47367 21.8009,21.47367 3.1351,0 9.3846,3.47078 19.1324,10.62549 7.5533,5.54393 9.2564,6.37451 13.0714,6.37451 5.2724,0 7.1962,1.19939 16.5002,10.28669 5.0899,4.97137 9.4396,8.10356 15,10.8012399 4.3072,2.08971 8.3277,3.8248 8.9345,3.85577 0.6563,0.0335 1.3542,-2.91204 1.7226,-7.2695699 z m -265.8526,-5.35529 c -1.7943,-2.73854 -1.8057,-2.74087 -2.775,-0.56864 -0.732,1.64047 -0.5266,2.86279 0.8285,4.93096 1.7944,2.73854 1.8057,2.74087 2.775,0.56864 0.732,-1.64047 0.5266,-2.86279 -0.8285,-4.93096 z m 46.0266,-8.95308 c 22.5501,-7.49884 41.5627,-14.07894 42.2502,-14.62245 1.6285,-1.28746 1.5902,-3.89576 -0.091,-6.19498 -1.2707,-1.73776 -3.4508,-1.14196 -41.5737,11.36162 -22.1279,7.25756 -41.2834,13.59507 -42.5677,14.08336 -2.1771,0.82774 -2.2654,1.16248 -1.3048,4.94725 0.5668,2.23269 1.3131,4.05944 1.6587,4.05944 0.3455,0 19.0782,-6.13541 41.6283,-13.63424 z m 117.924,-16.79846 c 3.3445,-1.33799 8.4423,-2.74597 11.3285,-3.12883 2.8862,-0.38287 5.2477,-0.80235 5.2477,-0.93217 0,-0.12981 -4.1432,-4.37923 -9.2071,-9.44314 l -9.2072,-9.20711 -4.2928,1.20194 c -2.3611,0.66106 -4.2961,1.70595 -4.2999,2.32197 -0.014,2.31752 3.4663,21.62004 3.8986,21.62004 0.2483,0 3.1878,-1.09472 6.5322,-2.4327 z m 108.5762,-68.082943 0,-4.34694 -7.25,2.38111 c -3.9875,1.30961 -21.2,6.96131 -38.25,12.55934 -17.05,5.598033 -41.4351,13.763363 -54.1892,18.145173 l -23.1891,7.96693 0.9688,2.65502 c 0.5328,1.46025 1.1555,3.18925 1.3837,3.84222 0.2776,0.79445 20.2826,-5.4364 60.4703,-18.83435 l 60.0555,-20.021563 0,-4.34694 z m -2,-7.98436 c 0,-0.15731 -0.675,-0.54504 -1.5,-0.86163 -0.9046,-0.3471 -1.5,-0.005 -1.5,0.86163 0,0.8667 0.5954,1.20873 1.5,0.86163 0.825,-0.31659 1.5,-0.70432 1.5,-0.86163 z m 83.8008,-15.09398 14.3009,-4.90602 -0.6401,-3.5 c -0.352,-1.925 -0.7966,-3.65926 -0.9881,-3.85391 -0.1914,-0.19466 -7.3513,1.98019 -15.9108,4.83299 -9.8513,3.28336 -15.5627,5.68305 -15.5627,6.53882 0,2.72855 2.0631,6.67269 3.2639,6.23977 0.6798,-0.2451 7.6714,-2.65334 15.5369,-5.35165 z m 257.5915,0.97597 c 7.7506,-2.64091 15.8109,-10.93789 21.136,-21.75675 6.1358,-12.46592 8.5565,-22.3755 9.1961,-37.64572 0.897,-21.41508 -3.1306,-41.94178 -11.6708,-59.47952 -14.6141,-30.01103 -36.3843,-44.037 -56.5536,-36.43613 -7.903,2.97825 -16.7631,11.79429 -21.2621,21.1564 -6.4201,13.35981 -8.4593,22.55151 -8.9916,40.52973 -0.3989,13.47083 -0.2424,16.25 0.9151,16.25 0.7679,0 10.1433,-2.92435 20.8343,-6.49856 10.6909,-3.57421 20.2453,-6.24232 21.2321,-5.92913 4.5595,1.44712 6.3759,11.37799 2.5222,13.78964 -1.2375,0.77443 -11.3268,4.4103 -22.4206,8.07972 l -20.1706,6.67165 1.9742,7.12413 c 7.0999,25.62092 24.4151,48.19056 41.7111,54.36887 5.0898,1.8181 15.8838,1.70572 21.5482,-0.22433 z m -6.3923,-4.40373 c 0,-0.56196 2.4289,-3.45068 5.3976,-6.41939 5.9575,-5.95745 10.6068,-14.51975 13.3356,-24.55887 2.9003,-10.67043 2.3791,-37.82698 -1.0385,-54.10155 -7.4853,-35.64553 -19.8607,-53.93166 -40.2308,-59.44559 -4.2791,-1.15828 -6.4639,-2.25363 -6.4639,-3.24057 0,-1.19932 0.9679,-1.37623 4.9497,-0.90465 7.7988,0.92365 15.7828,5.27618 23.1668,12.6295 15.4755,15.41116 25.2266,47.37978 25.1833,82.56286 -0.022,17.98514 -1.6338,26.2756 -7.2841,37.46892 -4.8009,9.51046 -17.0157,21.00287 -17.0157,16.00934 z m -101.2567,-46.72377 c 82.2267,-27.40225 83.2567,-27.77807 83.2567,-30.37755 0,-1.44763 -0.596,-3.12667 -1.3244,-3.7312 -1.0001,-0.83003 -21.6283,5.65909 -84.25,26.50304 -45.6091,15.1812 -83.2594,27.902 -83.6674,28.26845 -0.7525,0.67591 1.2415,7.08277 2.2043,7.08277 0.2883,0 37.9896,-12.48548 83.7808,-27.74551 z m 190.5067,-65.74866 c 2.0846,-0.85746 2.2626,-3.42257 0.4128,-5.9522 -1.2676,-1.73361 -2.6889,-1.37805 -27.352,6.84276 l -26.0149,8.67139 1.0231,3.83289 1.023,3.83288 24.579,-8.25395 c 13.5184,-4.53968 25.3665,-8.57787 26.329,-8.97377 z"
       id="path3143"
       inkscape:connector-curvature="0" />
  </g>
</svg>
