<?xml version="1.0" encoding="UTF-8" standalone="no"?>
<!-- Created with Inkscape (http://www.inkscape.org/) -->

<svg
   xmlns:dc="http://purl.org/dc/elements/1.1/"
   xmlns:cc="http://creativecommons.org/ns#"
   xmlns:rdf="http://www.w3.org/1999/02/22-rdf-syntax-ns#"
   xmlns:svg="http://www.w3.org/2000/svg"
   xmlns="http://www.w3.org/2000/svg"
   xmlns:sodipodi="http://sodipodi.sourceforge.net/DTD/sodipodi-0.dtd"
   xmlns:inkscape="http://www.inkscape.org/namespaces/inkscape"
   width="215.24866"
   height="237.5106"
   id="svg2"
   version="1.1"
   inkscape:version="0.48.3.1 r9886"
   sodipodi:docname="Bicep-curls-1.svg">
  <defs
     id="defs4" />
  <sodipodi:namedview
     id="base"
     pagecolor="#ffffff"
     bordercolor="#666666"
     borderopacity="1.0"
     inkscape:pageopacity="0.0"
     inkscape:pageshadow="2"
     inkscape:zoom="0.7"
     inkscape:cx="8.0397569"
     inkscape:cy="-50.880333"
     inkscape:document-units="px"
     inkscape:current-layer="layer1"
     showgrid="false"
     fit-margin-top="0"
     fit-margin-left="0"
     fit-margin-right="0"
     fit-margin-bottom="0"
     inkscape:window-width="661"
     inkscape:window-height="760"
     inkscape:window-x="139"
     inkscape:window-y="90"
     inkscape:window-maximized="0" />
  <metadata
     id="metadata7">
    <rdf:RDF>
      <cc:Work
         rdf:about="">
        <dc:format>image/svg+xml</dc:format>
        <dc:type
           rdf:resource="http://purl.org/dc/dcmitype/StillImage" />
        <dc:title></dc:title>
      </cc:Work>
    </rdf:RDF>
  </metadata>
  <g
     inkscape:label="Ebene 1"
     inkscape:groupmode="layer"
     id="layer1"
     transform="translate(-412.40385,-598.98974)">
    <path
       style="fill:#000000"
       d="m 491.71956,833.41618 c -1.90072,-1.59935 -3.07673,-3.52947 -3.07673,-5.04966 0,-1.35343 -0.65206,-3.72171 -1.44902,-5.26286 -1.63236,-3.15665 -1.69306,-3.69572 -1.58277,-14.05707 0.0461,-4.32929 -0.80933,-11.30445 -2.03889,-16.62542 l -2.11829,-9.16694 2.17168,-7.37458 c 1.19443,-4.05602 2.56312,-10.44562 3.04154,-14.19912 0.47841,-3.75349 1.35091,-8.28217 1.93887,-10.06373 0.58797,-1.78155 1.00508,-6.18856 0.92692,-9.79334 -0.11116,-5.12629 -0.46577,-6.52847 -1.62769,-6.43627 -2.53507,0.20116 -3.95341,-3.0459 -2.41,-5.5173 1.96819,-3.15158 3.62143,-14.29205 3.39313,-22.86482 -0.16474,-6.18587 0.008,-7.14956 0.98746,-5.5 2.41055,4.06092 0.88622,21.94969 -2.40896,28.27021 -0.8478,1.62617 -0.87705,2.57672 -0.10311,3.35066 0.77394,0.77394 1.2696,0.48452 1.74718,-1.02021 0.90759,-2.85957 2.53195,-2.65644 2.53195,0.31663 0,1.94021 0.87963,2.75323 4.45686,4.11939 7.36227,2.81167 15.54314,0.33485 15.54314,-4.7058 0,-3.33341 2.37534,-5.83088 5.54575,-5.83088 1.65846,0 2.88351,-0.92941 3.95425,-3 2.18126,-4.2181 3.82995,-3.75977 1.79861,0.5 -0.91797,1.925 -2.38556,3.5 -3.26132,3.5 -4.99175,0 -7.9315,6.33595 -4.06121,8.75299 2.84084,1.77413 7.99728,11.22039 8.04997,14.74701 0.0247,1.65 0.68793,4.125 1.47395,5.5 2.06213,3.60732 1.97973,8.12132 -0.13344,7.31042 -1.45579,-0.55864 -1.553,0.12425 -0.89386,6.27928 0.40677,3.79834 1.59182,8.5766 2.63344,10.61835 2.21569,4.34311 2.42707,10.87586 0.71569,22.11874 -1.41748,9.31218 -1.16692,9.63509 7.49391,9.6579 3.19866,0.008 6.72159,0.5001 7.82874,1.09263 3.60573,1.92973 10.6671,2.09224 13.38996,0.30815 3.0281,-1.98408 1.97704,-3.83317 -2.7119,-4.77096 -3.40904,-0.68181 -14.79603,-12.05911 -15.97286,-15.95927 -0.35768,-1.18538 -0.70591,-5.98024 -0.77386,-10.65524 -0.0679,-4.675 -0.5513,-10.3 -1.07414,-12.5 -0.6115,-2.5731 -0.58901,-6.9747 0.063,-12.3389 0.99573,-8.19134 0.64817,-12.1611 -1.06468,-12.1611 -0.47587,0 -1.14357,0.87698 -1.48376,1.94885 -0.90337,2.84626 -4.55361,3.72053 -6.19004,1.48257 -0.72941,-0.99752 -1.3262,-2.5028 -1.3262,-3.34506 0,-1.07918 0.45967,-0.87511 1.5567,0.69113 2.22264,3.17326 4.11406,2.75015 5.42198,-1.2129 0.62359,-1.88948 1.5395,-3.57698 2.03537,-3.75 0.49587,-0.17303 0.63397,-2.88887 0.30689,-6.03522 l -0.59468,-5.72064 -2.61313,1.85774 c -4.5518,3.23599 -10.54832,4.56012 -14.06134,3.10498 -3.05964,-1.26734 -4.45262,-3.77298 -1.45889,-2.62417 4.39584,1.68684 6.52345,1.63828 10.56823,-0.24121 6.64209,-3.08637 9.6155,-5.77057 8.08887,-7.30208 -0.6875,-0.68969 -1.25,-2.29793 -1.25,-3.57386 0,-1.27593 -1.08498,-4.99003 -2.41107,-8.25356 -1.68068,-4.13616 -2.25659,-7.08544 -1.90112,-9.73566 0.38826,-2.89471 0.0618,-4.20756 -1.36817,-5.50164 -1.74076,-1.57537 -2.27152,-1.58435 -7.25742,-0.12278 -4.2588,1.24844 -7.06473,1.39533 -13.47076,0.7052 -4.68917,-0.50516 -7.88122,-1.28294 -7.59146,-1.84975 0.70384,-1.37678 1.98157,-1.43402 7.91956,-0.35475 5.62672,1.02269 14.43114,-0.24071 17.54502,-2.51763 1.44065,-1.05343 1.6121,-2.18764 1.03224,-6.82871 l -0.69536,-5.56545 -3.65073,0.95452 c -2.0079,0.52498 -4.55073,1.06325 -5.65073,1.19615 -4.95093,0.59815 -7.36127,1.79189 -6.76349,3.34967 0.41393,1.07869 0.21465,1.33211 -0.63474,0.80715 -0.68097,-0.42085 -1.0176,-1.33984 -0.74809,-2.04219 0.26952,-0.70234 0.0979,-1.66932 -0.38128,-2.14884 -0.49541,-0.49573 1.30969,-0.96483 4.18412,-1.08736 6.00562,-0.25601 7.59833,-1.35753 8.1102,-5.60897 l 0.38233,-3.17553 0.80048,3.25 c 0.90642,3.68018 2.45999,4.11245 4.93823,1.37403 2.34127,-2.58708 2.97837,-7.61036 1.79151,-14.12537 -0.69099,-3.79307 -0.67486,-5.89388 0.052,-6.77283 0.57955,-0.70079 0.80584,-1.52204 0.50287,-1.82501 -0.9181,-0.91811 -9.73414,0.75157 -9.73414,1.84357 0,0.60414 1.42145,0.78663 3.5,0.44932 3.84748,-0.62436 4.84467,0.71267 1.25,1.676 -3.47423,0.93106 -4.47325,0.76418 -6.28775,-1.05031 -1.57414,-1.57414 -1.74106,-1.57258 -2.63496,0.0247 -0.5249,0.93795 -2.95077,2.64378 -5.39083,3.79074 -2.56018,1.20343 -4.44792,2.77892 -4.46356,3.72525 -0.0149,0.90193 -0.4329,5.83484 -0.92888,10.96201 -0.80433,8.31458 -1.34663,10.07091 -5.01756,16.25 -3.91254,6.58578 -4.29874,6.92769 -7.82112,6.92413 -4.20758,-0.004 -9.35798,-2.77339 -11.64215,-6.25947 -0.87115,-1.32956 -1.44995,-4.07738 -1.32654,-6.29774 0.12041,-2.16648 -0.1389,-4.95155 -0.57625,-6.18905 -1.19964,-3.39444 0.89475,-2.73817 2.33156,0.73059 0.67903,1.63932 0.94773,4.12356 0.59712,5.52052 -0.35062,1.39696 -0.16155,3.42923 0.42015,4.51614 1.19886,2.24009 7.95254,5.98275 10.79594,5.98275 4.23739,0 9.18511,-9.61116 10.29579,-20 0.44101,-4.125 1.23926,-10.82379 1.77391,-14.88619 0.99423,-7.55456 0.33976,-11.4816 -2.04827,-12.29029 -0.72963,-0.24708 -3.5766,-0.066 -6.3266,0.40233 -3.84701,0.6552 -5.26166,1.40878 -6.13472,3.26795 -0.8463,1.80218 -0.8463,2.52009 0,2.82439 2.34975,0.84488 -0.49596,1.83815 -14.22353,4.96461 -10.87329,2.4764 -14.12779,3.58279 -14.13386,4.80489 -0.007,1.36322 1.86538,1.12019 13.24211,-1.71902 15.85448,-3.95668 16.33106,-3.98769 17.19164,-1.11867 0.65459,2.18228 0.70002,2.1898 1.5093,0.25 1.5593,-3.73758 2.31245,0.92809 1.07976,6.68897 -0.85675,4.00392 -2.23093,6.50387 -5.58357,10.15778 -4.4285,4.82644 -5.38268,5.26986 -3.41057,1.58494 0.81205,-1.51734 0.59547,-2.41029 -1,-4.12282 -1.31332,-1.40969 -2.00453,-3.45076 -1.94637,-5.74743 l 0.0902,-3.56144 0.91139,3 c 0.50127,1.65 1.78331,4.12279 2.84898,5.49508 l 1.93758,2.49508 2.03887,-4.49508 c 2.46768,-5.44045 2.54524,-6.88984 0.52323,-9.77667 -1.20563,-1.72127 -2.17019,-2.08498 -4.25,-1.60257 -1.47974,0.34322 -3.2707,1.35538 -3.97991,2.24923 -1.13494,1.43041 -1.41415,1.446 -2.32966,0.13006 -0.99893,-1.43586 -0.95488,-0.34469 0.33905,8.39724 0.15405,1.04081 -0.24092,2.07697 -0.87771,2.3026 -1.19313,0.42275 -3.61565,-8.44349 -2.7082,-9.91179 0.71148,-1.15119 -0.42642,-0.98735 -7.81246,1.12487 -3.66966,1.04943 -6.87197,1.70819 -7.11625,1.46391 -0.24428,-0.24428 -0.65335,3.0596 -0.90905,7.34195 -0.71981,12.05522 -5.41596,19.43154 -13.11651,20.60233 -4.52217,0.68754 -7.67053,-0.34301 -10.70775,-3.50498 -3.69977,-3.85172 -8.23135,-15.81126 -5.99103,-15.81126 0.56048,0 1.02345,0.7875 1.02882,1.75 0.0168,3.00233 4.66333,11.90763 7.10574,13.61835 1.33288,0.93359 4.2934,1.63165 6.91991,1.63165 3.71217,0 5.08669,-0.52612 7.18447,-2.75 5.99072,-6.35081 8.32122,-19.40895 5.31884,-29.80222 -2.3539,-8.14842 -5.31665,-13.11919 -9.17704,-15.39688 -2.7257,-1.60821 -3.87049,-1.75115 -7.05756,-0.88127 -2.09227,0.57107 -4.43976,1.55402 -5.21665,2.18434 -2.32023,1.8825 -5.02985,9.02078 -5.93413,15.633 l -0.84818,6.20199 2.59742,-0.54448 c 9.59446,-2.01124 8.95418,-2.06333 9.66949,0.78669 0.36746,1.46409 0.35163,2.97846 -0.0352,3.36527 -0.38681,0.38682 -6.2986,2.09014 -13.1373,3.78517 -10.16718,2.52001 -12.63352,2.84144 -13.52846,1.76311 -1.69249,-2.03932 -0.19615,-6.34472 2.2051,-6.34472 1.12097,0 3.94057,-0.47904 6.26578,-1.06453 l 4.22765,-1.06454 1.17767,-7.40181 c 1.24425,-7.8202 3.7462,-13.79923 7.00911,-16.74999 1.0831,-0.97948 4.30452,-2.05745 7.15871,-2.39549 4.86328,-0.57598 5.39702,-0.41341 8.49236,2.58671 2.86916,2.78091 6.32992,8.97779 7.92652,14.19336 0.44858,1.46537 1.08501,1.46993 7.3776,0.0528 l 6.88668,-1.55088 -0.032,-5.05283 c -0.0245,-3.86808 0.6005,-5.99071 2.66563,-9.05283 4.76547,-7.06612 6.17875,-8.41754 10.96109,-10.48133 2.58115,-1.11388 4.92554,-2.40148 5.20975,-2.86135 1.22622,-1.98405 0.78355,-9.95768 -0.74254,-13.3752 -2.11626,-4.73913 -2.13021,-11.66611 -0.0295,-14.66525 3.68886,-5.26658 15.17022,-6.92425 19.85657,-2.86687 4.0197,3.4802 5.90812,13.91123 4.09921,22.64277 -0.75285,3.63398 -1.16623,6.94473 -0.91863,7.35723 0.24761,0.4125 1.49354,0.75 2.76873,0.75 1.2752,0 2.87702,0.67293 3.55961,1.4954 0.68259,0.82247 3.01827,2.02786 5.19039,2.67864 3.52664,1.05661 7.08191,4.1314 8.01554,6.93228 0.32356,0.97069 11.52174,-0.29565 15.24345,-1.7238 0.85494,-0.32807 1.55444,-0.14832 1.55444,0.39944 0,0.54777 -3.0375,1.74659 -6.75,2.66405 -3.7125,0.91746 -8.1,2.05047 -9.75,2.51779 -1.65,0.46732 -6.6,1.61093 -11,2.54136 -4.4,0.93042 -8.42,2.08989 -8.93333,2.5766 -2.14101,2.02992 0.86992,2.04776 9.1436,0.0542 9.67361,-2.33092 27.29551,-6.09558 28.64814,-6.12027 0.80591,-0.0147 0.3788,-2.93095 -0.92803,-6.33651 -0.92574,-2.41242 6.21234,-6.67916 11.17395,-6.67916 4.05679,0 4.15292,0.0804 4.77968,4 0.35179,2.2 0.92791,4 1.28027,4 2.05705,0 25.99537,-6.31822 26.76905,-7.06536 2.89698,-2.79758 -4.52082,-1.68812 -25.68333,3.84137 -0.9625,0.25149 -1.75,-0.0233 -1.75,-0.61057 0,-0.5873 3.6,-1.84142 8,-2.78693 l 8,-1.71911 0,-4.1482 c 0,-5.19574 2.60711,-14.14492 5.17044,-17.74807 2.45647,-3.45293 10.08233,-5.91201 14.05405,-4.53195 4.0218,1.39746 8.42,6.96522 10.35753,13.11177 1.6841,5.34258 1.74931,5.40537 4.81261,4.63356 6.98643,-1.76025 8.60537,-1.97326 8.60537,-1.13221 0,0.48533 -2.64485,1.44369 -5.87745,2.12969 -4.83619,1.02631 -5.79517,1.5619 -5.41304,3.02319 0.4289,1.64012 0.85922,1.6708 5.62745,0.40124 6.16065,-1.6403 5.66304,-1.59131 5.66304,-0.55755 0,0.46248 -2.41124,1.38048 -5.35832,2.04001 l -5.35831,1.19914 -0.57615,6.87226 c -0.61609,7.34868 -3.70192,15.82796 -6.77101,18.60545 -2.80931,2.54239 -9.78545,3.5321 -13.6158,1.93168 -3.49254,-1.45928 -7.44694,-6.88199 -9.29629,-12.74813 -2.02723,-6.43033 -0.53449,-6.40605 1.81202,0.0295 2.83483,7.77478 6.68577,11.22924 12.51808,11.22924 5.18386,0 8.01213,-1.89674 10.90917,-7.31608 1.94328,-3.63519 2.23661,-5.69216 2.23661,-15.68392 0,-10.49801 -0.23762,-11.98383 -2.72718,-17.05303 -5.44632,-11.08969 -16.21063,-12.62976 -21.57415,-3.08666 -1.9653,3.49678 -4.92763,16.74406 -3.96054,17.71116 0.25434,0.25433 2.81322,-0.0802 5.6864,-0.74341 4.39108,-1.01358 5.36912,-0.97642 6.1344,0.23305 2.17029,3.42998 0.18466,4.83875 -10.6605,7.5634 -5.44414,1.36774 -11.55465,2.92068 -13.57892,3.45097 -2.11743,0.5547 -3.85588,1.69896 -4.09345,2.69435 -0.22713,0.95159 -1.23218,-1.08233 -2.23346,-4.51983 -2.04556,-7.02266 -2.6203,-7.28254 -9.35109,-4.22836 -3.95832,1.79614 -4.29628,2.22558 -3.68091,4.6774 0.37267,1.48482 1.79229,3.73276 3.15472,4.99542 2.10102,1.94716 2.37716,2.86587 1.81867,6.05064 -0.80523,4.59179 -2.73165,7.79109 -7.13999,11.85776 -1.84996,1.70658 -4.47291,4.6065 -5.82878,6.44428 -1.35587,1.83778 -2.46522,2.84675 -2.46522,2.24216 0,-0.60459 -1.96116,-2.24857 -4.35814,-3.65329 -4.14806,-2.43093 -7.64186,-6.36316 -7.64186,-8.60083 0,-1.90152 1.64631,-1.06457 3.04435,1.54768 0.76027,1.42058 3.36453,3.74453 5.78726,5.16434 4.2515,2.49155 4.44205,2.51518 5.47005,0.67825 0.5858,-1.04677 2.89508,-3.93322 5.13172,-6.41434 4.99446,-5.54036 6.56662,-8.26746 6.56662,-11.39055 0,-3.08265 -2.14775,-3.8881 -5.69872,-2.13714 -1.5407,0.75972 -5.95128,2.05005 -9.80128,2.86741 -3.85,0.81737 -5.82319,1.52281 -4.38486,1.56765 1.43833,0.0448 3.78533,1.00199 5.21556,2.12701 2.88521,2.2695 5.21394,8.80987 3.68219,10.34162 -0.59643,0.59643 -1.09412,0.42238 -1.34364,-0.46989 -1.68417,-6.0226 -2.5411,-7.52042 -5.17475,-9.04489 -1.64697,-0.95335 -4.18108,-2.02563 -5.63134,-2.38285 -2.2346,-0.55041 -2.86632,-0.18951 -4.14109,2.36583 -1.24769,2.50106 -1.31845,4.19525 -0.41486,9.93375 l 1.08939,6.91843 5.4168,2.33832 c 2.97924,1.28607 7.16111,3.60189 9.29304,5.14625 5.14064,3.72386 6.9925,3.54771 11.1564,-1.06123 3.27509,-3.62514 7.73716,-13.28739 7.73716,-16.75421 0,-2.98537 3.42749,-14.37662 4.32576,-14.37662 0.49912,0 0.60769,1.0125 0.24126,2.25 -0.36643,1.2375 -1.31613,5.7791 -2.11044,10.09245 -0.79431,4.31335 -2.5897,10.16335 -3.98975,13 -2.95062,5.97827 -8.73932,11.67008 -11.82725,11.62928 -1.17677,-0.0155 -4.82992,-1.81555 -8.11811,-4 -3.2882,-2.18445 -6.7206,-3.97173 -7.62756,-3.97173 -0.90696,0 -2.20922,-0.675 -2.89391,-1.5 -1.94909,-2.34851 -2.64783,-1.82949 -3.98981,2.9636 -1.44637,5.16594 -0.61671,14.83836 1.56477,18.24262 0.80521,1.25655 1.33456,4.26971 1.22975,7 -0.11316,2.94771 0.72378,7.29691 2.17332,11.29378 1.29654,3.575 2.50402,6.95 2.68329,7.5 0.17927,0.55 0.89131,1.83393 1.58232,2.85318 1.03263,1.52318 0.98924,2.02818 -0.24364,2.83588 -1.25626,0.823 -1.37181,2.55302 -0.71111,10.64681 0.90931,11.13936 0.94682,12.23713 0.74039,21.66413 -0.12222,5.58128 1.41937,33.80008 1.86103,34.06606 0.0603,0.0363 2.76586,2.84883 6.0123,6.25 3.46665,3.63188 6.74517,6.18394 7.94423,6.18394 2.94661,0 7.63259,4.30825 6.86413,6.31082 -0.89468,2.3315 -7.22946,4.7035 -11.53322,4.31851 -2.02276,-0.18095 -5.42237,-1.10148 -7.55468,-2.04562 -2.70288,-1.19678 -5.05976,-1.51678 -7.78289,-1.05671 -2.80478,0.47387 -4.60151,0.20418 -6.37308,-0.9566 -2.94362,-1.92873 -3.12214,-4.62182 -0.93228,-14.0643 1.76925,-7.62887 1.26598,-11.86456 -2.24096,-18.86058 -2.14338,-4.27584 -2.40567,-6.00421 -2.20042,-14.5 0.26787,-11.0883 -1.52222,-19.17286 -5.61454,-25.35676 -2.70202,-4.08304 -4.5381,-4.10062 -5.10486,-0.0489 -1.14777,8.20539 -1.68915,10.24915 -3.50665,13.23778 -3.6562,6.01217 -5.86739,14.74957 -5.86739,23.18475 0,4.46639 -0.60158,9.34162 -1.38368,11.21345 -2.06605,4.94476 -2.88623,14.50074 -1.69778,19.78091 0.95752,4.25415 6.59323,14.8982 8.2936,15.66396 0.39168,0.1764 1.66167,1.85708 2.8222,3.73485 2.39092,3.86859 1.89007,7.44444 -1.04271,7.44444 -1.03048,0 -2.15171,0.45 -2.49163,1 -0.33992,0.55 -3.03195,1 -5.98229,1 -4.31204,0 -5.96777,-0.50782 -8.44098,-2.58889 z m 12.42327,-1.41111 c 0,-1.16636 -1.16774,-1.45883 -5.25,-1.31491 -2.8875,0.10181 -5.25,-0.19226 -5.25,-0.65348 0,-0.46122 2.3625,-1.03058 5.25,-1.26524 4.24444,-0.34494 5.51278,-0.0761 6.62197,1.40348 1.5736,2.09911 4.12803,2.44439 4.12803,0.55799 0,-0.69968 -1.26375,-2.83718 -2.80834,-4.75 -4.3536,-5.3915 -8.92694,-13.36178 -10.10834,-17.61652 -1.64879,-5.93798 -1.28908,-13.82585 0.91668,-20.10164 1.1,-3.1297 1.98405,-7.73096 1.96456,-10.22502 -0.0347,-4.43589 -0.0666,-4.48021 -1.46456,-2.03466 -0.78602,1.375 -1.45197,4.075 -1.47988,6 -0.0536,3.69785 -1.40036,6.81181 -2.30968,5.3405 -0.81434,-1.31763 1.00501,-9.88956 2.86063,-13.47793 0.90012,-1.74065 2.53419,-5.90931 3.63127,-9.26369 1.09707,-3.35439 3.25835,-8.79888 4.80285,-12.09888 1.5445,-3.3 3.09677,-7.69397 3.4495,-9.76438 l 0.64133,-3.76438 -5.3159,0.62478 c -3.80662,0.4474 -6.41019,0.16756 -9.17014,-0.98562 -2.11982,-0.88572 -4.01566,-1.6104 -4.21297,-1.6104 -0.19731,0 -0.0762,2.06167 0.26921,4.58148 0.41142,3.00161 0.0111,7.05873 -1.16093,11.76529 -1.67854,6.74066 -1.68918,7.6728 -0.17241,15.11051 1.73794,8.52229 1.5944,10.88243 -0.31077,5.10972 -0.64747,-1.96185 -1.57488,-3.567 -2.06092,-3.567 -1.09227,0 -3.96119,9.40889 -3.96119,12.99111 0,1.44546 0.95472,6.40353 2.12161,11.01794 1.55369,6.14399 1.95893,9.94631 1.51387,14.20441 -0.49668,4.75197 -0.15341,7.02163 1.87839,12.41961 1.36737,3.63278 2.48613,7.42596 2.48613,8.42929 0,2.84129 3.9669,5.04524 8.5,4.72246 2.7623,-0.19669 4,-0.74896 4,-1.78482 z m -14.5,-18.49064 c 0,-1.45903 3.14328,-6.50936 4.05136,-6.50936 1.11802,0 -1.47035,5.52288 -3.04425,6.4956 -0.55391,0.34234 -1.00711,0.34853 -1.00711,0.0138 z m 6,-51.50936 c 0,-0.55 0.9,-1 2,-1 1.1,0 2,0.45 2,1 0,0.55 -0.9,1 -2,1 -1.1,0 -2,-0.45 -2,-1 z m -2,-7.25531 c 0,-1.72944 0.87142,-2.52806 3.7373,-3.42506 3.94027,-1.23329 5.30446,-0.52582 5.16844,2.68037 -0.0433,1.02165 -0.22448,1.10137 -0.56802,0.25 -0.76336,-1.8918 -4.08953,-1.49819 -6.33772,0.75 -2,2 -2,2 -2,-0.25531 z m -62.25,-79.84325 c 6.24569,-1.54967 9.25,-2.75623 9.25,-3.7149 0,-0.98836 -0.68371,-1.23249 -2.25,-0.80339 -1.2375,0.33903 -5.9625,1.3929 -10.5,2.34194 -6.75408,1.41264 -8.25,2.06243 -8.25,3.58355 0,1.07846 0.52446,1.65451 1.25,1.37296 0.6875,-0.26678 5.4125,-1.51785 10.5,-2.78016 z m 75.8407,-15.64408 c -0.6935,-0.69349 -2.5907,0.71555 -2.5907,1.9241 0,0.6631 0.57378,0.58723 1.52417,-0.20152 0.83829,-0.69572 1.31823,-1.47088 1.06653,-1.72258 z m -21.95817,-3.96975 c 0.77442,-0.98318 2.05217,-2.96074 2.83946,-4.39457 1.25049,-2.27743 2.29076,-2.69506 8.22972,-3.30399 6.31667,-0.64766 6.93998,-0.53236 8.79829,1.62745 2.25949,2.62608 8.11348,2.8246 7.12226,0.24152 -0.2942,-0.76668 -0.143,-1.63619 0.336,-1.93223 0.47901,-0.29604 1.05815,0.0234 1.28698,0.70994 0.32997,0.98989 1.641,0.96706 6.33541,-0.11029 3.25564,-0.74715 7.38185,-1.58027 9.16935,-1.85136 4.10768,-0.62297 4.16495,-2.51298 0.19639,-6.48153 -2.94685,-2.94685 -3.29646,-3.03624 -10,-2.5566 -3.82051,0.27336 -6.94639,0.30869 -6.94639,0.0785 0,-0.23017 1.43148,-0.91752 3.18107,-1.52743 3.1766,-1.10736 3.17768,-1.11017 0.76788,-2.00162 -1.56982,-0.58071 -2.53593,-0.52447 -2.7644,0.16095 -0.49084,1.4725 -2.18413,1.32044 -2.18654,-0.19636 -0.001,-0.6875 -1.33614,-1.34321 -2.96677,-1.45714 -4.48488,-0.31333 -8.7999,-2.955 -10.71508,-6.55979 l -1.71769,-3.23307 -0.70915,4.69972 c -0.91656,6.07433 -1.20313,6.46749 -6.54435,8.97816 -7.83474,3.68276 -15.06599,15.73785 -12.41343,20.6942 0.89563,1.67351 1.55916,1.84758 4.17883,1.09627 1.71278,-0.49122 3.74775,-1.69755 4.52217,-2.68074 z m -0.48765,-11.81944 c 0.23584,-1.23601 1.30175,-2.06162 2.86534,-2.21937 1.36938,-0.13816 4.89389,-0.74224 7.83225,-1.34241 5.53356,-1.13024 5.65155,-1.3285 3.664,-6.15639 -0.41434,-1.00644 -0.27873,-1.75 0.31915,-1.75 0.96095,0 2.51058,3.22237 2.62522,5.45901 0.0641,1.25018 6.5081,2.61448 8.92439,1.88942 1.31074,-0.39331 1.64733,-0.19395 1.11815,0.66229 -0.50931,0.82407 -2.18669,1.02903 -5.12523,0.62626 -6.16079,-0.84443 -13.34756,0.25309 -12.70042,1.93953 0.38783,1.01067 -0.34321,1.18813 -3.0709,0.74549 -2.30274,-0.37368 -4.15921,-0.10016 -5.20371,0.7667 -1.41296,1.17266 -1.57504,1.09208 -1.24824,-0.62053 z m 26.60512,12.04379 c 2.99288,-0.86027 2.87546,-2.51196 -0.17857,-2.51196 -2.13124,0 -5.57143,2.24686 -5.57143,3.63882 0,0.47324 0.57584,0.36039 5.75,-1.12686 z m 2.62532,-28.2609 c 2.45728,-8.42434 1.19501,-19.7555 -2.67368,-24.00106 -3.56907,-3.91676 -15.03932,-2.22458 -17.62115,2.5996 -1.36814,2.55639 -1.41031,8.1504 -0.0614,8.1504 0.57857,0 0.7566,1.0457 0.41187,2.4192 -0.47116,1.87726 -0.0272,2.79922 1.98176,4.11554 1.42392,0.93299 3.15108,2.86907 3.83813,4.30239 0.79952,1.66794 2.86906,3.20737 5.74919,4.27652 4.84008,1.7967 7.47913,1.2098 8.37532,-1.86259 z m 16.23167,177.16715 c -0.93556,-2.43803 -0.7194,-5.41821 0.39301,-5.41821 0.55,0 1,0.8632 1,1.91821 0,1.05502 0.27314,2.63002 0.60699,3.5 0.33384,0.86999 0.15699,1.58179 -0.39301,1.58179 -0.55,0 -1.27315,-0.7118 -1.60699,-1.58179 z m -24.09217,-87.47605 c 1.65815,-0.4826 6.60815,-1.29518 11,-1.80573 4.39185,-0.51055 8.88518,-1.26399 9.98518,-1.67432 1.82921,-0.68234 1.86699,-0.60397 0.44244,0.91776 -1.51175,1.61489 -14.31767,3.71852 -21.44244,3.52235 l -3,-0.0826 3.01482,-0.87746 z m 4.06117,-3.06512 c 0.38172,-0.61762 3.44577,-2.39697 6.80902,-3.95411 6.83727,-3.16556 5.42473,-3.70576 -3.58511,-1.37108 -3.29384,0.85352 -6.50043,1.38131 -7.12577,1.17286 -1.8688,-0.62293 8.39883,-3.74625 14.4092,-4.38314 4.66696,-0.49454 5.58334,-0.33289 5.58334,0.9849 0,0.98175 -2.10643,2.41505 -5.58334,3.79913 -3.07083,1.22242 -6.47096,2.81925 -7.55584,3.54849 -2.41037,1.62024 -3.89032,1.72201 -2.9515,0.20295 z m -16.57599,-3.87704 c 0,-0.55 0.5795,-1 1.28777,-1 2.47724,0 8.09806,-5.55217 7.41716,-7.32656 -1.08917,-2.83834 -4.74335,-2.0319 -6.01103,1.32656 -0.62281,1.65 -1.48372,3 -1.91314,3 -1.04963,0 -1.01672,-0.19102 0.76933,-4.46564 1.18682,-2.84045 1.94848,-3.54931 3.25,-3.02467 0.93495,0.37688 5.29991,0.92076 9.69991,1.20863 7.29113,0.47702 11.43424,-0.0828 17,-2.2971 1.77621,-0.70665 1.8471,-0.60769 0.63351,0.88437 -1.81228,2.22814 -7.64946,3.71958 -14.96045,3.82249 -5.23483,0.0737 -6.07719,0.36609 -7.0208,2.4371 -0.58975,1.29435 -2.87234,3.27169 -5.07243,4.39409 -4.5546,2.32359 -5.07983,2.43119 -5.07983,1.04073 z m 16.65266,-17.05858 c -1.45896,-1.14762 -2.65266,-2.81435 -2.65266,-3.70384 0,-1.1509 0.90615,-0.69042 3.14239,1.59686 3.67383,3.75768 3.35464,5.13096 -0.48973,2.10698 z m -62.47493,-0.56642 c 3.31203,-6.77532 4.19181,-9.96269 4.60556,-16.68567 0.60179,-9.77811 -1.78589,-19.48376 -5.96378,-24.24211 -1.65028,-1.87957 -2.45846,-3.55233 -1.88694,-3.90555 1.59202,-0.98392 6.75074,7.00397 8.2192,12.7268 2.85085,11.11023 0.38134,31.05383 -4.02719,32.52334 -0.75602,0.252 -1.1821,0.0644 -0.94685,-0.41681 z m 37.82227,-0.30176 c 0,-0.50972 1.35,-1.60023 3,-2.42335 3.4893,-1.7407 4.03291,-0.48678 0.77749,1.79341 -2.5264,1.76956 -3.77749,1.9782 -3.77749,0.62994 z m 33.0318,-3.26422 c -0.0175,-0.93004 0.44814,-1.9876 1.03473,-2.35014 1.76258,-1.08933 2.0097,0.059 0.45494,2.11412 -1.27997,1.69187 -1.46174,1.72067 -1.48967,0.23602 z m -14.0318,-9.75 c 0,-0.51754 0.45,-1.2191 1,-1.55902 0.55,-0.33992 1,0.0835 1,0.94098 0,0.85746 -0.45,1.55902 -1,1.55902 -0.55,0 -1,-0.42344 -1,-0.94098 z m 1.75,-3.74835 c -0.9625,-0.25152 -1.75,-0.83219 -1.75,-1.29037 0,-0.45819 0.81894,-0.6189 1.81986,-0.35716 1.00092,0.26175 2.40602,-0.23038 3.12244,-1.09362 0.71642,-0.86323 1.92249,-1.56952 2.68014,-1.56952 0.75766,0 1.37756,-0.45 1.37756,-1 0,-0.55 1.125,-1 2.5,-1 1.9165,0 2.50742,-0.52515 2.5318,-2.25 0.0286,-2.02601 0.1578,-2.08434 1.29738,-0.58597 0.69606,0.91521 2.55955,1.81521 4.14108,2 1.58153,0.18478 3.03739,0.83002 3.23525,1.43386 0.24283,0.74107 -0.86959,0.88627 -3.42288,0.44676 -2.08045,-0.35811 -4.45763,-0.32749 -5.28263,0.068 -0.825,0.39554 -3.1875,1.45311 -5.25,2.35015 -2.0625,0.89704 -3.75,2.05987 -3.75,2.58407 0,0.99315 -0.35015,1.02157 -3.25,0.26375 z m 0.26488,-6.00397 c 0.008,-0.44368 1.54125,-2.6067 3.40683,-4.8067 3.72284,-4.39021 6.11878,-4.27387 2.65552,0.12894 -2.42097,3.07778 -6.08498,5.90496 -6.06235,4.67776 z m 9.98512,-6.47337 c 0,-0.64166 0.30098,-0.86568 0.66885,-0.49781 0.36787,0.36786 1.50687,-0.0896 2.53113,-1.0165 1.74858,-1.58244 1.96722,-1.57602 3.58115,0.10515 1.63288,1.70091 1.61052,1.75806 -0.44697,1.14248 -1.19122,-0.3564 -2.45527,-0.1797 -2.80902,0.39267 -0.87505,1.41587 -3.52514,1.32116 -3.52514,-0.12599 z m 87.32239,-9.96688 c 3.02656,-4.70858 4.96288,-13.9238 4.38187,-20.854 -0.63852,-7.61634 -3.64123,-16.25201 -6.83193,-19.64835 -2.37649,-2.52966 -1.90909,-4.46943 0.57931,-2.40424 2.66811,2.21434 6.51063,11.71629 7.46596,18.46214 1.51356,10.68767 -1.63626,25.10148 -5.76696,26.38999 -1.05307,0.3285 -1.01537,-0.0987 0.17175,-1.94554 z"
       id="path3007"
       inkscape:connector-curvature="0" />
  </g>
</svg>
