<?xml version="1.0" encoding="UTF-8" standalone="no"?>
<!-- Created with Inkscape (http://www.inkscape.org/) -->

<svg
   xmlns:dc="http://purl.org/dc/elements/1.1/"
   xmlns:cc="http://creativecommons.org/ns#"
   xmlns:rdf="http://www.w3.org/1999/02/22-rdf-syntax-ns#"
   xmlns:svg="http://www.w3.org/2000/svg"
   xmlns="http://www.w3.org/2000/svg"
   xmlns:xlink="http://www.w3.org/1999/xlink"
   xmlns:sodipodi="http://sodipodi.sourceforge.net/DTD/sodipodi-0.dtd"
   xmlns:inkscape="http://www.inkscape.org/namespaces/inkscape"
   width="105.86018"
   height="266.68353"
   id="svg2"
   version="1.1"
   inkscape:version="0.48.3.1 r9886"
   sodipodi:docname="Biceps-curl-reverse-2.svg"
   inkscape:export-filename="/home/christian/Dokumente/Website/opentraining/cc_exercises/Biceps-curl-reverse-2.png"
   inkscape:export-xdpi="218.95311"
   inkscape:export-ydpi="218.95311">
  <defs
     id="defs4">
    <radialGradient
       gradientUnits="userSpaceOnUse"
       gradientTransform="matrix(1,0,0,0.91819829,-19.285714,-7.9105395)"
       r="209.56604"
       fy="287.50052"
       fx="398.1105"
       cy="287.50052"
       cx="398.1105"
       id="radialGradient5255"
       xlink:href="#linearGradient5249"
       inkscape:collect="always" />
    <linearGradient
       id="linearGradient5249"
       inkscape:collect="always">
      <stop
         id="stop5251"
         offset="0"
         style="stop-color:#e3e3e3;stop-opacity:1;" />
      <stop
         id="stop5253"
         offset="1"
         style="stop-color:#e3e3e3;stop-opacity:0;" />
    </linearGradient>
  </defs>
  <sodipodi:namedview
     id="base"
     pagecolor="#ffffff"
     bordercolor="#666666"
     borderopacity="1.0"
     inkscape:pageopacity="0.0"
     inkscape:pageshadow="2"
     inkscape:zoom="2.8"
     inkscape:cx="-40.355649"
     inkscape:cy="155.77481"
     inkscape:document-units="px"
     inkscape:current-layer="layer1"
     showgrid="false"
     showguides="true"
     inkscape:guide-bbox="true"
     fit-margin-top="0"
     fit-margin-left="0"
     fit-margin-right="0"
     fit-margin-bottom="0"
     inkscape:window-width="1615"
     inkscape:window-height="1026"
     inkscape:window-x="65"
     inkscape:window-y="24"
     inkscape:window-maximized="1">
    <sodipodi:guide
       orientation="-0.70710678,0.70710678"
       position="-2278.1599,459.70957"
       id="guide2985" />
  </sodipodi:namedview>
  <metadata
     id="metadata7">
    <rdf:RDF>
      <cc:Work
         rdf:about="">
        <dc:format>image/svg+xml</dc:format>
        <dc:type
           rdf:resource="http://purl.org/dc/dcmitype/StillImage" />
        <dc:title />
      </cc:Work>
    </rdf:RDF>
  </metadata>
  <g
     inkscape:label="Ebene 1"
     inkscape:groupmode="layer"
     id="layer1"
     transform="translate(-849.58845,-219.67392)">
    <path
       style="fill:#000000"
       d="m 878.63999,482.06617 c -3.49296,-0.67631 -9.13121,-6.30067 -9.13121,-9.10871 0,-1.31186 -0.50397,-3.32688 -1.11993,-4.47779 -1.51516,-2.83113 -2.37869,-10.09501 -2.19361,-18.45262 0.0842,-3.80364 -0.88924,-11.48974 -2.16325,-17.08023 l -2.31638,-10.16452 2.32744,-7.71366 c 1.28011,-4.24251 2.78087,-10.93686 3.33504,-14.87633 0.55418,-3.93948 1.50823,-8.60034 2.12012,-10.35747 0.61188,-1.75716 1.11252,-6.53412 1.11252,-10.61551 0,-6.48768 -0.27639,-7.49297 -2.19833,-7.99557 -3.10287,-0.81141 -3.92719,-3.83779 -1.97287,-7.24317 2.17387,-3.78796 3.46198,-12.69622 3.54974,-24.54921 0.0549,-7.40471 0.494,-9.98958 1.97637,-11.63236 1.7198,-1.90589 1.73946,-2.27857 0.20132,-3.8167 -0.93752,-0.93752 -2.37872,-3.637 -3.20266,-5.99884 -1.27452,-3.65343 -1.92123,-4.24695 -4.33362,-3.97708 -3.30783,0.37001 -3.86263,-1.90787 -0.66815,-2.74325 4.00751,-1.04799 5.07041,-12.09436 1.66401,-17.29321 -1.95809,-2.9884 -4.92098,-3.88219 -4.95024,-1.49329 -0.0119,0.97483 -0.30423,0.92352 -0.99999,-0.17556 -1.34649,-2.12698 -0.25537,-4.50773 2.06592,-4.50773 2.46407,0 5.20574,3.05509 6.77093,7.54498 0.99444,2.85269 1.53516,3.2966 2.76864,2.27291 2.84188,-2.35855 0.83166,-12.02179 -2.50088,-12.02179 -1.85338,0 -1.84325,-0.29389 0.17689,-5.12875 0.90911,-2.17581 1.65292,-5.16441 1.65292,-6.64134 0,-1.65072 0.46089,-2.40049 1.19623,-1.94602 0.71332,0.44084 1.04697,3.3442 0.82647,7.19172 -0.26173,4.56702 0.1132,7.02642 1.28316,8.41683 2.18097,2.59195 2.11061,8.23252 -0.12363,9.90963 -3.04023,2.28213 -4.58625,7.68142 -4.05023,14.14503 0.74552,8.99023 5.54432,14.72436 11.14593,13.31845 8.52171,-2.13882 8.29455,-21.99812 -0.30762,-26.89358 -1.83957,-1.0469 -3.34781,-2.27535 -3.35164,-2.7299 -0.0121,-1.43311 2.70445,-0.89954 5.53308,1.08677 1.99778,1.40287 4.38089,1.81872 8.93362,1.55887 9.62924,-0.54959 14.1062,2.64692 14.162,10.11154 0.0267,3.56561 -5.78087,8.19799 -11.31877,9.02844 -4.47637,0.67127 -5.32577,1.25779 -7.14416,4.93311 l -2.06377,4.17124 5.9904,0.49677 c 5.50076,0.45616 16.01328,-1.19086 18.87003,-2.95645 0.65509,-0.40486 1.18348,-2.31846 1.1742,-4.25243 -0.009,-1.93396 -0.38119,-2.97069 -0.82646,-2.30381 -2.01263,3.01417 -10.17618,5.13553 -10.17618,2.64434 0,-0.60607 1.15326,-1.10194 2.56279,-1.10194 4.27017,0 7.66447,-4.70008 8.15089,-11.28652 0.49357,-6.68313 -1.76592,-12.04204 -6.55877,-15.55575 -2.64684,-1.94042 -3.3389,-2.02783 -5.76698,-0.72836 -1.51756,0.81217 -3.04878,2.38903 -3.4027,3.50415 -0.84776,2.67104 -2.69888,2.60489 -2.69888,-0.0964 0,-2.48295 4.91236,-6.69168 7.81041,-6.69168 4.01063,0 7.46705,2.57215 10.19726,7.58842 2.39121,4.39347 2.79305,6.54113 2.81072,15.02272 0.0268,12.87328 0.15226,13.99297 1.78762,15.95713 2.26719,2.72303 2.93834,6.38384 1.62149,8.84442 -0.74141,1.38532 -0.84689,2.84117 -0.26252,3.62296 0.53734,0.71886 1.86197,4.28227 2.9436,7.9187 1.08165,3.63644 2.65993,8.01556 3.50732,9.73137 1.82762,3.70072 1.98603,6.24691 0.3886,6.24691 -0.7619,0 -0.93764,3.2654 -0.51895,9.64208 0.3482,5.30313 0.82911,18.78812 1.0687,29.96666 0.68551,31.98519 0.65377,31.84036 8.69687,39.69401 4.19116,4.09246 7.72889,6.62728 9.26117,6.63571 2.82921,0.0156 6.88718,3.60423 6.88718,6.09061 0,0.91801 -1.6116,2.66177 -3.58134,3.87501 -4.28712,2.64061 -12.63575,2.44611 -18.15962,-0.42306 -2.51148,-1.30451 -4.85746,-1.64082 -7.97183,-1.1428 -3.18704,0.50962 -5.18324,0.20104 -7.18525,-1.11073 -3.3267,-2.17974 -3.55349,-5.59496 -1.02064,-15.36953 2.06509,-7.96945 1.49656,-12.976 -2.41164,-21.23726 -2.4448,-5.1679 -2.76112,-7.16956 -2.54567,-16.10911 0.14464,-6.00202 -0.39293,-12.70512 -1.30471,-16.26868 -1.72667,-6.74849 -6.48836,-15.59437 -8.11088,-15.06777 -0.57799,0.18758 -1.65467,3.61245 -2.39261,7.61081 -0.73794,3.99835 -2.32452,9.17141 -3.52572,11.49566 -5.13076,9.92779 -6.03841,13.28668 -6.79965,25.163 -0.42732,6.6668 -1.34718,13.51738 -2.04416,15.22355 -0.69695,1.70615 -1.26721,6.91681 -1.26721,11.57925 0,9.46947 2.05598,14.60305 10.04874,25.09065 4.59239,6.02589 5.44623,10.05116 2.3482,11.07029 -1.06062,0.34889 -3.49098,1.3251 -5.40079,2.16931 -3.49766,1.54611 -4.42593,1.62579 -8.88444,0.76252 z m 7.94902,-4.66161 c 0,-1.1815 -1.45148,-1.55061 -5.78524,-1.47118 -3.18188,0.0583 -5.78524,-0.28458 -5.78524,-0.76198 0,-0.47741 2.60336,-1.14267 5.78524,-1.47837 4.81857,-0.50839 6.09094,-0.25562 7.61479,1.51272 1.00627,1.16771 2.36992,2.1231 3.03038,2.1231 2.08428,0 1.31044,-2.66924 -1.92388,-6.63613 -1.71858,-2.10782 -4.97933,-7.1704 -7.24612,-11.25018 -5.42324,-9.7608 -6.43304,-20.03857 -2.94216,-29.94557 1.2614,-3.57979 2.27405,-8.78651 2.25032,-11.57047 l -0.0431,-5.06176 -1.6098,3.70785 c -0.88538,2.03933 -1.60979,5.63444 -1.60979,7.98914 0,2.3547 -0.49588,4.28129 -1.10196,4.28129 -2.15836,0 -1.132,-9.48467 1.61313,-14.90699 1.4933,-2.94963 3.04712,-6.87475 3.45294,-8.72247 0.72377,-3.2953 1.61201,-5.51415 6.64185,-16.59174 1.37595,-3.03036 2.82287,-7.32654 3.21537,-9.54707 l 0.71366,-4.03731 -6.51128,0.59041 c -4.90173,0.44447 -7.4202,0.12039 -10.18831,-1.31105 l -3.67704,-1.90148 0.63644,6.16652 c 0.4741,4.59367 0.082,7.74393 -1.53721,12.35092 -2.13236,6.06697 -2.0829,13.57421 0.11912,18.07515 0.44476,0.90911 1.15638,3.10318 1.58137,4.87572 0.66662,2.78039 0.546,3.03467 -0.87869,1.85227 -0.90825,-0.75379 -1.98887,-2.90711 -2.40136,-4.78518 -0.66106,-3.00977 -0.88303,-3.17694 -1.87199,-1.40976 -0.6171,1.10269 -1.81621,4.66334 -2.66471,7.91256 -1.40737,5.38944 -1.34123,6.75225 0.75403,15.53578 1.40571,5.89294 2.21342,12.62057 2.082,17.34176 -0.14101,5.0659 0.43067,9.41578 1.66549,12.67242 1.03411,2.72733 2.37863,6.69436 2.98784,8.81561 1.53575,5.34759 4.83769,7.90051 9.69184,7.49334 2.53133,-0.21233 3.9421,-0.8951 3.9421,-1.90787 z m -15.80518,-20.59955 c 2.41102,-5.18226 3.70685,-7.02493 4.94017,-7.02493 1.83389,0 -1.7054,6.76136 -3.92693,7.50187 -0.804,0.26799 -1.25996,0.0533 -1.01324,-0.47694 z m 6.98958,-56.6127 c -0.38626,-0.62499 0.53954,-1.10195 2.13887,-1.10195 1.55094,0 2.8199,0.49587 2.8199,1.10195 0,0.60607 -0.96248,1.10195 -2.13886,1.10195 -1.17638,0 -2.44534,-0.49588 -2.81991,-1.10195 z m -2.23379,-8.53786 c 0.90033,-3.58722 0.34036,-3.11642 4.69147,-3.9444 2.87471,-0.54703 3.79302,-0.24128 4.77256,1.58903 1.32505,2.47584 0.35505,4.54443 -1.05847,2.2573 -1.13203,-1.83166 -6.72275,-0.50714 -6.72275,1.59271 0,0.8434 -0.54963,1.53347 -1.22141,1.53347 -0.78198,0 -0.94798,-1.08945 -0.4614,-3.02811 z m 68.40886,65.14895 c 3.32,-2.17535 2.1464,-4.21323 -3.02161,-5.24684 -2.33129,-0.46626 -5.79528,-3.12383 -10.58643,-8.12194 l -7.12131,-7.42892 -0.8174,-15.02739 c -0.44957,-8.26506 -1.11905,-15.51544 -1.48771,-16.11196 -0.36867,-0.59651 -0.14926,-5.34424 0.48757,-10.55049 1.35111,-11.04575 0.34734,-14.83611 -2.69808,-10.18822 -1.02391,1.56269 -2.66335,2.84126 -3.64319,2.84126 -2.23695,0 -4.70335,-3.16159 -4.72808,-6.06072 -0.0163,-1.91024 0.16627,-1.83812 1.37007,0.54121 2.14547,4.24054 4.77564,4.06794 6.39844,-0.41985 0.76786,-2.12347 1.80193,-3.61005 2.29791,-3.30351 1.05495,0.652 1.19588,-5.54043 0.23539,-10.34294 l -0.66642,-3.33206 -3.85222,2.6142 c -4.82808,3.27641 -10.67826,4.43161 -14.23527,2.81093 -1.49732,-0.68223 -2.89871,-1.24041 -3.11421,-1.24041 -0.2155,0 1.79134,3.32392 4.45964,7.38649 2.88283,4.38918 4.85148,8.66603 4.85148,10.53974 0,1.73428 1.06428,5.62722 2.36507,8.651 1.7779,4.13284 2.05148,5.81136 1.10195,6.76089 -0.94953,0.94953 -1.28664,0.86643 -1.35784,-0.33471 -0.0521,-0.87881 -0.49031,-0.28939 -0.97383,1.3098 -1.05981,3.50534 0.58606,13.36284 3.00328,17.98716 1.72355,3.29728 1.91847,8.0016 1.12039,27.04006 l -0.30024,7.16268 6.65455,0.0454 c 3.66,0.025 8.1229,0.62178 9.91756,1.32621 2.95184,1.15862 6.27635,1.92054 10.18895,2.33513 0.77891,0.0825 2.64712,-0.65647 4.15159,-1.64223 z m -28.26139,-10.66747 c -0.71533,-1.56999 -0.91093,-3.71572 -0.4399,-4.8257 0.67127,-1.58181 1.04984,-1.10211 1.81513,2.29996 1.15393,5.12982 0.42295,6.47232 -1.37523,2.52574 z m -23.00038,-74.61412 c 1.32988,-0.71174 2.41886,-2.82051 2.85053,-5.51999 0.61911,-3.87179 1.15225,-4.49204 4.69074,-5.4573 2.71691,-0.74113 4.65578,-2.23874 6.06935,-4.68803 2.5271,-4.37873 3.70382,-2.32458 1.31483,2.29521 -1.06867,2.06659 -3.14108,3.76415 -5.57668,4.56797 -4.99061,1.64705 -4.90295,2.91603 0.30931,4.47766 4.67142,1.39958 8.56125,0.26075 15.68684,-4.59264 3.55931,-2.42433 3.7848,-2.88808 2.62457,-5.39776 -3.46961,-7.50499 -6.25703,-17.55495 -6.06981,-21.88449 0.13279,-3.07121 -0.41656,-5.50384 -1.51769,-6.72058 -1.57129,-1.73625 -2.24206,-1.76914 -7.49106,-0.36726 -5.80861,1.55135 -22.80819,1.08669 -27.80423,-0.75999 -1.55708,-0.57554 -2.77803,-0.1527 -4.16009,1.44073 -1.6591,1.91283 -1.84421,3.49106 -1.21887,10.39198 0.75261,8.30517 -0.53826,17.30441 -3.46165,24.13285 -1.42747,3.33425 -1.19599,4.79558 0.75964,4.79558 0.50506,0 0.91829,-0.74382 0.91829,-1.65293 0,-0.90911 0.74382,-1.65293 1.65292,-1.65293 1.00531,0 1.65294,1.02544 1.65294,2.61725 0,5.30879 11.66272,7.77843 18.77012,3.97467 z m -4.99575,-19.81185 c -1.92768,-0.69404 -1.78955,-0.87938 1.10196,-1.47876 1.81821,-0.3769 7.28274,-1.16267 12.14339,-1.74618 4.86065,-0.5835 9.81942,-1.40748 11.0195,-1.83105 2.03312,-0.71759 2.05915,-0.63933 0.38169,1.14723 -1.2376,1.31811 -4.68159,2.23244 -11.01949,2.92551 -5.07059,0.55449 -9.71513,1.1811 -10.32119,1.39246 -0.60608,0.21135 -2.09371,0.0272 -3.30586,-0.40921 z m 5.59349,-4.54678 c 0.42064,-0.68058 3.79707,-2.64133 7.50321,-4.35722 7.85762,-3.63797 6.57011,-3.97079 -4.55658,-1.1779 -4.39403,1.10293 -7.98914,1.63694 -7.98914,1.18668 0,-1.33711 9.9882,-4.35438 16.80474,-5.07641 5.48482,-0.58098 6.33621,-0.42026 6.33621,1.19607 0,1.09425 -1.40329,2.35642 -3.38989,3.04895 -1.86443,0.64995 -5.70748,2.35766 -8.54012,3.79489 -5.68595,2.885 -7.32261,3.25247 -6.16843,1.38494 z m -16.09807,-5.15655 c 6.01586,-4.13906 8.11543,-6.49078 7.41785,-8.30868 -0.38552,-1.00462 -1.65519,-1.82658 -2.82152,-1.82658 -2.25881,0 -3.45832,2.01876 -3.45832,5.82028 0,1.76725 -0.30966,2.02451 -1.27496,1.05921 -0.89585,-0.89585 -0.96166,-2.35394 -0.22133,-4.90367 0.95871,-3.30188 1.39613,-3.59892 4.85629,-3.29776 16.29976,1.41874 19.54797,1.39137 24.17751,-0.20363 2.68619,-0.92547 5.07695,-1.48968 5.31283,-1.25381 2.12872,2.12872 -8.77831,5.4931 -17.51364,5.40225 -5.18863,-0.054 -6.30962,0.29204 -7.16268,2.21085 -1.19837,2.69551 -7.75335,7.31218 -10.2654,7.22994 -1.27359,-0.0416 -1.008,-0.57895 0.95337,-1.9284 z m 22.12978,-28.34574 c 2.72383,-1.40854 3.25113,-2.35181 3.25113,-5.81582 0,-5.77207 -2.8243,-7.93026 -10.37797,-7.93026 l -5.945,0 1.16784,3.80514 c 0.91007,2.96531 1.55614,3.6076 2.92721,2.9101 0.96767,-0.49229 3.49497,-1.1852 5.61622,-1.53982 3.44545,-0.57599 3.56298,-0.52092 1.10195,0.51634 -1.51518,0.63861 -3.8706,1.5921 -5.23426,2.11886 -1.63138,0.63017 -2.4794,1.87664 -2.4794,3.64441 0,4.13635 4.43399,5.15503 9.97228,2.29105 z m -5.96683,10.41686 c -1.59692,-1.25614 -2.90349,-2.99171 -2.90349,-3.85683 0,-2.21974 0.49286,-2.0125 4.32303,1.81767 1.86483,1.86484 3.39062,3.60041 3.39062,3.85683 0,1.10158 -2.11496,0.30237 -4.81016,-1.81767 z m -34.00579,-2.39941 c -2.18834,-1.70217 -7.73768,-22.34899 -8.21888,-30.57913 -0.81381,-13.91833 -0.70281,-15.14573 1.72488,-19.07384 1.33043,-2.15266 3.83847,-4.81618 5.57345,-5.91894 1.73497,-1.10276 6.41653,-4.4844 10.40347,-7.51476 6.56849,-4.99253 7.25109,-5.88499 7.2715,-9.50715 0.0123,-2.19855 -0.65266,-4.55773 -1.4779,-5.24263 -0.82523,-0.68487 -1.80026,-3.77683 -2.16672,-6.87101 -1.27573,-10.77156 3.71484,-16.3965 14.54737,-16.3965 7.21589,0 11.59957,3.47399 12.82785,10.16584 1.17885,6.42259 1.25609,14.8126 0.18637,20.24087 l -0.88895,4.51089 8.49999,2.65179 c 10.7111,3.34162 15.27266,7.29561 16.40769,14.22228 0.44692,2.72733 1.51744,5.75824 2.37891,6.73535 1.99505,2.26282 3.89108,8.69196 2.56338,8.69196 -0.54244,0 -1.56683,-1.11573 -2.27641,-2.47939 -0.70958,-1.36366 -2.21467,-3.36649 -3.34463,-4.45072 -1.24016,-1.19 -2.05446,-3.50469 -2.05446,-5.83997 0,-2.12774 -0.71847,-5.258 -1.5966,-6.95611 -1.89986,-3.67391 -6.51764,-6.9681 -7.89696,-5.63348 -0.53623,0.51887 -3.20642,1.18942 -5.93374,1.49013 -2.72733,0.30071 -5.77641,0.8694 -6.77573,1.26377 -0.99933,0.39435 -2.14488,0.1864 -2.5457,-0.46213 -0.9377,-1.51724 4.68104,-3.68029 7.94107,-3.0571 1.36527,0.26098 2.4823,0.0351 2.4823,-0.50189 0,-1.66584 -5.88027,-3.33267 -9.64206,-2.73315 -2.02568,0.32284 -3.58134,0.094 -3.58134,-0.52694 0,-0.60373 -0.46319,-0.81143 -1.02931,-0.46156 -2.12538,1.31357 -9.96093,-2.95346 -12.26282,-6.67799 -1.27321,-2.0601 -2.43978,-3.74563 -2.59237,-3.74563 -0.1526,0 -0.27745,1.48978 -0.27745,3.3106 0,4.55548 -2.3369,8.51312 -5.4948,9.3057 -1.45262,0.36458 -4.64995,2.61238 -7.10519,4.99511 -2.45523,2.38274 -5.31084,4.601 -6.3458,4.92947 -2.63884,0.83754 -5.61227,6.27927 -5.8317,10.67275 -0.2735,5.47591 2.11569,21.55139 3.6211,24.36429 0.71883,1.34314 1.84739,5.17685 2.50791,8.51936 1.18255,5.98422 1.27265,6.09233 5.88423,7.06189 2.5758,0.54155 4.68329,1.41007 4.68329,1.93002 0,1.46304 -8.1756,1.11555 -10.16524,-0.43205 z m 37.44007,-68.32094 c 3.68025,-4.61738 2.63704,-22.29952 -1.61365,-27.35118 -6.43106,-7.64288 -21.25337,-1.39042 -21.25337,8.96525 0,1.17269 0.73141,2.13217 1.62536,2.13217 1.20573,0 1.46041,0.82488 0.98639,3.19492 -0.52176,2.60881 -0.2019,3.33364 1.74361,3.95112 1.31042,0.4159 2.83769,1.95323 3.39395,3.41627 1.99061,5.23574 12.36726,9.14229 15.11771,5.69145 z m 18.85368,62.02138 c -2.79543,-2.32881 -1.13562,-3.06425 2.20594,-0.97741 1.11799,0.69818 3.32022,0.93749 4.92379,0.53501 8.51775,-2.13782 8.28743,-21.99869 -0.31186,-26.89251 -1.83957,-1.04689 -3.34781,-2.24955 -3.35165,-2.67258 -0.009,-0.95081 6.40528,1.20783 7.14498,2.4047 0.29491,0.47717 3.73761,0.6106 7.65044,0.29651 6.80404,-0.54615 7.26106,-0.42423 10.48129,2.79598 4.29628,4.29628 4.37251,8.21041 0.24035,12.34257 -2.126,2.126 -4.77544,3.37393 -8.27819,3.89922 -2.83331,0.42487 -5.394,1.16491 -5.69042,1.64453 -0.29642,0.47962 0.4535,0.6125 1.66648,0.2953 3.51314,-0.9187 2.55084,1.5482 -1.10044,2.82106 -1.81821,0.63382 -3.30584,1.59449 -3.30584,2.13481 0,1.24231 -4.96113,3.54005 -7.64344,3.54005 -1.11647,0 -3.20061,-0.97526 -4.63143,-2.16724 z m 26.32474,-12.00395 c 3.3614,-1.80809 3.47903,-8.726 0.19615,-11.53689 -2.89507,-2.47883 -12.41517,-2.2099 -12.85729,0.36322 -0.5975,3.47733 1.30825,4.55571 6.13459,3.47129 2.51958,-0.56609 4.33434,-0.63012 4.03282,-0.14226 -0.30149,0.48785 -2.57357,1.22918 -5.04904,1.64742 -3.92405,0.66296 -4.4195,1.0636 -3.86611,3.12625 0.34912,1.3012 0.64153,3.16704 0.64982,4.14629 0.0123,1.45682 0.76614,1.64211 4.14735,1.01938 2.27277,-0.41857 5.24804,-1.36119 6.61171,-2.0947 z m 1.9284,6.45754 c 0.37458,-0.60607 1.30917,-1.10195 2.07686,-1.10195 2.8003,0 6.43969,-5.34296 6.99496,-10.26925 0.7211,-6.39756 -1.25209,-12.12292 -5.3731,-15.59053 -4.03169,-3.39245 -5.31537,-3.46419 -8.52256,-0.47624 -1.3665,1.27309 -2.82367,1.97423 -3.23816,1.55808 -1.39467,-1.40029 4.41539,-4.97472 8.08612,-4.97472 5.71584,0 11.53408,8.61591 11.53408,17.08023 0,4.20224 -2.31079,10.49369 -4.65707,12.6796 -2.38494,2.22191 -8.16436,3.13874 -6.90113,1.09478 z m -85.32384,-5.23426 c 0.0619,-1.66671 -0.23804,-4.15347 -0.66627,-5.52613 -0.6148,-1.9707 -0.42084,-2.35848 0.92192,-1.84322 2.31397,0.88796 3.04004,3.17673 2.2542,7.10591 -0.82683,4.13419 -2.66046,4.32664 -2.50985,0.26344 z m 52.51433,-15.69572 0.59027,-4.40073 -3.46945,1.20945 c -3.52991,1.23053 -8.9403,0.58012 -8.9403,-1.07477 0,-0.50112 2.10748,-0.87323 4.68329,-0.82689 8.13047,0.14625 8.93909,-0.63105 8.20351,-7.88569 -0.49434,-4.87535 -0.36919,-5.81081 0.54974,-4.10868 0.65439,1.21214 2.15113,3.26731 3.32608,4.56703 1.39312,1.54106 1.72411,2.61789 0.95147,3.0954 -0.65167,0.40274 -1.21968,0.0831 -1.26228,-0.7102 -0.11733,-2.18518 -1.96027,2.6192 -2.04899,5.34155 -0.0614,1.88379 0.40126,2.25103 2.23264,1.77212 2.10385,-0.55017 2.05466,-0.34866 -0.55097,2.25697 -1.5736,1.57359 -2.86108,3.3795 -2.86108,4.01311 0,0.63363 -0.4487,1.15205 -0.9971,1.15205 -0.54839,0 -0.73146,-1.98033 -0.40683,-4.40072 z m -26.1102,2.47231 c 0.0547,-1.30571 4.6415,-4.26246 7.83265,-5.0491 3.45098,-0.85069 4.7811,-4.7165 3.12319,-9.07713 -1.26538,-3.32821 -0.43264,-5.16384 1.20063,-2.6466 3.91852,6.03928 2.0729,10.89743 -5.60505,14.75383 -6.19483,3.11148 -6.60246,3.23711 -6.55142,2.019 z m -7.6038,-2.85627 c -0.67502,-0.81335 -0.95495,-1.7512 -0.62207,-2.08408 0.80041,-0.80041 7.08929,1.59702 7.08929,2.70255 0,1.44839 -5.16153,0.9548 -6.46722,-0.61847 z m -9.55749,-19.53335 c -0.40012,-0.6474 -1.46258,-0.89499 -2.36102,-0.55023 -1.00103,0.38414 -1.45586,0.0932 -1.17466,-0.75134 0.25238,-0.758 1.30939,-1.5431 2.34892,-1.74467 2.2212,-0.43069 5.33445,1.83434 4.46186,3.24623 -0.81993,1.32669 -2.39084,1.23076 -3.2751,-0.19999 z m 7.78862,-2.08259 c -0.30368,-0.49137 1.5577,-1.42466 4.13641,-2.07399 3.50036,-0.88141 6.07083,-0.82798 10.14292,0.21083 6.6732,1.70234 4.89346,3.4036 -1.95505,1.86882 -2.98429,-0.66879 -6.20722,-0.70826 -8.32144,-0.10195 -1.89788,0.5443 -3.69916,0.58762 -4.00283,0.0963 z"
       id="path3108"
       inkscape:connector-curvature="0" />
  </g>
</svg>
