<?xml version="1.0" encoding="UTF-8" standalone="no"?>
<!-- Created with Inkscape (http://www.inkscape.org/) -->

<svg
   xmlns:dc="http://purl.org/dc/elements/1.1/"
   xmlns:cc="http://creativecommons.org/ns#"
   xmlns:rdf="http://www.w3.org/1999/02/22-rdf-syntax-ns#"
   xmlns:svg="http://www.w3.org/2000/svg"
   xmlns="http://www.w3.org/2000/svg"
   xmlns:xlink="http://www.w3.org/1999/xlink"
   xmlns:sodipodi="http://sodipodi.sourceforge.net/DTD/sodipodi-0.dtd"
   xmlns:inkscape="http://www.inkscape.org/namespaces/inkscape"
   width="120.87607"
   height="266.82712"
   id="svg2"
   version="1.1"
   inkscape:version="0.48.3.1 r9886"
   sodipodi:docname="Biceps-curl-1.svg">
  <defs
     id="defs4">
    <radialGradient
       gradientUnits="userSpaceOnUse"
       gradientTransform="matrix(1,0,0,0.91819829,-19.285714,-7.9105395)"
       r="209.56604"
       fy="287.50052"
       fx="398.1105"
       cy="287.50052"
       cx="398.1105"
       id="radialGradient5255"
       xlink:href="#linearGradient5249"
       inkscape:collect="always" />
    <linearGradient
       id="linearGradient5249"
       inkscape:collect="always">
      <stop
         id="stop5251"
         offset="0"
         style="stop-color:#e3e3e3;stop-opacity:1;" />
      <stop
         id="stop5253"
         offset="1"
         style="stop-color:#e3e3e3;stop-opacity:0;" />
    </linearGradient>
  </defs>
  <sodipodi:namedview
     id="base"
     pagecolor="#ffffff"
     bordercolor="#666666"
     borderopacity="1.0"
     inkscape:pageopacity="0.0"
     inkscape:pageshadow="2"
     inkscape:zoom="1.979899"
     inkscape:cx="-83.886257"
     inkscape:cy="96.281928"
     inkscape:document-units="px"
     inkscape:current-layer="layer1"
     showgrid="false"
     showguides="true"
     inkscape:guide-bbox="true"
     fit-margin-top="0"
     fit-margin-left="0"
     fit-margin-right="0"
     fit-margin-bottom="0"
     inkscape:window-width="1615"
     inkscape:window-height="1026"
     inkscape:window-x="65"
     inkscape:window-y="24"
     inkscape:window-maximized="1">
    <sodipodi:guide
       orientation="-0.70710678,0.70710678"
       position="-2266.2256,444.03725"
       id="guide2985" />
  </sodipodi:namedview>
  <metadata
     id="metadata7">
    <rdf:RDF>
      <cc:Work
         rdf:about="">
        <dc:format>image/svg+xml</dc:format>
        <dc:type
           rdf:resource="http://purl.org/dc/dcmitype/StillImage" />
        <dc:title></dc:title>
      </cc:Work>
    </rdf:RDF>
  </metadata>
  <g
     inkscape:label="Ebene 1"
     inkscape:groupmode="layer"
     id="layer1"
     transform="translate(-837.65414,-203.85803)">
    <path
       style="fill:#000000"
       d="m 874.8832,470.0391 c -4.70685,-1.38492 -8.39027,-5.10188 -8.39027,-8.46666 0,-1.55126 -0.73252,-4.23702 -1.62781,-5.96833 -1.82576,-3.53064 -1.90881,-4.24632 -1.7727,-15.27653 0.0541,-4.3872 -0.99869,-12.74623 -2.38141,-18.90767 l -2.47845,-11.04393 2.61864,-8.61541 c 1.44024,-4.73847 2.96887,-11.65984 3.39695,-15.38082 0.42808,-3.72097 1.35135,-8.52347 2.05172,-10.67221 1.57939,-4.84562 1.23282,-17.92478 -0.47537,-17.93897 -0.67657,-0.006 -2.14511,-1.02126 -3.26344,-2.25699 -1.82123,-2.01243 -1.85697,-2.45183 -0.34273,-4.21272 0.92982,-1.08126 2.57727,-6.67181 3.66099,-12.42344 1.60254,-8.50509 1.73179,-11.40517 0.69231,-15.53336 -1.13935,-4.52472 -1.01996,-5.49356 1.09951,-8.92294 l 2.37764,-3.8471 -3.36391,-4.21075 c -1.85014,-2.31591 -5.16832,-5.94365 -7.37372,-8.06163 -4.63729,-4.45349 -5.95316,-7.85109 -7.47866,-19.31001 -0.6073,-4.56173 -1.39515,-10.11492 -1.75078,-12.34041 -0.5128,-3.20906 0.0759,-5.32675 2.84539,-10.23385 4.19801,-7.43848 5.71552,-8.87467 13.00414,-12.30729 5.52164,-2.60045 5.62703,-2.74534 6.21061,-8.53897 0.43337,-4.30243 0.15008,-6.33718 -1.04925,-7.53651 -2.13642,-2.13642 -3.01995,-14.09293 -1.28145,-17.34135 2.22667,-4.16056 7.87319,-6.82859 14.4616,-6.83321 5.11924,-0.003 6.45885,0.47044 9.26797,3.27956 1.82592,1.82591 3.28376,4.49453 3.28376,6.011 0,1.5 0.54186,4.28163 1.20413,6.18141 0.89735,2.57415 0.80047,5.6205 -0.38027,11.95744 -0.87141,4.67681 -1.32901,8.75866 -1.01689,9.07079 0.31212,0.31212 1.95769,0.56749 3.65681,0.56749 1.69913,0 3.28836,0.59708 3.53162,1.32685 0.24325,0.72975 2.16912,1.90826 4.27971,2.61889 3.62544,1.22068 4.03243,1.08531 7.36687,-2.45024 3.88945,-4.12402 7.49692,-4.75506 11.43092,-1.99959 3.73322,2.61485 5.04499,5.77545 6.50361,15.66986 1.32993,9.0214 1.11411,12.3106 -0.73285,11.16911 -0.54605,-0.33747 -0.68861,0.17916 -0.3168,1.14809 0.45402,1.18313 -1.62204,4.05262 -6.32162,8.73764 -3.84871,3.83678 -7.41258,7.99917 -7.91973,9.24973 -0.83724,2.0646 -0.92861,2.08207 -0.99327,0.1899 -0.0392,-1.14612 1.44537,-4.331 3.29896,-7.07751 1.8536,-2.7465 3.37018,-5.363 3.37018,-5.81442 0,-0.45144 -1.49156,-1.3838 -3.31458,-2.07191 -1.82303,-0.68811 -4.38978,-2.94743 -5.70393,-5.0207 -1.78495,-2.81608 -2.19481,-3.09465 -1.62032,-1.10127 0.47781,1.65788 0.34668,2.40729 -0.34627,1.97902 -0.61341,-0.3791 -1.35282,0.55335 -1.64315,2.07211 -0.29033,1.51876 -0.13611,2.51927 0.34271,2.22333 0.47882,-0.29592 1.20471,2.87891 1.61311,7.05519 0.40839,4.17628 0.99758,8.50584 1.30931,9.62123 0.69933,2.50223 8.9856,8.64422 11.66208,8.64422 2.66337,0 8.66713,-7.05267 11.36848,-13.35465 1.21662,-2.83827 2.90397,-8.45109 3.74968,-12.47293 0.84572,-4.02184 1.96489,-9.05843 2.48707,-11.19241 0.64734,-2.64546 0.40318,-5.9765 -0.76735,-10.46935 -1.8325,-7.03369 -1.59811,-6.91068 -8.89588,-4.66866 -2.03025,0.62373 -2.55243,0.44186 -2.15879,-0.75186 0.28558,-0.86602 1.61708,-1.73613 2.95888,-1.93356 1.3418,-0.19744 2.43963,-1.10509 2.43963,-2.01701 0,-3.14018 5.28361,-7.17284 9.3979,-7.17284 4.61712,0 8.94907,4.4181 10.7737,10.98794 1.45909,5.25369 1.45697,7.60314 -0.0117,12.89143 -1.52753,5.50057 -5.05506,8.69896 -9.5941,8.69896 -3.50996,0 -3.6378,0.17078 -4.41484,5.89781 -1.83957,13.55834 -10.68239,27.80391 -17.25903,27.80391 -3.04796,0 -12.48314,-6.01713 -12.48314,-7.96091 0,-0.56442 -0.45073,-1.02621 -1.0016,-1.02621 -3.04021,0 -2.44733,18.85839 0.69156,21.99728 1.12305,1.12305 1.5123,3.20156 1.19911,6.4028 -0.29361,3.00096 0.33358,6.80069 1.70951,10.3569 1.19529,3.08932 2.41665,7.24219 2.71413,9.22861 0.29747,1.98641 1.24591,4.19679 2.10765,4.91196 1.94658,1.61553 2.0334,4.28746 0.16253,5.00283 -1.07087,0.40947 -1.19985,3.00132 -0.54325,10.9178 1.0431,12.57679 1.14561,15.20579 0.93033,23.86155 -0.196,7.88142 0.86041,31.00083 1.64969,36.10299 0.65325,4.22279 12.87616,17.25807 16.18255,17.25807 3.20099,0 8.42067,4.88525 7.57482,7.08951 -1.87243,4.87947 -13.85941,6.27109 -22.35411,2.59518 -2.53057,-1.09504 -5.47901,-1.52551 -7.57615,-1.10608 -1.89605,0.37922 -4.99972,0.0379 -6.93173,-0.76243 l -3.49843,-1.4491 0.71902,-6.83456 c 2.21743,-21.07766 2.21201,-21.20233 -1.26735,-29.09975 -3.10513,-7.04802 -3.22435,-7.89105 -2.32371,-16.43147 0.76719,-7.27503 0.61825,-9.64257 -0.77626,-12.33926 -0.94909,-1.83533 -1.73521,-4.75226 -1.74695,-6.48207 -0.0268,-3.96157 -6.47123,-14.51445 -7.95653,-13.02915 -0.58442,0.58442 -1.53854,3.98693 -2.12025,7.56112 -0.58172,3.57419 -2.0863,8.24192 -3.3435,10.37274 -1.25721,2.13081 -2.28896,4.47722 -2.29277,5.21424 -0.003,0.73701 -0.82417,2.8566 -1.82305,4.71019 -1.18984,2.20798 -1.991,7.24415 -2.32324,14.60408 -0.27891,6.17865 -1.26245,13.22626 -2.18564,15.66137 -0.93052,2.4544 -1.73423,8.49413 -1.8035,13.55292 -0.11506,8.4018 0.17448,9.65429 3.65108,15.79358 2.07684,3.66746 5.45356,8.74228 7.50384,11.27736 4.09582,5.06434 4.81088,9.16842 1.76184,10.11208 -1.08126,0.33465 -2.74081,1.01279 -3.68789,1.50699 -3.15016,1.6438 -8.3475,2.13995 -11.79389,1.1259 z m 9.02229,-4.35805 c 0,-1.20448 -1.47973,-1.58077 -5.8978,-1.4998 -3.24379,0.0594 -5.8978,-0.29012 -5.8978,-0.7768 0,-0.4867 2.65401,-1.16247 5.8978,-1.50172 4.96469,-0.51923 6.14165,-0.27524 7.43906,1.54216 1.68852,2.36525 4.63739,2.91875 4.63739,0.87044 0,-0.7087 -1.67751,-3.36271 -3.72778,-5.89781 -2.05028,-2.53508 -5.43223,-7.61902 -7.51544,-11.29763 -3.23022,-5.70404 -3.85583,-8.01867 -4.25088,-15.72747 -0.37231,-7.26517 1.5e-4,-10.25165 1.89791,-15.21774 2.52542,-6.60851 3.39404,-18.18323 1.06341,-14.17048 -0.67679,1.16529 -1.54608,4.70397 -1.93177,7.86374 -0.39752,3.2568 -1.18778,5.50176 -1.82462,5.18335 -1.88406,-0.94204 -0.76757,-8.68829 2.14804,-14.90314 1.51708,-3.23378 3.86527,-9.16551 5.2182,-13.18163 1.35294,-4.01612 3.35401,-8.81862 4.44683,-10.67221 1.09283,-1.8536 2.33198,-5.13952 2.75369,-7.30204 0.42172,-2.16253 1.01447,-4.8122 1.31722,-5.88818 0.4933,-1.75311 -0.1352,-1.88463 -6.05148,-1.26625 -4.95453,0.51785 -7.48168,0.23512 -10.12738,-1.13303 -1.93897,-1.00268 -3.71849,-1.82306 -3.95447,-1.82306 -0.23599,0 -0.19711,2.79701 0.0864,6.21556 0.34095,4.11143 -0.15766,8.35553 -1.47289,12.53698 -2.03709,6.47645 -1.97949,7.47328 1.34421,23.26072 0.45646,2.16823 0.28462,3.00851 -0.5143,2.51476 -0.65992,-0.40785 -1.53167,-2.25232 -1.93722,-4.09884 -1.13154,-5.15181 -2.36753,-4.05414 -4.56149,4.05101 -1.98245,7.32378 -1.97585,7.53058 0.57845,18.12598 1.8405,7.63447 2.40119,12.48683 1.94907,16.8675 -0.4986,4.83104 -0.0472,7.7787 2.10528,13.74573 1.507,4.17774 2.74,8.39971 2.74,9.38215 0,3.47723 4.68862,6.49544 9.53512,6.13804 3.00654,-0.22172 4.50726,-0.86775 4.50726,-1.94029 z m -16.28917,-20.8494 c 0,-1.63906 3.53113,-7.31255 4.55126,-7.31255 1.25598,0 -1.65177,6.20435 -3.41988,7.2971 -0.62226,0.38458 -1.13138,0.39153 -1.13138,0.0155 z m 6.74035,-57.86513 c 0,-0.61787 1.01105,-1.12339 2.24678,-1.12339 1.23573,0 2.24678,0.50552 2.24678,1.12339 0,0.61786 -1.01105,1.12339 -2.24678,1.12339 -1.23573,0 -2.24678,-0.50553 -2.24678,-1.12339 z m -2.24678,-8.24598 c 0,-3.08047 0.40278,-3.40101 5.72723,-4.55778 2.34109,-0.50861 3.17009,-0.0824 4.18863,2.15296 0.77508,1.70113 0.84154,2.78706 0.17057,2.78706 -0.60462,0 -1.09931,-0.56032 -1.09931,-1.24517 0,-1.78642 -5.85589,-0.17777 -7.58289,2.08307 -1.22968,1.6098 -1.40423,1.45812 -1.40423,-1.22014 z m 70.27108,65.95852 c 3.3846,-2.21767 2.18816,-4.2952 -3.08039,-5.34892 -4.23737,-0.84748 -17.10095,-13.74546 -18.35469,-18.40379 -0.75132,-2.79159 -1.40363,-13.24851 -2.04836,-32.83644 -0.13217,-4.01612 0.19535,-9.00389 0.72785,-11.08392 0.5325,-2.08005 0.64387,-5.07405 0.24749,-6.65333 l -0.72067,-2.87143 -2.78389,3.0023 c -3.59205,3.87387 -5.59664,3.79283 -7.71938,-0.31208 -2.01409,-3.89482 -2.09905,-4.54935 -0.59054,-4.54935 0.61786,0 1.12339,0.69639 1.12339,1.54753 0,0.85114 0.75829,2.17685 1.68508,2.94603 2.0925,1.73661 5.05526,-0.28646 5.05526,-3.4519 0,-1.12938 0.69142,-2.45768 1.53647,-2.95178 1.12932,-0.66029 1.38917,-2.62204 0.98057,-7.40271 -0.50412,-5.89833 -0.72578,-6.35359 -2.37902,-4.88628 -4.84614,4.3011 -15.21139,6.54011 -17.88759,3.86391 -1.0485,-1.04849 -1.66013,-1.01187 -2.75231,0.1648 -0.77233,0.83209 -0.88698,1.22698 -0.25478,0.87755 1.93466,-1.06934 9.69478,11.20634 10.35721,16.38402 0.33104,2.58743 1.53789,6.57091 2.68187,8.85215 2.26084,4.50836 1.81207,7.89772 -0.90749,6.85413 -1.45938,-0.56003 -1.58832,0.43944 -0.915,7.09212 0.43108,4.25921 1.7429,9.41587 2.91514,11.45925 1.52745,2.66251 2.13137,5.90941 2.13137,11.45893 0,5.30302 0.47741,8.02685 1.5147,8.64206 1.68065,0.9968 3.38202,9.3238 1.90504,9.3238 -1.26304,0 -2.29635,-2.92272 -2.29635,-6.49521 0,-4.92983 -1.90711,-1.25902 -2.60065,5.00573 -0.79191,7.15345 0.33085,8.31084 7.77294,8.01267 3.02496,-0.1212 8.28031,0.60309 11.67857,1.60955 7.93955,2.35144 9.59006,2.37059 12.97816,0.15061 z m -52.95374,-87.08173 c 2.09345,-0.95383 2.87081,-2.27897 3.12588,-5.32867 0.30594,-3.65779 0.8076,-4.22093 5.0739,-5.69578 3.30158,-1.14134 5.12773,-2.58627 6.03409,-4.77441 0.71483,-1.72576 1.74389,-3.13775 2.2868,-3.13775 1.35183,0 1.2687,0.45663 -0.91792,5.04201 -1.31027,2.74768 -2.95231,4.26624 -5.25969,4.86414 -4.93049,1.27762 -4.82531,3.25781 0.25389,4.77958 3.94212,1.18108 5.03764,1.05455 9.33942,-1.07881 7.07652,-3.5094 10.43733,-6.57169 9.08407,-8.27716 -0.61005,-0.76884 -1.47008,-3.39648 -1.91117,-5.83921 -0.44107,-2.44271 -1.77781,-6.35412 -2.9705,-8.69201 -1.60553,-3.14709 -1.98021,-5.42853 -1.44314,-8.78721 0.54374,-3.40033 0.26118,-5.04947 -1.12823,-6.58475 -1.70838,-1.88772 -2.31427,-1.92554 -7.73105,-0.48239 -3.23257,0.86122 -8.40503,1.33568 -11.49436,1.05436 -3.08932,-0.28131 -9.28428,-0.69513 -13.76658,-0.91959 -9.66281,-0.48389 -9.78352,-0.3259 -8.6374,11.30539 0.75645,7.67669 -0.2744,14.88763 -3.41439,23.88417 -0.78509,2.24942 -1.03957,4.71747 -0.56549,5.48454 0.60745,0.98288 1.08641,0.68746 1.62215,-1.00055 1.02499,-3.22943 2.85559,-3.04153 2.85559,0.29312 0,5.32036 11.4354,7.59468 19.56413,3.89098 z m -5.52174,-20.07081 c -1.23573,-0.52506 -1.95563,-0.9902 -1.59979,-1.03362 7.98597,-0.9746 25.76297,-3.66816 27.43777,-4.15738 2.08866,-0.61009 2.11762,-0.52145 0.41149,1.25946 -1.23546,1.28962 -4.907,2.25552 -11.23391,2.95537 -5.16923,0.57181 -10.1569,1.24017 -11.0837,1.48525 -0.92679,0.24508 -2.69613,0.016 -3.93186,-0.50908 z m 6.80939,-4.59446 c 0.41983,-0.67931 3.86195,-2.73675 7.64917,-4.57209 l 6.88586,-3.337 -5.05526,0.78256 c -2.78039,0.43042 -7.23223,1.43591 -9.89299,2.23443 -3.5129,1.05427 -4.71967,1.09767 -4.40661,0.15853 0.528,-1.58402 13.33226,-5.08609 18.97462,-5.1897 5.41725,-0.0994 5.20091,3.12805 -0.33822,5.04575 -2.14387,0.74222 -5.99865,2.42121 -8.56618,3.73106 -5.27125,2.68919 -6.34935,2.9246 -5.25039,1.14646 z m -18.60499,-4.24557 c 0,-0.5429 1.55573,-1.63151 3.45719,-2.41912 4.57658,-1.89568 7.71275,-6.46189 5.4411,-7.92215 -2.59972,-1.67116 -4.94005,-0.64051 -5.3424,2.35273 -0.49404,3.67532 -2.16237,5.36978 -3.03865,3.08623 -0.3739,-0.97434 0.14536,-3.36725 1.15391,-5.31757 1.67702,-3.24298 2.13999,-3.46766 5.4174,-2.62902 6.53233,1.67154 22.33707,1.06523 26.4051,-1.01294 3.36542,-1.71925 3.68977,-1.72867 3.37017,-0.098 -0.51611,2.63343 -8.22666,5.00833 -16.93636,5.21652 -6.21026,0.14844 -7.71196,0.54781 -8.23365,2.18963 -0.35094,1.10444 -2.61003,3.25293 -5.02022,4.77441 -4.57668,2.88914 -6.67359,3.4482 -6.67359,1.77924 z m 28.08476,-17.44865 c 2.78039,-0.50755 5.93993,-1.38741 7.02119,-1.95526 2.02652,-1.06428 2.71905,-5.97231 0.99321,-7.03895 -0.53501,-0.33065 -0.73208,-1.86011 -0.43794,-3.3988 0.49398,-2.58412 0.24673,-2.76943 -3.23998,-2.42827 -2.07613,0.20314 -4.59422,0.72076 -5.59575,1.15028 -1.1429,0.49014 -2.06281,0.15073 -2.47042,-0.9115 -0.41547,-1.0827 -0.12781,-1.49226 0.79844,-1.13682 1.95258,0.74927 3.7537,-1.63144 4.33147,-5.7253 l 0.47563,-3.37017 0.88758,3.65102 c 0.48818,2.00806 1.59012,3.65102 2.44877,3.65102 2.12489,0 6.01234,-6.62234 6.01751,-10.25094 0.002,-1.62189 -0.30515,-4.49564 -0.68324,-6.3861 -0.68473,-3.42362 -0.69667,-3.42861 -3.02031,-1.26382 -1.28307,1.19537 -3.23273,2.17339 -4.33256,2.17339 -1.31596,0 -1.7786,0.57616 -1.35307,1.68509 0.36431,0.94934 2.0367,1.68508 3.83031,1.68508 1.75103,0 3.5169,0.53916 3.92418,1.19813 1.16055,1.87782 0.21427,2.12086 -4.29643,1.10353 -2.40145,-0.54162 -4.45244,-0.51514 -4.80917,0.0621 -0.8499,1.37515 -4.98298,1.27815 -4.98298,-0.11696 0,-0.61786 1.01105,-1.12339 2.24678,-1.12339 2.38278,0 3.21844,-3.76045 1.12339,-5.05526 -2.16879,-1.34038 -1.09223,-2.41477 1.96942,-1.96543 4.7737,0.70064 8.40852,-3.85705 8.95271,-11.22577 0.50317,-6.81316 -1.80027,-12.27634 -6.68638,-15.8584 -2.65488,-1.94632 -3.42958,-2.05353 -5.77373,-0.79898 -1.48907,0.79692 -3.25413,2.6489 -3.92236,4.11549 -1.0285,2.2573 -0.78895,3.09251 1.56101,5.44246 3.26454,3.26454 3.22357,2.62886 1.08423,16.82258 -0.92315,6.12481 -1.68956,13.45494 -1.70313,16.28916 -0.0253,5.27209 -2.66375,12.38173 -6.69729,18.04631 -1.24584,1.74962 -2.26418,3.35586 -2.26298,3.56942 0.005,0.71209 9.47992,0.30006 14.60189,-0.63492 z m -8.83982,-1.0461 c -0.68816,-0.82917 -0.92296,-1.83584 -0.52176,-2.23703 0.84309,-0.8431 3.74463,1.29455 3.74463,2.75879 0,1.47903 -1.80486,1.18684 -3.22287,-0.52176 z m 8.83982,-5.48741 c 0,-2.04788 1.99157,-3.74518 3.0972,-2.63956 0.38552,0.38552 -0.15364,1.55552 -1.19813,2.60001 -1.75131,1.7513 -1.89907,1.75438 -1.89907,0.0396 z m -12.69019,0.3807 c 1.9865,-3.32893 3.85949,-8.13143 4.16217,-10.67221 0.3027,-2.54077 1.37091,-10.85614 2.37382,-18.4786 1.74703,-13.27809 1.73765,-13.92407 -0.22388,-15.4109 -1.12604,-0.85354 -3.42503,-1.56796 -5.10887,-1.58762 -2.82587,-0.033 -2.97719,0.18608 -1.96593,2.84589 3.26184,8.57929 -0.64056,21.00135 -9.85747,31.37816 -5.07255,5.71089 -6.87478,4.35727 -1.96594,-1.47657 3.68957,-4.38478 3.51374,-6.03266 -0.86086,-8.0686 -1.99139,-0.9268 -4.67281,-3.58459 -5.95873,-5.90619 -1.2859,-2.3216 -2.5839,-3.97519 -2.88444,-3.67466 -1.57807,1.57807 0.67179,-13.95691 2.47647,-17.09968 l 2.09653,-3.65102 -2.54591,0 c -1.40026,0 -3.15254,0.60663 -3.89398,1.34807 -1.0485,1.04849 -1.34807,0.95424 -1.34807,-0.42415 0,-2.77456 3.02785,-4.59934 6.73005,-4.05598 1.85926,0.27288 3.38047,0.16243 3.38047,-0.24545 0,-0.40787 1.51657,-0.7416 3.37017,-0.7416 4.6793,0 5.0398,-0.74237 2.92594,-6.02541 -2.24449,-5.60954 -0.37133,-4.84529 2.65271,1.08232 2.95105,5.78452 7.82842,6.89896 12.60465,2.88003 1.83343,-1.54273 4.17938,-2.837 5.21325,-2.87617 1.24848,-0.0473 0.96615,-0.43635 -0.84072,-1.15852 -1.97211,-0.78822 -2.97645,-0.69137 -3.65102,0.35205 -0.62672,0.96939 -1.20567,1.05471 -1.7731,0.26129 -0.4634,-0.64794 -3.05282,-1.82418 -5.75425,-2.61385 -4.7648,-1.39284 -8.27349,-4.13838 -11.03055,-8.63139 -1.2,-1.95558 -1.34658,-1.77477 -1.41958,1.75112 -0.13494,6.51809 -1.20621,8.73187 -4.9321,10.19233 -3.62088,1.41929 -13.09287,9.7145 -13.09287,11.46623 0,0.53336 -0.75829,1.72803 -1.68509,2.65482 -3.02279,3.02279 -2.53121,9.2273 1.24117,15.66569 3.12224,5.32877 3.3423,6.57037 1.00561,5.67369 -4.42654,-1.69862 0.54422,12.31694 6.39431,18.0294 4.83741,4.7236 5.79841,3.4539 1.36957,-1.80948 -1.5996,-1.901 -2.40282,-3.45637 -1.78496,-3.45637 2.29322,0 7.13459,7.09298 6.63285,9.71764 -0.54043,2.82706 1.92437,5.65884 6.86847,7.89111 5.11361,2.30882 7.22726,1.33109 11.08011,-5.12542 z m -13.14779,1.07964 c 0,-0.57262 1.51657,-1.79769 3.37017,-2.72237 3.70735,-1.84947 4.69672,-0.29968 1.40424,2.19966 -2.29642,1.74323 -4.77441,2.01452 -4.77441,0.52271 z m -4.31594,-19.17992 c -1.37042,-1.8536 -2.05913,-3.37017 -1.53047,-3.37017 1.11604,0 5.84641,4.83052 5.84641,5.9702 0,1.75172 -1.98075,0.55846 -4.31594,-2.60003 z m 10.44426,-5.19139 c 4.73597,-1.81737 6.67252,-13.59837 3.4881,-21.21977 -2.01931,-4.83289 -7.98697,-8.76385 -10.92085,-7.19368 -3.1122,1.6656 -5.43592,7.09162 -5.43592,12.69319 0,11.10314 5.95223,18.37433 12.86867,15.72026 z m 46.05902,-12.3573 c 4.73596,-1.81737 6.67252,-13.59836 3.4881,-21.21977 -2.01932,-4.83289 -7.98697,-8.76384 -10.92085,-7.19368 -3.1122,1.66561 -5.43592,7.09162 -5.43592,12.69319 0,11.10315 5.95223,18.37434 12.86867,15.72026 z m 26.44189,-8.84235 c 5.66239,-6.02734 3.72409,-19.18073 -3.61988,-24.56468 -2.65487,-1.94632 -3.42957,-2.05353 -5.77372,-0.79898 -1.48908,0.79692 -3.25793,2.65723 -3.9308,4.13401 -1.10224,2.41913 -0.96026,2.68506 1.43349,2.68506 3.16613,0 4.26161,3.5144 4.46492,14.32394 0.11879,6.31616 0.36643,7.02184 2.46388,7.02119 1.28248,-3.8e-4 3.51543,-1.26063 4.96211,-2.80054 z m -64.59975,-5.22769 c 1.22863,-0.23304 2.41466,-1.36244 2.63562,-2.50978 0.22096,-1.14734 -0.0735,-1.7924 -0.65421,-1.43346 -0.58079,0.35894 -2.91105,0.14041 -5.17835,-0.48563 -5.6478,-1.55942 -6.73751,-0.45674 -3.16428,3.20196 1.65217,1.69168 3.25671,2.75512 3.56564,2.36319 0.30894,-0.39191 1.56694,-0.90325 2.79558,-1.13628 z m 21.72813,-7.8417 c -3.34806,-2.12249 -4.12525,-0.86928 -1.72332,2.77883 2.45153,3.72345 2.47955,3.73295 2.84671,0.96445 0.20394,-1.53782 -0.30158,-3.22229 -1.12339,-3.74328 z m -15.71969,-10.81131 c 3.45791,-6.66913 2.03174,-23.09161 -2.43895,-28.08476 -4.2569,-4.75438 -17.64471,-2.13817 -19.93906,3.89642 -1.37363,3.61294 -1.30959,8.18003 0.11471,8.18003 0.64978,0 0.85002,1.17448 0.46308,2.71616 -0.51441,2.04959 -0.0913,3.03214 1.7238,4.00358 1.32303,0.70806 3.36306,2.86196 4.53341,4.78644 3.50513,5.76374 13.40244,8.63056 15.54301,4.50213 z m 41.3741,43.90585 c -1.5857,-1.58569 -0.17109,-14.32491 1.47754,-13.306 0.7449,0.46037 0.37461,12.95172 -0.40712,13.73344 -0.17683,0.17682 -0.65851,-0.0155 -1.07042,-0.42744 z"
       id="path3063"
       inkscape:connector-curvature="0" />
  </g>
</svg>
