<?xml version="1.0" encoding="UTF-8" standalone="no"?>
<!-- Created with Inkscape (http://www.inkscape.org/) -->

<svg
   xmlns:dc="http://purl.org/dc/elements/1.1/"
   xmlns:cc="http://creativecommons.org/ns#"
   xmlns:rdf="http://www.w3.org/1999/02/22-rdf-syntax-ns#"
   xmlns:svg="http://www.w3.org/2000/svg"
   xmlns="http://www.w3.org/2000/svg"
   xmlns:sodipodi="http://sodipodi.sourceforge.net/DTD/sodipodi-0.dtd"
   xmlns:inkscape="http://www.inkscape.org/namespaces/inkscape"
   width="215.24866"
   height="237.5106"
   id="svg2"
   version="1.1"
   inkscape:version="0.48.3.1 r9886"
   sodipodi:docname="Neues Dokument 1">
  <defs
     id="defs4" />
  <sodipodi:namedview
     id="base"
     pagecolor="#ffffff"
     bordercolor="#666666"
     borderopacity="1.0"
     inkscape:pageopacity="0.0"
     inkscape:pageshadow="2"
     inkscape:zoom="0.7"
     inkscape:cx="8.0397569"
     inkscape:cy="-50.880333"
     inkscape:document-units="px"
     inkscape:current-layer="layer1"
     showgrid="false"
     fit-margin-top="0"
     fit-margin-left="0"
     fit-margin-right="0"
     fit-margin-bottom="0"
     inkscape:window-width="661"
     inkscape:window-height="760"
     inkscape:window-x="139"
     inkscape:window-y="90"
     inkscape:window-maximized="0" />
  <metadata
     id="metadata7">
    <rdf:RDF>
      <cc:Work
         rdf:about="">
        <dc:format>image/svg+xml</dc:format>
        <dc:type
           rdf:resource="http://purl.org/dc/dcmitype/StillImage" />
        <dc:title></dc:title>
      </cc:Work>
    </rdf:RDF>
  </metadata>
  <g
     inkscape:label="Ebene 1"
     inkscape:groupmode="layer"
     id="layer1"
     transform="translate(-412.40385,-598.98974)">
    <path
       style="fill:#000000"
       d="m 491.33344,833.91146 c -1.90071,-1.59935 -3.07672,-3.52947 -3.07672,-5.04966 0,-1.35343 -0.65206,-3.72171 -1.44902,-5.26286 -1.63236,-3.15665 -1.69306,-3.69572 -1.58277,-14.05707 0.0461,-4.32929 -0.80933,-11.30445 -2.03889,-16.62542 l -2.11829,-9.16694 2.17138,-7.37458 c 1.19426,-4.05602 2.57868,-10.58648 3.07648,-14.51214 0.49781,-3.92565 1.36321,-8.34245 1.92311,-9.8151 0.5599,-1.47265 1.02489,-5.23574 1.03331,-8.36244 0.0109,-4.03935 0.29591,-5.25071 0.98469,-4.1849 1.46185,2.26205 1.19478,8.3296 -0.66032,15.00203 -1.53819,5.53257 -1.54119,6.57651 -0.0408,14.19236 1.74092,8.83667 1.62285,11.12855 -0.27678,5.37261 -0.64747,-1.96185 -1.57488,-3.567 -2.06092,-3.567 -1.09227,0 -3.96119,9.40889 -3.96119,12.99111 0,1.44546 0.95472,6.40353 2.12161,11.01794 1.55368,6.14399 1.95893,9.94631 1.51387,14.20441 -0.49668,4.75197 -0.15341,7.02163 1.87839,12.41961 1.36737,3.63278 2.48613,7.4411 2.48613,8.46294 0,1.02183 1.0906,2.57247 2.42356,3.44586 3.06513,2.00835 10.07644,1.63131 10.07644,-0.54187 0,-1.16636 -1.16774,-1.45883 -5.25,-1.31491 -2.8875,0.10181 -5.25,-0.19226 -5.25,-0.65348 0,-0.46122 2.3625,-1.03058 5.25,-1.26524 4.24444,-0.34494 5.51278,-0.0761 6.62197,1.40348 1.5736,2.09911 4.12803,2.44439 4.12803,0.55799 0,-0.69968 -1.26375,-2.83718 -2.80834,-4.75 -4.3536,-5.3915 -8.92694,-13.36178 -10.10834,-17.61652 -1.64879,-5.93798 -1.28908,-13.82585 0.91668,-20.10164 1.1,-3.1297 1.98405,-7.73096 1.96456,-10.22502 -0.0347,-4.43589 -0.0666,-4.48021 -1.46456,-2.03466 -0.78602,1.375 -1.45197,4.075 -1.47988,6 -0.0536,3.69785 -1.40036,6.81181 -2.30968,5.3405 -0.81434,-1.31763 1.00501,-9.88956 2.86063,-13.47793 0.90012,-1.74065 2.53419,-5.90931 3.63127,-9.26369 1.09707,-3.35439 3.25835,-8.79888 4.80285,-12.09888 1.5445,-3.3 3.09465,-7.68264 3.44478,-9.73919 l 0.6366,-3.73919 -5.90361,0.61705 c -3.281,0.34293 -6.68293,0.18091 -7.65789,-0.3647 -1.33898,-0.74933 -0.23477,-1.10372 4.66431,-1.49697 7.79474,-0.62569 10.81062,-2.2845 10.81062,-5.94612 0,-3.35039 2.37923,-5.83088 5.59287,-5.83088 1.64292,0 2.82524,-0.82355 3.58908,-2.5 0.97098,-2.13106 2.81805,-3.47279 2.81805,-2.04705 0,1.85173 -2.62341,5.54705 -3.93801,5.54705 -5.01326,0 -7.96757,6.32885 -4.08591,8.75299 2.84084,1.77413 7.99728,11.22039 8.04997,14.74701 0.0247,1.65 0.68793,4.125 1.47395,5.5 2.06213,3.60732 1.97973,8.12132 -0.13344,7.31042 -1.45579,-0.55864 -1.553,0.12425 -0.89386,6.27928 0.40677,3.79834 1.59182,8.5766 2.63344,10.61835 2.19901,4.31041 2.42914,11.11131 0.75652,22.3572 -1.35249,9.09346 -1.1124,9.39688 7.45308,9.41944 3.19866,0.008 6.72159,0.5001 7.82874,1.09263 3.60573,1.92973 10.6671,2.09224 13.38996,0.30815 3.0281,-1.98408 1.97704,-3.83317 -2.7119,-4.77096 -3.40904,-0.68181 -14.79603,-12.05911 -15.97286,-15.95927 -0.35768,-1.18538 -0.70591,-5.98024 -0.77386,-10.65524 -0.0679,-4.675 -0.5513,-10.3 -1.07414,-12.5 -0.6115,-2.5731 -0.58901,-6.9747 0.063,-12.3389 0.99573,-8.19134 0.64817,-12.1611 -1.06468,-12.1611 -0.47587,0 -1.14357,0.87698 -1.48376,1.94885 -0.90337,2.84626 -4.55361,3.72053 -6.19004,1.48257 -0.72941,-0.99752 -1.3262,-2.5028 -1.3262,-3.34506 0,-1.07918 0.45967,-0.87511 1.5567,0.69113 2.22264,3.17326 4.11406,2.75015 5.42198,-1.2129 0.62359,-1.88948 1.5395,-3.57698 2.03537,-3.75 0.49587,-0.17303 0.63397,-2.88887 0.30689,-6.03522 l -0.59468,-5.72064 -2.61313,1.85774 c -4.5518,3.23599 -10.54832,4.56012 -14.06134,3.10498 -3.05964,-1.26734 -4.45262,-3.77298 -1.45889,-2.62417 4.39584,1.68684 6.52345,1.63828 10.56823,-0.24121 6.64209,-3.08637 9.6155,-5.77057 8.08887,-7.30208 -0.6875,-0.68969 -1.25,-2.51399 -1.25,-4.05399 0,-3.29332 0.39295,-3.23754 -8.5,-1.20657 -13.03266,2.97641 -21.5,5.69275 -21.5,6.89726 0,3.322 -8.06412,6.7932 -13.40828,5.77159 -4.07729,-0.77942 -1.93567,-2.26228 3.2673,-2.26228 5.83363,0 7.14098,-1.21136 7.14098,-6.61667 0,-3.69209 -0.34211,-4.34046 -2.75,-5.21177 -2.2576,-0.81692 -1.52581,-0.97147 4.08702,-0.86314 5.67494,0.10953 7.01139,-0.17962 7.86288,-1.70114 0.56422,-1.00821 3.78756,-3.11164 7.16298,-4.6743 6.85747,-3.17469 5.45564,-3.71809 -3.56298,-1.38113 -3.29384,0.85352 -6.50043,1.38131 -7.12577,1.17286 -1.8688,-0.62293 8.39883,-3.74625 14.4092,-4.38314 4.66696,-0.49454 5.58334,-0.33289 5.58334,0.9849 0,0.98392 -2.09875,2.40516 -5.58334,3.78096 -9.50094,3.75118 -9.16572,5.33794 0.50774,2.40339 2.69991,-0.81904 5.96957,-1.49404 7.26592,-1.5 1.87933,-0.009 2.19594,-0.36547 1.56231,-1.76082 -0.43707,-0.9625 -0.70138,-3.80976 -0.58735,-6.32724 0.15114,-3.33681 -0.28318,-5.02114 -1.60264,-6.21524 -1.65122,-1.49433 -2.24495,-1.50388 -6.76964,-0.10893 -5.78372,1.78312 -19.50246,1.12946 -23.87189,-1.13743 -2.33048,-1.20906 -2.90297,-1.17171 -4.62379,0.3017 -1.0802,0.92489 -1.96399,2.33161 -1.96399,3.12605 0,0.79443 -0.29541,1.14901 -0.65647,0.78795 -0.36106,-0.36106 0.14943,-2.44364 1.13441,-4.62795 1.36324,-3.0231 1.61803,-5.11501 1.06699,-8.76019 -1.52643,-10.09764 -1.46831,-12.40081 0.30557,-12.10951 0.90722,0.14898 2.16101,-0.0504 2.78619,-0.44316 0.62518,-0.39272 1.69278,-0.044 2.37245,0.77496 1.05691,1.2735 0.69463,1.48899 -2.50333,1.48899 -3.43358,0 -3.67767,0.18383 -2.98751,2.25 0.41335,1.2375 0.9585,4.63008 1.21144,7.53907 0.35504,4.08323 0.97503,5.6266 2.71938,6.76955 4.71741,3.09096 20.51261,3.73769 26.82907,1.0985 l 3.70727,-1.54899 -0.35434,-7.17783 c -0.24823,-5.0282 0.10148,-8.09156 1.16772,-10.22888 1.24228,-2.49021 1.34219,-4.35164 0.54354,-10.12624 -0.94789,-6.85371 -0.094,-12.57518 1.87686,-12.57518 1.10164,0 0.97297,3.40779 -0.1719,4.55266 -1.18354,1.18354 0.4625,12.50087 3.07708,21.15644 1.03157,3.415 1.87558,6.70537 1.87558,7.31192 0,1.86774 5.20773,12.25803 8.25945,16.47898 1.95007,2.69721 3.51871,3.8981 4.81626,3.68714 1.15909,-0.18845 1.92429,0.26446 1.92429,1.13895 0,0.96095 -2.28223,2.01582 -6.75,3.11992 -3.7125,0.91746 -8.1,2.05047 -9.75,2.51779 -1.65,0.46732 -6.6,1.61567 -11,2.5519 -4.4,0.93622 -8.45,2.05231 -9,2.4802 -0.55,0.42788 -2.9125,1.0934 -5.25,1.47893 -2.76907,0.45671 -4.25,1.2165 -4.25,2.18046 0,0.95326 0.62244,1.28258 1.75,0.92589 4.06529,-1.28602 25.53396,-6.53566 35.14363,-8.59351 9.48017,-2.03012 10.47327,-2.08344 11.29969,-0.6067 0.49834,0.89047 1.57663,1.61903 2.39621,1.61903 2.78384,0 8.96987,-3.80821 10.3377,-6.36404 2.59829,-4.85494 -3.14306,-9.68155 -7.92236,-6.66013 -1.28256,0.81082 -1.21147,1.15955 0.5,2.45288 1.48958,1.12565 1.61504,1.51186 0.49513,1.52417 -0.825,0.009 -1.98103,-0.31411 -2.56896,-0.71819 -1.49011,-1.02415 -5.43104,-9.48531 -5.43104,-11.66044 0,-3.13119 -6.14258,-13.57425 -7.98434,-13.57425 -1.98673,0 -5.65607,-3.69292 -4.65953,-4.68946 0.37246,-0.37247 1.2097,-0.14471 1.86054,0.50613 2.22281,2.22281 2.78333,1.1821 2.78333,-5.16773 0,-4.72015 -0.59727,-7.48068 -2.32589,-10.75 -1.50758,-2.85127 -2.1897,-5.5598 -1.93879,-7.69847 0.2129,-1.81475 -0.11793,-4.82975 -0.73517,-6.70002 -1.28927,-3.90651 -7.16317,-9.50045 -9.97593,-9.50045 -1.0484,0 -2.2228,-0.51229 -2.60976,-1.13841 -0.97918,-1.58434 6.34984,-0.18778 9.42908,1.79673 3.15459,2.03307 6.38117,9.60625 6.03473,14.16424 -0.15374,2.02259 0.43816,5.25244 1.31532,7.17744 1.65545,3.63302 3.80324,13.81212 3.81069,18.0602 0.002,1.34189 1.35043,4.4648 2.99572,6.9398 1.93598,2.91228 2.99295,5.77552 2.99572,8.11514 0.005,4.63827 3.43505,9.2503 6.39709,8.60273 1.15895,-0.25337 2.8599,-0.77834 3.77987,-1.16659 1.07857,-0.45519 2.42479,0.0462 3.79018,1.41158 2.10054,2.10054 2.18123,2.1038 10.07732,0.40702 l 7.95978,-1.71048 0,-4.1482 c 0,-5.19574 2.6072,-14.14492 5.1705,-17.74807 2.4565,-3.45293 10.0823,-5.91201 14.054,-4.53195 4.013,1.3944 8.4187,6.96108 10.3445,13.07044 l 1.6942,5.37463 5.6184,-1.3225 c 3.0902,-0.72738 6.2934,-1.31585 7.1184,-1.30772 2.7812,0.0274 -1.0787,1.63889 -7.1222,2.97348 -4.5673,1.00861 -5.5361,1.57106 -5.163,2.99758 0.4227,1.6166 0.869,1.64687 5.6222,0.38133 5.9552,-1.5856 8.499,-1.78467 7.113,-0.55666 -0.5225,0.46296 -3.4737,1.38097 -6.5583,2.04 l -5.6083,1.19826 -0.5761,6.87226 c -0.6161,7.34868 -3.702,15.82796 -6.771,18.60545 -2.8094,2.54239 -9.7855,3.5321 -13.6158,1.93168 -3.4926,-1.45928 -7.447,-6.88199 -9.2963,-12.74813 -2.0273,-6.43033 -0.5345,-6.40605 1.812,0.0295 2.8348,7.77478 6.6858,11.22924 12.5181,11.22924 5.1838,0 8.0121,-1.89674 10.9091,-7.31608 1.9433,-3.63521 2.2366,-5.69218 2.2366,-15.68394 0,-10.49801 -0.2376,-11.98383 -2.7271,-17.05304 -5.4464,-11.08968 -16.2107,-12.62975 -21.5742,-3.08665 -1.9653,3.49678 -4.9276,16.74406 -3.9605,17.71116 0.2543,0.25433 2.8132,-0.0802 5.6864,-0.74341 4.3911,-1.01358 5.3691,-0.97642 6.1344,0.23305 2.3407,3.69929 0.056,5.00656 -15.3453,8.78222 -10.95569,2.68575 -13.76023,3.72805 -14.25894,5.29934 -0.3588,1.13048 -2.96992,2.99489 -6.18676,4.41753 -5.45954,2.41447 -5.62525,2.42713 -8.66696,0.66248 -2.89633,-1.68032 -3.53002,-1.69753 -9.601,-0.26087 -6.14411,1.45397 -6.48306,1.68475 -6.19064,4.21501 0.17015,1.47225 0.95765,3.21485 1.75,3.87245 1.7725,1.47104 1.87336,3.84773 0.19064,4.49235 -0.95766,0.36686 -1.0655,2.7567 -0.46111,10.21862 0.90222,11.13902 0.9451,12.36825 0.7409,21.23976 -0.16479,7.15959 0.77986,26.73128 1.52425,31.58015 0.59056,3.84683 11.3177,15.41985 14.2928,15.41985 2.94661,0 7.63259,4.30825 6.86413,6.31082 -0.89468,2.3315 -7.22946,4.7035 -11.53322,4.31851 -2.02276,-0.18095 -5.42237,-1.10148 -7.55468,-2.04562 -2.70288,-1.19678 -5.05976,-1.51678 -7.78289,-1.05671 -2.80478,0.47387 -4.60151,0.20418 -6.37308,-0.9566 -2.94362,-1.92873 -3.12214,-4.62182 -0.93228,-14.0643 1.76925,-7.62887 1.26598,-11.86456 -2.24096,-18.86058 -2.14338,-4.27584 -2.40567,-6.00421 -2.20042,-14.5 0.26787,-11.0883 -1.52222,-19.17286 -5.61454,-25.35676 -2.70202,-4.08304 -4.5381,-4.10062 -5.10486,-0.0489 -1.14777,8.20539 -1.68915,10.24915 -3.50665,13.23778 -3.6562,6.01217 -5.86739,14.74957 -5.86739,23.18475 0,4.46639 -0.60158,9.34162 -1.38368,11.21345 -2.06605,4.94476 -2.88623,14.50074 -1.69778,19.78091 0.95752,4.25415 6.59323,14.8982 8.2936,15.66396 0.39168,0.1764 1.66167,1.85708 2.8222,3.73485 2.39092,3.86859 1.89007,7.44444 -1.04271,7.44444 -1.03048,0 -2.15171,0.45 -2.49163,1 -0.33992,0.55 -3.03195,1 -5.98229,1 -4.31204,0 -5.96777,-0.50782 -8.44099,-2.58889 z m 47.67328,-125.15164 c 2.3375,-0.28577 4.25,-0.95879 4.25,-1.49562 0,-0.53682 -1.35,-2.68056 -3,-4.76385 -1.65,-2.08329 -3,-4.06949 -3,-4.41378 0,-0.34428 -1.05762,-2.30452 -2.35026,-4.35609 -1.29264,-2.05157 -3.07773,-6.60272 -3.96686,-10.11366 -0.88914,-3.51095 -1.82751,-6.59443 -2.08527,-6.85219 -0.25775,-0.25776 -0.7738,1.158 -1.14678,3.14612 -0.93231,4.96966 0.36179,14.25936 2.24935,16.14692 1.14018,1.14018 1.40018,2.69382 0.97272,5.81251 -0.78218,5.70659 0.1031,8.94392 2.20852,8.07625 0.89022,-0.36687 3.53108,-0.90084 5.86858,-1.18661 z m 42.75005,-5.77583 c 6.05,-1.46809 11.42,-3.07 11.9333,-3.55978 2.2556,-2.1522 -1.171,-2.13983 -10.2076,0.0368 -15.16296,3.65231 -16.22575,4.02263 -16.22575,5.65369 0,0.96834 0.63541,1.34213 1.75,1.02945 0.9625,-0.27002 6.7,-1.69211 12.75005,-3.1602 z m -92.50005,111.02572 c 0,-1.45903 3.14328,-6.50936 4.05136,-6.50936 1.11802,0 -1.47035,5.52288 -3.04425,6.4956 -0.55391,0.34234 -1.00711,0.34853 -1.00711,0.0138 z m 40.60699,-9.09115 c -0.93556,-2.43803 -0.7194,-5.41821 0.39301,-5.41821 0.55,0 1,0.8632 1,1.91821 0,1.05502 0.27314,2.63002 0.60699,3.5 0.33384,0.86999 0.15699,1.58179 -0.39301,1.58179 -0.55,0 -1.27315,-0.7118 -1.60699,-1.58179 z m -92.03319,-42.9643 c -3.52799,-1.83034 -5.14771,-3.76106 -7.51164,-8.95391 -2.44371,-5.36811 -3.3489,-9.5 -2.08121,-9.5 0.56048,0 1.02345,0.7875 1.02882,1.75 0.0168,3.00233 4.66333,11.90763 7.10574,13.61835 1.33288,0.93359 4.2934,1.63165 6.9199,1.63165 3.71218,0 5.0867,-0.52612 7.18448,-2.75 5.99072,-6.35081 8.32122,-19.40895 5.31884,-29.80222 -2.3539,-8.14842 -5.31665,-13.1192 -9.17704,-15.39688 -2.7257,-1.60821 -3.87049,-1.75116 -7.05756,-0.88127 -2.09227,0.57107 -4.43976,1.55402 -5.21665,2.18434 -2.32023,1.8825 -5.02985,9.02078 -5.93413,15.633 l -0.84818,6.202 2.59742,-0.54449 c 9.59446,-2.01124 8.95418,-2.06333 9.66949,0.78669 0.36746,1.46409 0.35163,2.97846 -0.0352,3.36527 -0.38681,0.38682 -6.2986,2.09014 -13.1373,3.78517 -10.16718,2.52001 -12.63352,2.84144 -13.52846,1.76311 -1.69249,-2.03932 -0.19615,-6.34472 2.2051,-6.34472 1.12097,0 3.94057,-0.47904 6.26578,-1.06453 l 4.22764,-1.06454 1.17768,-7.40181 c 1.24425,-7.8202 3.7462,-13.79923 7.00911,-16.74999 1.0831,-0.97948 4.30452,-2.05745 7.15871,-2.39549 4.86328,-0.57598 5.39702,-0.41341 8.49236,2.58671 2.87378,2.78538 6.31947,8.95898 7.93693,14.2205 0.51769,1.68401 1.14613,1.59491 18.31964,-2.59753 2.43626,-0.59474 2.53477,0.0447 -2.22126,-14.41714 -2.28954,-6.96183 -2.78972,-10.35404 -2.94902,-20 -0.1055,-6.3889 -0.80292,-13.753 -1.54981,-16.36466 -1.09523,-3.82968 -1.12202,-5.57111 -0.1385,-9 0.67072,-2.33834 1.71879,-6.8778 2.32903,-10.08769 0.85897,-4.5182 1.95033,-6.72003 4.83267,-9.75 2.20323,-2.31608 4.6528,-3.91383 6.00042,-3.91383 1.91087,0 2.07698,0.24135 1.03239,1.5 -0.68469,0.825 -1.82479,1.5 -2.53355,1.5 -2.0102,0 -6.22735,5.60098 -6.94658,9.22604 -0.35726,1.80068 -1.36754,6.35801 -2.24507,10.1274 -1.45929,6.26838 -1.45967,7.25011 -0.005,11.5 1.10541,3.22829 1.56947,8.05568 1.52035,15.81556 -0.0599,9.4642 0.32525,12.3643 2.52333,19 1.42671,4.30705 2.84829,9.0685 3.15905,10.581 0.57538,2.80018 2.52697,3.86973 2.52697,1.38486 0,-2.44565 4.16374,-6.8253 6.02587,-6.33835 1.64998,0.43148 1.64453,0.2126 -0.0925,-3.71427 -1.29934,-2.93738 -1.89558,-6.90321 -2.0139,-13.39532 -0.16106,-8.83698 -1.19106,-11.98351 -2.97688,-9.094 -0.4586,0.74204 -1.117,1.06598 -1.46311,0.71988 -0.3461,-0.34611 0.50953,-2.35808 1.90141,-4.47104 2.0794,-3.15669 2.57346,-5.22699 2.77055,-11.60988 0.15158,-4.90874 0.62797,-7.63732 1.29423,-7.41279 1.17236,0.3951 0.83777,14.2777 -0.39848,16.53323 -0.40766,0.74378 -0.37964,3.21878 0.0623,5.5 0.44191,2.28123 0.82306,7.40107 0.84702,11.37744 0.0468,7.77545 2.33015,15.27024 4.65213,15.27024 0.76528,0 1.39142,0.45 1.39142,1 0,0.55 -1.8,1 -4,1 -2.2,0 -4,0.4132 -4,0.91821 0,0.50502 -0.27315,1.63002 -0.60699,2.5 -0.39831,1.03799 -0.0545,1.58179 1,1.58179 0.88384,0 1.60699,0.41276 1.60699,0.91725 0,0.85996 -24.13244,7.08275 -27.46745,7.08275 -0.8429,0 -1.53255,0.82701 -1.53255,1.8378 0,1.70861 0.96099,1.60033 13.671,-1.5404 7.51905,-1.858 14.38155,-3.18271 15.25,-2.94379 1.19146,0.32778 1.0216,0.61311 -0.69208,1.16254 -1.81213,0.58099 -2.03593,1.01146 -1.1075,2.13016 1.74616,2.10399 0.1651,2.92296 -1.94912,1.00962 -1.72233,-1.55868 -2.50588,-1.49574 -12.25613,0.98452 -5.72889,1.45731 -10.92519,2.65938 -11.54733,2.67127 -0.69945,0.0134 -1.30412,2.91586 -1.58433,7.60495 -0.4855,8.12424 -2.7612,13.93172 -6.93719,17.70336 -3.17659,2.86901 -9.57451,3.75295 -13.27352,1.83388 z m -8.8238,-21.55247 c 6.24569,-1.54967 9.25,-2.75623 9.25,-3.7149 0,-0.98836 -0.68371,-1.23249 -2.25,-0.80339 -1.2375,0.33903 -5.9625,1.3929 -10.5,2.34194 -6.75408,1.41264 -8.25,2.06243 -8.25,3.58355 0,1.07846 0.52446,1.65451 1.25,1.37296 0.6875,-0.26678 5.4125,-1.51785 10.5,-2.78016 z m 66.25,22.09856 c 0,-0.55 0.9,-1 2,-1 1.1,0 2,0.45 2,1 0,0.55 -0.9,1 -2,1 -1.1,0 -2,-0.45 -2,-1 z m -49.82227,-4.625 c 3.31203,-6.77532 4.19181,-9.96269 4.60556,-16.68567 0.60179,-9.77811 -1.78589,-19.48376 -5.96378,-24.24211 -1.65028,-1.87957 -2.45846,-3.55233 -1.88694,-3.90555 1.59202,-0.98392 6.75074,7.00397 8.2192,12.7268 2.85085,11.11023 0.38134,31.05383 -4.02719,32.52334 -0.75602,0.252 -1.1821,0.0644 -0.94685,-0.41681 z m 47.82227,-2.63031 c 0,-1.72944 0.87142,-2.52806 3.7373,-3.42506 3.94027,-1.23329 5.30446,-0.52582 5.16844,2.68037 -0.0433,1.02165 -0.22448,1.10137 -0.56802,0.25 -0.76336,-1.8918 -4.08953,-1.49819 -6.33772,0.75 -2,2 -2,2 -2,-0.25531 z m -5,-34.17145 c 0,-0.23472 1.35,-1.10023 3,-1.92335 2.38939,-1.19199 3,-1.22867 3,-0.18023 0,0.724 -0.7118,1.58951 -1.58179,1.92335 -1.82504,0.70034 -4.41821,0.80612 -4.41821,0.18023 z m 113.32235,-2.70679 c 3.0266,-4.70858 4.9629,-13.9238 4.3819,-20.854 -0.6385,-7.61634 -3.6412,-16.25201 -6.8319,-19.64835 -2.3765,-2.52966 -1.9091,-4.46943 0.5793,-2.40424 2.6681,2.21434 6.5106,11.71628 7.466,18.46214 1.5135,10.68767 -1.6363,25.10148 -5.767,26.38999 -1.0531,0.32849 -1.0154,-0.0987 0.1717,-1.94554 z M 498.67803,707.15309 c 2.73363,-2.3127 3.72749,-3.82258 3.28139,-4.98512 -1.08729,-2.83343 -4.7423,-2.02297 -6.0088,1.33238 -0.62281,1.65 -1.48372,3 -1.91314,3 -1.05008,0 -1.01716,-0.18996 0.77677,-4.48345 1.39465,-3.33786 1.83912,-3.65612 4.25,-3.04319 8.31305,2.11347 18.43326,1.71686 25.69247,-1.00688 1.88128,-0.70588 1.90075,-0.64487 0.32803,1.02781 -1.82566,1.94168 -14.31946,4.51675 -18.25986,3.76349 -1.77738,-0.33977 -2.54359,0.0894 -3.05904,1.71345 -0.37824,1.19172 -2.11002,3.03403 -3.84842,4.09403 -4.9163,2.99775 -5.57075,2.25189 -1.2394,-1.41252 z m 11.23135,-13.71132 c -1.45896,-1.14762 -2.65266,-2.81435 -2.65266,-3.70384 0,-1.1509 0.90615,-0.69042 3.14239,1.59686 3.67383,3.75768 3.35464,5.13096 -0.48973,2.10698 z m 8.37914,-4.1324 c -0.0175,-0.93004 0.44814,-1.9876 1.03473,-2.35014 1.76258,-1.08933 2.0097,0.059 0.45494,2.11412 -1.27997,1.69187 -1.46174,1.72067 -1.48967,0.23602 z m -10.57292,-2.87555 c -0.36253,-0.58659 -0.39299,-1.33269 -0.0677,-1.65799 0.3253,-0.3253 0.18378,-1.08287 -0.31448,-1.68347 -0.63115,-0.76078 0.61691,-1.15738 4.11464,-1.30751 5.97105,-0.25631 7.56414,-1.36283 8.07537,-5.60897 l 0.38233,-3.17553 0.80048,3.25 c 0.44026,1.7875 1.41922,3.25 2.17547,3.25 0.75625,0 1.375,0.39893 1.375,0.8865 0,0.80191 -3.07168,1.6961 -8.5,2.47443 -4.88735,0.70077 -7.35004,1.86629 -6.82644,3.23077 0.63204,1.64707 -0.2539,1.89634 -1.21468,0.34177 z m -27.6587,-2.93347 c -0.34839,-0.825 -0.91681,-3.525 -1.26315,-6 -0.57862,-4.13486 -0.49899,-4.37013 0.98143,-2.89948 1.12777,1.12033 1.50674,2.92044 1.26314,6 -0.19188,2.42582 -0.63216,3.72656 -0.98142,2.89948 z m 16.64252,-0.41824 c -1.06676,-0.78003 -1.62861,-1.72919 -1.24856,-2.10924 0.80071,-0.8007 6.80586,1.64481 6.80586,2.77159 0,1.26241 -3.49465,0.84589 -5.5573,-0.66235 z m 4.5573,-3.46518 c 0,-0.48589 1.125,-1.09848 2.5,-1.36133 1.67641,-0.32047 2.5,-0.0294 2.5,0.88342 0,0.78542 -1.05763,1.36133 -2.5,1.36133 -1.375,0 -2.5,-0.39754 -2.5,-0.88342 z m 4.35233,-4.10989 c -2.2594,-0.91162 -4.079,-3.00669 -2.61135,-3.00669 0.47246,0 1.38658,0.52756 2.03138,1.17236 0.89647,0.89647 2.00248,0.7253 4.7,-0.72741 1.9402,-1.04487 3.52764,-2.24743 3.52764,-2.67235 0,-0.42493 1.125,-0.7726 2.5,-0.7726 1.9165,0 2.50742,-0.52515 2.5318,-2.25 0.0286,-2.02601 0.1578,-2.08434 1.29738,-0.58598 0.69606,0.91522 2.55955,1.81522 4.14108,2 1.58153,0.18479 3.03739,0.83003 3.23525,1.43386 0.24283,0.74108 -0.86959,0.88628 -3.42288,0.44677 -2.08045,-0.35811 -4.45763,-0.32749 -5.28263,0.068 -0.825,0.39554 -3.1875,1.45311 -5.25,2.35015 -2.0625,0.89704 -3.75,2.05987 -3.75,2.58407 0,1.13178 -0.76378,1.12336 -3.64767,-0.0402 z m -13.82368,-4.36208 c -2.21837,-1.62211 -1.42102,-4.68138 1.18996,-4.56566 1.04763,0.0464 1.26651,0.2867 0.53139,0.58333 -0.6875,0.27741 -1.25,1.19814 -1.25,2.04605 0,1.17515 0.70402,1.40087 2.96123,0.94942 3.16417,-0.63283 5.08329,0.72745 2.45124,1.73746 -2.3997,0.92086 -3.8512,0.73569 -5.88382,-0.7506 z m 14.48623,-1.33791 c 0.008,-0.44368 1.54125,-2.6067 3.40683,-4.8067 3.72284,-4.39021 6.11878,-4.27387 2.65552,0.12894 -2.42097,3.07778 -6.08498,5.90496 -6.06235,4.67776 z m 26.28894,-1.3067 c -1.98358,-4.90517 -2.47111,-8.22243 -1.14338,-7.77985 1.4437,0.48123 3.13481,6.20103 2.5512,8.62888 -0.30477,1.26789 -0.63144,1.07089 -1.40782,-0.84903 z m -38.57169,-5.53605 c -2.05267,-1.39483 -3.73213,-2.96983 -3.73213,-3.5 0,-1.47722 0.84737,-1.18215 4.41111,1.53605 4.10901,3.13409 4.79494,3.11972 11.86138,-0.24852 6.22462,-2.96699 7.50938,-5.06481 5.82118,-9.50511 -0.60459,-1.5902 -0.64688,-2.90447 -0.10425,-3.23983 0.50215,-0.31035 1.45008,1.22832 2.1065,3.41927 1.00874,3.36687 0.94301,4.36583 -0.42457,6.45302 -0.88994,1.35822 -2.64256,2.79051 -3.89471,3.18289 -1.25215,0.39237 -3.34983,1.5515 -4.6615,2.57584 -3.26896,2.55287 -6.95589,2.33469 -11.38301,-0.67361 z m -12.73213,-0.34592 c 0,-1.1 0.45,-2.27811 1,-2.61803 0.55,-0.33992 1,0.28197 1,1.38197 0,1.1 -0.45,2.27811 -1,2.61803 -0.55,0.33992 -1,-0.28197 -1,-1.38197 z m 35,0.7153 c 0,-0.64166 0.30098,-0.86568 0.66885,-0.49782 0.36787,0.36787 1.50687,-0.0895 2.53113,-1.01649 1.74858,-1.58244 1.96722,-1.57602 3.58115,0.10514 1.63288,1.70091 1.61052,1.75807 -0.44697,1.14249 -1.19122,-0.3564 -2.45527,-0.1797 -2.80902,0.39267 -0.87505,1.41587 -3.52514,1.32115 -3.52514,-0.12599 z m -30,-1.77617 c 0,-0.51856 0.92875,-2.51696 2.06389,-4.44087 1.36095,-2.30664 1.95698,-4.79539 1.75,-7.30716 -0.27352,-3.31926 -0.66755,-3.84982 -3.06389,-4.12555 -1.5125,-0.17404 -2.75,-0.73654 -2.75,-1.25 0,-1.24887 3.65681,-1.18762 6.06574,0.1016 2.65363,1.42018 2.60405,8.35397 -0.0913,12.77494 -1.10997,1.82056 -1.75673,3.73306 -1.43724,4.25 0.31948,0.51693 -0.12068,0.93988 -0.97814,0.93988 -0.85746,0 -1.55902,-0.42428 -1.55902,-0.94284 z m 30.56936,-3.38278 c -1.58897,-1.16188 -1.18033,-1.31629 3.30817,-1.25 5.3924,0.0796 6.65177,0.93252 2.87247,1.94533 -3.27881,0.87869 -4.16427,0.77907 -6.18064,-0.69533 z m -10.56936,-16.71417 c -0.825,-0.55504 -4.2,-0.80114 -7.5,-0.5469 -5.72671,0.4412 -5.82617,0.41076 -2.18372,-0.66809 3.8519,-1.14088 4.01022,-1.57425 2.19019,-5.99522 -0.41434,-1.00644 -0.27873,-1.75 0.31915,-1.75 0.96095,0 2.51058,3.22237 2.62522,5.45901 0.0633,1.23471 6.44321,2.60584 9.04916,1.94478 1.97235,-0.50033 1.97316,-0.4859 0.0589,1.04443 -2.27107,1.81554 -2.5712,1.84925 -4.55887,0.51199 z m 19.42857,-1.38878 c -1.05898,-0.77435 -1.66828,-1.66505 -1.354,-1.97934 0.31429,-0.31428 1.43787,0.0621 2.49686,0.83648 1.05898,0.77435 1.66828,1.66505 1.354,1.97934 -0.31429,0.31428 -1.43787,-0.0621 -2.49686,-0.83648 z m -40.42857,-3.07143 c 0.68469,-0.825 1.8041,-1.5 2.48759,-1.5 0.68348,0 2.49396,-0.98425 4.02329,-2.18722 1.79896,-1.41506 2.61596,-1.67984 2.31424,-0.75 -0.25649,0.79047 -2.23457,2.41344 -4.39573,3.60661 -4.70412,2.5971 -6.11503,2.86168 -4.42939,0.83061 z m 27.25,0.008 c -0.6875,-0.7828 -1.25,-2.14384 -1.25,-3.02451 0,-0.88067 -0.39381,-1.35784 -0.87514,-1.06036 -0.48132,0.29748 -3.00656,-0.18538 -5.61163,-1.07302 -3.52191,-1.20004 -5.28483,-2.54164 -6.87486,-5.23185 l -2.13837,-3.61796 -0.56806,4 c -0.59945,4.22103 -1.95987,2.95918 -1.61718,-1.5 0.10567,-1.375 -0.59692,-4.05765 -1.56131,-5.96144 -2.21159,-4.36585 -2.27317,-11.85154 -0.12276,-14.92169 3.68886,-5.26659 15.17022,-6.92425 19.85657,-2.86687 4.36285,3.7773 6.8289,22.2005 3.26637,24.40226 -0.62075,0.38365 -0.71877,-1.27026 -0.26907,-4.54002 0.86318,-6.27608 -0.92675,-14.72784 -3.78292,-17.86224 -3.56907,-3.91676 -15.03932,-2.22458 -17.62115,2.5996 -1.36814,2.55639 -1.41031,8.1504 -0.0614,8.1504 0.57857,0 0.7566,1.04569 0.41187,2.4192 -0.47116,1.87725 -0.0272,2.79922 1.98176,4.11554 1.42392,0.93299 3.15108,2.86906 3.83813,4.30239 0.79521,1.65897 2.88457,3.22098 5.74919,4.29812 3.92468,1.47574 4.78316,1.51134 6.71482,0.27841 2.83504,-1.80954 3.09203,-1.77998 2.92407,0.33634 -0.10436,1.31495 0.85551,1.89122 3.86111,2.31806 3.06321,0.43502 3.58293,0.7556 2.21914,1.36883 -0.97947,0.44042 -3.11697,0.53354 -4.75,0.20694 -2.22713,-0.44543 -2.96914,-0.22227 -2.96914,0.89299 0,1.17456 0.84007,1.35248 4,0.84719 2.68029,-0.4286 4,-0.26753 4,0.48818 0,0.6203 -1.0882,1.12781 -2.41821,1.12781 -1.33002,0 -3.01752,0.20948 -3.75,0.46552 -0.73249,0.25603 -1.89429,-0.17498 -2.58179,-0.9578 z"
       id="path3009"
       inkscape:connector-curvature="0" />
  </g>
</svg>
