<?xml version="1.0" encoding="UTF-8" standalone="no"?>
<!-- Created with Inkscape (http://www.inkscape.org/) -->

<svg
   xmlns:dc="http://purl.org/dc/elements/1.1/"
   xmlns:cc="http://creativecommons.org/ns#"
   xmlns:rdf="http://www.w3.org/1999/02/22-rdf-syntax-ns#"
   xmlns:svg="http://www.w3.org/2000/svg"
   xmlns="http://www.w3.org/2000/svg"
   xmlns:xlink="http://www.w3.org/1999/xlink"
   xmlns:sodipodi="http://sodipodi.sourceforge.net/DTD/sodipodi-0.dtd"
   xmlns:inkscape="http://www.inkscape.org/namespaces/inkscape"
   width="105.86018"
   height="266.68353"
   id="svg2"
   version="1.1"
   inkscape:version="0.48.3.1 r9886"
   sodipodi:docname="Biceps-curl-reverse-2.svg"
   inkscape:export-filename="/home/christian/Dokumente/Website/opentraining/cc_exercises/Biceps-curl-reverse-2.png"
   inkscape:export-xdpi="218.95311"
   inkscape:export-ydpi="218.95311">
  <defs
     id="defs4">
    <radialGradient
       gradientUnits="userSpaceOnUse"
       gradientTransform="matrix(1,0,0,0.91819829,-19.285714,-7.9105395)"
       r="209.56604"
       fy="287.50052"
       fx="398.1105"
       cy="287.50052"
       cx="398.1105"
       id="radialGradient5255"
       xlink:href="#linearGradient5249"
       inkscape:collect="always" />
    <linearGradient
       id="linearGradient5249"
       inkscape:collect="always">
      <stop
         id="stop5251"
         offset="0"
         style="stop-color:#e3e3e3;stop-opacity:1;" />
      <stop
         id="stop5253"
         offset="1"
         style="stop-color:#e3e3e3;stop-opacity:0;" />
    </linearGradient>
  </defs>
  <sodipodi:namedview
     id="base"
     pagecolor="#ffffff"
     bordercolor="#666666"
     borderopacity="1.0"
     inkscape:pageopacity="0.0"
     inkscape:pageshadow="2"
     inkscape:zoom="2.8"
     inkscape:cx="-40.355649"
     inkscape:cy="155.77481"
     inkscape:document-units="px"
     inkscape:current-layer="layer1"
     showgrid="false"
     showguides="true"
     inkscape:guide-bbox="true"
     fit-margin-top="0"
     fit-margin-left="0"
     fit-margin-right="0"
     fit-margin-bottom="0"
     inkscape:window-width="1615"
     inkscape:window-height="1026"
     inkscape:window-x="65"
     inkscape:window-y="24"
     inkscape:window-maximized="1">
    <sodipodi:guide
       orientation="-0.70710678,0.70710678"
       position="-2278.1599,459.70957"
       id="guide2985" />
  </sodipodi:namedview>
  <metadata
     id="metadata7">
    <rdf:RDF>
      <cc:Work
         rdf:about="">
        <dc:format>image/svg+xml</dc:format>
        <dc:type
           rdf:resource="http://purl.org/dc/dcmitype/StillImage" />
        <dc:title></dc:title>
      </cc:Work>
    </rdf:RDF>
  </metadata>
  <g
     inkscape:label="Ebene 1"
     inkscape:groupmode="layer"
     id="layer1"
     transform="translate(-849.58845,-219.67392)">
    <path
       style="fill:#000000"
       d="m 877.21548,485.8322 c -4.7069,-1.38494 -8.39036,-5.10194 -8.39036,-8.46675 0,-1.55129 -0.73252,-4.23707 -1.62783,-5.9684 -1.82578,-3.53068 -1.90883,-4.24636 -1.77272,-15.27669 0.0542,-4.38725 -0.99869,-12.74636 -2.38143,-18.90787 l -2.47847,-11.04404 2.61506,-8.6155 c 1.43829,-4.73853 3.00394,-11.90145 3.47922,-15.91762 0.47528,-4.01616 1.40988,-8.72523 2.07686,-10.4646 0.66699,-1.73937 1.21272,-4.63643 1.21272,-6.4379 0,-2.79682 -0.77595,-3.6479 -5.31052,-5.82473 -6.66235,-3.19827 -9.3926,-7.77411 -10.09811,-16.92423 -0.46389,-6.01639 -0.17132,-7.5065 2.13896,-10.89388 1.472,-2.15827 3.66964,-4.09421 4.88366,-4.3021 2.0844,-0.35693 2.07518,-0.28167 -0.16554,1.35173 -7.37548,5.37646 -6.14066,22.89796 1.97449,28.01685 0.95463,0.60218 3.06857,0.76033 4.69765,0.35146 8.6876,-2.18046 8.45602,-22.42636 -0.31361,-27.41712 -1.87539,-1.06728 -3.41299,-2.31965 -3.4169,-2.78305 -0.0134,-1.58018 3.05431,-0.84711 5.93396,1.41801 l 2.87385,2.26057 -2.69792,-4.78822 c -5.76691,-10.235 -9.48719,-18.60936 -9.48719,-21.35566 0,-2.77619 -4.07129,-12.7287 -6.41603,-15.68437 -3.41919,-4.31008 -5.14882,-14.58315 -4.93991,-29.34048 0.0598,-4.22259 3.83903,-10.14326 8.30285,-13.00747 4.7539,-3.05036 12.13062,-8.57441 14.45398,-10.82389 2.55742,-2.47607 3.18357,-9.04218 1.06436,-11.16139 -1.01918,-1.01917 -1.86484,-4.51422 -2.14076,-8.84752 -0.42449,-6.66643 -0.2244,-7.42218 2.88707,-10.90451 3.0243,-3.38477 4.04981,-3.78665 10.75165,-4.2134 7.03829,-0.44816 7.57895,-0.30124 10.82047,2.94027 1.92647,1.92647 3.412,4.59942 3.412,6.13929 0,1.50001 0.54646,4.29484 1.21434,6.21074 1.146,3.28741 0.83828,6.46866 -1.84167,19.03902 -0.45346,2.12702 -0.0612,2.52766 2.47464,2.52766 5.30937,0 15.21846,3.82657 18.99362,7.33474 2.85646,2.65444 3.81562,4.63101 4.36116,8.98722 0.38463,3.07141 1.44592,7.85928 2.35841,10.6397 0.9125,2.78042 1.65658,7.28124 1.65353,10.00183 -0.003,3.22031 1.22,7.53272 3.50635,12.35743 2.33724,4.93209 3.9951,10.84962 4.95651,17.69161 0.79453,5.65439 1.94924,11.22365 2.56602,12.37612 1.29379,2.41746 1.17421,15.97922 -0.15929,18.06652 -0.49342,0.77234 -2.16436,1.40425 -3.71319,1.40425 -4.11155,0 -6.66965,1.71635 -8.25211,5.53672 -0.76906,1.85668 -2.22861,3.63896 -3.24343,3.96061 -1.62599,0.51537 -1.74142,1.88741 -0.97193,11.55223 0.48027,6.03208 0.80221,12.48401 0.71542,14.33762 -0.33669,7.19126 -0.0575,17.45648 0.87086,32.01697 l 0.96694,15.16594 6.95156,7.02126 c 3.87227,3.91113 7.93746,7.02127 9.17731,7.02127 1.22417,0 3.54985,1.13893 5.16817,2.53095 7.99389,6.87606 -7.46396,12.53092 -19.72802,7.21699 -2.52078,-1.09224 -5.66945,-1.50458 -8.54442,-1.11896 -2.62356,0.35188 -5.63376,0.032 -7.10406,-0.75484 -2.42672,-1.29874 -2.50845,-1.75786 -1.67232,-9.39427 1.7104,-15.6213 1.19119,-23.21733 -2.00805,-29.37722 -2.93788,-5.65667 -3.18669,-9.13821 -1.38242,-19.34362 0.39385,-2.22768 -0.0254,-4.90645 -1.09018,-6.96548 -0.95157,-1.84014 -1.73014,-4.95789 -1.73014,-6.92831 0,-2.0057 -1.46709,-5.96693 -3.33312,-8.99962 -3.2851,-5.33896 -3.10443,-8.4136 0.27233,-4.63476 3.06097,3.42546 7.55419,12.85507 7.56132,15.86847 0.003,1.60711 0.76211,4.37003 1.68511,6.13981 1.86476,3.57551 2.24288,8.57795 0.64839,8.57795 -0.56637,0 -1.32879,-0.63191 -1.69425,-1.40425 -0.36546,-0.77234 -0.40098,2.29393 -0.079,6.81394 0.35249,4.94737 1.4739,9.95956 2.81765,12.59352 2.6195,5.13464 2.91479,13.92304 0.8687,25.85485 -1.59719,9.31418 -0.82598,10.48646 6.33545,9.63007 2.42568,-0.29008 6.46993,0.14951 8.98722,0.97686 8.86748,2.91445 13.48218,3.14817 16.34751,0.82797 2.99009,-2.42123 2.26791,-4.73984 -1.47632,-4.73984 -2.79468,0 -7.28384,-2.76626 -9.54262,-5.88023 -0.82233,-1.13367 -3.45567,-3.87517 -5.85189,-6.09223 -2.39622,-2.21706 -4.28983,-4.3481 -4.20804,-4.73565 0.0818,-0.38755 -0.19701,-3.48506 -0.61957,-6.88335 -1.39521,-11.22049 -1.79425,-35.31331 -0.65581,-39.59524 0.77795,-2.92607 0.74187,-4.91235 -0.11842,-6.51983 -1.22143,-2.28227 -1.26599,-2.27516 -3.49378,0.55701 -3.51453,4.46801 -6.47129,3.48033 -8.22734,-2.74825 -0.76647,-2.71863 -0.69914,-2.70066 2.10449,0.5617 2.81869,3.27989 2.9416,3.31177 4.58624,1.18954 0.92946,-1.19937 1.68992,-3.09511 1.68992,-4.21276 0,-1.11765 0.50553,-2.03209 1.1234,-2.03209 0.61788,0 1.12341,-2.67587 1.12341,-5.94639 0,-5.72976 -0.13214,-5.98557 -3.62693,-7.02127 -2.09454,-0.62073 -4.67482,-2.64277 -6.10713,-4.78584 l -2.4802,-3.71096 -1.36316,2.58756 c -1.88735,3.58256 -3.495,4.3993 -4.89406,2.48634 -0.95429,-1.30481 -1.42757,-0.85905 -2.40517,2.26536 -0.66942,2.1394 -0.92218,3.82158 -0.5617,3.73819 0.36046,-0.0834 2.246,0.22611 4.19008,0.68778 2.36269,0.56109 4.93417,0.25468 7.75546,-0.92413 4.19512,-1.75284 6.3675,-1.52091 4.3626,0.46576 -0.57668,0.57144 -3.46856,1.68396 -6.42641,2.47225 -4.24055,1.13014 -5.84102,1.14404 -7.56773,0.0657 -2.83895,-1.77296 -5.75203,-1.75338 -5.4596,0.0367 0.12617,0.77234 -0.3572,2.82737 -1.07415,4.56675 -0.71696,1.73929 -1.30356,4.57081 -1.30356,6.29217 0,1.72137 -1.32135,5.60632 -2.93632,8.63324 -4.8719,9.13132 -7.17431,17.93073 -7.17431,27.41899 0,5.71899 -0.65263,10.19537 -1.90313,13.05363 -1.30319,2.97869 -1.92293,7.53718 -1.96596,14.46057 -0.0609,9.80662 0.0674,10.32351 4.26705,17.19077 2.38143,3.89408 5.79377,8.68291 7.58296,10.64184 3.66279,4.01024 4.27125,8.43339 1.28715,9.35694 -1.08127,0.33465 -2.74084,1.0128 -3.68792,1.507 -3.1502,1.64382 -8.34759,2.13998 -11.79402,1.12592 z m 8.42815,-3.268 c 2.71188,-1.71505 0.34361,-2.73688 -5.61069,-2.42085 -7.45145,0.3955 -7.19317,-1.6632 0.30706,-2.44761 4.96474,-0.51924 6.14172,-0.27524 7.43914,1.54217 1.74366,2.44251 4.63744,2.89445 4.63744,0.72426 0,-0.78911 -1.49779,-3.07461 -3.32841,-5.07888 -1.83063,-2.00427 -5.21208,-7.01246 -7.51435,-11.1293 -3.65781,-6.54078 -4.24657,-8.64034 -4.6665,-16.64103 -0.38796,-7.39151 10e-4,-10.58229 2.01975,-16.55801 1.92167,-5.68906 2.25101,-8.13712 1.42306,-10.57791 l -1.07726,-3.17577 -0.65455,3.37021 c -0.36001,1.85361 -0.97665,5.33179 -1.37032,7.72929 -0.44692,2.7218 -1.11257,3.96229 -1.77219,3.30266 -1.35071,-1.35071 0.50631,-11.46179 2.98567,-16.25634 1.00702,-1.94737 2.83224,-6.62385 4.05604,-10.39217 1.22382,-3.76833 3.6541,-9.88468 5.40064,-13.59191 1.74654,-3.70723 3.46377,-8.39956 3.81607,-10.42739 l 0.64055,-3.68698 -5.53631,0.73441 c -6.61269,0.87721 -11.27293,-0.0907 -11.27293,-2.34127 0,-1.31384 0.59827,-1.40844 3.03895,-0.48049 3.23394,1.22954 9.95681,0.53511 12.71166,-1.31304 1.36247,-0.91404 1.27807,-1.05599 -0.46813,-0.78738 -1.17165,0.18024 -2.35122,-0.30422 -2.62127,-1.07655 -0.30445,-0.87068 0.53731,-1.40426 2.21528,-1.40426 6.38964,0 10.56667,-10.64489 7.64765,-19.48956 -1.79145,-5.4282 -7.38927,-10.09566 -11.01624,-9.18534 -1.95341,0.49027 -2.60306,0.27042 -2.26178,-0.76541 0.61268,-1.85964 5.06129,-2.53641 6.85999,-1.04362 2.12183,1.76096 16.48518,-1.04766 20.15701,-3.94153 3.58724,-2.82718 3.76406,-3.90459 1.04471,-6.36556 -1.83023,-1.65634 -2.51275,-1.66555 -7.58297,-0.10246 -4.12939,1.27309 -7.97087,1.52768 -14.83978,0.98351 -6.07691,-0.48144 -9.26807,-0.33643 -9.26807,0.42116 0,3.1316 20.53274,2.98352 26.90226,-0.194 4.01441,-2.00266 4.62929,-0.47418 0.8147,2.02524 -4.02219,2.63543 -14.09293,4.12422 -20.19128,2.98492 -2.9264,-0.54671 -5.54942,-0.62397 -5.82895,-0.17169 -0.52786,0.85411 0.36868,4.14772 3.21601,11.81455 1.03914,2.79803 2.33466,4.43473 3.43337,4.33758 0.97048,-0.0857 1.76451,0.29337 1.76451,0.84259 0,0.54922 -0.49643,0.99858 -1.10318,0.99858 -0.60675,0 -1.04417,2.61951 -0.97203,5.82112 0.15287,6.78566 -1.86678,9.15027 -8.8121,10.31715 -3.57877,0.60126 -4.60019,1.42168 -6.24457,5.01575 -1.08128,2.36332 -1.96596,6.43759 -1.96596,9.05396 0,2.61637 -0.82746,7.28686 -1.83881,10.37888 -1.8397,5.62454 -1.60455,9.37543 1.42753,22.7715 0.47236,2.08692 0.32723,3.00304 -0.40414,2.55103 -0.62765,-0.3879 -1.44661,-2.2324 -1.8199,-4.09887 -1.0609,-5.3045 -2.55845,-4.03542 -4.73755,4.0148 -1.98247,7.32385 -1.97587,7.53065 0.57847,18.12616 1.80011,7.467 2.39791,12.51895 1.9709,16.65621 -0.48358,4.68543 0.0931,8.13373 2.733,16.34287 1.84023,5.72244 4.20087,11.0543 5.24585,11.84857 2.22575,1.69174 7.92559,1.93321 10.29295,0.43605 z m -15.6951,-21.93972 c 0,-1.63908 3.53117,-7.31263 4.5513,-7.31263 1.25599,0 -1.65179,6.20442 -3.41991,7.29717 -0.62227,0.38459 -1.13139,0.39154 -1.13139,0.0155 z m 6.74041,-57.86574 c 0,-0.61788 1.01106,-1.12341 2.24681,-1.12341 1.23574,0 2.2468,0.50553 2.2468,1.12341 0,0.61787 -1.01106,1.1234 -2.2468,1.1234 -1.23575,0 -2.24681,-0.50553 -2.24681,-1.1234 z m -1.93013,-8.38556 c 0.20838,-2.8322 0.8312,-3.44923 4.16441,-4.12576 3.9755,-0.80689 5.57637,0.15746 5.61234,3.38079 0.0133,1.1829 -0.34327,1.24266 -1.53125,0.25671 -1.80922,-1.50151 -6.82403,-0.004 -7.84684,2.34166 -0.35402,0.81226 -0.53343,-0.0218 -0.39866,-1.8534 z m 8.61216,-28.65547 c 2.76849,-1.48167 4.30908,-11.2047 2.04252,-12.89086 -2.33775,-1.7391 -4.16887,-7.72488 -5.97019,-19.51603 -1.50233,-9.83396 -2.87269,-14.28071 -6.755,-21.91958 -0.889,-1.74922 -1.61637,-5.43055 -1.61637,-8.18075 0,-2.75019 -0.7583,-6.81521 -1.6851,-9.03337 -0.92681,-2.21817 -1.66903,-5.3615 -1.64938,-6.98518 0.0307,-2.53666 0.22835,-2.70456 1.40425,-1.19297 1.81328,2.33092 12.4541,5.72964 15.0485,4.80655 1.12621,-0.4007 2.80596,-1.34211 3.73277,-2.09201 0.9268,-0.74991 3.0194,-1.67973 4.65022,-2.06628 3.51972,-0.83426 4.87805,-4.77003 3.184,-9.22572 -1.29002,-3.393 -0.44107,-5.26437 1.22401,-2.69813 4.02373,6.20145 2.11485,11.1023 -5.90272,15.15454 -7.40261,3.74144 -13.01701,4.4896 -17.24204,2.29763 -3.52516,-1.82888 -4.86807,-1.50115 -3.04635,0.74344 0.63896,0.78726 1.76619,4.46459 2.50496,8.17182 0.73877,3.70722 2.56292,9.36314 4.05367,12.5687 1.49073,3.20558 2.71817,6.99706 2.72763,8.42552 0.025,3.77807 1.18772,4.82175 5.59981,5.02655 2.16255,0.10044 6.2068,0.31731 8.98722,0.48203 4.79518,0.28409 12.45736,-1.32086 15.3913,-3.22391 1.76097,-1.14222 0.6002,-14.02565 -1.16536,-12.93447 -0.65635,0.40564 -2.22994,0.86008 -3.49688,1.00985 -1.26695,0.14978 -4.70377,0.80045 -7.63738,1.44593 -5.18421,1.14067 -8.70869,0.75076 -8.70869,-0.96344 0,-0.46309 1.39021,-0.89379 3.08936,-0.95712 8.97881,-0.33463 9.79599,-0.6645 11.01891,-4.44796 1.2237,-3.78587 2.74277,-3.77666 2.74277,0.0166 0,3.61591 3.7414,1.80566 6.05324,-2.92882 1.93171,-3.956 1.99284,-5.02528 0.68381,-11.9628 l -1.4375,-7.61849 -3.2313,1.12644 c -3.35017,1.16789 -8.80867,0.42287 -8.80867,-1.20224 0,-0.51088 2.14851,-0.89023 4.77446,-0.84299 8.272,0.1488 9.11392,-0.65237 8.36016,-7.95557 l -0.65556,-6.35183 2.09493,3.44485 c 1.15222,1.89466 2.64969,3.78769 3.32772,4.20675 0.67803,0.41904 0.90858,1.28647 0.51233,1.92761 -0.49233,0.79661 -0.95752,0.78213 -1.46917,-0.0457 -0.42781,-0.69221 -1.23867,0.099 -1.89181,1.84602 -0.82766,2.21374 -0.68804,5.17854 0.50593,10.74372 1.48919,6.94122 2.01286,7.85977 5.40246,9.47614 4.66602,2.22508 4.87169,4.0397 0.3832,3.38092 -2.82532,-0.41467 -3.36742,-0.11742 -3.35301,1.83845 0.0127,1.72267 0.2679,1.93754 0.97537,0.82122 0.62295,-0.98294 1.1452,0.58916 1.49278,4.49361 0.49772,5.59094 1.83934,9.36217 6.00737,16.88653 0.91925,1.65947 1.87588,6.26469 2.12585,10.2338 0.24997,3.96913 0.78613,8.98432 1.19145,11.1449 0.69721,3.71644 0.92875,3.88934 4.29324,3.20588 3.39811,-0.69027 3.57158,-0.98835 3.9001,-6.70193 0.18911,-3.28874 -0.44281,-9.11614 -1.40425,-12.94977 -0.96144,-3.83364 -1.74807,-8.8614 -1.74807,-11.17281 0,-2.31141 -1.58046,-7.83996 -3.51211,-12.28565 -1.93167,-4.44571 -4.176,-11.87458 -4.98738,-16.50862 -0.81139,-4.63403 -2.06342,-11.20594 -2.78229,-14.60423 -0.71887,-3.39829 -1.53669,-7.39315 -1.81738,-8.87745 -0.67988,-3.59521 -6.98477,-9.48417 -8.66722,-8.09547 -0.69486,0.57353 -3.53826,1.29941 -6.31868,1.61305 -2.78042,0.31366 -5.88886,0.89921 -6.90764,1.30124 -1.01878,0.40203 -2.18663,0.19003 -2.59525,-0.47112 -0.95596,-1.54677 4.77216,-3.75194 8.09566,-3.11661 1.39185,0.26606 2.53063,0.0358 2.53063,-0.51167 0,-1.65413 -5.33577,-3.15025 -10.44244,-2.928 -6.43262,0.27996 -15.38958,-4.14191 -17.59065,-8.68414 l -1.63315,-3.37021 -1.17536,5.95612 c -1.08585,5.50249 -1.5321,6.11553 -5.8592,8.04916 -2.57609,1.15118 -5.19527,3.04871 -5.82038,4.21673 -0.62511,1.16802 -2.88053,3.06288 -5.01204,4.21077 -7.45089,4.01256 -8.78748,9.09111 -6.59682,25.06536 1.23436,9.00097 4.68284,17.19001 8.61211,20.45101 0.85976,0.71354 1.91233,4.16877 2.33903,7.67829 0.81208,6.67901 2.47772,10.85619 6.57602,16.49157 2.77397,3.81435 5.16026,10.98072 5.05003,15.16594 -0.0407,1.54468 0.28314,5.20978 0.71961,8.14467 0.83806,5.63524 2.61843,6.68709 7.1834,4.24401 z m 8.49513,-41.58543 c -1.7697,-1.84717 -2.87007,-3.70606 -2.44527,-4.13087 0.82172,-0.8217 7.48936,5.03291 7.48936,6.57613 0,1.77671 -1.8657,0.87226 -5.04409,-2.44526 z m 10.69682,-3.59648 c -0.0197,-1.04481 0.50345,-2.23287 1.16242,-2.64015 1.98009,-1.22376 2.2577,0.0663 0.51108,2.37501 -1.43792,1.90065 -1.64212,1.933 -1.6735,0.26514 z m -11.80279,-2.43408 c -1.25839,-0.92016 -1.60232,-1.78125 -0.88783,-2.22284 0.64146,-0.39643 1.80115,0.0442 2.57707,0.97908 1.91427,2.30654 0.84294,3.09534 -1.68924,1.24376 z m -10.84428,-4.86382 c -1.35723,-1.66853 -1.29546,-1.80302 0.51603,-1.1234 1.13181,0.42462 2.52202,0.77203 3.08936,0.77203 0.56733,0 1.03152,0.50553 1.03152,1.12341 0,1.79167 -2.9512,1.3003 -4.63691,-0.77204 z m -18.25987,-3.40136 c -1.18157,-1.18157 -5.19413,-10.50895 -5.15278,-11.9779 0.0608,-2.16103 5.58151,4.92136 5.58151,7.16042 0,1.16483 0.50553,2.43029 1.1234,2.81216 1.36025,0.84069 1.49144,2.80851 0.18724,2.80851 -0.5149,0 -1.29761,-0.36143 -1.73937,-0.80319 z m 21.28944,-0.19439 c -0.3391,-0.54867 0.8949,-1.21941 2.7422,-1.49055 2.28946,-0.33601 3.35875,-0.0184 3.35875,0.99759 0,1.65806 -5.12495,2.07216 -6.10095,0.49296 z m -6.25648,-4.61943 c 0,-0.61788 0.4757,-1.12341 1.0571,-1.12341 0.58141,0 1.36954,0.50553 1.75141,1.12341 0.38186,0.61787 -0.0938,1.1234 -1.0571,1.1234 -0.96327,0 -1.75141,-0.50553 -1.75141,-1.1234 z m 10.39148,-0.0351 c -1.39022,-0.55875 -2.52766,-1.86889 -2.52766,-2.91136 0,-1.71436 0.22092,-1.6955 2.31257,0.19742 1.89931,1.71886 2.65212,1.84451 4.21276,0.7032 1.0451,-0.76431 2.78487,-1.68669 3.86614,-2.04975 1.08128,-0.36306 1.96596,-1.10668 1.96596,-1.65249 0,-0.54581 1.02692,-0.99238 2.28205,-0.99238 2.70164,0 4.17093,-2.9836 2.36072,-4.79381 -1.57224,-1.57225 -1.68434,-3.4571 -0.14916,-2.50831 0.61787,0.38187 1.1234,0.21302 1.1234,-0.3752 0,-2.07013 3.76078,-2.52457 5.53561,-0.66891 1.61893,1.69264 1.56324,1.78613 -0.6666,1.11899 -2.84403,-0.85091 -4.17633,0.73018 -3.20202,3.79996 0.44856,1.41327 1.91231,2.29095 4.19876,2.5176 6.30147,0.6247 4.54228,2.5931 -2.35198,2.63171 -5.40938,0.0303 -7.31294,0.58529 -10.59594,3.08936 -4.36073,3.32609 -4.64287,3.38998 -8.36461,1.89402 z m 1.6223,-6.30012 c -0.35133,-0.35134 1.34301,-2.70125 3.7652,-5.22203 4.79445,-4.9896 7.31121,-5.05886 3.40563,-0.0937 -2.89592,3.68156 -6.28941,6.19716 -7.17083,5.31575 z M 869.94853,283.547 c 0,-0.70134 -0.99063,-0.99536 -2.24681,-0.66687 -2.55702,0.66867 -3.08705,-2.27341 -1.08388,-6.01637 1.51195,-2.8251 3.68773,-2.82086 2.7907,0.006 -0.4786,1.50794 0.0167,2.55734 1.6094,3.40973 2.66874,1.4283 3.08998,4.52254 0.61569,4.52254 -0.92681,0 -1.6851,-0.56448 -1.6851,-1.25442 z m -2.85584,-14.54979 c -0.40791,-0.66 -1.49105,-0.91241 -2.40698,-0.56094 -1.02052,0.39161 -1.4842,0.095 -1.19752,-0.76597 0.25729,-0.77275 1.33488,-1.57314 2.39464,-1.77863 2.26444,-0.43907 5.4383,1.87006 4.54873,3.30942 -0.83591,1.35252 -2.43741,1.25472 -3.33887,-0.20388 z m 7.94024,-2.12313 c -0.30958,-0.50093 1.58803,-1.4524 4.21694,-2.11437 3.5685,-0.89856 6.18901,-0.84409 10.34037,0.21493 6.80311,1.73549 4.98873,3.46987 -1.99309,1.90522 -3.04239,-0.68182 -6.32806,-0.72206 -8.48345,-0.10392 -1.93482,0.55489 -3.77117,0.59906 -4.08075,0.0982 z m 5.06574,-8.96046 c -1.4656,-2.73852 -1.48195,-3.77383 -0.0456,-2.88609 1.80417,1.11504 3.62211,5.05904 2.3319,5.05904 -0.61787,0 -1.64671,-0.97783 -2.28633,-2.17295 z m 42.03775,105.95155 c 4.73601,-1.81738 6.67259,-13.5985 3.48814,-21.21999 -2.01934,-4.83293 -7.98706,-8.76393 -10.92097,-7.19375 -3.11223,1.66562 -5.43597,7.09169 -5.43597,12.69332 0,11.10326 5.95229,18.37454 12.8688,15.72042 z m -14.79,-13.90639 c -0.79375,-6.249 -0.8112,-6.26827 -4.25277,-4.70018 -1.84125,0.83893 -2.81326,0.88324 -2.81326,0.12825 0,-0.63445 1.64298,-1.9127 3.65106,-2.84056 l 3.65106,-1.68702 -5.01314,0.66928 c -2.75722,0.36812 -5.22117,0.87732 -5.47543,1.13158 -0.25426,0.25426 0.61145,2.28214 1.92378,4.50638 1.31234,2.22425 2.38608,5.95307 2.38608,8.28626 0,5.70459 1.06457,6.4054 4.06992,2.67928 2.0673,-2.56311 2.40056,-4.01757 1.8727,-8.17327 z m 17.61748,-16.41439 c -0.6697,-1.78484 -2.40058,-5.01452 -3.84642,-7.17707 -2.56866,-3.84194 -4.4018,-8.66835 -5.65359,-14.88508 -0.78171,-3.88221 -2.35927,-3.97876 -3.30707,-0.20239 -0.97142,3.8704 1.54785,16.25969 3.45511,16.99157 0.83572,0.3207 1.5195,1.49843 1.5195,2.61718 0,1.22801 1.66948,2.86683 4.21276,4.13542 2.31702,1.15573 4.35329,2.02577 4.52505,1.93343 0.17175,-0.0924 -0.23565,-1.62822 -0.90534,-3.41306 z m -28.23683,-81.04078 c 3.45795,-6.66921 2.03177,-23.09186 -2.43897,-28.08507 -3.94496,-4.40598 -16.85603,-2.49739 -19.75554,2.9204 -1.53697,2.87186 -1.58435,9.15618 -0.069,9.15618 0.64997,0 0.84997,1.17474 0.4627,2.71774 -0.52211,2.08026 -0.0407,3.13798 2.05225,4.50936 1.50391,0.9854 3.30369,3.04115 3.99953,4.56835 2.32379,5.10016 13.70981,8.14605 15.74906,4.21304 z m 18.83945,197.90781 c -1.13188,-2.94963 -0.79388,-7.41204 0.50081,-6.61189 0.65049,0.40204 0.97584,1.31654 0.723,2.03226 -0.25284,0.71572 -0.0393,2.43875 0.4746,3.82896 0.51669,1.39786 0.49832,2.52766 -0.0411,2.52766 -0.53648,0 -1.28226,-0.79964 -1.6573,-1.77699 z m 26.27977,-91.46538 c 0,-0.61787 0.92294,-1.12341 2.05098,-1.12341 3.03694,0 6.9339,-4.73215 7.67922,-9.32505 1.45992,-8.99637 -2.99571,-17.7161 -10.10419,-19.7741 l -3.55792,-1.03007 4.1129,-0.10134 c 3.26833,-0.0805 4.70125,0.5979 6.97809,3.30377 2.84568,3.38191 5.18582,9.70296 5.18582,14.00765 0,4.28405 -2.35577,10.69799 -4.74773,12.92645 -2.49831,2.32753 -7.59717,3.07659 -7.59717,1.1161 z"
       id="path3076"
       inkscape:connector-curvature="0" />
  </g>
</svg>
