<?xml version="1.0" encoding="UTF-8" standalone="no"?>
<!-- Created with Inkscape (http://www.inkscape.org/) -->

<svg
   xmlns:dc="http://purl.org/dc/elements/1.1/"
   xmlns:cc="http://creativecommons.org/ns#"
   xmlns:rdf="http://www.w3.org/1999/02/22-rdf-syntax-ns#"
   xmlns:svg="http://www.w3.org/2000/svg"
   xmlns="http://www.w3.org/2000/svg"
   xmlns:xlink="http://www.w3.org/1999/xlink"
   xmlns:sodipodi="http://sodipodi.sourceforge.net/DTD/sodipodi-0.dtd"
   xmlns:inkscape="http://www.inkscape.org/namespaces/inkscape"
   width="115.19031"
   height="256.21329"
   id="svg2"
   version="1.1"
   inkscape:version="0.48.3.1 r9886"
   sodipodi:docname="Bicep-hammer-curl-1.svg">
  <defs
     id="defs4">
    <radialGradient
       gradientUnits="userSpaceOnUse"
       gradientTransform="matrix(1,0,0,0.91819829,-19.285714,-7.9105395)"
       r="209.56604"
       fy="287.50052"
       fx="398.1105"
       cy="287.50052"
       cx="398.1105"
       id="radialGradient5255"
       xlink:href="#linearGradient5249"
       inkscape:collect="always" />
    <linearGradient
       id="linearGradient5249"
       inkscape:collect="always">
      <stop
         id="stop5251"
         offset="0"
         style="stop-color:#e3e3e3;stop-opacity:1;" />
      <stop
         id="stop5253"
         offset="1"
         style="stop-color:#e3e3e3;stop-opacity:0;" />
    </linearGradient>
  </defs>
  <sodipodi:namedview
     id="base"
     pagecolor="#ffffff"
     bordercolor="#666666"
     borderopacity="1.0"
     inkscape:pageopacity="0.0"
     inkscape:pageshadow="2"
     inkscape:zoom="2.8"
     inkscape:cx="34.402153"
     inkscape:cy="139.31307"
     inkscape:document-units="px"
     inkscape:current-layer="layer1"
     showgrid="false"
     showguides="true"
     inkscape:guide-bbox="true"
     fit-margin-top="0"
     fit-margin-left="0"
     fit-margin-right="0"
     fit-margin-bottom="0"
     inkscape:window-width="1615"
     inkscape:window-height="1026"
     inkscape:window-x="65"
     inkscape:window-y="24"
     inkscape:window-maximized="1">
    <sodipodi:guide
       orientation="-0.70710678,0.70710678"
       position="-2266.5873,439.61366"
       id="guide2985" />
  </sodipodi:namedview>
  <metadata
     id="metadata7">
    <rdf:RDF>
      <cc:Work
         rdf:about="">
        <dc:format>image/svg+xml</dc:format>
        <dc:type
           rdf:resource="http://purl.org/dc/dcmitype/StillImage" />
        <dc:title></dc:title>
      </cc:Work>
    </rdf:RDF>
  </metadata>
  <g
     inkscape:label="Ebene 1"
     inkscape:groupmode="layer"
     id="layer1"
     transform="translate(-838.01585,-210.04826)">
    <path
       style="fill:#000000"
       d="m 873.69586,465.7507 c -4.69222,-0.72944 -7.56062,-3.77371 -9.36041,-9.93435 -2.76929,-9.47916 -3.59522,-15.15782 -2.97655,-20.46514 0.37614,-3.22676 -0.31018,-8.81271 -1.9498,-15.8694 -2.49337,-10.73118 -2.50189,-10.98544 -0.5841,-17.44788 1.07037,-3.6069 2.4199,-8.96095 2.99894,-11.89787 0.57904,-2.93692 1.77173,-8.70397 2.65041,-12.81567 2.12956,-9.9649 1.69384,-17.80633 -1.06815,-19.22349 -3.45856,-1.77457 -4.56687,-4.34472 -2.67122,-6.19453 0.91073,-0.88871 2.52693,-6.0143 3.59157,-11.39019 1.58134,-7.98505 1.7068,-10.66141 0.68529,-14.6201 -1.1559,-4.47956 -1.02834,-5.22136 1.6881,-9.81586 1.61618,-2.73355 3.07051,-5.12918 3.23183,-5.32362 0.16133,-0.19443 1.44362,0.27465 2.84953,1.04241 1.40591,0.76776 6.42434,1.95701 11.15206,2.64278 7.34581,1.06552 9.57402,0.98981 15.32202,-0.52063 5.52088,-1.45075 6.79024,-2.20641 7.08377,-4.21699 0.19669,-1.34724 -0.15206,-3.04881 -0.77502,-3.78128 -0.62295,-0.73245 -0.87113,-2.30754 -0.55152,-3.50018 0.50673,-1.89093 0.11571,-2.13519 -3.05549,-1.90876 -2.00012,0.14282 -5.78634,0.79802 -8.4138,1.45601 -4.9296,1.23449 -8.90317,0.72145 -8.90317,-1.14952 0,-0.5903 1.00249,-0.75748 2.24139,-0.37378 1.23275,0.3818 2.95021,0.12013 3.81656,-0.5815 0.86636,-0.70162 2.38263,-0.97332 3.36948,-0.60378 2.59538,0.97185 4.80016,-1.27815 4.80016,-4.89862 0,-1.81883 0.45972,-2.85893 1.09443,-2.47614 0.60194,0.36303 1.09443,1.83315 1.09443,3.26695 0,1.53864 0.63614,2.6069 1.55239,2.6069 2.4022,0 6.10862,-6.7497 6.10862,-11.12433 0,-3.42048 -0.46005,-4.11916 -3.54605,-5.38536 -4.22043,-1.73165 -5.20939,-1.32252 -5.20939,2.1551 0,2.17295 0.53579,2.6069 3.2187,2.6069 1.77028,0 3.54333,0.51256 3.9401,1.13902 1.13063,1.78518 0.20875,2.01623 -4.18567,1.04909 -2.33954,-0.5149 -4.33765,-0.48973 -4.68519,0.0591 -0.33328,0.52623 -1.39229,0.95678 -2.35334,0.95678 -0.96104,0 -3.36158,1.20147 -5.33453,2.66993 -3.41523,2.54195 -5.92209,3.40555 -5.92209,2.04014 0,-1.04905 4.82955,-4.63653 6.29298,-4.67453 0.75242,-0.0195 1.36803,-0.5485 1.36803,-1.17548 0,-0.62696 -0.86186,-0.90539 -1.91525,-0.61872 -1.05339,0.28667 -2.90584,0.79562 -4.11655,1.13102 -1.21073,0.33539 -3.75307,3.14144 -5.64965,6.23565 -4.69199,7.65487 -12.15939,15.75144 -14.52738,15.75144 -1.06995,0 -3.68486,-1.32162 -5.81092,-2.93693 -2.12605,-1.6153 -4.67733,-3.41751 -5.66952,-4.00489 -4.00437,-2.37064 -6.02561,-13.59907 -3.98873,-22.15815 0.58085,-2.4408 0.52126,-5.66065 -0.15272,-8.25175 -0.6079,-2.33702 -0.77775,-5.95273 -0.37745,-8.0349 0.76332,-3.97054 6.43618,-11.21591 8.78163,-11.21591 0.75265,0 2.6874,-1.19281 4.29945,-2.65069 1.61207,-1.45788 3.9002,-3.15685 5.08476,-3.77548 2.67892,-1.39906 2.9675,-8.89461 0.51883,-13.47622 -2.15761,-4.03704 -2.12404,-13.13477 0.0597,-16.17713 2.584,-3.59999 7.41176,-5.57139 13.64378,-5.57139 4.74204,0 6.10596,0.48331 8.80978,3.12177 1.75952,1.71697 3.19911,4.113 3.19911,5.32453 0,1.21152 0.53547,4.25217 1.18993,6.75698 0.90232,3.45349 0.8362,6.23198 -0.27361,11.49602 -1.4193,6.73198 -1.57933,6.96178 -5.29404,7.60221 -2.10678,0.36322 -2.96864,0.72366 -1.91525,0.80098 1.05339,0.0773 2.89274,1.09445 4.08744,2.26027 2.16663,2.11425 2.17392,2.11296 2.84723,-0.50483 0.47976,-1.86535 2.59287,-3.5597 7.30526,-5.85758 7.43084,-3.62347 10.13993,-3.91934 15.57948,-1.7015 4.13937,1.68773 6.08564,5.96705 3.88869,8.55021 -1.92057,2.25821 0.68604,9.96522 3.66953,10.84975 5.55809,1.64784 7.63409,6.36225 4.95374,11.24946 -1.17969,2.15099 0.34387,5.5916 4.109,9.27921 1.8933,1.85427 1.819,3.63838 -0.4427,10.64008 -2.03884,6.31146 -4.82727,8.50182 -9.25357,7.2688 -3.3052,-0.92072 -10.68287,-9.64104 -11.49053,-13.58169 -0.89975,-4.39002 -2.54128,-3.7896 -2.56008,0.93639 -0.009,2.20269 -0.78306,6.15498 -1.72067,8.78285 -1.98928,5.57545 -1.21073,16.55223 1.37676,19.41107 1.64148,1.81362 2.29888,7.25451 1.10441,9.14048 -0.37069,0.5853 0.35611,3.65823 1.61513,6.82874 1.25901,3.1705 2.52624,7.30962 2.81604,9.19804 0.28981,1.88842 1.2138,3.98977 2.05332,4.66965 1.8964,1.53584 1.98098,4.07596 0.15834,4.75603 -1.04425,0.38964 -1.16716,2.84619 -0.51929,10.37921 1.11035,12.91052 1.25481,16.27131 0.9751,22.68443 -0.27142,6.22283 0.76822,29.42697 1.5386,34.34077 0.65523,4.17928 12.8458,16.3879 16.36364,16.3879 2.9598,0 7.573,4.70064 6.7263,6.85374 -1.7741,4.51153 -13.55355,5.80827 -21.65713,2.38414 -2.52937,-1.06879 -5.41776,-1.44255 -7.99446,-1.03452 -2.50589,0.39682 -5.09127,0.0868 -6.82427,-0.81821 -2.65368,-1.38588 -2.75599,-1.77147 -2.09414,-7.89202 2.18312,-20.18858 2.17656,-20.33186 -1.26111,-27.50037 -3.07844,-6.41945 -3.18213,-7.10734 -2.29252,-15.2096 0.74574,-6.79193 0.60049,-9.16727 -0.72755,-11.89826 -0.91262,-1.8767 -1.66866,-4.78131 -1.68009,-6.4547 -0.0261,-3.81413 -6.29323,-13.86189 -7.7559,-12.43458 -0.57183,0.55801 -1.53643,4.02447 -2.14356,7.70326 -0.60713,3.67879 -1.82421,7.76151 -2.70462,9.0727 -3.85854,5.74651 -7.07487,17.61501 -7.07487,26.10676 0,5.17135 -0.65079,9.9533 -1.68249,12.36282 -1.00072,2.33716 -1.73619,7.51875 -1.81503,12.78735 -0.12258,8.19229 0.14216,9.33137 3.52285,15.15752 2.01046,3.46477 5.28969,8.18828 7.28718,10.4967 3.98695,4.60758 4.73039,8.8669 1.71654,9.83437 -1.05339,0.33814 -3.46717,1.28424 -5.36394,2.10242 -3.45127,1.48873 -4.03194,1.5359 -9.13726,0.74225 z m 8.20822,-4.54591 c 0,-1.19972 -1.30813,-1.48562 -5.74576,-1.25579 -3.16016,0.16368 -5.74575,-0.15168 -5.74575,-0.7008 0,-0.54912 2.58559,-1.30675 5.74575,-1.68364 4.97701,-0.59355 5.94665,-0.39913 7.24729,1.4532 1.62538,2.31483 4.51783,2.89967 4.51783,0.91347 0,-0.67373 -1.63425,-3.19681 -3.63167,-5.60685 -1.99743,-2.41003 -5.29219,-7.24317 -7.3217,-10.74031 -3.15586,-5.43803 -3.75795,-7.62156 -4.15936,-15.08455 -0.37974,-7.06015 -0.0266,-9.88077 1.84955,-14.77408 2.4833,-6.47678 3.32123,-16.8415 1.05351,-13.03143 -0.65935,1.1078 -1.50623,4.43259 -1.88197,7.38842 -0.38901,3.06021 -1.31835,5.58017 -2.15836,5.85248 -2.21017,0.71649 -0.66248,-8.47945 2.55307,-15.16967 1.43417,-2.98389 3.68599,-8.54908 5.00404,-12.36708 1.31806,-3.818 3.27973,-8.38358 4.35928,-10.14574 1.07955,-1.76215 2.41925,-5.67461 2.97712,-8.69436 l 1.01432,-5.49043 -6.19165,0.54786 c -4.46546,0.39512 -7.14867,0.0649 -9.62443,-1.18439 -1.88803,-0.95273 -3.62088,-1.73225 -3.85078,-1.73225 -0.22991,0 -0.18972,2.68622 0.0893,5.96937 0.33649,3.95962 -0.15467,8.1028 -1.45888,12.30616 -1.81545,5.85108 -1.8394,6.88748 -0.31239,13.52112 0.90957,3.95139 1.85282,7.66492 2.09613,8.25231 0.2433,0.58738 -0.0501,1.24554 -0.65208,1.46259 -0.60193,0.21703 -1.53503,-1.10459 -2.07357,-2.93693 -0.53852,-1.83235 -1.3457,-3.33154 -1.79372,-3.33154 -0.44801,0 -1.6895,3.15409 -2.75884,7.0091 -1.91984,6.92097 -1.91253,7.14034 0.58173,17.45077 1.74613,7.21788 2.3486,12.22549 1.95138,16.2193 -0.43313,4.3549 0.038,7.48702 1.91313,12.71944 1.36826,3.818 2.77716,8.18534 3.13085,9.70519 0.35371,1.51984 1.76193,3.30136 3.12936,3.9589 3.4978,1.68195 10.14727,1.15782 10.14727,-0.79984 z M 866.4858,440.33075 c 0.95614,-3.76333 3.78542,-7.15312 5.23876,-6.27662 0.56418,0.34024 0.25446,1.43969 -0.69349,2.46185 -0.94212,1.01585 -1.71293,2.35106 -1.71293,2.96712 0,0.61605 -0.82043,1.77968 -1.82318,2.58584 -1.65165,1.32782 -1.7466,1.16429 -1.00916,-1.73819 z m 6.11563,-53.93259 c 0,-0.58739 0.98498,-1.06797 2.18886,-1.06797 1.20387,0 2.18886,0.48058 2.18886,1.06797 0,0.58738 -0.98499,1.06797 -2.18886,1.06797 -1.20388,0 -2.18886,-0.48059 -2.18886,-1.06797 z m -2.18886,-7.8392 c 0,-2.9285 0.39239,-3.23323 5.57959,-4.33293 2.28073,-0.48352 3.08836,-0.0784 4.08064,2.04675 1.18976,2.54809 -0.034,3.82042 -1.47952,1.53815 -0.90507,-1.42902 -5.04228,-0.24035 -6.81268,1.95736 -1.18558,1.47176 -1.36803,1.31048 -1.36803,-1.20933 z m 68.33946,62.37307 c 2.276,-2.45416 1.43,-4.33918 -1.9475,-4.33918 -2.8214,0 -7.15742,-2.68088 -9.41359,-5.82019 -0.8655,-1.20428 -3.30042,-3.80721 -5.41094,-5.78427 -4.25349,-3.98452 -4.25369,-3.98523 -5.08311,-18.29876 -1.23553,-21.32152 -1.28159,-26.17794 -0.28188,-29.71107 0.56723,-2.00469 0.72451,-4.83782 0.3495,-6.29585 l -0.68183,-2.65096 -2.63584,2.77537 c -3.43142,3.61305 -5.57951,3.50743 -7.6372,-0.37551 -1.96217,-3.70268 -2.04494,-4.32492 -0.57532,-4.32492 0.60194,0 1.09443,0.66203 1.09443,1.47119 0,0.80915 0.73874,2.06947 1.64165,2.8007 2.03855,1.65094 4.92493,-0.27233 4.92493,-3.28162 0,-1.07366 0.64547,-2.33643 1.43439,-2.80616 1.04397,-0.62159 1.26739,-2.59817 0.82083,-7.26188 -0.40356,-4.21458 -0.94073,-5.91284 -1.56942,-4.96166 -1.40761,2.12969 -9.48185,5.44518 -13.32646,5.4722 -1.83591,0.0129 -3.92901,-0.55326 -4.65133,-1.25812 -1.01594,-0.99137 -1.5632,-0.99339 -2.41686,-0.009 -0.60696,0.69996 -0.79843,1.06303 -0.42551,0.8068 1.85418,-1.27394 10.27557,11.8749 10.30853,16.09531 0.0132,1.69283 0.97877,5.13049 2.14567,7.63924 2.25375,4.84541 1.88927,8.2393 -0.77758,7.24066 -1.3563,-0.50788 -1.49147,0.44607 -0.86149,6.07946 0.41097,3.67503 1.69093,8.49887 2.84437,10.71964 1.46585,2.82233 2.09714,6.26228 2.09714,11.42764 0,5.06503 0.46424,7.65853 1.47565,8.2439 1.63733,0.94727 3.29484,8.86348 1.85593,8.86348 -1.23048,0 -2.23715,-2.77853 -2.23715,-6.17479 0,-4.68663 -1.85795,-1.19691 -2.5336,4.75879 -0.77708,6.84968 0.6488,8.39093 6.86535,7.4209 2.64239,-0.41232 6.14626,-0.0814 9.02312,0.85221 4.57483,1.48463 8.35561,2.31215 11.92102,2.6092 0.9601,0.08 2.6089,-0.78545 3.6641,-1.92321 z M 887.64984,358.0183 c 1.65208,-1.05507 2.46246,-2.63138 2.46246,-4.78985 0,-2.79655 0.64493,-3.48702 4.93207,-5.28027 2.95142,-1.23454 5.43927,-3.14928 6.19505,-4.76793 1.23355,-2.64191 3.10047,-3.67968 3.10047,-1.72347 0,2.72809 -4.19516,7.6743 -7.3874,8.70997 -4.69876,1.52443 -4.48913,2.76598 0.72435,4.29022 3.75711,1.09844 4.86251,0.97039 9.02905,-1.04594 7.29766,-3.53159 9.95023,-6.04833 8.788,-8.33803 -2.92986,-5.77214 -6.01582,-16.49189 -6.11532,-21.24291 -0.17285,-8.25415 -1.26169,-8.9877 -10.11338,-6.81333 -5.0854,1.2492 -8.51266,1.52522 -11.24372,0.90554 -2.16069,-0.49025 -5.55359,-0.90284 -7.53978,-0.91685 -1.98618,-0.014 -5.06426,-0.75871 -6.84018,-1.65487 -2.9197,-1.47333 -3.22894,-1.46729 -3.22894,0.063 0,0.93083 -0.45704,1.41678 -1.01563,1.07989 -1.7611,-1.0621 -2.4303,3.39233 -1.65826,11.03788 0.74045,7.33276 -0.27085,14.17888 -3.37016,22.81473 -0.84366,2.35075 -1.0181,4.248 -0.42354,4.60657 0.55599,0.33532 1.30635,-0.14168 1.66747,-1.05999 0.99883,-2.53998 2.61126,-1.99284 2.61126,0.88607 0,5.28311 12.86643,7.42875 19.42613,3.23954 z m -5.74576,-18.56856 c -2.47602,-0.96713 -1.07485,-1.29726 13.68037,-3.22327 4.51453,-0.58929 9.43946,-1.3791 10.9443,-1.75516 2.55974,-0.63968 2.62084,-0.56473 0.9481,1.16284 -1.21954,1.25951 -4.69899,2.16082 -10.9443,2.83494 -5.03598,0.5436 -9.89506,1.17899 -10.79797,1.41198 -0.9029,0.23299 -2.62663,0.0389 -3.8305,-0.43133 z m 8.55194,-5.70115 c 1.69388,-1.28492 5.14134,-3.15372 7.66101,-4.15289 6.03336,-2.39252 3.22066,-2.37042 -6.67126,0.0524 -4.53153,1.1099 -7.80968,1.48493 -7.59941,0.86937 0.574,-1.68036 8.30153,-3.96366 15.76757,-4.65895 5.9467,-0.55379 6.73262,-0.41108 6.49344,1.17911 -0.17065,1.13463 -3.50502,3.18058 -8.94317,5.4875 -4.76909,2.02308 -8.92236,3.65163 -9.22952,3.61899 -0.30715,-0.0326 0.82746,-1.11063 2.52134,-2.39553 z m -20.04345,-2.75542 c 0,-0.51612 1.51563,-1.55102 3.36806,-2.29978 4.4586,-1.80216 7.51392,-6.14311 5.30084,-7.53134 -2.79527,-1.75342 -4.82475,-0.56446 -5.18135,3.03548 -0.18862,1.90419 -0.81969,3.46216 -1.40238,3.46216 -2.02615,0 -2.23247,-3.03203 -0.43689,-6.42036 1.6406,-3.09588 2.12569,-3.33481 5.27773,-2.59953 6.79999,1.58624 21.83559,1.10387 25.70418,-0.82465 3.27866,-1.63443 3.59465,-1.64339 3.28329,-0.0931 -0.50673,2.52306 -8.07662,4.83474 -16.35035,4.99305 -6.59946,0.12628 -7.39791,0.38946 -8.89327,2.93134 -2.18384,3.71219 -10.66986,7.9646 -10.66986,5.34675 z m 1.21377,-28.43045 c 2.62488,-2.64303 5.89584,-6.84817 7.26878,-9.34476 2.30339,-4.18851 2.34695,-4.56841 0.56376,-4.91651 -2.57423,-0.50251 -5.76302,-3.34001 -5.76302,-5.12813 0,-2.07798 -0.5123,-1.84899 -5.13764,2.29636 -2.29076,2.05304 -4.72033,3.7351 -5.39904,3.73791 -0.67872,0.003 -1.81968,0.6937 -2.53547,1.53532 -1.74693,2.05403 -5.46387,1.65961 -6.76796,-0.71819 -1.68475,-3.07188 0.1648,-4.68008 2.26206,-1.96689 1.80435,2.33424 1.81301,2.33473 3.78586,0.20746 1.80414,-1.94536 1.83396,-2.41264 0.34044,-5.3341 -0.90031,-1.76108 -1.36003,-3.47217 -1.02159,-3.80242 0.88624,-0.86482 4.62347,2.67205 4.62347,4.3756 0,1.92174 1.64372,1.81582 3.75233,-0.24181 0.97123,-0.94775 1.71982,-3.47812 1.71982,-5.81329 0,-4.74457 -2.98874,-7.60869 -6.91099,-6.62284 -2.12568,0.53428 -2.22461,0.40238 -0.88962,-1.18602 2.24835,-2.67513 4.42038,-2.18623 8.34981,1.87945 l 3.54373,3.66663 1.23683,-2.6489 c 1.85059,-3.96343 1.54786,-4.68434 -1.96704,-4.68434 -3.56593,0 -7.74044,-4.16455 -7.74044,-7.72196 0,-2.93599 3.95813,-8.03105 7.70963,-9.92411 2.16154,-1.09077 2.9483,-2.13095 2.49111,-3.29357 -0.58073,-1.47678 -0.36736,-1.51592 1.62954,-0.29898 3.17016,1.93192 4.49236,0.23021 1.44138,-1.85513 -1.35604,-0.92684 -3.01345,-2.95828 -3.68313,-4.5143 -1.17218,-2.72358 -1.2432,-2.63768 -1.90312,2.30199 -0.74817,5.60038 -2.33551,7.3494 -12.84393,14.15221 -6.83806,4.42675 -8.86161,9.31324 -6.86022,16.56617 0.87271,3.16264 0.86708,5.90357 -0.0207,10.0766 -1.31499,6.18113 -0.58938,12.59773 1.81116,16.01626 1.72004,2.44943 9.07819,7.79186 10.91138,7.92227 0.67667,0.0482 3.37795,-2.07495 6.00283,-4.71798 z m 59.58293,-9.57782 c 2.66246,-6.21815 1.93917,-9.60203 -3.52522,-16.49233 -0.19124,-0.24114 -1.24458,0.35359 -2.34074,1.32162 -1.09617,0.96803 -3.56165,2.29367 -5.47885,2.94585 -1.91721,0.65219 -3.48584,1.82837 -3.48584,2.61375 0,3.11005 2.49812,7.5409 5.81407,10.31226 4.76701,3.98411 7.08773,3.80364 9.01658,-0.70115 z m -38.06573,-8.84428 c 1.96815,-0.8795 4.60195,-3.00172 5.85291,-4.71605 6.57916,-9.01623 -6.86639,-13.59748 -18.60972,-6.34082 -3.6727,2.2695 -6.16293,8.30219 -4.32105,10.46788 3.07652,3.61736 9.78337,3.84867 17.07786,0.58899 z m 4.12756,1.7971 c 1.16002,-1.83158 0.1212,-2.0113 -2.17115,-0.37561 -1.77526,1.26672 -1.83034,1.51464 -0.33648,1.51464 0.98243,0 2.11086,-0.51257 2.50763,-1.13903 z m 24.32761,-8.20493 c 1.96816,-0.87951 4.60196,-3.00173 5.85291,-4.71606 6.57921,-9.01622 -6.86638,-13.59747 -18.60971,-6.34081 -3.6727,2.2695 -6.16294,8.30219 -4.32105,10.46787 3.07652,3.61736 9.78337,3.84868 17.07785,0.589 z m -34.73243,-9.87954 c 1.74542,0 1.79536,-0.41414 0.54729,-4.53888 -1.1144,-3.683 -1.86155,-4.53888 -3.96229,-4.53888 -2.69457,0 -3.0142,0.61082 -5.08429,9.71647 l -0.99498,4.37661 3.7868,-2.50766 c 2.08274,-1.37921 4.65109,-2.50766 5.70747,-2.50766 z m 20.47592,-8.65619 c -0.24843,-5.31414 -0.0578,-5.7938 2.85124,-7.17187 1.7146,-0.81228 4.79268,-1.52321 6.84019,-1.57984 4.35404,-0.12044 5.00568,-2.4875 1.52981,-5.55707 -4.75894,-4.20266 -16.16429,-1.46778 -21.16138,5.07429 -2.98813,3.91198 -1.55007,8.6523 2.77378,9.1433 3.048,0.34612 6.08687,2.95515 4.84898,4.16311 -0.39678,0.38718 -1.30419,0.13528 -2.01649,-0.5598 -0.71229,-0.69507 -2.05843,-1.27895 -2.99144,-1.29751 -2.23603,-0.0445 -7.71573,-4.79665 -7.71573,-6.69133 0,-2.96912 -4.21505,-5.36332 -9.30995,-5.28816 -5.58844,0.0824 -10.75858,2.63661 -14.04433,6.93822 -2.98611,3.90936 -1.57753,8.29442 3.05231,9.50213 3.82163,0.99689 4.27427,0.6829 4.51494,-3.13208 0.10058,-1.59335 0.24627,-3.47844 0.32389,-4.18909 0.17212,-1.57591 8.1098,-4.03691 10.33412,-3.20399 0.88103,0.32991 2.2295,2.9895 2.99659,5.9102 1.3049,4.96838 1.65602,5.35115 5.45195,5.94347 2.23148,0.3482 4.65982,1.34163 5.39634,2.20762 1.15019,1.3524 1.70961,1.14487 3.96527,-1.47102 2.15945,-2.50434 2.57884,-4.05761 2.35991,-8.74058 z m 9.94519,1.59041 c 2.95069,-0.57587 3.17255,-0.85184 1.77845,-2.21223 -0.87604,-0.85486 -1.59279,-2.48112 -1.59279,-3.61394 0,-1.56735 -0.76936,-2.05966 -3.2187,-2.05966 -3.94067,0 -4.62882,0.95891 -3.75341,5.23017 0.71336,3.4806 1.32772,3.72102 6.78645,2.65566 z M 893.23545,239.018 c 1.21606,-4.82142 1.23469,-7.15996 0.10397,-13.052 -1.85348,-9.65846 -4.3926,-12.05363 -11.86276,-11.19029 -6.34022,0.73275 -9.3605,2.33068 -10.98621,5.81247 -1.4858,3.18215 -1.51942,7.7501 -0.057,7.7501 0.64012,0 0.82565,1.12609 0.43546,2.64313 -0.54703,2.12686 -0.138,2.88405 2.09404,3.87644 1.52562,0.67833 3.37083,2.6397 4.10048,4.35862 1.51654,3.57275 6.5789,6.18248 11.40726,5.88064 3.0237,-0.18903 3.40043,-0.66967 4.76479,-6.07911 z m -5.12124,73.35425 c -3.77546,-3.92165 -2.80169,-5.56453 1.28758,-2.17229 2.01697,1.67316 3.46538,3.40255 3.21871,3.84308 -0.76548,1.36704 -2.03476,0.89643 -4.50629,-1.67079 z m 9.6591,-4.17817 c 0,-1.94685 1.94023,-3.56042 3.01736,-2.50934 0.37557,0.3665 -0.14969,1.47878 -1.16725,2.47175 -1.70616,1.6649 -1.85011,1.66783 -1.85011,0.0376 z m -10.67069,-1.59506 c -0.75242,-0.26222 -1.36804,-1.26059 -1.36804,-2.21858 0,-1.58536 0.16618,-1.57966 1.85012,0.0635 1.97856,1.93075 1.75406,2.93434 -0.48208,2.15502 z m -9.02904,-3.97364 c 0,-0.25903 0.49249,-0.76798 1.09443,-1.13101 0.60193,-0.36302 1.09443,-0.1511 1.09443,0.47096 0,0.62205 -0.4925,1.131 -1.09443,1.131 -0.60194,0 -1.09443,-0.21193 -1.09443,-0.47095 z m 4.66435,-5.60632 c 1.01756,-0.99296 2.1574,-1.50553 2.53298,-1.13903 1.07711,1.05109 -0.57643,2.94441 -2.57151,2.94441 -1.67062,0 -1.66762,-0.14047 0.0385,-1.80538 z"
       id="path3052"
       inkscape:connector-curvature="0" />
  </g>
</svg>
