<?xml version="1.0" encoding="UTF-8" standalone="no"?>
<!-- Created with Inkscape (http://www.inkscape.org/) -->

<svg
   xmlns:dc="http://purl.org/dc/elements/1.1/"
   xmlns:cc="http://creativecommons.org/ns#"
   xmlns:rdf="http://www.w3.org/1999/02/22-rdf-syntax-ns#"
   xmlns:svg="http://www.w3.org/2000/svg"
   xmlns="http://www.w3.org/2000/svg"
   xmlns:xlink="http://www.w3.org/1999/xlink"
   xmlns:sodipodi="http://sodipodi.sourceforge.net/DTD/sodipodi-0.dtd"
   xmlns:inkscape="http://www.inkscape.org/namespaces/inkscape"
   width="120.87607"
   height="266.82712"
   id="svg2"
   version="1.1"
   inkscape:version="0.48.3.1 r9886"
   sodipodi:docname="Biceps-curl-1.svg">
  <defs
     id="defs4">
    <radialGradient
       gradientUnits="userSpaceOnUse"
       gradientTransform="matrix(1,0,0,0.91819829,-19.285714,-7.9105395)"
       r="209.56604"
       fy="287.50052"
       fx="398.1105"
       cy="287.50052"
       cx="398.1105"
       id="radialGradient5255"
       xlink:href="#linearGradient5249"
       inkscape:collect="always" />
    <linearGradient
       id="linearGradient5249"
       inkscape:collect="always">
      <stop
         id="stop5251"
         offset="0"
         style="stop-color:#e3e3e3;stop-opacity:1;" />
      <stop
         id="stop5253"
         offset="1"
         style="stop-color:#e3e3e3;stop-opacity:0;" />
    </linearGradient>
  </defs>
  <sodipodi:namedview
     id="base"
     pagecolor="#ffffff"
     bordercolor="#666666"
     borderopacity="1.0"
     inkscape:pageopacity="0.0"
     inkscape:pageshadow="2"
     inkscape:zoom="1.979899"
     inkscape:cx="-83.886257"
     inkscape:cy="96.281928"
     inkscape:document-units="px"
     inkscape:current-layer="layer1"
     showgrid="false"
     showguides="true"
     inkscape:guide-bbox="true"
     fit-margin-top="0"
     fit-margin-left="0"
     fit-margin-right="0"
     fit-margin-bottom="0"
     inkscape:window-width="1615"
     inkscape:window-height="1026"
     inkscape:window-x="65"
     inkscape:window-y="24"
     inkscape:window-maximized="1">
    <sodipodi:guide
       orientation="-0.70710678,0.70710678"
       position="-2266.2256,444.03725"
       id="guide2985" />
  </sodipodi:namedview>
  <metadata
     id="metadata7">
    <rdf:RDF>
      <cc:Work
         rdf:about="">
        <dc:format>image/svg+xml</dc:format>
        <dc:type
           rdf:resource="http://purl.org/dc/dcmitype/StillImage" />
        <dc:title />
      </cc:Work>
    </rdf:RDF>
  </metadata>
  <g
     inkscape:label="Ebene 1"
     inkscape:groupmode="layer"
     id="layer1"
     transform="translate(-837.65414,-203.85803)">
    <path
       style="fill:#000000"
       d="m 870.24386,467.81892 c -2.34277,-1.84638 -3.62108,-3.82818 -3.62108,-5.61386 0,-1.51801 -0.79773,-4.30267 -1.77274,-6.18813 -1.22904,-2.37669 -1.89925,-7.4001 -2.18521,-16.3788 -0.22685,-7.12288 -1.178,-15.70828 -2.11366,-19.07867 -2.2931,-8.26011 -2.14927,-11.21676 1.08118,-22.22635 1.51914,-5.1773 2.76207,-10.8465 2.76207,-12.59821 0,-4.68786 2.31931,-13.08511 3.61408,-13.08511 0.7172,0 0.77854,1.30472 0.17022,3.62108 -1.36175,5.1853 -1.02864,17.40787 0.60974,22.37221 1.8798,5.69583 0.66386,6.52933 -1.67178,1.14596 l -1.865,-4.2986 -1.69904,3.89963 c -2.69554,6.18672 -2.95311,13.44582 -0.77584,21.86444 1.08978,4.2137 2.10142,12.17371 2.24809,17.68889 0.263,9.88898 3.60433,22.44539 7.09073,26.64623 1.90391,2.29408 7.32411,3.25396 10.07152,1.78359 3.12882,-1.6745 1.63064,-3.73582 -2.16368,-2.97695 -3.39455,0.6789 -7.82979,-0.178 -7.82979,-1.51275 0,-0.47795 2.78048,-0.90221 6.17884,-0.9428 4.44571,-0.0531 6.35428,0.38336 6.80428,1.55603 0.57361,1.49481 4.84373,2.40597 4.84373,1.03355 0,-0.92841 -3.59986,-6.51806 -4.99764,-7.76005 -3.21533,-2.85694 -9.44601,-15.12118 -10.58415,-20.83345 -1.30113,-6.53025 -0.28543,-16.28238 2.17455,-20.87891 0.6332,-1.18315 1.11056,-4.81639 1.06079,-8.07387 l -0.0905,-5.92268 -1.53053,3.34253 c -0.84178,1.83839 -1.55313,5.22271 -1.58077,7.5207 -0.0283,2.35381 -0.60451,4.17817 -1.31962,4.17817 -2.03367,0 -0.32882,-10.25103 2.7187,-16.34728 1.47899,-2.95855 3.61309,-8.38748 4.74247,-12.06427 1.12936,-3.67678 3.03224,-8.36013 4.2286,-10.40744 1.19636,-2.0473 2.80562,-6.43438 3.57615,-9.74906 1.32597,-5.70417 1.28521,-6.02669 -0.76188,-6.02669 -1.18956,0 -2.47936,0.87742 -2.86625,1.94982 -1.37939,3.8235 -5.02505,8.13822 -8.31281,9.83838 -3.03301,1.56844 -3.59238,1.56134 -6.09333,-0.0773 -4.81699,-3.15622 -7.09532,-8.23167 -7.0999,-15.81649 -0.002,-3.7901 0.47853,-8.16067 1.06849,-9.71237 0.78052,-2.05295 0.59666,-3.9605 -0.67514,-7.00435 -1.28001,-3.0635 -1.52738,-5.68255 -0.92424,-9.78575 1.83769,-12.50215 0.80948,-24.65136 -1.74451,-20.61287 -1.72137,2.72192 -1.33808,-1.8432 0.45161,-5.37891 1.8906,-3.73503 3.05523,-21.45263 1.58307,-24.08323 -1.58264,-2.82802 0.13085,-3.81704 2.09158,-1.20724 1.17954,1.57001 1.51037,3.86939 1.12189,7.79749 -0.30302,3.064 -0.30294,4.94417 1.8e-4,4.17817 1.71953,-4.3453 5.93633,3.77261 5.93633,11.42823 0,7.09543 2.715,8.43582 17.61579,8.69687 8.18053,0.1433 13.08016,-0.28486 15.64706,-1.36732 3.4799,-1.4675 3.69164,-1.85094 3.07626,-5.5709 -0.36348,-2.19721 -0.6674,-4.99769 -0.67535,-6.22328 -0.0111,-1.67166 -0.83991,-2.28603 -3.31853,-2.45921 -1.81722,-0.12696 -3.60064,0.24908 -3.96316,0.83564 -0.36252,0.58657 -2.00833,1.07415 -3.65736,1.08353 -1.64903,0.009 -3.72328,0.47579 -4.60947,1.03645 -1.7824,1.12767 -5.63092,-0.40745 -5.63092,-2.24609 0,-0.72827 0.74839,-0.71365 2.16074,0.0422 1.4369,0.76901 2.39204,0.78214 2.8512,0.0392 0.37976,-0.61445 2.36206,-1.11719 4.40513,-1.11719 3.83584,0 4.9844,-1.32279 5.15813,-5.94056 0.0718,-1.90702 0.44694,-1.59791 1.78157,1.46777 l 1.69067,3.88356 2.6672,-3.1008 c 3.72886,-4.33506 4.2842,-7.62486 2.58219,-15.29675 l -1.47606,-6.65347 -3.57136,0.66999 c -3.68138,0.6906 -8.2218,-0.19544 -8.2218,-1.60447 0,-0.43914 3.01065,-0.70357 6.69035,-0.58762 6.21667,0.19589 6.73797,0.0211 7.36294,-2.46902 0.67945,-2.70716 2.65938,-3.75688 2.65938,-1.40994 0,0.69844 0.87742,1.9891 1.94981,2.86814 1.8032,1.47807 1.75618,1.55664 -0.62524,1.04495 -3.54519,-0.76174 -4.11127,1.42004 -2.42729,9.35531 1.2406,5.846 1.17381,7.23769 -0.56608,11.79351 -2.53789,6.64536 -1.79156,21.26399 1.19717,23.4494 1.45827,1.06631 1.72942,2.35042 1.18357,5.60526 -0.71183,4.24464 2.94423,17.72825 6.85617,25.28572 1.44244,2.78665 1.45573,3.40644 0.0955,4.45672 -1.27795,0.98675 -1.41141,3.13654 -0.69824,11.24753 0.96633,10.9903 1.03288,13.00756 0.80868,24.51192 -0.0836,4.28959 0.29811,14.70596 0.84822,23.14751 l 1.00022,15.34825 7.4666,7.21386 c 4.8304,4.6669 8.38133,7.21385 10.05745,7.21385 1.42498,0 3.46584,0.96683 4.53526,2.14852 6.24335,6.89883 -9.98559,12.50208 -20.18826,6.97025 -1.33846,-0.72574 -5.41346,-1.31952 -9.0555,-1.31952 -8.82556,0 -9.72063,-1.14583 -8.50684,-10.88998 1.77374,-14.23931 1.28073,-21.40684 -1.94114,-28.2209 -2.95468,-6.24896 -3.20798,-9.68093 -1.44886,-19.63099 0.39062,-2.20939 -0.0252,-4.86616 -1.08122,-6.90828 -0.94376,-1.82504 -1.71593,-4.81398 -1.71593,-6.64208 0,-4.08317 -6.35034,-14.67219 -8.34096,-13.90832 -0.80894,0.31042 -1.63264,3.08508 -1.9105,6.43553 -0.26862,3.23941 -1.64084,8.09707 -3.04935,10.79479 -4.43941,8.50287 -6.7544,17.50134 -6.7544,26.25466 0,5.4462 -0.79636,10.59897 -2.34527,15.17481 -3.60671,10.65506 -2.61779,21.47991 2.77048,30.32621 2.23952,3.67678 4.68951,7.18773 5.4444,7.8021 1.69617,1.3804 5.27217,7.71216 5.27217,9.33502 0,1.99284 -9.03747,5.70433 -13.85796,5.69118 -3.15819,-0.009 -5.62029,-0.87481 -8.14706,-2.86621 z m 71.4881,-22.90569 c 2.27317,-1.03571 2.58641,-1.65728 1.68449,-3.34253 -0.60937,-1.13861 -2.2322,-2.07021 -3.60628,-2.07021 -5.46006,0 -17.36233,-12.14349 -19.34255,-19.73454 -1.70558,-6.53826 -2.677,-38.36083 -1.32094,-43.2721 0.69609,-2.52101 0.6563,-4.55179 -0.11751,-5.99766 -1.13853,-2.12737 -1.24318,-2.11284 -3.89687,0.54086 -3.52898,3.52898 -4.6323,3.4367 -6.69922,-0.56029 -2.49917,-4.83287 -2.06525,-5.52255 1.08631,-1.7266 2.69992,3.25194 2.82057,3.28392 4.45119,1.17977 0.92182,-1.18952 1.67605,-3.09929 1.67605,-4.24393 0,-1.14462 0.50138,-1.77128 1.11417,-1.39255 0.69849,0.43169 1.11418,-1.97366 1.11418,-6.44699 l 0,-7.1356 -6.28499,3.17021 c -6.9402,3.50072 -8.96394,3.78937 -13.16071,1.87719 -4.42452,-2.01594 -3.36915,-2.83186 3.01157,-2.32827 5.14183,0.40581 6.52335,0.0212 11.42033,-3.17954 3.06399,-2.00266 5.70521,-3.72406 5.86937,-3.8253 0.16415,-0.10128 -0.45949,-1.6375 -1.38586,-3.41387 -0.92638,-1.77636 -1.69843,-4.23252 -1.71567,-5.45811 -0.0173,-1.2256 -1.05821,-4.48457 -2.31329,-7.24216 -1.66346,-3.65486 -2.09969,-6.24129 -1.60949,-9.54262 0.52685,-3.54813 0.23253,-4.92694 -1.35917,-6.3674 -1.84784,-1.67228 -2.58198,-1.68895 -8.1151,-0.18425 -6.98366,1.89916 -20.79254,1.23533 -25.95017,-1.24749 -2.8079,-1.35169 -3.40101,-1.28823 -5.40453,0.57836 -2.4535,2.28578 -2.61276,3.70382 -1.63239,14.53504 0.46165,5.10028 0.19041,8.23073 -0.91715,10.5847 -1.52228,3.23541 -1.5696,3.10078 -1.47658,-4.20163 0.0528,-4.14928 -0.19526,-7.83553 -0.55137,-8.19165 -1.20686,-1.20684 -2.15853,7.35457 -1.28473,11.55764 0.47774,2.298 0.75352,4.67955 0.61284,5.29235 -0.14067,0.6128 1.25081,-0.51531 3.09219,-2.5069 6.49631,-7.02624 14.1851,-3.56171 16.8623,7.5981 0.73001,3.04306 1.01493,6.77744 0.63313,8.29862 -0.80328,3.20059 0.0901,3.45963 3.5571,1.03133 1.73404,-1.21458 2.47627,-2.87098 2.47627,-5.52617 0,-3.46869 0.38601,-3.90738 4.53077,-5.14918 3.08022,-0.92285 5.05733,-2.37568 6.17544,-4.53787 0.90455,-1.74923 2.12284,-2.88487 2.70729,-2.52367 1.46981,0.90839 -1.91434,7.1795 -4.27979,7.93081 -5.33749,1.69529 -6.90535,3.09345 -6.90535,6.1579 0,1.73484 0.49625,3.15426 1.1028,3.15426 2.24438,0 8.89529,11.7962 10.03284,17.79448 0.63439,3.34513 1.64737,6.57599 2.25105,7.17967 1.38458,1.38458 1.44647,7.33702 0.0763,7.33702 -0.56172,0 -1.31788,-0.62672 -1.68033,-1.39272 -1.95913,-4.14032 0.8175,15.25769 2.8377,19.8247 2.10732,4.76393 2.28682,6.52578 1.57683,15.47699 -0.44066,5.5556 -0.88098,12.1066 -0.97848,14.55779 l -0.17729,4.45671 7.79925,0.56133 c 4.28958,0.30874 8.80201,1.1709 10.0276,1.91594 2.83472,1.7232 10.75251,1.80577 14.38646,0.15003 z m -28.68508,-9.49807 c -1.23627,-1.23625 -0.83162,-7.05646 0.49059,-7.05646 0.67836,0 0.93086,0.7884 0.56108,1.75198 -0.36976,0.9636 -0.15507,2.71843 0.47709,3.89963 1.09152,2.03951 0.0568,2.9904 -1.52876,1.40485 z m -30.21281,-98.27491 c 0.58216,-0.53349 6.13177,-1.52672 12.33249,-2.20717 6.2007,-0.68044 12.21726,-1.56858 13.37014,-1.97362 1.91234,-0.67189 1.94397,-0.57392 0.36072,1.11733 -1.14775,1.22605 -4.9206,2.21996 -11.14178,2.93517 -11.77912,1.35416 -16.30167,1.39305 -14.92157,0.12829 z m 7.18645,-3.33069 c 0,-0.62912 3.13363,-2.66361 6.96362,-4.52109 7.54969,-3.66148 6.09351,-4.37041 -3.62108,-1.76291 -7.59938,2.03976 -8.94034,2.04258 -6.26,0.0131 1.15298,-0.87299 4.91334,-2.13521 8.35634,-2.80494 3.443,-0.66974 7.63879,-1.4835 9.32399,-1.80837 2.56138,-0.49379 3.06399,-0.2049 3.06399,1.76117 0,1.29352 -0.87742,2.66897 -1.94982,3.05655 -1.6751,0.60542 -12.57596,5.52099 -15.0414,6.78267 -0.4596,0.2352 -0.83564,-0.0871 -0.83564,-0.71622 z m -17.64115,-4.54579 c 0.20426,-0.57599 2.07918,-2.20547 4.16647,-3.62108 3.8401,-2.60438 6.5847,-5.94899 5.63603,-6.86817 -0.28473,-0.27587 -1.77114,-0.67595 -3.30313,-0.88907 -2.31776,-0.32244 -2.96444,0.2205 -3.85149,3.23359 -1.08744,3.69376 -2.83358,4.9276 -2.83358,2.00223 0,-1.28574 1.81589,-6.4374 2.88779,-8.19265 0.11453,-0.18755 3.39732,0.48989 7.29511,1.50541 7.65385,1.99412 14.14186,1.71195 21.87183,-0.95124 4.58848,-1.58085 6.13381,-1.0406 3.32043,1.16085 -2.21571,1.73377 -11.35112,3.63976 -17.4454,3.63976 -4.43712,0 -5.83991,0.45688 -6.7766,2.2071 -1.94021,3.62532 -12.06959,9.881 -10.96746,6.77327 z m 6.38129,39.41477 c 7.52815,-6.33451 7.54051,-23.46132 0.0207,-28.72837 -2.36431,-1.65603 -2.81311,-1.64581 -5.84112,0.13293 -4.94943,2.90744 -7.43167,8.4946 -7.43167,16.72759 0,13.18156 5.66333,18.25335 13.25206,11.86785 z m -8.64701,-63.6418 c -0.11008,-3.5639 -0.4818,-7.38483 -0.82594,-8.49096 -0.90679,-2.91475 -2.98155,-1.72827 -3.47946,1.98979 -0.23512,1.7557 -0.84331,3.98287 -1.35152,4.9493 -0.51696,0.98303 -0.37768,4.08661 0.31615,7.04483 1.22522,5.22381 1.26618,5.26172 3.39062,3.13728 1.69074,-1.69075 2.10761,-3.53555 1.95015,-8.63024 z m -2.65368,140.4201 c -0.71103,-1.2396 2.77335,-7.34556 4.52496,-7.92943 1.07449,-0.35816 1.07979,0.22041 0.0248,2.70863 -1.68664,3.97807 -3.84319,6.45267 -4.54979,5.2208 z m 6.96206,-58.32273 c 0,-0.6128 1.00276,-1.11418 2.22835,-1.11418 1.2256,0 2.22836,0.50138 2.22836,1.11418 0,0.61279 -1.00276,1.11417 -2.22836,1.11417 -1.22559,0 -2.22835,-0.50138 -2.22835,-1.11417 z m -2.38573,-6.09254 c -1.67233,-1.68898 0.62207,-4.81799 4.37817,-5.97077 4.19891,-1.28868 5.75081,-0.48248 5.78975,3.00775 0.0133,1.18684 -0.33322,1.23846 -1.54764,0.23058 -1.97953,-1.64287 -7.11332,-0.42953 -7.56587,1.78815 -0.18697,0.91621 -0.66146,1.34115 -1.05441,0.94429 z m -28.46656,-16.62905 c -3.4335,-2.8891 -5.9156,-9.1288 -5.9156,-14.87112 0,-4.93007 3.0214,-12.64528 6.28689,-16.05372 2.71902,-2.83805 2.86948,-3.65036 3.09855,-16.72847 0.19671,-11.23081 -0.14727,-14.76468 -1.88023,-19.31595 -1.89202,-4.96906 -1.97912,-6.41239 -0.80688,-13.37014 0.72276,-4.28988 1.70151,-11.26847 2.175,-15.50799 0.76906,-6.88593 1.26285,-8.05213 4.62867,-10.93181 2.07227,-1.77296 5.36372,-3.9375 7.31433,-4.8101 1.95061,-0.87258 4.24112,-2.57812 5.09001,-3.79008 2.07865,-2.96769 7.4862,-7.14642 8.25415,-6.37848 0.87796,0.87797 -9.78744,11.32227 -13.6576,13.37449 -1.77822,0.94293 -4.67781,3.08207 -6.44355,4.75365 -3.0839,2.91947 -3.18533,3.33861 -2.57359,10.63539 0.44887,5.35414 0.26479,7.52051 -0.62368,7.33984 -2.38924,-0.48584 -3.29155,11.29311 -1.31981,17.22943 1.07742,3.24381 2.25869,5.07903 2.98163,4.63223 0.80087,-0.49496 0.93575,0.14773 0.40739,1.94118 -1.89732,6.44014 -2.00239,20.65214 -0.21598,29.21084 0.99908,4.78658 1.48917,9.23249 1.08909,9.87983 -0.72127,1.16707 1.16597,11.56343 2.91844,16.07689 0.54407,1.40128 2.29865,2.62577 4.35046,3.03614 1.89125,0.37825 3.43863,1.20164 3.43863,1.82976 0,1.93272 -5.11469,1.26449 -8.06113,-1.05318 -3.22113,-2.53374 -4.46977,-8.9487 -5.19768,-26.70333 l -0.1113,-2.71536 -3.18278,3.04929 c -5.48122,5.25134 -7.21499,15.05604 -4.01616,22.71191 1.95139,4.67035 3.32272,5.81142 7.01324,5.83564 1.57935,0.01 2.41774,0.5637 2.13603,1.40978 -0.81202,2.43878 -3.77863,2.14258 -7.17652,-0.71656 z m 95.74307,-7.63977 c -1.2916,-1.3788 -2.88314,-3.91834 -3.53676,-5.64343 -2.45436,-6.47777 -0.87677,-18.20438 3.11167,-23.1299 1.91475,-2.3646 1.92066,-2.6915 0.11762,-6.49568 -1.04422,-2.20319 -2.2441,-6.0113 -2.66638,-8.4625 -0.75551,-4.38535 -4.32382,-17.08221 -6.50732,-23.15447 -0.61294,-1.70459 -2.55118,-4.90717 -4.30719,-7.11682 -2.10141,-2.64426 -3.19275,-5.31333 -3.19275,-7.80836 0,-2.08495 -0.98925,-5.72988 -2.19831,-8.09985 -1.20907,-2.36998 -2.13229,-6.06518 -2.05161,-8.21156 0.2415,-6.4239 -2.19254,-10.6152 -7.88751,-13.5819 -3.82656,-1.99338 -4.50786,-2.6868 -2.67786,-2.72549 6.98243,-0.14758 12.58693,6.90383 12.58693,15.83649 0,2.65944 0.47846,5.31382 1.06325,5.89861 0.58477,0.58477 1.79647,4.20631 2.69263,8.04783 1.0673,4.57507 2.79718,8.31462 5.01449,10.84 1.86179,2.12046 3.96873,5.99456 4.68211,8.60912 0.71336,2.61455 1.94429,7.00994 2.73539,9.76753 0.79109,2.75759 1.72164,7.37376 2.06786,10.25814 0.34623,2.88439 1.51948,6.89543 2.60721,8.91343 1.59614,2.96117 2.55825,3.60209 4.98661,3.32185 6.86476,-0.79221 10.91833,5.12784 10.91833,15.94574 0,14.82308 -10.27509,24.76626 -17.55841,16.99122 z m 11.28858,-3.09859 c 5.03795,-5.98727 6.40188,-14.63256 3.46607,-21.96985 -2.45794,-6.143 -5.33097,-7.61764 -9.8078,-5.03403 -5.44905,3.14467 -7.63114,8.37471 -7.19086,17.23515 0.29975,6.03213 0.8835,8.01197 3.03878,10.30615 3.54786,3.77653 7.01318,3.59906 10.49381,-0.53742 z m -21.24568,-8.13965 c -1.34557,-0.66857 -3.27246,-3.37834 -4.28198,-6.0217 -1.56201,-4.09008 -1.63437,-5.6444 -0.48569,-10.43267 1.83023,-7.62923 0.80625,-12.56295 -3.76529,-18.14192 -3.95825,-4.83052 -7.97439,-12.93838 -6.4089,-12.93838 0.48503,0 1.83824,1.83532 3.00714,4.07849 1.16889,2.24317 3.30384,5.37679 4.74433,6.96362 5.22081,5.75118 6.06734,8.7219 5.27345,18.50614 -0.81861,10.08899 0.34468,14.90498 3.81977,15.81374 1.21822,0.31856 2.21494,1.27281 2.21494,2.12053 0,1.75578 -0.67185,1.76429 -4.11777,0.0521 z m -75.32658,-3.40556 c -0.45592,-1.1601 -0.56646,-2.37177 -0.24563,-2.69259 1.0162,-1.01619 1.91032,0.64908 1.48452,2.76486 -0.39023,1.93904 -0.44983,1.93556 -1.23889,-0.0723 z m 5.99885,-1.62166 c -1.44546,-2.70087 -1.58849,-6.85375 -0.23605,-6.85375 0.97674,0 2.67623,7.86854 1.87298,8.67181 -0.23787,0.23786 -0.97449,-0.58026 -1.63693,-1.81806 z m 69.6383,-16.73182 c -0.47996,-0.77658 -0.57176,-1.71286 -0.204,-2.08062 0.99716,-0.99715 2.08437,0.4694 1.5458,2.08512 -0.37739,1.1322 -0.63984,1.13132 -1.3418,-0.004 z m -15.13383,-2.2052 c 0,-1.47787 4.38701,-5.0705 5.1995,-4.25801 0.40101,0.40102 -0.18114,1.73496 -1.2937,2.96431 -2.10213,2.32283 -3.9058,2.92024 -3.9058,1.2937 z m -25.57719,-13.17662 c -1.56838,-1.99387 -1.97161,-3.3459 -1.22155,-4.09595 0.75004,-0.75005 0.66864,-1.6663 -0.24659,-2.77576 -1.1116,-1.34747 -1.05474,-1.5521 0.30505,-1.09799 0.91919,0.30697 1.67126,1.5978 1.67126,2.8685 0,1.27071 1.21551,3.60798 2.70112,5.19396 2.11992,2.2631 2.31712,2.88357 0.9165,2.88357 -0.98154,0 -2.83815,-1.33935 -4.12579,-2.97633 z m -33.47427,-0.98906 c 0,-0.95536 0.50138,-1.42715 1.11418,-1.04842 0.6128,0.37874 1.11418,1.1604 1.11418,1.73703 0,0.57663 -0.50138,1.04842 -1.11418,1.04842 -0.6128,0 -1.11418,-0.78166 -1.11418,-1.73703 z m 44.56714,-3.27677 c 0,-0.9192 0.81346,-1.67127 1.80769,-1.67127 1.48052,0 1.55665,0.30249 0.42066,1.67127 -0.76286,0.91919 -1.57632,1.67127 -1.80768,1.67127 -0.23137,0 -0.42067,-0.75208 -0.42067,-1.67127 z m -24.3579,-5.69984 c -3.95269,-2.76856 -1.22082,-4.38669 3.03576,-1.7981 1.91801,1.16641 3.15484,2.45319 2.7485,2.85952 -1.19706,1.19705 -3.04361,0.85821 -5.78426,-1.06142 z m -28.21994,-6.55612 c -0.48373,-4.14342 0.54575,-5.09534 2.23876,-2.07011 1.10443,1.97351 0.48777,5.96973 -0.92118,5.96973 -0.47429,0 -1.0672,-1.75483 -1.31758,-3.89962 z m 33.90841,3.17223 c -2.19109,-0.90343 -0.44187,-2.61515 2.67245,-2.61515 1.75456,0 2.6381,0.52389 2.34882,1.39273 -0.51303,1.5408 -2.86214,2.11268 -5.02127,1.22242 z m 39.10812,-6.17884 c 0.43396,-3.37888 0.0901,-6.88515 -0.96975,-9.88915 -2.41097,-6.83342 -1.85263,-9.07717 0.81119,-3.25983 2.5619,5.59478 3.04468,15.05328 0.87213,17.08675 -1.09773,1.02746 -1.24611,0.20865 -0.71357,-3.93777 z m -50.93233,1.66731 c -1.47651,-1.47651 -0.57156,-2.12243 3.12021,-2.22708 2.10625,-0.0597 4.06179,0.5124 4.35395,1.27379 0.55657,1.45041 -6.12485,2.30259 -7.47416,0.95329 z m 16.40188,-0.35619 c -2.63744,-1.02924 -4.31612,-3.10868 -3.3165,-4.1083 0.35295,-0.35296 1.40265,-0.01 2.33266,0.7616 1.37252,1.1391 2.41772,1.05847 5.55049,-0.42812 2.12276,-1.00732 4.16114,-2.31945 4.52973,-2.91585 0.3686,-0.59639 1.64335,-1.08436 2.83278,-1.08436 1.41981,0 2.1626,-0.76537 2.1626,-2.22836 0,-1.22559 -0.50138,-2.22835 -1.11418,-2.22835 -2.02343,0 -1.15914,-1.82776 1.54987,-3.27757 1.95942,-1.04865 3.21186,-1.10741 4.73525,-0.22216 1.87168,1.08765 1.79392,1.20687 -0.80707,1.23749 -1.58307,0.0186 -3.18304,0.33862 -3.55551,0.71109 -1.12451,1.12451 1.82173,4.89368 3.82524,4.89368 3.09259,0 5.394,1.25603 5.394,2.94385 0,1.22798 -0.49201,1.32794 -2.15511,0.43788 -1.1853,-0.63435 -3.1963,-1.15337 -4.46886,-1.15337 -2.72057,0 -12.38037,4.3186 -13.98833,6.25375 -0.7232,0.87036 -1.95386,1.01322 -3.50706,0.4071 z m -15.82214,-5.4187 c -1.8239,-1.15585 -1.30603,-4.76398 0.78364,-5.45982 1.1132,-0.37067 1.30012,0.15745 0.71181,2.01105 -0.71238,2.24451 -0.487,2.45431 2.10436,1.95895 1.70341,-0.32563 3.42169,0.0712 4.15988,0.96062 1.01847,1.22719 0.54304,1.51216 -2.49983,1.49835 -2.06663,-0.009 -4.43357,-0.44551 -5.25986,-0.96915 z m 18.90608,-5.69887 c 4.48348,-5.57908 7.98447,-6.18727 3.76394,-0.65387 -2.50734,3.2873 -4.94298,5.11059 -6.82698,5.11059 -0.28515,0 1.09321,-2.00552 3.06304,-4.45672 z m -33.55932,0.62198 c 0,-1.97707 4.04633,-4.41573 4.93663,-2.97522 0.33832,0.54743 -0.63401,1.81379 -2.16075,2.81415 -2.38521,1.56285 -2.77588,1.58552 -2.77588,0.16107 z m 17.52841,-3.44759 c -2.28705,-1.55409 -4.15827,-3.58512 -4.15827,-4.51341 0,-1.27752 0.90582,-0.9969 3.72625,1.15434 4.12478,3.14612 9.74255,3.73701 11.81281,1.2425 0.73018,-0.87981 2.82716,-1.92901 4.65996,-2.33156 4.02422,-0.88387 5.87968,-4.76092 4.28533,-8.95437 -1.56906,-4.12695 -1.39209,-5.46765 0.51305,-3.88654 0.87981,0.73018 1.92688,2.81747 2.32683,4.63843 0.91495,4.16572 -1.54146,8.15609 -6.45526,10.48642 -1.97956,0.93879 -4.85265,2.43815 -6.38465,3.33192 -3.88046,2.26386 -5.55462,2.07454 -10.32605,-1.16773 z m -0.81562,-25.25691 c -7e-5,-0.43183 1.73934,-1.11147 3.86533,-1.5103 l 3.86545,-0.72516 -1.63709,-3.91811 c -2.26877,-5.42995 -2.04519,-6.69366 0.59127,-3.34194 1.2256,1.55809 2.22836,3.8159 2.22836,5.01735 0,2.9367 8.76875,4.4249 10.74539,1.82367 1.76469,-2.32232 0.57212,-6.03087 -1.93936,-6.03087 -4.25664,0 -11.13343,-3.64471 -12.74054,-6.75252 -1.97262,-3.81464 -3.86603,-5.19199 -3.09755,-2.25327 0.30766,1.17648 0.0255,3.05735 -0.62712,4.1797 -0.96435,1.65859 -1.19284,1.07535 -1.22037,-3.11527 -0.0209,-3.18865 -0.67157,-5.68517 -1.70515,-6.54296 -1.16508,-0.96694 -1.67127,-3.53385 -1.67127,-8.47519 0,-6.22919 0.38726,-7.52156 3.1956,-10.66465 2.84953,-3.18917 3.97433,-3.62608 10.38635,-4.03437 9.87969,-0.62909 12.58962,1.70705 14.604,12.58952 0.79402,4.28958 1.10095,9.55407 0.68206,11.69887 -0.4189,2.14479 -1.09172,5.7798 -1.49516,8.07779 l -0.73354,4.17817 3.95012,0 c 2.19368,0 3.9501,0.55985 3.9501,1.25908 0,0.83499 -1.70531,1.06687 -5.06287,0.68841 -3.49364,-0.39377 -4.92633,-0.17968 -4.62231,0.69074 0.26104,0.74739 2.32409,1.11725 5.06287,0.90767 5.87291,-0.44944 6.06924,1.50882 0.24466,2.4402 -2.40772,0.38502 -5.24115,1.56351 -6.29652,2.61888 -1.50336,1.50337 -3.93304,1.92545 -11.22074,1.94929 -5.11602,0.0167 -9.30191,-0.32289 -9.30197,-0.75473 z m 20.32529,-12.30644 c 0.99565,-0.766 2.33285,-4.30246 2.97157,-7.85879 1.45491,-8.10084 -0.76845,-19.23228 -4.43897,-22.22403 -5.28836,-4.3104 -16.75323,-1.25023 -19.44411,5.18997 -1.58307,3.78882 -1.25509,7.34454 0.67746,7.34454 0.53191,0 0.68766,1.39731 0.34609,3.10514 -0.49571,2.4786 -0.0885,3.39013 2.01824,4.51762 1.45159,0.77687 3.12239,2.51097 3.71287,3.85354 0.59049,1.34259 3.32982,3.5418 6.08741,4.88714 6.04439,2.94885 5.81952,2.91583 8.06944,1.18487 z"
       id="path3025"
       inkscape:connector-curvature="0" />
  </g>
</svg>
