<?xml version="1.0" encoding="UTF-8" standalone="no"?>
<!-- Created with Inkscape (http://www.inkscape.org/) -->

<svg
   xmlns:dc="http://purl.org/dc/elements/1.1/"
   xmlns:cc="http://creativecommons.org/ns#"
   xmlns:rdf="http://www.w3.org/1999/02/22-rdf-syntax-ns#"
   xmlns:svg="http://www.w3.org/2000/svg"
   xmlns="http://www.w3.org/2000/svg"
   xmlns:xlink="http://www.w3.org/1999/xlink"
   xmlns:sodipodi="http://sodipodi.sourceforge.net/DTD/sodipodi-0.dtd"
   xmlns:inkscape="http://www.inkscape.org/namespaces/inkscape"
   width="115.19031"
   height="256.21329"
   id="svg2"
   version="1.1"
   inkscape:version="0.48.3.1 r9886"
   sodipodi:docname="Bicep-hammer-curl-1.svg">
  <defs
     id="defs4">
    <radialGradient
       gradientUnits="userSpaceOnUse"
       gradientTransform="matrix(1,0,0,0.91819829,-19.285714,-7.9105395)"
       r="209.56604"
       fy="287.50052"
       fx="398.1105"
       cy="287.50052"
       cx="398.1105"
       id="radialGradient5255"
       xlink:href="#linearGradient5249"
       inkscape:collect="always" />
    <linearGradient
       id="linearGradient5249"
       inkscape:collect="always">
      <stop
         id="stop5251"
         offset="0"
         style="stop-color:#e3e3e3;stop-opacity:1;" />
      <stop
         id="stop5253"
         offset="1"
         style="stop-color:#e3e3e3;stop-opacity:0;" />
    </linearGradient>
  </defs>
  <sodipodi:namedview
     id="base"
     pagecolor="#ffffff"
     bordercolor="#666666"
     borderopacity="1.0"
     inkscape:pageopacity="0.0"
     inkscape:pageshadow="2"
     inkscape:zoom="2.8"
     inkscape:cx="34.402153"
     inkscape:cy="139.31307"
     inkscape:document-units="px"
     inkscape:current-layer="layer1"
     showgrid="false"
     showguides="true"
     inkscape:guide-bbox="true"
     fit-margin-top="0"
     fit-margin-left="0"
     fit-margin-right="0"
     fit-margin-bottom="0"
     inkscape:window-width="1615"
     inkscape:window-height="1026"
     inkscape:window-x="65"
     inkscape:window-y="24"
     inkscape:window-maximized="1">
    <sodipodi:guide
       orientation="-0.70710678,0.70710678"
       position="-2266.5873,439.61366"
       id="guide2985" />
  </sodipodi:namedview>
  <metadata
     id="metadata7">
    <rdf:RDF>
      <cc:Work
         rdf:about="">
        <dc:format>image/svg+xml</dc:format>
        <dc:type
           rdf:resource="http://purl.org/dc/dcmitype/StillImage" />
        <dc:title />
      </cc:Work>
    </rdf:RDF>
  </metadata>
  <g
     inkscape:label="Ebene 1"
     inkscape:groupmode="layer"
     id="layer1"
     transform="translate(-838.01585,-210.04826)">
    <path
       style="fill:#000000"
       d="m 869.99924,463.89197 c -1.65239,-1.02041 -3.26044,-3.06642 -3.57344,-4.54667 -0.31301,-1.48025 -1.35302,-4.87136 -2.31113,-7.53581 -1.08541,-3.01843 -1.82058,-8.90228 -1.95042,-15.6099 -0.11462,-5.921 -0.99267,-13.74206 -1.95123,-17.38011 -2.28252,-8.66306 -2.19851,-12.63426 0.43712,-20.66281 1.19897,-3.65224 2.62705,-10.1668 3.17351,-14.47681 1.10055,-8.68035 1.93551,-11.5347 3.37409,-11.5347 1.27962,0 1.21188,1.60542 -0.27743,6.57632 -1.1809,3.94146 -0.13049,15.51635 1.88463,20.76768 1.40341,3.65725 -1.27312,1.49545 -2.82889,-2.28486 l -1.64478,-3.9966 -1.85399,5.74052 c -2.39648,7.42027 -2.33629,10.82836 0.3943,22.3256 1.55988,6.56794 2.04465,11.12636 1.5832,14.88749 -0.53342,4.34779 -0.0653,7.126 2.36431,14.03336 1.66617,4.7368 3.423,9.2478 3.9041,10.02444 2.19247,3.53944 11.431,4.17762 11.431,0.78964 0,-1.12988 -1.32534,-1.47334 -5.11359,-1.32518 -2.81247,0.11 -5.35581,-0.28444 -5.65186,-0.87654 -0.31885,-0.63771 1.87531,-1.18812 5.38273,-1.35026 4.40196,-0.2035 6.24538,0.16601 7.18539,1.44027 0.69541,0.9427 2.09297,1.55031 3.10568,1.35027 1.54898,-0.306 1.25991,-1.13277 -1.821,-5.20819 -12.03003,-15.91328 -14.5951,-24.45901 -11.18292,-37.25692 1.08803,-4.08083 2.13388,-10.08414 2.32411,-13.34069 l 0.34587,-5.921 -1.51148,3.76791 c -0.83132,2.07235 -1.54834,5.58458 -1.59338,7.80495 -0.0458,2.25608 -0.62327,4.03704 -1.30906,4.03704 -1.85266,0 -0.43713,-10.7657 2.06979,-15.74167 1.15669,-2.29592 3.18747,-7.25871 4.51283,-11.0284 2.01142,-5.72104 2.19166,-7.26149 1.09044,-9.31913 -1.15321,-2.15483 -1.70971,-2.32903 -4.42087,-1.38391 -1.70587,0.59467 -3.10158,1.85738 -3.10158,2.80603 0,1.11093 -0.3706,1.35421 -1.04129,0.68352 -1.79567,-1.79566 -0.0172,-5.8486 2.56635,-5.8486 1.29277,0 2.91961,-0.56911 3.6152,-1.2647 0.96858,-0.96858 1.62056,-0.4184 2.78448,2.34974 l 1.51975,3.61445 2.24677,-4.40405 c 1.23574,-2.42222 2.56375,-6.38627 2.95117,-8.809 0.579,-3.62088 0.39634,-4.40498 -1.02615,-4.40498 -0.95179,0 -2.68136,1.86378 -3.84348,4.14174 -5.16314,10.12059 -14.44621,10.032 -18.31345,-0.17478 -1.43015,-3.77459 -1.49414,-13.68251 -0.11183,-17.31823 0.75416,-1.98361 0.57651,-3.82673 -0.65234,-6.76777 -1.22968,-2.94306 -1.4769,-5.51334 -0.90943,-9.45522 1.73759,-12.06984 0.75828,-23.75504 -1.66917,-19.91663 -1.69541,2.68086 -1.27681,-1.82281 0.48632,-5.23233 1.65833,-3.20684 2.46728,-19.58048 1.16574,-23.59542 -0.48715,-1.50279 -0.34328,-2.42223 0.37901,-2.42223 1.79888,0 3.39308,3.76028 3.39308,8.00332 0,2.11128 0.47794,3.83868 1.0621,3.83868 1.72692,0 4.32062,7.43654 4.32062,12.38792 0,5.86032 2.30963,7.4783 12.08504,8.46601 l 7.24058,0.73158 -2.48584,-2.68227 c -1.4714,-1.58766 -2.48585,-4.02731 -2.48585,-5.9782 0,-4.01403 2.31135,-3.72865 2.38173,0.29406 0.0287,1.64553 1.28832,3.96118 3.03514,5.58007 2.88619,2.67483 3.17227,2.72174 8.56315,1.40383 l 5.57722,-1.36347 0,-5.78015 c 0,-5.05898 -0.31234,-5.89898 -2.50338,-6.73261 -1.73974,-0.66192 -3.17309,-0.48337 -4.6989,0.58535 -1.20754,0.84579 -2.87275,1.27794 -3.70047,0.96032 -0.82772,-0.31763 -2.20218,0.001 -3.05439,0.70842 -1.92018,1.59362 -5.95894,0.44566 -5.95894,-1.69374 0,-1.20286 0.47471,-1.32609 1.98816,-0.51612 1.14008,0.61016 2.40293,0.66165 2.9605,0.12071 0.53478,-0.51881 2.42567,-1.1017 4.20197,-1.29528 2.76843,-0.30172 3.27781,-0.85162 3.56698,-3.85075 0.42503,-4.40823 2.19963,-4.53982 3.06218,-0.22709 0.79033,3.95164 2.35675,3.64638 5.06255,-0.98659 2.34458,-4.01449 2.17128,-4.33052 -3.01618,-5.50048 -4.00404,-0.90305 -10.59105,1.35899 -14.83808,5.09555 -1.6629,1.46303 -2.13973,1.44758 -4.57532,-0.14827 -1.49542,-0.97984 -2.71894,-2.2548 -2.71894,-2.83325 0,-1.43009 1.44991,-1.32429 2.99257,0.21837 1.36574,1.36574 5.2296,-0.0476 9.23158,-3.37676 1.09834,-0.91369 2.30945,-1.66125 2.69137,-1.66125 0.3819,0 0.62863,-1.27999 0.54827,-2.84442 -0.20835,-4.05617 4.24465,-6.45854 6.90628,-3.72592 1.75477,1.80158 1.73894,1.89045 -0.3009,1.68977 -3.92346,-0.38599 -4.65116,0.004 -4.07984,2.18921 0.3201,1.22407 1.46843,2.15309 2.66135,2.15309 1.15407,0 3.10779,0.54026 4.34161,1.20057 2.13654,1.14344 2.21059,1.00255 1.55589,-2.9605 -0.37808,-2.28858 -0.69274,-5.07076 -0.69925,-6.18262 -0.0108,-1.74757 -0.58384,-1.93008 -4.23248,-1.34663 -4.95486,0.79231 -7.62137,0.006 -7.62137,-2.2449 0,-1.118 0.57961,-1.37433 1.88395,-0.83314 1.03618,0.42992 2.48951,0.73406 3.22964,0.67588 0.74012,-0.0582 2.5918,-0.17645 4.11486,-0.2628 1.84036,-0.10432 3.09521,-1.01457 3.74125,-2.71379 1.07926,-2.83863 3.17848,-3.46076 3.17848,-0.94197 0,0.88815 0.48444,1.61481 1.07654,1.61481 0.5921,0 1.07654,0.75931 1.07654,1.68737 0,1.19745 -0.62512,1.48895 -2.15308,1.004 -1.77977,-0.56488 -2.15309,-0.19346 -2.15309,2.1421 0,1.554 0.53502,4.95024 1.18894,7.54719 0.98536,3.91323 0.86884,5.55991 -0.68052,9.61685 -2.42284,6.34412 -1.80286,20.00269 1.05109,23.15628 1.44976,1.60196 1.71517,3.06768 1.15543,6.38073 -0.5352,3.16789 -0.16671,5.56687 1.39864,9.10562 1.16891,2.64251 2.48064,6.42243 2.91494,8.39982 0.43431,1.97739 1.52045,4.71058 2.41365,6.07377 1.45554,2.22145 1.44704,2.61391 -0.0819,3.7837 -1.48739,1.13796 -1.56518,2.61538 -0.60722,11.53235 0.60429,5.62495 1.02215,11.68051 0.92857,13.45681 -0.38441,7.29695 -0.11855,18.03461 0.78815,31.83123 l 0.95991,14.6065 6.75939,6.65526 c 4.45721,4.38855 7.62975,6.65525 9.31488,6.65525 2.23556,0 6.97488,3.63642 6.92906,5.31659 -0.0871,3.19141 -7.85643,6.63949 -13.60984,6.04008 -2.27517,-0.23703 -5.95199,-1.19963 -8.17073,-2.13911 -2.69921,-1.14293 -5.45433,-1.48103 -8.32632,-1.02178 -3.09334,0.49464 -5.04873,0.1907 -7.00052,-1.08817 -3.21978,-2.10967 -3.45049,-5.43916 -1.07507,-15.51497 1.90762,-8.09159 1.25021,-13.74518 -2.46086,-21.16263 -2.4616,-4.92013 -2.61848,-6.10365 -1.9619,-14.80118 0.3997,-5.29475 0.27418,-10.28279 -0.28532,-11.33871 -0.54942,-1.0369 -1.2304,-3.6292 -1.51329,-5.76067 -0.62122,-4.68074 -5.9538,-14.14115 -7.65252,-13.57617 -0.66887,0.22247 -1.55958,3.13041 -1.97936,6.4621 -0.41977,3.33169 -1.85367,8.13617 -3.18642,10.67664 -4.30465,8.20542 -5.31724,11.97641 -5.86551,21.84373 -0.29608,5.3289 -1.54202,12.96657 -2.76875,16.97262 -3.3058,10.79563 -2.44717,21.24357 2.38032,28.96403 1.97317,3.15563 4.43844,6.7064 5.47839,7.89059 5.36907,6.11382 5.86661,12.38027 0.98296,12.38027 -1.12843,0 -2.35108,0.48445 -2.71702,1.07655 -1.08507,1.75568 -10.49845,1.18413 -13.76977,-0.83606 z m 69.31992,-23.453 c 1.84049,-1.13749 -0.41587,-3.51923 -3.96467,-4.18499 -4.41958,-0.82912 -16.73666,-13.00185 -17.81609,-17.60731 -0.37401,-1.59579 -0.74918,-6.777 -0.83372,-11.5138 -0.0845,-4.73679 -0.63853,-10.71486 -1.23111,-13.28458 -0.74078,-3.21237 -0.69984,-7.50963 0.13103,-13.75322 1.5262,-11.46875 0.90472,-13.63034 -2.77675,-9.65796 -2.16566,2.33679 -3.05139,2.66345 -4.75277,1.7529 -2.08449,-1.11558 -4.00402,-5.09585 -2.96069,-6.13918 0.30214,-0.30213 1.09008,0.46104 1.75099,1.69595 1.66991,3.12027 4.19668,2.80327 5.52606,-0.6933 0.61449,-1.61621 1.54746,-3.20447 2.07328,-3.52944 0.52581,-0.32497 0.66865,-3.37518 0.31743,-6.77825 -0.59091,-5.72528 -0.77451,-6.06441 -2.4583,-4.5406 -1.00083,0.90574 -4.09818,2.42317 -6.883,3.37204 -4.17156,1.4214 -5.62525,1.49248 -8.25399,0.40362 -4.77201,-1.97663 -3.85273,-3.18714 1.92291,-2.53209 4.48437,0.50862 5.77593,0.14656 10.49632,-2.9423 2.9605,-1.93724 5.4954,-3.58523 5.63314,-3.66218 0.28461,-0.15901 -1.0529,-4.40763 -4.57458,-14.53128 -1.66119,-4.77539 -2.26534,-8.45049 -1.90244,-11.57286 0.4304,-3.70319 0.2024,-4.57531 -1.19613,-4.57531 -0.95034,0 -1.7279,0.46568 -1.7279,1.03484 0,1.62212 -10.55974,4.34788 -16.84397,4.34788 -4.59966,0 -5.90976,0.41489 -6.84843,2.16881 -1.39838,2.6129 -9.59498,7.97941 -10.58961,6.93327 -0.38814,-0.40824 0.24443,-1.29098 1.4057,-1.96166 1.16126,-0.67069 3.52946,-2.58146 5.26264,-4.24617 3.2318,-3.10411 2.97384,-4.57793 -0.91477,-5.22651 -1.63451,-0.27261 -2.40118,0.4836 -3.18313,3.13967 -1.03151,3.50382 -2.73787,4.77809 -2.73787,2.0446 0,-2.07073 2.24202,-8.23473 2.99519,-8.23473 0.3473,0 3.52573,0.81209 7.06314,1.80463 5.51068,1.54622 7.50194,1.62112 13.90551,0.52302 4.1106,-0.70489 8.51481,-2.04627 9.78712,-2.98085 2.16878,-1.59309 2.17879,-1.66339 0.16021,-1.12537 -10.17858,2.71292 -12.2591,2.95076 -19.78568,2.2618 -4.51247,-0.41306 -9.4156,-1.35391 -10.89585,-2.09077 -2.29432,-1.14211 -2.9854,-1.05404 -4.68452,0.59702 -2.17555,2.114 -2.36691,3.88845 -1.39701,12.95457 0.35438,3.31269 0.18874,7.61165 -0.36811,9.55326 -0.96123,3.35161 -0.91472,3.44175 0.9194,1.78189 1.96104,-1.77471 6.13304,-2.27563 9.18832,-1.10322 3.37861,1.29651 6.33237,7.8983 6.45334,14.42353 0.0991,5.34039 0.36226,6.11254 1.81911,5.33539 2.70833,-1.44474 3.99977,-3.47766 4.39151,-6.91293 0.295,-2.58676 1.0626,-3.39446 4.0301,-4.24065 2.20724,-0.6294 4.34884,-2.24652 5.38273,-4.0645 1.80254,-3.16961 3.35831,-3.96652 3.29369,-1.68715 -0.0857,3.02129 -3.12664,6.5988 -6.54964,7.70517 -4.04739,1.3082 -5.40533,4.94689 -2.81345,7.53878 3.75217,3.75217 8.40464,12.60473 9.40971,17.9045 0.60504,3.19035 1.57732,6.27789 2.16062,6.86119 1.33487,1.33487 1.38574,5.68461 0.0759,6.49409 -0.54152,0.33469 -1.27199,-5e-5 -1.62325,-0.74387 -1.94392,-4.11634 0.65073,14.48752 2.64563,18.96937 2.42835,5.45568 2.44497,6.59005 0.39237,26.77708 -0.69866,6.87118 -1.08288,6.55937 7.66867,6.22369 2.38199,-0.0914 5.77311,0.41484 7.53581,1.12491 7.01883,2.82734 12.61504,2.95734 16.7698,0.38956 z m -29.13693,-9.01306 c -1.54601,-2.88877 -1.39454,-6.53005 0.27165,-6.53005 0.87075,0 1.4499,1.60094 1.55777,4.30618 0.19177,4.80897 -0.19457,5.2786 -1.82942,2.22387 z m -29.10458,-93.73019 c 0,-0.59209 1.33222,-1.11254 2.9605,-1.15654 1.62827,-0.044 3.92938,-0.23486 5.11358,-0.42412 1.1842,-0.18927 4.81754,-0.63925 8.07409,-0.99995 3.25655,-0.3607 7.13211,-0.96001 8.61236,-1.3318 2.42893,-0.61005 2.53391,-0.50874 1.07655,1.03903 -2.38744,2.53555 -25.83708,5.14343 -25.83708,2.87338 z m 7.53581,-3.24832 c 0,-1.13134 3.00787,-2.96195 9.15063,-5.56915 5.45903,-2.31698 2.16132,-2.50255 -5.92099,-0.33316 -6.78772,1.8219 -8.9817,2.00682 -8.16683,0.68834 0.6548,-1.0595 10.7994,-3.94816 17.58659,-5.00776 4.16816,-0.65072 4.57532,-0.51125 4.57532,1.56723 0,1.25482 -0.84778,2.5645 -1.88395,2.91038 -1.03618,0.34589 -4.91174,2.00079 -8.61236,3.67756 -3.70063,1.67678 -6.72841,2.60673 -6.72841,2.06656 z m -12.49009,34.89959 c 2.6161,-1.0039 5.76836,-6.93124 6.56794,-12.35 0.95251,-6.45511 -0.9468,-13.23771 -4.4866,-16.02212 -2.72858,-2.14631 -2.92658,-2.15702 -6.04243,-0.32686 -5.33695,3.13479 -7.41268,8.20942 -7.01002,17.13771 0.46957,10.41184 4.07246,14.20852 10.97111,11.56127 z m -9.96672,-34.50567 c -0.31447,-6.85423 -0.58523,-7.94123 -1.43425,-5.75795 -0.57563,1.48024 -0.74668,4.87136 -0.38012,7.53581 0.36657,2.66445 0.72938,5.4287 0.80626,6.14278 0.0769,0.71408 0.42237,1.12515 0.76777,0.9135 0.34539,-0.21166 0.45354,-4.18702 0.24034,-8.83414 z m 3.06252,-28.21552 c -0.0155,-5.72384 -1.29627,-9.96142 -2.61276,-8.64494 -1.9273,1.92731 -3.23426,10.4577 -2.26594,14.78956 l 1.04608,4.67968 1.92455,-2.37672 c 1.34592,-1.66213 1.9196,-4.20198 1.90807,-8.44758 z m -3.21315,135.21162 c 0,-1.12565 3.47033,-7.27434 4.44598,-7.87732 2.05285,-1.26874 2.10644,0.37964 0.12748,3.92195 -1.6763,3.0006 -4.57346,5.50621 -4.57346,3.95537 z m 7.53581,-56.31438 c 0,-1.00252 0.73245,-1.55171 1.79474,-1.34568 2.70081,0.52379 3.07165,3.03943 0.44806,3.03943 -1.32235,0 -2.2428,-0.69511 -2.2428,-1.69375 z m -27.99017,-20.12581 c -3.44537,-1.70706 -7.53581,-9.78161 -7.53581,-14.87572 0,-5.3962 2.75094,-12.74659 6.06519,-16.20593 2.612,-2.72634 2.76521,-3.54815 3.01337,-16.16343 0.21647,-11.00473 -0.10055,-14.25269 -1.84306,-18.88139 -1.89451,-5.03253 -1.97078,-6.26786 -0.76435,-12.38027 0.73708,-3.73446 1.65641,-9.93881 2.04293,-13.78746 0.87031,-8.66566 1.93294,-10.5991 7.69171,-13.99508 2.51015,-1.48025 6.79408,-4.6439 9.51982,-7.03033 7.99263,-6.99764 8.90312,-7.60808 8.05636,-5.40144 -0.98653,2.57083 -10.0662,10.91967 -15.8971,14.61752 -6.52781,4.13981 -7.49933,6.29775 -6.60311,14.6666 0.56962,5.31902 0.42485,6.82272 -0.63468,6.59211 -2.40827,-0.52416 -3.31158,9.68462 -1.37934,15.58864 0.99878,3.05179 2.13839,4.83634 2.81963,4.41531 0.76221,-0.47107 0.90757,0.3336 0.43608,2.41388 -1.91585,8.45286 -1.98023,19.47761 -0.16144,27.64805 1.0259,4.60864 1.60753,9.36502 1.2925,10.56971 -0.31503,1.2047 -0.16243,3.48954 0.33912,5.07744 0.50155,1.5879 1.21185,4.69519 1.57843,6.90507 0.55966,3.37379 1.20849,4.15842 4.04686,4.89391 1.8592,0.48177 3.59929,1.53277 3.86689,2.33557 0.65053,1.95159 -5.92131,0.69747 -8.48023,-1.61832 -2.1515,-1.94709 -3.51326,-10.23006 -4.13256,-25.13675 -0.10647,-2.56227 -0.13102,-2.56786 -2.37088,-0.54082 -9.18746,8.31455 -7.14836,28.4287 2.882,28.4287 2.43312,0 2.66877,0.248 1.5344,1.61482 -1.61105,1.9412 -1.93796,1.95636 -5.38273,0.24961 z m 90.5086,-8.05456 c -1.27203,-1.03617 -2.98428,-3.82173 -3.80498,-6.19013 -1.00132,-2.88964 -2.05042,-4.20212 -3.18919,-3.98985 -0.93335,0.17398 -1.69701,-0.18935 -1.69701,-0.80741 0,-0.61806 -0.75391,-1.12374 -1.67535,-1.12374 -2.57122,0 -6.00033,-8.70073 -5.15006,-13.06735 0.38759,-1.9905 1.16569,-3.92249 1.7291,-4.29329 1.86564,-1.22787 -0.39588,-9.38515 -3.873,-13.96988 -5.80277,-7.65116 -8.63863,-13.88437 -6.31684,-13.88437 0.47412,0 1.91911,2.05889 3.21109,4.57532 1.29199,2.51642 3.86618,6.3558 5.72042,8.53194 3.97663,4.66698 5.14986,11.41876 3.19649,18.39549 -1.44763,5.17044 -0.0469,9.32717 4.12845,12.25173 2.09895,1.47016 2.25976,1.40622 2.26534,-0.90078 0.0108,-4.44832 2.1715,-10.42118 4.97551,-13.75356 1.51014,-1.79468 2.27079,-3.26306 1.69034,-3.26306 -1.23339,0 -4.51877,-7.74195 -4.51877,-10.64841 0,-3.84332 -7.47327,-26.28796 -9.49999,-28.53152 -1.12638,-1.24687 -2.62169,-3.23594 -3.32293,-4.42014 -1.16426,-1.96614 -1.20976,-1.91939 -0.52401,0.53827 1.44865,5.19172 0.19863,14.64549 -1.77519,13.42561 -0.53461,-0.33041 -0.67949,-2.73501 -0.32195,-5.34356 0.43937,-3.20552 0.0817,-6.1634 -1.10355,-9.12557 -0.9645,-2.41053 -1.75364,-5.09964 -1.75364,-5.97581 0,-2.59441 1.64807,-1.81923 2.9073,1.36747 l 1.16983,2.9605 0.11453,-2.99508 c 0.063,-1.64728 -0.61215,-4.73423 -1.5003,-6.85987 -0.88815,-2.12565 -1.61482,-5.54909 -1.61482,-7.60768 0,-5.80378 -2.78278,-10.50616 -7.57608,-12.80217 -4.39363,-2.10456 -5.492,-3.64636 -2.59763,-3.64636 2.85679,0 7.61521,2.98882 9.61323,6.03819 1.05179,1.60522 2.30886,5.62665 2.79348,8.93651 1.67319,11.42743 5.14788,21.87596 8.29966,24.95742 2.18088,2.1322 3.78757,5.79577 5.93077,13.52338 1.61675,5.82941 2.94453,11.81003 2.95061,13.29028 0.006,1.48025 0.94563,4.75026 2.08787,7.26668 1.84426,4.06299 2.48189,4.57532 5.69436,4.57532 6.57638,0 10.48281,5.65545 10.48281,15.17629 0,13.39703 -9.82019,23.35656 -17.1459,17.38919 z m 8.4105,-2.0266 c 7.63571,-5.34826 8.68098,-23.39721 1.62283,-28.02189 -2.53748,-1.66262 -2.87364,-1.64126 -5.59846,0.35584 -4.96523,3.63916 -6.82867,8.55155 -6.41223,16.9039 0.32466,6.51184 0.72494,7.70284 3.34677,9.95804 3.53617,3.04168 3.803,3.07216 7.04109,0.80411 z m -90.72053,-12.83971 c -0.85084,-2.21725 0.0366,-3.4353 1.46346,-2.0085 0.55757,0.55758 0.61691,1.6559 0.13186,2.44072 -0.69298,1.12128 -1.03472,1.02869 -1.59532,-0.43222 z m 5.88374,-1.38802 c -1.39663,-2.60964 -1.53483,-6.62225 -0.22808,-6.62225 0.94376,0 2.58584,7.60277 1.80972,8.3789 -0.22983,0.22982 -0.94157,-0.56066 -1.58164,-1.75665 z m 66.65856,-16.91296 c 0,-0.9231 0.48445,-1.37895 1.07655,-1.01301 0.5921,0.36594 1.07654,1.1212 1.07654,1.67835 0,0.55716 -0.48444,1.01301 -1.07654,1.01301 -0.5921,0 -1.07655,-0.75526 -1.07655,-1.67835 z m -13.99508,-1.38443 c 0,-1.42795 4.23883,-4.89924 5.02388,-4.11419 0.38747,0.38748 -0.17502,1.67636 -1.25,2.86419 -2.03113,2.24437 -3.77388,2.8216 -3.77388,1.25 z m -56.2719,-11.58272 c -0.43175,-0.43174 -0.78498,-1.52779 -0.78498,-2.43568 0,-1.21175 0.31847,-1.33223 1.19766,-0.45304 0.6587,0.65871 1.01195,1.75476 0.78498,2.43568 -0.22698,0.68091 -0.76592,0.88479 -1.19766,0.45304 z m 41.4689,-5.00144 c 0.24643,-0.74013 1.36139,-1.52267 2.47767,-1.73899 1.75595,-0.34027 1.83502,-0.15883 0.58638,1.34568 -1.70761,2.05756 -3.70347,2.31374 -3.06405,0.39331 z m -23.02595,-6.09747 c -1.39782,-1.13323 -2.23813,-2.3651 -1.86736,-2.7375 0.95165,-0.95582 8.50427,2.80552 7.82859,3.89878 -0.91616,1.48239 -3.26461,1.0249 -5.96123,-1.16128 z m -26.02773,-2.24576 c -1.40055,-4.06634 -1.76629,-7.53581 -0.79441,-7.53581 1.93184,0 3.32894,4.01345 2.31428,6.64822 -0.7201,1.86988 -1.10427,2.09423 -1.51987,0.88759 z m 31.2469,-0.67228 c -1.59951,-1.59951 -0.64208,-2.55735 2.55623,-2.55735 2.17415,0 3.16645,0.46427 2.87617,1.34568 -0.50268,1.5264 -4.27604,2.36802 -5.4324,1.21167 z m -10.81086,-4.3516 c -1.49815,-1.49815 -0.60642,-2.25439 2.47553,-2.09939 1.75629,0.0883 3.79096,0.75831 4.5215,1.48884 1.0533,1.0533 0.54086,1.32825 -2.47554,1.32825 -2.0921,0 -4.12677,-0.32296 -4.52149,-0.7177 z m 1.16625,-4.72206 c -2.09643,-1.25355 -2.52414,-4.80296 -0.71361,-5.92193 0.6437,-0.39783 1.70948,-0.1842 2.3684,0.47473 0.87971,0.87971 0.85479,1.19806 -0.0938,1.19806 -0.71052,0 -1.29185,0.48444 -1.29185,1.07654 0,0.5921 1.42474,1.07655 3.1661,1.07655 1.74135,0 3.4655,0.48444 3.83144,1.07654 0.36594,0.5921 0.27342,1.08316 -0.2056,1.09124 -0.47902,0.009 -1.83983,0.24872 -3.02403,0.53473 -1.1842,0.28602 -3.00087,0.0131 -4.03705,-0.60646 z m 15.09463,-1.6281 c -0.83297,-1.35413 6.07846,-9.46932 7.6236,-8.95141 0.68645,0.23009 -0.57991,2.50012 -2.89167,5.1835 -2.26214,2.62578 -4.3915,4.32134 -4.73193,3.76791 z m -29.69593,-4.50499 c 0.20052,-1.05205 1.54136,-2.05126 3.03649,-2.26285 2.65557,-0.37581 2.66071,-0.36045 0.62955,1.88396 -2.49222,2.75387 -4.15137,2.92534 -3.66604,0.37889 z m 15.69558,-3.40981 c -4.59196,-4.10291 -3.29845,-5.27813 1.91519,-1.74005 4.15538,2.81991 6.84125,2.83295 10.17821,0.0494 0.88815,-0.74084 3.06815,-1.82545 4.84445,-2.41021 3.07951,-1.01379 3.21873,-1.32057 2.9951,-6.59975 -0.26943,-6.3599 1.12081,-7.23811 2.90414,-1.83455 1.66068,5.03191 -0.70236,9.65452 -5.79441,11.33504 -2.03528,0.67171 -4.28302,1.92317 -4.99498,2.78104 -2.22462,2.68049 -8.14833,1.90317 -12.0477,-1.58092 z m 0.86228,-22.44439 c -1.35533,-1.35532 -0.42628,-2.20012 3.15924,-2.87277 l 3.77011,-0.70728 -1.61702,-3.12698 c -0.88937,-1.71983 -1.60625,-3.75659 -1.59309,-4.52611 0.0343,-2.00967 4.22959,3.63538 4.2583,5.72994 0.0278,2.0247 8.33597,3.82904 9.99445,2.17056 2.14013,-2.14013 -0.31361,-5.2842 -5.05594,-6.47832 -4.37577,-1.10184 -10.29729,-6.17666 -10.29729,-8.82493 0,-0.54667 -0.46925,-0.99394 -1.04277,-0.99394 -0.5735,0 -0.79824,0.63719 -0.49939,1.41596 0.29885,0.77878 0.0721,2.59545 -0.50383,4.03704 -0.92256,2.3092 -1.05529,2.05472 -1.11541,-2.1386 -0.0379,-2.6442 -0.79036,-5.55762 -1.69296,-6.55498 -2.62265,-2.898 -2.50228,-14.41763 0.18854,-18.04377 4.38446,-5.90852 15.72515,-6.97805 21.47561,-2.02536 3.75006,3.2298 5.62016,15.13608 3.86217,24.58915 -0.68213,3.66803 -1.06617,6.8432 -0.85343,7.05596 0.21276,0.21275 1.7655,0.49279 3.45054,0.62231 2.45909,0.18901 3.10631,0.78954 3.27952,3.04296 0.19317,2.51331 -0.23882,2.86846 -4.12284,3.38941 -2.39977,0.32188 -5.27168,1.58347 -6.42657,2.8231 -2.40863,2.58537 -2.42428,2.58787 -7.34819,1.17571 -2.27494,-0.65244 -5.06092,-0.69386 -7.18697,-0.1068 -1.90955,0.52726 -3.7468,0.68375 -4.08278,0.34777 z m 23.07311,-7.78783 c -2.08716,-1.34883 -3.22963,-1.34883 -3.22963,0 0,0.5921 1.09,1.06912 2.42222,1.06006 1.95871,-0.0134 2.11322,-0.21619 0.80741,-1.06006 z m -3.29022,-6.34606 c 3.6902,-6.89521 1.9399,-24.66928 -2.73066,-27.72955 -3.86206,-2.53053 -12.77982,-1.47279 -16.01534,1.89957 -3.30643,3.44629 -4.43521,8.31619 -2.1324,9.19987 1.18442,0.4545 1.52458,1.44456 1.0905,3.17405 -0.4945,1.97023 0.42666,3.6172 4.26175,7.61972 7.12961,7.44087 13.40497,9.7998 15.52615,5.83634 z"
       id="path3018"
       inkscape:connector-curvature="0" />
  </g>
</svg>
