<?xml version="1.0" encoding="UTF-8" standalone="no"?>
<!-- Created with Inkscape (http://www.inkscape.org/) -->

<svg
   xmlns:dc="http://purl.org/dc/elements/1.1/"
   xmlns:cc="http://creativecommons.org/ns#"
   xmlns:rdf="http://www.w3.org/1999/02/22-rdf-syntax-ns#"
   xmlns:svg="http://www.w3.org/2000/svg"
   xmlns="http://www.w3.org/2000/svg"
   xmlns:sodipodi="http://sodipodi.sourceforge.net/DTD/sodipodi-0.dtd"
   xmlns:inkscape="http://www.inkscape.org/namespaces/inkscape"
   width="159.61734"
   height="226.43181"
   id="svg2"
   version="1.1"
   inkscape:version="0.48.3.1 r9886"
   sodipodi:docname="Bicep-curl-1.svg">
  <defs
     id="defs4" />
  <sodipodi:namedview
     id="base"
     pagecolor="#ffffff"
     bordercolor="#666666"
     borderopacity="1.0"
     inkscape:pageopacity="0.0"
     inkscape:pageshadow="2"
     inkscape:zoom="2.8"
     inkscape:cx="184.83539"
     inkscape:cy="118.23697"
     inkscape:document-units="px"
     inkscape:current-layer="layer1"
     showgrid="false"
     fit-margin-top="0"
     fit-margin-left="0"
     fit-margin-right="0"
     fit-margin-bottom="0"
     inkscape:window-width="1855"
     inkscape:window-height="1056"
     inkscape:window-x="65"
     inkscape:window-y="24"
     inkscape:window-maximized="1" />
  <metadata
     id="metadata7">
    <rdf:RDF>
      <cc:Work
         rdf:about="">
        <dc:format>image/svg+xml</dc:format>
        <dc:type
           rdf:resource="http://purl.org/dc/dcmitype/StillImage" />
        <dc:title></dc:title>
      </cc:Work>
    </rdf:RDF>
  </metadata>
  <g
     inkscape:label="Ebene 1"
     inkscape:groupmode="layer"
     id="layer1"
     transform="translate(-592.91504,-622.30466)">
    <path
       style="fill:#000000"
       d="m 676.7519,848.29599 c -4.01012,-1.21504 -7.6193,-4.87 -7.6193,-7.71595 0,-1.31528 -0.52772,-3.37434 -1.17272,-4.57568 -1.49026,-2.77569 -1.87305,-6.20865 -1.80463,-16.18426 0.0701,-10.22544 -1.75356,-15.88496 -5.25418,-16.30555 -2.02886,-0.24376 -5.29606,-4.14506 -16.15581,-19.29131 l -13.61266,-18.98576 0,-8.76169 c 0,-8.21659 -0.19202,-9.0228 -3.08651,-12.95869 -1.69758,-2.30835 -3.17799,-4.197 -3.2898,-4.197 -0.1118,0 -0.0737,7.00272 0.0846,15.5616 l 0.28789,15.5616 15.61196,19.95171 c 14.73968,18.83696 15.85724,20.01348 20.00191,21.05712 2.41447,0.60797 4.38995,1.51055 4.38995,2.00574 0,0.97727 -3.9068,0.24945 -8.18366,-1.52459 -2.65966,-1.10322 -32.12626,-37.80017 -33.22074,-41.37225 -0.29338,-0.95751 -0.53028,-6.69093 -0.52646,-12.74093 0.009,-14.03504 -0.71597,-22.54684 -2.03216,-23.86302 -0.71597,-0.71597 -1.03698,-0.084 -1.03698,2.04138 0,2.77876 -0.40776,3.18186 -4.18965,4.14181 -2.3043,0.58489 -4.5543,0.83807 -5,0.56262 -0.44569,-0.27545 -0.81035,-14.39875 -0.81035,-31.3851 0,-30.78132 0.007,-30.88947 2.22251,-32.44099 2.54823,-1.78485 6.35486,-2.04955 7.3075,-0.50814 1.00836,1.63156 3.46999,-0.91305 3.46999,-3.58698 0,-2.21774 -4.80528,-6.84837 -9.5,-9.15472 -2.15854,-1.06041 -16.72223,0.58192 -18.1915,2.05144 -0.44467,0.44475 -0.64842,21.58358 -0.45277,46.97517 l 0.35574,46.16653 4.14426,5.72736 c 2.27935,3.15004 4.84488,5.96529 5.70118,6.2561 0.85629,0.29081 4.86976,-0.59803 8.91882,-1.9752 4.04905,-1.37718 7.58594,-2.27992 7.85976,-2.00611 0.77124,0.77125 0.20619,1.03425 -8.27079,3.84959 -9.43618,3.13391 -10.08257,2.89857 -16.12136,-5.86948 l -3.94265,-5.72455 -0.35912,-47.2654 -0.35913,-47.26541 3.35878,-1.05546 c 1.84733,-0.5805 6.4244,-1.36199 10.17126,-1.73664 6.68601,-0.66853 6.91167,-0.61286 12.15589,2.99897 2.93887,2.02408 5.60177,4.70954 5.91754,5.96769 0.53487,2.13107 0.90039,2.23385 5.34411,1.50265 2.62349,-0.43169 5.23989,-0.81171 5.81422,-0.8445 0.57433,-0.0328 2.97457,-1.85961 5.33385,-4.05961 2.38506,-2.22403 5.25137,-3.97389 6.45576,-3.94119 2.11692,0.0575 2.12124,0.0859 0.19018,1.25 -4.70266,2.83493 -8.38304,7.4358 -9.0091,11.26232 -0.35355,2.16088 -1.28904,5.74392 -2.07887,7.9623 -1.74473,4.9004 -1.84243,9.84816 -0.2524,12.78231 0.69512,1.28275 1.26633,7.3434 1.38396,14.68426 0.23639,14.75245 1.29035,19.12125 5.90924,24.49469 2.7392,3.18668 3.68552,3.74293 4.67845,2.75 0.68458,-0.68458 0.80284,-1.24469 0.2628,-1.24469 -0.54004,0 -1.06825,-1.2375 -1.1738,-2.75 -0.18319,-2.62519 -0.12501,-2.6619 1.2819,-0.80887 0.81058,1.06762 1.47379,2.30512 1.47379,2.75 0,0.44488 0.675,0.80887 1.5,0.80887 2.37214,0 1.74397,1.82625 -0.75,2.18045 -1.7589,0.2498 -2.25,0.97045 -2.25,3.30166 0,2.10809 -0.5438,3.08807 -1.85542,3.34363 -1.61734,0.31512 -1.43485,0.79544 1.42222,3.74318 3.14635,3.24621 3.2407,3.5729 2.35542,8.15637 -0.88143,4.56355 -1.08201,4.78807 -4.53525,5.07691 -3.37998,0.28271 -3.90315,-0.0882 -8.11104,-5.75075 l -4.49802,-6.05295 -0.56024,6.1785 -0.56025,6.17849 13.25866,18.57225 c 14.65155,20.52338 17.16288,22.61495 17.24986,14.36661 0.0278,-2.63689 1.05742,-7.63015 2.28803,-11.09614 3.33302,-9.38733 3.23358,-17.29801 -0.30811,-24.51074 -3.02598,-6.16248 -3.10569,-7.95805 -0.21132,-4.7598 2.66236,2.94188 4.47105,8.95137 4.53635,15.07233 0.0323,3.025 0.73697,8.37755 1.566,11.89455 1.65833,7.03511 1.34134,9.29654 -0.51478,3.67245 -0.64747,-1.96185 -1.51014,-3.567 -1.91704,-3.567 -0.9434,0 -4.10507,9.95179 -4.10507,12.92128 0,1.23502 0.94549,5.92047 2.1011,10.41211 1.47749,5.74276 1.94804,9.90399 1.58542,14.02032 -0.38033,4.31732 0.004,7.33566 1.46526,11.5 1.08952,3.10546 2.30385,6.99629 2.69853,8.64629 1.00772,4.21298 6.87942,7.3998 10.55144,5.72672 4.21726,-1.92151 3.01963,-3.22672 -2.96077,-3.22672 -6.90379,0 -6.37748,-1.69508 0.57495,-1.85171 3.6275,-0.0817 5.22109,0.3058 5.62902,1.36885 0.61433,1.60091 4.35505,2.08144 4.35505,0.55946 0,-0.50788 -1.56867,-2.97848 -3.48594,-5.49023 -7.36653,-9.65068 -9.82735,-15.2659 -10.28746,-23.47441 -0.34167,-6.09532 -0.008,-8.66537 1.67336,-12.89898 2.13508,-5.37524 2.91949,-14.83746 1.13877,-13.73692 -0.5287,0.32676 -1.23402,2.26581 -1.56739,4.30902 -1.28714,7.88877 -1.66097,9.21576 -2.45753,8.72346 -1.73761,-1.07391 0.658,-11.13763 3.92977,-16.50854 3.65009,-5.99198 5.24406,-18.90204 2.88133,-23.33698 -1.06492,-1.99891 -1.01764,-2.05185 0.62323,-0.69774 0.97657,0.80591 2.14672,2.38091 2.60034,3.5 0.64089,1.58114 0.8367,1.14304 0.87836,-1.96528 0.0544,-4.06072 -4.00782,-14.29553 -6.23636,-15.71246 -2.99955,-1.90714 -7.82794,-0.78422 -11.00763,2.55999 -4.32328,4.54698 -6.7257,5.65247 -12.28377,5.65247 -5.95305,0 -5.20135,-0.9762 1.15024,-1.49376 6.65094,-0.54197 9.0044,-3.00497 7.78761,-8.15008 -0.61519,-2.60131 -1.54322,-3.96453 -2.87284,-4.22006 -3.82433,-0.73495 -6.57685,-2.14463 -6.00242,-3.07408 0.34462,-0.55761 2.04294,-0.3313 4.16376,0.55484 2.093,0.87451 4.7644,1.23679 6.42707,0.87161 2.21201,-0.48584 3.13282,-0.16459 4.13696,1.4433 0.7104,1.13752 2.05683,2.06823 2.99207,2.06823 0.93524,0 2.00109,0.48646 2.36855,1.08103 0.36746,0.59456 1.71111,0.81925 2.98589,0.4993 1.7191,-0.43147 2.83926,0.0812 4.33671,1.98494 l 2.01894,2.56667 2.37725,-3.81597 c 1.30748,-2.09878 2.66809,-4.60438 3.02358,-5.568 0.35548,-0.96361 3.37477,-3.51549 6.70952,-5.67085 3.33475,-2.15535 5.71102,-4.1221 5.28061,-4.37056 -0.43042,-0.24845 -2.92008,-0.76164 -5.53258,-1.14042 -2.6125,-0.37878 -4.75,-1.11111 -4.75,-1.62741 0,-1.29249 1.37637,-1.18848 8.75263,0.66142 3.50923,0.88008 6.64354,1.33701 6.96515,1.01541 0.3216,-0.32161 -1.44721,-2.75705 -3.9307,-5.4121 -6.10806,-6.53001 -7.22789,-8.89021 -10.29754,-21.70346 -0.6456,-2.69484 -0.80162,-2.79656 -1.53384,-1 -1.88097,4.61514 -0.55878,21.5 1.68359,21.5 0.74839,0 1.36071,0.483 1.36071,1.07332 0,1.86625 -3.40186,0.50506 -4.56414,-1.82625 -0.61291,-1.22937 -1.36688,-1.98272 -1.67549,-1.6741 -0.30862,0.30861 -2.99483,1.12685 -5.96936,1.8183 -4.2634,0.99106 -7.15554,1.00588 -13.66257,0.07 -4.53988,-0.65294 -8.76601,-1.69885 -9.39139,-2.32423 -1.36965,-1.36965 -3.0917,-1.51991 -2.27504,-0.19851 0.31903,0.5162 -0.0258,1.3037 -0.76639,1.75 -0.74054,0.4463 -1.6606,1.66337 -2.04457,2.70459 -0.38397,1.04122 -0.97349,1.61776 -1.31005,1.28121 -0.33655,-0.33656 0.0438,-1.63847 0.84532,-2.89313 1.85915,-2.91037 2.30322,-11.76786 0.81592,-16.27442 -1.57166,-4.76219 -0.67057,-6.96163 2.95551,-7.21398 1.63742,-0.11395 3.24334,0.22355 3.56871,0.75 0.33576,0.54328 -0.99788,0.9572 -3.08407,0.9572 -3.34327,0 -3.61518,0.20346 -3.0069,2.25 0.36781,1.2375 0.89822,4.05 1.17868,6.25 0.94925,7.44609 1.24967,8.0494 4.60133,9.24051 1.80648,0.64199 6.6595,1.45639 10.7845,1.8098 6.02301,0.51601 8.48466,0.27362 12.5,-1.23079 l 5,-1.87334 0.70419,-8.47309 c 0.38731,-4.6602 0.98185,-10.49809 1.32122,-12.97309 0.33937,-2.475 0.16483,-6.49256 -0.38787,-8.92791 -0.80585,-3.55086 -0.68899,-5.03642 0.58998,-7.5 0.99594,-1.9184 1.76575,-2.56563 2.04988,-1.72348 0.25026,0.74174 -0.10181,2.38904 -0.78237,3.66067 -0.93776,1.75223 -0.97713,3.48382 -0.16257,7.15139 0.59115,2.66163 1.40658,6.86433 1.81209,9.33933 0.87454,5.33785 0.73273,4.79924 2.18924,8.3151 0.64142,1.5483 1.16621,3.8557 1.16621,5.12755 0,1.27186 0.65757,2.8582 1.46127,3.52521 0.8037,0.66701 1.7358,2.07769 2.07132,3.13483 0.85839,2.70454 9.61418,10.84621 11.69436,10.87413 2.56383,0.0344 5.40291,4.80167 4.09383,6.87417 -0.81778,1.29469 -0.31955,2.5306 2.31882,5.752 5.91509,7.22222 3.59359,7.14286 -3.10694,-0.10621 -6.2999,-6.81564 -6.59317,-6.99678 -11.32784,-6.99678 -3.80422,0 -5.6734,0.62003 -8.60106,2.85306 -2.0573,1.56918 -4.25436,4.04418 -4.88234,5.5 -0.62798,1.45582 -1.98092,3.76299 -3.00653,5.12706 -1.83315,2.43809 -1.82838,2.50956 0.28154,4.21807 1.18045,0.95588 3.77051,2.04266 5.75568,2.41508 1.98516,0.37242 8.14055,3.05522 13.67864,5.96178 8.36747,4.3915 10.12273,5.71902 10.38567,7.8548 0.17403,1.41358 -0.16347,2.57015 -0.75,2.57015 -0.58653,0 -1.06642,-0.56971 -1.06642,-1.26602 0,-1.3807 -8.13353,-7.03221 -11.75,-8.16437 -3.47283,-1.0872 -2.72134,0.83464 2.32986,5.95838 2.51892,2.5551 4.30948,4.916 3.97903,5.24645 -0.33045,0.33045 -2.52092,-1.28361 -4.86771,-3.58681 -4.18442,-4.10669 -5.94011,-4.79681 -9.10939,-3.58064 -2.88528,1.10719 -1.65715,3.11318 6.29482,10.28177 l 7.87661,7.10066 0.45858,-5.5299 c 0.25222,-3.04145 1.0105,-6.07657 1.68506,-6.74471 0.96776,-0.95855 1.0961,-0.16008 0.60839,3.78519 -0.33995,2.75 -0.11434,7.25 0.50135,10 2.08464,9.31109 2.31585,16.21167 0.71157,21.23727 -3.84578,12.0474 -3.36676,13.77266 4.1136,14.81552 2.56753,0.35794 6.24323,1.62666 8.16823,2.81936 5.12778,3.17712 10.67291,4.8586 13.77534,4.17719 2.27648,-0.5 2.72466,-1.12677 2.72466,-3.81041 0,-2.46515 -0.59893,-3.49904 -2.57587,-4.44656 -1.41672,-0.67902 -4.83423,-3.66105 -7.59446,-6.62674 -2.76022,-2.96569 -5.87608,-5.87194 -6.92413,-6.45833 -2.09344,-1.17131 -2.16136,-2.4848 -1.14833,-22.2073 0.5232,-10.18606 1.06616,-15.70421 2.26605,-23.02994 0.47509,-2.90056 0.0108,-4.32696 -2.60391,-8 l -3.18209,-4.47006 3.73965,3.5 3.73965,3.5 -0.70824,10 c -0.8183,11.55408 -1.65788,30.62617 -1.54074,35 0.12436,4.64322 0.76767,5.61225 7.63457,11.5 11.452,9.81907 11.39785,9.75772 11.39785,12.9144 0,2.64015 -0.48637,3.15104 -4.00281,4.20459 -4.53222,1.35788 -10.892,-0.058 -14.49719,-3.22747 -2.46351,-2.16578 -6.86718,-3.89152 -9.93024,-3.89152 -3.31357,0 -7.56976,-3.68948 -7.56976,-6.56185 0,-1.32918 0.89977,-4.78402 1.9995,-7.67742 2.22336,-5.84973 2.61459,-14.31884 0.84125,-18.2109 l -1.15925,-2.54428 -3.09075,2.3424 c -2.88706,2.18803 -17.47129,7.65205 -20.42438,7.65205 -1.05967,0 -1.26033,-3.12878 -0.99659,-15.5392 l 0.33022,-15.5392 2.5,-0.53003 c 11.24211,-2.38345 12.74069,-5.81049 3.71274,-8.49052 -3.183,-0.94491 -6.45637,-2.27332 -7.27417,-2.95203 -2.07824,-1.72479 -2.67862,-0.71059 -1.46655,2.47739 1.46187,3.84501 1.27168,10.23882 -0.41413,13.92246 -3.50335,7.65509 -5.26768,15.22758 -4.81255,20.65532 0.3277,3.90798 -0.18127,7.62055 -1.75508,12.80197 -3.96999,13.07031 -2.1324,21.74039 7.18204,33.88616 4.32224,5.63609 4.82772,9.50532 1.3277,10.16315 -1.1,0.20674 -2.225,0.7173 -2.5,1.13458 -0.86658,1.31492 -6.38168,1.89452 -9.3807,0.98584 z m 25.04676,-58.29481 c 3.28941,-1.19959 7.07271,-2.91121 8.40734,-3.8036 l 2.4266,-1.62251 -8.93097,-9.12749 c -4.91203,-5.02011 -9.74953,-9.12748 -10.75,-9.12748 -1.66901,0 -1.81903,1.11498 -1.81903,13.51905 l 0,13.51905 2.34265,-0.58796 c 1.28846,-0.32339 5.03399,-1.56946 8.32341,-2.76906 z m -53.61621,-29.77422 c 0.61612,-1.15123 0.83286,-3.28873 0.48166,-4.75 -0.35121,-1.46127 -6.26993,-10.98186 -13.15271,-21.15686 -18.30034,-27.05386 -19.37705,-28.48852 -21.47427,-28.61346 -1.04749,-0.0624 -1.90453,0.0118 -1.90453,0.16489 0,0.38634 21.87929,31.89642 25.22858,36.33366 1.50073,1.9882 3.17025,4.60944 3.71007,5.82498 0.53982,1.21553 1.92758,3.15616 3.08392,4.3125 1.15634,1.15633 1.92737,2.62761 1.7134,3.2695 -0.21396,0.64189 -1.22405,-0.17373 -2.24464,-1.8125 -1.02059,-1.63876 -2.89459,-4.12495 -4.16444,-5.52486 -1.26985,-1.39991 -7.93789,-10.82355 -14.81786,-20.94143 l -12.50903,-18.39613 0,4.55329 c 0,4.22203 0.94108,5.89106 12.93541,22.94142 13.34336,18.96806 18.92199,25.88814 20.86972,25.88814 0.61848,0 1.6286,-0.94191 2.24472,-2.09314 z m 22.31178,-15.40686 c 0.78922,-2.05668 -0.27966,-4.5 -1.96862,-4.5 -1.54574,0 -1.64151,0.47084 -0.76272,3.75 0.69448,2.59147 1.89789,2.92192 2.73134,0.75 z m -24.36163,-1.3562 c 0,-0.47091 -1.56811,-2.90989 -3.48469,-5.41996 -3.95985,-5.18606 -6.03521,-10.80431 -6.87426,-18.60945 -0.55575,-5.16987 -1.15854,-6.93023 -2.06327,-6.0255 -0.23222,0.23222 -0.53108,3.42498 -0.66413,7.09503 -0.23005,6.34558 -0.0285,7.00734 4.11074,13.49444 2.39395,3.7519 5.01255,7.60914 5.81911,8.57164 1.55916,1.8606 3.1565,2.31291 3.1565,0.8938 z m -29.41821,-5.1438 c 2.51216,0 1.78336,-7.99837 -1.11784,-12.26787 -1.39483,-2.05267 -2.74483,-3.73213 -3,-3.73213 -0.25517,0 -0.46395,3.87314 -0.46395,8.60699 0,7.4376 0.21491,8.52452 1.58179,8 0.86998,-0.33385 2.21998,-0.60699 3,-0.60699 z m 99.97568,-6.71083 c -0.30661,-0.79901 -0.55747,-1.64094 -0.55747,-1.87096 0,-0.23001 -1.35,-0.41821 -3,-0.41821 -3.56773,0 -3.84364,1.19575 -0.75,3.25039 2.60046,1.7271 5.12306,1.16417 4.30747,-0.96122 z M 631.1326,719.3201 c 0,-4.80952 -0.10667,-5 -2.8,-5 -1.54,0 -3.42255,-0.5625 -4.18345,-1.25 -0.76089,-0.6875 -0.54904,0.1 0.47078,1.75 3.53873,5.72543 6.01399,9.47531 6.26267,9.48762 0.1375,0.007 0.25,-2.23762 0.25,-4.98762 z m -4.83475,-8.75 c -1.45352,-2.81031 -2.46453,-27.82227 -1.2187,-30.15013 0.62481,-1.16746 3.36365,-2.7259 6.56288,-3.73436 6.47081,-2.03975 7.73624,-4.828 1.74057,-3.83517 -5.58306,0.92449 -9.20928,2.52506 -10.28822,4.54107 -0.52898,0.98841 -0.96178,8.066 -0.96178,15.72799 0,12.5793 0.20108,14.18652 2.07258,16.56574 2.37148,3.01484 3.42464,3.46016 2.09267,0.88486 z m 9.20975,-1.375 c 0.99194,-4.95968 0.74434,-7.99565 -1.03125,-12.64498 -1.40471,-3.67817 -1.47253,-5.05014 -0.44652,-9.03343 0.66536,-2.58312 1.46313,-5.70909 1.77283,-6.94659 0.71061,-2.83943 -1.96658,-3.02998 -7.23989,-0.51531 -3.56751,1.70123 -3.62561,1.82179 -3.01199,6.25 0.34414,2.48342 0.9026,8.56531 1.24104,13.51531 0.73566,10.7599 1.46664,12.5 5.25096,12.5 2.3806,0 2.94089,-0.50534 3.46482,-3.125 z m -14.66774,-6.11334 c -0.23919,-1.24391 -0.44398,-0.46166 -0.45508,1.73834 -0.0111,2.2 0.18461,3.21775 0.4349,2.26166 0.25029,-0.95609 0.25937,-2.75609 0.0202,-4 z m -2.70726,-11.82808 0,-14.06643 -2.75,0.31643 -2.75,0.31642 -0.27988,12.75 c -0.26594,12.11517 -0.18174,12.75 1.69099,12.75 1.08397,0 2.24897,0.45 2.58889,1 0.33992,0.55 0.81648,1 1.05902,1 0.24254,0 0.44098,-6.32989 0.44098,-14.06642 z m 52,135.57578 c 0,-1.37216 3.11659,-6.50936 3.94904,-6.50936 1.02182,0 -1.58383,5.65625 -3.01236,6.53914 -0.51518,0.31839 -0.93668,0.30499 -0.93668,-0.0298 z m 48.66667,-15.17603 c -0.96728,-0.96728 -0.81898,-5.33333 0.18115,-5.33333 0.4663,0 0.8862,1.35 0.93312,3 0.0897,3.15501 -0.0339,3.41375 -1.11427,2.33333 z m -38.66667,-3.15062 c 0,-1.11086 33.85276,-13.66328 34.66313,-12.85291 0.77346,0.77346 -2.93642,2.36437 -20.49886,8.79057 -14.64743,5.35959 -14.16427,5.22102 -14.16427,4.06234 z m -3.30615,-31.82219 c -1.06481,-1.06481 0.26976,-2.31172 1.83243,-1.71206 0.80423,0.30861 1.21326,0.96396 0.90896,1.45632 -0.6482,1.04882 -1.83738,1.15975 -2.74139,0.25574 z m -2.66243,-14.11052 c 0.0173,-0.4125 1.19002,-1.59451 2.60607,-2.62669 l 2.57463,-1.87669 -1.72107,2.62669 c -1.62739,2.48372 -3.52826,3.51485 -3.45963,1.87669 z m 42.96858,-3.13337 c 0,-0.48585 0.9,-1.11872 2,-1.40638 1.1,-0.28766 2,-1.24014 2,-2.11663 0,-0.87649 0.45,-1.59362 1,-1.59362 1.78811,0 1.0541,3.90068 -0.93426,4.96482 -2.36978,1.26827 -4.06574,1.33159 -4.06574,0.15181 z m -64,-15.54339 c 0,-0.23472 1.35,-1.10023 3,-1.92335 3.07562,-1.53432 3.9352,-0.98509 1.8,1.15011 -1.12255,1.12255 -4.8,1.71495 -4.8,0.77324 z m 65.55695,-7.48109 c -0.28633,-0.46329 1.15872,-1.11251 3.21123,-1.44272 8.21839,-1.32216 11.1075,-7.111 5.09954,-10.21783 -1.72275,-0.89088 -4.44526,-1.42707 -6.05,-1.19154 -2.30822,0.33878 -3.32508,-0.14384 -4.86772,-2.31028 -1.0725,-1.50619 -1.95,-3.80649 -1.95,-5.11179 0,-1.30529 -1.71819,-5.73583 -3.8182,-9.84563 -3.06935,-6.00683 -3.86928,-8.7362 -4.07865,-13.91637 -0.16605,-4.10817 -1.01147,-7.91424 -2.33232,-10.5 -1.13953,-2.2308 -2.01017,-5.63099 -1.93476,-7.55599 0.0754,-1.925 -0.33434,-4.94001 -0.91054,-6.70002 -1.23467,-3.77128 -7.15593,-9.29998 -9.96033,-9.29998 -1.08086,0 -1.9652,-0.43875 -1.9652,-0.975 0,-0.55 1.30769,-0.71346 3,-0.375 2.98149,0.5963 3,0.57194 3,-3.94745 0,-4.25465 0.20926,-4.61309 3.25,-5.56701 1.7875,-0.56076 6.31561,-1.32609 10.06248,-1.70074 6.68601,-0.66853 6.91167,-0.61286 12.15589,2.99897 3.21512,2.21434 5.59401,4.67865 5.9726,6.18705 0.34605,1.3788 0.57781,11.0277 0.51502,21.442 l -0.11418,18.9351 10.8291,13.53446 c 13.09543,16.36699 15.81532,21.05854 14.38679,24.81586 -1.47075,3.86835 -6.67201,3.70755 -10.53615,-0.32574 -3.23502,-3.37664 -5.24267,-3.29346 -12.02155,0.49804 -4.4972,2.51534 -10.15596,3.84514 -10.94305,2.57161 z m 31.83297,-3.50957 c 0.3337,-1.32958 0.26623,-3.33788 -0.14994,-4.46289 -1.3265,-3.58587 -33.35885,-43.11969 -34.93781,-43.11969 -0.91146,0 -1.29491,0.57653 -0.96144,1.44555 0.30509,0.79506 7.00384,9.45756 14.88611,19.25 14.91941,18.53496 22.50502,28.80197 15.37102,20.80445 -2.41716,-2.70974 -3.57291,-3.46189 -3.58298,-2.33179 -0.008,0.91752 -0.24668,2.27228 -0.53,3.01059 -0.70105,1.82691 4.93237,7.8212 7.35034,7.8212 1.22609,0 2.17281,-0.89584 2.5547,-2.41742 z m -12.63992,-4.82741 c 0.6875,-0.55003 1.25,-2.12004 1.25,-3.48891 0,-2.33386 -0.23352,-2.44522 -3.75,-1.78837 -2.0625,0.38527 -3.80916,0.77285 -3.88147,0.86129 -0.0723,0.0884 0.0932,1.63681 0.36789,3.44079 0.42662,2.80207 0.81003,3.18492 2.63148,2.62761 1.17265,-0.3588 2.6946,-1.10238 3.3821,-1.65241 z m -17.75,-13.23939 c 0,-6.89984 -0.23196,-7.73923 -2.97069,-10.75 l -2.97068,-3.26578 0.0437,3.5 c 0.0868,6.95636 1.56857,13.97885 3.36938,15.96872 1.01104,1.11721 1.99352,2.03128 2.18328,2.03128 0.18975,0 0.34501,-3.3679 0.34501,-7.48422 z m 4,1.48422 c 0,-2.68508 -0.45,-5.16008 -1,-5.5 -0.62504,-0.3863 -1,1.67595 -1,5.5 0,3.82405 0.37496,5.8863 1,5.5 0.55,-0.33992 1,-2.81492 1,-5.5 z m 7,5.05576 c 0,-0.51933 -1.11078,-2.20683 -2.4684,-3.75 l -2.4684,-2.80576 -0.0316,2.70031 c -0.018,1.54282 0.71854,3.13722 1.7184,3.71959 2.21878,1.29232 3.25,1.33543 3.25,0.13586 z m 5.69155,-0.84396 c 0.80834,-0.51395 -2.30853,-5.18706 -9.69171,-14.53076 -5.98579,-7.57524 -11.24698,-13.86494 -11.69155,-13.9771 -0.44456,-0.11217 -0.94642,0.98938 -1.11524,2.44787 -0.24437,2.11123 1.74648,5.11811 9.76593,14.75 5.54007,6.65401 10.4032,12.0913 10.80694,12.08288 0.40375,-0.008 1.27028,-0.35623 1.92563,-0.77289 z m -24.82988,-34.77835 c -0.34662,-20.29384 -0.71194,-21.57555 -5.65421,-19.83745 -2.43227,0.85538 -2.68319,1.42976 -2.78573,6.37676 -0.0724,3.49263 0.50563,6.52565 1.61645,8.48198 1.59791,2.81417 2.11452,5.09603 3.63262,16.04526 0.55825,4.02637 1.9263,7.5 2.95378,7.5 0.30481,0 0.41151,-8.35495 0.23709,-18.56655 z m 12.0626,-32.0247 c -0.61641,-0.74273 -3.07,-2.64155 -5.45241,-4.21959 l -4.33166,-2.86918 -8.16437,1.18352 c -8.48853,1.23051 -9.93368,2.16373 -9.96052,6.43205 -0.0251,3.98635 3.56848,7.00625 7.56533,6.35765 2.15579,-0.34984 4.2158,-10e-4 5.68576,0.96178 2.09841,1.37493 2.51917,1.33708 4.69165,-0.42209 1.33964,-1.08478 3.51726,-1.80098 4.96423,-1.63269 l 2.57772,0.2998 0.5,15 c 0.75095,22.52848 2.44227,21.9975 2.77251,-0.87042 0.18545,-12.84215 -0.0855,-19.30181 -0.84824,-20.22083 z m -3.92427,20.02483 0,-12.56643 -2.75,0.31643 -2.75,0.31642 -0.2884,9.93181 c -0.28476,9.80618 -0.25314,9.96069 2.5,12.21404 1.53362,1.25522 2.9009,2.29841 3.0384,2.31819 0.1375,0.0198 0.25,-5.61893 0.25,-12.53046 z m -11.55,-10.50434 c 0.58847,-0.57562 -0.64833,-0.92924 -3.25,-0.92924 -3.97592,0 -5.09751,0.76915 -3.48011,2.38655 0.85108,0.85108 5.37066,-0.12757 6.73011,-1.45731 z m -55.90543,71.82076 c -2.26914,-7.22362 -2.68202,-9.30055 -2.48885,-12.51972 0.5131,-8.55101 0.0212,-11.3974 -2.06388,-11.94266 -1.98145,-0.51817 -1.98314,-0.56679 -0.12677,-3.65638 2.5219,-4.19727 3.55913,-16.69539 1.60016,-19.28115 -1.77455,-2.34233 -1.81948,-3.35009 -0.14937,-3.35009 1.75025,0 5.42197,-6.7035 5.81964,-10.62498 0.1743,-1.71874 -0.33306,-3.90814 -1.12747,-4.86534 -1.29501,-1.56039 -1.24084,-1.70152 0.5238,-1.3648 3.7725,0.71984 3.07162,9.79608 -1.14329,14.80521 -1.39253,1.65493 -2.21978,3.51396 -1.83832,4.13116 0.98706,1.59711 0.5821,15.80298 -0.50859,17.84096 -0.86062,1.60809 -0.45743,6.43357 1.88649,22.57779 0.47911,3.3 1.18943,6.7875 1.57849,7.75 0.42687,1.05607 0.25597,1.75 -0.43101,1.75 -0.6261,0 -1.31507,-0.5625 -1.53103,-1.25 z m 17.95543,-1.75 c 1.1,-0.47269 2.9,-0.88417 4,-0.9144 1.65073,-0.0454 1.73805,0.11431 0.5,0.9144 -0.825,0.53316 -2.625,0.94464 -4,0.9144 -2.28958,-0.0503 -2.33166,-0.12731 -0.5,-0.9144 z m -7.52852,-2.41729 c 4.43128,-3.34801 5.70715,-5.53836 3.89485,-6.68648 -2.79438,-1.7703 -4.9023,-0.9664 -5.51633,2.10377 -0.33,1.65 -0.99375,3 -1.475,3 -1.28031,0 -1.07255,-1.7173 0.59876,-4.94926 1.43295,-2.77102 1.59217,-2.81913 5.75,-1.73752 2.35193,0.61183 6.63874,1.12915 9.52624,1.1496 2.8875,0.0205 5.25,0.37468 5.25,0.78718 0,0.83716 -3.823,1.22445 -8.75,0.88641 -2.19255,-0.15042 -3.25,0.22244 -3.25,1.14599 0,1.84604 -3.92023,5.32129 -7,6.20544 -2.15408,0.61841 -2.01966,0.3548 0.97148,-1.90513 z m 24.02852,1.7064 c 0,-0.57432 0.7875,-1.66182 1.75,-2.41667 1.61876,-1.26951 1.63998,-1.22245 0.28297,0.62756 -0.80687,1.1 -1.59437,2.1875 -1.75,2.41667 -0.15563,0.22916 -0.28297,-0.0532 -0.28297,-0.62756 z m -9.55887,-4.83885 c 2.1498,-1.60616 3.97929,-1.93952 3.13347,-0.57097 -0.29889,0.48361 -1.56295,1.13623 -2.80902,1.45027 -2.18576,0.55085 -2.19719,0.51987 -0.32445,-0.8793 z m 5.55887,-2.34185 c 0,-0.60963 0.8632,-1.10841 1.91821,-1.10841 1.05502,0 2.74252,-0.29123 3.75,-0.64718 1.27979,-0.45215 1.53045,-0.32281 0.83179,0.42924 -1.51322,1.62886 -6.5,2.64643 -6.5,1.32635 z m 28.5567,-3.33092 c -0.85618,-1.22237 -1.5567,-2.62747 -1.5567,-3.12244 0,-1.22413 2.87732,1.2472 4.08978,3.51271 1.42213,2.65727 -0.61873,2.34284 -2.53308,-0.39027 z m -36.90404,-5.83607 c -1.45896,-1.14762 -2.65266,-2.76353 -2.65266,-3.59092 0,-0.99372 1.05965,-0.44469 3.12179,1.61745 3.66774,3.66774 3.35536,4.98182 -0.46913,1.97347 z m 8.34734,-4.31898 c 0,-0.20765 0.6853,-0.9463 1.52289,-1.64144 1.27335,-1.05678 1.41968,-0.99492 0.89301,0.37756 -0.53789,1.40173 -2.4159,2.38422 -2.4159,1.26388 z m -10.5,-2.62244 c -0.33992,-0.55 -0.14148,-1 0.44098,-1 0.58246,0 1.05902,0.45 1.05902,1 0,0.55 -0.19844,1 -0.44098,1 -0.24254,0 -0.7191,-0.45 -1.05902,-1 z m -27.39372,-2.5 c -0.10636,-0.55 -0.56336,-2.9125 -1.01556,-5.25 -0.45219,-2.3375 -0.44117,-4.25 0.0245,-4.25 1.213,0 2.11454,4.26496 1.6127,7.62917 -0.23554,1.57896 -0.51528,2.42083 -0.62164,1.87083 z m 16.33642,-0.91824 c -2.90688,-2.12556 -1.08044,-2.96291 2.46437,-1.12982 1.70111,0.87968 3.09293,1.81286 3.09293,2.07374 0,1.02825 -3.7256,0.39545 -5.5573,-0.94392 z m 10.82299,0.23776 c -0.88059,-1.06155 -0.0201,-1.36673 4.40161,-1.56102 6.61151,-0.29051 7.3327,-0.66597 7.3327,-3.81752 0,-1.34254 0.45,-2.44098 1,-2.44098 0.55,0 1,0.9 1,2 0,1.11111 0.66667,2 1.5,2 0.825,0 1.5,0.44496 1.5,0.9888 0,0.54384 -1.0125,0.95924 -2.25,0.92312 -2.012,-0.0587 -4.74547,0.56671 -11.31986,2.59009 -1.21149,0.37286 -2.52377,0.0898 -3.16445,-0.68249 z m -6.26569,-3.81952 c 0,-0.55 1.15156,-1 2.55902,-1 1.45136,0 2.2915,0.43284 1.94098,1 -0.33992,0.55 -1.49148,1 -2.55902,1 -1.06754,0 -1.94098,-0.45 -1.94098,-1 z m 36.49445,-2.00613 c -0.99854,-1.10337 -1.5621,-2.25955 -1.25236,-2.56929 0.74677,-0.74678 4.58809,1.69048 5.20722,3.30391 0.7643,1.99175 -1.94256,1.48895 -3.95486,-0.73462 z m -32.24445,-2.07241 c -1.2375,-0.47135 -2.25,-1.32533 -2.25,-1.89771 0,-0.68613 0.61955,-0.65378 1.81844,0.0949 1.47148,0.91895 2.61249,0.63436 5.98013,-1.49153 2.28893,-1.4449 4.84563,-2.62712 5.68156,-2.62712 0.89926,0 1.51987,-0.89833 1.51987,-2.2 0,-1.51322 0.32241,-1.87759 1.03278,-1.16722 1.73063,1.73063 0.10459,3.92399 -4.32267,5.83087 -2.31556,0.99733 -4.88511,2.37617 -5.71011,3.06408 -0.98926,0.82488 -2.26611,0.95894 -3.75,0.39373 z m -13.5,-4.31351 c -0.9625,-0.73064 -1.75,-1.79318 -1.75,-2.3612 0,-1.17075 3.01047,-2.56961 3.8098,-1.77029 0.28794,0.28795 -10e-4,0.52354 -0.64313,0.52354 -0.64167,0 -1.16667,0.73125 -1.16667,1.625 0,1.26749 0.65148,1.4947 2.96123,1.03275 3.47595,-0.69519 5.06168,0.83468 1.77752,1.7149 -2.9307,0.7855 -2.95065,0.78244 -4.98875,-0.7647 z m 28.25,-1.60795 c 0,-0.55 1.32344,-1 2.94098,-1 1.61754,0 3.2191,0.45 3.55902,1 0.3678,0.59512 -0.82295,1 -2.94098,1 -1.95746,0 -3.55902,-0.45 -3.55902,-1 z m 12.67094,0 c -1.52292,-4.06541 -2.41601,-9 -1.62888,-9 1.07662,0 3.24783,7.68922 2.63292,9.32433 -0.29374,0.78109 -0.63072,0.67224 -1.00404,-0.32433 z m -25.42094,-1.39205 c 0.9625,-0.73064 1.75,-1.77158 1.75,-2.3132 0,-1.51174 3.91593,-4.71215 4.7478,-3.88028 0.40455,0.40454 -0.0482,1.17414 -1.00613,1.71022 -0.95792,0.53608 -1.74167,1.6115 -1.74167,2.38982 0,0.77832 -0.87042,1.88095 -1.93426,2.45031 -2.72872,1.46036 -3.90508,1.22917 -1.81574,-0.35687 z m -13.51188,-5.26766 c -2.05597,-1.46284 -3.73812,-3.03784 -3.73812,-3.5 0,-1.34797 0.92332,-1.00056 4.41111,1.65971 3.96093,3.02114 6.92808,3.16495 10.31602,0.5 1.39842,-1.1 3.36607,-2 4.37254,-2 2.65658,0 4.13466,-3.52691 3.48886,-8.32486 l -0.56197,-4.17514 1.46402,3 c 2.49429,5.11115 0.5114,9.90138 -4.55968,11.01518 -1.61199,0.35405 -2.9309,0.98574 -2.9309,1.40376 0,0.99362 -4.61309,3.08106 -6.80893,3.08106 -0.94316,0 -3.39698,-1.19687 -5.45295,-2.65971 z m 25.26188,-0.43391 c 0,-0.49851 0.9,-0.90638 2,-0.90638 1.1,0 2,0.17252 2,0.38337 0,0.21085 -0.9,0.61872 -2,0.90638 -1.1,0.28765 -2,0.11514 -2,-0.38337 z m -2.37177,-4.18412 c -1.67243,-1.22723 -1.32638,-1.36545 3.2493,-1.29788 2.81659,0.0416 5.12139,0.41312 5.12177,0.82562 3.9e-4,0.4125 -0.5618,0.75614 -1.2493,0.76365 -0.6875,0.008 -2.15,0.25406 -3.25,0.54789 -1.1,0.29383 -2.8423,-0.0838 -3.87177,-0.83928 z M 650.1326,667.3201 c 0,-0.55 0.47656,-1 1.05902,-1 0.58246,0 0.7809,0.45 0.44098,1 -0.33992,0.55 -0.81648,1 -1.05902,1 -0.24254,0 -0.44098,-0.45 -0.44098,-1 z m 21,-3.03979 c -0.825,-0.55504 -4.2,-0.79077 -7.5,-0.52384 -5.51176,0.44582 -5.69485,0.39905 -2.25,-0.57487 3.88061,-1.0971 4.53509,-2.52603 2.71482,-5.92724 -0.59561,-1.11291 -0.64104,-1.93426 -0.10699,-1.93426 1.11432,0 2.14217,2.43833 2.14217,5.08179 0,1.86611 1.56596,2.29643 8.25,2.26709 2.18114,-0.01 2.28335,1.23248 0.16821,2.04413 -1.92823,0.73993 -1.6164,0.77941 -3.41821,-0.4328 z m 19,-1.96021 c -1.29269,-0.8354 -1.26629,-0.97149 0.19098,-0.98469 0.93004,-0.008 1.9691,0.43469 2.30902,0.98469 0.78218,1.2656 -0.54163,1.2656 -2.5,0 z m -39.62588,-2.30881 c 1.03077,-0.65515 3.43589,-2.21905 5.34472,-3.47533 1.90882,-1.25627 3.28462,-1.72624 3.05733,-1.04438 -0.22728,0.68186 -2.36568,2.27223 -4.75199,3.53414 -4.54521,2.40356 -6.8676,3.03064 -3.65006,0.98557 z m 27.22864,-0.23971 c -0.88152,-0.64458 -1.60276,-1.90986 -1.60276,-2.81172 0,-1.05465 -0.83882,-1.63976 -2.35078,-1.63976 -4.55359,0 -8.58943,-2.16725 -10.87233,-5.83845 l -2.27689,-3.66155 -0.6081,4 -0.60809,4 -0.14191,-4.02749 c -0.078,-2.21513 -0.79182,-4.95539 -1.58616,-6.08947 -2.36709,-3.37949 -3.02322,-11.57836 -1.20756,-15.08945 3.04163,-5.88187 13.09634,-8.14921 19.31719,-4.35602 2.61619,1.59524 3.38226,2.93916 4.41554,7.74626 1.3449,6.25683 1.43218,13.57732 0.18836,15.79884 -0.4231,0.75567 -0.79631,-2.53129 -0.82936,-7.30436 -0.0847,-12.2363 -2.53619,-16.17831 -10.061,-16.17831 -5.90325,0 -10.20747,2.34544 -11.94775,6.51052 -1.39857,3.34724 -1.0621,6.48948 0.69488,6.48948 0.50164,0 0.64245,1.07424 0.31292,2.38719 -0.44098,1.75699 -0.0196,2.79313 1.59612,3.92483 1.2074,0.84569 3.00265,2.86525 3.98945,4.48791 2.44063,4.01331 10.50725,6.93378 12.97735,4.69837 2.24319,-2.03006 2.91161,-1.88348 2.28787,0.5017 -0.45182,1.72774 -0.0307,2 3.09362,2 1.99027,0 3.61663,0.50075 3.61663,1.11354 0,0.75697 -1.47594,0.89222 -4.60922,0.42235 -3.61098,-0.5415 -4.50946,-0.40366 -4.14862,0.63646 0.31171,0.89851 1.83654,1.22111 4.71742,0.99806 2.55679,-0.19797 4.01882,0.0555 3.66087,0.6347 -0.9357,1.514 -6.2457,1.94208 -8.01769,0.64637 z"
       id="path3201"
       inkscape:connector-curvature="0" />
  </g>
</svg>
