<?xml version="1.0" encoding="UTF-8" standalone="no"?>
<!-- Created with Inkscape (http://www.inkscape.org/) -->

<svg
   xmlns:dc="http://purl.org/dc/elements/1.1/"
   xmlns:cc="http://creativecommons.org/ns#"
   xmlns:rdf="http://www.w3.org/1999/02/22-rdf-syntax-ns#"
   xmlns:svg="http://www.w3.org/2000/svg"
   xmlns="http://www.w3.org/2000/svg"
   xmlns:sodipodi="http://sodipodi.sourceforge.net/DTD/sodipodi-0.dtd"
   xmlns:inkscape="http://www.inkscape.org/namespaces/inkscape"
   width="159.61734"
   height="226.43181"
   id="svg2"
   version="1.1"
   inkscape:version="0.48.3.1 r9886"
   sodipodi:docname="Bicep-curl-1.svg">
  <defs
     id="defs4" />
  <sodipodi:namedview
     id="base"
     pagecolor="#ffffff"
     bordercolor="#666666"
     borderopacity="1.0"
     inkscape:pageopacity="0.0"
     inkscape:pageshadow="2"
     inkscape:zoom="2.8"
     inkscape:cx="184.83539"
     inkscape:cy="118.23697"
     inkscape:document-units="px"
     inkscape:current-layer="layer1"
     showgrid="false"
     fit-margin-top="0"
     fit-margin-left="0"
     fit-margin-right="0"
     fit-margin-bottom="0"
     inkscape:window-width="1855"
     inkscape:window-height="1056"
     inkscape:window-x="65"
     inkscape:window-y="24"
     inkscape:window-maximized="1" />
  <metadata
     id="metadata7">
    <rdf:RDF>
      <cc:Work
         rdf:about="">
        <dc:format>image/svg+xml</dc:format>
        <dc:type
           rdf:resource="http://purl.org/dc/dcmitype/StillImage" />
        <dc:title></dc:title>
      </cc:Work>
    </rdf:RDF>
  </metadata>
  <g
     inkscape:label="Ebene 1"
     inkscape:groupmode="layer"
     id="layer1"
     transform="translate(-592.91504,-622.30466)">
    <path
       style="fill:#000000"
       d="m 676.8858,848.20667 c -4.01012,-1.21504 -7.6193,-4.87 -7.6193,-7.71595 0,-1.31528 -0.52772,-3.37434 -1.17272,-4.57568 -1.49026,-2.77569 -1.87305,-6.20865 -1.80464,-16.18426 0.0701,-10.22544 -1.75355,-15.88496 -5.25418,-16.30555 -2.02885,-0.24376 -5.29605,-4.14506 -16.1558,-19.29131 l -13.61266,-18.98576 0,-25.34928 0,-25.34929 -3.25,-0.37917 -3.25,-0.37918 0.16987,28.23142 0.16988,28.23142 15.69017,20.05166 c 14.8176,18.93653 15.93431,20.11314 20.08013,21.15707 2.41447,0.60797 4.38995,1.51055 4.38995,2.00574 0,0.97727 -3.9068,0.24945 -8.18367,-1.52459 -2.66748,-1.10647 -32.14249,-37.82355 -33.21199,-41.37225 -0.65272,-2.1658 -0.95413,-21.98263 -0.63121,-41.50124 0.20401,-12.33134 0.0131,-14.67164 -1.16005,-14.22146 -1.06738,0.4096 -1.30549,2.08962 -0.99259,7.00357 0.2264,3.55559 0.10804,8.8947 -0.26304,11.86469 -0.66523,5.32428 -0.7326,5.41469 -4.80572,6.44856 -2.27206,0.57671 -4.49569,0.82319 -4.94138,0.54774 -0.44569,-0.27545 -0.81035,-14.39875 -0.81035,-31.3851 0,-30.78132 0.007,-30.88947 2.22251,-32.44099 2.54823,-1.78485 6.35486,-2.04955 7.3075,-0.50814 1.00836,1.63156 3.46999,-0.91305 3.46999,-3.58698 0,-2.21774 -4.80529,-6.84837 -9.5,-9.15472 -2.15854,-1.06041 -16.72223,0.58192 -18.1915,2.05144 -0.44467,0.44475 -0.64842,21.58358 -0.45277,46.97517 l 0.35574,46.16653 4.14426,5.72736 c 2.27935,3.15004 4.84488,5.96529 5.70118,6.2561 0.85629,0.29081 4.86976,-0.59803 8.91882,-1.9752 4.04905,-1.37718 7.58594,-2.27992 7.85976,-2.00611 0.77124,0.77125 0.20619,1.03425 -8.27079,3.84959 -9.43618,3.13391 -10.08257,2.89857 -16.12136,-5.86948 l -3.94265,-5.72455 -0.35912,-47.2654 -0.35913,-47.26541 3.35878,-1.05546 c 1.84733,-0.5805 6.42439,-1.36199 10.17126,-1.73664 6.68601,-0.66853 6.91167,-0.61286 12.15588,2.99897 2.93888,2.02408 5.60178,4.70954 5.91755,5.96769 0.53487,2.13107 0.90039,2.23385 5.34411,1.50265 2.62349,-0.43169 5.23989,-0.81171 5.81422,-0.8445 0.57433,-0.0328 2.97457,-1.85961 5.33385,-4.05961 2.38506,-2.22403 5.25137,-3.97389 6.45576,-3.94119 2.11692,0.0575 2.12124,0.0859 0.19018,1.25 -4.70266,2.83493 -8.38304,7.4358 -9.0091,11.26232 -0.35355,2.16088 -1.28904,5.74392 -2.07887,7.9623 -0.78983,2.21839 -1.43606,5.79589 -1.43606,7.95 0,3.04242 -0.26736,3.64921 -1.19791,2.71866 -1.15976,-1.15977 -0.83364,-3.62315 1.8471,-13.95209 0.73533,-2.8332 -1.93807,-3.03362 -7.17212,-0.53768 l -3.59078,1.71233 0.63724,6.53767 c 0.9903,10.15972 1.14782,10.48304 4.14924,8.51643 1.37542,-0.9012 2.72153,-1.41778 2.99136,-1.14795 0.4957,0.49569 -9.58388,6.61026 -17.41413,10.56393 -4.14373,2.09226 -4.25,2.27043 -4.25,7.12559 0,2.73883 0.3375,4.97852 0.75,4.97711 0.4125,-10e-4 3.45,-1.63685 6.75,-3.6343 5.9064,-3.57507 14.45699,-8.38329 19.64477,-11.04677 4.00017,-2.05373 4.93521,-3.66648 4.21463,-7.26935 -0.59833,-2.99165 -0.88532,-3.19509 -3.75363,-2.66082 -2.91064,0.54214 -2.98381,0.48536 -1.16464,-0.90385 1.06762,-0.81529 3.20512,-1.48234 4.75,-1.48234 1.54488,0 2.80887,-0.45 2.80887,-1 0,-0.55 0.87344,-1 1.94098,-1 2.25125,0 3.56118,-1.57161 2.07533,-2.48992 -1.44969,-0.89596 -1.25707,-2.51008 0.29955,-2.51008 1.75025,0 5.42197,-6.7035 5.81964,-10.62498 0.1743,-1.71874 -0.33306,-3.90814 -1.12747,-4.86534 -1.29501,-1.56039 -1.24084,-1.70152 0.5238,-1.3648 3.7725,0.71984 3.07162,9.79608 -1.14329,14.80521 -2.92937,3.48136 -2.44373,5.04991 1.56349,5.04991 1.58184,0 3.08537,0.65507 3.40292,1.48261 0.41324,1.07688 1.42804,1.31079 3.70821,0.85476 2.15418,-0.43084 3.4165,-0.19003 4.02274,0.76739 1.61632,2.55261 0.95533,4.92907 -1.64607,5.91812 -1.4081,0.53536 -2.28154,1.42422 -1.94099,1.97525 0.35149,0.56872 -0.47894,1.00187 -1.92077,1.00187 -1.90422,0 -2.66988,0.62575 -3.05902,2.5 -1.37596,6.6273 -1.80183,7.90133 -2.24097,6.70412 -0.26143,-0.71274 0.31287,-4.20773 1.27622,-7.76665 1.37752,-5.08898 1.50993,-7.00108 0.62007,-8.95412 -1.26678,-2.78028 -2.04007,-2.92602 -7.49225,-1.41203 -2.87936,0.79956 -3.56342,1.36678 -2.78275,2.30743 1.65694,1.99649 1.0929,10.89872 -0.78093,12.3254 -2.28012,1.73603 -3.60868,1.59147 -2.09838,-0.22832 1.92259,-2.31658 0.52779,-2.81049 -2.91264,-1.03138 -4.87715,2.52207 -5.41314,9.24983 -1.08198,13.58099 2.4204,2.4204 7.64266,2.5849 10.14582,0.31957 1.7472,-1.58119 1.83319,-1.43628 1.92842,3.25 0.0548,2.69775 0.45997,6.02999 0.90032,7.40499 0.69448,2.1685 0.81386,1.96596 0.90032,-1.52749 0.0548,-2.21513 0.7214,-4.91513 1.48128,-6 1.62466,-2.31954 1.58574,-2.135 1.7344,-8.22251 0.0638,-2.6125 0.30632,-3.85 0.53894,-2.75 0.23261,1.1 0.61488,2.91649 0.8495,4.03664 0.90259,4.30941 17.66872,6.89517 26.24285,4.0473 l 4.9741,-1.65213 1.26711,-9.21591 c 0.69691,-5.06874 1.26467,-13.0409 1.26168,-17.7159 l -0.005,-8.5 1.35833,5 c 1.77887,6.54796 1.73734,9.51034 -0.18742,13.36861 -1.71357,3.43493 -1.54053,12.59276 0.3615,19.13139 0.99216,3.41077 1.02073,3.35491 1.12048,-2.19098 0.0563,-3.13004 0.58307,-5.98808 1.17061,-6.3512 0.72972,-0.45099 0.99608,1.8114 0.84052,7.13909 -0.25061,8.58287 -0.555,8.12398 7.19056,10.8404 2.52963,0.88716 5.67288,2.75576 6.985,4.15245 l 2.38567,2.53943 -2.985,-1.14414 c -6.97648,-2.67406 -16.31828,2.38876 -18.62714,10.09504 -1.72977,5.77344 -0.55268,8.69893 3.83095,9.52131 2.01998,0.37895 8.20385,3.06709 13.74194,5.97365 8.36747,4.3915 10.12273,5.71902 10.38567,7.8548 0.17403,1.41358 -0.16347,2.57015 -0.75,2.57015 -0.58696,0 -1.06685,-0.56971 -1.06685,-1.26602 0,-1.3807 -8.13353,-7.03221 -11.75,-8.16437 -3.47283,-1.0872 -2.72134,0.83464 2.32986,5.95838 2.51892,2.5551 4.30948,4.916 3.97903,5.24645 -0.33045,0.33045 -2.52092,-1.28361 -4.86771,-3.58681 -4.18442,-4.10669 -5.94011,-4.79681 -9.10939,-3.58064 -2.88528,1.10719 -1.65715,3.11318 6.29482,10.28177 l 7.87661,7.10066 0.45858,-5.5299 c 0.25222,-3.04145 1.0105,-6.07657 1.68506,-6.74471 0.96776,-0.95855 1.0961,-0.16008 0.60839,3.78519 -0.33995,2.75 -0.11434,7.25 0.50135,10 2.08464,9.31109 2.31585,16.21167 0.71157,21.23727 -3.84578,12.0474 -3.36676,13.77266 4.1136,14.81552 2.56753,0.35794 6.24323,1.62666 8.16823,2.81936 5.12778,3.17712 10.67291,4.8586 13.77534,4.17719 2.27648,-0.5 2.72466,-1.12677 2.72466,-3.81041 0,-2.46515 -0.59893,-3.49904 -2.57587,-4.44656 -1.41672,-0.67902 -4.83423,-3.66105 -7.59446,-6.62674 -2.76022,-2.96569 -5.87608,-5.87194 -6.92413,-6.45833 -2.09369,-1.17145 -2.16198,-2.49348 -1.14712,-22.2073 0.55788,-10.837 1.31972,-18.42619 2.34001,-23.31062 0.42822,-2.04996 -0.13019,-3.89453 -2.06328,-6.81562 l -2.65038,-4.00501 0.0854,-28.93437 c 0.0747,-25.32388 -0.10525,-28.93438 -1.44239,-28.93438 -1.30819,0 -1.52778,2.35412 -1.52778,16.37836 l 0,16.37836 -4.18965,1.06345 c -2.30431,0.58489 -4.55431,0.83807 -5,0.56262 -0.44569,-0.27545 -0.81035,-4.52427 -0.81035,-9.44181 0,-9.39721 -0.62834,-10.49229 -4.17739,-7.28044 -1.00918,0.91329 -2.16961,1.32501 -2.57874,0.91492 -0.93212,-0.93429 4.58831,-5.79721 5.75941,-5.07344 0.47219,0.29183 1.18415,0.004 1.58213,-0.64022 0.4237,-0.68555 0.29225,-0.90422 -0.31715,-0.5276 -0.57241,0.35378 0.31572,-2.05063 1.97363,-5.34312 1.95729,-3.88702 4.22253,-6.73302 6.45945,-8.11552 2.45336,-1.51626 3.13613,-2.43809 2.37186,-3.20236 -0.59026,-0.59026 -1.0732,-1.83335 -1.0732,-2.76242 0,-0.92907 -0.79325,-2.66883 -1.76277,-3.86615 l -1.76278,-2.17693 -4.78131,2.04951 c -4.22435,1.81077 -4.65969,2.27677 -3.73723,4.00041 1.57952,2.95136 1.25893,5.86754 -0.88022,8.00669 -2.52192,2.52192 -6.08578,4.39893 -6.86767,3.61705 -0.34137,-0.34138 0.37217,-0.88032 1.58565,-1.19766 2.74803,-0.71862 2.84401,-1.94368 0.20633,-2.63345 -1.44125,-0.37689 -2,-1.36402 -2,-3.5333 0,-1.65566 0.53892,-3.18992 1.19759,-3.40948 0.92193,-0.30731 0.90721,-1.10024 -0.0639,-3.44476 -0.69383,-1.67506 -1.3676,-5.35486 -1.49726,-8.17733 -0.2494,-5.42896 -2.20223,-8.98546 -6.83163,-12.44181 -2.42425,-1.80996 -2.94105,-1.83575 -9.01679,-0.44986 -6.90963,1.57608 -9.78801,0.80739 -9.78801,-2.61395 0,-1.05465 -0.83882,-1.63976 -2.35078,-1.63976 -4.55359,0 -8.58943,-2.16725 -10.87233,-5.83845 l -2.27689,-3.66155 -0.6081,4 -0.60809,4 -0.14191,-4.02749 c -0.078,-2.21513 -0.79182,-4.95539 -1.58616,-6.08947 -2.36709,-3.37949 -3.02322,-11.57836 -1.20756,-15.08945 3.04163,-5.88187 13.09634,-8.1492 19.31719,-4.35602 2.61619,1.59524 3.38226,2.93916 4.41554,7.74626 1.3449,6.25683 1.43218,13.57732 0.18836,15.79884 -0.4231,0.75567 -0.79631,-2.53129 -0.82936,-7.30436 -0.0847,-12.2363 -2.53619,-16.17831 -10.061,-16.17831 -5.90325,0 -10.20747,2.34544 -11.94775,6.51052 -1.39857,3.34724 -1.0621,6.48948 0.69488,6.48948 0.50164,0 0.64245,1.07424 0.31292,2.38719 -0.44098,1.75699 -0.0196,2.79313 1.59612,3.92483 1.2074,0.84569 3.00265,2.86525 3.98945,4.48791 2.44063,4.01331 10.50725,6.93378 12.97735,4.69837 2.24319,-2.03006 2.91161,-1.88348 2.28787,0.5017 -0.44838,1.71459 -0.0307,2 2.92695,2 1.89748,0 3.77383,0.32386 4.16967,0.7197 0.39583,0.39583 2.49583,0.83863 4.66666,0.984 l 3.94697,0.2643 0,-4.40645 c 0,-4.09557 0.22929,-4.47838 3.25,-5.42601 1.7875,-0.56076 6.31561,-1.32609 10.06248,-1.70074 6.68432,-0.66836 6.91282,-0.61206 12.14659,2.99257 5.96128,4.10569 6.50202,5.3104 6.54093,14.57263 0.0357,8.49818 0.7595,11 3.18237,11 3.37309,0 5.81763,1.93329 5.81763,4.60092 0,3.2958 -1.69552,6.39908 -3.49623,6.39908 -0.78422,0 -2.35563,0.99799 -3.49202,2.21777 -1.99456,2.1409 -2.06263,3.2185 -1.96403,31.09173 0.0562,15.88068 -0.16288,29.13899 -0.48679,29.4629 -0.32391,0.32392 0.61,1.84035 2.07537,3.36986 2.64029,2.75588 2.65746,2.86913 1.90586,12.56934 -0.82718,10.67551 -1.70245,30.01366 -1.57458,34.7884 0.12436,4.64322 0.76767,5.61225 7.63457,11.5 11.452,9.81907 11.39785,9.75772 11.39785,12.9144 0,2.64015 -0.48637,3.15104 -4.00281,4.20459 -4.53222,1.35788 -10.892,-0.058 -14.49719,-3.22747 -2.46351,-2.16578 -6.86718,-3.89152 -9.93024,-3.89152 -3.31357,0 -7.56976,-3.68948 -7.56976,-6.56185 0,-1.32918 0.89977,-4.78402 1.9995,-7.67742 2.22336,-5.84973 2.61459,-14.31884 0.84125,-18.2109 l -1.15925,-2.54428 -3.09075,2.3424 c -2.88706,2.18803 -17.47129,7.65205 -20.42438,7.65205 -1.05967,0 -1.26033,-3.12878 -0.99659,-15.5392 l 0.33022,-15.5392 2.5,-0.55061 c 12.07844,-2.66021 13.48564,-6.72024 3.231,-9.32207 -2.60205,-0.6602 -5.56232,-1.64746 -6.57838,-2.19393 -2.47671,-1.33204 -2.91167,-0.66653 -1.6806,2.57142 1.46187,3.84501 1.27168,10.23882 -0.41413,13.92246 -3.50335,7.65509 -5.26768,15.22758 -4.81255,20.65532 0.3277,3.90798 -0.18127,7.62055 -1.75508,12.80197 -3.96999,13.07031 -2.1324,21.74039 7.18204,33.88616 4.32224,5.63609 4.82772,9.50532 1.3277,10.16315 -1.1,0.20674 -2.225,0.7173 -2.5,1.13458 -0.86658,1.31492 -6.38168,1.89452 -9.3807,0.98584 z m 6.44644,-2.01107 c 3.43904,-1.84052 2.06448,-2.96482 -3.62476,-2.96482 -6.90379,0 -6.37748,-1.69508 0.57495,-1.85171 3.6275,-0.0817 5.22109,0.3058 5.62902,1.36885 0.61433,1.60091 4.35505,2.08144 4.35505,0.55946 0,-0.50788 -1.56867,-2.97848 -3.48594,-5.49023 -7.36653,-9.65068 -9.82735,-15.2659 -10.28746,-23.47441 -0.34167,-6.09532 -0.008,-8.66537 1.67336,-12.89898 2.10223,-5.29254 2.91859,-14.83691 1.17698,-13.76053 -0.89954,0.55595 -1.28736,2.04436 -2.56007,9.82534 -0.84611,5.17283 -2.46566,3.76758 -1.761,-1.52798 0.52862,-3.97256 2.04941,-8.2396 4.18771,-11.74981 3.65009,-5.99198 5.24406,-18.90204 2.88133,-23.33698 -1.06492,-1.99891 -1.01764,-2.05185 0.62323,-0.69774 0.97657,0.80591 2.18557,2.38091 2.68665,3.5 0.58721,1.31142 0.68114,-0.45364 0.26426,-4.96528 -0.35575,-3.85 -0.6206,-7.76681 -0.58855,-8.70402 0.032,-0.93721 -1.50286,-3.07471 -3.41091,-4.75 -5.64078,-4.95267 -13.35885,-3.87304 -19.71106,2.75724 -2.38636,2.49082 -2.62064,3.24514 -1.733,5.57981 0.56451,1.48479 2.38527,3.46852 4.04611,4.40829 3.46302,1.95951 4.9766,6.10308 5.00756,13.70868 0.0112,2.75 0.69866,7.87755 1.5277,11.39455 1.65832,7.03511 1.34133,9.29654 -0.51479,3.67245 -0.64747,-1.96185 -1.51014,-3.567 -1.91704,-3.567 -0.9434,0 -4.10507,9.95179 -4.10507,12.92128 0,1.23502 0.94549,5.92047 2.1011,10.41211 1.47749,5.74276 1.94804,9.90399 1.58542,14.02032 -0.38212,4.33769 0.002,7.31602 1.48328,11.5 1.09943,3.10546 2.24313,6.92516 2.54157,8.48822 0.33546,1.75694 1.7349,3.56895 3.66562,4.74626 3.56706,2.17511 4.96476,2.33446 7.68875,0.87663 z M 670.2665,826.74014 c 0,-1.37216 3.11659,-6.50936 3.94904,-6.50936 1.02182,0 -1.58383,5.65625 -3.01236,6.53914 -0.51518,0.31839 -0.93668,0.30499 -0.93668,-0.0298 z m 6.69385,-50.14884 c -1.06481,-1.06481 0.26976,-2.31172 1.83243,-1.71206 0.80423,0.30861 1.21326,0.96396 0.90896,1.45632 -0.6482,1.04882 -1.83738,1.15975 -2.74139,0.25574 z m -2.66243,-14.11052 c 0.0173,-0.4125 1.19002,-1.59451 2.60607,-2.62669 l 2.57463,-1.87669 -1.72107,2.62669 c -1.62739,2.48372 -3.52826,3.51485 -3.45963,1.87669 z m -11.36548,34 c 0.0278,-2.6125 0.97695,-7.45 2.1092,-10.75 4.73698,-13.80609 3.69312,-22.04391 -3.34761,-26.41845 -4.78854,-2.9752 -5.79086,-4.94783 -7.40911,-14.58155 -0.64671,-3.85 -1.86611,-9.81514 -2.70977,-13.25587 -0.84366,-3.44073 -1.33334,-7.62256 -1.08818,-9.29295 0.36095,-2.45929 0.14458,-2.92046 -1.13736,-2.4241 -4.98559,1.93042 -6.58389,1.54708 -10.87999,-2.60941 -2.36328,-2.28649 -4.46766,-3.98646 -4.67641,-3.77772 -0.20874,0.20875 -0.48367,11.74003 -0.61094,25.62508 l -0.23141,25.24554 9.36879,13.24471 c 14.61133,20.65614 17.06644,23.74472 18.87469,23.74472 1.33945,0 1.69797,-0.9798 1.7381,-4.75 z m 39.00012,-6.56892 c 3.28941,-1.19959 7.07271,-2.91121 8.40734,-3.8036 l 2.4266,-1.62251 -8.93097,-9.12749 c -4.91203,-5.02011 -9.74953,-9.12748 -10.75,-9.12748 -1.66901,0 -1.81903,1.11498 -1.81903,13.51905 l 0,13.51905 2.34265,-0.58796 c 1.28846,-0.32339 5.03399,-1.56946 8.32341,-2.76906 z m -10.90032,-49.1004 c 1.21236,-2.81043 3.33293,-4.98073 7.49506,-7.67085 3.19239,-2.06334 5.45219,-3.95481 5.02178,-4.20327 -0.43042,-0.24845 -2.94067,-0.76473 -5.57834,-1.14728 -4.1477,-0.60156 -4.71291,-0.95661 -4.18261,-2.62742 0.34452,-1.08551 0.14552,-1.93186 -0.45424,-1.93186 -0.58707,0 -1.06739,-1.66101 -1.06739,-3.69113 0,-3.21684 -0.16217,-3.46934 -1.2621,-1.9651 -2.26819,3.10193 -11.26037,4.46214 -20.60946,3.11751 -4.53988,-0.65294 -8.76601,-1.69885 -9.39139,-2.32423 -1.36965,-1.36965 -3.09171,-1.51991 -2.27503,-0.19851 0.31902,0.5162 -0.17937,1.36353 -1.10755,1.88296 -1.24862,0.69877 -1.64231,2.14159 -1.51351,5.5468 0.0958,2.53131 -0.28765,6.66271 -0.85199,9.1809 -0.86957,3.88024 -0.71935,5.27189 0.98499,9.12483 l 2.01105,4.54632 3.27116,-2.87212 c 1.79914,-1.57966 5.14917,-3.49191 7.44451,-4.24945 3.63118,-1.19839 4.79689,-1.17205 8.97298,0.20277 4.38428,1.44337 4.95223,1.44201 6.56298,-0.0157 0.96985,-0.8777 1.82464,-2.53857 1.89954,-3.69083 0.12209,-1.87825 0.18214,-1.85368 0.58036,0.23746 0.25289,1.328 -0.27521,3.12737 -1.22632,4.17833 -1.681,1.85749 -1.24063,6.57101 0.51268,5.48741 0.4724,-0.29196 1.22694,0.039 1.67677,0.73548 0.56108,0.86873 0.90852,0.48138 1.10661,-1.23369 0.15881,-1.375 1.04957,-4.26369 1.97946,-6.41932 z m -20.26574,-7.58068 c 1.1,-0.47269 2.9,-0.88417 4,-0.9144 1.65073,-0.0454 1.73805,0.11431 0.5,0.9144 -0.825,0.53316 -2.625,0.94464 -4,0.9144 -2.28958,-0.0503 -2.33166,-0.12731 -0.5,-0.9144 z m -7.52852,-2.41729 c 4.43128,-3.34801 5.70714,-5.53836 3.89485,-6.68648 -2.79438,-1.7703 -4.9023,-0.9664 -5.51633,2.10377 -0.33,1.65 -0.99375,3 -1.475,3 -1.28031,0 -1.07255,-1.7173 0.59876,-4.94926 1.43295,-2.77102 1.59217,-2.81913 5.75,-1.73752 2.35193,0.61183 6.63874,1.12915 9.52624,1.1496 2.8875,0.0205 5.25,0.37468 5.25,0.78718 0,0.83716 -3.823,1.22445 -8.75,0.88641 -2.19255,-0.15042 -3.25,0.22244 -3.25,1.14599 0,1.84604 -3.92023,5.32129 -7,6.20544 -2.15408,0.61841 -2.01966,0.3548 0.97148,-1.90513 z m 24.02852,1.7064 c 0,-0.57432 0.7875,-1.66182 1.75,-2.41667 1.61876,-1.26951 1.63998,-1.22245 0.28297,0.62756 -0.80687,1.1 -1.59437,2.1875 -1.75,2.41667 -0.15563,0.22916 -0.28297,-0.0532 -0.28297,-0.62756 z m -9.55887,-4.83885 c 2.1498,-1.60616 3.97929,-1.93952 3.13347,-0.57097 -0.29889,0.48361 -1.56295,1.13623 -2.80902,1.45027 -2.18576,0.55085 -2.19719,0.51987 -0.32445,-0.8793 z m 5.55887,-2.34185 c 0,-0.60963 0.8632,-1.10841 1.91821,-1.10841 1.05502,0 2.74252,-0.29123 3.75,-0.64718 1.27979,-0.45215 1.53045,-0.32281 0.83179,0.42924 -1.51322,1.62886 -6.5,2.64643 -6.5,1.32635 z m -66.41821,12.89159 c 1.13424,0 1.41821,-2.10246 1.41821,-10.5 0,-5.775 -0.3375,-10.49776 -0.75,-10.49503 -0.4125,0.003 -1.91569,1.01523 -3.34041,2.25 -2.49721,2.16425 -2.57437,2.56225 -2.14465,11.06159 0.36654,7.24971 0.70815,8.71588 1.9222,8.25 0.81204,-0.31161 2.11463,-0.56656 2.89465,-0.56656 z m 103.19574,-16.50154 c 0.15264,-0.1211 0.15264,-6.9203 0,-15.10932 l -0.27753,-14.88914 -3,4.5447 c -2.94762,4.46535 -2.99454,4.74042 -2.68755,15.75338 l 0.31244,11.20868 2.68756,-0.64406 c 1.47815,-0.35423 2.81244,-0.74314 2.96508,-0.86424 z m -84.53278,-11.99846 c 0.56206,-2.94023 0.52718,-2.95054 -3.29441,-0.97432 -3.74996,1.93918 -3.77953,3.47432 -0.0669,3.47432 2.28155,0 2.98318,-0.52184 3.36133,-2.5 z m -17.24475,-19.5921 0,-13.04075 -2.75,0.31643 -2.75,0.31642 -0.2777,14.29001 -0.2777,14.29 3.0277,-1.56569 3.0277,-1.56568 0,-13.04074 z m 6.14986,0.86749 c -0.2066,-5.03449 0.10474,-9.3826 0.75942,-10.60588 0.66614,-1.2447 3.30383,-2.76493 6.60015,-3.804 6.47081,-2.03975 7.73624,-4.828 1.74057,-3.83517 -5.58306,0.92449 -9.20928,2.52506 -10.28822,4.54107 -1.51213,2.82545 -1.25311,23.19532 0.28822,22.66594 0.90686,-0.31147 1.15388,-2.77165 0.89986,-8.96196 z m 21.85014,5.16559 c 0,-1.06754 -0.6126,-1.94098 -1.36133,-1.94098 -0.91116,0 -1.20403,0.82286 -0.88565,2.48835 0.53963,2.8229 2.24698,2.40699 2.24698,-0.54737 z m 19,-2.88196 c 0,-2.35618 -1.27517,-3.2744 -3.40976,-2.45528 -2.66933,1.02432 -1.97155,4.39626 0.90976,4.39626 1.80799,0 2.5,-0.53727 2.5,-1.94098 z m 43.8,-5.25902 c 1.42475,-1.42475 1.59046,-3.8 0.2651,-3.8 -2.75774,0 -5.98112,2.05527 -5.43901,3.46799 0.70176,1.82876 3.49774,2.00818 5.17391,0.33201 z m 23.99305,-6.8 c 0.38882,0.275 0.84568,-0.47385 1.01525,-1.66411 0.35827,-2.51492 -2.15924,-3.67404 -6.33509,-2.91681 -3.48719,0.63235 -4.45613,1.58092 -1.61488,1.58092 1.65818,0 2.34496,0.76643 2.8214,3.14864 0.59318,2.96592 0.71029,3.03846 2.01804,1.25 0.76358,-1.04425 1.70645,-1.67364 2.09528,-1.39864 z m -5.79305,0.55902 c 0,-0.79254 -0.41891,-1.69988 -0.9309,-2.01632 -1.18889,-0.73477 -2.38461,1.13778 -1.5691,2.4573 0.91956,1.48787 2.5,1.20909 2.5,-0.44098 z m -19,-0.81847 c 0,-0.6927 0.875,-1.8059 1.94444,-2.47378 1.61499,-1.00858 1.88264,-2.108 1.57971,-6.48897 -0.41817,-6.04762 -2.05219,-7.7695 -5.76687,-6.07698 -2.1148,0.96357 -2.38781,1.72494 -2.31138,6.4459 0.086,5.31498 1.73922,9.85328 3.58928,9.85328 0.53065,0 0.96482,-0.56675 0.96482,-1.25945 z m 9.75,-5.37084 c 2.05966,-0.55196 2.25,-1.1909 2.25,-7.55276 l 0,-6.9498 -2.75,0.31643 c -2.68644,0.30911 -2.75679,0.48398 -3.04381,7.56642 -0.16159,3.9875 0.0634,7.24385 0.5,7.23635 0.4366,-0.008 1.80631,-0.285 3.04381,-0.61664 z m 7.7063,-10.61971 c -0.61357,-9.89998 -0.74319,-10.34639 -3.79578,-13.07279 -5.6353,-5.03311 -7.30087,-5.47334 -15.97264,-4.22175 -8.31909,1.20069 -9.64702,2.14581 -9.67257,6.88425 -0.0212,3.92797 3.47066,6.61796 7.6998,5.93167 2.01635,-0.32721 4.11946,0.0454 5.55129,0.9836 2.0944,1.3723 2.51769,1.33827 4.63015,-0.3723 3.0044,-2.43281 6.75148,-2.40886 8.06827,0.0516 0.56935,1.06384 1.03518,4.36384 1.03518,7.33334 0,2.96949 0.3,5.69907 0.66667,6.06574 1.95204,1.95204 2.36688,-0.26938 1.78963,-9.58334 z m -17.0063,-1.82076 c 0.58847,-0.57562 -0.64833,-0.92924 -3.25,-0.92924 -3.97592,0 -5.09751,0.76915 -3.48011,2.38655 0.85108,0.85108 5.37066,-0.12757 6.73011,-1.45731 z m -25.95,-4.85799 c 1.73905,-0.68534 1.56663,-0.8843 -1.32151,-1.52488 -3.55467,-0.78841 -4.78141,-0.33094 -3.71961,1.3871 0.75577,1.22285 2.1884,1.26201 5.04112,0.13778 z m 36.16667,153.26208 c -0.96728,-0.96728 -0.81898,-5.33333 0.18115,-5.33333 0.4663,0 0.8862,1.35 0.93312,3 0.0897,3.15501 -0.0339,3.41375 -1.11427,2.33333 z m -38.66667,-3.15062 c 0,-1.11086 33.85276,-13.66328 34.66313,-12.85291 0.77346,0.77346 -2.93642,2.36437 -20.49886,8.79057 -14.64743,5.35959 -14.16427,5.22102 -14.16427,4.06234 z m 37,-49.06608 c 0,-0.48585 0.9,-1.11872 2,-1.40638 1.1,-0.28766 2,-1.24014 2,-2.11663 0,-0.87649 0.45,-1.59362 1,-1.59362 1.62963,0 1.14087,2.56254 -0.82874,4.34501 -1.97704,1.7892 -4.17126,2.1951 -4.17126,0.77162 z m 1.92633,-18.20964 c -2.69406,-3.40153 -2.90389,-3.96535 -1.12055,-3.01093 2.39042,1.27931 5.77885,5.85264 4.95023,6.68126 -0.2832,0.2832 -2.00655,-1.36845 -3.82968,-3.67033 z M 674.91916,716.1722 c -1.45896,-1.14762 -2.65266,-2.76353 -2.65266,-3.59092 0,-0.99372 1.05965,-0.44469 3.12179,1.61745 3.66774,3.66774 3.35536,4.98182 -0.46913,1.97347 z m 8.34734,-4.31898 c 0,-0.20765 0.6853,-0.9463 1.52289,-1.64144 1.27335,-1.05678 1.41968,-0.99492 0.89301,0.37756 -0.53789,1.40173 -2.4159,2.38422 -2.4159,1.26388 z m -10.5,-2.62244 c -0.33992,-0.55 -0.14148,-1 0.44098,-1 0.58246,0 1.05902,0.45 1.05902,1 0,0.55 -0.19844,1 -0.44098,1 -0.24254,0 -0.7191,-0.45 -1.05902,-1 z m -11.0573,-3.41824 c -2.90688,-2.12556 -1.08044,-2.96291 2.46437,-1.12982 1.70111,0.87968 3.09293,1.81286 3.09293,2.07374 0,1.02825 -3.7256,0.39545 -5.5573,-0.94392 z m 10.82299,0.23776 c -0.88059,-1.06155 -0.0201,-1.36673 4.40161,-1.56102 6.61151,-0.29051 7.3327,-0.66597 7.3327,-3.81752 0,-1.34254 0.45,-2.44098 1,-2.44098 0.55,0 1,0.9 1,2 0,1.11111 0.66667,2 1.5,2 0.825,0 1.5,0.44496 1.5,0.9888 0,0.54384 -1.0125,0.95924 -2.25,0.92312 -2.012,-0.0587 -4.74547,0.56671 -11.31986,2.59009 -1.21149,0.37286 -2.52377,0.0898 -3.16445,-0.68249 z m 22.7843,-1.74931 c -1.14741,-1.61139 -1.67727,-3.18253 -1.17748,-3.49142 0.802,-0.49566 1.93357,0.80216 4.50875,5.17121 1.51368,2.5681 -1.32618,1.1361 -3.33127,-1.67979 z m -29.04999,-2.07021 c 0,-0.55 1.15156,-1 2.55902,-1 1.45136,0 2.2915,0.43284 1.94098,1 -0.33992,0.55 -1.49148,1 -2.55902,1 -1.06754,0 -1.94098,-0.45 -1.94098,-1 z m 4.25,-4.07854 c -1.2375,-0.47135 -2.25,-1.32533 -2.25,-1.89771 0,-0.68613 0.61955,-0.65378 1.81844,0.0949 1.47148,0.91895 2.61249,0.63436 5.98013,-1.49153 2.28893,-1.4449 4.84563,-2.62712 5.68156,-2.62712 0.89926,0 1.51987,-0.89833 1.51987,-2.2 0,-1.51322 0.32241,-1.87759 1.03278,-1.16722 1.73063,1.73063 0.10459,3.92399 -4.32267,5.83087 -2.31556,0.99733 -4.88511,2.37617 -5.71011,3.06408 -0.98926,0.82488 -2.26611,0.95894 -3.75,0.39373 z m 14.75,-5.92146 c 0,-0.55 1.32344,-1 2.94098,-1 1.61754,0 3.2191,0.45 3.55902,1 0.3678,0.59512 -0.82295,1 -2.94098,1 -1.95746,0 -3.55902,-0.45 -3.55902,-1 z m 12.67094,0 c -1.52292,-4.06541 -2.41601,-9 -1.62888,-9 1.07662,0 3.24783,7.68922 2.63292,9.32433 -0.29374,0.78109 -0.63072,0.67224 -1.00404,-0.32433 z m -25.42094,-1.39205 c 0.9625,-0.73064 1.75,-1.77158 1.75,-2.3132 0,-1.51174 3.91593,-4.71215 4.7478,-3.88028 0.40455,0.40454 -0.0482,1.17414 -1.00613,1.71022 -0.95792,0.53608 -1.74167,1.6115 -1.74167,2.38982 0,0.77832 -0.87042,1.88096 -1.93426,2.45031 -2.72872,1.46037 -3.90508,1.22917 -1.81574,-0.35687 z m -13.51188,-5.26766 c -2.05597,-1.46284 -3.73812,-3.03784 -3.73812,-3.5 0,-1.34797 0.92332,-1.00056 4.41111,1.65971 3.96092,3.02114 6.92808,3.16495 10.31602,0.5 1.39842,-1.1 3.36607,-2 4.37254,-2 2.65658,0 4.13466,-3.52691 3.48886,-8.32486 l -0.56197,-4.17514 1.46402,3 c 2.49429,5.11116 0.5114,9.90138 -4.55968,11.01518 -1.61199,0.35405 -2.9309,0.98574 -2.9309,1.40376 0,0.99362 -4.61309,3.08106 -6.80893,3.08106 -0.94316,0 -3.39698,-1.19687 -5.45295,-2.65971 z m 25.26188,-0.43391 c 0,-0.49851 0.9,-0.90638 2,-0.90638 1.1,0 2,0.17252 2,0.38337 0,0.21085 -0.9,0.61872 -2,0.90638 -1.1,0.28765 -2,0.11514 -2,-0.38337 z m -2.37177,-4.18412 c -1.67243,-1.22723 -1.32638,-1.36545 3.2493,-1.29788 2.81659,0.0416 5.12139,0.41312 5.12177,0.82562 3.9e-4,0.4125 -0.5618,0.75615 -1.2493,0.76365 -0.6875,0.008 -2.15,0.25406 -3.25,0.54789 -1.1,0.29383 -2.8423,-0.0838 -3.87177,-0.83928 z m 11.37177,-2.60423 c 0,-1.1 0.45,-2.27811 1,-2.61803 0.55,-0.33992 1,0.28197 1,1.38197 0,1.1 -0.45,2.27811 -1,2.61803 -0.55,0.33992 -1,-0.28197 -1,-1.38197 z m -43,-11.11803 c 0,-0.55 0.47656,-1 1.05902,-1 0.58246,0 0.7809,0.45 0.44098,1 -0.33992,0.55 -0.81648,1 -1.05902,1 -0.24254,0 -0.44098,-0.45 -0.44098,-1 z m 21,-3.03979 c -0.825,-0.55504 -4.2,-0.79077 -7.5,-0.52384 -5.51176,0.44582 -5.69485,0.39905 -2.25,-0.57487 3.88061,-1.0971 4.53509,-2.52603 2.71482,-5.92724 -0.59561,-1.11291 -0.64104,-1.93426 -0.10699,-1.93426 1.11432,0 2.14217,2.43833 2.14217,5.08179 0,1.86611 1.56596,2.29643 8.25,2.26709 2.18114,-0.01 2.28335,1.23248 0.16821,2.04413 -1.92823,0.73993 -1.6164,0.77941 -3.41821,-0.4328 z m 19,-1.96021 c -1.29269,-0.8354 -1.26629,-0.97149 0.19098,-0.98469 0.93004,-0.008 1.9691,0.43469 2.30902,0.98469 0.78218,1.2656 -0.54163,1.2656 -2.5,0 z m -39.62588,-2.30881 c 1.03077,-0.65515 3.43589,-2.21905 5.34471,-3.47533 1.90883,-1.25627 3.28463,-1.72624 3.05734,-1.04438 -0.22728,0.68186 -2.36568,2.27223 -4.75199,3.53414 -4.54521,2.40356 -6.8676,3.03064 -3.65006,0.98557 z"
       id="path3199"
       inkscape:connector-curvature="0" />
  </g>
</svg>
