<?xml version="1.0" encoding="UTF-8" standalone="no"?>
<!-- Created with Inkscape (http://www.inkscape.org/) -->

<svg
   xmlns:dc="http://purl.org/dc/elements/1.1/"
   xmlns:cc="http://creativecommons.org/ns#"
   xmlns:rdf="http://www.w3.org/1999/02/22-rdf-syntax-ns#"
   xmlns:svg="http://www.w3.org/2000/svg"
   xmlns="http://www.w3.org/2000/svg"
   xmlns:sodipodi="http://sodipodi.sourceforge.net/DTD/sodipodi-0.dtd"
   xmlns:inkscape="http://www.inkscape.org/namespaces/inkscape"
   width="809.00073"
   height="899.80756"
   id="svg2"
   version="1.1"
   inkscape:version="0.48.3.1 r9886"
   sodipodi:docname="Bicep-curl-2.svg">
  <defs
     id="defs4" />
  <sodipodi:namedview
     id="base"
     pagecolor="#ffffff"
     bordercolor="#666666"
     borderopacity="1.0"
     inkscape:pageopacity="0.0"
     inkscape:pageshadow="2"
     inkscape:zoom="0.7"
     inkscape:cx="281.41185"
     inkscape:cy="488.54478"
     inkscape:document-units="px"
     inkscape:current-layer="layer1"
     showgrid="false"
     fit-margin-top="0"
     fit-margin-left="0"
     fit-margin-right="0"
     fit-margin-bottom="0"
     inkscape:window-width="1855"
     inkscape:window-height="1056"
     inkscape:window-x="65"
     inkscape:window-y="24"
     inkscape:window-maximized="1" />
  <metadata
     id="metadata7">
    <rdf:RDF>
      <cc:Work
         rdf:about="">
        <dc:format>image/svg+xml</dc:format>
        <dc:type
           rdf:resource="http://purl.org/dc/dcmitype/StillImage" />
        <dc:title></dc:title>
      </cc:Work>
    </rdf:RDF>
  </metadata>
  <g
     inkscape:label="Ebene 1"
     inkscape:groupmode="layer"
     id="layer1"
     transform="translate(-442.29222,-312.27115)">
    <path
       style="fill:#000000"
       d="m 714.10399,1205.6954 c -6.24281,-1.6832 -13.36681,-6.0172 -16.28124,-9.9049 -6.72479,-8.9705 -10.1819,-21.3546 -9.27579,-33.2277 0.80369,-10.5311 7.21326,-32.3286 14.05709,-47.805 2.96601,-6.7073 5.69702,-13.8248 6.0689,-15.8168 0.47834,-2.5622 -0.24765,-7.3341 -2.48142,-16.3104 -2.85826,-11.4857 -3.09126,-13.5597 -2.45791,-21.8782 0.91952,-12.0769 3.49684,-18.811 9.71636,-25.3872 l 4.96346,-5.2482 -0.69887,-6.5259 -0.69887,-6.526 -5.02317,10.2488 c -7.33499,14.9657 -8.68922,18.7349 -12.40591,34.5285 -5.81286,24.7012 -7.73998,39.0662 -7.00553,52.2204 0.62658,11.2221 0.57292,11.645 -2.22077,17.5 -1.57458,3.3 -3.18564,8.475 -3.58014,11.5 -3.34571,25.655 -11.83455,39.7722 -29.16353,48.5 -7.41676,3.7354 -8.50416,3.9992 -16.44201,3.988 -9.18877,-0.013 -13.41548,-1.5403 -21.1887,-7.6566 -4.69454,-3.6938 -15.09706,-23.7267 -17.68367,-34.0547 -3.20715,-12.8058 -8.89614,-21.5531 -17.81513,-27.3922 -12.9599,-8.4846 -28.59131,-27.492 -31.23136,-37.9766 -1.29668,-5.1495 -2.78655,-7.5564 -9.66713,-15.6172 -2.45627,-2.8776 -4.96096,-6.8842 -5.56598,-8.9036 -1.67977,-5.6066 0.21569,-20.8843 3.58395,-28.8871 2.70161,-6.4189 3.38665,-8.2435 6.35483,-16.9261 0.90324,-2.6421 3.62971,-6.6113 6.76473,-9.848 2.88842,-2.9822 6.00327,-7.3901 6.92191,-9.79555 3.02458,-7.91975 11.03829,-12.75511 21.06675,-12.71139 10.25337,0.0447 15.55305,3.76844 21.50128,15.10754 2.93921,5.603 4.00019,6.6705 9.27742,9.3345 8.88219,4.4837 8.89343,4.4048 3.51576,-24.661 -3.38225,-18.28083 -3.27588,-21.07869 1.32408,-34.826 4.18658,-12.51186 6.68996,-17.15049 14.57911,-27.01421 7.18814,-8.98725 12.54807,-17.30771 14.52737,-22.55149 1.04321,-2.76377 0.89058,-4.04478 -1.12047,-9.40396 -5.30769,-14.14432 -6.09832,-20.17866 -4.07671,-31.11459 1.36164,-7.36575 6.90202,-19.54987 11.8431,-26.04469 7.2313,-9.50521 7.38035,-10.58693 4.13983,-30.04506 -1.59065,-9.55125 -2.01552,-15.25495 -1.60154,-21.5 0.3099,-4.675 1.00263,-15.7 1.5394,-24.5 0.55088,-9.03121 1.7684,-19.02831 2.79538,-22.95286 l 1.81943,-6.95286 -2.35972,-5.84207 c -2.27948,-5.64344 -2.30661,-6.02473 -0.79796,-11.21432 2.66451,-9.16558 11.2422,-24.94657 18.86325,-34.70405 12.69971,-16.25987 12.69079,-16.24228 12.69079,-25.02846 0,-15.06588 6.66597,-27.22417 25.69261,-46.86161 7.9732,-8.22916 8.36688,-8.85645 10.29874,-16.40996 1.10476,-4.31956 2.01036,-9.91925 2.01246,-12.44377 0.005,-5.90268 2.15528,-18.73408 5.41842,-32.33181 3.24849,-13.53672 3.37021,-17.75823 0.51203,-17.75823 -3.62801,0 -5.74515,1.86524 -8.957,7.89128 -3.8269,7.18002 -16.43294,18.03569 -27.41925,23.61205 -6.10877,3.10065 -9.42417,4.00113 -20.667,5.61322 -7.36505,1.05607 -16.76601,2.87953 -20.89101,4.05214 -5.40729,1.53712 -11.23039,2.24449 -20.86924,2.53513 -11.09578,0.33458 -14.47455,0.81917 -19.86906,2.84966 -8.88182,3.3431 -17.12213,3.31703 -23.9305,-0.0757 -2.78382,-1.38723 -5.84646,-3.38962 -6.80586,-4.44975 -0.9594,-1.06013 -3.68838,-7.82563 -6.0644,-15.03444 -3.51306,-10.65862 -5.46428,-14.77759 -10.44569,-22.05065 -3.36911,-4.91903 -7.33455,-11.53102 -8.81208,-14.6933 -2.58771,-5.53835 -2.68568,-6.37425 -2.66629,-22.74961 0.0111,-9.35 0.41509,-35.225 0.89783,-57.5 0.81896,-37.7895 0.75933,-40.72875 -0.89102,-43.91792 -2.40595,-4.64932 -4.46655,-16.86387 -4.5088,-26.72664 l -0.0349,-8.14459 -52.13563,0.14456 c -48.3395,0.13403 -52.21513,0.0191 -53.22752,-1.57792 -2.62204,-4.13629 -1.19015,-4.2601 53.41261,-4.61864 l 51.95054,-0.34112 0,-5.90888 0,-5.90888 -54.25,-0.0153 c -29.8375,-0.008 -54.85678,-0.39985 -55.59839,-0.86983 -0.74162,-0.46998 -1.18551,-1.70059 -0.98642,-2.73469 0.34835,-1.80938 2.43888,-1.8899 55.52079,-2.1386 l 55.15881,-0.25843 0.63338,-2.88373 c 0.34835,-1.58605 1.88075,-4.85064 3.40532,-7.25464 5.00905,-7.89846 14.92038,-9.57608 53.21621,-9.00753 3.62984,0.0539 7.90484,0.63788 9.5,1.29777 1.59517,0.65989 6.39701,1.49512 10.67077,1.85606 7.06572,0.59675 8.08842,0.96445 11.27625,4.05422 1.92819,1.86887 4.01521,5.09821 4.63782,7.17632 l 1.13204,3.77839 110.70339,0 110.7034,0 6.55169,-2.97068 c 11.22818,-5.0911 21.88197,-7.41682 34.22494,-7.47131 12.41008,-0.0548 17.49568,1.26095 27.00346,6.98624 l 5.76085,3.469 71.11776,-0.25663 71.1179,-0.25662 0.5496,-4.78296 c 0.4339,-3.77591 1.322,-5.55534 4.218,-8.45136 3.5103,-3.51025 3.9824,-3.67494 10.9504,-3.81993 4.0051,-0.0833 8.632,-0.59797 10.282,-1.14363 4.6508,-1.53805 28.247,-1.37944 32.8926,0.22109 2.1698,0.74758 5.1945,1.10936 6.7215,0.80397 1.546,-0.30919 5.803,0.36406 9.6061,1.51922 7.1265,2.16459 9.8355,4.30463 14.7522,11.6536 l 2.6761,4 34.1625,0.5 c 32.4278,0.47461 34.181,0.59548 34.5242,2.38017 0.1989,1.0341 -0.2452,2.26471 -0.9868,2.73469 -0.7416,0.46998 -16.0748,0.86141 -34.0737,0.86983 l -32.7252,0.0153 0.9752,2.5651 c 0.5364,1.4108 0.9753,4.1108 0.9753,6 l 0,3.4349 34.25,0.0153 c 18.8375,0.008 34.8568,0.39984 35.5984,0.86983 0.7416,0.46998 1.1856,1.70059 0.9866,2.73468 -0.3447,1.79079 -2.0022,1.89267 -34.8649,2.14287 l -34.5031,0.26269 -0.012,13.73731 c -0.01,7.55552 -0.6161,16.66231 -1.354,20.23731 -1.727,8.36671 -0.1661,17.15515 7.4327,41.84797 8.4123,27.33689 9.7753,34.80831 9.8786,54.15203 0.1,18.73695 -0.495,21.76596 -8.0184,40.81834 -4.0232,10.18839 -4.7077,13.02555 -5.355,22.19467 -0.8611,12.19986 -2.1236,15.25161 -9.1338,22.07984 -5.2571,5.12057 -9.8365,7.05598 -21.2758,8.99184 -9.9254,1.67968 -19.5541,0.69626 -30.6289,-3.12825 l -9.5,-3.28069 -28.5,-0.12177 c -26.8584,-0.11476 -28.932,-0.25615 -36,-2.45479 -4.125,-1.28317 -12.3554,-3.38062 -18.2898,-4.66102 -13.4983,-2.91237 -20.5714,-6.08788 -24.3234,-10.92006 -1.5877,-2.04475 -3.6469,-4.68531 -4.5758,-5.86792 l -1.6891,-2.15019 -2.31095,2.27748 c -1.27101,1.25261 -4.33592,5.30261 -6.81092,9 -4.2278,6.31589 -5.04439,6.97911 -13.5,10.96449 -20.70332,9.7581 -20.09938,9.10208 -23.3763,25.3919 -2.39984,11.92978 -3.58885,14.23056 -12.09513,23.4046 -6.5276,7.04003 -6.88557,7.68509 -8.02996,14.46978 -1.09779,6.5084 -1.02523,7.50239 0.8691,11.90588 3.59395,8.35436 4.6195,17.84151 3.23725,29.94724 -1.18002,10.33467 -1.13487,10.99347 1.41558,20.65688 3.09134,11.71278 2.87514,18.0974 -0.94094,27.78741 -3.79451,9.63524 -4.61189,13.78123 -5.42223,27.5031 -0.73134,12.38419 -0.86499,12.94831 -4.47592,18.89253 -2.04713,3.36995 -5.27562,7.49123 -7.17442,9.15839 -3.00977,2.64262 -8.8201,5.11753 -12.05481,5.13474 -0.57627,0.003 -3.4437,5.96808 -6.37204,13.25558 -2.92835,7.2875 -8.6002,20.675 -12.6041,29.75 -4.00391,9.075 -9.29971,22.58412 -11.76845,30.02027 -4.58775,13.81888 -6.86811,18.38013 -15.82488,31.65349 -4.51236,6.68702 -5.22036,8.45511 -6.08535,15.19685 -0.5681,4.42784 -0.66545,13.29445 -0.23198,21.12939 1.49313,26.98855 0.25201,42.37741 -4.67203,57.92926 -2.95192,9.32318 -4.2531,11.45709 -20.7752,34.07075 -8.2378,11.275 -18.4577,26.3106 -22.71089,33.4125 l -7.73308,12.9126 1.41289,12.0874 c 2.65882,22.7466 1.2752,33.2383 -6.40762,48.5875 -4.64927,9.2886 -31.09444,52.6234 -38.13208,62.4858 -6.22388,8.722 -15.43069,16.9457 -21.15508,18.8962 -5.5464,1.8898 -15.95284,2.0059 -22.46298,0.2506 z m 15.1075,-10.6396 c 10.6055,-2.0113 16.89559,-8.1069 33.5297,-32.493 4.50195,-6.6 9.54294,-14.7 11.20219,-18 1.65926,-3.3 6.17792,-9.916 10.04148,-14.7022 7.84467,-9.718 7.38086,-8.7028 10.06342,-22.0285 1.85335,-9.2067 1.87174,-10.0953 0.3415,-16.5 -1.04153,-4.3593 -1.52185,-10.0738 -1.34912,-16.0509 0.3188,-11.0317 -0.86723,-15.2425 -5.3393,-18.9562 -4.70857,-3.9102 -7.08604,-8.5645 -9.07315,-17.7622 -2.29109,-10.6049 -5.53668,-13.8801 -17.87671,-18.0401 -8.44454,-2.8467 -8.86996,-3.1362 -11.12475,-7.5704 -2.34248,-4.6067 -6.9687,-7.8895 -11.11805,-7.8895 -2.70043,0 -9.46259,3.7219 -12.13081,6.6767 -2.20127,2.4378 -2.26817,2.9953 -1.60908,13.4111 0.74459,11.7672 0.11837,13.9122 -4.06163,13.9122 -1.22241,0 -2.97691,0.8335 -3.89888,1.8523 -4.17074,4.6086 -6.01719,27.9988 -3.18415,40.3356 0.79723,3.4717 2.40383,12.0726 3.57023,19.1133 1.75406,10.5879 1.94451,13.9331 1.10155,19.3476 -1.09552,7.0367 -3.2528,11.3512 -5.67573,11.3512 -2.47815,0 -2.85205,-2.903 -1.24109,-9.6359 0.83749,-3.5002 1.38075,-6.3641 1.20723,-6.3641 -1.48385,0 -14.55502,32.2151 -16.38574,40.3842 -1.98201,8.8441 2.5412,23.8103 9.53622,31.5529 4.34474,4.8091 7.84461,6.848 13.76422,8.0185 2.29548,0.4539 4.22468,0.8746 4.28711,0.9348 0.0624,0.06 2.50294,-0.3436 5.42334,-0.8974 z m 47.05387,-94.1379 c -5.03894,-1.9001 -7.13215,-8.4269 -4.62615,-14.4246 3.22339,-7.7146 2.15521,-9.7931 -8.65249,-16.836 -3.99069,-2.6006 -6.30322,-4.9776 -7.75,-7.9663 -2.10867,-4.3559 -2.81992,-13.0418 -1.15232,-14.0724 2.9381,-1.8159 7.09024,3.9605 7.09024,9.8638 0,3.1565 0.54631,3.8684 5.30427,6.912 6.33311,4.0513 12.3426,10.7841 13.22944,14.8219 0.39493,1.7981 -0.0432,4.8219 -1.14099,7.8748 l -1.7821,4.9558 2.69469,2.8127 c 1.48208,1.5469 2.69469,3.3347 2.69469,3.9727 0,1.9221 -3.27638,3.0785 -5.90928,2.0856 z m -32.60304,-56.5103 c -2.91804,-2.918 -3.5986,-6.1436 -2.06876,-9.805 1.68573,-4.0345 5.27883,-7.8447 6.61755,-7.0173 1.30507,0.8066 1.21998,6.1298 -0.13855,8.6682 -0.82142,1.5349 -0.78303,2.6554 0.15073,4.4002 1.00677,1.8812 1.00277,2.6422 -0.0204,3.875 -1.6216,1.9539 -2.48874,1.9308 -4.54061,-0.1211 z m -88.20218,139.1023 c 6.74641,-2.3392 14.97719,-10.1814 18.65629,-17.7754 2.69541,-5.5636 6.89685,-24.1664 5.72307,-25.3402 -1.09469,-1.0947 -4.66486,5.2601 -4.66486,8.3034 0,2.0944 -0.49088,3.3651 -1.3,3.3651 -2.47711,0 -3.7,-2.4232 -3.7,-7.3316 0,-5.2919 1.12447,-6.7771 12.75322,-16.8452 4.72711,-4.0927 5.04382,-5.6245 2.73596,-13.2321 -2.07376,-6.836 -1.87004,-12.8198 1.01588,-29.8382 3.13014,-18.4587 6.4773,-28.9448 16.4416,-51.5089 4.33603,-9.8189 8.6506,-20.4907 9.58794,-23.715 1.8922,-6.509 1.93751,-7.6 1.64174,-39.529 -0.23768,-25.65674 0.69886,-36.74983 3.87771,-45.93069 2.74891,-7.93913 4.31852,-10.67277 14.23086,-24.78453 5.18131,-7.3764 8.37085,-13.02413 9.31831,-16.5 0.79231,-2.90663 1.8744,-12.89944 2.40465,-22.20625 0.88005,-15.44638 1.21336,-17.45134 3.82355,-23 1.5727,-3.34319 5.79415,-9.52056 9.381,-13.72749 5.80236,-6.80545 7.13282,-9.23157 12.06455,-22 3.04865,-7.89307 5.84967,-16.60104 6.22449,-19.35104 0.37482,-2.75 2.04193,-8.15 3.70469,-12 1.66276,-3.85 3.41492,-8.575 3.89369,-10.5 1.29169,-5.19355 -0.6816,-13.29281 -4.45186,-18.27237 -1.76051,-2.3252 -5.98172,-8.09524 -9.38045,-12.82231 -4.76675,-6.62976 -7.90943,-9.79057 -13.74629,-13.82559 -16.08983,-11.12289 -33.23339,-16.41732 -46.20165,-14.2684 -9.1079,1.50922 -17.65721,5.93045 -25.67592,13.27814 -11.33232,10.38401 -14.28036,17.33372 -15.65733,36.91053 -0.48356,6.875 -1.80322,18.125 -2.93257,25 -2.71673,16.53817 -2.61164,19.76819 1.05989,32.57589 3.08349,10.75642 3.09773,10.9122 1.46926,16.0783 -0.90442,2.86916 -3.19768,7.38321 -5.09612,10.03123 -9.7424,13.58906 -11.64432,18.49418 -12.26246,31.62531 -0.42771,9.08589 -0.22194,10.5169 2.78505,19.36859 2.66937,7.85784 3.15489,10.57236 2.72968,15.26166 -0.67246,7.41601 -2.73629,11.27864 -13.11608,24.54784 -10.03576,12.82941 -15.0905,22.27804 -17.12504,32.01118 -1.67385,8.00762 -1.86364,19.70877 -0.4911,30.27703 0.5198,4.00236 0.99991,12.53327 1.06691,18.95767 l 0.1218,11.6806 3.71762,4.2234 c 6.68633,7.5961 10.04414,15.6758 11.17944,26.9004 1.72215,17.0268 10.32449,36.9488 21.13477,48.9456 4.60289,5.1081 4.6772,5.2917 2.82167,6.9709 -1.16194,1.0515 -2.67332,1.481 -3.87242,1.1005 -3.29582,-1.0461 -11.1627,-10.2817 -13.91671,-16.338 -1.4301,-3.145 -4.68655,-9.0931 -7.23654,-13.2181 -7.22799,-11.6923 -9.04666,-16.8624 -9.96716,-28.3342 -1.33095,-16.587 -4.93912,-22.4431 -18.46839,-29.9742 -9.88355,-5.5018 -15.11206,-10.2489 -16.06454,-14.5856 -1.78837,-8.14229 -11.02961,-12.95516 -20.16771,-10.50333 -3.32857,0.89309 -8.5469,8.91503 -9.12276,14.02403 -0.42068,3.7323 -4.8e-4,5.228 2.68035,9.5405 3.70662,5.9627 3.65958,8.2071 -0.18131,8.6501 -3.52347,0.4065 -8.73187,-4.5088 -8.73187,-8.2404 0,-1.4173 -0.39459,-2.5769 -0.87686,-2.5769 -1.08222,0 -4.65191,8.2569 -5.62022,13 -0.39299,1.925 -2.07293,5.9027 -3.73319,8.8393 -2.69518,4.7671 -3.07309,6.4876 -3.52659,16.0554 l -0.50792,10.7162 5.4872,5.4445 c 4.74079,4.704 6.05374,6.9203 9.65204,16.293 2.29067,5.9666 5.46645,12.7166 7.0573,15 4.03141,5.7863 11.40497,12.6185 19.06824,17.6681 15.66338,10.3213 17.34698,12.5963 21.52453,29.0864 2.63621,10.4059 9.35598,25.9587 13.46615,31.1671 2.52506,3.1997 7.00492,5.7572 12.00932,6.856 5.01257,1.1005 15.70091,0.2575 21.2855,-1.6789 z m -99.28595,-118.9477 c -0.68494,-0.8253 -1.47813,-3.5657 -1.76264,-6.0899 -0.51171,-4.5399 -0.45183,-4.6517 5.54651,-10.3595 5.82856,-5.5463 6.04293,-5.9257 5.52591,-9.7804 -0.68166,-5.0822 0.89054,-6.1606 4.18229,-2.8689 1.82662,1.8266 2.50838,3.5763 2.50838,6.4375 0,3.9702 -1.09837,5.3574 -9.77147,12.3406 -1.83191,1.4749 -1.95526,2.1016 -1.01602,5.162 0.58796,1.9157 0.7948,4.1978 0.45964,5.0712 -0.77035,2.0075 -4.03732,2.0578 -5.6726,0.088 z m 88.91294,-56.1039 c -3.18992,-3.8414 -2.18503,-25.61012 2.09556,-45.3955 3.00643,-13.8961 15.69682,-42.13056 19.24195,-42.81084 3.58181,-0.68732 2.15292,6.99856 -3.66492,19.71337 -11.45184,25.02787 -14.06396,38.91007 -12.34302,65.59747 0.21888,3.3942 -0.0582,4.0452 -1.82957,4.2983 -1.14812,0.164 -2.72312,-0.4672 -3.5,-1.4028 z m 42.83751,-111.4756 c -1.94387,-1.1322 -2.29882,-5.0259 -0.72606,-7.96464 0.56317,-1.05229 3.70873,-3.73646 6.99012,-5.96481 3.2814,-2.22835 6.60608,-5.28898 7.38818,-6.8014 0.7821,-1.51242 1.73546,-6.56117 2.11858,-11.21945 0.38312,-4.65828 1.33304,-9.4821 2.11094,-10.7196 3.15156,-5.01363 6.25316,-0.90312 4.90955,6.50657 -2.70135,14.8973 -3.54346,17.01779 -9.11645,22.95573 -2.98758,3.18324 -5.91641,7.25365 -6.5085,9.04538 -0.59209,1.79172 -1.91091,3.70422 -2.9307,4.25 -2.21318,1.18445 -2.0454,1.18793 -4.23566,-0.0878 z m 42.21721,-57.4594 c -1.09117,-1.31479 0.10478,-2.88392 8.19343,-10.75 9.7956,-9.52606 13.58649,-15.4063 14.54651,-22.56382 0.28175,-2.10063 -0.71139,-11.61617 -2.20699,-21.14566 -2.22423,-14.17211 -2.51735,-18.00026 -1.61014,-21.02828 2.3009,-7.6797 9.07501,-12.71672 7.69633,-5.72274 -1.71424,8.69622 -1.64638,13.85654 0.33045,25.12953 2.67441,15.25093 2.62369,20.68141 -0.2727,29.19532 -4.94334,14.5309 -10.91829,23.28145 -18.13552,26.56017 -4.93281,2.24093 -6.88979,2.3155 -8.54137,0.32548 z m -20.45008,-7.5796 c -3.78053,-3.31935 -8.78582,-11.7281 -12.55316,-21.089 l -2.29726,-5.70809 -2.96173,1.70809 c -1.62895,0.93946 -4.59026,3.63975 -6.58069,6.00066 -2.75138,3.26349 -4.21688,4.22242 -6.11307,4 -4.22778,-0.49592 -3.6674,-3.55568 1.64271,-8.96954 2.66534,-2.71741 6.28476,-5.83625 8.04317,-6.93075 3.04669,-1.89638 3.17026,-2.21656 2.62672,-6.80593 -0.70305,-5.93618 0.5257,-6.89662 4.07873,-3.18805 1.85309,1.9342 3.74317,6.26593 5.98407,13.71444 5.25305,17.46049 7.50581,20.98516 14.93339,23.36476 4.25018,1.36164 5.53043,3.29287 3.66942,5.53524 -2.05711,2.47867 -6.59628,1.77136 -10.4723,-1.63183 z m -1.85046,-54.54757 c -1.48601,-1.48601 -0.46038,-7.74031 3.43345,-20.93725 4.75135,-16.10322 6.33154,-19.52637 14.17611,-30.70975 3.6723,-5.23531 6.00511,-9.68284 6.40463,-12.21051 0.66289,-4.19395 1.7017,-5.43542 4.56914,-5.46051 1.41552,-0.0124 1.75,0.8648 1.75,4.58946 0,5.60918 -2.87158,11.61984 -10.8771,22.76749 -7.67994,10.69427 -7.43714,10.14134 -11.03414,25.12774 -1.71613,7.15 -3.5535,14.0125 -4.08306,15.25 -0.93588,2.18705 -2.98689,2.93547 -4.33903,1.58333 z m 96.38516,266.67477 c 3.42592,-5.2205 9.75788,-14.2719 14.07102,-20.1141 16.10108,-21.8094 23.87224,-36.64199 27.97447,-53.394 2.06037,-8.41377 2.6626,-19.58017 3.26295,-60.5 0.35775,-24.38483 0.55175,-25.19205 8.17108,-34 9.39776,-10.86381 12.49959,-17.50513 18.07613,-38.70284 2.80733,-10.67128 5.20509,-16.942 10.58332,-27.67802 3.82452,-7.63447 8.29317,-17.98447 9.93036,-23 1.63718,-5.01553 5.46892,-13.78939 8.51498,-19.49747 6.38782,-11.97028 6.41411,-12.75476 0.80321,-23.97027 -8.42397,-16.83852 -25.94258,-26.54647 -52.73907,-29.22536 -24.58083,-2.45739 -43.24441,2.6753 -52.61812,14.47057 -2.96387,3.72954 -3.43256,5.14688 -4.57739,13.84203 -0.61365,4.6607 -2.85492,11.66893 -9.93068,31.05215 -4.23126,11.59104 -4.65504,18.84375 -1.57459,26.94848 2.25894,5.94334 2.51052,10.84963 0.88695,17.29741 -1.46368,5.81281 -0.6957,8.40666 4.14496,13.99961 5.89748,6.814 7.96859,11.47184 7.96859,17.92099 0,4.92337 0.38786,5.96628 3.5,9.41104 3.98179,4.40737 4.27084,5.64877 1.64272,7.0553 -2.66025,1.42372 -8.85079,-0.50989 -10.30056,-3.21737 -0.64976,-1.21344 -1.10551,-4.68125 -1.01277,-7.70625 0.23209,-7.5708 -0.564,-10.59609 -3.25171,-12.35714 -2.26926,-1.48688 -2.3537,-1.38695 -7.33151,8.67647 -2.7697,5.59937 -5.58044,11.90571 -6.24608,14.0141 -2.01537,6.38357 -0.82302,17.04541 2.95365,26.4111 3.16829,7.85699 3.27108,8.51082 2.18683,13.90972 -1.42331,7.08718 -4.02957,11.48688 -13.5332,22.84575 -8.78599,10.50114 -11.96206,15.92492 -14.07446,24.03496 -2.16194,8.30025 -1.91872,13.27747 1.08453,22.19399 2.23996,6.65034 2.54545,8.94315 2.11831,15.89843 -0.27452,4.47006 -0.95403,8.94025 -1.51003,9.93372 -0.7743,1.3836 -0.44032,2.6686 1.42699,5.4903 2.19532,3.3173 2.99761,3.7497 8.06354,4.3451 13.09062,1.5385 19.88182,8.4844 24.27589,24.8287 1.22355,4.5511 2.67986,9.1748 3.23624,10.2748 1.03459,2.0454 6.94966,8.6595 7.36471,8.235 0.12639,-0.1293 3.03282,-4.5063 6.45874,-9.7269 z m -21.69106,-60.51034 c -0.93141,-2.42722 0.41863,-6.13846 5.58024,-15.33995 2.67115,-4.76179 6.08608,-12.1469 7.58874,-16.41134 2.49727,-7.08712 2.68638,-8.63421 2.20018,-18 -0.39686,-7.64492 -1.31426,-12.65849 -3.61326,-19.74647 -1.69474,-5.225 -3.08929,-10.87765 -3.09901,-12.56144 -0.0193,-3.33971 3.09567,-7.43856 5.65296,-7.43856 1.29681,0 1.48649,0.7896 1.02094,4.25 -0.41508,3.08519 0.10788,6.22068 1.90807,11.44033 3.06775,8.8949 5.36004,19.49371 5.38301,24.88921 0.022,5.16223 -5.94665,27.07093 -10.07965,36.99884 -1.73027,4.1563 -4.25628,8.87646 -5.61336,10.48926 -2.66128,3.16275 -5.99959,3.85178 -6.92886,1.43012 z m 40.01923,-113.94987 c -0.85286,-2.22252 0.13746,-3.18193 7.91969,-7.67248 12.40566,-7.15839 13.64519,-9.07132 14.67161,-22.64236 0.58857,-7.78191 1.08149,-9.7247 2.92909,-11.54475 l 2.22145,-2.1883 1.93908,2.36078 c 2.27602,2.771 2.294,3.25746 0.49369,13.35386 -2.49642,14.00023 -8.58522,23.95587 -17.05461,27.88551 -4.89508,2.27123 -12.32299,2.52471 -13.12,0.44774 z m -31.13,-51.21017 c -2.56068,-1.03326 -0.97829,-2.9747 6.53381,-8.01634 4.2439,-2.84824 12.44119,-9.47479 18.21619,-14.72565 12.61851,-11.47327 15.838,-13.4462 19.33893,-11.85107 2.72384,1.24106 13.62685,15.0187 16.26785,20.55694 1.86111,3.90279 4.89349,5.69078 9.69027,5.71371 4.30724,0.0206 5.94559,1.23234 5.54044,4.09778 -0.31622,2.23645 -0.74721,2.38691 -6.83749,2.38691 -8.39667,0 -11.78299,-2.29433 -15.90329,-10.77497 -1.66343,-3.42377 -4.78202,-8.22417 -6.93019,-10.66757 l -3.90576,-4.44254 -8.88038,7.08486 c -4.88421,3.89667 -10.40237,8.98095 -12.26257,11.2984 -6.1692,7.68559 -15.08151,11.67436 -20.86781,9.33954 z m 56.09833,-45.87238 c -0.358,-0.93294 1.16618,-3.77557 3.88736,-7.25 2.46195,-3.14344 5.24211,-7.20582 6.17813,-9.02753 2.07071,-4.03005 4.93654,-3.97035 5.40665,0.11264 0.33748,2.9312 -2.82367,9.17304 -7.40011,14.61182 -2.81363,3.34382 -7.07057,4.16286 -8.07203,1.55307 z m -20.21064,-6.01742 c -2.16925,-2.75776 -7.22058,-17.16676 -9.50462,-27.11211 -1.31897,-5.74319 -1.28444,-6.37995 0.50555,-9.32336 2.75764,-4.53457 4.26031,-3.31935 5.03095,4.06855 0.47059,4.51141 1.99431,9.2422 5.12728,15.919 5.23129,11.14862 6.38312,15.47576 4.66916,17.54096 -1.76778,2.13004 -3.55698,1.79449 -5.82832,-1.09304 z m -93.676,231.99329 c 2.02953,-0.38074 5.66642,-0.42137 8.08198,-0.0903 l 4.39192,0.60198 1.02132,-3.79288 c 0.8261,-3.0679 0.54727,-5.88274 -1.45874,-14.72646 -3.86181,-17.02521 -3.04659,-30.55776 2.49524,-41.42065 1.10162,-2.15935 4.71025,-7.1585 8.01919,-11.10922 3.30894,-3.95073 7.69726,-10.58261 9.75183,-14.73751 3.1947,-6.46058 3.72921,-8.5036 3.69163,-14.11028 -0.0242,-3.60575 -0.80385,-9.70591 -1.73263,-13.55591 -0.92879,-3.85 -1.69652,-10.3021 -1.70607,-14.338 -0.0149,-6.28085 0.50345,-8.51385 3.59772,-15.5 6.94698,-15.68466 7.47664,-17.96419 7.8022,-33.57907 l 0.30058,-14.41706 -2.32254,6.41425 c -2.03265,5.61363 -3.57442,7.6376 -12.35192,16.21504 -5.51616,5.39044 -10.3158,10.942 -10.66588,12.33681 -0.35007,1.39481 -0.27598,5.53572 0.16466,9.20202 1.21565,10.11475 0.6497,16.13581 -2.60678,27.73316 -3.63997,12.96311 -4.91185,15.50176 -14.3173,28.57719 l -7.44905,10.35568 -3.54565,43.06692 c -1.95011,23.6868 -3.86661,43.93678 -4.25888,44.99998 -0.42708,1.1576 1.31685,0.054 4.34695,-2.7502 3.28844,-3.0435 6.35216,-4.92561 8.75022,-5.37549 z M 923.04444,761.72706 c 2.23636,-2.40472 2.37882,-3.32572 2.53005,-16.35623 0.14198,-12.23386 0.48277,-14.77706 2.98923,-22.30803 3.58434,-10.76956 4.36284,-19.85263 2.32055,-27.07496 -2.65903,-9.40335 -2.94164,-14.88612 -1.20155,-23.31042 2.10904,-10.21053 1.00229,-15.15027 -5.45428,-24.3441 -4.76568,-6.78607 -10.54956,-12.24953 -21.3038,-20.12357 -5.93616,-4.34634 -6.83852,-5.79201 -4.23813,-6.78988 2.74889,-1.05484 12.67916,4.83079 20.31658,12.04155 5.9294,5.59817 7.11408,6.3945 5.59655,3.76196 -1.05875,-1.83668 -3.95,-5.86172 -6.425,-8.94454 -14.20577,-17.69444 -53.05933,-37.15001 -91.12041,-45.62772 -18.75764,-4.17807 -43.05565,-3.2 -61.37959,2.47072 -9.536,2.9511 -12.87848,4.78144 -23.6621,12.9573 -5.10396,3.8697 -11.09297,7.53234 -13.30892,8.1392 -2.39959,0.65716 -5.37449,2.5676 -7.35603,4.72393 l -3.32705,3.62053 7.82705,0.73444 c 8.57205,0.80435 9.40248,0.62576 24.32705,-5.23179 10.14498,-3.98168 16.258,-5.01193 42.18556,-7.10966 16.46378,-1.33205 25.39241,-0.45665 36.53328,3.58186 8.46302,3.0678 11.28116,5.06149 11.28116,7.98082 0,3.88512 -3.26615,4.11098 -9.32442,0.64479 -7.52158,-4.30342 -16.16971,-6.06835 -29.81963,-6.08568 -22.91089,-0.0291 -38.3236,2.41408 -54.06831,8.57071 -11.23985,4.39509 -19.80861,5.7794 -27.59775,4.45849 l -5.68989,-0.96492 -5.75267,6.09992 c -8.24677,8.74455 -10.69048,17.92413 -7.13631,26.80688 1.89421,4.7341 2.04709,4.41553 -7.75054,16.15075 -13.85764,16.59817 -25.81783,35.59289 -25.84641,41.04829 -0.008,1.4767 0.44481,3.89184 1.00566,5.36699 l 1.01973,2.6821 6.47258,-6.63383 c 12.94179,-13.26422 25.73126,-19.04093 41.98796,-18.96502 10.75339,0.0502 17.92652,1.95199 28.96637,7.67973 11.65144,6.04503 26.57301,18.64161 34.24541,28.90947 l 2.03569,2.72434 0.69317,-6.12682 c 0.38125,-3.36975 2.21302,-11.40717 4.0706,-17.86092 3.32336,-11.54626 3.35211,-11.81325 1.79607,-16.67911 -1.27817,-3.99696 -2.43021,-5.48205 -6.00893,-7.74612 -7.72263,-4.8857 -14.64712,-12.0571 -19.62999,-20.32993 -5.11573,-8.49342 -5.84346,-12.70578 -2.19506,-12.70578 1.35472,0 3.07887,1.88521 5.5,6.01378 1.93967,3.30758 4.20167,6.93753 5.02667,8.06655 2.05767,2.81594 13.00195,10.08834 19.52009,12.97097 2.95352,1.30619 5.89063,3.34762 6.52691,4.53652 1.912,3.5726 1.20105,12.24816 -1.89566,23.13222 -3.17368,11.15462 -5.15134,19.08735 -5.15134,20.66292 0,0.54853 2.34041,-1.47732 5.20091,-4.50187 8.74854,-9.2503 21.77816,-14.35484 42.11748,-16.50012 19.40676,-2.04692 36.60848,2.10542 52.12161,12.5817 13.64217,9.21278 17.40444,13.41128 21.81,24.33883 4.25656,10.55797 4.61585,15.01275 1.75,21.6985 -1.1,2.5662 -2,4.87512 -2,5.13095 0,0.83315 8.43628,-5.34996 10.8698,-7.96669 z M 803.80166,681.35648 c -0.34486,-0.34486 -0.62702,-1.4351 -0.62702,-2.42277 0,-1.24541 2.22188,-2.85268 7.25,-5.24452 13.83837,-6.5828 30.98339,-9.78772 32.41417,-6.05917 0.97884,2.55081 -0.80328,3.39071 -10.53382,4.9645 -8.30987,1.34403 -12.33788,2.64209 -24.25333,7.81586 -1.99265,0.86521 -3.90515,1.29096 -4.25,0.9461 z m 72.3909,-62.3556 c -5.27386,-1.07432 -10.26252,-3.53003 -22.51792,-11.08466 -16.94167,-10.4434 -30.66716,-14.10865 -53,-14.15311 -17.93035,-0.0357 -28.88993,2.42663 -39.63081,8.90399 -6.91699,4.17134 -9.86919,4.43268 -9.86919,0.87368 0,-3.16621 6.04094,-7.19147 17.32103,-11.54154 12.93077,-4.98663 16.90709,-5.44052 35.60678,-4.06445 27.66687,2.03595 42.96286,5.97867 53.81416,13.87124 8.53909,6.21081 10.66493,7.29399 20.99763,10.6989 4.53177,1.49335 8.52006,3.169 8.86286,3.72366 1.65528,2.67829 -4.64482,4.18596 -11.58454,2.77229 z m 54.90843,0.11974 c 7.8076,-9.83821 14.33684,-22.18141 16.64801,-31.47224 0.64557,-2.59515 0.51688,-2.82755 -1.17468,-2.12141 -4.05898,1.69442 -6.11681,1.71537 -6.74869,0.0687 -1.03648,-2.70103 3.47994,-5.91217 21.2204,-15.08755 21.42206,-11.0795 23.949,-13.03347 31.64503,-24.46973 l 3.43986,-5.11161 -2.62416,-2.432 c -1.83581,-1.70136 -3.78198,-2.43198 -6.47814,-2.43198 -2.71795,0 -3.85398,-0.43178 -3.85398,-1.46482 0,-3.54203 7.33589,-4.54225 15.43563,-2.10459 6.33813,1.9075 8.31423,3.90102 10.15973,10.24958 2.4374,8.38427 7.3316,11.10712 27.4047,15.24667 5.225,1.07751 13.775,3.277 19,4.88774 12.2334,3.77126 22.2117,4.65981 35.7491,3.18339 15.895,-1.73355 32.2561,-0.20705 42.599,3.9745 9.9996,4.04272 19.3012,4.40135 27.6519,1.06615 10.048,-4.01308 11.4445,-6.54674 13.0558,-23.68661 1.1378,-12.10303 2.3828,-16.5461 10.4385,-37.25111 2.5812,-6.63428 3.9611,-12.19825 4.691,-18.91495 1.7201,-15.82971 0.033,-24.57287 -12.9641,-67.18595 -2.7679,-9.075 -5.3511,-18.6375 -5.7404,-21.25 -0.6844,-4.59221 -0.8204,-4.75 -4.0944,-4.75 -4.7824,0 -4.2991,-2.15806 1.0673,-4.76524 7.2192,-3.50738 7.9927,-5.49976 8.3965,-21.62984 l 0.3502,-13.98811 -3.635,3.19159 c -2.952,2.59189 -4.4928,3.1916 -8.2002,3.1916 -3.8821,0 -5.0878,-0.52255 -8.0574,-3.49216 -3.2534,-3.2534 -3.6378,-3.39013 -5.6225,-2 -1.1717,0.82069 -2.9603,1.49216 -3.9748,1.49216 -1.5334,0 -1.2528,0.72197 1.6644,4.28209 5.9369,7.24519 6.6498,11.78426 2.979,18.96791 -2.1512,4.20979 -3.0639,3.29761 -2.5768,-2.57548 0.5537,-6.6778 -1.6229,-11.22841 -8.6565,-18.09772 l -5.041,-4.9232 -3.9456,1.30217 c -2.1979,0.72537 -5.4301,1.02366 -7.2971,0.67341 -1.8434,-0.34582 -4.8523,-0.19837 -6.6864,0.32766 -4.1364,1.18631 -12.7652,-0.29816 -15.3546,-2.64155 -2.7127,-2.45494 -0.7612,-3.67696 3.8342,-2.40098 5.8089,1.61292 10.2615,1.31658 15.0503,-1.00163 6.0198,-2.91415 8.648,-6.50169 7.9434,-10.84311 -0.9242,-5.69577 -2.5769,-6.62047 -8.2841,-4.63518 -2.6618,0.92594 -9.6776,2.05551 -15.5906,2.51016 -7.3471,0.56491 -11.5828,1.3717 -13.3783,2.54817 -2.4751,1.6217 -2.5981,2.07776 -2.1211,7.86441 0.6115,7.418 6.5982,22.83095 10.4159,26.81573 3.2099,3.3504 5.9926,4.30409 18.1584,6.22327 10.0089,1.57892 14.176,3.50957 14.176,6.56791 0,2.99855 -1.7447,3.35688 -5.3863,1.10625 -4.4328,-2.73966 -6.0258,-2.68452 -5.1919,0.17971 5.0165,17.23153 8.7477,49.69311 6.62,57.59458 -0.6138,2.27963 -4.3939,8.51691 -8.5292,14.07342 -4.0848,5.48861 -8.5652,12.22571 -9.9565,14.97133 -3.2031,6.32104 -6.1454,17.20723 -7.5864,28.06872 -0.6171,4.65193 -1.5446,9.24767 -2.0611,10.21276 -1.5428,2.8827 -3.9078,1.05394 -3.9156,-3.0278 -0.013,-6.68805 -3.9182,-20.06471 -8.7309,-29.90558 -5.6674,-11.58859 -12.0223,-18.51053 -23.5702,-25.67357 -13.2455,-8.21603 -18.483,-9.88801 -30.7866,-9.828 l -10.5948,0.0517 -10.9053,5.67923 c -8.6668,4.51347 -12.16608,5.79339 -17.0476,6.23536 -5.82662,0.52754 -6.23194,0.41938 -7.88546,-2.10421 -0.95871,-1.46319 -1.56966,-2.83281 -1.35766,-3.0436 0.212,-0.2108 3.53752,-0.81957 7.39005,-1.35283 7.18318,-0.99429 14.50977,-3.47432 14.47707,-4.90046 -0.01,-0.44057 -1.9917,-2.15103 -4.4036,-3.80103 -2.4118,-1.65 -11.38327,-8.66335 -19.9365,-15.58522 -17.7762,-14.38576 -27.17101,-19.70052 -40.23527,-22.76162 -14.93565,-3.49958 -47.21222,-9.15318 -52.25579,-9.15318 -2.61545,0 -10.35676,1.63577 -17.20293,3.63504 -17.36979,5.07247 -18.66165,5.15778 -24.01728,1.58597 -7.39856,-4.93428 -11.10743,-5.73198 -25.93029,-5.57704 -16.18908,0.16922 -25.05266,2.20407 -37.28672,8.56005 -12.58752,6.53962 -26.72449,21.26007 -26.69423,27.79598 0.0242,5.2181 1.36503,5.43546 7.0389,1.14107 2.93212,-2.21923 7.39096,-5.15608 9.90854,-6.52631 9.00478,-4.90102 34.03351,-10.61296 34.03351,-7.76698 0,1.91938 -4.14042,3.84753 -16.39584,7.63538 -10.58275,3.27086 -13.34924,4.64945 -25.0628,12.48916 -21.80912,14.59652 -32.02955,28.16123 -33.22641,44.0986 -0.51554,6.865 -0.23612,8.37819 3.68007,19.92908 6.03628,17.80414 6.25099,24.48615 1.59955,49.77997 -3.13785,17.06318 -3.41404,19.84955 -2.40207,24.23364 0.86507,3.74769 0.8591,5.57773 -0.0245,7.51708 -0.64238,1.40988 -1.16797,2.95788 -1.16797,3.43999 0,0.48212 3.97937,-1.33784 8.84305,-4.04435 4.86367,-2.70652 10.26367,-5.41617 12,-6.02146 1.73632,-0.60529 3.15695,-1.44253 3.15695,-1.86054 0,-0.41802 -1.575,-3.78169 -3.5,-7.47484 -3.63233,-6.96869 -4.28931,-11.37177 -2.4253,-16.25439 1.03656,-2.71517 1.1253,-2.74619 2.5,-0.87397 0.78392,1.06762 1.4253,3.72438 1.4253,5.9039 0,3.18209 4.10433,12.74641 7.46049,17.38515 0.0916,0.12659 3.73795,-0.42796 8.10302,-1.23235 14.62506,-2.69508 28.48715,-3.32018 40.15916,-1.81094 20.23616,2.61663 44.25581,9.0747 59.10641,15.89171 l 7.32908,3.36434 2.80785,-2.07593 c 1.96272,-1.45111 6.82994,-2.74387 16.17092,-4.29511 14.79902,-2.45764 17.57264,-3.50597 18.04323,-6.81971 0.23435,-1.65038 0.98784,-2.25219 2.81981,-2.25219 1.97136,0 2.56579,0.56995 2.81115,2.69535 0.55116,4.77445 -9.31867,9.76197 -22.42409,11.33156 -3.23788,0.38779 -7.52327,1.60692 -9.52307,2.70916 l -3.63602,2.00409 9.13602,6.061 c 5.38406,3.57189 13.24277,10.20703 19.13601,16.15663 l 10,10.09563 1.19823,-3.46889 c 0.65902,-1.90788 2.11168,-4.6199 3.22812,-6.02671 z m -70.2285,-36.40283 c -0.28387,-0.73975 0.38925,-3.32725 1.49583,-5.75 3.25602,-7.12877 5.80632,-15.01564 5.80632,-17.95621 0,-4.6368 4.05504,-16.3081 6.60748,-19.01781 1.33097,-1.41296 6.25825,-4.70631 10.94952,-7.31856 12.12681,-6.75258 14.84156,-9.40819 16.81778,-16.45137 1.58438,-5.64669 4.56067,-9.89226 5.95637,-8.49656 1.12508,1.12509 0.74764,6.70722 -0.80764,11.94441 -1.97822,6.66138 -5.62097,9.91561 -17.78837,15.89111 -5.64609,2.77284 -10.9658,6.11358 -11.94279,7.5 -1.13231,1.60684 -2.4681,7.41941 -3.73891,16.26961 -2.08394,14.51295 -4.53192,21.84573 -7.89364,23.64487 -2.73962,1.4662 -4.838,1.36651 -5.46195,-0.25949 z m 279.37061,-18.08218 c -2.1212,-2.25788 -2.2234,-2.78442 -1.0776,-5.55062 2.661,-6.42416 20.6738,-19.58357 23.9959,-17.5304 2.1461,1.32635 0.781,3.58431 -5.5465,9.17407 -3.6694,3.24158 -7.7452,8.00252 -9.25,10.80494 -3.1437,5.85444 -4.9043,6.52689 -8.1218,3.10201 z m -297.42112,-2.21117 c -4.87434,-3.18916 -9.72227,-3.98706 -14.54806,-2.3944 -3.22623,1.06475 -4.25272,1.00478 -6.98488,-0.40808 -3.7865,-1.95807 -7.10542,-6.97574 -7.11066,-10.75014 -0.006,-4.10387 1.58632,-4.20838 4.02397,-0.26418 3.14661,5.09132 5.45726,6.2022 14.47229,6.95778 4.4,0.36878 9.67985,1.09683 11.73299,1.61791 4.30821,1.09338 6.57857,4.19668 4.71396,6.44339 -1.52571,1.83837 -1.70436,1.80427 -6.29961,-1.20228 z m -71.64319,-3.85663 c -0.99961,-1.20447 -0.92378,-1.97873 0.39021,-3.98413 2.11962,-3.23495 5.98653,-4.13978 11.04522,-2.58449 8.21875,2.52685 11.02386,2.44707 15.38271,-0.43749 2.23425,-1.47855 4.53825,-2.39411 5.11999,-2.03457 2.05755,1.27164 1.01549,4.4661 -2.27579,6.97648 -4.86209,3.70849 -8.56113,4.14173 -14.17186,1.65984 -6.07757,-2.6884 -10.0909,-2.72354 -11.49463,-0.10065 -1.27733,2.38671 -2.32435,2.51904 -3.99585,0.50501 z m 34.66252,-1.17168 c -3.34096,-3.34095 4.70998,-38.07269 8.30967,-35.84795 1.66119,1.02667 1.17194,8.62184 -0.90786,14.0938 -1.06178,2.79355 -2.21281,7.96855 -2.55785,11.5 -0.34503,3.53145 -0.83465,7.43332 -1.08803,8.67082 -0.44302,2.16364 -2.36528,2.97398 -3.75593,1.58333 z m 223.49739,-8.23195 c -0.7525,-0.46507 -1.1817,-2.06673 -0.9941,-3.70989 0.4999,-4.37882 6.8962,-7.1219 20.0289,-8.58945 16.4168,-1.83453 29.8012,0.9292 29.8012,6.15363 0,2.96776 -3.21,3.28616 -8.5873,0.85181 -4.1451,-1.87653 -6.7211,-2.23054 -16.4867,-2.26575 -11.3791,-0.041 -11.6377,0.009 -15.3624,2.95827 -6.5398,5.17884 -7.0304,5.44757 -8.3996,4.60138 z m -85.80433,-3.60631 c -1.88415,-4.91004 2.42074,-25.00075 6.09701,-28.45443 1.22743,-1.15311 8.4469,-4.3214 16.04326,-7.04064 14.78547,-5.2927 17.24861,-6.89851 20.02475,-13.05489 2.17733,-4.82845 3.47525,-5.04992 3.47525,-0.59299 0,7.43616 -7.79939,13.50967 -25.5,19.85727 -13.2761,4.76093 -13.50421,5.09513 -15.2079,22.28085 -0.63849,6.44072 -1.13206,8.05495 -2.54512,8.32391 -0.96417,0.18351 -2.03843,-0.41007 -2.38725,-1.31908 z m -17.71718,-4.52328 c -6.23716,-1.8691 -10.64255,-8.90829 -10.64255,-17.00528 0,-4.28614 0.27662,-5.05989 1.71026,-4.78379 1.21088,0.23319 2.0591,2.07076 2.90494,6.29318 1.44089,7.19288 4.30045,10.08899 10.9456,11.08549 2.61708,0.39245 4.84221,1.32526 5.16445,2.16501 1.12522,2.93228 -3.98958,4.07134 -10.0827,2.24539 z m 205.10051,-5.56207 c -1.5364,-1.53639 -0.6101,-4.12922 3.8506,-10.77852 9.9224,-14.79081 13.7015,-27.30583 11.5656,-38.30117 -1.0892,-5.60712 -0.7223,-10.33003 0.8024,-10.33003 1.6404,0 3.961,3.78957 5.103,8.33331 3.2943,13.10732 -4.0838,42.98383 -12.0086,48.62681 -3.2138,2.28846 -8.1704,3.59218 -9.313,2.4496 z m -366.60007,-3.30019 c -2.18759,-1.38611 -0.47273,-4.62773 5.09749,-9.63584 7.12078,-6.40219 10.1279,-7.79688 15.13908,-7.02146 13.70009,2.11994 13.78114,2.10789 19.31907,-2.87118 5.69416,-5.11954 7.30312,-5.63349 7.29763,-2.33105 -0.0134,8.0587 -10.84849,14.20775 -20.49626,11.63188 -10.64856,-2.84308 -13.2816,-2.19047 -16.48335,4.08547 -2.91693,5.71767 -6.76536,8.11169 -9.87366,6.14218 z m 83.03938,-9.60953 c -2.64308,-2.224 -3.88073,-2.5 -11.21071,-2.5 -4.53179,0 -10.00094,-0.5277 -12.15366,-1.17267 -5.48702,-1.64396 -9.818,-6.82848 -9.818,-11.75292 0,-2.1208 -0.89012,-5.81764 -1.97804,-8.21521 -1.08792,-2.39756 -1.98352,-6.3842 -1.99023,-8.8592 -0.0144,-5.33413 4.124,-15 6.42227,-15 1.94592,0 1.95545,-0.10816 -0.54736,6.21298 -2.44411,6.17289 -2.06478,12.17704 1.09202,17.28485 1.14154,1.84706 2.00134,4.98269 2.00134,7.29878 0,7.27276 5.37474,9.64745 19.3961,8.56968 8.3478,-0.64166 8.63993,-0.5902 10.56856,1.86166 1.17514,1.49394 3.82793,2.986 6.5094,3.6612 3.4657,0.87267 4.52594,1.60479 4.52594,3.12525 0,1.71193 -0.67857,1.9856 -4.92327,1.9856 -3.79254,0 -5.60565,-0.57418 -7.89436,-2.5 z m 212.81769,-7.12373 c -14.8315,-2.84886 -37.8603,-10.31449 -43.1728,-13.996 -6.3974,-4.43339 -12.192,-13.45572 -11.6373,-18.11955 0.4794,-4.03059 2.4976,-3.79341 4.7156,0.55417 2.7197,5.33094 10.0265,12.46515 15.2857,14.92451 2.3698,1.10823 11.0588,3.98001 19.3088,6.38173 13.4644,3.91974 16.0237,4.35893 25,4.29019 6.6851,-0.0512 11.4229,-0.61958 14.2926,-1.71464 3.9615,-1.51166 4.3408,-1.51256 4.9168,-0.0116 0.7905,2.06012 -2.6099,4.9063 -7.5394,6.31057 -4.2665,1.21538 -17.5278,2.08024 -21.17,1.38063 z m -144.05302,-6.47522 c -0.71017,-1.32696 -0.96216,-4.12555 -0.6266,-6.95886 0.70665,-5.96655 0.30537,-6.34607 -13.55213,-12.8169 -8.27368,-3.86344 -12.10239,-6.35112 -16.78851,-10.90824 l -6.07054,-5.90341 0.29537,-8.00027 c 0.20556,-5.56764 -0.10976,-8.48929 -1.03699,-9.60852 -0.7328,-0.88454 -5.0078,-2.78908 -9.5,-4.23231 -10.00655,-3.21486 -15.39249,-6.25619 -19.6339,-11.08689 -2.79126,-3.17907 -3.15847,-4.20418 -2.64848,-7.39349 0.46637,-2.91653 0.16985,-4.08481 -1.39659,-5.50241 -2.28743,-2.0701 -2.62428,-4.48975 -0.62503,-4.48975 2.69337,0 6.40605,4.97849 7.08397,9.4992 0.82667,5.51263 2.16595,6.61552 17.57049,14.46922 6.50387,3.31587 13.21047,7.19447 14.90356,8.61911 2.74352,2.30852 3.07834,3.1823 3.07834,8.03348 0,10.37157 3.35836,14.15602 17.27985,19.47224 7.70105,2.94081 14.36431,8.87154 15.75032,14.01879 1.58768,5.89621 0.89483,14.28847 -1.2127,14.68892 -0.94283,0.17915 -2.20476,-0.65611 -2.87043,-1.89991 z m -46.85338,-0.20749 c -5.08737,-1.78259 -6.99402,-5.10002 -7.84844,-13.65577 -0.69005,-6.90981 -0.98072,-7.62076 -3.92655,-9.60407 -2.10223,-1.41534 -6.91606,-2.74273 -14.19185,-3.91332 -13.52497,-2.17601 -17.12682,-4.06995 -17.12682,-9.0057 0,-2.02852 0.49761,-3.5147 1.17682,-3.5147 0.64724,0 3.45974,1.5277 6.25,3.39489 3.65791,2.44781 8.22389,4.15662 16.36728,6.12542 6.21176,1.50179 12.17693,3.46159 13.25594,4.35511 1.23817,1.02532 2.34442,3.8378 2.99903,7.62458 0.57046,3.3 1.5287,7.25275 2.12943,8.78389 1.4548,3.70806 5.4398,6.71611 8.89734,6.71611 3.52658,0 4.59939,1.56826 2.01791,2.94983 -2.49728,1.3365 -5.68776,1.25474 -10.00009,-0.25627 z m -103.96134,-9.03413 c -0.86525,-1.04255 -0.25165,-2.03243 2.76014,-4.45276 2.60026,-2.08963 4.47321,-4.78215 5.70035,-8.1947 1.0052,-2.79537 2.59744,-5.77916 3.53831,-6.63063 1.08665,-0.9834 6.00153,-2.07711 13.47355,-2.99825 16.18448,-1.99521 16.85893,-2.40587 20.8663,-12.70506 1.98734,-5.10757 3.92626,-3.8946 3.25758,2.0379 -0.96199,8.5348 -10.1135,14.48466 -24.4277,15.8817 -7.65719,0.74733 -9.70353,2.05121 -11.41483,7.27329 -1.79384,5.47392 -3.94786,8.25697 -7.5583,9.76551 -4.06117,1.69687 -4.80393,1.69962 -6.1954,0.023 z m 197.813,-0.0592 c -1.95507,-0.74817 -5.38689,-2.29504 -7.62628,-3.43749 -2.86422,-1.46122 -5.11406,-1.908 -7.58707,-1.50669 -7.82362,1.2696 -20.70326,-7.08365 -15.69479,-10.17905 0.57044,-0.35255 3.70201,0.74589 6.95903,2.44099 3.25703,1.69509 6.54827,3.08199 7.31389,3.08199 0.76561,0 3.42031,-1.07845 5.89932,-2.39655 5.25656,-2.79494 8.19059,-2.11649 6.01639,1.39121 -1.1788,1.90177 -0.91676,2.21017 3.5,4.11917 8.50383,3.67552 10.68933,3.60938 15.94141,-0.48248 5.06812,-3.94853 8.33278,-4.68451 8.33278,-1.87851 0,2.36141 -11.36819,9.38599 -15.9369,9.84767 -1.95971,0.19803 -5.1627,-0.25209 -7.11778,-1.00026 z M 758.10678,496.3677 c -2.5164,-7.60373 -0.34921,-18.3049 3.70708,-18.3049 1.34064,0 1.4625,0.73958 0.78271,4.75 -0.44284,2.6125 -0.7034,5.875 -0.57903,7.25 0.74981,8.28975 0.63098,9.45519 -0.99723,9.77989 -1.15572,0.23048 -2.03385,-0.81687 -2.91353,-3.47499 z m 201.19396,-15.82532 c -5.15565,-2.46377 -10.38658,-4.47958 -11.62428,-4.47958 -4.81081,0 -21.50182,-7.92662 -21.50182,-10.21129 0,-1.64224 5.77139,-0.67418 13,2.18054 9.49203,3.7486 14.2147,3.86711 18.6705,0.4685 2.331,-1.77794 4.32598,-2.46667 6.51738,-2.25 5.04275,0.49859 4.43964,2.52622 -1.63805,5.50699 l -5.59964,2.74633 5.2749,2.73229 c 7.10306,3.67923 12.87546,3.72196 18.05341,0.13364 2.86132,-1.9829 4.29539,-2.43477 5.43854,-1.71369 2.51941,1.58921 1.94191,2.72276 -3.13659,6.15669 -6.94133,4.69352 -11.48985,4.44715 -23.45435,-1.27042 z m -196.8761,-4.17795 c -2.01955,-0.7566 -1.43513,-4.79234 1,-6.90558 1.2375,-1.07392 5.44492,-4.07905 9.34982,-6.67808 7.43784,-4.95047 9.09045,-7.35635 11.45875,-16.68172 0.71033,-2.79698 2.498,-5.8271 4.78753,-8.11493 4.45104,-4.44774 10.26572,-5.92132 23.36526,-5.92132 7.92988,0 9.66986,-0.32639 13.403,-2.51415 2.35954,-1.38278 4.88014,-3.74528 5.60133,-5.25 1.68026,-3.50574 3.33003,-3.0256 3.12604,0.90979 -0.17659,3.4068 -4.1141,8.12869 -8.84173,10.60308 -1.78163,0.93248 -8.603,2.10145 -16.7963,2.87835 -7.58796,0.7195 -14.96886,1.88525 -16.402,2.59055 -2.0673,1.01741 -3.07299,2.86373 -4.86724,8.93562 -3.12664,10.58076 -4.586,12.39784 -13.59507,16.92751 -4.31166,2.16787 -7.83939,4.52554 -7.83939,5.23928 0,2.00363 -2.3551,4.50419 -3.75,3.9816 z m 57.65932,-10.35866 c -2.41915,-1.49681 -1.6241,-9.96172 1.54376,-16.43659 3.56684,-7.29036 11.06744,-15.38586 12.72214,-13.73116 0.87275,0.87275 0.28971,2.45713 -2.38871,6.49111 -6.15645,9.27228 -8.12993,13.89782 -8.0728,18.92138 0.0548,4.82342 -1.1865,6.37504 -3.80439,4.75526 z m 134.59068,-17.04124 c -1.65,-0.5095 -11.55,-2.69235 -22,-4.85077 -40.674,-8.40111 -43.47018,-9.33972 -51.09956,-17.15292 -2.94401,-3.01494 -3.53408,-4.1644 -2.61144,-5.08704 0.92264,-0.92264 3.0095,-0.24047 9.23557,3.01904 9.34847,4.89416 34.7546,11.60218 56.97543,15.0433 7.425,1.14984 15.01771,2.53315 16.87269,3.07402 4.9759,1.45086 8.15734,3.81082 7.48817,5.55463 -0.66057,1.72142 -9.78574,1.96688 -14.86086,0.39974 z M 1137.9231,409.5408 c -3.793,-7.34078 -4.4342,-15.478 -1.2196,-15.478 2.3023,0 5.1058,12.16324 3.6827,15.978 l -0.9243,2.478 -1.5388,-2.978 z M 614.23538,564.81459 c 1.80915,-1.14392 6.31405,-1.66887 17.43926,-2.03217 12.56437,-0.4103 16.31782,-0.91461 23.11588,-3.10586 4.46373,-1.43882 14.36373,-3.55014 22,-4.69183 7.63626,-1.14169 15.68412,-2.87882 17.88412,-3.8603 8.28936,-3.69808 17.90209,-12.63906 28.76136,-26.75151 2.61349,-3.39642 5.90755,-7.08442 7.32012,-8.19555 l 2.56832,-2.02024 -2.49053,-8.29717 c -5.7266,-19.07811 -5.83146,-25.54133 -0.58347,-35.96247 4.48506,-8.90616 8.21058,-14.07741 16.20483,-22.49327 6.43768,-6.77721 6.90114,-7.55894 6.31951,-10.6593 -0.48147,-2.56646 0.0634,-4.71566 2.33918,-9.22751 1.63176,-3.23499 2.84279,-6.00584 2.69118,-6.15745 -0.68661,-0.68661 -9.65052,3.39602 -14.6305,6.66348 -4.27187,2.80286 -6.9742,5.82178 -12.10197,13.51974 -3.63108,5.4511 -7.57092,10.55445 -8.75521,11.34078 -1.34501,0.89306 -4.68493,1.42092 -8.89803,1.40632 -7.68014,-0.0266 -21.16381,1.98293 -32.40521,4.82954 -28.01126,7.09317 -40.04544,17.64336 -40.25475,35.29072 -0.0467,3.93374 0.28521,7.89911 0.73749,8.81192 0.61466,1.24055 0.25155,1.84081 -1.43792,2.37703 -5.10489,1.62023 -8.3088,-9.5635 -5.97685,-20.8631 1.47328,-7.13887 0.0292,-12.36697 -5.98696,-21.67516 -7.0297,-10.87632 -10.73187,-19.31945 -12.32468,-28.10759 -0.83645,-4.61496 -2.411,-12.6891 -3.49902,-17.94252 -2.06912,-9.99066 -1.80423,-17.9938 0.75127,-22.69832 1.47301,-2.71171 -0.17724,-3.07203 -3.28929,-0.7182 -4.12197,3.11771 -7.33977,0.10159 -3.93015,-3.68381 2.74919,-3.05218 5.77513,-3.91878 16.65256,-4.76911 8.88349,-0.69445 10.05549,-1.02734 12.76873,-3.62679 5.49649,-5.26597 11.18017,-28.39459 8.14963,-33.1633 -1.31539,-2.06983 -7.39786,-4.0593 -14.69964,-4.80799 -3.85,-0.39476 -10.36708,-1.77485 -14.48241,-3.06687 -4.11532,-1.29201 -7.86333,-1.96819 -8.32891,-1.50261 -0.46558,0.46558 -1.08311,2.61048 -1.37229,4.76645 -0.65585,4.88977 2.25092,8.75278 9.19616,12.22139 3.86231,1.92894 5.7445,2.26168 10.35393,1.83041 3.09844,-0.28989 6.30852,-0.68514 7.13352,-0.87833 0.95041,-0.22255 1.5,0.38154 1.5,1.64876 0,1.59367 -1.11741,2.27473 -5.5,3.35224 -4.69205,1.1536 -6.16547,1.14071 -10.03009,-0.0877 -3.247,-1.03212 -5.16879,-1.15498 -6.7851,-0.43376 -1.68228,0.75065 -3.14364,0.58245 -5.75383,-0.66227 -1.92436,-0.91766 -4.12857,-1.66847 -4.89825,-1.66847 -0.76968,0 -3.64524,2.1875 -6.39013,4.8611 -5.78522,5.63498 -7.63151,10.69581 -6.54509,17.94059 0.63026,4.20286 0.53894,4.55644 -0.87396,3.38384 -2.2934,-1.90335 -4.74111,-9.84775 -4.06921,-13.20723 0.31786,-1.58931 2.11559,-4.68607 3.99495,-6.88168 l 3.41703,-3.99202 -4.28316,-1.94363 -4.28316,-1.94363 -2,2.26297 c -4.90631,5.55143 -11.01592,5.63964 -17.15699,0.2477 l -3.61424,-3.17333 0.73036,9.97266 c 1.45153,19.82002 2.40522,21.86843 12.56298,26.98379 5.11776,2.57727 6.97789,4.04381 6.97789,5.50144 0,2.37697 0.27856,2.34982 -5,0.48743 -2.3383,-0.825 -4.53238,-1.50018 -4.87573,-1.50039 -0.34335,-2.2e-4 -0.46329,10.01228 -0.26653,22.25 0.24925,15.50277 -0.17149,28.44109 -1.3874,42.66434 -1.98898,23.26632 -1.59561,34.37652 1.57862,44.58605 2.74645,8.83361 5.17051,13.67809 10.03274,20.05043 5.03143,6.59409 6.57589,10.47455 9.06254,22.7696 2.1617,10.68837 3.41982,12.98783 8.34737,15.25646 3.85554,1.77507 15.25843,1.26864 18.56913,-0.8247 z m -5.39818,-7.53235 c -2.00809,-4.44621 -3.61297,-6.36424 -7.20926,-8.61594 -4.63206,-2.9002 -6.96548,-6.33459 -5.42204,-7.98028 2.5139,-2.68045 13.93993,5.90269 17.09027,12.83807 2.34276,5.15752 2.34308,7.21969 0.001,8.47296 -1.64159,0.87855 -2.20131,0.28689 -4.46029,-4.71481 z m 61.27419,-11.79566 c -0.83832,-1.01011 -0.94827,-1.8182 -0.30612,-2.25 7.34228,-4.93713 23.70941,-14.8775 26.8309,-16.29541 6.04166,-2.74438 10.14084,-2.42985 13.61539,1.04471 3.22785,3.22784 3.73226,6.16047 1.39347,8.1015 -2.3337,1.9368 -6.82128,-0.34366 -5.96782,-3.03267 0.53011,-1.67023 0.17722,-1.98836 -2.18518,-1.96995 -3.76399,0.0293 -9.88724,2.90301 -17.38029,8.15664 -12.55845,8.80517 -13.55345,9.19353 -16.00035,6.24518 z m -21.18675,-24.99965 c -1.35398,-1.36745 -0.78638,-3.33429 1.28162,-4.44105 1.1174,-0.59801 5.38921,-1.46383 9.49291,-1.92405 7.14116,-0.80084 7.83702,-1.11991 16.21838,-7.4364 5.60721,-4.2258 12.89358,-8.45237 20.25709,-11.75046 13.35003,-5.97942 17.14319,-8.55464 20.55031,-13.95187 1.36113,-2.15616 2.91913,-3.9203 3.46223,-3.9203 1.87481,0 1.09107,8.59857 -1.02946,11.29438 -1.10931,1.41026 -7.52181,5.36182 -14.25,8.78126 -6.72819,3.41944 -15.84296,8.82919 -20.25504,12.02168 -11.59237,8.38801 -18.35346,11.27113 -27.47804,11.71743 -4.125,0.20176 -7.8375,0.026 -8.25,-0.39062 z m -43.14568,-7.46256 c -7.33013,-2.19352 -12.77688,-12.14661 -15.10698,-27.60567 -2.25049,-14.93091 -1.63624,-22.3559 1.84946,-22.3559 1.07331,0 1.52744,2.48663 1.96323,10.75 0.31181,5.9125 1.07057,12.83835 1.68614,15.39078 1.49985,6.21908 6.77931,14.82138 10.63325,17.3257 1.72118,1.11844 3.97118,2.5801 5,3.24815 1.82154,1.18279 1.81969,1.25488 -0.0705,2.75 -2.16282,1.71072 -1.95609,1.69347 -5.95455,0.49694 z m -9.59083,-97.44531 c -1.62554,-1.95866 1.66218,-20.51626 3.63472,-20.51626 2.61429,0 3.13272,3.407 1.78912,11.75755 -1.7115,10.63711 -2.63168,12.12306 -5.42384,8.75871 z m 503.69027,61.69275 c 1.2121,-2.58996 4.8121,-7.80583 8,-11.59083 3.188,-3.785 7.1463,-8.735 8.7963,-11 l 3,-4.11818 -0.2157,-16.5 c -0.1209,-9.24988 -0.9997,-21.99251 -2,-29 l -1.7843,-12.5 -9,-4.5 c -10.4987,-5.24935 -13.3933,-8.75354 -18.6395,-22.56457 l -3.2042,-8.43543 -60.7289,0 -60.72881,0 2.26118,6.75 c 5.20937,15.5508 5.76645,29.57635 1.59392,40.13001 -1.16988,2.95901 -1.99806,5.46642 -1.8404,5.57204 0.15766,0.10561 2.36178,1.37952 4.89804,2.83091 2.53627,1.45139 10.55928,7.98291 17.82891,14.5145 7.26963,6.53158 15.66826,13.3609 18.66356,15.17626 l 5.4461,3.30066 7.725,-1.35804 c 16.9549,-2.98061 29.6435,-1.08591 46.2251,6.90246 5.876,2.83084 9.4488,5.57287 16.5,12.66352 4.95,4.97767 10.1242,11.18047 11.4983,13.784 1.374,2.60352 2.724,4.71523 3,4.69269 0.2759,-0.0225 1.4934,-2.16004 2.7054,-4.75 z M 646.18815,465.64693 c 9.46967,-8.85777 19.33896,-12.07852 47.98649,-15.65994 12.40378,-1.55069 18.42769,-2.74401 20.68561,-4.09776 1.75209,-1.05048 5.63666,-5.63163 8.63238,-10.18033 2.99573,-4.54871 6.9622,-9.55584 8.81439,-11.12697 4.03817,-3.42538 17.82323,-9.9339 30.82322,-14.55296 5.20059,-1.84784 11.92627,-4.84745 14.94597,-6.66582 16.58377,-9.98622 39.93646,-14.49324 56.79169,-10.96067 l 6.19326,1.29801 -0.5925,-15.17137 c -0.38833,-9.94353 -0.21441,-16.25594 0.50472,-18.31884 l 1.09722,-3.14748 -96.28885,0 -96.28885,0 -1.27483,5.75 c -1.99023,8.97673 -5.87753,18.46551 -8.84069,21.57983 -1.4865,1.56234 -6.17348,4.43223 -10.4155,6.37753 -9.78448,4.48697 -10.31465,5.75864 -9.48048,22.7399 0.44712,9.10214 1.20538,13.83789 3.09738,19.34479 2.35955,6.86776 17.36979,37.20795 18.40794,37.20795 0.26428,0 2.60492,-1.98714 5.20143,-4.41587 z M 959.72069,399.3128 c 2.17891,-6.88457 2.45801,-19.99419 0.54821,-25.75 -0.72997,-2.2 -2.64779,-6.8125 -4.26182,-10.25 l -2.9346,-6.25 -51.49995,0 -51.49994,0 -1.58142,3.75 c -1.30312,3.09005 -1.47137,6.21381 -0.95606,17.75 0.34395,7.7 0.89903,14.98569 1.2335,16.19043 0.40647,1.46406 2.0642,2.68656 4.99901,3.68655 4.25651,1.45034 4.69931,1.39225 14.47044,-1.89834 9.66792,-3.25583 23.41738,-5.91756 25.12289,-4.86349 1.34264,0.82979 0.97851,-0.45471 -2.83225,-9.99117 -4.49756,-11.2552 -7.52355,-15.33906 -13.15396,-17.75253 -4.38729,-1.88061 -5.18989,-4.05053 -1.74517,-4.71828 0.98406,-0.19076 3.53257,0.43932 5.66337,1.40017 5.0768,2.28932 12.16954,12.60386 15.8635,23.06934 1.51612,4.29534 3.37794,8.11425 4.13739,8.48647 0.75944,0.37222 9.70581,2.27749 19.88081,4.23393 10.175,1.95644 22.1,4.65038 26.5,5.98654 4.4,1.33615 8.5009,2.4836 9.11311,2.54988 0.61221,0.0663 1.93203,-2.467 2.93294,-5.6295 z m 209.64471,-42 c 3.968,-4.25433 4.8101,-6.61139 4.7995,-13.43426 -0.02,-13.15648 -7.8407,-22.81574 -18.472,-22.81574 l -3.3517,0 3.3985,8.25 c 3.7393,9.07768 4.2872,14.77456 1.9572,20.35116 -1.323,3.16625 -1.3093,3.7941 0.1302,5.99104 3.3496,5.11228 7.7294,5.74155 11.5383,1.6578 z m -594.17396,-0.76788 c 2.34632,-2.49754 2.35173,-2.55611 0.66937,-7.25 -2.34907,-6.55405 -2.11382,-12.96297 0.76715,-20.89997 1.34933,-3.71736 2.21165,-7.00033 1.91626,-7.29549 -1.04099,-1.04021 -8.96878,-0.33805 -11.9011,1.05406 -4.12636,1.95898 -6.69667,7.78459 -7.25192,16.43641 -0.5404,8.42066 0.66002,12.79716 4.73333,17.25687 3.6796,4.02864 7.6998,4.28224 11.06691,0.69812 z m 20.41754,-1.37589 c 0.30381,-0.49157 -0.11963,-2.50211 -0.94098,-4.46788 -2.89246,-6.92262 -1.2382,-19.03322 3.84125,-28.12135 l 2.5246,-4.517 -6.84071,0 c -6.37986,0 -7.01153,0.203 -9.37621,3.01327 -1.39453,1.6573 -3.53809,6.12622 -4.76348,9.93093 -2.02657,6.2923 -2.11405,7.42679 -0.9676,12.54965 0.79493,3.55214 2.37483,6.90128 4.27818,9.06907 2.56728,2.92398 3.6653,3.43708 7.35519,3.43708 2.38556,0 4.58596,-0.40219 4.88976,-0.89377 z m 552.71652,-0.18691 c 2.873,-1.53759 5.8015,-8.61369 5.8272,-14.08034 0.028,-5.93128 -3.3343,-14.76107 -7.421,-19.48868 -3.0274,-3.50222 -3.4812,-3.6784 -9.844,-3.82206 l -6.6703,-0.15059 2.0375,3.06117 c 3.3855,5.08656 5.8226,11.30295 7.0564,17.99926 0.9744,5.28826 0.9153,7.1245 -0.3537,10.97896 -1.3874,4.21437 -1.3788,4.71333 0.097,5.57537 2.1944,1.28212 6.8069,1.24575 9.2712,-0.0731 z m -545.15086,-0.29688 c 0,-0.20765 -0.7875,-0.99515 -1.75,-1.75 -1.58606,-1.24387 -1.62143,-1.2085 -0.37756,0.37756 1.30637,1.66575 2.12756,2.19548 2.12756,1.37244 z M 1135.142,342.70202 c -0.077,-14.51002 -9.0097,-27.92144 -17.4289,-26.16791 -1.3961,0.29078 -3.6954,0.7703 -5.1096,1.06561 l -2.5712,0.53691 3.0901,3.51941 c 1.6996,1.93568 3.6251,5.51971 4.279,7.96452 1.03,3.85131 1.4617,4.34903 3.2311,3.72581 3.8195,-1.3453 7.6831,-0.59718 10.2686,1.98834 3.3592,3.35916 4.3157,11.39736 1.8399,15.46183 l -1.685,2.76626 2.0593,-2.36078 c 1.6097,-1.84522 2.0523,-3.70151 2.0267,-8.5 z m -71.3853,7.70485 20.082,-0.65067 -0.445,-2.32823 c -0.6955,-3.63793 0.5252,-6.93783 3.0093,-8.13498 1.6556,-0.79792 -44.6682,-1.11318 -170.8139,-1.16251 -172.7551,-0.0676 -275.41446,0.65463 -275.41446,1.93748 0,0.37305 1.72588,1.19535 3.83529,1.82735 3.71337,1.11255 6.16471,4.18017 6.16471,7.71454 0,1.26568 25.35842,1.45261 196.75,1.45032 108.2125,-0.001 205.78696,-0.29543 216.83206,-0.6533 z M 598.85775,346.8753 c -0.31922,-0.79773 -0.55618,-0.56078 -0.60416,0.60417 -0.0434,1.05416 0.19292,1.64479 0.52522,1.3125 0.33229,-0.33229 0.36781,-1.19479 0.0789,-1.91667 z m 0.30158,-5.92764 c 0.008,-0.88833 0.98982,-2.85403 2.18088,-4.36822 2.00368,-2.54726 2.54917,-2.708 7.29665,-2.15003 l 5.13108,0.60306 1.16764,-4.36567 c 0.6422,-2.40112 2.32673,-5.74317 3.74339,-7.42678 l 2.57575,-3.0611 -3.79004,-1.05248 c -6.88157,-1.91099 -9.28747,-1.39188 -13.35212,2.88096 -2.96479,3.11664 -4.08673,5.41448 -5.34517,10.94741 -1.8416,8.09693 -2.12915,13.4854 -0.59275,11.10799 0.53316,-0.825 0.97627,-2.22681 0.98469,-3.11514 z m 36.85706,-3.39634 c 0.4632,-2.52543 3.06173,-5.48852 4.81324,-5.48852 3.3509,0 -0.93887,-5.95777 -6.02892,-8.37315 -4.90302,-2.32664 -7.08855,-2.03769 -11.07733,1.4645 -3.6802,3.23126 -6.49928,10.35811 -4.77807,12.07932 0.89969,0.89969 12.29625,2.73534 15.21785,2.45115 0.81868,-0.0796 1.65264,-1.03962 1.85323,-2.1333 z m 478.02591,-2.02276 c 1.1489,-1.14891 -2.4045,-9.20266 -5.3677,-12.16585 -2.5276,-2.52765 -4.154,-3.29991 -6.9496,-3.29991 -6.9824,0 -11.6697,3.96992 -11.4343,9.68426 0.07,1.69034 0.2988,2.1163 0.5733,1.06574 0.2515,-0.9625 0.8046,-1.75 1.229,-1.75 1.2275,0 3.7787,3.28266 4.5735,5.88459 0.7128,2.33364 0.9014,2.37017 8.8257,1.70931 4.4534,-0.37141 8.301,-0.87907 8.5501,-1.12814 z m -190.86766,-5.19625 c -4.93371,-2.20938 -25.78478,-2.24419 -32,-0.0534 -4.38653,1.54618 -3.99571,1.58661 15.5,1.60347 18.97426,0.0164 19.8205,-0.0631 16.5,-1.55005 z"
       id="path3256"
       inkscape:connector-curvature="0" />
  </g>
</svg>
