<?xml version="1.0" encoding="UTF-8" standalone="no"?>
<!-- Created with Inkscape (http://www.inkscape.org/) -->

<svg
   xmlns:dc="http://purl.org/dc/elements/1.1/"
   xmlns:cc="http://creativecommons.org/ns#"
   xmlns:rdf="http://www.w3.org/1999/02/22-rdf-syntax-ns#"
   xmlns:svg="http://www.w3.org/2000/svg"
   xmlns="http://www.w3.org/2000/svg"
   xmlns:sodipodi="http://sodipodi.sourceforge.net/DTD/sodipodi-0.dtd"
   xmlns:inkscape="http://www.inkscape.org/namespaces/inkscape"
   width="809.00073"
   height="899.80756"
   id="svg2"
   version="1.1"
   inkscape:version="0.48.3.1 r9886"
   sodipodi:docname="Body-row-1.svg">
  <defs
     id="defs4" />
  <sodipodi:namedview
     id="base"
     pagecolor="#ffffff"
     bordercolor="#666666"
     borderopacity="1.0"
     inkscape:pageopacity="0.0"
     inkscape:pageshadow="2"
     inkscape:zoom="0.7"
     inkscape:cx="281.41185"
     inkscape:cy="488.54478"
     inkscape:document-units="px"
     inkscape:current-layer="layer1"
     showgrid="false"
     fit-margin-top="0"
     fit-margin-left="0"
     fit-margin-right="0"
     fit-margin-bottom="0"
     inkscape:window-width="1855"
     inkscape:window-height="1056"
     inkscape:window-x="65"
     inkscape:window-y="24"
     inkscape:window-maximized="1" />
  <metadata
     id="metadata7">
    <rdf:RDF>
      <cc:Work
         rdf:about="">
        <dc:format>image/svg+xml</dc:format>
        <dc:type
           rdf:resource="http://purl.org/dc/dcmitype/StillImage" />
        <dc:title></dc:title>
      </cc:Work>
    </rdf:RDF>
  </metadata>
  <g
     inkscape:label="Ebene 1"
     inkscape:groupmode="layer"
     id="layer1"
     transform="translate(-442.29222,-312.27115)">
    <path
       style="fill:#000000"
       d="m 667.55781,1207.6379 -9.1386,-4.4479 -3.609,-7.1665 c -4.3164,-8.5711 -6.9629,-18.4944 -7.9045,-29.6381 -0.6398,-7.5707 -0.3838,-9.3749 3.3336,-23.5 2.2146,-8.4148 5.5757,-20.1693 7.469,-26.121 1.8934,-5.9517 3.2752,-10.654 3.0708,-10.4496 -0.2045,0.2045 -5.5616,8.1791 -11.9047,17.7214 -11.2508,16.9252 -11.5333,17.4866 -11.5503,22.9496 -0.046,14.7329 -6.3526,30.5816 -15.4951,38.9373 -12.2415,11.188 -32.5453,13.2957 -48.6982,5.0551 -11.9208,-6.0815 -22.6058,-24.0946 -30.2564,-51.007 -1.898,-6.6769 -9.6496,-15.8648 -18.1382,-21.4992 -13.3749,-8.8777 -21.1956,-22.3152 -25.4051,-43.6505 -0.9503,-4.8163 -1.8598,-6.4413 -5.5314,-9.8826 -5.6517,-5.2973 -8.0853,-11.3409 -6.7248,-16.7009 0.7325,-2.8859 0.5893,-5.749 -0.5538,-11.0732 -1.4152,-6.5912 -1.402,-7.7635 0.1609,-14.2757 1.5062,-6.2757 2.3882,-7.8276 7.6403,-13.442 4.1756,-4.4638 6.3649,-7.7863 7.3777,-11.19692 2.4165,-8.1373 5.434,-12.954 10.7455,-17.1525 2.7916,-2.2066 5.4804,-4.012 5.9752,-4.012 0.4948,0 3.4088,-2.2723 6.4756,-5.0496 3.0667,-2.7773 6.7008,-5.4773 8.0757,-6 7.1604,-2.7224 16.3762,0.5591 21.9049,7.7997 1.9055,2.4956 3.4646,5.0594 3.4646,5.6974 0,0.6379 1.1729,3.5134 2.6064,6.3901 1.9507,3.9147 3.6373,5.7562 6.7054,7.3214 7.3352,3.7422 15.4538,12.53602 20.8995,22.63782 2.7597,5.1192 5.1455,9.1716 5.3018,9.0054 0.1562,-0.1662 1.6767,-5.6442 3.3787,-12.1732 3.6776,-14.10742 5.0192,-16.49932 15.5473,-27.72102 4.4335,-4.7256 9.633,-11.2283 11.5544,-14.4504 3.3011,-5.5357 3.468,-6.2469 3.0286,-12.908 -0.785,-11.9023 -0.359,-17.9975 1.5108,-21.6133 0.9754,-1.8862 5.632,-7.256 10.348,-11.9329 l 8.5745,-8.5034 0.733,-19 c 0.8488,-22.0015 0.8318,-19.2159 0.1697,-27.6804 -0.4794,-6.1277 -0.1803,-7.5342 3.6146,-17 2.2755,-5.6758 5.2503,-12.2216 6.6108,-14.5463 4.5269,-7.7355 13.3284,-17.0667 22.8438,-24.2187 11.4177,-8.5817 13.6068,-11.0951 18.0619,-20.7376 1.9064,-4.1262 4.8315,-9.0572 6.5001,-10.9576 1.6687,-1.9005 4.58,-6.52563 6.4697,-10.27807 1.8897,-3.75244 5.0781,-8.79333 7.0854,-11.20198 5.4612,-6.55347 19.455,-30.04606 19.4553,-32.66148 2e-4,-1.25516 -0.7673,-3.95516 -1.7056,-6 -1.3823,-3.01268 -1.7142,-6.85587 -1.75,-20.26174 -0.051,-19.2746 0.6218,-17.55504 -12.4078,-31.69333 -9.1561,-9.93509 -15.862,-15.12922 -26.1363,-20.24413 -6.7684,-3.36954 -16.209,-9.96905 -19.2845,-13.48093 -6.6199,-7.55925 -21.6399,-31.76741 -32.5971,-52.53775 -4.4973,-8.525 -8.8067,-16.625 -9.5764,-18 -2.7481,-4.90925 -9.0817,-11.84318 -11.3784,-12.45703 -3.1635,-0.84549 -11.6321,-8.90285 -13.5032,-12.84739 -0.8337,-1.75757 -2.0434,-6.22671 -2.6883,-9.93141 -0.9472,-5.44178 -2.1407,-8.11457 -6.2124,-13.91243 -2.772,-3.94713 -6.5507,-10.4465 -8.3972,-14.44304 -6.011,-13.00999 -11.2959,-39.01347 -11.3452,-55.82195 -0.025,-8.54174 -8.4243,-40.79717 -12.0915,-46.43467 -3.6106,-5.55036 -8.3821,-20.34997 -9.8824,-30.65208 -0.6409,-4.4 -1.3866,-8.76712 -1.6573,-9.70472 -0.4569,-1.5827 -4.3988,-1.69006 -55.0742,-1.5 -50.6929,0.19013 -54.6598,0.082 -55.6745,-1.51776 -2.6323,-4.15034 -1.3025,-4.26082 55.4118,-4.60357 l 53.9508,-0.32606 0,-5.92394 0,-5.92395 -56.25,-0.0153 c -30.9375,-0.008 -56.8568,-0.39985 -57.5984,-0.86983 -0.7416,-0.46998 -1.1855,-1.70059 -0.9864,-2.73469 0.3487,-1.811 2.5037,-1.88966 58.5822,-2.13822 l 58.2202,-0.25805 2.0795,-4.07627 c 1.6409,-3.2163 3.2678,-4.62026 7.7118,-6.65477 3.121,-1.42887 7.6628,-2.63498 10.1866,-2.70518 2.505,-0.0697 5.6795,-0.75339 7.0545,-1.51936 2.4028,-1.3385 21.754,-3.44282 29,-3.15355 1.925,0.0769 7.501,0.15773 12.391,0.17973 5.6425,0.0254 9.8922,0.55768 11.6309,1.45684 3.8523,1.99208 7.717,6.88515 9.1097,11.53373 l 1.185,3.95493 216.2419,0 216.24209,0 1.1684,-4.87036 c 2.0208,-8.42386 9.4957,-13.78236 17.5424,-12.57567 2.6208,0.39301 5.8328,0.0815 8.5877,-0.83283 5.3518,-1.77624 27.5298,-2.10445 33.401,-0.49431 2.2,0.60334 6.4937,1.18657 9.5415,1.29606 8.2414,0.29608 14.2991,3.36788 17.929,9.09171 1.6547,2.6091 3.2667,5.55752 3.5824,6.55205 0.5374,1.6932 2.8432,1.82493 36.2471,2.07079 34.008,0.2503 35.69,0.35032 36.035,2.14273 0.199,1.0341 -0.245,2.26471 -0.9866,2.73469 -0.7416,0.46998 -16.712,0.86141 -35.4897,0.86983 l -34.1413,0.0153 0.1764,5.75 0.1763,5.75 37.465,0.53053 c 20.6057,0.2918 37.6087,0.6293 37.7845,0.75 0.1757,0.12071 0.1757,1.23197 0,2.46947 l -0.3196,2.25 -37,0.61155 c -20.35,0.33635 -37.2715,0.67385 -37.6033,0.75 -0.3318,0.0761 -0.88,3.40095 -1.2182,7.38845 -0.9415,11.10007 -3.6028,22.71349 -6.4737,28.25 l -2.5927,5 -0.2931,43.28299 -0.2932,43.28298 -3.1142,9.39163 c -1.9116,5.76512 -6.5598,15.50247 -12.0374,25.21701 -7.3317,13.00281 -9.738,18.41157 -13.4917,30.32539 -6.4726,20.54317 -6.0872,19.78075 -13.9906,27.68251 -6.1485,6.14734 -7.5098,8.16506 -9.445,14 -1.2436,3.74962 -4.2534,11.09249 -6.6885,16.31749 -2.435,5.225 -5.7768,12.875 -7.4261,17 -9.028,22.57961 -16.8033,31.34884 -43.8432,49.44759 -4.5811,3.06634 -13.8988,8.29491 -20.7059,11.61906 -8.4369,4.12003 -12.6501,6.74252 -13.2359,8.23863 -0.4726,1.20709 -2.3112,6.24472 -4.0857,11.19472 -7.6945,21.46387 -13.2068,28.85639 -28.78609,38.60511 -5.142,3.21754 -7.4861,5.39882 -8.7503,8.14241 -2.3605,5.12278 -10.8749,12.94158 -18.0143,16.54252 -3.251,1.63978 -9.8409,4.36751 -14.6442,6.06164 -4.8033,1.69413 -9.8019,3.78043 -11.1081,4.63623 -2.6045,1.7066 -4.9948,6.5546 -6.6619,13.5121 -0.5931,2.475 -2.0225,7.108 -3.1765,10.2956 -2.0503,5.6631 -2.0611,6.029 -0.473,16 5.5643,34.9361 5.0732,40.9058 -4.3448,52.8204 -5.6018,7.0869 -8.1969,12.4603 -12.0255,24.8996 -7.6709,24.9236 -19.2226,41.9844 -28.4273,41.9844 -1.4023,0 -2.5497,0.4023 -2.5497,0.8939 0,0.4917 -4.9266,5.8755 -10.9479,11.9641 -9.0362,9.137 -11.0549,11.7312 -11.5603,14.856 -1.9973,12.3491 -2.4407,13.2396 -11.7835,23.6658 -4.9588,5.5337 -9.8748,12.00302 -10.9245,14.37612 -1.0498,2.3732 -3.2243,11.1614 -4.8322,19.5295 -8.1769,42.5543 -13.22,51.5385 -40.4516,72.0643 -22.159,16.7022 -30.8576,27.0242 -39.3132,46.6503 -5.6019,13.0022 -6.1868,15.0759 -6.1868,21.934 0,8.1698 -1.3282,10.2104 -11.5127,17.6885 -4.5139,3.3143 -6.5861,5.5506 -7.0344,7.5917 -1.0548,4.8028 -7.3862,10.4157 -16.6414,14.7528 -8.2662,3.8737 -22.6427,8.0117 -27.8841,8.026 -1.4149,0 -6.6849,-1.9945 -11.7111,-4.4408 z m 35.6219,-9.2748 c 8.462,-5.0059 15.6909,-12.7609 17.1395,-18.3867 4.0792,-15.8431 6.2352,-19.8907 10.5949,-19.8907 3.1761,0 3.1605,2.2355 -0.071,10.1882 -1.3741,3.3816 -2.3306,6.3162 -2.1256,6.5212 0.205,0.205 1.7708,-0.8036 3.4795,-2.2413 3.7174,-3.128 5.5036,-8.8899 4.6078,-14.8636 -0.8603,-5.7368 2.5588,-15.4751 9.7391,-27.7394 3.0156,-5.1508 7.3702,-12.6215 9.6769,-16.6016 4.6859,-8.0854 10.3458,-13.1161 28.1206,-24.9941 9.6069,-6.4198 18.6584,-14.4456 22.49,-19.9415 2.6207,-3.759 6.2962,-11.6123 9.5346,-20.3722 3.1138,-8.4227 6.9614,-29.8607 6.9708,-38.8397 0.01,-9.4683 4.1222,-15.97272 14.6993,-23.24992 7.2414,-4.9823 10.2865,-10.5188 11.3515,-20.6391 0.505,-4.7999 0.9263,-8.8616 0.9361,-9.0261 0.01,-0.1645 4.7178,-5.2207 10.4623,-11.2359 8.4441,-8.8421 11.2693,-12.6011 14.75,-19.6256 4.0054,-8.0831 4.3049,-9.2514 4.2972,-16.764 -0.01,-7.1342 -0.4042,-8.8913 -3.4068,-15.0754 -5.1255,-10.5569 -12.9799,-17.7426 -27.1407,-24.8306 -33.0979,-16.5666 -55.3449,-12.0316 -72.9002,14.8605 -5.877,9.0027 -8.2941,16.3024 -8.2941,25.0492 0,8.2949 0.7283,9.1909 4.3337,5.3314 2.4232,-2.5941 3.1935,-2.9254 4.4251,-1.9032 2.3297,1.9335 1.8782,3.1353 -4.159,11.0682 -6.8837,9.0452 -10.1997,16.001 -11.6418,24.4199 -0.9912,5.7866 -0.8317,7.4204 1.7125,17.544 2.4851,9.8878 2.6354,11.3333 1.3161,12.6526 -1.3194,1.3194 -1.7161,1.2463 -3.473,-0.6395 l -1.9835,-2.129 -1.6247,2.4797 c -0.8936,1.3638 -3.5441,3.8037 -5.89,5.422 -2.346,1.6183 -5.7755,4.8275 -7.6211,7.1315 l -3.3558,4.1892 2.0353,2.1771 c 1.1195,1.1973 3.5726,4.73522 5.4515,7.86192 l 3.4161,5.6849 7.8622,-8.9306 c 9.4606,-10.74632 9.4296,-10.69402 11.1386,-18.84692 1.5088,-7.198 3.6484,-10.3304 6.7526,-9.8863 3.4487,0.4933 3.0397,4.932 -1.3701,14.8668 -3.8578,8.6911 -8.4596,15.10052 -18.3495,25.55732 l -3.9062,4.13 3.7454,2.8568 c 7.2942,5.5635 9.371,16.0612 5.373,27.1581 -1.4757,4.096 -2.3078,9.8509 -2.924,20.225 -0.4738,7.975 -1.4948,16.8244 -2.2689,19.6654 -0.7844,2.8785 -5.2962,11.4505 -10.191,19.3619 -7.2731,11.7555 -9.4312,16.2417 -12.5509,26.0906 -4.0112,12.6633 -5.3032,15.0877 -7.5757,14.2157 -2.303,-0.8838 -1.7056,-8.0626 1.4015,-16.8418 3.2588,-9.2079 3.8851,-10.4906 9.8075,-20.0876 8.993,-14.5727 13.0704,-28.482 14.257,-48.635 0.7435,-12.6272 1.0267,-14.0457 3.5241,-17.6495 3.8978,-5.6244 3.3722,-10.7355 -1.417,-13.7812 -7.3542,-4.677 -8.6856,-6.2085 -10.4648,-12.0381 -2.3703,-7.7661 -5.7699,-13.5126 -10.6767,-18.0476 -2.2333,-2.06402 -4.7016,-4.99032 -5.4852,-6.50282 -1.2247,-2.3641 -2.0388,-2.75 -5.8011,-2.75 -3.9637,0 -4.4752,0.283 -5.4223,3 -1.3911,3.9903 -4.8706,4.1432 -5.6919,0.25 -1.8671,-8.8503 -5.716,-12.4397 -13.4644,-12.5566 -5.6411,-0.085 -9.044,1.8606 -12.7331,7.2809 -4.0932,6.0138 -4.4224,9.3581 -1.7085,17.35412 1.3387,3.9444 2.4372,7.911 2.4411,8.8146 0.011,2.6289 -2.795,2.9859 -4.9859,0.6343 -1.5854,-1.7016 -2.0072,-1.8227 -2.0072,-0.5759 0,0.8682 -1.9884,4.2796 -4.4186,7.5808 -7.4947,10.1808 -8.0418,11.6744 -7.9553,21.7178 0.053,6.0974 0.7818,11.4188 2.2612,16.5 3.5689,12.2578 5.7652,54.0438 3.1022,59.0197 -0.5829,1.0892 -1.9882,1.9803 -3.1229,1.9803 -1.9281,0 -2.0236,-0.4086 -1.4614,-6.25 0.8821,-9.164 -0.7075,-4.7022 -5.9454,16.6878 -6.3318,25.8576 -7.1021,31.1905 -5.6924,39.4111 2.5839,15.0681 8.4136,24.2865 17.3576,27.4471 2.7487,0.9714 8.1007,1.5754 14.3978,1.625 9.8362,0.078 10.1398,0.01 16.3154,-3.6436 z m 31.6618,-150.2228 c -3.1293,-1.2808 -5.5516,-4.5086 -6.9216,-9.2234 -1.0386,-3.5743 -2.0568,-4.7702 -5.8265,-6.843 -6.2133,-3.4165 -8.4795,-5.6327 -9.7756,-9.5602 -0.8061,-2.4424 -0.7981,-3.8925 0.03,-5.4398 1.5068,-2.8155 3.2561,-2.0554 4.393,1.9087 0.7356,2.5648 2.0937,3.8285 6.515,6.0623 6.8778,3.475 8.3734,5.1415 10.512,11.7138 2.0364,6.2582 3.6454,7.7783 7.3179,6.9132 5.124,-1.207 5.7521,-1.105 6.051,0.9824 0.5052,3.5273 -6.9973,5.6545 -12.2953,3.486 z m -34.5,-29.049 c -1.6791,-1.062 -1.843,-0.7555 5,-9.3477 5.085,-6.3848 7,-7.0983 7,-2.6082 0,7.1913 -7.5849,14.7484 -12,11.9559 z m 103.3189,-38.61712 c -0.3402,-0.8863 0.1797,-2.9625 1.1552,-4.6139 1.7,-2.8779 1.6985,-3.2505 -0.037,-8.9812 -1.2722,-4.2016 -1.5128,-6.4504 -0.8097,-7.5651 0.5504,-0.8725 4.1022,-2.6325 7.8929,-3.9112 3.9663,-1.338 8.2045,-3.5969 9.9834,-5.3211 3.9958,-3.8728 6.4959,-3.9468 6.4959,-0.1922 0,3.6882 -4.8659,8.3383 -11.9523,11.4223 l -5.4522,2.3729 -0.048,7.7805 c -0.04,6.5138 -0.3638,8.0117 -1.9889,9.2005 -2.5538,1.8682 -4.4766,1.7979 -5.24,-0.1915 z m 28.6758,-48.1385 c -0.01,-5.9296 -0.7133,-7.5634 -6.3272,-14.6031 -2.7732,-3.4776 -3.239,-6.6245 -1.0866,-7.341 3.8364,-1.2772 12.7746,13.1314 12.6645,20.4155 -0.069,4.5457 -1.521,7.2786 -3.8678,7.2786 -1.0098,0 -1.379,-1.5353 -1.3829,-5.75 z m -56.0569,-2.9137 c -0.8808,-2.3167 -0.6198,-3.0692 2.0038,-5.7761 5.1701,-5.3342 13.625,-9.7868 21.3616,-11.2497 4.1486,-0.7844 8.6502,-2.3922 10.7265,-3.8311 1.9678,-1.3637 3.8911,-2.4794 4.2741,-2.4794 1.4308,0 0.6304,4.7487 -1.0538,6.2522 -1.8326,1.6358 -11.9313,5.2222 -17.8114,6.3253 -2.3068,0.4327 -5.701,2.7425 -10.3355,7.0334 -3.7955,3.514 -7.1825,6.3891 -7.5267,6.3891 -0.3443,0 -1.0816,-1.1987 -1.6386,-2.6637 z m -165.8093,254.99722 c 6.2897,-3.4232 10.2006,-8.32 14.4881,-18.14 3.7792,-8.6559 4.3288,-11.5826 1.525,-8.12 l -1.8584,2.295 -1.5969,-4.9342 c -0.8783,-2.7139 -2.7737,-9.185 -4.2119,-14.3802 -1.4383,-5.1953 -4.3285,-12.3953 -6.4228,-16 -9.4108,-16.1982 -11.5371,-22.1686 -8.8516,-24.8541 2.2531,-2.2531 3.6559,-1.2012 5.7063,4.2791 1.1275,3.0136 4.1032,8.5669 6.6127,12.3407 5.1774,7.7862 12.4696,27.4225 12.4766,33.5969 0.01,7.7521 0.951,2.7261 2.0358,-10.8587 1.1795,-14.7724 3.2988,-22.5174 7.4855,-27.3572 2.1358,-2.4688 2.3978,-2.5429 3.0506,-0.8628 0.3927,1.0109 0.2153,3.463 -0.3943,5.4492 -0.6095,1.9861 -0.9866,3.7327 -0.838,3.8813 0.6922,0.6922 20.4835,-22.1751 22.9258,-26.489 l 2.761,-4.8768 -2.0526,-9.9013 c -4.6815,-22.5824 -5.1487,-25.9139 -4.813,-34.3157 0.3655,-9.1476 0.3432,-9.0875 9.674,-26.0857 3.4467,-6.2789 4.1213,-8.4301 4.1433,-13.2125 0.034,-7.46652 3.0879,-15.43992 8.0887,-21.12112 4.4065,-5.006 14.558,-10.6664 19.1294,-10.6664 3.2733,0 9.4522,2.3678 11.8562,4.5434 1.4674,1.328 1.7823,0.8876 3.32,-4.6433 1.5367,-5.5273 2.5546,-6.9524 10.6654,-14.933 l 8.9666,-8.8226 0,-5.8222 c 0.01,-7.2447 0.9601,-8.8282 13.3486,-22.1229 8.4655,-9.0847 9.8375,-11.0743 11.6231,-16.8553 1.1135,-3.6051 2.0246,-9.2033 2.0246,-12.4405 0,-5.0957 -0.6558,-7.1467 -4.8856,-15.281 -9.5771,-18.4175 -16.1482,-26.0832 -24.9214,-29.0725 -12.3847,-4.2199 -35.86,-4.439 -48.7732,-0.4551 -6.0965,1.8808 -7.7102,2.9501 -13.563,8.9874 -7.2527,7.4815 -12.0614,16.9879 -14.0779,27.8309 -1.1826,6.3593 -0.1521,27.0867 1.3467,27.0867 0.5133,0 3.2386,-1.8223 6.0563,-4.0496 5.5253,-4.3675 9.1126,-4.8869 9.6125,-1.3918 0.5312,3.7135 -3.7585,7.4617 -14.1834,12.3929 -11.4308,5.407 -13.2809,6.923 -18.7218,15.3412 -6.3041,9.7536 -7.5652,18.417 -3.8673,26.5665 2.2368,4.9294 2.6321,11.0611 0.7281,11.2931 -0.6875,0.084 -1.773,0.2023 -2.4122,0.2634 -0.6392,0.061 -2.6642,2.2089 -4.5,4.773 -1.8358,2.564 -6.359,8.3705 -10.0515,12.9032 -13.1778,16.17622 -17.7423,28.81002 -18.0315,49.90812 -0.2001,14.5971 0.9354,20.6674 6.4115,34.2747 4.7718,11.8572 5.9901,19.3443 3.3147,20.3709 -2.4433,0.9376 -4.7125,-2.069 -7.8502,-10.4009 -2.9759,-7.9025 -8.4412,-26.434 -12.1199,-41.0962 -2.9529,-11.769 -12.5316,-32.0096 -17.1628,-36.2664 -1.5665,-1.4398 -5.3231,-4.1982 -8.3481,-6.1296 -5.1401,-3.28202 -5.7591,-4.12022 -9.459,-12.80782 -5.6787,-13.3339 -11.9285,-18.5702 -19.8053,-16.5932 -2.8213,0.7081 -8.6522,6.2986 -9.8469,9.441 -1.3831,3.637 -1.0476,12.8923 0.6109,16.8617 2.0733,4.96212 1.8932,6.34582 -0.8257,6.34582 -4.8103,0 -8.657,-7.53502 -8.6687,-16.98082 l -0.01,-4.4807 -3.2122,3.2122 c -2.9623,2.9623 -3.254,3.8488 -3.75,11.396 l -0.5378,8.18382 -3.8491,2.1499 c -5.6725,3.1684 -10.4888,8.2893 -11.6614,12.399 -2.1688,7.6009 -2.224,11.4834 -0.2293,16.1206 1.6865,3.9205 1.772,4.9507 0.6639,8 -3.1247,8.5982 -0.093,16 6.5529,16 3.9031,0 4.4537,1.3611 7.6783,18.981 1.3728,7.5014 3.3053,14.8372 4.3568,16.5385 2.3962,3.8773 13.4893,14.5522 22.1744,21.3385 4.3006,3.3604 8.1184,7.492 10.6994,11.5788 4.4692,7.0764 9.1141,17.7859 9.1141,21.0138 0,3.1478 6.1299,15.2375 11.1799,22.0495 11.0623,14.9222 29.9677,20.4428 43.9486,12.8334 z m -105.441,-141.9793 c -0.3781,-0.3782 -0.6875,-2.3341 -0.6875,-4.3466 0,-4.744 2.8176,-7.4017 10.6516,-10.0473 5.017,-1.6943 6.5691,-2.8116 9.3706,-6.7455 1.9945,-2.8007 3.2753,-5.7298 3.1547,-7.2148 -0.2646,-3.2606 1.2176,-5.4463 3.182,-4.6925 2.1847,0.8383 7.7712,8.7809 7.4262,10.5581 -0.1568,0.8078 -1.6351,1.9068 -3.2851,2.4423 -1.65,0.5355 -5.033,2.8555 -7.5177,5.1556 -2.8178,2.6084 -6.2044,4.6207 -9,5.3477 -5.8235,1.5144 -7.042,2.3738 -8.9224,6.2927 -1.5938,3.3214 -3.1468,4.4759 -4.3724,3.2503 z m 152.807,-72.36322 c -1.4415,-2.3324 0.7578,-4.9141 5.5392,-6.5022 3.0728,-1.0206 5.7955,-2.7742 7.2032,-4.6392 5.9749,-7.9161 9.6348,-11.3553 10.8272,-10.1743 0.7333,0.7264 0.9438,2.4691 0.551,4.563 -1.4909,7.9471 -21.1319,21.5886 -24.1206,16.7527 z m 31.9451,-41.4429 c -0.8836,-1.3485 -2.7662,-5.736 -4.1836,-9.75 -2.2219,-6.2925 -2.5893,-9.0476 -2.6665,-19.9954 -0.1012,-14.3591 0.9313,-17.2872 4.5387,-12.8712 1.636,2.0026 1.8439,3.149 1.179,6.5 -1.488,7.4998 -0.6484,15.68 2.5881,25.216 1.7076,5.0311 3.1047,10.0936 3.1047,11.25 0,2.8634 -2.5851,2.6654 -4.5604,-0.3494 z m 64.1648,40.7641 c 1.398,-3.6143 1.4598,-5.3263 0.4511,-12.5 -1.0581,-7.5246 -0.9773,-8.9281 0.852,-14.8122 1.1114,-3.575 3.3385,-8.5768 4.949,-11.115 2.4941,-3.9309 2.8497,-5.3123 2.3981,-9.3185 l -0.5301,-4.7034 -3.9754,3.8185 c -2.1865,2.1001 -6.575,6.8099 -9.7522,10.4662 -5.3721,6.1821 -5.8246,7.0928 -6.4591,13 -0.9834,9.156 -4.3306,15.3414 -12.5092,23.116 -3.9003,3.7077 -7.0286,7.5281 -7.0286,8.5838 0,1.0463 -0.2696,3.2502 -0.599,4.8975 -0.5551,2.7756 -0.3509,3.0417 2.7856,3.6301 1.8616,0.3493 4.9329,1.6958 6.8251,2.9924 l 3.4403,2.3573 8.7663,-8.1124 c 6.0634,-5.6112 9.2657,-9.4037 10.3861,-12.3003 z m 143.7737,-57.3122 c 4.206,-8.099 6.0641,-13.9525 8.1764,-25.7586 1.7095,-9.5549 1.9409,-10.016 10.6955,-21.3112 4.1209,-5.3167 4.7476,-6.7443 4.7321,-10.7793 -0.021,-5.3334 -2.2461,-20.7395 -3.8499,-26.6509 -1.1272,-4.1546 -6.9404,-12.0393 -12.3002,-16.6835 -1.9749,-1.7111 -2.8792,-3.251 -2.4959,-4.25 1.1112,-2.8957 4.0301,-1.6032 9.8159,4.3464 l 5.7502,5.9129 -2.0029,-5.0812 c -2.6304,-6.6736 -4.5463,-9.2497 -12.2128,-16.4213 -19.8034,-18.5251 -37.7734,-28.17532 -64.8799,-34.84182 -24.0523,-5.91537 -35.7508,-7.66635 -54.8066,-8.20325 -26.7918,-0.75486 -42.3657,2.72766 -57.5172,12.86162 -5.9987,4.01222 -10.5232,9.15311 -9.2106,10.46564 0.1908,0.19087 2.7875,-0.58025 5.7702,-1.71362 2.9828,-1.13336 13.081,-3.82089 22.4404,-5.97229 9.3595,-2.1514 19.4778,-4.58843 22.4851,-5.41561 7.1068,-1.95474 27.5895,-1.97322 39.5352,-0.0357 30.7682,4.99052 74.4969,22.91593 74.4969,30.53803 0,4.2817 -8.8577,1.8905 -15.976,-4.3129 -10.4423,-9.1 -24.2505,-14.93615 -43.0604,-18.19972 -12.3227,-2.13803 -39.8467,-3.3768 -52.0679,-2.34341 -17.0522,1.44189 -45.9445,9.99993 -58.3968,17.29753 -3.9084,2.2905 -4.6572,3.3984 -7.8806,11.6602 -4.2561,10.9086 -6.6915,14.2924 -14.748,20.4918 -8.8456,6.8065 -20.1032,19.53 -27.5635,31.1527 -5.2965,8.2516 -5.0806,9.1522 0.8616,3.5932 6.2154,-5.8147 15.0702,-10.6519 23.5348,-12.8566 7.4399,-1.9379 31.778,-2.0029 38.9093,-0.104 10.3563,2.7576 19.0923,8.3609 26.8247,17.2055 3.9446,4.5119 8.5555,10.9948 10.2465,14.4065 1.691,3.4117 3.2937,5.8205 3.5615,5.353 3.4662,-6.0504 7.4854,-29.9388 6.1947,-36.8187 -0.7679,-4.0935 -3.762,-6.6863 -12.5572,-10.874 -5.0381,-2.3989 -5.8827,-3.2667 -8.1912,-8.416 -4.41,-9.8373 -6.2764,-22.2414 -3.3465,-22.2414 2.5254,0 4.814,3.829 6.3726,10.6623 0.8566,3.7553 2.1763,7.7723 2.9326,8.9266 0.7563,1.1543 5.457,4.5149 10.446,7.4681 9.8832,5.8501 14.9038,10.6917 14.9038,14.3725 0,1.2979 -0.8805,5.2197 -1.9567,8.7151 -2.0557,6.6766 -6.0433,23.174 -6.0433,25.0018 0,0.588 2.6786,-1.4109 5.9524,-4.4419 10.3777,-9.6078 21.4212,-13.6843 37.0476,-13.6753 12.0757,0.01 21.1097,1.9301 30.8146,6.5594 10.6707,5.0901 24.9152,19.3501 30.8778,30.9114 5.9647,11.5655 7.6833,18.2889 7.0165,27.4503 l -0.5495,7.5497 3.9215,-4.5 c 2.1568,-2.475 5.4405,-7.425 7.2972,-11 z m -97.9865,-83.4219 c -1.0547,-2.7485 1.7191,-5.5562 8.903,-9.0115 7.7299,-3.718 21.8375,-7.548 27.8446,-7.5596 4.871,-0.01 8.8386,3.1191 7.2039,5.6803 -0.6364,0.997 -1.7614,1.6036 -2.5,1.3481 -0.7387,-0.2555 -4.8118,-0.6267 -9.0513,-0.8248 -6.7038,-0.3133 -8.5011,0 -13.7935,2.3707 -3.347,1.502 -8.2019,4.2357 -10.7886,6.0748 -5.1317,3.6484 -6.9811,4.1031 -7.8181,1.922 z m 31.8811,-32.0336 c -3.4251,-0.7753 -12.6501,-3.231 -20.5,-5.4571 -22.1578,-6.2834 -28.7166,-7.3902 -40.7457,-6.8755 -8.3318,0.3565 -11.4335,0.9172 -14.874,2.689 -4.7446,2.4435 -7.153,2.2029 -7.153,-0.7145 0,-4.3404 7.182,-7.1717 18.2156,-7.1808 12.6921,-0.01 41.8598,4.9619 62.7844,10.7033 8.5566,2.3478 10.9935,2.583 24.5402,2.3687 13.7391,-0.2173 15.2531,-0.065 17.5,1.7562 1.3529,1.0967 2.2348,2.2099 1.9598,2.4737 -0.275,0.2639 -8.375,0.7423 -18,1.0632 -13.212,0.4405 -19.0259,0.2381 -23.7273,-0.8262 z m 91.6946,-4.5445 c 4.8579,-10.9317 10.568,-20.43123 14.0343,-23.34793 1.7697,-1.48906 7.7511,-4.0246 14.3643,-6.08906 6.2326,-1.94563 12.5469,-4.4932 14.0319,-5.66127 1.4849,-1.16806 5.3496,-6.06444 8.5881,-10.88083 5.2918,-7.87001 6.6806,-9.2216 13.7102,-13.34276 11.4519,-6.71375 16.03799,-12.19036 20.21789,-24.1435 2.8461,-8.13903 2.771,-9.21349 -0.4948,-7.07368 -2.556,1.67475 -5.4192,1.48831 -5.4192,-0.35287 0,-2.37635 5.7298,-7.29513 14.7203,-12.63681 34.3482,-20.40777 63.6171,-44.14792 69.2786,-56.19221 1.0974,-2.33458 4.2035,-8.09591 6.9025,-12.80296 2.8556,-4.98016 6.4619,-13.45364 8.6258,-20.2672 2.0452,-6.43991 4.1932,-13.00759 4.7733,-14.59484 0.5802,-1.58726 5.189,-6.99995 10.2418,-12.02822 l 9.187,-9.14231 2.071,-8.97178 c 1.139,-4.93448 2.3833,-11.22178 2.7652,-13.97178 0.8835,-6.36261 1.8402,-8.18923 9.9862,-19.06743 7.931,-10.59115 9.3067,-13.56486 14.7731,-31.93257 l 4.1666,-14 0.3074,-39.16196 0.3074,-39.16196 -4.053,0.54363 c -5.8512,0.78481 -5.3482,-1.7779 0.9036,-4.60334 7.7748,-3.51377 9.1168,-6.84812 12.511,-31.08456 l 0.6257,-4.4682 -2.2967,2.09323 c -3.5221,3.21009 -6.2947,4.34316 -10.6274,4.34316 -3.2696,0 -4.4946,-0.60649 -7.0089,-3.47015 -2.9382,-3.3464 -3.147,-3.41794 -5.8536,-2.00616 -1.5438,0.8052 -3.5913,1.46676 -4.5502,1.47015 -1.4045,0.005 -1.0644,0.89573 1.75,4.58276 4.1343,5.41625 4.5886,10.35631 1.5077,16.39539 -3.1751,6.22372 -3.961,5.78027 -3.3194,-1.87301 0.5227,-6.23492 0.3204,-7.39442 -1.9669,-11.27432 -1.4023,-2.37856 -3.9303,-5.6373 -5.6178,-7.24164 -2.8944,-2.75171 -3.2819,-2.84966 -6.8392,-1.72864 -2.0741,0.65359 -5.796,1.13602 -8.271,1.07206 -2.475,-0.064 -7.3536,-0.0487 -10.8412,0.0339 -6.7678,0.16025 -11.1588,-1.64987 -11.1588,-4.59998 0,-1.1795 0.5846,-1.42383 2.25,-0.94029 1.2375,0.35931 4.5954,0.92298 7.4619,1.2526 4.3601,0.50137 6.0912,0.16916 10.5913,-2.03257 7.2336,-3.53906 9.1833,-5.86421 9.0539,-10.79766 -0.058,-2.19444 -0.5251,-4.41038 -1.039,-4.9243 -0.5792,-0.57921 -3.9191,-0.17104 -8.7862,1.07375 -4.3185,1.10448 -10.5923,2.01066 -13.9419,2.01373 -7.8294,0.007 -13.1347,1.50632 -15.0605,4.25579 -0.9254,1.32116 -1.5295,4.36964 -1.5295,7.71817 0,6.69339 4.1621,22.42438 6.6818,25.2544 2.5899,2.90878 7.162,4.61122 15.5327,5.78359 4.007,0.56122 8.7514,1.4979 10.5432,2.08152 3.9595,1.28972 5.9364,4.35972 4.1745,6.48268 -1.0452,1.2593 -1.6644,1.18383 -4.6266,-0.56392 -5.9259,-3.49636 -6.1489,-3.14644 -4.6086,7.23219 2.8488,19.19658 -2.8397,36.64172 -19.4831,59.75 -2.971,4.125 -6.774,10.2 -8.4511,13.5 -4.1067,8.08026 -7.3995,25.18825 -9.2575,48.09764 -1.4059,17.33466 -2.6982,23.52004 -5.6594,27.08799 -1.543,1.8592 -4.0948,-0.326 -3.3011,-2.82681 0.9551,-3.00928 -0.6378,-2.22283 -9.1817,4.53308 -13.7311,10.8577 -26.4329,27.02406 -34.0038,43.27885 -7.6587,16.44344 -17.3898,28.26254 -26.62089,32.3333 -4.4667,1.96971 -6.7385,1.98359 -6.7385,0.0412 0,-0.46021 2.155,-2.21958 4.7888,-3.90972 4.7831,-3.0693 9.21119,-7.9949 9.21119,-10.24603 0,-0.89119 -3.2134,-1.03959 -12.74999,-0.58883 -13.9792,0.66076 -21.6098,2.29858 -30.75,6.60018 -6.6182,3.1147 -16.7981,10.80783 -16.0032,12.09397 0.278,0.4498 2.7549,1.1272 5.5043,1.50533 5.5124,0.75816 6.501,2.03412 2.2489,2.90265 -14.7509,3.01297 -19.8819,2.70168 -45.4943,-2.75997 -15.7483,-3.3582 -25.4556,-4.08041 -35.7557,-2.66014 -19.3149,2.66329 -28.9199,8.70932 -34.1151,21.4742 -1.4735,3.62042 -1.6773,3.77242 -2.3245,1.7333 -1.3074,-4.11905 0.4927,-8.54239 5.616,-13.80046 l 4.9793,-5.11027 -4.3278,-1.74226 c -9.0547,-3.6451 -25.8168,-3.03615 -43.6244,1.58484 -6.5285,1.69412 -23.6307,10.03586 -35.8777,17.49972 -2.6401,1.60895 -8.6555,13.46738 -8.134,16.03486 0.7215,3.55248 8.9246,2.1921 24.7755,-4.1087 7.8947,-3.13817 17.5442,-6.29974 21.4434,-7.0257 10.0187,-1.86535 29.0088,-3.01007 28.1991,-1.69984 -1.0316,1.66913 -6.42,2.95615 -17.4869,4.17671 -12.7802,1.40953 -20.8248,3.83504 -33.1229,9.98685 -9.8889,4.94666 -19.4812,8.26802 -24.3274,8.4234 -2.5203,0.0808 -3.1479,0.84172 -5.7777,7.00453 -2.1069,4.93745 -3.2464,9.79711 -3.9861,17 -1.1151,10.85742 -0.8709,13.41499 2.2841,23.91924 2.3834,7.93499 2.1597,8.78669 -4.6082,17.55298 -4.0422,5.23574 -10.2059,15.11454 -9.4297,15.11341 0.1897,-2.8e-4 2.7687,-0.92172 5.7311,-2.04764 2.9623,-1.12592 8.9796,-2.90541 13.3716,-3.95441 4.392,-1.04901 8.2114,-2.13316 8.4874,-2.40924 1.25,-1.24993 -1.0485,-3.6956 -5.4479,-5.79689 -5.6883,-2.71694 -6.4585,-5.36844 -1.4923,-5.13791 3.9316,0.18252 10.8568,4.50992 12.3055,7.68951 1.0219,2.24283 1.186,2.25991 19.6848,2.04965 l 18.6543,-0.21202 2.7753,-3.10605 c 1.5263,-1.70833 2.7752,-4.16885 2.7752,-5.46783 0,-2.46964 2.2072,-5.0661 3.342,-3.93133 1.1896,1.18955 0.6372,5.75424 -1.1883,9.81943 l -1.7938,3.99478 11.814,2.16053 c 6.4976,1.1883 16.95,3.77815 23.2275,5.75523 6.2774,1.97708 11.833,3.59469 12.3456,3.59469 1.1188,0 3.253,-4.42808 3.253,-6.74945 0,-0.91043 -1.4006,-3.10038 -3.1124,-4.86654 -3.0694,-3.16681 -3.186,-5.38401 -0.2831,-5.38401 0.8175,0 2.591,1.10455 3.941,2.45455 2.1627,2.1627 2.4545,3.33222 2.4545,9.83619 l 0,7.38165 11.75,5.25764 c 6.4625,2.89171 15.3064,7.35292 19.6531,9.91378 8.2663,4.8702 22.1326,17.0516 24.5484,21.5655 1.6975,3.1719 1.8125,3.0494 6.0158,-6.4093 z m -56.9673,-31.57693 c 0,-6.11217 8.205,-10.19994 28.7417,-14.31928 8.8443,-1.77403 16.2583,-5.49269 16.2583,-8.15469 0,-1.84949 1.7752,-0.9166 2.3359,1.22754 0.4203,1.60685 -0.309,3.00497 -2.7858,5.34086 -3.7815,3.56641 -11.4215,6.04516 -21.5501,6.99173 -10.0902,0.94298 -10.5926,1.16782 -14.4979,6.48791 -2.6491,3.6088 -4.3453,5.00285 -6.0873,5.00285 -1.9283,0 -2.4148,-0.51911 -2.4148,-2.57692 z m -107.2638,-23.67308 c -2.5954,-1.97084 -3.757,-6.1905 -2.7096,-9.84258 0.9208,-3.21082 4.5723,-7.90742 6.1477,-7.90742 1.6361,0 0.7816,4.72996 -1.1743,6.5 -2.7484,2.48726 -2.5069,5.95609 0.5838,8.38728 2.5229,1.98451 2.5479,4.11272 0.048,4.11272 -0.6874,0 -1.9906,-0.5625 -2.8959,-1.25 z m 116.4075,-6.72081 c -2.3553,-2.93085 -4.4199,-4.32175 -7.606,-5.12402 -6.4388,-1.6213 -8.3845,-4.24863 -9.454,-12.76559 -1.3592,-10.82518 -3.2231,-12.29731 -16.0272,-12.65845 -10.665,-0.3008 -16.2417,-1.78132 -20.2711,-5.38157 -2.738,-2.44643 -3.1935,-3.59335 -3.5869,-9.03225 -0.3696,-5.10959 0.037,-7.47319 2.2615,-13.14284 1.4917,-3.80207 3.1534,-7.18552 3.6926,-7.51879 1.9712,-1.21824 2.1198,0.69114 0.4542,5.83316 -3.7421,11.55227 -3.0823,17.85825 2.2443,21.4496 2.0575,1.38722 4.9132,1.82387 12.791,1.95584 5.5782,0.0934 11.0064,0.63241 12.0627,1.19772 1.0563,0.56531 3.7355,2.99691 5.9539,5.40356 3.2436,3.51893 4.1692,5.39972 4.7271,9.60534 0.3816,2.8763 1.1882,6.31482 1.7925,7.64117 1.0114,2.2196 6.1909,5.50793 8.6758,5.50793 4.7921,0 9.6623,6.91215 6.851,9.72348 -1.1047,1.10473 -1.8732,0.65083 -4.5614,-2.69429 z m -104.4085,2.37273 c -0.9594,-0.95944 -0.9169,-4.56778 0.072,-6.12458 0.5173,-0.81421 4.9387,-1.37137 13.2347,-1.66779 15.8732,-0.56715 18.2208,-1.39092 20.427,-7.16777 2.3023,-6.02852 5.0236,-6.15206 4.2243,-0.19178 -1.1466,8.55028 -11.4212,13.46569 -26.0512,12.46293 -7.108,-0.4872 -8.1288,-0.33357 -9.5645,1.43942 -0.8839,1.09165 -1.938,1.65396 -2.3424,1.24957 z m 79.2648,-1.90192 c -2.0952,-2.23019 -3.1662,-2.5047 -9.9243,-2.54355 -4.1666,-0.024 -9.512,-0.41789 -11.8786,-0.8754 -4.7951,-0.92699 -9.1971,-4.43225 -9.1971,-7.32346 0,-1.79198 0.1662,-1.77543 3.092,0.30793 2.2075,1.57184 5.4259,2.44081 11.25,3.03747 8.9238,0.91422 18.2845,2.54813 19.7353,3.44481 1.1447,0.70744 1.231,6.4522 0.097,6.4522 -0.4541,0 -1.8825,-1.125 -3.1743,-2.5 z m 63.4278,-5.82755 c -1.1856,-3.08962 1.5526,-6.68904 7.0791,-9.30573 8.7999,-4.16656 11.1162,-8.32724 7.9956,-14.36198 l -1.4976,-2.89594 -4.9644,2.06313 c -2.7305,1.13473 -5.667,3.13525 -6.5256,4.4456 -1.9149,2.92258 -3.1755,3.0272 -4.0301,0.33448 -0.9464,-2.98185 0.8108,-4.52573 10.1127,-8.88475 6.7493,-3.16283 8.9396,-4.7708 11.5575,-8.48482 3.5857,-5.08708 4.42,-5.49697 5.333,-2.62021 0.6805,2.14398 -0.6794,5.37266 -3.6313,8.62175 -1.7588,1.93589 -1.7855,2.3422 -0.375,5.71788 3.2333,7.7384 0.6931,13.06671 -8.4232,17.6686 -3.9224,1.98004 -6.5475,4.07451 -7.5595,6.03148 -1.6123,3.11778 -4.19,3.96691 -5.0712,1.67051 z m 26.2734,-5.30455 c -1.342,-1.34203 -0.6885,-5.0044 1.2677,-7.1041 1.0828,-1.16233 4.7116,-3.57523 8.064,-5.362 8.3911,-4.47244 10.8614,-9.34084 7.098,-13.98851 -1.748,-2.15863 -2.1366,-2.22815 -5.9942,-1.07239 -2.8752,0.86143 -4.5891,2.13322 -5.6566,4.1975 -2.5486,4.92858 -5.6106,3.10514 -3.4688,-2.06572 0.9145,-2.20779 3.1719,-3.87245 9.3895,-6.92397 7.2743,-3.5702 8.4324,-4.52576 10.4044,-8.58461 2.5529,-5.25462 4.1948,-5.05179 4.1948,0.51819 0,2.69151 -0.7804,4.79167 -2.5713,6.92011 -2.4069,2.86039 -2.4709,3.19934 -1,5.29923 2.3329,3.33064 1.9222,6.85355 -1.4118,12.11073 -1.976,3.11574 -4.255,5.24205 -6.75,6.29778 -8.0009,3.38541 -8.7576,3.94974 -9.2711,6.91402 -0.4872,2.81277 -2.7964,4.34188 -4.2946,2.84374 z m -129.0855,-4.50614 c -0.8886,-1.26872 -1.6157,-4.17164 -1.6157,-6.45091 0,-5.08497 3.7148,-14.41085 5.7403,-14.41085 1.035,0 1.2407,0.52089 0.6909,1.75 -0.4305,0.9625 -0.9688,5.8 -1.1962,10.75 -0.2274,4.95 -0.7712,9.37542 -1.2085,9.83427 -0.4373,0.45885 -1.5221,-0.20378 -2.4108,-1.47251 z m -61.0087,-6.44355 c -0.8287,-2.15948 -0.738,-6.69694 0.1583,-7.92389 0.4041,-0.55313 3.256,-2.88023 6.3376,-5.17133 5.0219,-3.7337 9.8971,-10.7417 9.8971,-14.22692 0,-1.41534 9.0552,-7.7489 15.1054,-10.56529 4.5334,-2.11033 6.8765,-2.5128 14.6767,-2.52101 10.4496,-0.011 14.7571,-1.33715 18.085,-5.56791 2.0199,-2.56787 2.3358,-2.6675 3.8039,-1.19946 1.468,1.46803 1.3781,1.80759 -1.0823,4.08781 -4.402,4.07966 -9.2704,5.81581 -21.4939,7.66511 -6.3771,0.9648 -13.5289,2.33824 -15.8928,3.0521 -5.132,1.54977 -10.1867,6.85135 -10.2374,10.73738 -0.059,4.51268 -2.441,7.45263 -9.1117,11.2457 l -6.3529,3.61238 0.3175,4.17856 c 0.2729,3.59178 0.042,4.17856 -1.643,4.17856 -1.0783,0 -2.2337,-0.7118 -2.5675,-1.58179 z m 18.7606,-1.08959 c -1.0091,-4.02055 2.9116,-6.82518 12.3506,-8.83503 20.943,-4.45936 21.235,-4.60431 28.1157,-13.95865 4.2749,-5.81162 5.5533,-4.21285 2.1107,2.63964 -5.8286,11.60178 -10.8424,14.76797 -23.4446,14.80501 -8.9227,0.0262 -14.322,1.97508 -15.9871,5.77041 -1.3065,2.97798 -2.3264,2.84135 -3.1453,-0.42138 z m 105.5281,-6.0053 c -0.057,-0.45282 -0.1698,-3.81868 -0.25,-7.47967 -0.2594,-11.84963 -5.5193,-15.67058 -28.0824,-20.39965 -9.6302,-2.01845 -13.5633,-5.16966 -13.5633,-10.86708 0,-1.9673 0.3747,-3.57692 0.8326,-3.57692 0.458,0 2.2273,1.73541 3.9318,3.85647 2.6708,3.32339 3.9725,4.02802 9.4174,5.09746 19.7026,3.86985 27.0573,8.22839 30.2856,17.94782 2.155,6.48829 1.7513,15.44288 -0.7174,15.91221 -0.9625,0.18298 -1.7969,-0.0378 -1.8543,-0.49064 z m 100.0908,-14.34854 c -0.8741,-1.63333 -0.5423,-3.02229 1.7148,-7.17772 3.8299,-7.05091 16.3751,-20.17153 21.7961,-22.79581 7.41879,-3.59135 14.38499,-1.01799 7.43799,2.74764 -11.31539,6.13364 -24.30889,18.45385 -25.55839,24.23424 -0.9585,4.43399 -1.285,5.01687 -2.8104,5.01687 -0.8229,0 -1.984,-0.91135 -2.5801,-2.02522 z m -48.9865,-8.95649 c -7.6718,-1.37026 -17.1706,-4.98416 -25.1678,-9.57525 -11.5574,-6.63492 -20.6689,-9.32382 -35.4061,-10.44868 -19.0283,-1.45239 -27.3262,-4.21614 -16.1091,-5.36536 13.7422,-1.40794 32.1748,2.20056 52.3998,10.25817 10.5537,4.20458 22.533,7.11283 29.2982,7.11283 8.7408,0 13.0652,-1.9204 20.0851,-8.91948 5.7043,-5.68743 7.0509,-7.76804 9.9219,-15.33052 3.2454,-8.54898 4.4892,-10.18747 5.5784,-7.34903 0.8725,2.27379 -1.3919,12.46384 -4.0692,18.31195 -2.8625,6.25244 -13.6566,17.61624 -18.7098,19.69733 -4.5344,1.8674 -12.3971,2.57687 -17.8214,1.60804 z m 94.48349,-29.04503 c -0.656,-1.06136 0.3361,-2.3687 11.8374,-15.59858 3.7515,-4.31534 11.7177,-15.0525 17.7028,-23.86037 10.9151,-16.06323 17.3595,-23.64673 26.2756,-30.92059 3.2069,-2.61625 5.12,-3.5745 5.7929,-2.90164 0.6729,0.67287 -2.8392,5.59564 -10.6345,14.90629 -11.3367,13.54015 -16.3693,20.61295 -27.531,38.69107 -5.3511,8.66701 -14.0108,18.4373 -17.5912,19.84721 -2.7116,1.0678 -5.1329,1.00019 -5.852,-0.16339 z m 87.8581,-124.44835 c 0.3374,-2.46131 2.5794,-8.42381 4.9823,-13.25 4.2671,-8.57052 8.8057,-24.089 10.2436,-35.02491 0.3881,-2.95194 1.2029,-5.25 1.8614,-5.25 1.9994,0 3.5712,2.27649 3.5712,5.17237 0,4.18947 -7.4411,32.48747 -10.8539,41.27643 -3.343,8.60938 -5.4918,11.5512 -8.437,11.5512 -1.7709,0 -1.9159,-0.47459 -1.3676,-4.47509 z m 16.7563,-116.67413 c -1.6798,-4.81879 -1.417,-12.79108 0.4453,-13.5057 2.1903,-0.84049 2.5094,-0.23647 3.149,5.96072 0.9579,9.28053 -1.3214,14.06499 -3.5943,7.54498 z M 748.26441,661.08553 c 1.0122,-3.25226 3.1786,-7.6202 4.8141,-9.70653 5.351,-6.82609 5.6407,-7.87741 3.9019,-14.16174 -2.2366,-8.0835 -2.5983,-18.63159 -0.6389,-18.63159 1.0655,0 1.6475,1.44846 2.009,5 0.5438,5.34142 5.2991,13.74308 8.0819,14.27899 0.8383,0.16144 7.2279,-2.46368 14.1991,-5.83361 l 12.6749,-6.12713 -4.7325,-5.42802 c -7.7646,-8.90591 -14.2312,-12.26827 -26.4824,-13.7698 -4.4485,-0.54521 -4.75,-0.43738 -4.75,1.6987 0,2.42997 -1.6848,4.68087 -3.5036,4.68087 -0.607,0 -3.0445,-5.0625 -5.4167,-11.25 -10.8401,-28.2748 -20.1939,-43.62685 -33.7118,-55.33023 -8.4375,-7.30486 -9.7142,-7.99525 -24.7172,-13.36583 -16.4788,-5.89886 -22.1507,-8.86234 -22.1507,-11.57345 0,-1.68324 0.6204,-1.95381 4.1336,-1.80272 l 4.1335,0.17777 -3.2462,-5.3908 c -1.8007,-2.99037 -3.79,-8.19029 -4.4676,-11.67777 -5.0624,-26.05686 -12.7629,-41.73033 -29.1999,-59.43274 -3.1385,-3.38018 -6.6459,-7.98733 -7.7942,-10.23812 -3.0478,-5.97434 -7.5276,-33.33366 -6.1194,-37.37327 1.4254,-4.0888 0.6547,-4.55851 -3.0207,-1.84114 -2.9924,2.21236 -5.9191,2.24398 -5.9191,0.0639 0,-4.46852 6.3299,-8.16987 16.8763,-9.86832 11.1758,-1.79981 13.593,-4.64751 15.8032,-18.61785 1.6959,-10.7193 1.1814,-17.19333 -1.6438,-20.68638 -1.7155,-2.12097 -2.9312,-2.35129 -16.1952,-3.06842 -7.8873,-0.42643 -16.1405,-0.87643 -18.3405,-1 -3.8757,-0.21769 -4.0101,-0.11829 -4.3263,3.19854 -0.4668,4.8981 1.4434,7.70708 7.1878,10.56964 5.8539,2.91714 12.8263,3.29115 18.3477,0.98419 5.0006,-2.08941 6.896,-0.29567 3.1331,2.96513 -2.9254,2.53505 -10.2979,4.05594 -14.8328,3.0599 -1.5907,-0.34937 -3.8709,-0.11143 -5.0671,0.52876 -1.6713,0.89444 -3.228,0.86914 -6.7225,-0.10926 l -4.5476,-1.27324 -3.4118,3.92583 c -6.2928,7.24092 -7.8477,14.38276 -4.7471,21.80371 2.6019,6.22708 -1.4817,3.65797 -4.8928,-3.07822 -2.3512,-4.64311 -2.0253,-9.9333 0.9216,-14.9618 l 2.5421,-4.33786 -3.9831,0 c -2.1908,0 -4.234,-0.40577 -4.5405,-0.90172 -0.3065,-0.49595 -2.088,0.62905 -3.959,2.5 -2.8283,2.82833 -4.1349,3.40109 -7.7517,3.39798 -2.5706,-0.002 -5.6794,-0.8143 -7.6,-1.9853 -1.7875,-1.08986 -3.25,-1.52448 -3.25,-0.96582 0,3.10188 5.4838,22.1887 7.3344,25.528 1.2293,2.21817 3.5787,4.57956 5.3993,5.42686 3.0069,1.39941 4.3045,4.2403 2.4581,5.38145 -0.4445,0.27471 0.7104,5.13877 2.5663,10.80901 4.7038,14.37082 5.7572,19.50956 8.673,42.30954 1.5386,12.03111 3.7772,24.35046 5.6184,30.91861 3.438,12.26492 4.0928,13.75608 8.0339,18.29411 3.972,4.57379 6.8495,11.57996 8.4506,20.57634 1.8402,10.33937 5.2482,15.50147 11.7761,17.83697 2.6363,0.94321 5.3934,2.21291 6.1268,2.82156 2.608,2.16446 10.5354,14.85881 13.2113,21.15552 1.4952,3.51829 6.8312,13.14689 11.8578,21.39689 5.0266,8.25 12.0231,20.11399 15.5478,26.36442 7.3676,13.06519 10.0773,15.4291 29.7738,25.97424 12.5578,6.7232 19.8654,11.90231 23.2464,16.47526 1.2318,1.66612 5.3944,6.60945 9.2502,10.98517 l 7.0106,7.95586 2.3739,-4.67095 c 1.3056,-2.56901 3.202,-7.33188 4.2142,-10.58414 z m -28.5928,-42.51239 c -10.1483,-5.07729 -25.3431,-24.06744 -36.0406,-45.04281 -4.7976,-9.40714 -5.1076,-12.44466 -1.2699,-12.44466 1.472,0 2.5238,1.09924 3.5882,3.75 9.783,24.36511 19.478,35.9989 40.1883,48.2254 8.3861,4.95079 9.2115,7.34304 2.6953,7.81162 -2.7391,0.19698 -5.6134,-0.52449 -9.1613,-2.29955 z m -72.3773,-111.87749 c -5.4072,-1.88239 -12.7256,-7.31371 -16.0634,-11.92131 -8.0246,-11.07767 -17.8894,-34.65985 -17.8894,-42.76532 0,-4.75063 1.3708,-2.75071 4.5077,6.57665 3.0694,9.1269 11.0122,24.67523 16.2913,31.89091 3.0729,4.20016 10.1112,10.16523 16.8205,14.25552 3.197,1.94903 0.4764,3.4059 -3.6667,1.96355 z m -34.8851,-91.48347 c -0.5872,-1.09727 -1.0677,-6.07461 -1.0677,-11.06077 0,-7.29499 0.2861,-9.06574 1.4648,-9.06574 2.6217,0 3.6198,3.80628 3.324,12.67612 -0.2949,8.84564 -1.5884,11.43541 -3.7211,7.45039 z m 322.1035,212.46749 c 1.4692,-0.76653 6.4192,-4.40308 11,-8.08124 4.5809,-3.67815 9.1163,-7.31882 10.0788,-8.09037 1.3575,-1.08823 1.75,-2.92768 1.75,-8.2025 0,-9.12073 -2.118,-16.69456 -7.6805,-27.46458 -5.9723,-11.56344 -10.8935,-17.71442 -18.0561,-22.56821 -11.1825,-7.57788 -13.7507,-8.48151 -25.5372,-8.98538 -13.7592,-0.58821 -21.4641,1.1756 -36.3006,8.30998 -11.7782,5.66376 -17.327,10.1557 -23.4561,18.9883 l -3.4695,5 0.077,11.5 c 0.043,6.325 0.2102,15.325 0.3729,20 0.2042,5.87386 -0.1858,9.79538 -1.2627,12.69273 l -1.5583,4.19274 5.3672,1.20111 c 4.8187,1.0784 5.9106,0.98458 10.6854,-0.91816 11.3315,-4.5155 28.4958,-5.1072 43.8183,-1.51055 5.2948,1.24285 26.5751,4.90075 30.5,5.24269 0.55,0.0479 2.202,-0.54004 3.6712,-1.30656 z m -36.6712,-8.53936 c -3.3972,-1.39043 -5.0024,-4.10245 -10.3905,-17.55464 -6.4818,-16.18272 -8.9611,-19.89602 -14.7643,-22.11229 -3.0634,-1.16992 -4.271,-2.13879 -3.893,-3.12363 0.3013,-0.78521 0.5478,-1.61585 0.5478,-1.84587 0,-1.01512 3.3917,-0.25902 6.9259,1.54396 6.1976,3.16179 13.4704,14.04538 17.0653,25.53783 0.6882,2.2 2.1378,6.1041 3.2213,8.67577 1.661,3.9425 2.3698,4.64821 4.5195,4.5 3.1086,-0.21431 3.925,1.52436 1.7412,3.70816 -1.7977,1.79775 -2.115,1.84054 -4.9732,0.67071 z m -75.8713,3.96922 11.1287,-0.0239 1.3713,-3.25 c 1.0408,-2.46681 1.2967,-7.82863 1.0619,-22.25 -0.3504,-21.51947 0.2212,-24.36843 6.5695,-32.74104 7.8869,-10.40203 25.6481,-20.65712 43.9626,-25.38351 8.438,-2.1776 11.3526,-2.46547 21.2773,-2.1016 12.6536,0.46393 16.8878,1.6965 25.7678,7.50092 18.8505,12.32173 31.3066,33.80754 31.6054,54.51674 0.1191,8.25812 0.2481,8.76178 2.1268,8.30155 6.0583,-1.48415 17.5157,-2.83797 29,-3.42667 l 12.99999,-0.66639 5.5095,-11 c 3.0302,-6.05 6.8332,-14.15 8.4513,-18 3.6438,-8.67031 12.6148,-17.9701 26.5281,-27.50034 5.2189,-3.57481 11.3591,-8.35298 13.6448,-10.61815 l 4.156,-4.11849 0.7301,-10.71178 c 0.4016,-5.89147 0.47,-12.60976 0.152,-14.92953 -0.7654,-5.5844 0.7897,-16.10721 3.419,-23.13451 1.1665,-3.11768 6.6491,-12.49022 12.1836,-20.82786 12.5314,-18.87836 16.682,-27.6861 20.7519,-44.03639 4.8554,-19.50635 3.664,-24.65154 -7.015,-30.29429 -10.8098,-5.71191 -12.6233,-8.27023 -16.1802,-22.82591 l -2.0778,-8.50271 -211.85759,0 -211.8576,0 -0.4163,2.25 c -0.229,1.2375 -0.9151,5.53527 -1.5246,9.55061 -1.661,10.94264 -3.7506,14.21801 -12.5821,19.72243 -8.8249,5.50035 -9.3389,6.65959 -7.7442,17.46693 2.5388,17.20594 8.9435,31.50636 18.4253,41.13982 5.7068,5.79812 8.0148,9.15373 11.8868,17.28267 5.614,11.78594 9.7847,25.41128 10.5872,34.58754 0.4724,5.40302 1.3281,7.73714 5.0703,13.83048 4.2285,6.88533 4.9348,7.52833 11.6307,10.58849 21.3442,9.75473 22.057,10.22853 33.8901,22.5264 10.6446,11.06281 11.6992,12.54904 19.9505,28.11741 4.7915,9.04047 9.4856,18.53299 10.4313,21.09449 l 1.7196,4.65727 8.5686,0.35839 c 11.0715,0.46307 17.5046,3.35256 25.0687,11.25967 13.9269,14.55857 12.4815,13.47641 16.6946,12.49845 2.093,-0.48583 8.8133,-0.89407 14.9341,-0.90719 z M 579.73941,362.95022 c 3.7416,-1.70478 3.8153,-3.2616 0.4538,-9.59033 -2.8992,-5.45841 -3.0349,-6.21176 -2.4798,-13.77422 0.3229,-4.4 0.8918,-9.08128 1.2642,-10.40285 0.6552,-2.32517 0.5438,-2.38153 -3.447,-1.74339 -6.4916,1.03806 -9.0078,2.64037 -11.1743,7.11576 -3.7006,7.64427 -1.7921,20.1259 4.0183,26.28048 3.3032,3.49881 6.8701,4.16248 11.3648,2.11455 z m 20.6161,-3.87203 c 1.8053,-0.96616 1.7718,-1.22079 -0.8158,-6.20822 -2.3503,-4.53009 -2.6975,-6.36669 -2.6931,-14.24252 0,-7.21768 0.4527,-10.01391 2.2241,-13.86051 l 2.2191,-4.81873 -5.7241,0.65399 c -3.1483,0.35969 -6.8108,1.42301 -8.1389,2.36294 -5.46,3.86429 -7.4201,20.0677 -3.3562,27.74474 4.1448,7.82988 10.8514,11.2762 16.2849,8.36831 z m 564.76869,-3.48289 c 6.053,-6.87659 7.1571,-18.17514 2.5951,-26.55707 -2.3295,-4.27999 -3.0834,-4.88743 -6.75,-5.43886 -2.2702,-0.34141 -5.3326,-0.85026 -6.8053,-1.13077 l -2.6775,-0.51002 1.9199,6.31354 c 2.4561,8.0767 2.4265,15.13408 -0.087,20.67275 -2.4373,5.37142 -2.4383,5.28597 0.095,8.50594 3.2553,4.13848 6.9491,3.55318 11.71,-1.85551 z m -21.3896,-1.60416 c 3.1723,-2.49532 6.0728,-7.95261 7.0309,-13.22878 0.8879,-4.8897 -2.8224,-17.88782 -5.9711,-20.91834 -1.7644,-1.69819 -3.5721,-2.17396 -8.7096,-2.29232 l -6.4832,-0.14937 2.4797,4.77945 c 1.3638,2.6287 2.9618,8.12589 3.551,12.21599 0.955,6.62873 0.8444,8.12882 -1.0182,13.80973 -1.5308,4.66899 -1.7798,6.57031 -0.931,7.11037 2.2434,1.42748 7.4185,0.7444 10.0515,-1.32673 z m -16.2654,-1.65547 c 1.2438,-1.58606 1.2085,-1.62143 -0.3776,-0.37755 -1.6658,1.30636 -2.1955,2.12755 -1.3724,2.12755 0.2076,0 0.9951,-0.7875 1.75,-1.75 z m -48.1276,-5.69098 c 0,-2.44254 0.45,-4.7191 1,-5.05902 0.55,-0.33992 1,-1.26648 1,-2.05902 0,-1.24897 -22.5526,-1.44082 -169.25009,-1.43979 -93.0875,6.6e-4 -189.8119,0.29867 -214.943,0.66226 l -45.6931,0.66106 1.4431,2.06025 c 0.7936,1.13314 1.443,3.76013 1.443,5.83775 l 0,3.77749 212.5,0 212.50009,0 0,-4.44098 z m -476.50009,-2.14737 c 0,-4.74741 0.3744,-5.89156 2.4883,-7.60326 1.9661,-1.59207 3.3827,-1.89233 6.75,-1.43078 l 4.2617,0.58413 0,-3.76943 c 0,-2.07318 0.8854,-5.50613 1.9676,-7.62877 1.0822,-2.12264 1.7306,-4.24279 1.441,-4.71144 -0.2896,-0.46866 -3.0195,-0.8521 -6.0664,-0.8521 -4.8946,0 -5.874,0.35774 -8.4091,3.07163 -3.2536,3.48299 -4.4032,7.76191 -4.4138,16.42837 -0.01,5.1006 0.9675,11.5 1.7497,11.5 0.1271,0 0.231,-2.51476 0.231,-5.58835 z m 527.30699,3.06189 c -0.3079,-0.30789 -0.8671,0.24711 -1.2426,1.23333 -0.5427,1.4252 -0.4278,1.54006 0.5598,0.5598 0.6834,-0.67834 0.9907,-1.48524 0.6828,-1.79313 z m 1.0205,-14.62698 c -0.4703,-3.43909 -1.9505,-8.08732 -3.3191,-10.42256 -3.1394,-5.357 -6.7638,-6.77701 -13.5714,-5.31706 l -4.9157,1.05425 2.3955,3.1694 c 1.3175,1.74318 2.8093,5.19441 3.3151,7.66941 0.6339,3.10178 1.3622,4.39271 2.3439,4.15471 7.7754,-1.88499 12.834,1.66524 13.0393,9.15105 l 0.115,4.19424 0.7232,-3.72297 c 0.3977,-2.04764 0.3412,-6.51635 -0.1257,-9.93047 z m -495.18789,4.15344 c 1.9337,0 2.3604,-0.5202 2.3604,-2.87755 0,-1.58266 0.7237,-3.47817 1.6082,-4.21226 1.3664,-1.13401 1.8175,-1.0485 3,0.56869 1.6764,2.29261 1.7392,1.81609 0.3033,-2.30276 -1.2352,-3.54334 -5.7398,-6.69848 -10.9384,-7.66159 -2.7177,-0.50349 -4.1225,-0.18486 -6.1231,1.38884 -3.2103,2.52524 -5.85,7.90755 -5.85,11.92821 0,3.50626 1.8358,4.24594 8.8896,3.58175 2.4142,-0.22733 5.4517,-0.41333 6.75,-0.41333 z m 453.01559,-3.5 c -0.4698,-3.42759 -0.2931,-4.5 0.7416,-4.5 1.7946,0 3.1709,1.84592 4.0201,5.39211 l 0.6926,2.89211 7.6499,-0.64664 c 4.2073,-0.35566 8.0641,-1.061 8.5705,-1.56742 1.6032,-1.60314 -0.3133,-7.98182 -3.4827,-11.59154 -3.7699,-4.29369 -8.7134,-4.71587 -13.9492,-1.19129 -3.8627,2.60023 -5.3807,5.36723 -6.2886,11.46267 -0.5267,3.53657 -0.3563,4.25 1.0148,4.25 1.3776,0 1.5466,-0.73779 1.0309,-4.5 z m -443.65519,3.10699 c 0,-0.21616 -0.675,-0.65203 -1.5,-0.96862 -0.825,-0.31658 -1.5,-0.13972 -1.5,0.39302 0,0.53273 0.675,0.96861 1.5,0.96861 0.825,0 1.5,-0.17686 1.5,-0.39301 z"
       id="path3269"
       inkscape:connector-curvature="0" />
  </g>
</svg>
