<?xml version="1.0" encoding="UTF-8" standalone="no"?>
<!-- Created with Inkscape (http://www.inkscape.org/) -->

<svg
   xmlns:dc="http://purl.org/dc/elements/1.1/"
   xmlns:cc="http://creativecommons.org/ns#"
   xmlns:rdf="http://www.w3.org/1999/02/22-rdf-syntax-ns#"
   xmlns:svg="http://www.w3.org/2000/svg"
   xmlns="http://www.w3.org/2000/svg"
   xmlns:xlink="http://www.w3.org/1999/xlink"
   xmlns:sodipodi="http://sodipodi.sourceforge.net/DTD/sodipodi-0.dtd"
   xmlns:inkscape="http://www.inkscape.org/namespaces/inkscape"
   width="594.25665"
   height="285.34885"
   id="svg2"
   version="1.1"
   inkscape:version="0.48.3.1 r9886"
   sodipodi:docname="Bridge-1.svg">
  <defs
     id="defs4">
    <radialGradient
       gradientUnits="userSpaceOnUse"
       gradientTransform="matrix(1,0,0,0.91819829,-19.285714,-7.9105395)"
       r="209.56604"
       fy="287.50052"
       fx="398.1105"
       cy="287.50052"
       cx="398.1105"
       id="radialGradient5255"
       xlink:href="#linearGradient5249"
       inkscape:collect="always" />
    <linearGradient
       id="linearGradient5249"
       inkscape:collect="always">
      <stop
         id="stop5251"
         offset="0"
         style="stop-color:#e3e3e3;stop-opacity:1;" />
      <stop
         id="stop5253"
         offset="1"
         style="stop-color:#e3e3e3;stop-opacity:0;" />
    </linearGradient>
  </defs>
  <sodipodi:namedview
     id="base"
     pagecolor="#ffffff"
     bordercolor="#666666"
     borderopacity="1.0"
     inkscape:pageopacity="0.0"
     inkscape:pageshadow="2"
     inkscape:zoom="1.4"
     inkscape:cx="178.18306"
     inkscape:cy="264.48088"
     inkscape:document-units="px"
     inkscape:current-layer="layer1"
     showgrid="false"
     showguides="true"
     inkscape:guide-bbox="true"
     fit-margin-top="0"
     fit-margin-left="0"
     fit-margin-right="0"
     fit-margin-bottom="0"
     inkscape:window-width="1615"
     inkscape:window-height="1026"
     inkscape:window-x="65"
     inkscape:window-y="24"
     inkscape:window-maximized="1">
    <sodipodi:guide
       orientation="-0.70710678,0.70710678"
       position="-1812.9879,773.8824"
       id="guide2985" />
  </sodipodi:namedview>
  <metadata
     id="metadata7">
    <rdf:RDF>
      <cc:Work
         rdf:about="">
        <dc:format>image/svg+xml</dc:format>
        <dc:type
           rdf:resource="http://purl.org/dc/dcmitype/StillImage" />
        <dc:title></dc:title>
      </cc:Work>
    </rdf:RDF>
  </metadata>
  <g
     inkscape:label="Ebene 1"
     inkscape:groupmode="layer"
     id="layer1"
     transform="translate(-384.41643,-515.18143)">
    <path
       style="fill:#000000"
       d="m 785.01613,800.11615 c -0.7285,-0.1739 -4.7723,-1.4806 -8.9862,-2.9037 -7.4423,-2.5134 -7.9256,-2.5878 -16.89,-2.6006 -15.3636,-0.022 -21.1171,-1.4433 -29.1638,-7.2054 -2.2465,-1.6087 -4.7941,-2.8179 -6.4646,-3.0684 -5.9422,-0.8912 -35.3628,4.1776 -43.9931,7.5793 -9.4363,3.7195 -34.89689,6.3392 -46.88903,4.8246 -3.47902,-0.4395 -7.12745,-1.2034 -8.10761,-1.6977 -0.98016,-0.4944 -4.45481,-1.2356 -7.72146,-1.6472 -4.59314,-0.5789 -7.25163,-1.3721 -11.72892,-3.4998 l -5.78957,-2.7514 -6.81696,0.57 c -10.44682,0.8734 -13.1669,0.5944 -19.70585,-2.0219 -4.9586,-1.9838 -7.38785,-2.4974 -16.01751,-3.386 -10.95916,-1.1286 -12.23535,-1.5641 -25.40655,-8.6708 -4.44122,-2.3963 -4.97348,-2.5176 -12.63899,-2.8823 -9.64211,-0.4586 -11.40452,-1.2837 -18.55409,-8.6871 -4.89267,-5.0663 -6.85491,-8.8332 -7.88268,-15.1322 -0.35888,-2.19949 -1.26326,-3.84845 -3.45109,-6.29234 -1.63063,-1.82147 -4.50527,-5.54721 -6.38806,-8.27942 l -3.42327,-4.96764 -4.63032,-1.1973 c -3.55142,-0.91832 -6.40517,-1.13861 -12.24739,-0.94542 -8.31542,0.27499 -8.49339,0.33299 -18.21471,5.93563 -8.3637,4.82021 -11.04145,5.48003 -22.23991,5.48003 l -9.65522,0 -5.69086,-2.82051 c -7.15517,-3.54624 -12.39937,-8.98113 -16.33331,-16.92725 -4.20046,-8.48443 -5.5223,-14.41088 -5.56738,-24.96107 -0.0613,-14.35844 2.10949,-21.32657 9.3888,-30.13706 7.08736,-8.57815 19.25014,-17.15777 29.0821,-20.5145 6.92552,-2.36444 18.83366,-3.24177 38.29777,-2.82156 21.91832,0.4732 21.99302,0.51924 24.42381,15.05665 0.57867,3.4608 1.45671,9.67074 1.95118,13.79989 0.49447,4.12915 1.20388,7.81238 1.57645,8.18495 0.46163,0.46163 2.21903,0.40189 5.51732,-0.18755 4.51397,-0.80669 5.06454,-1.09641 8.17518,-4.30206 2.71707,-2.80005 4.15989,-3.69119 7.78434,-4.80789 2.44699,-0.75393 5.27855,-1.80876 6.29235,-2.34406 1.0138,-0.53531 6.74636,-5.63643 12.73902,-11.33582 11.84543,-11.26571 18.53859,-15.99407 25.86484,-18.27212 8.33909,-2.59299 13.31806,-2.27761 25.16942,1.59431 1.63932,0.53559 6.40826,1.48098 10.59765,2.10088 10.37772,1.53559 16.94849,3.70276 20.99484,6.92452 3.6645,2.91771 12.21487,8.11214 15.86042,9.63534 1.31193,0.54816 4.06278,1.00187 6.11298,1.00823 2.05021,0.007 6.29518,0.43254 9.43327,0.94705 4.78657,0.78481 6.12019,0.79337 8.27941,0.0532 3.93059,-1.34746 15.13259,-2.56252 19.45729,-2.1105 2.1221,0.22181 6.4939,0.0813 9.7151,-0.31222 9.6929,-1.1842 11.6623,-2.71088 19.1176,-14.81986 12.2802,-19.94577 24.4742,-36.15923 27.644,-36.75627 1.2843,-0.2419 2.6907,-1.68428 5.1679,-5.29999 4.3362,-6.32909 16.4006,-21.31968 25.9747,-32.27466 4.0892,-4.67894 9.2133,-10.58298 11.3869,-13.12007 6.8067,-7.9451 25.7009,-26.78849 29.1729,-29.09446 7.0466,-4.68014 18.0465,-7.95087 25.3516,-7.5381 3.5332,0.19964 5.1392,0.66722 7.6483,2.22676 7.029,4.36878 7.7962,4.63943 12.364,4.36159 2.3679,-0.14402 6.9878,-0.2842 10.2665,-0.31149 5.7306,-0.0477 6.1661,0.056 11.26,2.6824 8.2253,4.24092 10.3746,6.08736 13.0543,11.21436 3.183,6.0901 4.329,10.2524 5.541,20.12454 1.0635,8.66246 2.9913,17.05644 7.9865,34.77443 4.4048,15.62412 6.7317,25.5449 7.1788,30.60822 0.2185,2.47306 0.6721,12.39504 1.008,22.04884 0.5426,15.59209 1.683,28.13047 3.1929,35.1047 0.4616,2.13175 0.7132,2.33238 3.1279,2.49395 5.2355,0.35032 13.2805,1.45838 15.7711,2.17219 2.5692,0.73637 8.7433,6.17131 10.2628,9.03415 0.4223,0.79571 0.7679,3.08279 0.7679,5.08241 0,6.58546 -4.4947,9.93083 -15.1504,11.27637 l -6.3761,0.80514 3.2684,2.37845 c 3.6219,2.63578 22.7893,12.35151 29.5181,14.96237 3.6716,1.42465 5.8651,1.74022 14.90286,2.14402 11.3286,0.50616 14.0445,1.17769 16.7836,4.14979 1.3764,1.49354 1.5133,2.15041 1.2257,5.88096 -0.7645,9.91757 -2.1466,13.86947 -5.7967,16.57467 -1.5186,1.1254 -9.6382,4.4649 -20.16076,8.2918 -5.8756,2.1369 -13.5474,2.6634 -21.6956,1.4889 -10.5546,-1.5213 -22.0289,-0.5951 -32.4298,2.6178 -7.8483,2.4243 -17.4582,3.2744 -23.3699,2.0673 -7.8142,-1.5957 -12.8508,-5.5132 -16.1607,-12.57 -2.4401,-5.2022 -2.2988,-13.26583 0.4206,-24.00767 l 1.9619,-7.74976 -2.3839,1.02344 c -13.426,5.76411 -18.592,7.13332 -23.192,6.14678 -12.0263,-2.57916 -16.1016,-17.10731 -10.3743,-36.98305 2.3858,-8.27967 3.9361,-19.35952 3.4173,-24.42338 -0.4399,-4.29439 -3.1489,-12.11046 -4.6206,-13.33191 -0.6007,-0.49843 -1.2631,0.25052 -2.5592,2.89328 -1.506,3.07065 -1.6155,3.67646 -0.7887,4.36265 0.5281,0.43827 0.9601,1.04588 0.9601,1.35023 0,0.30436 -2.0724,3.13637 -4.6054,6.29337 -2.5329,3.15699 -5.781,8.01299 -7.2181,10.79111 -2.7149,5.24876 -8.6979,21.29978 -11.7157,31.4311 -0.958,3.21588 -3.2377,8.83522 -5.066,12.48742 -3.9452,7.88054 -7.9773,12.22801 -16.7083,18.01492 l -5.8752,3.89407 7.5452,2.1859 c 12.6382,3.6614 16.8058,5.5847 28.7406,13.2633 2.5501,1.6406 6.7229,3.9641 9.2729,5.1632 5.7312,2.6948 6.542,3.6099 6.0748,6.8573 -0.7059,4.9068 -1.5375,8.4799 -2.3018,9.8893 -2.2056,4.0674 -10.7097,9.105 -20.9758,12.4255 -4.9705,1.6077 -10.3694,2.0876 -13.9278,1.238 z m 16.0428,-7.1218 c 0.8303,-0.9653 1.5096,-2.026 1.5096,-2.3572 0,-1.1311 -2.3165,-1.7914 -7.6602,-2.1834 -6.3055,-0.4627 -7.9208,-1.0057 -13.213,-4.4415 -3.0387,-1.9728 -4.9234,-2.6906 -7.9482,-3.0273 -2.3545,-0.262 -4.5031,-0.9245 -5.2898,-1.6309 -1.8811,-1.6894 -4.5999,-2.2081 -7.0668,-1.3481 -2.8719,1.0012 -4.0068,-0.089 -2.089,-2.0072 0.8478,-0.8478 2.5844,-1.525 4.45,-1.7353 2.5503,-0.2874 3.4725,-0.059 5.5387,1.3707 1.3634,0.9436 4.4163,2.1969 6.7842,2.7852 2.3679,0.5883 6,2.0973 8.0714,3.3532 4.9638,3.0098 8.2973,4.1319 13.6643,4.5999 6.6594,0.5806 7.3436,0.8115 7.8007,2.6326 0.5023,2.0012 0.918,2.0372 3.1607,0.273 3.1573,-2.4834 1.7412,-4.8206 -3.3552,-5.5379 -7.5268,-1.0593 -13.1615,-3.0998 -20.069,-7.2679 -7.468,-4.5063 -10.448,-5.6796 -19.2172,-7.566 -4.6846,-1.0078 -5.621,-1.4213 -5.621,-2.4826 0,-3.4609 12.3188,-0.2658 26.6245,6.9054 8.9803,4.5017 14.2896,6.403 19.804,7.092 3.9365,0.4918 6.8909,2.4422 6.8909,4.5489 0,1.2523 1.7315,0.6787 2.2821,-0.756 0.8036,-2.0943 -1.4216,-3.9086 -7.4306,-6.0581 -3.2594,-1.1659 -7.8307,-3.4408 -10.1585,-5.0553 -8.4591,-5.8671 -9.8435,-6.5017 -17.7211,-8.124 -6.3055,-1.2985 -8.033,-1.9223 -9.9258,-3.5842 -1.7927,-1.574 -2.7379,-1.944 -4.3415,-1.6995 -3.5612,0.5429 -4.6516,-0.4569 -2.6649,-2.4435 1.7495,-1.7496 5.7236,-1.3105 8.5632,0.9462 1.3753,1.0929 2.5694,1.9871 2.6538,1.9871 0.084,0 2.7836,0.4586 5.9984,1.0193 7.2175,1.2586 9.7868,2.3833 16.5173,7.2303 6.109,4.3996 11.1252,7.0646 16.0476,8.5259 4.0533,1.2033 5.1448,0.4527 2.7455,-1.888 -0.8646,-0.8433 -6.0428,-3.9942 -11.5073,-7.0018 -5.4644,-3.0077 -11.4389,-6.2997 -13.2767,-7.3156 -3.8754,-2.1422 -17.6577,-6.2547 -24.0537,-7.1772 -2.4188,-0.3489 -8.5706,-1.1033 -13.6707,-1.6766 -5.1002,-0.5732 -10.9868,-1.3671 -13.0815,-1.7643 -2.7816,-0.5273 -4.8355,-0.5205 -7.6171,0.025 -2.0947,0.4111 -9.2496,1.0673 -15.8997,1.4582 -18.6197,1.0944 -29.2402,-0.2607 -42.4703,-5.41897 -3.7796,-1.47364 -8.8466,-3.09459 -11.26,-3.6021 -5.2828,-1.11095 -22.05325,-1.99751 -25.51184,-1.34868 -2.65644,0.49836 -2.97582,1.89391 -0.51627,2.25581 2.61669,0.38504 1.70702,2.49078 -1.70776,3.95314 -8.11778,3.4766 -21.69313,3.6822 -22.97258,0.348 -0.67491,-1.75877 0.62552,-2.4894 2.8159,-1.58212 1.11481,0.46176 3.03254,0.63032 4.50773,0.39627 8.48679,-1.3467 10.84689,-1.89693 10.84689,-2.52885 0,-0.38928 -2.6286,-3.26161 -5.84134,-6.38294 -7.33545,-7.12677 -14.62104,-11.57694 -22.45882,-13.71828 -12.28684,-3.35685 -15.19798,-3.75167 -24.4406,-3.31467 -4.78186,0.22608 -9.34229,0.65078 -10.1343,0.94375 -1.35229,0.50025 -1.29761,0.60061 0.89754,1.6474 1.61208,0.76875 2.21716,1.42846 1.94961,2.12566 -0.49639,1.29358 -4.31962,1.33616 -6.75791,0.0752 -2.36474,-1.22285 -7.10546,-6.33315 -10.49931,-11.31783 -6.82426,-10.02305 -10.76571,-12.72914 -21.76199,-14.94119 -6.65874,-1.33949 -8.1204,-2.16959 -6.7429,-3.82937 1.15433,-1.39087 8.81917,-0.48157 15.45843,1.83387 l 5.47466,1.90929 8.26652,-7.26501 c 7.71309,-6.77863 14.78718,-14.80416 17.13169,-19.43583 0.55321,-1.09288 1.49856,-3.70089 2.10077,-5.79559 0.8564,-2.97882 1.3795,-3.80853 2.40115,-3.80853 0.92063,0 1.3062,0.44874 1.3062,1.52023 0,1.63198 -5.68546,14.9581 -8.2642,19.37041 -1.8087,3.09474 -10.53898,11.63561 -15.10438,14.7767 -1.71904,1.18273 -3.12553,2.31507 -3.12553,2.5163 0,0.20124 2.00346,2.64592 4.45214,5.4326 2.44868,2.78669 4.55744,5.21325 4.68614,5.39237 0.1287,0.17911 0.53525,-0.21262 0.90343,-0.87053 0.36818,-0.65789 2.85369,-2.19157 5.52335,-3.40818 5.28324,-2.40765 6.29488,-3.52521 8.19776,-9.056 1.79253,-5.21012 3.27552,-7.85507 4.40419,-7.85507 1.41473,0 1.23546,3.18936 -0.36553,6.50301 -0.73812,1.52774 -1.52734,3.70421 -1.75382,4.83659 -0.3737,1.86853 -0.28024,2.02127 1.01087,1.652 0.78245,-0.2238 2.09328,-0.59119 2.91294,-0.81642 2.21975,-0.60996 3.76824,-2.20926 5.55987,-5.74231 1.49309,-2.94434 4.32561,-5.21318 5.2964,-4.24239 0.53424,0.53424 -2.04633,6.5594 -4.2092,9.82771 -2.03136,3.0696 -6.13696,5.1606 -11.14814,5.6778 -2.91026,0.30036 -4.65366,1.00316 -7.91712,3.19155 -2.30176,1.54351 -4.58487,2.95208 -5.07357,3.13015 -0.65471,0.23858 -0.69533,0.53007 -0.15434,1.10766 0.56442,0.6026 2.09618,0.54565 6.62354,-0.24627 3.23912,-0.56658 7.86738,-1.0311 10.28502,-1.03226 l 4.3957,-0.002 0.57194,-3.80854 c 0.49583,-3.30161 0.78048,-3.83803 2.13865,-4.03018 2.01278,-0.28479 3.31681,0.90192 2.20872,2.01001 -0.43715,0.43715 -0.79483,1.92745 -0.79483,3.31177 0,2.00929 0.24768,2.51694 1.22799,2.51694 1.64115,0 4.13048,-2.3902 6.05432,-5.8132 1.54822,-2.7547 2.81694,-3.47732 3.67308,-2.09206 0.77702,1.25724 -0.36669,5.16485 -2.12239,7.25138 -0.94157,1.11899 -1.60035,2.11832 -1.46394,2.22073 0.13641,0.10242 2.88434,1.02842 6.10653,2.05778 3.22219,1.02937 9.45595,3.64534 13.85282,5.81326 6.44335,3.17697 8.86827,4.7962 12.49918,8.3463 l 4.50489,4.40463 15.4223,0.0479 c 17.29625,0.0538 24.47275,1.10667 33.30585,4.8868 6.6088,2.82825 6.69,2.80286 7.1608,-2.23888 0.2188,-2.34239 1.7308,-8.26903 3.3601,-13.17031 1.6293,-4.90128 3.3227,-11.37525 3.763,-14.38659 0.7543,-5.15886 0.5243,-14.8569 -0.4703,-19.82993 l -0.4037,-2.01844 -2.8367,2.61477 c -3.1263,2.88163 -8.786,6.00926 -10.8745,6.00926 -2.4308,0 -14.006,4.04085 -15.3098,5.34459 -0.7034,0.70342 -1.2789,2.15184 -1.2789,3.21869 0,2.24148 -1.5819,4.13532 -2.9998,3.59125 -1.4648,-0.5621 -1.176,-3.32532 0.7096,-6.78987 2.0389,-3.746 2.388,-3.97476 13.219,-8.66182 11.5799,-5.01113 13.9981,-6.62501 15.6294,-10.43064 l 1.3145,-3.06663 -2.1251,-5.27188 c -2.3949,-5.94138 -5.9779,-11.61918 -9.4389,-14.95766 l -2.333,-2.25044 -8.1622,0.3525 c -4.7111,0.20346 -9.929,0.84826 -12.3411,1.52506 l -4.179,1.17257 0.4028,2.14694 c 0.4906,2.61537 -0.7877,5.72876 -2.23343,5.43965 -0.7509,-0.15015 -1.04104,-0.99421 -1.04104,-3.02855 0,-2.4305 -0.28322,-3.00035 -2.04881,-4.12226 -2.51015,-1.59501 -8.56835,-2.29518 -14.42876,-1.66758 -3.9109,0.41882 -4.38764,0.62564 -4.39669,1.90733 -0.0129,1.82901 -0.60023,2.69328 -2.51619,3.70272 -1.24167,0.65417 -1.45447,1.16425 -1.12034,2.68551 0.47375,2.15696 -0.56619,3.18018 -2.01234,1.97998 -1.33428,-1.10735 -1.20179,-3.22158 0.36267,-5.78752 2.31078,-3.79003 1.58321,-6.37694 -2.47792,-8.81042 -1.37071,-0.82135 -5.02571,-3.34843 -8.12221,-5.61574 -4.56544,-3.34288 -6.99334,-4.57165 -12.84011,-6.49841 -8.67799,-2.85977 -14.32511,-4.03972 -16.60053,-3.46863 -1.47533,0.37028 -1.58618,0.58304 -0.88709,1.70246 0.6454,1.03346 0.5788,1.74096 -0.34661,3.68153 -1.41324,2.9636 -2.52404,2.7007 -3.41699,-0.80871 -0.3752,-1.47466 -1.08193,-3.15538 -1.57048,-3.73494 -1.28023,-1.5187 -7.58551,-3.72509 -11.93416,-4.17608 -3.2384,-0.33584 -4.50353,-0.0824 -9.49234,1.90127 -8.71806,3.4666 -16.16685,8.53328 -26.56965,18.07271 -10.60572,9.7255 -13.23414,11.57791 -16.43552,11.58319 -4.44384,0.008 -6.87215,1.16646 -9.18211,4.38303 -2.64105,3.67759 -5.95287,5.30595 -12.06509,5.93217 -5.30895,0.54391 -7.48761,0.0757 -8.76814,-1.88441 -0.53488,-0.81875 -1.44656,-5.47412 -2.04087,-10.42154 -1.28455,-10.69336 -2.74019,-18.16663 -4.02086,-20.64316 -1.37234,-2.65382 -4.32954,-3.19397 -17.49535,-3.1956 -25.95065,-0.004 -36.76421,2.51319 -51.32007,11.94255 -9.48732,6.14593 -15.04115,12.81228 -17.66389,21.20232 -1.30589,4.17741 -1.54297,6.35716 -1.5453,14.20742 -0.003,8.78541 0.11221,9.60304 2.18383,15.55147 4.96364,14.25262 11.5248,21.3522 22.33505,24.16791 8.91767,2.32276 17.9592,0.72319 29.89882,-5.28951 10.77208,-5.42475 14.3106,-6.17149 24.51859,-5.1743 5.8925,0.57561 7.25193,0.5397 7.68794,-0.20316 0.29132,-0.49632 0.94941,-0.90241 1.4624,-0.90241 1.52283,0 5.96177,4.69553 8.18383,8.65686 1.13817,2.02906 2.75768,4.33581 3.59891,5.12611 l 1.52952,1.4369 0.83571,-2.31112 c 0.57454,-1.58887 1.24886,-2.3111 2.15778,-2.3111 1.23965,0 1.314,0.40262 1.1926,6.45794 -0.14262,7.11356 0.99744,12.55838 3.51457,16.78518 1.89094,3.1753 9.04779,9.4012 13.01426,11.3213 4.28548,2.0745 15.59102,2.4851 23.32997,0.8472 7.27663,-1.54 8.78255,-1.5705 9.06105,-0.1831 0.28492,1.4193 -2.38837,3.1946 -6.30951,4.1903 l -3.01037,0.7643 4.43805,2.4819 c 3.73128,2.0867 5.56596,2.632 11.52069,3.4241 6.96674,0.9267 18.11791,3.6896 23.97264,5.9395 2.10725,0.8099 4.53322,1.0998 8.27942,0.9895 2.91436,-0.086 8.76551,-0.2022 13.00257,-0.2585 l 7.70375,-0.1026 3.55625,2.443 c 6.68731,4.594 10.75361,5.0447 16.80331,1.8623 4.23017,-2.2252 6.3768,-2.4879 7.66315,-0.938 1.20095,1.4471 -0.0319,3.2563 -2.21887,3.2563 -2.11196,0 -2.9629,0.7607 -1.35449,1.2109 6.96571,1.9497 24.36679,0.7301 45.0296,-3.1559 8.8009,-1.6553 16.7896,-3.3092 17.7527,-3.6753 0.963,-0.3662 4.1943,-0.9559 7.1806,-1.3107 2.9863,-0.3547 9.9006,-1.2486 15.365,-1.9865 5.4644,-0.7379 10.0098,-1.3433 10.1009,-1.3453 0.091,0 0.1655,-0.8979 0.1655,-1.9908 0,-1.1443 0.3499,-1.987 0.8251,-1.987 0.4538,0 3.2108,2.5161 6.1268,5.5914 4.6398,4.8933 5.7565,5.718 8.9446,6.6064 6.9925,1.9484 15.4683,3.0363 23.6549,3.0363 7.6655,0 8.5587,0.1365 12.6635,1.9354 5.428,2.3788 6.7468,2.7157 12.8373,3.279 6.4401,0.5955 9.7215,-0.029 11.5959,-2.2086 z m -190.57277,-13.5802 c 0,-1.7403 1.80309,-2.6046 6.4463,-3.0899 3.05526,-0.3193 4.03817,-0.1861 4.72404,0.6403 1.22517,1.4763 0.291,2.5758 -1.79851,2.1168 -0.96913,-0.2128 -3.25071,0.064 -5.07018,0.6164 -4.21353,1.2781 -4.30165,1.2723 -4.30165,-0.2836 z m 41.39706,-1.0676 c -6.13016,-1.2161 -8.27942,-2.1593 -8.27942,-3.6334 0,-0.6629 0.22355,-1.335 0.49677,-1.4936 0.27322,-0.1586 3.32832,0.2954 6.78912,1.009 6.00604,1.2383 6.60874,1.249 13.24704,0.234 3.8251,-0.5848 11.2343,-2.0997 16.4649,-3.3664 10.4506,-2.5307 13.341,-2.8246 13.341,-1.3564 0,0.6259 -1.2904,1.1948 -3.8085,1.6791 -2.0947,0.4029 -6.95,1.7469 -10.7895,2.9867 -6.9121,2.2318 -19.2493,5.0431 -21.6043,4.9231 -0.6713,-0.034 -3.307,-0.4762 -5.85711,-0.9821 z m -53.65059,-5.2859 c -1.09289,-0.5629 -4.37153,-3.3632 -7.28589,-6.2231 -5.95253,-5.8411 -8.86464,-7.547 -14.685,-8.6025 -5.00984,-0.9084 -5.99449,-0.5355 -6.83578,2.5888 -0.43442,1.6133 -1.83187,3.5779 -3.96303,5.5714 -3.75491,3.5122 -5.62219,4.385 -9.3814,4.385 -2.12225,0 -2.6119,-0.2215 -2.44071,-1.1042 0.11778,-0.6073 1.09727,-1.3985 2.17664,-1.7581 1.07936,-0.3596 3.3148,-1.4484 4.96764,-2.4194 3.62351,-2.1288 4.61848,-4.3379 3.43179,-7.6196 -0.60878,-1.6836 -0.63712,-2.6454 -0.10712,-3.6357 0.96453,-1.8022 5.96776,-1.8142 12.4076,-0.03 9.10852,2.5241 11.86161,4.1646 18.3599,10.9406 5.89081,6.1426 6.0519,6.2537 8.48859,5.857 1.90131,-0.3095 2.48382,-0.182 2.48382,0.5434 0,2.5619 -4.0224,3.3571 -7.61705,1.506 z m -97.2555,-43.78784 c -1.96284,-1.96283 1.63644,-8.85355 5.51938,-10.5667 2.52843,-1.11554 2.6503,-1.3071 2.66418,-4.18772 0.022,-4.56509 3.42966,-11.29813 5.71811,-11.29813 1.24188,0 1.11211,1.73441 -0.43417,5.8027 -1.5951,4.19675 -1.65651,6.41977 -0.28866,10.4487 0.80578,2.37333 0.8613,3.26079 0.25009,3.99726 -1.06705,1.28571 -1.70013,1.19465 -3.38112,-0.48632 -1.29949,-1.2995 -1.58676,-1.34577 -3.08405,-0.49678 -0.92123,0.52237 -2.04966,2.09325 -2.55276,3.5537 -1.10393,3.20466 -3.02875,4.61556 -4.411,3.23329 z m 123.96669,-13.49208 c -2.00863,-1.17205 -3.74121,-4.86801 -4.72029,-10.06936 -0.53069,-2.81928 -1.43633,-5.84546 -2.01253,-6.72486 -0.57621,-0.8794 -2.92259,-2.71109 -5.21419,-4.07043 -7.11784,-4.22218 -9.09554,-5.71751 -10.44088,-7.89433 -1.44494,-2.33795 -2.65313,-10.87346 -2.66199,-18.80609 -0.007,-6.043 -1.25447,-8.88014 -5.09622,-11.58805 -4.48931,-3.16436 -3.67556,-5.03527 1.03786,-2.38618 4.89958,2.75373 7.17453,8.02162 8.03475,18.60542 0.61916,7.61789 1.45373,11.57646 2.79375,13.25151 1.03088,1.28864 7.81696,5.84323 11.48345,7.70732 1.48154,0.75324 3.07432,1.82813 3.53949,2.38863 0.46518,0.5605 1.27281,4.07435 1.79473,7.80855 0.52193,3.73419 1.39501,7.47021 1.94019,8.30224 1.03618,1.58142 2.57974,1.98177 3.27892,0.85046 0.79351,-1.28392 2.31824,-0.67706 2.31824,0.92266 0,2.26254 -3.45582,3.23098 -6.07528,1.70251 z m -173.95228,-3.41999 c -1.88582,-1.88583 -0.18559,-3.45352 5.62586,-5.18735 1.52774,-0.45579 3.82968,-1.69582 5.11539,-2.75562 2.43215,-2.00477 5.86692,-8.41824 6.67169,-12.45751 0.88157,-4.42464 5.7032,-20.82284 6.95415,-23.65084 1.15971,-2.62171 2.7511,-3.6361 3.58572,-2.28564 0.18955,0.30669 -0.992,5.44821 -2.62566,11.42558 -1.63366,5.97738 -3.54391,14.1059 -4.245,18.06338 -0.79702,4.49906 -1.72204,7.70139 -2.46848,8.54562 -1.95971,2.21649 -10.1053,7.23068 -13.31602,8.19697 -3.66469,1.10291 -4.28774,1.11531 -5.29765,0.10541 z m 46.89645,-16.7553 c -0.67898,-0.81814 -0.31711,-1.76864 2.07155,-5.44113 2.51891,-3.87276 2.89425,-4.91789 2.89425,-8.059 0,-3.86421 0.80235,-4.81336 2.57253,-3.04319 2.34114,2.34114 0.1229,11.9605 -3.62161,15.705 -2.08875,2.08875 -2.75975,2.23237 -3.91672,0.83832 z m 120.47297,-10.90606 c -0.95112,-0.28793 -3.06653,-1.30716 -4.70093,-2.26497 -2.24482,-1.31556 -3.48232,-1.63934 -5.0598,-1.32385 -1.80362,0.36073 -2.0882,0.23117 -2.0882,-0.95077 0,-1.78101 0.91146,-2.28958 4.10333,-2.28958 1.68861,0 3.34265,0.53957 4.67607,1.52541 2.31504,1.71159 5.60318,2.00845 6.50285,0.58709 0.32667,-0.51608 0.59851,-1.73361 0.60409,-2.70563 0.0138,-2.40385 0.64301,-3.8627 1.66602,-3.8627 1.20108,0 1.65588,1.548 1.65588,5.63609 0,3.03617 -0.24868,3.73632 -1.7452,4.91348 -1.84695,1.4528 -2.82226,1.58057 -5.61411,0.73543 z m 13.48607,-2.99781 c -0.81965,-0.59203 -1.49028,-1.68184 -1.49028,-2.42179 0,-1.18955 0.28993,-1.29639 2.50335,-0.92243 1.97913,0.33437 3.40086,0.006 6.78913,-1.56952 4.39204,-2.04186 12.27442,-3.69761 14.1594,-2.97428 1.4181,0.54419 1.3361,2.05328 -0.15496,2.85128 -0.66558,0.3562 -2.8265,0.84885 -4.80206,1.09477 -2.24748,0.27977 -4.77823,1.19313 -6.76138,2.44023 -3.83866,2.41393 -8.11274,3.04054 -10.2432,1.50174 z m 35.0736,-7.71158 c -2.2515,-0.64915 -3.4034,-2.21462 -2.3751,-3.22786 0.332,-0.32705 2.5131,-0.16999 5.0451,0.36332 3.1232,0.65781 4.9729,0.74458 6.1699,0.28948 3.46,-1.3155 4.894,-0.0412 2.5695,2.28331 -1.1839,1.18387 -7.7342,1.35136 -11.4094,0.29175 z m 225.317,89.18656 c 11.1226,-2.4802 16.9734,-3.055 36.5092,-3.586 l 17.8835,-0.4862 7.1276,-2.4255 c 11.28426,-3.84 17.71056,-7.2647 17.71056,-9.4381 0,-0.50786 -1.0579,-1.98126 -2.3508,-3.27422 -2.8937,-2.89368 -2.4625,-3.93075 1.3939,-3.35245 2.4821,0.37221 2.9605,0.24229 3.6157,-0.98182 1.0049,-1.87783 0.476,-3.01791 -2.1397,-4.61279 -1.9299,-1.17659 -3.3399,-1.3263 -12.5137,-1.32849 -11.38046,-0.003 -11.86596,-0.1385 -20.79186,-5.81608 -1.8214,-1.15861 -6.5649,-3.44697 -10.541,-5.08526 -3.9761,-1.63829 -8.447,-3.77999 -9.9353,-4.75934 -4.7645,-3.13513 -11.6994,-9.11608 -12.9944,-11.20699 -1.1357,-1.83365 -2.44,-7.66293 -5.6117,-25.08144 -1.7481,-9.60053 -2.9659,-24.03407 -3.6365,-43.10102 -0.3459,-9.83595 -0.9322,-19.67189 -1.3029,-21.85765 -0.3708,-2.18577 -2.9101,-12.02171 -5.643,-21.85766 -4.5346,-16.31999 -6.6822,-25.66331 -9.9721,-43.38412 -2.1494,-11.57744 -3.8006,-14.71961 -10.1087,-19.23678 -4.6164,-3.30573 -9.9985,-5.31669 -14.3022,-5.34389 -4.364,-0.0276 -12.0527,2.49837 -21.293,6.99534 -6.5034,3.16503 -8.2694,4.43776 -15.959,11.50159 -4.7555,4.36851 -10.8537,10.4237 -13.5515,13.45599 -2.6978,3.03229 -8.1938,8.94777 -12.2132,13.14551 -7.4154,7.74436 -14.0319,15.53691 -18.2906,21.54166 -4.115,5.80218 -10.6155,16.82893 -10.2601,17.40406 0.1887,0.30523 2.504,1.84394 5.1453,3.41937 14.1604,8.44629 27.5253,20.23643 41.4492,36.56522 l 6.0115,7.04982 2.343,-5.06276 c 3.6187,-7.81902 4.2188,-9.48619 6.7843,-18.84903 1.3162,-4.80355 4.3398,-14.64725 6.7191,-21.87488 4.2033,-12.7681 4.4614,-13.32277 9.0921,-19.53941 4.6928,-6.29983 11.0209,-12.69063 12.5663,-12.69063 1.5009,0 2.3791,1.60025 2.3791,4.33511 0,2.95791 -0.4837,3.59938 -5.0699,6.72346 -3.8268,2.60684 -5.8527,5.25909 -8.5862,11.2409 l -2.3708,5.18818 0.3084,8.94177 c 0.4803,13.91971 4.3735,26.11527 12.5812,39.41 5.9592,9.65266 8.3635,14.77908 11.9602,25.50059 5.0417,15.02935 5.9841,19.33538 6.0158,27.48765 0.026,6.59343 -0.2084,8.05312 -2.4616,15.35847 -2.9798,9.66133 -4.4314,16.86988 -4.4215,21.95716 0.013,6.60326 0.6238,8.53986 3.8133,12.08746 6.1286,6.8164 11.5858,7.8949 24.912,4.9232 z m 65.32146,-19.74462 c 0,-1.32346 1.3887,-2.371 3.7763,-2.84852 1.5313,-0.30627 2.0983,-0.12774 2.4425,0.76918 0.5968,1.55539 -0.048,2.04708 -3.4038,2.59243 -2.2393,0.364 -2.815,0.25906 -2.815,-0.51309 z m -69.53466,-3.79773 c -3.0726,-0.72254 -7.0697,-5.04756 -7.6822,-8.31244 -0.3501,-1.86596 -0.033,-3.88499 1.2328,-7.85503 0.9373,-2.93894 1.8765,-6.35832 2.0874,-7.59863 0.3961,-2.32997 1.4295,-4.03725 2.4437,-4.03725 0.979,0 0.6497,5.00577 -0.7399,11.24378 -1.6449,7.38501 -1.3169,8.25163 4.3587,11.51597 4.2785,2.46076 5.4737,4.44715 3.2006,5.31939 -1.2408,0.47614 -1.849,0.44191 -4.9011,-0.27579 z m -25.6785,-87.19143 c -1.4149,-0.57089 -0.9155,-2.05821 1.1957,-3.56154 2.5401,-1.80872 4.7165,-5.23838 6.2313,-9.81968 1.0049,-3.03916 1.1152,-5.00418 0.762,-13.57824 -0.2271,-5.51365 -0.5801,-11.36608 -0.7845,-13.00541 -0.6823,-5.47347 2.9449,-7.26516 4.5905,-2.26756 0.3506,1.06501 0.6641,7.89756 0.6964,15.18344 0.063,14.10321 -0.604,18.30504 -3.7066,23.364 -2.0003,3.2615 -5.9846,4.89561 -8.9848,3.68499 z m -45.2048,-22.5781 c 4e-4,-0.63751 1.46,-4.75206 3.2434,-9.14343 1.7834,-4.39137 4.2021,-11.09769 5.3749,-14.90294 3.1298,-10.15416 7.115,-17.5907 11.9716,-22.33887 2.0599,-2.01399 5.241,-2.90834 5.241,-1.47348 0,0.36225 -1.7918,3.07525 -3.9818,6.02889 -5.1676,6.96968 -8.0998,13.19364 -10.2672,21.79365 -2.1811,8.65506 -4.9581,15.89511 -7.2484,18.89778 -1.8731,2.45581 -4.3349,3.10252 -4.3335,1.1384 z m 54.5359,-73.85236 c -0.7325,-0.81966 -2.0001,-2.46349 -2.817,-3.65294 -1.9165,-2.79039 -4.8395,-4.27512 -7.894,-4.00964 -2.0149,0.17514 -2.4287,-0.003 -2.4287,-1.04141 0,-3.35617 5.3234,-2.73348 11.9231,1.39466 4.2078,2.63196 6.0627,5.42751 4.9638,7.4809 -0.9218,1.72232 -2.103,1.66823 -3.7472,-0.17157 z m -162.8003,188.79454 c 0.2571,-1.1708 0.525,-8.54776 0.5952,-16.39324 0.07,-7.84549 0.3307,-14.19001 0.5787,-14.09893 0.2479,0.091 0.6846,0.16559 0.9704,0.16559 0.2857,0 1.1054,0.96869 1.8214,2.15264 1.186,1.9609 1.302,3.40641 1.302,16.22777 l 0,14.07507 4.1745,-10e-5 c 2.296,0 6.2384,-0.4695 8.7608,-1.04321 3.8794,-0.88234 5.8901,-0.9326 13.0466,-0.32602 4.6532,0.39439 9.8191,0.89461 11.4797,1.1116 2.7534,0.35983 3.6876,0.0502 10.6073,-3.51509 8.8559,-4.56292 15.9653,-9.04933 19.7304,-12.4508 5.3845,-4.86459 9.1691,-12.5541 14.2979,-29.05027 1.3425,-4.31792 3.4376,-10.13006 4.6558,-12.91588 1.2182,-2.78582 2.5465,-6.31471 2.9518,-7.84196 0.4053,-1.52726 2.6488,-5.63653 4.9857,-9.13173 l 4.2488,-6.35491 -5.0147,-6.02506 c -7.7955,-9.36621 -23.7779,-25.0735 -30.0788,-29.561 -8.8303,-6.28891 -23.9154,-15.4989 -24.4143,-14.90576 -0.2465,0.29312 -1.4615,1.8742 -2.7,3.51351 -3.4153,4.5204 -14.8435,18.08714 -16.1432,19.16393 -1.4865,1.23151 -3.6983,5.58113 -3.6983,7.27265 0,2.17903 -1.4774,4.7615 -2.6019,4.54834 -0.6967,-0.13206 -1.1506,-1.17257 -1.3722,-3.14552 -0.2749,-2.44687 -0.6128,-3.02592 -1.9871,-3.4054 -2.9099,-0.8035 -6.6303,-0.61979 -8.6554,0.42741 -2.1412,1.10729 -2.4264,0.86561 -2.7623,-2.3414 -0.1437,-1.3713 0.3399,-1.9109 2.8134,-3.13969 1.6428,-0.81608 4.9215,-1.68222 7.2859,-1.92474 4.2608,-0.43703 4.3452,-0.4856 9.5074,-5.4709 4.4802,-4.32663 10.9744,-12.68289 12.0645,-15.52363 0.5215,-1.35891 -8.5345,-5.57018 -13.4709,-6.26428 l -4.1461,-0.58299 -7.1895,9.664 c -6.5818,8.84717 -11.757,16.9253 -15.3298,23.92842 -1.3601,2.66611 -1.3611,2.69817 -0.06,2.00163 0.7275,-0.38934 1.5059,-1.00434 1.7299,-1.36667 0.7118,-1.15178 2.316,-0.70911 2.316,0.63911 0,1.95434 -2.9229,4.28833 -10.0872,8.05491 l -6.4665,3.3997 4.0682,4.3489 c 4.9825,5.32636 9.9467,12.81419 11.8446,17.86601 0.7811,2.07912 1.5859,5.94115 1.7885,8.58228 0.343,4.47121 0.2778,4.80206 -0.9457,4.80206 -1.5645,0 -2.2377,-1.3453 -4.1673,-8.3284 -2.3124,-8.36848 -9.7543,-21.32267 -13.3037,-23.15818 -2.1649,-1.11951 -5.9132,-1.29415 -5.9132,-0.2755 0,1.15364 5.7759,10.79175 9.2623,15.45576 4.4697,5.97942 4.4164,5.84661 5.6314,14.02312 2.1467,14.44619 1.3195,25.89562 -2.7252,37.71833 -1.4636,4.27791 -4.5832,19.40316 -4.0998,19.87745 0.3162,0.31028 9.1311,1.46819 11.9148,1.56507 2.2241,0.077 2.4711,-0.0967 2.8988,-2.044 z m 6.9236,0.42659 c 0,-0.57189 0.9031,-2.35252 2.007,-3.95695 2.6139,-3.79917 5.94,-10.85669 5.9407,-12.60528 6e-4,-1.89622 4.4847,-14.71687 6.0397,-17.26859 2.9885,-4.90414 7.4057,-5.59924 16.4162,-2.58326 5.2658,1.76257 5.8028,1.82042 9.9763,1.07457 5.6355,-1.00712 10.5875,-3.8449 13.7988,-7.9076 3.3089,-4.18608 7.5907,-12.48682 9.4424,-18.30548 2.8584,-8.98163 7.2994,-15.505 12.1094,-17.78749 1.1863,-0.56292 3.914,-2.08156 6.0616,-3.37476 4.3116,-2.59637 8.558,-3.24392 8.1708,-1.24604 -0.1177,0.60789 -1.7326,1.88977 -3.5885,2.84861 -7.8191,4.03967 -13.7783,9.58544 -14.4657,13.46232 -1.1952,6.74033 -13.3976,27.46097 -19.661,33.38585 -2.2721,2.14939 -6.2731,4.17328 -8.2499,4.17328 -0.5966,0 -4.1084,3.09642 -7.8039,6.88095 -7.1559,7.3281 -12.1167,10.68788 -16.8231,11.39365 -3.7093,0.55624 -5.4091,-0.60628 -3.68,-2.51689 0.6339,-0.70044 4.512,-3.37061 8.618,-5.93372 6.5621,-4.09629 11.4608,-8.23583 11.457,-9.68145 -0.001,-0.4588 -11.2026,-2.82182 -13.2815,-2.80185 -1.4345,0.0138 -4.8383,3.7522 -6.5782,7.22482 -0.8018,1.60031 -2.7661,6.59739 -4.365,11.10464 -3.2696,9.21673 -4.4683,11.81894 -6.4353,13.97014 -1.6091,1.75981 -5.1058,2.06834 -5.1058,0.45053 z m 7.6893,-68.19847 c -2.3045,-2.30444 -3.0093,-9.3028 -1.6679,-16.5594 0.9991,-5.40467 3.7719,-10.60626 4.9995,-9.37868 0.1843,0.18434 -0.3296,3.04574 -1.1421,6.35867 l -1.4772,6.02352 1.4292,5.82757 c 1.7074,6.96214 1.7466,7.81833 0.3814,8.34216 -1.4003,0.53736 -1.3625,0.54654 -2.5229,-0.61384 z m 118.8953,49.37301 c 1.9623,-0.36134 7.368,-2.05167 12.0129,-3.75628 8.2092,-3.01273 8.4646,-3.16551 9.1419,-5.46979 1.2143,-4.13127 1.5167,-12.35809 0.6515,-17.72182 -1.1455,-7.10074 -5.5027,-20.41515 -9.3706,-28.63376 -2.5013,-5.31496 -8.4763,-15.70864 -10.2741,-17.87219 -0.1181,-0.14217 -1.4157,0.82652 -2.8836,2.15264 -2.1022,1.89922 -3.2137,2.41113 -5.2352,2.41113 -3.0528,0 -4.6786,-1.42905 -3.391,-2.9806 0.4536,-0.54643 1.2186,-0.99352 1.7001,-0.99352 2.8544,0 6.493,-7.66493 4.9803,-10.49143 -0.6824,-1.2751 -3.7932,-13.27927 -4.1471,-16.00269 -0.2316,-1.78361 0.012,-2.36765 -6.1373,14.70617 l -3.0303,8.41382 1.5593,3.50854 c 0.8577,1.9297 2.3462,4.66157 3.3078,6.07084 2.1731,3.18488 2.9539,5.84827 3.7952,12.94687 0.8116,6.84802 0.058,11.34531 -4.6723,27.87411 -1.8243,6.37469 -3.3168,12.39097 -3.3168,13.36952 0,4.24729 3.5465,9.79805 7.5155,11.76269 3.184,1.57607 3.1059,1.56899 7.7938,0.70575 z m 2.9536,-22.08572 c -2.1946,-2.1946 -2.7708,-5.71331 -1.5106,-9.22511 1.6329,-4.55015 2.9937,-8.629 3.588,-10.75395 0.8968,-3.20695 2.4769,-2.51774 2.7137,1.18371 0.1481,2.31494 -0.2541,4.16902 -1.4903,6.86916 -0.9312,2.03412 -1.6931,4.23686 -1.6931,4.89498 0,1.36467 2.3007,3.36268 5.3053,4.60724 1.5082,0.6247 1.9954,1.21617 1.8487,2.24424 -0.1693,1.18591 -0.7219,1.42607 -3.6723,1.59602 -2.9502,0.16994 -3.7164,-0.0432 -5.0894,-1.41629 z m 80.5842,-1.51836 c 2.2832,-0.43748 4.5111,-3.51242 4.9578,-6.84294 l 0.3435,-2.56081 -3.5569,-0.39725 c -1.9562,-0.21848 -5.3452,-0.46793 -7.5309,-0.55436 -3.541,-0.13998 -3.9969,-0.31698 -4.1827,-1.62398 -0.2366,-1.66375 0.7926,-2.05314 6.1697,-2.33416 l 3.3118,-0.17308 -1.8065,-1.2255 c -2.5401,-1.72311 -5.9342,-2.38336 -12.3457,-2.40163 -5.334,-0.0152 -5.5279,0.0372 -5.1724,1.39678 0.2033,0.77692 1.0483,5.12709 1.8781,9.66704 l 1.5087,8.25445 7.3065,-0.42864 c 4.0187,-0.23575 8.1221,-0.58491 9.119,-0.77592 z m -172.299,-96.28717 c 0.5448,0 1.3431,0.3527 1.7742,0.78377 0.4311,0.4311 0.8819,0.65464 1.0018,0.49677 0.1199,-0.15786 1.6669,-2.37343 3.4378,-4.92349 10.1953,-14.68091 30.5173,-38.35946 47.9912,-55.91788 13.228,-13.2919 13.8127,-13.78302 20.4739,-17.19725 l 6.857,-3.51459 -2.2206,-2.33324 c -4.3206,-4.53993 -9.0521,-5.2371 -17.448,-2.5709 -13.0906,4.15705 -25.2915,14.96701 -41.9372,37.15621 -3.826,5.10012 -10.4192,12.84965 -14.6515,17.22118 -4.2324,4.37153 -9.0656,9.58756 -10.7404,11.59118 -3.4009,4.06852 -10.8187,15.80256 -10.3108,16.31045 0.1799,0.17994 2.8181,1.59462 5.8626,3.14375 l 5.5354,2.81659 1.6921,-1.53127 c 0.9307,-0.84221 2.1378,-1.53128 2.6825,-1.53128 z"
       id="path3046"
       inkscape:connector-curvature="0" />
  </g>
</svg>
