<?xml version="1.0" encoding="UTF-8" standalone="no"?>
<!-- Created with Inkscape (http://www.inkscape.org/) -->

<svg
   xmlns:dc="http://purl.org/dc/elements/1.1/"
   xmlns:cc="http://creativecommons.org/ns#"
   xmlns:rdf="http://www.w3.org/1999/02/22-rdf-syntax-ns#"
   xmlns:svg="http://www.w3.org/2000/svg"
   xmlns="http://www.w3.org/2000/svg"
   xmlns:xlink="http://www.w3.org/1999/xlink"
   xmlns:sodipodi="http://sodipodi.sourceforge.net/DTD/sodipodi-0.dtd"
   xmlns:inkscape="http://www.inkscape.org/namespaces/inkscape"
   width="594.25665"
   height="285.34885"
   id="svg2"
   version="1.1"
   inkscape:version="0.48.3.1 r9886"
   sodipodi:docname="Bridge-1.svg">
  <defs
     id="defs4">
    <radialGradient
       gradientUnits="userSpaceOnUse"
       gradientTransform="matrix(1,0,0,0.91819829,-19.285714,-7.9105395)"
       r="209.56604"
       fy="287.50052"
       fx="398.1105"
       cy="287.50052"
       cx="398.1105"
       id="radialGradient5255"
       xlink:href="#linearGradient5249"
       inkscape:collect="always" />
    <linearGradient
       id="linearGradient5249"
       inkscape:collect="always">
      <stop
         id="stop5251"
         offset="0"
         style="stop-color:#e3e3e3;stop-opacity:1;" />
      <stop
         id="stop5253"
         offset="1"
         style="stop-color:#e3e3e3;stop-opacity:0;" />
    </linearGradient>
  </defs>
  <sodipodi:namedview
     id="base"
     pagecolor="#ffffff"
     bordercolor="#666666"
     borderopacity="1.0"
     inkscape:pageopacity="0.0"
     inkscape:pageshadow="2"
     inkscape:zoom="1.4"
     inkscape:cx="178.18306"
     inkscape:cy="264.48088"
     inkscape:document-units="px"
     inkscape:current-layer="layer1"
     showgrid="false"
     showguides="true"
     inkscape:guide-bbox="true"
     fit-margin-top="0"
     fit-margin-left="0"
     fit-margin-right="0"
     fit-margin-bottom="0"
     inkscape:window-width="1615"
     inkscape:window-height="1026"
     inkscape:window-x="65"
     inkscape:window-y="24"
     inkscape:window-maximized="1">
    <sodipodi:guide
       orientation="-0.70710678,0.70710678"
       position="-1812.9879,773.8824"
       id="guide2985" />
  </sodipodi:namedview>
  <metadata
     id="metadata7">
    <rdf:RDF>
      <cc:Work
         rdf:about="">
        <dc:format>image/svg+xml</dc:format>
        <dc:type
           rdf:resource="http://purl.org/dc/dcmitype/StillImage" />
        <dc:title />
      </cc:Work>
    </rdf:RDF>
  </metadata>
  <g
     inkscape:label="Ebene 1"
     inkscape:groupmode="layer"
     id="layer1"
     transform="translate(-384.41643,-515.18143)">
    <path
       style="fill:#000000"
       d="m 771.62302,797.7359 c -1.75979,-0.46402 -5.35937,-1.6485 -7.99906,-2.63218 -4.45261,-1.65926 -5.72429,-1.81937 -17.59792,-2.21559 -12.15169,-0.4055 -13.04386,-0.52294 -17.6536,-2.32383 -2.67031,-1.04322 -6.24113,-2.95506 -7.93516,-4.24855 -5.05866,-3.86258 -6.44742,-4.04218 -19.0688,-2.46612 -10.38611,1.29694 -21.77309,3.80675 -33.41324,7.36464 -8.34468,2.5506 -19.04614,3.81992 -32.63616,3.87104 -10.80909,0.0406 -12.58472,-0.10433 -15.99811,-1.30634 -2.11175,-0.74364 -6.38294,-1.70413 -9.49153,-2.13442 -4.2992,-0.59511 -6.8264,-1.3817 -10.55876,-3.28639 l -4.90677,-2.50404 -10.2388,0.41503 -10.23879,0.41505 -5.75932,-2.33699 c -5.00806,-2.03214 -7.01142,-2.45718 -15.35819,-3.2585 l -9.59887,-0.92152 -9.85462,-4.97262 -9.85463,-4.97263 -7.42333,-0.35524 c -8.72962,-0.41777 -10.65873,-1.20156 -16.68163,-6.77771 -4.96895,-4.60037 -6.68923,-7.56272 -8.29432,-14.28299 -1.07479,-4.49997 -1.69499,-5.80905 -3.7837,-7.98633 -1.37401,-1.43226 -3.25237,-3.92128 -4.17414,-5.53114 -4.66206,-8.14218 -8.5474,-9.85204 -21.47044,-9.44865 l -7.41271,0.23137 -9.91883,4.95701 c -11.23354,5.61404 -15.625,6.67991 -24.68205,5.99069 -11.77763,-0.89626 -20.66313,-6.49868 -26.50727,-16.71318 -7.60876,-13.29872 -8.58926,-34.56932 -2.21275,-48.00246 4.11916,-8.67768 15.35422,-18.82138 27.35081,-24.69401 10.12953,-4.95865 12.43426,-5.26508 37.15289,-4.93973 19.57389,0.25763 21.43727,0.37937 24.09422,1.57405 1.58382,0.71215 3.25925,1.75473 3.72318,2.31685 1.07893,1.30723 2.9897,12.58678 3.86308,22.80415 0.37329,4.36702 0.93175,8.19308 1.24102,8.50235 0.78321,0.78321 9.63418,-0.75929 10.748,-1.87311 0.49627,-0.49627 0.90231,-1.60165 0.90231,-2.45641 0,-1.91629 1.6609,-3.63616 5.25283,-5.43932 4.10515,-2.0608 5.30616,-3.37827 11.04203,-12.1129 6.98509,-10.63695 9.74155,-13.99677 14.46528,-17.6316 7.9757,-6.13716 16.61252,-9.21133 25.94305,-9.23412 3.80299,-0.009 5.32523,-0.36755 9.2789,-2.1838 10.73224,-4.93023 23.77388,-7.84134 31.92084,-7.12528 2.64273,0.23228 6.40891,0.85893 8.3693,1.39256 3.46507,0.9432 3.67698,0.92444 7.60972,-0.67357 2.22497,-0.90409 6.23636,-2.25719 8.9142,-3.0069 3.33566,-0.93388 5.59706,-2.01942 7.18153,-3.44734 3.31807,-2.99025 10.55956,-7.14904 17.26389,-9.91467 4.29945,-1.77358 6.29377,-2.99711 7.73485,-4.7454 1.12556,-1.36549 3.86315,-3.31909 6.51288,-4.64772 2.51412,-1.26063 4.77682,-2.64465 5.02822,-3.07561 0.2514,-0.43096 3.13107,-2.46406 6.39925,-4.51801 3.26818,-2.05395 6.95004,-4.79637 8.18189,-6.09426 2.74982,-2.89724 6.69828,-4.90693 15.03823,-7.6542 9.59233,-3.15982 11.09857,-3.92467 18.31634,-9.30081 10.89904,-8.11813 27.3302,-18.76099 34.0671,-22.06609 l 6.30887,-3.09512 2.65007,1.28515 2.65008,1.28514 6.92865,-3.92823 c 3.81076,-2.16053 12.16178,-6.51453 18.55782,-9.67555 13.09038,-6.46948 12.06323,-6.20313 40.41467,-10.47988 17.28194,-2.60695 21.13089,-2.76265 24.5958,-0.99498 2.13451,1.08894 9.65142,8.54628 9.65117,9.57466 -6e-5,0.20399 2.49471,0.26742 5.54392,0.14095 7.03742,-0.29188 9.15215,0.36883 16.04722,5.01362 9.7758,6.58536 11.14223,10.27851 11.37071,30.73214 0.0845,7.56711 0.48722,16.49406 0.89489,19.83766 0.40765,3.34361 1.4662,11.83861 2.35232,18.87778 1.75635,13.95219 2.06387,25.82989 0.86984,33.59737 -0.40566,2.63896 -1.74451,9.54955 -2.97523,15.35686 -1.90817,9.00397 -2.2864,12.21101 -2.5686,21.77935 l -0.33092,11.22057 6.76247,0.7557 c 8.28671,0.92601 10.63702,1.86506 14.50637,5.79592 3.93384,3.99638 4.48038,5.12046 4.48038,9.21482 0,2.85616 -0.31662,3.79998 -1.93234,5.76012 -2.42781,2.94535 -7.10735,4.76649 -13.8081,5.3737 l -4.98661,0.45188 2.20449,1.85481 c 2.49101,2.09588 22.871,12.56558 29.32492,15.06493 3.66224,1.41823 5.62604,1.69692 14.50123,2.05791 8.86036,0.36039 10.67925,0.61789 13.28929,1.88139 1.66315,0.80512 3.2691,1.93974 3.56876,2.52138 1.17366,2.27803 1.36808,5.77048 0.47359,8.50724 -0.50138,1.534 -1.11124,4.21754 -1.35523,5.96342 -0.55289,3.956 -3.63479,7.27895 -8.32388,8.97491 -1.75979,0.63649 -4.92742,1.86014 -7.03917,2.71924 -12.95404,5.26991 -18.58814,6.15837 -29.27996,4.61727 -9.89765,-1.42664 -22.46406,-0.48303 -30.61974,2.29922 -6.81173,2.32377 -15.91891,3.2825 -22.08093,2.32451 -8.3671,-1.3008 -13.41381,-4.97316 -16.82302,-12.24167 -2.35738,-5.026 -2.22089,-12.81659 0.40637,-23.1947 l 1.89545,-7.48735 -2.30313,0.99745 c -9.38289,4.06356 -15.96072,6.15542 -19.26113,6.12536 -6.11056,-0.0557 -10.11437,-2.42026 -12.96434,-7.65659 -3.998,-7.34565 -3.52297,-18.0315 1.46102,-32.86541 2.93052,-8.72215 5.11942,-18.74241 6.07025,-27.78812 0.41542,-3.95198 -0.83862,-13.22587 -2.5512,-18.8668 -1.33041,-4.38212 -3.91422,-11.47187 -4.33371,-11.89138 -0.37358,-0.37357 -12.14603,4.62364 -19.35828,8.21729 -2.11176,1.05223 -9.16692,5.43063 -15.67816,9.7298 -9.96499,6.57959 -23.97512,14.84508 -32.45984,19.1502 -3.79283,1.92447 -13.84767,4.24298 -22.57367,5.20518 -11.38107,1.25497 -11.76066,1.33642 -16.85139,3.6161 -3.70632,1.65973 -4.9256,1.91049 -7.99906,1.64513 -3.34502,-0.28881 -3.97353,-0.11268 -8.10567,2.27153 -2.46371,1.42154 -5.9193,3.77906 -7.67909,5.23893 -1.7598,1.45987 -4.77709,3.78761 -6.70511,5.17276 l -3.50547,2.51846 24.62298,0.48061 c 15.88542,0.31005 29.27813,0.23232 37.74145,-0.21906 l 13.11846,-0.69965 5.67353,1.67758 c 8.17901,2.41841 16.30747,6.70967 24.72288,13.05197 6.39204,4.81736 7.38507,5.81394 7.55649,7.58346 0.14277,1.4737 -0.1356,2.21543 -1.00634,2.68143 -0.66203,0.35431 -2.34055,1.78105 -3.73004,3.17055 l -2.52636,2.52635 -6.99235,0.4766 c -5.98017,0.40761 -7.14887,0.66988 -8.07356,1.81183 -1.34671,1.66311 -5.98339,1.72159 -11.951,0.15074 -3.32416,-0.87501 -4.90034,-0.94229 -9.26213,-0.39537 -2.89094,0.3625 -7.61779,0.65908 -10.50408,0.65908 -4.46676,0 -5.99314,-0.30954 -10.25558,-2.07975 -4.7515,-1.97333 -5.40075,-2.0763 -12.68686,-2.01223 -8.58871,0.0755 -8.56254,0.0697 -33.43877,7.44353 l -15.55078,4.60957 4.97707,1.08591 c 2.73739,0.59726 6.56089,1.79109 8.49666,2.65296 4.96301,2.20972 9.86992,3.53745 17.10212,4.62758 8.17155,1.23172 21.59061,1.2106 27.37264,-0.0431 4.94927,-1.07312 7.79609,-0.96397 26.92849,1.03244 12.11773,1.26446 21.82013,3.39986 31.67142,6.97059 5.17081,1.87423 9.38366,4.15358 19.15093,10.36159 2.28773,1.45407 6.26011,3.62642 8.82752,4.82745 5.82848,2.72656 6.57019,3.99839 5.08254,8.71523 -0.57627,1.82718 -1.21587,4.13107 -1.42131,5.11976 -0.97957,4.7139 -8.79424,10.0791 -20.11846,13.81241 -6.57467,2.1675 -10.46317,2.42349 -15.72754,1.03538 z m 16.3673,-6.03743 c 3.51053,-3.51052 2.72516,-4.08802 -6.6174,-4.86584 -4.99714,-0.41604 -9.38422,-2.11837 -12.3096,-4.7765 -1.4599,-1.32653 -5.47141,-2.55662 -8.35468,-2.56188 -1.09932,-0.002 -2.92039,-0.72513 -4.15951,-1.65168 -2.19929,-1.64454 -4.7104,-1.83318 -7.80341,-0.58621 -2.05003,0.82647 -1.34619,-2.09525 0.76812,-3.1886 2.76649,-1.43061 5.79356,-1.20761 8.49124,0.62552 1.29653,0.88101 4.31503,2.04699 6.70778,2.59107 2.70372,0.61479 5.60721,1.84436 7.67061,3.24835 4.10984,2.79644 8.00808,4.01242 14.49677,4.52199 4.62184,0.36297 5.07457,0.52532 5.72891,2.05451 0.39077,0.91321 0.75895,1.74316 0.81819,1.84433 0.41191,0.70354 3.57855,-1.66271 3.89097,-2.90751 0.58834,-2.34413 -0.7424,-3.09081 -7.68045,-4.30948 -6.55505,-1.1514 -9.51836,-2.40674 -19.30344,-8.17748 -4.95349,-2.92131 -15.20733,-6.22695 -19.31555,-6.22695 -1.2541,0 -1.52193,-0.28401 -1.35777,-1.43983 0.50625,-3.56459 10.14237,-1.10512 25.82054,6.59027 8.31145,4.07955 11.76735,5.25829 21.73836,7.41449 2.12044,0.45854 2.67524,0.91097 3.23297,2.63645 0.61818,1.91249 0.77406,2.00922 1.90521,1.1821 1.02514,-0.7496 1.12444,-1.20651 0.59153,-2.72183 -0.53975,-1.53475 -1.42383,-2.09169 -5.62406,-3.5429 -5.60629,-1.93702 -10.68046,-4.64394 -15.44129,-8.23748 -3.97053,-2.99701 -5.15131,-3.45269 -13.19308,-5.09151 -4.7237,-0.96262 -7.09937,-1.80609 -9.03386,-3.20743 -1.82879,-1.32477 -3.37184,-1.90135 -5.08842,-1.90135 -2.73451,0 -3.39858,-1.37439 -1.2259,-2.53718 2.37755,-1.27243 5.62501,-0.7782 7.87661,1.19873 1.71167,1.50287 3.26257,2.05838 8.05614,2.88562 7.34269,1.26714 9.40224,2.11412 14.75202,6.06678 5.97276,4.41292 10.13512,6.74995 15.41244,8.65358 5.47163,1.97374 5.13883,1.94802 5.13883,0.39702 0,-1.35564 -2.87503,-3.21478 -18.87786,-12.20743 -12.85597,-7.22431 -20.58247,-9.38673 -42.23494,-11.82033 -4.92742,-0.55381 -10.59344,-1.31666 -12.59115,-1.69523 -2.6271,-0.49784 -4.77216,-0.48979 -7.75176,0.0291 -7.6447,1.33126 -26.1869,2.06152 -33.90828,1.33543 -9.18918,-0.86413 -13.91345,-1.9686 -22.13996,-5.17603 -8.70917,-3.3956 -13.25826,-4.30355 -24.11613,-4.81329 -9.08783,-0.42668 -13.71926,-0.0587 -13.71926,1.09001 0,0.34472 0.74332,0.90937 1.65182,1.25479 2.12387,0.80749 1.74496,1.92867 -1.13493,3.35823 -7.59779,3.77151 -22.59429,3.86548 -22.59429,0.14158 0,-1.00004 0.34976,-1.22944 1.59981,-1.0493 4.60711,0.66393 15.99812,-0.68238 15.99812,-1.89083 0,-1.22451 -8.61434,-9.58197 -12.96456,-12.57795 -6.51422,-4.48634 -8.72006,-5.48966 -17.43186,-7.92886 -7.32567,-2.05109 -8.16507,-2.14886 -18.23785,-2.12439 -5.80732,0.0141 -11.11852,0.24247 -11.80268,0.50746 -1.12559,0.43598 -1.04504,0.60276 0.84685,1.75328 2.60912,1.5867 2.29942,2.77219 -0.79228,3.0328 -4.18296,0.35261 -8.21789,-3.06527 -14.35449,-12.15933 -4.5908,-6.80328 -9.47716,-11.06956 -14.43086,-12.59961 -2.19282,-0.67729 -5.62083,-1.43558 -7.6178,-1.68508 -4.17554,-0.5217 -5.99541,-1.56511 -5.4065,-3.09977 0.28953,-0.75453 1.19567,-1.05243 3.20123,-1.05243 2.51515,0 10.41076,1.71164 13.4706,2.9202 2.82944,1.11757 18.63658,-19.67266 22.89842,-30.11699 1.6624,-4.074 2.12042,-6.16481 2.24294,-10.2388 0.0847,-2.81567 0.17016,-5.47935 0.18995,-5.9193 0.0198,-0.43995 0.6548,-0.79991 1.41114,-0.79991 1.36301,0 1.37122,0.0798 0.92881,9.01802 -0.60879,12.29952 -1.66841,14.84449 -11.96513,28.73754 -2.77483,3.74398 -6.97688,11.55977 -6.97688,12.97694 0,0.46769 1.02876,1.84271 2.28614,3.05562 1.25738,1.2129 3.90544,4.31452 5.88458,6.89246 3.50356,4.5636 3.6584,4.6769 5.87289,4.29761 5.28069,-0.90447 5.77669,-1.12655 7.02405,-3.1448 0.70293,-1.13737 3.11075,-3.82779 5.35071,-5.97871 5.77742,-5.54776 7.40063,-5.89277 17.24925,-3.66628 11.75294,2.65698 16.60603,1.69443 20.52379,-4.07066 4.98633,-7.3375 12.64015,-12.19246 12.58445,-7.98255 -0.01,0.74523 -1.1073,1.61966 -3.16941,2.52534 -2.584,1.1349 -3.47799,1.98681 -4.94434,4.7116 -0.9845,1.82941 -2.47414,4.17026 -3.31032,5.2019 -3.62905,4.4773 -11.10118,6.00962 -20.16483,4.13522 -9.01792,-1.86495 -12.57303,-1.23594 -15.99417,2.82986 -2.58888,3.0767 -2.24638,3.81343 1.77286,3.81343 4.84286,0 12.93458,1.6401 19.4692,3.94619 5.71686,2.0175 15.75001,6.79297 18.79728,8.94692 l 1.72009,1.21585 2.43942,-2.05107 c 5.97528,-5.02403 12.58555,-12.02479 14.40645,-15.25751 3.80805,-6.76058 6.08472,-8.46349 15.86744,-11.86863 8.97404,-3.12366 13.56802,-5.55698 23.3595,-12.37297 4.57546,-3.18504 10.12819,-6.69002 12.33939,-7.78885 l 4.02037,-1.99786 -3.73433,-3.99201 c -2.05389,-2.19561 -4.55602,-5.40996 -5.5603,-7.143 -3.91194,-6.75064 -10.32425,-16.82383 -13.82596,-21.71936 -2.01815,-2.82148 -4.31668,-6.4623 -5.10782,-8.09072 l -1.43845,-2.96076 -2.45181,3.67162 c -1.49738,2.24235 -3.77779,4.55201 -5.85809,5.93325 -1.87346,1.24391 -5.20755,3.97568 -7.40911,6.07061 l -4.00282,3.80895 0.42127,3.1757 c 0.34005,2.56345 0.21035,3.35074 -0.67277,4.08367 -0.95958,0.79638 -1.20997,0.75365 -2.03736,-0.34773 -1.0607,-1.41193 -0.72561,-7.07038 0.56151,-9.48203 0.4029,-0.75489 3.80482,-4.55164 7.55982,-8.43722 8.69116,-8.99338 10.34613,-11.70418 9.98899,-16.36168 -0.14553,-1.89776 -0.46497,-3.94729 -0.70988,-4.5545 -0.41249,-1.02274 -0.58971,-1.02935 -2.40643,-0.0899 -1.07864,0.55777 -3.67158,1.16924 -5.76211,1.35881 -3.48095,0.31563 -3.78159,0.24239 -3.57084,-0.87001 0.17091,-0.90212 1.25324,-1.46163 4.20656,-2.17454 5.88315,-1.42015 6.12804,-1.82197 4.88229,-8.01087 -0.56544,-2.80917 -1.12234,-5.2135 -1.23755,-5.34297 -0.44368,-0.49857 -13.53311,6.60345 -16.2197,8.80044 -1.5561,1.27251 -3.1062,2.4983 -3.44467,2.72397 -0.366,0.24402 -0.19192,1.01488 0.42956,1.90218 0.57472,0.82053 1.04495,2.45571 1.04495,3.63373 0,1.85516 -0.19273,2.11449 -1.43983,1.93737 -1.03862,-0.14751 -1.49715,-0.70411 -1.64552,-1.9975 -0.4647,-4.05069 -7.22673,-3.5927 -15.23329,1.03174 -4.49355,2.5954 -4.55577,2.66743 -4.25313,4.92378 0.21581,1.60898 0.002,2.54309 -0.71912,3.14155 -1.28256,1.06443 -1.30875,2.2236 -0.0734,3.24885 1.15839,0.96138 0.68395,1.92562 -0.94749,1.92562 -1.48807,0 -2.16642,-1.96618 -1.99988,-5.79656 0.0919,-2.11327 -0.18889,-3.19753 -1.01908,-3.9355 -1.79922,-1.59934 -9.58599,-3.71856 -13.90117,-3.7833 -5.07246,-0.0761 -19.9482,3.47942 -24.86456,5.94298 -3.33285,1.67008 -3.60525,1.95454 -2.71968,2.84011 1.01446,1.01445 1.27759,3.22296 0.59572,4.99989 -0.60294,1.57123 -1.45713,1.21118 -2.89063,-1.21842 -1.66621,-2.82402 -4.91795,-3.81652 -10.41839,-3.17992 -6.04228,0.69931 -8.88925,1.79233 -14.60928,5.60885 -7.21783,4.81589 -13.04205,10.82129 -19.0131,19.60459 -6.08063,8.94449 -7.75096,10.59694 -12.16927,12.039 -2.92904,0.95599 -3.43964,1.36417 -3.59501,2.87391 -0.27978,2.71865 -2.56968,5.39833 -5.5559,6.50162 -3.66864,1.35543 -12.57087,2.37437 -14.01092,1.60369 -1.30536,-0.69861 -1.41799,-1.31029 -2.79697,-15.18938 -0.57071,-5.7441 -1.45947,-11.86421 -1.97502,-13.60026 -1.56679,-5.27594 -1.85571,-5.35686 -20.05503,-5.61695 -22.10788,-0.31595 -29.50978,0.85922 -40.63701,6.45175 -11.57426,5.8172 -19.47828,12.62162 -22.98351,19.78606 -4.14056,8.46298 -5.0341,22.2593 -2.0788,32.09661 5.32127,17.71295 14.14306,25.40023 29.14888,25.40023 7.36205,0 13.60519,-1.64558 21.75026,-5.73297 9.06133,-4.54718 12.81542,-5.41485 21.17004,-4.89291 3.69556,0.23086 7.51111,0.58996 8.479,0.79798 1.35002,0.29016 1.75979,0.13734 1.75979,-0.65626 0,-3.21301 6.72678,2.4775 9.41851,7.96757 0.7807,1.59232 2.09181,3.52677 2.91358,4.29878 l 1.49412,1.40366 0.80741,-2.23285 c 0.56662,-1.56694 1.20069,-2.23285 2.12609,-2.23285 1.25499,0 1.30356,0.27043 1.00577,5.59934 -0.35175,6.29435 1.05353,13.39892 3.40187,17.19862 1.77463,2.87142 9.12383,9.06503 12.74865,10.74406 2.51773,1.16622 4.04591,1.32849 12.15857,1.29105 6.6487,-0.0307 10.36004,-0.34813 13.09292,-1.11987 4.86594,-1.37411 5.4649,-1.3535 5.4649,0.18805 0,1.50944 -2.17504,3.04687 -5.8424,4.12972 l -2.67658,0.7903 3.87582,2.35443 c 3.06872,1.86415 4.9218,2.48668 8.89894,2.98954 9.46312,1.19648 19.98364,3.65741 24.86345,5.81598 3.19288,1.41237 7.37566,1.60572 19.24209,0.88947 8.34889,-0.50393 9.77223,-0.16904 13.89121,3.26837 3.93362,3.28273 9.56335,3.62311 14.92818,0.90256 4.06684,-2.06232 5.95341,-2.36791 7.16135,-1.15997 1.65453,1.65453 0.18806,4.08674 -2.20547,3.65787 -1.13512,-0.20339 -2.34401,0.069 -1.96928,0.44374 0.95289,0.95288 10.53921,1.38873 19.34096,0.87934 9.21412,-0.53324 32.92107,-4.40572 40.95517,-6.68993 1.75979,-0.50033 5.50335,-1.20625 8.31902,-1.56871 2.81567,-0.36246 9.43889,-1.24028 14.71827,-1.9507 5.27938,-0.71042 9.65173,-1.29329 9.71634,-1.29526 0.0646,-0.002 0.2086,-0.79549 0.31997,-1.76338 0.30539,-2.65411 2.31305,-2.06647 5.31264,1.55502 4.62878,5.58844 6.42942,7.1141 9.31266,7.89048 7.54602,2.03192 12.02747,2.66125 22.05288,3.09685 9.55785,0.41528 11.21972,0.65113 13.68719,1.94253 3.82116,1.99988 9.57287,3.16119 15.95855,3.22216 5.06733,0.0484 5.42032,-0.0408 7.19915,-1.81968 z M 604.28274,778.31355 c 0,-1.348 2.12063,-2.47475 5.74993,-3.0551 3.54516,-0.5669 5.76871,0.10993 5.76871,1.75594 0,1.16887 -0.2689,1.28843 -2.11773,0.94159 -1.21822,-0.22854 -3.46065,0.01 -5.27938,0.56178 -4.00968,1.21632 -4.12153,1.21078 -4.12153,-0.20421 z m 41.91506,-0.80012 c -5.26139,-0.90077 -8.78865,-2.13262 -9.53526,-3.33007 -1.22361,-1.96248 0.59827,-2.22474 6.83895,-0.98448 7.72449,1.53515 12.20434,1.01034 31.43464,-3.68256 6.63218,-1.61849 9.11761,-1.99206 9.75181,-1.46572 1.32795,1.1021 0.50148,1.69547 -3.46543,2.48805 -2.01762,0.40312 -6.704,1.70066 -10.41418,2.88341 -6.43871,2.05258 -18.73211,4.87235 -20.55154,4.71397 -0.47265,-0.0412 -2.2992,-0.32132 -4.05899,-0.6226 z m -54.74825,-6.24171 c -1.56473,-1.00085 -4.62931,-3.74589 -6.81018,-6.10009 -4.28218,-4.62253 -7.44796,-6.40838 -13.26706,-7.4841 -4.22646,-0.7813 -5.79494,-0.16461 -6.32525,2.48696 -0.3834,1.91697 -5.63882,7.45025 -8.50324,8.95282 -1.72179,0.90318 -6.97463,0.80765 -6.97463,-0.12685 0,-0.31427 1.98719,-1.61011 4.416,-2.87966 2.42879,-1.26955 4.99105,-3.08186 5.69389,-4.02737 1.16224,-1.5635 1.20401,-1.98302 0.46147,-4.63512 -1.09707,-3.91836 -0.31656,-4.84701 4.06527,-4.83687 3.75145,0.009 8.01601,1.04199 14.45487,3.50241 3.95787,1.51239 5.09992,2.36986 9.67147,7.26148 5.95501,6.37194 7.11957,7.14902 10.01071,6.67986 1.6387,-0.26592 2.10032,-0.11641 2.10032,0.68026 0,0.56161 -0.557,1.31921 -1.23778,1.68355 -2.1194,1.13426 -4.79812,0.73457 -7.75586,-1.15728 z M 499.1218,729.78987 c -0.72776,-0.72776 -0.47076,-3.39113 0.51028,-5.28826 1.04789,-2.02639 4.18839,-4.87636 6.01086,-5.45479 0.90827,-0.28827 1.28188,-1.21788 1.55569,-3.87075 0.41224,-3.99422 3.4,-10.11486 5.09495,-10.43734 1.53287,-0.29165 1.46456,1.85182 -0.19843,6.22726 -1.35721,3.57086 -1.31147,6.64794 0.15536,10.45211 0.50479,1.30918 0.47471,2.00625 -0.11739,2.71968 -1.07404,1.29414 -1.63398,1.21205 -3.2003,-0.4692 -1.23295,-1.32342 -1.45399,-1.35873 -3.00454,-0.47994 -0.96918,0.54927 -2.04039,2.01306 -2.54484,3.47742 -1.06655,3.09614 -2.92619,4.45927 -4.26164,3.12381 z m -48.82947,-16.53139 c -0.70494,-1.83702 0.33587,-2.73294 4.72293,-4.06546 6.68599,-2.03081 10.39913,-6.23572 12.74519,-14.43315 0.51296,-1.79235 2.39094,-7.77776 4.17328,-13.3009 2.97517,-9.21948 4.6952,-12.67525 6.3088,-12.67525 1.14091,0 0.60531,2.84033 -2.29277,12.15857 -1.58721,5.1034 -3.58559,12.546 -4.44083,16.53913 -0.85526,3.99311 -1.92742,7.71408 -2.38258,8.26882 -1.14944,1.40086 -8.62872,6.18405 -11.62447,7.43415 -3.15578,1.31687 -6.71861,1.35348 -7.20955,0.0741 z m 130.3132,-12.76109 c 0,-1.15453 1.00124,-2.33284 3.8353,-4.5136 4.92625,-3.79066 5.34506,-4.59639 4.34086,-8.351 -0.7254,-2.71221 -0.68745,-3.04887 0.43641,-3.87066 2.19251,-1.6032 2.46788,-1.33691 3.20517,3.09946 0.7674,4.61751 3.23946,2.62347 4.82857,-3.89488 0.83574,-3.42811 1.28187,-4.26416 2.27544,-4.26416 0.96206,0 1.27932,0.52227 1.43195,2.35726 0.45436,5.46234 -3.01517,11.51552 -7.10208,12.39081 -1.21098,0.25936 -2.8247,1.36509 -3.9347,2.69609 -1.97643,2.36996 -7.05906,5.91309 -8.48232,5.91309 -0.45903,0 -0.8346,-0.70308 -0.8346,-1.56241 z m -13.43842,-3.32659 c 0,-1.89524 0.43808,-2.70019 2.35079,-4.31949 6.15446,-5.21038 6.60816,-6.15993 6.60816,-13.83043 0,-3.03887 0.28169,-4.55491 0.94928,-5.10896 1.38778,-1.15176 2.24978,1.56072 1.85832,5.84762 -0.44687,4.89358 0.32348,5.71457 3.26027,3.47458 2.53094,-1.93044 3.531,-3.86903 3.531,-6.84474 0,-2.38883 1.73957,-5.8577 2.75721,-5.49816 0.78835,0.27852 0.84439,5.19188 0.10618,9.30861 -0.51998,2.8997 -4.74629,7.33287 -8.55115,8.96968 -1.70427,0.73316 -3.54549,2.01494 -4.0916,2.8484 -1.62154,2.47478 -6.88788,7.48219 -7.86909,7.48219 -0.61932,0 -0.90937,-0.74294 -0.90937,-2.3293 z m -70.23172,0.62565 c -1.26229,-0.50935 -0.94679,-2.01053 1.02988,-4.90025 3.32123,-4.85539 4.0544,-6.76129 3.61087,-9.38657 -0.49646,-2.9385 0.48248,-3.8365 2.3449,-2.15103 1.04746,0.94794 1.25078,1.75125 1.02813,4.06222 -0.34411,3.57162 -3.44907,10.63533 -5.22023,11.8759 -1.39916,0.98001 -1.54058,1.00531 -2.79355,0.49973 z m 127.50497,-22.88056 c -2.2559,-1.00694 -4.63018,-3.4754 -6.95978,-7.23585 -2.56906,-4.14699 -3.90291,-4.72889 -12.06965,-5.26548 -3.96411,-0.26046 -7.99888,-0.85172 -8.96614,-1.31391 -2.06076,-0.98471 -4.47409,-4.57459 -8.53,-12.68856 -1.61207,-3.22499 -3.54576,-6.29419 -4.29709,-6.82045 -0.75134,-0.52625 -2.74432,-1.13965 -4.42885,-1.36311 -3.34201,-0.44334 -4.12,-1.7571 -1.439,-2.42999 4.45542,-1.11824 10.30113,2.86034 13.72187,9.33909 3.01086,5.70245 5.57777,9.33085 7.48532,10.58073 1.13837,0.74589 4.17681,1.28003 9.95476,1.74997 l 8.31628,0.67641 2.43877,4.15951 c 5.54718,9.46111 6.33838,10.19898 8.33169,7.77004 1.29965,-1.58368 3.16103,-1.488 3.16103,0.16249 0,1.02731 -2.95276,3.60084 -4.08583,3.56107 -0.39248,-0.0138 -1.5775,-0.41066 -2.63338,-0.88196 z m -27.19679,-22.08384 c 0,-2.32012 2.97158,-3.88599 7.37453,-3.88599 4.9115,0 7.34064,-1.4539 6.14907,-3.68037 -0.39881,-0.74519 -0.72511,-2.25883 -0.72511,-3.36365 0,-2.96202 1.87808,-2.27404 3.81994,1.39931 1.28766,2.43582 1.4641,3.32389 0.95303,4.79691 -0.92901,2.67763 -4.19186,4.04524 -9.65403,4.04643 -3.27268,6.4e-4 -4.78613,0.27214 -5.35773,0.96088 -1.1192,1.34854 -2.5597,1.19462 -2.5597,-0.27352 z m 21.54413,-9.43201 c -0.23464,-0.23463 -0.42662,-0.95455 -0.42662,-1.59981 0,-0.83397 0.47656,-1.17319 1.64816,-1.17319 1.1885,0 2.83936,-1.20921 5.91931,-4.33573 4.84231,-4.91555 11.08249,-8.62658 12.3591,-7.34997 1.03719,1.03718 -0.59538,2.83236 -4.93788,5.42972 -1.91703,1.14662 -3.7745,2.88228 -4.47337,4.18 -0.65731,1.22056 -2.20715,2.90689 -3.44407,3.7474 -2.12411,1.44337 -5.70859,2.03763 -6.64463,1.10158 z m 256.18314,119.40221 c 11.69725,-2.52719 18.88123,-3.26153 36.4757,-3.7285 l 17.59793,-0.46707 6.82895,-2.32192 c 7.02749,-2.38942 14.07557,-5.62245 16.04835,-7.36154 1.65311,-1.45728 1.3825,-2.62977 -1.1605,-5.02813 -2.82905,-2.66814 -2.37131,-3.72509 1.38999,-3.20955 2.37216,0.32515 2.88379,0.18794 3.48448,-0.93447 0.94553,-1.76673 0.41788,-2.87847 -2.09267,-4.40913 -1.84542,-1.12514 -3.23094,-1.28185 -11.38015,-1.28708 -5.1034,-0.003 -10.28988,-0.28684 -11.52551,-0.63012 -1.23563,-0.34329 -4.52705,-2.06418 -7.31428,-3.82419 -2.78722,-1.76002 -7.24761,-4.08695 -9.91196,-5.17096 -9.01572,-3.66809 -12.50794,-5.65116 -18.11993,-10.28946 -8.77428,-7.25193 -8.48816,-6.19295 -8.45091,-31.27807 0.0328,-22.08022 0.25188,-24.30136 4.1344,-41.91506 0.69823,-3.16762 1.61337,-9.11065 2.03365,-13.20672 0.72159,-7.03274 0.64977,-8.40451 -1.29,-24.6371 -2.82745,-23.66111 -3.27186,-28.77063 -3.30398,-37.98725 -0.0417,-11.97814 -0.90632,-18.75909 -2.80481,-21.99863 -2.19825,-3.75103 -6.84609,-7.86957 -11.16659,-9.89495 -3.14409,-1.47389 -4.44787,-1.70058 -9.71095,-1.68848 -5.14608,0.0118 -7.84746,0.47406 -17.59793,3.01115 -6.33525,1.64845 -15.07609,3.74688 -19.42408,4.66318 -12.5487,2.64451 -19.36438,5.49472 -37.06295,15.49911 l -7.85275,4.43889 2.02811,2.50492 c 6.29559,7.77571 15.85121,24.25423 20.48976,35.33429 l 0.88457,2.11298 12.55488,-12.11993 c 12.50491,-12.0717 17.76186,-16.05516 23.73296,-17.98371 2.58962,-0.83639 4.96946,-0.43121 4.96946,0.84608 0,0.43951 -1.78413,1.64396 -3.96473,2.67656 -7.77247,3.68056 -11.69274,6.76758 -22.27217,17.53819 -5.80732,5.91227 -11.26589,11.21109 -12.13015,11.77515 l -1.5714,1.02559 2.4865,7.36672 c 1.36757,4.05169 2.57737,7.36671 2.68845,7.36671 0.66776,0 29.82037,-21.15371 32.11446,-23.30288 1.53467,-1.43774 5.06617,-5.54238 7.84778,-9.12143 8.44653,-10.86803 17.1709,-18.09178 19.50777,-16.15236 1.94875,1.61732 0.69941,4.34184 -2.43067,5.30075 -0.59478,0.18221 -3.89374,3.87456 -7.33101,8.20521 -6.4045,8.06909 -11.88833,13.91522 -16.71742,17.82192 -2.5611,2.07192 -2.81278,2.5718 -4.0127,7.96989 -3.64338,16.39044 -1.6403,31.4335 6.53923,49.10957 2.23555,4.83104 3.43436,8.44527 4.03292,12.15857 1.535,9.52286 3.03048,28.12881 3.07361,38.24013 0.0415,9.7402 -0.001,10.05668 -2.36587,17.57266 -2.86302,9.0994 -4.21733,15.76813 -4.2077,20.71913 0.0124,6.37964 0.60269,8.25071 3.68422,11.67812 5.75026,6.39568 10.87376,7.53493 22.54564,5.01322 z m 64.63238,-19.38139 c 0,-1.24569 1.37608,-2.24891 3.73071,-2.71984 1.5412,-0.30824 2.10547,-0.15013 2.42369,0.67914 0.56174,1.46386 -0.21842,2.03635 -3.43472,2.52045 -2.09105,0.31473 -2.71968,0.20383 -2.71968,-0.47975 z m -67.18009,-3.62045 c -2.98645,-0.70228 -6.83024,-4.87592 -7.42874,-8.0662 -0.33985,-1.81156 -0.0993,-3.47783 0.91072,-6.3092 0.7549,-2.11613 1.66446,-5.40275 2.02125,-7.30362 0.63971,-3.40813 1.54486,-5.18287 2.64336,-5.18287 0.98008,0 0.60778,5.4637 -0.76664,11.25073 -1.31231,5.52555 -1.31349,5.6123 -0.0984,7.24968 0.67637,0.91147 2.78371,2.53027 4.68296,3.59732 3.46819,1.94853 4.65211,3.83471 3.04591,4.85261 -1.01191,0.64127 -1.9799,0.62418 -5.01039,-0.0884 z m -15.8244,-88.73374 c -0.26621,-0.69372 0.0116,-1.32212 0.77798,-1.7598 3.04696,-1.74013 6.88573,-5.99081 8.63474,-9.56128 2.24448,-4.58193 3.83045,-13.7784 3.83622,-22.24493 0.003,-4.41548 0.24136,-5.82185 1.18395,-6.98589 0.80459,-0.99363 1.54491,-1.3175 2.32626,-1.01767 1.05283,0.40401 1.11699,1.2068 0.7885,9.86556 -0.54507,14.36757 -3.58347,25.06607 -8.52114,30.00373 -2.46603,2.46604 -3.10802,2.77929 -5.69587,2.77929 -2.14531,0 -3.02608,-0.28534 -3.33064,-1.07901 z m 24.91179,-88.94076 c -0.45069,-0.1811 -1.51641,-1.70467 -2.36825,-3.38571 -2.2075,-4.35629 -5.10601,-6.64625 -7.84903,-6.20111 -2.41033,0.39114 -3.436,-0.82958 -2.07496,-2.46953 1.15602,-1.39292 2.78084,-1.17815 6.92906,0.91586 4.0373,2.03802 8.42237,6.37361 8.42237,8.32733 0,0.97738 -1.62279,3.4152 -2.12547,3.19297 -0.0628,-0.0278 -0.48302,-0.1987 -0.93372,-0.37981 z M 652.59705,735.24524 c 2.46371,-0.71055 8.51099,-2.55124 13.43841,-4.09043 18.64773,-5.82503 36.46073,-10.48225 40.46846,-10.5805 1.74604,-0.0428 1.74962,-0.0514 0.30869,-0.74577 -2.06376,-0.99439 -1.41853,-2.05566 1.39347,-2.29194 1.93633,-0.16271 3.58525,0.47301 8.58951,3.31157 8.26574,4.68855 10.29394,5.16996 18.99165,4.50782 10.07896,-0.7673 13.61193,-0.57632 17.59793,0.95129 4.35074,1.6674 5.5643,1.69223 6.06201,0.12408 0.60685,-1.912 -0.23719,-4.23169 -2.23677,-6.14741 -1.72404,-1.65173 -2.19567,-1.75899 -8.10726,-1.84366 -5.77008,-0.0827 -6.49627,-0.23772 -8.99642,-1.92099 -1.57474,-1.06022 -2.71968,-2.33408 -2.71968,-3.02589 0,-1.54257 0.99127,-1.51471 3.02501,0.085 2.13258,1.67748 3.39518,1.61507 7.29394,-0.36058 3.14734,-1.59488 3.41468,-1.62265 9.62818,-1.00013 6.35453,0.63664 6.40834,0.65654 9.43939,3.49174 3.65882,3.4224 6.36369,4.90814 8.93552,4.90814 2.68116,0 5.19284,-1.07113 5.19284,-2.21455 0,-3.20482 -23.91354,-16.36851 -31.99623,-17.61295 -4.88121,-0.75154 -19.90339,-0.77923 -24.95706,-0.046 -1.93577,0.28085 -15.8386,0.28704 -30.89516,0.0138 l -27.37558,-0.49689 -3.7213,1.85956 c -2.04672,1.02276 -5.30845,2.40562 -7.24828,3.07302 -6.45995,2.22254 -9.92344,4.97288 -16.20011,12.86437 -2.37947,2.99165 -6.6261,7.78524 -9.43695,10.65243 -5.10148,5.20373 -5.10861,5.21578 -3.97558,6.71921 1.12549,1.49344 1.22735,1.50446 12.07848,1.30687 8.62941,-0.15714 11.8906,-0.47245 15.42289,-1.49118 z m 182.3785,-10.17063 c 13.68223,-4.7232 13.04198,-4.38887 13.91828,-7.26797 0.98513,-3.23666 0.91239,-23.56935 -0.12669,-35.41473 -0.90667,-10.336 -2.62798,-17.32375 -6.29512,-25.55533 l -2.89943,-6.50833 -2.35424,1.89192 c -3.14483,2.52725 -6.24989,3.01552 -8.33686,1.31095 -1.87903,-1.53471 -1.41541,-2.2475 2.26998,-3.48996 2.08703,-0.7036 2.8185,-1.42508 4.07047,-4.01489 1.43861,-2.97588 1.48533,-3.43279 0.81367,-7.95776 -1.30588,-8.79787 -1.52542,-19.1059 -0.53155,-24.95823 0.50806,-2.99165 0.84263,-5.52967 0.74351,-5.64004 -0.0991,-0.11039 -4.05661,2.62529 -8.7944,6.07928 -9.56587,6.97379 -10.07554,7.68883 -10.07554,14.13549 0,2.97728 0.62801,5.67056 2.60067,11.15325 3.30057,9.17338 4.43916,15.02623 4.43593,22.8026 -0.004,9.66318 -2.32627,21.86178 -7.7223,40.56472 -3.46195,11.99928 -3.65451,13.77411 -1.88992,17.41926 3.90129,8.05898 8.78969,9.37956 20.17354,5.44977 z m -3.31063,-18.83565 c -3.14252,-2.22215 -3.30645,-7.28451 -0.43552,-13.44962 0.82165,-1.76444 1.49673,-3.94493 1.50017,-4.84555 0.008,-2.03669 1.48208,-4.15178 2.46887,-3.54191 1.30287,0.80522 0.82456,6.2443 -0.86906,9.88239 -0.87646,1.88273 -1.59356,3.94958 -1.59356,4.59301 0,1.33082 2.2129,3.25846 5.12577,4.46501 1.45709,0.60355 1.92778,1.17498 1.78598,2.16824 -0.16226,1.13658 -0.69579,1.37727 -3.39217,1.53032 -2.10092,0.11926 -3.67721,-0.15609 -4.59048,-0.80189 z m -64.20141,18.64665 c 0,-0.43059 -5.84686,-4.39376 -6.1035,-4.13712 -0.6474,0.6474 1.86863,3.10116 3.73246,3.64009 1.12809,0.3262 2.12307,0.61905 2.21106,0.65079 0.088,0.0317 0.15998,-0.0374 0.15998,-0.15376 z m 9.59887,-0.98411 c 0,-0.30562 -1.1722,-0.71289 -2.60488,-0.90505 -1.62275,-0.21766 -4.29921,-1.48616 -7.09873,-3.36444 -5.37766,-3.60802 -9.00822,-4.80334 -14.23529,-4.68683 l -3.89782,0.0869 4.51551,0.4768 c 4.77529,0.50423 8.04948,1.874 13.02668,5.44976 1.66606,1.19695 3.72801,2.45553 4.58211,2.79684 1.96392,0.78481 5.71242,0.88064 5.71242,0.14603 z M 908.723,704.24723 c 2.53668,-0.39616 5.28324,-4.06207 5.28324,-7.05168 0,-1.8226 -0.22098,-2.04398 -2.39972,-2.40411 -1.31984,-0.21815 -4.17595,-0.39982 -6.3469,-0.40369 -4.7682,-0.009 -5.97165,-0.40815 -5.97165,-1.98309 0,-1.34631 1.26061,-1.76441 6.07929,-2.01624 l 3.19962,-0.16722 -1.74535,-1.184 c -2.35278,-1.59608 -5.69437,-2.30201 -10.98339,-2.32032 l -4.40972,-0.0153 0.45585,8.38566 c 0.25072,4.61212 0.61967,8.81259 0.8199,9.33438 0.30378,0.79162 1.48823,0.88256 7.1535,0.54925 3.73419,-0.21971 7.72359,-0.54535 8.86533,-0.72367 z M 703.37612,675.11325 c 1.47283,-0.57547 1.42449,-0.67393 -2.26932,-4.62262 -4.53759,-4.8507 -9.2789,-11.78204 -9.01339,-13.1767 0.3678,-1.93199 2.82844,-1.53188 4.40077,0.71557 2.65829,3.79971 8.51293,10.19215 11.57728,12.64075 l 3.0006,2.39766 9.15797,-1.17401 c 12.21056,-1.56534 19.43328,-3.26639 24.31717,-5.72701 5.31338,-2.67702 26.88066,-16.28694 32.71978,-20.64766 6.89324,-5.14794 9.31232,-6.61369 13.87631,-8.40781 7.73386,-3.04022 17.25458,-8.24312 17.26535,-9.4352 0.0264,-2.92332 -9.83157,-29.87304 -13.77293,-37.65244 -3.60282,-7.11118 -19.13715,-29.98683 -20.38222,-30.01456 -0.31303,-0.007 -2.04082,0.89579 -3.83954,2.00615 -1.79872,1.11035 -8.02184,4.44848 -13.82916,7.41805 -11.52574,5.89369 -12.24204,6.38414 -14.48933,9.92084 -0.96919,1.52525 -2.01381,2.39971 -2.86667,2.39971 -1.14578,0 -1.3052,-0.31381 -1.09109,-2.14786 l 0.25076,-2.14786 -4.99781,0.17482 c -2.74879,0.0962 -6.1656,0.37212 -7.59292,0.61326 -2.45731,0.41516 -2.58381,0.3587 -2.38209,-1.06316 0.23578,-1.66195 1.6424,-2.1248 12.33614,-4.05927 7.81637,-1.41396 13.72909,-4.02377 21.21416,-9.36371 3.47954,-2.48235 7.12096,-4.98269 8.09204,-5.55633 0.97108,-0.57363 1.7656,-1.41038 1.7656,-1.85944 0,-1.34347 -7.78059,-8.75328 -10.87889,-10.36044 l -2.87984,-1.49385 -9.82043,5.82853 c -8.45592,5.01869 -15.19938,9.73529 -22.7271,15.8961 l -1.83151,1.49893 2.68782,-0.4298 c 2.56508,-0.41017 2.67794,-0.3599 2.47144,1.10084 -0.31887,2.25549 -4.82466,4.18961 -12.37496,5.31198 -11.63061,1.72891 -25.00282,6.43334 -26.56067,9.3442 -1.11338,2.08037 1.31249,11.89064 5.1654,20.88904 3.23309,7.55082 5.71712,14.88547 5.71712,16.88113 0,1.75813 -1.77352,3.17792 -3.96968,3.17792 -2.86016,0 -5.91331,-3.58421 -9.57335,-11.23852 -3.64712,-7.62728 -4.4208,-10.51892 -2.81445,-10.51892 0.73998,0 2.00284,1.96614 4.00751,6.23927 3.12198,6.6548 4.35474,8.479 5.72994,8.479 1.61332,0 0.87764,-3.46953 -2.10318,-9.91883 -1.62672,-3.51959 -3.87908,-9.06135 -5.00522,-12.31503 l -2.04755,-5.91578 -2.51079,2.1201 c -1.38093,1.16605 -3.87862,3.05008 -5.55043,4.18673 -2.46703,1.67733 -3.03964,2.42064 -3.03964,3.94588 0,1.03358 2.11642,7.13903 4.70315,13.56765 8.10832,20.15107 8.99589,23.52702 6.18546,23.52702 -1.59565,0 -2.39986,-1.18661 -3.18815,-4.70411 -0.37617,-1.67857 -1.64898,-4.97841 -2.82846,-7.33296 -1.17947,-2.35456 -2.35666,-5.00093 -2.61597,-5.88082 -0.25932,-0.8799 -1.73691,-4.53531 -3.28353,-8.12313 -1.78841,-4.14871 -2.81204,-7.46817 -2.81204,-9.11893 0,-1.42758 -0.10882,-2.59561 -0.24182,-2.59561 -0.13299,0 -1.2656,0.42777 -2.5169,0.9506 -4.54742,1.90003 -5.16224,4.66145 -2.95907,13.29041 2.64541,10.36103 6.37119,18.64957 15.05539,33.49278 13.46315,23.01153 21.17582,32.0256 25.84408,30.20492 0.88769,-0.34621 2.29117,-0.89407 3.11886,-1.21747 z m 6.83805,-12.65343 c -0.67135,-2.11525 2.13012,-8.19745 5.44776,-11.82747 4.36908,-4.78048 8.25194,-6.41154 15.32588,-6.43788 4.55217,-0.017 6.08855,0.26451 9.4196,1.72574 5.52885,2.42532 8.60336,2.30963 14.05113,-0.52875 6.00665,-3.12957 12.76579,-8.41274 20.23199,-15.81399 7.24446,-7.18143 9.57024,-8.56268 17.09011,-10.14953 6.62416,-1.39783 9.60925,-1.47973 11.2122,-0.30762 2.05743,1.50443 0.18151,2.94891 -3.82971,2.94891 -1.83675,0 -4.75314,0.42883 -6.48088,0.95296 -1.72774,0.52412 -3.9097,0.95607 -4.8488,0.95989 -2.67997,0.0109 -3.64331,0.60745 -5.61989,3.4803 -6.04159,8.78116 -24.28575,22.30101 -32.9545,24.42097 -1.77816,0.43485 -6.606,2.2736 -10.72852,4.08611 -8.46716,3.72267 -12.16377,4.15153 -12.54665,1.4556 -0.17993,-1.26687 0.0753,-1.43983 2.12447,-1.43983 2.2097,0 12.37022,-4.2698 12.44486,-5.22975 0.072,-0.92654 -4.96916,-2.06157 -8.78404,-1.97775 -9.04689,0.19879 -15.10942,3.72301 -17.14598,9.96719 -0.59549,1.82577 -1.36782,3.67955 -1.71631,4.1195 -0.92998,1.17407 -2.25485,0.975 -2.69272,-0.4046 z m 24.96292,-54.62892 c -2.24725,-5.40438 -1.67943,-16.18505 1.11693,-21.20607 1.77935,-3.19491 3.40761,-3.95714 2.72302,-1.27472 -1.48385,5.81424 -2.24161,10.71369 -1.89458,12.24995 0.21766,0.96351 0.94507,3.66446 1.61649,6.00211 1.3842,4.81929 1.11673,6.30849 -1.13305,6.30849 -1.1605,0 -1.78712,-0.53656 -2.42881,-2.07976 z m 60.76306,-62.86223 c 10.20611,-4.95324 15.14759,-6.59015 33.84645,-11.21195 l 14.6487,-3.62072 -2.01019,-1.43138 c -2.21476,-1.57705 -2.65698,-3.26401 -0.85563,-3.26401 0.63501,0 2.52609,0.8698 4.20241,1.93289 2.78425,1.76571 3.26551,1.87427 5.56464,1.25518 1.38424,-0.37274 2.5168,-0.93538 2.5168,-1.25031 0,-0.31493 -1.4014,-2.01137 -3.11423,-3.76986 -3.58014,-3.67559 -5.61826,-4.30055 -12.16354,-3.72976 -7.97774,0.69572 -31.69989,5.4586 -42.27878,8.48865 -7.01169,2.00832 -11.73033,4.2525 -22.94612,10.91314 l -9.18235,5.45305 3.12865,3.31198 c 1.72075,1.82159 3.42374,3.84136 3.78441,4.48837 0.59654,1.07012 0.90543,1.1016 3.41924,0.34844 2.58909,-0.77571 2.82075,-0.74163 3.67183,0.54017 0.9045,1.36223 0.92673,1.35569 5.17855,-1.52419 2.34858,-1.59076 8.0137,-4.70912 12.58916,-6.92969 z"
       id="path2994"
       inkscape:connector-curvature="0" />
  </g>
</svg>
