<?xml version="1.0" encoding="UTF-8" standalone="no"?>
<!-- Created with Inkscape (http://www.inkscape.org/) -->

<svg
   xmlns:dc="http://purl.org/dc/elements/1.1/"
   xmlns:cc="http://creativecommons.org/ns#"
   xmlns:rdf="http://www.w3.org/1999/02/22-rdf-syntax-ns#"
   xmlns:svg="http://www.w3.org/2000/svg"
   xmlns="http://www.w3.org/2000/svg"
   xmlns:sodipodi="http://sodipodi.sourceforge.net/DTD/sodipodi-0.dtd"
   xmlns:inkscape="http://www.inkscape.org/namespaces/inkscape"
   width="871.89874"
   height="896.76581"
   id="svg2"
   version="1.1"
   inkscape:version="0.48.3.1 r9886"
   sodipodi:docname="Cable-internal-rotation-1.svg">
  <defs
     id="defs4" />
  <sodipodi:namedview
     id="base"
     pagecolor="#ffffff"
     bordercolor="#666666"
     borderopacity="1.0"
     inkscape:pageopacity="0.0"
     inkscape:pageshadow="2"
     inkscape:zoom="0.7"
     inkscape:cx="1163.0582"
     inkscape:cy="417.99401"
     inkscape:document-units="px"
     inkscape:current-layer="layer1"
     showgrid="false"
     fit-margin-top="0"
     fit-margin-left="0"
     fit-margin-right="0"
     fit-margin-bottom="0"
     inkscape:window-width="1855"
     inkscape:window-height="1056"
     inkscape:window-x="65"
     inkscape:window-y="24"
     inkscape:window-maximized="1" />
  <metadata
     id="metadata7">
    <rdf:RDF>
      <cc:Work
         rdf:about="">
        <dc:format>image/svg+xml</dc:format>
        <dc:type
           rdf:resource="http://purl.org/dc/dcmitype/StillImage" />
        <dc:title></dc:title>
      </cc:Work>
    </rdf:RDF>
  </metadata>
  <g
     inkscape:label="Ebene 1"
     inkscape:groupmode="layer"
     id="layer1"
     transform="translate(78.613161,-77.040245)">
    <path
       style="fill:#000000"
       d="m 218.63131,972.50237 c -5.4927,-1.7175 -10.7776,-5.0234 -16.42,-10.2713 l -4.5957,-4.2744 -5.9043,2.3811 c -9.1592,3.6939 -16.2579,4.9035 -26.033,4.4362 -14.274,-0.6825 -20.1407,-4.5781 -35.3538,-23.4758 -7.7639,-9.6443 -8.5318,-13.7299 -7.5697,-40.273 l 0.7142,-19.7041 -4.854,-9.4396 c -2.66979,-5.1918 -8.94659,-15.7532 -13.94849,-23.4698 -5.0019,-7.7166 -10.058304,-15.9195 -11.236304,-18.2287 -2.517,-4.9338 -4.6656,-13.9698 -5.6334,-23.6919 -0.8876,-8.9169 -1.7262,-10.9973 -6.5369,-16.2164 -3.8669,-4.195 -3.9528,-4.4501 -3.9528,-11.7454 0,-8.1156 1.0348,-11.9147 4.1516,-15.2423 1.11,-1.1851 2.4566,-4.1101 2.9924,-6.5 1.2341,-5.5044 5.7979,-12.6566 11.1764,-17.5151 2.298804,-2.0765 5.306004,-5.4522 6.682704,-7.5014 3.1174,-4.6406 9.5356,-9.5783 13.4969,-10.3836 2.1467,-0.4364 3.76919,-1.8631 5.70429,-5.0158 2.8295,-4.61 9.6891,-10.1039 15.1117,-12.1032 1.7512,-0.6456 6.5295,-1.2081 10.6183,-1.25 14.5294,-0.1486 20.8186,6.1576 19.8361,19.8898 -0.5708,7.9767 0.6221,11.5124 5.8279,17.2746 5.5719,6.1674 14.2509,20.0604 18.1604,29.0704 2.6765,6.1684 3.7541,10.3539 4.3667,16.9616 0.998,10.7653 3.7533,17.8782 11.5282,29.7608 5.2853,8.0778 8.5464,11.5361 6.9464,7.3665 -2.2368,-5.8288 -2.8123,-16.0312 -1.7215,-30.516 0.9866,-13.1026 1.4913,-15.8389 3.5775,-19.3987 1.3358,-2.2795 3.1626,-4.7535 4.0595,-5.4979 3.63,-3.0126 5.4726,-8.6243 5.3281,-16.227 -0.1976,-10.3948 2.0564,-16.458 8.8436,-23.7889 8.9095,-9.6234 22.7388,-15.1085 30.249,-11.9977 2.6103,1.0812 3.3405,0.9657 6.0392,-0.956 4.1232,-2.936 6.8691,-8.6362 7.5597,-15.6935 1.0375,-10.6003 1.4653,-11.9645 5.075,-16.1816 l 3.5805,-4.183 -1.0953,-8.1387 c -3.3671,-25.0195 0.2538,-36.76944 17.0475,-55.32073 13.6535,-15.08239 14.1327,-15.81844 15.0029,-23.04634 0.421,-3.49762 1.6768,-8.1454 2.7905,-10.32842 4.7624,-9.33524 19.5724,-22.3985 41.5432,-36.64363 10.8138,-7.01135 24.2547,-14.48161 26.056,-14.48161 0.3835,0 3.2792,-2.39037 6.4349,-5.31194 3.1556,-2.92157 8.2476,-6.40907 11.3155,-7.75 l 5.578,-2.43806 1.0681,-6.08191 c 0.5875,-3.34506 1.0681,-7.24948 1.0681,-8.6765 0,-1.42702 0.9067,-7.19443 2.0148,-12.81647 2.2998,-11.66792 1.9674,-16.99515 -1.6659,-26.69795 -1.2919,-3.45005 -2.3489,-7.16255 -2.3489,-8.25 0,-2.03767 -1.5744,-2.75065 -2.1666,-0.98115 -0.4221,1.26106 -11.6107,14.50527 -18.8334,22.29345 -3.8133,4.11186 -7.8,7.09138 -13,9.71565 -7.5066,3.7884 -18.9314,14.17419 -21.995,19.99488 -2.7386,5.20305 -8.0911,10.68974 -12.713,13.03178 -4.3363,2.19731 -6.1232,2.44279 -18.792,2.58164 -12.0869,0.13247 -15.5714,0.56783 -25.5,3.18597 -6.325,1.6679 -16.225,3.58219 -22,4.25398 -12.6071,1.46655 -32.0096,0.70518 -40.5,-1.58926 -18.8755,-5.10091 -20.8337,-5.40739 -38.831,-6.0775 l -18.2731,-0.68038 -10.4479,3.75791 -10.448,3.75791 -17.5,-0.54529 -17.5,-0.54528 -3,4.65929 c -6.08589,9.45203 -16.14899,12.85228 -35.131894,11.8708 -29.0887,-1.504 -46.5913,-8.75665 -63.4693,-26.30007 -6.8684,-7.13919 -12.9534004,-17.95808 -16.5142999,-29.3615 -1.6619,-5.32212 -1.9344,-5.60513 -8.4261,-8.75049 -5.6079,-2.7172 -6.8070001,-3.74261 -7.3085001,-6.25 -0.4488,-2.24418 -1.1727,-3.0185 -2.8749,-3.07492 -1.2512,-0.0415 -16.225,-1.50397 -33.275,-3.25 l -30.99996,-3.17459 -0.30939,-3.19677 c -0.2992,-3.09146 -0.20038,-3.18151 3,-2.73366 1.82017,0.2547 16.76967,1.82704 33.22115,3.49409 31.9165,3.23413 31.5381,3.25544 31.5729,-1.77848 0.018,-2.58451 1.9854001,-3.80668 9.0311,-5.6098 l 5.1210001,-1.31055 2.3265,-6.65818 c 2.9542995,-8.45469 9.7570999,-18.00538 18.0314999,-25.31501 19.4745,-17.20391 36.5349,-23.09918 64.0052,-22.11712 8.8177,0.31524 15.911704,1.1023 19.164304,2.12626 6.4937,2.04431 13.25189,8.66306 16.49369,16.15352 l 2.342,5.41157 5.0664,0.0171 c 7.0113,0.0236 16.1627,1.83822 20.5447,4.07375 5.1199,2.61196 10.5571,9.32349 17.7009,21.84954 3.8903,6.82143 7.0889,11.23742 8.8034,12.15405 3.9222,2.09697 18.9783,1.58411 28.8846,-0.9839 4.6099,-1.195 13.3619,-4.82683 20.6526,-8.57026 20.5687,-10.5609 44.3085,-17.34922 61.3871,-17.55343 14.0113,-0.16754 18.3998,-0.93063 20.0775,-3.49112 0.9413,-1.43665 1.8223,-6.52913 2.3577,-13.62864 1.0491,-13.91027 3.4365,-20.73293 12.1961,-34.85365 6.6911,-10.78631 16.0378,-21.00727 26.2743,-28.73187 13.6231,-10.28029 15.9545,-14.11143 16.8854,-27.7474 0.6421,-9.40612 4.6801,-24.75719 8.4356,-32.06927 3.3201,-6.46437 10.0214,-14.34011 14.7571,-17.34342 5.6262,-3.56801 29.7942,-10.8965 39.5005,-11.97775 8.9253,-0.99426 13.777,-3.27909 21.6423,-10.19226 3.2086,-2.82019 7.8588,-6.50322 10.3338,-8.18451 2.475,-1.68129 4.6588,-3.18023 4.8528,-3.33096 0.8416,-0.65381 -4.403,-14.72057 -8.9116,-23.90183 -7.0381,-14.33274 -7.9417,-18.70585 -9.1253,-44.1673 -0.9003,-19.36709 -0.8228,-23.19233 0.6137,-30.28182 2.2051,-10.88286 6.8823,-23.36122 11.2232,-29.94291 4.5369,-6.87889 19.3652,-21.608861 26.4177,-26.242491 10.2523,-6.73605 13.1947,-7.36552 34.4295,-7.36552 16.9823,0 19.8788,0.25129 27.2749,2.36625 16.0767,4.59727 24.5582,12.64993 32.1151,30.491521 9.3594,22.09731 10.7108,32.31857 8.0177,60.64223 -1.0721,11.275 -2.3303,23.425 -2.7959,27 -1.0694,8.20898 0.05,16.3594 3.8956,28.36445 l 3.028,9.45284 9.7628,6.49933 c 5.3695,3.57464 16.4198,12.27825 24.5562,19.34136 24.5403,21.30304 27.0546,23.14897 32.418,23.80034 14.8281,1.80084 24.8548,4.60739 36.038,10.08732 14.1352,6.92644 18.0131,10.69348 28.4546,27.64063 10.14,16.45787 13.7329,24.4429 13.7426,30.54177 0.029,18.2384 3.1015,26.84903 14.5802,40.86114 3.5643,4.35095 8.1004,11.15682 10.0803,15.12415 3.2878,6.58808 3.8032,8.84174 5.9459,26 3.4789,27.85889 3.363,27.45752 10.90918,37.78667 2.8127,3.85 5.508,7.66087 5.9895,8.4686 0.4816,0.80773 1.2118,6.20773 1.6227,12 0.411,5.79227 1.9395,15.4814 3.3968,21.5314 3.5612,14.78417 4.3238,30.50732 1.996,41.15238 -0.9438,4.31619 -5.3029,18.64762 -9.6867,31.84762 -8.5043,25.60668 -10.5008,33.69306 -14.24138,57.68193 -2.1159,13.5698 -2.2224,15.6369 -0.9861,19.1411 2.7039,7.6635 0.8994,37.3534 -2.9492,48.5239 -0.7837,2.2747 -3.2071,7.1772 -5.3853,10.8945 -2.1782,3.7172 -6.1198,10.5836 -8.759,15.2586 -6.9431,12.2989 -16.8374,27.0355 -20.4573,30.4692 -2.73,2.5896 -4.0212,3.0195 -10.0997,3.363 -4.9903,0.282 -7.6076,-0.023 -9.2165,-1.0737 -1.4236,-0.9298 -2.9798,-1.1802 -4.247,-0.6833 -3.171,1.2434 -7.9548,1.0439 -9.9498,-0.4149 -1.1698,-0.8554 -3.5287,-1.1766 -6.5255,-0.8887 -3.1437,0.3021 -5.7331,-0.087 -7.8421,-1.1772 -3.1305,-1.6189 -6.1826,-6.0838 -6.1826,-9.0448 0,-0.9076 -0.87,-1.5496 -2.1,-1.5496 -3.0121,0 -8.5062,-5.918 -9.7913,-10.547 -0.6036,-2.1742 -1.0918,-6.203 -1.0848,-8.953 0.012,-4.6841 2.0635,-20.9705 3.5586,-28.25 0.6303,-3.0685 0.5068,-3.25 -2.2107,-3.25 -1.685,0 -4.919,1.4509 -7.801,3.5 -4.3295,3.0782 -5.6548,3.4993 -10.9968,3.4944 -7.657,-0.01 -13.1486,-1.4923 -17.4091,-4.7085 -4.6429,-3.5048 -7.1567,-8.042 -7.1611,-12.9252 -0.01,-6.1165 2.2292,-8.2136 9.4962,-8.9112 8.5145,-0.8174 10.1468,-1.2391 12.0112,-3.1035 1.1415,-1.1416 5.0973,-2.0423 12.8199,-2.9191 6.1429,-0.6974 11.2612,-1.3038 11.374,-1.3475 0.1128,-0.044 2.9319,-3.6616 6.2648,-8.0398 6.8609,-9.0129 9.6246,-11.3343 19.5301,-16.4044 9.1011,-4.6584 9.7588,-5.2338 12.7368,-11.1436 4.421,-8.77351 7.6158,-19.03069 10.3393,-33.19472 2.9397,-15.28873 2.7782,-17.91265 -2.1162,-34.37854 -3.2982,-11.09606 -4.5076,-20.49034 -4.5412,-35.27578 -0.025,-11.1118 0.3631,-14.53327 2.5133,-22.14259 3.1196,-11.03981 3.1271,-11.75753 0.1877,-18.06998 -1.8914,-4.06183 -4.0271,-6.31792 -10.7402,-11.34581 -11.2601,-8.43329 -17.9204,-16.08742 -25.9393,-29.8098 -2.6923,-4.60732 -3.938,-5.95693 -4.647,-5.03457 -0.5327,0.69309 -4.0791,6.78998 -7.8808,13.54865 -3.8018,6.75867 -9.0668,15.08367 -11.7,18.5 -12.4668,16.17445 -13.6321,18.47268 -17.6861,34.88061 -4.9278,19.94393 -9.1913,44.23458 -9.3397,53.21009 -0.066,4.02609 0.8995,12.07505 2.2228,18.52027 1.7573,8.55919 2.1849,13.04403 1.7161,18 -0.3433,3.6303 -1.0704,12.29385 -1.6157,19.25234 -1.3311,16.98573 -4.4929,32.98883 -8.027,40.62763 -4.482,9.6876 -18.1287,30.7523 -27.0651,41.777 -4.433,5.469 -9.7963,12.244 -11.9185,15.0556 -10.2295,13.553 -28.5398,23.3209 -43.8141,23.3732 -3.2654,0.011 -6.6706,1.2736 -14,5.1905 -5.3268,2.8466 -11.4851,6.3851 -13.6851,7.8632 -6.5578,4.4058 -11.9082,6.8061 -20.1768,9.0514 -11.3324,3.0773 -17.8845,7.4688 -27.9075,18.7049 -9.5967,10.7582 -14.7273,19.937 -22.7528,40.7061 -6.3426,16.414 -10.6361,23.3817 -21.1629,34.344 -20.214,21.0506 -49.9731,40.8026 -97.4467,64.6783 -15.2324,7.6608 -20.2955,10.7129 -23.3635,14.0841 -3.1741,3.4877 -4.796,4.4339 -8.5533,4.9903 -7.257,1.0744 -11.7452,2.9798 -22.1137,9.3879 -11.7946,7.2895 -15.2666,8.7744 -24.7642,10.5916 -8.9931,1.7207 -14.3917,1.7161 -19.9344,-0.017 z m 32.5182,-11.0923 c 5.1382,-2.4592 11.7117,-6.4956 14.6078,-8.9698 4.3093,-3.6816 5.982,-4.4984 9.2113,-4.4984 5.6895,0 13.3578,-4.2082 18.2582,-10.0198 3.8108,-4.5193 8.0803,-6.6136 8.0803,-3.9634 0,1.2 7.3487,-2.3746 18.5,-8.9991 4.4,-2.6138 16.325,-9.1663 26.5,-14.5611 24.3406,-12.9054 26.1358,-13.9957 39.8179,-24.183 15.3351,-11.4181 30.6583,-26.6726 36.1009,-35.9389 2.3147,-3.9409 6.6888,-14.0659 9.7202,-22.5 7.9333,-22.0721 23.2338,-47.4059 37.1951,-61.5856 6.4723,-6.5735 9.4165,-8.116 11.7675,-6.1649 1.2952,1.075 0.6991,2.0645 -4.2667,7.0827 -3.1747,3.2082 -5.5428,5.8331 -5.2623,5.8331 1.5383,0 28.9406,-10.4023 31.7205,-12.0415 1.8111,-1.068 6.3111,-4.3655 10,-7.3276 3.6888,-2.9622 11.2069,-7.9688 16.7069,-11.1257 14.1498,-8.1218 15.2257,-9.0183 18.4172,-15.3455 5.3125,-10.5326 5.326,-10.8751 1.4752,-37.4976 -1.9222,-13.2892 -3.9895,-26.1871 -4.5939,-28.6621 -3.859,-15.8004 -22.3496,-39.02825 -37.1693,-46.69181 -10.0787,-5.2119 -23.328,-7.33721 -33.1373,-5.31554 -14.2688,2.94077 -30.3407,13.94869 -52.5201,35.97195 -15.6588,15.5485 -18.5381,20.2013 -19.5835,31.6456 -0.7385,8.0844 0.3636,9.9109 3.9482,6.5434 5.1499,-4.8381 11.3432,-6.4982 26.6635,-7.1475 8.1577,-0.3457 15.4554,-1.1375 16.6843,-1.8103 3.1958,-1.7497 5.3157,-1.468 5.3157,0.7063 0,2.8568 -4.7785,4.117 -20,5.2742 -7.5875,0.5768 -15.1485,1.7082 -17.264,2.5832 -4.5126,1.8665 -18.7384,16.3648 -21.6423,22.0568 -1.1242,2.2038 -3.4164,7.4614 -5.0937,11.6837 -6.9818,17.5758 -10.3204,21.4232 -29.5,33.9957 -14.1382,9.2678 -18.3767,13.2509 -28.2044,26.5043 -2.2431,3.025 -5.5268,8.425 -7.2972,12 -1.7704,3.575 -4.2114,7.85 -5.4245,9.5 -1.2132,1.65 -3.4842,6.825 -5.0468,11.5 -2.5563,7.6482 -2.9141,10.4039 -3.5706,27.5 -0.8054,20.9726 -1.7188,25.4031 -8.8229,42.7962 -5.758,14.0972 -10.4032,22.2038 -12.7234,22.2038 -3.6281,0 -2.2121,-7.6653 4.0642,-22 10.5616,-24.122 11.5189,-28.017 11.8733,-48.3103 0.3009,-17.2299 0.3913,-17.8919 3.4806,-25.4658 4.9083,-12.0335 4.2945,-16.4712 -3.419,-24.7175 -4.1067,-4.3904 -4.6988,-5.6128 -5.3359,-11.0162 -0.7957,-6.7488 -1.8487,-8.1997 -9.6321,-13.2727 -3.2875,-2.1427 -5.7779,-4.807 -7.4413,-7.9608 -2.1678,-4.1103 -3.3395,-5.0972 -8.8182,-7.4275 -7.2956,-3.103 -9.5051,-5.5069 -11.8245,-12.8648 -1.4006,-4.4433 -2.2535,-5.5617 -5.2643,-6.9029 -8.7278,-3.8881 -18.7512,4.4085 -25.5548,21.1523 l -2.4398,6.0044 1.9377,9.3909 c 2.4649,11.9461 2.4991,14.1382 0.2139,13.7083 -0.9625,-0.181 -2.1942,-1.339 -2.7371,-2.5733 -1.31,-2.9782 -1.9631,-2.8426 -4.8439,1.0059 -4.9485,6.6107 -5.9133,9.8057 -6.8988,22.8462 -0.9145,12.1025 -0.819,13.3935 2.1363,28.8934 5.5384,29.0476 4.2838,40.7718 -6.9572,65.0122 -6.1757,13.3175 -6.2849,13.7056 -8.1549,28.9982 -2.4119,19.7237 -2.0298,28.7218 1.5143,35.6622 3.6761,7.1989 10.24,11.5769 19.8946,13.2692 8.547,1.4983 14.3975,0.4385 24.6391,-4.4632 z m 76.6038,-133.5554 c -0.8618,-1.3943 -1.2232,-1.1086 14.1284,-11.1699 14.5477,-9.5344 27.3885,-20.9671 32.935,-29.3233 6.186,-9.3197 11.4627,-20.6946 12.603,-27.1686 1.0833,-6.1497 2.8605,-9.0037 4.8436,-7.7781 5.1223,3.1657 -9.4135,36.3584 -20.1488,46.0103 -10.1001,9.0809 -39.9083,30.5168 -42.4358,30.5168 -0.6895,0 -1.5559,-0.4892 -1.9254,-1.0872 z m 71.5538,-8.6811 c 0,-0.4226 5.6297,-6.7782 12.5104,-14.1235 8.4073,-8.9751 13.6554,-15.5286 16.0015,-19.9818 4.8741,-9.2514 7.9908,-12.9676 9.5741,-11.4158 0.9764,0.9569 0,3.2624 -4.6681,11 -7.5113,12.4556 -19.387,28.294 -24.1729,32.239 -3.3835,2.789 -9.245,4.2358 -9.245,2.2821 z m -109.6172,-24.4892 c -2.8562,-5.6681 -5.6894,-7.5492 -13.3828,-8.8855 -5.7406,-0.9971 -7.0549,-1.6806 -11.25,-5.8502 -3.2775,-3.2576 -4.75,-5.5404 -4.75,-7.364 0,-1.4535 0.2554,-2.6428 0.5675,-2.6428 0.3121,0 3.0522,2.0241 6.0892,4.498 3.3249,2.7084 7.6399,5.1137 10.8456,6.0456 9.1782,2.6682 17.4977,10.2094 17.4977,15.8607 0,4.1476 -3.1611,3.2124 -5.6172,-1.6618 z m -36.7161,-25.4092 c -0.3667,-0.3667 -0.6667,-2.4121 -0.6667,-4.5455 0,-4.1246 3.4251,-8.7878 6.4546,-8.7878 1.8166,0 2.1762,7.2107 0.5702,11.4349 -0.9396,2.4712 -4.6711,3.5854 -6.3581,1.8984 z m 197.8461,-10.3127 c -0.9816,-1.5883 1.0474,-4.4179 7.201,-10.0424 6.7343,-6.1553 8.473,-6.9768 22.0501,-10.4184 5.5766,-1.4136 11.7399,-3.5145 13.6962,-4.6688 3.7487,-2.2118 6.5399,-1.974 6.5399,0.5573 0,2.3589 -6.4588,5.0441 -19.205,7.984 l -11.705,2.6998 -8.5031,7.4339 c -4.6767,4.0887 -8.7204,7.434 -8.986,7.434 -0.2655,0 -0.7552,-0.4407 -1.0881,-0.9794 z m 10.0389,-32.9371 c -0.3115,-0.504 -0.068,-3.2386 0.5403,-6.0769 1.4068,-6.5594 0.2092,-11.6213 -5.1363,-21.7107 -3.9233,-7.4049 -4.5186,-9.6653 -3.3487,-12.7141 0.9946,-2.5919 3.393,-1.8595 3.393,1.0361 0,1.4398 1.7381,6.5023 3.8625,11.25 2.1243,4.7476 4.4203,10.3533 5.1023,12.457 2.3193,7.1552 -1.438,20.5724 -4.4131,15.7586 z m 21.5777,-25.4277 c -2.0822,-2.5089 -0.5932,-3.3583 5.0782,-2.8968 10.0404,0.817 26.7269,-7.4431 32.765,-16.2191 3.4703,-5.044 5.0274,-5.7223 5.0274,-2.19 0,5.1792 -8.8653,14.1408 -19.1024,19.3097 -6.7801,3.4235 -21.5539,4.6642 -23.7682,1.9962 z m -298.4642,255.9581 c 3.8584,-1.3124 8.5498,-3.393 10.4251,-4.6236 l 3.4097,-2.2374 0.1131,-19.1265 c 0.1364,-23.0775 1.1555,-27.6774 10.6776,-48.1958 7.5507,-16.2706 9.0458,-21.8411 8.993,-33.5072 -0.047,-10.4263 -0.5071,-12.0335 -4.0419,-14.1216 -4.6513,-2.7476 -10.9402,-9.7561 -14.065,-15.6745 -4.1088,-7.7821 -8.7913,-23.0087 -10.1682,-33.0651 -1.3293,-9.7082 -3.1879,-15.8219 -6.6196,-21.7738 -2.9822,-5.1725 -16.8817,-23.0571 -19.6809,-25.3238 -1.8361,-1.4868 -2.0502,-2.8361 -2.1249,-13.3949 -0.082,-11.5807 -0.1216,-11.7746 -2.8889,-14.1556 -2.4111,-2.0746 -3.8178,-2.411 -10,-2.3922 -13.4053,0.041 -21.807,6.0716 -23.6382,16.9673 -0.6664,3.9648 -2.9265,4.9533 -6.70349,2.9318 -1.9939,-1.067 -2.947,-1.008 -5.8161,0.3602 -2.7054,1.2901 -3.6738,2.5443 -4.5768,5.9275 -1.6292,6.1039 -2.2148,6.9855 -6.0442,9.0977 -8.110104,4.4734 -11.391704,9.6507 -10.502604,16.5693 1.2884,10.0253 1.3681,9.6243 -1.9129,9.6243 -3.699,0 -5.4161,2.5202 -5.4645,8.0209 -0.026,3.0118 1.1157,5.9874 4.5517,11.857 3.9941,6.8232 4.7632,9.0913 5.9495,17.5446 1.9726,14.0562 4.817304,20.666 16.373204,38.0433 5.6567,8.5062 12.15359,19.0812 14.43749,23.5 l 4.1526,8.0342 -0.3031,20.1148 c -0.3317,22.0014 0.609,28.8711 5.3161,38.821 8.6577,18.3009 30.1947,26.966 50.1522,20.1781 z m -14.1371,-75.5256 c -0.3337,-1.0514 -0.9959,-12.1889 -1.4716,-24.75 -0.8864,-23.4079 -1.1462,-25.0625 -7.2369,-46.0831 -0.9658,-3.3332 -0.9687,-4.5061 -0.014,-5.4611 1.7798,-1.7799 4.5103,1.466 7.0255,8.3515 2.7248,7.459 7.9518,66.2057 6.0903,68.4487 -1.6434,1.9801 -3.679,1.7457 -4.3937,-0.506 z M 98.60072,774.29407 c -0.7404,-0.3006 0.1374,-1.6698 2.2729,-3.5447 1.9136,-1.6802 5.3088,-5.6629 7.5447,-8.8505 3.9977,-5.6991 4.1873,-5.8227 11.39639,-7.4265 8.4472,-1.8794 10.6429,-3.6018 8.1305,-6.378 -0.9184,-1.0148 -1.6381,-3.496 -1.6381,-5.6474 l 0,-3.8374 6.5378,6.8338 c 7.218,7.5449 7.2377,7.4108 -1.466,9.9842 -16.96389,5.0158 -16.38459,4.7269 -19.70749,9.8281 -5.7616,8.8453 -8.6416,10.8368 -13.0707,9.0384 z m 233.29889,-3.2858 c 12.1025,-16.2484 14.5094,-18.5122 29.7126,-27.9455 12.6948,-7.8769 18.7992,-14.2536 20.8576,-21.7884 0.5758,-2.1079 3.548,-10.1325 6.6048,-17.8325 4.9442,-12.4545 5.6278,-15.0675 6.1919,-23.6698 0.5681,-8.6627 1.0647,-10.5372 4.7687,-18 2.705,-5.4499 7.4784,-12.3061 13.8053,-19.82879 9.5168,-11.31549 9.6629,-11.56793 9.1796,-15.85616 -0.2702,-2.39669 -2.3772,-8.16361 -4.6822,-12.81539 -3.7017,-7.47038 -4.9697,-9.02989 -10.8609,-13.35834 -7.8158,-5.74251 -23.6139,-14.19989 -31.7606,-17.00277 -4.0734,-1.40147 -8.3754,-1.96878 -14.9293,-1.96878 -18.1859,0 -28.1264,3.57562 -33.7375,12.13537 -1.9341,2.95055 -3.8326,6.40838 -4.2189,7.68408 -0.3864,1.2757 -6.0604,7.95943 -12.6091,14.85274 -9.3237,9.81435 -12.7211,14.18043 -15.6606,20.12601 -3.711,7.50593 -3.7539,7.73043 -3.7539,19.64723 0,13.0599 0.7534,17.5546 2.9425,17.5546 0.7724,0 3.5733,-1.6556 6.2243,-3.6792 2.6509,-2.0235 9.4142,-5.8299 15.0295,-8.4586 8.0301,-3.7592 10.5522,-5.442 11.8145,-7.8831 1.6958,-3.2794 4.714,-3.7663 5.2754,-0.851 0.633,3.2867 -4.8104,7.6489 -17.0193,13.6388 -11.1713,5.4809 -13.041,6.8094 -20.9346,14.8757 -9.4125,9.6184 -10.8165,12.4938 -10.8267,22.1731 -0.01,6.4434 -0.8005,8.0495 -7.656,15.4913 -2.9423,3.1938 -5.3293,6.5688 -5.3045,7.5 0.1215,4.5606 2.6435,7.5217 9.4787,11.129 5.595,2.9529 7.459,4.5611 9.4145,8.1229 1.3411,2.4426 2.9064,4.6253 3.4785,4.8506 0.5722,0.2252 3.3967,2.6381 6.2767,5.3619 5.8666,5.5484 9.3065,11.7146 9.3065,16.6825 0,2.4893 1.0086,4.4166 4.0223,7.686 2.2122,2.4 4.5589,5.5415 5.2149,6.9811 l 1.1925,2.6175 1.529,-2.3028 c 0.841,-1.2665 6.0762,-8.4077 11.6338,-15.8693 z m 22.6794,-52.7159 c 0.6438,-5.6306 -1.8647,-11.2595 -6.0053,-13.4755 -3.9768,-2.1283 -11.5397,-11.0333 -14.4811,-17.0508 -4.4364,-9.0762 -6.1734,-20.0363 -3.5855,-22.6242 2.0452,-2.0451 2.8,-1.3469 2.8,2.5899 0,8.3218 4.714,21.0148 9.8601,26.5493 3.2386,3.4832 6.1565,5.0057 12.6266,6.5887 5.3883,1.3183 7.8122,2.7794 6.9433,4.1854 -0.3014,0.4877 -1.6464,0.8867 -2.989,0.8867 -2.8187,0 -2.7699,-0.1921 -1.3667,5.3808 1.3307,5.2845 0.078,10.9662 -2.5288,11.4682 -1.6264,0.3132 -1.767,-0.1833 -1.2736,-4.4985 z m 372.2826,48.509 c 1.2755,-1.2977 4.035,-5.0909 6.1323,-8.4292 2.0973,-3.3384 5.5873,-8.7384 7.7555,-12 2.1683,-3.2617 5.3778,-9.5853 7.1322,-14.0525 1.7545,-4.4673 5.195,-11.0504 7.6455,-14.6293 7.2953,-10.6545 7.763,-15.0126 6.6813,-62.2485 -0.2746,-11.9931 -0.2706,-12.0162 6.8845,-40.00003 3.93768,-15.4 9.38458,-36.325 12.10428,-46.5 6.6796,-24.98977 6.6987,-25.19379 3.7485,-40 -1.3699,-6.875 -2.9963,-16.325 -3.6143,-21 -0.8358,-6.32218 -1.8796,-9.73404 -4.074,-13.31645 -1.6226,-2.64904 -2.9503,-5.46154 -2.9503,-6.25 0,-1.7406 3.1402,-1.89339 4.8,-0.23355 0.9334,0.93333 1.2,0.60832 1.2,-1.46254 0,-1.70382 -1.6178,-4.56643 -4.4931,-7.95 -9.16068,-10.77994 -9.46578,-11.45669 -10.54078,-23.37409 -1.616,-17.91496 -3.6619,-29.06921 -6.4483,-35.15548 -1.4467,-3.16008 -7.6676,-13.3485 -13.8241,-22.64095 l -11.1937,-16.89535 -1,8.57132 c -1.1021,9.44641 -1.9548,11.17307 -4.0817,8.26439 -2.0836,-2.84948 -1.7819,-14.49583 0.6894,-26.61296 2.8456,-13.95224 2.3376,-18.51741 -3.3759,-30.3352 -6.4431,-13.32716 -11.7143,-20.80608 -21.3493,-30.29111 -5.752,-5.66243 -10.247,-9.0957 -14.5969,-11.14924 -7.6451,-3.60907 -20.4081,-7.16879 -25.7031,-7.16879 -3.4029,0 -3.8291,0.25279 -3.3722,2 0.3577,1.36784 0.031,2 -1.0346,2 -0.8567,0 -1.8152,-0.41675 -2.13,-0.92611 -0.3148,-0.50936 -4.0539,-3.37353 -8.309,-6.36481 -4.2552,-2.99128 -14.5087,-11.72132 -22.7856,-19.40009 -14.2448,-13.21539 -22.6837,-19.82641 -30.316,-23.74956 -4.0439,-2.07866 -6.1574,-0.79456 -3.1587,1.91919 2.6778,2.4234 2.5547,3.52138 -0.3948,3.52138 -3.3574,0 -6.2883,-5.1011 -8.1397,-14.16709 -4.4326,-21.70522 -6.217,-34.58867 -5.3887,-38.90697 0.467,-2.43427 1.5848,-12.71348 2.4841,-22.8427 1.9887,-22.39963 1.1316,-32.63674 -4.2351,-50.58324 -4.4345,-14.8295 -7.1889,-20.43933 -12.7811,-26.031611 -9.9482,-9.94819 -22.6797,-13.78643 -46.0875,-13.89433 l -16.0665,-0.0741 -8.5743,4.24431 c -7.0131,3.47151 -9.9454,5.7018 -16.1047,12.249161 -10.2091,10.85237 -15.16,18.73367 -18.7186,29.79822 -4.4396,13.80331 -5.0016,19.96969 -4.0295,44.20954 0.967,24.112 1.0264,24.36559 9.3975,40.10708 3.0394,5.71543 6.9391,13.99169 8.666,18.39169 3.4064,8.67928 10.94,22.23385 13.792,24.81487 2.682,2.42721 13.6778,4.65375 23.0646,4.67035 7.4345,0.0131 8.9995,-0.32605 14.1366,-3.06411 11.426,-6.09003 30.5425,-23.3552 34.7127,-31.35106 0.965,-1.85022 1.7608,-7.18961 2.1594,-14.48889 0.5332,-9.76319 0.8945,-11.60924 2.3258,-11.8827 2.3907,-0.45675 4.1668,6.4065 4.1071,15.87033 -0.055,8.76001 -2.1166,14.35542 -8.3111,22.56 -4.6245,6.12507 -22.6567,20.04716 -31.8928,24.62348 -5.9849,2.9654 -7.093,3.17115 -17,3.1564 -19.8399,-0.0295 -27.0058,-3.17744 -35.201,-15.46347 -2.6932,-4.03763 -4.8968,-7.71882 -4.8968,-8.18043 0,-1.5525 -12.3965,7.5617 -17.9956,13.23079 -5.9397,6.01402 -6.0294,6.05142 -24.0044,10.01499 -20.4686,4.51343 -34.9359,10.03681 -39.7093,15.16039 -1.2151,1.30428 -3.7499,5.73688 -5.6328,9.85024 -6.1646,13.46696 -8.7469,22.66851 -10.7164,38.1862 -1.8117,14.27477 -3.5509,20.39366 -6.4898,22.83271 -2.3355,1.93829 -3.5948,0.10803 -1.8051,-2.62345 2.4435,-3.72926 0.7528,-4.1788 -2.9115,-0.77411 -1.7793,1.6532 -6.1601,5.28999 -9.7351,8.08176 -3.575,2.79176 -9.6867,8.38338 -13.5816,12.42582 -12.2159,12.67867 -16.4306,22.02134 -18.8797,41.84989 -1.4637,11.85122 -2.1734,14.57953 -5.8112,22.33911 -4.4162,9.42016 -6.5203,11.66089 -10.95,11.66089 -3.5648,0 -3.6189,-2.13886 -0.1356,-5.36871 1.7779,-1.64855 2.4239,-3.0176 1.9754,-4.18634 -0.5921,-1.54297 -1.6955,-1.66435 -9.8919,-1.08818 -18.3207,1.28787 -42.188,8.26591 -60.7254,17.75421 -17.0907,8.74783 -21.5842,9.86857 -39.9601,9.96652 l -14.5399,0.0775 4.9386,1.73827 c 5.9657,2.09977 7.138,4.1083 2.3948,4.10298 -6.6706,-0.007 -12.3072,-5.52393 -19.4098,-18.99626 -4.95,-9.38901 -10.4077,-16.17072 -15.0988,-18.76151 -2.2522,-1.24383 -7.6341,-3.17507 -11.9598,-4.29165 -8.9234,-2.30335 -15.2092,-1.94765 -22.03549,1.24696 -4.3363,2.02933 -6.3036,5.27399 -7.7645,12.8062 -0.3733,1.925 -2.3407,8.37135 -4.3719,14.32522 l -3.6931,10.82522 2.3608,1.92478 c 7.3751,6.01295 16.86839,-1.75035 22.64139,-18.5152 1.3066,-3.79454 2.7158,-6.1709 3.7811,-6.37605 1.4613,-0.28143 1.6134,0.29067 1.0908,4.10351 -0.5287,3.85719 -0.052,5.56687 3.6827,13.2116 2.3595,4.82958 5.7838,10.27481 7.6095,12.10052 3.9135,3.91347 9.9463,5.78817 16.5765,5.1511 3.5211,-0.33834 4.7572,-0.11149 4.7572,0.87304 0,3.33512 -9.9059,6.18746 -15.6374,4.50269 -2.8442,-0.83605 -3.3564,-0.62805 -5.4802,2.22566 -1.917,2.57582 -2.3523,4.42006 -2.3951,10.14791 -0.058,7.73938 -1.6738,11.85264 -6.7644,17.21801 -2.6865,2.83153 -2.8441,3.29825 -1.3121,3.88613 2.8851,1.10709 23.5583,-0.2903 31.7779,-2.14799 5.9821,-1.35199 8.7253,-2.5943 12.3589,-5.59692 5.4034,-4.46509 7.9637,-5.03233 7.0952,-1.57195 -0.5634,2.24454 -0.3459,2.30938 11.6416,3.47041 6.7186,0.65072 18.9656,2.65894 27.2156,4.46272 14.7156,3.21741 15.4456,3.27735 38.5,3.16168 25.5938,-0.12841 39.9798,-1.45069 48.8005,-4.48545 4.7878,-1.64727 7.1923,-1.85096 15.2769,-1.29414 12.597,0.8676 16.1141,-0.25814 20.0127,-6.40555 1.6005,-2.52368 2.9099,-5.45978 2.9099,-6.52465 0,-2.55345 5.0175,-7.17649 17.041,-15.70132 19.1755,-13.59576 37.1178,-34.55603 42.7759,-49.97098 4.8284,-13.15458 6.2379,-19.95791 6.4695,-31.22693 l 0.2136,-10.39436 -4.255,-4.83593 c -6.2566,-7.11063 -8.4593,-14.87896 -8.5185,-30.04277 -0.038,-9.64345 0.3501,-13.08008 1.9742,-17.5 3.8179,-10.39055 11.802,-27.11661 14.4666,-30.30672 2.429,-2.90798 2.7338,-3.02405 3.4123,-1.29917 0.8382,2.13108 -0.3102,5.444 -6.9697,20.10589 -6.3668,14.01773 -7.9165,20.79683 -7.4173,32.44736 0.7017,16.37536 4.541,22.44886 22.7037,35.9157 9.8156,7.27782 14.5454,8.51164 30.5084,7.9585 9.7167,-0.33669 11.7788,-0.73065 16.5953,-3.17047 3.025,-1.5323 7.094,-4.33064 9.0422,-6.21854 4.1799,-4.05055 4.9578,-4.22348 4.9578,-1.10207 0,2.35397 -4.8316,6.51737 -11.5538,9.95593 -4.7666,2.43818 -18.7574,4.71595 -28.8066,4.68985 -10.5471,-0.0274 -17.0569,-2.17602 -25.6058,-8.45147 -2.8203,-2.07027 -5.2579,-3.59778 -5.417,-3.39446 -0.3774,0.48247 1.1386,20.46051 1.8549,24.44311 0.304,1.69039 1.8873,5.17789 3.5185,7.75 2.6812,4.22783 2.783,4.67656 1.0606,4.67656 -1.0478,0 -3.2616,-1.64562 -4.9195,-3.65694 l -3.0144,-3.65695 -0.8084,2.90695 c -0.4447,1.59882 -0.8085,7.63194 -0.8085,13.40694 0,8.70134 0.3874,11.39277 2.2614,15.71172 3.4366,7.9204 3.7309,14.82952 1.3453,31.57872 -1.1587,8.13474 -2.1067,16.59458 -2.1067,18.79965 l 0,4.00922 6.25,-0.59493 c 3.4375,-0.32721 7.9479,-1.1 10.0231,-1.71731 3.8814,-1.15462 3.9699,-1.30892 5.2298,-9.11771 0.6999,-4.33818 6.4611,-11.4277 8.3419,-10.2653 0.8265,0.51079 0.3836,2.05655 -1.5199,5.30464 -2.3602,4.0273 -3.2635,6.97969 -4.511,14.74451 -0.2876,1.7901 0.8173,2.09428 13.2324,3.6426 17.4245,2.17305 27.8096,4.31608 41.4537,8.55418 6.05,1.87924 20.7294,5.4158 32.6208,7.85903 11.8915,2.44323 22.7596,4.87519 24.1514,5.40435 2.0511,0.77982 2.8808,0.57291 4.3792,-1.09202 3.0082,-3.34263 10.0254,-7.8067 13.3014,-8.46191 4.4041,-0.8808 3.8271,1.00794 -1.4083,4.60994 -2.4505,1.68601 -5.1548,4.06394 -6.0096,5.28429 -1.5255,2.17802 -1.4114,2.28612 6.2055,5.87923 5.6696,2.67449 12.5649,7.61431 25.6,18.34003 9.8122,8.0738 17.9822,14.53281 18.1555,14.35335 0.1732,-0.17945 1.9677,-9.77628 3.9876,-21.32628 4.8756,-27.87887 9.6292,-46.54785 14.259,-56 2.5506,-5.20701 10.4512,-16.55589 19.4549,-27.94602 6.2834,-7.9489 9.5314,-13.11328 11.7025,-18.60768 l 3.0053,-7.60513 -1.9298,-7.42059 c -1.0613,-4.08132 -3.1003,-13.72058 -4.531,-21.42058 l -2.6013,-14 -6.4375,-6.66936 -6.4376,-6.66936 -1.6312,3.16936 c -3.5652,6.92729 -11.4524,17.60117 -15.8966,21.5131 -5.5669,4.90022 -12.3675,8.23741 -21.9402,10.7665 -5.8622,1.54881 -10.8195,1.84879 -30.5,1.84566 -32.9744,-0.005 -43.6176,-2.11325 -59.2288,-11.73089 -5.3521,-3.2973 -7.9174,-5.76203 -11.6828,-11.22501 -8.7433,-12.68514 -9.6065,-14.92413 -9.4454,-24.5 0.2158,-12.82988 10.3524,-57.84992 13.2392,-58.79994 1.5767,-0.51884 1.5262,-0.0656 -1.702,15.29994 -3.1511,14.99838 -5.1802,32.32527 -5.1802,44.23549 0,12.83098 1.5833,16.90633 9.244,23.79393 5.6886,5.11453 18.0525,11.36314 27.4915,13.89401 16.24,4.35438 46.2006,5.90337 59.7645,3.08987 9.4237,-1.95468 24.0743,-9.44568 30.4739,-15.58148 6.4387,-6.17339 10.4698,-14.64209 12.4687,-26.19473 1.1944,-6.90299 1.2795,-9.78865 0.4007,-13.59559 -0.7814,-3.38536 -0.8025,-5.39186 -0.071,-6.69983 0.8973,-1.60337 1.5122,-0.81283 4.3524,5.59559 7.9689,17.98083 14.6499,28.55295 19.2614,30.47976 1.8323,0.76555 6.7861,1.82082 11.0087,2.34505 7.8809,0.97842 10.6048,2.23852 10.6048,4.90579 0,1.29916 -1.4695,1.44199 -10,0.97194 -9.8615,-0.54341 -10,-0.51994 -10,1.69462 0,6.13006 11.3371,42.31327 16.4206,52.40784 4.0872,8.11611 14.4582,23.79817 17.7353,26.81763 3.9997,3.68533 25.9342,18.34011 27.4505,18.34011 0.7901,0 1.8215,-1.0125 2.2921,-2.25 0.4705,-1.2375 2.2863,-5.67726 4.035,-9.86614 7.5666,-18.12529 5.9953,-29.77233 -6.3929,-47.38386 -6.5073,-9.251 -9.5406,-14.92227 -9.5406,-17.83786 0,-1.46418 0.4121,-2.66214 0.9158,-2.66214 1.5549,0 16.2175,23.09819 19.3612,30.5 2.199,5.17747 3.1033,9.14798 3.4734,15.25 0.2753,4.5375 0.7525,8.25 1.0606,8.25 0.3081,0 1.5999,-0.97677 2.8707,-2.17061 4.0421,-3.7974 3.7337,-1.10634 -0.6431,5.61147 -2.3294,3.57526 -5.8738,10.67616 -7.8765,15.7798 -3.5608,9.07446 -3.636,9.54981 -3.4073,21.52934 0.2249,11.78211 -0.4691,14.59389 -2.5918,10.5 -0.499,-0.9625 -1.212,-3.775 -1.5843,-6.25 -0.8285,-5.50764 -2.2446,-8.17794 -5.8265,-10.98687 l -2.7478,-2.15485 -1.0658,2.80345 c -0.5863,1.5419 -2.1623,7.02305 -3.5022,12.18034 -4.0404,15.55059 -3.1752,26.90518 3.5933,47.15793 4.4951,13.45017 4.7792,20.84028 1.5568,40.5 -3.6799,22.45093 -9.4653,41.31017 -14.377,46.86567 -0.9402,1.0635 -5.8711,3.8761 -10.9575,6.2503 -7.3674,3.4389 -10.9767,5.9451 -17.7491,12.3243 -4.6756,4.4041 -9.739,8.6318 -11.252,9.3948 -1.513,0.7631 -5.9602,1.673 -9.8827,2.0222 -3.9226,0.3491 -9.0976,1.5267 -11.5,2.6168 -2.5571,1.1603 -6.5636,1.9911 -9.6636,2.004 -4.2715,0.018 -5.7701,0.4966 -7.75,2.4765 -2.8849,2.8849 -3.0554,4.7196 -0.7946,8.5469 4.6091,7.8027 17.5597,9.3534 26.8305,3.2127 3.759,-2.4899 5.9258,-3.2141 9.6159,-3.2141 7.5556,0 9.4397,-1.197 12.9166,-8.2065 3.6655,-7.3897 5.9547,-10.2159 7.2366,-8.934 0.5424,0.5424 -1.7631,6.978 -5.737,16.0147 -5.5161,12.5436 -6.7997,16.5098 -7.5626,23.3669 -0.5054,4.5424 -1.3674,10.0589 -1.9156,12.2589 -2.1113,8.4736 -0.1678,13.1138 6.0231,14.3799 2.9314,0.5996 3.8124,1.5119 6.132,6.3504 3.1161,6.4997 5.8603,8.5191 9.391,6.9104 2.6264,-1.1967 5.784,-6.9554 11.8932,-21.6901 2.5482,-6.146 5.9398,-12.2265 8.7318,-15.6543 2.5109,-3.0827 6.0111,-8.3177 7.7783,-11.6333 3.504,-6.574 6.0062,-8.5833 6.0062,-4.8228 0,2.9792 -5.7844,12.5139 -11.3417,18.6949 -2.6482,2.9455 -5.0943,7.0106 -6.1277,10.1836 -0.9461,2.9047 -3.7025,9.0769 -6.1254,13.716 -2.4228,4.6391 -4.4052,8.9944 -4.4052,9.6786 0,2.3179 3.1273,4.3867 6.6313,4.3867 2.8081,0 4.5007,-0.9591 8.6786,-4.9179 2.8546,-2.7049 6.7354,-7.5424 8.6241,-10.75 3.7102,-6.3012 6.925,-10.3321 8.2404,-10.3321 1.4379,0 0.8914,3.7005 -0.7474,5.0606 -0.8652,0.7181 -2.4285,2.9822 -3.474,5.0315 -1.0454,2.0493 -3.7125,5.8193 -5.9269,8.3777 -3.8513,4.4499 -4.8975,7.3111 -3.2761,8.9591 1.5232,1.5482 9.4544,-0.1782 11.8045,-2.5694 z m -47.141,-24.2245 c -0.3972,-1.035 0.5215,-3.9932 2.3066,-7.4275 8.0183,-15.426 10.1562,-20.2251 11.7259,-26.3224 1.384,-5.3757 2.5321,-7.4286 6.1285,-10.9582 2.9588,-2.9038 4.4255,-5.1949 4.4255,-6.9126 0,-3.351 2.8723,-7.5421 4.2349,-6.1795 0.6712,0.6712 0.5984,2.7683 -0.2199,6.3343 -0.9609,4.1878 -2.1659,6.219 -5.6191,9.4724 -2.672,2.5175 -4.3959,5.0265 -4.3959,6.398 0,2.4203 -14.3758,33.51 -16.5945,35.888 -1.1486,1.231 -1.4229,1.1907 -1.992,-0.2925 z m 54.6088,-12.3017 c 0.024,-3.1267 3.3907,-8.2538 4.6151,-7.0293 1.0327,1.0327 -1.7998,8.9401 -3.3874,9.4563 -0.8045,0.2615 -1.242,-0.6034 -1.2277,-2.427 z m -40.3556,-42 c -2.6559,-2.6559 2.9115,-10.3333 7.4934,-10.3333 2.6718,0 1.8701,2.1693 -1.3893,3.7592 -1.4198,0.6926 -3.0507,2.6051 -3.6241,4.25 -1.0932,3.1359 -1.39,3.4141 -2.48,2.3241 z M 524.05711,523.2827 c -3.2366,-0.90165 -1.8668,-3.14532 2.3558,-3.85873 4.5627,-0.77085 7.8942,-3.47411 7.8942,-6.4054 0,-1.05781 -1.1114,-3.2441 -2.4697,-4.85844 -1.3584,-1.61434 -3.9804,-5.81136 -5.8266,-9.32672 -3.7145,-7.07272 -7.6258,-9.88733 -13.7436,-9.89002 -5.083,-0.002 -14.7331,-2.70373 -18.021,-5.04492 -1.5486,-1.10269 -4.0306,-4.48829 -5.5156,-7.52355 -2.4691,-5.0466 -2.6521,-6.22071 -2.1398,-13.72587 0.5611,-8.22052 2.9709,-17.1285 4.9675,-18.36242 0.7034,-0.43472 0.8313,0.15788 0.3774,1.74884 -0.3776,1.3235 -0.9628,7.1842 -1.3004,13.02378 l -0.6138,10.6174 4.2513,4.61213 c 5.0482,5.47657 11.867,8.97812 21.8097,11.19948 9.219,2.05966 12.7084,4.86994 14.7448,11.87505 1.7368,5.97429 5.0436,9.59556 11.3248,12.40185 4.8764,2.17862 4.0614,3.7569 -1.4098,2.73049 -3.2912,-0.61743 -3.4352,-0.51916 -3.4352,2.34511 0,5.66899 -7.0591,10.16655 -13.25,8.44194 z m -15.614,-3.70062 c -3.4951,-3.60596 -6.7838,-4.87134 -17.382,-6.68788 -8.804,-1.50902 -7.9714,-3.43902 1.1374,-2.63643 12.6622,1.1157 23.1086,6.13677 23.1086,11.10715 0,2.65168 -3.4292,1.76098 -6.864,-1.78284 z m -37.6388,-6.39024 c 1.9417,-4.77826 2.3915,-8.02207 1.8416,-13.28252 -0.9275,-8.87469 0.1245,-12.53066 4.4521,-15.47135 4.4628,-3.03256 5.047,-2.05879 2.1599,3.60045 -1.472,2.88538 -2.4244,7.25954 -2.9719,13.65032 -0.5716,6.67187 -1.3118,9.96348 -2.5473,11.32872 -2.1745,2.40278 -3.8812,2.5042 -2.9344,0.17438 z m -26.4972,-2.59501 c 0,-5.93797 19.8299,-7.74265 21.7302,-1.97763 0.2855,0.86603 -1.6001,1.02699 -7.1309,0.60869 -5.9845,-0.4526 -8.0302,-0.2337 -10.024,1.07265 -3.0409,1.99251 -4.5753,2.09187 -4.5753,0.29629 z m 156.2449,-7.90499 c 0.2263,-0.6875 2.9933,-3.21674 6.1489,-5.62054 7.7619,-5.91275 11.0553,-10.97464 10.2738,-15.79067 -0.3272,-2.0164 -0.9609,-4.03213 -1.4082,-4.47941 -0.4473,-0.44728 -3.0149,0.30139 -5.7058,1.66369 -6.6117,3.34727 -11.9051,3.01428 -19.0452,-1.19807 -3.2478,-1.91604 -1.2313,-2.4032 4.8731,-1.17726 l 5.7148,1.1477 13.6185,-6.73763 c 13.202,-6.53156 20.2852,-8.90988 20.2852,-6.8111 0,1.51705 -2.0423,2.77242 -6.6528,4.08924 -5.0388,1.43917 -8.94,4.39579 -7.9384,6.01639 2.4423,3.95168 14.5952,6.65632 17.5137,3.89766 1.0904,-1.03078 1.1234,-0.86307 0.1882,0.95625 -1.4777,2.87441 -6.9184,4.35923 -11.8114,3.2234 -2.0896,-0.48506 -4.0775,-0.89267 -4.4176,-0.90579 -0.3401,-0.0131 -0.8514,1.71387 -1.1363,3.83777 -0.7451,5.55561 -3.1893,8.6958 -11.0836,14.23974 -6.8515,4.8116 -10.2308,6.12093 -9.4169,3.64863 z m -24.9949,-2.41228 c -0.6875,-0.27741 -1.25,-1.20077 -1.25,-2.0519 0,-1.22968 0.77,-1.42255 3.7491,-0.93912 3.5817,0.58124 4.0056,0.33452 9.5,-5.52981 4.8498,-5.1764 5.7509,-5.78181 5.7509,-3.8637 0,3.39921 -4.1065,10.05056 -7.1895,11.64485 -2.6475,1.36907 -8.061,1.74824 -10.5605,0.73968 z m -41.25,-11.71657 c 0,-0.20836 1.575,-2.99439 3.5,-6.19117 2.1238,-3.52682 3.5,-7.11341 3.5,-9.12115 0,-1.81986 0.4415,-3.30883 0.981,-3.30883 1.7411,0 2.2779,4.91365 1.0674,9.7705 -1.6107,6.46293 -3.5805,9.2295 -6.5714,9.2295 -1.3623,0 -2.477,-0.17048 -2.477,-0.37885 z m -208.5358,-14.84956 c -6.3503,-13.08462 -9.9552,-15.82197 -24.7142,-18.76629 -4.7769,-0.95299 -5.75,-1.49711 -5.75,-3.21549 0,-1.89497 0.4202,-2.01863 5.0111,-1.47491 9.874,1.16943 23.8902,9.93524 28.9332,18.09494 2.7947,4.5219 4.3311,12.67155 2.7035,14.34024 -0.9659,0.99026 -2.2512,-0.87593 -6.1836,-8.97849 z m 124.0358,5.51534 c -3.8379,-0.92313 -3.9724,-2.28693 -0.2256,-2.28693 3.0199,0 3.9343,-0.50275 5.134,-2.82283 2.5589,-4.9483 3.9981,-5.5094 14.3541,-5.59624 l 9.6502,-0.0809 2.1893,-3.24307 c 1.6975,-2.51448 2.3236,-2.89341 2.7866,-1.68665 0.795,2.07159 -1.8533,7.03292 -4.7765,8.94822 -1.6991,1.11335 -4.5683,1.48267 -10.4032,1.33911 -7.7479,-0.19064 -8.1953,-0.0767 -11.6677,2.97207 -1.9859,1.74368 -3.9326,3.11812 -4.326,3.05432 -0.3933,-0.0638 -1.6152,-0.33248 -2.7152,-0.59707 z m 106.6538,-8.75542 c -4.6641,-2.11289 -11.1538,-7.41666 -11.1538,-9.11554 0,-2.09761 2.4218,-1.71707 4.5951,0.72205 1.0477,1.1759 3.353,2.7509 5.1228,3.5 4.4626,1.8888 16.6062,1.7629 20.4247,-0.21176 3.4215,-1.76933 4.8132,-1.17828 3.2298,1.3717 -2.7144,4.3715 -15.9142,6.58955 -22.2186,3.73355 z m -110.1785,-6.09661 c -1.6303,-4.28802 -1.101,-9.73082 1.4014,-14.40925 3.8905,-7.2738 6.2903,-6.25951 3.1233,1.32011 -1.6698,3.99637 -1.94,9.41073 -0.5772,11.56356 0.4907,0.77512 0.6607,2.01262 0.3777,2.75 -0.8473,2.20796 -3.2823,1.51863 -4.3252,-1.22442 z m 141.2014,-5.10947 c 0.2116,-1.09599 2.0509,-2.07169 5.3233,-2.82397 8.082,-1.85791 13.231,-5.14062 23.4083,-14.92398 11.0536,-10.62563 15.3946,-13.87281 17.8475,-13.3505 1.4106,0.30036 0.9754,1.12711 -2.2752,4.32221 -2.2107,2.17295 -5.6982,5.37491 -7.75,7.11548 -4.8202,4.08904 -4.9047,6.94679 -0.2627,8.88636 1.9074,0.79693 5.2153,1.44897 7.3511,1.44897 3.9926,0 11.9751,-3.59285 15.7455,-7.08686 2.7115,-2.51281 3.6461,-2.4161 3.2551,0.33686 -0.2409,1.6963 -2.3798,3.29588 -8.6916,6.5 -9.3778,4.76056 -13.4021,5.24866 -22.0647,2.67616 -5.2498,-1.55904 -5.3244,-1.55079 -7.9315,0.87781 -4.0248,3.74931 -6.5195,4.69603 -12.3749,4.69603 -3.1776,0 -6.1681,0.60016 -7.3157,1.4682 -2.6132,1.97649 -4.6604,1.90795 -4.2645,-0.14277 z m -240.426,-2.57358 c -0.2309,-0.69243 3.0815,-3.64101 7.4395,-6.62254 15.5377,-10.63012 28.7709,-29.57644 35.7961,-51.2503 2.8929,-8.9251 4.4125,-11.87901 6.1112,-11.87901 0.9144,0 0.5851,2.57552 -1.7049,13.33398 -3.802,17.86182 -25.6454,49.25317 -38.6545,55.55076 -4.9277,2.38548 -8.3706,2.71765 -8.9874,0.86711 z m 191.8353,-4.04998 c -3.9652,-6.19866 -3.3911,-5.90352 -16.8457,-8.66062 -11.9019,-2.43892 -14.3341,-3.64143 -19.7363,-9.75772 -5.2587,-5.95392 -6.3202,-8.64814 -5.5195,-14.01022 0.7193,-4.8174 1.9182,-6.01397 4.1608,-4.15278 1.1989,0.99501 1.4111,2.39683 0.9216,6.0872 -0.3699,2.7882 -0.1874,5.63287 0.4362,6.79799 1.2816,2.39473 8.9225,6.30874 22.3923,11.47033 6.3252,2.42378 11.3241,5.08258 13.8551,7.36922 4.3625,3.94121 6.4,7.90424 4.8571,9.44712 -0.6222,0.62228 -2.2332,-1.01328 -4.5216,-4.59052 z m -83.1252,-17.45187 c 0.9526,-3.86629 6.2969,-9.08796 10.4949,-10.2542 1.9494,-0.54156 6.3247,-0.98716 9.7229,-0.99022 6.846,-0.006 8.6252,-1.09509 10.9738,-6.71592 1.4387,-3.44337 4.0005,-4.35791 4.9893,-1.78114 0.707,1.84239 -5.0991,9.70277 -8.7959,11.90809 -1.707,1.01827 -5.0198,1.58339 -9.2822,1.58339 -8.0805,0 -13.0455,1.92694 -15.3362,5.95212 -2.1551,3.78681 -3.6663,3.94953 -2.7666,0.29788 z M 636.96511,326.2665 c -0.3619,-0.3619 -0.658,-1.88005 -0.658,-3.37368 0,-3.67366 6.5629,-10.11947 13.8355,-13.58878 6.1524,-2.93491 16.1645,-4.44445 16.1645,-2.43714 0,1.19327 -7.4191,5.01296 -9.8146,5.05298 -0.723,0.0121 -3.5536,0.98514 -6.2901,2.16237 -3.7364,1.60734 -5.5994,3.20501 -7.4807,6.41514 -2.7991,4.7764 -4.7721,6.75361 -5.7566,5.76911 z m -130.4633,-27.8143 c -1.757,-1.47848 -3.1947,-3.32315 -3.1947,-4.09925 0,-2.11629 4.4138,-1.71641 6.5,0.58889 2.5955,2.86794 4.6371,2.48962 8.5539,-1.58511 1.8954,-1.97181 5.4711,-4.78431 7.9461,-6.25 4.0332,-2.38844 5.4337,-2.65331 13.5,-2.5533 9.3276,0.11566 19.8448,1.8111 37,5.96466 12.2231,2.95939 20.7264,3.06494 30.424,0.37761 7.6245,-2.11285 10.6861,-1.59884 8.2147,1.37912 -4.1957,5.05543 -23.9162,5.35753 -51.4248,0.78779 -10.3324,-1.71642 -22.0568,-3.12077 -26.0542,-3.12077 -7.5253,0 -10.3321,1.20162 -18.6831,7.9984 -1.3879,1.1296 -4.1128,2.31173 -6.0553,2.62696 -2.871,0.46589 -4.1297,0.0701 -6.7266,-2.115 z m -16.6714,-9.49019 c -8.9071,-7.70911 -19.1728,-12.02017 -28.623,-12.02017 -2.6052,0 -5.4485,-0.27314 -6.3185,-0.60699 -2.1668,-0.8315 -2.0116,-5.69399 0.247,-7.73802 2.7566,-2.49467 3.4621,-2.01909 2.7372,1.84501 l -0.6566,3.5 4.2953,0.0198 c 8.1056,0.0374 18.2999,2.02125 23.5756,4.58796 4.1791,2.03321 5.8975,3.64525 8.2406,7.73057 4.6539,8.11448 3.66,8.87662 -3.4976,2.68183 z m 61.0236,-12.94431 c -1.6166,-2.61568 1.7262,-9.16744 8.2865,-16.2415 8.9978,-9.70239 13.0108,-15.76635 14.4537,-21.84047 1.2684,-5.33986 3.004,-6.1149 3.5378,-1.57983 0.5098,4.33175 -4.052,12.21407 -13.282,22.94982 -7.9379,9.23285 -9.4073,11.50701 -9.9869,15.45556 -0.2797,1.90579 -2.1302,2.67846 -3.0091,1.25642 z m -2.43,466.97177 c 7.9267,-3.012 12.0712,-6.4003 21.2818,-17.3989 4.6744,-5.5818 11.4597,-13.5237 15.0784,-17.6487 12.8707,-14.6712 25.3359,-34.8965 28.8962,-46.8853 1.7023,-5.7321 4.1311,-28.2925 3.9419,-36.61473 -0.2082,-9.15969 -3.2555,-23.61971 -6.0656,-28.7829 -2.0044,-3.68272 -5.0008,-6.67197 -11.7212,-11.69325 -4.9656,-3.71016 -12.3903,-9.72923 -16.4993,-13.3757 -9.2349,-8.19539 -10.8804,-8.97917 -28.4935,-13.57252 -16.1669,-4.2162 -21.8866,-6.75367 -22.3551,-9.91766 -0.4653,-3.14244 2.9356,-2.81048 9.4621,0.92357 3.0902,1.76806 10.2233,4.27783 16.7348,5.88814 14.5591,3.60047 16.2261,4.45414 27.6226,14.14537 5.225,4.44316 12.0345,9.81565 15.1321,11.93887 6.1196,4.19461 10.0397,8.66759 15.4058,17.57892 3.0278,5.02826 3.4621,5.40788 3.4621,3.02621 0,-7.28236 -4.1011,-12.52733 -19.5,-24.9384 -5.5,-4.43287 -13.2285,-11.14706 -17.1746,-14.92043 -5.0745,-4.85249 -9.3188,-7.838 -14.5,-10.19954 -10.1895,-4.64431 -28.5536,-9.99076 -46.5795,-13.561 -8.3898,-1.66169 -21.4398,-4.80943 -29,-6.99499 -7.5602,-2.18555 -16.6709,-4.64789 -20.2459,-5.47185 -21.8321,-5.03189 -47.0779,-6.41523 -58.9753,-3.23154 -6.4941,1.73779 -15.0247,6.03009 -15.0247,7.5599 0,0.99551 14.4022,2.38497 26,2.50836 8.0199,0.0853 8.5181,0.21745 8.8194,2.33883 0.5977,4.20855 -8.9306,5.63825 -18.4104,2.76243 -9.7724,-2.96454 -23.9873,-1.14795 -36.7632,4.69815 -13.0272,5.96105 -51.6458,36.71913 -51.6458,41.13365 0,0.34484 2.6224,-0.70559 5.8275,-2.3343 15.7366,-7.99676 30.9335,-7.65024 52.851,1.20512 10.8154,4.36974 25.2058,12.95658 30.3728,18.12353 5.0485,5.04849 12.9487,19.02148 12.9487,22.90213 0,1.46688 3.5068,-1.39003 13.0217,-10.60862 11.8737,-11.50396 13.9233,-13.05264 23.25,-17.56791 11.1659,-5.4057 17.025,-7.00967 18.2666,-5.00067 1.0417,1.68544 -1.3415,3.27159 -10.4357,6.94571 -4.1814,1.68931 -8.9526,3.80487 -10.6026,4.70124 -3.3146,1.8007 -22.2175,17.04101 -24.404,19.67549 -2.3457,2.82645 -0.2342,3.1208 2.6645,0.37144 5.2817,-5.00956 20.7502,-14.82996 25.6525,-16.28576 7.0568,-2.09565 20.7089,-1.86854 29.9638,0.49846 11.1736,2.85772 22.9335,9.31816 30.2296,16.607 7.2298,7.22249 19.4449,25.31015 22.4745,33.27925 2.1504,5.6566 8.8076,49.9161 8.8962,59.1453 0.073,7.6096 -3.7909,16.8061 -9.4771,22.5563 -2.75,2.781 -6.125,5.7949 -7.5,6.6976 -2.4775,1.6264 -2.4798,1.6416 -0.2607,1.6936 1.2316,0.029 4.5515,-0.8261 7.3776,-1.8999 z M 423.31911,597.72428 c -3.754,-4.02944 -9.4562,-27.73822 -7.2112,-29.98317 1.6794,-1.67941 4.0603,3.16197 5.0735,10.3167 0.5354,3.78066 2.2654,9.19876 4.0935,12.82021 4.0876,8.09744 2.9429,12.1044 -1.9558,6.84626 z M 106.25192,534.32082 c 5.2178,-2.17955 12.0552,-9.45608 12.0552,-12.82932 0,-0.30231 -2.3625,-0.55217 -5.25,-0.55524 -2.8875,-0.003 -6.9217,-0.46987 -8.965,-1.03734 -3.3126,-0.92001 -4.1618,-0.73606 -7.840404,1.69831 -9.7412,6.44639 -28.9797,3.27775 -48.4446,-7.97893 -12.6782,-7.33196 -20.0474,-15.79317 -24.1043,-27.67646 -2.7448,-8.04001 -2.5615,-24.10634 0.3837,-33.62928 5.0859,-16.44467 20.1736,-29.66672 40.392,-35.39731 9.3096,-2.63866 24.1612,-3.67881 29.1271,-2.03994 4.582504,1.51236 11.437804,9.14379 12.288804,13.68003 0.619,3.29977 2.4127,4.77926 2.4127,1.99009 0,-1.95369 6.6696,-7.60359 8.9758,-7.60359 3.20749,0 3.16159,-1.55981 -0.2389,-8.12876 -5.3149,-10.26708 -10.1931,-12.5615 -28.736904,-13.51622 -26.3679,-1.35753 -44.502,5.34632 -62.6079,23.14498 -13.4552,13.22686 -18.3920999,24.69087 -18.3920999,42.70855 0,15.71976 7.4264999,33.53656 18.8008999,45.10484 14.97,15.22526 29.3128,21.42228 55.6991,24.06564 6.8632,0.68755 20.726204,-0.44671 24.444804,-2.00005 z M 90.906016,518.3279 c 1.8706,-0.88767 3.4011,-1.91182 3.4011,-2.27588 0,-0.36407 -1.9074,-1.55029 -4.2387,-2.63606 -3.3242,-1.54822 -4.8539,-3.16069 -7.0902,-7.47412 l -2.8516,-5.5 0.2441,-17.5 c 0.1978,-14.18166 -0.061,-18.25848 -1.3659,-21.5 -1.9123,-4.75141 -2.2082,-17.06391 -0.5436,-22.61993 1.4236,-4.75141 3.9981,-6.50113 12.887,-8.7585 3.8119,-0.96805 7.234404,-2.06367 7.605404,-2.4347 1.0358,-1.03582 -2.696704,-4.67013 -7.109004,-6.92205 -3.3131,-1.69088 -5.1161,-1.92261 -11,-1.41379 -9.0374,0.78151 -20.048,3.86829 -27.8541,7.80879 -7.4471,3.75932 -18.4456,14.49574 -21.3487,20.84018 -9.013,19.69674 -4.5404,44.00795 10.1653,55.25454 6.8368,5.2286 21.5884,12.47352 30.0254,14.74627 8.7092,2.34612 14.6869,2.46685 19.0735,0.38525 z m 32.620094,-5.43007 c 9.5661,-2.65676 14.968,-12.07372 11.7624,-20.50502 -0.8654,-2.27631 -0.5647,-3.36458 2,-7.23654 1.6603,-2.50653 3.0186,-5.09639 3.0186,-5.75525 0,-0.65886 -1.7401,-3.39421 -3.8669,-6.07855 -2.1267,-2.68435 -4.8825,-6.88459 -6.124,-9.33387 l -2.2571,-4.45325 -1.9885,3.95325 c -4.4186,8.78424 -10.04479,12.45324 -19.09649,12.45324 -6.165,0 -9.624,-2.06779 -11.652904,-6.96611 -1.3698,-3.30691 -3.538,-3.83735 -6.5729,-1.60804 -1.7658,1.29707 -1.925,2.59591 -1.762,14.37996 0.232,16.77658 1.2059,20.35968 6.6166,24.34327 9.976504,7.34505 19.876604,9.59712 29.923194,6.80691 z m -17.48559,-22.98632 c -4.3268,-1.08593 -8.733404,-3.72334 -8.733404,-5.22714 0,-0.68362 2.091504,-0.74523 6.250004,-0.18412 7.8625,1.06091 19.54689,1.06723 22.49999,0.0122 1.8499,-0.6609 2.25,-0.44922 2.25,1.19033 0,1.09681 -0.7,2.57516 -1.5556,3.28523 -1.9336,1.60476 -15.57319,2.21297 -20.71099,0.92352 z M 1.3071161,466.52363 c 0,-4.08002 0.2732,-8.13002 0.607,-9 0.4669,-1.21666 -0.053,-1.57826 -2.25000004,-1.56648 -4.30229996,0.0231 -5.52399996,1.28735 -6.08919996,6.3015 -0.6801,6.03404 0.1938,9.11961 2.9604999,10.453 4.41480006,2.12765 4.7717001,1.66476 4.7717001,-6.18802 z M 101.46162,452.44184 c 3.7928,-10.83794 3.722,-12.11299 -0.7187,-12.94607 -3.861804,-0.72449 -4.242504,-2.8386 -0.6074,-3.37348 2.5471,-0.3748 2.9506,-2.18045 0.4872,-2.18045 -4.049004,0 -13.364604,3.4235 -15.497004,5.69518 -2.8617,3.04881 -2.9707,10.54584 -0.2209,15.20093 1.9671,3.33001 7.4977,6.17333 11.3297,5.82472 2.079004,-0.18914 2.829204,-1.36899 5.227104,-8.22083 z"
       id="path3009"
       inkscape:connector-curvature="0" />
  </g>
</svg>
