<?xml version="1.0" encoding="UTF-8" standalone="no"?>
<!-- Created with Inkscape (http://www.inkscape.org/) -->

<svg
   xmlns:dc="http://purl.org/dc/elements/1.1/"
   xmlns:cc="http://creativecommons.org/ns#"
   xmlns:rdf="http://www.w3.org/1999/02/22-rdf-syntax-ns#"
   xmlns:svg="http://www.w3.org/2000/svg"
   xmlns="http://www.w3.org/2000/svg"
   xmlns:sodipodi="http://sodipodi.sourceforge.net/DTD/sodipodi-0.dtd"
   xmlns:inkscape="http://www.inkscape.org/namespaces/inkscape"
   width="871.89874"
   height="896.76581"
   id="svg2"
   version="1.1"
   inkscape:version="0.48.3.1 r9886"
   sodipodi:docname="Neues Dokument 1">
  <defs
     id="defs4" />
  <sodipodi:namedview
     id="base"
     pagecolor="#ffffff"
     bordercolor="#666666"
     borderopacity="1.0"
     inkscape:pageopacity="0.0"
     inkscape:pageshadow="2"
     inkscape:zoom="0.7"
     inkscape:cx="1163.0582"
     inkscape:cy="417.99401"
     inkscape:document-units="px"
     inkscape:current-layer="layer1"
     showgrid="false"
     fit-margin-top="0"
     fit-margin-left="0"
     fit-margin-right="0"
     fit-margin-bottom="0"
     inkscape:window-width="1855"
     inkscape:window-height="1056"
     inkscape:window-x="65"
     inkscape:window-y="24"
     inkscape:window-maximized="1" />
  <metadata
     id="metadata7">
    <rdf:RDF>
      <cc:Work
         rdf:about="">
        <dc:format>image/svg+xml</dc:format>
        <dc:type
           rdf:resource="http://purl.org/dc/dcmitype/StillImage" />
        <dc:title></dc:title>
      </cc:Work>
    </rdf:RDF>
  </metadata>
  <g
     inkscape:label="Ebene 1"
     inkscape:groupmode="layer"
     id="layer1"
     transform="translate(78.613161,-77.040245)">
    <path
       style="fill:#000000"
       d="m 218.75058,972.4615 c -5.49268,-1.7175 -10.77762,-5.0234 -16.41998,-10.2712 l -4.59579,-4.2745 -5.90421,2.3811 c -9.15926,3.6939 -16.2579,4.9035 -26.033,4.4362 -14.16609,-0.6773 -19.71432,-4.3059 -34.82526,-22.776 -8.15993,-9.9738 -8.98955,-14.0818 -8.10676,-40.1412 l 0.69734,-20.5851 -4.84137,-9.4149 c -2.66275,-5.1782 -8.93385,-15.7285 -13.93578,-23.4451 -5.001929,-7.7166 -10.058279,-15.91954 -11.236339,-18.22874 -2.51702,-4.9337 -4.66557,-13.9698 -5.63333,-23.6919 -0.8876,-8.9169 -1.72624,-10.9973 -6.53698,-16.2163 -3.87638,-4.2054 -3.95272,-4.4341 -3.95272,-11.8427 0,-7.7752 1.40953,-12.7569 4.47749,-15.8248 0.96542,-0.9655 2.17951,-3.6476 2.69798,-5.9604 1.20326,-5.3675 5.8988,-12.6954 11.19469,-17.4706 2.27792,-2.0539 5.413019,-5.6113 6.966869,-7.9052 3.09743,-4.5727 9.17436,-9.0726 13.43638,-9.9496 1.83229,-0.377 3.61358,-2.0034 5.43089,-4.9587 2.83117,-4.604 9.69545,-10.098 15.11164,-12.0948 1.75123,-0.6457 6.52948,-1.2082 10.61834,-1.25 14.52936,-0.1487 20.81858,6.1575 19.83605,19.8897 -0.57073,7.9767 0.62212,11.5124 5.82795,17.2747 5.69884,6.3079 14.27917,20.1289 18.35362,29.5635 2.95128,6.8339 3.8712,10.4276 4.29601,16.7826 0.67006,10.0236 3.53254,17.4139 11.4056,29.4466 5.28539,8.0779 8.54642,11.5361 6.9464,7.3666 -2.23672,-5.8288 -2.81227,-16.0313 -1.72149,-30.5161 0.98668,-13.1026 1.49131,-15.8389 3.57751,-19.3987 1.33584,-2.2795 3.16262,-4.7535 4.05952,-5.4978 3.63004,-3.0127 5.47262,-8.6244 5.32811,-16.2271 -0.19758,-10.3948 2.05644,-16.458 8.84357,-23.7889 8.90957,-9.6234 22.73883,-15.1085 30.24904,-11.9977 2.6103,1.0813 3.34049,0.9657 6.03921,-0.956 4.12322,-2.936 6.86905,-8.6361 7.55973,-15.6935 1.03742,-10.6003 1.46525,-11.9644 5.07497,-16.1816 l 3.58052,-4.183 -1.0953,-8.1387 c -3.3671,-25.0195 0.25373,-36.7694 17.0475,-55.3207 13.65352,-15.0824 14.13272,-15.8185 15.00282,-23.0464 0.4211,-3.4976 1.6768,-8.1454 2.7905,-10.3284 4.7625,-9.3352 19.5724,-22.3985 41.5432,-36.6436 10.9083,-7.0726 24.2579,-14.48162 26.093,-14.48162 0.404,0 3.1016,-2.23878 5.9948,-4.97506 2.8932,-2.73628 6.8742,-5.74462 8.8466,-6.68521 1.9725,-0.94058 3.5863,-1.98645 3.5863,-2.32414 0,-0.73124 -2.0804,-0.5508 -25.5,2.21168 -10.1526,1.19756 -24.5395,2.15579 -33,2.19796 -17.0229,0.0849 -22.9583,-1.1868 -31.1462,-6.67298 -2.6696,-1.78874 -7.43392,-4.06041 -10.58737,-5.04816 -6.19661,-1.94096 -8.69574,-4.65579 -14.05392,-15.2669 -1.40608,-2.78455 -3.26662,-5.65215 -4.13452,-6.37245 -2.10327,-1.74556 -1.98888,-4.9457 0.42199,-11.80506 2.90521,-8.26585 2.69622,-10.05504 -1.25,-10.70126 -1.7875,-0.29271 -73.675,-7.53538 -159.75,-16.09481 -86.075,-8.55943 -157.531769,-15.77873 -158.792819,-16.0429 -2.85133,-0.59731 -3.93656,-3.13906 -2.09392,-4.90425 1.15561,-1.10705 27.7202799,1.31652 159.386739,14.54129 86.9,8.72836 159.19495,15.88606 160.65544,15.906 l 2.65544,0.0362 -0.53275,-7.77267 c -0.56997,-8.31559 -0.75357,-7.61378 8.6463,-33.04981 2.60252,-7.04241 3.07665,-9.73407 3.08258,-17.5 0.008,-10.35204 1.8869,-19.31018 8.21763,-39.17752 4.57278,-14.35053 5.31228,-15.68754 14.64068,-26.46997 8.1698,-9.4432 13.9606,-18.36774 14.5345,-22.39969 2.782,-19.54755 4.8057,-25.16699 12.9628,-35.99603 3.3756,-4.48123 8.0939,-11.44751 10.4853,-15.48061 2.8646,-4.83127 5.8755,-8.4111 8.8258,-10.49331 7.6535,-5.40156 33.848,-14.66034 41.4765,-14.66034 1.5255,0 6.2782,1.11926 10.5617,2.48723 10.0106,3.19702 12.8277,3.12725 18.1036,-0.44838 4.1683,-2.82494 9.4557,-4.34157 19.4345,-5.5745 2.6716,-0.3301 4.7509,-1.10703 4.7521,-1.77562 0.001,-0.6538 -2.6871,-6.58873 -5.9739,-13.18873 -8.2002,-16.46607 -8.9997,-20.0804 -10.2124,-46.1673 -1.158,-24.90982 -0.4772,-30.93181 5.2693,-46.61452 3.958,-10.80165 8.2423,-17.10462 18.7487,-27.582662 16.596,-16.55128 22.637,-19.23833 44.7453,-19.90271 28.9749,-0.87073 44.7442,4.27894 55.1514,18.01044 7.4669,9.852062 15.4727,31.880752 17.2381,47.432182 0.8366,7.36962 -0.9517,33.02169 -3.8569,55.32457 -1.0705,8.21803 0.051,16.36061 3.9118,28.41485 l 3.0441,9.50324 8.7162,5.66243 c 8.5018,5.52315 22.5802,16.92174 38.7008,31.33414 12.1693,10.87977 13.8313,11.80337 23.5154,13.06756 12.722,1.66077 21.9359,4.46558 33.1405,10.08829 12.6599,6.35302 17.0139,10.70563 27.1244,27.11576 10.14,16.45787 13.733,24.4429 13.7427,30.54177 0.029,18.2091 3.0856,26.79622 14.5449,40.86114 3.5449,4.35095 8.0541,10.96501 10.0204,14.69792 3.3107,6.28501 3.7532,8.20838 5.9827,26 3.5562,28.37823 3.4097,27.86785 10.9675,38.2129 2.8127,3.85 5.508,7.66087 5.9896,8.4686 0.4815,0.80773 1.2117,6.20773 1.6227,12 0.4109,5.79227 1.9395,15.4814 3.3968,21.5314 3.5611,14.78417 4.3237,30.50732 1.9959,41.15242 -0.9438,4.3162 -5.3028,18.6476 -9.6867,31.8476 -8.5042,25.6067 -10.5007,33.693 -14.2414,57.6819 -2.1159,13.5698 -2.2224,15.6369 -0.986,19.1411 2.7038,7.6636 0.8993,37.3534 -2.9492,48.5239 -0.7837,2.2748 -3.2071,7.1772 -5.3854,10.8945 -2.1782,3.7172 -6.1197,10.5836 -8.7589,15.2586 -6.9431,12.2989 -16.8375,27.0355 -20.4573,30.4692 -2.7301,2.5896 -4.0213,3.0195 -10.0998,3.363 -4.9903,0.282 -7.6076,-0.023 -9.2165,-1.0737 -1.4236,-0.9298 -2.9798,-1.1802 -4.2469,-0.6833 -3.1853,1.249 -7.9581,1.0415 -9.9755,-0.4336 -1.1875,-0.8683 -3.415,-1.1829 -6.1745,-0.8718 -2.3743,0.2676 -5.6703,-0.074 -7.3246,-0.7593 -3.1097,-1.2881 -7.0254,-6.5153 -7.0254,-9.3785 0,-0.9913 -0.8245,-1.632 -2.1,-1.632 -3.0122,0 -8.5062,-5.918 -9.7914,-10.5469 -0.6036,-2.1742 -1.0917,-6.2031 -1.0847,-8.9531 0.012,-4.6841 2.0635,-20.9704 3.5586,-28.25 0.6302,-3.0685 0.5067,-3.25 -2.2107,-3.25 -1.685,0 -4.919,1.4509 -7.801,3.5 -4.3296,3.0782 -5.6549,3.4993 -10.9968,3.4944 -7.6571,-0.01 -13.1486,-1.4923 -17.4092,-4.7084 -4.6428,-3.5049 -7.1567,-8.0421 -7.1611,-12.9252 -0.01,-6.1166 2.2292,-8.2136 9.4963,-8.9113 8.5145,-0.8173 10.1467,-1.2391 12.0111,-3.1035 1.1415,-1.1415 5.0974,-2.0423 12.8199,-2.919 6.143,-0.6975 11.2613,-1.3038 11.374,-1.3476 0.1128,-0.044 2.932,-3.6616 6.2648,-8.0398 6.8399,-8.9852 9.7633,-11.4489 19.0302,-16.0379 3.575,-1.7704 7.557,-4.1825 8.849,-5.3603 5.3207,-4.8505 10.9945,-19.9889 14.7433,-39.3367 2.9637,-15.2961 2.8113,-17.7545 -2.1324,-34.3863 -3.2981,-11.0954 -4.4836,-20.3319 -4.5181,-35.1987 -0.026,-11.17032 0.362,-14.61496 2.5014,-22.21972 3.1073,-11.04508 3.1143,-11.76083 0.1764,-18.06998 -1.8914,-4.06183 -4.027,-6.31792 -10.7402,-11.34581 -11.272,-8.44224 -16.9553,-14.95478 -25.5932,-29.32741 -2.9295,-4.87448 -4.3171,-6.39868 -5.0071,-5.5 -0.525,0.68376 -4.065,6.77302 -7.8668,13.53169 -3.8018,6.75867 -9.0668,15.08367 -11.7,18.5 -12.0659,15.65443 -13.6875,18.73983 -17.2781,32.87466 -3.5648,14.03317 -7.9881,37.19647 -9.5169,49.83687 -0.7744,6.4023 -0.5258,9.549 1.6983,21.5 1.9401,10.4249 2.4497,15.6598 1.9955,20.5 -0.3355,3.575 -1.0561,12.1933 -1.6014,19.1518 -1.2701,16.2085 -4.456,32.8426 -7.6319,39.8482 -4.1815,9.2237 -18.8181,31.9241 -27.4029,42.5 -4.4645,5.5 -9.8536,12.3004 -11.9757,15.112 -10.2295,13.5531 -28.5398,23.3209 -43.8141,23.3732 -3.2655,0.011 -6.6706,1.2736 -14,5.1905 -5.3268,2.8467 -11.4851,6.3851 -13.6851,7.8632 -6.5578,4.4059 -11.9083,6.8061 -20.1768,9.0514 -11.3324,3.0773 -17.8846,7.4688 -27.9076,18.7049 -9.5967,10.7582 -14.7272,19.9371 -22.7528,40.7061 -6.3426,16.41404 -10.6361,23.38174 -21.1628,34.34404 -20.214,21.0506 -49.9732,40.8026 -97.4467,64.6783 -15.23246,7.6608 -20.29554,10.7129 -23.36355,14.0841 -3.17414,3.4877 -4.79597,4.434 -8.5533,4.9903 -7.25702,1.0745 -11.74522,2.9798 -22.11369,9.3879 -11.79461,7.2895 -15.26658,8.7744 -24.76423,10.5916 -8.99312,1.7207 -14.39169,1.7161 -19.93437,-0.017 z m 32.12721,-10.8509 c 4.92326,-2.3153 11.44826,-6.3431 14.5,-8.9507 4.62864,-3.9551 6.22071,-4.7426 9.60227,-4.75 5.80769,-0.013 13.42998,-4.1749 18.36597,-10.0286 3.80926,-4.5176 8.08037,-6.6139 8.08037,-3.9659 0,1.1573 9.10266,-3.2636 18.28372,-8.8799 3.4189,-2.0914 14.9504,-8.4312 25.6254,-14.0883 25.3577,-13.4382 27.154,-14.527 40.9082,-24.7967 15.4403,-11.5286 30.6872,-26.6967 36.1014,-35.9148 2.3147,-3.9409 6.6888,-14.06594 9.7202,-22.50004 7.9333,-22.0721 23.2339,-47.4058 37.1951,-61.5855 6.4723,-6.5736 9.4166,-8.1161 11.7675,-6.1649 1.2952,1.0749 0.6991,2.0644 -4.2667,7.0826 -3.1747,3.2082 -5.5427,5.8331 -5.2622,5.8331 1.5382,0 28.9405,-10.4023 31.7204,-12.0415 1.8112,-1.068 6.3112,-4.3654 10,-7.3276 3.6888,-2.9622 11.207,-7.9688 16.707,-11.1257 14.1497,-8.1218 15.2257,-9.0183 18.4171,-15.3455 5.3126,-10.5326 5.326,-10.875 1.4753,-37.4975 -1.9222,-13.2892 -3.9895,-26.1872 -4.594,-28.6622 -3.8589,-15.8004 -22.3496,-39.0282 -37.1693,-46.6918 -10.0787,-5.2119 -23.3279,-7.3372 -33.1372,-5.3155 -14.292,2.9455 -30.5721,14.093 -52.5643,35.9923 -15.6006,15.5346 -18.4979,20.224 -19.5393,31.6252 -0.7385,8.0844 0.3636,9.911 3.9482,6.5434 5.1498,-4.838 11.3431,-6.4982 26.6635,-7.1475 8.1577,-0.3457 15.4554,-1.1375 16.6842,-1.8103 3.1959,-1.7496 5.3158,-1.468 5.3158,0.7064 0,2.8567 -4.7785,4.1169 -20,5.2741 -7.5875,0.5768 -15.1485,1.7082 -17.2641,2.5832 -4.5126,1.8665 -18.7384,16.3649 -21.6422,22.0568 -1.1243,2.2038 -3.4165,7.4614 -5.0937,11.6837 -6.9819,17.5758 -10.3205,21.4232 -29.5,33.9957 -14.1382,9.2679 -18.3767,13.2509 -28.2044,26.5043 -2.2431,3.025 -5.5269,8.425 -7.2972,12 -1.7704,3.575 -4.2115,7.85 -5.4246,9.5 -1.2131,1.65 -3.4841,6.825 -5.0467,11.5 -2.5564,7.6482 -2.9142,10.404 -3.5707,27.5 -0.80536,20.97264 -1.71874,25.40314 -8.8229,42.79624 -5.75793,14.0972 -10.40321,22.2038 -12.72332,22.2038 -3.62817,0 -2.21211,-7.6653 4.06421,-22 10.56155,-24.122 11.51882,-28.0169 11.87322,-48.31024 0.3009,-17.23 0.39138,-17.892 3.48065,-25.4658 4.90824,-12.0336 4.29444,-16.4712 -3.41902,-24.7176 -4.10667,-4.3903 -4.69877,-5.6127 -5.33589,-11.0162 -0.79574,-6.7487 -1.84871,-8.1997 -9.63208,-13.2727 -3.28755,-2.1427 -5.77798,-4.807 -7.44129,-7.9607 -2.16782,-4.1104 -3.33951,-5.0973 -8.81824,-7.4275 -7.29558,-3.103 -9.50513,-5.507 -11.8245,-12.8649 -1.40063,-4.4433 -2.25349,-5.5616 -5.26434,-6.9029 -8.7278,-3.8881 -18.75116,4.4085 -25.55477,21.1523 l -2.43979,6.0044 1.93768,9.3909 c 2.46492,11.9461 2.49913,14.1382 0.21396,13.7084 -0.9625,-0.1811 -2.19421,-1.3391 -2.73713,-2.5734 -1.31001,-2.9782 -1.96312,-2.8425 -4.84392,1.0059 -4.94854,6.6107 -5.91332,9.8057 -6.89875,22.8462 -0.91455,12.1025 -0.81909,13.3936 2.13624,28.8934 5.53844,29.04764 4.28379,40.77194 -6.95718,65.01224 -6.17575,13.3175 -6.28488,13.7056 -8.15492,28.9982 -2.41189,19.7237 -2.0298,28.7218 1.51431,35.6622 3.67612,7.1989 10.23999,11.5769 19.89458,13.2693 8.33759,1.4615 14.41179,0.4039 24.24816,-4.2219 z m 76.99473,-133.79674 c -0.8745,-1.4151 -1.0909,-1.2436 14.13,-11.1938 14.5314,-9.4994 27.3758,-20.9265 32.9335,-29.2995 6.186,-9.3197 11.4626,-20.6945 12.603,-27.1686 1.0832,-6.1497 2.8605,-9.0037 4.8436,-7.7781 5.1222,3.1657 -9.4135,36.3584 -20.1488,46.0104 -10.1001,9.0808 -39.9084,30.5167 -42.4359,30.5167 -0.6894,0 -1.5558,-0.4892 -1.9254,-1.0871 z m 71.5539,-8.6812 c 0,-0.4226 5.6297,-6.7781 12.5104,-14.1235 8.4072,-8.9751 13.6553,-15.5286 16.0015,-19.9817 4.8741,-9.2515 7.9907,-12.9677 9.5741,-11.4159 0.9763,0.9569 0,3.2624 -4.6682,11 -7.7641,12.8749 -19.4518,28.3563 -24.3163,32.209 -3.5295,2.7954 -9.1015,4.2109 -9.1015,2.3121 z m -109.61728,-24.4892 c -2.85614,-5.6681 -5.68937,-7.5492 -13.38274,-8.8855 -5.74063,-0.9971 -7.05492,-1.6806 -11.25,-5.8502 -3.27755,-3.2576 -4.75,-5.5404 -4.75,-7.364 0,-1.4535 0.20117,-2.6428 0.44704,-2.6428 0.24588,0 3.3629,2.207 6.92672,4.9044 3.56382,2.6975 7.97515,5.2166 9.80296,5.5981 8.1264,1.696 17.82328,10.2515 17.82328,15.7253 0,4.3188 -3.1065,3.4974 -5.61726,-1.4853 z m -36.71607,-25.4092 c -0.36667,-0.3666 -0.66667,-2.4121 -0.66667,-4.5454 0,-4.1246 3.4251,-8.7879 6.45455,-8.7879 1.81665,0 2.17622,7.2107 0.5702,11.4349 -0.93955,2.4712 -4.67111,3.5854 -6.35808,1.8984 z m 197.84615,-10.3126 c -0.9817,-1.5884 1.0473,-4.418 7.2009,-10.0425 6.7344,-6.1552 8.4731,-6.9767 22.0501,-10.4184 5.5767,-1.4136 11.7399,-3.5145 13.6962,-4.6687 3.7488,-2.2118 6.54,-1.974 6.54,0.5572 0,2.359 -6.4589,5.0441 -19.205,7.984 l -11.705,2.6998 -8.5032,7.4339 c -4.6767,4.0887 -8.7204,7.434 -8.9859,7.434 -0.2656,0 -0.7552,-0.4407 -1.0881,-0.9793 z m 10.0388,-32.9371 c -0.3115,-0.5041 -0.068,-3.2387 0.5404,-6.0769 1.4067,-6.5595 0.2092,-11.6214 -5.1364,-21.7108 -3.9233,-7.4049 -4.5186,-9.6652 -3.3486,-12.7141 1.0265,-2.6751 3.393,-1.8407 3.393,1.1964 0,1.528 1.5024,5.9155 3.3387,9.75 5.3892,11.2534 6.966,16.9539 6.1658,22.2906 -1.0294,6.8652 -3.2168,10.0737 -4.9529,7.2648 z m 21.5777,-25.4278 c -2.0417,-2.4602 -0.5506,-3.4576 4.3442,-2.9059 9.8299,1.108 27.4303,-7.3894 33.461,-16.1547 3.5062,-5.0961 5.0655,-5.7873 5.0655,-2.2453 0,5.1841 -8.6285,13.9018 -19,19.1966 -6.8718,3.5081 -21.6276,4.812 -23.8707,2.1093 z M 184.09151,956.5149 c 3.85848,-1.3124 8.5498,-3.393 10.42515,-4.6236 l 3.40974,-2.2374 0.11305,-19.1265 c 0.1364,-23.0775 1.15547,-27.6773 10.67759,-48.1958 8.29673,-17.878 10.30686,-26.8411 8.81282,-39.2957 -0.56636,-4.72144 -1.25937,-6.64164 -2.6835,-7.43564 -4.34284,-2.4214 -12.3639,-11.1203 -15.1921,-16.4761 -4.15487,-7.8681 -8.83609,-23.0583 -10.21933,-33.1609 -1.32925,-9.7083 -3.18789,-15.8219 -6.61958,-21.7739 -2.98221,-5.1724 -16.88167,-23.0571 -19.68092,-25.3238 -1.83612,-1.4868 -2.05017,-2.836 -2.12491,-13.3949 -0.082,-11.5807 -0.12156,-11.7746 -2.88888,-14.1556 -2.41109,-2.0745 -3.81775,-2.411 -10,-2.3922 -13.4117,0.041 -21.81546,6.0774 -23.63647,16.9781 -0.45762,2.7393 -1.11296,3.575 -3.01521,3.845 -1.3671,0.194 -2.91723,-0.3207 -3.54296,-1.1765 -0.98797,-1.3511 -1.57468,-1.3144 -5.24275,0.3279 -3.50111,1.5674 -4.30641,2.5083 -5.28641,6.1764 -1.64147,6.1438 -2.22193,7.0194 -6.05501,9.1337 -8.110029,4.4734 -11.391669,9.6506 -10.502549,16.5692 1.28836,10.0253 1.36807,9.6243 -1.91288,9.6243 -3.70113,0 -5.41613,2.5206 -5.46456,8.0316 -0.0267,3.0395 1.088,5.9194 4.53009,11.7032 4.01009,6.7384 4.7339,8.8715 5.94953,17.5339 1.99521,14.2175 4.81104,20.7779 16.394839,38.19714 5.65665,8.5062 12.15351,19.0812 14.43746,23.5 l 4.15264,8.0342 -0.2961,19.5929 c -0.32785,21.6943 0.73965,29.684 5.236,39.1885 8.73297,18.4599 30.19077,27.1466 50.22521,20.3325 z m -14.13706,-75.5255 c -0.3337,-1.0514 -0.99591,-12.1889 -1.47158,-24.75 -0.88642,-23.40804 -1.14625,-25.06254 -7.23695,-46.08324 -0.96577,-3.3332 -0.9687,-4.506 -0.0136,-5.4611 1.77945,-1.7795 4.5102,1.4657 7.02388,8.347 2.74437,7.5128 7.98026,66.17794 6.10778,68.43414 -1.65777,1.9975 -3.69232,1.7729 -4.40952,-0.4868 z M 98.719971,774.25316 c -0.74045,-0.3006 0.13744,-1.6698 2.272899,-3.5447 1.91363,-1.6802 5.30874,-5.6629 7.54468,-8.8505 3.99773,-5.6991 4.18728,-5.8226 11.39636,-7.4265 8.44726,-1.8794 10.64296,-3.6018 8.1305,-6.378 -0.91833,-1.0148 -1.63801,-3.496 -1.63801,-5.6474 l 0,-3.8374 6.5,6.7944 c 3.575,3.7369 6.5,6.9005 6.5,7.0303 0,0.5047 -8.80815,3.4778 -14.78022,4.9889 -8.89896,2.2517 -10.73512,3.2791 -12.50922,6.9995 -3.69917,7.7572 -9.00672,11.6622 -13.416989,9.8714 z m 233.298949,-3.2857 c 12.1024,-16.2485 14.5094,-18.5123 29.7125,-27.9455 12.6949,-7.8769 18.7992,-14.2537 20.8576,-21.7885 0.5759,-2.1079 3.548,-10.1325 6.6048,-17.8325 4.9443,-12.4545 5.6278,-15.0675 6.1919,-23.6697 0.5681,-8.6628 1.0647,-10.5373 4.7687,-18 2.705,-5.45 7.4785,-12.3062 13.8053,-19.8289 9.5168,-11.3155 9.6629,-11.5679 9.1796,-15.8561 -0.2701,-2.3967 -2.3771,-8.1636 -4.6822,-12.8154 -3.7017,-7.4704 -4.9696,-9.0299 -10.8608,-13.3584 -7.8158,-5.7425 -23.6139,-14.1999 -31.7606,-17.0027 -10.5173,-3.6185 -30.8512,-2.3123 -40.5554,2.6052 -4.6943,2.3788 -10.6724,9.7703 -12.3304,15.2454 -0.3863,1.2757 -6.0604,7.9595 -12.6091,14.8528 -9.32371,9.8143 -12.72107,14.1804 -15.66057,20.126 -3.71095,7.5059 -3.75385,7.7305 -3.75385,19.6472 0,13.0599 0.75339,17.5546 2.94246,17.5546 0.77239,0 3.57331,-1.6556 6.22427,-3.6791 2.65096,-2.0236 9.41424,-5.8299 15.02949,-8.4587 8.0302,-3.7592 10.5522,-5.442 11.8145,-7.883 1.6959,-3.2794 4.714,-3.7663 5.2754,-0.8511 0.633,3.2868 -4.8103,7.6489 -17.0192,13.6388 -11.17136,5.4809 -13.04104,6.8094 -20.93469,14.8757 -9.41249,9.6184 -10.8165,12.4938 -10.82665,22.1731 -0.007,6.4434 -0.80052,8.0495 -7.65605,15.4913 -2.94224,3.1938 -5.32923,6.5688 -5.30443,7.5 0.1215,4.5606 2.64348,7.5217 9.47867,11.129 5.59502,2.9529 7.45898,4.5611 9.41451,8.1229 1.34105,2.4426 2.90638,4.6254 3.47851,4.8506 0.57213,0.2252 3.39665,2.6381 6.27671,5.3619 5.86659,5.5484 9.3065,11.7146 9.3065,16.6825 0,2.4893 1.00859,4.4166 4.02222,7.6861 2.2123,2.4 4.559,5.5415 5.2149,6.981 l 1.1926,2.6175 1.529,-2.3028 c 0.8409,-1.2665 6.0761,-8.4077 11.6338,-15.8692 z m 22.6793,-52.716 c 0.6438,-5.6305 -1.8647,-11.2595 -6.0052,-13.4754 -3.9769,-2.1284 -11.5398,-11.0333 -14.4812,-17.0509 -4.4364,-9.0762 -6.1733,-20.0363 -3.5854,-22.6242 2.0451,-2.0451 2.8,-1.3469 2.8,2.5899 0,4.8948 2.4166,14.1249 5.103,19.4906 3.6159,7.2222 7.623,10.5824 15.3855,12.9018 3.8563,1.1522 7.569,2.5336 8.2505,3.0696 1.7424,1.3707 0.5905,2.7481 -2.298,2.7481 -2.8188,0 -2.77,-0.1921 -1.3667,5.3808 1.3306,5.2845 0.078,10.9662 -2.5289,11.4682 -1.6264,0.3132 -1.767,-0.1833 -1.2736,-4.4985 z m 372.3175,48.4742 c 1.2563,-1.2786 4.0002,-5.0561 6.0975,-8.3944 2.0972,-3.3383 5.5872,-8.7383 7.7555,-12 2.1682,-3.2617 5.3777,-9.5853 7.1322,-14.0525 1.7545,-4.4672 5.1949,-11.0504 7.6455,-14.6293 7.2671,-10.6134 7.8758,-16.2674 6.701,-62.2485 l -0.3066,-12 7.1654,-28 c 3.9409,-15.4 9.3905,-36.325 12.1102,-46.5 6.6796,-24.9898 6.6988,-25.1938 3.7486,-40.00002 -1.3699,-6.875 -2.9964,-16.325 -3.6144,-21 -0.8358,-6.32218 -1.8796,-9.73404 -4.0739,-13.31645 -1.6227,-2.64904 -2.9503,-5.46154 -2.9503,-6.25 0,-1.7406 3.1401,-1.89339 4.8,-0.23355 0.9333,0.93333 1.2,0.63334 1.2,-1.34996 0,-2.60979 -3.9905,-8.82594 -7.8859,-12.28425 -4.7123,-4.18353 -6.1448,-8.03442 -7.1554,-19.23574 -1.6089,-17.83375 -3.6587,-28.9949 -6.4409,-35.07216 -1.4468,-3.16008 -7.6676,-13.3485 -13.8241,-22.64095 l -11.1937,-16.89535 -1,8.57132 c -1.1021,9.44641 -1.9549,11.17307 -4.0818,8.26439 -2.0836,-2.84948 -1.7819,-14.49583 0.6895,-26.61296 2.8455,-13.95224 2.3375,-18.51741 -3.3759,-30.3352 -6.4431,-13.32716 -11.7143,-20.80608 -21.3494,-30.29111 -5.752,-5.66243 -10.2469,-9.0957 -14.5969,-11.14924 -7.645,-3.60907 -20.4081,-7.16879 -25.7031,-7.16879 -3.4028,0 -3.8291,0.25279 -3.3722,2 0.3577,1.36784 0.031,2 -1.0346,2 -0.8567,0 -1.8151,-0.41675 -2.1299,-0.92611 -0.3149,-0.50936 -4.0539,-3.37353 -8.3091,-6.36481 -4.2551,-2.99128 -14.5086,-11.72132 -22.7856,-19.40009 -14.2448,-13.21539 -22.6837,-19.82641 -30.3159,-23.74956 -4.0439,-2.07866 -6.1574,-0.79456 -3.1587,1.91919 2.6778,2.4234 2.5547,3.52138 -0.3949,3.52138 -3.3574,0 -6.2882,-5.1011 -8.1397,-14.16709 -4.4326,-21.70522 -6.217,-34.58867 -5.3886,-38.90697 0.4669,-2.43427 1.5847,-12.71348 2.484,-22.8427 1.9887,-22.39963 1.1316,-32.63674 -4.235,-50.58324 -4.4346,-14.8295 -7.1889,-20.43933 -12.7812,-26.031612 -9.9482,-9.94819 -22.6796,-13.78643 -46.0875,-13.89433 l -16.0664,-0.0741 -8.5743,4.24431 c -7.0132,3.47151 -9.9454,5.7018 -16.1047,12.249162 -10.2092,10.85237 -15.16,18.73368 -18.7187,29.79822 -4.4395,13.80331 -5.0016,19.96969 -4.0295,44.20954 0.967,24.112 1.0264,24.36559 9.3976,40.10708 3.0394,5.71543 6.9391,13.99169 8.666,18.39169 3.4064,8.67928 10.9399,22.23385 13.7919,24.81487 2.6821,2.42721 13.6779,4.65375 23.0646,4.67035 7.4346,0.0131 8.9995,-0.32605 14.1366,-3.06411 11.4261,-6.09003 30.5425,-23.3552 34.7128,-31.35106 0.9649,-1.85022 1.7607,-7.18961 2.1593,-14.48889 0.5332,-9.76319 0.8945,-11.60924 2.3259,-11.8827 2.3906,-0.45675 4.1667,6.4065 4.107,15.87033 -0.086,13.64157 -6.2608,23.26713 -23.0269,35.89563 -13.3988,10.09221 -20.704,13.72779 -29.2747,14.56915 -12.1153,1.18932 -27.5936,-2.135 -33.6486,-7.2268 -2.6318,-2.21321 -10.8163,-14.42189 -13.0266,-19.43169 -1.5971,-3.61992 -1.7119,-3.67638 -8.8309,-4.34349 -8.2266,-0.77089 -11.1994,0.19681 -18.3217,5.96404 -5.2197,4.22667 -6.8662,4.30645 -19.7562,0.95736 -8.7886,-2.28348 -10.5047,-2.4381 -16.5868,-1.49445 -13.6566,2.1189 -25.0477,8.21463 -34.9927,18.7257 -9.5616,10.10591 -20.978,29.68776 -22.2272,38.12503 -4.4297,29.9202 -6.5306,40.14892 -8.8171,42.92972 -2.0668,2.51346 -2.9257,0.0213 -2.2304,-6.47135 l 0.6992,-6.52938 -7.1527,7.71419 c -8.8061,9.49741 -10.0618,11.92191 -16.8097,32.45445 -4.82005,14.66668 -5.4886,17.75932 -6.30328,29.15833 -0.86593,12.11622 -1.16287,13.3495 -5.96043,24.75531 -5.97676,14.2093 -6.74929,18.66269 -4.97227,28.66384 1.28378,7.22514 1.444,7.5163 4.38491,7.96829 5.81238,0.89331 22.40697,2.54737 25.55697,2.54737 l 3.1635,0 -2.947,-3.75 c -1.6208,-2.0625 -3.7128,-5.24646 -4.6487,-7.07548 -3.3516,-6.54962 -4.2941,-20.91512 -1.3069,-19.91938 0.5958,0.19859 1.8622,2.6527 2.8142,5.45356 2.4158,7.10716 9.2244,21.31856 11.5775,24.1654 1.8853,2.28102 3.4498,2.52478 39.9026,6.21731 20.8671,2.11377 38.9324,3.85793 40.145,3.8759 1.7406,0.0258 2.3439,-0.70969 2.8663,-3.49441 0.7446,-3.96859 1.7836,-4.70554 9.0309,-6.40497 4.5121,-1.05806 5.2207,-1.58335 6.1293,-4.54383 l 1.0274,-3.34746 -4.3887,-1.10508 c -8.5024,-2.14093 -15.8618,-6.22355 -32.2833,-17.90907 -25.5654,-18.19236 -32.502,-22.0618 -42.7069,-23.82283 -8.1197,-1.40121 -8.8259,-1.37257 -14.6495,0.59407 -3.3652,1.13645 -6.4812,2.06627 -6.9244,2.06627 -1.5479,0 -0.79,-3.70436 1.1098,-5.4236 2.634,-2.38376 13.3251,-5.5764 18.6735,-5.5764 l 4.4109,0 0.017,-8.25 c 0.034,-16.29714 4.3056,-28.79584 12.5591,-36.75 5.4302,-5.23333 5.4443,-5.33064 -1.0765,7.43134 l -5,9.7856 -0.3473,12.19078 c -0.4577,16.06621 0.3333,18.00941 9.5628,23.49255 11.1531,6.62594 15.9626,5.63387 25.0852,-5.1744 11.5412,-13.67375 14.9206,-22.46248 16.4679,-42.82801 1.2623,-16.6142 0.7808,-18.62755 -4.0185,-16.80284 -2.8042,1.06617 -5.2501,0.57954 -5.2501,-1.04458 0,-0.55679 1.1264,-1.29503 2.503,-1.64054 4.2535,-1.06755 11.6732,-11.9928 13.5215,-19.9099 l 0.7004,-3 1.5364,3.46195 c 1.4508,3.26926 1.4056,3.71454 -0.8122,8 -2.1278,4.11156 -2.4387,6.51605 -3.3077,25.58483 -1.3339,29.27139 0.066,35.2631 9.581,41.01726 8.7076,5.26578 14.4144,6.63805 29.7776,7.16041 12.6866,0.43135 14.548,0.26903 19.8412,-1.73018 3.2127,-1.21341 8.2688,-4.18352 11.2359,-6.60023 2.9671,-2.41672 5.626,-4.39404 5.9088,-4.39404 0.2828,0 0.5141,0.86724 0.5141,1.9272 0,2.25878 -5.7612,7.28079 -11.6098,10.12025 -6.5808,3.19487 -18.7346,5.07189 -33.8902,5.23392 -15.1524,0.162 -20.5456,-1.10863 -28.9693,-6.82514 -1.9908,-1.35093 -3.8245,-2.45623 -4.0751,-2.45623 -0.9143,0 -0.4252,3.63037 0.6314,4.68701 0.5979,0.59786 1.7135,5.28108 2.4793,10.40716 1.0431,6.98239 2.1396,10.52232 4.3717,14.11298 2.679,4.30963 2.7892,4.79285 1.0935,4.79285 -1.0373,0 -3.209,-1.60511 -4.826,-3.5669 -3.3277,-4.03698 -3.7053,-3.68444 -4.7868,4.46834 -0.7554,5.6941 -0.6141,5.81429 12.2621,10.43098 l 7.1807,2.57464 3.0642,-5.42943 c 3.9064,-6.92172 14.7391,-18.42381 22.7055,-24.10854 11.1449,-7.95282 29.9719,-15.36909 39.016,-15.36909 1.6607,0 3.2701,-0.25066 3.5765,-0.55703 0.3063,-0.30636 -1.2889,-3.74536 -3.545,-7.64221 -6.583,-11.37034 -6.2834,-18.41266 2.3894,-56.1634 2.1307,-9.27445 4.388,-17.482 5.0162,-18.23899 2.1274,-2.56327 2.7318,-0.42156 1.3694,4.85193 -2.5171,9.74315 -5.4681,29.04625 -6.6027,43.19021 -1.3355,16.64727 -0.404,23.05371 4.2773,29.41933 2.6249,3.56933 3.559,4.14016 6.7745,4.14016 5.8299,0 15.1584,1.99058 19.3501,4.12905 2.6718,1.36303 6.2913,2.02776 12.0681,2.21631 10.1633,0.33174 15.9624,2.85382 21.1674,9.20584 l 3.6455,4.4488 8.183,-0.0309 c 22.0543,-0.0832 37.2495,-5.2128 49.14,-16.58863 10.3551,-9.90694 14.711,-24.63419 12.9047,-43.63049 -0.3007,-3.1625 -0.1676,-5.74371 0.2958,-5.73603 0.4634,0.008 2.5418,4.17018 4.6187,9.25 2.0768,5.07982 6.1302,13.06103 9.0075,17.73603 6.1168,9.93844 8.4513,11.43915 20.0026,12.8585 7.9812,0.98067 10.7138,2.23283 10.7138,4.90936 0,1.29916 -1.4696,1.44199 -10,0.97194 -9.8616,-0.54341 -10,-0.51994 -10,1.69462 0,5.93182 11.2917,42.2245 16.1341,51.85666 3.805,7.56863 10.9008,18.73645 15.5144,24.41779 1.8799,2.31488 8.5932,7.66994 14.9185,11.90013 6.3253,4.2302 11.7369,8.0737 12.0258,8.54113 1.0562,1.70895 4.4655,0.80925 5.3056,-1.40013 0.4706,-1.2375 2.2909,-5.68764 4.0452,-9.8892 3.9781,-9.52781 5.6514,-20.44076 4.0868,-26.65425 -1.4562,-5.78308 -5.2236,-13.21983 -10.4899,-20.70653 -6.5072,-9.251 -9.5405,-14.92227 -9.5405,-17.83786 0,-1.46418 0.4121,-2.66214 0.9158,-2.66214 1.5549,0 16.2175,23.09819 19.3612,30.5 2.1989,5.17747 3.1033,9.14798 3.4734,15.25 0.2752,4.5375 0.7525,8.25 1.0605,8.25 0.3081,0 1.5999,-0.97677 2.8707,-2.17061 4.0466,-3.80158 3.8216,-1.00541 -0.4128,5.13097 -2.2513,3.26244 -5.8143,10.34349 -7.9178,15.73567 -3.7681,9.65908 -3.8212,9.98501 -3.5935,22.05397 0.2223,11.78188 -0.4723,14.59298 -2.5945,10.5 -0.4991,-0.9625 -1.212,-3.775 -1.5843,-6.25 -0.8286,-5.50764 -2.2447,-8.17794 -5.8265,-10.98687 l -2.7478,-2.15485 -1.0659,2.80345 c -0.5862,1.5419 -2.1622,7.02305 -3.5022,12.18034 -4.0404,15.55055 -3.1752,26.90515 3.5934,47.15795 4.495,13.4502 4.7791,20.8403 1.5567,40.5 -3.6799,22.4509 -9.4653,41.3101 -14.3769,46.8656 -0.9402,1.0635 -5.9674,3.9208 -11.1714,6.3496 -7.6742,3.5816 -11.0072,5.8995 -17.6412,12.2684 -9.8751,9.4805 -11.8674,10.5581 -21.0288,11.3736 -3.9225,0.3491 -9.0975,1.5267 -11.5,2.6168 -2.5571,1.1603 -6.5636,1.9912 -9.6636,2.004 -4.2714,0.018 -5.7701,0.4966 -7.75,2.4765 -2.8848,2.8849 -3.0554,4.7197 -0.7946,8.5469 4.6092,7.8027 17.5597,9.3534 26.8305,3.2127 3.7591,-2.4899 5.9258,-3.2141 9.6159,-3.2141 7.4769,0 9.1809,-1.1137 12.9513,-8.4649 1.8754,-3.6565 4.16,-7.3271 5.0769,-8.1568 3.7408,-3.3854 2.657,1.2404 -3.652,15.587 -5.4768,12.4544 -6.7605,16.4262 -7.5226,23.2758 -0.5054,4.5424 -1.3674,10.0589 -1.9155,12.2589 -2.1114,8.4737 -0.1679,13.1138 6.023,14.3799 2.9314,0.5996 3.8124,1.512 6.1321,6.3504 3.116,6.4997 5.8603,8.5191 9.391,6.9104 2.6263,-1.1966 5.784,-6.9553 11.8931,-21.6901 2.5482,-6.146 5.9398,-12.2265 8.7318,-15.6543 2.5109,-3.0827 6.0112,-8.3177 7.7784,-11.6333 3.5039,-6.574 6.0062,-8.5833 6.0062,-4.8228 0,2.9792 -5.7845,12.514 -11.3417,18.6949 -2.6482,2.9455 -5.0943,7.0106 -6.1278,10.1837 -0.9461,2.9046 -3.7025,9.0768 -6.1253,13.7159 -2.4229,4.6391 -4.4052,8.9945 -4.4052,9.6786 0,2.2863 3.1079,4.3867 6.4908,4.3867 4.3538,0 12.6156,-7.4093 17.4431,-15.6431 3.701,-6.3123 6.919,-10.3569 8.2404,-10.3569 1.4379,0 0.8914,3.7005 -0.7474,5.0606 -0.8652,0.7181 -2.4285,2.9823 -3.4739,5.0315 -1.0455,2.0493 -3.7126,5.8193 -5.9269,8.3778 -4.0687,4.701 -5.0652,7.9022 -2.7761,8.9183 2.6503,1.1764 9.0965,-0.2809 11.3393,-2.5635 z m -47.1759,-24.1897 c -0.6345,-1.6537 0.5081,-4.2489 8.4246,-19.135 1.755,-3.3 4.1109,-9.375 5.2354,-13.5 1.6462,-6.0385 2.8858,-8.3769 6.3613,-12 3.068,-3.1983 4.487,-5.6337 4.9056,-8.4191 0.3238,-2.1555 1.1635,-4.2743 1.8659,-4.7084 2.3763,-1.4686 3.0514,0.8815 1.8088,6.2966 -0.961,4.1878 -2.1659,6.219 -5.6192,9.4725 -2.672,2.5174 -4.3958,5.0264 -4.3958,6.3979 0,2.4203 -14.3758,33.51 -16.5946,35.888 -1.1485,1.231 -1.4228,1.1907 -1.992,-0.2925 z m 54.6088,-12.3017 c 0.024,-3.1267 3.3907,-8.2537 4.6151,-7.0293 1.0328,1.0327 -1.7997,8.9402 -3.3873,9.4563 -0.8045,0.2615 -1.2421,-0.6034 -1.2278,-2.427 z m -40.3555,-42 c -2.6559,-2.6559 2.9115,-10.3333 7.4933,-10.3333 2.6718,0 1.8701,2.1694 -1.3892,3.7592 -1.4199,0.6926 -3.0508,2.6051 -3.6242,4.25 -1.0932,3.1359 -1.39,3.4141 -2.4799,2.3241 z M 311.4264,413.44444 c 0,-4.18126 2.36412,-9.1857 8.99622,-19.0435 7.8389,-11.65147 9.6929,-16.80444 8.3901,-23.31859 -0.8385,-4.19234 -3.5798,-4.18787 -7.4159,0.0121 -3.2672,3.57722 -4.8284,3.14841 -3.3934,-0.93207 0.8435,-2.39834 6.5093,-7.26142 8.4601,-7.26142 0.4077,0 1.7138,0.7875 2.9023,1.75 2.8334,2.2945 4.3262,9.25685 3.4717,16.1914 -0.616,4.99956 -1.273,6.18923 -6.5329,11.82903 -6.5359,7.008 -8.4719,10.25311 -10.8335,18.15911 -1.9477,6.52023 -4.04472,7.87544 -4.04472,2.61394 z m 325.63952,-87.23735 c -0.3517,-0.35172 -0.6395,-1.86154 -0.6395,-3.35517 0,-3.67366 6.5628,-10.11947 13.8354,-13.58878 6.0053,-2.86472 16.1646,-4.44331 16.1646,-2.51171 0,1.45955 -3.9244,3.33659 -12.8666,6.15418 -6.9185,2.17992 -7.5718,2.6418 -10.7384,7.59203 -3.5827,5.60063 -4.7281,6.73687 -5.7555,5.70945 z m -128.8898,-27.28841 c -3.1747,-2.49717 -3.7039,-6.01774 -0.9047,-6.01774 1.0148,0 2.6595,0.9 3.655,2 2.6745,2.95527 4.4759,2.4921 9.8793,-2.54009 6.0537,-5.63774 8.9751,-7.17347 15.2143,-7.9977 6.0946,-0.80514 24.6009,1.70798 37.4064,5.07973 14.2727,3.75807 24.5901,4.21661 34.8769,1.55003 8.6771,-2.24931 10.2692,-2.13254 8.5295,0.62552 -3.4431,5.45843 -22.481,6.17096 -48.4064,1.81171 -9.075,-1.52593 -21,-2.97804 -26.5,-3.2269 -9.8278,-0.44469 -10.0775,-0.4 -14.5,2.5949 -2.475,1.67606 -5.6356,3.9716 -7.0235,5.1012 -3.9223,3.19232 -8.9332,3.61008 -12.2268,1.01934 z m -17.8095,-10.67659 c -7.5938,-6.50312 -16.0355,-10.26269 -24.539,-10.9286 -10.4035,-0.8147 -11.4012,-1.13929 -11.4012,-3.7091 0,-2.57309 2.5802,-6.70345 4.1875,-6.70345 0.6608,0 0.8642,1.2942 0.5284,3.36295 l -0.5457,3.36294 8.8338,0.66686 c 16.3365,1.23325 23.995,4.81894 27.8616,13.04474 3.4174,7.27016 2.6692,7.40743 -4.9254,0.90366 z m -74.8476,-7.16818 c -0.5378,-1.00486 -1.2846,-4.26736 -1.6595,-7.25 -0.7431,-5.9123 -3.1559,-10.71101 -6.3763,-12.68144 -2.2064,-1.35001 -2.8432,-5.24153 -0.8578,-5.24153 2.005,0 10.2923,9.53583 12.3039,14.15744 1.0396,2.38841 1.9576,4.46097 2.0401,4.60569 0.082,0.14472 1.9065,-0.47233 4.0534,-1.37122 6.0699,-2.54133 22.3693,-0.52735 23.6965,2.92797 0.3324,0.8654 -2.6657,1.18012 -11.242,1.18012 -11.2165,0 -11.8432,0.1126 -15.3064,2.75 -4.2462,3.2337 -5.3345,3.3847 -6.6519,0.92297 z m 135.4543,-5.09711 c -1.6166,-2.61568 1.7261,-9.16744 8.2865,-16.2415 8.9977,-9.70239 13.0108,-15.76635 14.4536,-21.84047 1.2685,-5.33986 3.0041,-6.1149 3.5378,-1.57983 0.5098,4.33175 -4.052,12.21407 -13.282,22.94982 -7.9378,9.23285 -9.4073,11.50701 -9.9868,15.45556 -0.2797,1.90579 -2.1303,2.67846 -3.0091,1.25642 z m -2.4301,466.97176 c 7.9268,-3.0119 12.0713,-6.4003 21.2819,-17.3989 4.6743,-5.5818 11.4596,-13.5237 15.0784,-17.6487 12.8707,-14.6711 25.3359,-34.8964 28.8962,-46.8853 1.7022,-5.7321 4.131,-28.2925 3.9419,-36.6147 -0.2083,-9.1597 -3.2555,-23.6197 -6.0657,-28.7829 -2.0075,-3.6885 -4.9902,-6.6606 -11.7211,-11.6795 -4.9656,-3.7025 -12.2925,-9.6769 -16.2819,-13.2763 -8.7982,-7.938 -12.0615,-9.4954 -28.7465,-13.7194 -14.2953,-3.6189 -21.5592,-6.5543 -22.1918,-8.9676 -0.3498,-1.3345 -2.5754,-1.5858 -14.6104,-1.6496 -30.4672,-0.1615 -47.1716,-5.8492 -67.2783,-22.90805 l -4.695,-3.98334 -13.1123,0.043 c -9.5085,0.0312 -14.7612,0.5292 -19.1122,1.81201 -6.2762,1.85039 -14.5,6.11138 -14.5,7.51283 0,0.99551 14.4022,2.38497 26,2.50836 8.0198,0.0853 8.518,0.21745 8.8193,2.33879 0.5978,4.2086 -8.9305,5.6383 -18.4104,2.7625 -9.7723,-2.9646 -23.9872,-1.148 -36.7632,4.6981 -13.0271,5.9611 -51.6457,36.7192 -51.6457,41.1337 0,0.3448 2.6223,-0.7056 5.8274,-2.3343 15.7366,-7.9968 30.9335,-7.6502 52.8511,1.2051 10.8153,4.3698 25.2058,12.9566 30.3727,18.1236 5.0485,5.0484 12.9488,19.0214 12.9488,22.9021 0,1.4669 3.5067,-1.39 13.0216,-10.6086 11.8738,-11.504 13.9233,-13.0527 23.25,-17.5679 11.166,-5.4057 17.025,-7.0097 18.2666,-5.0007 1.0417,1.6854 -1.3414,3.2716 -10.4357,6.9457 -10.3937,4.1991 -12.5495,5.4486 -20.526,11.896 -10.6377,8.5986 -16.1462,13.8285 -15.3846,14.6066 0.3805,0.3888 2.8555,-1.0819 5.5,-3.2682 8.4592,-6.9936 18.3707,-13.1831 23.595,-14.7346 10.2937,-3.0569 27.8442,-1.4452 40.0453,3.6774 14.1636,5.9465 23.2469,14.3069 34.5665,31.8152 8.8195,13.6413 9.8746,17.1092 13.6919,45 4.0099,29.2982 4.0782,31.6348 1.1695,40 -2.2493,6.469 -8.4053,14.082 -14.7601,18.2539 -2.4776,1.6264 -2.4799,1.6417 -0.2607,1.6936 1.2316,0.029 4.5515,-0.8261 7.3775,-1.8999 z m -125.1049,-145.2652 c -3.754,-4.0294 -9.4561,-27.7382 -7.2112,-29.9831 1.6794,-1.6795 4.0603,3.1619 5.0735,10.3167 0.5355,3.7806 2.2655,9.1987 4.0936,12.8202 4.0875,8.0974 2.9428,12.1044 -1.9559,6.8462 z m 195.9392,-2.4305 c -1.6069,-4.8689 -6.5133,-10.1001 -18.4511,-19.6725 -5.5,-4.4102 -13.2286,-11.1058 -17.1746,-14.8792 -8.1966,-7.8379 -16.1156,-11.9458 -31.5689,-16.376 -9.0788,-2.6027 -9.9607,-2.6903 -12.929,-1.2846 l -3.1857,1.5087 5.6934,3.2574 c 3.4126,1.9525 10.2395,4.3816 17.0422,6.064 14.5905,3.6082 16.248,4.4556 27.6226,14.122 5.225,4.4403 12.114,9.871 15.309,12.0681 5.7281,3.9392 13.3542,13.0338 16.562,19.7513 1.4279,2.9901 1.6687,3.1423 1.9508,1.2327 0.177,-1.1982 -0.2148,-3.8045 -0.8707,-5.7919 z m -4.9511,-19.2186 c 0,-2.1704 7.9732,-45.33536 9.445,-51.13332 2.1829,-8.59884 6.4633,-21.75493 8.2966,-25.5 2.3886,-4.87954 12.1174,-18.95797 19.2003,-27.78451 8.2649,-10.29948 9.1472,-11.71218 12.37,-19.80615 l 2.6242,-6.59066 -1.8588,-6.90934 c -1.0223,-3.80014 -3.0715,-13.50502 -4.5537,-21.5664 l -2.695,-14.65705 -6.1369,-6.1751 c -3.3753,-3.39631 -6.2815,-5.74133 -6.4583,-5.21117 -0.916,2.74813 -7.8904,13.25379 -11.9651,18.0233 -10.9907,12.86469 -18.9255,15.68183 -49.8844,17.7107 l -10.1161,0.66295 0.5038,4.46979 c 0.3947,3.50118 0.051,5.08243 -1.5863,7.29686 l -2.0901,2.82707 4.1457,8.35486 c 3.9175,7.89466 4.1383,8.8099 4.0083,16.61636 -0.092,5.5499 0.3801,9.48856 1.4396,12 0.8674,2.05617 1.7067,6.81551 1.8653,10.57631 0.1585,3.7608 0.5965,7.1358 0.9734,7.5 0.3769,0.3642 3.1124,-1.99817 6.0789,-5.24971 4.5243,-4.95906 5.3936,-5.54752 5.3936,-3.65113 0,5.99997 -6.3435,13.0503 -11.75,13.05928 -1.2375,0.002 -2.25,0.46189 -2.25,1.02185 0,1.667 -14.8377,19.56017 -17.263,20.81795 -1.2304,0.63806 -3.9436,1.73641 -6.0293,2.44076 -3.1129,1.05121 -4.4101,2.39525 -7.2405,7.5019 -3.5984,6.4925 -3.6253,6.9115 -0.3306,5.1482 1.363,-0.7295 2.9129,-0.7567 4.8398,-0.085 2.4245,0.8452 3.1654,0.636 5.1214,-1.4461 5.2077,-5.54331 15.9022,-10.58023 15.9022,-7.48963 0,0.49841 -2.2236,2.50372 -4.9414,4.45623 -8.1917,5.8851 -8.1711,6.7814 0.2412,10.5188 5.4113,2.4041 11.6724,6.8972 25.2002,18.0844 9.9,8.1871 18.3375,14.919 18.75,14.96 0.4125,0.041 0.75,-0.3156 0.75,-0.7923 z m -13,-73.04204 c 0,-0.49979 2.9465,-3.22429 6.5478,-6.05444 9.5763,-7.52574 12.0534,-12.42842 9.3155,-18.43739 l -1.1366,-2.49466 -4.8301,2.44761 c -5.7883,2.93315 -10.9086,3.07911 -16.6466,0.47453 -5.9938,-2.72069 -5.2764,-3.80052 1.7526,-2.63804 l 6.0026,0.99272 13.7474,-6.69287 c 13.6157,-6.62875 20.2474,-8.90058 20.2474,-6.93618 0,1.60025 -2.1872,2.96827 -6.6554,4.16272 -5.3583,1.43244 -8.6671,4.08066 -7.8286,6.26578 1.4267,3.71787 14.4262,6.38286 17.409,3.56894 1.0692,-1.00865 1.2411,-0.96039 0.8904,0.25 -0.7503,2.59006 -6.9296,5.15041 -10.978,4.54869 -2.0144,-0.2994 -4.3144,-0.7945 -5.1111,-1.10023 -1.074,-0.41212 -1.5905,0.50205 -1.9973,3.53528 -0.7217,5.38033 -4.2993,9.89604 -11.8181,14.91689 -5.9751,3.99005 -8.9109,5.04124 -8.9109,3.19065 z m -13,-43.52389 c 0,-1.47615 0.9972,-1.91988 7,-3.11477 6.3058,-1.25522 11.0568,-4.45455 21.9819,-14.80273 10.3316,-9.78605 17.2277,-14.77365 18.5703,-13.43104 1.1313,1.13129 -0.9861,3.63516 -7.8887,9.32875 -8.6438,7.12983 -8.7186,9.12229 -0.4435,11.81071 l 5.7199,1.85831 6.2801,-3.07559 c 3.454,-1.69158 7.5101,-4.07268 9.0136,-5.29135 1.5035,-1.21866 3.027,-1.92242 3.3855,-1.56392 1.5781,1.57816 -3.2227,5.92938 -10.2954,9.33124 -8.6816,4.17565 -13.2152,4.57621 -21.3213,1.88379 l -5.0607,-1.68088 -3.9737,3.59005 c -2.1856,1.97452 -4.76,3.62619 -5.7209,3.67038 -10.1571,0.46707 -12.5015,0.77402 -13.4943,1.76682 -1.6022,1.60226 -3.7528,1.44193 -3.7528,-0.27977 z m -54.0152,79.79453 c 1.9183,-0.8016 4.5493,-2.4484 5.8466,-3.6596 2.4738,-2.3099 5.6053,-7.59893 4.9104,-8.29379 -0.223,-0.22309 -3.844,-0.69627 -8.0464,-1.0515 -7.2347,-0.61156 -7.7444,-0.5186 -9.587,1.74854 -1.8646,2.29421 -2.4413,2.38986 -13.7772,2.28532 -13.8886,-0.12808 -21.3832,-1.82966 -32.5283,-7.38522 -10.4436,-5.20585 -15.5709,-8.87725 -21.5803,-15.45244 -5.9184,-6.47568 -9.0055,-13.70868 -10.4797,-24.55323 -2.2388,-16.46906 3.5686,-32.12166 17.1765,-46.29601 8.7139,-9.07658 14.5081,-12.7989 23.6155,-15.17108 6.6392,-1.72928 20.2523,-2.0279 25.3818,-0.55679 4.1671,1.19509 8.0833,4.71516 8.0833,7.26558 0,2.21469 1.7911,1.86028 9.0628,-1.7932 7.0542,-3.54425 7.4418,-4.45182 3.9559,-9.26392 -3.775,-5.2113 -7.1244,-6.92315 -16.0123,-8.18368 -12.6642,-1.79609 -31.104,1.48928 -43.5064,7.75141 -19.0811,9.63425 -33.2447,25.24816 -38.7772,42.74769 -3.1272,9.89146 -3.0617,25.19639 0.1499,35 3.2334,9.8702 7.166,16.28741 13.8471,22.59541 16.2994,15.38916 29.1412,20.97331 54.8648,23.85741 9.7986,1.0986 22.7651,0.3457 27.4002,-1.5909 z m -12.9848,-14.23411 c 0,-0.47971 -1.7249,-1.14801 -3.8331,-1.48513 -2.1082,-0.33711 -12.3217,-2.85615 -22.6966,-5.59785 -10.375,-2.74171 -19.0462,-4.80228 -19.2694,-4.57906 -0.6178,0.61779 12.6177,7.03126 18.4603,8.94523 8.3976,2.75097 27.3388,4.63326 27.3388,2.71681 z m 36.1366,-5.99739 c 4.7306,-2.12088 17.4835,-15.97932 18.1792,-19.75517 0.7826,-4.24734 0.1321,-15.25307 -1.1926,-20.17899 -0.6366,-2.36706 -1.0785,-7.54206 -0.9821,-11.5 0.212,-8.69915 -0.2824,-10.38152 -5.05,-17.18752 l -3.7139,-5.30185 -2.4271,1.83075 -2.4271,1.83076 3.2389,6.3158 c 3.7905,7.39154 4.0373,11.21419 1.5591,24.14709 -1.7334,9.04547 -1.7331,9.05022 1.4067,19.91871 0.9372,3.24431 -2.7621,1.91388 -4.1709,-1.5 -2.9603,-7.17392 -3.6973,-13.96775 -2.0901,-19.26654 2.043,-6.73542 1.9624,-14.94837 -0.1823,-18.57917 -1.725,-2.92012 -3.2844,-3.8027 -3.2844,-1.85884 0,0.575 -1.1046,2.15 -2.4546,3.5 -2.0228,2.02282 -3.4415,2.45455 -8.0657,2.45455 -5.6112,0 -9.4797,-1.23236 -9.4797,-3.01985 0,-0.56118 2.401,-0.69853 5.871,-0.33584 5.1304,0.53623 6.1396,0.34506 8,-1.51533 1.763,-1.763 2.129,-3.32215 2.129,-9.06996 0,-7.16544 1.3143,-9.71728 3.4796,-6.75606 1.0279,1.40578 1.828,0.94844 6.3483,-3.62867 5.7535,-5.82586 6.2105,-7.7916 3.301,-14.19648 -2.6396,-5.8106 -7.2948,-10.03035 -12.5159,-11.34503 -4.4741,-1.12661 -11.613,-1.54452 -11.613,-0.67983 0,1.67051 2.5581,5.54705 3.6605,5.54705 2.4731,0 1.3699,3.79642 -1.9105,6.57465 -7.1541,6.05881 -24.4142,11.82157 -33.6208,11.22521 -4.1912,-0.27149 -4.6292,-0.53641 -4.6292,-2.79986 0,-2.33001 0.374,-2.51886 5.5,-2.77738 8.0059,-0.40377 9.019,-0.94785 6.1392,-3.29691 -1.2984,-1.05914 -3.2208,-1.92571 -4.272,-1.92571 -2.3929,0 -14.6734,5.51465 -17.0303,7.64754 -2.7038,2.44697 -5.1904,11.19911 -5.017,17.65854 0.1533,5.71008 0.1,5.82955 -3.2409,7.22534 -4.3565,1.82026 -12.6865,3.69446 -13.3722,3.00868 -0.2904,-0.29031 0.2353,-1.37116 1.1681,-2.40188 1.6195,-1.78952 1.5535,-1.90255 -1.4645,-2.50613 -1.7382,-0.34765 -5.743,-0.63209 -8.8996,-0.63209 l -5.7391,0 -1.7241,4.51441 c -4.3692,11.44079 -3.6744,24.6233 1.8979,36.00599 4.9381,10.08727 6.3247,11.09006 17.0545,12.33438 4.95,0.57405 15.3592,2.84207 23.1316,5.04004 14.3443,4.05647 27.2156,6.75333 35.3684,7.41056 7.7097,0.62151 19.3371,-0.47153 23.1366,-2.17496 z m -27.6366,-25.38397 c -3.4363,-1.40816 -7.4792,-2.08987 -12.9274,-2.17979 -5.7541,-0.095 -8.0532,-0.50843 -8.3865,-1.50818 -0.3772,-1.13174 1.1255,-1.26415 8.4274,-0.74257 10.561,0.75438 19.3865,3.13203 19.3865,5.22283 0,1.79288 -0.2726,1.75966 -6.5,-0.79229 z m -18,-27.52949 c 2.0393,-2.15176 19.5,-4.26482 19.5,-2.35985 0,0.47141 -3.4875,1.12666 -7.75,1.45612 -4.2625,0.32946 -8.875,0.90498 -10.25,1.27894 -1.7371,0.47242 -2.1948,0.35792 -1.5,-0.37521 z m -129.5,47.2173 c 4.125,-0.75504 15.825,-1.86462 26,-2.46574 27.868,-1.64637 29.2849,-1.83433 28.6624,-3.80231 -0.2898,-0.91642 -1.704,-5.06778 -3.1427,-9.22526 l -2.6158,-7.55905 -6.3605,-3.13654 c -5.0651,-2.49771 -6.4875,-3.71412 -6.9835,-5.9724 l -0.6228,-2.83585 -33.5401,-3.31365 c -18.4471,-1.82251 -33.7559,-3.09789 -34.0196,-2.83417 -0.9419,0.94185 5.6766,2.5933 12.8385,3.20345 9.5657,0.81495 11.9923,1.36131 11.266,2.53658 -0.8411,1.36084 -20.463,1.21512 -24.5827,-0.18256 -1.8696,-0.63429 -5.6492,-2.6015 -8.3992,-4.37158 -4.7404,-3.05126 -5.8826,-3.30374 -22,-4.86334 -9.35002,-0.90475 -17.90002,-1.63152 -19.00002,-1.61504 -1.50525,0.0225 -2.44753,1.32537 -3.80911,5.26658 -4.38582,12.69514 -4.35065,12.03342 -0.92334,17.37398 4.62285,7.20349 8.97397,10.78726 16.23245,13.36977 3.57502,1.27195 7.17502,2.86142 8.00002,3.53216 9.9675,8.10378 39.023,11.28373 63,6.89497 z m 48,-36.85247 c 0,-4.08002 0.2731,-8.13002 0.607,-9 0.7886,-2.05508 -1.7425,-2.08019 -5.6567,-0.0561 -2.7649,1.42982 -2.9503,1.89906 -2.9503,7.46806 0,5.45426 0.2259,6.06493 2.75,7.43429 4.8556,2.63418 5.25,2.19496 5.25,-5.84624 z m 53.1106,-27.33179 c 0.5836,-1.5125 1.4075,-4.90188 1.8309,-7.53196 0.8875,-5.51265 2.9726,-8.06535 9.9929,-12.23379 2.7642,-1.64134 5.0348,-3.29346 5.0457,-3.67138 0.011,-0.37792 -1.6676,-0.43312 -3.7301,-0.12266 -6.6077,0.99461 -14.1592,4.07279 -19.3633,7.89292 -4.8938,3.59244 -14.8867,14.60268 -14.8867,16.40236 0,1.13614 3.7125,1.67803 12.7747,1.86468 7.0695,0.1456 7.3047,0.0722 8.3359,-2.60017 z m -70.266,-24.75 c 1.6207,-9.71271 1.6688,-11.40038 0.4105,-14.42123 -0.7909,-1.89868 -1.276,-5.54868 -1.0901,-8.20169 0.1843,-2.62925 0.095,-4.46469 -0.199,-4.07877 -0.2937,0.38593 -2.1851,3.17669 -4.2032,6.20169 -2.018,3.025 -6.526,8.61884 -10.0176,12.43075 l -6.3485,6.93075 7.6843,6.20389 c 9.3573,7.55458 11.3251,8.75569 11.6735,7.12545 0.14,-0.65496 1.0805,-6.14084 2.0901,-12.19084 z"
       id="path2996"
       inkscape:connector-curvature="0" />
  </g>
</svg>
