<?xml version="1.0" encoding="UTF-8" standalone="no"?>
<!-- Created with Inkscape (http://www.inkscape.org/) -->

<svg
   xmlns:dc="http://purl.org/dc/elements/1.1/"
   xmlns:cc="http://creativecommons.org/ns#"
   xmlns:rdf="http://www.w3.org/1999/02/22-rdf-syntax-ns#"
   xmlns:svg="http://www.w3.org/2000/svg"
   xmlns="http://www.w3.org/2000/svg"
   xmlns:sodipodi="http://sodipodi.sourceforge.net/DTD/sodipodi-0.dtd"
   xmlns:inkscape="http://www.inkscape.org/namespaces/inkscape"
   width="71.658386"
   height="228.22437"
   id="svg2"
   version="1.1"
   inkscape:version="0.48.3.1 r9886"
   sodipodi:docname="Calf-raises-1.svg">
  <defs
     id="defs4" />
  <sodipodi:namedview
     id="base"
     pagecolor="#ffffff"
     bordercolor="#666666"
     borderopacity="1.0"
     inkscape:pageopacity="0.0"
     inkscape:pageshadow="2"
     inkscape:zoom="1.979899"
     inkscape:cx="40.616021"
     inkscape:cy="126.53759"
     inkscape:document-units="px"
     inkscape:current-layer="layer1"
     showgrid="false"
     fit-margin-top="0"
     fit-margin-left="0"
     fit-margin-right="0"
     fit-margin-bottom="0"
     inkscape:window-width="1855"
     inkscape:window-height="1056"
     inkscape:window-x="65"
     inkscape:window-y="24"
     inkscape:window-maximized="1" />
  <metadata
     id="metadata7">
    <rdf:RDF>
      <cc:Work
         rdf:about="">
        <dc:format>image/svg+xml</dc:format>
        <dc:type
           rdf:resource="http://purl.org/dc/dcmitype/StillImage" />
        <dc:title></dc:title>
      </cc:Work>
    </rdf:RDF>
  </metadata>
  <g
     inkscape:label="Ebene 1"
     inkscape:groupmode="layer"
     id="layer1"
     transform="translate(-524.85436,-611.45853)">
    <path
       style="fill:#000000"
       d="m 554.05036,837.08685 c -3.46241,-0.69601 -7.52646,-6.06493 -7.55956,-9.98676 -0.0121,-1.43117 -0.90033,-4.53751 -1.97388,-6.90298 -1.58189,-3.48553 -1.84659,-5.66564 -1.3963,-11.5 0.84565,-10.95706 0.69191,-13.21876 -1.13923,-16.7598 -2.83369,-5.47975 -3.00036,-13.44226 -0.45927,-21.94083 1.93524,-6.47236 2.15479,-8.8475 1.60428,-17.35613 -0.47876,-7.39976 -1.10213,-10.44793 -2.50011,-12.22518 -1.47326,-1.87295 -1.77255,-3.57399 -1.43259,-8.14238 0.23635,-3.17615 0.62047,-6.34974 0.8536,-7.05242 0.23313,-0.70268 -0.26194,-4.2348 -1.10017,-7.84914 -1.19675,-5.16028 -1.28153,-7.30633 -0.39481,-9.99313 1.65449,-5.01316 0.36847,-10.62177 -3.21181,-14.00738 -2.65243,-2.50821 -6.00373,-8.54543 -8.22619,-14.81913 -0.37923,-1.07051 -1.12921,-6.58701 -1.66662,-12.25888 -1.09826,-11.59103 -0.22488,-14.83513 4.83587,-17.9624 1.50105,-0.92757 4.64169,-3.61544 6.97919,-5.97305 4.351,-4.38843 5.55508,-8.6542 3.1279,-11.08139 -0.61716,-0.61716 -1.29585,-2.61433 -1.5082,-4.43816 -0.21236,-1.82383 -0.64826,-4.14205 -0.96869,-5.15161 -1.85424,-5.84221 7.00481,-12.02942 13.9447,-9.73905 6.78652,2.23975 9.58223,7.80725 9.63043,19.17848 0.0161,3.80593 -0.46169,6.03052 -1.47614,6.87244 -0.825,0.68469 -1.56128,2.65229 -1.63618,4.37245 -0.10252,2.3544 -0.24332,2.57134 -0.56955,0.87755 -0.35329,-1.8342 -1.0957,-2.25 -4.01743,-2.25 -2.92216,0 -4.32308,-0.78488 -7.58572,-4.25 -2.20091,-2.3375 -3.69247,-3.70731 -3.31458,-3.04402 1.37867,2.41987 -2.27829,8.05542 -9.2451,14.24716 -8.17509,7.26559 -8.91843,9.83744 -4.51275,15.61358 2.52868,3.31527 2.17158,4.74221 -0.54638,2.18328 -1.09801,-1.03377 -1.21911,-0.29859 -0.70007,4.25 0.34519,3.025 0.85945,6.72648 1.1428,8.22552 0.75919,4.0163 5.17571,11.86958 7.64977,13.60247 2.13548,1.49575 2.14771,1.46873 1.49415,-3.29952 -0.36243,-2.64419 -0.66897,-5.98231 -0.6812,-7.41804 l -0.0222,-2.61043 -1.95553,2.5 c -2.84433,3.63627 -2.44135,0.73918 0.5001,-3.59528 2.05804,-3.03269 2.26072,-3.88041 1.1463,-4.79441 -3.01914,-2.47614 -4.6464,-6.24934 -4.6464,-10.7738 0,-2.59516 0.45,-4.99659 1,-5.33651 0.55,-0.33992 1,-1.64673 1,-2.90403 0,-4.00326 2.77244,-5.38536 9.71785,-4.84447 6.15625,0.47943 6.23799,0.52582 8.25,4.68209 1.19026,2.45875 2.03215,6.21599 2.03215,9.06923 l 0,4.87136 2.80472,-2.68709 c 3.38156,-3.23974 4.18736,-3.37282 3.45455,-0.57053 -0.35511,1.35792 -2.31933,2.8504 -5.48013,4.16397 -4.23739,1.76098 -4.826,2.33926 -4.20729,4.13344 0.39565,1.14732 0.90181,4.78603 1.12482,8.08603 0.34342,5.08189 -0.0235,6.8416 -2.39796,11.5 -1.96603,3.85712 -3.47481,5.59545 -5.05107,5.81955 -2.15239,0.30601 -2.24338,0.70861 -2.14701,9.5 0.0553,5.04925 0.61784,14.58045 1.25,21.18045 l 1.14937,12 5.19138,0.30023 c 3.73485,0.21599 6.33011,-0.28071 9.25,-1.77033 3.83268,-1.95528 4.05862,-2.31993 4.05862,-6.55022 0,-2.46383 0.45,-4.47968 1,-4.47968 0.55,0 1,2.00264 1,4.45031 0,3.17881 -0.49999,4.74499 -1.75,5.4817 -1.37844,0.81241 -1.47268,1.21442 -0.44389,1.89339 1.07148,0.70714 1.05285,1.9583 -0.10371,6.96458 -0.91407,3.9566 -1.06759,6.44483 -0.43658,7.07584 0.95851,0.95851 0.43909,15.93933 -0.86576,24.96992 -0.42526,2.94313 -0.12156,5.51267 0.94554,8 0.86461,2.01534 1.76869,7.26426 2.00907,11.66426 0.24038,4.4 0.75706,8.7875 1.14818,9.75 0.42303,1.04102 0.26265,1.75 -0.39586,1.75 -0.60885,0 -1.10699,-0.9 -1.10699,-2 0,-1.1 -0.45,-2 -1,-2 -1.87046,0 -1.00807,3.59571 2,8.33895 1.83046,2.88634 3,6.06737 3,8.15973 0,2.84006 0.6412,3.86493 3.73213,5.96527 4.52997,3.07819 7.16302,3.19296 10.63301,0.46347 3.177,-2.49903 3.37194,-5.72066 0.56228,-9.29256 -1.13992,-1.44917 -1.62742,-2.63486 -1.08333,-2.63486 0.54408,0 1.18964,0.5625 1.43457,1.25 0.85261,2.39322 1.65695,-18.07377 2.70182,-68.75 1.31081,-63.57408 1.31812,-61.62645 -0.23048,-61.42535 -3.14625,0.40855 -4.93842,-0.30119 -8.37117,-3.31518 l -3.69076,-3.24053 0.54626,8.75588 c 0.31575,5.06106 1.10948,9.43452 1.88095,10.36409 0.73408,0.88451 1.67138,4.3651 2.0829,7.73464 1.59178,13.03378 2.03868,19.10059 1.36051,18.46949 -0.80447,-0.74865 -2.34541,-9.48894 -3.23317,-18.33879 -0.3308,-3.29766 -1.24319,-6.97515 -2.02753,-8.17221 -1.35932,-2.07459 -1.59493,-2.10592 -5.03354,-0.66918 -7.71634,3.2241 -25.26445,3.40751 -25.26445,0.26407 0,-0.48827 1.08782,-0.46384 2.45266,0.0551 3.32365,1.26365 15.96116,0.35025 21.79734,-1.57544 4.12583,-1.36134 4.74076,-1.9181 4.67971,-4.23693 -0.0618,-2.34657 -0.16541,-2.42761 -0.85636,-0.66963 -0.64088,1.63056 -0.86788,1.3073 -1.22892,-1.75 -0.42662,-3.61271 0.45126,-5.08241 1.49329,-2.5 0.27741,0.6875 0.53991,-0.22287 0.58333,-2.02305 l 0.0789,-3.27309 -2.75,1.73381 c -2.73685,1.72551 -2.74163,1.72405 -1,-0.30569 0.9625,-1.12172 1.75,-2.75406 1.75,-3.62742 0,-0.87336 0.53071,-1.76483 1.17935,-1.98104 0.90107,-0.30036 0.91018,-2.01749 0.0386,-7.27737 -0.84712,-5.11219 -0.85036,-7.23416 -0.0126,-8.24361 0.6205,-0.74766 1.69939,-4.37284 2.39753,-8.05597 1.0802,-5.69867 1.05191,-7.0319 -0.18982,-8.9466 -1.45274,-2.24009 -5.41306,-3.15462 -5.41306,-1.25 0,0.55 -1.9125,0.93614 -4.25,0.8581 l -4.25,-0.14191 3.90981,-0.60809 3.90981,-0.6081 -4.22525,-1.85122 c -4.59167,-2.01176 -4.91497,-3.59581 -0.37644,-1.84437 1.53014,0.59048 4.69221,1.36521 7.02683,1.72161 2.33462,0.3564 4.51532,1.08578 4.846,1.62083 0.34277,0.55462 1.11243,0.27375 1.79033,-0.65334 1.7941,-2.45358 9.02774,-3.11088 12.0978,-1.09929 1.38661,0.90854 2.52111,2.26403 2.52111,3.0122 0,0.74818 0.9,1.59567 2,1.88333 1.73692,0.45422 2,1.36402 2,6.91663 0,3.51649 -0.51073,6.90435 -1.13495,7.52857 -0.62422,0.62422 -1.25323,4.47264 -1.39781,8.55204 -0.15813,4.46204 -0.92096,8.68973 -1.91467,10.61135 -1.31707,2.54693 -1.74366,7.18726 -2.10504,22.89796 -0.24927,10.83703 -0.91701,38.8287 -1.48386,62.2037 -0.56685,23.375 -1.07469,46.44279 -1.12853,51.26176 -0.0968,8.6653 -0.13536,8.79466 -3.50131,11.75 -2.56705,2.25389 -4.38781,2.98824 -7.40912,2.98824 -2.31713,0 -5.14786,0.80062 -6.7152,1.89926 -2.91623,2.04417 -10.86839,3.15521 -15.67191,2.18962 z m 11.99452,-2.53785 c 1.90733,-0.79694 3.46788,-1.64935 3.46788,-1.89425 0,-0.2449 -1.23765,-1.77018 -2.75034,-3.38951 -1.51268,-1.61934 -4.01723,-6.27943 -5.56566,-10.35576 -1.54843,-4.07633 -3.73865,-9.7755 -4.86715,-12.66482 -2.00708,-5.13876 -2.01491,-5.45833 -0.35891,-14.65559 1.01214,-5.62128 1.43388,-11.14932 1.04876,-13.74669 -0.58157,-3.92223 -0.0531,-7.66219 2.08632,-14.76384 0.71501,-2.37345 0.68356,-2.38771 -1.65459,-0.75 -2.71922,1.90461 -3.93843,2.11185 -3.93843,0.66943 0,-0.55 0.6383,-1 1.41844,-1 2.35945,0 5.28988,-6.07628 6.63394,-13.75553 0.69845,-3.99054 1.01421,-7.51122 0.70169,-7.82373 -0.31252,-0.31252 -1.93768,0.13997 -3.61148,1.00552 -1.6738,0.86556 -5.36849,1.57374 -8.21042,1.57374 l -5.16715,0 0.60102,7.25 c 0.33056,3.9875 0.89524,11.525 1.25484,16.75 0.7307,10.61709 2.07075,15.95277 2.51148,10 0.14252,-1.925 0.50855,1.225 0.81339,7 0.30484,5.775 0.26971,11.4025 -0.0781,12.50556 -0.34778,1.10306 -0.32889,3.80306 0.042,6 0.62233,3.68671 0.73401,3.80184 1.44961,1.49444 0.44542,-1.4362 0.9932,-1.97326 1.28733,-1.26213 0.28159,0.68083 -0.10771,2.48083 -0.86511,4 -1.03164,2.06924 -1.19481,4.76897 -0.65044,10.76213 0.39966,4.4 0.75867,9.49282 0.7978,11.31739 0.0617,2.87771 0.34311,3.23107 2.12311,2.66612 3.35818,-1.06585 10.94804,-1.32046 10.94804,-0.36727 0,0.94149 -1.18959,1.15764 -7.4313,1.35024 -4.09317,0.1263 -6.01363,2.01969 -2.87404,2.83354 3.60597,0.93474 7.44227,0.66961 10.83746,-0.74899 z m -11.30994,-52.55103 c -0.0158,-6.59455 0.10768,-7.10826 1.02308,-4.25518 0.71481,2.2279 0.72046,4.57839 0.018,7.5 -0.98691,4.10472 -1.02372,3.98998 -1.04108,-3.24482 z m -0.1519,-10.69098 c 0.0387,-0.44496 0.45703,-1.70902 0.92972,-2.80902 0.82859,-1.92824 0.86195,-1.92138 0.92971,0.19098 0.0387,1.20504 -0.37971,2.4691 -0.92971,2.80902 -0.55,0.33992 -0.96837,0.25398 -0.92972,-0.19098 z m -2.07028,-20.80902 c 0.68469,-0.825 1.69489,-1.5 2.24489,-1.5 0.55783,0 0.44954,0.66326 -0.24489,1.5 -0.68469,0.825 -1.69489,1.5 -2.24489,1.5 -0.55783,0 -0.44954,-0.66326 0.24489,-1.5 z m -4.5756,54.79613 c -2.34345,-25.98272 -3.38393,-34.0742 -3.09188,-24.04477 0.0921,3.16325 -0.11377,5.75075 -0.45752,5.75 -1.3105,-0.003 -1.78394,-6.20853 -0.84955,-11.13558 0.536,-2.82632 0.96766,-6.08984 0.95924,-7.25227 -0.0269,-3.71727 -1.7241,0.20562 -2.98885,6.90851 -1.08099,5.72904 -0.97495,6.70256 1.51619,13.92004 2.52929,7.32801 2.62233,8.2417 1.67071,16.406 -0.89885,7.71157 -0.80109,9.09945 0.90476,12.84401 1.05187,2.30901 1.9125,5.15247 1.9125,6.31881 0,2.03117 1.87343,6.52216 2.42982,5.82477 0.14729,-0.18461 -0.75515,-11.67739 -2.00542,-25.53952 z m -1.69523,9.0997 c -0.40105,-0.40104 -0.72917,-1.41916 -0.72917,-2.2625 0,-1.12559 0.29583,-1.2375 1.1125,-0.42083 0.61187,0.61187 0.94,1.63 0.72917,2.2625 -0.21084,0.6325 -0.71146,0.82187 -1.1125,0.42083 z m 23.44514,14.28972 c -1.19587,-1.27295 -2.17528,-3.41045 -2.17646,-4.75 -0.001,-1.33955 -1.40876,-5.10412 -3.12795,-8.3657 -3.05775,-5.80101 -3.10127,-6.07323 -1.99882,-12.5 1.13148,-6.596 0.71007,-10.31778 -1.87617,-16.56985 l -1.24099,-3 -1.31276,6 c -0.72201,3.3 -1.34164,7.32806 -1.37696,8.95125 -0.0748,3.43695 6.57318,23.30575 8.57476,25.62749 0.74857,0.86831 1.36104,2.05092 1.36104,2.62803 0,0.57711 1.0125,1.75557 2.25,2.61881 3.17464,2.21451 3.436,2.03353 0.92431,-0.64003 z m -8.81616,-55.43555 c 0.34091,-2.0625 0.58455,-5.775 0.54143,-8.25 l -0.0784,-4.5 -1.3913,5 c -1.57525,5.66113 -1.85994,11.5 -0.56071,11.5 0.47804,0 1.14808,-1.6875 1.48899,-3.75 z m -19.13143,-38 c -0.57539,-5.80545 -1.06087,-6.22843 -1.14777,-1 -0.0434,2.6125 0.28069,4.75 0.72025,4.75 0.43956,0 0.63194,-1.6875 0.42752,-3.75 z m 6.14207,-42.53197 c 2.75062,-3.69768 3.42164,-14.53483 1.33972,-21.63694 -1.15847,-3.95189 -1.25955,-5.93397 -0.43899,-8.60761 0.58632,-1.91041 1.44054,-3.47348 1.89826,-3.47348 1.17744,0 1.03743,3.75514 -0.16778,4.5 -1.61863,1.00037 -1.18073,3.50658 0.5,2.86163 1.54218,-0.59179 2.23898,-8.36093 0.75,-8.36234 -0.4125,-3.8e-4 -0.8155,-1.13515 -0.89556,-2.5217 -0.25647,-4.44162 -2.01817,-5.52528 -8.22856,-5.06156 -6.79602,0.50744 -6.12588,0.27946 -6.12588,2.08397 0,0.83333 0.88889,1.5 2,1.5 3.02181,0 2.39634,1.67073 -0.87003,2.32401 -1.87241,0.37448 -3.07646,1.36335 -3.46388,2.84485 -1.02125,3.90528 1.13592,9.83114 3.5788,9.83114 0.65314,0 0.64434,-0.43358 -0.0254,-1.25 -0.98068,-1.19552 -1.56627,-4.59153 -1.33021,-7.71429 0.0901,-1.19221 0.43584,-1.13915 1.86069,0.28557 1.48368,1.48356 1.76781,3.83791 1.86704,15.47067 0.14403,16.88537 0.78766,20.4395 3.62471,20.01553 1.13168,-0.16911 2.98885,-1.55937 4.12704,-3.08945 z m 39.88602,-8.46803 c 3.56992,-3.73425 4.65388,-9.48145 4.00595,-21.23991 -0.53594,-9.72608 -0.59282,-9.91251 -3.15327,-10.33504 -1.47792,-0.24388 -0.84719,-0.40337 1.45597,-0.36816 l 4.06347,0.0621 -0.66034,4.35112 c -0.36318,2.39311 -0.27924,4.58664 0.18654,4.87451 0.46578,0.28787 0.84687,-0.79691 0.84687,-2.41062 0,-1.61371 0.29452,-4.40663 0.65449,-6.20649 l 0.6545,-3.27246 -4.60697,0.51927 c -4.47307,0.50418 -4.5456,0.46958 -2.49538,-1.19058 2.55567,-2.06946 1.78658,-3.6567 -2.19564,-4.53134 -5.97167,-1.3116 -9.50528,1.77619 -8.39359,7.33461 0.43247,2.16237 1.33529,3.18527 3.23135,3.66115 4.89101,1.22756 5.37776,4.41534 1.53815,10.07333 -1.4372,2.11783 -2.99562,5.89312 -3.46316,8.38954 -0.80375,4.29163 -0.83057,4.20461 -0.49208,-1.59696 0.27045,-4.63552 -0.0744,-6.79514 -1.4105,-8.83181 l -1.76848,-2.6959 -1.13605,3.25888 c -1.3028,3.73719 -0.4944,14.70865 1.25103,16.97892 1.71869,2.23547 6.75063,5.92582 8.0801,5.92582 0.64792,0 2.36109,-1.2375 3.80704,-2.75 z m -6.59982,-22.07874 c -1.84771,-2.04169 -2.1821,-4.17126 -0.65499,-4.17126 0.55,0 1,0.675 1,1.5 0,0.825 0.45,1.5 1,1.5 1.35591,0 1.26021,-1.33979 -0.2,-2.8 -2.08714,-2.08714 -3.8,-1.35091 -3.8,1.63333 0,3.19199 0.66005,4.16667 2.82165,4.16667 1.25701,0 1.2311,-0.28423 -0.16666,-1.82874 z m -22.96944,-25.34557 c 2.7267,-2.5616 2.98045,-6.73466 0.88759,-14.59656 -1.8495,-6.94769 -4.71653,-9.41828 -10.30871,-8.88327 -6.52476,0.62422 -9.26443,2.89452 -9.26443,7.67719 0,2.18732 0.45857,3.97695 1.01905,3.97695 0.586,0 0.75401,1.056 0.39537,2.48497 -0.51161,2.03841 -0.15563,2.66292 1.98094,3.47525 1.43255,0.54465 2.60464,1.39073 2.60464,1.88017 0,0.48944 0.93266,2.07558 2.07258,3.52475 2.62137,3.33253 7.33801,3.53721 10.61297,0.46055 z m 18.75195,190.46895 c -1.09127,-1.09127 -1.30025,-1.84039 -0.58036,-2.08035 1.07593,-0.35865 4.14286,2.02087 4.14286,3.21428 0,1.13711 -1.89446,0.53412 -3.5625,-1.13393 z m 4.13194,-3.37137 c 1.21419,-1.34167 2.02009,-1.65468 2.27687,-0.88434 0.2186,0.65581 -0.21989,1.58344 -0.97443,2.06141 -2.49532,1.58069 -3.21201,0.93298 -1.30244,-1.17707 z m -9.59337,-11.1396 c -0.66115,-2.95433 -1.01223,-6.25175 -0.78018,-7.32759 0.23205,-1.07584 0.98025,1.13408 1.66266,4.91094 1.48508,8.21929 0.82228,10.03434 -0.88248,2.41665 z m 6.03362,-4.97641 c -3.01922,-7.81568 -3.17384,-8.83983 -2.613,-17.30726 0.32787,-4.95 0.88426,-10.35 1.23642,-12 0.35217,-1.65 0.33282,-2.71653 -0.043,-2.37007 -0.37581,0.34645 -1.28864,3.94645 -2.02851,8 -1.11356,6.10082 -1.36386,6.66941 -1.45341,3.30157 -0.0595,-2.23767 0.58866,-6.41507 1.44038,-9.28309 0.95881,-3.22868 1.68012,-10.43853 1.89401,-18.9315 0.18999,-7.5443 0.66893,-15.15214 1.06431,-16.90631 l 0.71887,-3.18939 -5.47612,0.56518 c -3.55372,0.36678 -5.72038,0.16998 -6.1719,-0.5606 -0.4797,-0.77617 0.83346,-1.12579 4.22838,-1.12579 5.88925,0 10.64514,-3.00283 9.66198,-6.1005 -0.78989,-2.48874 0.17248,-2.43961 1.51963,0.0776 0.84511,1.57909 0.63193,2.40326 -1.05901,4.0942 -1.85886,1.85886 -2.18743,3.66099 -2.69346,14.77292 -0.31699,6.96069 -0.53701,15.3558 -0.48893,18.6558 0.0481,3.3 -0.38562,10.84068 -0.96377,16.75706 l -1.0512,10.75706 3.23902,9.05491 c 1.78146,4.98019 3.01614,9.27778 2.74372,9.5502 -0.27241,0.27241 -1.9394,-3.24297 -3.70441,-7.81197 z m -10.91001,-14.05726 c -0.0548,-2.0625 0.35032,-3.75 0.90032,-3.75 1.14477,0 1.14477,1.42545 0,5 -0.71454,2.23115 -0.81136,2.09672 -0.90032,-1.25 z m 1.64427,-11.75 c 0.2897,-3.575 0.69083,-6.6875 0.89139,-6.91667 0.73723,-0.84237 0.19735,9.48181 -0.59701,11.41667 -0.48215,1.17438 -0.60367,-0.68325 -0.29438,-4.5 z m 1.00512,-14.597 c -0.33941,-0.54917 -0.2282,-1.62776 0.24714,-2.39686 0.50119,-0.81095 0.44623,-2.17943 -0.13084,-3.2577 -0.54729,-1.02262 -0.79989,-2.39687 -0.56134,-3.05388 0.23856,-0.65701 0.99492,-0.001 1.6808,1.45761 1.25392,2.66678 0.10338,9.4176 -1.23576,7.25083 z m 0.79868,-18.04902 c 1.34874,-1.45532 2.45225,-3.03032 2.45225,-3.5 0,-0.46969 0.45,-0.85398 1,-0.85398 0.55,0 1,0.38429 1,0.85398 0,1.23212 -4.7208,6.14602 -5.9045,6.14602 -0.55,0 0.10351,-1.19071 1.45225,-2.64602 z m -3.84444,-25.82256 c 1.81077,-2.48791 3.29669,-3.24803 3.29669,-1.68641 0,0.9917 -3.33112,4.15499 -4.37543,4.15499 -0.39487,0 0.0906,-1.11086 1.07874,-2.46858 z m -9.24627,-7.32129 c 0.75736,-0.75868 11.19607,-4.20067 12.52884,-4.13118 0.83277,0.0434 0.27662,0.53092 -1.23588,1.08333 -3.13933,1.14658 -3.56003,2.47505 -1,3.15778 0.9625,0.25669 -1.02477,0.40219 -4.41616,0.32333 -3.39139,-0.0789 -6.03595,-0.27383 -5.8768,-0.43326 z m -12.90557,-3.48366 c 0.36438,-0.94956 0.99213,-1.72647 1.395,-1.72647 0.40288,0 1.26326,-1.1649 1.91197,-2.58866 1.0408,-2.28431 0.9421,-2.65074 -0.83948,-3.11663 -3.58816,-0.93833 -2.14833,-1.80976 2.9776,-1.80214 4.9101,0.007 6.51865,1.68707 2.22239,2.32079 -1.16841,0.17234 -2.3784,1.11367 -2.68886,2.09183 -0.31046,0.97816 -1.70672,2.85156 -3.1028,4.16312 -1.85436,1.74208 -2.35982,1.91943 -1.87582,0.65816 z m 15.44853,-2.68182 c 11.67417,-1.84713 15,-2.10017 15,-1.14124 0,0.53476 -0.7875,0.94664 -1.75,0.91528 -0.9625,-0.0314 -5.575,0.20246 -10.25,0.51959 -6.91653,0.46919 -7.4754,0.41449 -3,-0.29363 z m -4.96482,-16.97891 c -1.30461,-2.4377 -1.31916,-3.35928 -0.0406,-2.56906 1.60599,0.99255 3.22423,4.50332 2.07575,4.50332 -0.55,0 -1.46583,-0.87042 -2.03519,-1.93426 z m 9.96482,1.17915 c 0,-0.55 0.675,-1.5602 1.5,-2.24489 0.83674,-0.69443 1.5,-0.80272 1.5,-0.24489 0,0.55 -0.675,1.5602 -1.5,2.24489 -0.83674,0.69443 -1.5,0.80272 -1.5,0.24489 z m -7,-5.22186 c 0,-0.43437 0.7875,-1.0162 1.75,-1.29295 0.9625,-0.27674 2.5375,-0.82737 3.5,-1.22362 0.9625,-0.39624 1.75,-0.29779 1.75,0.21877 0,0.51656 -1.575,1.42259 -3.5,2.01339 -1.925,0.5908 -3.5,0.71878 -3.5,0.28441 z m 8.5,-4.02303 c 1.73755,-5.47454 -3.28886,-9.2794 -7.45435,-5.64275 l -2.45435,2.14275 1.56783,-2.5 c 1.02138,-1.62864 2.66105,-2.60922 4.70435,-2.81336 3.3313,-0.33282 4.24291,-2.68025 1.93652,-4.98664 -0.86437,-0.86437 -0.88087,-1.2 -0.059,-1.2 1.85431,0 2.30849,1.52332 2.82228,9.46591 0.32859,5.07954 0.13138,7.53409 -0.60533,7.53409 -0.63763,0 -0.82834,-0.83293 -0.45793,-2 z m -12.5,-9.42782 c 0,-0.18414 1.56746,-1.53036 3.48324,-2.9916 1.91578,-1.46123 3.25873,-2.07714 2.98434,-1.36869 -0.44208,1.14143 -6.46758,5.20368 -6.46758,4.36029 z m 14.8125,-0.25529 c 0.72187,-0.28887 1.58437,-0.25335 1.91667,0.0789 0.33229,0.3323 -0.25834,0.56864 -1.3125,0.52522 -1.16495,-0.048 -1.4019,-0.28494 -0.60417,-0.60416 z m -4.13126,-9.56071 c -1.5484,-1.13221 -1.27287,-1.30075 2.27869,-1.39388 2.22204,-0.0583 4.04007,0.28639 4.04007,0.76588 0,0.4795 -0.4132,0.87182 -0.91821,0.87182 -0.50502,0 -1.53043,0.23493 -2.2787,0.52207 -0.74826,0.28713 -2.1531,-0.0575 -3.12185,-0.76589 z m -5.46802,-8.00225 c -1.56269,-4.14005 -0.77038,-4.73204 1.20938,-0.90361 0.86353,1.6699 1.20984,3.25881 0.76956,3.53092 -0.44027,0.2721 -1.3308,-0.91019 -1.97894,-2.62731 z m 12.28678,-7.3386 c -1.65,-1.32297 -2.48735,-2.40763 -1.86078,-2.41036 1.46419,-0.006 6.02024,3.66454 5.36078,4.31931 -0.275,0.27305 -1.85,-0.58598 -3.5,-1.90895 z m -17.6875,-2.09844 c 0.72187,-0.28887 1.58437,-0.25335 1.91667,0.0789 0.33229,0.33229 -0.25834,0.56864 -1.3125,0.52522 -1.16495,-0.048 -1.4019,-0.28494 -0.60417,-0.60417 z m -5.63222,-2.59966 c -0.58553,-0.70552 -1.54308,-2.61802 -2.12789,-4.25 l -1.0633,-2.96723 2.00511,2.5 c 1.1028,1.375 2.45526,3.04351 3.00545,3.70779 0.55019,0.66429 1.00035,1.45179 1.00035,1.75 0,1.00916 -1.74875,0.54988 -2.81972,-0.74056 z"
       id="path3333"
       inkscape:connector-curvature="0" />
  </g>
</svg>
