<?xml version="1.0" encoding="UTF-8" standalone="no"?>
<!-- Created with Inkscape (http://www.inkscape.org/) -->

<svg
   xmlns:dc="http://purl.org/dc/elements/1.1/"
   xmlns:cc="http://creativecommons.org/ns#"
   xmlns:rdf="http://www.w3.org/1999/02/22-rdf-syntax-ns#"
   xmlns:svg="http://www.w3.org/2000/svg"
   xmlns="http://www.w3.org/2000/svg"
   xmlns:sodipodi="http://sodipodi.sourceforge.net/DTD/sodipodi-0.dtd"
   xmlns:inkscape="http://www.inkscape.org/namespaces/inkscape"
   width="71.658386"
   height="228.22437"
   id="svg2"
   version="1.1"
   inkscape:version="0.48.3.1 r9886"
   sodipodi:docname="Calf-raises-1.svg">
  <defs
     id="defs4" />
  <sodipodi:namedview
     id="base"
     pagecolor="#ffffff"
     bordercolor="#666666"
     borderopacity="1.0"
     inkscape:pageopacity="0.0"
     inkscape:pageshadow="2"
     inkscape:zoom="1.979899"
     inkscape:cx="40.616021"
     inkscape:cy="126.53759"
     inkscape:document-units="px"
     inkscape:current-layer="layer1"
     showgrid="false"
     fit-margin-top="0"
     fit-margin-left="0"
     fit-margin-right="0"
     fit-margin-bottom="0"
     inkscape:window-width="1855"
     inkscape:window-height="1056"
     inkscape:window-x="65"
     inkscape:window-y="24"
     inkscape:window-maximized="1" />
  <metadata
     id="metadata7">
    <rdf:RDF>
      <cc:Work
         rdf:about="">
        <dc:format>image/svg+xml</dc:format>
        <dc:type
           rdf:resource="http://purl.org/dc/dcmitype/StillImage" />
        <dc:title></dc:title>
      </cc:Work>
    </rdf:RDF>
  </metadata>
  <g
     inkscape:label="Ebene 1"
     inkscape:groupmode="layer"
     id="layer1"
     transform="translate(-524.85436,-611.45853)">
    <path
       style="fill:#000000"
       d="m 553.33704,837.70528 c -1.92611,-1.00836 -5.70062,-4.06554 -8.38779,-6.79374 l -4.88577,-4.96036 1.27103,-4.82575 c 2.25888,-8.57639 2.25117,-13.5182 -0.0388,-24.82576 l -2.22764,-11 2.73906,-6.83739 c 2.61192,-6.52001 2.70606,-7.34251 2.02815,-17.71977 -0.61135,-9.35844 -1.02903,-11.22566 -2.98257,-13.33356 -1.95785,-2.11255 -2.21166,-3.2564 -1.83734,-8.28022 0.23887,-3.20598 0.62506,-6.40398 0.85818,-7.10666 0.23314,-0.70268 -0.26525,-4.24908 -1.10753,-7.88089 -1.15059,-4.96127 -1.26975,-7.35385 -0.4792,-9.62162 2.09965,-6.02308 1.35705,-10.03582 -2.54898,-13.77372 -3.13562,-3.00065 -6.481,-8.85405 -8.79727,-15.39255 -0.37923,-1.07051 -1.12921,-6.58701 -1.66662,-12.25888 -1.09826,-11.59103 -0.22488,-14.83513 4.83587,-17.9624 1.50106,-0.92757 4.64169,-3.61544 6.97919,-5.97305 4.351,-4.38843 5.55508,-8.6542 3.1279,-11.08139 -0.61716,-0.61716 -1.29585,-2.61433 -1.5082,-4.43816 -0.21236,-1.82383 -0.64826,-4.14205 -0.96868,-5.15161 -1.85425,-5.84221 7.0048,-12.02942 13.94469,-9.73905 6.78652,2.23975 9.58223,7.80725 9.63043,19.17847 0.0161,3.80594 -0.46169,6.03053 -1.47614,6.87245 -0.825,0.68469 -1.56128,2.65229 -1.63618,4.37244 -0.10252,2.35441 -0.24332,2.57135 -0.56955,0.87756 -0.35329,-1.8342 -1.0957,-2.25 -4.01743,-2.25 -2.92216,0 -4.32308,-0.78488 -7.58572,-4.25 -2.20091,-2.3375 -3.69247,-3.70731 -3.31458,-3.04402 1.37867,2.41987 -2.27829,8.05542 -9.2451,14.24716 -8.17509,7.26559 -8.91843,9.83744 -4.51275,15.61358 2.52868,3.31527 2.17158,4.74221 -0.54637,2.18328 -1.09802,-1.03377 -1.21912,-0.29859 -0.70008,4.25 0.34519,3.025 0.85945,6.72648 1.1428,8.22552 0.73845,3.90661 5.14968,11.85134 7.49081,13.49113 1.87214,1.3113 1.99348,1.19444 1.98314,-1.90995 -0.006,-1.81868 -0.29908,-5.05059 -0.65117,-7.18201 l -0.64018,-3.87531 -1.82658,2.37531 c -1.14693,1.49147 -1.83486,1.84647 -1.84882,0.95405 -0.0122,-0.78169 0.66639,-2.18219 1.50805,-3.11221 1.83288,-2.02531 3.68349,-7.96653 2.48146,-7.96653 -0.46674,0 -1.78533,-1.51562 -2.93019,-3.36803 -2.17903,-3.52574 -2.95871,-12.63197 -1.08156,-12.63197 0.55,0 1,-0.83026 1,-1.84501 0,-3.53347 3.0124,-4.92577 9.55327,-4.41539 5.52727,0.43128 6.25496,0.76667 8.37438,3.85976 1.93293,2.82093 2.24474,4.30835 1.86445,8.89404 -0.25115,3.02863 -0.21925,5.5066 0.0709,5.5066 0.29015,0 1.78498,-1.20469 3.32184,-2.6771 3.12829,-2.99709 3.98363,-2.88378 2.75385,0.36484 -0.85,2.24535 -7.34041,4.80006 -9.2292,3.63272 -0.61549,-0.3804 -0.71028,0.65317 -0.25562,2.78749 0.39741,1.86563 0.93085,6.09205 1.18541,9.39205 0.39661,5.14129 0.0616,6.78715 -2.34058,11.5 -1.96603,3.85712 -3.47481,5.59545 -5.05107,5.81955 -2.07715,0.29531 -2.24764,0.83259 -2.24764,7.08333 0,3.72008 0.27857,7.04236 0.61905,7.38283 0.76105,0.76106 2.6532,-1.05739 4.29783,-4.1304 1.08733,-2.03169 0.98799,-2.36743 -0.84206,-2.846 -3.63921,-0.95167 -2.23564,-1.82441 2.92174,-1.81674 4.93767,0.007 6.50973,1.68916 2.17511,2.32698 -1.19442,0.17575 -2.17167,0.7226 -2.17167,1.2152 0,0.49261 -1.40265,2.49319 -3.117,4.44573 l -3.11701,3.55007 0.66093,8.73473 c 0.3635,4.80409 0.91725,10.64722 1.23054,12.98472 l 0.56963,4.25 4.92629,0 c 2.96937,0 6.49943,-0.80255 8.88646,-2.02032 3.72353,-1.89961 3.96016,-2.288 3.96016,-6.5 0,-2.46383 0.45,-4.47968 1,-4.47968 0.55,0 1,2.00264 1,4.45031 0,3.17881 -0.49999,4.74499 -1.75,5.4817 -1.36553,0.8048 -1.4663,1.21877 -0.45869,1.88424 1.01278,0.66889 1.05839,1.89224 0.21144,5.67147 -0.59393,2.65024 -1.10128,9.36219 -1.12744,14.91545 -0.0262,5.55326 -0.61148,12.57183 -1.30071,15.59683 -1.03364,4.53661 -1.00579,6.55097 0.15901,11.5 0.77668,3.3 1.19718,7.68741 0.93445,9.74981 -0.26273,2.06239 -0.0442,4.01773 0.48567,4.3452 0.52985,0.32746 0.69201,1.83085 0.36036,3.34085 -0.40557,1.84654 -0.0973,3.16514 0.94145,4.02724 0.84945,0.70499 1.54446,1.93622 1.54446,2.73607 0,0.85154 -1.08176,0.16868 -2.61005,-1.64759 -1.63446,-1.94244 -2.41689,-3.84056 -2.09326,-5.07811 0.28423,-1.08693 0.10876,-1.72405 -0.38995,-1.41583 -2.24036,1.38462 -0.0532,10.44236 2.52146,10.44236 2.65014,0 6.51998,2.26138 7.12342,4.16265 0.80348,2.53154 8.12521,5.95656 11.12432,5.20383 4.63865,-1.16422 5.69084,-6.69384 1.99418,-10.48012 -2.39276,-2.45076 -10.83957,-15.20463 -11.84603,-17.88636 -0.30963,-0.825 -0.15897,-4.2 0.33478,-7.5 1.97594,-13.20609 3.08432,-23.36485 3.32775,-30.5 0.14073,-4.125 0.76382,-9.07203 1.38463,-10.9934 2.09021,-6.46903 1.78117,-6.92943 -4.23449,-6.30856 -3.45956,0.35706 -5.61021,0.15394 -6.05902,-0.57225 -0.4797,-0.77617 0.83346,-1.12579 4.22838,-1.12579 6.07237,0 10.60076,-2.97156 9.67759,-6.3505 -0.56772,-2.07794 -0.53665,-2.0863 0.93333,-0.25101 1.32069,1.6489 1.33601,2.2405 0.11651,4.5 -2.09395,3.8797 -4.83659,16.75798 -4.1508,19.49039 0.32939,1.31236 0.12473,4.57424 -0.45479,7.24861 -0.57952,2.67438 -1.46775,8.91251 -1.97385,13.86251 -0.5061,4.95 -1.20685,10.72862 -1.55722,12.84138 -0.7017,4.23128 0.37116,7.03675 4.83236,12.63646 1.52391,1.91282 2.77075,3.98057 2.77075,4.59502 0,0.61444 0.85703,1.89277 1.90452,2.84073 1.85499,1.67874 1.91914,1.50724 2.4669,-6.59501 0.30931,-4.57522 0.80415,-22.04358 1.09966,-38.81858 0.2955,-16.775 0.83075,-40.77338 1.18943,-53.32974 0.55159,-19.30897 0.43528,-22.79917 -0.75417,-22.63152 -3.27508,0.46162 -5.03977,-0.217 -8.52751,-3.27927 l -3.69076,-3.24053 0.54626,8.75588 c 0.31575,5.06106 1.10948,9.43452 1.88095,10.36409 0.73408,0.88451 1.67138,4.3651 2.0829,7.73464 1.59178,13.03378 2.03868,19.10059 1.36051,18.46949 -0.80447,-0.74865 -2.34541,-9.48894 -3.23317,-18.33879 -0.3308,-3.29766 -1.24319,-6.97515 -2.02753,-8.17221 -1.35932,-2.07459 -1.59493,-2.10592 -5.03354,-0.66918 -7.71633,3.2241 -25.26445,3.40751 -25.26445,0.26407 0,-0.48827 1.08782,-0.46384 2.45266,0.0551 3.32365,1.26365 15.96116,0.35025 21.79734,-1.57544 4.12583,-1.36134 4.74076,-1.9181 4.67971,-4.23693 -0.0618,-2.34657 -0.16541,-2.42761 -0.85636,-0.66963 -0.64088,1.63056 -0.86788,1.3073 -1.22892,-1.75 -0.42662,-3.61271 0.45126,-5.08241 1.49329,-2.5 0.27741,0.6875 0.53991,-0.22287 0.58333,-2.02305 l 0.0789,-3.27309 -2.75,1.73381 c -2.73685,1.72551 -2.74163,1.72405 -1,-0.30569 0.9625,-1.12172 1.75,-2.75406 1.75,-3.62742 0,-0.87336 0.53071,-1.76483 1.17935,-1.98104 0.89938,-0.29979 0.91168,-2.00843 0.0518,-7.19759 -0.91368,-5.51388 -0.86856,-7.20955 0.23791,-8.94022 2.29255,-3.58586 3.45965,-14.29249 1.81408,-16.64188 -1.43721,-2.0519 -5.28315,-2.77539 -5.28315,-0.99386 0,0.55 -1.9125,0.93614 -4.25,0.8581 l -4.25,-0.14191 3.90981,-0.60809 3.90981,-0.6081 -4.22525,-1.85122 c -4.59167,-2.01176 -4.91497,-3.59581 -0.37643,-1.84437 1.53013,0.59048 4.6922,1.36521 7.02682,1.72161 2.33462,0.3564 4.51532,1.08578 4.846,1.62083 0.34129,0.55222 1.12647,0.25454 1.81605,-0.68852 0.69738,-0.95372 3.17974,-1.88283 5.82797,-2.18133 3.96222,-0.4466 4.96256,-0.17057 7.08934,1.95621 1.3619,1.3619 3.19611,2.75244 4.07603,3.0901 1.98055,0.76001 2.2471,10.65201 0.37705,13.99243 -0.67255,1.20134 -1.27638,5.55926 -1.34186,9.68426 -0.0764,4.81384 -0.71086,8.64224 -1.77145,10.68924 -1.24953,2.41166 -1.77981,7.04411 -2.17495,19 -0.71902,21.75605 -2.54875,99.79455 -2.59812,110.81076 -0.0468,10.45195 -1.72668,13.5 -7.44013,13.5 -5.51816,0 -9.25396,1.13969 -9.73235,2.96907 -0.45775,1.75043 -8.55426,5.15716 -11.64648,4.90043 -0.86452,-0.0718 -3.14777,-0.95552 -5.07388,-1.96389 z m 13.59125,-1.97966 c 1.98448,-1.64698 1.84718,-2.05867 -2.13744,-6.40886 -1.95151,-2.13055 -4.37966,-6.15599 -5.39588,-8.94541 -1.01623,-2.78943 -2.54978,-6.87168 -3.4079,-9.07168 -0.85812,-2.2 -1.57998,-5.84988 -1.60412,-8.11085 -0.0507,-4.75327 3.35323,-27.22744 4.90473,-32.38255 1.51455,-5.03237 1.29605,-9.07876 -0.60361,-11.17786 -0.99019,-1.09416 -1.19104,-1.82874 -0.5,-1.82874 0.63525,0 1.20217,0.5625 1.25984,1.25 0.17483,2.08415 2.73582,-6.54852 2.8183,-9.5 0.087,-3.11174 -0.39676,-3.26586 -3.92315,-1.25 -1.375,0.78602 -3.6751,1.44508 -5.11133,1.46456 -2.23996,0.0304 -2.54336,0.39097 -2.13342,2.53544 0.27897,1.45935 0.0131,2.5 -0.63867,2.5 -0.61412,0 -1.11658,-1.125 -1.11658,-2.5 0,-1.87925 -0.52556,-2.5 -2.11663,-2.5 -1.72154,0 -1.99493,0.41999 -1.46466,2.25 0.35858,1.2375 0.88378,6.525 1.16711,11.75 0.66485,12.26091 1.29074,16.19433 2.46168,15.47064 0.59393,-0.36707 0.59762,0.33256 0.01,1.87835 -0.95417,2.50966 0.67883,28.65852 1.85171,29.65101 0.32498,0.275 0.68677,4.71792 0.80397,9.87315 0.25475,11.20589 1.5413,15.81882 4.59397,16.47174 3.19984,0.68441 8.65485,-0.0684 10.28217,-1.41894 z m -11.063,-1.96839 c 0.24522,-0.39677 2.34769,-0.74765 4.67215,-0.77973 2.90068,-0.04 3.76924,0.22415 2.76911,0.84226 -1.70351,1.05283 -8.09738,0.9991 -7.44126,-0.0625 z m -4.11879,-31.47034 c -0.34687,-1.38202 -0.1882,-5.09452 0.35259,-8.25 l 0.98326,-5.73722 0.12835,8.25 c 0.13082,8.4083 -0.33535,10.23492 -1.4642,5.73722 z m 1.78751,-16.98722 c 0.0204,-1.65 0.2445,-2.20394 0.49804,-1.23097 0.25354,0.97297 0.23687,2.32297 -0.0371,3 -0.27393,0.67703 -0.48137,-0.11903 -0.46099,-1.76903 z M 551.00573,774.133 c -1.03737,-1.03737 -0.78384,-4.33333 0.33333,-4.33333 0.55,0 1,1.125 1,2.5 0,2.61806 -0.23099,2.93567 -1.33333,1.83333 z m 2.08333,-14.52777 c 1.20694,-1.20695 2.49607,-1.89282 2.86472,-1.52417 0.97294,0.97294 -1.58134,3.71861 -3.45939,3.71861 -1.28571,0 -1.16897,-0.43081 0.59467,-2.19444 z m -3.06276,69.94444 c -0.29127,-1.2375 -0.82257,-6.75 -1.18067,-12.25 -0.35809,-5.5 -1.3389,-12.475 -2.17958,-15.5 -0.96229,-3.46262 -1.32962,-7.53738 -0.99163,-11 0.29528,-3.025 0.22002,-7.525 -0.16723,-10 l -0.7041,-4.5 -1.70841,4.21123 c -1.57909,3.89248 -1.59282,4.9143 -0.18144,13.5 0.83983,5.10882 2.01086,10.26504 2.60228,11.45826 0.74636,1.5058 0.76213,3.0679 0.0516,5.10624 -0.60557,1.73714 -0.66325,3.50608 -0.1412,4.33051 0.4854,0.76657 0.87576,2.29376 0.86746,3.39376 -0.0149,1.97408 -0.0298,1.97465 -1.14947,0.0444 -1.12579,-1.94086 -1.14015,-1.94086 -1.8993,0 -1.54803,3.95769 -0.89575,6.75009 2.34449,10.03689 3.84674,3.90202 5.1621,4.24849 4.43723,1.16876 z m 21.12396,-0.1553 c -0.81648,-0.60208 -2.03538,-2.12874 -2.70866,-3.39257 -1.15818,-2.17405 -5.85308,-4.78492 -6.83629,-3.80171 -0.251,0.251 0.52185,1.27609 1.71745,2.27797 1.1956,1.00189 2.80436,3.01934 3.57503,4.48323 1.06231,2.01786 1.92556,2.5245 3.56911,2.0947 1.83628,-0.4802 1.94081,-0.73436 0.68336,-1.66162 z m -10.86188,-27.0947 c 0.0217,-2.2 -0.48872,-5.8 -1.13436,-8 l -1.1739,-4 -0.70221,3 c -0.96732,4.13256 -1.10597,16.99955 -0.19301,17.9125 1.14924,1.14925 3.15931,-4.44301 3.20348,-8.9125 z m -0.28704,-25.75 c -0.27741,-0.6875 -0.50438,-0.125 -0.50438,1.25 0,1.375 0.22697,1.9375 0.50438,1.25 0.27741,-0.6875 0.27741,-1.8125 0,-2.5 z M 541.4032,737.46381 c -0.75218,-0.75219 -1.06414,0.26482 -1.06414,3.46919 0,5.89487 1.40676,7.30975 1.81414,1.82462 0.17277,-2.32632 -0.16473,-4.70854 -0.75,-5.29381 z m 6.30465,-37.94611 c 2.75062,-3.69768 3.42164,-14.53483 1.33972,-21.63694 -1.15847,-3.95189 -1.25955,-5.93397 -0.43899,-8.60761 0.58632,-1.91041 1.44054,-3.47348 1.89826,-3.47348 1.27839,0 0.98692,3.43602 -0.41778,4.925 -1.00879,1.06932 -0.96055,1.23772 0.25,0.8727 2.19141,-0.66078 2.3447,-6.71057 0.27359,-10.7977 -1.61046,-3.17808 -2.18749,-3.51184 -6.27359,-3.62873 -5.33022,-0.15248 -8,0.41355 -8,1.69612 0,0.51293 0.9,0.93261 2,0.93261 2.97898,0 2.41889,1.81757 -0.67288,2.18358 -3.49719,0.414 -5.04391,4.56844 -3.14865,8.45718 0.72684,1.49135 1.99653,2.93046 2.82153,3.19802 1.18262,0.38353 1.25617,0.18757 0.34757,-0.92616 -1.14088,-1.39847 -1.69152,-4.01249 -1.45613,-6.91262 0.0748,-0.92196 0.87949,-0.35041 2.08807,1.48314 1.61708,2.45328 1.93223,4.49586 1.77432,11.5 -0.10562,4.68427 0.17239,12.03031 0.61779,16.32452 0.73686,7.10416 0.99535,7.77994 2.86878,7.5 1.13242,-0.16921 2.9902,-1.55955 4.12839,-3.08963 z m 40.06977,-8.96803 c 3.68305,-4.15055 4.46066,-8.50341 3.80701,-21.3107 -0.52085,-10.20521 -0.55983,-10.33866 -3.13649,-10.73664 -2.34582,-0.36233 -2.29291,-0.41811 0.52429,-0.55283 3.30754,-0.15816 4.32277,1.42003 4.35298,6.76684 0.0232,4.10818 0.98315,1.69844 1.53605,-3.85594 l 0.52511,-5.27533 -4.08641,0.3897 c -3.52681,0.33633 -3.84555,0.21357 -2.3275,-0.89645 2.29416,-1.67753 0.83171,-3.1666 -3.85733,-3.92753 -2.80847,-0.45575 -4.0091,-0.11829 -5.74101,1.61362 -1.22038,1.22038 -1.93431,2.85596 -1.61258,3.69437 0.31753,0.82745 0.57732,2.36766 0.57732,3.42268 0,1.22786 0.69408,1.91821 1.92857,1.91821 2.42091,0 5.07143,2.57758 5.07143,4.93188 0,0.98396 -1.17589,3.5218 -2.61309,5.63963 -1.4372,2.11783 -2.95927,5.89312 -3.38238,8.38954 l -0.76929,4.53895 -0.11762,-4.31574 c -0.0647,-2.37366 0.34722,-5.18431 0.91536,-6.24589 0.80801,-1.50976 0.54215,-2.59402 -1.22066,-4.97835 l -2.25363,-3.0482 -1.28888,3.72284 c -1.44863,4.18425 -0.76686,15.01409 1.09786,17.43952 1.69828,2.20892 6.74409,5.92582 8.0445,5.92582 0.62836,0 2.44023,-1.4625 4.02639,-3.25 z m -6.09873,-22.52224 c -1.18809,-0.95027 -2.37339,-2.62776 -2.634,-3.72776 -0.3522,-1.48663 -0.5036,-1.28585 -0.58983,0.78222 -0.0839,2.01344 0.50573,3.03213 2.134,3.68662 3.29441,1.32419 3.49848,1.18543 1.08983,-0.74108 z m -23.65428,-24.40207 c 2.7267,-2.56161 2.98045,-6.73466 0.88759,-14.59656 -1.8495,-6.94769 -4.71652,-9.41828 -10.30871,-8.88327 -6.52476,0.62422 -9.26443,2.89451 -9.26443,7.67719 0,2.18732 0.45857,3.97695 1.01905,3.97695 0.586,0 0.75401,1.056 0.39537,2.48497 -0.51161,2.03841 -0.15563,2.66292 1.98094,3.47525 1.43255,0.54465 2.60464,1.39073 2.60464,1.88017 0,0.48944 0.93266,2.07558 2.07258,3.52475 2.62137,3.33253 7.33801,3.53721 10.61297,0.46055 z m 21.92737,184.35701 c -0.67883,-1.09836 2.16558,-5.1827 3.60932,-5.1827 1.24475,0 0.87002,1.32218 -1.10139,3.88603 -1.15541,1.50264 -2.08394,1.98271 -2.50793,1.29667 z m -8.61292,-9.25252 c 0,-0.58841 -1.37162,-3.06341 -3.04804,-5.5 -3.38477,-4.9196 -2.98318,-5.94136 0.66601,-1.69453 2.71552,3.16025 4.77215,8.26435 3.33001,8.26435 -0.52139,0 -0.94798,-0.48142 -0.94798,-1.06982 z m -4,-12.93018 c 0,-0.55 0.47656,-1 1.05902,-1 0.58246,0 0.7809,0.45 0.44098,1 -0.33992,0.55 -0.81648,1 -1.05902,1 -0.24254,0 -0.44098,-0.45 -0.44098,-1 z m 1.30375,-14.78305 c 0.3301,-4.28067 1.05214,-8.89317 1.60452,-10.25 0.74028,-1.81837 0.81864,-0.8895 0.29803,3.53305 -0.38846,3.3 -0.7063,7.9125 -0.7063,10.25 0,2.3375 -0.4042,4.25 -0.89822,4.25 -0.50542,0 -0.63575,-3.40352 -0.29803,-7.78305 z m -3.88379,-1.757 c 0.57934,-2.49702 1.2174,-4.04787 1.41791,-3.44633 0.54334,1.63 -0.8096,7.98638 -1.69987,7.98638 -0.42426,0 -0.29738,-2.04302 0.28196,-4.54005 z m 2.96465,-18.63864 c -0.10666,-2.93339 -0.011,-3.03088 1.26348,-1.2879 1.44899,1.98162 1.36535,3.6305 -0.21059,4.15156 -0.51563,0.17048 -0.98943,-1.11817 -1.05289,-2.86366 z m -0.31932,-10.24264 c -0.96472,-1.16242 -0.81867,-1.32694 0.80181,-0.90317 1.47346,0.38531 2.39194,-0.27574 3.58283,-2.57868 1.85954,-3.59595 2.55007,-3.89296 2.55007,-1.09682 0,2.01143 -3.24242,6 -4.87756,6 -0.48265,0 -1.40837,-0.6396 -2.05715,-1.42133 z m -1.36198,-30.04725 c 1.81077,-2.48791 3.29669,-3.24803 3.29669,-1.68641 0,0.9917 -3.33112,4.15499 -4.37543,4.15499 -0.39487,0 0.0906,-1.11086 1.07874,-2.46858 z m -9.24627,-7.32129 c 0.75737,-0.75868 11.19607,-4.20067 12.52884,-4.13118 0.83277,0.0434 0.27662,0.53092 -1.23588,1.08333 -3.13933,1.14658 -3.56002,2.47505 -1,3.15778 0.9625,0.25669 -1.02477,0.40219 -4.41616,0.32333 -3.39139,-0.0789 -6.03595,-0.27383 -5.8768,-0.43326 z m 2.54296,-6.16548 c 11.67417,-1.84713 15,-2.10017 15,-1.14124 0,0.53476 -0.7875,0.94664 -1.75,0.91528 -0.9625,-0.0314 -5.575,0.20246 -10.25,0.51959 -6.91653,0.46919 -7.4754,0.41449 -3,-0.29363 z m -4.96482,-16.97891 c -1.30461,-2.4377 -1.31916,-3.35928 -0.0406,-2.56906 1.60599,0.99255 3.22423,4.50332 2.07575,4.50332 -0.55,0 -1.46583,-0.87042 -2.03519,-1.93426 z m 9.96482,1.17915 c 0,-0.55 0.675,-1.5602 1.5,-2.24489 0.83674,-0.69443 1.5,-0.80272 1.5,-0.24489 0,0.55 -0.675,1.5602 -1.5,2.24489 -0.83674,0.69443 -1.5,0.80272 -1.5,0.24489 z m -7,-5.22186 c 0,-0.43437 0.7875,-1.0162 1.75,-1.29295 0.9625,-0.27674 2.5375,-0.82737 3.5,-1.22362 0.9625,-0.39624 1.75,-0.29779 1.75,0.21877 0,0.51656 -1.575,1.42259 -3.5,2.01339 -1.925,0.5908 -3.5,0.71878 -3.5,0.28441 z m 8.5,-4.02303 c 1.73755,-5.47454 -3.28886,-9.2794 -7.45435,-5.64275 l -2.45435,2.14275 1.56783,-2.5 c 1.02138,-1.62864 2.66106,-2.60922 4.70435,-2.81336 3.3313,-0.33282 4.24291,-2.68025 1.93652,-4.98664 -0.86437,-0.86437 -0.88087,-1.2 -0.059,-1.2 1.8543,0 2.30848,1.52332 2.82228,9.46591 0.32859,5.07954 0.13138,7.53409 -0.60533,7.53409 -0.63763,0 -0.82834,-0.83293 -0.45793,-2 z m -12.5,-9.42782 c 0,-0.18414 1.56746,-1.53036 3.48324,-2.9916 1.91578,-1.46123 3.25873,-2.07714 2.98434,-1.36869 -0.44208,1.14143 -6.46758,5.20368 -6.46758,4.36029 z m 14.8125,-0.25529 c 0.72187,-0.28887 1.58438,-0.25335 1.91667,0.0789 0.33229,0.3323 -0.25834,0.56864 -1.3125,0.52522 -1.16495,-0.048 -1.4019,-0.28494 -0.60417,-0.60416 z m -4.13126,-9.56071 c -1.5484,-1.13221 -1.27287,-1.30075 2.27869,-1.39388 2.22204,-0.0583 4.04007,0.28639 4.04007,0.76588 0,0.4795 -0.4132,0.87182 -0.91821,0.87182 -0.50502,0 -1.53043,0.23493 -2.2787,0.52207 -0.74826,0.28713 -2.1531,-0.0575 -3.12185,-0.76589 z m -5.46802,-8.00225 c -1.56269,-4.14005 -0.77038,-4.73205 1.20938,-0.90361 0.86353,1.6699 1.20984,3.25881 0.76956,3.53092 -0.44027,0.2721 -1.3308,-0.91019 -1.97894,-2.62731 z m 12.28678,-7.3386 c -1.65,-1.32297 -2.48735,-2.40763 -1.86078,-2.41036 1.46419,-0.006 6.02024,3.66454 5.36078,4.31931 -0.275,0.27305 -1.85,-0.58598 -3.5,-1.90895 z m -17.6875,-2.09844 c 0.72187,-0.28888 1.58438,-0.25335 1.91667,0.0789 0.33229,0.33229 -0.25834,0.56864 -1.3125,0.52522 -1.16495,-0.048 -1.4019,-0.28495 -0.60417,-0.60417 z m -5.63222,-2.59966 c -0.58553,-0.70553 -1.54308,-2.61803 -2.12789,-4.25 l -1.0633,-2.96723 2.00511,2.5 c 1.1028,1.375 2.45526,3.04351 3.00545,3.70779 0.55019,0.66429 1.00035,1.45179 1.00035,1.75 0,1.00916 -1.74875,0.54987 -2.81972,-0.74056 z"
       id="path3320"
       inkscape:connector-curvature="0" />
  </g>
</svg>
