<?xml version="1.0" encoding="UTF-8" standalone="no"?>
<!-- Created with Inkscape (http://www.inkscape.org/) -->

<svg
   xmlns:dc="http://purl.org/dc/elements/1.1/"
   xmlns:cc="http://creativecommons.org/ns#"
   xmlns:rdf="http://www.w3.org/1999/02/22-rdf-syntax-ns#"
   xmlns:svg="http://www.w3.org/2000/svg"
   xmlns="http://www.w3.org/2000/svg"
   xmlns:sodipodi="http://sodipodi.sourceforge.net/DTD/sodipodi-0.dtd"
   xmlns:inkscape="http://www.inkscape.org/namespaces/inkscape"
   width="568.89575"
   height="899.41608"
   id="svg2"
   version="1.1"
   inkscape:version="0.48.3.1 r9886"
   sodipodi:docname="Close-grip-ez-bar-curl-2.svg">
  <defs
     id="defs4" />
  <sodipodi:namedview
     id="base"
     pagecolor="#ffffff"
     bordercolor="#666666"
     borderopacity="1.0"
     inkscape:pageopacity="0.0"
     inkscape:pageshadow="2"
     inkscape:zoom="0.49497475"
     inkscape:cx="942.79642"
     inkscape:cy="139.0898"
     inkscape:document-units="px"
     inkscape:current-layer="layer1"
     showgrid="false"
     inkscape:window-width="1855"
     inkscape:window-height="1056"
     inkscape:window-x="65"
     inkscape:window-y="24"
     inkscape:window-maximized="1"
     fit-margin-top="0"
     fit-margin-left="0"
     fit-margin-right="0"
     fit-margin-bottom="0" />
  <metadata
     id="metadata7">
    <rdf:RDF>
      <cc:Work
         rdf:about="">
        <dc:format>image/svg+xml</dc:format>
        <dc:type
           rdf:resource="http://purl.org/dc/dcmitype/StillImage" />
        <dc:title></dc:title>
      </cc:Work>
    </rdf:RDF>
  </metadata>
  <g
     inkscape:label="Ebene 1"
     inkscape:groupmode="layer"
     id="layer1"
     transform="translate(697.89628,203.70157)">
    <path
       style="fill:#000000"
       d="m -322.90445,495.28473 c -2.10477,-0.91347 -4.68266,-1.2374 -6.75441,-0.84874 -3.75809,0.70502 -7.51656,-1.18542 -9.41711,-4.73662 -0.63018,-1.17751 -1.97926,-7.74527 -2.99795,-14.59502 -1.01869,-6.84974 -2.11256,-13.27452 -2.43082,-14.27727 -1.20478,-3.79594 1.41385,-17.9734 4.48094,-24.26011 2.34518,-4.807 3.02236,-7.54595 3.01924,-12.21177 -0.006,-8.80376 -2.69284,-23.91606 -5.49972,-30.93213 -1.80904,-4.52189 -2.28377,-7.11735 -1.82214,-9.96203 l 0.62427,-3.84694 -4.39919,0.76465 c -17.4479,3.03271 -53.05303,-3.32561 -66.37532,-11.85322 -4.42664,-2.8335 -5.82171,-3.19589 -12.63384,-3.28187 -8.71812,-0.11004 -11.63844,-1.45967 -18.5927,-8.59267 -6.37264,-6.53642 -7.39029,-9.9813 -8.35509,-28.28327 -0.4647,-8.81508 -1.3232,-20.50891 -1.90779,-25.9863 -1.75105,-16.40678 -1.42387,-39.39882 0.76902,-54.04111 1.713,-11.43809 1.77111,-13.20138 0.4836,-14.67612 -1.29201,-1.47988 -1.15864,-3.03434 1.13918,-13.27745 1.43137,-6.38073 3.22058,-13.27648 3.97602,-15.32388 0.75543,-2.0474 3.89843,-10.83354 6.98444,-19.52476 l 5.61093,-15.80221 0.56181,-14.69779 c 0.79587,-20.82095 1.93943,-27.24246 5.87195,-32.97314 2.46562,-3.59304 3.39899,-6.23745 3.89696,-11.0408 0.58848,-5.67645 0.29058,-7.29691 -2.94137,-15.999997 -1.97789,-5.32612 -6.47332,-15.61458 -9.98985,-22.86325 -6.17107,-12.72052 -10.37453,-26.03221 -10.39014,-32.90393 -0.0102,-4.49704 -0.84138,-4.67491 -4.16367,-0.89102 -4.64929,5.29525 -13.95146,9.47435 -21.08874,9.47435 -5.39881,0 -6.19493,-0.28911 -8.94956,-3.25 -4.40873,-4.73885 -16.50638,-22.44089 -19.30617,-28.25 -5.00054,-10.3753003 -6.97065,-33.59963 -3.94459,-46.5 0.83859,-3.575 3.50261,-12.35 5.92004,-19.5 3.44691,-10.19488 4.94884,-16.90562 6.9605,-31.100146 3.18806,-22.495237 3.30816,-28.029267 0.62677,-28.880307 -1.06613,-0.33838 -3.35939,-2.23363 -5.09614,-4.21168 -2.52556,-2.87645 -3.04029,-4.18366 -2.57112,-6.52953 0.55307,-2.76535 0.42991,-2.90009 -2.15386,-2.35642 -6.24515,1.3141 -187.38157,32.578077 -188.75003,32.578077 -0.81974,0 -1.49044,-0.8681 -1.49044,-1.9291 0,-2.40714 -9.03586,-0.64745 100.5,-19.571827 49.5,-8.55205 91.0125,-15.97826 92.25,-16.50269 1.72686,-0.73181 2.25,-1.77227 2.25,-4.47494 0,-1.93679 -0.45,-3.52144 -0.99999,-3.52144 -0.55,0 -44.97712,7.63788 -98.72693,16.97307 -58.38019,10.13939 -98.09165,16.60836 -98.63279,16.06722 -0.49822,-0.49822 -0.67825,-1.49899 -0.40006,-2.22392 0.34784,-0.90646 30.91519,-6.57861 97.88278,-18.16336 53.55734,-9.26491 98.38949,-17.07581 99.62699,-17.35756 1.579,-0.3595 2.25,-1.2403 2.25,-2.95352 0,-7.10088 5.82851,-11.54887 14.81391,-11.30515 3.12735,0.0848 8.38609,-0.2032 11.68609,-0.64006 13.59164,-1.79928 27.4628,-0.008 28.70079,3.70566 0.26824,0.80472 8.83949,-0.29243 28.87326,-3.6959 l 28.49176,-4.84035 1.9671,-3.03307 c 2.48285,-3.82832 7.7531,-6.4301 14.61901,-7.21701 2.94144,-0.33713 6.23571,-1.22116 7.32059,-1.9645 1.08487,-0.74335 2.54737,-1.35155 3.25,-1.35155 0.70262,0 2.23479,-0.9573 3.40483,-2.12734 1.84183,-1.84183 2.92276,-2.05522 8.05385,-1.58995 5.22128,0.47345 6.7828,0.14504 13.12265,-2.7599 8.57603,-3.92957 15.54005,-5.52281 24.14005,-5.52281 6.78307,0 17.0432,2.72618 22.18407,5.89444 l 3.12797,1.92773 74.37201,-12.91296 c 40.9046,-7.10214 74.9346,-12.70125 75.6221,-12.44247 1.8513,0.69682 1.5154,3.32138 -0.5,3.90686 -0.9625,0.27961 -33.7,6.01188 -72.75,12.73839 -39.05004,6.7265 -71.20254,12.39306 -71.45004,12.59234 -0.2475,0.19929 1.1025,1.89335 3,3.76459 l 3.45,3.40225 70.50004,-12.29492 c 38.775,-6.7622 71.0625,-12.08507 71.75,-11.82859 0.6875,0.25647 1.25,1.1073 1.25,1.89071 0,0.78342 -0.5625,1.62714 -1.25,1.87494 -0.6875,0.24779 -31.175,5.6314 -67.75,11.96358 -36.57504,6.33217 -67.70543,11.76901 -69.17868,12.08186 l -2.67864,0.56882 1.89205,3.20679 c 2.7282,4.62395 4.82199,11.00923 5.97336,18.21651 1.18855,7.44004 0.0174,14.4245 -3.68038,21.94913 -2.82266,5.74382 -10.34629,13.85083 -14.42016,15.53828 l -2.77853,1.1509 6.59035,6.155407 c 7.46238,6.9699 11.77573,14.76652 12.8278,23.18694 1.04244,8.343446 -1.31572,14.492006 -9.51981,24.821476 -5.178,6.51943 -7.44543,10.34149 -8.60208,14.5 -0.86387,3.10585 -2.25431,8.10846 -3.08986,11.1169 -2.02812,7.30235 -4.89729,12.74263 -8.41472,15.9553097 -2.10549,1.92307 -4.08235,6.0454 -7.24584,15.10968 -5.35797,15.3520603 -6.22624,17.0298603 -12.53487,24.2216503 -2.7773,3.1661 -5.5307,7.4411 -6.11866,9.5 -0.58796,2.0589 -1.5612,10.08194 -2.16274,17.82897 -1.31809,16.97508 -0.21789,28.33872 3.08396,31.85338 1.53952,1.63874 2.26665,4.08866 2.71557,9.149547 0.52754,5.9472 1.22307,7.83882 4.98489,13.55722 5.68132,8.63626 6.79812,11.44474 10.37366,26.08712 2.52768,10.35125 2.98491,14.20624 2.99388,25.24213 0.0115,14.16986 2.50241,33.37149 6.1945,47.75191 2.08764,8.13123 2.12578,8.81372 0.55884,10 -1.76514,1.33633 -1.63656,-2.06264 -3.01778,79.77318 -0.21836,12.93809 0.0165,15.34556 2.17986,22.34978 l 2.42458,7.84978 4.0747,-0.84014 c 2.24109,-0.46207 7.07,-0.79946 10.73091,-0.74976 12.53297,0.17014 20.29293,7.58377 21.48261,20.52384 0.48503,5.27556 0.0636,8.16574 -2.45906,16.8665 -5.25521,18.12504 -5.35855,19.72058 -1.89369,29.23719 4.02807,11.06351 4.18762,19.76609 0.51816,28.26281 -1.42516,3.3 -3.36916,8.18414 -4.32,10.85364 -1.38652,3.89268 -2.45339,5.17961 -5.38856,6.5 -2.01287,0.9055 -5.36896,3.54089 -7.45799,5.85642 -2.4177,2.67984 -5.67725,4.90999 -8.96795,6.13577 -5.10246,1.90066 -5.19067,2.00533 -6.77975,8.04535 -1.21202,4.60682 -1.37477,7.16894 -0.65836,10.36423 1.283,5.72235 -0.18611,9.17036 -4.94132,11.5973 -2.08466,1.06396 -4.64753,2.88236 -5.69528,4.04088 -1.31662,1.45583 -3.10893,2.10641 -5.80305,2.10641 -2.51018,0 -5.20798,0.89011 -7.57715,2.5 -4.24833,2.88681 -4.56709,2.91983 -9.11872,0.94442 z m 8.93802,-5.97529 c 0.93038,-0.84198 4.0637,-1.81181 6.96295,-2.15519 3.88434,-0.46004 5.39395,-1.09317 5.73732,-2.40622 0.25629,-0.98006 1.73604,-2.22466 3.28832,-2.76579 4.2226,-1.472 5.47188,-4.49608 3.3449,-8.09679 -1.64064,-2.77736 -1.63084,-3.21902 0.20466,-9.23103 3.18207,-10.42254 2.53919,-20.9604 -2.08972,-34.25399 l -3.80934,-10.93988 1.23544,-16.099 c 1.30136,-16.95793 1.0449,-20.00725 -2.12647,-25.28389 -2.27273,-3.78144 -4.70806,-5.2862 -10.28217,-6.35321 -6.1398,-1.17531 -11.11459,0.63813 -16.98729,6.19228 -5.5742,5.27185 -8.09958,6.27579 -7.20773,2.86535 0.88054,-3.36721 -2.28868,-1.90512 -3.82793,1.76599 -1.22089,2.9118 -1.13997,3.51152 0.87697,6.5 2.193,3.24935 6.5787,24.61132 6.73239,32.79224 l 0.0657,3.5 1.26314,-3.5 c 1.51374,-4.19438 3.17059,-3.77505 2.86742,0.72571 -0.24437,3.62775 -3.06803,9.61477 -7.27107,15.4169 -5.45967,7.53686 -6.24173,20.02588 -2.48389,39.66632 1.76635,9.23187 3.5481,12.19107 7.34031,12.19107 5.34312,0 8.29167,-6.03625 5.65879,-11.58464 -1.75877,-3.70644 -1.26942,-7.41536 0.97843,-7.41536 0.75375,0 1.30876,0.81909 1.23335,1.8202 -0.0754,1.00111 0.61593,3.40712 1.53631,5.34669 1.63302,3.44133 1.48804,5.50737 -0.77774,11.08311 -0.59142,1.4554 -0.15927,1.75 2.56711,1.75 1.80304,0 4.03947,-0.68889 4.96984,-1.53087 z m 3.41039,-15.55894 c -0.40676,-0.65814 -2.02124,-0.83697 -4.07603,-0.45149 -4.14537,0.77767 -5.94146,-0.0634 -4.31655,-2.02127 1.94602,-2.3448 7.42134,-2.82867 10.34339,-0.91407 2.40767,1.57757 2.79113,1.5845 5.06951,0.0916 3.17118,-2.07784 3.53518,-2.03565 3.53518,0.40974 0,3.18014 -8.87413,5.60597 -10.5555,2.88544 z m 30.20531,-23.88258 c 3.19332,-1.8315 5.66052,-4.10742 6.49411,-5.99062 0.92419,-2.08788 2.0493,-3.03699 3.60019,-3.03699 3.14964,0 5.94571,-3.13436 7.30749,-8.19163 0.6364,-2.36342 2.0649,-6.07657 3.17444,-8.25144 2.57095,-5.03948 2.02625,-11.25221 -2.18571,-24.92992 -1.67218,-5.43014 -3.04033,-11.35665 -3.04033,-13.17002 0,-1.81338 1.60516,-8.84553 3.56702,-15.62702 2.8708,-9.92335 3.4468,-13.31877 2.95105,-17.39591 -1.75732,-14.45242 -13.71873,-18.94243 -32.9958,-12.3858 -11.67831,3.9721 -21.27523,4.70649 -32.88577,2.51653 -12.50203,-2.3581 -15.91963,-3.98931 -24.53801,-11.71189 -12.9277,-11.58399 -25.67607,-16.79467 -41.18956,-16.83554 -3.62509,-0.01 -8.66379,0.60644 -11.19712,1.36886 -2.53332,0.76242 -4.85484,1.13742 -5.15893,0.83333 -1.15322,-1.15323 -0.45558,-2.21851 2.43019,-3.7108 4.07145,-2.10542 5.62802,-5.65441 6.41031,-14.61549 0.36523,-4.1837 1.06972,-9.0212 1.56553,-10.75 0.49581,-1.72879 0.57285,-3.14326 0.17119,-3.14326 -0.40166,0 -3.52251,2.25 -6.93523,5 -3.41272,2.75 -6.42768,5 -6.69991,5 -2.14134,0 1.09085,-4.047 10.53942,-13.19633 9.53424,-9.23229 11.52975,-11.74298 14.57927,-18.34328 1.94321,-4.20583 3.38759,-7.78547 3.20973,-7.95476 -0.17786,-0.16929 -3.69838,0.35693 -7.82338,1.16938 -5.10777,1.00602 -11.40634,1.34242 -19.74694,1.05468 -11.65885,-0.40222 -12.59522,-0.59582 -19.5,-4.03173 -3.98918,-1.98507 -10.03627,-5.87592 -13.43798,-8.64633 -7.10644,-5.78761 -6.39395,-6.42058 -8.94688,7.94837 -1.92544,10.83714 -2.08669,27.2182 -0.36915,37.5 0.64313,3.85 1.46894,17.575 1.83514,30.5 0.6573,23.19969 0.70046,23.55895 3.37759,28.11285 1.49147,2.53706 4.31963,6.02456 6.28479,7.75 3.15563,2.77067 4.27398,3.13715 9.57341,3.13715 5.69051,0 5.94511,-0.10329 4.93002,-2 -1.81591,-3.39307 1.09854,-2.43048 10.48653,3.46348 10.02165,6.29178 15.98656,8.70404 29.98664,12.12686 13.96761,3.41488 25.55354,4.01713 38.85968,2.01997 5.95807,-0.89426 11.1711,-1.41689 11.5845,-1.16139 0.4134,0.2555 3.12684,-1.32014 6.02985,-3.50142 6.23883,-4.68777 8.36178,-5.33539 15.5388,-4.74022 7.61747,0.6317 13.00878,4.40147 16.01443,11.19777 3.54441,8.01454 3.92403,13.10071 1.99001,26.66198 -2.06885,14.50667 -1.81024,16.99631 2.9634,28.52921 2.03238,4.91012 3.94074,11.48283 4.25467,14.65376 0.3131,3.1625 0.84427,5.74578 1.18038,5.74062 0.33611,-0.005 2.92852,-1.33852 5.76092,-2.96301 z m 2.78243,-14.44158 c -0.41797,-1.66531 0.0217,-3.67855 1.27032,-5.81644 1.87925,-3.21772 4.08582,-3.70349 3.49577,-0.76959 -0.16592,0.825 -0.40937,3.07239 -0.541,4.9942 -0.29823,4.35423 -3.25243,5.46725 -4.22509,1.59183 z m -2.68821,-75.17533 c -0.32412,-0.32412 -0.35511,-2.0325 -0.0689,-3.79639 0.36394,-2.24271 0.0251,-3.61818 -1.12684,-4.5742 -1.41112,-1.17113 -2.4307,-1.04241 -7.11205,0.8979 -3.00563,1.24576 -6.16663,1.9957 -7.02443,1.66653 -2.38849,-0.91655 -1.25019,-3.89966 1.58816,-4.16207 1.375,-0.12712 4.34664,-0.92878 6.60364,-1.78145 5.48151,-2.07087 7.82159,-1.26203 9.93998,3.43571 1.42001,3.14903 1.54501,4.41334 0.63399,6.4128 -1.11204,2.44068 -2.259,3.07574 -3.43358,1.90117 z m -99.98988,-10.49466 c -8.53244,-2.01147 -19.84524,-9.34161 -18.29309,-11.85303 1.09739,-1.77562 2.63059,-1.23314 7.94657,2.81163 2.8008,2.13106 6.05893,4.3723 7.24028,4.98055 2.54416,1.30992 13.89538,1.66336 20.60209,0.64147 3.89578,-0.59359 4.75,-0.45117 4.75,0.79197 0,3.27567 -12.98867,4.80973 -22.24585,2.62741 z m -41.88171,-29.56798 c -0.86517,-1.04136 -1.50268,-4.95059 -1.7248,-10.57659 -0.32307,-8.1829 -0.1621,-9.12718 1.93676,-11.36131 2.52415,-2.68683 5.26505,-1.74107 2.96967,1.02469 -1.32926,1.60166 -1.02017,15.86991 0.44008,20.31515 0.90211,2.74618 -1.50657,3.14394 -3.62171,0.59806 z m 120.62756,18.83085 c 2.94902,-0.52038 4.07616,-1.23395 4.28986,-2.71581 0.38413,-2.66363 -6.24522,-10.33759 -10.44704,-12.09322 -5.30466,-2.21643 -13.16397,-1.73973 -18.54503,1.12483 -2.97139,1.58179 -4.92117,2.11467 -5.32813,1.45619 -2.14068,-3.46368 8.60407,-7.31727 18.94615,-6.79502 5.91577,0.29873 8.05384,0.88915 11.5154,3.1799 4.20537,2.78298 4.2423,2.78821 3.45531,0.48863 -0.43752,-1.27842 -0.59501,-11.99941 -0.34999,-23.82441 0.57642,-27.81782 0.45128,-42.73144 -0.48042,-57.25562 l -0.75411,-11.75562 -3.651,2.82562 c -6.4392,4.9835 -10.53538,7.03321 -21.71116,10.86415 -10.29725,3.52979 -11.66473,3.75154 -23.2807,3.77513 l -12.34087,0.0251 0.67883,6.33877 c 0.77676,7.25335 9.70923,40.74703 12.09967,45.36964 1.24547,2.40848 1.32005,3.24625 0.34274,3.85026 -0.92202,0.56984 -1.07585,2.82625 -0.58746,8.61729 1.14428,13.5681 6.26966,20.97015 16.8211,24.29297 7.69414,2.423 22.05034,3.51526 29.32685,2.23126 z m -20,-26.21637 c -5.76612,-1.14762 -9.5,-2.74115 -9.5,-4.05437 0,-0.72639 0.99976,-0.91941 2.75,-0.53091 8.9505,1.98675 12.33573,1.93547 15.26636,-0.23124 3.57373,-2.64217 3.98364,-2.65957 3.98364,-0.16907 0,3.77813 -6.18073,6.24329 -12.5,4.98559 z m -34.45416,-22.68086 c -5.19893,-18.16927 -9.04291,-34.08065 -9.04455,-37.43808 -10e-4,-2.59026 -0.0914,-2.62875 -3.61954,-1.54593 -3.20264,0.98292 -4.00707,1.9637 -7.00336,8.53862 -1.86181,4.08548 -5.57688,10.40615 -8.25571,14.04593 -6.75602,9.17953 -8.28199,12.54874 -8.73221,19.27993 -0.21476,3.21082 -0.57633,8.57681 -0.80349,11.92443 -0.39963,5.88917 -0.3404,6.06835 1.82638,5.52452 1.23168,-0.30913 7.26543,0.28292 13.40835,1.31566 10.96364,1.8432 16.26353,3.97578 23.17829,9.32651 l 2.5,1.93453 0.28416,-9.42414 c 0.25583,-8.48425 -0.11701,-10.82617 -3.73832,-23.48198 z m -30.65643,-38.32958 c 4.14377,-0.57635 9.89085,-1.84898 12.77129,-2.82807 6.56796,-2.23252 6.65267,-2.50374 7.64625,-24.48251 l 0.76211,-16.85849 3.61392,-3.14151 c 1.98766,-1.72784 5.42301,-4.34868 7.63412,-5.8241 2.21111,-1.47541 5.871,-5.18791 8.13309,-8.25 6.05253,-8.193 9.43706,-7.16714 5.0065,1.51748 -2.56167,5.02128 -8.13269,11.24272 -12.46488,13.92016 -4.63394,2.86394 -5.49181,6.31197 -5.49181,22.07327 l 0,13.77987 5.72927,1.1894 c 9.99708,2.07538 21.78572,-0.52069 38.33373,-8.4418 6.51632,-3.11919 20.59833,-14.31811 20.0797,-15.96867 -1.17705,-3.74599 -3.43858,-20.23609 -5.64176,-41.13713 -1.39141,-13.2 -3.71958,-29.99876 -5.17371,-37.33057 -2.62472,-13.23396 -4.53654,-17.73687 -11.55687,-27.21991 l -1.72964,-2.3364 -2.27036,2.08845 c -2.95175,2.71524 -8.92615,6.28992 -10.52036,6.29469 -2.64423,0.008 -1.0354,-2.07208 4.18639,-5.41242 6.44947,-4.12567 7.56361,-5.91474 7.56361,-12.14546 l 0,-4.693097 -4.59559,4.236067 c -9.25813,8.53385 -34.28643,17.76597 -54.2441,20.00888 -16.80083,1.88813 -34.64442,-1.63778 -41.91031,-8.28152 l -2.25,-2.05734 0,4.30624 c 0,3.6482 0.54971,4.82468 3.59735,7.69898 4.83625,4.56117 7.99204,6.06696 16.61377,7.92732 11.59685,2.50231 19.65248,2.14053 33.16929,-1.48964 13.34384,-3.58372 17.0651,-3.69694 11.71783,-0.35653 -6.62717,4.13995 -18.60106,6.75663 -29.96175,6.5476 -16.31705,-0.30021 -26.24421,-3.03454 -34.3633,-9.46497 -3.22839,-2.55694 -4.13414,-2.87621 -4.90313,-1.72834 -2.56631,3.83071 -3.86654,7.08981 -4.40967,11.053 l -0.59683,4.35497 1.9363,-4 c 2.29327,-4.73742 6.69491,-9.1265 7.63201,-7.61023 0.35358,0.57209 -0.54234,2.83114 -1.99092,5.02009 -3.69842,5.5887 -3.54034,11.79792 0.48602,19.09014 3.77973,6.84553 3.80573,8.68846 0.19298,13.67571 -2.50578,3.45914 -2.9692,5.20047 -3.56615,13.40004 -0.83344,11.44781 -2.63011,18.2055 -7.13997,26.85502 -2.45882,4.71581 -3.70131,8.77559 -4.40386,14.3894 -0.53827,4.30109 -1.24181,8.24593 -1.56342,8.76631 -1.19386,1.9317 -2.44655,-0.33532 -2.44655,-4.42757 0,-5.75022 1.98435,-12.39058 7.07002,-23.65891 4.19873,-9.30315 4.29208,-9.74502 4.50485,-21.32492 0.18625,-10.13706 0.49634,-12.13538 2.17243,-14 1.07534,-1.19629 2.28043,-2.74851 2.67797,-3.44937 0.6951,-1.22548 -3.87749,-16.85151 -5.43009,-18.55635 -0.41606,-0.45686 -0.96476,6.51814 -1.21935,15.5 -0.44635,15.74762 -0.59602,16.7055 -4.19229,26.83064 -4.95239,13.94325 -10.37168,31.14642 -12.04669,38.24138 l -1.35545,5.74139 7.6593,6.97867 c 8.46585,7.71355 16.09803,12.25986 24.27163,14.45801 6.43624,1.73092 21.8348,1.98504 32.27708,0.53265 z m -1.9089,-74.80096 c -4.37829,-2.67002 -15.60831,-15.24901 -15.25439,-17.08677 0.50984,-2.64738 2.69238,-1.73906 4.52736,1.88419 0.99588,1.9664 5.0774,5.97755 9.49652,9.33282 4.2625,3.23634 7.75,6.29699 7.75,6.80144 0,1.50641 -3.29325,1.03578 -6.51949,-0.93168 z m -2.48051,-35.71767 c 0,-2.2925 2.18876,-2.82215 12.47292,-3.01828 16.00453,-0.30522 33.68376,-6.36795 48.84029,-16.74877 6.54033,-4.47952 9.68679,-5.69932 9.68679,-3.75531 0,1.60453 -5.84859,5.90172 -14.29113,10.50023 -17.90805,9.75422 -29.1511,13.04828 -47.45887,13.9048 -7.19806,0.33676 -9.25,0.14096 -9.25,-0.88267 z m 21.07612,-25.85481 c 17.73142,-3.16324 34.01893,-9.77386 42.83819,-17.386757 4.33263,-3.73999 4.39188,-3.87414 3.20213,-7.25119 -0.66669,-1.89239 -1.8163,-9.16623 -2.55469,-16.16408 -1.36564,-12.94255 -1.0488,-17.38411 2.25422,-31.60043 0.96135,-4.13767 0.92664,-4.25324 -0.80641,-2.68485 -1.26335,1.14331 -2.0207,1.29965 -2.50443,0.51696 -1.46913,-2.37711 0.71827,-6.00168 6.73073,-11.15297 3.43785,-2.94543 7.02227,-6.25534 7.96537,-7.35534 3.26129,-3.80383 7.59296,-13.0349903 10.25367,-21.85144032 2.13934,-7.08883998 3.43659,-9.60159998 6.51458,-12.61863968 5.23949,-5.13575 6.64696,-8.21946 8.43989,-18.49136 1.68518,-9.65459 2.42374,-11.12463 9.53324,-18.97519 14.74964,-16.28706 11.55363,-35.052676 -8.12001,-47.677216 -4.72489,-3.031947 -4.96361,-3.075377 -11.07578,-2.01487 -7.47178,1.29641 -10.29595,3.93931 -11.28952,10.56488 -0.80169,5.34604 -2.41459,7.86925 -4.27801,6.69245 -1.05693,-0.66747 -1.1029,-2.0352 -0.23019,-6.84792 1.56058,-8.60607 0.9834,-9.52047 -5.75291,-9.11407 -3.62556,0.21873 -5.662,-0.0732 -5.92178,-0.84893 -0.76109,-2.272637 4.19603,-3.594607 16.66239,-4.443547 16.60876,-1.13104 21.21724,-2.20572 27.58578,-6.43292 5.66878,-3.76272 10.03215,-9.70639 12.9922,-17.69764 6.01993,-16.252 -8.95721,-44.65415 -27.36769,-51.89919 -12.00341,-4.72367 -29.51596,-2.19794 -43.9234,6.33481 -10.23737,6.06305 -30.22369,28.36499 -30.22369,33.72542 0,6.2616 12.89646,21.51398 21.21764,25.09365 4.71264,2.02732 5.58839,2.10396 10.97656,0.96051 3.22043,-0.68342 6.11425,-0.98367 6.4307,-0.66722 1.23133,1.23133 -0.95306,2.74796 -6.12218,4.25066 -6.78515,1.9725 -11.18575,1.20878 -17.49342,-3.03597 l -4.81077,-3.23741 -1.17015,2.61558 c -4.47177,9.99551 -13.18631,19.115567 -18.2656,19.115567 -1.25868,0 -10.45712,4.41182 -11.68978,5.60674 -0.23485,0.22766 0.44015,1.05398 1.5,1.83627 1.5276,1.12755 1.67214,1.68079 0.69738,2.66928 -0.98047,0.99429 -3.00666,0.56206 -10,-2.13321 -6.18238,-2.38272 -10.92495,-3.50154 -16.07192,-3.79152 -6.57492,-0.37043 -7.92004,-0.10688 -13.51656,2.64828 -12.22885,6.02024 -23.09225,19.846243 -28.07036,35.725566 -2.793,8.90917 -2.83674,8.9728 -13.283,19.32506 -12.64322,12.52944 -15.19501,16.19042 -15.99535,22.9480897 -0.73291,6.18827 -2.61946,8.36758998 -4.38603,5.06671 -0.91333,-1.70656 -0.92199,-3.41815 -0.037,-7.3145697 1.85961,-8.18783 5.92978,-14.45034 13.34907,-20.53939 8.37519,-6.87357 12.10855,-11.95097 15.76007,-21.43383 l 2.84216,-7.38098 -2.61709,-6.366243 c -2.92183,-7.107533 -3.30157,-12.923763 -1.90101,-29.116253 l 0.84333,-9.749997 -2.59333,0 c -3.96725,0 -3.10892,-1.41046 2.36337,-3.88363 3.03713,-1.37261 5.71461,-3.47479 6.91379,-5.42826 2.04637,-3.33355 5.39661,-14.75435 4.57046,-15.5805 -0.26264,-0.26264 -3.90667,-0.40758 -8.09786,-0.3221 -5.25745,0.10723 -8.1444,0.6297 -9.31045,1.68496 -0.9296,0.84124 -2.20366,1.52953 -2.83127,1.52953 -0.62762,0 -0.0297,1.6378 1.32874,3.63955 2.45835,3.62258 2.98837,6.82374 1.83957,11.11045 -1.08887,4.06311 -2.36971,2.35452 -2.36971,-3.16111 0,-4.85265 -0.32816,-5.68723 -3.17965,-8.0866 -2.73382,-2.30036 -3.77065,-2.58687 -7.39469,-2.04341 -4.9418,0.74107 -9.42566,-0.16257 -9.42566,-1.89956 0,-0.87091 1.57366,-1.09336 5.45668,-0.77135 5.05609,0.41929 5.68554,0.22366 8.57391,-2.66471 3.67457,-3.67457 3.64462,-6.75612 -0.0618,-6.35822 -1.35783,0.14576 -5.16879,0.25442 -8.46879,0.24146 -8.16098,-0.0321 -11.50183,0.78864 -11.4916,2.82296 0.005,0.9188 -0.74936,4.6277 -1.6755,8.24201 -0.92614,3.61431 -1.40106,7.30851 -1.05538,8.20934 0.34568,0.90084 2.89965,2.78876 5.67549,4.19538 6.00218,3.04153 5.77715,1.06543 3.08234,27.067217 -2.14624,20.708766 -4.00891,29.290276 -9.326,42.965866 -1.92258,4.9449 -4.01025,11.50429 -4.63926,14.57642 -2.1192,10.35024 -1.2909,30.14091968 1.60774,38.4143097 1.97182,5.6280403 8.62632,16.5743603 13.49714,22.2021603 2.26633,2.61854 4.71233,6.17719 5.43556,7.90812 1.58245,3.78734 2.94008,4.38972 9.89352,4.38972 4.48901,0 6.01626,-0.51816 9.57913,-3.25 2.42111,-1.85639 5.65592,-5.82281 7.54382,-9.25 2.53255,-4.59743 5.47539,-7.76599 12.58909,-13.55465 5.45337,-4.4376 10.16558,-9.1825003 11.42077,-11.5000003 1.17527,-2.16994 3.10756,-8.85784 4.29397,-14.862 1.18642,-6.0041497 2.42159,-11.3445697 2.74484,-11.8675897 0.54794,-0.88659 -5.03949,-0.65157 -8.67567,0.36492 -0.97311,0.27203 -1.5,-0.2832 -1.5,-1.58068 0,-1.4897 0.98419,-2.24305 3.8573,-2.95258 3.12676,-0.77216 5.02066,-0.53539 10,1.25021 3.37848,1.21153 7.2677,2.19735 8.6427,2.19071 4.43912,-0.0214 13.18674,-2.81514 15.43848,-4.93055 2.70013,-2.53664 3.56152,-2.59278 3.56152,-0.2321 0,2.27864 -3.55229,5.68194 -7.48715,7.17311 -1.64294,0.62262 -6.72616,1.39589 -11.29605,1.7184 -9.69368,0.68409 -9.36728,0.34183 -11.76402,12.3354797 -0.92844,4.64602 -2.28257,9.89883 -3.00919,11.6729 -1.24446,3.03839 -1.16699,3.34683 1.3348,5.3147403 1.90705,1.50009 3.76742,2.00042 6.59781,1.77442 4.71958,-0.37684 6.00393,1.59931 2.17367,3.34449 -2.13787,0.97408 -3.63719,0.84723 -8.32855,-0.70463 -3.14673,-1.0409 -6.01975,-1.90652 -6.38449,-1.92358 -0.36474,-0.0171 -4.08514,2.98922 -8.26754,6.68062 l -7.60437,6.71163 7.26754,5.12481 c 7.17563,5.06 7.34342,5.11836 13.26754,4.61459 3.3,-0.28063 6.85157,-0.65703 7.89237,-0.83645 3.46378,-0.59711 2.88666,2.15925 -0.77218,3.68801 -5.57142,2.32789 -13.3621,1.89506 -18.47226,-1.02628 -2.39364,-1.36837 -4.79831,-2.48795 -5.34371,-2.48795 -0.61122,0 -0.85974,3.74037 -0.64783,9.75 0.38372,10.88179 0.85836,12.10965 9.57124,24.76038 5.34901,7.76652 9.05043,17.46677 11.50173,30.142397 l 1.18986,6.15278 6.54039,3.45885 c 5.73301,3.03186 10.02919,4.52278 17.54039,6.08707 4.50729,0.93869 20.49367,0.49067 27.57612,-0.77282 z m 7.19293,-15.32866 c -1.22579,-4.383227 -0.81467,-32.198417 0.5674,-38.388157 1.13715,-5.09285 4.36513,-9.99359 5.70197,-8.65675 0.28939,0.28939 -0.43006,4.74913 -1.59877,9.91053 -2.16922,9.57998 -2.18022,10.67724 -0.3221,32.13438 0.64481,7.446137 0.5878,7.749997 -1.45416,7.749997 -1.46539,0 -2.36407,-0.85387 -2.89434,-2.75 z m 24.78353,-30.999997 c -0.57278,-2.0625 -1.04394,-4.22267 -1.047,-4.80038 -0.003,-0.57771 -2.26353,-3.58374 -5.02324,-6.68007 -5.01321,-5.6247 -5.28398,-8.50767 -0.50495,-5.37632 4.98151,3.26401 10.52261,12.78194 10.52261,18.07465 0,3.93873 -2.75107,3.08995 -3.94742,-1.21788 z m -65.05258,-1.33655 c 0,-0.59761 2.8125,-4.01931 6.25,-7.60378 9.36661,-9.76709 14.84775,-13.1229 11.67063,-7.14532 -2.12212,3.99267 -14.15136,15.83565 -16.08469,15.83565 -1.00977,0 -1.83594,-0.48895 -1.83594,-1.08655 z m -10,-13.91345 c 0,-0.55 1.48899,-1 3.30887,-1 3.75872,0 5.43901,-1.12291 8.60416,-5.75 2.6789,-3.91625 4.08697,-4.14814 4.08697,-0.67308 0,1.51485 -1.20475,3.78167 -2.92308,5.5 -2.46309,2.4631 -3.72199,2.92308 -8,2.92308 -2.7923,0 -5.07692,-0.45 -5.07692,-1 z m 34.59444,-5.8472 c -0.76502,-1.23783 2.99403,-3.33473 12.16886,-6.78813 6.66299,-2.50794 7.89056,-2.511 6.93362,-0.0172 -1.30701,3.40603 -17.61314,9.21519 -19.10248,6.80538 z m 34.62408,-3.42019 c -1.22018,-1.29883 -2.21852,-3.12001 -2.21852,-4.04706 0,-1.88228 2.50667,-2.29279 3.56306,-0.58352 0.3746,0.60612 2.23231,1.75018 4.12824,2.54235 4.04428,1.68981 3.89695,3.73071 -0.29979,4.15268 -2.07245,0.20838 -3.61676,-0.40793 -5.17299,-2.06445 z m -11.79235,-9.06441 c -1.5699,-4.0911 5.08816,-19.12656 18.45166,-41.6682003 12.3928,-20.9042397 13.21896,-23.7221597 14.07275,-47.9999997 0.63571,-18.076616 1.25818,-23.002196 2.90641,-22.998606 0.35365,7.8e-4 0.77725,9.338283 0.94131,20.750006 0.23833,16.57701 -0.0234,21.95455 -1.30192,26.74673 -2.18397,8.18619 -9.4643,22.3548097 -16.44367,32.0018697 -6.68575,9.2412203 -10.85399,17.2075503 -13.99075,26.7391403 -2.30611,7.0075 -3.68174,8.91527 -4.63579,6.42906 z m -23.30503,-11.44185 c -2.06273,-3.85425 -3.47245,-13.77982 -2.3958,-16.8683203 0.84718,-2.43022 0.75113,-3.19849 -0.49841,-3.98669 -1.30487,-0.82308 -0.92556,-1.59599 2.41639,-4.92384 5.34189,-5.31934 8.53691,-12.2383997 8.74291,-18.9333997 0.19762,-6.4227 0.93108,-7.50462 2.94953,-4.35086 2.2966,3.58834 0.57408,10.80995 -5.27575,22.1184197 -5.48023,10.594 -5.79141,12.40499 -3.56001,20.7183403 0.81194,3.025 1.4816,6.0625 1.48813,6.75 0.0179,1.88082 -2.78315,1.50153 -3.86699,-0.52365 z m 39.87886,-4.07448 c 0,-0.46646 1.91205,-1.70396 4.24899,-2.75 2.33694,-1.04603 7.45172,-4.93937 11.36616,-8.6518703 6.98304,-6.62278 9.38485,-8.02235002 9.38485,-5.4687 0,1.62422 -10.25563,11.7043803 -15.38955,15.1262403 -3.70862,2.47187 -9.61045,3.54308 -9.61045,1.74433 z m -123.27262,-5.75782 c -0.81513,-0.81513 1.44896,-5.2504303 6.45441,-12.6440503 5.07199,-7.49189 6.85262,-7.52156 13.74952,-0.22911 2.87179,3.03649 5.04644,6.04586 4.83256,6.6875 -0.75653,2.2696003 -2.65832,1.88044 -4.38017,-0.8963 -2.45437,-3.95806 -4.35395,-5.31209 -7.45238,-5.31209 -3.02397,0 -4.34211,1.29987 -7.93132,7.82138 -2.47235,4.4922103 -4.01512,5.8301703 -5.27262,4.5726703 z m 56.72304,-2.75298 c -3.3321,-1.5034503 -7.62952,-6.1529403 -10.09662,-10.92378032 -2.98266,-5.76782998 -5.34797,-13.90528968 -4.48834,-15.44135968 0.61222,-1.09397 2.2114,1.18157 5.9627,8.4845997 3.14893,6.13030998 6.19564,10.68649 7.89898,11.81248 3.87778,2.56338 11.63738,2.38605 16.98302,-0.38811 4.99076,-2.59 6.28984,-2.7206 6.28984,-0.63236 0,1.80941 -11.08857,7.3046203 -16.14732,8.0022003 -1.84398,0.25427 -4.72499,-0.15688 -6.40226,-0.91367 z m 96.27417,-20.3929003 c -3.66008,-4.0443397 -4.80842,-12.8055397 -2.68199,-20.4620397 1.84846,-6.65559 3.0223,-5.41995 2.81601,2.96426 -0.18183,7.38991 0.0106,8.19914 2.97349,12.50557 1.74234,2.53242 3.1679,5.0858097 3.1679,5.6742197 0,1.72275 -4.54627,1.22867 -6.27541,-0.68201 z m -67.72459,-26.4481597 c -15.8705,-5.00387 -14.93721,-4.38245 -18.64979,-12.41783 -5.7765,-12.50249 -3.77857,-16.15432 2.26852,-4.14641 2.00413,3.97967 4.37229,7.7765 5.26257,8.4374 0.89029,0.66091 5.57396,2.18456 10.40816,3.3859 9.05628,2.25056 13.57239,4.7374 12.31063,6.77898 -0.88723,1.43557 -0.20021,1.55628 -11.60009,-2.03804 z m 77.39053,-6.22468 c -0.95403,-2.48618 1.84396,-5.76477 8.1717,-9.57533 9.14771,-5.50873 11.08579,-7.7912 11.93184,-14.05201 0.79449,-5.879356 2.00889,-8.947996 3.54111,-8.947996 1.57483,0 1.11368,5.019143 -1.16865,12.719566 -2.09872,7.08095 -2.27638,7.31579 -9.25317,12.2319 -3.91235,2.75679 -8.35064,5.95786 -9.86287,7.1135 -2.41182,1.84308 -2.82449,1.90577 -3.35996,0.51037 z m -44.83867,-8.49141 c -0.31139,-0.50385 -0.14715,-2.01818 0.36498,-3.36519 1.13934,-2.99668 -0.0799,-8.94254 -3.11454,-15.188753 -1.61454,-3.323223 -1.90509,-4.827193 -1.08999,-5.642293 1.72362,-1.72362 6.09202,5.686533 7.34362,12.457056 1.39951,7.57062 -1.03653,15.73173 -3.50407,11.73918 z m 34.08762,-9.77777 c -2.48461,-2.48462 1.75449,-17.306156 4.94973,-17.306156 1.91023,0 1.77637,1.36308 -0.58921,6 -1.1,2.156183 -2,5.486696 -2,7.401146 0,3.39961 -1.07973,5.1858 -2.36052,3.90501 z m -123.63948,-9.306153 c 0,-6.483373 14.03484,-15.545503 22.92152,-14.800143 2.73969,0.22979 3.57848,0.74418 3.57848,2.19452 0,1.67083 -0.83539,1.90685 -7.07889,2 -6.02456,0.0899 -7.59638,0.50046 -10.55348,2.75662 -1.91103,1.45805 -4.30637,4.49555 -5.32299,6.75 -2.18439,4.844116 -3.54464,5.265856 -3.54464,1.099003 z m 48.20601,-14.250003 c 0.20498,-0.6875 3.05498,-2.6 6.33334,-4.25 5.81233,-2.92535 6.28667,-2.99442 19.0628,-2.77574 14.10021,0.24133 13.69566,0.36636 18.25294,-5.64102 1.21844,-1.60613 2.4005,-2.19914 3.52412,-1.76796 1.54147,0.59151 1.55698,0.90743 0.17574,3.57846 -3.63623,7.0317 -10.73301,9.86518 -20.22341,8.07447 -7.98837,-1.50729 -16.99072,-0.69289 -22.30401,2.01774 -4.60232,2.34793 -5.32803,2.46293 -4.82152,0.76405 z m -56.16446,1.55188 c 3.52154,-3.60245 8.46044,-7.38323 11.76413,-9.00557 5.59946,-2.74972 5.96087,-2.79213 21.69432,-2.54512 15.32832,0.24065 16.30616,0.13581 23.29308,-2.49754 8.74181,-3.29476 8.55911,-2.85612 8.64473,-20.753647 0.0589,-12.30577 -0.0966,-13.36046 -2.91033,-19.75 -1.8037,-4.09583 -3.57315,-6.74875 -4.5,-6.74682 -0.84012,0.002 -14.50459,2.25175 -30.3655,5 -15.86091,2.74825 -29.18476,4.99682 -29.60854,4.99682 -0.42379,0 -1.35071,3.39181 -2.05983,7.53735 -1.20774,7.06055 -2.70109,10.24273 -8.44971,18.00556 -1.02157,1.37951 -1.89784,6.73765 -2.69842,16.499997 -1.15324,14.06271 -1.12538,14.5924 1.02123,19.41732 l 2.20682,4.960246 2.94911,-4.454666 c 1.62201,-2.45007 5.68052,-7.24883 9.01891,-10.66393 z m 73.5296,-26.833077 c 3.3842,-5.7747 4.90871,-12.18567 3.34559,-14.06912 -0.62884,-0.75771 -1.53307,-1.1368 -2.00938,-0.84242 -0.47631,0.29437 -1.66804,0.10601 -2.64827,-0.4186 -1.6569,-0.88675 -1.78143,-0.22192 -1.77067,9.45342 0.006,5.72399 0.10511,10.4074 0.21943,10.40759 0.11431,1.8e-4 1.4028,-2.03871 2.8633,-4.53087 z m -3.22131,-23.7188 c -0.93583,-1.7875 -1.70892,-5.3875 -1.71798,-8 -0.0137,-3.93882 -0.33054,-4.75 -1.85555,-4.75 -1.01149,0 -2.08552,0.64221 -2.38672,1.42713 -0.89631,2.33574 5.22616,14.57287 7.29108,14.57287 0.20388,0 -0.39499,-1.4625 -1.33083,-3.25 z m -95.21228,-2.00704 c 2.27201,-4.24529 2.80692,-8.0778 1.72637,-12.36906 -1.34234,-5.33093 -2.46316,-6.27718 -6.67398,-5.63448 -2.58426,0.39443 -3.15906,0.86211 -2.62141,2.13289 0.37876,0.89523 0.92804,2.75269 1.22062,4.12769 0.29259,1.375 1.4379,3.72878 2.54514,5.23062 1.70943,2.31864 1.85373,3.25008 0.95644,6.17371 -0.87372,2.84687 -0.81241,3.34935 0.35405,2.90173 0.77593,-0.29774 1.89767,-1.45114 2.49277,-2.5631 z m 9.67274,-2.04103 c 1.18741,-1.26395 2.45082,-3.75752 2.80757,-5.54129 0.86055,-4.30273 -2.10708,-10.99434 -5.2226,-11.77628 -3.68616,-0.92517 -4.43655,0.27259 -2.72984,4.35732 1.50119,3.59286 1.42884,9.62818 -0.16194,13.50832 -1.08436,2.6449 2.67159,2.257 5.30681,-0.54807 z m 9.17536,0.30575 c 2.49951,-1.3377 4.3588,-7.35799 3.57037,-11.56071 -0.67199,-3.58202 -2.93079,-5.44697 -6.59728,-5.44697 -1.71991,0 -1.99913,0.36471 -1.33977,1.75 0.45812,0.9625 0.83295,4.225 0.83295,7.25 0,3.025 -0.37483,6.2875 -0.83295,7.25 -0.96272,2.02262 1.27698,2.41123 4.36668,0.75768 z m 41.01434,-7.84589 32.5,-5.71096 -0.21246,-2.90216 c -0.42473,-5.80161 -0.29445,-5.80276 -33.96582,0.30022 -17.14805,3.10811 -31.37586,5.87611 -31.61734,6.15111 -0.24148,0.275 -0.74415,2.1875 -1.11703,4.25 -0.49992,2.76513 -0.33779,3.73329 0.61734,3.68638 0.71242,-0.035 15.92031,-2.63356 33.79531,-5.77459 z m -69.71267,-0.66179 c -0.28631,-4.03886 -4.38825,-7.5 -8.88855,-7.5 -4.25807,0 -8.39878,3.70948 -8.39878,7.5241 0,2.13792 0.40932,2.5567 2.24357,2.29545 1.58577,-0.22586 2.39205,-1.17167 2.75,-3.22588 0.41001,-2.353 0.72112,-2.63859 1.63404,-1.5 0.62019,0.77348 1.44564,2.44285 1.83433,3.70971 0.61221,1.99536 1.26376,2.26281 4.87239,2 3.94998,-0.28767 4.15466,-0.45871 3.953,-3.30338 z m 110.75953,-13.38875 c -1.01872,-1.98619 -2.96767,-4.65208 -4.331,-5.9242 -2.43573,-2.27278 -2.54596,-2.28315 -6.34732,-0.59707 l -3.86854,1.71588 2.97086,0.60184 c 3.31904,0.67238 7.48405,6.78705 7.51269,11.02939 l 0.0165,2.43709 2.94954,-2.82584 2.94954,-2.82583 -1.85222,-3.61126 z m 6.34502,-1.26034 c 1.30842,-1.86804 1.32067,-2.50609 0.0937,-4.87882 -1.53435,-2.96709 -3.32251,-3.97209 -7.06737,-3.97209 -3.01665,0 -3.00906,0.25941 0.10592,3.62054 1.38828,1.49797 2.78706,3.77116 3.10841,5.05152 0.72737,2.89807 1.81837,2.94997 3.75934,0.17885 z m 5.61112,-7.10091 c 2.1689,-2.67608 1.0226,-4.75 -2.62544,-4.75 -2.67424,0 -2.8886,0.78429 -1.21704,4.45295 1.41447,3.10442 1.55815,3.11553 3.84248,0.29705 z m 7.497,-6.75 c 1.77711,-1.96368 1.74663,-2 -1.67835,-2 -4.10716,0 -5.22707,0.80658 -3.69053,2.65799 1.5609,1.88077 3.25976,1.67256 5.36888,-0.65799 z"
       id="path3141"
       inkscape:connector-curvature="0" />
  </g>
</svg>
