<?xml version="1.0" encoding="UTF-8" standalone="no"?>
<!-- Created with Inkscape (http://www.inkscape.org/) -->

<svg
   xmlns:dc="http://purl.org/dc/elements/1.1/"
   xmlns:cc="http://creativecommons.org/ns#"
   xmlns:rdf="http://www.w3.org/1999/02/22-rdf-syntax-ns#"
   xmlns:svg="http://www.w3.org/2000/svg"
   xmlns="http://www.w3.org/2000/svg"
   xmlns:sodipodi="http://sodipodi.sourceforge.net/DTD/sodipodi-0.dtd"
   xmlns:inkscape="http://www.inkscape.org/namespaces/inkscape"
   width="568.89575"
   height="899.41608"
   id="svg2"
   version="1.1"
   inkscape:version="0.48.3.1 r9886"
   sodipodi:docname="Chin-ups-1.svg">
  <defs
     id="defs4" />
  <sodipodi:namedview
     id="base"
     pagecolor="#ffffff"
     bordercolor="#666666"
     borderopacity="1.0"
     inkscape:pageopacity="0.0"
     inkscape:pageshadow="2"
     inkscape:zoom="0.49497475"
     inkscape:cx="942.79642"
     inkscape:cy="139.0898"
     inkscape:document-units="px"
     inkscape:current-layer="layer1"
     showgrid="false"
     inkscape:window-width="1855"
     inkscape:window-height="1056"
     inkscape:window-x="65"
     inkscape:window-y="24"
     inkscape:window-maximized="1"
     fit-margin-top="0"
     fit-margin-left="0"
     fit-margin-right="0"
     fit-margin-bottom="0" />
  <metadata
     id="metadata7">
    <rdf:RDF>
      <cc:Work
         rdf:about="">
        <dc:format>image/svg+xml</dc:format>
        <dc:type
           rdf:resource="http://purl.org/dc/dcmitype/StillImage" />
        <dc:title></dc:title>
      </cc:Work>
    </rdf:RDF>
  </metadata>
  <g
     inkscape:label="Ebene 1"
     inkscape:groupmode="layer"
     id="layer1"
     transform="translate(697.89628,203.70157)">
    <path
       style="fill:#000000"
       d="m -347.0055,694.63711 c -1.375,-0.60623 -4.57588,-0.99089 -7.11307,-0.8548 -7.3919,0.39647 -9.55746,-3.44167 -12.0835,-21.4162 -0.69565,-4.95 -1.19252,-13.37355 -1.10417,-18.719 0.14667,-8.87369 0.48027,-10.4269 3.8356,-17.85821 3.43822,-7.61489 3.63213,-8.56707 3.01013,-14.781 -1.24461,-12.43395 -3.65447,-24.43606 -5.71896,-28.48279 -1.54835,-3.03503 -1.92524,-5.17353 -1.51791,-8.61279 l 0.54188,-4.57528 -8.60246,0.94527 c -10.45374,1.14869 -25.1071,-0.28817 -40.15422,-3.9374 -11.47915,-2.78392 -17.60588,-5.19976 -23.48733,-9.26131 -3.37586,-2.33127 -4.71054,-2.6471 -10.0304,-2.37352 -8.46606,0.43537 -13.32094,-1.72148 -19.92082,-8.85015 -6.59895,-7.12765 -7.87114,-11.292 -8.24646,-26.99382 -0.15119,-6.325 -0.75687,-15.55 -1.34596,-20.5 -0.58909,-4.95 -1.35942,-16.425 -1.71185,-25.5 -0.54895,-14.13531 -0.3164,-18.76892 1.6226,-32.33176 1.66848,-11.67053 1.96947,-16.12567 1.14514,-16.95 -0.61503,-0.61503 -1.10801,-2.26574 -1.09551,-3.66824 0.0452,-5.07337 5.91525,-25.91266 11.98553,-42.55 l 6.20261,-17 0.87079,-17.66284 c 1.02379,-20.766 1.99082,-25.92069 5.89246,-31.40933 3.39916,-4.78177 5.14135,-13.80128 4.98413,-25.80344 -0.11663,-8.90363 -3.29438,-19.29193 -10.13265,-33.12439 -5.06359,-10.24262 -10.28686,-24.07652 -12.45982,-33 -1.89643,-7.78789 -2.15092,-26.02589 -0.46822,-33.55505 0.68608,-3.06983 0.59666,-10.01355 -0.28905,-22.44495 -0.70535,-9.9 -1.08508,-21.6703 -0.84386,-26.15622 0.36583,-6.80292 -0.0146,-9.69642 -2.29264,-17.4389 -2.0697,-7.03433 -2.71615,-11.32547 -2.66897,-17.71668 0.0562,-7.61163 -0.46955,-10.04958 -5.39186,-25.002898 -6.72032,-20.41539 -7.12311,-26.19587 -2.93427,-42.10962 1.86056,-7.06842 2.56493,-11.73639 2.18797,-14.5 -0.30575,-2.24162 -1.20142,-9.25417 -1.99037,-15.58343 -0.78894,-6.3292692 -2.59312,-15.17561914 -4.00928,-19.6585492 -1.41616,-4.48294 -3.10969,-11.2221508 -3.7634,-14.9760308 -1.4448,-8.29667 -0.65286,-31.74573 1.41365,-41.85767 0.94948,-4.64605 1.43921,-13.64877 1.45632,-26.7716 l 0.0258,-19.771592 -4.38379,-3.01613 c -5.17595,-3.56115 -6.81455,-6.20774 -5.95754,-9.62234 0.5778,-2.30216 0.41017,-2.44889 -2.16497,-1.89495 -5.72474,1.23143 -187.40713,32.576612 -188.82005,32.576612 -0.80919,0 -1.47125,-0.8681 -1.47125,-1.9291 0,-2.40714 -9.03586,-0.64745 100.5,-19.571832 49.5,-8.55205 91.0125,-15.97826 92.25,-16.50269 1.72686,-0.73181 2.25,-1.77226 2.25,-4.47494 0,-1.93679 -0.42061,-3.52144 -0.93469,-3.52144 -0.51409,0 -44.94164,7.63744 -98.72791,16.97209 -58.34186,10.12528 -98.15825,16.60705 -98.69809,16.06722 -0.49768,-0.49768 -0.67727,-1.49801 -0.39908,-2.22294 0.34784,-0.90646 30.91519,-6.57861 97.88278,-18.16336 53.55734,-9.26491 98.38949,-17.07581 99.62699,-17.35756 1.579,-0.3595 2.25,-1.2403 2.25,-2.95352 0,-7.10088 5.82851,-11.54887 14.81391,-11.30515 3.12735,0.0848 8.38609,-0.2032 11.68609,-0.64006 13.62528,-1.80374 27.46285,-0.008 28.70725,3.72503 0.27685,0.83056 8.39216,-0.20778 28.34035,-3.62611 l 27.9524,-4.78993 3.31737,-3.83412 c 3.44714,-3.9841 10.31579,-6.83811 16.61413,-6.90339 1.68768,-0.0175 3.94201,-0.69249 5.00963,-1.5 1.06762,-0.80751 2.53012,-1.4682 3.25,-1.4682 0.71988,0 2.20887,-0.9 3.30887,-2 1.41737,-1.41737 3.33333,-2 6.57692,-2 3.72537,0 5.12077,0.54385 7.5,2.92308 1.6077,1.60769 2.92308,3.63269 2.92308,4.5 0,0.86731 0.22978,1.57692 0.51062,1.57692 0.28083,0 45.96871,-7.8936 101.52861,-17.54133 55.5599,-9.64773 101.45512,-17.27118 101.98939,-16.94098 1.57963,0.97626 1.10962,3.30697 -0.77862,3.86103 -0.9625,0.28242 -46.525,8.24311 -101.25,17.69043 -54.725,9.44731 -99.59465,17.25372 -99.71034,17.34756 -0.79381,0.64396 1.21788,4.58329 2.34054,4.58329 0.76832,0 2.26517,0.54222 3.32634,1.20493 1.58604,0.9905 19.42465,-1.83095 100.23643,-15.85393 54.06887,-9.38238 98.86953,-16.85146 99.55703,-16.59795 0.6875,0.25351 1.25,1.10191 1.25,1.88532 0,0.78342 -0.5625,1.62723 -1.25,1.87513 -0.6875,0.2479 -44.225,7.88369 -96.75,16.96842 -52.525,9.08474 -96.5125,16.75136 -97.75,17.03694 -2.05402,0.47402 -2.25,1.09496 -2.25,7.12896 l 0,6.60972 -8.65405,8.84372 -8.65405,8.84372 0.63648,11.77751 c 0.71904,13.305162 2.25163,19.951002 7.19221,31.187902 5.40735,12.29855 6.58301,18.068 6.57783,32.28037 -0.006,15.53761 1.81754,22.9711 7.9383,32.36561 5.33382,8.1866608 8.76849,20.1689408 9.58648,33.44363 0.81255,13.1865 2.72527,19.95738 8.7537,30.98735 2.85952,5.23196 5.74452,10.77132 6.41111,12.3097 1.64297,3.79167 1.52351,13.04252 -0.34166,26.45861 -1.05458,7.58557 -1.23801,11.765118 -0.57102,13.011388 1.86731,3.4891 6.12465,20.13748 6.11909,23.92879 -0.008,5.63684 -1.76589,11.0283 -5.9672,18.30416 -3.14199,5.44131 -3.84256,7.72156 -4.30125,14 -0.72459,9.91779 -2.44267,14.51797 -8.47567,22.69378 -4.93071,6.682 -5.07937,7.09581 -8.14512,22.67361 -1.71752,8.72706 -3.7932,17.27706 -4.61264,19 -0.81944,1.72293 -4.20691,6.45537 -7.5277,10.51652 -3.32079,4.06115 -6.53937,8.32109 -7.1524,9.46654 -1.50924,2.82005 -4.74507,29.25606 -4.78235,39.07081 -0.0227,5.98185 0.37296,8.36662 1.6161,9.74028 0.99546,1.09997 1.90244,4.49109 2.29445,8.57874 0.68988,7.19363 1.47631,9.15035 6.53496,16.25972 4.06912,5.71868 5.66035,9.86992 9.00788,23.5 2.24186,9.12808 2.75544,13.72279 3.01799,27 0.33498,16.93996 2.87301,35.28906 6.62888,47.92455 2.04729,6.88748 2.04775,6.93298 0.0859,8.5 -1.89811,1.51614 -1.99219,3.326 -2.49917,48.07545 -0.52467,46.31048 -0.51751,46.53057 1.75741,54 1.87428,6.15398 2.61995,7.44381 4.15485,7.18692 1.02884,-0.1722 5.47062,-0.55203 9.87062,-0.84407 7.41413,-0.4921 8.40027,-0.32019 13.46565,2.34743 4.4476,2.34226 5.98429,3.87118 8.25,8.20826 3.77847,7.23281 3.74194,14.67013 -0.13996,28.49482 -4.63471,16.50566 -4.6788,17.73058 -1.02954,28.60266 3.86984,11.52925 3.78908,19.40007 -0.28836,28.10231 -1.39202,2.97092 -2.83493,6.82861 -3.20647,8.57265 -0.82043,3.85119 -4.76451,8.32902 -7.33621,8.32902 -1.03421,0 -3.37474,1.85953 -5.20117,4.13228 -2.17756,2.70968 -5.43049,5.08887 -9.44889,6.91089 l -6.12809,2.77861 -1.18116,5.83911 c -0.64963,3.21151 -0.91734,7.72443 -0.59491,10.02871 0.86053,6.14981 -0.18681,8.86072 -4.40921,11.41262 -2.06342,1.24707 -5.03666,3.32014 -6.60719,4.60681 -1.89116,1.54936 -3.94135,2.26628 -6.07079,2.12287 -1.89089,-0.12734 -4.6764,0.68649 -6.76252,1.97578 -3.9039,2.41275 -6.04653,2.62312 -9.81118,0.96332 z m 9.27287,-5.771 c 1.39842,-1.1 3.82161,-2.00614 5.38486,-2.01365 4.46336,-0.0215 7.22883,-1.05357 7.82086,-2.91888 0.29965,-0.94413 2.00205,-2.35804 3.78312,-3.14203 3.80007,-1.67273 4.7515,-5.14837 2.18549,-7.98378 -1.62201,-1.7923 -1.59305,-2.26806 0.54236,-8.9092 3.17949,-9.88823 2.5259,-21.03404 -1.98848,-33.90977 l -3.28779,-9.37731 0.77709,-14.12269 c 1.10115,-20.01211 1.02313,-21.67338 -1.26024,-26.83532 -2.35995,-5.33507 -5.51913,-7.74819 -11.1287,-8.50059 -7.05991,-0.94693 -10.80831,0.42776 -17.20747,6.3107 -5.83499,5.36427 -9.04741,6.42626 -6.8137,2.25253 0.91729,-1.71397 0.80747,-1.97504 -0.70807,-1.68317 -0.98656,0.18999 -2.41886,1.98788 -3.18289,3.99531 -1.3088,3.43873 -1.23876,3.87119 1.21077,7.47599 1.42996,2.10437 2.59992,4.78772 2.59992,5.963 0,1.17529 0.69932,6.13333 1.55403,11.01787 0.85472,4.88454 1.58421,11.13099 1.62108,13.88099 0.065,4.85156 0.4879,4.70806 2.20998,-0.75 0.30368,-0.9625 1.07479,-1.75 1.71358,-1.75 2.06333,0 0.33359,8.60305 -2.71921,13.52425 -7.22016,11.63914 -7.66931,12.72296 -8.4347,20.35338 -0.42052,4.1923 -0.3699,9.42237 0.1125,11.62237 0.48239,2.2 1.3882,7.93573 2.0129,12.74607 1.25322,9.65008 3.47011,13.75393 7.42984,13.75393 3.43511,0 6.80827,-4.68571 6.11074,-8.48854 -1.86531,-10.16943 -1.87247,-10.51146 -0.22015,-10.51146 1.03741,0 1.60941,0.86313 1.60941,2.42857 0,1.33572 0.675,3.10357 1.5,3.92857 1.73693,1.73693 1.93262,5.37478 0.49285,9.16168 -1.80784,4.75497 1.65171,6.12181 6.28002,2.48118 z m -5.27147,-16.71482 c -0.003,-2.69022 9.03273,-4.65701 10.4986,-2.28518 0.33992,0.55 1.68992,1 3,1 1.31008,0 2.66008,-0.45 3,-1 0.94483,-1.52876 3.5,-1.18942 3.5,0.46482 0,2.51056 -3.34658,3.42375 -11.82221,3.22596 -5.64145,-0.13165 -8.17543,-0.56727 -8.17639,-1.4056 z m 39.9986,-23.19445 c 3.07007,-1.82099 6.91541,-6.15041 6.96404,-7.84073 0.0205,-0.71202 1.3172,-1.25 3.01291,-1.25 3.27115,0 5.39404,-2.41339 6.59723,-7.5 0.39029,-1.65 1.54576,-4.66957 2.56772,-6.71016 2.60202,-5.19558 2.35067,-12.90149 -0.76417,-23.42797 -4.9557,-16.74759 -4.9297,-15.93613 -0.95469,-29.79745 4.19694,-14.63524 4.48344,-20.36639 1.32696,-26.54459 -2.61582,-5.11997 -7.07776,-7.80453 -14.37286,-8.64754 -3.84971,-0.44486 -6.87844,0.10414 -14.37714,2.60604 -11.20601,3.73883 -25.35697,4.9986 -34.94964,3.11136 -12.60011,-2.47892 -15.85397,-3.94677 -22.8343,-10.3008 -8.56965,-7.80075 -17.19534,-13.40101 -23.64199,-15.34965 -10.85619,-3.28152 -24.99242,-3.66295 -33.67083,-0.90853 -3.14712,0.99886 -2.27367,-2.28779 1.06712,-4.01538 4.10322,-2.12186 5.06449,-4.38137 6.11007,-14.36206 0.49858,-4.7593 1.20782,-10.00014 1.57608,-11.64631 l 0.66957,-2.99305 -3.91304,2.89683 c -2.15217,1.59326 -5.32481,4.21673 -7.05031,5.82995 -2.02824,1.89625 -3.37921,2.54166 -3.82167,1.82575 -0.90032,-1.45675 2.79504,-5.75141 10.77138,-12.51822 3.56386,-3.02344 8.04784,-7.64615 9.9644,-10.27269 3.70803,-5.08164 8.35558,-14.97645 7.45661,-15.87541 -0.29646,-0.29646 -3.21259,-0.013 -6.48029,0.62986 -3.45772,0.68026 -11.76463,1.0228 -19.8722,0.81944 -13.37364,-0.33544 -14.18996,-0.47895 -20.40595,-3.58734 -3.56125,-1.78085 -9.51251,-5.71794 -13.22501,-8.74908 -3.7125,-3.03114 -6.75933,-5.17408 -6.77073,-4.76208 -0.0114,0.41199 -0.9113,6.14908 -1.99977,12.74908 -2.4684,14.96737 -2.47038,21.74329 -0.0124,42.5 1.30318,11.00494 1.8838,21.66202 1.7434,32 -0.19992,14.72136 -0.0866,15.74262 2.2566,20.32977 2.79916,5.47983 8.75384,11.3111 12.51427,12.25491 1.39248,0.34949 4.05859,0.34901 5.92468,-10e-4 2.75706,-0.51723 3.29617,-1.00636 2.87679,-2.61006 -0.74035,-2.8311 0.78546,-2.46008 6.74675,1.64057 17.51807,12.05031 46.78549,19.74765 65.97042,17.35024 4.125,-0.51547 10.425,-1.23541 14,-1.59986 5.05692,-0.51552 7.1982,-1.2683 9.64487,-3.39071 4.70886,-4.08479 11.42673,-6.34133 16.56318,-5.56359 14.66015,2.21979 21.26604,15.95399 17.8522,37.11624 -2.20625,13.67648 -1.75597,18.95305 2.42982,28.47356 2.62797,5.97728 3.88997,10.47958 4.25216,15.16995 l 0.51505,6.66995 2.62136,-1.13316 c 1.44175,-0.62323 3.74636,-1.80044 5.12136,-2.61601 z m 2.6875,-11.73656 c -1.38542,-1.38542 -0.63452,-7.19796 1.22642,-9.49339 2.62091,-3.23284 3.25067,-2.11878 2.34799,4.15362 -0.71987,5.00205 -1.9999,6.91428 -3.57441,5.33977 z m -3.28266,-77.74155 c -0.34035,-0.88694 -0.34729,-2.32022 -0.0154,-3.18506 0.85553,-2.22952 -1.11347,-5.42756 -3.34172,-5.42756 -1.03505,0 -4.02291,0.91774 -6.63968,2.03942 -4.1463,1.77731 -4.94329,1.8539 -6.20123,0.59596 -1.6103,-1.6103 -0.69718,-4.03753 1.23935,-3.29442 0.68412,0.26253 3.16274,-0.3818 5.50805,-1.43182 2.34531,-1.05003 5.30739,-1.90914 6.58241,-1.90914 4.91796,0 8.70699,9.89308 4.97521,12.99018 -1.20519,1.00022 -1.60583,0.92843 -2.10699,-0.37756 z m -97.40484,-9.69346 c -8.72019,-1.51269 -21,-8.198 -21,-11.43272 0,-2.85551 1.93028,-2.26261 9.10225,2.79586 l 7.39775,5.2177 9.5,-0.12678 c 5.225,-0.0697 10.57946,-0.29473 11.89879,-0.5 3.00706,-0.46786 3.88497,1.63695 1.26713,3.03798 -2.95117,1.57942 -11.98276,2.08055 -18.16592,1.00796 z m -44.59501,-30.02328 c -1.57185,-1.73615 -1.90499,-3.65453 -1.90499,-10.96975 0,-7.82709 0.26032,-9.12625 2.22222,-11.09033 2.70273,-2.70573 4.0283,-1.77843 2.44022,1.70703 -1.5631,3.43062 -1.39623,12.05452 0.32683,16.89105 2.02497,5.68397 0.48866,7.40843 -3.08428,3.462 z m 123.01322,18.49713 c 4.07855,-1.56509 -0.86165,-10.48482 -7.81665,-14.11327 -4.80145,-2.50493 -14.27307,-2.26937 -18.90872,0.47026 -4.49213,2.65481 -5.69284,2.80114 -5.69284,0.69377 0,-2.81344 8.69892,-5.82636 17,-5.88804 6.24756,-0.0464 8.25147,0.3684 12,2.48411 l 4.5,2.53984 0,-46.20648 c 0,-25.41357 -0.26869,-46.47518 -0.59708,-46.80359 -0.3284,-0.32841 -3.53638,1.37391 -7.12885,3.78292 -12.94375,8.67973 -28.23738,13.024 -43.95589,12.48599 -5.95,-0.20366 -10.81818,-0.22433 -10.81818,-0.046 0,6.49679 9.54912,44.5109 12.92607,51.45743 1.46685,3.01738 1.54903,3.75 0.42062,3.75 -1.1262,0 -1.27971,1.32934 -0.77944,6.75 1.66312,18.02084 6.74112,24.48114 21.8215,27.76161 6.30358,1.37123 24.22968,1.95578 27.02946,0.8814 z m -26.61903,-26.97858 c -2.58545,-0.79545 -4.9553,-1.85801 -5.26631,-2.36125 -0.90952,-1.47163 1.10392,-2.13965 3.63321,-1.20544 6.24108,2.30518 10.48276,2.20116 14.24097,-0.34922 3.23806,-2.19741 3.73429,-2.29377 4.29448,-0.83393 0.41489,1.08119 -0.30603,2.45863 -2.08983,3.99299 -3.16907,2.72592 -7.66567,2.95567 -14.81252,0.75685 z m -26.48696,0.83557 c -0.47007,-8.77818 -1.56064,-14.30772 -5.94562,-30.14603 -2.95348,-10.66781 -5.8038,-22.08991 -6.33404,-25.38243 -0.53025,-3.29252 -1.13152,-6.15383 -1.33616,-6.35848 -0.20465,-0.20464 -1.77716,0.11773 -3.49447,0.71639 -2.53271,0.88291 -3.74177,2.43224 -6.40206,8.20381 -1.80382,3.91343 -5.43278,10.06315 -8.06436,13.66604 -7.41147,10.14703 -8.44134,13.05173 -9.1477,25.8007 l -0.62331,11.25 3.76775,0.003 c 11.86661,0.0101 25.66895,4.19078 34.26775,10.37965 1.925,1.3855 3.58727,2.54115 3.69394,2.56812 0.10666,0.027 -0.0651,-4.78846 -0.38172,-10.70096 z m -35.31222,-60.71184 c 9.54758,-1.45732 18.56168,-4.01993 19.50411,-5.5448 0.27854,-0.45069 0.97602,-9.07107 1.54997,-19.1564 1.1884,-20.88253 1.26832,-21.09721 10.03385,-26.95164 2.97664,-1.98807 7.44898,-6.22954 9.93855,-9.42549 5.37934,-6.90567 6.97352,-7.75485 6.97352,-3.71461 0,3.70976 -5.08645,11.42218 -10.25926,15.55581 -8.36252,6.68253 -8.49673,6.93389 -9.27986,17.37941 -0.67557,9.01082 -0.0975,21.01628 1.06808,22.18186 0.28837,0.28836 4.53042,0.71583 9.42679,0.94993 10.05714,0.48084 17.31812,-1.25324 30.60898,-7.31008 10.16293,-4.6314 23.71102,-15.26209 22.94252,-18.00215 -1.47813,-5.2702 -2.70085,-14.15713 -5.43469,-39.5 -4.57673,-42.42671 -7.31288,-53.51738 -15.84431,-64.22311 l -2.96695,-3.7231 -1.87943,2.07675 c -3.11637,3.44354 -10.37079,7.28054 -11.54498,6.10635 -0.70764,-0.70764 0.85818,-2.31347 4.99536,-5.12297 3.31435,-2.25074 6.25733,-4.88462 6.53996,-5.85308 0.48501,-1.66199 0.9497,-7.77781 0.72911,-9.59583 -0.0557,-0.45924 -2.22364,1.03316 -4.81759,3.31645 -8.28969,7.29687 -24.99868,14.0885 -44.37616,18.03738 -20.07482,4.09098 -42.81726,1.06847 -51.15757,-6.79895 l -2.75,-2.59407 0,3.12199 c 0,5.11037 1.65072,7.97875 6.71072,11.66088 6.32741,4.60443 16.04607,7.02638 28.28928,7.04986 7.85189,0.0151 11.46642,-0.5578 20.83475,-3.30207 6.23412,-1.82617 11.63412,-3.01971 12,-2.65231 1.43389,1.4398 -4.10749,4.30033 -13.49579,6.96672 -9.02455,2.56308 -10.83362,2.75159 -21.85558,2.27747 -13.82017,-0.59448 -23.76034,-3.42361 -30.34087,-8.63549 -2.16167,-1.71208 -4.38792,-3.11287 -4.94721,-3.11287 -1.38855,0 -5.1953,8.07167 -5.1953,11.01589 0,2.07208 0.35437,1.83793 2.7051,-1.78744 4.8342,-7.45544 8.26691,-6.83658 4.0168,0.72417 -3.4901,6.20873 -3.42817,10.1162 0.2781,17.54738 3.68852,7.39558 3.74197,9.94383 0.31437,14.988 -2.30121,3.38652 -2.79054,5.42204 -3.41851,14.22019 -0.82432,11.54909 -1.63584,14.52907 -6.9513,25.52569 -2.64773,5.47763 -3.93883,9.73031 -4.42558,14.57711 -0.78351,7.80191 -1.82239,10.2856 -3.57088,8.53711 -2.02533,-2.02533 0.64045,-14.01384 5.63422,-25.33805 4.01105,-9.09572 4.75313,-11.86337 5.5833,-20.82341 0.72629,-7.83896 0.66339,-10.68774 -0.26056,-11.80103 -0.9948,-1.19866 -0.63961,-2.06427 1.93849,-4.72419 3.71981,-3.83788 3.84561,-5.3993 1.06793,-13.25487 -1.14869,-3.2486 -2.44255,-8.15655 -2.87525,-10.90655 -0.63172,-4.01489 -0.81738,-2.53721 -0.94235,7.5 -0.23077,18.53483 -1.48951,25.63942 -7.96807,44.97341 -3.23011,9.63963 -6.91871,21.54252 -8.19688,26.45089 l -2.32394,8.92429 6.4475,5.94096 c 3.54613,3.26753 8.43018,7.309 10.85344,8.98103 11.43464,7.88983 26.47807,10.26171 46.09407,7.26758 z m 0.5,-73.96291 c -3.95738,-1.68905 -16.5,-15.06328 -16.5,-17.59399 0,-2.83679 2.66528,-2.45102 3.40411,0.4927 0.55156,2.19758 6.65078,7.89304 15.17913,14.17427 3.77688,2.78173 2.33219,4.81156 -2.08324,2.92702 z m -4.16858,-35.84801 c -1.40687,-2.27638 3.09401,-3.72732 11.60971,-3.74259 15.36943,-0.0276 33.94793,-6.14885 48.45504,-15.96507 9.18694,-6.21632 10.10196,-6.64064 11.04157,-5.12032 1.03818,1.67981 -6.13666,6.78849 -18.0551,12.85575 -14.74042,7.50382 -21.62539,9.78794 -33.54332,11.12814 -15.87402,1.78508 -18.84683,1.91371 -19.5079,0.84409 z m 24.15205,-27.29648 c 14.66318,-2.98267 26.21932,-7.28518 34.26883,-12.75875 l 7.7477,-5.26834 1.17326,-20.95184 c 1.93785,-34.60559 1.55786,-32.98459 10.5102,-44.83524 9.90109,-13.10655 13.02189,-21.68239 15.25888,-41.93071 0.43706,-3.95607 1.41807,-5.83302 5.50398,-10.53069 6.77683,-7.79149 9.41768,-13.99251 9.4353,-22.15519 0.012,-5.54068 -0.60551,-7.84182 -4.18379,-15.59174 -4.26278,-9.23242 -4.85867,-11.81658 -3.29432,-14.28638 1.08157,-1.70759 3.09649,-0.60177 3.09649,1.6994 0,0.93679 1.74563,5.02064 3.87918,9.07522 l 3.87918,7.37197 2.87082,-4.88424 c 2.51484,-4.27859 2.87082,-5.87623 2.87082,-12.88423 0,-6.4511 -0.53458,-9.29688 -2.76109,-14.69828 -3.33393,-8.08796 -3.74373,-16.559578 -1.22029,-25.226758 1.18879,-4.08312 1.57686,-7.99638 1.24833,-12.58807 -0.47746,-6.67314 -2.23754,-10.81359 -11.04944,-25.993 -3.53851,-6.09544 -5.71113,-14.95997 -5.74839,-23.45399 -0.0734,-16.7314692 -3.80629,-29.2608692 -12.9744,-43.54813 -4.38852,-6.83892 -6.36011,-16.6296 -5.04962,-25.07587 2.14078,-13.79767 1.00443,-19.94413 -6.54768,-35.4159 -4.95819,-10.1577 -6.34611,-17.27406 -6.37761,-32.700312 -0.0165,-8.07486 -0.30454,-9.85965 -1.71902,-10.65124 -1.42781,-0.79904 -0.98858,-1.30672 2.75,-3.17854 2.44706,-1.22519 7.09087,-5.07355 10.31956,-8.55191 6.61109,-7.12231 8.60459,-12.93387 6.56084,-19.12649 -1.00297,-3.03903 -1.41408,-3.29151 -5.35952,-3.29151 -2.35027,0 -5.57787,0.428 -7.17245,0.95111 -1.59457,0.5231 -4.81172,1.44045 -7.14922,2.03854 -4.91649,1.25797 -5.38321,2.97381 -1.61514,5.93777 3.2947,2.59161 5.88307,2.61481 10.58472,0.0949 3.82551,-2.05035 6.0058,-1.20372 3.78652,1.47035 -1.54424,1.86069 -7.65932,3.8313 -9.99428,3.22069 -3.56555,-0.93241 -9.01182,6.75544 -9.01182,12.72092 0,2.50288 -0.44711,3.56574 -1.5,3.56574 -1.08738,0 -1.5,-1.11842 -1.5,-4.06574 0,-4.58043 1.128,-7.23597 4.70418,-11.07457 2.53099,-2.7167 1.57576,-5.16683 -1.13673,-2.91567 -0.88538,0.7348 -4.81696,0.95155 -11.50609,0.63432 -7.96326,-0.37765 -10.27357,-0.18891 -10.6809,0.87259 -0.88865,2.31577 3.55474,11.0799 7.63992,15.06897 4.22274,4.1234 4.33285,5.85784 0.30773,4.8476 -2.30868,-0.57944 -2.47979,-0.42075 -1.81268,1.68111 1.01666,3.2032 -1.14812,30.670912 -3.6781,46.669492 -2.60805,16.49225 -2.21509,21.53236 2.48868,31.92012 3.25684,7.19235 3.66919,8.99383 3.54783,15.5 -0.0755,4.04898 0.48447,10.93241 1.24442,15.29652 l 1.38174,7.9347308 4.89194,1.24787 c 13.92863,3.55299003 28.08938,14.5210592 33.84654,26.2155092 3.02568,6.14604 3.26152,7.35123 3.26152,16.66715 0,9.27297 -0.24452,10.53826 -3.19268,16.52103 -1.85726,3.76897 -6.56286,10.21893 -11.25,15.42033 l -8.05732,8.94137 0,5.80863 c 0,3.19475 0.24658,5.80864 0.54797,5.80864 0.30138,0 1.60362,-1.22727 2.89386,-2.72727 3.54099,-4.11665 8.85184,-3.78036 15.79271,1 2.9765,2.05 5.97439,3.72727 6.66197,3.72727 1.90518,0 0.83032,3.42893 -1.19726,3.8194 -0.99231,0.1911 -3.52901,-1.23976 -5.7414,-3.23851 -3.12643,-2.82455 -4.79143,-3.58089 -7.88292,-3.58089 -3.43759,0 -4.41973,0.58383 -7.99067,4.75 -2.47504,2.88761 -4.07388,5.762878 -4.0778,7.333328 -0.008,3.08834 -0.7147,3.96586 -2.60939,3.2388 -1.1264,-0.43224 -1.37988,-3.33137 -1.26958,-14.520878 l 0.13782,-13.98082 8.25565,-8.84288 c 4.91744,-5.26722 9.51388,-11.36082 11.36734,-15.06994 2.76201,-5.52726 3.1117,-7.19845 3.1117,-14.87099 0,-10.57607 -2.29225,-15.90992 -10.41105,-24.22549 -10.28327,-10.5324992 -24.58682,-16.5205591 -36.98037,-15.48152914 -17.14855,1.43766997 -35.78129,17.77073914 -42.31967,37.09653914 -3.07528,9.08975 -6.28996,21.37128 -6.28517,24.0122 0.007,3.82164 3.92188,8.52707 10.72871,12.89495 3.72215,2.38847 7.38515,5.09059 8.13999,6.0047 2.1862,2.64745 4.84216,1.95838 9.01165,-2.33799 4.36829,-4.50122 5.11591,-4.8105 5.11591,-2.11636 0,1.834 -6.3966,8.41523 -9.03344,9.29417 -1.01705,0.33902 -0.77807,1.73829 1.05023,6.1494 2.18176,5.26389 2.66323,5.75789 6.15616,6.31644 4.4893,0.71786 6.9764,2.978069 4.37535,3.976188 -2.51107,0.96359 -11.77877,-0.38047 -12.71084,-1.843408 -0.44729,-0.70204 -1.961,-4.25626 -3.36381,-7.89828 -2.37817,-6.17428 -3.10558,-7.03041 -10.76211,-12.66664 -4.51634,-3.32463 -9.16731,-7.0948 -10.33547,-8.37815 -3.63398,-3.9923 -6.27193,-14.35539 -7.84872,-30.83336 -1.54531,-16.14907 -3.15816,-23.32874 -6.43598,-28.65001 -2.2857,-3.7106492 -10.09524,-9.34998917 -12.94815,-9.34998917 -2.17641,0 -7.04245,7.58449997 -10.18233,15.87076917 -0.96477,2.54608 -2.47565,4.77473 -3.35751,4.95255 -2.5204,0.50825 -2.00456,-4.73316 1.0239,-10.40384 6.54691,-12.25883914 7.31184,-14.1389492 7.34145,-18.0444792 0.052,-6.8525808 1.10117,-10.5081808 2.91575,-10.1587708 1.20405,0.23185 1.62249,1.48667 1.64288,4.9267 0.0315,5.3144708 0.86362,6.5844708 6.32556,9.6542508 l 3.96678,2.22946006 0.6091,-3.76332006 c 0.335,-2.06983 -0.0666,-7.8133208 -0.8924,-12.7633208 -0.82581,-4.95 -1.50934,-12.7601 -1.51894,-17.35578 -0.0156,-7.47338 -0.60151,-10.08079 -5.54805,-24.69064 -6.6251,-19.56754 -9.41859,-31.60267 -9.44777,-40.70358 -0.0209,-6.527562 -0.10402,-6.750002 -2.52164,-6.750002 -3.87749,0 -2.97312,-1.42966 2.45669,-3.88363 3.03713,-1.37261 5.71461,-3.47479 6.91379,-5.42826 2.04637,-3.33354 5.39661,-14.75435 4.57046,-15.5805 -0.26264,-0.26264 -3.85308,-0.40868 -7.97875,-0.32453 -5.39167,0.10997 -8.14948,0.64198 -9.8063,1.89171 l -2.30506,1.73871 2.31254,4.04325 c 1.2719,2.22379 2.31133,5.16825 2.30984,6.54325 -0.003,3.09925 -2.01782,7.19172 -3.83541,7.79176 -1.09688,0.36212 -1.22807,-0.70591 -0.67358,-5.48347 0.65857,-5.67429 0.55411,-6.07716 -2.39418,-9.23332 -2.85155,-3.05259 -3.41199,-3.25078 -7.47112,-2.64207 -5.09491,0.76402 -9.59892,-0.1151 -9.59892,-1.87358 0,-0.87091 1.57366,-1.09336 5.45668,-0.77135 5.05609,0.41929 5.68554,0.22366 8.57391,-2.66471 3.67457,-3.67457 3.64462,-6.75612 -0.0618,-6.35822 -1.35783,0.14576 -5.16879,0.25442 -8.46879,0.24146 -8.16098,-0.0321 -11.50183,0.78864 -11.4916,2.82296 0.005,0.9188 -0.74936,4.6277 -1.6755,8.24201 -0.92614,3.61431 -1.40106,7.30851 -1.05538,8.20934 0.34568,0.90083 2.89965,2.78876 5.67549,4.19538 l 5.04699,2.5575 -0.009,20.733162 c -0.005,11.97483 -0.63499,26.01353 -1.49131,33.23315 -2.71125,22.8586 -1.58336,43.01367 3.02902,54.1278008 3.08898,7.44331 6.83393,32.7309892 5.90483,39.8721992 -0.32201,2.475 -1.50395,9.1531 -2.62652,14.84023 -1.33921,6.78463 -1.82377,11.97817 -1.40917,15.10359 0.54867,4.13605 7.71563,26.5033 8.85842,27.64609 0.68123,0.68092 3.74373,-11.31095 3.74373,-14.65814 0,-3.76316 1.89738,-3.52103 3.85226,0.49158 1.21842,2.50094 1.02152,3.78033 -1.98933,12.92616 -3.00706,9.134318 -3.34266,11.309308 -3.35226,21.725878 l -0.0107,11.57539 4.27706,8.63147 c 2.83388,5.719 5.96005,10.24879 9.26481,13.42461 7.59778,7.30134 10.20442,11.5304 10.13659,16.44577 -0.0319,2.31214 0.3661,4.99637 0.88446,5.96494 0.61313,1.14564 0.57678,1.98708 -0.10402,2.40783 -1.93774,1.19759 -3.9589,-1.71118 -3.9589,-5.6975 0,-2.15997 -0.64033,-5.14237 -1.42296,-6.62756 -2.28123,-4.32905 -12.20118,-13.55067 -13.62815,-12.66875 -0.95635,0.59105 -1.09079,4.40083 -0.57763,16.36938 0.7437,17.34568 2.25098,24.82394 7.34302,36.43198 3.30552,7.53541 3.67278,11.24675 1.03519,10.46127 -0.68721,-0.20466 -2.53919,-3.01782 -4.11552,-6.25148 -3.60893,-7.40329 -4.57744,-6.17671 -5.35019,6.77581 -0.75764,12.6991 1.72014,21.99948 11.10464,41.68145 4.06478,8.525 8.09709,17.525 8.9607,20 2.6115,7.48424 4.64911,19.09177 4.65187,26.5 l 0.003,7 4.38523,2.77035 c 11.35878,7.17585 29.70584,9.10434 49.09466,5.16041 z m 7.49178,-11.99586 c -2.43596,-6.40705 -0.32025,-39.39252 3.1207,-48.65408 2.04461,-5.50323 4.3547,-8.66351 5.49746,-7.52074 0.29979,0.29979 -0.82413,6.10141 -2.49761,12.8925 -2.486,10.08833 -3.09329,14.81738 -3.31925,25.84742 -0.1521,7.425 0.1172,14.9625 0.59845,16.75 0.72879,2.70693 0.59933,3.25 -0.77475,3.25 -0.90736,0 -2.08861,-1.15429 -2.625,-2.5651 z m -55.39679,-30.6849 c -1.86291,-2.85596 -3.19525,-9.11005 -4.08134,-19.15808 -0.87711,-9.94607 -2.12151,-13.43691 -9.5269,-26.7252 -3.28362,-5.89215 -5.97022,-11.23509 -5.97022,-11.8732 0,-2.74653 2.91414,0.27243 8.76251,9.07769 7.13408,10.74104 10.2294,19.27831 10.25485,28.28413 0.0161,5.68447 1.87748,16.78382 3.50414,20.89466 1.00754,2.54622 -1.20075,2.17105 -2.94304,-0.5 z m 36.97933,-7.6565 c -1.1525,-1.86478 0.44268,-5.19849 6.98918,-14.60643 7.38514,-10.61315 10.03299,-13.30711 11.5693,-11.7708 1.50877,1.50877 -0.35348,4.63066 -6.78495,11.37439 -2.93248,3.07486 -6.62663,7.95846 -8.20922,10.85245 -1.66415,3.04313 -3.16706,4.79317 -3.56431,4.15039 z m 44.63404,-17.52779 c -3.51985,-4.0089 -4.80629,-7.35125 -3.37882,-8.77872 0.68224,-0.68224 2.01991,0.38014 4.10788,3.2625 1.70291,2.3508 3.99235,4.90187 5.08766,5.66905 2.68399,1.87994 2.51103,3.28146 -0.40496,3.28146 -1.47801,0 -3.55201,-1.31616 -5.41176,-3.43429 z m -63.19183,-1.37548 c 0,-0.44537 2.025,-3.18212 4.5,-6.08165 2.475,-2.89954 4.5,-6.0654 4.5,-7.03525 0,-2.24828 3.55967,-5.59481 4.43854,-4.17277 1.47677,2.38946 -8.49337,18.09944 -11.48658,18.09944 -1.07358,0 -1.95196,-0.3644 -1.95196,-0.80977 z m -7.81566,-16.90893 c 0.20653,-1.07238 2.05567,-2.20582 4.91725,-3.01404 3.28698,-0.92838 5.49371,-2.42455 7.78945,-5.2813 3.34748,-4.16548 5.10896,-5.0236 5.10896,-2.48884 0,2.00112 -6.65077,9.27093 -10.12519,11.06762 -3.9751,2.0556 -8.11157,1.90315 -7.69047,-0.28344 z m 42.26255,-5.99731 c -1.39034,-3.14381 -3.13432,-6.40631 -3.8755,-7.25 -0.74118,-0.8437 -2.54434,-3.8472 -4.00702,-6.67445 -4.48064,-8.66073 -5.75913,-29.79462 -1.88062,-31.08746 0.7267,-0.24223 1.24094,3.24657 1.53764,10.43199 0.47694,11.55069 1.75878,16.33117 6.38034,23.79478 1.59405,2.57432 3.90337,6.32771 5.13182,8.34086 2.60453,4.26824 2.96407,8.16029 0.75384,8.16029 -0.8789,0 -2.57168,-2.39474 -4.0405,-5.71601 z m 21.26635,1.46601 c -0.87179,-2.40331 2.387,-8.17426 7.85022,-13.90188 6.60865,-6.92848 7.65238,-9.25519 10.90937,-24.31942 2.75171,-12.72726 3.84539,-15.5287 6.06235,-15.5287 1.86926,0 1.8584,2.12226 -0.034,6.65148 -0.82436,1.97298 -2.23013,7.92103 -3.12393,13.21788 -1.95408,11.5803 -3.07714,13.98737 -9.87965,21.17523 -2.88604,3.04953 -6.21279,7.43703 -7.39278,9.75 -2.17966,4.27248 -3.57352,5.21052 -4.39155,2.95541 z m -9.34193,-12.25218 c 0.39334,-3.3467 2.58933,-10.10876 5.31039,-16.35216 l 4.63971,-10.64566 1.39639,-21.5 c 1.20281,-18.5196 1.26254,-40.02229 0.12499,-45 -0.57395,-2.5115 1.57136,-2.4307 2.97894,0.1122 1.04912,1.89531 1.20566,8.47344 0.75893,31.89342 -0.62258,32.63953 -1.15296,36.22354 -7.11148,48.05559 -2.0858,4.14184 -3.84968,9.40913 -4.26542,12.73736 -0.55629,4.45339 -1.11727,5.75368 -2.60601,6.04038 -1.74447,0.33595 -1.84316,-0.0938 -1.22644,-5.34113 z m 25.97377,2.95905 c -0.84719,-2.20773 0.18671,-2.85313 4.75417,-2.96772 4.46175,-0.11194 5.68799,0.85735 3.8644,3.05465 -1.6365,1.97186 -7.8526,1.90916 -8.61857,-0.0869 z M -439.5055,198.4738 c -2.2,-0.69219 -5.00784,-1.80043 -6.23965,-2.46275 -4.12943,-2.22033 -7.15137,-11.14494 -3.77377,-11.14494 0.81762,0 2.13217,1.54511 2.92122,3.43358 1.74265,4.17075 6.0026,6.55342 12.95472,7.24582 6.58716,0.65605 10.81114,-2.0113 15.3813,-9.71292 3.79344,-6.39271 12.65726,-15.96648 14.78247,-15.96648 2.407,0 1.7348,1.34671 -3.27629,6.56391 -2.6125,2.71995 -6.19167,7.66718 -7.9537,10.99384 -3.6851,6.95733 -5.43625,8.76712 -10.55078,10.90411 -4.36399,1.82339 -8.7703,1.8685 -14.24552,0.14583 z m 109,-25.0102 c -1.65,-0.72833 -3.78216,-2.20275 -4.73812,-3.27648 -2.13615,-2.3993 -3.34241,-7.84419 -1.93105,-8.71646 1.34716,-0.83259 4.16917,3.22956 4.16917,6.00132 0,3.76825 7.63023,4.61925 12.5,1.39413 3.25616,-2.15647 6.03267,-2.56517 6.98278,-1.02785 0.84001,1.35915 -8.44388,6.99419 -11.48278,6.96971 -1.375,-0.0111 -3.85,-0.61605 -5.5,-1.34437 z m -61,-7.60917 c -5.49819,-0.8218 -8.18776,-2.48366 -10.1441,-6.26796 -0.91564,-1.7712 -3.02061,-4.90786 -4.67771,-6.97036 -2.39464,-2.98047 -3.69681,-3.75 -6.34555,-3.75 -2.60319,0 -3.33264,-0.41434 -3.33264,-1.89301 0,-1.93869 1.83455,-3.10699 4.87884,-3.10699 1.80672,0 6.63929,4.709 11.94571,11.64027 1.92383,2.51292 4.83131,4.80511 7.39715,5.83176 4.57561,1.8308 4.99018,1.63054 8.34016,-4.02876 1.24686,-2.10638 3.43814,-1.16254 3.43814,1.48089 0,2.34414 -3.45218,6.71281 -5.72588,7.24599 -0.97576,0.22882 -3.57412,0.147 -5.77412,-0.18183 z m -41.5,-13.46466 c 0,-2.54264 -0.62893,-5.8392 -1.39762,-7.32568 -1.93482,-3.74152 -5.23287,-6.60488 -6.06212,-5.26312 -0.36206,0.58583 -1.30674,1.06514 -2.09928,1.06514 -3.24162,0 -1.0078,-3.77169 6.47259,-10.92862 6.20839,-5.93993 8.06248,-8.37174 8.60461,-11.28575 0.79443,-4.27012 3.11529,-6.90437 4.0157,-4.55794 1.04089,2.71252 -3.64004,13.13683 -7.87486,17.53708 l -4.10443,4.26477 3.28104,5.9682 c 2.5488,4.63627 3.21222,6.91855 2.9727,10.2266 -0.22516,3.10977 -0.78036,4.34794 -2.05833,4.59036 -1.46217,0.27735 -1.75,-0.4284 -1.75,-4.29104 z m 91.59759,-0.36576 c -0.90924,-1.47117 1.1277,-10.70333 3.28538,-14.89055 1.06772,-2.07204 5.18741,-6.82223 9.15487,-10.55598 7.94324,-7.47533 7.64934,-6.46133 5.35464,-18.47434 -0.54471,-2.85164 -0.0947,-3.83639 3.56959,-7.81171 3.87173,-4.200328 4.14191,-4.850368 3.52751,-8.487028 -0.76709,-4.54036 0.61033,-5.24164 3.033,-1.54418 2.02159,3.08534 1.09073,7.05209 -2.67301,11.390688 -3.38314,3.89986 -3.57323,6.87639 -0.7878,12.33629 1.92317,3.76972 1.9536,4.20651 0.45257,6.49736 -0.88506,1.35078 -5.59571,5.60486 -10.46812,9.45352 -4.87241,3.84866 -9.18159,7.76942 -9.57595,8.7128 -0.39436,0.94338 -0.999,4.37919 -1.34365,7.63514 -0.58006,5.48008 -2.13046,8.00093 -3.52903,5.73799 z m -47.69586,-37.24084 c -3.54812,-3.90656 -3.57823,-3.91706 -11.2297,-3.91706 -5.89103,0 -7.67203,-0.32338 -7.67203,-1.39301 0,-4.51006 16.14345,-2.63921 21.61973,2.50549 2.33345,2.19216 3.13531,5.30284 1.60997,6.24556 -0.42367,0.26184 -2.37126,-1.2866 -4.32797,-3.44098 z m -26.66622,-5.16706 c -0.55516,-0.6875 -1.33847,-3.275 -1.74069,-5.75 -1.30889,-8.053988 -4.74012,-12.528458 -14.4968,-18.904458 -3.02609,-1.97754 -7.07609,-4.76207 -9,-6.18783 -1.92391,-1.42576 -5.06993,-3.01671 -6.99115,-3.53546 -1.99926,-0.53981 -3.63435,-1.67641 -3.82333,-2.65771 -1.45295,-7.54455 31.25336,12.65851 36.40178,22.4858 0.77807,1.48519 1.41468,4.300659 1.41468,6.256608 0,2.53392 0.7089,4.17265 2.46589,5.70034 1.35624,1.17924 2.22969,2.52626 1.94099,2.99339 -0.7969,1.2894 -5.02848,1.01466 -6.17137,-0.40068 z m 43.21231,-28.834428 c -1.32781,-2.14845 1.73592,-3.41557 8.2584,-3.41557 4.39139,0 6.75014,0.41918 7.03375,1.25 0.30819,0.90284 -1.14221,1.25 -5.22238,1.25 -3.10699,0 -6.49218,0.45122 -7.52264,1.0027 -1.2872,0.68889 -2.08438,0.66162 -2.54713,-0.0871 z m -78.21863,-20.08638 c -0.77555,-0.77555 -1.22919,-4.30419 -1.22919,-9.56131 0,-9.14583 -1.13736,-12.84724 -6.04941,-19.68715 -1.98884,-2.76942 -2.98168,-5.20397 -2.73764,-6.71301 0.35978,-2.22476 0.66858,-2.06582 5.11426,2.63228 5.31295,5.61463 6.24057,8.15612 7.66474,21 0.54887,4.95 1.11272,9.88276 1.253,10.96169 0.29859,2.29654 -2.22675,3.15651 -4.01576,1.3675 z m 98.06268,-75.51098 c -0.35495,-0.92498 0.15693,-3.73748 1.13752,-6.25 0.98058,-2.51251 2.07262,-6.59321 2.42674,-9.06821 0.436,-3.04717 1.12815,-4.5 2.14387,-4.5 2.22955,0 1.71546,7.67444 -1.02155,15.25 -2.30088,6.36841 -3.53439,7.57077 -4.68658,4.56821 z m -72.24844,57.7507 c 1.72015,-9.4041 8.7021,-23.30184 15.48578,-30.82485 8.64015,-9.5818092 23.35096,-17.2440592 33.10698,-17.2440592 2.97333,0 3.33577,-0.33362 3.9564,-3.64186 0.44948,-2.3959308 0.0925,-5.5159108 -1.04352,-9.1197108 -1.07447,-3.40862 -1.48653,-6.75825 -1.09084,-8.86748 0.46453,-2.47616 -0.34691,-6.41889 -3.011,-14.63029 -4.46261,-13.75488 -5.46422,-24.0645 -2.98653,-30.74066 1.73358,-4.67116 4.44994,-33.765272 4.50811,-48.284962 0.0264,-6.58792 -0.46239,-8.93279 -3.17884,-15.25 -2.24478,-5.22031 -3.7363,-7.46504 -4.96016,-7.46504 -0.96257,0 -14.61098,2.25 -30.32981,5 -15.71883,2.75 -28.93969,5 -29.37969,5 -0.44,0 -1.37566,3.2625 -2.07923,7.25 -1.47052,8.33412 -2.07158,9.72283 -6.67327,15.4183 -2.97024,3.67623 -3.36565,4.85673 -3.34949,10 0.0243,7.727012 2.5083,24.819112 4.33549,29.831702 0.80195,2.2 3.38184,8.05 5.73311,13 4.18632,8.81325 4.29123,9.29051 5.05581,23 0.42943,7.7 1.2284,16.025 1.77548,18.5 0.54708,2.475 1.01429,7.9535008 1.03824,12.1744408 0.0344,6.05438 0.65689,9.22086 2.94903,14.9999992 2.88031,7.2621 6.08435,22.87514 6.10553,29.75178 0.0177,5.75404 1.17772,11.38645 2.05328,9.96976 0.42767,-0.69199 1.31829,-4.21417 1.97914,-7.82707 z m -41.90587,-177.325952 c 2.27201,-4.24529 2.80692,-8.0778 1.72637,-12.36906 -1.34234,-5.33093 -2.46316,-6.27718 -6.67398,-5.63448 -2.58426,0.39443 -3.15906,0.86211 -2.62141,2.13289 0.37876,0.89523 0.92804,2.75269 1.22062,4.12769 0.29259,1.375 1.4379,3.72878 2.54514,5.23062 1.70943,2.31864 1.85373,3.25008 0.95644,6.17371 -0.87372,2.84687 -0.81241,3.34935 0.35405,2.90173 0.77593,-0.29774 1.89767,-1.45114 2.49277,-2.5631 z m 9.67274,-2.04103 c 1.18741,-1.26395 2.45082,-3.75752 2.80757,-5.54129 0.86055,-4.30273 -2.10708,-10.99434 -5.2226,-11.77628 -3.66663,-0.92027 -4.29862,0.21945 -2.692,4.8547 1.40626,4.0572 1.32248,9.20544 -0.21173,13.01094 -1.06534,2.64252 2.68435,2.25613 5.31876,-0.54807 z m 9.17536,0.30575 c 2.49951,-1.3377 4.3588,-7.35799 3.57037,-11.56071 -0.67199,-3.58202 -2.93079,-5.44697 -6.59728,-5.44697 -1.71991,0 -1.99913,0.36471 -1.33977,1.75 0.45812,0.9625 0.83295,4.225 0.83295,7.25 0,3.025 -0.37483,6.2875 -0.83295,7.25 -0.96272,2.02262 1.27698,2.41123 4.36668,0.75768 z m 41.23405,-7.86144 c 17.99585,-3.16378 32.99153,-6.02414 33.32374,-6.35636 1.07793,-1.07793 -2.5434,-6.78923 -4.31913,-6.8118 -2.91998,-0.0371 -61.68422,10.23308 -62.35303,10.89742 -0.34579,0.34347 -0.92868,2.312 -1.29531,4.3745 -0.49007,2.75687 -0.32356,3.73657 0.62871,3.69929 0.71242,-0.0279 16.01918,-2.63926 34.01502,-5.80305 z m -69.93238,-0.64624 c -0.28631,-4.03886 -4.38825,-7.5 -8.88855,-7.5 -4.25807,0 -8.39878,3.70948 -8.39878,7.5241 0,2.13792 0.40932,2.5567 2.24357,2.29545 1.58577,-0.22586 2.39205,-1.17167 2.75,-3.22588 0.41001,-2.353 0.72112,-2.63859 1.63404,-1.5 0.62019,0.77348 1.44564,2.44285 1.83433,3.70971 0.61221,1.99536 1.26376,2.26281 4.87239,2 3.94998,-0.28767 4.15466,-0.45871 3.953,-3.30338 z m 112.52054,-6.1764 c 0.35434,-3.65585 -2.47876,-9.76502 -6.09201,-13.13655 -2.43573,-2.27278 -2.54596,-2.28315 -6.34732,-0.59707 l -3.86854,1.71588 2.97086,0.60184 c 3.59203,0.72769 7.48786,6.90315 7.51269,11.90872 0.015,3.02477 0.25829,3.2886 2.76645,3 2.27629,-0.26191 2.80303,-0.86358 3.05787,-3.49282 z m 6.04111,2.75722 c 3.70982,-1.98543 0.16331,-17.71092 -4.38817,-19.45748 -2.25307,-0.86459 -6.46446,-0.7818 -6.44353,0.12666 0.009,0.4125 1.12973,1.80514 2.4894,3.09476 2.47864,2.35094 5.49332,10.4932 5.49332,14.83674 0,2.57039 0.34459,2.73963 2.84898,1.39932 z m 8.49749,-9.66028 c 1.31903,-0.50616 1.33815,-1.15059 0.15119,-5.09456 -1.66737,-5.54025 -4.06052,-8.32598 -7.15265,-8.32598 -2.92206,0 -2.91304,0.36387 0.15918,6.41948 1.37269,2.70571 2.49581,5.51821 2.49581,6.25 0,1.40387 1.82395,1.71904 4.34647,0.75106 z m 11.65353,-4.0014 c 0,-2.23015 -3.06188,-9.83003 -4.68132,-11.61949 -1.02189,-1.12918 -3.03914,-1.79965 -5.41465,-1.79965 -4.37133,0 -5.59317,1.18489 -3.23454,3.13669 2.06049,1.7051 5.2793,8.6625 5.30855,11.47438 0.0205,1.97287 0.28382,2.04118 4.02196,1.04341 2.2,-0.58722 4,-1.59312 4,-2.23534 z"
       id="path3139"
       inkscape:connector-curvature="0" />
  </g>
</svg>
