<?xml version="1.0" encoding="UTF-8" standalone="no"?>
<!-- Created with Inkscape (http://www.inkscape.org/) -->

<svg
   xmlns:dc="http://purl.org/dc/elements/1.1/"
   xmlns:cc="http://creativecommons.org/ns#"
   xmlns:rdf="http://www.w3.org/1999/02/22-rdf-syntax-ns#"
   xmlns:svg="http://www.w3.org/2000/svg"
   xmlns="http://www.w3.org/2000/svg"
   xmlns:sodipodi="http://sodipodi.sourceforge.net/DTD/sodipodi-0.dtd"
   xmlns:inkscape="http://www.inkscape.org/namespaces/inkscape"
   width="682.3056"
   height="899.79016"
   id="svg2"
   version="1.1"
   inkscape:version="0.48.3.1 r9886"
   sodipodi:docname="Chin-ups-2.svg">
  <defs
     id="defs4" />
  <sodipodi:namedview
     id="base"
     pagecolor="#ffffff"
     bordercolor="#666666"
     borderopacity="1.0"
     inkscape:pageopacity="0.0"
     inkscape:pageshadow="2"
     inkscape:zoom="0.7"
     inkscape:cx="843.53398"
     inkscape:cy="436.36359"
     inkscape:document-units="px"
     inkscape:current-layer="layer1"
     showgrid="false"
     inkscape:window-width="1855"
     inkscape:window-height="1056"
     inkscape:window-x="65"
     inkscape:window-y="24"
     inkscape:window-maximized="1"
     fit-margin-top="0"
     fit-margin-left="0"
     fit-margin-right="0"
     fit-margin-bottom="0" />
  <metadata
     id="metadata7">
    <rdf:RDF>
      <cc:Work
         rdf:about="">
        <dc:format>image/svg+xml</dc:format>
        <dc:type
           rdf:resource="http://purl.org/dc/dcmitype/StillImage" />
        <dc:title></dc:title>
      </cc:Work>
    </rdf:RDF>
  </metadata>
  <g
     inkscape:label="Ebene 1"
     inkscape:groupmode="layer"
     id="layer1"
     transform="translate(518.51288,-50.191803)">
    <path
       style="fill:#000000"
       d="m -130.28599,770.40238 c -5.22955,-1.88448 -6.27715,-2.85922 -9.13564,-8.50016 -3.03125,-5.9819 -3.02284,-7.77763 0.078,-16.65295 3.47394,-9.94319 3.16985,-18.11501 -0.50914,-13.6821 -1.47514,1.77743 -6.27694,1.95179 -8.88563,0.32264 -1.49416,-0.93312 -3.05828,-0.72108 -7.82182,1.06036 -12.20045,4.56266 -19.88485,-1.37417 -23.39109,-18.07155 -0.61471,-2.92735 -1.85446,-6.15635 -2.75499,-7.17554 -1.6662,-1.88576 -2.03308,-11.96848 -1.03673,-28.49208 0.51472,-8.53628 -0.62496,-9.39881 -15.30569,-11.58364 -21.98037,-3.27118 -30.3686,-4.8181 -36.79491,-6.78556 -7.05642,-2.16037 -18.36006,-7.51331 -22.80469,-10.79936 -3.3307,-2.4625 -10.82067,-4.55299 -21.65336,-6.04357 -4.37693,-0.60227 -8.87693,-1.56575 -10,-2.14106 -2.63341,-1.34901 -7.45003,-5.81496 -8.64283,-8.0136 -1.2549,-2.31311 -4.33106,-17.51703 -6.85063,-33.85925 -2.20228,-14.28423 -3.11661,-19.27102 -5.57912,-30.4288 -4.26485,-19.32435 -4.58386,-23.19235 -3.32243,-40.28371 1.19836,-16.23689 1.19557,-16.28809 -0.97256,-17.8067 -1.86545,-1.30662 -2.17437,-2.47709 -2.17437,-8.23855 0,-3.69356 1.15847,-12.10554 2.57437,-18.6933 2.23366,-10.39247 2.64921,-15.26851 3.13978,-36.84168 0.53236,-23.4112 0.69918,-25.11555 2.8552,-29.17047 2.1288,-4.00372 2.22978,-4.94645 1.43612,-13.40728 -0.90678,-9.6667 -0.64406,-11.30556 3.45478,-21.55105 1.6518,-4.12886 2.91053,-9.81563 3.43808,-15.53282 0.58098,-6.29616 1.36216,-9.60479 2.58737,-10.95864 1.59753,-1.76525 1.66279,-3.04279 0.72678,-14.2276 -0.93127,-11.12815 -1.45221,-13.2888 -5.51819,-22.88729 -6.00109,-14.16669 -7.10129,-19.92767 -6.31175,-33.05027 l 0.64074,-10.64936 -4.51164,-8.62511 c -2.4814,-4.74381 -4.51164,-9.48754 -4.51164,-10.54162 0,-3.27461 -1.55004,-3.09516 -5.09155,0.58947 -6.69304,6.96353 -15.2501,10.37782 -30.88222,12.32206 -4.66057,0.57965 -10.6661,1.05392 -13.34563,1.05392 -3.14036,0 -5.81524,0.66322 -7.52623,1.86608 -7.27795,5.11654 -16.62048,2.23616 -23.38751,-7.21057 -1.75821,-2.45444 -2.10763,-4.8541 -2.54826,-17.5 -0.87079,-24.99153 -0.55688,-36.28646 1.19898,-43.14024 2.2629,-8.83298 9.84606,-26.26667 16.22508,-37.30147 7.87703,-13.62614 13.96236,-25.66343 15.40047,-30.46342 1.09912,-3.66855 1.05604,-4.48332 -0.31735,-6.0009 -2.66915,-2.94938 -6.66815,-12.47823 -7.34405,-17.49948 l -0.63939,-4.75 -69.81216,0 c -47.41593,0 -70.01911,-0.33486 -70.45726,-1.04381 -0.35481,-0.57409 -0.0439,-1.7686 0.69099,-2.65446 1.21132,-1.46027 7.96597,-1.5729 72.33609,-1.2062 l 71,0.40447 0.30203,-5.243503 0.30204,-5.24349 -73.30204,-0.25651 c -72.54987,-0.25387 -73.30203,-0.27702 -73.30203,-2.2565 0,-1.98446 0.54782,-1.99723 70.5,-1.64348 l 70.5,0.35651 1.13292,-3.02646 c 1.6577,-4.42835 7.78569,-7.24947 15.62789,-7.19455 15.76133,0.11038 25.33584,-0.62324 28.23919,-2.16374 4.27939,-2.27062 10.93955,-3.19859 13.42187,-1.87009 2.19228,1.17327 5.35156,6.69959 6.45528,11.29181 l 0.66095,2.75 13.4619,0 13.4619,0 0.57524,-2.75 c 2.18815,-10.46055 3.87161,-16.17356 5.5813,-18.94071 3.43579,-5.56085 12.51385,-13.02744 18.6349,-15.32697 12.23242,-4.59542 29.44423,-3.5453 41.94264,2.55899 11.24055,5.48993 18.01237,14.86055 20.53258,28.41227 l 1.12445,6.04642 83.5735,-0.0314 83.573486,-0.0314 1.59829,-2.21858 c 0.87906,-1.22021 1.90946,-3.89282 2.28979,-5.93913 0.88911,-4.78378 4.83218,-9.44927 8.705,-10.29988 3.10821,-0.68269 8.9069203,1.03719 8.9069203,2.64175 0,0.48327 2.025,0.87868 4.5,0.87868 3.07902997,0 5.09668,0.59668 6.38961,1.88961 1.46027,1.46027 2.88032,1.78325 6.25,1.42151 2.8567697,-0.30668 5.0142997,0.0223 6.2566897,0.95396 1.42262,1.06683 3.01561,1.21293 6.37726,0.58491 6.43122,-1.20148 9.46645,0.4771 10.6685,5.90001 l 0.94206,4.25 63.1855,0 c 54.100164,0 63.359264,0.20938 64.394034,1.45619 0.66469,0.80091 0.91823,1.92591 0.56342,2.5 -0.43709,0.70723 -21.18246,1.04698 -64.336094,1.05364 l -63.69098,0.01 -1.65112,4.983113 -1.65112,4.98311 66.65112,0.25706 c 65.898774,0.25419 66.651124,0.27967 66.651124,2.25709 0,1.97686 -0.75239,2.00297 -65.044514,2.25717 l -65.04452,0.25717 -1.15639,4.24283 c -0.63602,2.33356 -2.97591,6.4262 -5.19976,9.09478 l -4.04335,4.85194 0.24426,31.64805 c 0.25454,32.97892 -0.0553,36.6134 -4.40288,51.64806 -3.39487,11.74001 -8.12597,20.36949 -15.6250697,28.5 -3.94496003,4.27712 -7.45822,9.1447 -8.17576,11.32739 -2.02718,6.16656 -4.90288,7.26201 -21.0925403,8.03485 -12.94923,0.61815 -14.39442,0.50625 -18.98905,-1.4703 -5.31289,-2.28555 -7.63529,-2.27053 -22.97043,0.1486 -10.20616,1.61003 -26.98803,0.68417 -34.322136,-1.89356 -3.15082,-1.10743 -8.75069,-4.03175 -12.44416,-6.49851 l -6.71539,-4.48501 -2.0176,6.16827 c -1.10968,3.39255 -4.35755,10.02473 -7.21749,14.73818 -6.14189,10.1224 -8.68458,15.80476 -10.84138,24.22822 -0.87338,3.41103 -3.36697,10.38804 -5.54131,15.50447 -5.34719,12.58245 -6.74029,18.43143 -8.02598,33.6974 -1.17468,13.94786 -1.1926,14.82156 -0.49416,24.08982 0.52917,7.0221 2.12907,11.28655 7.70399,20.53462 5.66166,9.39194 7.6097,19.35118 6.06147,30.989 -1.47843,11.11323 -0.65981,15.30235 6.49002,33.21109 6.75507,16.91999 13.36413,36.0859 13.36413,38.75528 0,1.0561 -0.50107,1.92019 -1.1135,1.92019 -1.43789,0 -1.09939,1.67809 4.74035,23.5 l 4.81695,18 -0.38436,24.5 c -0.62909,40.0998 -0.58609,48.05543 0.31077,57.5 0.81002,8.53003 0.71581,9.31331 -1.80406,15 -1.46229,3.3 -4.00909,7.6875 -5.65955,9.75 l -3.00085,3.75 12.3979,0 c 17.861856,0 21.797276,1.78239 26.495366,12 4.26951,9.28554 3.74363,14.30083 -2.98836,28.5 -3.12914,6.6 -6.16242,13.83242 -6.74063,16.07204 -0.57883,2.24205 -0.94314,11.23017 -0.81066,20 l 0.24063,15.92796 -3.34909,7 c -1.957976,4.09241 -3.689716,9.64997 -4.169146,13.37977 -0.72907,5.67191 -1.30058,6.87355 -5.15091,10.8302 -2.38197,2.44774 -5.546,5.08935 -7.03119,5.87024 -3.3351,1.75354 -10.01094,1.65106 -15.24203,-0.23399 z m 13.24203,-3.7609 c 1.48519,-0.77808 4.1599,-2.93397 5.94381,-4.79088 2.76548,-2.87863 3.33048,-4.32809 3.8338,-9.83531 0.32468,-3.55252 1.43503,-8.52668 2.46746,-11.05369 3.22994,-7.90577 4.10652,-13.83533 4.864476,-32.90544 l 0.73531,-18.5 6.21281,-12.30459 c 5.40808,-10.7108 6.12768,-12.78324 5.55551,-16 -1.03383,-5.81228 -4.28957,-10.75389 -8.78073,-13.32752 -3.904066,-2.23721 -4.959936,-2.35493 -19.132106,-2.13299 -9.9802,0.15629 -17.00792,0.7751 -21,1.84912 -10.75586,2.89373 -21.90524,-0.65291 -29.51935,-9.39017 -2.24976,-2.58162 -6.49982,-6.49385 -9.44458,-8.69385 -2.94477,-2.2 -10.08824,-7.6 -15.87439,-12 -13.44274,-10.22234 -20.42666,-14.425 -28.60386,-17.21272 -9.74452,-3.32203 -24.05782,-2.88606 -24.05782,0.73278 0,0.9671 -0.87097,2.82072 -1.93549,4.11916 -1.81709,2.21637 -2.04034,2.25768 -3.64968,0.67539 -1.61044,-1.58339 -1.61429,-2.18863 -0.0637,-10 0.90775,-4.57304 1.6596,-11.23961 1.67077,-14.81461 0.0137,-4.3736 0.8419,-8.78997 2.53175,-13.5 4.64552,-12.94821 11.2876,-38.32152 11.40962,-43.58568 0.0237,-1.02179 -3.6083,-3.43305 -10.21324,-6.78054 -12.70487,-6.43902 -18.58489,-7.33918 -45.25,-6.92728 l -19,0.2935 -0.66793,10 c -1.61494,24.17807 -1.30774,28.57685 3.5269,50.50203 5.60896,25.43671 7.35587,35.01575 8.47971,46.49797 0.4956,5.06339 1.70768,10.71119 2.77111,12.91218 3.05247,6.31771 5.58678,7.55626 17.43324,8.5198 11.7138,0.95276 13.33382,1.50888 24.00579,8.24073 13.82575,8.72124 20.24684,10.55678 46.45118,13.27861 22.78687,2.36687 35.93823,6.12951 47.61592,13.62307 4.67577,3.00043 4.72429,3.0889 8.89574,16.22125 2.40969,7.58604 6.74669,18.12386 10.19298,24.76634 6.92743,13.35214 7.73688,17.50329 5.40888,27.73873 -2.18413,9.60287 -2.10153,16.37506 0.23492,19.26045 l 1.84844,2.28272 0.69675,-2.7761 c 0.97995,-3.90453 3.56383,-7.56778 5.33793,-7.56778 1.64873,0 1.41603,2.17858 -0.81924,7.66983 -1.05801,2.59917 -1.05421,3.45431 0.0211,4.75 1.62788,1.96148 6.28877,2.03966 9.86619,0.16549 z m -16.2478,-13.5014 c -0.90978,-1.47206 1.26154,-6.08392 2.86437,-6.08392 2.22612,0 2.7361,1.57156 1.43596,4.42506 -1.17561,2.58019 -3.23899,3.37614 -4.30033,1.65886 z m 23.82799,-79.23317 c 0.99616,-4.98082 -3.02841,-9.54745 -9.13454,-10.36483 -6.98073,-0.93446 -8.04688,-1.36735 -6.21728,-2.5244 4.41777,-2.79385 16.08873,0.4298 18.51039,5.11277 2.60875,5.04477 1.6558,10.92571 -1.77041,10.92571 -1.73015,0 -1.92817,-0.44922 -1.38816,-3.14925 z m -113.12369,-34.82555 c -3.83417,-0.91023 -6.25616,-2.72165 -6.25616,-4.67903 0,-2.27624 2.81084,-2.70013 5.63486,-0.84977 3.24163,2.12401 12.00663,2.98917 20.77268,2.0504 6.39397,-0.68473 6.687,-0.83729 8.099,-4.21669 1.6001,-3.82958 3.79414,-4.03444 4.32584,-0.40392 0.43882,2.99638 -3.22909,6.81162 -7.75812,8.06975 -4.12349,1.14548 -20.03718,1.16424 -24.8181,0.0293 z m -44.73411,-5.31818 c -1.83584,-4.39378 -3.03532,-15.27177 -1.77018,-16.05367 2.00187,-1.23722 4.49491,3.24088 4.76707,8.56281 0.14861,2.90611 0.59511,6.52134 0.99221,8.03384 1.08024,4.11445 -2.23145,3.66367 -3.9891,-0.54298 z m 3.99221,-30.68395 c -0.33208,-0.53731 -0.0946,-2.86781 0.5277,-5.1789 1.44476,-5.36544 0.63677,-10.69517 -3.62922,-23.93924 -3.54827,-11.01583 -4.13393,-15.68886 -2.37756,-18.97067 1.96966,-3.68034 3.25705,-2.19487 2.57218,2.96795 -0.57287,4.3185 -0.23307,5.73358 2.85372,11.88421 5.85011,11.65674 8.1628,24.81226 5.56367,31.64848 -0.97942,2.57606 -4.30719,3.53515 -5.51049,1.58817 z m 107.48574,122.97693 c 2.65419,-2.65419 7.46116,-2.60739 9.35122,0.0911 0.82333,1.17546 2.27121,1.93797 3.30671,1.74144 3.54243,-0.67231 2.68017,-5.19211 -3.24036,-16.9854 -5.6473,-11.24907 -10.41757,-23.58528 -10.41757,-26.94049 0,-1.16836 -2.85064,-3.25951 -8.64591,-6.34242 -4.75526,-2.52965 -9.62195,-4.84434 -10.81489,-5.14375 -2.03108,-0.50977 -2.17541,-0.17489 -2.27032,5.26757 -0.0558,3.19657 -0.41095,9.50795 -0.78934,14.02528 -0.61648,7.35975 -0.46447,8.57499 1.46265,11.69312 1.18284,1.91389 2.59924,6.26544 3.14754,9.67012 1.23223,7.6514 3.11989,11.43023 6.67284,13.35804 4.0093,2.17542 9.83427,1.96855 12.23743,-0.43461 z m -1.60184,-9.4048 c -1.01373,-2.64174 0.0377,-8.0952 1.56084,-8.0952 1.55408,0 3.23007,5.84371 2.34071,8.16135 -0.6758,1.76112 -3.2169,1.71804 -3.90155,-0.0661 z m 19.73671,-73.71754 c 4.17492,-0.89536 6.15673,-2.07152 9.79922,-5.81563 2.51125,-2.5813 5.87193,-7.28064 7.46818,-10.44297 l 2.90228,-5.74969 -1.15228,-9.37627 c -1.44702,-11.77468 -1.45836,-23.14831 -0.0459,-45.9931 1.37148,-22.18132 0.6703,-28.9665 -5.80502,-56.17435 -5.72519,-24.05613 -5.12649,-23.32565 -19.11767,-23.32565 -21.72182,0 -35.32173,5.54196 -55.15534,22.4758 l -7.90723,6.75116 0.5337,5.13652 c 1.04315,10.03955 3.626,18.2686 8.83118,28.13652 9.16715,17.37896 14.70843,31.26005 15.76826,39.5 1.51014,11.741 2.67538,17.1773 4.60841,21.5 l 1.78872,4 -0.0757,-4.72073 c -0.0416,-2.5964 0.34399,-4.76346 0.85693,-4.81569 0.51294,-0.0522 2.03219,2.96204 3.3761,6.69837 3.29794,9.16888 4.77219,11.1688 8.78856,11.92228 3.72348,0.69853 4.18621,1.52064 1.91626,3.40453 -1.19697,0.9934 -2.24388,0.8589 -5.37572,-0.69061 l -3.88928,-1.92426 2.81976,4.56306 c 1.55087,2.50968 5.01598,6.71835 7.70023,9.3526 6.72483,6.59954 11.19669,7.7691 21.36634,5.58811 z m -15.8037,-23.45704 c -0.40029,-1.04313 1.09775,-3.33495 4.41211,-6.75 6.87031,-7.07902 10.84041,-12.90116 12.7807,-18.74282 1.6794,-5.05619 3.06585,-6.16027 4.15887,-3.31189 0.72197,1.88141 -2.97434,9.85323 -9.32991,20.12176 -5.79397,9.36118 -10.46648,12.73599 -12.02177,8.68295 z m -22.43561,-20.61576 c -1.55149,-2.89899 -0.57695,-20.38662 1.60544,-28.80874 0.89605,-3.45794 3.23512,-10.15919 5.19795,-14.89165 2.86193,-6.90025 3.66876,-10.33751 4.07362,-17.35447 0.27766,-4.8125 0.91539,-8.75 1.41716,-8.75 0.50178,0 1.61702,1.68657 2.47831,3.74792 2.24789,5.37996 1.26929,14.1526 -2.50667,22.4711 -1.67746,3.69546 -4.425,10.72387 -6.10565,15.61869 -2.65793,7.74112 -3.05572,10.28363 -3.05572,19.53098 0,10.61416 -0.78995,12.76082 -3.10444,8.43617 z m -0.5464,21.07667 c -2.32579,-4.28847 -2.90855,-4.84666 -3.17249,-3.0387 -0.28249,1.93508 4.64729,9.38223 5.67249,8.56911 0.19203,-0.1523 -0.93297,-2.64099 -2.5,-5.53041 z m -7.38548,-14.62666 c -0.51462,-1.51518 -1.76752,-7.92987 -2.78422,-14.25487 -1.74013,-10.82548 -2.35708,-12.52882 -10.51848,-29.04055 -6.19757,-12.53862 -9.38223,-20.34856 -11.16781,-27.38752 -1.76088,-6.94161 -3.20203,-10.49954 -4.88442,-12.05872 -1.42013,-1.31614 -3.54511,-5.77769 -5.24764,-11.01783 l -2.86111,-8.80605 -0.67588,4.40533 c -0.37173,2.42294 -0.70923,6.73104 -0.75,9.57355 -0.0952,6.63747 -0.78986,8.3278 -3.43111,8.34895 -1.9207,0.0154 -2.4871,1.42973 -5.45996,13.63403 -1.82433,7.48927 -5.11523,19.06905 -7.31313,25.73284 -2.72873,8.27323 -4.17847,14.68478 -4.57095,20.21532 l -0.57477,8.09935 10.43777,0.53271 c 8.02423,0.40954 12.46565,1.2317 19.20763,3.55556 9.06214,3.12358 23.06398,10.91675 26.84493,14.94139 l 2.15621,2.29518 1.26431,-3.0069 c 0.87046,-2.07021 0.97283,-3.86508 0.32863,-5.76177 z m -43.04848,-102.93307 c 0.79931,-11.2163 0.72622,-15.53638 -0.34988,-20.67961 -0.74815,-3.57577 -1.6367,-6.94867 -1.97456,-7.49534 -0.33786,-0.54666 -2.83058,-1.73006 -5.53938,-2.62978 -9.91657,-3.29376 -25.88891,-16.07954 -23.30939,-18.65906 0.85997,-0.85997 2.37617,-0.038 6.0911,3.30201 2.72037,2.44585 6.9083,5.06697 9.30652,5.82471 11.41747,3.60747 20.79046,10.14915 19.47047,13.589 -0.35571,0.92697 1.60456,8.52901 4.38792,17.01657 2.76697,8.4376 5.3131,17.40025 5.65806,19.917 l 0.62719,4.57591 1.73733,-3.88044 c 1.26177,-2.81826 4.30245,-5.80183 11.10837,-10.89975 24.44317,-18.30895 27.15803,-19.34296 52.70644,-20.07433 14.52004,-0.41566 16.27813,-0.64883 15.82012,-2.09816 -0.2834,-0.89679 -2.12837,-6.92499 -4.09993,-13.396 -1.97157,-6.47101 -5.49062,-16.37101 -7.82012,-22 l -4.23546,-10.23453 -0.0963,-16.02503 c -0.12731,-21.18819 -1.78987,-28.28944 -8.38059,-35.79585 -1.79283,-2.04193 -3.68512,-6.04555 -4.85098,-10.2635 -1.53488,-5.55303 -2.28199,-6.88728 -3.79183,-6.7718 -1.03417,0.0791 -7.95531,1.54605 -15.38031,3.25989 -30.65523,7.07582 -94.47658,6.01575 -109.84478,-1.82452 -2.21074,-1.12784 -4.30615,-2.51438 -4.65647,-3.08121 -1.24914,-2.02115 -2.49875,0.18899 -2.49875,4.41946 0,4.07997 0.26928,4.47819 5.27609,7.80253 2.90185,1.92671 6.27685,3.82075 7.5,4.20896 1.22315,0.38822 2.22391,1.35052 2.22391,2.13846 0,2.28846 -5.97086,1.71104 -10.78848,-1.04332 l -4.28849,-2.45183 -0.87315,2.21388 c -0.48023,1.21763 -2.03791,4.81421 -3.46151,7.99239 -1.64374,3.66964 -2.58837,7.56302 -2.58837,10.66822 0,8.50253 0.66471,8.81315 6.11975,2.85981 2.67431,-2.9186 5.12173,-6.09404 5.4387,-7.05654 0.63097,-1.91592 2.16819,-2.20897 4.34812,-0.8289 1.10521,0.69968 -0.0732,2.73713 -5.5,9.50933 -3.79861,4.74038 -8.36907,10.68363 -10.15657,13.20723 l -3.25,4.58837 0,24.73907 c 0,22.74463 -0.19444,25.53704 -2.41184,34.63699 -2.58738,10.61825 -4.00413,23.02279 -2.72013,23.81635 0.43256,0.26733 7.26381,0.0777 15.18057,-0.4215 23.6232,-1.48947 39.31032,0.86779 59.4514,8.93362 4.95,1.98231 9.09108,3.37137 9.2024,3.08682 0.11133,-0.28456 0.65708,-6.89757 1.2128,-14.69558 z m 82.41252,-42.0718 c -6.89266,-12.81686 -8.4722,-17.25888 -11.28998,-31.75 -3.02084,-15.53535 -3.49111,-16.33083 -13.84823,-23.42455 -9.01497,-6.17447 -12.84779,-10.60481 -18.12698,-20.95288 -2.15898,-4.23196 -2.49194,-9.80887 -0.56253,-9.42213 0.55,0.11025 1.27352,1.5378 1.60782,3.17233 1.10132,5.38488 12.58813,18.74843 19.12674,22.25172 1.5752,0.84397 1.66748,0.49048 1.00448,-3.84757 -1.04518,-6.83863 -0.90837,-14.53948 0.26539,-14.93846 0.91857,-0.31223 6.56843,19.27097 6.5175,22.59054 -0.0121,0.78594 1.47478,2.81094 3.30409,4.5 3.18193,2.93796 3.3972,3.60766 4.96894,15.45856 1.58547,11.95447 4.57938,20.88296 15.37861,45.86244 0.3006,0.6953 -0.14856,1.25 -1.01215,1.25 -0.94862,0 -3.80144,-4.18177 -7.3337,-10.75 z m -71.32772,3.82673 c 0,-4.07748 4.16433,-8.6261 11.10496,-12.12971 5.66052,-2.85742 12.20681,-3.86962 13.32501,-2.06033 0.84243,1.36308 -1.31893,2.72415 -9.45715,5.95546 -6.07841,2.41345 -7.9983,3.73129 -10.28892,7.06248 -3.32723,4.8387 -4.6839,5.17819 -4.6839,1.1721 z m -47.75,-40.68295 c -1.28058,-0.57416 -1.78646,-4.39378 -0.58191,-4.39378 0.36744,0 3.50301,0.49368 6.96792,1.09707 5.15281,0.89732 7.79773,0.79356 14.52673,-0.56991 13.24209,-2.68319 39.83726,-13.0862 39.83726,-15.5828 0,-0.40578 -3.88661,-1.28949 -8.6369,-1.96379 -7.44327,-1.05658 -13.39123,-0.99616 -25.3631,0.25761 -1.92061,0.20114 -2.5,-0.2017 -2.5,-1.73818 0,-1.74943 0.93962,-2.10259 7.5,-2.81887 8.78413,-0.95908 27.86594,-0.18689 33.25,1.34554 10.61055,3.02001 -1.10106,12.29802 -26.15391,20.71928 -9.70209,3.26126 -11.7351,3.58904 -24.09609,3.88502 -7.425,0.17779 -14.0625,0.0711 -14.75,-0.23719 z m 13.8728,-33.39586 c -4.46488,-1.05415 -8.5456,-4.17926 -8.94235,-6.84825 -0.17575,-1.18232 -0.17575,-2.14759 0,-2.14504 0.17575,0.003 3.01955,1.11687 6.31955,2.47627 4.74942,1.95647 7.77958,2.47658 14.53801,2.49536 8.33019,0.0232 26.43431,-1.89449 36.46199,-3.86217 4.02552,-0.78991 5.29234,-0.69469 6.5,0.48855 1.33333,1.30639 1.33333,1.57383 0,2.40701 -2.36848,1.48002 -10.30274,2.81129 -26.59001,4.46147 -16.28688,1.65014 -22.99976,1.77516 -28.28719,0.5268 z m 62.8772,-24.44482 c 4.125,-0.93198 11.07081,-2.90106 15.43514,-4.37572 l 7.93514,-2.6812 1.31598,-4.99809 c 0.7238,-2.74895 1.74091,-11.42846 2.26026,-19.28781 0.89641,-13.56544 1.14531,-14.73121 4.91065,-23 2.18151,-4.79065 4.66382,-11.18528 5.51624,-14.21028 6.27686,-22.27476 7.23891,-24.74202 13.99957,-35.90336 4.68939,-7.74182 7.05767,-12.73776 7.37569,-15.55919 0.46266,-4.10471 0.41953,-4.17048 -3.50614,-5.34664 -2.18601,-0.65495 -4.9083,-1.19081 -6.04953,-1.19081 -2.86127,0 -3.75385,-1.86772 -1.81781,-3.80376 1.39982,-1.39983 2.35646,-1.45564 7.2731,-0.42437 5.52152,1.15815 9.4081,3.24093 22.40998,12.00927 9.73352,6.56419 14.680816,7.62905 31.706686,6.82458 7.85799,-0.37129 15.45097,-1.11752 16.87328,-1.65828 l 2.58602,-0.9832 -2.61213,-2.0547 c -1.43667,-1.13009 -2.61213,-2.48616 -2.61213,-3.0135 0,-2.46731 3.59532,-1.77183 9.75784,1.88756 11.03153,6.55069 15.12458,7.46855 28.66921,6.42906 10.08633,-0.77407 11.92549,-1.19523 14.08694,-3.2258 1.6121903,-1.51458 2.4860103,-3.42623 2.4860103,-5.43867 0,-5.0231 7.26427,-14.40368 9.63225997,-12.43843 0.99438003,0.82527 2.21820003,-0.3581 5.29755003,-5.12246 5.2338897,-8.09784 7.7117097,-14.88701 10.7200397,-29.3727 2.3583,-11.35563 2.45454,-13.22109 2.15923,-41.85169 l -0.30908,-29.9663 3.21468,-2.69164 c 2.94675,-2.46732 4.935,-5.96812 6.73292,-11.85497 0.64678,-2.11772 0.40309,-2.25 -4.14502,-2.25 -2.7245,0 -6.35236,-0.79252 -8.31739,-1.81696 -2.41495,-1.259 -4.9285,-1.68992 -8.1852897,-1.40327 l -4.7001,0.41368 1.9501,3.63847 c 2.07258,3.86699 2.48048,7.78236 1.04659,10.04619 -1.33996,2.11554 -3.34486,0.24762 -2.66058,-2.47878 0.89053,-3.54817 -1.6446,-8.55839 -6.01855,-11.89456 -3.01645,-2.30077 -5.01379,-2.99213 -8.9904403,-3.112 -5.55641,-0.16748 -10.20456,-2.01513 -8.74395,-3.475743 0.53025,-0.53025 2.27909,-0.5015 4.27259,0.0702 7.6473703,2.19324 17.2363603,-2.656502 15.57876027,-7.879122 -0.49044,-1.54524 -2.17764997,-1.91993 -11.30539027,-2.5107 -10.21469,-0.66111 -10.81281,-0.5909 -12.47893,1.46486 -1.24544,1.5367 -1.80756,4.21766 -1.94964,9.298492 -0.40659,14.53964 -0.14608,15.05094 10.19937,20.01835 6.0644403,2.91186 6.5461203,3.38875 7.1923703,7.12087 1.13377,6.54752 0.86656,16.55943 -0.63045,23.622 -2.1527103,10.15599 -6.3547603,17.33254 -16.6222803,28.38863 -11.0044,11.84958 -13.20265,16.14565 -13.11343,25.62774 0.0353,3.74636 -0.38088,7.08657 -0.92473,7.42269 -1.38485,0.85588 -3.90121,-1.45057 -3.90121,-3.57579 0,-2.69664 -11.17052,-12.45245 -18.22719,-15.91877 -9.1775,-4.5081 -18.99209,-6.2414 -33.77281,-5.96441 -11.036306,0.20681 -12.538216,0.037 -12.826426,-1.45006 -0.21422,-1.10531 0.76018,-2.14119 2.83452,-3.01339 l 3.16096,-1.32908 -5.14735,-5.90478 c -8.79004,-10.0835 -17.06496,-15.74844 -24.81419,-16.98759 -5.72374,-0.91526 -20.17873,1.252 -30.51041,4.57449 -4.89937,1.57555 -9.53551,2.62382 -10.30252,2.32949 -1.67877,-0.6442 -1.80791,-2.50784 -0.27968,-4.03607 1.89198,-1.89198 -4.50769,-4.34548 -13.84836,-5.30919 -10.67039,-1.10089 -12.69245,-2.783 -17.88525,-14.87829 -4.96438,-11.56323 -5.10549,-17.38079 -0.61462,-25.33817 1.77833,-3.15103 3.23333,-5.96097 3.23333,-6.2443 0,-0.28333 -16.875,-0.51515 -37.5,-0.51515 -20.625,0 -37.5,0.20757 -37.5,0.46128 0,0.2537 0.84803,4.1912 1.8845,8.75 1.03648,4.55879 2.1873,10.72906 2.55739,13.71169 0.86463,6.96828 1.80603,8.6192 5.68622,9.97185 8.96456,3.12506 17.23805,0.63917 34.40951,-10.3388 9.96381,-6.37003 11.46238,-7.85135 11.46238,-11.33048 0,-1.48023 0.47653,-2.22556 1.25,-1.95508 2.16027,0.75545 1.26321,7.55314 -1.36806,10.36683 -5.65406,6.04605 -28.79408,19.36023 -33.65099,19.36192 -1.96989,6.9e-4 -2.18131,0.36336 -1.60358,2.75079 0.36602,1.5125 1.04959,3.79179 1.51906,5.0651 1.17772,3.19427 1.07056,7.1849 -0.19294,7.1849 -0.57558,0 -1.81308,-1.34715 -2.75,-2.99368 -0.93692,-1.64652 -2.37849,-2.99616 -3.20349,-2.99921 -2.12177,-0.008 -13.15632,5.33661 -19.30759,9.35138 -4.91694,3.20915 -5.80252,3.42211 -16.69241,4.01409 -19.6517,1.06829 -21.67092,2.01416 -30.82679,14.44047 l -4.65154,6.31305 -0.12359,8.68695 c -0.13406,9.42174 -2.60206,20.06881 -6.90992,29.80963 -2.99708,6.77695 -5.1002,9.37732 -7.58413,9.37732 -3.13077,0 -2.89819,-1.50828 1.10212,-7.14723 6.91388,-9.74599 10.41674,-28.2273 7.45874,-39.35277 -4.80973,-18.09006 -4.84682,-18.39597 -3.63535,-29.98248 0.98891,-9.45798 1.71174,-12.1652 5.17548,-19.38384 3.76881,-7.85441 3.91324,-8.47381 2.26051,-9.69476 -2.40234,-1.77472 -0.73492,-3.33185 4.86361,-4.54193 8.03647,-1.73703 9.70366,-2.854 12.33034,-8.26094 3.30171,-6.79648 6.03396,-17.53391 5.25322,-20.64457 l -0.62532,-2.491492 -12.79369,0.10834 c -7.03653,0.0596 -13.35619,0.17208 -14.04369,0.25 -2.27625,0.25796 -1.34451,5.149582 1.47938,7.766672 2.38047,2.20614 3.43514,2.47996 8.25,2.14189 3.03634,-0.2132 6.30812,-0.74611 7.27062,-1.18425 2.69248,-1.22565 2.2269,2.08979 -0.5,3.56049 -1.2375,0.66742 -4.52075,1.28454 -7.2961,1.37138 -7.95182,0.24882 -10.90209,3.08841 -12.53769,12.06741 -1.29847,7.12819 -2.41786,8.60595 -3.95817,5.22533 -1.08805,-2.38801 -0.61471,-5.78551 1.5405,-11.05725 0.61002,-1.49215 0.13313,-1.75 -3.23656,-1.75 -2.66047,0 -4.534,-0.64309 -5.73286,-1.96782 -1.42228,-1.57161 -2.1828,-1.75271 -3.77716,-0.89944 -2.69652,1.44314 -7.62375,0.32652 -10.58208,-2.39813 l -2.42628,-2.23461 0.72499,4.98682 c 0.79516,5.46956 2.44766,9.25099 6.27687,14.3635 4.723,6.30583 3.03009,11.27488 -16.74486,49.14968 -12.42967,23.80646 -16.18778,39.51121 -14.00005,58.50477 0.70928,6.15783 1.04553,14.52586 0.74724,18.59564 l -0.54236,7.39959 4.53612,4.25 c 3.7321,3.49669 5.22675,4.25 8.43247,4.25 2.14299,0 4.98707,-0.71467 6.32017,-1.58815 1.63999,-1.07456 6.39861,-1.86745 14.71482,-2.45182 17.0531,-1.1983 24.63101,-3.66305 34.60289,-11.25475 7.26841,-5.53352 8.2679,-7.90647 9.14984,-21.72311 0.76095,-11.92132 1.37958,-14.50729 3.20119,-13.38148 0.6795,0.41996 0.78686,6.23692 0.31866,17.26632 l -0.70606,16.63299 5.35202,10 5.35201,10 0.0345,15.5 c 0.0379,17.00673 0.43083,18.77359 7.33954,33 l 3.64219,7.5 0.002,15 0.002,15 4.5257,2.24799 c 4.02415,1.99886 15.2195,4.05811 30.4743,5.60537 2.2,0.22314 17.5,0.29063 34,0.14999 23.87077,-0.20348 31.53231,-0.60193 37.5,-1.95025 z m -23.29876,-3.1852 c -2.38218,-2.38218 1.62846,-13.3679 4.88032,-13.3679 1.83128,0 1.79264,1.37571 -0.14385,5.12045 -0.85926,1.66163 -1.42176,4.21843 -1.25,5.68179 0.30585,2.60575 -1.85572,4.19642 -3.48647,2.56566 z m -59.66014,-2.75981 c -0.57261,-1.50606 -1.0411,-3.46749 -1.0411,-4.35874 0,-0.89125 -0.97677,-2.66018 -2.17061,-3.93096 -1.19384,-1.27078 -1.84725,-2.63386 -1.45204,-3.02908 1.28341,-1.2834 4.05887,1.31741 6.52981,6.11892 2.22841,4.33022 2.29046,4.82272 0.79593,6.31725 -1.49453,1.49453 -1.70206,1.40742 -2.66199,-1.11739 z m 24.46605,-3.59653 c -0.37363,-0.60454 -0.13549,-1.75446 0.5292,-2.55536 0.94594,-1.13978 0.94017,-1.77957 -0.0265,-2.94437 -1.83999,-2.21705 1.63827,-3.29231 3.76629,-1.16429 1.26141,1.26141 1.40601,2.23243 0.65179,4.37703 -1.01593,2.88879 -3.76048,4.16436 -4.92075,2.28699 z m 25.24258,-10.8606 c -0.38355,-1.46671 -1.78069,-1.96667 -6.75673,-2.41788 -6.84817,-0.62097 -9.39739,-2.31017 -10.53836,-6.98308 -0.88556,-3.62687 0.71005,-3.53143 3.87666,0.23189 2.07406,2.46487 3.51988,3.09473 8.3389,3.63277 6.21433,0.69383 9.3298,2.54389 9.3298,5.54033 0,2.447 -3.61021,2.44358 -4.25027,-0.004 z m -47.74973,-1.33709 c 0,-1.28303 -0.88943,-2.88824 -1.97652,-3.56713 -2.96491,-1.85162 -5.67468,-7.9505 -6.82256,-15.35555 -0.62673,-4.04304 -2.25084,-8.78185 -4.18335,-12.20606 -3.44971,-6.11255 -3.77127,-10.93027 -0.76757,-11.4999 1.39949,-0.26541 1.75,0.37686 1.75,3.20665 0,2.54178 0.88565,4.54722 3.14412,7.11948 2.7643,3.14837 3.2369,4.57198 3.91225,11.7848 0.94807,10.12562 1.27352,10.95534 5.58779,14.246 2.67044,2.03684 3.39959,3.25717 3.16313,5.29388 -0.40265,3.46824 -3.80729,4.34266 -3.80729,0.97783 z m 61.2864,0.4901 c -0.35083,-0.91427 0.6119,-5.29418 2.13941,-9.73314 2.64333,-7.68154 2.70568,-8.27582 1.2927,-12.32083 -0.81652,-2.3375 -1.28263,-4.25 -1.0358,-4.25 2.05552,0 4.24584,2.67317 5.3128,6.48397 1.21704,4.34684 1.12493,4.89707 -1.92888,11.5224 -1.76382,3.82666 -2.95296,7.36853 -2.64253,7.87082 0.31043,0.50228 -0.12504,1.17781 -0.9677,1.50117 -0.90866,0.34868 -1.79168,-0.0885 -2.17,-1.07439 z m -53.25005,-3.76017 c -1.68195,-2.02663 -0.36918,-3.66544 2.38291,-2.97471 1.26318,0.31704 4.01527,-0.14164 6.11577,-1.01928 2.37143,-0.99084 4.1738,-1.24098 4.75489,-0.65989 1.3686,1.3686 -0.0756,3.12259 -3.87988,4.71211 -4.30867,1.80028 -7.84952,1.77829 -9.37369,-0.0582 z m 17.36764,-5.93341 c -0.34083,-0.88817 -0.37261,-2.62636 -0.0706,-3.86263 0.30198,-1.23627 -0.081,-3.09602 -0.85113,-4.13279 -2.30684,-3.10565 -2.84566,-9.80936 -1.12035,-13.93863 2.16704,-5.18646 3.42974,-4.56296 2.8558,1.41014 -0.38708,4.02844 -0.0238,5.91365 1.74624,9.0631 1.64337,2.92397 2.06931,4.85982 1.60908,7.31304 -0.77253,4.11794 -3.23885,6.5717 -4.169,4.14777 z m 52.25808,-15.06852 c -5.70771,-3.94983 -7.0115,-5.63842 -8.69686,-11.26364 -1.12264,-3.74705 -1.01371,-4.9337 1.00015,-10.89572 2.24229,-6.63824 2.27713,-8.21377 0.40657,-18.38251 l -0.64383,-3.5 2.14458,1.9128 c 3.56229,3.17728 4.55332,8.35759 3.26106,17.04613 -0.62355,4.19252 -1.13374,9.84056 -1.13374,12.55119 0,4.88072 0.0532,4.96248 5.5,8.44673 3.67912,2.3535 5.5,4.18456 5.5,5.53073 0,2.78679 -1.70804,2.45027 -7.33793,-1.44571 z m -82.66207,-6.93109 c 0,-3.147 3.53578,-5.62889 9.5,-6.66837 5.1898,-0.90451 6.50235,-1.61264 9.72016,-5.24406 l 3.72016,-4.19835 0.0298,3.19424 c 0.0487,5.21236 -3.38241,8.1671 -10.97016,9.4471 -3.64673,0.61517 -7.40622,1.92223 -8.56445,2.97758 -2.45579,2.23769 -3.43551,2.37796 -3.43551,0.49186 z m 57,-1.65482 c -0.87792,-0.59313 -4.1957,-0.7627 -8,-0.40889 -5.8746,0.54637 -6.86508,0.3567 -10.29441,-1.97127 -2.08692,-1.41669 -4.5743,-2.5758 -5.52749,-2.5758 -5.65034,0 -10.12328,-8.09156 -10.15614,-18.37244 -0.0187,-5.86252 0.18918,-6.69722 1.41483,-5.68002 0.79023,0.65583 1.72709,3.74843 2.08191,6.87244 1.06617,9.38712 2.59578,12.18002 6.67071,12.18002 1.12561,0 3.64451,1.40302 5.59756,3.11782 3.30891,2.90526 3.9157,3.07496 8.90048,2.48909 4.26942,-0.50178 6.15334,-0.21862 9.33101,1.40251 2.18985,1.11717 3.98154,2.47208 3.98154,3.0109 0,1.26472 -2.08237,1.23121 -4,-0.0644 z m 33.51815,0.0734 c -0.77606,-1.2557 1.68648,-5.99959 4.37947,-8.43672 1.32397,-1.19817 2.10238,-3.11928 2.10238,-5.18862 0,-3.63292 1.71494,-5.4261 3.13894,-3.28215 1.46586,2.207 0.0783,6.9763 -3.67391,12.62812 -3.45146,5.19879 -4.7854,6.15869 -5.94688,4.27937 z m -100.50338,-15.26307 c -1.59984,-3.61671 -1.76716,-5.07918 -0.92857,-8.1163 1.13908,-4.12541 6.35715,-10.64999 8.51739,-10.64999 1.9828,0 1.78653,0.62981 -1.71618,5.50726 -2.60045,3.62105 -3.02037,4.96428 -2.55208,8.16347 1.14591,7.82843 1.1368,8.63654 -0.10221,9.06702 -0.74742,0.25969 -2.06705,-1.36874 -3.21835,-3.97146 z m 74.21999,-5.21998 c -3.2502,-6.6899 -5.88284,-7.96456 -16.63921,-8.05631 -5.00255,-0.0427 -10.31465,-0.60224 -11.80467,-1.24349 -4.68352,-2.01564 -8.96603,-13.42819 -7.39209,-19.6993 0.93743,-3.735 2.60121,-3.10504 2.60121,0.98491 0,4.41517 1.8902,9.01116 5.43499,13.21507 l 2.73807,3.2472 10.34587,-0.2472 10.34586,-0.24719 3.54877,3.42791 c 3.69324,3.56746 6.17406,9.0984 5.20899,11.61333 -0.94447,2.46124 -2.13017,1.65192 -4.38779,-2.99493 z m 39.51524,-9.62641 c -1.96593,-1.14505 -2.30844,-3.45673 -0.66287,-4.47375 0.59793,-0.36954 1.58793,-0.17109 2.2,0.44098 1.81734,1.81734 4.16407,1.29304 8.60212,-1.92186 4.98164,-3.60868 6.87979,-3.09 4.37663,1.19596 -2.96102,5.06991 -10.0126,7.38159 -14.51588,4.75867 z m -103.23723,-1.89923 c -1.10903,-1.79445 1.46953,-4.92177 4.82118,-5.84721 1.82072,-0.50273 5.71207,-0.68328 8.64743,-0.40123 6.23958,0.59955 7.99818,-0.86697 8.05042,-6.71336 0.0304,-3.40461 0.0985,-3.47218 1.5699,-1.55887 1.08967,1.41692 1.35843,3.16615 0.92185,6 -0.95679,6.21054 -2.37356,7.04444 -11.41219,6.71705 -6.05268,-0.21923 -8.09828,0.0623 -9.08402,1.25 -1.46549,1.76582 -2.65006,1.95241 -3.51457,0.55362 z m 98.15608,-3.68515 c -1.4492,-1.4492 -0.51369,-4.24924 2.82144,-8.44479 3.70998,-4.66709 4.38649,-8.3094 2.11926,-11.41003 -1.20178,-1.64352 -1.75095,-1.7373 -4.04706,-0.69113 -6.85486,3.12329 -7.66064,-0.58797 -0.99096,-4.56419 4.3898,-2.61704 4.5484,-2.87405 3.98981,-6.46519 -0.46184,-2.96914 -0.14686,-4.17467 1.52847,-5.85 2.41992,-2.41992 5.18594,-1.1523 3.06418,1.40427 -0.68061,0.82008 -0.90127,2.69916 -0.53312,4.5399 0.35617,1.78082 0.14999,3.71682 -0.47618,4.4713 -0.82485,0.99388 -0.60328,2.31341 0.87549,5.21393 2.64302,5.18412 2.51889,6.66906 -1.12975,13.5146 -3.28079,6.15541 -6.1068,9.39611 -7.22158,8.28133 z m -120.85957,-3.08552 c -3.52851,-3.78314 -4.80541,-6.54075 -4.83152,-10.43426 -0.0122,-1.82366 -0.90222,-4.44074 -1.97776,-5.81574 -2.17342,-2.77856 -2.71593,-7.40531 -0.79316,-6.76439 0.66377,0.22126 1.93583,1.72126 2.8268,3.33334 1.86108,3.36732 5.28474,5.39506 9.14493,5.41631 2.91064,0.016 5.82143,2.30916 5.82143,4.58617 0,1.88348 -3.4181,1.83465 -5,-0.0714 -0.68469,-0.825 -2.31479,-1.5 -3.62244,-1.5 -3.2984,0 -3.08188,2.72764 0.62244,7.8413 1.65,2.27776 3,4.59528 3,5.15004 0,1.8928 -2.62141,1.01339 -5.19072,-1.74134 z m 94.31323,-4.24718 c -3.80722,-4.73757 -10.25956,-7.00282 -19.94687,-7.00282 -6.39495,0 -6.51127,-0.0499 -11.3185,-4.85714 -4.39669,-4.3967 -4.85714,-5.29169 -4.85714,-9.44099 0,-5.76852 1.54667,-6.93829 2.36958,-1.79213 1.10945,6.93815 9.27794,12.07115 19.2312,12.08468 8.26713,0.0113 13.96888,3.337 17.4891,10.20116 2.6149,5.09886 0.8642,5.57513 -2.96737,0.80724 z m -73.12251,-5.84783 c 0,-2.6457 2.70579,-4.64502 9,-6.65016 8.80625,-2.80538 12.83688,-5.46308 14.70428,-9.69562 1.84046,-4.17151 3.29572,-4.9562 3.29572,-1.77709 0,3.52867 -2.66783,8.59531 -5.63686,10.70531 -1.57473,1.11911 -6.12564,3.00506 -10.11314,4.191 -4.69799,1.39726 -7.25,2.66936 -7.25,3.61392 0,0.80171 -0.9,1.45765 -2,1.45765 -1.27733,0 -2,-0.66667 -2,-1.84501 z m -112.22442,-1.90499 c -2.63637,-3.00681 -4.77558,-8.02398 -4.77558,-11.20034 0,-4.65095 2.58375,-3.7791 5.00205,1.68788 1.1526,2.60565 3.02081,5.72234 4.15156,6.92598 1.13076,1.20363 1.75722,2.67174 1.39214,3.26245 -1.01228,1.6379 -4.05378,1.28159 -5.77017,-0.67597 z m 232.56491,-2 c 0.74074,-4.65984 -0.41526,-7.06976 -2.30121,-4.79733 -1.42284,1.71442 -3.62057,2.03384 -4.47553,0.65048 -0.30485,-0.49326 1.20998,-3.03184 3.36629,-5.64127 3.28361,-3.97363 3.89209,-5.41196 3.74526,-8.85316 -0.12861,-3.01432 0.21332,-4.10872 1.2837,-4.10872 2.29028,0 3.12727,6.25123 1.33908,10.00111 -1.37031,2.87357 -1.35589,3.48642 0.15059,6.39962 1.37029,2.64986 1.46457,3.83213 0.53112,6.6605 -1.62973,4.93815 -4.43561,4.69819 -3.6393,-0.31123 z m -210.91485,-14.72315 c -0.89126,-1.36023 -2.55789,-7.22619 -3.70362,-13.03547 -2.18071,-11.05696 -1.79916,-15.66026 1.34825,-16.2664 1.27212,-0.24499 1.46557,0.7612 1.1517,5.99029 -0.29664,4.94195 0.19261,7.88717 2.2899,13.78473 3.78834,10.65282 4.02721,12 2.12776,12 -0.87644,0 -2.32273,-1.11292 -3.21399,-2.47315 z m 72.07436,-1.86332 c -10.56037,-3.50443 -13.6306,-6.62088 -18.02084,-18.29211 -2.38026,-6.32778 -3.8988,-8.98251 -5.47074,-9.56401 -2.47345,-0.91499 -2.22149,-3.13704 0.41366,-3.64791 2.63344,-0.51055 6.31406,3.53001 8.09224,8.88361 4.04957,12.19212 9.7474,16.80777 23.70264,19.20083 6.95363,1.19241 8.76022,0.94874 22.13391,-2.98548 3.61693,-1.06401 1.25639,3.17438 -2.86426,5.14283 -5.14344,2.45704 -22.08381,3.22108 -27.98661,1.26224 z m 265.592966,-1.56401 c -4.2617,-4.56216 -7.78574,-11.80675 -6.41165,-13.18084 1.6862,-1.6862 3.02251,-0.42088 5.83567,5.52566 1.77362,3.74911 3.40457,5.69474 5.50195,6.5635 3.70681,1.53542 3.94206,3.99216 0.38227,3.99216 -1.5783,0 -3.66273,-1.13895 -5.30824,-2.90048 z m -189.092966,-0.97962 c -7.03112,-0.67055 -9,-1.46506 -9,-3.6318 0,-1.05569 1.15246,-1.29103 4.75,-0.97 15.09787,1.34729 25.45843,1.31816 30.8522,-0.0867 3.12533,-0.81404 5.89897,-1.26352 6.16365,-0.99885 1.2661,1.26611 -1.04876,3.56031 -4.46435,4.42451 -5.25544,1.32971 -20.47821,2.00899 -28.3015,1.26288 z m -24.31709,-7.04912 c -4.08766,-4.52456 -5.66951,-9.28103 -5.67716,-17.07078 -0.007,-7.21876 2.68533,-21.11965 4.42818,-22.8625 2.59312,-2.59312 3.36295,-0.39058 1.9549,5.59316 -0.74667,3.17314 -1.36462,10.82757 -1.37321,17.00984 l -0.0156,11.24051 4.44933,4.18698 c 2.44713,2.30283 4.22057,4.55711 3.94098,5.00949 -1.15983,1.87664 -4.37671,0.57998 -7.7074,-3.1067 z m 58.84934,1.9814 c -0.32219,-0.52131 3.21898,-3.45346 7.86925,-6.51591 4.68098,-3.08266 9.36618,-7.04233 10.49627,-8.87087 2.71013,-4.38507 13.55375,-14.6654 15.46898,-14.6654 5.31278,0 1.41187,5.56926 -12.69469,18.12397 -12.46121,11.09036 -19.2798,14.93777 -21.13981,11.92821 z m 108.843506,-1.13837 c -4.02211,-1.16614 -5.88405,-3.26183 -4.13809,-4.6576 0.85947,-0.68709 4.01423,-0.52176 9.88525,0.51805 8.52603,1.51004 8.67741,1.50081 13.47392,-0.82114 2.66805,-1.29158 6.78873,-4.28605 9.15706,-6.65439 3.29301,-3.29301 4.4425,-3.95049 4.88603,-2.79467 1.31724,3.43267 -7.19472,11.0163 -15.75467,14.03642 -4.55594,1.60743 -12.65721,1.78016 -17.5095,0.37333 z m -22.8796,-8.75572 c -8.959086,-4.23842 -24.073546,-13.83618 -28.660256,-18.19941 -4.25239,-4.0452 -4.59477,-6.24992 -1.05172,-6.77245 1.58138,-0.23322 3.04633,0.96515 5.70676,4.66828 4.33183,6.02959 10.47557,10.11658 22.188256,14.76026 14.65042,5.8084 13.6711,5.25822 12.30011,6.91016 -1.74594,2.10373 -3.68021,1.85154 -10.48315,-1.36684 z m -39.496156,-3.5858 c -5.20298,-1.44396 -10.57272,-4.07192 -11.54946,-5.65231 -0.37195,-0.60183 -0.16023,-1.61029 0.47049,-2.24101 0.86235,-0.86235 2.35297,-0.46872 6.01025,1.58713 4.00783,2.25292 6.09152,2.7339 11.84365,2.7339 4.98465,0 7.33608,-0.42883 8.22507,-1.5 1.77583,-2.13974 4,-1.85355 4,0.5147 0,2.85208 -5.60436,5.99701 -10.5,5.89214 -2.2,-0.0471 -6.025,-0.64767 -8.5,-1.33455 z m -175.375,-19.37004 c -0.77748,-1.25798 0.45252,-2.5383 6.875,-7.15628 7.68046,-5.52252 8.15076,-6.15766 10.56694,-14.27073 2.07071,-6.95306 3.31675,-8.29241 4.43548,-4.7676 1.53518,4.83691 -10.09588,21.66229 -17.68913,25.58891 -3.14767,1.62772 -3.52309,1.68202 -4.18829,0.6057 z m 159.125,-4.22877 c -0.9625,-0.59007 -1.75,-1.72192 -1.75,-2.51521 0,-1.16996 1.74689,-1.39664 9.25,-1.20031 l 9.25,0.24204 8.29113,-4.90887 c 6.18589,-3.66243 8.57939,-4.62061 9.42637,-3.77363 1.7683,1.7683 -1.35499,4.51476 -10.0528,8.83992 -6.48694,3.22577 -8.81715,3.8558 -15.1647,4.10018 -4.13332,0.15913 -8.28556,-0.19285 -9.25,-0.78412 z m -11.14088,-11.50722 c -2.75048,-2.75048 -4.49668,-11.98974 -3.00213,-15.88447 1.13347,-2.95377 2.20329,-1.59736 2.89317,3.66821 0.37832,2.8875 1.55075,6.74705 2.60541,8.57677 2.63871,4.57787 0.93122,7.06716 -2.49645,3.63949 z m -78.94245,-5.13293 c -1.35755,-1.35754 -0.5961,-2.33333 1.82079,-2.33333 1.80871,0 3.16695,-1.07639 4.97767,-3.94476 1.36962,-2.16962 4.4523,-5.09462 6.8504,-6.5 3.71888,-2.17941 5.5691,-2.55524 12.57951,-2.55524 4.52062,0 10.22119,0.50408 12.66792,1.12017 3.11207,0.78363 5.65037,0.81513 8.44861,0.10486 4.41498,-1.12064 5.98169,-0.12677 3.8497,2.44213 -1.1336,1.36591 -3.21414,1.48529 -15.38192,0.8826 -16.74835,-0.82957 -20.06315,0.0664 -25.84731,6.98607 -2.7774,3.32267 -4.44335,4.46417 -6.51514,4.46417 -1.53096,0 -3.08357,-0.3 -3.45023,-0.66667 z m -7.9054,-3.70777 c -1.71407,-3.59444 -2.36182,-3.83462 -13.98135,-5.18417 -5.61145,-0.65174 -8.5495,-2.38717 -7.34391,-4.33786 0.39633,-0.64126 1.65124,-0.62047 3.60234,0.0597 1.64677,0.57407 4.89932,0.83606 7.22789,0.58219 2.44509,-0.26657 5.50119,0.11683 7.23376,0.9075 3.42396,1.56255 7.90863,7.83984 7.10226,9.9412 -0.87284,2.27459 -2.12316,1.63379 -3.84099,-1.96854 z m 16.53262,-12.04914 c 0.30556,-1.88296 2.81473,-6.73869 5.57594,-10.79051 5.77114,-8.46861 7.13017,-11.57391 7.13017,-16.29199 0,-3.68426 1.43059,-5.42016 2.39522,-2.90639 2.12909,5.54832 -1.4081,15.84287 -8.0992,23.57172 -2.21851,2.56258 -4.32626,5.82508 -4.68389,7.25 -0.99187,3.95195 -2.97887,3.23813 -2.31824,-0.83283 z m -128.12429,-8.87207 c -0.77907,-0.93872 -0.54204,-3.34919 0.86041,-8.75 2.35825,-9.08151 2.51053,-13.8097 0.46999,-14.59272 -2.37481,-0.9113 -1.74549,-2.36163 1.02475,-2.36163 3.86811,0 4.90825,3.84354 3.47326,12.83442 -1.04382,6.54001 -3.40648,14.16558 -4.38899,14.16558 -0.20027,0 -0.84801,-0.58304 -1.43942,-1.29565 z M 6.7866663,151.80616 c -1.07981,-4.02929 -0.66275,-13.73755 0.73169,-17.03212 0.7491,-1.76983 2.27942,-4.03469 3.4007297,-5.03302 3.19372,-2.84346 3.73754,-0.27246 1.19008,5.62632 -1.24593,2.88501 -2.4585697,8.18578 -2.7311897,11.93882 -0.4975,6.84867 -1.49683,8.58407 -2.59131,4.5 z m -37.1933103,25.36346 c 10.74345,-11.3681 13.46928,-15.71943 16.02016,-25.57356 1.52518,-5.8918 2.04653,-18.06171 0.94893,-22.15088 -0.31164,-1.16103 -2.4114,-3.1478 -4.66614,-4.41503 -5.714,-3.21145 -11.27748,-8.44332 -12.7444,-11.98479 l -1.23817,-2.9892 -20.71384,0 c -11.39261,0 -48.405786,-0.29818 -82.251506,-0.66262 l -61.53768,-0.66262 -4.12716,8.44776 c -2.26994,4.64627 -4.12717,9.37184 -4.12717,10.50127 0,1.12944 2.20348,6.5594 4.89663,12.0666 l 4.89662,10.01309 5.94446,0.53902 c 3.43887,0.31183 9.79432,2.09772 15.07818,4.23699 9.09151,3.68088 9.15581,3.69087 13.90892,2.1607 6.99939,-2.25331 15.77297,-3.64019 23.02837,-3.64019 12.90441,0 25.7295,7.70305 35.91026,21.56855 l 4.732416,6.44523 7.55207,-0.62975 c 8.53802,-0.71197 17.36956,0.74111 23.55207,3.8751 5.41807,2.74649 17.72225,11.09881 19.49263,13.23199 1.30304,1.57006 1.60581,1.21357 3.30907,-3.89622 1.54222,-4.62667 3.69494,-7.55036 12.13528,-16.48144 z m -290.337886,-6.66367 c 6.64664,-3.36811 15.9662,-5.41733 24.71763,-5.43501 6.16408,-0.0125 7.8182,-0.39358 10.5,-2.4193 1.7508,-1.32249 7.80956,-4.54364 13.46391,-7.15812 5.65434,-2.61448 10.13151,-5.20094 9.94926,-5.7477 -0.18226,-0.54676 -2.48988,-1.54217 -5.12805,-2.21203 -7.15104,-1.81572 -9.34654,-4.58958 -11.08583,-14.00617 -0.8098,-4.3843 -2.22752,-11.68396 -3.15048,-16.22146 l -1.67811,-8.25 -13.18542,0 -13.18542,0 -1.27092,4.25 c -2.94114,9.83533 -9.37556,18.57209 -14.90839,20.24285 -1.69154,0.5108 -3.32214,2.78999 -5.74,8.02313 -6.24069,13.50714 -8.75966,28.63648 -6.40327,38.45901 l 1.26298,5.26471 5.48976,-6.16293 c 3.09472,-3.47419 7.61119,-7.23793 10.35235,-8.62698 z m -19.87131,-61.62201 c -1.48455,-1.48455 -1.88346,-1.09913 -2.76789,2.67427 l -0.70268,2.99795 2.3325,-2.23889 c 1.80815,-1.73557 2.06399,-2.50741 1.13807,-3.43333 z m -5.60856,1.97931 c 1.14722,-1.85624 1.31981,-18.052503 0.21438,-20.118023 -0.54318,-1.01494 -0.69452,-2.59769 -0.33631,-3.51721 0.5703,-1.46395 0.89078,-1.37827 2.577,0.68892 1.05914,1.29843 1.92571,3.1313 1.92571,4.07305 0,1.40195 0.92376,1.69902 5.09738,1.63921 l 5.09738,-0.073 -0.5022,-3.74981 c -0.2827,-2.11092 -0.0404,-4.03519 0.55433,-4.40277 1.64907,-1.01919 3.84838,2.79904 3.53554,6.13807 l -0.28243,3.01451 5,-0.35459 c 2.75,-0.19503 5.3375,-0.55908 5.75,-0.80902 1.55377,-0.94143 0.75199,-9.11237 -1.12116,-11.42561 -2.76188,-3.41077 -8.22184,-3.15393 -12.10836,0.5696 l -3.00647,2.88038 -7.56494,-1.1761 c -6.4495,-1.00268 -8.00264,-0.94976 -10.53337,0.35893 -2.2768,1.17738 -4.65149,1.38237 -10.19206,0.8798 l -7.22364,-0.65524 0.28195,9.86593 c 0.15507,5.426253 0.49943,10.871573 0.76523,12.100693 0.59663,2.75892 4.73896,3.97316 8.59235,2.51866 2.29135,-0.86488 3.17615,-0.71424 4.97665,0.84733 2.44986,2.12475 7.37363,2.53376 8.50304,0.70633 z m -11.96929,-12.032333 c 0.19647,-9.53239 0.11817,-9.21211 1.89217,-7.73982 2.14025,1.77625 1.67906,14.307323 -0.5421,14.729483 -1.23273,0.2343 -1.47329,-1.01111 -1.35007,-6.989663 z m 384.297316,5.277993 c 3.89154,-3.89154 4.97952,-15.004553 1.84082,-18.802753 -0.56813,-0.6875 -2.68521,-1.25 -4.70463,-1.25 l -3.67168,0 -0.004,6.75 c -0.002,4.3508 -0.6086,7.95978 -1.70588,10.153643 -2.1005,4.19967 -2.14128,3.87272 0.54764,4.39063 4.52375,0.87131 5.7884,0.66733 7.69725,-1.24152 z m -56.79376,-3.93249 0.34651,-4.879753 -139.291886,-0.74503 c -76.61054,-0.40977 -139.41288,-0.57639 -139.56075,-0.37026 -0.14788,0.20613 -0.0856,2.73728 0.1384,5.62478 l 0.40727,5.250003 138.80697,0 138.806966,0 0.34652,-4.87974 z m 43.52047,2.39555 c 3.12875,-2.19146 4.74592,-9.962703 3.28255,-15.774243 -1.28041,-5.08498 -2.05172,-5.68603 -6.4565097,-5.0313 l -3,0.44592 0,8.21701 c 0,6.18272 -0.43896,8.88666 -1.77305,10.921903 l -1.77306,2.7049 3.80055,0 c 2.0903,0 4.7540797,-0.66788 5.9195197,-1.48419 z M 3.2225463,96.355667 c 0.6396,-1.938 0.95625,-6.01565 0.70367,-9.06143 -0.52437,-6.32316 -2.25865,-8.23808 -7.46097,-8.23808 -3.19368,0 -3.30887,0.13925 -3.30887,4 0,3.62733 0.23904,4 2.56574,4 6.30821,0 8.87912,4.88598 5.54464,10.5375 -1.38179003,2.34195 -1.55943003,3.188313 -0.59122003,2.816773 C 1.4367963,100.11831 2.5829463,98.293667 3.2225463,96.355667 z M -202.25415,84.806157 c -1.97173,-15.4919 -13.50929,-26.01933 -31.58947,-28.82377 -18.64265,-2.89169 -33.4239,3.012 -39.92143,15.94478 -2.39847,4.77396 -5.07857,13.83936 -5.07857,17.17821 0,0.58463 14.87613,0.95078 38.62883,0.95078 l 38.62883,0 -0.66819,-5.25 z m 192.6928563,-1 c 0.76053,-4.8529 -1.1684903,-8.18894 -4.9476703,-8.55653 -3.93084,-0.38233 -6.97317,2.58441 -7.52853,7.34148 -0.39107,3.34979 -0.36336,3.37476 4.15008,3.73843 2.49909,0.20137 5.28022,0.44723 6.18029,0.54637 1.13029,0.12449 1.7940503,-0.82505 2.1458303,-3.06975 z"
       id="path3203"
       inkscape:connector-curvature="0" />
  </g>
</svg>
