<?xml version="1.0" encoding="UTF-8" standalone="no"?>
<!-- Created with Inkscape (http://www.inkscape.org/) -->

<svg
   xmlns:dc="http://purl.org/dc/elements/1.1/"
   xmlns:cc="http://creativecommons.org/ns#"
   xmlns:rdf="http://www.w3.org/1999/02/22-rdf-syntax-ns#"
   xmlns:svg="http://www.w3.org/2000/svg"
   xmlns="http://www.w3.org/2000/svg"
   xmlns:sodipodi="http://sodipodi.sourceforge.net/DTD/sodipodi-0.dtd"
   xmlns:inkscape="http://www.inkscape.org/namespaces/inkscape"
   width="682.3056"
   height="899.79016"
   id="svg2"
   version="1.1"
   inkscape:version="0.48.3.1 r9886"
   sodipodi:docname="Climbers-chin-up-1.svg">
  <defs
     id="defs4" />
  <sodipodi:namedview
     id="base"
     pagecolor="#ffffff"
     bordercolor="#666666"
     borderopacity="1.0"
     inkscape:pageopacity="0.0"
     inkscape:pageshadow="2"
     inkscape:zoom="0.7"
     inkscape:cx="843.53398"
     inkscape:cy="436.36359"
     inkscape:document-units="px"
     inkscape:current-layer="layer1"
     showgrid="false"
     inkscape:window-width="1855"
     inkscape:window-height="1056"
     inkscape:window-x="65"
     inkscape:window-y="24"
     inkscape:window-maximized="1"
     fit-margin-top="0"
     fit-margin-left="0"
     fit-margin-right="0"
     fit-margin-bottom="0" />
  <metadata
     id="metadata7">
    <rdf:RDF>
      <cc:Work
         rdf:about="">
        <dc:format>image/svg+xml</dc:format>
        <dc:type
           rdf:resource="http://purl.org/dc/dcmitype/StillImage" />
        <dc:title></dc:title>
      </cc:Work>
    </rdf:RDF>
  </metadata>
  <g
     inkscape:label="Ebene 1"
     inkscape:groupmode="layer"
     id="layer1"
     transform="translate(518.51288,-50.191803)">
    <path
       style="fill:#000000"
       d="m -80.707254,947.34242 c -4.74237,-2.3614 -5.89964,-3.5382 -8.40119,-8.5431 l -2.90119,-5.8044 3.30637,-8.6956 c 3.65739,-9.6187 4.48469,-15.9587 1.99601,-15.2963 -4.51928,1.203 -7.4249,1.2113 -9.63642,0.028 -2.05964,-1.1023 -3.00852,-1.096 -5.668646,0.037 -1.75721,0.7487 -5.70504,1.5491 -8.77295,1.7786 -4.87129,0.3646 -5.96597,0.091 -8.63993,-2.159 -3.46991,-2.9197 -5.9496,-8.4181 -7.44528,-16.509 -0.56271,-3.044 -1.70618,-6.8554 -2.54105,-8.4699 -2.00598,-3.8791 -1.95654,-15.3524 0.10015,-23.24086 1.63457,-6.26941 1.30811,-11.53494 -0.82491,-13.30519 -0.6534,-0.54227 -7.68667,-2.1393 -15.62948,-3.54895 -31.43691,-5.57926 -40.88037,-8.43215 -52.21642,-15.77463 -8.51883,-5.51774 -10.84561,-6.37246 -23.59948,-8.66899 -6.09953,-1.09832 -12.21513,-2.73411 -13.59021,-3.6351 -6.28551,-4.11842 -8.11602,-11.07128 -11.54144,-43.83794 -1.0978,-10.5013 -2.87497,-24.71828 -3.94925,-31.59328 -2.35307,-15.05871 -2.46694,-22.31714 -0.55695,-35.5 1.96372,-13.55364 1.93346,-18.1244 -0.12522,-18.91439 -1.40369,-0.53864 -1.55993,-1.87461 -1.09433,-9.35698 0.29874,-4.80075 1.46623,-11.65363 2.59443,-15.22863 3.21647,-10.19219 5.06299,-22.83186 6.12142,-41.9019 1.01595,-18.30465 1.75843,-22.56411 4.70131,-26.97079 1.39528,-2.0893 1.76748,-4.87984 1.81759,-13.62731 0.061,-10.64505 0.18446,-11.24571 3.82673,-18.61454 3.01223,-6.09415 3.97439,-9.48851 4.81879,-17 1.28424,-11.4241 1.14428,-35.1924 -0.25547,-43.38546 -0.56379,-3.3 -4.34947,-14.325 -8.41263,-24.5 -8.93356,-22.37154 -10.47682,-28.0285 -10.49222,-38.4601 -0.0143,-9.69586 -1.45996,-15.33187 -6.80756,-26.5399 -4.11029,-8.61475 -4.05217,-8.35314 -8.32118,-37.45521 -0.56114,-3.82536 -1.65924,-8.19085 -2.44021,-9.70107 -0.78097,-1.51023 -5.66157,-5.89235 -10.84579,-9.73805 -8.72933,-6.47549 -22.53752,-19.84643 -32.49055,-31.4617 -5.5494,-6.47619 -9.12358,-13.88711 -13.09113,-27.14397 -2.81626,-9.41001 -4.01539,-11.86727 -8.29592,-17 -6.14744,-7.37131 -8.26433,-12.09831 -9.15205,-20.43648 -0.79339,-7.45223 -1.8457,-9.76304 -9.25931,-20.3328 -2.99714,-4.2731 -6.3324,-10.28171 -7.41168,-13.35246 -3.33735,-9.49534 -6.7694,-35.12407 -7.87803,-58.8289 -0.56716,-12.12715 -1.31576,-23.60614 -1.66356,-25.50887 -0.34779,-1.90273 -2.53435,-7.09564 -4.85901,-11.53981 -2.47018,-4.72236 -4.52445,-10.2455 -4.94324,-13.29049 l -0.71659,-5.21019 -69.84714,0 c -47.44024,0 -70.0541,-0.33485 -70.49225,-1.0438 -0.35481,-0.5741 -0.0448,-1.76715 0.68893,-2.65123 1.20831,-1.45593 8.0255,-1.56961 72.33609,-1.20619 l 71.00205,0.40122 0.30226,-5.250001 0.30226,-5.25 -73.08365,0 c -66.08844,0 -73.14244,-0.15323 -73.69797,-1.60092 -0.33788,-0.88051 0.0137,-2.01863 0.78138,-2.52915 0.84932,-0.56483 28.60391,-0.66609 70.89572,-0.25864 l 69.5,0.66958 1.12303,-3.03419 c 0.61767,-1.6688 2.39875,-3.869495 3.95796,-4.890435 2.87499,-1.88247 4.9216,-2.08584 27.41901,-2.72456 6.56434,-0.18637 10.49898,-0.79435 12.73277,-1.96747 1.77802,-0.93376 5.25428,-1.97483 7.72501,-2.31348 4.10835,-0.56311 4.73999,-0.35053 7.39117,2.48757 1.5944,1.70681 3.41251,5.14298 4.04024,7.635915 l 1.14133,4.53263 142.12578,-0.25343 c 125.155625,-0.22316 142.217245,-0.43252 142.891895,-1.75342 0.42136,-0.825 1.29244,-3.4675 1.93572,-5.872205 1.6874,-6.30788 4.88434,-9.12779 10.34818,-9.12779 2.71161,0 4.9046998,0.5804 5.6678998,1.5 0.70079,0.8444 2.8807,1.5 4.98759,1.5 2.15889,0 4.76178,0.80162 6.15087,1.89431 2.5514,2.00693 10.2211002,3.17672 20.0739002,3.06171 7.2248,-0.0843 9.5297,1.15231 10.3559,5.556125 l 0.6543,3.48785 63.2663,0 c 54.170905,0 63.440005,0.20935 64.474805,1.4562 0.6647,0.8009 0.9182,1.9259 0.5634,2.5 -0.4371,0.70727 -21.0352,1.0438 -63.887605,1.0438 l -63.2425,0 -2.1095,4.992941 -2.1094,4.99294 66.6609,0.25706 c 65.908705,0.25416 66.661005,0.27963 66.661005,2.25706 0,1.97675 -0.7524,2.00299 -64.713405,2.25728 l -64.7134,0.25728 -1.0119,3.7581 c -0.5566,2.06695 -2.4856,6.00117 -4.2866,8.74272 l -3.2747,4.98462 0.227,38.68016 c 0.2587,44.1003 0.1176,45.20918 -8.1838,64.27388 -4.3376,9.96168 -6.5711,17.69628 -10.1202002,35.04596 -1.5883,7.7646 -1.8223,8.17962 -7.95192002,14.10424 -4.84329998,4.68131 -6.57061998,7.1289 -7.41009998,10.5 -0.60206,2.41767 -1.93378,6.64576 -2.9593898,9.39576 -1.0256,2.75 -2.87647,7.925 -4.11304,11.5 -4.49583,12.99775 -8.36332,19.22611 -16.66806,26.84294 -4.30125,3.94495 -12.54453,10.90687 -18.31841,15.47093 -15.26083,12.06318 -14.73122,10.8825 -14.87909,33.1707 -0.0677,10.20465 -0.58726,20.68275 -1.15455,23.28467 -1.74813,8.01778 -5.99947,20.00054 -7.99686,22.53981 -3.109269,3.9528 -3.851179,9.71212 -2.828609,21.95799 1.18815,14.2287 0.67055,17.73294 -4.61328,31.23296 -5.40103,13.79945 -6.20077,17.72024 -7.08434,34.73124 -0.6786,13.06482 -0.61378,13.81709 1.33539,15.5 1.12674,0.97282 2.78995,4.46876 3.69602,7.76876 0.90608,3.3 3.98198,10.95 6.83535,17 l 5.187929,11 -0.33718,12 c -0.81774,29.10333 -1.1688,26.20719 5.57604,46 8.5036,24.95392 10.76789,34.18461 9.13424,37.23711 -1.01198,1.89091 -1.01855,3.50304 -0.0329,8.06317 7.10403,32.86604 7.77557,44.78883 4.1792,74.19972 -1.46647,11.99279 -2.11246,22.76492 -2.05272,34.23009 0.0844,16.20623 0.004,16.8951 -2.57042,22 -1.46167,2.89845 -3.94879,6.90967 -5.52693,8.91381 -1.57814,2.00415 -2.86935,3.91665 -2.86935,4.25 0,0.33336 5.5125,0.61598 12.25,0.62806 12.5136,0.0224 18.39186,1.41455 21.41704,5.07206 2.42429,2.93103 5.56666,12.59552 5.65948,17.40598 0.0839,4.34738 -0.79081,6.67169 -6.70132,17.80749 -3.73878,7.04415 -7.24426,14.24415 -7.78995,16.00005 -0.54569,1.7558 -1.31535,10.4344 -1.71035,19.2857 l -0.71818,16.0933 -4.19502,8.4067 c -2.30726,4.6237 -4.49371,10.6083 -4.85878,13.299 -0.76915,5.669 -4.3708,10.3814 -11.2987,14.7831 -5.6428,3.5852 -9.94914,3.6012 -17.054219,0.063 z m 14.901219,-3.6876 c 5.55286,-2.8715 8.72749,-7.7246 9.42626,-14.4101 0.35993,-3.4436 1.75444,-8.3425 3.1699,-11.1358 3.50708,-6.9209 5.18663,-15.1074 6.56618,-32.0051 0.65109,-7.975 1.74288,-16.1654 2.4262,-18.2008 0.68332,-2.0355 3.83236,-8.23537 6.99787,-13.77758 5.40571,-9.46439 5.72868,-10.39968 5.31478,-15.39084 -0.55596,-6.70409 -3.66801,-11.24148 -9.47064,-13.80826 -3.85958,-1.70727 -6.02186,-1.86727 -19.09215,-1.41274 -8.10679,0.28193 -16.539619,0.96931 -18.739619,1.52753 -6.02215,1.52803 -10.92761,1.27199 -16.54836,-0.86373 -6.053876,-2.30029 -11.492656,-6.27055 -13.810066,-10.08123 -0.92849,-1.52677 -4.15268,-4.71938 -7.16487,-7.09468 -3.01218,-2.3753 -8.8956,-7.2681 -13.07426,-10.87289 -9.20875,-7.94408 -19.82044,-15.16676 -27.61438,-18.79531 -5.10123,-2.37493 -7.01754,-2.69675 -16.14919,-2.7121 l -10.36112,-0.0174 -1.13888,3.5 c -0.79078,2.43024 -1.82794,3.59785 -3.39334,3.82014 -3.33623,0.47374 -3.62664,-1.72453 -1.38468,-10.48154 1.10375,-4.31123 2.24409,-10.86991 2.53408,-14.57484 0.33002,-4.2164 1.70588,-9.64045 3.67807,-14.5 4.45019,-10.96548 10.71216,-29.619 12.46862,-37.14225 1.76798,-7.57259 2.36711,-6.83443 -11.04162,-13.60388 -11.17626,-5.64238 -16.55208,-6.47134 -42.13871,-6.49782 l -19.13871,-0.0198 -0.54773,3.25 c -0.30126,1.7875 -1.33185,10.0585 -2.29022,18.38 -1.737,15.08247 -1.73534,15.17357 0.52681,29 4.78226,29.22958 6.12258,39.30642 6.96572,52.37 1.32017,20.45467 4.13368,25 15.47475,25 10.40194,0 19.61864,3.49661 30.92889,11.73375 8.72806,6.35655 18.16824,8.94339 44.51613,12.1985 17.62574,2.17754 26.25045,4.52955 37.20307,10.14549 11.798626,6.04973 11.654636,5.85968 15.111136,19.9452 1.69935,6.925 4.84685,16.2594 7.07331,20.9771 5.07081,10.7445 7.81555,18.5204 7.81555,22.1414 0,1.5556 -1.125,6.7105 -2.5,11.4553 -2.98636,10.3053 -3.13388,14.3989 -0.6303,17.4907 l 1.86971,2.309 0.76149,-2.4482 c 0.97125,-3.1226 4.35128,-7.9482 5.56719,-7.9482 1.446009,0 1.10178,3.5759 -0.70996,7.3751 -0.90303,1.8937 -1.36715,4.159 -1.03138,5.034 0.78856,2.0549 7.710979,2.1398 11.574469,0.1419 z m -16.234549,-12.2177 c -2.33225,-2.3322 1.41757,-8.3382 3.91294,-6.2673 1.15336,0.9572 1.13273,1.5896 -0.13163,4.0346 -1.49525,2.8914 -2.51841,3.4956 -3.78131,2.2327 z m 27.807839,-80.18245 c 0.54678,-3.23636 0.23502,-4.34265 -1.95838,-6.94935 -2.20766,-2.62366 -3.40859,-3.14645 -7.8124,-3.40089 -6.10912,-0.35296 -6.9671,-2.15683 -1.24773,-2.6233 9.74108,-0.79447 15.544,3.03545 15.544,10.25901 0,4.26358 -1.32737,6.56364 -3.7879,6.56364 -1.05611,0 -1.23244,-0.92015 -0.73759,-3.84911 z M -162.20725,815.6123 c -0.55,-0.18347 -2.20603,-0.59862 -3.68007,-0.92255 -3.40873,-0.7491 -5.90004,-3.21364 -5.17045,-5.11491 0.74408,-1.93903 2.82668,-1.8604 6.01249,0.22703 3.02918,1.98479 17.52604,2.95246 23.80173,1.58877 3.04162,-0.66093 4.098,-1.43422 4.541,-3.32408 0.7328,-3.12622 4.9953,-4.12218 4.9953,-1.16719 0,3.09116 -3.77885,7.04883 -7.79549,8.16439 -3.37202,0.93652 -20.31437,1.34585 -22.70451,0.54854 z m -47.39249,-5.75852 c -1.28591,-3.43217 -2.24047,-15.09452 -1.3462,-16.44721 0.43531,-0.65847 1.27473,-0.88347 1.86538,-0.5 2.20754,1.43321 3.16648,4.85261 2.64882,9.44524 -0.33709,2.99069 -0.086,5.27541 0.68144,6.20009 0.66838,0.80535 0.92493,1.93398 0.57012,2.50808 -1.11337,1.80148 -3.54092,1.13895 -4.41956,-1.2062 z m 5.4583,-31.64352 c -0.30373,-0.49144 0.14704,-2.85394 1.0017,-5.25 1.88553,-5.28615 1.47814,-9.072 -2.75954,-25.64451 -3.04633,-11.91341 -3.09102,-12.3952 -1.4658,-15.80331 2.28078,-4.78285 3.86528,-3.45321 3.06591,2.57276 -0.53211,4.01124 -0.18381,5.79967 2.04851,10.5184 6.7123,14.18865 7.04626,34.50018 0.56724,34.50018 -1.04819,0 -2.1543,-0.40208 -2.45802,-0.89352 z m 101.8715,124.12146 c 2.932146,-2.3064 6.100416,-1.941 7.880156,0.9088 1.58966,2.5455 4.56872,2.3451 5.57491,-0.3748 0.61106,-1.6519 -0.0901,-4.3368 -2.67668,-10.25 -5.26705,-12.0411 -10.196676,-26.6132 -10.206756,-30.17155 -0.008,-2.89825 -0.65003,-3.51855 -7.75894,-7.49874 -4.2625,-2.38652 -9.26133,-4.89554 -11.10852,-5.57561 l -3.35852,-1.23648 0.63551,3.38753 c 0.34953,1.86314 0.13914,5.34399 -0.46753,7.73522 -3.15731,12.44473 -3.22834,15.38513 -0.51046,21.13023 1.40773,2.9758 2.56203,6.942 2.5651,8.8139 0.009,5.768 1.90899,10.6539 5.22764,13.4463 2.64542,2.226 3.87851,2.5921 7.39616,2.1956 2.32181,-0.2617 5.38537,-1.3914 6.80793,-2.5104 z m -2.00724,-8.5496 c -1.05772,-2.7564 -0.0169,-8.1783 1.56993,-8.1783 1.10692,0 1.5,1.1574 1.5,4.4166 0,4.4028 -1.92078,6.7564 -3.06993,3.7617 z m 25.351486,-73.85355 c 5.517299,-1.38928 12.285149,-7.8567 16.689189,-15.94838 2.79303,-5.13172 2.8082,-5.25818 2.14248,-17.86827 -0.55245,-10.46452 -0.20616,-16.64356 1.96731,-35.10406 3.3818,-28.72344 3.03722,-39.96178 -2.02067,-65.90408 -3.8618,-19.80744 -4.17646,-20.46224 -10.39363,-21.62859 -4.956869,-0.92992 -21.582479,0.28302 -28.666239,2.09138 -9.580406,2.4457 -23.135896,9.86452 -33.445646,18.30456 l -9.44564,7.73265 0.22922,6 c 0.37448,9.8023 2.10758,16.31601 7.71468,28.99487 9.55318,21.60183 12.31117,30.43457 13.3738,42.83098 0.52683,6.14578 1.52542,12.97415 2.21909,15.17415 l 1.26123,4 0.54663,-3.78312 c 0.30065,-2.08071 0.96073,-3.88071 1.46683,-4 0.50611,-0.11928 1.92535,3.07488 3.15386,7.09815 2.52599,8.27234 4.36194,10.79236 8.52964,11.70774 3.23332,0.71016 3.611796,1.63854 1.41221,3.46404 -1.19633,0.99286 -2.24111,0.83712 -5.38801,-0.80313 l -3.9039,-2.03483 2.40665,4.30596 c 3.40835,6.09821 10.237166,13.57804 13.821736,15.13942 3.82246,1.66499 10.27093,1.75604 16.32918,0.23056 z m -16.3105,-22.87161 c -0.35583,-0.57575 2.70443,-4.55468 6.80058,-8.84208 4.74624,-4.96783 8.64302,-10.22362 10.7435,-14.4903 3.747209,-7.61165 4.580419,-8.47045 5.477079,-5.64531 0.44421,1.39957 -1.08133,4.92287 -5.054869,11.67449 -8.49253,14.43005 -15.54449,21.22174 -17.96629,17.3032 z m -20.783556,-19.59901 c -1.01875,-1.01876 -0.81955,-11.92191 0.35361,-19.35417 1.35134,-8.56108 3.29755,-14.4671 8.6333,-26.19887 3.44449,-7.57344 4.56614,-11.39067 5.11837,-17.41903 0.81524,-8.89939 2.526726,-10.62296 4.237976,-4.26788 1.73932,6.45937 0.41344,12.05686 -6.486906,27.38578 -8.23269,18.28868 -7.68705,16.41266 -8.41141,28.91994 -0.57985,10.01197 -1.48722,12.89195 -3.44494,10.93423 z m -0.69008,22.13904 c -0.52419,-1.37873 -1.73768,-3.96623 -2.69664,-5.75 -1.64208,-3.05445 -1.76424,-3.10906 -2.09892,-0.93823 -0.21279,1.38018 0.69888,3.68717 2.27228,5.75 3.11781,4.08766 3.81995,4.34874 2.52328,0.93823 z m -8.39603,-12.24813 c 0.57193,-1.51521 0.72968,-3.91476 0.35057,-5.33233 -0.37912,-1.41757 -1.23978,-7.91657 -1.91257,-14.44223 -1.04691,-10.15424 -1.8015,-13.17003 -5.23388,-20.91768 -7.9943,-18.04491 -11.67287,-28.22535 -13.38856,-37.05284 -1.25446,-6.4544 -2.37649,-9.59246 -3.96696,-11.09463 -2.04693,-1.9333 -4.56637,-8.73726 -6.12964,-16.55361 -0.53675,-2.68378 -0.76,-2.89499 -1.35544,-1.28236 -0.39207,1.06183 -1.01824,4.8556 -1.39149,8.4306 -1.1652,11.16037 -1.45752,12 -4.17788,12 -1.96032,0 -2.5733,0.64484 -3.08947,3.25 -0.56102,2.83148 -7.43582,23.08357 -14.8929,43.87215 -1.3065,3.64219 -2.66783,9.76808 -3.02518,13.6131 l -0.64974,6.99095 10.38087,0.48703 c 7.66783,0.35975 12.31337,1.1665 17.77514,3.08686 8.32974,2.92875 21.76181,10.68771 25.80121,14.90393 3.31346,3.45851 3.61502,3.46104 4.90592,0.0411 z M -161.41804,675.4571 c 1.56467,-12.38665 0.80353,-22.48837 -1.9213,-25.49928 -0.88536,-0.97831 -3.24283,-2.30027 -5.23883,-2.93767 -1.99599,-0.63741 -5.20408,-2.09766 -7.12908,-3.24499 -4.69583,-2.79881 -15,-12.63832 -15,-14.3236 0,-2.2789 2.47969,-1.5016 5.56291,1.7438 3.26138,3.43293 7.56827,5.86313 15.94594,8.99762 6.87478,2.57218 14.33314,9.19134 12.64653,11.22358 -0.85291,1.02769 -0.30077,4.23826 2.28237,13.27143 3.06765,10.72752 4.96886,19.31444 5.84867,26.41579 0.29217,2.35821 0.39896,2.29787 1.88292,-1.06401 1.82686,-4.13871 4.77592,-6.58624 21.93133,-18.20162 16.0258,-10.85055 20.79654,-12.16117 44.425926,-12.20479 l 16.026589,-0.0296 -2.20697,-7.5 c -1.21383,-4.125 -4.43089,-12.45 -7.14902,-18.5 -4.869709,-10.83902 -6.112069,-15.77208 -8.139129,-32.31824 -1.24193,-10.13736 -2.49339,-12.05441 -12.49095,-19.13423 -6.637786,-4.70058 -8.238566,-6.47703 -12.585426,-13.96656 -3.44957,-5.94351 -4.98054,-9.68235 -4.98101,-12.1643 -0.001,-5.39218 1.1244,-5.45257 2.9251,-0.15696 2.5081,7.376 10.803256,17.41076 17.907956,21.66348 1.09152,0.65336 1.20736,-0.81712 0.63787,-8.09692 -0.58728,-7.50724 -0.44615,-9.10251 0.90443,-10.22339 1.86267,-1.54588 2.14426,-1.03542 2.97731,5.39712 1.52191,11.75176 3.77585,19.02931 6.81364,22 l 3.06777,3 -0.61015,-8.58004 c -0.74049,-10.41284 -1.89955,-14.1169 -6.17139,-19.7221 -2.90186,-3.80761 -3.88366,-6.57225 -6.05586,-17.05263 -0.39129,-1.88788 -0.92519,-2.22521 -2.69271,-1.70134 -5.48263,1.62498 -26.131326,5.48756 -35.204646,6.58545 -10.90983,1.3201 -43.60241,0.72169 -62.94856,-1.15223 -12.70015,-1.23016 -24.38526,-3.99325 -29.03168,-6.86489 -1.7907,-1.10672 -3.54021,-2.01222 -3.88779,-2.01222 -0.34759,0 -0.63197,2.02218 -0.63197,4.49373 0,4.08562 0.35417,4.74404 3.89991,7.25 2.14495,1.51595 5.29495,3.52284 7,4.45976 1.70505,0.93692 3.10009,2.17442 3.10009,2.75 0,1.93002 -6.45595,1.0476 -10.89327,-1.48893 -2.4163,-1.38125 -4.44428,-2.38833 -4.50662,-2.23796 -0.0623,0.15037 -1.79788,3.76834 -3.85673,8.03994 -3.17781,6.59314 -3.74338,8.77756 -3.74338,14.45821 l 0,6.69167 4.5718,-4.45821 c 2.5145,-2.45202 5.31152,-5.69571 6.21561,-7.20821 1.73606,-2.90434 2.81587,-3.28692 5.13479,-1.81925 1.46697,0.92847 -2.33539,5.98215 -14.05366,18.67859 -2.80213,3.03603 -5.1191,6.68811 -5.70983,9 -0.54677,2.13986 -1.49031,11.76566 -2.09676,21.39066 -0.60645,9.625 -1.29577,20.2 -1.53181,23.5 -0.23605,3.3 -1.73765,10.275 -3.33689,15.5 -1.59924,5.225 -3.1841,12.25554 -3.52192,15.62341 l -0.6142,6.12342 20.72143,-0.0524 c 16.15227,-0.0409 22.44893,0.33058 28.55571,1.68445 9.09312,2.01595 23.19308,6.838 29.66573,10.1454 l 4.5,2.29942 0.69058,-3.66185 c 0.37983,-2.01401 1.32421,-8.67785 2.09863,-14.80852 z m 11.71079,-33.50693 c 0,-2.41595 0.97048,-4.04955 4.14891,-6.98387 6.17053,-5.69659 19.4196,-9.98774 21.32394,-6.90645 0.79948,1.29359 -2.54063,3.24404 -11.3449,6.62484 -5.9406,2.28116 -7.85959,3.56755 -9.88289,6.62496 -3.05778,4.62063 -4.24506,4.79977 -4.24506,0.64052 z m -43.73335,-48.87139 c -3.56753,-1.43483 -1.85585,-4.06112 2.0738,-3.18191 6.90525,1.54496 20.00201,0.65286 30.15955,-2.05435 10.48167,-2.7936 22.05671,-6.59537 26.79899,-8.80201 3.96589,-1.84538 2.05723,-2.58184 -10.46317,-4.03722 -8.15647,-0.94812 -11.90194,-0.96151 -16.39787,-0.0586 -6.19679,1.2445 -9.02555,0.34669 -6.58795,-2.09091 0.90629,-0.90629 6.11697,-1.24847 18.95,-1.24443 19.90795,0.006 25.54418,1.09122 25.00693,4.81374 -0.58091,4.025 -17.03587,11.24885 -34.80693,15.28048 -11.00582,2.49684 -30.06797,3.25158 -34.73335,1.37521 z m 17.2972,-27.03635 c -6.07144,-1.01611 -9.9602,-3.76479 -10.3854,-7.34065 l -0.32154,-2.7042 5.21134,2.64079 c 3.58697,1.81765 7.4276,2.80612 12.32155,3.1712 7.50427,0.55981 26.94206,-0.91166 38.71809,-2.93102 5.97845,-1.02519 7.14572,-0.9867 7.93239,0.26157 2.08261,3.30465 -4.23299,4.68982 -31.54028,6.91754 -14.33976,1.16984 -14.85732,1.16948 -21.93615,-0.0152 z m 60.4201,-23.62425 c 5.21617,-0.8458 11.96617,-2.29273 15,-3.2154 l 5.516046,-1.67757 0.67142,-5.96072 c 0.36929,-3.27839 1.15337,-11.15311 1.7424,-17.49939 1.2597,-13.57198 3.38515,-22.1403 8.54844,-34.46132 l 3.77158,-9 -0.69615,-17.41619 -0.69615,-17.4162 5.32923,-10.40478 5.329229,-10.40478 0.5111,-24.17903 c 0.42072,-19.90352 0.80314,-24.71507 2.16267,-27.2105 2.41684,-4.4361 9.72554,-10.88348 23.64651,-20.8598 17.06787,-12.2315 22.48682,-20.04671 28.15749,-40.60872 4.42206,-16.03449 4.6931,-16.59904 11.4963098,-23.94586 8.83998,-9.54634 8.60578,-9.05702 9.95328,-20.79471 0.9985,-8.69768 1.9861,-12.46795 5.0517,-19.28535 2.0959002,-4.66075 5.4327002,-12.97408 7.4151002,-18.47408 l 3.6045,-10 0.1683,-31.5 c 0.093,-17.325 0.4426,-35.00745 0.7778,-39.29433 0.502,-6.42061 0.3232,-8.0806 -1.0148,-9.41857 -1.499,-1.49899 -1.3474,-1.86187 1.9662,-4.70567 2.0722,-1.77842 4.2276,-4.93175 5.0971,-7.45716 2.3462,-6.81358 2.1835,-7.12348 -3.7433,-7.13043 -2.8875,-0.003 -6.375,-0.57991 -7.75,-1.28117 -1.4421,-0.73548 -4.7097,-1.11599 -7.7220002,-0.89921 l -5.2221,0.3758 2.03,3.97896 c 2.4628,4.8275 2.2451,10.15785 -0.4356,10.66613 -1.5812,0.29979 -1.7527,-0.0916 -1.1809,-2.69494 1.6101,-7.33075 -5.24251,-14.19217 -15.2101598,-15.22966 -6.44072,-0.6704 -10.09215,-2.4768 -8.40894,-4.16001 0.58003,-0.58003 1.79046,-0.4772 3.18819,0.27084 3.46033,1.85191 11.5595598,0.7057 14.4941798,-2.051241 2.69411998,-2.53099 3.17256998,-5.16827 1.21736998,-6.71031 -0.68749998,-0.54222 -5.57370998,-1.25607 -10.85823978,-1.58634 -12.93449,-0.80836 -13.24266,-0.55804 -13.89176,11.284321 -0.76969,14.04245 -0.29867,14.91423 10.86109,20.10199 l 6.3610998,2.95704 -0.69608,13.24198 c -0.9895298,18.8245 -2.7084998,26.21193 -9.4801998,40.74198 -8.8845,19.06349 -9.18,20.39849 -9.96095,45 -0.4437,13.97772 -1.11507,22.28722 -1.91891,23.75 -1.36786,2.4892 -4.93048,3.02745 -5.75838,0.86999 -0.41511,-1.08176 -1.42648,-1.17848 -4.67967,-0.44754 -7.0476,1.58349 -13.68598,5.96365 -20.92257,13.80521 -8.24661,8.93602 -13.632109,19.24645 -17.166789,32.86548 -2.61498,10.07546 -3.58825,11.77391 -6.17749,10.78032 -1.23637,-0.47443 -1.50216,-1.32392 -1.01791,-3.25332 0.64054,-2.55213 0.5694,-2.59528 -3.14393,-1.90671 -8.3825,1.55439 -15.976776,7.20358 -24.826436,18.46779 -4.52358,5.7578 -6.88875,7.32114 -7.64477,5.05308 -0.21453,-0.64359 -1.80209,-0.48102 -4.33333,0.44376 -2.19713,0.80271 -7.37412,2.16641 -11.50445,3.03045 -9.96085,2.08375 -13.5386,4.32006 -14.41894,9.01272 -0.74491,3.97066 -2.85174,4.36905 -3.39851,0.64263 -0.85708,-5.84131 6.65464,-11.56711 17.90658,-13.64929 4.6313,-0.85703 9.92153,-2.03476 11.75607,-2.61718 l 3.33552,-1.05894 -3.33552,-2.78234 -3.33552,-2.78233 -0.33408,-12.7304 -0.33408,-12.73039 -6.47698,7.09666 c -7.6965,8.43285 -10.40863,9.50948 -22.67086,8.99968 l -8.64283,-0.35933 -8.89348,-8.85263 -8.89348,-8.85264 -0.69441,7.41038 c -0.38192,4.07571 -0.4055,8.56147 -0.0524,9.96835 0.3531,1.40688 0.15441,4.36878 -0.44155,6.582 -1.02031,3.78913 -1.47619,4.16917 -7.80933,6.51015 -5.13949,1.89976 -6.85383,3.02857 -7.26873,4.78611 -0.93075,3.94271 -2.78743,3.27718 -5.43539,-1.94832 -3.22686,-6.3679 -7.12683,-10.80505 -14.89529,-16.94697 -8.9309,-7.06098 -9.88636,-7.40722 -20.8028,-7.53865 -7.65535,-0.0922 -10.14279,-0.47752 -11.43701,-1.77182 -1.99523,-1.99534 -0.929,-4.21304 1.69556,-3.5267 1.03793,0.27143 1.88714,0.2978 1.88714,0.0586 0,-1.18275 -6.75487,-13.64139 -10.50636,-19.37786 -9.59543,-14.67257 -19.79972,-23.3064 -31.9991,-27.0744 -6.06281,-1.87261 -8.07651,-3.82986 -5.54805,-5.39253 0.57154,-0.35323 0.39319,-2.15318 -0.45022,-4.54365 -0.76819,-2.17728 -1.88846,-7.55022 -2.48949,-11.93987 -1.90312,-13.89966 -4.76845,-21.0848 -15.63863,-39.21574 -11.49305,-19.16983 -14.34151,-27.5222 -14.3606,-42.10856 -0.007,-5.23636 -0.24063,-5.86337 -2.50755,-6.72525 -4.77974,-1.81725 -2.40923,-4.20242 5.4761,-5.50997 6.70559,-1.11192 10.25283,-5.22418 13.50553,-15.65673 1.46637,-4.70316 2.52038,-10.07717 2.34225,-11.94225 l -0.32388,-3.391051 -14,0 -14,0 -0.29858,2.565061 c -0.20206,1.73591 0.59454,3.45818 2.46438,5.32801 2.48282,2.48282 3.32421,2.72358 8.29858,2.37457 3.04459,-0.21361 6.32312,-0.74686 7.28562,-1.185 1.2623,-0.57461 1.75,-0.35858 1.75,0.77519 0,2.2823 -3.30365,3.69995 -9.27034,3.97805 -2.87631,0.13407 -6.15458,0.7573 -7.28505,1.38497 -2.75131,1.52761 -5.2237,6.72277 -5.96265,12.52915 -0.38989,3.06361 -1.09137,4.75 -1.97585,4.75 -2.82524,0 -2.82855,-5.34976 -0.008,-12.25 0.61002,-1.49215 0.13313,-1.75 -3.23656,-1.75 -2.66047,0 -4.534,-0.64309 -5.73286,-1.96782 -1.3972,-1.54389 -2.19724,-1.74498 -3.71364,-0.93343 -2.57732,1.37934 -7.75545,0.18974 -10.69368,-2.45671 l -2.37777,-2.14204 0.72344,4.97653 c 0.84959,5.84426 3.36054,11.11857 7.58242,15.92702 l 3.03717,3.45915 1.00126,24.31865 c 0.71681,17.40981 1.70437,28.43805 3.47614,38.81865 3.93446,23.05144 5.4661,27.26031 14.97051,41.1383 5.20184,7.59553 7.4377,13.91451 7.48742,21.16092 0.0296,4.31922 3.00132,10.58024 8.29681,17.48048 5.80066,7.5585 7.05566,10.18784 9.49109,19.88469 3.64327,14.5059 6.11219,18.39185 20.6184,32.4522 7.18946,6.96848 17.52938,16.43049 22.97761,21.02669 12.77366,10.77602 13.92504,12.37049 14.1515,19.59762 0.26219,8.36713 3.09616,27.06977 4.85259,32.0243 0.83162,2.34586 3.1567,7.07086 5.16684,10.5 3.98975,6.8062 6.41227,17.88894 6.41939,29.3679 0.003,5.1974 1.08229,8.9315 7.07275,24.4753 9.016,23.39433 10.9106,31.25554 10.93967,45.3916 0.0236,11.48863 1.7963,21.73348 4.17153,24.10871 8.05109,8.05109 72.27261,12.81846 103.80381,7.70569 z m -32.29714,-3.42986 c -1.50638,-0.87619 -1.77331,-2.18243 -1.57752,-7.71959 0.12963,-3.66572 -0.0933,-8.08461 -0.49535,-9.81975 -0.47019,-2.02913 -0.32224,-3.40745 0.41465,-3.86287 2.11357,-1.30626 2.93676,1.03225 3.33641,9.47805 0.30586,6.46366 0.79223,8.68142 2.1162,9.64953 3.27153,2.3922 -0.10859,4.41848 -3.79439,2.27463 z m -39.85548,-2.35539 c -1.39742,-3.06701 -0.14363,-7.67371 3.72665,-13.69244 l 2.35563,-3.66329 -2.40719,-1.57726 c -5.68003,-3.72169 -6.06177,-19.59616 -0.47124,-19.59616 2.32305,0 2.42471,0.80788 0.43302,3.44113 -2.04199,2.69975 -1.83308,7.88669 0.43021,10.68174 1.87297,2.31302 1.94713,2.32121 5.53393,0.61079 4.46033,-2.12699 9.48316,-2.21363 14.19505,-0.24488 3.54402,1.48079 3.57973,1.47005 6.65188,-2 1.6988,-1.91883 3.45593,-3.48878 3.90473,-3.48878 1.66733,0 0.74055,3.72205 -1.434,5.75907 -3.4104,3.19472 -6.99582,4.17426 -13.00782,3.55377 -6.65151,-0.6865 -12.74218,1.05225 -12.74218,3.63759 0,0.98744 -0.91982,3.87475 -2.04405,6.41626 -1.17726,2.66139 -1.91936,6.16908 -1.75,8.27175 0.35964,4.46514 -1.68076,5.60832 -3.37462,1.89071 z m 70.56493,-1.82787 c 0.45871,-2.44514 0.0318,-5.07817 -1.42075,-8.76342 -2.09567,-5.31675 -2.31824,-9.99833 -0.47551,-10.00207 0.55,-10e-4 1.225,1.47538 1.5,3.28109 0.275,1.80572 1.31214,4.77092 2.30475,6.58934 2.39912,4.39506 1.99356,11.52494 -0.68448,12.03346 -1.64354,0.31209 -1.79734,-0.0823 -1.22401,-3.1384 z m -16.73371,-22.80963 c -4.43016,-2.28599 -6.56816,-2.85166 -8.86849,-2.34642 -2.30524,0.50632 -2.9243,0.34115 -2.58525,-0.68975 0.7001,-2.12873 7.00897,-2.14455 12.57001,-0.0315 5.74742,2.18385 9.80138,1.82897 11.31008,-0.99008 0.56556,-1.05675 0.88942,-4.93919 0.7197,-8.62763 -0.24995,-5.43162 -0.0235,-6.70627 1.1914,-6.70627 1.04694,0 1.56596,1.20817 1.71838,4 0.12011,2.2 0.4971,5.83103 0.83777,8.06896 0.52704,3.46229 0.2203,4.54326 -2.05727,7.25 -3.43987,4.08805 -7.02069,4.1056 -14.83633,0.0727 z m -14.91629,-2.47872 c -0.41044,-0.41045 -0.77911,-3.03376 -0.81926,-5.8296 -0.0402,-2.79583 -0.40857,-7.43877 -0.81871,-10.31765 -0.89917,-6.31149 0.0251,-8.55972 2.50134,-6.08417 2.30883,2.30821 3.11947,15.0788 1.2472,19.64809 -0.75037,1.83127 -1.70012,2.99377 -2.11057,2.58333 z m -39.07959,-13.0796 c -0.36667,-0.36666 -0.66667,-1.90041 -0.66667,-3.40833 0,-1.78159 -1.64584,-4.7621 -4.7,-8.51141 -3.50786,-4.30626 -4.7,-6.61596 -4.7,-9.10595 0,-4.05434 2.75486,-7.35278 4.6,-5.50764 0.95238,0.95238 0.86697,1.5616 -0.39601,2.82458 -1.48038,1.48039 -1.21303,2.21883 3.31423,9.15389 2.70848,4.14898 5.18843,8.59512 5.51099,9.88033 0.94847,3.77901 -0.91606,6.72102 -2.96254,4.67453 z m 8.87319,-7.26884 c -1.12025,-1.8126 0.35549,-4.69578 3.02641,-5.91273 1.39031,-0.63347 6.09511,-1.15176 10.4551,-1.15176 7.83334,0 7.94604,-0.0363 9.51161,-3.06378 1.72946,-3.3444 3.79199,-3.46067 4.26917,-0.24067 0.19236,1.29799 -0.83484,2.99561 -2.82672,4.67167 -2.86471,2.41049 -3.87749,2.63278 -11.99545,2.63278 -7.83764,0 -9.03511,0.24061 -10.31887,2.07344 -0.91803,1.31068 -1.69839,1.67526 -2.12125,0.99105 z m 56.37814,-1.25372 c -1.85424,-3.51955 -2.71487,-3.77897 -12.59127,-3.79546 -8.4878,-0.0142 -9.41221,-0.21635 -12.37068,-2.70574 -3.19077,-2.68486 -3.19605,-2.70529 -2.54826,-9.85394 0.52323,-5.77409 0.35268,-7.40953 -0.87933,-8.43201 -1.71749,-1.42539 -2.05874,-4.02362 -0.52846,-4.02362 0.55,0 1.9,0.9 3,2 1.54113,1.54113 2,3.33333 2,7.81144 0,9.14166 1.74684,10.36605 17.26685,12.1026 8.69449,0.97284 10.97332,2.25425 10.53371,5.92325 -0.40047,3.34236 -2.37385,3.83715 -3.88256,0.97348 z m 6.54248,-3.05315 c -0.29731,-0.77479 0.8271,-4.29971 2.49869,-7.83316 1.67511,-3.54091 3.03961,-8.08112 3.04004,-10.11544 8.5e-4,-3.95711 1.6687,-5.94259 3.09728,-3.68714 1.5303,2.41606 0.89491,6.16987 -2.42121,14.30411 -3.17623,7.79111 -5.14653,10.11549 -6.2148,7.33163 z m -95.60883,-4.18388 c -1.88892,-4.14573 -0.22329,-7.19203 7.14835,-13.07374 4.6682,-3.72468 7.16245,-6.46773 7.53284,-8.28425 0.81041,-3.97443 2.81819,-7.57583 3.96716,-7.11598 0.55,0.22013 0.97689,2.23023 0.94864,4.46689 -0.0693,5.48807 -3.19674,9.61174 -11.05235,14.573 -3.51796,2.22179 -6.39352,4.56178 -6.39013,5.19998 0.003,0.6382 0.6517,2.39786 1.4407,3.91036 1.3318,2.55305 1.29401,2.75 -0.5276,2.75 -1.10662,0 -2.44414,-1.05788 -3.06761,-2.42626 z m 112.455776,0.33369 c -0.823426,-0.82343 -0.747756,-2.00266 0.2875,-4.48038 2.09423,-5.0122 1.75627,-6.69432 -2.094926,-10.42705 -3.58755,-3.47719 -4.51097,-6 -2.19617,-6 1.51404,0 6.941086,5.49545 8.576176,8.68426 1.46271,2.85263 1.40114,7.20693 -0.14475,10.23677 -1.46656,2.87436 -2.89779,3.51644 -4.42783,1.9864 z m -23.307426,-19.27373 c 0,-1.02927 -2.4051,-1.48313 -9.75,-1.83988 -10.80115,-0.52464 -16.25,-2.47599 -16.25,-5.8195 0,-2.47539 0.55237,-2.47159 3.72713,0.0257 2.14789,1.68953 4.05678,2 12.29694,2 7.98979,0 10.16637,0.33362 12.0319,1.84424 1.45714,1.17992 2.04867,2.44068 1.64217,3.5 -0.76431,1.99174 -3.69814,2.22137 -3.69814,0.28944 z m -57.33333,-1.30037 c -1.35087,-1.35086 -0.5959,-3.15131 2.08333,-4.96832 2.20431,-1.49493 4.62802,-1.86501 12.21428,-1.86501 9.08964,0 9.5146,-0.099 10.73526,-2.5 0.74605,-1.46748 1.27706,-6.23771 1.28572,-11.55 0.0133,-8.17698 0.86084,-11.45015 2.96474,-11.44995 0.3025,3e-5 0.55,5.66194 0.55,12.58201 l 0,12.58195 -3.36797,3.00931 c -3.61231,3.22762 -2.48648,3.14222 -16.40244,1.24425 -3.51248,-0.47906 -4.6049,-0.21284 -6.15499,1.5 -1.99162,2.20072 -2.82211,2.50159 -3.90793,1.41576 z m 71.92862,-0.40579 c -0.263,-0.78515 -0.61876,-2.32754 -0.79056,-3.42754 -0.20027,-1.28223 -2.52066,-3.16864 -6.46558,-5.25631 -6.11655,-3.23691 -6.15717,-3.28755 -6.81851,-8.5 -1.15961,-9.13959 -1.19339,-9.17415 -11.52064,-11.78994 -5.64965,-1.431 -7.02186,-2.66687 -10.4214,-9.38595 -2.22888,-4.40529 -2.52918,-5.79163 -1.6218,-7.48708 1.64215,-3.06838 2.73524,-2.54792 3.50589,1.66928 1.09252,5.97866 2.93622,7.81722 11.23493,11.20364 9.57675,3.90794 12.29682,6.63562 12.31769,12.35212 0.0192,5.25968 0.54446,6.06225 6.54237,9.99651 2.68128,1.75875 5.5609,4.42344 6.39917,5.92153 1.38534,2.47579 1.36899,2.87893 -0.17962,4.42754 -1.41175,1.41175 -1.7857,1.45909 -2.18194,0.2762 z m -104.09529,-12.77834 c -5.07468,-3.20683 -8.84488,-7.8102 -8.05863,-9.8395 0.60633,-1.56493 1.19873,-1.24721 4.3799,2.34905 4.32124,4.88509 6.89229,6.34125 11.19632,6.34125 4.32535,0 3.37086,2.41696 -1.09489,2.77249 -2.05075,0.16327 -4.62522,-0.48741 -6.4227,-1.62329 z m 20.27563,-0.7423 c -2.01188,-4.41558 0.56093,-7.40459 9.0804,-10.54935 8.41809,-3.10733 10.77882,-4.91856 11.66407,-8.94906 0.85742,-3.9038 4.66248,-6.66846 10.30028,-7.48392 5.80623,-0.83981 6.95959,-1.7348 7.76445,-6.02505 0.81569,-4.34802 3.41517,-4.59356 3.41517,-0.3226 0,3.59896 -4.69938,8.92308 -7.87602,8.92308 -4.00689,0 -7.30867,2.43096 -9.69326,7.13671 -3.07177,6.06185 -7.6413,9.51529 -14.49069,10.95137 -8.42374,1.76617 -8.14433,1.61192 -6.80486,3.75676 1.27188,2.0366 0.59119,5.15516 -1.12522,5.15516 -0.57906,0 -1.5845,-1.1669 -2.23432,-2.5931 z m 93.224366,-0.92372 c 0,-0.28426 2.025,-2.45712 4.5,-4.82859 2.62795,-2.51802 4.5,-5.21509 4.5,-6.48317 0,-1.26348 0.6272,-2.17142 1.5,-2.17142 0.8431,0 1.5,0.89332 1.5,2.03984 0,2.94706 -3.67941,9.71822 -5.93752,10.92672 -2.00599,1.07357 -6.06248,1.41925 -6.06248,0.51662 z M -227.57254,424.74718 c -3.33221,-3.54698 -3.75997,-8.49746 -1.17252,-13.56929 1.8129,-3.55358 1.99298,-4.76395 1.09292,-7.34588 -1.36242,-3.90823 -0.36168,-9.72823 1.67276,-9.72823 1.1005,0 1.36484,0.73466 0.98302,2.73204 -0.8685,4.54325 3.25472,9.98918 12.37113,16.33973 2.47756,1.72588 1.91493,3.92823 -1.00353,3.92823 -0.99192,0 -3.50223,-1.35 -5.57849,-3 -4.43901,-3.52768 -5.08981,-3.63497 -6.46482,-1.06574 -1.61641,3.02029 -1.22321,7.01124 0.96482,9.79287 1.1,1.39842 2,2.9319 2,3.40773 0,1.6637 -2.67013,0.84517 -4.86529,-1.49146 z m 139.410686,-1.56995 c -0.35084,-0.56766 -0.16708,-1.91183 0.40836,-2.98704 1.48313,-2.77127 1.2995,-5.27982 -0.58329,-7.96788 l -1.62953,-2.32648 -2.20496,2.76529 c -1.33659,1.67624 -2.67998,2.47169 -3.41115,2.01981 -1.45848,-0.90139 -0.5867,-4.13343 2.01273,-7.46201 1.15903,-1.48414 1.86244,-4.01121 1.86244,-6.69098 0,-2.36837 0.45084,-4.58476 1.00187,-4.92532 1.39214,-0.86039 3.12693,4.13982 2.41726,6.96733 -0.39163,1.56039 0.25978,3.60261 1.97664,6.19697 1.40843,2.12827 2.80719,5.21222 3.10836,6.85322 0.83788,4.56541 -3.09932,10.56569 -4.95873,7.55709 z M -237.91066,405.35378 c -3.09992,-3.58459 -5.363,-16.25 -2.90358,-16.25 1.13513,0 2.10699,2.50523 2.10699,5.43131 0,1.24725 1.34181,4.24794 2.9818,6.66821 1.63999,2.42026 2.98999,4.73798 3,5.15048 0.0352,1.449 -3.68835,0.7309 -5.18521,-1 z m 27.70341,-1.11532 c -5.615,-2.62619 -7.91457,-5.50249 -11.4337,-14.30127 -2.28048,-5.70181 -3.0663,-9.27334 -3.0663,-13.93621 0,-7.30729 -3.19888,-19.63251 -6.61436,-25.48506 -1.3121,-2.24832 -2.38564,-5.0467 -2.38564,-6.21861 0,-6.35125 8.43897,5.87389 11.94659,17.30647 1.18122,3.85 2.54549,11.05 3.03171,16 1.05416,10.73181 2.40352,15.03403 5.90776,18.83606 3.26979,3.54764 5.66205,4.87601 10.11394,5.61605 2.16511,0.35992 3.5,1.14744 3.5,2.06485 0,2.23994 -6.31796,2.30755 -11,0.11772 z m 100.55695,-3.25968 c 0.0313,-0.75625 2.20476,-3.00921 4.82986,-5.00657 6.083756,-4.62896 7.942876,-8.64979 9.807716,-21.21177 1.54586,-10.41329 3.31443,-15.33913 5.85776,-16.3151 0.79624,-0.30554 1.44771,-1.28884 1.44771,-2.18511 0,-0.89626 3.12323,-4.60176 6.94052,-8.23444 6.638269,-6.31724 7.061639,-7.00275 9.721969,-15.74163 2.6101,-8.57385 4.54646,-11.37143 6.51103,-9.40686 0.89457,0.89457 -2.74444,12.56227 -5.70146,18.2805 -2.23037,4.31307 -13.311479,15.94598 -15.189579,15.94598 -0.77028,0 -1.10538,0.47753 -0.74467,1.06118 0.36071,0.58364 -0.27966,3.23581 -1.42305,5.8937 -1.1434,2.65789 -2.48136,8.42979 -2.97325,12.82645 -0.99422,8.8865 -4.16504,15.91067 -9.529396,21.11 -3.51031,3.40234 -9.65193,5.3201 -9.55516,2.98367 z m -67.42861,-0.66734 c -0.36094,-0.58401 1.58738,-1.52897 4.62395,-2.24266 6.91742,-1.62582 10.07967,-3.30804 15.34915,-8.16527 3.7987,-3.50152 4.462,-3.79798 5.05281,-2.25836 1.98436,5.17117 -8.22462,12.64546 -18.13402,13.27644 -3.58973,0.22858 -6.53466,-0.0321 -6.89189,-0.61015 z m 36.85685,-1.26828 c -4.64287,-2.40069 -9.48519,-7.58322 -9.48519,-10.15161 0,-2.56622 1.21639,-2.21871 4.56291,1.30361 4.46964,4.70443 8.39835,7.21716 12.26751,7.84607 1.92793,0.31338 3.69228,1.13065 3.92078,1.81616 0.67887,2.0366 -6.79759,1.49625 -11.26601,-0.81423 z m -12.49705,-20.48938 c -0.007,-0.5225 -1.35652,-6.77241 -3,-13.88869 -3.10457,-13.44282 -3.59971,-17.56131 -2.11128,-17.56131 3.40228,0 9.15194,28.3712 6.32297,31.20017 -0.65991,0.65991 -1.20516,0.77233 -1.21169,0.24983 z M -253.4527,338.79035 c -6.41289,-6.67835 -9.04541,-12.39941 -7.86664,-17.09598 1.00626,-4.00928 3.61209,-3.30579 3.61209,0.97515 0,4.6693 1.18963,6.78973 7.63568,13.61002 5.23169,5.53544 6.73101,8.82424 4.02283,8.82424 -0.73782,0 -4.06961,-2.84104 -7.40396,-6.31343 z m 160.745446,1.79805 c 0,-0.83347 1.67449,-4.03735 3.72109,-7.11975 3.45963,-5.21058 3.75825,-6.25774 4.25,-14.90314 0.54622,-9.60314 1.04223,-11.18957 3.10071,-9.91735 1.758,1.0865 0.5208,15.40785 -2.04476,23.66917 -1.2687,4.08534 -2.94363,7.31505 -4.27847,8.25 -2.79086,1.9548 -4.74857,1.96348 -4.74857,0.0211 z m -139.504026,-1.66645 c -4.95421,-3.89698 -11.86769,-15.79771 -14.87774,-25.61025 -2.92296,-9.52864 -2.89007,-12.59904 0.12875,-12.01877 1.23016,0.23647 1.80145,1.377 1.91539,3.82391 0.37511,8.0553 11.86328,29.05716 17.5631,32.10761 1.51645,0.81158 1.66222,1.30972 0.71665,2.44907 -1.57755,1.90083 -2.17984,1.81771 -5.44615,-0.75157 z m 68.50403,-1.79512 c 0,-4.01715 -2.88498,-5.64668 -11.27627,-6.36923 -9.0869,-0.78243 -20.5992,-6.21947 -18.16998,-8.58132 0.57948,-0.56342 3.2408,0.0194 6.86612,1.50374 3.25593,1.33307 7.88289,2.42376 10.28212,2.42376 5.57562,0 10.38001,2.01749 13.13011,5.51368 2.53247,3.21951 2.94698,8.48632 0.6679,8.48632 -0.99742,0 -1.5,-0.99744 -1.5,-2.97695 z m -100.44644,-24.27305 c -0.21102,-0.6875 -0.63849,-3.38894 -0.94993,-6.0032 -1.18923,-9.98261 -9.50515,-20.36233 -22.48472,-28.06483 -8.4037,-4.98704 -10.27918,-7.68197 -5.34611,-7.68197 5.71925,0 22.29183,13.45119 26.42988,21.4519 5.20242,10.05859 7.47703,21.5481 4.26594,21.5481 -0.84227,0 -1.70404,-0.5625 -1.91506,-1.25 z m 197.793595,-0.28771 c -0.32454,-0.84573 0.21257,-3.63941 1.19359,-6.20816 1.31451,-3.44199 5.38419,-8.42479 15.47228,-18.94381 15.13702,-15.78363 18.79317,-21.44598 21.41348,-33.16347 2.64204,-11.81469 8.09181,-21.02853 10.82265,-18.29769 0.88586,0.88586 0.21789,2.89705 -2.79238,8.40762 l -3.95678,7.24322 -0.0498,12.5 c -0.0597,15.00042 -0.0597,15 -1.95024,15 -1.61743,0 -1.88971,-1.29251 -1.57995,-7.5 l 0.1996,-4 -1.90573,3 c -1.04815,1.65 -7.21293,8.625 -13.69952,15.5 -13.75747,14.58126 -17.10958,18.91679 -18.68089,24.16136 -1.17314,3.91558 -3.42381,5.06988 -4.48635,2.30093 z M -305.73612,276.56899 c -0.89046,-1.07293 -1.55938,-6.45367 -2.02701,-16.30511 -0.60163,-12.67421 -1.07336,-15.64205 -3.41769,-21.50193 -1.49584,-3.73902 -2.47063,-7.0473 -2.1662,-7.35173 1.34981,-1.34981 3.63659,0.98401 6.24276,6.37117 2.56726,5.30671 2.87533,7.15092 3.47836,20.82239 0.36389,8.25 0.83196,15.85157 1.04014,16.89237 0.4924,2.46178 -1.44896,3.12291 -3.15036,1.07284 z m 291.726715,-3.81022 c -1.47586,-3.84602 7.8302298,-15.65499 12.3369498,-15.65499 3.30936,0 2.33888998,3.60593 -1.63071,6.05927 -2.28834,1.41428 -4.27535,3.80749 -5.46446,6.58156 -1.8371498,4.28591 -4.2265298,5.65987 -5.2417798,3.01416 z M -325.10265,267.3308 c 0.40395,-2.01978 -0.0103,-3.28417 -1.525,-4.65499 -2.16042,-1.95514 -2.75417,-5.03709 -1.16022,-6.0222 2.24612,-1.38818 6.08062,5.24285 6.08062,10.51527 0,2.25585 -0.45696,2.9349 -1.975,2.9349 -1.62518,0 -1.87677,-0.49116 -1.4204,-2.77298 z M 7.5198048,152.41952 c -2.1395,-3.80849 -1.5366,-14.41565 1.1031,-19.40846 2.2859002,-4.32331 5.6698002,-6.47656 5.6698002,-3.60772 0,0.79541 -0.9521,3.59871 -2.1159,6.22956 -1.1637,2.63085 -2.4115002,7.97555 -2.7729002,11.87712 -0.5826,6.28979 -0.7961,6.84621 -1.8841,4.9095 z M -356.06302,139.24801 c -0.47067,-2.39567 -1.70817,-5.20817 -2.75,-6.25 -2.37371,-2.37371 -2.37671,-2.89423 -0.0167,-2.89423 3.07508,0 4.25459,2.45325 3.92751,8.16882 l -0.30507,5.33118 -0.85577,-4.35577 z m 162.35577,173.47943 c 2.40626,-1.10198 2.53273,-1.63198 3.37297,-14.13429 1.22322,-18.20104 1.19671,-19.26266 -0.6491,-25.98937 -4.71011,-17.16518 -5.16675,-50.82224 -0.81158,-59.81882 3.28438,-6.78463 8.63112,-12.31055 14.86346,-15.36157 5.20997,-2.55052 6.71251,-2.80306 16.72425,-2.81095 13.54892,-0.0107 19.37895,1.77882 26.42015,8.10946 5.60254,5.03716 9.2439,11.88224 11.10849,20.88188 1.74397,8.41743 0.56482,44.19051 -1.70211,51.63883 -1.19474,3.92549 -1.58112,8.70859 -1.44284,17.86117 0.26135,17.29804 0.62965,18.89872 4.74404,20.61781 l 3.36544,1.40618 6.25341,-6.37201 c 6.65831,-6.78456 13.552036,-10.87368 21.958666,-13.02509 l 5.17616,-1.32468 1.10472,-5.4011 c 0.60759,-2.97061 2.88046,-9.00111 5.05081,-13.40111 7.282209,-14.76338 25.072419,-29.85578 39.463059,-33.47865 l 4.5,-1.13288 0.0588,-13.69423 c 0.0947,-22.06094 2.57169,-33.37714 11.00238,-50.26473 2.35323,-4.71377 4.97001,-11.01377 5.81507,-14 1.66773,-5.89341 3.62375,-21.92738 3.62375,-29.70488 0,-4.55131 -0.21565,-4.95704 -3.45597,-6.50224 -6.70487,-3.19733 -15.67101,-13.08989 -14.12754,-15.58726 0.51205,-0.82852 -138.876425,-2.13342 -228.008195,-2.13451 l -50.09171,-6.2e-4 -1.27092,4.25 c -2.90396,9.71099 -9.29491,18.42478 -14.79318,20.16986 -1.62473,0.51568 -1.83382,1.4408 -1.54552,6.83825 0.81744,15.3039 3.55114,23.17409 13.28328,38.24189 12.07501,18.69514 15.09107,25.69146 17.02155,39.48459 0.61197,4.37254 2.36778,10.34891 4.22277,14.37337 2.82268,6.12388 3.6706,7.10111 7.63652,8.80111 12.19508,5.22742 25.55492,19.881 34.5,37.84093 l 6.22572,12.5 6.48199,0.0681 c 8.85823,0.093 14.99428,3.55633 25.87769,14.6059 8.1049,8.22864 8.72321,8.64626 12.04352,8.13429 1.925,-0.29682 4.625,-1.05489 6,-1.68459 z m 44.5,-13.57727 c 4.92158,-1.11461 12.68899,-9.17139 17.44537,-18.09526 4.03262,-7.56598 5.3952,-19.34147 4.84023,-41.82959 -0.44706,-18.11568 -2.03253,-23.7123 -8.94073,-31.56044 -6.04121,-6.86318 -10.05855,-8.5611 -20.25581,-8.5611 -17.25251,0 -25.41611,4.17807 -30.91575,15.82245 -3.06318,6.48567 -3.15251,7.06547 -3.10884,20.17755 0.052,15.59987 3.39717,38.17767 6.58154,44.42069 4.42204,8.66948 14.22478,18.20112 20.17594,19.61796 4.46523,1.06308 9.50605,1.06583 14.17805,0.008 z M -340.67208,111.5614 c 0.9588,-1.15529 0.99372,-1.82873 0.13912,-2.68334 -1.3315,-1.33149 -1.68224,-1.06674 -2.61745,1.97572 -0.79405,2.58326 0.59301,2.9793 2.47833,0.70762 z m -5.20421,-2.20762 c 1.13686,-2.91207 0.95449,-17.610971 -0.2531,-20.398851 -0.39281,-0.90687 -0.26432,-1.9269 0.28554,-2.26673 1.1645,-0.7197 4.1366,3.15159 4.1366,5.38809 0,1.16867 1.18825,1.52749 5.05842,1.52749 l 5.05842,0 -0.2834,-3.92501 c -0.16728,-2.31683 0.19077,-4.08306 0.87388,-4.31076 1.70047,-0.56683 3.5575,3.54452 2.85866,6.32891 -0.57014,2.27163 -0.35477,2.40686 3.83318,2.40686 6.80572,0 7.60084,-0.5913 7.60084,-5.65244 0,-3.37911 -0.58584,-5.024305 -2.45455,-6.893015 -3.30339,-3.30339 -6.74987,-3.09196 -11.04299,0.67744 l -3.56713,3.131985 -7.39839,-1.193485 c -6.34495,-1.02355 -7.82631,-0.9722 -10.40378,0.360655 -2.30258,1.19071 -4.71577,1.40933 -10.31928,0.93488 l -7.31388,-0.61928 0.32472,10.87663 c 0.27117,9.083011 0.64018,11.199831 2.23766,12.836521 1.7025,1.74427 2.38123,1.83489 6.16963,0.82371 3.77937,-1.00878 4.45791,-0.92018 6.05129,0.79011 2.76195,2.96461 7.23706,2.53336 8.54766,-0.82371 z m -12.28349,-10.975241 c 0.0261,-4.27612 0.36361,-7.66226 0.75,-7.52476 0.38639,0.1375 1.17224,0.25 1.74634,0.25 0.65601,0 0.93465,2.68958 0.75,7.23939 -0.22235,5.478721 -0.65862,7.308801 -1.79381,7.524761 -1.23236,0.23445 -1.49153,-1.10186 -1.45253,-7.489391 z M 27.169405,104.5334 c 2.6207,-3.33157 3.6491,-10.306551 2.1773,-14.766211 -1.2975,-3.93144 -2.847,-4.85481 -6.8149,-4.06122 -2.6528,0.53055 -2.7401,0.75811 -2.7728,7.22281 -0.022,4.3189 -0.6342,7.794501 -1.7351,9.846621 -1.9098,3.56004 -1.3928,4.11678 3.9463,4.24943 2.2801,0.0567 3.7484,-0.64694 5.1992,-2.49143 z m -57.59756,-4.17962 c 0.29656,-2.612501 0.46758,-4.808351 0.38005,-4.879671 -0.0875,-0.0713 -63.113419,-0.45737 -140.057525,-0.85787 -131.09896,-0.6824 -139.8576,-0.62192 -139.25,0.96146 0.35661,0.92931 0.64838,3.45285 0.64838,5.607871 l 0,3.91821 138.86995,0 138.869945,0 0.5392,-4.75 z m 45.39116,1.5 c 1.9627,-3.704921 2.1891,-13.275771 0.3935,-16.630931 -1.1377,-2.125775 -5.4600002,-2.899375 -7.5638002,-1.353755 -0.55,0.404075 -1,4.400815 -1,8.881635 0,6.60886 -0.3596,8.543991 -1.905,10.250001 l -1.9049,2.10305 5.1293,0 c 4.7671002,0 5.2509002,-0.22951 6.8509002,-3.25 z M 2.7360048,99.881269 c 1.0105,-1.44265 1.5567,-4.44116 1.5567,-8.54545 0,-5.37992 -0.366,-6.68903 -2.4545,-8.777495 -1.43582002,-1.43581 -3.61477,-2.45432 -5.25001,-2.454 -2.62196,5.1e-4 -2.79545,0.26428 -2.79545,4.249995 0,4.05976 0.14451,4.26341 3.23699,4.56185 3.33998998,0.32233 6.26297,3.25107 6.26297,6.27526 0,0.90345 -0.9326,2.82832 -2.07254,4.27749 -1.13992002,1.449171 -1.61544002,2.634861 -1.05670002,2.634861 0.55873,0 1.71644002,-1.00013 2.57254002,-2.222511 z m -11.87645,-15.2819 c 0.84748,-4.517505 -1.5571398,-8.495585 -5.1353198,-8.495585 -3.48425,0 -7.43149,4.19141 -7.43149,7.89119 0,2.615005 0.40006,3.031735 3.25,3.385405 8.37995,1.03995 8.6130398,0.97037 9.3168098,-2.78101 z"
       id="path3205"
       inkscape:connector-curvature="0" />
  </g>
</svg>
