<?xml version="1.0" encoding="UTF-8" standalone="no"?>
<!-- Created with Inkscape (http://www.inkscape.org/) -->

<svg
   xmlns:dc="http://purl.org/dc/elements/1.1/"
   xmlns:cc="http://creativecommons.org/ns#"
   xmlns:rdf="http://www.w3.org/1999/02/22-rdf-syntax-ns#"
   xmlns:svg="http://www.w3.org/2000/svg"
   xmlns="http://www.w3.org/2000/svg"
   xmlns:sodipodi="http://sodipodi.sourceforge.net/DTD/sodipodi-0.dtd"
   xmlns:inkscape="http://www.inkscape.org/namespaces/inkscape"
   width="189.01587"
   height="236.81934"
   id="svg2"
   version="1.1"
   inkscape:version="0.48.3.1 r9886"
   sodipodi:docname="Close-grip-ez-bar-curl-1.svg">
  <defs
     id="defs4" />
  <sodipodi:namedview
     id="base"
     pagecolor="#ffffff"
     bordercolor="#666666"
     borderopacity="1.0"
     inkscape:pageopacity="0.0"
     inkscape:pageshadow="2"
     inkscape:zoom="2.8"
     inkscape:cx="43.844257"
     inkscape:cy="196.81152"
     inkscape:document-units="px"
     inkscape:current-layer="layer1"
     showgrid="false"
     inkscape:window-width="1855"
     inkscape:window-height="1056"
     inkscape:window-x="65"
     inkscape:window-y="24"
     inkscape:window-maximized="1"
     fit-margin-top="0"
     fit-margin-left="0"
     fit-margin-right="0"
     fit-margin-bottom="0" />
  <metadata
     id="metadata7">
    <rdf:RDF>
      <cc:Work
         rdf:about="">
        <dc:format>image/svg+xml</dc:format>
        <dc:type
           rdf:resource="http://purl.org/dc/dcmitype/StillImage" />
        <dc:title></dc:title>
      </cc:Work>
    </rdf:RDF>
  </metadata>
  <g
     inkscape:label="Ebene 1"
     inkscape:groupmode="layer"
     id="layer1"
     transform="translate(-128.36949,-178.68963)">
    <path
       style="fill:#000000"
       d="m 188.49114,412.58621 c -1.70816,-1.59567 -3.10575,-3.87525 -3.10575,-5.06574 0,-1.19049 -0.46954,-3.04188 -1.04342,-4.11418 -1.42914,-2.67037 -2.08495,-8.14249 -1.93845,-16.1745 0.0682,-3.73847 -0.81768,-10.88429 -1.98353,-16 l -2.10676,-9.24437 2.11303,-7 c 1.16217,-3.85 2.53024,-10.15 3.04016,-14 0.50992,-3.85 1.37529,-8.03367 1.92305,-9.29705 0.54775,-1.26338 0.99592,-5.63676 0.99592,-9.71862 0,-6.13418 -0.25617,-7.32326 -1.47676,-6.85488 -2.4605,0.94419 -4.05802,-3.86006 -2.24643,-6.75571 1.92052,-3.06974 3.07899,-11.16223 3.15923,-22.06864 0.0408,-5.54105 0.51737,-9.15016 1.31396,-9.95 2.26881,-2.27806 1.31836,-4.35006 -4.75,-10.3551 -3.3,-3.26557 -6.01469,-6.62648 -6.03265,-7.4687 -0.018,-0.84221 -0.88551,0.93965 -1.92792,3.9597 -2.67774,7.75798 -6.57874,11.009 -13.21004,11.009 -4.65483,0 -5.48165,-0.36013 -8.77483,-3.82198 -3.31186,-3.48149 -7.8265,-13.73941 -6.59075,-14.97516 0.26901,-0.26901 0.76286,0.36279 1.09743,1.40401 1.69949,5.28893 4.11462,9.90513 6.54138,12.50299 2.28006,2.44081 3.4764,2.89014 7.695,2.89014 4.43288,0 5.33265,-0.38434 7.99293,-3.41423 4.26302,-4.85531 5.70591,-9.84694 5.66149,-19.58577 -0.0571,-12.51454 -3.68783,-21.34521 -10.40841,-25.31515 -2.5091,-1.48217 -3.65731,-1.59669 -6.99566,-0.69777 -6.54311,1.76188 -9.71345,7.40747 -11.44412,20.37912 -0.57513,4.31074 -1.53486,4.0787 8.34813,2.0184 2.59979,-0.54197 3.03352,-0.29055 3.63535,2.10734 0.42887,1.70875 0.23958,2.997 -0.50828,3.4592 -2.24198,1.38562 -24.91452,6.26858 -25.99776,5.5991 -1.46848,-0.90757 -1.36698,-4.08303 0.16871,-5.27811 0.6875,-0.53501 3.95,-1.53054 7.25,-2.21228 l 6,-1.23953 0.0974,-4.8294 c 0.14361,-7.11841 2.24193,-13.47873 5.7758,-17.50723 2.61379,-2.97964 3.98492,-3.66231 8.35742,-4.16106 5.07424,-0.57879 5.34858,-0.4787 9.17445,3.34717 l 3.94379,3.94379 2.07205,-3.55679 c 1.13962,-1.95624 2.87372,-4.4568 3.85355,-5.5568 2.20498,-2.4754 8.22551,-5.93417 8.22551,-4.72552 0,0.48816 -1.16824,1.51278 -2.59609,2.27694 -1.42785,0.76417 -4.52882,3.93077 -6.89105,7.03689 l -4.29496,5.64751 1.70328,5.03136 1.70329,5.03137 6.67896,-3.64927 c 3.67342,-2.00711 6.68292,-4.22035 6.68776,-4.91833 0.006,-0.82571 0.81639,-1.06637 2.32044,-0.68887 1.78224,0.44731 2.56352,0.0274 3.41151,-1.83379 0.95126,-2.08779 2.02391,-2.50905 7.93837,-3.11762 6.21694,-0.6397 6.96319,-0.51674 8.21046,1.35283 1.63644,2.45291 6.37408,2.69918 13.12803,0.68241 5.586,-1.66801 6.10777,-3.67199 2.0203,-7.75946 -3.04503,-3.04503 -3.31731,-3.11468 -10.32391,-2.64095 l -7.19639,0.48656 3.88376,-1.7472 3.88377,-1.74719 -3.25869,-0.71573 c -2.2921,-0.50343 -3.5137,-0.31325 -4.11845,0.64117 -0.66982,1.05711 -0.86315,0.97026 -0.87508,-0.39311 -0.0102,-1.17174 -0.80104,-1.75 -2.39319,-1.75 -2.9188,0 -9.62212,-2.70793 -9.62212,-3.88704 0,-0.47311 -1.77875,-2.80612 -3.95277,-5.18446 -4.78817,-5.23818 -6.31966,-12.56721 -3.68908,-17.65419 2.07243,-4.00764 7.51778,-6.50741 13.08986,-6.0091 6.14155,0.54923 9.31982,2.90293 10.09669,7.47722 0.35099,2.06666 1.00127,5.18577 1.44508,6.93135 0.49924,1.96364 0.27418,5.96722 -0.59025,10.5 -0.76845,4.02942 -1.3977,7.43872 -1.39835,7.57622 -6.5e-4,0.1375 1.29372,0.25 2.87638,0.25 1.58265,0 3.38904,0.6163 4.01419,1.36956 0.62514,0.75326 3.13731,2.13363 5.58259,3.06749 2.95406,1.12817 5.15783,2.84975 6.56737,5.13044 1.16678,1.88788 2.87221,3.4182 3.78985,3.40071 2.80128,-0.0534 5.4094,-2.63364 4.7529,-4.70209 -1.33121,-4.19427 12.15059,-9.71624 14.81775,-6.06916 0.60378,0.82562 3.34779,1.8111 6.09779,2.18996 2.75,0.37886 6.2375,0.93255 7.75,1.23042 2.62953,0.51786 2.75,0.36749 2.75,-3.43254 0,-6.18736 3.56247,-16.39143 6.80828,-19.50111 2.06626,-1.9796 4.29556,-2.90864 8.04508,-3.35272 5.05538,-0.59873 5.2823,-0.51388 8.95731,3.34935 3.67553,3.86379 7.18933,12.05911 7.18933,16.76786 0,1.22017 0.23699,2.45548 0.52664,2.74514 0.71725,0.71724 12.73766,-2.09849 13.92336,-3.26149 2.18567,-2.14384 -1.06093,-2.85327 -6.47013,-1.41382 -6.39018,1.70051 -7.28559,1.78569 -6.56816,0.62485 0.75574,-1.22281 12.18505,-3.5101 13.49479,-2.70064 0.60143,0.37171 1.0935,1.69199 1.0935,2.93396 0,1.9863 -0.90288,2.471 -7.5,4.02627 -7.49742,1.76752 -7.5,1.76929 -7.5,5.13362 0,8.16508 -3.72293,19.16423 -7.64359,22.58245 -2.5488,2.22216 -9.35006,2.92399 -13.09134,1.3509 -3.39758,-1.42858 -7.35385,-7.44941 -9.3311,-14.20046 -0.68155,-2.32708 -1.95802,-4.43949 -2.83658,-4.69425 -1.32793,-0.38506 -12.96832,-2.5747 -13.68743,-2.5747 -0.1225,0 -0.014,1.0125 0.24114,2.25 0.3882,1.88297 0.19703,1.78698 -1.17187,-0.58841 -0.89966,-1.56112 -1.44484,-3.02931 -1.21152,-3.26264 0.23333,-0.23332 3.9384,0.24814 8.23349,1.06993 7.11859,1.36201 8.37039,1.34463 14.15403,-0.19649 3.64318,-0.97077 6.34477,-2.24029 6.34477,-2.98151 0,-1.66685 -2.35004,-1.61818 -8.24552,0.17076 -4.08186,1.23862 -5.75796,1.24709 -11.9851,0.0605 -5.31707,-1.01312 -7.42445,-1.0803 -7.93577,-0.25297 -0.41075,0.66461 -0.97381,0.0203 -1.37331,-1.57138 -0.82948,-3.30491 -3.03293,-3.46668 -8.59172,-0.6308 -3.60073,1.83696 -3.97914,2.36569 -3.39953,4.75 0.35871,1.47562 1.49124,3.35796 2.51673,4.18295 2.01036,1.61733 2.31559,2.72792 2.1327,7.75989 -0.0934,2.56944 -1.60109,4.85888 -7.11848,10.8094 -3.85,4.15223 -7,8.04778 -7,8.65678 0,0.60899 -0.27361,0.83366 -0.60803,0.49924 -0.33441,-0.33441 1.01955,-3.28729 3.0088,-6.56196 3.7385,-6.15422 3.82719,-7.67776 0.67901,-11.66335 -2.30104,-2.9131 -6.3074,-2.14195 -7.93127,1.52663 -1.05373,2.38053 -1.06328,3.99514 -0.0504,8.52106 1.09737,4.90358 1.02999,6.19485 -0.55296,10.59688 -2.28106,6.34343 -1.75354,17.86268 0.95508,20.85567 1.33352,1.47353 1.61224,2.89509 1.14298,5.82966 -0.46246,2.89208 0.0135,5.44147 1.86811,10.00564 1.36879,3.3686 2.4887,7.00152 2.4887,8.07317 0,1.07164 0.675,2.62343 1.5,3.44844 1.83922,1.83922 1.91074,3.28799 0.21439,4.34316 -0.99882,0.62131 -1.10427,3.03044 -0.4727,10.79969 0.44709,5.5 0.74969,11.35 0.67243,13 -0.29869,6.37958 -0.0522,15.52706 0.76832,28.51677 l 0.85384,13.51676 6.76646,6.73324 c 4.43745,4.41566 7.56171,6.73323 9.07688,6.73323 2.7962,0 5.88588,3.14456 5.10053,5.19113 -0.31244,0.81421 -2.14307,2.23144 -4.06808,3.14941 -3.81727,1.82033 -9.81596,1.43666 -14.51309,-0.92826 -1.43056,-0.72025 -5.07232,-1.22016 -8.09281,-1.11092 -9.03439,0.32678 -10.38592,-2.41622 -7.21669,-14.64669 1.87703,-7.24369 1.34242,-11.97478 -2.20057,-19.47402 -2.18904,-4.63341 -2.48522,-6.50321 -2.29677,-14.5 0.25491,-10.81733 -1.3872,-18.49667 -5.2622,-24.60862 -1.54404,-2.43538 -2.57493,-4.66038 -2.29086,-4.94444 1.60185,-1.60185 9.46092,11.31822 9.46092,15.55347 0,1.31076 0.675,3.99868 1.5,5.97319 1.97928,4.73707 1.93102,6.44839 -0.15922,5.64629 -1.48463,-0.56971 -1.5905,0.10272 -1.00612,6.39043 0.35921,3.86493 1.61665,9.20539 2.79431,11.8677 1.90876,4.31505 2.059,5.82306 1.38391,13.89094 -0.41652,4.97772 -0.81481,10.8504 -0.88509,13.0504 l -0.12779,4 7.5,0.50848 c 4.125,0.27967 8.4,0.98917 9.5,1.57667 2.85771,1.52627 8.45984,1.67413 11.75268,0.31017 4.19612,-1.73807 3.19997,-3.27897 -3.77536,-5.83989 -1.66247,-0.61036 -5.67736,-4.07778 -8.92198,-7.70536 l -5.89931,-6.59562 -0.90843,-13.62723 c -0.49966,-7.49497 -0.96952,-14.75222 -1.04415,-16.12722 -0.0746,-1.375 0.18897,-5.65 0.58577,-9.5 0.91888,-8.91535 -0.13953,-10.94815 -3.60352,-6.92101 -2.46689,2.86792 -2.52124,2.87984 -4.59108,1.00666 -1.15205,-1.0426 -2.09464,-2.60101 -2.09464,-3.46314 0,-1.14286 0.42173,-0.96542 1.5567,0.65498 2.14467,3.06194 4.05272,2.78169 5.29346,-0.77749 0.57519,-1.65 1.51921,-3 2.09782,-3 1.14952,0 1.39281,-5.04607 0.46657,-9.67724 l -0.58545,-2.92724 -5.55547,2.80224 c -6.14323,3.09871 -8.60026,3.38163 -12.17298,1.40169 -2.20267,-1.22068 -1.91576,-1.32024 3.5,-1.21456 5.22488,0.10195 6.47412,-0.28729 10.92667,-3.40453 4.69607,-3.28772 4.95184,-3.68307 3.88175,-6 -3.18294,-6.89157 -5.66599,-15.92709 -5.50723,-20.04015 0.12886,-3.33855 -0.32354,-5.01187 -1.68913,-6.24771 -1.71995,-1.55654 -2.27207,-1.56707 -7.09316,-0.13536 -5.54376,1.64632 -13.24589,1.6144 -13.78906,-0.0571 -0.19086,-0.58736 2.25294,-1.04419 5.92228,-1.10709 3.43598,-0.0589 7.93473,-0.82344 9.99723,-1.69898 3.73495,-1.58549 3.75,-1.61575 3.75,-7.54338 l 0,-5.95151 -3.25,0.36357 c -1.7875,0.19996 -4.375,0.61787 -5.75,0.92869 -2.402,0.54296 -2.4118,0.52607 -0.25,-0.43087 1.47875,-0.65458 2.25,-1.86397 2.25,-3.52821 0,-1.39272 0.45,-2.53222 1,-2.53222 0.55,0 1,0.9 1,2 0,3.02822 3.29442,2.46446 5.28439,-0.90429 1.88645,-3.19351 2.16079,-8.47035 0.75541,-14.5304 -0.57169,-2.46516 -0.54964,-4.61266 0.059,-5.75 1.16244,-2.17203 0.7287,-2.20325 -5.09884,-0.36703 -3.19083,1.00542 -3.78723,1.43739 -2.05,1.48482 1.78092,0.0486 2.14978,0.36712 1.35066,1.16624 -1.51291,1.51291 -5.59379,0.10694 -4.90437,-1.68968 0.29756,-0.77535 0.13543,-1.4097 -0.36025,-1.4097 -1.35545,0 -1.8618,2.55991 -2.57142,13 -0.8165,12.01259 -1.88743,16.20334 -5.81469,22.75405 -3.49716,5.8333 -6.03693,7.07654 -11.21185,5.48831 -6.18413,-1.89796 -7.46456,0.68985 -6.06504,12.25764 0.58492,4.8346 -1.04647,14.35215 -3.56626,20.80563 -0.81423,2.08535 -0.79327,3.10784 0.0817,3.98276 0.90283,0.90282 1.31318,0.65684 1.761,-1.05564 0.78654,-3.00776 2.35061,-2.83887 2.35061,0.25383 0,4.62893 9.55747,6.97864 16.53212,4.06445 1.90733,-0.79694 3.52413,-2.14694 3.59288,-3 0.0687,-0.85307 0.2375,-2.00103 0.375,-2.55103 0.1375,-0.55 0.30625,-1.65461 0.375,-2.45469 0.0715,-0.8321 1.63804,-1.73853 3.66029,-2.11791 2.60164,-0.48807 3.96469,-1.49039 5.1612,-3.79531 0.93627,-1.80359 1.80949,-2.5883 2.05872,-1.85005 0.64961,1.9242 -2.54296,6.21796 -4.62328,6.21796 -2.3746,0 -5.13193,3.09334 -5.13193,5.75731 0,1.15491 -0.6011,2.70093 -1.33578,3.43561 -0.73467,0.73468 -1.603,3.92495 -1.92961,7.0895 -0.32661,3.16456 -1.52501,7.2604 -2.6631,9.10188 -3.65562,5.91492 -6.07151,15.31498 -6.07151,23.62385 0,5.0093 -0.58827,9.11616 -1.66442,11.61973 -1.1116,2.58604 -1.69284,6.86137 -1.75,12.87212 -0.0835,8.78244 0.01,9.15713 3.86495,15.5 2.1728,3.575 4.45428,6.95 5.06997,7.5 2.22374,1.98648 4.61988,6.69178 4.099,8.04919 -0.79461,2.07071 -7.28433,4.45081 -12.13587,4.45081 -3.33414,0 -4.95402,-0.63699 -7.37788,-2.90121 z m 12.39425,-1.09879 c 0,-1.16636 -1.16774,-1.45883 -5.25,-1.31491 -6.82333,0.24057 -6.8505,-1.38412 -0.0308,-1.84406 4.04148,-0.27256 5.55831,0.0441 6.72224,1.40349 1.75183,2.04598 4.05861,2.32069 4.05861,0.48332 0,-0.69968 -1.26664,-2.83718 -2.81475,-4.75 -1.54812,-1.91281 -4.48903,-6.50441 -6.53537,-10.20355 -4.99155,-9.0232 -5.79153,-16.65702 -2.78339,-26.56066 2.25604,-7.42753 2.94006,-16.42018 1.10977,-14.58989 -0.56306,0.56306 -1.44946,3.63946 -1.96978,6.83645 -1.18298,7.26851 -2.00648,8.24365 -2.00648,2.37595 0,-2.79591 0.93208,-6.33827 2.46388,-9.36397 1.35514,-2.67673 2.7652,-6.2387 3.13349,-7.91547 0.66295,-3.01843 1.60231,-5.3565 6.04926,-15.0567 1.2607,-2.75 2.57753,-6.84408 2.92628,-9.09796 l 0.63408,-4.09796 -5.0855,1.04176 c -4.22306,0.86508 -5.68786,0.7545 -8.63742,-0.65205 -5.3808,-2.56592 -5.70688,-2.32523 -4.95901,3.66053 0.48723,3.89962 0.18179,6.89986 -1.12421,11.043 -1.55771,4.94162 -1.6402,6.58091 -0.62814,12.48282 0.64079,3.73678 1.48054,7.61625 1.86612,8.62105 0.4612,1.20186 0.3271,1.59579 -0.39196,1.15139 -0.60115,-0.37153 -1.38837,-2.02035 -1.74939,-3.66405 -1.00292,-4.56626 -2.10577,-3.61513 -4.02365,3.47009 -1.83712,6.78686 -1.74133,8.80097 1.0237,21.524 0.99619,4.58387 1.38448,9.23983 1.00231,12.01852 -0.48003,3.49025 -0.0332,6.17323 1.93816,11.63837 1.4091,3.90635 2.562,7.81 2.562,8.67477 0,0.86477 1.0125,2.2885 2.25,3.16383 2.88437,2.04025 10.25,1.69667 10.25,-0.47811 z m -14.5,-18.28734 c 0,-1.21252 3.27469,-6.71266 3.9966,-6.71266 0.98792,0 -1.67005,5.68015 -3.05992,6.53914 -0.51518,0.31839 -0.93668,0.39647 -0.93668,0.17352 z m 7,-51.71266 c 0,-0.55 0.675,-1 1.5,-1 0.825,0 1.5,0.45 1.5,1 0,0.55 -0.675,1 -1.5,1 -0.825,0 -1.5,-0.45 -1.5,-1 z m -3,-7.84501 c 0,-1.51118 0.61714,-2.15499 2.06574,-2.15499 1.13616,0 2.90594,-0.44966 3.93285,-0.99925 1.50035,-0.80296 1.99645,-0.59173 2.52557,1.07536 0.36215,1.14104 0.39236,2.3407 0.0671,2.66592 -0.32522,0.32522 -0.59131,0.0663 -0.59131,-0.57536 0,-1.73379 -4.07189,-1.41159 -6.17126,0.48832 -1.7179,1.55468 -1.82874,1.52437 -1.82874,-0.5 z m 10.96536,-60.34819 c 4.2388,-4.54981 6.31668,-10.84177 7.87546,-23.84734 1.08084,-9.01802 1.25549,-14.19067 0.59471,-17.6135 -0.88417,-4.57994 -1.10022,-4.83475 -3.93553,-4.64176 -5.79441,0.3944 -9.50066,1.3981 -9.56794,2.59111 -0.0374,0.66258 -4.53737,3.45409 -10,6.20335 -6.63581,3.3397 -9.93206,5.55477 -9.93206,6.67431 0,1.33343 1.95218,0.64793 9.55877,-3.35656 5.25733,-2.76771 9.8568,-4.73418 10.22104,-4.36993 0.36425,0.36425 3e-4,1.07391 -0.80877,1.57704 -1.22256,0.76025 -1.00653,1.38065 1.27896,3.6729 1.5125,1.51697 2.75,2.20585 2.75,1.53085 0,-0.675 0.47757,-1.22727 1.06127,-1.22727 1.28357,0 0.23665,8.45348 -1.43916,11.62079 -1.19623,2.26088 -7.26624,9.37921 -7.99794,9.37921 -1.15465,0 0.87456,-4.29452 2.51258,-5.31747 3.21949,-2.01061 2.47737,-8.04178 -1.52722,-12.41154 l -3.39046,-3.69964 -6.05574,2.96433 -6.05574,2.96432 -0.0538,4.66941 c -0.0485,4.20775 0.42223,5.19645 4.76085,10 2.64806,2.93183 5.55012,6.41046 6.44902,7.7303 1.65395,2.42848 8.22165,6.83279 10.44738,7.00603 0.66607,0.0518 2.13052,-0.89268 3.25432,-2.09894 z m -8.38058,-3.66962 c -0.33319,-0.53911 0.78012,-1.6716 2.47402,-2.51663 3.45761,-1.72488 3.63068,-0.15428 0.23169,2.10257 -1.2954,0.86011 -2.33199,1.01875 -2.70571,0.41406 z m -7.08478,-6.13718 c -0.99206,-2.2 -2.18541,-4 -2.65187,-4 -0.46647,0 -0.83494,-0.5625 -0.81882,-1.25 0.0487,-2.07846 5.97069,5.128 5.97069,7.26578 0,2.86389 -0.47073,2.48434 -2.5,-2.01578 z m 3.25,-10.46953 c -0.9625,-1.32368 -1.75,-2.71464 -1.75,-3.09102 0,-1.05414 2.98817,1.66993 4.08978,3.72831 1.42073,2.65466 -0.28361,2.19044 -2.33978,-0.63729 z m -56.06689,-0.71797 c -0.31922,-0.79773 -0.55618,-0.56078 -0.60416,0.60417 -0.0434,1.05416 0.19293,1.64479 0.52522,1.3125 0.33229,-0.3323 0.36782,-1.1948 0.0789,-1.91667 z m 14.31689,-0.85751 c 10.25078,-2.69011 10.53832,-2.81667 9.27322,-4.08177 -0.74828,-0.74828 -4.04022,-0.37002 -11.16372,1.28278 -8.3546,1.93845 -10.10311,2.66696 -10.106,4.21063 -0.003,1.46366 0.48223,1.72522 2.2465,1.2116 1.2375,-0.36026 5.625,-1.54072 9.75,-2.62324 z m 51,-4.31749 c 0,-1.29937 -1.28729,-3.98233 -2.86064,-5.96214 -2.60276,-3.27515 -3.03097,-3.47071 -4.75,-2.16931 -1.1835,0.89597 -1.4013,1.44223 -0.58299,1.46215 1.63523,0.0398 7.19363,6.03171 7.19363,7.75466 0,0.70243 0.225,1.27714 0.5,1.27714 0.275,0 0.5,-1.06312 0.5,-2.3625 z m 96.36991,-8.50172 c 3.67377,-3.83459 5.63009,-10.82344 5.63009,-20.11321 0,-15.64228 -6.84753,-27.20202 -15.5,-26.1665 -6.8859,0.8241 -10.55023,5.42296 -12.41207,15.57759 -1.60299,8.74282 -1.56274,8.91526 1.91207,8.19134 1.65,-0.34375 4.28524,-0.8933 5.85609,-1.22122 2.11814,-0.44217 3.02153,-0.16507 3.49641,1.07244 1.08775,2.83463 -1.07998,5.30194 -5.2819,6.01185 -5.89614,0.99615 -6.49385,2.30567 -4.04265,8.85708 2.79581,7.47249 6.63731,10.65485 12.86168,10.65485 3.90716,0 5.21652,-0.50136 7.48028,-2.86422 z m -5.36991,0.6403 c 0,-0.25784 0.71924,-1.91056 1.59832,-3.67272 5.54825,-11.12173 3.59296,-30.6698 -3.8859,-38.84942 -1.1295,-1.23533 -1.77679,-2.52291 -1.43841,-2.86128 1.34624,-1.34624 5.85252,5.27717 7.73337,11.36666 3.4066,11.02927 2.01248,29.48953 -2.51054,33.2433 -0.82326,0.68325 -1.49684,1.03131 -1.49684,0.77346 z m -46.56332,-4.9496 c 1.6842,-3.37607 2.09266,-7.82648 0.71831,-7.82648 -0.46476,0 -1.62288,0.85953 -2.5736,1.91006 -0.95072,1.05054 -2.8393,2.18884 -4.19685,2.52956 -2.22833,0.55928 -2.31775,0.77003 -0.91986,2.16792 0.85163,0.85163 2.01805,2.42593 2.59204,3.49844 1.27189,2.37654 2.33261,1.8245 4.37996,-2.2795 z m -13.73229,-3.32797 c 7.16727,-1.54177 13.39903,-4.72842 11.99416,-6.13329 -0.23852,-0.23853 -5.33078,0.97024 -11.31612,2.68615 -5.98533,1.71591 -12.11993,3.11141 -13.63243,3.10112 -1.81621,-0.0124 -2.75,0.50357 -2.75,1.51943 0,1.80123 2.87444,1.58646 15.70439,-1.17341 z M 210.11234,207.7809 c 1.36328,-2.08102 1.75916,-4.68098 1.71296,-11.25 -0.0851,-12.09627 -2.56041,-16.04348 -10.061,-16.04348 -5.90325,0 -10.20747,2.34544 -11.94775,6.51052 -1.39857,3.34724 -1.0621,6.48948 0.69488,6.48948 0.50164,0 0.64245,1.07424 0.31292,2.38719 -0.44098,1.75699 -0.0196,2.79313 1.59612,3.92483 1.2074,0.84569 3.00654,2.87165 3.99809,4.50213 1.13629,1.86848 3.40446,3.53082 6.13483,4.49624 5.7682,2.03953 5.53621,2.07074 7.55895,-1.01691 z m 16.88004,175.12473 c -0.86706,-2.25952 -0.74939,-4.41821 0.24083,-4.41821 0.4663,0 0.8862,1.35 0.93312,3 0.0951,3.34467 -0.26689,3.78197 -1.17395,1.41821 z m -23.61867,-86.37927 c 1.91857,-0.4861 6.64357,-1.19516 10.5,-1.57567 3.85642,-0.38052 7.79918,-1.10625 8.76168,-1.61274 1.11207,-0.5852 1.75,-0.55759 1.75,0.0757 0,1.46882 -6.36408,2.8435 -16,3.45611 -5.94091,0.37769 -7.44977,0.27429 -5.01168,-0.34344 z m 4.01168,-3.07412 c 0,-0.70582 7.42219,-4.57536 12,-6.25618 3.44824,-1.26607 -4.29466,-0.59177 -10.00588,0.87138 -3.39208,0.86901 -6.39781,1.34962 -6.6794,1.06803 -0.71087,-0.71087 8.89774,-3.47469 14.8037,-4.25815 4.11773,-0.54623 4.88158,-0.39142 4.88158,0.98937 0,0.97682 -1.61591,2.28348 -4.00711,3.24025 -2.20392,0.88183 -5.57892,2.40468 -7.5,3.38411 -1.92109,0.97942 -3.49289,1.41196 -3.49289,0.96119 z m -16.45,-3.76999 c 0.5225,-0.44284 2.6375,-2.04075 4.7,-3.55089 4.26823,-3.12517 4.76804,-5.31613 1.5,-6.57533 -1.95148,-0.75192 -2.48811,-0.38279 -4.04467,2.78222 l -1.79467,3.64917 0.65002,-3.5 c 0.89232,-4.8046 1.30654,-5.05075 6.43932,-3.82657 6.1125,1.45785 15.92853,1.18588 21.06456,-0.58363 3.21593,-1.10798 3.89653,-1.14528 2.83391,-0.15533 -2.37327,2.21097 -7.90813,3.56553 -14.56913,3.56553 -5.73623,0 -6.48016,0.23691 -7.45377,2.37374 -0.59485,1.30556 -2.78397,3.33056 -4.86471,4.5 -3.76215,2.11445 -6.27495,2.85862 -4.46086,1.32109 z m 16.877,-16.67336 c -1.69187,-1.27997 -1.72067,-1.46174 -0.23602,-1.48967 0.93004,-0.0175 1.9876,0.44814 2.35014,1.03473 1.08933,1.76258 -0.059,2.0097 -2.11412,0.45494 z m -44.18852,-4.02147 c 0.20184,-0.55 1.18047,-2.79204 2.17473,-4.98231 4.5147,-9.94545 2.57957,-29.03951 -3.66373,-36.15023 -2.15682,-2.45649 -2.53426,-3.36746 -1.39523,-3.36746 1.94208,0 6.08433,7.00871 7.6832,13 1.51525,5.67796 1.55163,18.21275 0.0687,23.65534 -0.62273,2.28543 -2.05527,5.21043 -3.18343,6.5 -1.12816,1.28956 -1.88606,1.89466 -1.68421,1.34466 z m 51.76152,-0.87756 c 0,-0.20765 0.6853,-0.9463 1.52289,-1.64144 1.27335,-1.05678 1.41968,-0.99492 0.89301,0.37756 -0.53789,1.40173 -2.4159,2.38422 -2.4159,1.26388 z m 16.25,-7.72182 c -2.87662,-2.03746 -4.22813,-3.71958 -4.18232,-5.20541 0.0657,-2.1311 0.0962,-2.1368 1.04452,-0.19521 1.20352,2.46411 7.21241,6.5 9.67761,6.5 2.36712,0 7.4318,-5.37601 10.11713,-10.73904 1.16739,-2.33148 2.76501,-7.597 3.55027,-11.70117 0.78526,-4.10416 2.15449,-8.72159 3.04275,-10.26095 1.55544,-2.69561 1.59316,-2.70663 1.0227,-0.29884 -0.32577,1.375 -1.26231,5.85787 -2.0812,9.96193 -1.95764,9.81115 -5.44946,17.22921 -10.13637,21.53381 -4.61746,4.24081 -6.54774,4.30564 -12.05509,0.40488 z m -20.25,-10.90062 c 0,-0.55 0.9,-1 2,-1 1.35244,0 2,-0.66667 2,-2.05902 0,-1.13246 0.45,-1.7809 1,-1.44098 1.42111,0.87829 1.24106,2.11608 -0.57143,3.92857 -1.75976,1.75976 -4.42857,2.10412 -4.42857,0.57143 z m 10.5,0.0129 c -1.1,-0.40485 -2.5625,-0.52522 -3.25,-0.26748 -0.6875,0.25773 -1.25,-0.0295 -1.25,-0.63839 0,-1.41825 5.66793,-1.4533 6.54112,-0.0405 0.92801,1.50155 0.28167,1.80122 -2.04112,0.94633 z m 24.55763,-4.76286 c 0.0317,-0.9625 0.42995,-3.55 0.885,-5.75 0.81853,-3.95723 0.8286,-3.93852 0.94237,1.75 0.0649,3.24333 -0.32094,5.75 -0.885,5.75 -0.55,0 -0.97407,-0.7875 -0.94237,-1.75 z m -30.05763,-3.34362 c 0,-0.49851 0.9,-0.90638 2,-0.90638 1.1,0 2,0.17252 2,0.38337 0,0.21085 -0.9,0.61872 -2,0.90638 -1.1,0.28765 -2,0.11514 -2,-0.38337 z m -34.85601,-18.40638 c 0.23902,-1.2699 1.28534,-2.0917 2.86623,-2.2512 1.36938,-0.13816 4.85228,-0.73293 7.73978,-1.32172 5.46136,-1.11361 6.23636,-2.21554 4.21482,-5.99282 -0.59561,-1.11291 -0.64104,-1.93426 -0.10699,-1.93426 1.11432,0 2.14217,2.43833 2.14217,5.08179 0,1.86611 1.56596,2.29643 8.25,2.26709 0.9625,-0.004 1.75,0.42671 1.75,0.95764 0,0.5688 -1.84846,0.71197 -4.5,0.34853 -6.26023,-0.85806 -13.48506,0.2203 -12.8345,1.91564 0.40926,1.0665 -0.0774,1.1001 -2.52927,0.17463 -2.60135,-0.9819 -3.34619,-0.86674 -5.20235,0.80435 -2.15014,1.93576 -2.16351,1.93539 -1.78989,-0.0497 z m 7.1062,-10.25 c 0.85808,-0.9625 2.04285,-3.775 2.63281,-6.25 l 1.07265,-4.5 -0.47913,4.89911 c -0.47929,4.90069 -1.81287,7.60089 -3.75395,7.60089 -0.5679,0 -0.33047,-0.7875 0.52762,-1.75 z"
       id="path3077"
       inkscape:connector-curvature="0" />
  </g>
</svg>
