<?xml version="1.0" encoding="UTF-8" standalone="no"?>
<!-- Created with Inkscape (http://www.inkscape.org/) -->

<svg
   xmlns:dc="http://purl.org/dc/elements/1.1/"
   xmlns:cc="http://creativecommons.org/ns#"
   xmlns:rdf="http://www.w3.org/1999/02/22-rdf-syntax-ns#"
   xmlns:svg="http://www.w3.org/2000/svg"
   xmlns="http://www.w3.org/2000/svg"
   xmlns:sodipodi="http://sodipodi.sourceforge.net/DTD/sodipodi-0.dtd"
   xmlns:inkscape="http://www.inkscape.org/namespaces/inkscape"
   width="211.54964"
   height="213.44003"
   id="svg2"
   version="1.1"
   inkscape:version="0.48.3.1 r9886"
   sodipodi:docname="Close-grip-bench-press-1.svg">
  <defs
     id="defs4" />
  <sodipodi:namedview
     id="base"
     pagecolor="#ffffff"
     bordercolor="#666666"
     borderopacity="1.0"
     inkscape:pageopacity="0.0"
     inkscape:pageshadow="2"
     inkscape:zoom="2.8"
     inkscape:cx="167.40264"
     inkscape:cy="132.1213"
     inkscape:document-units="px"
     inkscape:current-layer="layer1"
     showgrid="false"
     inkscape:window-width="1855"
     inkscape:window-height="1056"
     inkscape:window-x="65"
     inkscape:window-y="24"
     inkscape:window-maximized="1"
     fit-margin-top="0"
     fit-margin-left="0"
     fit-margin-right="0"
     fit-margin-bottom="0" />
  <metadata
     id="metadata7">
    <rdf:RDF>
      <cc:Work
         rdf:about="">
        <dc:format>image/svg+xml</dc:format>
        <dc:type
           rdf:resource="http://purl.org/dc/dcmitype/StillImage" />
        <dc:title></dc:title>
      </cc:Work>
    </rdf:RDF>
  </metadata>
  <g
     inkscape:label="Ebene 1"
     inkscape:groupmode="layer"
     id="layer1"
     transform="translate(-106.78719,-198.76167)">
    <path
       style="fill:#000000"
       d="m 206.62153,409.36049 c -2.37675,-2.22021 -3.10576,-3.75763 -3.10576,-6.54976 0,-3.6161 0.0799,-3.68589 8.99125,-7.84879 l 8.99126,-4.20024 0.009,-15.55887 c 0.006,-10.97141 -0.35981,-16.01244 -1.24125,-17.09721 -1.51438,-1.86371 -9.42349,-7.12654 -14.93725,-9.93945 -2.21278,-1.12887 -7.16059,-4.0635 -10.99515,-6.52139 l -6.97193,-4.46889 -6.92283,3.19094 -6.9231,3.19095 0,21.79294 c 0,13.44994 -0.38283,22.02955 -1,22.41098 -0.66132,0.40872 -1,-15.51739 -1,-47.02432 0,-37.66935 -0.26166,-47.55516 -1.25,-47.22584 -0.97221,0.32395 -1.30772,11.16724 -1.50973,48.79307 -0.14285,26.6071 -0.64434,48.76116 -1.11442,49.23124 -0.47293,0.47293 -0.67632,-13.80267 -0.45534,-31.95973 0.51139,-42.02018 -0.38743,-66.31442 -2.45344,-66.31442 -1.28329,0 -1.40824,6.04762 -0.97112,47 0.27593,25.85 0.17516,47 -0.22392,47 -0.97212,0 -2.00864,-13.99344 -2.01604,-27.21725 l -0.006,-10.71724 -9.62496,4.46724 c -5.29372,2.45699 -10.08875,4.46725 -10.65561,4.46725 -0.56685,0 -2.53562,-1.1479 -4.37504,-2.55089 -2.79478,-2.13168 -3.34439,-3.19824 -3.34439,-6.48997 l 0,-3.93907 9,-4.52007 9,-4.52007 0,-8.36497 c 0,-12.10999 -0.54123,-13.92039 -4.8388,-16.18555 -2.01331,-1.06118 -4.94099,-3.05441 -6.50595,-4.42941 -4.34951,-3.82155 -5.11999,-3.2569 -5.45805,4 -0.16655,3.575 -0.75955,6.95 -1.31779,7.5 -0.68576,0.67563 -0.92531,-1.71559 -0.73851,-7.3718 0.25124,-7.6075 0.0748,-8.53509 -1.93221,-10.1603 -2.58137,-2.09026 -3.11368,-8.40665 -0.78381,-9.3007 1.15616,-0.44366 1.21881,-1.2182 0.33222,-4.10699 -0.60097,-1.95812 -1.39731,-3.56021 -1.76966,-3.56021 -0.37234,0 -3.2109,0.83594 -6.3079,1.85765 -3.097,1.02171 -5.86685,1.62171 -6.15522,1.33333 -0.28838,-0.28837 -0.52432,-1.72807 -0.52432,-3.19932 0,-2.40094 0.61474,-2.86113 6,-4.49166 l 6,-1.81665 0,-4.37686 c 0,-4.06698 -0.1416,-4.30108 -2,-3.30649 -1.40216,0.75042 -2,0.75353 -2,0.0104 0,-0.58296 1.125,-1.48766 2.5,-2.01043 1.62533,-0.61795 2.5,-1.72336 2.5,-3.15952 0,-1.21497 0.96042,-4.193 2.13427,-6.61785 1.68181,-3.47416 3.10469,-4.82479 6.7118,-6.37097 2.51764,-1.07919 5.5341,-1.72208 6.70325,-1.42864 3.59195,0.90152 7.40333,4.55003 9.89997,9.47691 1.33345,2.63144 3.52101,5.22114 4.96686,5.87991 l 2.58385,1.17728 0,-33.97856 c 0,-21.98571 0.35295,-33.97856 1,-33.97856 0.64101,0 1,9.32698 1,25.98095 l 0,25.98095 2.45709,0.61669 c 5.13361,1.28845 5.06741,1.65996 4.70639,-26.41193 -0.30054,-23.36823 -0.16685,-26.16666 1.25,-26.16666 1.40435,0 1.58652,2.7385 1.58652,23.84912 0,13.11702 0.28653,27.23878 0.63673,31.3817 l 0.63674,7.53257 10.26918,-3.43878 c 8.50096,-2.84666 10.36991,-3.84009 10.85415,-5.76946 0.38374,-1.52893 1.9588,-2.88039 4.5786,-3.92863 5.62229,-2.2496 11.62323,-3.08497 12.45802,-1.73425 1.28212,2.07451 3.70708,1.11424 7.30379,-2.89227 3.41091,-3.79953 3.88337,-4 9.42683,-4 3.20978,0 5.83596,0.42564 5.83596,0.94586 0,0.80487 11.18594,-2.65744 27.75,-8.58929 l 4.25,-1.52199 0.12421,-9.16729 c 0.0683,-5.04201 0.44751,-12.31729 0.84266,-16.16729 l 0.71845,-7 0.15734,5.55 c 0.14349,5.06151 1.34672,7.95 3.31165,7.95 0.41487,0 0.91173,-3.0375 1.10414,-6.75 l 0.34983,-6.75 0.19586,6.83333 c 0.14202,4.95498 0.53946,6.71989 1.44586,6.42063 0.77398,-0.25553 1.36338,-2.76258 1.54772,-6.58333 0.16374,-3.39385 0.72624,-6.17063 1.25,-6.17063 0.52375,0 0.95228,1.14539 0.95228,2.54531 0,2.36743 0.26208,2.50882 3.75,2.02307 l 3.75,-0.52224 -3.19216,1.105 c -1.75568,0.60775 -3.37322,1.60987 -3.59452,2.22693 -0.22131,0.61706 -0.19049,5.32205 0.0685,10.45553 0.42339,8.39291 0.65317,9.28592 2.27994,8.86051 1.78971,-0.46803 2.93824,1.05999 2.93824,3.90912 0,0.7918 -1.125,1.95223 -2.5,2.57872 -2.30268,1.04917 -2.5,1.66516 -2.5,7.80425 0,5.67406 0.34416,6.98849 2.31445,8.83949 2.59606,2.43887 8.01051,2.89463 12.12374,1.02052 4.43426,-2.02039 7.06798,-9.09091 7.02006,-18.84621 -0.0665,-13.54021 -4.38793,-23.20116 -11.83995,-26.4693 -2.03886,-0.89415 -2.49532,-1.39579 -1.31864,-1.44913 3.92432,-0.17788 7.5386,2.90715 10.6124,9.05836 1.69837,3.39873 3.08794,7.23264 3.08794,8.51979 0,1.28715 0.45679,2.34028 1.0151,2.34028 2.27977,0 12.9849,-3.38423 12.9849,-4.10493 0,-1.81343 -2.36233,-1.93546 -7.08725,-0.36609 -2.77327,0.92113 -5.26335,1.45376 -5.5335,1.18361 -0.27015,-0.27015 2.18879,-1.39622 5.4643,-2.50238 4.33286,-1.46323 6.2553,-1.71136 7.05596,-0.9107 2.30975,2.30975 1.14968,4.36992 -3.14951,5.59324 -9.7051,2.76157 -9.75,2.80153 -9.75,8.67935 0,8.79572 -1.81059,15.08467 -5.45557,18.94946 -2.88809,3.06228 -3.86466,3.47463 -8.16251,3.44664 -2.69702,-0.0176 -5.75063,-0.68886 -6.82295,-1.49993 -1.52406,-1.15275 -2.11152,-1.19962 -2.73469,-0.2182 -0.43651,0.68746 -0.80055,20.03743 -0.80897,42.99993 -0.01,27.15646 -0.36486,41.75 -1.01531,41.75 -0.65063,0 -1,-14.52778 -1,-41.58333 0,-32.82522 -0.26327,-41.4944 -1.25,-41.16105 -0.97308,0.32873 -1.25,9.59638 -1.25,41.83333 0,22.77608 -0.21766,41.86105 -0.48368,42.41105 -0.26603,0.55 -0.71603,-18.08767 -1,-41.41704 -0.39771,-32.67275 -0.80348,-42.51267 -1.76632,-42.83333 -0.98418,-0.32777 -1.25,7.05682 -1.25,34.72605 0,23.17359 -0.34058,34.93186 -1,34.52432 -0.63273,-0.39105 -1,-12.29186 -1,-32.40345 0,-17.48199 -0.29215,-36.56032 -0.64923,-42.3963 -0.59045,-9.65009 -0.80603,-10.52697 -2.38083,-9.68416 -2.01161,1.07658 -7.78992,2.95488 -16.96994,5.51625 -10.92681,3.04876 -11.52008,4.44159 -5.86525,13.76997 1.60113,2.64128 3.59701,6.69128 4.43529,9 2.92039,8.04308 4.33398,13.04398 3.89011,13.76217 -0.6735,1.08974 2.40682,7.99874 5.23916,11.7512 3.53029,4.67713 2.18804,5.07441 -1.64127,0.48577 l -3.17238,-3.80145 0.69506,3 c 0.38228,1.65 1.14713,3.57337 1.69967,4.27417 0.55254,0.70079 0.70799,1.57079 0.34544,1.93333 -1.53902,1.53903 -2.91407,-2.07239 -3.67932,-9.6634 -0.85434,-8.47467 -7.34553,-27.83686 -11.16323,-33.29812 -1.05886,-1.51472 -2.29925,-4.05827 -2.75643,-5.65235 l -0.83122,-2.89832 15.90218,-5.19642 c 10.49815,-3.43052 15.90219,-5.6726 15.90219,-6.59766 0,-0.77067 -0.20152,-1.40123 -0.44783,-1.40123 -0.24631,0 -7.28085,2.32106 -15.63231,5.15792 -11.54401,3.92132 -15.5839,4.90848 -16.8505,4.11747 -1.76719,-1.10363 -11.77863,-0.006 -13.13827,1.44058 -0.40533,0.43122 -0.89314,1.63926 -1.08403,2.68454 -0.46736,2.55925 -7.43565,5.11398 -8.23897,3.02058 -0.76301,-1.98837 -5.32449,-1.73277 -10.43068,0.58448 -3.28845,1.49234 -4.18956,2.38424 -3.76654,3.72804 0.46634,1.48139 -1.25638,2.39258 -10.67741,5.64753 -6.1784,2.13462 -11.65346,4.26462 -12.16679,4.73333 -2.38494,2.17761 1.06996,1.69167 11.15697,-1.56924 12.37175,-3.99952 12.42431,-4.00941 12.20171,-2.29523 -0.35809,2.75766 0.16209,3.5399 2.0293,3.05161 2.94989,-0.77142 3.58721,3.63366 1.74275,12.04577 -1.55731,7.10248 -0.94031,15.31194 1.36741,18.19404 0.45863,0.57279 0.60175,4.39779 0.31804,8.5 -0.96562,13.96198 -0.71003,15.6064 3.76719,24.23708 1.64869,3.17818 2.8081,6.32818 2.57645,7 -0.23165,0.67183 -2.35202,-2.6035 -4.71194,-7.2785 -3.06694,-6.07562 -4.26296,-9.64089 -4.19327,-12.5 0.30117,-12.35742 -0.002,-17.40947 -1.36005,-22.64961 -1.18882,-4.58783 -1.29341,-7.15342 -0.49275,-12.0872 1.50646,-9.28292 1.34374,-13.76319 -0.49986,-13.76319 -0.84227,0 -1.78918,-0.6718 -2.10426,-1.49289 -0.65362,-1.70331 -1.71595,-1.54378 -14.11436,2.11957 l -8.25,2.43761 0,3.46785 c 0,2.03056 0.49736,3.46786 1.2,3.46786 0.93333,0 0.93333,0.26667 0,1.2 -0.66,0.66 -1.2,2.70539 -1.2,4.54531 0,3.31754 0.0311,3.33978 3.75,2.67871 2.7382,-0.48674 3.46827,-0.36564 2.70583,0.44885 -0.57429,0.61351 -2.21353,1.21224 -3.64275,1.33053 -2.26979,0.18785 -2.67542,0.77563 -3.20583,4.6454 -0.33399,2.43669 -0.60725,5.4399 -0.60725,6.6738 0,2.19218 0.0944,2.21094 4.1302,0.8205 4.13429,-1.42438 8.13934,-1.25197 4.3698,0.18811 -9.14649,3.49425 -8.5,2.74737 -8.5,9.81994 0,6.33911 0.0557,6.47261 3.14922,7.55102 3.9331,1.37109 8.85078,1.42544 8.85078,0.0978 0,-0.55 -0.43417,-1 -0.96482,-1 -3.82196,0 -3.39544,-11.36701 0.57552,-15.33797 4.11118,-4.11119 10.16942,-7.85242 12.06853,-7.45285 1.36819,0.28786 0.88045,0.83882 -1.96225,2.21656 -4.30439,2.08617 -10.71698,9.07049 -10.71698,11.67247 0,0.95602 -0.27267,2.44879 -0.60594,3.31727 -0.39372,1.02601 0.53431,2.54317 2.64967,4.33179 1.79059,1.514 6.22576,5.73644 9.85594,9.3832 3.63018,3.64676 7.55662,7.12 8.72542,7.71833 1.1688,0.59833 2.36044,1.98787 2.6481,3.08787 0.52229,1.99726 0.51767,1.99728 -3.36046,0.0188 -2.13592,-1.08966 -4.61682,-3.10042 -5.51311,-4.46834 -0.8963,-1.36792 -2.24374,-2.48713 -2.99431,-2.48713 -0.75056,0 -2.24564,-1.72686 -3.32239,-3.83746 l -1.95773,-3.83747 -5.49249,0.45548 c -4.51177,0.37415 -6.04067,0.0651 -8.56259,-1.73063 l -3.07011,-2.18611 0,5.47845 0,5.47846 6.5957,4.16556 c 3.62764,2.29106 10.94014,6.45169 16.25,9.24584 9.64939,5.07769 15.24914,8.57074 24.6543,15.37905 2.75,1.9907 6.88798,4.54532 9.1955,5.67693 3.83991,1.88309 4.65183,1.94801 9.57945,0.76589 6.33365,-1.51942 20.92697,-8.93629 21.55611,-10.95563 0.3191,-1.02417 -0.17431,-1.24186 -1.83215,-0.80832 -3.72021,0.97285 -11.00299,-3.05555 -12.64991,-6.99719 l -1.40948,-3.37336 -7.71976,0.2668 c -4.24587,0.14674 -8.84476,0.83709 -10.21976,1.5341 -5.29074,2.68196 -13.20412,0.99279 -16.45343,-3.51212 -1.53584,-2.12931 -1.58929,-2.41488 -0.25,-1.33583 0.93689,0.75485 1.71032,0.97985 1.71874,0.5 0.008,-0.47984 0.34592,-0.42244 0.75,0.12756 2.46084,3.3495 8.87275,4.42454 13.91959,2.33379 1.54831,-0.64141 3.9401,-1.2695 5.3151,-1.39575 1.375,-0.12625 4.12736,-0.66551 6.11635,-1.19834 2.06716,-0.55378 4.27572,-0.59979 5.15555,-0.10741 1.21045,0.6774 1.42767,0.43488 1.01702,-1.13546 -0.73594,-2.81423 0.37307,-2.48959 4.038,1.18207 2.82593,2.83111 2.92692,3.11486 0.92308,2.59362 -1.2375,-0.32191 -2.23382,-0.28991 -2.21404,0.0711 0.0716,1.30578 4.52128,5.9303 6.96404,7.23758 4.91811,2.63201 7.61719,2.25944 11.94286,-1.64854 4.63305,-4.18569 5.57279,-2.79447 1.12009,1.65823 -1.61537,1.61538 -3.20553,3.78299 -3.53369,4.81692 -0.72948,2.29838 -12.30385,8.50796 -21.35938,11.45917 l -6.66987,2.17379 -5.5,-2.23964 c -3.025,-1.23179 -5.8375,-2.25345 -6.25,-2.27035 -0.4125,-0.0169 -0.75,6.93976 -0.75,15.45924 l 0,15.48997 -9,4.52007 c -8.6759,4.3573 -9,4.64221 -9,7.91183 0,2.71483 0.62788,3.78931 3.14596,5.38365 l 3.14597,1.99188 11.60403,-5.4982 c 6.38222,-3.02402 16.66461,-7.81368 22.84976,-10.64369 l 11.24572,-5.14547 0.004,-4.03439 c 0.004,-3.39487 -0.45611,-4.30635 -2.90001,-5.75 -3.86099,-2.28074 -4.33095,-2.22505 -12.32738,1.46074 -6.44031,2.96853 -6.88053,3.37745 -6.72844,6.25 0.24033,4.53905 0.0366,5.23933 -1.03989,3.57365 -1.12233,-1.73668 -1.14389,-12.0283 -0.0419,-20 l 0.7603,-5.5 0.24212,5 c 0.13316,2.75 0.16204,6.4625 0.0642,8.25 -0.0979,1.7875 0.0254,3.25 0.27384,3.25 0.24847,0 3.8969,-1.56999 8.10761,-3.48888 l 7.65584,-3.48887 3.48915,2.23887 c 3.80307,2.44031 4.76914,4.66296 4.27254,9.82986 -0.32145,3.3445 -0.47882,3.44157 -22.82368,14.07774 -12.375,5.89051 -23.46491,10.7373 -24.64424,10.77065 -1.17934,0.0334 -3.54184,-1.24491 -5.25,-2.84058 z m -54.67633,-57.54079 9.57057,-4.44201 0,-13.54545 0,-13.54545 -3.98013,-2.51255 c -2.18907,-1.38189 -4.18279,-2.51254 -4.43049,-2.51254 -0.24769,0 -0.19119,4.91262 0.12556,10.91693 l 0.57592,10.91692 -9.14543,4.59311 c -8.80781,4.42355 -9.14543,4.71745 -9.14543,7.9611 0,3.29583 2.71151,6.4275 5.67943,6.55949 0.64869,0.0289 5.48619,-1.94645 10.75,-4.38955 z m 27.05837,-12.76434 c 2.49772,-1.21348 4.40684,-2.60973 4.2425,-3.10276 -0.16435,-0.49304 -2.4209,-2.4683 -5.01456,-4.38948 l -4.71574,-3.49304 0,6.59581 c 0,3.6277 0.21296,6.59581 0.47325,6.59581 0.26028,0 2.51684,-0.99285 5.01455,-2.20634 z m -17.4878,-24.55894 c 0,-3.64165 -0.17239,-3.82577 -5.25,-5.60749 -7.5999,-2.66678 -11.53412,-6.62723 -6.58333,-6.62723 1.19166,0 1.87856,0.2881 1.52644,0.64023 -0.86446,0.86446 5.79243,4.35977 8.30327,4.35977 1.8448,0 2.00362,-0.66163 2.00362,-8.34699 0,-6.62094 -0.37445,-8.77874 -1.8108,-10.43486 -1.80436,-2.08044 -1.81453,-2.07384 -2.86351,1.85617 -0.88006,3.29715 -0.82909,3.75843 0.31079,2.81241 0.82127,-0.68159 1.36352,-0.73393 1.36352,-0.13162 0,0.55 -0.675,1.5602 -1.5,2.24489 -0.825,0.68469 -1.5,0.9994 -1.5,0.69937 0,-0.30004 -1.31539,0.76986 -2.92308,2.37755 -2.48253,2.48254 -3.70811,2.92308 -8.13192,2.92308 -4.67733,0 -5.55253,-0.36441 -8.57692,-3.5712 -1.85245,-1.96416 -3.36808,-4.04426 -3.36808,-4.62245 0,-0.64892 -0.57406,-0.57481 -1.5,0.19365 -2.53218,2.10152 -1.70116,4.71654 2.25,7.08021 2.0625,1.23383 4.65,3.03987 5.75,4.01342 1.7713,1.56769 21.47903,13.90637 22.21169,13.90637 0.15857,0 0.28831,-1.69438 0.28831,-3.76528 z M 150.35931,297.5792 c 8.35955,-5.3013 8.58608,-30.11852 0.36414,-39.89318 -5.69352,-6.76875 -13.46698,-7.01181 -17.7401,-0.5547 -2.37674,3.59151 -4.46758,11.62862 -4.46758,17.17325 0,2.315 0.34233,2.68037 2.08454,2.22477 1.5794,-0.41302 1.76114,-0.74715 0.75,-1.37885 -0.84571,-0.52834 -0.0185,-0.78662 2.25834,-0.70513 1.97608,0.0707 4.09101,-0.17927 4.69983,-0.55555 1.33541,-0.82533 3.56989,2.98459 2.85027,4.85989 -0.28107,0.73245 -3.00139,2.05569 -6.04516,2.94054 -5.43329,1.5795 -5.51536,1.65857 -4.50432,4.34013 2.03968,5.40986 6.02672,11.23167 8.69032,12.68949 3.01725,1.65136 7.36393,1.20306 11.05972,-1.14066 z m -2.11922,-3.5675 c 1.38951,-2.54321 1.76853,-5.53349 1.74278,-13.75 -0.0362,-11.56932 -1.9418,-17.68083 -7.2814,-23.35296 -2.38213,-2.53048 -2.45963,-2.81306 -0.6857,-2.5 2.67635,0.47232 8.17429,11.55666 9.59735,19.34909 0.60226,3.29787 0.80535,8.17969 0.45132,10.8485 -0.74553,5.62011 -3.34883,12.65537 -4.68293,12.65537 -0.50441,0 -0.11804,-1.4625 0.85858,-3.25 z m 18.48555,-20.5 c -0.34323,-18.65558 -0.51476,-20.25 -2.17849,-20.25 -0.67232,0 -1.03138,6.61456 -1.03138,19 0,17.50315 0.1393,19 1.76822,19 1.63681,0 1.74395,-1.3191 1.44165,-17.75 z m 4.85671,14 c 0.0366,-2.0625 0.2664,-10.05 0.51064,-17.75 0.48205,-15.1978 0.28055,-16.76639 -2.03937,-15.87615 -2.28142,0.87546 -2.31838,37.37615 -0.0378,37.37615 1.05483,0 1.51976,-1.11292 1.56658,-3.75 z m -42.11364,-5.64324 c 5.19912,-1.82843 9.62412,-3.83794 9.83333,-4.46559 0.20922,-0.62764 -0.2196,-1.13575 -0.95294,-1.12912 -2.19082,0.0198 -18.93094,5.64312 -18.8802,6.34221 0.0258,0.35516 0.0469,1.09574 0.0469,1.64574 0,1.23549 -1.15516,1.51326 9.95294,-2.39324 z m 32.01526,-4.35676 c 0.0234,-3.12525 -0.36517,-4.25 -1.4682,-4.25 -1.17181,0 -1.5,1.35457 -1.5,6.19113 0,5.65837 0.12634,6.02409 1.4682,4.25 0.80751,-1.06762 1.4825,-3.85363 1.5,-6.19113 z m -1.54999,-5.85699 c 2.26603,-0.86956 1.955,-3.39301 -0.41821,-3.39301 -1.33333,0 -2,0.66667 -2,2 0,2.20213 0.12382,2.27345 2.41821,1.39301 z m 118.58179,-39.5 c 0,-10.39116 -0.1882,-18.89301 -0.41821,-18.89301 -0.23002,0 -1.13002,0.27314 -2,0.60699 -1.34001,0.51421 -1.58179,2.78564 -1.58179,14.86043 0,17.42934 0.70697,23.58225 2.62505,22.84622 1.09947,-0.42191 1.37495,-4.31299 1.37495,-19.42063 z m -5.22793,0.36991 c -0.24574,-16.92395 -0.44141,-18.76962 -2.02207,-19.07332 -1.61546,-0.3104 -1.75,1.07883 -1.75,18.07041 0,10.12366 0.3,18.70666 0.66667,19.07332 0.36666,0.36667 1.27659,0.66667 2.02206,0.66667 1.10199,0 1.30453,-3.50318 1.08334,-18.73708 z m 10.10605,-2.16643 c 0.75796,-0.48009 1.08105,-1.35354 0.71797,-1.94101 -0.87544,-1.4165 -3.59609,-0.31835 -3.59609,1.45151 0,1.59262 0.89593,1.745 2.87812,0.4895 z M 230.0565,350.23966 c -7.24156,-3.08832 -12.59065,-6.95257 -7.54073,-5.44752 1.375,0.4098 4.975,1.87454 8,3.25499 3.025,1.38044 7.40351,2.72596 9.73003,2.99004 2.32652,0.26407 3.98746,0.87262 3.69098,1.35233 -1.0516,1.70154 -7.0154,0.77784 -13.88028,-2.14984 z M 122.01577,336.45879 c -6.63749,-2.81611 -14.4979,-7.6223 -14.49898,-8.8653 -5.6e-4,-0.64252 -0.27396,-1.99252 -0.60754,-3 -0.33359,-1.00749 0.62308,-0.33855 2.12593,1.48651 4.41524,5.36188 18.5037,10.88381 23.20662,9.09576 2.49683,-0.94929 2.54242,-1.13836 1.97546,-8.19289 -0.55078,-6.85318 -0.51088,-7.04281 0.783,-3.72117 1.85121,4.75241 1.87949,11.45304 0.0547,12.96745 -2.35672,1.95591 -8.70687,2.06774 -13.03922,0.22964 z m 147.68498,-2.25075 c -0.24488,-4.70436 -4.59595,-13.27292 -8.33946,-16.42287 -4.42751,-3.7255 -7.32244,-3.31233 -10.34552,1.47653 -1.3888,2.2 -2.74444,4 -3.01254,4 -1.26654,0 -0.21214,-2.24398 2.51254,-5.34722 1.65,-1.87924 3,-4.1449 3,-5.0348 0,-2.03559 1.59519,-2.11528 2.36163,-0.11798 0.31658,0.825 1.46806,1.5 2.55885,1.5 2.22925,0 8.52153,6.03913 10.72985,10.29817 0.90909,1.75332 1.31433,4.74056 1.08524,8 -0.2505,3.56407 -0.42385,4.08299 -0.55059,1.64817 z m -42.68498,-3.94634 c 0.33992,-0.55 0.81648,-1 1.05902,-1 0.24254,0 0.44098,0.45 0.44098,1 0,0.55 -0.47656,1 -1.05902,1 -0.58246,0 -0.7809,-0.45 -0.44098,-1 z m 8.03752,-4.25 c 1.27425,-4.26454 4.07569,-8.24423 6.01662,-8.54713 1.82888,-0.28541 1.81756,-0.19543 -0.18835,1.49673 -1.17382,0.99022 -2.67121,3.4879 -3.32755,5.5504 -1.25846,3.95461 -3.66558,5.39847 -2.50072,1.5 z m -105.53752,-2.75 c 0,-2.2 0.45,-4 1,-4 0.55,0 1,1.8 1,4 0,2.2 -0.45,4 -1,4 -0.55,0 -1,-1.8 -1,-4 z m -7.39511,2.16972 c -0.31987,-0.51756 0.55601,-1.15849 1.9464,-1.42428 1.5946,-0.30482 2.39044,-0.0701 2.15548,0.63566 -0.48362,1.45268 -3.35078,2.00391 -4.10188,0.78862 z m 104.07069,-2.7769 -1.82441,-3.89282 2.17178,2.12515 c 1.19448,1.16883 2.01547,2.9206 1.82442,3.89282 -0.24576,1.25061 -0.88103,0.62899 -2.17179,-2.12515 z M 109.51577,320.7617 c 1.375,-0.78602 3.49133,-1.44508 4.70295,-1.46456 3.67721,-0.0591 7.31066,-2.24149 7.9459,-4.77249 0.3305,-1.3168 0.0947,-4.9147 -0.52397,-7.99534 -0.61869,-3.08065 -1.04923,-8.78862 -0.95678,-12.68439 0.0925,-3.89577 0.3166,-5.28322 0.49808,-3.08322 0.18149,2.2 1.04787,8.8919 1.92529,14.8709 1.87415,12.77104 1.87664,12.7657 -7.05157,15.0825 -7.47271,1.93911 -9.88051,1.95627 -6.5399,0.0466 z m 110.23658,-2.75 c -0.55457,-0.6875 -1.51093,-5.04341 -2.12524,-9.6798 -0.61432,-4.63639 -1.78448,-9.4486 -2.60038,-10.69381 -0.94875,-1.44798 -1.26109,-3.37576 -0.86655,-5.34845 0.33929,-1.69644 0.0559,-5.72775 -0.62967,-8.95847 -0.6856,-3.23072 -1.03047,-6.48051 -0.76637,-7.22175 0.91333,-2.56346 3.14531,7.67985 3.24683,14.90084 0.065,4.62143 0.58415,7.70212 1.43247,8.5 1.09401,1.02897 1.21886,0.77666 0.70228,-1.41929 -0.55683,-2.36709 -0.2784,-2.74757 2.44907,-3.34663 3.56779,-0.78361 9.92098,0.18692 9.92098,1.51556 0,0.50137 -2.23781,0.64253 -5,0.31539 -4.85031,-0.57444 -5,-0.51565 -5,1.96379 0,1.40577 -0.51791,2.72859 -1.15091,2.93959 -0.86154,0.28718 -0.83626,2.05122 0.10055,7.01613 0.6883,3.64787 0.97175,7.08508 0.62988,7.63824 -0.34187,0.55316 0.17538,1.46971 1.14945,2.03679 0.97407,0.56708 1.26363,1.04474 0.64347,1.06146 -0.62015,0.0167 -1.58129,-0.53209 -2.13586,-1.21959 z m 44.76342,-6.17327 c 0,-4.32588 -0.50588,-6.02448 -2.5,-8.39436 -2.8748,-3.41651 -3.13581,-4.36359 -0.97395,-3.534 2.58789,0.99307 6.72353,10.93882 5.97178,14.3615 -1.06135,4.8323 -2.49783,3.43302 -2.49783,-2.43314 z m -52,2.48229 c 0,-1.13246 0.45,-2.05902 1,-2.05902 0.55,0 1,0.64844 1,1.44098 0,0.79254 -0.45,1.7191 -1,2.05902 -0.55,0.33992 -1,-0.30852 -1,-1.44098 z m -85.86883,-3.81392 c -1.72462,-3.22249 -3.05412,-13.10005 -2.4499,-18.2017 0.95798,-8.08868 1.91808,-5.83824 2.00798,4.7066 0.0457,5.3625 0.57319,10.9875 1.17218,12.5 1.21254,3.06178 0.72867,3.72114 -0.73026,0.9951 z m 79.43194,0.005 c 0.42739,-0.9625 0.97548,-3.72075 1.21797,-6.12943 0.30188,-2.99857 0.71638,-3.94449 1.3146,-3 1.77802,2.80722 0.0246,10.87943 -2.36318,10.87943 -0.53077,0 -0.60517,-0.76862 -0.16939,-1.75 z m 6.06189,-2.375 c -0.87122,-4.35611 -0.8022,-5.46316 0.26965,-4.325 1.35679,1.44074 2.4133,7.45 1.30981,7.45 -0.52496,0 -1.23571,-1.40625 -1.57946,-3.125 z m 9.375,-3.26811 c 0,-0.21616 0.69837,-0.661 1.55194,-0.98855 0.88992,-0.34149 1.29132,-0.17385 0.94098,0.39301 -0.58726,0.95021 -2.49292,1.40545 -2.49292,0.59554 z m -29.75,-1.26927 c -2.0472,-0.82607 -1.41676,-2.19409 0.75,-1.62747 1.1,0.28766 2,0.92053 2,1.40638 0,0.95338 -0.77982,1.01607 -2.75,0.22109 z m 50.71223,-0.88323 c -0.70546,-0.85003 -1.77306,-1.3623 -2.37244,-1.13838 -0.59939,0.22391 -1.98979,0.0828 -3.08979,-0.3136 -1.1,-0.39639 -3.7577,-0.10432 -5.90599,0.64906 -4.34532,1.52385 -5.43479,1.29111 -3.085,-0.65905 0.85654,-0.71086 3.81766,-1.50967 6.58027,-1.77512 4.16544,-0.40025 4.90026,-0.75875 4.30443,-2.10002 -0.39516,-0.88956 -1.00957,-4.31738 -1.36534,-7.61738 -0.38103,-3.53436 -1.59631,-7.55559 -2.9573,-9.78544 -1.46688,-2.40335 -2.58952,-6.32774 -3.0748,-10.74856 -0.86355,-7.86676 -2.90912,-11.72937 -7.03672,-13.28737 -2.87535,-1.08532 -4.54644,-4.19788 -2.82499,-5.26179 0.52074,-0.32184 0.67317,-1.44728 0.33873,-2.501 -0.42262,-1.33154 -0.13004,-1.91584 0.95932,-1.91584 1.80058,0 2.03732,2.25341 0.53221,5.06574 -0.88869,1.66052 -0.69834,1.93426 1.34501,1.93426 1.30911,0 3.0495,0.7875 3.86753,1.75 2.29946,2.70554 4.82264,8.77561 4.82264,11.60191 0,4.57873 2.0401,12.09462 3.97201,14.63315 2.45201,3.22196 3.71609,1.99474 1.47243,-1.4295 -2.3204,-3.54139 -0.9991,-4.53041 1.61414,-1.20822 1.14762,1.45896 2.72035,2.65266 3.49495,2.65266 1.6464,0 2.79907,3.77863 2.18059,7.14829 -0.38902,2.11947 -0.50786,2.03298 -1.2034,-0.87586 -1.06858,-4.46897 -3.07236,-5.99741 -4.46098,-3.40274 -1.78816,3.3412 -1.16951,8.33411 1.78179,14.38031 2.71253,5.55703 2.761,7.3979 0.1107,4.20449 z m -65.26083,-7.12861 c -1.26336,-2.04416 4.73012,-6.40487 8.53503,-6.20988 2.03389,0.10423 2.06063,0.16463 0.26357,0.59522 -1.1,0.26358 -3.41177,1.82548 -5.13727,3.47091 -1.7255,1.64543 -3.3731,2.61011 -3.66133,2.14375 z m 29.2986,-1.89162 c 0,-0.31116 0.52814,-1.54866 1.17365,-2.75 0.64551,-1.20134 1.48239,-3.53426 1.85974,-5.18426 0.57249,-2.50322 0.81325,-2.70131 1.45398,-1.19622 0.81172,1.90675 -2.11187,9.69622 -3.63924,9.69622 -0.46647,0 -0.84813,-0.25458 -0.84813,-0.56574 z m -1.3065,-9.18426 c -0.2968,-1.5125 -0.12426,-3.1775 0.38343,-3.7 0.56895,-0.58555 0.92307,0.46945 0.92307,2.75 0,4.37911 -0.55446,4.78228 -1.3065,0.95 z m -11.70844,-3.29764 c -1.36678,-1.05097 -3.94756,-2.40509 -5.73506,-3.00916 -1.7875,-0.60407 -3.25,-1.51341 -3.25,-2.02075 0,-0.50735 -1.6875,-0.95097 -3.75,-0.98584 -3.38103,-0.0572 -3.51739,-0.15652 -1.38586,-1.01 1.97299,-0.78999 2.15623,-1.19714 1.1075,-2.46078 -2.95366,-3.55895 0.4009,-2.33828 5.93916,2.16115 3.29895,2.68016 7.03109,5.61492 8.29365,6.52169 1.26255,0.90676 2.06383,1.88849 1.78061,2.1816 -0.28322,0.29312 -1.63322,-0.32694 -3,-1.37791 z m -72.98506,-4.01138 c 0,-0.58246 0.45,-0.7809 1,-0.44098 0.55,0.33992 1,0.81648 1,1.05902 0,0.24254 -0.45,0.44098 -1,0.44098 -0.55,0 -1,-0.47656 -1,-1.05902 z m 91.11908,-6.19098 c -1.65208,-4.47088 -2.01375,-10.85319 -0.6448,-11.3785 0.71571,-0.27465 1.56554,-1.82059 1.88851,-3.43543 0.44593,-2.22966 1.13457,-2.92842 2.86221,-2.90427 1.99214,0.0279 2.07759,0.18327 0.68723,1.25 -0.87327,0.67001 -1.42079,1.71316 -1.2167,2.31811 0.2041,0.60496 -0.29842,1.65555 -1.11669,2.33466 -1.16019,0.96287 -1.35587,2.6473 -0.8887,7.65009 0.60728,6.50322 -0.0567,8.26357 -1.57106,4.16534 z m 80.59344,-22.89468 c 0.66688,-0.80845 1.91605,-4.14413 2.77593,-7.41262 2.70881,-10.2964 -0.024,-23.7091 -6.23039,-30.57882 -2.22551,-2.46337 -2.96109,-3.86388 -2.02941,-3.86388 2.92842,0 7.12663,6.91137 9.41526,15.5 2.6799,10.057 0.56203,25.94145 -3.64391,27.33002 -1.21331,0.40057 -1.26825,0.21428 -0.28748,-0.9747 z M 167.44149,223.7617 c -0.31585,-13.2 -0.42835,-24.1875 -0.25,-24.41667 1.12483,-1.44529 1.33213,3.20604 1.09273,24.51845 l -0.26845,23.89822 -0.57428,-24 z"
       id="path3013"
       inkscape:connector-curvature="0" />
  </g>
</svg>
