<?xml version="1.0" encoding="UTF-8" standalone="no"?>
<!-- Created with Inkscape (http://www.inkscape.org/) -->

<svg
   xmlns:dc="http://purl.org/dc/elements/1.1/"
   xmlns:cc="http://creativecommons.org/ns#"
   xmlns:rdf="http://www.w3.org/1999/02/22-rdf-syntax-ns#"
   xmlns:svg="http://www.w3.org/2000/svg"
   xmlns="http://www.w3.org/2000/svg"
   xmlns:sodipodi="http://sodipodi.sourceforge.net/DTD/sodipodi-0.dtd"
   xmlns:inkscape="http://www.inkscape.org/namespaces/inkscape"
   width="211.54964"
   height="213.44003"
   id="svg2"
   version="1.1"
   inkscape:version="0.48.3.1 r9886"
   sodipodi:docname="Neues Dokument 1">
  <defs
     id="defs4" />
  <sodipodi:namedview
     id="base"
     pagecolor="#ffffff"
     bordercolor="#666666"
     borderopacity="1.0"
     inkscape:pageopacity="0.0"
     inkscape:pageshadow="2"
     inkscape:zoom="3.959798"
     inkscape:cx="105.1972"
     inkscape:cy="109.21835"
     inkscape:document-units="px"
     inkscape:current-layer="layer1"
     showgrid="false"
     fit-margin-top="0"
     fit-margin-left="0"
     fit-margin-right="0"
     fit-margin-bottom="0"
     inkscape:window-width="1855"
     inkscape:window-height="1056"
     inkscape:window-x="65"
     inkscape:window-y="24"
     inkscape:window-maximized="1" />
  <metadata
     id="metadata7">
    <rdf:RDF>
      <cc:Work
         rdf:about="">
        <dc:format>image/svg+xml</dc:format>
        <dc:type
           rdf:resource="http://purl.org/dc/dcmitype/StillImage" />
        <dc:title></dc:title>
      </cc:Work>
    </rdf:RDF>
  </metadata>
  <g
     inkscape:label="Ebene 1"
     inkscape:groupmode="layer"
     id="layer1"
     transform="translate(-106.78719,-198.76167)">
    <path
       style="fill:#000000"
       d="m 206.60573,409.24669 c -2.37675,-2.22021 -3.10576,-3.75763 -3.10576,-6.54976 0,-3.6161 0.0799,-3.68589 8.99125,-7.84879 l 8.99126,-4.20024 0.009,-15.79775 c 0.0101,-18.17963 0.41694,-17.2964 -10.9297,-23.7261 -3.37393,-1.91188 -9.99179,-5.85149 -14.70634,-8.75468 l -8.57191,-5.27853 -6.89165,3.17657 -6.89191,3.17657 0,21.79294 c 0,13.44994 -0.38283,22.02955 -1,22.41098 -0.65887,0.4072 -1,-10.51739 -1,-32.02432 0,-25.66927 -0.26703,-32.5534 -1.25,-32.22599 -0.95959,0.31963 -1.31127,8.17159 -1.51375,33.79708 -0.14506,18.3594 -0.63932,33.7563 -1.09836,34.21534 -0.45904,0.45904 -0.79036,-14.59209 -0.73625,-33.44696 0.0937,-32.66212 0.0105,-34.29865 -1.76077,-34.64271 -1.79053,-0.3478 -1.83808,0.82311 -1.28864,31.73322 0.31377,17.65189 0.20458,32.09434 -0.24265,32.09434 -1.04927,0 -2.09594,-13.54233 -2.10359,-27.21725 l -0.006,-10.71724 -9.62496,4.46724 c -5.29372,2.45699 -10.08875,4.46725 -10.65561,4.46725 -0.56685,0 -2.53562,-1.1479 -4.37504,-2.55089 -2.79305,-2.13036 -3.34439,-3.19915 -3.34439,-6.48316 0,-3.73313 0.26267,-4.06536 5.18709,-6.56076 l 5.1871,-2.6285 -3.06705,-1.28959 c -1.68687,-0.70928 -3.35369,-1.7534 -3.70403,-2.32026 -0.42008,-0.67971 -1.56761,-0.54518 -3.37004,0.39509 -1.50319,0.78416 -3.63307,1.42815 -4.73307,1.43109 -4.54494,0.0121 -21.49701,-8.39429 -21.49898,-10.66123 -5.6e-4,-0.64252 -0.294,-1.99252 -0.65208,-3 -0.35809,-1.00749 0.87941,-0.16555 2.75,1.87096 4.97192,5.41294 15.27518,9.39957 23.13806,8.95277 l 2.73701,-0.15552 -2.16231,-4.45067 c -1.18927,-2.44788 -2.49145,-4.24725 -2.89374,-3.99862 -0.40229,0.24863 -0.48435,-0.49282 -0.18235,-1.64767 0.45623,-1.74462 1.06339,-1.14124 3.59022,3.56782 2.82584,5.26632 6.61554,8.53755 9.87451,8.52356 0.71481,-0.003 3.02674,-0.48515 5.13762,-1.07129 3.33462,-0.92595 4.17397,-1.79965 6.4,-6.66194 4.62023,-10.0919 3.11615,-25.51941 -3.30927,-33.94357 -2.92628,-3.83656 -7.93425,-6.74465 -9.70806,-5.63742 -0.67135,0.41907 -2.12063,0.89063 -3.22063,1.04793 -2.59412,0.37094 -6.23618,4.83583 -7.56315,9.27187 -1.10922,3.70806 -2.48371,15.00035 -1.82574,14.9995 0.21389,-2.8e-4 2.76033,-0.90184 5.65875,-2.00347 l 5.26986,-2.00297 1.15301,2.5306 c 1.41418,3.10378 0.97076,3.52548 -6.69273,6.36501 -3.3,1.22273 -7.125,2.96384 -8.5,3.86913 -1.375,0.90528 -4.18961,1.73756 -6.25469,1.8495 -3.23867,0.17556 -3.83996,-0.13623 -4.37516,-2.26864 -0.56682,-2.2584 -0.97714,-2.42266 -4.74531,-1.89964 l -4.12484,0.57253 3,-1.44894 c 1.65,-0.79691 4.70821,-1.72379 6.79602,-2.05972 5.3321,-0.85794 6.37732,-3.51017 4.82855,-12.25232 -0.65777,-3.71281 -1.12574,-12.60057 -1.03992,-19.75057 0.13109,-10.9228 0.45459,-13.42164 2.02461,-15.63881 2.1849,-3.08551 5.76792,-4.24169 9.05816,-2.9229 2.08839,0.83706 1.94407,0.94157 -1.37847,0.99832 -6.71797,0.11475 -8.78895,5.22095 -8.78895,21.67003 0,4.54825 2.76163,25.36791 3.47092,26.1669 0.13355,0.15044 0.98223,-0.0102 1.88595,-0.35699 1.20246,-0.46143 1.64313,-1.89412 1.64313,-5.34204 0,-5.34581 2.38041,-14.19926 4.81796,-17.91944 l 1.63804,-2.49996 -2.6704,1.74972 c -1.73139,1.13444 -2.81021,2.86537 -3.06797,4.92244 -0.34916,2.78652 -0.41704,2.67793 -0.55759,-0.89206 -0.14715,-3.73744 0.12742,-4.20186 3.40946,-5.76696 1.96323,-0.9362 3.28667,-1.24454 2.94099,-0.68521 -0.34569,0.55933 -0.17852,1.01696 0.37148,1.01696 0.55,0 1.28588,-0.46257 1.6353,-1.02794 0.87999,-1.42386 -3.52904,-4.8983 -6.26727,-4.93879 -1.2375,-0.0183 -2.25,-0.48327 -2.25,-1.03327 0,-2.0428 5.44828,-0.9447 8.14858,1.64235 3.93118,3.76631 10.67395,3.92815 12.96297,0.31114 0.88635,-1.40057 3.92385,-3.64431 6.75,-4.98608 5.06771,-2.40599 6.7997,-4.95287 3.38845,-4.98272 -0.9625,-0.008 -2.425,-0.49031 -3.25,-1.07086 -1.14798,-0.80782 -0.72608,-0.96057 1.79777,-0.65087 2.87334,0.35259 3.25945,0.13648 3,-1.67914 -0.20514,-1.43562 -1.1532,-2.18225 -3.04777,-2.40024 -1.5125,-0.17404 -2.75,-0.72529 -2.75,-1.225 0,-0.49972 1.35,-0.63858 3,-0.30858 2.98739,0.59748 3,0.58056 3,-4.025 0,-4.13905 -0.23641,-4.62166 -2.25,-4.5932 -3.72643,0.0527 -5.86557,2.45207 -6.36034,7.13414 -0.25189,2.38373 -0.65803,4.90841 -0.90254,5.61039 -0.25104,0.72073 1.06974,1.99844 3.03416,2.93521 3.02774,1.44383 4.64821,3.28846 2.88884,3.28846 -0.32443,0 -4.9155,-2.25 -10.20237,-5 -5.28687,-2.75 -10.30893,-5.03553 -11.16012,-5.07895 -1.02316,-0.0522 -1.12553,-0.24937 -0.30209,-0.58184 1.62422,-0.6558 11.25446,2.54545 11.25446,3.74116 0,0.5058 0.675,0.91963 1.5,0.91963 1.12611,0 1.5,-1.20285 1.5,-4.82569 0,-5.84325 2.83731,-9.17431 7.81445,-9.17431 l 3.18555,0 0,-30 c 0,-19.33333 0.35556,-30 1,-30 0.65036,0 1,14.29767 1,40.89301 0,35.42685 0.20051,40.96995 1.5,41.46862 1.27157,0.48794 1.51802,-1.05674 1.61831,-10.14302 0.18336,-16.61127 1.62579,-18.97141 1.76338,-2.88528 0.0905,10.58493 0.41184,13.73413 1.36831,13.41088 0.98059,-0.33141 1.17422,-9.29387 0.8984,-41.58334 -0.318,-37.22764 -0.19856,-41.16087 1.25,-41.16087 1.43583,0 1.6016,3.35192 1.6016,32.38499 l 0,32.38499 2.75,1.78478 c 1.5125,0.98163 5.225,3.89896 8.25,6.48294 3.025,2.584 6.7559,4.99579 8.2909,5.35955 1.53499,0.36376 2.52093,1.09819 2.19098,1.63207 -0.94172,1.52373 -2.66346,1.14872 -5.05915,-1.10191 -2.35864,-2.21583 -3.90368,-2.69368 -9.42273,-2.91428 -3.34437,-0.13368 -3.39003,-0.18379 -1.02679,-1.12686 l 2.4732,-0.98696 -3.65645,-3.44966 c -2.01105,-1.8973 -3.91149,-3.44965 -4.22321,-3.44965 -0.31171,0 -0.56675,2.23588 -0.56675,4.96861 0,4.30847 0.23251,4.88383 1.75,4.33044 1.59219,-0.58063 1.5815,-0.44617 -0.11852,1.49109 -1.29984,1.48123 -1.67144,2.91453 -1.22095,4.70943 0.59278,2.36179 0.9625,2.5242 4.36853,1.919 2.71657,-0.48269 3.43909,-0.36007 2.67677,0.4543 -0.57429,0.61351 -2.26179,1.21624 -3.75,1.3394 -2.63018,0.21769 -2.70583,0.39956 -2.70583,6.50584 0,3.45504 0.23151,6.28189 0.51447,6.28189 0.69064,0 16.27938,-6.44247 19.71198,-8.14651 1.49955,-0.74442 3.23359,-2.57155 3.85342,-4.06028 0.75748,-1.81933 2.48649,-3.1947 5.27355,-4.19494 7.20981,-2.58751 8.30482,-2.71499 9.62784,-1.12085 0.695,0.83742 1.79382,1.52258 2.44182,1.52258 2.04982,0 6.56099,-2.45551 6.56912,-3.57569 0.004,-0.59162 1.08338,-2.08614 2.39798,-3.32114 2.07395,-1.94838 3.29778,-2.20895 9.25,-1.96946 6.87769,0.27673 11.14769,-0.99477 29.45603,-8.77127 l 3.59622,-1.52749 0.65378,-16.57719 c 0.35959,-9.11745 0.72944,-23.59281 0.82189,-32.16747 0.19548,-18.12936 0.6255,-15.65182 1.61914,9.32864 0.49475,12.43802 1.07754,18.03984 1.90535,18.3142 0.78179,0.25911 1.3225,-1.26301 1.56975,-4.41893 l 0.37716,-4.8142 0.18025,4.75 c 0.13188,3.47545 0.58274,4.75 1.68025,4.75 1.28682,0 1.5,-3.05556 1.5,-21.5 0,-13.66667 0.36434,-21.5 1,-21.5 0.63063,0 1,6.83333 1,18.5 0,10.175 0.3375,18.48405 0.75,18.46457 0.4125,-0.0195 1.875,-0.67855 3.25,-1.46457 3.98704,-2.2792 8.4523,-1.83174 12.06617,1.20914 3.4555,2.9076 7.90808,11.35916 7.92406,15.04086 0.005,1.2375 0.34727,2.25456 0.75977,2.26012 1.72857,0.0233 13.25,-4.44267 13.25,-5.13603 0,-1.59636 -1.87047,-1.78797 -4.62854,-0.47416 -1.5793,0.7523 -4.22146,1.62534 -5.87146,1.94009 -2.45567,0.46843 -2.21437,0.20415 1.32988,-1.45655 6.09537,-2.85606 9.58707,-2.9493 9.97125,-0.26627 0.25591,1.78716 -0.7572,2.50858 -6.49898,4.62784 l -6.80215,2.51063 -0.59754,7.89518 c -1.08417,14.32511 -4.52988,19.78808 -13.23354,20.98105 -4.11283,0.56373 -5.07339,0.33675 -7.25725,-1.71488 -2.12453,-1.99589 -2.66234,-2.1348 -3.44903,-0.89081 -0.51502,0.8144 -0.93887,13.44197 -0.94733,28.22379 -0.01,17.15646 -0.37395,26.75 -1.01531,26.75 -0.64159,0 -1,-9.52778 -1,-26.58333 0,-20.82421 -0.27081,-26.49226 -1.25,-26.16295 -0.96937,0.326 -1.17173,6.27968 -0.90137,26.51924 0.19174,14.35437 -0.0333,26.6902 -0.5,27.41295 -0.48233,0.74688 -1.06445,-10.52025 -1.34863,-26.10337 -0.3682,-20.19006 -0.81902,-27.52359 -1.71021,-27.82007 -1.77923,-0.59191 -2.2622,39.77279 -0.53979,45.11326 0.6875,2.13165 1.25,5.18707 1.25,6.78983 0,3.65221 -3.39442,10.43998 -5.88824,11.77463 -1.03494,0.55388 -2.15223,2.08491 -2.48287,3.40228 -0.71063,2.8314 -11.08052,8.64215 -21.45901,12.02451 l -6.66988,2.17373 -5.5,-2.23964 c -3.025,-1.23179 -5.8375,-2.25345 -6.25,-2.27035 -0.4125,-0.0169 -0.75,6.93976 -0.75,15.45924 l 0,15.48997 -9,4.52007 c -8.6759,4.3573 -9,4.64221 -9,7.91183 0,2.71483 0.62788,3.78931 3.14596,5.38365 l 3.14597,1.99188 11.60403,-5.4982 c 6.38222,-3.02402 16.66461,-7.81368 22.84976,-10.64369 l 11.24572,-5.14547 0.004,-4.03439 c 0.004,-3.39487 -0.45611,-4.30635 -2.90001,-5.75 -3.86099,-2.28074 -4.33095,-2.22505 -12.32738,1.46074 -6.44031,2.96853 -6.88053,3.37745 -6.72844,6.25 0.24033,4.53905 0.0366,5.23933 -1.03989,3.57365 -1.12233,-1.73668 -1.14389,-12.0283 -0.0419,-20 l 0.7603,-5.5 0.24212,5 c 0.13316,2.75 0.16204,6.4625 0.0642,8.25 -0.0979,1.7875 0.0254,3.25 0.27384,3.25 0.24847,0 3.8969,-1.56999 8.10761,-3.48888 l 7.65584,-3.48887 3.48915,2.23887 c 3.80307,2.44031 4.76914,4.66296 4.27254,9.82986 -0.32145,3.3445 -0.47882,3.44157 -22.82368,14.07774 -12.375,5.89051 -23.46491,10.7373 -24.64424,10.77065 -1.17934,0.0334 -3.54184,-1.24491 -5.25,-2.84058 z m 35.24033,-48.63092 c 6.53551,-1.94285 18.90163,-8.52512 19.48122,-10.36951 0.32649,-1.03899 -0.1751,-1.24067 -1.93864,-0.7795 -3.72572,0.9743 -10.83568,-2.94778 -12.48063,-6.88472 -1.57436,-3.76795 -3.18784,-4.33154 -9.26889,-3.23761 -2.39847,0.43147 -4.78211,0.52413 -5.29698,0.20593 -0.51486,-0.31821 -2.93507,0.36107 -5.37824,1.50949 -5.66477,2.66276 -8.2506,2.612 -17.46393,-0.3428 -9.86931,-3.16518 -15.51723,-5.82678 -21,-9.89632 -5.19002,-3.85226 -5.64536,-5.21118 -4.08396,-12.18827 0.88766,-3.96645 2.68899,-6.97096 8.08626,-13.48734 3.81931,-4.61123 6.79982,-8.52844 6.62335,-8.70491 -0.17647,-0.17646 -3.05473,0.66282 -6.39614,1.86507 -6.82455,2.45552 -8.68405,4.80055 -8.68405,10.95154 0,2.14009 -0.33916,3.89108 -0.75368,3.89108 -1.38601,0 -1.96078,-4.72841 -0.99843,-8.21374 l 0.95168,-3.44672 -4.41387,1.58023 -4.41388,1.58023 0.29136,4.96712 c 0.27301,4.65428 0.49605,5.02554 3.54136,5.89466 1.7875,0.51015 3.25,1.53744 3.25,2.28288 0,1.79873 -1.52711,1.7113 -4.53518,-0.25967 -1.96214,-1.28564 -2.46706,-1.33663 -2.47583,-0.25 -0.006,0.75076 -0.27852,2.98219 -0.60548,4.95875 -0.58504,3.53668 -0.48808,3.66094 6.10671,7.82592 3.68565,2.3277 11.04562,6.51831 16.35548,9.31246 9.44723,4.9713 16.91179,9.56835 22.39057,13.78922 5.0826,3.91565 14.13365,8.97866 16.05099,8.97866 1.04771,0 4.22418,-0.68946 7.05883,-1.53213 z M 230.0407,350.12586 c -7.24156,-3.08832 -12.59065,-6.95257 -7.54073,-5.44752 1.375,0.4098 4.975,1.87454 8,3.25499 3.025,1.38044 7.40351,2.72596 9.73003,2.99004 2.32652,0.26407 3.98746,0.87262 3.69098,1.35233 -1.0516,1.70154 -7.0154,0.77784 -13.88028,-2.14984 z m -78.18208,1.61289 9.49978,-4.40915 0.0256,-33.09085 0.0256,-33.09085 -2.33847,0 c -1.45519,0 -3.68936,1.49528 -5.91496,3.95875 l -3.5765,3.95876 3.46998,5.15635 c 1.90848,2.836 3.73932,6.22956 4.06854,7.54125 0.32921,1.31169 1.33728,2.42042 2.24016,2.46384 1.03742,0.0499 1.18154,0.26458 0.39159,0.58333 -0.6875,0.27741 -1.25,1.39344 -1.25,2.48007 0,1.08663 0.37277,1.7453 0.82837,1.46372 1.024,-0.63286 0.48078,9.10681 -0.89277,16.00716 -1.70797,8.58037 -5.00342,12.47874 -14.55195,17.21433 -8.04175,3.9883 -8.38365,4.29592 -8.38365,7.54318 0,3.31342 2.70383,6.44448 5.67943,6.57681 0.64869,0.0289 5.45434,-1.93167 10.67922,-4.3567 z m 114.09269,-6.68227 c 3.28137,-2.88108 3.54792,-3.54105 3.53889,-8.76217 -0.0171,-9.90942 -7.22649,-21.14641 -13.56696,-21.14641 -2.08347,0 -2.4122,-0.45572 -2.34432,-3.25 l 0.0789,-3.25 0.9689,2.64352 c 0.70303,1.91814 1.84756,2.77496 4.17105,3.12253 1.79366,0.26831 3.52201,-0.0148 3.92933,-0.64352 1.89684,-2.92813 -2.74524,-9.05033 -8.00638,-10.55921 -3.64978,-1.04675 -4.18407,-0.19916 -1.22075,1.93668 2.32437,1.67531 2.59594,3 0.61501,3 -0.76174,0 -2.14675,-1.16259 -3.07778,-2.58353 -0.93104,-1.42093 -3.34529,-3.30228 -5.36501,-4.18077 -2.71518,-1.18097 -3.20362,-1.70196 -1.87418,-1.99905 0.98892,-0.22099 2.49625,0.17766 3.34961,0.88589 0.85337,0.70823 2.85451,1.18841 4.44698,1.06707 7.55436,-0.57562 13.54123,5.03303 12.62936,11.83149 -0.29352,2.1884 -0.1265,3.9789 0.37117,3.9789 0.49766,0 0.90484,0.46882 0.90484,1.04181 0,0.573 0.7875,1.8886 1.75,2.92356 1.66913,1.79479 1.7212,0.78769 1.12682,-21.79181 -0.34275,-13.02046 -0.68025,-25.11536 -0.75,-26.87755 l -0.12682,-3.204 -5.25,2.44423 c -2.8875,1.34432 -5.84957,2.44862 -6.58239,2.45399 -0.73281,0.005 -4.48612,1.39395 -8.3407,3.08574 -3.85457,1.69178 -7.10369,2.92928 -7.22027,2.75 -0.11658,-0.17928 -0.98831,-1.56678 -1.93718,-3.08333 -1.5734,-2.51473 -2.09673,-2.70065 -5.94734,-2.1129 -4.83847,0.73854 -7.72212,2.01022 -7.72212,3.40544 0,0.53065 0.72746,0.96482 1.61658,0.96482 1.63516,0 1.60151,2.21396 -0.095,6.25 -0.57116,1.35881 -0.24454,1.75 1.46111,1.75 2.09127,0 5.91328,3.46257 5.98401,5.42126 0.0183,0.50669 0.74969,1.71289 1.62532,2.68045 1.46806,1.62219 1.4471,1.72129 -0.26923,1.27246 -1.02371,-0.26771 -2.92313,-2.03641 -4.22095,-3.93045 -1.29779,-1.89405 -3.17508,-3.44372 -4.17173,-3.44372 -0.99664,0 -2.06408,-0.40775 -2.37209,-0.90612 -1.03465,-1.67411 -4.7448,0.16498 -6.6561,3.29938 -2.63296,4.31786 -2.3819,5.98709 1.09808,7.30064 1.65,0.6228 3,1.67322 3,2.33425 0,0.82409 -0.77476,0.69423 -2.46482,-0.41314 -4.0339,-2.64311 -5.26641,-1.96423 -8.4148,4.63499 -5.62016,11.78022 -5.60916,11.17259 -0.24619,13.59635 3.67009,1.65867 5.41049,1.93239 7.84577,1.23396 1.72122,-0.49364 3.38837,-0.63865 3.70477,-0.32225 0.3164,0.3164 0.57527,-0.14817 0.57527,-1.03238 0,-0.8842 -0.45,-1.88576 -1,-2.22568 -0.55,-0.33992 -1,-1.09658 -1,-1.68146 0,-1.6116 3.07729,1.25455 4.02595,3.74972 0.49738,1.30821 2.02754,2.39244 3.90688,2.76831 1.98536,0.39707 3.50461,1.52941 4.25157,3.1688 l 1.16229,2.55095 2.57666,-4.76567 c 1.53466,-2.83845 3.38544,-4.89221 4.57665,-5.07856 1.92944,-0.30185 1.92471,-0.24937 -0.13421,1.48751 -1.17382,0.99022 -2.67121,3.4879 -3.32755,5.5504 -0.65634,2.0625 -1.60845,3.75 -2.11579,3.75 -0.50735,0 -0.94234,0.7875 -0.96665,1.75 -0.0261,1.03388 -0.86313,0.19825 -2.04545,-2.04203 -2.19933,-4.16734 -5.10171,-5.70797 -10.75321,-5.70797 -2.47517,0 -4.28344,0.66663 -5.42511,2 -2.18896,2.55652 -4.05567,2.59506 -3.25335,0.0672 0.49845,-1.57048 -0.27126,-2.32418 -4.10582,-4.02039 -3.90455,-1.72716 -5.2798,-1.90257 -7.96608,-1.01602 -1.78574,0.58935 -3.78378,1.71857 -4.44009,2.50938 -1.46636,1.76683 -2.96669,0.98952 -2.96669,-1.53704 0,-1.19783 0.65718,-1.82933 1.81312,-1.74225 4.26173,0.32102 7.88654,-2.34878 10.28268,-7.57356 1.30843,-2.85302 3.84636,-7.66232 5.63986,-10.68732 4.4623,-7.52634 4.93427,-10.75023 2.24187,-15.31351 -2.49835,-4.2344 -2.9698,-4.32695 -8.72753,-1.71342 -4.04281,1.8351 -5.42373,4.18349 -3.25,5.52693 0.55,0.33992 1,1.90398 1,3.47568 0,1.57171 0.44098,3.00765 0.97995,3.19099 0.53897,0.18333 -2.40233,3.91712 -6.53621,8.29731 -6.55874,6.94951 -7.7861,8.8527 -9.63532,14.94086 l -2.11916,6.97688 2.36873,1.55914 c 1.3028,0.85753 4.32231,3.24424 6.71003,5.30381 2.38771,2.05956 5.3292,3.93098 6.53664,4.1587 1.20744,0.22772 5.34534,1.17198 9.19534,2.09835 11.14979,2.68282 12.35935,2.79918 15.51394,1.49251 1.98144,-0.82074 2.99121,-1.95304 3.00137,-3.36555 0.008,-1.17077 0.49365,-2.80368 1.07829,-3.62868 0.83202,-1.17409 0.96838,-0.90729 0.62757,1.22796 -0.50485,3.1631 1.97361,4.54094 5.12979,2.8518 2.35095,-1.25819 7.31446,-1.71359 8.7832,-0.80586 0.68706,0.42462 0.92027,-0.15391 0.6442,-1.59807 -0.26336,-1.37767 0.40636,-3.22493 1.71112,-4.71973 1.41747,-1.62395 1.82674,-1.81506 1.20794,-0.56407 -1.25894,2.54511 -0.38731,5.71321 2.18536,7.94311 l 2.11722,1.83513 -2.25,-0.49151 c -2.77039,-0.6052 -2.798,-0.19089 -0.20676,3.10333 5.1332,6.52581 11.21633,7.68493 16.4081,3.12649 z m -19.45134,-19.95824 c 0,-1.69855 2.72881,-6.48038 4.57022,-8.00861 1.22038,-1.01284 0.95127,0.069 -0.95091,3.82283 -2.59217,5.11539 -3.61931,6.3033 -3.61931,4.18578 z M 217.25115,313.8979 c 0.75511,-5.72182 2.88257,-8.34088 8.22734,-10.12845 5.55406,-1.85757 6.66571,-1.2065 1.57309,0.92133 -5.48205,2.29055 -7.64578,4.7403 -8.2651,9.35767 -0.30242,2.2547 -0.89778,4.09945 -1.32302,4.09945 -0.42525,0 -0.52078,-1.9125 -0.21231,-4.25 z m -3.75118,-9.13342 c 0,-0.21089 1.125,-0.59848 2.5,-0.86133 1.375,-0.26285 2.5,-0.0903 2.5,0.38342 0,0.47373 -1.125,0.86133 -2.5,0.86133 -1.375,0 -2.5,-0.17254 -2.5,-0.38342 z m 9.53724,-5.96338 c 0.63277,-3.37295 0.50336,-3.58764 -2.68622,-4.45662 -2.95097,-0.80397 -2.57504,-0.91597 3.14898,-0.93818 4.69444,-0.0182 5.86943,0.21328 4.22996,0.83338 -1.42036,0.53722 -2.49803,1.99857 -2.87916,3.90422 -0.33502,1.67509 -1.0297,3.30555 -1.54374,3.62324 -0.55756,0.34459 -0.66642,-0.85202 -0.26982,-2.96604 z m 15.82152,-8.1532 c 0.34057,-2.2 0.62418,-5.0125 0.63023,-6.25 0.006,-1.2375 0.51898,-2.25 1.13984,-2.25 1.41148,0 0.26071,10.02003 -1.32074,11.5 -0.75247,0.70419 -0.88539,-0.18326 -0.44933,-3 z m -59.22608,47.93277 c 2.7864,-1.41198 4.90894,-2.67734 4.71675,-2.81192 -0.19219,-0.13457 -2.71193,-1.94264 -5.59943,-4.01793 l -5.25,-3.77326 0,6.58517 c 0,3.62184 0.23996,6.58517 0.53324,6.58517 0.29329,0 2.81303,-1.15525 5.59944,-2.56723 z m -40.88268,-21.77488 c 1.43996,-0.48968 2.63147,-3.65789 1.37568,-3.65789 -0.20588,0 -4.14338,1.50146 -8.75,3.33658 -4.60663,1.83512 -9.15559,3.61809 -10.10882,3.96215 -0.98029,0.35383 -1.49572,1.24427 -1.18658,2.04988 0.44226,1.15252 2.10881,0.80222 8.73314,-1.83564 4.50262,-1.79297 8.97408,-3.52776 9.93658,-3.85508 z m 27.95987,-13.40789 c -0.34323,-18.65558 -0.51476,-20.25 -2.17848,-20.25 -0.67233,0 -1.03139,6.61456 -1.03139,19 0,17.50315 0.1393,19 1.76822,19 1.63681,0 1.74395,-1.3191 1.44165,-17.75 z m 5.00481,16.5 c 0.6564,-1.91415 0.91179,-34.73635 0.27826,-35.76143 -0.30635,-0.49567 -1.21758,-0.64773 -2.02497,-0.33791 -2.12656,0.81604 -2.19988,37.34934 -0.075,37.34934 0.76616,0 1.58591,-0.5625 1.82167,-1.25 z m 19.01359,-22.92402 c 5.90055,-2.248 10.48649,-4.47848 10.19098,-4.95663 -0.77569,-1.2551 -2.88775,-1.07291 -6.63532,0.57239 -1.80616,0.79296 -6.99643,2.90648 -11.53393,4.69671 -4.5375,1.79024 -8.25,3.66524 -8.25,4.16667 0,1.29125 3.92749,0.20723 16.22827,-4.47914 z m 33.32977,-12.24116 c 1.60484,-1.60485 1.9164,-3.58482 0.56408,-3.58482 -2.47453,0 -8.12212,3.22525 -8.12212,4.63842 0,1.26411 0.65934,1.47971 3.05804,0.99997 1.68192,-0.33638 3.70692,-1.26049 4.5,-2.05357 z m 54.44196,-22.69181 c 0,-10.39116 -0.1882,-18.89301 -0.41821,-18.89301 -0.23002,0 -1.13002,0.27314 -2,0.60699 -1.34001,0.51421 -1.58179,2.78565 -1.58179,14.86043 0,17.42934 0.70697,23.58226 2.62505,22.84622 1.09947,-0.4219 1.37495,-4.31299 1.37495,-19.42063 z m 18.21931,17.98962 c 1.08285,-0.57952 2.86249,-3.07397 3.95475,-5.54322 5.69488,-12.87421 1.60133,-32.75151 -7.8373,-38.05605 -3.47054,-1.95046 -4.39589,-2.07801 -7.70581,-1.06217 -2.0689,0.63497 -4.07856,1.85746 -4.4659,2.71665 -0.38735,0.85919 -0.55161,5.70161 -0.36501,10.76093 0.33796,9.16336 0.34822,9.19536 2.66679,8.31384 2.77861,-1.05642 3.53317,-0.4785 3.53317,2.70608 0,1.75132 -0.7974,2.66332 -3,3.43115 -2.88223,1.00475 -3,1.28053 -3,7.02491 0,5.32926 0.33082,6.30992 3.04387,9.02297 2.71834,2.71833 3.48036,2.97407 7.12524,2.39123 2.24476,-0.35895 4.96735,-1.1268 6.0502,-1.70632 z m -3.18751,-1.01051 c -0.0175,-0.34533 0.71916,-2.37033 1.63699,-4.5 1.14978,-2.66784 1.65316,-6.56276 1.61852,-12.52336 -0.0418,-7.18943 -0.50249,-9.63902 -2.72657,-14.49706 -1.47197,-3.21519 -3.62708,-6.85786 -4.78913,-8.09481 -1.16206,-1.23695 -1.87094,-2.49089 -1.5753,-2.78653 0.29564,-0.29564 1.92698,1.04497 3.6252,2.97914 7.48444,8.5243 9.61106,30.30575 3.71956,38.09669 -0.8126,1.0746 -1.49177,1.67127 -1.50927,1.32593 z m -20.25973,-16.6092 c -0.24574,-16.92395 -0.44141,-18.76962 -2.02207,-19.07332 -1.61546,-0.3104 -1.75,1.07883 -1.75,18.07041 0,10.12366 0.3,18.70666 0.66667,19.07332 0.36666,0.36667 1.27659,0.66667 2.02206,0.66667 1.10199,0 1.30453,-3.50318 1.08334,-18.73708 z m -27.27207,13.53165 c 12.15762,-4.05606 21.5,-8.17593 21.5,-9.48123 0,-0.814 -0.39951,-1.33001 -0.8878,-1.14667 -20.21303,7.58921 -27.09124,10.55623 -27.10078,11.69032 -0.008,0.89714 0.58161,1.11663 1.73858,0.64772 0.9625,-0.3901 3.1,-1.15967 4.75,-1.71014 z m 37.91821,-14.40156 c 1.45806,-0.55951 2.30656,-3.39301 1.01605,-3.39301 -1.30179,0 -4.43426,2.14413 -4.43426,3.03518 0,1.10806 1.14954,1.2284 3.41821,0.35783 z m -134.75667,69.46802 c 1.42563,-2.62159 1.82891,-5.57757 1.8331,-13.43608 0.005,-8.55387 -0.36434,-10.89414 -2.44325,-15.5 -1.34673,-2.98372 -3.33601,-6.43568 -4.42061,-7.67101 -1.0846,-1.23533 -1.72622,-2.49183 -1.42582,-2.79223 1.05,-1.05 5.65841,5.55567 7.86434,11.27269 3.7846,9.80843 2.52314,29.56812 -1.98354,31.07035 -0.81661,0.2722 -0.6164,-0.75141 0.57578,-2.94372 z m -23.05335,-21.53567 c -2.51866,-8.00369 -2.74554,-22.32536 -0.35368,-22.32536 0.58879,0 0.73183,2.08262 0.36057,5.25 -0.33845,2.8875 -0.18596,8.15816 0.33887,11.71257 0.94068,6.37074 0.77586,8.92703 -0.34576,5.36279 z m 51.09018,-14.00439 c -0.28656,-0.46366 0.0106,-1.51306 0.66028,-2.332 1.53068,-1.92936 5.64135,-4.24983 5.64135,-3.18454 0,1.38481 -5.74625,6.41516 -6.30163,5.51654 z M 140.99997,281.1479 c -0.33992,-0.55 -1.71648,-1 -3.05902,-1 -1.34254,0 -2.44098,-0.45 -2.44098,-1 0,-0.55 0.65383,-1 1.45295,-1 2.06717,0 6.54705,2.16261 6.54705,3.16051 0,1.16584 -1.7497,1.0535 -2.5,-0.16051 z m -15.5,-5.88342 c 0,-1.13216 4.89437,-2.09651 5.51812,-1.08726 0.51485,0.83304 -1.85196,1.97068 -4.09991,1.97068 -0.78001,0 -1.41821,-0.39754 -1.41821,-0.88342 z m 41.94661,-51.61658 c -0.30436,-13.2 -0.41686,-24.1875 -0.25,-24.41667 1.09856,-1.50874 1.3099,3.32561 1.07184,24.51845 l -0.26845,23.89822 -0.55339,-24 z m 106.45078,-10.5 c 0,-7.975 0.1553,-11.2375 0.34512,-7.25 0.18981,3.9875 0.18981,10.5125 0,14.5 -0.18982,3.9875 -0.34512,0.725 -0.34512,-7.25 z"
       id="path3000"
       inkscape:connector-curvature="0" />
  </g>
</svg>
