<?xml version="1.0" encoding="UTF-8" standalone="no"?>
<!-- Created with Inkscape (http://www.inkscape.org/) -->

<svg
   xmlns:dc="http://purl.org/dc/elements/1.1/"
   xmlns:cc="http://creativecommons.org/ns#"
   xmlns:rdf="http://www.w3.org/1999/02/22-rdf-syntax-ns#"
   xmlns:svg="http://www.w3.org/2000/svg"
   xmlns="http://www.w3.org/2000/svg"
   xmlns:sodipodi="http://sodipodi.sourceforge.net/DTD/sodipodi-0.dtd"
   xmlns:inkscape="http://www.inkscape.org/namespaces/inkscape"
   width="189.01587"
   height="236.81934"
   id="svg2"
   version="1.1"
   inkscape:version="0.48.3.1 r9886"
   sodipodi:docname="Close-grip-bench-press-2.svg">
  <defs
     id="defs4" />
  <sodipodi:namedview
     id="base"
     pagecolor="#ffffff"
     bordercolor="#666666"
     borderopacity="1.0"
     inkscape:pageopacity="0.0"
     inkscape:pageshadow="2"
     inkscape:zoom="2.8"
     inkscape:cx="43.844257"
     inkscape:cy="196.81152"
     inkscape:document-units="px"
     inkscape:current-layer="layer1"
     showgrid="false"
     inkscape:window-width="1855"
     inkscape:window-height="1056"
     inkscape:window-x="65"
     inkscape:window-y="24"
     inkscape:window-maximized="1"
     fit-margin-top="0"
     fit-margin-left="0"
     fit-margin-right="0"
     fit-margin-bottom="0" />
  <metadata
     id="metadata7">
    <rdf:RDF>
      <cc:Work
         rdf:about="">
        <dc:format>image/svg+xml</dc:format>
        <dc:type
           rdf:resource="http://purl.org/dc/dcmitype/StillImage" />
        <dc:title></dc:title>
      </cc:Work>
    </rdf:RDF>
  </metadata>
  <g
     inkscape:label="Ebene 1"
     inkscape:groupmode="layer"
     id="layer1"
     transform="translate(-128.36949,-178.68963)">
    <path
       style="fill:#000000"
       d="m 188.43845,412.60776 c -1.70817,-1.59567 -3.10576,-3.87525 -3.10576,-5.06574 0,-1.19049 -0.46954,-3.04188 -1.04342,-4.11418 -1.42914,-2.67037 -2.08495,-8.14249 -1.93844,-16.1745 0.0682,-3.73847 -0.81769,-10.88429 -1.98354,-16 l -2.10676,-9.24437 2.11304,-7 c 1.16217,-3.85 2.53024,-10.15 3.04016,-14 0.50991,-3.85 1.37528,-8.03367 1.92304,-9.29705 1.23303,-2.84394 1.32865,-17.52662 0.10923,-16.77298 -0.48768,0.30141 -1.40789,-0.08 -2.0449,-0.84754 -0.98637,-1.18851 -1.74348,-1.14979 -5.10313,0.26101 -3.85395,1.61835 -3.94517,1.77346 -3.95511,6.72506 -0.015,7.49164 -2.66763,15.28896 -6.50751,19.12885 -2.89888,2.89887 -3.94511,3.30265 -8.55749,3.30265 -4.789,0 -5.57715,-0.33882 -8.8906,-3.82198 -3.31187,-3.48149 -7.82651,-13.73941 -6.59076,-14.97516 0.26901,-0.26901 0.76286,0.36279 1.09743,1.40401 1.69949,5.28893 4.11462,9.90513 6.54139,12.50299 2.28006,2.44081 3.47639,2.89014 7.69499,2.89014 4.43289,0 5.33266,-0.38434 7.99293,-3.41423 4.26302,-4.85531 5.70591,-9.84694 5.6615,-19.58577 -0.0571,-12.51454 -3.68784,-21.34521 -10.40841,-25.31515 -2.50911,-1.48217 -3.65731,-1.59669 -6.99567,-0.69777 -6.54311,1.76188 -9.71345,7.40747 -11.44412,20.37912 -0.57513,4.31074 -1.53486,4.0787 8.34814,2.0184 2.59978,-0.54197 3.03352,-0.29055 3.63535,2.10734 0.42887,1.70875 0.23958,2.997 -0.50828,3.4592 -2.24198,1.38562 -24.91453,6.26858 -25.99777,5.5991 -1.46848,-0.90757 -1.36698,-4.08303 0.16871,-5.27811 0.6875,-0.53501 3.95,-1.53054 7.25,-2.21228 l 6,-1.23953 0.0974,-4.8294 c 0.1436,-7.11841 2.24193,-13.47873 5.7758,-17.50723 2.58231,-2.94375 4.00398,-3.66434 8.16441,-4.1382 4.47285,-0.50944 5.4018,-0.26734 8.28591,2.15949 3.52888,2.96935 5.88953,6.90625 7.6203,12.70847 l 1.1077,3.71346 5.27584,-3.01316 c 6.05113,-3.45595 6.03334,-3.06159 0.65948,-14.62475 -4.22909,-9.0999 -6.48687,-17.84807 -6.48687,-25.13458 0,-3.89661 -0.67223,-6.93724 -2.13771,-9.66923 -2.2867,-4.26292 -2.55149,-7.90746 -1.37936,-18.98519 0.70702,-6.68202 4.37674,-15.5 6.45053,-15.5 0.46703,0 3.32415,-2.475 6.34915,-5.5 3.025,-3.025 5.97134,-5.5 6.54743,-5.5 0.57608,0 1.3542,-2.04579 1.72916,-4.5462 0.37496,-2.5004 0.89872,-4.32921 1.16392,-4.06402 0.26519,0.2652 0.17119,2.74329 -0.2089,5.50688 -0.51559,3.74877 -1.18888,5.18269 -2.65146,5.6469 -2.96704,0.9417 -15.72229,13.98835 -16.26382,16.63536 -0.26116,1.27659 -0.748,4.34608 -1.08186,6.82108 -0.33386,2.475 -0.8627,6.345 -1.17519,8.6 -0.41579,3.00039 0.02,5.41418 1.6248,9 1.23471,2.75884 2.58295,8.61426 3.08541,13.4 1.18279,11.26552 2.2385,15.27165 5.89045,22.35264 1.6816,3.26056 3.05745,6.70998 3.05745,7.66538 0,1.97634 2.34859,4.30006 3.34201,3.30664 0.3619,-0.3619 0.65799,-1.41325 0.65799,-2.33634 0,-0.92309 0.7875,-2.36132 1.75,-3.19607 2.11568,-1.83487 8.25,-3.14891 8.25,-1.76725 0,0.53625 -1.575,0.975 -3.5,0.975 -3.0186,0 -3.5,0.32702 -3.5,2.37756 0,1.30765 0.675,2.93775 1.5,3.62244 2.42255,2.01054 1.76309,4.64839 -1.5,6 -2.34618,0.97182 -3,1.86709 -3,4.1079 0,5.01067 9.23415,7.49241 16.53212,4.44313 1.90733,-0.79694 3.50231,-2.03444 3.54439,-2.75 0.20088,-3.41584 0.95765,-5.35284 2.54468,-6.5133 0.95304,-0.69689 1.42638,-1.57349 1.05187,-1.94801 -0.37452,-0.37452 -1.73211,0.30658 -3.01688,1.51355 -3.42005,3.21298 -14.8931,5.95713 -13.15618,3.14673 0.33992,-0.55 1.91218,-1 3.49392,-1 1.58174,0 4.03018,-0.43886 5.44098,-0.97525 2.20538,-0.83848 2.56295,-1.57473 2.54979,-5.25 -0.0186,-5.19646 -0.73817,-6.45491 -3.98469,-6.96899 -1.375,-0.21773 1.80242,-0.42673 7.06094,-0.46445 5.25852,-0.0377 10.54602,-0.59578 11.75,-1.24013 1.31821,-0.70548 2.18906,-0.77843 2.18906,-0.18337 0,1.30027 -6.50362,3.06958 -11.30902,3.07661 -2.28351,0.003 -3.56149,0.40608 -3.19098,1.00558 0.92185,1.49158 6.96054,1.20995 13.34609,-0.62243 3.10965,-0.89234 5.77772,-1.72865 5.92904,-1.85847 0.15132,-0.12982 -0.63618,-2.36203 -1.75,-4.96047 -2.3836,-5.56072 -2.47402,-6.17606 -0.68991,-4.69539 0.73437,0.60947 1.93139,2.91457 2.66006,5.12245 0.72866,2.20787 1.70885,4.01431 2.1782,4.01431 1.12056,0 -1.53676,-6.29707 -4.28752,-10.16015 -1.6306,-2.28997 -2.24527,-4.81499 -2.48106,-10.192 l -0.31343,-7.14785 0.89668,5.57689 c 0.87377,5.4344 7.99725,21.15746 8.00697,17.67311 0.003,-0.9625 0.45488,-1.75 1.00488,-1.75 0.55,0 1,0.94814 1,2.10699 0,1.54438 0.43915,1.93847 1.64462,1.47589 0.926,-0.35534 2.45886,0.10578 3.50809,1.05532 1.74184,1.57634 1.75492,1.80639 0.2004,3.52411 -2.03862,2.25265 -1.14355,2.30498 4.24245,0.24804 3.60696,-1.37751 4.64285,-2.44398 6.96729,-7.17299 0.071,-0.14445 3.68591,0.42951 8.03312,1.27547 7.3211,1.42466 8.36498,1.40808 14.15403,-0.22488 3.4375,-0.96963 6.25,-2.33109 6.25,-3.02546 0,-1.63905 -2.37689,-1.58164 -8.24552,0.19915 -4.07892,1.23772 -5.75986,1.24672 -11.96667,0.0641 -3.97163,-0.75676 -7.64191,-1.11588 -8.15618,-0.79804 -0.51427,0.31783 -1.51867,-0.22028 -2.232,-1.19582 -1.03132,-1.41041 -2.0679,-1.62906 -5.06104,-1.06755 l -3.76408,0.70615 2.46274,1.89254 c 1.84347,1.41664 2.05349,1.89813 0.83519,1.91477 -2.01098,0.0275 -3.80684,-2.04083 -4.3868,-5.05232 -0.24135,-1.25324 -0.89936,-2.73916 -1.46223,-3.30203 -0.56288,-0.56291 -1.02341,-2.58563 -1.02341,-4.49498 0,-1.90935 -1.15636,-6.36199 -2.5697,-9.89477 -2.04313,-5.10704 -2.60664,-8.35058 -2.75,-15.82901 -0.0992,-5.17319 0.1572,-9.40554 0.5697,-9.40523 0.4125,3e-4 0.77471,1.01305 0.80492,2.25055 0.26236,10.74865 1.34919,18.62181 3.02372,21.90414 1.05675,2.0714 1.92136,5.62718 1.92136,7.90173 0,2.27455 0.7875,5.47502 1.75,7.11216 1.61082,2.73988 2.07575,2.92807 5.84588,2.36613 2.92614,-0.43613 4.43404,-0.20304 5.27992,0.81619 0.65122,0.78468 3.75808,1.7352 6.90412,2.11229 3.14604,0.37708 6.73258,0.92603 7.97008,1.21989 2.0476,0.48622 2.25,0.17419 2.25,-3.46879 0,-6.21292 3.55632,-16.41448 6.80828,-19.53006 2.06626,-1.9796 4.29556,-2.90864 8.04508,-3.35272 5.05538,-0.59873 5.2823,-0.51388 8.95731,3.34935 3.67553,3.86379 7.18933,12.05911 7.18933,16.76786 0,1.22017 0.23699,2.45548 0.52664,2.74514 0.71725,0.71724 12.73766,-2.09849 13.92336,-3.26149 2.18567,-2.14384 -1.06093,-2.85327 -6.47013,-1.41382 -6.39018,1.70051 -7.28559,1.78569 -6.56816,0.62486 0.75574,-1.22282 12.18505,-3.51011 13.49479,-2.70064 0.60143,0.3717 1.0935,1.69198 1.0935,2.93395 0,1.9863 -0.90288,2.471 -7.5,4.02627 -7.49742,1.76752 -7.5,1.76929 -7.5,5.13362 0,8.16508 -3.72293,19.16423 -7.64359,22.58245 -2.5488,2.22216 -9.35006,2.92399 -13.09134,1.3509 -3.39758,-1.42858 -7.35385,-7.44941 -9.3311,-14.20046 -1.3349,-4.55784 -1.44947,-4.62621 -10.43012,-6.22475 -3.79057,-0.67471 -6.11402,-0.71368 -6.3166,-0.10594 -1.03813,3.11438 -4.53573,5.77295 -9.15101,6.95581 -2.83495,0.72658 -5.39111,1.08439 -5.68036,0.79515 -0.28925,-0.28925 -1.87174,-0.0567 -3.51666,0.51667 -2.13425,0.74401 -2.68267,1.35066 -1.91498,2.11835 1.24455,1.24455 1.43826,4.35297 0.30178,4.84243 -0.42569,0.18333 -0.41341,4.83333 0.0273,10.33333 0.4407,5.5 0.73807,11.35 0.66081,13 -0.29869,6.37958 -0.0522,15.52706 0.76832,28.51677 l 0.85384,13.51676 6.76646,6.73324 c 4.43745,4.41565 7.56171,6.73323 9.07688,6.73323 2.7962,0 5.88588,3.14455 5.10053,5.19113 -0.31244,0.81421 -2.14307,2.23144 -4.06808,3.14941 -3.81727,1.82033 -9.81596,1.43666 -14.51309,-0.92826 -1.43056,-0.72025 -5.07232,-1.22017 -8.09281,-1.11092 -9.03439,0.32678 -10.38592,-2.41622 -7.21669,-14.64669 1.87703,-7.24369 1.34242,-11.97478 -2.20057,-19.47402 -2.18904,-4.63341 -2.48522,-6.50321 -2.29677,-14.5 0.25491,-10.81734 -1.3872,-18.49667 -5.2622,-24.60862 -1.54404,-2.43538 -2.57493,-4.66038 -2.29086,-4.94444 1.60185,-1.60186 9.46092,11.31821 9.46092,15.55347 0,1.31075 0.675,3.99868 1.5,5.97318 1.97928,4.73708 1.93102,6.44839 -0.15922,5.64629 -1.48463,-0.56971 -1.5905,0.10272 -1.00612,6.39043 0.35921,3.86493 1.61665,9.20539 2.79431,11.8677 1.90876,4.31506 2.059,5.82306 1.38391,13.89094 -0.41652,4.97772 -0.81481,10.8504 -0.88509,13.0504 l -0.12779,4 7.5,0.50849 c 4.125,0.27966 8.4,0.98916 9.5,1.57666 2.85771,1.52627 8.45984,1.67413 11.75268,0.31018 4.19612,-1.73808 3.19997,-3.27898 -3.77536,-5.8399 -1.66247,-0.61036 -5.67736,-4.07778 -8.92198,-7.70536 l -5.89931,-6.59562 -0.90843,-13.62722 c -0.49965,-7.49498 -0.96951,-14.75223 -1.04414,-16.12723 -0.0746,-1.375 0.18897,-5.65 0.58577,-9.5 0.91888,-8.91535 -0.13953,-10.94815 -3.60352,-6.92101 -2.46689,2.86792 -2.52124,2.87984 -4.59108,1.00666 -1.15205,-1.0426 -2.09464,-2.60101 -2.09464,-3.46314 0,-1.14286 0.42173,-0.96542 1.5567,0.65498 2.13448,3.0474 3.96742,2.78559 5.4433,-0.77749 0.68345,-1.65 1.63805,-3 2.12132,-3 1.00182,0 1.16324,-5.32719 0.29323,-9.67724 l -0.58545,-2.92724 -5.55547,2.80224 c -6.14323,3.09871 -8.60026,3.38163 -12.17298,1.40169 -2.20267,-1.22068 -1.91576,-1.32024 3.5,-1.21456 5.23471,0.10214 6.47119,-0.28517 10.97499,-3.43776 4.0122,-2.80848 4.87159,-3.87635 4.10174,-5.09681 -0.86299,-1.36813 -1.72569,-1.38676 -7.57564,-0.16361 -3.63096,0.75919 -6.75174,1.81526 -6.93507,2.34682 -0.18334,0.53156 -1.12609,0.96647 -2.09502,0.96647 -2.32242,0 -5.07165,3.12091 -5.07165,5.75731 0,1.15491 -0.6011,2.70093 -1.33578,3.43561 -0.73467,0.73468 -1.603,3.92495 -1.92961,7.0895 -0.32661,3.16456 -1.52501,7.2604 -2.6631,9.10188 -3.65562,5.91492 -6.07151,15.31498 -6.07151,23.62385 0,5.0093 -0.58827,9.11616 -1.66441,11.61973 -1.1116,2.58604 -1.69285,6.86137 -1.75,12.87212 -0.0835,8.78244 0.01,9.15713 3.86495,15.5 2.17279,3.575 4.45428,6.95 5.06996,7.5 2.22374,1.98648 4.61988,6.69178 4.099,8.04919 -0.79461,2.07071 -7.28433,4.45081 -12.13587,4.45081 -3.33413,0 -4.95401,-0.63699 -7.37787,-2.90121 z m 12.39424,-1.09879 c 0,-1.16636 -1.16773,-1.45883 -5.25,-1.31491 -6.82332,0.24057 -6.8505,-1.38412 -0.0309,-1.84406 4.04149,-0.27256 5.55832,0.0441 6.72224,1.40349 1.75183,2.04598 4.05861,2.32069 4.05861,0.48332 0,-0.69968 -1.26664,-2.83718 -2.81475,-4.75 -1.54812,-1.91281 -4.48903,-6.50441 -6.53536,-10.20355 -4.99156,-9.0232 -5.79153,-16.65702 -2.78339,-26.56066 2.25604,-7.42753 2.94005,-16.42018 1.10976,-14.58989 -0.56305,0.56306 -1.44946,3.63946 -1.96978,6.83645 -1.18298,7.26851 -2.00648,8.24365 -2.00648,2.37595 0,-2.79591 0.93208,-6.33827 2.46389,-9.36397 1.35513,-2.67673 2.7652,-6.2387 3.13348,-7.91547 0.66296,-3.01843 1.60231,-5.3565 6.04926,-15.0567 1.2607,-2.75 2.57753,-6.84408 2.92628,-9.09796 l 0.63408,-4.09796 -5.08549,1.04176 c -4.22307,0.86508 -5.68787,0.7545 -8.63743,-0.65205 -5.3808,-2.56592 -5.70687,-2.32523 -4.959,3.66053 0.48722,3.89962 0.18179,6.89986 -1.12422,11.043 -1.55771,4.94162 -1.6402,6.58091 -0.62813,12.48282 0.64078,3.73678 1.48054,7.61625 1.86611,8.62105 0.4612,1.20186 0.3271,1.59579 -0.39195,1.15139 -0.60115,-0.37153 -1.38838,-2.02035 -1.7494,-3.66405 -1.00291,-4.56626 -2.10577,-3.61513 -4.02365,3.47009 -1.83712,6.78686 -1.74132,8.80097 1.0237,21.524 0.95842,4.41009 1.38776,9.33757 1.04558,12 -0.69718,5.42452 4.13634,21.57778 7.1074,23.75244 2.49615,1.82706 9.84949,1.27829 9.84949,-0.73506 z m -14.5,-18.28734 c 0,-1.21252 3.27469,-6.71266 3.9966,-6.71266 0.98792,0 -1.67004,5.68015 -3.05992,6.53914 -0.51517,0.31839 -0.93668,0.39647 -0.93668,0.17352 z m 7,-51.71266 c 0,-0.55 0.675,-1 1.5,-1 0.825,0 1.5,0.45 1.5,1 0,0.55 -0.675,1 -1.5,1 -0.825,0 -1.5,-0.45 -1.5,-1 z m -3,-7.84501 c 0,-1.51118 0.61715,-2.15499 2.06574,-2.15499 1.13616,0 2.90595,-0.44966 3.93286,-0.99925 1.50035,-0.80296 1.99645,-0.59173 2.52556,1.07536 0.36215,1.14104 0.39237,2.3407 0.0671,2.66592 -0.32522,0.32522 -0.59131,0.0663 -0.59131,-0.57536 0,-1.73379 -4.07188,-1.41159 -6.17126,0.48832 -1.7179,1.55468 -1.82874,1.52437 -1.82874,-0.5 z M 131.0158,322.32147 c -0.31922,-0.79773 -0.55618,-0.56078 -0.60416,0.60417 -0.0434,1.05416 0.19292,1.64479 0.52522,1.3125 0.33229,-0.3323 0.36781,-1.1948 0.0789,-1.91667 z m 14.31689,-0.85751 c 10.25078,-2.69011 10.53832,-2.81667 9.27323,-4.08177 -0.74829,-0.74828 -4.04023,-0.37002 -11.16373,1.28278 -8.3546,1.93845 -10.10311,2.66696 -10.106,4.21063 -0.003,1.46366 0.48223,1.72522 2.2465,1.2116 1.2375,-0.36026 5.625,-1.54072 9.75,-2.62324 z m 46.93334,-16.63507 c 0.23833,-0.19429 -0.0404,-0.82698 -0.61939,-1.40597 -1.48727,-1.48727 -17.26831,6.97692 -17.29461,9.276 -0.0156,1.36072 1.68528,0.79315 8.73066,-2.91342 4.8125,-2.53185 8.945,-4.76233 9.18334,-4.95661 z m -5.89283,6.60439 c 1.01945,-1.90486 0.93774,-1.98303 -0.99282,-0.94983 -1.15704,0.61923 -1.83954,1.55329 -1.51668,2.07569 0.85281,1.37987 1.26822,1.1935 2.5095,-1.12586 z m 106.3294,-2.78853 c 3.67377,-3.83459 5.63009,-10.82344 5.63009,-20.11321 0,-15.64228 -6.84753,-27.20202 -15.5,-26.1665 -6.8859,0.8241 -10.55023,5.42296 -12.41207,15.57759 -1.60299,8.74282 -1.56274,8.91526 1.91207,8.19134 1.65,-0.34375 4.28524,-0.8933 5.85609,-1.22122 2.11814,-0.44217 3.02153,-0.16507 3.49641,1.07244 1.08775,2.83463 -1.07998,5.30194 -5.2819,6.01185 -5.89614,0.99615 -6.49385,2.30567 -4.04265,8.85708 2.79581,7.47249 6.63731,10.65485 12.86168,10.65485 3.90716,0 5.21652,-0.50136 7.48028,-2.86422 z m -5.36991,0.6403 c 0,-0.25784 0.71924,-1.91056 1.59832,-3.67272 5.54825,-11.12173 3.59296,-30.6698 -3.8859,-38.84942 -1.1295,-1.23533 -1.77679,-2.52291 -1.43841,-2.86128 1.34624,-1.34624 5.85252,5.27717 7.73337,11.36666 3.4066,11.02927 2.01248,29.48953 -2.51054,33.2433 -0.82326,0.68325 -1.49684,1.03131 -1.49684,0.77346 z m -60.29561,-8.27757 c 4.60763,-0.99116 9.10117,-2.60034 10.25,-3.67064 2.74891,-2.56101 2.63929,-4.0508 -0.20439,-2.7776 -5.80427,2.59874 -22.57321,6.55927 -24.59904,5.80987 -1.50686,-0.55742 -2.15096,-0.40608 -2.15096,0.50542 0,3.22773 2.23482,3.24552 16.70439,0.13295 z m -0.0974,81.9197 c -0.86706,-2.25952 -0.74939,-4.41821 0.24083,-4.41821 0.4663,0 0.8862,1.35 0.93312,3 0.0951,3.34467 -0.26689,3.78197 -1.17395,1.41821 z m -65.36851,-43.91821 c 0.20184,-0.55 1.18048,-2.79204 2.17474,-4.98231 4.5147,-9.94545 2.57957,-29.03951 -3.66373,-36.15023 -2.15682,-2.45648 -2.53427,-3.36746 -1.39523,-3.36746 1.94207,0 6.08432,7.00871 7.68319,13 1.51525,5.67796 1.55164,18.21275 0.0687,23.65534 -0.62272,2.28543 -2.05526,5.21043 -3.18342,6.5 -1.12816,1.28956 -1.88606,1.89466 -1.68422,1.34466 z m 29.79048,-28.46094 c -0.80907,-0.51167 -1.13585,-1.2655 -0.72619,-1.67516 0.40967,-0.40967 1.50557,0.0159 2.43533,0.94562 1.80738,1.80739 0.72544,2.26921 -1.70914,0.72954 z m 6.06264,-12.28906 c 1.32462,-1.2375 2.56345,-1.89737 2.75294,-1.46638 0.53304,1.21234 -1.9097,3.71638 -3.62539,3.71638 -1.12278,0 -0.88809,-0.60526 0.87245,-2.25 z m -4.51469,-7.27298 c -1.49042,-2.27467 -2.30794,-5.58191 -4.07295,-16.47702 -0.31185,-1.925 -1.24559,-4.39781 -2.07497,-5.49513 -1.29357,-1.71148 -1.64234,-1.78256 -2.45316,-0.5 -1.60436,2.53779 -1.05996,-0.32729 0.66597,-3.50487 2.09632,-3.85951 1.94472,-16.94807 -0.23488,-20.27923 -1.3333,-2.03771 -1.31903,-2.45151 0.13463,-3.90517 3.94754,-3.94755 4.844,-13.50371 1.43779,-15.32666 -1.11137,-0.59479 -2.46137,-0.80906 -3,-0.47617 -0.53864,0.3329 -0.97934,0.12871 -0.97934,-0.45375 0,-0.58246 1.35965,-1.05902 3.02144,-1.05902 2.22665,0 3.31178,0.63722 4.12518,2.42244 1.43855,3.15727 0.28314,10.82526 -2.06879,13.72978 -1.61637,1.99613 -1.66456,2.59262 -0.44519,5.51098 1.61831,3.87316 1.81634,15.62937 0.31066,18.44276 -0.82685,1.54498 -0.5883,2.73237 1.0967,5.45876 1.2679,2.05151 2.52152,6.4159 3.04858,10.61342 0.49234,3.92102 1.78365,8.635 2.86957,10.4755 2.28485,3.87253 1.08521,4.58766 -1.38125,0.82338 z m 16.07056,1.05735 c 1.15087,-0.8061 4.28849,-2.35656 6.97251,-3.44547 4.01857,-1.63034 4.40883,-1.98946 2.21079,-2.03437 -1.46808,-0.03 -5.44457,0.65648 -8.83665,1.52549 -3.39208,0.86901 -6.39781,1.34962 -6.6794,1.06803 -0.71641,-0.71641 8.91677,-3.47722 14.9044,-4.27151 4.38035,-0.58107 4.93992,-0.45257 4.63159,1.06358 -0.21096,1.03733 -3.07984,2.88712 -7.19967,4.64219 -7.66,3.26319 -9.0795,3.60652 -6.00357,1.45206 z m -11.64747,-6.47535 c 0,-0.51754 0.45,-1.2191 1,-1.55902 0.55,-0.33992 1,-1.28098 1,-2.09124 0,-1.91681 -4.23551,-3.56165 -5.23468,-2.03287 -0.45375,0.69426 -0.74055,0.41347 -0.75,-0.7343 -0.0124,-1.50694 0.47955,-1.7342 2.60135,-1.20167 1.43916,0.36121 3.91416,0.91625 5.5,1.23341 3.0032,0.60064 4.01351,2.32667 1.36189,2.32667 -0.83679,0 -2.03402,1.125 -2.66051,2.5 -1.12121,2.46079 -2.81805,3.39952 -2.81805,1.55902 z m 8.38265,-4.86914 c 0.27537,-0.44556 2.61519,-0.91957 5.19959,-1.05335 2.5844,-0.13378 6.50246,-0.86461 8.70681,-1.62407 3.1617,-1.08929 3.71263,-1.10576 2.60942,-0.078 -0.76916,0.71656 -2.92812,1.81194 -4.79769,2.43418 -3.89983,1.29796 -12.46693,1.53281 -11.71813,0.32123 z m -5.38265,-4.11937 c -4.69723,-0.69129 -9.5712,-2.83264 -8.61771,-3.78613 0.30447,-0.30447 1.90162,0.005 3.54921,0.68725 4.58491,1.89913 19.806,1.76002 24.3185,-0.22226 3.05551,-1.34224 3.75,-1.39211 3.75,-0.2693 0,1.73648 -9.45592,4.56689 -14.65391,4.38632 -2.11535,-0.0735 -5.87109,-0.43164 -8.34609,-0.79588 z m 6.65266,-4.12909 c -1.45896,-1.14762 -2.65266,-2.76353 -2.65266,-3.59092 0,-0.99372 1.05965,-0.44469 3.12179,1.61745 3.66774,3.66774 3.35536,4.98182 -0.46913,1.97347 z m -2.15266,-6.94142 c -0.33992,-0.55 -0.14148,-1 0.44098,-1 0.58246,0 1.05902,0.45 1.05902,1 0,0.55 -0.19844,1 -0.44098,1 -0.24254,0 -0.7191,-0.45 -1.05902,-1 z m 18.63361,-3.15048 c -0.1212,-2.40426 -0.45875,-2.62026 -3.63361,-2.32519 -3.27637,0.30451 -3.5,0.13842 -3.5,-2.59952 0,-1.60864 0.45,-2.92481 1,-2.92481 0.55,0 1,0.9 1,2 0,3.02822 3.29442,2.46446 5.28439,-0.90429 1.88031,-3.18312 2.16135,-8.46884 0.76929,-14.46884 -0.89412,-3.85382 0.27154,-8.62687 2.10684,-8.62687 1.2072,0 1.03411,2.40537 -0.2667,3.70618 -0.80823,0.80823 -0.78746,2.99573 0.0771,8.12162 0.94351,5.59372 0.92366,7.4873 -0.0979,9.34382 -0.70469,1.28061 -1.57927,4.35338 -1.94352,6.82838 -0.3874,2.63233 -0.71772,3.39995 -0.79588,1.84952 z m -29.6909,-0.26776 c -2.90688,-2.12556 -1.08045,-2.96291 2.46436,-1.12982 1.70111,0.87968 3.09293,1.81286 3.09293,2.07374 0,1.02825 -3.7256,0.39545 -5.55729,-0.94392 z m 11.22396,0.75157 c -1.41727,-1.41727 -0.47498,-1.84142 4.58761,-2.065 l 5.24572,-0.23167 -4,1.46661 c -4.5977,1.68576 -4.9303,1.73309 -5.83333,0.83006 z m -6.66667,-4.33333 c 0,-0.55 1.15156,-1 2.55902,-1 1.45137,0 2.29151,0.43284 1.94098,1 -0.33992,0.55 -1.49147,1 -2.55901,1 -1.06754,0 -1.94099,-0.45 -1.94099,-1 z m -7.5,-4 c 0.33992,-0.55 1.23992,-1 2,-1 0.76008,0 1.66008,0.45 2,1 0.35191,0.5694 -0.50928,1 -2,1 -1.49071,0 -2.35191,-0.4306 -2,-1 z m 11.75,-0.0785 c -1.2375,-0.47139 -2.25,-1.32537 -2.25,-1.89775 0,-0.68613 0.61956,-0.65378 1.81844,0.0949 1.47148,0.91895 2.61249,0.63436 5.98013,-1.49153 2.28893,-1.4449 4.84563,-2.62712 5.68156,-2.62712 0.89926,0 1.51987,-0.89833 1.51987,-2.2 0,-1.51322 0.32241,-1.87759 1.03278,-1.16722 1.73063,1.73063 0.10459,3.92399 -4.32267,5.83086 -2.31556,0.99734 -4.88511,2.37618 -5.71011,3.06409 -0.98926,0.82488 -2.26611,0.95894 -3.75,0.39373 z m -12.25,-3.80487 c 0,-1.14897 4.04944,-2.20411 5.35717,-1.39589 0.55965,0.34588 0.1478,0.96194 -0.92354,1.38148 -2.68861,1.05286 -4.43363,1.05854 -4.43363,0.0144 z m 31.5,-1.10377 c -1.1,-0.40485 -2.5625,-0.52522 -3.25,-0.26749 -0.6875,0.25774 -1.25,-0.0295 -1.25,-0.63838 0,-1.41825 5.66793,-1.4533 6.54112,-0.0405 0.92801,1.50155 0.28167,1.80121 -2.04112,0.94633 z m -17.48625,-2.29466 c 0.83257,-0.67001 2.31483,-2.47004 3.29393,-4.00007 0.9791,-1.53002 2.2682,-2.48025 2.86467,-2.11161 0.70708,0.437 0.5178,0.98738 -0.54393,1.58155 -0.89563,0.50122 -1.62842,1.54812 -1.62842,2.32644 0,0.77832 -0.87042,1.88095 -1.93426,2.45031 -2.62852,1.40674 -3.91443,1.25219 -2.05199,-0.24662 z m -12.37889,-4.79078 c -1.44917,-1.13992 -2.63486,-2.52258 -2.63486,-3.07258 0,-0.55 1.18569,-0.0673 2.63486,1.07258 3.32224,2.61327 6.83024,2.6385 10.09227,0.0726 1.39842,-1.1 3.36607,-2 4.37254,-2 2.5692,0 4.22123,-3.6351 3.54522,-7.80085 -0.43518,-2.68174 -0.29351,-3.24777 0.59142,-2.36284 1.55135,1.55135 1.48439,7.59037 -0.10541,9.50596 -0.698,0.84105 -2.588,1.81885 -4.2,2.17291 -1.61199,0.35405 -2.9309,0.98574 -2.9309,1.40376 0,1.01571 -4.6335,3.08106 -6.91219,3.08106 -0.99995,0 -3.00378,-0.93266 -4.45295,-2.07258 z m 24.36514,-1.02104 c 0,-0.49851 0.9,-0.90638 2,-0.90638 1.1,0 2,0.17252 2,0.38337 0,0.21085 -0.9,0.61872 -2,0.90638 -1.1,0.28765 -2,0.11514 -2,-0.38337 z m -1.75,-3.54528 c -2.52374,-1.06556 -1.1345,-1.8611 3.25,-1.8611 2.475,0 4.5,0.3375 4.5,0.75 0,0.4125 -0.5625,0.75614 -1.25,0.76365 -0.6875,0.007 -2.15,0.20751 -3.25,0.44443 -1.1,0.23693 -2.5625,0.19329 -3.25,-0.097 z m 15.74736,-0.3611 c -0.11405,-0.275 -0.29016,-3.22218 -0.39135,-6.5493 -0.21718,-7.14026 -2.99667,-11.88033 -8.25467,-14.07726 -6.49211,-2.71258 -3.18569,-2.89751 3.8285,-0.21413 4.53688,1.73565 7.53392,10.85624 5.86247,17.84069 -0.46067,1.925 -0.9309,3.275 -1.04495,3 z m -26.99736,-17.21034 c -1.375,-0.52115 -4.75,-0.7177 -7.5,-0.43677 -4.59301,0.4692 -4.73545,0.42315 -1.75,-0.56572 3.39449,-1.12435 3.95407,-2.6031 2.21482,-5.85291 -0.59561,-1.11291 -0.64104,-1.93426 -0.10699,-1.93426 1.11432,0 2.14217,2.43833 2.14217,5.08179 0,1.86611 1.56596,2.29643 8.25,2.26709 0.9625,-0.004 1.75,0.3174 1.75,0.71473 0,1.3255 -2.47151,1.68438 -5,0.72605 z m 6.40265,-3.63214 c 0.39346,-0.63663 0.23883,-1.15752 -0.34363,-1.15752 -0.58246,0 -1.05902,-0.9 -1.05902,-2 0,-1.47343 -0.66667,-2 -2.53212,-2 -3.11948,0 -9.46788,-2.56312 -9.46788,-3.82259 0,-0.50856 -1.76847,-2.85933 -3.92994,-5.22395 -3.02309,-3.30721 -4.08472,-5.42466 -4.60069,-9.17619 -1.23846,-9.00472 2.68009,-13.71158 11.95128,-14.35555 7.03505,-0.48865 11.22348,2.0281 12.11652,7.28058 0.35513,2.08874 1.0119,5.23712 1.45949,6.9964 0.44759,1.75929 0.45372,4.90929 0.0136,7 -2.21758,10.53495 -2.22536,11.3013 -0.11459,11.3013 1.09246,0 2.28215,0.4787 2.64375,1.06378 0.44716,0.72353 -0.53461,0.84015 -3.06945,0.36461 -2.94657,-0.55278 -3.62487,-0.4091 -3.23962,0.68622 0.30419,0.86486 1.66751,1.29003 3.62846,1.13158 1.72766,-0.13959 3.14119,0.19791 3.14119,0.75 0,0.5521 -0.5625,1.00995 -1.25,1.01746 -0.6875,0.007 -2.33287,0.3034 -3.65637,0.65753 -1.68718,0.45143 -2.19256,0.29792 -1.69098,-0.51366 z m 0.16964,-8.23739 c 1.55973,-1.7235 1.87789,-3.65116 1.85676,-11.25 -0.0354,-12.72512 -2.41376,-16.67013 -10.05013,-16.67013 -5.90326,0 -10.20747,2.34544 -11.94776,6.51052 -1.39857,3.34724 -1.0621,6.48948 0.69488,6.48948 0.50164,0 0.64245,1.07424 0.31292,2.38719 -0.44097,1.75699 -0.0196,2.79313 1.59612,3.92483 1.2074,0.84569 3.00654,2.87165 3.9981,4.50213 1.13628,1.86848 3.40445,3.53082 6.13482,4.49624 5.6259,1.98921 5.2321,2.00997 7.40429,-0.39026 z"
       id="path3075"
       inkscape:connector-curvature="0" />
  </g>
</svg>
