<?xml version="1.0" encoding="UTF-8" standalone="no"?>
<!-- Created with Inkscape (http://www.inkscape.org/) -->

<svg
   xmlns:dc="http://purl.org/dc/elements/1.1/"
   xmlns:cc="http://creativecommons.org/ns#"
   xmlns:rdf="http://www.w3.org/1999/02/22-rdf-syntax-ns#"
   xmlns:svg="http://www.w3.org/2000/svg"
   xmlns="http://www.w3.org/2000/svg"
   xmlns:xlink="http://www.w3.org/1999/xlink"
   xmlns:sodipodi="http://sodipodi.sourceforge.net/DTD/sodipodi-0.dtd"
   xmlns:inkscape="http://www.inkscape.org/namespaces/inkscape"
   width="116.68285"
   height="188.17087"
   id="svg2"
   version="1.1"
   inkscape:version="0.48.3.1 r9886"
   sodipodi:docname="Concentration-curls-1.svg">
  <defs
     id="defs4">
    <radialGradient
       gradientUnits="userSpaceOnUse"
       gradientTransform="matrix(1,0,0,0.91819829,-19.285714,-7.9105395)"
       r="209.56604"
       fy="287.50052"
       fx="398.1105"
       cy="287.50052"
       cx="398.1105"
       id="radialGradient5255"
       xlink:href="#linearGradient5249"
       inkscape:collect="always" />
    <linearGradient
       id="linearGradient5249"
       inkscape:collect="always">
      <stop
         id="stop5251"
         offset="0"
         style="stop-color:#e3e3e3;stop-opacity:1;" />
      <stop
         id="stop5253"
         offset="1"
         style="stop-color:#e3e3e3;stop-opacity:0;" />
    </linearGradient>
  </defs>
  <sodipodi:namedview
     id="base"
     pagecolor="#ffffff"
     bordercolor="#666666"
     borderopacity="1.0"
     inkscape:pageopacity="0.0"
     inkscape:pageshadow="2"
     inkscape:zoom="2.8"
     inkscape:cx="-39.905544"
     inkscape:cy="66.537192"
     inkscape:document-units="px"
     inkscape:current-layer="layer1"
     showgrid="false"
     showguides="true"
     inkscape:guide-bbox="true"
     fit-margin-top="0"
     fit-margin-left="0"
     fit-margin-right="0"
     fit-margin-bottom="0"
     inkscape:window-width="1217"
     inkscape:window-height="829"
     inkscape:window-x="65"
     inkscape:window-y="189"
     inkscape:window-maximized="0">
    <sodipodi:guide
       orientation="-0.70710678,0.70710678"
       position="-2480.5285,449.36232"
       id="guide2985" />
  </sodipodi:namedview>
  <metadata
     id="metadata7">
    <rdf:RDF>
      <cc:Work
         rdf:about="">
        <dc:format>image/svg+xml</dc:format>
        <dc:type
           rdf:resource="http://purl.org/dc/dcmitype/StillImage" />
        <dc:title></dc:title>
      </cc:Work>
    </rdf:RDF>
  </metadata>
  <g
     inkscape:label="Ebene 1"
     inkscape:groupmode="layer"
     id="layer1"
     transform="translate(-1051.9571,-287.83936)">
    <path
       style="fill:#000000"
       d="m 1154.3643,475.50378 c -5.7085,-1.22278 -9.4529,-5.27643 -9.4529,-10.23369 0,-1.03954 -0.6315,-3.30105 -1.4034,-5.02557 -2.2798,-5.09371 -2.3726,-5.98434 -0.922,-8.85698 0.7597,-1.50499 1.1196,-2.73635 0.7997,-2.73635 -0.32,0 -0.2676,-0.50833 0.1162,-1.12961 1.5792,-2.55495 1.5234,-13.5873 -0.088,-17.41869 -3.152,-7.49476 -3.5029,-12.33026 -1.4596,-20.11282 2.4278,-9.24774 1.3613,-15.64201 -3.1424,-18.83881 -2.3498,-1.66785 -4.181,-8.58852 -3.3893,-12.80876 1.3085,-6.97499 3.3277,-1.62248 2.6873,7.12371 -0.1302,1.77928 3.4824,4.47768 5.9947,4.47768 0.4327,0 2.4539,-2.57467 4.4919,-5.72148 2.038,-3.1468 3.8337,-5.90804 3.9903,-6.13607 0.1567,-0.22803 0.5215,-0.17806 0.8106,0.11104 0.9446,0.94457 -4.4946,10.59813 -7.1467,12.68437 -1.8483,1.45383 -2.3064,2.39261 -1.6033,3.28518 2.0665,2.62282 2.2702,7.09921 0.6637,14.57575 -1.5851,7.37629 -1.5726,8.19589 0.2777,18.09589 2.1284,11.38646 2.3135,20.12953 0.4976,23.48852 -1.6115,2.98103 -1.4859,4.55212 0.7594,9.49167 1.0638,2.34053 2.1947,5.49828 2.5129,7.0172 0.9033,4.3122 3.9265,6.6912 8.5028,6.6912 3.4392,0 4.2691,-0.44983 5.9666,-3.23388 3.0225,-4.95727 3.0877,-4.70503 -6.4893,-25.12473 -1.1158,-2.37922 -1.1415,-3.04345 -0.1265,-3.27255 0.8136,-0.18362 1.1158,-1.36274 0.8367,-3.26469 -0.2404,-1.63748 0.349,-7.02376 1.3096,-11.9695 1.3538,-6.96962 1.5529,-10.59967 0.8851,-16.13857 -0.4737,-3.93048 -0.9051,-10.72847 -0.9584,-15.10664 -0.1641,-13.45556 -0.3218,-14.39689 -2.8315,-16.90668 -2.0894,-2.0894 -2.2178,-2.6128 -1.0267,-4.1837 0.7488,-0.98754 1.3758,-3.19446 1.3931,-4.90428 0.017,-1.70983 0.6979,-4.99716 1.5122,-7.30518 0.9127,-2.58653 1.6704,-9.57453 1.9752,-18.21531 0.4105,-11.63885 0.2389,-14.28405 -1.0109,-15.58072 -2.3803,-2.46958 -6.2732,-8.23701 -7.8982,-11.70159 -1.3633,-2.90661 -7.1411,-8.26845 -8.9098,-8.26845 -0.4085,0 -3.0527,-1.9196 -5.8763,-4.2658 -8.9755,-7.45777 -12.0093,-8.14585 -24.695,-5.601 -4.9694,0.99691 -9.237,2.01419 -9.4834,2.26062 -0.2465,0.24644 0.5099,2.32591 1.6809,4.62107 1.1708,2.29515 1.8765,4.42538 1.5681,4.73384 -1.1067,1.1066 -4.4227,-2.99677 -7.315,-9.0516 -3.5109,-7.34997 -4.8861,-8.63173 -9.9962,-9.31715 -5.9293,-0.79528 -10.8933,1.98862 -13.2186,7.41304 -2.1674,5.0565 -2.3271,7.83323 -0.78,13.56921 2.5434,9.43042 7.4962,16.19023 12.558,17.13983 7.4817,1.40356 12.1987,-4.16578 12.2047,-14.40986 0,-5.52325 0.1962,-6.18111 1.4963,-5.10212 0.8209,0.6813 1.4926,2.28146 1.4926,3.55593 0,2.50591 -2.4934,12.75401 -3.4989,14.38095 -0.8528,1.37989 -8.0171,4.94902 -9.9341,4.94902 -3.1114,0 -9.434,-4.05785 -11.8403,-7.59899 l -2.4551,-3.61294 -2.0527,3.36712 c -1.129,1.85193 -2.0544,4.75358 -2.0565,6.44813 0,1.69456 -0.7315,4.53991 -1.621,6.32302 -1.2015,2.40841 -1.4536,4.63607 -0.9802,8.66374 0.3506,2.98195 0.1141,8.26107 -0.5254,11.73136 -0.8562,4.64711 -0.8765,7.58268 -0.077,11.14116 0.5972,2.65734 1.7988,7.95146 2.6703,11.76471 0.8714,3.81326 2.4665,7.87204 3.5444,9.01949 2.162,2.30136 2.4834,3.45058 0.965,3.45058 -2.3818,0 -4.7941,-4.04806 -5.4202,-9.09585 -0.6759,-5.44717 -2.2867,-9.8099 -3.6222,-9.8099 -0.4101,0 -1.7833,1.67913 -3.0514,3.7314 -1.2681,2.05227 -3.2817,4.62693 -4.4746,5.72147 -1.9224,1.76392 -2.0784,2.55548 -1.3729,6.96527 0.4378,2.73636 1.2591,6.3185 1.8251,7.96032 1.6219,4.70436 3.1807,12.20201 3.1807,15.29902 0,3.49493 4.3471,17.42563 6.4295,20.60375 2.3009,3.5117 2.0142,11.61071 -0.4915,13.87826 -1.1122,1.00654 -2.9839,3.42671 -4.1592,5.37817 -1.1755,1.95145 -3.46,5.25588 -5.077,7.34318 -2.6087,3.36716 -2.799,4.05896 -1.6877,6.13519 0.6887,1.28705 2.084,2.55762 3.1008,2.82348 2.1674,0.56681 8.8927,-2.62894 10.11,-4.80416 0.4633,-0.82775 2.944,-2.57246 5.5128,-3.87713 2.5688,-1.30467 5.9131,-3.52737 7.4319,-4.93932 3.1724,-2.94928 2.9722,-5.6449 -0.8591,-11.57113 -3.3954,-5.25197 -4.3974,-10.54397 -4.1598,-21.9702 0.1948,-9.37303 -0.045,-10.96281 -2.4949,-16.55758 -1.4907,-3.40394 -2.6645,-7.65774 -2.6083,-9.45287 0.097,-3.08554 0.1932,-2.99203 1.7704,1.71134 0.9177,2.73635 2.5958,7.00735 3.7291,9.49111 1.6464,3.60818 2.1848,7.39303 2.6789,18.82959 0.3401,7.87252 0.967,14.57184 1.3928,14.88734 1.4732,1.09115 5.2577,9.53734 5.2551,11.72759 0,2.75186 -4.2443,6.88458 -9.4556,9.21489 -2.1892,0.97885 -5.0792,2.96737 -6.4224,4.41893 -3.5985,3.88918 -10.2714,6.95231 -13.4223,6.16147 -5.3476,-1.34215 -5.4826,-10.24054 -0.2373,-15.63817 3.3227,-3.41913 7.5725,-11.52869 8.2447,-15.73262 0.4269,-2.66974 -0.3549,-6.29087 -2.9968,-13.88075 -1.9658,-5.6478 -3.5742,-11.73627 -3.5742,-13.52995 0,-1.79368 -0.6717,-5.1649 -1.4926,-7.4916 -0.8208,-2.3267 -1.4925,-5.11242 -1.4925,-6.19049 0,-1.07807 -0.9333,-3.27068 -2.0738,-4.87246 -3.157,-4.43351 -1.8806,-9.55988 4.1989,-16.86519 2.7021,-3.24675 5.308,-5.90318 5.7912,-5.90318 0.4832,0 0.4212,-1.65682 -0.138,-3.68183 -1.0365,-3.7541 -0.3902,-12.29553 1.1478,-15.16952 0.4894,-0.91436 0.4073,-3.53418 -0.1931,-6.15757 -0.8238,-3.60039 -0.7156,-5.70012 0.5121,-9.92813 0.8562,-2.94912 2.0861,-7.4572 2.7331,-10.01796 0.6471,-2.56076 2.1866,-5.60498 3.4214,-6.76495 2.1452,-2.01536 2.1805,-2.29468 0.7955,-6.2895 -2.0442,-5.89563 -1.3408,-16.70579 1.3189,-20.26805 2.6688,-3.57463 9.0896,-7.1986 12.8501,-7.25269 3.7314,-0.0536 9.5926,2.98057 10.9688,5.67824 2.0763,4.06997 3.5587,5.23254 5.4093,4.24212 1.8376,-0.98342 10.4999,-2.78528 17.636,-3.66849 4.9197,-0.60888 13.1872,2.82543 17.2149,7.15102 1.3682,1.46936 4.5374,3.71509 7.0426,4.99053 3.6116,1.83867 5.6711,4.03369 9.9441,10.59817 2.964,4.55357 5.9516,8.8709 6.6392,9.59409 1.5356,1.61521 1.5286,1.5192 1.3467,18.43657 -0.1105,10.267 -0.5415,14.5415 -1.6901,16.76274 -2.3385,4.52226 -3.4544,12.91872 -1.9575,14.73032 2.9412,3.55983 3.4016,7.80712 3.1276,28.85613 -0.1533,11.76634 -0.7458,25.42325 -1.3169,30.34869 -0.7985,6.88816 -0.7539,9.41473 0.1936,10.94543 0.6775,1.09454 1.5265,3.18693 1.8865,4.64975 0.36,1.46281 1.6793,3.92553 2.9316,5.47271 2.9174,3.60412 3.3384,8.53285 1.1446,13.39792 -0.9532,2.11375 -2.0009,3.85387 -2.3283,3.86693 -0.3273,0.0131 -2.1623,0.37778 -4.0777,0.8105 -1.9155,0.43273 -4.8259,0.49903 -6.4678,0.14734 z m -85.0758,-16.78476 c 0,-0.54727 0.4477,-1.27177 0.995,-1.61 0.5473,-0.33824 0.9951,-0.1672 0.9951,0.38007 0,0.54728 -0.4478,1.27178 -0.9951,1.61 -0.5473,0.33824 -0.995,0.1672 -0.995,-0.38007 z m 2.1303,-7.0577 c 0.5962,-1.7098 0.8196,-4.42983 0.4967,-6.04453 -0.6349,-3.1745 0.3803,-3.81433 2.3282,-1.46727 0.9648,1.16239 0.9383,2.34043 -0.1269,5.65021 -0.7401,2.29989 -1.8937,4.35908 -2.5636,4.57595 -0.9388,0.30394 -0.9696,-0.31834 -0.1344,-2.71436 z m 77.2364,-7.55835 c -1.2332,-1.23321 2.2407,-6.60468 3.8676,-5.98034 0.8287,0.318 1.694,0.57817 1.923,0.57817 0.2288,0 0.4161,0.69128 0.4161,1.53618 0,0.8449 -0.6468,1.4046 -1.4372,1.2438 -0.7905,-0.16082 -2.034,0.51623 -2.7637,1.50455 -0.7295,0.9883 -1.6322,1.49124 -2.0058,1.11764 z m -75.6864,-16.12916 c -2.4058,-2.65847 -4.3338,-8.0007 -5.1058,-14.14899 -0.8061,-6.41854 1.1046,-5.88577 2.0922,0.58341 0.327,2.14184 1.7001,6.27364 3.0514,9.18174 2.6162,5.63067 2.6017,7.30057 -0.038,4.38384 z m 81.9392,-9.67131 c -0.052,-5.47271 -0.4733,-11.58405 -0.9374,-13.58073 -1.0903,-4.69136 0.3367,-7.41045 1.8291,-3.48521 1.2448,3.27395 1.2878,22.16217 0.057,25.02625 -0.5591,1.30088 -0.8876,-1.45587 -0.9488,-7.96031 z m -92.4024,-18.62382 c -1.3682,-1.36814 -1.6004,-6.74967 -0.2912,-6.74967 0.7308,0 2.2114,6.93552 1.6425,7.69496 -0.096,0.12771 -0.7037,-0.29767 -1.3513,-0.94529 z m 87.9698,-5.90556 c -0.6973,-4.36096 -0.3727,-5.42312 1.3351,-4.36767 1.2734,0.78695 1.4266,7.16051 0.1905,7.92442 -0.4789,0.29599 -1.1655,-1.30455 -1.5256,-3.55675 z m -71.5708,-1.59194 c 12.3945,-6.84898 12.2995,-6.76657 16.7777,-14.54401 1.534,-2.66417 4.0589,-6.23416 5.6108,-7.93331 2.2707,-2.4861 2.8218,-4.0139 2.8218,-7.82386 0,-5.11047 -0.5396,-5.54779 -7.4628,-6.04889 -2.8149,-0.20373 -3.002,0.0121 -3.28,3.7835 l -0.2947,3.99957 3.7773,-0.17798 c 4.5768,-0.21565 7.7344,1.12345 5.07,2.15006 -0.9309,0.3587 -3.2496,0.44237 -5.1524,0.18592 -3.0775,-0.41473 -3.5931,-0.14504 -4.6636,2.43947 -1.6184,3.90674 -4.5893,5.81162 -9.0643,5.81162 -8.0746,0 -12.2634,-4.46775 -12.2634,-13.0798 0,-4.21844 0.495,-6.1639 1.9877,-7.81343 3.0562,-3.37699 7.4142,-5.2312 12.075,-5.13765 4.8939,0.0982 5.8251,-1.34338 4.8501,-7.5082 l -0.5971,-3.77489 1.6438,2.87586 c 1.0921,1.91087 1.4579,4.0811 1.0901,6.46775 -0.7547,4.89741 0.8595,6.63394 6.8115,7.32796 4.0044,0.46693 5.4336,0.20755 7.3242,-1.3292 1.4179,-1.15247 3.8831,-1.90934 6.219,-1.90934 3.9448,0 4.7193,-0.74272 2.7882,-2.6738 -0.6469,-0.647 -0.7073,-1.31319 -0.15,-1.65761 0.5126,-0.31672 1.5591,0.64021 2.3257,2.12654 0.7664,1.48631 2.1179,3.24584 3.0029,3.91007 1.0677,0.80137 1.8392,3.54165 2.2928,8.14521 1.1845,12.02188 -3.9972,19.26302 -12.5429,17.52761 -1.8147,-0.36854 -4.2575,-1.811 -5.4282,-3.20547 -1.1707,-1.39447 -2.5945,-2.24744 -3.164,-1.89551 -1.7821,1.10143 -7.0689,12.58579 -6.4892,14.09643 0.7707,2.00872 1.9752,1.80505 5.6292,-0.95187 3.361,-2.5359 9.4354,-4.56066 13.7097,-4.56984 1.4201,-0.003 5.0883,0.8213 8.1516,1.8319 l 5.5696,1.83744 1.1597,-2.7995 c 1.46,-3.52485 3.9306,-5.7918 3.9306,-3.60667 0,0.82092 -0.6717,2.04998 -1.4925,2.73128 -0.821,0.68129 -1.4926,2.3033 -1.4926,3.60447 0,2.21944 0.8664,2.80168 3.6563,2.45726 2.3843,-0.29433 2.341,1.9289 -0.059,3.02234 -2.0392,0.92909 -3.0757,0.78852 -5.7775,-0.78353 -6.8032,-3.95823 -12.6183,-5.5602 -17.5297,-4.82911 -2.5678,0.38223 -5.1164,1.05311 -5.6637,1.49085 -5.6027,4.48126 -15.0511,6.7744 -13.7303,3.33232 0.3495,-0.91069 0.2235,-1.43374 -0.28,-1.16236 -0.5035,0.27138 -2.5755,1.25235 -4.6045,2.17994 -2.029,0.92757 -3.9585,2.12229 -4.2876,2.65492 -0.3292,0.53262 -1.8035,0.96771 -3.2763,0.96686 l -2.6775,-0.002 3.1484,-1.73978 z m 37.7359,-19.25604 c 1.9275,-1.54576 3.5614,-8.9024 2.877,-12.95356 -1.148,-6.79458 -5.5037,-9.09709 -12.0275,-6.35791 -3.3293,1.39792 -3.6284,1.76404 -2.1313,2.60944 2.2464,1.2687 2.4247,9.029 0.2487,10.83488 -2.3176,1.92338 -1.7667,4.76172 1.2438,6.40848 2.7323,1.49463 7.5852,1.22628 9.7893,-0.54133 z m -6.9537,-3.39144 c 1.201,-1.83307 1.516,-3.96715 1.1813,-8.00412 -0.3704,-4.4654 -0.1902,-5.40244 0.9542,-4.9633 0.7759,0.29773 1.5978,0.54132 1.8268,0.54132 0.2288,0 0.4162,2.0372 0.4162,4.52709 0,5.12203 -2.2968,10.39849 -4.5263,10.39849 -1.284,0 -1.2636,-0.34546 0.1478,-2.49948 z m -22.9275,1.73798 c 4.7181,-3.2764 6.2473,-15.32184 2.4299,-19.13928 -3.79,-3.79004 -12.94,-2.01579 -14.7775,2.86544 -2.7257,7.24143 -1.4811,13.40183 3.1762,15.72107 2.5538,1.27176 7.6903,1.58133 9.1714,0.55277 z m -5.9317,-4.71829 c 1.2116,-1.84908 1.5229,-4.03791 1.2032,-8.45783 -0.44,-6.08199 0.305,-7.4825 2.1483,-4.03849 1.7405,3.25216 1.2184,9.50793 -1.0323,12.36921 -2.6254,3.33766 -4.4898,3.43984 -2.3192,0.12711 z m 62.3426,9.51612 c -1.2314,-1.02725 -2.2389,-2.13177 -2.2389,-2.4545 0,-1.17779 2.775,-0.54626 3.9801,0.90578 0.6813,0.8209 2.1058,1.49255 3.1657,1.49255 1.0598,0 1.6503,0.44777 1.312,0.99504 -0.9529,1.54189 -3.7517,1.11935 -6.2189,-0.93887 z m -9.6592,-1.97749 c -0.3149,-0.50946 -0.1174,-1.20754 0.4388,-1.55128 0.5561,-0.34375 1.0112,-1.48167 1.0112,-2.5287 0,-1.33728 1.4896,-2.54448 5.0064,-4.05738 4.7604,-2.04785 4.9251,-2.24355 3.3514,-3.98242 -0.9103,-1.00579 -2.4235,-2.07264 -3.3628,-2.37076 -0.9393,-0.29813 -2.2242,-1.67521 -2.8552,-3.06018 l -1.1473,-2.51812 -3.2371,2.46898 c -3.7744,2.87894 -8.7008,4.94582 -8.7008,3.65048 0,-0.49272 1.9031,-1.95094 4.2289,-3.24048 l 4.229,-2.34463 -0.1301,-6.43652 c -0.3202,-15.85868 -2.6393,-26.57384 -4.3476,-20.08834 -0.9285,3.52462 -8.5585,11.1346 -11.8174,11.78639 -3.9819,0.79637 -4.0913,-0.96852 -0.1611,-2.59648 5.3572,-2.21903 12.2986,-13.65032 9.983,-16.44039 -0.6784,-0.81733 -0.8427,-1.53926 -0.3653,-1.60427 0.4776,-0.065 -1.339,-0.64207 -4.0369,-1.28235 -6.5499,-1.55451 -7.4403,-3.7381 -0.9609,-2.35615 3.7896,0.80823 5.3278,0.68506 8.1295,-0.651 1.9006,-0.90631 3.7353,-1.36814 4.0772,-1.02631 0.7684,0.76847 -2.7592,3.44393 -4.5409,3.44393 -1.7254,0 -1.6437,0.56565 0.4391,3.04574 5.5843,6.64956 15.8578,11.19157 20.1356,8.90219 2.6796,-1.43413 2.638,0.43059 -0.052,2.31457 -2.2635,1.58535 -2.2424,2.04717 0.7637,16.79743 l 1.5645,7.67652 -2.6913,5.3194 c -2.3736,4.69144 -3.1992,5.45522 -6.9928,6.46988 -3.4272,0.91661 -4.5154,1.7639 -5.3536,4.16849 -1.1059,3.17231 -1.6619,3.61872 -2.6056,2.09176 z m 13.8739,-22.23424 c -0.3516,-3.40622 -0.8696,-8.80148 -1.1511,-11.98946 -0.5111,-5.78975 -0.5169,-5.79856 -5.0718,-7.75102 -6.2594,-2.68309 -7.6636,-1.97432 -6.6692,3.36631 0.4312,2.31595 0.8247,7.00936 0.8748,10.42981 0.064,4.32868 0.4764,6.21898 1.3594,6.21898 0.6976,0 1.694,1.11943 2.2142,2.48761 0.5201,1.36817 1.5592,2.48759 2.3087,2.48759 0.7497,0 2.1886,0.91243 3.1979,2.02763 1.6097,1.77858 1.942,1.83651 2.7058,0.47165 0.4788,-0.85579 0.5831,-4.34289 0.2313,-7.7491 z m 4.9323,15.77909 c -1.0615,-0.77616 -1.6384,-1.70272 -1.282,-2.05903 0.737,-0.73707 4.8217,1.56253 4.8217,2.71455 0,1.16247 -1.4106,0.90122 -3.5397,-0.65552 z m -23.8188,-18.2601 c -0.4547,-1.37848 -2.7155,-3.20121 -5.8036,-4.67913 -3.6837,-1.76295 -4.6163,-2.59078 -3.4311,-3.04558 1.7727,-0.68025 7.9652,1.88968 9.7576,4.04948 0.6146,0.74038 0.9159,2.37825 0.6698,3.63975 l -0.4477,2.2936 -0.745,-2.25812 z m -48.8684,-5.78358 c 0.332,-0.86566 0.6108,-2.54479 0.6192,-3.73139 0.01,-1.1866 0.3441,-2.64822 0.7463,-3.24805 0.9995,-1.49122 6.2037,-2.69494 6.2037,-1.43492 0,0.54728 -1.0678,1.26305 -2.3731,1.59065 -1.8366,0.46095 -2.5142,1.47754 -2.9969,4.49662 -0.3431,2.14557 -1.1142,3.90104 -1.7135,3.90104 -0.5994,0 -0.818,-0.70827 -0.4857,-1.57395 z m 29.4601,-1.72253 c 0,-3.87776 -10.4682,-9.502 -14.084,-7.56688 -3.2101,1.71801 -4.502,0.40623 -1.5226,-1.546 2.3343,-1.5295 3.3311,-1.63825 6.4475,-0.70348 2.0275,0.60814 5.1077,2.35206 6.845,3.87539 3.2494,2.84925 5.2982,7.24737 3.3761,7.24737 -0.5841,0 -1.062,-0.58788 -1.062,-1.3064 z m -36.2781,-1.74476 c 0.7168,-1.16 5.4318,-1.23412 5.4318,-0.0853 0,0.46398 -1.3513,0.88203 -3.003,0.929 -1.6516,0.047 -2.7447,-0.33268 -2.4288,-0.84362 z m 30.7555,-13.1569 c 0.3416,-5.06934 2.7661,-10.17784 5.5327,-11.65855 1.4012,-0.74987 1.98,-0.74936 1.98,0.002 0,0.58369 -0.637,1.30565 -1.4153,1.60436 -1.6976,0.65136 -4.555,7.42591 -4.555,10.79882 0,1.3248 -0.4122,2.66341 -0.9158,2.97467 -0.5189,0.32073 -0.7904,-1.29156 -0.6266,-3.72105 z m 8.1236,-15.19871 c -0.7006,-1.82551 1.9369,-7.39975 3.5011,-7.39975 0.6451,0 0.7777,0.69737 0.3313,1.74131 -0.4096,0.95773 -0.9561,2.97268 -1.2145,4.47768 -0.5209,3.03447 -1.702,3.56725 -2.6179,1.18076 z"
       id="path3010"
       inkscape:connector-curvature="0" />
  </g>
</svg>
