<?xml version="1.0" encoding="UTF-8" standalone="no"?>
<!-- Created with Inkscape (http://www.inkscape.org/) -->

<svg
   xmlns:dc="http://purl.org/dc/elements/1.1/"
   xmlns:cc="http://creativecommons.org/ns#"
   xmlns:rdf="http://www.w3.org/1999/02/22-rdf-syntax-ns#"
   xmlns:svg="http://www.w3.org/2000/svg"
   xmlns="http://www.w3.org/2000/svg"
   xmlns:xlink="http://www.w3.org/1999/xlink"
   xmlns:sodipodi="http://sodipodi.sourceforge.net/DTD/sodipodi-0.dtd"
   xmlns:inkscape="http://www.inkscape.org/namespaces/inkscape"
   width="116.68285"
   height="188.17087"
   id="svg2"
   version="1.1"
   inkscape:version="0.48.3.1 r9886"
   sodipodi:docname="Arnold-press-1.svg">
  <defs
     id="defs4">
    <radialGradient
       gradientUnits="userSpaceOnUse"
       gradientTransform="matrix(1,0,0,0.91819829,-19.285714,-7.9105395)"
       r="209.56604"
       fy="287.50052"
       fx="398.1105"
       cy="287.50052"
       cx="398.1105"
       id="radialGradient5255"
       xlink:href="#linearGradient5249"
       inkscape:collect="always" />
    <linearGradient
       id="linearGradient5249"
       inkscape:collect="always">
      <stop
         id="stop5251"
         offset="0"
         style="stop-color:#e3e3e3;stop-opacity:1;" />
      <stop
         id="stop5253"
         offset="1"
         style="stop-color:#e3e3e3;stop-opacity:0;" />
    </linearGradient>
  </defs>
  <sodipodi:namedview
     id="base"
     pagecolor="#ffffff"
     bordercolor="#666666"
     borderopacity="1.0"
     inkscape:pageopacity="0.0"
     inkscape:pageshadow="2"
     inkscape:zoom="2.8"
     inkscape:cx="-39.905544"
     inkscape:cy="66.537192"
     inkscape:document-units="px"
     inkscape:current-layer="layer1"
     showgrid="false"
     showguides="true"
     inkscape:guide-bbox="true"
     fit-margin-top="0"
     fit-margin-left="0"
     fit-margin-right="0"
     fit-margin-bottom="0"
     inkscape:window-width="1217"
     inkscape:window-height="829"
     inkscape:window-x="65"
     inkscape:window-y="189"
     inkscape:window-maximized="0">
    <sodipodi:guide
       orientation="-0.70710678,0.70710678"
       position="-2480.5285,449.36232"
       id="guide2985" />
  </sodipodi:namedview>
  <metadata
     id="metadata7">
    <rdf:RDF>
      <cc:Work
         rdf:about="">
        <dc:format>image/svg+xml</dc:format>
        <dc:type
           rdf:resource="http://purl.org/dc/dcmitype/StillImage" />
        <dc:title></dc:title>
      </cc:Work>
    </rdf:RDF>
  </metadata>
  <g
     inkscape:label="Ebene 1"
     inkscape:groupmode="layer"
     id="layer1"
     transform="translate(-1051.9571,-287.83936)">
    <path
       style="fill:#000000"
       d="m 1154.3052,475.78317 c -5.7369,-1.22888 -9.5,-5.30275 -9.5,-10.28472 0,-1.04472 -0.6346,-3.31751 -1.4103,-5.05063 -2.2912,-5.1191 -2.3844,-6.01417 -0.9268,-8.90113 0.7637,-1.5125 1.1254,-2.75 0.8038,-2.75 -0.3216,0 -0.269,-0.51086 0.1169,-1.13524 1.5869,-2.56769 1.5309,-13.65504 -0.088,-17.50553 -3.1677,-7.53214 -3.5204,-12.39174 -1.467,-20.2131 2.4401,-9.29385 1.3681,-15.72 -3.1581,-18.93274 -2.3614,-1.67616 -4.2017,-8.63134 -3.4061,-12.87262 1.3151,-7.00976 3.3443,-1.63057 2.7008,7.15923 -0.131,1.78815 3.4996,4.5 6.0245,4.5 0.4347,0 2.4662,-2.5875 4.5143,-5.75 2.0481,-3.1625 3.8527,-5.9375 4.0102,-6.16667 0.1575,-0.22916 0.5241,-0.17895 0.8146,0.11159 0.9493,0.94929 -4.5169,10.65098 -7.1823,12.74762 -1.8575,1.46108 -2.3179,2.40453 -1.6112,3.30155 2.0767,2.63591 2.2815,7.13462 0.6669,14.64843 -1.593,7.41307 -1.5804,8.23675 0.2792,18.18611 2.1388,11.44323 2.3249,20.22989 0.5,23.60563 -1.6196,2.99589 -1.4933,4.57482 0.7631,9.53899 1.0692,2.35221 2.2056,5.5257 2.5254,7.05219 0.908,4.3337 3.9462,6.72456 8.5453,6.72456 3.4563,0 4.2904,-0.45207 5.9963,-3.25 3.0376,-4.98199 3.1031,-4.72849 -6.5216,-25.25 -1.1214,-2.39108 -1.1472,-3.05863 -0.1271,-3.28887 0.8177,-0.18454 1.1213,-1.36953 0.8408,-3.28096 -0.2415,-1.64565 0.3508,-7.05878 1.3162,-12.02918 1.3605,-7.00437 1.5606,-10.65252 0.8895,-16.21904 -0.4762,-3.95007 -0.9096,-10.78195 -0.9633,-15.18195 -0.1648,-13.52265 -0.3232,-14.46867 -2.8455,-16.99098 -2.0999,-2.09982 -2.2289,-2.62582 -1.0318,-4.20455 0.7525,-0.99246 1.3825,-3.21039 1.4,-4.92874 0.017,-1.71835 0.7014,-5.02207 1.5198,-7.3416 0.9171,-2.59942 1.6786,-9.62226 1.985,-18.30612 0.4126,-11.69688 0.2401,-14.35527 -1.0159,-15.6584 -2.3923,-2.4819 -6.3045,-8.27808 -7.9377,-11.75994 -1.3701,-2.9211 -7.1767,-8.30967 -8.9543,-8.30967 -0.4103,0 -3.0679,-1.92918 -5.9056,-4.28707 -9.0202,-7.49496 -12.0691,-8.18647 -24.818,-5.62892 -4.9942,1.00188 -9.283,2.02423 -9.5307,2.27189 -0.2477,0.24766 0.5125,2.3375 1.6892,4.6441 1.1768,2.3066 1.8859,4.44744 1.5759,4.75744 -1.1121,1.11212 -4.4447,-3.0117 -7.3513,-9.09672 -3.5284,-7.38662 -4.9105,-8.67477 -10.0461,-9.36361 -5.9588,-0.79924 -10.9476,1.99854 -13.2844,7.45 -2.1783,5.08171 -2.3387,7.87229 -0.784,13.63687 2.5561,9.47743 7.5336,16.27095 12.6207,17.22528 7.5189,1.41056 12.2595,-4.18655 12.2655,-14.48171 0,-5.55078 0.1971,-6.21192 1.5037,-5.12755 0.825,0.68469 1.5,2.29283 1.5,3.57366 0,2.5184 -2.5057,12.81759 -3.5162,14.45264 -0.8571,1.38678 -8.0571,4.9737 -9.9838,4.9737 -2.9754,0 -9.3309,-3.95379 -11.6176,-7.22736 -1.2573,-1.79995 -2.6689,-3.53888 -3.137,-3.86428 -0.468,-0.3254 -0.7477,-1.0004 -0.6215,-1.5 0.1262,-0.4996 -0.3458,-2.92622 -1.0488,-5.39249 -1.789,-6.2758 -1.005,-16.29331 1.542,-19.70484 2.6682,-3.57373 9.1279,-7.21343 12.8985,-7.26766 3.7499,-0.0539 9.6404,2.99543 11.0235,5.70655 2.0866,4.09026 3.5764,5.25863 5.4363,4.26327 1.8467,-0.98832 10.5521,-2.79916 17.7238,-3.68678 4.9442,-0.61192 13.253,2.83952 17.3008,7.18667 1.375,1.47669 4.56,3.73362 7.0777,5.01541 3.6295,1.84784 5.6994,4.05381 9.9936,10.65102 2.9788,4.57627 5.9814,8.91513 6.6724,9.64192 1.5433,1.62326 1.5363,1.52678 1.3534,18.52849 -0.1111,10.31819 -0.5442,14.614 -1.6985,16.84632 -2.3503,4.5448 -3.4716,12.98313 -1.9673,14.80376 2.956,3.57758 3.4186,7.84605 3.1431,29 -0.154,11.825 -0.7495,25.55 -1.3233,30.5 -0.8025,6.9225 -0.7576,9.46167 0.1946,11 0.6809,1.1 1.534,3.20282 1.8959,4.67293 0.3618,1.47011 1.6876,3.94511 2.9462,5.5 2.9318,3.62209 3.3549,8.5754 1.1502,13.46472 -0.958,2.12429 -2.0109,3.87309 -2.3398,3.88621 -0.329,0.0131 -2.1732,0.37966 -4.0982,0.81454 -1.925,0.43488 -4.85,0.50152 -6.5,0.14808 z m -98.6718,-2.02285 c -2.8883,-1.68534 -3.2326,-6.49666 -0.8215,-11.47749 1.1945,-2.46738 2.574,-4.48614 3.0657,-4.48614 0.4917,0 2.018,-2.21815 3.3918,-4.92923 2.6599,-5.24906 4.0402,-6.68167 4.9772,-5.16561 0.5277,0.85377 -6.5137,12.11287 -10.228,16.35456 -1.2946,1.47843 -1.3351,2.14431 -0.2532,4.16577 0.7082,1.32332 2.1236,2.62466 3.1454,2.89185 2.1782,0.56964 8.937,-2.64205 10.1604,-4.82812 0.4655,-0.83187 2.9586,-2.58527 5.5402,-3.89645 6.1933,-3.14554 10.5431,-7.24028 9.7863,-9.21248 -0.3259,-0.84912 -0.5925,-2.40045 -0.5925,-3.44738 0,-1.85534 -0.082,-1.85337 -3.25,0.0781 -4.1256,2.51543 -6.8405,2.51237 -9.75,-0.011 -1.2683,-1.1 -2.6273,-2 -3.0201,-2 -1.4846,0 -5.9628,-8.0518 -6.5062,-11.69818 -0.4194,-2.81468 -0.038,-4.64806 1.4708,-7.06096 1.7275,-2.76368 6.3984,-6.50354 9.3829,-7.51267 0.7597,-0.25687 -0.6933,-6.58205 -4.7542,-20.69612 -0.9809,-3.4093 -1.5732,-9.3949 -1.5732,-15.89832 l 0,-10.43039 -3.0542,3.39832 c -1.6799,1.86907 -4.1084,4.52331 -5.3968,5.89831 -2.0587,2.19711 -2.2594,3.10632 -1.6565,7.50444 0.3773,2.75244 1.0917,5.66099 1.5877,6.46343 0.9248,1.49643 1.854,5.99006 3.4186,16.53213 0.4897,3.3 1.2116,7.2375 1.6042,8.75 0.4079,1.57128 0.3066,2.75 -0.2363,2.75 -1.2042,0 -3.2667,-6.78097 -3.2667,-10.74029 0,-1.65454 -0.675,-4.92141 -1.5,-7.25971 -0.825,-2.3383 -1.51,-5.20738 -1.5222,-6.37573 -0.012,-1.16835 -0.9022,-3.24927 -1.9778,-4.62427 -3.7099,-4.74293 -1.8478,-10.82174 5.7069,-18.63024 l 5.6791,-5.86976 -0.1825,-16.33969 -0.1825,-16.33969 3.166,-6.16031 c 1.7414,-3.38817 3.4563,-6.80853 3.811,-7.60079 0.3547,-0.79226 1.1522,-1.60959 1.7723,-1.81627 1.4501,-0.48339 -1.5944,8.02297 -4.5658,12.75675 -2.6549,4.22957 -2.8378,9.78513 -0.5436,16.51822 1.2022,3.5282 1.3403,4.98139 0.5,5.26148 -0.75,0.25001 -1.1609,3.17124 -1.1609,8.25394 0,6.33751 0.3277,8.05034 1.6853,8.81011 1.5189,0.85003 1.5553,1.48512 0.3681,6.43399 -1.6002,6.67032 -0.2966,17.54489 3.4627,28.88583 1.3375,4.03504 2.4436,8.31829 2.4579,9.51834 0.015,1.27326 1.3013,3.08999 3.0884,4.3625 2.8564,2.03391 7.9376,11.3673 7.9376,14.58002 0,1.7672 0.5272,1.7315 3.5352,-0.23944 3.464,-2.26968 3.0783,-4.88114 -1.4868,-10.06734 -4.4333,-5.03649 -5.7039,-10.02731 -4.5855,-18.01166 0.8352,-5.96259 0.8323,-13.04285 -0.01,-20.59939 -0.6439,-5.78728 -0.6465,-5.79111 -2.5206,-3.63029 -1.4242,1.64207 -1.6337,2.61602 -0.8697,4.0434 0.7551,1.41099 0.6676,1.88029 -0.3507,1.88029 -1.6818,0 -5.8008,-8.89953 -6.4054,-13.8397 -0.2463,-2.01317 -0.8542,-5.21 -1.3509,-7.10407 -1.1569,-4.41253 -0.5823,-4.94009 1.6574,-1.52178 0.9822,1.49908 1.8274,4.77436 1.8932,7.33676 0.1048,4.08533 1.7647,9.12879 3.0044,9.12879 3.2003,0 6.8343,-24.33524 4.482,-30.0141 l -1.2225,-2.95143 -2.5385,1.99677 c -4.5739,3.59786 -3.816,0.93078 0.9521,-3.35027 5.0155,-4.50322 6.8147,-7.32138 6.8147,-10.67425 0,-1.16861 0.45,-1.84664 1,-1.50672 2.0231,1.25032 1.0153,6.45134 -1.8773,9.68875 l -2.8774,3.22031 1.9479,3.73703 c 1.2671,2.43101 2.4474,3.54532 3.3773,3.18848 1.8352,-0.70422 1.8127,-1.77172 -0.071,-3.33457 -2.4992,-2.0742 -1.7485,-2.69543 4.0862,-3.38118 6.3369,-0.74478 11.1341,-2.84843 13.5955,-5.96184 2.0007,-2.53079 3.4333,-1.67451 1.9222,1.14897 -1.6586,3.09913 -9.475,7.19405 -13.7319,7.19405 -2.9337,0 -3.5053,0.26667 -2.572,1.2 0.66,0.66 1.2,1.96186 1.2,2.89301 0,0.93116 0.7483,1.98013 1.6627,2.33105 1.6733,0.6421 24.3373,-0.38447 24.3373,-1.10236 0,-1.20912 -4.3378,-13.01077 -5.1395,-13.98267 -0.6105,-0.74017 -0.6088,-1.37653 0.01,-1.75567 0.5293,-0.32708 1.561,0.75786 2.2927,2.41098 0.7318,1.65311 1.6121,3.00566 1.9564,3.00566 0.3443,0 1.1929,2.025 1.8858,4.5 0.693,2.475 1.4128,4.5 1.5996,4.5 0.5962,0 7.8477,-4.1702 9.2809,-5.33725 1.0892,-0.88697 1.217,-2.81602 0.6058,-9.14344 -0.426,-4.41062 -0.7041,-9.95086 -0.6179,-12.31165 0.168,-4.60215 -1.3657,-8.63634 -2.9185,-7.67665 -0.5224,0.32286 -0.9677,1.34797 -0.9896,2.27801 -0.065,2.78735 -8.4581,11.14054 -11.8809,11.82512 -3.9627,0.79253 -4.0428,-0.99242 -0.1176,-2.6183 5.1748,-2.14347 12.3623,-13.71557 10.164,-16.36437 -0.6096,-0.73452 -0.8461,-1.59783 -0.5254,-1.91846 0.3206,-0.32064 -1.4888,-0.89366 -4.021,-1.27338 -2.5322,-0.37972 -4.8914,-1.15547 -5.2427,-1.72388 -0.4278,-0.6923 1.0573,-0.80849 4.4988,-0.35196 3.8218,0.50697 5.9332,0.2701 8.244,-0.92487 1.7085,-0.88352 3.4014,-1.31142 3.7619,-0.95089 0.7956,0.79561 -2.7042,3.49197 -4.5325,3.49197 -1.734,0 -1.6521,0.56847 0.4411,3.06092 5.6123,6.68271 15.937,11.24737 20.236,8.94658 2.6931,-1.44129 2.6513,0.43273 -0.052,2.3261 -2.2747,1.59326 -2.2536,2.05739 0.7677,16.88118 l 1.5723,7.71479 -2.7048,5.34593 c -2.3855,4.71483 -3.2151,5.48242 -7.0277,6.50213 -3.4762,0.92976 -4.5351,1.7649 -5.4063,4.26429 -0.6516,1.86898 -1.5273,2.83386 -2.1965,2.42022 -0.8015,-0.49534 -0.8088,-0.99216 -0.026,-1.77501 0.5979,-0.59792 1.0871,-1.88462 1.0871,-2.85933 0,-1.17466 1.6965,-2.502 5.0313,-3.93663 4.7841,-2.05806 4.9496,-2.25474 3.3682,-4.00227 -0.9148,-1.01081 -2.4356,-2.08298 -3.3796,-2.38259 -0.944,-0.29962 -2.2353,-1.68356 -2.8694,-3.07543 l -1.1531,-2.53068 -3.2487,2.41482 c -8.5885,6.38401 -11.6549,7.42465 -23.7487,8.05972 -6.325,0.33214 -13.1742,0.20908 -15.2205,-0.27346 -4.8439,-1.14226 -5.6696,-0.0839 -6.4494,8.26649 l -0.6161,6.59809 4.7144,4.51707 c 2.593,2.48439 4.9374,4.51707 5.2098,4.51707 0.2724,0 1.9278,-1.08081 3.6786,-2.4018 3.3777,-2.54854 9.4824,-4.58339 13.778,-4.59262 1.4271,-0.003 5.1136,0.82539 8.1922,1.84103 l 5.5975,1.84661 1.1653,-2.81346 c 1.4674,-3.54243 3.9502,-5.82068 3.9502,-3.62465 0,0.825 -0.675,2.0602 -1.5,2.74489 -0.825,0.68469 -1.5,2.31479 -1.5,3.62244 0,2.23051 0.8707,2.81566 3.6746,2.46952 2.3962,-0.2958 2.3527,1.93851 -0.059,3.0374 -2.0493,0.93373 -3.091,0.79246 -5.8064,-0.78743 -6.8369,-3.97797 -12.681,-5.58793 -17.6169,-4.85319 -2.5806,0.38414 -5.1421,1.05836 -5.6921,1.49828 -3.0193,2.41501 -8.923,5.01298 -11.3917,5.01298 -2.4,0 -2.7652,-0.3439 -2.399,-2.25938 0.2886,-1.50989 -0.4109,-3.05119 -2.1089,-4.64633 l -2.5408,-2.38696 0.5677,5.39634 c 0.3123,2.96798 0.8974,7.70592 1.3004,10.52876 0.4877,3.41615 0.262,6.92734 -0.6749,10.5 -2.244,8.55728 -1.1176,14.41067 3.7222,19.34209 3.0034,3.06023 4.025,4.91164 4.025,7.29428 0,4.2841 3.7938,5.39812 8.9401,2.62519 3.2302,-1.74053 3.5435,-2.28758 3.3824,-5.9061 -0.3652,-8.20066 -2.1846,-11.70848 -7.035,-13.56368 -2.2282,-0.85221 -8.2875,0.59726 -8.2875,1.98249 0,0.39107 -0.6606,1.58455 -1.4682,2.65217 -1.4403,1.90432 -1.4688,1.90105 -1.5,-0.17251 -0.017,-1.1625 1.1546,-3.3 2.6046,-4.75 5.6945,-5.69451 13.7851,-1.6656 17.39,8.65981 1.9013,5.44564 1.9259,6.00226 0.4065,9.204 -2.0384,4.2956 -3.4996,5.49997 -7.8685,6.48532 -2.3577,0.53174 -4.0528,0.37781 -5.2175,-0.47379 -1.3957,-1.02056 -2.5005,-0.99586 -5.786,0.12932 -5.0462,1.72819 -7.0536,5.21046 -4.8321,8.38214 3.2025,4.57216 -0.1209,10.18705 -8.2288,13.90269 -2.2,1.00821 -5.0825,3.00342 -6.4057,4.43382 -2.7659,2.99019 -9.3492,6.6546 -11.875,6.60992 -0.9456,-0.0167 -2.4716,-0.4694 -3.3911,-1.00596 z m 24.4931,-26.21363 c 4.1015,-1.88492 5.5301,-7.53557 3.2073,-12.68657 -3.2522,-7.21214 -9.062,-10.81923 -14.4186,-8.95192 -6.3325,2.20752 -6.0541,11.62398 0.5602,18.94516 3.7823,4.18661 6.1171,4.77699 10.6511,2.69333 z m -4.3213,-7.17327 c 0,-2.1528 -3.7946,-7.89767 -6.4549,-9.77236 -0.5429,-0.38259 -0.662,-1.02077 -0.2646,-1.41817 1.1794,-1.17938 5.7802,1.83044 7.3048,4.77878 1.6276,3.14727 1.8945,8.83502 0.4147,8.83502 -0.55,0 -1,-1.09047 -1,-2.42327 z m 71.5354,-88.35273 c -0.3262,-3.1482 -0.9176,-8.61772 -1.3142,-12.1545 l -0.7212,-6.4305 -4.8032,-1.96622 c -6.769,-2.77087 -7.3481,-1.88592 -5.7583,8.79969 0.6988,4.69719 1.0127,9.21246 0.6974,10.03394 -0.3506,0.91388 0.01,1.49359 0.9203,1.49359 0.8213,0 1.9211,1.125 2.4438,2.5 0.5228,1.375 1.5669,2.5 2.3203,2.5 0.7534,0 2.1996,0.91698 3.2139,2.03773 1.6176,1.78746 1.9516,1.84568 2.7192,0.474 0.4813,-0.86005 0.6082,-4.13953 0.282,-7.28773 z m -78.5354,106.89403 c 0,-0.55 0.45,-1.27811 1,-1.61803 0.55,-0.33992 1,-0.16803 1,0.38197 0,0.55 -0.45,1.27811 -1,1.61803 -0.55,0.33992 -1,0.16803 -1,-0.38197 z m 79.7625,-14.68893 c -1.2394,-1.23935 2.2518,-6.6376 3.8869,-6.01015 0.8328,0.31958 1.7024,0.58105 1.9324,0.58105 0.23,0 0.4182,0.69473 0.4182,1.54384 0,0.84911 -0.6499,1.41161 -1.4443,1.25 -0.7943,-0.16161 -2.0442,0.51881 -2.7774,1.51205 -0.7332,0.99323 -1.6404,1.49868 -2.0158,1.12321 z m -48.7625,-13.23482 c 0,-2.48437 -0.8639,-4.97671 -2.4882,-7.17839 -3.2026,-4.34082 -2.3522,-5.19527 1.4987,-1.5059 2.5085,2.40338 2.9895,3.63853 2.9895,7.6771 0,2.6471 -0.45,4.81291 -1,4.81291 -0.55,0 -1,-1.71257 -1,-3.80572 z m 55.0465,-12.69428 c -0.052,-5.5 -0.4757,-11.6418 -0.9421,-13.64844 -1.0958,-4.71475 0.3384,-7.4474 1.8382,-3.50258 1.251,3.29026 1.2943,22.27266 0.057,25.15102 -0.5618,1.30737 -0.892,-1.46313 -0.9536,-8 z m -87.326,-4.83179 c -0.3963,-1.00748 -0.7068,-2.58248 -0.6901,-3.5 0.027,-1.48832 0.1423,-1.47612 1.0673,0.11321 0.5703,0.97978 0.8808,2.55478 0.6901,3.5 -0.3168,1.56951 -0.4093,1.55969 -1.0673,-0.11321 z m -5.5371,-13.88488 c -1.375,-1.37496 -1.6084,-6.78333 -0.2928,-6.78333 0.7346,0 2.2224,6.9701 1.6508,7.73333 -0.096,0.12834 -0.7072,-0.29916 -1.358,-0.95 z m 88.4084,-5.93501 c -0.7009,-4.3827 -0.3746,-5.45015 1.3417,-4.38944 1.2797,0.79087 1.4336,7.19621 0.1914,7.96393 -0.4813,0.29746 -1.1712,-1.31106 -1.5331,-3.57449 z m -7.3418,-17.79188 c -1.2375,-1.03236 -2.25,-2.14239 -2.25,-2.46673 0,-1.18366 2.789,-0.54898 4,0.91029 0.6847,0.825 2.1164,1.5 3.1815,1.5 1.0651,0 1.6585,0.45 1.3185,1 -0.9577,1.54958 -3.7704,1.12493 -6.25,-0.94356 z m -22.9881,-2.74692 c 0.9298,-0.92976 2.0257,-1.35529 2.4354,-0.94562 0.4096,0.40966 0.083,1.16349 -0.7262,1.67516 -2.4346,1.53967 -3.5165,1.07785 -1.7092,-0.72954 z m -20.7619,-2.84563 c -1.65,-0.75553 -4.0125,-1.39398 -5.25,-1.41879 -3.1245,-0.0626 -2.8436,-2.0451 0.2899,-2.0451 2.3958,0 10.4601,3.48499 10.4601,4.52032 0,0.82824 -2.3841,0.37029 -5.5,-1.05643 z m 9.7352,-1.17157 c -3.2223,-0.61934 -1.7282,-2.28781 2.0739,-2.31586 1.755,-0.0129 6.5355,-0.91294 10.6233,-2 10.1399,-2.69646 11.1723,-2.49908 6.1701,1.17958 -2.8547,2.09937 -4.5237,2.78039 -4.985,2.03406 -0.5032,-0.81415 -2.0298,-0.71978 -5.5644,0.34396 -2.679,0.80627 -5.1369,1.40466 -5.462,1.32976 -0.3251,-0.0749 -1.6102,-0.33207 -2.8559,-0.5715 z m 43.2075,-1.71056 c -1.0667,-0.78003 -1.6465,-1.71121 -1.2885,-2.06929 0.7408,-0.74074 4.8458,1.57032 4.8458,2.72808 0,1.16827 -1.4177,0.90572 -3.5573,-0.65879 z m -23.9374,-18.35113 c -0.457,-1.38536 -2.7291,-3.21718 -5.8326,-4.70247 -3.7021,-1.77174 -4.6394,-2.6037 -3.4483,-3.06076 1.7815,-0.68364 8.005,1.8991 9.8064,4.06967 0.6175,0.74407 0.9203,2.39011 0.6729,3.65789 l -0.4498,2.30504 -0.7486,-2.26937 z m -49.6059,-5.60938 c 0.9182,-1.10636 0.3003,-1.78796 -3.1276,-3.45015 -2.3762,-1.15224 -3.4732,-2.09353 -2.4721,-2.12126 0.9898,-0.0274 3.1354,0.6409 4.768,1.48513 2.6685,1.37996 3.0277,1.37996 3.5573,0 0.324,-0.84423 0.9909,-1.53497 1.482,-1.53497 1.6768,0 0.8969,2.64777 -1.4214,4.82569 -2.5508,2.3963 -4.6004,2.98156 -2.7862,0.79556 z m 30.1006,-1.93416 c 0,-3.89709 -10.5203,-9.54936 -14.1541,-7.60461 -3.2261,1.72658 -4.5245,0.40825 -1.5301,-1.55371 2.3459,-1.53712 3.3476,-1.64641 6.4796,-0.70698 2.0375,0.61117 5.1331,2.36379 6.8791,3.89471 3.2656,2.86346 5.3246,7.2835 3.3929,7.2835 -0.587,0 -1.0674,-0.59081 -1.0674,-1.31291 z m -24,-6.68709 c 0,-0.55 0.45,-1 1,-1 0.55,0 1,0.45 1,1 0,0.55 -0.45,1 -1,1 -0.55,0 -1,-0.45 -1,-1 z m 18.4499,-8.28887 c 0.3435,-5.09461 2.78,-10.22858 5.5605,-11.71667 1.4081,-0.75361 1.9896,-0.7531 1.9896,0.002 0,0.58661 -0.64,1.31217 -1.4223,1.61236 -1.7059,0.65462 -4.5777,7.46294 -4.5777,10.85266 0,1.33141 -0.4141,2.67669 -0.9202,2.98951 -0.5216,0.32233 -0.7945,-1.29801 -0.6299,-3.7396 z m 8.184,-15.22298 c -0.6774,-1.7652 1.2468,-6.48815 2.6433,-6.48815 0.5258,0 0.6848,1.0125 0.3531,2.25 -0.3316,1.2375 -0.6091,3.0375 -0.6166,4 -0.017,2.14757 -1.5868,2.30469 -2.3798,0.23815 z"
       id="path3012"
       inkscape:connector-curvature="0" />
  </g>
</svg>
