<?xml version="1.0" encoding="UTF-8" standalone="no"?>
<!-- Created with Inkscape (http://www.inkscape.org/) -->

<svg
   xmlns:dc="http://purl.org/dc/elements/1.1/"
   xmlns:cc="http://creativecommons.org/ns#"
   xmlns:rdf="http://www.w3.org/1999/02/22-rdf-syntax-ns#"
   xmlns:svg="http://www.w3.org/2000/svg"
   xmlns="http://www.w3.org/2000/svg"
   xmlns:sodipodi="http://sodipodi.sourceforge.net/DTD/sodipodi-0.dtd"
   xmlns:inkscape="http://www.inkscape.org/namespaces/inkscape"
   width="105.74091"
   height="236.98924"
   id="svg2"
   version="1.1"
   inkscape:version="0.48.3.1 r9886"
   sodipodi:docname="Calf-raises-2.svg">
  <defs
     id="defs4" />
  <sodipodi:namedview
     id="base"
     pagecolor="#ffffff"
     bordercolor="#666666"
     borderopacity="1.0"
     inkscape:pageopacity="0.0"
     inkscape:pageshadow="2"
     inkscape:zoom="3.959798"
     inkscape:cx="-31.729841"
     inkscape:cy="182.75685"
     inkscape:document-units="px"
     inkscape:current-layer="layer1"
     showgrid="false"
     fit-margin-top="0"
     fit-margin-left="0"
     fit-margin-right="0"
     fit-margin-bottom="0"
     inkscape:window-width="1855"
     inkscape:window-height="1056"
     inkscape:window-x="65"
     inkscape:window-y="24"
     inkscape:window-maximized="1" />
  <metadata
     id="metadata7">
    <rdf:RDF>
      <cc:Work
         rdf:about="">
        <dc:format>image/svg+xml</dc:format>
        <dc:type
           rdf:resource="http://purl.org/dc/dcmitype/StillImage" />
        <dc:title></dc:title>
      </cc:Work>
    </rdf:RDF>
  </metadata>
  <g
     inkscape:label="Ebene 1"
     inkscape:groupmode="layer"
     id="layer1"
     transform="translate(-530.06975,-596.9268)">
    <path
       style="fill:#000000"
       d="m 558.55403,830.95171 c -1.70816,-1.59567 -3.10575,-3.87525 -3.10575,-5.06574 0,-1.19049 -0.46954,-3.04188 -1.04342,-4.11418 -1.42914,-2.67037 -2.08495,-8.14249 -1.93845,-16.1745 0.0682,-3.73847 -0.81768,-10.88429 -1.98353,-16 l -2.10676,-9.24437 2.11303,-7 c 1.16217,-3.85 2.53024,-10.15 3.04016,-14 0.50992,-3.85 1.37529,-8.03367 1.92305,-9.29705 0.54775,-1.26338 0.99592,-5.63676 0.99592,-9.71862 0,-6.13418 -0.25617,-7.32326 -1.47676,-6.85488 -2.4605,0.94419 -4.05802,-3.86006 -2.24643,-6.75571 1.90591,-3.0464 3.1085,-11.20748 3.17257,-21.52988 0.0278,-4.48587 0.32409,-8.43434 0.65833,-8.77438 0.33425,-0.34003 0.61957,0.63023 0.63404,2.15614 0.0145,1.52591 0.29854,5.02438 0.63125,7.77438 0.58492,4.8346 -1.04647,14.35215 -3.56626,20.80563 -0.81423,2.08535 -0.79327,3.10784 0.0817,3.98276 0.90283,0.90282 1.31318,0.65684 1.761,-1.05564 0.78654,-3.00776 2.35061,-2.83887 2.35061,0.25383 0,4.62893 9.55746,6.97864 16.53212,4.06445 1.90733,-0.79694 3.52413,-2.14694 3.59288,-3 0.0687,-0.85307 0.2375,-2.00103 0.375,-2.55103 0.1375,-0.55 0.30625,-1.65461 0.375,-2.45469 0.0715,-0.8321 1.63804,-1.73853 3.66029,-2.11791 2.60164,-0.48807 3.96469,-1.49039 5.1612,-3.79531 0.93627,-1.80359 1.80949,-2.5883 2.05872,-1.85005 0.64961,1.9242 -2.54296,6.21796 -4.62328,6.21796 -2.23017,0 -5.13193,3.04016 -5.13193,5.37671 0,0.94557 1.10402,2.71014 2.45338,3.92126 3.10424,2.78622 7.54662,11.25293 7.54662,14.38309 0,1.31075 0.675,3.99868 1.5,5.97318 0.825,1.97451 1.46447,4.54755 1.42105,5.71788 -0.0434,1.17034 -0.30592,1.56538 -0.58333,0.87788 -0.27741,-0.6875 -0.98151,-1.25 -1.56465,-1.25 -1.71798,0 -0.0535,13.11176 2.3559,18.55866 1.90876,4.31506 2.059,5.82306 1.38391,13.89094 -0.41652,4.97772 -0.81481,10.8504 -0.88509,13.0504 l -0.12779,4 7.5,0.50849 c 4.125,0.27966 8.4,0.98916 9.5,1.57666 2.85771,1.52627 8.45984,1.67413 11.75268,0.31018 4.19612,-1.73808 3.19997,-3.27898 -3.77536,-5.8399 -1.66247,-0.61036 -5.67736,-4.07778 -8.92198,-7.70536 l -5.89931,-6.59562 -0.90843,-13.62722 c -0.49964,-7.49498 -0.9695,-14.75223 -1.04413,-16.12723 -0.0746,-1.375 0.18897,-5.65 0.58577,-9.5 0.91888,-8.91535 -0.13953,-10.94815 -3.60352,-6.92101 -2.46689,2.86792 -2.52124,2.87984 -4.59108,1.00666 -1.15205,-1.0426 -2.09464,-2.60101 -2.09464,-3.46314 0,-1.14286 0.42173,-0.96542 1.5567,0.65498 2.14467,3.06194 4.05272,2.78169 5.29346,-0.77749 0.57519,-1.65 1.51921,-3 2.09782,-3 1.14952,0 1.39281,-5.04607 0.46657,-9.67724 l -0.58545,-2.92724 -5.55547,2.80224 c -6.14323,3.09871 -8.60026,3.38163 -12.17298,1.40169 -2.20267,-1.22068 -1.91576,-1.32024 3.5,-1.21456 5.22488,0.10195 6.47412,-0.28729 10.92667,-3.40453 4.69607,-3.28772 4.95184,-3.68307 3.88175,-6 -3.18294,-6.89157 -5.66599,-15.92709 -5.50723,-20.04015 0.12886,-3.33855 -0.32354,-5.01187 -1.68913,-6.24771 -1.73028,-1.56589 -2.25376,-1.57251 -7.24049,-0.0916 -6.24975,1.85598 -18.56704,1.16949 -23.35492,-1.30166 -2.39462,-1.23592 -3.02788,-1.26022 -3.74012,-0.14353 -0.59309,0.92988 -0.80508,0.5736 -0.68766,-1.1557 0.29403,-4.33009 -2.34277,-10.29684 -7.20927,-16.31369 -2.58619,-3.19754 -5.24911,-7.69754 -5.91759,-10.00001 -0.66848,-2.30247 -2.0823,-5.98631 -3.14182,-8.18631 -3.89367,-8.08489 -1.13096,-16.5497 7.07916,-21.69016 2.475,-1.54963 5.72606,-3.60329 7.22459,-4.56368 3.50887,-2.2488 4.81379,-9.01245 2.43826,-12.63796 -2.47763,-3.78135 -3.16117,-11.74387 -1.31467,-15.31461 3.04163,-5.88187 13.09634,-8.1492 19.31719,-4.35602 2.65041,1.6161 3.35142,2.87628 4.30905,7.74626 0.62903,3.1989 1.29589,6.29501 1.48191,6.88026 0.37123,1.16793 -1.19233,11.04268 -2.12743,13.43591 -0.32235,0.825 -0.65343,2.46342 -0.73574,3.64094 -0.12802,1.8315 0.17963,2.01574 2.12859,1.27475 1.25304,-0.4764 2.27825,-0.59723 2.27825,-0.26849 0,0.32873 0.675,0.0375 1.5,-0.6472 1.22851,-1.01957 1.5,-0.95124 1.5,0.37756 0,1.01965 -0.84258,1.62244 -2.26787,1.62244 -6.53468,0 -12.89887,8.80104 -10.64704,14.72379 1.37084,3.60559 0.41121,3.97744 -1.31818,0.5108 -1.20324,-2.41197 -1.23274,-3.59796 -0.17829,-7.16915 0.6949,-2.3535 2.14334,-5.24351 3.21876,-6.42226 1.07542,-1.17875 2.19694,-3.49318 2.49227,-5.14318 0.29533,-1.65 1.06036,-5.025 1.70006,-7.5 1.20977,-4.68053 0.60267,-15.00592 -1.06556,-18.12304 -2.72769,-5.09674 -9.79266,-6.55285 -16.06259,-3.31054 -4.50835,2.33136 -7.49015,11.43358 -3.74552,11.43358 0.50164,0 0.63883,1.08864 0.30488,2.4192 -0.46476,1.85175 -0.0362,2.79329 1.82682,4.01402 1.33871,0.87716 2.95183,2.73131 3.58472,4.12036 0.65504,1.43765 2.98287,3.33957 5.40412,4.41534 2.70996,1.20404 3.52767,1.91048 2.25342,1.94679 -4.06776,0.11589 -6.53432,-1.23514 -8.72567,-4.77939 l -2.24828,-3.63632 -0.71353,4.9835 c -0.39244,2.74093 -1.2983,5.17769 -2.01302,5.41503 -0.71473,0.23734 -2.49254,1.70727 -3.95071,3.2665 -1.45817,1.55923 -3.03316,2.84167 -3.5,2.84985 -0.46683,0.008 -2.5799,1.47964 -4.69569,3.26991 -4.99923,4.23006 -5.9951,10.21882 -2.80488,16.86736 1.14744,2.39132 2.54119,6.15952 3.09723,8.37378 1.63876,6.52598 16.45773,21.47407 21.28856,21.47407 1.72473,0 6.48929,-5.03257 10.71741,-11.32028 1.78275,-2.65115 3.50352,-4.55811 3.82394,-4.2377 0.32041,0.32042 -0.39796,1.90882 -1.59639,3.52979 -2.8108,3.8018 -2.74773,4.22648 0.57103,3.84461 2.15997,-0.24853 2.81789,-0.90645 3.06642,-3.06642 0.3621,-3.14694 2.18358,-3.77257 2.18358,-0.75 0,1.24219 0.66667,2 1.75945,2 1.77088,0 3.63482,-2.2769 5.17096,-6.31662 0.80649,-2.12088 0.62138,-2.18338 -6.46677,-2.18338 -6.34569,0 -7.63382,-0.31607 -9.88033,-2.42431 -1.42082,-1.33338 -2.58331,-2.97273 -2.58331,-3.64302 0,-1.45222 -2.24964,-2.43267 -5.58179,-2.43267 -1.82455,0 -2.43193,0.55236 -2.47408,2.25 -0.039,1.5714 -0.60118,0.89281 -1.86393,-2.25 -1.23015,-3.06166 -2.91959,-5.13926 -5.28562,-6.5 -1.91267,-1.1 -3.29701,-2.53069 -3.07631,-3.1793 0.53493,-1.57214 7.53648,3.16611 8.49951,5.75197 0.51663,1.38723 1.67568,1.92733 4.13605,1.92733 2.95473,0 3.65483,-0.49848 5.16256,-3.67579 1.80734,-3.80868 5.25044,-7.66162 7.18831,-8.04396 5.61995,-1.1088 7.2953,-1.17644 7.2953,-0.29451 0,0.55784 -1.02054,1.01426 -2.26787,1.01426 -3.82755,0 -9.53001,4.60844 -10.62941,8.59017 -2.00279,7.25348 2.02197,11.40983 11.04858,11.40983 5.10537,0 6.08238,-0.35469 9.2775,-3.36808 4.72688,-4.45802 4.96037,-9.3966 0.64812,-13.70884 -1.60769,-1.6077 -3.63269,-2.92308 -4.5,-2.92308 -0.8673,0 -1.57692,-0.49878 -1.57692,-1.10841 0,-0.70486 1.00122,-0.86458 2.75,-0.4387 6.85314,1.66894 10.16012,9.99048 6.6057,16.62226 -1.02063,1.90429 -2.27125,3.54225 -2.77915,3.63993 -0.5079,0.0977 -1.76587,2.78924 -2.79549,5.98125 -2.3187,7.1884 -2.00758,19.2909 0.56912,22.13812 0.9074,1.00267 1.64982,2.8901 1.64982,4.19429 0,1.84431 0.26667,2.10459 1.2,1.17126 0.66,-0.66 1.88513,-1.2 2.72251,-1.2 0.99982,0 0.67368,0.59812 -0.95,1.74223 -1.35988,0.95823 -2.86604,1.61455 -3.34702,1.4585 -1.36576,-0.44312 1.71057,10.09343 5.99035,20.51719 1.0549,2.56931 1.06842,3.37557 0.0671,4 -0.96006,0.59869 -1.06352,3.12695 -0.44123,10.78208 0.44709,5.5 0.74969,11.35 0.67243,13 -0.29869,6.37958 -0.0522,15.52706 0.76832,28.51677 l 0.85384,13.51676 6.76646,6.73324 c 4.43745,4.41565 7.56171,6.73323 9.07688,6.73323 2.7962,0 5.88588,3.14455 5.10053,5.19113 -0.31244,0.81421 -2.14307,2.23144 -4.06808,3.14941 -3.81727,1.82033 -9.81596,1.43666 -14.51309,-0.92826 -1.43056,-0.72025 -5.07232,-1.22017 -8.09281,-1.11092 -9.03439,0.32678 -10.38592,-2.41622 -7.21669,-14.64669 1.87703,-7.24369 1.34242,-11.97478 -2.20057,-19.47402 -2.18904,-4.63341 -2.48522,-6.50321 -2.29677,-14.5 0.25033,-10.62294 -1.37107,-18.51217 -4.96961,-24.18065 -1.39664,-2.2 -2.60615,-4.12309 -2.68781,-4.27354 -0.0816,-0.15044 -0.82764,-0.0129 -1.65775,0.30563 -1.01535,0.38963 -1.68493,2.51631 -2.04602,6.49838 -0.31195,3.44031 -1.41451,7.33948 -2.63272,9.31059 -3.68103,5.956 -6.09825,15.33717 -6.09825,23.66709 0,5.0093 -0.58827,9.11616 -1.66442,11.61973 -1.1116,2.58604 -1.69284,6.86137 -1.75,12.87212 -0.0835,8.78244 0.01,9.15713 3.86495,15.5 2.1728,3.575 4.45428,6.95 5.06997,7.5 2.22374,1.98648 4.61988,6.69178 4.099,8.04919 -0.79461,2.07071 -7.28433,4.45081 -12.13587,4.45081 -3.33414,0 -4.95402,-0.63699 -7.37788,-2.90121 z m 12.39425,-1.09879 c 0,-1.16636 -1.16774,-1.45883 -5.25,-1.31491 -6.82333,0.24057 -6.8505,-1.38412 -0.0308,-1.84406 4.04148,-0.27256 5.55831,0.0441 6.72224,1.40349 1.75183,2.04598 4.05861,2.32069 4.05861,0.48332 0,-0.69968 -1.26664,-2.83718 -2.81475,-4.75 -1.54812,-1.91281 -4.50981,-6.54156 -6.58153,-10.2861 -4.94334,-8.93487 -5.85238,-18.10935 -2.68499,-27.09829 2.18872,-6.21149 2.91677,-15.82895 1.05753,-13.96971 -0.56306,0.56306 -1.44946,3.63946 -1.96978,6.83645 -1.18298,7.26851 -2.00648,8.24365 -2.00648,2.37595 0,-2.79591 0.93208,-6.33827 2.46388,-9.36397 1.35514,-2.67673 2.7652,-6.2387 3.13348,-7.91547 0.66296,-3.01843 1.60232,-5.3565 6.04927,-15.0567 1.2607,-2.75 2.57753,-6.84408 2.92628,-9.09796 l 0.63408,-4.09796 -5.0855,1.04176 c -4.22306,0.86508 -5.68786,0.7545 -8.63742,-0.65205 -5.3808,-2.56592 -5.70688,-2.32523 -4.95901,3.66053 0.48723,3.89962 0.1818,6.89986 -1.12421,11.043 -1.55771,4.94162 -1.6402,6.58091 -0.62814,12.48282 0.64079,3.73678 1.48054,7.61625 1.86612,8.62105 0.4612,1.20186 0.3271,1.59579 -0.39196,1.15139 -0.60115,-0.37153 -1.38837,-2.02035 -1.74939,-3.66405 -1.00292,-4.56626 -2.10577,-3.61513 -4.02365,3.47009 -1.83712,6.78686 -1.74133,8.80097 1.0237,21.524 0.99619,4.58387 1.38448,9.23983 1.00231,12.01852 -0.48003,3.49025 -0.0332,6.17323 1.93816,11.63837 1.4091,3.90635 2.562,7.81 2.562,8.67477 0,0.86477 1.0125,2.2885 2.25,3.16383 2.88437,2.04025 10.25,1.69667 10.25,-0.47811 z m -14.5,-18.28734 c 0,-1.21252 3.27469,-6.71266 3.9966,-6.71266 0.98792,0 -1.67005,5.68015 -3.05992,6.53914 -0.51518,0.31839 -0.93668,0.39647 -0.93668,0.17352 z m 7,-51.71266 c 0,-0.55 0.675,-1 1.5,-1 0.825,0 1.5,0.45 1.5,1 0,0.55 -0.675,1 -1.5,1 -0.825,0 -1.5,-0.45 -1.5,-1 z m -3,-7.84501 c 0,-1.51118 0.61714,-2.15499 2.06574,-2.15499 1.13616,0 2.90594,-0.44966 3.93285,-0.99925 1.50035,-0.80296 1.99645,-0.59173 2.52557,1.07536 0.36215,1.14104 0.39236,2.3407 0.0672,2.66592 -0.32522,0.32522 -0.59131,0.0663 -0.59131,-0.57536 0,-1.73379 -4.07189,-1.41159 -6.17126,0.48832 -1.7179,1.55468 -1.82874,1.52437 -1.82874,-0.5 z m 29.62723,-60.6437 c 3.45865,-1.44512 3.47839,-1.48965 3.26625,-7.36821 l -0.21342,-5.9143 -3.59003,0.48766 c -1.97452,0.26821 -4.94003,0.55424 -6.59003,0.63561 -2.22992,0.10997 -3.95415,1.28813 -6.71707,4.58977 -2.04439,2.443 -4.29669,4.76619 -5.00512,5.16265 -1.34726,0.75396 -5.78777,-0.95197 -9.38765,-3.6065 -2.07812,-1.5324 -2.09365,-1.50406 -1.03299,1.88468 0.83921,2.68123 1.85651,3.67932 4.60984,4.52278 7.62845,2.33694 18.54126,2.16252 24.66022,-0.39414 z m -13.26185,-0.87494 c -1.57596,-1.35641 -2.57796,-2.75441 -2.22666,-3.10666 0.35129,-0.35225 1.88432,0.51393 3.40673,1.92486 3.60782,3.3436 2.55576,4.3972 -1.18007,1.1818 z m 8.63462,-4.01391 c 0,-0.20765 0.6853,-0.9463 1.52289,-1.64144 1.27335,-1.05678 1.41968,-0.99492 0.89301,0.37756 -0.53789,1.40173 -2.4159,2.38422 -2.4159,1.26388 z m 11.60699,114.79577 c -0.86706,-2.25952 -0.74939,-4.41821 0.24083,-4.41821 0.4663,0 0.8862,1.35 0.93312,3 0.0951,3.34467 -0.26689,3.78197 -1.17395,1.41821 z m 24.6098,-67.97891 c -3.53184,-2.47381 -5.21679,-6.81133 -5.21679,-13.42948 0,-5.83007 2.41577,-12.91268 4.93548,-14.46994 0.56572,-0.34964 0.18874,-1.92712 -0.91238,-3.81785 -1.03205,-1.77212 -2.18148,-5.02203 -2.55429,-7.22203 -0.83629,-4.9351 -4.86396,-19.11228 -6.39213,-22.5 -0.62026,-1.375 -2.24125,-4.02905 -3.60221,-5.89788 -1.36096,-1.86884 -2.47447,-4.62476 -2.47447,-6.12428 0,-1.49951 -0.6798,-4.65316 -1.51068,-7.0081 -0.83087,-2.35495 -1.3372,-4.45519 -1.12518,-4.66722 0.73303,-0.73303 3.63586,7.74834 3.63586,10.6231 0,1.80588 1.24834,4.37932 3.33711,6.87942 1.83542,2.19684 3.8036,5.27692 4.37373,6.84461 1.86823,5.137 4.11544,13.76428 4.77985,18.35035 0.35857,2.475 1.40494,6.39344 2.32527,8.70765 1.45664,3.66276 1.99778,4.14368 4.17869,3.71369 2.33964,-0.46129 2.37695,-0.40888 0.56413,0.79235 -8.10062,5.36773 -10.67423,14.52965 -6.60151,23.50102 5.23758,11.53732 15.94219,2.39699 14.85153,-12.68124 -0.35899,-4.96305 -0.95829,-6.59143 -3.37268,-9.1641 -2.46667,-2.62836 -2.57802,-2.94324 -0.69647,-1.96934 7.95114,4.11556 7.32065,23.74176 -0.94877,29.53389 -2.82251,1.97696 -4.75729,1.97834 -7.57409,0.005 z M 610.6813,721.07059 c -3.73331,-3.48743 -4.80804,-8.09224 -3.2159,-13.77883 1.63617,-5.8438 0.63516,-10.29697 -3.5453,-15.77195 -3.33063,-4.36199 -5.92911,-9.54293 -5.16797,-10.30407 0.19789,-0.19789 0.98946,0.87702 1.75905,2.38869 0.76958,1.51167 2.84412,4.56293 4.61007,6.78058 5.33783,6.70313 6.47342,11.65562 4.14749,18.08788 -1.59371,4.40733 0.54323,11.18761 3.93208,12.47605 1.30229,0.49513 2.08917,1.35108 1.74862,1.90211 -0.85285,1.37993 -0.91083,1.35574 -4.26814,-1.78046 z m -37.2447,-6.17873 c 1.91857,-0.4861 6.64357,-1.19516 10.5,-1.57567 3.85642,-0.38052 7.79918,-1.10625 8.76168,-1.61274 1.11207,-0.5852 1.75,-0.55759 1.75,0.0757 0,1.46882 -6.36408,2.8435 -16,3.45611 -5.94091,0.37769 -7.44977,0.27429 -5.01168,-0.34344 z m 4.86402,-3.75058 c 1.29379,-0.9836 4.66879,-2.77989 7.5,-3.99176 6.2104,-2.65829 3.70061,-2.97584 -5.90785,-0.74749 -3.67379,0.852 -6.89609,1.33262 -7.16069,1.06803 -0.68558,-0.68559 9.05042,-3.45994 14.83462,-4.22724 4.1351,-0.54854 4.88158,-0.3947 4.88158,1.00602 0,0.90947 -1.0125,2.04919 -2.25,2.53271 -1.2375,0.48352 -4.5,1.91537 -7.25,3.18187 -6.74147,3.10477 -7.40266,3.27234 -4.64766,1.17786 z m -17.30234,-3.09353 c 0.5225,-0.44284 2.6375,-2.04075 4.7,-3.55089 4.26823,-3.12517 4.76804,-5.31613 1.5,-6.57533 -1.95015,-0.75141 -2.49212,-0.38063 -4.06677,2.78222 l -1.81677,3.64917 0.58552,-3.46875 c 0.81712,-4.84079 1.67404,-5.34929 6.67082,-3.95852 5.69725,1.58574 15.60026,1.35737 20.94176,-0.48293 3.21593,-1.10798 3.89653,-1.14528 2.83391,-0.15533 -2.37327,2.21097 -7.90813,3.56553 -14.56913,3.56553 -5.87944,0 -6.46313,0.19954 -7.54784,2.58021 -0.64659,1.41911 -2.86902,3.44411 -4.93872,4.5 -3.89263,1.98587 -5.95148,2.52045 -4.29278,1.11462 z m 2.61122,-27.86706 c 0.91368,-0.24212 2.8177,-2.77742 4.23116,-5.634 1.84957,-3.73792 2.39697,-4.35285 1.95289,-2.19377 -0.99099,4.81802 -3.55182,8.51281 -5.81088,8.384 -1.55429,-0.0886 -1.64235,-0.21989 -0.37317,-0.55623 z m -7.48264,-6.93374 c -3.30907,-3.07564 -3.51697,-3.50775 -1.55064,-3.22294 1.29323,0.18732 3.08558,1.72802 4.16348,3.57891 1.04097,1.7875 1.73876,3.23782 1.55063,3.22294 -0.18813,-0.0149 -2.06169,-1.62539 -4.16347,-3.57891 z m 47.64998,-3.04605 c 0.0943,-3.38361 0.50894,-5.94456 0.92144,-5.69098 0.99651,0.61257 0.83177,7.32055 -0.24173,9.843 -0.57459,1.35015 -0.79545,10e-4 -0.67971,-4.15202 z m -42.32856,2.14401 c 0,-0.22775 0.923,-1.27399 2.05112,-2.32499 l 2.05112,-1.91091 -3.12804,-3.12804 c -1.72043,-1.72043 -2.72187,-3.12805 -2.22544,-3.12805 0.49644,0 1.95949,1.125 3.25124,2.5 3.09145,3.29069 5.45456,3.15676 8.12909,-0.46073 1.20393,-1.62841 2.58925,-2.71334 3.0785,-2.41098 0.48924,0.30237 0.32175,1.23389 -0.37219,2.07004 -1.34386,1.61925 -12.8354,9.49222 -12.8354,8.79366 z m 2.01135,-23.37363 c -2.34057,-0.41487 -3.54116,-1.20072 -3.64821,-2.38796 -0.12096,-1.3415 -0.043,-1.38913 0.3222,-0.1969 0.38725,1.26416 0.77035,1.3332 1.95274,0.35191 1.19062,-0.98814 1.8841,-0.80767 3.63867,0.94689 1.19223,1.19224 1.95519,2.10846 1.69547,2.03606 -0.25972,-0.0724 -2.04211,-0.4099 -3.96087,-0.75 z m 35.98865,-6.75743 c 0,-3.79455 -4.41405,-9.36093 -7.42308,-9.36093 -0.8673,0 -1.57692,-0.49878 -1.57692,-1.10841 0,-2.104 5.45173,0.15944 8.81285,3.65892 1.831,1.90637 3.55094,4.91644 3.84514,6.72938 0.45463,2.80153 0.22658,3.3032 -1.56284,3.43799 -1.7594,0.13253 -2.09515,-0.40542 -2.09515,-3.35695 z m -40.12353,-2.00192 c -0.89295,-1.84745 -1.24628,-3.35901 -0.78519,-3.35901 1.17213,0 3.10028,3.83329 2.72195,5.41142 -0.17228,0.71863 -1.04382,-0.20495 -1.93676,-2.05241 z m 10.62353,-4.35901 c 2.73138,-1.17371 3.5,-1.17371 3.5,0 0,0.55 -1.2375,0.96837 -2.75,0.92971 -2.43684,-0.0623 -2.52225,-0.16815 -0.75,-0.92971 z"
       id="path3384"
       inkscape:connector-curvature="0" />
  </g>
</svg>
