<?xml version="1.0" encoding="UTF-8" standalone="no"?>
<!-- Created with Inkscape (http://www.inkscape.org/) -->

<svg
   xmlns:dc="http://purl.org/dc/elements/1.1/"
   xmlns:cc="http://creativecommons.org/ns#"
   xmlns:rdf="http://www.w3.org/1999/02/22-rdf-syntax-ns#"
   xmlns:svg="http://www.w3.org/2000/svg"
   xmlns="http://www.w3.org/2000/svg"
   xmlns:xlink="http://www.w3.org/1999/xlink"
   xmlns:sodipodi="http://sodipodi.sourceforge.net/DTD/sodipodi-0.dtd"
   xmlns:inkscape="http://www.inkscape.org/namespaces/inkscape"
   width="219.57726"
   height="108.78182"
   id="svg2"
   version="1.1"
   inkscape:version="0.48.3.1 r9886"
   sodipodi:docname="Cross-body-crunch-1.svg"
   inkscape:export-filename="/home/christian/Dokumente/Website/opentraining/cc_exercises/svg/Crunches-1.png"
   inkscape:export-xdpi="90.051376"
   inkscape:export-ydpi="90.051376">
  <defs
     id="defs4">
    <radialGradient
       gradientUnits="userSpaceOnUse"
       gradientTransform="matrix(1,0,0,0.91819829,-19.285714,-7.9105395)"
       r="209.56604"
       fy="287.50052"
       fx="398.1105"
       cy="287.50052"
       cx="398.1105"
       id="radialGradient5255"
       xlink:href="#linearGradient5249"
       inkscape:collect="always" />
    <linearGradient
       id="linearGradient5249"
       inkscape:collect="always">
      <stop
         id="stop5251"
         offset="0"
         style="stop-color:#e3e3e3;stop-opacity:1;" />
      <stop
         id="stop5253"
         offset="1"
         style="stop-color:#e3e3e3;stop-opacity:0;" />
    </linearGradient>
  </defs>
  <sodipodi:namedview
     id="base"
     pagecolor="#ffffff"
     bordercolor="#666666"
     borderopacity="1.0"
     inkscape:pageopacity="0.0"
     inkscape:pageshadow="2"
     inkscape:zoom="1.979899"
     inkscape:cx="0.056890175"
     inkscape:cy="-35.893787"
     inkscape:document-units="px"
     inkscape:current-layer="layer1"
     showgrid="false"
     showguides="true"
     inkscape:guide-bbox="true"
     fit-margin-top="0"
     fit-margin-left="0"
     fit-margin-right="0"
     fit-margin-bottom="0"
     inkscape:window-width="694"
     inkscape:window-height="827"
     inkscape:window-x="179"
     inkscape:window-y="174"
     inkscape:window-maximized="0">
    <sodipodi:guide
       orientation="-0.70710678,0.70710678"
       position="-2059.4951,684.99656"
       id="guide2985" />
  </sodipodi:namedview>
  <metadata
     id="metadata7">
    <rdf:RDF>
      <cc:Work
         rdf:about="">
        <dc:format>image/svg+xml</dc:format>
        <dc:type
           rdf:resource="http://purl.org/dc/dcmitype/StillImage" />
        <dc:title></dc:title>
      </cc:Work>
    </rdf:RDF>
  </metadata>
  <g
     inkscape:label="Ebene 1"
     inkscape:groupmode="layer"
     id="layer1"
     transform="translate(-630.92363,-602.86263)">
    <path
       style="fill:#000000"
       d="m 662.42363,707.06545 c -13.24831,-2.82464 -31.5,-10.76721 -31.5,-13.70782 0,-0.76945 0.61636,-4.02285 1.36969,-7.22977 0.75333,-3.20692 1.91608,-8.75577 2.58389,-12.33077 1.18597,-6.34885 7.23764,-17.42403 11.41533,-20.89121 2.65114,-2.20025 1.90874,-0.32631 -2.97493,7.50923 -4.14761,6.65456 -4.75021,8.4098 -6.05472,17.63602 -0.79678,5.63528 -1.53657,11.82096 -1.64397,13.74596 l -0.19529,3.5 8.5,2.65122 c 20.05203,6.25441 20.09305,6.26208 35,6.55183 7.975,0.15501 15.34588,0.3088 16.37974,0.34177 1.03386,0.033 3.50886,-0.71761 5.5,-1.66794 1.99114,-0.95033 6.99526,-2.10178 11.12026,-2.55878 10.24705,-1.13524 9.31565,-1.11187 20.5,-0.51433 5.5,0.29385 11.0455,0.28865 12.3233,-0.0115 l 2.3232,-0.54582 -3.0119,-3.1232 c -4.0574,-4.20726 -5.0606,-7.27376 -5.8034,-17.73851 -0.3469,-4.88663 -0.8107,-8.88474 -1.0306,-8.88474 -0.22,0 -1.7505,0.6984 -3.4012,1.55199 -2.27211,1.17499 -2.85098,2.02521 -2.3829,3.5 1.1252,3.54519 -1.09988,2.01991 -2.85432,-1.95662 -2.69807,-6.11532 -7.66218,-6.64471 -7.66218,-0.81712 0,3.63836 2.54149,6.83493 4.758,5.98437 1.03686,-0.39788 1.32453,-0.20517 0.84703,0.56744 -1.11818,1.80925 -4.09952,1.386 -6.14307,-0.87209 -1.24516,-1.37589 -1.77362,-3.30285 -1.61997,-5.90697 0.19343,-3.27815 -0.225,-4.18754 -2.75605,-5.9898 -2.1542,-1.53393 -3.76305,-1.94243 -5.78502,-1.46888 -2.69433,0.63102 -2.73419,0.58588 -1.04733,-1.18605 1.48721,-1.56221 2.20878,-1.67022 4.75,-0.71102 1.64803,0.62206 2.99641,0.75692 2.99641,0.29967 0,-0.45724 0.24073,-1.45869 0.53496,-2.22544 0.31293,-0.81547 -0.48038,-1.93749 -1.91135,-2.70333 -2.15689,-1.15433 -2.71574,-1.05822 -4.72353,0.81231 -2.46775,2.29907 -5.313,2.8603 -4.66639,0.92046 0.62965,-1.88893 -6.19535,-4.80115 -11.19513,-4.77696 -2.49621,0.0121 -6.44091,0.88554 -8.766,1.94101 -2.3251,1.05548 -4.4654,1.53403 -4.75623,1.06345 -0.50548,-0.81788 4.45239,-4.31209 7.37736,-5.19942 0.76653,-0.23254 1.52333,-1.63874 1.68178,-3.1249 0.43021,-4.03512 -2.74953,-3.50461 -7.9995,1.33463 l -4.37933,4.03674 3.48545,7.16182 c 4.49854,9.2435 4.12853,13.96361 -1.46942,18.74525 -3.71376,3.17222 -6.01606,3.42351 -12.03368,1.31346 -0.92345,-0.3238 0.12101,0.77063 2.32101,2.43206 3.40414,2.5708 4.2289,2.82188 5.5366,1.6855 2.2911,-1.99094 8.9634,-4.58256 8.9634,-3.48152 0,0.52629 -1.26292,1.70291 -2.80649,2.61472 -1.54357,0.91181 -3.23107,2.62212 -3.75,3.8007 -1.34084,3.04524 -3.88097,3.16318 -6.60148,0.30649 -5.75738,-6.04555 -16.62376,-8.59441 -21.64528,-5.0772 -3.7346,2.61581 -4.94165,1.07626 -1.68458,-2.14861 1.62545,-1.60938 2.78829,-3.37614 2.58409,-3.92614 -0.20419,-0.55 -1.17851,-5.69977 -2.16516,-11.44393 -1.33892,-7.79512 -1.51909,-10.9654 -0.71038,-12.5 1.09384,-2.07568 5.45654,-6.55607 6.38386,-6.55607 0.27584,0 2.15711,-1.125 4.18061,-2.5 2.02349,-1.375 4.89617,-2.5 6.38374,-2.5 1.56184,0 5.45965,-1.88614 9.2248,-4.46387 3.58608,-2.45513 9.32031,-5.87738 12.74273,-7.60502 5.39061,-2.72117 7.31883,-3.15311 14.42171,-3.23065 6.30045,-0.0688 8.83082,0.3244 10.92703,1.69788 2.65209,1.73772 2.70838,1.96968 2.02554,8.34596 -0.3863,3.60721 -1.25771,8.69948 -1.93646,11.31615 l -1.23411,4.75758 3.02764,0.60553 c 1.6652,0.33304 4.17617,1.37777 5.57992,2.32161 4.22849,2.84313 8.9192,4.1255 11.85357,3.24058 1.4843,-0.44761 2.1362,-0.85252 1.4487,-0.8998 -1.51373,-0.10409 -1.66341,-4.27254 -0.2058,-5.73019 0.7257,-0.72566 0.3502,-2.84602 -1.2306,-6.95 -1.98916,-5.16402 -2.27554,-7.72689 -2.28012,-20.40576 -0.004,-10.05611 0.39309,-15.20597 1.29447,-16.80351 3.08085,-5.46026 12.55335,-7.90841 18.17205,-4.69649 1.375,0.78602 3.3246,1.44507 4.3324,1.46456 1.6845,0.0326 7.9876,2.57348 21.3518,8.60745 2.8513,1.28736 8.6368,3.46832 12.8567,4.84658 7.1464,2.33408 8.5737,2.46367 20.8158,1.88979 8.6689,-0.40638 14.9651,-1.23815 18.4946,-2.44324 6.8767,-2.34794 9.1606,-1.3663 9.1205,3.92004 -0.015,2.04315 -1.0362,5.73982 -2.2683,8.21482 -1.9565,3.92999 -3.2637,5.01088 -10.3199,8.53319 -4.4437,2.21825 -9.4498,5.18621 -11.1246,6.59545 l -3.0451,2.56226 3.2875,8.73967 c 1.8081,4.80682 4.5725,10.10171 6.1431,11.76643 2.8051,2.97338 25.6681,14.803 28.6095,14.803 0.8256,0 2.0374,0.64623 2.693,1.43608 1.6718,2.01443 -0.031,4.82566 -4.5297,7.48021 -3.1123,1.83632 -5.0192,2.11925 -13.2758,1.96975 -5.3028,-0.096 -13.3187,0.17112 -17.813,0.59363 -7.927,0.74522 -8.2487,0.69105 -10.75,-1.81027 -2.3673,-2.36725 -2.5785,-3.27553 -2.5785,-11.08693 0,-10.39528 -2.4922,-17.67232 -7.5627,-22.08247 -1.8971,-1.65 -4.9799,-6.07333 -6.8506,-9.82963 -3.0516,-6.12733 -3.4819,-6.59007 -4.1848,-4.5 -0.4309,1.2813 -0.8358,2.77963 -0.8998,3.32963 -0.064,0.55 -0.3886,1.675 -0.7212,2.5 -2.5676,6.36834 -2.6249,8.05458 -0.5848,17.21514 1.1372,5.10667 1.9866,11.98486 1.8874,15.28486 -0.168,5.59102 -0.4667,6.29516 -4.3819,10.33021 -7.7821,8.02033 -7.3906,7.95313 -50.2016,8.61607 -15.67946,0.2428 -19.69906,0.60783 -23,2.08871 -3.30804,1.48406 -7.11383,1.82609 -22,1.97714 -9.9,0.10045 -18.9,-0.009 -20,-0.24377 z m 107.2997,-8.68304 c 1.4852,-0.77808 4.1467,-2.92036 5.9145,-4.76064 2.817,-2.93254 3.2383,-4.086 3.4097,-9.33532 0.1792,-5.49214 -0.258,-7.93916 -3.3309,-18.64171 -1.1314,-3.94043 -0.7662,-7.53881 1.266,-12.47602 1.2404,-3.0136 1.148,-3.25206 -2.5185,-6.5 -5.5502,-4.91648 -7.1102,-5.67072 -4.9686,-2.40225 2.266,3.45841 1.0056,9.03952 -2.6547,11.75523 -4.1169,3.05441 -16.5881,5.96418 -22.2983,5.20263 l -4.881,-0.65097 1.8541,2.45807 c 1.0287,1.36376 4.3147,3.30562 7.3811,4.36186 4.2538,1.46525 5.6005,2.42209 5.8465,4.1538 0.1757,1.2375 0.7933,2.25 1.3724,2.25 1.6622,0 -0.9664,2.70773 -3.1941,3.2903 -2.1272,0.55626 -8.9008,-3.98279 -8.9615,-6.00512 -0.039,-1.30128 -3.8959,-3.75902 -4.6755,-2.97941 -0.8872,0.88717 2.7894,18.20382 4.7372,22.31208 2.7652,5.83221 5.3083,7.74979 11.2348,8.47141 8.755,1.06601 11.6634,0.9647 14.4668,-0.50394 z m 48.3246,-6.17089 c 3.2467,-1.17645 6.3242,-1.4327 11.9274,-0.99313 5.5809,0.43782 8.7779,0.17464 12.25,-1.00844 6.5355,-2.22687 6.0013,-5.41286 -0.9076,-5.41286 -1.3433,0 -4.732,-1.575 -7.5304,-3.5 -2.7985,-1.925 -5.6449,-3.5 -6.3254,-3.5 -2.3429,0 -9.4053,-5.5074 -12.0261,-9.37815 -1.4442,-2.13298 -3.7341,-6.82251 -5.0886,-10.42117 -3.0181,-8.01823 -3.9509,-9.1965 -7.296,-9.21599 -3.2489,-0.0189 -4.1138,-0.61163 -7.0744,-4.84783 -2.4765,-3.54342 -8.7196,-6.87044 -10.1702,-5.41982 -0.9131,0.91309 2.0741,9.65966 4.8162,14.1019 0.9102,1.47459 3.5549,4.56573 5.877,6.86921 5.6732,5.62778 7.8608,12.25598 7.5873,22.98945 -0.1901,7.46461 -0.013,8.31471 2.0366,9.75 2.8502,1.99635 6.3892,1.99244 11.9242,-0.0132 z M 681.91166,674.82599 c 1.07074,-2.58499 1.00994,-3.72864 -0.38793,-7.29716 -3.6833,-9.40285 -11.22453,-16.85314 -18.44587,-18.22342 -4.27005,-0.81027 -9.39928,2.48531 -11.64319,7.48085 -1.42195,3.16563 -1.42734,4.00246 -0.0548,8.51083 0.83719,2.75 1.52703,6.02833 1.53299,7.28518 0.0163,3.43744 2.90937,7.21482 5.52583,7.21482 2.14445,0 2.06767,-0.21732 -1.24834,-3.53333 -1.94334,-1.94334 -3.27766,-3.78901 -2.96517,-4.1015 0.31249,-0.31249 3.2068,1.06049 6.43179,3.05107 10.40725,6.42372 18.49455,6.27634 21.25474,-0.38734 z m 68.57087,-3.5607 c -1.0676,-0.80751 -2.6427,-1.45389 -3.5,-1.4364 -1.2463,0.0254 -1.1696,0.32623 0.3822,1.5 1.0677,0.80751 2.6426,1.45389 3.5,1.4364 1.2463,-0.0254 1.1696,-0.32623 -0.3822,-1.5 z m -13.0386,-4.8456 c 1.2056,-1.20559 0.7599,-1.56643 -3.1512,-2.55124 -2.5054,-0.63087 -5.38,-0.88529 -6.38798,-0.56537 -1.09335,0.34702 -2.17484,-0.0297 -2.68083,-0.93389 -0.46649,-0.83356 -1.93822,-1.64079 -3.27052,-1.79383 -1.96772,-0.22604 -2.42722,0.17655 -2.44828,2.14508 -0.0217,2.02402 0.49061,2.4475 3.10884,2.56996 1.72413,0.0806 4.18663,0.89809 5.47222,1.81654 2.6149,1.86814 7.13425,1.53623 9.35775,-0.68725 z m 18.4797,-9.15755 c 4.3607,-0.7202 9.1664,-2.65031 11.7657,-4.72547 0.9925,-0.79245 0.6884,-1.99536 -1.4097,-5.57554 -3.7059,-6.32367 -8.7401,-12.77495 -12.3184,-15.78581 -3.4002,-2.8611 -8.2212,-9.20896 -5.9843,-7.87965 0.7957,0.47284 2.8215,1.89059 4.5018,3.15056 6.7365,5.05143 12.2884,6.64295 25.8225,7.40233 l 12.8776,0.72255 5.1224,5.68954 c 6.3781,7.08422 9.071,7.47077 15.8733,2.27846 2.5586,-1.95301 7.1491,-4.69416 10.2012,-6.09144 8.4532,-3.87002 12.9629,-10.13821 10.5447,-14.6566 -1.0423,-1.94755 -1.098,-1.94651 -6.2742,0.11783 -4.2151,1.68101 -7.9796,2.15437 -19.5136,2.4537 l -14.2911,0.37088 -13.2089,-5.80883 c -7.265,-3.19486 -16.809,-7.052 -21.209,-8.57142 -4.4,-1.51942 -8.9,-3.12967 -10,-3.57833 -5.5098,-2.24728 -8.417,-1.9896 -11.8826,1.05322 -2.7745,2.43604 -3.6118,4.1396 -4.5944,9.34705 -1.54258,8.1754 0.0141,22.01815 3.5251,31.34583 1.9119,5.07958 2.2048,6.81077 1.2519,7.3997 -0.9509,0.58767 -0.8972,0.88772 0.228,1.27356 4.292,1.47177 10.3405,1.49341 18.972,0.0679 z m -45.58888,-8.21505 c 1.05419,-3.50832 1.60324,-8.05353 1.40833,-11.65866 -0.26894,-4.97433 -0.63571,-5.97056 -2.31945,-6.30006 -11.90952,-2.33063 -17.57301,-1.03273 -28.73772,6.58583 -5.71914,3.90261 -10.24581,6.15935 -14.31071,7.13451 l -5.94555,1.42631 3.99699,0.82052 c 2.19834,0.45128 5.79699,2.07054 7.99699,3.59836 l 4,2.77785 3.5,-3.88232 c 4.06048,-4.50402 9.59852,-6.19198 17.16414,-5.2315 4.33982,0.55095 5.05501,0.34574 7.32271,-2.10115 2.99997,-3.23702 3.58031,-0.95914 0.67099,2.63371 -1.53688,1.89797 -2.70889,2.2443 -7.07229,2.08986 -4.90449,-0.17359 -5.21007,-0.0443 -4.90784,2.07686 0.26769,1.87877 1.15014,2.37981 5.20894,2.95757 2.68766,0.38259 5.36516,1.17412 5.95,1.75896 2.49204,2.49204 4.34757,1.06043 6.07447,-4.68665 z m 69.89388,-5 c 0.3052,-1.5125 0.8351,-3.4737 1.1776,-4.35821 0.5314,-1.37263 -0.6585,-1.71216 -8.1224,-2.31778 -4.8097,-0.39026 -9.6709,-1.17934 -10.8026,-1.75352 -1.7026,-0.86384 -1.6263,-0.62015 0.4424,1.41243 1.375,1.35101 4.5824,3.21746 7.1275,4.14767 2.5452,0.93021 5.4274,2.57511 6.405,3.65535 2.3811,2.631 3.1137,2.47836 3.7725,-0.78594 z m -68.805,48.6515 c -2.87007,-1.38954 -5.27117,-1.793 -8.5,-1.42825 -14.50946,1.63907 -16.2443,1.73105 -15.68853,0.8318 0.3248,-0.52553 4.31825,-1.8069 8.87433,-2.84749 6.1536,-1.40544 8.8484,-2.54328 10.47943,-4.42476 1.72331,-1.98794 2.46017,-2.27248 3.42529,-1.32272 0.97,0.95457 0.72074,1.63379 -1.18044,3.21673 -1.32554,1.10366 -1.88438,2.02162 -1.24187,2.03992 0.64252,0.0183 1.84421,0.29267 2.67043,0.60972 1.02948,0.39505 1.60593,-0.15566 1.83179,-1.75 0.22767,-1.60712 1.10256,-2.43194 2.82957,-2.66763 1.375,-0.18764 3.175,-0.90669 4,-1.59789 2.58041,-2.16191 4,-2.72069 4,-1.57449 0,1.87657 -4.80762,6.02461 -6.31305,5.44693 -2.0571,-0.78939 -3.08346,3.74672 -1.17134,5.17687 1.57873,1.18081 1.9803,2.44328 0.73439,2.30881 -0.4125,-0.0445 -2.55,-0.95242 -4.75,-2.01755 z m -28.5,-3.34489 c 0,-0.24386 2.55711,-2.83136 5.68247,-5.75 6.41949,-5.99487 7.641,-7.27518 10.31034,-10.80661 l 1.8897,-2.5 -0.21533,3.64669 c -0.1961,3.32103 -0.95045,4.19175 -8.44686,9.75 -7.85605,5.82491 -9.22032,6.66237 -9.22032,5.65992 z m 28.2724,-11.80661 c -1.58563,-2.0381 -4.2724,-7.95174 -4.2724,-9.40364 0,-2.64907 1.53314,-1.25203 3.47606,3.16747 1.08684,2.47219 2.77434,4.74825 3.75,5.05792 0.97567,0.30966 1.77394,0.9827 1.77394,1.49564 0,1.37555 -3.59846,1.13397 -4.7276,-0.31739 z m -20.7724,-13.75 c 0.33992,-0.55 1.06803,-1 1.61803,-1 0.55,0 0.72189,0.45 0.38197,1 -0.33992,0.55 -1.06803,1 -1.61803,1 -0.55,0 -0.72189,-0.45 -0.38197,-1 z"
       id="path3010"
       inkscape:connector-curvature="0" />
  </g>
</svg>
