<?xml version="1.0" encoding="UTF-8" standalone="no"?>
<!-- Created with Inkscape (http://www.inkscape.org/) -->

<svg
   xmlns:dc="http://purl.org/dc/elements/1.1/"
   xmlns:cc="http://creativecommons.org/ns#"
   xmlns:rdf="http://www.w3.org/1999/02/22-rdf-syntax-ns#"
   xmlns:svg="http://www.w3.org/2000/svg"
   xmlns="http://www.w3.org/2000/svg"
   xmlns:sodipodi="http://sodipodi.sourceforge.net/DTD/sodipodi-0.dtd"
   xmlns:inkscape="http://www.inkscape.org/namespaces/inkscape"
   width="105.74091"
   height="236.98924"
   id="svg2"
   version="1.1"
   inkscape:version="0.48.3.1 r9886"
   sodipodi:docname="Cross-body-hammer-curl-1.svg">
  <defs
     id="defs4" />
  <sodipodi:namedview
     id="base"
     pagecolor="#ffffff"
     bordercolor="#666666"
     borderopacity="1.0"
     inkscape:pageopacity="0.0"
     inkscape:pageshadow="2"
     inkscape:zoom="3.959798"
     inkscape:cx="-31.729841"
     inkscape:cy="182.75685"
     inkscape:document-units="px"
     inkscape:current-layer="layer1"
     showgrid="false"
     fit-margin-top="0"
     fit-margin-left="0"
     fit-margin-right="0"
     fit-margin-bottom="0"
     inkscape:window-width="1855"
     inkscape:window-height="1056"
     inkscape:window-x="65"
     inkscape:window-y="24"
     inkscape:window-maximized="1" />
  <metadata
     id="metadata7">
    <rdf:RDF>
      <cc:Work
         rdf:about="">
        <dc:format>image/svg+xml</dc:format>
        <dc:type
           rdf:resource="http://purl.org/dc/dcmitype/StillImage" />
        <dc:title></dc:title>
      </cc:Work>
    </rdf:RDF>
  </metadata>
  <g
     inkscape:label="Ebene 1"
     inkscape:groupmode="layer"
     id="layer1"
     transform="translate(-530.06975,-596.9268)">
    <path
       style="fill:#000000"
       d="m 558.61715,831.01484 c -1.70817,-1.59567 -3.10576,-3.87525 -3.10576,-5.06574 0,-1.19049 -0.46954,-3.04188 -1.04342,-4.11418 -1.42914,-2.67037 -2.08495,-8.14249 -1.93845,-16.1745 0.0682,-3.73847 -0.81768,-10.88429 -1.98353,-16 l -2.10676,-9.24437 2.10031,-7 c 1.15517,-3.85 2.69052,-11.18161 3.41188,-16.29247 0.72137,-5.11086 1.59247,-9.57336 1.93577,-9.91667 1.41107,-1.41106 1.58956,0.70665 0.46879,5.56208 -1.14043,4.94059 -0.27087,14.26666 1.84411,19.77819 0.41928,1.09263 0.26193,1.45639 -0.44182,1.02145 -0.60116,-0.37153 -1.38838,-2.02035 -1.7494,-3.66405 -1.00292,-4.56626 -2.10577,-3.61513 -4.02365,3.47009 -1.83712,6.78686 -1.74133,8.80097 1.0237,21.524 0.99619,4.58387 1.38448,9.23983 1.00231,12.01852 -0.48003,3.49025 -0.0332,6.17323 1.93816,11.63837 1.4091,3.90635 2.562,7.82514 2.562,8.70842 0,0.88328 1.0906,2.32055 2.42356,3.19394 3.06513,2.00835 10.07644,1.63131 10.07644,-0.54187 0,-1.16636 -1.16774,-1.45883 -5.25,-1.31491 -6.82332,0.24057 -6.8505,-1.38412 -0.0308,-1.84406 4.04148,-0.27256 5.55831,0.0441 6.72224,1.40349 1.75183,2.04598 4.05861,2.32069 4.05861,0.48332 0,-0.69968 -1.26664,-2.83718 -2.81475,-4.75 -1.54812,-1.91281 -4.50981,-6.54156 -6.58153,-10.2861 -4.94334,-8.93487 -5.85238,-18.10935 -2.68499,-27.09829 2.18872,-6.21149 2.91677,-15.82895 1.05753,-13.96971 -0.56306,0.56306 -1.44946,3.63946 -1.96978,6.83645 -1.18298,7.26851 -2.00648,8.24365 -2.00648,2.37595 0,-2.79591 0.93208,-6.33827 2.46388,-9.36397 1.35514,-2.67673 2.7652,-6.2387 3.13348,-7.91547 0.66296,-3.01843 1.60232,-5.3565 6.04927,-15.0567 1.2607,-2.75 2.57999,-6.85947 2.93175,-9.13216 0.62497,-4.03797 0.57984,-4.12074 -1.98014,-3.63137 -1.69511,0.32404 -2.82967,1.33744 -3.21466,2.87137 -0.73184,2.91589 -6.78977,8.39216 -9.28352,8.39216 -7.49838,0 -11.73875,-14.59179 -7.16662,-24.66147 2.26114,-4.97997 5.41752,-8.34264 7.81656,-8.32744 1.27908,0.008 0.87011,0.70452 -1.51982,2.58799 -4.68607,3.69302 -6.5616,7.92042 -6.61097,14.90092 -0.0731,10.33766 4.97978,15.95845 10.87415,12.09631 4.65026,-3.04697 6.00664,-6.37392 6.00664,-14.73316 0,-7.2072 -0.20162,-7.94153 -3,-10.92641 -1.65,-1.75997 -2.35238,-2.99985 -1.56085,-2.75529 3.17649,0.98143 5.46336,5.77609 5.88064,12.32932 0.42561,6.68416 1.24784,7.64779 4.4704,5.23923 1.47979,-1.106 2.40538,-3.7241 2.6355,-7.45469 0.0409,-0.66257 1.66519,-1.50314 3.6096,-1.86791 2.60164,-0.48807 3.96469,-1.49039 5.1612,-3.79531 0.93627,-1.80359 1.80949,-2.5883 2.05872,-1.85005 0.64961,1.9242 -2.54296,6.21796 -4.62328,6.21796 -2.23017,0 -5.13193,3.04016 -5.13193,5.37671 0,0.94557 1.10402,2.71014 2.45338,3.92126 3.19037,2.86352 7.54492,11.28169 7.55278,14.60097 0.003,1.43058 0.67839,3.89 1.5,5.46537 0.82161,1.57537 1.45831,4.05037 1.41489,5.5 -0.0434,1.44963 -0.30592,2.07319 -0.58333,1.38569 -0.27741,-0.6875 -0.98151,-1.25 -1.56465,-1.25 -1.71798,0 -0.0535,13.11176 2.3559,18.55866 1.90876,4.31506 2.059,5.82306 1.38391,13.89094 -0.41652,4.97772 -0.81481,10.8504 -0.88509,13.0504 l -0.12779,4 7.5,0.50849 c 4.125,0.27966 8.4,0.98916 9.5,1.57666 2.85771,1.52627 8.45984,1.67413 11.75268,0.31018 4.19612,-1.73808 3.19997,-3.27898 -3.77536,-5.8399 -1.66247,-0.61036 -5.67736,-4.07778 -8.92198,-7.70536 l -5.89931,-6.59562 -0.90843,-13.62722 c -0.49964,-7.49498 -0.9695,-14.75223 -1.04413,-16.12723 -0.0746,-1.375 0.18897,-5.65 0.58577,-9.5 0.91888,-8.91535 -0.13953,-10.94815 -3.60352,-6.92101 -2.46689,2.86792 -2.52124,2.87984 -4.59108,1.00666 -1.15205,-1.0426 -2.09464,-2.60101 -2.09464,-3.46314 0,-1.14286 0.42173,-0.96542 1.5567,0.65498 2.14467,3.06194 4.05272,2.78169 5.29346,-0.77749 0.57519,-1.65 1.51921,-3 2.09782,-3 1.14952,0 1.39281,-5.04607 0.46657,-9.67724 l -0.58545,-2.92724 -5.55547,2.80224 c -6.14323,3.09871 -8.60026,3.38163 -12.17298,1.40169 -2.20267,-1.22068 -1.91576,-1.32024 3.5,-1.21456 5.22488,0.10195 6.47412,-0.28729 10.92667,-3.40453 4.69607,-3.28772 4.95184,-3.68307 3.88175,-6 -3.18294,-6.89157 -5.66599,-15.92709 -5.50723,-20.04015 0.12886,-3.33855 -0.32354,-5.01187 -1.68913,-6.24771 -1.73028,-1.56589 -2.25376,-1.57251 -7.24049,-0.0916 -6.18665,1.83724 -18.55249,1.17692 -23.23731,-1.24084 -2.6368,-1.36081 -2.93232,-1.26461 -6.36959,2.07363 -2.34488,2.27732 -3.39045,4.05846 -2.99197,5.09686 0.33689,0.87793 1.0657,1.31614 1.61959,0.97383 1.34287,-0.82995 1.31508,13.49095 -0.0301,15.49563 -0.69212,1.03147 -0.80494,-0.99885 -0.36117,-6.5 0.54564,-6.76394 0.43313,-7.79874 -0.72817,-6.69742 -0.92353,0.87583 -1.37353,3.7262 -1.37353,8.70021 0,4.49073 -0.36068,7.03687 -0.91789,6.47953 -1.12336,-1.12362 -1.19287,-9.97834 -0.12298,-15.66852 1.08733,-5.783 -0.14919,-13.64671 -2.03224,-12.92412 -1.80163,0.69135 -1.78648,0.36965 0.19644,-4.1718 1.86894,-4.28039 2.73,-18.68917 1.27888,-21.4006 -0.65564,-1.22509 -0.62718,-1.81729 0.0874,-1.81729 0.58296,0 1.42591,1.0125 1.87322,2.25 1.0397,2.8764 0.56445,14.88489 -0.75408,19.05382 -0.72465,2.29118 -0.64844,4.57658 0.26917,8.07135 l 1.28005,4.87516 2.17104,-2.76002 c 2.84372,-3.61522 2.92472,-11.09262 0.17847,-16.47573 -1.52988,-2.99882 -1.70404,-4.08699 -0.75,-4.6863 1.94639,-1.2227 7.62571,-1.32636 8.35124,-0.15243 0.43399,0.70221 -0.73817,0.92651 -3.47699,0.66532 -2.27243,-0.21671 -4.13169,-0.32459 -4.13169,-0.23972 0,0.0849 0.675,1.7698 1.5,3.74431 0.825,1.9745 1.50689,5.29196 1.51531,7.37212 0.008,2.08017 0.34592,4.25767 0.75,4.83889 2.61647,3.76352 21.51962,5.2543 28.37634,2.23787 3.3096,-1.45597 3.67448,-2.01485 4.00172,-6.12939 0.32111,-4.03747 0.0689,-4.69936 -2.33079,-6.11689 -1.47998,-0.87425 -2.97347,-2.47993 -3.31888,-3.5682 -0.45875,-1.4454 -1.08153,-1.75889 -2.31085,-1.1632 -0.92557,0.44851 -2.24535,0.72942 -2.93285,0.62425 -0.6875,-0.10516 -1.925,-0.24746 -2.75,-0.31621 -3.19486,-0.26624 -1.29179,-1.62726 2.33196,-1.66774 9.01703,-0.10075 18.40688,-14.2359 13.49022,-20.30771 -1.00363,-1.23943 -2.7242,-2.39508 -3.82348,-2.56811 -2.34373,-0.3689 -9.13396,2.82433 -9.71547,4.56887 -0.2207,0.66209 -0.93721,0.87256 -1.59225,0.46772 -1.72254,-1.06459 -1.46604,-2.93756 0.30902,-2.2564 0.825,0.31658 1.5,0.11442 1.5,-0.44925 0,-1.57938 8.56742,-5.00889 10.65536,-4.26531 6.43935,2.29324 7.38124,9.93533 2.19041,17.77205 -1.73482,2.61911 -3.79329,5.00725 -4.57439,5.30698 -0.98002,0.37607 -1.21723,1.35351 -0.76538,3.15384 0.99775,3.97535 2.40524,5.12006 6.29545,5.12006 1.9561,0 5.05071,0.54029 6.8769,1.20065 4.23686,1.53207 4.90375,0.76603 5.71628,-6.5662 0.54557,-4.92316 0.41364,-5.77485 -0.82112,-5.30103 -0.91452,0.35093 -1.71613,-0.20742 -2.11868,-1.47574 -0.35615,-1.12214 -2.17919,-2.68022 -4.05119,-3.46239 -1.872,-0.78217 -3.40364,-1.68987 -3.40364,-2.01712 0,-1.22083 5.58177,0.84642 7.75,2.87027 1.96714,1.83617 2.25,1.88566 2.25,0.39376 0,-0.93854 -0.75108,-3.37948 -1.66908,-5.42432 -1.64698,-3.66867 -3.41337,-18.21815 -2.21176,-18.21797 0.72042,10e-5 1.85385,6.23748 1.86983,10.28993 0.006,1.53441 0.9699,4.66942 2.14188,6.96669 1.87791,3.68101 2.05303,5.18952 1.47518,12.70721 -0.83242,10.8294 -2.46024,12.99574 -8.42287,11.20929 -7.08591,-2.12299 -7.54296,-1.85862 -6.85334,3.96412 0.33463,2.82543 1.35666,5.96394 2.27118,6.97447 1.23009,1.35924 1.50128,2.8472 1.04217,5.71827 -0.46246,2.89209 0.0135,5.44148 1.86811,10.00565 1.36879,3.3686 2.4887,7.00152 2.4887,8.07316 0,1.07164 0.675,2.62344 1.5,3.44844 1.8418,1.8418 1.91058,3.28967 0.20633,4.34317 -1.01028,0.62451 -1.10787,2.88071 -0.44548,10.29969 0.4665,5.225 0.78018,11.075 0.69706,13 -0.31613,7.32133 -0.10053,15.9557 0.72453,29.01677 l 0.85384,13.51676 6.76646,6.73324 c 4.43745,4.41565 7.56171,6.73323 9.07688,6.73323 2.7962,0 5.88588,3.14455 5.10053,5.19113 -0.31244,0.81421 -2.14307,2.23144 -4.06808,3.14941 -3.81727,1.82033 -9.81596,1.43666 -14.51309,-0.92826 -1.43056,-0.72025 -5.07232,-1.22017 -8.09281,-1.11092 -9.03439,0.32678 -10.38592,-2.41622 -7.21669,-14.64669 1.87703,-7.24369 1.34242,-11.97478 -2.20057,-19.47402 -2.18904,-4.63341 -2.48522,-6.50321 -2.29677,-14.5 0.25033,-10.62294 -1.37107,-18.51217 -4.96961,-24.18065 -1.39664,-2.2 -2.60615,-4.12309 -2.68781,-4.27354 -0.0816,-0.15044 -0.82764,-0.0129 -1.65775,0.30563 -1.01535,0.38963 -1.68493,2.51631 -2.04602,6.49838 -0.31195,3.44031 -1.41451,7.33948 -2.63272,9.31059 -3.68101,5.956 -6.09823,15.33717 -6.09823,23.66709 0,5.0093 -0.58827,9.11616 -1.66442,11.61973 -1.1116,2.58604 -1.69284,6.86137 -1.75,12.87212 -0.0835,8.78244 0.01,9.15713 3.86495,15.5 2.1728,3.575 4.45428,6.95 5.06997,7.5 2.22374,1.98648 4.61988,6.69178 4.099,8.04919 -0.79461,2.07071 -7.28433,4.45081 -12.13587,4.45081 -3.33414,0 -4.95402,-0.63699 -7.37787,-2.90121 z m -2.10576,-19.38613 c 0,-1.21252 3.27469,-6.71266 3.9966,-6.71266 0.98792,0 -1.67005,5.68015 -3.05992,6.53914 -0.51518,0.31839 -0.93668,0.39647 -0.93668,0.17352 z m 40.60699,-10.29445 c -0.86706,-2.25952 -0.74939,-4.41821 0.24083,-4.41821 0.4663,0 0.8862,1.35 0.93312,3 0.0951,3.34467 -0.26689,3.78197 -1.17395,1.41821 z m -33.60699,-41.41821 c 0,-0.55 0.675,-1 1.5,-1 0.825,0 1.5,0.45 1.5,1 0,0.55 -0.675,1 -1.5,1 -0.825,0 -1.5,-0.45 -1.5,-1 z m -2.7794,-7.94089 c 0.21071,-1.84078 1.11518,-2.65637 3.67879,-3.31731 3.54824,-0.91478 5.0869,0.077 5.05489,3.2582 -0.0124,1.22803 -0.19047,1.19956 -0.98233,-0.157 -1.13246,-1.94004 -4.7728,-1.35742 -6.75135,1.08053 -1.11303,1.37147 -1.24307,1.25906 -1,-0.86442 z m -26.65583,-13.58373 c -3.35065,-3.6154 -4.8319,-10.32118 -3.54667,-16.05612 1.24888,-5.5728 3.35181,-9.83599 5.72619,-11.60856 1.52346,-1.13732 1.75486,-3.0965 1.74927,-14.8107 -0.004,-9.30354 -0.41521,-14.22046 -1.32143,-15.81772 -1.63098,-2.87467 -1.70187,-11.50124 -0.14213,-17.29369 0.64507,-2.39561 1.24122,-6.76583 1.32479,-9.7116 0.13154,-4.63699 0.55418,-5.68978 3.14857,-7.84296 1.64815,-1.36786 5.20176,-4.5901 7.89691,-7.16053 2.69516,-2.57042 6.29516,-5.34968 8,-6.17612 2.53245,-1.22762 3.26553,-2.36001 4.00566,-6.18754 0.72237,-3.73565 0.58034,-5.18185 -0.70096,-7.13736 -2.51474,-3.83798 -3.21577,-11.78402 -1.35679,-15.37889 3.04163,-5.88187 13.09634,-8.1492 19.31719,-4.35602 2.65041,1.6161 3.35142,2.87628 4.30905,7.74626 0.62903,3.1989 1.29059,6.28121 1.47014,6.84958 0.53098,1.68091 -1.59748,12.85624 -2.71366,14.24785 -1.34211,1.67328 1.32399,3.67428 7.04486,5.28743 2.35167,0.66311 4.48962,1.55168 4.751,1.9746 0.26138,0.42292 1.27223,0.56053 2.24634,0.3058 1.06703,-0.27904 2.75615,0.60392 4.249,2.22111 l 2.4779,2.68426 -3,-1.49002 c -1.65,-0.81952 -3.53506,-1.29842 -4.18902,-1.06423 -0.65396,0.23419 -2.22896,-0.2274 -3.5,-1.02575 -1.27104,-0.79836 -3.88598,-1.96563 -5.81098,-2.59395 -1.925,-0.62831 -4.31948,-1.76396 -5.32108,-2.52366 -1.75371,-1.33018 -1.75485,-1.50475 -0.0309,-4.71906 1.32705,-2.47437 1.78258,-5.53657 1.76096,-11.83779 -0.0413,-12.03542 -2.52661,-16 -10.03007,-16 -5.90325,0 -10.20747,2.34544 -11.94775,6.51052 -1.39857,3.34724 -1.0621,6.48948 0.69488,6.48948 0.50164,0 0.64245,1.07424 0.31292,2.3872 -0.44098,1.75698 -0.0196,2.79312 1.59612,3.92482 1.2074,0.84569 3.00861,2.87506 4.0027,4.50971 1.11717,1.83703 3.26913,3.43949 5.63483,4.19598 4.68076,1.49678 6.51212,2.98229 3.67661,2.98229 -4.26904,0 -8.34181,-2.25192 -10.5593,-5.83845 l -2.26387,-3.66155 -0.68836,4.80757 c -0.71229,4.9747 -2.21875,7.69243 -4.26397,7.69243 -1.48073,0 -7.80594,6.43444 -7.05924,7.18115 0.30231,0.3023 -0.7557,1.09034 -2.35113,1.75119 -1.59543,0.66085 -4.37351,2.72101 -6.17351,4.57814 -3.1692,3.26979 -3.25618,3.58275 -2.7496,9.89362 0.3464,4.3154 0.16505,6.44589 -0.53681,6.30646 -1.36275,-0.27072 -2.92597,7.82427 -2.31506,11.98835 0.25812,1.7594 1.21508,4.77051 2.12658,6.69136 1.39326,2.93606 1.49623,4.57716 0.64635,10.30109 -0.64255,4.32754 -0.67329,8.63066 -0.0844,11.80864 0.50961,2.75 1.37504,8.825 1.92318,13.5 2.11999,18.08131 2.23451,18.39692 7.02231,19.35449 1.63766,0.32753 2.97757,1.09251 2.97757,1.69997 0,1.24727 -5.73262,0.33149 -7.66896,-1.22512 -1.48338,-1.19247 -3.83799,-14.14688 -3.45785,-19.02413 0.15839,-2.03213 -0.14496,-4.46841 -0.67411,-5.41395 -0.8754,-1.56427 -1.19175,-1.4895 -3.51109,0.82984 -7.1637,7.1637 -5.34691,24.63955 2.66091,25.59532 3.38963,0.40457 3.47383,2.18358 0.10335,2.18358 -1.43971,0 -3.56532,-1.09798 -4.88748,-2.52462 z m 10.51418,-20.05871 c 0.048,-1.16495 0.28494,-1.4019 0.60416,-0.60417 0.28888,0.72187 0.25335,1.58437 -0.0789,1.91667 -0.33229,0.33229 -0.56864,-0.25834 -0.52522,-1.3125 z m 5.15305,-3.41667 c 0,-1.925 0.2058,-2.7125 0.45733,-1.75 0.25152,0.9625 0.25152,2.5375 0,3.5 -0.25153,0.9625 -0.45733,0.175 -0.45733,-1.75 z m 23.75632,0.0389 c 1.91857,-0.4861 6.64357,-1.19516 10.5,-1.57567 3.85642,-0.38052 7.79918,-1.10625 8.76168,-1.61274 1.11207,-0.5852 1.75,-0.55759 1.75,0.0757 0,1.46882 -6.36408,2.8435 -16,3.45611 -5.94091,0.37769 -7.44977,0.27429 -5.01168,-0.34344 z m 4.86402,-3.75058 c 1.29379,-0.9836 4.66879,-2.77989 7.5,-3.99176 6.2104,-2.65829 3.70061,-2.97584 -5.90785,-0.74749 -3.67379,0.852 -6.89609,1.33262 -7.16069,1.06803 -0.68558,-0.68559 9.05042,-3.45994 14.83462,-4.22724 4.1351,-0.54854 4.88158,-0.3947 4.88158,1.00602 0,0.90947 -1.0125,2.04919 -2.25,2.53271 -1.2375,0.48352 -4.5,1.91537 -7.25,3.18187 -6.74147,3.10477 -7.40266,3.27234 -4.64766,1.17786 z m -17.85234,-3.24744 c 0,-0.43903 1.31747,-1.34395 2.92771,-2.01093 5.99009,-2.48118 7.76209,-7.09329 3.18513,-8.29019 -1.64045,-0.42899 -2.30504,0.14978 -3.28552,2.86124 -1.11747,3.0903 -2.82732,4.63404 -2.82732,2.55264 0,-1.39603 3.09402,-7.1564 3.82324,-7.11802 0.37222,0.0196 3.15176,0.6264 6.17676,1.34846 3.025,0.72206 6.175,1.22066 7,1.108 0.825,-0.11266 3.94034,-0.52029 6.92297,-0.90585 2.98264,-0.38555 6.35764,-1.17775 7.5,-1.76043 1.84108,-0.93908 1.90663,-0.89068 0.57703,0.42604 -2.38563,2.36251 -7.79177,3.74816 -14.62354,3.74816 -5.92798,0 -6.41673,0.1772 -7.78457,2.8223 -1.3654,2.6404 -9.59189,7.11611 -9.59189,5.21858 z m 16.65266,-17.09946 c -1.45896,-1.14762 -2.65266,-2.76353 -2.65266,-3.59092 0,-0.99372 1.05965,-0.44469 3.12179,1.61745 3.66774,3.66774 3.35536,4.98182 -0.46913,1.97347 z m 8.34734,-4.31898 c 0,-0.20765 0.6853,-0.9463 1.52289,-1.64144 1.27335,-1.05678 1.41968,-0.99492 0.89301,0.37756 -0.53789,1.40173 -2.4159,2.38422 -2.4159,1.26388 z m -10.5,-2.62244 c -0.33992,-0.55 -0.14148,-1 0.44098,-1 0.58246,0 1.05902,0.45 1.05902,1 0,0.55 -0.19844,1 -0.44098,1 -0.24254,0 -0.7191,-0.45 -1.05902,-1 z m -11.0573,-3.41824 c -2.90688,-2.12556 -1.08044,-2.96291 2.46437,-1.12982 1.70111,0.87968 3.09293,1.81286 3.09293,2.07374 0,1.02825 -3.7256,0.39545 -5.5573,-0.94392 z m 10.7653,0.16824 c -0.80505,-0.9705 0.20517,-1.30459 4.51805,-1.49416 3.05522,-0.13428 6.16672,-0.75188 6.91445,-1.37244 0.97622,-0.81019 1.3595,-0.81721 1.3595,-0.0249 0,0.60687 -1.2375,1.36811 -2.75,1.69166 -1.5125,0.32354 -3.78367,1.00711 -5.04705,1.51905 -3.01863,1.22318 -3.75453,1.17615 -4.99495,-0.31921 z m -35.458,-3.32073 c -0.4125,-0.41943 -0.75,-2.1276 -0.75,-3.79594 0,-2.16885 0.30727,-2.72606 1.07818,-1.95515 0.59299,0.593 0.9305,2.30117 0.75,3.79594 -0.1805,1.49477 -0.66568,2.37459 -1.07818,1.95515 z m 29.25,-0.42927 c 0,-0.55 1.15156,-1 2.55902,-1 1.45136,0 2.2915,0.43284 1.94098,1 -0.33992,0.55 -1.49148,1 -2.55902,1 -1.06754,0 -1.94098,-0.45 -1.94098,-1 z m 4.25,-4.09918 c -1.2375,-0.46 -2.25,-1.39087 -2.25,-2.0686 0,-0.95839 0.26667,-0.96555 1.2,-0.0322 2.1213,2.1213 3.89697,1.43454 3.22397,-1.24689 -0.66365,-2.64421 1.19716,-9.55313 2.57297,-9.55313 0.46302,0 0.39883,1.60446 -0.14263,3.56546 -0.54145,1.961 -0.70696,4.82894 -0.36778,6.37321 0.70931,3.22949 -0.75779,4.25528 -4.23653,2.96215 z m -13.5,-4.29287 c -0.9625,-0.73064 -1.73569,-1.95383 -1.7182,-2.71819 0.0222,-0.97151 0.45828,-0.82661 1.44889,0.48147 1.01141,1.33555 2.12988,1.69234 3.90692,1.24634 1.3694,-0.3437 2.73734,-0.22442 3.03986,0.26507 0.30252,0.48949 -0.4574,1.16 -1.68872,1.49002 -2.9307,0.78549 -2.95065,0.78243 -4.98875,-0.76471 z m -13.75,-4.39948 c 0,-1.04177 2.16097,-3.20847 3.2,-3.20847 1.4734,0 0.82042,1.50615 -1.2,2.76793 -1.1,0.68696 -2,0.88521 -2,0.44054 z m 16.5618,-3.10847 c -0.30592,-0.495 0.98768,-0.9 2.87467,-0.9 1.887,0 4.02325,-0.35638 4.74722,-0.79196 1.01922,-0.61321 1.00655,-0.41008 -0.0561,0.9 -1.44616,1.78284 -6.61872,2.32429 -7.56575,0.79196 z m 10.82014,0.091 c 0.27499,-0.44494 -0.82346,-2.05808 -2.44098,-3.58477 -3.77848,-3.56628 -3.70625,-5.47217 0.35665,-9.41009 3.50485,-3.39704 5.55582,-3.94274 7.50239,-1.99617 0.93333,0.93333 1.2,0.50476 1.2,-1.92857 0,-4.11884 -2.3144,-6.27143 -6.74285,-6.27143 -2.95678,0 -4.36402,0.7974 -7.87632,4.46303 -4.38155,4.57284 -6.06213,9.19264 -5.12583,14.09056 0.30419,1.5913 0.0689,2.38955 -0.63609,2.15772 -3.30059,-1.08543 -1.14453,-10.90413 3.57464,-16.27897 5.31051,-6.04834 10.85424,-7.84536 15.98725,-5.18232 2.09184,1.08526 2.40347,1.94188 2.36431,6.49901 -0.0248,2.88694 0.29239,5.24944 0.70489,5.24998 0.4125,5.4e-4 0.75,0.67599 0.75,1.50099 0,1.99853 -0.63184,1.89834 -4.24256,-0.67272 -2.78511,-1.98317 -3.27839,-2.04569 -5.65437,-0.71658 -2.68128,1.49988 -4.19641,5.8893 -2.03286,5.8893 0.66512,0 1.77272,0.77051 2.46134,1.71225 1.05413,1.44161 1.50421,1.50296 2.8475,0.38813 1.79163,-1.48692 5.11294,-0.70545 4.08318,0.96073 -0.36549,0.59138 -1.27098,0.84252 -2.01219,0.55809 -0.76073,-0.29192 -1.61706,0.33167 -1.96624,1.43183 -0.34021,1.07193 -1.28981,1.94897 -2.1102,1.94897 -0.8204,0 -1.26665,-0.36404 -0.99166,-0.80898 z m -19.38194,-6.9571 c 0,-1.81538 3.27294,-8.23393 4.19863,-8.23393 0.45552,0 0.1237,1.6875 -0.73737,3.75 -1.71963,4.11899 -3.46126,6.3752 -3.46126,4.48393 z m 31.10027,-14.61311 c -0.91691,-1.10481 -0.59312,-1.48513 1.62755,-1.9117 3.29214,-0.63239 3.512,-0.49765 2.68873,1.64775 -0.76891,2.00376 -2.77077,2.12617 -4.31628,0.26395 z m -23.28777,-1.30393 c 0.72187,-0.28888 1.58438,-0.25335 1.91667,0.079 0.33229,0.33229 -0.25834,0.56864 -1.3125,0.52522 -1.16495,-0.048 -1.4019,-0.28494 -0.60417,-0.60417 z m 5.4792,-5.35506 c -0.61489,-1.629 -0.71563,-2.96183 -0.22389,-2.96183 0.94125,0 2.47073,4.79479 1.75712,5.50841 -0.2284,0.22839 -0.91835,-0.91757 -1.53323,-2.54658 z"
       id="path3397"
       inkscape:connector-curvature="0" />
  </g>
</svg>
