<?xml version="1.0" encoding="UTF-8" standalone="no"?>
<!-- Created with Inkscape (http://www.inkscape.org/) -->

<svg
   xmlns:dc="http://purl.org/dc/elements/1.1/"
   xmlns:cc="http://creativecommons.org/ns#"
   xmlns:rdf="http://www.w3.org/1999/02/22-rdf-syntax-ns#"
   xmlns:svg="http://www.w3.org/2000/svg"
   xmlns="http://www.w3.org/2000/svg"
   xmlns:xlink="http://www.w3.org/1999/xlink"
   xmlns:sodipodi="http://sodipodi.sourceforge.net/DTD/sodipodi-0.dtd"
   xmlns:inkscape="http://www.inkscape.org/namespaces/inkscape"
   width="219.57726"
   height="108.78182"
   id="svg2"
   version="1.1"
   inkscape:version="0.48.3.1 r9886"
   sodipodi:docname="Cross-body-crunch-1.svg"
   inkscape:export-filename="/home/christian/Dokumente/Website/opentraining/cc_exercises/svg/Crunches-1.png"
   inkscape:export-xdpi="90.051376"
   inkscape:export-ydpi="90.051376">
  <defs
     id="defs4">
    <radialGradient
       gradientUnits="userSpaceOnUse"
       gradientTransform="matrix(1,0,0,0.91819829,-19.285714,-7.9105395)"
       r="209.56604"
       fy="287.50052"
       fx="398.1105"
       cy="287.50052"
       cx="398.1105"
       id="radialGradient5255"
       xlink:href="#linearGradient5249"
       inkscape:collect="always" />
    <linearGradient
       id="linearGradient5249"
       inkscape:collect="always">
      <stop
         id="stop5251"
         offset="0"
         style="stop-color:#e3e3e3;stop-opacity:1;" />
      <stop
         id="stop5253"
         offset="1"
         style="stop-color:#e3e3e3;stop-opacity:0;" />
    </linearGradient>
  </defs>
  <sodipodi:namedview
     id="base"
     pagecolor="#ffffff"
     bordercolor="#666666"
     borderopacity="1.0"
     inkscape:pageopacity="0.0"
     inkscape:pageshadow="2"
     inkscape:zoom="1.979899"
     inkscape:cx="0.056890175"
     inkscape:cy="-76.299888"
     inkscape:document-units="px"
     inkscape:current-layer="layer1"
     showgrid="false"
     showguides="true"
     inkscape:guide-bbox="true"
     fit-margin-top="0"
     fit-margin-left="0"
     fit-margin-right="0"
     fit-margin-bottom="0"
     inkscape:window-width="694"
     inkscape:window-height="827"
     inkscape:window-x="179"
     inkscape:window-y="174"
     inkscape:window-maximized="0">
    <sodipodi:guide
       orientation="-0.70710678,0.70710678"
       position="-2059.4951,684.99656"
       id="guide2985" />
  </sodipodi:namedview>
  <metadata
     id="metadata7">
    <rdf:RDF>
      <cc:Work
         rdf:about="">
        <dc:format>image/svg+xml</dc:format>
        <dc:type
           rdf:resource="http://purl.org/dc/dcmitype/StillImage" />
        <dc:title></dc:title>
      </cc:Work>
    </rdf:RDF>
  </metadata>
  <g
     inkscape:label="Ebene 1"
     inkscape:groupmode="layer"
     id="layer1"
     transform="translate(-630.92363,-602.86263)">
    <path
       style="fill:#000000"
       d="m 678.98523,711.05565 c -2.475,-0.44416 -7.45007,-0.79641 -11.0557,-0.78278 -8.24735,0.0312 -12.80637,-2.6249 -14.71741,-8.57434 -0.70021,-2.17989 -1.47341,-4.52548 -1.71822,-5.21242 -0.34077,-0.95617 -1.25596,-0.86231 -3.90389,0.4004 -2.98266,1.42234 -4.08137,1.47506 -7.98172,0.38303 -7.43162,-2.08072 -7.56315,-2.45355 -6.71537,-19.03445 0.77366,-15.1312 1.53942,-17.9364 5.62749,-20.61501 2.27453,-1.49033 2.66135,-1.48624 5.0104,0.0529 3.14929,2.06349 5.96923,1.28129 8.16116,-2.26375 2.88043,-4.65857 7.61613,-9.17416 9.62135,-9.17416 2.99752,0 8.68071,6.75866 12.34781,14.68446 1.82826,3.95145 3.3241,7.88895 3.3241,8.75 0,1.86804 -1.62288,2.08709 -2.33772,0.31554 -0.27741,-0.6875 -0.51491,0.325 -0.52778,2.25 l -0.0234,3.5 2.19445,-2.99486 c 1.20694,-1.64717 3.84889,-4.70456 5.87098,-6.79419 3.51104,-3.62829 3.89367,-3.77163 8.5,-3.18409 3.25165,0.41475 6.24937,0.10328 9.19919,-0.95581 6.43159,-2.30918 10.25104,-1.98538 14.72423,1.24828 2.14502,1.55062 5.42397,3.34863 7.28656,3.99557 1.86258,0.64693 3.88758,1.83135 4.5,2.63204 1.57144,2.05455 13.61348,0.97382 13.61348,-1.22175 0,-1.18798 0.88512,-1.37572 4.28742,-0.90938 3.79663,0.52038 4.65517,0.24396 7.5,-2.41476 1.76692,-1.65133 3.21258,-3.7123 3.21258,-4.57992 0,-0.86763 2.04898,-3.65732 4.55329,-6.19932 2.50431,-2.542 6.66681,-7.87542 9.25,-11.85205 5.48762,-8.44778 19.22101,-21.26976 22.78167,-21.26976 1.27413,0 4.60144,0.49001 7.39403,1.08891 4.65645,0.99863 5.27234,1.47537 7.42822,5.75 1.29293,2.5636 2.67702,6.61638 3.07575,9.00619 0.39874,2.3898 3.08702,11.61481 5.97397,20.5 l 5.24901,16.1549 5.31435,3.62012 c 2.92289,1.99107 7.68847,4.3685 10.59017,5.28318 3.65729,1.15286 5.48426,2.31976 5.95523,3.80368 0.74747,2.35505 -1.63049,4.79302 -4.67503,4.79302 -4.96597,0 -4.93458,1.30414 0.10061,4.17985 4.3468,2.48256 5.01189,3.2489 4.44346,5.11985 -0.36767,1.21017 -1.8534,3.20226 -3.30161,4.42687 -2.53442,2.14312 -3.28153,2.21541 -19.93179,1.9286 -17.02269,-0.29322 -17.33932,-0.33861 -19.84625,-2.84555 l -2.54758,-2.54758 2.19697,-7.38102 c 3.85132,-12.93901 3.76804,-14.38283 -1.42621,-24.72519 -2.52908,-5.03571 -4.97259,-9.15583 -5.43001,-9.15583 -1.41466,0 -3.18423,7.57008 -2.53195,10.83148 0.81762,4.08814 -2.6276,9.94764 -11.70213,19.90247 -3.80279,4.1717 -6.91417,7.90858 -6.91417,8.30416 0,0.39559 -1.2375,1.20792 -2.75,1.80518 -2.44092,0.96387 -6.63871,1.17768 -23.25,1.18423 -2.475,9.8e-4 -10.35,0.11804 -17.5,0.26013 -12.79155,0.25422 -13.08155,0.31086 -18.08569,3.53269 -4.37887,2.81926 -6.45448,3.41437 -14.93436,4.28192 -5.41677,0.55418 -10.10321,1.1242 -10.41431,1.26673 -0.3111,0.14252 -2.59064,-0.10427 -5.06564,-0.54843 z m 14.68782,-3.76394 c 7.82334,-0.75714 10.17777,-1.4428 15.85363,-4.61692 l 6.6658,-3.72773 9.50925,0.62464 9.50925,0.62464 -0.58734,-2.73063 c -0.32304,-1.50184 -0.89259,-7.56812 -1.26567,-13.48062 l -0.67832,-10.75 -3.72476,0 c -2.04863,0 -4.26587,-0.65198 -4.92721,-1.44885 -0.66134,-0.79686 -2.85394,-1.99013 -4.87244,-2.65171 -2.01851,-0.66157 -5.12049,-2.30383 -6.8933,-3.64946 -2.79904,-2.12459 -3.91781,-2.36788 -8.5,-1.84847 -2.90219,0.32897 -7.52671,0.75884 -10.27671,0.95525 -8.10962,0.57923 -9.92842,1.80948 -14.15891,9.57717 -2.1126,3.87898 -4.19442,7.0557 -4.62627,7.05938 -0.43186,0.004 -0.30352,-0.89331 0.28518,-1.99331 0.83559,-1.56131 0.76049,-2 -0.34237,-2 -0.77701,0 -1.97294,0.675 -2.65763,1.5 -1.79628,2.16439 -3.25891,1.8523 -2.03518,-0.43426 2.20166,-4.11385 1.19856,-7.03279 -4.30979,-12.54115 -5.92186,-5.92185 -11.43565,-8.24755 -15.0136,-6.33269 -2.05507,1.09984 -2.05165,1.12299 0.39272,2.65796 5.02259,3.154 11.77699,11.46411 16.31773,20.07612 3.27302,6.20763 5.34378,9.03188 6.91074,9.42535 3.34539,0.84004 6.13746,3.19231 5.3334,4.4933 -0.5205,0.84219 -1.46685,0.7564 -3.55228,-0.32201 -2.714,-1.40347 -2.81803,-1.37551 -2.29694,0.61715 0.48103,1.83944 0.30262,1.95705 -1.50294,0.99074 -1.23777,-0.66243 -2.88232,-3.57721 -4.15456,-7.36348 -3.15124,-9.37827 -10.0991,-18.88636 -18.00024,-24.63316 -9.43656,-6.86358 -10.76729,-7.14821 -12.62566,-2.70053 -0.83567,2.00005 -1.67769,7.88216 -1.9073,13.3238 -0.2261,5.35857 -0.69027,10.64286 -1.03148,11.74286 -0.86756,2.7968 1.43543,5.50032 6.03135,7.08032 3.36279,1.15607 4.23143,1.13378 6.20484,-0.15925 l 2.29466,-1.50352 -3.16371,-2.66208 c -3.1017,-2.60991 -5.89176,-7.68798 -5.89176,-10.72335 0,-2.9184 1.5683,-1.51295 3.03083,2.71612 1.19535,3.45646 2.39249,4.74651 6.42319,6.92164 4.21528,2.27474 5.00365,3.16971 5.28686,6.00175 0.53256,5.32549 2.33177,8.81458 5.35031,10.37553 4.06837,2.10383 11.76087,1.84042 15.65881,-0.5362 3.30036,-2.01227 4.66254,-0.8235 2.05,1.78904 -1.47952,1.47952 2.57513,1.54501 15.88782,0.25662 z m 2.02812,-11.3117 c -3.32092,-2.76429 -4.72844,-3.21682 -11.5,-3.69736 -9.10351,-0.64603 -8.25938,-1.90877 1.84213,-2.75565 6.99789,-0.58668 7.05858,-0.61682 6.77057,-3.36255 -0.23386,-2.22955 0.64172,-3.59124 4.48381,-6.97319 2.62594,-2.31144 5.02411,-3.95295 5.32927,-3.64779 0.85517,0.85518 -2.87197,5.42933 -5.37201,6.59283 -1.35218,0.62929 -2.01087,1.60974 -1.67299,2.49023 0.30651,0.79875 0.0568,2.38744 -0.5549,3.53042 -0.6117,1.14298 -0.74664,2.07814 -0.29987,2.07814 0.44678,0 2.3434,1.39842 4.2147,3.10759 3.04163,2.7781 3.83397,3.03421 7.47287,2.41551 2.23876,-0.38065 5.64548,-0.93239 7.57048,-1.2261 1.925,-0.2937 4.07337,-0.99481 4.77417,-1.55801 0.70079,-0.56319 1.60008,-0.69807 1.99842,-0.29973 0.90037,0.90037 -2.59954,3.55538 -4.71372,3.5758 -0.85738,0.008 -3.35887,0.66353 -5.55887,1.4561 -6.44377,2.32145 -10.48873,1.84915 -14.78406,-1.72624 z m 4.28406,-7.04492 c 0,-1.265 -0.5625,-2.88368 -1.25,-3.59706 -1.01094,-1.04901 -0.86751,-1.22913 0.75,-0.94182 1.42998,0.25401 2.08931,1.27921 2.31336,3.59707 0.1759,1.81977 -0.15309,3.24181 -0.75,3.24181 -0.58485,0 -1.06336,-1.035 -1.06336,-2.3 z m 11.0318,-0.29501 c 0.0175,-1.04775 0.6925,-2.7785 1.5,-3.84612 2.17132,-2.87074 1.81545,-7.24304 -0.7818,-9.60529 -1.2375,-1.12553 -3.0375,-2.77926 -4,-3.67496 -2.02288,-1.88249 -2.41875,-6.66313 -0.5,-6.03811 0.6875,0.22395 1.82679,1.59002 2.53175,3.03573 0.70496,1.4457 2.30949,3.43747 3.56563,4.42615 5.06913,3.98984 4.97397,11.07997 -0.21075,15.7026 -2.10111,1.87331 -2.1361,1.87331 -2.10483,0 z m -7.99853,-3.70465 c -0.0445,-1.0688 2.89086,-6.70034 3.49241,-6.70034 0.26088,0 0.47432,0.62515 0.47432,1.38922 0,1.4601 -3.90919,6.69418 -3.96673,5.31112 z m 5.64816,-2.33689 c 0.95014,-1.45011 1.90306,-2.10998 2.11759,-1.46638 0.43828,1.31482 -1.56265,4.10293 -2.94452,4.10293 -0.49533,0 -0.12321,-1.18645 0.82693,-2.63655 z m -24.68143,-0.37506 c 0,-1.38662 6.31889,-10.94812 7.25,-10.97042 1.68904,-0.0405 0.54456,2.96348 -2.79581,7.33823 -3.61892,4.73956 -4.45419,5.42068 -4.45419,3.63219 z m 36,-0.8771 c 0,-1.10121 6.67031,-2.43308 8.01701,-1.60078 2.2495,1.39027 0.69659,2.48949 -3.51701,2.48949 -2.475,0 -4.5,-0.39992 -4.5,-0.88871 z m -21.22319,-12.36129 c 1.46407,-2.93953 3.22319,-3.66638 3.22319,-1.33179 0,0.78002 0.24882,2.06664 0.55294,2.85916 0.40665,1.05971 -0.20093,1.41207 -2.29643,1.33179 -2.76702,-0.10601 -2.80979,-0.18865 -1.4797,-2.85916 z m 136.75531,34.80103 c 1.90733,-0.79694 3.46595,-2.03444 3.46359,-2.75 -0.002,-0.71557 -3.26486,-2.98563 -7.25,-5.04458 -6.065,-3.13353 -8.07847,-4.86879 -12.35615,-10.64889 -4.51732,-6.10392 -5.43341,-8.22274 -7.89327,-18.25645 -1.53056,-6.24311 -3.41064,-12.59968 -4.17796,-14.12571 -0.76733,-1.52603 -2.29033,-7.15103 -3.38447,-12.5 -2.30223,-11.25512 -5.2479,-15.2254 -11.29617,-15.2254 -5.07186,0 -15.56169,9.31165 -22.93032,20.35487 l -5.90845,8.85488 3.85054,4.02322 c 3.5086,3.66594 14.74117,11.76703 16.31559,11.76703 1.29747,0 5.36772,-13.63854 5.94497,-19.92035 0.76705,-8.34728 3.08998,-9.63763 3.08998,-1.71643 0,4.5456 0.99506,7.77098 5.59039,18.12061 6.18525,13.93048 6.42887,16.25571 3.0401,29.01617 -2.10221,7.9159 -1.07215,8.87287 8.86951,8.24008 3.85,-0.24505 9.475,-0.12518 12.5,0.26639 8.49654,1.09981 8.83971,1.08734 12.53212,-0.45544 z m -93.42465,-4.55103 c 0.51914,0 0.30282,-1.23969 -0.48071,-2.75488 -1.52763,-2.9541 -1.90018,-5.89154 -1.73272,-13.66179 0.14592,-6.77071 1.28773,-5.03868 1.66451,2.52494 0.16964,3.40532 0.72089,6.46154 1.225,6.79161 0.50411,0.33007 1.35518,1.93855 1.89127,3.57442 1.20936,3.69032 5.22179,4.78205 13.82518,3.76163 3.3,-0.3914 6.57122,-0.65315 7.26939,-0.58166 1.59529,0.16334 14.96132,-15.01086 17.9915,-20.4254 l 2.26088,-4.03992 -4.5353,-2.1955 c -2.49441,-1.20752 -8.07158,-5.52218 -12.39371,-9.58813 -8.57192,-8.06385 -8.64639,-8.0697 -11.5175,-0.90532 -1.91324,4.77416 -6.93592,8.5 -11.45857,8.5 -1.79275,0 -3.96949,0.70994 -4.83719,1.57765 -0.86771,0.8677 -2.39491,1.36393 -3.39379,1.10271 -2.52031,-0.65907 -3.04458,1.68099 -2.33755,10.43367 0.32814,4.06228 0.57084,8.28597 0.53933,9.38597 -0.099,3.45511 2.06701,7.65469 3.63722,7.05215 0.79137,-0.30368 1.86362,-0.55215 2.38276,-0.55215 z m 96.39786,-11.00862 c 0.26447,-0.42792 -0.75354,-1.08439 -2.26224,-1.45884 -1.5087,-0.37444 -3.64309,-1.50396 -4.74309,-2.51004 -1.1,-1.00608 -4.47293,-3.15392 -7.4954,-4.77298 -6.13755,-3.28773 -5.28709,-1.6297 -12.1556,-23.69831 -2.38773,-7.67184 -4.49188,-13.16709 -4.67587,-12.21168 -0.184,0.95542 0.99942,5.43238 2.62981,9.9488 1.63039,4.51642 3.51807,10.91167 4.19483,14.21167 1.49941,7.3113 3.12553,10.59571 8.26565,16.69485 2.91796,3.46237 4.78094,4.77495 7.09661,5 4.01794,0.39047 8.5269,-0.20288 9.1453,-1.20347 z M 673.27095,666.48509 c -0.35832,-0.9625 -1.45764,-3.1 -2.44293,-4.75 -0.98529,-1.65 -2.69696,-4.65776 -3.80372,-6.68392 -4.00486,-7.33172 -7.79315,-7.97831 -11.32851,-1.93356 l -1.78943,3.05958 2.78943,0.59004 c 5.19353,1.09857 9.27797,3.42198 13.04058,7.41807 4.31616,4.58397 4.40695,4.64305 3.53458,2.29979 z M 804.80432,630.4532 c -1.2755,-2.54557 -2.99409,-4.81265 -3.81909,-5.03796 -1.121,-0.30615 -1.06449,-0.0648 0.22366,0.9551 1.9133,1.5149 4.68862,8.67784 4.93638,12.74048 0.1289,2.11368 0.23962,1.97699 0.56908,-0.70252 0.26541,-2.15857 -0.4053,-4.95203 -1.91003,-7.9551 z"
       id="path3012"
       inkscape:connector-curvature="0" />
  </g>
</svg>
