<?xml version="1.0" encoding="UTF-8" standalone="no"?>
<!-- Created with Inkscape (http://www.inkscape.org/) -->

<svg
   xmlns:dc="http://purl.org/dc/elements/1.1/"
   xmlns:cc="http://creativecommons.org/ns#"
   xmlns:rdf="http://www.w3.org/1999/02/22-rdf-syntax-ns#"
   xmlns:svg="http://www.w3.org/2000/svg"
   xmlns="http://www.w3.org/2000/svg"
   xmlns:sodipodi="http://sodipodi.sourceforge.net/DTD/sodipodi-0.dtd"
   xmlns:inkscape="http://www.inkscape.org/namespaces/inkscape"
   width="226.7648"
   height="100.69071"
   id="svg2"
   version="1.1"
   inkscape:version="0.48.3.1 r9886"
   sodipodi:docname="Crunches-with-legs-on-stability-ball-1.svg">
  <defs
     id="defs4" />
  <sodipodi:namedview
     id="base"
     pagecolor="#ffffff"
     bordercolor="#666666"
     borderopacity="1.0"
     inkscape:pageopacity="0.0"
     inkscape:pageshadow="2"
     inkscape:zoom="2.8"
     inkscape:cx="163.37644"
     inkscape:cy="54.064364"
     inkscape:document-units="px"
     inkscape:current-layer="layer1"
     showgrid="false"
     fit-margin-top="0"
     fit-margin-left="0"
     fit-margin-right="0"
     fit-margin-bottom="0"
     inkscape:window-width="1615"
     inkscape:window-height="1026"
     inkscape:window-x="65"
     inkscape:window-y="24"
     inkscape:window-maximized="1" />
  <metadata
     id="metadata7">
    <rdf:RDF>
      <cc:Work
         rdf:about="">
        <dc:format>image/svg+xml</dc:format>
        <dc:type
           rdf:resource="http://purl.org/dc/dcmitype/StillImage" />
        <dc:title></dc:title>
      </cc:Work>
    </rdf:RDF>
  </metadata>
  <g
     inkscape:label="Ebene 1"
     inkscape:groupmode="layer"
     id="layer1"
     transform="translate(-535.86652,-390.02328)">
    <path
       style="fill:#000000"
       d="m 608.71429,489.16798 c -9.17803,-1.90784 -17.75038,-6.50786 -25.31621,-13.58498 -4.95217,-4.63227 -7.7624,-8.07552 -8.16158,-10 -1.10787,-5.34109 -2.93796,-7.91802 -5.86423,-8.25737 -1.52841,-0.17724 -3.31421,0.12101 -3.96845,0.66278 -0.71286,0.59031 -2.9059,0.67064 -5.47273,0.20046 -6.1761,-1.13131 -11.47825,-7.11058 -10.67739,-12.04098 0.31268,-1.925 0.74779,-5.94392 0.96691,-8.93094 0.72654,-9.9041 10.18005,-18.84773 18.61912,-17.61489 2.59219,0.37868 4.30219,0.0104 6,-1.29205 3.73816,-2.86779 5.7868,-3.25886 8.82941,-1.68547 4.59156,2.37439 11.12609,15.75907 13.49543,27.6427 0.45502,2.28218 1.15932,2.70385 5.4716,3.2759 5.83772,0.7744 9.67832,2.58895 11.755,5.55382 1.28599,1.836 2.12411,2.05336 5.79504,1.50287 2.57397,-0.38599 4.54638,-0.23134 4.92817,0.3864 0.35011,0.56649 2.15273,0.78393 4.00582,0.48322 1.85309,-0.30072 4.14377,-0.11333 5.09038,0.41643 2.04479,1.14432 9.41673,-0.0493 13.79527,-2.23355 1.65864,-0.82744 3.56982,-1.50444 4.24707,-1.50444 1.68154,0 4.37527,-4.3126 5.15578,-8.25428 0.35348,-1.78515 1.31105,-3.74028 2.12792,-4.34474 1.01814,-0.75341 1.72585,-4.05544 2.25042,-10.5 0.9831,-12.07801 1.69274,-15.34836 4.58959,-21.15098 1.6857,-3.37659 3.01704,-4.79946 4.60451,-4.92105 4.42761,-0.33914 5.26967,-0.47847 7.63562,-1.26343 2.33114,-0.77341 4.54191,-0.79664 16.09753,-0.16909 34.94426,1.89769 36.54684,1.91158 40.03956,0.34716 9.62455,-4.31093 14.78433,-6.98662 17.95078,-9.30865 l 3.49034,-2.55955 1.75966,2.17309 c 2.12794,2.6279 2.30636,8.99826 0.35713,12.75118 -0.77139,1.48519 -2.80135,3.72997 -4.51101,4.98842 -1.70966,1.25844 -4.26597,4.03716 -5.68069,6.17494 -2.75723,4.16646 -5.16939,5.67336 -6.67365,4.1691 -0.57793,-0.57793 -0.13337,-1.18738 1.16722,-1.60017 1.15536,-0.3667 2.10066,-1.06994 2.10066,-1.56275 0,-0.49281 2.75578,-3.84197 6.12396,-7.44256 5.1189,-5.47212 6.2046,-7.26204 6.61536,-10.90627 0.65521,-5.81301 -0.85603,-6.48801 -5.78524,-2.584 -2.20574,1.74698 -5.91026,3.75664 -8.23226,4.46591 -2.322,0.70926 -6.69682,2.27979 -9.72182,3.49006 -5.27161,2.10911 -6.08136,2.15606 -19.5,1.1307 -22.69155,-1.73393 -33.93311,-2.1752 -35.00936,-1.37423 -4.69407,3.49343 -11.06951,19.87025 -12.11511,31.12053 -0.3645,3.92186 -1.04811,7.13066 -1.51913,7.13066 -0.47102,0 -0.8564,-2.87924 -0.8564,-6.39831 0,-7.0298 4.46596,-21.23721 8.65846,-27.54484 2.65291,-3.99131 2.52907,-4.39301 -1.07537,-3.48835 -4.68002,1.17461 -7.76088,10.31793 -9.17239,27.22166 -0.56888,6.81262 -1.04473,8.4788 -2.66993,9.34857 -1.61425,0.86393 -1.88151,1.77534 -1.45437,4.95984 0.32304,2.40845 0.11807,3.90143 -0.53563,3.90143 -0.5824,0 -2.62994,1.83539 -4.55009,4.07865 -2.43703,2.84713 -4.06001,3.92989 -5.37511,3.58599 -1.67018,-0.43677 -1.81125,-0.0769 -1.24331,3.17135 0.35235,2.0152 1.25145,5.68901 1.998,8.16401 0.74656,2.475 1.74188,6.075 2.21182,8 0.81035,3.31942 1.05703,3.48805 4.78118,3.26847 2.15971,-0.12733 4.60174,-0.31212 5.42674,-0.41063 0.825,-0.0985 4.425,0.1495 8,0.55114 6.19697,0.6962 6.68868,0.59006 10.54721,-2.27675 3.76847,-2.79989 4.16788,-3.57951 5.7992,-11.31961 0.96358,-4.57194 2.11941,-9.71546 2.56849,-11.43004 l 0.81652,-3.11742 -8.31334,-0.51865 c -6.05074,-0.3775 -9.24596,-1.09505 -11.74003,-2.63647 -3.01931,-1.86603 -3.57509,-1.93902 -4.67482,-0.61393 -1.2167,1.46603 -4.00323,2.09819 -4.00323,0.90818 0,-0.32764 0.72914,-1.83003 1.6203,-3.33866 l 1.6203,-2.74295 5.1297,2.75434 c 5.63199,3.02403 14.76338,4.58109 18.54559,3.16233 2.14804,-0.80575 2.46112,-1.6293 2.82388,-7.42808 0.27999,-4.47572 -0.0858,-7.70365 -1.16589,-10.28869 -1.75835,-4.20832 -2.1643,-12.00551 -0.57388,-11.02258 0.55,0.33992 1,1.66152 1,2.93689 0,1.27538 0.72751,4.06003 1.61668,6.18813 2.23584,5.35111 0.99676,19.05231 -3.65135,40.37498 -1.43164,6.5675 -2.11034,7.50935 -7.39843,10.26697 -3.98598,2.0786 -8.19732,2.55294 -28.0669,3.1613 -3.3,0.10104 -8.15323,0.94601 -10.78495,1.87772 -2.63172,0.9317 -6.23172,1.69652 -8,1.69959 -1.76828,0.003 -4.79005,0.40954 -6.71505,0.90329 -5.37886,1.37962 -14.11445,1.9189 -18,1.11122 z m 11,-2.97755 c 1.925,-0.52047 6.42707,-1.18956 10.00461,-1.48686 3.57754,-0.29731 8.52754,-1.13263 11,-1.85628 5.08392,-1.48798 5.14916,-1.75093 3.02706,-12.1994 -1.89386,-9.32464 -1.58534,-8.96089 -5.59415,-6.59564 -3.82442,2.25646 -6.43752,2.7012 -6.43752,1.09564 0,-0.55 0.49303,-1 1.09563,-1 0.6026,0 2.2901,-0.84096 3.75,-1.8688 4.25844,-2.99815 6.91616,-3.50523 7.45704,-1.42277 0.31294,1.20485 0.50332,0.93067 0.58133,-0.8372 0.11495,-2.60506 0.0748,-2.61999 -4.44828,-1.65531 -3.25642,0.69453 -5.38819,0.63219 -7.43964,-0.21755 -1.58145,-0.65505 -3.36132,-0.89067 -3.95527,-0.52359 -0.59395,0.36708 -2.58129,0.17192 -4.41632,-0.43369 -2.21665,-0.73157 -4.1836,-0.77902 -5.86069,-0.14139 -2.14848,0.81685 -2.94307,0.52262 -5.3372,-1.97631 -2.97663,-3.10693 -7.80393,-4.90859 -13.1766,-4.91781 -3.12486,-0.005 -3.25,0.14813 -3.25,3.98655 0,4.35805 -0.74983,3.73218 12.36957,10.32459 5.53158,2.77959 8.27707,2.81077 7.22999,0.0821 -0.30973,-0.80714 0.0844,-1.39885 0.93182,-1.39885 0.80774,0 1.46862,-0.675 1.46862,-1.5 0,-0.94624 0.9537,-1.5 2.58333,-1.5 3.1064,0 2.80252,2.34623 -0.36438,2.81335 -1.16841,0.17235 -2.43132,1.29735 -2.80645,2.5 -0.37513,1.20266 -1.12906,2.47384 -1.6754,2.82485 -1.74743,1.12269 0.41051,3.06674 2.88012,2.59464 1.56655,-0.29946 2.38278,0.0108 2.38278,0.90583 0,0.74873 -0.70532,1.36133 -1.56739,1.36133 -1.16682,0 -1.38794,0.57501 -0.86522,2.25 0.9203,2.94896 2.41921,3.82754 4.56804,2.67752 1.10886,-0.59344 1.9687,-0.56805 2.3629,0.0698 0.34084,0.55148 2.70815,1.0027 5.26069,1.0027 3.47516,0 4.35448,0.2865 3.50047,1.14051 -1.17672,1.17672 -3.60018,1.3427 -11.12661,0.76207 -3.24606,-0.25042 -4.78629,-0.94829 -6,-2.71856 -3.88152,-5.66143 -8.75409,-10.43748 -12.48979,-12.24237 -4.94047,-2.38698 -4.95179,-2.38698 -3.67557,-0.002 1.18754,2.21894 -0.22266,3.69452 -1.71994,1.79968 -0.53847,-0.68149 -1.44391,-2.58903 -2.0121,-4.23903 l -1.03307,-3 -1.19903,3.25 c -1.79626,4.8688 -3.28105,4.02501 -2.6395,-1.5 2.24857,-19.3646 1.92123,-21.66548 -5.12988,-36.05745 -4.75318,-9.70169 -5.7864,-10.15681 -12.36647,-5.44732 -6.72033,4.80988 -9.60243,7.67623 -13.58961,13.51536 -1.77214,2.59526 -5.01757,5.96083 -7.21205,7.47904 -5.0961,3.52563 -5.18489,6.07731 -0.37404,10.74955 3.1421,3.05157 4.14721,3.48794 6.75,2.93054 1.68199,-0.3602 3.39567,-0.85355 3.80817,-1.09633 1.1315,-0.66596 0.89963,-3.77376 -0.37678,-5.05017 -3.07888,-3.07888 4.06315,-10.78254 10.62678,-11.46246 2.68835,-0.27848 3.02782,8.9e-4 3.26778,2.68924 0.14728,1.65 0.75028,4.84828 1.34001,7.10729 0.918,3.51654 0.7668,4.77774 -1.05129,8.7687 -1.79545,3.94125 -1.96145,5.26327 -1.07449,8.55721 1.41692,5.26201 10.18396,12.76824 21.05056,18.02321 8.79419,4.25277 13.88251,5.0017 20.96743,3.08613 z m 4,-10.84254 c 0,-1.03903 2.1667,-3.2 3.20847,-3.2 0.44467,0 0.24642,0.9 -0.44054,2 -1.26178,2.02042 -2.76793,2.6734 -2.76793,1.2 z m 1,-6.04501 c 0,-1.32642 3.93744,-4.55089 4.66667,-3.82166 0.35992,0.35993 -0.16258,1.55717 -1.16112,2.66054 -1.88671,2.08479 -3.50555,2.62098 -3.50555,1.16112 z m -5,-2.18638 c 0,-0.56726 0.7875,-1.32687 1.75,-1.68802 0.9625,-0.36116 2.2,-1.19143 2.75,-1.84504 0.55,-0.65362 2.49866,-1.46499 4.33036,-1.80305 4.61621,-0.85196 3.69156,1.5167 -1.11895,2.86639 -1.99557,0.5599 -4.187,1.5767 -4.86986,2.25956 -1.50971,1.50971 -2.84155,1.60822 -2.84155,0.21016 z m -15.46076,-6.90511 c -0.74975,-1.21313 0.31344,-1.6637 5.69244,-2.4124 3.3991,-0.47312 5.90133,0.55915 4.03463,1.66445 -2.01805,1.19492 -9.11362,1.74052 -9.72707,0.74795 z m 44.95507,15.5184 c -0.73233,-1.14505 -1.84772,-4.03982 -2.47864,-6.43284 -1.46655,-5.56251 -2.10794,-5.01996 -1.00689,0.85173 1.30994,6.98571 2.93788,10.70354 3.96155,9.04722 0.52028,-0.84184 0.33377,-2.19996 -0.47602,-3.46611 z m -71.99056,-29.21525 c -0.82706,-1.7429 -1.50375,-3.6634 -1.50375,-4.26778 0,-1.95936 -2.89433,-1.16564 -6.02091,1.65113 -2.61554,2.35637 -2.95776,3.2152 -2.39078,6 0.36393,1.7875 1.25999,3.25 1.99123,3.25 0.73125,0 2.56748,1.2375 4.08051,2.75 l 2.75096,2.75 1.29824,-4.48222 c 1.10451,-3.81335 1.07385,-4.9551 -0.2055,-7.65113 z m -14.92006,-16.19851 c 2.09186,-3.11748 4.72879,-6.43909 5.85984,-7.38137 1.95842,-1.63154 1.83257,-1.64651 -2.63953,-0.31408 -2.58281,0.76953 -5.58009,1.87229 -6.66063,2.45058 -3.8502,2.06057 -8.33683,12.33665 -6.60777,15.13433 0.92907,1.50327 5.27085,-2.76996 10.04809,-9.88946 z m 148.41631,55.37999 c -3.575,-0.60863 -8.525,-2.13595 -11,-3.39405 -5.2345,-2.66082 -10.50651,-6.9809 -9.61144,-7.87597 0.34063,-0.34063 1.63005,0.27418 2.86538,1.36624 6.04084,5.34027 16.75317,7.75345 31.68782,7.13837 12.67972,-0.52222 16.53794,-1.7256 24.8596,-7.75379 7.65985,-5.54876 11.77172,-23.62643 7.62912,-33.54107 -3.40765,-8.15565 -14.17621,-18.61919 -19.571,-19.01663 -1.06771,-0.0787 -2.66654,-1.17846 -3.55296,-2.444 -1.55345,-2.21787 -1.95786,-2.27665 -11.19593,-1.62727 -11.13345,0.7826 -11.62783,-0.79291 -0.81123,-2.58528 6.87228,-1.13878 11.07874,-0.29372 14.23149,2.85903 0.74829,0.74828 4.18276,2.8215 7.63216,4.60714 18.99354,9.83235 24.88982,35.79118 11.49439,50.60498 -8.67274,9.59105 -27.67491,14.55347 -44.6574,11.6623 z m -26.21927,-38.0939 c -0.33109,-0.53572 0.0838,-2.54459 0.92197,-4.46414 0.83818,-1.91955 1.71918,-2.97643 1.95779,-2.34863 0.5966,1.56977 -2.13143,8.02359 -2.87976,6.81277 z m 0.7445,-16.41341 c -1.19396,-1.93187 -1.82235,-11.73915 -0.79294,-12.37536 0.58709,-0.36285 1.2346,2.07701 1.60561,6.05008 0.62769,6.72178 0.42197,8.32297 -0.81267,6.32528 z m -12.14011,-5.79082 c 0.28595,-0.9625 0.81506,-2.9875 1.1758,-4.5 0.57952,-2.42978 2.44812,-3.96551 2.4335,-2 -0.0174,2.34392 -2.24299,8.25 -3.10881,8.25 -0.56121,0 -0.78643,-0.7875 -0.50049,-1.75 z m 17.61488,-5.49835 c -3.75991,-1.76054 -4.1361,-2.17072 -2.28738,-2.49402 1.21695,-0.21282 3.79742,0.36509 5.73438,1.28424 3.44558,1.63504 8.17521,1.61904 13.303,-0.045 1.31799,-0.4277 2.25,-0.31678 2.25,0.26777 0,1.18295 -7.69389,3.26533 -11.69282,3.16471 -1.54395,-0.0389 -4.83218,-1.01882 -7.30718,-2.17771 z m -12,-0.19263 c 0,-1.05548 1.91911,-1.49891 2.48992,-0.57533 0.34546,0.55897 -0.0734,1.01631 -0.9309,1.01631 -0.85746,0 -1.55902,-0.19844 -1.55902,-0.44098 z m 15.73776,-5.2507 c -4.26537,-1.11262 -0.15894,-1.77998 8.91372,-1.44862 6.39183,0.23345 9.14655,0.64751 7.84852,1.17971 -2.10832,0.86443 -13.76249,1.05139 -16.76224,0.26891 z m -18.73776,-3.30832 c 0,-0.55 0.45,-1 1,-1 0.55,0 1,0.45 1,1 0,0.55 -0.45,1 -1,1 -0.55,0 -1,-0.45 -1,-1 z m 8,-2.82562 c 0,-1.56175 4.04149,-2.53289 5.30066,-1.27372 0.79912,0.79912 0.65742,1.09934 -0.51887,1.09934 -0.89002,0 -2.33002,0.27314 -3.2,0.60699 -0.86999,0.33384 -1.58179,0.13917 -1.58179,-0.43261 z"
       id="path3007"
       inkscape:connector-curvature="0" />
  </g>
</svg>
