<?xml version="1.0" encoding="UTF-8" standalone="no"?>
<!-- Created with Inkscape (http://www.inkscape.org/) -->

<svg
   xmlns:dc="http://purl.org/dc/elements/1.1/"
   xmlns:cc="http://creativecommons.org/ns#"
   xmlns:rdf="http://www.w3.org/1999/02/22-rdf-syntax-ns#"
   xmlns:svg="http://www.w3.org/2000/svg"
   xmlns="http://www.w3.org/2000/svg"
   xmlns:sodipodi="http://sodipodi.sourceforge.net/DTD/sodipodi-0.dtd"
   xmlns:inkscape="http://www.inkscape.org/namespaces/inkscape"
   width="226.7648"
   height="100.69071"
   id="svg2"
   version="1.1"
   inkscape:version="0.48.3.1 r9886"
   sodipodi:docname="Neues Dokument 1">
  <defs
     id="defs4" />
  <sodipodi:namedview
     id="base"
     pagecolor="#ffffff"
     bordercolor="#666666"
     borderopacity="1.0"
     inkscape:pageopacity="0.0"
     inkscape:pageshadow="2"
     inkscape:zoom="2.8"
     inkscape:cx="163.37644"
     inkscape:cy="54.064364"
     inkscape:document-units="px"
     inkscape:current-layer="layer1"
     showgrid="false"
     fit-margin-top="0"
     fit-margin-left="0"
     fit-margin-right="0"
     fit-margin-bottom="0"
     inkscape:window-width="1615"
     inkscape:window-height="1026"
     inkscape:window-x="65"
     inkscape:window-y="24"
     inkscape:window-maximized="1" />
  <metadata
     id="metadata7">
    <rdf:RDF>
      <cc:Work
         rdf:about="">
        <dc:format>image/svg+xml</dc:format>
        <dc:type
           rdf:resource="http://purl.org/dc/dcmitype/StillImage" />
        <dc:title></dc:title>
      </cc:Work>
    </rdf:RDF>
  </metadata>
  <g
     inkscape:label="Ebene 1"
     inkscape:groupmode="layer"
     id="layer1"
     transform="translate(-535.86652,-390.02328)">
    <path
       style="fill:#000000"
       d="m 584.71429,488.17428 c -10.38584,-3.98566 -13.27016,-5.63508 -14.93581,-8.54117 -2.0539,-3.58347 -6.15376,-5.32854 -8.97346,-3.81949 -1.1499,0.61541 -2.09073,1.48186 -2.09073,1.92546 0,0.44359 -1.81892,1.35148 -4.04204,2.01755 -3.6641,1.09779 -4.54472,0.97321 -9.41851,-1.33246 -4.52086,-2.13871 -5.47407,-3.06216 -5.98972,-5.80273 -0.33728,-1.7926 -1.35412,-5.58348 -2.25965,-8.42419 -1.4045,-4.40601 -1.46616,-5.97038 -0.41967,-10.64662 1.49648,-6.68695 6.26277,-12.11565 11.49993,-13.09815 2.27433,-0.42666 3.74111,-1.3661 4.15142,-2.65887 0.90488,-2.85103 4.50004,-5.93207 6.9168,-5.92769 1.13379,0.002 3.45668,0.85454 5.16197,1.8944 5.18674,3.16281 16.32484,14.14234 18.06354,17.80636 1.30973,2.76007 2.05697,3.32944 3.73653,2.84714 6.1001,-1.75169 11.62657,-1.74273 16.54754,0.0268 3.89896,1.40205 5.75577,1.5999 7.83129,0.83445 1.49632,-0.55185 4.97057,-0.8735 7.72057,-0.7148 25.93945,1.49696 26.406,1.49525 29.61993,-0.10806 1.75304,-0.87454 3.60858,-1.59006 4.12342,-1.59006 1.69485,0 4.67804,-4.43608 5.37986,-8 0.37908,-1.925 1.33826,-3.97638 2.13151,-4.55861 0.90061,-0.66103 1.60775,-3.47778 1.88287,-7.5 1.13495,-16.59303 5.16272,-28.77032 9.62926,-29.11244 4.25714,-0.32608 5.25185,-0.5021 9.05775,-1.60281 2.10352,-0.60837 4.45366,-0.86472 5.22252,-0.56968 0.76886,0.29503 4.44779,0.6545 8.1754,0.79881 3.72762,0.14431 13.77028,0.61696 22.31704,1.05033 13.08383,0.66343 16.08642,0.54301 19,-0.76201 9.62455,-4.31093 14.78433,-6.98662 17.95078,-9.30865 l 3.49034,-2.55955 1.75966,2.17309 c 2.12794,2.6279 2.30636,8.99826 0.35713,12.75118 -0.77139,1.48519 -2.80135,3.72997 -4.51101,4.98842 -1.70966,1.25844 -4.26597,4.03716 -5.68069,6.17494 -2.75723,4.16646 -5.16939,5.67336 -6.67365,4.1691 -0.57793,-0.57793 -0.13337,-1.18738 1.16722,-1.60017 1.15536,-0.3667 2.10066,-1.06994 2.10066,-1.56275 0,-0.49281 2.75578,-3.84197 6.12396,-7.44256 5.1189,-5.47212 6.2046,-7.26204 6.61536,-10.90627 0.65521,-5.81301 -0.85603,-6.48801 -5.78524,-2.584 -2.20574,1.74698 -5.91026,3.75664 -8.23226,4.46591 -2.322,0.70926 -6.69682,2.27979 -9.72182,3.49006 -5.27161,2.10911 -6.08136,2.15606 -19.5,1.1307 -22.69155,-1.73393 -33.93311,-2.1752 -35.00936,-1.37423 -4.69407,3.49343 -11.06951,19.87025 -12.11511,31.12053 -0.3645,3.92186 -1.04811,7.13066 -1.51913,7.13066 -0.47102,0 -0.8564,-2.86589 -0.8564,-6.36865 0,-7.08361 4.50077,-21.48221 8.61935,-27.5745 2.69555,-3.98733 2.57456,-4.39461 -1.03626,-3.48835 -4.68002,1.17461 -7.76088,10.31793 -9.17239,27.22166 -0.56888,6.81262 -1.04473,8.4788 -2.66993,9.34857 -1.61425,0.86393 -1.88151,1.77534 -1.45437,4.95984 0.32304,2.40845 0.11807,3.90143 -0.53563,3.90143 -0.5824,0 -2.62994,1.83539 -4.55009,4.07865 -2.43703,2.84713 -4.06001,3.92989 -5.37511,3.58599 -1.67018,-0.43677 -1.81125,-0.0769 -1.24331,3.17135 0.35235,2.0152 1.25145,5.68901 1.998,8.16401 0.74656,2.475 1.74188,6.075 2.21182,8 0.81035,3.31942 1.05703,3.48805 4.78118,3.26847 2.15971,-0.12733 4.60174,-0.31212 5.42674,-0.41063 0.825,-0.0985 4.425,0.1495 8,0.55114 6.19697,0.6962 6.68868,0.59006 10.54721,-2.27675 3.76847,-2.79989 4.16788,-3.57951 5.7992,-11.31961 0.96358,-4.57194 2.11941,-9.71546 2.56849,-11.43004 l 0.81652,-3.11742 -8.31334,-0.51865 c -6.05074,-0.3775 -9.24596,-1.09505 -11.74003,-2.63647 -3.01931,-1.86603 -3.57509,-1.93902 -4.67482,-0.61393 -1.2167,1.46603 -4.00323,2.09819 -4.00323,0.90818 0,-0.32764 0.72914,-1.83003 1.6203,-3.33866 l 1.6203,-2.74295 5.1297,2.75434 c 5.63199,3.02403 14.76338,4.58109 18.54559,3.16233 2.14804,-0.80575 2.46112,-1.6293 2.82388,-7.42808 0.27999,-4.47572 -0.0858,-7.70365 -1.16589,-10.28869 -1.75835,-4.20832 -2.1643,-12.00551 -0.57388,-11.02258 0.55,0.33992 1,1.66152 1,2.93689 0,1.27538 0.72751,4.06003 1.61668,6.18813 2.23584,5.35111 0.99676,19.05231 -3.65135,40.37498 -1.43164,6.5675 -2.11034,7.50935 -7.39843,10.26697 -4.01295,2.09266 -8.04659,2.53752 -28.5669,3.15057 -3.575,0.1068 -7.51633,0.74943 -8.75851,1.42806 -2.6488,1.4471 -11.59924,2.85208 -26.24149,4.11923 -17.5916,1.52237 -24.68035,1.15626 -32,-1.65273 z m 30,-1.12477 c 3.025,-0.59137 8.875,-1.28992 13,-1.55233 8.07234,-0.51351 16.70625,-2.35069 17.56317,-3.73722 0.29105,-0.47092 -0.26901,-4.28711 -1.24459,-8.48042 l -1.77377,-7.62419 -6.0125,0.68023 c -3.30688,0.37413 -6.59034,1.1598 -7.29658,1.74592 -1.79786,1.4921 -2.78976,0.15317 -1.25579,-1.69515 1.06574,-1.28414 0.9307,-1.52417 -0.8575,-1.52417 -1.59727,0 -2.12244,0.61859 -2.12244,2.5 0,1.375 -0.45,2.5 -1,2.5 -0.55,0 -1,-0.87719 -1,-1.94931 0,-1.07213 -1.44621,-3.30092 -3.2138,-4.95287 -1.76759,-1.65196 -2.88509,-3.33227 -2.48333,-3.73402 0.40175,-0.40176 1.26296,-0.19797 1.9138,0.45287 0.65083,0.65083 2.04148,1.18333 3.09032,1.18333 1.27793,0 1.71852,0.49114 1.33565,1.48889 -0.46049,1.20002 0.1008,1.38207 2.89301,0.93832 2.00297,-0.31833 3.46435,-0.13025 3.46435,0.44585 0,0.57852 2.72217,0.91894 6.49069,0.81168 5.02382,-0.14299 6.48934,-0.52374 6.48469,-1.68474 -0.0118,-2.93503 -1.55778,-3.79334 -7.97538,-4.42771 -3.575,-0.35338 -8.075,-0.8875 -10,-1.18694 -1.925,-0.29944 -4.70264,-0.083 -6.17254,0.4809 -2.05347,0.78784 -2.94644,0.69531 -3.855,-0.39944 -0.85249,-1.02718 -1.69295,-1.15158 -3.01172,-0.4458 -2.75792,1.47599 -8.23413,1.17623 -10.75387,-0.58866 -1.91031,-1.33804 -3.07805,-1.3954 -7.9725,-0.39163 -8.121,1.66549 -8.28651,1.81823 -6.5797,6.07181 l 1.44958,3.61254 9.19788,0.98109 c 5.23167,0.55804 9.68652,0.60631 10.33109,0.11194 0.70994,-0.54451 1.35402,-0.29373 1.72437,0.67138 0.32514,0.8473 1.75477,1.98294 3.17696,2.52365 1.42219,0.54072 2.32112,1.41139 1.99762,1.93482 -0.3235,0.52344 0.32442,1.44011 1.43982,2.03706 1.11541,0.59695 2.0349,0.73202 2.04332,0.30017 0.019,-0.97462 1.94824,1.92977 1.96938,2.96482 0.0343,1.68132 -3.32008,0.55246 -8.07251,-2.71664 -2.77179,-1.90665 -6.69844,-3.72549 -8.7259,-4.04187 -2.02745,-0.31637 -4.99651,-0.78468 -6.59789,-1.04068 -2.76968,-0.44277 -2.83062,-0.37595 -1.25,1.37061 2.02481,2.23739 2.10672,3.17858 0.27662,3.17858 -0.76175,0 -2.12212,-1.125 -3.02305,-2.5 -2.40535,-3.67103 -3.94289,-3.18415 -3.15794,1 0.52028,2.77332 0.33577,3.5 -0.88871,3.5 -0.84992,0 -1.54531,-0.71716 -1.54531,-1.5937 0,-0.87653 -1.40542,-6.16403 -3.12315,-11.75 l -3.12316,-10.1563 -9.38756,-9.25 c -5.34305,-5.26475 -10.22375,-9.25 -11.3284,-9.25 -3.15292,0 -10.66878,12.55811 -12.07927,20.18302 -0.6427,3.47434 -2.47127,8.48438 -4.0635,11.13343 -1.59223,2.64904 -2.89496,5.3918 -2.89496,6.09501 0,1.76976 2.82916,4.11249 7.09025,5.87118 3.21793,1.32814 3.86607,1.31445 6.25,-0.13203 3.18502,-1.93256 3.52498,-5.61718 0.65975,-7.15061 -1.1,-0.5887 -2,-2.00577 -2,-3.14903 0,-2.95567 4.0162,-9.72134 6.17802,-10.40747 1.00209,-0.31805 1.82198,-0.99795 1.82198,-1.51089 0,-0.51293 0.675,-0.93261 1.5,-0.93261 0.825,0 1.5,0.64053 1.5,1.4234 0,0.78288 1.575,3.48677 3.5,6.00866 3.00452,3.93613 3.5,5.35178 3.5,9.99987 0,7.66889 2.73686,10.65957 12.7775,13.96252 10.77772,3.54542 19.6515,4.05498 31.2225,1.79288 z m 13.5,-4.67881 c -0.55,-0.18347 -2.34364,-0.63315 -3.98587,-0.9993 -5.07584,-1.1317 -0.69077,-2.25741 5.98587,-1.53665 5.75846,0.62163 5.88667,0.69561 3.1849,1.83757 -2.86805,1.21224 -3.42114,1.28674 -5.1849,0.69838 z m -11.5,-15.4495 c 0,-0.51754 0.45,-1.2191 1,-1.55902 0.55,-0.33992 1,0.0835 1,0.94098 0,0.85746 -0.45,1.55902 -1,1.55902 -0.55,0 -1,-0.42344 -1,-0.94098 z m -21.43588,-3.36551 c 0.6165,-1.60658 7.44153,-4.80805 8.65335,-4.0591 1.1595,0.7166 -1.07574,3.36559 -2.83991,3.36559 -0.75766,0 -1.37756,0.45 -1.37756,1 0,0.55 -1.11088,1 -2.46862,1 -1.62097,0 -2.29647,-0.4486 -1.96726,-1.30649 z m 16.43588,0.51227 c 0,-0.52849 0.7269,-1.56417 1.61534,-2.3015 1.39754,-1.15986 1.56608,-1.08641 1.25,0.54469 -0.37664,1.94362 -2.86534,3.4695 -2.86534,1.75681 z m -0.5,-5.20578 c 0.33992,-0.55 1.04148,-1 1.55902,-1 0.51754,0 0.94098,0.45 0.94098,1 0,0.55 -0.70156,1 -1.55902,1 -0.85746,0 -1.2809,-0.45 -0.94098,-1 z m 37.99431,17.5819 c -0.73233,-1.14505 -1.84772,-4.03982 -2.47864,-6.43284 -1.46655,-5.56251 -2.10794,-5.01996 -1.00689,0.85173 1.30994,6.98571 2.93788,10.70354 3.96155,9.04722 0.52028,-0.84184 0.33377,-2.19996 -0.47602,-3.46611 z m -80.892,-7.66746 c -0.33723,-2.1089 -1.66923,-4.89045 -2.96,-6.18122 -1.29077,-1.29077 -2.57259,-2.99629 -2.84848,-3.79004 -0.69302,-1.99381 -4.15832,1.10835 -5.87932,5.2632 -1.09736,2.64926 -1.0423,3.22701 0.40863,4.28795 0.92227,0.67439 1.67686,1.97988 1.67686,2.9011 0,1.29124 0.40466,1.45837 1.76643,0.72957 1.19212,-0.638 2.56984,-0.5154 4.23746,0.37708 3.40132,1.82033 4.31718,0.90722 3.59842,-3.58764 z m -25.31089,-7.16444 c 0.85973,-2.3375 2.12021,-6.95 2.80108,-10.25 0.68087,-3.3 1.66869,-6.5625 2.19516,-7.25 2.23612,-2.92005 -1.32091,-0.98145 -5.06019,2.75782 -4.32638,4.32639 -5.82745,8.93025 -4.67091,14.32602 1.31461,6.13326 2.59087,6.24543 4.73486,0.41616 z m 101.36452,-3.01903 c -0.27393,-0.67703 -0.48137,0.11903 -0.46099,1.76903 0.0204,1.65 0.2445,2.20394 0.49804,1.23097 0.25354,-0.97297 0.23687,-2.32297 -0.037,-3 z m 66.34406,27.81716 c -3.575,-0.60863 -8.525,-2.13595 -11,-3.39405 -5.2345,-2.66082 -10.50651,-6.9809 -9.61144,-7.87597 0.34063,-0.34063 1.63005,0.27418 2.86538,1.36624 6.04084,5.34027 16.75317,7.75345 31.68782,7.13837 12.67972,-0.52222 16.53794,-1.7256 24.8596,-7.75379 7.65985,-5.54876 11.77172,-23.62643 7.62912,-33.54107 -3.40765,-8.15565 -14.17621,-18.61919 -19.571,-19.01663 -1.06771,-0.0787 -2.66654,-1.17846 -3.55296,-2.444 -1.55345,-2.21787 -1.95786,-2.27665 -11.19593,-1.62727 -11.13345,0.7826 -11.62783,-0.79291 -0.81123,-2.58528 6.87228,-1.13878 11.07874,-0.29372 14.23149,2.85903 0.74829,0.74828 4.18276,2.8215 7.63216,4.60714 18.99354,9.83235 24.88982,35.79118 11.49439,50.60498 -8.67274,9.59105 -27.67491,14.55347 -44.6574,11.6623 z m -26.21927,-38.0939 c -0.33109,-0.53572 0.0838,-2.54459 0.92197,-4.46414 0.83818,-1.91955 1.71918,-2.97643 1.95779,-2.34863 0.5966,1.56977 -2.13143,8.02359 -2.87976,6.81277 z m 0.7445,-16.41341 c -1.19396,-1.93187 -1.82235,-11.73915 -0.79294,-12.37536 0.58709,-0.36285 1.2346,2.07701 1.60561,6.05008 0.62769,6.72178 0.42197,8.32297 -0.81267,6.32528 z m -12.14011,-5.79082 c 0.28595,-0.9625 0.81506,-2.9875 1.1758,-4.5 0.57952,-2.42978 2.44812,-3.96551 2.4335,-2 -0.0174,2.34392 -2.24299,8.25 -3.10881,8.25 -0.56121,0 -0.78643,-0.7875 -0.50049,-1.75 z m 17.61488,-5.49835 c -3.75991,-1.76054 -4.1361,-2.17072 -2.28738,-2.49402 1.21695,-0.21282 3.79742,0.36509 5.73438,1.28424 3.44558,1.63504 8.17521,1.61904 13.303,-0.045 1.31799,-0.4277 2.25,-0.31678 2.25,0.26777 0,1.18295 -7.69389,3.26533 -11.69282,3.16471 -1.54395,-0.0389 -4.83218,-1.01882 -7.30718,-2.17771 z m -12,-0.19263 c 0,-1.05548 1.91911,-1.49891 2.48992,-0.57533 0.34546,0.55897 -0.0734,1.01631 -0.9309,1.01631 -0.85746,0 -1.55902,-0.19844 -1.55902,-0.44098 z m 15.73776,-5.2507 c -4.26537,-1.11262 -0.15894,-1.77998 8.91372,-1.44862 6.39183,0.23345 9.14655,0.64751 7.84852,1.17971 -2.10832,0.86443 -13.76249,1.05139 -16.76224,0.26891 z m -18.73776,-3.30832 c 0,-0.55 0.45,-1 1,-1 0.55,0 1,0.45 1,1 0,0.55 -0.45,1 -1,1 -0.55,0 -1,-0.45 -1,-1 z m 8,-2.82562 c 0,-1.56175 4.04149,-2.53289 5.30066,-1.27372 0.79912,0.79912 0.65742,1.09934 -0.51887,1.09934 -0.89002,0 -2.33002,0.27314 -3.2,0.60699 -0.86999,0.33384 -1.58179,0.13917 -1.58179,-0.43261 z"
       id="path3009"
       inkscape:connector-curvature="0" />
  </g>
</svg>
