<?xml version="1.0" encoding="UTF-8" standalone="no"?>
<!-- Created with Inkscape (http://www.inkscape.org/) -->

<svg
   xmlns:dc="http://purl.org/dc/elements/1.1/"
   xmlns:cc="http://creativecommons.org/ns#"
   xmlns:rdf="http://www.w3.org/1999/02/22-rdf-syntax-ns#"
   xmlns:svg="http://www.w3.org/2000/svg"
   xmlns="http://www.w3.org/2000/svg"
   xmlns:xlink="http://www.w3.org/1999/xlink"
   xmlns:sodipodi="http://sodipodi.sourceforge.net/DTD/sodipodi-0.dtd"
   xmlns:inkscape="http://www.inkscape.org/namespaces/inkscape"
   width="625.83356"
   height="279.54962"
   id="svg2"
   version="1.1"
   inkscape:version="0.48.3.1 r9886"
   sodipodi:docname="Crunches-1.svg"
   inkscape:export-filename="/home/christian/Dokumente/Website/opentraining/cc_exercises/svg/Crunches-1.png"
   inkscape:export-xdpi="90.051376"
   inkscape:export-ydpi="90.051376">
  <defs
     id="defs4">
    <radialGradient
       gradientUnits="userSpaceOnUse"
       gradientTransform="matrix(1,0,0,0.91819829,-19.285714,-7.9105395)"
       r="209.56604"
       fy="287.50052"
       fx="398.1105"
       cy="287.50052"
       cx="398.1105"
       id="radialGradient5255"
       xlink:href="#linearGradient5249"
       inkscape:collect="always" />
    <linearGradient
       id="linearGradient5249"
       inkscape:collect="always">
      <stop
         id="stop5251"
         offset="0"
         style="stop-color:#e3e3e3;stop-opacity:1;" />
      <stop
         id="stop5253"
         offset="1"
         style="stop-color:#e3e3e3;stop-opacity:0;" />
    </linearGradient>
  </defs>
  <sodipodi:namedview
     id="base"
     pagecolor="#ffffff"
     bordercolor="#666666"
     borderopacity="1.0"
     inkscape:pageopacity="0.0"
     inkscape:pageshadow="2"
     inkscape:zoom="1.4"
     inkscape:cx="398.71182"
     inkscape:cy="148.95756"
     inkscape:document-units="px"
     inkscape:current-layer="layer1"
     showgrid="false"
     showguides="true"
     inkscape:guide-bbox="true"
     fit-margin-top="0"
     fit-margin-left="0"
     fit-margin-right="0"
     fit-margin-bottom="0"
     inkscape:window-width="1615"
     inkscape:window-height="1026"
     inkscape:window-x="65"
     inkscape:window-y="24"
     inkscape:window-maximized="1">
    <sodipodi:guide
       orientation="-0.70710678,0.70710678"
       position="-1795.0567,776.23004"
       id="guide2985" />
  </sodipodi:namedview>
  <metadata
     id="metadata7">
    <rdf:RDF>
      <cc:Work
         rdf:about="">
        <dc:format>image/svg+xml</dc:format>
        <dc:type
           rdf:resource="http://purl.org/dc/dcmitype/StillImage" />
        <dc:title></dc:title>
      </cc:Work>
    </rdf:RDF>
  </metadata>
  <g
     inkscape:label="Ebene 1"
     inkscape:groupmode="layer"
     id="layer1"
     transform="translate(-366.48522,-523.32831)">
    <path
       style="fill:#000000"
       d="m 572.35876,799.14987 c -25.38727,-5.27743 -49.09917,-18.00145 -70.02694,-37.57736 -13.69816,-12.81337 -21.47149,-22.33757 -22.57568,-27.66091 -3.06447,-14.77398 -8.12667,-21.90192 -16.22097,-22.84072 -4.22775,-0.49015 -9.16744,0.33497 -10.97713,1.83336 -1.97183,1.63282 -8.03798,1.85522 -15.13806,0.55461 -17.08367,-3.12929 -31.7499,-19.66858 -29.53464,-33.30652 0.8649,-5.32472 2.06845,-16.44136 2.67456,-24.70368 2.00967,-27.39565 28.15895,-52.13474 51.50218,-48.72443 7.23486,1.05693 11.85794,0.036 16.59656,-3.66424 10.47165,-8.17767 16.91636,-9.04788 25.94015,-3.50242 12.23614,7.51935 29.30978,43.48932 35.78614,75.39258 1.28042,6.30753 3.24302,7.48063 15.1612,9.06144 16.14767,2.14235 26.77112,7.16141 32.5154,15.3626 3.55717,5.07855 5.87549,5.67962 16.02961,4.15688 7.11984,-1.06771 12.57571,-0.63979 13.63178,1.06882 0.96843,1.56699 5.95464,2.16862 11.08045,1.33685 5.12583,-0.83204 11.46205,-0.31367 14.08047,1.1518 5.65607,3.16524 26.04753,-0.13554 38.15897,-6.17834 4.58796,-2.28867 9.87445,-4.16131 11.74779,-4.16131 4.65129,0 12.1024,-11.92904 14.26136,-22.83214 0.97775,-4.93775 3.62648,-10.34602 5.88602,-12.01784 2.81626,-2.08397 4.77385,-11.21788 6.22486,-29.04397 2.71935,-33.40884 4.68228,-42.45507 12.69523,-58.50559 5.97788,-11.97414 7.42964,-13.13893 16.37596,-13.13893 5.3991,0 12.33618,-1.34848 15.41575,-2.99651 5.45441,-2.91934 15.41554,-3.23411 46.59285,-1.4724 92.06865,5.20164 101.17555,5.28352 110.75305,0.99359 26.6224,-11.92435 40.8948,-19.32558 49.6535,-25.74872 l 9.6546,-7.07981 4.8674,6.011 c 5.5493,6.85298 6.4697,24.79413 1.7408,33.93219 -1.7196,3.32319 -8.8769,11.18497 -15.905,17.47063 l -12.7785,11.42838 6.4824,5.26471 c 5.7041,4.63265 6.2569,6.76863 4.6043,17.78928 -2.3787,15.86188 -6.6744,18.5436 -35.7077,22.29138 l -22.9299,2.96 -1.8115,54.08677 c -0.9963,29.74765 -2.4335,54.70886 -3.1939,55.46926 -4.1695,4.1696 -4.656,-7.42281 -2.4432,-58.20769 l 2.4438,-56.08583 19.3626,-3.10328 c 18.0156,-2.88724 15.589,-3.129 -34.8816,-3.47697 -56.46344,-0.38892 -79.91115,1.30476 -79.91115,5.77228 0,1.44528 5.21364,2.20983 11.58588,1.69866 l 11.58589,-0.92941 -1.13744,29.04396 c -0.62559,15.97417 -0.91387,37.50571 -0.64058,47.84757 0.33263,12.58876 -0.6066,19.18755 -2.84169,19.96537 -1.83621,0.63925 -11.42937,1.68732 -21.31816,2.32961 l -17.97958,1.16756 -0.41522,9.98532 -0.4152,9.98558 12.17108,0 c 6.69411,0 12.17111,-1.24473 12.17111,-2.76609 0,-1.52135 7.15726,-2.77687 15.90503,-2.79016 8.74776,0 22.43991,-0.80907 30.427,-1.76835 13.44168,-1.61458 14.52193,-2.29171 14.52193,-9.10183 0,-6.64387 -0.8718,-7.26901 -8.98974,-6.44471 -15.83881,1.60848 -16.4809,-0.10788 -15.88677,-42.45619 0.2963,-21.12049 0.60903,-39.64584 0.69501,-41.16718 0.086,-1.52136 -0.74563,-5.56676 -1.84795,-8.9898 -1.9133,-5.94129 -1.31599,-6.22371 13.16945,-6.22371 15.8527,0 24.7041,2.0328 22.7338,5.221 -0.919,1.48677 -4.4134,91.06719 -4.3552,111.64636 0.011,4.30045 -3.1933,4.84066 -28.71637,4.84066 l -28.73002,0 -1.38431,8.9898 c -2.52259,16.38162 1.60671,18.01334 43.01665,16.99735 20.11535,-0.49346 51.68935,-1.68122 70.16455,-2.6394 l 33.5912,-1.74208 1.711,-8.55552 c 0.9411,-4.7054 0.6457,-9.62074 -0.6565,-10.92274 -1.3022,-1.30228 -12.6191,-2.39018 -25.1486,-2.41784 -34.6151,-0.0747 -39.431,-4.01167 -7.4774,-6.11058 33.4918,-2.20014 37.7083,-0.24618 37.6482,17.4391 -0.022,6.86046 -1.0065,13.99089 -2.1848,15.84555 -1.5901,2.50249 -20.6537,3.41613 -73.9506,3.54393 -39.49447,0.094 -73.16428,0.13277 -74.82175,0.0857 -3.9346,-0.11342 -9.43381,-12.33207 -9.43381,-20.96228 0,-6.38026 -0.90764,-6.78494 -15.21351,-6.78494 -10.31279,0 -15.22193,-1.11391 -15.23966,-3.45761 -0.0139,-1.9017 -3.05953,1.60239 -6.76697,7.78682 -8.69139,14.49818 -16.9625,18.02827 -42.72856,18.23739 -44.96102,0.36457 -57.44096,1.42067 -70.20843,5.94074 -7.27958,2.57716 -17.23751,4.69267 -22.12873,4.70124 -4.89123,0 -13.24972,1.13272 -18.57445,2.49861 -14.87841,3.81611 -39.04185,5.30785 -49.78965,3.07369 z m 30.42701,-8.23632 c 5.32473,-1.43947 17.77789,-3.29027 27.67367,-4.11262 9.8958,-0.82236 23.58795,-3.13316 30.427,-5.1347 14.06259,-4.11594 14.24305,-4.84314 8.37313,-33.74466 -5.23859,-25.79269 -4.3852,-24.78666 -15.47394,-18.24403 -10.57869,6.24141 -17.80676,7.47177 -17.80676,3.03053 0,-1.52135 1.36377,-2.76609 3.03061,-2.76609 1.66685,0 6.33463,-2.32629 10.37284,-5.16927 11.77924,-8.29329 19.13073,-9.6957 20.62686,-3.93559 0.86562,3.33285 1.39223,2.5744 1.60801,-2.31578 0.31796,-7.20567 0.2069,-7.24715 -12.30435,-4.57871 -9.00755,1.92133 -14.90422,1.74872 -20.57873,-0.60162 -4.37443,-1.81207 -9.29772,-2.46376 -10.94063,-1.44833 -1.64292,1.01543 -7.14009,0.47549 -12.21595,-1.19966 -6.13145,-2.02366 -11.57222,-2.15478 -16.2112,-0.39112 -5.94287,2.25962 -8.1408,1.44556 -14.76319,-5.46663 -8.23362,-8.59397 -21.58638,-13.57763 -36.44767,-13.60308 -8.64365,-0.0276 -8.98981,0.40966 -8.98981,11.02702 0,12.05491 -2.07409,10.32361 34.21537,28.55879 15.30085,7.68863 22.89513,7.77493 19.99882,0.22682 -0.85675,-2.23279 0.23345,-3.86948 2.57752,-3.86948 2.23425,0 4.06231,-1.86711 4.06231,-4.14914 0,-2.61727 2.63802,-4.14914 7.14572,-4.14914 8.59259,0 7.75203,6.48981 -1.0079,7.78213 -3.23193,0.47659 -6.72525,3.58844 -7.7629,6.91522 -1.03767,3.32651 -3.12308,6.84276 -4.63431,7.81365 -4.83355,3.1055 1.13551,8.48278 7.96668,7.17691 4.33322,-0.82817 6.59099,0.0304 6.59099,2.5058 0,2.07097 -1.95099,3.76548 -4.33555,3.76548 -3.22753,0 -3.83917,1.5905 -2.39328,6.2237 2.54564,8.15721 6.69176,10.58722 12.63562,7.40622 3.06721,-1.6414 5.4456,-1.57114 6.53599,0.19362 0.9428,1.5255 7.49099,2.77356 14.55156,2.77356 9.6126,0 12.04489,0.79249 9.68262,3.15473 -3.25492,3.25486 -9.95843,3.71403 -30.77723,2.10804 -8.9789,-0.69263 -13.23931,-2.62309 -16.59654,-7.5199 -10.73664,-15.65995 -24.21462,-28.87108 -34.5479,-33.8636 -13.6658,-6.60238 -13.69711,-6.60238 -10.16697,0 3.28485,6.13796 -0.61589,10.2196 -4.75751,4.97814 -1.48945,-1.88509 -3.95003,-7.16141 -5.46795,-11.72546 l -2.75987,-8.29828 -4.54662,9.68132 c -4.43748,9.44897 -4.51629,8.86837 -3.28175,-24.17149 1.39572,-37.3533 -0.7978,-47.32312 -18.17975,-82.63089 -12.04702,-24.47106 -15.234,-25.70391 -33.20151,-12.84435 -18.58904,13.30462 -26.5612,21.23335 -37.5901,37.38483 -4.9019,7.17884 -13.87903,16.48812 -19.94919,20.6876 -14.09628,9.75241 -14.34188,16.81036 -1.03462,29.73437 8.69133,8.44101 11.47156,9.64785 18.67111,8.10604 4.65253,-0.99635 9.39273,-2.36086 10.53374,-3.03247 3.12984,-1.84222 2.48846,-10.43867 -1.0422,-13.96931 -8.51647,-8.51652 11.23904,-29.82538 29.39464,-31.70605 7.94925,-0.82346 8.35645,-0.33608 9.68132,11.58771 0.88194,7.93758 2.63581,12.19681 4.84066,11.75589 4.63921,-0.92774 4.51485,-0.14384 -3.49324,22.05764 -5.87562,16.28868 -6.5108,20.90363 -4.1062,29.83368 3.85847,14.32919 28.32585,35.2093 58.1707,49.64193 24.32554,11.76364 38.40029,13.83516 57.99783,8.53645 z m 11.06437,-29.99134 c 0,-2.87397 5.99329,-8.8515 8.87492,-8.8515 1.22997,0 0.68162,2.48948 -1.21858,5.53218 -3.4902,5.58861 -7.65634,7.39488 -7.65634,3.31932 z m 2.76609,-16.72103 c 0,-3.66894 10.89132,-12.5882 12.90843,-10.57117 0.99558,0.99579 -0.44971,4.30736 -3.21176,7.35946 -5.21881,5.76675 -9.69667,7.24993 -9.69667,3.21171 z m -93.60442,-7.68973 c -0.24342,-3.23301 -1.09828,-10.07881 -1.89953,-15.2135 -1.3341,-8.54889 -1.20655,-8.76105 1.51393,-2.51715 1.63394,3.75027 2.48871,10.59635 1.89954,15.2135 -0.63308,4.96127 -1.25235,5.99081 -1.51394,2.51715 z m 79.77396,1.64195 c 0,-1.56893 2.1783,-3.67033 4.84066,-4.66916 2.66236,-0.99912 6.0854,-3.29552 7.60675,-5.10372 1.52135,-1.80792 6.91153,-4.05205 11.97817,-4.98726 12.76886,-2.35671 10.2112,4.19533 -3.09511,7.92873 -5.51993,1.54873 -11.58163,4.36129 -13.47045,6.24998 -4.17603,4.17625 -7.86002,4.4487 -7.86002,0.58143 z M 560.0199,719.05326 c -2.07388,-3.35554 0.867,-4.60194 15.74581,-6.67292 9.40221,-1.30863 16.32358,1.5468 11.16015,4.60389 -5.58211,3.30547 -25.20911,4.81465 -26.90596,2.06903 z m -56.85792,-33.45201 c -2.87832,-5.37811 -2.62223,-5.79025 2.57317,-4.14111 4.1736,1.32441 5.7696,0.63178 5.7696,-2.50441 0,-2.38465 1.12821,-4.33558 2.50713,-4.33558 3.43198,0 0.50938,10.17922 -3.9962,13.91842 -2.78313,2.30996 -4.42129,1.60765 -6.8537,-2.93732 z m -5.20455,-40.42061 c 0.27108,-12.86731 0.37638,-13.03991 2.48987,-4.08746 1.21371,5.14107 3.88694,10.41213 5.94057,11.71357 2.0536,1.30118 2.90207,2.38521 1.8855,2.40844 -1.01658,0.0276 -3.81725,0.79774 -6.2237,1.72134 -3.64078,1.39715 -4.32785,-0.57673 -4.09224,-11.75589 z m -25.17796,0.30648 c 0,-2.37192 12.22386,-6.30917 14.81729,-4.77261 1.30344,0.77229 0.68107,2.47426 -1.38305,3.78208 -4.14423,2.62585 -13.43424,3.31073 -13.43424,0.99053 z M 758.0072,771.26988 c 6.37209,-3.25071 12.17363,-8.73311 13.84991,-13.08805 1.58651,-4.12174 5.14814,-11.88395 7.91467,-17.24906 2.76653,-5.36539 6.47174,-15.32332 8.23377,-22.12873 1.76206,-6.8057 3.77884,-14.37234 4.48179,-16.81507 1.0736,-3.7309 -2.26095,-4.6841 -20.84488,-5.95761 -15.62693,-1.07131 -24.88284,-3.22222 -31.5221,-7.32544 -8.28342,-5.11948 -9.80895,-5.31532 -12.85154,-1.64914 -3.36551,4.05509 -11.0733,5.80381 -11.0733,2.51216 0,-0.90617 2.01687,-5.06195 4.48189,-9.23515 l 4.4819,-7.58711 14.18922,7.61865 c 16.32174,8.7638 40.94762,12.68473 52.32168,8.33064 10.18997,-3.90075 12.77906,2.18271 6.51743,15.31335 -2.49786,5.23815 -4.54156,13.21583 -4.54156,17.72816 0,8.10077 0.19224,8.2045 15.2135,8.2045 8.36743,0 15.2919,-0.93355 15.38769,-2.07457 0.0957,-1.14101 0.78529,-21.05687 1.53222,-44.25746 l 1.35807,-42.18289 -6.83819,0 c -13.11916,0 -15.58657,2.55808 -15.62668,16.201 -0.0432,14.686 -2.37229,25.29037 -5.55473,25.29037 -1.19965,0 -1.53183,-7.16141 -0.73816,-15.91416 1.01316,-11.17307 0.11092,-19.10179 -3.0284,-26.61561 -4.95572,-11.86072 -6.15619,-33.52253 -1.70532,-30.77166 1.52135,0.9402 2.76609,5.17813 2.76609,9.41716 0,7.54728 0.30231,7.6925 14.52198,6.97415 7.98709,-0.4033 45.18806,-0.83343 82.66883,-0.95569 l 68.1468,-0.22129 1.2084,-8.23382 c 0.6647,-4.52864 0.308,-9.69127 -0.7927,-11.47208 -4.4385,-7.18161 -104.62159,-5.13387 -141.74958,2.89747 -10.88427,2.3545 -15.21032,2.05383 -23.51178,-1.63393 -7.64078,-3.39427 -8.93707,-4.81631 -5.20739,-5.7128 2.73125,-0.6564 8.65179,0.0913 13.15678,1.66186 6.17742,2.1534 11.41627,1.80958 21.31198,-1.39937 9.35728,-3.03412 29.16014,-4.61051 69.03499,-5.49539 l 55.9138,-1.24087 15.6419,-16.39905 c 13.0295,-13.66006 15.8713,-18.4335 17.0151,-28.58257 1.8272,-16.2104 -2.3205,-18.09687 -15.9885,-7.2715 -6.1012,4.83209 -16.3483,10.3911 -22.7711,12.35308 -6.4229,1.96172 -18.5241,6.30614 -26.8915,9.65367 -14.5817,5.83423 -16.8216,5.96396 -53.93877,3.12762 -62.7669,-4.79613 -93.86209,-6.0168 -96.83909,-3.80117 -10.89746,8.11018 -29.25037,51.12982 -33.12906,77.65526 -3.12621,21.37939 -6.58092,25.88591 -6.77803,8.8418 -0.19584,-16.93927 13.01764,-58.38444 23.77768,-74.58074 7.33498,-11.04057 6.99223,-12.15116 -2.97751,-9.64895 -12.94536,3.24905 -21.4673,28.54026 -25.37166,75.29771 -1.57358,18.84427 -2.88982,23.45313 -7.38527,25.85881 -4.46516,2.3899 -5.20443,4.91091 -4.02292,13.71953 0.89356,6.66186 0.32659,10.79163 -1.48161,10.79163 -1.61096,0 -7.27465,5.07688 -12.58596,11.28178 -6.65015,7.7694 -11.25144,10.86521 -14.77821,9.94271 -4.56875,-1.19467 -4.93216,-0.0996 -3.36815,10.15544 0.96426,6.3219 2.66278,13.3616 3.7745,15.64362 1.11175,2.28203 3.59472,10.99522 5.51773,19.36264 1.92303,8.36743 3.93956,16.00378 4.48119,16.9697 0.54162,0.96592 12.91925,1.8768 27.50582,2.02395 21.52201,0.21852 28.58794,-0.78696 37.48634,-5.32666 z m 23.96799,-87.0951 c -0.91582,-1.48179 0.2318,-7.03859 2.55025,-12.3481 2.31849,-5.3098 4.75541,-8.23299 5.41543,-6.49645 1.65025,4.34194 -5.89573,22.19401 -7.96568,18.84455 z m 2.05936,-45.40096 c -3.3026,-5.34354 -5.04078,-32.47142 -2.19335,-34.23121 1.62395,-1.00381 3.41502,5.74517 4.44127,16.73485 1.73625,18.59312 1.1672,23.02218 -2.24792,17.49636 z m -33.58066,-16.01788 c 0.79097,-2.66237 2.25453,-8.2637 3.25238,-12.44741 1.603,-6.72106 6.77172,-10.96894 6.73128,-5.53219 -0.0482,6.48345 -6.20432,22.82026 -8.59925,22.82026 -1.55236,0 -2.17534,-2.1783 -1.38441,-4.84066 z m 90.21574,-4.84066 c 0,-2.28203 1.24475,-4.14914 2.76609,-4.14914 1.52136,0 2.7661,1.86711 2.7661,4.14914 0,2.28202 -1.24474,4.14913 -2.7661,4.14913 -1.52134,0 -2.76609,-1.86711 -2.76609,-4.14913 z m -74.68446,-10.90116 c 0,-2.91962 5.30843,-4.14611 6.88734,-1.59134 0.95558,1.54625 -0.20303,2.81118 -2.57495,2.81118 -2.37181,0 -4.31239,-0.54879 -4.31239,-1.21984 z m 43.53208,-14.52393 c -11.7984,-3.07755 -0.43965,-4.92364 24.65616,-4.00696 17.68039,0.64561 25.3002,1.79105 21.70973,3.26316 -5.83181,2.39101 -38.06831,2.90827 -46.36589,0.7438 z m -51.83036,-9.15105 c 0,-1.52136 1.24474,-2.7661 2.76609,-2.7661 1.52136,0 2.76609,1.24474 2.76609,2.7661 0,1.52134 -1.24473,2.76609 -2.76609,2.76609 -1.52135,0 -2.76609,-1.24475 -2.76609,-2.76609 z m 22.12873,-7.81588 c 0,-4.32008 11.17913,-7.00623 14.66212,-3.52317 2.21043,2.21039 1.81848,3.04077 -1.43525,3.04077 -2.46188,0 -6.44505,0.75542 -8.85149,1.67902 -2.40647,0.92332 -4.37538,0.38504 -4.37538,-1.19662 z m -95.44589,186.45531 c -2.02569,-3.16717 -5.11097,-11.17445 -6.85615,-17.79371 -4.05661,-15.38638 -5.83075,-13.88578 -2.78514,2.35589 3.62341,19.32308 8.12644,29.60685 10.958,25.02537 1.43915,-2.32849 0.92324,-6.08512 -1.31671,-9.58755 z m 189.49295,-62.07745 c 0,-16.52269 0.7916,-35.81618 1.7591,-42.87441 l 1.759,-12.83357 -11.16477,0 -11.16475,0 -0.38636,36.4026 c -0.21244,20.02152 -0.96293,37.33531 -1.6676,38.47578 -3.28119,5.30895 2.59216,10.87046 11.48006,10.87046 l 9.38532,0 0,-30.04086 z M 485.23726,681.16666 c -2.28773,-4.82102 -4.15951,-10.1333 -4.15951,-11.80513 0,-5.41988 -8.00598,-3.22443 -16.65439,4.5671 -7.23482,6.51802 -8.18143,8.89354 -6.61312,16.59655 1.00667,4.94439 3.48525,8.98979 5.50796,8.98979 2.02267,0 7.10185,3.42304 11.28703,7.60675 l 7.60941,7.60675 3.59105,-12.39817 c 3.05518,-10.54821 2.97037,-13.70626 -0.56843,-21.16364 z m -41.27025,-44.80681 c 5.78627,-8.62301 13.08027,-17.81114 16.20885,-20.41735 5.41717,-4.51315 5.06906,-4.55437 -7.30118,-0.86883 -7.14429,2.12851 -15.43504,5.17895 -18.42391,6.77859 -10.65,5.69953 -23.06044,34.12416 -18.2777,41.86286 2.5699,4.15826 14.57965,-7.66208 27.79394,-27.35527 z"
       id="path3112"
       inkscape:connector-curvature="0" />
  </g>
</svg>
