<?xml version="1.0" encoding="UTF-8" standalone="no"?>
<!-- Created with Inkscape (http://www.inkscape.org/) -->

<svg
   xmlns:dc="http://purl.org/dc/elements/1.1/"
   xmlns:cc="http://creativecommons.org/ns#"
   xmlns:rdf="http://www.w3.org/1999/02/22-rdf-syntax-ns#"
   xmlns:svg="http://www.w3.org/2000/svg"
   xmlns="http://www.w3.org/2000/svg"
   xmlns:xlink="http://www.w3.org/1999/xlink"
   xmlns:sodipodi="http://sodipodi.sourceforge.net/DTD/sodipodi-0.dtd"
   xmlns:inkscape="http://www.inkscape.org/namespaces/inkscape"
   width="625.83356"
   height="279.54962"
   id="svg2"
   version="1.1"
   inkscape:version="0.48.3.1 r9886"
   sodipodi:docname="Crunches-1.svg"
   inkscape:export-filename="/home/christian/Dokumente/Website/opentraining/cc_exercises/svg/Crunches-1.png"
   inkscape:export-xdpi="90.051376"
   inkscape:export-ydpi="90.051376">
  <defs
     id="defs4">
    <radialGradient
       gradientUnits="userSpaceOnUse"
       gradientTransform="matrix(1,0,0,0.91819829,-19.285714,-7.9105395)"
       r="209.56604"
       fy="287.50052"
       fx="398.1105"
       cy="287.50052"
       cx="398.1105"
       id="radialGradient5255"
       xlink:href="#linearGradient5249"
       inkscape:collect="always" />
    <linearGradient
       id="linearGradient5249"
       inkscape:collect="always">
      <stop
         id="stop5251"
         offset="0"
         style="stop-color:#e3e3e3;stop-opacity:1;" />
      <stop
         id="stop5253"
         offset="1"
         style="stop-color:#e3e3e3;stop-opacity:0;" />
    </linearGradient>
  </defs>
  <sodipodi:namedview
     id="base"
     pagecolor="#ffffff"
     bordercolor="#666666"
     borderopacity="1.0"
     inkscape:pageopacity="0.0"
     inkscape:pageshadow="2"
     inkscape:zoom="1.4"
     inkscape:cx="398.71182"
     inkscape:cy="148.95756"
     inkscape:document-units="px"
     inkscape:current-layer="layer1"
     showgrid="false"
     showguides="true"
     inkscape:guide-bbox="true"
     fit-margin-top="0"
     fit-margin-left="0"
     fit-margin-right="0"
     fit-margin-bottom="0"
     inkscape:window-width="1615"
     inkscape:window-height="1026"
     inkscape:window-x="65"
     inkscape:window-y="24"
     inkscape:window-maximized="1">
    <sodipodi:guide
       orientation="-0.70710678,0.70710678"
       position="-1795.0567,776.23004"
       id="guide2985" />
  </sodipodi:namedview>
  <metadata
     id="metadata7">
    <rdf:RDF>
      <cc:Work
         rdf:about="">
        <dc:format>image/svg+xml</dc:format>
        <dc:type
           rdf:resource="http://purl.org/dc/dcmitype/StillImage" />
        <dc:title />
      </cc:Work>
    </rdf:RDF>
  </metadata>
  <g
     inkscape:label="Ebene 1"
     inkscape:groupmode="layer"
     id="layer1"
     transform="translate(-366.48522,-523.32831)">
    <path
       style="fill:#000000"
       d="m 503.07108,795.77603 c -29.0404,-11.14462 -37.1054,-15.75657 -41.76282,-23.88252 -5.74301,-10.01975 -17.20685,-14.89929 -25.09117,-10.67985 -3.2153,1.721 -5.84601,4.14354 -5.84601,5.38399 0,1.24035 -5.08597,3.77896 -11.30215,5.64124 -10.2454,3.06954 -12.70775,2.72147 -26.33562,-3.72567 -12.64102,-5.98012 -15.30634,-8.56232 -16.74817,-16.22524 -0.94309,-5.01239 -3.78633,-15.61227 -6.31833,-23.55532 -3.9272,-12.31985 -4.09961,-16.69416 -1.17347,-29.76954 4.18439,-18.69788 17.51166,-33.87737 32.15558,-36.62458 6.35938,-1.19312 10.46071,-3.81983 11.60801,-7.43469 2.53018,-7.97184 12.5828,-16.58679 19.34044,-16.57476 3.17025,0 9.66541,2.38958 14.43365,5.29703 14.50294,8.84396 45.64677,39.54432 50.50845,49.78943 3.6622,7.71767 5.7516,9.30952 10.44791,7.96093 17.05681,-4.89802 32.50968,-4.87287 46.26947,0.0755 10.90209,3.9202 16.09402,4.47356 21.89749,2.33311 4.18391,-1.54292 13.89848,-2.44244 21.5879,-1.99869 72.5307,4.18584 73.83523,4.18108 82.82189,-0.30199 4.90177,-2.44551 10.09013,-4.44616 11.52972,-4.44616 4.73905,0 13.08051,-12.40403 15.04291,-22.36923 1.05997,-5.3826 3.74197,-11.11863 5.96002,-12.74656 2.51825,-1.84825 4.49552,-9.72445 5.26481,-20.97114 2.03151,-29.70102 6.9835,-53.57962 14.02779,-67.64287 5.86681,-11.71254 7.72096,-13.2865 15.69326,-13.32256 4.9722,-0.028 14.3423,-1.88769 20.82242,-4.1453 6.48013,-2.25762 13.6806,-3.37636 16.00107,-2.48578 2.32044,0.89028 12.74688,1.94919 23.16985,2.35268 10.42301,0.40348 38.50383,1.72495 62.40188,2.9368 36.58441,1.85497 44.98011,1.51831 53.1269,-2.13067 26.9118,-12.05393 41.33927,-19.5356 50.19316,-26.02856 l 9.75955,-7.15675 4.92036,6.07632 c 5.60954,6.92747 6.53983,25.0636 1.75956,34.30097 -1.73824,3.35931 -8.97331,11.30653 -16.07786,17.66051 l -12.91728,11.55259 6.55289,5.32192 c 5.76601,4.68301 6.32489,6.84219 4.65423,17.98263 -2.40447,16.03427 -6.74684,18.74513 -36.09576,22.53365 l -23.17908,2.99215 -1.83119,54.6746 c -1.00706,30.07095 -2.45996,55.3035 -3.2286,56.07214 -4.21484,4.21492 -4.70668,-7.50516 -2.46977,-58.85991 l 2.47037,-56.71494 19.57306,-3.16385 c 18.24025,-2.94826 15.83924,-3.18621 -35.26071,-3.4952 -57.13661,-0.34532 -80.77967,1.37628 -80.77967,5.88144 0,1.46098 5.27029,2.23384 11.7118,1.71711 l 11.7118,-0.9395 -1.15079,29.35961 c -0.63291,16.14779 -1.18473,37.73942 -1.22623,47.98173 -0.0414,10.24202 -0.70505,19.26014 -1.47457,20.04008 -0.76953,0.78011 -10.20655,2.0037 -20.97116,2.71921 l -19.57201,1.3013 -0.29659,10.11542 -0.29659,10.11532 12.18025,0 c 6.69913,0 12.18024,-1.25824 12.18024,-2.79613 0,-1.5379 7.23505,-2.80709 16.07789,-2.82045 8.84283,0 22.68379,-0.81787 30.75768,-1.78761 13.58778,-1.6321 14.67981,-2.31661 14.67981,-9.20072 0,-6.71612 -0.88129,-7.34802 -9.08749,-6.51477 -16.01095,1.62592 -16.66002,-0.10906 -16.05944,-42.91761 0.29953,-21.35005 0.61567,-40.07672 0.70256,-41.61462 0.087,-1.53788 -0.75372,-5.62726 -1.86802,-9.08749 -1.93409,-6.00586 -1.3303,-6.29135 13.31257,-6.29135 16.02498,0 24.97262,2.05489 22.98086,5.27774 -0.92891,1.50293 -4.46132,92.05693 -4.40254,112.85976 0.0112,4.34723 -3.22799,4.89325 -29.02844,4.89325 l -29.04226,0 -1.39935,9.08752 c -2.55002,16.55969 1.62417,18.20916 43.48416,17.18212 20.33397,-0.49888 52.25116,-1.69956 70.92709,-2.66816 l 33.95627,-1.76095 1.72968,-8.64853 c 0.95133,-4.75651 0.65264,-9.72532 -0.66367,-11.04147 -1.31633,-1.31641 -12.75623,-2.41612 -25.42189,-2.44407 -34.99129,-0.0755 -39.85956,-4.05525 -7.55866,-6.17703 33.85573,-2.22406 38.11807,-0.24884 38.0573,17.62865 -0.0222,6.935 -1.01733,14.14296 -2.20847,16.01773 -1.60745,2.52968 -20.87818,3.4533 -74.75434,3.5825 -39.92374,0.0951 -73.95949,0.13414 -75.63496,0.0868 -3.97737,-0.11469 -9.53634,-12.46616 -9.53634,-21.19014 0,-6.44957 -0.9175,-6.85867 -15.37885,-6.85867 -10.42487,0 -15.38738,-1.12601 -15.40529,-3.49516 -0.014,-1.92235 -3.09278,1.61977 -6.84052,7.87138 -8.79267,14.66695 -17.16414,18.23295 -43.19295,18.39816 -44.65522,0.28358 -60.59821,1.42018 -66.70331,4.7554 -7.40644,4.04639 -32.43325,7.97496 -73.37524,11.51796 -49.18883,4.25685 -69.01005,3.23321 -89.47693,-4.62125 z m 83.88463,-3.14509 c 8.45835,-1.65337 24.81586,-3.6068 36.34999,-4.34045 22.5715,-1.43589 46.71324,-6.57295 49.10932,-10.44986 0.81383,-1.31667 -0.75218,-11.98733 -3.48005,-23.71243 l -4.95974,-21.31847 -16.81188,1.90195 c -9.24654,1.04605 -18.42759,3.24302 -20.40236,4.8818 -5.02708,4.17211 -7.8006,0.42838 -3.51138,-4.73976 2.97997,-3.59084 2.60237,-4.26189 -2.39768,-4.26189 -4.46624,0 -5.9347,1.7297 -5.9347,6.99039 0,3.8447 -1.25826,6.9904 -2.79614,6.9904 -1.53789,0 -2.79617,-2.45284 -2.79617,-5.45059 0,-2.99774 -4.04382,-9.2298 -8.98627,-13.84906 -4.94246,-4.61896 -8.06714,-9.31735 -6.94377,-10.44084 1.12336,-1.12349 3.53143,-0.55364 5.35128,1.26638 1.81982,1.81974 5.70827,3.30869 8.64101,3.30869 3.57328,0 4.80524,1.37319 3.73468,4.1632 -1.28759,3.35538 0.28185,3.86455 8.0893,2.62363 5.60061,-0.89002 9.68686,-0.36406 9.68686,1.2468 0,1.61758 7.61161,2.56938 18.14897,2.26937 14.04738,-0.39958 18.14519,-1.46437 18.1322,-4.7107 -0.033,-8.20671 -4.3558,-10.60665 -22.3004,-12.38052 -9.99625,-0.98816 -22.57895,-2.48159 -27.96155,-3.31904 -5.38259,-0.83716 -13.1493,-0.23207 -17.25936,1.34496 -5.74182,2.20281 -8.2387,1.94417 -10.77918,-1.11707 -2.38369,-2.87221 -4.73375,-3.22005 -8.42122,-1.24652 -7.46362,3.9943 -21.35658,3.34782 -30.58277,-1.42325 -6.34898,-3.28297 -11.07478,-3.58607 -22.41029,-1.43609 -21.51771,4.08069 -22.57933,5.10213 -17.76661,17.09594 l 4.05325,10.10142 25.71865,2.74327 c 14.62859,1.56028 27.08503,1.6953 28.88734,0.3129 1.98512,-1.52253 3.78607,-0.82126 4.82162,1.87738 0.90913,2.36914 4.9066,5.54444 8.88326,7.05638 3.97666,1.5121 6.49022,3.94645 5.58566,5.41021 -0.90456,1.46357 0.90713,4.02676 4.02596,5.69576 3.11886,1.66935 5.68988,2.04686 5.71343,0.83941 0.0531,-2.72512 5.44757,5.39606 5.50669,8.29004 0.0959,4.70121 -9.28346,1.54493 -22.57197,-7.59598 -7.75036,-5.33146 -18.72987,-10.41713 -24.39897,-11.30176 -5.66906,-0.88473 -13.971,-2.19419 -18.44874,-2.90997 -7.74443,-1.23818 -7.91481,-1.05108 -3.49519,3.83237 5.66171,6.25613 5.89074,8.88782 0.7735,8.88782 -2.12995,0 -5.93378,-3.1456 -8.45292,-6.99038 -6.72573,-10.26467 -11.02492,-8.90319 -8.83009,2.79622 1.45479,7.75452 0.93887,9.78653 -2.48496,9.78653 -2.37652,0 -4.32093,-2.00544 -4.32093,-4.45628 0,-2.45076 -3.92976,-17.23544 -8.73281,-32.85478 l -8.73283,-28.39857 -26.24906,-25.86443 c -14.94,-14.72119 -28.58718,-25.86442 -31.67595,-25.86442 -8.81606,0 -29.83156,35.11437 -33.77551,56.43477 -1.79707,9.71496 -6.91004,23.72369 -11.36216,31.13075 -4.45212,7.40722 -8.09476,15.07621 -8.09476,17.04276 0,4.9484 7.91077,11.4992 19.82544,16.41651 8.99782,3.71386 10.81012,3.67557 17.47595,-0.36908 8.90582,-5.40353 9.85639,-15.70656 1.84477,-19.99414 -3.07577,-1.64608 -5.59231,-5.60852 -5.59231,-8.80509 0,-8.26462 11.22991,-27.18256 17.27469,-29.101 2.802,-0.88946 5.09454,-2.79057 5.09454,-4.22472 0,-1.43414 1.88741,-2.60768 4.19423,-2.60768 2.30683,0 4.19424,1.79094 4.19424,3.98004 0,2.18911 4.40394,9.74964 9.78653,16.80125 8.4011,11.00596 9.78654,14.96414 9.78654,27.96095 0,21.44349 7.65267,29.80595 35.72786,39.04158 30.13616,9.91355 54.94862,11.33815 87.30292,5.01299 z m 37.74808,-13.08267 c -1.53789,-0.51278 -6.55319,-1.77025 -11.14512,-2.79415 -14.19283,-3.16444 -1.9315,-6.31204 16.73742,-4.29661 16.10154,1.7381 16.46003,1.945 8.90547,5.13793 -8.01952,3.38975 -9.56603,3.59812 -14.49777,1.95283 z m -32.15578,-43.1992 c 0,-1.44699 1.25827,-3.40875 2.79616,-4.35921 1.53788,-0.95037 2.79615,0.23208 2.79615,2.63126 0,2.39736 -1.25827,4.35913 -2.79615,4.35913 -1.53789,0 -2.79616,-1.18384 -2.79616,-2.63118 z m -59.93802,-9.41042 c 1.72383,-4.49231 20.80766,-13.44392 24.1961,-11.34987 3.24214,2.00372 -3.00794,9.41072 -7.94086,9.41072 -2.1185,0 -3.85184,1.25828 -3.85184,2.79616 0,1.53789 -3.10619,2.79617 -6.90264,2.79617 -4.53248,0 -6.42128,-1.25438 -5.50076,-3.65318 z m 45.95725,1.43245 c 0,-1.47776 2.03253,-4.37373 4.51673,-6.43534 3.90775,-3.24326 4.37901,-3.03774 3.4952,1.52306 -1.05314,5.43461 -8.01193,9.70124 -8.01193,4.91228 z m -1.39809,-14.55621 c 0.95048,-1.53788 2.91215,-2.79615 4.35928,-2.79615 1.44712,0 2.63113,1.25827 2.63113,2.79615 0,1.5379 -1.96168,2.79615 -4.35927,2.79615 -2.3976,0 -3.5816,-1.25825 -2.63114,-2.79615 z m 180.67574,58.55397 c 6.44132,-3.286 12.30592,-8.828 14.00043,-13.23027 1.60375,-4.16657 5.20409,-12.01312 8.00068,-17.43652 2.7966,-5.42367 6.54207,-15.48986 8.32326,-22.36925 1.7812,-6.87965 3.81991,-14.52853 4.5305,-16.99782 1.08527,-3.77145 -2.28553,-4.735 -21.07143,-6.02236 -15.79676,-1.08294 -25.15327,-3.25724 -31.86469,-7.40504 -8.37345,-5.17512 -9.91555,-5.3731 -12.9912,-1.66708 -3.4021,4.09916 -11.19366,5.86689 -11.19366,2.53948 0,-0.91602 2.03879,-5.11697 4.53061,-9.33553 l 4.53061,-7.66956 14.34344,7.70144 c 15.74789,8.45557 41.28067,12.80946 51.85631,8.84255 6.00626,-2.25313 6.88167,-4.55577 7.896,-20.7701 0.7829,-12.51476 -0.23991,-21.54074 -3.26,-28.76879 -4.91661,-11.76706 -6.05172,-33.56922 -1.60466,-30.82089 1.53789,0.95042 2.79616,5.2344 2.79616,9.51951 0,7.6293 0.30558,7.7761 14.67981,7.04994 8.07389,-0.40768 45.67916,-0.84248 83.56724,-0.96607 l 68.88744,-0.22369 1.22159,-8.32332 c 0.67193,-4.57786 0.22566,-9.9255 -0.99177,-11.88365 -3.40121,-5.47095 -106.18534,-4.11369 -134.53062,1.7764 -20.09313,4.17522 -22.46228,4.16515 -32.15577,-0.13702 -7.82166,-3.47115 -9.19669,-4.94863 -5.4446,-5.85039 2.76091,-0.66353 8.74579,0.0923 13.29975,1.67993 6.24457,2.17681 11.54035,1.82924 21.54362,-1.41457 9.45897,-3.06711 29.47705,-4.66063 69.78523,-5.55512 l 56.52152,-1.25435 15.81187,-16.57728 c 13.17113,-13.80852 16.04373,-18.63413 17.20002,-28.89322 1.84716,-16.38657 -2.34572,-18.29356 -16.16222,-7.35053 -6.16757,4.8846 -16.52601,10.50403 -23.01863,12.48734 -6.49264,1.98304 -18.72532,6.37467 -27.18372,9.75858 -14.74022,5.89737 -17.0044,6.02879 -54.52499,3.16162 -63.44907,-4.84826 -94.88221,-6.08219 -97.89156,-3.84249 -11.34805,8.44551 -26.34911,44.86234 -35.41952,85.9851 l -3.70046,16.77692 -0.85266,-14.89568 c -0.9517,-16.62592 12.08301,-58.38285 23.66792,-75.82051 7.41471,-11.16055 7.06824,-12.28321 -3.00986,-9.75381 -13.08606,3.28435 -21.70061,28.85043 -25.64741,76.11605 -1.59068,19.04909 -2.92122,23.70804 -7.46554,26.13986 -4.51369,2.41587 -5.26099,4.96428 -4.06663,13.86864 0.90326,6.73425 0.33013,10.9089 -1.49771,10.9089 -1.62849,0 -7.35372,5.13208 -12.72276,11.4044 -6.72242,7.85385 -11.37371,10.9833 -14.93881,10.05078 -4.61841,-1.20765 -4.98577,-0.10066 -3.40477,10.2658 0.97475,6.39061 2.69171,13.50687 3.81553,15.81367 1.12383,2.3068 3.63379,11.11466 5.57771,19.57305 1.94391,8.45839 3.98237,16.17775 4.52988,17.15417 0.54752,0.97641 13.05966,1.89717 27.80475,2.04589 21.75592,0.21811 28.89865,-0.79547 37.89377,-5.3845 z m 24.22848,-88.04165 c -0.92579,-1.4979 0.23431,-7.11509 2.57797,-12.48231 2.34367,-5.36749 4.80709,-8.32247 5.47427,-6.56705 1.66819,4.38913 -5.9598,22.43523 -8.05224,19.04936 z m 2.08172,-45.89439 c -3.33849,-5.40161 -5.09556,-32.82433 -2.21716,-34.60324 1.64158,-1.01473 3.45212,5.80761 4.48952,16.91673 1.75512,18.79518 1.17989,23.27239 -2.27236,17.68651 z m -33.94561,-16.19197 c 0.79956,-2.69129 2.27903,-8.35351 3.28773,-12.58269 1.62042,-6.7941 6.84532,-11.08814 6.80443,-5.59231 -0.0486,6.55391 -6.27174,23.06827 -8.69271,23.06827 -1.56924,0 -2.19898,-2.20197 -1.39945,-4.89327 z m 91.19623,-4.89326 c 0,-2.30683 1.25826,-4.19424 2.79614,-4.19424 1.5379,0 2.79616,1.88741 2.79616,4.19424 0,2.30683 -1.25826,4.19422 -2.79616,4.19422 -1.53788,0 -2.79614,-1.88739 -2.79614,-4.19422 z m -75.49615,-11.01965 c 0,-2.95135 5.36612,-4.19116 6.9622,-1.60863 0.96596,1.56304 -0.20524,2.84173 -2.60295,2.84173 -2.39758,0 -4.35925,-0.55474 -4.35925,-1.2331 z m 44.00519,-14.68176 c -11.92663,-3.11101 -0.44442,-4.97717 24.92414,-4.05052 17.87253,0.65263 25.57515,1.81052 21.94566,3.29863 -5.89518,2.41699 -38.48204,2.93988 -46.8698,0.75189 z m -52.39366,-9.25051 c 0,-1.53789 1.25827,-2.79616 2.79615,-2.79616 1.53788,0 2.79616,1.25827 2.79616,2.79616 0,1.53787 -1.25828,2.79615 -2.79616,2.79615 -1.53788,0 -2.79615,-1.25828 -2.79615,-2.79615 z m 22.36923,-7.90082 c 0,-4.36704 11.30062,-7.08238 14.82146,-3.56146 2.23446,2.2344 1.83825,3.07381 -1.45085,3.07381 -2.48863,0 -6.51509,0.76363 -8.94768,1.69727 -2.43263,0.93335 -4.42293,0.38922 -4.42293,-1.20962 z m -96.48321,188.48174 c -2.04771,-3.2016 -5.16652,-11.29585 -6.93066,-17.98705 -4.10071,-15.55365 -5.89414,-14.03669 -2.81543,2.38147 3.6628,19.53304 8.21477,29.92863 11.0771,25.2973 1.4548,-2.35377 0.93328,-6.15124 -1.33101,-9.69172 z M 457.22062,741.53711 c -0.94294,-5.89686 -4.66742,-13.67434 -8.27662,-17.28361 -3.60919,-3.609 -7.19335,-8.37813 -7.96478,-10.59743 -1.9378,-5.57497 -11.62732,3.09898 -16.43949,14.71672 -3.06838,7.40759 -2.91442,9.0232 1.14259,11.9896 2.57881,1.8858 4.68876,5.5361 4.68876,8.11197 0,3.61062 1.1315,4.07791 4.93921,2.04008 3.33335,-1.78395 7.18567,-1.44118 11.84859,1.05438 9.51062,5.08983 12.07151,2.53672 10.06174,-10.03171 z m -70.77314,-20.0328 c 2.40393,-6.536 5.92843,-19.43326 7.83225,-28.66058 1.90381,-9.2273 4.66592,-18.34975 6.13801,-20.27211 6.25253,-8.16477 -3.69349,-2.74441 -14.14908,7.71124 -12.09722,12.09728 -16.29445,24.97049 -13.06058,40.05771 3.67583,17.14962 7.24447,17.4634 13.2394,1.16374 z m 438.35738,6.9904 c 0.0967,-1.15341 0.79382,-21.28573 1.54888,-44.73847 l 1.37282,-42.64135 -7.84024,0.042 c -4.31213,0.028 -9.23237,0.96718 -10.93389,2.09711 -2.82186,1.8737 -7.15748,32.02911 -6.85296,47.6638 0.0694,3.55474 -1.75383,10.09803 -4.05124,14.54083 -2.29742,4.44282 -4.17714,11.91498 -4.17714,16.60497 0,8.47204 0.0995,8.52743 15.37885,8.52743 8.45836,0 15.45809,-0.9437 15.55492,-2.09712 z m 50.15469,-28.27024 c 0,-16.70227 0.80017,-36.20543 1.77813,-43.34038 l 1.77816,-12.97304 -11.28611,0 -11.28609,0 -0.39057,36.79822 c -0.21474,20.23912 -0.97339,37.74109 -1.68571,38.89394 -3.31686,5.36666 2.62032,10.98862 11.60482,10.98862 l 9.48737,0 0,-30.36736 z m -205.08127,12.83826 c -0.76596,-1.89328 -1.34599,0.33274 -1.28901,4.94639 0.0571,4.61365 0.68367,6.16245 1.3926,3.44207 0.70893,-2.72065 0.66232,-6.49547 -0.10346,-8.38846 z"
       id="path3078"
       inkscape:connector-curvature="0" />
  </g>
</svg>
