<?xml version="1.0" encoding="UTF-8" standalone="no"?>
<!-- Created with Inkscape (http://www.inkscape.org/) -->

<svg
   xmlns:dc="http://purl.org/dc/elements/1.1/"
   xmlns:cc="http://creativecommons.org/ns#"
   xmlns:rdf="http://www.w3.org/1999/02/22-rdf-syntax-ns#"
   xmlns:svg="http://www.w3.org/2000/svg"
   xmlns="http://www.w3.org/2000/svg"
   xmlns:sodipodi="http://sodipodi.sourceforge.net/DTD/sodipodi-0.dtd"
   xmlns:inkscape="http://www.inkscape.org/namespaces/inkscape"
   width="197.00002"
   height="178.74992"
   id="svg2"
   version="1.1"
   inkscape:version="0.48.3.1 r9886"
   sodipodi:docname="Decline-crunch-1.svg">
  <defs
     id="defs4" />
  <sodipodi:namedview
     id="base"
     pagecolor="#ffffff"
     bordercolor="#666666"
     borderopacity="1.0"
     inkscape:pageopacity="0.0"
     inkscape:pageshadow="2"
     inkscape:zoom="2.8"
     inkscape:cx="153.30501"
     inkscape:cy="43.88317"
     inkscape:document-units="px"
     inkscape:current-layer="layer1"
     showgrid="false"
     fit-margin-top="0"
     fit-margin-left="0"
     fit-margin-right="0"
     fit-margin-bottom="0"
     inkscape:window-width="1615"
     inkscape:window-height="1026"
     inkscape:window-x="65"
     inkscape:window-y="24"
     inkscape:window-maximized="1" />
  <metadata
     id="metadata7">
    <rdf:RDF>
      <cc:Work
         rdf:about="">
        <dc:format>image/svg+xml</dc:format>
        <dc:type
           rdf:resource="http://purl.org/dc/dcmitype/StillImage" />
        <dc:title></dc:title>
      </cc:Work>
    </rdf:RDF>
  </metadata>
  <g
     inkscape:label="Ebene 1"
     inkscape:groupmode="layer"
     id="layer1"
     transform="translate(-545.93795,-301.78288)">
    <path
       style="fill:#000000"
       d="m 611.53894,467.59166 c -0.30161,-0.48801 1.35229,-2.65224 3.67532,-4.80939 2.32304,-2.15715 20.8659,-19.43176 41.20635,-38.38803 20.34046,-18.95627 38.50764,-35.81595 40.37152,-37.46595 6.42378,-5.68666 8.14584,-7.7988 8.14584,-9.99104 0,-2.86575 -2.9864,-5.50896 -6.22424,-5.50896 -2.1583,0 -3.0495,0.99458 -5.60036,6.25 -1.66848,3.4375 -3.96551,6.81631 -5.1045,7.50847 -1.139,0.69216 -2.0709,1.92094 -2.0709,2.73061 0,0.80968 -2.24576,3.14875 -4.99057,5.19794 -2.99324,2.23466 -5.40054,4.96803 -6.01493,6.82965 -1.06117,3.21538 -8.11271,11.48333 -9.79386,11.48333 -0.52566,0 -1.55565,0.72284 -2.28887,1.60631 -2.33962,2.81907 -8.73616,1.15505 -21.27937,-5.53569 -9.8338,-5.2455 -11.6324,-6.57194 -11.6324,-8.57874 0,-1.30562 -0.42605,-2.63716 -0.94679,-2.95899 -1.9939,-1.2323 -6.73968,-9.2802 -8.28471,-14.04923 -2.39157,-7.38199 -4.10158,-20.87373 -3.49438,-27.57004 0.2935,-3.23677 1.43217,-7.80397 2.53039,-10.14933 1.09821,-2.34536 2.52434,-5.94565 3.16917,-8.00064 1.80238,-5.74396 10.02119,-12.42682 16.97532,-13.80293 8.02764,-1.58855 8.60036,-1.80529 10.59549,-4.00988 1.35935,-1.50207 1.52369,-2.28266 0.66195,-3.1444 -1.66575,-1.66575 3.40571,-10.55451 7.11677,-12.47358 3.3885,-1.75226 9.47089,-1.033 10.33634,1.22231 0.73856,1.92466 3.82423,1.82918 6.94384,-0.21487 1.9797,-1.29715 3.3373,-1.46098 6.21482,-0.75 3.15003,0.77831 3.86996,1.50413 4.98464,5.02538 0.71656,2.26362 3.58738,6.95076 6.3796,10.41587 2.79222,3.46511 5.95532,8.36305 7.02912,10.88432 1.0738,2.52127 2.62235,6.0693 3.44122,7.8845 1.44296,3.19866 1.40353,3.36817 -1.27944,5.5 -1.52256,1.2098 -3.91693,2.72558 -5.32082,3.36841 -2.32278,1.06358 -2.05182,1.17609 3.01038,1.25 8.36262,0.1221 10.50898,2.81663 13.49379,16.94009 1.27967,6.05514 3.02792,13.37067 3.88499,16.25674 0.85707,2.88606 1.56326,8.65322 1.56932,12.81589 0.0191,13.1598 0.57847,14.78566 6.38377,18.55594 3.12485,2.02945 7.04478,3.58407 10.10522,4.00767 5.85249,0.81006 7.5,1.91111 7.5,5.01232 0,2.94807 -3.09341,4.88952 -11.05036,6.93532 -3.5473,0.91204 -8.73919,2.31053 -11.53753,3.10775 -11.61689,3.30956 -17.29458,0.72806 -18.15782,-8.2559 -0.4752,-4.94546 -0.56248,-5.06671 -3.12158,-4.33645 -1.44799,0.4132 -3.53271,0.39828 -4.63271,-0.0332 -1.1,-0.43143 -2.3375,-0.81605 -2.75,-0.8547 -0.4125,-0.0387 -0.75689,7.91721 -0.76531,17.67971 -0.0102,11.82968 -0.33864,17.24969 -0.98469,16.25 -0.55954,-0.86583 -0.97585,-12.17519 -0.98469,-26.75 -0.008,-13.8875 -0.38112,-25.25 -0.82822,-25.25 -0.4471,0 -2.0221,1.26212 -3.5,2.80472 l -2.68709,2.80476 0,23.2543 c 0,15.24822 -0.34428,23.04151 -1,22.63626 -0.61655,-0.38105 -1,-8.8715 -1,-22.14235 0,-11.83837 -0.39201,-21.37432 -0.87114,-21.19098 -0.47912,0.18333 -12.06662,10.72396 -25.75,23.42361 -32.01032,29.70906 -41.10145,37.66759 -41.77789,36.57309 z m 103.40563,-38.18395 c 1.92137,-0.56132 4.8434,-1.2256 6.4934,-1.47616 10.41863,-1.58216 19.5,-5.08725 19.5,-7.52631 0,-0.53732 -0.83771,-0.97695 -1.86158,-0.97695 -2.33199,0 -18.4873,-7.51052 -19.95228,-9.27571 -1.79385,-2.16146 -3.37598,-10.80693 -3.26328,-17.83209 0.0583,-3.6343 -0.60051,-9.7093 -1.46403,-13.5 -0.86352,-3.79071 -2.44503,-10.9422 -3.51448,-15.8922 -2.22057,-10.27807 -4.69671,-13.5 -10.37511,-13.5 -5.62701,0 -9.61996,1.13978 -9.33371,2.66429 0.16629,0.88564 -1.92583,2.30428 -5.63573,3.82152 -3.24511,1.32716 -7.3611,3.82897 -9.14664,5.55959 l -3.24644,3.14657 3.77979,3.41481 c 2.07889,1.87815 4.34399,4.77692 5.03357,6.44171 1.61764,3.90531 2.88729,3.39873 6.07158,-2.42253 2.96767,-5.42522 5.55156,-8.31607 6.54507,-7.32257 0.37639,0.37639 -0.009,1.47461 -0.85561,2.44048 -0.84697,0.96587 -2.32184,3.33113 -3.2775,5.25613 -0.95566,1.925 -2.66897,4.51846 -3.80735,5.76324 -1.39404,1.52434 -1.73991,2.59312 -1.0594,3.27363 1.34483,1.34483 4.03523,-1.69136 7.86313,-8.87377 2.87216,-5.38912 6.81147,-8.70667 8.84566,-7.44947 0.53043,0.32783 0.22089,1.13014 -0.69417,1.79926 -2.46485,1.80234 -2.01189,3.16583 1.453,4.37369 2.99742,1.04491 3.08299,0.99655 2.48095,-1.40217 -0.34992,-1.39419 -0.18862,-2.48441 0.36757,-2.48441 2.26316,0 5.98999,19.01387 6.02718,30.75 0.0325,10.25011 -1.62526,7.08349 -2.33112,-4.4529 -0.36017,-5.88659 -1.05268,-11.10071 -1.5389,-11.58693 -0.51204,-0.51204 -2.29363,0.37544 -4.23395,2.10912 l -3.34992,2.99315 2.12692,3.84378 c 3.43304,6.20419 4.47902,13.49606 3.7309,26.00937 -0.67306,11.25793 -0.66798,11.29406 1.72041,12.24944 3.11886,1.24756 2.86039,1.24515 6.90207,0.0644 z m -4.33993,-8.64609 c -1.05343,-1.05343 -0.77555,-6.33333 0.33333,-6.33333 0.55,0 1,1.03813 1,2.30696 0,1.58658 0.85872,2.64628 2.75,3.39362 l 2.75,1.08666 -3.08333,0.10638 c -1.69584,0.0585 -3.38334,-0.19362 -3.75,-0.56029 z m -12.40477,-59.02381 c 0.92977,-0.92976 1.97126,-1.4097 2.31443,-1.06653 0.98418,0.98419 -0.52669,2.75701 -2.34963,2.75701 -1.52648,0 -1.52374,-0.13153 0.0352,-1.69048 z m 8.2381,0.69048 c -0.33992,-0.55 0.0835,-1 0.94098,-1 0.85746,0 1.55902,0.45 1.55902,1 0,0.55 -0.42344,1 -0.94098,1 -0.51754,0 -1.2191,-0.45 -1.55902,-1 z m -12.25,-8.6405 c -2.57447,-1.08368 -1.11245,-2.15452 2.74372,-2.00959 2.19654,0.0826 3.84934,0.60009 3.67288,1.15009 -0.3586,1.11769 -4.48887,1.67094 -6.4166,0.8595 z m 5.43822,60.17207 c 4.71022,-1.34991 5.06564,-13.22233 0.65314,-21.81797 l -1.43037,-2.78641 -2.7055,1.92848 c -3.86713,2.75649 -7.23679,6.67658 -5.05851,5.88481 2.28997,-0.83236 2.94602,3.31269 1.5658,9.89293 -1.19642,5.70398 0.0506,8.83024 3.1784,7.96851 0.88485,-0.24377 2.59352,-0.72543 3.79704,-1.07035 z m -34.40589,-5.53157 c 3.66677,-3.13735 7.98392,-9.76019 7.19468,-11.0372 -0.32727,-0.52954 -0.16748,-0.9628 0.35509,-0.9628 1.25335,0 10.31408,-7.50982 11.39836,-9.44732 0.55347,-0.989 -0.0613,-3.43286 -1.7748,-7.05481 -3.10616,-6.5659 -6.69287,-11.05206 -10.34692,-12.94164 -2.59818,-1.34357 -2.72377,-1.26016 -6.07635,4.03592 -1.88283,2.97432 -3.78537,5.40785 -4.22786,5.40785 -1.09742,0 -1.02164,-2.74778 0.0948,-3.43779 0.49464,-0.3057 1.83276,-2.13785 2.97361,-4.07144 l 2.07426,-3.51563 -2.7236,0.6283 c -2.44287,0.56353 -2.20822,0.14055 2.27639,-4.10343 2.75,-2.60245 6.69665,-5.87044 8.77033,-7.2622 2.07368,-1.39177 3.63253,-2.66828 3.46411,-2.8367 -0.16841,-0.16842 -2.89861,-0.71274 -6.06709,-1.20961 l -5.76089,-0.90339 -1.45323,3.47807 c -0.79927,1.91294 -1.45322,4.27588 -1.45322,5.25098 0,0.97511 -1.14254,2.83265 -2.53897,4.12788 -2.05638,1.90734 -5.46103,7.81578 -5.46103,9.47708 0,1.19533 2.44274,0.0531 4.00363,-1.87212 2.42439,-2.99027 3.61925,-1.63027 1.46126,1.66324 -1.07543,1.64131 -2.60924,2.58676 -4.19653,2.58676 -2.08868,0 -2.40621,0.36488 -1.92358,2.21043 2.065,7.89657 -9.00743,24.78957 -16.24819,24.78957 -3.25137,0 -1.78202,1.51739 4.93737,5.09879 3.28132,1.74892 5.96604,3.60857 5.96604,4.13255 0,0.5377 2.69204,0.8037 6.18023,0.61067 4.83496,-0.26756 6.81624,-0.88619 9.1021,-2.84201 z m -10.28183,-11.75 c 2.8e-4,-0.4125 0.90578,-3.1318 2.01223,-6.0429 1.48441,-3.90552 1.74639,-5.78866 0.99949,-7.18426 -1.23102,-2.30019 -1.33684,-5.3415 -0.16055,-4.61451 0.46842,0.2895 1.65385,2.62684 2.6343,5.19411 1.60145,4.19334 1.62415,4.75643 0.22334,5.54037 -0.85762,0.47994 -2.07795,2.44415 -2.71186,4.36491 -1.00487,3.04481 -2.99838,4.86891 -2.99695,2.74228 z m 7.9995,-5.28518 c 0,-3.83868 -0.58014,-6.92059 -1.59401,-8.46796 -2.93224,-4.47516 -0.85202,-4.84783 2.6163,-0.46872 2.19795,2.77515 2.986,4.4691 2.20084,4.73082 -0.74304,0.24768 -1.22313,2.33754 -1.22313,5.32437 0,2.70417 -0.45,4.91667 -1,4.91667 -0.5562,0 -1,-2.67839 -1,-6.03518 z m -19.9067,5.96875 c 1.59612,-1.13654 4.26008,-4.04029 5.91992,-6.45279 3.05892,-4.44598 4.98153,-10.48078 3.33905,-10.48078 -0.49375,0 -0.89772,-1.8 -0.89772,-4 0,-2.2 0.34772,-4 0.77272,-4 0.425,0 0.77273,-0.45 0.77273,-1 0,-0.55 0.9,-1.9 2,-3 1.1,-1.1 2,-3.05526 2,-4.34501 0,-1.28976 0.93715,-3.19312 2.08255,-4.2297 1.8209,-1.64789 4.91745,-7.50588 4.91745,-9.30272 0,-0.34826 -1.56313,-1.12244 -3.47362,-1.72041 -3.05095,-0.95494 -3.70101,-0.83261 -5.34242,1.00531 -2.27964,2.55255 -7.44271,11.87048 -6.12681,11.05721 1.47177,-0.90961 1.10612,1.15493 -0.4304,2.43013 -0.75529,0.62683 -2.21779,0.82268 -3.25,0.43521 -1.67304,-0.62801 -1.72396,-0.51674 -0.46913,1.02513 0.97657,1.19996 1.72682,1.41041 2.45,0.68723 1.62555,-1.62555 2.64238,-1.23433 2.64238,1.01664 0,1.13246 -0.41157,1.80465 -0.91459,1.49377 -0.50302,-0.31089 -1.14377,5e-5 -1.42387,0.69098 -0.38551,0.95093 -0.77081,0.89169 -1.58541,-0.24377 -0.95656,-1.33333 -1.19216,-1.33333 -2.12038,0 -1.07993,1.55124 -0.75008,9.17282 0.53016,12.25 0.44295,1.06469 0.28487,1.75 -0.40367,1.75 -1.70792,0 -2.93121,-4.11468 -3.41265,-11.47886 -0.23794,-3.63963 -0.71227,-6.89715 -1.05405,-7.23894 -0.34179,-0.34178 1.12189,-1.66101 3.25261,-2.93162 3.74451,-2.23296 11.92256,-13.8932 10.64218,-15.17358 -0.30833,-0.30833 -2.01179,-0.0515 -3.78546,0.57079 -1.77368,0.62226 -4.91237,1.43365 -6.97487,1.80309 -3.0597,0.54805 -3.75,0.37509 -3.75,-0.93959 0,-1.00026 0.85325,-1.61647 2.25,-1.62495 3.52997,-0.0214 6.78149,-1.12637 6.17974,-2.10003 -0.30291,-0.49011 3.16656,-0.8523 7.76124,-0.81023 7.68064,0.0703 8.05846,0.16684 4.99592,1.27629 l -3.31311,1.20021 3.31311,1.19564 c 6.78697,2.44928 17.01795,2.66917 23.9173,0.51404 3.51769,-1.09881 8.9833,-2.75532 12.1458,-3.68114 5.66826,-1.65939 7.19512,-3.57087 4.89743,-6.13112 -0.46892,-0.5225 -1.44842,-3.16257 -2.17667,-5.86682 -0.9193,-3.41368 -2.69423,-6.31797 -5.80583,-9.5 -2.46495,-2.52075 -5.50896,-7.05818 -6.76447,-10.08318 -1.63772,-3.9459 -2.89324,-5.59406 -4.44331,-5.83288 -4.23356,-0.65226 -6.90162,0.80372 -8.99611,4.90925 l -2.06328,4.04436 3.80112,1.52033 c 5.26704,2.10666 9.30112,8.07693 9.30112,13.7653 0,3.07119 -0.47258,4.56101 -1.58179,4.98665 -2.36241,0.90655 -2.69032,0.75847 -2.04491,-0.92343 0.3793,-0.98845 -0.25094,-1.91234 -1.77969,-2.60888 -3.05867,-1.39362 -8.23727,0.88323 -7.79977,3.42929 0.38624,2.24777 -1.6786,2.2144 -2.47424,-0.04 -1.361,-3.8563 -4.60062,-6.25 -8.45873,-6.25 -2.83895,0 -4.07542,-0.53237 -4.92545,-2.12068 -0.90942,-1.69925 -0.87402,-1.95941 0.17811,-1.30915 0.72219,0.44634 2.89472,0.97378 4.82785,1.17209 1.93312,0.19832 4.23507,1.01244 5.11544,1.80916 2.17597,1.96923 2.7371,1.8305 3.24176,-0.80142 0.23728,-1.2375 0.35439,-0.76061 0.26024,1.05976 -0.16002,3.09404 -0.005,3.26348 2.385,2.59965 1.4059,-0.39057 4.35618,-0.99109 6.55618,-1.33451 3.51149,-0.54813 3.96624,-0.92252 3.72353,-3.06556 -0.44711,-3.94794 -2.74032,-6.52975 -7.06864,-7.95822 -3.77509,-1.24589 -4.07458,-1.62036 -4.3544,-5.44452 -0.29768,-4.06817 -0.33642,-4.10546 -4.14064,-3.98454 -4.68107,0.14878 -8.34245,2.73482 -11.25346,7.94834 -2.85761,5.11788 -6.92962,7.66516 -11.07841,6.93018 -1.74461,-0.30907 -3.45867,-0.0981 -3.80902,0.46874 -0.35035,0.56687 -1.39794,1.045 -2.32798,1.06251 -0.93004,0.0175 -4.05656,2.15501 -6.94782,4.75 -5.24711,4.70944 -5.94999,6.30595 -6.17567,14.02719 -0.0373,1.27525 -0.51604,2.0318 -1.06936,1.68982 -3.22656,-1.99412 -3.61336,13.75449 -0.80377,32.72617 0.93962,6.34476 1.64981,8.20958 3.97483,10.43709 3.36024,3.21931 3.48412,2.55942 0.83031,-4.42283 -1.09973,-2.8934 -1.95356,-7.3934 -1.89741,-10 l 0.10209,-4.73927 0.94956,3.5 c 0.52227,1.925 1.91037,6.65 3.08469,10.5 1.17431,3.85 2.16357,7.60676 2.19834,8.34835 0.0503,1.07225 6.99271,6.94291 8.40886,7.1107 0.1901,0.0225 1.65155,-0.88894 3.24767,-2.02548 z m -5.39288,-18.59064 c -2.14722,-4.2185 -2.95723,-7.34293 -1.90367,-7.34293 1.09479,0 4.66365,8.87294 3.8829,9.65369 -0.2927,0.29269 -1.18335,-0.74715 -1.97923,-2.31076 z m -13.65365,-14.90927 c -0.16286,-7.19492 3.96837,-21.2324 7.07652,-24.04524 3.01229,-2.72608 2.96664,-1.27744 -0.16178,5.13402 -1.60418,3.28766 -2.92715,7.10256 -2.93992,8.47756 -0.0289,3.11014 -3.90998,13.29779 -3.97482,10.43366 z m 30.6719,-4.04832 c -1.29475,-1.29475 -0.75269,-7.11222 0.78133,-8.38534 1.28442,-1.06597 1.4899,-0.7602 1.42971,2.12755 -0.0843,4.04729 -1.2167,7.25213 -2.21104,6.25779 z m -23.53835,-7.13534 c 0.81966,-0.9625 2.05552,-3.17997 2.74636,-4.92771 1.3248,-3.35159 4.70942,-7.01953 5.62888,-6.10007 0.49053,0.49054 -1.75696,4.38953 -6.06851,10.52778 -0.86923,1.2375 -2.07916,2.25 -2.68872,2.25 -0.66555,0 -0.51295,-0.6991 0.38199,-1.75 z m 42.31968,-9.82485 c 1.1,-0.83118 2.0009,-2.05437 2.00201,-2.7182 10e-4,-0.84598 1.79584,-1.10555 6,-0.86791 7.87723,0.44527 9.70727,2.16096 2.30498,2.16096 -4.04908,0 -5.75191,0.41407 -6.16862,1.5 -0.3256,0.84851 -1.78363,1.48619 -3.35699,1.4682 -2.6984,-0.0309 -2.72171,-0.0769 -0.78138,-1.54305 z m -22.5,-6.42515 c 0,-0.55 0.5335,-1 1.18555,-1 0.65205,0 2.22705,-0.97844 3.5,-2.17431 2.43065,-2.28348 3.08602,-1.1359 1.27927,2.24005 -1.06624,1.99228 -5.96482,2.75954 -5.96482,0.93426 z m -10,-0.79833 c 0,-1.37755 3.73792,-4.4363 4.29769,-3.51681 0.27293,0.44833 -0.58239,1.62365 -1.90072,2.61183 -1.31833,0.98817 -2.39697,1.39542 -2.39697,0.90498 z m 17.61241,-13.73288 c 0.91218,-1.39216 1.85373,-2.33598 2.09234,-2.09738 0.5932,0.5932 -1.99473,4.62859 -2.96835,4.62859 -0.43038,0 -0.0362,-1.13904 0.87601,-2.53121 z m 15.58631,38.57096 c 2.26679,-2.17814 7.23248,-5.59506 11.03487,-7.59316 3.80239,-1.9981 6.68753,-3.85881 6.41143,-4.13491 -1.15413,-1.15413 -6.67831,1.02084 -10.27776,4.04655 -2.12699,1.78795 -6.00476,4.48276 -8.61726,5.98845 -2.6125,1.5057 -4.75,3.39366 -4.75,4.19547 0,2.41822 1.85871,1.66786 6.19872,-2.5024 z m -10.46013,-54.03975 c 1.17886,0 2.42149,-0.45 2.76141,-1 0.68417,-1.10701 -4.3439,-1.38087 -6.9552,-0.37882 -1.49212,0.57258 -4.5448,5.29139 -4.5448,7.02533 0,0.4102 1.48392,-0.69245 3.29761,-2.45034 1.81368,-1.7579 4.26212,-3.19617 5.44098,-3.19617 z"
       id="path3071"
       inkscape:connector-curvature="0" />
  </g>
</svg>
