<?xml version="1.0" encoding="UTF-8" standalone="no"?>
<!-- Created with Inkscape (http://www.inkscape.org/) -->

<svg
   xmlns:dc="http://purl.org/dc/elements/1.1/"
   xmlns:cc="http://creativecommons.org/ns#"
   xmlns:rdf="http://www.w3.org/1999/02/22-rdf-syntax-ns#"
   xmlns:svg="http://www.w3.org/2000/svg"
   xmlns="http://www.w3.org/2000/svg"
   xmlns:sodipodi="http://sodipodi.sourceforge.net/DTD/sodipodi-0.dtd"
   xmlns:inkscape="http://www.inkscape.org/namespaces/inkscape"
   width="197.00002"
   height="178.74992"
   id="svg2"
   version="1.1"
   inkscape:version="0.48.3.1 r9886"
   sodipodi:docname="Crunches-with-legs-on-stability-ball-2.svg">
  <defs
     id="defs4" />
  <sodipodi:namedview
     id="base"
     pagecolor="#ffffff"
     bordercolor="#666666"
     borderopacity="1.0"
     inkscape:pageopacity="0.0"
     inkscape:pageshadow="2"
     inkscape:zoom="2.8"
     inkscape:cx="153.30501"
     inkscape:cy="43.88317"
     inkscape:document-units="px"
     inkscape:current-layer="layer1"
     showgrid="false"
     fit-margin-top="0"
     fit-margin-left="0"
     fit-margin-right="0"
     fit-margin-bottom="0"
     inkscape:window-width="1615"
     inkscape:window-height="1026"
     inkscape:window-x="65"
     inkscape:window-y="24"
     inkscape:window-maximized="1" />
  <metadata
     id="metadata7">
    <rdf:RDF>
      <cc:Work
         rdf:about="">
        <dc:format>image/svg+xml</dc:format>
        <dc:type
           rdf:resource="http://purl.org/dc/dcmitype/StillImage" />
        <dc:title></dc:title>
      </cc:Work>
    </rdf:RDF>
  </metadata>
  <g
     inkscape:label="Ebene 1"
     inkscape:groupmode="layer"
     id="layer1"
     transform="translate(-545.93795,-301.78288)">
    <path
       style="fill:#000000"
       d="m 555.4855,479.50521 c -0.31377,-0.50769 -1.82811,-1.19929 -3.3652,-1.53689 -3.02437,-0.66426 -6.18235,-4.99409 -6.18235,-8.47646 0,-1.17031 0.65204,-3.68837 1.44897,-5.59571 0.79694,-1.90733 1.02194,-3.46788 0.5,-3.46788 -0.52193,0 -0.94897,-2.4737 -0.94897,-5.49712 0,-4.89651 0.38935,-5.92808 3.56357,-9.44157 5.42062,-5.99997 12.61476,-8.86184 20.61319,-8.20005 1.93911,0.16045 5.12011,5.83723 3.74657,6.68612 -0.50297,0.31086 -1.98059,-0.58513 -3.28358,-1.99109 -2.95181,-3.18505 -5.75945,-3.20875 -12.13975,-0.10248 -6.16571,3.0018 -9.43945,5.78347 -9.65365,8.2026 -0.38574,4.35655 0.23872,8.34359 1.30681,8.34359 0.63423,0 3.89673,-1.28511 7.25,-2.8558 4.49185,-2.10402 8.33447,-3.02992 14.59684,-3.51719 6.37176,-0.49579 8.75038,-1.07881 9.5,-2.32855 2.83471,-4.72593 9.0957,-10.25642 14.9303,-13.18831 5.7363,-2.88249 8.10764,-5.03288 13.26259,-12.02682 0.16891,-0.22916 0.54342,-0.18035 0.83224,0.10847 0.74935,0.74935 -2.97278,9.1049 -4.69128,10.53113 -0.79167,0.65703 -5.00056,2.68543 -9.35309,4.50756 -6.35815,2.66177 -8.44463,4.09477 -10.61482,7.29031 -2.7276,4.01629 -2.80475,4.68609 -0.587,5.09624 0.67159,0.12421 2.12106,0.39149 3.22106,0.59397 1.1,0.20247 2.80076,0.82564 3.77948,1.38481 1.69003,0.96558 1.67327,1.25676 -0.33356,5.79354 -1.16217,2.62727 -1.94841,4.94148 -1.74721,5.14268 0.20121,0.20121 2.27398,-0.11851 4.60617,-0.71048 4.19618,-1.06511 6.88268,-3.67921 9.18858,-8.94095 0.5738,-1.30934 2.82751,-4.62839 5.00823,-7.37569 2.18073,-2.74729 4.91071,-7.47229 6.06663,-10.5 5.64391,-14.78314 11.53185,-24.23736 16.73245,-26.86716 1.48458,-0.7507 3.79416,-2.50807 5.13241,-3.90525 l 2.43319,-2.54033 -2.43319,-7.09609 c -2.41221,-7.03492 -2.4636,-7.09528 -5.96256,-7.00159 -3.66509,0.0981 -19.95604,7.47807 -22.03364,9.98144 -0.65003,0.78323 -2.13927,1.4583 -3.30942,1.50014 -7.14589,0.25552 -17.51789,8.88891 -19.596,16.31121 -0.67566,2.41322 -2.92564,6.44148 -4.99997,8.95169 -3.71916,4.5007 -3.76463,4.65995 -3.27691,11.47648 0.59226,8.27758 -1.20668,10.80443 -2.2567,3.16984 -0.97133,-7.06238 0.95858,-14.35024 4.6148,-17.42675 1.66354,-1.39977 3.18118,-3.87247 3.53293,-5.75622 1.42754,-7.64493 7.19506,-13.3829 18.35429,-18.26026 3.575,-1.56252 7.57319,-3.6737 8.88486,-4.69151 1.31167,-1.01781 3.16348,-1.85056 4.11514,-1.85056 0.95166,0 2.80347,-0.83456 4.11514,-1.85457 1.31167,-1.02002 4.18486,-2.42349 6.38486,-3.11883 7.51273,-2.37451 19.99556,-8.88137 22.93709,-11.95631 1.6154,-1.68866 3.49524,-3.07029 4.17742,-3.07029 0.68218,0 2.12525,-1.125 3.20683,-2.5 2.60967,-3.31766 4.20114,-3.2308 3.28908,0.17952 -0.45307,1.69408 -2.09235,3.39346 -4.45741,4.62081 -2.05744,1.06772 -5.03643,3.23694 -6.61998,4.82049 -1.58355,1.58355 -3.49365,2.87918 -4.24467,2.87918 -2.17668,0 -8.9712,3.76897 -7.94162,4.40528 1.71495,1.0599 6.15326,16.25317 6.15326,21.06392 l 0,4.74961 3.25,-0.57141 c 1.7875,-0.31428 6.15297,-1.00013 9.70104,-1.52411 3.54807,-0.52397 6.92307,-1.58146 7.5,-2.34996 0.57693,-0.7685 1.81724,-1.68539 2.75626,-2.03753 2.14629,-0.80488 7.06947,-8.47896 6.26971,-9.773 -0.32727,-0.52954 -0.16748,-0.9628 0.35509,-0.9628 1.25335,0 10.31408,-7.50982 11.39836,-9.44732 0.55347,-0.989 -0.0613,-3.43287 -1.7748,-7.05481 -3.10616,-6.5659 -6.69287,-11.05206 -10.34692,-12.94164 -2.59818,-1.34357 -2.72377,-1.26016 -6.07635,4.03592 -1.88283,2.97432 -3.78537,5.40785 -4.22786,5.40785 -1.09742,0 -1.02164,-2.74779 0.0948,-3.43779 0.49464,-0.3057 1.83276,-2.13785 2.97361,-4.07144 l 2.07426,-3.51563 -2.7236,0.64029 -2.72361,0.64029 3.5,-3.62331 c 1.925,-1.99283 7.325,-6.43787 12,-9.87787 l 8.50001,-6.25454 10,0.26968 c 9.49727,0.25613 10.14349,0.41315 12.85415,3.12338 2.34541,2.34504 3.2708,4.8252 5.19169,13.91442 1.28565,6.0834 3.03878,13.42206 3.89585,16.30813 0.85707,2.88606 1.56326,8.65322 1.56932,12.81589 0.0191,13.1598 0.57847,14.78566 6.38377,18.55594 3.12485,2.02945 7.04478,3.58407 10.10522,4.00767 5.85249,0.81006 7.5,1.91111 7.5,5.01232 0,2.94807 -3.09341,4.88952 -11.05036,6.93532 -3.5473,0.91204 -8.73919,2.31053 -11.53753,3.10775 -11.61689,3.30956 -17.29458,0.72806 -18.15782,-8.2559 -0.4752,-4.94546 -0.56248,-5.06671 -3.12158,-4.33645 -1.44799,0.4132 -3.53271,0.39828 -4.63271,-0.0332 -1.1,-0.43143 -2.3375,-0.81605 -2.75,-0.8547 -0.4125,-0.0387 -0.75689,7.91721 -0.76531,17.67971 -0.0102,11.82968 -0.33864,17.24969 -0.98469,16.25 -0.55954,-0.86583 -0.97585,-12.17519 -0.98469,-26.75 -0.008,-13.8875 -0.38112,-25.25 -0.82822,-25.25 -0.4471,0 -2.0221,1.26212 -3.5,2.80472 l -2.68709,2.80476 0,23.2543 c 0,15.24822 -0.34428,23.04151 -1,22.63626 -0.61655,-0.38105 -1,-8.8715 -1,-22.14235 0,-11.93565 -0.39098,-21.37582 -0.87765,-21.19098 -0.48271,0.18333 -12.07021,10.72982 -25.75,23.43665 -31.67905,29.42589 -41.0888,37.6645 -41.76639,36.56812 -0.41731,-0.67521 66.79078,-64.26654 85.25963,-80.67144 6.43673,-5.71741 8.13441,-7.80257 8.13441,-9.99104 0,-2.82528 -2.97277,-5.50896 -6.1024,-5.50896 -1.99278,0 -3.03382,1.15584 -5.62928,6.25 -1.7514,3.4375 -4.10325,6.81631 -5.22634,7.50847 -1.12309,0.69216 -2.04198,1.89185 -2.04198,2.66597 0,0.77413 -1.9125,2.90086 -4.25,4.72607 -5.0641,3.95425 -6.43563,5.59369 -7.21547,8.62493 -0.64281,2.49857 -6.47023,8.68825 -10.86281,11.53809 -1.5374,0.99745 -4.67998,1.83507 -6.9835,1.8614 -2.30352,0.0263 -5.06961,0.51381 -6.14686,1.08331 -1.07725,0.56949 -5.06656,0.97805 -8.86514,0.90791 -5.70052,-0.10527 -7.4343,0.26197 -9.92905,2.10315 -7.1409,5.27015 -10.23667,9.25944 -12.14738,15.65345 -1.04511,3.49737 -4.00569,9.55799 -6.57907,13.46805 -2.57337,3.91006 -5.89828,9.24419 -7.38868,11.85363 -3.0786,5.3901 -6.82235,7.74893 -12.33238,7.77031 -2.08981,0.008 -4.75114,0.57061 -5.91406,1.25 -7.37423,4.30811 -10.36684,5.58041 -13.82711,5.87853 -2.47082,0.21287 -4.05004,-0.11792 -4.31179,-0.90316 -0.47338,-1.42015 0.75289,-1.9504 5.93086,-2.56456 5.26407,-0.62438 11.75859,-5.74642 16.22139,-12.79336 l 1.65785,-2.61782 -5.7784,-0.33398 c -15.83081,-0.91499 -21.41763,-0.25747 -29.39735,3.45983 -6.52217,3.03832 -7.70477,3.97837 -8.21515,6.53026 -0.99344,4.9672 0.85444,8.37091 5.60792,10.32952 5.20527,2.14476 6.03351,2.15956 9.86877,0.17626 4.09742,-2.11885 5.02393,-0.82979 1.55165,2.15881 -2.87215,2.47206 -9.95502,3.42003 -11.14669,1.49187 z m 159.45905,-50.09752 c 1.92137,-0.56132 4.8434,-1.2256 6.4934,-1.47616 10.41863,-1.58216 19.5,-5.08725 19.5,-7.52631 0,-0.53732 -0.83771,-0.97695 -1.86158,-0.97695 -2.33199,0 -18.4873,-7.51052 -19.95228,-9.27571 -1.86865,-2.25159 -3.42303,-10.93441 -3.28642,-18.35809 0.0722,-3.92359 -0.58479,-9.99859 -1.46,-13.5 -0.8752,-3.50141 -2.4572,-10.4162 -3.51555,-15.3662 -2.19781,-10.27939 -4.66812,-13.5 -10.35493,-13.5 -5.62701,0 -9.61996,1.13978 -9.33371,2.66429 0.16629,0.88564 -1.92583,2.30428 -5.63573,3.82152 -3.24511,1.32716 -7.3749,3.84235 -9.17732,5.58932 l -3.27711,3.17631 3.02025,2.54138 c 1.66114,1.39775 4.11956,4.28277 5.46314,6.41115 1.34359,2.12838 2.88532,3.59634 3.42608,3.26214 0.54075,-0.33421 2.06453,-2.74157 3.38617,-5.34969 2.52008,-4.97316 5.16731,-7.84143 6.24369,-6.76505 0.35001,0.35 -0.0566,1.42663 -0.90358,2.3925 -0.84697,0.96587 -2.32184,3.33113 -3.2775,5.25613 -0.95566,1.925 -2.66897,4.51846 -3.80735,5.76324 -1.39404,1.52434 -1.73991,2.59312 -1.0594,3.27363 1.34483,1.34483 4.03523,-1.69136 7.86313,-8.87377 2.87216,-5.38912 6.81147,-8.70667 8.84566,-7.44947 0.53043,0.32783 0.22089,1.13014 -0.69417,1.79926 -2.44682,1.78916 -2.01756,3.16385 1.35508,4.33956 2.87759,1.00313 2.98019,0.94297 2.39159,-1.40218 -0.36843,-1.46796 -0.18182,-2.45027 0.4655,-2.45027 2.3445,0 6.07857,18.7725 6.11653,30.75 0.0325,10.25011 -1.62526,7.08349 -2.33112,-4.4529 -0.36017,-5.88659 -1.03891,-11.08694 -1.5083,-11.55633 -1.0223,-1.0223 -7.14077,3.88367 -7.14077,5.72568 0,0.70876 0.64599,1.82478 1.43553,2.48004 2.90253,2.40889 4.68441,14.41143 3.95378,26.63224 -0.67865,11.35154 -0.67465,11.38033 1.71522,12.3363 3.11886,1.24756 2.86039,1.24515 6.90207,0.0644 z m -4.33993,-8.64609 c -1.05343,-1.05343 -0.77555,-6.33333 0.33333,-6.33333 0.55,0 1,1.125 1,2.5 0,1.808 0.53727,2.5 1.94098,2.5 1.06754,0 2.2191,0.45 2.55902,1 0.68465,1.10779 -4.74842,1.41825 -5.83333,0.33333 z m -12.40477,-59.02381 c 0.92977,-0.92976 1.97126,-1.4097 2.31443,-1.06653 0.98418,0.98419 -0.52669,2.75701 -2.34963,2.75701 -1.52648,0 -1.52374,-0.13154 0.0352,-1.69048 z m 8.2381,0.69048 c -0.33992,-0.55 0.0835,-1 0.94098,-1 0.85746,0 1.55902,0.45 1.55902,1 0,0.55 -0.42344,1 -0.94098,1 -0.51754,0 -1.2191,-0.45 -1.55902,-1 z m -12.25,-8.6405 c -2.57447,-1.08368 -1.11245,-2.15452 2.74372,-2.00959 2.19654,0.0826 3.84934,0.60009 3.67288,1.15009 -0.3586,1.11769 -4.48887,1.67094 -6.4166,0.8595 z m -53.43358,57.3905 c 0.17403,-1.5125 -0.16347,-2.75 -0.75,-2.75 -0.58653,0 -1.06642,0.39541 -1.06642,0.87868 0,0.48327 -1.33508,1.43169 -2.96684,2.10759 -5.35963,2.22003 -5.4685,3.65614 -0.23152,3.05397 4.22415,-0.48571 4.7303,-0.8178 5.01478,-3.29024 z m 58.8718,2.78157 c 4.71022,-1.34991 5.06564,-13.22233 0.65314,-21.81797 l -1.43037,-2.78641 -2.7055,1.92848 c -3.86713,2.75649 -7.23679,6.67658 -5.05851,5.88481 2.28997,-0.83236 2.94602,3.31269 1.5658,9.89293 -1.19642,5.70398 0.0506,8.83024 3.1784,7.96851 0.88485,-0.24377 2.59352,-0.72543 3.79704,-1.07035 z m -25.4895,-53.49182 c 2.26679,-2.17814 7.23248,-5.59506 11.03487,-7.59316 3.80239,-1.9981 6.72723,-3.81911 6.49964,-4.04669 -1.11032,-1.11033 -7.05972,1.18121 -10.43891,4.02076 -2.08688,1.75362 -5.93182,4.42033 -8.54432,5.92602 -2.6125,1.5057 -4.75,3.39366 -4.75,4.19547 0,2.41822 1.85871,1.66786 6.19872,-2.5024 z m -88.10089,75.81103 c -1.20599,-3.45951 -1.43857,-8.79924 -0.49084,-11.26899 1.2916,-3.36587 1.91933,-1.26678 1.91933,6.41821 0,4.4 -0.0744,8 -0.16534,8 -0.0909,0 -0.65935,-1.41715 -1.26316,-3.14922 z m 6.31297,-5.35018 c -0.67591,-2.69301 1.71926,-6.5006 4.0892,-6.5006 0.65451,0 2.02244,-0.91981 3.03984,-2.04402 1.0174,-1.12421 2.77464,-1.91171 3.90499,-1.75 2.75672,0.39439 2.62111,2.21364 -0.19483,2.61357 -1.64659,0.23385 -2.25,0.98851 -2.25,2.81397 0,2.21195 -0.36803,2.45887 -3.25,2.18045 -2.83297,-0.27368 -3.21178,-0.0366 -2.95215,1.84744 0.43459,3.15367 -1.62448,3.87755 -2.38705,0.83919 z m 2.16185,-10.06717 c -0.7391,-2.94481 0.25865,-7.43343 1.65234,-7.43343 0.55449,0 0.79105,1.13574 0.5257,2.52387 -0.26536,1.38812 -0.0928,2.76468 0.38342,3.05901 1.35166,0.83538 1.017,3.14516 -0.54241,3.74356 -0.90013,0.34541 -1.62868,-0.33766 -2.01905,-1.89301 z m 12.79511,-3.30843 c 0.34773,-1.85625 0.63224,-3.99375 0.63224,-4.75 0,-0.75625 0.50008,-1.375 1.11129,-1.375 1.35173,0 0.26413,6.99636 -1.32134,8.5 -0.734,0.69611 -0.86229,-0.0256 -0.42219,-2.375 z m -5.14035,-1.52523 c -1.5102,-3.31454 -0.24079,-4.17946 1.42412,-0.97033 1.57944,3.04437 1.6287,3.37056 0.50899,3.37056 -0.46172,0 -1.33162,-1.0801 -1.93311,-2.40023 z m 4.39133,-7.24052 c -2.24865,-1.21801 -3.41166,-1.319 -5.29705,-0.45996 -3.10377,1.41417 -3.32169,1.39095 -3.32169,-0.35398 0,-1.79369 5.74912,-3.00256 10.25734,-2.15681 4.37979,0.82165 9.49182,-0.774 12.88037,-4.02044 3.38024,-3.23847 12.86229,-6.89059 12.86229,-4.95405 0,1.43247 -4.16213,3.58599 -6.93069,3.58599 -1.01012,0 -3.55598,1.90316 -5.65745,4.22924 -2.65594,2.9398 -4.49162,4.14135 -6.02085,3.94096 -1.20999,-0.15857 -2.49452,0.18827 -2.85452,0.77075 -0.8859,1.43343 -2.48828,1.27592 -5.91775,-0.5817 z"
       id="path3073"
       inkscape:connector-curvature="0" />
  </g>
</svg>
