<?xml version="1.0" encoding="UTF-8" standalone="no"?>
<!-- Created with Inkscape (http://www.inkscape.org/) -->

<svg
   xmlns:dc="http://purl.org/dc/elements/1.1/"
   xmlns:cc="http://creativecommons.org/ns#"
   xmlns:rdf="http://www.w3.org/1999/02/22-rdf-syntax-ns#"
   xmlns:svg="http://www.w3.org/2000/svg"
   xmlns="http://www.w3.org/2000/svg"
   xmlns:sodipodi="http://sodipodi.sourceforge.net/DTD/sodipodi-0.dtd"
   xmlns:inkscape="http://www.inkscape.org/namespaces/inkscape"
   width="899.66461"
   height="690.84705"
   id="svg2"
   version="1.1"
   inkscape:version="0.48.3.1 r9886"
   sodipodi:docname="Reverse-plate-curls-2.svg">
  <defs
     id="defs4" />
  <sodipodi:namedview
     id="base"
     pagecolor="#ffffff"
     bordercolor="#666666"
     borderopacity="1.0"
     inkscape:pageopacity="0.0"
     inkscape:pageshadow="2"
     inkscape:zoom="0.7"
     inkscape:cx="-157.61457"
     inkscape:cy="252.79302"
     inkscape:document-units="px"
     inkscape:current-layer="layer1"
     showgrid="false"
     fit-margin-top="0"
     fit-margin-left="0"
     fit-margin-right="0"
     fit-margin-bottom="0"
     inkscape:window-width="1378"
     inkscape:window-height="738"
     inkscape:window-x="59"
     inkscape:window-y="46"
     inkscape:window-maximized="0" />
  <metadata
     id="metadata7">
    <rdf:RDF>
      <cc:Work
         rdf:about="">
        <dc:format>image/svg+xml</dc:format>
        <dc:type
           rdf:resource="http://purl.org/dc/dcmitype/StillImage" />
        <dc:title></dc:title>
      </cc:Work>
    </rdf:RDF>
  </metadata>
  <g
     inkscape:label="Ebene 1"
     inkscape:groupmode="layer"
     id="layer1"
     transform="translate(-1438.9225,-439.99132)">
    <path
       style="fill:#000000"
       d="m 1754.9463,1080.9155 -144.3437,-49.4718 -37.5382,18.2431 -37.5381,18.2431 -11.1181,-3.8652 c -21.9426,-7.6284 -21.3166,-7.323 -21.9985,-10.7326 -0.3408,-1.7038 -0.6196,-11.3161 -0.6196,-21.3607 l 0,-18.2628 30,-13.3239 30,-13.324 0.1349,-46.0382 c 0.074,-25.32105 0.4116,-75.36707 0.75,-111.21341 l 0.6151,-65.17516 -6.9409,-4.32484 c -3.8175,-2.37866 -7.2447,-4.45474 -7.616,-4.61351 -0.3713,-0.15877 -0.9788,1.61043 -1.3499,3.93155 -0.3712,2.32112 -1.8001,7.0328 -3.1753,10.4704 -3.1304,7.82476 -4.2807,14.65638 -5.0323,29.88672 -0.579,11.73324 -0.4676,12.61249 5.0111,39.55245 5.7642,28.34366 6.6399,37.06277 4.1926,41.74721 -1.8263,3.49584 -6.1901,7.51766 -10.5441,9.71776 -4.4012,2.22402 -16.8276,2.28792 -22.7952,0.11722 -2.3375,-0.85026 -4.25,-1.29636 -4.25,-0.99134 0,0.30503 -2.6384,-1.73114 -5.8632,-4.52481 -7.0269,-6.08753 -20.0169,-12.51413 -29.6368,-14.66238 -13.599,-3.03684 -17.5445,-4.5769 -23.7299,-9.26261 -3.4076,-2.58142 -7.5551,-6.63437 -9.2166,-9.00656 -2.6702,-3.81216 -3.0399,-5.20577 -3.1836,-12 -0.1477,-6.98286 0.088,-8.00752 2.5715,-11.18694 3.5785,-4.58113 5.0586,-7.43675 5.0586,-9.75994 0,-1.04029 1.0415,-2.86987 2.3145,-4.06575 2.7948,-2.62557 10.8724,-2.99636 15.2946,-0.70208 5.9376,3.08044 10.5585,2.95186 20.034,-0.55745 4.8713,-1.80412 9.4635,-3.82065 10.2049,-4.48117 0.8409,-0.7492 1.6709,-5.1003 2.2064,-11.56727 1.6593,-20.03675 1.3204,-24.07813 -3.642,-43.43599 -6.3664,-24.83441 -7.4094,-31.69385 -7.411,-48.73772 -10e-4,-14.4068 0.4834,-19.52847 3.6113,-38.15825 1.0968,-6.53276 1.3167,-12.02834 0.8102,-20.25242 -0.6907,-11.21578 -0.6756,-11.32618 2.3859,-17.54497 3.2297,-6.56064 10.5965,-14.78925 15.6912,-17.52694 2.2444,-1.20602 5.5189,-1.58014 13,-1.48528 5.5,0.0697 17.875,0.16828 27.5,0.21898 20.0434,0.10557 24.5647,1.01097 42.4111,8.49302 6.0011,2.51593 11.0025,4.4594 11.1143,4.31882 0.1118,-0.14057 1.1903,-3.26092 2.3967,-6.93411 1.7388,-5.29422 2.0551,-7.9008 1.5263,-12.57538 -0.8074,-7.1363 1.286,-12.0331 8.0253,-18.77242 6.9696,-6.96959 11.4459,-8.78609 22.88,-9.28482 13.1214,-0.57234 23.4713,1.12865 32.1602,5.28552 3.8577,1.84552 11.07,4.30775 16.0275,5.47162 14.6528,3.44009 19.2786,6.45157 38.8681,25.304 9.5727,9.2125 18.1345,16.75 19.0262,16.75 2.8919,0 12.8556,5.6392 21.9047,12.39755 7.9852,5.96378 9.2987,6.60245 13.5786,6.60245 5.8932,0 10.9681,3.17669 19.9245,12.47213 5.0317,5.2221 8.2705,7.50843 15.6614,11.05573 5.1248,2.45968 9.7409,4.47214 10.258,4.47214 0.517,0 1.2063,-3.7125 1.5316,-8.25 0.7387,-10.30121 5.1187,-27.48789 12.2965,-48.25 10.043,-29.04996 10.6893,-32.12364 7.8912,-37.53447 l -1.5178,-2.93515 -5.9837,4.40495 c -8.113,5.97244 -14.3518,7.93438 -23.3597,7.34598 -12.2756,-0.80183 -20.0408,-6.52816 -26.1156,-19.25856 -4.6293,-9.70102 -5.8862,-17.20926 -5.2403,-31.30286 1.3682,-29.85482 17.0155,-56.95586 38.7349,-67.08851 7.4312,-3.46682 18.344,-3.55001 25,-0.19056 9.2433,4.66523 14.9036,12.23215 19.4047,25.9407 1.9057,5.80402 2.5026,6.58638 6.5953,8.64543 2.475,1.24515 5.6482,2.52213 7.0516,2.83773 2.5387,0.57092 2.5577,0.52533 3.7668,-9.04819 1.5067,-11.9292 5.9903,-25.61839 11.4033,-34.81649 5.0342,-8.55449 16.3596,-19.99359 23.7783,-24.0171 4.95,-2.6846 6.4001,-2.98218 14.5,-2.97573 7.3083,0.006 9.7519,0.41282 13,2.16527 5.8655,3.16455 10.9847,8.96094 14.4238,16.33189 3.7037,7.93788 5.0762,14.76484 5.0762,25.24879 0,7.84514 0.038,7.96666 2.25,7.1833 1.2375,-0.43827 5.2805,-0.89658 8.9843,-1.01847 6.6664,-0.21939 6.7969,-0.2783 12.9441,-5.84118 9.3987,-8.50537 15.3931,-11.07677 25.8217,-11.07677 7.5416,0 9.1002,0.3325 13.8235,2.94896 6.2156,3.44307 9.9979,7.87926 14.0834,16.51817 11.8414,25.03862 1.3947,68.62894 -20.895,87.18757 l -4.0178,3.3453 2.9645,6.25865 c 3.8138,8.05134 12.0414,41.05479 12.0414,48.30162 0,4.83379 0.4694,6.11827 3.9085,10.69526 4.7892,6.37388 5.6565,10.89937 3.4966,18.24447 -3.4995,11.90027 -3.0488,14.67833 4.162,25.65708 2.4487,3.72814 5.3068,9.06264 6.3513,11.85442 2.3914,6.39154 3.4389,20.70697 2.231,30.4885 l -0.9261,7.5 5.3793,9.00897 c 12.0079,20.11014 14.2697,38.12331 6.8311,54.40538 -2.4148,5.28582 -2.4297,5.46385 -0.6247,7.5 23.4291,26.43015 26.9085,32.70024 28.0328,50.51644 0.657,10.41209 0.6633,10.43215 3.5097,11.19067 6.7168,1.78991 12.4455,7.88281 14.555,15.48042 1.5784,5.68468 1.3825,19.93853 -0.3192,23.22926 -1.9243,3.72129 -10.1617,11.27961 -17.2438,15.82231 -9.5843,6.1477 -125.2857,62.3553 -130.7831,63.5342 -4.9045,1.0519 -20.6809,0.5725 -25.3105,-0.7689 l -2.25,-0.652 -0.058,52.8666 c -0.032,29.0767 -0.3735,54.6464 -0.7596,56.8216 -0.6515,3.6704 -1.8756,4.8751 -17.0199,16.75 -8.9748,7.0373 -16.8454,12.7732 -17.4903,12.7466 -0.6449,-0.027 -66.1272,-22.3108 -145.5163,-49.5203 z m 160.3132,32.3188 c 12.562,-9.8725 14.3878,-11.6786 14.9117,-14.75 0.3283,-1.925 0.6019,-27.1952 0.6079,-56.156 l 0.011,-52.656 -4.25,-1.452 c -2.3375,-0.7986 -13.4409,-7.1375 -24.6743,-14.0864 -11.2333,-6.9489 -20.5555,-12.5031 -20.716,-12.3427 -0.1605,0.1605 0.1544,25.6066 0.6997,56.5468 0.5453,30.9403 0.7284,56.6806 0.407,57.2006 -1.0586,1.7129 -3.5002,0.9864 -4.3833,-1.3043 -0.7636,-1.9808 -13.5953,-6.2506 -107.2252,-35.68 -58.4968,-18.3864 -106.9204,-33.854 -107.6079,-34.3724 -0.6875,-0.5184 -1.25,-1.4769 -1.25,-2.1301 0,-0.6532 8.9358,-5.5796 19.8572,-10.9476 l 19.8572,-9.7601 0.6368,-8.1799 c 0.3503,-4.499 0.6395,-11.6198 0.6428,-15.8241 l 0.01,-7.6441 -12.9535,-4.1216 -12.9535,-4.1216 -16.2965,7.3691 c -35.297,15.961 -48.6695,21.6624 -50.809,21.6624 l -2.2327,0 0.3726,-88.93451 0.3726,-88.93446 -19.3539,-12.06554 c -10.6447,-6.63605 -19.7022,-12.06554 -20.1279,-12.06554 -0.4256,0 -1.0861,49.3875 -1.4678,109.75 -0.3817,60.36245 -0.8834,110.42505 -1.1151,111.25005 -0.2397,0.8541 -13.1169,7.0975 -29.9065,14.5 l -29.4854,13 -0.022,16.5588 c -0.015,11.7727 0.3396,17.0121 1.2283,18.127 0.6875,0.8624 7.1,3.5971 14.25,6.0772 l 13,4.5091 36.8822,-17.8861 c 20.2852,-9.8373 37.6102,-17.8849 38.5,-17.8835 0.8898,0 65.7428,22.0033 144.1178,48.8932 78.375,26.8898 143.3223,48.9387 144.3274,48.9974 1.005,0.059 8.269,-4.9557 16.142,-11.1432 z m -37.9987,-74 c -0.2867,-14.9875 -0.7846,-39.4563 -1.1064,-54.375 l -0.5851,-27.125 -8.1396,-4.8126 c -4.4768,-2.6469 -61.2396,-37.72842 -126.1396,-77.95884 -64.9,-40.23042 -120.0905,-74.36127 -122.6457,-75.84634 l -4.6457,-2.70011 -0.6612,13.28392 c -0.3637,7.30616 -0.5231,45.03693 -0.3543,83.84617 l 0.3069,70.5623 31,-13.7559 c 17.05,-7.5657 31.8837,-13.7813 32.9637,-13.8123 1.08,-0.031 8.3925,2.0695 16.25,4.6678 l 14.2863,4.7242 0,11.625 c 0,6.3937 -0.2966,15.1338 -0.6591,19.4225 l -0.6591,7.7976 -17.549,8.5107 -17.549,8.5107 4.4581,1.3323 c 2.452,0.7327 48.5581,15.2646 102.4581,32.293 53.9,17.0284 98.3358,30.9831 98.7461,31.0103 0.4103,0.027 0.5114,-12.2129 0.2246,-27.2004 z m 86.0293,-52.8449 c 4.7459,-1.2858 115.9114,-55.4291 125.9161,-61.3276 3.8039,-2.2427 9.3164,-6.40107 12.25,-9.24093 l 5.334,-5.16337 -0.01,-7.33663 c 0,-4.03514 -0.5025,-9.12647 -1.1098,-11.31407 -1.1547,-4.16079 -7.5975,-11.52255 -10.0837,-11.52255 -0.9707,0 -2.0076,2.50702 -3.2055,7.75 -3.4889,15.27035 -11.4923,28.96676 -21.0379,36.00275 -14.1402,10.4227 -26.859,14.7893 -40.7724,13.998 -7.3633,-0.4188 -9.9115,-1.0638 -16.4269,-4.158 -10.8551,-5.155 -19.539,-14.2486 -26.0333,-27.26164 -6.3376,-12.69886 -12.2806,-19.27314 -18.1166,-20.041 -3.7491,-0.49329 -4.9506,-0.1191 -9.5,2.95886 -9.417,6.37129 -11.4377,6.79277 -25.9307,5.40892 -8.0191,-0.7657 -8.9618,-0.66266 -11.6863,1.27733 -6.3467,4.51923 -15.8113,8.11684 -24.3648,9.26128 -18.409,2.4631 -36.9125,-4.39482 -55.6444,-20.62335 -3.53,-3.05825 -10.955,-7.8741 -16.5,-10.70189 -5.5449,-2.82779 -12.7818,-7.05974 -16.0818,-9.40433 -10.2744,-7.29982 -23.4669,-21.79495 -32.9588,-36.2133 -4.7962,-7.28551 -9.2426,-13.58551 -9.8808,-14 -0.6382,-0.4145 -6.1104,-1.03518 -12.1604,-1.37931 -7.0488,-0.40093 -13.2924,-1.38893 -17.382,-2.75057 -5.3384,-1.77739 -6.9848,-1.94433 -10.0673,-1.02079 -3.0627,0.91761 -5.0054,0.73364 -11.5015,-1.08917 -15.8498,-4.44746 -25.4076,-9.24373 -39.0492,-19.59551 -8.9534,-6.79423 -11.6337,-7.85893 -25,-9.93064 -12.0041,-1.86059 -15.8104,-3.11388 -20.7496,-6.83226 -3.2392,-2.43859 -25.6463,-11.65538 -28.3356,-11.65538 -2.7082,0 -5.2969,-3.9123 -6.4428,-9.7372 -1.0946,-5.56369 -1.3909,-5.98712 -5.8127,-8.30755 -8.0941,-4.24756 -27.3583,-19.3854 -35.4386,-27.84767 l -7.7794,-8.14712 -5.7206,1.41536 c -3.1464,0.77845 -6.9218,1.6868 -8.3899,2.01855 -2.6512,0.59912 -4.2982,3.98553 -6.2705,12.8931 -0.9279,4.19094 1.1691,10.46431 4.7499,14.20942 3.1878,3.33406 388.8078,242.40096 395.5252,245.20766 11.1806,4.6716 27.0343,6.5388 35.6646,4.2006 z m 83.0001,-56.2679 c 8.0167,-2.1468 16.8513,-7.1422 23.4725,-13.27226 11.5745,-10.71602 20.0108,-33.17972 18.7452,-49.91388 -0.6677,-8.82908 -4.113,-21.91794 -7.034,-26.72263 -3.5302,-5.80664 -34.1002,-36.38405 -38.8721,-38.88156 -4.9744,-2.60344 -13.5631,-2.99432 -20.7302,-0.94344 -8.9019,2.5473 -21.3797,19.95422 -28.2373,39.39186 -3.0909,8.76105 -3.1161,13.01941 -0.091,15.31369 1.6131,1.22322 1.4669,1.59271 -1.9115,4.83398 -4.4146,4.2353 -5.5038,9.05185 -3.8492,17.02184 1.5321,7.38032 5.0198,11.53515 9.683,11.53515 2.9783,0 3.6684,-0.45149 4.645,-3.0389 0.8295,-2.19752 1.7053,-2.95863 3.1632,-2.74898 1.549,0.22274 1.968,0.9593 1.8086,3.17917 -0.5427,7.55789 -10.7688,10.44464 -17.3581,4.90008 -5.0221,-4.22578 -6.8876,-9.43497 -6.9087,-19.29137 -0.014,-6.59472 0.4049,-9.19392 1.8695,-11.59578 1.5937,-2.61351 1.7437,-3.88831 0.9631,-8.18316 -1.1733,-6.45525 0.9268,-13.13381 9.0937,-28.91953 l 5.7937,-11.19847 -2.8038,-0.61581 c -3.545,-0.77861 -5.1866,-2.73464 -4.7687,-5.68221 0.3857,-2.72087 4.8268,-3.98562 4.8268,-1.37459 0,2.90837 6.4948,1.93967 11.2668,-1.68045 2.3562,-1.7875 5.3976,-4.01988 6.7586,-4.96085 l 2.4746,-1.71085 -3.5,0.57206 c -1.925,0.31464 -7.8566,1.64702 -13.1812,2.96085 -14.5818,3.59796 -18.8188,3.07759 -18.8188,-2.31121 0,-1.63333 0.5797,-2.3 2,-2.3 1.1,0 2,0.40186 2,0.89301 0,2.0579 3.5056,1.89198 11.7485,-0.55604 14.3231,-4.25377 18.395,-4.63519 30.2277,-2.8315 14.0463,2.1411 16.123,2.8929 23.5779,8.53546 l 6.3785,4.82789 2.4199,-2.87593 c 5.1869,-6.16432 5.8955,-19.6807 1.7321,-33.04156 -1.1223,-3.60178 -4.413,-10.35178 -7.3126,-15 l -5.272,-8.45133 -0.087,-16.5 c -0.1003,-19.06252 -0.9542,-22.40652 -9.5125,-37.25494 -6.2854,-10.90503 -7.0977,-16.12955 -4.0446,-26.01436 2.3179,-7.50456 2.1477,-8.46474 -2.7896,-15.7307 -2.4475,-3.60178 -3.0587,-5.54712 -3.0621,-9.74602 0,-2.88531 -0.893,-7.83531 -1.9792,-11 -1.0862,-3.16469 -3.2894,-11.60398 -4.896,-18.75398 -2.9925,-13.31775 -7.1568,-24.5 -9.1238,-24.5 -0.6075,0 -2.5448,0.76547 -4.305,1.70105 -2.2185,1.17916 -5.6547,1.7135 -11.2003,1.74164 -9.5147,0.0483 -15.1107,-2.10339 -20.9535,-8.05678 -3.593,-3.66087 -10.5466,-16.2792 -10.5466,-19.13825 0,-0.71982 -1.6101,-2.72249 -3.5781,-4.45038 -1.9679,-1.72788 -4.8887,-5.42663 -6.4906,-8.21944 l -2.9125,-5.07784 -0.01,8.25 c -0.01,6.43245 0.3009,8.25 1.399,8.25 2.499,0 12.3288,8.80741 13.464,12.06363 2.3059,6.61474 2.3398,15.25881 0.1232,31.43637 -3.092,22.56686 -2.6942,25.56871 5.6985,43 3.7073,7.7 7.1093,14.51604 7.56,15.14677 1.3032,1.8236 4.6942,0.35399 6.286,-2.72421 2.392,-4.62556 1.8315,-8.49374 -1.8358,-12.66968 -1.8126,-2.06408 -4.0798,-5.00081 -5.0382,-6.52605 -2.3163,-3.6864 -4.0568,-13.20613 -2.8189,-15.41813 0.8195,-1.46445 1.2325,-1.22753 3.0479,1.74867 1.155,1.89345 2.8291,5.69263 3.7202,8.44263 1.3506,4.16812 3.4958,6.83013 12.8941,16 6.2007,6.05 11.7637,11.96609 12.3623,13.14686 0.6917,1.36446 0.8713,5.55549 0.4927,11.5 -0.5072,7.96414 -0.2773,10.28883 1.5477,15.65382 2.2955,6.748 2.1146,8.19932 -1.0221,8.19932 -3.6921,0 -5.2565,-6.01828 -5.4403,-20.92846 l -0.1655,-13.42846 -3.1578,-2.82154 c -1.7372,-1.55185 -3.9905,-2.82154 -5.0076,-2.82154 -2.5811,0 -6.3447,3.17712 -10.5502,8.90618 -5.6777,7.73446 -6.7937,11.95965 -6.656,25.19838 0.1421,13.6583 1.9991,21.92386 6.0674,27.00638 1.5897,1.98602 3.2716,5.08194 3.7375,6.87982 l 0.847,3.26888 3.2176,-3.66462 c 1.7697,-2.01554 3.2176,-4.51215 3.2176,-5.54803 0,-3.20727 1.1325,-5.04699 3.107,-5.04699 1.0411,0 1.8926,0.5625 1.8922,1.25 0,1.6696 -5.5268,13.27775 -7.9211,16.64028 l -1.9054,2.67592 10.0175,10.4669 c 12.1309,12.67509 26.3628,30.81384 25.138,32.03869 -1.6109,1.61091 -6.9696,-2.76022 -14.3806,-11.7304 -11.8641,-14.36014 -22.2312,-23.88182 -30.3213,-27.84863 -18.4645,-9.05369 -43.4224,-10.41722 -51.8059,-2.83031 -1.6363,1.48083 -1.8295,1.4777 -2.4115,-0.0391 -0.348,-0.90687 -0.056,-2.34406 0.6494,-3.19375 2.4804,-2.9886 10.0588,-6.66331 15.2222,-7.38113 l 5.2194,-0.72559 -5.8783,-2.70562 c -7.4892,-3.44703 -15.2918,-5.22924 -29.2199,-6.67424 -9.7798,-1.01463 -11.4726,-0.9578 -14.25,0.47845 -3.7772,1.95328 -3.9634,3.90628 -1.1518,12.0785 1.1,3.19721 2,7.14426 2,8.77122 0,3.8914 -4.5524,12.15129 -7.5944,13.77934 -2.8572,1.52911 -2.8272,1.07085 -0.7785,11.87151 1.2772,6.73402 1.4945,11.90981 1.0107,24.07793 -0.7276,18.30077 -1.1937,17.12799 11.6951,29.42576 7.0418,6.71879 8.8336,9.08148 10.6738,14.07424 2.8724,7.79309 3.5689,16.64976 1.9741,25.10205 -1.1652,6.17541 -1.777,7.28844 -6.8799,12.51692 -5.5018,5.63728 -10.3115,8.07036 -12.2069,6.17503 -1.624,-1.62404 -0.039,-3.82755 6.6714,-9.27158 3.5471,-2.87791 6.6774,-6.19778 6.9561,-7.37749 1.6779,-7.10083 2.1047,-12.12025 1.4062,-16.53887 -1.7383,-10.99674 -6.8025,-18.11472 -20.0775,-28.22011 -9.0263,-6.87113 -11.8502,-10.17251 -11.8502,-13.85411 0,-3.60878 0.9692,-4.36972 3.1043,-2.43742 1.6538,1.49668 1.8477,1.32124 3.036,-2.74782 3.2445,-11.11001 0.498,-32.46029 -7.184,-55.84657 -5.3443,-16.26969 -5.1621,-21.1556 1.4441,-38.72152 2.5279,-6.72183 5.1205,-15.27888 5.7613,-19.01565 1.1103,-6.47467 1.0156,-7.28714 -2.0142,-17.27849 -4.43,-14.60921 -5.4361,-21.80518 -4.6515,-33.27151 l 0.6696,-9.78717 -3.5477,-3.92693 c -4.4776,-4.95609 -7.98,-11.83595 -10.2173,-20.07013 -2.1601,-7.95015 -2.4131,-24.73479 -0.5158,-34.22355 0.7473,-3.73723 1.0388,-7.11223 0.6479,-7.5 -0.391,-0.38778 -4.3236,-0.58077 -8.7392,-0.42888 -7.0722,0.24328 -8.543,-0.0254 -12.3486,-2.25561 -4.1589,-2.43728 -9.9515,-8.64963 -12.3127,-13.20482 -1.5036,-2.9009 -1.4358,-3.31574 0.5421,-3.31574 0.9209,0 4.982,3.20727 9.0247,7.12727 l 7.3504,7.12727 4.7253,-0.76967 c 2.5989,-0.42331 7.0879,-0.81808 9.9755,-0.87727 2.8876,-0.0592 5.2501,-0.50092 5.25,-0.98164 -10e-5,-0.48072 1.7939,-4.45847 3.9866,-8.83944 4.1111,-8.2137 7.7378,-13.45727 13.9358,-20.14881 3.358,-3.62537 3.4241,-3.81968 1.0774,-3.16759 -3.7671,1.04681 -7.1367,3.73295 -10.8167,8.62279 -7.2148,9.58676 -10.3617,12.90709 -12.233,12.90709 -2.7168,0 -2.4517,-1.19008 1.2997,-5.83408 5.4701,-6.77163 10.25,-13.91974 10.25,-15.32828 0,-0.95004 -1.5034,-1.32623 -5.1885,-1.29825 -6.2836,0.0477 -7.9918,1.38962 -13.4376,10.55622 -4.9748,8.37395 -8.0137,11.31216 -10.7888,10.43139 -2.8215,-0.89552 -2.6292,-2.95805 0.4048,-4.34042 1.3694,-0.62395 4.5706,-4.40868 7.1138,-8.41052 2.5431,-4.00183 5.515,-8.25009 6.6041,-9.44057 1.9352,-2.11526 1.9371,-2.18759 0.085,-3.17877 -2.9878,-1.59904 -9.6878,1.92586 -13.0057,6.84231 -1.5329,2.27154 -3.7666,5.33852 -4.9638,6.81552 -1.917,2.36499 -2.2573,2.47809 -2.8523,0.94779 -0.7053,-1.81435 2.331,-7.5475 7.1562,-13.51234 l 2.6291,-3.25 -2.8595,0 c -2.2106,0 -4.2503,1.45383 -8.9892,6.40717 -6.7446,7.04983 -14.4077,18.10714 -14.4077,20.78926 0,0.94221 3.0858,6.79596 6.8573,13.00834 8.4659,13.94484 10.525,17.96366 13.6671,26.67407 4.2641,11.82131 3.7029,16.66075 -4.9866,43.0011 -13.8418,41.95772 -15.3304,51.25921 -11.5821,72.37034 2.3475,13.22156 2.3359,20.87634 -0.043,28.50124 -1.1224,3.59728 -1.1023,4.98224 0.1305,9 2.5478,8.30344 1.5541,18.81188 -3.0373,32.12134 -5.4662,15.84498 -7.0829,25.12568 -7.0773,40.62714 0,14.46069 1.5152,22.14156 5.7981,29.49389 5.5632,9.55017 7.354,13.83567 9.772,23.38433 3.0777,12.15359 3.2159,15.62178 0.6228,15.62178 -2.1776,0 -3.5009,-2.91622 -5.1615,-11.37485 -1.6263,-8.28307 -4.586,-16.46187 -7.6119,-21.0344 -2.2839,-3.45114 -2.7054,-3.70339 -3.5791,-2.14211 -0.6694,1.1962 -0.6263,2.56873 0.1331,4.23545 1.2542,2.75272 0.7161,4.31591 -1.4857,4.31591 -1.9447,0 -3.7001,-4.80517 -3.014,-8.25 0.4726,-2.37262 0.2266,-2.75 -1.7924,-2.75 -1.287,0 -3.5287,0.93492 -4.9813,2.0776 -1.9176,1.50838 -4.6772,2.23157 -10.0722,2.6396 -7.2783,0.55045 -7.4939,0.49908 -10.4936,-2.50068 -3.2087,-3.20868 -3.8692,-5.60008 -1.8852,-6.82621 0.7006,-0.43302 2.2487,0.55547 3.8228,2.44099 2.0344,2.43694 3.4368,3.16516 6.0725,3.15339 5.9557,-0.0266 6.3679,-0.78994 6.3991,-11.84995 0.025,-8.85236 0.2735,-10.23487 2.2118,-12.30385 1.4435,-1.54085 1.9094,-2.83931 1.3744,-3.83089 -0.4451,-0.825 -1.1208,-3.65732 -1.5016,-6.29406 -0.9009,-6.23895 1.8092,-12.05127 8.3695,-17.9495 4.3428,-3.90457 4.9194,-4.96412 6.4531,-11.85778 0.9263,-4.16354 1.3964,-8.32002 1.0447,-9.23661 -0.9315,-2.42753 0.2353,-6.10343 2.9683,-9.35149 1.7885,-2.12548 2.4512,-4.22837 2.6244,-8.32707 0.3017,-7.14203 0.1329,-9.19949 -0.8866,-10.80758 -1.2712,-2.00489 -7.4738,0.93666 -13.1288,6.22624 -3.2107,3.00323 -5.8959,4.57324 -8.6046,5.03086 -5.6992,0.96286 -6.5553,1.79594 -7.1355,6.94331 -0.4565,4.051 -0.8146,4.62368 -2.891,4.62368 -2.1031,0 -2.37,-0.45595 -2.37,-4.04966 0,-7.6618 2.909,-10.5076 14.2855,-13.97505 2.0819,-0.63458 4.4916,-2.23165 5.3548,-3.54905 0.9234,-1.40928 3.9961,-3.28008 7.4646,-4.54475 5.7102,-2.08203 5.8952,-2.26293 5.8956,-5.76548 3e-4,-1.98881 0.9182,-6.03028 2.0397,-8.98105 1.9036,-5.00839 1.9311,-5.52985 0.4145,-7.84442 -1.2317,-1.8799 -2.148,-2.31446 -3.7896,-1.79727 -4.5194,1.42385 -6.1538,1.08664 -6.4974,-1.34059 -0.3195,-2.25722 -0.117,-2.33399 5.2765,-2 4.5748,0.28329 5.5512,0.0708 5.2963,-1.15268 -0.4428,-2.12456 -9.4488,-1.52616 -17.7405,1.17875 -10.8192,3.52947 -30.3816,12.30386 -36.5302,16.38507 -7.8292,5.19678 -25.4698,21.61086 -25.4698,23.69903 0,0.26077 3.2782,0.68452 7.2849,0.94165 7.9625,0.511 12.7151,2.73198 12.7151,5.94189 0,2.72158 -2.7204,3.41657 -5.0657,1.29413 -1.4749,-1.33473 -4.1456,-1.91512 -10.2992,-2.2381 l -8.308,-0.43605 -2.2064,5.43641 c -5.3887,13.27691 -6.5166,25.19087 -3.4272,36.20152 1.4312,5.10066 2.6807,7.00824 8.067,12.3156 4.8188,4.74813 7.0691,6.2801 9.2248,6.2801 1.5681,0 3.6742,0.31585 4.6802,0.70188 1.7553,0.67356 1.7586,0.59428 0.082,-1.96481 -2.2273,-3.39929 -2.2113,-4.73707 0.056,-4.73707 2.9241,0 7.2229,5.37894 20.3793,25.5 10.3435,15.81915 13.8374,20.3073 20.8701,26.80885 8.4439,7.80618 19.0685,14.01396 28.2983,16.53427 2.7559,0.75255 6.5959,3.704 13.5,10.37619 11.0209,10.65081 21.0721,16.40795 34.5585,19.79445 9.4116,2.36332 13.0241,2.44374 21.3715,0.47572 8.017,-1.89013 12.4577,-4.18268 20.3121,-10.4862 6.5677,-5.27098 9.5755,-6.01161 9.1766,-2.25967 -0.206,1.93733 0.4166,2.24324 6,2.94793 10.4568,1.31978 15.2206,0.29156 21.8994,-4.72683 6.4435,-4.84149 10.0021,-5.08063 18.0298,-1.21159 6.555,3.15922 11.0161,8.25144 13.5646,15.48354 0.9548,2.70961 4.4621,8.37733 7.794,12.59495 10.2584,12.98564 21.5469,19.07564 35.4421,19.12044 4.125,0.013 9.75,-0.5783 12.5,-1.3148 z m -72.1053,-51.61486 c -1.4241,-0.57554 -2.3103,-2.09197 -2.739,-4.68661 -0.9993,-6.04797 -0.698,-18.97007 0.687,-29.4685 1.0508,-7.96483 1.0353,-10.79809 -0.09,-16.3632 -1.4327,-7.08883 -1.2693,-8.10791 1.1512,-7.17912 2.3827,0.91433 3.8593,8.39033 3.1904,16.15312 -1.701,19.74159 -1.7917,31.06967 -0.2945,36.77192 1.5762,6.00288 1.5154,6.15501 -1.9056,4.77239 z m -104.2723,-4.53075 c -2.1359,-1.92959 -4.8006,-5.64209 -5.9217,-8.25 -2.1744,-5.05787 -3.3508,-17.40395 -1.7383,-18.24164 1.0164,-0.52801 2.0138,3.23193 3.0506,11.5 0.5677,4.52703 1.2353,5.5787 7.057,11.11767 3.5365,3.36471 6.4299,6.40221 6.4299,6.75 0,1.96261 -5.4906,0.18382 -8.8775,-2.87603 z m 75.4753,-13.22721 c -1.265,-1.26502 -0.4414,-5.15852 3.381,-15.98391 5.9801,-16.93574 9.0486,-22.39414 14.9882,-26.66135 3.2508,-2.3354 5.8531,-5.25352 7.251,-8.13096 2.8378,-5.84084 4.7821,-5.88109 4.7821,-0.099 0,4.87144 -0.941,6.24395 -8.201,11.96187 -6.75,5.31625 -8.3462,8.03901 -11.8726,20.25221 -1.7305,5.99318 -3.9777,12.5287 -4.9938,14.52337 -1.8011,3.53554 -4.1304,5.34222 -5.3349,4.13776 z m -110.309,-66.06479 c -1.523,-0.96791 -4.2888,-7.48663 -4.2888,-10.1085 0,-1.08521 0.5003,-2.28232 1.1118,-2.66024 1.4642,-0.90491 2.8538,1.39749 2.8729,4.76008 0.022,3.79834 1.7438,4.4078 4.7015,1.66379 l 2.5382,-2.35477 -0.8495,-12 c -1.2151,-17.16316 -0.9344,-22.85709 1.3164,-26.71112 2.077,-3.55621 5.3087,-4.98119 5.3087,-2.34076 0,0.87712 -1.1681,3.36001 -2.5959,5.51753 -2.2645,3.42187 -2.4622,4.34488 -1.5483,7.22856 3.0434,9.60214 3.974,28.30044 1.6339,32.82581 -2.2384,4.3286 -6.9371,6.25379 -10.2009,4.17962 z m 125.658,-12.77613 c -12.2603,-9.83298 -15.806,-11.8561 -25.3596,-14.46954 -4.352,-1.19053 -9.9764,-3.04919 -12.4987,-4.13035 -4.0443,-1.73361 -4.3654,-2.08914 -2.7189,-3.01055 4.9619,-2.77683 22.9011,3.62097 34.3137,12.23757 6.4828,4.89454 17.6947,14.80486 18.1501,16.04303 0.9454,2.57057 -3.4172,0.1225 -11.8866,-6.67016 z m -153.9468,-20.15093 c -2.5432,-1.28803 -3.5877,-2.53709 -3.8209,-4.56929 l -0.3209,-2.79671 5.0291,2.62968 c 3.5048,1.83261 6.1785,2.52875 8.821,2.29671 3.2361,-0.28417 3.7917,-0.0399 3.7917,1.66703 0,1.69699 -0.7575,2.0413 -5,2.27258 -3.2711,0.17833 -6.2101,-0.34032 -8.5,-1.5 z m -25.6783,-17.89294 c -4.6739,-4.95586 -9.8334,-15.26791 -8.3708,-16.73051 1.8353,-1.83531 4.0481,0.42789 5.9673,6.1032 2.2142,6.54799 4.4154,9.03203 8.7191,9.8394 3.514,0.65923 4.4977,2.75878 1.7809,3.80128 -3.0746,1.17985 -4.7189,0.56786 -8.0965,-3.01337 z m 58.9045,-7.5582 c 0.4123,-1.23676 2.0898,-2.31125 5.0238,-3.2179 1.2342,-0.38139 1.75,-1.5816 1.75,-4.07216 0,-2.86471 0.3776,-3.53138 2,-3.53138 1.5439,0 2,0.66667 2,2.92327 0,4.20351 -4.3876,9.07673 -8.1722,9.07673 -1.8543,0 -2.8449,-0.44874 -2.6016,-1.17856 z m -30.7262,-11.46534 c -6.8408,-2.12148 -18.5,-9.95701 -18.5,-12.4329 0,-2.97459 1.9755,-2.33681 9.2987,3.00207 4.8633,3.54554 8.7116,5.42908 13.7373,6.72374 3.8399,0.98916 6.8304,2.26029 6.6458,2.82473 -0.5318,1.62532 -5.7381,1.57055 -11.1818,-0.11764 z m 224.0359,-4.09299 c -6.561,-6.56103 -8.2713,-15.03775 -4.29,-21.26311 1.9783,-3.09341 2.2116,-4.63264 2.008,-13.25 -0.1266,-5.3625 -0.022,-9.75 0.2323,-9.75 0.2544,0 1.1491,1.32765 1.9882,2.95034 2.0888,4.03932 1.9201,13.17068 -0.3979,21.52988 -2.083,7.51211 -1.9678,8.11285 2.751,14.33902 2.1818,2.87883 2.6395,3.09787 3.4493,1.65086 0.5135,-0.91761 0.6804,-2.93452 0.3709,-4.48202 -0.7275,-3.63747 1.5602,-5.89046 3.9593,-3.89933 1.2062,1.00101 1.4919,2.53055 1.1458,6.13257 -0.8147,8.47889 -5.9914,11.26725 -11.2169,6.04179 z m -183.8692,-1.92978 c -1.1871,-1.18709 -0.7067,-8.96832 0.8209,-13.29822 1.5022,-4.25765 9.983,-18.99884 14.1154,-24.53511 3.3568,-4.49719 6.397,-13.01865 6.397,-17.93003 0,-2.8503 0.4933,-4.54526 1.4269,-4.90354 2.6214,-1.00593 3.6433,1.69078 2.6418,6.97172 -1.5446,8.14456 -4.7272,15.43855 -12.1685,27.88825 -5.51,9.21845 -7.2823,13.15615 -8.0406,17.86492 -1.1648,7.23301 -3.0376,10.09727 -5.1929,7.94201 z m -2.0597,-32.91512 c -1.7587,-4.58315 2.1148,-35.50411 5.0319,-40.16821 3.7163,-5.94188 4.3584,-0.51507 1.272,10.75 -1.6868,6.15644 -2.8784,18.14885 -2.9064,29.25 -0.01,2.18175 -2.576,2.30901 -3.3975,0.16821 z m 181.5536,-19.96526 c -2.1907,-4.80816 -0.813,-11.45295 2.3747,-11.45295 0.9837,0 1.4684,1.06748 1.4758,3.25 0.01,1.7875 0.2899,4.9375 0.6308,7 0.5412,3.27423 0.3699,3.75 -1.3505,3.75 -1.1409,0 -2.4588,-1.07212 -3.1308,-2.54705 z m -492.514,219.4761 c 4.9991,-2.42002 8.3572,-7.26841 8.3442,-12.04708 0,-1.86009 -2.4801,-15.71749 -5.5,-30.79423 -4.6064,-22.99737 -5.4879,-29.11748 -5.473,-38 0.028,-16.9261 1.4788,-27.32683 4.9855,-35.75032 1.708,-4.1027 3.361,-9.61748 3.6734,-12.25507 l 0.568,-4.79561 -5.6551,-3.23552 c -12.4095,-7.09996 -16.0497,-12.44921 -16.0269,-23.55122 0.012,-5.70901 0.5828,-8.21462 3.0965,-13.58591 l 3.0822,-6.58591 6.3793,-1.31323 c 3.5086,-0.72227 6.7298,-1.50567 7.1581,-1.7409 1.4656,-0.80484 -7.7298,-10.59331 -15.0076,-15.97547 -4.7274,-3.49611 -7.2712,-6.06321 -7.2712,-7.33794 0,-6.20765 13.2364,2.91143 29.2728,20.16718 5.075,5.46087 9.3894,10.40275 9.5877,10.98194 0.8794,2.56891 19.7481,16.8567 28.0235,21.21997 l 9.116,4.80649 0,-4.91856 c 0,-2.70521 1.8222,-12.74836 4.0493,-22.31811 3.5196,-15.124 4.5839,-18.22102 8.1378,-23.68078 2.2487,-3.45468 6.3094,-8.27793 9.0237,-10.71834 7.8897,-7.09354 13.7412,-10.03037 28.6905,-14.39946 2.131,-0.62283 1.0059,-1.60831 -10,-8.75886 -35.9415,-23.35118 -59.3796,-33.80021 -74.9013,-33.39206 -11.1715,0.29377 -20.9848,0.26291 -35.8422,-0.11273 l -13.3423,-0.33732 -6.3553,6.70373 c -9.2463,9.75339 -10.061,13.0645 -7.4102,30.11753 1.1146,7.1704 1.7865,13.66249 1.4932,14.42687 -0.3367,0.87734 -1.2726,1.15514 -2.5382,0.75343 -1.7935,-0.56922 -2.007,-0.18099 -2.0246,3.68105 -0.011,2.37457 -0.6702,7.91739 -1.4652,12.31739 -1.9116,10.58025 -1.899,31.02621 0.026,42.11901 0.8477,4.88454 3.5477,16.56422 6,25.95482 4.22,16.15924 4.4578,17.79304 4.4391,30.5 -0.021,14.37221 -1.2517,25.65222 -3.2473,29.76804 -0.7991,1.64812 -2.4644,2.83317 -4.7329,3.36812 -8.6542,2.04076 -17.7865,5.28212 -21.1462,7.50542 -4.4737,2.9606 -12.5781,5.50689 -15.0402,4.72545 -0.9975,-0.3166 -1.8136,-1.3878 -1.8136,-2.38044 0,-1.31449 1.0258,-1.96884 3.776,-2.40862 2.0769,-0.3321 4.6644,-1.256 5.75,-2.0531 1.9115,-1.4034 1.879,-1.48652 -1.026,-2.6252 -1.65,-0.64675 -4.6353,-1.40761 -6.6339,-1.6908 -4.1971,-0.59469 -7.355,1.79882 -8.4992,6.44186 -0.3762,1.52649 -1.8463,4.31029 -3.2668,6.18623 -2.1433,2.83041 -2.6067,4.57377 -2.7236,10.24557 l -0.1408,6.83478 6.294,5.88776 c 7.8941,7.38457 14.8764,10.85024 24.2248,12.02407 8.699,1.09228 16.8919,4.76407 27.2455,12.21056 6.5594,4.71766 11.7025,7.51298 17,9.23966 4.0466,1.31897 13.5672,0.55062 17.6466,-1.42414 z m -8.2161,-41.04162 c -0.9505,-1.53782 -2.77,-26.56011 -2.065,-28.39731 1.3264,-3.45668 2.3906,-1.00905 2.5042,5.75988 0.067,3.9875 0.9997,10.59411 2.0729,14.68135 1.0732,4.08725 1.7236,7.79975 1.4454,8.25 -0.7322,1.18473 -3.1549,1.0048 -3.9575,-0.29392 z m -33.7638,-1.5541 c -0.3667,-0.36666 -0.6667,-1.30065 -0.6667,-2.07553 0,-1.01721 1.1815,-1.36208 4.25,-1.24059 11.6227,0.46016 13.2686,-0.70374 12.4338,-8.7927 -0.5626,-5.45046 -0.1194,-8.22451 1.3138,-8.22451 0.9663,0 2.1401,6.01844 2.3134,11.86223 0.1073,3.61579 -0.3456,4.77081 -2.6465,6.75 -2.3358,2.0091 -3.8508,2.38777 -9.5536,2.38777 -3.7276,0 -7.0775,-0.3 -7.4442,-0.66667 z m 22.4465,-54.91662 c -4.7554,-6.04545 -11.3773,-28.29806 -14.2342,-47.83364 -1.2927,-8.83923 -0.6827,-27.82869 1.1805,-36.7509 1.4544,-6.96418 5.95,-16.2103 8.0813,-16.62075 1.2788,-0.24628 0.9472,1.50241 -1.7562,9.26167 -5.0049,14.36469 -5.8559,20.7593 -4.4449,33.3971 1.8866,16.89642 5.4816,31.86902 11.0419,45.98741 2.8383,7.20686 4.877,13.56216 4.5305,14.12289 -1.0089,1.63244 -2.2248,1.20021 -4.3989,-1.56378 z m -12.6012,-140.37894 c -1.3819,-4.35404 2.4956,-7.07015 14.3949,-10.08339 2.9743,-0.75318 5.4123,-2.28201 7.5,-4.70309 5.35,-6.20441 6.6388,-7.34109 7.6296,-6.72875 1.698,1.0494 1.0427,3.67903 -2.1609,8.6713 -3.5911,5.59635 -5.3972,6.80616 -10.1606,6.80616 -5.1354,0 -9.1528,1.74836 -11.589,5.04347 -2.5258,3.4164 -4.7218,3.80533 -5.614,0.9943 z m 315.087,180.46924 c 0.7827,-0.23383 0.7167,-2.15264 -0.2292,-6.66766 -0.7304,-3.48664 -1.3375,-7.811 -1.3489,-9.60967 l -0.021,-3.27033 -3.937,2.00849 c -3.4506,1.76035 -4.019,2.55593 -4.6015,6.4399 -0.3655,2.43728 -0.3622,6.22055 0.01,8.40727 l 0.6717,3.97584 4.1798,-0.47776 c 2.2989,-0.26277 4.6743,-0.6255 5.2787,-0.80608 z m -78.1621,-26.15768 c -7.4744,-9.79196 -10.1143,-18.91815 -9.007,-31.13744 1.4933,-16.47955 7.5415,-28.38634 21.4752,-42.2777 5.2772,-5.26119 12.5199,-11.47497 16.0949,-13.8084 13.8263,-9.02446 36.2516,-18.48204 51,-21.50854 l 6.5,-1.33385 -0.3227,-3.87763 c -0.3782,-4.54485 -0.3223,-4.50063 -10.6773,-8.44899 -12.8878,-4.91416 -14.5434,-5.99184 -24,-15.62205 -10.5544,-10.74828 -12.7776,-11.6154 -21.8914,-8.53858 -4.9142,1.65902 -5.8521,1.73289 -6.3258,0.49828 -0.3059,-0.79723 0.1353,-2.14111 0.9806,-2.9864 1.3825,-1.38252 0.5676,-2.26908 -8.1132,-8.82641 -11.1758,-8.44196 -15.3548,-9.93287 -25.0092,-8.92236 -19.8619,2.07891 -33.6455,11.20341 -42.1072,27.87419 l -3.4552,6.8073 2.7665,2.37963 c 2.1638,1.86119 3.9253,2.37962 8.0857,2.37962 5.0025,0 5.352,-0.16372 5.8703,-2.75 0.7384,-3.68482 6.181,-11.05688 9.1677,-12.41773 1.322,-0.60235 3.1624,-0.80404 4.0898,-0.44818 1.4018,0.53791 0.9067,1.48019 -2.9363,5.58862 -5.6609,6.052 -6.1467,8.67907 -1.3723,7.42074 1.7875,-0.4711 7.3662,-0.86485 12.397,-0.875 7.609,-0.0154 9.5006,0.30187 11.25,1.88654 3.9248,3.55522 1.9586,8.19078 -2.1961,5.17747 -7.2148,-5.23275 -5.661,-5.13738 -17.4337,-1.0701 -10.8498,3.74842 -19.978,5.279 -24.586,4.12247 -1.3735,-0.34472 -7.3651,-4.51376 -13.3147,-9.26453 l -10.8175,-8.63777 -8.5245,0.61394 c -23.2796,1.67661 -40.9371,11.69748 -49.7189,28.21624 -2.5197,4.73956 -3.7343,9.19849 -5.75,21.10908 -2.7804,16.4286 -3.0442,21.4584 -1.486,28.32821 2.2769,10.03801 3.0267,12 4.5858,12 3.329,0 23.2615,9.23696 27.1913,12.60078 4.8209,4.12646 6.7261,4.75502 22.4244,7.39815 13.5007,2.27312 16.7437,3.70107 26.8858,11.83813 8.0701,6.47462 11.0134,8.12758 24.3431,13.67073 13.0796,5.43914 14.9016,5.8304 20.4862,4.39912 4.6653,-1.19568 7.3623,-0.71332 16.7572,2.99697 0.1339,0.0529 -1.354,-1.99668 -3.3065,-4.55455 z m -20.9523,-3.73261 c -0.8589,-1.3108 -2.0668,-6.4858 -2.6841,-11.5 -1.0984,-8.92052 -1.1797,-9.11672 -3.7802,-9.11672 -4.6711,0 -20.0203,-10.34515 -20.0203,-13.49339 0,-2.24883 1.7916,-1.83623 5.8561,1.3487 5.0813,3.98157 6.9655,4.84557 12.3174,5.64805 l 4.6734,0.70076 0.6578,-4.85206 c 1.1538,-8.50983 4.4062,-19.22493 8.0037,-26.36858 1.9204,-3.81345 3.4916,-7.16979 3.4916,-7.45852 0,-0.28873 -1.9125,-0.52245 -4.25,-0.51938 -11.63,0.0153 -19.1091,5.32755 -29.5824,21.01187 -7.4807,11.20268 -10.3568,13.65943 -10.9692,9.36956 -0.4709,-3.29917 -4.7261,-4.77905 -8.067,-2.80554 -2.2229,1.31312 -3.442,1.40866 -6.6755,0.52315 -4.7193,-1.29241 -7.1342,-2.84313 -15.7358,-10.10462 -8.1408,-6.87253 -29.2978,-18 -34.224,-18 -2.7888,0 -3.4961,-0.391 -3.4961,-1.93261 0,-4.77051 9.0108,-3.0174 25.6947,4.99906 7.2067,3.46275 12.0427,6.62095 16.5,10.77546 8.7601,8.16497 11.0562,9.16322 21.0057,9.1323 l 8.2996,-0.0258 3.4629,-5.10281 c 11.566,-17.04352 24.4677,-25.35358 38.3299,-24.68853 4.7304,0.22694 4.8564,0.15245 9.6691,-5.71358 15.232,-18.56582 47.1928,-37.1958 64.5971,-37.65371 5.8174,-0.15306 6.9937,0.32769 6.1542,2.51525 -0.3313,0.86348 -2.7936,1.62749 -6.4904,2.01388 -16.3093,1.70465 -37.5479,13.80547 -54.9196,31.29065 -8.8123,8.86989 -10.8087,11.52801 -14.7032,19.57693 -9.5833,19.80578 -12.7634,39.20684 -8.7359,53.29536 1.423,4.97766 1.6938,7.34589 0.9435,8.25 -1.6076,1.93706 -3.5961,1.52048 -5.323,-1.11515 z m 97.575,0.0981 c 0.033,-2.86815 0.4149,-7.37475 0.8491,-10.01466 l 0.7894,-4.79984 -3.3302,3.22775 c -4.4866,4.34854 -5.8826,8.75647 -4.3141,13.62193 1.6869,5.23299 1.8294,5.38291 4.0069,4.21752 1.5244,-0.81581 1.9521,-2.15369 1.9989,-6.2527 z m 79.103,-62.89723 c -2.5356,-8.5547 -2.6783,-11.64753 -0.7504,-16.26171 l 1.4122,-3.37989 -6.0337,-0.70029 c -4.5994,-0.53381 -6.239,-0.37643 -6.8969,0.662 -1.493,2.35641 -0.9082,10.14528 1.191,15.8623 1.8018,4.90719 4.4618,12.96881 5.59,16.94131 0.2928,1.03118 1.4404,0.41017 4.033,-2.18241 l 3.6237,-3.62371 -2.1689,-7.3176 z m 89.8375,-3.75677 c 0,-1.98675 -1.2822,-4.42061 -3.9567,-7.51081 -2.2682,-2.62062 -4.2728,-6.16737 -4.6973,-8.31082 -0.8133,-4.10576 -1.0479,-23.62851 -0.4878,-40.58128 l 0.3582,-10.8421 -6.08,-12.1579 c -7.9736,-15.94466 -9.5803,-22.32603 -8.7261,-34.65791 0.3619,-5.225 1.3019,-13.1 2.0889,-17.5 2.0312,-11.35565 1.8985,-18.80915 -0.4145,-23.28984 -1.8268,-3.53868 -9.7295,-12.05873 -10.3377,-11.14518 -0.1593,0.23926 -1.2874,4.48502 -2.5069,9.43502 -5.6649,22.99332 -22.2657,44.50958 -38.7402,50.21117 -5.639,1.95158 -16.3841,2.13438 -20.917,0.35585 -4.2564,-1.67005 -4.7523,-0.2207 -4.2538,12.43298 0.337,8.55478 1.1185,13.2441 3.5155,21.09527 1.6952,5.5524 3.3738,11.91868 3.7302,14.14728 0.8205,5.13137 -1.6214,17.35863 -5.4437,27.25745 -2.5688,6.65245 -2.7115,7.5682 -1.2636,8.10348 0.8978,0.33191 7.3489,0.90042 14.3357,1.26334 14.8973,0.77384 35.0192,3.99621 42.5511,6.81422 2.9206,1.09276 7.2082,3.51981 9.5279,5.39344 5.2248,4.22002 5.804,4.48899 18.7178,8.69235 13.3321,4.33955 13,4.31926 13,0.79399 z m -300.0954,-77.40662 c 1.1803,-1.90978 5.0658,-6.20358 8.6343,-9.54176 6.3427,-5.93332 6.8251,-6.17534 21.5103,-10.79223 l 15.0221,-4.72281 -13.7064,-13.73269 c -7.5385,-7.55297 -15.7671,-14.85248 -18.2857,-16.22111 -2.5186,-1.36864 -9.2458,-3.66988 -14.9492,-5.11386 -5.7035,-1.44399 -13.5267,-4.21509 -17.3848,-6.158 -11.3396,-5.71057 -28.133,-8.058 -38.0146,-5.31381 -4.8921,1.35854 -16.2243,11.87777 -17.7385,16.46582 -0.9991,3.02742 -0.7243,4.39771 2.4963,12.44753 1.9905,4.97509 3.3434,9.49181 3.0063,10.03717 -0.8957,1.44937 -3.5948,1.21104 -5.4663,-0.4827 -1.4711,-1.33131 -1.7331,-1.08418 -2.7029,2.54912 l -1.0739,4.02337 5.738,2.89653 c 3.1559,1.59309 8.0788,4.27672 10.9398,5.96363 4.6656,2.75097 5.0404,2.83671 3.6362,0.83185 -1.7305,-2.47055 -2.0906,-5.79025 -0.6282,-5.79025 0.5156,0 3.1031,2.55031 5.75,5.66735 9.8808,11.63586 21.5742,21.82996 23.9811,20.90635 4.1239,-1.58248 19.1261,3.06413 22.3207,6.91335 1.2044,1.45128 1.5456,1.13225 3.0624,-2.86364 0.9389,-2.47328 2.6727,-6.05943 3.853,-7.96921 z m -55.7524,-34.26281 c 0.5557,-2.97381 14.8263,-6.25517 27.5326,-6.33078 10.7073,-0.0637 14.9665,0.86729 15.9735,3.4916 1.04,2.71014 -0.9447,3.46043 -5.1718,1.95516 -5.2613,-1.87352 -14.3407,-1.83928 -22.9866,0.0867 -3.85,0.85763 -8.9577,1.81344 -11.3505,2.12402 -3.8776,0.50331 -4.3121,0.35908 -3.9972,-1.32668 z m 284.5232,-2.48213 c 8.5636,-4.10635 18.7142,-15.08387 24.2145,-26.18722 15.3499,-30.98636 10.8139,-68.68308 -9.3678,-77.85096 -2.4575,-1.11637 -6.3914,-1.8357 -10.1124,-1.84912 -8.7604,-0.0316 -16.2124,3.93245 -25.2209,13.41603 -20.9377,22.042 -27.2681,61.76527 -13.3356,83.6809 3.6996,5.81948 8.9562,9.86121 14.9673,11.50836 6.0943,1.66994 11.2557,0.92591 18.8549,-2.71799 z m -20.4584,-1.51861 c -8.1276,-6.40505 -11.3772,-20.69734 -9.3508,-41.12596 3.0965,-31.21507 12.5281,-50.97773 27.6282,-57.89077 5.6011,-2.56428 12.624,-3.57858 13.5055,-1.95058 0.275,0.50783 -2.9641,1.97676 -7.198,3.26427 -6.3355,1.92662 -8.5982,3.21781 -12.7843,7.2952 -9.1656,8.92754 -15.6655,26.91564 -17.9361,49.6371 -1.8936,18.94836 1.6457,33.59186 9.321,38.56514 1.965,1.27322 3.5782,2.87745 3.5851,3.56495 0.02,2.05915 -3.2714,1.39825 -6.7706,-1.35935 z m -74.1385,-30.40555 c 6.8345,-1.29614 13.0839,-4.32949 17.4996,-8.49405 l 3.4821,-3.28403 -9.0301,-17.53953 c -4.9666,-9.64674 -9.0258,-18.58082 -9.0204,-19.85351 0.035,-8.30882 19.8393,-35.86925 25.7179,-35.79012 1.8891,0.0254 7.3238,1.20264 11.0068,2.3842 2.215,0.7106 2.2093,0.65769 -0.6521,-6.09562 -5.7695,-13.61677 -15.5829,-20.95062 -26.9353,-20.12946 -19.0084,1.37495 -34.5779,21.63782 -41.3517,53.81702 -5.1717,24.56875 2.502,49.00773 17.2345,54.88741 3.2562,1.29952 5.6108,1.31861 12.0487,0.0977 z m -12.1235,-4.74431 c -6.7816,-6.78161 -8.4832,-12.83426 -8.3613,-29.74079 0.1837,-25.47919 6.9284,-48.51707 17.5904,-60.08398 5.283,-5.73139 15.1359,-10.66818 20.4265,-10.23469 5.3717,0.44013 4.8669,1.94425 -1.1107,3.30925 -7.7578,1.77154 -12.0958,4.28675 -17.3969,10.08702 -8.2933,9.0742 -13.713,25.33944 -16.0316,48.1128 -1.198,11.76746 -0.1329,23.12171 2.7888,29.72655 1.0403,2.35177 3.951,5.99752 6.4682,8.10166 2.5172,2.10413 4.3465,4.19823 4.0651,4.65355 -1.1533,1.86606 -3.9388,0.56832 -8.4385,-3.93137 z m 197.2207,2.72714 c 10.2567,-2.84875 22.6597,-14.99944 29.3809,-28.78306 14.8916,-30.5392 9.0563,-68.89094 -11.4151,-75.02431 -9.1399,-2.7384 -17.7077,-0.60105 -26.7465,6.67223 -20.211,16.26343 -30.7159,51.2205 -22.8627,76.08026 3.2127,10.16999 7.3923,15.78104 14.4039,19.33695 5.7903,2.93657 10.9873,3.45445 17.2395,1.71793 z m -14.5146,-3.96065 c -5.932,-5.20833 -8.023,-11.64206 -8.4658,-26.04748 -0.6902,-22.45773 4.9627,-46.31497 13.7431,-58.00054 6.4003,-8.51799 15.666,-13.95926 23.7706,-13.95926 5.0967,0 3.6291,2.16005 -2.3884,3.5153 -13.949,3.14159 -23.0242,14.27409 -28.2298,34.62922 -7.3409,28.70448 -4.5479,54.04508 6.5122,59.08439 1.3184,0.60067 2.397,1.69489 2.397,2.43161 0,2.31519 -3.7921,1.46095 -7.3389,-1.65324 z m -23.8434,-52.92573 c 1.0095,-4.26716 0.9313,-4.53252 -2.2862,-7.75 -2.8201,-2.82005 -4.0454,-3.33155 -7.9812,-3.33155 -3.8851,0 -10.5504,2.15105 -10.5504,3.40484 0,0.19441 1.158,2.88285 2.5733,5.97432 2.489,5.4366 2.7021,5.62084 6.5,5.62084 l 3.9267,0 0,6.03324 c 0,4.63521 0.6337,7.24209 2.7348,11.25 l 2.7348,5.21676 0.6515,-11 c 0.3583,-6.05 1.1218,-12.9883 1.6967,-15.41845 z m -11.8881,9.66845 c 0.039,-0.4125 -0.3797,-0.75 -0.9297,-0.75 -0.55,0 -0.9683,1.2375 -0.9297,2.75 0.062,2.43684 0.1682,2.52225 0.9297,0.75 0.4727,-1.1 0.8911,-2.3375 0.9297,-2.75 z m 22.4429,-36.548 c 1.4451,-2.28924 2.6275,-4.3962 2.6275,-4.68213 0,-0.28593 -2.0021,-0.51987 -4.4491,-0.51987 -3.8447,0 -4.7861,0.44169 -6.9289,3.25111 -2.0653,2.70774 -6.6221,11.88159 -6.6221,13.3318 0,0.2294 0.5625,0.4271 1.25,0.43933 0.6875,0.0122 2.375,0.89697 3.75,1.96608 l 2.5,1.94385 2.6225,-5.78395 c 1.4424,-3.18118 3.8049,-7.65698 5.2501,-9.94622 z m -34.3481,10.548 c 0.041,-5.49577 1.9694,-12.05321 4.5318,-15.41269 l 2.4429,-3.20279 -2.1864,-0.69394 c -1.7261,-0.54785 -2.9599,0.13537 -5.8609,3.2454 -3.0399,3.25887 -3.8019,4.95822 -4.4116,9.83784 -0.669,5.35449 -0.5332,6.06349 1.4722,7.68734 3.1432,2.5452 3.9841,2.23892 4.012,-1.46116 z m -44.5805,-0.19231 c 0.212,-1.13173 0.9028,-5.88269 1.535,-10.55769 1.6781,-12.40918 3.6716,-19.50219 8.0099,-28.5 6.142,-12.73861 15.2495,-20.25335 26.7611,-22.0809 3.3303,-0.5287 4.25,-0.36579 4.25,0.75276 0,0.91261 -2.6839,2.21711 -7.4413,3.61674 -6.2065,1.82599 -8.2679,3.01589 -12.4227,7.17071 -2.7398,2.73979 -6.3678,7.80726 -8.0621,11.26106 -3.5053,7.14506 -7.709,22.76201 -8.6811,32.25037 l -0.6566,6.40889 4.3595,-2.15691 c 2.5488,-1.26108 6.945,-2.32155 10.5846,-2.5533 l 6.2251,-0.39638 1.1203,-5.39652 c 0.6161,-2.96808 2.2026,-6.68281 3.5255,-8.25494 2.1372,-2.53998 3.4483,-2.99649 11.7684,-4.0977 8.2448,-1.09124 9.7346,-1.04723 12.4722,0.36843 1.7099,0.88423 4.7504,1.60769 6.7568,1.60769 l 3.6478,0 -0.6816,-6.25 c -2.0177,-18.50025 -7.5634,-29.20726 -17.8197,-34.40453 -4.1813,-2.11881 -6.0925,-2.48948 -11.1694,-2.1662 -11.561,0.73614 -20.7006,7.05624 -30.6397,21.18742 -7.0344,10.00143 -9.5731,18.10166 -13.2233,42.191 -0.2784,1.83713 0.2085,2.0577 4.542,2.0577 4.1076,0 4.913,-0.31635 5.2393,-2.0577 z m 59.3037,-2.90406 c 0.6141,-2.29587 2.2242,-5.80671 3.5782,-7.80185 l 2.4617,-3.62755 -2.4408,-1.11211 c -3.504,-1.59654 -4.7291,-1.39854 -7.1247,1.15153 -2.4582,2.6166 -4.697,7.71572 -5.5951,12.74354 l -0.6265,3.50718 4.3154,-0.34321 c 4.1303,-0.3285 4.3632,-0.52223 5.4318,-4.51753 z m -21.2281,-13.67526 c 1.973,-2.18008 0.9895,-2.5026 -3.0028,-0.98473 -2.5432,0.96692 -4.5115,4.39127 -5.9085,10.2794 -0.5428,2.28782 -0.2599,2.92044 1.6169,3.61544 2.1147,0.78311 2.3885,0.42793 3.8894,-5.04467 0.8881,-3.23789 2.4203,-6.77734 3.405,-7.86544 z"
       id="path3269"
       inkscape:connector-curvature="0" />
  </g>
</svg>
