<?xml version="1.0" encoding="UTF-8" standalone="no"?>
<!-- Created with Inkscape (http://www.inkscape.org/) -->

<svg
   xmlns:dc="http://purl.org/dc/elements/1.1/"
   xmlns:cc="http://creativecommons.org/ns#"
   xmlns:rdf="http://www.w3.org/1999/02/22-rdf-syntax-ns#"
   xmlns:svg="http://www.w3.org/2000/svg"
   xmlns="http://www.w3.org/2000/svg"
   xmlns:xlink="http://www.w3.org/1999/xlink"
   xmlns:sodipodi="http://sodipodi.sourceforge.net/DTD/sodipodi-0.dtd"
   xmlns:inkscape="http://www.inkscape.org/namespaces/inkscape"
   width="330.66727"
   height="895.93707"
   id="svg2"
   version="1.1"
   inkscape:version="0.48.3.1 r9886"
   sodipodi:docname="Dumbbell-front-raises-1.svg">
  <defs
     id="defs4">
    <radialGradient
       gradientUnits="userSpaceOnUse"
       gradientTransform="matrix(1,0,0,0.91819829,-19.285714,-7.9105395)"
       r="209.56604"
       fy="287.50052"
       fx="398.1105"
       cy="287.50052"
       cx="398.1105"
       id="radialGradient5255"
       xlink:href="#linearGradient5249"
       inkscape:collect="always" />
    <linearGradient
       id="linearGradient5249"
       inkscape:collect="always">
      <stop
         id="stop5251"
         offset="0"
         style="stop-color:#e3e3e3;stop-opacity:1;" />
      <stop
         id="stop5253"
         offset="1"
         style="stop-color:#e3e3e3;stop-opacity:0;" />
    </linearGradient>
  </defs>
  <sodipodi:namedview
     id="base"
     pagecolor="#ffffff"
     bordercolor="#666666"
     borderopacity="1.0"
     inkscape:pageopacity="0.0"
     inkscape:pageshadow="2"
     inkscape:zoom="0.35"
     inkscape:cx="63.049945"
     inkscape:cy="301.58914"
     inkscape:document-units="px"
     inkscape:current-layer="layer1"
     showgrid="false"
     showguides="true"
     inkscape:guide-bbox="true"
     fit-margin-top="0"
     fit-margin-left="0"
     fit-margin-right="0"
     fit-margin-bottom="0"
     inkscape:window-width="1217"
     inkscape:window-height="829"
     inkscape:window-x="397"
     inkscape:window-y="440"
     inkscape:window-maximized="0">
    <sodipodi:guide
       orientation="-0.70710678,0.70710678"
       position="-2174.0882,635.26613"
       id="guide2985" />
  </sodipodi:namedview>
  <metadata
     id="metadata7">
    <rdf:RDF>
      <cc:Work
         rdf:about="">
        <dc:format>image/svg+xml</dc:format>
        <dc:type
           rdf:resource="http://purl.org/dc/dcmitype/StillImage" />
        <dc:title></dc:title>
      </cc:Work>
    </rdf:RDF>
  </metadata>
  <g
     inkscape:label="Ebene 1"
     inkscape:groupmode="layer"
     id="layer1"
     transform="translate(-745.51683,234.023)">
    <path
       style="fill:#000000"
       d="m 824.43183,658.52166 c -5.27583,-3.0165 -15.05355,-10.5282 -17.81133,-13.6835 -2.59905,-2.9737 -6.22849,-15.9057 -7.39844,-26.3612 -1.02759,-9.1832 -1.50113,-10.5988 -7.85807,-23.49072 -3.89942,-7.90806 -4.64709,-10.32611 -4.48344,-14.5 0.2199,-5.60866 0.26246,-12.91973 0.12085,-20.75924 -0.0521,-2.8875 0.42139,-8.85 1.05232,-13.25 1.63676,-11.41447 0.13203,-22.08021 -7.0909,-50.26119 -5.55352,-21.66762 -6.08427,-24.65493 -6.08318,-34.23881 0.002,-16.05621 4.61459,-37.1182 10.75749,-49.11911 2.57281,-5.02631 5.59505,-11.44323 6.71608,-14.25982 4.3583,-10.95021 6.94136,-51.66901 4.86057,-76.62107 -0.61918,-7.425 -1.38039,-19.8 -1.69159,-27.5 -0.5512,-13.63854 -0.63874,-14.07746 -3.39059,-17 -5.22711,-5.55134 -5.3179,-7.33976 -0.84243,-16.59446 2.52585,-5.22313 5.23688,-13.42989 7.37707,-22.33169 1.86103,-7.74062 4.53888,-17.12162 5.95079,-20.84668 3.11438,-8.21666 3.20534,-12.80044 0.37165,-18.72717 -2.8879,-6.04013 -3.53489,-23.84986 -1.47128,-40.5 1.37822,-11.12006 1.8605,-12.71818 6.57701,-21.79401 4.38586,-8.43955 5.08897,-10.58312 5.08416,-15.5 -0.003,-3.1383 -0.41192,-7.28099 -0.90857,-9.20599 -0.49664,-1.925 -1.18952,-5.1875 -1.53973,-7.25 -0.37543,-2.211 -1.20226,-3.75 -2.01471,-3.75 -0.75788,0 -2.69813,-1.110846 -4.31167,-2.468542 -2.28827,-1.925458 -3.06479,-3.575298 -3.52949,-7.499008 -0.59411,-5.016294 -3.39992,-12.187274 -5.88179,-15.032444 -0.71965,-0.825 -4.68346,-4.37691 -8.80846,-7.89314 -9.63536,-8.21336 -14.24734,-13.2473 -18.5411,-20.23746 -5.09168,-8.28915 -8.37303,-17.88985 -10.0051,-29.27336 -2.82815,-19.7259592 -3.60596,-22.7219894 -7.53451,-29.021759 -6.87526,-11.025081 -8.63038,-27.656991 -4.01873,-38.082391 1.0136,-2.29141 7.95492,-10.94308 15.42515,-19.22592 14.20862,-15.75425 23.37574,-23.13238 33.33133,-26.82665 6.7302,-2.49741 9.50468,-4.59884 15.67589,-11.873116 4.55144,-5.36499 5.53904,-7.27424 6.56448,-12.69064 0.66387,-3.50656 2.05207,-9.07557 3.08488,-12.37557 3.38656,-10.82062 3.48434,-12.36904 0.84606,-13.39808 -4.75848,-1.85601 -11.99028,-11.27586 -13.79116,-17.9638 -1.00785,-3.74289 -0.87787,-5.304 0.93998,-11.28886 1.16027,-3.81992 2.75317,-7.19229 3.53979,-7.49414 1.09343,-0.41959 1.42049,-2.59965 1.38894,-9.2582 -0.0585,-12.35384 0.80376,-15.19797 7.84488,-25.87474 6.80757,-10.32262 20.48655,-17.22218 34.14446,-17.22218 8.60849,0 16.66403,2.13386 25.41465,6.73218 7.80312,4.10043 13.31246,10.49943 18.6256,21.63332 5.57239,11.67716 6.5145,18.3942 6.54078,46.6345 l 0.0237,25.5 -4.64741,9 c -2.55607,4.95 -5.81857,10.09094 -7.25,11.42431 -1.43142,1.33338 -2.60259,3.0105 -2.60259,3.72695 0,4.08612 14.99608,7.74333 32,7.80408 11.76752,0.042 12.81744,0.21176 17.91733,2.896306 10.66921,5.61618 19.82173,16.81016 23.0149,28.14836 0.61959,2.2 1.78572,11.65 2.5914,21 1.5855,18.39994 3.04248,26.9869 7.46558,44.0000006 4.503,17.3204294 5.1347,21.9644994 3.9751,29.2235694 -1.008,6.30979 -0.9692,6.50845 2.364,12.09579 1.8638,3.12435 4.0551,7.03064 4.8695,8.68064 0.8143,1.65 3.098,5.925 5.0748,9.5 3.9665,7.17307 9.80597,22.24037 12.17707,31.41948 0.841,3.255714 2.2266,13.380712 3.0791,22.499994 0.8525,9.11928 2.2414,20.63052 3.0864,25.58052 0.845,4.95 2.1666,13.18485 2.9368,18.29967 1.5381,10.21499 6.3588,26.09288 12.7441,41.97594 l 4.1311,10.27562 -1.9091,3.5449 c -1.0499,1.9497 -4.1611,5.42568 -6.9137,7.72439 -2.7526,2.29871 -6.7719,6.09198 -8.9319,8.42948 -3.3302,3.60389 -4.5209,4.25 -7.832,4.25 -4.5995,0 -9.79887,-1.9868 -12.44887,-4.75704 -1.0404,-1.08759 -3.6916,-2.54735 -5.8916,-3.24391 -2.2,-0.69656 -5.2375,-1.89286 -6.75,-2.65844 l -2.75,-1.39197 0,8.5228 c 0,8.22166 0.1168,8.6554 3.306,12.27568 8.5882,9.74888 9.6155,12.94775 5.107,15.90185 -2.8537,1.86977 -2.8556,1.94826 -0.4375,17.35103 0.6475,4.125 1.2668,16.05 1.376,26.5 0.1737,16.61643 0.4985,20.06633 2.5887,27.5 2.6093,9.28003 2.6338,9.99904 1.5655,46 -0.4944,16.66018 -0.1925,27.69047 1.3412,49 1.6323,22.67971 1.801,29.95396 0.9629,41.5 -0.559,7.7 -1.0824,19.625 -1.1631,26.5 l -0.1467,12.5 8.66307,12 c 8.7542,12.12618 14.0417,17.84113 21.3369,23.06183 2.2,1.57441 6.0477,4.72616 8.5506,7.0039 4.9184,4.47611 11.1233,7.16719 24.1383,10.46888 11.411,2.89476 19.3028,6.55451 20.6875,9.59356 0.618,1.35626 1.1236,4.69347 1.1236,7.416 0,4.27613 -0.4887,5.49099 -3.5895,8.92317 -7.8656,8.70627 -20.2031,11.66764 -44.4366,10.66613 -19.6611,-0.81254 -23.9296,-1.74471 -31.34277,-6.84484 l -6.1311,-4.21803 -19.99998,-0.57503 c -22.31062,-0.64147 -23.12948,-0.85905 -30,-7.97168 l -4,-4.14096 0.14086,-12.19146 c 0.10065,-8.71223 0.77927,-14.90261 2.3779,-21.69147 5.48572,-23.29609 6.01815,-26.66448 6.16463,-39 0.19294,-16.24955 -1.51022,-22.46741 -9.00605,-32.87904 -10.89894,-15.13851 -13.5133,-24.52058 -13.54842,-48.62096 -0.0181,-12.40006 0.45338,-18.36246 2.09537,-26.5 3.66572,-18.16686 3.66552,-18.08733 0.0603,-24.6549 -3.0033,-5.47105 -3.24306,-6.64937 -3.74661,-18.41306 l -0.53798,-12.56796 -12.16476,-18.43204 c -6.69061,-10.13762 -12.96546,-20.12793 -13.9441,-22.20067 -0.97863,-2.07275 -2.24581,-3.61315 -2.81594,-3.4231 -1.09174,0.36391 -3.50487,14.18092 -5.50426,31.51605 -2.25712,19.56973 -7.12708,32.33641 -16.33582,42.82458 -2.51659,2.86624 -3.27014,4.82983 -3.91448,10.20032 -0.63487,5.29161 -2.26274,9.61404 -7.96558,21.15078 -10.955,22.16176 -11.59647,24.25608 -10.63865,34.73359 0.44076,4.82152 0.8973,16.41641 1.01452,25.76641 l 0.21314,17 -3.70079,9.1741 c -4.66317,11.5598 -5.31327,14.52886 -7.75292,35.40843 -2.79424,23.91421 -2.65322,30.20533 0.9022,40.24751 4.59189,12.96967 7.36408,18.58921 15.68389,31.79305 10.53854,16.72507 11.62408,18.17357 20.51585,27.37687 10.52871,10.8976 12.91007,14.6622 12.89793,20.3896 -0.0199,9.3868 -7.05217,19.0959 -13.83902,19.1067 -1.3009,0 -3.56219,1.3027 -5.06856,2.9153 -2.01841,2.1607 -3.99145,3.0755 -7.6512,3.5475 -2.7123,0.3498 -7.43597,1.2896 -10.49705,2.0885 -3.06109,0.7988 -9.13609,1.447 -13.5,1.4404 -6.55692,-0.01 -8.67264,-0.4341 -12.18672,-2.4434 z m 22.40656,-7.0447 c 1.97451,-0.825 6.46398,-1.5 9.97662,-1.5 l 6.38661,0 -0.63383,-5.3929 c -0.57572,-4.8985 -0.43982,-5.4544 1.48232,-6.0645 2.63449,-0.8362 3.99793,-0.031 5.17097,3.0546 2.00326,5.2689 8.1927,1.7826 9.96719,-5.6143 1.66785,-6.9524 0.45762,-9.378 -8.89043,-17.8188 -4.22799,-3.8177 -8.84548,-8.6789 -10.2611,-10.8026 -17.77296,-26.664 -26.13666,-42.04203 -30.93102,-56.8718 -2.13875,-6.61553 -2.19144,-7.47139 -0.98443,-15.98966 0.70141,-4.95 1.61193,-15.3 2.02339,-23 0.80396,-15.04509 2.66726,-24.06593 7.14387,-34.58581 4.54182,-10.67313 5.13033,-14.87624 4.36354,-31.16419 -0.38191,-8.1125 -0.98094,-14.73578 -1.33116,-14.71839 -0.35023,0.0174 -1.89304,2.10033 -3.42848,4.62877 -2.9975,4.93607 -6.88065,17.18548 -8.71224,27.48279 -1.92559,10.82577 -4.12489,19.85683 -4.83567,19.85683 -0.37361,0 -1.23083,-0.88314 -1.90492,-1.96254 -0.98949,-1.58442 -0.82435,-4.32987 0.85716,-14.25 3.21257,-18.9527 6.52454,-30.40521 11.36161,-39.28746 2.43052,-4.46313 5.30974,-11.75792 6.51247,-16.5 1.18572,-4.675 3.31488,-10.525 4.73147,-13 1.41658,-2.475 3.77565,-6.75 5.24237,-9.5 1.46673,-2.75 4.06299,-7.475 5.76948,-10.5 1.70648,-3.025 3.56377,-7.3 4.12731,-9.5 0.56353,-2.2 1.55159,-6.1087 2.19568,-8.68601 0.64409,-2.5773 1.79557,-4.92565 2.55885,-5.21854 2.37563,-0.91162 10.6091,-14.63158 12.57921,-20.96156 1.03221,-3.3165 2.54639,-12.80337 3.36484,-21.08194 0.81845,-8.27857 1.86676,-17.18945 2.32957,-19.80195 1.10001,-6.20936 -0.31868,-6.23605 -6.61793,-0.1245 -6.94275,6.73587 -13.10507,9.35273 -22.05256,9.36473 -6.07516,0.008 -9.72877,-0.80555 -22,-4.89964 -8.09325,-2.70018 -17.64,-6.30117 -21.215,-8.00221 l -6.5,-3.09279 -0.77239,4.7522 c -0.42482,2.61372 -0.22464,13.24792 0.44483,23.63157 0.96318,14.93924 0.95657,24.12202 -0.0317,44 -1.58477,31.87573 -1.96335,34.20918 -7.67264,47.29164 -2.59923,5.95595 -5.98664,13.754 -7.52759,17.329 -5.27568,12.23956 -7.38156,22.32518 -7.41241,35.5 -0.0264,11.29177 0.25122,13.00333 4.70453,29 6.33924,22.77109 8.64905,34.29196 9.72984,48.5305 0.80114,10.55432 0.69062,12.52585 -0.96643,17.24047 -1.64725,4.68671 -1.72295,5.97554 -0.63296,10.77621 1.03833,4.57312 0.98962,6.39681 -0.30196,11.30417 l -1.54003,5.85135 5.29159,10.14865 c 3.96513,7.60461 5.63739,12.15401 6.67107,18.14861 0.75872,4.4 2.29017,10.925 3.40322,14.5 1.11304,3.575 2.34247,8.5135 2.73206,10.9744 0.56044,3.5401 1.68291,5.4193 5.37576,9 6.87854,6.6696 12.1136,8.995 20.28734,9.0118 3.79816,0.01 8.36162,-0.6461 10.37212,-1.4862 z m -13.45424,-9.7 c -3.04045,-3.0404 -0.6095,-6.5347 5.20231,-7.4778 6.62362,-1.0749 8.83484,3.3432 3.34769,6.6888 -3.69724,2.2543 -6.79858,2.5405 -8.55,0.789 z m 21.94767,-10.2846 c -3.59983,-4.0999 -3.75605,-4.7656 -1.54847,-6.5977 1.34622,-1.1172 2.1767,-1.0177 5.25,0.6295 3.13238,1.6789 3.6508,2.4535 3.6508,5.4548 0,5.032 -3.18938,5.2548 -7.35233,0.5134 z m -49.6342,-66.47292 c -1.09434,-3.44795 1.33362,-8.64677 6.08258,-13.02422 5.40541,-4.98252 9.69257,-5.34477 10.21125,-0.86281 0.23893,2.06468 -0.50075,3.27172 -3.32493,5.42584 -1.99772,1.52373 -4.38685,4.3788 -5.30918,6.34459 -2.03192,4.33071 -6.55987,5.58191 -7.65972,2.1166 z m -2.63417,-134.26798 c -1.59076,-2.97235 -2.79738,-26.02628 -1.41364,-27.00915 1.52145,-1.08068 2.21781,-0.93898 3.96325,0.80646 1.20681,1.2068 1.39754,2.54196 0.82143,5.75 -1.11419,6.20428 -0.71127,13.63229 0.99961,18.42823 1.50674,4.22372 1.5016,4.25 -0.83173,4.25 -1.40371,0 -2.82682,-0.89496 -3.53892,-2.22554 z m 29.70593,-44.81799 c -3.42875,-1.02534 -4.54897,-2.50586 -4.56992,-6.0398 -0.0242,-4.07775 1.11458,-4.18979 3.71336,-0.36533 1.57919,2.32397 2.98421,3.38307 4.08865,3.082 0.92547,-0.25229 3.37018,-0.74339 5.43268,-1.09133 3.99351,-0.67372 4.56455,0.0675 2.71482,3.52373 -1.13111,2.11349 -6.01281,2.4956 -11.37959,0.89073 z m -12.91856,-26.62314 c -1.46441,-1.46441 -0.51478,-5.24293 2.29117,-9.11643 3.14098,-4.336 8.96982,-8.18296 15.54216,-10.25764 2.2,-0.69447 5.39248,-2.31941 7.09439,-3.61097 3.85361,-2.92445 7.40561,-3.11981 7.40561,-0.40731 0,1.06754 -0.50779,2.25482 -1.12842,2.63839 -0.77149,0.47681 -0.61334,0.98564 0.5,1.6087 0.89563,0.50122 1.62842,2.13003 1.62842,3.61958 0,1.48954 1.15322,4.87458 2.5627,7.52229 2.02688,3.80747 2.31491,5.11261 1.37756,6.24204 -1.59199,1.91823 -2.51405,1.80188 -4.75133,-0.59956 -2.26552,-2.43175 -5.72737,-13.29219 -4.74411,-14.88313 0.73413,-1.18786 -9.41522,3.016 -13.10796,5.42931 -1.18972,0.77752 -4.31304,3.90391 -6.94072,6.94754 -4.5605,5.28241 -6.25024,6.34642 -7.72947,4.86719 z m 237.35468,218.88288 c 3.0367,-1.20386 7.028,-3.44661 8.8694,-4.98389 l 3.348,-2.79506 -2.5963,-3.08556 c -3.2469,-3.85877 -9.2056,-6.44628 -23.3799,-10.15254 -6.1088,-1.59733 -12.4471,-3.75809 -14.085,-4.8017 -5.1417,-3.27612 -26.0616,-26.14959 -41.81517,-45.72002 -3.8805,-4.82074 -4.1978,-11.69073 -1.8555,-40.17744 1.7029,-20.71049 1.8627,-36.16504 0.5067,-49 -0.5229,-4.95 -1.2573,-16.50263 -1.6319,-25.67252 -0.6152,-15.05983 -0.8601,-16.71932 -2.5314,-17.15638 -2.416,-0.63179 -2.3889,-3.81551 0.134,-15.76931 3.3587,-15.91345 2.2913,-34.23307 -2.2074,-37.88522 -1.7934,-1.45596 -1.8019,-1.79631 -0.2119,-8.51657 1.3498,-5.70564 1.5396,-9.95853 1.0261,-23 -0.3464,-8.8 -1.1837,-19.71367 -1.8605,-24.25261 l -1.2306,-8.25261 -5.99998,4.07095 c -3.3,2.23902 -7.85969,6.18993 -10.13265,8.77981 -2.27295,2.58987 -6.54795,6.04428 -9.5,7.67646 -4.80233,2.65521 -6.36741,2.98417 -14.86735,3.12493 -5.225,0.0865 -13.70765,0.66087 -18.85034,1.27632 -5.14268,0.61546 -11.63293,0.81622 -14.42278,0.44613 l -5.07244,-0.67288 4.79891,8.90175 c 2.6394,4.89596 8.12083,13.40175 12.18096,18.90175 8.71174,11.80125 10.36569,16.41808 10.36569,28.93474 0,8.82027 0.13859,9.3626 5,19.56526 4.94299,10.37387 5.96379,14.63621 3.98033,16.61967 -2.32323,2.32323 -5.12455,21.79485 -5.16199,35.88033 -0.0557,20.95701 3.06991,32.31188 12.24343,44.47851 8.28144,10.9835 9.93823,16.90139 9.93823,35.49835 0,14.80004 -1.21268,24.28668 -4.98835,39.02314 -3.89304,15.19455 -4.79975,27.03695 -2.44931,31.99014 3.09502,6.52227 6.16725,7.63568 18.99914,6.88554 14.3984,-0.84172 22.5306,0.58393 32.349,5.67108 10.46007,5.41967 19.45587,6.92106 39.58947,6.60748 13.7374,-0.21397 16.7808,-0.55873 21.5214,-2.43803 z m -5.9984,-9.17318 c -0.588,-1.09872 -2.596,-2.2475 -4.5787,-2.61945 -4.7603,-0.89305 -3.7838,-2.94452 1.3525,-2.8413 4.8312,0.0971 7.2032,1.75679 7.2032,5.04016 0,2.90882 -2.5036,3.17359 -3.977,0.42059 z m -89.52295,-23.97307 c -4.21868,-1.79555 -6.8182,-5.85209 -7.24916,-11.31227 -0.36267,-4.5949 -0.0225,-5.84451 2.69842,-9.91273 6.12908,-9.16394 9.67183,-7.28748 6.03615,3.19712 -2.86374,8.25845 -2.4527,9.46358 4.04664,11.86442 3.64023,1.34469 4.46795,2.10831 4.46795,4.12197 0,2.18168 -0.4691,2.49623 -4,2.68213 -2.2,0.11583 -4.9,-0.17246 -6,-0.64064 z m -5.91094,-95.69848 c -0.42377,-1.10432 0.58792,-2.67916 3.14301,-4.89252 l 3.76793,-3.26401 0,-10.51568 c 0,-5.78362 0.33474,-10.85422 0.74387,-11.26801 0.40913,-0.41378 1.64663,0.0647 2.75,1.06319 1.71957,1.55619 1.99986,3.04326 1.96224,10.41054 -0.0655,12.83267 -3.31962,20.09501 -9.00411,20.09501 -1.60734,0 -2.99609,-0.67251 -3.36294,-1.62852 z m 8.81714,-84.47512 c -1.04707,-1.15701 -3.81681,-3.22477 -6.15498,-4.59502 -2.4799,-1.45332 -4.25122,-3.2341 -4.25122,-4.27392 0,-1.94463 2.42189,-4.42354 3.7829,-3.87196 0.46758,0.1895 3.91222,3.60704 7.65475,7.59454 6.73363,7.17443 6.77373,7.25 3.83847,7.25 -1.74487,0 -3.75,-0.86615 -4.86992,-2.10364 z m -6.73953,-38.56303 c -1.91417,-1.91416 -0.46564,-4.31037 3.20278,-5.29818 5.10134,-1.37364 8.73654,-4.34251 11.17873,-9.12968 2.3888,-4.68229 4.9518,-5.20695 4.9518,-1.01362 0,3.29164 -7.34804,12.20254 -12.08036,14.64972 -2.99472,1.54863 -6.15148,1.89323 -7.25295,0.79176 z m -94.16667,-33.20434 c 8.40749,-3.84031 17.72092,-18.13849 20.60223,-31.62899 1.8515,-8.66888 1.55776,-28.46553 -0.549,-37 -2.41183,-9.77026 -8.90125,-22.57926 -14.40705,-28.43704 -24.90805,-26.50035 -56.37134,9.56977 -48.35669,55.43704 3.47635,19.89492 12.14712,35.30085 23.06994,40.98989 5.77558,3.00814 13.87694,3.27176 19.64057,0.6391 z m -38.97764,-10.09357 c -8.79764,-13.93636 -13.56277,-36.16589 -11.60675,-54.14595 1.55712,-14.31329 6.91394,-28.59084 13.37165,-35.63947 2.05738,-2.24565 1.12719,-3.26445 -1.02004,-1.11722 -1.38055,1.38055 -4.26722,0.43453 -4.26722,-1.39845 0,-2.28798 7.15736,-8.36738 16,-13.59025 11.52898,-6.80954 13.83088,-8.74143 14.84738,-12.46077 0.82434,-3.01626 0.54943,-3.48257 -5.23869,-8.88613 -3.35978,-3.13655 -6.92006,-5.72405 -7.91174,-5.75 -0.99168,-0.026 -3.45003,-1.16633 -5.463,-2.53418 -2.45696,-1.66954 -3.99095,-2.156 -4.66696,-1.47999 -1.81055,1.81055 -4.29099,20.06223 -3.38532,24.91004 0.97341,5.21038 -0.27974,7.38745 -2.80103,4.86616 -3.79708,-3.79708 -0.52111,-30.09372 4.30579,-34.56312 1.79252,-1.65977 3.11464,-2.08314 5.01545,-1.60607 l 2.58124,0.64786 -1.87087,-3.16715 c -1.25447,-2.12363 -3.07486,-3.49134 -5.52508,-4.15111 -2.00981,-0.54119 -4.21171,-1.65574 -4.89313,-2.4768 -1.51877,-1.83001 -2.99404,-1.93576 -2.99404,-0.21461 0,0.70302 -1.56909,4.55236 -3.48687,8.5541 -4.05802,8.46766 -5.22278,14.48278 -6.51938,33.66769 -0.98954,14.64164 -0.19424,20.14033 3.80286,26.29289 2.25975,3.47832 0.96197,15.79317 -2.32725,22.08368 -1.40655,2.68997 -2.76521,6.40569 -3.01924,8.25714 -3.46704,25.26841 -3.46885,25.27646 -6.98701,31.01702 -1.90471,3.1079 -3.46311,6.04698 -3.46311,6.5313 0,0.48432 2.5875,3.43509 5.75,6.55727 4.04873,3.99711 8.26492,6.85587 14.25,9.6621 4.675,2.19198 8.84314,4.01089 9.26254,4.04201 0.4194,0.0311 -0.36368,-1.72747 -1.74018,-3.90799 z m 64.25891,-5.87908 c 0.85025,-0.53952 1.00958,-1.5475 0.47363,-2.99631 -0.77306,-2.08979 -0.85633,-2.05432 -1.94441,0.82834 -1.16112,3.07615 -0.79978,3.60876 1.47078,2.16797 z m 31.10062,-1.06218 c 1.08357,-0.68628 0.80093,-1.25588 -1.30924,-2.63852 -2.10231,-1.37748 -6.88679,-7.38666 -12.15801,-15.27012 -0.11565,-0.17297 -1.82719,-0.0111 -3.80342,0.35959 -3.88143,0.72816 -4.77594,2.57368 -5.91792,12.20956 -0.53928,4.55034 -0.94114,4.16345 5.8067,5.59039 3.78194,0.79976 16.00149,0.62337 17.38189,-0.2509 z m 27.67372,-4.46786 c 8.7095,-4.05561 16.01245,-14.83971 20.06281,-29.6263 2.41565,-8.81876 2.44693,-29.76277 0.0588,-39.37916 -4.41341,-17.77178 -15.67341,-32.81961 -27.02832,-36.12057 -5.13428,-1.49258 -6.12965,-1.50243 -10.92576,-0.10817 -5.33855,1.55197 -13.72314,7.68062 -13.72314,10.03084 0,0.69689 0.9,2.08157 2,3.07706 1.2974,1.17413 2,3.07997 2,5.42509 0,5.11716 3.26228,16.2284 7.4759,25.46271 l 3.5992,7.88781 -1.66981,7.61219 c -2.00827,9.1551 -3.20478,11.64413 -7.56997,15.74738 -2.35384,2.21259 -4.7331,3.33413 -8.08532,3.81127 -2.6125,0.37185 -4.75,0.92022 -4.75,1.21859 0,0.29837 1.63395,3.6519 3.631,7.45229 4.10487,7.8116 13.52353,17.28984 18.65527,18.77329 5.56619,1.60904 11.0067,1.18625 16.26934,-1.26432 z m -55.95144,-12.35547 c -0.3323,-0.33229 -0.56864,0.25834 -0.52522,1.3125 0.048,1.16495 0.28494,1.4019 0.60416,0.60417 0.28887,-0.72188 0.25335,-1.58438 -0.0789,-1.91667 z m 2.29615,-7.02083 c 0.0548,-0.6875 -0.35032,-1.25 -0.90032,-1.25 -0.55,0 -0.95514,1.6875 -0.90032,3.75 0.089,3.34672 0.18578,3.48115 0.90032,1.25 0.44035,-1.375 0.8455,-3.0625 0.90032,-3.75 z m 85.37366,-6.31022 c -0.2603,-0.99564 -1.2707,-2.53182 -2.2452,-3.41374 -1.6624,-1.50445 -1.8416,-1.32669 -2.9003,2.87805 -0.6207,2.46485 -1.1285,4.725 -1.1285,5.02255 0,0.29755 1.5182,-0.18296 3.3737,-1.0678 2.4291,-1.15834 3.2412,-2.11568 2.9003,-3.41906 z m -74.49866,-5.34352 c 6.20143,-1.31637 12.00863,-3.00154 12.90491,-3.74483 1.89038,-1.56772 4.09801,-6.44885 5.8124,-12.85143 1.12388,-4.19723 1.01218,-4.88713 -1.66021,-10.25392 -2.77925,-5.58139 -7.8285,-23.94914 -7.83113,-28.48743 -7.1e-4,-1.23274 -1.49046,-4.19226 -3.31056,-6.57672 -4.9833,-6.52848 -12.30564,-21.3545 -14.16555,-28.68193 -3.94717,-15.5505 -12.07701,-40.22285 -16.05282,-48.7169 -4.00939,-8.56578 -4.78896,-9.55478 -11.03553,-13.99999 -11.83946,-8.425264 -18.2188,-14.113354 -27.27792,-24.322174 -9.70826,-10.94034 -12.82104,-15.79306 -11.81393,-18.41755 0.5352,-1.39471 1.39784,-0.78324 4.58715,3.25155 3.8825,4.91172 10.06787,10.13196 10.06787,8.49693 0,-0.46438 -0.46168,-4.52627 -1.02595,-9.02641 -2.2441,-17.89706 -11.50653,-35.86331 -25.0551,-48.5991392 -4.4756,-4.2071102 -8.50367,-7.4229702 -8.95126,-7.1463402 -0.4476,0.27663 -1.10236,1.81671 -1.45503,3.4224 -0.76512,3.4835602 -2.91204,5.50209019 -4.99993,4.70089019 -2.38573,-0.91548999 -1.78358,-5.82541019 1.31194,-10.69748079 2.89347,-4.55407 9.45787,-10.94578 11.24151,-10.94578 1.64408,0 2.16435,2.70074 0.95542,4.95963 -1.54243,2.88206 -0.61772,5.16221 3.05798,7.5403706 1.70017,1.1 6.49251,6.40904 10.64964,11.7978702 7.24424,9.3905992 7.68753,9.7713592 10.6646,9.1602192 4.86975,-0.99967 16.52271,-7.0389792 23.07474,-11.95879921 5.73451,-4.30595019 13.7965,-7.65652019 21.82374,-9.06998019 4.72518,-0.8320296 9.26585,-5.2225006 10.84206,-10.4834306 1.53036,-5.10788 0.0531,-12.02456 -4.67579,-21.89202 -5.13432,-10.71354 -4.53234,-15.47796 1.11237,-8.80386 8.69096,10.27587 11.71939,32.38485 5.58184,40.750001 -1.36741,1.8636996 -5.0325,3.5502496 -14.40006,6.6264296 -7.97175,2.61780019 -15.61617,5.9622602 -20.90926,9.1478502 -4.5889,2.7617799 -11.26846,6.2341192 -14.84346,7.7163092 -3.575,1.4822 -6.89785,3.07352 -7.38412,3.53627 -0.50419,0.47982 0.62805,3.98518 2.63481,8.15726 3.98197,8.27855 5.74931,17.5194 5.74931,30.06127 0,8.28861 0.0316,8.39264 3.5874,11.80844 l 3.5874,3.44617 3.35198,-3.84648 c 1.84359,-2.11557 3.82926,-3.55151 4.4126,-3.19099 1.74242,1.07688 1.20581,5.08318 -1.06806,7.97393 -2.42983,3.08903 -2.62224,2.83638 6.43338,8.44733 7.48806,4.63968 9.69596,4.71086 13.20974,0.42587 1.82215,-2.22209 2.68126,-2.43915 9,-2.274 3.84206,0.10042 8.68964,0.22347 10.77241,0.27345 3.22379,0.0774 4.47062,-0.59289 8.38546,-4.50774 l 4.59861,-4.59861 -1.29387,-7.96737 c -1.28829,-7.93298 -0.90755,-11.9285 1.023,-10.73536 4.51669,2.79147 6.08959,19.20147 2.32803,24.28826 -3.57284,4.83158 -9.20641,7.15704 -19.75631,8.15517 -8.55475,0.80935 -10.01845,1.24155 -12.96424,3.82799 l -3.32071,2.915624 1.80343,3.40646 c 2.77651,5.244518 5.35086,12.18838 9.93339,26.79373 l 4.20035,13.38727 7.2624,-0.6139 c 7.76831,-0.65666 21.56427,-4.5823 25.26361,-7.18876 1.79172,-1.26239 2.25,-2.54683 2.25,-6.30608 0,-5.04172 2.09839,-9.1658 4.66369,-9.1658 1.08312,0 1.33408,0.52735 0.83282,1.75 -1.25901,3.07093 -1.80641,10.25 -0.78155,10.25 0.53629,0 1.7926,-0.90336 2.7918,-2.00747 1.94381,-2.14788 2.1615,-6.35917 0.6036,-11.67647 -0.95546,-3.26108 -0.30647,-10.92014 1.84857,-21.816054 0.65269,-3.3 1.04144,-8.25 0.86389,-11 l -0.32282,-5 -2.85036,7.74699 c -5.18796,14.100374 -6.60812,5.33903 -1.55602,-9.59949 1.70149,-5.03112 3.67752,-11.1725 4.39117,-13.6475 0.71365,-2.475 2.28581,-6.975 3.49368,-10 l 2.19613,-5.5 -2.53194,2.3723 c -3.35255,3.14118 -6.77655,2.26516 -9.71221,-2.48484 l -2.23475,-3.6159 -6.74393,0.66453 c -6.5805,0.64843 -6.79097,0.59667 -8.68513,-2.13578 -2.82588,-4.07653 -3.39083,-6.19974 -2.22787,-8.37275 1.58544,-2.96242 3.68412,-2.29725 4.96123,1.57244 1.07251,3.24973 1.45346,3.50171 5.32755,3.52386 6.63976,0.038 12.00014,1.67173 14.32476,4.36598 2.01983,2.341 6.2408,3.05038 7.95437,1.33681 0.8005,-0.80049 0.69369,-21.08261 -0.13079,-24.83644 l -0.64642,-2.9431293 -2.03037,2.5811893 c -1.53588,1.95256 -2.77498,2.50698 -5.08772,2.27646 -3.41974,-0.34085 -5.05909,-2.80473 -1.86614,-2.80473 5.07616,0 6.74879,-7.8391292 3.60116,-16.8776194 -1.71343,-4.9201606 -1.27059,-6.1181906 1.59908,-4.3260496 1.83281,1.1446096 1.95452,0.9346796 1.95452,-3.371271 0,-2.77051 1.18995,-7.56366 3,-12.08403 3.5494,-8.86422 3.6903,-11.90858 0.92952,-20.0837 -2.23026,-6.60418 -5.2661,-10.24873 -17.42952,-20.9243 -5.62811,-4.93967 -6.75698,-6.39552 -5.76001,-7.42838 1.77744,-1.84143 6.46547,0.60255 13.5157,7.04606 10.10124,9.23196 13.86795,14.47286 15.34338,21.34835 1.98743,9.26142 1.70854,14.03295 -1.22631,20.98107 -3.54059,8.38219 -4.01667,16.0522906 -1.78631,28.7792808 1.15997,6.6190492 1.78329,14.7223892 1.70293,22.1386092 -0.11674,10.77437 -0.43097,12.59102 -3.97971,23.00788 -3.72037,10.92068 -3.81025,11.49883 -2.61208,16.80197 0.68248,3.02067 1.20554,7.74213 1.16236,10.49213 -0.0879,5.59613 2.4638,18.945734 4.59735,24.052044 2.36059,5.64968 9.58189,15.57977 17.05168,23.44795 5.1722,5.44802 8.3338,9.96238 11.5556,16.5 4.154,8.42892 4.4556,8.78992 4.7533,5.6893 0.4217,-4.39175 2.5901,-3.61744 2.9883,1.06707 0.2435,2.86595 -0.5341,4.83271 -3.8068,9.62713 -5.2197,7.6469 -5.9723,10.38636 -5.3145,19.34633 0.3674,5.00498 0.032,9.18458 -1.0756,13.41451 -1.804,6.88781 -2.1406,19.49433 -0.5975,22.37765 1.4441,2.6984 7.6681,4.24897 10.8249,2.69681 4.3559,-2.1417 4.8363,-4.08107 2.2795,-9.20067 -2.5491,-5.10399 -2.2955,-7.02366 1.1341,-8.5863 3.7975,-1.73026 7.74967,0.33182 7.74967,4.04342 0,2.35808 -0.4408,3.02475 -2,3.02475 -1.14465,0 -1.99997,-0.66667 -1.99997,-1.55902 0,-0.85746 -0.4838,-1.25998 -1.0752,-0.8945 -0.694,0.42892 -0.3395,1.44766 1,2.87347 2.57927,2.74556 2.63377,6.0616 0.1786,10.87733 l -1.8967,3.72016 2.5315,1.99128 c 4.90327,3.85695 7.88727,2.78756 16.06857,-5.75872 11.3065,-11.81086 10.8831,-10.35978 6.262,-21.46318 -8.9891,-21.59872 -16.0094,-55.02862 -19.0592,-90.75808 -0.8491,-9.94781 -1.8534,-14.83085 -4.96347,-24.132864 -4.4671,-13.36066 -9.1377,-23.15213 -12.5226,-26.25253 -1.287,-1.17884 -3.0907,-4.50055 -4.0082,-7.38158 -1.9924,-6.25617 -3.0633,-7.19864 -3.989,-3.51044 -0.9072,3.61451 -2.3546,5.24868 -4.6487,5.24868 -2.54318,0 -2.47409,-3.99154 0.2006,-11.59345 4.3734,-12.42947 4.0764,-19.13419 -1.9006,-42.9065494 -1.10627,-4.4000006 -2.52101,-10.5408306 -3.14386,-13.6462806 -0.86923,-4.33391 -1.61298,-5.77194 -3.19986,-6.18691 -1.78407,-0.46655 -1.98219,-1.06322 -1.44562,-4.35373 2.42802,-14.88987 1.18526,-30.35975 -3.42983,-42.6947 -4.30687,-11.51112 -19.21573,-22.76472 -29.9608,-22.61519 -19.90195,0.27697 -30.88873,-1.04757 -34.70381,-4.183806 -1.66413,-1.36802 -3.29184,-0.14135 -3.30357,2.489636 -0.005,1.20504 -1.10967,4.55348 -2.45399,7.44098 -1.78138,3.82626 -2.99908,5.25 -4.49024,5.25 -2.48685,0 -2.48174,0.32022 -0.12517,-7.84476 1.05645,-3.66038 2.14798,-8.005246 2.42563,-9.655246 l 0.50481,-3 -8.98016,0.35153 c -11.12477,0.43549 -17.27904,-1.61155 -29.79822,-9.91148 -13.79169,-9.14358 -15.0526,-10.9118 -12.64575,-17.73353 1.00374,-2.84491 1.18524,-5.07126 0.58427,-7.16674 -0.7419,-2.58686 -0.60245,-3.03978 0.93595,-3.03978 3.36959,0 4.37271,2.57171 3.67176,9.41337 -0.64525,6.29802 -0.61174,6.41531 2.61363,9.14939 1.79699,1.52327 7.95924,5.01749 13.69391,7.76493 8.72968,4.18235 11.59133,5.0701 17.58275,5.45461 12.71175,0.81579 17.70891,-2.80228 24.56032,-17.7823 l 3.43027,-7.5 -0.0435,-23 c -0.0421,-22.23357 -0.13577,-23.29901 -2.81032,-31.97311 -8.02491,-26.02648 -21.45013,-36.66355 -44.58348,-35.32438 -13.87868,0.80343 -24.37196,7.82297 -30.14909,20.1684 -5.36703,11.46909 -6.01741,24.71341 -1.3187,26.85429 2.65796,1.21104 3.89272,3.68717 2.52214,5.05775 -0.59801,0.59801 -1.80091,0.35146 -3.25529,-0.66722 -1.26872,-0.88865 -2.79564,-1.61573 -3.39314,-1.61573 -4.12096,0 -7.11496,7.7819 -5.42875,14.11025 1.05062,3.94301 8.31958,12.88975 10.47254,12.88975 2.44022,0 5.48759,5.07073 5.48759,9.13118 0,2.1238 -1.12677,8.92561 -2.50393,15.11514 -4.75917,21.38962 -4.47885,20.69342 -10.99607,27.309686 -5.17947,5.25817 -7.29917,6.59345 -15.5,9.76406 -5.225,2.02009 -10.78131,4.52221 -12.34735,5.56026 -1.56604,1.03806 -9.54911,8.52606 -17.74015,16.64 -11.37974,11.27263 -15.60278,16.17344 -17.90265,20.77587 -3.56686,7.13794 -3.65602,8.90153 -0.94654,18.72391 2.7438,9.9468 5.80092,14.96616 14.7278,24.1809506 4.97894,5.1395202 7.26273,8.2162602 6.86605,9.2500002 -0.77772,2.0267 -4.08212,1.97184 -7.27587,-0.12079 l -2.54835,-1.66974 0.71227,8.4197392 c 0.81751,9.66376 4.3308,22.93331 8.18303,30.90698 3.08285,6.38112 8.15802,11.66374 21.08426,21.94606 10.15209,8.07559 11.48079,9.93781 13.61341,19.0795 1.78411,7.647834 3.87585,10.897554 7.47811,11.618004 2.47023,0.49405 3.46,1.98138 8.11745,12.19807 4.95088,10.8604 10.37635,21.01739 11.84294,22.17112 0.34958,0.275 1.74967,2.75 3.11132,5.5 3.24625,6.55614 12.56304,16.28558 22.52427,23.52188 4.4,3.19636 8.56852,6.75257 9.26337,7.90268 3.00168,4.96835 7.28261,18.75897 7.07855,22.80292 -0.16971,3.36344 0.43944,5.13641 2.98039,8.67462 5.06278,7.0498 9.12076,16.75975 11.53371,27.5979 0.50296,2.25912 1.06665,2.51273 5.85029,2.63216 2.91153,0.0727 7.13142,0.28811 9.37753,0.47871 3.29038,0.27922 4.71389,-0.18361 7.32672,-2.38216 3.66974,-3.08788 5.6028,-3.43926 6.47117,-1.17631 0.90576,2.36035 -1.96308,5.94758 -6.81495,8.52149 -4.22232,2.23994 -4.53387,2.2644 -9.88227,0.77574 -4.6245,-1.28716 -6.0235,-1.32645 -8.60351,-0.24164 -1.69455,0.7125 -3.07486,1.87969 -3.06735,2.59374 0.0131,1.24626 1.07752,5.80378 1.35298,5.7931 0.0734,-0.003 5.20726,-1.0822 11.40869,-2.39857 z M 863.68415,120.93164 c -5.5,-3.26826 -12.83366,-7.35785 -16.29703,-9.08798 -7.0453,-3.5195 -15.53179,-10.66807 -17.74454,-14.94703 -1.69546,-3.27867 -1.92521,-8.5131 -0.41463,-9.44669 1.76429,-1.090394 3.76588,1.4411 4.47959,5.66551 1.0841,6.416754 5.04422,9.93935 16.66817,14.82667 20.86902,8.77443 27.99618,13.4973 26.44978,17.52716 -0.90259,2.35209 -2.4407,1.82099 -13.14134,-4.53764 z m 54.7,-11.15464 c -2.95192,-2.95192 0.41226,-12.79999 4.37258,-12.79999 1.90199,0 1.8898,5.9576 -0.0215,10.53211 -1.54884,3.70688 -2.44495,4.17396 -4.35103,2.26788 z m 54.94558,-14.12456 c -0.6046,-0.72851 -1.78058,-4.56337 -2.61329,-8.52192 -1.52754,-7.261684 -4.24538,-13.653734 -7.66974,-18.038374 -2.15271,-2.75639 -2.45959,-6.11514 -0.55872,-6.11514 2.02481,0 7.3384,6.0714 9.13078,10.43299 1.98787,4.83731 5.56537,18.647284 5.56537,21.483624 0,2.34166 -2.1839,2.77161 -3.8544,0.75882 z M 817.28197,91.82779 c -1.4775,-4.23837 -1.38324,-6.850784 0.24719,-6.850784 2.27445,0 4.65499,3.492194 4.65499,6.828744 0,4.41271 -3.3663,4.42784 -4.90218,0.022 z m 106.98255,-9.600784 c -2.46475,-2.01444 -4.10287,-9.25 -2.09419,-9.25 1.73587,0 9.01382,7.67142 9.01382,9.50114 0,2.07438 -4.26359,1.91964 -6.91963,-0.25114 z m -115.89909,-11 c -1.02266,-2.0625 -3.76933,-8.5577 -6.10372,-14.43379 -2.33439,-5.87608 -5.68561,-13.07608 -7.44716,-16 l -3.20281,-5.31621 -6.27327,0.17801 c -6.20738,0.17614 -6.27002,0.15069 -5.96379,-2.42288 0.3568,-2.99868 4.37153,-4.83285 8.37759,-3.82739 6.85293,1.71998 15.53864,14.81682 21.36787,32.21976 3.16768,9.45702 3.77577,13.3525 2.08433,13.3525 -0.53882,0 -1.81639,-1.6875 -2.83904,-3.75 z m 53.28475,-12.65003 c -4.08436,-1.77936 -9.63776,-7.46542 -9.25488,-9.47595 0.17011,-0.89321 1.26465,-1.76093 2.43233,-1.92827 1.58649,-0.22736 2.3853,0.44806 3.16075,2.67252 2.51821,7.22373 8.90574,5.55373 26.19577,-6.84884 3.56954,-2.56051 7.43046,-4.33234 11,-5.04803 13.19254,-2.64512 14.15643,-3.57587 14.3658,-13.87203 0.10274,-5.05226 -0.39328,-7.63975 -2.1158,-11.0372 -2.65778,-5.2421192 -2.62777,-5.0621692 -0.84424,-5.0621692 2.34456,0 7.36107,8.6691892 8.09206,13.9841492 0.88775,6.45473 -1.56549,15.17494 -4.88014,17.34679 -1.31775,0.86342 -6.15759,2.5303 -10.75519,3.70417 -7.52648,1.92168 -8.92799,2.67676 -14.06758,7.57911 -8.91686,8.50524 -16.31967,11.03931 -23.32888,7.98575 z m 96.53397,-5.81821 c -3.01422,-1.52839 -4.60551,-3.02465 -4.81955,-4.53176 -0.23469,-1.65248 0.18242,-2.25 1.57068,-2.25 3.00742,0 12.74887,5.34872 12.74887,7 0,2.38308 -4.57714,2.27793 -9.5,-0.21824 z m -91.52291,-15.85393 c -1.30089,-4.09876 0.34282,-6.80424 5.78989,-9.5299 7.15808,-3.58183 9.31699,-5.79311 11.42601,-11.70317 3.45515,-9.6822592 11.21836,-14.6405592 15.78022,-10.0786892 2.03602,2.03602 1.42088,4.0162495 -1.07695,3.4668499 -5.95512,-1.3098199 -6.76488,-0.83599 -8.00528,4.6843093 -0.65095,2.89698 -1.92144,6.39341 -2.82332,7.76985 -1.91473,2.92225 -8.17663,7.6441 -12.52693,9.44605 -3.10594,1.28652 -3.39842,1.83416 -3.07986,5.76687 0.14442,1.78285 -0.33766,2.25 -2.32192,2.25 -1.65499,0 -2.7272,-0.70269 -3.16186,-2.07217 z m -53.63964,-2.67783 c -3.20437,-3.80819 -8.83745,-18.41611 -8.83745,-22.91762 0,-5.7843792 2.01583,-5.3882492 3.76188,0.73925 0.69403,2.4356 3.28931,8.39625 5.76729,13.24588 2.47798,4.84963 4.24608,9.23713 3.92911,9.75 -0.90656,1.46683 -3.01214,1.09431 -4.62083,-0.81751 z M 910.6364,9.3309863 c -1.34874,-1.4553195 -2.45225,-3.0303195 -2.45225,-3.4999995 0,-1.18777 2.74649,-1.07318 3.5,0.14602 0.33992,0.55 1.49148,1 2.55902,1 1.39889,0 1.94098,-0.69177 1.94098,-2.47695 0,-1.52175 0.94012,-3.09293 2.43785,-4.07428001 2.25879,-1.48001999 2.75457,-1.45423999 6.75,0.35094 4.88013,2.20490001 11.54102,8.63178951 9.95925,9.60937921 -0.5647,0.349 -2.96631,-0.6903297 -5.33691,-2.3096193 -2.3706,-1.6192899 -5.32269,-3.2344299 -6.56019,-3.5891999 -1.98046,-0.56777 -2.25,-0.28181 -2.25,2.38716 0,5.4168192 -6.41881,6.9117492 -10.54775,2.4565495 z m 5.04775,-18.1005197 c -5.26307,-0.8719 -6.56106,-1.4683696 -9.42274,-4.3300406 -3.08021,-3.08021 -4.04558,-7.20693 -1.98398,-8.48107 0.6013,-0.37162 3.03199,1.22702 5.40153,3.55255 l 4.30825,4.22823 12.34847,-0.36156 c 10.42216,-0.30517 12.34847,-0.12968 12.34847,1.12496 0,0.81758 -1.125,2.00646 -2.5,2.641951 -2.47252,1.1427296 -16.63466,2.2653196 -20.5,1.6249796 z m -102.929,-24.0034606 c -1.54039,-7.20536 -2.50388,-18.71712 -1.63894,-19.58206 1.44071,-1.44071 3.99127,1.9e-4 5.08295,2.87153 1.08051,2.84196 1.34514,15.35842 0.378,17.87874 -0.96471,2.51399 -3.17953,1.83702 -3.82201,-1.16821 z m -36.04235,-26.60539 c -1.20695,-0.88254 -1.61663,-1.97297 -1.17431,-3.12562 0.56322,-1.46773 1.54357,-1.68717 5.73715,-1.28422 5.16102,0.49591 8.68524,2.69943 7.46782,4.66927 -0.95991,1.55317 -9.81286,1.36226 -12.03066,-0.25943 z m 30.06874,-8.28348 c -2.1986,-1.20051 -4.32374,-1.42415 -8.76182,-0.92204 -4.97012,0.56231 -5.95794,0.4056 -6.50987,-1.0327 -1.02895,-2.6814 2.40073,-4.41305 8.61543,-4.34995 8.11288,0.0824 12.55887,1.82761 12.55887,4.92986 0,3.03918 -2.00099,3.50524 -5.90261,1.37483 z m 16.38895,-3.06582 c -0.007,-0.43742 -0.27156,-1.75647 -0.58679,-2.93123 -0.54981,-2.04893 -0.15219,-2.16523 9.76365,-2.85581 5.68524,-0.39594 15.94147,-1.52929 22.79162,-2.51856 l 12.45482,-1.79868 6.79518,3.03837 c 4.88055,2.18227 6.79518,3.56418 6.79518,4.90449 0,2.58593 -2.67931,2.3817 -9.91342,-0.75564 l -6.04524,-2.62175 -17.77067,2.64748 c -9.77387,1.45611 -19.23317,2.88129 -21.02067,3.16706 -1.7875,0.28577 -3.25615,0.1617 -3.26366,-0.27573 z m 63.31835,-5.94369 c -0.88542,-2.30735 7.31646,-9.85855 12.29278,-11.31756 2.14639,-0.62931 6.49003,-1.40691 9.65253,-1.72801 4.8524,-0.49269 5.75,-0.33348 5.75,1.01988 0,2.24366 -2.41769,3.289 -10.49259,4.53666 -4.61314,0.71279 -7.43415,1.68562 -8.29024,2.85893 -4.63679,6.35488 -7.64994,7.92023 -8.91248,4.6301 z m -40.67054,-15.42476 c -4.71403,-3.70805 -11.14813,-17.137796 -9.90615,-20.676866 1.03864,-2.95963 3.23023,-0.9053 4.80067,4.5 1.30456,4.49016 2.84909,6.92889 7.04931,11.130526 2.9583,2.95929 5.1369,5.77179 4.84135,6.25 -0.92898,1.50312 -4.04732,0.94994 -6.78518,-1.20366 z M 976.09573,178.3944 c 0.6114,-15.14798 0.6321,-15.25411 3.8415,-19.72306 l 3.2267,-4.49314 -3.5492,-8.80385 c -2.8411,-7.0472 -4.8842,-10.26189 -10.23991,-16.11125 -7.68291,-8.39112 -16.27195,-20.07267 -18.77581,-25.5361 -2.47433,-5.398962 -3.79741,-4.739612 -3.00997,1.5 0.41513,3.2895 1.36886,5.84737 2.55399,6.84969 1.52885,1.29303 1.98573,3.40177 2.38325,11 0.2705,5.17017 0.57671,9.85031 0.68047,10.40031 0.10376,0.55 0.0846,4.88605 -0.0425,9.63567 -0.22041,8.23291 -0.0388,9.05339 3.89438,17.59175 2.26906,4.92584 4.12556,9.40047 4.12556,9.94363 0,0.54317 2.03945,4.55188 4.53211,8.90826 2.49265,4.35638 5.294,10.04615 6.22523,12.64394 2.5197,7.02928 3.4361,3.98396 4.1542,-13.80585 z m -106.63466,2.08924 c -1.45287,-4.12135 -3.88786,-9.00531 -5.41109,-10.85325 l -2.7695,-3.35988 -5.42516,5.25467 c -3.79684,3.67753 -7.25809,5.923 -11.53204,7.48136 -3.35879,1.22468 -6.67664,2.91357 -7.37301,3.7531 -1.00203,1.20804 -0.54551,1.15387 2.18869,-0.2597 4.36352,-2.25592 14.29573,-3.08417 19.6398,-1.63777 2.25203,0.60953 6.07703,2.45153 8.5,4.09333 2.42296,1.64181 4.49955,2.99329 4.61464,3.0033 0.11509,0.01 -0.97946,-3.35381 -2.43233,-7.47516 z m 45.79877,-14.10563 c 1.33337,-1.42944 4.67431,-3.74982 7.42431,-5.15641 6.0987,-3.1194 16.66728,-3.52348 22.90354,-0.8757 2.14695,0.91154 4.12441,1.43648 4.39437,1.16652 0.26996,-0.26996 -0.30839,-2.58357 -1.28522,-5.14136 -1.38885,-3.63664 -1.63439,-6.17473 -1.12629,-11.64177 l 0.64977,-6.99123 -3.66516,3.21805 c -2.01583,1.76993 -5.66096,4.07355 -8.10028,5.11917 -5.73141,2.45676 -18.27256,5.6494 -25.55282,6.50505 -3.78615,0.44499 -5.71791,1.12589 -5.71791,2.01542 0,1.68878 6.21358,14.38125 7.04032,14.38125 0.33608,0 1.70199,-1.16954 3.03537,-2.59899 z m 7.59883,-21.92604 c 10.1026,-2.22174 21.16385,-9.542 22.62785,-14.97497 0.29642,-1.1 0.85309,-3.125 1.23704,-4.5 l 0.69811,-2.5 -2.86876,2.67829 c -5.83758,5.45 -21.75251,11.4727 -36.60398,13.85207 -8.32929,1.33444 -8.17482,1.14859 -6.27682,7.55238 0.37974,1.28126 10.23391,0.3009 21.18656,-2.10777 z m -100.55802,-26.13061 -2.02811,-3.84436 -0.0442,3.20031 c -0.0281,2.03649 0.58918,3.55476 1.69748,4.175 2.56003,1.43267 2.63262,0.74882 0.37482,-3.53095 z"
       id="path3140"
       inkscape:connector-curvature="0" />
  </g>
</svg>
