<?xml version="1.0" encoding="UTF-8" standalone="no"?>
<!-- Created with Inkscape (http://www.inkscape.org/) -->

<svg
   xmlns:dc="http://purl.org/dc/elements/1.1/"
   xmlns:cc="http://creativecommons.org/ns#"
   xmlns:rdf="http://www.w3.org/1999/02/22-rdf-syntax-ns#"
   xmlns:svg="http://www.w3.org/2000/svg"
   xmlns="http://www.w3.org/2000/svg"
   xmlns:xlink="http://www.w3.org/1999/xlink"
   xmlns:sodipodi="http://sodipodi.sourceforge.net/DTD/sodipodi-0.dtd"
   xmlns:inkscape="http://www.inkscape.org/namespaces/inkscape"
   width="747.20038"
   height="899.87061"
   id="svg2"
   version="1.1"
   inkscape:version="0.48.3.1 r9886"
   sodipodi:docname="Dumbbell-flys-1.svg">
  <defs
     id="defs4">
    <radialGradient
       gradientUnits="userSpaceOnUse"
       gradientTransform="matrix(1,0,0,0.91819829,-19.285714,-7.9105395)"
       r="209.56604"
       fy="287.50052"
       fx="398.1105"
       cy="287.50052"
       cx="398.1105"
       id="radialGradient5255"
       xlink:href="#linearGradient5249"
       inkscape:collect="always" />
    <linearGradient
       id="linearGradient5249"
       inkscape:collect="always">
      <stop
         id="stop5251"
         offset="0"
         style="stop-color:#e3e3e3;stop-opacity:1;" />
      <stop
         id="stop5253"
         offset="1"
         style="stop-color:#e3e3e3;stop-opacity:0;" />
    </linearGradient>
  </defs>
  <sodipodi:namedview
     id="base"
     pagecolor="#ffffff"
     bordercolor="#666666"
     borderopacity="1.0"
     inkscape:pageopacity="0.0"
     inkscape:pageshadow="2"
     inkscape:zoom="0.24748738"
     inkscape:cx="291.42916"
     inkscape:cy="-224.28083"
     inkscape:document-units="px"
     inkscape:current-layer="layer1"
     showgrid="false"
     showguides="true"
     inkscape:guide-bbox="true"
     fit-margin-top="0"
     fit-margin-left="0"
     fit-margin-right="0"
     fit-margin-bottom="0"
     inkscape:window-width="1217"
     inkscape:window-height="829"
     inkscape:window-x="378"
     inkscape:window-y="286"
     inkscape:window-maximized="0">
    <sodipodi:guide
       orientation="-0.70710678,0.70710678"
       position="-2063.9941,623.66147"
       id="guide2985" />
  </sodipodi:namedview>
  <metadata
     id="metadata7">
    <rdf:RDF>
      <cc:Work
         rdf:about="">
        <dc:format>image/svg+xml</dc:format>
        <dc:type
           rdf:resource="http://purl.org/dc/dcmitype/StillImage" />
        <dc:title></dc:title>
      </cc:Work>
    </rdf:RDF>
  </metadata>
  <g
     inkscape:label="Ebene 1"
     inkscape:groupmode="layer"
     id="layer1"
     transform="translate(-635.42269,249.5612)">
    <path
       style="fill:#000000"
       d="m 1058.3786,648.86122 c -1.5754,-0.82161 -4.5245,-1.49384 -6.5537,-1.49384 -6.6269,0 -19.4378,-7.9198 -22.5519,-13.94172 -0.7854,-1.51895 -2.083,-6.83037 -2.8835,-11.80316 -1.0966,-6.81288 -2.4649,-10.95751 -5.551,-16.81515 -4.0125,-7.61592 -4.0956,-7.9792 -4.0956,-17.89675 0,-5.77207 -0.6447,-12.59824 -1.5,-15.88191 -0.825,-3.16739 -1.5,-7.28264 -1.5,-9.145 0,-1.86236 -0.4605,-4.59726 -1.0233,-6.07754 -0.7819,-2.05666 -0.533,-4.6135 1.0554,-10.84102 l 2.0787,-8.14959 -2.0786,-14.47408 c -1.1432,-7.96074 -3.636,-22.57408 -5.5396,-32.47408 -4.7182,-24.53781 -5.4498,-30.26488 -5.4728,-42.84292 -0.033,-17.78414 3.3451,-31.04559 15.2623,-59.92402 3.9274,-9.51708 4.3481,-11.25831 3.6241,-15 -0.4505,-2.32818 -0.8387,-10.21001 -0.8626,-17.51518 -0.049,-15.06487 -0.7987,-17.75902 -6.998,-25.16345 -2.185,-2.60967 -5.1378,-7.17701 -6.5619,-10.14964 -1.4241,-2.97263 -2.946,-6.07013 -3.3819,-6.88331 -0.436,-0.81319 -2.2095,-1.76829 -3.94106,-2.12244 -4.27582,-0.8745 -5.69432,-2.23548 -8.60122,-8.25242 -2.2266,-4.60866 -3.8266,-11.54647 -6.2712,-27.19197 l -0.7883,-5.04535 -69.5,22.78232 c -38.225,12.53028 -70.2095,22.78819 -71.0766,22.79535 -0.8671,0.007 -5.0296,-3.53529 -9.25,-7.87213 l -7.6734,-7.88517 0,-9.03305 c 0,-4.96817 0.2407,-9.66016 0.5348,-10.42664 0.3105,-0.80922 14.7747,-5.98026 34.4939,-12.33179 l 33.9591,-10.93819 -0.01,-39 -0.01,-39 -8.1737,-7.21308 -8.1736,-7.21308 -4.5642,4.2641 c -2.5104,2.34525 -10.2307,7.52461 -17.1563,11.50969 -10.6911,6.15172 -12.9394,7.88018 -14.8926,11.44898 -2.7166,4.96341 -6.9055,9.70339 -8.5753,9.70339 -0.6522,0 -3.3021,0.93614 -5.8887,2.08031 -4.4128,1.95199 -5.8239,2.03868 -22.8771,1.40543 -22.7471,-0.84467 -29.8163,-2.20004 -40.7916,-7.82091 l -8.6174,-4.41327 -8.1589,4.05486 c -7.0854,3.52133 -9.2473,4.112 -16.4305,4.48901 -6.9874,0.36675 -9.0849,0.0842 -13.5113,-1.81999 -6.1707,-2.65453 -12.2936,-9.12488 -13.9886,-14.78228 -1.6384,-5.46847 -1.4685,-18.91103 0.3132,-24.78423 0.819,-2.69991 1.494,-5.18123 1.5,-5.51404 0.01,-0.33281 -2.6667,-2.48331 -5.9393,-4.77889 -3.2726,-2.29557 -7.0844,-5.62303 -8.4706,-7.39434 l -2.5205,-3.22057 -2.7794,1.81 c -19.7971,12.89224 -40.5428,10.27673 -48.0193,-6.05404 -3.2925,-7.19177 -3.4407,-19.58584 -0.3499,-29.25705 5.6518,-17.68446 20.3124,-35.07399 36.1355,-42.86161 13.8093,-6.79646 23.2362,-7.52799 33.074,-2.56655 9.4995,4.7908 13.1139,11.76484 13.3014,25.66549 0.1261,9.34431 0.2615,9.90663 3.3552,13.93178 3.2719,4.25719 3.9774,7.55414 2.2907,10.70576 -0.6945,1.2977 -0.1661,2.92238 2.0669,6.35525 l 3,4.61185 4.4301,-2.98984 c 10.185,-6.87376 24.3791,-10.31577 32.9514,-7.99056 12.4004,3.36359 18.8293,12.37924 18.9281,26.54413 l 0.057,8.0943 9,0 c 4.95,0 9.9216,0.33896 11.048,0.75325 1.7285,0.63577 2.2549,0.16786 3.3754,-3 2.3776,-6.72248 8.2685,-16.36321 12.4678,-20.40418 l 4.1088,-3.95391 -2.1372,-1.69758 c -1.1755,-0.93367 -6.911,-5.91227 -12.7456,-11.06357 -10.1235,-8.93779 -10.7001,-9.66267 -12.6128,-15.85533 -2.4164,-7.82343 -2.5582,-14.30932 -0.4117,-18.83279 3.287,-6.92684 17.3284,-13.09525 45.4981,-19.98747 l 15.5908,-3.81456 -0.9452,-4.43188 c -0.5199,-2.43754 -0.7601,-9.44491 -0.5339,-15.57193 0.3386,-9.16904 0.8362,-12.01724 2.8123,-16.09786 5.559,-11.47944043 17.4367,-18.66096 32.0166,-19.35803 11.0128,-0.52653 18.2827,1.03119 27.9533,5.9894896 10.6828,5.4773 13.5622,8.69241 15.0693,16.8263504 1.9838,10.70619 3.7918,16.53424 6.0007,19.34242 1.7508,2.22574 2.8805,2.65758 6.9525,2.65758 2.6742,0 8.0343,0.66729 11.9114,1.48286 l 7.0492,1.48286 6.7661,-3.50781 c 7.7832,-4.0351 20.4029,-6.17104 29.64078,-5.01684 6.6854,0.83529 15.6219,6.2416 20.5018,12.40298 2.026,2.55803 4.1244,4.16263 5.4576,4.17331 9.0478,0.0725 27.1707,6.70564 35.4072,12.95928 l 5.2414,3.9795 1.6915,-2.5816 c 2.11,-3.22034 8.854,-8.19719 22.0867,-16.29945 10.7918,-6.60768 15.8137,-11.49901 19.3893,-18.88531 l 2.1597,-4.46135 -2.2827,-4.17875 c -4.4956,-8.2295704 -3.7883,-7.9519704 -12.6608,-4.96872 -37.5749,12.634 -51.5625,-30.68137 -22.0329,-68.229393 20.604,-26.19886 52.8643,-31.21945 63.9106,-9.94625 2.9124,5.60878 3.5985,19.75703 1.3785,28.42288 -2.0106,7.84787 -1.4817,8.82545 7.9788,14.747923 l 7.1014,4.44562 6.6826,-4.48119 c 7.1441,-4.790693 17.4791,-8.540553 23.5383,-8.540553 19.278,0 30.4112,17.357063 25.6571,40.0000026 -4.3202,20.5758204 -19.347,40.2697504 -37.924,49.7028004 -6.0295,3.06163 -8.4366,3.705 -15.2817,4.08446 -9.9983,0.55426 -14.2816,-0.73814 -20.041,-6.04691 -2.3837,-2.19729 -4.3341,-3.49247 -4.3341,-2.87818 0,0.61429 -3.0691,7.54519 -6.8202,15.40201 -4.8042,10.06244 -8.5005,16.26569 -12.5042,20.98526 -3.1262,3.68507 -6.4547,8.39898 -7.3969,10.47535 -4.9208,10.84503 -8.7069,12.99905 -19.0311,10.82729 -6.6454,-1.3979 -7.163,-1.35594 -18.2932,1.48277 -6.2999,1.60675 -12.9169,2.93122 -14.7044,2.94326 -1.7875,0.012 -3.2311,0.35939 -3.2081,0.77189 0.092,1.63834 3.8477,7.42315 11.9405,18.38931 6.3915,8.66103 9.3909,11.88217 12.1686,13.06841 2.2115,0.94446 4.6846,3.15577 6.1818,5.52741 2.6135,4.14 4.254,4.83888 19.4338,8.27883 3.8189,0.86542 6.1554,2.14813 8.5,4.66651 1.7784,1.91017 4.5313,4.15626 6.1175,4.99132 4.9487,2.60511 30.5539,11.04081 43.1466,14.21475 13.4981,3.40212 19.0365,5.45252 21.9693,8.13334 1.0999,1.0055 4.9249,2.81185 8.4999,4.01412 3.575,1.20226 13.7,5.67395 22.5,9.93707 14.8386,7.18852 16.7621,8.44697 26.5,17.33767 8.896,8.12207 12.2568,10.44772 22,15.224 12.5226,6.13877 15.8529,8.71887 19.7196,15.27761 2.785,4.72392 8.2781,23.84074 8.2795,28.81392 5e-4,1.71835 -0.6741,5.03743 -1.4991,7.37573 -1.9679,5.57775 -1.8925,10.67844 0.407,27.52733 2.6782,19.62392 3.5991,58.17661 1.9102,79.97267 -1.8775,24.23065 -1.6639,43.48161 0.5656,51 2.0767,7.00275 5.069,10.50474 15.6172,18.27719 4.125,3.03952 13.125,11.21865 20,18.17584 9.8719,9.98993 13.341,12.87687 16.5,13.73115 2.2,0.59493 6.25,2.02074 9,3.16845 2.75,1.14772 7.5438,2.77527 10.6529,3.61678 7.5277,2.03745 14.6852,8.40145 15.5283,13.8069 0.5371,3.44316 0.2335,4.1145 -3.4409,7.60986 -8.2702,7.86729 -17.306,9.89457 -29.7058,6.66484 -3.0596,-0.79695 -9.4941,-1.7645 -14.2988,-2.15012 -7.9808,-0.64054 -9.5106,-1.13056 -17.7031,-5.6704 -4.9321,-2.7331 -9.9061,-5.58436 -11.0535,-6.33613 -2.5129,-1.64652 -12.318,-5.10304 -18.3436,-6.46654 -3.3993,-0.76921 -7.1175,-0.51674 -16.8135,1.14166 -14.406,2.46401 -17.9161,2.10382 -23.0004,-2.36023 -7.7445,-6.79978 -9.0707,-15.29761 -4.4024,-28.20925 1.5909,-4.4 4.0352,-11.15 5.4318,-15 3.6058,-9.94015 5.3235,-26.93404 3.8065,-37.66077 -2.4291,-17.17648 -6.1046,-29.88358 -10.6558,-36.83923 -5.7514,-8.78989 -7.0821,-11.57562 -8.8584,-18.54434 -3.0349,-11.90622 -3.4721,-19.26545 -2.0766,-34.95693 1.4921,-16.77848 1.7766,-30.44514 0.668,-32.0864 -0.4041,-0.59823 -4.1092,-2.84823 -8.2336,-5 -4.5335,-2.36521 -9.7235,-6.17025 -13.1245,-9.6221 l -5.6256,-5.70977 -0.5019,4.45339 c -0.6254,5.548 -4.4642,10.76999 -9.9895,13.58881 -2.2685,1.15731 -22.9834,8.76914 -46.0331,16.91518 -23.0497,8.14604 -42.0967,14.99913 -42.3267,15.22907 -0.2299,0.22995 -0.3014,23.37854 -0.1589,51.44132 l 0.2592,51.02323 36.8287,-14.40068 36.8287,-14.40068 10.4212,6.64347 10.4213,6.64348 0,11.2804 0,11.28041 -20.2499,7.968 c -11.1375,4.38241 -43.1013,16.90265 -71.0306,27.82276 l -50.7806,19.85474 0.6163,21.03832 c 0.8177,27.91371 1.0261,28.5981 12.5177,41.10824 7.3005,7.94752 10.0313,11.82678 13.6778,19.43008 3.4052,7.09995 6.2435,11.26846 11.235,16.5 3.6733,3.85 7.2603,8.46598 7.9711,10.25773 0.7108,1.79175 3.0363,5.05477 5.1678,7.25114 5.4265,5.59159 5.2878,8.84194 -0.6294,14.75922 l -4.505,4.50494 -6.3344,-0.50847 c -5.5139,-0.4426 -6.492,-0.2564 -7.5497,1.43732 -1.6958,2.71536 -7.1939,4.79812 -12.6662,4.79812 -3.1101,0 -5.4569,0.65487 -7.1669,2 -3.0311,2.38424 -8.5956,2.60169 -12.6372,0.49384 z m 10.3643,-5.99384 c 0.791,-0.95309 2.9996,-1.5 6.0574,-1.5 7.7716,0 12.8285,-2.81659 12.9108,-7.19098 0.054,-2.88375 1.6535,-2.90954 7.0426,-0.11357 4.765,2.47215 5.4115,2.57655 7.7469,1.25091 1.4014,-0.7955 3.441,-2.64896 4.5325,-4.1188 1.9516,-2.62813 1.9532,-2.72115 0.097,-5.60877 -4.5777,-7.122 -8.3298,-11.94327 -14.5501,-18.69647 -3.6645,-3.97844 -8.0034,-9.886 -9.6421,-13.12792 -3.4171,-6.76029 -9.9291,-15.84986 -18.4908,-25.80953 -3.2694,-3.80332 -6.5207,-8.30332 -7.2252,-10 -2.4619,-5.92992 -3.4723,-18.29503 -3.7248,-45.58487 -0.2793,-30.19728 -0.2885,-30.13857 6.1011,-38.95919 3.8852,-5.36339 6.7368,-12.9292 7.661,-20.32625 0.7162,-5.7323 -1.155,-28.37315 -2.409,-29.14818 -0.3578,-0.22109 -2.5155,2.75214 -4.795,6.60718 -6.7356,11.39141 -17.3659,45.93197 -15.7261,51.0985 0.439,1.38333 0.2227,1.83247 -0.7314,1.51808 -0.8312,-0.27389 -1.4763,-2.33845 -1.6688,-5.34095 -0.8621,-13.44164 8.5147,-44.33554 17.0499,-56.17529 4.7925,-6.6479 6.5776,-11.80143 7.7875,-22.48185 1.0694,-9.44048 1.7044,-11.03139 9.063,-22.70881 3.3884,-5.37697 3.4112,-5.49231 3.1012,-15.69951 -0.2943,-9.69465 0.5931,-14.38373 2.7224,-14.38373 0.4619,0 1.1465,1.4625 1.5214,3.25 l 0.6815,3.25 1.9016,-3.5 c 2.2848,-4.20552 2.5637,-14.80104 0.8774,-33.32791 -2.4735,-27.17446 -11.5132,-45.78334 -25.1127,-51.69573 -9.8383,-4.27726 -32.179,-3.56852 -41.7794,1.32543 -5.9169,3.01626 -13.4396,13.68174 -15.0202,21.2953 -1.0011,4.82237 -0.8438,6.24562 1.5614,14.13265 3.3429,10.96216 5.2015,14.61093 12.9173,25.35945 8.4516,11.77363 9.1562,13.67999 7.5426,20.40636 -0.9148,3.81306 -1.0372,7.36083 -0.4207,12.1913 1.4149,11.08592 1.0331,21.23054 -1.0724,28.49431 -2.2769,7.85512 -1.7087,11.98016 4.1536,30.15694 3.4345,10.64893 3.6577,12.59533 1.2757,11.12314 -1.8008,-1.11296 -7.6165,-14.26445 -9.7469,-22.04131 l -1.8804,-6.86437 -2.2051,5.89352 c -9.926,26.52976 -10.3543,43.84197 -2.0918,84.55092 4.548,22.40796 5.1901,27.07634 5.2954,38.5 0.091,9.89669 -0.3033,14.36228 -1.6527,18.70668 -1.3534,4.3574 -1.514,6.18981 -0.679,7.75 0.6015,1.12383 1.5162,2.04332 2.0327,2.04332 1.374,0 3.703,5.21045 3.2406,7.25 -0.4679,2.06404 -1.3849,2.21521 -3.0906,0.50951 -0.7746,-0.77461 -0.6067,0.44596 0.4472,3.25 1.2452,3.31326 1.6463,7.27451 1.5301,15.10999 l -0.1574,10.61949 5.1582,9.82949 c 4.7701,9.08996 5.1731,10.39972 5.3566,17.409 0.1091,4.16873 0.7187,8.55186 1.3548,9.74027 1.3927,2.60229 16.3105,10.27625 20.0168,10.29699 1.4488,0.008 3.7592,0.63899 5.1342,1.40195 3.3806,1.87583 8.4771,1.91829 10,0.0833 z m 13.3613,-14.75 c -0.636,-2.22729 -1.6256,-3.35056 -3.1447,-3.56955 -1.2191,-0.17575 -2.2166,0.11832 -2.2166,0.65349 0,1.8887 -20.553,3.33426 -26.25,1.84624 -2.7991,-0.73111 -3.3847,-2.13088 -1.8826,-4.49993 0.6862,-1.08209 1.9277,-1.09444 6.8943,-0.0686 4.9033,1.01275 7.0921,1.00295 11.4872,-0.0514 4.1598,-0.99793 5.9351,-1.03212 7.5904,-0.14622 1.7781,0.95161 2.1607,0.88453 2.1607,-0.37883 0,-2.65267 4.6295,-1.75182 7.9231,1.54174 3.8211,3.82111 4.1947,7.92308 0.7216,7.92308 -1.8003,0 -2.5741,-0.7659 -3.2834,-3.25 z m -53.7479,-60.56651 c -0.2775,-0.44908 2.1903,-4.38658 5.4841,-8.75 3.2939,-4.36342 7.2069,-10.5163 8.6957,-13.67308 2.6234,-5.56265 4.2068,-7.21358 4.2068,-4.38614 0,4.43308 -8.1444,19.88806 -13.1089,24.87573 -2.7942,2.80722 -4.3789,3.38778 -5.2777,1.93349 z m 26.4069,-184.93504 c -3.5031,-1.76015 -7.0507,-6.55136 -5.7868,-7.81523 0.374,-0.3741 2.6121,0.33801 4.9733,1.58245 2.3613,1.24445 6.0559,2.31252 8.2102,2.37348 4.3755,0.12382 5.4815,1.56952 3.0562,3.99478 -2.102,2.10197 -6.1032,2.05011 -10.4529,-0.13548 z m 25.1922,-41.43595 c -0.6669,-0.66688 -1.2125,-2.44321 -1.2125,-3.9474 0,-4.13649 -1.6537,-7.67387 -6.0321,-12.90347 -4.2707,-5.10081 -5.0483,-7.96163 -2.1641,-7.96163 2.5385,0 7.5854,5.55467 10.6839,11.75884 3.7569,7.52244 2.8168,17.14567 -1.2752,13.05366 z m -37.0589,-6.12743 c -0.8386,-1.01041 0.1916,-2.57356 4.4484,-6.75 3.0468,-2.98929 7.1211,-7.57257 9.054,-10.18507 3.5503,-4.79861 5.9492,-5.94237 6.9567,-3.31686 0.7971,2.07709 -4.285,10.24482 -10.1527,16.31686 -5.0917,5.26919 -8.2108,6.46008 -10.3064,3.93507 z m 323.789,196.67638 c 4.288,-0.85759 6.7396,-4.56856 5.2206,-7.90241 -0.9615,-2.11027 -1.7972,-2.45997 -5.8919,-2.46563 -3.0785,-0.004 -5.8358,-0.71151 -7.7714,-1.99341 -1.65,-1.09275 -3.9859,-1.98979 -5.191,-1.99341 -1.205,-0.004 -2.471,-0.45977 -2.8134,-1.01365 -1.1802,-1.90971 2.5404,-2.21136 7.4537,-0.60431 2.7096,0.88625 5.7419,1.61388 6.7386,1.61695 4.8909,0.015 9.4948,2.19937 10.7058,5.07933 1.3459,3.20113 2.6063,2.89594 2.6063,-0.63111 0,-3.39948 -7.4384,-8.85132 -14.0455,-10.29446 -5.4882,-1.19872 -16.6731,-5.41109 -22.8519,-8.60628 -1.7582,-0.90919 -7.338,-5.80193 -12.3996,-10.87277 -5.0617,-5.07084 -14.5878,-13.26084 -21.1691,-18.2 -13.0767,-9.81369 -15.8505,-13.06651 -17.4324,-20.4425 -2.9757,-13.87536 -3.3491,-27.53693 -1.5803,-57.82298 1.8355,-31.42797 1.5981,-46.98725 -0.9952,-65.23478 -0.8191,-5.76402 -1.4976,-12.61753 -1.5077,-15.23003 -0.017,-4.39511 -0.2051,-4.75 -2.5183,-4.75 -3.998,0 -3.4643,-6.06631 1.193,-13.55883 2.8892,-4.64815 3.6782,-6.92053 3.6252,-10.44117 -0.095,-6.34392 -4.7621,-20.26957 -9.4943,-28.33145 l -4.01,-6.83146 -11.4482,-5.37921 c -9.9478,-4.67419 -12.5897,-6.47227 -20.157,-13.71909 -4.7898,-4.58693 -12.0837,-10.4221 -16.2087,-12.96705 -9.9915,-6.16431 -37.0059,-17.29299 -43.9155,-18.09115 -6.031,-0.69667 -20.6775,2.0234 -26.1593,4.85817 -9.5714,4.94955 -15.5831,18.56418 -19.3281,43.77224 -2.4009,16.16067 -2.8232,14.87815 6.4755,19.66571 10.1064,5.20347 19.8246,7.61313 36.4275,9.03231 21.3077,1.82134 24.1331,2.86365 37.0191,13.65635 3.8499,3.2245 9.0377,7.05701 11.5285,8.51669 6.1143,3.58325 16.012,6.81794 20.8617,6.81794 4.1957,0 6.2845,1.62971 3.9687,3.09649 -0.758,0.48009 -3.9072,0.87978 -6.9982,0.8882 l -5.6202,0.0153 -1.8798,11.75 c -2.5355,15.84779 -2.5381,41.02404 0,50.19215 2.8336,10.25701 6.8254,17.94296 13.9707,26.89951 5.2213,6.54491 6.6547,9.06309 6.6547,11.69098 0,4.07927 -1.7893,5.44683 -3.7552,2.87014 -1.4146,-1.8542 -1.437,-1.85172 -0.8758,0.0972 2.9755,10.33255 4.5565,33.26372 3.0682,44.5 -0.8758,6.61112 -4.2315,16.54258 -8.2783,24.5 -2.9073,5.71667 -3.569,8.13379 -3.6094,13.18434 -0.044,5.52073 0.2673,6.515 2.9028,9.26595 4.2051,4.38915 8.6901,5.27884 22.53,4.46932 9.3988,-0.54975 11.7417,-0.97511 11.3268,-2.05637 -1.5719,-4.09643 12.4433,1.05521 27.1909,9.99463 6.7059,4.06492 7.5,4.29171 7.5,2.14213 0,-2.44496 1.8383,-1.71336 3.4302,1.36516 2.3533,4.55075 6.9846,6.13484 17.9359,6.13484 5.5617,0 11.3571,0.59225 13.8489,1.41527 7.893,2.60695 9.374,2.81692 13.7277,1.94618 z m -103.9427,-41.60877 c -3.1094,-1.61567 -3.7349,-5.73363 -1.619,-10.65878 0.8492,-1.97664 1.6734,-4.68365 1.8315,-6.01557 0.1581,-1.33192 0.9152,-2.62866 1.6824,-2.88163 1.4279,-0.47084 1.406,0.0433 -0.5126,12.03717 -0.5397,3.37358 -0.3394,3.83192 2.0753,4.75 1.4699,0.55887 3.9933,1.01613 5.6075,1.01613 1.6142,0 2.9349,0.45 2.9349,1 0,0.55 -0.8437,1 -1.875,1 -1.0312,0 -3.1687,0.23663 -4.75,0.52585 -1.5812,0.28922 -4,-0.0587 -5.375,-0.77317 z m -27.7523,-199.63245 c -5.5937,-1.93241 -7.6476,-3.39337 -13.2307,-9.41107 -2.2814,-2.45903 -5.9763,-4.7769 -10.517,-6.59751 -7.0947,-2.84465 -8.4252,-4.49584 -5.2396,-6.50266 2.3078,-1.45386 10.1804,2.5836 18.3519,9.41186 13.5316,11.30728 11.9177,10.50143 20.5721,10.27156 5.721,-0.15195 7.8156,0.12945 7.8156,1.05 0,4.00476 -8.7651,4.88255 -17.7523,1.77782 z m 17.6627,-6.37023 c -0.049,-0.1375 -0.1789,-4.975 -0.2881,-10.75 -0.1752,-9.27076 -0.5744,-11.41614 -3.4104,-18.32556 -4.5999,-11.2072 -4.1782,-17.64897 0.7063,-10.78931 4.3358,6.089 5.9082,11.64185 6.6339,23.42681 0.7671,12.45645 0.2419,16.68806 -2.0711,16.68806 -0.8146,0 -1.5213,-0.1125 -1.5706,-0.25 z m -112.1621,183.00525 54.2481,-21.25525 0,-7.5 0,-7.5 -7.5967,-4.78507 c -5.5732,-3.51054 -8.1688,-4.60543 -9.7448,-4.11061 -1.1815,0.37095 -18.5692,7.14326 -38.6393,15.04956 -20.0701,7.9063 -37.0576,14.1577 -37.75,13.89199 -0.991,-0.38006 -1.2595,-12.00763 -1.2595,-54.51735 l 0,-54.03426 -3.1687,1.29299 c -2.5775,1.05169 -3.7057,2.59177 -6.046,8.25286 -1.5825,3.82794 -3.704,10.55989 -4.7144,14.95989 -1.0104,4.4 -3.6755,11.825 -5.9225,16.5 -6.205,12.91004 -8.9919,28.5362 -7.223,40.5 0.5692,3.85 1.0439,11.95904 1.0548,18.0201 0.025,13.73979 -1.9834,21.49496 -9.5051,36.70807 -4.316,8.72929 -5.4751,12.0816 -5.4751,15.83426 l 0,4.76053 13.75,-5.40623 c 7.5625,-2.97343 38.1617,-14.9711 67.9982,-26.66148 z m 2.7514,-146.4303 c 25.8499,-9.09936 48.244,-17.43041 49.765,-18.51346 3.5596,-2.53464 5.7353,-6.79222 5.7353,-11.22329 0,-3.22109 -0.3097,-3.58988 -3.75,-4.46469 -2.0625,-0.52446 -8.25,-1.24265 -13.7499,-1.59598 -13.2683,-0.85237 -19.8886,-2.05988 -30.7463,-5.60801 l -9.0464,-2.95624 -4.4418,2.15024 c -3.8564,1.86685 -4.9445,1.99963 -8.256,1.00747 -4.7617,-1.42665 -13.722,-7.38779 -21.3007,-14.17107 -6.3804,-5.71067 -7.1916,-5.8203 -16.5952,-2.24279 l -4.3864,1.66877 0.7651,9.06205 c 0.4208,4.98413 0.755,10.18705 0.7426,11.56205 -0.012,1.375 0.5784,5.65 1.3129,9.5 0.7346,3.85 1.6325,10.2625 1.9954,14.25 0.3629,3.9875 0.8935,7.25 1.1791,7.25 0.2856,0 19.0773,-6.075 41.7594,-13.5 22.6822,-7.425 41.7528,-13.5 42.3793,-13.5 0.6264,0 1.139,0.81704 1.139,1.81564 0,1.50769 -7.2083,4.17284 -42.5,15.71372 l -42.5,13.89808 0,8.89327 c 0,8.05925 0.1641,8.83021 1.75,8.22089 0.9625,-0.3698 22.8998,-8.1173 48.7496,-17.21665 z M 915.32792,285.84317 c 37.8382,-12.38832 68.9562,-22.68361 69.151,-22.87842 0.1948,-0.19482 0.4464,-1.47872 0.5591,-2.85312 0.1651,-2.01377 -1.5908,-4.06163 -9.0449,-10.54846 l -9.2499,-8.04955 -17.7501,5.95402 c -9.7626,3.27472 -18.8752,5.82931 -20.2502,5.67688 l -2.5,-0.27714 -0.2679,-23.65069 -0.2678,-23.65069 -11.9822,-10.67343 -11.9821,-10.67343 0,38.53601 0,38.53602 -34.5,11.23471 -34.5,11.23471 0,6.5244 0,6.5244 5.7187,5.77899 c 3.1453,3.17845 6.2477,5.779 6.8941,5.779 0.6465,0 32.134,-10.13589 69.9722,-22.52421 z m 85.31608,-5.78088 c 4.0139,-7.90803 10.9181,-15.93405 16.4324,-19.10239 8.2241,-4.72532 21.3622,-5.80485 37.2855,-3.06367 11.7606,2.02457 18.2509,5.26542 23.3367,11.65292 l 4.0424,5.07715 -0.249,-6.32606 -0.2491,-6.32607 5.9453,-2.96895 c 3.2699,-1.63292 8.0619,-3.17234 10.649,-3.42092 5.2264,-0.50219 6.3154,0.0935 22.8082,12.47507 8.0579,6.04933 13.0055,7.88396 14.5447,5.39342 0.8681,-1.40455 -1.7324,-1.90182 -3.6722,-0.70223 -1.246,0.77049 -2.0522,0.73962 -2.903,-0.11114 -0.9038,-0.90385 -0.7757,-4.2715 0.5506,-14.47496 3.523,-27.10292 8.3313,-41.38956 16.9011,-50.21829 4.6442,-4.7844 16.5307,-9.99864 25.851,-11.33995 l 5.2096,-0.74973 -13.4422,-3.81332 c -7.3931,-2.09732 -21.7671,-6.94663 -31.9421,-10.77625 -14.8812,-5.60091 -19.1,-7.6133 -21.5675,-10.28772 -2.1988,-2.38311 -4.6062,-3.68499 -8.5,-4.59652 -2.9879,-0.69945 -8.0825,-2.3329 -11.3214,-3.62989 -3.2389,-1.297 -8.7514,-2.65144 -12.25,-3.00988 -9.2376,-0.94642 -8.4049,-2.12234 2.6389,-3.72661 0.9952,-0.14457 0.5277,-0.86464 -1.3894,-2.13977 -7.4591,-4.96138 -33.5617,0.33528 -54.92,11.14421 -17.3292,8.76993 -35.60508,23.40235 -41.37658,33.12784 -4.4427,7.48636 -4.6414,10.7201 -1.4065,22.88608 3.2506,12.22516 7.0338,21.50686 7.0705,17.34707 0.012,-1.3671 -1.1771,-4.85554 -2.6426,-7.75209 -1.4655,-2.89654 -2.3637,-5.56727 -1.996,-5.93496 1.0863,-1.08634 5.4773,3.66254 7.7748,8.40858 1.8725,3.86803 2.0464,5.39917 1.4295,12.58399 -0.3863,4.49907 -1.2708,10.91636 -1.9654,14.26063 -1.0748,5.17435 -0.9993,8.15489 0.5069,20 0.9735,7.65573 2.3356,15.2695 3.0269,16.9195 1.2223,2.91762 1.2745,2.81595 1.8986,-3.7023 0.4441,-4.63853 1.64202,-8.67315 3.89038,-13.10279 z m 74.7631,-27.94491 c -0.7601,-1.2375 -2.9858,-5.175 -4.946,-8.75 -5.9477,-10.84757 -11.5288,-15 -20.1608,-15 -5.0401,0 -7.5831,-2.05917 -5.5574,-4.5 3.5096,-4.22886 17.2247,0.27139 23.2407,7.62584 5.009,6.1234 12.7593,18.92678 12.7593,21.07818 0,2.58624 -3.6598,2.27484 -5.3358,-0.45402 z m 29.0191,-26.4 c -1.6043,-1.60431 -0.6458,-15.3759 1.4659,-21.06249 2.2229,-5.98588 7.818,-15.53118 9.8344,-16.77734 2.6751,-1.65332 2.0284,0.97907 -2.3405,9.52668 -3.5179,6.88266 -4.6536,10.2205 -4.6866,13.7736 -0.082,8.8 -2.3375,16.47522 -4.2732,14.53955 z m -116.48938,-4.61642 c -1.7302,-2.0847 0.5641,-10.055 4.732,-16.4392 5.0686,-7.76372 15.28298,-18.70697 22.25948,-23.84784 3.8805,-2.85947 7.8488,-4.73137 12.5,-5.8964 3.748,-0.93881 8.7978,-2.19993 11.2218,-2.8025 2.9616,-0.73622 6.365,-2.84251 10.3761,-6.4216 6.0562,-5.40383 8.0135,-6.27283 9.3302,-4.1424 0.447,0.7232 -0.9889,2.67901 -3.691,5.02771 -8.0838,7.02651 -13.5043,9.89517 -22.3501,11.82822 -11.2321,2.45454 -13.6037,3.80503 -23.4351,13.34534 -7.4888,7.26705 -8.92496,9.29073 -13.74368,19.36509 -2.9596,6.1875 -5.5538,11.25 -5.7649,11.25 -0.2111,0 -0.8568,-0.56989 -1.4348,-1.26642 z m 38.80608,-17.09872 c 0,-5.73654 7.6801,-10.58727 31.5,-19.8953 23.996,-9.37684 42.5,-14.96543 42.5,-12.83586 0,1.68102 -8.3318,5.4747 -25.1969,11.47273 -27.9989,9.95779 -33.4775,12.4508 -40.1503,18.27037 -6.7575,5.89342 -8.6528,6.54792 -8.6528,2.98806 z m 16.4589,1.29861 c -0.8261,-1.33663 -0.9479,-1.26956 5.0411,-2.77486 2.75,-0.69119 6.575,-2.56701 8.5,-4.16848 10.6687,-8.87564 13.2032,-10.07557 25.6402,-12.1391 7.4093,-1.22933 13.8061,-2.9333 17.0463,-4.54076 5.2846,-2.62171 8.3135,-2.57242 8.3135,0.13529 0,2.75304 -4.5474,4.55172 -18.0454,7.13761 -15.7747,3.02208 -18.1675,3.92949 -23.4546,8.89492 -2.2,2.06613 -6.25,4.8244 -9,6.12949 -5.1884,2.4623 -12.8893,3.18949 -14.0411,1.32589 z m -59.45888,41.60355 c 0,-0.25464 -0.8507,-2.62116 -1.8904,-5.25894 -1.0397,-2.63779 -3.1068,-9.32247 -4.5935,-14.85485 -1.962,-7.30134 -3.2858,-10.42285 -4.829,-11.38654 -1.1692,-0.73021 -17.6757,-14.25721 -36.681,-30.05999 -32.6547,-27.15222 -34.8712,-28.80309 -40.3042,-30.01894 -5.7051,-1.27674 -5.7718,-1.26499 -8.69,1.53084 -1.6174,1.5496 -2.6966,3.21258 -2.3981,3.69552 0.2985,0.48294 18.831,16.95157 41.1833,36.59697 22.3524,19.6454 44.2547,38.95906 48.6718,42.91925 7.3087,6.55264 9.5311,8.14679 9.5311,6.83668 z m -35.9869,-5.57873 c 7.1428,-2.25193 12.957,-4.40129 12.9204,-4.77636 -0.061,-0.6246 -19.211,-17.54838 -26.0306,-23.00441 l -2.9029,-2.32248 0,17.67947 c 0,15.3723 0.1975,17.6037 1.5131,17.09883 0.8322,-0.31934 7.3572,-2.42312 14.5,-4.67505 z m 19.4914,-40.77263 c -4.477,-8.22574 -11.0119,-15.69641 -17.3044,-19.78231 -16.4717,-10.69554 -33.3403,-20.52025 -34.7328,-20.22931 -0.9343,0.1952 9.5906,9.57833 26.2363,23.39017 15.288,12.68531 27.9428,22.70854 28.1218,22.27384 0.179,-0.43471 -0.8654,-2.97828 -2.3209,-5.65239 z m 20.5032,-16.2909 9.8068,-9.80678 -5.5327,-1.6084 c -6.6877,-1.94416 -11.3513,-2.08683 -17.1327,-0.52415 -4.663,1.26036 -5.7195,0.97348 -4.8415,-1.31467 0.6671,-1.73844 8.9874,-3.66288 15.4916,-3.58311 2.5855,0.0317 7.7158,0.84419 11.4008,1.80552 l 6.69988,1.74789 3.8001,-2.35879 c 2.09,-1.29733 6.799,-3.89607 10.4644,-5.77498 5.4765,-2.80728 6.5715,-3.77121 6.1435,-5.40799 -0.4143,-1.58435 0.4037,-2.44103 3.9991,-4.18779 5.3775,-2.61257 6.28,-5.30725 3.5628,-10.63699 -1.0284,-2.01707 -1.8698,-4.22559 -1.8698,-4.90782 0,-0.68224 -1.6471,-2.84003 -3.6601,-4.7951 -3.8154,-3.70547 -3.9628,-5.19147 -0.4028,-4.06158 2.6245,0.83299 7.0629,7.25343 7.0629,10.21693 0,1.22798 0.9,2.71435 2,3.30305 2.0926,1.1199 2.7701,4 0.941,4 -0.5825,0 -0.7784,0.45403 -0.4355,1.00895 1.1736,1.8989 -0.6099,4.89478 -4.8076,8.0758 -2.3088,1.74963 -3.2979,2.8296 -2.1979,2.39992 1.1,-0.42968 5.825,-2.27458 10.5,-4.09978 4.675,-1.8252 9.0625,-3.33347 9.75,-3.35172 1.9392,-0.0515 1.473,-2.02283 -0.5,-2.11429 -0.9625,-0.0446 -3.325,-0.15712 -5.25,-0.25 -5.1864,-0.25025 -5.2466,-2.11553 -0.08,-2.48467 5.963,-0.42606 9.4122,0.50837 8.7025,2.35766 -0.5959,1.55288 0.3618,1.67727 4.3777,0.56861 2.1801,-0.60183 2.564,-1.37904 3,-6.07267 0.3138,-3.37836 1.0223,-5.55449 1.9026,-5.84437 1.1007,-0.36243 1.2737,0.33289 0.8035,3.23002 -0.9,5.54628 -0.1275,6.57654 4.9315,6.57654 l 4.4236,0 -7.4021,-10.75 c -11.4859,-16.68112 -13.6259,-22.14098 -13.6472,-34.8185 -0.015,-9.01613 -1.9585,-15.40554 -6.9637,-22.8961 -3.871,-5.79297 -4.1016,-5.95622 -8.0169,-5.67353 -4.3171,0.3117 -5.5524,-1.36364 -1.9799,-2.68519 1.7339,-0.64138 0.9522,-1.33309 -5.0489,-4.46778 -4.6993,-2.45468 -8.4365,-3.7089 -11.0514,-3.7089 -2.9757,0 -3.9511,-0.39998 -3.9511,-1.62019 0,-1.37081 0.885,-1.53381 5.75,-1.05896 3.1625,0.30868 6.9875,0.86522 8.5,1.23677 2.4189,0.5942 2.75,0.38899 2.75,-1.70439 0,-7.02651 -15.2329,-21.75558 -24.7274,-23.90953 -6.88796,-1.56263 -25.21508,2.05874 -30.24688,5.97665 -2.3585,1.83645 -2.3936,2.01569 -0.75,3.83185 1.8453,2.03898 2.2856,4.2478 0.8467,4.2478 -0.4826,0 -1.4581,-0.69957 -2.1677,-1.5546 -1.9392,-2.33664 -4.7023,-3.57805 -12.4369,-5.5877 -9.6775,-2.51449 -14.6666,-2.32598 -30.1679,1.13987 -17.8559,3.99233 -21.7132,6.10243 -33.9188,18.5551 -8.3112,8.4794 -10.8425,10.47217 -14.5,11.41519 -11.8495,3.05515 -17.286,5.60205 -23.5486,11.03214 -6.4625,5.60344 -7.4943,7.68136 -10.7168,21.58201 l -1.4099,6.082 4.3977,-1.00635 c 3.2119,-0.73499 4.7145,-0.68969 5.5722,0.16799 1.7333,1.7333 0.1596,2.68253 -7.5853,4.57533 -7.0584,1.72501 -14.8399,5.22265 -19.9515,8.96779 -4.5174,3.30976 -10.3697,12.16212 -12.7306,19.25654 -1.9734,5.93022 -2.0195,6.63226 -0.5798,8.82958 0.8602,1.31292 4.2461,4.04255 7.5241,6.06584 3.278,2.02329 6.2018,4.30883 6.4973,5.07899 0.2955,0.77015 0.3684,1.40028 0.1619,1.40028 -1.9494,0 -14.3533,-6.70284 -19.2523,-10.40369 -6.7555,-5.10323 -12.336,-6.4988 -19.637,-4.9109 -3.6163,0.7865 -3.9808,1.22643 -6.6048,7.97059 -3.5057,9.01048 -10.328,19.26665 -17.5011,26.30984 -3.0616,3.00621 -5.5666,5.75726 -5.5666,6.11344 0,1.16512 11.6805,5.9215 19.1714,7.80671 4.9303,1.24077 12.892,2.03827 24.3286,2.4369 20.282,0.70693 23.0679,0.0866 24.9873,-5.56381 1.8844,-5.54727 4.2273,-8.64935 7.0719,-9.3633 3.7453,-0.94 3.8541,-0.0498 0.4408,3.60422 -1.6824,1.80097 -2.8614,3.47194 -2.6201,3.71326 0.2413,0.24132 2.2786,-1.55725 4.5274,-3.99681 2.2487,-2.43956 6.7413,-5.84951 9.9837,-7.57766 9.0188,-4.80696 23.402,-14.49846 27.2952,-18.39165 6.2651,-6.26508 11.6564,-15.74038 14.9041,-26.19418 2.5166,-8.10022 3.8283,-10.70684 6.9678,-13.84634 3.7546,-3.75464 6.8313,-4.54281 7.6881,-1.96952 0.2265,0.6804 -1.2017,2.18914 -3.1739,3.35275 -2.1995,1.29772 -3.8097,3.1391 -4.1649,4.7629 -0.3185,1.45599 -1.8125,6.73512 -3.3198,11.73142 l -2.7407,9.08416 5.5765,1.54823 c 3.0671,0.85152 10.7118,2.96888 16.9882,4.70524 12.9705,3.58828 21.9245,8.57378 40.6055,22.60888 10.1757,7.64503 11.3213,8.85336 15,15.82179 l 3.9829,7.54462 1.8505,-3.59778 c 1.0177,-1.97877 6.2635,-8.01082 11.6572,-13.40455 z m -175.0077,10.25366 c 0,-1.14165 12.8956,-4.58692 13.7938,-3.68524 0.3884,0.38994 -0.3561,1.57024 -1.6546,2.6229 -2.422,1.96354 -12.1392,2.81393 -12.1392,1.06234 z m -19.6261,-16.20282 c -6.1671,-1.95508 -9.0436,-4.05301 -7.9603,-5.80583 0.3431,-0.55504 2.7617,-0.10981 5.8361,1.07432 7.1031,2.73577 14.1527,2.72517 19.4605,-0.0292 5.1957,-2.69631 6.2898,-2.73139 6.2898,-0.20169 0,2.65683 -8.63,7.0362 -13.7168,6.96068 -2.0807,-0.0309 -6.5399,-0.93009 -9.9093,-1.99823 z m 216.25078,-17.80781 c -1.6185,-1.78838 -3.6247,-7.25752 -3.6247,-9.88119 0,-2.79976 2.8166,-1.04797 3.4112,2.12162 0.3485,1.85802 1.7486,4.58121 3.1113,6.05152 1.3626,1.47032 2.4775,2.87512 2.4775,3.12178 0,1.23916 -3.9036,0.2125 -5.3753,-1.41373 z m -168.62468,-0.4369 c 0,-0.71451 1.5442,-1.85749 3.4315,-2.53996 6.9718,-2.52104 14.0267,-13.81351 16.0198,-25.6422 0.8267,-4.90673 1.6507,-7.10727 2.7397,-7.31699 2.5884,-0.49848 2.7756,2.19962 0.8161,11.76353 -2.6862,13.11127 -7.2534,20.15055 -15.2386,23.487 -4.5193,1.88827 -7.7685,1.99226 -7.7685,0.24862 z m 79.2158,-11.15366 c -1.0732,-1.36434 -2.2167,-4.89769 -2.5769,-7.96243 -0.3561,-3.03031 -1.1831,-6.68513 -1.8377,-8.12183 -1.0852,-2.3817 -1.6279,-2.58353 -6.1511,-2.28757 -5.5462,0.36291 -7.7661,-1.66911 -2.9711,-2.7198 8.1851,-1.79358 13.6811,-6.5447 13.124,-11.34525 -0.2759,-2.37677 -0.7974,-2.66352 -5.8277,-3.20459 -6.139,-0.66031 -9.9753,-2.30412 -9.9753,-4.27428 0,-2.43909 1.2735,-2.57291 4.2584,-0.44748 2.8083,1.99969 3.4337,2.05649 10.6129,0.96384 10.4207,-1.58598 14.063,-1.48273 14.7929,0.41938 0.9073,2.36441 -1.5295,4.39203 -2.7276,2.26956 -0.7018,-1.24323 -1.633,-1.47874 -3.6877,-0.93268 -3.07,0.81586 -4.0339,3.76066 -2.2947,7.01035 1.1808,2.20626 8.1979,4.54055 11.25,3.7424 1.1788,-0.30827 1.7625,-0.0511 1.5247,0.67184 -0.5654,1.71906 -8.9693,1.98701 -12.8359,0.40926 -3.1794,-1.29733 -3.4481,-1.23171 -5.6444,1.37847 l -2.3061,2.74065 2.025,3.32147 c 1.343,2.20279 2.0263,5.06561 2.0288,8.50003 0,4.94173 1.6586,8.32143 4.0751,8.32143 0.5107,0 0.9286,0.9 0.9286,2 0,2.83617 -3.4069,2.56949 -5.7842,-0.45277 z m 65.8248,-1.12954 c -2.2868,-2.06593 -4.4594,-3.2769 -5.1326,-2.86081 -0.7266,0.44906 -0.9945,0.19693 -0.7094,-0.66768 0.7973,-2.41801 4.8433,-2.217 7.6593,0.38051 3.8367,3.53901 5.3307,3.77307 10.1918,1.5967 4.41038,-1.97463 8.86858,-2.18929 7.95028,-0.3828 -0.275,0.54099 -1.1852,0.86753 -2.0227,0.72565 -0.8375,-0.14188 -3.0624,0.87799 -4.94426,2.26639 -4.79212,3.53552 -8.21672,3.25667 -12.99242,-1.05796 z m -45.7906,-2.90856 c -4.6312,-2.01289 -4.2934,-3.96562 0.5,-2.89106 2.0625,0.46236 5.8875,0.76874 8.5,0.68085 3.3375,-0.11228 4.75,0.23089 4.75,1.15401 0,2.69811 -8.4746,3.34909 -13.75,1.0562 z m 112.35698,-0.0909 c -0.3339,-0.86998 -0.6139,-2.78248 -0.6223,-4.25 -0.019,-3.24411 -0.7978,-4.50706 -3.7347,-6.05369 -2.2885,-1.20517 -3.1259,-4.11454 -1.1843,-4.11454 4.1707,0 7.9343,5.66861 7.9343,11.95034 0,4.083 -1.2705,5.3932 -2.393,2.46787 z m -90.68388,-2.34129 c -1.6077,-1.60769 -2.9231,-3.85769 -2.9231,-5 0,-2.41864 1.7917,-2.78334 2.6526,-0.53993 1.0898,2.84 6.2408,4.65288 12.212,4.29797 4.4185,-0.26263 5.6354,-0.0208 5.6354,1.11996 0,1.78283 -3.4386,2.81348 -9.8269,2.9454 -4.0732,0.0841 -5.2834,-0.35675 -7.75,-2.8234 z m 41.11018,-1.82694 c 0.058,-3.07835 3.6989,-6.27826 8.8994,-7.82265 6.6672,-1.97995 8.6068,-5.24011 6.5507,-11.01064 -0.7676,-2.15419 -1.4154,-4.77717 -1.4395,-5.82885 -0.024,-1.05168 -1.2086,-3.89951 -2.6321,-6.32851 -3.0358,-5.18025 -2.4899,-6.60201 1.221,-3.17996 3.146,2.90111 5.3672,7.77526 5.3672,11.77771 0,2.60231 3.8846,9.10762 3.9668,6.6429 0.019,-0.57389 3.7618,-1.07568 8.7833,-1.17761 9.0892,-0.18449 13.2499,1.1346 13.2499,4.20066 0,1.72264 -1.1609,1.91603 -2.6376,0.43937 -0.5706,-0.57067 -6.0606,-1.18118 -12.2,-1.35669 l -11.1624,-0.31911 0,3.28411 c 0,4.31615 -3.8182,7.42927 -9.1118,7.42927 -2.9947,0 -4.2034,0.55136 -5.4802,2.5 -1.9077,2.91152 -3.4222,3.24811 -3.3747,0.75 z m -54.03328,-7.09171 c 0,-0.46294 1.7927,-1.37881 3.9837,-2.03526 2.191,-0.65644 4.476,-2.11345 5.0777,-3.23779 1.0869,-2.03088 1.4653,-17.22395 0.4692,-18.83578 -0.9763,-1.57967 0.7591,-10.22341 2.1605,-10.76118 2.212,-0.84881 2.5961,0.31153 1.3514,4.08282 -0.9301,2.81825 -0.8516,4.53259 0.4004,8.7485 0.8564,2.88387 1.5571,7.68173 1.5571,10.6619 0,4.82888 -0.37,5.78847 -3.4,8.8185 -2.761,2.76098 -4.1706,3.4 -7.5,3.4 -2.255,0 -4.1,-0.37877 -4.1,-0.84171 z m 24.4948,-3.16676 c -0.279,-0.45139 1.0473,-1.78149 2.9473,-2.95577 3.6373,-2.24796 4.6862,-4.29496 5.1425,-10.03576 0.4078,-5.13186 4.9763,-8.633 12.0278,-9.21776 7.27718,-0.60349 10.62428,-3.13845 11.76478,-8.91028 0.7482,-3.78657 0.4798,-5.38967 -1.8256,-10.90553 -3.52826,-8.44163 -3.96916,-9.96643 -2.882,-9.96643 1.7008,0 8.1567,11.01251 8.8453,15.08827 0.3784,2.23991 0.3945,6.03046 0.036,8.42345 -0.5459,3.64029 -1.2513,4.70421 -4.3192,6.5143 -2.0167,1.18988 -6.15616,2.39857 -9.19898,2.68598 -7.2484,0.68466 -9.7728,2.35592 -10.6192,7.03043 -0.8339,4.60513 -2.6092,8.24266 -5.0607,10.3689 -2.2364,1.93963 -6.1566,3.01447 -6.8576,1.8802 z m 67.49898,-13.6582 c 0,-2.65833 -0.6783,-6.12227 -1.5,-7.69764 -1.8774,-3.59976 -1.8817,-4.63569 -0.02,-4.63569 2.4909,0 4.6553,5.61298 4.3263,11.21957 -0.4031,6.8709 -2.7982,7.82131 -2.8067,1.11376 z m -102.27068,-0.33648 c -1.4977,-1.1781 -2.7231,-2.78435 -2.7231,-3.56943 0,-1.89421 1.437,-1.8107 3.0888,0.17952 1.3363,1.61024 5.9407,1.54664 13.1612,-0.1818 3.9237,-0.93925 3.5475,1.34387 -0.5,3.03422 -6.4771,2.70508 -10.0821,2.85382 -13.0269,0.53749 z m -75.5426,-10.1484 c 0.2314,-1.55805 3.078,-3.6865 10.3195,-7.71598 9.0594,-5.04106 10.6584,-5.59497 17,-5.88914 7.5551,-0.35047 10.1687,0.57168 9.1493,3.22815 -0.5367,1.39856 -1.5189,1.56378 -5.9816,1.0062 -5.1357,-0.64166 -5.7871,-0.43451 -17.0667,5.4276 -6.4499,3.35209 -12.18,6.09472 -12.7336,6.09472 -0.5536,0 -0.8627,-0.9682 -0.6869,-2.15155 z m 65.0195,-2.04845 c -2.3289,-2.32893 -1.4207,-4.00738 1.7872,-3.30281 1.9686,0.43237 4.8798,-0.052 8.5375,-1.42055 5.7115,-2.13693 11.4753,-2.74343 11.4753,-1.20748 0,0.47803 -1.5922,1.12754 -3.5383,1.44334 -1.9461,0.31581 -4.9056,1.72469 -6.5767,3.13085 -3.3056,2.78146 -9.5367,3.5049 -11.685,1.35665 z m 85.53418,-2.79442 c -1.5038,-1.18291 -2.7342,-3.05074 -2.7342,-4.15074 0,-1.99818 0,-1.99819 2.5338,-0.007 2.0594,1.61997 3.1347,1.82076 5.7434,1.07258 5.4114,-1.55198 11.2213,-1.10285 13.9991,1.0822 1.5418,1.21278 3.2265,1.74157 4.2713,1.34065 1.214,-0.46583 1.5862,-0.24434 1.256,0.7473 -0.6479,1.94558 -3.6112,2.35026 -6.3758,0.87071 -2.1745,-1.16374 -4.7922,-1.04438 -12.9436,0.59021 -2.2189,0.44495 -3.7382,0.0364 -5.75,-1.54599 z M 905.99292,95.57588 c -4.0167,-0.30574 -5.3785,-1.39304 -3.3301,-2.65899 0.5059,-0.31269 4.7007,-0.73622 9.3218,-0.94118 11.5089,-0.51046 18.5102,-4.41987 25.0724,-14.00002 6.8628,-10.01908 11.0151,-12.34282 31.4359,-17.59277 3.7973,-0.97624 4.25,-1.40808 4.25,-4.05408 0,-1.96574 0.5043,-2.96146 1.5,-2.96146 2.3049,0 1.9945,7.2425 -0.4034,9.4126 -1.0469,0.94742 -4.9766,2.36555 -8.7326,3.15142 -10.8839,2.27721 -15.9219,5.33626 -24.9555,15.15278 -11.8034,12.82641 -18.5322,15.68112 -34.1585,14.4917 z m 54.1495,-0.60991 c -1.2822,-3.34125 3.0733,-8.02805 13.1142,-14.11186 5.4585,-3.3073 10.572,-7.16687 11.3634,-8.57681 1.3157,-2.34414 1.2389,-2.83407 -0.8981,-5.72443 -2.6295,-3.55664 -2.0072,-5.42594 0.9235,-2.77373 3.6995,3.34798 4.5417,7.13663 2.6738,12.02773 -2.1805,5.70938 -3.6097,6.78995 -10.9655,8.29041 -7.3095,1.49099 -10.5799,3.72317 -12.109,8.26491 -1.2711,3.77512 -3.1864,4.99075 -4.1023,2.60378 z m 73.60048,-4.73017 c 0,-1.19298 -1.9815,-4.11306 -4.5,-6.63158 -4.509,-4.50898 -5.4521,-6.23684 -3.4044,-6.23684 3.9107,0 12.1743,11.13622 10.3973,14.01153 -1.0651,1.72327 -2.4929,1.06854 -2.4929,-1.14311 z m -13.7584,-14.81877 c -1.9071,-1.59084 -2.8362,-1.72424 -5.9743,-0.85779 -7.0369,1.94298 -20.26728,-3.13627 -20.26728,-7.78075 0,-1.97291 0.6293,-1.79526 4.74262,1.33889 3.26376,2.48687 4.40356,2.75091 11.91186,2.75947 8.6216,0.01 12.3455,1.51223 12.3455,4.98074 0,1.86322 0,1.86391 -2.7584,-0.44056 z M 1004.3437,59.6348 c -0.3731,-0.37301 -4.83616,-0.57204 -9.91818,-0.44229 -8.1513,0.20811 -9.5017,-0.008 -11.4613,-1.83357 -1.2217,-1.13821 -2.2213,-3.03038 -2.2213,-4.20483 0,-2.1212 0.017,-2.11972 2.5106,0.22322 2.2737,2.13605 3.2958,2.33693 10.8335,2.12919 6.88918,-0.18987 8.72398,0.0955 10.65168,1.65639 1.3596,1.10088 1.9031,2.1489 1.306,2.51794 -0.5626,0.34769 -1.328,0.32697 -1.701,-0.046 z M 746.34632,191.43118 c 14.5121,-7.19104 27.6742,-22.35328 33.4849,-38.57342 3.2136,-8.9705 3.1731,-20.43589 -0.095,-26.98893 -4.323,-8.66755 -12.929,-12.56767 -23.493,-10.64675 -23.1318,4.20613 -46.7145,31.01482 -48.2857,54.89081 -0.6248,9.4954 1.1073,15.57614 5.7633,20.23216 4.6477,4.64766 8.8836,6.01758 17.343,5.60883 5.6051,-0.27084 8.3288,-1.07685 15.2828,-4.5227 z m -33.213,-7.64429 c -0.3562,-1.41926 -0.4266,-5.66917 -0.1565,-9.44422 1.2475,-17.43574 19.6554,-42.37482 37.9519,-51.41745 6.5726,-3.24836 8.1352,-3.62935 13.7842,-3.36076 8.9077,0.42352 9.3694,2.66678 0.5384,2.61583 -9.9774,-0.0576 -17.5444,4.01007 -29.0084,15.59341 -14.2029,14.35075 -20.9364,27.56166 -20.8178,40.84368 0.069,7.66635 -1.0384,10.16322 -2.2918,5.16951 z m -0.8371,-41.66951 c 2.1107,-3.4375 6.2343,-8.77573 9.1635,-11.86273 3.6371,-3.83306 5.1266,-6.13188 4.6975,-7.25 -0.3456,-0.9005 -1.0402,-1.63727 -1.5436,-1.63727 -2.0942,0 -9.6494,8.2575 -11.8458,12.94685 -2.5101,5.35914 -5.0249,6.67525 -5.0249,2.62975 0,-3.7097 7.1951,-12.51471 14.8904,-18.22222 1.3378,-0.99224 1.0997,-1.56123 -1.7787,-4.25 -1.8277,-1.70741 -3.8873,-3.10438 -4.5767,-3.10438 -2.8119,0 -10.353,8.20896 -14.5871,15.87889 -4.5065,8.16355 -6.7069,9.78413 -6.1319,4.51622 0.4695,-4.30208 4.5696,-10.70633 11.6794,-18.24312 6.9131,-7.32823 7.1194,-8.82626 1.5342,-11.13973 -4.4589,-1.84692 -5.2251,-1.22537 -20.6997,16.79033 -1.7435,2.02985 -3.485,3.37561 -3.8701,2.99059 -1.5621,-1.56215 0.9241,-5.74592 8.4937,-14.29318 4.3838,-4.95 7.9877,-9.26527 8.0086,-9.58948 0.062,-0.96073 -4.8708,-2.91052 -7.3631,-2.91052 -3.5185,0 -6.8629,3.77734 -11.4386,12.91942 -6.1714,12.3301 -6.2008,12.22872 7.4616,25.76501 9.8275,9.73673 15.4528,14.08112 18.4859,14.27643 0.3343,0.0215 2.3347,-2.77336 4.4454,-6.21086 z m -39.9814,-0.41698 c 2.7104,-0.91684 6.6077,-2.77144 8.6606,-4.12133 l 3.7326,-2.45436 -3.8135,-2.76245 c -4.4045,-3.19065 -7.1516,-8.29181 -7.1516,-13.28021 0,-4.21463 6.5358,-17.54695 11.3804,-23.21467 3.2923,-3.85174 3.6173,-3.98877 8.7693,-3.69689 7.1017,0.40234 9.3869,0.34701 15.5147,-0.37559 4.449,-0.52465 5.2517,-0.95728 5.7954,-3.12356 0.765,-3.04781 -0.2817,-10.63353 -2.0518,-14.8699 -1.8553,-4.44041 -8.6262,-10.19678 -12.9475,-11.00745 -16.2809,-3.05431 -37.2869,8.83957 -49.7877,28.19042 -11.0445,17.09659 -12.9228,36.95323 -4.3751,46.25124 5.3993,5.87314 16.5225,7.76331 26.2742,4.46475 z m -25.6217,-7.42608 c -0.8068,-1.50758 -1.0211,-4.78697 -0.641,-9.81238 0.4769,-6.30578 1.3158,-9.03307 5.097,-16.57129 2.4893,-4.9628 6.7837,-12.00278 9.5431,-15.6444 12.1561,-16.04291 32.2332,-26.89625 42.4394,-22.94207 4.1476,1.60688 2.6219,2.33993 -5.1179,2.45902 -5.2057,0.0801 -8.0421,0.73224 -12.2708,2.82128 -12.8112,6.329 -24.4584,18.83311 -32.3237,34.70186 -3.8903,7.84888 -4.1863,9.03486 -4.322,17.31585 -0.08,4.88943 -0.3811,9.12536 -0.669,9.41318 -0.2878,0.28782 -1.0686,-0.49565 -1.7351,-1.74105 z m 191.5819,-20.35591 c 3.113,-1.30068 3.4625,-1.838 3.4147,-5.25 -0.051,-3.61328 -0.6185,-4.26489 -11.5,-13.19194 -7.1234,-5.844 -11.4468,-10.09307 -11.4468,-11.25 0,-3.30816 2.5616,-2.01512 13.0543,6.58966 5.6664,4.64682 10.6722,8.22026 11.1241,7.94099 0.4519,-0.27928 0.8258,-1.26872 0.831,-2.19876 0.016,-2.94743 5.6019,-11.57799 10.2895,-15.89885 5.0988,-4.69986 11.5243,-8.17805 19.8914,-10.7674 l 5.6903,-1.76097 -5.1834,-2.63188 c -4.6095,-2.34045 -10.6836,-8.59095 -11.9027,-12.24848 -0.2977,-0.89287 -6.1302,0.20262 -21.3456,4.00917 -21.8534,5.46726 -32.3915,9.56406 -35.0541,13.62765 -2.4327,3.71278 -2.7984,9.57966 -0.9857,15.815 1.5453,5.31565 2.3459,6.24699 14.737,17.1429 7.2066,6.33704 13.5114,11.52188 14.0105,11.52188 0.4992,0 2.4682,-0.65204 4.3755,-1.44897 z m 233.98958,-5.65425 c 11.7023,-3.03171 18.1504,-3.39524 24.9783,-1.40822 4.087,1.18938 24.0639,-26.77769 32.9954,-46.19261 5.4962,-11.94736 5.5994,-12.33647 4.903,-18.5 -0.4133,-3.65866 -1.5124,-7.38043 -2.6238,-8.8849 -2.3236,-3.14538 -3.8748,-9.50956 -3.147,-12.91105 0.8931,-4.17364 2.5641,-8 3.4937,-8 1.1067,0 1.0839,2.41001 -0.07,7.383 -0.5805,2.50251 -0.5275,4.81338 0.1493,6.5 0.9748,2.4292 1.1838,2.08838 2.912,-4.74912 l 1.8617,-7.36612 -2.6782,-2.13388 c -3.4395,-2.7403904 -5.6649,-3.4116004 -11.7175,-3.5342004 -4.9935,-0.10114 -8.5787,-2.0882 -8.5787,-4.75467 0,-1.78317 1.4538,-1.70806 3,0.15499 1.5925,1.91883 8.374,1.95926 9.9508,0.0593 0.9773,-1.17765 0.4594,-1.974 -2.8368,-4.36181003 -8.8296,-6.39605957 -13.3152,-6.50269957 -13.9285,-0.33114 -0.3479,3.50036003 2.7407,9.42941003 10.3234,19.81759043 2.9069,3.98243 4.1196,6.42759 3.4065,6.86832 -0.609,0.37641 -1.8242,-0.0325 -2.7004,-0.90874 -1.4575,-1.45748 -1.8304,-1.09875 -4.3802,4.21373 -4.267,8.89049 -9.7539,14.33653 -22.2651,22.09952 -11.6497,7.22835 -18.0386,13.07885 -19.1595,17.54483 -0.4607,1.83566 0.094,3.6613 1.9747,6.50377 1.4383,2.17346 2.6151,4.36324 2.6151,4.86619 0,1.34487 -2.7364,2.16291 -4.75,1.41999 -2.344,-0.86482 -2.9551,-1.89101 -4.7377,-7.955 -2.4647,-8.38465 -8.4627,-12.36298 -26.11,-17.31825 -5.912,-1.66007 -11.0086,-3.018 -11.3257,-3.01761 -0.3171,3.8e-4 -0.6089,2.22272 -0.6483,4.93853 -0.067,4.59978 0.1563,5.06065 3.2595,6.73182 3.806,2.0497 13.545,14.56527 15.4645,19.87346 1.2459,3.44547 1.4129,3.53821 5.317,2.95281 8.7015,-1.30472 9.5307,-1.61591 9.5307,-3.57677 0,-1.05629 0.675,-1.92054 1.5,-1.92054 2.3613,0 1.8797,5.56833 -0.6886,7.96104 -1.6819,1.56698 -3.5338,2.03896 -8,2.03896 l -5.8114,0 0,8.91667 c 0,11.76076 0.028,11.77129 18.5217,6.98011 z m 17.5615,-6.29657 c -0.9932,-1.19666 -0.7643,-1.76305 1.2441,-3.07901 1.3536,-0.88694 4.0838,-1.87592 6.0669,-2.19775 5.1975,-0.84344 4.7822,1.86657 -0.6442,4.20341 -2.3375,1.00664 -4.52,1.98989 -4.8499,2.185 -0.33,0.19511 -1.1476,-0.30513 -1.8169,-1.11165 z m 5.5053,-14.45699 c -0.3463,-0.56035 1.3591,-2.38715 3.7899,-4.05955 5.5013,-3.78499 9.9365,-9.32479 14.8017,-18.48817 2.9535,-5.56286 3.773,-6.53052 3.7936,-4.47986 0.041,4.03998 -6.6018,16.35377 -11.7989,21.87283 -4.5796,4.86334 -9.3352,7.17899 -10.5863,5.15475 z m -374.07108,16.25922 c -3.5982,-6.68136 -9.4858,-9.97522 -13.3995,-7.49645 -1.0775,0.68244 -0.8879,1.03224 0.8605,1.58716 2.8933,0.9183 10.0216,7.34829 10.0216,9.03988 0,1.65481 2.1991,2.49453 3.4678,1.32416 0.6146,-0.56692 0.2676,-2.193 -0.9504,-4.45475 z m 174.3146,-48.92324 c 12.5083,-11.02412 21.6495,-15.76284 33.7883,-17.51568 4.8838,-0.70523 8.9891,-1.3574 9.1228,-1.44927 0.1336,-0.0919 -0.6056,-2.83265 -1.6429,-6.09064 -1.0373,-3.25799 -2.4311,-8.62361 -3.0974,-11.92361 -1.05,-5.20031 -1.8973,-6.66731 -6.3571,-11.0068004 -5.4323,-5.28564 -14.0523,-9.36168 -24.4466,-11.55978 -10.9707,-2.3199696 -26.1897,2.55742 -32.6748,10.47157 -5.6442,6.8881004 -6.925,11.4638504 -6.8841,24.5950104 0.039,12.61532 2.1834,21.00548 6.5931,25.80009 2.5061,2.72491 11.2318,7.17485 14.0987,7.19014 1.0076,0.005 6.1826,-3.82459 11.5,-8.51103 z m -6.832,-15.14226 c 0,-0.91469 2.4124,-5.75219 5.361,-10.75 2.9485,-4.99782 6.661,-11.5268 8.25,-14.50885 3.2935,-6.1810804 7.3449,-9.6927404 10.0048,-8.6720404 1.5224,0.58422 1.3427,0.94099 -1.2767,2.53394 -3.869,2.3528504 -6.6151,6.8058204 -9.3645,15.1848004 -1.2944,3.94478 -3.9598,8.90043 -6.5888,12.25 -4.5135,5.7506 -6.3858,6.91232 -6.3858,3.96215 z m 282.34218,16.71736 c 21.5696,-7.42106 40.8774,-34.37575 40.91,-57.11263043 0.013,-9.09389957 -2.2418,-14.96937957 -7.5253,-19.60827957 -7.2611,-6.375273 -18.5877,-6.224803 -31.152,0.41384 -8.1505,4.30648 -21.3767,18.3016496 -26.3264,27.8568196 -11.0598,21.3509204 -9.5566,41.1014404 3.6588,48.0714704 5.5222,2.91249 12.6846,3.04526 20.4349,0.37878 z m -25.4613,-9.8043 c -1.5315,-3.93752 -0.5053,-15.75005 1.9692,-22.66832 5.5633,-15.5538704 20.8111,-34.45304 33.0827,-41.0049 6.4634,-3.45087 20.0671,-5.06087 20.0671,-2.37495 0,1.11562 -1.3708,1.46688 -5.75,1.47343 -8.6181,0.0129 -15.8905,3.88633 -25.8215,13.7532496 -8.9734,8.91546 -15.3368,18.8598504 -19.2347,30.0589304 -2.0758,5.96381 -2.3641,8.24638 -1.9279,15.26256 0.5221,8.3984 -0.4161,10.56198 -2.3849,5.5 z M 1096.2429,9.3190296 c 2.2,-0.57046 5.632,-1.73628 7.6268,-2.59072 3.5677,-1.52825 3.6246,-1.6428 3.5,-7.04245003 -0.1057,-4.57375997 0.2483,-5.79321957 2.1232,-7.31399957 1.2976,-1.05252 2.25,-2.93535 2.25,-4.44802 0,-4.4248 4.9428,-12.68443 11.5367,-19.278333 6.6557,-6.6557 8.5434,-7.32233 13.4904,-4.76412 2.8605,1.47921 2.9455,1.45048 3.7003,-1.25 0.4249,-1.52021 0.7726,-7.03901 0.7726,-12.26401 0,-8.56178 -0.2715,-9.96178 -2.7487,-14.1758 -3.9656,-6.74602 -11.4175,-10.3136 -19.9303,-9.54169 -29.4551,2.6709 -58.4185,47.580603 -46.4554,72.0323326 4.5875,9.37658 13.6282,13.3610704 24.1344,10.63681 z m -20.5553,-10.13697003 c -6.6703,-24.65750957 29.9155,-71.17739257 52.1391,-66.29627257 4.6523,1.02181 3.3928,2.20611 -2.8338,2.66462 -9.3614,0.68935 -16.3868,4.60518 -26.1974,14.60203 -13.2698,13.52173 -21.8357,31.674783 -20.8098,44.100553 0.2549,3.0879096 0.6421,6.23313957 0.8604,6.9893896 0.2182,0.75625 -0.1405,1.57286 -0.7972,1.81468 -0.7158,0.26357 -1.6616,-1.28855 -2.3613,-3.87500003 z m 67.0973,5.25784003 c 1.7377,-3.26011 5.5777,-8.8594 8.5335,-12.4428596 l 5.3742,-6.51539 -5.9989,-3.64416 c -4.1181,-2.50159 -6.6143,-4.8503 -7.9615,-7.49106 -2.3597,-4.625453 -5.4634,-6.979053 -9.2033,-6.979053 -2.0514,0 -4.4176,1.6197 -9.1305,6.250003 -6.9843,6.86191 -10.0799,11.83752 -9.1627,14.72736 0.3277,1.03258 2.1767,2.81009 4.1087,3.95003 4.1511,2.44921 4.3985,2.48897 4.3985,0.70697 0,-2.8707 7.2397,-15.66885 9.9589,-17.6051 3.0397,-2.164453 6.0411,-2.675823 6.0411,-1.02926 0,0.55 -0.4395,1 -0.9767,1 -1.8664,0 -8.8589,9.98899 -10.544,15.06224 l -1.695,5.1031996 2.6079,2.722 c 1.4343,1.49709997 2.6185,3.59737 2.6315,4.66728 0.013,1.0699 1.0619,-0.57826 2.3306,-3.66259003 3.9388,-9.57484957 8.834,-16.89212957 11.3007,-16.89212957 2.1771,0 1.6019,1.63338 -3.086,8.76199 -5.6818,8.64020957 -7.4086,14.6527396 -4.9793,17.3371696 0.9462,1.04546 1.8491,1.9008404 2.0067,1.9008404 0.1575,0 1.708,-2.6673704 3.4456,-5.9274804 z"
       id="path3078"
       inkscape:connector-curvature="0" />
  </g>
</svg>
