<?xml version="1.0" encoding="UTF-8" standalone="no"?>
<!-- Created with Inkscape (http://www.inkscape.org/) -->

<svg
   xmlns:dc="http://purl.org/dc/elements/1.1/"
   xmlns:cc="http://creativecommons.org/ns#"
   xmlns:rdf="http://www.w3.org/1999/02/22-rdf-syntax-ns#"
   xmlns:svg="http://www.w3.org/2000/svg"
   xmlns="http://www.w3.org/2000/svg"
   xmlns:sodipodi="http://sodipodi.sourceforge.net/DTD/sodipodi-0.dtd"
   xmlns:inkscape="http://www.inkscape.org/namespaces/inkscape"
   width="899.66461"
   height="690.84705"
   id="svg2"
   version="1.1"
   inkscape:version="0.48.3.1 r9886"
   sodipodi:docname="Dumbbell-decline-flys-1.svg">
  <defs
     id="defs4" />
  <sodipodi:namedview
     id="base"
     pagecolor="#ffffff"
     bordercolor="#666666"
     borderopacity="1.0"
     inkscape:pageopacity="0.0"
     inkscape:pageshadow="2"
     inkscape:zoom="0.7"
     inkscape:cx="-157.61457"
     inkscape:cy="252.79302"
     inkscape:document-units="px"
     inkscape:current-layer="layer1"
     showgrid="false"
     fit-margin-top="0"
     fit-margin-left="0"
     fit-margin-right="0"
     fit-margin-bottom="0"
     inkscape:window-width="1378"
     inkscape:window-height="738"
     inkscape:window-x="59"
     inkscape:window-y="46"
     inkscape:window-maximized="0" />
  <metadata
     id="metadata7">
    <rdf:RDF>
      <cc:Work
         rdf:about="">
        <dc:format>image/svg+xml</dc:format>
        <dc:type
           rdf:resource="http://purl.org/dc/dcmitype/StillImage" />
        <dc:title></dc:title>
      </cc:Work>
    </rdf:RDF>
  </metadata>
  <g
     inkscape:label="Ebene 1"
     inkscape:groupmode="layer"
     id="layer1"
     transform="translate(-1438.9225,-439.99132)">
    <path
       style="fill:#000000"
       d="m 1754.7265,1081.3262 -144.3606,-49.4652 -37.4837,18.2166 -37.4836,18.2166 -16.0069,-5.4545 c -13.1535,-4.4822 -16.1671,-5.8672 -16.9058,-7.7696 -0.4943,-1.2733 -0.8988,-11.0103 -0.8988,-21.6378 l 0,-19.3228 30,-13.3239 30,-13.32396 0,-13.1798 0,-13.1798 -2.75,-0.6792 c -5.0719,-1.2527 -12.512,-6.8879 -16.8195,-12.7392 -6.5294,-8.8696 -7.9412,-14.0348 -7.8715,-28.7984 0.051,-10.78004 0.417,-13.53201 2.6608,-20.00002 1.431,-4.125 2.4555,-7.64896 2.2766,-7.83102 -0.1788,-0.18206 -1.3131,0.1977 -2.5205,0.84391 -3.0536,1.63423 -14.388,1.61383 -20.9759,-0.0378 -3.9182,-0.98228 -7.1144,-2.75319 -11.1133,-6.15744 -6.8724,-5.85061 -19.9971,-12.26476 -29.3867,-14.36159 -13.5991,-3.03684 -17.5446,-4.5769 -23.73,-9.26261 -3.4076,-2.58142 -7.5551,-6.63437 -9.2166,-9.00656 -2.6701,-3.81216 -3.0399,-5.20577 -3.1836,-12 -0.1477,-6.98286 0.088,-8.00752 2.5715,-11.18694 3.5786,-4.58113 5.0587,-7.43675 5.0587,-9.75994 0,-1.04029 1.0415,-2.86987 2.3144,-4.06575 2.7948,-2.62557 10.8724,-2.99636 15.2947,-0.70208 5.9375,3.08044 10.5584,2.95186 20.0339,-0.55745 4.8713,-1.80412 9.504,-3.86112 10.2948,-4.5711 1.06,-0.95159 1.6998,-5.7744 2.4344,-18.34993 l 0.9965,-17.05906 -3.817,-14.71734 c -7.1597,-27.60545 -7.7195,-30.86437 -8.2829,-48.21735 -0.5341,-16.44764 0.1985,-25.99962 3.3677,-43.91066 1.0885,-6.15189 1.3006,-11.4566 0.7897,-19.75242 -0.6945,-11.27914 -0.6814,-11.37632 2.3825,-17.59993 3.2298,-6.56064 10.5966,-14.78925 15.6913,-17.52694 2.2443,-1.20602 5.5188,-1.58014 13,-1.48528 5.5,0.0697 17.875,0.17044 27.5,0.22379 19.9371,0.1105 24.7069,1.07393 42.7568,8.63616 5.8109,2.43456 10.6568,4.31145 10.7686,4.17087 0.1118,-0.14057 1.1678,-3.19341 2.3467,-6.78409 1.6771,-5.10781 2.0065,-7.83914 1.514,-12.55131 -0.7607,-7.27818 1.3396,-12.19856 8.0875,-18.94651 6.9696,-6.96959 11.4459,-8.78609 22.8801,-9.28482 13.1071,-0.57172 23.4711,1.12927 32.1463,5.27603 3.85,1.8403 10.9981,4.29453 15.8848,5.45383 15.3585,3.64362 19.0769,6.05596 38.6152,25.05168 9.625,9.35774 18.3003,17.01756 19.2785,17.02183 3.0488,0.0133 12.845,5.52172 22.0618,12.40532 7.9853,5.96378 9.2988,6.60245 13.5786,6.60245 5.6854,0 11.8805,3.69313 18.1578,10.82448 5.9636,6.77499 11.5048,10.33653 25.2058,16.20065 6.7196,2.87603 14.7449,6.49809 17.834,8.04902 5.8558,2.94001 10.8675,7.88141 10.9057,10.75258 0.045,3.42809 7.523,9.90754 13.897,12.04214 1.8806,0.62979 14.0306,1.83565 27,2.67969 22.3109,1.45199 43.3195,4.17446 51.0808,6.61949 5.3171,1.67506 10.5861,4.53107 14.2222,7.70908 2.2105,1.93201 7.6624,4.28734 16.7434,7.23346 7.8711,2.55358 15.7651,5.85479 19.0002,7.94571 4.5867,2.96452 17.3603,15.95853 26.6444,27.10411 1.9232,2.30878 2.987,2.58366 12,3.10077 5.4394,0.31208 10.9782,0.98148 12.3084,1.48758 1.5665,0.59597 5.2659,0.46261 10.5,-0.37853 20.1259,-3.23429 53.5553,-4.15122 66.0814,-1.81254 2.8835,0.53837 3.1484,0.26848 6.8233,-6.95063 4.9305,-9.68584 17.0926,-21.48393 36.8909,-35.78664 16.1757,-11.68574 25.4672,-20.38735 31.7851,-29.76704 3.8475,-5.71212 8.0007,-14.50942 8.0007,-16.94714 0,-0.47977 -1.9125,-0.19 -4.25,0.64393 -6.6717,2.3802 -18.6088,2.79465 -24.3767,0.84634 -9.9935,-3.3757 -18.3067,-11.81078 -22.67,-23.00244 -2.7778,-7.12473 -3.4181,-23.59504 -1.3047,-33.55889 4.2726,-20.14359 19.1919,-40.30489 35.8967,-48.50921 12.7049,-6.23981 24.1046,-6.91551 34.2047,-2.02741 11.1339,5.38844 17.1142,14.68733 18.159,28.23563 0.4644,6.02245 1.0364,8.21905 2.3548,9.04238 2.3719,1.48124 12.3278,1.60542 18.8021,0.23451 4.7565,-1.00717 5.7805,-0.90077 9.7297,1.01099 l 4.4137,2.13664 7.0077,-3.50585 c 30.0519,-15.03435 57.033,2.67699 57.033,37.43852 0,36.6637 -30.7223,71.37154 -60.698,68.57236 -11.7427,-1.09654 -22.7973,-9.18785 -28.2208,-20.65594 l -2.8049,-5.93093 -5.0519,10.71157 c -2.7785,5.89136 -8.2855,19.71156 -12.2377,30.71156 -7.199,20.03702 -17.6314,43.21487 -24.6554,54.77761 -2.0613,3.39328 -8.6505,11.28973 -14.6428,17.54766 -8.8262,9.21751 -11.532,12.77594 -14.2498,18.73973 -2.5227,5.53574 -4.3866,8.10912 -7.5148,10.37517 -5.0675,3.67084 -6.2134,3.86322 -26.9239,4.51992 -13.7214,0.43508 -17.8105,0.93423 -24.2822,2.96406 -9.2349,2.89653 -21.5782,5.02686 -25.1593,4.34228 -3.0032,-0.57408 -3.0707,-0.2366 -0.963,4.80784 0.8844,2.11669 1.8871,8.45347 2.25,14.21827 l 0.6545,10.39975 3.8627,1.32478 c 4.739,1.62528 9.1395,5.68195 11.914,10.98293 2.2135,4.22931 3.6365,19.72538 2.3002,25.0495 -0.9489,3.78073 -8.8297,11.80022 -16.8094,17.10502 -9.6083,6.3876 -126.0039,63.2028 -132.2071,64.5332 -4.9044,1.0518 -20.6809,0.5725 -25.3104,-0.769 l -2.25,-0.652 -0.088,51.86671 c -0.048,28.5266 -0.3857,54.0948 -0.75,56.8182 l -0.6624,4.9517 -16.3275,12.7983 c -8.9801,7.0391 -16.8551,12.7773 -17.5,12.7515 -0.6449,-0.026 -66.1348,-22.3063 -145.5331,-49.5121 z m 160.3162,32.309 14.3008,-11.25 0.6131,-5 c 0.3372,-2.75 0.617,-28.0202 0.6218,-56.156 l 0.01,-51.15596 -4.25,-1.4558 c -2.3375,-0.8007 -13.4501,-7.1304 -24.6946,-14.0661 -11.2445,-6.9357 -20.5712,-12.4836 -20.7261,-12.3288 -0.1548,0.1548 0.1659,25.5971 0.7127,56.53826 0.5468,30.9412 0.7345,56.6769 0.4171,57.1905 -1.1271,1.8237 -4.3141,0.9744 -4.6396,-1.2364 -0.3504,-2.38 2.5189,-1.4332 -143.5146,-47.3583 -61.796,-19.4338 -65.6618,-20.5182 -74.1477,-20.7995 -7.7198,-0.2558 -9.8547,-0.7407 -15.5023,-3.521 -11.1036,-5.46626 -18.6809,-16.26376 -20.9887,-29.90876 l -1.1662,-6.8951 -5,2.3136 c -2.75,1.2725 -6.0125,2.3194 -7.25,2.3265 -2.199,0.013 -2.25,-0.2389 -2.25,-11.0853 l 0,-11.0982 -3.25,2.1767 c -10.5778,7.0844 -28.5081,13.0637 -35.2881,11.7676 l -2.4622,-0.4706 0,13.2796 c 0,7.3037 -0.2306,13.8788 -0.5125,14.6113 -0.2818,0.7325 -13.772,7.1818 -29.9783,14.33176 l -29.4658,13 -0.022,17.1275 c -0.016,12.5339 0.3135,17.3908 1.2283,18.1089 0.6875,0.5398 7.1,3.0186 14.25,5.5085 l 13,4.5272 36.8821,-17.886 c 20.2852,-9.8374 37.6102,-17.8837 38.5,-17.8808 0.8898,0 65.7429,22.0073 144.1179,48.8987 78.375,26.8914 143.3223,48.939 144.3273,48.9947 1.0051,0.056 8.2628,-4.9612 16.1283,-11.1487 z m -37.9912,-73 c -0.2831,-14.4375 -0.781,-39.0083 -1.1064,-54.60166 l -0.5916,-28.3516 -2.9661,0.5932 c -5.6837,1.1368 -27.2909,12.2456 -32.3003,16.6065 -14.4092,12.5437 -27.375,18.225 -41,17.9652 -6.0572,-0.1155 -9.4572,0.3836 -14,2.0551 -17.0839,6.28576 -42.1642,6.46886 -62.3115,0.4548 -2.9213,-0.872 -9.0769,-2.4084 -13.6792,-3.4141 l -8.3677,-1.8286 -5.3184,3.9962 c -2.9251,2.1979 -8.0195,5.3659 -11.3208,7.03996 -3.7835,1.9186 -5.4479,3.2333 -4.5024,3.5564 5.6472,1.9295 196.6523,62.1007 197.2396,62.1352 0.4068,0.024 0.508,-11.7691 0.2248,-26.2066 z m -207.3424,-41.18836 c 20.5415,-4.354 40.622,-23.9174 47.7923,-46.5616 8.7738,-27.7077 0.1437,-50.3634 -21.1901,-55.62802 -24.4186,-6.0259 -54.9378,17.33317 -64.8402,49.62802 -3.1926,10.4121 -3.2255,25.1088 -0.074,33.0793 3.9013,9.8671 11.5938,16.9839 21.1406,19.5587 6.0108,1.62106 9.2306,1.60676 17.1714,-0.076 z m -27.0499,-10.2664 c -10.0715,-15.2052 -7.6205,-33.1791 7.6668,-56.2229 7.8939,-11.8991 19.0509,-22.85894 27.5093,-27.02301 7.5533,-3.71846 18.6416,-5.24901 22.6163,-3.12181 3.5323,1.89041 1.5232,3.00557 -5.2081,2.89086 -15.3095,-0.26088 -27.6908,8.48983 -42.5023,30.03926 -13.2478,19.2745 -15.8738,36.9222 -7.5507,50.7441 3.7544,6.2349 4.0675,7.3983 1.9908,7.3983 -0.7732,0 -2.8081,-2.1172 -4.5221,-4.7048 z m 121.9279,4.6756 c 9.1279,-1.424 19.9616,-4.7955 22.9413,-7.1393 2.266,-1.7825 3.4505,-1.9138 11.688,-1.2962 6.1628,0.462 10.4286,0.294 13.0185,-0.5128 2.1187,-0.66 9.3996,-4.8726 16.1798,-9.3613 10.9738,-7.265 12.0191,-8.1984 9.5181,-8.5 -4.5842,-0.5528 -9.9444,1.6209 -14.5213,5.8888 -7.0637,6.5868 -10.7395,3.7767 -3.8305,-2.9282 6.1968,-6.0138 12.0617,-8.4506 22.0061,-9.1435 7.1233,-0.4962 9.7863,-1.2177 16.4423,-4.4546 l 7.9423,-3.8624 -3.8372,-1.3285 c -4.2543,-1.4728 -6.5474,-3.07 -6.5474,-4.5603 0,-1.0144 1.9425,-0.8567 15,1.2171 17.9201,2.8461 37.822,-3.3021 48.3264,-14.9292 3.3919,-3.7544 7.6736,-13.2947 7.6736,-17.09793 0,-1.36397 -0.6862,-1.96716 -2.25,-1.9778 -1.2375,-0.008 -2.8978,-0.42517 -3.6895,-0.9261 -1.0111,-0.6398 -2.7296,0.0158 -5.7758,2.20337 -3.4082,2.44761 -5.636,3.20816 -10.4084,3.55336 -5.5195,0.3993 -6.0398,0.2684 -5.7183,-1.43805 0.1945,-1.0325 1.4513,-2.32727 2.7928,-2.87727 9.9813,-4.09211 12.5574,-6.0173 15.0492,-11.24644 1.5506,-3.2542 3.1389,-5.2478 4.1826,-5.25 2.0598,-0.004 3.1164,2.95697 2.2651,6.3487 -0.5708,2.27422 -0.2775,2.58905 2.9816,3.20046 1.9881,0.37297 7.9942,0.50222 13.347,0.28723 12.9228,-0.51905 17.9798,-2.92259 23.7897,-11.30701 5.7369,-8.27911 12.3161,-10.58083 19.9243,-6.97051 3.025,1.43548 6.0554,6.44092 8.7692,14.48451 0.287,0.85081 3.2195,4.94168 6.5167,9.09083 10.2341,12.87845 21.5745,18.87405 35.6553,18.85035 18.7881,-0.032 36.6809,-10.9762 45.3618,-27.74689 10.0001,-19.31921 11.5583,-36.38674 5.0782,-55.62263 -2.7841,-8.26438 -4.5839,-10.59508 -22.0039,-28.49435 -17.5675,-18.05069 -21.2629,-20.54648 -30.3676,-20.50951 -9.5193,0.0386 -14.1471,1.84442 -19.9186,7.77215 -5.955,6.11627 -14.3055,20.73425 -18.6595,32.66434 -3.2819,8.99263 -3.3267,13.14054 -0.1685,15.58533 1.6195,1.25363 1.5027,1.57627 -1.6053,4.43461 -4.0959,3.76694 -5.5266,8.51137 -4.6113,15.29205 1.1905,8.81887 4.8028,13.63678 10.2244,13.63678 2.8831,0 3.5905,-0.47146 4.5596,-3.0389 0.8294,-2.19752 1.7052,-2.95863 3.1631,-2.74898 2.7314,0.39277 2.3771,5.24246 -0.6157,8.42816 -1.6812,1.78956 -3.2852,2.35972 -6.6382,2.35972 -6.0054,0 -9.8081,-2.51226 -12.7555,-8.42702 -3.2572,-6.53632 -3.5731,-20.25925 -0.5793,-25.16876 1.6154,-2.64908 1.7484,-3.86294 0.9215,-8.41234 -1.1863,-6.52708 0.5539,-11.97667 9.1616,-28.69035 l 5.7674,-11.19847 -2.8038,-0.61581 c -3.545,-0.77861 -5.1865,-2.73464 -4.7687,-5.68221 0.3857,-2.72087 4.8268,-3.98562 4.8268,-1.37459 0,2.90837 6.4948,1.93967 11.2668,-1.68045 2.3562,-1.7875 5.3976,-4.01988 6.7586,-4.96085 l 2.4746,-1.71085 -3.5,0.55667 c -1.925,0.30617 -7.7026,1.63855 -12.8392,2.96085 -14.3115,3.68423 -19.1608,3.1032 -19.1608,-2.29582 0,-2.66609 2.3691,-3.07376 4.6437,-0.7991 1.6599,1.65986 2.6072,1.52451 14.3563,-2.05115 11.4651,-3.48925 16.1233,-3.73704 29.2789,-1.55744 8.5347,1.41403 13.0791,2.70995 16.5,4.70525 4.8986,2.85728 16.0621,13.59227 27.2468,26.20099 l 6.4743,7.29854 7.75,-4.1088 7.75,-4.1088 0,2.60982 c 0,1.64415 -1.3316,3.97904 -3.5989,6.31026 l -3.5988,3.70043 8.0489,0.28963 c 7.2842,0.26212 8.6194,0.002 14.0554,-2.74252 9.4327,-4.76159 20.2943,-8.04711 26.603,-8.04711 7.2009,0 6.9456,1.80158 -0.585,4.12805 l -5.4246,1.67587 10.5,0.29861 c 21.1996,0.60288 23.5808,-0.30887 26.2054,-10.0338 1.5953,-5.91067 2.3711,-6.97644 12,-16.4851 16.0622,-15.8614 28.3307,-33.96503 35.2807,-52.06061 1.906,-4.96266 5.5327,-15.77302 8.0593,-24.02302 4.3972,-14.35777 12.3079,-32.66475 18.3775,-42.52913 2.6,-4.2256 2.8877,-5.63603 3.274,-16.05177 0.3416,-9.21309 0.9499,-12.86799 3.1485,-18.9191 1.4988,-4.125 2.8217,-7.95 2.9398,-8.5 0.1248,-0.581 -3.5978,-1.21236 -8.8845,-1.50682 -8.0863,-0.4504 -9.6891,-0.87347 -14.3975,-3.80039 -2.914,-1.81146 -5.9069,-3.06001 -6.6507,-2.77456 -0.7692,0.29515 -1.3525,1.98327 -1.3525,3.91402 0,4.38992 3.5903,8.03881 10.0069,10.17004 6.3178,2.09843 8.1162,4.12021 4.7899,5.38486 -5.1738,1.96709 -12.7255,13.33882 -12.7749,19.23712 -0.012,1.44335 0.6091,4.41289 1.3804,6.59898 1.5153,4.2946 0.7388,6.92863 -1.7597,5.96986 -2.2737,-0.87251 -4.9914,-11.11026 -4.2238,-15.91104 0.6673,-4.17266 3.7988,-11.12557 6.2874,-13.95998 1.3264,-1.51066 1.1712,-1.83411 -1.5569,-3.24488 -1.6666,-0.86183 -3.829,-2.91927 -4.8054,-4.57209 -0.9763,-1.65282 -2.0936,-3.00512 -2.4828,-3.00512 -0.3892,0 -2.0302,-1.11287 -3.6467,-2.47305 l -2.9391,-2.47305 -2.2862,7.70116 c -3.6212,12.198 -3.696,15.47377 -0.5161,22.58605 1.5145,3.38739 3.6027,8.08343 4.6403,10.43564 3.3434,7.57904 1.5444,18.22325 -3.08,18.22325 -2.8133,0 -3.3123,-1.55984 -1.5742,-4.92097 0.8475,-1.63884 1.5409,-3.54041 1.5409,-4.22571 0,-0.68531 -1.1137,0.97985 -2.475,3.70034 -5.7401,11.47197 -22.1159,27.58446 -40.8297,40.17313 -12.4432,8.37043 -25.9069,22.34132 -31.1551,32.32862 -4.8328,9.19681 -3.9544,10.46618 4.4598,6.44459 11.7797,-5.6302 8.5659,0.61665 -4.9215,9.56617 -5.501,3.65017 -7.3329,3.79537 -6.5098,0.516 0.7456,-2.97078 -0.2886,-3.56892 -11.0687,-6.4016 -17.4152,-4.57617 -24.3808,-4.72294 -49.8627,-1.05066 l -7.8626,1.13312 7.1126,3.94485 c 7.3863,4.09664 8.0045,4.80712 5.7848,6.64924 -1.7582,1.45917 -4.6795,0.51926 -18.1122,-5.82741 -10.9497,-5.17354 -18.0038,-6.88808 -23.0886,-5.61188 -2.5733,0.64587 -2.6181,0.7625 -0.9856,2.56638 0.9406,1.03937 1.4407,2.32587 1.1112,2.8589 -1.2403,2.00698 -4.8905,-0.31503 -10.4019,-6.61709 -22.3944,-25.60692 -26.2686,-29.29652 -35.695,-33.99435 -12.6744,-6.31647 -37.0585,-8.79345 -45,-4.57116 -2.2,1.16967 -4.8573,3.07456 -5.905,4.23308 -2.8993,3.20588 -4.7807,2.71783 -4.4084,-1.14359 0.2765,-2.86731 1.0651,-3.64748 6.6973,-6.62554 3.5112,-1.85655 8.6862,-3.66827 11.5,-4.02605 l 5.1161,-0.65051 -5.6882,-2.72401 c -7.185,-3.44077 -15.3407,-5.32119 -29.41,-6.78084 -9.7799,-1.01463 -11.4726,-0.9578 -14.25,0.47845 -3.7773,1.95328 -3.9635,3.90628 -1.1518,12.0785 1.1,3.19721 2,7.11058 2,8.69639 0,3.44273 -3.145,9.92912 -6.1895,12.76545 -2.0751,1.93331 -6.8105,2.85285 -6.8105,1.32251 0,-0.39361 2.0975,-2.84518 4.6611,-5.44794 l 4.6611,-4.73229 -2.1643,-7.30206 c -2.533,-8.54614 -2.6732,-11.63307 -0.7386,-16.26322 l 1.4193,-3.39693 -6.5221,-0.69846 c -4.0291,-0.43148 -7.9605,-0.26748 -10.2853,0.42905 -5.3428,1.60075 -6.3483,1.44796 -5.7415,-0.8725 0.392,-1.499 0.031,-2 -1.4424,-2 -1.0809,0 -1.6875,0.44964 -1.3478,0.9992 0.3396,0.54956 -0.9869,1.94579 -2.9478,3.10275 -3.4178,2.01659 -4.1532,3.38622 -4.7718,8.88783 -0.3277,2.91487 -3.7116,4.16381 -3.583,1.32248 0.045,-0.99674 -0.2362,-2.97646 -0.625,-4.39938 -0.59,-2.15913 -0.1111,-3.11036 2.8953,-5.75 1.9813,-1.73958 4.2617,-3.16288 5.0676,-3.16288 0.8058,0 1.4652,-0.45 1.4652,-1 0,-0.55 -1.1082,-1 -2.4625,-1 -5.4868,0 -13.9612,-4.25653 -19.2409,-9.66426 -6.0091,-6.15492 -6.8749,-6.30058 -23.2966,-3.91925 -13.5676,1.96745 -37.6148,11.27217 -49.7067,19.23336 -5.8338,3.84089 -25.2933,21.92163 -25.2933,23.5012 0,0.46692 2.5875,0.85883 5.75,0.87091 7.2439,0.0277 14.25,2.95819 14.25,5.96053 0,3.01003 -1.9742,3.32494 -6.4711,1.03226 -2.7997,-1.42738 -5.9097,-2.01475 -10.6677,-2.01475 l -6.7159,0 -3.2951,8.25 c -3.0935,7.74494 -3.2937,8.98463 -3.2709,20.25 0.03,14.6094 1.1106,17.49387 9.6337,25.70528 4.4137,4.2522 6.7612,5.79472 8.8191,5.79472 1.5423,0 3.6274,0.31585 4.6334,0.70188 1.7552,0.67356 1.7585,0.59428 0.082,-1.96481 -2.2273,-3.39929 -2.2114,-4.73707 0.057,-4.73707 2.748,0 7.3205,5.40003 14.5939,17.23526 14.837,24.14269 28.3063,39.33385 39.987,45.0986 7.7481,3.82387 27.9954,12.66614 29.0033,12.66614 0.4886,0 2.759,-1.6875 5.0455,-3.75 2.2864,-2.0625 6.2915,-5.21536 8.9001,-7.00636 8.2751,-5.68149 10.4735,-13.97592 7.7511,-29.24364 -3.1327,-17.56905 1.378,-40.66749 10.2853,-52.66816 4.6719,-6.29443 14.7254,-16.24359 18.4006,-18.20964 2.4435,-1.30714 4.2293,-0.77511 4.2293,1.25999 0,0.69529 -2.2325,3.08023 -4.9611,5.29987 -2.7286,2.21964 -6.6221,6.01172 -8.652,8.42683 -8.5942,10.22475 -14.8689,30.24095 -14.3861,45.89111 0.1442,4.675 0.3156,13.70907 0.3807,20.0757 0.1411,13.78216 0.079,13.91046 -14.3949,29.48986 -14.3829,15.48189 -16.5926,19.25721 -20.448,34.93444 -1.8259,7.42491 -2.548,9.00002 -4.1259,9.00002 -1.6315,0 -1.9023,-0.7163 -1.8422,-4.87168 l 0.071,-4.87166 -7.0705,0.64098 c -9.88,0.8957 -11.7309,1.53514 -18.2895,6.31866 -7.5847,5.5319 -22.5336,18.4747 -23.001,19.9143 -0.2019,0.6219 0.8901,1.4408 2.4265,1.8198 5.6085,1.3834 14.2936,5.8399 14.2936,7.3344 0,2.5414 -14.3696,0.8793 -24.7761,-2.8659 -16.282,-5.8596 -21.4521,-7.0599 -32.7239,-7.5972 -13.5562,-0.6462 -16.4937,0.226 -16.5148,4.9035 -0.023,5.1062 -2.6743,15.1329 -5.858,22.1545 -3.059,6.7464 -9.8168,17.2878 -12.5221,19.533 -2.5876,2.1475 -1.8743,3.0873 2.3432,3.0873 2.1717,0 7.6429,1.1671 12.1584,2.5935 10.8116,3.4154 27.5023,7.2509 31.8933,7.3291 1.925,0.034 6.425,-0.3941 10,-0.9518 z m -11.2233,-5.0539 c -5.9647,-0.8737 -15.7767,-4.58 -15.7767,-5.9595 0,-0.4379 1.6875,-0.2914 3.75,0.3255 5.4386,1.6268 26.0724,1.2013 32.5108,-0.6704 2.9315,-0.8522 7.419,-3.177 9.9724,-5.1663 4.636,-3.6119 8.2668,-4.2411 8.2668,-1.4325 0,2.1809 -11.8515,9.755 -17.8366,11.3991 -7.2173,1.9826 -14.1915,2.4848 -20.8867,1.5041 z m 150.361,-103.66692 c -0.5129,-0.9625 -1.453,-3.68828 -2.0891,-6.05729 -1.0454,-3.89323 -1.9659,-4.82937 -9.5756,-9.73849 -5.9995,-3.8703 -8.2524,-5.86561 -7.8391,-6.94272 1.905,-4.96425 15.7864,2.35127 21.4712,11.31539 3.6149,5.70002 4.1425,13.17311 0.93,13.17311 -1.0806,0 -2.3844,-0.7875 -2.8974,-1.75 z m 70.257,-6.22761 c -1.424,-0.57554 -2.3103,-2.09197 -2.739,-4.68661 -0.9992,-6.04797 -0.698,-18.97007 0.6871,-29.4685 1.0507,-7.96483 1.0352,-10.79809 -0.089,-16.3632 -1.4327,-7.08883 -1.2693,-8.10791 1.1511,-7.17912 2.3827,0.91433 3.8593,8.39033 3.1904,16.15312 -1.701,19.74159 -1.7917,31.06967 -0.2945,36.77192 1.5762,6.00288 1.5154,6.15501 -1.9056,4.77239 z m -28.797,-17.75796 c -1.265,-1.26502 -0.4414,-5.15852 3.381,-15.98391 5.9801,-16.93574 9.0486,-22.39414 14.9883,-26.66135 3.2507,-2.3354 5.853,-5.25352 7.251,-8.13096 2.8377,-5.84084 4.782,-5.88109 4.782,-0.099 0,4.87144 -0.941,6.24395 -8.201,11.96187 -6.75,5.31625 -8.3462,8.03901 -11.8726,20.25221 -1.7304,5.99318 -3.9776,12.5287 -4.9938,14.52337 -1.801,3.53554 -4.1304,5.34222 -5.3349,4.13776 z m -126.9311,-19.9311 c -0.3666,-0.36666 -0.6666,-2.39166 -0.6666,-4.5 0,-2.10833 -0.2474,-3.83333 -0.5497,-3.83333 -0.3023,0 -1.9898,0.77101 -3.75,1.71335 -5.2814,2.82748 -9.9791,4.25567 -14.0503,4.27159 -3.0562,0.012 -4.5511,-0.68598 -7.25,-3.38494 -1.87,-1.87 -3.4,-4.0951 -3.4,-4.94468 0,-1.27492 0.9605,-1.10495 5.5,0.97332 3.025,1.3849 6.2762,2.36852 7.2249,2.18582 2.873,-0.55329 4.2448,-4.87101 4.2603,-13.40947 0.012,-6.67841 0.3481,-8.3967 1.9197,-9.81895 1.7104,-1.54786 1.7621,-1.99776 0.5062,-4.40499 -1.9562,-3.74934 -1.7155,-11.93103 0.4905,-16.68105 4.0795,-8.78376 9.7177,-11.95426 22.8484,-12.84835 8.6603,-0.58969 9.25,-0.50798 9.25,1.2817 0,2.40154 -3.9651,3.73618 -13.8371,4.65749 -5.5299,0.51608 -8.0111,1.25195 -10.0739,2.98772 -4.3293,3.64283 -6.3431,12.57496 -3.9964,17.72549 1.0591,2.32439 1.2176,2.35513 5.1525,0.99947 2.8294,-0.97482 4.3772,-1.08123 5.1073,-0.35111 1.365,1.36507 0.046,2.66692 -6.0529,5.9727 -6.2054,3.36369 -7.5449,6.00361 -6.8467,13.49389 0.3035,3.25545 0.7011,6.0683 0.8836,6.25078 0.6072,0.60723 9.8228,-1.42903 10.7745,-2.3807 0.5151,-0.51511 1.3702,-3.60338 1.9002,-6.86282 1.5542,-9.55733 9.3211,-18.42626 16.1367,-18.42626 4.0105,0 3.5451,1.60584 -1.1612,4.00684 -5.4711,2.79113 -9.9866,9.1861 -9.9866,14.1432 l 0,3.84996 4.8088,0 c 5.1095,0 8.9757,1.92151 7.7751,3.86423 -0.4082,0.66049 -2.7548,1.10204 -5.4028,1.01662 -5.5112,-0.1778 -11.5777,2.12305 -13.1006,4.96875 -0.5943,1.1104 -1.0805,3.3985 -1.0805,5.08466 0,2.88305 -1.6569,4.07554 -3.3334,2.39907 z m 331.0834,-17.97882 c -3.0771,-0.88121 -1.8895,-2.12157 3.2004,-3.34263 2.7228,-0.65318 5.4779,-1.82306 6.1225,-2.59974 1.6638,-2.00479 5.1567,-1.83429 4.7504,0.23188 -0.7392,3.7584 -9.0766,7.14145 -14.0733,5.71049 z m -55.25,-21.28878 c -3.8404,-0.9339 -11.4163,-4.38949 -14,-6.38579 -1.4871,-1.14897 -1.7112,-1.83855 -0.874,-2.68868 0.8431,-0.85599 2.8741,-0.39953 8.0806,1.81599 10.0774,4.28834 12.5032,4.62743 18.8415,2.63379 5.7603,-1.81182 7.1021,-1.57802 6.0895,1.06098 -1.3738,3.58004 -10.6089,5.39457 -18.1376,3.56371 z m 64.0237,-5.02739 c -0.3269,-0.52891 1.109,-1.83273 3.191,-2.89738 6.2698,-3.20627 13.0068,-9.85733 15.6264,-15.42705 1.3487,-2.86765 5.2755,-12.97641 8.7262,-22.46391 4.2301,-11.63021 6.7514,-17.25 7.7393,-17.25 5.447,0 -9.3362,40.92791 -18.4234,51.00598 -5.4513,6.04569 -15.0062,10.03117 -16.8595,7.03236 z m -196.1842,-13.39334 c -12.8652,-10.42899 -17.5887,-13.22329 -26.3474,-15.58666 -11.5294,-3.11096 -17.8322,-5.91521 -15.9586,-7.10026 4.6246,-2.92483 18.2343,1.43382 31.2569,10.01034 7.0421,4.63786 20.8793,16.2686 21.5429,18.10776 0.9152,2.53646 -3.4553,0.27447 -10.4938,-5.43118 z m -117.9262,-10.0646 -2.0866,-2.38347 7.7941,-0.35395 c 7.4984,-0.34052 7.9437,-0.50009 11.7403,-4.20735 2.9506,-2.88124 5.4212,-4.20043 9.7925,-5.2289 6.6962,-1.57543 15.9577,-1.84457 16.7961,-0.4881 0.5836,0.94425 -1.4952,1.49877 -9.6213,2.56655 -3.1274,0.41094 -6.7343,2.0023 -10.9119,4.81433 -3.4322,2.31027 -7.405,4.98562 -8.8284,5.94523 -1.6145,1.08834 -4.4692,1.73991 -7.5881,1.73193 -4.0083,-0.0103 -5.4139,-0.48555 -7.0867,-2.39627 z m -37.4133,-11.30782 c -2.163,-1.09545 -3.6221,-2.63209 -3.8196,-4.02258 -0.3959,-2.78751 0.6673,-2.8185 5.7529,-0.16771 2.5708,1.33995 5.3447,1.96383 7.7808,1.75 3.23,-0.2835 3.7859,-0.0386 3.7859,1.66771 0,1.69699 -0.7576,2.0413 -5,2.27258 -3.2712,0.17833 -6.2102,-0.34032 -8.5,-1.5 z m 18,-8.22677 c 0,-2.36476 7.8977,-8.6448 12.0065,-9.54725 1.5923,-0.34971 5.6975,-3.1365 9.1229,-6.19287 3.4253,-3.05636 7.708,-6.17547 9.5171,-6.93136 4.4963,-1.87868 11.8806,-1.73294 17.6892,0.34911 5.3199,1.90687 18.9941,12.77814 18.3884,14.61917 -0.9238,2.80794 -4.5293,1.43179 -11.0151,-4.20435 -4.315,-3.7497 -8.3826,-6.3469 -11.1563,-7.1235 -7.7591,-2.1724 -16.5352,0.76124 -20.0433,6.69996 -0.9318,1.57736 -4.193,4.17625 -7.2472,5.77533 -3.0542,1.59908 -7.4001,4.1598 -9.6577,5.69049 -4.8815,3.30985 -7.6045,3.61969 -7.6045,0.86527 z m -31,-3.09547 c 0,-7.6618 2.909,-10.5076 14.2854,-13.97505 2.082,-0.63458 4.485,-2.22144 5.34,-3.52635 2.8005,-4.27421 11.0234,-6.46548 25.2214,-6.72112 13.0918,-0.23572 18.7272,0.53443 17.5732,2.40162 -0.4163,0.6736 -2.5644,0.83947 -5.7909,0.44716 -5.9118,-0.7188 -25.187,1.59524 -28.7324,3.4494 -1.3182,0.68936 -4.515,3.21552 -7.1039,5.61369 -2.5889,2.39817 -5.2889,4.36282 -6,4.36589 -0.7111,0.003 -2.9336,0.46132 -4.939,1.01834 -3.8059,1.05712 -5.4195,3.90942 -4.9364,8.72608 0.1814,1.80853 -0.2789,2.25 -2.3459,2.25 -2.3387,0 -2.5715,-0.36664 -2.5715,-4.04966 z m -12.6783,-6.5707 c -4.674,-4.95586 -9.8335,-15.26791 -8.3709,-16.73051 1.8353,-1.83531 4.0481,0.42789 5.9673,6.1032 2.2142,6.54799 4.4155,9.03203 8.7192,9.8394 3.5139,0.65923 4.4976,2.75878 1.7809,3.80128 -3.0747,1.17985 -4.719,0.56786 -8.0965,-3.01337 z m 27.6202,-19.24266 c -7.3314,-2.37665 -17.9419,-9.57627 -17.9419,-12.17424 0,-3.01218 2.117,-2.37694 8.439,2.53225 5.2343,4.0645 15.8067,8.50501 20.2496,8.50501 0.8129,0 1.2934,0.5625 1.0677,1.25 -0.632,1.92522 -5.6757,1.87698 -11.8144,-0.11302 z m 23.5334,-0.88698 c 0.3792,-0.9625 0.9417,-4.12671 1.2502,-7.03157 0.4472,-4.21216 1.1452,-5.77331 3.4471,-7.71021 4.6543,-3.9164 12.5476,-4.52137 13.1546,-1.00822 0.095,0.55 -1.3102,1.07416 -3.1227,1.16479 -5.36,0.26803 -7.8829,2.60833 -9.1423,8.48066 -1.2282,5.72687 -2.5262,7.85455 -4.7917,7.85455 -1.0098,0 -1.2641,-0.55964 -0.7952,-1.75 z m -3.0982,-17.94667 c -1.8881,-2.52896 -2.2075,-2.61625 -5.1349,-1.40368 -3.5606,1.47485 -5.2422,0.84653 -5.2422,-1.95867 0,-1.63628 0.7126,-1.94098 4.5398,-1.94098 5.7109,0 12.4602,3.26101 12.4602,6.02032 0,3.00086 -4.1854,2.54775 -6.6229,-0.71699 z m 134.1229,280.60179 c 4.3111,-1.168 115.3078,-55.1083 124.6371,-60.569 8.1496,-4.7703 15.5854,-10.89879 17.3398,-14.29146 1.7951,-3.47133 2.0098,-13.7514 0.4077,-19.52211 -1.1667,-4.20239 -7.6067,-11.52255 -10.1371,-11.52255 -1.0506,0 -2.1008,2.62887 -3.5746,8.94843 -3.4925,14.97527 -11.0704,27.76846 -20.6158,34.80429 -14.1402,10.4227 -26.859,14.7893 -40.7724,13.998 -7.3633,-0.4188 -9.9115,-1.0638 -16.4269,-4.1579 -10.6546,-5.0599 -19.4564,-14.1918 -25.8411,-26.81057 -5.7764,-11.41644 -7.8481,-13.78225 -12.0689,-13.78225 -2.688,0 -4.114,1.03699 -8.8608,6.4436 -7.2548,8.2634 -13.061,11.17023 -24.9744,12.5033 -4.888,0.54696 -8.9841,1.12016 -9.1025,1.27378 -0.1183,0.15363 -0.7518,2.47197 -1.4079,5.15184 -2.8845,11.7835 -11.0381,22.0423 -21.8611,27.5057 -6.3888,3.2251 -19.7554,7.1218 -24.4295,7.1218 -1.5464,0 -2.8116,0.379 -2.8116,0.8422 0,1.0392 39.6151,25.6812 44.7039,27.8075 11.3115,4.7262 27.1213,6.6057 35.7961,4.2554 z m -340.5,-27.5555 c 0,-1.1165 -7.9977,-7.3496 -9.4302,-7.3496 -0.3134,0 -0.5698,2.8863 -0.5698,6.414 l 0,6.4139 5,-2.1124 c 2.75,-1.1619 5,-2.6765 5,-3.366 z m -31.3571,-8.7397 c 5.1464,-2.488 9.3571,-4.9409 9.3571,-5.4507 0,-0.5098 -2.4874,-1.9365 -5.5276,-3.1704 -3.0402,-1.2339 -6.4687,-3.4237 -7.619,-4.8662 -1.9114,-2.397 -2.0407,-3.4829 -1.5031,-12.6226 0.9086,-15.44754 3.7715,-22.32794 10.6853,-25.67933 5.4334,-2.63379 13.601,-3.36441 17.3934,-1.55591 2.263,1.07912 3.7133,1.23506 4.9662,0.53393 0.9733,-0.5447 3.2617,-0.71045 5.0853,-0.36834 3.157,0.59225 3.4226,0.40125 5.5486,-3.99061 2.6842,-5.54474 2.3697,-12.76459 -0.9375,-21.51911 -9.198,-24.34878 -40.1198,-26.40853 -64.0363,-4.26556 -13.801,12.77762 -21.6943,27.32763 -24.1903,44.59092 -3.2644,22.57761 7.6752,40.94091 25.9935,43.63301 7.5798,1.1139 14.7226,-0.4046 24.7844,-5.2691 z m -36.4443,-3.3599 c -6.9743,-9.8991 -9.068,-22.2756 -5.7248,-33.84138 5.6622,-19.58878 24.5707,-43.87458 40.1198,-51.52936 9.1842,-4.52134 23.4064,-5.41744 23.4064,-1.47477 0,1.03565 -1.7805,1.35493 -7.3554,1.319 -6.144,-0.0396 -8.4084,0.44637 -13.75,2.95088 -12.0424,5.64639 -25.9944,21.26736 -34.4412,38.56111 -7.7924,15.95412 -8.0563,27.39892 -0.9058,39.27362 1.8988,3.1532 3.4524,6.1287 3.4524,6.612 0,1.8918 -2.964,0.7367 -4.8014,-1.8711 z m 69.793,0.5 c 1.8579,-8.1889 10.2586,-24.5381 16.4289,-31.97336 3.0687,-3.69783 5.5795,-6.91631 5.5795,-7.15217 0,-0.99309 -5.6825,-2.23265 -7.7999,-1.70145 -3.3855,0.84934 -11.5136,7.91547 -15.0422,13.07698 -1.692,2.475 -4.0629,7.1023 -5.2685,10.2829 -1.2057,3.1805 -2.6865,5.6066 -3.2908,5.3911 -3.5639,-1.2706 3.7301,-18.7353 11.0431,-26.44144 l 4.1417,-4.3644 -2.4568,-0.93409 c -4.2868,-1.62985 -8.573,-1.03535 -12.5861,1.74573 -4.776,3.30977 -7.9214,8.62802 -10.7036,18.0979 -2.7468,9.3494 -4.5157,8.7358 -3.7565,-1.3028 0.6197,-8.19329 2.5712,-12.76702 7.1013,-16.64267 2.4909,-2.13103 2.8694,-2.92308 1.8815,-3.93679 -0.9983,-1.02434 -2.2774,-0.94103 -6.6334,0.43209 -10.445,3.29251 -12.6298,7.27878 -12.6298,23.04387 0,9.4363 0.7883,10.9839 6.2002,12.1726 1.7714,0.389 4.4004,1.5795 5.8422,2.6455 2.5235,1.8657 4.6106,2.5709 8.0909,2.734 0.8984,0.042 1.8465,0.8914 2.107,1.8875 0.3574,1.3668 8.9645,8.189 10.3314,8.189 0.1258,0 0.7648,-2.3625 1.4199,-5.25 z m 165.0455,-24.25 c 7.0972,-5.50002 12.7767,-10.4219 12.621,-10.93752 -0.1557,-0.51563 -1.605,-1.3779 -3.2206,-1.91616 -1.6157,-0.53826 -28.5875,-16.95824 -59.9375,-36.48884 -31.35,-19.53059 -72.3,-44.90839 -91,-56.39509 l -34,-20.88492 -0.6759,4.31125 c -0.3717,2.37119 -0.7092,13.80542 -0.75,25.40939 l -0.074,21.09812 4.1662,1.87871 c 11.1171,5.01311 19.389,18.04537 21.3523,33.64024 0.5662,4.49781 0.7639,4.74659 4.2875,5.39591 6.33,1.16646 11.5486,3.35163 15.4209,6.45711 l 3.7269,2.98889 5.147,-2.60819 c 11.8167,-5.988 28.016,-6.81764 38.2828,-1.96063 9.6877,4.58299 19.5446,17.34018 21.1494,27.37223 1.3728,8.5818 -0.1033,7.7572 15.1973,8.4893 7.5733,0.3623 17.8197,1.512 22.7697,2.5549 4.95,1.0428 9.8174,1.8284 10.8165,1.7457 0.999,-0.083 7.6233,-4.6504 14.7206,-10.1504 z m 24.2461,-17.18968 c 2.8692,-1.47931 8.8114,-3.65855 13.2049,-4.84276 l 7.9882,-2.15311 0.7209,-4.22299 c 0.3965,-2.32265 1.6547,-5.73381 2.7959,-7.58037 l 2.075,-3.35738 -3.2841,-2.42017 c -1.8062,-1.33109 -7.334,-4.5685 -12.284,-7.19425 -4.95,-2.62575 -11.7001,-6.68879 -15.0003,-9.02898 -9.5231,-6.75311 -25.164,-23.80725 -32.4997,-35.43641 -10.4774,-16.60941 -8.8802,-15.46525 -22.6628,-16.23515 -8.2229,-0.45934 -13.6238,-1.31253 -17.6881,-2.79425 -4.9061,-1.78856 -6.4004,-1.95167 -9.2535,-1.01007 -3.9295,1.29683 -6.5377,0.84554 -18.8956,-3.26936 -12.5508,-4.17913 -21.7433,-9.00996 -30.5,-16.02833 -9.6344,-7.7218 -13.1199,-9.20303 -26.5,-11.26165 -11.9974,-1.84586 -15.8052,-3.09736 -20.7496,-6.81973 -3.2393,-2.43859 -25.6464,-11.65538 -28.3357,-11.65538 -2.703,0 -5.296,-3.9079 -6.4353,-9.69887 -1.1175,-5.68009 -1.286,-5.90211 -6.8126,-8.97505 -9.5063,-5.28571 -22.157,-15.19731 -32.5548,-25.50605 l -9.888,-9.80328 -5.612,1.38721 c -3.0866,0.76297 -6.8132,1.65866 -8.2813,1.99041 -2.6512,0.59912 -4.2981,3.98553 -6.2704,12.8931 -0.9277,4.18962 1.1684,10.46283 4.7498,14.21569 3.2553,3.41097 77.44,49.66013 143.1899,89.26911 10.45,6.29528 19.225,11.78925 19.5,12.20881 0.6897,1.05239 112.2389,70.01892 113.2513,70.01892 0.4484,0 3.1627,-1.21035 6.0319,-2.68966 z m -159.8814,-3.20182 c 1.6322,-1.80358 1.5724,-1.9907 -1.2871,-4.02679 -7.299,-5.19737 -15.9559,-6.11552 -18.196,-1.92986 -1.1565,2.16094 -0.7306,2.39117 6.1062,3.301 2.4887,0.33119 5.8637,1.45689 7.5,2.50155 3.779,2.41263 3.8317,2.41401 5.8769,0.1541 z m -117.7553,-17.17947 c 4.958,-2.40012 8.3535,-7.25579 8.3535,-11.94584 0,-1.8044 -2.475,-15.62236 -5.5,-30.70659 -4.634,-23.10749 -5.4972,-29.10677 -5.4823,-38.10124 0.028,-17.0125 1.4737,-27.40197 4.9856,-35.83796 1.7079,-4.1027 3.3476,-9.5695 3.6438,-12.14844 l 0.5384,-4.68898 -6.8779,-4.20689 c -8.3711,-5.12016 -10.5739,-7.38012 -13.383,-13.73049 -2.8004,-6.33083 -2.1155,-14.42064 1.9578,-23.1251 l 2.8677,-6.12816 6.3749,-1.25246 c 3.5062,-0.68886 6.7254,-1.46803 7.1538,-1.7315 1.4341,-0.88211 -7.6575,-10.59113 -15.0076,-16.02682 -7.441,-5.50287 -9.5642,-9.29858 -5.2014,-9.29858 4.4797,0 20.1714,13.50528 31.9302,27.48098 8.647,10.2773 22.4034,21.49194 33.2085,27.07255 l 8.7915,4.54063 0,-4.89753 c 0,-2.69365 1.8221,-12.72733 4.0492,-22.29708 3.5197,-15.124 4.584,-18.22102 8.1378,-23.68078 2.2487,-3.45468 6.3094,-8.27793 9.0237,-10.71834 7.8897,-7.09354 13.7413,-10.03037 28.6905,-14.39946 2.1305,-0.62267 1.0032,-1.60836 -10,-8.74358 -36.185,-23.46479 -59.3912,-33.81519 -74.9012,-33.40734 -11.1817,0.29403 -21.0234,0.26281 -35.5349,-0.11273 -12.667,-0.3278 -13.1202,-0.26679 -16.064,2.16268 -5.3599,4.42358 -10.4077,11.36971 -11.9123,16.39208 -1.3314,4.44473 -1.2801,6.08426 0.5611,17.92918 1.1146,7.1704 1.7865,13.66249 1.4932,14.42687 -0.3366,0.87734 -1.2725,1.15514 -2.5382,0.75343 -1.7658,-0.56045 -2.007,-0.18109 -2.0224,3.18105 -0.01,2.09957 -0.6829,7.86739 -1.4962,12.81739 -1.9378,11.79438 -1.9028,32.04695 0.074,42.63953 0.858,4.59826 3.558,16.0437 6,25.4343 4.1958,16.13489 4.4389,17.81219 4.4202,30.5 -0.021,14.39047 -1.2562,25.69225 -3.2473,29.71797 -1.0165,2.05512 -3.0358,2.99419 -11.5029,5.34949 -5.6485,1.57124 -12.0173,4.01312 -14.153,5.42641 -4.6659,3.08779 -12.7533,5.66984 -15.2634,4.87316 -0.9975,-0.3166 -1.8136,-1.3878 -1.8136,-2.38044 0,-1.31449 1.0258,-1.96884 3.776,-2.40862 2.0769,-0.3321 4.6644,-1.256 5.75,-2.0531 1.9115,-1.4034 1.879,-1.48652 -1.026,-2.6252 -1.65,-0.64675 -4.6353,-1.40761 -6.6339,-1.6908 -4.1971,-0.59469 -7.355,1.79882 -8.4992,6.44186 -0.3762,1.52649 -1.8463,4.31029 -3.2668,6.18623 -2.1433,2.83041 -2.6068,4.57377 -2.7236,10.24557 l -0.1409,6.83478 6.2941,5.88776 c 7.9294,7.41763 14.8679,10.84918 24.342,12.03879 8.5992,1.07975 16.5613,4.68488 27.3217,12.37095 6.3937,4.56696 11.565,7.3561 16.8066,9.06455 4.0466,1.31897 13.5672,0.55062 17.6465,-1.42414 z m -8.2161,-41.04162 c -0.9504,-1.53782 -2.77,-26.56011 -2.065,-28.39731 1.316,-3.42947 2.344,-1.02642 2.464,5.75988 0.071,3.9875 1.0138,10.59411 2.0963,14.68135 1.0825,4.08725 1.7405,7.79975 1.4622,8.25 -0.7322,1.18473 -3.1549,1.0048 -3.9575,-0.29392 z m -33.7638,-1.5541 c -0.3666,-0.36666 -0.6666,-1.30065 -0.6666,-2.07553 0,-1.01721 1.1814,-1.36208 4.25,-1.24059 11.6227,0.46016 13.2685,-0.70374 12.4337,-8.7927 -0.3061,-2.9658 -0.312,-6.0296 -0.013,-6.80844 0.9493,-2.47386 2.3294,-1.52739 2.3294,1.5975 0,1.65746 0.5135,3.83584 1.1412,4.84084 1.7247,2.76182 0.2149,8.7203 -2.8132,11.10226 -2.0289,1.59588 -4.0646,2.04333 -9.2962,2.04333 -3.6841,0 -6.9985,-0.3 -7.3651,-0.66667 z m 22.4465,-54.91662 c -4.7278,-6.01046 -11.5899,-28.88279 -14.2009,-47.33364 -1.3229,-9.34827 -0.7422,-28.20319 1.1472,-37.2509 1.4402,-6.89644 5.9431,-16.20897 8.032,-16.61126 1.2011,-0.2313 0.727,2.0973 -2.2201,10.90635 -2.061,6.16025 -4.0462,13.99167 -4.4115,17.40317 -1.4,13.07336 3.9558,41.11618 11.5218,60.32717 2.8383,7.20686 4.877,13.56216 4.5304,14.12289 -1.0089,1.63244 -2.2247,1.20021 -4.3989,-1.56378 z m -12.6011,-140.37894 c -1.382,-4.35404 2.4955,-7.07015 14.3948,-10.08339 2.9743,-0.75318 5.4124,-2.28201 7.5,-4.70309 5.35,-6.20441 6.6388,-7.34109 7.6296,-6.72875 1.698,1.0494 1.0427,3.67903 -2.1608,8.6713 -3.5912,5.59635 -5.3973,6.80616 -10.1607,6.80616 -5.1354,0 -9.1528,1.74836 -11.589,5.04347 -2.5258,3.4164 -4.7218,3.80533 -5.6139,0.9943 z m 52.3728,218.71223 6.0774,-6.25 0.019,-47.75656 0.019,-47.75655 -7.0103,-4.49345 c -3.8556,-2.47139 -7.1731,-4.49344 -7.3722,-4.49344 -0.199,0 -0.6628,1.8817 -1.0306,4.18155 -0.3677,2.29985 -1.7938,6.99413 -3.1691,10.43173 -3.1271,7.81665 -4.2779,14.64079 -5.0397,29.88672 -0.5808,11.62235 -0.4403,12.78677 4.4658,37 2.7861,13.75 5.3689,27.3625 5.7396,30.25 0.3708,2.8875 0.7979,5.25 0.9491,5.25 0.1512,0 3.0097,-2.8125 6.3522,-6.25 z m 18.3307,-14.20376 c 7.5411,-4.14437 16.9191,-6.51137 25.8774,-6.53146 l 6.593,-0.0148 0.657,-16.65971 c 0.3614,-9.16284 0.6571,-20.97909 0.6571,-26.25834 l 0,-9.59862 -18.75,-11.68585 c -10.3125,-6.42722 -19.5375,-11.98411 -20.5,-12.34865 -1.6501,-0.62495 -1.75,1.82789 -1.75,42.94418 0,23.98385 0.2095,43.60699 0.4655,43.60699 0.2561,0 3.2936,-1.55419 6.75,-3.45376 z m 166.472,-49.79624 c -12.2962,-15.16339 -12.7286,-36.55492 -1.161,-57.42421 4.557,-8.22114 19.924,-23.96699 29.4735,-30.2 16.5349,-10.79245 39.9785,-19.92239 58.5217,-22.79081 l 10.7725,-1.66638 -8.8971,-4.48367 c -4.8934,-2.46602 -12.4369,-5.7808 -16.7633,-7.36619 -9.9525,-3.64704 -14.639,-6.90518 -22.0576,-15.3349 -7.306,-8.30162 -10.8713,-10.01521 -17.7629,-8.53724 -2.7318,0.58587 -5.839,1.53197 -6.905,2.10244 -2.5637,1.37207 -3.8447,-1.54123 -1.6449,-3.74101 1.3825,-1.38252 0.5604,-2.27593 -8.1845,-8.89466 -11.6096,-8.78702 -15.8473,-10.11173 -27.2451,-8.51704 -14.0602,1.9672 -23.2953,6.45202 -31.393,15.24546 -4.3379,4.71054 -9.9076,13.82923 -10.9117,17.86467 -0.8546,3.43435 3.5222,5.99354 10.2502,5.99354 4.6223,0 5.0093,-0.19273 5.5217,-2.75 0.7384,-3.68482 6.181,-11.05688 9.1677,-12.41773 1.3221,-0.60235 3.1625,-0.80404 4.0898,-0.44818 1.4018,0.53791 0.9067,1.48019 -2.9362,5.58862 -5.661,6.052 -6.1468,8.67907 -1.3723,7.42074 1.7875,-0.4711 7.3661,-0.86485 12.3969,-0.875 7.609,-0.0154 9.5006,0.30187 11.25,1.88654 3.9248,3.55522 1.9586,8.19078 -2.196,5.17747 -7.2148,-5.23275 -5.661,-5.13738 -17.4338,-1.0701 -10.8877,3.76153 -19.9792,5.27868 -24.633,4.11066 -1.3994,-0.35122 -6.502,-3.83123 -11.3392,-7.73335 -12.2701,-9.89812 -13.1493,-10.27276 -22.3147,-9.5084 -22.635,1.88769 -40.0594,11.97601 -48.6747,28.18144 -2.5197,4.73956 -3.7343,9.19849 -5.75,21.10908 -2.9958,17.70158 -3.0791,21.20018 -0.7534,31.63027 l 1.7397,7.80207 6.4791,2.30561 c 10.8127,3.84777 18.1025,7.45046 22.7027,11.21997 4.6932,3.84573 9.7413,5.48732 22.7708,7.40478 11.5595,1.70114 16.9182,4.07279 26.6724,11.80479 8.4271,6.67995 19.4786,12.37319 33.792,17.40804 4.9068,1.72603 6.1363,1.80656 10.7402,0.70343 4.645,-1.11298 5.8172,-1.02713 11,0.80564 3.1905,1.12825 5.9436,2.09462 6.1179,2.14749 0.1743,0.0529 -1.2339,-1.81638 -3.1294,-4.15388 z m -21.203,-4.13328 c -0.8589,-1.3108 -2.0667,-6.4858 -2.6841,-11.5 -1.0627,-8.6312 -1.2497,-9.11672 -3.5111,-9.11672 -4.7902,0 -20.2893,-10.04145 -20.2893,-13.14489 0,-2.59428 1.6225,-2.31716 5.8561,1.0002 5.0812,3.98157 6.9654,4.84557 12.3173,5.64805 l 4.6734,0.70076 0.6579,-4.85206 c 1.1538,-8.50983 4.4061,-19.22493 8.0036,-26.36858 1.9204,-3.81345 3.4917,-7.16979 3.4917,-7.45852 0,-0.28873 -1.9125,-0.52245 -4.25,-0.51938 -11.6301,0.0153 -19.1092,5.32755 -29.5825,21.01187 -7.4806,11.20268 -10.3568,13.65943 -10.9691,9.36956 -0.1659,-1.16215 -1.4587,-2.64019 -2.8729,-3.28453 -2.0909,-0.95268 -3.0273,-0.87268 -5.0128,0.42829 -4.4316,2.90367 -11.2329,0.28048 -20.8127,-8.02723 -9.8493,-8.54135 -30.3522,-19.50354 -36.4781,-19.50354 -2.3201,0 -3.0219,-0.44881 -3.0219,-1.93261 0,-2.82262 2.8043,-3.26898 9.5386,-1.51827 10.545,2.74135 25.7439,10.9371 33.5249,18.07764 3.8735,3.55473 8.1731,6.89291 9.5547,7.41819 1.3816,0.52528 6.1952,0.94345 10.6969,0.92926 l 8.1849,-0.0258 3.4628,-5.10281 c 11.5661,-17.04352 24.4678,-25.35358 38.33,-24.68853 4.7303,0.22694 4.8564,0.15245 9.669,-5.71358 15.63,-19.05081 47.598,-37.44349 65.0799,-37.44349 5.2759,0 6.0592,0.23764 5.7679,1.75 -0.2575,1.33775 -1.8071,1.93152 -6.5778,2.52054 -17.0402,2.10392 -37.6602,13.89986 -54.9886,31.45695 -8.7971,8.91313 -10.8897,11.70016 -14.7033,19.58235 -9.2587,19.13645 -12.3893,37.02538 -9.0433,51.6755 0.9836,4.30638 1.5133,8.54637 1.1772,9.42222 -0.8929,2.327 -3.3964,1.94548 -5.1893,-0.79084 z m 574.1032,-90.73542 c 15.2631,-5.71066 28.8341,-21.3279 35.0903,-40.3813 2.1155,-6.44301 2.6458,-10.04355 2.7244,-18.5 0.1087,-11.69618 -1.3982,-17.63131 -6.39,-25.16748 -3.2739,-4.94269 -8.9196,-9.57163 -9.8808,-8.10138 -0.3474,0.53133 -3.3316,1.26577 -6.6316,1.63207 -13.5081,1.49941 -26.1618,11.69217 -35.6863,28.7459 -7.1856,12.86577 -10.2395,22.65784 -10.258,32.89089 -0.019,10.38757 2.3967,16.57402 9.0024,23.05703 4.4228,4.34071 5.6051,6.94297 3.1543,6.94297 -2.3223,0 -10.5463,-9.38353 -13.1466,-15 -2.0785,-4.48967 -2.5481,-7.026 -2.5561,-13.80718 -0.013,-10.72751 1.1784,-15.46921 6.9886,-27.82298 11.3489,-24.13029 24.8301,-36.59773 41.467,-38.34882 l 6.0347,-0.63516 -4.5,-1.30004 c -12.6867,-3.66517 -30.981,4.39244 -42.5101,18.72329 -5.7267,7.11842 -11.934,19.67708 -13.9337,28.19089 -3.3711,14.35264 -1.3036,29.69305 5.2943,39.28276 8.0021,11.63065 20.9856,15.11783 35.7372,9.59854 z m -99.5192,-33.48383 c 2.9873,-0.8814 5.5886,-1.75102 5.7806,-1.93249 0.1921,-0.18147 -0.4648,-3.48957 -1.4596,-7.35133 -1.5923,-6.18137 -1.6556,-7.77464 -0.5284,-13.31752 0.7042,-3.46287 2.7514,-8.99613 4.5494,-12.29613 2.5878,-4.74974 3.3887,-7.59065 3.8433,-13.6335 0.636,-8.4531 2.3207,-12.58759 6.4762,-15.89365 2.4823,-1.97488 3.6008,-2.15166 10.77,-1.70227 4.4,0.2758 8.5625,0.29025 9.25,0.0321 1.8138,-0.68105 1.5364,-5.189 -0.7659,-12.44735 -2.1911,-6.90802 -4.6139,-10.39334 -9.9739,-14.34779 -3.0023,-2.21501 -3.5429,-2.33993 -4.0365,-0.93276 -0.3987,1.13667 -2.1245,1.74619 -5.745,2.02899 -9.6346,0.75256 -15.8951,3.93526 -24.1904,12.29788 -8.867,8.93904 -14.8878,19.00878 -19.6846,32.92243 -5.8689,17.02337 -4.021,29.60389 5.7895,39.41442 5.0504,5.05038 5.9006,6.76149 3.3597,6.76149 -5.1568,0 -14.7813,-14.73936 -15.9982,-24.5 -1.9746,-15.83923 8.8971,-41.68717 23.9953,-57.04966 8.454,-8.60207 15.3159,-12.22826 24.8188,-13.11565 3.6968,-0.34522 6.5656,-0.78357 6.3751,-0.97412 -0.1906,-0.19054 -2.6048,-0.77473 -5.365,-1.29819 -6.4051,-1.2147 -16.3691,0.74974 -23.5437,4.64175 -10.6591,5.78218 -20.8032,17.3965 -26.7777,30.65867 -16.1364,35.81918 2.6213,71.01571 33.061,62.03467 z m -508.1638,-19.74327 c 1.1803,-1.90978 5.0657,-6.20358 8.6342,-9.54176 6.3428,-5.93332 6.8251,-6.17534 21.5104,-10.79223 l 15.022,-4.72281 -13.7064,-13.73269 c -7.5385,-7.55297 -15.767,-14.85248 -18.2857,-16.22111 -2.5186,-1.36864 -9.2457,-3.66988 -14.9492,-5.11386 -5.7035,-1.44399 -13.5266,-4.21509 -17.3847,-6.158 -11.3397,-5.71057 -28.1331,-8.058 -38.0147,-5.31381 -4.892,1.35854 -16.2243,11.87777 -17.7385,16.46582 -0.9991,3.02742 -0.7243,4.39771 2.4964,12.44753 1.9905,4.97509 3.3433,9.49181 3.0062,10.03717 -0.9094,1.47158 -3.6048,1.20194 -5.546,-0.55484 -1.5771,-1.42729 -1.7636,-1.25398 -2.421,2.25 -0.3917,2.08801 -0.6015,4.02139 -0.4662,4.29639 0.1352,0.275 4.6329,2.84996 9.9948,5.72214 l 9.7489,5.22214 -1.1074,-2.93397 c -1.8274,-4.84112 0.1906,-4.78329 4.6271,0.13261 9.5813,10.61659 12.5275,13.59663 17.9942,18.20059 3.6717,3.0923 6.32,4.62519 7.3247,4.23967 3.1827,-1.22132 14.3719,1.578 19.1612,4.79372 l 4.695,3.15243 1.6293,-4.2014 c 0.8961,-2.31077 2.5951,-5.76395 3.7754,-7.67373 z m -55.7439,-34.25084 c 0.5597,-2.90631 11.2432,-5.47066 25.3392,-6.08215 12.4421,-0.53974 17.0243,0.27558 18.1584,3.231 1.04,2.71014 -0.9447,3.46043 -5.1719,1.95516 -5.2613,-1.87352 -14.3406,-1.83928 -22.9865,0.0867 -3.85,0.85763 -8.9578,1.81344 -11.3506,2.12402 -3.8713,0.5025 -4.3107,0.35767 -3.9886,-1.31471 z m 587.2719,10.04874 c 1.8093,-1.18546 2.4188,-2.75719 2.9167,-7.52146 0.3463,-3.31256 1.1001,-6.90209 1.6752,-7.97674 0.8974,-1.67673 0.7177,-1.9539 -1.2669,-1.9539 -3.5782,0 -6.4279,2.56948 -8.3071,7.49021 -1.8824,4.9288 -1.5561,11.46503 0.7095,14.21402 1.2115,1.46999 1.3708,1.41596 1.6627,-0.56385 0.1775,-1.20431 1.352,-2.86403 2.6099,-3.68828 z m 27.6333,-2.27538 c 1.5459,-4.02781 3.3526,-7.97618 4.0149,-8.77417 1.5886,-1.91424 0.6164,-2.73588 -3.2374,-2.73588 -4.2183,0 -8.164,4.48407 -10.2451,11.64291 -2.0139,6.92729 -2.0873,6.48179 1.1516,6.98384 4.9262,0.7636 5.4702,0.29808 8.316,-7.1167 z m 10.934,6.84882 c 0,-0.53595 2.8799,-4.54161 6.3998,-8.90147 l 6.3998,-7.92702 -4.3617,-0.65409 c -2.5579,-0.38357 -5.2076,-0.20142 -6.4069,0.44043 -2.4623,1.31778 -9.3844,14.65331 -8.6286,16.62302 0.5993,1.56164 6.5976,1.9427 6.5976,0.41913 z m -21.0278,-16.98648 c 2.5085,-3.52292 1.7577,-4.99214 -2.5672,-5.02375 -3.2618,-0.0238 -5.3567,3.14275 -6.5461,9.8952 -0.9833,5.58249 -0.9112,6.33075 0.7251,7.52726 1.6519,1.2079 2.0104,0.85252 3.9469,-3.91213 1.1715,-2.8824 3.1701,-6.70136 4.4413,-8.48658 z"
       id="path3267"
       inkscape:connector-curvature="0" />
  </g>
</svg>
