<?xml version="1.0" encoding="UTF-8" standalone="no"?>
<!-- Created with Inkscape (http://www.inkscape.org/) -->

<svg
   xmlns:dc="http://purl.org/dc/elements/1.1/"
   xmlns:cc="http://creativecommons.org/ns#"
   xmlns:rdf="http://www.w3.org/1999/02/22-rdf-syntax-ns#"
   xmlns:svg="http://www.w3.org/2000/svg"
   xmlns="http://www.w3.org/2000/svg"
   xmlns:xlink="http://www.w3.org/1999/xlink"
   xmlns:sodipodi="http://sodipodi.sourceforge.net/DTD/sodipodi-0.dtd"
   xmlns:inkscape="http://www.inkscape.org/namespaces/inkscape"
   width="350.52429"
   height="898.90454"
   id="svg2"
   version="1.1"
   inkscape:version="0.48.3.1 r9886"
   sodipodi:docname="Dumbbell-front-raises-2-1.svg">
  <defs
     id="defs4">
    <radialGradient
       gradientUnits="userSpaceOnUse"
       gradientTransform="matrix(1,0,0,0.91819829,-19.285714,-7.9105395)"
       r="209.56604"
       fy="287.50052"
       fx="398.1105"
       cy="287.50052"
       cx="398.1105"
       id="radialGradient5255"
       xlink:href="#linearGradient5249"
       inkscape:collect="always" />
    <linearGradient
       id="linearGradient5249"
       inkscape:collect="always">
      <stop
         id="stop5251"
         offset="0"
         style="stop-color:#e3e3e3;stop-opacity:1;" />
      <stop
         id="stop5253"
         offset="1"
         style="stop-color:#e3e3e3;stop-opacity:0;" />
    </linearGradient>
  </defs>
  <sodipodi:namedview
     id="base"
     pagecolor="#ffffff"
     bordercolor="#666666"
     borderopacity="1.0"
     inkscape:pageopacity="0.0"
     inkscape:pageshadow="2"
     inkscape:zoom="0.70000001"
     inkscape:cx="220.93497"
     inkscape:cy="420.98047"
     inkscape:document-units="px"
     inkscape:current-layer="layer1"
     showgrid="false"
     showguides="true"
     inkscape:guide-bbox="true"
     fit-margin-top="0"
     fit-margin-left="0"
     fit-margin-right="0"
     fit-margin-bottom="0"
     inkscape:window-width="1217"
     inkscape:window-height="830"
     inkscape:window-x="378"
     inkscape:window-y="223"
     inkscape:window-maximized="0">
    <sodipodi:guide
       orientation="-0.70710678,0.70710678"
       position="-1773.4136,580.47805"
       id="guide2985" />
  </sodipodi:namedview>
  <metadata
     id="metadata7">
    <rdf:RDF>
      <cc:Work
         rdf:about="">
        <dc:format>image/svg+xml</dc:format>
        <dc:type
           rdf:resource="http://purl.org/dc/dcmitype/StillImage" />
        <dc:title></dc:title>
      </cc:Work>
    </rdf:RDF>
  </metadata>
  <g
     inkscape:label="Ebene 1"
     inkscape:groupmode="layer"
     id="layer1"
     transform="translate(-344.84227,291.77856)">
    <path
       style="fill:#000000"
       d="m 429.28775,605.01894 c -4.808,-2.54209 -12.9769,-8.70167 -16.70053,-12.59266 -3.05317,-3.19039 -7.13639,-15.99711 -8.226,-25.80029 -0.99356,-8.93892 -3.05922,-15.35245 -8.58229,-26.64655 -5.32194,-10.88281 -5.68624,-12.87754 -3.6163,-19.801 1.13855,-3.80816 1.10907,-5.1375 -0.20504,-9.24683 -1.26705,-3.96216 -1.32751,-5.62837 -0.34663,-9.55245 3.49098,-13.96601 2.44809,-27.58578 -4.00112,-52.25317 -2.22884,-8.525 -4.9776,-19.1 -6.10836,-23.5 -3.09672,-12.04996 -2.74602,-24.43766 1.21736,-43 2.38516,-11.17082 4.18084,-16.91459 7.03418,-22.5 11.07547,-21.68019 13.00567,-33.24787 13.03246,-78.10331 0.009,-15.73182 -0.27438,-31.25682 -0.6306,-34.5 l -0.64769,-5.89669 -5.83033,-2.80802 c -11.54515,-5.5604 -22.41143,-19.45367 -27.52454,-35.19198 -3.49193,-10.74829 -4.42357,-30.71639 -1.88586,-40.42004 5.18229,-19.81591 18.03824,-32.72726 33.71161,-33.8569 l 6.67551,-0.48114 0.32449,-7.62096 c 0.30768,-7.22599 0.16154,-7.838 -2.81963,-11.80885 -3.00146,-3.99787 -9.99454,-23.792263 -16.67668,-47.204503 -2.08759,-7.31428 -2.92739,-8.83439 -6.53725,-11.83294 l -4.14195,-3.44053 -0.022,-8.16707 c -0.0269,-10.01457 -1.64471,-13.96764 -9.80517,-23.9586 -8.05489,-9.8617 -11.57554,-15.8615899 -14.59705,-24.87628 -3.66689,-10.94018 -4.5189,-20.7709 -3.27886,-37.83218 l 1.05389,-14.5 -2.79483,-6.96907 c -2.59318,-6.46626 -2.76186,-7.72887 -2.33795,-17.5 0.59977,-13.824307 2.74485,-18.895997 11.42737,-27.018067 3.51908,-3.29193 7.75167,-6.98589 9.40575,-8.20881 1.65408,-1.22291 5.66309,-5.45914 8.9089,-9.41383 6.88706,-8.3912 15.71091,-15.00325 26.69968,-20.0071 6.23669,-2.83994 9.19705,-4.99698 14.47386,-10.54624 5.99611,-6.3057 6.74937,-7.57003 7.83841,-13.1565 0.66265,-3.39921 2.29004,-9.94323 3.61641,-14.54226 2.75552,-9.5544 2.97869,-12.13813 1.04843,-12.13813 -2.07461,0 -10.50284,-9.4899 -12.67186,-14.26809 -1.05658,-2.32755 -1.93094,-6.1353 -1.94301,-8.46167 -0.0222,-4.28105 2.26806,-11.5216 4.51388,-14.27024 0.70567,-0.86366 1.42094,-5.78978 1.68607,-11.61206 0.39354,-8.64218 0.91018,-11.07307 3.55426,-16.72333 10.75897,-22.99141 36.73983,-31.00358 61.87007,-19.07996 8.88334,4.21491 14.49623,10.2145 20.20038,21.59207 6.50064,12.96628 7.61298,20.0795 7.63478,48.82328 l 0.0186,24.5 -3.83688,8 c -2.11029,4.4 -5.44816,9.96771 -7.41749,12.3727 -4.92583,6.0155 -4.04489,6.99744 9.33975,10.41057 9.76646,2.49048 11.47867,2.66439 16.27653,1.65324 10.73784,-2.26302 21.48257,1.43777 31.27641,10.77246 10.37245,9.88618 13.44656,17.82831 15.40166,39.79103 1.74738,19.629347 3.74519,31.780187 7.48897,45.548417 4.23653,15.58041 5.15524,22.61815 3.99772,30.62442 -0.54288,3.75494 -0.99597,7.52562 -1.00686,8.37929 -0.0109,0.85366 3.27027,6.47866 7.29147,12.5 8.13173,12.17642003 17.71837,31.76036 20.04461,40.94788 0.83555,3.3 2.68077,12.75 4.10049,21 1.41972,8.25 3.64689,18.825 4.94928,23.5 1.30238,4.675 2.66161,9.77387 3.02049,11.33082 l 0.65252,2.83083 4.08826,-3.6935 c 6.4562,-5.83279 12.01055,-7.88443 21.33307,-7.8799 10.55172,0.005 17.33031,3.16356 26.4635,12.33053 7.58841,7.616471 12.86328,16.936113 16.20234,28.626283 3.22363,11.28602 3.19275,30.04933 -0.0649,39.45493 -4.37891,12.64285 -11.72042,22.20915 -20.56076,26.79156 -4.24445,2.20012 -6.38488,2.62014 -13.55795,2.66051 -7.6251,0.0429 -9.20383,-0.28963 -15.0635,-3.17292 -6.22554,-3.06331 -16.83656,-12.65165 -19.66849,-17.77286 -1.08997,-1.97107 -1.12959,-1.96824 -3.4908,0.25 -1.31357,1.23404 -3.3085,2.24371 -4.43317,2.24371 -1.63853,0 -2.48415,1.3382 -4.25568,6.73464 -3.93685,11.99247 -11.73105,22.45283 -19.86358,26.65833 l -2.91249,1.5061 1.40669,6.80047 c 0.87533,4.23165 1.53491,15.11075 1.74612,28.80046 0.30069,19.48948 0.60095,22.85586 2.6312,29.5 2.51567,8.23273 2.61901,11.62859 1.41332,46.44524 -0.51324,14.82106 -0.17857,25.53868 1.53738,49.23353 2.14668,29.64278 2.15775,30.77762 0.51914,53.24691 -1.13362,15.54466 -1.36773,24.06889 -0.72497,26.39679 0.89061,3.22554 10.24012,16.8747 18.10353,26.42897 1.92447,2.3383 6.2157,6.24607 9.53607,8.68396 3.32037,2.43788 7.38703,5.85419 9.03703,7.5918 4.94329,5.20576 10.90172,7.7205 33.09761,13.96872 10.59358,2.98213 13.72263,5.45208 14.6181,11.53895 0.94977,6.45595 -0.45178,10.5872 -4.92384,14.51373 -8.22042,7.21762 -20.51176,9.59963 -44.26229,8.57782 -19.25212,-0.82827 -22.89087,-1.65516 -30.48242,-6.92703 l -6.0472,-4.19939 -20,-0.51901 c -22.62892,-0.58722 -23.28722,-0.77187 -30.44821,-8.54063 l -4.34447,-4.7132 0.65202,-11.61358 c 0.35861,-6.38747 1.54044,-15.66358 2.62628,-20.61358 6.06478,-27.64727 6.1731,-28.45847 5.80858,-43.5 -0.40286,-16.62389 -1.2152,-19.02421 -11.24192,-33.21789 -6.15797,-8.71713 -8.86889,-16.2311 -10.64504,-29.50533 -1.49426,-11.16746 -0.56978,-30.68318 2.05007,-43.27678 2.87627,-13.82621 2.69263,-19.22252 -0.8501,-24.98018 -2.71349,-4.40999 -2.91493,-5.47662 -3.25,-17.209 l -0.35721,-12.50761 -12.1916,-18.4016 c -6.70539,-10.12089 -12.74012,-19.63911 -13.41052,-21.15161 -1.82517,-4.11779 -4.66952,-3.593 -5.41996,1 -0.33699,2.0625 -0.80687,4.875 -1.04418,6.25 -0.23731,1.375 -1.11438,7.9 -1.94904,14.5 -3.23092,25.54795 -6.53086,35.23812 -16.00563,47 -3.32135,4.12309 -4.2393,6.25491 -5.23398,12.15528 -0.93035,5.51873 -3.21198,11.2116 -9.97567,24.89014 l -8.76942,17.73485 0.47786,11.60987 c 0.26282,6.38542 0.48123,19.25986 0.48536,28.60986 0.007,16.95354 -0.001,17.02159 -3.27694,24.89959 -1.80645,4.34478 -3.91466,10.64478 -4.68492,14 -1.53964,6.70662 -5.50136,41.38083 -5.50136,48.14968 0,5.35884 5.93373,22.6732 11.03571,32.20169 8.16618,15.2512 21.05649,33.53923 30.53689,43.32397 5.16276,5.32849 9.84596,10.89577 10.40712,12.37172 1.70553,4.48588 1.15407,9.89219 -1.56577,15.35018 -2.9233,5.8663 -6.91003,9.20317 -10.99549,9.20317 -1.86287,0 -3.61712,1.00168 -5.34563,3.05236 -2.16396,2.56728 -3.62634,3.19959 -9.20204,3.97883 -3.64606,0.50955 -7.83786,1.38599 -9.3151,1.94764 -1.47724,0.56164 -7.05076,1.02117 -12.3856,1.02117 -7.93641,0 -10.42417,-0.38304 -13.6849,-2.10705 z m 24.33959,-7.43952 c 2.92368,-1.16982 5.51231,-1.49524 8.32132,-1.04606 5.24348,0.83847 7.13341,-0.542 5.74424,-4.1958 -0.55069,-1.44843 -0.73561,-3.69194 -0.41092,-4.98559 0.81152,-3.23337 5.47182,-2.73379 7.22054,0.77402 0.89187,1.78904 1.8938,2.40116 3.52317,2.15243 3.44641,-0.52611 4.6313,-1.92315 6.24778,-7.36644 2.02487,-6.81847 0.79135,-9.30299 -9.69436,-19.5261 -14.93528,-14.56124 -36.44623,-51.09886 -41.34785,-70.23175 -1.48907,-5.81242 -1.46005,-6.88108 0.49839,-18.35 1.14375,-6.69798 2.07805,-16.5153 2.07623,-21.81627 -0.004,-10.40034 2.466,-21.0525 7.69129,-33.17521 3.04463,-7.06355 4.0858,-20.15771 2.81545,-35.40807 l -0.71976,-8.64067 -3.42599,5.43104 c -4.06016,6.43635 -6.30128,13.69657 -9.85662,31.93104 -2.66121,13.64872 -3.45156,15.77075 -5.42056,14.55385 -1.5584,-0.96315 -1.35812,-4.6835 0.94903,-17.62896 3.2047,-17.98163 6.60478,-29.44873 11.3496,-38.27759 2.44127,-4.54257 5.14633,-11.46564 6.11388,-15.6473 0.95445,-4.125 3.36998,-10.425 5.36786,-14 1.99787,-3.575 3.92795,-7.21303 4.28906,-8.0845 0.3611,-0.87148 2.2808,-4.12362 4.26599,-7.22697 4.75951,-7.44031 5.58468,-9.6968 7.01697,-19.18853 0.99936,-6.62273 1.51015,-7.9737 2.96693,-7.84726 2.07502,0.1801 9.94061,-11.42864 12.74589,-18.81155 1.00353,-2.64108 2.71724,-12.34829 3.80824,-21.57158 1.091,-9.22328 2.23669,-18.90711 2.54597,-21.51961 0.3098,-2.61682 0.15125,-4.75 -0.35305,-4.75 -0.50346,0 -4.00646,1.18543 -7.78444,2.63429 -18.83343,7.22264 -33.05996,8.94355 -45.56767,5.51211 -7.07476,-1.94093 -7.99682,-1.98873 -11.88694,-0.61622 -2.31949,0.81837 -6.67456,1.77675 -9.67795,2.12974 l -5.46069,0.64179 0.68449,6.0501 c 1.05185,9.29718 0.64286,68.80187 -0.54619,79.46537 -1.1257,10.09536 -1.96091,12.62747 -10.60745,32.15855 -7.77003,17.5512 -10.515,28.61217 -10.67722,43.02427 -0.12374,10.99355 0.10317,12.34256 5.15234,30.63214 6.49008,23.50893 8.9349,35.86034 9.7835,49.42679 0.57197,9.14416 0.39892,11.07796 -1.39317,15.56847 -1.91961,4.81001 -1.95483,5.47758 -0.56898,10.78456 1.33531,5.11347 1.31599,6.16883 -0.20097,10.98119 -1.66959,5.29655 -1.66479,5.35185 0.93036,10.71544 1.43474,2.96528 3.75585,7.45483 5.15802,9.97679 1.40217,2.52196 3.37738,8.82196 4.38936,14 1.01198,5.17804 2.79227,12.78962 3.95621,16.91462 1.16394,4.125 2.38778,8.85 2.71964,10.5 0.75578,3.75768 7.88554,10.52616 14.78629,14.03703 4.47363,2.27603 6.02572,2.55722 11.69841,2.11934 3.59724,-0.27768 8.45019,-1.269 10.78433,-2.20294 z m -15.15811,-9.1201 c -1.08655,-1.08654 -0.76018,-4.83982 0.53333,-6.13333 0.66,-0.66 3.31186,-1.2 5.89301,-1.2 5.95571,0 7.35604,2.35683 3.41465,5.74707 -2.50436,2.15416 -8.3335,3.09375 -9.84099,1.58626 z m 21.92792,-10.62043 c -3.482,-4.56513 -3.39544,-6.7129 0.27055,-6.7129 6.84793,0 11.44735,9.0588 4.97945,9.80729 -2.03784,0.23583 -3.25883,-0.48383 -5.25,-3.09439 z m -48.88574,-65.33738 c -0.38987,-0.38987 -0.70717,-2.09635 -0.70511,-3.79219 0.009,-7.53918 12.36196,-18.46239 15.96675,-14.11889 1.93369,2.32995 0.40585,6.13985 -3.40724,8.49647 -1.89205,1.16935 -4.25531,3.79402 -5.25167,5.8326 -1.71231,3.50339 -4.93371,5.25102 -6.60273,3.58201 z m -3.7086,-136.62552 c -0.65747,-1.7875 -1.43826,-8.5375 -1.73509,-15 l -0.53969,-11.75 2.53028,0 c 3.49709,0 3.9479,1.95021 2.62683,11.36362 -1.04028,7.41257 -0.96095,8.60342 0.89171,13.38638 l 2.03356,5.25 -2.3061,0 c -1.68987,0 -2.62552,-0.86845 -3.5015,-3.25 z m 29.09791,-45.01474 c -3.32663,-1.71087 -4.5098,-3.95902 -3.72636,-7.08048 0.90456,-3.60404 2.44532,-3.33672 4.13959,0.71822 1.67716,4.01402 4.04612,4.85288 8.46162,2.9963 1.79114,-0.75312 3.42995,-1.3693 3.6418,-1.3693 0.9095,0 0.28065,3.70454 -0.81481,4.8 -1.55752,1.55752 -8.62352,1.51843 -11.70184,-0.0647 z m -12.43149,-27.40193 c -1.34606,-1.34606 -0.59528,-4.09822 2.31768,-8.49599 3.26387,-4.92753 6.59098,-6.9723 15.10426,-9.28269 3.07373,-0.83418 7.29811,-2.87523 9.3875,-4.53567 4.58153,-3.64094 5.52389,-3.75061 5.52389,-0.64285 0,1.92108 -1.2927,3.04656 -6.75,5.87687 -3.7125,1.92541 -9.10679,4.26542 -11.98732,5.20003 -5.6149,1.82179 -9.03975,5.18234 -9.95737,9.77043 -0.52541,2.62705 -2.16864,3.57988 -3.63864,2.10987 z m 33.11682,-2.08333 c -3.75597,-4.30592 -6.01984,-13.85199 -3.64229,-15.35843 3.05036,-1.93273 3.77736,-0.99952 3.17611,4.07705 -0.63394,5.35262 1.32767,10.03138 4.20574,10.03138 0.81232,0 1.47695,0.675 1.47695,1.5 0,2.05282 -3.34776,1.89238 -5.21651,-0.25 z m 203.36117,223.77637 c 7.7025,-2.39198 13.85534,-6.3938 13.85534,-9.01153 0,-4.15507 -8.61838,-8.6158 -24.35151,-12.60394 -5.46849,-1.38619 -11.59687,-3.36424 -13.61863,-4.39567 -4.40594,-2.24774 -25.85426,-24.56314 -37.01868,-38.51523 -4.72164,-5.90058 -8.46371,-11.63977 -9.12832,-14 -0.85225,-3.0266 -0.79253,-8.74531 0.2454,-23.5 1.50269,-21.36153 1.60002,-42.39208 0.38543,-83.28283 l -0.79554,-26.78283 -2.09068,3.28283 -2.09067,3.28283 -0.34081,-2.81201 c -0.18744,-1.5466 0.78939,-7.6216 2.17074,-13.5 3.80198,-16.17951 4.12169,-20.83754 2.0577,-29.97979 -1.47087,-6.51507 -2.09269,-7.84621 -3.49401,-7.47975 -2.62005,0.68516 -2.89325,-0.76495 -1.36677,-7.2547 2.261,-9.61253 1.73738,-34.21515 -1.08784,-51.11291 -0.50418,-3.01553 -0.66271,-3.10807 -4.02523,-2.34969 -1.92521,0.4342 -5.10437,2.07182 -7.06479,3.63916 -8.52387,6.81473 -12.55399,9.1403 -20.24461,11.68208 -11.91187,3.93691 -21.13157,5.69193 -34.37258,6.54302 -6.45226,0.41473 -12.01802,1.04067 -12.36833,1.39099 -0.99463,0.99463 6.04201,13.13829 14.67086,25.3186 4.3191,6.09675 8.38212,12.39675 9.02894,14 0.64682,1.60325 1.45929,8.33688 1.8055,14.96362 l 0.62945,12.04862 5.73249,11.12457 c 5.46561,10.60665 6.91523,15.27819 4.74096,15.27819 -0.54534,0 -1.55784,-0.91172 -2.25,-2.02604 -1.11549,-1.79585 -1.40046,-1.14257 -2.5082,5.75 -0.68736,4.27682 -1.77493,14.97604 -2.41683,23.77604 -1.86714,25.59727 0.82025,36.87052 12.51526,52.5 8.53552,11.40706 9.15883,13.93857 9.11009,37 -0.04,18.94876 -0.14415,19.92403 -3.68295,34.5 -2.00296,8.25 -3.94818,18.91394 -4.32271,23.69765 -0.61865,7.90179 -0.4787,9.02491 1.5295,12.27424 3.6099,5.84094 6.15666,6.60587 19.7076,5.91929 14.22182,-0.72057 24.29371,1.05662 31.5492,5.56688 8.39635,5.21946 16.71023,6.73663 37.90523,6.91718 12.01423,0.10235 15.7862,-0.22974 21,-1.84887 z m -3.59336,-9.96969 c -0.96728,-1.06883 -3.06202,-2.22958 -4.65499,-2.57945 -5.39349,-1.18461 -2.88604,-4.07309 2.63643,-3.03707 3.978,0.74628 6.46726,2.91377 6.46726,5.63127 0,2.47987 -2.1977,2.47258 -4.4487,-0.0147 z m -90.0513,-24.01071 c -4.18366,-1.73048 -6.81707,-5.822 -7.26543,-11.28828 -0.38331,-4.67333 -0.0591,-5.81341 2.91709,-10.25769 5.75367,-8.59183 10.00759,-5.94681 5.87727,3.65439 -3.00765,6.99146 -2.4829,8.94531 2.93902,10.94319 4.90517,1.80747 6.68554,3.75706 5.72258,6.2665 -0.68433,1.78335 -6.5747,2.1775 -10.19053,0.68189 z m -5.0534,-95.13238 c -0.36929,-0.59752 0.73667,-2.5392 2.45768,-4.31484 4.03605,-4.16414 5.09572,-8.08243 5.09572,-18.84215 0,-8.6406 0.89254,-10.69442 2.96482,-6.82234 1.35666,2.53495 1.32156,17.49418 -0.0527,22.44347 -1.77502,6.39275 -8.27803,11.07534 -10.46555,7.53586 z M 568.67361,311.12 c -4.23419,-2.2374 -8.87105,-7.3968 -8.87105,-9.87074 0,-2.03883 1.87046,-4.12327 3.7,-4.12327 0.715,0 1.3,0.75965 1.3,1.68812 0,2.94005 4.34851,8.2059 8.67889,10.50974 2.29838,1.22279 3.95933,2.5785 3.69098,3.0127 -0.83074,1.34417 -4.70129,0.79013 -8.49882,-1.21655 z m -5.20438,-39.66068 c -1.82957,-1.82957 -0.44632,-4.2497 3.08333,-5.39458 5.50973,-1.78715 9.04087,-4.6085 11.29296,-9.02296 2.07457,-4.0665 4.3079,-5.0498 5.34297,-2.35244 0.85586,2.23033 -1.54869,6.29062 -6.55572,11.06986 -6.02363,5.74959 -10.97152,7.89214 -13.16354,5.70012 z M 423.52912,234.26549 c 4.93739,-2.51887 11.4492,-9.57942 14.63722,-15.87069 10.96783,-21.64397 5.69619,-54.86128 -11.47417,-72.30031 -8.84917,-8.98762 -19.28674,-13.24219 -28.32627,-11.54636 -3.51299,0.65904 -5.01918,2.57786 -2.0235,2.57786 3.18672,0 9.32612,4.07291 14.23401,9.44293 6.35917,6.95795 10.302,13.80927 13.84446,24.05707 2.46546,7.13219 2.76647,9.4102 2.77491,21 0.0149,20.50929 -4.18771,33.56441 -13.51863,41.99434 l -4.2361,3.82706 5.11237,-0.60549 c 2.81179,-0.33301 6.85086,-1.4924 8.9757,-2.57641 z m -10.85133,-4.44018 c 9.79097,-9.28067 14.30432,-36.52524 9.16296,-55.3117 -3.94834,-14.4272 -13.42037,-27.97376 -22.70131,-32.46659 -6.6879,-3.23755 -13.77424,-2.3506 -17.59793,2.20263 -3.91306,4.65966 -8.38715,14.11757 -10.34866,21.87634 -3.26901,12.93058 -0.18301,34.07107 6.93053,47.47727 3.86834,7.29029 13.59972,17.36886 19.58137,20.27997 4.09768,1.99424 4.65104,2.03864 8,0.64191 1.97879,-0.82528 5.11667,-2.94021 6.97304,-4.69983 z m 56.12477,3.25479 c 3.025,-1.28368 6.52752,-2.98509 7.78339,-3.78092 2.27702,-1.44293 2.26956,-1.45627 -2.67704,-4.7875 -2.72823,-1.8373 -5.24481,-3.8007 -5.5924,-4.36312 -0.34759,-0.56241 -3.668,-1.02257 -7.37869,-1.02257 -5.6262,0 -7.30948,-0.4152 -10.13526,-2.5 -1.86371,-1.375 -3.67421,-2.5 -4.02334,-2.5 -0.34913,0 -1.72421,2.35078 -3.05572,5.22396 -1.33152,2.87319 -3.84049,7.09581 -5.57549,9.38362 l -3.15456,4.15964 5.65456,1.09706 c 3.11,0.60338 6.55455,1.30504 7.65455,1.55924 4.57527,1.0573 15.20732,-0.22343 20.5,-2.46941 z m 33.80285,-9.13745 c 5.1186,-1.31589 13.14275,-8.16133 16.71818,-14.26233 5.41074,-9.23273 6.80691,-15.11516 6.89594,-29.05433 0.0913,-14.28787 -1.63409,-22.04417 -7.47937,-33.62361 -7.06613,-13.99793 -21.43656,-24.44531 -33.43382,-24.30657 -3.32058,0.0384 -6.92985,0.58721 -8.0206,1.21959 -1.88034,1.09015 -1.85355,1.15184 0.51682,1.18957 4.31215,0.0686 12.74801,5.7401 17.5405,11.79255 15.37416,19.41607 18.94443,44.26409 10.23327,71.22056 -1.69228,5.23673 -3.2267,7.62084 -7.93517,12.32931 -5.80499,5.80499 -5.81927,5.83379 -2.5879,5.21932 1.78711,-0.33983 5.18558,-1.11566 7.55215,-1.72406 z m -11.65322,-2.41712 c 3.9965,-2.03185 9.59184,-9.10511 11.32107,-14.31133 6.69171,-20.14684 5.77103,-41.4837 -2.45531,-56.90216 -7.94002,-14.88181 -16.19636,-21.71104 -26.17574,-21.65124 -7.11254,0.0426 -8.16386,0.89542 -6.78713,5.50552 0.56824,1.90282 2.36347,9.98467 3.9894,17.95967 1.62592,7.975 4.37935,20.47664 6.11872,27.78142 l 3.16249,13.28142 -2.16157,4.32811 c -1.18886,2.38046 -2.16156,6.21367 -2.16156,8.51824 0,2.30457 -0.73165,5.60498 -1.62588,7.33423 -1.60017,3.0944 -1.58041,3.18044 1.25,5.44253 6.62486,5.29465 9.47048,5.79201 15.52551,2.71359 z m 47.03279,-3.34562 c 14.0333,-3.65302 22.61872,-7.01206 27.13719,-10.61744 l 3.47565,-2.77328 -5.95658,-2.81701 c -7.18416,-3.39758 -16.812,-12.26319 -21.78788,-20.06295 l -3.64703,-5.71676 -2.70188,4.16693 c -1.48604,2.29181 -2.70189,5.4047 -2.70189,6.91754 0,8.15203 -4.54437,20.69213 -10.5054,28.98945 l -3.49127,4.8596 4.43075,0 c 2.43692,0 9.52367,-1.32574 15.74834,-2.94608 z m -70.21469,-6.52471 c 1.03761,-0.93903 2.18458,-3.57975 2.54881,-5.86827 0.36424,-2.28852 1.26601,-5.9978 2.00393,-8.24286 1.19059,-3.62228 1.07048,-5.64912 -1.06675,-18 -2.9906,-17.28239 -8.78092,-43.42218 -10.94679,-49.41808 -0.94326,-2.61128 -2.62597,-14.85342 -4.00918,-29.16772 -2.23796,-23.159783 -4.99268,-39.086223 -7.63424,-44.137473 -0.63128,-1.20714 -4.39692,-5.7948 -8.36808,-10.1948 -11.28801,-12.50698 -27.47794,-38.5322401 -27.49055,-44.19098 -0.01,-4.25602 1.89658,-3.27386992 5.02032,2.58687 1.73841,3.2615899 4.19918,6.90572 5.46838,8.09807 l 2.30764,2.16792 0.69768,-9.33094 c 1.36322,-18.23187 -4.23651,-38.62008 -14.5173,-52.85642 -3.22468,-4.46538 -6.0886,-8.64889 -6.36428,-9.2967 -0.33392,-0.78465 -0.87208,-0.59174 -1.61218,0.57792 -0.61102,0.96565 -2.10095,2.90669 -3.31097,4.31342 -4.31786,5.01981 -7.84815,-0.35213 -4.04543,-6.15581 2.13536,-3.25898 12.12864,-10.41335 14.54544,-10.41335 2.65745,0 3.30503,2.58917 1.38174,5.52449 -1.53482,2.34242 -1.52552,2.67186 0.14004,4.96085 1.86521,2.56335 3.28404,3.21775 3.28404,1.51466 0,-2.19843 3.16006,-0.75809 8.40335,3.83019 8.56375,7.49394 16.09697,8.89594 27.36081,5.09208 3.38387,-1.14275 9.65875,-4.51475 13.94417,-7.49332 9.71357,-6.7514 14.4293,-9.04633 23.12815,-11.25543 9.23536,-2.34535 11.652,-4.11739 13.5957,-9.96934 2.08116,-6.26577 0.92536,-12.28245 -4.70483,-24.491707 -3.03089,-6.57259 -3.76524,-9.07459 -2.91345,-9.92638 3.07529,-3.07529 10.56829,10.168417 12.73928,22.516387 0.97069,5.52103 1.96883,8.41015 3.13007,9.06001 0.93771,0.52477 3.58006,2.68257 5.87191,4.79512 l 4.16699,3.841 10.60653,-1.11872 c 11.23238,-1.18474 13.67132,-0.89689 13.67132,1.61348 0,2.34348 -4.38507,3.55849 -14.95855,4.14471 -8.63216,0.47858 -9.9703,0.30661 -14.04145,-1.80454 -2.73497,-1.41826 -5.12904,-3.59252 -6.10376,-5.54334 l -1.60375,-3.2098 -1.18221,3.94584 c -1.90586,6.36121 -4.61254,8.4101 -15.11028,11.43811 -10.32418,2.97794 -13.96103,4.61052 -27.2847,12.24805 -11.73426,6.72642 -18.1372,8.66925 -26.58023,8.06515 -7.15436,-0.51189 -11.97288,-2.45597 -16.46187,-6.64171 -2.70594,-2.52314 -2.63279,-2.21723 1.71091,7.15489 2.49574,5.3849 5.47469,11.1066 6.6199,12.71489 2.30945,3.24334 7.10585,4.98011 13.77738,4.9888 2.96105,0.004 4.46684,0.48889 4.88278,1.5728 0.8755,2.28152 -0.6719,3.34722 -5.49036,3.78125 -6.4185,0.57814 -11.17381,3.48908 -11.17381,6.83998 0,2.51889 3.26804,6.8115501 5.18568,6.8115501 1.4524,0 8.81432,7.1965799 8.81432,8.6163599 0,2.0328699 -3.99776,1.6823499 -7.89239,-0.69199 -2.79909,-1.70646 -3.61078,-1.83697 -4.64111,-0.74626 -1.3983,1.48025 -3.53378,14.82189 -2.3724,14.82189 0.40853,0 1.73491,1.60529 2.94751,3.56732 4.24785,6.87318 10.26222,9.45367 16.20839,6.95429 1.34025,-0.56335 1.75,-0.25049 1.75,1.33622 0,2.76041 -2.85594,4.14217 -8.56139,4.14217 l -4.69287,0 7.08655,7.46029 c 8.62509,9.07998 10.72419,13.01645 12.54937,23.53403 0.77615,4.47252 1.61726,8.33793 1.86914,8.58981 1.10616,1.10616 30.5058,2.58463 43.2492,2.17496 12.64346,-0.40646 14.96896,-0.77996 24,-3.85458 l 10,-3.40451 0.64209,-5.26084 c 0.35316,-2.89346 1.37603,-6.38096 2.27306,-7.75 1.90487,-2.90721 5.21608,-3.50689 4.08136,-0.73916 -0.3946,0.9625 -0.96269,3.76383 -1.26242,6.22518 l -0.54496,4.47517 2.40544,-1.61496 c 2.33046,-1.56464 2.39554,-1.95345 2.08807,-12.47518 -0.23329,-7.98355 0.22945,-13.64146 1.74698,-21.36021 2.9736,-15.12489 2.5995,-19.36799 -1.21229,-13.75 -1.18689,1.74929 -1.8008,1.98592 -2.75868,1.0633 -0.97031,-0.9346 -0.35768,-2.95283 2.88371,-9.5000001 6.56805,-13.2665898 8.51896,-21.9277899 8.51735,-37.8132999 -7.5e-4,-7.425 -0.3457,-14.85 -0.76655,-16.5 l -0.76519,-3 -1.47562,2.80669 c -1.26259,2.40148 -1.99697,2.76241 -5.08669,2.5 -4.22602,-0.35892 -5.81698,-2.80669 -1.82424,-2.80669 4.57494,0 5.9402,-7.58888 2.94611,-16.37606 -1.78477,-5.23801 -1.29284,-6.67041 1.65795,-4.82761 1.83281,1.14461 1.95452,0.93468 1.95452,-3.37127 0,-2.77051 1.18995,-7.56366 3,-12.08403 3.36885,-8.4133 3.63225,-11.6857 1.50499,-18.697407 -2.28916,-7.54536 -4.88961,-10.94178 -15.10777,-19.73204 -5.21514,-4.48638 -9.31319,-8.66432 -9.10678,-9.28432 1.2861,-3.8631 9.25418,1.03379 20.02303,12.30541 8.26108,8.64678 9.41308,11.15893 10.3487,22.567327 0.50153,6.11541 0.23221,7.82141 -2.13121,13.5 -3.70041,8.891 -4.18133,16.36047 -1.90557,29.59681 1.88201,10.94621 2.52445,31.00701 1.18426,36.97992 -0.6601,2.94196 -0.47393,3.16817 4.25,5.16398 7.73852,3.26942 5.90364,7.61491 -2.05726,4.87216 l -3.92494,-1.35225 -2.62852,7.89273 c -2.19631,6.5949099 -2.44932,8.4067697 -1.53872,11.01891 0.59938,1.7194 1.08979,5.93664 1.08979,9.37163 0,15.71524 8.29114,29.47271 28.65344,47.5446 2.22381,1.97366 6.24902,7.2807 8.94492,11.79341 4.17533,6.98914 4.94853,7.82805 5.21806,5.66151 0.56485,-4.54028 4.18358,-2.53256 4.18358,2.3211 0,0.93552 -1.60816,4.72948 -3.5737,8.431041 l -3.5737,6.730092 4.14015,4.70345 c 4.77439,5.424 10.18062,16.10783 12.53456,24.7709 0.89668,3.3 1.88097,11.02493 2.18731,17.1665 0.38572,7.73309 0.90618,11.03251 1.69269,10.73069 1.72701,-0.66271 3.3817,-3.75558 4.12284,-7.70624 0.61116,-3.25774 0.49136,-3.50934 -1.43159,-3.00647 -1.46277,0.38252 -2.09856,0.0806 -2.09856,-0.99642 0,-1.67645 2.59289,-4.68806 4.03624,-4.68806 0.49137,0 1.39121,-0.93018 1.99965,-2.06706 0.8588,-1.60469 0.75483,-2.6034 -0.46482,-4.46481 -0.86409,-1.31877 -1.57107,-3.12159 -1.57107,-4.00627 0,-2.82653 3.3982,-1.12778 5.47387,2.73638 1.79761,3.34649 1.84808,4.0152 0.56526,7.4882 -0.77473,2.09746 -1.69549,5.95645 -2.04612,8.57553 l -0.63752,4.76197 3.57225,-0.61477 c 8.04939,-1.38526 10.02078,-3.22133 13.11286,-12.21273 1.57054,-4.56695 2.56678,-9.06695 2.21387,-10 -0.35291,-0.93304 -2.14271,-3.79351 -3.97733,-6.35661 -1.83462,-2.56309 -6.50613,-11.30073 -10.38113,-19.41697 -8.24215,-17.263313 -14.66673,-38.965343 -17.90559,-60.484523 -3.22787,-21.44618 -9.04268,-36.30139 -21.83567,-55.78404 l -5.87973,-8.95434 -1.38751,3.15003 c -1.71797,3.90026 -5.21662,4.35906 -5.72659,0.75096 -0.1865,-1.31949 0.90969,-6.04449 2.43598,-10.5 3.93003,-11.47248 3.66455,-17.03047 -1.94732,-40.76837 -2.55727,-10.81708 -4.64958,-19.92958 -4.64958,-20.25 0,-0.32041 -0.62686,-0.58257 -1.39301,-0.58257 -2.15072,0 -2.6428,-2.53819 -1.57929,-8.14608 1.39254,-7.34283 1.20233,-16.262617 -0.56451,-26.472937 -2.85878,-16.52039 -9.65461,-26.41108 -22.46319,-32.69306 -6.29774,-3.08873 -6.85262,-3.17925 -17.83243,-2.90887 -12.78383,0.31479 -22.10751,-1.01296 -26.95371,-3.83838 -2.38147,-1.38844 -3.37858,-1.57517 -3.62191,-0.67828 -2.39575,8.83047 -3.93535,12.7384 -5.61872,14.26183 -3.59845,3.25655 -4.3881,0.5588 -2.05112,-7.00746 1.14284,-3.70009 2.07789,-7.91924 2.07789,-9.37589 l 0,-2.64845 -9.83177,0.004 c -9.72948,0.004 -9.92974,-0.0454 -19.25,-4.72131 -11.50743,-5.77323 -21.75782,-13.28763 -22.5768,-16.55069 -0.33158,-1.32111 -0.036,-4.11962 0.65682,-6.2189 0.73391,-2.22379 0.97825,-5.31705 0.58541,-7.41111 -0.72764,-3.87882 -0.47338,-4.14096 2.48208,-2.55924 1.64081,0.87814 1.93426,2.14124 1.93426,8.32569 0,8.92393 0.44771,9.43162 14.5,16.44299 14.49274,7.23113 20.34239,8.47841 28.77733,6.13601 5.80596,-1.61232 10.38402,-6.33798 14.25354,-14.71307 4.31528,-9.33984 5.45305,-16.16263 5.45755,-32.7268 0.01,-35.31298 -10.08453,-58.24949 -28.90907,-65.68896 -4.45758,-1.76164 -7.69468,-2.21563 -16.10038,-2.258 -9.90846,-0.0499 -10.90654,0.13675 -17.14238,3.20664 -7.87728,3.87798 -12.99973,9.22746 -16.97952,17.73207 -5.01943,10.72628 -5.18077,24.12847 -0.31714,26.34449 1.43244,0.65266 2.46007,1.96529 2.46007,3.14232 0,2.0871 -2.4072,2.78962 -3.5,1.02144 -1.16874,-1.89107 -6.31748,-1.09866 -7.94329,1.22251 -1.9912,2.84283 -2.00036,10.04031 -0.0181,14.21762 1.7303,3.64635 7.11939,9.20638 10.61013,10.94671 5.10823,2.54673 5.39205,5.37669 2.21775,22.11316 -4.72382,24.90625 -10.0569,32.37117 -27.85599,38.9911 -10.93305,4.06627 -15.27474,7.05421 -26.01461,17.90317 -5.50226,5.55815 -13.27613,12.95844 -17.27527,16.44509 -10.17369,8.86994 -11.53397,11.89548 -11.05148,24.580787 0.33285,8.75123 0.79692,10.96004 3.52072,16.7575 1.72553,3.6727 4.97621,9.38551 7.22373,12.69513 2.24752,3.30962 4.0864,6.71718 4.0864,7.57236 0,2.42949 -4.06917,1.86278 -7.03632,-0.97993 l -2.64576,-2.5348 -1.16416,9.7848 c -2.06347,17.34372 1.43039,35.53791 8.67624,45.18123 2.08938,2.78071 6.91988,8.7027597 10.73444,13.16013 7.53979,8.81035 8.13317,10.23066 8.33199,19.94344 0.15445,7.54484 1.59343,10.98758 5.3443,12.78609 1.9488,0.93444 2.85655,2.30159 3.31988,5 1.22149,7.11394 7.31558,28.78049 10.80602,38.41907 4.04797,11.178153 7.92163,17.526403 16.55345,27.128203 7.705,8.57082 9.24499,10.9261 10.13633,15.50271 l 0.71359,3.66392 0.115,-4.25 c 0.0632,-2.3375 0.51252,-4.25 0.99837,-4.25 1.31184,0 2.08761,3.78031 2.10298,10.24769 0.0117,4.91565 0.50332,6.43562 3.39629,10.5 7.58235,10.65256 11.72444,22.48515 13.128,37.50231 l 0.72434,7.75 4.88251,0.17857 c 2.68538,0.0982 5.89501,0.21072 7.13251,0.25 1.61617,0.0513 2.34221,-0.57914 2.57734,-2.23799 0.48672,-3.4339 4.56555,-2.61798 4.98304,0.9968 0.58362,5.05322 -4.69046,6.77709 -16.06038,5.24944 -4.70335,-0.63194 -4.75011,-0.61021 -4.76101,2.21249 -0.006,1.56788 -0.28236,4.49158 -0.61403,6.49711 -0.52501,3.17465 -0.31056,3.73924 1.65752,4.36389 2.53168,0.80352 3.71941,-0.58629 5.55706,-6.50256 1.48716,-4.7879 4.41266,-5.33993 4.4043,-0.83107 -0.003,1.82782 -0.67839,4.61226 -1.5,6.18763 -0.82161,1.57537 -1.49384,3.09639 -1.49384,3.38005 0,1.20979 9.24687,-0.6578 10.96773,-2.21515 z M 430.22044,81.826917 c -4.99517,-4.5105 -12.28237,-11.01932 -16.19379,-14.46402 -10.87792,-9.57997 -16.44538,-22.67981 -10.59336,-24.92544 2.20041,-0.84437 3.33606,1.42642 3.35396,6.70641 0.0226,6.66389 3.26796,10.60057 15.70979,19.05613 14.38465,9.77592 20.30552,15.33444 20.30552,19.06284 0,4.64727 -2.71405,3.4747 -12.58212,-5.43592 z m 58.79116,-9.68536 c -4.48295,-1.06213 -6.9023,-3.47557 -10.37544,-10.35007 -3.54663,-7.01996 -3.5799,-11.98849 -0.0836,-12.48504 1.4933,-0.21208 2.25,0.19569 2.25,1.21249 0,0.84262 0.95009,4.07138 2.11131,7.17502 1.90267,5.08533 2.56971,5.83386 6.75,7.57456 8.16535,3.40011 11.13869,5.1392 11.13869,6.51495 0,1.50137 -6.17409,1.68888 -11.79096,0.35809 z m 35.5196,-18.14754 c -3.68923,-2.0646 -0.46203,-12.86802 3.84394,-12.86802 1.71871,0 1.81074,2.59206 0.30442,8.57418 -1.29093,5.12678 -1.77137,5.62406 -4.14836,4.29384 z m -133.10281,-7.40072 c -1.25112,-3.26037 -0.70106,-9.4673 0.83899,-9.4673 2.08229,0 3.70832,3.54267 3.34509,7.28802 -0.339,3.49558 -3.12261,4.94543 -4.18408,2.17928 z m 86.00602,-4.49297 c -2.46081,-2.92451 -3.6977,-8.97433 -1.8348,-8.97433 0.43838,0 2.52126,1.76574 4.62861,3.92387 2.10736,2.15813 4.93065,4.19973 6.27399,4.53688 3.67774,0.92306 2.18918,2.9987 -2.39552,3.34031 -3.48203,0.25944 -4.40415,-0.13121 -6.67228,-2.82673 z m 102.02931,-5.72433 c -0.76461,-1.5125 -2.18714,-5.225 -3.16116,-8.25 -2.2962,-7.13125 -3.63899,-9.71883 -8.0258,-15.46586 -5.19876,-6.81074 -3.56677,-10.00724 2.50206,-4.9006601 7.16056,6.0252101 16.11285,31.3665201 11.0808,31.3665201 -0.55313,0 -1.63129,-1.2375 -2.3959,-2.75 z m -102.16116,-4.9152 c -4.09424,-2.16328 -6.5,-4.38021 -6.5,-5.98979 0,-1.77927 3.99493,-1.66342 6.44113,0.18679 1.06762,0.80751 3.61759,1.4682 5.66659,1.4682 2.91191,0 4.16288,-0.60054 5.72845,-2.75 2.13808,-2.93547 4.7568,-3.26397 17.79131,-2.23177 4.41464,0.34959 5.63397,0.0197 8.77058,-2.37268 6.31434,-4.81618 6.72762,-6.03753 5.40015,-15.95894 -0.85037,-6.35556 -0.86754,-9.01728 -0.0634,-9.82144 0.80417,-0.80417 1.66711,0.002 3.18415,2.9760101 2.91085,5.7057399 2.97943,18.7469499 0.11773,22.3850299 -2.98426,3.79386 -10.97053,6.75418 -20.12595,7.46019 -6.58501,0.5078 -8.8366,1.14239 -12.24008,3.44974 -4.75819,3.22576 -9.56472,3.63233 -14.17068,1.19866 z m 66.20332,-1.86622 c -1.52574,-2.09631 -2.60812,-2.46858 -7.17742,-2.46858 -4.65238,0 -5.66773,-0.36485 -7.50089,-2.69534 -2.18617,-2.77926 -2.41382,-7.35906 -0.39864,-8.01966 0.6195,-0.20309 2.02876,1.16018 3.13167,3.02949 1.69138,2.86666 2.6995,3.47698 6.4397,3.89855 5.74013,0.647 9.80226,3.30002 9.80226,6.40197 0,3.06955 -2.00577,3.00119 -4.29668,-0.14643 z m -156.15155,-3.38482 c -0.32253,-0.52187 -2.08086,-8.51671 -3.90739,-17.7663101 -1.82653,-9.24959982 -4.26843,-18.9549499 -5.42644,-21.5674499 -2.17256,-4.90135 -2.28892,-4.96322 -9.71794,-5.16751 -2.51133,-0.0691 -3,-0.48971 -3,-2.58249 0,-2.21268 0.47269,-2.53457 4.11291,-2.8008 7.96771,-0.58272 13.66877,7.52756 17.44235,24.81335 2.42721,11.11838 3.55854,24.49007 2.14589,25.36313 -0.58462,0.36132 -1.32684,0.22996 -1.64938,-0.29192 z m 68.57103,-8.04172 c -4.49849,-1.12086 -8.54843,-4.24236 -8.94235,-6.89237 -0.4014,-2.7002501 -0.18607,-2.6892301 7.49473,0.38357 6.89521,2.75852 8.01966,2.5803 12.24913,-1.9414203 3.20465,-3.4260598 4.07569,-3.2692198 4.07569,0.7338703 0,6.20995 -6.78955,9.73149 -14.8772,7.71635 z m 10.02075,-16.6578 c -5.58345,-2.7823499 -8.52759,-6.1400299 -7.96613,-9.08507 0.49629,-2.60313 4.82258,-3.03329 4.82258,-0.4795 0,1.07732 0.82161,2.9734 1.82579,4.2135201 2.81729,3.47919998 7.52262,1.9690099 20.25979,-6.5024801 9.71813,-6.46351 11.97638,-7.52913 18.16928,-8.5737 9.02785,-1.52274 11.18388,-3.52449 12.08878,-11.22373 0.64907,-5.52261 0.2553,-7.27202 -3.82274,-16.98328 -1.38857,-3.30668 1.90632,-1.81023 4.69357,2.13169 3.91422,5.53577 5.25103,12.32385 3.71128,18.84524 -1.94063,8.21932 -5.3228,10.80575 -17.35761,13.27386 -5.38217,1.10378 -6.54825,1.8465 -12.58347,8.01488 -9.30509,9.5104 -14.66378,10.94184 -23.84112,6.36857 z m -66.98582,-13.69419 c -1.55439,-1.87293 -5.16056,-17.98703 -5.14241,-22.97878 0.0166,-4.57992 1.194,-7.31797 2.73671,-6.36452 0.5366,0.33163 1.21386,3.65179 1.50501,7.37811 0.29116,3.72633 1.54707,9.75664 2.79092,13.40069 2.13018,6.24072 2.16914,9.87445 0.10587,9.87445 -0.49992,0 -1.39816,-0.58948 -1.9961,-1.30995 z m 146.01535,-2.57856 c -1.4702,-1.58868 -3.22935,-3.58802 -3.90924,-4.44298 -0.9949,-1.25108 -2.60356,-1.43983 -8.24236,-0.96709 l -7.00619,0.58737 -2.04919,-4.63252 c -1.59011,-3.59471 -1.80797,-5.08323 -0.97246,-6.64439 1.56707,-2.92809 2.76626,-2.48948 4.75225,1.73812 l 1.76162,3.75 7.64463,0.54322 c 7.8545,0.55814 10.30126,1.65924 11.40342,5.13183 0.47758,1.50473 1.20865,1.84996 2.97744,1.40602 3.26145,-0.81857 3.81535,0.70635 1.38079,3.80139 -2.64696,3.36508 -4.43374,3.30253 -7.74071,-0.27097 z m -72.74614,-4.54657 c -1.11005,-4.4228 0.31977,-7.48366 4.34931,-9.31074 7.29293,-3.30676 9.42,-5.43515 12.763,-12.77087 4.85524,-10.65413 10.22735,-13.94431 15.59997,-9.55429 3.20037,2.61505 1.46057,4.62972 -2.64883,3.06733 -4.17823,-1.58856 -5.19736,-0.72482 -6.48967,5.50017 -1.46534,7.05852 -5.32628,11.62944 -13.16581,15.58682 -5.45042,2.75136 -5.82165,3.16211 -5.58664,6.18132 0.20789,2.67094 -0.13392,3.28907 -1.96292,3.54965 -1.67111,0.23809 -2.37266,-0.31399 -2.85841,-2.24939 z m 43.74737,-27.87937 c -2.6688,-2.84081 -2.9101,-5.20881 -0.42431,-4.16394 4.66829,1.96224 6.25,1.78381 6.25,-0.70503 0,-5.78251 6.56248,-6.56864 13.07763,-1.56658 4.59182,3.5254 6.73225,6.27345 5.69458,7.31113 -0.36138,0.36138 -2.00687,-0.30409 -3.65663,-1.47883 -1.64976,-1.17473 -4.60067,-2.80486 -6.55757,-3.62251 l -3.55801,-1.48663 0,2.81342 c 0,1.54738 -0.54,3.35342 -1.2,4.01342 -2.02627,2.02627 -7.24249,1.42234 -9.62569,-1.11445 z m -103.76313,-24.87725 c -0.41832,-1.26957 -0.74871,-5.99793 -0.73419,-10.50749 0.0279,-8.67372 1.76107,-13.30081 4.98199,-13.30081 1.37508,0 1.48931,0.7003 0.77481,4.75 -0.76633,4.34349 -0.82175,9.85851 -0.17837,17.75 0.19632,2.40803 -0.18245,3.06083 -1.91953,3.3083 -1.52693,0.21752 -2.38805,-0.37134 -2.92471,-2 z m -0.92813,-27.972217 c 0.73453,-3.33253 0.86776,-9.20595 0.31155,-13.73488 -0.45186,-3.67933 1.90858,-3.63665 4.17175,0.0754 3.69714,6.06409 1.993,15.964657 -2.86751,16.659447 -2.1824,0.31196 -2.29834,0.0967 -1.61579,-2.999997 z m -29.21865,-16.36346 c -3.35129,-2.34732 -1.81559,-4.47263 3.23181,-4.47263 4.63082,0 9.352,2.81856 8.10389,4.83805 -1.0371,1.67806 -8.77433,1.42864 -11.3357,-0.36542 z m 30.2356,-8.09641 c -1.54603,-1.20603 -3.54396,-1.43801 -8.80203,-1.02201 -5.62636,0.44513 -6.90755,0.2632 -7.41248,-1.05264 -1.02209,-2.6635 2.57189,-4.30157 9.43776,-4.30157 9.906,0 15.64521,3.23155 12.07675,6.8 -1.57633,1.57634 -2.86847,1.47302 -5.3,-0.42378 z m 12.19916,-3.33267 c -8.77509,-1.72056 -6.95882,-4.99247 2.80084,-5.04557 7.72147,-0.042 22.30939,-1.52677 35.04268,-3.56666 l 10.04269,-1.60885 7.25109,3.24223 c 5.10899,2.28441 7.1609,3.71047 6.94583,4.82728 -0.49394,2.56478 -3.33122,2.4226 -9.82683,-0.49246 l -6.09833,-2.73676 -18.67856,2.70514 c -10.27321,1.48783 -19.80357,2.86619 -21.17857,3.06302 -1.375,0.19684 -4.21038,0.0225 -6.30084,-0.38737 z m 67.96751,-4.71022 c -4.33705,-4.33704 8.75051,-13.1155 21.02213,-14.10055 5.41943,-0.43502 6.3112,-0.27181 6.3112,1.15506 0,2.06539 -3.43302,3.41692 -10.81097,4.25612 -5.06394,0.57599 -6.13299,1.12555 -9.72952,5.00157 -3.93671,4.24264 -5.42826,5.05239 -6.79284,3.6878 z m -38.56608,-13.08333 c -1.06703,-2.0625 -4.59961,-6.07164 -7.85019,-8.9092 -6.31158,-5.50965 -12.06043,-14.78751 -10.95223,-17.67543 1.072,-2.79358 2.23968,-1.90163 4.69276,3.58463 1.53863,3.44112 4.83375,7.66183 9.56359,12.25 7.62744,7.39896 9.94728,10.74994 9.05387,13.07814 -0.92104,2.40018 -2.47749,1.59632 -4.5078,-2.32814 z m 129.10743,344.06186 c 9.08217,-2.1921 15.24349,-7.49314 20.18151,-17.36367 7.56088,-15.11331 8.41865,-31.15771 2.63161,-49.22367 -5.09647,-15.91013 -17.66091,-30.586 -28.845,-33.692322 -4.2503,-1.18051 -13.53618,-1.19791 -17.17614,-0.0322 l -2.5,0.80064 2.43428,0.0997 c 11.02397,0.45142 26.77853,19.702772 31.55578,38.559772 1.97167,7.78268 1.93977,24.5212 -0.0654,34.33206 -2.3043,11.27421 -5.8736,18.52709 -11.69199,23.75832 -2.72192,2.44724 -4.62715,4.44952 -4.23387,4.44952 0.39329,0 3.86246,-0.75966 7.70926,-1.68814 z m -10.27563,-2.27737 c 5.51975,-2.81596 10.73438,-9.37641 12.62656,-15.88527 4.54662,-15.63982 5.34941,-26.16862 2.95923,-38.81125 -3.2577,-17.2313 -15.93387,-35.2829 -26.91102,-38.32287 -7.5865,-2.10098 -11.99576,-0.17402 -17.1269,7.4849 -11.81157,17.63037 -12.06474,43.12073 -0.64528,64.9684 4.10016,7.8444 12.66501,17.1762 18.66502,20.33641 4.99874,2.63283 5.69191,2.64809 10.43239,0.22968 z m 86.2842,-17.95689 c 5.73487,-3.63695 9.16199,-9.34032 11.81584,-19.66377 5.67516,-22.07634 2.4563,-42.23485 -9.34677,-58.53523 -6.98953,-9.652743 -11.97564,-13.127283 -19.63304,-13.681163 -5.87898,-0.42525 -5.96137,-0.39357 -10.73853,4.12954 l -4.81409,4.55808 7.27769,14.621833 c 4.00274,8.04201 8.84024,16.89337 10.75,19.66969 3.86185,5.61413 4.29377,8.96952 1.8801,14.60554 -0.87572,2.04483 -2.23581,5.83066 -3.02243,8.41294 -1.61507,5.30191 -4.96368,8.44761 -9.99785,9.39202 -1.87528,0.35181 -3.63104,0.99794 -3.90168,1.43585 -0.93791,1.51756 11.62906,13.12225 16.83546,15.54634 6.58663,3.06672 7.32893,3.03842 12.8953,-0.49167 z m 9.25514,1.49866 c 4.51442,-1.88625 12.09509,-8.96576 15.01112,-14.01874 6.5266,-11.30947 8.60336,-29.24971 5.09692,-44.02989 -5.34495,-22.529672 -21.76985,-39.600623 -37.98949,-39.483733 l -6.09028,0.0439 3.8725,1.38038 c 10.82295,3.85792 22.41902,19.576823 26.65206,36.127833 4.89034,19.12107 0.55949,47.02259 -8.88708,57.25508 -4.03099,4.36634 -3.38859,5.11632 2.33425,2.72517 z M 533.00262,163.62001 c -0.84105,-3.02171 -1.90513,-5.49402 -2.36462,-5.49402 -1.11597,0 -1.05467,1.57483 0.32962,8.46772 0.98203,4.88989 1.35352,5.54356 2.36462,4.1608 0.94339,-1.29016 0.873,-2.81374 -0.32962,-7.1345 z m -2.70006,-22.9955 c 0,-6.87425 -0.0503,-12.49861 -0.11168,-12.49858 -0.0614,3e-5 -3.11341,1.3611 -6.78218,3.0246 l -6.67048,3.02455 2.42192,3.22545 c 1.33206,1.774 3.82801,6.03796 5.54657,9.47546 4.70627,9.41361 5.59585,8.4198 5.59585,-6.25148 z M 420.31282,128.1408 c -1.465,-2.11401 -3.52913,-4.6269 -4.58695,-5.58422 -1.87317,-1.69519 -1.92331,-1.61132 -1.92331,3.21741 0,4.84125 0.10006,5.00675 4.25,7.02979 5.36497,2.61535 6.16309,0.9688 2.26026,-4.66298 z m 102.88661,-3.63777 7.04671,-3.37704 -5.07091,0 c -2.789,0 -8.59402,0.29781 -12.90003,0.6618 l -7.82912,0.66181 3.92824,3.31514 c 4.42931,3.73801 4.3845,3.74182 14.82511,-1.26171 z m -36.43538,-7.03956 c 5.24618,-0.0894 13.36351,-0.62849 18.03851,-1.19801 4.675,-0.56952 13.55332,-1.34119 19.7296,-1.71481 l 11.2296,-0.67932 2.44968,-4.12267 c 2.75775,-4.64111 6.58485,-8.94082 11.24026,-12.628282 2.75631,-2.183221 3.23746,-3.305221 3.8571,-8.994381 l 0.70797,-6.5 -2.85711,2.69346 c -5.97508,5.63287 -20.81082,10.60906 -37.8571,12.698001 -4.95,0.6066 -17.4375,1.10417 -27.75,1.10572 l -18.75,0.003 -0.022,4.249992 c -0.0121,2.3375 -0.91995,6.22923 -2.0175,8.64828 -1.78599,3.93643 -1.94816,9.36104 -0.36469,12.19881 0.18325,0.3284 3.14431,-0.7966 6.58015,-2.5 5.54885,-2.75098 7.31293,-3.11525 15.78549,-3.25961 z M 462.46484,97.875998 c -0.27741,-0.6875 -0.50439,-0.125 -0.50439,1.25 0,1.374992 0.22698,1.937492 0.50439,1.249992 0.27741,-0.687496 0.27741,-1.812492 0,-2.499992 z m 131.32305,-0.7226 c 0.77787,-1.453451 0.0234,-3.796371 -3.44392,-10.694301 -3.79902,-7.55787 -5.72889,-10.01752 -13.36758,-17.03716 -8.48874,-7.8008 -18.0341,-19.28139 -21.44764,-25.79594 -1.45936,-2.78509 -1.62965,-2.85672 -2.37715,-1 -0.44286,1.1 -0.81506,3.95516 -0.82712,6.34479 -0.0178,3.52478 0.48409,4.75156 2.65916,6.5 2.49272,2.0038 2.71409,2.82262 3.15095,11.65521 0.25843,5.225 0.49067,13.00247 0.51609,17.28326 l 0.0462,7.78326 6.38207,-0.65386 c 7.60266,-0.77891 14.9613,1.05293 21.72358,5.407831 4.80215,3.092572 5.431,3.111202 6.98533,0.20691 z m -67.48533,-7.933281 c 5.5,-1.14059 12.85624,-3.47811 16.3472,-5.19448 6.74671,-3.31709 8.28474,-5.46115 9.46276,-13.19132 l 0.57783,-3.79169 -3.08645,2.59708 c -6.88019,5.78929 -22.12686,11.40092 -36.80882,13.54771 -8.28134,1.21089 -37.62275,0.77915 -47.74252,-0.70251 l -4.25,-0.62225 0,4.56525 c 0,4.19849 0.22093,4.60339 2.75,5.04009 1.5125,0.26117 14,0.32884 27.75,0.15039 20.50828,-0.26617 26.79669,-0.69706 35,-2.39827 z m -92.5,-106.48713 c 0,-0.21616 -0.675,-0.65203 -1.5,-0.96862 -0.825,-0.31658 -1.5,-0.13972 -1.5,0.39301 0,0.53274 0.675,0.96862 1.5,0.96862 0.825,0 1.5,-0.17686 1.5,-0.39301 z"
       id="path3204"
       inkscape:connector-curvature="0" />
  </g>
</svg>
