<?xml version="1.0" encoding="UTF-8" standalone="no"?>
<!-- Created with Inkscape (http://www.inkscape.org/) -->

<svg
   xmlns:dc="http://purl.org/dc/elements/1.1/"
   xmlns:cc="http://creativecommons.org/ns#"
   xmlns:rdf="http://www.w3.org/1999/02/22-rdf-syntax-ns#"
   xmlns:svg="http://www.w3.org/2000/svg"
   xmlns="http://www.w3.org/2000/svg"
   xmlns:xlink="http://www.w3.org/1999/xlink"
   xmlns:sodipodi="http://sodipodi.sourceforge.net/DTD/sodipodi-0.dtd"
   xmlns:inkscape="http://www.inkscape.org/namespaces/inkscape"
   width="747.20038"
   height="899.87061"
   id="svg2"
   version="1.1"
   inkscape:version="0.48.3.1 r9886"
   sodipodi:docname="Concentration-curls-2.svg">
  <defs
     id="defs4">
    <radialGradient
       gradientUnits="userSpaceOnUse"
       gradientTransform="matrix(1,0,0,0.91819829,-19.285714,-7.9105395)"
       r="209.56604"
       fy="287.50052"
       fx="398.1105"
       cy="287.50052"
       cx="398.1105"
       id="radialGradient5255"
       xlink:href="#linearGradient5249"
       inkscape:collect="always" />
    <linearGradient
       id="linearGradient5249"
       inkscape:collect="always">
      <stop
         id="stop5251"
         offset="0"
         style="stop-color:#e3e3e3;stop-opacity:1;" />
      <stop
         id="stop5253"
         offset="1"
         style="stop-color:#e3e3e3;stop-opacity:0;" />
    </linearGradient>
  </defs>
  <sodipodi:namedview
     id="base"
     pagecolor="#ffffff"
     bordercolor="#666666"
     borderopacity="1.0"
     inkscape:pageopacity="0.0"
     inkscape:pageshadow="2"
     inkscape:zoom="0.24748738"
     inkscape:cx="291.42916"
     inkscape:cy="-224.28083"
     inkscape:document-units="px"
     inkscape:current-layer="layer1"
     showgrid="false"
     showguides="true"
     inkscape:guide-bbox="true"
     fit-margin-top="0"
     fit-margin-left="0"
     fit-margin-right="0"
     fit-margin-bottom="0"
     inkscape:window-width="1217"
     inkscape:window-height="829"
     inkscape:window-x="378"
     inkscape:window-y="286"
     inkscape:window-maximized="0">
    <sodipodi:guide
       orientation="-0.70710678,0.70710678"
       position="-2063.9941,623.66147"
       id="guide2985" />
  </sodipodi:namedview>
  <metadata
     id="metadata7">
    <rdf:RDF>
      <cc:Work
         rdf:about="">
        <dc:format>image/svg+xml</dc:format>
        <dc:type
           rdf:resource="http://purl.org/dc/dcmitype/StillImage" />
        <dc:title></dc:title>
      </cc:Work>
    </rdf:RDF>
  </metadata>
  <g
     inkscape:label="Ebene 1"
     inkscape:groupmode="layer"
     id="layer1"
     transform="translate(-635.42269,249.5612)">
    <path
       style="fill:#000000"
       d="m 1058.0213,647.43264 c -1.5754,-0.82161 -4.5245,-1.49384 -6.5537,-1.49384 -6.6269,0 -19.4378,-7.9198 -22.5519,-13.94172 -0.7854,-1.51895 -2.083,-6.83037 -2.8835,-11.80316 -1.0966,-6.81288 -2.4649,-10.95751 -5.551,-16.81515 -4.0125,-7.61592 -4.0956,-7.9792 -4.0956,-17.89675 0,-5.77207 -0.6447,-12.59824 -1.5,-15.88191 -0.825,-3.16739 -1.5,-7.28264 -1.5,-9.145 0,-1.86236 -0.4605,-4.59726 -1.0233,-6.07754 -0.7819,-2.05666 -0.533,-4.6135 1.0554,-10.84102 l 2.0787,-8.14959 -2.0786,-14.47408 c -1.1432,-7.96074 -3.636,-22.57408 -5.5396,-32.47408 -4.7182,-24.53781 -5.4498,-30.26488 -5.4728,-42.84292 -0.033,-17.78414 3.3451,-31.04559 15.2623,-59.92402 3.9274,-9.51708 4.3481,-11.25831 3.6241,-15 -0.4505,-2.32818 -0.8387,-10.21001 -0.8626,-17.51518 -0.05,-15.06487 -0.7987,-17.75902 -6.998,-25.16345 -2.185,-2.60967 -5.1378,-7.17701 -6.5619,-10.14964 -1.4241,-2.97263 -2.946,-6.07013 -3.3819,-6.88331 -0.436,-0.81319 -2.2095,-1.76829 -3.94109,-2.12244 -4.2758,-0.8745 -5.6943,-2.23548 -8.6012,-8.25242 -2.2266,-4.60866 -3.8266,-11.54647 -6.2712,-27.19197 l -0.7883,-5.04535 -69.5,22.78232 c -38.225,12.53028 -70.2094,22.78819 -71.0766,22.79535 -0.8671,0.007 -5.0296,-3.53529 -9.25,-7.87213 l -7.6734,-7.88517 0,-9.03305 c 0,-4.96817 0.2407,-9.66016 0.5348,-10.42664 0.3105,-0.80922 14.7747,-5.98026 34.4939,-12.33179 l 33.9591,-10.93819 0.01,-39.09261 0.01,-39.09262 -5.8018,-4.90738 c -3.191,-2.69907 -24.3466,-21.29634 -47.0123,-41.32728 l -41.2105,-36.419889 -1.9877,-6.43545 c -2.2403,-7.25335 -2.5272,-13.37877 -0.8516,-18.185309 1.5506,-4.44803 9.9078,-9.69416 22.184,-13.92573 7.7163,-2.65977 9.6342,-3.694601 9.2393,-4.985131 -3.884,-12.69431 -2.4615,-42.7546696 2.9402,-62.1286 1.685,-6.04365 1.3025,-9.4341 -1.7426,-15.44733 -1.6463,-3.25094 -1.8783,-5.01515 -1.3152,-10 0.3761,-3.328969 0.843,-12.352669 1.0376,-20.052669 0.3298,-13.05316 0.7001,-15.31881 5.4753,-33.5 5.3865,-20.509092 6.9635,-29.445622 7.0144,-39.750002 0.033,-6.65228 -0.057,-6.80852 -3.0079,-5.22922 -3.9781,2.12899 -12.3133,3.04792 -17.6317,1.94382 -13.6495,-2.83368 -21.4716,-15.57422 -21.4663,-34.9646 0.01,-25.377 14.7493,-51.24558 34.8431,-61.13951 3.9081,-1.9243 6.3781,-2.36049 13.367,-2.36049 7.6928,0 9.0027,0.28433 12.7577,2.76928 7.1057,4.70235 11.2237,11.93264 13.6477,23.96253 0.3328,1.65133 1.6713,3.31139 3.3842,4.19718 l 2.8337,1.46536 3.1713,-8.34871 c 6.3807,-16.79772 18.9446,-31.59813 32.7883,-38.6248 6.0154,-3.05324 7.6049,-3.42084 14.7918,-3.42084 9.6406,0 15.0357,2.47539 20.2155,9.27526 3.7738,4.95421 5.2429,9.30353 6.0276,17.84586 l 0.5622,6.12112 6.1235,3.98678 c 3.3679,2.19273 7.3455,4.28042 8.8391,4.63932 1.4936,0.3589 3.9326,2.17769 5.42,4.04174 l 2.7043,3.3892 4.847,-3.33416 c 14.09689,-9.69696 29.22469,-9.8181 38.73269,-0.31016 14.8641,14.86408 10.1426,49.65384 -9.7691,71.98266 l -4.3494,4.87741 3.038,4.74248 c 4.5409,7.08853 11.7799,25.108142 13.5763,33.794612 1.0361,5.0099 2.4486,8.68604 4.0844,10.63017 3.3759,4.012 3.8611,6.5336 3.104,16.13271 -1.9663,24.932209 -1.9904,23.87018 0.7568,33.286839 5.5952,19.1791204 5.5611,21.6584604 -0.583,42.39816 -2.9741,10.03936 -3.1145,11.32144 -3.1998,29.22409 l -0.089,18.724091 3.2164,1.73219 c 3.2808,1.76683 11.6005,12.004579 14.8874,18.319629 1.3617,2.61615 1.976,6.78287 2.4327,16.5 0.7273,15.476659 1.5974,17.550279 14.9572,35.644899 6.3892,8.65356 9.392,11.87702 12.1687,13.06282 2.2115,0.94446 4.6846,3.15577 6.1818,5.52741 2.6134,4.14 4.254,4.83888 19.4338,8.27883 3.8189,0.86542 6.1553,2.14813 8.5,4.66651 1.7783,1.91017 4.5312,4.15626 6.1175,4.99132 4.9487,2.60511 30.5539,11.04081 43.1466,14.21475 13.4981,3.40212 19.0365,5.45252 21.9693,8.13334 1.1,1.0055 4.925,2.81185 8.5,4.01412 3.575,1.20226 13.7,5.67395 22.5,9.93707 14.8386,7.18852 16.7621,8.44697 26.5,17.33767 8.896,8.12207 12.2567,10.44772 22,15.224 12.5226,6.13877 15.8529,8.71887 19.7196,15.27761 2.785,4.72392 8.2781,23.84074 8.2795,28.81392 5e-4,1.71835 -0.6741,5.03743 -1.4991,7.37573 -1.968,5.57775 -1.8926,10.67844 0.4069,27.52733 2.6782,19.62392 3.5991,58.17661 1.9103,79.97267 -1.8775,24.23065 -1.664,43.48161 0.5656,51 2.0767,7.00275 5.069,10.50474 15.6172,18.27719 4.125,3.03952 13.125,11.21865 20,18.17584 9.8719,9.98993 13.341,12.87687 16.5,13.73115 2.2,0.59493 6.25,2.02074 9,3.16845 2.75,1.14772 7.5438,2.77527 10.6529,3.61678 7.5277,2.03745 14.6851,8.40145 15.5283,13.8069 0.537,3.44316 0.2335,4.1145 -3.4409,7.60986 -8.2702,7.86729 -17.306,9.89457 -29.7058,6.66484 -3.0597,-0.79695 -9.4941,-1.7645 -14.2988,-2.15012 -7.9808,-0.64054 -9.5107,-1.13056 -17.7031,-5.6704 -4.9321,-2.7331 -9.9062,-5.58436 -11.0535,-6.33613 -2.5129,-1.64652 -12.318,-5.10304 -18.3436,-6.46654 -3.3994,-0.76921 -7.1176,-0.51674 -16.8135,1.14166 -14.406,2.46401 -17.9161,2.10382 -23.0004,-2.36023 -7.7445,-6.79978 -9.0707,-15.29761 -4.4024,-28.20925 1.5908,-4.4 4.0351,-11.15 5.4317,-15 3.6059,-9.94015 5.3235,-26.93404 3.8066,-37.66077 -2.4291,-17.17648 -6.1047,-29.88358 -10.6559,-36.83923 -5.7514,-8.78989 -7.0821,-11.57562 -8.8584,-18.54434 -3.0348,-11.90622 -3.472,-19.26545 -2.0766,-34.95693 1.4922,-16.77848 1.7767,-30.44514 0.6681,-32.0864 -0.4041,-0.59823 -4.1092,-2.84823 -8.2336,-5 -4.5335,-2.36521 -9.7236,-6.17025 -13.1245,-9.6221 l -5.6256,-5.70977 -0.502,4.45339 c -0.6253,5.548 -4.4641,10.76999 -9.9895,13.58881 -2.2685,1.15731 -22.9834,8.76914 -46.0331,16.91518 -23.0497,8.14604 -42.0967,14.99913 -42.3267,15.22907 -0.2299,0.22995 -0.3014,23.37854 -0.1589,51.44132 l 0.2592,51.02323 36.8287,-14.40068 36.8287,-14.40068 10.4213,6.64347 10.4213,6.64348 0,11.2804 0,11.28041 -20.25,7.968 c -11.1375,4.38241 -43.1013,16.90265 -71.0306,27.82276 l -50.7806,19.85474 0.6163,21.03832 c 0.8176,27.91371 1.026,28.5981 12.5177,41.10824 7.3004,7.94752 10.0312,11.82678 13.6778,19.43008 3.4051,7.09995 6.2435,11.26846 11.2349,16.5 3.6733,3.85 7.2603,8.46598 7.9711,10.25773 0.7108,1.79175 3.0364,5.05477 5.1679,7.25114 5.4264,5.59159 5.2878,8.84194 -0.6295,14.75922 l -4.5049,4.50494 -6.3345,-0.50847 c -5.5138,-0.4426 -6.4919,-0.2564 -7.5496,1.43732 -1.6958,2.71536 -7.1939,4.79812 -12.6662,4.79812 -3.1102,0 -5.4569,0.65487 -7.167,2 -3.031,2.38424 -8.5955,2.60169 -12.6371,0.49384 z m 10.3643,-5.99384 c 0.791,-0.95309 2.9996,-1.5 6.0574,-1.5 7.7716,0 12.8285,-2.81659 12.9108,-7.19098 0.054,-2.88375 1.6535,-2.90954 7.0426,-0.11357 4.765,2.47215 5.4115,2.57655 7.7469,1.25091 1.4014,-0.7955 3.441,-2.64896 4.5325,-4.1188 1.9516,-2.62813 1.9532,-2.72115 0.097,-5.60877 -4.5777,-7.122 -8.3298,-11.94327 -14.5501,-18.69647 -3.6645,-3.97844 -8.0034,-9.886 -9.6421,-13.12792 -3.4171,-6.76029 -9.9291,-15.84986 -18.4908,-25.80953 -3.2694,-3.80332 -6.5207,-8.30332 -7.2252,-10 -2.4619,-5.92992 -3.4723,-18.29503 -3.7248,-45.58487 -0.2793,-30.19728 -0.2885,-30.13857 6.1011,-38.95919 3.8852,-5.36339 6.7368,-12.9292 7.661,-20.32625 0.7162,-5.7323 -1.155,-28.37315 -2.409,-29.14818 -0.3578,-0.22109 -2.5155,2.75214 -4.795,6.60718 -6.7356,11.39141 -17.3659,45.93197 -15.7261,51.0985 0.439,1.38333 0.2227,1.83247 -0.7314,1.51808 -0.8312,-0.27389 -1.4763,-2.33845 -1.6688,-5.34095 -0.8621,-13.44164 8.5147,-44.33554 17.0499,-56.17529 4.7925,-6.6479 6.5776,-11.80143 7.7875,-22.48185 1.0694,-9.44048 1.7044,-11.03139 9.063,-22.70881 3.3884,-5.37697 3.4112,-5.49231 3.1012,-15.69951 -0.2943,-9.69465 0.5931,-14.38373 2.7224,-14.38373 0.4619,0 1.1465,1.4625 1.5214,3.25 l 0.6815,3.25 1.9016,-3.5 c 2.2848,-4.20552 2.5637,-14.80104 0.8774,-33.32791 -2.4735,-27.17446 -11.5132,-45.78334 -25.1127,-51.69573 -9.8383,-4.27726 -32.179,-3.56852 -41.7794,1.32543 -5.9169,3.01626 -13.4396,13.68174 -15.0202,21.2953 -1.0011,4.82237 -0.8438,6.24562 1.5614,14.13265 3.3429,10.96216 5.2015,14.61093 12.9173,25.35945 8.4516,11.77363 9.1562,13.67999 7.5426,20.40636 -0.9148,3.81306 -1.0372,7.36083 -0.4207,12.1913 1.4149,11.08592 1.0331,21.23054 -1.0724,28.49431 -2.2769,7.85512 -1.7087,11.98016 4.1536,30.15694 3.4345,10.64893 3.6577,12.59533 1.2757,11.12314 -1.8008,-1.11296 -7.6165,-14.26445 -9.7469,-22.04131 l -1.8804,-6.86437 -2.2051,5.89352 c -9.926,26.52976 -10.3543,43.84197 -2.0918,84.55092 4.548,22.40796 5.1901,27.07634 5.2954,38.5 0.091,9.89669 -0.3033,14.36228 -1.6527,18.70668 -1.3534,4.3574 -1.514,6.18981 -0.679,7.75 0.6015,1.12383 1.5162,2.04332 2.0327,2.04332 1.374,0 3.703,5.21045 3.2406,7.25 -0.4679,2.06404 -1.3849,2.21521 -3.0906,0.50951 -0.7746,-0.77461 -0.6067,0.44596 0.4472,3.25 1.2452,3.31326 1.6463,7.27451 1.5301,15.10999 l -0.1574,10.61949 5.1582,9.82949 c 4.7701,9.08996 5.1731,10.39972 5.3566,17.409 0.1091,4.16873 0.7187,8.55186 1.3548,9.74027 1.3927,2.60229 16.3105,10.27625 20.0168,10.29699 1.4488,0.008 3.7592,0.63899 5.1342,1.40195 3.3806,1.87583 8.4771,1.91829 10,0.0833 z m 13.3613,-14.75 c -0.636,-2.22729 -1.6256,-3.35056 -3.1447,-3.56955 -1.2191,-0.17575 -2.2166,0.11832 -2.2166,0.65349 0,1.8887 -20.553,3.33426 -26.25,1.84624 -2.7991,-0.73111 -3.3847,-2.13088 -1.8826,-4.49993 0.6862,-1.08209 1.9277,-1.09444 6.8943,-0.0686 4.9033,1.01275 7.0921,1.00295 11.4872,-0.0514 4.1599,-0.99793 5.9351,-1.03212 7.5904,-0.14622 1.7781,0.95161 2.1607,0.88453 2.1607,-0.37883 0,-2.65267 4.6295,-1.75182 7.9231,1.54174 3.8211,3.82111 4.1947,7.92308 0.7216,7.92308 -1.8003,0 -2.5741,-0.7659 -3.2834,-3.25 z m -53.7479,-60.56651 c -0.2775,-0.44908 2.1903,-4.38658 5.4841,-8.75 3.2939,-4.36342 7.2069,-10.5163 8.6957,-13.67308 2.6234,-5.56265 4.2068,-7.21358 4.2068,-4.38614 0,4.43308 -8.1444,19.88806 -13.1089,24.87573 -2.7942,2.80722 -4.3789,3.38778 -5.2777,1.93349 z m 26.4069,-184.93504 c -3.5031,-1.76015 -7.0507,-6.55136 -5.7868,-7.81523 0.374,-0.3741 2.6121,0.33801 4.9733,1.58245 2.3613,1.24445 6.0559,2.31252 8.2102,2.37348 4.3755,0.12382 5.4815,1.56952 3.0562,3.99478 -2.102,2.10197 -6.1032,2.05011 -10.4529,-0.13548 z m 25.1922,-41.43595 c -0.6669,-0.66688 -1.2125,-2.44321 -1.2125,-3.9474 0,-4.13649 -1.6537,-7.67387 -6.0321,-12.90347 -4.2707,-5.10081 -5.0483,-7.96163 -2.1641,-7.96163 2.5385,0 7.5854,5.55467 10.6839,11.75884 3.7569,7.52244 2.8168,17.14567 -1.2752,13.05366 z m -37.0589,-6.12743 c -0.8386,-1.01041 0.1916,-2.57356 4.4484,-6.75 3.0468,-2.98929 7.1211,-7.57257 9.054,-10.18507 3.5503,-4.79861 5.9492,-5.94237 6.9567,-3.31686 0.7971,2.07709 -4.285,10.24482 -10.1527,16.31686 -5.0917,5.26919 -8.2108,6.46008 -10.3064,3.93507 z m 323.7891,196.67638 c 4.288,-0.85759 6.7396,-4.56856 5.2206,-7.90241 -0.9615,-2.11027 -1.7972,-2.45997 -5.8919,-2.46563 -3.0785,-0.004 -5.8358,-0.71151 -7.7714,-1.99341 -1.65,-1.09275 -3.9859,-1.98979 -5.191,-1.99341 -1.205,-0.004 -2.471,-0.45977 -2.8134,-1.01365 -1.1802,-1.90971 2.5404,-2.21136 7.4537,-0.60431 2.7096,0.88625 5.7419,1.61388 6.7386,1.61695 4.8909,0.015 9.4948,2.19937 10.7058,5.07933 1.3459,3.20113 2.6063,2.89594 2.6063,-0.63111 0,-3.39948 -7.4384,-8.85132 -14.0455,-10.29446 -5.4882,-1.19872 -16.6731,-5.41109 -22.8519,-8.60628 -1.7582,-0.90919 -7.338,-5.80193 -12.3996,-10.87277 -5.0617,-5.07084 -14.5878,-13.26084 -21.1691,-18.2 -13.0767,-9.81369 -15.8505,-13.06651 -17.4324,-20.4425 -2.9757,-13.87536 -3.3491,-27.53693 -1.5803,-57.82298 1.8355,-31.42797 1.5981,-46.98725 -0.9952,-65.23478 -0.8191,-5.76402 -1.4976,-12.61753 -1.5077,-15.23003 -0.017,-4.39511 -0.2051,-4.75 -2.5183,-4.75 -3.998,0 -3.4643,-6.06631 1.193,-13.55883 2.8892,-4.64815 3.6782,-6.92053 3.6252,-10.44117 -0.095,-6.34392 -4.7621,-20.26957 -9.4943,-28.33145 l -4.01,-6.83146 -11.4482,-5.37921 c -9.9478,-4.67419 -12.5897,-6.47227 -20.157,-13.71909 -4.7898,-4.58693 -12.0837,-10.4221 -16.2087,-12.96705 -9.9915,-6.16431 -37.0059,-17.29299 -43.9156,-18.09115 -6.031,-0.69667 -20.6775,2.0234 -26.1593,4.85817 -9.5714,4.94955 -15.5831,18.56418 -19.3281,43.77224 -2.4161,16.26295 -2.951,14.8137 7.3894,20.02104 10.3849,5.2298 18.555,7.20695 36.0136,8.71528 20.7921,1.79633 23.6987,2.88017 36.5192,13.61805 3.8499,3.2245 9.0377,7.05701 11.5285,8.51669 6.1143,3.58325 16.0119,6.81794 20.8617,6.81794 4.1957,0 6.2845,1.62971 3.9687,3.09649 -0.758,0.48009 -3.9072,0.87978 -6.9982,0.8882 l -5.6202,0.0153 -1.8798,11.75 c -2.5355,15.84779 -2.5381,41.02404 -0.01,50.19215 2.8336,10.25701 6.8254,17.94296 13.9707,26.89951 5.2213,6.54491 6.6547,9.06309 6.6547,11.69098 0,4.07927 -1.7893,5.44683 -3.7552,2.87014 -1.4146,-1.8542 -1.437,-1.85172 -0.8758,0.0972 2.9755,10.33255 4.5565,33.26372 3.0682,44.5 -0.8758,6.61112 -4.2315,16.54258 -8.2783,24.5 -2.9073,5.71667 -3.569,8.13379 -3.6095,13.18434 -0.044,5.52073 0.2674,6.515 2.9029,9.26595 4.2051,4.38915 8.6901,5.27884 22.53,4.46932 9.3988,-0.54975 11.7417,-0.97511 11.3268,-2.05637 -1.5719,-4.09643 12.4433,1.05521 27.1909,9.99463 6.7059,4.06492 7.5,4.29171 7.5,2.14213 0,-2.44496 1.8383,-1.71336 3.4302,1.36516 2.3533,4.55075 6.9846,6.13484 17.9359,6.13484 5.5617,0 11.3571,0.59225 13.8489,1.41527 7.893,2.60695 9.374,2.81692 13.7277,1.94618 z m -103.9427,-41.60877 c -3.1094,-1.61567 -3.7349,-5.73363 -1.619,-10.65878 0.8492,-1.97664 1.6734,-4.68365 1.8315,-6.01557 0.1581,-1.33192 0.9152,-2.62866 1.6824,-2.88163 1.4279,-0.47084 1.406,0.0433 -0.5126,12.03717 -0.5397,3.37358 -0.3394,3.83192 2.0753,4.75 1.4699,0.55887 3.9933,1.01613 5.6075,1.01613 1.6142,0 2.9349,0.45 2.9349,1 0,0.55 -0.8438,1 -1.875,1 -1.0313,0 -3.1687,0.23663 -4.75,0.52585 -1.5812,0.28922 -4,-0.0587 -5.375,-0.77317 z m -27.7523,-199.63245 c -5.5937,-1.93241 -7.6476,-3.39337 -13.2307,-9.41107 -2.2814,-2.45903 -5.9763,-4.7769 -10.517,-6.59751 -7.0947,-2.84465 -8.4252,-4.49584 -5.2396,-6.50266 2.3078,-1.45386 10.1804,2.5836 18.3519,9.41186 13.5316,11.30728 11.9177,10.50143 20.572,10.27156 5.7211,-0.15195 7.8157,0.12945 7.8157,1.05 0,4.00476 -8.7651,4.88255 -17.7523,1.77782 z m 17.6627,-6.37023 c -0.049,-0.1375 -0.1789,-4.975 -0.2881,-10.75 -0.1752,-9.27076 -0.5744,-11.41614 -3.4104,-18.32556 -4.5999,-11.2072 -4.1782,-17.64897 0.7063,-10.78931 4.3358,6.089 5.9082,11.64185 6.6339,23.42681 0.7671,12.45645 0.2419,16.68806 -2.0711,16.68806 -0.8146,0 -1.5213,-0.1125 -1.5706,-0.25 z m -112.1622,183.00525 54.2482,-21.25525 0,-7.5 0,-7.5 -7.5967,-4.78507 c -5.5733,-3.51054 -8.1689,-4.60543 -9.7449,-4.11061 -1.1815,0.37095 -18.5692,7.14326 -38.6393,15.04956 -20.0701,7.9063 -37.0576,14.1577 -37.75,13.89199 -0.991,-0.38006 -1.2595,-12.00763 -1.2595,-54.51735 l 0,-54.03426 -3.1687,1.29299 c -2.5775,1.05169 -3.7057,2.59177 -6.046,8.25286 -1.5825,3.82794 -3.704,10.55989 -4.7144,14.95989 -1.0104,4.4 -3.6755,11.825 -5.9225,16.5 -6.205,12.91004 -8.9919,28.5362 -7.223,40.5 0.5692,3.85 1.0439,11.95904 1.0548,18.0201 0.025,13.73979 -1.9834,21.49496 -9.5051,36.70807 -4.316,8.72929 -5.4751,12.0816 -5.4751,15.83426 l 0,4.76053 13.75,-5.40623 c 7.5625,-2.97343 38.1617,-14.9711 67.9982,-26.66148 z m 2.7514,-146.4303 c 25.8499,-9.09936 48.2441,-17.43041 49.7651,-18.51346 3.5596,-2.53464 5.7353,-6.79222 5.7353,-11.22329 0,-3.22109 -0.3097,-3.58988 -3.75,-4.46469 -2.0625,-0.52446 -8.25,-1.24265 -13.75,-1.59598 -13.2683,-0.85237 -19.8886,-2.05988 -30.7463,-5.60801 l -9.0464,-2.95624 -4.4418,2.15024 c -3.8564,1.86685 -4.9445,1.99963 -8.256,1.00747 -4.7618,-1.42665 -13.722,-7.38779 -21.3007,-14.17107 -6.3804,-5.71067 -7.1916,-5.8203 -16.5952,-2.24279 l -4.3864,1.66877 0.7651,9.06205 c 0.4208,4.98413 0.755,10.18705 0.7426,11.56205 -0.012,1.375 0.5784,5.65 1.3129,9.5 0.7346,3.85 1.6325,10.2625 1.9954,14.25 0.3629,3.9875 0.8935,7.25 1.1791,7.25 0.2855,0 19.0773,-6.075 41.7594,-13.5 22.6822,-7.425 41.7528,-13.5 42.3793,-13.5 0.6264,0 1.139,0.81704 1.139,1.81564 0,1.50769 -7.2083,4.17284 -42.5,15.71372 l -42.5,13.89808 0,8.89327 c 0,8.05925 0.1641,8.83021 1.75,8.22089 0.9625,-0.3698 22.8998,-8.1173 48.7496,-17.21665 z M 914.97071,284.41459 c 37.8381,-12.38832 68.9561,-22.68361 69.1509,-22.87842 0.1948,-0.19482 0.4464,-1.47872 0.5591,-2.85312 0.1651,-2.01377 -1.5909,-4.06163 -9.0449,-10.54846 l -9.2499,-8.04955 -17.7501,5.95402 c -9.7626,3.27472 -18.8752,5.82931 -20.2502,5.67688 l -2.5,-0.27714 -0.2678,-23.65069 -0.2679,-23.65069 -11.9821,-10.67343 -11.9822,-10.67343 0,38.53601 0,38.53602 -34.5,11.23471 -34.5,11.23471 0,6.5244 0,6.5244 5.7187,5.77899 c 3.1453,3.17845 6.2477,5.779 6.8942,5.779 0.6465,0 32.134,-10.13589 69.9722,-22.52421 z m 85.31599,-5.78088 c 4.0139,-7.90803 10.9181,-15.93405 16.4324,-19.10239 8.2241,-4.72532 21.3622,-5.80485 37.2855,-3.06367 11.7606,2.02457 18.2509,5.26542 23.3367,11.65292 l 4.0424,5.07715 -0.249,-6.32606 -0.2491,-6.32607 5.9453,-2.96895 c 3.2699,-1.63292 8.0619,-3.17234 10.649,-3.42092 5.2264,-0.50219 6.3154,0.0935 22.8082,12.47507 8.0579,6.04933 13.0055,7.88396 14.5447,5.39342 0.8681,-1.40455 -1.7324,-1.90182 -3.6722,-0.70223 -1.246,0.77049 -2.0522,0.73962 -2.903,-0.11114 -0.9038,-0.90385 -0.7757,-4.2715 0.5506,-14.47496 3.523,-27.10292 8.3313,-41.38956 16.9012,-50.21829 4.6441,-4.7844 16.5306,-9.99864 25.8509,-11.33995 l 5.2096,-0.74973 -13.4422,-3.81332 c -7.3931,-2.09732 -21.7671,-6.94663 -31.9421,-10.77625 -14.8812,-5.60091 -19.1,-7.6133 -21.5675,-10.28772 -2.1988,-2.38311 -4.6062,-3.68499 -8.5,-4.59652 -2.9879,-0.69945 -8.0825,-2.3329 -11.3214,-3.62989 -3.2389,-1.297 -8.7514,-2.65144 -12.25,-3.00988 -9.2376,-0.94642 -8.4049,-2.12234 2.6389,-3.72661 0.9952,-0.14457 0.5277,-0.86464 -1.3894,-2.13977 -7.4591,-4.96138 -33.5617,0.33528 -54.92,11.14421 -17.3292,8.76993 -35.60509,23.40235 -41.37659,33.12784 -4.4427,7.48636 -4.6414,10.7201 -1.4065,22.88608 3.2506,12.22516 7.0338,21.50686 7.0705,17.34707 0.012,-1.3671 -1.1771,-4.85554 -2.6426,-7.75209 -1.4655,-2.89654 -2.3637,-5.56727 -1.996,-5.93496 1.0863,-1.08634 5.4773,3.66254 7.7748,8.40858 1.8725,3.86803 2.0464,5.39917 1.4295,12.58399 -0.3863,4.49907 -1.2708,10.91636 -1.9654,14.26063 -1.0748,5.17435 -0.9993,8.15489 0.5069,20 0.9735,7.65573 2.3356,15.2695 3.0269,16.9195 1.2223,2.91762 1.2745,2.81595 1.8986,-3.7023 0.4441,-4.63853 1.642,-8.67315 3.89039,-13.10279 z m 74.7631,-27.94491 c -0.7601,-1.2375 -2.9858,-5.175 -4.946,-8.75 -5.9477,-10.84757 -11.5288,-15 -20.1608,-15 -5.0401,0 -7.5831,-2.05917 -5.5574,-4.5 3.5096,-4.22886 17.2247,0.27139 23.2407,7.62584 5.009,6.1234 12.7593,18.92678 12.7593,21.07818 0,2.58624 -3.6598,2.27484 -5.3358,-0.45402 z m 29.0191,-26.4 c -1.6043,-1.60431 -0.6458,-15.3759 1.4659,-21.06249 2.2229,-5.98588 7.818,-15.53118 9.8344,-16.77734 2.6751,-1.65332 2.0284,0.97907 -2.3405,9.52668 -3.5179,6.88266 -4.6536,10.2205 -4.6866,13.7736 -0.082,8.8 -2.3375,16.47522 -4.2732,14.53955 z m -116.48939,-4.61642 c -1.7302,-2.0847 0.5641,-10.055 4.732,-16.4392 5.0686,-7.76372 15.28299,-18.70697 22.25949,-23.84784 3.8805,-2.85947 7.8488,-4.73137 12.5,-5.8964 3.748,-0.93881 8.7978,-2.19993 11.2218,-2.8025 2.9616,-0.73622 6.365,-2.84251 10.3761,-6.4216 6.0562,-5.40383 8.0135,-6.27283 9.3302,-4.1424 0.447,0.7232 -0.9889,2.67901 -3.691,5.02771 -8.0838,7.02651 -13.5043,9.89517 -22.3501,11.82822 -11.2321,2.45454 -13.6037,3.80503 -23.4351,13.34534 -7.4888,7.26705 -8.92499,9.29073 -13.74369,19.36509 -2.9596,6.1875 -5.5538,11.25 -5.7649,11.25 -0.2111,0 -0.8568,-0.56989 -1.4348,-1.26642 z m 38.80609,-17.09872 c 0,-5.73654 7.6801,-10.58727 31.5,-19.8953 23.996,-9.37684 42.5,-14.96543 42.5,-12.83586 0,1.68102 -8.3318,5.4747 -25.1969,11.47273 -27.9989,9.95779 -33.4775,12.4508 -40.1503,18.27037 -6.7575,5.89342 -8.6528,6.54792 -8.6528,2.98806 z m 16.4589,1.29861 c -0.8261,-1.33663 -0.9479,-1.26956 5.0411,-2.77486 2.75,-0.69119 6.575,-2.56701 8.5,-4.16848 10.6687,-8.87564 13.2032,-10.07557 25.6402,-12.1391 7.4093,-1.22933 13.8061,-2.9333 17.0463,-4.54076 5.2846,-2.62171 8.3135,-2.57242 8.3135,0.13529 0,2.75304 -4.5475,4.55172 -18.0454,7.13761 -15.7747,3.02208 -18.1675,3.92949 -23.4546,8.89492 -2.2,2.06613 -6.25,4.8244 -9,6.12949 -5.1884,2.4623 -12.8893,3.18949 -14.0411,1.32589 z m -59.45889,41.60355 c 0,-0.25464 -0.8507,-2.62116 -1.8904,-5.25894 -1.0397,-2.63779 -3.1068,-9.32247 -4.5935,-14.85485 -1.962,-7.30134 -3.2858,-10.42285 -4.829,-11.38654 -1.1692,-0.73021 -17.7418,-14.31219 -36.8279,-30.18217 -19.0861,-15.86999 -35.2336,-28.85452 -35.8832,-28.85452 -2.4483,0 -17.6919,-7.85986 -22.976,-11.84679 -7.067,-5.33224 -26.242,-25.94706 -31.0815,-33.4155 -2.498,-3.85495 -7.571,-8.95083 -15.3262,-15.395239 -7.1606,-5.95031 -11.5923,-10.34201 -11.5923,-11.48771 0,-3.26685 2.5993,-2.02803 11.9044,5.67356 5.0026,4.14058 9.0956,7.17808 9.0955,6.75 -10e-5,-0.42808 -1.1116,-4.37832 -2.4701,-8.77832 -1.4562,-4.71685 -2.7469,-12.01392 -3.1449,-17.780639 -0.3712,-5.37935 -0.9809,-9.96971 -1.3548,-10.20079 -1.2253,-0.75724 -12.398,2.58539 -18.7952,5.62308 -3.4459,1.63624 -6.9739,4.05659 -7.8401,5.37857 -2.4298,3.708359 -2.7984,9.579609 -0.9915,15.794859 l 1.6282,5.60089 42.1394,37.292019 c 82.8205,73.29341 133.341,117.65005 134.0791,117.72046 0.4125,0.0394 0.75,-0.13679 0.75,-0.39143 z m -35.9869,-5.57873 c 7.1428,-2.25193 12.957,-4.40129 12.9204,-4.77636 -0.061,-0.6246 -19.211,-17.54838 -26.0306,-23.00441 l -2.9029,-2.32248 0,17.67947 c 0,15.3723 0.1975,17.6037 1.5131,17.09883 0.8323,-0.31934 7.3573,-2.42312 14.5,-4.67505 z m 19.4914,-40.77263 c -4.477,-8.22574 -11.0119,-15.69641 -17.3044,-19.78231 -16.4717,-10.69554 -33.3403,-20.52025 -34.7328,-20.22931 -0.9343,0.1952 9.5906,9.57833 26.2363,23.39017 15.288,12.68531 27.9428,22.70854 28.1218,22.27384 0.179,-0.43471 -0.8654,-2.97828 -2.3209,-5.65239 z m 20.5032,-16.2909 9.8068,-9.80678 -5.5327,-1.6084 c -6.6877,-1.94416 -11.3513,-2.08683 -17.1327,-0.52415 -4.663,1.26036 -5.7195,0.97348 -4.8415,-1.31467 0.6671,-1.73844 8.9874,-3.66288 15.4916,-3.58311 2.5854,0.0317 7.7158,0.84419 11.4008,1.80552 l 6.69989,1.74789 3.8001,-2.35879 c 2.09,-1.29733 6.799,-3.89607 10.4644,-5.77498 5.4765,-2.80728 6.5715,-3.77121 6.1435,-5.40799 -0.4143,-1.58435 0.4037,-2.44103 3.9991,-4.18779 5.3775,-2.61257 6.28,-5.30725 3.5628,-10.63699 -1.0284,-2.01707 -1.8698,-4.22559 -1.8698,-4.90782 0,-0.68224 -1.6471,-2.84003 -3.6601,-4.7951 -3.8154,-3.70547 -3.9628,-5.19147 -0.4028,-4.06158 2.6245,0.83299 7.0629,7.25343 7.0629,10.21693 0,1.22798 0.9,2.71435 2,3.30305 2.0926,1.1199 2.7701,4 0.941,4 -0.5825,0 -0.7784,0.45403 -0.4355,1.00895 1.1736,1.8989 -0.6099,4.89478 -4.8076,8.0758 -2.3088,1.74963 -3.2979,2.8296 -2.1979,2.39992 1.1,-0.42968 5.825,-2.27458 10.5,-4.09978 4.675,-1.8252 9.0625,-3.33347 9.75,-3.35172 1.9392,-0.0515 1.473,-2.02283 -0.5,-2.11429 -0.9625,-0.0446 -3.325,-0.15712 -5.25,-0.25 -5.1864,-0.25025 -5.2466,-2.11553 -0.08,-2.48467 5.963,-0.42606 9.4122,0.50837 8.7025,2.35766 -0.5959,1.55288 0.3618,1.67727 4.3777,0.56861 2.1801,-0.60183 2.564,-1.37904 3,-6.07267 0.3138,-3.37836 1.0223,-5.55449 1.9026,-5.84437 1.1007,-0.36243 1.2737,0.33289 0.8035,3.23002 -0.9,5.54628 -0.1275,6.57654 4.9315,6.57654 l 4.4236,0 -7.4021,-10.75 c -11.4859,-16.68112 -13.6259,-22.14098 -13.6472,-34.818499 -0.015,-9.01613 -1.9585,-15.40554 -6.9637,-22.8961 -3.871,-5.792969 -4.1016,-5.956219 -8.0169,-5.673529 -4.3171,0.3117 -5.5524,-1.36364 -1.9799,-2.68519 1.7339,-0.64138 0.9522,-1.33309 -5.0489,-4.46778 -4.6993,-2.45468 -8.4365,-3.7089 -11.0514,-3.7089 -2.9757,0 -3.9511,-0.39998 -3.9511,-1.62019 0,-1.37081 0.885,-1.53381 5.75,-1.05896 3.1625,0.30868 6.9875,0.86522 8.5,1.23677 2.4189,0.5942 2.75,0.38899 2.75,-1.70439 0,-7.026511 -15.2329,-21.755581 -24.7274,-23.909531 -6.88799,-1.56263 -25.21509,2.05874 -30.24689,5.97665 -2.3585,1.83645 -2.3936,2.01569 -0.75,3.83185 1.8453,2.03898 2.2856,4.2478 0.8467,4.2478 -0.4826,0 -1.4581,-0.69957 -2.1677,-1.5546 -1.9392,-2.33664 -4.7023,-3.57805 -12.4369,-5.5877 -9.6775,-2.51449 -14.6667,-2.32598 -30.1679,1.13987 -16.567,3.70415 -21.3755,6.09522 -31.2719,15.550131 -5.6693,5.41645 -8.5211,7.4523 -10.4391,7.4523 -3.0938,0 -3.3492,-1.04716 -0.8148,-3.34078 1.7529,-1.58638 1.651,-2.01161 -2.6149,-10.904991 l -4.439,-9.25423 1.5759,-6.5 c 2.2194,-9.15452 2.4458,-10.69119 4.0533,-27.4999996 1.8125,-18.9516504 0.854,-25.7707204 -5.1912,-36.9319304 l -2.9195,-5.39031 1.7153,-8.838879 c 0.9434,-4.86138 2.7687,-12.43888 4.0561,-16.83888 4.044,-13.82104 2.9629,-28.98895 -3.6151,-50.722682 -1.3779,-4.55252 -3.0331,-11.08982 -3.6782,-14.52732 -1.0345,-5.51217 -1.4441,-6.25 -3.4699,-6.25 -2.742,0 -3.1102,-2.60707 -0.4859,-3.44002 4.3865,-1.3922 7.8266,-6.89392 10.0143,-16.01553 1.9902,-8.29778 6.6086,-19.28764 10.823,-25.75403 0.9712,-1.49026 1.4314,-3.04407 1.0226,-3.4529 -0.4088,-0.40883 -4.6136,-1.30848 -9.3439,-1.99922 -6.1278,-0.89482 -9.6548,-1.9865 -12.2675,-3.7971 -4.5335,-3.14167 -9.6509,-3.40396 -10.5595,-0.5412 -0.7709,2.42886 -2.3336,2.59707 -3.1981,0.34424 -0.4065,-1.05932 0.185,-2.32008 1.6422,-3.5 3.3024,-2.67416 10.0405,-2.39247 16.0892,0.67261 4.4935,2.27705 4.9667,2.34681 4.9667,0.73213 0,-0.98159 -1.1277,-3.44429 -2.506,-5.47266 -3.7986,-5.59016 -7.5838,-5.90549 -17.0315,-1.4188 -6.4015,3.04003 -7.7814,4.15025 -9.1499,7.36122 -2.2443,5.26594 -4.1146,24.38524 -5.2611,53.78126 -0.9377,24.04171 -1.1115,25.49831 -4.5339,38.000002 -7.927,28.95641 -7.4217,25.76033 -6.2734,39.67934 0.9095,11.02489 0.8326,13.17155 -0.6005,16.75315 -2.1375,5.342179 -2.0726,7.905329 0.3563,14.067509 2.3953,6.07672 2.5335,11.88174 0.4692,19.7012104 -0.842,3.18933 -2.2748,11.77731 -3.1841,19.0843996 -1.4298,11.49067 -1.4805,14.73316 -0.3753,24 0.7029,5.89291 2.3024,13.86439 3.5546,17.714391 1.2721,3.91124 2.5439,10.97126 2.8822,16 1.6835,25.021309 8.1458,37.693548 30.9461,60.683308 8.49,8.56051 12.9264,12.20198 18.2154,14.95164 6.2995,3.27494 10.6108,4.72046 30.9919,10.39114 7.1331,1.98464 19.8713,9.62553 35.0171,21.00459 10.1757,7.64503 11.3213,8.85336 15,15.82179 l 3.9829,7.54462 1.8505,-3.59778 c 1.0177,-1.97877 6.2635,-8.01082 11.6572,-13.40455 z m 21.61699,-23.75697 c -1.6185,-1.78838 -3.6247,-7.25752 -3.6247,-9.88119 0,-2.79976 2.8166,-1.04797 3.4112,2.12162 0.3485,1.85802 1.7486,4.58121 3.1113,6.05152 1.3626,1.47032 2.4775,2.87512 2.4775,3.12178 0,1.23916 -3.9036,0.2125 -5.3753,-1.41373 z m -89.40889,-11.59056 c -1.0731,-1.36434 -2.2167,-4.89769 -2.5769,-7.96243 -0.3561,-3.03031 -1.1831,-6.68513 -1.8377,-8.12183 -1.0852,-2.3817 -1.6279,-2.58353 -6.151,-2.28757 -5.5463,0.36291 -7.7661,-1.66911 -2.9712,-2.7198 8.1851,-1.79358 13.6811,-6.5447 13.124,-11.34525 -0.2759,-2.37677 -0.7973,-2.66352 -5.8277,-3.20459 -6.1389,-0.66031 -9.9753,-2.30412 -9.9753,-4.27428 0,-2.43909 1.2735,-2.57291 4.2584,-0.44748 2.8083,1.99969 3.4338,2.05649 10.6129,0.96384 10.4207,-1.58598 14.063,-1.48273 14.7929,0.41938 0.9073,2.36441 -1.5295,4.39203 -2.7276,2.26956 -0.7017,-1.24323 -1.6329,-1.47874 -3.6877,-0.93268 -3.0699,0.81586 -4.0338,3.76066 -2.2946,7.01035 1.1807,2.20626 8.1978,4.54055 11.25,3.7424 1.1788,-0.30827 1.7625,-0.0511 1.5247,0.67184 -0.5655,1.71906 -8.9693,1.98701 -12.8359,0.40926 -3.1795,-1.29733 -3.4482,-1.23171 -5.6445,1.37847 l -2.3061,2.74065 2.025,3.32147 c 1.343,2.20279 2.0263,5.06561 2.0288,8.50003 0,4.94173 1.6587,8.32143 4.0752,8.32143 0.5107,0 0.9285,0.9 0.9285,2 0,2.83617 -3.4068,2.56949 -5.7842,-0.45277 z m 65.8248,-1.12954 c -2.2868,-2.06593 -4.4594,-3.2769 -5.1326,-2.86081 -0.7266,0.44906 -0.9945,0.19693 -0.7094,-0.66768 0.7973,-2.41801 4.8433,-2.217 7.6593,0.38051 3.8367,3.53901 5.3307,3.77307 10.1918,1.5967 4.41039,-1.97463 8.86859,-2.18929 7.95029,-0.3828 -0.275,0.54099 -1.1852,0.86753 -2.0227,0.72565 -0.8375,-0.14188 -3.0624,0.87799 -4.94429,2.26639 -4.7921,3.53552 -8.2166,3.25667 -12.9924,-1.05796 z m -45.7906,-2.90856 c -4.6311,-2.01289 -4.2934,-3.96562 0.5,-2.89106 2.0625,0.46236 5.8875,0.76874 8.5,0.68085 3.3375,-0.11228 4.75,0.23089 4.75,1.15401 0,2.69811 -8.4746,3.34909 -13.75,1.0562 z m 112.35699,-0.0909 c -0.3339,-0.86998 -0.6139,-2.78248 -0.6223,-4.25 -0.019,-3.24411 -0.7978,-4.50706 -3.7347,-6.05369 -2.2885,-1.20517 -3.1259,-4.11454 -1.1843,-4.11454 4.1707,0 7.9343,5.66861 7.9343,11.95034 0,4.083 -1.2705,5.3932 -2.393,2.46787 z m -90.68389,-2.34129 c -1.6077,-1.60769 -2.9231,-3.85769 -2.9231,-5 0,-2.41864 1.7917,-2.78334 2.6526,-0.53993 1.0898,2.84 6.2408,4.65288 12.212,4.29797 4.4185,-0.26263 5.6354,-0.0208 5.6354,1.11996 0,1.78283 -3.4386,2.81348 -9.8269,2.9454 -4.0732,0.0841 -5.2834,-0.35675 -7.75,-2.8234 z m 41.11019,-1.82694 c 0.059,-3.07835 3.6989,-6.27826 8.8994,-7.82265 6.6672,-1.97995 8.6068,-5.24011 6.5507,-11.01064 -0.7676,-2.15419 -1.4154,-4.77717 -1.4395,-5.82885 -0.024,-1.05168 -1.2086,-3.89951 -2.6321,-6.32851 -3.0358,-5.18025 -2.4899,-6.60201 1.221,-3.17996 3.146,2.90111 5.3672,7.77526 5.3672,11.77771 0,2.60231 3.8846,9.10762 3.9668,6.6429 0.019,-0.57389 3.7618,-1.07568 8.7833,-1.17761 9.0891,-0.18449 13.2499,1.1346 13.2499,4.20066 0,1.72264 -1.1609,1.91603 -2.6376,0.43937 -0.5706,-0.57067 -6.0606,-1.18118 -12.2,-1.35669 l -11.1624,-0.31911 0,3.28411 c 0,4.31615 -3.8182,7.42927 -9.1118,7.42927 -2.9947,0 -4.2034,0.55136 -5.4802,2.5 -1.9077,2.91152 -3.4222,3.24811 -3.3747,0.75 z m -116.25069,-6 c -1.1102,-1.27205 -1.6744,-5.02734 -2.0657,-13.75 -0.2962,-6.6 -1.008,-13.21266 -1.5819,-14.6948 -0.5739,-1.48214 -2.8633,-4.40714 -5.0876,-6.499999 -3.878,-3.64897 -5.163,-6.3052 -3.0502,-6.3052 1.5859,0 8.9935,7.08132 10.544,10.079689 0.8147,1.57534 1.6887,7.52841 2.0665,14.07515 0.3601,6.23984 1.2707,12.86262 2.0235,14.71728 1.679,4.13623 1.6789,4.12788 0.024,4.12788 -0.7397,0 -2.0323,-0.7875 -2.8724,-1.75 z m 62.2174,-1.09171 c 0,-0.46294 1.7927,-1.37881 3.9837,-2.03526 2.191,-0.65644 4.476,-2.11345 5.0777,-3.23779 1.0869,-2.03088 1.4653,-17.22395 0.4692,-18.83578 -0.9763,-1.57967 0.7591,-10.223409 2.1605,-10.761179 2.212,-0.84881 2.5961,0.31153 1.3514,4.082819 -0.9301,2.81825 -0.8516,4.53259 0.4004,8.7485 0.8564,2.88387 1.5571,7.68173 1.5571,10.6619 0,4.82888 -0.37,5.78847 -3.4,8.8185 -2.761,2.76098 -4.1706,3.4 -7.5,3.4 -2.255,0 -4.1,-0.37877 -4.1,-0.84171 z m 24.4948,-3.16676 c -0.279,-0.45139 1.0473,-1.78149 2.9473,-2.95577 3.6373,-2.24796 4.6862,-4.29496 5.1425,-10.03576 0.4078,-5.13186 4.9763,-8.633 12.0278,-9.21776 7.27719,-0.60349 10.62429,-3.13845 11.76479,-8.910279 0.7482,-3.78657 0.4798,-5.38967 -1.8256,-10.90553 -3.52829,-8.44163 -3.96919,-9.96643 -2.882,-9.96643 1.7008,0 8.1567,11.01251 8.8453,15.08827 0.3784,2.23991 0.3945,6.03046 0.036,8.423449 -0.5459,3.64029 -1.2513,4.70421 -4.3192,6.5143 -2.0167,1.18988 -6.15619,2.39857 -9.19899,2.68598 -7.2484,0.68466 -9.7728,2.35592 -10.6192,7.03043 -0.8339,4.60513 -2.6092,8.24266 -5.0607,10.3689 -2.2364,1.93963 -6.1566,3.01447 -6.8576,1.8802 z m 67.49899,-13.6582 c 0,-2.65833 -0.6783,-6.12227 -1.5,-7.69764 -1.8774,-3.59976 -1.8817,-4.63569 -0.02,-4.63569 2.4909,0 4.6553,5.61298 4.3263,11.21957 -0.4031,6.8709 -2.7982,7.82131 -2.8067,1.11376 z m -102.27059,-0.33648 c -1.4978,-1.1781 -2.7232,-2.78435 -2.7232,-3.56943 0,-1.89421 1.4371,-1.8107 3.0888,0.17952 1.3364,1.61024 5.9407,1.54664 13.1612,-0.1818 3.9237,-0.93925 3.5475,1.34387 -0.5,3.03422 -6.4771,2.70508 -10.0821,2.85382 -13.0268,0.53749 z m -10.5232,-12.19685 c -2.3289,-2.32893 -1.4207,-4.007379 1.7872,-3.302809 1.9686,0.43237 4.8799,-0.052 8.5375,-1.42055 5.7115,-2.13693 11.4753,-2.74343 11.4753,-1.20748 0,0.47803 -1.5922,1.12754 -3.5383,1.44334 -1.9461,0.31581 -4.9056,1.72469 -6.5767,3.130849 -3.3056,2.78146 -9.5367,3.5049 -11.685,1.35665 z m 85.53419,-2.794419 c -1.5038,-1.18291 -2.7342,-3.05074 -2.7342,-4.15074 0,-1.99818 0,-1.99819 2.5338,-0.007 2.0594,1.61997 3.1347,1.82076 5.7434,1.07258 5.4114,-1.55198 11.2213,-1.10285 13.9991,1.0822 1.5418,1.21278 3.2265,1.74157 4.2713,1.34065 1.214,-0.46583 1.5862,-0.24434 1.256,0.747299 -0.6479,1.94558 -3.6112,2.35026 -6.3758,0.87071 -2.1745,-1.163739 -4.7922,-1.044379 -12.9436,0.59021 -2.2189,0.44495 -3.7382,0.0364 -5.75,-1.545989 z m -117.81509,-8.84253 c -5.9555,-4.30156 -10.9191,-10.02755 -10.9191,-12.59633 0,-2.32255 0.6789,-2.00469 6.3387,2.96813 2.8387,2.49416 7.5441,5.7069 10.4564,7.13941 4.7455,2.33423 6.025,2.53673 12.327,1.95101 10.1622,-0.94447 17.1169,-5.1478 23.192,-14.01696 6.8628,-10.019079 11.015,-12.342819 31.4359,-17.592769 3.7973,-0.97624 4.25,-1.40808 4.25,-4.05408 0,-1.96574 0.5043,-2.961461 1.5,-2.961461 2.3049,0 1.9945,7.242501 -0.4034,9.412601 -1.0469,0.94742 -4.9766,2.36555 -8.7326,3.15142 -10.8839,2.27721 -15.9219,5.33626 -24.9555,15.152779 -11.1587,12.12593 -15.7074,14.49835 -28.8619,15.05339 l -10.0466,0.4239 -5.5809,-4.03104 z m 64.4804,2.43554 c -1.2822,-3.34125 3.0733,-8.02805 13.1142,-14.11186 5.4585,-3.3073 10.572,-7.166869 11.3634,-8.576809 1.3157,-2.34414 1.2389,-2.83407 -0.8981,-5.72443 -2.6295,-3.55664 -2.0072,-5.42594 0.9235,-2.77373 3.6995,3.34798 4.5417,7.13663 2.6738,12.027729 -2.1805,5.70938 -3.6097,6.78995 -10.9655,8.29041 -7.3095,1.49099 -10.5799,3.72317 -12.1091,8.26491 -1.271,3.77512 -3.1863,4.99075 -4.1022,2.60378 z m 73.60049,-4.73017 c 0,-1.19298 -1.9815,-4.11306 -4.5,-6.63158 -4.509,-4.50898 -5.4521,-6.23684 -3.4044,-6.23684 3.9107,0 12.1743,11.13622 10.3973,14.01153 -1.0651,1.72327 -2.4929,1.06854 -2.4929,-1.14311 z m -13.7584,-14.81877 c -1.9071,-1.590839 -2.8363,-1.724239 -5.9743,-0.85779 -7.0369,1.94298 -20.26729,-3.136269 -20.26729,-7.780749 0,-1.97291 0.6293,-1.79526 4.7426,1.33889 3.26379,2.48687 4.40359,2.75091 11.91189,2.75947 8.6216,0.01 12.3455,1.51223 12.3455,4.980739 0,1.86322 0,1.86391 -2.7584,-0.44056 z M 877.72551,58.938802 c -2.8734,-6.383921 -14.7116,-24.012211 -14.1026,-21.000001 0.2781,1.375 0.8366,3.2875 1.2411,4.25 0.5869,1.39616 0.2301,1.75 -1.7644,1.75 -4.7526,0 -4.9226,-6.01434 -0.6554,-23.18945 1.7462,-7.02849 3.3084,-16.4592196 3.6409,-21.9795996 0.5988,-9.9414004 1.3108,-12.5606604 3.1118,-11.4476004 2.3246,1.43667 2.2108,6.7885804 -0.3985,18.7532204 -4.3716,20.0449996 -4.3608,20.3401096 1.1442,31.0918896 2.6109,5.09935 5.8232,10.98092 7.1383,13.07016 3.2966,5.236901 4.0865,7.780631 3.3233,10.701381 -0.6165,2.35901 -0.7675,2.24622 -2.6787,-2 z m 126.26089,-0.73258 c -0.3731,-0.37301 -4.83619,-0.57204 -9.91819,-0.44229 -8.1513,0.20811 -9.5017,-0.008 -11.4613,-1.83357 -1.2217,-1.13821 -2.2213,-3.03038 -2.2213,-4.204831 0,-2.1212 0.017,-2.11972 2.5106,0.22322 2.2737,2.136051 3.2958,2.336931 10.8335,2.129191 6.88919,-0.18987 8.72399,0.0955 10.65169,1.65639 1.3596,1.10088 1.9031,2.1489 1.306,2.51794 -0.5626,0.34769 -1.328,0.32697 -1.701,-0.046 z M 836.76561,29.486691 c -0.6889,-1.7954 0.3096,-3.54789 2.0216,-3.54789 0.7059,0 2.0808,-1.48053 3.0553,-3.29007 1.6427,-3.05026 1.6669,-3.96422 0.3323,-12.53966 -1.2835,-8.2466696 -1.2748,-9.21784963 0.081,-8.9568596 1.6114,0.31034 3.9009,10.6544896 4.0513,18.3044596 0.1392,7.07564 -7.5663,15.176 -9.541,10.03002 z m 13.2123,-48.39864 c -0.2892,-0.46792 0.6039,-2.38042 1.9848,-4.25 2.9354,-3.97444 2.6564,-6.44275 -1.3879,-12.28147 -6.9779,-10.073719 -7.2131,-10.617779 -4.5904,-10.617779 2.3888,0 7.3949,5.80843 10.1347,11.759079 2.5744,5.59125 2.4747,9.52311 -0.3547,13.99092 -1.4108,2.22774 -4.7721,3.04055 -5.7865,1.39925 z m 19.6248,-37.778369 c -4.5621,-4.56211 -5.76,-11.36436 -4.2116,-23.91543 1.408,-11.41249 2.1991,-13.65087 4.139,-11.711 0.9703,0.9703 0.8481,3.648 -0.5826,12.7707 l -1.8103,11.54298 3.7385,6.05672 c 2.617,4.23988 3.4226,6.37248 2.6857,7.10939 -0.7369,0.73691 -1.9244,0.18096 -3.9587,-1.85336 z m 0.1767,-97.787012 c -1.2064,-3.14403 6.3914,-15.13203 8.3495,-13.17393 0.7101,0.71009 -5.4785,13.30839 -6.999,14.24811 -0.4171,0.25779 -1.0248,-0.22559 -1.3505,-1.07418 z m -15.2755,-8.25054 c 0.1449,-8.36709 0.9834,-12.53582 2.6317,-13.08417 1.3902,-0.46246 1.5666,5.59814 0.4124,14.17089 -1.0574,7.85426 -3.1857,7.09448 -3.0441,-1.08672 z m 59.123,203.118291 c 4.4735,-2.14387 9.7449,-3.67554 15.5169,-4.50862 4.808,-0.69394 8.8512,-1.33688 8.9849,-1.42875 0.1337,-0.0919 -0.6056,-2.83265 -1.6429,-6.09064 -1.0372,-3.25799 -2.4311,-8.62361 -3.0974,-11.92361 -1.05,-5.20031 -1.8973,-6.6673096 -6.3571,-11.0067996 -3.6132,-3.51568 -7.2304,-5.81980003 -12.1457,-7.73661 -8.4944,-3.31259 -17.5137,-5.22094 -20.7896,-4.39875 -2.2591,0.56701 -2.4669,1.19308 -3.1114,9.37487 -0.3798,4.82201 -1.7326,15.7422896 -3.0061,24.2672896 -2.5487,17.06078 -2.5257,17.2297 3.157,23.17694 l 3.5133,3.676931 6.1015,-5.077671 c 3.3558,-2.79271 9.1502,-6.53878 12.8766,-8.32458 z m -25.2413,-2.11468 c 0,-0.91469 2.4125,-5.75219 5.361,-10.75 2.9486,-4.99782 6.6611,-11.5268 8.25,-14.50885 3.2936,-6.1810796 7.3449,-9.6927396 10.0048,-8.6720396 1.5225,0.58422 1.3427,0.94099 -1.2767,2.53394 -3.8689,2.35285 -6.6151,6.8058196 -9.3645,15.1847996 -1.2944,3.94478 -3.9598,8.90043 -6.5888,12.25 -4.5134,5.7506 -6.3858,6.91232 -6.3858,3.96215 z m 132.96899,-10.36738 c -1.6089,-6.30826 -2.9207,-12.81956 -2.9153,-14.46956 0.01,-2.89284 0.064,-2.92856 1.5218,-1 0.8315,1.1 2.7124,5.825 4.1798,10.5 l 2.668,8.5 0.672,-7.5 c 0.4895,-5.46241 1.6943,-9.80791 4.4348,-15.9949696 5.0562,-11.41532 5.0761,-17.07773 0.1185,-33.8463204 -3.974,-13.442059 -4.4554,-19.538649 -2.2089,-27.978389 0.7788,-2.92582 1.7175,-8.13506 2.086,-11.57609 0.6698,-6.25442 0.6687,-6.25794 -3.4278,-10.99115 -3.019,-3.4882 -4.0979,-5.60655 -4.0979,-8.04625 0,-3.71308 -3.5657,-15.26651 -7.3583,-23.842432 -2.6571,-6.00805 -8.2632,-14.73943 -9.4397,-14.70216 -0.3861,0.0122 -1.7838,0.85397 -3.1061,1.87053 l -2.4041,1.8483 1.589,6.37946 c 3.162,12.69475 3.2076,17.722892 0.2516,27.769232 -1.4824,5.03825 -2.7711,11.73665 -2.8638,14.88534 -0.128,4.34721 -0.5296,5.7249 -1.66859,5.7249 -2.3951,0 -2.3765,-8.17132 0.041,-18.15306 3.05339,-12.60609 3.60279,-21.891872 1.58079,-26.719062 -0.8921,-2.12967 -1.62199,-4.91687 -1.62199,-6.19377 l 0,-2.32165 -4.5015,1.99122 c -4.7397,2.0966 -13.6377,2.78458 -19.2485,1.48828 l -3.25,-0.75087 0.018,6.82945 c 0.021,7.84106 2.0079,21.726622 4.5316,31.663162 1.2106,4.76656 3.0924,8.67676 6.2211,12.92667 5.2223,7.09404 8.1764,13.16145 8.2074,16.85721 0.012,1.43966 -1.413,6.83966 -3.1669,11.999999 -3.0276,8.90799 -3.192,10.16618 -3.25,24.88242 -0.066,16.6396504 0.4825,20.0386204 2.9069,18.0265304 1.7486,-1.45121 3.532,-0.53945 3.532,1.80575 0,0.9428396 -2.9347,5.3037796 -6.5214,9.6909896 -3.5868,4.3872 -7.4289,9.49394 -8.538,11.3483 -1.841,3.07791 -1.8609,3.30697 -0.2286,2.6298 6.7978,-2.82015 11.8822,-3.71765 21.8224,-3.85211 10.95479,-0.14818 11.07629,-0.12399 16.81889,3.35074 3.1814,1.925 6.5006,4.29026 7.376,5.25613 0.8755,0.96587 1.7207,1.62717 1.8783,1.46956 0.1576,-0.15762 -1.0298,-5.44788 -2.6386,-11.75613 z m -8.6723,-35.7195596 c 0.072,-10.2673304 -1.7137,-17.1460104 -7.3782,-28.4121404 -4.139,-8.232019 -4.7624,-10.837859 -2.5928,-10.837859 3.4625,0 9.8096,11.109009 12.1361,21.241069 1.8455,8.03745 2.9843,20.8455004 2.1493,24.1725004 -0.4077,1.62437997 -1.3423,2.58642997 -2.5127,2.58642997 -1.6807,0 -1.8574,-0.8582 -1.8017,-8.74999997 z m -0.6608,-49.4999994 c -3.4848,-3.36658 -4.6317,-5.35152 -5.5176,-9.54922 -0.6151,-2.91457 -1.1033,-6.06457 -1.085,-7 0.056,-2.87519 3.7814,2.39306 5.0514,7.14388 1.3801,5.16267 2.3061,6.30389 7.0984,8.74875 4.3748,2.23184 5.1022,4.90659 1.3345,4.90659 -1.5638,0 -4.1105,-1.57278 -6.8817,-4.25 z m 5.7228,-16.25753 c -0.8093,-2.10924 0.3841,-7.77136 2.1222,-10.06874 1.3352,-1.76475 1.4581,-1.49662 1.4873,3.24448 0.034,5.60562 -0.6548,8.33179 -2.1066,8.33179 -0.5084,0 -1.1847,-0.67839 -1.5029,-1.50753 z M 968.38561,34.839941 c 0,-3.1478 3.8161,-9.79025 8.5035,-14.80145 l 4.318,-4.61624 -0.8668,-7.4917296 c -2.0464,-17.68613 -0.7791,-33.1076704 3.9895,-48.5465894 2.6556,-8.59761 1.7659,-12.22363 -4.9798,-20.29678 -2.7453,-3.28546 -5.6838,-7.92539 -6.5301,-10.31096 -2.3198,-6.53964 -5.4117,-28.20827 -5.4237,-38.010662 -0.01,-7.645 -0.2908,-9.00841 -2.3739,-11.5 -3.3304,-3.98331 -6.3474,-10.23597 -7.1768,-14.87324 -0.6264,-3.50303 -3.7885,-8.45349 -5.3995,-8.45349 -0.325,0 -1.3571,2.1375 -2.2936,4.75 -4.9687,13.86179 -17.4382,28.50143 -29.2148,34.29902 -5.6681,2.7904 -7.9573,3.36274 -13.4503,3.36274 -12.2939,0 -20.362,-6.29393 -24.8161,-19.35898 -3.486,-10.22541 -2.6733,-4.80055 1.1157,7.44722 8.776,28.368402 9.8493,41.766092 4.5638,56.969042 -1.715,4.93297 -3.3558,11.90797 -3.6462,15.5 -0.4853,6.002529 -0.2364,7.135509 3.0766,14.002749 2.594,5.37707 3.6045,8.81136 3.6045,12.25 l 0,4.77821 6.2899,0 c 8.2904,0 16.576,2.2465704 24.9329,6.7603204 9.7329,5.25699 12.3699,8.35313 13.8312,16.2396796 1.9838,10.70619 3.7918,16.53424 6.0007,19.34242 1.7708,2.25121 2.8821,2.66425 7.2679,2.70121 2.8476,0.024 7.8774,0.62688 11.1774,1.33972 6.7604,1.46032 7.5,1.31415 7.5,-1.48221 z m -49.2495,-144.934291 c 19.8729,-9.93064 35.0235,-42.47066 30.2492,-64.96836 -3.8383,-18.08661 -17.0371,-25.40527 -32.5141,-18.0288 -7.8616,3.74689 -18.4636,15.15032 -23.3739,25.14088 -10.2706,20.89664 -10.6152,43.41273 -0.8349,54.55192 6.3634,7.24749 16.1406,8.46785 26.4737,3.30436 z m -24.7729,-7.28476 c -4.0781,-9.21913 -3.2112,-24.79819 2.1996,-39.52958 5.8863,-16.02598 18.9599,-31.6309 28.9973,-34.61167 6.4777,-1.92367 7.8255,-1.9307 7.8255,-0.0408 0,0.88599 -0.921,1.504 -2.25,1.50977 -4.5372,0.0197 -12.2508,4.67334 -17.9395,10.82303 -14.6959,15.88676 -22.7371,45.64591 -16.393,60.6672 1.9266,4.56164 1.9597,4.87427 0.5657,5.33896 -0.5593,0.18643 -1.9118,-1.68416 -3.0056,-4.15687 z m 100.0177,-4.25951 c 19.99079,-9.30504 35.45929,-34.22333 35.33569,-56.92258 -0.1616,-29.66073 -24.812,-36.49526 -47.71459,-13.22926 -8.4621,8.59629 -12.7808,15.62487 -16.8777,27.46804 -6.7793,19.59715 -2.582,38.4604 9.7613,43.86851 5.0225,2.20058 13.3035,1.69735 19.4953,-1.18471 z m -23.7689,-5.67258 c -3.4936,-4.28782 -4.0452,-15.22866 -1.3074,-25.93343 6.5098,-25.45276 25.8139,-48.13779 41.08099,-48.27587 6.2699,-0.0567 6.6198,1.82261 0.4789,2.57219 -6.6398,0.81049 -12.18469,3.75639 -18.32179,9.73409 -15.6104,15.20496 -25.5545,42.46985 -20.7959,57.01832 0.9013,2.75577 1.6388,5.26344 1.6388,5.5726 0,1.01696 -1.7351,0.58662 -2.7736,-0.6879 z m -90.537,-5.5 c -0.2516,-0.9625 -0.4574,-0.175 -0.4574,1.75 0,1.925 0.2058,2.7125 0.4574,1.75 0.2515,-0.9625 0.2515,-2.5375 0,-3.5 z m -41.6513,-7.5 4.4619,-2.25 0.661,-10.5 c 1.0208,-16.21658 4.496,-37.06023 6.6678,-39.99223 1.0217,-1.37928 5.9556,-4.53277 10.9643,-7.00777 5.0087,-2.475 9.1293,-5.04562 9.1568,-5.71249 0.1289,-3.11782 -4.3385,-12.34281 -7.516,-15.52032 -4.0935,-4.09348 -10.6116,-6.27495 -16.421,-5.49574 -13.1077,1.75811 -28.0447,16.46517 -35.2714,34.72855 -8.8314,22.31876 -4.7984,46.5314 8.7585,52.58264 4.8039,2.14424 13.4005,1.75813 18.5381,-0.83264 z m -22.0999,-6.15687 c -8.8723,-20.0573 6.7215,-62.21625 26.8017,-72.4604 5.4551,-2.78299 12.2601,-3.89154 12.2601,-1.99719 0,0.84537 -1.9724,1.85969 -5.0274,2.5854 -9.114,2.16495 -17.0002,9.60194 -24.6851,23.27906 -8.0642,14.35199 -11.4512,35.41774 -7.3961,46 2.4064,6.2798 2.5147,7 1.0524,7 -0.5809,0 -1.9334,-1.98309 -3.0056,-4.40687 z m 142.6158,-15.59313 c 1.2928,-5.27256 1.2576,-5.57722 -0.8527,-7.36718 l -2.2013,-1.86717 -0.7034,9.73724 c -0.3869,5.35548 -0.9455,9.9793 -1.2413,10.27516 -0.2959,0.29586 0.021,1.21419 0.7034,2.04074 1.0424,1.26205 1.3779,0.79617 2.094,-2.90799 0.4689,-2.42594 1.4595,-6.8858 2.2013,-9.9108 z m 5.8374,-15.02024 c 0.8847,-2.21113 1.6086,-4.84136 1.6086,-5.84496 0,-2.43463 7.1765,-13.43721 10.1432,-15.55099 l 2.3568,-1.67922 -3.2658,-2.9523 c -4.739,-4.28411 -7.0003,-3.85061 -11.9984,2.30009 -5.2615,6.47487 -7.1055,11.75396 -5.2906,15.14528 0.8191,1.53053 1.0251,3.81892 0.5804,6.45049 -0.7855,4.64957 -0.1933,6.15185 2.4248,6.15185 1.206,0 2.3824,-1.37447 3.441,-4.02024 z m -9.3914,-3.87277 c 0,-1.04116 -0.6047,-2.12508 -1.3439,-2.40871 -0.9625,-0.36936 -1.2132,0.16777 -0.8834,1.89301 0.5448,2.85007 2.2273,3.23962 2.2273,0.5157 z m -40.623,-17.04745 c 2.6423,-1.2791 6.7884,-2.54928 9.2136,-2.82264 2.4252,-0.27335 4.4094,-0.89804 4.4094,-1.38819 0,-0.49015 3.5283,-4.48162 7.8407,-8.86994 7.8335,-7.97161 7.8453,-7.97877 13.1135,-7.97877 l 5.2729,0 -0.6962,-4.75 c -1.5283,-10.42734 -7.4406,-18.0715 -15.6966,-20.29464 -16.0315,-4.31681 -38.2222,13.27598 -47.6799,37.80052 -1.67,4.33041 -3.3458,10.20687 -3.7242,13.0588 -0.6742,5.08237 -0.6356,5.1883 1.941,5.33532 1.4459,0.0825 3.1619,0.195 3.8135,0.25 0.6515,0.055 1.7093,-1.925 2.3505,-4.4 6.2616,-24.16944 26.8053,-46.99639 42.2982,-46.99921 6.0349,-0.001 4.9647,2.31783 -1.4363,3.1121 -9.5008,1.17892 -18.8205,8.2576 -27.2876,20.72595 -5.8081,8.55279 -13.0687,26.80004 -11.6057,29.16723 0.3269,0.52897 3.4012,-1.41934 6.8318,-4.32957 3.4305,-2.91023 8.3992,-6.33786 11.0414,-7.61696 z m 40.3489,5.69046 c 0.6274,-2.3375 2.9526,-7.04967 5.1672,-10.47148 l 4.0264,-6.22148 -2.1822,-1.52852 c -4.6731,-3.27311 -7.9597,-0.72867 -13.1107,10.15004 l -2.8735,6.06853 2.3115,3.12646 c 3.2368,4.37797 5.277,4.03385 6.6613,-1.12355 z m -10.7185,-6 c 0,-0.6875 1.9831,-4.70853 4.3978,-8.93561 2.4146,-4.22709 4.1363,-7.93959 3.8258,-8.25 -1.8177,-1.81779 -6.3006,-0.25948 -10.0555,3.49546 -3.4654,3.46542 -7.1445,10.41143 -6.0251,11.37521 0.8302,0.71478 6.4167,3.48845 7.0996,3.5249 0.4125,0.022 0.7534,-0.52246 0.7574,-1.20996 z m -11.6258,-4.30194 c 0.3415,-0.88992 0.1738,-1.29132 -0.393,-0.94098 -0.5437,0.33602 -0.9886,1.0344 -0.9886,1.55194 0,1.43843 0.7168,1.12146 1.3816,-0.61096 z"
       id="path3076"
       inkscape:connector-curvature="0" />
  </g>
</svg>
