<?xml version="1.0" encoding="UTF-8" standalone="no"?>
<!-- Created with Inkscape (http://www.inkscape.org/) -->

<svg
   xmlns:dc="http://purl.org/dc/elements/1.1/"
   xmlns:cc="http://creativecommons.org/ns#"
   xmlns:rdf="http://www.w3.org/1999/02/22-rdf-syntax-ns#"
   xmlns:svg="http://www.w3.org/2000/svg"
   xmlns="http://www.w3.org/2000/svg"
   xmlns:xlink="http://www.w3.org/1999/xlink"
   xmlns:sodipodi="http://sodipodi.sourceforge.net/DTD/sodipodi-0.dtd"
   xmlns:inkscape="http://www.inkscape.org/namespaces/inkscape"
   width="189.47144"
   height="209.58179"
   id="svg2"
   version="1.1"
   inkscape:version="0.48.3.1 r9886"
   sodipodi:docname="Dumbbell-lateral-raises-1.svg">
  <defs
     id="defs4">
    <radialGradient
       gradientUnits="userSpaceOnUse"
       gradientTransform="matrix(1,0,0,0.91819829,-19.285714,-7.9105395)"
       r="209.56604"
       fy="287.50052"
       fx="398.1105"
       cy="287.50052"
       cx="398.1105"
       id="radialGradient5255"
       xlink:href="#linearGradient5249"
       inkscape:collect="always" />
    <linearGradient
       id="linearGradient5249"
       inkscape:collect="always">
      <stop
         id="stop5251"
         offset="0"
         style="stop-color:#e3e3e3;stop-opacity:1;" />
      <stop
         id="stop5253"
         offset="1"
         style="stop-color:#e3e3e3;stop-opacity:0;" />
    </linearGradient>
  </defs>
  <sodipodi:namedview
     id="base"
     pagecolor="#ffffff"
     bordercolor="#666666"
     borderopacity="1.0"
     inkscape:pageopacity="0.0"
     inkscape:pageshadow="2"
     inkscape:zoom="2.8"
     inkscape:cx="147.73584"
     inkscape:cy="90.637877"
     inkscape:document-units="px"
     inkscape:current-layer="layer1"
     showgrid="false"
     showguides="true"
     inkscape:guide-bbox="true"
     fit-margin-top="0"
     fit-margin-left="0"
     fit-margin-right="0"
     fit-margin-bottom="0"
     inkscape:window-width="1615"
     inkscape:window-height="1026"
     inkscape:window-x="65"
     inkscape:window-y="24"
     inkscape:window-maximized="1">
    <sodipodi:guide
       orientation="-0.70710678,0.70710678"
       position="-2221.4936,421.6063"
       id="guide2985" />
  </sodipodi:namedview>
  <metadata
     id="metadata7">
    <rdf:RDF>
      <cc:Work
         rdf:about="">
        <dc:format>image/svg+xml</dc:format>
        <dc:type
           rdf:resource="http://purl.org/dc/dcmitype/StillImage" />
        <dc:title></dc:title>
      </cc:Work>
    </rdf:RDF>
  </metadata>
  <g
     inkscape:label="Ebene 1"
     inkscape:groupmode="layer"
     id="layer1"
     transform="translate(-792.92212,-238.6724)">
    <path
       style="fill:#000000"
       d="m 884.01213,448.01851 c -0.8232,-0.32913 -3.321,-2.16324 -4.2078,-3.08973 -0.8065,-0.8425 -1.9556,-4.17872 -1.9625,-5.69766 -0.01,-1.41856 -0.6936,-3.7048 -1.739,-5.78647 -1.4589,-2.90513 -1.6168,-3.58868 -1.1736,-5.08126 0.2957,-0.99558 0.3094,-1.3739 0.076,-2.08221 -0.1693,-0.51296 -0.225,-1.3368 -0.1367,-2.02262 0.6912,-5.36937 0.6006,-6.30213 -1.3413,-13.80359 -1.3108,-5.06355 -1.4385,-5.77464 -1.443,-8.03707 -0.01,-3.94255 1.0639,-8.49245 2.9119,-12.36216 0.7946,-1.66375 1.5421,-3.52529 1.6612,-4.13675 0.472,-2.42341 0.7512,-6.32895 0.7591,-10.61996 l 0.01,-4.50481 -0.9528,-1.6215 c -0.524,-0.89181 -1.0843,-2.07328 -1.2451,-2.62547 -0.2279,-0.78303 -0.5055,-1.12893 -1.261,-1.57172 -1.4331,-0.83981 -2.3534,-0.86896 -2.9631,-0.0938 -0.273,0.34708 -1.1054,0.93014 -1.8499,1.29571 -1.2014,0.58996 -1.6059,0.66369 -3.5992,0.65594 -1.9532,-0.008 -2.4008,-0.0895 -3.437,-0.62889 -5.2171,-2.71569 -7.07,-11.80228 -4.1274,-20.23997 1.2097,-3.46875 2.7792,-5.35671 5.5025,-6.61907 1.1168,-0.51767 1.3448,-0.71955 1.2509,-1.10771 -0.8872,-3.6683 -1.2158,-12.33312 -0.6095,-16.07221 0.4853,-2.99275 0.3946,-4.55379 -0.3501,-6.02335 -0.6985,-1.37841 -2.2479,-7.17513 -2.2479,-8.40994 0,-0.45147 0.3725,-3.14393 0.8277,-5.98324 0.9276,-5.78523 0.9868,-6.55406 0.6221,-8.06775 -0.3962,-1.64423 -0.329,-4.93642 0.1282,-6.28117 0.5764,-1.6955 3.7458,-4.79504 6.7057,-6.55814 1.2408,-0.73906 2.3609,-1.34373 2.4893,-1.34373 0.1283,0 0.8938,-0.78547 1.7012,-1.74548 0.8074,-0.96001 2.6943,-2.78838 4.193,-4.06303 2.9516,-2.5102 3.6734,-3.55107 4.1244,-5.94758 0.1281,-0.68035 0.5018,-2.16498 0.8307,-3.29916 0.7055,-2.43361 0.7237,-2.67356 0.2027,-2.67356 -0.5549,0 -2.2654,-1.85078 -2.8757,-3.11154 -0.2812,-0.58095 -0.5113,-1.48798 -0.5113,-2.01563 0,-1.05628 0.54,-2.79877 1.0447,-3.37092 0.2119,-0.24024 0.3543,-1.18256 0.4137,-2.73803 0.078,-2.02796 0.1903,-2.57616 0.7781,-3.78215 2.4754,-5.07897 8.0288,-6.95879 13.7932,-4.66902 2.8199,1.12016 5.2571,4.30353 6.295,8.22266 0.5122,1.93379 0.9179,7.70054 0.7681,10.91738 -0.1123,2.40891 -0.2018,2.81867 -1.0077,4.60949 -0.4865,1.08106 -1.1413,2.30452 -1.4551,2.71884 l -0.5707,0.75327 1.7304,0.52907 c 1.8036,0.55144 3.7915,0.65413 8.3689,0.43228 l 2.1471,-0.10406 2.2627,1.12199 c 4.7553,2.35802 5.9317,4.35176 5.9631,10.10625 l 0.017,3.19118 0.9129,1.35546 c 1.3196,1.95926 2.0091,4.82957 2.1731,9.04545 0.1513,3.88991 0.3844,4.68161 2.0728,7.03756 2.6799,3.73968 4.9636,7.35717 5.5973,8.86622 0.8993,2.14151 1.5732,5.60692 1.8951,9.74388 0.2425,3.11716 0.3719,3.73639 1.4285,6.83765 1.1142,3.27018 2.1979,5.577 2.5352,5.39647 1.6831,-0.90086 2.144,-1.00588 4.4142,-1.00588 2.009,0 2.5346,0.0841 3.5014,0.56005 3.4632,1.70517 6.0743,6.87346 6.0712,12.01743 0,2.02873 -0.5513,5.45229 -1.1604,7.22055 -1.3245,3.84553 -4.1236,7.36932 -6.9939,8.80444 -1.2772,0.63865 -1.6415,0.70916 -3.6639,0.70916 -1.9811,0 -2.4045,-0.078 -3.5936,-0.66197 -2.437,-1.19669 -4.4924,-4.10589 -5.3953,-7.63631 -0.2572,-1.00536 -0.4939,-1.85042 -0.5261,-1.8779 -0.032,-0.0275 -0.7429,-0.32417 -1.5794,-0.65928 l -1.5208,-0.60931 -0.9751,0.89878 c -0.913,0.8416 -2.2086,1.46346 -3.7249,1.78788 -0.4357,0.0932 -0.65,0.28905 -0.65,0.59396 0,0.25017 -0.2269,0.6138 -0.5043,0.80806 -0.548,0.38383 -0.549,0.19727 0.025,4.51947 0.1383,1.0401 0.2402,3.69942 0.2263,5.90961 -0.023,3.62519 0.027,4.15735 0.5066,5.43684 0.578,1.54198 0.5825,1.66421 0.4389,11.93739 -0.042,3.04233 0.091,7.00131 0.3581,10.63729 0.328,4.46018 0.3796,6.60643 0.2246,9.33718 -0.1107,1.95016 -0.2036,4.87542 -0.2066,6.50055 l 0,2.95481 1.8633,2.60019 c 2.1983,3.06783 2.9337,3.88515 4.5191,5.02249 0.65,0.46631 1.6074,1.25019 2.1274,1.74195 1.1861,1.12158 2.8953,1.90704 5.8748,2.69983 4.4456,1.18286 5.1171,1.69065 5.1171,3.86932 0,1.23411 -0.05,1.33954 -1.1451,2.39467 -1.7647,1.70093 -2.6882,1.94273 -7.8736,2.0614 -2.6209,0.06 -5.1011,-0.006 -6.115,-0.16373 -1.5956,-0.24759 -2.0384,-0.44256 -4.4549,-1.96123 -0.5318,-0.33425 -1.4737,-0.43731 -5.1282,-0.56112 -5.1245,-0.17362 -5.5492,-0.29416 -6.8491,-1.94407 l -0.8698,-1.10392 0.1276,-2.95481 c 0.093,-2.15717 0.3193,-3.72354 0.8378,-5.8027 0.9577,-3.84114 1.3002,-6.63376 1.1439,-9.32586 -0.1607,-2.76898 -0.5335,-3.83581 -2.0865,-5.971 -2.5105,-3.45149 -3.1415,-5.72038 -3.1388,-11.28502 0,-3.11949 0.1056,-4.38193 0.52,-6.3059 0.7667,-3.55996 0.7534,-4.46639 -0.084,-5.74971 -0.6509,-0.99739 -0.7021,-1.24998 -0.82,-4.05075 l -0.1259,-2.98704 -2.6368,-3.98629 c -1.4503,-2.19247 -2.8781,-4.49157 -3.1727,-5.10912 -0.8996,-1.88519 -1.0126,-1.69822 -1.631,2.69888 -0.7975,5.66958 -1.1418,7.64865 -1.5295,8.79032 -0.4509,1.32833 -1.7719,3.58437 -2.7213,4.64777 -0.3844,0.43055 -0.7608,1.16429 -0.8364,1.63055 -0.076,0.46624 -0.1899,1.16685 -0.2538,1.55687 -0.064,0.39004 -1.0407,2.61926 -2.1706,4.95381 l -2.0544,4.24464 0.1144,2.84687 c 0.063,1.56578 0.1133,4.54885 0.1118,6.62902 0,3.74293 -0.011,3.8014 -0.7825,5.63924 -1.0249,2.4407 -1.3646,4.16834 -1.9272,9.80041 -0.5241,5.2465 -0.4886,5.58695 0.9657,9.23836 1.4153,3.55352 5.4604,9.75292 8.2654,12.6673 1.1279,1.17192 2.172,2.36316 2.3202,2.64717 0.9858,1.88993 -0.8736,5.74786 -2.7704,5.74786 -0.5376,0 -0.932,0.20471 -1.3968,0.72483 -0.5394,0.60378 -0.9041,0.75905 -2.1832,0.92972 -0.8445,0.11265 -1.9071,0.31832 -2.3613,0.45707 -1.0133,0.30946 -4.4022,0.30576 -5.1812,-0.006 z m 4.2416,-1.78734 c 0.7109,-0.21481 1.9308,-0.40094 2.7109,-0.41364 l 1.4183,-0.0232 0,-1.30011 c 0,-1.22507 0.034,-1.30012 0.5839,-1.30012 0.3709,0 0.6816,0.19568 0.8513,0.53604 0.3872,0.77677 0.4241,0.79175 1.245,0.50556 0.6283,-0.21899 0.8053,-0.45908 1.109,-1.50383 0.4892,-1.68281 0.2567,-2.19411 -1.9249,-4.23325 -3.1474,-2.94182 -7.8112,-10.55654 -9.4431,-15.41799 -0.6159,-1.83479 -0.6915,-2.89148 -0.3281,-4.58868 0.1252,-0.58503 0.3274,-2.71249 0.4494,-4.72769 0.2276,-3.76189 0.5334,-5.16033 1.99,-9.10079 0.556,-1.50411 0.6095,-1.9558 0.5887,-4.96404 -0.013,-1.82015 -0.092,-3.62852 -0.1771,-4.01854 l -0.1541,-0.70917 -0.7349,1.30012 c -0.9469,1.67503 -1.3338,2.93915 -2.1077,6.88671 -0.7247,3.69693 -0.8607,4.03915 -1.3939,3.50614 -0.326,-0.32601 -0.3037,-0.69642 0.2213,-3.66396 0.7874,-4.45043 1.3946,-6.52341 2.5058,-8.55536 0.5138,-0.93956 1.1934,-2.67708 1.5103,-3.86116 0.4232,-1.58126 1.0788,-3.05742 2.4691,-5.55935 1.0411,-1.87352 1.9975,-3.80586 2.1252,-4.29406 0.1278,-0.4882 0.3615,-1.4026 0.5194,-2.03199 0.1579,-0.62939 0.4193,-1.19509 0.5809,-1.2571 0.5225,-0.20048 2.442,-3.32331 2.911,-4.73577 0.2507,-0.75493 0.5238,-2.06403 0.6069,-2.9091 0.2525,-2.56761 0.6119,-5.74702 0.7417,-6.56106 l 0.1227,-0.76967 -0.8974,0.38467 c -0.4936,0.21157 -1.0494,0.45833 -1.2351,0.54834 -0.1857,0.09 -0.6355,0.89911 -0.9996,1.79795 -1.3672,3.37511 -3.8992,6.30514 -6.6903,7.74188 -1.259,0.64805 -1.6653,0.7363 -3.437,0.74657 -1.7759,0.0103 -2.1913,-0.0746 -3.5762,-0.73073 l -1.5669,-0.7424 -0.12,6.41562 c -0.1371,7.32394 -0.1802,7.56316 -2.1368,11.86647 -1.5169,3.33599 -2.1661,5.23708 -2.6472,7.75168 -0.6993,3.65514 -0.562,4.70741 1.7471,13.39064 1.4168,5.32738 1.8425,9.92184 1.0841,11.69921 -0.3544,0.83061 -0.3672,1.13165 -0.1068,2.51147 0.2544,1.34869 0.2431,1.72224 -0.081,2.67294 -0.4373,1.28328 -0.3713,1.53414 1.0379,3.94715 0.6921,1.185 1.0575,2.17695 1.3198,3.5824 0.1994,1.069 0.6185,2.83312 0.9313,3.92029 0.3127,1.08712 0.5687,2.23303 0.5687,2.54639 0,0.80148 1.6117,2.46605 3.2467,3.35306 1.5746,0.85429 2.6486,0.93937 4.5615,0.36143 z m -2.5605,-2.25697 c -0.7523,-0.75226 0.088,-1.84376 1.4198,-1.84376 1.568,0 1.7405,1.0411 0.2874,1.73401 -0.9804,0.46755 -1.3271,0.48981 -1.7072,0.10975 z m 5.0407,-2.47683 c -0.4644,-0.47823 -0.8089,-0.97587 -0.7656,-1.10597 0.1853,-0.55585 0.7896,-0.66815 1.6532,-0.30731 0.7738,0.32329 0.8796,0.46545 0.8796,1.18163 0,0.52431 -0.1331,0.86517 -0.3739,0.95758 -0.5237,0.20097 -0.4618,0.2332 -1.3933,-0.72593 z m -11.3028,-15.11591 c -0.3252,-0.32523 -0.1618,-1.57884 0.3042,-2.33275 0.5808,-0.93983 2.18,-2.08076 2.7618,-1.97046 0.2865,0.0543 0.4545,0.32879 0.5025,0.8206 0.061,0.62481 -0.056,0.81792 -0.7537,1.24937 -0.4542,0.28067 -1.0185,0.90458 -1.254,1.38651 -0.4048,0.82812 -1.1663,1.24122 -1.5608,0.84673 z m -0.8637,-31.58697 c -0.1484,-0.42253 -0.3346,-1.96494 -0.4139,-3.42758 -0.1371,-2.5296 -0.1216,-2.65928 0.3175,-2.65928 0.8559,0 1.0007,0.42576 0.8741,2.5711 -0.085,1.43605 -0.017,2.37015 0.2306,3.1612 0.3487,1.11613 0.3475,1.12281 -0.194,1.12281 -0.4016,0 -0.6155,-0.20178 -0.8143,-0.76825 z m 6.8422,-10.17785 c -0.7246,-0.24708 -0.8365,-0.39226 -0.9008,-1.16857 -0.088,-1.06197 0.1637,-1.12365 0.8419,-0.20639 0.4544,0.61465 0.5911,0.66388 1.4218,0.51198 0.5055,-0.0924 1.0439,-0.24518 1.1964,-0.33943 0.3752,-0.23188 0.3696,0.85163 -0.01,1.22758 -0.3549,0.35491 -1.4707,0.34391 -2.5529,-0.0252 z m -2.9892,-6.43237 c -0.4344,-1.13208 1.6629,-3.32808 3.9001,-4.0836 0.8111,-0.27392 1.7971,-0.76927 2.1911,-1.10079 0.8222,-0.69181 0.9923,-0.72649 1.3644,-0.27815 0.305,0.36747 0.1132,1.08598 -0.2959,1.10866 -0.1486,0.009 -0.029,0.1119 0.2659,0.23034 0.3963,0.15921 0.5243,0.38633 0.4909,0.87145 -0.025,0.36086 0.186,1.10396 0.4685,1.65134 0.6773,1.31212 0.6601,1.72318 -0.072,1.72318 -0.7069,0 -1.4724,-1.32225 -1.6917,-2.9222 l -0.1415,-1.03267 -1.653,0.73448 c -1.2765,0.56716 -1.9217,1.04454 -2.8323,2.09563 -1.1937,1.37791 -1.7438,1.65444 -1.9941,1.00233 z m 55.079,50.95835 c 0.762,-0.29685 1.7012,-0.82179 2.087,-1.16652 l 0.7015,-0.62677 -0.5334,-0.67812 c -0.6813,-0.86613 -2.4087,-1.62614 -5.446,-2.39608 -2.9237,-0.74108 -3.4364,-0.99404 -4.6082,-2.2734 -0.5029,-0.54899 -1.2702,-1.32394 -1.7053,-1.7221 -1.0439,-0.9553 -4.3529,-4.77177 -6.0289,-6.95339 l -1.3353,-1.73821 0,-2.51671 c 0,-1.38421 0.1585,-4.41506 0.3485,-6.73521 0.3408,-4.16352 0.3246,-5.83017 -0.1204,-12.3284 -0.1247,-1.82015 -0.2277,-4.38787 -0.229,-5.70604 0,-2.13664 -0.047,-2.39311 -0.416,-2.36384 -0.6186,0.0491 -0.6409,-1.11483 -0.074,-3.85125 0.7692,-3.71168 0.5431,-7.4799 -0.4982,-8.30312 -0.4556,-0.3602 -0.4569,-0.41032 -0.061,-2.36383 0.3163,-1.56071 0.3722,-2.63441 0.2561,-4.92466 -0.1796,-3.5447 -0.6687,-7.82666 -0.894,-7.82666 -0.09,0 -0.7114,0.45208 -1.3806,1.00463 -0.6691,0.55254 -1.6322,1.34115 -2.1403,1.75246 -2.0986,1.69911 -7.5896,3.15251 -11.9103,3.15251 -1.3772,0 -2.504,0.0558 -2.504,0.1241 0,0.50515 1.937,3.75229 3.5218,5.9037 2.2436,3.04584 2.6242,4.07206 2.6242,7.07608 0,2.08499 0.033,2.21318 1.1819,4.62491 1.2317,2.58503 1.3535,3.04325 0.9232,3.47361 -0.5996,0.59953 -1.2288,4.87165 -1.2467,8.46379 -0.025,4.99991 0.6048,7.35479 2.7281,10.20476 1.6281,2.18522 2.066,3.25237 2.3796,5.79943 0.3581,2.90842 -0.056,7.40579 -1.0177,11.06179 -0.4727,1.79652 -0.763,3.57834 -0.8558,5.25415 l -0.1405,2.53569 0.974,0.97406 0.974,0.974 2.4277,-0.15719 c 3.3721,-0.21835 5.5241,0.13133 7.8645,1.27809 1.0401,0.50961 2.5293,1.03933 3.3094,1.17712 0.78,0.13779 1.6842,0.29603 2.0092,0.35156 0.3251,0.0555 2.1334,0.0748 4.0186,0.0428 2.9184,-0.0495 3.6333,-0.13825 4.813,-0.59783 z m -1.4353,-2.12163 c -0.2327,-0.24946 -0.7201,-0.52809 -1.0833,-0.61914 -0.9268,-0.23242 -0.649,-0.70575 0.3949,-0.6727 0.9629,0.0305 1.802,0.6402 1.802,1.30931 0,0.56715 -0.577,0.55814 -1.1136,-0.0174 z m -20.7932,-5.56456 c -2.1065,-0.91623 -2.2287,-3.90677 -0.2357,-5.76671 1.1141,-1.03961 1.4335,-0.13237 0.6209,1.76334 -0.6665,1.55495 -0.5492,2.03524 0.5879,2.40678 1.1508,0.37591 1.5502,0.69442 1.5502,1.23602 0,0.74809 -1.2288,0.92367 -2.5233,0.36057 z m -1.1013,-21.79636 c -0.3523,-0.35233 -0.1196,-0.94082 0.6086,-1.53879 l 0.7703,-0.63264 0.08,-2.61763 c 0.083,-2.71773 0.2889,-3.15937 0.9721,-2.08576 0.3934,0.61812 0.3891,3.50333 -0.01,4.97579 -0.3901,1.4486 -1.7827,2.53987 -2.4235,1.89903 z m 1.4807,-20.15867 c -0.706,-0.51302 -1.4964,-1.08935 -1.7565,-1.28071 -0.3798,-0.27955 -0.4215,-0.43307 -0.2122,-0.78102 0.4199,-0.69812 1.1521,-0.65909 1.6307,0.0869 0.2336,0.36405 0.9673,1.16236 1.6306,1.77401 1.1326,1.04456 1.1689,1.11274 0.5985,1.12282 -0.3459,0.006 -1.1602,-0.39092 -1.8911,-0.92204 z m -1.2443,-8.68018 c -0.4203,-0.42031 -0.033,-0.85538 1.2598,-1.41619 1.1352,-0.49231 1.5242,-0.80816 1.9534,-1.5862 0.6551,-1.1877 1.3569,-1.43693 1.3569,-0.48192 0,0.96289 -2.7242,3.6419 -3.7033,3.6419 -0.3901,0 -0.7801,-0.0709 -0.8668,-0.15759 z m -27.6963,0.61653 c 0.6695,-0.31031 1.849,-1.22035 2.7206,-2.09897 5.6564,-5.70214 6.2029,-16.8786 1.0629,-21.73979 -3.347,-3.16542 -7.9495,-2.17753 -11.2357,2.41167 -2.0093,2.80587 -3.0443,5.96588 -3.2291,9.85809 -0.282,5.93823 2.1614,10.80277 6.0702,12.08529 1.0077,0.33063 3.3496,0.0684 4.6111,-0.51629 z m -18.4081,-6.34912 c 0.5365,-0.24364 1.0456,-0.5564 1.1313,-0.69502 0.086,-0.13865 -0.255,-0.52389 -0.757,-0.85611 -0.502,-0.33223 -1.1418,-1.01163 -1.4218,-1.50977 -0.4818,-0.85726 -0.5011,-1.10685 -0.3612,-4.66444 l 0.1479,-3.75871 -0.6743,-0.80119 c -0.5027,-0.59731 -0.6626,-1.01837 -0.6286,-1.65469 0.2577,-4.80969 -0.075,-10.42186 -0.6389,-10.77023 -0.3735,-0.2308 -2.0933,0.66054 -3.0252,1.56786 -2.6636,2.5933 -4.7163,9.58927 -4.1044,13.98851 0.6653,4.78373 2.5203,8.05857 5.2305,9.23427 1.1794,0.5116 3.8921,0.46881 5.1017,-0.0805 z m 6.1192,-4.45209 c 0,-3.82561 0.4995,-5.95021 2.1616,-9.266 l 1.2395,-2.47263 -1.1277,-1.19247 c -0.7379,-0.78017 -1.2801,-1.16312 -1.5684,-1.10762 -0.2422,0.0466 -0.5805,-0.10663 -0.7516,-0.34062 -0.4295,-0.58748 -0.413,-3.26562 0.022,-3.62701 0.4117,-0.34169 0.5118,-0.18203 0.7296,1.16445 0.3472,2.14673 0.4902,1.56766 0.4819,-1.95173 l -0.01,-3.6033 1.1319,-3.40192 c 1.4675,-4.41034 1.5199,-4.89113 0.7878,-7.23536 -0.3248,-1.04009 -0.9003,-2.89055 -1.2789,-4.11213 -0.3787,-1.22159 -0.7433,-2.12575 -0.8104,-2.00926 -0.5281,0.91678 -0.9317,2.87003 -0.7993,3.86822 0.1133,0.85391 0.063,1.19683 -0.2091,1.42261 -0.5395,0.4477 -1.0044,-0.0611 -1.4469,-1.58324 -0.2166,-0.74502 -0.8635,-1.94236 -1.5341,-2.83951 -1.3378,-1.7896 -1.4954,-2.50041 -0.5292,-2.38578 0.4784,0.0568 0.6958,0.2698 0.9012,0.88319 0.1489,0.44462 0.5932,1.05714 0.9874,1.36114 l 0.7168,0.55276 0.4398,-1.00657 c 0.2419,-0.55362 0.9552,-1.94717 1.5851,-3.0968 2.5557,-4.66429 3.2116,-8.47975 2.4442,-14.21842 -0.3193,-2.38692 -0.4856,-2.98445 -1.0529,-3.78216 -0.9794,-1.37722 -1.2315,-1.92999 -1.0709,-2.34855 0.2724,-0.70973 0.9603,-0.36992 1.8415,0.90969 0.6831,0.99173 0.956,1.70162 1.2071,3.14039 0.4313,2.47037 0.7839,7.00797 0.6514,8.38102 -0.098,1.01188 -0.025,1.20476 0.8951,2.36384 0.5509,0.69413 1.1448,1.60176 1.3199,2.01696 0.2246,0.53272 1.0165,6.33268 1.0318,7.55627 2e-4,0.0207 0.7716,0.46072 1.7142,0.9777 1.6598,0.91037 3.4639,1.56817 3.6875,1.34454 0.06,-0.0601 -0.056,-0.52943 -0.2575,-1.043 -0.344,-0.87555 -0.339,-0.95886 0.079,-1.33691 0.4279,-0.3873 0.4677,-0.35294 1.0097,0.8721 0.3103,0.70141 0.6218,1.44706 0.6921,1.657 0.1703,0.50845 1.4721,0.64871 7.7315,0.83299 4.7489,0.13981 5.214,0.11545 7.0915,-0.37132 1.1051,-0.28651 2.4614,-0.72047 3.0139,-0.96434 0.9468,-0.41789 1.0046,-0.49928 1.0046,-1.41398 0,-1.23873 0.5699,-2.3654 1.1963,-2.3654 0.3964,0 0.4345,0.0757 0.2304,0.45723 -0.3102,0.5795 -0.3202,2.143 -0.014,2.143 0.127,0 0.4064,-0.26782 0.6208,-0.59515 0.34,-0.51884 0.3536,-0.78041 0.1058,-2.04004 -0.3017,-1.53328 -0.232,-2.43653 0.4693,-6.08242 0.2423,-1.25993 0.3486,-2.42754 0.246,-2.70463 -0.1531,-0.41397 -0.2943,-0.25594 -0.9355,1.04652 -0.6978,1.41726 -0.8178,1.5383 -1.5768,1.58941 -1.056,0.0712 -1.9972,-0.79613 -1.9972,-1.84023 0,-0.93388 0.5752,-0.95548 1.049,-0.0393 0.5122,0.99066 0.9793,1.07506 1.3254,0.23951 0.1602,-0.38658 0.6036,-1.13425 0.9856,-1.66146 1.0208,-1.40917 2.2382,-3.96306 2.4213,-5.07929 0.1562,-0.95263 0.1458,-0.97218 -0.4552,-0.85731 -0.6976,0.13337 -1.4709,-0.43495 -1.8144,-1.33362 -0.2067,-0.54074 -0.2876,-0.55958 -1.8415,-0.4293 -1.3406,0.11238 -1.6884,0.0665 -1.9858,-0.26222 -0.6115,-0.67565 -0.8955,-1.67431 -0.6217,-2.18596 0.3564,-0.66585 0.6809,-0.56298 1.056,0.3348 0.3207,0.7676 0.3818,0.79636 1.9755,0.92997 1.7377,0.14568 2.5539,0.49127 2.7703,1.17306 0.072,0.22784 0.3243,0.41426 0.5601,0.41426 0.3773,0 0.4477,-0.30377 0.5887,-2.54113 0.088,-1.39761 0.2133,-2.91343 0.2782,-3.36847 0.095,-0.66622 0.067,-0.74735 -0.142,-0.41658 -0.5789,0.91422 -2.1309,1.10979 -2.1309,0.2685 0,-0.19393 0.113,-0.28271 0.2512,-0.1973 0.3947,0.2439 1.1055,-0.55224 1.2684,-1.42064 0.089,-0.47258 0,-1.20187 -0.2096,-1.81653 -0.5601,-1.60838 -0.4297,-2.29764 0.2973,-1.57062 0.2207,0.22062 0.2837,0.0894 0.2837,-0.59058 l 0,-0.87421 -1.1228,0.79775 c -1.6903,1.20097 -2.5778,1.58892 -4.1684,1.8221 -2.1448,0.31445 -3.3576,0.0664 -4.4353,-0.90733 -0.501,-0.45254 -0.9108,-1.02316 -0.9108,-1.26805 0,-0.54186 0.3081,-0.57391 0.7221,-0.0751 0.5869,0.70715 1.7548,1.12806 3.1831,1.14723 1.7382,0.0233 3.8291,-0.91923 5.7093,-2.57368 2.522,-2.21925 2.8524,-6.17539 0.7871,-9.42591 -0.4616,-0.72639 -0.6753,-1.30978 -0.5846,-1.59559 0.2028,-0.63882 0.4761,-0.56239 1.1359,0.31768 1.2195,1.62657 1.6529,2.81872 1.7645,4.85364 0.088,1.60391 0.1875,2.00077 0.5502,2.19487 0.6183,0.33088 0.5609,0.92925 -0.089,0.93034 -0.4094,8.5e-4 -0.6349,0.25155 -0.9798,1.09007 -0.3841,0.9339 -0.4262,1.44535 -0.2951,3.58744 0.1789,2.92435 0.729,6.06036 1.3578,7.74112 0.5331,1.42487 1.79,2.7035 3.4009,3.45991 1.3169,0.61827 1.7271,1.37662 0.7448,1.37662 -1.369,0 -3.3245,-1.19561 -4.5232,-2.76539 l -0.7681,-1.00602 -0.1456,0.88107 c -0.08,0.48459 -0.1468,1.9074 -0.1483,3.1618 0,2.07965 0.06,2.39961 0.7066,3.62887 0.4389,0.83448 0.7091,1.70207 0.7091,2.27711 0,1.2915 0.7683,3.45532 2.2054,6.21204 1.33,2.55098 2.8888,4.34374 5.6498,6.49781 1.5339,1.19672 1.6134,1.31056 2.2147,3.17346 0.656,2.03205 0.733,3.01834 0.6211,7.96001 -0.034,1.49513 -0.033,3.08687 0,3.53719 0.056,0.72716 -0.016,0.84264 -0.6461,1.03227 -1.197,0.36036 -1.369,0.50835 -1.7105,1.47209 -0.48,1.35478 -0.6852,5.19386 -0.3022,5.65535 0.1659,0.1999 0.886,0.53334 1.6002,0.74098 0.7143,0.20762 1.6311,0.57341 2.0375,0.81284 0.4063,0.23943 1.1224,0.5954 1.5914,0.79103 l 0.8525,0.3557 0.2611,-2.53013 c 0.5272,-5.10858 1.9095,-8.63098 4.4753,-11.40445 0.8126,-0.87833 1.4774,-1.67109 1.4774,-1.76168 0,-0.0906 -0.2046,-0.45204 -0.4547,-0.80323 -0.5448,-0.76505 -2.682,-6.51292 -3.0418,-8.18066 -0.1403,-0.65007 -0.3126,-2.51159 -0.3829,-4.13673 -0.2687,-6.21456 -1.3333,-9.2583 -5.2719,-15.07243 -2.5334,-3.7399 -2.7971,-4.05223 -2.9066,-3.44374 -0.094,0.52324 -0.2489,0.66917 -0.7092,0.66917 -0.5817,0 -0.5878,-0.0207 -0.5116,-1.77287 0.042,-0.97508 -0.037,-3.47727 -0.1775,-5.5604 -0.2793,-4.15806 -0.828,-6.625 -1.8244,-8.20346 l -0.6172,-0.97769 -0.3321,0.63382 c -0.1887,0.36032 -0.5328,0.63383 -0.7973,0.63383 -0.5566,0 -0.5529,0.0522 -0.1163,-1.63276 0.9347,-3.60708 0.8864,-6.63515 -0.1502,-9.40547 -0.4182,-1.11788 -0.6884,-1.41937 -2.2866,-2.55139 -4.0313,-2.85533 -5.497,-3.31989 -7.8117,-2.47591 -1.8018,0.65697 -4.1156,0.55702 -7.0428,-0.30424 l -1.9321,-0.56846 -0.2472,1.40298 c -0.3316,1.88291 -0.9508,3.10545 -1.621,3.20063 -0.6439,0.0915 -0.6447,0.0674 -0.056,-1.81038 0.2583,-0.82415 0.4697,-1.78151 0.4697,-2.12746 l 0,-0.62899 -2.3225,0 c -2.2504,0 -2.3845,-0.0307 -4.3149,-0.98722 -2.3099,-1.1446 -5.078,-3.15921 -5.2994,-3.85693 -0.084,-0.26505 -0.031,-0.85232 0.1187,-1.30502 0.1494,-0.45271 0.2527,-1.16905 0.2295,-1.59187 -0.062,-1.12346 -0.04,-1.16425 0.4786,-0.88698 0.408,0.21839 0.4727,0.49495 0.4727,2.02051 l 0,1.7675 1.3459,0.8609 c 3.7766,2.41587 6.8932,3.20774 9.1831,2.33322 1.263,-0.48235 1.7781,-1.10021 2.8614,-3.43247 0.7142,-1.53749 0.8609,-2.17199 1.0892,-4.71127 0.5829,-6.48291 -0.7862,-12.56701 -3.5096,-15.59616 -2.2593,-2.51289 -6.599,-3.47969 -10.0903,-2.24792 -3.1272,1.10337 -5.4099,4.57793 -5.3984,8.2171 0.01,1.55595 0.043,1.6664 0.7845,2.29188 0.589,0.49657 0.7134,0.72502 0.5093,0.93488 -0.1988,0.20447 -0.3973,0.2096 -0.7527,0.0195 -1.4921,-0.79858 -2.2886,0.0567 -2.1118,2.26768 0.079,0.99111 0.2712,1.43721 1.0026,2.32967 0.4974,0.60712 1.1926,1.20429 1.5448,1.32706 0.7156,0.24948 1.1782,1.06444 1.1782,2.07585 0,0.77294 -0.7395,4.48184 -1.354,6.79096 l -0.4189,1.57382 -3.3094,3.00699 c -4.1586,3.77872 -4.5783,4.22819 -4.9459,5.29757 -0.2661,0.77401 -0.498,0.95647 -2.1016,1.65359 -2.4502,1.06515 -3.0153,1.44602 -5.5173,3.71906 -2.5098,2.28 -2.8692,2.99285 -3.081,6.11046 -0.1735,2.55375 0.2099,3.96971 1.9739,7.29111 1.1897,2.24013 1.2702,2.48563 0.9277,2.82816 -0.3425,0.34253 -0.4082,0.34198 -0.7565,-0.006 -0.2098,-0.20981 -0.7246,-0.98679 -1.1439,-1.72664 l -0.7624,-1.34516 -0.7797,4.88917 c -0.9846,6.17479 -0.9434,6.77324 0.8297,12.06351 1.4709,4.38855 1.5039,4.75097 0.8168,8.97396 -0.179,1.10029 -0.2155,3.15947 -0.1088,6.14599 0.1387,3.88157 0.269,4.97265 0.9602,8.03706 1.1643,5.16287 1.4357,7.88132 1.0751,10.77085 -0.2789,2.23457 -0.2686,2.39832 0.2182,3.46968 0.8483,1.86699 0.9415,2.61 0.6501,5.18109 -0.3409,3.00842 0.01,4.19639 1.5481,5.3168 0.8682,0.63041 1.1114,0.6956 2.1603,0.57903 0.77,-0.0855 1.4291,-0.0164 1.8911,0.19843 0.39,0.18136 0.7091,0.3382 0.7091,0.34851 0,0.0103 0,-1.3373 0,-2.9947 z m 54.243,-19.68476 c -1.0069,-1.56911 -1.1855,-3.08184 -0.5178,-4.38427 0.5746,-1.12084 1.5737,-2.10011 1.9227,-1.88447 0.4007,0.24768 0.3054,0.692 -0.4605,2.14812 -0.8039,1.52827 -0.7711,1.88585 0.2948,3.21226 0.8059,1.00281 0.8234,1.93756 0.038,2.04961 -0.3779,0.054 -0.6887,-0.22373 -1.2774,-1.14125 z m -62.7638,-10.17106 c -0.085,-0.13704 -0.1635,-1.22736 -0.1752,-2.42293 -0.017,-1.78034 0.077,-2.39703 0.5206,-3.40733 0.6987,-1.59126 1.2004,-2.05297 1.1954,-1.10012 0,0.37346 -0.1568,1.1045 -0.3442,1.62453 -0.2048,0.56857 -0.3448,1.86443 -0.351,3.25028 -0.01,1.84432 -0.078,2.30475 -0.351,2.30475 -0.1874,0 -0.4099,-0.11213 -0.4946,-0.24918 z m 31.8747,-5.77056 c -1.0311,-0.44841 -2.1155,-2.02488 -2.464,-3.58192 -0.2546,-1.13785 -0.2422,-1.34055 0.1035,-1.6862 0.5523,-0.55231 0.8555,-0.16605 1.1867,1.51196 0.2682,1.35881 0.3026,1.40339 1.8681,2.42468 1.264,0.82454 1.54,1.10654 1.3303,1.3592 -0.3342,0.40273 -1.0577,0.39284 -2.0246,-0.0277 z m 7.5384,-4.42843 c -0.4362,-0.4362 -0.3372,-1.47554 0.2062,-2.1665 1.0036,-1.27574 1.4791,-0.4639 0.916,1.56372 -0.252,0.9076 -0.6199,1.10514 -1.1222,0.60278 z m 19.1729,-1.19375 c -0.1052,-0.16251 -0.2507,-1.62514 -0.3233,-3.25028 -0.1485,-3.32536 -0.5888,-4.59882 -2.3677,-6.8494 -0.9262,-1.1717 -1.2045,-2.13319 -0.6175,-2.13319 0.8316,0 3.2839,3.74657 3.8335,5.85687 0.3436,1.31909 0.4815,5.57459 0.204,6.29757 -0.1725,0.44952 -0.4683,0.48133 -0.729,0.0784 z m -28.999,-1.36527 c -0.5816,-0.69131 -0.874,-2.12139 -0.4337,-2.12139 0.1037,0 0.596,0.41739 1.0942,0.92754 0.4981,0.51015 1.1655,0.99275 1.483,1.07245 0.8694,0.2182 0.5175,0.70884 -0.5662,0.78959 -0.8231,0.0613 -1.0411,-0.031 -1.5773,-0.66819 z m -8.7334,-1.65254 c -0.3658,-0.10982 -0.8256,-0.33289 -1.0219,-0.49573 -0.5296,-0.43957 -1.2677,-1.99679 -1.2677,-2.67471 0,-0.79111 0.4228,-0.59021 1.2418,0.5901 0.8564,1.23431 2.0711,1.83029 3.0089,1.47631 0.3773,-0.14242 0.7453,-0.1996 0.8179,-0.12707 0.3444,0.34446 0.056,0.81816 -0.6879,1.12889 -0.9107,0.38052 -1.1284,0.39116 -2.0911,0.10221 z m 8.8205,-0.78295 c -1.171,-0.61661 -1.6547,-0.98653 -1.6547,-1.2653 0,-0.54098 0.4726,-0.57027 1.5453,-0.0958 1.2413,0.5491 2.3825,0.44223 2.6001,-0.24351 0.1966,-0.61938 1.0343,-0.77106 3.2977,-0.59709 1.9191,0.14753 1.9642,0.13845 2.8675,-0.57718 1.3626,-1.0796 1.5786,-1.62183 1.283,-3.2209 -0.335,-1.81237 -0.3146,-2.66875 0.064,-2.66875 0.5927,0 1.1075,1.58865 1.1075,3.41744 0,1.55334 -0.071,1.83082 -0.639,2.50616 -0.8672,1.03064 -1.9374,1.42969 -4.3776,1.63238 -1.6746,0.13909 -2.2318,0.28911 -2.9675,0.79893 -1.0022,0.69455 -2.1784,0.81254 -3.1259,0.31358 z m -29.6549,-2.74061 c -0.074,-0.11996 -0.2417,-0.78157 -0.3723,-1.47023 -0.1866,-0.984 -0.1508,-1.669 0.1671,-3.19881 0.3896,-1.87406 0.3883,-1.96469 -0.033,-2.4301 -0.4824,-0.53307 -1.0734,-0.64307 -1.0734,-0.19978 0,0.20388 -0.072,0.21155 -0.2563,0.0272 -0.1411,-0.14102 -0.2208,-0.508 -0.1773,-0.81552 0.1926,-1.36115 2.3372,-0.25918 2.7935,1.43537 0.2397,0.89016 0.2124,1.27931 -0.2679,3.82005 -0.2063,1.09092 -0.1853,1.44879 0.1196,2.03838 0.2034,0.39333 0.3031,0.78182 0.2217,0.86331 -0.224,0.22393 -0.9689,0.17749 -1.1218,-0.0699 z m 23.9865,-0.51847 c -0.8374,-0.33414 -1.4231,-0.92164 -1.4231,-1.42753 0,-0.55 0.1787,-0.54613 1.4515,0.0315 1.4493,0.65762 2.121,0.60447 2.9216,-0.23119 0.8729,-0.91118 1.0637,-0.89306 1.0637,0.10103 0,1.12901 -0.8769,1.79511 -2.3366,1.77506 -0.6001,-0.009 -1.3547,-0.12021 -1.6771,-0.24882 z m -8.2504,-3.1681 c -0.7411,-0.84415 -1.1606,-1.89659 -0.8711,-2.18601 0.088,-0.0875 0.4276,0.18404 0.7558,0.60343 0.8621,1.10158 1.3664,1.31497 2.3446,0.99214 0.9422,-0.31095 0.9939,-0.47084 0.343,-1.05991 -0.26,-0.23533 -0.4727,-0.57235 -0.4727,-0.74897 0,-0.46049 1.3009,0.11603 3.0836,1.36658 2.0634,1.44739 1.8791,2.47633 -0.2491,1.39062 l -0.9287,-0.47379 -0.7756,0.47291 c -1.2409,0.75658 -2.3607,0.6328 -3.2298,-0.357 z m 11.171,-0.48894 c -0.4062,-0.20038 -1.0414,-0.68049 -1.4117,-1.06695 -0.5397,-0.56334 -0.6225,-0.78291 -0.4176,-1.1077 0.4306,-0.68275 1.0612,-0.48622 1.3549,0.42228 0.4747,1.46886 1.4907,1.26849 4.7587,-0.93845 2.1894,-1.4786 2.8677,-1.80895 4.1367,-2.01485 0.585,-0.0949 1.3978,-0.30995 1.8061,-0.47784 1.3366,-0.54963 1.6183,-2.71919 0.666,-5.12933 -0.7958,-2.01387 0.185,-1.59876 1.2367,0.52341 0.5086,1.02644 0.5441,3.3967 0.065,4.36428 -0.5013,1.01287 -1.6458,1.68338 -3.4566,2.02506 -1.4392,0.27156 -1.7266,0.42958 -3.0923,1.70007 -0.8281,0.77039 -1.8688,1.55245 -2.3127,1.7379 -1.0445,0.43645 -2.4034,0.42101 -3.3336,-0.0379 z m -10.9131,-2.93062 c -1.2231,-0.28978 -1.7041,-0.86828 -1.7041,-2.04958 0,-0.5649 0.069,-1.02708 0.1522,-1.02708 0.084,0 0.4828,0.38238 0.8868,0.84975 0.5958,0.68916 0.9441,0.87338 1.843,0.9747 0.6096,0.0688 1.3982,0.0522 1.7525,-0.0367 l 0.644,-0.16165 -0.7331,-0.44583 c -0.7685,-0.46737 -1.236,-1.13143 -1.236,-1.7557 0,-0.56282 0.5152,-0.44281 1.0664,0.24841 0.4174,0.52346 0.7911,0.6584 2.4318,0.87807 1.0771,0.14421 1.9386,0.37357 1.9386,0.51613 0,0.48829 -0.5708,0.82391 -1.4065,0.82688 -0.4615,0.002 -1.4658,0.32077 -2.2317,0.70916 -1.4166,0.71839 -2.0174,0.80196 -3.4039,0.47345 z m 12.3358,-2.02799 c -0.2385,-0.95053 0.1619,-1.49895 1.6853,-2.30782 1.3163,-0.69898 1.4771,-0.87906 2.3582,-2.6412 0.7744,-1.54883 1.1072,-1.97005 1.8388,-2.32746 0.8299,-0.40544 0.9347,-0.40925 1.4774,-0.0536 0.5686,0.3726 0.8066,1.08101 0.3632,1.08101 -0.1216,0 -0.5069,-0.10866 -0.8562,-0.24147 -0.8466,-0.32189 -1.1963,-0.004 -1.386,1.26141 -0.2333,1.55604 -0.8899,2.39242 -2.715,3.45829 -1.5753,0.92006 -1.6553,1.00803 -1.5221,1.674 0.1271,0.63577 0.082,0.70291 -0.4754,0.70291 -0.464,0 -0.6536,-0.14953 -0.7682,-0.60603 z m -10.7433,-3.13395 c -1.2506,-0.79371 -3.2463,-2.95047 -3.4384,-3.71596 -0.075,-0.29906 -0.1004,-0.72949 -0.056,-0.95653 0.1135,-0.5853 0.671,-0.70924 0.671,-0.14916 0,0.66282 2.2711,2.87396 3.5188,3.42586 1.987,0.87895 5.8349,0.12912 9.9905,-1.94682 2.4637,-1.23079 4.2482,-2.6276 5.2907,-4.14137 0.8487,-1.23224 0.8705,-1.31687 0.7703,-3 -0.1012,-1.69963 -0.6659,-3.29675 -1.7583,-4.97271 -0.5251,-0.80555 -0.2513,-1.1104 0.5803,-0.6462 0.4025,0.2247 1.0061,1.07496 1.6413,2.31188 0.8395,1.63489 1.0046,2.18048 1.0046,3.31924 0,3.47583 -1.6971,5.40147 -7.6825,8.71722 -3.4586,1.91597 -5.0266,2.42152 -7.5105,2.42152 -1.7558,0 -2.085,-0.0727 -3.0214,-0.66697 z m -12.2792,-0.12189 c 0,-0.51508 1.3543,-2.66657 2.4421,-3.87972 0.5404,-0.60265 1.5764,-0.72275 1.5764,-0.18274 0,0.19202 -0.2686,0.52517 -0.597,0.74034 -0.3284,0.21518 -0.9741,1.17498 -1.4348,2.13292 -0.7009,1.45706 -0.9316,1.74167 -1.4122,1.74167 -0.4445,0 -0.5745,-0.12498 -0.5745,-0.55247 z m 33.1102,-3.09398 c -0.6874,-0.73166 -0.4505,-1.22167 0.3401,-0.70365 0.6957,0.45587 0.9582,0.31736 1.1423,-0.60274 0.2865,-1.43265 2.0232,-1.15191 3.723,0.60183 0.7715,0.79594 0.79,1.3987 0.026,0.85847 -0.6865,-0.48575 -2.144,-1.23513 -2.4021,-1.23513 -0.1352,0 -0.2458,0.24465 -0.2458,0.54367 0,0.74562 -0.4296,1.11101 -1.3062,1.11101 -0.4765,0 -0.9302,-0.20365 -1.2776,-0.57346 z m -26.4141,-5.2391 c -0.079,-0.20664 -0.08,-1.21068 0,-2.23119 0.2094,-2.71361 1.9832,-7.08483 2.8752,-7.08483 0.4577,0 0.4605,0.6941 0.01,1.34399 -0.3563,0.50857 -1.6038,5.27371 -1.9029,7.26811 -0.1644,1.09649 -0.6824,1.46995 -0.9764,0.70392 z m 3.5275,-12.54557 c -0.1625,-0.0656 -0.2955,-0.31376 -0.2955,-0.55152 0,-0.48444 -0.01,-0.48304 4.8459,-1.0812 1.6902,-0.20837 4.0657,-0.58182 5.279,-0.82992 l 2.206,-0.45108 1.574,0.65453 c 0.9584,0.39851 1.6048,0.81408 1.6526,1.06237 0.1104,0.57332 -0.7762,0.53202 -2.3159,-0.10785 l -1.2409,-0.5157 -5.1139,0.99342 c -4.9232,0.95638 -5.951,1.08533 -6.5913,0.82695 z m 16.4878,-2.15931 c 0,-0.74006 1.7397,-2.21009 2.8753,-2.42952 1.7352,-0.33532 3.2668,-0.2675 3.4277,0.15179 0.2323,0.60537 -0.1974,0.80092 -2.1162,0.96311 -1.7098,0.14454 -1.856,0.20161 -2.4242,0.94661 -0.6797,0.89114 -1.7626,1.11723 -1.7626,0.36801 z m -9.5344,-3.60519 c -0.7339,-0.57727 -2.3655,-3.76781 -2.2455,-4.39093 0.046,-0.24093 0.2463,-0.46925 0.4443,-0.50738 0.254,-0.0489 0.483,0.333 0.7778,1.29739 0.3234,1.05769 0.7207,1.67407 1.7574,2.72594 l 1.3395,1.3592 -0.729,0 c -0.4009,0 -1.0059,-0.21789 -1.3445,-0.48422 z m 17.6132,-0.37716 c 0.1183,-0.6017 1.1996,-1.28732 2.2528,-1.42859 1.4699,-0.19715 1.4013,0.27286 -0.158,1.08444 -1.5825,0.8236 -2.2093,0.92657 -2.0948,0.34415 z m -8.3414,86.99097 c 0.9388,-0.80358 0.9723,-0.88126 0.9859,-2.29076 0.038,-3.91938 0.5924,-4.77246 3.4226,-5.26463 1.0063,-0.17499 1.8534,-0.34766 1.8824,-0.3837 0.029,-0.0361 0.9542,-1.28886 2.0559,-2.78398 2.2235,-3.01768 2.6201,-3.42493 3.141,-3.22505 0.5805,0.22274 0.4268,0.69266 -0.8834,2.70089 -0.6825,1.04625 -1.5601,2.41314 -1.9501,3.03758 -0.9246,1.48013 -2.436,2.61571 -3.7424,2.81159 -1.5451,0.23172 -1.632,0.34591 -1.7581,2.31132 l -0.1139,1.77505 1.6252,0.17686 c 2.0263,0.2205 4.4588,-0.12077 7.4167,-1.04052 3.3558,-1.04348 4.8026,-1.64011 5.1988,-2.14377 0.5303,-0.67435 3.5131,-3.0518 4.0375,-3.21826 0.6959,-0.22087 0.5467,-0.95221 -0.4208,-2.06218 -0.4819,-0.55292 -1.0383,-1.20032 -1.2363,-1.43865 -0.2761,-0.33222 -0.3906,-1.32501 -0.4905,-4.25491 l -0.1303,-3.82158 -1.6319,-3.22657 -1.6318,-3.22654 -0.4353,0.55341 c -0.7879,1.00158 -1.1319,2.18658 -1.1319,3.89854 l 0,1.67799 -0.6501,-0.0748 c -0.504,-0.058 -0.6664,-0.21576 -0.7226,-0.70205 -0.092,-0.79581 0.9733,-4.0066 1.7919,-5.40054 0.6934,-1.18056 0.6953,-1.68122 0.013,-3.4128 -0.3671,-0.93141 -0.4325,-1.4735 -0.3077,-2.54905 0.087,-0.75133 0.1095,-1.36605 0.05,-1.36605 -0.06,0 -0.5104,0.31911 -1.0013,0.70913 -1.0315,0.81978 -3.7295,1.72849 -6.823,2.29807 -1.5643,0.28801 -3.5279,0.40075 -7.1236,0.409 l -4.9641,0.0113 -0.012,1.19845 c -0.023,2.33697 -1.7609,4.37989 -4.801,5.64289 -1.1164,0.46381 -2.154,1.06941 -2.4271,1.41661 -0.4941,0.62818 -1.6862,0.84413 -1.9856,0.3597 -0.2389,-0.38655 0.2593,-0.8306 2.224,-1.98244 2.1659,-1.2698 4.7703,-3.45494 5.1329,-4.30653 0.225,-0.52872 0.1039,-2.33375 -0.1698,-2.52929 -0.049,-0.035 -0.887,-0.19409 -1.8621,-0.3535 -0.975,-0.1594 -2.1845,-0.50379 -2.6877,-0.76531 -0.5031,-0.26151 -0.9394,-0.44393 -0.9695,-0.40537 -0.354,0.45364 -0.5976,2.13478 -0.5976,4.12389 0,2.40828 -0.063,2.58902 -0.8081,2.30329 -0.635,-0.24369 -0.4795,-2.59718 0.4715,-7.13337 0.062,-0.29694 0.3787,-0.66084 0.7031,-0.80867 0.4994,-0.22755 0.7024,-0.18558 1.3237,0.27376 1.0406,0.76932 2.6836,1.14621 6.3468,1.45584 5.7584,0.48675 13.4239,-0.0864 15.9559,-1.19309 1.2684,-0.55435 2.2934,-1.45245 3.1723,-2.77935 0.9314,-1.40606 0.9205,-1.6592 -0.04,-0.93891 -1.6369,1.22728 -4.2104,2.18887 -7.7416,2.89263 -1.6338,0.32562 -2.7601,0.3731 -6.0277,0.25415 -6.5364,-0.23795 -10.21,-0.85201 -13.0036,-2.17361 -0.7303,-0.3455 -1.3587,-0.59064 -1.3963,-0.54478 -0.038,0.0458 -0.6235,1.30669 -1.3019,2.80183 -1.3635,3.0049 -1.6602,4.61589 -1.6683,9.05696 0,1.89142 0.094,2.54646 0.5277,3.54576 0.4234,0.97572 0.5319,1.66648 0.5319,3.38647 l 0,2.16073 0.5909,-0.4118 c 2.0792,-1.44879 5.5326,-1.73009 7.8271,-0.63754 2.568,1.22276 4.8275,4.40671 5.7726,8.13435 0.4123,1.62631 0.5265,5.0301 0.2456,7.32258 l -0.1804,1.47303 0.7056,-0.246 c 0.3881,-0.13529 1.1429,-0.62028 1.6774,-1.07777 z m -2.5251,-16.15989 0.069,-0.59097 6.8552,-0.11819 c 6.3754,-0.10992 6.932,-0.15375 7.9541,-0.62623 0.6044,-0.27941 1.3291,-0.73815 1.6103,-1.0194 0.586,-0.58592 1.042,-0.53338 1.1411,0.13146 0.1049,0.70362 -1.3084,1.87486 -2.7867,2.30936 -1.0386,0.3053 -2.6688,0.39449 -8.1063,0.44353 l -6.8063,0.0614 0.069,-0.59096 z m 0.7411,-1.78492 c -0.3168,-0.82551 2.0497,-2.4371 5.8342,-3.97319 1.1021,-0.4473 2.6952,-1.14298 3.5403,-1.54594 l 1.5365,-0.73264 -1.1099,-2e-4 c -2.2254,-4.5e-4 -7.1963,0.50533 -8.4547,0.86008 -0.7101,0.20021 -1.5959,0.62042 -1.9683,0.9338 -1.101,0.9264 -2.2804,0.69357 -1.9388,-0.38274 0.3275,-1.03162 3.4743,-2.0623 7.9105,-2.59093 2.1785,-0.2596 8.9561,-0.3271 9.5604,-0.0952 0.5562,0.21344 0.4582,1.2096 -0.1579,1.60655 -0.2926,0.18845 -1.2053,0.51514 -2.0284,0.72601 -0.823,0.21087 -2.0995,0.65516 -2.8366,0.9873 -0.7371,0.33215 -2.4038,1.04896 -3.704,1.59291 -1.3001,0.54396 -3.0228,1.43716 -3.8283,1.98492 -1.5645,1.064 -2.1302,1.21515 -2.355,0.62929 z m 46.2888,16.48365 c 5.2588,-2.56624 8.5626,-11.30018 6.8329,-18.06333 -1.2467,-4.87438 -3.898,-7.56932 -7.4449,-7.5674 -5.4886,0.003 -10.1641,7.00783 -10.1368,15.1869 0.01,2.31826 0.1033,2.99679 0.6498,4.60949 1.0671,3.14932 2.4222,4.93816 4.5056,5.94806 1.5389,0.74594 3.9315,0.6973 5.5934,-0.11372 z m -19.3681,-8.12404 c 0.5149,-0.15425 1.2719,-0.59504 1.6822,-0.97956 l 0.7461,-0.6991 -0.9351,-0.32502 c -2.2215,-0.77221 -2.6584,-1.88045 -2.2529,-5.71644 0.3236,-3.06157 0.6541,-3.86438 1.8184,-4.41688 l 0.7786,-0.36948 0,-3.59378 c 0,-1.97656 0.066,-3.82794 0.1428,-4.11416 0.1097,-0.40939 -0.03,-0.6268 -0.6533,-1.0193 -0.67,-0.42159 -1.0676,-0.48438 -2.5657,-0.4052 -1.9794,0.10461 -3.3749,0.67344 -4.6888,1.91129 -1.1408,1.07472 -1.4572,1.83243 -1.4572,3.4891 0,1.28444 0.1298,1.71056 1.0292,3.38021 1.4332,2.66051 1.5968,3.29526 1.6645,6.45674 0.067,3.10522 0.5479,4.79178 1.7151,6.01008 0.7156,0.74692 1.4596,0.84491 2.973,0.3915 z m -43.3266,-7.21589 c 0.01,-0.54768 -0.2248,-1.6114 -0.5173,-2.36384 -0.4434,-1.14056 -0.5319,-1.82849 -0.5319,-4.1366 0,-2.5923 -0.02,-2.71266 -0.3165,-1.89107 -0.9511,2.63635 -1.2199,4.03 -1.2179,6.31352 0,3.94456 0.1509,4.62953 1.149,5.33517 l 0.8582,0.60674 0.2809,-1.43408 c 0.1545,-0.78874 0.2875,-1.88217 0.2955,-2.42984 z m 36.2705,-13.23087 c 0.5281,-0.58779 1.5779,-1.34577 2.477,-1.7884 1.4204,-0.69926 1.7572,-0.76824 3.7518,-0.76824 1.3075,0 2.1891,-0.0953 2.1855,-0.23638 -0.021,-0.79845 -1.1189,-2.19748 -3.1921,-4.06541 -1.304,-1.17496 -2.7153,-2.52848 -3.1361,-3.00778 -1.5997,-1.82192 -3.5936,-6.61073 -3.5936,-8.63078 0,-0.79694 -0.8141,-2.6158 -1.1708,-2.6158 -0.3943,0 -0.5573,1.03656 -0.5947,3.78216 -0.021,1.49513 -0.1262,3.81758 -0.235,5.16103 l -0.1978,2.4426 0.6434,0.59665 c 0.7029,0.65175 0.6699,0.28559 0.5959,6.61389 -0.02,1.75612 0.072,2.38436 0.4891,3.30936 0.4678,1.03824 0.5393,1.10031 0.7877,0.68452 0.1502,-0.25149 0.6856,-0.91634 1.1897,-1.47742 z m -34.432,-6.82029 c 0.2061,-1.99721 -0.3547,-6.41741 -0.9886,-7.79193 -0.2998,-0.65006 -0.7022,-1.38639 -0.8941,-1.63628 -0.3277,-0.42671 -0.3746,-0.37634 -0.7692,0.82735 -0.231,0.70493 -0.7814,2.00476 -1.223,2.88849 -0.6471,1.295 -0.7745,1.77662 -0.6565,2.48203 0.1842,1.10192 0.8897,3.37998 1.8264,5.89755 l 0.7253,1.94932 0.9244,-1.67401 c 0.6217,-1.12586 0.9672,-2.08938 1.0553,-2.94252 z"
       id="path3040"
       inkscape:connector-curvature="0" />
  </g>
</svg>
