<?xml version="1.0" encoding="UTF-8" standalone="no"?>
<!-- Created with Inkscape (http://www.inkscape.org/) -->

<svg
   xmlns:dc="http://purl.org/dc/elements/1.1/"
   xmlns:cc="http://creativecommons.org/ns#"
   xmlns:rdf="http://www.w3.org/1999/02/22-rdf-syntax-ns#"
   xmlns:svg="http://www.w3.org/2000/svg"
   xmlns="http://www.w3.org/2000/svg"
   xmlns:xlink="http://www.w3.org/1999/xlink"
   xmlns:sodipodi="http://sodipodi.sourceforge.net/DTD/sodipodi-0.dtd"
   xmlns:inkscape="http://www.inkscape.org/namespaces/inkscape"
   width="350.52429"
   height="898.90454"
   id="svg2"
   version="1.1"
   inkscape:version="0.48.3.1 r9886"
   sodipodi:docname="Dumbbell-front-raises-2.svg">
  <defs
     id="defs4">
    <radialGradient
       gradientUnits="userSpaceOnUse"
       gradientTransform="matrix(1,0,0,0.91819829,-19.285714,-7.9105395)"
       r="209.56604"
       fy="287.50052"
       fx="398.1105"
       cy="287.50052"
       cx="398.1105"
       id="radialGradient5255"
       xlink:href="#linearGradient5249"
       inkscape:collect="always" />
    <linearGradient
       id="linearGradient5249"
       inkscape:collect="always">
      <stop
         id="stop5251"
         offset="0"
         style="stop-color:#e3e3e3;stop-opacity:1;" />
      <stop
         id="stop5253"
         offset="1"
         style="stop-color:#e3e3e3;stop-opacity:0;" />
    </linearGradient>
  </defs>
  <sodipodi:namedview
     id="base"
     pagecolor="#ffffff"
     bordercolor="#666666"
     borderopacity="1.0"
     inkscape:pageopacity="0.0"
     inkscape:pageshadow="2"
     inkscape:zoom="0.70000001"
     inkscape:cx="220.93497"
     inkscape:cy="420.98047"
     inkscape:document-units="px"
     inkscape:current-layer="layer1"
     showgrid="false"
     showguides="true"
     inkscape:guide-bbox="true"
     fit-margin-top="0"
     fit-margin-left="0"
     fit-margin-right="0"
     fit-margin-bottom="0"
     inkscape:window-width="1217"
     inkscape:window-height="830"
     inkscape:window-x="378"
     inkscape:window-y="223"
     inkscape:window-maximized="0">
    <sodipodi:guide
       orientation="-0.70710678,0.70710678"
       position="-1773.4136,580.47805"
       id="guide2985" />
  </sodipodi:namedview>
  <metadata
     id="metadata7">
    <rdf:RDF>
      <cc:Work
         rdf:about="">
        <dc:format>image/svg+xml</dc:format>
        <dc:type
           rdf:resource="http://purl.org/dc/dcmitype/StillImage" />
        <dc:title></dc:title>
      </cc:Work>
    </rdf:RDF>
  </metadata>
  <g
     inkscape:label="Ebene 1"
     inkscape:groupmode="layer"
     id="layer1"
     transform="translate(-344.84227,291.77856)">
    <path
       style="fill:#000000"
       d="m 430.89086,606.96599 c -3.4824,-1.3923 -14.0493,-9.1513 -17.8009,-13.0707 -3.5706,-3.7304 -7.5508,-15.7403 -8.7287,-26.3383 -0.9936,-8.939 -3.0593,-15.3525 -8.5823,-26.6466 -5.322,-10.8828 -5.6863,-12.8775 -3.6163,-19.801 1.1399,-3.81269 1.1092,-5.13707 -0.2151,-9.27815 -1.2865,-4.02289 -1.3407,-5.59349 -0.3245,-9.39315 3.5428,-13.24583 2.4336,-27.72303 -4.0132,-52.38115 -2.2289,-8.525 -4.9776,-19.1 -6.1084,-23.5 -3.0976,-12.0535 -2.7463,-24.43882 1.2197,-43 2.4974,-11.68799 4.1553,-16.8768 7.5083,-23.5 7.5601,-14.93302 9.1607,-20.26724 11.0956,-36.9766 1.5594,-13.46735 1.7122,-20.7943 1.1767,-56.43679 -0.5008,-33.33821 -0.8725,-41.10409 -1.9973,-41.73355 -0.7601,-0.42535 -2.4254,-1.61831 -3.7007,-2.65102 l -2.3188,-1.87764 3.059,-11.4122 c 1.6824,-6.27671 4.2596,-16.8122 5.727,-23.4122 1.4674,-6.6 3.9874,-15.73602 5.5998,-20.30227 3.5223,-9.97452 3.6315,-13.32293 0.6818,-20.91022 -2.0528,-5.28014 -2.2334,-7.27783 -2.0604,-22.78751 0.2659,-23.83633 1.1364,-28.66697 7.4049,-41.09411 l 5.2068,-10.32237 -0.6166,-11.29176 c -0.6898,-12.6329 -3.6564,-28.22694 -6.7371,-35.413992 -2.558,-5.96765 -9.1397,-14.8660504 -24.2657,-32.8072004 -12.6739,-15.0326896 -16.036,-20.4605296 -17.8168,-28.7638196 -0.6176,-2.87996 -2.8981,-9.00767 -5.0678,-13.61713 -4.9864,-10.5938 -6.9368,-19.91323 -6.9193,-33.06238 0.015,-11.2148 2.9113,-26.738698 6.2048,-33.255448 2.6702,-5.28371 9.7071,-11.02158 21.7805,-17.75992 13.2623,-7.40186 29.7981,-21.21556 33.3974,-27.89949 1.3956,-2.59181 3.078,-7.41238 3.7387,-10.71238 0.6606,-3.3 2.281,-9.76284 3.6009,-14.36187 2.7442,-9.56235 2.9642,-12.13813 1.0365,-12.13813 -2.0746,0 -10.5028,-9.4899 -12.6718,-14.26809 -1.0566,-2.32755 -1.931,-5.90368 -1.943,-7.94696 -0.024,-4.13152 2.4924,-12.46918 4.463,-14.78495 0.7721,-0.90732 1.4584,-5.49548 1.7369,-11.61206 0.3936,-8.64219 0.9102,-11.07307 3.5543,-16.72333 8.8906,-18.99876 29.749,-28.50805 50.7637,-23.14299 15.3673,3.9233 23.929,10.93936 31.3067,25.6551 6.5007,12.96628 7.613,20.0795 7.6348,48.82328 l 0.019,24.5 -3.7728,7.92478 c -2.075,4.35863 -5.3375,9.83436 -7.25,12.1683 -1.9124,2.33393 -3.4772,4.67518 -3.4772,5.20277 0,2.05806 3.3335,3.47466 13.7086,5.82569 9.3331,2.11491 11.4381,2.29107 15.5768,1.30367 10.0636,-2.40092 21.2436,1.57555 31.1354,11.07413 7.3969,7.10289 12.2708,16.52934 13.9017,26.88698 l 1.0422,6.61855 5.3015,-5.30154 c 7.1105,-7.11048 12.6295,-9.45629 22.3958,-9.51918 10.1773,-0.0655 16.9505,3.13049 25.938,12.23926 11.3063,11.45878 16.8462,25.097148 17.7008,43.576588 1.0452,22.60181 -7.4778,40.82321 -22.5593,48.22953 -4.7823,2.34853 -6.8599,2.76252 -13.6415,2.71826 -8.395,-0.0548 -12.9584,-1.64783 -20.1443,-7.03227 l -3.1443,-2.35604 -0.6411,3.41758 c -0.8298,4.42311 0.9099,8.51432 8.2477,19.3965196 5.809,8.61483998 14.6284,26.3538104 17.613,35.4259904 0.8684,2.639762 2.9379,12.539762 4.5988,22.000002 1.6609,9.46024 4.0828,21.02543 5.3819,25.70043 1.299,4.675 2.6556,9.77387 3.0145,11.33082 l 0.6525,2.83083 4.0882,-3.6935 c 6.3601,-5.74589 11.9859,-7.81673 21.3331,-7.8525 10.5369,-0.0403 17.2966,3.1023 26.4635,12.30313 7.5884,7.61647 12.8633,16.93612 16.2023,28.62629 3.2237,11.28602 3.1928,30.04933 -0.065,39.45493 -4.4537,12.85891 -11.4308,21.9465 -20.6009,26.83244 -4.3749,2.33101 -6.1251,2.65901 -14,2.62362 -7.8534,-0.0353 -9.6857,-0.39614 -14.3827,-2.83239 -5.9174,-3.06923 -13.9094,-10.0525 -18.1515,-15.86056 l -2.7294,-3.73688 -2.5259,1.98688 c -1.3893,1.09279 -3.3565,1.98689 -4.3715,1.98689 -1.3805,0 -2.4359,1.70104 -4.1881,6.75 -4.2663,12.29409 -11.8896,22.4779 -19.9439,26.64297 l -2.9125,1.5061 1.4067,6.80047 c 0.8753,4.23165 1.5349,15.11075 1.7461,28.80046 0.3007,19.48948 0.601,22.85586 2.6312,29.5 2.5157,8.23273 2.619,11.62859 1.4133,46.44524 -0.5132,14.82106 -0.1786,25.53868 1.5374,49.23353 2.1467,29.64278 2.1578,30.77762 0.5191,53.24691 -1.1336,15.54466 -1.3677,24.06889 -0.7249,26.39679 0.8853,3.20632 10.2195,16.84722 18.0008,26.30618 1.8681,2.27076 5.7093,5.83948 8.5361,7.93049 2.8269,2.09101 7.1647,5.72334 9.6397,8.07184 5.3904,5.11489 12.2358,8.36899 25,11.88433 19.9478,5.49372 22.5138,7.1327 23.4598,14.98469 0.7558,6.27354 -1.3178,10.70309 -7.0367,15.03165 -7.7635,5.876 -13.4953,6.9768 -35.9231,6.8989 -24.1288,-0.084 -29.1844,-0.9997 -37.1602,-6.7328 l -5.8398,-4.19775 -20,-0.56193 c -11,-0.30906 -21.1258,-1.04294 -22.5017,-1.63085 -1.3759,-0.5879 -4.7048,-3.42422 -7.3975,-6.30292 l -4.8958,-5.234 0.6495,-11.63515 c 0.604,-10.82034 2.0411,-19.10009 6.3586,-36.63515 1.2905,-5.2411 1.7315,-11.39724 1.7552,-24.5 0.031,-17.11667 -0.028,-17.62048 -2.7161,-23 -1.5113,-3.025 -5.2013,-8.97305 -8.1999,-13.21789 -6.1579,-8.71701 -8.8688,-16.23079 -10.6452,-29.50533 -1.5039,-11.23796 -0.6315,-29.68251 2.0386,-43.10029 2.8908,-14.52726 2.7298,-19.3574 -0.8385,-25.15667 -2.7141,-4.41099 -2.9148,-5.47492 -3.25,-17.22436 l -0.3572,-12.52297 -11.6531,-17.48612 c -6.4092,-9.61737 -12.6058,-19.35368 -13.7703,-21.63625 -4.2616,-8.35331 -5.0608,-6.33419 -8.6259,21.79122 -3.2014,25.25582 -6.4577,34.74819 -15.9716,46.55866 -3.3214,4.12309 -4.2393,6.25491 -5.234,12.15528 -0.9304,5.51873 -3.212,11.2116 -9.9757,24.89014 l -8.7694,17.73485 0.4779,11.60987 c 0.2628,6.38542 0.4812,19.25986 0.4853,28.60986 0.01,16.95354 -10e-4,17.02159 -3.2769,24.89959 -1.8065,4.34478 -3.9147,10.64478 -4.6849,14 -1.5397,6.70662 -5.5014,41.38083 -5.5014,48.14968 0,5.35884 5.9337,22.6732 11.0357,32.20169 8.1662,15.25119 21.0565,33.53919 30.5369,43.32399 5.1628,5.3285 9.846,10.8958 10.4071,12.3717 1.6947,4.4574 1.1595,9.8812 -1.5019,15.2222 -3.1789,6.3791 -5.2816,8.275 -10.4711,9.441 -2.3128,0.5196 -5.0997,2.0431 -6.3215,3.4558 -1.6981,1.9633 -3.6629,2.7344 -8.8144,3.4592 -3.6461,0.5131 -7.8379,1.3923 -9.3151,1.954 -3.3614,1.278 -21.2237,1.227 -24.4674,-0.07 z m 23.1101,-8.5117 c 2.2218,-1.1489 4.4467,-1.4437 7.6165,-1.0092 5.6365,0.7725 7.4762,-0.4922 6.0754,-4.1766 -0.5506,-1.4484 -0.7356,-3.6919 -0.4109,-4.9856 0.8115,-3.2333 5.4718,-2.7338 7.2206,0.774 0.8918,1.7891 1.8938,2.4012 3.5231,2.1525 3.4464,-0.5261 4.6313,-1.9232 6.2478,-7.3665 2.0279,-6.8285 0.7803,-9.3379 -9.6596,-19.4303 -14.7899,-14.2974 -36.4654,-51.13387 -41.3826,-70.32751 -1.4891,-5.81242 -1.4601,-6.88108 0.4984,-18.35 1.1437,-6.69798 2.078,-16.5153 2.0762,-21.81627 0,-10.40034 2.466,-21.0525 7.6913,-33.17521 3.0446,-7.06355 4.0858,-20.15771 2.8155,-35.40807 l -0.7198,-8.64067 -3.426,5.43104 c -4.0512,6.42216 -6.2771,13.64962 -9.8332,31.92844 -2.6484,13.61292 -3.4598,15.7827 -5.444,14.55645 -1.5584,-0.96315 -1.3581,-4.6835 0.9491,-17.62896 2.8757,-16.13602 6.5927,-29.58877 9.6389,-34.8859 4.6765,-8.13225 6.0261,-11.4237 7.8065,-19.03899 0.9644,-4.125 3.388,-10.425 5.3859,-14 1.9979,-3.575 3.928,-7.21303 4.2891,-8.0845 0.3611,-0.87148 2.2808,-4.12362 4.266,-7.22697 4.7595,-7.44031 5.5846,-9.6968 7.0169,-19.18853 0.9994,-6.62273 1.5102,-7.9737 2.9669,-7.84726 2.082,0.1807 9.9441,-11.43757 12.7666,-18.86583 1.7616,-4.63624 7.4301,-46.51711 6.4312,-47.51603 -0.2553,-0.25533 -4.7442,1.11923 -9.9753,3.05458 -13.2254,4.89301 -24.383,7.01852 -33.6181,6.40419 -9.0282,-0.60057 -15.4311,-2.63924 -27.9048,-8.88495 l -9.394,-4.70366 0.7289,17.17948 c 1.0167,23.95993 0.7049,71.31341 -0.5436,82.58549 -1.081,9.75894 -2.6776,14.52249 -11.4271,34.09399 -6.9216,15.48255 -9.683,26.98772 -9.8408,41 -0.1237,10.99355 0.1032,12.34256 5.1524,30.63214 6.4901,23.50893 8.9349,35.86034 9.7835,49.42679 0.5719,9.14416 0.3989,11.07796 -1.3932,15.56847 -1.9196,4.81001 -1.9548,5.47758 -0.569,10.78456 1.3427,5.14174 1.3195,6.15781 -0.2549,11.15227 l -1.7321,5.49512 5.2659,10.0907 c 3.9523,7.5736 5.7114,12.3682 7.0519,19.2204 0.9823,5.0212 2.7383,12.5045 3.9022,16.6295 1.1639,4.125 2.3878,8.85 2.7196,10.5 0.7557,3.7573 7.8848,10.5255 14.7863,14.0379 4.618,2.3503 5.9201,2.5653 12.4379,2.0538 4.0039,-0.3141 8.6923,-1.3016 10.4185,-2.1943 z m -14.4484,-8.4774 c -2.3495,-1.3685 -2.2366,-5.5892 0.1843,-6.8848 1.0638,-0.5693 3.7157,-1.0351 5.893,-1.0351 6.7656,0 6.428,4.74 -0.5452,7.6549 -3.7634,1.5731 -3.3224,1.552 -5.5321,0.265 z m 20.8446,-11.207 c -3.482,-4.5652 -3.3955,-6.7129 0.2705,-6.7129 6.848,0 11.4474,9.0588 4.9795,9.8072 -2.0379,0.2359 -3.2588,-0.4838 -5.25,-3.0943 z m -48.8858,-65.33743 c -0.3898,-0.38987 -0.7071,-2.09635 -0.7051,-3.79219 0.01,-7.53918 12.362,-18.46239 15.9668,-14.11889 1.9337,2.32995 0.4058,6.13985 -3.4072,8.49647 -1.8921,1.16935 -4.2554,3.79402 -5.2517,5.8326 -1.7123,3.50339 -4.9337,5.25102 -6.6028,3.58201 z m -3.7085,-136.62552 c -0.6575,-1.7875 -1.4383,-8.5375 -1.7351,-15 -0.5186,-11.29072 -0.461,-11.75 1.4751,-11.75 3.8459,0 4.4439,2.10235 3.1726,11.15374 -1.0744,7.64991 -1.0025,8.78428 0.8614,13.59626 l 2.0336,5.25 -2.3061,0 c -1.6899,0 -2.6256,-0.86845 -3.5015,-3.25 z m 29.9997,-44.45944 c -4.639,-1.70574 -6.5446,-6.76377 -3.5001,-9.29048 1.2619,-1.04728 1.7316,-0.69016 2.9604,2.25056 1.7266,4.13254 4.0645,4.98901 8.5127,3.11866 1.7912,-0.75312 3.43,-1.3693 3.6418,-1.3693 0.9095,0 0.2807,3.70454 -0.8148,4.8 -1.2075,1.20755 -8.0097,1.51653 -10.8,0.49056 z m -13.3333,-27.95723 c -1.3461,-1.34606 -0.5953,-4.09822 2.3176,-8.49599 3.2639,-4.92753 6.591,-6.9723 15.1043,-9.28269 3.0737,-0.83418 7.2981,-2.87523 9.3875,-4.53567 4.666,-3.70808 5.7482,-3.78383 5.3403,-0.37379 -0.3595,3.00584 -6.6655,6.74542 -17.555,10.41052 -6.6329,2.23248 -9.9926,5.35044 -10.9561,10.16775 -0.5254,2.62705 -2.1686,3.57988 -3.6386,2.10987 z m 32.8932,-2.26713 c -3.9201,-4.33163 -5.8513,-14.35666 -2.9781,-15.45921 2.9812,-1.14399 3.323,-0.59894 2.7355,4.36163 -0.6339,5.35262 1.3277,10.03138 4.2058,10.03138 0.8123,0 1.4769,0.675 1.4769,1.5 0,2.12804 -3.3645,1.85975 -5.4401,-0.4338 z m 203.5848,223.96015 c 7.6692,-2.38163 13.8553,-6.39541 13.8553,-8.98982 0,-4.08331 -8.9424,-8.71964 -24.3525,-12.62589 -5.4679,-1.38605 -11.6044,-3.36831 -13.6365,-4.40502 -8.3909,-4.28072 -43.958,-44.76208 -46.1317,-52.50562 -0.8478,-3.02049 -0.7869,-8.77513 0.249,-23.5 1.5027,-21.36153 1.6,-42.39208 0.3854,-83.28283 l -0.7956,-26.78283 -2.0906,3.28283 -2.0907,3.28283 -0.3408,-2.81201 c -0.1874,-1.5466 0.7894,-7.6216 2.1707,-13.5 3.802,-16.17951 4.1217,-20.83754 2.0577,-29.97979 -1.4708,-6.51507 -2.0927,-7.84621 -3.494,-7.47975 -2.62,0.68516 -2.8932,-0.76495 -1.3667,-7.2547 2.261,-9.61253 1.7373,-34.21515 -1.0879,-51.11291 -0.5042,-3.01553 -0.6627,-3.10807 -4.0252,-2.34969 -1.9252,0.4342 -5.1044,2.07182 -7.0648,3.63916 -8.8269,7.05698 -12.857,9.28784 -22.0538,12.20779 -13.321,4.22939 -26.6163,6.34697 -37.4238,5.96057 -4.902,-0.17527 -8.9054,-0.0937 -8.8964,0.18133 0.057,1.72902 9.4125,17.22567 16.0504,26.585 4.324,6.09675 8.3911,12.39675 9.0379,14 0.6468,1.60325 1.4593,8.33688 1.8055,14.96362 l 0.6294,12.04862 5.7325,11.12457 c 5.4656,10.60665 6.9152,15.27819 4.741,15.27819 -0.5454,0 -1.5579,-0.91172 -2.25,-2.02604 -1.1155,-1.79585 -1.4005,-1.14257 -2.5082,5.75 -0.6874,4.27682 -1.775,14.97604 -2.4169,23.77604 -1.8671,25.59727 0.8203,36.87052 12.5153,52.5 8.5355,11.40706 9.1588,13.93857 9.1101,37 -0.04,18.94876 -0.1442,19.92403 -3.683,34.5 -2.0029,8.25 -3.9481,18.91394 -4.3227,23.69765 -0.6181,7.89481 -0.4776,9.02671 1.5224,12.26265 3.453,5.58718 4.889,5.9813 22.0245,6.04497 16.9699,0.063 21.8304,0.98401 29,5.49473 8.0549,5.06775 17.088,6.69585 38.1447,6.87525 12.0142,0.1023 15.7862,-0.2298 21,-1.8489 z m -3.5934,-9.96967 c -0.9673,-1.06883 -3.062,-2.22958 -4.655,-2.57945 -5.3935,-1.18461 -2.886,-4.07309 2.6364,-3.03707 3.978,0.74628 6.4673,2.91377 6.4673,5.63127 0,2.47987 -2.1977,2.47258 -4.4487,-0.0147 z m -91.2303,-24.66997 c -3.7536,-1.85111 -6.321,-6.70486 -6.321,-11.94998 0,-6.43308 6.8816,-15.864 10.1168,-13.86455 1.2898,0.79713 0.7182,4.25418 -1.7659,10.68061 -2.2294,5.76757 -1.3948,7.63355 4.1045,9.17649 4.2234,1.18496 6.1986,3.42413 5.2351,5.9348 -0.8184,2.13288 -7.0652,2.14532 -11.3695,0.0226 z m -3.8744,-94.47312 c -0.3693,-0.59752 0.7367,-2.5392 2.4577,-4.31484 4.036,-4.16414 5.0957,-8.08243 5.0957,-18.84215 0,-8.75889 0.8912,-10.69685 3.0577,-6.64878 1.4033,2.62213 1.3267,16.75104 -0.12,22.12369 -1.7463,6.48501 -8.2759,11.26634 -10.4911,7.68208 z m 6.4244,-84.91958 c -4.2341,-2.2374 -8.871,-7.3968 -8.871,-9.87074 0,-2.03883 1.8705,-4.12327 3.7,-4.12327 0.715,0 1.3,0.73438 1.3,1.63197 0,3.12287 4.0153,8.09824 8.4225,10.43621 2.4394,1.29411 4.2157,2.70818 3.9474,3.14238 -0.8308,1.34417 -4.7013,0.79013 -8.4989,-1.21655 z m -5.2043,-39.66068 c -1.8296,-1.82957 -0.4463,-4.2497 3.0833,-5.39458 5.5097,-1.78715 9.0409,-4.6085 11.293,-9.02296 2.0745,-4.0665 4.3079,-5.0498 5.3429,-2.35244 0.8559,2.23033 -1.5487,6.29062 -6.5557,11.06986 -6.0236,5.74959 -10.9715,7.89214 -13.1635,5.70012 z m -100.1775,-36.45195 c 2.194,-0.6091 8.494,-3.24351 14,-5.85423 5.5059,-2.61073 11.6983,-5.29476 13.7608,-5.96451 3.7409,-1.2148 3.75,-1.23126 3.75,-6.80828 0,-9.61611 1.9251,-18.15916 4.4673,-19.82488 1.6607,-1.08815 15.2495,-4.42948 18.0142,-4.42948 0.168,0 4.1294,-5.13485 8.8031,-11.41078 l 8.4976,-11.41079 -1.5776,-5.66818 -1.5777,-5.66818 -26.0634,0.26281 -26.0635,0.2628 0,-2.43384 0,-2.43384 25.5,-0.26779 25.5,-0.2678 0,-12.48227 c 0,-6.86524 -0.1304,-12.48223 -0.2898,-12.4822 -0.1594,3e-5 -2.0457,0.89581 -4.1917,1.9906 -2.1459,1.0948 -8.4568,3.75696 -14.0241,5.91591 -5.5672,2.15895 -13.6853,6.26452 -18.04,9.12349 -8.2478,5.41483 -11.3695,5.91448 -10.7745,1.72453 0.4532,-3.19166 10.2212,-9.4568 23.4035,-15.01078 6.0041,-2.52969 13.8416,-5.96124 17.4166,-7.62567 l 6.5,-3.02624 -5,-0.0356 c -7.1512,-0.0509 -28.0686,1.80316 -34.2369,3.03463 -2.9883,0.5966 -7.4171,2.54521 -10.3144,4.53825 -5.8323,4.01191 -8.3104,4.05055 -8.7628,0.13663 -0.2504,-2.16598 0.3582,-3.13119 3,-4.75809 7.7599,-4.77877 25.442,-8.25578 48.5327,-9.54347 l 12.2187,-0.6814 2.5164,-4.29395 c 1.384,-2.36168 5.1689,-6.7003 8.4109,-9.64139 5.7508,-5.21714 5.9121,-5.50578 6.622,-11.84742 l 0.7276,-6.5 -2.8571,2.69346 c -5.9751,5.63287 -20.8108,10.60906 -37.8571,12.698 -4.95,0.6066 -17.4375,1.10417 -27.75,1.10572 l -18.75,0.003 -0.01,4.25 c -0.012,5.24482 -3.6296,13.13051 -8.065,17.58023 -3.6336,3.64546 -7.9443,6.08253 -16.2656,9.19592 -4.1621,1.55726 -6.069,2.9941 -8.1531,6.14337 -2.6054,3.93693 -2.6714,4.34785 -1.5615,9.72059 1.1242,5.44168 1.0224,6.00977 -3.3931,18.94625 -3.0971,9.07454 -4.5517,14.98948 -4.5517,18.50945 0,4.17015 -0.4066,5.42704 -2.0974,6.48293 -1.1535,0.72041 -2.3476,1.05963 -2.6534,0.75382 -1.1304,-1.13044 1.9806,-18.29221 4.9798,-27.471 3.3489,-10.24889 3.3441,-8.33625 0.059,-23.63384 -0.6759,-3.1474 3.0577,-6.9573 11.9369,-12.181 4.4844,-2.6382 11.4817,-7.9872 15.5495,-11.88668 l 7.396,-7.08995 -0.7135,-4.91005 c -0.3923,-2.70052 -0.802,-5.01885 -0.9104,-5.15184 -0.1083,-0.13299 -3.9015,-0.88853 -8.4293,-1.67897 -4.5277,-0.79044 -9.9507,-2.33287 -12.051,-3.42762 l -3.8188,-1.99045 -1.304,2.66942 c -0.7687,1.57368 -1.4291,7.3496 -1.6089,14.07121 -0.1677,6.27098 -0.4981,11.59494 -0.7342,11.83102 -0.236,0.23608 -1.3677,-0.0731 -2.5149,-0.68697 -1.5063,-0.80618 -2.0856,-2.09159 -2.0856,-4.62796 0,-5.08781 3.9996,-26.69582 5.2138,-28.16788 1.5585,-1.88938 6.5295,-1.49943 9.5767,0.75125 4.8679,3.59546 15.2083,5.09702 39.2383,5.69792 30.91,0.77295 49.5361,-1.49932 62.6698,-7.6453 6.8071,-3.18542 8.4001,-5.39742 9.6114,-13.34555 l 0.5778,-3.79169 -3.0865,2.59708 c -4.3249,3.63916 -10.967,6.83414 -20.3013,9.76525 -13.4547,4.22501 -21.7807,5.09674 -41.8517,4.38193 -27.2583,-0.97078 -46.2743,-4.42195 -56.2789,-10.21392 l -4.1306,-2.39134 -5.7125,12.72219 c -5.0763,11.30536 -5.8095,13.78016 -6.5837,22.22218 -1.616,17.62009 -1.2171,26.22517 1.5574,33.59623 3.0252,8.0372 3.5397,20.29604 0.9422,22.45172 -2.7055,2.24541 -4.5269,8.03157 -7.0673,22.45205 -1.3566,7.7 -3.2638,17.96672 -4.2384,22.81494 l -1.7719,8.81494 10.1327,6.77558 c 8.0353,5.37314 11.8786,7.24691 18.5677,9.05269 15.0092,4.05186 23.4407,4.86198 30.4242,2.92323 z m 74.8802,-16.84772 c 13.8791,-3.57855 22.3102,-6.89478 26.9582,-10.60355 l 3.4677,-2.76691 -5.9811,-2.82859 c -7.1294,-3.37167 -17.7261,-13.20284 -22.0838,-20.48841 -3.0694,-5.13173 -3.0972,-5.14933 -4.7487,-3.00409 -0.9137,1.18684 -3.4912,5.30789 -5.7278,9.15789 -2.2366,3.85 -5.1212,7.98457 -6.4102,9.18793 -2.8218,2.63428 -10.5465,6.25964 -13.4026,6.29011 -3.9452,0.0421 -5.3395,2.20021 -6.0546,9.37131 -0.5328,5.34299 -0.3755,7.04405 0.7152,7.73468 0.7691,0.48694 5.9804,0.89224 11.5807,0.90066 8.0714,0.0121 12.5676,-0.59967 21.687,-2.95103 z m 47.4335,-20.217 c 9.9347,-2.55402 19.1858,-15.38938 22.7997,-31.63317 5.8545,-26.31498 -9.449,-60.22007 -30.5399,-67.66136 -4.5456,-1.60378 -13.8458,-1.87261 -18.0627,-0.52213 l -2.5,0.80064 2.4343,0.0997 c 11.0239,0.45142 26.7785,19.70278 31.5558,38.55978 1.9716,7.78268 1.9397,24.5212 -0.065,34.33206 -2.3239,11.37012 -5.8648,18.51838 -11.8339,23.89018 l -5.0908,4.58137 3.5,-0.67043 c 1.925,-0.36874 5.4363,-1.16822 7.8029,-1.77662 z m -12.8705,-1.78217 c 5.5197,-2.81596 10.7344,-9.37641 12.6266,-15.88527 2.5072,-8.6246 4.441,-19.79329 4.441,-25.64922 0,-16.01251 -6.972,-33.65203 -17.4166,-44.06495 -14.4283,-14.38455 -26.8485,-9.66548 -34.2491,13.01304 -6.8808,21.0855 -0.5251,49.11152 14.6543,64.61931 5.1873,5.29949 11.9077,9.78926 14.8012,9.8884 0.7095,0.0243 3.0236,-0.84028 5.1426,-1.92131 z m 85.1208,-17.06165 c 7.7044,-3.93048 12.5004,-13.82896 15.0073,-30.97384 2.4046,-16.44527 -1.2312,-33.10623 -10.1271,-46.40666 -7.553,-11.29268 -13.7731,-15.59234 -22.5567,-15.59234 -3.9458,0 -5.0646,0.54113 -9.1849,4.44252 l -4.6918,4.44253 7.2777,14.62184 c 4.0027,8.04201 8.8402,16.89337 10.75,19.66969 3.8618,5.61413 4.2938,8.96952 1.8801,14.60554 -0.8757,2.04483 -2.2358,5.83066 -3.0224,8.41294 -1.6151,5.30191 -4.9637,8.44761 -9.9979,9.39202 -1.8753,0.35181 -3.6192,0.97888 -3.8755,1.39349 -0.9261,1.49853 11.7196,13.21885 16.8298,15.59821 6.2777,2.92292 6.725,2.93797 11.7114,0.39406 z m 10.4185,0.60342 c 4.5144,-1.88625 12.0951,-8.96576 15.0112,-14.01874 6.5266,-11.30947 8.6033,-29.24971 5.0969,-44.02989 -5.345,-22.52968 -21.7699,-39.60063 -37.9895,-39.48374 l -6.0903,0.0439 3.8725,1.38038 c 10.8229,3.85792 22.419,19.57683 26.6521,36.12784 4.8903,19.12107 0.5595,47.02259 -8.8871,57.25508 -4.031,4.36634 -3.3886,5.11632 2.3342,2.72517 z m -49.7686,-20.47246 c 0.6381,-1.02167 1.4602,-3.45745 1.8271,-5.41285 0.6111,-3.25774 0.4913,-3.50934 -1.4316,-3.00647 -1.4628,0.38252 -2.0986,0.0806 -2.0986,-0.99642 0,-1.67645 2.5929,-4.68806 4.0362,-4.68806 0.4914,0 1.3793,-0.90784 1.9731,-2.01742 0.8258,-1.54299 0.7165,-2.53598 -0.4648,-4.2225 -0.8495,-1.2128 -1.5445,-3.03796 -1.5445,-4.05591 0,-3.05777 3.2991,-1.5546 5.4739,2.49407 1.7976,3.34649 1.8481,4.0152 0.5652,7.4882 -0.7747,2.09746 -1.6955,5.95645 -2.0461,8.57553 l -0.6375,4.76197 3.5722,-0.6387 c 5.5975,-1.00079 10.0497,-3.12886 10.6491,-5.09009 0.3018,-0.98733 1.4955,-4.2348 2.6526,-7.21659 2.9042,-7.48353 2.6675,-9.8255 -1.592,-15.75442 -2.0328,-2.82946 -6.8642,-11.78042 -10.7365,-19.89103 -8.3129,-17.41153 -14.804,-39.30426 -17.918,-60.43311 -3.1458,-21.34462 -8.9878,-36.291012 -21.8281,-55.8456824 l -5.8798,-8.9543196 -1.6547,3.47001 c -1.1076,2.3227096 -2.2276,3.3614996 -3.3875,3.1418096 -2.6845,-0.50846 -2.6014,-5.4409296 0.2316,-13.7369696 2.4377,-7.13855 3.2698,-14.00734 1.8668,-15.41037 -0.3679,-0.36786 -1.458,0.0453 -2.4224,0.91808 -2.2774,2.06099 -9.0454,2.94987 -11.6889,1.53515 -1.8402,-0.98487 -2.1771,-0.7491 -3.0548,2.13766 -0.5425,1.78455 -1.2394,6.39463 -1.5487,10.24463 -0.3093,3.85 -0.8257,7.91211 -1.1476,9.0269 -0.4875,1.688 0.2604,2.38423 4.4729,4.1639796 7.9799,3.37141 6.4253,7.80382 -1.7493,4.98745 l -4.1149,-1.41771 -2.6286,7.89273 c -2.1963,6.59491 -2.4493,8.4067704 -1.5387,11.0189104 0.5994,1.7194 1.0898,5.93664 1.0898,9.37163 0,15.739472 7.7412,28.606242 28.8118,47.888362 2.3633,2.16274 6.41,7.46978 8.9926,11.79342 4.0199,6.73 4.7411,7.49518 5.012,5.31774 0.5649,-4.54028 4.1836,-2.53256 4.1836,2.3211 0,0.93552 -1.6082,4.72948 -3.5737,8.43104 l -3.5737,6.7301 4.1401,4.70345 c 4.7442,5.38968 10.1109,16.03181 12.4916,24.7709 0.899,3.3 1.894,11.02493 2.211,17.1665 0.5809,11.25581 1.301,12.77165 4.0078,8.4373 z m -38.77,-122.22883 c -0.6255,-1.16877 -2.2276,-5.33127 -3.5602,-9.25 -2.0332,-5.978902 -5.2137,-11.620802 -10.8504,-19.2473224 -0.654,-0.88481 -0.5865,-1.71365 0.2038,-2.504 1.8851,-1.88509 7.4307,3.0578 10.9758,9.7830404 3.8783,7.35707 7.8075,19.572832 6.9851,21.716022 -0.86,2.24112 -2.3974,2.03728 -3.7541,-0.49774 z m 14.0522,60.15243 c 0.7779,-1.45345 0.023,-3.79637 -3.4439,-10.6943 -3.799,-7.55787 -5.7289,-10.01752 -13.3676,-17.03716 -8.4887,-7.8008 -18.0341,-19.28139 -21.4476,-25.79594 -1.4594,-2.78509 -1.6297,-2.85672 -2.3772,-1 -0.4428,1.1 -0.815,3.95516 -0.8271,6.34479 -0.018,3.52478 0.4841,4.75156 2.6592,6.5 2.4927,2.0038 2.7141,2.82262 3.1509,11.65521 0.2585,5.225 0.4907,13.00247 0.5161,17.28326 l 0.046,7.78326 6.3821,-0.65386 c 7.6027,-0.77891 14.9613,1.05293 21.7236,5.40783 4.8021,3.09258 5.431,3.11121 6.9853,0.20691 z m -68.9853,-23.0187 c 11.6395,-3.48107 12.9997,-4.40009 13.0015,-8.78438 0,-4.67038 2.8933,-10.60534 5.3944,-11.07281 1.5,-0.28036 1.738,0.0323 1.1395,1.49707 -0.416,1.01828 -1.0016,3.86525 -1.3013,6.3266 l -0.545,4.47517 2.4055,-1.61496 c 2.3304,-1.56464 2.3955,-1.95345 2.088,-12.47518 -0.2332,-7.98355 0.2295,-13.64146 1.747,-21.36021 2.9736,-15.124892 2.5995,-19.367992 -1.2123,-13.750002 -1.1869,1.74929 -1.8008,1.98592 -2.7586,1.0633 -0.9705,-0.93471 -0.3735,-2.95207 2.8112,-9.5000004 4.6703,-9.60228002 5.759,-12.81548 7.5795,-22.3702596 l 1.3246,-6.95151 -5.2902,5.16487 c -6.4133,6.2613996 -13.8095,9.3435996 -22.4213,9.3435996 -3.2794,0 -5.9465,0.3375 -5.9271,0.75 0.02,0.4125 0.6786,1.875 1.4646,3.24999998 0.9055,1.58402 1.4421,5.47332002 1.4646,10.61514002 0.029,6.5859104 -0.3346,8.5854804 -1.9279,10.6110704 -2.9843,3.79386 -10.9705,6.75418 -20.1259,7.46019 -6.585,0.5078 -8.8366,1.142392 -12.2401,3.449742 -2.5025,1.69655 -5.5165,2.83474 -7.5354,2.84566 -4.4366,0.024 -13.1353,-4.70487 -13.1353,-7.140732 0,-2.26754 3.6221,-2.44145 6.4411,-0.30927 1.0676,0.80751 3.6176,1.4682 5.6666,1.4682 2.9119,0 4.1629,-0.60054 5.7285,-2.75 2.1381,-2.93547 4.7568,-3.26397 17.7913,-2.23177 4.4146,0.34959 5.6339,0.0197 8.7706,-2.37268 6.3155,-4.81712 6.6513,-5.86799 5.3191,-16.6455504 l -1.1742,-9.5 -7.3202,-3.68166 c -7.2916,-3.6673696 -7.339,-3.6760396 -12.1907,-2.2352396 -3.7283,1.1072 -5.8397,2.6038796 -9.0028,6.3818996 -7.6149,9.09514 -15.2446,11.82484 -23.1448,8.28054 -5.5225,-2.47763002 -9.8845,-6.53654 -9.8845,-9.19779 0,-3.17489 4.594,-2.80142 5.4075,0.4396 0.3433,1.36804 1.7141,3.20147 3.0462,4.07429 2.2431,1.46971998 2.7622,1.43645998 7.0275,-0.45028 2.533,-1.12047 8.0146,-4.52691 12.1814,-7.56988 4.1668,-3.0429696 9.2746,-6.0415896 11.3507,-6.6635996 l 3.7747,-1.13093 -4.894,-6.07338 c -2.6917,-3.34036 -4.894,-6.43981 -4.894,-6.88766 0,-0.44786 -1.6875,0.22157 -3.75,1.48761 -2.0625,1.26604 -5.1,3.04672 -6.75,3.95707 -2.087,1.15145 -3.0136,2.43177 -3.0447,4.20696 -0.055,3.16797 -1.8008,5.02759 -3.946,4.20438 -1.2226,-0.46916 -1.5489,-1.67859 -1.3172,-4.88278 0.2945,-4.07321 0.5586,-4.39012 6.0513,-7.25915 8.5882,-4.48598 9.9704,-6.19346 8.6077,-10.63367 l -1.1101,-3.61697 -4.8363,1.27577 c -4.812,1.2694 -22.9748,0.55942 -27.1567,-1.06156 -0.9636,-0.37351 -3.5602,0.0444 -5.7703,0.92866 -5.9267,2.37142 -7.8333,2.05691 -17.5325,-2.89223 -9.8463,-5.02419 -10.9058,-5.1534 -27.3991,-3.34135 -9.1952,1.01024 -11.2749,0.94485 -16.236,-0.51046 -9.2153,-2.70328 -16.2133,-11.04757 -12.7574,-15.21169 1.1142,-1.34247 1.8683,-0.9542 5.9442,3.06046 6.4377,6.34088 11.9815,7.9689 21.7699,6.39309 11.819,-1.90271 22.3415,-0.72445 31.4177,3.51802 8.3053,3.88214 10.515,4.19953 17.0567,2.44991 3.4902,-0.93348 5.3013,-0.84218 9.9183,0.5 6.6768,1.94101 10.502,2.04468 18.2239,0.4939 4.6341,-0.93068 5.5887,-1.45152 5.04,-2.75 -0.3723,-0.88104 -0.8998,-7.45188 -1.1721,-14.60188 -0.5776,-15.16592 0.7391,-22.09497 6.2233,-32.75 l 3.4743,-6.749998 -3.7461,0 c -4.065,0 -12.6711,2.31631 -23.7028,6.379538 -7.4116,2.72987 -12.0349,3.23561 -14.5,1.58614 -1.2952,-0.86668 -1.227,-1.21622 0.5,-2.56066 1.9512,-1.518998 1.8903,-1.656138 -2.5,-5.624128 -7.5237,-6.80002 -11.9012,-8.31001 -23.4795,-8.09912 -5.4888,0.1 -11.5638,0.44636 -13.5,0.76974 l -3.5205,0.58796 3,-2.51477 c 1.65,-1.38312 4.2375,-2.517 5.75,-2.51973 3.4117,-0.006 3.629,-2.36162 0.7402,-8.0242 -2.1978,-4.30805 -4.5458,-5.8235 -13.2402,-8.54571 -3.1625,-0.99017 -5.75,-2.2088 -5.75,-2.70807 0,-1.03022 -13.8835,6.30992 -18.6098,9.83891 -4.6896,3.50163 -9.1465,11.20702 -11.8872,20.55162 -5.6766,19.354978 -4.0473,33.093478 6.9833,58.882478 1.7643,4.125 3.967,9.58024 4.8949,12.12275 1.0805,2.96085 5.6338,9.2522 12.6653,17.5 13.3013,15.60205958 23.2001,30.15151 27.5811,40.53943 3.2325,7.664432 4.5787,14.823852 5.9022,31.389352 l 0.6432,8.05153 9.1635,4.62163 c 9.7335,4.90909 14.6635,6.51021 14.6635,4.76224 0,-0.57814 -0.6809,-2.68081 -1.5131,-4.67259 -0.8323,-1.99178 -1.3948,-3.67966 -1.25,-3.75085 0.1447,-0.0712 1.0256,-0.71145 1.9576,-1.42281 1.4967,-1.14245 1.9927,-0.70487 4.25,3.74972 1.4055,2.77371 2.5555,5.7245 2.5555,6.5573 0,0.83281 1.0329,1.77343 2.2953,2.09028 5.3238,1.33618 24.433,2.26276 41.2047,1.99797 15.2057,-0.24007 19.1643,-0.6324 25.5,-2.52725 z m -35.791,-1.99314 c -4.4829,-1.06213 -6.9023,-3.47557 -10.3754,-10.35007 -3.5466,-7.01996 -3.5799,-11.98849 -0.084,-12.48504 1.4933,-0.21208 2.25,0.19569 2.25,1.21249 0,0.84262 0.9501,4.07138 2.1113,7.17502 1.9027,5.08533 2.5697,5.83386 6.75,7.57456 8.1654,3.40011 11.1387,5.1392 11.1387,6.51495 0,1.50137 -6.1741,1.68888 -11.791,0.35809 z m 34.991,-18.21556 c -3.0104,-3.0104 0.4323,-12.8 4.5014,-12.8 1.2962,0 1.4416,0.86438 0.87,5.17297 -1.0424,7.85808 -2.7358,10.26263 -5.3714,7.62703 z m -46.5681,-11.82567 c -2.4609,-2.92451 -3.6977,-8.97433 -1.8349,-8.97433 0.4384,0 2.5213,1.76574 4.6287,3.92387 2.1073,2.15813 4.9306,4.19973 6.274,4.53688 3.6777,0.92306 2.1891,2.9987 -2.3956,3.34031 -3.482,0.25944 -4.4041,-0.13121 -6.6722,-2.82673 z m -40.4278,-8.54394 c -2.373,-1.66207 -7.2041,-10.311052 -7.2041,-12.897152 0,-2.74239 2.7837,-1.61928 5.0416,2.03408 4.2479,6.873182 10.2622,9.453672 16.2084,6.954292 2.523,-1.06049 2.351,3.08639 -0.1843,4.44321 -2.9442,1.57571 -11.3094,1.25319 -13.8616,-0.53443 z m 106.4992,-3.96181 c -1.5257,-2.096312 -2.6081,-2.468582 -7.1774,-2.468582 -4.6524,0 -5.6677,-0.36485 -7.5009,-2.69534 -2.1862,-2.77926 -2.4138,-7.35906 -0.3986,-8.01966 0.6195,-0.20309 2.0287,1.16018 3.1316,3.02949 1.6914,2.86666 2.6995,3.47698 6.4397,3.89855 5.7402,0.647 9.8023,3.30002 9.8023,6.401972 0,3.06955 -2.0058,3.00119 -4.2967,-0.14643 z m -87.4283,-11.439522 c -6.1565,-1.46273 -10.8259,-5.87821 -8.5854,-8.11863 0.6068,-0.60685 2.5696,-0.25669 5.3827,0.96024 8.1862,3.54129 8.476,3.53217 12.8327,-0.40379 5.5032,-4.9717804 8.0167,-3.0837304 4.6254,3.47436 -2.2113,4.2762 -7.3094,5.73811 -14.2554,4.08782 z M 419.03916,7.5132176 c -3.5031,-2.4585 -8.0159,-12.45628 -5.6225,-12.45628 0.3378,0 2.2932,1.89207 4.3454,4.20460998 l 3.7313,4.20461002 4.1546,-1.24475 c 4.6878,-1.40452002 5.003,-2.08673002 2.1546,-4.66447 -1.8223,-1.64912 -2.7545,-4.5 -1.4715,-4.5 1.6653,0 12.5613,6.32287998 15.8931,9.22266 5.9226,5.1546 2.9649,7.7631404 -4.3722,3.85602 -3.3254,-1.77083 -3.5793,-1.77246 -7,-0.045 -5.5186,2.78698 -9.2315,3.23411 -11.8128,1.42259 z m -3.2366,-18.1139696 c -3.7492,-1.50789 -5,-3.67521 -5,-8.66369 l 0,-5.0114 3.7636,4.07673 c 4.1216,4.46449 8.6827,5.95771 14.7318,4.82289 l 3.4954,-0.65573 -3.9954,-3.80072 c -2.1975,-2.0904 -3.9954,-4.51884 -3.9954,-5.39654 0,-2.86333 2.1752,-3.02608 4.3608,-0.32628 2.4721,3.0538 7.1434,4.61243 13.8236,4.61243 2.5836,0 5.0024,0.49318 5.3749,1.09596 1.1394,1.84349 -2.0509,4.0305 -6.3468,4.3509 -2.2401,0.16707 -5.7881,1.36382 -7.8845,2.65943 -2.8041,1.73306 -5.5316,2.41957 -10.3198,2.59748 -3.5795,0.13301 -7.1832,-0.0297 -8.0082,-0.36146 z m 18.3567,-54.85504 c -0.3192,-0.83201 -0.061,-2.13915 0.5748,-2.90477 0.9442,-1.13767 0.4308,-1.51445 -2.8098,-2.06193 -3.8565,-0.65155 -5.7728,-2.65811 -4.5021,-4.71415 0.3862,-0.62479 2.9746,-0.7625 6.7533,-0.35929 l 6.1271,0.6538 8.7347,-8.02233 c 9.458,-8.68671 14.3094,-11.66226 20.6735,-12.67992 3.8748,-0.61959 4.0918,-0.52135 4.0918,1.85219 0,2.57743 -2.0096,3.86159 -8.3821,5.35627 -3.5187,0.8253 -18.9059,13.46698 -24.0853,19.78775 -3.8897,4.74692 -6.1647,5.72732 -7.1759,3.09238 z m -49.1824,-1.80172 c -2.9957,-3.1888 -2.8389,-5.68555 0.3571,-5.68555 1.3922,0 2.7904,0.675 3.107,1.5 0.3596,0.93705 1.886,1.5 4.0674,1.5 2.6168,0 4.2188,-0.77829 6.393,-3.10576 1.5957,-1.70816 2.9012,-3.42482 2.9012,-3.81478 0,-1.34077 7.0718,-4.07946 10.5339,-4.07946 3.0305,0 3.4661,0.31418 3.4661,2.5 0,2.16833 -0.4437,2.5 -3.3444,2.5 -2.6989,0 -4.4406,1.06162 -9.023,5.5 -5.4321,5.26127 -5.9088,5.5 -10.9813,5.5 -4.2499,0 -5.7344,-0.45952 -7.477,-2.31445 z m 151.7921,55.7318 c 9.9633,-2.95879 19.6625,-15.71017 23.048,-30.30086 1.8449,-7.95128 0.7611,-26.86751 -2.0121,-35.11649 -3.4901,-10.38157 -8.0128,-18.05262 -14.4798,-24.559928 -9.2027,-9.25996 -18.9212,-12.90761 -29.2163,-10.96585 l -3.8062,0.71788 4.5646,1.73692 c 6.4332,2.44799 10.435,5.65697 15.6766,12.570978 11.9829,15.80603 16.4248,34.89928 12.8649,55.29865 -2.8904,16.5629 -6.8427,24.67251 -14.5968,29.95135 l -3.3051,2.2499996 2.9664,0 c 1.6315,0 5.3646,-0.7121896 8.2958,-1.5826496 z m -12.0233,-2.38833 c 10.1092,-5.15731 16.0569,-20.65859 16.0569,-41.84834 0,-16.69574 -5.3407,-31.02886 -15.754,-42.27991 -6.328,-6.837148 -10.3394,-8.900768 -17.302,-8.900768 -4.7822,0 -5.5763,0.3402 -8.8488,3.79131 -16.3526,17.244718 -15.8941,53.949048 0.9543,76.399558 5.144,6.85446 15.4058,14.80913 19.1043,14.80913 1.0592,0 3.6644,-0.88694 5.7893,-1.97098 z m 95.5569,-15.04586 c 4.5826,-1.95281 11.4576,-8.9923 14.2919,-14.63375 4.3844,-8.72689 5.6797,-14.54575 5.6428,-25.34941 -0.04,-11.7977 -1.8017,-19.71212 -6.6771,-30 -3.5457,-7.482218 -13.9251,-18.495418 -20.2576,-21.494768 -4.6884,-2.22064 -15.4703,-3.19841 -18.1428,-1.64531 -1.7433,1.01306 -1.7474,1.08113 -0.067,1.10967 9.1919,0.15617 23.8164,18.28 28.2667,35.030408 2.426,9.1308 2.2282,26.05989 -0.4225,36.16908 -2.6599,10.14432 -5.0278,14.55652 -10.5383,19.63584 l -4.5727,4.21503 4.2385,-0.66612 c 2.3311,-0.36636 6.0384,-1.43316 8.2384,-2.37067 z m -15.2179,-0.36392 c 7.3863,-3.16935 12.3801,-11.35902 15.139,-24.82708 4.1883,-20.44606 -0.7493,-41.043 -13.1438,-54.828598 -10.4863,-11.66332 -21.7051,-11.66663 -28.5917,-0.008 l -1.7987,3.04444 4.8066,0.004 c 6.1678,0.005 10.473,2.61248 14.315,8.670688 2.8964,4.56709 3.2738,5.8676 4.4959,15.48977 0.4469,3.51841 1.5632,5.76702 4.544,9.15345 5.8152,6.60641 5.3535,10.09913 -2.4495,18.53093 -1.7074,1.84501 -6.8419,5.08919 -11.4348,7.22506 l -8.3358,3.87647 2.1048,2.95592 c 2.3424,3.2896 7.9912,7.97003 12.5669,10.41251 3.7198,1.98562 3.8442,1.99043 7.7821,0.3007 z m -32.2821,-10.61924 c 1.3333,-0.86167 1.3333,-0.97259 0,-0.99834 -0.825,-0.0159 -2.5192,-0.30206 -3.7649,-0.63583 -1.8016,-0.48274 -2.1376,-0.27542 -1.643,1.01365 0.6948,1.81047 3.1336,2.0903 5.4079,0.62052 z m 6.3649,-8.17116 c 4.4271,-1.10858 8.6351,-4.84095 8.6351,-7.65896 0,-1.05656 -1.125,-4.46484 -2.5,-7.57396 -2.795,-6.32005 -3.1157,-8.59592 -1.2113,-8.59592 1.5141,0 7.296,9.27402 8.2608,13.25 0.367,1.5125 0.9371,2.75 1.2668,2.75 0.3296,0 2.3058,-1.66633 4.3915,-3.70295 4.3954,-4.29191 4.75,-6.99222 1.4408,-10.97032 -3.4764,-4.17909 -4.2809,-6.13852 -5.5373,-13.48745 -1.307,-7.64473 -3.2954,-12.91722 -5.5894,-14.82109 -1.2345,-1.02456 -4.4586,-1.174138 -14.3078,-0.66379 -6.9927,0.36235 -14.356,0.93233 -16.3629,1.26662 l -3.6487,0.60781 2.0227,3.42835 c 1.913,3.24228 2.1227,3.33797 3.8628,1.76318 1.564,-1.41541 7.0275,-2.91258 22.162,-6.07308 2.3021,-0.48074 2.75,-0.23577 2.75,1.50404 0,2.6267 -2.7905,4.14194 -7.6843,4.17254 -6.0973,0.0381 -11.4441,1.64997 -14.0208,4.22674 l -2.3902,2.39019 2.5933,8.92961 c 1.9452,6.69779 2.6444,11.55391 2.7977,19.4296 0.1124,5.775 0.6157,10.79722 1.1185,11.16049 1.0024,0.72426 5.936,0.17453 11.9508,-1.33165 z m -112.1643,-57.313808 c 8.8348,-2.82169 12.8011,-3.20942 21.5494,-2.10656 6.4965,0.81898 7.1805,0.40588 4.7182,-2.8496 -3.2094,-4.24325 -0.6656,-6.15877 3.5961,-2.70785 2.2398,1.81362 2.3559,1.80356 5.748,-0.4984 4.7581,-3.22894 10.4635,-4.67037 18.4235,-4.65456 8.1259,0.0161 16.3155,3.62392 24.4256,10.76028 3.2843,2.89002 6.1027,4.54166 7.75,4.54166 1.4237,0 2.5886,-0.23192 2.5886,-0.51538 0,-2.22585 -8.4089,-12.21227 -14.9814,-17.79198 -4.4102,-3.74404 -8.0186,-7.24567 -8.0186,-7.78138 0,-1.85307 2.8323,-2.04935 5.9922,-0.41528 4.9759,2.57313 18.4784,16.02641 21.1188,21.04169 2.2108,4.19953 2.6501,4.51653 5.889,4.25017 l 3.5,-0.28784 -0.2738,-6 c -0.5735,-12.56669 -5.0762,-24.98136 -11.3863,-31.39427 -8.6453,-8.78611 -17.8947,-12.23145 -30.6229,-11.40683 -10.2086,0.66138 -21.1736,-0.91946 -26.0031,-3.74888 -2.3891,-1.39965 -3.3861,-1.58737 -3.6523,-0.68762 -0.2014,0.68068 -0.9246,3.39631 -1.607,6.03474 -1.3731,5.30831 -4.3294,9.70286 -6.5272,9.70286 -1.8743,0 -1.791,-1.25768 0.5855,-8.83909 1.0929,-3.48651 1.9873,-7.53651 1.9876,-9 l 4e-4,-2.66091 -9.8386,0 c -9.7354,0 -9.9373,-0.0496 -19.2504,-4.72509 -11.506,-5.7764 -21.752,-13.28971 -22.5705,-16.55069 -0.3316,-1.32111 -0.036,-4.11962 0.6568,-6.2189 0.734,-2.22379 0.9783,-5.31705 0.5855,-7.41111 -0.7277,-3.87861 -0.4734,-4.14075 2.482,-2.55903 1.6409,0.87814 1.9343,2.14124 1.9343,8.32569 0,8.81952 0.4875,9.40038 13.5,16.08535 11.6712,5.99589 18.4056,7.94654 25.0625,7.25948 9.7293,-1.00415 13.7934,-4.33857 19.013,-15.59933 4.269,-9.21006 5.4084,-16.07356 5.4129,-32.60637 0.01,-35.21512 -10.2815,-58.60206 -28.843,-65.54681 -11.3208,-4.23565 -25.6138,-3.50066 -35.449,1.82289 -12.2268,6.61815 -20.4004,23.37518 -18.2844,37.48567 0.5109,3.40688 1.246,4.71705 3.1279,5.57449 1.4325,0.65266 2.4601,1.96529 2.4601,3.14232 0,2.0871 -2.4072,2.78962 -3.5,1.02144 -1.1687,-1.89107 -6.3175,-1.09866 -7.9433,1.22251 -1.9912,2.84283 -2.0003,10.04031 -0.018,14.21762 1.7303,3.64635 7.1194,9.20639 10.6102,10.94671 3.3617,1.67603 4.966,5.44638 4.3032,10.11316 -1.1474,8.07796 -3.6709,20.1858 -5.6546,27.13135 -2.5362,8.88005 -5.7761,12.38827 -28.6517,31.02394 l -2.6457,2.15529 4.5738,-0.51549 c 5.9054,-0.66555 11.2215,1.96139 16.8044,8.30389 3.0052,3.4141 4.1218,5.55442 4.1218,7.90085 l 0,3.21826 8.3319,0.51981 c 10.2188,0.63752 15.6228,2.90203 21.6681,9.07984 2.475,2.52926 4.725,4.61173 5,4.6277 0.275,0.016 3.9653,-1.07772 8.2006,-2.43041 z m -42.0432,-21.50027 c -4.2377,-1.01427 -6.1737,-2.7686 -4.3199,-3.91433 0.7264,-0.44896 6.7977,-1.06294 13.4916,-1.3644 6.694,-0.30146 18.0802,-1.51242 25.3026,-2.69102 l 13.1318,-2.14291 7.162,3.20241 c 5.0402,2.25364 7.0716,3.67201 6.8568,4.78747 -0.4939,2.56478 -3.3312,2.4226 -9.8268,-0.49246 l -6.0984,-2.73676 -18.6785,2.70514 c -10.2732,1.48783 -19.8036,2.87204 -21.1786,3.07603 -1.375,0.20399 -4.0042,0.0109 -5.8426,-0.42917 z m 67.5093,-4.68143 c -4.3371,-4.33704 8.7505,-13.1155 21.0221,-14.10055 5.4194,-0.43502 6.3112,-0.27181 6.3112,1.15506 0,2.06539 -3.433,3.41692 -10.811,4.25612 -5.0639,0.57599 -6.133,1.12555 -9.7295,5.00157 -3.9367,4.24264 -5.4282,5.05239 -6.7928,3.6878 z m -38.5419,-13.08869 c -1.0537,-2.06546 -4.2622,-5.73384 -7.13,-8.15198 -8.6039,-7.25495 -14.5052,-18.44672 -10.4325,-19.78512 0.5843,-0.19201 2.123,2.02275 3.4192,4.92168 1.5489,3.46379 4.8308,7.6706 9.573,12.27078 7.6275,7.39896 9.9473,10.74994 9.0539,13.07814 -0.9226,2.40431 -2.4801,1.59373 -4.4836,-2.3335 z"
       id="path3206"
       inkscape:connector-curvature="0" />
  </g>
</svg>
