<?xml version="1.0" encoding="UTF-8" standalone="no"?>
<!-- Created with Inkscape (http://www.inkscape.org/) -->

<svg
   xmlns:dc="http://purl.org/dc/elements/1.1/"
   xmlns:cc="http://creativecommons.org/ns#"
   xmlns:rdf="http://www.w3.org/1999/02/22-rdf-syntax-ns#"
   xmlns:svg="http://www.w3.org/2000/svg"
   xmlns="http://www.w3.org/2000/svg"
   xmlns:xlink="http://www.w3.org/1999/xlink"
   xmlns:sodipodi="http://sodipodi.sourceforge.net/DTD/sodipodi-0.dtd"
   xmlns:inkscape="http://www.inkscape.org/namespaces/inkscape"
   width="189.47144"
   height="209.58179"
   id="svg2"
   version="1.1"
   inkscape:version="0.48.3.1 r9886"
   sodipodi:docname="Dumbbell-lateral-raises-1.svg">
  <defs
     id="defs4">
    <radialGradient
       gradientUnits="userSpaceOnUse"
       gradientTransform="matrix(1,0,0,0.91819829,-19.285714,-7.9105395)"
       r="209.56604"
       fy="287.50052"
       fx="398.1105"
       cy="287.50052"
       cx="398.1105"
       id="radialGradient5255"
       xlink:href="#linearGradient5249"
       inkscape:collect="always" />
    <linearGradient
       id="linearGradient5249"
       inkscape:collect="always">
      <stop
         id="stop5251"
         offset="0"
         style="stop-color:#e3e3e3;stop-opacity:1;" />
      <stop
         id="stop5253"
         offset="1"
         style="stop-color:#e3e3e3;stop-opacity:0;" />
    </linearGradient>
  </defs>
  <sodipodi:namedview
     id="base"
     pagecolor="#ffffff"
     bordercolor="#666666"
     borderopacity="1.0"
     inkscape:pageopacity="0.0"
     inkscape:pageshadow="2"
     inkscape:zoom="2.8"
     inkscape:cx="147.73584"
     inkscape:cy="90.637877"
     inkscape:document-units="px"
     inkscape:current-layer="layer1"
     showgrid="false"
     showguides="true"
     inkscape:guide-bbox="true"
     fit-margin-top="0"
     fit-margin-left="0"
     fit-margin-right="0"
     fit-margin-bottom="0"
     inkscape:window-width="1615"
     inkscape:window-height="1026"
     inkscape:window-x="65"
     inkscape:window-y="24"
     inkscape:window-maximized="1">
    <sodipodi:guide
       orientation="-0.70710678,0.70710678"
       position="-2221.4936,421.6063"
       id="guide2985" />
  </sodipodi:namedview>
  <metadata
     id="metadata7">
    <rdf:RDF>
      <cc:Work
         rdf:about="">
        <dc:format>image/svg+xml</dc:format>
        <dc:type
           rdf:resource="http://purl.org/dc/dcmitype/StillImage" />
        <dc:title />
      </cc:Work>
    </rdf:RDF>
  </metadata>
  <g
     inkscape:label="Ebene 1"
     inkscape:groupmode="layer"
     id="layer1"
     transform="translate(-792.92212,-238.6724)">
    <path
       style="fill:#000000"
       d="m 884.08746,447.11939 c -1.2446,-0.71125 -3.37833,-2.43412 -3.93876,-3.18028 -0.4991,-0.6645 -1.35773,-3.81249 -1.54423,-5.66157 -0.18486,-1.83272 -0.66243,-3.29349 -1.86847,-5.71502 -1.25993,-2.52979 -1.38662,-3.138 -0.92485,-4.43997 0.30323,-0.85501 0.321,-1.21624 0.0991,-2.01425 -0.15795,-0.56798 -0.20446,-1.44115 -0.11184,-2.09939 0.0872,-0.61989 0.20972,-2.24087 0.27223,-3.60223 0.12792,-2.78601 -0.2633,-5.0061 -2.05074,-11.63748 -0.87551,-3.24817 -0.97492,-3.88835 -0.97812,-6.29825 -0.006,-4.29537 0.87442,-8.14112 2.78563,-12.17194 0.83219,-1.75506 1.60985,-3.74954 1.72814,-4.43205 0.48176,-2.7799 0.70438,-6.15111 0.69813,-10.57174 -0.004,-2.85039 0.15097,-6.15609 0.39846,-8.49736 0.31832,-3.01129 0.34306,-3.85265 0.11552,-3.92845 -0.15926,-0.0531 -0.78571,-0.4296 -1.39211,-0.83663 -1.36777,-0.91816 -1.36568,-0.7725 -0.094,-6.56533 0.53513,-2.43764 1.24298,-6.00664 1.57304,-7.9311 0.55276,-3.2232 0.58499,-3.78404 0.40886,-7.11467 -0.22446,-4.24451 -0.21154,-4.69318 0.22981,-7.97853 0.28338,-2.10944 0.48973,-2.79696 1.33018,-4.4321 1.09517,-2.13065 1.62418,-3.80268 1.62841,-5.14685 0.004,-1.25945 -0.90217,-5.26546 -1.42128,-6.28342 -0.24579,-0.48197 -1.57335,-1.8558 -3.00244,-3.10706 -4.21814,-3.69326 -4.81274,-4.46467 -6.40719,-8.31238 -1.33238,-3.21528 -2.95093,-6.81647 -4.28192,-9.5271 -0.70684,-1.43951 -0.74213,-1.44962 -2.95335,-0.84604 -1.75695,0.47959 -4.0998,0.48116 -7.79074,0.005 -2.38313,-0.3073 -3.13971,-0.32401 -4.22689,-0.0933 -1.1274,0.23926 -1.53319,0.22238 -2.73052,-0.11357 l -1.40633,-0.3946 -2.70802,1.07105 c -3.37985,1.33678 -4.58352,1.39204 -8.11744,0.3727 -1.33161,-0.3841 -2.74763,-0.699 -3.1467,-0.69981 l -0.72559,-0.002 -0.1353,2.62427 c -0.15637,3.03289 -0.57284,4.76541 -1.69807,7.0639 -2.12005,4.33062 -5.43746,6.62639 -9.17781,6.35139 -2.11651,-0.15562 -3.56423,-0.89352 -5.41663,-2.76085 -1.8,-1.81451 -3.32223,-4.61214 -3.75843,-6.90736 -0.27353,-1.4393 -0.27463,-1.44076 -0.9816,-1.29671 -0.38928,0.0793 -0.91772,0.15084 -1.17431,0.159 -0.2566,0.008 -0.73719,0.38224 -1.06799,0.83128 -0.9152,1.24231 -2.27025,2.3382 -3.70336,2.99507 -1.02971,0.47196 -1.67531,0.59574 -3.1646,0.60675 -1.65885,0.0123 -2.04746,-0.0731 -3.42746,-0.75238 -2.79531,-1.37607 -5.32889,-4.78393 -6.36733,-8.56451 -0.59491,-2.16588 -0.72468,-7.07958 -0.24898,-9.42732 0.94606,-4.66896 3.42316,-8.41124 6.60025,-9.97132 1.17849,-0.57869 1.61424,-0.66239 3.44836,-0.66239 2.6638,0 3.82954,0.52255 5.94833,2.66639 1.43453,1.4515 3.49902,4.84655 3.49902,5.75414 0,0.26862 0.19253,0.23826 0.95465,-0.15054 0.56606,-0.28877 1.91913,-0.61056 3.32407,-0.79052 1.30318,-0.16692 2.7893,-0.49529 3.30248,-0.72969 1.36118,-0.62175 4.5649,-0.59908 5.84804,0.0414 0.93746,0.46791 0.98004,0.46866 3.38239,0.0588 4.23482,-0.72249 7.3726,-0.7881 10.78419,-0.22551 l 2.98607,0.49243 2.71502,-0.47867 c 1.70271,-0.3002 3.32906,-0.75579 4.36187,-1.22191 1.61314,-0.72804 1.71141,-0.74234 4.79991,-0.69869 l 3.15305,0.0446 1.68112,-1.58719 c 2.44099,-2.30461 4.0407,-3.09116 6.58156,-3.23603 1.38156,-0.0788 2.63163,0.008 3.9409,0.27317 1.05462,0.2137 2.04507,0.31011 2.20097,0.21425 0.1559,-0.0958 1.12322,-0.81997 2.14961,-1.60913 2.2715,-1.74652 2.72875,-1.98644 5.2506,-2.75498 2.32909,-0.70982 3.0304,-1.14182 3.0304,-1.86673 0,-0.29121 0.31663,-1.65712 0.70363,-3.03534 0.70065,-2.49523 0.71891,-2.94022 0.12066,-2.94022 -0.41953,0 -2.29775,-2.10874 -2.77613,-3.11687 -0.66247,-1.39606 -0.31983,-4.17085 0.65065,-5.26919 0.21242,-0.2404 0.34978,-1.18186 0.41011,-2.8108 0.0831,-2.24307 0.15633,-2.57154 0.86997,-3.90098 0.96974,-1.80655 2.87143,-3.63248 4.61412,-4.4303 1.78503,-0.81722 5.15432,-1.01589 7.20215,-0.42468 3.38333,0.97678 5.1143,2.46502 6.73975,5.79467 1.18378,2.42492 1.53005,4.01114 1.7922,8.20982 0.33703,5.39837 0.13332,7.7052 -0.8858,10.03052 -0.44984,1.02638 -1.07743,2.20774 -1.39467,2.62524 l -0.57679,0.7591 0.63778,0.24248 c 1.16419,0.44262 1.36982,0.35256 2.66638,-1.16769 2.53046,-2.96706 5.7735,-4.508 9.51298,-4.52014 1.55555,-0.005 2.32937,0.11446 3.36211,0.51922 l 1.34151,0.52576 1.22444,-0.57015 c 1.46088,-0.68024 2.67235,-1.07574 6.22857,-2.03342 3.10891,-0.83721 4.32457,-1.51965 7.47571,-4.19675 2.36087,-2.0057 4.75232,-3.50035 7.25513,-4.5344 l 1.54008,-0.6363 0.14593,-2.48729 c 0.2574,-4.38696 1.63017,-7.92828 4.11419,-10.61335 3.63693,-3.93124 8.819,-3.64003 12.1542,0.68304 1.25873,1.63151 2.44613,4.04121 2.94431,5.97521 l 0.40818,1.58444 0.86619,0 c 1.34023,0 1.93267,-0.32969 3.54199,-1.97097 2.04528,-2.08599 3.38648,-2.68918 5.98554,-2.69192 1.72085,-0.002 2.17793,0.0902 3.46021,0.69684 2.80458,1.32683 5.2801,4.74245 6.37614,8.7978 0.6533,2.41717 0.71086,7.55315 0.11191,9.98077 -0.97849,3.96591 -3.66515,7.80002 -6.41063,9.14825 -1.16387,0.57153 -1.58616,0.64899 -3.53763,0.64899 -2.0822,0 -2.30526,-0.0484 -3.69355,-0.80108 -0.866,-0.4695 -1.95051,-1.33164 -2.62009,-2.08289 -1.1879,-1.33281 -2.76999,-4.13349 -3.24713,-5.74817 -0.21415,-0.72458 -0.54652,-1.1173 -1.48098,-1.74951 -0.66265,-0.44836 -1.2709,-0.84598 -1.3517,-0.8836 -0.0808,-0.0376 -0.41925,0.39635 -0.75211,0.96439 -0.76342,1.30261 -2.60181,2.9668 -4.05094,3.667 -1.63873,0.79182 -4.14745,0.76825 -5.92866,-0.0557 l -1.31461,-0.6081 -1.48461,1.50162 c -0.81653,0.82589 -1.96559,1.81145 -2.55347,2.19011 -0.58788,0.37867 -3.14123,1.38014 -5.6741,2.22549 -3.60487,1.20313 -4.9187,1.75613 -6.04818,2.54569 -1.99898,1.39738 -6.28453,3.51567 -7.98826,3.94848 -0.78,0.19814 -2.59773,0.51524 -4.03942,0.70466 -2.76015,0.36265 -3.78704,0.78509 -4.68573,1.9276 -0.54878,0.69765 -0.58083,1.42845 -0.19823,4.51951 0.24403,1.97154 0.22724,2.43819 -0.14251,3.95947 -0.33083,1.36119 -0.38597,2.1927 -0.26166,3.94664 0.0866,1.22218 0.2555,2.59619 0.37529,3.05337 0.14661,0.55944 0.10582,1.93233 -0.12474,4.19883 -0.18841,1.85217 -0.34464,3.97691 -0.34717,4.72166 -0.003,0.98855 -0.19929,1.80714 -0.72581,3.03247 -0.66795,1.55452 -0.72945,1.92811 -0.83326,5.0608 -0.24269,7.324 -0.25118,7.1349 0.34879,7.77305 0.48152,0.51216 0.54017,0.78824 0.51187,2.40934 -0.0175,1.007 1.1e-4,2.98558 0.0393,4.39685 0.0682,2.4534 0.12102,2.68874 1.20468,5.36516 0.62337,1.53957 1.37528,3.2191 1.67092,3.73229 1.41458,2.45544 1.76912,3.75404 1.8382,6.73283 0.0816,3.51802 0.46687,4.81577 1.90444,6.4147 1.29737,1.44299 1.60702,2.63322 0.79773,3.06633 -0.57256,0.30643 -0.57256,0.30895 0.008,4.43035 0.13554,0.96221 0.22794,3.48154 0.20534,5.59842 -0.0371,3.47814 0.0125,4.01749 0.51512,5.59841 0.46592,1.46548 0.55047,2.18503 0.52088,4.43211 -0.0195,1.47542 -0.0646,4.83446 -0.10048,7.4646 -0.0412,3.02623 0.0899,6.83745 0.35708,10.38039 0.32769,4.34493 0.37794,6.408 0.22441,9.21409 -0.1088,1.98863 -0.20075,4.92779 -0.20432,6.5315 l -0.007,2.91584 1.8387,2.56597 c 2.17842,3.04004 2.93877,3.88692 4.3429,4.83701 0.57734,0.39061 1.52207,1.1627 2.09942,1.71565 1.27739,1.22351 2.88401,1.98055 5.91399,2.78679 4.38692,1.16732 5.04958,1.66836 5.04958,3.81834 0,1.21783 -0.0497,1.32189 -1.12996,2.36305 -1.74144,1.67855 -2.65284,1.91718 -7.76985,2.03427 -2.58633,0.0592 -5.03383,-0.007 -6.03438,-0.1616 -1.57293,-0.24405 -1.97916,-0.42243 -4.38173,-1.92415 -0.5024,-0.31401 -1.56911,-0.43183 -5.31734,-0.58722 -4.66311,-0.19336 -4.69364,-0.19809 -5.55998,-0.85883 -1.65509,-1.26245 -1.81433,-1.74012 -1.68082,-5.04249 0.0875,-2.16399 0.30086,-3.64993 0.82748,-5.76266 0.91634,-3.67612 1.27519,-6.66171 1.11577,-9.28314 -0.15965,-2.62553 -0.55937,-3.74811 -2.073,-5.82196 -2.46061,-3.37141 -3.07733,-5.59013 -3.08256,-11.08994 -0.003,-3.08774 0.0983,-4.33336 0.5121,-6.29824 0.76007,-3.60952 0.74031,-4.3934 -0.14558,-5.77393 -0.70379,-1.09677 -0.73733,-1.25736 -0.74711,-3.57721 -0.006,-1.33588 -0.14204,-2.79632 -0.30315,-3.24536 -0.1611,-0.449 -1.32795,-2.33835 -2.59301,-4.19843 -1.26507,-1.86014 -2.58554,-3.98557 -2.93441,-4.72322 -0.47733,-1.00932 -0.69489,-1.26824 -0.87913,-1.04619 -0.27226,0.32802 -0.81653,3.33843 -1.20436,6.66139 -0.56912,4.87632 -1.59175,7.72475 -3.5871,9.99158 -0.80951,0.91966 -0.96722,1.27877 -1.1204,2.55115 -0.13925,1.15664 -0.58659,2.32326 -2.04305,5.32818 -1.02563,2.11604 -1.98234,4.28396 -2.12604,4.81757 -0.19462,0.72283 -0.18923,1.97419 0.0212,4.90654 0.38853,5.41494 0.23235,7.55668 -0.7105,9.74298 -0.40889,0.94818 -0.89482,2.44995 -1.07983,3.33726 -0.50656,2.42955 -1.29667,10.67059 -1.12499,11.7341 0.20636,1.27823 1.58211,4.81184 2.58524,6.64015 1.8774,3.42167 4.83824,7.60951 6.86069,9.70382 2.08706,2.16118 2.55126,2.88837 2.55126,3.99677 0,1.94927 -1.63001,4.26902 -2.99966,4.26902 -0.52872,0 -0.92094,0.20239 -1.37741,0.71078 -0.52924,0.5894 -0.90221,0.7478 -2.18458,0.9281 -0.85051,0.11958 -1.82832,0.32458 -2.17291,0.45558 -0.34459,0.13106 -1.59067,0.23698 -2.76908,0.23539 -1.87068,0 -2.27573,-0.0789 -3.19224,-0.60268 z m 4.9061,-1.41082 c 0.70153,-0.21089 1.90533,-0.3946 2.67511,-0.40825 l 1.39961,-0.0244 0,-1.28302 c 0,-1.21113 0.0325,-1.28296 0.58003,-1.28296 0.4027,0 0.67401,0.19613 0.88748,0.64151 0.36456,0.76066 0.71374,0.80284 1.50342,0.18168 0.7252,-0.57043 1.17023,-2.14928 0.84871,-3.01092 -0.12549,-0.33633 -1.10184,-1.50374 -2.16966,-2.59424 -4.40831,-4.50207 -9.72085,-14.2145 -9.68757,-17.71091 0.006,-0.58695 0.11192,-1.53954 0.23628,-2.11688 0.12436,-0.57733 0.32362,-2.67673 0.4428,-4.66537 0.22786,-3.80229 0.57979,-5.4188 1.77742,-8.16438 0.59226,-1.35776 0.67005,-1.83315 0.74429,-4.54871 0.0455,-1.66789 -0.003,-3.6017 -0.10671,-4.29746 l -0.18964,-1.265 -0.63237,0.95557 c -0.8511,1.28609 -1.41704,3.06463 -2.16749,6.81146 -0.34564,1.72568 -0.72687,3.39654 -0.84717,3.71294 l -0.21873,0.57532 -0.34924,-0.49861 c -0.31046,-0.44319 -0.30898,-0.73893 0.0132,-2.66324 0.77675,-4.63892 1.51661,-7.31054 2.61156,-9.43056 0.58654,-1.13565 1.31915,-3.00954 1.62803,-4.16421 0.30887,-1.15466 0.91006,-2.67674 1.33598,-3.38235 0.42591,-0.70568 0.93462,-1.59793 1.13046,-1.9828 0.19583,-0.38488 0.69534,-1.31022 1.11002,-2.05632 0.41467,-0.7461 0.9548,-2.16319 1.20029,-3.14909 0.24549,-0.98595 0.63417,-1.95007 0.86373,-2.14254 0.76255,-0.63922 2.40795,-3.46151 2.85444,-4.89614 0.37962,-1.21968 1.28361,-9.50975 1.06126,-9.73207 -0.0828,-0.0828 -3.08492,0.76389 -6.52824,1.84106 -2.03876,0.63778 -2.51671,0.70488 -4.19881,0.58966 -1.22302,-0.0838 -2.63844,-0.38488 -3.97938,-0.84645 -1.14467,-0.39402 -2.14189,-0.65634 -2.21605,-0.58291 -0.31693,0.31368 -0.72237,6.12028 -0.92705,13.27694 -0.25152,8.79468 -0.25215,8.79829 -2.33385,13.44618 -1.97104,4.40083 -2.60783,6.71038 -2.75646,9.99727 l -0.1213,2.68258 1.43292,5.53918 c 2.09992,8.11764 2.56775,11.93836 1.73027,14.13131 -0.339,0.88762 -0.35288,1.21071 -0.10381,2.41659 0.24787,1.20003 0.23371,1.55399 -0.10278,2.56703 l -0.39029,1.17507 1.29643,2.59775 c 0.95319,1.9099 1.36968,3.05831 1.57306,4.33739 0.15216,0.95689 0.46639,2.29122 0.69829,2.96528 0.23191,0.67402 0.4938,1.72813 0.58199,2.34244 0.13463,0.93788 0.35215,1.30485 1.35691,2.28899 2.17224,2.12766 3.86137,2.60592 6.45259,1.82688 z m -2.5151,-2.1037 c -0.4759,-0.19204 -0.33281,-1.18979 0.22685,-1.58178 1.19399,-0.8363 3.13279,-0.0415 2.09832,0.86048 -0.87026,0.75859 -1.64056,0.99754 -2.32517,0.7213 z m 4.94455,-2.52523 c -0.89698,-0.95105 -0.94737,-1.10978 -0.47646,-1.5006 0.79357,-0.65862 2.32642,0.41106 2.19753,1.53343 -0.11275,0.98181 -0.77608,0.96916 -1.72107,-0.0329 z m -11.30023,-15.67462 c 9.7e-4,-1.13868 0.66676,-2.22424 1.8399,-3.00056 1.17469,-0.7774 1.7516,-0.69071 1.84597,0.27745 0.0605,0.62005 -0.0547,0.80699 -0.76817,1.24795 -0.46158,0.28532 -1.01862,0.90101 -1.23787,1.36822 -0.29527,0.62934 -0.56479,0.86867 -1.03965,0.92338 -0.60026,0.0691 -0.641,0.0175 -0.64018,-0.81644 z m -0.6865,-30.34034 c -0.16169,-0.35284 -0.35144,-1.87491 -0.42166,-3.38236 -0.12293,-2.63859 -0.11006,-2.7409 0.3446,-2.7409 0.83371,0 1.05085,0.53074 0.79137,1.93439 -0.17566,0.95021 -0.15303,1.65615 0.0904,2.81959 0.17859,0.85356 0.38852,1.65518 0.46649,1.78134 0.078,0.12618 -0.11,0.22944 -0.41772,0.22944 -0.38357,0 -0.65192,-0.2017 -0.85347,-0.6415 z m 6.99526,-10.09284 c -1.17738,-0.27719 -1.68719,-1.08874 -1.16976,-1.86215 0.19705,-0.29451 0.31028,-0.24841 0.71568,0.29159 0.51733,0.6891 1.32284,0.82743 2.41027,0.41398 0.54098,-0.20563 0.59836,-0.17291 0.59836,0.34174 0,0.94164 -0.85604,1.21469 -2.55455,0.81484 z m -3.12163,-6.21649 c -0.30729,-0.30726 -0.1442,-0.93729 0.50944,-1.96803 0.66174,-1.04343 1.53811,-1.60546 4.16844,-2.67327 0.54146,-0.21982 1.16131,-0.59509 1.37744,-0.83392 0.21613,-0.23884 0.57541,-0.43423 0.7984,-0.43423 0.57139,0 0.7691,0.69076 0.335,1.17045 -0.33431,0.36941 -0.32243,0.41425 0.14182,0.53564 0.38701,0.10119 0.47493,0.25387 0.37229,0.64633 -0.0821,0.31375 0.0939,0.96429 0.45163,1.67028 0.6492,1.28115 0.58763,1.8809 -0.18141,1.76707 -0.63595,-0.0942 -1.38416,-1.49641 -1.54103,-2.88817 -0.0641,-0.56947 -0.15817,-1.03545 -0.20884,-1.03545 -0.0507,0 -0.81202,0.36255 -1.6919,0.80564 -1.11948,0.56374 -1.93165,1.1941 -2.7051,2.09941 -1.04845,1.22723 -1.47275,1.49173 -1.82618,1.13825 z m 54.28014,50.08801 c 0.75199,-0.29291 1.67876,-0.81095 2.05948,-1.15115 l 0.69224,-0.61851 -0.52634,-0.66913 c -0.67389,-0.85671 -2.37894,-1.60541 -5.39446,-2.36884 -1.31832,-0.33371 -2.71186,-0.80793 -3.09676,-1.05384 -1.41746,-0.90552 -6.38633,-6.24693 -9.06665,-9.74642 l -1.31377,-1.71527 0.003,-2.48358 c 0.002,-1.36594 0.1552,-4.34096 0.34107,-6.61114 0.33671,-4.11252 0.31587,-6.33852 -0.11524,-12.31776 -0.12489,-1.732 -0.2275,-4.22505 -0.22802,-5.54009 -4.7e-4,-1.31504 -0.0797,-2.37855 -0.17589,-2.36336 -0.91531,0.14449 -0.97169,-0.57782 -0.29525,-3.78285 0.74597,-3.53439 0.51902,-7.31315 -0.49168,-8.18675 -0.4459,-0.3854 -0.4475,-0.44314 -0.0645,-2.33266 0.31443,-1.55138 0.36023,-2.56507 0.22978,-5.08663 -0.16617,-3.21247 -0.62398,-7.33082 -0.83871,-7.54505 -0.0655,-0.0653 -0.90526,0.56575 -1.86613,1.40243 -0.96089,0.83668 -2.34576,1.82531 -3.07749,2.19695 -2.81576,1.43006 -7.74567,2.43333 -11.18991,2.27731 l -1.79001,-0.0811 0.91212,1.75182 c 0.50167,0.96354 1.64871,2.74802 2.54896,3.96558 2.43417,3.29206 2.63311,3.7955 2.80776,7.10545 0.14478,2.74388 0.1722,2.8548 1.23725,5.00519 1.12715,2.27572 1.26108,2.7842 0.84339,3.20191 -0.60626,0.60628 -1.20992,4.62107 -1.23974,8.24513 -0.0414,5.02713 0.56924,7.33753 2.69213,10.18686 1.60283,2.1513 2.03875,3.20971 2.34437,5.69191 0.348,2.82638 -0.0447,7.11027 -1.00329,10.94704 -0.92198,3.68999 -1.16049,6.97205 -0.58441,8.04179 0.44769,0.8313 1.45586,1.51515 2.27307,1.54181 0.30012,0.01 1.28047,-0.0543 2.17855,-0.14231 2.56774,-0.25175 5.03305,0.19385 7.31251,1.32174 2.51525,1.24456 4.65941,1.59957 9.13287,1.51218 2.86592,-0.0559 3.59116,-0.1473 4.74961,-0.59864 z m -1.35525,-2.09934 c -0.22563,-0.24935 -0.71983,-0.52134 -1.09821,-0.60443 -0.95111,-0.20887 -0.68796,-0.69776 0.35778,-0.66466 0.95011,0.0303 1.77816,0.63173 1.77816,1.29199 0,0.56129 -0.51944,0.54982 -1.03773,-0.0229 z m -20.58025,-5.48547 c -2.07872,-0.90419 -2.1993,-3.85531 -0.23252,-5.69074 1.09932,-1.0259 1.41453,-0.13063 0.61265,1.74008 -0.65774,1.53449 -0.54196,2.00839 0.58021,2.37504 1.13553,0.37102 1.52969,0.68528 1.52969,1.21976 0,0.73823 -1.21261,0.91147 -2.49003,0.35586 z m -1.14137,-21.75252 c -0.37646,-0.37647 -0.34777,-0.44325 0.50818,-1.18303 l 0.90716,-0.78404 0.0442,-2.14104 c 0.0242,-1.17757 0.0505,-2.32475 0.0583,-2.5493 0.0201,-0.57989 0.64424,-0.50588 0.98388,0.11666 0.33819,0.61988 0.30484,3.57206 -0.0555,4.91021 -0.26491,0.98377 -1.14259,2.02949 -1.70342,2.02949 -0.18911,0 -0.52338,-0.17956 -0.74281,-0.39895 z m 2.55679,-19.02405 c -0.27029,-0.15846 -0.94211,-0.62928 -1.49292,-1.04624 -0.55082,-0.41696 -1.07948,-0.75811 -1.1748,-0.75811 -0.2601,0 -0.45946,-0.65394 -0.31451,-1.03168 0.30765,-0.80173 0.84783,-0.55233 2.49092,1.14999 1.10249,1.14218 1.57545,1.78417 1.37188,1.86215 -0.38486,0.14736 -0.30002,0.16431 -0.88057,-0.17611 z m -2.2689,-9.19118 c -0.4756,-0.47561 -0.0922,-0.99435 1.00393,-1.35845 1.04682,-0.34769 2.33958,-1.44525 2.33958,-1.9863 0,-0.26641 0.67818,-0.93182 0.94972,-0.93182 0.11913,0 0.21662,0.30354 0.21662,0.67455 0,0.76783 -1.71407,2.84646 -2.81797,3.41732 -0.69858,0.36122 -1.43494,0.44165 -1.69188,0.1847 z m -25.77806,-7.6516 c 1.70717,-0.2977 8.54261,-2.50478 9.7368,-3.14389 0.34685,-0.1856 0.44359,-0.62817 0.54865,-2.50998 0.19653,-3.52022 0.57007,-3.99761 3.53159,-4.51334 l 1.56552,-0.27261 2.23815,-3.00647 c 1.48802,-1.99883 2.38558,-3.00646 2.67801,-3.00646 0.87034,0 0.71194,0.70725 -0.61477,2.74496 -0.72945,1.12036 -1.62802,2.53043 -1.99682,3.13349 -0.81506,1.33273 -2.12412,2.23894 -3.75862,2.60191 -1.10611,0.24562 -1.24321,0.34645 -1.425,1.04797 -0.11062,0.42691 -0.16951,1.26565 -0.13086,1.86382 l 0.0702,1.08769 1.39961,0.18417 c 1.76088,0.23177 4.13156,-0.0976 7.2589,-1.00864 3.52163,-1.02589 4.33691,-1.44024 6.45464,-3.28038 1.05347,-0.91539 2.25656,-1.82906 2.67352,-2.03039 0.41697,-0.20132 0.75813,-0.45986 0.75813,-0.57454 0,-0.11466 -0.51759,-0.80376 -1.1502,-1.53135 -0.63261,-0.72758 -1.26243,-1.61836 -1.39961,-1.97954 -0.13718,-0.36116 -0.24941,-1.7377 -0.24941,-3.05896 0,-3.78769 -0.3989,-5.22571 -2.48537,-8.95964 l -0.82613,-1.47841 -0.61861,0.89524 c -0.52437,0.75886 -0.63638,1.21508 -0.73525,2.99466 l -0.11663,2.09941 -0.6998,0 c -0.67876,0 -0.69882,-0.0316 -0.66696,-1.04971 0.0367,-1.17326 1.25214,-4.54171 1.96644,-5.4498 l 0.46411,-0.59002 -0.52019,-1.35386 c -0.40477,-1.05348 -0.51143,-1.77931 -0.48069,-3.27135 l 0.0395,-1.91749 -1.0504,0.80178 c -2.30628,1.76043 -7.1645,2.68321 -14.12773,2.68346 l -4.51878,1.6e-4 -0.0159,1.1151 c -0.0196,1.3662 -1.00678,3.30146 -2.17569,4.26497 -0.44425,0.36619 -1.63108,0.99769 -2.63739,1.40333 -1.18839,0.47905 -2.01871,0.9791 -2.36906,1.42678 -0.48293,0.61706 -0.63043,0.67218 -1.40817,0.52628 l -0.86876,-0.16299 0.49628,-0.52826 c 0.27295,-0.29054 1.35513,-1.05494 2.40483,-1.69867 1.04971,-0.64373 2.56462,-1.76659 3.36648,-2.49524 1.39296,-1.26578 1.45777,-1.37332 1.45436,-2.41327 -0.002,-0.59865 -0.0807,-1.20662 -0.17496,-1.35104 -0.0943,-0.14442 -0.92704,-0.38918 -1.85064,-0.54391 -0.92359,-0.15474 -2.07422,-0.4827 -2.55694,-0.72881 -0.48274,-0.2461 -0.95233,-0.44747 -1.04355,-0.44747 -0.41717,0 -0.7751,1.91172 -0.75338,4.02387 0.0207,2.01744 -0.0226,2.27437 -0.38388,2.27437 -0.74024,0 -0.98952,-0.59161 -0.80802,-1.91757 0.3246,-2.37128 0.98834,-5.31619 1.27642,-5.6633 0.40863,-0.49237 1.45633,-0.43567 1.91824,0.10381 0.81835,0.95575 4.62593,1.45871 11.02841,1.45675 5.10871,-0.002 9.32977,-0.54583 11.0242,-1.42145 1.33103,-0.68783 3.55504,-3.2051 3.55504,-4.02382 0,-0.1568 -0.28867,-0.0143 -0.64148,0.31664 -1.36692,1.28223 -4.48138,2.44461 -8.29015,3.09404 -1.68353,0.28706 -2.83088,0.30946 -6.41487,0.12526 -6.32202,-0.32492 -10.13697,-1.05224 -12.38346,-2.36089 -0.43313,-0.25231 -0.80859,-0.42824 -0.83436,-0.39097 -0.0258,0.0373 -0.66812,1.43242 -1.42746,3.10029 l -1.38062,3.03248 0.0561,7.34794 0.0561,7.34794 -1.28397,5.8317 c -0.70618,3.20743 -1.43159,6.38517 -1.61201,7.06168 l -0.32806,1.22995 0.94934,0.48432 c 1.65969,0.84671 7.04894,2.69835 8.01981,2.75545 0.14357,0.009 1.14492,-0.13881 2.22521,-0.32718 z m 6.70366,-18.23102 c -0.11942,-0.14411 -0.15161,-0.43277 -0.0715,-0.64149 0.12929,-0.33695 0.82883,-0.37977 6.24393,-0.38223 7.10289,-0.003 8.51814,-0.23962 10.11033,-1.68877 0.56646,-0.51556 1.23653,-0.40786 1.23653,0.19876 0,0.21339 -0.34812,0.7163 -0.77358,1.11757 -1.34599,1.26944 -3.04462,1.53421 -10.26849,1.60062 -4.41109,0.0405 -6.32421,-0.0198 -6.47721,-0.20446 z m 0.81534,-2.05243 c -0.3487,-0.90869 1.4975,-2.25039 5.30285,-3.85377 1.20285,-0.50682 3.02677,-1.29687 4.05316,-1.75567 l 1.86613,-0.83418 -1.86613,0.1368 c -7.53186,0.55213 -8.92695,0.81143 -10.23765,1.90278 -0.85724,0.71377 -1.65902,0.63954 -1.65902,-0.15362 0,-1.69394 4.69419,-2.89108 12.47983,-3.18265 4.32346,-0.16192 5.1319,-0.0129 5.1319,0.94616 0,0.72827 -0.64676,1.15181 -2.33268,1.5276 -0.70564,0.15728 -2.33268,0.73049 -3.61565,1.27379 -1.28298,0.54331 -3.05144,1.28629 -3.92992,1.65107 -0.87847,0.36477 -2.24309,1.11437 -3.03248,1.66578 -1.53215,1.07023 -1.95791,1.20344 -2.16034,0.67591 z m 9.23937,-16.93953 c 2.75592,-0.80624 2.9578,-0.95654 3.26364,-2.42978 0.26988,-1.30003 0.98424,-2.48635 1.30484,-2.16691 0.0971,0.0967 0.0512,0.71889 -0.10197,1.38253 -0.32952,1.42757 -0.0814,1.87095 0.64206,1.14746 0.55087,-0.55088 0.61862,-1.40477 0.23298,-2.93629 -0.25368,-1.00744 -0.20535,-1.471 0.70773,-6.78959 0.0902,-0.52526 0.0954,-1.15066 0.0114,-1.38979 -0.12648,-0.36061 -0.25851,-0.25388 -0.77392,0.6256 -0.34179,0.58322 -0.62143,1.23486 -0.62143,1.44811 0,0.59638 -1.95065,0.53648 -2.56595,-0.0788 -0.45444,-0.45444 -0.63379,-1.62113 -0.30044,-1.95448 0.0914,-0.0914 0.51762,0.23231 0.94727,0.71924 0.53527,0.60665 0.82152,0.78758 0.90937,0.57478 0.0705,-0.17081 0.6434,-1.08084 1.27307,-2.02229 1.30959,-1.958 2.1861,-3.80662 2.40553,-5.0734 0.15136,-0.87394 0.15073,-0.87476 -0.67013,-0.87476 -0.6445,0 -0.90728,-0.1383 -1.2189,-0.64148 -0.66433,-1.07271 -0.91879,-1.17851 -2.52439,-1.04962 l -1.49714,0.12017 -0.51842,-1.06705 c -0.43102,-0.88717 -0.46756,-1.12835 -0.21673,-1.43058 0.46292,-0.55779 0.82775,-0.43721 1.19386,0.39459 0.32385,0.73579 0.38471,0.76209 2.06535,0.89261 1.59873,0.12417 1.78077,0.19331 2.37132,0.90068 0.35181,0.42142 0.73833,0.70521 0.85895,0.63067 0.12061,-0.0745 0.29396,-1.31543 0.38522,-2.75752 0.0913,-1.44208 0.22626,-2.94107 0.30002,-3.33109 l 0.13412,-0.70911 -0.51658,0.64148 c -0.56355,0.69981 -1.42544,0.84211 -1.8683,0.30848 -0.22697,-0.27347 -0.15908,-0.34645 0.37966,-0.40822 0.52822,-0.0606 0.71286,-0.24934 0.94785,-0.96908 0.24605,-0.75366 0.22957,-1.12752 -0.10502,-2.38318 -0.41338,-1.55138 -0.32995,-2.01092 0.27408,-1.50963 0.30299,0.25146 0.35555,0.20573 0.35555,-0.30933 0,-0.70896 -0.21621,-0.66616 -1.93344,0.38265 -2.10863,1.28788 -5.06341,1.7276 -6.78244,1.00934 -0.89102,-0.3723 -1.78117,-1.40341 -1.78117,-2.06324 0,-0.42354 0.0491,-0.41448 0.69387,0.12804 2.31438,1.94743 5.84367,1.25711 8.96213,-1.75294 l 1.37499,-1.3272 -0.19085,-2.63835 c -0.27834,-3.84767 -0.19608,-6.57692 0.22263,-7.38661 0.20155,-0.38976 0.6716,-0.79398 1.09488,-0.94153 0.97982,-0.34157 0.97305,-0.34547 0.54203,0.31235 -0.37347,0.56998 -0.37199,0.56979 0.88883,-0.1131 0.98416,-0.53304 1.863,-0.76268 3.98173,-1.04043 1.49536,-0.19602 3.53352,-0.6148 4.52927,-0.93062 2.91254,-0.92375 6.93017,-3.42627 7.91588,-4.93066 0.20317,-0.31008 0.62666,-1.4801 0.94107,-2.60005 0.62795,-2.2368 1.45333,-3.84348 2.75365,-5.36034 1.66323,-1.94014 2.10102,-0.81444 0.56702,1.45792 -1.37207,2.0325 -1.76417,2.86427 -2.08657,4.4261 -0.15821,0.7665 -0.33394,1.51422 -0.3905,1.6616 -0.11791,0.30727 6.06143,-1.55168 7.58396,-2.28151 0.55631,-0.26666 1.92655,-1.35567 3.04497,-2.42001 1.58436,-1.50771 2.43403,-2.58174 3.84676,-4.86242 0.99728,-1.61 2.10236,-3.17056 2.45574,-3.46792 0.35341,-0.29735 1.53966,-0.84524 2.63615,-1.21753 1.92179,-0.65249 2.0157,-0.66245 2.60534,-0.27609 0.46397,0.304 0.61171,0.5947 0.61171,1.20365 0,0.59459 0.13615,0.87508 0.52485,1.08126 0.28866,0.15312 1.27356,0.83076 2.18864,1.50586 l 1.66377,1.22745 0.10989,-3.65538 c 0.10727,-3.57091 0.38227,-4.99871 1.4567,-7.56262 0.15785,-0.37674 -0.0649,-0.40822 -2.89414,-0.40822 -2.76269,0 -3.1738,0.0548 -4.16549,0.55425 -1.91007,0.96218 -4.44869,1.77836 -9.53126,3.06435 -4.89948,1.23968 -7.3404,2.10036 -9.08614,3.20384 -0.50106,0.31673 -2.27566,1.70208 -3.94352,3.07852 -3.77186,3.11284 -4.87251,3.75959 -6.98359,4.10359 -3.48658,0.56813 -4.04397,0.73846 -6.14673,1.87836 -2.31952,1.2574 -3.34527,2.32446 -3.77751,3.92971 -0.31365,1.16479 -0.78416,1.75665 -1.25332,1.57662 -0.79646,-0.30562 -0.29265,-2.26323 1.08564,-4.21849 0.45547,-0.64615 0.45775,-0.6871 0.0546,-0.98183 -1.05056,-0.76818 -4.724,-0.7043 -6.89308,0.11988 -2.04663,0.77766 -3.65406,2.05206 -5.4779,4.343 -1.87231,2.35184 -2.89197,3.03206 -3.55348,2.37055 -0.34281,-0.34282 -0.32707,-0.41159 0.19028,-0.83101 0.63486,-0.51466 0.59603,-0.62595 -0.29656,-0.84998 -0.58278,-0.14627 -0.63688,-0.0948 -0.77704,0.73916 -0.4063,2.41738 -1.40766,4.2426 -2.00168,3.64859 -0.1724,-0.1724 -0.101,-0.71519 0.23877,-1.81524 0.26659,-0.86311 0.48471,-1.83132 0.48471,-2.15156 0,-0.57981 -0.007,-0.5816 -1.59805,-0.42179 -1.35371,0.13594 -1.84455,0.0747 -3.21036,-0.40023 -2.03237,-0.70679 -4.5923,-2.19398 -6.05315,-3.51656 l -1.12742,-1.02074 0.31082,-1.29571 c 0.17097,-0.71263 0.24027,-1.57692 0.154,-1.92064 -0.1389,-0.55342 -0.0957,-0.61626 0.37681,-0.54923 0.49435,0.0702 0.53879,0.20436 0.60331,1.82224 0.087,2.18282 0.22613,2.3427 3.43621,3.95007 2.66941,1.33664 4.34455,1.71512 6.12164,1.38312 1.65812,-0.30977 2.51343,-1.12861 3.57901,-3.4264 0.84335,-1.81857 0.96204,-2.30715 1.18785,-4.88961 0.55067,-6.29792 -0.79063,-12.32839 -3.41957,-15.37426 -2.24035,-2.59567 -7.21624,-3.473 -10.65827,-1.87923 -1.45526,0.67383 -2.9513,2.1137 -3.65023,3.51317 -1.31847,2.64 -1.5094,5.91375 -0.37504,6.4306 0.322,0.14672 0.55963,0.4552 0.55963,0.72652 0,0.53285 -0.27494,0.59514 -0.90103,0.20414 -0.61065,-0.38135 -1.58194,-0.0726 -1.75049,0.55643 -0.22911,0.85499 -0.16804,2.50112 0.11316,3.05037 0.37022,0.72317 1.87878,2.25902 2.21887,2.25902 0.5072,0 1.25256,1.20098 1.25256,2.0182 0,0.91554 -0.99906,5.64726 -1.44546,6.84598 -0.19635,0.52725 -0.4693,0.8311 -0.77058,0.85781 -0.25659,0.0228 -1.55102,0.35761 -2.87649,0.74414 -2.06201,0.60128 -2.66433,0.89842 -4.1718,2.05803 -0.96902,0.74541 -1.89444,1.45292 -2.05649,1.57224 -0.20814,0.15327 0.22623,0.44339 1.47961,0.98825 1.97192,0.85724 2.74749,1.48219 2.53301,2.04111 -0.1908,0.49722 -0.99655,0.4663 -1.75324,-0.0672 -2.12047,-1.49527 -4.6516,-2.26823 -8.21767,-2.50951 -3.42922,-0.23202 -5.18383,0.49378 -7.89642,3.26635 -0.69607,0.71146 -1.55826,1.35784 -1.91599,1.43641 -0.35773,0.0786 -1.64891,0.0236 -2.8693,-0.12208 l -2.21889,-0.26492 -2.04672,0.84457 c -1.1257,0.46451 -2.63896,1.0544 -3.3628,1.31086 -1.09045,0.38636 -1.29575,0.54406 -1.19745,0.91993 0.10029,0.3835 -0.003,0.45299 -0.66669,0.44951 -0.43194,-0.002 -1.77954,-0.31785 -2.99467,-0.70131 -4.09965,-1.2937 -7.38162,-1.41529 -12.08428,-0.44768 -1.21172,0.24932 -2.25298,0.4533 -2.31391,0.4533 -0.061,0 0.32925,0.49862 0.86705,1.10803 1.30094,1.47414 2.71087,4.32648 3.23342,6.54135 l 0.42419,1.79798 1.84261,0.49463 c 1.01343,0.27204 2.75922,0.74305 3.87952,1.04668 2.00771,0.54414 2.05888,0.5463 3.56806,0.15047 0.84212,-0.22087 2.29836,-0.77061 3.23608,-1.22164 1.91047,-0.9189 2.58911,-0.99914 3.59027,-0.42455 0.62114,0.35648 0.90481,0.36607 2.87643,0.0972 1.91535,-0.26116 2.4629,-0.24884 4.40339,0.099 3.4203,0.61313 5.80435,0.54772 8.04774,-0.22078 2.10422,-0.72084 3.09716,-1.26639 4.39538,-2.41496 0.84717,-0.74953 0.96239,-0.78439 2.09941,-0.6353 1.19118,0.15619 2.25275,0.63838 2.25275,1.02324 0,0.55324 -0.67505,0.74913 -1.61307,0.46809 -0.93051,-0.27879 -0.97682,-0.26417 -2.61622,0.82596 -0.91793,0.61038 -1.57225,1.17772 -1.45405,1.26075 0.20262,0.14234 2.65086,5.23764 2.65086,5.51699 0,0.13008 2.92539,6.50939 3.68324,8.03193 0.59571,1.19681 2.41326,3.08573 4.7199,4.90526 1.9475,1.53623 2.86909,2.512 3.46546,3.6692 0.40039,0.77692 1.42768,5.75733 1.42768,6.92158 0,1.00659 0.0271,1.04253 1.40269,1.86197 0.77148,0.45958 1.92615,0.99104 2.56594,1.18103 1.33191,0.39554 1.46138,0.22414 0.7987,-1.05734 -0.28427,-0.54971 -0.30366,-0.77835 -0.0881,-1.03813 0.61637,-0.74267 1.07624,-0.24929 1.60785,1.72497 0.29344,1.08977 0.4224,1.12897 4.75383,1.44541 4.30928,0.31481 8.85342,0.11427 10.88624,-0.48042 z m -7.8646,-0.67678 c -1.38134,-0.85348 -2.64694,-4.22265 -1.83831,-4.89377 0.57993,-0.4813 0.99643,0.0461 1.12942,1.43012 0.12723,1.32412 0.53095,1.78645 2.45032,2.80602 0.54532,0.28967 0.95704,0.6318 0.91494,0.76029 -0.14676,0.44779 -1.87346,0.38107 -2.65637,-0.10266 z m 7.91417,-4.02293 c -0.4809,-0.48089 -0.33209,-1.70115 0.28919,-2.37151 0.31462,-0.33948 0.68201,-0.61724 0.81643,-0.61724 0.54312,0 -0.004,3.00498 -0.58077,3.19283 -0.13311,0.0433 -0.3693,-0.0485 -0.52485,-0.20408 z m -9.20534,-2.07436 c -0.50205,-0.29241 -1.10802,-1.42403 -1.10802,-2.06914 0,-0.66183 0.26516,-0.59945 1.06438,0.25041 0.37682,0.40069 1.03496,0.87809 1.46253,1.06089 0.64093,0.27402 0.72805,0.39182 0.49629,0.67108 -0.32334,0.3896 -1.31787,0.43466 -1.91518,0.0867 z m -9.807,-2.49515 c -0.68254,-0.42132 -1.91918,-2.69993 -1.67751,-3.09095 0.24608,-0.39817 0.50053,-0.24893 1.13389,0.66501 0.33995,0.49055 1.04044,1.12929 1.55663,1.41941 0.79527,0.44696 1.04936,0.48885 1.66448,0.27442 0.9106,-0.31745 0.88959,-0.31942 0.88959,0.0836 0,0.97907 -2.34187,1.40483 -3.56708,0.64851 z m 9.66591,-0.3017 c -0.90024,-0.36057 -1.9,-1.15817 -1.9,-1.5158 0,-0.438 0.94662,-0.43277 1.52998,0.009 0.78312,0.59232 1.9335,0.4447 2.66884,-0.3425 0.70596,-0.75573 1.14412,-0.81846 3.43601,-0.49192 1.50764,0.21481 2.25487,-0.0702 3.29721,-1.25728 0.64621,-0.736 0.75123,-1.00539 0.62705,-1.60852 -0.0821,-0.39845 -0.21361,-1.39477 -0.29238,-2.21405 -0.11298,-1.17501 -0.0783,-1.46796 0.16402,-1.38718 0.66127,0.22043 1.16575,1.66676 1.16486,3.33967 -0.002,2.87089 -0.98826,3.71749 -4.89162,4.1969 -1.74221,0.21397 -2.41814,0.40779 -3.12948,0.89736 -0.93734,0.64512 -1.72434,0.75542 -2.67449,0.37486 z m -5.33487,-3.24265 c -1.17675,-0.27959 -1.93029,-0.87623 -1.93029,-1.5284 0,-0.31779 0.0263,-0.5773 0.0583,-0.57671 0.0321,5.3e-4 0.68814,0.26053 1.45793,0.57764 0.76978,0.3171 1.52229,0.57904 1.67225,0.58208 0.14994,0.003 0.61916,-0.36186 1.0427,-0.8109 0.94456,-1.0014 1.13397,-1.01833 1.13397,-0.1013 0,1.00766 -0.3409,1.52811 -1.19623,1.82628 -0.82316,0.28695 -1.14378,0.29143 -2.23864,0.0313 z m -8.15108,-2.67489 c -0.69966,-0.50363 -1.47846,-1.82344 -1.4701,-2.49131 0.007,-0.50487 0.0882,-0.46172 0.89558,0.47235 0.83279,0.96342 0.94466,1.0189 1.78073,0.88322 1.27967,-0.20765 1.42127,-0.46806 0.66545,-1.22387 -0.41694,-0.41694 -0.5493,-0.68741 -0.36624,-0.74843 0.69751,-0.23251 4.4821,2.1917 4.4821,2.87099 0,0.49049 -1.14637,0.4262 -1.95956,-0.10989 -0.66697,-0.43969 -0.68532,-0.43958 -1.29069,0.008 -0.8598,0.6357 -2.10997,0.79051 -2.73727,0.33897 z m 10.43801,-1.1133 c -1.18863,-0.63644 -2.01188,-1.61526 -1.80718,-2.14871 0.25543,-0.66563 0.97601,-0.42135 1.28602,0.43597 0.54576,1.5093 1.54465,1.2817 5.34357,-1.21751 1.57618,-1.03693 2.51982,-1.49075 3.49902,-1.68275 0.73743,-0.1446 1.62264,-0.37185 1.96713,-0.505 1.15579,-0.44674 1.48399,-2.76264 0.65151,-4.59729 -0.86239,-1.90054 -0.44681,-2.28162 0.66226,-0.60724 0.93041,1.40468 1.14515,2.97642 0.62188,4.55185 -0.48391,1.45692 -1.13996,1.90595 -3.57674,2.44809 -1.60735,0.3576 -1.85905,0.49594 -2.93756,1.61456 -2.05358,2.12994 -3.89385,2.68043 -5.70991,1.70803 z m -11.3553,-3.08319 c -0.84308,-0.36701 -1.02918,-0.74652 -1.01847,-2.07698 l 0.008,-0.97231 0.71163,0.87106 c 0.8099,0.99132 2.08425,1.45134 3.35837,1.21232 0.44713,-0.0839 0.81298,-0.19653 0.81298,-0.25031 0,-0.0538 -0.3674,-0.42038 -0.81644,-0.81465 -0.79592,-0.69883 -1.04751,-1.43125 -0.58897,-1.71463 0.1251,-0.0773 0.52065,0.18757 0.87901,0.58864 0.58483,0.65454 0.8303,0.74517 2.39681,0.88493 1.53782,0.13721 1.74524,0.21116 1.74524,0.62225 0,0.37687 -0.22418,0.50613 -1.16634,0.67254 -0.64149,0.11329 -1.68556,0.45445 -2.32016,0.75812 -1.30139,0.62274 -2.87611,0.70892 -4.00148,0.21902 z m 12.98978,-1.3923 c -0.50414,-0.60746 -0.20762,-1.60714 0.62893,-2.12037 0.42108,-0.25833 1.10338,-0.68004 1.51624,-0.93712 0.50362,-0.31361 1.03946,-1.04293 1.62816,-2.21606 0.9372,-1.8676 1.59496,-2.55153 2.46192,-2.55985 0.74307,-0.007 1.44258,0.40307 1.44258,0.84595 0,0.30314 -0.182,0.34088 -1.03037,0.21366 -1.13051,-0.16952 -1.02393,-0.28571 -1.52783,1.6655 -0.33112,1.2822 -1.20286,2.29012 -2.58756,2.9918 -1.2659,0.64147 -1.50237,0.91495 -1.50237,1.73741 0,0.67296 -0.6019,0.89454 -1.0297,0.37908 z m -9.89251,-3.05661 c -1.26345,-0.43436 -2.90985,-1.93011 -4.28566,-3.89355 -1.34414,-1.91823 -3.10521,-3.64447 -4.55687,-4.46675 -0.92107,-0.52173 -1.14744,-1.35898 -0.40561,-1.50015 0.94318,-0.1795 6.00831,4.31915 6.95718,6.1791 0.32918,0.64524 0.86218,1.19133 1.56445,1.60289 1.00113,0.5867 1.194,0.61694 3.20783,0.50296 4.72301,-0.26728 11.23686,-3.76986 12.86167,-6.9159 0.71025,-1.3752 0.43107,-3.55982 -0.75346,-5.89595 -1.0882,-2.14615 -1.12994,-2.29129 -0.65901,-2.29129 0.53174,0 1.7999,1.62616 2.53851,3.25514 0.60828,1.34153 0.67656,1.71171 0.58219,3.15619 -0.14613,2.23638 -0.74465,3.30352 -2.80829,5.00702 -2.15602,1.77974 -6.81442,4.40235 -9.03889,5.08875 -1.25297,0.38663 -4.28744,0.48665 -5.20404,0.17154 z m 19.84232,-3.50844 c -0.3515,-0.32594 -0.6391,-0.69333 -0.6391,-0.81644 0,-0.30732 0.54845,-0.28187 0.87074,0.0404 0.36164,0.36163 0.9954,0.0793 0.9954,-0.44354 0,-1.21521 1.60872,-1.33593 3.0506,-0.22893 1.07111,0.82237 1.57041,1.4634 1.32836,1.70546 -0.0843,0.0843 -0.46814,-0.0709 -0.85298,-0.34497 -0.38483,-0.27402 -1.07319,-0.65428 -1.52967,-0.84501 l -0.82997,-0.34678 0,0.69472 c 0,1.23632 -1.33823,1.56346 -2.39338,0.58507 z m -57.87344,-7.48785 c -0.81234,-0.75495 -0.98297,-0.81929 -1.74951,-0.65979 -0.46714,0.0972 -1.32173,0.18781 -1.89907,0.20136 -0.91006,0.0213 -1.05933,-0.043 -1.12209,-0.48384 -0.0635,-0.44548 0.0666,-0.52719 1.0497,-0.65981 2.23249,-0.30116 3.45971,-0.79157 5.11048,-2.04219 2.53571,-1.92106 4.75916,-2.70365 4.75916,-1.67509 0,0.45089 -1.22385,1.31996 -3.70257,2.62922 l -2.16575,1.14394 0.54317,0.44108 c 0.84971,0.69001 1.14674,1.16312 0.98876,1.57481 -0.22855,0.59561 -0.83513,0.4384 -1.81228,-0.46969 z m 18.04534,-4.10865 c -1.57006,-0.72751 -3.44179,-1.11738 -4.1223,-0.85864 -0.79254,0.30131 -3.27992,0.27436 -3.47275,-0.0376 -0.0869,-0.1406 0.0167,-0.42928 0.23009,-0.64149 0.51179,-0.50881 3.74509,-0.47774 6.40679,0.0616 2.17865,0.44146 2.97627,0.75376 3.16213,1.2381 0.33756,0.87966 -0.60066,0.981 -2.20396,0.23808 z m 8.91082,0.24579 c -0.46762,-0.46762 -0.32281,-0.81324 0.67033,-1.59981 0.52262,-0.41393 1.3657,-1.315 1.8735,-2.00238 1.07961,-1.46142 1.60835,-1.61539 1.60835,-0.46834 0,0.90009 -0.83015,2.15726 -2.29512,3.4757 -1.03023,0.92718 -1.40475,1.04714 -1.85706,0.59483 z m 7.9731,-7.29011 c -0.24309,-0.63349 0.13035,-0.76299 2.6461,-0.91763 1.38258,-0.085 4.0925,-0.37298 6.02203,-0.63999 l 3.50825,-0.48549 1.56534,0.70975 c 0.96102,0.43575 1.56532,0.85049 1.56532,1.07429 0,0.50738 -1.055,0.45882 -2.21604,-0.102 -1.20905,-0.58402 -1.60022,-0.57686 -6.18162,0.11314 -4.48373,0.67529 -6.71466,0.75535 -6.90938,0.24793 z m 16.34079,-1.08669 c -0.0895,-0.1449 0.3431,-0.76231 0.98163,-1.40084 1.02268,-1.02268 1.32018,-1.17895 2.85291,-1.49853 1.80725,-0.37683 2.59628,-0.29657 2.59628,0.2641 0,0.4309 -0.7237,0.70606 -2.41157,0.91696 -1.16413,0.14544 -1.42897,0.28019 -2.10662,1.07187 -0.76266,0.891 -1.5889,1.17025 -1.91263,0.64644 z m -8.63398,-3.23267 c -0.71303,-0.28845 -1.72614,-1.58147 -2.36222,-3.01486 -0.60167,-1.35587 -0.62655,-2.19695 -0.068,-2.30196 0.24748,-0.0465 0.47481,0.36246 0.7766,1.39723 0.35806,1.22762 0.63375,1.65465 1.7135,2.65415 1.03677,0.95971 1.21075,1.22032 0.8955,1.34129 -0.21519,0.0826 -0.40892,0.14349 -0.43051,0.13536 -0.0215,-0.008 -0.25774,-0.10318 -0.5248,-0.21121 z m 41.19301,-10.01633 c -1.38343,-0.10934 -1.76285,-0.21983 -1.82191,-0.53057 -0.13207,-0.695 0.80956,-0.96399 2.79496,-0.79842 2.07589,0.17312 3.04084,0.52033 2.93897,1.05753 -0.0797,0.42054 -1.11585,0.49244 -3.91202,0.27146 z m 11.69832,-4.60731 c 0.0565,-0.30489 0.62065,-0.61342 1.94564,-1.06398 2.12663,-0.72314 3.14911,-0.82151 3.14911,-0.30295 0,0.1903 -0.28811,0.403 -0.64149,0.47358 -0.35281,0.0704 -1.37627,0.3599 -2.27435,0.64322 -2.34211,0.73886 -2.26781,0.73034 -2.17891,0.25013 z m -116.88898,47.55723 c 2.15391,-1.04484 4.16567,-3.65674 5.27867,-6.85336 0.87609,-2.51624 1.0337,-7.21808 0.33463,-9.98257 -1.07317,-4.24379 -3.53255,-7.66522 -6.08262,-8.46197 -2.84543,-0.88904 -5.0578,-0.27351 -7.15469,1.9906 -4.08608,4.41192 -5.0336,12.33025 -2.18519,18.26168 1.346,2.80287 2.95647,4.46021 5.24512,5.39777 1.04295,0.42725 3.31949,0.2516 4.56408,-0.35215 z m -20.00704,-6.30337 c 0.96476,-0.42676 2.96313,-2.01016 2.96313,-2.34782 0,-0.0821 -0.49861,-0.37813 -1.10803,-0.65798 -2.33119,-1.07049 -4.09453,-3.32545 -4.86594,-6.22253 -0.41843,-1.57146 -0.41921,-3.51044 -0.002,-3.85707 0.17751,-0.14732 1.6511,-0.83424 3.27467,-1.52651 2.76317,-1.17818 5.26678,-2.72638 5.26678,-3.25689 0,-0.12809 -0.46662,-1.19208 -1.03693,-2.36442 -2.80551,-5.76705 -7.97857,-7.17588 -11.9107,-3.24375 -1.50556,1.50556 -3.00604,4.40251 -3.49791,6.75337 -0.45889,2.19323 -0.44507,6.24952 0.0285,8.3516 0.9513,4.22294 3.57226,7.76328 6.43929,8.69802 1.25148,0.40802 3.09466,0.27294 4.44871,-0.32602 z m 6.37069,-3.9156 c 0.45614,-0.12243 0.50136,-0.3374 0.62488,-2.97097 0.21174,-4.51407 1.15257,-7.35431 3.4338,-10.36626 l 0.93086,-1.22903 -0.64121,0.14136 c -2.03833,0.44941 -3.12815,0.8804 -4.09729,1.62039 -0.59812,0.45671 -2.78119,1.66172 -4.85124,2.6778 -2.07005,1.01608 -3.80716,1.89085 -3.86025,1.94394 -0.24505,0.24504 1.41454,4.66187 2.21981,5.90778 1.37236,2.1233 1.85146,2.41398 3.97256,2.41017 0.977,-0.002 1.99763,-0.0626 2.26808,-0.13518 z m -3.16796,-6.8532 -0.90825,-0.9266 -1.1236,0.3409 c -1.55398,0.47149 -2.2273,0.45182 -2.13123,-0.0622 0.0947,-0.50664 2.02678,-1.20025 3.3829,-1.21445 0.77171,-0.008 1.00622,0.0861 1.12181,0.45025 0.22854,0.72007 1.26881,1.40569 2.13281,1.40569 0.83006,0 1.10674,0.52641 0.41599,0.79148 -1.0381,0.39836 -1.98168,0.14209 -2.89043,-0.78502 z m 165.23886,-19.2786 c 0.67326,-0.22939 1.6382,-0.8686 2.4603,-1.62971 4.87864,-4.51681 5.61179,-14.43718 1.51038,-20.43974 -1.78829,-2.61718 -3.57542,-3.73253 -6.04502,-3.77255 -7.06936,-0.11457 -11.31936,12.07477 -7.22654,20.72637 1.15854,2.449 3.19655,4.51861 5.12719,5.20678 1.05011,0.37434 2.92794,0.33333 4.17369,-0.0912 z m -20.69551,-6.03636 c 1.32872,-0.39458 2.99165,-1.74026 4.04812,-3.2758 0.38152,-0.55448 0.69361,-1.05813 0.69361,-1.1192 0,-0.061 -0.52485,-0.4881 -1.1663,-0.94897 -0.71181,-0.51137 -1.16636,-1.01454 -1.16636,-1.29109 0,-0.72612 -0.37405,-0.77348 -1.93769,-0.24531 -1.66878,0.56369 -2.04802,0.95599 -4.00387,4.14163 -1.37705,2.24295 -1.38848,2.15062 0.34313,2.77343 1.08637,0.39075 1.78228,0.38317 3.18936,-0.0347 z m -7.15902,-12.94745 c 0.86864,0 7.09398,-2.12793 8.45965,-2.89165 1.36112,-0.76118 1.67194,-0.84064 3.28859,-0.84064 0.98197,0 1.78539,-0.0859 1.78539,-0.19092 0,-0.59529 -0.85846,-2.94254 -1.58368,-4.33013 -2.75576,-5.27266 -7.4326,-6.33353 -11.07614,-2.51248 -2.11183,2.21471 -3.33397,5.3719 -3.59311,9.28222 l -0.14129,2.13205 1.24992,-0.32423 c 0.68747,-0.17831 1.41225,-0.32422 1.61067,-0.32422 z"
       id="path3006"
       inkscape:connector-curvature="0" />
  </g>
</svg>
