<?xml version="1.0" encoding="UTF-8" standalone="no"?>
<!-- Created with Inkscape (http://www.inkscape.org/) -->

<svg
   xmlns:dc="http://purl.org/dc/elements/1.1/"
   xmlns:cc="http://creativecommons.org/ns#"
   xmlns:rdf="http://www.w3.org/1999/02/22-rdf-syntax-ns#"
   xmlns:svg="http://www.w3.org/2000/svg"
   xmlns="http://www.w3.org/2000/svg"
   xmlns:xlink="http://www.w3.org/1999/xlink"
   xmlns:sodipodi="http://sodipodi.sourceforge.net/DTD/sodipodi-0.dtd"
   xmlns:inkscape="http://www.inkscape.org/namespaces/inkscape"
   width="330.66727"
   height="895.93707"
   id="svg2"
   version="1.1"
   inkscape:version="0.48.3.1 r9886"
   sodipodi:docname="Dumbbell-flys-2.svg">
  <defs
     id="defs4">
    <radialGradient
       gradientUnits="userSpaceOnUse"
       gradientTransform="matrix(1,0,0,0.91819829,-19.285714,-7.9105395)"
       r="209.56604"
       fy="287.50052"
       fx="398.1105"
       cy="287.50052"
       cx="398.1105"
       id="radialGradient5255"
       xlink:href="#linearGradient5249"
       inkscape:collect="always" />
    <linearGradient
       id="linearGradient5249"
       inkscape:collect="always">
      <stop
         id="stop5251"
         offset="0"
         style="stop-color:#e3e3e3;stop-opacity:1;" />
      <stop
         id="stop5253"
         offset="1"
         style="stop-color:#e3e3e3;stop-opacity:0;" />
    </linearGradient>
  </defs>
  <sodipodi:namedview
     id="base"
     pagecolor="#ffffff"
     bordercolor="#666666"
     borderopacity="1.0"
     inkscape:pageopacity="0.0"
     inkscape:pageshadow="2"
     inkscape:zoom="0.35"
     inkscape:cx="63.049945"
     inkscape:cy="301.58914"
     inkscape:document-units="px"
     inkscape:current-layer="layer1"
     showgrid="false"
     showguides="true"
     inkscape:guide-bbox="true"
     fit-margin-top="0"
     fit-margin-left="0"
     fit-margin-right="0"
     fit-margin-bottom="0"
     inkscape:window-width="1217"
     inkscape:window-height="829"
     inkscape:window-x="397"
     inkscape:window-y="440"
     inkscape:window-maximized="0">
    <sodipodi:guide
       orientation="-0.70710678,0.70710678"
       position="-2174.0882,635.26613"
       id="guide2985" />
  </sodipodi:namedview>
  <metadata
     id="metadata7">
    <rdf:RDF>
      <cc:Work
         rdf:about="">
        <dc:format>image/svg+xml</dc:format>
        <dc:type
           rdf:resource="http://purl.org/dc/dcmitype/StillImage" />
        <dc:title></dc:title>
      </cc:Work>
    </rdf:RDF>
  </metadata>
  <g
     inkscape:label="Ebene 1"
     inkscape:groupmode="layer"
     id="layer1"
     transform="translate(-745.51683,234.023)">
    <path
       style="fill:#000000"
       d="m 824.18413,659.24133 c -5.3811,-3.1847 -14.8085,-10.3034 -17.2522,-13.0272 -2.3077,-2.5722 -6.3146,-16.115 -7.1874,-24.2927 -1.0082,-9.4455 -2.9954,-15.7309 -8.2849,-26.2033 -3.9026,-7.7266 -4.6668,-10.1381 -4.5304,-14.2946 0.1974,-6.0127 0.2334,-14.7701 0.087,-21.25 -0.059,-2.6125 0.45,-8.5687 1.1308,-13.2359 1.6896,-11.5827 0.4445,-20.2838 -7.1117,-49.6955 -7.6034,-29.5961 -7.9091,-35.5084 -3.047,-58.9415 2.8003,-13.4959 3.8542,-16.581 9.7961,-28.6748 l 6.6581,-13.5519 1.912,-16.8252 c 1.6798,-14.7816 1.8491,-21.7266 1.3946,-57.1781 l -0.5174,-40.3528 -4.524,-3.9821 c -2.4882,-2.1902 -4.524,-4.6419 -4.524,-5.4482 0,-0.8063 1.7543,-5.6056 3.8983,-10.665 4.9253,-11.6224 7.6437,-20.5563 8.5731,-28.1753 0.401,-3.287 2.034,-9.2612 3.6288,-13.276 3.4899,-8.7854 3.5781,-11.4361 0.6498,-19.5293 -2.0789,-5.7455 -2.2338,-7.7015 -2.0371,-25.7184 0.117,-10.725 0.7446,-21.75 1.3945,-24.5 0.6499,-2.75 3.2051,-8.825 5.6783,-13.5 3.7785,-7.14256 4.5686,-9.61796 4.9471,-15.49996 0.7364,-11.4443 -3.847,-35.847601 -8.309,-44.239401 -3.1071,-5.8436 -11.0147,-16.1878 -23.8971,-31.2606 -11.5533,-13.5177 -15.059,-19.261 -16.5472,-27.1082 -0.5269,-2.7781 -2.797,-8.9528002 -5.0446,-13.7215002 -4.9645,-10.5326 -6.9353,-20.0571298 -6.9336,-33.5083098 0,-11.45307 3.5452,-28.57417 7.1073,-34.33773 2.8779,-4.65659 8.7055,-9.08799 20.8914,-15.88607 10.4162,-5.81086 27.9382,-19.69118 31.7842,-25.178369 2.0417,-2.913 4.4361,-9.76206 6.0338,-17.25986 0.5274,-2.475 2.0033,-8.29359 3.2798,-12.93021 1.9652,-7.13789 2.0972,-8.49898 0.8616,-8.87881 -2.5058,-0.77028 -12.0374,-11.13331 -13.5335,-14.71416 -2.7304,-6.53477 -1.2435,-17.62776 3.0078,-22.44022 0.9001,-1.01888 1.4826,-5.08275 1.7288,-12.0616 0.3274,-9.27799 0.7248,-11.22535 3.3544,-16.43614 10.7577,-21.31705 34.197,-29.60795 57.7998,-20.44482 8.9039,3.45668 14.1773,7.74429 19.5212,15.87196 10.3112,15.68234 12.0151,23.83772 11.8115,56.534 l -0.1494,24 -3.8619,8 c -2.1241,4.4 -5.4482,9.9509 -7.3869,12.33534 -3.4477,4.24035 -3.4836,4.37562 -1.6381,6.17339 2.8596,2.78557 22.874,6.971699 27.3815,5.727 1.928,-0.53239 6.1183,-0.7311 9.3119,-0.44156 17.1466,1.554529 32.7499,18.086059 35.9289,38.066269 l 1.19,7.47952 3.7485,-6.78831 c 4.4587,-8.07432 10.9529,-15.03387 16.9629,-18.1784 6.2488,-3.26944 18.41877,-3.28802 25.06767,-0.0383 10.3463,5.05687 20.5494,20.0852 24.8927,36.66503 2.7566,10.5224 2.9732,30.53804 0.4492,41.4999598 -2.2736,9.8746 -8.3119,22.2400002 -14.0089,28.6878002 -11.4328,12.9395 -29.23957,14.4148 -41.72027,3.4566 -1.9697,-1.7294 -3.8593,-3.1444 -4.1992,-3.1444 -0.95,0 -0.7324,4.4776 0.2697,5.55 2.4564,2.6289 15.4735,28.2951 19.0044,37.4716 5.70317,14.822 6.88257,20.1338 8.63667,38.897901 0.8525,9.1193 2.2238,20.6305 3.0474,25.5805 0.8235,4.94996 2.1715,13.26336 2.9953,18.47406 1.6504,10.4381 7.2239,28.8134 12.8948,42.5128 2.4595,5.9416 3.4623,9.6613 3.0488,11.3088 -0.3389,1.3503 -5.173,6.8987 -10.7425,12.3297 -9.4869,9.2511 -10.3835,9.8733 -14.1994,9.8527 -4.5984,-0.025 -12.32037,-3.1558 -13.15637,-5.3344 -0.3041,-0.7923 -2.4563,-1.9198 -4.7828,-2.5056 -6.6594,-1.6769 -11.0781,-5.1268 -11.4488,-8.939 -0.1731,-1.7803 -0.7356,-2.9769 -1.25,-2.659 -1.4908,0.9214 -1.0837,11.1355 0.6898,17.306 1.6717,5.8164 1.9264,6.2378 9.125,15.1009 4.9274,6.0666 5.3819,9.2653 1.663,11.702 -2.8571,1.8721 -2.8617,2.0626 -0.4144,17.351 0.6603,4.125 1.2851,16.05 1.3886,26.5 0.166,16.781 0.472,19.9928 2.62,27.5 2.0544,7.1804 2.3736,10.1302 2.0561,19 -0.9009,25.1689 -0.2951,64.4674 1.2803,83.051 1.5294,18.0411 1.5345,21.2847 0.067,42 -0.8749,12.347 -1.3467,24.5835 -1.0484,27.1922 0.4426,3.8714 1.9531,6.7201 8.219,15.5 8.85627,12.4096 13.90067,17.9553 20.91907,22.9981 2.75,1.976 6.8,5.296 9,7.3778 4.9805,4.7131 9.9397,6.922 24.3183,10.8315 18.8056,5.1133 22.1817,7.6656 22.1817,16.7691 0,4.6486 -0.426,5.7461 -3.5894,9.2477 -7.8971,8.7411 -19.8886,11.66 -43.9106,10.6883 -20.1333,-0.8144 -24.4109,-1.7361 -31.86887,-6.867 l -6.1311,-4.218 -20,-0.5751 c -22.2637,-0.6401 -23.1321,-0.8687 -29.9145,-7.8737 -3.3701,-3.4808 -3.9776,-4.8045 -4.3685,-9.5186 -0.6374,-7.6862 1.2732,-22.3944 4.7682,-36.7071 7.4812,-30.6364 6.128,-48.5854 -4.8079,-63.7752 -10.8918,-15.1286 -13.4688,-24.4321 -13.4675,-48.6209 7e-4,-12.3009 0.4801,-18.312 2.0735,-26 3.7037,-17.8703 3.7046,-18.4021 0.041,-25.0804 -3.049,-5.5572 -3.2808,-6.6891 -3.7859,-18.4876 l -0.538,-12.568 -12.1389,-18.432 c -6.6764,-10.1376 -13.0044,-20.155 -14.0621,-22.2608 -1.4924,-2.9711 -2.156,-3.5312 -2.9622,-2.5 -1.1902,1.5223 -2.8251,11.0569 -4.8574,28.3288 -0.7766,6.6 -2.145,15.2361 -3.0409,19.1913 -1.7546,7.7456 -8.4975,20.7048 -13.4277,25.8063 -2.2865,2.3659 -3.129,4.4862 -3.9749,10.0024 -0.8256,5.3841 -3.0175,11.0395 -9.4956,24.5 -4.6323,9.625 -8.7086,18.9579 -9.0585,20.7398 -0.35,1.782 -0.1062,12.6994 0.5417,24.261 1.3125,23.4219 0.7378,29.7676 -3.5802,39.5315 -3.5267,7.9744 -5.1137,15.5296 -7.4349,35.3956 -2.8142,24.085 -2.6779,29.0108 1.0997,39.7424 6.9748,19.8143 22.609,45.1951 36.8543,59.8297 4.8183,4.95 9.4979,10.4401 10.3991,12.2003 4.9503,9.6688 -2.7634,26.2809 -12.2103,26.2959 -1.3009,0 -3.5622,1.3027 -5.0685,2.9153 -2.0185,2.1607 -3.9915,3.0755 -7.6512,3.5475 -2.7123,0.3498 -7.436,1.2897 -10.4971,2.0885 -3.0611,0.7989 -9.1361,1.4482 -13.5,1.443 -6.79,-0.01 -8.5835,-0.3936 -12.4344,-2.6727 z m 23,-6.8178 c 2.3383,-0.825 6.9225,-1.5 10.187,-1.5 l 5.9356,0 -0.6762,-4.5091 c -1.0946,-7.2994 3.0752,-10.2526 6.3501,-4.4973 3.0533,5.3658 8.2951,2.7735 10.3479,-5.1174 1.6963,-6.5204 0.1913,-9.4602 -9.1574,-17.888 -13.3024,-11.9919 -33.5554,-45.3989 -40.7358,-67.1931 -2.5387,-7.7056 -2.586,-8.2703 -1.3524,-16.1401 0.7031,-4.4853 1.657,-14.7772 2.1197,-22.8709 0.912,-15.9506 2.9713,-25.3689 8.1035,-37.0622 3.5411,-8.068 4.4711,-18.1861 3.1455,-34.2219 l -0.8267,-10 -3.2563,5 c -4.08,6.2648 -6.4695,13.9481 -9.7783,31.4412 -2.8426,15.0284 -3.7406,17.5039 -5.4626,15.0588 -1.3964,-1.9828 -0.5793,-11.9021 2.046,-24.8371 2.8666,-14.124 6.3481,-24.7292 10.017,-30.5132 1.6921,-2.6677 4.1956,-8.9677 5.5633,-14 1.3678,-5.0324 3.4197,-10.9497 4.5598,-13.1497 3.7677,-7.2701 9.1398,-16.9453 11.4219,-20.5711 2.3599,-3.7496 5.4484,-11.9574 5.4484,-14.4796 0,-2.7391 2.4774,-9.4492 3.4935,-9.4623 1.6086,-0.021 10.7229,-14.7085 12.627,-20.3486 0.9556,-2.8308 2.4729,-12.2408 3.3717,-20.9111 0.8988,-8.6703 1.9885,-18.0059 2.4216,-20.7458 0.4332,-2.7398 0.6403,-4.9815 0.4603,-4.9815 -0.1799,0 -4.5002,1.5591 -9.6006,3.4648 -26.0964,9.7503 -39.4302,9.3485 -61.2735,-1.8466 -4.4,-2.2551 -8.4053,-4.2769 -8.9007,-4.4928 -0.5311,-0.2315 -0.5943,7.5594 -0.1538,18.991 0.9967,25.871 0.7254,66.1189 -0.525,77.8836 -1.1931,11.2256 -2.6864,16.254 -8.6126,29 -8.8393,19.0116 -13.3079,35.5655 -13.3079,49.2987 0,4.0738 1.7769,12.8926 5.4642,27.1191 7.3422,28.3284 8.4558,33.9771 9.5694,48.5426 0.8626,11.2827 0.7701,12.9484 -0.9788,17.6227 -1.7792,4.7552 -1.8181,5.5962 -0.4941,10.6665 1.2615,4.8307 1.254,6.0242 -0.062,9.753 -0.8245,2.3369 -1.4991,5.0704 -1.4991,6.0745 0,1.0042 2.2759,6.1501 5.0575,11.4354 3.6366,6.9099 5.4416,11.7698 6.4248,17.2985 0.752,4.2289 2.4924,11.739 3.8674,16.689 1.3751,4.95 2.7653,10.2289 3.0895,11.7309 0.7614,3.5282 6.2406,8.9713 12.8414,12.7569 4.3475,2.4933 6.326,2.995 11.8437,3.0028 3.6433,0.01 8.5374,-0.6656 10.8757,-1.4906 z m -13.8,-9.7 c -1.558,-1.5581 -1.5337,-4.2794 0.05,-5.5881 2.1767,-1.7988 8.6313,-2.5554 10.261,-1.2028 2.3307,1.9343 1.7687,3.8498 -1.761,6.0018 -3.6972,2.2543 -6.7986,2.5405 -8.55,0.7891 z m 21.9477,-10.2846 c -3.5389,-4.0306 -3.7413,-4.7779 -1.7433,-6.436 3.4054,-2.8263 9.9724,1.762 9.4206,6.5821 -0.4934,4.3091 -3.8212,4.2458 -7.6773,-0.1461 z m -49.0443,-65.8908 c -3.5495,-4.2769 6.3242,-17.6246 13.0374,-17.6246 2.4993,0 2.8592,0.3712 2.8592,2.9491 0,2.207 -0.8996,3.6352 -3.5749,5.6758 -1.9662,1.4997 -4.3305,4.3351 -5.2539,6.3009 -1.8297,3.8949 -5.0534,5.1259 -7.0678,2.6988 z m -2.4719,-133.8746 c -1.6886,-2.6857 -2.5137,-8.4132 -2.7732,-19.25 -0.1887,-7.8778 -0.1528,-8.0047 2.3473,-8.3041 3.42,-0.4097 4.078,1.7254 2.7645,8.9691 -1.0244,5.649 -0.1575,12.1073 2.5619,19.085 1.0464,2.6852 -3.1683,2.2551 -4.9005,-0.5 z m 28.3967,-45.8632 c -3.0783,-1.2285 -3.9933,-2.6279 -4.0129,-6.1368 -0.02,-3.5851 1.3268,-3.4828 4.0244,0.3057 2.276,3.1964 2.2641,3.195 10.7103,1.2465 1.7287,-0.3988 2.25,-0.077 2.25,1.3894 0,1.0496 -0.54,2.4484 -1.2,3.1084 -1.4267,1.4267 -8.2874,1.4773 -11.7718,0.087 z m -12.6872,-27.4406 c -1.0018,-2.6107 2.8792,-9.5932 6.9855,-12.5678 2.1361,-1.5474 6.424,-3.7624 9.5287,-4.9223 3.1046,-1.1599 7.0773,-3.1995 8.8281,-4.5325 3.9196,-2.9843 7.3167,-3.2084 7.3167,-0.4827 0,1.0676 -0.4336,2.209 -0.9635,2.5365 -0.5388,0.333 -0.108,1.4511 0.9773,2.5364 1.0675,1.0674 1.6954,2.5805 1.3954,3.3622 -0.3,0.7819 0.6408,3.7626 2.0908,6.624 1.45,2.8613 2.3947,5.8319 2.0995,6.6012 -0.7705,2.008 -3.2191,1.7235 -5.4106,-0.6288 -2.2949,-2.4634 -5.7219,-13.3011 -4.7189,-14.9238 0.3967,-0.6419 -2.8683,0.6377 -7.2555,2.8435 -5.9438,2.9885 -9.185,5.4248 -12.7171,9.5593 -4.8343,5.6586 -7.0934,6.765 -8.1564,3.9948 z m 238.02017,219.6428 c 3.2237,-1.2738 7.2106,-3.5216 8.8598,-4.9952 l 2.9987,-2.6793 -2.609,-3.1006 c -3.0567,-3.6327 -11.2729,-7.1393 -24.1107,-10.2903 -4.95,-1.215 -10.5606,-3.11 -12.4679,-4.2112 -5.5105,-3.1814 -25.9698,-25.2992 -42.67547,-46.135 -3.9146,-4.8824 -4.2022,-11.4295 -1.7719,-40.3318 1.6831,-20.0168 1.5781,-31.1479 -0.6465,-68.5328 -1.2093,-20.3222 -1.537,-22.7362 -3.1441,-23.1564 -2.3618,-0.6177 -2.3082,-4.6897 0.2059,-15.6564 3.3782,-14.7355 2.3359,-34.2316 -2.0242,-37.8647 -1.8919,-1.5764 -1.9054,-1.8695 -0.373,-8.1353 1.2853,-5.2556 1.4702,-9.7548 0.9657,-23.5 -0.3432,-9.35 -1.174,-20.4552 -1.8463,-24.6781 l -1.2222,-7.678 -7.8191,5.678 c -4.3006,3.1229 -9.2017,6.6886 -10.8914,7.9237 -3.7984,2.7763 -21.713,8.6013 -31.7895,10.3364 -4.125,0.7103 -12.0923,1.3199 -17.7051,1.3547 l -10.2051,0.063 4.5705,8.5 c 2.5139,4.675 7.3984,12.325 10.8545,17 10.7531,14.5454 10.8071,14.6811 11.5145,28.9256 0.6177,12.4376 0.6753,12.6769 5.2976,22.0018 4.5252,9.1291 5.6224,13.6484 3.7926,15.6226 -0.4842,0.5225 -1.7217,4.55 -2.75,8.95 -1.4797,6.332 -1.8695,11.9614 -1.8695,27 0,17.119 0.2317,19.7425 2.3407,26.5 2.479,7.9432 4.4727,11.7195 10.0309,19 1.8896,2.475 4.6039,6.975 6.032,10 2.5346,5.369 2.5959,5.988 2.5755,26 -0.021,20.2529 -0.065,20.6747 -3.6774,35 -4.7939,19.0102 -5.6656,29.3862 -2.921,34.7662 3.3875,6.64 5.539,7.4404 17.912,6.6636 14.6174,-0.9177 23.3557,0.5584 33.0543,5.5838 10.52907,5.4557 19.48037,6.9548 39.65297,6.6406 14.0135,-0.2183 16.7277,-0.5367 21.8612,-2.5652 z m -6.3382,-9.046 c -0.588,-1.0987 -2.596,-2.2475 -4.5787,-2.6195 -4.7603,-0.893 -3.7839,-2.9445 1.3525,-2.8413 4.8312,0.097 7.2032,1.7568 7.2032,5.0402 0,2.9088 -2.5036,3.1736 -3.977,0.4206 z m -89.52297,-23.9971 c -4.1947,-1.735 -6.8175,-5.8192 -7.2492,-11.2882 -0.3626,-4.5949 -0.023,-5.8446 2.6985,-9.9128 3.1589,-4.7231 5.4168,-6.3547 7.2371,-5.2298 1.2237,0.7563 0.6106,4.3096 -1.8355,10.6377 -2.2221,5.7486 -1.4455,7.4939 4.205,9.4501 2.1667,0.7501 4.5769,2.0013 5.3559,2.7803 3.3242,3.3242 -4.5086,6.0044 -10.4118,3.5627 z m -5.9109,-95.6745 c -0.4239,-1.1044 0.5875,-2.6778 3.143,-4.8893 l 3.7679,-3.2609 0,-10.524 c 0,-5.7882 0.3347,-10.8602 0.7439,-11.2711 0.4091,-0.411 1.6466,0.07 2.75,1.0683 1.7211,1.5577 2.0061,3.0765 2.0061,10.6927 0,9.0262 -1.3941,14.3808 -4.6931,18.0263 -2.0386,2.2526 -6.8761,2.3516 -7.7178,0.158 z m 8.919,-84.3625 c -0.9911,-1.0951 -3.7608,-3.1391 -6.155,-4.5422 -2.6297,-1.5411 -4.3531,-3.2777 -4.3531,-4.3864 0,-1.9874 2.4055,-4.4831 3.7829,-3.9249 0.4676,0.1895 3.9122,3.6071 7.6548,7.5946 6.7336,7.1744 6.7736,7.25 3.8384,7.25 -1.6917,0 -3.7403,-0.8555 -4.768,-1.9911 z m -6.7581,-38.5877 c -1.9033,-1.9149 -0.5765,-4.1566 3.1146,-5.2625 4.9206,-1.4743 8.7359,-4.4774 10.7949,-8.497 2.7892,-5.4451 5.3405,-6.1914 5.3405,-1.5622 0,4.3832 -9.9936,14.7229 -15,15.5194 -1.925,0.3063 -3.8375,0.2173 -4.25,-0.1977 z m -86.25,-41.5928 c 6.6,-3.1048 13.3041,-6.046 14.898,-6.5361 2.8704,-0.8825 2.9007,-0.9728 3.1822,-9.4615 0.4764,-14.368 3.1891,-18.0996 14.479,-19.9178 3.4648,-0.558 6.8634,-1.33 7.5524,-1.7156 0.689,-0.3855 5.4458,-6.3252 10.5706,-13.1992 6.4678,-8.6755 9.9253,-12.4982 11.3041,-12.4982 3.496,0 2.8236,3.4219 -2.1504,10.943 -2.6597,4.0218 -6.5015,10.0634 -8.5371,13.4258 -4.3918,7.2539 -10.5788,11.6382 -17.8314,12.6356 -5.4537,0.7501 -5.5951,1.0234 -6.1948,11.9717 -0.2629,4.7991 -0.1659,4.9994 2.7274,5.6316 9.6825,2.116 23.7997,0.1773 42,-5.7677 10.9651,-3.5816 12.5759,-4.5062 21.872,-12.5547 4.4704,-3.8705 9.5515,-7.7203 11.2914,-8.5552 3.6984,-1.7747 3.5232,-2.9101 -1.3349,-8.6546 -6.7064,-7.9298 -7.7275,-11.4794 -7.8129,-27.1579 l -0.077,-14.109 -7.1525,-14.2944 -7.1526,-14.2945 -3.0668,4.8359 c -3.335,5.2586 -3.4813,5.9671 -3.1186,15.0964 0.2194,5.5216 0.025,6.2217 -1.8999,6.8326 -2.3465,0.7448 -5.0484,-0.9117 -5.0484,-3.0951 0,-3.0889 6.1325,-20.1542 8.4759,-23.5865 3.0721,-4.4996 3.1209,-6.133 0.4003,-13.4045 -1.7242,-4.6082 -2.0005,-6.8809 -1.4683,-12.076 l 0.6557,-6.3994 -5.0196,3.4528 c -2.7607,1.8991 -7.8433,4.3926 -11.2946,5.5411 -13.5279,4.5018 -19.4464,5.2556 -45.5221,5.798 l -25.2728,0.5257 0.6412,3.4178 c 0.5001,2.6655 -0.047,4.8168 -2.4869,9.7721 -4.0658,8.2588 -9.0108,12.6125 -18.1961,16.0204 -5.074,1.8825 -8.3648,3.8295 -10.4306,6.171 -2.6279,2.9789 -3.4354,3.3373 -6.25,2.7744 -1.7776,-0.3556 -3.2321,-0.9618 -3.2321,-1.3471 0,-1.3463 4.5609,-4.8843 12.3739,-9.5985 10.7561,-6.4902 20.6261,-15.7928 20.6261,-19.4405 0,-7.9981 -0.4599,-8.4923 -9.4897,-10.197 -4.574,-0.8636 -9.7791,-2.2998 -11.5669,-3.1917 -1.7879,-0.8919 -3.5781,-1.6216 -3.9783,-1.6216 -1.4943,0 -2.9651,9.2016 -2.9651,18.5498 0,8.4016 -0.2066,9.5848 -1.5818,9.0571 -0.87,-0.3338 -1.995,-0.6069 -2.5,-0.6069 -2.3887,0 1.2636,-29.1044 4.0779,-32.4953 1.7254,-2.079 5.7078,-1.8828 8.6425,0.4257 10.7185,8.4311 76.8556,8.5798 95.7651,0.2152 4.8405,-2.1412 9.8364,-6.8896 13.7738,-13.09136 3.8107,-6.0022 3.5504,-6.9005 -0.8739,-3.0159 -4.4216,3.8822 -11.4812,7.121 -23.165,10.62766 -21.0539,6.3189 -73.4741,2.9995 -91.9668,-5.82356 -3.4806,-1.6606 -6.4308,-2.867 -6.5561,-2.6809 -0.1254,0.1862 -2.6292,5.7059 -5.5641,12.26606 -5.8234,13.0168 -6.7188,17.7956 -7.2269,38.5724 -0.2259,9.237 0.024,11.1014 2.0818,15.5 1.5526,3.3192 2.5074,7.5828 2.8407,12.6838 0.4423,6.7684 0.2487,8.0059 -1.6246,10.3875 -2.8466,3.6188 -4.9448,11.0312 -6.1606,21.7643 -0.7575,6.6871 -2.0797,11.4098 -5.4,19.2892 l -4.3968,10.4341 5.1674,3.7937 c 21.8838,16.0661 27.3456,18.104 47.6674,17.7854 l 10.5,-0.1646 12,-5.645 z m 2.7648,-71.5784 c -1.5083,-3.9381 -0.4448,-4.0992 29.4273,-4.4558 27.2876,-0.3257 29.1116,-0.4651 34.562,-2.6424 3.1647,-1.2642 6.2327,-3.1929 6.8177,-4.2859 0.6685,-1.2493 1.8702,-1.8719 3.2357,-1.6766 6.2358,0.8919 0.082,8.5337 -9.3695,11.6349 -5.8495,1.9193 -9.0777,2.1382 -35.3162,2.3941 -22.391,0.2184 -28.9858,9e-4 -29.357,-0.9683 z m 3.3736,-8.75 c -0.3166,-0.825 -0.3192,-2.1682 -0.01,-2.9848 0.8712,-2.2705 11.2531,-8.8298 18.9674,-11.9837 3.795,-1.5515 11.175,-4.7353 16.4,-7.075 5.225,-2.3397 10.175,-4.489 11,-4.7763 2.8232,-0.9831 -8.4942,-0.6183 -23.5,0.7575 -15.9849,1.4656 -21.8846,3.0253 -26.6678,7.0501 -3.292,2.7699 -4.8513,3.093 -6.5809,1.3634 -1.9536,-1.9535 1.3555,-6.7902 6.0697,-8.8718 7.04,-3.1086 23.6167,-5.9205 41.1282,-6.9764 23.5908,-1.4224 30.7231,-0.2719 29.1446,4.7015 -0.8246,2.5982 -3.5254,3.9993 -12.179,6.3183 -4.2133,1.1291 -9.0677,2.7821 -10.7876,3.6733 -1.72,0.8913 -8.396,3.7464 -14.8357,6.3448 -6.4674,2.6096 -14.6049,6.7911 -18.1792,9.3417 -6.8357,4.8778 -9.0346,5.5651 -9.9739,3.1174 z m 133.53037,14.8042 c 1.8321,-2.0326 5.162,-5.5201 7.3997,-7.75 7.1349,-7.1098 7.0194,-6.0873 2.1128,-18.7111 -9.507,-24.4594 -15.3173,-52.5475 -18.6886,-90.34306 -1.3775,-15.442201 -6.31077,-30.566701 -16.10277,-49.367301 -3.9052,-7.498 -7.3159,-13.9886 -7.5794,-14.4236 -0.2635,-0.435 -1.4536,1.14 -2.6448,3.5 -2.5227,4.9981 -5.2955,6.1142 -6.2033,2.497 -0.3367,-1.3416 0.5417,-6.9791 1.9642,-12.6066 1.4154,-5.5988 2.5734,-11.055 2.5734,-12.1249 0,-1.9195 -0.043,-1.9191 -3.25,0.036 -3.8237,2.3313 -7.225,2.5115 -10.9293,0.5789 -1.4736,-0.7689 -2.9361,-1.1411 -3.25,-0.8272 -0.3139,0.3139 -0.5707,3.8 -0.5707,7.7471 0,5.648 -0.848,9.7869 -3.9817,19.4339 -3.7879,11.6609 -3.9349,12.5811 -3.0198,18.9069 0.529,3.6572 0.9708,8.8545 0.9817,11.5496 0.025,6.215 2.7985,20.1728 4.7886,24.099801 3.1656,6.2467 9.8697,15.2635 16.7291,22.5 5.1384,5.4209 8.3418,9.995 11.5557,16.49996 3.7631,7.6169 4.495,8.5774 4.7628,6.25 0.1811,-1.574 0.9295,-2.75 1.75,-2.75 2.6543,0 1.7137,6.7327 -1.6169,11.5734 -5.681,8.2571 -6.7957,11.8861 -6.2367,20.3039 0.3486,5.2498 0,9.5355 -1.1033,13.7671 -1.8068,6.8976 -2.1402,19.4955 -0.5925,22.3874 1.435,2.6813 8.0822,4.3358 11.381,2.8327 3.6299,-1.6538 4.0785,-4.2488 1.6145,-9.3387 -1.7201,-3.5532 -1.9185,-4.833 -1.0118,-6.5271 0.9199,-1.7188 1.8996,-2.0513 5.3136,-1.803 3.91727,0.2848 4.20577,0.5127 4.49907,3.5543 0.262,2.7179 -0.024,3.25 -1.75,3.25 -1.13487,1e-4 -2.06337,-0.4499 -2.06337,-0.9999 0,-0.55 -0.7357,-1 -1.6349,-1 -1.1914,0 -0.9202,0.562 1,2.0725 3.21227,2.5268 3.40487,5.9942 0.6349,11.4275 -1.1,2.1575 -2,4.0383 -2,4.1795 0,0.9527 6.06407,3.2475 8.66877,3.2804 2.4136,0.031 3.9625,-0.8406 6.5,-3.6556 z M 972.32733,94.673569 c -0.5565,-1.7875 -1.5134,-5.79 -2.1265,-8.8943 -0.631,-3.1955 -2.8288,-8.4866 -5.0657,-12.1953 -4.0975,-6.7938 -4.883,-9.6604 -2.6472,-9.6604 1.8662,0 6.996,5.852 8.9647,10.2269 1.9493,4.3316 5.7315,18.6447 5.7315,21.6897 0,3.5134 -3.6745,2.6307 -4.8568,-1.1666 z m -14.6432,-41.0182 c -2.4487,-1.3994 -4.1239,-3.148 -4.3195,-4.5089 -0.4024,-2.7989 1.1698,-2.8217 5.0298,-0.073 1.6605,1.1824 4.43,2.4384 6.1544,2.791 1.7881,0.3657 3.1353,1.2682 3.1353,2.1003 0,2.3862 -5.5856,2.2134 -10,-0.3092 z m 18.4372,123.968461 c 0.064,-11.0558 0.7491,-13.6423 5.2161,-19.7003 1.816,-2.463 1.7964,-2.6234 -1.3224,-10.823 -2.6602,-6.9938 -4.4716,-9.7887 -11.342,-17.49996 -8.7729,-9.8467 -16.2054,-20.135 -18.4179,-25.4945 -0.9803,-2.3745 -1.6024,-2.943 -2.1886,-2 -1.2919,2.0782 0.1748,9.0944 2.4172,11.5625 2.1553,2.3723 2.4813,6.1217 2.5665,29.51366 0.034,9.2211 0.2586,10.254 4.0847,18.7513 2.2271,4.946 4.0492,9.8675 4.0492,10.9366 0,1.0692 2.7,7.4301 6,14.1353 3.3,6.7052 6.0567,13.1424 6.1259,14.3047 0.3514,5.8983 2.7572,-14.3715 2.8113,-23.6863 z m -54.4372,-47.05966 c 9.8697,-3.4422 11.5,-4.8242 11.5,-9.7486 0,-4.4556 1.6503,-8.5439 3.7786,-9.3606 2.1077,-0.8088 2.1341,-0.6596 0.9204,5.193 -1.1646,5.6157 -0.8737,6.6636 1.588,5.7189 2.151,-0.8254 3.4748,-5.3107 2.6395,-8.9433 -1.3238,-5.757 -0.9119,-15.350901 1.0735,-25.000001 3.4978,-16.9995 2.2512,-21.5632 -2.2473,-8.2274 -1.239,3.6729 -2.6703,6.8016 -3.1807,6.9527 -0.5105,0.1511 -1.2954,-1.0753 -1.7443,-2.7253 -0.9648,-3.5467 1.679,-15.0835 5.6593,-24.6944 1.4362,-3.4681 3.4481,-8.3555 4.4708,-10.8608 l 1.8594,-4.5552 -6.7063,6.7064 c -5.3495,5.3495 -7.7957,7.0298 -12.0901,8.3052 -2.9611,0.8793 -6.2021,1.5988 -7.2023,1.5988 -1.5389,0 -1.8185,0.8507 -1.8185,5.5321 0,10.823 -4.4197,15.8431 -14.9341,16.9626 -13.8611,1.4758 -15.2435,1.7836 -17.8575,3.9754 -5.436,4.558 -11.937,3.8974 -19.6629,-1.9982 -1.7793,-1.3578 -1.8132,-1.6328 -0.3784,-3.0676 1.4347,-1.4347 1.9579,-1.3812 5.8348,0.5967 4.6925,2.3939 10.9981,2.1008 10.9981,-0.5112 0,-2.3112 3.2337,-3.3849 12.1203,-4.0244 9.7443,-0.7011 16.2638,-2.7481 18.3814,-5.7713 2.8848,-4.1186 1.3429,-12.6837 -2.2869,-12.7035 -2.9078,-0.016 -11.6137,-5.5829 -15.5574,-9.9481 -4.5578,-5.045 -5.8426,-4.8235 -11.5956,1.9993 -9.2872,11.014 -20.6726,12.0039 -30.8118,2.6789 -2.6203,-2.4099 -2.9302,-5.2457 -0.6682,-6.1137 2.6221,-1.0062 2.9638,-0.7646 4.7981,3.393 1.5278,3.4628 2.1915,3.9983 4.9425,3.9879 3.6015,-0.014 8.3764,-2.5381 17.4218,-9.211 3.4343,-2.5335 6.8093,-4.8024 7.5,-5.0419 0.8964,-0.3109 0.3259,-2.3437 -1.9934,-7.1026 l -3.2491,-6.667 -5.2509,2.6484 c -6.0916,3.0725 -6.6097,3.6732 -5.9856,6.9384 0.5492,2.8726 -2.002,4.3261 -4.2779,2.4372 -1.8122,-1.504 -1.9418,-6.0088 -0.2373,-8.253 0.6875,-0.9051 3.275,-2.5078 5.75,-3.5615 6.7696,-2.882 8.2037,-4.9014 6.7784,-9.5453 -1.1291,-3.6791 -1.2558,-3.7603 -4.7193,-3.0242 -4.2692,0.9073 -15.4118,0.626 -23.2175,-0.5862 -4.1616,-0.6462 -6.9051,-0.5034 -10.3712,0.5397 -5.7373,1.7267 -8.1064,1.2375 -16.4704,-3.4008 -7.151,-3.9657002 -7.5469,-4.0031002 -32.5,-3.0696002 -10.5637,0.3951 -11.1858,0.3022 -15.6847,-2.3424 -5.1994,-3.0565 -8.8153,-7.43800003 -8.8153,-10.6819 0,-3.93815 2.838,-3.48945 7.9046,1.2498 6.3976,5.9841 10.845,7.1944 20.6349,5.6151 11.9728,-1.93150003 21.5356,-0.8897 31.2589,3.4053 9.166,4.0488002 10.1785,4.1990002 16.6447,2.4695 3.7611,-1.0059 5.327,-0.9264 9.8523,0.5 6.1038,1.9241002 10.8207,2.0127002 18.6017,0.3496 l 5.397,-1.1535 -0.1844,-9.5 c -0.2628,-13.5323498 2.0941,-25.7263198 6.9376,-35.8938098 2.1992,-4.61657 3.7538,-8.63844 3.4548,-8.9375 -0.2991,-0.29905 -3.3469,-0.51951 -6.7729,-0.48992 -4.6981,0.0406 -9.0357,1.06987 -17.6472,4.1875 -11.3748,4.11805 -18.3228,5.17107 -19.6758,2.98199 -0.3914,-0.63344 0.035,-1.69802 0.9485,-2.36573 1.4779,-1.08068 1.157,-1.67792 -2.9215,-5.43741 -7.8312,-7.21851 -11.7387,-8.38045 -26.297,-7.81963 l -12.4968,0.48142 2.736,-2.35347 c 1.5049,-1.29442 3.836,-2.35348 5.1804,-2.35348 3.0555,0 3.0524,-0.86632 -0.025,-6.93867 -2.09,-4.12436 -3.2028,-5.13984 -7.25,-6.6161 -2.6296,-0.95916 -6.6426,-2.52884 -8.9177,-3.48818 l -4.1366,-1.74426 -7.3159,3.96968 c -4.0237,2.18333 -8.5246,4.83037 -10.0019,5.88231 -4.3211,3.07692 -8.5534,10.73988 -11.5627,20.93522 -2.2993,7.78985 -2.7887,11.30015 -2.7184,19.5 0.1016,11.86091 1.7357,18.6682498 8.2821,34.5000398 2.6154,6.3250002 5.5159,13.5671002 6.4457,16.0937002 1.072,2.9134 5.6152,9.1684 12.4197,17.0994 13.2879,15.4877 23.3336,30.2549 27.8232,40.9002 2.844,6.7433 3.6117,10.1926 4.5106,20.266501 1.751,19.623 1.1174,18.2687 10.9045,23.3099 4.6675,2.4042 9.9401,4.6415 11.7169,4.9718 l 3.2305,0.6007 -1.6119,-4.7309 c -1.36,-3.9912 -1.396,-4.8677 -0.2306,-5.6058 0.7598,-0.4812 1.7396,-0.8818 2.1774,-0.8902 0.8801,-0.017 5.6787,9.8001 5.6942,11.6493 0.01,0.7301 2.9019,1.4016 7.7598,1.7994 4.2625,0.349 8.875,0.7887 10.25,0.977 1.375,0.1883 11.95,0.263 23.5,0.166 20.1734,-0.1694 21.3149,-0.2862 29,-2.9664 z m -39,-2.3023 c -4.7617,-2.5103 -7.3394,-5.3293 -8.9055,-9.739 -2.3755,-6.6891 -2.6371,-9.1588 -1.1812,-11.1499 1.9607,-2.6814 4.2505,-0.4922 5.0816,4.8581 1.089,7.0112 1.3839,7.4367 8.0894,11.6715 3.5677,2.2533 6.2193,4.5298 5.8923,5.0589 -0.8959,1.4496 -5.5946,1.0834 -8.9766,-0.6996 z m 35.7,-17.5383 c -2.9721,-2.9722 0.8702,-12.699401 5.05,-12.784701 1.0847,-0.022 0.9106,5.866301 -0.3026,10.234701 -1.0663,3.8395 -2.6222,4.6752 -4.7474,2.55 z m -45.1231,-10.877001 c -2.2834,-2.2834 -3.0769,-3.9949 -3.0769,-6.6368 l 0,-3.5599 4.9572,4.6368 c 2.7264,2.5503 5.6248,4.6369 6.4409,4.6369 2.1225,0 3.1093,2.064501 1.48,3.096501 -2.8154,1.7832 -6.7076,0.9201 -9.8012,-2.173501 z m -40.663,-8.753 c -2.9255,-1.8403 -7.4139,-9.4685 -7.4139,-12.6001 0,-3.0325 1.8161,-2.3539 4.7924,1.7905 1.6973,2.3634 5.0877,5.359 7.5344,6.657 4.2821,2.2716 4.5467,2.2954 7.0788,0.6364 2.397,-1.5706 2.6853,-1.5805 3.2492,-0.1112 1.726,4.4981 -9.5793,7.1888 -15.2409,3.6274 z m 91.221,-8.2426 c -1.8841,-1.482 -2.6349,-3.0018 -2.6349,-5.3334 0,-1.7934 0.2732,-3.5339 0.6071,-3.8678 0.7409,-0.7409 10.3929,8.7564 10.3929,10.2261 0,1.8219 -5.6216,1.1332 -8.3651,-1.0249 z m -76.56,-8.679 c -3.9459,-2.0143 -5.6465,-4.3165 -4.8062,-6.5064 0.504,-1.3133 1.2694,-1.1954 5.4092,0.8328 6.7157,3.2904 9.2854,3.09 13.2844,-1.0359 3.7876,-3.9079 5.0377,-3.7675 5.0377,0.5655 0,4.9132 -3.8556,7.8959 -10.2045,7.894 -3.066,-9e-4 -6.7375,-0.7377 -8.7206,-1.75 z m -34.7233,-11.9984 c -3.6919,-3.9769 -5.5806,-8.0185 -4.5815,-9.8038 0.6776,-1.2108 1.4851,-0.7122 4.0844,2.5223 3.4952,4.3493 6.647,5.127 11.6114,2.8651 l 2.5599,-1.1664 -3.2629,-2.7361 c -7.8838,-6.6108 2.6751,-3.4331 12.4871,3.758 7.2024,5.2786 6.0828,9.1026 -1.5792,5.3935 l -4.2744,-2.0692 -3.9096,1.9933 c -5.6119,2.8611 -10.012,2.6076 -13.1352,-0.7567 z m -3.1016,-17.2391 c -3.0136,-1.8374 -3.2476,-2.3645 -3.2165,-7.2462 l 0.034,-5.2647 3.0507,3.7341 c 3.472,4.2497 8.935,6.2218 14.397,5.1971 1.9169,-0.3596 3.4852,-0.7758 3.4852,-0.9249 0,-0.1491 -1.8,-2.071 -4,-4.271 -4.3952,-4.3952 -4.8475,-5.6961 -2.3182,-6.6667 1.1155,-0.4281 2.3783,0.2145 3.75,1.908 2.4005,2.9637 7.1258,4.5234 13.7046,4.5234 3.0278,0 4.8341,0.4807 5.1785,1.3781 0.8457,2.2039 -1.3986,3.6205 -5.7649,3.6389 -2.6759,0.011 -5.7464,1.0233 -9.05,2.983 -6.2321,3.6967 -14.162,4.1131 -19.25,1.0109 z m -24.7083,-52.7403802 c -3.7306,-0.94762 -6.5417,-3.4767998 -6.5417,-5.8855698 0,-1.88521 0.5305,-2.38499 2.5314,-2.38499 1.3922,0 2.7904,0.675 3.107,1.5 0.3596,0.93705 1.886,1.5 4.0674,1.5 2.6168,0 4.2188,-0.77829 6.393,-3.10576 1.5957,-1.70816 2.9012,-3.43982 2.9012,-3.84812 0,-1.39697 7.6841,-4.20951 10.5939,-3.8776 2.1258,0.24248 2.9919,0.93559 3.2257,2.58148 0.28,1.97154 -0.1207,2.25 -3.2377,2.25 -2.9741,0 -4.3329,0.82191 -8.2891,5.01363 -3.983,4.2200198 -9.7318,7.4303898 -12.2928,6.8647898 -0.275,-0.0607 -1.3812,-0.33427 -2.4583,-0.60786 z m 44.9528,-0.27951 c -0.343,-0.55492 -0.3545,-1.85667 -0.026,-2.8927698 0.487,-1.53422 -0.1042,-2.04987 -3.1854,-2.77857 -2.7887,-0.65949 -3.7834,-1.41072 -3.7834,-2.85722 0,-1.78003 0.6043,-1.9341 6.5,-1.65709 l 6.5,0.3054 8.6977,-8.08849 c 8.4168,-7.82726 13.7609,-11.07762 20.5531,-12.50055 2.4848,-0.52055 3.3949,-0.30579 3.8619,0.91134 0.9411,2.45245 -1.2716,4.32584 -7.1163,6.02494 -5.8234,1.6929 -13.4265,7.54226 -23.7763,18.29196 -6.1446,6.3821398 -7.1317,7.0110498 -8.2256,5.2410498 z m 100.3037,59.1118902 c 8.6903,-4.4335 16.8601,-17.2639 19.6872,-30.9183 1.8922,-9.139 1.9282,-26.5694502 0.073,-35.32218 -7.106,-33.5253 -32.172,-49.65855 -49.4663,-31.83797 -5.3381,5.50057 -9.3711,12.73355 -12.2532,21.97551 -2.0293,6.5071 -2.3319,9.4858 -2.2859,22.5000398 0.062,17.5548002 1.1773,23.1974002 6.606,33.4186002 4.9772,9.3713 8.9146,14.3479 14.2634,18.0279 7.8162,5.3777 15.6457,6.1 23.3757,2.1564 z m 82.01837,-22.8313 c 8.4171,-3.966 16.5757,-15.9855 20.3347,-29.9577002 2.9483,-10.9587498 2.9499,-29.6634998 0,-40.6144198 -10.037,-37.30449 -39.33147,-45.03865 -54.65587,-14.42996 l -3.62,7.23044 3.5916,0.59762 c 1.9754,0.3287 4.6891,1.185 6.0305,1.90291 4.8696,2.60612 10.3645,13.00271 10.4552,19.78159 0.061,4.54793 2.2298,9.18396 5.92067,12.65497 7.0179,6.5998298 1.691,16.1850498 -13.16537,23.6896498 l -7.7885,3.9343002 1.7885,3.078 c 2.8769,4.9511 11.0995,11.7358 16.1488,13.3249 5.07927,1.5985 9.83857,1.2191 14.95637,-1.1923 z m -45.31657,-11.2716 c 0.3399,-0.55 0.254,-1.0062 -0.191,-1.0137 -0.4449,-0.01 -1.8282,-0.2867 -3.0739,-0.6205 -1.8016,-0.4828 -2.1376,-0.2754 -1.643,1.0136 0.6856,1.7867 3.9334,2.1973 4.9079,0.6206 z m 7.9978,-8.8821002 c 3.6963,-1.1966 5.3553,-2.37 6.3707,-4.5061 1.2412,-2.61080003 1.1214,-3.50080003 -1.2477,-9.2698 -2.9766,-7.2479898 -3.2417,-9.3420398 -1.1829,-9.3420398 0.7973,0 3.2251,3.57064 5.4491,8.0141298 l 4.0112,8.01410997 3.5031,-3.07569997 c 5.0186,-4.40637 5.3422,-6.37935 1.8536,-11.3011698 -3.181,-4.48803 -5.2549,-9.66548 -5.2549,-13.11909 0,-3.79895 -3.0405,-12.57275 -5.0551,-14.58738 -2.3315,-2.33148 -6.2722,-2.46444 -23.6342,-0.79746 l -12.1892,1.17032 1.9429,3.80849 1.943,3.80849 3.4338,-2.33025 c 1.8886,-1.28163 5.6916,-2.62976 8.4512,-2.99583 2.7597,-0.36608 6.9303,-1.34045 9.268,-2.16527 4.8849,-1.72348 6.8396,-1.31816 6.8396,1.41824 0,2.40464 -1.3402,2.91929 -9.7626,3.74885 -7.3009,0.71911 -10.6976,2.03062 -13.6186,5.25824 -1.8147,2.00524 -1.8189,2.29659 -0.1278,8.85238 0.9618,3.72839 1.9796,12.2679498 2.2619,18.9767398 0.4815,11.4454 0.6437,12.2203 2.6301,12.5606002 3.0562,0.5235 8.3787,-0.2836002 14.1148,-2.1405002 z m -111.901,-56.6179398 c 9.0008,-2.60833 14.8184,-3.00907 22.4032,-1.54323 2.475,0.47832 4.6584,0.71282 4.852,0.52112 0.1936,-0.19171 -0.3689,-1.37778 -1.25,-2.63573 -1.7055,-2.43499 -2.1538,-5.84216 -0.7687,-5.84216 0.4584,0 2.1087,1.27529 3.6674,2.83399 l 2.8339,2.83399 5.9175,-4.08399 c 5.6056,-3.86876 6.3644,-4.10271 14.3977,-4.43927 7.8699,-0.32972 8.9436,-0.12716 14.9196,2.81484 4.0517,1.99461 7.8142,4.81473 10.1468,7.60528 3.0183,3.6109 4.324,4.43516 7.0254,4.43516 l 3.3181,0 -2.2798,-4.09086 c -1.254,-2.24997 -6.4314,-7.93571 -11.5055,-12.63497 -5.0741,-4.69925 -8.985,-8.93337 -8.691,-9.40914 1.1045,-1.7871 4.8037,-0.75121 9.421,2.63817 6.3475,4.65949 16.2909,15.38132 17.9264,19.32971 1.1541,2.78628 1.7782,3.16709 5.1905,3.16709 4.5692,0 4.5489,0.10508 2.3814,-12.32437 -2.2724,-13.03086 -4.9947,-19.30796 -10.9065,-25.14819 -8.2189,-8.11949 -21.5255,-13.44105 -27.8064,-11.12037 -3.8199,1.41138 -21.3417,-0.67291 -27.111,-3.22495 l -4.582,-2.026849 -1.6267,5.672369 c -2.0753,7.23688 -3.9799,10.17236 -6.6001,10.17236 -1.5819,0 -1.9171,-0.42166 -1.3915,-1.75 1.0072,-2.54559 4.5215,-16.359779 4.5215,-17.773449 0,-0.90573 -1.2936,-0.9684 -5.228,-0.2533 -2.8754,0.52262 -7.5568,0.65926 -10.4031,0.30364 -8.3105,-1.03833 -25.2908,-10.08478 -33.7415,-17.97618 -2.6475,-2.47221 -2.8157,-3.0497 -2.1465,-7.36661 0.3994,-2.57625 0.6753,-6.5966 0.6132,-8.9341 -0.08,-3.01151 0.2912,-4.25 1.274,-4.25 2.9136,0 3.9169,2.86115 3.3741,9.62249 -0.6565,8.17865 -0.327,8.56035 13.2866,15.39197 17.0925,8.57739 25.5321,9.63609 34.7097,4.35413 3.5699,-2.0546 4.877,-3.77745 8.2874,-10.92282 5.5369,-11.60105 6.2679,-16.58279 5.7144,-38.94577 -0.417,-16.84659 -0.7703,-19.99822 -3.1176,-27.80747 -3.4473,-11.46923 -6.7484,-17.84353 -12.3323,-23.81315 -5.7555,-6.15309 -12.6976,-9.53272 -22.5651,-10.98533 -13.926,-2.05006 -25.643,1.77157 -34.0291,11.099 -4.6085,5.12577 -8.2106,12.85734 -9.5477,20.49311 -0.8977,5.12709 0.1221,13.77071 1.6863,14.2921 3.8869,1.29565 5.2573,6.03816 1.5576,5.39043 -7.803,-1.36612 -8.1093,-1.34924 -8.8651,0.48855 -1.7927,4.35912 -2.2763,8.66792 -1.3496,12.02408 1.0489,3.79889 9.199,13.31868 11.4024,13.31868 2.213,0 4.4204,4.24037 4.4105,8.47251 -0.012,4.97779 -3.2678,21.33734 -6.1082,30.68875 l -2.1199,6.97926 -13.3812,11.479559 c -7.3597,6.31376 -13.3813,11.59178 -13.3813,11.72894 0,0.13716 1.5082,0.0733 3.3515,-0.1419 3.2053,-0.37419 12.6908,3.43421 14.0562,5.64353 0.3116,0.50412 2.3976,0.5312 4.8208,0.0626 2.3493,-0.4544 6.7465,-0.83465 9.7715,-0.84503 3.025,-0.0104 13.6,-0.99724 23.5,-2.193 l 18,-2.17413 6.25,3.16385 c 6.5033,3.29206 8.2226,6.13506 3.7102,6.13506 -1.3969,0 -4.304,-0.9 -6.4602,-2 -5.1006,-2.60215 -9.0817,-2.5248 -30.0616,0.58407 -10.1489,1.50389 -19.235,2.34517 -21.7363,2.01256 -4.2707,-0.56789 -4.2881,-0.55753 -2.75,1.63844 0.8513,1.21547 1.5479,3.39486 1.5479,4.8431 0,2.54854 0.233,2.65186 7.25,3.21538 10.2124,0.82013 15.983,3.11769 22.0516,8.77991 2.8591,2.66766 5.3041,4.86745 5.4333,4.88842 0.1292,0.021 4.117,-1.08688 8.8619,-2.46188 z m 23.7419,-27.0597 c -0.7517,-1.95899 3.8788,-6.96364 8.7728,-9.48154 5.2322,-2.69195 16.5935,-4.65379 18.1186,-3.12869 2.105,2.10503 -1.4616,4.2144 -8.8183,5.21537 -6.3075,0.85821 -7.2202,1.29077 -10.4391,4.9475 -3.674,4.1738 -6.6103,5.11512 -7.634,2.44736 z m -41.2297,-16.00204 c -3.9085,-3.28879 -9.372,-14.287129 -8.937,-17.990799 0.5705,-4.85816 2.5646,-3.86536 4.3124,2.14704 1.2617,4.33988 2.9559,7.06393 7.0868,11.394819 2.9859,3.13033 5.4288,5.98832 5.4288,6.35109 0,1.64925 -5.1441,0.40925 -7.891,-1.90215 z"
       id="path3142"
       inkscape:connector-curvature="0" />
  </g>
</svg>
