<?xml version="1.0" encoding="UTF-8" standalone="no"?>
<!-- Created with Inkscape (http://www.inkscape.org/) -->

<svg
   xmlns:dc="http://purl.org/dc/elements/1.1/"
   xmlns:cc="http://creativecommons.org/ns#"
   xmlns:rdf="http://www.w3.org/1999/02/22-rdf-syntax-ns#"
   xmlns:svg="http://www.w3.org/2000/svg"
   xmlns="http://www.w3.org/2000/svg"
   xmlns:xlink="http://www.w3.org/1999/xlink"
   xmlns:sodipodi="http://sodipodi.sourceforge.net/DTD/sodipodi-0.dtd"
   xmlns:inkscape="http://www.inkscape.org/namespaces/inkscape"
   width="221.30089"
   height="113.10638"
   id="svg2"
   version="1.1"
   inkscape:version="0.48.3.1 r9886"
   sodipodi:docname="Arnold-press-2.svg">
  <defs
     id="defs4">
    <radialGradient
       gradientUnits="userSpaceOnUse"
       gradientTransform="matrix(1,0,0,0.91819829,-19.285714,-7.9105395)"
       r="209.56604"
       fy="287.50052"
       fx="398.1105"
       cy="287.50052"
       cx="398.1105"
       id="radialGradient5255"
       xlink:href="#linearGradient5249"
       inkscape:collect="always" />
    <linearGradient
       id="linearGradient5249"
       inkscape:collect="always">
      <stop
         id="stop5251"
         offset="0"
         style="stop-color:#e3e3e3;stop-opacity:1;" />
      <stop
         id="stop5253"
         offset="1"
         style="stop-color:#e3e3e3;stop-opacity:0;" />
    </linearGradient>
  </defs>
  <sodipodi:namedview
     id="base"
     pagecolor="#ffffff"
     bordercolor="#666666"
     borderopacity="1.0"
     inkscape:pageopacity="0.0"
     inkscape:pageshadow="2"
     inkscape:zoom="1.979899"
     inkscape:cx="-8.2325913"
     inkscape:cy="21.068248"
     inkscape:document-units="px"
     inkscape:current-layer="layer1"
     showgrid="false"
     showguides="true"
     inkscape:guide-bbox="true"
     fit-margin-top="0"
     fit-margin-left="0"
     fit-margin-right="0"
     fit-margin-bottom="0"
     inkscape:window-width="1112"
     inkscape:window-height="691"
     inkscape:window-x="65"
     inkscape:window-y="328"
     inkscape:window-maximized="0">
    <sodipodi:guide
       orientation="-0.70710678,0.70710678"
       position="-2203.7042,385.2927"
       id="guide2985" />
  </sodipodi:namedview>
  <metadata
     id="metadata7">
    <rdf:RDF>
      <cc:Work
         rdf:about="">
        <dc:format>image/svg+xml</dc:format>
        <dc:type
           rdf:resource="http://purl.org/dc/dcmitype/StillImage" />
        <dc:title></dc:title>
      </cc:Work>
    </rdf:RDF>
  </metadata>
  <g
     inkscape:label="Ebene 1"
     inkscape:groupmode="layer"
     id="layer1"
     transform="translate(-775.13276,-298.83422)">
    <path
       style="fill:#000000"
       d="m 805.0463,411.38234 c -2.25586,-0.82464 -6,-4.47776 -6,-5.85414 0,-1.16036 5.74563,-4.43963 7.77868,-4.43963 0.53704,0 1.53663,-0.675 2.22132,-1.5 0.7274,-0.87646 2.90988,-1.5 5.25025,-1.5 l 4.00537,0 -0.63776,-3.98828 c -0.35076,-2.19356 -1.63722,-5.90581 -2.85879,-8.24946 -1.65169,-3.16883 -2.41703,-6.95294 -2.98559,-14.76171 -1.16737,-16.03319 -1.80938,-19.72306 -3.73485,-21.46559 -1.64465,-1.48839 -2.0229,-1.35069 -5.30478,1.93119 -4.10761,4.10761 -5.62546,4.26537 -13.97521,1.45254 -11.37871,-3.83321 -14.35842,-7.67264 -13.54712,-17.45583 0.38025,-4.58529 1.02902,-6.11582 3.80759,-8.98258 1.84208,-1.90055 5.31723,-4.20712 7.72254,-5.12572 4.07421,-1.55595 4.61083,-1.5569 7.84664,-0.0138 1.91034,0.91098 3.73262,2.33199 4.04951,3.15781 0.65913,1.71765 7.85877,2.12506 8.8622,0.50148 0.33992,-0.55 1.49148,-1 2.55902,-1 1.06754,0 1.82848,-0.5237 1.69098,-1.16379 -0.1375,-0.64008 1.55,-2.20768 3.75,-3.48355 5.43816,-3.15381 12.51349,-3.13075 19.05366,0.0621 7.59631,3.70846 17.3653,7.18303 23.44634,8.33925 4.93035,0.93743 5.72138,0.84186 7.63748,-0.92274 1.56285,-1.43928 4.12139,-2.11852 9.51717,-2.5266 6.29217,-0.47588 7.9647,-0.24459 11.34936,1.56948 2.78787,1.49421 4.92181,1.94899 7.16794,1.52762 3.73393,-0.70049 6.32005,0.35497 4.18481,1.70792 -2.41449,1.52989 -8.94515,0.96356 -11.72646,-1.01691 -1.47314,-1.04897 -4.46761,-1.99257 -6.65437,-2.09689 -9.50846,-0.45361 -10.14103,-0.23553 -16.04933,5.53281 l -5.66283,5.52869 0.43412,6.00159 c 0.29443,4.07057 1.01811,6.55492 2.24918,7.72131 1.73226,1.64125 1.78259,1.60565 1.10327,-0.78029 -1.58916,-5.58145 -1.6377,-6.62829 -0.44062,-9.50265 1.23445,-2.96406 1.25603,-2.93072 1.94329,3.00265 0.38224,3.3 1.18799,7.23077 1.79055,8.73504 1.01613,2.53674 1.40643,2.69244 5.38295,2.14739 2.97664,-0.40799 6.51443,0.0888 11.57201,1.62499 5.6383,1.71258 8.51467,2.05896 12.72729,1.53262 2.99347,-0.37401 5.69315,-1.0853 5.99929,-1.58066 0.30615,-0.49535 -0.22075,-2.37636 -1.17088,-4.18001 -1.15132,-2.18557 -1.74865,-5.69739 -1.79087,-10.52893 l -0.0634,-7.24956 -4.81672,-4.4e-4 c -3.66455,-3.3e-4 -5.64449,-0.63181 -8.27722,-2.63989 -4.27717,-3.26235 -3.82626,-3.98079 1.18446,-1.88718 2.09368,0.8748 5.96656,1.77001 8.6064,1.98937 4.37832,0.36381 4.8523,0.18932 5.39865,-1.9875 0.52546,-2.09358 0.98571,-2.30003 3.75168,-1.6828 6.50543,1.45171 16.19006,0.15329 25.32331,-3.3951 5.16905,-2.00824 7.94809,-2.39734 17.12254,-2.39734 l 10.95198,0 6.3581,-5.08248 c 6.80061,-5.43621 6.46273,-5.37266 16.62854,-3.12739 5.8473,1.29146 6.84828,2.39766 8.14813,9.00466 0.62328,3.16812 2.28738,7.45867 3.69798,9.53456 2.92609,4.30613 4.18526,10.04626 2.61801,11.93468 -0.76283,0.91915 -0.53299,3.25172 0.81375,8.25846 2.11347,7.85718 1.83887,13.05989 -1.12449,21.30455 -2.16284,6.01747 -7.15462,12.74476 -10.8851,14.66956 -9.86561,5.09033 -31.75527,5.91698 -41.58163,1.57032 -9.51584,-4.20931 -15.44426,-13.64164 -15.39566,-24.49506 0.0171,-3.81979 0.84902,-6.60491 3.36988,-11.2819 3.62466,-6.72486 3.09233,-8.16698 -1.89252,-5.12701 -1.65004,1.00627 -4.41687,1.83126 -6.14852,1.83331 -1.73165,0.002 -5.71485,1.35374 -8.85155,3.00374 -3.1367,1.65 -6.36454,3 -7.17297,3 -0.80844,0 -2.10863,0.63874 -2.88931,1.41943 -0.78069,0.78068 -4.24124,1.72161 -7.69011,2.09096 -5.05292,0.54112 -7.52617,0.24859 -12.73563,-1.50636 -4.89867,-1.65024 -7.69468,-2.02424 -11.54072,-1.54371 -4.25784,0.53199 -5.35918,0.32101 -6.83453,-1.30923 -1.1159,-1.23306 -2.74163,-1.82605 -4.44775,-1.62232 -8.70252,1.03915 -12.17154,1.84601 -16.31715,3.79517 l -4.62817,2.17606 0.43068,10.15853 c 0.27134,6.40025 0.047,10.39568 -0.60647,10.79953 -0.57043,0.35254 -2.95656,0.96854 -5.30251,1.36889 l -4.26536,0.7279 -0.11596,7.97257 c -0.14135,9.71791 -1.13835,16.02378 -2.74417,17.3565 -0.66208,0.54948 -5.0026,1.47538 -9.64559,2.05757 -9.20039,1.15363 -8.83424,1.1419 -10.99428,0.35228 z m 18.23819,-4.43672 c 0.95601,-0.50313 2.00361,-1.97226 2.328,-3.26474 0.84468,-3.36549 -0.30048,-26.22536 -1.41907,-28.32763 -0.51644,-0.97057 -0.95706,-5.36468 -0.97917,-9.76468 -0.0221,-4.4 -0.0689,-9.3997 -0.10407,-11.11045 -0.0351,-1.71075 -1.17532,-4.74825 -2.53374,-6.75 -1.78648,-2.63252 -2.0795,-3.63955 -1.05902,-3.63955 0.77596,0 1.68896,0.45 2.02888,1 1.09473,1.77131 5.72376,1.06658 8.90561,-1.35581 2.66666,-2.03017 3.90244,-2.28841 8.94019,-1.86822 7.0073,0.58446 5.65607,2.33508 -1.58428,2.05256 -5.3044,-0.20698 -6.59707,0.45977 -4.88677,2.52056 0.63787,0.76858 0.88328,2.11789 0.54538,2.99846 -0.33791,0.88058 0.10432,2.31976 0.98274,3.19818 1.72321,1.7232 2.10713,3.45427 0.76611,3.45427 -0.45706,0 -1.4331,-1.125 -2.16898,-2.5 -0.73588,-1.375 -1.72049,-2.5 -2.18803,-2.5 -0.46754,0 -0.555,-1.17567 -0.19435,-2.6126 l 0.65572,-2.6126 -2.88667,1.80994 c -1.58767,0.99547 -3.04199,1.91396 -3.23183,2.04109 -0.18984,0.12714 -0.0406,1.61769 0.33158,3.31233 0.55466,2.52539 1.15808,3.07042 3.34516,3.02152 1.46763,-0.0328 4.71705,0.23634 7.22093,0.59812 3.59489,0.51942 5.37974,0.21441 8.48519,-1.45001 2.16297,-1.15928 5.51435,-2.11468 7.44749,-2.1231 4.94041,-0.0215 6.5125,-1.18623 5.11806,-3.79177 -1.57551,-2.94386 -1.36335,-11.86531 0.34429,-14.4781 1.43546,-2.19634 1.39583,-2.21709 -4.75,-2.48664 l -6.19754,-0.27183 2.5,1.99959 c 1.76797,1.41408 2.04526,2.0061 0.947,2.02182 -1.8746,0.0268 -10.2741,-5.98399 -9.47652,-6.78157 0.30957,-0.30957 1.03656,-0.0892 1.61553,0.48982 0.57898,0.57898 2.93398,0.84312 5.23334,0.58698 2.29936,-0.25614 6.54315,-0.0338 9.43065,0.49414 2.8875,0.52791 5.25,0.63244 5.25,0.23228 0,-0.77815 -7.41498,-1.99941 -12.13957,-1.99941 -1.57324,0 -2.86043,-0.41278 -2.86043,-0.91729 0,-0.50451 -2.1375,-1.69039 -4.75,-2.63529 -2.6125,-0.94489 -6.57163,-2.55326 -8.79807,-3.57416 -6.45154,-2.95824 -12.67519,-3.44516 -16.34285,-1.27863 -3.60278,2.12822 -4.15631,3.98843 -0.85908,2.88707 4.71942,-1.57641 12.20504,-1.64349 14.24843,-0.12768 2.54712,1.88949 1.37551,3.18407 -1.4925,1.64915 -1.45625,-0.77936 -4.6198,-0.92887 -9.66022,-0.45654 -6.4223,0.60181 -7.94925,1.12827 -10.67027,3.67884 -2.73759,2.56611 -2.8652,2.88437 -0.92544,2.30814 3.0157,-0.89584 2.84271,0.41865 -0.39481,3.00016 -2.28464,1.82171 -2.55342,2.59603 -1.97372,5.68611 0.3691,1.96748 1.59573,4.7527 2.72583,6.1894 l 2.05474,2.61218 1.88571,-2.26073 1.88571,-2.26073 0.0333,2.75 c 0.0183,1.5125 -0.41673,2.75 -0.96673,2.75 -1.328,0 -1.28533,8.59834 0.0551,11.10295 0.5803,1.08431 1.0755,5.21723 1.10044,9.18426 0.0363,5.78366 0.65063,8.59976 3.10024,14.21279 1.71225,3.92342 3.12893,9.00431 3.22332,11.56031 0.0926,2.50817 0.48005,5.06458 0.86096,5.6809 1.20125,1.94366 -1.32546,2.49838 -3.84885,0.84499 -3.04174,-1.99303 -5.88156,-2.02571 -7.49121,-0.0862 -0.68469,0.825 -1.97729,1.51595 -2.87244,1.53544 -0.89516,0.0195 -2.69764,0.62864 -4.00552,1.35366 l -2.37797,1.31823 2.37797,1.703 c 1.98205,1.41946 3.70989,1.59132 10.37796,1.03224 4.4,-0.36891 8.78219,-1.08239 9.73819,-1.58552 z m -5.57733,-31.15463 c 0.31439,-1.93731 -0.12406,-4.87524 -1.06287,-7.12213 -2.19492,-5.2532 -2.04131,-9.86911 0.40201,-12.08029 1.1,-0.99549 2,-1.31679 2,-0.714 0,0.60278 -0.45,1.37408 -1,1.714 -1.50631,0.93095 -1.20353,6.15852 0.66071,11.4074 1.00778,2.83748 1.39345,5.74067 0.98095,7.38422 -0.96789,3.85636 -2.62235,3.36423 -1.9808,-0.5892 z m 20.83914,-23.70242 c -0.99549,-1.1 -1.35997,-2 -0.80997,-2 0.54999,0 1.81448,0.9 2.80997,2 0.99549,1.1 1.35997,2 0.80998,2 -0.55,0 -1.81449,-0.9 -2.80998,-2 z m 3.84409,-3.5078 c -0.63576,-1.37071 -0.83826,-2.4922 -0.45,-2.4922 1.16707,0 3.10591,2.3097 3.10591,3.7 0,2.11492 -1.41278,1.47244 -2.65591,-1.2078 z m -7.11932,-0.9373 c 0.11629,-1.40519 0.5633,-2.5549 0.99334,-2.5549 1.13697,0 0.95956,3.77216 -0.21145,4.49588 -0.57566,0.35578 -0.90443,-0.46037 -0.78189,-1.94098 z m 12.77523,-3.99588 c 0,-1.05548 1.91911,-1.49891 2.48992,-0.57533 0.34546,0.55897 -0.0734,1.01631 -0.9309,1.01631 -0.85746,0 -1.55902,-0.19844 -1.55902,-0.44098 z m -27,-4.56889 c 0,-1.29612 8.95298,-6.37049 9.78023,-5.54323 0.37944,0.37944 -0.42839,1.54559 -1.79517,2.59146 -3.10114,2.373 -7.98506,4.1784 -7.98506,2.95177 z m 5,-7.96523 c -1.375,-0.42666 -3.5125,-0.55802 -4.75,-0.29191 -2.98985,0.64292 -2.8818,-0.54228 0.15468,-1.69675 2.76737,-1.05215 7.77636,0.007 8.36349,1.76828 0.44182,1.32545 -0.10395,1.35737 -3.76817,0.22038 z m 150.32245,56.83049 c 4.7146,-1.19824 12.10981,-8.53422 14.97534,-14.85539 1.58413,-3.4945 2.03655,-6.55367 2.02475,-13.691 -0.0187,-11.28049 -1.0594,-13.17073 -9.00028,-16.34663 -3.20224,-1.28072 -6.84332,-2.97854 -8.09127,-3.77294 -3.57019,-2.27264 -16.66658,-0.72016 -29.21808,3.46359 -5.7679,1.9226 -11.06064,3.97163 -11.76165,4.55341 -3.0623,2.54149 -5.60355,10.3175 -5.67728,17.37199 -0.0647,6.19175 0.30193,7.68644 2.92698,11.93236 4.38586,7.09396 11.20672,11.63461 18.8425,12.54347 6.99953,0.83312 19.30831,0.24236 24.97899,-1.19886 z M 836.0463,380.41538 c 0.46456,-0.45975 0.1226,-20.53755 -0.35797,-21.01812 -0.11941,-0.11941 -2.19027,-0.53263 -4.6019,-0.91826 l -4.38479,-0.70116 2.67233,4.78132 c 1.46978,2.62972 2.67233,5.84964 2.67233,7.15536 0,1.30573 0.46583,2.37405 1.03518,2.37405 0.70185,0 0.69052,0.64401 -0.0352,2 -0.62592,1.16955 -2.09382,2 -3.53518,2 -2.50349,0 -3.04272,1.33044 -1.82517,4.50331 0.50621,1.31918 1.39274,1.52623 4.25,0.9926 1.98569,-0.37085 3.83535,-0.89695 4.11035,-1.1691 z m -6.19093,-10.07681 c -1.0925,-3.97864 -3.55329,-9.25 -4.31811,-9.25 -0.25172,0 -0.25746,2.5875 -0.0127,5.75 0.24471,3.1625 0.46222,6.0875 0.48336,6.5 0.0211,0.4125 1.12716,0.75 2.45783,0.75 2.31213,0 2.37374,-0.16624 1.38967,-3.75 z m 80.41242,-18.58831 c 2.90318,-1.28607 5.89611,-3.08607 6.65095,-4 1.71017,-2.07059 3.53948,-2.17753 2.76593,-0.16169 -0.90852,2.36757 3.0922,1.84794 8.02377,-1.04215 2.38582,-1.39819 4.33786,-2.06561 4.33786,-1.48316 0,0.58245 2.162,-0.0366 4.80445,-1.3756 7.0905,-3.59303 15.42491,-5.70876 26.96373,-6.84488 10.01283,-0.98588 10.42316,-0.94438 16.5,1.66851 3.4275,1.47374 7.01321,3.10652 7.96825,3.6284 0.95504,0.52188 1.96754,0.94888 2.25,0.94888 1.31549,0 0.30608,-7.24039 -1.42103,-10.19284 -1.06403,-1.81894 -2.93092,-6.00716 -4.14864,-9.30716 -2.07021,-5.61023 -3.34074,-7.44766 -5.17545,-7.48469 -0.41728,-0.008 -3.45087,2.45969 -6.74131,5.48469 -6.69065,6.15091 -5.68092,5.85117 -20,5.93703 -8.92857,0.0535 -11.21604,0.41555 -15.28446,2.41886 -2.63145,1.29574 -5.37958,2.951 -6.10694,3.67837 -1.59695,1.59695 -23.3367,2.40891 -28.44024,1.06222 l -3.33164,-0.87914 0.2698,5.39133 c 0.36468,7.28705 2.65618,14.89133 4.48741,14.89133 0.19197,0 2.72437,-1.05224 5.62756,-2.33831 z m -1.22149,-9.66169 c -0.825,-0.53316 -2.9625,-0.97627 -4.75,-0.98469 -1.7875,-0.008 -3.25,-0.46531 -3.25,-1.01531 0,-1.49452 5.26162,-1.20646 9.37788,0.51342 1.99216,0.83238 3.62212,1.73238 3.62212,2 0,0.8482 -3.43956,0.49502 -5,-0.51342 z m 6.64961,-1.75792 c -0.35351,-0.572 1.3777,-1.21208 4.12036,-1.52343 4.66664,-0.52975 6.12159,-0.27687 4.97928,0.86543 -1.10812,1.10813 -8.49148,1.64202 -9.09964,0.658 z m -114.16185,8.46693 c 2.47575,-2.40442 3.14,-3.68404 2.46574,-4.75 -0.50758,-0.80246 -0.92976,-2.44607 -0.93819,-3.65247 -0.01,-1.36688 -1.14583,-2.86128 -3.01531,-3.96561 -1.65,-0.97468 -3,-2.12512 -3,-2.55654 0,-1.3761 2.7073,-0.842 4.07296,0.80352 1.17936,1.42104 1.41675,1.34222 2.25896,-0.75 1.44152,-3.58105 1.47101,-5.69952 0.0719,-5.16261 -1.49304,0.57293 -4.82809,-1.09961 -7.47947,-3.75099 -2.63976,-2.63976 -9.25082,-2.5978 -11.92431,0.0757 -1.1,1.1 -2.40598,2 -2.90218,2 -1.41185,0 -3.09782,5.84782 -3.09782,10.74485 0,5.74246 2.66887,9.49173 8.21066,11.53444 9.35177,3.44707 11.21206,3.37763 15.2771,-0.57028 z M 928.5463,331.852 c 2.2,-0.62486 5.12913,-1.90573 6.50917,-2.84637 4.07736,-2.77917 10.42844,-4.00738 19.83555,-3.83593 9.60553,0.17506 11.73702,-0.50545 16.90528,-5.39729 3.78522,-3.58277 3.96458,-4.32227 1.25677,-5.18169 -1.43775,-0.45632 -3.34508,0.50728 -6.84412,3.45771 -5.9004,4.97529 -9.33167,6.04014 -19.46323,6.04014 -8.43179,0 -15.43241,1.37841 -20.19942,3.97723 -3.46089,1.88677 -8.23023,2.53312 -17.75,2.4055 -3.7125,-0.0498 -6.75,0.27337 -6.75,0.71808 0,0.73595 1.57463,1.12646 9,2.23203 3.71172,0.55265 12.9436,-0.27528 17.5,-1.56941 z"
       id="path3012"
       inkscape:connector-curvature="0" />
  </g>
</svg>
