<?xml version="1.0" encoding="UTF-8" standalone="no"?>
<!-- Created with Inkscape (http://www.inkscape.org/) -->

<svg
   xmlns:dc="http://purl.org/dc/elements/1.1/"
   xmlns:cc="http://creativecommons.org/ns#"
   xmlns:rdf="http://www.w3.org/1999/02/22-rdf-syntax-ns#"
   xmlns:svg="http://www.w3.org/2000/svg"
   xmlns="http://www.w3.org/2000/svg"
   xmlns:xlink="http://www.w3.org/1999/xlink"
   xmlns:sodipodi="http://sodipodi.sourceforge.net/DTD/sodipodi-0.dtd"
   xmlns:inkscape="http://www.inkscape.org/namespaces/inkscape"
   width="221.30089"
   height="113.10638"
   id="svg2"
   version="1.1"
   inkscape:version="0.48.3.1 r9886"
   sodipodi:docname="Exercise-ball-pull-in-1.svg">
  <defs
     id="defs4">
    <radialGradient
       gradientUnits="userSpaceOnUse"
       gradientTransform="matrix(1,0,0,0.91819829,-19.285714,-7.9105395)"
       r="209.56604"
       fy="287.50052"
       fx="398.1105"
       cy="287.50052"
       cx="398.1105"
       id="radialGradient5255"
       xlink:href="#linearGradient5249"
       inkscape:collect="always" />
    <linearGradient
       id="linearGradient5249"
       inkscape:collect="always">
      <stop
         id="stop5251"
         offset="0"
         style="stop-color:#e3e3e3;stop-opacity:1;" />
      <stop
         id="stop5253"
         offset="1"
         style="stop-color:#e3e3e3;stop-opacity:0;" />
    </linearGradient>
  </defs>
  <sodipodi:namedview
     id="base"
     pagecolor="#ffffff"
     bordercolor="#666666"
     borderopacity="1.0"
     inkscape:pageopacity="0.0"
     inkscape:pageshadow="2"
     inkscape:zoom="1.979899"
     inkscape:cx="-8.2325913"
     inkscape:cy="21.068248"
     inkscape:document-units="px"
     inkscape:current-layer="layer1"
     showgrid="false"
     showguides="true"
     inkscape:guide-bbox="true"
     fit-margin-top="0"
     fit-margin-left="0"
     fit-margin-right="0"
     fit-margin-bottom="0"
     inkscape:window-width="1112"
     inkscape:window-height="691"
     inkscape:window-x="65"
     inkscape:window-y="328"
     inkscape:window-maximized="0">
    <sodipodi:guide
       orientation="-0.70710678,0.70710678"
       position="-2203.7042,385.2927"
       id="guide2985" />
  </sodipodi:namedview>
  <metadata
     id="metadata7">
    <rdf:RDF>
      <cc:Work
         rdf:about="">
        <dc:format>image/svg+xml</dc:format>
        <dc:type
           rdf:resource="http://purl.org/dc/dcmitype/StillImage" />
        <dc:title></dc:title>
      </cc:Work>
    </rdf:RDF>
  </metadata>
  <g
     inkscape:label="Ebene 1"
     inkscape:groupmode="layer"
     id="layer1"
     transform="translate(-775.13276,-298.83422)">
    <path
       style="fill:#000000"
       d="m 802.00004,409.11215 c -1.76904,-1.48855 -3.21633,-3.22896 -3.2162,-3.86756 3.3e-4,-1.62169 12.92798,-7.66111 16.39893,-7.66111 2.78314,0 2.83965,-0.10501 2.20215,-4.09177 -0.35987,-2.25047 -1.62976,-5.96297 -2.82199,-8.25 -1.58329,-3.03721 -2.38052,-6.98893 -2.95717,-14.65823 -1.13505,-15.09581 -1.83968,-19.2747 -3.58257,-21.2468 -1.4507,-1.64149 -1.7485,-1.53599 -4.93982,1.75 -4.33788,4.46657 -8.83575,4.63692 -17.57173,0.6655 -7.52384,-3.42039 -8.83757,-4.88839 -9.81888,-10.97192 -1.41075,-8.74579 2.07721,-15.42952 9.80872,-18.79575 4.70033,-2.04647 7.74017,-1.72793 11.18684,1.17225 3.89746,3.2795 5.43284,2.76907 11.76445,-3.91106 5.11464,-5.39617 9.80363,-7.57277 16.83083,-7.81277 1.65,-0.0564 5.12895,-0.75386 7.731,-1.55001 2.60205,-0.79615 5.75205,-1.31561 7,-1.15435 1.24795,0.16126 2.944,-0.13162 3.769,-0.65084 2.84869,-1.79285 8.4256,-4.49425 9.27816,-4.49425 0.47041,0 2.37195,-1.15682 4.22565,-2.57071 2.93578,-2.23923 3.99097,-2.48667 8.18328,-1.91904 7.40022,1.00198 11.01735,2.38319 12.54488,4.79027 2.03024,3.19925 4.24426,13.48921 4.02344,18.69948 -0.25442,6.00313 2.7296,18 4.47719,18 3.66562,0 9.53921,-4.38607 12.89162,-9.62674 2.41743,-3.77904 4.68224,-6.02119 7.10429,-7.03318 3.6337,-1.51826 8.27149,-1.11536 8.27149,0.71857 0,0.5613 1.82221,2.80668 4.04935,4.98972 3.52748,3.45764 4.32204,3.82323 6.16529,2.83676 3.07826,-1.64743 13.61154,-0.52461 18.50684,1.97278 9.61039,4.90285 16.34162,19.47909 14.15037,30.64209 -2.54038,12.94165 -7.4478,19.34273 -18.01637,23.5 -5.40789,2.12725 -7.92151,2.49049 -16.85881,2.43624 -9.03933,-0.0549 -11.27584,-0.41743 -16.04563,-2.60112 -6.37556,-2.91882 -12.40678,-7.88196 -14.50212,-11.9339 -0.79691,-1.54105 -1.44892,-4.66318 -1.44892,-6.93807 l 0,-4.13617 -4.197,3.08651 c -4.06777,2.99147 -7.08178,3.65577 -11.36602,2.50512 -1.38201,-0.37118 -3.45152,-3.42013 -6.26926,-9.23634 -2.31344,-4.77525 -4.19758,-9.0628 -4.18698,-9.5279 0.0106,-0.4651 -0.90459,-2.14305 -2.03373,-3.7288 -1.58717,-2.22896 -1.9792,-4.07921 -1.72776,-8.15436 0.35767,-5.79683 1.29179,-4.81592 2.24996,2.36264 l 0.6185,4.63385 4.04498,-0.90885 c 4.0844,-0.9177 9.86492,-3.57414 13.15744,-6.04649 1.71074,-1.2846 1.71246,-1.49871 0.0387,-4.82829 -1.34864,-2.68288 -1.69013,-5.48975 -1.485,-12.20599 0.24254,-7.94109 0.0376,-9.05856 -2.28874,-12.48214 -2.84889,-4.19257 -3.34004,-6.19228 -1.05509,-4.29594 1.21383,1.00739 1.5,0.97338 1.5,-0.17829 0,-2.08309 -8.40845,-5.82171 -13.09347,-5.82171 -2.76859,0 -5.07146,0.78675 -7.31764,2.5 -1.80272,1.375 -3.7977,2.5 -4.43328,2.5 -1.37878,0 -1.50411,1.23044 -0.25973,2.55 0.49273,0.5225 1.3956,4.75537 2.00637,9.40637 1.05675,8.04711 3.09775,13.36873 3.09775,8.07696 0,-2.6157 1.37535,-1.93201 1.54891,0.76997 0.06,0.93318 0.18596,2.7092 0.28004,3.9467 0.15439,2.03092 3.17105,3.39944 3.17105,1.43856 0,-1.15224 4.10516,-5.41674 4.67031,-4.85158 0.25807,0.25807 -0.49037,2.35014 -1.66319,4.64907 -1.46456,2.87076 -2.59967,4.00054 -3.62436,3.60733 -1.38109,-0.52997 -5.01767,1.5026 -9.88276,5.5237 -1.1,0.90918 -3.125,1.98149 -4.5,2.38292 -1.375,0.40143 -3.45517,1.60274 -4.62261,2.66957 -1.16744,1.06684 -3.21147,2.0558 -4.5423,2.19769 -4.43141,0.47246 -4.971,1.38528 -3.21353,5.43624 1.04619,2.41146 1.78465,7.93839 2.12423,15.89857 l 0.52053,12.20207 -4.55287,1.14643 c -4.47529,1.12689 -4.56426,1.22925 -5.22146,6.00766 -0.36772,2.67368 -0.3706,6.21795 -0.006,7.87616 0.66427,3.02443 -0.9567,9.51724 -2.93457,11.75442 -0.99276,1.12292 -3.00896,1.51712 -15.08458,2.94932 -4.47486,0.53074 -5.39056,0.2966 -8.25,-2.10946 z m 21.06944,-2.69714 c 1.60031,-0.8426 3.48658,-6.0999 2.91295,-8.11881 -0.12303,-0.43301 -0.26603,-3.80801 -0.3178,-7.5 -0.0518,-3.692 -0.52794,-8.96272 -1.05817,-11.71272 -0.53024,-2.75 -1.12199,-9.78279 -1.31501,-15.62843 -0.29765,-9.01418 -0.74256,-11.40124 -2.9294,-15.71675 -1.41815,-2.79858 -2.57845,-5.55329 -2.57845,-6.12158 0,-2.02913 1.63254,-0.98545 2.68538,1.71676 l 1.07147,2.75 0.75074,-3.27081 c 1.00249,-4.36765 2.90657,-5.50439 2.30025,-1.37326 -0.43708,2.97798 -0.36726,3.05533 1.35274,1.49875 0.99748,-0.90271 2.35981,-3.1518 3.0274,-4.99799 0.73122,-2.02215 1.89178,-3.35669 2.91911,-3.35669 0.93792,0 3.99865,-2.2104 6.80162,-4.91201 2.80297,-2.7016 7.14779,-5.90511 9.65516,-7.11891 3.13171,-1.51604 4.38312,-2.66485 3.99749,-3.66978 -0.30875,-0.80458 -0.56136,-1.61487 -0.56136,-1.80064 0,-0.18577 -1.76598,0.35593 -3.9244,1.20378 -3.09691,1.2165 -4.9419,1.32989 -8.75,0.53777 l -4.8256,-1.00378 5.28212,-0.11821 c 6.16265,-0.13793 12.21788,-2.37219 12.21788,-4.50818 0,-2.66092 -1.72309,-2.66659 -6.9864,-0.023 -2.84098,1.42695 -5.39159,2.36828 -5.66802,2.09186 -0.61124,-0.61125 7.85934,-5.67892 9.49228,-5.67892 0.63918,0 1.16214,-0.43886 1.16214,-0.97525 0,-1.15528 -3.78274,0.13157 -7.44985,2.53435 -1.35421,0.88731 -2.98481,1.2903 -3.62355,0.89554 -0.63874,-0.39477 -3.47103,-0.22918 -6.29397,0.36796 -2.82295,0.59715 -7.92855,1.61432 -11.34578,2.26038 -4.4984,0.85047 -7.18927,2.04308 -9.75,4.32125 -1.94527,1.73061 -3.53685,3.46151 -3.53685,3.84642 0,1.05732 4.16188,-0.74216 8.45562,-3.65597 2.10291,-1.42707 4.91223,-2.59468 6.24294,-2.59468 3.05269,0 2.18644,1.56106 -1.36019,2.45121 -1.47429,0.37002 -3.74967,1.51376 -5.05641,2.54164 -1.30673,1.02788 -3.64259,2.14708 -5.19078,2.48712 -2.91355,0.63993 -5.09118,3.92893 -5.09118,7.68953 0,1.74603 0.24188,1.87465 1.52417,0.81044 0.83829,-0.69572 1.8332,-0.9559 2.21092,-0.57819 0.37771,0.37772 -0.4961,1.67934 -1.94181,2.8925 -2.55886,2.14726 -2.59453,2.33383 -1.34519,7.03576 1.40863,5.30144 4.55191,9.64177 4.55191,6.2854 0,-2.55767 3.05545,-8.69917 4.02867,-8.09769 0.44504,0.27505 0.0967,1.92825 -0.77409,3.67379 -2.12179,4.25322 -2.78312,12.11826 -1.31667,15.6586 0.65458,1.5803 1.30799,6.42301 1.452,10.76158 0.15486,4.66507 0.8864,9.07156 1.79031,10.78411 l 1.52846,2.8958 0.69532,-6.1458 c 0.38242,-3.38019 1.15535,-6.1458 1.71761,-6.1458 1.15015,0 0.16092,10.94681 -1.11409,12.32851 -0.42049,0.45567 -0.12091,2.93067 0.66574,5.5 0.78665,2.56932 1.19956,5.87735 0.91757,7.35118 -0.29598,1.54694 -0.0304,2.84044 0.62814,3.05997 0.64635,0.21545 0.84793,1.14362 0.46507,2.14134 -0.63203,1.64703 -0.86412,1.62696 -3.58428,-0.30997 -3.39898,-2.42028 -6.37031,-2.65489 -8.04641,-0.63531 -0.65535,0.78965 -2.50529,1.72427 -4.11098,2.07694 -3.81621,0.83818 -4.71242,2.44536 -2.34515,4.20557 1.46731,1.09103 3.73366,1.25906 9.90278,0.73421 4.4,-0.37434 8.80364,-1.10375 9.78588,-1.62091 z m -6.72918,-39.05404 c -1.73604,-2.47855 -2.1066,-9.3196 -0.5567,-10.27749 0.55,-0.33992 1,-1.96803 1,-3.61803 0,-1.74536 0.41822,-2.74153 1,-2.38197 0.55,0.33992 1,1.91492 1,3.5 0,1.58508 -0.45,3.16008 -1,3.5 -1.53657,0.94965 -1.18616,6.7892 0.5567,9.27749 0.85619,1.22238 1.10671,2.22251 0.55671,2.22251 -0.55,0 -1.70052,-1.00013 -2.55671,-2.22251 z m 4.14022,-8.17062 c -0.4092,-1.04122 -0.50841,-2.12872 -0.22046,-2.41666 0.91206,-0.91206 1.71456,0.58256 1.33239,2.48152 -0.35024,1.74033 -0.40373,1.73721 -1.11193,-0.0649 z m -1.69692,-22.2422 c 0,-0.34943 1.125,-1.67794 2.5,-2.95225 2.99691,-2.77744 3.15179,-4.07078 0.58504,-4.88543 -2.67864,-0.85017 -6.93601,0.3843 -8.02281,2.32629 -0.50172,0.89653 -1.25848,1.28381 -1.68167,0.86061 -0.4232,-0.42319 0.17908,-1.71797 1.33838,-2.87728 1.52946,-1.52946 3.50357,-2.15212 7.19445,-2.26923 4.85741,-0.15413 5.08661,-0.0438 5.08661,2.44852 0,1.55415 -1.13456,3.6969 -2.80472,5.29701 -2.73613,2.62138 -4.19528,3.335 -4.19528,2.05176 z m 16.44113,-10.89647 c 2.52654,-1.91098 4.15444,-1.89075 2.55887,0.0318 -0.68469,0.825 -1.97729,1.48569 -2.87244,1.4682 -1.36733,-0.0267 -1.31719,-0.26656 0.31357,-1.5 z m -16.44113,-0.49295 c 0,-0.84392 3.98658,-2.97525 5.5651,-2.97525 1.42406,0 0.042,1.85799 -2.11215,2.83948 -3.11694,1.42018 -3.45295,1.43339 -3.45295,0.13577 z m 9.9963,-5.47131 c 1.2897,-1.37283 2.56539,-2.27559 2.83485,-2.00613 0.66385,0.66386 -2.88313,4.50219 -4.16045,4.50219 -0.56063,0 0.0359,-1.12323 1.3256,-2.49606 z m 111.27867,65.38721 c 17.25434,-5.67701 21.6376,-31.00157 7.78379,-44.97132 -5.27974,-5.32393 -16.30764,-8.3793 -22.05876,-6.11157 l -2.5,0.98577 2.99557,1.1716 c 3.33175,1.30308 9.50443,5.74571 9.50443,6.84057 0,1.12734 -6.85433,3.22998 -15.48779,4.75106 -4.7577,0.83822 -9.00368,2.22337 -10.5,3.42536 -1.38172,1.10993 -4.76221,3.5642 -7.51221,5.45395 -10.04044,6.89959 -9.78165,6.52821 -8.4428,12.11608 2.20539,9.20449 8.53308,15.8033 16.85934,17.58173 5.05643,1.08001 24.84409,0.24207 29.35843,-1.24323 z m -106.61735,-4.34987 c 1.18669,-0.33958 2.38739,-1.21619 2.66822,-1.94802 0.91206,-2.37678 -1.05518,-20.00971 -2.66125,-23.85358 -1.32075,-3.16101 -2.03465,-3.73968 -4.61356,-3.73968 -2.81026,0 -3.05103,0.27155 -3.05103,3.44098 0,1.89254 0.45643,3.72308 1.01429,4.06785 1.52609,0.94318 4.98571,8.1376 4.98571,10.368 0,1.07608 0.47575,2.11509 1.05723,2.30891 2.29722,0.76574 -0.31727,3.81426 -3.27121,3.81426 -2.32476,0 -2.86338,0.35603 -2.39301,1.58179 0.33384,0.86998 0.60699,2.47531 0.60699,3.56739 0,1.4103 0.50704,1.84419 1.75,1.49755 0.9625,-0.26842 2.72093,-0.76587 3.90762,-1.10545 z m -3.65762,-9.53442 c 0,-2.61533 -3.22116,-10.00686 -4.3609,-10.00686 -0.48901,0 -0.60785,1.40625 -0.2641,3.125 0.34375,1.71875 0.625,4.41875 0.625,6 0,2.20833 0.46377,2.875 2,2.875 1.33104,0 2,-0.66667 2,-1.99314 z m 57.26026,-5.66536 c 2.88186,-2.01218 8.8059,-6.79301 13.16454,-10.62407 8.86934,-7.79576 11.83169,-9.33448 19.65736,-10.21049 9.39946,-1.05219 11.91784,-1.57266 11.91784,-2.46305 0,-0.47601 -2.13101,-1.89708 -4.73558,-3.15793 -2.60458,-1.26086 -5.82718,-3.58974 -7.16134,-5.1753 -5.2425,-6.23036 -10.09588,-5.20582 -14.15271,2.9876 -1.95697,3.95242 -9.62529,10.30174 -12.44182,10.30174 -2.159,0 -9.43852,7.01893 -8.85543,8.53844 1.04908,2.73385 -1.59463,1.47534 -3.12744,-1.48878 -1.84928,-3.57611 -1.97109,-6.13874 -0.27568,-5.79966 0.7483,0.14966 1.37577,-1.05441 1.56336,-3 0.33653,-3.49034 -0.79542,-4.18146 -2.83113,-1.72858 -0.88681,1.06853 -1.07024,3.36244 -0.61623,7.70622 0.79559,7.61177 -1.20105,6.70918 -2.21264,-1.00023 l -0.65336,-4.97932 -3.30778,1.78123 c -1.85728,1.00015 -2.84393,2.0679 -2.25,2.43497 0.58178,0.35956 1.04281,1.41469 1.02451,2.34473 -0.0275,1.39782 -0.35868,1.3009 -1.91029,-0.55902 -2.48018,-2.973 -4.05705,-2.88539 -3.21996,0.1789 0.99872,3.65595 6.91086,11.5711 8.64291,11.5711 0.83634,0 1.52061,0.50248 1.52061,1.11663 0,0.62456 -0.88196,0.88599 -2.00138,0.59326 -1.99714,-0.52226 -1.93258,0.17986 0.27952,3.04011 1.78925,2.31349 6.60586,1.34531 11.98212,-2.4085 z M 883.7836,362.744 c 0,-0.8197 4.40013,-3.19336 5.79705,-3.12725 1.00857,0.0477 -3.8402,3.96673 -4.90783,3.96673 -0.48907,0 -0.88922,-0.37777 -0.88922,-0.83948 z m 4.00179,-5.91052 c 0.003,-1.06776 8.97764,-6.60391 9.63707,-5.94448 0.59712,0.59713 -7.40783,6.69448 -8.7889,6.69448 -0.46748,0 -0.84916,-0.3375 -0.84817,-0.75 z m -85.85593,-8.40614 c 1.91636,-2.05147 2.71013,-3.71401 2.26787,-4.75 -0.37423,-0.87662 -0.57497,-2.94386 -0.44608,-4.59386 0.12888,-1.65 0.16905,-3.675 0.0892,-4.5 -0.0798,-0.825 -0.1289,-2.91942 -0.10912,-4.65425 0.0304,-2.66508 -0.27295,-3.07348 -1.95591,-2.63337 -1.09553,0.28648 -1.99187,1.1434 -1.99187,1.90425 0,0.76085 -0.45,1.38337 -1,1.38337 -0.55,0 -1,-0.7585 -1,-1.68555 0,-2.89584 -4.06765,-6.31445 -7.51329,-6.31445 -3.9522,0 -10.01352,4.45034 -11.43966,8.39922 -3.10431,8.59567 -0.19952,15.35781 8.03106,18.69573 7.05696,2.86196 11.5761,2.48673 15.06775,-1.25109 z m 29.25812,-0.34386 c 2.58602,-1.375 5.50829,-2.5 6.49395,-2.5 0.98565,0 2.60658,-0.9 3.60207,-2 1.6277,-1.79859 1.64331,-2 0.15499,-2 -0.91025,0 -1.65499,-0.45 -1.65499,-1 0,-0.55 -0.56675,-1 -1.25945,-1 -0.6927,0 -1.82152,-0.9 -2.50848,-2 -1.7853,-2.85873 -2.90392,-2.49379 -4.83597,1.57771 -0.93375,1.96774 -3.16099,4.74527 -4.94942,6.17229 -3.10696,2.4791 -3.62875,5.25 -0.98863,5.25 0.68424,0 3.35991,-1.125 5.94593,-2.5 z m 62.63544,-3.39929 c 4.90169,-2.16825 7.4154,-4.55834 10.87224,-10.33755 1.22935,-2.05526 3.52768,-4.50032 5.10738,-5.43348 3.24986,-1.91974 3.02178,-3.32968 -0.53863,-3.32968 -2.69463,0 -3.27597,0.55334 -7.57389,7.20916 -2.24703,3.47977 -4.44304,5.37249 -8.41178,7.25 -2.95399,1.39746 -6.07376,2.54084 -6.93281,2.54084 -1.16645,0 -1.56193,1.05692 -1.56193,4.17431 l 0,4.17432 2.26246,-2.12547 c 1.24435,-1.16901 4.29398,-3.02411 6.77696,-4.12245 z m -43.42482,-6.7013 c 0.37295,-1.48594 1.15677,-2.31739 1.91158,-2.02774 2.04495,0.78472 4.67346,-1.68783 3.90982,-3.67785 -0.47588,-1.24013 -1.29684,-1.56544 -2.80442,-1.11128 -1.9344,0.58275 -7.13085,4.61672 -8.75387,6.79557 -0.85053,1.14181 -3.08756,-0.22955 -2.34208,-1.43575 0.31253,-0.5057 -0.13013,-0.65146 -0.98369,-0.32392 -1.09997,0.4221 -1.55194,-0.0181 -1.55194,-1.51145 0,-2.38622 -1.2333,-2.73573 -2.8366,-0.80387 -1.42789,1.72049 5.1882,6.11115 9.65281,6.40594 2.63129,0.17373 3.27304,-0.21649 3.79839,-2.30965 z m -1.93191,-6.23595 c 1.5601,-1.56009 3.42868,-3.03392 4.15241,-3.27516 1.53281,-0.51094 0.57469,-5.8883 -1.04915,-5.8883 -0.54848,0 -2.33422,1.125 -3.96832,2.5 -1.63409,1.375 -3.56341,2.5 -4.28737,2.5 -1.25398,0 -2.53026,2.07513 -2.53026,4.11401 0,0.76245 1.46657,1.64828 4.67308,2.8226 0.0952,0.0349 1.44952,-1.21305 3.00961,-2.77315 z m -4.18269,-1.16346 c -1.90836,-0.82005 -1.8969,-0.86265 0.25,-0.92971 1.2375,-0.0387 2.25,0.37971 2.25,0.92971 0,0.55 -0.1125,0.96837 -0.25,0.92971 -0.1375,-0.0387 -1.15,-0.45702 -2.25,-0.92971 z m 12.9918,-15.25 c -0.3762,-2.3375 -1.31075,-5.23903 -2.07678,-6.44785 -0.82112,-1.29575 -1.00438,-2.4379 -0.44649,-2.7827 0.52046,-0.32166 1.57787,0.66737 2.3498,2.19785 1.7854,3.53986 3.00789,11.2827 1.78139,11.2827 -0.50816,0 -1.23172,-1.9125 -1.60792,-4.25 z"
       id="path3014"
       inkscape:connector-curvature="0" />
  </g>
</svg>
