<?xml version="1.0" encoding="UTF-8" standalone="no"?>
<!-- Created with Inkscape (http://www.inkscape.org/) -->

<svg
   xmlns:dc="http://purl.org/dc/elements/1.1/"
   xmlns:cc="http://creativecommons.org/ns#"
   xmlns:rdf="http://www.w3.org/1999/02/22-rdf-syntax-ns#"
   xmlns:svg="http://www.w3.org/2000/svg"
   xmlns="http://www.w3.org/2000/svg"
   xmlns:sodipodi="http://sodipodi.sourceforge.net/DTD/sodipodi-0.dtd"
   xmlns:inkscape="http://www.inkscape.org/namespaces/inkscape"
   width="843.91632"
   height="888.80853"
   id="svg2"
   version="1.1"
   inkscape:version="0.48.3.1 r9886"
   sodipodi:docname="Front-and-back-neck-isometric-2.svg">
  <defs
     id="defs4" />
  <sodipodi:namedview
     id="base"
     pagecolor="#ffffff"
     bordercolor="#666666"
     borderopacity="1.0"
     inkscape:pageopacity="0.0"
     inkscape:pageshadow="2"
     inkscape:zoom="0.7"
     inkscape:cx="449.98004"
     inkscape:cy="463.46501"
     inkscape:document-units="px"
     inkscape:current-layer="layer1"
     showgrid="false"
     fit-margin-top="0"
     fit-margin-left="0"
     fit-margin-right="0"
     fit-margin-bottom="0"
     inkscape:window-width="1855"
     inkscape:window-height="1056"
     inkscape:window-x="65"
     inkscape:window-y="24"
     inkscape:window-maximized="1" />
  <metadata
     id="metadata7">
    <rdf:RDF>
      <cc:Work
         rdf:about="">
        <dc:format>image/svg+xml</dc:format>
        <dc:type
           rdf:resource="http://purl.org/dc/dcmitype/StillImage" />
        <dc:title></dc:title>
      </cc:Work>
    </rdf:RDF>
  </metadata>
  <g
     inkscape:label="Ebene 1"
     inkscape:groupmode="layer"
     id="layer1"
     transform="translate(-134.58631,-246.43279)">
    <path
       style="fill:#000000"
       d="m 548.24124,1132.8879 c -0.91025,-1.0058 -1.65499,-2.5256 -1.65499,-3.3773 0,-1.8085 16.90543,-18.2958 25.6935,-25.0581 11.09465,-8.5371 19.46737,-11.7599 22.04617,-8.4858 0.5415,0.6875 1.25869,2.4018 1.59374,3.8097 0.90871,3.8183 -7.45624,11.6376 -29.71426,27.7761 -10.61801,7.6987 -14.72229,8.9177 -17.96416,5.3354 z m -76.13678,-7.7959 c -3.47076,-3.4707 -1.59295,-5.2521 17.96953,-17.0463 25.41868,-15.3249 34.11412,-21.8087 37.2154,-27.7496 1.32332,-2.5349 1.3614,-4.3373 0.28841,-13.6528 l -1.23618,-10.7323 -8.12768,-1.1359 c -11.86779,-1.6586 -22.99497,-3.9529 -32.51031,-6.7034 -4.61043,-1.3327 -8.47989,-2.2953 -8.59878,-2.1391 -0.405,0.5322 -3.44328,17.2495 -5.57007,30.6477 -1.52665,9.6175 -1.81676,13.6681 -1.03491,14.45 1.69455,1.6946 1.27913,6.2268 -0.80686,8.8029 -2.42696,2.9971 -8.94572,3.2442 -12.02689,0.4558 -2.88124,-2.6075 -2.75883,-10.763 0.41987,-27.9737 1.37486,-7.444 3.22019,-18.384 4.10073,-24.3111 1.76312,-11.8677 2.99751,-15.0357 7.12955,-18.2976 4.13767,-3.2663 11.64717,-2.3827 15.18921,1.7873 3.45621,4.069 7.19569,5.7879 16.65233,7.6547 14.09457,2.7824 28.20403,3.6867 66.51973,4.2632 41.67671,0.6272 47.41987,0.268 84.90871,-5.3101 47.22732,-7.0271 53.86345,-9.8749 67.60067,-29.0108 5.01134,-6.9807 7.39933,-12.12816 7.39933,-15.94976 0,-2.5287 -0.25303,-2.4056 -6.01045,2.9248 -13.41458,12.41946 -36.28657,21.73686 -69.03278,28.12186 -21.5931,4.2103 -28.32763,4.6134 -59.11653,3.5389 -68.83242,-2.4023 -111.76505,-10.7905 -131.65592,-25.7229 -1.82362,-1.369 -3.46968,-2.33106 -3.6579,-2.13806 -0.32498,0.33326 -12.35162,26.53806 -20.59882,44.88266 l -3.83559,8.5316 -1.00906,26.4684 c -1.29194,33.8887 -2.61669,38.9683 -10.16278,38.9683 -2.78273,0 -4.13673,-0.5361 -4.88499,-1.9343 -1.45053,-2.7103 -1.28886,-16.2643 0.46596,-39.0657 2.7886,-36.2339 2.54944,-35.3136 15.98317,-61.5 6.20735,-12.1 11.97588,-24.24996 12.81896,-26.99996 0.84309,-2.75 1.75137,-9.94998 2.0184,-15.99998 0.26704,-6.05 1.25504,-16.2363 2.19557,-22.6362 1.60613,-10.9291 1.60781,-12.1443 0.0276,-20 -3.16999,-15.759 -13.7013,-38.4155 -24.20122,-52.0652 -2.4928,-3.2406 -6.85845,-7.2514 -10.1147,-9.2925 -3.15092,-1.975 -9.77456,-6.0843 -14.7192,-9.1316 -21.21185,-13.0729 -35.57081,-28.3214 -44.02499,-46.7526 -1.7967,-3.9171 -5.83497,-15.2219 -8.97392,-25.1219 -9.79678,-30.8982 -19.43118,-52.6825 -34.93884,-79 -14.10819,-23.9425 -16.35308,-30.2493 -17.26774,-48.5114 l -0.57655,-11.5114 -8.96034,-3.913 c -18.18876,-7.9431 -37.71054,-21.2548 -48.90953,-33.3511 -20.16819,-21.784 -35.38146,-45.5718 -40.74719,-63.71308 -2.70041,-9.13 -3.69683,-16.0079 -5.65002,-39.00002 -3.7448,-44.08215 -9.05217,-58.97515 -28.6593,-80.42079 -4.31405,-4.71857 -9.07168,-11.05421 -10.57251,-14.07921 -2.56536,-5.1706 -2.72879,-6.30853 -2.72879,-19 0,-12.13895 0.28704,-14.37545 2.84711,-22.18345 4.84548,-14.77833 10.38863,-19.21382 31.55291,-25.24788 14.12374,-4.02677 16.71101,-5.43985 23.78659,-12.99145 5.84512,-6.23836 16.07247,-13.20676 25.7673,-17.55654 31.48521,-14.12646 85.43442,-20.03432 140.86141,-15.42543 18.90346,1.57187 56.05509,1.33449 64.48093,-0.41201 2.66787,-0.55299 4.57419,-2.39497 10,-9.66251 8.63793,-11.56999 18.95884,-20.19949 31.70375,-26.50806 16.32891,-8.08262 22.86832,-9.51267 43.5,-9.51267 15.4477,0 18.4382,0.27617 25.5,2.35491 9.84971,2.89939 20.24033,7.65855 27.47273,12.58317 l 5.47273,3.72644 16.02727,-0.43747 c 9.58279,-0.26157 30.1704,-2.09146 51.20092,-4.55089 35.11781,-4.10688 35.20036,-4.12207 52,-9.56523 21.82574,-7.07165 35.13343,-9.64062 53.32635,-10.29435 18.03449,-0.64803 28.26852,0.89287 48.71129,7.33426 31.36881,9.88411 36.90887,11.46603 49.15383,14.03548 11.08479,2.32601 14.84318,2.6431 30.63488,2.58464 9.90002,-0.0367 20.90162,-0.55196 24.44812,-1.14514 8.0092,-1.33961 10.409,-0.17435 17.33,8.41495 7.2358,8.97996 17.6325,30.24387 16.8483,34.45923 -0.1535,0.825 -3.2198,8.18739 -6.8141,16.36086 -11.2324,25.54308 -15.5402,39.97858 -19.289,64.63914 -2.435,16.01716 -7.4966,35.83556 -12.5147,49 -4.4123,11.57523 -17.94573,38.01676 -28.23543,55.16611 -12.18976,20.31601 -22.05211,32.77181 -40.69449,51.39541 -18.66802,18.64928 -26.44059,24.90038 -39.98415,32.15768 -12.22974,6.5534 -18.87067,13.0954 -20.59728,20.2905 -1.76,7.3343 -1.69863,13.0729 0.22982,21.4903 2.46989,10.7807 3.87796,33.7741 2.70484,44.1692 -1.25852,11.1518 -4.86577,25.58 -10.08325,40.3308 -13.86671,39.2037 -14.91723,44.9143 -15.8206,86 -0.80886,36.7875 -1.16614,39.2974 -7.50806,52.7451 -1.87923,3.9848 -5.46714,10.4146 -7.97312,14.2885 -4.50284,6.9606 -4.54276,7.0972 -3.40102,11.6314 1.48092,5.8813 0.3991,37.0222 -1.62702,46.835 -0.84991,4.1162 -1.46049,12.8666 -1.4821,21.2404 -0.0323,12.5032 0.23009,14.8516 2.15063,19.25 1.20306,2.7553 2.55968,5.0096 3.0147,5.0096 0.45502,0 1.71901,1.4625 2.80887,3.25 1.66984,2.7387 1.97277,4.9804 1.92569,14.24998 -0.0307,6.05 -0.4083,13.1414 -0.83905,15.75866 -0.66552,4.0438 -0.40491,5.523 1.73478,9.8465 2.51146,5.0748 2.51491,5.1206 1.33784,17.7413 -1.51934,16.2906 -1.46287,21.6598 0.34343,32.6535 2.05239,12.4914 1.94924,18.7711 -0.34239,20.845 -5.62912,5.0943 -8.66552,-1.1997 -12.08691,-25.0542 -1.59432,-11.1158 -1.6485,-13.4714 -0.46431,-20.1875 0.73733,-4.1818 1.34946,-8.8404 1.36029,-10.3524 0.0195,-2.7206 -0.0504,-2.6917 -6.73033,2.7806 -18.32434,15.0115 -52.8682,25.0118 -98.25,28.4429 -14.74776,1.1151 -50.10213,1.2036 -70.25137,0.1759 l -12.75137,-0.6503 10e-4,7.6446 c 0.003,18.7216 -10.08841,34.4181 -31.33746,48.7415 -8.57806,5.7822 -14.20563,8.7208 -21.51962,11.2372 -6.8727,2.3646 -15.38902,2.4864 -17.62334,0.252 z m 179.98179,-114.657 c 10.31382,-2.6734 21.39505,-6.5627 26.87143,-9.4314 1.72071,-0.9013 6.43097,-2.59986 10.46724,-3.77466 l 7.33868,-2.1359 0.22116,-8.9382 c 0.24981,-10.09568 2.24727,-15.27938 7.63437,-19.81228 4.74139,-3.9896 6.85733,-3.248 4.38325,1.5364 -0.87307,1.6883 -1.76187,7.1395 -2.11849,12.9931 l -0.61438,10.08458 2.40837,-1.2618 c 5.59078,-2.9289 7.90172,-5.2397 8.88244,-8.88178 1.53971,-5.7181 1.44169,-7.6895 -0.93915,-18.8887 -2.16941,-10.2047 -2.17429,-10.4562 -0.57331,-29.5 0.88811,-10.5642 2.00811,-22.5826 2.4889,-26.7076 0.93149,-7.9919 0.29731,-22 -0.99598,-22 -1.26399,0 -6.14945,6.2419 -7.60607,9.7179 -0.74165,1.7698 -1.34846,4.5823 -1.34846,6.25 0,3.4055 -1.40322,3.8388 -4.77749,1.4754 -5.12372,-3.5888 -2.28182,-10.9312 13.6777,-35.338 5.972,-9.1329 11.76559,-18.4078 12.87464,-20.6109 4.82009,-9.575 6.1804,-20.2618 7.1911,-56.4944 0.95526,-34.2453 1.21986,-35.6891 12.94996,-70.658 13.71564,-40.888 14.89666,-48.1909 12.52727,-77.4634 -2.52398,-31.1823 -0.73621,-43.7806 7.55236,-53.2208 1.80632,-2.0572 10.08377,-8.2758 18.39434,-13.8189 8.31057,-5.5432 19.16012,-13.3526 24.11012,-17.3543 34.06989,-27.54288 63.60517,-70.86032 78.73088,-115.46931 6.15004,-18.13768 21.76914,-81.36971 21.76914,-88.12954 0,-2.86317 5.7095,-15.14312 9.847,-21.17881 4.7516,-6.93145 8.153,-14.43176 8.153,-17.97792 0,-4.61944 -4.1854,-10.67363 -14.1345,-20.44552 l -8.3655,-8.21651 -7,1.04314 c -12.21019,1.81955 -43.90533,-0.74548 -63.70332,-5.15542 -4.86271,-1.08314 -16.81876,-4.49952 -26.569,-7.59193 -32.78603,-10.39852 -29.65252,-9.85979 -57.2277,-9.8389 -28.75308,0.0218 -34.58518,0.86576 -59.16209,8.56149 -18.96632,5.93889 -27.37588,7.87302 -34.33791,7.89744 -2.75,0.01 -8.6,0.71502 -13,1.5675 -4.4,0.85249 -14.975,2.18808 -23.5,2.968 -17.15527,1.56946 -28,3.29468 -28,4.45436 0,0.41743 3.18446,4.30685 7.07658,8.64315 7.32946,8.16593 13.30856,17.42619 16.54886,25.63043 1.37053,3.47007 2.41691,4.74726 3.89163,4.75 7.40375,0.0138 35.60724,2.33842 43.4768,3.58356 17.70546,2.8014 37.80089,9.12959 42.50613,13.38549 10.14143,9.17293 42.44925,16.17949 67.36626,14.60965 20.51794,-1.29269 31.73057,-4.62934 44.28602,-13.17864 11.32471,-7.71126 12.96227,-8.39678 20.04806,-8.39257 6.14355,0.004 12.79966,2.53351 12.79966,4.86493 0,0.95211 -3.35246,2.09487 -6.21249,2.11768 -4.15324,0.0331 -12.96802,4.44447 -18.40914,9.21286 -10.32424,9.04776 -25.75697,14.77365 -45.98023,17.05971 l -10.97903,1.24108 -15.68137,16.28131 c -22.95273,23.83085 -27.9744,31.6083 -31.71729,49.12299 -1.08023,5.05489 -2.88185,12.2725 -4.0036,16.03914 -1.12176,3.76663 -2.49832,10.38275 -3.05903,14.70249 -0.85438,6.58213 -2.83563,54.36449 -2.92998,70.66309 -0.017,2.9452 -0.4154,4.5695 -1.02784,4.191 -0.55,-0.3399 -1,-2.0962 -1,-3.9027 0,-1.8066 -1.34179,-11.3425 -2.98175,-21.19101 -1.63997,-9.84847 -3.32747,-20.9492 -3.75,-24.66829 l -0.76825,-6.76198 -6.76241,4.54137 c -9.90631,6.65269 -20.10798,16.65949 -28.36332,27.82152 -7.55421,10.21399 -8.25471,11.65629 -13.63011,28.06259 -3.55349,10.84568 -5.77274,13.51378 -8.39956,10.09848 -1.22237,-1.5893 -1.43404,-3.8682 -1.0307,-11.09718 l 0.50757,-9.0971 -8.66074,-1.6373 c -16.81413,-3.1786 -43.16073,-4.7615 -43.16073,-2.5931 0,2.1211 -8.16358,21.90508 -9.94826,24.10908 -1.56062,1.9273 -2.05453,2.0582 -3.43712,0.9107 -2.27339,-1.8867 -2.03906,-4.4708 1.42571,-15.72208 1.67218,-5.4302 3.3023,-12.3746 3.62249,-15.432 l 0.58216,-5.5589 -12.03388,0.429 c -13.47209,0.4803 -21.9789,-0.9415 -35.56157,-5.94372 -17.35572,-6.39179 -43.94751,-20.31923 -49.61315,-25.98486 -3.98044,-3.98045 -4.5138,-7.58095 -2.43144,-16.41385 1.84263,-7.81604 1.84085,-7.83835 -1.71376,-21.46869 -0.54626,-2.09467 5.03104,-1.44643 7.37824,0.85755 2.05849,2.0206 3.71651,10.91934 3.72479,19.99132 0.0114,12.46619 2.86954,14.97863 28.50579,25.05771 26.90725,10.57877 41.58772,13.48355 56.5,11.17947 13.83056,-2.13695 24.95597,-9.07717 30.30473,-18.9046 1.47448,-2.70911 4.97104,-11.84571 7.77013,-20.30356 4.5051,-13.61279 5.15205,-16.6424 5.63638,-26.39455 1.88999,-38.05562 -7.83676,-90.13496 -22.61062,-121.06271 -13.66362,-28.60355 -31.4516,-45.01193 -55.95709,-51.61716 -10.15079,-2.73605 -32.81962,-2.92134 -44.64353,-0.36491 -23.80067,5.14592 -41.43785,18.58275 -51.54396,39.26861 -9.11626,18.65977 -11.88746,41.29305 -7.10353,58.01675 2.27163,7.94116 2.46963,8.24589 5.7587,8.86292 4.99462,0.937 8.38879,3.97848 8.38879,7.51712 0,3.9116 -2.19934,4.60235 -6.01133,1.88797 -7.50711,-5.34553 -16.1708,-2.56543 -18.76258,6.02074 -1.84903,6.12558 -1.09931,17.24941 1.56806,23.26576 1.1652,2.62813 3.80555,6.8372 5.86746,9.35349 5.20516,6.35221 16.95967,15.36808 20.03626,15.36808 3.58954,0 8.01818,3.52368 10.4746,8.33421 2.8476,5.57658 3.25687,13.96532 1.53744,31.51297 -0.84433,8.61686 -1.08454,16.00583 -0.60142,18.5 1.91771,9.90034 1.58539,10.80648 -6.85849,18.7015 -4.2625,3.98544 -13.9375,12.19774 -21.5,18.24954 -7.5625,6.0519 -13.75,11.1823 -13.75,11.4009 0,0.2186 3.0811,3.436 6.84689,7.14988 8.50878,8.3914 14.0384,18.7944 14.87106,27.9771 0.42672,4.7059 0.17281,6.6917 -1.10502,8.6419 -3.6264,5.5346 -6.31522,2.8069 -16.22838,-16.4629 -6.74649,-13.1142 -13.83049,-20.1829 -26.38455,-26.32748 -8.66982,-4.2435 -26.72193,-10.289 -27.72578,-9.2852 -0.22939,0.2294 -0.41532,5.9725 -0.41318,12.7623 0.004,14.14088 3.16525,33.84958 8.1661,50.91898 3.77938,12.9002 11.07762,27.8033 18.97184,38.7406 3.30056,4.5729 6.00102,8.7354 6.00102,9.25 0,1.4422 -6.76754,1.1073 -9.85153,-0.4875 -8.39073,-4.3391 -17.03724,-19.3119 -24.12972,-41.7845 -2.30731,-7.3108 -4.86475,-15.3173 -5.68321,-17.7923 -4.16628,-12.5989 -5.45344,-18.7976 -7.85097,-37.80898 -4.45797,-35.3498 -8.05918,-49.36693 -19.44615,-75.69102 -6.67524,-15.43163 -18.1063,-30.65868 -30.12314,-40.12634 -10.01391,-7.88962 -16.05888,-11.03652 -31.28678,-16.28733 -16.09249,-5.54892 -24.46395,-7.08633 -38.58634,-7.08633 l -12.04216,0 0,-2.91111 c 0,-6.12624 9.75551,-10.82496 19.94451,-9.60622 14.29789,1.71021 36.51839,9.09372 53.12531,17.65266 l 11.56981,5.9629 12.40588,-5.23937 12.40589,-5.23936 13.0243,-13.17581 c 8.5099,-8.60888 16.14382,-15.25649 22.0243,-19.17872 4.95,-3.30161 16.99742,-11.79939 26.77204,-18.88395 9.77463,-7.08456 19.22463,-13.78986 21,-14.90065 2.97333,-1.86033 3.28774,-2.57026 3.98583,-9 0.70901,-6.5303 3.61762,-19.5926 5.31703,-23.87825 0.66191,-1.66924 0.40156,-1.82505 -2.16117,-1.29339 -1.60255,0.33247 -9.06088,1.12576 -16.57406,1.76286 -11.28533,0.95697 -19.10907,0.85808 -45,-0.56881 -72.8366,-4.01413 -127.70394,3.7272 -151.6203,21.39237 -2.35434,1.73897 -5.78793,5.51146 -7.6302,8.38331 -5.28449,8.23781 -6.05473,8.70892 -31.58917,19.32119 -6.325,2.62871 -12.68215,5.95421 -14.12699,7.38999 -2.04732,2.03446 -3.22959,5.20178 -5.35783,14.35369 -2.41258,10.37465 -2.59362,12.2917 -1.55346,16.44993 1.95974,7.83449 6.61004,16.10526 16.14244,28.71011 11.05184,14.61403 16.28049,23.23068 18.84615,31.05788 1.1485,3.5038 2.81332,14.34397 4.06042,26.43875 4.85488,47.08412 9.92478,67.9779 21.21517,87.4308 9.3529,16.1146 16.44963,23.2716 40.33943,40.6821 18.54977,13.5187 23.22366,16.0375 41.44094,22.3329 7.42155,2.5647 18.14098,6.9444 23.82096,9.7327 17.70492,8.6912 28.01186,20.9219 22.63658,26.8615 -0.97558,1.078 -2.5694,1.96 -3.54182,1.96 -0.97242,0 -8.82401,-4.275 -17.44798,-9.5 -8.62396,-5.225 -16.0836,-9.5 -16.57697,-9.5 -1.34381,0 -1.10544,2.3505 1.12375,11.0814 4.46168,17.4747 7.61001,24.2697 17.33707,37.4186 10.85302,14.6709 17.37209,30.3994 30.67125,74 9.42503,30.8995 30.68948,55.8093 67.01208,78.5 4.18355,2.6134 9.07386,6.7825 11.66494,9.9445 9.35091,11.4114 22.59777,43.619 25.29114,61.4913 1.27296,8.4469 0.80708,16.4115 -1.64158,28.0642 -1.79337,8.5342 -1.13604,13.9106 2.70559,22.1295 5.02066,10.74128 10.19025,15.29638 22.70648,20.00744 6.70476,2.5237 18.37503,5.5535 18.99661,4.932 0.58891,-0.589 -6.80396,-19.65006 -10.40139,-26.81804 -1.86297,-3.712 -4.28176,-7.3078 -5.37509,-7.9906 -2.39887,-1.4981 -2.70413,-6.921 -0.4929,-8.7562 2.36048,-1.959 5.61192,0.8445 11.84642,10.2144 6.68696,10.0499 13.21369,23.42708 14.88757,30.51364 0.67972,2.8777 1.7666,5.4358 2.41527,5.6848 1.9628,0.7532 31.90288,3.6121 47.35575,4.5218 7.975,0.4696 27.775,0.7452 44,0.6126 28.09092,-0.2295 29.97765,-0.3649 39.5,-2.8331 z M 598.93,1007.719 c -13.35121,-2.782 -24.09233,-15.29446 -29.31845,-34.15354 -2.70614,-9.7654 -2.63395,-13.9283 0.28915,-16.6744 5.49825,-5.1653 8.88884,-0.6974 10.5488,13.9006 0.62511,5.4973 1.81496,11.0305 2.64409,12.29588 1.97708,3.0174 7.86566,7.1633 19.3139,13.5978 5.12668,2.8815 9.57572,5.90226 9.88674,6.71276 1.41412,3.6851 -5.57336,5.9443 -13.36423,4.3209 z m 64.17962,-40.38794 c -2.08391,-2.0839 -2.52337,-3.4778 -2.52337,-8.0038 0,-6.8976 0.99161,-9.4886 5.57174,-14.5582 2.44133,-2.7023 4.50318,-4.0523 6.18896,-4.0523 2.5223,0 2.52674,0.016 1.97569,7.25 -0.69512,9.1252 -4.56961,21.1269 -6.96302,21.5688 -0.94965,0.1754 -2.86215,-0.8167 -4.25,-2.2045 z m -83.52337,-20.7309 c -4.02704,-1.5945 -10.05221,-7.9893 -12.60976,-13.3834 -2.47673,-5.2236 -3.12233,-10.9295 -1.35988,-12.0188 0.5667,-0.3502 4.57005,2.9993 8.89633,7.4435 7.3919,7.5933 14.09129,12.0002 18.32331,12.0533 2.51068,0.032 2.20291,3.5913 -0.47251,5.4653 -2.47537,1.7338 -8.94703,1.9567 -12.77749,0.4401 z m -89.58131,-24.2196 c -2.92437,-1.3902 -6.59924,-4.2723 -8.65723,-6.7897 -3.89218,-4.761 -10.76146,-20.2457 -10.76146,-24.2585 0,-5.8839 3.68184,-3.8765 10.05568,5.4825 6.9228,10.165 20.11823,19.9019 26.97119,19.9019 1.44879,0 4.76594,-1.0793 7.37143,-2.3983 l 4.73725,-2.3983 1.12812,2.4759 c 2.519,5.5286 -4.53134,9.6539 -17.26367,10.1013 -7.29892,0.2565 -9.218,-0.043 -13.58131,-2.1168 z m 84.41441,-4.0421 c -7.20857,-2.965 -17.23214,-9.7781 -17.66568,-12.0075 -1.07801,-5.5437 7.16383,-5.8803 14.65699,-0.5987 5.46948,3.8553 9.45052,4.5978 16.09932,3.0028 4.2388,-1.0169 5.53836,-1.9044 7.86056,-5.3683 4.73441,-7.0621 11.66981,-8.077 31.74248,-4.6454 13.33503,2.2797 16.2406,1.9095 23.67841,-3.0171 5.72108,-3.7895 12.51805,-11.0809 14.29581,-15.3356 1.1848,-2.8357 1.03474,-5.082 -1.23624,-18.5067 -2.71207,-16.0322 -2.49736,-22.6452 0.73525,-22.6452 2.14235,0 8.79759,13.8246 10.10949,21 1.65382,9.0455 0.33608,22.7744 -2.80911,29.2667 -5.80799,11.9889 -19.57092,17.7812 -44.80038,18.8547 -15.80836,0.6727 -21.73227,2.1736 -27.26259,6.9074 -7.09838,6.0759 -15.62723,7.1143 -25.40431,3.0929 z m 110.47123,-12.5777 c -3.89453,-2.3747 -5.64478,-5.0806 -7.29486,-11.278 -1.10221,-4.1398 -1.04838,-5.0577 0.42878,-7.3121 2.07002,-3.1593 3.41395,-2.8105 6.25542,1.6232 4.40704,6.8765 6.50109,8.901 10.42226,10.0758 4.92096,1.4743 6.35932,3.7235 4.27981,6.6925 -2.00866,2.8677 -9.5398,2.9739 -14.09141,0.1986 z m -151.71003,-18.039 c -6.38397,-1.1501 -16.34151,-6.0879 -20.02049,-9.928 -1.9128,-1.9965 -2.90714,-4.0792 -2.90714,-6.089 0,-5.3367 1.35018,-5.413 10.92762,-0.6174 9.32058,4.667 17.98656,7.6278 22.33721,7.6317 1.89903,0 4.45867,-1.9809 9.82039,-7.6063 8.43743,-8.8524 10.24811,-9.1161 10.24811,-1.4925 0,8.0931 -2.98605,13.4587 -9.32501,16.756 -3.50071,1.8209 -14.53323,2.5251 -21.08069,1.3455 z m -83.67286,-29.4124 c -4.33951,-2.9488 -7.41856,-6.9534 -12.41025,-16.1406 -2.92849,-5.39 -3.66984,-7.6837 -3.15124,-9.75 1.05243,-4.1932 3.17324,-3.2321 7.08795,3.2122 1.97599,3.2528 5.17423,7.3028 7.1072,9 3.00337,2.637 4.30385,3.0858 8.94218,3.0858 5.3472,0 15.86365,-3.157 17.08169,-5.1278 0.33934,-0.5491 -2.15791,-3.8881 -5.54945,-7.42 -3.39153,-3.5319 -5.89895,-6.8545 -5.57203,-7.3834 1.21898,-1.9724 15.08855,4.5589 27.54251,12.97 6.15,4.1536 17,14.2398 17,15.8034 0,2.4221 -3.25829,4.26 -6.37371,3.5953 -4.07559,-0.8696 -12.54071,-4.9968 -16.14748,-7.8727 l -2.84727,-2.2703 -4.35601,3.325 c -4.80223,3.6656 -15.44718,7.3805 -21.14873,7.3805 -2.22138,0 -5.05658,-0.9473 -7.20536,-2.4074 z m 104.57856,-2.9563 c -2.75,-0.7027 -6.45331,-2.0402 -8.22957,-2.9721 -4.67815,-2.4545 -15.82562,-13.1761 -17.23364,-16.5754 -1.49347,-3.6056 -0.0756,-6.79 3.41298,-7.6656 4.27775,-1.0736 5.91586,-0.1391 6.74417,3.8476 1.28179,6.1693 4.42579,11.329 7.73957,12.7016 7.27522,3.0135 17.85558,-1.4547 42.58263,-17.9832 9.22594,-6.167 18.31498,-11.8564 20.19787,-12.6431 1.88289,-0.7867 9.13001,-2.7875 16.10471,-4.4463 6.9747,-1.6587 15.0617,-4.098 17.9711,-5.4207 6.77497,-3.0801 8.7208,-7.1984 9.58289,-20.2819 0.67744,-10.2811 -0.62484,-15.8108 -6.43353,-27.3177 -3.24301,-6.4244 -3.74488,-9.8795 -1.43502,-9.8795 2.32986,0 13.24676,15.449 15.05661,21.3073 2.44584,7.9169 3.03066,21.5644 1.17334,27.3812 -0.84497,2.6463 -1.85267,6.3246 -2.23935,8.1739 -0.86689,4.146 -6.58131,10.6309 -11.64355,13.2135 -2.08187,1.0621 -10.56492,3.2779 -18.85121,4.9241 -8.28629,1.6461 -16.7647,3.8596 -18.84091,4.9188 -2.07621,1.0592 -6.89886,5.4175 -10.71701,9.6852 -13.78548,15.4083 -30.84769,22.6339 -44.94208,19.0323 z m -103.5,-33.7325 c -14.92041,-2.9081 -20.93057,-10.0357 -19.68748,-23.3476 1.03124,-11.0433 5.00007,-17.4674 14.63326,-23.6862 4.34765,-2.8067 10.34118,-3.8328 11.49381,-1.9678 0.3067,0.4963 -2.11154,3.2146 -5.37385,6.0408 -7.27217,6.3 -9.53815,11.3468 -8.84539,19.7005 0.37877,4.5676 0.99082,6.1414 3.09083,7.9477 3.62545,3.1185 12.52519,4.7508 22.73444,4.1696 9.78702,-0.5571 15.5451,-2.7015 23.6159,-8.795 2.88896,-2.1812 5.49697,-3.9658 5.79557,-3.9658 0.2986,0 0.54291,1.4018 0.54291,3.1151 0,3.8219 -4.52145,8.2954 -14.02853,13.8797 -12.35048,7.2544 -22.06372,9.2299 -33.97147,6.909 z m 271.16932,-0.9694 c -4.37691,-0.9394 -8.73344,-5.2262 -10.79378,-10.6211 -1.99353,-5.22 -3.68493,-5.8277 -13.70603,-4.924 -3.94323,0.3555 -10.17811,0.9218 -13.85529,1.2583 l -6.68578,0.6119 -1.97864,-3.2536 c -1.08825,-1.7895 -2.96078,-6.3081 -4.16118,-10.0413 -1.92475,-5.986 -2.02185,-7.123 -0.8221,-9.6262 0.80571,-1.681 2.1548,-2.8384 3.30861,-2.8384 2.0082,0 3.04655,1.5721 6.44329,9.7554 l 1.97387,4.7553 14.31046,-0.1598 c 12.5084,-0.1397 14.89882,0.1004 18.98285,1.907 3.19993,1.4155 5.20549,3.1186 6.36399,5.4044 3.70266,7.3057 6.87881,8.6511 10.26379,4.3478 1.69079,-2.1495 2.12632,-2.2877 3.18592,-1.011 1.60094,1.929 0.55393,7.5278 -2.01956,10.7995 -2.50384,3.1831 -6.56132,4.5477 -10.81042,3.6358 z m -159.83049,-9.3959 c -4.228,-2.9883 -3.87183,-14.9362 0.56494,-18.9514 1.05172,-0.9518 5.11302,-3.0331 9.02512,-4.6252 8.65188,-3.5209 15.12444,-7.8542 18.66486,-12.4959 1.45955,-1.9136 4.35161,-7.7152 6.42681,-12.8925 5.95113,-14.8471 11.19681,-21.3599 19.11484,-23.7322 7.23289,-2.1671 16.8646,2.5794 16.8646,8.3107 0,2.868 -0.15017,2.9749 -3.25,2.3135 -1.7875,-0.3814 -4.76746,-1.3171 -6.62212,-2.0794 -4.85624,-1.9961 -8.85291,-1.7684 -10.10752,0.5758 -0.5775,1.0791 -1.95076,6.3398 -3.05169,11.6903 -3.43646,16.7015 -8.83342,23.181 -26.72052,32.08 -13.2907,6.6123 -15.0368,8.4448 -13.11384,13.7627 0.94116,2.6027 1.00507,4.0641 0.23175,5.2994 -1.42155,2.2708 -5.3518,2.6351 -8.02723,0.7442 z m -70.14597,-42.611 c -18.72654,-2.4312 -26.0094,-6.5607 -45.49335,-25.7956 -19.064,-18.8203 -28.55773,-31.7614 -32.26736,-43.9844 -1.8635,-6.1401 -1.86139,-6.1499 1.31785,-6.1322 3.67063,0.02 4.61561,0.7631 7.02807,5.5231 3.41537,6.739 15.45861,21.4469 25.22719,30.8091 19.68976,18.8705 39.4929,27.6525 62.3558,27.6525 10.46455,0 20.84199,-3.3871 46.63894,-15.2225 24.95687,-11.45 51.82416,-29.9186 56.51583,-38.8491 2.60211,-4.953 4.78001,-18.9004 4.13774,-26.4984 -1.04042,-12.3082 -7.83945,-30.8746 -15.79009,-43.1188 -4.33588,-6.6774 -4.82068,-10.6164 -1.36348,-11.0786 7.29281,-0.9748 22.59501,20.406 27.02296,37.7575 1.33751,5.2411 1.53009,9.0897 1.0008,20 -1.07149,22.0862 -2.76186,28.2549 -10.0878,36.8137 -10.06946,11.7639 -58.38564,38.2 -86.9445,47.5716 -16.3455,5.3638 -25.17194,6.3862 -39.2986,4.5521 z m 166.26452,-15.7904 c -3.14747,-1.9194 -8.45738,-7.6529 -8.45738,-9.1321 0,-3.6331 1.23551,-3.776 6.16295,-0.7129 4.71271,2.9295 5.1761,3.028 7.66895,1.6288 2.08064,-1.1679 2.80066,-2.5204 3.3367,-6.2678 0.91671,-6.4086 3.05271,-9.4164 7.24566,-10.203 4.61549,-0.8659 8.96398,0.1735 15.79571,3.7754 7.00416,3.6928 17.79003,13.2718 17.79003,15.7994 0,2.7312 -1.79644,3.375 -4.29911,1.5406 -9.99519,-7.3262 -22.11315,-13.2614 -25.06611,-12.2771 -0.52809,0.176 -1.04277,2.668 -1.14374,5.5377 -0.21642,6.1509 -2.82859,9.6175 -8.41678,11.1698 -5.09335,1.4149 -7.16282,1.2475 -10.61688,-0.8588 z m 62.29262,-2.2172 c -0.9625,-0.5606 -1.75,-1.8069 -1.75,-2.7696 0,-1.3245 0.82865,-1.7503 3.40655,-1.7503 4.19784,0 6.37343,-1.7196 8.72997,-6.9 2.46801,-5.4255 2.34249,-7.7626 -1.13652,-21.1617 -3.36806,-12.9718 -3.70945,-17.5046 -1.45902,-19.3723 1.29632,-1.0759 2.07959,-0.7569 4.93353,2.0093 5.74793,5.5711 7.96817,12.0301 7.81706,22.7409 -0.13276,9.4104 -2.13315,18.5862 -5.00867,22.9748 -3.02406,4.6153 -11.09628,6.813 -15.5329,4.2289 z m -219.42126,-22.33 c -5.00795,-2.2537 -7.19382,-8.7971 -3.86236,-11.562 2.16107,-1.7935 3.75128,-0.8384 5.04882,3.0325 1.43504,4.281 4.67786,5.0463 8.03178,1.8954 2.48064,-2.3304 5.45302,-2.0813 5.45302,0.457 0,0.8116 -1.0125,2.6409 -2.25,4.0652 -2.75472,3.1704 -8.06348,4.073 -12.42126,2.1119 z m 154.4353,-14.5244 c -5.12029,-1.6563 -9.43158,-5.0179 -14.16894,-11.0478 -5.1728,-6.5841 -5.36742,-8.8103 -1.01926,-11.6594 2.16898,-1.4211 2.66618,-1.4298 4.72335,-0.082 1.26455,0.8286 3.10957,3.3036 4.10005,5.5001 2.22535,4.935 4.65082,6.0834 15.5448,7.3602 15.87416,1.8606 33.4879,-0.5257 43.29995,-5.866 6.18198,-3.3647 9.87304,-7.5673 14.21012,-16.1796 5.216,-10.3576 7.23716,-17.3735 9.04058,-31.382 2.4614,-19.1194 0.79639,-27.3162 -12.63651,-62.2091 -3.81126,-9.9 -6.79933,-18.9 -6.64018,-20 0.24802,-1.7142 1.0413,-1.2855 5.55072,3 4.88218,4.6396 5.62754,6.0089 10.34257,19 12.96579,35.7239 13.04788,36.0612 13.13295,53.955 0.12377,26.0375 -3.93685,38.4348 -16.72284,51.0559 -13.02262,12.8547 -28.3176,18.4636 -52.0214,19.0772 -7.7,0.1993 -15.23118,-0.036 -16.73596,-0.5227 z m 52.8258,-32.9662 c -1.86107,-2.0565 -0.67806,-3.7309 1.92911,-2.7304 0.78274,0.3004 2.11119,-0.1419 2.95211,-0.9828 1.74577,-1.7458 2.002,-3.3861 0.52894,-3.3861 -1.58378,0 -1.16146,-3.0008 0.51273,-3.6433 3.9783,-1.5266 6.07548,5.9308 2.93057,10.4208 -1.94318,2.7742 -6.48461,2.9393 -8.85346,0.3218 z m -360.7077,-41.0996 c -11.05879,-5.8442 -21.34564,-25.3063 -26.35354,-49.8595 -1.56194,-7.658 -1.56509,-8.4356 -0.0435,-10.7578 2.08318,-3.1794 6.07586,-2.8942 8.64856,0.6176 1.0073,1.375 3.18499,7.225 4.83931,13 1.65431,5.775 3.68912,12.7957 4.52179,15.6017 2.97248,10.0167 14.2513,23.596 21.51284,25.9007 2.20298,0.6992 2.53322,2.6185 0.95722,5.5633 -1.38842,2.5943 -9.11719,2.5581 -14.08268,-0.066 z m 224.11786,-50.9348 c -3.58471,-1.0944 -9.69999,-4.3193 -19.77206,-10.4267 -15.36987,-9.3199 -18.2839,-10.1284 -36.22794,-10.0512 -20.54392,0.088 -28.51537,1.7898 -34.58079,7.3807 -4.83684,4.4584 -5.94132,4.7557 -9.1967,2.4756 -2.39903,-1.6804 -2.9851,-6.1499 -1.23516,-9.4197 1.42718,-2.6667 7.26355,-6.006 13.28792,-7.6028 7.7648,-2.0581 32.51485,-2.9196 43.10907,-1.5006 11.0134,1.4752 16.46766,3.5124 26.36649,9.8481 4.26204,2.7278 10.67417,5.9944 14.24917,7.259 9.96436,3.5248 13.28712,7.5427 9.42857,11.4013 -1.72614,1.7261 -1.82192,1.7373 -5.42857,0.6363 z m 18.75,-7.145 c -4.7625,-2.7739 1.14667,-9.2428 13.70541,-15.0037 7.44726,-3.4161 9.73223,-4.955 10.65112,-7.1734 3.24567,-7.83578 11.4534,-14.89308 15.5102,-13.33638 2.34043,0.8981 1.61744,2.8833 -5.20839,14.30138 l -6.59165,11.0264 -5.92065,0.6189 c -7.14813,0.7471 -12.97503,3.5447 -15.87992,7.6242 -2.28752,3.2126 -3.46106,3.5764 -6.26612,1.9426 z m -261.52459,-10.8473 c -10.60103,-5.43 -20.95103,-11.139 -23,-12.6867 -5.41897,-4.0931 -34.78059,-31.12788 -41.27818,-38.00706 -6.85786,-7.26056 -9.90546,-11.7338 -17.97178,-26.37884 -4.4281,-8.03955 -8.87052,-14.32488 -14.76338,-20.88783 -11.35,-12.64065 -13.16814,-17.49488 -9.67971,-25.84386 2.02665,-4.85045 9.34615,-14.26831 11.08925,-14.26831 1.69118,0 1.69704,-0.32094 -0.12161,6.66131 -1.86415,7.15694 -1.8882,13.29129 -0.0788,20.08822 1.14712,4.309 2.85253,6.8047 9.51881,13.92977 10.22704,10.9309 21.86734,26.07367 27.31334,35.53169 8.89943,15.45553 25.927,30.03743 63.98723,54.79671 11.40734,7.4207 20.74484,13.7576 20.75,14.0818 0.01,0.6283 -4.60819,2.929 -5.78766,2.8832 -0.38662,-0.015 -9.37652,-4.47 -19.97754,-9.9001 z m 426.42958,-14.9014 c -2.63755,-2.9144 -2.00531,-4.48728 3.82805,-9.52348 3.01567,-2.6035 6.72817,-6.8518 8.25,-9.4407 2.6382,-4.488 2.77088,-5.3352 2.85125,-18.20702 0.10904,-17.46559 0.56471,-18.43332 13.38556,-28.42707 12.79665,-9.97489 16.53325,-14.08665 28.69222,-31.57293 23.30761,-33.51959 35.33793,-54.04753 35.33793,-60.29889 0,-5.35872 -2.89451,-14.86163 -6.00153,-19.7035 -1.59603,-2.48719 -3.6089,-6.21432 -4.47304,-8.2825 -1.43225,-3.42786 -1.43056,-3.81429 0.0192,-4.3706 3.82457,-1.46762 11.03595,5.98413 17.08598,17.65549 2.51287,4.84767 2.85211,6.56746 2.86022,14.5 0.009,8.89338 -0.0569,9.13624 -5.57449,20.5 -9.97533,20.54486 -28.72336,49.66003 -38.85721,60.34416 -3.04874,3.21429 -9.69616,8.73966 -14.77205,12.2786 -13.57344,9.46349 -16.9161,14.61828 -18.32785,28.26379 -1.51911,14.68317 -7.86211,31.53217 -13.55716,36.01185 -3.30636,2.6008 -8.52049,2.7332 -10.74704,0.2728 z M 510.06345,542.35828 c -6.89182,-3.2093 -15.87627,-13.2773 -21.69285,-24.30911 -5.49186,-10.41593 -6.8185,-16.1554 -4.31326,-18.66064 2.84099,-2.841 4.17704,-1.90344 6.5241,4.57823 5.61998,15.52017 10.56737,21.73552 25.25481,31.72742 4.2625,2.8998 7.75,5.5041 7.75,5.7872 0,1.2065 -3.69538,3.1735 -6,3.1938 -1.375,0.012 -4.76026,-1.0305 -7.5228,-2.3169 z M 181.33625,407.69396 c -1.37279,-0.84453 -2.61385,-4.96535 -1.5,-4.98063 1.77068,-0.0243 15.83619,-6.66837 17.57491,-8.30181 2.14895,-2.01883 2.27632,-2.70801 1.65107,-8.93389 -0.74761,-7.44438 0.0485,-8.599 5.06163,-7.34079 3.57504,0.89728 4.72986,4.57036 2.98859,9.50566 -2.10795,5.97457 -7.89396,14.49024 -11.94475,17.57993 -3.94137,3.00623 -10.93183,4.25535 -13.83145,2.47153 z m 70.45,-36.1772 c -0.66,-0.66 -1.2,-1.93822 -1.2,-2.84048 0,-2.86194 26.96924,-24.28898 35.09624,-27.88394 8.16479,-3.61168 17.5017,-4.33361 50.54156,-3.90791 34.65892,0.44657 34.3622,0.38651 34.3622,6.95477 0,4.74519 3.20524,4.59063 -36.41366,1.75599 -24.76389,-1.77179 -31.04752,-1.93704 -36.5,-0.95991 -10.71762,1.92069 -15.45678,5.16202 -24.13025,16.50383 -4.17338,5.45729 -8.45829,10.26316 -9.52203,10.67971 -3.07835,1.20547 -10.92015,1.01185 -12.23406,-0.30206 z m 639.09302,-40.24965 c -4.93906,-5.06199 -6.29302,-7.10594 -6.29302,-9.5 0,-4.46711 1.9573,-3.81627 7.3669,2.44965 5.01212,5.80557 7.60972,6.7413 11.19192,4.0318 4.1282,-3.12235 8.4412,-1.27706 8.4412,3.6115 0,3.79478 -3.3198,5.8567 -9.4295,5.8567 -4.8136,0 -5.2002,-0.2211 -11.2775,-6.44965 z m -78.2693,-19.39817 c -13.04131,-12.81723 -19.21735,-14.69322 -45.67599,-13.87427 -14.99789,0.46421 -19.33618,0.96514 -27.16946,3.13714 -5.12696,1.4216 -11.30069,3.74446 -13.71942,5.16193 -4.92391,2.88561 -7.91076,2.59492 -8.83763,-0.8601 -0.87027,-3.24404 2.36379,-6.97983 7.27283,-8.40113 7.86421,-2.2769 39.41648,-5.81618 51.60595,-5.78874 9.67563,0.0218 13.44439,0.47535 19.45693,2.34164 13.98765,4.34175 27.87665,12.88093 29.55577,18.17136 0.72361,2.27991 -0.92208,5.62932 -3.28562,6.68707 -1.31912,0.59035 -3.49307,-0.96272 -9.20336,-6.5749 z M 422.06892,537.77138 c 1.05988,-3.3394 11.44636,-11.9926 26.18777,-21.8177 l 14.17044,-9.44452 0.58422,-4.6462 c 1.43823,-11.43806 2.48734,-34.4698 1.91072,-41.94725 -0.60176,-7.80356 -0.74759,-8.19895 -3.02388,-8.19895 -4.34674,0 -10.47045,-4.06651 -19.98585,-13.27179 -7.47721,-7.23352 -10.15358,-10.62357 -13.1106,-16.6067 -3.5423,-7.16736 -3.71549,-7.98633 -3.71549,-17.56965 0,-12.02247 2.48365,-22.3093 6.50304,-26.9344 2.67945,-3.08325 2.69643,-3.19428 1.54741,-10.11746 -0.63898,-3.85 -1.58673,-6.87482 -2.10612,-6.72183 -0.51938,0.15299 -10.61933,7.17631 -22.44433,15.60736 -11.825,8.43106 -22.7852,16.15139 -24.356,17.1563 -1.5708,1.0049 -7.09238,6.9158 -12.27018,13.13533 -5.1778,6.21953 -11.7676,13.17725 -14.644,15.4616 -5.77021,4.58252 -15.43688,9.52415 -20.48986,10.47447 l -3.26005,0.61312 8.80876,9.21413 c 6.21439,6.50035 10.01942,11.54754 12.91932,17.13682 4.51108,8.69468 16.94624,43.88912 20.33943,57.5654 l 2.14433,8.64272 7.42832,1.1048 c 9.31097,1.3848 17.50476,4.1244 27.26662,9.1165 4.18732,2.1413 7.92049,3.9158 8.29592,3.9433 0.37544,0.027 0.96047,-0.8255 1.30006,-1.8954 z m 252.76981,-39.61426 c 12.68777,-12.11877 24.59781,-21.92446 29.42617,-24.22694 2.77415,-1.3229 3.34103,-2.21934 3.87734,-6.13143 3.49121,-25.46634 12.46526,-53.17775 23.01355,-71.06463 2.75166,-4.66603 8.56904,-12.20167 13.16427,-17.05257 l 8.23382,-8.69192 -6.73382,-0.66282 c -14.28508,-1.40611 -32.15231,-7.25956 -39.67606,-12.9982 -4.64691,-3.54438 -18.54549,-10.28618 -27.18298,-13.18569 -8.86373,-2.97546 -18.75073,-3.47937 -39.94692,-2.036 l -13.07215,0.89016 2.34323,13.60984 c 4.60652,26.7553 10.51193,76.19546 10.49267,87.84476 -0.0182,11.0185 -0.12843,11.55788 -5.72127,28 -3.13648,9.2208 -6.75118,18.8398 -8.03267,21.37558 -3.17311,6.27889 -11.06333,14.66091 -17.78119,18.8895 -7.51854,4.73258 -7.36169,6.08399 0.61961,5.33868 10.11552,-0.9446 33.99997,3.12234 41.54078,7.07334 2.40064,1.2578 2.62803,1.0539 8.32806,-7.46771 3.79375,-5.67171 9.82598,-12.54893 17.10756,-19.50395 z"
       id="path3461"
       inkscape:connector-curvature="0" />
  </g>
</svg>
