<?xml version="1.0" encoding="UTF-8" standalone="no"?>
<!-- Created with Inkscape (http://www.inkscape.org/) -->

<svg
   xmlns:dc="http://purl.org/dc/elements/1.1/"
   xmlns:cc="http://creativecommons.org/ns#"
   xmlns:rdf="http://www.w3.org/1999/02/22-rdf-syntax-ns#"
   xmlns:svg="http://www.w3.org/2000/svg"
   xmlns="http://www.w3.org/2000/svg"
   xmlns:sodipodi="http://sodipodi.sourceforge.net/DTD/sodipodi-0.dtd"
   xmlns:inkscape="http://www.inkscape.org/namespaces/inkscape"
   width="843.91632"
   height="888.80853"
   id="svg2"
   version="1.1"
   inkscape:version="0.48.3.1 r9886"
   sodipodi:docname="Front-and-back-neck-isometric-2.svg">
  <defs
     id="defs4" />
  <sodipodi:namedview
     id="base"
     pagecolor="#ffffff"
     bordercolor="#666666"
     borderopacity="1.0"
     inkscape:pageopacity="0.0"
     inkscape:pageshadow="2"
     inkscape:zoom="0.7"
     inkscape:cx="449.98004"
     inkscape:cy="463.46501"
     inkscape:document-units="px"
     inkscape:current-layer="layer1"
     showgrid="false"
     fit-margin-top="0"
     fit-margin-left="0"
     fit-margin-right="0"
     fit-margin-bottom="0"
     inkscape:window-width="1855"
     inkscape:window-height="1056"
     inkscape:window-x="65"
     inkscape:window-y="24"
     inkscape:window-maximized="1" />
  <metadata
     id="metadata7">
    <rdf:RDF>
      <cc:Work
         rdf:about="">
        <dc:format>image/svg+xml</dc:format>
        <dc:type
           rdf:resource="http://purl.org/dc/dcmitype/StillImage" />
        <dc:title></dc:title>
      </cc:Work>
    </rdf:RDF>
  </metadata>
  <g
     inkscape:label="Ebene 1"
     inkscape:groupmode="layer"
     id="layer1"
     transform="translate(-134.58631,-246.43279)">
    <path
       style="fill:#000000"
       d="m 548.8088,1133.6651 c -1.2224,-0.8561 -2.2225,-2.328 -2.2225,-3.2708 0,-1.7869 13.4517,-15.4762 23.0575,-23.4647 8.1147,-6.7485 16.803,-11.7078 20.5112,-11.7078 3.514,0 4.9478,1.2255 5.9075,5.0494 0.5418,2.1587 -0.231,3.3613 -5.1696,8.0448 -3.1937,3.0287 -10.3066,8.8871 -15.8066,13.0188 -19.5834,14.7111 -21.5566,15.637 -26.2775,12.3303 z m -76.5305,-7.8941 c -2.924,-2.924 -2.0564,-5.3838 2.9358,-8.3238 31.8332,-18.7469 47.0668,-29.2957 51.0941,-35.3813 l 2.5449,-3.8456 -1.2621,-10.9573 -1.2621,-10.9572 -4.6213,-0.6475 c -13.7903,-1.9322 -27.6319,-4.6302 -35.504,-6.9204 -4.8854,-1.4213 -9.0454,-2.4213 -9.2444,-2.2223 -0.199,0.199 -1.9789,9.9994 -3.9552,21.7787 -2.7109,16.1576 -3.3261,21.8446 -2.5055,23.1586 1.6894,2.7052 1.2874,6.5693 -0.9122,8.7689 -2.6616,2.6616 -9.9993,2.7634 -12.3451,0.1713 -2.3969,-2.6486 -2.132,-12.3575 0.7584,-27.7876 1.3273,-7.086 3.179,-17.8337 4.1149,-23.8837 0.9358,-6.05 2.3158,-12.1977 3.0667,-13.6617 2.283,-4.4514 6.1766,-6.8383 11.155,-6.8383 3.8534,0 4.9344,0.4958 7.7256,3.5431 4.2704,4.6621 10.7951,7.0169 24.648,8.8954 27.2777,3.699 88.0128,4.8118 112.6134,2.0634 36.7618,-4.107 67.5731,-9.7478 77.153,-14.1247 12.5282,-5.7239 27.4559,-23.0813 28.8612,-33.55866 l 0.5762,-4.2956 -6.8174,6.2469 c -14.4458,13.23686 -43.3781,23.86786 -81.0099,29.76656 -21.1324,3.3125 -84.3182,0.8608 -118.4029,-4.594 -27.0719,-4.3326 -51.4477,-12.4764 -60.7351,-20.2912 l -2.9359,-2.47036 -5.6035,12.65956 c -3.082,6.9628 -8.5747,19.195 -12.2061,27.1826 l -6.6026,14.523 -0.9494,25.977 c -0.9736,26.64 -2.0132,33.5529 -5.6501,37.5716 -1.9009,2.1005 -5.4928,2.4691 -8.4802,0.8703 -1.7283,-0.925 -1.9335,-2.1762 -1.9276,-11.75 0.01,-12.0697 2.3857,-44.8388 4.0799,-56.2149 1.6182,-10.8655 3.0783,-14.5381 13.6027,-34.2133 12.9535,-24.21616 13.4041,-25.53646 14.4036,-42.20336 0.459,-7.6541 1.3662,-16.4292 2.0161,-19.5 0.6498,-3.0708 1.1822,-9.4083 1.1832,-14.0833 10e-4,-7.1438 -0.5834,-10.238 -3.6653,-19.393 -6.2908,-18.6869 -16.7526,-37.6346 -25.2794,-45.7842 -2.1161,-2.0224 -8.2813,-6.1785 -13.7005,-9.2357 -13.1634,-7.4262 -21.5641,-13.5323 -30.9379,-22.4876 -14.0002,-13.3751 -19.9662,-23.7906 -27.838,-48.59949 -10.667,-33.61809 -19.3794,-53.58599 -35.2117,-80.70144 -12.4473,-21.31817 -15.2692,-27.5009 -17.4102,-38.14567 l -1.7667,-8.7838 -11.5919,-4.79081 c -15.5554,-6.42891 -29.9736,-14.07211 -38.4283,-20.37122 -10.1909,-7.59256 -32.7098,-29.90269 -40.0788,-39.70706 -10.7202,-14.26328 -13.42,-20.81936 -22.2887,-54.12518 -4.0234,-15.10979 -6.2143,-21.2043 -11.6078,-32.28983 L 165.425,502.1422 152.118,488.93202 c -13.90329,-13.80222 -17.53169,-19.06264 -17.53169,-25.41692 0,-4.84698 3.9508,-16.70419 8.75,-26.26024 4.63429,-9.22799 8.69049,-12.49858 21.80039,-17.57823 13.8421,-5.3634 17.5287,-8.2405 28.1321,-21.95478 25.9771,-33.59868 47.1588,-43.48208 125.3175,-58.47327 60.5348,-11.61087 63.4088,-12.43766 102.2167,-29.40587 10.8442,-4.74147 20.1172,-8.62086 20.6066,-8.62086 0.4895,0 4.1032,-4.21928 8.0305,-9.37617 17.8281,-23.4097 40.0831,-34.7148 72.1462,-36.64878 10.7663,-0.64941 18.4911,-1.80652 30,-4.4938 12.2515,-2.8607 18.3292,-3.72949 29,-4.1455 17.2357,-0.67196 32.4447,1.41013 38.458,5.26482 2.2231,1.42508 12.367,11.01749 22.542,21.31647 19.6587,19.89824 23.2385,22.514 37,27.03588 14.6276,4.8065 27.5632,6.27802 59.7156,6.79313 18.6104,0.29815 33.7816,0.0675 39.5,-0.60044 5.1064,-0.59648 18.2844,-1.38231 29.2844,-1.74627 16.2136,-0.53648 22.1637,-0.34143 31.429,1.03024 14.7499,2.18362 34.1658,8.58787 51.5342,16.99833 12.7753,6.18628 14.0561,7.07724 21.3143,14.82694 15.3026,16.33868 24.8035,25.44686 29.2225,28.01454 2.475,1.4381 9.4433,3.95607 15.4852,5.59549 12.1066,3.28501 14.7237,5.18969 16.3525,11.90107 4.0747,16.78915 5.4612,25.19977 5.9109,35.85738 0.671,15.9003 -0.5244,21.01718 -6.2718,26.84713 -3.004,3.04712 -6.4688,8.82216 -11.5157,19.19402 -8.6047,17.68323 -18.36,34.02929 -28.1691,47.20008 -9.6319,12.93301 -45.0839,48.19162 -59.9747,59.64759 -26.8315,20.64232 -56.5216,36.05915 -81.2234,42.17594 -13.6544,3.38117 -17.8696,5.15663 -17.0778,7.19315 2.3204,5.96808 4.9308,36.5324 3.9767,46.56265 -1.1903,12.5131 -4.4956,25.54549 -12.605,49.69895 -4.3658,13.00355 -9.1246,28.97855 -10.5751,35.5 -2.4829,11.16348 -2.6519,13.61225 -2.889,41.85716 -0.1961,23.37019 -0.6203,31.76799 -1.9192,37.99999 -1.9043,9.1363 -7.1753,21.0491 -13.9411,31.5079 -4.4371,6.8592 -4.5982,7.3568 -3.479,10.748 1.6408,4.9718 0.6208,37.0469 -1.5651,49.2127 -1.9425,10.8112 -1.8772,36.5579 0.096,37.8188 0.6134,0.3919 1.4292,1.7188 1.813,2.9487 0.3837,1.2298 2.0194,3.5577 3.6347,5.173 l 2.9371,2.9371 -0.1183,13.3269 c -0.065,7.3298 -0.4334,14.67686 -0.8186,16.32686 -0.5146,2.2049 -0.051,4.3198 1.7515,7.9796 2.2559,4.5819 2.398,5.6997 1.7798,14 -0.3696,4.9612 -0.9377,12.6496 -1.2626,17.0852 -0.4028,5.5001 -0.051,11.2244 1.1066,18 2.9963,17.5396 1.794,25.0415 -3.8832,24.2293 -2.9088,-0.4162 -6.0399,-10.386 -8.2113,-26.1457 -1.4822,-10.7571 -1.5637,-13.8993 -0.5438,-20.9535 1.9891,-13.7569 2.1892,-13.4971 -5.5501,-7.2065 -16.1571,13.1328 -44.6788,22.3414 -84.25,27.2011 -11.5051,1.4129 -21.9357,1.7748 -50.5,1.752 -19.8,-0.016 -38.3625,-0.3621 -41.25,-0.7695 l -5.25,-0.7408 0,7.9291 c 0,9.3573 -2.48,18.3408 -7.0781,25.6397 -7.2205,11.4618 -27.1463,27.1799 -42.1617,33.2586 -8.1234,3.2886 -18.6735,4.1853 -21.0682,1.7906 z m 177.308,-114.3755 c 10.13,-2.4404 20.8753,-6.0718 29.9064,-10.107 3.6264,-1.62026 9.0686,-3.62926 12.0936,-4.46446 l 5.5,-1.5186 0.044,-7.8585 c 0.054,-9.6233 2.278,-15.9838 7.0555,-20.1785 5.1855,-4.5529 7.5738,-3.7061 4.8645,1.7248 -0.8314,1.6665 -1.7904,7.3786 -2.1449,12.7759 l -0.6412,9.7617 4.2179,-2.3706 c 2.3198,-1.3039 4.7029,-2.955 5.2957,-3.6693 1.3376,-1.6117 3.8931,-12.3229 3.2054,-13.4355 -0.2772,-0.4485 -1.3455,-5.1608 -2.3741,-10.4716 -2.0201,-10.4309 -1.858,-15.8489 1.4637,-48.8953 0.8483,-8.4396 1.2054,-17.8076 0.8425,-22.1008 l -0.63,-7.4519 -2.8521,2.7325 c -3.6836,3.5291 -6.8471,10.1067 -6.8471,14.2366 0,2.9035 -0.241,3.1801 -2.25,2.5833 -1.2375,-0.3676 -2.8125,-1.3839 -3.5,-2.2585 -3.3487,-4.2599 -0.3858,-11.1262 14.7835,-34.259 6.0453,-9.219 12.1456,-19.2828 13.5562,-22.3639 4.0833,-8.9191 5.4655,-20.3859 6.3992,-53.08499 1.0437,-36.55022 1.0735,-36.70604 15.026,-78.5 11.6282,-34.83143 12.8879,-43.63331 10.5198,-73.5 -1.5223,-19.19808 -1.5312,-21.89249 -0.1037,-31.40124 1.933,-12.87588 3.8491,-16.59876 8.5431,-16.59876 l 3.362,0 -0.2352,7.25 c -0.1293,3.9875 0.1199,7.25 0.5538,7.25 0.4339,0 8.581,-2.51908 18.1047,-5.59796 56.4453,-18.24801 104.7258,-56.54414 138.0436,-109.49633 7.5886,-12.06074 29.197,-49.57102 29.197,-50.68361 0,-0.45679 1.4428,-3.05614 3.2063,-5.77632 2.9688,-4.57924 3.2014,-5.55454 3.1394,-13.1599 -0.046,-5.6554 -0.9482,-11.53831 -2.8956,-18.88561 -3.5693,-13.46607 -5.1152,-15.07061 -23.2003,-24.07969 -10.9994,-5.47934 -14.149,-7.54706 -17.115,-11.23595 -20.9221,-26.02164 -45.1152,-41.34348 -74.6348,-47.26739 -8.5401,-1.71378 -13.723,-1.99404 -35.5,-1.91961 -14.025,0.0479 -29.0029,0.59459 -33.2841,1.21478 -11.2575,1.63081 -60.7284,0.60679 -76.7159,-1.58798 -18.5499,-2.54652 -33.778,-6.70601 -45.4849,-12.424 -12.1057,-5.91282 -18.3237,-11.24926 -27.6878,-23.7624 -14.1401,-18.89535 -19.7759,-21.56344 -45.3273,-21.45867 -8.8,0.0361 -21.0863,0.734 -27.3029,1.55094 -10.0203,1.3168 -11.7545,1.84311 -15.284,4.63849 -3.7081,2.93691 -4.3502,3.10704 -9.3625,2.48081 -4.5175,-0.56443 -7.7623,-0.019 -20.2159,3.39811 -20.2767,5.56368 -23.1865,7.18876 -26.0338,14.53941 -1.2339,3.1855 -2.8863,6.51655 -3.6721,7.40235 -0.7858,0.88579 -2.3703,4.68413 -3.521,8.44076 -2.4629,8.03985 -2.0201,9.44989 4.1852,13.32867 8.0081,5.00568 11.9316,8.69936 13.7521,12.9465 2.2016,5.13612 5.1698,7.23684 12.7433,9.01921 6.7763,1.59472 30.7846,1.7895 40.2116,0.32624 15.5648,-2.41598 16.6686,-2.39683 23.8314,0.41341 3.7172,1.45838 11.6883,5.65003 17.7135,9.31478 29.2046,17.76309 39.3772,22.1564 48.2406,20.834 6.5136,-0.97181 10.5495,-2.81343 16.435,-7.4996 3.8242,-3.04481 5.9291,-4.01344 8.7217,-4.01344 5.6644,0 17.4457,3.41755 32.1736,9.33297 24.0037,9.64101 33.6038,14.70207 43.8842,23.13512 16.1512,13.24905 29.6267,21.32732 39.0883,23.43263 16.7438,3.72566 54.5311,6.58607 67.6623,5.12186 9.4403,-1.05266 19.2494,-0.51387 19.2494,1.05731 0,1.41752 -12.1663,7.67631 -20,10.28876 -7.1452,2.38281 -11.5352,3.10103 -34.5,5.6443 -19.7273,2.18472 -38.4322,8.72894 -44.4104,15.53769 -5.759,6.55917 -16.2799,22.57946 -19.7244,30.03455 -3.2987,7.13965 -14.169,38.92409 -19.385,56.681 -1.2546,4.2714 -2.4592,7.58815 -2.6768,7.37054 -0.5547,-0.55465 2.5422,-35.97455 3.7208,-42.55605 0.5337,-2.98062 0.7929,-5.59684 0.576,-5.81381 -0.8168,-0.81679 -16.4406,5.14026 -25.0294,9.54326 -4.9111,2.5176 -13.283,7.83298 -18.6043,11.81197 -8.381,6.26691 -10.6168,8.61501 -16.7169,17.5562 -10.8851,15.95499 -14.3862,18.16155 -14.6952,9.26178 -0.1096,-3.15651 -0.5872,-3.83516 -3.5904,-5.1023 -7.5787,-3.19758 -27.1107,-6.02296 -45.2934,-6.55186 l -9.8293,-0.28592 -3.4666,9 c -5.3412,13.86691 -7.302,17.5 -9.4449,17.5 -3.4174,0 -3.4147,-4.44629 0.01,-16.0989 1.7628,-5.99811 3.4631,-13.40465 3.7783,-16.45898 l 0.5732,-5.55333 -2.8957,0.80294 c -6.0546,1.6789 -24.4868,0.81548 -32.8054,-1.53671 -22.9187,-6.48048 -58.893,-24.81828 -63.6997,-32.4707 -2.1613,-3.44093 -2.1204,-6.35794 0.2372,-16.92362 1.1528,-5.16612 1.0745,-6.43946 -0.7839,-12.75 l -2.0646,-7.0107 2.2786,0 c 6.6653,0 8.5682,3.87499 9.2263,18.788 0.6324,14.32995 1.7272,16.24686 12.2159,21.38878 11.1243,5.45357 32.8535,13.54851 44.246,16.48334 8.7734,2.26012 11.4038,2.51797 21.1372,2.07202 13.1347,-0.60178 19.333,-2.34895 27.266,-7.68579 8.1822,-5.50447 11.423,-10.92976 17.9479,-30.04635 5.3827,-15.76988 5.6544,-17.05379 6.1416,-29.01527 0.7019,-17.23161 -1.9516,-49.39358 -5.2582,-63.73524 -0.384,-1.66546 -3.1785,-3.58255 -10.7497,-7.37456 -5.627,-2.81823 -14.883,-7.80459 -20.569,-11.0808 -26.0739,-15.02351 -29.3246,-15.56221 -39.1295,-6.48455 -6.2788,5.81309 -16.3287,11.3922 -31.0323,17.22744 -17.2473,6.84465 -21.587,7.48276 -33.5,4.92582 -8.2965,-1.78068 -13.5457,-0.91163 -23,3.80791 -7.8539,3.92055 -13.286,7.63903 -22.8473,15.63956 l -7.8472,6.5663 0.6487,5.0117 c 0.3567,2.75643 1.5735,6.94047 2.7039,9.29787 4.1225,8.59713 19.9579,23.21382 25.1494,23.21382 2.9596,0 9.0762,4.89233 11.1253,8.89844 2.4091,4.71 2.7349,10.75464 1.4434,26.77941 -1.4222,17.64497 -1.4223,17.6544 -0.4371,28.82215 l 0.7058,8 -5.6574,3.36389 c -7.3426,4.36588 -15.536,11.19005 -28.3226,23.58927 -10.3155,10.00304 -10.3306,10.02478 -8,11.51236 1.2843,0.81971 5.3226,4.33839 8.974,7.81929 9.383,8.94478 15.0468,22.26252 11.9382,28.07103 -1.9295,3.60532 -4.6024,2.67232 -6.033,-2.10584 -2.515,-8.40016 -15.8947,-24.75 -20.2538,-24.75 -0.5002,0 -4.7664,-1.84081 -9.4803,-4.09068 -9.8248,-4.68918 -23.7909,-8.50703 -34.7538,-9.50045 -6.2766,-0.56878 -7.5562,-0.43701 -7.5562,0.77805 0,1.34797 1.1506,4.79456 7.616,22.81308 2.7708,7.722 2.956,12.5096 0.754,19.49511 l -1.63,5.17089 5.2213,12.917 c 11.0224,27.26851 17.4955,34.76848 36.7332,42.56067 l 2.8055,1.13635 -4.5,1.41695 c -13.2715,4.17889 -20.9089,-2.14698 -38.8727,-32.19697 -11.8663,-19.85014 -12.3289,-21.04403 -9.8098,-25.31358 2.7815,-4.71426 2.5449,-14.53713 -0.5825,-24.18642 -3.9987,-12.3377 -15.6407,-37.59181 -22.5454,-48.90632 -3.5557,-5.82652 -8.0533,-13.29368 -9.9947,-16.59368 -4.0957,-6.96185 -12.2186,-18.94068 -15.1647,-22.36324 -1.7726,-2.05926 -2.6005,-2.27833 -6.4363,-1.70312 -7.9332,1.18965 -42.0737,2.46533 -42.9451,1.60467 -0.4681,-0.46235 -0.5666,-2.13608 -0.2189,-3.7194 0.6312,-2.87381 0.6576,-2.88276 15.3512,-5.20494 16.7438,-2.6462 42.5273,-8.89842 49.2189,-11.93504 8.6559,-3.92807 23.9805,-14.7778 37.6833,-26.67963 7.5992,-6.60039 16.2917,-13.78606 19.3167,-15.96817 3.025,-2.1821 14.8205,-13.00148 26.2122,-24.04306 22.0905,-21.41151 28.3498,-26.04136 40.044,-29.61946 7.4096,-2.2671 15.6011,-2.6368 30.8688,-1.39317 11.6099,0.94568 17.9276,-0.30712 24.6753,-4.89317 2.5848,-1.75674 6.2747,-3.80355 8.1997,-4.54845 6.0001,-2.32183 5.4746,-2.81859 -3.6483,-3.44895 -22.7703,-1.57333 -30.7592,-4.62271 -36.3517,-13.87558 -2.4509,-4.05498 -4.8489,-6.55014 -8,-8.32433 -8.2025,-4.61823 -13,-11.0193 -13,-17.34512 0,-1.67191 -0.3656,-3.03984 -0.8125,-3.03984 -1.7268,0 -18.5606,6.06785 -38.1875,13.765 -35.9654,14.10458 -49.6432,18.05086 -84,24.23541 -72.0689,12.97307 -99.7868,21.47967 -120.6321,37.02192 -8.1755,6.09571 -8.7547,6.73525 -21.4808,23.71967 -10.8229,14.4442 -12.017,15.364 -26.8706,20.69671 -11.4266,4.10238 -16.9254,8.12872 -18.5209,13.56129 -0.4038,1.375 -2.7055,6.60859 -5.1149,11.6302 -2.4094,5.02161 -4.3807,10.09994 -4.3807,11.28518 0,3.50468 2.5702,6.47451 13.1933,15.24427 18.364,15.16013 25.9643,25.92782 28.004,39.67461 0.5439,3.66616 2.5795,12.51574 4.5233,19.66574 10.4789,38.54361 22.833,62.57346 40.8722,79.5 9.5776,8.9868 15.5785,12.74126 38.559,24.12425 14.8572,7.35924 21.9032,10.28282 27.6365,11.46706 4.2323,0.87421 7.9239,1.73027 8.2034,1.90234 0.2795,0.17207 6.3195,1.2938 13.422,2.49272 21.8922,3.69544 35.9477,9.24377 42.8936,16.93206 4.5797,5.06918 5.1652,10.45349 1.327,12.20231 -2.109,0.96092 -3.3295,0.34687 -11.25,-5.66007 -12.6219,-9.57247 -14.2535,-10.13398 -31.2547,-10.75604 l -14.3704,-0.52581 0.6843,6.94471 c 0.3763,3.81959 1.1699,8.39186 1.7635,10.16059 1.8668,5.56258 9.2668,15.79151 20.3837,28.17609 14.298,15.92843 16.1053,19.919 30.5877,67.53979 2.827,9.29579 10.168,23.86822 16.5279,32.80917 10.384,14.59812 23.2585,26.08582 45.3868,40.49762 6.5714,4.2799 13.6498,9.838 16.3412,12.8314 9.2501,10.2883 21.6711,39.8768 25.1121,59.8202 1.7105,9.9138 1.5485,13.8739 -1.1807,28.8685 -1.7247,9.476 -1.2816,13.78 2.3604,22.9277 2.9164,7.3251 9.3233,13.7044 17.7831,17.7065 5.2767,2.49626 23.5064,7.85656 24.2365,7.12656 0.6029,-0.603 -6.7255,-19.54946 -10.3721,-26.81546 -1.8571,-3.7004 -4.4494,-7.4309 -5.7607,-8.2901 -2.0815,-1.3638 -2.2829,-2.0117 -1.586,-5.1014 0.439,-1.9465 1.088,-3.829 1.4423,-4.1833 1.3359,-1.3359 6.1291,2.5616 10.2395,8.3262 5.9476,8.3411 16.0552,28.7194 16.8398,33.95126 0.7841,5.2287 -0.2759,4.8744 20.9515,7.0032 24.9866,2.5056 45.7679,3.3524 74.5,3.0356 22.5938,-0.2491 27.7529,-0.5941 35,-2.34 z m -49.2685,-3.211 c -11.2098,-1.8857 -20.4851,-9.76696 -26.2033,-22.26546 -3.5249,-7.7045 -6.5282,-18.434 -6.5282,-23.3225 0,-3.4365 3.1861,-7.3747 5.9663,-7.3747 3.7447,0 5.5824,4.191 6.8578,15.6397 l 1.2099,10.8603 4.7927,4.5 c 2.6359,2.475 9.1242,6.8939 14.4184,9.8198 12.2992,6.79716 13.0557,7.66446 9.4166,10.79476 -1.5253,1.312 -3.3107,2.3325 -3.9675,2.2678 -0.6568,-0.065 -3.3401,-0.4786 -5.9627,-0.9197 z m 62.8573,-41.03936 c -2.9884,-3.5516 -3.5378,-10.7208 -1.2417,-16.2054 1.3629,-3.2556 8.7991,-10.7179 10.6805,-10.7179 0.562,0 1.4528,1.1334 1.9794,2.5186 1.4884,3.9146 -2.5977,22.0785 -5.7885,25.7314 -2.0702,2.3702 -2.63,2.2382 -5.6297,-1.3267 z m -83.0974,-17.7335 c -4.7243,-2.2108 -10.0153,-7.9314 -12.601,-13.6244 -2.1919,-4.8257 -2.5245,-11.5654 -0.5708,-11.5654 0.7258,0 4.3467,3.1528 8.0463,7.0062 6.6188,6.8939 15.4498,12.966 18.8841,12.9844 0.9625,0.01 1.75,0.5984 1.75,1.3183 0,4.861 -8.7402,7.0482 -15.5086,3.8809 z m -81.9914,-21.871 c -6.2454,-1.4025 -9.4669,-3.12 -14.1367,-7.5365 -4.1906,-3.9632 -6.0184,-6.8333 -9.4094,-14.775 -3.0618,-7.1704 -4.028,-10.5763 -3.5456,-12.4982 1.0367,-4.1305 3.5596,-2.7396 8.6509,4.7689 6.0341,8.8991 10.2094,13.1118 17.2388,17.3935 7.705,4.6932 11.8665,5.1583 18.0016,2.0119 l 4.7996,-2.4616 1.473,2.2482 c 2.7758,4.2364 -0.5737,7.5139 -10.2561,10.0359 -5.6748,1.4781 -8.9339,1.6848 -12.8161,0.8129 z m 81.5,-4.9372 c -6.0504,-1.602 -14.3631,-6.2314 -19.5393,-10.8816 -2.7815,-2.4988 -3.1878,-3.3759 -2.4323,-5.25 1.5601,-3.8697 8.001,-2.6179 16.4716,3.2012 3.6342,2.4966 4.6195,2.7051 10.7757,2.28 6.6881,-0.4618 10.7243,-2.4233 10.7243,-5.2119 0,-2.8524 4.858,-5.65 11.4266,-6.5803 5.3865,-0.7628 8.8214,-0.5586 17.7989,1.0579 6.1183,1.1017 12.7572,2.0031 14.753,2.0031 5.7497,0 13.2259,-4.4135 20.4521,-12.0736 7.7067,-8.1695 7.8096,-8.7644 4.5845,-26.507 -2.3857,-13.1251 -2.532,-19.3682 -0.5151,-21.9783 1.4826,-1.9186 1.5185,-1.918 3.0993,0.059 6.4493,8.0652 10.1763,25.6915 8.3108,39.3045 -2.7275,19.9026 -15.9424,28.0073 -48.4101,29.6901 -15.9558,0.827 -20.6633,1.9644 -25.7628,6.2249 -6.7231,5.617 -13.0259,6.9688 -21.7372,4.6622 z m 107.5,-12.7841 c -4.0026,-1.7668 -6.1363,-4.315 -7.9737,-9.5229 -1.9452,-5.5133 -1.9323,-8.5258 0.045,-10.5032 2.2716,-2.2715 3.3081,-1.9631 5.2251,1.5546 3.0295,5.5594 6.3435,8.8996 11.0731,11.1605 5.0658,2.4217 6.4386,5.2838 3.548,7.3974 -2.2845,1.6705 -8.0319,1.6288 -11.9176,-0.086 z m -154.5,-20.0035 c -8.0566,-1.8141 -12.3236,-3.9293 -17.4397,-8.6451 -4.4392,-4.092 -5.3973,-6.6043 -3.9534,-10.3671 0.8817,-2.2976 1.8776,-2.0494 11.3391,2.8262 9.698,4.9974 19.1363,8.0391 22.4021,7.2195 1.2155,-0.3051 5.6968,-4.0586 9.9586,-8.3411 8.6327,-8.6746 9.6502,-8.6751 9.6779,0 0.048,14.9222 -12.481,21.7034 -31.9846,17.3119 z m -82.5655,-29.4036 c -3.9662,-2.5056 -8.173,-7.9496 -12.9344,-16.7384 -2.9176,-5.3854 -3.6584,-7.6855 -3.1402,-9.75 1.0524,-4.1932 3.1732,-3.2321 7.088,3.2122 3.981,6.5536 9.3052,11.7348 13.0155,12.666 3.1491,0.7904 11.8668,-1.0914 17.3762,-3.7507 l 4.3397,-2.0947 -6.0897,-6.1443 c -6.3637,-6.4209 -8.0052,-10.2932 -3.8396,-9.0582 1.2375,0.3669 6.075,2.7 10.75,5.1848 16.1641,8.5911 31.4291,21.2427 30.8183,25.5421 -0.6629,4.6661 -8.6106,3.26 -18.8009,-3.3263 l -6.3291,-4.0907 -2.5942,2.1109 c -8.4284,6.8582 -23.6196,10.0529 -29.6596,6.2373 z m 101.3281,-3.647 c -8.2483,-3.1559 -21.0088,-14.6918 -22.4051,-20.255 -0.7813,-3.1127 2.1355,-6.2742 6.0658,-6.5747 3.1553,-0.2412 4.1986,1.0813 5.0408,6.3905 0.3207,2.0212 2.0353,5.2971 3.9041,7.459 3.1709,3.6683 3.6052,3.8486 8.9667,3.723 7.393,-0.1731 15.853,-4.2713 34.1651,-16.5502 21.0371,-14.1062 21.8886,-14.5152 38.9033,-18.6812 8.4982,-2.08079 17.1715,-4.66912 19.274,-5.75184 5.3945,-2.77802 7.1115,-7.0129 7.9212,-19.53725 0.749,-11.58562 0.077,-14.64605 -6.2873,-28.6104 -3.3685,-7.39184 -3.3524,-10.15253 0.052,-8.84621 2.5552,0.98049 11.872,15.78561 13.9361,22.14552 4.4668,13.7629 1.6078,34.21514 -5.9529,42.58392 -4.5321,5.01636 -10.2725,7.25076 -26.7573,10.41496 -15.5627,2.9872 -19.8268,4.7551 -24.7193,10.2487 -8.7156,9.7862 -13.8723,14.0927 -21.8697,18.2639 -7.9721,4.158 -9.0589,4.4512 -17.5,4.7203 -6.0264,0.1921 -10.2348,-0.1855 -12.7374,-1.143 z m -97.2626,-33.241 c -10.9271,-1.4492 -19.3993,-6.4237 -22.149,-13.00465 -1.8086,-4.32847 -1.7075,-12.73447 0.2316,-19.26411 2.5802,-8.68855 14.4068,-19.03363 21.7595,-19.03363 4.4027,0 3.8512,1.66799 -2.3892,7.22679 -6.6808,5.95103 -8.9004,10.42927 -8.8094,17.77321 0.1236,9.96902 2.7322,12.32421 15.6778,14.15496 13.9141,1.96771 26.19,-1.33702 35.9273,-9.6718 l 4.1878,-3.5846 0.6168,2.45758 c 0.3393,1.35167 0.1291,3.36894 -0.4671,4.48283 -1.4735,2.75329 -8.4091,8.26107 -15.1473,12.02902 -10.964,6.131 -18.8052,7.8448 -29.4388,6.4344 z m 263.6826,-1.3324 c -2.1831,-1.331 -4.1841,-3.9158 -5.8525,-7.55996 -3.4889,-7.62089 -4.7643,-7.98164 -20.7755,-5.8764 l -12.9453,1.70213 -1.7482,-2.15888 c -2.198,-2.7145 -5.9092,-12.4174 -6.5827,-17.21078 -0.3988,-2.83814 -0.034,-4.11098 1.668,-5.8125 1.1982,-1.19823 2.7129,-2.00421 3.3661,-1.79106 0.6531,0.21314 2.154,3.17726 3.3353,6.58694 3.2706,9.4402 3.0237,9.29684 14.7432,8.5587 11.3871,-0.7172 20.7562,0.59655 24.604,3.44998 1.3723,1.01766 3.6494,3.82839 5.0603,6.24606 2.9084,4.98398 5.6781,5.95274 8.4048,2.9398 4.0971,-4.52727 6.0469,-0.58659 3.1455,6.35737 -2.7381,6.5531 -9.9001,8.5455 -16.423,4.5686 z m -153.1746,-7.94528 c -3.6569,-0.89675 -5.191,-4.56775 -4.6073,-11.02471 0.4195,-4.64109 1.0222,-5.98262 3.8594,-8.59043 1.8492,-1.69973 6.6333,-4.34037 10.6313,-5.86808 11.3646,-4.34267 16.9144,-10.20608 23.0814,-24.38601 2.7137,-6.23948 6.0929,-12.86399 7.5094,-14.72113 6.5509,-8.58864 14.7381,-11.40324 22.1585,-7.61763 5.0162,2.55906 6.6012,4.44956 6.186,7.37824 -0.4079,2.87783 -2.254,2.82106 -10.5541,-0.32458 -6.2184,-2.3567 -6.2301,-2.35723 -8.1417,-0.36524 -1.1642,1.21313 -2.7424,5.8347 -4.0272,11.79356 -3.9228,18.19338 -8.5974,23.92134 -26.7423,32.76887 -13.8437,6.7502 -15.246,8.2223 -13.3384,14.00241 1.9597,5.93786 -0.1613,8.39022 -6.015,6.95473 z m -79.508,-43.44808 c -16.6499,-3.22691 -23.0764,-7.38893 -43.6176,-28.2482 -14.9657,-15.19731 -23.6258,-27.17923 -27.3523,-37.84366 l -2.2659,-6.48477 3.6292,0 c 3.4791,0 3.8771,0.38272 9.6179,9.24889 6.6711,10.30288 25.8659,30.09808 35.7976,36.9172 14.556,9.99427 29.8154,14.83391 46.7713,14.83391 9.4885,0 11.8041,-0.36824 19.5901,-3.11548 11.745,-4.14415 45.2981,-20.14152 52.8297,-25.18805 15.693,-10.51511 30.5145,-23.01691 33.0857,-27.90759 2.065,-3.92758 4.4166,-16.01039 4.3995,-22.60426 -0.033,-12.50655 -7.0669,-32.96876 -16.1137,-46.8734 -4.4678,-6.86668 -4.8447,-10.60199 -1.1233,-11.13054 1.2366,-0.17563 3.5459,0.60462 5.1318,1.73388 4.5369,3.23057 13.6961,15.87816 17.4482,24.09342 5.2211,11.43181 5.9727,16.01416 5.2079,31.75123 -1.6164,33.26025 -4.1727,36.76742 -44.7809,61.43818 -14.4615,8.78585 -40.5518,21.14301 -54.7552,25.93376 -11.5158,3.88419 -13.4449,4.23925 -24.5,4.50917 -7.2439,0.17686 -14.7745,-0.24473 -19,-1.06369 z m 170.4571,-18.21347 c -4.5171,-4.22525 -6.1579,-7.82908 -4.3758,-9.61116 0.3197,-0.31974 2.1993,0.51667 4.1769,1.85868 1.9775,1.34201 4.7169,2.72145 6.0874,3.06542 3.3828,0.84903 6.1544,-2.63263 6.1544,-7.73112 0,-2.61196 0.7695,-4.72748 2.4151,-6.63922 2.1061,-2.44662 3.0981,-2.79629 7.75,-2.73176 6.8285,0.0947 13.4746,3.43876 22.82,11.48214 5.1394,4.42336 7.0149,6.69335 7.0149,8.49067 0,3.54961 -2.4533,3.11825 -8.4124,-1.47916 -6.1641,-4.75559 -15.0838,-9.04455 -18.8376,-9.05788 -2.657,-0.009 -2.75,0.17038 -2.75,5.31592 0,4.24905 -0.4549,5.73998 -2.25,7.37503 -3.5015,3.18922 -6.2712,4.29928 -10.7271,4.29928 -3.5081,0 -4.8332,-0.67779 -9.0658,-4.63684 z m 65.2654,-0.91986 c -1.2224,-0.85619 -2.2225,-2.35325 -2.2225,-3.32681 0,-1.3823 0.632,-1.67733 2.8851,-1.34665 4.0963,0.6012 6.6064,-1.08811 9.0174,-6.06862 2.7778,-5.73813 2.6587,-8.59492 -0.9548,-22.90829 -3.6069,-14.28673 -3.6066,-18.29293 10e-4,-18.29293 3.3299,0 8.5501,6.98416 10.7006,14.31644 1.4262,4.86261 1.5119,7.09813 0.5938,15.47691 -1.2575,11.47582 -4.0807,18.10196 -9.1414,21.4552 -3.9745,2.63347 -7.766,2.87559 -10.8796,0.69475 z M 498.445,729.23447 c -2.3201,-2.32008 -2.9171,-3.71615 -2.673,-6.25 0.2615,-2.71515 0.7275,-3.26262 2.7768,-3.26262 1.9168,0 2.6677,0.71515 3.3879,3.22638 1.2891,4.49479 4.136,5.13982 7.6837,1.7409 5.3624,-5.13754 8.3158,-0.66336 3.0428,4.60964 -4.1448,4.14475 -10.0358,4.11811 -14.2182,-0.0643 z m 164.1413,-12.63185 c -9.7691,-1.91518 -14.4411,-5.15308 -23.2373,-16.10442 -2.9757,-3.70477 -2.714,-6.60696 0.8037,-8.91182 3.2077,-2.10178 5.8364,-0.47642 8.8511,5.47265 1.3281,2.62096 3.5405,5.27829 4.9163,5.90518 4.6481,2.11778 14.9436,3.40703 28.0869,3.51715 15.0199,0.12583 22.19,-1.44632 29.7465,-6.52236 9.2341,-6.2029 16.5681,-21.66384 19.9782,-42.11634 3.4013,-20.39979 2.0497,-28.81137 -10.1198,-62.97833 -3.8641,-10.8488 -7.0256,-20.3815 -7.0256,-21.18378 0,-3.55608 5.2839,0.15571 9.3301,6.55413 2.2218,3.51338 13.9582,37.62076 16.6845,48.48717 4.1386,16.49517 1.4179,44.02738 -5.7804,58.4956 -5.9591,11.97728 -20.9343,22.95178 -36.9338,27.06654 -7.6438,1.96587 -29.7076,3.41508 -35.3004,2.31863 z m 47.1702,-30.97406 c -2.9454,-2.06303 -2.2765,-3.90671 1.4173,-3.90671 2.751,0 2.8962,-0.20791 2.6192,-3.75 -0.2318,-2.9641 0.059,-3.75 1.3897,-3.75 2.117,0 4.3301,2.84246 4.3718,5.61514 0.041,2.73639 -3.6213,7.38486 -5.8183,7.38486 -0.9377,0 -2.7286,-0.71698 -3.9797,-1.59329 z M 331.0724,620.76675 c -8.1449,-1.48015 -17.1624,-4.93903 -25.2633,-9.69029 -7.7288,-4.53299 -23.5767,-20.54582 -30.042,-30.35461 -6.9814,-10.59167 -20.4443,-37.26378 -23.6909,-46.93517 -5.6975,-16.97254 -3.2497,-36.61948 5.0325,-40.39312 4.2737,-1.94721 4.7947,-1.55048 4.0427,3.07829 -0.3797,2.3375 -1.1205,7.99314 -1.6463,12.56808 -0.9255,8.05418 -0.8462,8.6457 2.4995,18.64427 4.1557,12.41892 10.814,26.01958 18.377,37.53765 4.9419,7.52637 29.4254,36.61405 34.7047,41.23103 5.9203,5.17764 21.2363,9.76897 32.5879,9.76897 5.5043,0 6.555,1.73585 2.6895,4.4433 -2.6573,1.86126 -9.4125,1.89684 -19.2913,0.1016 z m 228.5139,-37.17351 c -5.775,-3.07212 -12.5633,-6.64884 -15.085,-7.94825 -11.2257,-5.78449 -25.3318,-6.86696 -43.5845,-3.34456 -13.1078,2.52956 -15.8487,3.65179 -20.2767,8.30218 -5.4769,5.75197 -11.0746,4.5927 -11.2716,-2.33431 -0.1568,-5.51389 7.7648,-11.40541 18.7178,-13.92094 8.379,-1.9244 30.7056,-3.0497 41.0639,-2.0697 10.3022,0.97468 14.3208,2.39607 25.0222,8.85043 3.7811,2.28048 9.8085,5.02249 13.3943,6.09336 7.9743,2.3815 11.0196,4.4146 11.0196,7.3571 0,6.37446 -5.723,6.07768 -19,-0.98531 z m 31.2225,-1.92809 c -2.8325,-1.98393 -2.7926,-2.61244 0.4077,-6.41574 2.838,-3.37272 8.9109,-6.76363 16.8698,-9.4195 4.4767,-1.49387 5.3663,-2.30998 8.5,-7.7978 3.7385,-6.54699 7.8026,-9.80048 12.25,-9.80652 4.157,-0.006 3.5485,2.26579 -3.8258,14.28162 l -6.5757,10.71464 -4.6743,0.006 c -7.4662,0.009 -12.3126,1.8278 -16.2706,6.1066 -1.978,2.1383 -3.7904,3.88782 -4.0275,3.88782 -0.2371,0 -1.4313,-0.70052 -2.6536,-1.5567 z m 170.5397,-3.51654 c -2.363,-1.37672 -3.8845,-4.44472 -3.1514,-6.35496 0.332,-0.86519 2.6888,-2.49543 5.2372,-3.62275 13.1113,-5.79973 17.7504,-11.39736 20.7937,-25.09005 1.8134,-8.15866 4.1445,-13.45381 7.0991,-16.12578 1.0746,-0.97172 5.9243,-3.36783 10.7772,-5.32467 16.3105,-6.57694 23.7211,-11.02399 39.982,-23.99272 30.1136,-24.01696 46.1922,-39.04167 49.0182,-45.80514 2.6666,-6.38222 2.8498,-13.43285 0.5788,-22.2773 -2.8014,-10.90974 -2.7759,-13.57008 0.1259,-13.15294 2.7739,0.39875 6.0797,6.01124 8.8903,15.09385 2.787,9.00634 2.3798,20.13152 -0.989,27.01896 -2.9019,5.93284 -19.5807,23.51258 -35.7017,37.63018 -21.9496,19.22188 -29.6871,24.34824 -43.1637,28.59727 -11.128,3.50853 -17.1554,6.52965 -21.304,10.67833 -3.0383,3.03825 -4.2741,5.34007 -9.5517,17.7909 -2.7322,6.44595 -12.6539,19.45476 -17.5342,22.99001 -4.2631,3.08823 -8.0179,3.74637 -11.1067,1.94681 z M 509.2332,542.10087 c -5.386,-2.84117 -11.8439,-9.57578 -17.3677,-18.11162 -8.073,-12.47501 -11.0934,-22.01693 -7.8273,-24.72753 2.9313,-2.43274 4.6617,-0.6381 8.0302,8.3283 5.0917,13.55323 8.9984,17.96318 26.9515,30.42328 3.9213,2.72155 4.5329,3.54399 3.532,4.75 -1.7381,2.09421 -8.7546,1.74523 -13.3187,-0.66243 z M 184.3485,473.14044 c -4.3163,-2.49443 -4.173,-4.53274 1.0721,-15.24244 2.741,-5.59688 6.5641,-11.97615 8.4956,-14.17615 2.9631,-3.37494 3.7977,-3.82676 5.341,-2.89138 2.7186,1.64778 3.6903,10.11601 1.7816,15.52595 -1.689,4.78718 -6.5618,12.77402 -9.214,15.1025 -2.4788,2.17631 -5.4599,2.84679 -7.4763,1.68152 z m 81.8927,-35.74733 c -0.9102,-1.00581 -1.6549,-2.53181 -1.6549,-3.39112 0,-4.53903 26.9228,-30.17545 36.5,-34.75595 10.4487,-4.99736 32.7861,-9.77766 56.275,-12.0431 13.2935,-1.28213 18.5485,-0.55961 19.0165,2.61463 0.6865,4.65553 -8.9299,9.14252 -25.2915,11.80098 -5.5,0.89365 -18.1913,2.94746 -28.2029,4.56401 -10.0116,1.61655 -19.6425,3.68366 -21.4021,4.59356 -1.7596,0.90991 -9.3616,7.68243 -16.8934,15.05005 -7.5317,7.36763 -14.3686,13.39568 -15.1929,13.39568 -0.8243,0 -2.2435,-0.82293 -3.1538,-1.82874 z m 678.7952,-3.15956 c -3.9811,-2.55148 -7.2706,-8.53833 -9.5408,-17.36425 -1.6339,-6.35174 -1.6712,-7.36193 -0.3471,-9.38278 2.9643,-4.52408 7.6024,-1.74106 11.2287,6.73768 1.0591,2.47629 4.0144,6.94939 6.5674,9.94023 4.8596,5.69322 5.3063,6.94702 3.6065,10.12316 -1.3812,2.5808 -7.4479,2.55232 -11.5147,-0.054 z m -91.4827,-56.63932 c -22.1214,-13.53396 -51.8237,-26.28834 -66.5524,-28.57817 -13.4236,-2.08692 -32.4535,1.60999 -50.165,9.74549 -3.9875,1.83159 -7.25,3.18409 -7.25,3.00555 0,-0.44817 21.4484,-16.17968 23.7087,-17.38938 3.4507,-1.84677 18.5422,-3.43574 27.1976,-2.86361 15.6621,1.03528 48.3514,9.61799 59.0937,15.51528 20.2174,11.09902 33,20.08659 33,23.20271 0,1.85634 -3.457,4.98975 -5.5051,4.98975 -0.583,0 -6.6704,-3.43243 -13.5275,-7.62762 z M 447.204,516.46092 c 12.4823,-8.39421 15.2183,-10.66949 15.6948,-13.05164 1.2567,-6.28363 2.7552,-40.97781 1.9913,-46.10359 -0.7513,-5.04063 -1.0152,-5.44352 -3.8056,-5.81071 -4.1722,-0.54902 -9.9415,-4.13234 -17.0598,-10.59588 -8.4921,-7.71095 -14.161,-15.42342 -17.3373,-23.58726 l -2.7219,-6.99597 -9.4396,8.7736 c -33.3622,31.0083 -53.6791,45.06808 -71.9125,49.76511 l -6.7514,1.7392 4.7367,7.06404 c 2.6052,3.88522 7.4798,12.46403 10.8325,19.06403 3.3527,6.6 7.4367,14.475 9.0755,17.5 1.6388,3.025 4.3657,8.65806 6.0597,12.51791 l 3.0801,7.01791 7.2199,-0.35144 c 8.2231,-0.40029 24.1235,2.4964 34.0013,6.19429 l 6.2186,2.32797 7.5,-7.65052 c 4.8699,-4.96766 12.8014,-11.21568 22.6177,-17.81705 z m 217.7654,7.36605 c 4.7204,-6.85374 13.5996,-15.33956 21.0128,-20.08173 11.5134,-7.36503 43.8244,-21.52339 49.1188,-21.52339 0.708,0 4.0411,-5.58943 7.407,-12.42096 9.5496,-19.38205 21.022,-30.55524 42.6248,-41.51304 5.4744,-2.77681 9.5572,-5.05264 9.0728,-5.05738 -3.9948,-0.0391 -22.5942,-3.6843 -28.6193,-5.60894 -9.1085,-2.90953 -11.7244,-4.46919 -26.2596,-15.65624 -11.1069,-8.54856 -11.9826,-9.00407 -36.8619,-19.17551 -14.0165,-5.73041 -28.1184,-11.58372 -31.3375,-13.00735 -5.1581,-2.28117 -6.0436,-2.41574 -7.4602,-1.13372 -2.5754,2.33067 -24.6063,10.57314 -28.2605,10.57314 l -3.3326,0 3.3169,25.75 c 2.0264,15.73183 3.3621,30.61319 3.4331,38.25 l 0.1163,12.5 -5.2742,15.5 c -7.4819,21.98827 -10.0037,26.72348 -18.5606,34.85168 -3.96,3.76167 -8.6219,7.46876 -10.3597,8.23797 -3.4045,1.50701 -4.7429,5.7333 -1.4095,4.45126 3.4625,-1.33174 19.3738,-0.55321 28.9647,1.41721 7.0937,1.45738 26.2249,7.41625 28.869,8.99195 0.046,0.0275 1.7558,-2.37776 3.7994,-5.34495 z M 470.1074,292.7354 c 2.4327,-0.98257 3.3579,-2.28855 4.75,-6.7048 0.9509,-3.01649 1.7289,-5.87961 1.7289,-6.36248 0,-1.10514 -10.4622,9.09547 -13.1773,12.84774 l -2.0216,2.794 2.8494,-0.6771 c 1.5672,-0.3724 4.209,-1.22621 5.8706,-1.89736 z"
       id="path3448"
       inkscape:connector-curvature="0" />
  </g>
</svg>
