<?xml version="1.0" encoding="UTF-8" standalone="no"?>
<!-- Created with Inkscape (http://www.inkscape.org/) -->

<svg
   xmlns:dc="http://purl.org/dc/elements/1.1/"
   xmlns:cc="http://creativecommons.org/ns#"
   xmlns:rdf="http://www.w3.org/1999/02/22-rdf-syntax-ns#"
   xmlns:svg="http://www.w3.org/2000/svg"
   xmlns="http://www.w3.org/2000/svg"
   xmlns:xlink="http://www.w3.org/1999/xlink"
   xmlns:sodipodi="http://sodipodi.sourceforge.net/DTD/sodipodi-0.dtd"
   xmlns:inkscape="http://www.inkscape.org/namespaces/inkscape"
   width="237.17407"
   height="328.96448"
   id="svg2"
   version="1.1"
   inkscape:version="0.48.3.1 r9886"
   sodipodi:docname="Gironda-sternum-chins-2.svg"
   inkscape:export-filename="/home/christian/Dokumente/Website/opentraining/cc_exercises/Gironda-sternum-chins-1.png"
   inkscape:export-xdpi="124.0042"
   inkscape:export-ydpi="124.0042">
  <defs
     id="defs4">
    <filter
       inkscape:collect="always"
       id="filter5283"
       color-interpolation-filters="sRGB">
      <feGaussianBlur
         inkscape:collect="always"
         stdDeviation="10.211719"
         id="feGaussianBlur5285" />
    </filter>
    <filter
       inkscape:collect="always"
       id="filter5427"
       x="-0.28619286"
       width="1.5723857"
       y="-0.28619286"
       height="1.5723857"
       color-interpolation-filters="sRGB">
      <feGaussianBlur
         inkscape:collect="always"
         stdDeviation="15.757641"
         id="feGaussianBlur5429" />
    </filter>
    <radialGradient
       gradientUnits="userSpaceOnUse"
       gradientTransform="matrix(1,0,0,0.91819829,-19.285714,-7.9105395)"
       r="209.56604"
       fy="287.50052"
       fx="398.1105"
       cy="287.50052"
       cx="398.1105"
       id="radialGradient5255"
       xlink:href="#linearGradient5249"
       inkscape:collect="always" />
    <linearGradient
       id="linearGradient5249"
       inkscape:collect="always">
      <stop
         id="stop5251"
         offset="0"
         style="stop-color:#e3e3e3;stop-opacity:1;" />
      <stop
         id="stop5253"
         offset="1"
         style="stop-color:#e3e3e3;stop-opacity:0;" />
    </linearGradient>
  </defs>
  <sodipodi:namedview
     id="base"
     pagecolor="#ffffff"
     bordercolor="#666666"
     borderopacity="1.0"
     inkscape:pageopacity="0.0"
     inkscape:pageshadow="2"
     inkscape:zoom="0.98994949"
     inkscape:cx="254.01821"
     inkscape:cy="119.76805"
     inkscape:document-units="px"
     inkscape:current-layer="layer1"
     showgrid="false"
     showguides="true"
     inkscape:guide-bbox="true"
     fit-margin-top="0"
     fit-margin-left="0"
     fit-margin-right="0"
     fit-margin-bottom="0"
     inkscape:window-width="1615"
     inkscape:window-height="1026"
     inkscape:window-x="65"
     inkscape:window-y="24"
     inkscape:window-maximized="1">
    <sodipodi:guide
       orientation="-0.70710678,0.70710678"
       position="-2199.5073,475.14227"
       id="guide2985" />
  </sodipodi:namedview>
  <metadata
     id="metadata7">
    <rdf:RDF>
      <cc:Work
         rdf:about="">
        <dc:format>image/svg+xml</dc:format>
        <dc:type
           rdf:resource="http://purl.org/dc/dcmitype/StillImage" />
        <dc:title />
      </cc:Work>
    </rdf:RDF>
  </metadata>
  <g
     inkscape:label="Ebene 1"
     inkscape:groupmode="layer"
     id="layer1"
     transform="translate(-770.93584,-172.82568)">
    <path
       style="fill:#000000"
       d="m 853.61506,478.04519 c -0.75439,-0.54647 -1.67689,-0.99358 -2.05005,-0.99358 -1.06425,0 -3.12881,-1.18993 -4.14085,-2.38663 -0.50744,-0.59999 -1.29659,-1.90461 -1.75371,-2.89916 -0.88319,-1.92145 -0.9596,-2.91734 -0.75346,-9.8194 0.11535,-3.86177 0.10524,-3.88925 -3.08513,-8.39672 -2.75546,-3.89304 -3.31369,-5.35188 -3.09418,-8.0864 0.19962,-2.48685 1.7183,-5.64143 3.44636,-7.15868 1.18863,-1.04362 3.87165,-1.98969 5.6427,-1.98969 1.09158,0 1.09906,-0.011 1.09906,-1.5858 0,-2.19628 1.13318,-4.33181 2.81515,-5.3053 1.20352,-0.69659 1.62784,-0.75341 4.63669,-0.62102 l 3.31193,0.14572 2.23555,-2.42539 c 1.60747,-1.744 2.23554,-2.67629 2.23554,-3.31837 0,-1.32811 1.30772,-3.75475 2.87628,-5.33728 l 1.38591,-1.39825 -0.7587,-2.41409 c -0.4173,-1.32775 -1.16149,-3.3083 -1.65377,-4.40124 -0.80589,-1.78919 -4.16806,-13.17011 -4.16806,-14.10879 0,-0.21087 -0.53455,-0.97508 -1.1879,-1.69825 -1.13886,-1.2606 -1.18018,-1.39211 -1.00144,-3.18647 0.10255,-1.0294 0.28068,-3.8878 0.3959,-6.35202 0.18719,-4.0033 0.13416,-4.72425 -0.49781,-6.77038 -0.83419,-2.70078 -1.67985,-7.64942 -1.68174,-9.84109 -0.004,-3.80978 1.79692,-9.90363 4.00044,-13.54203 1.45016,-2.39444 1.79953,-3.32233 2.45974,-6.53237 0.42323,-2.05782 0.96822,-3.98196 1.2111,-4.27586 0.59334,-0.71793 0.50825,-6.56518 -0.15384,-10.57454 -0.63624,-3.85305 -4.2241,-13.82924 -5.3482,-14.87102 -2.20097,-2.03983 -3.63007,-7.21267 -3.95867,-14.32908 -0.15854,-3.43335 -0.34682,-4.68686 -0.85309,-5.67921 -1.18627,-2.32532 -1.9955,-5.96303 -1.9955,-8.97037 0,-2.53454 -0.13367,-3.15908 -1.24187,-5.80253 -1.24098,-2.96018 -1.24181,-2.96549 -1.19174,-7.4334 0.0362,-3.2307 0.22486,-5.11427 0.68005,-6.78945 0.61009,-2.2453 0.61246,-2.52702 0.0756,-8.94219 -0.53397,-6.3813 -0.59766,-6.71483 -1.73948,-9.1078 -1.79342,-3.75866 -2.01044,-6.17113 -1.19365,-13.26945 1.08896,-9.46387 0.95771,-12.9806 -0.59867,-16.0411 -1.75194,-3.44503 -0.22382,-3.22805 -16.32518,-2.31793 -8.14613,0.46045 -14.19085,0.67195 -14.36035,0.50244 -0.161,-0.16101 -0.20804,-0.51342 -0.10462,-0.78314 0.23487,-0.61206 1.49183,-0.733 14.30665,-1.37647 5.46468,-0.27439 10.92296,-0.586 12.12949,-0.69248 l 2.19377,-0.19354 -0.30755,-1.36871 c -0.16914,-0.75277 -0.33786,-1.39904 -0.37495,-1.43612 -0.037,-0.037 -6.17668,0.26812 -13.64354,0.67827 -7.46687,0.41015 -13.76973,0.67829 -14.00637,0.5959 -0.82677,-0.2879 -0.233,-1.224 0.93055,-1.46703 0.63562,-0.13274 6.93203,-0.54003 13.99202,-0.90504 l 12.83637,-0.66367 1.99176,-2.03553 c 1.88111,-1.92246 2.06188,-2.02612 3.25433,-1.86618 0.69442,0.0932 1.5425,0.0127 1.88465,-0.17877 0.34215,-0.19147 1.59642,-0.38238 2.78729,-0.42426 1.4433,-0.0508 2.60261,-0.30819 3.4772,-0.77217 0.72159,-0.38282 1.64606,-0.69603 2.05438,-0.69603 1.8725,0 3.42307,1.6406 3.42307,3.62182 0,0.56962 0.18629,1.09841 0.414,1.17508 0.22768,0.0766 10.54444,-0.41284 22.92608,-1.08781 l 22.51212,-1.22723 0.23577,-1.38122 c 0.53179,-3.11507 2.22946,-4.74032 4.95378,-4.74252 1.02178,-6.2e-4 1.80413,0.2155 2.35976,0.65256 0.70858,0.55742 1.15022,0.624 2.99598,0.45164 1.81258,-0.16926 2.34487,-0.094 3.27064,0.46194 0.60808,0.36524 1.61756,0.75992 2.24319,0.87706 1.34857,0.2525 2.34006,1.0628 2.34006,1.9124 0,0.78386 -0.82911,0.79485 18.01048,-0.23884 10.37185,-0.56908 15.63683,-0.74174 15.85839,-0.52006 0.18261,0.18251 0.25111,0.5424 0.15232,0.79974 -0.21451,0.55908 -0.7362,0.60167 -19.69709,1.60816 l -13.99293,0.74278 0,1.42799 0,1.42798 1.68103,0 c 0.92459,0 8.40246,-0.37633 16.6176,-0.83628 9.51908,-0.53296 15.05154,-0.72122 15.25374,-0.51904 0.17447,0.17446 0.2359,0.52905 0.13657,0.78796 -0.22745,0.59276 -1.36805,0.68805 -18.78522,1.56954 -7.55954,0.38258 -14.05126,0.75639 -14.42622,0.83065 -1.11019,0.21997 -2.22157,2.81823 -1.95772,4.57728 0.15992,1.06663 0.0653,1.74675 -0.359,2.56614 -0.71149,1.37603 -0.71234,4.35017 0,9.23934 0.27765,1.91263 0.50756,4.39259 0.51089,5.51102 0.011,2.76805 -1.05646,7.72774 -2.46786,11.49608 -0.64309,1.71694 -1.16918,3.26659 -1.16918,3.44366 0,0.17707 -0.34112,0.82711 -0.75815,1.44454 -0.41691,0.61743 -0.94611,2.16584 -1.17602,3.44094 -0.22992,1.27509 -1.14541,5.07552 -2.03458,8.4454 -0.88915,3.36989 -1.86459,7.45915 -2.16751,9.08726 -0.70238,3.77345 -1.54818,5.64364 -4.10725,9.08102 -1.67931,2.25581 -2.30644,3.48114 -3.38996,6.62385 -1.61834,4.69387 -2.62049,6.85784 -3.95175,8.533 -0.82398,1.03686 -0.97099,1.46133 -0.78735,2.27329 0.1242,0.5491 0.27383,2.40545 0.33252,4.12522 0.0587,1.71975 0.20848,4.34836 0.33285,5.84134 0.13135,1.57675 0.0664,3.91523 -0.1551,5.57922 -0.28178,2.11735 -0.28715,3.91996 -0.0206,6.90956 0.47145,5.28823 0.12182,7.74084 -1.62153,11.37403 -1.26868,2.64403 -3.04987,9.26826 -3.04541,11.32584 0.004,1.52884 0.93867,7.23086 1.29551,7.8976 0.47362,0.88504 1.59896,5.53084 1.87135,7.72584 0.12433,1.00185 0.35522,5.10035 0.51306,9.10779 0.25975,6.59568 0.41422,7.89832 1.62957,13.7445 1.48676,7.15172 1.59207,8.32327 0.80678,8.97498 -0.4591,0.38103 -0.50699,0.97095 -0.33274,4.09767 0.53973,9.68611 0.61833,16.46878 0.2198,18.96779 -0.22537,1.41305 -1.12624,4.73021 -2.00195,7.37147 -0.87574,2.64127 -1.69991,5.69651 -1.83158,6.78945 -0.26679,2.21524 -1.02373,3.94805 -2.19163,5.01716 -0.83649,0.76574 -9.64527,5.28339 -12.36917,6.3436 -2.50863,0.97643 -5.78542,1.62468 -11.15497,2.20675 -2.67429,0.2899 -5.38353,0.70914 -6.02055,0.93163 -1.87447,0.65469 -4.18541,2.47406 -4.69664,3.69757 -0.25873,0.61922 -0.7058,3.60234 -0.99355,6.62913 -0.4744,4.99093 -0.47499,5.66872 -0.006,7.2805 0.64381,2.21463 0.6444,2.86717 0.005,5.32196 -0.58454,2.24433 -1.25113,3.1428 -2.33169,3.1428 -0.69236,0 -0.72852,0.0872 -0.44545,1.07419 0.46873,1.63442 0.36944,3.27774 -0.27205,4.50242 -0.47801,0.91253 -1.06777,1.30277 -3.3788,2.23554 -1.53977,0.62153 -3.19408,1.13004 -3.67616,1.13004 -0.48209,0 -1.49374,-0.4471 -2.2481,-0.99357 z m 3.75616,-0.66239 c 0.11254,-0.18215 0.56398,-0.33119 1.00315,-0.33119 l 0.79845,0 -0.81803,-1.2054 c -0.79556,-1.17235 -1.19023,-4.09369 -0.55302,-4.09369 0.60197,0 1.05981,0.86954 1.05981,2.01285 0,1.33181 0.37068,1.79252 1.71339,2.1295 1.46974,0.36889 2.01578,-1.4675 1.25301,-4.21397 -0.56065,-2.01863 -0.92148,-2.19768 -4.03744,-2.00329 l -2.75148,0.17166 -2.21518,-1.91467 c -2.74933,-2.37633 -3.37982,-3.58789 -3.08697,-5.93175 0.11851,-0.94905 0.0569,-3.00322 -0.13726,-4.56481 -0.32486,-2.61445 -0.56047,-3.22574 -2.97574,-7.7204 -2.82049,-5.24875 -3.07084,-5.60999 -3.89217,-5.61585 -0.29612,-0.002 -0.59906,-0.18465 -0.67321,-0.40562 -0.18448,-0.54974 1.46702,-0.92248 2.02727,-0.45752 0.24772,0.20562 1.45476,2.19699 2.68225,4.42529 1.2275,2.22829 2.34369,4.1725 2.48036,4.32047 0.2972,0.32165 1.67012,-5.43396 1.66684,-6.98768 -0.004,-1.24589 -1.28725,-6.71396 -1.67994,-7.15071 -0.14869,-0.16536 -1.22323,-0.10889 -2.49504,0.13105 -1.90598,0.35962 -2.43473,0.62231 -3.60186,1.78946 -2.88293,2.88291 -3.58687,6.32107 -1.99461,9.74145 1.23917,2.66181 4.17607,6.5129 4.96687,6.5129 0.64403,0 0.65927,0.18356 0.55067,6.62385 -0.10231,6.06999 -0.0538,6.77798 0.58054,8.46717 0.79961,2.1292 1.98832,3.37412 3.76346,3.94145 0.68838,0.22 2.00741,0.90864 2.93121,1.53033 1.66292,1.11904 3.03906,1.43922 3.43467,0.79912 z m -2.4599,-1.86623 c -0.37757,-0.47994 -0.68643,-1.15061 -0.68643,-1.49036 0,-0.49662 -0.25175,-0.61771 -1.28423,-0.61771 -0.73746,0 -1.45974,0.21149 -1.69651,0.49677 -0.51251,0.61756 -1.32476,0.64903 -1.32476,0.0514 0,-0.77168 1.16725,-1.54153 2.3444,-1.54623 1.70158,-0.006 2.57927,-0.32798 2.80044,-1.0248 0.10938,-0.34465 0.41237,-0.62663 0.67335,-0.62663 0.62486,0 0.6096,1.1315 -0.0222,1.65595 -0.77477,0.643 -0.58866,1.6356 0.49678,2.64955 1.20325,1.124 1.23197,1.32476 0.1896,1.32476 -0.47403,0 -1.08562,-0.35808 -1.49035,-0.87265 z m 4.03306,-7.3069 c 0.13662,-0.0766 0.2484,-0.69689 0.2484,-1.37834 0,-1.18237 0.45589,-2.03385 1.08892,-2.03385 0.16173,0 0.19981,0.5589 0.0845,1.24198 -0.38187,2.26396 1.5836,3.46268 3.28205,2.0017 1.28271,-1.10331 1.58631,-3.08836 0.94724,-6.19347 -0.45889,-2.22976 -0.45383,-2.85884 0.0554,-6.91249 0.62453,-4.97155 0.69878,-10.2516 0.18213,-12.95242 -0.45003,-2.35248 -0.43225,-2.68713 0.14274,-2.68713 0.28445,0 0.63112,0.54626 0.84076,1.32477 0.1962,0.72862 0.4697,1.32477 0.6078,1.32477 0.37866,0 2.93043,-5.25402 3.37525,-6.9495 1.26848,-4.8347 6.05403,-9.31931 12.00276,-11.24793 2.93618,-0.95194 3.11974,-4.13033 0.66083,-11.44431 -1.13566,-3.37809 -1.73443,-5.76278 -1.871,-7.45183 -0.11048,-1.36616 -0.37757,-3.87283 -0.59348,-5.57035 -0.36798,-2.89313 -0.43545,-3.0727 -1.07749,-2.8676 -3.25934,1.04122 -4.36253,1.22691 -7.47439,1.25803 -2.73671,0.0274 -3.8832,-0.11035 -5.38189,-0.64675 -2.33732,-0.83649 -2.2925,-1.12473 -0.7864,5.05852 0.74941,3.07678 1.60005,5.57227 2.58051,7.57044 0.80443,1.63941 1.71973,3.6234 2.03396,4.40886 0.42816,1.07024 0.71518,1.38768 1.14536,1.26671 2.23392,-0.62822 2.97414,-0.59427 7.11511,0.32625 0.8153,0.18124 0.91078,0.11047 0.91078,-0.67476 0,-0.48248 -0.22696,-1.42045 -0.50441,-2.08441 -0.65529,-1.56835 -0.14844,-2.22113 0.90595,-1.16675 0.56048,0.56046 0.75714,1.22432 0.86511,2.92032 0.13264,2.08289 0.19684,2.22862 1.25809,2.85478 1.08959,0.64287 1.4264,1.35855 0.81663,1.73539 -0.16593,0.10255 -1.51826,-0.44594 -3.00515,-1.21889 -2.30187,-1.19663 -2.98264,-1.40057 -4.58338,-1.37307 -2.15012,0.0369 -3.80222,0.65366 -6.23244,2.32663 -1.77698,1.22329 -2.53147,2.34832 -3.08936,4.60677 -0.1922,0.77806 -1.10363,2.30979 -2.16783,3.64313 -1.336,1.67393 -1.69815,2.32976 -1.3295,2.40768 0.72697,0.15365 0.625,0.9699 -0.15198,1.21651 -0.36222,0.11497 -1.92781,-0.0547 -3.47905,-0.37716 -2.4127,-0.50148 -3.04757,-0.5255 -4.39204,-0.16616 -3.58118,0.95714 -4.29544,3.08342 -3.00242,8.93797 0.29792,1.34911 0.57342,1.83905 1.1592,2.06176 1.08942,0.41421 1.01427,1.91907 -0.37925,7.59428 -1.08786,4.43054 -1.12997,4.81487 -0.80911,7.38777 0.18613,1.49275 0.47536,3.31025 0.64272,4.03886 0.40216,1.75122 0.39674,1.82157 -0.14093,1.82157 -1.23579,0 -0.54487,2.48682 0.97792,3.52 0.50252,0.34095 1.37428,1.0902 1.93731,1.66499 0.56298,0.5748 1.39624,1.10958 1.85162,1.18841 0.79878,0.13826 2.21913,-0.0238 2.73234,-0.31168 z m -1.19613,-3.90898 c -0.13496,-0.35167 -0.68375,-0.49678 -1.8788,-0.49678 -1.99397,0 -2.96934,-0.439 -2.96934,-1.33644 0,-0.77786 0.007,-0.77904 1.176,-0.17315 0.5063,0.26268 1.32481,0.39672 1.81896,0.29789 1.2052,-0.24106 3.29771,0.96314 3.29771,1.89774 0,0.5084 -1.23913,0.34606 -1.44453,-0.18926 z m 2.80732,-17.96718 c -0.1753,-0.6831 -0.63814,-2.94736 -1.02855,-5.03168 -0.83444,-4.45482 -1.23584,-5.51818 -2.80679,-7.4353 -1.19393,-1.45703 -1.46169,-2.18831 -0.80125,-2.18831 0.56679,0 2.54219,2.2967 3.26392,3.79477 0.54257,1.12616 2.64749,10.38763 2.65653,11.68849 0.006,0.96943 -0.98711,0.32848 -1.28386,-0.82797 z m -0.70041,-12.6168 c 0,-0.80147 1.02422,-1.7073 1.93042,-1.7073 0.89429,0 0.9432,0.54663 0.0737,0.82261 -0.35497,0.11266 -0.73762,0.49531 -0.85031,0.8503 -0.26011,0.81962 -1.15378,0.84626 -1.15378,0.0345 z m 8.55988,10.26161 c 1.33686,-0.93737 2.71545,-1.28754 8.66214,-2.20018 8.96717,-1.37622 12.22747,-2.42318 16.85046,-5.41117 1.08369,-0.70041 2.85199,-1.52087 3.92956,-1.82322 2.63382,-0.73901 3.35838,-1.5775 3.74942,-4.33881 0.17276,-1.21979 1.04489,-4.62884 1.93806,-7.5757 1.92058,-6.33657 2.46213,-9.59008 2.49072,-14.96249 0.0228,-4.27676 -0.46966,-13.41329 -0.7229,-13.41329 -0.0848,0 -0.69732,0.42727 -1.36105,0.94951 -3.2772,2.5784 -7.82656,3.81118 -14.12335,3.82713 -3.53218,0.009 -4.64509,-0.11157 -6.19595,-0.67081 -1.57362,-0.56746 -1.92056,-0.60332 -2.06996,-0.21393 -0.60217,1.56925 0.30811,6.35328 2.65772,13.96753 1.84126,5.96694 2.18687,8.44873 1.5067,10.82029 l -0.29275,1.02076 2.63417,0.42778 c 1.95861,0.31806 2.73023,0.33176 3.00856,0.0535 0.58204,-0.58204 1.23545,-0.44151 1.23545,0.26572 0,0.93575 -1.00265,1.11694 -4.76424,0.86087 -3.79057,-0.25802 -5.62044,0.0647 -8.48346,1.49598 -3.95742,1.97842 -6.82671,5.04481 -7.97026,8.51768 -0.40385,1.22643 -1.31933,3.40144 -2.03445,4.83335 -1.49169,2.98697 -1.98228,4.18599 -1.71276,4.18599 0.1039,0 0.58466,-0.27739 1.06817,-0.61641 z m 23.897,-20.8025 c 0,-0.30458 0.24015,-1.83221 0.53368,-3.39472 0.48792,-2.59703 0.4968,-4.08036 0.0498,-8.2953 -0.0577,-0.54375 0.098,-0.85516 0.4649,-0.92966 1.01117,-0.20536 1.43257,2.92186 0.98659,7.32102 -0.21067,2.07784 -0.54574,4.24467 -0.74463,4.81517 -0.38007,1.09033 -1.29034,1.4314 -1.29034,0.48349 z m 2.77221,-25.99105 c 4.15475,-0.69533 6.76544,-2.08222 11.36538,-6.03782 0.11169,-0.096 -1.52783,-9.26367 -2.05058,-11.46597 -0.29201,-1.23027 -0.65829,-5.275 -0.85471,-9.43899 -0.29006,-6.14877 -0.50515,-7.99829 -1.37769,-11.84748 -0.5687,-2.50867 -1.11841,-4.51397 -1.22161,-4.45623 -2.7816,1.55682 -4.99197,2.34031 -7.00987,2.4847 -1.82599,0.13064 -2.28551,0.0693 -2.28551,-0.30472 0,-0.31376 1.12155,-0.76986 3.39912,-1.38233 2.03661,-0.54767 3.82883,-1.25036 4.47111,-1.753 0.95784,-0.74964 1.07196,-1.01815 1.07196,-2.52224 0,-1.57592 -0.0369,-1.65087 -0.57958,-1.17509 -1.01949,0.89387 -2.59317,1.54649 -5.93259,2.46028 -2.94165,0.80495 -3.78867,0.88999 -8.72269,0.87568 -3.75098,-0.011 -6.25258,-0.18527 -7.97713,-0.5561 -2.8785,-0.61893 -8.1547,-2.78048 -9.74177,-3.99099 l -1.07624,-0.82091 -0.19017,1.55844 c -0.41266,3.38193 2.25645,5.22893 9.98371,6.90865 2.61118,0.5676 4.81722,0.83286 6.7889,0.81628 2.59685,-0.0218 2.90841,0.0389 2.80919,0.54759 -0.16998,0.87138 -8.75013,0.83095 -12.02263,-0.0566 -2.65593,-0.72033 -6.22092,-2.4131 -7.69593,-3.65424 l -1.00837,-0.84851 -1.92605,3.18344 c -2.20657,3.64706 -2.92437,6.01487 -3.50134,11.55014 -0.35894,3.4435 -0.33746,3.82282 0.34799,6.14186 0.40179,1.35943 1.41186,3.84707 2.24459,5.52808 1.35914,2.74363 1.63768,4.06426 0.85716,4.06426 -0.1486,0 -0.56314,-0.48438 -0.92118,-1.07637 l -0.651,-1.07638 -0.24517,5.62796 -0.2452,5.62798 1.09918,1.09918 c 1.56759,1.56758 4.98801,2.74424 8.61518,2.96367 2.46986,0.14943 3.31705,0.0563 5.38188,-0.59119 l 2.45055,-0.76854 0,-4.894 c 0,-3.0266 -0.14761,-5.21794 -0.38684,-5.74301 -0.21278,-0.46696 -1.29326,-1.42366 -2.40114,-2.12597 -2.60006,-1.64825 -3.18968,-2.33724 -3.41075,-3.98552 -0.25582,-1.90724 0.52013,-1.79427 2.66689,0.38829 0.94066,0.95633 2.45547,2.26263 3.36625,2.90293 l 1.65597,1.16416 0.16558,6.00563 c 0.18832,6.82984 0.18716,6.82672 3.01319,8.04246 2.96275,1.27455 6.64601,1.47335 11.68196,0.63058 z m 6.61154,-5.33247 c -0.14295,-0.22768 -0.28573,-2.50049 -0.31729,-5.05068 -0.0599,-4.8417 -0.31539,-6.17219 -1.90772,-9.93578 -0.46242,-1.09293 -1.09458,-3.05631 -1.40484,-4.36309 -0.54179,-2.28222 -0.53974,-2.41284 0.0525,-3.31192 0.80009,-1.21473 0.67366,-2.53633 -0.57194,-5.97872 -0.93797,-2.59223 -1.03008,-3.73388 -0.30129,-3.73388 0.52349,0 2.00819,3.3719 2.46001,5.58681 0.4174,2.04631 0.42773,2.06021 0.88947,1.19745 0.99005,-1.84991 0.30175,-4.58705 -1.77631,-7.06398 -0.71581,-0.85321 -1.2072,-1.79229 -1.2072,-2.30704 0,-0.82396 0.0939,-0.77603 1.84484,0.94211 2.13818,2.09808 2.76032,3.36197 3.01038,6.11575 0.16202,1.78409 0.0873,2.12254 -0.73055,3.31193 -2.38763,3.47199 -2.37538,5.74537 0.0615,11.42615 0.86783,2.02296 0.93119,2.49719 1.05091,7.86583 0.11108,4.97848 0.0619,5.71305 -0.38255,5.71305 -0.28052,0 -0.62698,-0.18628 -0.76996,-0.41399 z m -8.20774,-41.79954 c 5.89905,-1.48586 5.94732,-1.53096 6.22856,-5.82261 0.2112,-3.22263 1.63544,-8.71121 2.70018,-10.40578 0.23363,-0.37177 0.84539,-1.86825 1.35955,-3.32549 0.96169,-2.72567 1.23701,-6.34009 0.69378,-9.1078 l -0.22753,-1.15917 -2.93512,2.81514 -2.93518,2.81514 -0.23964,4.13737 c -0.20563,3.5503 -0.40061,4.56719 -1.37415,7.16646 -0.62401,1.666 -1.13454,3.42926 -1.13454,3.91833 0,0.66793 -0.14426,0.86191 -0.57958,0.77944 -0.94966,-0.1799 -0.87217,-1.88417 0.19318,-4.248 1.17997,-2.6181 1.71117,-5.00264 1.71117,-7.68134 0,-1.93806 -0.0252,-1.99938 -0.60568,-1.47406 -0.84385,0.76369 -1.05027,0.68961 -1.05027,-0.37687 0,-0.70951 0.85504,-1.88295 3.67047,-5.03725 2.01879,-2.26174 3.89221,-4.54102 4.16319,-5.06504 1.16245,-2.24794 1.9796,-9.41063 1.03779,-9.0967 -0.22103,0.0737 -1.13476,1.0921 -2.0305,2.26315 -0.89572,1.17106 -1.83263,2.17736 -2.08202,2.23626 -0.63576,0.15013 -0.56521,-0.92971 0.12787,-1.95782 0.31782,-0.47143 1.20021,-1.78148 1.96083,-2.91123 1.77237,-2.6324 2.56695,-6.17724 1.81292,-8.08781 -0.21469,-0.54393 -0.30393,-0.52236 -1.02802,0.24839 -0.43612,0.46423 -0.91299,0.84405 -1.05969,0.84405 -0.14672,0 -0.59832,-0.6334 -1.00358,-1.40756 -0.56988,-1.08858 -0.73756,-1.9705 -0.73985,-3.89151 -0.004,-2.54615 0.72926,-9.97458 1.01107,-10.25639 0.38162,-0.38164 0.79035,0.92236 0.61956,1.97657 -0.46063,2.84302 -0.56304,8.17363 -0.18371,9.5635 l 0.39551,1.44928 1.17832,-1.11808 c 2.96258,-2.81114 4.89671,-6.40338 5.55099,-10.30991 0.23392,-1.39675 1.93495,-4.75485 3.80754,-7.5167 1.95318,-2.88073 2.87049,-4.93568 3.48157,-7.79974 0.31095,-1.45724 0.98497,-3.99088 1.49778,-5.63028 2.61247,-8.35129 2.98582,-9.68665 2.98432,-10.67056 0,-0.81109 -0.12058,-1.02039 -0.49848,-0.87535 -0.36735,0.14093 -0.49687,-0.0464 -0.49687,-0.71854 0,-0.60037 0.44999,-1.39732 1.32481,-2.34639 1.34579,-1.46001 1.4252,-1.72981 1.32963,-4.51553 -0.0418,-1.23337 0.0588,-1.57316 0.46732,-1.57316 0.28676,0 0.52373,0.26081 0.52652,0.57958 0.011,1.02163 0.58261,-0.17899 1.62687,-3.40427 1.45924,-4.50724 1.53652,-6.12831 0.67091,-14.06421 -0.71909,-6.59289 -0.73043,-7.03912 -0.20712,-8.13662 0.30452,-0.63865 0.55381,-1.72657 0.55381,-2.41761 0,-0.69103 0.36436,-2.1532 0.80963,-3.24923 0.9763,-2.40259 1.26883,-4.61974 0.93188,-7.0636 l -0.25122,-1.82156 -1.34193,-0.17915 c -0.73814,-0.0985 -1.83174,-0.52789 -2.4304,-0.95411 -0.93198,-0.66368 -1.3506,-0.74786 -2.91549,-0.58636 -1.77041,0.18272 -2.36735,0.39228 -2.04261,0.71706 0.0867,0.0862 0.72454,-1.8e-4 1.41858,-0.19181 1.46149,-0.40354 2.62274,-0.18441 3.75905,0.7094 0.44271,0.34824 1.31143,0.72819 1.93043,0.84432 0.63826,0.11973 1.12561,0.41029 1.12561,0.67109 0,0.75386 -1.95355,0.54258 -3.53096,-0.38188 -1.31025,-0.76785 -1.64839,-0.82261 -3.84769,-0.62332 -1.99882,0.18113 -2.48723,0.12686 -2.85587,-0.31736 -0.24458,-0.29472 -0.79915,-0.53586 -1.23222,-0.53586 -0.48627,0 -0.78737,-0.19395 -0.78737,-0.50718 0,-0.72061 0.89226,-0.97006 1.87242,-0.52349 0.65988,0.30068 0.80717,0.29239 0.69702,-0.0393 -0.0771,-0.23124 -0.51742,-0.554 -0.97917,-0.71722 -1.24369,-0.43968 -3.22283,0.64323 -4.17414,2.28393 -0.70221,1.211 -0.75334,1.60319 -0.5956,4.56674 0.18161,3.41175 -0.14344,5.066 -0.93574,4.76197 -0.37286,-0.14307 -0.40439,0.0275 -0.16219,0.87711 0.35122,1.2321 1.11098,1.88271 2.19856,1.88271 2.0219,0 4.39717,1.9026 4.39717,3.52219 0,0.79322 -0.63676,1.13264 -0.69285,0.36933 -0.0161,-0.2277 -0.36393,1.22542 -0.77153,3.22912 -0.6204,3.04941 -1.0707,4.26381 -2.76339,7.45183 -2.37074,4.4651 -2.99064,7.02897 -3.13219,12.95505 l -0.0918,3.84725 0.74656,-0.34072 c 0.41061,-0.18741 0.84067,-0.24665 0.95567,-0.13167 0.34444,0.34444 -0.79285,1.81558 -3.47373,4.49338 -1.51937,1.51765 -3.18799,3.63381 -4.16722,5.28495 -1.38373,2.33311 -1.79265,3.44577 -2.6768,7.28355 -0.57399,2.49138 -1.15056,4.85695 -1.28129,5.25682 -0.22137,0.67703 -0.15682,0.71393 0.93804,0.53626 1.02216,-0.16587 1.17574,-0.10329 1.17574,0.47895 0,0.47281 -0.39154,0.82643 -1.3315,1.20253 -0.7323,0.293 -1.58927,0.53471 -1.90437,0.53711 -0.95982,0.007 -5.15597,2.50998 -6.6668,3.97619 -1.67103,1.62168 -3.06238,4.45458 -3.27509,6.6684 -0.1447,1.50611 -0.11108,1.58181 0.80025,1.80127 2.58606,0.62272 5.09126,2.42874 5.09126,3.67034 0,1.0543 -0.24262,0.9764 -1.62604,-0.5221 -0.96233,-1.04239 -1.51302,-1.34066 -2.84707,-1.542 -1.89456,-0.28592 -5.65856,0.25776 -7.16008,1.03424 -1.23033,0.63621 -3.43606,0.51877 -3.43606,-0.18295 0,-0.33066 0.49012,-0.56481 1.49037,-0.71195 0.81969,-0.12058 2.45911,-0.58431 3.64312,-1.03049 l 2.15273,-0.81123 0.20972,-1.62315 c 0.264,-2.04299 1.31719,-4.80547 2.46182,-6.45719 0.82997,-1.19765 4.87858,-4.60495 5.47167,-4.60495 0.39574,0 -0.48623,-2.32637 -1.92215,-5.07019 -2.53371,-4.84152 -7.60829,-8.68314 -11.99542,-9.08095 -6.02171,-0.54602 -13.45425,5.17098 -14.12329,10.86344 -0.45571,3.87752 1.55261,8.49657 4.45147,10.23814 1.52431,0.91577 1.63175,1.34957 0.92008,3.71428 -0.40859,1.35766 -0.39389,1.57011 0.15825,2.28819 0.33473,0.43538 0.61193,0.97789 0.61598,1.20558 0.0149,0.8354 -0.85622,0.3733 -2.34124,-1.24197 -1.36734,-1.48733 -1.66539,-1.65596 -2.92642,-1.65596 -0.97734,0 -1.36132,-0.12581 -1.26352,-0.414 0.15239,-0.44907 2.56262,-0.51545 3.76242,-0.10366 0.58647,0.2013 0.731,0.0871 0.88209,-0.6972 0.15649,-0.81221 -0.0761,-1.18346 -1.73528,-2.76952 -2.73068,-2.61034 -3.73785,-4.7367 -3.91703,-8.26981 -0.17124,-3.3773 0.2237,-5.01743 1.75683,-7.29565 1.72911,-2.56947 1.49858,-4.25659 -1.15604,-8.45988 -0.77859,-1.23284 -1.82642,-3.11012 -2.32847,-4.17173 -0.77152,-1.63134 -0.97662,-1.85336 -1.32464,-1.43404 -0.42221,0.50875 -1.65656,0.69364 -1.65405,0.24778 0,-0.13661 0.37475,-0.98437 0.83109,-1.88389 0.68932,-1.35867 0.79322,-1.91087 0.61394,-3.26249 -0.19315,-1.45599 -0.15248,-1.61478 0.38703,-1.51082 0.71879,0.13848 1.21574,1.70343 0.98341,3.09687 -0.13238,0.79411 -0.10402,0.8606 0.14142,0.3312 0.62586,-1.35001 0.30344,-3.06313 -1.76986,-9.4034 -2.2123,-6.7654 -3.17557,-10.68236 -3.17557,-12.91273 0,-1.84242 1.2525,-3.20512 4.16654,-4.53309 2.44022,-1.11206 2.7885,-1.50556 2.7885,-3.15081 0,-0.75126 -0.15009,-0.96648 -0.67404,-0.96648 -0.58065,0 -0.62281,0.0957 -0.30437,0.69076 0.45288,0.84621 0.14934,1.22656 -0.61065,0.76507 -1.15799,-0.70316 -1.82273,-2.76065 -1.98574,-6.14634 -0.13761,-2.85783 -0.0905,-3.25811 0.38419,-3.25811 0.68716,0 0.69825,-0.78909 0.0206,-1.4667 -1.08342,-1.08343 -2.95225,-0.57587 -3.60158,0.97817 -0.24981,0.59789 -0.76049,1.1843 -1.13483,1.30311 -0.55051,0.17472 -0.64337,0.40246 -0.48563,1.19109 0.15044,0.75218 0.0747,0.97507 -0.33153,0.97507 -0.66135,0 -1.27625,-1.1038 -1.00647,-1.80678 0.11181,-0.29149 0.48389,-0.68012 0.82677,-0.86361 0.34289,-0.18352 0.62345,-0.47745 0.62345,-0.6532 0,-0.51719 -1.20538,-0.36567 -1.68461,0.21177 -0.24251,0.2922 -0.78239,0.6611 -1.19972,0.81977 -0.568,0.21594 -0.75879,0.54931 -0.75879,1.32571 0,0.80973 -0.11486,0.99311 -0.52389,0.83618 -0.28814,-0.11059 -0.58621,-0.20104 -0.66237,-0.20104 -0.38522,0 -0.0664,-1.84919 0.4096,-2.37508 0.90986,-1.00539 -0.0278,-0.68142 -1.57789,0.54507 -0.7998,0.6329 -1.45418,1.33879 -1.45418,1.56864 0,0.22984 -0.26081,0.46812 -0.57958,0.52952 -0.93823,0.18068 -0.71229,-1.29222 0.3312,-2.15897 0.68516,-0.56914 0.74409,-0.69526 0.23779,-0.50923 -1.26433,0.46461 -2.12875,1.29348 -2.65004,2.54108 -0.78284,1.8736 0.01,5.30995 2.02535,8.77847 1.90419,3.2772 2.00824,4.37354 1.30351,13.73185 -0.71859,9.54205 -0.67531,11.31872 0.34159,14.02068 0.46432,1.2337 1.13498,2.73598 1.49036,3.33842 0.4901,0.83077 0.64596,1.7106 0.64529,3.64311 -3.3e-4,1.40129 0.23932,4.34273 0.53283,6.53651 l 0.53365,3.98871 -0.8414,2.66348 c -1.22442,3.87595 -1.39478,6.09281 -0.72183,9.39222 0.7908,3.87718 2.46977,7.17115 2.49203,4.88913 0.011,-1.1049 1.06257,-3.20784 2.4023,-4.80327 0.65056,-0.7747 1.35484,-1.92974 1.56509,-2.56674 0.26048,-0.78927 0.58506,-1.1582 1.01891,-1.1582 0.96878,0 0.78717,0.63857 -1.04449,3.67305 -1.15885,1.91982 -1.94741,3.7628 -2.53792,5.93154 -1.56567,5.75023 -1.50938,8.31148 0.28191,12.81826 0.83351,2.09709 1.04928,3.17327 1.14861,5.72852 0.36901,9.49488 0.44244,9.72263 4.33991,13.46728 1.93394,1.85813 2.77467,2.8938 2.68852,3.31194 -0.0694,0.33656 -0.38361,0.58702 -0.70341,0.56053 -0.39052,-0.0323 -0.5264,0.12891 -0.41876,0.49679 0.0877,0.29956 0.40379,1.51339 0.70252,2.69741 0.29871,1.184 1.089,3.49408 1.75618,5.13348 l 1.21309,2.98074 0,7.00275 c 0,7.99773 -0.14296,7.56179 3.12934,9.54265 3.18458,1.92776 8.65662,3.07109 14.97326,3.12847 2.99696,0.0272 4.21703,-0.14094 8.07844,-1.11355 z m -7.17104,-6.72016 c -0.0185,-0.13663 -0.006,-0.73311 0.0255,-1.32553 0.0842,-1.53632 -0.53613,-3.1847 -2.23318,-5.93459 -1.36928,-2.21878 -1.46395,-2.51457 -1.25368,-3.91666 0.12509,-0.83416 0.52626,-2.36792 0.89151,-3.40835 0.36523,-1.04044 0.69059,-2.48597 0.72298,-3.21228 0.043,-0.96526 0.21485,-1.35051 0.63851,-1.43186 0.85322,-0.16381 0.76131,1.83588 -0.24147,5.25339 -0.45155,1.53897 -0.82096,3.17072 -0.82086,3.6261 7e-5,0.4554 0.65946,1.84576 1.46537,3.0897 1.54228,2.38066 2.3591,5.12413 1.97791,6.64304 -0.19418,0.77361 -1.08788,1.2439 -1.17256,0.61704 z m -9.75463,-1.83188 c -0.1011,-0.26366 -0.0384,-2.47434 0.13973,-4.91263 0.19626,-2.68792 0.20665,-5.14709 0.0266,-6.24643 -0.33984,-2.07254 0.0655,-2.93643 0.86778,-1.84943 0.81629,1.10602 0.42558,13.06759 -0.43611,13.35153 -0.2276,0.075 -0.49663,-0.0793 -0.59781,-0.34304 z m -5.11548,-2.31866 c 0,-1.14431 0.22744,-2.89549 0.5054,-3.89151 0.92928,-3.32966 0.94681,-4.14064 0.14944,-6.90015 -0.69746,-2.41377 -0.72734,-3.69786 -0.0856,-3.68032 0.39296,0.011 1.78993,4.25809 1.97609,6.00815 0.12022,1.12964 -0.066,2.21141 -0.6937,4.02995 -0.55668,1.6128 -0.858,3.19323 -0.858,4.50013 0,1.56973 -0.10962,2.01432 -0.49679,2.01432 -0.38888,0 -0.49679,-0.45196 -0.49679,-2.08057 z m 5.1956,-12.70579 c -0.12524,-0.12522 -0.2277,-0.66306 -0.2277,-1.19518 0,-0.53211 -0.68961,-2.70557 -1.53244,-4.82989 l -1.53242,-3.86242 0.25939,-3.8087 c 0.35685,-5.23963 0.29771,-6.23963 -0.48683,-8.22996 -0.85468,-2.16833 -0.8605,-3.72703 -0.0239,-6.39581 0.36196,-1.15471 0.66004,-2.93563 0.66238,-3.95759 0.004,-1.41825 0.19534,-2.1397 0.81129,-3.04737 0.44386,-0.65408 0.85371,-1.74388 0.91079,-2.42177 0.13098,-1.55601 0.77634,-1.81245 1.05497,-0.4192 0.15246,0.76222 -0.0196,1.56014 -0.6184,2.86809 -0.46387,1.01323 -0.82771,2.41497 -0.82536,3.17965 0.004,0.75214 -0.25022,2.45547 -0.56121,3.78518 -0.5048,2.15815 -0.5158,2.65581 -0.10231,4.63669 0.27098,1.29838 0.47947,4.41763 0.50247,7.51814 0.0408,5.48833 0.14004,6.09514 1.85399,11.33098 0.54935,1.67814 0.95112,3.45509 0.89284,3.94876 -0.10585,0.89617 -0.60689,1.33101 -1.03749,0.9004 z m 12.42596,-8.5467 c -1.9994,-0.48405 -3.38027,-1.59656 -3.38027,-2.72328 0,-1.07095 0.73736,-0.96222 1.43036,0.21091 0.68377,1.15758 2.17947,1.66384 4.92354,1.66653 2.66944,0.002 3.38462,-0.35211 3.85149,-1.91038 0.53075,-1.77148 0.22333,-3.14624 -1.27575,-5.70521 -0.86646,-1.4791 -1.28668,-2.61911 -1.34285,-3.64311 -0.14401,-2.62421 -0.004,-3.64312 0.50872,-3.64312 0.3645,0 0.4716,0.45382 0.45098,1.91055 -0.0272,1.91368 0.59452,3.62732 2.08251,5.74058 1.47801,2.09908 1.46145,6.77314 -0.0281,7.97944 -0.89196,0.72227 -4.48033,0.78046 -7.22043,0.11705 z m -20.47955,-3.24514 c -1.44857,-1.55799 -2.92599,-3.5565 -3.59424,-4.86195 -0.49403,-0.96512 -0.52731,-1.38862 -0.22116,-2.81514 0.19819,-0.9235 0.38759,-2.72337 0.42087,-3.99971 l 0.0605,-2.3206 -2.12031,-2.05068 -2.12031,-2.05067 0.0726,-1.97303 c 0.0592,-1.60847 -0.0733,-2.188 -0.71693,-3.13642 -1.07313,-1.58136 -0.49805,-2.21374 0.77274,-0.84971 0.56935,0.61113 0.8722,1.55821 1.56194,4.8848 0.089,0.4297 0.91494,1.57743 1.83527,2.55053 l 1.67332,1.76929 0.10328,4.14103 c 0.15014,6.02048 0.50769,7.22043 2.88671,9.68778 0.73005,0.75718 1.22672,1.53962 1.10361,1.73877 -0.34909,0.56484 -0.64175,0.44314 -1.71789,-0.71429 z m 13.25384,-0.39026 c -0.33849,-0.88208 0.19411,-2.26472 1.55104,-4.02635 1.33152,-1.72873 1.9632,-3.81214 1.9632,-6.47515 0,-0.91661 -0.14092,-1.27957 -0.49678,-1.27957 -0.27323,0 -0.49679,-0.21274 -0.49679,-0.47275 0,-0.69794 1.54972,-1.7935 3.10675,-2.19629 4.23698,-1.09603 5.34339,-1.49136 6.20632,-2.21748 0.57826,-0.48658 0.9539,-1.12565 0.9539,-1.62295 0,-0.95883 0.5466,-2.10154 1.00523,-2.10154 0.48295,0 0.38279,2.22968 -0.14578,3.24557 -0.81971,1.57548 -1.9541,2.30373 -4.75504,3.05262 -3.50343,0.93669 -4.06085,1.61572 -4.38883,5.34599 -0.1972,2.24267 -0.39737,2.86407 -1.39984,4.34575 -1.61624,2.38873 -1.96077,3.13066 -1.8433,3.96927 0.12132,0.86591 -0.95238,1.23475 -1.26008,0.43288 z m -3.10961,-32.70677 c -0.90598,-0.50599 -1.57923,-0.61276 -3.08211,-0.48875 -1.66256,0.1372 -1.90873,0.0843 -1.81812,-0.39118 0.0828,-0.43504 0.56837,-0.57026 2.32465,-0.64752 2.35904,-0.10377 4.23154,0.52077 4.23154,1.41138 0,0.76948 -0.43186,0.79975 -1.65596,0.11607 z m 31.25465,-5.71556 c -1.20183,-0.52302 -1.44133,-0.84309 -1.79099,-2.39347 -0.39259,-1.7407 0.17855,-3.17213 2.80668,-7.03452 3.22693,-4.74224 3.2645,-4.82281 3.47814,-7.45628 0.23003,-2.83592 0.84817,-3.22553 1.15987,-0.73103 0.32047,2.56507 -0.20423,4.08791 -2.45368,7.12184 -3.08765,4.16428 -3.99915,6.37577 -3.34121,8.10632 0.43369,1.14074 1.20489,1.43626 1.96143,0.7516 0.8039,-0.72751 1.36914,-0.67574 1.36914,0.12543 0,0.74194 -1.10284,1.99411 -1.73876,1.97419 -0.22768,-0.007 -0.88047,-0.21596 -1.45062,-0.46408 z m -53.10257,-5.73281 c 0.006,-0.13662 0.29918,-1.06811 0.6516,-2.06995 1.23485,-3.51051 0.7102,-6.89551 -1.85975,-11.99875 -1.15213,-2.28783 -1.35992,-3.88019 -0.54139,-4.14896 0.23226,-0.0764 0.41398,0.13651 0.41398,0.48476 0,0.34139 0.89273,2.46844 1.98388,4.72678 1.09111,2.25836 2.08197,4.62914 2.2019,5.26842 0.27048,1.44172 -0.36263,5.68368 -1.04532,7.00385 -0.30287,0.58567 -0.77193,0.98224 -1.16182,0.98224 -0.35964,0 -0.64901,-0.11182 -0.64308,-0.24839 z m 58.66603,-21.36012 c -0.9416,-1.31965 -1.79491,-2.84727 -1.89606,-3.39473 -0.1017,-0.54746 -0.0642,-2.56027 0.0825,-4.4729 0.2113,-2.75167 0.37068,-3.47753 0.76382,-3.47753 0.41274,0 0.49699,0.6446 0.49816,3.80873 0,4.05536 0.0921,4.35116 2.51999,8.1879 0.62211,0.98316 0.62157,1.74786 0,1.74786 -0.14064,0 -1.02617,-1.07971 -1.96779,-2.39933 z m -63.5129,-29.58816 c -0.12156,-0.34923 -0.49907,-1.28733 -0.83884,-2.08465 -0.71974,-1.68906 -0.72103,-1.69665 -0.28293,-1.69665 0.1841,0 0.73636,0.81886 1.22723,1.8197 0.68265,1.39189 0.80115,1.91104 0.50404,2.20813 -0.29708,0.29711 -0.44039,0.23914 -0.6095,-0.24653 z m 5.376,-2.3404 c -0.12107,-1.57554 -0.14312,-2.9417 -0.0489,-3.03594 0.41263,-0.41262 0.63159,0.46682 0.76922,3.08981 0.19687,3.75032 -0.43157,3.70333 -0.72037,-0.0538 z m 63.71143,-2.92457 c 0,-1.02165 0.96174,-3.48423 1.36077,-3.48423 0.39956,0 0.37131,1.0602 -0.0749,2.83407 -0.40128,1.5933 -1.28552,2.04053 -1.28552,0.65016 z m -4.6449,-0.69064 c -0.4305,-1.13245 -0.40718,-2.02199 0.076,-2.89816 0.37645,-0.68266 0.41274,-0.6488 0.6433,0.60137 0.35419,1.92022 0.33203,3.14632 -0.0567,3.14632 -0.18668,0 -0.48478,-0.38229 -0.66247,-0.84953 z m -57.60875,-1.34546 c -0.005,-0.38754 0.213,-0.89017 0.48624,-1.11693 0.67809,-0.56277 0.68567,0.28606 0.011,1.17867 -0.47673,0.63027 -0.48645,0.62908 -0.49679,-0.0617 z m 38.58181,59.8797 c 0.95337,-2.34509 1.59956,-4.6997 2.11894,-7.72092 0.79586,-4.62941 1.71799,-6.53593 4.79544,-9.91476 3.11592,-3.42105 3.41522,-4.2986 3.82996,-11.22916 0.33243,-5.5551 0.26175,-5.34198 4.17635,-12.59143 1.2355,-2.28807 1.77764,-4.86542 1.78941,-8.50792 l 0.011,-2.04966 -1.45611,-0.21836 c -2.28178,-0.34216 -3.33607,-1.1582 -3.84505,-2.97611 l -0.44036,-1.57275 -3.00787,0.19905 c -1.65436,0.1095 -10.45973,0.58479 -19.56753,1.05623 -9.1078,0.47146 -17.0255,0.92703 -17.59484,1.01239 -0.91708,0.13748 -1.05969,0.30824 -1.24962,1.49599 -0.32338,2.02218 -1.11398,2.94252 -3.41444,3.97467 -2.8627,1.2844 -3.73973,2.22004 -3.73973,3.98967 0,1.59089 2.02048,7.75588 4.17903,12.7512 1.26677,2.93161 1.45125,3.66025 1.45125,5.73202 0,1.30541 -0.16516,3.02941 -0.36703,3.8311 -0.35561,1.41213 -0.30728,1.58468 1.54863,5.52853 1.05361,2.23902 2.15509,4.84013 2.44773,5.78026 l 0.53207,1.70936 1.9287,-1.29648 c 1.06078,-0.71307 2.97437,-1.6141 4.25241,-2.0023 5.36078,-1.62828 10.64035,0.0777 15.13511,4.89063 2.22194,2.37925 2.71097,3.16511 4.45414,7.15788 0.84173,1.92803 1.51676,2.24981 2.0367,0.97087 z m -7.54304,-57.40064 20.28555,-1.08599 0,-1.4206 0,-1.4206 -1.90437,0.002 c -1.0474,0.001 -11.36818,0.52239 -22.93509,1.15869 -11.56689,0.6363 -21.36606,1.15713 -21.77591,1.1574 -0.83745,6.2e-4 -0.96675,0.69939 -0.40346,2.18093 l 0.34172,0.89879 3.053,-0.19221 c 1.67916,-0.10572 12.18149,-0.68093 23.33856,-1.2782 z m -26.87489,-4.16868 c -0.11011,-0.1101 -0.18836,0.0855 -0.17398,0.4347 0.016,0.38582 0.0944,0.46429 0.20011,0.20009 0.0957,-0.23908 0.0839,-0.52473 -0.0262,-0.63479 z"
       id="path3125"
       inkscape:connector-curvature="0" />
  </g>
</svg>
