<?xml version="1.0" encoding="UTF-8" standalone="no"?>
<!-- Created with Inkscape (http://www.inkscape.org/) -->

<svg
   xmlns:dc="http://purl.org/dc/elements/1.1/"
   xmlns:cc="http://creativecommons.org/ns#"
   xmlns:rdf="http://www.w3.org/1999/02/22-rdf-syntax-ns#"
   xmlns:svg="http://www.w3.org/2000/svg"
   xmlns="http://www.w3.org/2000/svg"
   xmlns:xlink="http://www.w3.org/1999/xlink"
   xmlns:sodipodi="http://sodipodi.sourceforge.net/DTD/sodipodi-0.dtd"
   xmlns:inkscape="http://www.inkscape.org/namespaces/inkscape"
   width="237.17407"
   height="328.96448"
   id="svg2"
   version="1.1"
   inkscape:version="0.48.3.1 r9886"
   sodipodi:docname="Gironda-sternum-chins-1.svg"
   inkscape:export-filename="/home/christian/Dokumente/Website/opentraining/cc_exercises/Gironda-sternum-chins-1.png"
   inkscape:export-xdpi="124.0042"
   inkscape:export-ydpi="124.0042">
  <defs
     id="defs4">
    <filter
       inkscape:collect="always"
       id="filter5283"
       color-interpolation-filters="sRGB">
      <feGaussianBlur
         inkscape:collect="always"
         stdDeviation="10.211719"
         id="feGaussianBlur5285" />
    </filter>
    <filter
       inkscape:collect="always"
       id="filter5427"
       x="-0.28619286"
       width="1.5723857"
       y="-0.28619286"
       height="1.5723857"
       color-interpolation-filters="sRGB">
      <feGaussianBlur
         inkscape:collect="always"
         stdDeviation="15.757641"
         id="feGaussianBlur5429" />
    </filter>
    <radialGradient
       gradientUnits="userSpaceOnUse"
       gradientTransform="matrix(1,0,0,0.91819829,-19.285714,-7.9105395)"
       r="209.56604"
       fy="287.50052"
       fx="398.1105"
       cy="287.50052"
       cx="398.1105"
       id="radialGradient5255"
       xlink:href="#linearGradient5249"
       inkscape:collect="always" />
    <linearGradient
       id="linearGradient5249"
       inkscape:collect="always">
      <stop
         id="stop5251"
         offset="0"
         style="stop-color:#e3e3e3;stop-opacity:1;" />
      <stop
         id="stop5253"
         offset="1"
         style="stop-color:#e3e3e3;stop-opacity:0;" />
    </linearGradient>
    <radialGradient
       gradientUnits="userSpaceOnUse"
       gradientTransform="matrix(1,0,0,0.91819829,-19.285714,-7.9105395)"
       r="209.56604"
       fy="287.50052"
       fx="398.1105"
       cy="287.50052"
       cx="398.1105"
       id="radialGradient5255-7"
       xlink:href="#linearGradient5249-1"
       inkscape:collect="always" />
    <linearGradient
       id="linearGradient5249-1"
       inkscape:collect="always">
      <stop
         id="stop5251-9"
         offset="0"
         style="stop-color:#e3e3e3;stop-opacity:1;" />
      <stop
         id="stop5253-9"
         offset="1"
         style="stop-color:#e3e3e3;stop-opacity:0;" />
    </linearGradient>
    <linearGradient
       inkscape:collect="always"
       id="linearGradient5249-6">
      <stop
         style="stop-color:#e3e3e3;stop-opacity:1;"
         offset="0"
         id="stop5251-6" />
      <stop
         style="stop-color:#e3e3e3;stop-opacity:0;"
         offset="1"
         id="stop5253-90" />
    </linearGradient>
    <radialGradient
       inkscape:collect="always"
       xlink:href="#linearGradient5249-6"
       id="radialGradient5255-2"
       cx="398.1105"
       cy="287.50052"
       fx="398.1105"
       fy="287.50052"
       r="209.56604"
       gradientTransform="matrix(1,0,0,0.91819829,-19.285714,-7.9105395)"
       gradientUnits="userSpaceOnUse" />
  </defs>
  <sodipodi:namedview
     id="base"
     pagecolor="#ffffff"
     bordercolor="#666666"
     borderopacity="1.0"
     inkscape:pageopacity="0.0"
     inkscape:pageshadow="2"
     inkscape:zoom="0.98994949"
     inkscape:cx="254.01821"
     inkscape:cy="119.76805"
     inkscape:document-units="px"
     inkscape:current-layer="layer1"
     showgrid="false"
     showguides="true"
     inkscape:guide-bbox="true"
     fit-margin-top="0"
     fit-margin-left="0"
     fit-margin-right="0"
     fit-margin-bottom="0"
     inkscape:window-width="1615"
     inkscape:window-height="1026"
     inkscape:window-x="65"
     inkscape:window-y="24"
     inkscape:window-maximized="1">
    <sodipodi:guide
       orientation="-0.70710678,0.70710678"
       position="-2199.5073,475.14227"
       id="guide2985" />
  </sodipodi:namedview>
  <metadata
     id="metadata7">
    <rdf:RDF>
      <cc:Work
         rdf:about="">
        <dc:format>image/svg+xml</dc:format>
        <dc:type
           rdf:resource="http://purl.org/dc/dcmitype/StillImage" />
        <dc:title />
      </cc:Work>
    </rdf:RDF>
  </metadata>
  <g
     inkscape:label="Ebene 1"
     inkscape:groupmode="layer"
     id="layer1"
     transform="translate(-770.93584,-172.82568)">
    <path
       style="fill:#000000"
       d="m 855.33525,416.12762 c -0.82213,-0.59493 -2.08844,-1.1951 -2.81401,-1.3337 -3.12446,-0.59682 -5.83399,-3.70294 -7.04428,-8.07548 -0.55849,-2.01731 -0.59447,-2.89891 -0.25586,-6.24867 0.59796,-5.91495 0.276,-7.20243 -2.91009,-11.63416 -3.66566,-5.09883 -4.32683,-6.69225 -4.0988,-9.87884 0.13602,-1.90127 0.49179,-3.10852 1.43987,-4.88746 2.0647,-3.87363 4.91914,-5.71327 8.86488,-5.71327 l 1.34715,0 0,-1.98821 c 0.012,-2.53772 1.18895,-4.69559 3.22041,-5.88427 1.36922,-0.80118 1.84255,-0.86593 5.17175,-0.70776 l 3.66446,0.17411 2.67884,-2.76266 c 2.01935,-2.08264 2.67871,-3.02281 2.67871,-3.81957 0,-1.55726 1.41288,-4.206 3.28674,-6.16162 l 1.64834,-1.72026 -0.62457,-1.91433 c -0.34342,-1.05286 -1.25455,-3.44807 -2.02451,-5.32267 -0.76996,-1.87461 -2.23382,-6.45542 -3.25304,-10.17959 -1.69261,-6.18532 -1.9373,-6.80068 -2.82877,-7.1114 l -0.97591,-0.34019 0.68743,-5.95402 0.68743,-5.95399 -1.36382,-2.63716 c -1.11793,-2.16178 -1.43196,-3.28812 -1.74179,-6.24867 -0.56353,-5.38165 0.22119,-12.34668 1.82276,-16.18006 0.44525,-1.0656 0.46156,-1.98429 0.0972,-5.46816 -0.34773,-3.32195 -0.33873,-4.48959 0.0443,-5.64974 0.6578,-1.99299 0.27768,-5.12945 -0.90418,-7.4618 -0.9031,-1.78194 -1.19626,-2.01393 -4.6309,-3.66286 -4.16117,-1.99777 -6.47332,-3.9069 -9.26863,-7.65335 -1.06779,-1.43098 -2.91801,-3.30491 -4.11163,-4.16435 l -2.17037,-1.56258 -1.04704,2.40361 c -1.41601,3.25019 -4.19631,5.67361 -7.78593,6.78629 -0.51794,0.16057 -1.57865,0.71345 -2.35724,1.22866 -1.13977,0.7543 -1.68458,0.88626 -2.79724,0.67751 -0.75988,-0.14257 -1.71575,-0.46056 -2.12394,-0.70668 -1.00733,-0.60721 -2.19424,-2.99823 -2.19424,-4.42025 0,-0.63942 -0.45173,-2.22257 -1.00398,-3.51813 -0.71574,-1.67906 -1.01489,-3.06238 -1.04152,-4.81708 -0.0359,-2.35327 0.06,-2.62534 2.17864,-6.18175 3.13813,-5.26812 3.65403,-6.94751 3.65403,-11.8946 0,-2.24566 0.16745,-4.66711 0.37221,-5.38095 0.20475,-0.71383 0.33249,-1.3373 0.28404,-1.38552 -0.048,-0.0482 -5.712,0.22793 -12.58548,0.61354 -7.0811,0.3973 -12.64233,0.55851 -12.83173,0.37202 -0.18389,-0.18102 -0.2375,-0.58145 -0.11875,-0.88987 0.26293,-0.68504 1.51845,-0.81141 15.77637,-1.5879 5.92828,-0.32287 10.78696,-0.62201 10.79715,-0.66479 0.012,-0.0428 0.57876,-0.80207 1.26343,-1.68729 l 1.24459,-1.60949 -2.57411,0.0257 c -1.41576,0.0142 -7.77178,0.32515 -14.12467,0.69106 -6.35277,0.36594 -11.76358,0.59174 -12.02399,0.50182 -0.76863,-0.26548 -0.54133,-1.20804 0.3788,-1.57077 0.46864,-0.18474 7.7539,-0.69102 16.18972,-1.12505 l 15.3376,-0.78909 0.69762,-0.95417 c 0.38361,-0.52481 1.48018,-1.41286 2.4369,-1.97347 l 1.73915,-1.01929 -2.47707,-0.45717 c -4.93137,-0.91012 -8.57988,-3.64417 -10.60547,-7.94724 -2.83225,-6.0168 -1.23452,-12.9412 4.25197,-18.42782 3.24104,-3.24096 5.73659,-4.44752 9.75286,-4.71537 3.92188,-0.26157 6.84805,0.33845 10.56133,2.16558 3.53948,1.74159 6.54229,4.17495 8.87567,7.1922 0.88583,1.14561 2.60063,3.13326 3.81056,4.41703 1.98648,2.10765 2.19952,2.49352 2.19628,3.97643 -0.012,2.19417 -1.61009,4.9408 -4.35297,7.44766 l -2.14302,1.95865 0.80066,2.40599 c 1.25096,3.75914 0.93237,3.59763 7.21377,3.65728 3.99948,0.038 6.05386,-0.10988 7.56199,-0.54424 2.30747,-0.6645 6.37016,-0.78367 8.25817,-0.24217 0.8015,0.22983 5.05491,0.15753 12.11623,-0.20599 13.64823,-0.70262 13.34044,-0.65734 13.35099,-1.96419 0.0132,-1.68812 1.36191,-4.16626 2.7153,-4.99149 1.61728,-0.98602 4.26733,-1.00405 5.84862,-0.04 0.95384,0.58164 1.63671,0.68327 3.47242,0.51681 1.86426,-0.16904 2.51727,-0.0669 3.54643,0.55395 0.6938,0.41864 1.8771,0.87044 2.62966,1.00399 1.37618,0.24429 2.29284,0.98896 2.72813,2.21625 0.29892,0.84291 -0.44141,0.85353 19.76231,-0.28296 9.16462,-0.51552 17.13708,-0.93968 17.71632,-0.94257 1.08074,-0.005 1.79049,0.9063 1.17466,1.50882 -0.28344,0.27721 -32.77767,2.27531 -36.97435,2.27357 l -1.42009,-4.7e-4 0,1.70419 0,1.70417 1.83967,0 c 1.0119,0 9.56287,-0.43012 19.00206,-0.95581 10.92345,-0.60837 17.2941,-0.82413 17.52465,-0.59353 0.19923,0.19928 0.2694,0.60454 0.15569,0.90059 -0.25897,0.67524 -1.36899,0.76797 -22.1535,1.85094 l -16.38968,0.85398 -0.79766,1.33884 c -1.26594,2.12512 -1.59377,10.51308 -0.55237,14.1366 0.91102,3.16939 1.08243,6.19775 0.63682,11.24241 -0.32927,3.7261 -0.70183,5.52902 -1.76086,8.52091 -1.55851,4.40304 -2.39588,7.76984 -2.41471,9.70841 -0.0168,1.67652 -1.09118,3.12643 -3.06375,4.13275 -2.26789,1.15702 -4.29264,0.96956 -7.7887,-0.72114 -1.6697,-0.80738 -3.9684,-1.73911 -5.10841,-2.07053 -1.13988,-0.3314 -3.0454,-1.29914 -4.23446,-2.15057 l -2.16173,-1.54805 0,1.38272 c 0,2.09473 1.13148,5.56406 2.11303,6.47898 0.48028,0.44766 1.16255,1.81101 1.51617,3.02967 0.40507,1.39615 1.17238,2.81818 2.07453,3.84443 0.90009,1.02403 1.52492,2.18064 1.68277,3.1154 0.13806,0.81769 0.94028,2.89671 1.78256,4.61998 1.50202,3.07313 1.53788,3.24232 1.86666,8.81389 0.22419,3.79993 0.76552,7.81203 1.63504,12.11864 0.71489,3.54092 1.56738,8.39785 1.89412,10.79316 0.32687,2.39534 0.65588,4.75185 0.73133,5.23672 0.10076,0.64665 -0.11515,0.99641 -0.80882,1.31254 -0.94496,0.43053 -0.94568,0.43517 -0.71141,4.42035 0.60706,10.3249 0.7035,18.18038 0.2604,21.21071 -0.25165,1.72164 -1.27782,5.55556 -2.28011,8.51982 -1.00231,2.96427 -1.94751,6.48002 -2.10033,7.8128 -0.30419,2.65299 -1.14408,4.62166 -2.51834,5.9031 -0.48892,0.45592 -3.88733,2.29099 -7.55191,4.07794 -7.59161,3.70178 -11.31029,4.81788 -18.34389,5.50551 -7.71384,0.75412 -9.11233,1.16493 -11.69952,3.43647 -1.58011,1.38732 -1.95722,2.49121 -2.44962,7.16944 -0.86951,8.26129 -0.87504,8.57416 -0.19204,11.00841 0.57408,2.04613 0.59831,2.65192 0.18544,4.65082 -0.65385,3.16565 -1.35591,4.39271 -2.66312,4.65413 -1.01142,0.20231 -1.05976,0.2938 -0.74104,1.40491 0.85044,2.96546 -0.03,6.12803 -1.81173,6.50453 -0.58655,0.12394 -1.32208,0.38779 -1.63455,0.58629 -1.41793,0.90096 -3.94202,1.86622 -4.87991,1.86622 -0.56664,0 -1.70281,-0.48678 -2.52494,-1.0817 z m 4.46286,-0.93668 c 1.49432,-0.5205 2.22229,-1.01129 1.49996,-1.01129 -0.69607,0 -1.50009,-1.95189 -1.52084,-3.69238 -0.0119,-0.88523 0.10675,-1.60953 0.25993,-1.60953 0.62373,0 1.18846,0.97633 1.19386,2.06397 0.012,1.46874 0.32878,1.95981 1.59868,2.44259 1.95614,0.74374 2.70283,-1.23781 1.76963,-4.69589 -0.57132,-2.1167 -1.60001,-2.85081 -3.32693,-2.37399 -0.74057,0.20448 -2.15981,0.29362 -3.15384,0.19809 -1.51747,-0.14581 -2.12718,-0.46802 -3.80024,-2.00831 -3.15923,-2.90867 -3.77193,-4.09098 -3.52316,-6.79831 0.11515,-1.24974 0.0564,-3.63561 -0.12919,-5.30191 -0.31222,-2.79913 -0.58595,-3.49076 -3.59596,-9.08899 -2.73017,-5.07785 -3.3965,-6.05932 -4.11368,-6.05932 -0.50822,0 -0.85583,-0.23069 -0.85583,-0.56806 0,-0.39433 0.39654,-0.56804 1.29653,-0.56804 1.26667,0 1.35399,0.10507 3.78705,4.56233 1.36995,2.50926 2.67823,4.87127 2.90769,5.24887 0.34474,0.56756 0.55861,0.0722 1.23345,-2.85814 1.02449,-4.44903 1.02125,-5.36985 -0.0359,-9.73527 l -0.85716,-3.53961 -1.99848,0.19962 c -2.87579,0.28723 -4.5672,1.27406 -6.51386,3.80025 -1.71192,2.22138 -1.71277,2.22416 -1.70244,5.3019 0.012,3.51261 0.38587,4.4309 3.66817,9.00148 1.34151,1.86827 2.25194,2.78816 2.75956,2.78816 0.73637,0 0.75376,0.20962 0.6289,7.57414 -0.11996,7.04326 -0.0708,7.72014 0.69115,9.65705 1.03984,2.64247 1.94474,3.60241 4.08176,4.33059 0.93957,0.32015 2.27329,1.013 2.96384,1.53967 1.09034,0.8316 2.58239,1.61591 3.1849,1.67419 0.10436,0.01 0.82526,-0.20318 1.60241,-0.47386 z m -3.09159,-2.1112 c -0.43074,-0.60494 -0.78315,-1.45702 -0.78315,-1.89351 0,-1.06086 -1.80393,-1.08173 -3.13296,-0.0363 -1.11734,0.87886 -1.79025,0.97211 -1.79025,0.24803 0,-0.79706 1.28717,-1.76286 2.34945,-1.76286 1.89808,0 3.30953,-0.47169 3.53492,-1.18122 0.25513,-0.80415 1.31104,-0.97861 1.31104,-0.21664 0,0.27261 -0.25009,0.82646 -0.55596,1.2308 -0.84912,1.12266 -0.69187,2.00117 0.56328,3.14763 0.6289,0.57441 1.02653,1.16126 0.88367,1.30415 -0.57516,0.5752 -1.63983,0.19941 -2.38004,-0.84014 z m 10.49475,-8.83537 c 0.95864,-1.1552 1.18918,-3.77447 0.60358,-6.86123 -0.51446,-2.71193 -0.50978,-3.47554 0.0467,-7.78018 0.71622,-5.53482 0.79107,-11.49409 0.18628,-14.82937 -0.42318,-2.33306 -0.32314,-3.38789 0.32123,-3.38789 0.18784,0 0.5562,0.76689 0.81865,1.70419 0.26233,0.93731 0.59591,1.70419 0.74117,1.70419 0.34966,0 3.80456,-7.22278 3.80421,-7.95286 -2.4e-4,-0.31243 0.48783,-1.59058 1.0847,-2.84029 2.00772,-4.20446 8.15609,-9.01263 13.0143,-10.1774 1.48557,-0.35616 2.34825,-2.19764 2.32882,-4.9709 -0.012,-1.69348 -0.47344,-3.60435 -1.81232,-7.50172 -1.46554,-4.26657 -1.89652,-6.14923 -2.3401,-10.22508 -0.29916,-2.74763 -0.73397,-5.86478 -0.96632,-6.92702 l -0.42258,-1.93135 -2.31946,0.50888 c -4.0687,0.89269 -9.2041,1.04778 -12.09452,0.36525 -1.41889,-0.33504 -2.65437,-0.60916 -2.74565,-0.60916 -0.35002,0 -0.12679,1.39591 0.99151,6.19989 0.84444,3.62714 1.7527,6.25243 3.35811,9.70583 1.21028,2.60361 2.29954,5.02275 2.42046,5.37584 0.18255,0.5333 0.43109,0.5814 1.46794,0.28402 1.8008,-0.51644 4.07828,-0.44092 6.21087,0.20601 1.02245,0.31019 1.98673,0.5658 2.14302,0.56806 0.50798,0.008 0.29976,-2.27556 -0.31619,-3.4666 -0.82297,-1.59144 -0.13014,-2.3512 1.0594,-1.16169 0.63705,0.63711 0.86567,1.39935 0.98586,3.28715 0.14814,2.32497 0.22587,2.49859 1.43868,3.21419 1.40917,0.83139 1.71384,1.91814 0.53785,1.91814 -0.40939,0 -1.52768,-0.4968 -2.48511,-1.104 -2.16773,-1.37474 -5.04928,-2.0915 -7.09382,-1.76457 -1.92399,0.30767 -5.43564,2.14396 -7.21257,3.77155 -0.86676,0.79399 -1.47706,1.80464 -1.75319,2.90314 -0.60346,2.40224 -1.29942,3.67176 -3.31085,6.04025 -1.38781,1.63408 -1.63239,2.10929 -1.1352,2.20535 0.78387,0.15143 0.80954,0.58574 0.0708,1.19888 -0.44909,0.37275 -1.10977,0.3438 -3.26551,-0.14298 -3.31588,-0.74885 -5.2749,-0.7726 -6.92313,-0.084 -3.03209,1.2669 -3.68689,3.45359 -2.62078,8.75199 0.37724,1.8746 0.78735,3.32318 0.91162,3.21902 0.12427,-0.10412 0.50762,0.0446 0.852,0.3304 0.93572,0.77649 0.78219,2.77912 -0.66453,8.67092 -1.20992,4.92797 -1.26858,5.45686 -0.93608,8.44766 0.19516,1.75483 0.5195,3.78705 0.72078,4.51608 0.49935,1.80929 0.4636,2.27223 -0.17573,2.27223 -0.30011,0 -0.64736,0.16458 -0.77163,0.3657 -0.35206,0.56959 1.22228,3.34639 2.17072,3.82887 0.46792,0.23805 1.40425,1.01957 2.08053,1.73668 1.13916,1.2078 1.3763,1.29541 3.21897,1.18935 l 1.98936,-0.11443 0.12295,-1.51002 c 0.12427,-1.52658 0.61283,-2.46641 1.28226,-2.46641 0.21027,0 0.26929,0.60322 0.13903,1.42015 -0.27301,1.70956 0.0575,2.29936 1.51772,2.70794 1.14408,0.32014 1.99824,0.0664 2.72465,-0.80862 z m -7.97029,-3.96119 c -0.41395,-0.414 -1.30469,-0.65674 -2.51018,-0.68408 -1.91141,-0.0432 -3.06964,-0.63233 -3.06964,-1.56089 0,-0.60102 0.97724,-0.70642 1.32544,-0.14296 0.12883,0.20827 1.05316,0.3787 2.05426,0.3787 1.91704,0 3.81573,1.05008 3.81573,2.11038 0,0.73381 -0.8327,0.68166 -1.61561,-0.10124 z m 3.55195,-19.72851 c -0.19948,-0.3726 -0.72437,-2.63067 -1.16663,-5.01789 -1.10726,-5.97719 -1.76015,-7.84168 -3.4663,-9.89963 -1.5512,-1.87101 -1.81041,-2.58303 -0.94041,-2.58303 0.68683,0 2.66791,2.26623 3.63052,4.15316 0.67351,1.3202 3.02441,11.67806 3.0328,13.36209 0.012,0.86013 -0.62638,0.85161 -1.08998,-0.0147 z m -1.17886,-15.2008 c 0,-0.78186 1.65829,-2.29975 2.51258,-2.29975 0.28428,0 0.51698,0.25565 0.51698,0.56809 0,0.31243 -0.25993,0.56805 -0.57744,0.56805 -0.3175,0 -0.73937,0.42606 -0.9374,0.94677 -0.42378,1.11481 -1.51472,1.27096 -1.51472,0.21684 z m 19.77021,9.25605 c 10.30715,-1.51044 13.93191,-2.5963 19.12573,-5.72956 1.91763,-1.15691 4.25173,-2.33372 5.18674,-2.61511 3.42024,-1.02934 3.84594,-1.52997 4.43885,-5.21994 0.2074,-1.29047 1.20742,-5.10098 2.22243,-8.46783 2.20707,-7.32131 2.79015,-10.87123 2.82038,-17.16898 0.0276,-5.62368 -0.55309,-15.52701 -0.90946,-15.52701 -0.13818,0 -1.77441,0.517 -3.63592,1.14892 -7.75786,2.63331 -10.47219,3.13957 -17.0182,3.17418 -3.56275,0.0187 -6.17405,0.18807 -6.33767,0.41075 -0.858,1.16798 0.25933,7.23195 2.92234,15.8586 2.14422,6.94595 2.54629,9.82165 1.75774,12.57131 l -0.33215,1.15798 3.0616,0.44623 c 2.02583,0.29529 3.18874,0.31908 3.43752,0.0703 0.56796,-0.56801 1.36047,-0.45062 1.36047,0.20151 0,1.01429 -1.79769,1.34621 -5.8665,1.08315 -3.33436,-0.21556 -4.2425,-0.13879 -6.48484,0.54821 -5.59121,1.71296 -10.33858,6.01743 -11.85546,10.74937 -0.48615,1.51701 -1.5555,4.09786 -2.37608,5.73519 -2.5199,5.0276 -2.52002,4.89606 0,3.603 1.72428,-0.8836 3.41233,-1.28781 8.479,-2.0303 z m 17.34304,-21.27799 c 0,-0.34828 0.27456,-2.09506 0.60994,-3.88175 0.54397,-2.89675 0.57156,-6.49118 0.0743,-9.67204 -0.0708,-0.45531 0.1311,-0.79411 0.5225,-0.87521 1.70064,-0.35235 1.87206,8.74334 0.26053,13.83144 -0.40423,1.2764 -1.46723,1.70932 -1.46723,0.59756 z m 2.15837,-31.58876 c 4.20519,-0.81144 9.88301,-2.48041 13.11997,-3.85654 l 1.83414,-0.77975 -0.25837,-3.44123 c -0.14201,-1.89266 -0.65672,-5.31583 -1.14384,-7.607 -1.59148,-7.48691 -2.15524,-11.28248 -2.43509,-16.39501 -0.26773,-4.89301 -0.31883,-5.12069 -1.82983,-8.14221 -0.85488,-1.70964 -1.75763,-3.7901 -2.00592,-4.62324 -0.24853,-0.83317 -0.70027,-2.00527 -1.00385,-2.60464 l -0.55214,-1.08979 -1.05939,1.85495 c -1.15248,2.01798 -4.20579,5.05847 -5.07987,5.05847 -1.13484,0 -0.77163,-0.92833 1.01862,-2.60289 2.59367,-2.42605 3.24415,-3.87524 2.91129,-6.48608 -0.14609,-1.14559 -0.29039,-1.74206 -0.32075,-1.32548 -0.15329,2.10002 -3.33975,5.21332 -7.49408,7.32185 -1.98289,1.00638 -10.86696,3.31701 -15.69146,4.08115 -2.83069,0.44834 -4.15529,0.49051 -5.80844,0.1849 -2.83069,-0.52325 -8.58119,-3.51958 -10.12891,-5.27763 -0.67159,-0.76289 -1.07942,-1.04624 -0.90609,-0.62966 0.1732,0.41657 0.43913,1.50597 0.59099,2.42086 0.35937,2.16563 1.12921,2.71759 6.09716,4.37157 4.65248,1.54886 8.82337,2.2401 11.51372,1.90812 2.25746,-0.27858 8.23215,-1.83294 10.19045,-2.65114 1.33203,-0.5566 2.11758,-0.49169 2.11758,0.17497 0,0.43749 -3.13056,1.73099 -6.45532,2.66726 -3.63987,1.02499 -9.62512,1.38928 -13.04404,0.79392 -3.03809,-0.52907 -8.02679,-2.36793 -9.44028,-3.47973 l -0.97831,-0.76954 0,1.06893 c 0,0.58792 -0.34318,2.17666 -0.75916,3.53055 -1.2332,4.01454 -1.67438,8.77994 -1.21641,13.1394 0.45821,4.36109 1.47071,6.77525 3.88493,9.26284 0.89555,0.92294 1.50189,1.91138 1.50189,2.44875 0,1.1061 -0.27625,1.12942 -1.35651,0.11455 l -0.83737,-0.78662 -0.27324,4.37339 c -0.1503,2.40536 -0.17969,4.6173 -0.066,4.91544 0.30611,0.79782 4.02263,2.06992 7.13232,2.44133 2.00016,0.23889 3.84331,0.15919 7.00422,-0.30283 2.35941,-0.34488 4.35045,-0.70071 4.4247,-0.79074 0.33382,-0.40505 -0.53233,-7.51897 -1.09466,-8.9915 -0.56603,-1.48209 -0.89554,-1.76755 -3.42696,-2.96915 -2.32918,-1.10556 -2.96839,-1.61539 -3.79628,-3.02818 -1.38662,-2.3661 -0.72558,-2.93607 1.29149,-1.11366 0.82993,0.74977 2.69432,1.9562 4.14295,2.68091 2.72525,1.3634 3.50336,2.30629 3.53323,4.28138 0.0192,1.29077 1.68062,10.23071 1.9511,10.50126 0.42978,0.42976 3.67406,0.85571 6.81926,0.89533 1.9505,0.0246 4.96291,-0.28046 7.3847,-0.74778 z m 8.7676,-8.90758 c -0.5718,-1.29237 -0.85645,-3.08213 -1.09934,-6.91142 -0.50439,-7.9507 -0.68336,-9.02124 -1.71217,-10.24388 -0.98322,-1.16848 -1.14203,-2.48241 -0.54972,-4.54761 0.42894,-1.49571 -0.0132,-3.68328 -1.37438,-6.80214 -0.48867,-1.11946 -0.88847,-2.46107 -0.88847,-2.98137 0,-0.81273 0.0828,-0.87718 0.58871,-0.45741 0.82873,0.68777 1.33504,1.69936 2.26585,4.52735 l 0.81014,2.46157 0.62925,-1.21198 c 1.20658,-2.3239 0.51387,-4.92566 -1.77633,-6.67254 -1.26822,-0.96728 -1.73615,-2.04894 -1.14311,-2.64203 0.3434,-0.34333 3.72634,3.10979 4.45084,4.54311 0.97255,1.92388 0.78891,4.23189 -0.49839,6.26159 -1.74755,2.75568 -2.0545,4.34164 -1.16903,6.04041 1.31069,2.51472 1.90132,5.68684 1.90132,10.21112 0,3.16635 0.20008,5.00067 0.75749,6.95019 0.9103,3.18309 0.91221,3.21903 0.16805,3.21903 -0.33635,0 -0.92049,-0.74873 -1.36071,-1.74399 z m -26.8037,-33.70766 c 3.20901,-0.54885 9.76437,-2.23877 10.13946,-2.61385 0.0815,-0.0813 -0.14238,-0.43811 -0.49695,-0.79277 -1.40342,-1.4033 -1.67067,-4.3144 -0.3962,-4.3144 0.39728,0 0.52633,0.39326 0.46613,1.42015 -0.0767,1.30752 0.0335,1.47768 1.40292,2.14564 l 1.48618,0.72548 2.01275,-1.05381 c 2.52303,-1.321 4.55029,-3.52973 4.88699,-5.32463 0.17681,-0.94269 0,-2.22968 -0.54781,-4.0937 -0.53017,-1.78834 -0.80546,-3.75909 -0.80474,-5.75869 0,-2.81422 -0.0791,-3.1277 -1.07822,-4.22186 -0.78831,-0.86311 -1.64428,-1.29913 -3.17279,-1.61649 -1.15128,-0.239 -2.69803,-0.74283 -3.43704,-1.11963 l -1.34379,-0.68508 -0.24878,1.93313 c -0.13674,1.06322 -0.41995,2.53226 -0.62938,3.26455 -0.28644,1.00216 -0.23186,1.90542 0.22095,3.65239 0.73961,2.85472 0.80462,5.56091 0.12787,5.33737 -0.2802,-0.0926 -0.56221,-1.14816 -0.69127,-2.58784 -0.11995,-1.33729 -0.50319,-2.97684 -0.85213,-3.64343 -0.79598,-1.52133 -0.79814,-2.49909 -0.012,-4.5631 0.95252,-2.49386 0.28932,-4.19658 -2.93433,-7.53398 -1.43711,-1.4879 -2.61298,-2.4918 -2.61298,-2.23089 0,0.7156 -2.96372,3.93579 -4.22031,4.58561 -1.02737,0.53124 -1.84302,0.46674 -1.83619,-0.14521 0,-0.14389 0.68084,-0.64877 1.50934,-1.12188 2.50011,-1.42769 3.61168,-4.62085 2.45632,-7.05581 -0.766,-1.61435 -1.14744,-1.71294 -1.48126,-0.38292 -0.39739,1.58359 -1.88717,2.80768 -3.41689,2.80768 -1.68684,0 -1.72979,-0.63429 -0.0888,-1.3197 1.49241,-0.62356 2.15513,-1.90398 2.15513,-4.16385 0,-1.32826 -0.15173,-1.70898 -0.75748,-1.90124 -0.41647,-0.13223 -0.75736,-0.56975 -0.75736,-0.97228 0,-0.54738 0.26256,-0.73044 1.0414,-0.7261 1.35172,0.008 1.68001,0.25085 2.84209,2.10674 1.62519,2.59546 6.85655,8.94308 9.12229,11.0687 2.59475,2.43412 4.52185,3.33343 8.36996,3.90578 3.01481,0.44841 3.96517,1.13905 2.76999,2.01294 -0.50726,0.37097 -0.28631,0.69033 1.52529,2.20544 1.16519,0.97441 3.23636,2.22779 4.60282,2.78529 1.36635,0.55749 4.13467,1.76545 6.15174,2.68433 3.3593,1.53041 3.78873,1.63752 5.11249,1.2753 0.79491,-0.21747 1.99908,-0.73582 2.67596,-1.15189 1.18833,-0.73036 1.2308,-0.84301 1.2308,-3.26116 0,-1.90724 0.35313,-3.55713 1.48018,-6.91698 0.8141,-2.42674 1.75138,-5.72586 2.08292,-7.33132 0.74837,-3.62426 0.76768,-9.22473 0.042,-12.22929 -0.34738,-1.4387 -0.55357,-4.32555 -0.56221,-7.86958 -0.012,-5.1011 0.0683,-5.79229 0.91211,-7.79626 1.11264,-2.64361 1.4527,-5.19724 1.06586,-8.00337 l -0.28727,-2.08289 -1.5344,-0.20485 c -0.84409,-0.11263 -2.09457,-0.60362 -2.77912,-1.09099 -1.06575,-0.7589 -1.54446,-0.85516 -3.33387,-0.67049 -2.02427,0.20894 -2.7069,0.44855 -2.33543,0.81992 0.0984,0.0984 0.82838,-1.7e-4 1.62197,-0.21932 1.60276,-0.44254 3.11149,-0.19464 4.06976,0.66868 0.3475,0.31319 1.30638,0.76857 2.13067,1.01195 1.90229,0.56171 2.14578,1.16494 0.53282,1.31995 -0.83041,0.0799 -1.81388,-0.21107 -2.93469,-0.86792 -1.54663,-0.90634 -1.91356,-0.96729 -4.44293,-0.73808 -2.28564,0.20712 -2.84413,0.14507 -3.26564,-0.36289 -0.27972,-0.33701 -0.92624,-0.61273 -1.43675,-0.61273 -0.67951,0 -0.89434,-0.17748 -0.80174,-0.66274 0.15797,-0.82901 1.66226,-1.07703 2.47324,-0.40777 0.51422,0.42446 0.57971,0.41426 0.4215,-0.0657 -0.10316,-0.31241 -0.61918,-0.72075 -1.14708,-0.9074 -1.42224,-0.50276 -3.68521,0.7355 -4.77303,2.6116 -0.80295,1.38474 -0.86136,1.83319 -0.68108,5.22191 0.20764,3.90123 -0.16396,5.7928 -1.06995,5.44517 -0.4263,-0.16362 -0.4624,0.0314 -0.18544,1.00292 0.41179,1.44487 1.27423,2.15281 2.62234,2.15281 1.41828,0 4.75157,1.04548 5.25068,1.64681 0.23198,0.27956 0.52933,1.0459 0.6608,1.70299 0.20811,1.04062 0.13518,1.1947 -0.56592,1.1947 -0.70915,0 -0.80463,0.21666 -0.80463,1.82608 0,2.65734 -0.97639,5.10981 -2.87519,7.22168 -1.92495,2.14102 -2.14638,3.53516 -0.88523,5.57555 1.36239,2.2045 -0.35001,2.92584 -2.07608,0.87453 -0.98743,-1.17358 -1.15368,-1.6418 -1.4983,-4.2206 -0.23089,-1.72788 -1.97929,-4.34322 -3.86489,-5.78153 -1.93059,-1.47247 -7.28934,-3.44263 -7.8471,-2.88493 -0.23031,0.23039 -0.5477,0.41887 -0.70508,0.41887 -0.15748,0 -1.16854,-1.71725 -2.24665,-3.8161 -3.48274,-6.7802 -6.22754,-9.73799 -10.55232,-11.37096 -3.70357,-1.39846 -8.39708,-0.6307 -12.19517,1.99481 -1.3691,0.94642 -1.5573,0.88083 -1.26703,-0.4412 0.17874,-0.81386 0.10676,-1.14183 -0.25392,-1.15622 -6.93801,-0.2766 -10.54442,-0.70487 -12.28081,-1.45831 -2.30375,-0.99961 -5.20929,-3.79554 -5.01065,-4.82143 0.11755,-0.60466 0.29951,-0.5223 1.26703,0.57229 1.29497,1.46503 3.4711,2.93687 4.85652,3.28455 l 0.94904,0.2382 -0.72833,-2.33974 c -0.4004,-1.28682 -0.7281,-2.7026 -0.7281,-3.14613 0,-0.46064 0.8526,-1.68359 1.98817,-2.85196 1.09357,-1.12504 1.81783,-1.9825 1.6096,-1.90545 -0.20836,0.077 -1.99776,0.95097 -3.97658,1.94212 -4.74424,2.37631 -5.58833,2.5217 -7.12644,1.2275 -1.83499,-1.54408 -1.39814,-2.92085 0.4768,-1.50268 1.11745,0.84522 1.9583,0.68918 6.21855,-1.15434 2.15825,-0.93391 4.34062,-1.698 4.8498,-1.698 0.73229,0 1.08243,-0.35408 1.67498,-1.69367 0.74285,-1.67905 0.74285,-1.70607 0.0144,-3.13472 -1.07247,-2.10235 -6.99702,-8.73516 -9.46967,-10.60191 -3.95317,-2.98444 -10.47532,-5.02765 -14.35233,-4.49627 -2.12119,0.29077 -5.15747,1.65209 -6.81925,3.0575 -3.34755,2.83119 -6.19419,8.75142 -6.23222,12.96194 -0.0252,2.78413 2.05065,7.0829 4.30067,8.90597 2.3509,1.90487 3.66134,2.48847 6.63009,2.95295 3.76186,0.58849 3.90353,0.65566 3.83959,1.82011 -0.03,0.56169 0.0648,1.87336 0.21292,2.9148 0.18316,1.28923 0.11155,2.1957 -0.22228,2.84031 -0.48483,0.93433 -1.27433,1.0047 -1.1755,0.10484 0.0348,-0.31759 -0.1473,-0.35719 -0.57947,-0.12594 -0.34666,0.18557 -1.88418,0.51114 -3.41665,0.72352 -2.36073,0.32713 -2.98806,0.57776 -4.10744,1.64074 -2.76891,2.6295 -3.9401,7.74441 -3.07839,13.44412 0.64581,4.27116 0.65553,4.09493 -0.22574,4.09493 -0.54901,0 -1.0426,0.61548 -1.82215,2.27222 -0.58811,1.24975 -1.78317,3.37202 -2.65545,4.7162 -1.9812,3.05271 -2.04358,4.46091 -0.36116,8.15986 0.6632,1.45802 1.39968,3.41784 1.63694,4.35514 0.55045,2.17572 0.89747,2.57591 2.49316,2.87528 0.94712,0.17768 1.49349,0.0715 2.00244,-0.38893 0.3848,-0.34829 1.60373,-0.9768 2.70871,-1.39667 2.83812,-1.07836 3.99612,-2.01022 5.27981,-4.24829 1.69837,-2.96136 1.54279,-4.10126 -0.91114,-6.67398 -2.28852,-2.39929 -3.51583,-4.60335 -4.80542,-8.63033 -0.69954,-2.18451 -0.78351,-2.84256 -0.41023,-3.21584 0.62182,-0.62178 0.91738,-0.13296 2.15862,3.56977 1.49038,4.44616 2.17337,5.26102 9.12169,10.88342 4.31363,3.49052 5.12665,4.31571 7.20081,7.30909 1.42249,2.05308 3.67358,3.6792 8.27222,5.97581 3.26394,1.62999 3.46149,1.80099 4.53793,3.92838 0.93177,1.84119 1.16002,2.83426 1.3258,5.76723 0.18017,3.18947 0.30023,3.64301 1.20225,4.54455 1.04069,1.04 1.83835,0.96424 1.83835,-0.1746 0,-0.7065 0.68863,-1.56822 1.25324,-1.56822 0.1894,0 0.23834,0.63907 0.10915,1.42015 -0.46253,2.78643 -0.44754,2.85679 0.7618,3.57164 1.44395,0.85345 6.2892,2.15443 8.12934,2.18281 0.74441,0.0108 2.95976,-0.25391 4.92322,-0.58971 z m -8.11148,-4.86429 c -0.12318,-0.32102 -0.41707,-2.50104 -0.65312,-4.84451 -0.32987,-3.27613 -0.73386,-5.03401 -1.74791,-7.60603 -0.72534,-1.83982 -1.23068,-3.43325 -1.12297,-3.54097 0.38792,-0.3878 0.90562,0.2708 2.05294,2.61158 1.66334,3.39315 2.79506,8.15449 2.65964,11.18899 -0.10556,2.38155 -0.69726,3.47115 -1.18858,2.19094 z m -6.9386,-4.27687 c -0.12572,-0.36452 -0.71682,-1.91117 -1.31357,-3.437 -1.31981,-3.37479 -1.3402,-4.13173 -0.17441,-6.43227 0.58524,-1.15516 0.83977,-2.16551 0.71274,-2.82991 -0.10915,-0.56832 0.0168,-1.29211 0.27972,-1.60836 0.26245,-0.31627 0.41035,-0.61859 0.32866,-0.67182 -0.0815,-0.0532 -1.2693,-1.05988 -2.63877,-2.23702 -3.38006,-2.90513 -5.02073,-5.15045 -8.79674,-12.0388 -1.76974,-3.22848 -4.17425,-7.3905 -5.34328,-9.24896 -2.36241,-3.75576 -2.98663,-5.50877 -3.88924,-10.92157 -0.54349,-3.25927 -0.52311,-4.59582 0.0612,-4.0114 0.0996,0.0999 0.72546,2.37159 1.39022,5.04827 1.12224,4.51969 1.39333,5.14716 3.8006,8.79968 1.4256,2.16312 3.45467,5.65178 4.5089,7.75255 4.05322,8.07712 8.39192,13.99105 11.48686,15.65785 1.47934,0.79665 1.65363,1.11856 0.78616,1.45143 -0.35758,0.13721 -0.56797,0.71698 -0.56797,1.56479 0,0.74078 -0.3409,2.31659 -0.75748,3.50181 -0.9608,2.73394 -0.95036,3.14564 0.1353,5.31818 1.07979,2.16099 1.45667,3.6062 1.14936,4.40712 -0.30384,0.79196 -0.87383,0.76017 -1.15836,-0.0645 z m 13.59856,-4.73384 c -0.20907,-0.26037 -0.81962,-1.34898 -1.35674,-2.41915 -1.13269,-2.25686 -3.39098,-4.34516 -6.214,-5.74623 -1.82491,-0.9057 -2.65412,-1.97676 -1.51484,-1.95675 0.93824,0.0165 3.90232,1.57639 5.84839,3.07768 1.94186,1.49821 4.66075,5.53298 4.66075,6.91661 0,0.71627 -0.88702,0.79593 -1.42356,0.12784 z m 33.4007,-4.86673 c -0.14166,-0.2293 0.0756,-0.74992 0.48243,-1.15697 0.93309,-0.9331 4.73729,-1.41481 5.5893,-0.70771 0.96019,0.79697 0.23162,1.2208 -1.65303,0.96159 -1.49589,-0.20574 -1.88213,-0.12193 -2.47948,0.53815 -0.78051,0.86243 -1.54303,1.00593 -1.93922,0.36494 z m -86.79507,-5.41831 c -0.81314,-0.85776 -1.12369,-1.73894 -0.6127,-1.73894 0.62637,0 2.79027,1.63922 2.79027,2.11379 0,0.83376 -1.23309,0.62151 -2.17757,-0.37485 z m 76.06378,-6.52649 c -0.4882,-0.34197 -1.44792,-1.85119 -2.13272,-3.35382 -1.61775,-3.5499 -2.64728,-4.36772 -5.43611,-4.31824 -3.30233,0.0586 -4.00032,0.35814 -4.13862,1.77599 -0.0899,0.91668 -0.30215,1.21593 -0.864,1.21593 -1.82347,0 -0.97519,-2.80797 1.17239,-3.88116 2.37284,-1.18575 6.84588,-0.62623 8.78966,1.09951 0.43279,0.38432 1.17167,1.55084 1.64176,2.5923 0.4702,1.04144 1.46807,2.48083 2.21762,3.19861 0.74945,0.71781 1.36275,1.5273 1.36275,1.79887 0,0.69165 -1.55094,0.61566 -2.61273,-0.12799 z m 8.3071,0.0702 c -0.7077,-0.85281 -0.13578,-1.31424 1.3336,-1.07579 1.78258,0.28927 3.19714,-0.96077 3.19714,-2.82546 0,-1.94794 0.92398,-1.32309 1.05916,0.71631 0.16768,2.52805 -0.9037,3.7364 -3.31253,3.7364 -1.13125,0 -1.99297,-0.20866 -2.27737,-0.55146 z m -82.91697,-4.93981 c -1.37354,-2.26637 -1.83151,-2.47754 -2.87411,-1.32546 -0.8237,0.91019 -1.70425,0.98869 -1.70425,0.15194 0,-0.88588 2.20935,-2.8029 3.23025,-2.8029 0.69678,0 1.19025,0.56347 2.39335,2.73266 0.83365,1.50298 1.43304,2.86632 1.33204,3.02967 -0.44513,0.72019 -1.20393,0.15015 -2.37728,-1.78591 z m 22.71822,-0.2892 c -0.2549,-0.77219 -0.94749,-1.56944 -1.8459,-2.12468 -2.38712,-1.47532 -5.28487,-6.68161 -3.67491,-6.60267 0.20835,0.0108 0.89003,0.88197 1.51485,1.93722 0.62494,1.05527 1.96321,2.54717 2.97403,3.31533 2.46532,1.87353 3.64347,4.71077 1.95614,4.71077 -0.28392,0 -0.6999,-0.55619 -0.92421,-1.23597 z m 15.64574,-0.57865 c -0.93524,-0.6067 -1.40113,-2.21785 -1.27986,-4.42704 0.0696,-1.25359 0.11515,-3.59999 0.10316,-5.21424 -0.0119,-1.61423 0.0468,-2.93499 0.13014,-2.93499 0.0828,0 0.48928,0.55387 0.90202,1.23082 0.83149,1.36364 0.96188,3.49422 0.34894,5.70139 -0.31763,1.14373 -0.26953,1.83416 0.23318,3.34768 0.61522,1.85206 0.42379,2.85543 -0.43793,2.29638 z m 51.35596,-0.44848 c 0,-0.20325 0.33033,-0.91272 0.73408,-1.5766 0.40376,-0.66391 0.94089,-2.36482 1.19386,-3.77983 0.40364,-2.25888 0.37893,-2.78416 -0.20211,-4.30576 -0.52886,-1.38478 -0.56844,-1.8456 -0.19684,-2.29333 1.97018,-2.37384 2.45909,8.46207 0.51771,11.47299 -0.54325,0.84252 -2.0467,1.19697 -2.0467,0.48253 z m -44.81366,-8.9719 c -0.44082,-0.44073 -0.28152,-0.82435 0.9025,-2.17281 1.7978,-2.04758 2.86752,-2.23301 7.98756,-1.38445 2.42467,0.40189 4.76801,0.6367 5.20714,0.52184 0.56616,-0.14803 0.79851,-0.0326 0.79851,0.39622 0,0.98664 -1.74528,1.14646 -6.76721,0.61971 l -4.73141,-0.49627 -1.16207,1.38414 c -1.13233,1.34869 -1.72032,1.64639 -2.23502,1.13162 z m -13.25492,-1.89352 c -0.48603,-0.48614 -0.24313,-2.21974 0.47656,-3.39996 0.39932,-0.65497 1.88993,-2.11962 3.31229,-3.25476 3.33616,-2.6625 3.45827,-2.82665 3.60161,-4.8402 0.0851,-1.19463 0.28728,-1.69674 0.68359,-1.69674 1.52996,0 0.50343,4.21871 -1.51004,6.20471 -0.76361,0.7532 -2.17924,2.01657 -3.1458,2.80754 -1.24112,1.01546 -1.87589,1.87795 -2.16053,2.93496 -0.389,1.44446 -0.72498,1.77699 -1.25768,1.24445 z m -20.89978,-0.85687 c -3.1013,-0.74372 -5.33356,-4.32132 -4.00512,-6.41866 0.50127,-0.79152 1.17263,-0.14398 1.17263,1.13112 0,2.96572 2.23718,4.40655 6.05554,3.90004 1.6138,-0.21409 1.89736,-0.15814 1.89736,0.37452 0,1.15129 -2.48991,1.64387 -5.12041,1.01298 z m 2.47624,-12.32751 c -0.54768,-0.58303 -1.31236,-0.95405 -1.96633,-0.95405 -1.13557,0 -1.45439,-0.63373 -0.50247,-0.99902 0.76168,-0.29228 4.16621,1.42669 4.16621,2.10359 0,0.91447 -0.76025,0.84706 -1.69741,-0.15052 z m 8.70342,-1.1808 c 0,-1.7532 3.99397,-4.64112 5.01138,-3.6237 0.31367,0.3138 0.0624,0.57643 -0.96571,1.00567 -0.84709,0.35389 -1.76327,1.17136 -2.34406,2.09157 -1.10138,1.74456 -1.70161,1.93027 -1.70161,0.52646 z m 69.68222,-1.84847 c 0,-1.23197 1.11037,-3.98411 1.60745,-3.98411 0.46504,0 0.11275,3.07506 -0.47956,4.18108 -0.55058,1.02893 -1.12789,0.92811 -1.12789,-0.19697 z m -5.31125,-0.78973 c -0.49239,-1.29491 -0.46564,-2.31206 0.0864,-3.31393 0.4305,-0.78062 0.47199,-0.74189 0.73564,0.68764 0.40496,2.19571 0.37965,3.59772 -0.0648,3.59772 -0.21352,0 -0.5543,-0.43716 -0.75749,-0.97143 z m -4.2028,18.19753 c 1.86774,-2.12723 2.43366,-3.56426 2.61647,-6.64537 0.19936,-3.35958 -0.1467,-3.92508 -2.65737,-4.34222 -2.70462,-0.44947 -3.5992,-1.11784 -4.34769,-3.248 l -0.6776,-1.92863 -4.35513,0.23267 c -2.39539,0.12798 -5.67133,0.33246 -7.27997,0.45438 l -2.92486,0.22168 0.90046,1.19229 c 0.49539,0.65575 1.51341,2.24351 2.26225,3.52835 1.29762,2.22624 1.47718,2.37453 3.82052,3.15432 4.29023,1.4277 9.85685,5.59215 10.59851,7.92883 0.34353,1.08246 0.69558,0.98804 2.04441,-0.5483 z m -8.74012,-17.84263 5.79369,-0.25489 -0.11275,-1.74186 c -0.10916,-1.67924 -0.15402,-1.73883 -1.24928,-1.65886 -0.62494,0.0456 -5.22621,0.28071 -10.22511,0.52237 -4.9989,0.24168 -9.16307,0.50572 -9.25375,0.58672 -0.0899,0.081 0.50594,0.84281 1.32544,1.69287 l 1.49037,1.54555 3.21897,-0.21853 c 1.77046,-0.1202 5.8262,-0.3332 9.01266,-0.47337 z m -64.68272,-1.9099 c 0,-0.34809 0.28201,-0.94456 0.62674,-1.32546 0.84997,-0.93931 0.0899,-0.87791 -1.14372,0.0924 -1.18282,0.93036 -1.30337,1.86604 -0.2405,1.86604 0.45533,0 0.75748,-0.25247 0.75748,-0.63292 z"
       id="path3072"
       inkscape:connector-curvature="0" />
  </g>
</svg>
