<?xml version="1.0" encoding="UTF-8" standalone="no"?>
<!-- Created with Inkscape (http://www.inkscape.org/) -->

<svg
   xmlns:dc="http://purl.org/dc/elements/1.1/"
   xmlns:cc="http://creativecommons.org/ns#"
   xmlns:rdf="http://www.w3.org/1999/02/22-rdf-syntax-ns#"
   xmlns:svg="http://www.w3.org/2000/svg"
   xmlns="http://www.w3.org/2000/svg"
   xmlns:sodipodi="http://sodipodi.sourceforge.net/DTD/sodipodi-0.dtd"
   xmlns:inkscape="http://www.inkscape.org/namespaces/inkscape"
   width="745.90021"
   height="900.92023"
   id="svg2"
   version="1.1"
   inkscape:version="0.48.3.1 r9886"
   sodipodi:docname="Good-mornings-2-1.svg">
  <defs
     id="defs4" />
  <sodipodi:namedview
     id="base"
     pagecolor="#ffffff"
     bordercolor="#666666"
     borderopacity="1.0"
     inkscape:pageopacity="0.0"
     inkscape:pageshadow="2"
     inkscape:zoom="0.49497475"
     inkscape:cx="160.30137"
     inkscape:cy="569.94791"
     inkscape:document-units="px"
     inkscape:current-layer="layer1"
     showgrid="false"
     fit-margin-top="0"
     fit-margin-left="0"
     fit-margin-right="0"
     fit-margin-bottom="0"
     inkscape:window-width="1855"
     inkscape:window-height="1056"
     inkscape:window-x="65"
     inkscape:window-y="24"
     inkscape:window-maximized="1" />
  <metadata
     id="metadata7">
    <rdf:RDF>
      <cc:Work
         rdf:about="">
        <dc:format>image/svg+xml</dc:format>
        <dc:type
           rdf:resource="http://purl.org/dc/dcmitype/StillImage" />
        <dc:title></dc:title>
      </cc:Work>
    </rdf:RDF>
  </metadata>
  <g
     inkscape:label="Ebene 1"
     inkscape:groupmode="layer"
     id="layer1"
     transform="translate(-332.24239,-51.188652)">
    <path
       style="fill:#000000"
       d="m 696.15985,949.48329 c -4.52,-1.2191 -10.9806,-5.431 -13.2605,-8.6449 -0.6563,-0.9252 -5.0408,-5.2408 -9.7434,-9.5902 -7.2704,-6.7245 -9.8147,-8.3971 -17,-11.1752 -4.6474,-1.7968 -12.4895,-5.3958 -17.4268,-7.9978 -11.2682,-5.9382 -12.9164,-8.3734 -12.9792,-19.176 -0.043,-7.4242 0.062,-7.7448 6.0968,-18.5547 8.3216,-14.9068 8.7228,-16.4418 8.079,-30.90591 -0.7466,-16.7733 -3.9824,-31.2335 -10.2029,-45.5941 -5.431,-12.5381 -7.8553,-27.5463 -6.5245,-40.3904 0.9577,-9.2426 6.7038,-27.927 11.6123,-37.7595 6.4726,-12.9655 6.9385,-39.7063 1.2692,-72.85014 -1.6464,-9.625 -3.6398,-21.325 -4.4298,-26 -0.79,-4.675 -1.4381,-10.37988 -1.4401,-12.67752 0,-3.48163 -0.5207,-4.58199 -3.1063,-6.60555 l -3.1024,-2.42802 2.2155,-14.89445 c 1.4229,-9.5657 2.3229,-20.97651 2.5156,-31.89446 0.2768,-15.6779 0.5441,-17.81659 3.4366,-27.5 1.7251,-5.775 3.7982,-15 4.6069,-20.5 0.8087,-5.5 2.3883,-13.15 3.5103,-17 1.8961,-6.50677 2.6254,-7.56369 10.3502,-15 6.2421,-6.00897 8.4846,-8.87107 9.0105,-11.5 1.4027,-7.01257 3.7127,-12.87358 6.0814,-15.42941 l 2.4228,-2.61428 -1.4524,-10.34692 c -1.6723,-11.91285 -2.0133,-21.75352 -1.0262,-29.60939 0.7361,-5.85798 -0.1569,-9.529 -4.96,-20.3897 l -2.5159,-5.68899 -4.2452,2.45693 c -2.3349,1.35132 -7.8453,3.83419 -12.2453,5.5175 -8.1647,3.1236 -19.5,9.57865 -19.5,11.10461 0,2.18442 -5.5125,7.06057 -9.0628,8.01656 -5.9608,1.60509 -13.8881,0.21185 -16.9244,-2.97449 -4.1008,-4.30353 -12.448,-14.12314 -13.3471,-15.70155 -2.4549,-4.30967 -6.813,-19.88868 -7.7738,-27.78939 -1.3746,-11.30415 -0.5922,-19.52821 3.0676,-32.24503 3.2553,-11.31079 5.1819,-25.40394 5.3823,-39.37132 l 0.1372,-9.56488 -4.4895,-5.15748 c -2.4692,-2.83662 -6.254,-8.65743 -8.4107,-12.93513 -2.1566,-4.2777 -4.0144,-7.91043 -4.1284,-8.07273 -0.114,-0.16229 -6.2662,-1.31848 -13.6717,-2.5693 l -13.4646,-2.27421 -0.6552,29.0693 c -0.3603,15.98812 -0.656,34.5818 -0.657,41.3193 0,10.2214 -0.2503,12.25 -1.5019,12.25 -1.3301,0 -1.5,35.11111 -1.5,310 0,309.33335 0,310.00005 -2,310.00005 -2.244,0 -2.0291,47.4062 -2,-441.22965 l 0.011,-179.72961 -2.2553,-0.51277 c -7.4429,-1.69221 -12.0541,-2.56006 -12.2845,-2.31199 -0.2502,0.26938 -1.3861,446.39261 -1.4438,567.03402 -0.027,56.0743 -0.051,56.75 -2.0271,56.75 -1.9957,0 -2,-0.6667 -2,-311.57201 l 0,-311.57195 -5.75,0.69682 c -3.1625,0.38326 -6.0875,0.89219 -6.5,1.13098 -0.4125,0.23878 -0.75,140.13259 -0.75,310.87513 l 0,310.44103 -2.5956,0 -2.5957,0 0.7412,-309.97557 c 0.6869,-287.21516 0.6205,-310.02189 -0.9043,-310.60699 -1.08,-0.41445 -1.6456,-1.79755 -1.6456,-4.02448 0,-3.75451 -1.8318,-4.5181 -4.1275,-1.7205 -2.7939,3.40476 -13.0114,9.143 -19.3212,10.85098 -9.5477,2.58444 -21.40356,1.67987 -29.76081,-2.27066 -17.4207,-8.2349 -30.98899,-29.41401 -37.96001,-59.25283 -1.46586,-6.2745 -2.12926,-13.64705 -2.53375,-28.15848 l -0.54795,-19.65849 -17.96804,-2.79976 c -9.88241,-1.53987 -18.71338,-3.34478 -19.62436,-4.01091 -1.25028,-0.91422 -1.65634,-2.81884 -1.65634,-7.76902 0,-5.67789 0.33547,-6.88523 2.5,-8.99734 l 2.5,-2.43946 17,2.90352 c 9.35,1.59694 17.68221,2.90947 18.51602,2.91674 1.09576,0.01 2.15697,-2.68965 3.82813,-9.7368 7.77904,-32.80374 27.08224,-61.66181 47.77978,-71.43026 12.13053,-5.72514 25.85363,-5.71266 37.62863,0.0342 3.1639,1.54417 5.9764,2.58373 6.25,2.31014 0.2736,-0.27359 0.4974,-16.89558 0.4974,-36.937764 0,-32.81796 0.1573,-36.37998 1.5818,-35.83333 0.87,0.33385 1.77,0.60699 2,0.60699 0.23,0 0.4182,17.11971 0.4182,38.04381 l 0,38.043804 4.75,5.78943 c 2.6125,3.18419 5.7375,7.10198 6.9445,8.7062 l 2.1944,2.91676 0.056,-46.250004 c 0.055,-45.56481 0.085,-46.25 2.0555,-46.25 1.9738,0 2,0.66667 2,50.725244 l 0,50.72524 2.6971,6.87445 c 2.7165,6.92389 3.5298,7.68997 9.847,9.2755 l 2.4559,0.61639 0,-58.60841 c 0,-57.941744 0.023,-58.608414 2,-58.608414 1.9775,0 2,0.66667 2,59.093624 0,58.25262 0.029,59.10106 2,59.61663 1.9382,0.50685 2,1.36402 2,27.73193 l 0,27.20892 15.1654,2.64938 15.1654,2.64937 4.3123,-3.97492 c 2.3717,-2.18621 5.3348,-4.00559 6.5846,-4.04305 1.2498,-0.0375 6.5473,-0.19974 11.7723,-0.36059 5.225,-0.16086 9.95,0.0415 10.5,0.44978 0.55,0.40823 3.25,0.14036 6,-0.59528 12.6404,-3.38137 18.3058,-0.76558 20.4744,9.45339 l 1.2611,5.94269 4.6323,1.16035 c 2.5477,0.63819 5.5868,2.05231 6.7535,3.14248 1.5646,1.46193 6.418,2.75475 18.493,4.92609 13.9582,2.50998 16.8886,2.76695 19.8787,1.74318 1.9289,-0.66044 8.007,-1.2343 13.507,-1.27526 9.4097,-0.0701 10.5608,-0.31603 19.5,-4.16639 5.225,-2.25055 10.625,-4.35725 12,-4.68155 1.375,-0.32431 4.9426,-3.06565 7.928,-6.09188 6.2583,-6.34385 6.3487,-5.53429 -1.9081,-17.07889 -5.454,-7.62563 -9.0199,-17.12955 -9.0199,-24.03996 0,-6.42152 2.6485,-17.8408 5.5703,-24.01686 5.5722,-11.7788 18.3271,-21.39727 32.4297,-24.45524 8.5121,-1.84572 24.2516,-0.85835 31.5,1.97607 8.1016,3.16799 18.931,13.89083 23.265,23.03599 5.9904,12.6401 10.2679,34.96534 10.1549,53 -0.1143,18.24163 -2.2935,21.58158 -15.0451,23.05819 -4.0561,0.46969 -7.7181,0.87375 -8.1377,0.8979 -0.4196,0.0242 -1.949,2.54896 -3.3987,5.61069 -1.7916,3.78391 -4.6699,7.36374 -8.9871,11.17758 -3.4932,3.08594 -6.3513,6.1035 -6.3513,6.70569 0,0.71831 3.3534,1.0949 9.75,1.09494 11.2559,6e-5 25.7682,2.11602 27.6894,4.03725 0.7255,0.72546 2.6109,1.62423 4.1898,1.99726 1.579,0.37303 4.4458,1.52368 6.3708,2.557 2.9614,1.58963 27.0131,7.18377 27.744,6.45291 0.1346,-0.13459 0.5447,-13.59727 0.9114,-29.91706 0.3667,-16.31979 1.0443,-29.67235 1.5057,-29.67235 0.4614,0 0.8389,-26.1313 0.8389,-58.06955 l 0,-58.06955 2.25,0.31955 2.25,0.31955 0.2583,57.31478 c 0.2429,53.92751 0.3611,57.28656 2,56.83732 0.9579,-0.26261 3.3571,-0.74861 5.3314,-1.08002 l 3.5897,-0.60256 0.6603,-27.14723 c 0.3632,-14.93097 0.6603,-39.67411 0.6603,-54.98476 0,-27.13108 0.051,-27.83753 1.9915,-27.83753 1.9612,0 1.9954,0.83136 2.25,54.67452 l 0.2585,54.67452 5.5,1.28311 c 3.025,0.70571 5.6125,1.30218 5.75,1.32548 0.1375,0.0233 0.25,-24.48263 0.25,-54.45763 l 0,-54.5 2.5,0 2.5,0 0,55 c 0,34.93524 0.3546,55 0.9718,55 0.5684,0 1.0873,5.70035 1.25,13.73098 l 0.2782,13.73098 4.6993,-6.58902 c 18.6395,-26.13545 42.043,-33.74061 62.5188,-20.31605 17.3361,11.36609 29.32134,43.81607 28.0888,76.05082 l -0.4247,11.10771 25.42765,5.38933 c 23.9574,5.07772 25.4835,5.53405 26.394,7.89229 1.2567,3.2551 0.3703,9.85744 -1.5861,11.81383 -1.3809,1.38093 -3.9883,1.01434 -25.8729,-3.63759 -13.3855,-2.8453 -24.86165,-5.17328 -25.50255,-5.17328 -0.6408,0 -1.6477,1.9125 -2.2375,4.25 -4.3632,17.29243 -9.9399,30.69243 -17.7366,42.61815 -5.7306,8.76546 -17.8203,20.366 -25.2682,24.24581 -6.2391,3.25016 -6.9414,3.38586 -17.5,3.38155 -13.4489,-0.005 -17.8748,-1.79473 -27.103,-10.95696 l -6.103,-6.05941 -0.7356,156.16924 c -0.4047,85.89309 -0.4045,194.01026 2e-4,240.26046 l 0.7359,84.09123 -2.783,0 -2.783,0 0.7462,-239.87123 c 0.4104,-131.92914 0.4181,-246.43331 0.017,-254.45372 l -0.729,-14.58256 -5.4607,-1.13364 c -3.0034,-0.6235 -5.6066,-0.98183 -5.7849,-0.79628 -0.1783,0.18555 -0.6563,115.19986 -1.0623,255.58736 -0.7164,247.74247 -0.7927,255.25007 -2.5946,255.25007 -1.8032,0 -1.8637,-7.3332 -2.1084,-255.25947 l -0.252,-255.25941 -5.25,0.83568 -5.25,0.83568 0,254.42372 0,254.4238 -2.6497,0 -2.6498,0 0.5285,-209.92642 c 0.588,-233.52278 0.2036,-298.07365 -1.7747,-298.07365 -0.9715,0 -1.1476,-4.06886 -0.7897,-18.25 0.2533,-10.0375 0.095,-23.18101 -0.352,-29.20779 l -0.8126,-10.9578 -13.5,-2.70014 c -13.2112,-2.64238 -16,-2.57519 -16,0.3855 0,3.11248 -4.8128,13.44974 -7.6748,16.48434 -3.626,3.84461 -4.4996,6.39973 -7.3873,21.6066 -2.0742,10.92337 -6.1435,20.50695 -10.844,25.53884 -3.3652,3.60239 -4.3812,7.39316 -4.1814,15.60045 0.191,7.84695 -1.5031,15.03955 -4.7106,20 -1.4226,2.2 -2.9038,6.30821 -3.2915,9.12935 -0.4659,3.38897 -2.4824,8.30879 -5.9434,14.5 -2.881,5.15386 -5.9155,10.66905 -6.7433,12.25598 -1.4507,2.78089 -1.594,6.41964 -1.2451,31.61467 0.2432,17.55823 -0.032,27.28436 -0.8798,31.05595 -0.6184,2.75243 -0.5917,9.93694 0.076,20.28798 l 1.033,16.02643 -3.2834,13.4416 -3.2834,13.4416 1.2075,16.61397 c 0.8104,11.15017 0.874,16.72517 0.1932,16.9521 -0.5579,0.18596 -1.9098,1.09012 -3.0042,2.00924 -1.6642,1.39758 -2.4103,4.86311 -4.558,21.17113 -2.6423,20.06354 -6.1958,32.99415 -14.0157,51.00004 -2.4371,5.6115 -2.9099,8.2769 -3.4589,19.5 -0.6822,13.9461 -2.9774,21.8426 -8.4242,28.9838 -1.7287,2.2665 -3.0565,6.3588 -4.5146,13.9143 -1.1361,5.8869 -2.0656,11.8491 -2.0656,13.2494 0,1.4004 -1.8185,8.015 -4.0411,14.6993 -4.7755,14.3619 -10.1232,43.3707 -10.2037,55.3512 -0.048,7.1097 0.3298,8.9682 2.8448,14 2.5299,5.0615 4.1763,6.7114 12.9,12.9281 7.2124,5.1396 12.9271,10.4082 20.5,18.89983 8.9958,10.087 11.5745,12.3354 18,15.6946 12.3515,6.4572 19.9007,18.3265 14,22.0115 -1.1,0.687 -2,2.004 -2,2.9267 0,3.6291 -1.5666,5.1169 -9.3773,8.9055 -6.7316,3.2652 -9.1543,3.9358 -14.2192,3.9358 -6.8368,0 -11.2347,-1.2451 -16.4198,-4.6485 -1.934,-1.2694 -5.084,-2.6026 -7,-2.9625 -3.708,-0.6965 -14.5713,-7.3321 -20.4412,-12.4859 -1.9484,-1.7107 -3.5425,-2.6997 -3.5425,-2.1979 0,2.0395 3.1211,4.6202 20.509,16.9584 2.4522,1.74 6.7708,3.6596 9.597,4.2657 9.7949,2.1006 13.1282,5.5225 13.2975,13.6507 0.086,4.1201 -0.2892,4.9602 -3.3572,7.5219 -1.8995,1.5862 -5.0495,3.1371 -7,3.4466 -1.9504,0.3095 -4.8963,1.2435 -6.5463,2.0755 -6.1083,3.0804 -9.6913,5.2391 -11.6735,7.0335 -1.505,1.3623 -3.7833,1.8818 -8.7421,1.9933 -3.6887,0.083 -8.4791,0.643 -10.6455,1.2444 -4.8416,1.3443 -6.6913,1.3063 -12.4851,-0.2564 z m 14.1248,-5.006 c 1.9811,-0.7082 4.4363,-0.9432 5.5,-0.5263 4.2939,1.6826 9.2079,0.9804 11.2428,-1.6065 1.0816,-1.375 2.8797,-2.5 3.9958,-2.5 1.1162,0 3.3014,-1.0601 4.8561,-2.3557 1.5547,-1.2956 4.4017,-2.6469 6.3267,-3.0029 1.925,-0.356 4.9625,-1.5393 6.75,-2.6297 2.6485,-1.6154 3.25,-2.6164 3.25,-5.4081 0,-4.3484 -3.8354,-7.7838 -10.6335,-9.5247 -6.8022,-1.7419 -7.5831,-2.1587 -19.3251,-10.3145 -9.8274,-6.826 -11.2012,-8.23 -22.7641,-23.2644 -6.7681,-8.8 -14.0966,-18.2875 -16.2857,-21.0833 -6.7682,-8.64421 -7.7521,-23.03341 -3.5606,-52.07391 4.6873,-32.4757 5.8058,-44.6897 5.9379,-64.8428 l 0.1311,-20 5.9914,-11.8839 5.9914,-11.8838 0.6515,-11.6162 c 0.4552,-8.1162 1.4192,-14.1003 3.1993,-19.8608 5.5496,-17.95831 12.8201,-54.43504 11.1773,-56.07777 -0.262,-0.26201 -3.7284,0.0607 -7.7032,0.71712 -3.9747,0.65641 -14.445,1.45934 -23.2672,1.78427 -18.428,0.67871 -22.25,0.006 -37.4701,-6.59536 -5.174,-2.24406 -9.5171,-3.96839 -9.6514,-3.83185 -0.1344,0.13654 1.4745,10.59825 3.5752,23.24825 5.8476,35.21214 6.4588,42.89384 5.1524,64.76464 -0.8217,13.7555 -1.6281,20.1175 -3.0394,23.9792 -1.0565,2.8909 -3.3084,8.9886 -5.0041,13.5504 -6.1789,16.6228 -7.3534,23.2398 -6.8703,38.7058 0.4332,13.8653 0.4823,14.1138 5.1037,25.8386 5.0368,12.7787 7.8292,22.8331 9.6266,34.6614 0.6268,4.125 2.0937,12.2 3.2597,17.9445 2.0427,10.06381 2.0588,10.68351 0.4402,17.00001 -2.3977,9.3573 -2.1894,12.663 0.9831,15.6032 l 2.646,2.4523 -3.1971,0 c -2.7029,0 -3.421,-0.536 -4.646,-3.4679 -0.7969,-1.9074 -1.4517,-5.3949 -1.4551,-7.75 l -0.01,-4.2821 -5.5243,9 c -3.0384,4.95 -5.789,10.0307 -6.1125,11.2906 -0.8878,3.4576 1.5257,10.7192 4.5051,13.5544 4.1386,3.9385 15.7597,10.3412 25.9338,14.2884 9.0462,3.5095 9.5313,3.8657 18.5,13.5801 13.0316,14.1152 21.6739,18.0354 31.7887,14.4193 z m -0.079,-7.6811 c 0,-0.5766 -1.4625,-1.6839 -3.25,-2.4609 l -3.25,-1.4126 3.55,-0.039 c 3.651,-0.04 5.95,1.3743 5.95,3.6609 0,0.715 -0.675,1.3 -1.5,1.3 -0.825,0 -1.5,-0.4717 -1.5,-1.0483 z m 10.1124,-4.4859 c -1.6418,-2.7826 -2.5746,-3.484 -3.8863,-2.9222 -3.0659,1.313 -7.2261,1.7111 -7.2261,0.6915 0,-0.5455 1.9125,-1.4867 4.25,-2.0915 3.629,-0.939 4.6041,-0.8398 6.6727,0.6785 3.4981,2.5676 4.7774,4.8778 3.4412,6.214 -0.7882,0.7882 -1.6909,0.075 -3.2515,-2.5703 z m 16.8876,-0.1748 c 0,-0.6257 -1.1632,-2.52 -2.5849,-4.2096 -3.954,-4.6991 -2.4032,-6.017 2.1469,-1.8244 3.7558,3.4608 3.8571,3.7107 2.188,5.4001 -0.9625,0.9743 -1.75,1.2595 -1.75,0.6339 z m -83.5123,-131.31101 c -0.4064,-0.6576 1.3524,-5.2514 3.9557,-10.332 3.7484,-7.3153 4.8845,-10.7508 5.6707,-17.148 1.0628,-8.6472 2.254,-12.5 3.8645,-12.5 2.9313,0 -0.3784,20.085 -5.1296,31.1294 -2.3522,5.4678 -7.2487,10.6508 -8.3613,8.8506 z m 18.5266,-77.1885 c -1.0596,-2.2119 -1.0619,-3.5496 -0.013,-7.2962 1.234,-4.4077 1.1823,-4.6942 -1.3181,-7.3041 -3.2913,-3.4353 -5.1171,-11.5633 -4.2165,-18.7708 0.9557,-7.6499 2.1868,-7.5099 3.0049,0.3417 0.7212,6.9215 2.9419,12.8404 6.4673,17.2379 1.8553,2.3142 1.9017,2.8343 0.6242,7 -0.759,2.475 -1.8011,6.075 -2.3158,8 l -0.9357,3.5 -1.2974,-2.7085 z m -5.0143,-46.6728 c 0,-0.4847 2.1037,-1.411 4.6749,-2.0585 3.7023,-0.9322 6.2658,-2.7253 12.3218,-8.6187 6.8231,-6.63982 11.0033,-9.12794 11.0033,-6.54925 0,1.35139 -11.899,12.08605 -16.9457,15.28745 -4.2381,2.6885 -11.0543,3.8841 -11.0543,1.939 z m 102.7334,230.91511 c 3.4158,-3.1824 3.8747,-6.123 1.2829,-8.2218 -1.2308,-0.9966 -3.1176,-1.812 -4.1928,-1.812 -2.7756,0 -5.8235,-1.8213 -5.8235,-3.4798 0,-1.12 1.0782,-0.9703 5.25,0.7289 6.9859,2.8454 9.75,4.6737 9.75,6.4492 0,2.4107 2.3909,0.9292 4,-2.4784 0.825,-1.7472 2.0625,-3.1864 2.75,-3.1983 0.6875,-0.012 1.25,-1.0661 1.25,-2.3427 0,-3.53 -8.1786,-11.4334 -14.8123,-14.3138 -4.5773,-1.9876 -8.3232,-5.1449 -19.1877,-16.1732 -7.425,-7.53691 -17.3457,-16.46931 -22.046,-19.84971 -4.7003,-3.3804 -9.8753,-8.0643 -11.5,-10.4087 l -2.954,-4.2625 0,-18.0855 c 0,-20.993 0.7419,-25.0616 9.2232,-50.5855 4.1863,-12.5985 5.6869,-18.7464 6.3459,-26 1.0798,-11.8852 1.7745,-14.2017 6.798,-22.6682 6.1044,-10.2881 7.1329,-14.0824 7.1329,-26.3145 0,-10.5015 0.1171,-11.0527 5.4657,-25.7447 3.8721,-10.6359 6.642,-20.76166 9.5,-34.72766 2.2189,-10.84281 4.0343,-20.75354 4.0343,-22.02385 l 0,-2.30964 -9,2.89425 c -7.7828,2.50282 -10.5554,2.89426 -20.5,2.89426 -10.8333,0 -11.5,0.11594 -11.5,2 0,1.1 -0.9,2.9 -2,4 -1.5722,1.5722 -2.0008,3.33687 -2.004,8.25 -0.01,12.52958 -6.0388,39.5714 -12.5447,56.25004 -2.3443,6.0097 -2.7461,8.556 -2.8409,18 -0.1178,11.7402 -0.2581,12.1807 -8.9201,28 -2.0963,3.8284 -2.1772,4.944 -1.8848,26.0106 0.2991,21.5548 0.2325,22.4041 -3.2134,41 -4.1128,22.1938 -5.2383,30.8 -6.08,46.4894 -0.6019,11.2179 -0.5728,11.4428 1.1855,9.1694 7.9037,-10.2194 10.1446,-10.7617 5.3679,-1.2991 -1.686,3.3399 -3.0655,7.1179 -3.0655,8.3954 0,2.6151 3.9529,9.15261 11.8429,19.58651 3.9647,5.243 7.318,8.3204 13,11.9305 4.2114,2.6757 10.2987,7.0184 13.5273,9.6505 6.9925,5.7005 12.5654,8.331 18.7815,8.8653 2.8583,0.2456 5.8494,1.3424 7.9631,2.9198 6.7098,5.0076 15.8566,6.3203 19.6186,2.8155 z m 4.8734,-16.1801 c -0.9625,-1.1241 -1.5267,-2.2672 -1.2537,-2.5401 0.9342,-0.9342 4.6469,0.8193 4.6469,2.1947 0,2.3299 -1.5582,2.4885 -3.3932,0.3454 z m -52.9002,-177.48051 c -0.3351,-0.3351 -0.3766,-1.7937 -0.092,-3.2413 0.3932,-2.0011 -0.4574,-3.9336 -3.5486,-8.0625 -2.2361,-2.9869 -4.064,-6.1369 -4.0619,-7 0,-1.7235 3.6023,-8.0694 4.5754,-8.0694 0.3347,0 0.3048,2.2083 -0.066,4.9073 -0.6382,4.6403 -0.4801,5.1231 2.9061,8.8712 2.6736,2.9594 3.5811,4.8524 3.5811,7.4702 0,3.3333 -1.9893,6.4286 -3.2934,5.1245 z m -10.4786,-30.6232 c 0.2171,-0.6875 2.6086,-2.748 5.3144,-4.5788 3.6711,-2.484 5.6179,-3.1892 7.6708,-2.7786 2.4663,0.4933 3.171,-0.068 6.8062,-5.4212 2.2304,-3.2843 4.4884,-5.9714 5.0179,-5.9714 0.5295,0 0.9627,1.5207 0.9627,3.3794 0,4.9127 -6.2452,11.152 -12.1466,12.135 -2.3944,0.3989 -6.0229,1.5713 -8.0635,2.6054 -4.3127,2.1855 -6.1175,2.39 -5.5619,0.6302 z m -0.728,-74.96065 4,-1.48379 0.636,-12.9028 c 0.3498,-7.09654 0.6873,-14.32856 0.75,-16.07116 0.1059,-2.94146 0.5614,-3.33533 6.361,-5.5 5.1468,-1.92103 7.5553,-3.69645 13.6765,-10.08164 4.0863,-4.2625 8.0252,-7.75 8.7531,-7.75 2.4805,0 1.3299,3.14349 -3.4134,9.32596 -7.1165,9.2756 -12.8816,14.51183 -16.7835,15.24383 -5.2572,0.98626 -5.811,2.29234 -5.0165,11.83042 0.8123,9.75085 0.5725,9.56409 12.3052,9.58614 7.6366,0.0143 17.0246,-2.09868 28.9294,-6.5114 l 7.0149,-2.60017 -0.4788,-18.68739 c -0.4691,-18.30949 -0.4224,-18.8675 2.3104,-27.59426 l 2.7893,-8.90686 -1.0756,-16.59314 c -0.6205,-9.57263 -0.7268,-19.13171 -0.2512,-22.59313 0.4535,-3.3 0.8625,-8.10582 0.9089,-10.6796 l 0.084,-4.67961 -4.7085,2.6316 c -3.8221,2.13624 -6.3633,2.71071 -13.5,3.05192 -9.6382,0.46081 -12.3138,-1.12857 -3.631,-2.15692 6.8655,-0.81311 17.6338,-4.46171 19.9223,-6.7502 2.1508,-2.15081 5.3591,-12.39315 4.3788,-13.97925 -0.4438,-0.71817 -1.402,-0.4209 -2.8171,0.874 -2.7385,2.5059 -9.0174,5.64932 -14.1445,7.08126 -7.9452,2.21898 -27.1644,3.28095 -37.3762,2.06525 -12.5226,-1.49077 -30.3217,-6.01155 -37.0074,-9.39943 -5.8002,-2.93918 -14.1165,-10.61699 -14.1165,-13.0327 0,-2.966 -1.8542,-1.4722 -3.3809,2.72368 -4.3017,11.82262 -1.1566,16.04124 17.357,23.28155 6.6324,2.5938 12.3403,5.17136 12.6843,5.7279 1.0514,1.70118 -9.6342,0.21738 -15.9757,-2.21839 -3.1985,-1.22851 -8.7705,-4.21532 -12.3824,-6.63736 -3.6119,-2.42203 -6.7517,-4.4037 -6.9774,-4.4037 -0.2256,0 -2.8327,1.78957 -5.7935,3.97682 -6.5595,4.84579 -10.95,13.0729 -12.5535,23.52318 -0.5907,3.85 -2.5813,13.75 -4.4235,22 -4.079,18.26725 -4.1156,18.54142 -6.2237,46.5 -2.5411,33.70381 -3.1833,29.82477 5.6693,34.24383 17.8766,8.92359 22.1318,9.71607 50,9.31205 14.1861,-0.20566 20.5901,-0.68705 23.5,-1.76649 z m -73.0406,-16.85523 c -1.1409,-1.84592 0.6028,-15.89535 3.2187,-25.93416 2.1572,-8.2787 2.5028,-11.94259 2.688,-28.5 0.1317,-11.76999 0.6555,-20.02449 1.3766,-21.69229 0.8249,-1.90808 2.6041,-3.20379 6.1081,-4.44831 4.8404,-1.71916 4.9578,-1.85854 5.5924,-6.64221 1.1546,-8.70388 8.6276,-24.71719 11.5348,-24.71719 1.6846,0 1.2108,1.80411 -2.914,11.09691 -2.1649,4.87715 -4.2482,10.94912 -4.6297,13.49327 l -0.6937,4.62572 3.3797,-0.72986 c 9.4119,-2.03252 11.9244,-4.33418 14.3649,-13.15952 0.8177,-2.95677 6.6766,-8.56478 7.7874,-7.45393 0.5102,0.51019 -0.416,3.18378 -2.1949,6.33588 -1.6927,2.99929 -3.0777,6.24936 -3.0777,7.22239 0,0.97303 -1.4938,3.26297 -3.3196,5.08877 -3.4864,3.48643 -9.6426,5.7653 -20.2288,7.48826 -3.211,0.5226 -6.4124,1.52441 -7.1143,2.22625 -3.0523,3.05231 -4.2979,24.79178 -1.8224,31.80791 1.4618,4.14337 1.3937,4.71603 -1.947,16.37573 -1.904,6.64522 -3.9995,15.5826 -4.6567,19.86085 -1.1808,7.6874 -2.1305,9.79358 -3.4519,7.65553 z m 70.5302,-23.94739 c -1.7482,-2.20728 -5.2735,-5.24478 -7.8341,-6.75 -4.535,-2.66596 -4.5832,-2.74506 -1.8636,-3.05724 4.912,-0.5638 14.58,6.35819 16.1606,11.57047 1.1707,3.86038 -2.8854,2.7538 -6.4629,-1.76323 z m 0.2406,-31.53717 c -10.202,-2.74662 -15.2302,-6.25476 -15.2302,-10.62603 0,-3.64774 3.4586,-5.50383 7.6522,-4.10665 3.7132,1.23712 4.66,4.65052 1.0378,3.74141 -4.0737,-1.02245 -4.0282,1.28944 0.079,4.00743 8.0986,5.35937 27.7497,5.37543 39.8309,0.0326 5.6493,-2.49842 7.2269,-2.64482 5.9325,-0.55056 -2.1229,3.43497 -20.3799,9.09812 -28.9706,8.98643 -2.7839,-0.0362 -7.4331,-0.70426 -10.3315,-1.48459 z m -6.7286,-21.77497 c -3.0141,-2.27908 -1.4681,-2.7854 4.9066,-1.60698 8.1332,1.50351 17.1697,-0.11466 34.5918,-6.19432 16.7232,-5.83575 20.8264,-6.96327 21.4818,-5.90287 1.4698,2.37817 -8.2589,6.91937 -23.9818,11.19434 -13.5783,3.69189 -33.6357,5.0525 -36.9984,2.50983 z m 47.5296,-44.65938 c 7.8533,-1.13646 18.7101,-4.45864 21.4688,-6.56945 1.6839,-1.28835 2.0974,-3.14402 2.6161,-11.73804 0.3388,-5.61427 0.9396,-11.40327 1.335,-12.86445 0.6771,-2.50228 0.5272,-2.64759 -2.5799,-2.5 -2.2911,0.10883 -3.3987,-0.32681 -3.6261,-1.42615 -0.2494,-1.20604 0.3371,-1.49679 2.4638,-1.22134 3.6164,0.46838 4.2575,-0.0691 8.3572,-7.00728 1.8886,-3.1963 4.439,-7.4713 5.6675,-9.5 3.295,-5.44142 2.9978,-6.93974 -1.3492,-6.8026 -4.3501,0.13723 -5.9889,-1.84374 -4.9482,-5.98116 l 0.7307,-2.90478 1.3683,3.25 c 1.6295,3.87035 2.8127,4.05024 5.7603,0.87573 4.4599,-4.80331 7.853,-11.66784 8.9048,-18.01545 1.4864,-8.9699 0.6758,-11.61028 -3.5643,-11.61028 -3.908,0 -6.1227,-2.13422 -7.1308,-6.87137 -0.4427,-2.0805 -1.4425,-3.561 -2.6113,-3.86663 -2.2842,-0.59734 -2.5257,-2.262 -0.3281,-2.262 2.6704,0 5.4342,1.98366 5.4342,3.90033 0,2.57484 3.7922,7.09967 5.9502,7.09967 2.8918,0 3.8326,-2.02296 4.61,-9.91272 0.6923,-7.02725 0.6318,-7.37158 -1.1649,-6.62141 -4.0614,1.69576 -6.3953,1.79638 -6.3953,0.27571 0,-0.83342 1.2348,-1.73853 2.7983,-2.05124 3.1565,-0.6313 7.5718,-4.66195 10.0446,-9.16956 1.3592,-2.47767 1.6351,-5.80754 1.5345,-18.52078 -0.1398,-17.65249 -1.5377,-23.36363 -7.8104,-31.90876 -2.0739,-2.82524 -3.567,-6.02589 -3.567,-7.64648 0,-2.94639 -2.4687,-6.44476 -4.548,-6.44476 -1.3838,0 -2.452,2.1985 -2.452,5.0466 0,1.80194 -2.6852,3.9534 -4.9342,3.9534 -1.7919,0 -1.1859,-2.44384 0.9342,-3.76793 2.7074,-1.69079 2.6506,-7.87042 -0.1027,-11.17866 -2.2456,-2.69813 -3.3602,-1.96658 -4.4896,2.94659 -1.0055,4.37424 -1.3191,5 -2.5051,5 -1.5825,0 -0.2796,-9.73656 1.7129,-12.79977 0.8227,-1.26487 4.6556,-5.53987 8.5174,-9.5 3.8619,-3.96013 7.8743,-8.84519 8.9165,-10.8557 2.9711,-5.73172 5.9183,-7.46138 13.9919,-8.21175 3.9322,-0.36546 7.9912,-1.11499 9.0201,-1.66563 3.2231,-1.72495 4.2317,-8.28125 3.6099,-23.46715 -0.7023,-17.15269 -3.9031,-31.93212 -9.5043,-43.88472 -4.7363,-10.10709 -10.1697,-16.28392 -17.9149,-20.36613 -13.6276,-7.18267 -28.1154,-6.88958 -43.509,0.88018 -12.3889,6.25322 -17.0111,11.73344 -21.3581,25.32286 -4.5283,14.15583 -2.1622,25.01015 8.6232,39.55886 6.6923,9.02733 6.6297,10.98839 -0.5827,18.25855 -3.9603,3.99196 -7.056,6.11123 -10.69,7.31826 -2.8135,0.93449 -8.5174,3.29104 -12.6754,5.23679 -7.227,3.38187 -8.0667,3.54132 -19.0601,3.61962 -10.7937,0.0769 -11.9204,0.28023 -18.3456,3.31105 -9.5062,4.48411 -18.5977,13.81625 -26.49,27.19115 -3.3904,5.74556 -6.1644,10.69889 -6.1644,11.00741 0,0.30852 3.6376,0.39576 8.0834,0.19386 11.6717,-0.53004 22.9166,0.66606 22.9166,2.43758 0,1.1126 -1.8825,1.41468 -8.8163,1.41468 -11.554,0 -19.2233,1.4948 -26.6371,5.19177 -6.708,3.34507 -12.5582,8.36824 -12.5249,10.7544 0.012,0.85461 1.587,6.01653 3.5,11.47095 4.1938,11.95713 4.6269,20.45403 1.4045,27.55801 -1.1579,2.55251 -1.7847,5.45248 -1.459,6.75 0.4549,1.81249 0.1542,2.27487 -1.4795,2.27487 -3.2946,0 -3.4132,-2.57025 -0.5123,-11.10679 3.1676,-9.32133 3.0658,-10.56285 -2.1116,-25.73434 -3.0707,-8.99813 -3.6731,-12.39357 -4.638,-26.1451 -0.8617,-12.28041 -1.4006,-15.69203 -2.4173,-15.30188 -0.7204,0.27642 -1.3085,-0.17363 -1.3085,-1.00131 0,-1.71628 5.6584,-6.96541 9.8387,-9.12714 4.0486,-2.0936 10.1597,-9.20522 10.1711,-11.83632 0.01,-1.23592 1.1304,-4.6543 2.5,-7.59642 1.3696,-2.94211 2.4902,-5.96924 2.4902,-6.72694 0,-2.22243 -4.0922,-4.25505 -10,-4.96703 -3.025,-0.36456 -8.1272,-1.59125 -11.3382,-2.72596 -4.9529,-1.75023 -5.9807,-1.84835 -6.7772,-0.64695 -1.13,1.70452 -0.3534,6.64588 1.3714,8.72578 1.7494,2.10964 7.1099,4.1904 10.7953,4.1904 2.0522,0 2.9705,0.4266 2.6907,1.25 -0.2733,0.80451 -2.5011,1.25834 -6.2508,1.27341 l -5.8262,0.0234 -3.4332,4.97659 c -3.0112,4.365 -3.3774,5.56033 -2.9792,9.72659 0.5296,5.54295 -1.6932,6.85657 -2.5383,1.5 -0.5813,-3.6846 0.9769,-12.44108 2.3667,-13.30002 1.6786,-1.03747 0.9525,-2.22394 -1.831,-2.99157 -4.0257,-1.11025 -14.209,-1.33375 -14.8321,-0.32553 -0.8713,1.4098 -5.6246,0.99004 -7.445,-0.65747 -1.8492,-1.6735 -13.672,-4.10956 -14.7437,-3.03789 -1.4088,1.40874 4.3053,9.76315 11.8775,17.36594 5.8567,5.88028 7.8933,8.60526 7.8933,10.56086 0,2.85581 -0.9121,3.32351 -2.8,1.43568 -0.9333,-0.93333 -1.2043,0.9 -1.2194,8.25 -0.025,12.40431 -1.9857,25.67774 -5.9735,40.45 -2.9292,10.85116 -3.1912,12.95736 -2.7361,22 0.7748,15.39284 6.306,30.64633 14.1024,38.89012 2.2697,2.39986 4.9207,5.52468 5.8912,6.94405 2.1821,3.19133 7.5625,4.39431 11.8013,2.63857 1.6678,-0.69085 4.6636,-3.2467 6.6572,-5.67967 2.9582,-3.61002 6.0437,-5.57847 16.7771,-10.70306 16.0452,-7.66067 23.397,-12.55142 30.66,-20.39629 6.3382,-6.846 13.6199,-20.84872 16.3131,-31.37021 1.183,-4.62158 2.8157,-7.96932 5.3045,-10.87697 3.266,-3.81557 3.4409,-4.31348 1.9088,-5.43375 -2.5027,-1.83004 -2.0677,-2.51278 1.601,-2.51278 2.6176,0 4.2137,0.96802 7.8317,4.75 2.4993,2.6125 5.9775,7.05127 7.7294,9.86392 6.7352,10.81345 18.3775,19.45692 32.1513,23.86982 7.7542,2.4843 8.0386,3.24258 1.5217,4.05683 -5.4194,0.6771 -6.1676,0.4838 -14.8918,-3.8471 -8.1334,-4.03762 -10.4116,-5.82783 -19.8865,-15.62674 -5.8855,-6.0867 -11.2054,-11.06673 -11.8221,-11.06673 -2.0582,0 -7.9208,6.75404 -7.9424,9.15 -0.033,3.72305 -4.5241,15.48779 -8.2762,21.68231 -1.8882,3.11723 -5.0688,8.34122 -7.0679,11.60886 -1.9991,3.26765 -3.6348,6.80432 -3.6348,7.85928 0,1.05496 2.0095,6.53289 4.4654,12.17317 4.1647,9.56463 7.1365,19.25782 6.1934,20.201 -0.2251,0.22507 -1.3017,-1.00024 -2.3924,-2.72292 -1.7481,-2.76097 -2.0677,-2.91407 -2.6971,-1.29192 -1.7623,4.54253 -1.6892,15.3333 0.1818,26.84022 1.0731,6.6 1.7398,13.72285 1.4815,15.82855 -0.4371,3.56306 -0.093,4.19319 4.9591,9.08676 4.4264,4.28734 7.0794,5.85606 14.3686,8.49622 9.8761,3.57716 19.5675,6.29406 20.1989,5.6626 0.7854,-0.78536 -3.593,-9.4199 -8.1555,-16.08325 -2.9055,-4.24324 -4.6037,-7.80896 -4.6037,-9.66616 0,-3.95057 1.6484,-2.78227 4.3736,3.09982 1.1924,2.5737 3.82,6.6955 5.8392,9.15955 3.9602,4.833 6.1607,9.5027 5.2058,11.04771 -0.3277,0.53019 -0.345,1.61742 -0.038,2.41609 0.4504,1.17366 3.1999,1.44831 14.3386,1.4323 7.5798,-0.0109 16.7204,-0.44512 20.3125,-0.96494 z m -20.4367,-10.86249 c -1.8149,-2.93644 0.2573,-19.3251 2.6288,-20.79072 0.772,-0.47715 0.8512,1.04462 0.2721,5.23257 -0.449,3.24796 -0.7567,8.26789 -0.6837,11.15539 0.1199,4.74652 -0.834,6.64085 -2.2172,4.40276 z m 30.4055,-1.20994 c 0,-0.58145 0.5039,-3.05821 1.1197,-5.50391 0.8596,-3.41361 0.8283,-5.15027 -0.1346,-7.47489 -1.6156,-3.90051 -0.3683,-5.14913 2.101,-2.10324 2.3307,2.8748 2.3999,5.35664 0.3199,11.46108 -1.4379,4.22007 -3.406,6.31236 -3.406,3.62096 z m -17,-18.78783 c 0,-2.41203 4.4618,-4.6576 9.3555,-4.7085 2.8295,-0.0294 5.8195,-0.25443 6.6445,-0.5 0.8652,-0.25751 1.5,0.1884 1.5,1.05351 0,1.15152 -1.2777,1.5 -5.5,1.5 -3.6295,0 -6.3408,0.59515 -7.9725,1.75 -2.7052,1.91474 -4.0275,2.21185 -4.0275,0.90499 z m -4.6404,-6.66031 c -1.2003,-3.12799 0.1308,-16.41359 1.8131,-18.09586 3.1113,-3.11138 3.8433,-0.53473 1.2393,4.36269 -2.1215,3.99014 -2.399,5.49369 -1.8399,9.96867 0.6296,5.03945 0.012,6.95617 -1.2125,3.7645 z m 25.6404,-1.94546 c 0,-3.94574 2.3389,-11.53583 4.1557,-13.48593 2.7901,-2.99476 3.4748,-1.85258 1.6046,2.67651 -0.854,2.06811 -2.0675,5.6727 -2.6966,8.0102 -1.0922,4.0577 -3.0637,5.85903 -3.0637,2.79922 z m -56.8,-23.28741 c -4.1218,-6.85743 -5.2,-9.54394 -5.2,-12.95653 0,-2.3679 0.45,-4.30528 1,-4.30528 0.55,0 1,1.09571 1,2.4349 0,3.94996 1.5901,7.0368 6.4346,12.49139 4.6666,5.25437 5.5699,7.99519 3.2654,9.90779 -1.01,0.83818 -2.4606,-0.85174 -6.5,-7.57227 z m 39.8,4.50819 c 0,-0.84699 1.2016,-2.32724 2.6701,-3.28945 2.2412,-1.46854 4.0217,-1.64557 11.0874,-1.10245 l 8.4174,0.64701 3.323,-3.32296 c 1.8276,-1.82762 3.8255,-5.18927 4.4397,-7.47033 1.6703,-6.20307 3.5351,-6.6968 2.7157,-0.71905 -0.8961,6.53832 -4.9537,13.2985 -8.4396,14.06082 -1.4925,0.3264 -3.2613,0.76104 -3.9306,0.96586 -0.6693,0.20482 -3.539,-0.31719 -6.3771,-1.16002 -5.5,-1.63332 -9.3128,-1.2088 -12.156,1.35347 -1.5596,1.40557 -1.75,1.4096 -1.75,0.0371 z m -12.3333,-6.43667 c -1.1345,-1.13454 -0.7357,-7.23229 0.6974,-10.66214 1.6281,-3.89668 7.0034,-8.67119 9.7623,-8.67119 3.5003,0 7.3396,-2.70502 9.6344,-6.78812 1.2316,-2.1913 2.2392,-4.64068 2.2392,-5.44305 0,-2.60891 3.395,-4.62029 9.0048,-5.33491 6.0765,-0.77408 7.7809,-1.74002 9.0747,-5.14282 0.4791,-1.26011 1.3322,-2.2911 1.8958,-2.2911 2.0647,0 0.942,4.02463 -2.084,7.47111 -2.7072,3.08325 -3.627,3.50764 -7.1194,3.2848 -3.801,-0.24253 -4.1851,0.005 -7.349,4.74409 -5.9101,8.85177 -7.2906,10.2526 -10.7411,10.89992 -7.0884,1.3298 -14.9073,11.16328 -13.1867,16.58438 0.6161,1.94135 -0.4497,2.72774 -1.8284,1.34903 z m 56.3333,-10.30985 c 0,-0.60201 -2.025,-1.96257 -4.5,-3.02348 -4.2865,-1.83745 -4.5,-2.12311 -4.5,-6.02348 0,-4.53921 1.4914,-4.56878 2.4841,-0.0492 0.4814,2.19184 1.6042,3.291 4.5769,4.48044 3.7657,1.50672 5.0737,3.77301 2.939,5.09228 -0.55,0.33992 -1,0.12548 -1,-0.47652 z m -186.8755,-5.00346 c -3.0675,-2.0937 -3.9389,-3.154 -2.9151,-3.54688 2.1799,-0.83651 11.2906,2.84159 11.2906,4.55817 0,2.54876 -3.8387,2.08526 -8.3755,-1.01129 z m 149.2796,1.82476 c -1.2519,-2.02571 1.7739,-3.28689 9.4736,-3.94858 4.3166,-0.37095 8.8175,-0.98207 10.0021,-1.35804 2.5864,-0.82089 5.8201,-6.80872 6.7216,-12.44639 1.0524,-6.58175 2.7744,-4.96084 2.0538,1.93331 -1.2519,11.97763 -5.0532,15.56697 -15.5539,14.68663 -4.7776,-0.40054 -7.6029,-0.16407 -9.4424,0.79028 -1.7179,0.8912 -2.8426,1.00967 -3.2548,0.34279 z m -31.4048,-7.84613 c -1.7852,-3.33563 -9.8521,-6.74707 -14.7427,-6.23454 -3.076,0.32237 -5.4004,-0.15836 -8.4492,-1.74749 -4.0393,-2.10541 -4.2584,-2.12021 -5.5356,-0.37361 -0.7314,1.00023 -1.8417,3.52724 -2.4674,5.61559 -1.3477,4.49829 -3.1748,4.40879 -3.6246,-0.17756 -0.277,-2.825 0.4977,-4.11672 5.75,-9.58643 7.0039,-7.29383 7.5343,-9.71776 3.0636,-14.00093 -4.5905,-4.39806 -2.1153,-5.42214 3.8513,-1.59338 7.2467,4.65019 10.7883,5.46671 13.2096,3.04545 1.2179,-1.21786 1.9581,-3.3486 1.9788,-5.69575 0.032,-3.62786 0.1805,-3.46774 4.5613,4.91597 3.845,7.35835 5.0849,8.88883 8.217,10.14295 2.0288,0.81234 4.5459,2.42515 5.5936,3.58403 1.8733,2.07202 1.8733,2.10685 0,2.095 -2.9645,-0.0187 -10.606,-4.78791 -13.7256,-8.56636 -2.4027,-2.91016 -3.1194,-3.25644 -4.8372,-2.33712 -1.2095,0.64733 -3.9826,0.80882 -6.9294,0.40354 -3.7045,-0.50951 -4.9128,-0.35689 -4.9128,0.62054 0,0.71293 -1.4573,2.79979 -3.2384,4.63746 -2.6945,2.77996 -2.9884,3.49941 -1.75,4.28289 2.1133,1.33697 7.7019,2.29504 9.4576,1.62133 1.293,-0.49617 1.2718,-0.93947 -0.1641,-3.44147 -1.039,-1.81035 -1.3634,-3.58105 -0.8777,-4.79034 0.7541,-1.87722 0.7954,-1.87783 1.9217,-0.0286 5.4203,8.89957 7.4011,11.19106 10.5548,12.2104 3.4737,1.12276 6.0961,3.74296 6.0961,6.09094 0,1.98074 -1.7912,1.56736 -3.0007,-0.69248 z m -112.2961,-7.2046 c -2.7317,-2.73173 -6.9958,-17.13978 -6.5134,-22.00849 0.5553,-5.60507 2.4799,-4.22013 3.1586,2.27293 0.7003,6.70046 3.3451,13.63105 6.0558,15.86926 1.9012,1.5698 7.1035,1.9191 9.8458,0.66108 1.265,-0.58028 1.75,-0.36712 1.75,0.769 0,1.97632 -2.3272,3.21568 -7.7136,4.1078 -3.6258,0.60052 -4.5444,0.36728 -6.5832,-1.67158 z m 28.2968,-23.69859 c 0,-0.4975 2.5331,-2.33409 5.629,-4.08132 10.8871,-6.14434 19.6381,-16.99155 23.5788,-29.22718 2.1591,-6.70369 4.7922,-9.10791 4.7922,-4.37557 0,3.76017 -6.7196,18.53484 -11.0212,24.23265 -4.4014,5.83005 -11.2005,11.72936 -15.3259,13.29786 -3.4082,1.29576 -7.6529,1.38093 -7.6529,0.15356 z m 122,-0.0569 c 0,-0.5288 1.9125,-1.44985 4.25,-2.04677 7.0917,-1.81099 9.678,-3.11745 12.2703,-6.1982 2.992,-3.5558 3.1904,-8.10436 0.929,-21.29357 -0.8488,-4.95 -1.7725,-10.8 -2.0527,-13 -0.5018,-3.9403 -0.4867,-3.96269 1.0104,-1.5 3.8183,6.28108 6.012,15.40338 6.0527,25.16989 0.047,11.27624 -1.1992,13.85974 -8.4801,17.58011 -4.4966,2.29766 -13.9796,3.17173 -13.9796,1.28852 z m -72.25,-53.60146 c -1.8342,-1.88423 -0.3052,-2.48932 5.7274,-2.26659 5.3461,0.19739 6.9981,-0.14589 9.4595,-1.96568 3.4411,-2.54411 6.0631,-2.85889 6.0631,-0.72788 0,2.82624 -4.8993,4.84833 -12.8343,5.29707 -4.2161,0.23843 -8.0032,0.0868 -8.4157,-0.33692 z m 82.5311,-4.47047 c -0.3175,-1.21403 -1.7481,-4.51567 -3.1792,-7.33698 -3.4157,-6.73421 -7.2506,-8.78429 -23.6019,-12.61722 -14.4642,-3.39061 -20.5,-5.64718 -20.5,-7.6643 0,-1.93903 2.4634,-1.66443 7.2899,0.81262 2.3156,1.18841 9.9911,3.42855 17.0567,4.9781 7.0656,1.54954 14.3623,3.75415 16.2149,4.89912 3.1101,1.92216 10.0466,12.88725 10.6992,16.91316 0.4046,2.49603 -3.3272,2.51057 -3.9796,0.0155 z m -52.8485,-14.88561 c 0.6078,-6.96813 0.43,-8.43902 -1.4809,-12.25 -1.1944,-2.38206 -3.3342,-5.57149 -4.7551,-7.08761 -2.0888,-2.22886 -2.3385,-2.99464 -1.3042,-4 1.0272,-0.99852 2.0497,-0.35714 5.1916,3.25659 5.0093,5.76155 5.7162,9.12882 4.8804,23.25 -0.2004,3.38613 -0.7034,4.75 -1.7519,4.75 -1.2286,0 -1.357,-1.30345 -0.7799,-7.91898 z m 39.6901,-13.83102 c -5.4827,-9.32995 -9.0651,-22.06414 -5.9113,-21.01287 0.6663,0.22209 1.9572,2.91587 2.8686,5.98618 0.9115,3.07031 3.2913,8.27246 5.2886,11.56035 3.4998,5.76134 4.6668,10.21634 2.6761,10.21634 -0.5254,0 -2.7403,-3.0375 -4.922,-6.75 z m 31.1552,-25.27087 c -1.2222,-0.49175 -6.9141,-1.54799 -12.6487,-2.3472 -12.8002,-1.78391 -15.171,-3.1731 -17.0683,-10.00139 -2.5214,-9.07409 -2.9381,-13.63054 -1.2466,-13.63054 1.7683,0 3.6857,4.97731 3.6857,9.56744 0,1.79794 0.2805,3.99996 0.6234,4.89337 1.0862,2.83061 7.9359,5.47102 18.1873,7.01075 11.5524,1.73515 13.1893,2.2484 13.1893,4.13543 0,1.57028 -1.4586,1.68523 -4.7221,0.37214 z m 161.0603,157.6542 c 17.2073,-8.4492 33.6117,-33.03074 40.6405,-60.89841 7.5257,-29.83772 6.165,-58.82792 -3.8868,-82.80869 -15.211,-36.28923 -47.95,-39.80438 -72.1095,-7.74232 -10.5324,13.97757 -10.9824,15.32167 -10.9824,32.8076 0,17.72555 -2.2773,15.38599 19,19.51908 7.975,1.54913 14.8306,3.30548 15.2347,3.903 0.4041,0.59753 0.7416,2.92047 0.75,5.1621 0.011,2.95691 -0.6023,4.64655 -2.2347,6.15534 l -2.25,2.07966 -14.5,-2.80219 c -7.975,-1.5412 -14.7091,-2.60197 -14.9647,-2.35727 -0.2556,0.24471 -0.326,11.67532 -0.1564,25.40137 0.278,22.50185 0.1516,24.8963 -1.2853,24.34493 -1.3874,-0.53242 -1.5936,0.58737 -1.5936,8.65793 0,8.66401 0.2029,9.58557 3.1059,14.10949 4.2644,6.6455 11.9711,13.32951 18.1961,15.78155 7.7957,3.07069 19.2403,2.51482 27.0362,-1.31317 z m -11.3382,-10.70698 c 0,-0.59051 2.5023,-3.36059 5.5606,-6.15573 16.517,-15.0956 27.6694,-41.58468 30.5767,-72.62544 2.6238,-28.01476 -3.3531,-52.46686 -16.2827,-66.61393 -4.0614,-4.44385 -4.8885,-5.88868 -3.9119,-6.83332 1.9131,-1.85039 10.4616,8.24913 15.0681,17.80207 8.8369,18.32602 11.0905,42.7373 6.438,69.73577 -4.4066,25.57161 -12.5284,42.85446 -27.263,58.01423 -6.9988,7.20082 -10.1858,9.28973 -10.1858,6.67635 z m -128.9255,-38.49043 c 1.8058,-3.62958 3.5675,-9.45078 4.3882,-14.5 2.007,-12.34775 3.6678,-18.20852 5.6449,-19.91935 1.8386,-1.59103 6.893,-8.85626 6.8916,-9.90612 -7e-4,-0.53816 -2.6384,-0.59092 -10.787,-0.21578 -1.7372,0.08 -2.2413,0.64687 -2.0945,2.35533 0.4019,4.6764 -0.1334,6.75 -1.7427,6.75 -1.2797,0 -1.4948,-0.65095 -1.0122,-3.06382 0.6523,-3.26167 -1.8442,-9.43104 -4.8138,-11.89558 -2.5886,-2.14834 -2.839,-0.52948 -0.5977,3.86394 3.9997,7.84007 5.3527,15.67457 4.7655,27.59546 -0.582,11.81684 -3.0751,20.70433 -6.7377,24.01897 -1.0885,0.98505 -1.9629,2.95876 -1.9431,4.38602 l 0.036,2.59501 2.4927,-3 c 1.371,-1.65 3.8504,-5.72884 5.5098,-9.06408 z m 89.9255,-55.91687 0,-62.48095 -2.25,-0.51096 c -6.357,-1.44364 -11.3303,-2.48087 -12,-2.50269 -0.4125,-0.0134 -0.75,28.06865 -0.75,62.40465 l 0,62.4291 5.75,1.13424 c 3.1625,0.62383 6.2,1.29521 6.75,1.49195 0.55,0.19674 1.3375,0.39324 1.75,0.43666 0.4125,0.0434 0.75,-28.03748 0.75,-62.402 z m -22.0196,59.51144 2.5196,-0.67335 0.3184,-24.42857 c 0.1751,-13.43571 0.01,-41.23416 -0.3686,-61.77432 l -0.687,-37.34576 -4.6314,0.66752 c -2.5472,0.36713 -5.6439,0.90901 -6.8814,1.20416 l -2.25,0.53665 0,61.95286 0,61.95287 4.7304,-0.70936 c 2.6017,-0.39015 5.8642,-1.01236 7.25,-1.3827 z m 169.41275,-17.61228 c 0.8941,-2.33016 0.7385,-5.21889 -0.3164,-5.87083 -1.8516,-1.14435 -47.21125,-10.58227 -48.13015,-10.01437 -0.5206,0.32176 -0.9466,2.02987 -0.9466,3.79579 l 0,3.21076 23.75005,5.12353 c 13.0625,2.81794 24.0394,5.17153 24.3931,5.23022 0.3536,0.0587 0.9161,-0.60511 1.25,-1.4751 z m -573.93175,-8.76934 c 14.2003,-6.50717 25.8129,-19.43518 36.0637,-40.14887 11.1477,-22.52589 15.6507,-43.08636 15.7689,-72 0.094,-22.98583 -2.2614,-36.42676 -9.4398,-53.86707 -6.8913,-16.74258 -16.6871,-28.99582 -27.5744,-34.49172 -24.2049,-12.21857 -50.17808,1.43232 -68.16401,35.82533 -5.68733,10.87543 -12.91692,31.56706 -13.34318,38.18924 l -0.27257,4.23448 24.92508,4.05487 c 24.90013,4.05081 24.92691,4.05787 26.74478,7.05487 2.8337,4.67193 2.3652,8.9591 -1.41986,12.99299 l -3.25,3.46362 -24.5,-3.95851 c -13.475,-2.17718 -24.8375,-3.96742 -25.25,-3.97831 -1.40962,-0.0372 -0.79002,29.38784 0.82235,39.05399 2.084,12.49358 8.00317,29.83096 13.41225,39.28481 10.99249,19.2124 24.44201,28.07546 41.51536,27.35811 6.0913,-0.25592 9.4224,-0.98789 13.9614,-3.06783 z m -10.4614,-9.73938 c 0,-0.59978 1.969,-3.41228 4.3754,-6.25 15.0236,-17.71581 24.4098,-38.15657 28.7726,-62.65949 2.974,-16.70263 3.7023,-48.14536 1.4258,-61.55628 -3.0068,-17.71362 -9.478,-33.91764 -18.9261,-47.39144 -4.1927,-5.97909 -4.8722,-8.05228 -2.6392,-8.05228 1.4673,0 9.4805,11.94102 13.7569,20.5 9.6344,19.28263 12.7311,36.11247 11.9598,64.99874 -1.02,38.19821 -7.235,60.78272 -23.2367,84.43812 -9.354,13.82817 -15.4885,20.15438 -15.4885,15.97263 z m 73.3576,-0.0562 c 0.3533,-3.38068 0.6416,-36.34318 0.6406,-73.25 l 0,-67.10331 -5.7281,-1.68674 c -3.1504,-0.9277 -5.8897,-1.52507 -6.0873,-1.32749 -0.1976,0.19759 0.3468,3.77312 1.2097,7.94562 5.501,26.6001 3.5873,60.54205 -4.9344,87.51796 -2.3829,7.54331 -2.4841,8.87104 -2.2263,29.21288 l 0.2701,21.3104 7,1.68208 c 3.85,0.92515 7.4984,1.71881 8.1076,1.76369 0.6355,0.0468 1.3813,-2.53771 1.75,-6.06509 z m -27.2574,3.10796 3.6001,-0.95765 0.6499,-9.15543 c 0.8579,-12.0864 0.822,-18.84842 -0.1002,-18.84717 -0.4125,5.6e-4 -2.0363,2.29122 -3.6084,5.09037 -1.5722,2.79915 -5.0597,7.99752 -7.75,11.55194 -3.9978,5.2818 -4.8916,7.20714 -4.8916,10.53746 l 0,4.07485 4.25,-0.66835 c 2.3375,-0.3676 5.8701,-1.09929 7.8502,-1.626 z m 425.7163,-11.21125 c 0.174,-1.5125 0.1317,-2.75 -0.094,-2.75 -0.2258,0 -7.0759,-1.35 -15.2225,-3 -8.1466,-1.65 -14.9668,-3 -15.156,-3 -0.1892,0 -0.344,1.36412 -0.344,3.03138 0,3.60276 0.06,3.63081 13.9581,6.57672 13.7294,2.91008 16.4406,2.77207 16.8583,-0.8581 z m -298.9078,-8.75 c 0.4965,0 2.2564,-2.89244 3.9107,-6.42764 3.1617,-6.75652 9.263,-16.27479 14.8554,-23.17535 1.8289,-2.25665 3.3252,-4.34795 3.3252,-4.64735 0,-0.55581 -11.373,-2.74966 -14.2543,-2.74966 -0.9589,0 -2.0649,1.48916 -2.7851,3.75 -1.3779,4.3254 -7.0024,10.61048 -10.9638,12.25133 -2.4675,1.0221 -2.778,1.74586 -3.351,7.81256 -0.8213,8.69476 -0.8198,18.67878 0,19.50147 0.3568,0.35678 2.3831,-0.91822 4.5029,-2.83333 2.1197,-1.91512 4.2604,-3.48203 4.757,-3.48203 z m 182.3814,0.23202 c 2.427,-2.68189 5.6633,-10.3808 5.688,-13.53168 0.028,-3.61257 -2.4296,-8.33646 -5.0741,-9.75172 -2.7798,-1.4877 -2.9404,-1.12599 -1.6486,3.71344 1.3342,4.99887 -0.3161,13.8741 -3.2807,17.64297 -1.05,1.33493 -1.6239,2.71241 -1.2752,3.06106 1.1983,1.19833 3.9928,0.63146 5.5906,-1.13407 z m 7.777,0.73207 c 2.5607,-1.37045 6.9329,-10.12009 6.9329,-13.87414 0,-1.94226 -0.7722,-3.51746 -2.2225,-4.53325 -3.6161,-2.53285 -4.6437,-1.98146 -4.0876,2.1933 0.4513,3.38709 -0.3796,6.47617 -4.169,15.5 -0.8422,2.00577 0.5928,2.29474 3.5462,0.71409 z m 34.9329,-6.39319 c 0,-3.37268 -0.095,-3.44829 -5.75,-4.5953 -3.1625,-0.64141 -8.569,-1.74474 -12.0145,-2.45185 -6.7896,-1.39338 -6.6996,-1.42846 -7.6431,2.97933 l -0.6428,3.00308 10.7752,2.11993 c 15.4392,3.03751 15.2752,3.04884 15.2752,-1.05519 z m -48.4909,0.0556 c 2.1871,-3.33787 2.8923,-11.54153 1.2574,-14.62648 -1.2476,-2.3539 -6.4093,-5.69052 -7.3492,-4.75061 -0.9379,0.93789 0.9143,6.75061 2.151,6.75061 2.0834,0 4.1939,3.7933 3.6612,6.58023 -0.2673,1.39794 -1.6657,3.27807 -3.1077,4.17808 -1.442,0.9 -2.8337,1.79704 -3.0928,1.9934 -0.6518,0.49408 2.1969,2.21424 3.698,2.23298 0.6748,0.008 1.9268,-1.05277 2.7821,-2.35821 z m -6.7591,-3.61554 c 3.2067,-1.95511 4.1625,-4.69848 2.2897,-6.57132 -0.5282,-0.5282 -3.0032,-0.79788 -5.5,-0.5993 -4.9213,0.3914 -5.5093,1.47916 -3.5644,6.59456 1.1713,3.0808 2.4837,3.19239 6.7747,0.57606 z m -1.75,-10.5767 c 0,-1.08965 -2.3098,-4.9412 -3.3997,-5.66895 -1.5026,-1.00334 -9.7919,-0.93021 -11.4177,0.10073 -0.9584,0.60767 -0.4903,1.17805 1.7168,2.09227 1.6689,0.69128 3.5544,1.88345 4.1899,2.64928 1.0903,1.31368 8.9107,2.0392 8.9107,0.82667 z m -137.4151,-21.60259 c 2.4265,-1.74258 4.1943,-3.38583 3.9285,-3.65167 -0.6313,-0.63125 -18.332,-4.05871 -21.3144,-4.12717 -1.7203,-0.0395 -2.6815,0.8577 -3.8086,3.55526 -0.8291,1.98444 -1.3687,3.72792 -1.1989,3.87439 0.2468,0.21304 13.7338,2.88152 17.1451,3.39227 0.4601,0.0689 2.8218,-1.3005 5.2483,-3.04308 z m -70.7187,-9.28392 c 0.7513,-1.54252 1.3423,-4.53011 1.3131,-6.63909 -0.067,-4.83928 -3.3588,-12.39921 -6.0195,-13.82314 -3.1844,-1.70423 -8.0826,-1.27662 -11.2554,0.98257 -3.3645,2.39575 -3.7377,3.93191 -0.9553,3.93191 2.5058,0 6.6353,5.49426 7.5161,10 1.203,6.15406 1.6668,7.11185 3.8728,7.99781 2.9999,1.20477 3.9538,0.78198 5.5282,-2.45006 z m 18.0984,2.20225 c -0.019,-0.6875 -0.6304,-2.32341 -1.3576,-3.63535 l -1.3222,-2.38535 -0.7004,2.79049 c -0.4672,1.86177 -0.265,3.06658 0.6077,3.62004 1.8672,1.18424 2.8134,1.0512 2.7725,-0.38983 z m -7.0677,-3.21217 c 1.1707,-2.44958 1.2068,-4.00697 0.2084,-9 -1.457,-7.28726 -3.7501,-10.71773 -7.9741,-11.92915 -4.1847,-1.20015 -4.6076,-0.53263 -2.227,3.51529 2.798,4.7578 4.1566,11.67254 3.1609,16.08754 -0.8901,3.94671 -0.2182,4.82501 3.4256,4.47804 1.1078,-0.10549 2.6184,-1.50315 3.4062,-3.15172 z m -23.4303,-4.28783 c -0.8582,-2.0625 -2.1017,-4.24043 -2.7634,-4.83984 -0.6618,-0.59942 -8.6282,-2.33347 -17.7032,-3.85346 -9.075,-1.51998 -17.7375,-2.9983 -19.25,-3.28515 -2.6787,-0.50804 -2.75,-0.40177 -2.75,4.10345 0,2.54375 0.1125,4.65304 0.25,4.68731 3.0273,0.75456 39.0544,6.75476 41.0135,6.83064 l 2.7634,0.10705 -1.5603,-3.75 z m 31.9831,-8.32977 c 1.3915,-1.42592 1.323,-1.77991 -0.704,-3.63506 -1.2351,-1.13042 -3.3262,-2.38395 -4.6469,-2.78563 -2.0135,-0.6124 -2.2932,-0.44868 -1.732,1.01381 0.3681,0.95929 1.1813,3.77746 1.807,6.2626 1.039,4.1262 1.2505,4.35375 2.4361,2.62125 0.714,-1.04346 1.992,-2.60809 2.8398,-3.47697 z m 13.2073,-0.64678 c -0.6969,-4.29429 -3.5891,-8.62023 -6.092,-9.11201 -0.9477,-0.1862 -2.8738,-0.0498 -4.2802,0.30322 l -2.557,0.64177 2.6361,2.7515 c 1.4499,1.51333 2.6361,3.48887 2.6361,4.39008 0,1.97677 3.7105,4.75199 6.3534,4.75199 1.6446,0 1.8247,-0.51507 1.3036,-3.72655 z M 453.12993,224.02831 c 0.78163,-1.88702 0.8554,-3.63432 0.2236,-5.29607 -0.91912,-2.41747 -1.97196,-2.65058 -41.79516,-9.25387 -22.46875,-3.72565 -41.70106,-7.01719 -42.73845,-7.31453 -1.58158,-0.45331 -1.78705,-0.14572 -1.27242,1.90476 0.33757,1.34496 0.18154,3.95243 -0.34673,5.79438 -0.52826,1.84195 -0.72764,3.58183 -0.44307,3.86641 0.71548,0.71547 77.09113,12.90734 81.57707,13.02217 3.07707,0.0788 3.806,-0.33521 4.79516,-2.72325 z M 364.5991,211.26265 c 0.33384,-0.86998 0.60699,-3.38248 0.60699,-5.58333 0,-4.52 -1.89613,-4.8796 -3.39365,-0.6436 -1.58011,4.46959 1.13386,10.53406 2.78666,6.22693 z"
       id="path3135"
       inkscape:connector-curvature="0" />
  </g>
</svg>
