<?xml version="1.0" encoding="UTF-8" standalone="no"?>
<!-- Created with Inkscape (http://www.inkscape.org/) -->

<svg
   xmlns:dc="http://purl.org/dc/elements/1.1/"
   xmlns:cc="http://creativecommons.org/ns#"
   xmlns:rdf="http://www.w3.org/1999/02/22-rdf-syntax-ns#"
   xmlns:svg="http://www.w3.org/2000/svg"
   xmlns="http://www.w3.org/2000/svg"
   xmlns:sodipodi="http://sodipodi.sourceforge.net/DTD/sodipodi-0.dtd"
   xmlns:inkscape="http://www.inkscape.org/namespaces/inkscape"
   width="745.90021"
   height="900.92023"
   id="svg2"
   version="1.1"
   inkscape:version="0.48.3.1 r9886"
   sodipodi:docname="Good-mornings-2.svg">
  <defs
     id="defs4" />
  <sodipodi:namedview
     id="base"
     pagecolor="#ffffff"
     bordercolor="#666666"
     borderopacity="1.0"
     inkscape:pageopacity="0.0"
     inkscape:pageshadow="2"
     inkscape:zoom="0.49497475"
     inkscape:cx="160.30137"
     inkscape:cy="569.94791"
     inkscape:document-units="px"
     inkscape:current-layer="layer1"
     showgrid="false"
     fit-margin-top="0"
     fit-margin-left="0"
     fit-margin-right="0"
     fit-margin-bottom="0"
     inkscape:window-width="1855"
     inkscape:window-height="1056"
     inkscape:window-x="65"
     inkscape:window-y="24"
     inkscape:window-maximized="1" />
  <metadata
     id="metadata7">
    <rdf:RDF>
      <cc:Work
         rdf:about="">
        <dc:format>image/svg+xml</dc:format>
        <dc:type
           rdf:resource="http://purl.org/dc/dcmitype/StillImage" />
        <dc:title></dc:title>
      </cc:Work>
    </rdf:RDF>
  </metadata>
  <g
     inkscape:label="Ebene 1"
     inkscape:groupmode="layer"
     id="layer1"
     transform="translate(-332.24239,-51.188652)">
    <path
       style="fill:#000000"
       d="m 696.44429,950.89341 c -4.4549,-1.2004 -11.5591,-5.9744 -14.1359,-9.4994 -0.6849,-0.9368 -4.9263,-5.1251 -9.4254,-9.3074 -6.5714,-6.1086 -9.4231,-8.0261 -14.5,-9.7499 -3.4759,-1.1802 -11.2618,-4.7149 -17.302,-7.8548 -13.4713,-7.0028 -14.9087,-8.9375 -14.9739,-20.1542 -0.044,-7.5149 -0.01,-7.6192 6.8325,-19.8255 7.8353,-13.982 8.1682,-16.0119 4.5501,-27.7401 -3.5528,-11.5166 -10.0816,-23.2728 -17.6771,-31.8305 -7.8163,-8.8066 -13.9549,-21.70464 -16.7332,-35.15864 -1.4561,-7.051 -1.517,-10.3132 -0.5137,-27.5 0.9674,-16.5715 0.9144,-20.5708 -0.3533,-26.6303 -2.4268,-11.6003 -7.2413,-21.6398 -16.7108,-34.8467 -9.1504,-12.7619 -17.06497,-27.2048 -19.95387,-36.4128 -1.4923,-4.7567 -2.2063,-5.6376 -6.0788,-7.5 -5.4268,-2.6098 -8.315,-6.8343 -10.9475,-16.0126 -5.3635,-18.7002 -7.329,-24.4405 -9.792,-28.5976 l -2.6662,-4.5 -0.2528,175.75 c -0.2516,174.91734 -0.2622,175.75004 -2.25,175.75004 -1.9893,0 -1.9972,-0.755 -1.9972,-190.06744 0,-180.5348 -0.088,-190.043 -1.75,-189.5819 -0.9625,0.267 -4.3375,0.7797 -7.5,1.1394 l -5.75,0.6538 -0.25,30.1781 c -0.1375,16.5979 -0.25,57.403 -0.25,90.678 0,33.275 -0.1125,104.71254 -0.25,158.75004 -0.2481,97.5 -0.2653,98.25 -2.25,98.25 -1.993,0 -2,-0.6666 -2,-189.38644 l 0,-189.3865 -4.75,-0.6705 c -2.6125,-0.3688 -5.5375,-0.9002 -6.5,-1.1809 -1.6623,-0.4849 -1.75,9.0364 -1.75,190.0569 l 0,190.56744 -2.6633,0 -2.6632,0 0.6184,-190.54184 0.6184,-190.5418 -2.436,-0.9261 -2.436,-0.9262 0.5261,-12.782 0.5261,-12.7821 -2.9202,6.1104 c -7.5535,15.8055 -19.6875,30.5503 -30.1703,36.662 -13.0584,7.6134 -30.7621,7.4625 -43.0978,-0.3672 -5.2952,-3.361 -15.1146,-13.3442 -19.5786,-19.9052 -10.7251,-15.7633 -17.8444,-37.35135 -20.894,-63.35722 l -0.6868,-5.85724 -3.6214,0.55409 c -1.9918,0.30475 -10.338,1.30701 -18.5471,2.22724 -14.3941,1.61356 -14.9735,1.60765 -16.2704,-0.16595 -3.3142,-4.53248 -3.5195,-12.44359 -0.4468,-17.22291 0.5699,-0.88644 6.8626,-1.95865 19.0988,-3.25423 10.0368,-1.06272 18.584,-2.13943 18.9938,-2.39268 0.4098,-0.25324 1.0432,-4.86384 1.4076,-10.24576 1.5955,-23.56503 10.1629,-49.61496 22.4146,-68.15347 13.992,-21.17191 36.2397,-30.5294 56.2281,-23.64984 11.7434,4.04182 26.0607,19.32227 34.6846,37.01799 2.4123,4.95 4.9327,9 5.6007,9 0.9476,0 1.2689,-40.11387 1.4611,-182.41312 0.1356,-100.32721 0.4087,-182.575296 0.6069,-182.773526 0.1982,-0.19824 1.0999,-0.0767 2.0036,0.2701 1.5158,0.58169 1.6431,14.74865 1.6431,182.898536 l 0,182.26801 3.125,0.625 c 1.7188,0.34375 4.5693,0.625 6.3346,0.625 l 3.2095,0 0.6655,-135.16584 c 0.3659,-74.34121 0.6654,-156.46621 0.6654,-182.5 0,-46.667486 0.028,-47.334156 2,-47.334156 1.9927,0 2,0.66667 2,183.116626 l 0,183.11663 2.25,-0.60297 c 1.2375,-0.33164 4.6307,-0.60913 7.5405,-0.61664 l 5.2904,-0.0136 -0.082,-75.25 c -0.045,-41.3875 -0.063,-123.2875 -0.04,-182 0.042,-106.069386 0.055,-106.750046 2.0419,-106.750046 1.9926,0 2,0.66667 2,181.499996 0,160.66667 0.1722,181.5 1.5,181.5 1.2836,0 1.5,2.90125 1.5,20.11129 l 0,20.11129 3.25,-0.57377 c 1.7875,-0.31558 7.1875,-0.87754 12,-1.24881 4.8125,-0.37127 8.75,-1.04195 8.75,-1.4904 0,-0.44844 -1.8,-2.26187 -4,-4.02984 -3.9464,-3.17142 -4,-3.30396 -4,-9.89214 0,-5.47862 0.3709,-7.01334 2.0659,-8.54723 1.1362,-1.02827 4.0519,-4.85708 6.4793,-8.50846 4.7564,-7.1546 8.9009,-10.42128 18.09317,-14.26119 14.052,-5.86988 25.1818,-5.94052 37.0864,-0.23538 5.0135,2.40263 8.9742,3.48887 14.6662,4.02226 6.0916,0.57082 9.244,1.49787 14.4063,4.23655 3.6346,1.92821 7.9796,3.49862 9.6556,3.48981 1.6759,-0.009 6.1971,-1.5123 10.0471,-3.34109 6.5226,-3.09831 7.8298,-3.34959 19.1675,-3.68454 6.6921,-0.1977 14.4439,0.12873 17.2261,0.72542 3.6067,0.7735 5.8548,0.77724 7.8325,0.0131 1.5257,-0.58951 7.1605,-1.92919 12.522,-2.97708 13.7789,-2.69309 24.9549,-1.49331 39.23,4.21145 7.0168,2.80417 11.1325,3.93237 12.8096,3.51144 3.0349,-0.76171 12.3771,-9.01131 13.223,-11.67648 0.8699,-2.74069 10.8646,-9.12047 15.663,-9.99792 5.3496,-0.97824 18.9789,0.74278 25.6506,3.23899 3.596,1.34544 7.5872,4.10298 12.0997,8.35991 6.8453,6.45741 10.275,8.43282 14.6411,8.43282 l 2.4349,0 0,-12.96862 c 0,-11.11681 0.2142,-12.88642 1.5,-12.39301 1.3289,0.50997 1.5,-15.45823 1.5,-140.03138 0,-84.72185 0.3649,-140.60699 0.9182,-140.60699 0.505,0 1.63,0.27315 2.5,0.60699 1.432,0.54949 1.5818,13.85836 1.5818,140.5 l 0,139.89301 5.5,0 5.5,0 0,-71.33499 c 0,-39.23425 0.2989,-101.78425 0.6642,-139 0.6355,-64.73939 0.7436,-67.66501 2.5,-67.66501 1.7723,0 1.8358,4.81301 1.8358,139.04772 l 0,139.04771 6.1626,-0.29771 6.1627,-0.29772 -0.2362,-137.25 -0.2362,-137.25 2.5736,0 2.5735,0 0,137.60841 0,137.60841 2.5,-0.62746 2.5,-0.62746 0,17.51905 0,17.51905 4.4204,0 4.4204,0 0.6469,-6.75 c 3.0273,-31.58914 13.2162,-56.63927 28.8487,-70.92651 12.6736,-11.58289 29.053,-14.13476 42.778,-6.66468 17.75451,9.66319 33.59251,39.2987 36.43861,68.18273 0.3904,3.96156 1.0089,7.38768 1.3744,7.61358 0.3655,0.22591 11.6689,-0.2356 25.1186,-1.02558 13.4497,-0.78998 24.9712,-1.2413 25.6033,-1.00294 3.2148,1.2122 4.1012,14.01711 1.0455,15.10318 -0.9355,0.33252 -46.8365,3.47022 -50.7652,3.47022 -0.5113,0 -0.9296,2.30475 -0.9296,5.12166 0,14.37891 -5.3399,37.40712 -11.9401,51.49167 -9.9512,21.23529 -22.62051,32.97763 -38.30651,35.50379 -11.5473,1.85963 -21.1393,-1.52823 -31.0255,-10.95806 -14.2562,-13.59808 -24.9167,-37.81805 -27.1962,-61.78767 -1.1968,-12.58524 -1.0912,-12.37139 -6.1112,-12.37139 l -4.4205,0 0,46.5 0,46.49998 -2.3855,0 -2.3854,0 -0.7424,29.6963 c -0.4083,16.333 -0.4067,91.708 0,167.5 l 0.7454,137.80374 -2.7725,0 -2.7725,0 0.5554,-167.08674 0.5553,-167.0866 -6.1509,0.6991 c -3.383,0.3845 -6.2607,0.7958 -6.3948,0.9139 -0.4346,0.3827 -1.2634,164.7466 -1.2597,249.8103 0,82.08464 -0.013,82.75004 -1.9964,82.75004 -1.992,0 -2,-0.6666 -2,-166.79264 l 0,-166.7926 -4.5144,-1.2074 c -2.4828,-0.664 -4.9578,-1.2074 -5.5,-1.2074 -0.6436,0 -0.9856,58.2974 -0.9856,168 l 0,168.00004 -2.5,0 -2.5,0 0,-168.94104 c 0,-114.5069 -0.3309,-169.1454 -1.027,-169.5756 -0.5648,-0.34914 -3.4841,1.611 -6.4874,4.3557 -16.0976,14.7124 -31.8061,20.9786 -41.9573,16.7372 -4.561,-1.9057 -11.8511,-8.7518 -15.7862,-14.8247 l -3.203,-4.9431 -1.5195,2.3198 c -4.2337,6.4632 -7.8867,10.3851 -11.3284,12.1622 -4.5086,2.328 -20.3238,7.7146 -22.601,7.6979 -0.8746,-0.01 -5.6402,2.0172 -10.5902,4.497 -17.0272,8.5301 -39.785,11.9216 -54.4574,8.1156 -3.9174,-1.0161 -5.862,-1.1062 -7.1063,-0.3291 -2.3121,1.4439 -1.7142,2.993 9.8233,25.449 9.158,17.8249 9.3941,18.4518 7.6692,20.3578 -1.6929,1.8706 -1.6963,2.2313 -0.07,7.3906 0.9466,3.0029 2.1756,12.0314 2.7534,20.2273 0.5739,8.1419 2.1481,20.875 3.4982,28.2959 3.3055,18.1696 2.7549,27.2106 -2.338,38.3916 l -3.5912,7.8841 1.7864,16.6159 c 1.4379,13.3748 1.6504,20.6146 1.0893,37.1159 -1.1895,34.97974 2.3815,49.23594 15.9431,63.64964 3.85,4.0919 10.15,9.6038 14,12.2487 4.4072,3.0277 10.9135,9.2153 17.5656,16.7053 9.1733,10.3287 11.5453,12.3971 18,15.696 12.2358,6.2534 19.85,18.2381 13.9344,21.9325 -1.1,0.687 -2,2.004 -2,2.9267 0,3.629 -1.5667,5.1169 -9.3773,8.9055 -6.7317,3.2651 -9.1543,3.9357 -14.2192,3.9357 -6.8368,0 -11.2347,-1.245 -16.4199,-4.6485 -1.934,-1.2694 -5.0839,-2.6025 -7,-2.9624 -3.8894,-0.7307 -15.7429,-7.998 -20.7336,-12.7118 -1.7875,-1.6883 -3.25,-2.6174 -3.25,-2.0646 0,1.6933 2.2211,3.8499 9,8.7389 3.575,2.5784 8.5083,6.2143 10.963,8.08 2.9521,2.2437 6.452,3.7833 10.3386,4.548 4.1992,0.8261 6.8749,2.0717 9.3779,4.3655 3.1007,2.8416 3.5205,3.8207 3.6614,8.5398 0.1474,4.9392 -0.094,5.5418 -3.2946,8.2155 -1.8996,1.587 -5.0496,3.1291 -7,3.4268 -1.9505,0.2978 -4.8963,1.2766 -6.5463,2.1751 -1.65,0.8985 -4.4052,2.3804 -6.1227,3.293 -1.7175,0.9127 -4.3955,2.6604 -5.9509,3.884 -2.2499,1.7697 -3.9629,2.1845 -8.3773,2.0286 -3.052,-0.1078 -7.5741,0.3079 -10.0491,0.9236 -5.5699,1.3858 -7.2957,1.358 -13.1189,-0.2111 z m 14.5159,-5.0129 c 2.0475,-0.8555 3.867,-1.0542 4.7179,-0.5153 0.7618,0.4825 3.2649,0.8841 5.5625,0.8925 3.2756,0.012 4.602,-0.5244 6.1439,-2.4847 1.0816,-1.375 2.8797,-2.5 3.9959,-2.5 1.1161,0 3.3014,-1.0281 4.8561,-2.2846 1.5547,-1.2566 5.0709,-2.8584 7.8138,-3.5596 2.7429,-0.7012 5.7804,-1.9929 6.75,-2.8703 2.5224,-2.2828 2.2569,-7.4727 -0.5156,-10.0774 -2.2996,-2.1604 -9.5976,-5.19 -12.5972,-5.2295 -0.8934,-0.012 -7.0084,-3.7242 -13.589,-8.25 -11.6659,-8.0231 -12.2717,-8.6281 -24.2641,-24.2286 -6.7647,-8.8 -14.0399,-18.25 -16.1671,-21 -8.1369,-10.5194 -11.5019,-27.4472 -14.6105,-73.50004 -0.9687,-14.3505 -2.2531,-21.4677 -5.9554,-33 -1.854,-5.775 -4.1108,-13.425 -5.0151,-17 -3.8969,-15.4057 -3.4491,-14.3769 -5.4641,-12.5534 -1.614,1.4607 -1.8766,1.4712 -2.4041,0.097 -0.7211,-1.8793 -0.4253,-2.7816 4.4683,-13.6315 6.1681,-13.6755 6.0881,-24.801 -0.2673,-37.1602 -1.5576,-3.0292 -2.4124,-7.1214 -2.9732,-14.2337 -0.6656,-8.4432 -1.7529,-12.7906 -7.0515,-28.1959 -6.1172,-17.7852 -6.3476,-18.2482 -9.7978,-19.6919 -7.3543,-3.0773 -16.4116,-2.7655 -27.8241,0.9578 -10.7607,3.5106 -40.20927,20.0124 -40.20927,22.5316 0,1.7459 8.2059,26.263 10.62687,31.7506 1.3031,2.9535 7.0708,11.5915 12.8173,19.1956 5.7465,7.6041 11.1452,15.1735 11.9971,16.8208 0.8519,1.6474 2.7481,7.6344 4.2138,13.3044 2.6637,10.3044 2.6644,10.3166 1.4119,26.0198 -1.646,20.6365 -0.8369,30.3501 3.6738,44.107 3.6982,11.27874 6.4668,16.07394 17.6952,30.64814 6.6688,8.6559 8.4657,12.3025 15.5497,31.557 4.0457,10.9963 4.0518,11.0347 2.5457,16 -2.3371,7.7048 -2.0087,12.1304 1.1146,15.0251 l 2.6461,2.4522 -3.1971,0 c -2.7029,0 -3.421,-0.536 -4.646,-3.4679 -0.797,-1.9073 -1.4517,-5.3948 -1.4551,-7.75 l -0.01,-4.2821 -5.5243,9 c -3.0384,4.95 -5.789,10.0308 -6.1125,11.2906 -0.8879,3.4576 1.5256,10.7192 4.505,13.5545 4.1386,3.9384 15.7597,10.3411 25.9338,14.2883 9.0462,3.5096 9.5313,3.8657 18.5,13.5801 13.0458,14.1306 22.5452,18.3893 32.1072,14.394 z m -0.397,-7.6557 c 0,-0.5766 -1.4625,-1.684 -3.25,-2.4609 l -3.25,-1.4126 3.55,-0.039 c 3.651,-0.04 5.95,1.3743 5.95,3.6609 0,0.715 -0.675,1.3 -1.5,1.3 -0.825,0 -1.5,-0.4718 -1.5,-1.0483 z m 10.1124,-4.4859 c -1.6418,-2.7826 -2.5746,-3.484 -3.8864,-2.9222 -3.0658,1.313 -7.226,1.7111 -7.226,0.6915 0,-0.5456 1.9125,-1.4867 4.25,-2.0916 3.629,-0.9389 4.604,-0.8398 6.6727,0.6786 3.498,2.5675 4.7774,4.8777 3.4412,6.214 -0.7883,0.7882 -1.691,0.075 -3.2515,-2.5703 z m 16.8876,-0.6926 c 0,-0.6401 -1.1745,-2.3898 -2.6101,-3.8882 -4.014,-4.1897 -2.4576,-5.7615 1.9088,-1.9277 3.9437,3.4627 4.6339,5.4708 2.2013,6.4043 -0.825,0.3165 -1.5,0.052 -1.5,-0.5884 z m -97.5403,-122.0177 c -0.2894,-0.7541 0.1571,-4.2702 0.9923,-7.8134 1.8219,-7.7296 1.9559,-15.99774 0.3965,-24.46094 -1.3297,-7.2166 -0.646,-10.7123 1.6445,-8.4088 3.6387,3.6592 4.4561,29.32684 1.1834,37.15954 -1.6887,4.0417 -3.4524,5.5154 -4.2167,3.5236 z m -22.4352,-93.22604 c -0.8826,-1.0636 -1.1095,-3.1639 -0.7079,-6.5546 0.5382,-4.5451 0.3672,-5.1361 -1.9205,-6.635 -3.99,-2.6144 -6.6542,-8.9507 -7.1857,-17.09 -0.5648,-8.65 1,-9.7576 2.8256,-2 1.7172,7.2969 4.3091,12.0646 8.3853,15.4246 2.597,2.1406 3.2423,3.243 2.5444,4.3467 -0.5143,0.8133 -0.9489,3.7287 -0.9657,6.4787 -0.038,6.1482 -1.0964,8.2937 -2.9755,6.0296 z m -12.0245,-48.4909 c 0,-0.5288 2.4683,-4.5864 5.4852,-9.0169 3.0168,-4.4306 5.7656,-9.1729 6.1084,-10.5386 0.7988,-3.1828 4.4064,-3.4642 4.4064,-0.3438 0,4.099 -11.7046,20.8606 -14.567,20.8606 -0.7881,0 -1.433,-0.4326 -1.433,-0.9613 z m 164.7333,239.99524 c 2.7179,-2.5321 3.7822,-5.9167 2.3221,-7.3845 -0.6289,-0.6322 -3.2569,-1.8244 -5.8401,-2.6494 -2.7705,-0.8848 -4.8262,-2.1813 -5.0123,-3.1612 -0.2775,-1.4613 0.3231,-1.3968 4.9908,0.5361 7.7714,3.2181 9.8062,4.5137 9.8062,6.2436 0,2.4788 2.3672,1.0593 4,-2.3986 0.825,-1.7471 2.0625,-3.1863 2.75,-3.1982 0.6875,-0.012 1.25,-1.0662 1.25,-2.3428 0,-3.6052 -8.1386,-11.3743 -15.2908,-14.5965 -5.1904,-2.3384 -8.0537,-4.7716 -17.451,-14.83 -7.2252,-7.7335 -14.5666,-14.3894 -20.5476,-18.629 -25.5167,-18.0874 -29.599,-30.9554 -30.1691,-95.09734 -0.137,-15.4143 -0.5924,-29.2636 -1.0119,-30.7761 -0.4872,-1.7566 -1.4431,-2.75 -2.6462,-2.75 -3.0235,0 -2.2195,-2.3246 3.1102,-8.992 6.1461,-7.6887 7.2922,-11.6203 7.2895,-25.008 0,-8.1642 -0.4902,-11.9459 -2.1963,-17 -1.6805,-4.9781 -2.3958,-10.3631 -3.055,-23 -0.6786,-13.0061 -1.4083,-18.356 -3.4463,-25.2651 -1.422,-4.8208 -2.5855,-8.9258 -2.5855,-9.1222 0,-0.1964 -1.777,-0.6412 -3.9489,-0.9885 -5.6977,-0.9111 -17.3633,0.9983 -22.8374,3.738 -2.5925,1.2976 -8.3786,3.568 -12.8578,5.0454 -7.0588,2.3282 -8.0749,2.9508 -7.6248,4.6722 0.2857,1.0923 -0.1674,2.7587 -1.0067,3.7031 -1.3777,1.5502 -1.2388,2.5918 1.4296,10.7171 1.6256,4.95 3.8305,14.175 4.8997,20.5 1.3006,7.694 3.02,13.8167 5.1952,18.5 2.9139,6.2741 3.2498,7.9334 3.2387,16 -0.01,4.95 -0.8408,13.1145 -1.8533,18.1434 -2.5638,12.7331 -1.3501,23.3208 4.7909,41.7942 4.3358,13.0427 4.6912,14.9703 6.6236,35.9223 2.8148,30.51974 4.6397,45.09204 6.5297,52.14014 2.4475,9.1278 2.805,9.4369 5.6681,4.9014 2.7142,-4.2995 5.4948,-6.9933 6.343,-6.1451 0.2978,0.2978 -0.8381,3.274 -2.5241,6.614 -1.686,3.34 -3.0655,7.1179 -3.0655,8.3954 0,2.6156 3.9526,9.1521 11.8489,19.5948 3.9901,5.2768 7.3617,8.365 13.272,12.1563 4.3576,2.7953 10.4422,7.1343 13.5212,9.6422 6.7198,5.4733 12.7119,8.2728 18.7205,8.7463 2.7553,0.2171 5.7245,1.301 7.7941,2.8451 6.6694,4.976 15.8257,6.2779 19.5766,2.7835 z m 4.9173,-16.1289 c -2.1028,-2.456 -1.6331,-3.3516 1.274,-2.4289 1.1574,0.3673 2.0754,1.5136 2.0754,2.5913 0,2.5035 -1.1129,2.4496 -3.3494,-0.1624 z m -97.6506,-180.97534 c 0,-2.4943 -0.9177,-4.0841 -4,-6.9297 -3.7595,-3.4708 -4,-4.0326 -4,-9.3464 0,-3.1095 0.45,-5.6536 1,-5.6536 0.55,0 1,2.0021 1,4.4491 0,3.9776 0.3974,4.7454 3.75,7.2443 5.0573,3.7697 5.3114,4.2123 5.0109,8.7289 -0.3241,4.8717 -2.7609,6.2022 -2.7609,1.5074 z m -16,-36.7659 c 0,-0.4599 2.1915,-2.5974 4.87,-4.75 2.6785,-2.1526 5.716,-5.4835 6.75,-7.402 2.225,-4.1282 5.38,-5.2891 5.38,-1.9795 0,2.5905 -3.5976,7.0748 -9.3372,11.6384 -3.9313,3.1258 -7.6628,4.3399 -7.6628,2.4931 z m -99.54867,-36.5717 c -0.6209,-3.3096 -0.4361,-3.5506 6.4035,-8.3539 8.92217,-6.2659 26.87667,-15.1547 39.15727,-19.3859 7.3279,-2.5247 11.1954,-3.2784 16.9879,-3.3106 7.643,-0.043 8.8242,0.3657 17.4878,6.0423 l 2.8152,1.8446 -0.7305,-3.9643 c -1.081,-5.8658 -3.7248,-11.3071 -8.9285,-18.3759 -4.6161,-6.2705 -5.6979,-9.0884 -3.4892,-9.0884 0.6352,0 2.8959,1.8302 5.0239,4.0672 l 3.8689,4.0671 6.6066,-5.2569 c 6.7871,-5.4008 9.3458,-9.4489 9.3458,-14.7862 0,-3.9564 1.543,-4.7183 3.5017,-1.7289 2.8392,4.3331 -1.789,15.2583 -8.5849,20.2653 -5.2718,3.8841 -6.1863,7.46 -4.3554,17.0298 0.7913,4.1352 1.4386,7.704 1.4386,7.9306 0,1.3528 4.0187,-0.1039 9.8593,-3.5737 11.6086,-6.8965 27.1285,-9.694 36.1407,-6.5143 2.3383,0.825 4.3237,1.5 4.412,1.5 0.088,0 -4.1307,-8.7513 -9.3757,-19.4474 l -9.5363,-19.4474 -4,-0.076 c -2.2,-0.042 -6.7,-1.2387 -10,-2.6594 -3.6239,-1.5602 -9.7622,-3.042 -15.5,-3.7417 -10.4942,-1.2799 -18.1043,-4.3311 -20.7062,-8.3021 -0.8814,-1.3451 -4.3455,-3.7015 -7.6981,-5.2363 -6.486,-2.9693 -11.4772,-6.5339 -10.5098,-7.5059 0.3223,-0.3238 3.1336,0.2879 6.2474,1.3592 l 5.6614,1.9478 -1.4639,-2.8309 c -0.8293,-1.6036 -3.9712,-4.245 -7.2474,-6.0928 -8.6617,-4.88531 -14.1038,-9.33537 -21.059,-17.22033 -7.8052,-8.84868 -8.8751,-12.34756 -9.784,-31.99644 l -0.6822,-14.75 -3.2973,0 c -6.35107,-1e-5 -6.46087,0.19629 -6.46087,11.55536 0,12.71275 2.57887,21.70467 10.01017,34.90291 4.9243,8.74586 5.5527,11.54172 2.594,11.54172 -4.0741,0 -11.04867,-14.65535 -14.63407,-30.75 -0.6433,-2.8875 -1.2826,-5.25 -1.4206,-5.25 -0.1381,0 -1.6682,0.49402 -3.4003,1.09783 -3.0176,1.05193 -3.1492,1.32775 -3.1492,6.59879 0,4.83368 -0.3672,5.84397 -3.0271,8.32866 -1.6648,1.55523 -4.4773,3.11937 -6.25,3.47587 -1.7726,0.35649 -3.9432,0.84858 -4.8236,1.09352 -2.1323,0.59324 -5.2791,17.89491 -5.3482,29.40531 -0.07,11.6772 3.4568,21.2253 12.5886,34.0795 3.743,5.2688 7.7079,11.5688 8.8109,14 2.5301,5.5769 2.7924,14.6982 0.4485,15.5976 -2.1541,0.8266 -3.5252,-1.5597 -2.8215,-4.9104 0.9927,-4.7273 -2.1109,-12.8399 -7.1839,-18.7778 -7.1475,-8.3662 -9.0302,-11.6726 -12.5204,-21.9889 -2.8687,-8.4794 -3.2089,-10.6817 -3.1673,-20.5 0.033,-7.8498 0.6261,-13.09168 2.0702,-18.30402 1.8106,-6.53557 1.8526,-7.27112 0.3988,-6.99114 -3.5912,0.69159 -4.1451,4.54418 -4.1603,28.93816 -0.012,20.0843 -0.2405,23.7297 -1.5147,24.2187 -2.2718,0.8717 -1.9891,12.9037 0.4713,20.055 1.0842,3.1513 4.1824,9.8593 6.8848,14.9065 2.853,5.3287 6.0717,13.3701 7.6758,19.1768 3.1123,11.267 5.6295,16.9126 8.2111,18.416 2.4491,1.4262 2.4194,1.4666 1.7083,-2.3239 z m 52.04867,-60.657 c -6.05,-2.6788 -11.45,-5.0485 -12,-5.2659 -0.55,-0.2175 -0.7318,-0.6877 -0.404,-1.0449 0.3278,-0.3573 4.1528,0.03 8.5,0.86 9.4494,1.8047 16.904,5.329 16.904,7.9917 0,1.0216 -0.45,1.9636 -1,2.0935 -0.55,0.13 -5.95,-1.9555 -12,-4.6344 z m -25.2878,-17.9202 c -23.59737,-8.0975 -30.65277,-12.0379 -34.27807,-19.144 -1.9688,-3.8593 -2.6503,-10.87088 -1.0565,-10.87088 1.323,0 2.7683,2.17218 3.5099,5.27518 0.992,4.1508 7.0038,10.2167 12.4459,12.5578 2.6491,1.1396 10.18287,3.271 16.74157,4.7363 6.5588,1.4653 13.1583,3.296 14.6656,4.0683 4.8232,2.471 7.3041,8.4543 3.4504,8.3213 -0.6551,-0.023 -7.6205,-2.2474 -15.4788,-4.944 z m -137.10067,21.2781 c 13.0529,-6.1809 21.782,-15.9739 30.9088,-34.6759 6.2725,-12.8532 9.8392,-23.82273 12.6423,-38.88131 2.4618,-13.22534 2.4544,-44.35855 -0.014,-59.23577 -4.2276,-25.479 -14.4168,-47.91566 -28.0518,-61.77024 -16.2754,-16.53755 -35.3083,-17.79903 -54.3257,-3.60065 -7.1921,5.36966 -14.4787,15.31787 -20.7802,28.37089 -8.3888,17.37663 -12.8281,33.90476 -14.1681,52.75 l -0.6222,8.75 3.3998,-0.0321 c 1.8698,-0.0176 13.0747,-1.07829 24.8997,-2.35705 11.825,-1.27876 22.0791,-2.1098 22.787,-1.84676 1.9462,0.72326 4.213,5.73685 4.213,9.31822 0,2.99688 -3.3755,9.92277 -4.8316,9.91338 -3.8713,-0.025 -48.8813,5.45335 -49.5126,6.02637 -1.0392,0.94337 1.6963,20.12482 4.3497,30.49961 5.724,22.38051 19.0893,44.25531 32.8055,53.69231 10.8882,7.4913 24.5377,8.649 36.3005,3.079 z m -2.2739,-11.7887 c -0.2726,-0.2726 2.4755,-6.4601 6.107,-13.75 11.4028,-22.8903 14.8646,-36.60047 15.7191,-62.25428 1.509,-45.30442 -8.3171,-78.64478 -29.7615,-100.98177 -4.3462,-4.52712 -7.9022,-8.52072 -7.9022,-8.87468 0,-1.91773 3.6833,-0.0845 8.065,4.014 15.3493,14.35748 26.4662,37.85605 30.4397,64.34245 2.6193,17.45979 3.1199,45.88906 1.0551,59.92675 -2.5445,17.29963 -9.5676,37.44833 -18.1683,52.12303 -3.2746,5.5873 -4.3575,6.6508 -5.5539,5.4545 z m 62.6176,-16.7543 c 0.3631,-7.2875 0.5217,-39.34998 0.3524,-71.24998 l -0.3076,-58 -8.8642,-0.2906 -8.8641,-0.2906 0.5118,3.2906 c 0.2814,1.80983 1.4321,7.5656 2.5571,12.7906 5.7282,26.60573 5.4532,54.96333 -0.791,81.56024 -1.7814,7.58758 -2.0584,11.52534 -1.8249,25.94064 l 0.2753,16.9952 6.5,1.1299 c 3.575,0.6214 7.2414,1.1848 8.1476,1.2519 1.4229,0.1055 1.7375,-1.6841 2.3076,-13.1279 z m 16.0277,11.9186 6.983,-1.2085 0.017,-69.73 0.017,-69.73005 -8.5892,-10e-6 -8.5892,-2e-5 -0.6589,27.75 c -0.3623,15.2625 -0.6597,47.2125 -0.6608,71 l 0,43.24998 2.25,-0.062 c 1.2375,-0.034 5.3923,-0.6052 9.2329,-1.2699 z m 203.49617,-3.5951 c 5.2136,-1.7539 11.7591,-4.4933 14.5457,-6.0877 2.9007,-1.6596 9.81,-4.011 16.163,-5.5007 14.9722,-3.5109 20.5241,-6.8861 25.0909,-15.2535 3.1522,-5.77562 3.6588,-9.23158 1.3532,-9.23158 -0.512,0 -3.2714,1.575 -6.1319,3.5 -6.0924,4.09988 -8.2772,4.45828 -7.8195,1.28281 0.4771,-3.31052 8.2265,-8.11761 13.2328,-8.20857 4.0742,-0.074 4.1056,-0.0455 10.25,9.28868 7.6611,11.63826 11.5088,15.65546 17.006,17.75486 7.8941,3.0148 17.9422,-0.4394 30.6446,-10.5346 15.2071,-12.08586 27.7231,-28.23755 32.2525,-41.62131 6.4889,-19.17411 1.0428,-42.02672 -13.4777,-56.55332 -8.7325,-8.73615 -14.5834,-11.07546 -29.2166,-11.68137 -22.4397,-0.92916 -31.673,5.17023 -38.2581,25.27282 -4.2343,12.92584 -7.0883,16.26099 -15.2381,17.80701 -2.6951,0.51125 -3.6564,0.0475 -7,-3.37696 -2.1318,-2.18328 -6.0134,-5.30654 -8.6259,-6.94058 -4.6607,-2.91515 -6.0739,-4.98947 -3.3992,-4.98947 3.2661,0 8.3893,2.50305 11.2145,5.47916 3.3605,3.53991 9.2032,5.25031 12.2906,3.59798 1.8434,-0.98656 6.869,-11.68554 5.9301,-12.62449 -0.4455,-0.44551 -87.2864,6.83362 -96.536,8.09179 -4.0198,0.54679 -4.25,0.75597 -4.25,3.86185 0,4.68667 -2.8361,6.83484 -9.7655,7.39674 -3.154,0.25575 -6.6221,1.07969 -7.707,1.83099 -1.1111,0.76941 -4.4957,1.36598 -7.75,1.36598 -3.1776,0 -5.7775,0.43417 -5.7775,0.96482 0,1.82066 -4.5069,3.48507 -11.5,4.24696 -3.85,0.41946 -9.3857,1.0384 -12.3015,1.37542 -9.2279,1.0666 -14.1985,-2.97863 -14.1985,-11.55508 0,-1.77011 -0.5203,-3.02347 -1.25,-3.01135 -4.3817,0.0728 -29.0426,2.93852 -29.5364,3.43225 -0.332,0.33204 2.4802,3.71141 6.2494,7.50971 7.9412,8.00249 13.7272,10.97438 27.037,13.88696 4.95,1.08321 10.3329,2.3079 11.962,2.72152 l 2.9621,0.75204 -3.3326,-4.20774 c -1.8329,-2.31426 -3.0743,-4.46603 -2.7586,-4.78172 1.6421,-1.64215 5.8893,1.45959 12.1671,8.88576 10.7769,12.74824 15.6748,17.24484 22.0893,20.27937 5.235,2.47656 7.4868,2.8709 20.0254,3.5069 13.9905,0.70964 16.3853,1.16573 16.3853,3.1205 0,0.64936 -5.7846,0.89533 -16.25,0.69098 -15.9334,-0.31112 -16.3827,-0.38018 -23.0629,-3.54419 -8.4146,-3.98553 -10.5277,-5.62678 -15.7489,-12.23205 -2.4877,-3.14726 -5.7816,-5.96462 -8.284,-7.08572 l -4.1542,-1.86109 -1.9568,3.70288 c -1.3171,2.49247 -1.9709,5.74588 -2,9.95287 -0.028,3.99611 -0.4554,6.25 -1.1862,6.25 -1.4624,0 -2.357,-2.34854 -2.357,-6.18787 0,-1.97278 -0.8071,-3.65916 -2.3214,-4.85027 -1.2767,-1.00429 -2.9014,-3.76905 -3.6105,-6.14392 -1.755,-5.87833 -5.0681,-8.08589 -5.0681,-3.37696 0,1.34254 -0.45,2.7191 -1,3.05902 -1.6821,1.03961 -1.0701,6.85348 1,9.5 2.4987,3.19443 2.4884,4 -0.051,4 -4.5344,0 -6.5479,-11.69753 -2.8277,-16.42705 l 2.1213,-2.69676 -2.1688,-0.56715 c -6.5525,-1.71351 -16.6792,-7.75177 -21.8043,-13.00119 l -5.5483,-5.68289 0.4906,10.43752 c 0.5211,11.08685 1.5742,14.62915 7.0419,23.68752 3.0419,5.03962 3.3428,5.25 7.5073,5.25 7.2528,0 9.1644,1.70795 15.5658,13.9078 6.3959,12.18918 14.6734,22.59998 20.6316,25.94868 2.718,1.5276 6.9599,2.4722 14.5171,3.2328 8.4958,0.855 11.4051,1.5686 14.2404,3.4926 2.0889,1.4176 5.0107,2.4181 7.0615,2.4181 l 3.4983,0 -7.9796,-8.3116 c -10.0305,-10.4481 -15.5944,-19.51 -15.7114,-25.5892 -0.047,-2.42046 0.4003,-4.56961 0.993,-4.7759 1.1639,-0.40506 3.4223,3.78077 3.4223,6.343 0,2.7929 6.9437,13.102 12.8984,19.1498 10.2788,10.4397 21.2148,14.348 38.6016,13.7958 9.1221,-0.2898 12.6183,-0.8939 20.4792,-3.5384 z m -76.7946,-6.566 c -1.1254,-1.4308 -2.3181,-3.8394 -2.6505,-5.3525 -0.8428,-3.8375 -5.1177,-8.155 -8.0745,-8.155 -1.5195,0 -2.4595,-0.5732 -2.4595,-1.5 0,-1.0333 1.037,-1.5 3.3326,-1.5 2.6872,0 3.957,0.7769 6.5558,4.0108 1.7727,2.2059 3.7033,5.388 4.2901,7.0714 0.603,1.7299 2.1359,3.4671 3.5255,3.9954 2.8405,1.0799 2.5943,3.2811 -0.4169,3.7269 -1.2728,0.1884 -2.836,-0.6869 -4.1026,-2.297 z m 97.0438,-27.65372 c -2.3494,-1.15289 -5.9494,-4.00082 -8,-6.32874 -4.4603,-5.06358 -11.1618,-8.69456 -16.3998,-8.88572 -4.3731,-0.15959 -4.7786,-1.42973 -2.3285,-7.29354 2.0418,-4.8868 1.9276,-10.64935 -0.25,-12.61712 -0.9625,-0.86973 -4,-2.41596 -6.75,-3.43605 -4.8229,-1.78906 -5.0027,-1.99527 -5.0754,-5.82366 -0.083,-4.39121 -2.1816,-9.03852 -6.6451,-14.71831 -4.414,-5.61667 -2.8842,-6.81006 2.4394,-1.90296 5.436,5.01069 7.7811,9.49994 7.7811,14.89518 0,3.75041 0.1989,4.00019 4.1222,5.17563 6.1889,1.85423 8.8778,5.04541 8.8778,10.53608 0,5.43516 0.8739,5.64546 7.0868,1.70537 4.2066,-2.66779 13.9132,-12.70888 13.9132,-14.39274 0,-0.42195 0.675,-0.76718 1.5,-0.76718 0.825,0 1.5,0.24735 1.5,0.54966 0,1.60685 -3.6664,7.21795 -7.2728,11.13045 -5.707,6.19135 -9.4579,8.64895 -14.1621,9.27897 -2.7785,0.37212 -4.1439,1.08701 -4.3753,2.29092 -0.2602,1.3534 0.3453,1.75 2.6718,1.75 4.6758,0 7.0357,1.27916 15.6384,8.47651 10.3826,8.68648 13.0049,10.0701 16.2678,8.58341 2.9673,-1.35199 4.0689,-0.6142 2.595,1.73804 -1.5803,2.52203 -8.0526,2.54952 -13.1345,0.0558 z m 41.3627,-9.7532 c -2.2083,-2.44018 -4.3714,-10.66433 -5.2,-19.77101 -0.5763,-6.33314 -0.3932,-7.58992 1.5676,-10.76265 1.9514,-3.1573 4.7543,-5.5669 6.4757,-5.5669 1.5959,0 0.2367,5.60232 -2.0059,8.26744 -2.2998,2.7332 -2.4979,3.59385 -1.8746,8.14436 0.3833,2.79851 1.7915,8.35155 3.1294,12.3401 2.9317,8.74028 2.0309,11.90458 -2.0922,7.34866 z m -21.591,-1.64545 c 0,-1.9807 2.7543,-17.01033 4.2738,-23.32159 1.1374,-4.72383 5.0425,-10.13352 7.3151,-10.13352 2.1927,0 1.667,2.41094 -1.0904,5.00143 -3.1292,2.93972 -4.4698,7.65395 -4.5494,15.99857 -0.034,3.575 -0.5991,8.06952 -1.2555,9.98782 -1.2564,3.67141 -4.6936,5.47825 -4.6936,2.46729 z m -80.75,-21.11739 c -0.6875,-0.27741 -1.25,-1.12068 -1.25,-1.87394 0,-1.04944 1.1296,-1.23576 4.833,-0.79715 3.0947,0.36652 6.8367,-0.0101 10.4039,-1.04712 6.5289,-1.898 7.7631,-1.98872 7.7631,-0.57062 0,2.10919 -8.3685,4.90843 -14.5,4.8502 -3.3,-0.0313 -6.5625,-0.28396 -7.25,-0.56137 z m 210.363,36.35981 c 0.096,-0.10864 0.3434,-30.472 0.5496,-67.47412 l 0.3748,-67.27659 -4.5187,0.56408 c -2.4853,0.31024 -6.3651,0.78987 -8.6217,1.06583 l -4.1031,0.50174 -0.6469,9.11439 c -1.0073,14.19018 -0.7652,28.3365 0.5703,33.32994 0.9565,3.57609 0.9565,4.96926 0,6.50079 -1.5407,2.46705 -1.5657,14.00162 -0.054,24.82114 0.8818,6.31024 0.8863,10.21113 0.018,16 -0.6312,4.2104 -1.4406,15.93688 -1.7986,26.05886 l -0.6511,18.40359 9.353,-0.7061 c 5.1442,-0.3883 9.4317,-0.79491 9.5278,-0.90355 z m -22.613,-11.89331 0,-12.19578 -3.106,4.94578 c -1.7083,2.72018 -4.9218,7.31973 -7.1412,10.22121 -2.2194,2.90149 -3.8592,5.42635 -3.644,5.6108 0.369,0.31633 11.5303,3.30134 13.1412,3.51452 0.4125,0.0546 0.75,-5.38885 0.75,-12.09653 z m -266.0386,6.12014 c -1.379,-2.70317 -3.2272,-4.5553 -5.4882,-5.5 -5.3289,-2.22657 -5.2735,-1.79759 0.5268,4.07564 2.9874,3.025 5.7937,5.5 6.2362,5.5 0.4424,0 -0.1312,-1.83404 -1.2748,-4.07564 z m 368.8232,-4.14842 c 10.3729,-3.8188 21.93421,-17.47113 29.12421,-34.39191 13.8908,-32.69004 13.3595,-78.97596 -1.2607,-109.83959 -7.863,-16.59885 -15.80011,-25.84883 -26.46091,-30.83763 -24.0727,-11.26496 -49.0738,10.04133 -59.6792,50.85951 -2.3419,9.01347 -5.0084,28.26659 -4.0479,29.22712 0.5504,0.55038 35.1139,-1.54018 40.214,-2.43232 2.7793,-0.48616 3.3702,-0.17613 4.75,2.49216 1.9841,3.83676 1.9776,5.49794 -0.038,9.74559 -1.5175,3.19786 -1.912,3.40113 -6.6017,3.40113 -5.818,0 -33.2938,1.92414 -36.4128,2.54999 -1.8949,0.38024 -2.0787,0.9495 -1.6752,5.18856 2.5471,26.75832 11.0867,49.29298 23.9458,63.18883 12.0957,13.07094 23.3845,16.28171 38.1425,10.84856 z m -2.7846,-13.83081 c 0,-0.58018 1.7377,-3.61768 3.8616,-6.75 13.1573,-19.40472 18.98171,-42.91033 17.76541,-71.69513 -0.34871,-8.25 -1.30381,-18.36215 -2.12261,-22.47144 -4.3775,-21.96964 -13.5078,-38.7968 -26.0972,-48.09715 -4.0006,-2.95535 -5.2933,-4.44535 -4.5241,-5.21452 0.7692,-0.76917 2.6617,0.0146 6.6232,2.74303 18.2588,12.57531 29.49371,42.93998 29.49371,79.71296 0,21.3595 -4.27971,40.69186 -12.57991,56.82712 -5.7855,11.24656 -12.4201,19.23002 -12.4201,14.94513 z m -428.91497,2.16708 c 1.9718,-0.63714 4.8562,-2.48513 6.4097,-4.10665 2.4027,-2.50795 2.7981,-3.69398 2.6478,-7.94234 -0.1605,-4.53356 0.078,-5.1227 2.5904,-6.38833 1.5219,-0.76682 4.0046,-1.69094 5.5171,-2.0536 2.7183,-0.6518 2.75,-0.75238 2.75,-8.72824 l 0,-8.06885 -4.25,0.68501 c -4.3707,0.70445 -5.359,1.47369 -20.5,15.95522 l -6.25,5.97779 0,9.79922 0,9.79921 3.75,-1.885 c 2.0625,-1.03675 5.3633,-2.4063 7.335,-3.04344 z m 82.32567,-7.23367 c 1.9006,-3.80991 1.3597,-4.87854 -2.4697,-4.87854 -2.2809,0 -2.941,0.45192 -2.941,2.01357 0,2.15087 2.0293,5.98643 3.1673,5.98643 0.3774,0 1.3869,-1.40466 2.2434,-3.12146 z M 340.40272,490.72594 c 1.562,-3.42824 1.4611,-5.95857 -0.2957,-7.4166 -2.2675,-1.88185 -3.5438,-0.31303 -3.5438,4.356 0,6.11283 1.7964,7.54477 3.8395,3.0606 z m 45.7155,-1.95295 c 21.7437,-2.475 39.6844,-4.5 39.8682,-4.5 0.1838,0 0.9017,-1.37028 1.5955,-3.04506 1.7734,-4.28144 0.041,-7.95677 -3.7473,-7.94996 -1.5243,0.003 -20.0964,1.79759 -41.2714,3.98857 -21.175,2.19097 -38.7747,3.98873 -39.1105,3.99502 -0.3358,0.006 -0.5608,2.71042 -0.5,6.0092 0.092,5.01629 0.3986,5.99813 1.871,6 0.9682,10e-4 19.5507,-2.02277 41.2945,-4.49777 z m 160.3757,-8.75 c 6.6033,-6.14056 6.5654,-6.21261 -2.6807,-5.10202 l -5.25,0.6306 0,5.44404 c 0,2.99423 0.3932,5.29405 0.8737,5.11071 0.4805,-0.18333 3.6562,-2.92083 7.057,-6.08333 z m 93.57147,-4.75208 c 1.7634,-1.65662 2.3291,-3.5844 2.7726,-9.44835 0.5656,-7.47847 2.26,-12.46523 3.7061,-10.90693 0.4375,0.47155 0.4752,5.58236 0.084,11.35736 -0.3916,5.775 -0.5312,10.85131 -0.3103,11.28068 0.8575,1.66637 7.8863,-0.65154 11.0679,-3.64988 2.8901,-2.7237 3.2455,-3.58591 2.7329,-6.6308 -1.3305,-7.90336 -1.7533,-15.48009 -0.8092,-14.5 1.1124,1.1548 4.2607,13.91256 4.2568,17.25 0,1.93906 0.5225,2.25 3.7974,2.25 5.2258,0 5.9746,-1.06897 5.0914,-7.26836 -0.938,-6.58323 -1.0789,-15.07959 -0.2844,-17.14985 1.3814,-3.60002 2.393,-1.12584 2.393,5.85311 0,7.55571 1.1684,12.41608 3.3125,13.77944 2.098,1.33397 6.4019,0.83748 8.6715,-1.00033 l 2.2056,-1.786 -2.4662,-8.964 c -4.5573,-16.56492 -6.9017,-19.96626 -14.4523,-20.96832 -2.6241,-0.34825 -7.0818,-1.11226 -9.906,-1.69781 -4.7128,-0.97711 -8.5967,-0.8214 -20.0043,0.80201 -4.862,0.6919 -8.3608,-0.83493 -8.3608,-3.64849 0,-1.88856 0.1656,-1.90904 3.6535,-0.45169 5.4733,2.28687 5.1331,1.13029 -0.8354,-2.84043 -2.925,-1.94587 -7.6682,-5.54829 -10.5405,-8.00538 -7.6033,-6.50412 -12.7092,-8.16917 -24.7776,-8.08009 -11.7422,0.0867 -19.1359,1.97839 -26.05947,6.66748 -3.9409,2.66896 -5.8626,5.15895 -10.6187,13.75871 -3.1938,5.775 -5.8103,11.12055 -5.8144,11.879 0,0.75846 2.4935,3.78196 5.5501,6.71889 l 5.5575,5.33989 20.19247,-1.95601 c 11.1059,-1.0758 21.205,-1.9618 22.4425,-1.96889 1.943,-0.0111 2.25,-0.54021 2.25,-3.87802 0,-2.40054 0.7882,-4.86717 2.0801,-6.50953 2.4981,-3.17584 4.2363,-2.58764 2.8817,0.97517 -0.529,1.39134 -0.9618,3.8504 -0.9618,5.4646 0,2.85521 0.1358,2.9349 5,2.9349 4.3333,0 5,-0.26667 5,-2 0,-1.4147 0.6585,-1.9928 2.25,-1.9754 3.3632,0.0368 5.75,5.63285 5.75,13.48132 0,5.52352 -0.2974,6.58287 -2.1222,7.55946 -1.1672,0.62467 -3.4343,0.87332 -5.038,0.55257 -2.0686,-0.41372 -3.0832,-0.14715 -3.4917,0.9174 -0.7452,1.94187 1.449,7.22581 3.533,8.50816 2.3629,1.45394 8.065,0.35574 10.6211,-2.04559 z m -0.5022,-27.39093 c 0,-0.88385 0.3375,-1.62088 0.75,-1.63787 7.3109,-0.30097 16.2502,-2.36527 19.4701,-4.49608 6.6701,-4.41404 14.7799,-4.60444 14.7799,-0.347 0,1.5963 -0.4121,1.9183 -1.75,1.3675 -4.0871,-1.68257 -5.3167,-1.53832 -9.9121,1.16281 -3.7127,2.18228 -6.5822,2.97675 -12.3379,3.41594 -4.125,0.31476 -8.2875,0.92541 -9.25,1.35699 -1.2662,0.56777 -1.75,0.34044 -1.75,-0.82229 z m -69.69427,20.42101 c 24.66617,-2.51103 61.54567,-6.028 63.21067,-6.028 0.7813,0 0.5236,-6.3889 -0.3107,-7.70133 -0.5772,-0.90819 -3.1967,-0.97186 -10.7346,-0.26093 -5.4841,0.51722 -24.5961,2.29405 -42.4711,3.9485 -17.87497,1.65446 -34.41247,3.26195 -36.74997,3.57221 l -4.25,0.5641 0,4.43872 c 0,2.44875 0.4733,4.43873 1.0557,4.43873 0.5807,0 14.1932,-1.3374 30.25,-2.972 z m 169.19427,-15.47693 c 21.45,-1.88945 42.6062,-3.73523 47.0138,-4.10174 l 8.0139,-0.66638 1.6619,-3.89148 1.6619,-3.89147 -3.1758,0.007 c -1.7466,0.004 -22.3007,1.58214 -45.6757,3.50737 -23.375,1.92523 -46.4375,3.78948 -51.25,4.14279 -9.5169,0.69868 -9.9424,1.0764 -7.7396,6.8702 0.9487,2.49541 1.2995,2.62096 5.75,2.05831 2.6068,-0.32956 22.2896,-2.14511 43.7396,-4.03455 z m 141.9558,-7.66931 c 1.2865,-1.20243 -0.8306,-8.89434 -4.3696,-15.87608 -3.745,-7.38815 -7.6554,-9.75095 -13.3259,-8.05201 -2.5982,0.77845 -6.8561,1.00656 -11.675,0.62547 -5.7452,-0.45434 -8.1918,-0.24206 -10.0853,0.87506 -2.3576,1.39093 -2.379,1.47695 -0.3757,1.51036 1.1683,0.0195 3.9808,0.69048 6.25,1.49108 3.6114,1.27419 4.1257,1.27419 4.1257,0 0,-2.21417 1.6272,-1.74511 3.8796,1.11838 1.7564,2.23297 6.9084,6.39988 10.8589,8.78279 1.6003,0.96526 0.6253,-1.86099 -1.9012,-5.51118 -2.1229,-3.06698 -2.3934,-5.191 -0.5873,-4.61063 1.6792,0.5396 7.75,10.71088 7.75,12.98479 0,0.99454 1.0125,3.36691 2.25,5.27193 2.2331,3.43774 4.5392,3.8826 7.2058,1.39004 z m -110.9432,-7.1646 30.0127,-2.36801 4.6933,-3.58248 c 2.5813,-1.97037 6.2616,-4.10006 8.1783,-4.73265 2.8913,-0.95421 3.5377,-1.69396 3.7941,-4.34209 0.3738,-3.86103 2.9496,-4.32871 3.8109,-0.69193 0.5623,2.37412 0.8917,2.48195 6.5431,2.14148 3.7793,-0.22768 6.9305,-1.05597 8.6351,-2.26969 1.4762,-1.05115 4.1394,-2.52314 5.9183,-3.2711 l 3.2343,-1.35993 -6.1916,-4.55797 c -9.1482,-6.73449 -15.8627,-9.07864 -26.1411,-9.12618 -9.7583,-0.0451 -12.9636,1.21429 -19.75,7.76034 -4.8924,4.71908 -5.1992,5.68305 -1.809,5.68305 5.1005,0 3.2702,1.85533 -3.4565,3.50379 -3.8513,0.94381 -7.211,2.05374 -7.4661,2.46653 -0.2552,0.41278 1.3238,1.55667 3.5088,2.54197 2.1851,0.9853 3.9728,2.17312 3.9728,2.63958 0,2.26697 -7.2635,0.34243 -17.3651,-4.60106 -12.0942,-5.91868 -20.3406,-8.40652 -30.5606,-9.21981 -5.6151,-0.44683 -7.7339,-0.092 -14.5223,2.43178 -7.3265,2.72389 -7.7745,3.04779 -5.7295,4.14224 3.0534,1.6341 16.868,5.09498 20.3375,5.09498 1.9681,0 2.84,0.50462 2.84,1.6436 0,1.42532 -0.9014,1.55982 -6.7872,1.01279 -6.8972,-0.64102 -14.5891,-2.958 -28.3794,-8.54843 -8.4358,-3.4198 -15.1223,-3.93846 -26.6527,-2.06741 -6.4471,1.04619 -14.1807,3.8546 -14.1807,5.14966 0,0.39513 3.0375,0.85147 6.75,1.0141 3.8802,0.16998 6.6336,0.72084 6.4761,1.29569 -0.3783,1.38137 -21.7462,0.97558 -27.2942,-0.51834 -2.4275,-0.65364 -5.5468,-1.99539 -6.9319,-2.98166 -2.3011,-1.63857 -5.145,-2.58307 -13.4728,-4.4747 l -2.9729,-0.67527 1.9716,2.17863 c 4.5827,5.06382 9.9494,7.10524 21.2129,8.06916 14.5206,1.24265 20.9067,2.50129 26.1967,5.16312 4.6381,2.33381 5.1768,2.96377 7.4947,8.7642 l 1.4087,3.52513 26.3306,-2.23255 c 14.4818,-1.2279 39.8362,-3.29815 56.3431,-4.60056 z m 164.3438,-1.35365 c 23.8133,-1.65714 25.4028,-1.88926 26.1186,-3.81402 0.4192,-1.12722 0.5236,-2.67593 0.2321,-3.44157 -0.5705,-1.49806 -3.1229,-1.42889 -38.4571,1.04206 l -16.75,1.17135 0,3.90672 c 0,3.24578 0.2961,3.82157 1.75,3.40336 0.9625,-0.27685 13.1604,-1.2974 27.1064,-2.2679 z m 115.10431,-6.87825 c 12.9034,-0.8287 23.8615,-1.90742 24.3512,-2.39716 0.4897,-0.48973 0.5756,-2.32394 0.1908,-4.07602 l -0.6997,-3.18559 -5.6515,0.5531 c -3.1083,0.3042 -11.0515,0.80189 -17.6515,1.10599 -6.6,0.30409 -15.0375,0.81491 -18.75,1.13515 l -6.75,0.58225 0,3.89851 c 0,2.14418 0.3375,3.89671 0.75,3.8945 0.4125,-0.002 11.3073,-0.68203 24.2107,-1.51073 z M 879.10989,398.48638 c -0.2813,-0.28133 -3.8266,-0.72426 -7.8785,-0.98429 l -7.367,-0.47278 -0.6396,3.87184 c -0.3518,2.12951 -0.6445,6.68434 -0.6506,10.12184 l -0.011,6.25 3.9349,0 c 6.0227,0 8.9667,1.55655 10.8635,5.74364 l 1.7016,3.75636 0.2791,-13.88755 c 0.1535,-7.63815 0.049,-14.11773 -0.2324,-14.39906 z"
       id="path3137"
       inkscape:connector-curvature="0" />
  </g>
</svg>
