<?xml version="1.0" encoding="UTF-8" standalone="no"?>
<!-- Created with Inkscape (http://www.inkscape.org/) -->

<svg
   xmlns:dc="http://purl.org/dc/elements/1.1/"
   xmlns:cc="http://creativecommons.org/ns#"
   xmlns:rdf="http://www.w3.org/1999/02/22-rdf-syntax-ns#"
   xmlns:svg="http://www.w3.org/2000/svg"
   xmlns="http://www.w3.org/2000/svg"
   xmlns:sodipodi="http://sodipodi.sourceforge.net/DTD/sodipodi-0.dtd"
   xmlns:inkscape="http://www.inkscape.org/namespaces/inkscape"
   width="830.64502"
   height="899.28448"
   id="svg2"
   version="1.1"
   inkscape:version="0.48.3.1 r9886"
   sodipodi:docname="Good-mornings-1.svg">
  <defs
     id="defs4" />
  <sodipodi:namedview
     id="base"
     pagecolor="#ffffff"
     bordercolor="#666666"
     borderopacity="1.0"
     inkscape:pageopacity="0.0"
     inkscape:pageshadow="2"
     inkscape:zoom="0.35"
     inkscape:cx="1760.7562"
     inkscape:cy="211.21925"
     inkscape:document-units="px"
     inkscape:current-layer="layer1"
     showgrid="false"
     fit-margin-top="0"
     fit-margin-left="0"
     fit-margin-right="0"
     fit-margin-bottom="0"
     inkscape:window-width="1855"
     inkscape:window-height="1056"
     inkscape:window-x="65"
     inkscape:window-y="24"
     inkscape:window-maximized="1" />
  <metadata
     id="metadata7">
    <rdf:RDF>
      <cc:Work
         rdf:about="">
        <dc:format>image/svg+xml</dc:format>
        <dc:type
           rdf:resource="http://purl.org/dc/dcmitype/StillImage" />
        <dc:title></dc:title>
      </cc:Work>
    </rdf:RDF>
  </metadata>
  <g
     inkscape:label="Ebene 1"
     inkscape:groupmode="layer"
     id="layer1"
     transform="translate(-197.92035,-82.988535)">
    <path
       style="fill:#000000"
       d="m 581.13784,981.23493 c -5.10753,-1.20006 -8.25142,-3.49876 -20.12179,-14.71238 -13.18352,-12.45411 -14.42656,-13.31597 -25.52417,-17.69711 -12.13038,-4.78886 -24.85593,-11.10474 -27.76807,-13.78172 -2.91055,-2.67553 -5.23537,-10.52993 -5.21944,-17.63385 0.0105,-4.67445 0.73991,-6.93322 4.54311,-14.0685 10.06937,-18.8914 9.89769,-18.35757 9.80875,-30.5 -0.12798,-17.4736 -5.01866,-38.48001 -12.93877,-55.57447 -5.81971,-12.56104 -8.3762,-24.2898 -8.40394,-38.55589 -0.0194,-9.98427 0.37634,-12.50704 3.84337,-24.5 2.12576,-7.3533 5.45019,-17.19464 7.38763,-21.86964 3.21682,-7.76214 3.58334,-9.67189 4.22221,-22 1.03476,-19.96774 -0.78355,-34.97929 -8.8423,-73 -1.92351,-9.075 -3.79906,-19.425 -4.16789,-23 -0.58019,-5.62358 -1.08878,-6.8561 -3.77204,-9.14107 l -3.10143,-2.64106 1.75016,-16.85894 c 1.07542,-10.35929 1.68818,-23.60572 1.58939,-34.35893 -0.15226,-16.57407 0.003,-18.13492 2.92731,-29.5 1.69843,-6.6 3.57066,-16.5 4.1605,-22 2.18219,-20.34808 4.95452,-26.72389 15.80157,-36.34052 6.40803,-5.68116 6.93744,-6.46461 7.48342,-11.07461 0.72172,-6.09381 4.31524,-14.70444 6.88902,-16.50719 1.86047,-1.30312 1.86624,-1.64482 0.22302,-13.20771 -1.48055,-10.4183 -1.80265,-20.35049 -1.17946,-36.36997 0.12445,-3.19908 -0.88657,-7.06812 -3.49722,-13.38336 -2.01976,-4.88585 -3.86674,-9.07781 -4.1044,-9.31548 -0.23767,-0.23766 -3.15732,0.94356 -6.48812,2.62495 -3.3308,1.68138 -9.05507,4.1859 -12.72059,5.5656 -9.75669,3.67241 -18.14741,9.10705 -20.97413,13.58487 -3.42604,5.4272 -6.88424,6.92342 -16.002,6.92342 -7.34166,0 -7.77649,-0.13229 -10.79966,-3.28574 -7.71783,-8.0504 -12.93938,-14.36382 -14.60184,-17.65522 -3.2475,-6.42948 -7.12996,-19.4154 -8.22306,-27.50422 -1.35881,-10.05499 -0.5458,-25.70002 1.63977,-31.55482 4.37041,-11.70763 8.44149,-41.92927 7.22974,-53.66998 -0.47296,-4.58252 -1.21789,-6.11817 -5.01837,-10.34522 -2.45463,-2.73014 -6.51938,-8.94549 -9.03277,-13.81188 l -4.5698,-8.84798 -19.78684,-3.24588 c -10.88276,-1.78524 -20.70716,-3.459 -21.83201,-3.71948 -1.8594,-0.43056 -2.2054,0.37186 -3.80893,8.83342 -7.39456,39.01979 -29.21747,73.18375 -54.35241,85.08919 -6.5279,3.09202 -7.28417,3.21781 -19.34534,3.21781 -12.49245,0 -12.58784,-0.0178 -20.15189,-3.75614 -19.35316,-9.56485 -35.45879,-36.91106 -41.37033,-70.24386 -1.21092,-6.82794 -1.79766,-15.46782 -1.8497,-27.23745 -0.0465,-10.50474 -0.46681,-17.38322 -1.07622,-17.61067 -0.55,-0.20528 -9.325,-1.62885 -19.5,-3.1635 -14.15056,-2.13426 -18.88374,-3.21683 -20.1322,-4.60463 -3.73979,-4.15718 -3.05652,-14.59301 1.20814,-18.45248 2.04715,-1.85265 2.4268,-1.82829 21.25422,1.36378 10.54341,1.78756 19.64978,3.23995 20.23638,3.22753 0.5866,-0.0124 1.65517,-3.06008 2.37461,-6.77258 3.31394,-17.10094 12.989,-39.86891 22.8406,-53.75 17.25967,-24.319208 34.83509,-34.118757 56.34723,-31.417597 9.76812,1.226529 18.49329,5.461839 25.99725,12.619409 7.86459,7.501548 11.94682,13.156008 17.30756,23.973358 9.29267,18.75158 13.76921,39.15608 13.94974,63.58428 0.0966,13.07663 0.37182,15.83456 1.61647,16.20065 0.825,0.24267 10.88398,2.04878 22.35329,4.0136 l 20.8533,3.57239 3.94898,-3.56767 c 2.17194,-1.96222 5.01533,-3.9731 6.31864,-4.46861 1.3033,-0.49552 9.26728,-0.87821 17.69772,-0.85042 9.1821,0.0303 17.35477,-0.45565 20.38266,-1.21188 9.54732,-2.38449 14.42554,1.0136 16.51002,11.50062 l 1.26706,6.37452 4.32941,0.64923 c 2.46191,0.36919 5.678,1.784 7.45584,3.27996 2.6488,2.22881 5.80515,3.1125 20.66036,5.78431 16.53851,2.97457 17.81718,3.07056 22.52351,1.69094 3.37661,-0.98982 7.76699,-1.31688 13.58123,-1.01171 8.3813,0.43991 8.83427,0.34484 18.50184,-3.88326 5.45061,-2.38382 11.56856,-4.78077 13.59545,-5.32655 2.234,-0.60155 6.15221,-3.30366 9.94969,-6.86158 6.26277,-5.86767 6.26404,-5.87001 4.74806,-8.75661 -0.83401,-1.58806 -3.36829,-5.35228 -5.63175,-8.36494 -5.33217,-7.09712 -8.56615,-14.04332 -10.03979,-21.56426 -2.60916,-13.31631 3.8592,-33.96978 13.80242,-44.07108 15.93912,-16.19252 47.08525,-20.43033 66.5061,-9.04895 6.55354,3.84063 15.16216,13.72908 19.12513,21.96844 6.60549,13.73339 12.14902,43.48243 11.3098,60.69341 -0.78572,16.11384 -4.00957,20.17603 -17.03039,21.45907 -8.91283,0.87825 -10.25386,1.59318 -11.78577,6.28325 -0.7686,2.35314 -4.22883,6.84135 -9.25747,12.00768 -4.41656,4.5375 -7.61278,8.3283 -7.10272,8.42399 0.51006,0.0957 4.52738,0.23812 8.92738,0.31649 4.4,0.0784 10.025,0.41667 12.5,0.75177 12.139,1.64357 17.35005,2.75576 18.8535,4.0239 0.90557,0.76384 3.6715,1.96083 6.1465,2.65997 2.475,0.69914 5.19193,1.88503 6.03763,2.63532 1.18318,1.04969 26.90167,6.58234 59.33035,12.76335 0.50559,0.0964 2.17198,-4.09979 3.70308,-9.32479 6.62364,-22.60362 16.60308,-39.8469 30.82657,-53.26462 12.30024,-11.60342 24.67889,-16.0893 38.22487,-13.85223 19.60704,3.23804 33.11574,18.28852 41.80385,46.57504 3.53384,11.50538 5.17791,24.59659 5.01195,39.90849 -0.14147,13.05237 -0.0111,14.15865 1.70426,14.46455 13.40688,2.3908 53.03803,11.64612 53.59213,12.51572 1.4757,2.31609 0.7672,11.09277 -1.0905,13.50816 l -1.81136,2.35511 -26.28442,-5.60511 c -14.45643,-3.08281 -26.88897,-5.60511 -27.62787,-5.60511 -0.74677,0 -1.81656,1.8876 -2.40868,4.25 -4.76003,18.99129 -11.50604,34.8518 -20.12918,47.32561 -7.2298,10.45828 -19.5194,21.88258 -27.71898,25.76732 -6.22389,2.9487 -7.3911,3.15707 -17.68473,3.15707 -10.437,0 -11.37459,-0.17406 -17.69321,-3.2847 -23.11415,-11.37907 -38.55988,-51.9406 -34.92495,-91.7153 0.50263,-5.5 0.73663,-10.19045 0.51999,-10.42321 -0.55139,-0.59244 -54.37133,-10.98102 -57.16218,-11.03371 -1.32659,-0.025 -2.5076,0.68932 -2.8219,1.70692 -2.60503,8.43432 -6.16537,15.9226 -8.99897,18.9271 -3.7495,3.97562 -4.3601,5.78103 -7.81445,23.10561 -2.66974,13.38959 -6.22245,21.67255 -11.8333,27.58874 -2.19596,2.31547 -3.75,4.9499 -3.75,6.35706 0,1.32163 -0.46684,3.27527 -1.03742,4.34141 -0.72353,1.35193 -0.70091,3.18813 0.0748,6.06875 1.42945,5.30856 -1.10661,16.54411 -5.04733,22.36133 -1.72105,2.54058 -2.88402,5.82427 -3.18749,9 -0.34744,3.63585 -2.05801,7.86472 -6.2697,15.5 -3.18554,5.775 -6.50514,11.85 -7.37689,13.5 -1.54855,2.931 -1.8212,11.85715 -1.05384,34.5 0.12115,3.575 0.17597,8.075 0.12182,10 -0.28331,10.07113 0.38459,41.18885 1.13758,53 0.81254,12.74539 0.71758,14.05897 -1.69887,23.5 -3.00296,11.7325 -3.12181,13.73059 -2.11951,35.63433 0.74086,16.19044 0.70684,16.65156 -1.27488,17.28054 -1.79989,0.57126 -2.17185,2.00559 -3.20677,12.36567 -3.431,34.34599 -4.86392,41.18194 -12.75515,60.85006 l -4.76223,11.8694 -0.15923,14 c -0.14203,12.48673 -0.44459,14.75028 -2.7992,20.94122 -1.45199,3.81767 -3.70035,8.33145 -4.99637,10.03061 -2.63815,3.4588 -3.87851,8.71189 -6.04495,25.60123 -0.82183,6.40686 -3.01497,16.45439 -4.91296,22.50794 -4.39496,14.01752 -9.0816,47.03284 -8.36376,58.919 0.8383,13.88081 3.90418,18.20108 21.30304,30.01904 6.19996,4.21125 11.50198,9.1263 19.35844,17.94558 9.50906,10.67441 11.75191,12.62378 18.51311,16.09063 7.88157,4.04133 9.206,5.02079 13.5836,10.04555 6.37231,7.31435 7.71326,12.05531 4.1274,14.5925 -1.01573,0.71868 -2.41056,3.02427 -3.0996,5.12352 -0.84024,2.55989 -2.12562,4.15931 -3.90321,4.85682 -1.45771,0.572 -3.32539,1.45314 -4.15039,1.95808 -11.15895,6.82988 -23.32715,6.85175 -34.03478,0.0612 -2.47722,-1.57101 -6.20772,-3.13285 -8.29001,-3.47075 -4.03389,-0.65461 -16.04847,-7.96672 -21.41023,-13.03032 -1.77926,-1.68032 -3.53089,-2.75926 -3.8925,-2.39764 -1.02978,1.02978 1.53071,3.56614 8.08723,8.01102 3.32216,2.2522 8.39714,6.01102 11.27773,8.35292 2.88849,2.34833 7.14917,4.73069 9.5,5.31194 9.4213,2.32942 11.59948,3.11381 14.09272,5.07499 2.68871,2.11495 4.65454,7.31452 4.66426,12.33686 0.009,4.44454 -5.4828,9.0384 -12.48538,10.44472 -3.28509,0.65974 -6.94341,2.20251 -8.67224,3.65723 -1.64464,1.38387 -3.56885,2.51613 -4.27602,2.51613 -0.70717,0 -3.03515,1.39709 -5.17328,3.10465 -3.491,2.788 -4.40208,3.05251 -8.93278,2.59338 -2.85433,-0.28924 -7.4001,0.0996 -10.46792,0.89535 -6.04884,1.56905 -8.7039,1.62463 -14.34084,0.30018 z m 18.85404,-6.0941 c 1.1,-0.0997 3.88081,0.16383 6.17958,0.58563 3.80775,0.69868 4.46591,0.49326 7.39831,-2.30909 1.77031,-1.6918 4.01747,-3.076 4.9937,-3.076 0.97623,0 3.11195,-1.125 4.74604,-2.5 1.6341,-1.375 3.80612,-2.50988 4.82673,-2.52196 2.44146,-0.0289 10.59026,-3.74906 11.5626,-5.27866 1.3934,-2.192 0.81897,-6.3967 -1.22972,-9.00119 -1.93717,-2.46271 -11.17837,-6.67077 -14.76475,-6.72325 -0.94187,-0.0138 -7.54399,-3.95537 -14.67138,-8.75907 -12.2592,-8.26244 -13.51998,-9.43543 -23.35085,-21.72494 -5.71558,-7.14501 -13.94606,-17.22817 -18.28996,-22.40702 -4.38961,-5.23333 -8.34717,-11.00811 -8.90914,-13 -2.23879,-7.93525 -2.30123,-29.84185 -0.14134,-49.58391 3.75821,-34.35128 4.31108,-43.73083 3.97875,-67.5 l -0.32857,-23.5 4.64069,-9.01237 c 6.59658,-12.81076 8.06452,-18.33296 7.30693,-27.48763 -0.54403,-6.57399 -0.184,-9.16682 2.91595,-21 4.59591,-17.54356 9.29542,-42.16851 10.18829,-53.3856 l 0.70728,-8.8856 -3.87957,0.74586 c -9.62071,1.84959 -18.1118,2.46218 -34.54989,2.49262 -17.26104,0.032 -17.87484,-0.0394 -26.5,-3.08156 -4.85632,-1.71285 -11.41718,-4.41932 -14.57968,-6.01439 -3.1625,-1.59507 -5.74572,-2.55614 -5.74049,-2.13573 0.0147,1.182 4.7059,25.64869 6.95326,36.2644 4.88442,23.07216 6.16784,37.11585 5.42511,59.36376 -0.65307,19.56245 -0.87765,21.37122 -3.60065,29 -9.3049,26.06863 -11.48593,38.02517 -9.92856,54.42908 1.1793,12.42161 2.44716,16.94144 8.89421,31.70716 4.31483,9.88226 5.72821,14.97901 10.95376,39.5 4.585,21.51513 4.86417,24.84469 2.81331,33.55333 -1.57618,6.69304 -1.58015,7.42958 -0.0559,10.37712 0.90238,1.74501 2.62963,3.55445 3.83833,4.02098 1.96623,0.75893 2.01313,0.9228 0.4454,1.55626 -5.23685,2.116 -9.24434,-2.95814 -9.24656,-11.70769 -6.6e-4,-2.585 -0.29283,-4.385 -0.64926,-4 -1.50799,1.62885 -10.97116,18.8934 -11.5055,20.99059 -0.94407,3.70523 1.7154,11.20458 5.21421,14.70339 3.57754,3.57754 20.97359,12.7413 32.18799,16.95574 6.69659,2.51663 8.01328,3.53616 17.28903,13.38718 6.50893,6.91262 11.87322,11.63223 15.25136,13.41846 5.28928,2.79677 7.65458,2.95412 23.21097,1.5441 z m -4.5,-8.32446 c 0,-0.8926 -1.23733,-1.77247 -2.98377,-2.12175 -1.64107,-0.32822 -2.73951,-0.99197 -2.44098,-1.475 0.88552,-1.4328 5.15965,-1.00049 6.85332,0.69318 1.99164,1.99164 2.03094,4.42857 0.0714,4.42857 -0.825,0 -1.5,-0.68625 -1.5,-1.525 z m 10.53279,-4.41159 c -2.07878,-4.01992 -2.90011,-4.3335 -6.27584,-2.39609 -1.87738,1.07746 -3.60516,1.39331 -4.83853,0.8845 -1.72658,-0.71228 -1.61842,-0.92493 1.08158,-2.12652 4.95847,-2.20667 8.80787,-1.75717 11.81291,1.37942 2.97763,3.10798 3.46489,5.19528 1.21277,5.19528 -0.81088,0 -2.15768,-1.32146 -2.99289,-2.93659 z m 18.46721,-0.9151 c 0,-0.46842 -1.35,-2.26433 -3,-3.99089 -5.40913,-5.66014 -3.51681,-7.04498 2.50895,-1.83612 2.67817,2.31509 3.64702,3.82987 3.198,5 -0.66195,1.725 -2.70695,2.34978 -2.70695,0.82701 z M 529.93999,820.06675 c -0.34428,-0.8972 1.17448,-5.22243 3.47937,-9.90879 3.97713,-8.08639 5.40255,-13.46129 6.5836,-24.8252 0.65803,-6.33145 1.71785,-8.58597 3.51425,-7.47574 2.64173,1.63268 -0.39179,21.28286 -5.11144,33.11029 -2.46116,6.16765 -7.50885,11.59316 -8.46578,9.09944 z m 17.15888,-82.30717 c -0.83952,-2.18775 -0.63597,-8.50382 0.35188,-10.91821 0.6201,-1.5156 0.13083,-2.72661 -2.02011,-5 -3.92254,-4.14588 -6.19403,-13.16064 -5.35445,-21.25 0.35678,-3.4375 1.02587,-6.25 1.48687,-6.25 0.81316,0 1.17029,1.61544 2.41928,10.94312 0.62692,4.682 4.61824,12.94029 7.52599,15.57176 1.52742,1.3823 1.57238,1.97943 0.39693,5.27199 -0.72908,2.04222 -1.35149,4.83813 -1.38314,6.21313 -0.13319,5.78616 -2.09222,8.88684 -3.42325,5.41821 z m -5.94032,-50.08488 c -1.366,-1.36599 -0.54171,-1.98726 4.27436,-3.22158 4.1297,-1.05841 6.21449,-2.56728 12.69648,-9.18905 7.30174,-7.45921 11.36249,-9.77333 11.36249,-6.4752 0,1.80847 -15.20223,15.0863 -20.21016,17.65182 -3.79499,1.94413 -6.93591,2.42128 -8.12317,1.23401 z m 115.8133,249.67428 c 3.09552,-1.17691 5.7706,-6.67089 4.4498,-9.13883 -0.48841,-0.91261 -3.12512,-2.19596 -5.85937,-2.85189 -4.77111,-1.14457 -8.02417,-3.39645 -6.74884,-4.67179 0.66827,-0.66826 10.86583,3.18575 14.42844,5.45301 1.2375,0.78755 2.25,2.09266 2.25,2.90023 0,2.39175 2.38362,0.94122 4,-2.43416 0.825,-1.72279 2.2875,-3.34488 3.25,-3.60464 2.98696,-0.80614 1.9554,-3.56137 -3.5,-9.34833 -3.70455,-3.9297 -7.3362,-6.5228 -12.33699,-8.80896 -5.4723,-2.50172 -8.66205,-4.896 -14,-10.50861 -14.92058,-15.6883 -19.42875,-19.81874 -27.70095,-25.37991 -9.15463,-6.15441 -17.01505,-13.78871 -18.87923,-18.33613 -1.6819,-4.1028 -2.28797,-33.73842 -0.88605,-43.32624 1.10375,-7.54859 4.5462,-20.85838 10.59166,-40.95136 1.65728,-5.50822 2.86431,-12.72369 3.42929,-20.5 0.98198,-13.51568 1.09697,-13.9363 5.85198,-21.40598 5.92892,-9.31379 7.18029,-14.38715 7.18029,-29.11058 0,-12.39635 0.18257,-13.5901 3.55968,-23.27498 1.95782,-5.61465 4.44047,-13.35846 5.51701,-17.20846 1.74948,-6.25665 8.92331,-46.23399 8.92331,-49.72659 0,-1.06654 -2.05561,-0.67954 -8.75,1.64731 -7.76035,2.69736 -10.05068,3.04349 -20.25,3.06031 -6.325,0.0104 -13.02183,-0.31915 -14.88185,-0.7324 l -3.38186,-0.75137 0.5367,4.00137 c 0.29518,2.20075 0.19928,4.00137 -0.21312,4.00137 -0.41239,0 -1.04365,5.9625 -1.4028,13.25 -0.76118,15.44536 -3.8457,31.34188 -9.84005,50.71209 -3.94336,12.74261 -4.19323,14.27224 -4.25325,26.03791 -0.0676,13.2572 -0.32856,14.16331 -8.11102,28.1667 -3.0378,5.46607 -3.37804,11.68032 -1.69405,30.94008 l 1.62691,18.60678 -3.19083,20.89322 c -3.97886,26.05319 -5.04638,36.66494 -5.22034,51.89322 -0.0754,6.6 -0.0919,12.45 -0.0368,13 0.0552,0.55 1.38102,-1.025 2.94631,-3.5 3.43457,-5.43065 7.1164,-9.00369 7.11522,-6.90499 -4.3e-4,0.77275 -1.35043,4.25789 -3,7.74478 -1.64957,3.48688 -2.99921,7.21731 -2.99921,8.28984 0,2.99584 3.34379,8.80173 8.5643,14.87037 2.60224,3.025 5.88477,7.24061 7.2945,9.36801 1.65303,2.49454 6.12787,6.16863 12.60218,10.34708 5.52146,3.56349 12.17161,8.25803 14.77812,10.43232 6.09704,5.08603 14.2011,8.77209 20.93372,9.52153 2.92995,0.32615 6.22718,1.37783 7.32718,2.33707 5.73843,5.0041 14.32189,7.15281 19.97997,5.0016 z m 6.77003,-18.95117 c -2.71989,-2.26903 -2.83583,-3.05644 -0.45,-3.05644 2.10574,0 4.2,1.84494 4.2,3.7 0,1.77004 -1.07871,1.58491 -3.75,-0.64356 z M 600.38592,726.59137 c -0.0583,-0.4125 -0.0248,-1.98294 0.0743,-3.48988 0.12572,-1.91081 -1.20388,-4.50167 -4.39404,-8.56223 -2.51586,-3.2023 -4.57262,-6.69435 -4.57056,-7.76013 0.004,-1.92022 3.47727,-8.43776 4.49697,-8.43776 0.29155,0 0.42675,2.46979 0.30043,5.48841 -0.21333,5.09803 0.0297,5.75598 3.41712,9.25 4.19825,4.33043 5.32538,7.70152 3.86195,11.55062 -0.94939,2.49709 -2.93755,3.72072 -3.18617,1.96097 z m -11.71736,-32.90274 c 0.55278,-2.82568 9.88213,-8.5855 12.92157,-7.97761 2.9421,0.58842 4.60162,-0.87563 9.24418,-8.15531 1.50323,-2.35712 3.16614,-4.01806 3.69536,-3.69099 1.8992,1.17378 0.90752,6.25207 -2.00641,10.27463 -3.43145,4.73699 -5.74549,6.20202 -9.79616,6.20202 -1.59295,0 -5.11003,1.12312 -7.81574,2.49581 -5.79755,2.94129 -6.67505,3.06097 -6.2428,0.85145 z m -16.67668,-80.36372 c 5.5,-0.53068 11.18526,-1.45202 12.6339,-2.04743 3.13182,-1.28722 3.47611,-2.92014 4.46675,-21.18488 0.39671,-7.31433 1.16722,-13.14361 1.80755,-13.67504 0.61385,-0.50945 3.7038,-1.89446 6.86655,-3.0778 3.16275,-1.18334 6.98229,-3.52352 8.48786,-5.20042 8.05301,-8.9694 12.11987,-12.79797 13.59453,-12.79797 2.84697,0 1.8214,2.58837 -4.22507,10.66341 -7.75911,10.36225 -11.94794,14.1945 -17.24755,15.77932 l -4.38452,1.31116 0.15534,8.69506 c 0.0854,4.78228 0.31591,8.85563 0.51217,9.05189 0.19626,0.19626 5.1774,0.89927 11.06921,1.56224 l 10.71238,1.20541 8.79746,-3.07205 c 15.99613,-5.58582 17.88935,-6.62597 18.60894,-10.22396 0.35448,-1.77237 0.6445,-11.07875 0.6445,-20.68087 0,-14.50971 0.35615,-18.8377 2.10867,-25.625 2.23485,-8.65528 2.2199,-12.08039 -0.14881,-34.0935 -0.7645,-7.10466 -0.75698,-13.03979 0.0264,-20.8762 0.60204,-6.02213 0.8749,-11.16904 0.60636,-11.43759 -0.26855,-0.26854 -2.45366,0.46316 -4.85581,1.62602 -5.25624,2.5445 -14.31726,4.34022 -19.78366,3.92073 -5.7255,-0.43937 -5.33831,-2.19803 0.6447,-2.92832 5.60299,-0.6839 10.45375,-2.08868 17.58047,-5.09131 3.67265,-1.54736 4.98729,-2.75739 6.11542,-5.62877 2.0708,-5.27073 2.93571,-10.8978 1.78441,-11.60935 -0.54075,-0.3342 -3.04859,0.96893 -5.57298,2.89584 -5.56177,4.2454 -12.08207,6.30046 -24.00521,7.56595 -11.90777,1.26385 -22.61422,1.23205 -32.15921,-0.0955 -10.73276,-1.49279 -29.30322,-6.28943 -35.61326,-9.1987 -5.77835,-2.66414 -15.27301,-10.70843 -16.24178,-13.76076 -0.94561,-2.97935 -2.1061,-2.36123 -3.87717,2.06513 -2.44142,6.1017 -2.08929,11.25502 1.02168,14.9522 3.09117,3.67364 8.12471,6.31647 22.11974,11.61383 5.6375,2.13388 10.25,4.22493 10.25,4.64676 0,0.42183 -1.95455,0.76697 -4.34345,0.76697 -7.32396,0 -19.67384,-4.98686 -28.79053,-11.62557 -2.54864,-1.85598 -4.93814,-3.37447 -5.30995,-3.37447 -1.18859,0 -9.58285,6.76437 -11.6406,9.38039 -3.60543,4.58356 -5.92675,11.34274 -7.48673,21.79975 -0.84674,5.67592 -1.94005,12.11986 -2.42958,14.31986 -3.52919,15.86059 -5.12484,29.04521 -5.99067,49.5 -0.52383,12.375 -1.23214,26.55 -1.57403,31.5 l -0.62162,9 14.3436,5.97921 c 7.88898,3.28857 16.8186,6.51335 19.8436,7.16619 6.76908,1.46087 28.06545,1.63439 41.5,0.33814 z m -65.81093,-17.98354 c -1.94002,-5.69202 -0.99696,-18.30756 2.34927,-31.42663 2.10035,-8.23456 2.17304,-9.59074 1.14884,-21.4321 -0.70277,-8.12519 -0.77215,-15.49926 -0.1942,-20.64127 0.49455,-4.4 0.92345,-8.71916 0.9531,-9.59813 0.0493,-1.46084 4.53109,-3.95894 9.58212,-5.34092 1.62582,-0.44484 2.24656,-1.89465 3.12891,-7.30794 1.77583,-10.89487 7.51525,-23.83457 11.09289,-25.00925 2.05234,-0.67387 1.45843,2.01949 -2.62186,11.88996 -2.12953,5.15146 -4.18859,11.54701 -4.57569,14.21236 l -0.70381,4.84608 3.32568,-0.66756 c 9.96892,-2.00104 13.03637,-4.50432 14.98052,-12.22523 1.56551,-6.21721 8.84516,-13.50622 8.84516,-8.85653 0,0.79356 -0.90379,2.97465 -2.00842,4.84686 -1.10464,1.87222 -2.6902,5.69982 -3.52349,8.50579 -0.98194,3.30657 -2.47446,5.7834 -4.24157,7.03889 -3.28365,2.33295 -13.78045,5.66267 -20.89917,6.6295 -7.39024,1.0037 -8.18512,1.90439 -9.29834,10.53612 -1.60641,12.45589 -1.27951,20.54693 1.04883,25.95931 l 2.07784,4.83008 -3.03047,10.91821 c -1.66676,6.00502 -3.56698,15.16491 -4.22271,20.35531 -1.32394,10.47965 -2.37695,14.39132 -3.21343,11.93709 z m 74.11599,-26.60004 c -2.36778,-2.53002 -6.33006,-5.79252 -8.80506,-7.25 -4.37021,-2.57353 -4.42087,-2.65907 -1.75626,-2.96578 5.60101,-0.6447 17.75626,8.18104 17.75626,12.89255 0,3.1751 -2.6362,2.19434 -7.19494,-2.67677 z m -3.12507,-34.36718 c -7.07396,-2.26035 -13.28801,-6.22241 -14.18331,-9.04325 -0.89876,-2.83174 1.95123,-6.99349 4.77637,-6.97479 2.79279,0.0185 7.04413,2.16183 6.8764,3.46678 -0.0694,0.53983 -1.50493,1.05086 -3.19009,1.13561 -4.53913,0.22829 -4.57772,0.96743 -0.19497,3.73414 5.692,3.5932 11.44273,4.86255 22.23561,4.90802 10.21653,0.043 15.51595,-1.05621 23.37909,-4.84952 5.88096,-2.83707 5.62091,-2.7912 5.62091,-0.99133 0,2.22897 -5.754,5.22924 -15.37674,8.0178 -10.78931,3.12662 -21.3657,3.33733 -29.94327,0.59654 z m -3.16778,-21.83984 c -1.7832,-0.42276 -3.1344,-1.46962 -3.35142,-2.59655 -0.28724,-1.4915 0.0253,-1.73103 1.48779,-1.1401 3.7186,1.50257 14.34632,1.7716 21.01338,0.53194 3.76092,-0.69931 14.41943,-3.90774 23.68558,-7.12985 16.84161,-5.85632 20.65246,-6.75009 20.65246,-4.84368 0,2.75684 -12.03905,7.79895 -29,12.14558 -11.78817,3.02098 -28.38228,4.48018 -34.48779,3.03266 z m 57.12057,-50.98312 c 3.92302,-1.07254 8.95319,-2.97322 11.17815,-4.22371 4.5072,-2.53319 3.89586,-0.003 5.6145,-23.23611 l 0.49932,-6.75 -3.46238,0 c -2.73903,0 -3.46237,-0.39827 -3.46237,-1.90638 0,-1.40891 0.51771,-1.771 1.98395,-1.38757 3.7072,0.96946 6.56622,-0.53797 8.39235,-4.42489 0.97704,-2.07964 3.48923,-6.48116 5.58265,-9.78116 3.38548,-5.33679 5.86428,-11.5 4.6252,-11.5 -0.24967,0 -1.67118,0.46279 -3.1589,1.02842 -3.44333,1.30915 -6.42525,-1.06904 -6.42525,-5.12439 0,-3.58767 1.60754,-4.60384 2.38469,-1.50742 0.32893,1.31053 1.24821,2.63228 2.04285,2.93721 1.52783,0.58628 6.57246,-2.81432 6.57246,-4.43051 0,-0.52334 1.53898,-3.18881 3.41996,-5.92328 2.63522,-3.83092 3.57495,-6.41896 4.09539,-11.27875 1.04595,-9.76694 0.62977,-11.07009 -3.76208,-11.77987 -4.96495,-0.80239 -7.37606,-3.16103 -8.14463,-7.96739 -0.49052,-3.06751 -1.07804,-3.95402 -2.62046,-3.95402 -1.0935,0 -1.98818,-0.47989 -1.98818,-1.06642 0,-0.58653 1.23419,-0.92403 2.74263,-0.75 2.11727,0.24427 3.20601,1.29731 4.77479,4.61821 2.25638,4.77645 3.88055,6.16017 7.25733,6.1829 2.99536,0.0202 4.22525,-3.33456 4.22525,-11.52504 l 0,-6.41015 -2.5651,0.97525 c -3.5646,1.35526 -5.4349,1.21769 -5.4349,-0.39975 0,-0.75625 1.29267,-1.63353 2.8726,-1.94952 3.54087,-0.70817 8.23381,-5.27287 10.64595,-10.35503 2.35002,-4.95126 2.93789,-15.18551 1.62678,-28.32045 -1.35672,-13.59186 -2.32395,-16.67383 -7.69486,-24.51885 -3.16166,-4.61809 -4.45047,-7.50465 -4.45047,-9.96781 0,-2.57834 -0.62965,-3.8798 -2.45602,-5.07648 -2.82038,-1.84798 -4.54398,-1.20773 -4.54398,1.6879 0,3.38902 -1.91915,5.87524 -4.53518,5.87524 -2.9868,0 -3.12736,-0.98823 -0.46482,-3.26797 2.76166,-2.36461 2.68138,-8.59608 -0.15723,-12.20478 l -2.15722,-2.74247 -1.2814,2.35761 c -0.70478,1.29669 -1.57358,4.04511 -1.93068,6.10761 -0.91144,5.26425 -2.47347,4.67424 -2.47347,-0.93428 0,-6.61774 2.86264,-11.73333 11.0887,-19.81572 3.91843,-3.85 8.47792,-9.37755 10.1322,-12.28344 3.59722,-6.31889 6.07337,-7.73464 15.19595,-8.68836 9.4713,-0.99018 11.37096,-2.02866 12.69726,-6.94114 2.76318,-10.23459 0.37499,-37.68313 -4.7494,-54.58706 -8.61883,-28.43112 -22.06811,-40 -46.50159,-40 -10.19315,0 -17.55396,2.03523 -27.64853,7.64472 -7.97688,4.4327 -12.46901,8.935 -16.10706,16.14352 -9.49284,18.80931 -8.17196,33.77733 4.49781,50.96874 8.30266,11.26575 8.30105,13.48349 -0.0159,21.86349 -4.5266,4.56092 -8.3195,6.76152 -13.58946,7.88442 -1.925,0.41018 -7.1,2.58363 -11.5,4.8299 l -8,4.08413 -12.5,0.0405 c -11.54579,0.0375 -12.95507,0.25363 -18.46132,2.83196 -12.51736,5.86133 -22.06304,15.8547 -31.92653,33.42389 -2.53668,4.51842 -4.61215,8.35057 -4.61215,8.51588 0,0.16532 4.8375,0.15156 10.75,-0.0306 13.93499,-0.42926 21.60182,0.67217 22.08334,3.17253 0.32872,1.70691 -0.17508,1.79552 -6.56183,1.15413 -8.88157,-0.89194 -23.488,1.54446 -30.57169,5.09946 -7.5965,3.81243 -13.6998,9.06222 -13.6998,11.78405 0,1.25225 1.57037,6.84119 3.48972,12.41987 4.80576,13.96822 5.28823,19.12023 2.49749,26.66941 -1.21993,3.3 -2.28364,7.575 -2.36382,9.5 -0.1157,2.7779 -0.55609,3.5 -2.13458,3.5 -2.95135,0 -3.08489,-5.25295 -0.29691,-11.67955 3.20376,-7.38505 2.85197,-14.85601 -1.21583,-25.82045 -4.41806,-11.90854 -5.97607,-21.20417 -5.97607,-35.65536 0,-12.02434 -0.0729,-12.45627 -2,-11.84464 -2.94599,0.93502 -2.53523,-1.62854 0.75,-4.6808 1.5125,-1.40525 5.27391,-4.14317 8.3587,-6.08428 6.11593,-3.84847 9.40099,-7.73084 10.40418,-12.29591 0.35522,-1.61646 1.76336,-5.53315 3.12919,-8.70377 3.87126,-8.98666 2.47108,-10.8514 -9.20714,-12.26198 -3.26421,-0.39427 -8.48085,-1.73863 -11.59253,-2.98746 -6.15819,-2.4715 -7.8424,-1.98532 -7.8424,2.26386 0,6.0356 3.98119,9.45394 12.3739,10.6245 4.4483,0.62043 5.10472,1.0424 4.11434,2.64487 -0.44537,0.72062 -2.86405,1.02814 -6.45818,0.8211 -5.39966,-0.31103 -5.90628,-0.14069 -8.40178,2.82505 -4.01579,4.77249 -5.57584,9.30692 -4.90998,14.27128 0.46106,3.43742 0.29229,4.23455 -0.81877,3.86735 -2.09811,-0.69343 -2.41664,-12.06087 -0.44851,-16.00608 2.06675,-4.14291 1.99559,-4.45888 -1.20102,-5.33236 -3.97069,-1.08499 -15.23052,-1.3059 -15.84548,-0.31087 -0.92732,1.50042 -6.06565,0.89894 -8.51966,-0.9973 -2.07907,-1.60651 -14.75723,-4.4999 -15.74933,-3.59428 -1.29622,1.1832 5.5799,11.2365 13.04521,19.07286 6.37247,6.68922 8.81926,9.966 8.81926,11.81092 0,2.70317 -0.92296,3.23034 -2.64345,1.50985 -0.7246,-0.7246 -1.23841,2.86587 -1.68146,11.75 -0.78528,15.74643 -2.75863,28.07864 -6.37238,39.82327 -2.39658,7.78888 -2.75707,10.61632 -2.73736,21.47018 0.0256,14.09644 1.47129,20.86068 7.0349,32.91536 1.88233,4.07845 5.66699,9.92845 8.41036,13 2.74337,3.07155 5.87219,6.59714 6.95293,7.83464 1.43708,1.64552 3.06257,2.25 6.05039,2.25 5.33492,0 9.02358,-1.99695 13.02813,-7.05311 2.66333,-3.36272 6.19573,-5.55257 19.35787,-12.00056 18.57522,-9.0998 28.02871,-15.80971 34.34473,-24.37728 5.85939,-7.94813 11.92082,-20.09522 13.90109,-27.8577 1.90824,-7.48016 4.6513,-13.0993 8.05723,-16.50524 l 2.52531,-2.52531 -2.1592,-1.62868 c -2.41357,-1.82056 -1.83515,-3.05212 1.43347,-3.05212 3.67197,0 11.07423,6.74716 16.40721,14.95517 9.03877,13.91161 20.59834,22.46669 37.34023,27.63502 3.1625,0.97628 5.75,2.09102 5.75,2.47721 0,1.64199 -10.58068,1.99183 -14.83581,0.49053 -10.73778,-3.78851 -16.58348,-7.88836 -28.18085,-19.76447 -6.33416,-6.4864 -12.23598,-11.79346 -13.11514,-11.79346 -2.92859,0 -6.80136,4.03862 -7.96266,8.30365 -3.94882,14.50259 -5.92834,18.76536 -17.24573,37.13752 -2.0129,3.26765 -3.65981,7.02932 -3.65981,8.35928 0,1.32996 2.02356,7.06539 4.49681,12.74539 2.47324,5.68 5.15236,13.16832 5.9536,16.64071 l 1.4568,6.31345 -2.86522,-3.47958 -2.86522,-3.47959 -0.83839,3.97959 c -1.26652,6.01183 -0.74967,18.86951 1.17851,29.31782 0.94783,5.13603 1.49961,11.32304 1.22618,13.7489 -0.45509,4.03756 -0.16037,4.79326 3.48414,8.93364 4.88979,5.5551 16.24061,11.24329 29.70854,14.88773 5.18967,1.40432 9.62335,2.36572 9.85263,2.13644 0.80684,-0.80684 -4.65247,-11.45158 -8.57396,-16.7178 -5.30285,-7.12125 -6.44691,-9.51927 -5.68572,-11.91757 0.85798,-2.70327 2.96841,-0.96339 4.51474,3.72204 0.63016,1.9094 3.39773,6.26091 6.15015,9.67001 5.66772,7.01995 7.16138,10.14794 6.36359,13.32658 -0.32097,1.27885 -0.029,2.44539 0.69454,2.77512 0.68655,0.31287 9.79828,0.38609 20.24828,0.16272 14.76789,-0.31567 20.58878,-0.84051 26.13278,-2.35623 z m -32.67862,-11.29548 c -0.68578,-1.28138 -0.93882,-3.92845 -0.60328,-6.31077 1.97682,-14.03523 5.4521,-21.60703 4.17834,-9.10357 -0.9292,9.12119 -1.00705,11.49764 -0.47194,14.40705 0.57782,3.14158 -1.58513,3.84369 -3.10312,1.00729 z m 34.50575,-4.16434 c 0.85819,-6.10102 0.85368,-7.08401 -0.0535,-11.64205 -0.8176,-4.108 0.79735,-3.5484 3.20695,1.11126 1.47312,2.84871 1.46381,3.59231 -0.11816,9.43659 -2.12202,7.83939 -4.08357,8.54651 -3.03529,1.0942 z m -19.46545,-16.73965 c 1.72646,-3.22593 6.00586,-4.87735 11.13942,-4.29873 2.8488,0.3211 4.86842,0.0937 5.29482,-0.59626 1.13169,-1.8311 2.5713,-1.26648 2.5713,1.00847 0,1.96737 -0.41224,2.08964 -5.59589,1.65978 -4.68899,-0.38885 -6.15479,-0.0848 -9.04441,1.87617 -4.28828,2.9101 -5.80003,3.03151 -4.36524,0.35057 z m -5.36417,-7.26035 c -0.97208,-3.6273 -0.61407,-11.96653 0.67615,-15.75 0.82018,-2.4051 1.89742,-3.59996 3.44356,-3.81955 2.80335,-0.39814 2.80537,-0.42603 -0.38348,5.27946 -2.31083,4.13452 -2.55775,5.4364 -2.01533,10.62595 0.60307,5.7699 -0.5173,8.15539 -1.7209,3.66414 z m 28.64743,-4.33117 c 0.47509,-6.09209 3.52537,-12.78988 6.0363,-13.25448 1.72596,-0.31936 1.72039,-0.14945 -0.1148,3.5 -1.06085,2.10961 -2.22038,5.44497 -2.57674,7.41192 -0.35636,1.96694 -1.34387,4.44194 -2.19447,5.5 -1.43615,1.78642 -1.51826,1.56105 -1.15029,-3.15744 z m -61.18649,-20.58099 c -5.37464,-8.63172 -7.24907,-13.79865 -6.45185,-17.78474 0.74776,-3.73882 2.36062,-3.00663 2.36062,1.07166 0,3.95094 1.31556,6.28804 7.15215,12.70583 2.66632,2.93182 4.84785,6.10432 4.84785,7.05 0,1.65549 -1.81359,4.16292 -2.95,4.0786 -0.3025,-0.0224 -2.53395,-3.22705 -4.95877,-7.12135 z m 41.90877,3.23474 c 0,-0.51008 1.2375,-1.91179 2.75,-3.11491 2.5321,-2.01417 3.47557,-2.13769 11.90705,-1.55893 8.82034,0.60545 9.26966,0.53381 12.21927,-1.94812 1.8571,-1.56265 3.91412,-4.91312 5.22693,-8.51365 2.63113,-7.2161 4.41022,-7.84669 3.41505,-1.21044 -0.8279,5.5208 -3.39588,10.95082 -6.51149,13.7686 -2.36472,2.13865 -5.55398,2.31376 -18.04868,0.99096 -5.36525,-0.56801 -6.78119,-0.40422 -7.87245,0.91067 -1.46701,1.76764 -3.08568,2.12216 -3.08568,0.67582 z m -13.33333,-6.73925 c -1.28577,-1.28576 -0.60485,-7.87211 1.22337,-11.83333 2.48961,-5.39424 5.75365,-8.1857 10.93153,-9.34881 5.69606,-1.27951 7.90655,-3.39647 11.30615,-10.82774 1.55407,-3.39711 3.24878,-6.4381 3.766,-6.75777 0.51723,-0.31966 3.11524,-0.83996 5.77335,-1.15621 7.39677,-0.88004 10.07511,-2.23113 11.28115,-5.69078 0.80207,-2.3008 1.36762,-2.80285 2.20927,-1.9612 1.4636,1.4636 -0.39504,6.1776 -3.63628,9.22259 -1.80053,1.69151 -3.28143,2.10422 -6.63385,1.84877 l -4.31587,-0.32885 -5.03574,7.46797 c -2.76966,4.10739 -6.16075,7.98359 -7.53575,8.61377 -9.75337,4.47016 -12.13918,6.0116 -14.43722,9.32767 -1.7557,2.53347 -2.56278,5.0196 -2.56278,7.89434 0,3.92829 -0.76995,5.09297 -2.33333,3.52958 z m 60.0215,-12.38456 c -0.91773,-1.07182 -2.50326,-1.94877 -3.52339,-1.94877 -2.87687,0 -5.16478,-3.27266 -5.16478,-7.38776 0,-4.28389 1.52978,-4.0296 2.50634,0.41661 0.65576,2.98566 4.62764,5.97115 7.944,5.97115 0.86729,0 1.54966,0.85469 1.54966,1.94098 0,2.81885 -1.39713,3.244 -3.31183,1.00779 z m -200.23921,-4.19037 c -5.584,-3.69869 -4.29506,-4.81518 3.15189,-2.73016 4.65957,1.30459 6.97541,3.23034 5.92622,4.92796 -1.13505,1.83654 -4.05438,1.12978 -9.07811,-2.1978 z m 160.55104,0.84859 c 0,-2.12164 2.67134,-2.89518 12.3808,-3.58511 8.34962,-0.5933 9.04962,-0.81999 11.70325,-3.78992 1.85787,-2.07931 3.24855,-5.22187 4.06927,-9.19541 0.68576,-3.3201 1.67187,-6.03655 2.19136,-6.03655 1.58857,0 -0.10948,12.61865 -2.2672,16.84812 -2.63414,5.16334 -6.12563,6.36146 -16.11143,5.52867 -5.27572,-0.43998 -7.90412,-0.28601 -8.38444,0.49116 -0.98791,1.59848 -3.58161,1.4095 -3.58161,-0.26096 z m -70.96284,-8.00925 c -1.70204,-4.4767 -1.31424,-5.38189 5.34208,-12.46916 8.47915,-9.02813 8.81927,-10.31687 4.01991,-15.23186 -5.45275,-5.58413 -3.3962,-7.10539 3.41193,-2.52386 6.77199,4.55722 11.44566,6.09529 14.13995,4.65335 2.07126,-1.10851 2.40846,-2.28832 2.07957,-7.27621 -0.30377,-4.60678 1.61925,-3.0954 4.85242,3.81372 4.23264,9.04493 6.65954,12.1769 10.00505,12.9117 3.06991,0.67426 7.89238,5.07747 6.77963,6.19021 -1.26698,1.26698 -10.79523,-4.06439 -14.4052,-8.06019 l -3.6055,-3.99086 -7.82804,-0.0573 c -6.62399,-0.0485 -7.82811,0.19595 -7.8285,1.58912 -2.5e-4,0.90552 -1.57546,3.02927 -3.50046,4.71945 -1.925,1.69017 -3.5,3.26292 -3.5,3.49501 0,1.15986 8.39102,3.5791 10.5417,3.03931 2.83076,-0.71048 2.9429,-1.17539 0.9265,-3.84131 -1.79337,-2.37105 -1.93309,-6.56328 -0.2182,-6.547 0.6875,0.007 2.75403,2.74965 4.5923,6.09584 2.91539,5.3069 4.03301,6.38945 8.75,8.47553 4.47424,1.97872 5.4077,2.82526 5.4077,4.90415 0,3.02943 -1.96907,3.34689 -2.72923,0.44003 -0.82884,-3.1695 -10.3019,-7.01484 -15.58274,-6.32541 -3.25081,0.42441 -5.28983,-0.0186 -9.1115,-1.97943 -2.7079,-1.38941 -5.26099,-2.31759 -5.67354,-2.06263 -0.41254,0.25497 -1.51479,2.82078 -2.44945,5.70181 -2.20247,6.78898 -3.13548,7.70501 -4.41638,4.33598 z m -84.76767,-7.98227 c -2.71075,-3.44616 -6.46106,-17.57649 -6.0757,-22.89188 0.35108,-4.8425 2.17099,-5.70564 2.57994,-1.22359 0.6336,6.94426 3.54937,16.55659 5.73883,18.91906 2.89453,3.12324 6.98946,4.20738 10.65947,2.82211 3.40399,-1.28487 4.83415,0.18122 2.47658,2.53879 -0.95806,0.95806 -3.91755,1.75654 -7.4602,2.01279 -5.38206,0.38931 -6.04299,0.20759 -7.91892,-2.17728 z m 31.73289,-24.86547 c 10e-4,-0.6875 2.46674,-2.53766 5.47875,-4.11147 6.58914,-3.4429 18.45824,-15.58864 21.84776,-22.35698 1.317,-2.62985 3.18709,-7.25655 4.15575,-10.28155 2.10267,-6.56636 3.0732,-7.84216 4.71601,-6.19935 1.50072,1.50072 0.33507,5.11763 -5.70413,17.69935 -5.24631,10.92988 -13.28785,20.22048 -20.69825,23.91324 -5.57826,2.77976 -9.79973,3.35583 -9.79589,1.33676 z m 131.57237,0.37096 c -0.76102,-1.23137 -0.72037,-1.25049 7.51767,-3.53462 11.6362,-3.22633 13.84018,-7.25939 12.01014,-21.97741 -0.69132,-5.55991 -1.91931,-12.97433 -2.72886,-16.47649 -1.44238,-6.23981 -1.25064,-8.42653 0.57571,-6.56577 0.50384,0.51333 2.12761,4.53333 3.60837,8.93333 2.74173,8.1469 4.35386,22.7316 3.07561,27.82456 -0.8322,3.31573 -5.1502,8.37421 -8.72743,10.22407 -3.84164,1.98659 -14.40559,3.07 -15.33121,1.57233 z m -77.32475,-57.72051 c -0.6875,-0.31191 -1.25,-1.26676 -1.25,-2.12188 0,-1.31124 0.9935,-1.45297 6.3431,-0.90489 5.71185,0.5852 6.71145,0.3999 10.04441,-1.86191 4.40929,-2.99222 6.61249,-3.2007 6.61249,-0.62571 0,1.15737 -1.29768,2.50184 -3.35875,3.47989 -3.45411,1.63908 -16.16383,3.04507 -18.39125,2.0345 z m 88.44217,-4.15045 c -0.23423,-0.4125 -1.17088,-3.03401 -2.08145,-5.82558 -1.7981,-5.51249 -6.33783,-10.60914 -11.11072,-12.47376 -1.65,-0.6446 -9.85926,-2.86832 -18.2428,-4.9416 -14.50839,-3.58798 -20.2572,-5.86742 -20.2572,-8.03211 0,-1.6853 3.88095,-1.07014 8.78324,1.3922 2.59422,1.30303 9.44176,3.35174 15.21676,4.55267 14.9385,3.10653 19.23481,4.68547 22.72208,8.35061 2.92009,3.06902 9.27792,14.5123 9.27792,16.69905 0,1.17667 -3.66335,1.41352 -4.30783,0.27852 z m -57.68931,-9.74655 c -0.95831,-1.1547 -0.98628,-2.51221 -0.12244,-5.94282 0.61577,-2.44545 1.1097,-5.7095 1.09762,-7.25345 -0.0309,-3.94907 -3.52208,-11.21805 -7.23267,-15.05913 -2.15697,-2.23281 -2.81842,-3.575 -2.11064,-4.28278 1.4983,-1.4983 3.44734,-0.3569 7.05059,4.129 3.81597,4.75073 5.864,13.18308 4.81978,19.8444 -0.39327,2.50873 -0.66065,5.79883 -0.59418,7.31133 0.13385,3.04579 -1.01101,3.53926 -2.90806,1.25345 z m 43.9892,-20.69972 c -5.59258,-8.75869 -10.01474,-23.5405 -7.32884,-24.49791 0.69505,-0.24775 1.83055,1.92156 2.82123,5.38977 0.91189,3.19243 3.3964,8.75835 5.52112,12.36872 4.35433,7.39901 5.67351,11.39796 4.08401,12.38032 -0.61564,0.38049 -2.78697,-2.0223 -5.09752,-5.6409 z m 33.00794,-28.93883 c -1.375,-0.55459 -7.40773,-1.65776 -13.40607,-2.45151 -16.31719,-2.15922 -18.02128,-3.63979 -20.5414,-17.84705 -1.33528,-7.52769 -1.3333,-7.56634 0.38845,-7.56634 2.16987,0 2.93127,1.85817 3.6711,8.95918 1.01924,9.78274 4.12705,11.79284 21.88792,14.15685 10.11779,1.3467 13,2.31318 13,4.35922 0,1.7346 -1.39573,1.84337 -5,0.38965 z m 167.76508,172.28535 c 23.07787,-7.18264 43.9648,-37.98797 51.63214,-76.15025 7.64375,-38.04486 1.94396,-73.81542 -15.50537,-97.30823 -14.28294,-19.22977 -38.59417,-20.91272 -57.8173,-4.0024 -13.53574,11.90719 -28.06371,38.23769 -32.50054,58.90397 l -0.6641,3.09334 23.23853,4.65015 c 12.7812,2.55758 23.71397,5.12558 24.29505,5.70666 1.99765,1.99765 1.24573,9.59396 -1.20821,12.20607 l -2.26473,2.41069 -23.08707,-4.395 c -12.69789,-2.41724 -23.37876,-4.10227 -23.73528,-3.7445 -0.35651,0.35777 -0.60855,9.72446 -0.56008,20.81487 0.08,18.31045 0.32345,21.0446 2.6477,29.73815 10.09322,37.75245 30.87901,55.7485 55.52926,48.07648 z m -6.2496,-13.12521 c -0.33141,-0.53622 2.9304,-4.47372 7.24846,-8.75 17.16652,-17.00039 27.86975,-42.01348 31.26954,-73.07584 3.59985,-32.89028 -3.3333,-61.56735 -18.87105,-78.05496 -3.43302,-3.64288 -3.94749,-5.14424 -1.76277,-5.14424 2.17315,0 10.79068,10.00147 14.28368,16.57761 7.17378,13.50576 10.37688,28.95167 10.35264,49.92239 -0.0448,38.80235 -11.43715,70.86891 -32.74922,92.18098 -7.31517,7.31517 -8.63964,8.17509 -9.77128,6.34406 z M 684.54677,333.84137 c 1.62716,-3.3 3.4493,-8.7 4.0492,-12 2.80392,-15.42404 5.12981,-24.44838 6.61668,-25.67241 2.27155,-1.86999 7.27972,-8.90905 7.27678,-10.22763 -10e-4,-0.66155 -1.89467,-1.05351 -4.75,-0.98341 -8.48645,0.20833 -8.24755,0.0982 -8.24755,3.80166 0,4.33149 -0.8575,6.58179 -2.50805,6.58179 -0.9034,0 -1.24847,-1.48071 -1.14301,-4.90474 0.12644,-4.10534 -0.34745,-5.52107 -2.90756,-8.68621 -4.50401,-5.56844 -5.99516,-5.4354 -3.10066,0.27663 4.91664,9.70252 5.94739,15.44731 5.42604,30.2417 -0.51289,14.55456 -1.97742,20.30138 -6.39874,25.1088 -1.28287,1.39489 -2.59557,4.09489 -2.91711,6 l -0.58462,3.46382 3.11506,-3.5 c 1.71329,-1.925 4.44638,-6.2 6.07354,-9.5 z m 256.33812,-16.08179 c 1.18649,-3.09195 0.5758,-5.47423 -1.64301,-6.4093 -1.2375,-0.52152 -13.01302,-3.22874 -26.16782,-6.01605 -18.87491,-3.99931 -24.09004,-4.79637 -24.73468,-3.78034 -0.73141,1.15278 -1.21913,6.72665 -0.5975,6.8284 0.1375,0.0225 11.275,2.45241 24.75,5.39979 13.475,2.94737 25.23936,5.40396 26.14301,5.45907 0.90366,0.0551 1.91616,-0.61158 2.25,-1.48157 z M 316.78648,310.3321 c 12.65555,-3.9089 25.73681,-15.26002 36.23266,-31.44049 6.44771,-9.93982 8.72468,-14.41255 13.0858,-25.70494 13.39397,-34.68141 15.20999,-82.70005 4.35318,-115.10546 -3.80977,-11.37139 -10.5799,-24.51777 -16.48981,-32.02024 -14.10947,-17.911566 -35.39123,-23.502357 -54.15778,-14.227428 -17.60017,8.698478 -34.90353,31.362318 -44.28776,58.007828 -3.61001,10.25022 -7.42778,25.43644 -6.6022,26.26202 0.47538,0.47538 35.70891,6.60414 49.82782,8.66739 3.88664,0.56797 5.02964,1.22326 6.25,3.58318 2.90132,5.61052 1.09286,14.5259 -3.43846,16.95099 -1.40142,0.75002 -8.6003,-0.0423 -26.98721,-2.97036 -13.79179,-2.19627 -26.0345,-3.99322 -27.20605,-3.99322 -2.11966,0 -2.12745,0.0965 -1.59284,19.75 0.44286,16.28109 0.97505,21.59423 3.02997,30.25 11.17171,47.05766 37.77891,71.31972 67.98268,61.99073 z m -6.69587,-11.83098 c -0.28562,-0.46214 1.7465,-3.49964 4.51581,-6.75 14.90572,-17.49498 25.49637,-39.35333 30.25244,-62.43887 4.49905,-21.838 5.6341,-58.09304 2.32754,-74.34488 -3.84041,-18.87578 -11.00807,-36.27095 -20.34796,-49.38238 -4.00333,-5.619906 -4.77114,-8.243618 -2.41244,-8.243618 1.5347,0 11.06868,14.827428 15.54081,24.169368 5.14257,10.74245 8.92556,23.21921 11.16354,36.81873 1.21632,7.39118 1.44553,14.08246 1.02808,30.0119 -1.15142,43.93639 -8.9587,70.70557 -28.3213,97.1065 -8.84703,12.06294 -12.32025,15.361 -13.74652,13.05325 z m 508.79428,-6.74154 c 0.61075,-1.59157 0.84473,-5.41821 0.3313,-5.41821 -0.15163,0 -23.57783,-4.725 -52.05822,-10.5 -28.4804,-5.775 -52.13083,-10.5 -52.55653,-10.5 -0.4257,0 -1.26569,1.6021 -1.86666,3.56021 -0.81958,2.67045 -0.79903,3.65683 0.0822,3.9468 0.64618,0.21262 21.19988,4.26697 45.67488,9.00966 24.475,4.74268 47.425,9.2141 51,9.93648 8.74752,1.76757 8.70126,1.76774 9.39301,-0.0349 z M 496.87334,279.61695 c 0.71241,-0.42657 2.44453,-3.31154 3.84916,-6.41105 2.72256,-6.00773 10.86374,-18.59654 16.58131,-25.63993 1.90884,-2.35146 3.26542,-4.48058 3.01463,-4.73138 -0.51842,-0.51842 -16.09306,-3.59232 -16.36327,-3.22954 -0.0968,0.12997 -0.9592,2.32775 -1.91641,4.88393 -1.8887,5.04368 -6.03431,9.5663 -11.54688,12.59701 l -3.5,1.92423 -0.27754,14.18 -0.27755,14.17999 4.57064,-3.48884 c 2.51385,-1.91887 5.15351,-3.83786 5.86591,-4.26442 z m 195.84475,0.76113 c 3.79769,-2.98727 7.09408,-11.50278 6.49843,-16.78732 -0.53017,-4.70365 -3.86327,-9.24939 -6.78199,-9.24939 -1.56884,0 -1.5908,0.34225 -0.26833,4.18077 0.9127,2.64913 1.19977,5.67154 0.78358,8.25 -0.86363,5.35054 -4.03621,12.56923 -5.52411,12.56923 -0.87548,0 -0.85844,0.38586 0.0662,1.5 1.61735,1.94879 2.22862,1.89461 5.22621,-0.46329 z m 8.83934,0.92821 c 1.06373,-0.56929 3.27993,-3.38179 4.92487,-6.25 3.71272,-6.47367 4.01425,-11.89781 0.78707,-14.15822 -3.79603,-2.65884 -4.48076,-1.94668 -4.99329,5.1933 -0.29393,4.09476 -1.33021,8.40615 -2.63436,10.96016 -1.18241,2.31559 -2.14984,4.45309 -2.14984,4.75 0,0.86527 1.97234,0.62501 4.06555,-0.49524 z m -13.39914,-8.70896 c 2.04036,-4.88327 2.00924,-12.57584 -0.0637,-15.73951 -1.49422,-2.28048 -6.06614,-4.38637 -7.15624,-3.29627 -0.83789,0.83789 0.78327,6.77982 1.84977,6.77982 1.97249,0 4.70374,3.30999 4.70374,5.70044 0,2.37078 -3.28302,6.47709 -6.05682,7.5757 -1.24375,0.49261 -1.2359,0.71819 0.0568,1.63242 2.90585,2.05505 5.05708,1.19907 6.66641,-2.6526 z m -8.71882,-2.22922 c 4.29998,-2.19369 5.21838,-3.67859 3.8821,-6.27674 -0.67198,-1.30654 -2.14321,-1.75 -5.80586,-1.75 -2.69819,0 -5.17749,0.43962 -5.50957,0.97693 -0.83964,1.35857 1.33841,9.02307 2.56412,9.02307 0.55071,0 2.74186,-0.88797 4.86921,-1.97326 z m -2.06451,-13.9323 c -1.38065,-3.96052 -5.24559,-5.42382 -11.4644,-4.34053 l -4.91868,0.85681 3.07283,1.6287 c 1.69006,0.89579 3.65766,2.33338 4.37245,3.19464 0.81299,0.9796 2.91923,1.56594 5.62515,1.56594 l 4.32553,0 -1.01288,-2.90556 z m -147.27882,-21.2767 c 2.43717,-1.75024 4.08574,-3.4811 3.66348,-3.84634 -0.42226,-0.36524 -5.26774,-1.43596 -10.76774,-2.37937 -5.5,-0.9434 -10.95036,-1.94574 -12.11191,-2.22741 -1.73347,-0.42035 -2.41295,0.24024 -3.79185,3.68645 -0.92396,2.30921 -1.54069,4.33781 -1.37051,4.50799 0.48174,0.48174 14.99444,3.23874 17.61079,3.34555 1.28509,0.0525 4.33057,-1.33663 6.76774,-3.08687 z m -76.44497,-9.06774 c 1.90306,-3.4822 1.4756,-11.67501 -0.88328,-16.929 -3.51219,-7.82275 -9.61929,-9.561 -16.46502,-4.68642 -3.27893,2.33481 -3.62022,3.86542 -0.86188,3.86542 2.99719,0 7.03057,6.10905 7.9741,12.07774 0.50346,3.1849 1.55072,5.79564 2.64614,6.59663 2.77679,2.03044 6.20315,1.61315 7.58994,-0.92437 z m 9.82517,1.25832 c 2.70135,-1.44572 3.38272,-6.26252 1.95571,-13.82542 -1.48921,-7.8925 -4.94585,-12.1829 -9.81537,-12.1829 l -3.02904,0 2.70212,5.21417 c 2.25614,4.35359 2.70212,6.49508 2.70212,12.97505 0,6.05015 0.33065,7.85104 1.5,8.16983 0.825,0.22492 1.64208,0.46115 1.81574,0.52495 0.17366,0.0638 1.14958,-0.33026 2.16872,-0.87568 z m 9.59952,-0.25832 c -0.32048,-0.6875 -0.86047,-2.0375 -1.19997,-3 -0.84127,-2.38505 -2.03323,-2.19939 -2.71914,0.42354 -0.72788,2.78342 -0.0526,3.82646 2.47748,3.82646 1.26355,0 1.80533,-0.46976 1.44163,-1.25 z m -31.58398,-3.93428 c 0,-0.65135 -0.90403,-3.05176 -2.00896,-5.33424 l -2.00897,-4.14996 -25.24103,-4.27871 c -13.88257,-2.35329 -26.42074,-4.49757 -27.8626,-4.76507 -2.4543,-0.45533 -2.66645,-0.18706 -3.32502,4.2046 -0.3869,2.58003 -0.5572,4.82529 -0.37844,4.98946 0.23736,0.218 54.58218,9.63718 60.07502,10.41236 0.4125,0.0582 0.75,-0.42708 0.75,-1.07844 z m 32.89687,-12.03093 c 1.82596,-1.27895 1.89026,-1.64369 0.61164,-3.46918 -1.3787,-1.96836 -7.15565,-5.0018 -7.97162,-4.18584 -0.21944,0.21944 0.53907,3.29554 1.68557,6.83578 1.70921,5.27777 2.22405,6.05972 2.85924,4.34262 0.42608,-1.15179 1.69291,-2.73732 2.81517,-3.52338 z m 14.62869,-0.50023 c -1.57214,-8.38024 -5.80425,-12.2697 -11.14229,-10.24018 l -2.61674,0.99488 2.61674,2.61673 c 1.4392,1.43921 2.61673,3.42271 2.61673,4.40779 0,2.20229 4.55789,5.93622 7.24615,5.93622 1.73901,0 1.8927,-0.44632 1.27941,-3.71544 z M 301.10446,198.80989 c 1.2762,-1.94772 1.44633,-3.27365 0.73779,-5.75 l -0.92089,-3.21852 -44.96474,-7.68897 c -24.73061,-4.22894 -45.30224,-7.71644 -45.71474,-7.75 -0.4125,-0.0336 -0.75,1.48467 -0.75,3.37387 0,1.88919 -0.46259,4.65161 -1.02798,6.13869 -0.56539,1.48708 -0.87074,2.86102 -0.67856,3.0532 0.48851,0.48851 85.59122,14.14409 88.93349,14.27026 1.88473,0.0712 3.23923,-0.6789 4.38563,-2.42853 z m -95.07997,-14.57127 c 0.86828,-2.73569 0.85924,-8.83873 -0.0144,-9.71235 -1.10323,-1.10322 -3.51824,2.96347 -3.51824,5.92444 0,5.44341 2.24362,7.84917 3.53261,3.78791 z"
       id="path3071"
       inkscape:connector-curvature="0" />
  </g>
</svg>
