<?xml version="1.0" encoding="UTF-8" standalone="no"?>
<!-- Created with Inkscape (http://www.inkscape.org/) -->

<svg
   xmlns:dc="http://purl.org/dc/elements/1.1/"
   xmlns:cc="http://creativecommons.org/ns#"
   xmlns:rdf="http://www.w3.org/1999/02/22-rdf-syntax-ns#"
   xmlns:svg="http://www.w3.org/2000/svg"
   xmlns="http://www.w3.org/2000/svg"
   xmlns:sodipodi="http://sodipodi.sourceforge.net/DTD/sodipodi-0.dtd"
   xmlns:inkscape="http://www.inkscape.org/namespaces/inkscape"
   width="830.64502"
   height="899.28448"
   id="svg2"
   version="1.1"
   inkscape:version="0.48.3.1 r9886"
   sodipodi:docname="Cable-internal-rotation-2.svg">
  <defs
     id="defs4" />
  <sodipodi:namedview
     id="base"
     pagecolor="#ffffff"
     bordercolor="#666666"
     borderopacity="1.0"
     inkscape:pageopacity="0.0"
     inkscape:pageshadow="2"
     inkscape:zoom="0.35"
     inkscape:cx="1760.7562"
     inkscape:cy="211.21925"
     inkscape:document-units="px"
     inkscape:current-layer="layer1"
     showgrid="false"
     fit-margin-top="0"
     fit-margin-left="0"
     fit-margin-right="0"
     fit-margin-bottom="0"
     inkscape:window-width="1855"
     inkscape:window-height="1056"
     inkscape:window-x="65"
     inkscape:window-y="24"
     inkscape:window-maximized="1" />
  <metadata
     id="metadata7">
    <rdf:RDF>
      <cc:Work
         rdf:about="">
        <dc:format>image/svg+xml</dc:format>
        <dc:type
           rdf:resource="http://purl.org/dc/dcmitype/StillImage" />
        <dc:title></dc:title>
      </cc:Work>
    </rdf:RDF>
  </metadata>
  <g
     inkscape:label="Ebene 1"
     inkscape:groupmode="layer"
     id="layer1"
     transform="translate(-197.92035,-82.988535)">
    <path
       style="fill:#000000"
       d="m 581.04438,981.3342 c -5.1076,-1.2001 -8.2515,-3.4988 -20.1218,-14.7124 -13.1833,-12.4539 -14.4264,-13.3159 -25.5242,-17.6976 -13.9722,-5.5167 -26.50206,-12.0352 -28.83496,-15.001 -2.7437,-3.4881 -4.5463,-12.0309 -3.9285,-18.6175 0.3804,-4.0552 1.8804,-7.8652 6.1434,-15.6048 6.7284,-12.2154 8.1895,-17.3638 9.73766,-34.3117 0.9215,-10.088 0.9051,-14.5203 -0.077,-20.6471 -1.48366,-9.2606 -4.92026,-20.5531 -8.97846,-29.5032 -4.4917,-9.9063 -6.3766,-21.9142 -5.7762,-36.7983 0.4406,-10.925 0.9647,-13.886 4.1594,-23.5 2.0104,-6.05 4.6001,-13.3259 5.755,-16.1686 2.0655,-5.0842 2.0732,-5.3661 0.4713,-17.2576 -2.2433,-16.6529 -2.7159,-17.4544 -23.6558,-40.124 -6.884,-7.4526 -14.5413,-16.5544 -17.0163,-20.2262 -4.2833,-6.3545 -4.6926,-6.6774 -8.5,-6.7054 -6.2946,-0.046 -11.1569,-1.8217 -13.8927,-5.0731 -2.796,-3.3228 -4.2095,-7.5902 -8.569,-25.8701 -1.841,-7.7193 -4.4762,-15.4831 -6.9581,-20.5 -2.1972,-4.4413 -5.0071,-11.67503 -6.2443,-16.07503 -1.2372,-4.4 -2.3801,-8.18617 -2.5397,-8.41371 -0.1597,-0.22754 -2.6541,0.7403 -5.5432,2.15076 -10.7705,5.25809 -23.2513,6.53088 -33.7998,3.4469 -14.2229,-4.15824 -30.2491,-19.5743 -41.314,-39.74114 -7.3817,-13.4538 -14.0087,-34.29619 -16.7541,-52.69281 -0.6771,-4.5375 -1.7158,-8.24109 -2.3081,-8.23021 -0.5924,0.0109 -8.502,0.90873 -17.577,1.99522 -21.9693,2.63021 -21.6127,2.64895 -24.069,-1.26501 -1.6253,-2.58991 -1.968,-4.52194 -1.6871,-9.51247 0.2117,-3.76087 0.9324,-6.81728 1.8043,-7.65136 0.965,-0.92321 7.3193,-1.93985 18.9518,-3.03215 24.3985,-2.29105 21.7038,-0.81316 22.4261,-12.29957 2.4241,-38.55224 12.8552,-67.96441 30.8054,-86.86129 18.5443,-19.52235 43.3017,-21.5319 64.4669,-5.23277 13.3698,10.29591 27.0999,31.79935 34.2217,53.59644 3.0092,9.20991 7.0799,27.39418 7.0799,31.62645 0,1.37428 0.3375,2.7006 0.75,2.94739 0.8437,0.50476 28.975,-2.09476 31.1498,-2.87846 1.0967,-0.39519 0.9377,-0.99633 -0.7346,-2.77638 -5.002,-5.32432 -4.0378,-15.44278 2.1525,-22.59093 2.3003,-2.65618 6.0751,-7.33951 8.3886,-10.40741 3.5115,-4.65675 5.576,-6.23597 12.5,-9.56193 11.86386,-5.69888 19.46336,-7.44478 29.70846,-6.82521 7.2475,0.4383 9.5363,1.06623 16.5,4.52689 6.7865,3.37259 9.3093,4.08608 15.7057,4.44188 6.5189,0.36261 8.5962,0.96954 14.3703,4.1986 8.3428,4.66559 12.1085,4.77861 20.1214,0.6039 8.1637,-4.2533 15.5854,-5.41235 29.3878,-4.58954 17.9281,1.06874 18.9164,1.0203 29,-1.42138 16.4112,-3.97385 30.5284,-2.87659 45.8748,3.56561 4.7438,1.99142 9.7502,3.82625 11.1252,4.0774 3.3829,0.61792 12.5019,-5.51527 16.798,-11.29786 1.814,-2.44156 5.8167,-6.1115 8.8951,-8.15542 4.9395,-3.27962 6.4576,-3.75967 12.9224,-4.08613 16.2941,-0.82281 27.7991,3.2562 37.7072,13.36876 7.2808,7.43119 10.7335,8.70027 21.2512,7.8112 10.4738,-0.88535 12.1688,-0.21997 14.6501,5.75069 1.443,3.47203 2.5214,4.84297 3.5111,4.4632 0.7857,-0.30148 2.6771,-0.54815 4.2032,-0.54815 l 2.7747,0 0.6871,-9.25 c 1.786,-24.04409 9.7235,-48.21936 21.0999,-64.26395 5.9265,-8.35842 12.4827,-14.10834 20.3204,-17.82153 6.1166,-2.8978 7.5242,-3.16452 16.7006,-3.16452 9.285,0 10.506,0.23872 16.623,3.25014 11.9748,5.89515 25.0482,22.14077 32.7858,40.7411 3.7027,8.90067 6.7556,20.42659 8.581,32.39668 0.7875,5.16335 1.5571,9.48219 1.7105,9.59742 0.1533,0.11522 9.9537,-0.37023 21.7787,-1.07878 11.82502,-0.70855 24.32362,-1.31488 27.77482,-1.34741 5.9375,-0.056 6.3333,0.0886 7.3652,2.69085 1.499,3.78 1.3233,11.22819 -0.3015,12.77989 -0.9177,0.87642 -9.5117,1.77993 -27.33852,2.87418 -14.3,0.87778 -26.5221,1.59595 -27.1602,1.59594 -0.7428,-1e-5 -1.3922,3.14817 -1.805,8.74999 -2.5026,33.96464 -11.5271,59.32645 -27.0925,76.139 -10.2849,11.10892 -21.2812,15.82056 -34.6848,14.86154 -24.584,-1.75898 -47.0822,-32.26491 -54.2936,-73.61808 -0.8052,-4.61694 -1.4639,-9.87369 -1.4639,-11.68166 0,-6.81758 -2.8773,-8.85152 -4.5432,-3.21158 -0.683,2.31237 -1.8152,3.51695 -3.9568,4.20987 -1.65,0.53385 -3.1137,1.02737 -3.2526,1.0967 -0.1389,0.0693 0.6476,2.74249 1.7478,5.94036 5.0028,14.54085 4.6815,30.71966 -0.8954,45.08195 -7.7424,19.93921 -30.9027,44.6588 -52.2827,55.80281 -14.7644,7.69573 -24.4752,6.9323 -34.0758,-2.67891 -2.8827,-2.88587 -6.3656,-7.37238 -7.7398,-9.97001 -1.3742,-2.59763 -2.8151,-4.61024 -3.2019,-4.47248 -0.3868,0.13777 -2.4203,2.7129 -4.519,5.7225 -2.0987,3.00961 -5.2777,6.45721 -7.0645,7.66133 -4.1852,2.82042 -18.1535,7.8708 -26.3354,9.52184 -3.5094,0.70816 -8.3421,2.51308 -10.7393,4.01093 -6.0806,3.79926 -19.3565,8.43284 -29.815,10.40607 -9.752,1.83995 -27.4813,1.55179 -32.8107,-0.53329 -2.2821,-0.89282 -3.9817,-0.88836 -7.2223,0.019 -6.042,1.69165 -14.7563,0.73061 -22.2934,-2.4586 -10.7637,-4.5545 -10.0905,-4.75883 -8.4053,2.55124 0.8051,3.49223 3.9031,11.52451 6.8844,17.84951 6.3015,13.36869 11.5209,26.35539 11.5209,28.66579 0,0.8875 -0.7184,2.139 -1.5964,2.781 -1.4377,1.0513 -1.292,2.0295 1.4665,9.8448 3.8651,10.9507 5.728,20.4054 7.627,38.7084 0.9333,8.9959 2.4571,17.4689 4.0142,22.3214 1.3804,4.3018 3.2668,12.0932 4.1919,17.3141 1.9765,11.155 1.2535,17.4554 -3.6608,31.904 -1.6634,4.8906 -3.7094,13.5054 -4.5467,19.1441 -0.8372,5.6386 -2.9105,13.979 -4.6072,18.5342 -6.2728,16.8405 -16.8885,57.9658 -16.8885,65.426 0,10.45 3.9105,15.559 20.5707,26.8752 6.1999,4.2113 11.5019,9.1263 19.3584,17.9456 9.5091,10.6744 11.7519,12.6238 18.5131,16.0906 7.8816,4.0414 9.206,5.0208 13.5836,10.0456 6.3723,7.3143 7.7133,12.0553 4.1274,14.5925 -1.0157,0.7187 -2.4106,3.0243 -3.0996,5.1235 -0.8402,2.5599 -2.1256,4.1593 -3.9032,4.8568 -1.4577,0.572 -3.3254,1.4532 -4.1504,1.9581 -11.1589,6.8299 -23.3271,6.8518 -34.0348,0.061 -2.4772,-1.571 -6.2077,-3.1328 -8.29,-3.4707 -4.0339,-0.6546 -16.0485,-7.9668 -21.4102,-13.0304 -1.7793,-1.6803 -3.5309,-2.7592 -3.8925,-2.3976 -1.0298,1.0298 1.5307,3.5661 8.0872,8.011 3.3222,2.2522 8.3971,6.011 11.2777,8.3529 2.8885,2.3484 7.1492,4.7307 9.5,5.312 9.4213,2.3294 11.5995,3.1138 14.0928,5.075 2.6887,2.1149 4.6545,7.3145 4.6642,12.3368 0.01,4.4446 -5.4828,9.0384 -12.4854,10.4448 -3.2851,0.6597 -6.9434,2.2025 -8.6722,3.6572 -1.6446,1.3839 -3.5688,2.5161 -4.276,2.5161 -0.7072,0 -3.0352,1.3971 -5.1733,3.1047 -3.491,2.788 -4.4021,3.0525 -8.9328,2.5933 -2.8543,-0.2892 -7.4001,0.1 -10.4679,0.8954 -6.0488,1.569 -8.7039,1.6246 -14.3408,0.3002 z m 18.854,-6.0941 c 1.1,-0.1 3.8808,0.1638 6.1796,0.5856 3.8077,0.6987 4.4659,0.4932 7.3983,-2.3091 1.7703,-1.6918 4.0175,-3.076 4.9937,-3.076 0.9762,0 3.1119,-1.125 4.746,-2.5 1.6341,-1.375 3.8062,-2.5099 4.8268,-2.522 2.4414,-0.029 10.5902,-3.749 11.5626,-5.2786 1.3934,-2.192 0.8189,-6.3967 -1.2298,-9.0012 -1.9371,-2.4627 -11.1783,-6.6708 -14.7647,-6.7233 -0.9419,-0.014 -7.544,-3.9553 -14.6714,-8.759 -12.2707,-8.2703 -13.5098,-9.4239 -23.3337,-21.725 -5.7062,-7.145 -13.5382,-16.7193 -17.4044,-21.2763 -4.4567,-5.2529 -7.3454,-9.645 -7.8924,-12 -1.326,-5.7083 -1.0604,-17.6628 0.6378,-28.7146 0.8452,-5.5 3.0815,-20.8 4.9697,-34 5.1079,-35.7094 8.2633,-79.1644 5.39,-74.229 -0.567,0.9741 -1.4534,1.51 -1.9696,1.191 -1.7138,-1.0592 -0.9759,-5.3153 2.5566,-14.7451 6.0773,-16.2231 5.5799,-25.6749 -2.1599,-41.0442 -2.619,-5.2005 -3.876,-9.465 -4.889,-16.5866 -2.0962,-14.7347 -12.4495,-43.1491 -17.7984,-48.847 -9.6841,-10.3158 -27.9045,-9.8316 -51.64776,1.3726 -11.8739,5.6031 -27.0013,14.4889 -26.9959,15.8572 0,0.5671 2.8697,6.3154 6.3721,12.774 5.8573,10.8011 7.5813,12.9898 21.4952,27.2884 8.3199,8.55 16.07,17.3936 17.2223,19.6524 1.1524,2.2588 3.1808,8.429 4.5076,13.7116 1.49686,5.9601 3.13786,10.2098 4.32446,11.1994 1.8638,1.5544 1.8002,1.8696 -2.5156,12.4586 -13.49146,33.1017 -14.61866,52.6287 -4.59016,79.5193 6.88946,18.4738 8.07656,24.7885 9.23646,49.1357 0.8765,18.3986 0.7967,21.9399 -0.6262,27.7943 -1.5121,6.2214 -1.5105,6.9416 0.022,9.9049 0.9089,1.7576 2.6415,3.5774 3.8502,4.0439 1.9662,0.759 2.0131,0.9228 0.4454,1.5563 -5.2368,2.116 -9.2443,-2.9582 -9.2466,-11.7077 -6e-4,-2.585 -0.2928,-4.385 -0.6492,-4 -1.50796,1.6288 -10.97116,18.8934 -11.50546,20.9906 -0.9441,3.7052 1.7154,11.2046 5.2142,14.7034 3.5775,3.5775 20.97356,12.7413 32.18796,16.9557 6.6966,2.5166 8.0133,3.5362 17.289,13.3872 6.5089,6.9126 11.8732,11.6322 15.2514,13.4184 5.2893,2.7968 7.6546,2.9542 23.2109,1.5442 z m -4.5,-8.3245 c 0,-0.8926 -1.2373,-1.7725 -2.9838,-2.1218 -1.641,-0.3282 -2.7395,-0.9919 -2.441,-1.475 0.8856,-1.4328 5.1597,-1.0004 6.8534,0.6932 1.9916,1.9917 2.0309,4.4286 0.071,4.4286 -0.825,0 -1.5,-0.6863 -1.5,-1.525 z m 10.5328,-4.4116 c -2.0788,-4.0199 -2.9001,-4.3335 -6.2758,-2.3961 -1.8774,1.0775 -3.6052,1.3933 -4.8386,0.8845 -1.7266,-0.7123 -1.6184,-0.9249 1.0816,-2.1265 4.9585,-2.2067 8.8079,-1.7572 11.8129,1.3794 2.9776,3.108 3.4649,5.1953 1.2128,5.1953 -0.8109,0 -2.1577,-1.3215 -2.9929,-2.9366 z m 18.4672,-0.9151 c 0,-0.4684 -1.35,-2.2643 -3,-3.9909 -5.4091,-5.6601 -3.5168,-7.045 2.509,-1.8361 2.6781,2.3151 3.647,3.8299 3.198,5 -0.662,1.725 -2.707,2.3498 -2.707,0.827 z m -89.6336,-141.636 c -0.314,-0.8182 0.5812,-3.4535 1.9893,-5.8563 4.3501,-7.4229 6.7423,-14.7231 7.7395,-23.6182 1.1673,-10.4129 1.6359,-12.0378 3.4722,-12.0378 3.0704,0 1.0511,17.5998 -3.5073,30.5693 -2.0298,5.7752 -6.3893,12.4307 -8.1424,12.4307 -0.5392,0 -1.2374,-0.6695 -1.5513,-1.4877 z m 12.0867,-78.603 c -1.1081,-2.1429 -1.3966,-4.2844 -0.9406,-6.9835 0.6212,-3.6764 0.4595,-4.0098 -2.9076,-5.9964 -4.4864,-2.6471 -9.2297,-12.059 -10.1697,-20.1794 -0.8849,-7.6441 0.6902,-7.423 3.5628,0.5 2.6656,7.3518 6.2742,12.7126 10.5125,15.6168 2.9882,2.0475 3.0545,2.2736 3.2575,11.1116 0.2199,9.5748 -0.6374,11.1086 -3.3149,5.9309 z m -18.4531,-50.9564 c 0,-0.5759 1.8554,-4.4278 4.1231,-8.5596 2.2677,-4.1319 4.6792,-9.3982 5.3589,-11.7029 1.3641,-4.6254 3.9643,-6.0104 5.0228,-2.6754 0.7656,2.4122 -6.2004,17.9445 -9.7477,21.735 -2.2013,2.3521 -4.7571,2.9984 -4.7571,1.2029 z m 128.48,247.0547 c 3.0955,-1.1769 5.7706,-6.6709 4.4498,-9.1388 -0.4884,-0.9126 -3.1251,-2.196 -5.8594,-2.8519 -4.7711,-1.1446 -8.0242,-3.3965 -6.7488,-4.6718 0.6682,-0.6683 10.8658,3.1857 14.4284,5.453 1.2375,0.7876 2.25,2.0927 2.25,2.9002 0,2.3918 2.3836,0.9412 4,-2.4341 0.825,-1.7228 2.2875,-3.3449 3.25,-3.6047 2.987,-0.8061 1.9554,-3.5613 -3.5,-9.3483 -3.7045,-3.9297 -7.3362,-6.5228 -12.337,-8.809 -5.4617,-2.4968 -8.6724,-4.9038 -14,-10.4954 -15.8007,-16.5837 -19.3206,-19.8142 -27.6909,-25.4145 -20.2238,-13.531 -23.3024,-21.2545 -17.1767,-43.0923 0.7714,-2.75 2.5768,-10.625 4.0121,-17.5 1.4352,-6.875 5.4726,-21.05 8.9721,-31.5 3.4994,-10.45 6.6698,-21.3625 7.0453,-24.25 0.6376,-4.9031 0.5421,-5.25 -1.4461,-5.25 -3.3182,0 -2.6212,-2.9101 2.4071,-10.051 8.4881,-12.0542 10.6854,-26.2427 6.0319,-38.949 -1.3093,-3.575 -3.3414,-9.1272 -4.5159,-12.3382 -1.4697,-4.0182 -2.436,-10.0436 -3.0995,-19.3283 -1.0996,-15.387 -2.3926,-21.5876 -8.3063,-39.8335 l -4.2134,-13 -8.8212,-0.2905 c -10.7623,-0.3544 -16.7201,1.2169 -28.2476,7.4497 -13.442,7.2679 -12.8984,6.1185 -8.3459,17.6489 4.355,11.03 8.2991,24.2411 9.9094,33.1919 0.5937,3.3 3.1943,10.275 5.7791,15.5 l 4.6997,9.5 0.047,11 c 0.026,6.05 -0.7885,17.525 -1.8096,25.5 -1.5118,11.8076 -1.7338,17.9351 -1.1958,33 l 0.6606,18.5 -4.0216,21 c -2.2118,11.55 -4.9374,28.2 -6.0569,37 -1.1195,8.8 -2.2671,17.3335 -2.5503,18.9633 l -0.5148,2.9633 3.5176,-3.4095 c 4.3635,-4.2292 4.507,-2.6118 0.5169,5.8227 -1.6496,3.4869 -2.9992,7.2173 -2.9992,8.2898 0,2.9959 3.3438,8.8018 8.5643,14.8704 2.6022,3.025 5.8848,7.2406 7.2945,9.368 1.653,2.4945 6.1279,6.1686 12.6022,10.3471 5.5214,3.5635 12.1716,8.258 14.7781,10.4323 6.097,5.086 14.2011,8.7721 20.9337,9.5215 2.93,0.3262 6.2272,1.3779 7.3272,2.3371 5.7384,5.0041 14.3219,7.1528 19.98,5.0016 z m 6.77,-18.9512 c -2.7199,-2.269 -2.8358,-3.0564 -0.45,-3.0564 2.1057,0 4.2,1.8449 4.2,3.7 0,1.77 -1.0787,1.5849 -3.75,-0.6436 z m -64.682,-182.5672 c 0.5774,-3.0778 0.1514,-4.1682 -3.4547,-8.8424 -2.2623,-2.9323 -4.1116,-6.415 -4.1096,-7.7392 0,-2.3319 3.3651,-8.9076 4.5536,-8.9076 0.3226,0 0.2869,2.3987 -0.079,5.3305 -0.6482,5.1879 -0.5565,5.457 3.428,10.0608 4.3144,4.9849 4.825,6.9103 2.9335,11.0616 -1.8139,3.9812 -4.0742,3.3153 -3.2715,-0.9637 z m -9.568,-41.781 c 0,-0.7105 1.9639,-3.2192 4.3641,-5.5749 2.4549,-2.4092 4.8651,-5.9551 5.5092,-8.1047 1.6436,-5.4858 6.1267,-6.7212 6.1267,-1.6883 0,3.2829 -6.7405,13.4741 -10.0405,15.1806 -3.5249,1.8228 -5.9595,1.8993 -5.9595,0.1873 z M 463.77462,646.9786 c -0.3085,-0.804 -1.4194,-1.7343 -2.4686,-2.0673 -3.813,-1.2103 -2.0779,-4.299 5.3424,-9.5103 15.6616,-10.9989 46.5179,-23.7436 59.85846,-24.7235 7.7546,-0.5696 11.9836,0.6144 18.9578,5.3077 l 5.0084,3.3704 -0.632,-3.7075 c -1.397,-8.1955 -2.6822,-11.3029 -7.9476,-19.2149 -5.7767,-8.6803 -7.1494,-12.94836 -3.544,-11.0188 1.0731,0.57431 3.4163,2.78942 5.2071,4.92247 l 3.256,3.87827 7.7741,-5.91793 c 8.7464,-6.65807 9.3291,-7.45459 10.3284,-14.11894 0.8179,-5.45468 2.1947,-6.85289 4.135,-4.19935 2.0324,2.7794 1.6533,5.53186 -1.6806,12.20362 -2.2033,4.40925 -4.5077,7.17792 -8.4543,10.15761 -6.4869,4.89765 -7.4921,8.07725 -5.1,16.13225 0.8708,2.9321 1.5832,6.8245 1.5832,8.6497 0,1.8252 0.2115,3.3185 0.4701,3.3185 0.2585,0 3.1719,-1.373 6.4741,-3.0511 11.6102,-5.8998 37.681,-10.6478 44.3058,-8.0689 1.5125,0.5887 2.75,0.8438 2.75,0.5667 0,-0.2771 -1.3565,-3.191 -3.0145,-6.4754 -4.3054,-8.52896 -13.3713,-29.54103 -15.4124,-35.72133 -1.2822,-3.88264 -2.2286,-5.25 -3.6337,-5.25 -4.1627,0 -15.4901,-5.65766 -20.5147,-10.24646 l -5.1974,-4.74647 -3.8636,1.61789 c -4.7554,1.99129 -18.5057,1.41591 -25.3637,-1.06133 -4.7427,-1.71314 -13.9948,-7.53857 -13.9981,-8.81363 0,-1.40885 3.0814,-0.74991 13.2896,2.83855 10.8659,3.81966 20.5019,4.88125 24.2085,2.66703 1.7514,-1.04626 1.4357,-1.19854 -2.5399,-1.22517 -7.4277,-0.0498 -15.8436,-2.79351 -26.5647,-8.66068 -11.12436,-6.08779 -17.82026,-11.24874 -24.55726,-18.92753 -9.7407,-11.10258 -11.1978,-16.50635 -10.183,-37.76546 l 0.664,-13.9083 -5.4096,0.72885 c -2.9752,0.40087 -5.5217,0.82764 -5.6588,0.94839 -0.1371,0.12075 -0.5113,4.90736 -0.8315,10.63693 -0.7294,13.0496 1.3716,21.90741 8.5942,36.23276 5.8141,11.53158 6.0704,12.94366 2.2689,12.50105 -1.7705,-0.20614 -3.5153,-1.50382 -5.006,-3.72327 -2.881,-4.28907 -6.6816,-16.25132 -8.3698,-26.34315 -1.3611,-8.13605 -1.851,-8.64368 -6.3594,-6.58948 -2.2105,1.00714 -2.5471,1.78995 -2.5471,5.92327 0,3.73788 -0.5918,5.46505 -2.75,8.02641 -3.66,4.34358 -8.4498,23.06987 -7.2555,28.36561 1.4881,6.59803 6.6392,12.51556 13.6251,15.65252 2.2657,1.01743 9.3914,2.98967 15.8347,4.38277 17.1786,3.71412 22.5457,6.36697 22.5457,11.14389 0,3.33604 -1.6481,3.09374 -18.6653,-2.74417 -20.119,-6.90201 -28.3541,-10.94729 -32.7569,-16.09099 -1.9678,-2.2989 -3.5778,-4.54883 -3.5778,-4.99983 0,-2.53554 -1.903,0.0786 -4.8843,6.70944 -3.0047,6.68269 -3.3114,8.14857 -2.7336,13.06464 0.7022,5.97437 3.7231,12.69778 9.6179,21.40592 8.1976,12.10986 11.1328,20.86413 9.2206,27.50003 -0.5755,1.9971 -1.509,3 -2.7925,3 -1.7257,0 -1.9364,-0.7874 -2.0073,-7.5 -0.09,-8.54017 -1.676,-12.38247 -8.4521,-20.47884 -4.4244,-5.28653 -7.8832,-11.51392 -9.9673,-17.94572 l -1.2717,-3.92452 -2.1148,2.91505 c -1.1632,1.60327 -3.4442,4.43331 -5.069,6.28897 -2.4119,2.75477 -2.9,4.12251 -2.6595,7.45319 0.5361,7.42455 3.906,18.31837 8.4903,27.44627 3.207,6.3856 5.5053,13.0872 7.9012,23.0387 3.5207,14.624 5.3497,18.7147 9.0304,20.1973 3.4823,1.4027 5.7037,1.2044 5.0679,-0.4524 z m 54.89606,-68.38516 c -7.27516,-3.10908 -13.23766,-6.0326 -13.24996,-6.49671 -0.063,-2.39234 20.88536,2.9102 25.33976,6.41399 2.5704,2.02191 3.4009,4.34191 1.8879,5.2737 -0.4125,0.25404 -6.7024,-2.08191 -13.9777,-5.19098 z m -107.39716,0.96313 c 8.5653,-2.6658 13.7243,-5.9724 20.6967,-13.2652 37.6728,-39.40394 39.2826,-133.23762 3.184,-185.5913 -6.7925,-9.85103 -17.024,-19.28164 -25.385,-23.39774 -6.4391,-3.16996 -7.429,-3.36176 -17.3498,-3.36176 -9.9217,0 -10.9148,0.19248 -17.4347,3.3792 -20.3887,9.96541 -36.4699,39.25027 -42.0747,76.6208 -0.8249,5.5 -1.5025,13.89468 -1.5057,18.65484 l -0.01,8.65485 3.75,-0.45143 c 2.0625,-0.24828 14.325,-1.55025 27.25,-2.89326 l 23.5,-2.44185 2.2713,2.73843 c 2.8937,3.48873 3.6207,6.33554 2.7725,10.85672 -1.3768,7.33905 -2.1512,7.60678 -31.0438,10.73285 -14.3,1.54721 -26.3113,3.11365 -26.6919,3.48098 -0.9853,0.95115 2.639,21.01475 5.7206,31.66787 3.066,10.59938 11.4812,28.66133 17.5367,37.63972 2.3593,3.49815 7.4722,9.55931 11.3621,13.46923 13.5452,13.61498 28.3314,18.21175 43.4476,13.50705 z m 2.1249,-15.13496 c 0,-0.56043 2.2556,-5.69531 5.0125,-11.41086 10.9936,-22.79198 15.3582,-41.74666 15.3291,-66.57018 -0.06,-50.57481 -12.6623,-88.67771 -37.4218,-113.13948 -4.3559,-4.30352 -7.9198,-8.28266 -7.9198,-8.84255 0,-2.65025 3.6701,-0.34791 10.7816,6.76359 17.503,17.50301 28.2941,39.69996 33.6508,69.21844 6.8059,37.50461 5.7171,67.85005 -3.4124,95.0996 -4.2177,12.58922 -12.6296,29.9004 -14.5291,29.9004 -0.82,0 -1.4909,-0.45853 -1.4909,-1.01896 z m 204.44276,-0.59748 c 1.2555,-0.48176 0.1894,-2.0657 -4.8796,-7.25 -7.9927,-8.17452 -10.8956,-12.01147 -14.6433,-19.35504 -2.7689,-5.42563 -3.9634,-13.40166 -2.2619,-15.10318 1.2201,-1.22012 3.2846,1.50006 3.9277,5.17514 1.7038,9.73717 14.0655,25.56829 24.1223,30.89243 9.0926,4.81372 15.3951,6.25885 27.2235,6.24231 14.8941,-0.0208 25.8139,-2.8031 40.9829,-10.44212 3.8154,-1.92139 10.908,-4.36428 15.7613,-5.42865 18.5793,-4.07456 25.4544,-8.25285 31.1439,-18.92739 4.017,-7.53674 2.966,-9.12561 -3.7763,-5.70899 -2.5679,1.30125 -5.2583,3.07602 -5.9786,3.94392 -1.8168,2.18919 -5.0647,2.03036 -5.0647,-0.24768 0,-3.6555 10.1933,-10.17431 15.9093,-10.17431 3.4448,0 5.8684,2.78967 11.1155,12.79434 6.8784,13.11527 14.9288,19.03457 24.4308,17.96355 13.2307,-1.49129 34.9519,-17.82965 51.9236,-39.05614 12.2465,-15.31667 16.7816,-32.74384 13.2057,-50.74567 -5.5753,-28.06773 -24.1393,-43.33965 -50.5849,-41.61449 -20.5572,1.34104 -29.739,8.0722 -36.9031,27.05365 -5.079,13.45706 -9.16,18.15339 -17.0244,19.59151 -3.9983,0.73113 -4.3095,0.59093 -8.8582,-3.98985 -2.5929,-2.61118 -6.6268,-5.93434 -8.9643,-7.3848 -4.5081,-2.79734 -5.4521,-4.6121 -2.3992,-4.6121 3.6389,0 8.6907,2.24749 11.1492,4.96012 1.375,1.51714 3.4829,3.27176 4.6843,3.89916 3.2837,1.7149 8.7771,1.39798 10.5611,-0.60928 1.9104,-2.14937 7.0644,-14.27358 6.365,-14.97296 -0.4064,-0.40636 -40.5171,2.93542 -103.1104,8.59053 l -7,0.63243 -0.024,4 c -0.013,2.2 -0.4052,4.80414 -0.8712,5.78699 -1.2673,2.67314 -5.9607,4.71301 -10.8437,4.71301 -2.4339,0 -6.0772,0.90503 -8.2997,2.06171 -3.0311,1.57753 -5.0449,1.92594 -8.5753,1.4836 -3.5889,-0.44966 -4.9219,-0.20678 -6,1.0932 -2.2606,2.72572 -7.6998,4.4718 -13.2328,4.24795 -2.8495,-0.11528 -6.2502,0.36263 -7.5571,1.06204 -1.4842,0.79431 -4.6323,1.10844 -8.387,0.83685 -8.2038,-0.59341 -10.7092,-3.36364 -10.7092,-11.84111 0,-4.96292 -0.2849,-5.94424 -1.7259,-5.94424 -3.4607,0 -33.7876,3.25517 -34.2451,3.67575 -0.2591,0.23815 -0.025,0.74603 0.5191,1.12862 0.5446,0.3826 3.7979,3.88867 7.2295,7.79128 3.6248,4.1224 8.3629,8.25151 11.3074,9.8541 4.5419,2.47201 31.7819,10.01669 32.7326,9.06597 0.2114,-0.2114 -0.7861,-1.91889 -2.2166,-3.79443 -3.0792,-4.03698 -3.292,-5.72129 -0.7231,-5.72129 1.9123,0 8.491,7.01547 17.9651,19.15787 9.4562,12.11948 17.2525,15.5879 37.0774,16.49495 7.4688,0.34172 14.3671,1.02546 15.3296,1.51943 4.2736,2.19326 1.0706,2.82775 -14.275,2.82775 -13.4573,0 -16.936,-0.3202 -21.7108,-1.99843 -8.2317,-2.8932 -15.5767,-8.15639 -20.2941,-14.54203 -4.1879,-5.669 -9.0649,-9.44903 -12.1998,-9.4558 -2.813,-0.006 -6.075,7.60173 -6.1795,14.41243 -0.058,3.75835 -0.5445,6.06757 -1.3346,6.33128 -1.6074,0.53644 -3.5315,-4.51459 -2.8119,-7.3817 0.395,-1.57353 -0.2662,-3.03378 -2.2897,-5.05735 -1.6455,-1.64544 -3.1599,-4.52294 -3.5916,-6.82443 -0.6876,-3.66494 -1.9182,-5.42997 -3.813,-5.46866 -0.4125,-0.008 -0.7643,0.77219 -0.7818,1.73469 -0.017,0.9625 -0.6925,2.62351 -1.5,3.69113 -2.1117,2.79189 -1.8074,7.85797 0.6605,10.99533 1.5932,2.02539 1.8419,2.99292 0.9889,3.84597 -1.7967,1.79666 -5.1784,-2.31682 -5.8166,-7.07528 -0.6922,-5.16072 0.052,-8.13508 2.7618,-11.04414 l 2.1401,-2.29719 -2.3469,-0.61374 c -6.7496,-1.76505 -17.9675,-8.57246 -22.058,-13.38547 -2.3639,-2.78153 -6.098,-7.05141 -8.298,-9.48861 l -4,-4.43128 -11.49996,1.28538 -11.5,1.28539 0,14.99125 c 0,14.45398 0.1046,15.21785 2.9191,21.31368 2.5209,5.46004 3.2029,6.23084 5,5.65103 4.0638,-1.31115 14.71756,-1.73677 15.82216,-0.63211 1.4173,1.41722 -1.8629,2.66021 -9.49126,3.59669 -3.1625,0.38824 -5.75,0.95646 -5.75,1.26273 0,1.15204 7.496,9.00699 13.87816,14.54279 5.4352,4.71429 8.7602,6.57893 18.5546,10.40516 10.7183,4.1872 17.684,5.5678 19.4056,3.8462 0.3055,-0.30545 -1.9805,-5.37925 -5.0799,-11.27513 -5.8979,-11.21926 -6.6175,-11.87459 -15.0085,-13.6696 -1.5125,-0.32356 -2.75,-1.25471 -2.75,-2.06923 0,-3.58978 13.9887,-0.54127 16.1479,3.51905 0.4387,0.825 3.3162,6.66071 6.3944,12.96824 6.1264,12.55365 14.1653,22.8218 20.3285,25.96563 2.2424,1.14381 8.0238,2.30927 15.1292,3.04986 8.3491,0.87022 12.048,1.68677 13.5,2.98017 1.1,0.97985 3.35,2.25329 5,2.82987 3.7691,1.31707 3.9903,1.33904 5.9428,0.58979 z m -23.4236,-9.36432 c -1.0894,-1.08941 -2.4944,-4.02069 -3.1222,-6.51395 -1.2373,-4.91388 -5.6122,-9.50529 -9.0571,-9.50529 -3.2034,0 -1.5365,-2.46513 1.898,-2.80671 2.6476,-0.26332 3.5842,0.34853 6.62,4.32439 1.9449,2.5471 4.023,6.10632 4.618,7.90937 0.6087,1.84434 2.1628,3.77075 3.553,4.40418 2.833,1.2908 3.1805,2.68256 0.8893,3.56178 -2.4782,0.95097 -3.2776,0.74754 -5.399,-1.37377 z m 108.8899,-29.57275 c -4.8085,-1.48126 -13.9091,-8.65152 -13.9091,-10.95886 0,-1.91437 -10.3722,-6.56856 -15.0547,-6.75529 -4.576,-0.18248 -4.7606,-0.86911 -2.0281,-7.54696 4.5,-10.99771 3.5222,-13.82389 -5.9819,-17.28924 -5.9765,-2.17914 -6.0849,-2.28507 -5.5047,-5.37801 0.7802,-4.15854 -0.8471,-8.73244 -5.6435,-15.8626 -2.1623,-3.21445 -3.6733,-6.10263 -3.3578,-6.41817 1.2558,-1.25579 5.7506,2.37752 9.2789,7.50041 3.2004,4.64679 3.7145,6.15722 3.6485,10.71925 l -0.077,5.31029 4.0272,1.20656 c 2.2149,0.66361 5.358,2.53745 6.9847,4.1641 2.6158,2.61578 2.8995,3.47199 2.4557,7.40978 -0.4256,3.77602 -0.2341,4.45225 1.2613,4.45225 3.2422,0 14.211,-8.28037 18.8045,-14.19557 4.6702,-6.0138 7.7437,-6.71615 4.843,-1.10668 -4.3268,8.36705 -16.1345,18.04463 -23.4716,19.23723 -5.3449,0.86879 -4.9546,2.68085 0.8788,4.08027 4.1056,0.9849 6.8851,2.74425 13.6392,8.63319 11.831,10.31542 13.8189,11.21627 19.5473,8.85802 2.6132,-1.07584 2.2396,2.03716 -0.4726,3.93684 -2.6511,1.85696 -3.8493,1.85734 -9.8683,0.003 z m 41.2702,-12.19649 c -1.6123,-3.16625 -3.0472,-10.61394 -3.7089,-19.25 -0.6388,-8.33854 -0.5919,-8.58843 2.4705,-13.15504 3.1139,-4.64327 5.4263,-6.35407 7.1493,-5.28919 1.6937,1.04674 0.9223,3.66601 -2.0902,7.09701 -3.7008,4.215 -3.9461,9.32813 -1,20.84722 1.1,4.30096 2,8.64794 2,9.65996 0,2.38942 -3.6155,2.45695 -4.8207,0.09 z m -22.4215,-0.47648 c -0.3819,-1.14597 2.4456,-13.45529 5.8713,-25.56003 1.3962,-4.93339 6.4476,-12.21349 8.4745,-12.21349 1.8087,0 0.8178,3.21506 -2.1159,6.86572 -3.0231,3.76178 -3.6974,6.23017 -5.8658,21.47325 -1.1169,7.85088 -4.982,13.58079 -6.3641,9.43455 z m -86.0632,-23.82987 c -1.3558,-0.82985 -1.5331,-1.43335 -0.7117,-2.42304 0.8384,-1.01023 1.757,-1.0676 3.9344,-0.24572 2.199,0.83003 4.3927,0.67044 9.7117,-0.70654 11.4498,-2.96412 11.6765,-2.99367 11.1971,-1.45988 -1.2824,4.10245 -19.3983,7.7323 -24.1315,4.83518 z m 286.3971,30.03166 c 14.7466,-3.97085 29.4151,-23.04096 37.7276,-49.04856 4.9022,-15.33772 6.5288,-29.32545 5.8641,-50.42675 -0.9719,-30.84928 -7.1989,-52.31063 -20.9819,-72.31374 -6.2434,-9.06101 -12.3766,-14.60264 -20.3166,-18.35704 -8.6221,-4.0769 -14.5586,-4.57874 -23.1814,-1.95964 -22.9846,6.98135 -39.9866,37.05322 -44.1656,78.11668 -0.5309,5.21745 -0.6442,9.75574 -0.2516,10.08509 0.7266,0.60964 35.6517,-1.45451 42.4358,-2.50804 3.2516,-0.50495 3.9442,-0.23912 5.4785,2.10258 3.5396,5.4021 0.5702,16.17477 -4.114,14.92536 -2.1356,-0.56961 -42.7374,2.24124 -43.5186,3.01277 -0.9023,0.89112 1.9599,20.29567 4.336,29.39598 4.7112,18.04385 12.9519,34.12236 22.9212,44.7216 11.546,12.27573 23.4006,16.12205 37.7665,12.25371 z m -0.092,-16.15559 c 0,-0.64916 1.7779,-3.91166 3.9509,-7.25 14.4914,-22.26314 20.8002,-50.40788 18.1618,-81.02295 -2.6798,-31.09338 -10.4533,-51.99473 -24.5708,-66.06521 -3.873,-3.86014 -8.3919,-7.97028 -10.0419,-9.13364 -3.372,-2.37746 -2.8879,-3.91309 0.9313,-2.95453 3.1354,0.78694 14.7166,11.50776 18.7252,17.33408 17.729,25.76822 23.8397,73.41406 14.2619,111.20073 -2.6798,10.57224 -11.4012,29.33179 -16.4212,35.3218 -3.1783,3.79235 -4.9972,4.7277 -4.9972,2.56972 z m -350.049,-5.72372 c 2.188,-4.28883 1.6285,-5.096 -3.5328,-5.096 -1.8497,0 -2.4182,0.53537 -2.4182,2.27749 0,2.0405 2.463,6.72251 3.5364,6.72251 0.2326,0 1.3192,-1.7568 2.4146,-3.904 z m -99.61496,-13.76226 c 3.3292,-0.72564 3.369,-0.8217 3.9704,-9.58374 l 0.4633,-6.75 -4.0561,0 c -6.3398,0 -7.7136,1.91841 -7.7136,10.77162 0,7.26117 0.061,7.44443 2.25,6.82094 1.2375,-0.35239 3.5262,-0.91886 5.086,-1.25882 z m -180.3864,-3.68112 c 1.4189,-4.29923 -0.1414,-8.57184 -3.1543,-8.63731 -1.3105,-0.0285 -1.9351,6.48668 -0.8864,9.2451 1.3886,3.65234 2.6999,3.45511 4.0407,-0.60779 z m 48.5141,-1.60482 c 46.3724,-5.3015 45.5363,-5.09866 45.5363,-11.0478 0,-1.43976 -0.5998,-3.43801 -1.3329,-4.44055 -1.2827,-1.75422 -2.8726,-1.66622 -42.25,2.33843 -22.5044,2.28868 -42.5331,4.40041 -44.5082,4.69273 l -3.591,0.53148 0.091,6.43646 c 0.071,5.02262 0.4206,6.43257 1.5911,6.41876 0.825,-0.01 20.8337,-2.22802 44.4637,-4.92951 z m 240.41936,-8.67849 c 2.9984,-2.10013 5.1169,-7.22134 5.1169,-12.36931 0,-4.68126 2.3441,-11 4.0806,-11 0.8297,0 0.9831,1.26854 0.5137,4.25 -0.368,2.3375 -0.9363,7.175 -1.263,10.75 -0.3267,3.575 -1.0339,7.34946 -1.5715,8.38769 -0.9089,1.75508 -0.6262,1.85393 4.0239,1.40712 5.041,-0.48438 9.1716,-2.85833 12.0002,-6.8967 1.1411,-1.62905 1.2037,-2.89015 0.3184,-6.40605 -1.3548,-5.38034 -1.4435,-13.49206 -0.1476,-13.49206 0.5251,0 1.2232,1.6875 1.5513,3.75 0.3282,2.0625 1.0785,5.64972 1.6674,7.97159 0.5888,2.32188 0.8531,5.35938 0.5873,6.75 -0.454,2.3747 -0.2334,2.52748 3.628,2.5131 6.6254,-0.0247 6.9247,-0.53372 6.2411,-10.61517 -0.6581,-9.70634 0.1813,-16.47321 2.1238,-17.12072 0.9403,-0.31342 1.2464,2.06124 1.2464,9.66787 0,8.75 0.2645,10.34779 2,12.08333 2.3148,2.31481 2.3226,2.31585 7.1925,0.9633 4.7303,-1.31378 5.2526,-3.1572 3.2909,-11.61443 -4.8955,-21.1052 -5.9565,-22.54967 -17.9834,-24.48472 -8.9591,-1.44145 -20.244,-1.61008 -28.5,-0.42588 -4.7641,0.68334 -5.8345,0.5156 -8,-1.25371 -1.8826,-1.53819 -2.2178,-2.32994 -1.3574,-3.20622 0.8659,-0.88172 1.6659,-0.8836 3.3025,-0.008 1.1878,0.63573 2.8704,1.01492 3.7389,0.84264 1.0135,-0.20101 -0.1696,-1.45235 -3.3024,-3.49286 -2.6849,-1.7488 -7.3566,-5.39017 -10.3816,-8.09194 -6.4821,-5.78943 -8.7035,-7.06317 -15.4539,-8.86085 -13.4151,-3.5726 -35.9543,1.18475 -44.05216,9.29808 -5.0369,5.04659 -12.6842,18.39387 -13.2502,23.12658 -0.4838,4.04533 -0.2566,4.53825 3.9497,8.5686 l 4.4631,4.27636 18.42166,-1.74019 c 32.4504,-3.06514 30.9218,-2.81666 30.9218,-5.02601 0,-2.39001 2.3231,-7.06411 4.345,-8.74214 2.3153,-1.92152 2.9128,0.31859 1.1868,4.4495 -0.8425,2.01637 -1.5318,4.06118 -1.5318,4.54401 0,1.22136 10.7402,1.10731 11.5,-0.12212 0.3399,-0.55 1.6276,-1 2.8615,-1 1.7892,0 2.6117,1.02426 4.0625,5.05881 2.4108,6.70403 1.766,14.55919 -1.4059,17.12762 -2.5002,2.02452 -6.5372,2.40075 -7.5841,0.70681 -0.4768,-0.77153 -0.9444,-0.69581 -1.5437,0.25 -1.4484,2.28583 -0.9923,5.45735 1.1823,8.2219 2.4605,3.12809 8.0943,3.60709 11.8105,1.00417 z m 2.1169,-30.75268 c 0,-0.88915 0.1125,-1.62005 0.25,-1.62422 7.9644,-0.24178 17.6953,-2.38079 22.0646,-4.85018 7.0173,-3.96593 11.1152,-4.74586 14.226,-2.70756 4.2953,2.81434 1.962,5.14518 -2.4145,2.41202 -1.5222,-0.95062 -2.8818,-0.55518 -7.7364,2.25 -4.8724,2.81547 -7.2715,3.50984 -13.8897,4.0201 -4.4,0.33923 -9.0125,0.95421 -10.25,1.36663 -1.7147,0.57145 -2.25,0.36523 -2.25,-0.86679 z m -60.5,18.89931 c 58.3952,-5.79866 53.5,-5.03135 53.5,-8.38608 0,-1.51118 -0.6055,-3.57569 -1.3456,-4.58781 -1.3,-1.77792 -2.8315,-1.69793 -45.25,2.36344 -24.14736,2.312 -48.76966,4.69857 -54.71616,5.30348 l -10.8118,1.09984 0.6843,4.0956 c 0.3763,2.25257 1.1916,4.45461 1.8118,4.89342 0.6201,0.4388 3.3775,0.5478 6.1275,0.24222 2.75,-0.30558 25.25,-2.56643 49.99996,-5.02411 z m 174,-16.44888 c 26.4,-2.28063 49.4261,-4.36726 51.169,-4.63695 2.2976,-0.35552 3.7412,-1.46013 5.25,-4.01739 1.1445,-1.93987 2.081,-3.85948 2.081,-4.26581 0,-0.40632 -7.3125,-0.15972 -16.25,0.548 -43.5384,3.4476 -103.2759,8.49767 -103.5305,8.75221 -0.1572,0.15723 0.021,2.20222 0.3951,4.54442 l 0.681,4.25855 6.1022,-0.51821 c 3.3562,-0.28502 27.7022,-2.38419 54.1022,-4.66482 z m 147.3984,-5.6085 c 1.752,-1.6623 0.2816,-7.83348 -4.1129,-17.26104 -3.9301,-8.43131 -6.9343,-10.00444 -15.0555,-7.88371 -3.9754,1.03813 -6.8226,1.22161 -9.4587,0.60955 -5.1443,-1.19443 -8.6176,-1.13384 -11.9562,0.20854 -2.7893,1.12153 -2.7601,1.14892 3.1849,2.98642 7.3902,2.28419 7.4932,2.286 7.5293,0.13168 0.022,-1.32304 0.7834,-0.92047 3.12,1.65003 3.4731,3.82083 11.8393,10.44467 12.4371,9.84693 0.2144,-0.21442 -0.8088,-2.71617 -2.2739,-5.55946 -2.6783,-5.19783 -2.6274,-7.52363 0.1149,-5.24779 2.1107,1.75174 6.5726,11.04354 6.5726,13.68729 0,1.22888 1.0125,3.81601 2.25,5.7492 2.3462,3.66518 4.5913,3.98289 7.6484,1.08236 z m -157.8984,-6.92952 c 22.825,-1.87414 48.9058,-3.96172 57.9573,-4.63907 14.4065,-1.07807 16.8855,-1.52215 19.8939,-3.56374 1.8902,-1.28271 5.1783,-2.854 7.3069,-3.49175 3.4415,-1.0311 3.9391,-1.58987 4.4914,-5.04427 0.7397,-4.62541 3.6535,-4.98244 4.1689,-0.51082 l 0.3185,2.76229 6.6815,-0.68428 c 4.7321,-0.48462 8.0269,-1.51192 11.2922,-3.52084 2.5358,-1.56011 5.3483,-2.83656 6.25,-2.83656 2.2869,0 2.0605,-0.72164 -1.1106,-3.54019 -9.23,-8.20382 -19.9838,-12.58403 -31.0012,-12.62724 -6.3191,-0.0248 -8.3454,0.43274 -13.7925,3.11432 -3.5697,1.75737 -7.7352,4.77697 -9.4471,6.84825 l -3.062,3.70486 2.7197,0.5 c 4.4743,0.82257 2.9028,2.38053 -4.5391,4.5 -3.8623,1.1 -7.2757,2.26709 -7.5853,2.59353 -0.3096,0.32644 1.2545,1.41305 3.4757,2.41469 2.2213,1.00165 3.8787,2.30956 3.6831,2.90648 -0.8631,2.63451 -5.8535,1.37564 -17.7242,-4.47101 -21.545,-10.61152 -35.0279,-12.55328 -49.4771,-7.12548 l -8,3.00519 3.5,1.49668 c 3.9762,1.7003 13.4469,4.18578 19.75,5.18319 6.4067,1.01381 5.101,2.49673 -2.1984,2.49673 -7.2674,0 -18.6117,-3.21071 -29.3143,-8.29667 -6.547,-3.11123 -7.1186,-3.20167 -20.2387,-3.20249 -12.0329,-7.5e-4 -14.1809,0.26918 -19.75,2.48185 -3.4367,1.36548 -6.2486,2.82798 -6.2486,3.25 0,0.42202 2.6632,0.76731 5.9182,0.76731 6.4728,0 9.3747,0.71713 8.517,2.10478 -0.7698,1.2457 -19.8076,1.12248 -27.0015,-0.17476 -3.2635,-0.58849 -7.5747,-2.13913 -9.5805,-3.44587 -3.7241,-2.42629 -15.6303,-6.0404 -16.6244,-5.04632 -1.0367,1.03674 3.09,4.57105 8.3315,7.13549 4.2623,2.08535 7.5527,2.73293 17.5914,3.46219 20.9956,1.52524 29.2239,4.59128 31.6211,11.78274 l 1.4333,4.29992 5.1469,-0.5908 c 2.8309,-0.32494 23.822,-2.12419 46.647,-3.99833 z m 190.5,-2.19244 c 13.742,-0.98593 24.314,-2.17383 24.7347,-2.77925 0.9855,-1.41834 0.9633,-5.31695 -0.034,-5.9332 -0.546,-0.33746 -51.1776,2.70284 -55.8573,3.35408 -0.086,0.012 0.327,1.59677 0.9178,3.52177 1.2958,4.22202 -1.0357,4.08042 30.2386,1.8366 z m 128.00002,-7.68758 19,-1.14902 0.2605,-3 c 0.4894,-5.63535 0.8457,-5.58016 -25.80402,-3.99632 -13.4511,0.79942 -25.244,1.46313 -26.2065,1.47491 -1.3586,0.0166 -1.75,0.87877 -1.75,3.85474 0,2.10834 0.2625,4.0958 0.5833,4.41659 0.3208,0.32079 3.8083,0.35035 7.75,0.0657 3.9417,-0.28466 15.7167,-1.03463 26.16672,-1.66659 z"
       id="path3073"
       inkscape:connector-curvature="0" />
  </g>
</svg>
