<?xml version="1.0" encoding="UTF-8" standalone="no"?>
<!-- Created with Inkscape (http://www.inkscape.org/) -->

<svg
   xmlns:dc="http://purl.org/dc/elements/1.1/"
   xmlns:cc="http://creativecommons.org/ns#"
   xmlns:rdf="http://www.w3.org/1999/02/22-rdf-syntax-ns#"
   xmlns:svg="http://www.w3.org/2000/svg"
   xmlns="http://www.w3.org/2000/svg"
   xmlns:xlink="http://www.w3.org/1999/xlink"
   xmlns:sodipodi="http://sodipodi.sourceforge.net/DTD/sodipodi-0.dtd"
   xmlns:inkscape="http://www.inkscape.org/namespaces/inkscape"
   width="97.182426"
   height="243.91432"
   id="svg2"
   version="1.1"
   inkscape:version="0.48.3.1 r9886"
   sodipodi:docname="Hammer-curls-with-rope-1.svg">
  <defs
     id="defs4">
    <radialGradient
       gradientUnits="userSpaceOnUse"
       gradientTransform="matrix(1,0,0,0.91819829,-19.285714,-7.9105395)"
       r="209.56604"
       fy="287.50052"
       fx="398.1105"
       cy="287.50052"
       cx="398.1105"
       id="radialGradient5255"
       xlink:href="#linearGradient5249"
       inkscape:collect="always" />
    <linearGradient
       id="linearGradient5249"
       inkscape:collect="always">
      <stop
         id="stop5251"
         offset="0"
         style="stop-color:#e3e3e3;stop-opacity:1;" />
      <stop
         id="stop5253"
         offset="1"
         style="stop-color:#e3e3e3;stop-opacity:0;" />
    </linearGradient>
  </defs>
  <sodipodi:namedview
     id="base"
     pagecolor="#ffffff"
     bordercolor="#666666"
     borderopacity="1.0"
     inkscape:pageopacity="0.0"
     inkscape:pageshadow="2"
     inkscape:zoom="2.8"
     inkscape:cx="5.5514445"
     inkscape:cy="153.6838"
     inkscape:document-units="px"
     inkscape:current-layer="layer1"
     showgrid="false"
     showguides="true"
     inkscape:guide-bbox="true"
     fit-margin-top="0"
     fit-margin-left="0"
     fit-margin-right="0"
     fit-margin-bottom="0"
     inkscape:window-width="1112"
     inkscape:window-height="691"
     inkscape:window-x="65"
     inkscape:window-y="328"
     inkscape:window-maximized="0">
    <sodipodi:guide
       orientation="-0.70710678,0.70710678"
       position="-2246.8238,478.79093"
       id="guide2985" />
  </sodipodi:namedview>
  <metadata
     id="metadata7">
    <rdf:RDF>
      <cc:Work
         rdf:about="">
        <dc:format>image/svg+xml</dc:format>
        <dc:type
           rdf:resource="http://purl.org/dc/dcmitype/StillImage" />
        <dc:title></dc:title>
      </cc:Work>
    </rdf:RDF>
  </metadata>
  <g
     inkscape:label="Ebene 1"
     inkscape:groupmode="layer"
     id="layer1"
     transform="translate(-818.2524,-261.52451)">
    <path
       style="fill:#000000"
       d="m 902.70894,500.74644 c -10.11332,-4.11634 -11.62903,-4.48071 -14.35644,-3.45123 -6.46837,2.44154 -10.52808,-3.7009 -9.44339,-14.28809 0.6432,-6.27802 0.59507,-6.46753 -1.64272,-6.46753 -3.66924,0 -6.75036,-2.73618 -6.75036,-5.99465 0,-1.58468 0.69067,-5.85934 1.53482,-9.49925 1.76925,-7.62887 1.26598,-11.86456 -2.24096,-18.86058 -2.14338,-4.27584 -2.40567,-6.00421 -2.20042,-14.5 0.26787,-11.0883 -1.52222,-19.17286 -5.61454,-25.35676 -2.70202,-4.08304 -4.5381,-4.10062 -5.10486,-0.0489 -1.14777,8.20539 -1.68915,10.24915 -3.50665,13.23778 -3.6562,6.01217 -5.86739,14.74957 -5.86739,23.18475 0,4.46639 -0.60158,9.34162 -1.38368,11.21345 -2.06605,4.94476 -2.88623,14.50074 -1.69778,19.78091 0.95752,4.25415 6.59323,14.8982 8.2936,15.66396 0.39168,0.1764 1.66167,1.85708 2.8222,3.73485 2.39092,3.86859 1.89007,7.44444 -1.04271,7.44444 -1.03048,0 -2.15171,0.45 -2.49163,1 -0.33992,0.55 -3.03195,1 -5.98229,1 -4.31204,0 -5.96777,-0.50782 -8.44099,-2.58889 -1.90071,-1.59935 -3.07672,-3.52947 -3.07672,-5.04966 0,-1.35343 -0.65206,-3.72171 -1.44902,-5.26286 -1.63236,-3.15665 -1.69306,-3.69572 -1.58277,-14.05707 0.0461,-4.32929 -0.80933,-11.30445 -2.03889,-16.62542 l -2.11829,-9.16694 2.17168,-7.37458 c 1.19443,-4.05602 2.56312,-10.44562 3.04154,-14.19912 0.47841,-3.75349 1.35091,-8.28217 1.93887,-10.06373 0.58797,-1.78155 1.00508,-6.18856 0.92691,-9.79334 -0.11115,-5.12629 -0.46576,-6.52847 -1.62768,-6.43627 -2.53507,0.20116 -3.95342,-3.0459 -2.41,-5.5173 2.00428,-3.20936 3.62185,-14.37036 3.3481,-23.10133 -0.21322,-6.80046 0.0648,-8.22338 2.29766,-11.76049 2.44745,-3.87702 2.62551,-3.9681 4.87536,-2.49395 4.44114,2.90995 19.12331,3.80284 25.87653,1.57368 2.83714,-0.93651 3.75,-1.77885 3.75,-3.46028 0,-1.22235 -0.4119,-2.64995 -0.91532,-3.17245 -0.50343,-0.5225 -1.06593,-2.075 -1.25,-3.45 -0.26858,-2.00621 -0.82847,-2.44417 -2.83468,-2.21736 -9.07336,1.02579 -11.99853,2.05762 -11.26349,3.9731 0.41393,1.07869 0.21465,1.33211 -0.63474,0.80715 -0.68097,-0.42085 -1.0176,-1.33984 -0.74809,-2.04219 0.26952,-0.70234 0.0979,-1.66932 -0.38128,-2.14884 -0.49541,-0.49573 1.30969,-0.96483 4.18412,-1.08736 6.32339,-0.26956 7.84348,-1.51124 7.84348,-6.40694 0,-3.13254 -0.36231,-3.87756 -1.88569,-3.87756 -2.28566,0 -7.13581,2.41675 -8.15292,4.06247 -0.40578,0.65657 -1.25317,0.87523 -1.88309,0.48592 -1.22488,-0.75701 2.80077,-4.54839 4.82943,-4.54839 0.60075,0 1.09227,-0.45 1.09227,-1 0,-0.55 0.9,-1 2,-1 2.29734,0 2.48828,-1.49165 0.62179,-4.85761 l -1.30734,-2.35761 -2.05114,2.60761 c -1.12813,1.43419 -2.33544,2.60761 -2.68291,2.60761 -1.0706,0 2.29764,-5.79081 3.64856,-6.27275 1.57509,-0.56191 0.93819,-1.27388 -1.92673,-2.15383 -1.9354,-0.59445 -2.32898,-0.1616 -3.29678,3.62577 -2.25479,8.82382 -5.23152,14.38839 -12.30328,22.99919 -5.74746,6.99827 -6.90391,7.0102 -15.38349,0.15876 -5.26423,-4.25347 -7.05801,-10.90608 -5.38333,-19.96526 0.74129,-4.00997 0.74103,-6.88 -8.7e-4,-9.63519 -1.94711,-7.23104 1.18951,-14.24814 7.89973,-17.67292 2.01619,-1.02902 4.52303,-2.81884 5.57078,-3.97736 1.04774,-1.15853 2.51024,-2.10641 3.25,-2.10641 1.22603,0 1.47552,-1.20795 1.60072,-7.75 0.0184,-0.9625 -0.70658,-3.42305 -1.61111,-5.46788 -2.10212,-4.75218 -2.10868,-11.67454 -0.0139,-14.66525 3.68896,-5.26673 15.16783,-6.92372 19.86033,-2.86687 3.8252,3.30704 5.87623,14.08165 4.22079,22.17295 -0.6665,3.25762 -1.81801,6.12218 -2.55892,6.3657 -1.02356,0.33641 -1.11125,-0.005 -0.36513,-1.42295 3.23723,-6.1506 2.0379,-20.58993 -2.08612,-25.1157 -3.56907,-3.91676 -15.03932,-2.22458 -17.62115,2.5996 -1.36814,2.55639 -1.41031,8.1504 -0.0614,8.1504 0.57857,0 0.7566,1.0457 0.41187,2.4192 -0.47116,1.87725 -0.0272,2.79922 1.98176,4.11554 1.42392,0.93299 3.1557,2.88185 3.8484,4.3308 0.81407,1.70283 2.75877,3.15401 5.49919,4.10363 4.51357,1.56405 5.57345,3.03083 2.19007,3.03083 -3.43243,0 -7.82148,-2.85503 -9.63418,-6.26693 l -1.71769,-3.23307 -0.74181,4.92811 c -0.4222,2.80479 -1.41787,5.30646 -2.31089,5.80622 -0.86299,0.48295 -2.57633,1.8918 -3.80742,3.13077 -1.23109,1.23897 -4.07928,3.4227 -6.32931,4.85273 -5.6706,3.60401 -7.09594,7.39386 -5.56622,14.80004 0.83161,4.02627 0.88403,6.57036 0.17387,8.43823 -1.43003,3.76126 -1.26338,10.01772 0.37102,13.92939 1.24536,2.98058 9.2394,9.61451 11.5857,9.61451 1.75539,0 6.90284,-5.13205 10.02054,-9.99056 1.75953,-2.742 4.50285,-8.47835 6.09626,-12.74745 2.45872,-6.58743 2.7358,-8.25141 1.83108,-10.99629 -1.47008,-4.46016 -0.36836,-7.22629 3.15914,-7.93179 1.60576,-0.32115 2.91957,-0.82562 2.91957,-1.12105 0,-0.29543 -1.14397,-2.48918 -2.54215,-4.875 -1.7906,-3.05542 -3.19489,-4.33333 -4.75,-4.32255 -4.46944,0.031 -5.20785,1.41583 -5.20785,9.76694 0,11.85399 -3.74378,18.24521 -14.75,25.18058 -4.49319,2.8313 -6.58928,2.80853 -3.1638,-0.0344 1.1006,-0.91342 1.40911,-2.252 1.00774,-4.37245 l -0.57847,-3.05601 1.83613,2.36874 c 1.55846,2.01052 2.15875,2.19609 3.96935,1.22708 4.46147,-2.3877 4.8755,-8.45064 0.87723,-12.84582 -1.12574,-1.2375 -1.51837,-2.25 -0.87249,-2.25 1.43216,0 5.17431,3.61608 5.17431,5 0,2.24109 1.799,0.76829 3.35907,-2.75 1.14951,-2.59237 1.58227,-5.91079 1.40188,-10.74961 l -0.26095,-6.99961 3.36084,-1.67845 c 4.30401,-2.14948 7.09753,-0.99473 10.67634,4.41322 2.11352,3.19374 2.62054,5.16467 2.65018,10.30202 0.0356,6.16779 0.12006,6.37104 2.90217,6.98209 1.57604,0.34616 3.77564,0.34052 4.888,-0.0125 1.11236,-0.35305 2.02247,-0.21037 2.02247,0.31707 0,1.30152 -4.71909,2.39973 -7.08504,1.64881 -2.07304,-0.65796 -2.41094,0.19477 -0.97586,2.46269 0.76559,1.2099 1.16426,1.22341 2.53487,0.0859 1.38336,-1.14809 1.88042,-1.08508 3.32622,0.42162 1.60788,1.67562 1.58268,1.73638 -0.46603,1.12342 -2.51686,-0.75302 -3.7186,0.64675 -2.86479,3.33686 0.6798,2.14184 7.18565,3.43787 7.90091,1.57394 0.23517,-0.61284 0.069,-3.0755 -0.36939,-5.47257 -0.76951,-4.20813 0.34187,-9.00487 2.08638,-9.00487 0.42144,0 1.43972,-1.35 2.26284,-3 1.27738,-2.56057 1.28811,-3 0.0733,-3 -0.7829,0 -1.42341,0.675 -1.42341,1.5 0,0.825 -0.45,1.5 -1,1.5 -0.55,0 -1,-0.47341 -1,-1.05202 0,-0.57861 -1.36367,-1.5274 -3.03038,-2.10842 -3.58627,-1.25018 -5.96962,-5.35839 -5.96962,-10.2899 0,-2.48859 -0.44838,-3.54966 -1.5,-3.54966 -3.4558,0 -1.10017,-1.63819 4.09114,-2.84512 5.08889,-1.18312 5.77307,-1.13618 7.6164,0.52262 2.98132,2.68286 7.58224,9.63673 8.31948,12.57415 0.35321,1.40728 1.72912,3.5798 3.05759,4.82783 1.32846,1.24803 2.41539,2.801 2.41539,3.45103 0,1.07704 6.47179,10.2877 8.05894,11.46949 1.73824,1.2943 1.91333,5.31544 0.4227,9.70778 -3.13092,9.22569 -6.19441,10.35339 -12.5435,4.61737 -4.79697,-4.33378 -7.13855,-8.4592 -6.89917,-12.15503 0.0951,-1.46857 0.0804,-3.79512 -0.0327,-5.17012 l -0.20563,-2.5 -0.80064,2.5 c -0.44035,1.375 -0.85037,4.525 -0.91114,7 -0.0608,2.475 -0.70224,6.525 -1.42547,9 -1.56817,5.36653 -0.8115,18.67239 1.13008,19.87236 0.81882,0.50606 1.1895,2.70019 1.04831,6.20526 -0.14699,3.64926 0.552,7.54788 2.13759,11.92238 1.2958,3.575 2.50268,6.95 2.68195,7.5 0.17927,0.55 0.89131,1.83393 1.58232,2.85318 1.03263,1.52318 0.98924,2.02818 -0.24364,2.83588 -1.25626,0.823 -1.37181,2.55302 -0.71111,10.64681 0.90931,11.13936 0.94682,12.23713 0.74039,21.66413 -0.12222,5.58128 1.41937,33.80008 1.86103,34.06606 0.0603,0.0363 2.76586,2.84883 6.0123,6.25 3.46665,3.63188 6.74517,6.18394 7.94423,6.18394 2.94661,0 7.63259,4.30825 6.86413,6.31082 -0.68195,1.77712 -7.46657,4.99749 -9.1581,4.34695 -0.67169,-0.25832 -1.05446,1.99311 -1.05726,6.21866 -0.002,3.64296 -0.35702,7.33015 -0.78799,8.19376 -0.63582,1.27406 1.14789,2.33215 9.45786,5.6104 5.6328,2.22212 10.4124,4.55304 10.62132,5.17981 0.54176,1.62529 -0.0369,1.4574 -12.59389,-3.65355 z m -52.69291,-6.20685 c 0,-1.16636 -1.16774,-1.45883 -5.25,-1.31491 -2.8875,0.10181 -5.25,-0.19226 -5.25,-0.65348 0,-0.46122 2.3625,-1.03058 5.25,-1.26524 4.24444,-0.34494 5.51278,-0.0761 6.62197,1.40348 1.5736,2.09911 4.12803,2.44439 4.12803,0.55799 0,-0.69968 -1.26375,-2.83718 -2.80834,-4.75 -4.3536,-5.3915 -8.92694,-13.36178 -10.10834,-17.61652 -1.69079,-6.08923 -1.30162,-14.73346 0.91668,-20.36132 1.1,-2.79072 1.98405,-7.19488 1.96456,-9.78702 -0.0345,-4.59073 -0.0725,-4.64813 -1.46456,-2.21298 -0.78602,1.375 -1.45197,4.075 -1.47988,6 -0.0536,3.69785 -1.40036,6.81181 -2.30968,5.3405 -0.81434,-1.31763 1.00501,-9.88956 2.86063,-13.47793 0.90012,-1.74065 2.53419,-5.90931 3.63127,-9.26369 1.09707,-3.35439 3.25835,-8.79888 4.80285,-12.09888 1.5445,-3.3 3.09465,-7.68264 3.44478,-9.73919 l 0.6366,-3.73919 -5.85543,0.61201 c -4.38838,0.45868 -6.6417,0.20542 -8.99363,-1.01081 -1.726,-0.89255 -3.37693,-1.62282 -3.66872,-1.62282 -0.29179,0 -0.24795,2.06167 0.0974,4.58148 0.41142,3.00161 0.0111,7.05873 -1.16093,11.76529 -1.67855,6.74066 -1.68918,7.6728 -0.17242,15.11051 1.73795,8.52229 1.59441,10.88243 -0.31076,5.10972 -0.64747,-1.96185 -1.57488,-3.567 -2.06092,-3.567 -1.09227,0 -3.96119,9.40889 -3.96119,12.99111 0,1.44546 0.95472,6.40353 2.12161,11.01794 1.55368,6.14399 1.95893,9.94631 1.51387,14.20441 -0.49668,4.75197 -0.15341,7.02163 1.87839,12.41961 1.36737,3.63278 2.48613,7.42596 2.48613,8.42929 0,2.84129 3.9669,5.04524 8.5,4.72246 2.7623,-0.19669 4,-0.74896 4,-1.78482 z m -14.5,-18.49064 c 0,-1.45903 3.14328,-6.50936 4.05136,-6.50936 1.11802,0 -1.47035,5.52288 -3.04425,6.4956 -0.55391,0.34234 -1.00711,0.34853 -1.00711,0.0138 z m 6,-51.50936 c 0,-0.55 0.9,-1 2,-1 1.1,0 2,0.45 2,1 0,0.55 -0.9,1 -2,1 -1.1,0 -2,-0.45 -2,-1 z m -2,-7.25531 c 0,-1.72944 0.87142,-2.52806 3.7373,-3.42506 3.94027,-1.23329 5.30446,-0.52582 5.16844,2.68037 -0.0433,1.02165 -0.22448,1.10137 -0.56802,0.25 -0.76336,-1.8918 -4.08953,-1.49819 -6.33772,0.75 -2,2 -2,2 -2,-0.25531 z m 49.17126,76.60032 c 3.81437,-3.45195 0.95668,-15.34501 -3.68714,-15.34501 -4.29076,0 -5.94764,9.86972 -2.41154,14.36514 2.4117,3.06598 3.58522,3.25453 6.09868,0.97987 z m 5.82874,-7.76917 c 0,-4.76659 -2.98213,-9.63058 -5.82258,-9.49689 -1.07329,0.0505 -1.21965,0.26313 -0.40638,0.59034 2.12687,0.85574 4.22896,5.99549 4.22896,10.34007 0,2.48447 0.39531,3.86436 1,3.49064 0.55,-0.33992 1,-2.55579 1,-4.92416 z m 7.55267,-10.20231 c 3.01034,-1.97245 1.94857,-3.82328 -2.73013,-4.75902 -3.40904,-0.68181 -14.79603,-12.05911 -15.97286,-15.95927 -0.35768,-1.18538 -0.70591,-5.98024 -0.77386,-10.65524 -0.0679,-4.675 -0.5513,-10.3 -1.07414,-12.5 -0.6115,-2.5731 -0.58901,-6.9747 0.063,-12.3389 1.33983,-11.02244 -0.11346,-15.73905 -2.93885,-9.53799 -0.94841,2.08155 -0.75422,8.84317 0.94059,32.75 1.17467,16.56979 2.5928,30.68631 3.15141,31.37004 0.6451,0.78959 2.34121,1.03772 4.6489,0.68011 2.46041,-0.38129 4.27885,-0.0665 5.63324,0.97504 2.61065,2.00771 5.96472,1.99853 9.05267,-0.0248 z m -22.55267,-3.86211 c 0,-1.36872 -0.90812,-15.10185 -2.01805,-30.51805 -1.80315,-25.04465 -2.22911,-28.24053 -4,-30.01142 -1.09007,-1.09007 -1.98195,-2.7068 -1.98195,-3.59273 0,-1.2292 0.47031,-1.05153 1.98533,0.75 l 1.98533,2.36078 -0.62417,-7.5 c -0.3433,-4.125 -0.69708,-7.59788 -0.78618,-7.71752 -0.0891,-0.11964 -1.79764,0.28447 -3.79673,0.89801 -2.77888,0.85286 -4.35628,0.81664 -6.69915,-0.1538 -1.68544,-0.69813 -3.06443,-1.66474 -3.06443,-2.14801 0,-1.10616 0.0581,-1.10298 3.8209,0.20873 4.00901,1.39755 10.62532,-0.48219 9.74765,-2.76937 -0.3127,-0.81489 -0.56855,-4.3384 -0.56855,-7.83002 l 0,-6.34841 -2.82491,0.81018 c -4.13867,1.18695 -22.40473,2.2429 -18.82315,1.08815 1.56857,-0.50573 5.39357,-1.19007 8.5,-1.52076 12.09766,-1.28785 12.14806,-1.30722 12.14806,-4.66948 0,-2.04788 -0.4139,-2.89702 -1.25,-2.56441 -0.6875,0.27349 -3.275,1.29775 -5.75,2.27612 -2.475,0.97837 -5.38763,2.37774 -6.47251,3.10972 -2.40777,1.62455 -3.89163,1.72908 -2.9515,0.20791 0.38172,-0.61762 3.44577,-2.39697 6.80902,-3.95411 6.83727,-3.16556 5.42473,-3.70576 -3.58511,-1.37108 -3.29384,0.85352 -6.50043,1.38131 -7.12577,1.17286 -1.89414,-0.63138 8.4364,-3.75024 14.57587,-4.40056 5.06499,-0.5365 5.75,-0.87007 5.75,-2.79994 0,-3.19295 -0.62779,-3.41852 -5.16428,-1.85557 -2.24969,0.77508 -6.91574,1.45739 -10.36901,1.51623 -5.5389,0.0944 -6.40285,0.37956 -7.33269,2.42033 -0.57972,1.27234 -2.8541,3.23167 -5.05419,4.35407 -4.5546,2.32359 -5.07983,2.43119 -5.07983,1.04073 0,-0.55 0.5795,-1 1.28777,-1 2.47724,0 8.09806,-5.55217 7.41716,-7.32656 -1.08917,-2.83834 -4.74335,-2.0319 -6.01103,1.32656 -0.62281,1.65 -1.48372,3 -1.91314,3 -1.05008,0 -1.01716,-0.18996 0.77677,-4.48345 1.39086,-3.32878 1.84567,-3.65659 4.25,-3.06317 9.12004,2.25095 21.35414,1.72997 24.80744,-1.0564 1.73397,-1.39909 1.56448,-1.4559 -2.11497,-0.70898 -6.28018,1.27488 -21.21422,0.60105 -24.64838,-1.11213 -2.76892,-1.38132 -3.17696,-1.35068 -5.03243,0.37795 -1.42037,1.32328 -1.94999,2.94361 -1.78586,5.46367 0.80496,12.35896 -0.39422,22.95299 -3.20935,28.35272 -0.8478,1.62617 -0.87705,2.57672 -0.10311,3.35066 0.77394,0.77394 1.2696,0.48452 1.74718,-1.02021 0.90759,-2.85957 2.53195,-2.65644 2.53195,0.31663 0,1.94021 0.87963,2.75323 4.45686,4.11939 7.36227,2.81167 15.54314,0.33485 15.54314,-4.7058 0,-3.33341 2.37534,-5.83088 5.54575,-5.83088 1.65846,0 2.88351,-0.92941 3.95425,-3 2.18126,-4.2181 3.82995,-3.75977 1.79861,0.5 -0.91797,1.925 -2.38556,3.5 -3.26132,3.5 -4.99175,0 -7.9315,6.33595 -4.06121,8.75299 2.8142,1.7575 8.00342,11.21766 8.01454,14.61086 0.005,1.57511 0.97161,4.5759 2.14767,6.66842 2.34441,4.17131 1.97575,7.33246 -0.73387,6.29268 -1.50392,-0.57711 -1.59723,0.0503 -0.93172,6.26475 0.40677,3.79834 1.59182,8.5766 2.63344,10.61835 2.21569,4.34311 2.42707,10.87586 0.71569,22.11874 -1.29701,8.52074 -0.84772,9.62539 3.92817,9.6579 1.73468,0.0118 2.25,-0.55465 2.25,-2.47327 z m -3.39301,-5.09321 c -0.93556,-2.43803 -0.7194,-5.41821 0.39301,-5.41821 0.55,0 1,0.8632 1,1.91821 0,1.05502 0.27314,2.63002 0.60699,3.5 0.33384,0.86999 0.15699,1.58179 -0.39301,1.58179 -0.55,0 -1.27315,-0.7118 -1.60699,-1.58179 z m 4.39343,-63.41847 c 0.49544,-0.3062 0.63851,-3.09805 0.31794,-6.20411 -0.53726,-5.20554 -0.729,-5.55613 -2.45061,-4.48096 -1.42351,0.88899 -1.8645,2.35792 -1.8541,6.17588 0.008,2.7552 0.30574,6.10127 0.66273,7.43571 l 0.64907,2.42626 0.88709,-2.39803 c 0.4879,-1.31892 1.29245,-2.64855 1.78788,-2.95475 z m -1.04971,-13.92767 c 1.84305,-1.41646 2.1874,-2.21678 1.38876,-3.22777 -0.58407,-0.73936 -1.31334,-2.9193 -1.62059,-4.8443 -0.61738,-3.868 -3.59925,-11.45297 -4.2476,-10.80461 -0.63605,0.63605 0.7517,20.80755 1.42978,20.78237 0.32942,-0.0122 1.70176,-0.86979 3.04965,-1.90569 z m -5.00858,-29.44389 c -0.93774,-0.8713 -1.0725,-0.55894 -0.59183,1.37182 0.34232,1.375 0.69596,3.175 0.78588,4 0.0899,0.825 0.35624,0.20768 0.59183,-1.37182 0.23559,-1.5795 -0.11805,-3.3795 -0.78588,-4 z m 21.48627,-25.07987 c 1.70778,-4.47177 1.69903,-4.60728 -0.53579,-8.29716 -1.24957,-2.06313 -3.53659,-5.31618 -5.08227,-7.22899 -1.54569,-1.91282 -2.81034,-3.85171 -2.81034,-4.30864 0,-0.45694 -1.29728,-2.49191 -2.88285,-4.52216 -1.58556,-2.03025 -3.15227,-4.86163 -3.48156,-6.29197 -0.32929,-1.43033 -2.2945,-4.50684 -4.36715,-6.83668 -3.25341,-3.65713 -4.14428,-4.14108 -6.51844,-3.54099 -2.4026,0.60729 -2.75,1.18077 -2.75,4.53963 0,3.99487 1.72855,8.93865 3.12533,8.93865 0.44237,0 1.28597,-0.9 1.87467,-2 1.49658,-2.79639 5.40954,-2.55011 7.38499,0.46482 2.01874,3.08098 2.04971,5.39736 0.10096,7.5507 -1.35206,1.49401 -1.35206,2.06069 0,5.29662 0.83273,1.99299 1.51405,5.95964 1.51405,8.81478 0,4.90149 0.2605,5.43032 4.66838,9.47719 5.54413,5.09007 7.16106,4.74949 9.76002,-2.0558 z m -23.6038,2.20169 c 1.11392,-4.10557 0.73362,-4.75 -2.80317,-4.75 l -2.86054,0 1.57125,4 c 1.90504,4.84977 2.92919,5.03746 4.09246,0.75 z m 3.55696,-17.30194 c 0.34149,-0.88992 0.17385,-1.29132 -0.39301,-0.94098 -0.5437,0.33602 -0.98855,1.0344 -0.98855,1.55194 0,1.43843 0.71677,1.12146 1.38156,-0.61096 z m -17.69935,-2.09918 c -0.35812,-0.35812 0.12938,-1.29152 1.08333,-2.07422 1.60076,-1.3134 1.56102,-1.38605 -0.51554,-0.9425 -1.49458,0.31924 -2.25,0.008 -2.25,-0.92578 0,-0.77351 0.675,-1.40638 1.5,-1.40638 0.825,0 1.5,-0.45 1.5,-1 0,-1.14109 -1.13014,-1.27103 -3.41821,-0.39301 -0.86999,0.33384 -1.58179,1.26343 -1.58179,2.06574 0,2.15893 1.90427,5.32727 3.20185,5.32727 0.62232,0 0.83848,-0.29301 0.48036,-0.65112 z m 19.17455,-10.23919 c 0.99005,-0.62733 1.04468,-1.05257 0.20212,-1.5733 -1.43263,-0.88541 -4.05888,0.0413 -4.05888,1.43222 0,1.24729 1.99573,1.32029 3.85676,0.14108 z m -21.2041,47.83173 c -1.45896,-1.14762 -2.65266,-2.81435 -2.65266,-3.70384 0,-1.1509 0.90615,-0.69042 3.14239,1.59686 3.67383,3.75768 3.35464,5.13096 -0.48973,2.10698 z m 8.37914,-4.1324 c -0.0175,-0.93004 0.44814,-1.9876 1.03473,-2.35014 1.76258,-1.08933 2.0097,0.059 0.45494,2.11412 -1.27997,1.69187 -1.46174,1.72067 -1.48967,0.23602 z m -14.0318,-10.30902 c 0.68469,-0.825 1.41479,-1.5 1.62244,-1.5 0.20766,0 0.37756,0.675 0.37756,1.5 0,0.825 -0.7301,1.5 -1.62245,1.5 -1.32879,0 -1.39712,-0.27149 -0.37755,-1.5 z m -25.56474,-3.90193 c -0.3715,-1.48016 -0.43287,-2.9338 -0.13638,-3.23029 0.29649,-0.29649 1.06723,0.44778 1.71274,1.65393 0.81057,1.51456 0.85276,2.51391 0.13638,3.23029 -0.71638,0.71638 -1.24625,0.20471 -1.71274,-1.65393 z m 3.56474,-15.06414 c 0,-1.27464 3.47713,-7.53393 4.18521,-7.53393 1.27444,0 0.9693,1.23433 -1.17425,4.75 -1.78181,2.92238 -3.01096,4.05885 -3.01096,2.78393 z m 9,-14.97723 c 0,-0.79381 -0.98535,-2.13346 -2.18967,-2.977 -2.55622,-1.79044 -1.88592,-3.05585 1.11431,-2.10362 1.47895,0.4694 2.07536,1.50146 2.07536,3.59131 0,1.61293 -0.225,2.93261 -0.5,2.93261 -0.275,0 -0.5,-0.64948 -0.5,-1.4433 z m 7.5,-11.5567 c -0.33992,-0.55 -0.14148,-1 0.44098,-1 0.58246,0 1.05902,0.45 1.05902,1 0,0.55 -0.19844,1 -0.44098,1 -0.24254,0 -0.7191,-0.45 -1.05902,-1 z"
       id="path3076"
       inkscape:connector-curvature="0" />
  </g>
</svg>
