<?xml version="1.0" encoding="UTF-8" standalone="no"?>
<!-- Created with Inkscape (http://www.inkscape.org/) -->

<svg
   xmlns:dc="http://purl.org/dc/elements/1.1/"
   xmlns:cc="http://creativecommons.org/ns#"
   xmlns:rdf="http://www.w3.org/1999/02/22-rdf-syntax-ns#"
   xmlns:svg="http://www.w3.org/2000/svg"
   xmlns="http://www.w3.org/2000/svg"
   xmlns:xlink="http://www.w3.org/1999/xlink"
   xmlns:sodipodi="http://sodipodi.sourceforge.net/DTD/sodipodi-0.dtd"
   xmlns:inkscape="http://www.inkscape.org/namespaces/inkscape"
   width="97.182426"
   height="243.91432"
   id="svg2"
   version="1.1"
   inkscape:version="0.48.3.1 r9886"
   sodipodi:docname="Exercise-ball-pull-in-2.svg">
  <defs
     id="defs4">
    <radialGradient
       gradientUnits="userSpaceOnUse"
       gradientTransform="matrix(1,0,0,0.91819829,-19.285714,-7.9105395)"
       r="209.56604"
       fy="287.50052"
       fx="398.1105"
       cy="287.50052"
       cx="398.1105"
       id="radialGradient5255"
       xlink:href="#linearGradient5249"
       inkscape:collect="always" />
    <linearGradient
       id="linearGradient5249"
       inkscape:collect="always">
      <stop
         id="stop5251"
         offset="0"
         style="stop-color:#e3e3e3;stop-opacity:1;" />
      <stop
         id="stop5253"
         offset="1"
         style="stop-color:#e3e3e3;stop-opacity:0;" />
    </linearGradient>
  </defs>
  <sodipodi:namedview
     id="base"
     pagecolor="#ffffff"
     bordercolor="#666666"
     borderopacity="1.0"
     inkscape:pageopacity="0.0"
     inkscape:pageshadow="2"
     inkscape:zoom="2.8"
     inkscape:cx="5.5514445"
     inkscape:cy="153.6838"
     inkscape:document-units="px"
     inkscape:current-layer="layer1"
     showgrid="false"
     showguides="true"
     inkscape:guide-bbox="true"
     fit-margin-top="0"
     fit-margin-left="0"
     fit-margin-right="0"
     fit-margin-bottom="0"
     inkscape:window-width="1112"
     inkscape:window-height="691"
     inkscape:window-x="65"
     inkscape:window-y="328"
     inkscape:window-maximized="0">
    <sodipodi:guide
       orientation="-0.70710678,0.70710678"
       position="-2246.8238,478.79093"
       id="guide2985" />
  </sodipodi:namedview>
  <metadata
     id="metadata7">
    <rdf:RDF>
      <cc:Work
         rdf:about="">
        <dc:format>image/svg+xml</dc:format>
        <dc:type
           rdf:resource="http://purl.org/dc/dcmitype/StillImage" />
        <dc:title></dc:title>
      </cc:Work>
    </rdf:RDF>
  </metadata>
  <g
     inkscape:label="Ebene 1"
     inkscape:groupmode="layer"
     id="layer1"
     transform="translate(-818.2524,-261.52451)">
    <path
       style="fill:#000000"
       d="m 902.70896,500.8727 c -10.11332,-4.11634 -11.62903,-4.48071 -14.35644,-3.45123 -6.06834,2.29055 -9.83647,-2.77385 -9.83647,-13.22032 0,-6.36915 -8.5e-4,-6.371 -3.75,-8.20294 -4.58849,-2.24207 -5.03819,-4.57177 -2.79027,-14.4551 1.84199,-8.09865 1.37307,-12.17246 -2.22775,-19.35386 -2.30665,-4.6003 -2.44663,-5.66934 -1.85131,-14.13838 l 0.64401,-9.16178 -5.59293,-5.11162 c -5.98966,-5.47421 -7.42958,-6.12521 -7.43549,-3.36162 -0.002,0.9625 -0.94883,3.30029 -2.10394,5.19508 -3.67734,6.03216 -5.89232,14.75977 -5.89232,23.21731 0,4.46639 -0.60158,9.34162 -1.38368,11.21345 -2.06605,4.94476 -2.88623,14.50074 -1.69778,19.78091 0.95752,4.25415 6.59323,14.8982 8.2936,15.66396 0.39168,0.1764 1.66167,1.85708 2.8222,3.73485 2.39092,3.86859 1.89007,7.44444 -1.04271,7.44444 -1.03048,0 -2.15171,0.45 -2.49163,1 -0.33992,0.55 -3.03195,1 -5.98229,1 -4.31204,0 -5.96777,-0.50782 -8.44099,-2.58889 -1.90071,-1.59935 -3.07672,-3.52947 -3.07672,-5.04966 0,-1.35343 -0.65206,-3.72171 -1.44902,-5.26286 -1.63236,-3.15665 -1.69306,-3.69572 -1.58277,-14.05707 0.0461,-4.32929 -0.80933,-11.30445 -2.03889,-16.62542 l -2.11829,-9.16694 2.17168,-7.37458 c 1.19443,-4.05602 2.56312,-10.44562 3.04154,-14.19912 0.47841,-3.75349 1.35091,-8.28217 1.93887,-10.06373 1.18028,-3.57628 1.2149,-16.83979 0.0421,-16.11493 -0.40583,0.25082 -1.56555,-0.45852 -2.57714,-1.57632 -1.5781,-1.74378 -1.65276,-2.331 -0.5258,-4.13555 0.72241,-1.15675 1.65377,-4.61088 2.06969,-7.67585 0.74361,-5.47965 0.68983,-5.6514 -3.22172,-10.29027 -4.54056,-5.38484 -7.67365,-14.97488 -7.72109,-23.63343 -0.0176,-3.20706 -0.90479,-7.35017 -2.2373,-10.44767 -2.35689,-5.47874 -2.52316,-7.95363 -1.32601,-19.73771 0.82958,-8.16587 3.95937,-14.32534 8.27922,-16.2936 1.26725,-0.5774 3.21147,-2.51799 4.32049,-4.31242 1.10903,-1.79444 3.34797,-3.85202 4.97544,-4.57241 2.91801,-1.29163 3.0839,-1.73394 3.21475,-8.57157 0.0184,-0.9625 -0.70658,-3.42305 -1.61111,-5.46788 -2.10212,-4.75218 -2.10868,-11.67454 -0.0139,-14.66525 3.68886,-5.26659 15.17022,-6.92425 19.85657,-2.86687 4.0197,3.4802 5.90812,13.91123 4.09921,22.64277 -1.51143,7.29565 -1.36402,8.10723 1.47255,8.10723 1.06754,0 1.94098,0.50625 1.94098,1.125 0,0.71667 -1.08889,0.90722 -3,0.525 -2.28092,-0.45618 -3,-0.23559 -3,0.92031 0,1.20865 0.76875,1.38366 3.75,0.85371 4.67388,-0.83083 3.29924,1.0388 -1.50873,2.052 -2.99601,0.63136 -3.3045,0.45846 -3.82659,-2.14465 -0.45222,-2.25477 -1.15644,-2.87355 -3.45804,-3.03851 -4.41705,-0.31656 -8.7362,-2.97722 -10.6488,-6.55979 l -1.72601,-3.23307 -0.66429,4.5 c -0.36536,2.475 -0.48156,4.81833 -0.25822,5.20741 0.22334,0.38908 -1.07114,1.47092 -2.87662,2.40409 -3.30431,1.70785 -11.67657,9.74579 -14.98695,14.3885 -1.86272,2.6124 -2.45075,9.47715 -0.89422,10.43914 1.23539,0.76352 3.18552,6.56086 2.20697,6.56086 -0.43311,0 -1.37172,-1.2375 -2.0858,-2.75 l -1.29833,-2.75 -0.89747,3 c -1.11527,3.72808 -0.39228,9.05939 1.83367,13.52142 0.93396,1.87216 2.0455,7.02072 2.47009,11.44125 1.2059,12.55484 2.23156,15.89342 6.42317,20.90793 2.12833,2.54617 4.19985,4.6294 4.60337,4.6294 0.40352,0 1.32072,1.06835 2.03823,2.37412 0.71751,1.30576 2.14344,3.89326 3.16873,5.75 2.28968,4.14646 6.61994,8.87588 8.12676,8.87588 1.95379,0 7.50908,-6.50856 7.50908,-8.79761 0,-2.88921 -3.38936,-6.20239 -6.34501,-6.20239 -3.31875,0 -4.99498,-2.37213 -8.07499,-11.42735 -1.48301,-4.36004 -3.51143,-9.08504 -4.5076,-10.5 -2.90736,-4.12958 -6.07574,-10.84352 -6.03236,-12.78281 0.0285,-1.27595 0.53099,-0.92849 1.75,1.21016 l 1.70996,3 0.29029,-8.24046 c 0.29785,-8.45514 -0.73412,-12.25954 -3.32547,-12.25954 -2.2055,0 -1.76142,-1.75955 0.88105,-3.49097 3.04366,-1.99428 4.65413,-5.63482 4.65413,-10.5209 0,-3.98582 -2.0348,-6.24324 -4.75,-5.26967 -0.6875,0.24651 -1.25,-0.0393 -1.25,-0.63513 0,-1.94581 5.8506,-1.23101 6.96482,0.85093 1.19483,2.23256 1.25159,7.6551 0.11059,10.56574 -0.62259,1.58821 -0.1043,2.46327 2.51723,4.25 1.81569,1.2375 3.9586,2.25 4.76202,2.25 1.79473,0 11.86739,-5.06441 12.88003,-6.47592 1.10793,-1.54435 0.91,-5.97939 -0.32182,-7.21121 -0.74413,-0.74412 -0.75952,-1.28961 -0.0488,-1.72887 0.59741,-0.36922 1.54516,1.04987 2.23184,3.34181 1.00874,3.36687 0.94301,4.36583 -0.42457,6.45302 -0.88994,1.35822 -2.64256,2.79052 -3.89471,3.18289 -1.25215,0.39237 -3.34983,1.5515 -4.6615,2.57584 -3.2401,2.53033 -6.94862,2.33963 -11.24246,-0.57811 -4.50911,-3.06402 -6.36836,-1.86034 -4.1122,2.66223 1.19773,2.40092 1.40198,5.23071 0.9516,13.18386 -0.5077,8.96524 -0.35458,10.41165 1.33499,12.61061 1.04965,1.36612 1.91846,2.13052 1.93069,1.69867 0.0122,-0.43185 0.92232,-0.30348 2.02243,0.28528 5.08758,2.72279 20.42088,3.10429 26.28527,0.65399 3.14862,-1.31558 3.71454,-1.33554 3.71454,-0.131 0,0.86469 -2.18749,2.05696 -5.58734,3.04532 -6.36078,1.84913 -19.29443,1.24318 -23.84388,-1.11711 -2.34989,-1.21913 -2.52249,-1.19099 -1.70081,0.27726 2.18009,3.8956 18.62662,5.61027 26.59375,2.7726 4.70468,-1.67568 5.65742,-1.28055 2.2677,0.94048 -2.54901,1.67017 -15.72941,3.7426 -15.72941,2.47322 0,-1.77361 -3.68759,0.47568 -5.25378,3.20461 -0.99704,1.73724 -2.19967,2.71832 -2.84402,2.32008 -1.41407,-0.87394 -0.19901,3.5217 1.45512,5.26411 1.59631,1.68149 10.20052,3.00796 9.21997,1.4214 -0.48053,-0.77751 1.4271,-2.17713 5.59686,-4.10641 7.02983,-3.25259 5.71801,-3.82284 -3.37425,-1.4668 -3.29384,0.85352 -6.50043,1.38131 -7.12577,1.17286 -1.8688,-0.62293 8.39883,-3.74625 14.4092,-4.38314 4.67938,-0.49585 5.58334,-0.33489 5.58334,0.99423 0,1.00614 -2.20903,2.46969 -6.04285,4.00358 -8.25613,3.30322 -8.65461,5.06764 -1.00027,4.42898 3.23205,-0.26968 6.77645,-0.86213 7.87645,-1.31657 1.77216,-0.73213 1.84559,-0.63637 0.64453,0.84053 -0.74788,0.91963 -3.57402,1.96108 -6.30477,2.32332 -3.64339,0.48332 -4.8089,1.02241 -4.41721,2.04314 0.29265,0.76262 -0.24521,2.20187 -1.19523,3.19832 -2.22967,2.33864 -4.48755,6.216 -3.93911,6.76444 0.23473,0.23474 0.99601,-0.25908 1.69173,-1.09737 0.69572,-0.8383 2.32329,-1.52417 3.61682,-1.52417 1.60179,0 2.84666,-0.9568 3.90324,-3 2.18126,-4.2181 3.82995,-3.75977 1.79861,0.5 -0.91797,1.925 -2.38556,3.5 -3.26132,3.5 -4.99175,0 -7.9315,6.33595 -4.06121,8.75299 2.93552,1.83326 8.00378,11.27979 8.01454,14.93799 0.0117,3.96827 1.53344,5.06684 3.06209,2.21053 0.84933,-1.58698 0.86254,-2.7921 0.0502,-4.57506 -1.54824,-3.39801 -1.3739,-5.07935 0.29065,-2.80295 1.27884,1.74893 1.56921,1.33261 3.52836,-5.05887 1.17416,-3.83055 2.40609,-7.84256 2.73764,-8.91558 0.57278,-1.85377 0.48058,-1.87087 -1.85066,-0.34339 -4.65079,3.04732 -10.37137,4.2182 -13.75708,2.81579 -3.15873,-1.30839 -4.40579,-3.75925 -1.30179,-2.55841 5.85133,2.2637 11.45628,0.8249 16.92444,-4.34452 l 2.17444,-2.05564 -1.92444,-3.98313 c -1.05847,-2.19073 -1.92447,-4.91933 -1.92447,-6.06356 0,-1.14424 -0.675,-3.69593 -1.5,-5.67043 -0.825,-1.97451 -1.5,-3.81515 -1.5,-4.09033 0,-0.27518 0.675,0.0599 1.5,0.74457 2.00796,1.66646 1.91691,0.11816 -0.12579,-2.139 -0.89418,-0.98806 -2.03975,-4.84849 -2.5457,-8.57874 -0.50595,-3.73024 -1.16212,-8.59999 -1.45815,-10.82166 -0.51626,-3.87438 -0.67001,-4.02402 -3.76368,-3.66285 -3.16562,0.36957 -3.21768,0.31019 -2.80758,-3.20258 0.42524,-3.64252 2.2009,-4.07508 2.2009,-0.53615 0,2.46511 2.18638,2.4975 4.38776,0.065 2.32337,-2.5673 2.98017,-7.5981 1.82311,-13.96415 -0.95131,-5.23399 0.11513,-11.15987 2.00837,-11.15987 1.11001,0 0.96901,3.41175 -0.18886,4.56961 -0.62615,0.62616 -0.59607,3.36896 0.0849,7.74313 0.89957,5.77815 0.79286,7.50121 -0.7262,11.72557 -1.5927,4.42914 -1.64625,5.7524 -0.50716,12.53151 0.70047,4.1687 2.18277,9.12043 3.29401,11.00384 1.39273,2.3605 2.10771,5.59666 2.30132,10.41635 0.55509,13.8179 6.58164,16.21015 12.292,4.87933 0.1748,-0.34686 -0.82677,-0.91794 -2.22573,-1.26905 -2.74137,-0.68804 -3.44678,-4.04407 -1.5823,-7.52789 0.67447,-1.26025 0.53478,-2.35944 -0.46819,-3.68426 -0.7862,-1.03848 -1.44376,-3.32035 -1.46126,-5.07083 -0.0175,-1.75048 -1.40724,-6.47548 -3.08833,-10.5 l -3.05653,-7.31731 0.43369,4.75 c 0.23853,2.6125 0.27834,4.75 0.0885,4.75 -0.18987,0 -0.96021,-1.17374 -1.71186,-2.60831 -1.03891,-1.98284 -1.13566,-3.77646 -0.40346,-7.47962 0.55177,-2.79058 1.38891,-4.60818 1.95988,-4.2553 0.63933,0.39513 0.84519,-1.76347 0.57413,-6.02039 -0.23242,-3.65001 -0.12643,-6.63638 0.23553,-6.63638 0.81707,0 1.9151,8.81048 1.93173,15.5 0.008,3.31025 0.72606,6.17062 2.12407,8.4639 1.37788,2.26024 2.11165,5.1392 2.11165,8.28504 0,3.95223 0.69969,5.85114 3.88223,10.5361 2.13523,3.14323 3.88331,6.5521 3.88462,7.57526 0.004,3.20287 -6.10038,11.6397 -8.42192,11.6397 -3.52171,0 -4.86911,4.79088 -4.15925,14.78886 0.76596,10.78804 0.80283,12.03439 0.61283,20.71114 -0.12222,5.58128 1.41937,33.80008 1.86103,34.06606 0.0603,0.0363 2.76586,2.84883 6.0123,6.25 3.46665,3.63188 6.74517,6.18394 7.94423,6.18394 2.94661,0 7.63259,4.30825 6.86413,6.31082 -0.68195,1.77712 -7.46657,4.99749 -9.1581,4.34695 -0.67169,-0.25832 -1.05446,1.99311 -1.05726,6.21866 -0.002,3.64296 -0.35702,7.33015 -0.78799,8.19376 -0.63582,1.27406 1.14789,2.33215 9.45786,5.6104 5.6328,2.22212 10.4124,4.55304 10.62132,5.17981 0.54176,1.62529 -0.0369,1.4574 -12.59389,-3.65355 z m -52.69291,-6.20685 c 0,-1.16636 -1.16774,-1.45883 -5.25,-1.31491 -2.8875,0.10181 -5.25,-0.19226 -5.25,-0.65348 0,-0.46122 2.3625,-1.03058 5.25,-1.26524 4.24444,-0.34494 5.51278,-0.0761 6.62197,1.40348 1.5736,2.09911 4.12803,2.44439 4.12803,0.55799 0,-0.69968 -1.26375,-2.83718 -2.80834,-4.75 -4.3536,-5.3915 -8.92694,-13.36178 -10.10834,-17.61652 -1.64879,-5.93798 -1.28908,-13.82585 0.91668,-20.10164 1.1,-3.1297 1.98405,-7.73096 1.96456,-10.22502 -0.0347,-4.43589 -0.0666,-4.48021 -1.46456,-2.03466 -0.78602,1.375 -1.45197,4.075 -1.47988,6 -0.0536,3.69785 -1.40036,6.81181 -2.30968,5.3405 -0.80595,-1.30406 0.99701,-9.87409 2.81823,-13.39594 0.8768,-1.69556 2.68716,-6.31422 4.02301,-10.26369 1.33584,-3.94948 3.5582,-9.39464 4.93857,-12.10035 1.38036,-2.70571 2.50975,-5.59528 2.50975,-6.42126 0,-2.70981 -3.17482,-5.15926 -6.68711,-5.15926 -1.85742,0 -4.99263,-0.675 -6.96713,-1.5 -1.97451,-0.825 -3.75144,-1.5 -3.94875,-1.5 -0.19731,0 -0.0762,2.06167 0.26921,4.58148 0.41142,3.00161 0.0111,7.05873 -1.16093,11.76529 -1.67854,6.74066 -1.68918,7.6728 -0.17241,15.11051 1.73794,8.52229 1.5944,10.88243 -0.31077,5.10972 -0.64747,-1.96185 -1.57488,-3.567 -2.06092,-3.567 -1.16139,0 -3.96119,9.50772 -3.96119,13.4516 0,1.69873 0.94402,6.45455 2.09781,10.5685 1.57068,5.60035 1.9556,9.06593 1.53186,13.7917 -0.46569,5.19351 -0.12867,7.47358 1.90218,12.86906 1.35748,3.60649 2.46815,7.37817 2.46815,8.3815 0,2.84129 3.9669,5.04524 8.5,4.72246 2.7623,-0.19669 4,-0.74896 4,-1.78482 z m -14.5,-18.49064 c 0,-1.45903 3.14328,-6.50936 4.05136,-6.50936 1.11802,0 -1.47035,5.52288 -3.04425,6.4956 -0.55391,0.34234 -1.00711,0.34853 -1.00711,0.0138 z m 6,-51.50936 c 0,-0.55 0.9,-1 2,-1 1.1,0 2,0.45 2,1 0,0.55 -0.9,1 -2,1 -1.1,0 -2,-0.45 -2,-1 z m -2,-7.25531 c 0,-1.72944 0.87142,-2.52806 3.7373,-3.42506 3.94027,-1.23329 5.30446,-0.52582 5.16844,2.68037 -0.0433,1.02165 -0.22448,1.10137 -0.56802,0.25 -0.76336,-1.8918 -4.08953,-1.49819 -6.33772,0.75 -2,2 -2,2 -2,-0.25531 z m 49.17126,76.60032 c 2.74021,-2.47986 2.462,-9.49727 -0.51368,-12.95671 -2.73792,-3.18302 -5.18526,-2.7608 -6.67259,1.15117 -1.55169,4.08125 -1.16135,7.96661 1.08759,10.82567 2.4117,3.06598 3.58522,3.25453 6.09868,0.97987 z m 5.82874,-7.76917 c 0,-4.76659 -2.98213,-9.63058 -5.82258,-9.49689 -1.07329,0.0505 -1.21965,0.26313 -0.40638,0.59034 2.12687,0.85574 4.22896,5.99549 4.22896,10.34007 0,2.48447 0.39531,3.86436 1,3.49064 0.55,-0.33992 1,-2.55579 1,-4.92416 z m -12,-9.57584 c 0,-0.55 -0.45,-1 -1,-1 -0.55,0 -1,0.45 -1,1 0,0.55 0.45,1 1,1 0.55,0 1,-0.45 1,-1 z m 19.55267,-0.62647 c 1.9445,-1.27408 2.23533,-1.92405 1.34237,-3 -0.62696,-0.75544 -1.87233,-1.38948 -2.76748,-1.40897 -2.85702,-0.0622 -5.84097,-2.30299 -11.7186,-8.80003 l -5.73146,-6.33547 -0.93597,-13.16453 c -1.28613,-18.08943 -1.28938,-18.27307 -0.46345,-26.16453 0.47831,-4.57004 0.35721,-7.52071 -0.34886,-8.5 -0.85203,-1.18175 -1.19306,-1.22289 -1.60739,-0.1939 -0.28924,0.71836 -1.4623,2.1785 -2.60678,3.24474 -3.41232,3.17907 -3.90797,12.04104 -1.64708,29.44916 1.07148,8.25 2.46665,19.1625 3.10039,24.25 1.27042,10.19873 0.95766,9.8854 9.33164,9.34833 1.65,-0.10583 3.9,0.48944 5,1.32283 2.62118,1.98585 5.97613,1.9682 9.05267,-0.0476 z m -25.0366,-4.62353 c -0.40366,-1.7875 -1.03889,-6.175 -1.41162,-9.75 l -0.6777,-6.5 -1.38685,8.83377 c -1.19562,7.6157 -1.19057,8.95799 0.0366,9.73469 3.01258,1.90665 4.21123,1.09869 3.43955,-2.31846 z m -4.67032,-37.12941 c -1.47179,-10.17941 -3.41786,-11.78722 -2.36478,-1.95374 0.6622,6.1836 2.33217,11.85335 3.22755,10.95797 0.211,-0.21101 -0.17725,-4.26291 -0.86277,-9.00423 z m -6.84575,-23.92481 c 0,-1.26732 -1.3664,-4.45881 -3.03645,-7.0922 -2.42009,-3.81609 -3.31464,-4.55709 -4.40697,-3.65053 -2.27255,1.88605 -1.0909,5.52749 3.03888,9.36481 2.1475,1.99541 4.01704,3.6402 4.15454,3.65508 0.1375,0.0149 0.25,-1.00984 0.25,-2.27716 z m 13.14984,-3.69578 c 0.5752,-1.65 1.45179,-3 1.94799,-3 1.14175,0 1.18935,-3.70448 0.0566,-4.40456 -0.46506,-0.28743 -1.52989,1.93602 -2.36628,4.94098 -1.62126,5.82485 -1.38085,7.46229 0.3617,2.46358 z m -33.89984,-10.08597 c -2.3375,-2.23543 -4.25,-4.95292 -4.25,-6.03888 0,-2.51067 -2.74226,-7.87515 -4.02568,-7.87515 -0.53588,0 -0.97432,0.89089 -0.97432,1.97976 0,1.08887 -0.73562,3.81826 -1.63471,6.0653 -1.12703,2.81673 -1.31316,4.40707 -0.59933,5.1209 0.71382,0.71382 1.24242,0.38298 1.70209,-1.0653 0.90421,-2.8489 2.53195,-2.66093 2.53195,0.29239 0,1.82211 0.89468,2.76414 3.75,3.94847 2.0625,0.85548 4.65,1.57376 5.75,1.59617 1.61523,0.0329 1.18235,-0.74119 -2.25,-4.02366 z m 11,1.69392 c 2.00533,-1.52226 2.37311,-5.6238 0.5,-5.57615 -0.6875,0.0175 -2.12351,0.6925 -3.19113,1.5 -1.06762,0.80751 -2.82487,1.4682 -3.90499,1.4682 -1.90051,0 -1.90548,0.0645 -0.15388,2 2.08565,2.30462 4.25726,2.50021 6.75,0.60795 z m 4.75,-16.60795 c 0,-0.55 -0.45,-1 -1,-1 -0.55,0 -1,0.45 -1,1 0,0.55 0.45,1 1,1 0.55,0 1,-0.45 1,-1 z m 17.60417,-9.72917 c -0.3323,-0.33229 -0.56864,0.25834 -0.52522,1.3125 0.048,1.16495 0.28494,1.4019 0.60416,0.60417 0.28887,-0.72188 0.25335,-1.58438 -0.0789,-1.91667 z m 13.30189,0.11598 c -1.45303,-1.7508 -2.38084,-1.06645 -1.53666,1.13344 0.33906,0.88358 1.0915,1.31293 1.6721,0.9541 0.72494,-0.44804 0.68251,-1.10197 -0.13544,-2.08754 z m -43.91663,-4.87408 c 1.6841,-2.02921 0.54232,-4.51273 -2.07468,-4.51273 -1.73956,0 -2.03336,0.42784 -1.54504,2.25 0.33164,1.2375 0.60912,2.5875 0.61663,3 0.0228,1.25133 1.69301,0.84129 3.00309,-0.73727 z m 13.35289,-82.13261 c 1.02346,-7.14455 -0.62981,-15.8807 -3.62027,-19.13012 -3.60186,-3.91378 -15.05927,-2.22545 -17.64156,2.5996 -1.36814,2.55639 -1.41031,8.1504 -0.0614,8.1504 0.57857,0 0.7566,1.0457 0.41187,2.4192 -0.47116,1.87725 -0.0272,2.79922 1.98176,4.11554 1.42392,0.93299 3.15108,2.86907 3.83813,4.30239 0.79482,1.65814 2.88598,3.22223 5.74919,4.30009 6.3242,2.38077 8.23088,1.00171 9.34232,-6.7571 z m 13.50013,102.53046 c -1.54793,-1.61156 -1.51776,-1.76223 0.45633,-2.27846 2.68699,-0.70267 3.24917,-0.12232 2.10831,2.17643 -0.85849,1.72979 -0.99589,1.73526 -2.56464,0.10203 z m -43.84245,-31.75304 c -4.71733,-3.06406 -5.59737,-5.97631 -1.01566,-3.36103 2.60276,1.48567 4.60967,3.99475 3.7892,4.73731 -0.15045,0.13615 -1.39854,-0.48317 -2.77354,-1.37628 z m 25.65266,-0.21612 c -1.45896,-1.14762 -2.65266,-2.81435 -2.65266,-3.70384 0,-1.1509 0.90615,-0.69042 3.14239,1.59686 3.67383,3.75768 3.35464,5.13096 -0.48973,2.10698 z m -2.19378,-7.00795 c -0.36253,-0.58659 -0.39299,-1.33269 -0.0677,-1.65799 0.3253,-0.3253 0.18386,-1.08287 -0.31431,-1.68347 -0.63291,-0.76304 0.77406,-1.16585 4.67046,-1.33713 3.06693,-0.13481 5.24667,0.0845 4.84387,0.48725 -0.4028,0.4028 -1.26311,0.76211 -1.91179,0.79847 -3.43185,0.19237 -6.50396,1.75306 -6.00586,3.0511 0.63204,1.64707 -0.2539,1.89634 -1.21468,0.34177 z m -11.01618,-3.35171 c -1.06676,-0.78003 -1.62861,-1.72919 -1.24856,-2.10924 0.80071,-0.8007 6.80586,1.64481 6.80586,2.77159 0,1.26241 -3.49465,0.84589 -5.5573,-0.66235 z m 4.5573,-3.46518 c 0,-0.48589 1.125,-1.09848 2.5,-1.36133 1.67641,-0.32047 2.5,-0.0294 2.5,0.88342 0,0.78542 -1.05763,1.36133 -2.5,1.36133 -1.375,0 -2.5,-0.39754 -2.5,-0.88342 z m -6.98977,-4.62891 c 0.95467,-1.15031 1.58244,-1.24069 2.62245,-0.37756 1.92451,1.59721 1.73013,1.88989 -1.25513,1.88989 -2.22718,0 -2.43326,-0.22794 -1.36732,-1.51233 z m 11.3421,0.47165 c -1.18122,-0.45054 -2.44528,-1.3007 -2.80902,-1.88924 -0.86882,-1.40578 0.0268,-1.35551 2.41432,0.13553 1.57601,0.98424 2.27656,0.89243 3.81517,-0.5 1.03658,-0.93809 2.41175,-1.70561 3.05594,-1.70561 0.64419,0 1.17126,-0.45 1.17126,-1 0,-0.55 1.125,-1 2.5,-1 1.9165,0 2.50742,-0.52515 2.5318,-2.25 0.0286,-2.02601 0.1578,-2.08434 1.29738,-0.58598 0.69606,0.91522 2.55955,1.81522 4.14108,2 1.58153,0.18479 3.03739,0.83003 3.23525,1.43387 0.24283,0.74107 -0.86959,0.88627 -3.42288,0.44676 -2.08045,-0.35811 -4.45763,-0.34216 -5.28263,0.0354 -0.825,0.37761 -2.85,1.28216 -4.5,2.01011 -1.65,0.72795 -3.675,1.85561 -4.5,2.50591 -0.93557,0.73746 -2.30815,0.87413 -3.64767,0.36321 z m -12.78166,-3.84497 c -0.61691,-0.99818 4.44596,-2.22211 5.7804,-1.39738 1.10716,0.68426 -1.33489,2.24773 -3.54205,2.26772 -0.93004,0.008 -1.9373,-0.38323 -2.23835,-0.87034 z m 13.44421,-1.80765 c 0.008,-0.44368 1.54125,-2.6067 3.40683,-4.8067 3.72284,-4.39021 6.11878,-4.27387 2.65552,0.12894 -2.42097,3.07778 -6.08498,5.90496 -6.06235,4.67776 z m 9.98512,-6.47337 c 0,-0.64166 0.30098,-0.86568 0.66885,-0.49782 0.36787,0.36787 1.50687,-0.0895 2.53113,-1.01649 1.74858,-1.58244 1.96722,-1.57602 3.58115,0.10515 1.63288,1.7009 1.61052,1.75806 -0.44697,1.14248 -1.19122,-0.3564 -2.45527,-0.1797 -2.80902,0.39267 -0.87505,1.41587 -3.52514,1.32116 -3.52514,-0.12599 z m 0.56936,-5.15895 c -1.58897,-1.16189 -1.18033,-1.31629 3.30817,-1.25 5.3924,0.0796 6.65177,0.93252 2.87247,1.94533 -3.27881,0.87869 -4.16427,0.77907 -6.18064,-0.69533 z m 16.29031,0.0756 c -0.0772,-0.1375 -0.22054,-2.76479 -0.31858,-5.83843 -0.22415,-7.02696 -3.38651,-12.52104 -8.44356,-14.66925 -1.97864,-0.84052 -3.05623,-1.71932 -2.39464,-1.9529 0.6616,-0.23358 3.19685,0.45734 5.6339,1.53536 3.84414,1.70045 4.64283,2.60341 6.03033,6.81763 1.58061,4.80072 1.83504,14.33716 0.38288,14.35063 -0.4125,0.004 -0.81315,-0.10554 -0.89033,-0.24304 z m -27.173,-16.86554 c -1.06791,-0.62115 -3.94543,-0.79021 -7,-0.41126 -3.73657,0.46355 -4.7673,0.35184 -3.68667,-0.39956 0.825,-0.57366 2.33998,-1.04991 3.36663,-1.05833 1.86916,-0.0153 1.89534,-1.00109 0.13984,-5.26531 -0.41434,-1.00644 -0.27873,-1.75 0.31915,-1.75 0.96095,0 2.51058,3.22237 2.62522,5.459 0.0633,1.23472 6.44321,2.60585 9.04916,1.94479 1.97235,-0.50033 1.97316,-0.4859 0.0589,1.04443 -2.26529,1.81092 -2.4763,1.82981 -4.8722,0.43624 z"
       id="path3078"
       inkscape:connector-curvature="0" />
  </g>
</svg>
