<?xml version="1.0" encoding="UTF-8" standalone="no"?>
<!-- Created with Inkscape (http://www.inkscape.org/) -->

<svg
   xmlns:dc="http://purl.org/dc/elements/1.1/"
   xmlns:cc="http://creativecommons.org/ns#"
   xmlns:rdf="http://www.w3.org/1999/02/22-rdf-syntax-ns#"
   xmlns:svg="http://www.w3.org/2000/svg"
   xmlns="http://www.w3.org/2000/svg"
   xmlns:xlink="http://www.w3.org/1999/xlink"
   xmlns:sodipodi="http://sodipodi.sourceforge.net/DTD/sodipodi-0.dtd"
   xmlns:inkscape="http://www.inkscape.org/namespaces/inkscape"
   width="167.31682"
   height="215.974"
   id="svg2"
   version="1.1"
   inkscape:version="0.48.3.1 r9886"
   sodipodi:docname="Hammer-curls-with-rope-2.svg">
  <defs
     id="defs4">
    <radialGradient
       gradientUnits="userSpaceOnUse"
       gradientTransform="matrix(1,0,0,0.91819829,-19.285714,-7.9105395)"
       r="209.56604"
       fy="287.50052"
       fx="398.1105"
       cy="287.50052"
       cx="398.1105"
       id="radialGradient5255"
       xlink:href="#linearGradient5249"
       inkscape:collect="always" />
    <linearGradient
       id="linearGradient5249"
       inkscape:collect="always">
      <stop
         id="stop5251"
         offset="0"
         style="stop-color:#e3e3e3;stop-opacity:1;" />
      <stop
         id="stop5253"
         offset="1"
         style="stop-color:#e3e3e3;stop-opacity:0;" />
    </linearGradient>
  </defs>
  <sodipodi:namedview
     id="base"
     pagecolor="#ffffff"
     bordercolor="#666666"
     borderopacity="1.0"
     inkscape:pageopacity="0.0"
     inkscape:pageshadow="2"
     inkscape:zoom="1.4"
     inkscape:cx="-173.33157"
     inkscape:cy="39.12592"
     inkscape:document-units="px"
     inkscape:current-layer="layer1"
     showgrid="false"
     showguides="true"
     inkscape:guide-bbox="true"
     fit-margin-top="0"
     fit-margin-left="0"
     fit-margin-right="0"
     fit-margin-bottom="0"
     inkscape:window-width="1112"
     inkscape:window-height="691"
     inkscape:window-x="65"
     inkscape:window-y="328"
     inkscape:window-maximized="0">
    <sodipodi:guide
       orientation="-0.70710678,0.70710678"
       position="-2234.6339,428.69351"
       id="guide2985" />
  </sodipodi:namedview>
  <metadata
     id="metadata7">
    <rdf:RDF>
      <cc:Work
         rdf:about="">
        <dc:format>image/svg+xml</dc:format>
        <dc:type
           rdf:resource="http://purl.org/dc/dcmitype/StillImage" />
        <dc:title></dc:title>
      </cc:Work>
    </rdf:RDF>
  </metadata>
  <g
     inkscape:label="Ebene 1"
     inkscape:groupmode="layer"
     id="layer1"
     transform="translate(-806.06253,-239.36741)">
    <path
       style="fill:#000000"
       d="m 823.75238,453.43527 c -1.925,-1.06096 -4.53061,-2.40601 -5.79024,-2.98899 -1.873,-0.86686 -2.10303,-1.40977 -1.26265,-2.98004 1.1724,-2.19066 7.07935,-6.09883 9.21798,-6.09883 0.78596,0 3.15312,-1.76564 5.26035,-3.92365 l 3.83134,-3.92364 -3.60174,0.81232 c -1.98095,0.44678 -4.9319,1.93159 -6.55766,3.29958 -3.47863,2.92707 -15.16135,4.75711 -17.57594,2.75319 -2.1429,-1.77845 -1.37262,-5.01027 1.75769,-7.37465 3.86658,-2.92049 14.68453,-13.75115 15.80883,-15.82741 1.23947,-2.28892 1.15106,-10.54909 -0.15865,-14.82234 -1.65772,-5.40876 -3.69015,-32.03624 -2.72251,-35.66851 1.55406,-5.83354 15.67152,-13.78986 29.2932,-16.50906 4.73023,-0.94427 7.5846,-1.17293 27.10028,-2.17096 4.45515,-0.22783 9.03807,-0.91613 10.18426,-1.52956 1.14619,-0.61342 2.81998,-1.11531 3.71954,-1.11531 0.89956,0 3.66067,-1.39331 6.1358,-3.09624 3.2827,-2.25855 4.32183,-3.54367 3.84083,-4.75 -1.68515,-4.22629 -2.49146,-23.11368 -1.43668,-33.65376 0.60544,-6.05 1.35368,-14.0375 1.66275,-17.75 l 0.56195,-6.75 -2.88436,-0.15231 c -1.5864,-0.0838 -3.55937,-0.19628 -4.38437,-0.25 -0.93463,-0.0609 -1.61811,-1.32265 -1.81336,-3.34769 l -0.31336,-3.25 5.59475,0 c 4.12513,0 5.75061,-0.40619 6.18813,-1.54634 0.89651,-2.33628 11.13955,-1.75365 12.68533,0.72155 0.76093,1.21844 2.33804,1.82479 4.74629,1.82479 l 3.6067,0 1.80552,-17 c 0.99304,-9.35 2.18678,-17 2.65276,-17 1.16128,0 1.06443,2.52236 -0.65276,17 -0.81544,6.875 -1.48653,13.7375 -1.49131,15.25 -0.0101,3.20211 1.80861,3.57104 5.54276,1.12433 3.49754,-2.29167 12.14086,-1.41912 14.34407,1.44806 1.17159,1.52465 2.89933,2.1512 6.40371,2.32222 4.7091,0.22981 4.7936,0.29166 4.5,3.2948 -0.2851,2.91601 -0.5186,3.06501 -4.9427,3.15425 -3.13424,0.0632 -5.5346,0.79455 -7.3849,2.25 -1.50774,1.18599 -3.39909,2.15634 -4.203,2.15634 -1.66993,0 -1.44208,5.25185 0.6695,15.43165 0.67672,3.26241 0.99016,7.98741 0.69655,10.5 -1.40213,11.99866 -1.98788,13.91746 -3.24694,10.63641 -0.36263,-0.94501 -0.14822,-3.42413 0.47646,-5.50915 1.40298,-4.68273 1.47219,-13.04394 0.13703,-16.55567 -0.54932,-1.44482 -1.28439,-5.70017 -1.63349,-9.45632 l -0.63472,-6.82937 3.13349,-0.68823 c 3.72396,-0.81792 3.74915,-0.91366 0.97134,-3.69147 l -2.16215,-2.16215 2.65467,-2.28345 c 3.00298,-2.58306 2.69598,-2.97457 -2.55102,-3.2533 -5.2566,-0.27924 -7.4556,2.25743 -8.26041,9.52882 -0.35503,3.20773 -0.87304,7.18223 -1.15113,8.83223 -0.27809,1.65 -0.90741,7.725 -1.39848,13.5 -0.49107,5.775 -0.96393,10.95 -1.05081,11.5 -0.0869,0.55 0.1726,5.05 0.5766,10 0.75626,9.26607 2.44912,14.19328 7.00817,20.39788 1.37319,1.86884 2.49671,4.53134 2.49671,5.91667 0,1.38533 -0.16644,2.33128 -0.36986,2.10212 -0.20343,-0.22917 -2.45582,-3.4861 -5.00531,-7.23762 -4.60814,-6.7808 -4.64147,-6.89046 -5.66048,-18.62609 -0.9889,-11.38875 -0.7365,-16.76969 1.89362,-40.37008 0.8933,-8.01568 0.63385,-8.29052 -8.10797,-8.5892 -4.43675,-0.15159 -5.75,0.13343 -5.75,1.24794 0,0.79442 -0.675,1.70342 -1.5,2.02001 -1.99597,0.76592 -1.95093,6.71669 0.11177,14.7682 1.34275,5.24125 1.42303,7.43425 0.48097,13.13865 l -1.13081,6.8473 2.96052,2.96052 c 2.81348,2.81348 5.26214,11.07244 3.73546,12.59912 -0.64872,0.64872 -2.23727,-2.83349 -3.04527,-6.67542 -0.50648,-2.40822 -3.77971,-7.53912 -3.5087,-5.5 0.0731,0.55 0.0796,2.2375 0.0145,3.75 -0.15786,3.66539 -2.11844,3.54971 -2.11844,-0.125 0,-4.82923 -1.18163,-9.125 -2.50999,-9.125 -1.56165,0 -4.90535,-4.92763 -3.9606,-5.83676 0.37907,-0.36478 1.33796,0.30113 2.13086,1.47981 0.89558,1.3313 2.13678,1.96128 3.27678,1.66316 1.45947,-0.38166 1.93101,-1.74153 2.30352,-6.64305 0.25762,-3.38974 0.0969,-7.17064 -0.3571,-8.402 -0.45401,-1.23137 -1.12108,-5.124 -1.48236,-8.6503 -0.58651,-5.72468 -0.43282,-6.60328 1.43477,-8.20236 1.562,-1.33743 1.81764,-2.12106 1.00959,-3.0947 -0.79311,-0.95564 -0.64376,-1.9727 0.55929,-3.80879 1.53878,-2.34848 1.53055,-2.50586 -0.13171,-2.51867 -0.97518,-0.008 -2.67305,-0.23836 -3.77305,-0.513 -2.85014,-0.71161 -4.68569,0.82879 -4.95018,4.15419 -0.12566,1.57986 -0.4946,3.54747 -0.81987,4.37247 -0.72344,1.8349 -1.64262,9.27549 -2.77956,22.5 -0.47285,5.5 -0.93399,10.45 -1.02477,11 -0.35479,2.14961 1.40176,19.12747 2.20188,21.28216 0.819,2.20555 0.95102,2.22859 3.93296,0.68657 2.08158,-1.07642 4.11923,-1.36658 6.26253,-0.89178 1.74736,0.38709 5.53951,0.62919 8.42701,0.53799 2.8875,-0.0912 5.25,0.20909 5.25,0.66732 0,0.45822 -2.23846,0.83312 -4.97436,0.83312 -5.95213,0 -6.93712,0.71997 -4.56738,3.3385 2.45738,2.71537 1.36258,8.27826 -2.07209,10.52875 -3.23068,2.11682 -4.18436,1.3389 -1.46474,-1.1948 2.37526,-2.2129 3.97232,-8.28783 2.17882,-8.28783 -0.63236,0 -1.57748,-1.125 -2.10025,-2.5 -0.52277,-1.375 -1.65109,-2.5 -2.50737,-2.5 -3.17297,0 -8.1644,2.83188 -12.42308,7.0482 -3.53484,3.49969 -5.04325,4.32058 -7.79588,4.24255 -1.87715,-0.0532 -3.11915,0.1971 -2.76,0.55625 0.35915,0.35915 0.73906,0.428 0.84424,0.153 0.10519,-0.275 0.85519,0.0688 1.66667,0.76408 3.93026,3.3673 9.33417,6.23745 11.76983,6.25123 1.48807,0.008 3.38059,0.48746 4.20559,1.06452 1.13697,0.79527 0.61255,0.96353 -2.16682,0.6952 l -3.66682,-0.35401 1.41682,2.73983 c 0.77925,1.50691 1.41682,4.16032 1.41682,5.89648 0,2.65918 0.27579,3.02447 1.75,2.31791 0.9625,-0.4613 7.375,-0.85859 14.25,-0.88286 12.58961,-0.0444 20.31253,-1.51539 27.31923,-5.20335 1.55058,-0.81614 3.0988,-1.20434 3.44048,-0.86265 1.36527,1.36527 -2.71167,3.49068 -11.44788,5.96807 -9.67461,2.74349 -16.57809,3.24997 -22.22477,1.63052 -3.61342,-1.03632 -12.08706,0.4315 -12.08706,2.09374 0,0.48471 -0.9,0.88129 -2,0.88129 -1.1,0 -2,0.59037 -2,1.31194 0,3.01253 -6.15197,5.95483 -14.13306,6.75941 -4.30816,0.43431 -8.37263,1.12315 -9.03215,1.53075 -1.34483,0.83115 -3.0958,1.07688 -13.83479,1.94153 -9.91139,0.79801 -13,2.01481 -13,5.12153 0,1.38992 0.53281,2.32775 1.25,2.20018 0.6875,-0.12228 2.92749,0.61157 4.97776,1.63077 3.20515,1.59331 4.2566,1.68447 7.5,0.6502 24.86957,-7.93048 68.06066,-19.92172 81.77224,-22.70261 4.4,-0.89238 8.57333,-2.0964 9.27413,-2.6756 0.7008,-0.57921 1.568,-0.75933 1.927,-0.40027 1.2013,1.20126 -3.1353,3.50168 -10.20113,5.41138 l -7,1.89191 -0.5,7.91444 c -0.55402,8.7695 -2,7.87971 -2,-1.23071 l 0,-5.48157 -3.25,0.31336 -3.25,0.31336 -0.29044,8.25 c -0.36288,10.30738 -2.20956,10.93421 -2.20956,0.75 0,-4.99326 -0.38505,-7.5 -1.15205,-7.5 -1.06799,0 -17.01634,4.18536 -34.91172,9.16195 l -7.56377,2.10344 0.37871,8.61731 c 0.27298,6.21158 0.0857,8.19854 -0.67092,7.1173 -0.57729,-0.825 -1.05652,-4.56782 -1.06494,-8.31739 -0.0165,-7.33772 0.39221,-6.9468 -5.51531,-5.27548 -1.89009,0.53474 -1.98774,1.32222 -1.77686,14.32935 0.14301,8.82102 -0.10108,13.04532 -0.67972,11.76352 -0.49656,-1.1 -0.93448,-7.0625 -0.97313,-13.25 -0.0781,-12.49914 -0.093,-12.52081 -6.72453,-9.75 -4.83974,2.02217 -8.20657,1.88224 -12.11993,-0.50374 -1.80079,-1.09794 -3.44046,-1.99626 -3.6437,-1.99626 -0.20325,0 0.0613,1.9125 0.58789,4.25 0.52658,2.3375 1.11178,9.44317 1.30044,15.79037 0.28541,9.60165 0.77869,12.61252 2.93629,17.92241 2.92421,7.19654 3.33397,13.15364 1.0611,15.42651 -0.84268,0.84268 -3.20518,1.81272 -5.25,2.15564 -4.91776,0.82471 -10.44929,2.50381 -11.82539,3.5896 -1.20234,0.9487 -12.26364,4.80181 -13.89246,4.83933 -0.55,0.0127 -2.575,-0.84503 -4.5,-1.906 z m 9,-1.48839 c 2.475,-0.76939 6.525,-2.29663 9,-3.39387 2.475,-1.09724 7.11421,-2.52533 10.30936,-3.17351 8.0448,-1.63203 8.81856,-3.50984 5.44899,-13.22404 -3.59964,-10.37748 -3.92806,-12.25337 -3.81237,-21.77578 0.0706,-5.80983 -0.60759,-11.32393 -2.13617,-17.36855 -2.22118,-8.78344 -2.22344,-8.8683 -0.27471,-10.31768 1.44064,-1.07149 3.36503,-1.29082 7.2125,-0.82207 3.55763,0.43345 7.01963,0.1242 10.75,-0.96025 5.20432,-1.51294 5.50187,-1.77414 5.49263,-4.82165 -0.0118,-3.89415 -3.90243,-12.5068 -6.82297,-15.10396 -2.66626,-2.37103 -7.43838,-1.75187 -15.77122,2.04624 -9.66737,4.40639 -18.79623,13.26107 -16.87559,16.36873 0.3312,0.5359 0.99258,4.01018 1.46973,7.72064 0.47716,3.71045 1.32971,8.77128 1.89457,11.24628 1.0545,4.62042 3.52326,17.64633 4.58035,24.1673 0.55864,3.44613 0.16721,4.14905 -6.49049,11.65544 -4.25031,4.79212 -8.16317,8.25722 -9.7798,8.66065 -3.39065,0.84616 -9.19481,4.37997 -9.19481,5.59817 0,0.50514 0.85186,0.91844 1.89301,0.91844 1.04116,0 2.13958,0.64255 2.44094,1.42788 0.30136,0.78533 1.81201,1.61791 3.35699,1.85017 1.54498,0.23226 2.80906,0.48484 2.80906,0.56129 0,0.0765 2.025,-0.49049 4.5,-1.25987 z m -7,-4.07947 c -2.39399,-1.36853 -2.40806,-1.43063 -0.33179,-1.46456 2.80271,-0.0458 5.33179,0.93681 5.33179,2.07155 0,1.29404 -2.12596,1.03596 -5,-0.60699 z m 13,-5.25436 c 0,-1.24682 3.91977,-6.09215 3.96673,-4.90337 0.0183,0.46325 -0.86673,1.98644 -1.96673,3.38486 -1.1,1.39842 -2,2.08175 -2,1.51851 z m 10,-4.12367 c 0,-0.61708 0.51289,-1.12197 1.13976,-1.12197 0.62686,0 1.78013,-0.7875 2.56282,-1.75 0.93377,-1.1483 1.29666,-1.26368 1.05544,-0.33558 -0.48204,1.8546 -4.75802,4.7372 -4.75802,3.20755 z m 0.10173,-27.77103 c -2.62007,-9.79855 -3.23659,-14.28669 -2.20581,-16.05808 0.90516,-1.55553 1.04729,-1.42324 1.07367,0.9993 0.0167,1.53569 0.73334,6.19526 1.59247,10.3546 1.63935,7.93657 1.30838,11.31879 -0.46033,4.70418 z m -4.99907,-5.68285 c -1.34085,-7.6997 -1.4091,-10.40182 -0.23033,-9.11809 0.87159,0.94919 2.50216,15.45 1.73731,15.45 -0.22238,0 -0.90052,-2.84936 -1.50698,-6.33191 z m -4.68686,-22.83453 c 0.22943,-0.73346 0.68831,-2.57106 1.01973,-4.08356 0.35191,-1.60605 1.26956,-2.75 2.20597,-2.75 1.16358,0 1.32179,0.34288 0.57676,1.25 -0.56464,0.6875 -1.18224,2.33975 -1.37244,3.67167 -0.1902,1.33192 -0.90863,2.60702 -1.5965,2.83356 -0.68935,0.22703 -1.06345,-0.18664 -0.83352,-0.92167 z m 6.25087,-8.50023 c -1.40185,-1.40184 -0.58258,-2.3587 1.20185,-1.4037 1.02768,0.55 2.22483,0.67834 2.66032,0.28519 0.4355,-0.39315 0.46811,-0.15232 0.0725,0.53518 -0.77716,1.35047 -2.85887,1.6591 -3.93464,0.58333 z m 9.33333,-1.85535 c 0,-0.89488 9.31496,-6.47798 10.80799,-6.47798 0.77904,0 -0.87321,1.575 -3.67167,3.5 -4.71444,3.24296 -7.13632,4.25361 -7.13632,2.97798 z m -38,66.80517 c 1.925,-0.27957 4.91644,-1.57043 6.64765,-2.86856 1.73121,-1.29814 5.32394,-2.84796 7.98385,-3.44406 10.35021,-2.31953 11.37603,-5.83717 7.28983,-24.99751 -4.92736,-23.1046 -5.59943,-29.32781 -3.61633,-33.48642 0.91445,-1.91763 2.07735,-3.4866 2.58421,-3.4866 0.50686,0 2.76153,-1.53725 5.01038,-3.41611 2.24885,-1.87886 6.77403,-4.45732 10.05596,-5.72992 5.48543,-2.12702 5.91874,-2.51725 5.36754,-4.83389 -0.98074,-4.12195 -1.34802,-4.30239 -7.4577,-3.6638 -10.60142,1.10807 -26.23151,9.48121 -27.3694,14.66197 -0.3543,1.61312 -0.33241,3.43741 0.0486,4.05397 0.38106,0.61656 0.62061,5.39378 0.53234,10.61605 -0.1155,6.83321 0.44271,11.90279 1.99117,18.08373 1.37232,5.47783 1.9819,10.35541 1.68298,13.46638 -0.42762,4.45022 -1.07262,5.48548 -7.35991,11.81289 -3.79016,3.81436 -7.38397,6.93824 -7.98622,6.94196 -0.60226,0.004 -1.92703,0.92614 -2.94394,2.0498 -1.62054,1.79068 -1.63968,1.96275 -0.15498,1.39302 0.96323,-0.36963 1.69393,-0.17251 1.69393,0.45696 0,0.60885 -0.675,1.10699 -1.5,1.10699 -0.825,0 -1.5,0.375 -1.5,0.83333 0,1.59604 1.46258,2.27809 3.47457,1.62031 1.11399,-0.3642 3.60043,-0.89092 5.52543,-1.17049 z m 7,-9.95385 c 0,-1.27732 3.83833,-4.8243 4.50219,-4.16045 0.26946,0.26946 -0.6333,1.54515 -2.00613,2.83485 -1.37283,1.28971 -2.49606,1.88623 -2.49606,1.3256 z m 11.64332,-3.8068 c 1.37639,-2.46263 2.21815,-4.93763 1.87058,-5.5 -0.34756,-0.56238 -0.15538,-1.0225 0.42708,-1.0225 1.7165,0 1.20711,4.24486 -0.93002,7.75 -3.01949,4.95233 -4.2196,3.8752 -1.36764,-1.2275 z m -8.01138,-48.61278 c -0.34757,-1.73785 -0.61763,-4.34097 -0.60014,-5.78472 0.0303,-2.50201 0.0994,-2.53572 1.47397,-0.71948 0.87764,1.15963 1.26759,3.26895 0.9962,5.38866 -0.59269,4.62923 -1.10604,4.93547 -1.87003,1.11554 z m 6.34029,-9.24608 c -2.48429,-1.24912 -3.83902,-3.66364 -2.05556,-3.66364 0.59583,0 1.08333,0.43713 1.08333,0.97141 0,0.53427 1.45096,1.34739 3.22435,1.80692 2.27536,0.5896 2.759,1.01408 1.64326,1.44223 -0.86959,0.3337 -2.62251,0.0831 -3.89538,-0.55692 z m 47.02777,11.83636 c 2.3383,-0.825 5.81437,-1.5 7.7246,-1.5 4.79916,0 9.35692,-2.39401 12.0254,-6.31645 2.796,-4.10988 2.81191,-5.89135 0.1026,-11.48804 -1.76741,-3.65099 -3.09742,-4.85609 -7.51611,-6.81024 -6.37866,-2.82095 -18.56388,-4.27137 -20.73646,-2.46829 -0.96279,0.79905 -3.40268,0.9997 -7.30325,0.6006 l -5.85743,-0.59933 0.37786,3.96218 c 0.36639,3.84195 0.47489,3.94643 3.57574,3.44323 2.76397,-0.44853 3.68354,0.0186 6.77689,3.44258 3.92418,4.34359 7.30271,12.98143 6.57218,16.80296 -0.25557,1.33694 -0.35866,2.4308 -0.22908,2.4308 0.12959,0 2.14876,-0.675 4.48706,-1.5 z m 4,-15.77695 c 0,-2.57402 -4.25737,-4.79091 -10.42254,-5.42721 -3.58676,-0.37019 -5.57746,-1.0356 -5.57746,-1.86431 0,-1.84137 2.84582,-4.43742 4.82143,-4.39826 1.39112,0.0276 1.30241,0.3473 -0.51801,1.86704 l -2.19658,1.83376 4.96723,0.5883 c 8.55612,1.01334 13.25004,4.75352 10.01971,7.98385 -0.79171,0.79171 -1.09378,0.63065 -1.09378,-0.58317 z m -1.5,-7.21274 c -1.65,-0.74898 -3.85191,-1.63079 -4.89313,-1.95958 -1.04122,-0.32879 -1.65846,-0.83248 -1.37164,-1.1193 0.87001,-0.87001 9.62371,1.69367 10.85698,3.17967 1.5086,1.81775 -0.46089,1.77453 -4.59221,-0.10079 z m 8.5,0.48969 c 0,-0.55 0.19844,-1 0.44098,-1 0.24254,0 0.7191,0.45 1.05902,1 0.33992,0.55 0.14148,1 -0.44098,1 -0.58246,0 -1.05902,-0.45 -1.05902,-1 z m 64.00003,-76.99036 c 0,-1.18029 -3.23588,-1.77541 -6.80513,-1.25155 -4.35168,0.63869 -4.03104,2.04954 0.5551,2.44248 4.19295,0.35926 6.25003,-0.0327 6.25003,-1.19093 z m -24.00003,-1.88043 c 0,-0.47893 -3.14904,-1.18109 -6.99786,-1.56034 -7.17133,-0.70665 -10.40522,-0.0726 -7.8589,1.54082 1.78131,1.12869 14.85676,1.14587 14.85676,0.0195 z m -28.25,-1.87921 c 0.28732,-0.86195 -0.83264,-1.25 -3.60765,-1.25 -3.74284,0 -6.43239,1.40332 -4.14858,2.16459 2.42838,0.80946 7.37602,0.22605 7.75623,-0.91459 z m 11.25,88.66891 c 0,-0.46124 1.9125,-1.3943 4.25,-2.07345 2.3375,-0.67916 5.95374,-2.28812 8.0361,-3.57548 3.32483,-2.05548 3.60765,-2.51909 2.32143,-3.80531 -0.80557,-0.80557 -2.36001,-1.46467 -3.45431,-1.46467 -2.65413,0 -5.15322,-1.0098 -5.15322,-2.08224 0,-0.47754 1.15429,-0.4294 2.5651,0.10699 1.4108,0.53639 2.9858,0.97525 3.5,0.97525 1.71534,0 0.96229,-1.51337 -1.25041,-2.51287 -1.20192,-0.54292 -2.38948,-1.62482 -2.63903,-2.40422 -0.29674,-0.9268 0.62998,-0.64543 2.67848,0.81323 1.72272,1.22668 3.63349,1.92052 4.24617,1.54187 0.75842,-0.46873 0.89156,0.0122 0.41716,1.50693 -0.54247,1.70919 -0.234,2.31643 1.39287,2.74186 1.14931,0.30056 2.06403,0.83148 2.03271,1.17983 -0.0313,0.34835 -2.20567,2.26829 -4.83188,4.26653 -4.48064,3.40923 -14.11117,6.67539 -14.11117,4.78575 z m 41.50163,-3.91621 c -0.3408,-0.55148 -0.1227,-1.0027 0.4848,-1.0027 0.6075,0 2.209,-1.10455 3.559,-2.45455 2.0524,-2.05235 2.4546,-3.42302 2.4546,-8.36514 0,-7.16532 -2.2256,-10.5684 -8.0537,-12.31453 -4.75047,-1.42328 -5.3167,-3.3177 -0.69633,-2.32977 4.90563,1.04893 8.75043,3.65128 9.53513,6.45391 0.3866,1.38055 0.7056,5.27534 0.7088,8.65509 0,4.73592 -0.45,6.64894 -1.9827,8.34263 -2.7106,2.99513 -5.2381,4.26324 -6.0096,3.01506 z m -37.50163,-5.5027 c -1.59557,-1.92255 0.0323,-1.94278 2.55887,-0.0318 1.63076,1.23344 1.68089,1.47328 0.31357,1.5 -0.89515,0.0175 -2.18775,-0.6432 -2.87244,-1.4682 z m 33,-2.13197 c 0,-1.99758 -0.84523,-5.03508 -1.87829,-6.75 -1.03305,-1.71491 -2.18989,-6.01445 -2.57075,-9.55452 -0.38086,-3.54006 -1.36881,-7.74438 -2.19545,-9.34292 -1.94055,-3.75262 -0.78294,-4.93074 1.67595,-1.70565 1.79456,2.35377 2.58774,5.75592 3.30383,14.1711 0.17251,2.02733 0.81662,4.29207 1.43135,5.03277 1.99882,2.40843 3.25059,6.86455 2.62659,9.35059 -0.91845,3.65936 -2.39323,2.91904 -2.39323,-1.20137 z m -45.5,1.63197 c -0.33992,-0.55 0.057,-1 0.88197,-1 0.825,0 1.77811,0.45 2.11803,1 0.33992,0.55 -0.057,1 -0.88197,1 -0.825,0 -1.77811,-0.45 -2.11803,-1 z m 0,-5.61049 c -1.95876,-1.51499 -1.95006,-1.54011 0.42167,-1.2182 1.33192,0.18078 2.60692,0.89119 2.83334,1.57869 0.55267,1.67817 -0.81502,1.5267 -3.25501,-0.36049 z m -7,-3.38951 c -0.33992,-0.55 0.057,-1 0.88197,-1 0.825,0 1.77811,0.45 2.11803,1 0.33992,0.55 -0.057,1 -0.88197,1 -0.825,0 -1.77811,-0.45 -2.11803,-1 z m 7.58638,-1.90297 c 2.28252,-3.08727 3.65038,-3.45939 2.59365,-0.70557 -0.31188,0.81274 -1.53414,1.99528 -2.71613,2.62786 -2.13124,1.14061 -2.13023,1.12467 0.12248,-1.92229 z m 31.08793,0.58852 c -2.53825,-2.70185 -2.80991,-5.91316 -0.65173,-7.70429 1.82386,-1.51367 1.12258,-4.52505 -1.79667,-7.71512 -1.97437,-2.15754 -1.98605,-2.36286 -0.34167,-6.00943 0.9364,-2.07656 1.77737,-5.65206 1.86883,-7.94556 0.0915,-2.29351 0.52193,-3.95021 0.95661,-3.68156 1.1167,0.69016 0.97104,7.17951 -0.26071,11.61478 -0.92123,3.31716 -0.73053,4.27222 1.67132,8.37068 l 2.7112,4.62631 -2.40309,1.81265 -2.4031,1.81266 2.23735,3.02617 c 1.23054,1.6644 2.23735,3.2694 2.23735,3.56667 0,1.22499 -1.78659,0.39656 -3.82569,-1.77396 z m -13.92431,-0.34783 c -0.6875,-0.27741 -1.25,-0.87476 -1.25,-1.32743 0,-1.02195 3.83152,-0.0919 4.5746,1.11042 0.57812,0.93542 -1.24868,1.05466 -3.3246,0.21701 z m -13.69735,-13.0145 c -0.3855,-1.55277 -1.68005,-3.88436 -2.87678,-5.18131 -1.96661,-2.1313 -1.99729,-2.32365 -0.31901,-2 2.60682,0.50272 6.50348,7.39775 5.01945,8.88179 -0.83032,0.83031 -1.3053,0.38741 -1.82366,-1.70048 z"
       id="path3142"
       inkscape:connector-curvature="0" />
  </g>
</svg>
