<?xml version="1.0" encoding="UTF-8" standalone="no"?>
<!-- Created with Inkscape (http://www.inkscape.org/) -->

<svg
   xmlns:dc="http://purl.org/dc/elements/1.1/"
   xmlns:cc="http://creativecommons.org/ns#"
   xmlns:rdf="http://www.w3.org/1999/02/22-rdf-syntax-ns#"
   xmlns:svg="http://www.w3.org/2000/svg"
   xmlns="http://www.w3.org/2000/svg"
   xmlns:xlink="http://www.w3.org/1999/xlink"
   xmlns:sodipodi="http://sodipodi.sourceforge.net/DTD/sodipodi-0.dtd"
   xmlns:inkscape="http://www.inkscape.org/namespaces/inkscape"
   width="167.31682"
   height="215.974"
   id="svg2"
   version="1.1"
   inkscape:version="0.48.3.1 r9886"
   sodipodi:docname="High-cable-curls-1.svg">
  <defs
     id="defs4">
    <radialGradient
       gradientUnits="userSpaceOnUse"
       gradientTransform="matrix(1,0,0,0.91819829,-19.285714,-7.9105395)"
       r="209.56604"
       fy="287.50052"
       fx="398.1105"
       cy="287.50052"
       cx="398.1105"
       id="radialGradient5255"
       xlink:href="#linearGradient5249"
       inkscape:collect="always" />
    <linearGradient
       id="linearGradient5249"
       inkscape:collect="always">
      <stop
         id="stop5251"
         offset="0"
         style="stop-color:#e3e3e3;stop-opacity:1;" />
      <stop
         id="stop5253"
         offset="1"
         style="stop-color:#e3e3e3;stop-opacity:0;" />
    </linearGradient>
  </defs>
  <sodipodi:namedview
     id="base"
     pagecolor="#ffffff"
     bordercolor="#666666"
     borderopacity="1.0"
     inkscape:pageopacity="0.0"
     inkscape:pageshadow="2"
     inkscape:zoom="1.4"
     inkscape:cx="-173.33157"
     inkscape:cy="39.12592"
     inkscape:document-units="px"
     inkscape:current-layer="layer1"
     showgrid="false"
     showguides="true"
     inkscape:guide-bbox="true"
     fit-margin-top="0"
     fit-margin-left="0"
     fit-margin-right="0"
     fit-margin-bottom="0"
     inkscape:window-width="1112"
     inkscape:window-height="691"
     inkscape:window-x="65"
     inkscape:window-y="328"
     inkscape:window-maximized="0">
    <sodipodi:guide
       orientation="-0.70710678,0.70710678"
       position="-2234.6339,428.69351"
       id="guide2985" />
  </sodipodi:namedview>
  <metadata
     id="metadata7">
    <rdf:RDF>
      <cc:Work
         rdf:about="">
        <dc:format>image/svg+xml</dc:format>
        <dc:type
           rdf:resource="http://purl.org/dc/dcmitype/StillImage" />
        <dc:title></dc:title>
      </cc:Work>
    </rdf:RDF>
  </metadata>
  <g
     inkscape:label="Ebene 1"
     inkscape:groupmode="layer"
     id="layer1"
     transform="translate(-806.06253,-239.36741)">
    <path
       style="fill:#000000"
       d="m 823.75238,453.34598 c -1.925,-1.06096 -4.53061,-2.40601 -5.79024,-2.98899 -1.873,-0.86686 -2.10303,-1.40977 -1.26265,-2.98004 1.1724,-2.19066 7.07935,-6.09883 9.21798,-6.09883 0.78596,0 3.15312,-1.76564 5.26035,-3.92365 l 3.83134,-3.92364 -3.60174,0.81232 c -1.98095,0.44678 -4.9319,1.93159 -6.55766,3.29958 -3.47863,2.92707 -15.16135,4.75711 -17.57594,2.75319 -2.1429,-1.77845 -1.37262,-5.01027 1.75769,-7.37465 3.86658,-2.92049 14.68453,-13.75115 15.80883,-15.82741 1.23947,-2.28892 1.15106,-10.54909 -0.15865,-14.82234 -1.65772,-5.40876 -3.69015,-32.03624 -2.72251,-35.66851 1.55406,-5.83354 15.67152,-13.78986 29.2932,-16.50906 4.73023,-0.94427 7.5846,-1.17293 27.10028,-2.17096 4.45515,-0.22783 9.03807,-0.91613 10.18426,-1.52956 1.14619,-0.61342 2.90106,-1.12647 3.89972,-1.1401 0.99866,-0.0136 3.99744,-1.62508 6.66396,-3.581 l 4.84822,-3.5562 -1.95397,-2.16901 c -5.0764,-5.63503 -9.20171,-18.00813 -7.23149,-21.68952 0.8615,-1.60973 2.03346,-1.95901 6.2742,-1.86991 l 5.21482,0.10956 -4.26536,0.84091 c -5.62694,1.10935 -6.52233,1.76199 -5.9092,4.30718 1.29245,5.36513 5.49479,14.89746 7.41338,16.81604 1.85723,1.85723 2.4748,1.9709 5.00783,0.92168 2.0239,-0.83833 4.14197,-0.91536 7.07135,-0.25717 2.3001,0.5168 4.182,0.81413 4.182,0.66074 0,-1.96267 -3.32082,-7.07899 -5.53932,-8.5343 l -2.8559,-1.87345 2.69761,-1.02563 c 1.95909,-0.74484 2.69761,-1.72542 2.69761,-3.58176 0,-1.40588 0.675,-2.81516 1.5,-3.13174 2.30326,-0.88385 1.80527,-1.80793 -1.68406,-3.125 -1.75123,-0.66102 -2.90728,-1.47862 -2.569,-1.8169 0.33828,-0.33829 3.00861,0.26876 5.93406,1.349 3.19819,1.18094 7.98673,1.99064 12.00967,2.03073 3.67986,0.0367 7.61736,0.56262 8.75,1.16879 l 2.05933,1.10212 0,-34.03519 c 0,-21.72162 0.35704,-34.03518 0.98687,-34.03518 0.62483,0 1.0834,12.56482 1.25,34.25 l 0.26313,34.25 6.61451,0.65426 c 7.82571,0.77405 12.61841,2.97538 13.06449,6.00061 0.20894,1.41697 1.4402,2.5554 3.52692,3.26103 4.17363,1.41133 5.51605,2.84207 4.68896,4.99745 -0.48429,1.26204 -1.25769,1.55058 -2.78279,1.03822 -1.16165,-0.39026 -5.57787,-0.98901 -9.81383,-1.33056 -4.23596,-0.34156 -8.26346,-1.18351 -8.95,-1.87101 -1.54434,-1.54649 -4.97287,-1.60598 -8.18589,-0.14203 -2.2631,1.03114 -2.33613,1.29119 -1.05321,3.75 0.75818,1.45312 1.38437,3.31703 1.39151,4.14203 0.007,0.825 1.60894,2.58696 3.55954,3.91548 3.58343,2.4406 6.3275,6.08452 4.58196,6.08452 -0.5105,0 -1.16507,-0.6173 -1.45459,-1.37178 -0.28953,-0.75448 -2.58633,-2.36898 -5.10402,-3.58777 -3.99299,-1.93297 -4.49987,-2.5257 -3.96895,-4.64109 0.48392,-1.92808 -0.14757,-3.11779 -3.08118,-5.80488 -2.23212,-2.04454 -3.26451,-3.64265 -2.61321,-4.04518 0.59216,-0.36597 4.20907,-0.92801 8.03759,-1.24898 5.49209,-0.46044 7.48961,-0.23718 9.46638,1.05805 3.37698,2.21268 4.25048,2.07398 4.96905,-0.78904 0.37059,-1.47653 1.49262,-2.58663 2.85841,-2.82798 2.01365,-0.35585 1.883,-0.55864 -1.25165,-1.94264 -1.925,-0.84992 -6.2,-1.83722 -9.5,-2.19399 -3.3,-0.35677 -8.20902,-1.31379 -10.90893,-2.1267 -5.59462,-1.68447 -14.25935,-1.93484 -17.98176,-0.51958 -2.32318,0.88327 -2.49744,1.38131 -2.22179,6.34988 0.4542,8.18716 7.45203,20.78866 14.64171,26.3664 3.00892,2.33432 6.48327,4.26246 7.72077,4.28475 1.27297,0.0229 2.25,0.66587 2.25,1.48062 0,1.63927 -4.63279,1.67857 -5.78964,0.0491 -1.30805,-1.84244 -8.21036,-6.60283 -8.21036,-5.66253 0,0.51065 0.68272,1.49506 1.51715,2.18758 2.39208,1.98524 -5.44134,8.50802 -11.70484,9.74647 -5.94655,1.17578 -6.36895,-0.23956 -0.56231,-1.88411 2.3375,-0.66202 4.78008,-1.69259 5.42795,-2.29014 1.67754,-1.54725 0.45667,-6.40896 -1.78834,-7.1215 -1.03929,-0.32985 -1.88961,-1.00827 -1.88961,-1.5076 0,-0.5263 1.07807,-0.49798 2.5651,0.0674 3.40758,1.29556 4.12174,1.23372 4.75309,-0.41157 0.3603,-0.93891 -0.0314,-1.23943 -1.21286,-0.93047 -0.95978,0.25098 -2.38861,-0.32362 -3.17519,-1.27691 -1.316,-1.59491 -1.25057,-1.63756 0.81986,-0.53434 2.44322,1.30187 3.08445,0.066 0.90447,-1.74326 -0.74004,-0.61418 -2.15839,-2.91928 -3.15188,-5.12245 -1.16241,-2.57777 -2.46517,-4.00576 -3.65446,-4.00576 -2.2736,0 -2.33271,0.80707 -0.22934,3.13127 2.29908,2.54044 1.08295,8.17891 -2.23262,10.35136 -3.23068,2.11682 -4.18436,1.3389 -1.46474,-1.1948 2.37526,-2.2129 3.97232,-8.28783 2.17882,-8.28783 -0.63236,0 -1.57748,-1.125 -2.10025,-2.5 -0.52277,-1.375 -1.65109,-2.5 -2.50737,-2.5 -3.17297,0 -8.1644,2.83188 -12.42308,7.0482 -3.53484,3.49969 -5.04325,4.32058 -7.79588,4.24255 -1.87715,-0.0532 -3.11915,0.1971 -2.76,0.55625 0.35915,0.35915 0.73906,0.428 0.84424,0.153 0.10519,-0.275 0.85519,0.0688 1.66667,0.76408 3.93026,3.3673 9.33417,6.23745 11.76983,6.25123 1.48807,0.008 3.38059,0.48746 4.20559,1.06452 1.13697,0.79527 0.61255,0.96353 -2.16682,0.6952 l -3.66682,-0.35401 1.41682,2.73983 c 0.77925,1.50691 1.41682,4.16032 1.41682,5.89648 0,2.65574 0.2777,3.02499 1.75,2.32695 0.9625,-0.45634 7.6,-0.86209 14.75,-0.90167 9.94984,-0.0551 13.90851,-0.47209 16.87212,-1.77729 2.12967,-0.93793 4.76021,-1.70532 5.84563,-1.70532 3.80418,0 7.73373,-3.84438 8.43923,-8.25631 0.59339,-3.7109 0.7451,-3.88905 1.52243,-1.78773 0.47485,1.28365 0.59842,3.16868 0.27459,4.18897 -0.8862,2.79218 3.09123,2.40075 6.09145,-0.59948 2.04403,-2.04402 2.45455,-3.42843 2.45455,-8.27749 0,-3.7649 -0.57635,-6.6458 -1.63069,-8.15109 -2.01477,-2.87649 -7.17176,-5.11687 -11.77817,-5.11687 -1.91021,0 -3.75122,-0.45 -4.09114,-1 -0.77199,-1.2491 4.61274,-1.27407 9.90748,-0.0459 2.14911,0.49849 5.04592,2.0448 6.43736,3.43623 2.24893,2.24894 2.53684,3.37577 2.59252,10.1469 0.0609,7.40223 -0.0314,7.70116 -3.27097,10.60053 -2.11009,1.88848 -4.18468,2.87197 -5.65246,2.67963 -1.27536,-0.16713 -3.15024,0.42819 -4.16639,1.32293 -2.60346,2.2924 -19.27705,6.85972 -25.04232,6.85972 -2.65013,0 -6.34831,-0.43876 -8.21816,-0.97503 -3.61342,-1.03632 -12.08706,0.4315 -12.08706,2.09374 0,0.48471 -0.9,0.88129 -2,0.88129 -1.1,0 -2,0.59037 -2,1.31194 0,3.01253 -6.15197,5.95483 -14.13306,6.75941 -4.30816,0.43431 -8.37263,1.12315 -9.03215,1.53075 -1.34483,0.83115 -3.0958,1.07688 -13.83479,1.94153 -9.91139,0.79801 -13,2.01481 -13,5.12153 0,1.38992 0.53281,2.32775 1.25,2.20018 0.6875,-0.12228 2.92749,0.61157 4.97776,1.63077 3.20515,1.59331 4.2566,1.68447 7.5,0.6502 24.86957,-7.93048 68.06066,-19.92172 81.77224,-22.70261 4.4,-0.89238 8.57337,-2.0964 9.27417,-2.6756 0.70079,-0.57921 1.56794,-0.75933 1.927,-0.40027 1.20125,1.20126 -3.13534,3.50168 -10.20117,5.41138 l -7,1.89191 -0.5,7.91444 c -0.55402,8.7695 -2,7.87971 -2,-1.23071 l 0,-5.48157 -3.25,0.31336 -3.25,0.31336 -0.29044,8.25 c -0.36288,10.30738 -2.20956,10.93421 -2.20956,0.75 0,-4.99326 -0.38505,-7.5 -1.15205,-7.5 -1.06799,0 -17.01634,4.18536 -34.91172,9.16195 l -7.56377,2.10344 0.37871,8.61731 c 0.27298,6.21158 0.0857,8.19854 -0.67092,7.1173 -0.57729,-0.825 -1.05652,-4.56782 -1.06494,-8.31739 -0.0165,-7.33772 0.39221,-6.9468 -5.51531,-5.27548 -1.89009,0.53474 -1.98774,1.32222 -1.77686,14.32935 0.14301,8.82102 -0.10108,13.04532 -0.67972,11.76352 -0.49657,-1.1 -0.93448,-7.0625 -0.97313,-13.25 -0.0781,-12.49914 -0.093,-12.52081 -6.72453,-9.75 -4.83974,2.02217 -8.20657,1.88224 -12.11993,-0.50374 -1.80079,-1.09794 -3.44046,-1.99626 -3.6437,-1.99626 -0.20325,0 0.0613,1.9125 0.58789,4.25 0.52658,2.3375 1.11178,9.44317 1.30044,15.79037 0.28541,9.60165 0.77869,12.61252 2.93629,17.92241 3.07643,7.57114 3.3517,13.04085 0.77373,15.37389 -1.00074,0.90566 -4.21966,2.10182 -7.15315,2.65815 -2.9335,0.55632 -6.72721,1.72712 -8.43048,2.60176 -3.38557,1.73852 -13.49808,5.34045 -15.09685,5.37728 -0.55,0.0127 -2.575,-0.84503 -4.5,-1.906 z m 9,-1.48839 c 2.475,-0.76939 6.525,-2.29663 9,-3.39387 2.475,-1.09724 7.11421,-2.52533 10.30936,-3.17351 8.0448,-1.63203 8.81856,-3.50984 5.44899,-13.22404 -3.59964,-10.37748 -3.92806,-12.25337 -3.81237,-21.77578 0.0706,-5.80983 -0.60759,-11.32393 -2.13617,-17.36855 -2.22118,-8.78344 -2.22344,-8.8683 -0.27471,-10.31768 1.44064,-1.07149 3.36503,-1.29082 7.2125,-0.82207 3.55763,0.43345 7.01963,0.1242 10.75,-0.96025 5.20432,-1.51294 5.50187,-1.77414 5.49263,-4.82165 -0.0118,-3.89415 -3.90243,-12.5068 -6.82297,-15.10396 -2.66626,-2.37103 -7.43838,-1.75187 -15.77122,2.04624 -9.66737,4.40639 -18.79623,13.26107 -16.87559,16.36873 0.3312,0.5359 0.99258,4.01018 1.46973,7.72064 0.47716,3.71045 1.32971,8.77128 1.89457,11.24628 1.0545,4.62042 3.52326,17.64633 4.58035,24.1673 0.55864,3.44613 0.16721,4.14905 -6.49049,11.65544 -4.25031,4.79212 -8.16317,8.25722 -9.7798,8.66065 -3.39065,0.84616 -9.19481,4.37997 -9.19481,5.59817 0,0.50514 0.85186,0.91844 1.89301,0.91844 1.04116,0 2.13864,0.6401 2.43885,1.42244 0.30021,0.78234 1.58586,1.62105 2.85699,1.86381 1.27113,0.24276 2.53615,0.4978 2.81115,0.56674 0.275,0.069 2.525,-0.50414 5,-1.27352 z m -7,-4.07947 c -2.39399,-1.36853 -2.40806,-1.43063 -0.33179,-1.46456 2.8027,-0.0458 5.33179,0.93681 5.33179,2.07155 0,1.29404 -2.12596,1.03596 -5,-0.60699 z m 13,-5.25436 c 0,-1.24682 3.91977,-6.09215 3.96673,-4.90337 0.0183,0.46325 -0.86673,1.98644 -1.96673,3.38486 -1.1,1.39842 -2,2.08175 -2,1.51851 z m 10,-4.12367 c 0,-0.61708 0.51289,-1.12197 1.13976,-1.12197 0.62686,0 1.78013,-0.7875 2.56282,-1.75 0.93377,-1.1483 1.29666,-1.26368 1.05544,-0.33558 -0.48204,1.8546 -4.75802,4.7372 -4.75802,3.20755 z m 0.11089,-27.77103 c -2.12537,-8.01974 -2.93811,-12.65184 -2.56227,-14.60339 0.60661,-3.14989 1.45138,-3.36645 1.45138,-0.37206 0,1.48986 0.70293,6.11193 1.56206,10.27127 1.63633,7.92196 1.30822,11.34298 -0.45118,4.70418 z m -5.00823,-5.68285 c -1.34085,-7.6997 -1.4091,-10.40182 -0.23033,-9.11809 0.87159,0.94919 2.50216,15.45 1.73731,15.45 -0.22238,0 -0.90052,-2.84936 -1.50698,-6.33191 z m -4.68686,-22.83453 c 0.22943,-0.73346 0.68831,-2.57106 1.01973,-4.08356 0.35191,-1.60605 1.26956,-2.75 2.20597,-2.75 1.16358,0 1.32179,0.34288 0.57676,1.25 -0.56464,0.6875 -1.18224,2.33975 -1.37244,3.67167 -0.1902,1.33192 -0.90863,2.60702 -1.5965,2.83356 -0.68935,0.22703 -1.06345,-0.18664 -0.83352,-0.92167 z m 6.25087,-8.50023 c -1.40185,-1.40184 -0.58258,-2.3587 1.20185,-1.4037 1.02768,0.55 2.22483,0.67834 2.66032,0.28519 0.4355,-0.39315 0.46811,-0.15232 0.0725,0.53518 -0.77716,1.35047 -2.85887,1.6591 -3.93464,0.58333 z m 9.33333,-1.85535 c 0,-0.89488 9.31496,-6.47798 10.80799,-6.47798 0.77904,0 -0.87321,1.575 -3.67167,3.5 -4.71444,3.24296 -7.13632,4.25361 -7.13632,2.97798 z m -38,66.80517 c 1.925,-0.27957 4.91644,-1.57043 6.64765,-2.86856 1.73121,-1.29814 5.32394,-2.84796 7.98385,-3.44406 10.35021,-2.31953 11.37603,-5.83717 7.28983,-24.99751 -4.92736,-23.1046 -5.59943,-29.32781 -3.61633,-33.48642 0.91445,-1.91763 2.07735,-3.4866 2.58421,-3.4866 0.50686,0 2.76153,-1.53725 5.01038,-3.41611 2.24885,-1.87886 6.77403,-4.45732 10.05596,-5.72992 5.48543,-2.12702 5.91874,-2.51725 5.36754,-4.83389 -0.98074,-4.12195 -1.34802,-4.30239 -7.4577,-3.6638 -9.19545,0.96112 -26.70059,9.70195 -26.99517,13.47949 -0.68464,8.77946 0.53268,26.8491 2.29688,34.09457 1.27748,5.24655 1.8757,10.27245 1.58402,13.30804 -0.42761,4.45022 -1.07262,5.48548 -7.3599,11.81289 -3.79017,3.81436 -7.38398,6.93824 -7.98623,6.94196 -0.60226,0.004 -1.92703,0.92614 -2.94394,2.0498 -1.62054,1.79068 -1.63968,1.96275 -0.15498,1.39302 0.96323,-0.36963 1.69393,-0.17251 1.69393,0.45696 0,0.60885 -0.675,1.10699 -1.5,1.10699 -0.825,0 -1.5,0.375 -1.5,0.83333 0,1.59604 1.46258,2.27809 3.47457,1.62031 1.11399,-0.3642 3.60043,-0.89092 5.52543,-1.17049 z m 7,-9.95385 c 0,-1.27732 3.83833,-4.8243 4.50219,-4.16045 0.26946,0.26946 -0.6333,1.54515 -2.00613,2.83485 -1.37283,1.28971 -2.49606,1.88623 -2.49606,1.3256 z m 11.64332,-3.8068 c 1.37639,-2.46263 2.21815,-4.93763 1.87058,-5.5 -0.34756,-0.56238 -0.15538,-1.0225 0.42708,-1.0225 1.7165,0 1.20711,4.24486 -0.93002,7.75 -3.01949,4.95233 -4.2196,3.8752 -1.36764,-1.2275 z m -7.70551,-46.60583 c -0.0342,-0.77917 -0.26516,-3.44167 -0.51324,-5.91667 -0.41423,-4.13268 -0.32965,-4.34446 1.03616,-2.59448 0.92569,1.18607 1.31882,3.22061 1.04124,5.38866 -0.46289,3.61546 -1.45553,5.59703 -1.56416,3.12249 z m 6.41452,-10.96401 c -2.44028,-0.9232 -3.86997,-2.76835 -2.89809,-3.74023 0.35998,-0.35998 0.98024,-0.12746 1.37836,0.51672 0.39813,0.64417 1.80059,1.56953 3.1166,2.05635 1.31601,0.48683 1.9783,1.13141 1.47177,1.4324 -0.50653,0.301 -1.88742,0.18164 -3.06864,-0.26524 z m 46.64767,11.54734 c 2.3383,-0.825 5.81437,-1.5 7.7246,-1.5 4.79916,0 9.35692,-2.39401 12.0254,-6.31645 2.796,-4.10988 2.81191,-5.89135 0.1026,-11.48804 -1.76741,-3.65099 -3.09742,-4.85609 -7.51611,-6.81024 -6.37866,-2.82095 -18.56388,-4.27137 -20.73646,-2.46829 -0.96279,0.79905 -3.40268,0.9997 -7.30325,0.6006 l -5.85743,-0.59933 0.37786,3.96218 c 0.36639,3.84195 0.47489,3.94643 3.57574,3.44323 2.76397,-0.44853 3.68353,0.0186 6.77689,3.44258 3.92418,4.34359 7.30271,12.98143 6.57218,16.80296 -0.25557,1.33694 -0.35866,2.4308 -0.22907,2.4308 0.12958,0 2.14875,-0.675 4.48705,-1.5 z m 4,-15.77695 c 0,-2.57402 -4.25737,-4.79091 -10.42254,-5.42721 -3.58676,-0.37019 -5.57746,-1.0356 -5.57746,-1.86431 0,-1.84137 2.84582,-4.43742 4.82143,-4.39826 1.39112,0.0276 1.30241,0.3473 -0.51801,1.86704 l -2.19658,1.83376 4.96723,0.5883 c 8.55612,1.01334 13.25004,4.75352 10.01971,7.98385 -0.79171,0.79171 -1.09378,0.63065 -1.09378,-0.58317 z m -1.5,-7.21274 c -1.65,-0.74898 -3.85191,-1.63079 -4.89313,-1.95958 -1.04122,-0.32879 -1.65846,-0.83248 -1.37164,-1.1193 0.87001,-0.87001 9.62371,1.69367 10.85698,3.17967 1.5086,1.81775 -0.46089,1.77453 -4.59221,-0.10079 z m 46.0791,-1.07407 c -1.81452,-1.81452 -2.5791,-1.82032 -2.5791,-0.0196 0,1.4848 1.96031,2.61888 3.25767,1.88463 0.41672,-0.23585 0.11136,-1.07512 -0.67857,-1.86506 z m 41.4209,-22.98727 c 0,-0.76325 -6.59396,-3.44897 -8.46788,-3.44897 -2.75375,0 -1.60853,1.92075 1.71788,2.88122 3.80767,1.09942 6.75,1.34691 6.75,0.56775 z m -56.03579,25.38668 c -1.14512,-2.23286 -1.1183,-2.25968 0.60945,-0.60946 0.99401,0.94941 1.53304,2.00045 1.19784,2.33565 -0.3352,0.3352 -1.14849,-0.44159 -1.80729,-1.72619 z m -5.46421,-1.61678 c -2.88488,-0.59572 -4.3242,-2.2222 -1.95,-2.20356 2.06309,0.0162 5.21844,1.61938 4.42104,2.24625 -0.25907,0.20367 -1.37104,0.18445 -2.47104,-0.0427 z m 9.05887,-0.75067 c -1.46624,-1.10901 -1.57416,-1.4682 -0.44113,-1.4682 0.825,0 2.37351,0.66069 3.44113,1.4682 1.46624,1.109 1.57416,1.46819 0.44113,1.46819 -0.825,0 -2.37351,-0.66069 -3.44113,-1.46819 z m 24.44113,-2.8432 c 0,-0.75625 -0.22932,-2.89375 -0.5096,-4.75 l -0.5096,-3.375 1.46449,3 c 1.71685,3.51694 1.97143,6.5 0.55471,6.5 -0.55,0 -1,-0.61875 -1,-1.375 z m -36.5,-3.23549 c -1.95876,-1.51499 -1.95006,-1.54011 0.42167,-1.2182 1.33192,0.18078 2.60692,0.89119 2.83334,1.57869 0.55267,1.67817 -0.81502,1.5267 -3.25501,-0.36049 z m -7,-3.38951 c -0.33992,-0.55 0.057,-1 0.88197,-1 0.825,0 1.77811,0.45 2.11803,1 0.33992,0.55 -0.057,1 -0.88197,1 -0.825,0 -1.77811,-0.45 -2.11803,-1 z m 7.58638,-1.90297 c 2.28252,-3.08727 3.65038,-3.45939 2.59365,-0.70557 -0.31188,0.81274 -1.53414,1.99528 -2.71613,2.62786 -2.13124,1.14061 -2.13023,1.12467 0.12248,-1.92229 z m 25.9244,-0.58404 c -0.67988,-0.81921 -0.96446,-2.56142 -0.63366,-3.87941 0.40222,-1.60257 -0.0801,-3.25753 -1.46092,-5.01298 -1.13375,-1.44133 -1.6912,-2.62059 -1.23878,-2.62057 1.4935,5e-5 6.35463,6.86213 5.31592,7.50408 -0.55037,0.34015 -0.72525,1.71588 -0.3886,3.05718 0.69963,2.78753 0.18477,3.09494 -1.59396,0.9517 z m 12.98922,-4.01299 c 0,-0.825 0.17686,-1.5 0.39301,-1.5 0.21616,0 0.65203,0.675 0.96862,1.5 0.31658,0.825 0.13972,1.5 -0.39301,1.5 -0.53274,0 -0.96862,-0.675 -0.96862,-1.5 z m -36.70396,-9.1208 c -1.21218,-1.85856 -1.8593,-3.3792 -1.43806,-3.3792 1.17891,0 5.222,5.83591 4.38262,6.32599 -0.40733,0.23782 -1.73238,-1.08823 -2.94456,-2.94679 z"
       id="path3140"
       inkscape:connector-curvature="0" />
  </g>
</svg>
