<?xml version="1.0" encoding="UTF-8" standalone="no"?>
<!-- Created with Inkscape (http://www.inkscape.org/) -->

<svg
   xmlns:dc="http://purl.org/dc/elements/1.1/"
   xmlns:cc="http://creativecommons.org/ns#"
   xmlns:rdf="http://www.w3.org/1999/02/22-rdf-syntax-ns#"
   xmlns:svg="http://www.w3.org/2000/svg"
   xmlns="http://www.w3.org/2000/svg"
   xmlns:sodipodi="http://sodipodi.sourceforge.net/DTD/sodipodi-0.dtd"
   xmlns:inkscape="http://www.inkscape.org/namespaces/inkscape"
   width="764.06891"
   height="900.70166"
   id="svg2"
   version="1.1"
   inkscape:version="0.48.3.1 r9886"
   sodipodi:docname="Hyperextensions-1.svg">
  <defs
     id="defs4" />
  <sodipodi:namedview
     id="base"
     pagecolor="#ffffff"
     bordercolor="#666666"
     borderopacity="1.0"
     inkscape:pageopacity="0.0"
     inkscape:pageshadow="2"
     inkscape:zoom="0.49497475"
     inkscape:cx="-350.17904"
     inkscape:cy="302.64229"
     inkscape:document-units="px"
     inkscape:current-layer="layer1"
     showgrid="false"
     fit-margin-top="0"
     fit-margin-left="0"
     fit-margin-right="0"
     fit-margin-bottom="0"
     inkscape:window-width="1378"
     inkscape:window-height="738"
     inkscape:window-x="-136"
     inkscape:window-y="131"
     inkscape:window-maximized="0" />
  <metadata
     id="metadata7">
    <rdf:RDF>
      <cc:Work
         rdf:about="">
        <dc:format>image/svg+xml</dc:format>
        <dc:type
           rdf:resource="http://purl.org/dc/dcmitype/StillImage" />
        <dc:title></dc:title>
      </cc:Work>
    </rdf:RDF>
  </metadata>
  <g
     inkscape:label="Ebene 1"
     inkscape:groupmode="layer"
     id="layer1"
     transform="translate(-1444.9094,-258.32797)">
    <path
       style="fill:#000000"
       d="m 1526.1872,1156.7595 c -2.3198,-1.3138 -5.7715,-4.824 -8.2804,-8.4207 -2.3663,-3.3923 -5.9762,-7.1591 -8.022,-8.3706 -8.5287,-5.0509 -11.475,-7.5023 -13.8141,-11.4937 -2.1572,-3.681 -3.0302,-4.2956 -6.932,-4.8807 -5.0588,-0.7587 -9.645,-4.1339 -11.4114,-8.3984 -0.6585,-1.5898 -2.2773,-3.3826 -3.5972,-3.984 -2.9614,-1.3493 -7.0568,-6.9297 -10.8181,-14.7408 -2.2859,-4.747 -3.922,-6.6089 -8.2286,-9.3639 -6.0422,-3.8653 -8.8974,-8.6539 -9.9669,-16.7162 -0.6394,-4.8203 -0.1182,-7.2344 6.2275,-28.8451 1.4736,-5.0185 1.4051,-13.4741 -0.309,-38.1463 -0.6464,-9.30447 0.6174,-19.72887 3.1474,-25.96097 1.4874,-3.664 8.2952,-7.3855 13.5485,-7.4064 8.769,-0.035 8.6242,-0.4272 -4.3802,-11.863 l -12.1517,-10.686 -1.8013,-7.4687 c -1.1129,-4.6145 -1.6884,-10.1749 -1.5059,-14.5502 0.2701,-6.4785 0.7201,-7.7865 5.2843,-15.3596 9.646,-16.0049 18.9328,-24.7258 34.4891,-32.3875 l 10.5,-5.1714 10.5784,0 c 12.3667,0 11.9172,-0.2152 31.9465,15.2982 l 12.0048,9.2981 1.8918,-4.4132 c 1.0404,-2.4273 2.6495,-8.1288 3.5758,-12.6701 2.0218,-9.913 5.0019,-18.0654 10.8837,-29.7744 6.8183,-13.5731 12.5269,-20.3556 26.5706,-31.5688 16.979,-13.5569 27.9344,-20.5978 44.5611,-28.639 11.6481,-5.6333 15.2762,-7.9514 21.5,-13.7369 4.118,-3.8279 10.4007,-9.068 13.9616,-11.6446 7.5653,-5.474 11.4993,-10.8628 13.572,-18.59127 0.8199,-3.05691 3.4564,-11.63301 5.859,-19.05801 3.5951,-11.1104 4.1442,-13.76551 3.1021,-15 -0.6965,-0.825 -2.0151,-2.97803 -2.9304,-4.78451 -1.9404,-3.82988 -2.8317,-2.20861 11.9374,-21.71549 15.1948,-20.0692 23.3482,-31.9407 25.8999,-37.71047 1.3369,-3.02309 3.3445,-10.59495 4.4612,-16.82636 4.137,-23.08509 16.0155,-39.01204 42.5355,-57.03235 8.4635,-5.7509 26.1712,-13.06997 33.0889,-13.67651 3.3,-0.28934 7.125,-1.07514 8.5,-1.74622 1.9344,-0.94409 4.4231,-0.96351 11,-0.0858 4.9422,0.65956 11.2207,0.82524 15,0.39585 15.8257,-1.79807 66.718,-5.04378 79,-5.03831 28.8611,0.0128 61.4502,8.6196 95.6033,25.24878 l 12.1032,5.89309 12.9646,14.02524 c 7.1305,7.71389 15.4711,15.82022 18.5348,18.01407 3.0637,2.19385 11.5705,6.58761 18.9039,9.76391 16.4267,7.11474 22.2054,12.10017 33.7486,29.11583 8.4972,12.52556 10.2676,14.4918 14.1416,15.70666 1.375,0.43118 11.05,0.83185 21.5,0.89036 17.5093,0.0981 19.4708,0.29275 25,2.48163 11.1414,4.41057 20.0426,12.3934 24.6208,22.0806 3.0075,6.36361 4.9797,18.59619 5.1592,32 0.1438,10.73995 -0.06,12.06111 -3.0807,19.98988 -9.3869,24.6373 -27.8856,38.7255 -55.5368,42.2954 l -8.8374,1.141 -4.8798,7.0587 c -3.6719,5.3117 -6.6467,8.229 -12.0191,11.7869 -6.5871,4.3623 -7.6148,4.7265 -13.2828,4.7065 -3.3789,-0.012 -10.1489,-0.6237 -15.0446,-1.3597 -13.9247,-2.0933 -18.4295,-0.4941 -33.0983,11.7501 -16.2633,13.575 -31.5011,19.7551 -51.9852,21.0839 -6.9545,0.4511 -13.1917,1.486 -17,2.8207 -4.3039,1.5083 -8.4335,2.1073 -14.5153,2.1055 -13.2726,0 -16.9126,-2.7441 -19.6629,-14.8014 -1.5591,-6.8352 -4.075,-9.9297 -11.2174,-13.7971 -3.7745,-2.0437 -8.1723,-10.6037 -10.0896,-19.6385 l -1.2703,-5.986 -3.9177,4.5266 c -3.7885,4.3773 -3.8994,4.7128 -3.3624,10.1721 0.3055,3.105 3.7365,60.2654 7.6245,127.0231 5.8866,101.07277 6.8456,121.58257 5.7325,122.60247 -0.7352,0.6737 -65.2367,17.3451 -143.3367,37.0475 -129.4329,32.6523 -142.7138,35.8196 -150.0661,35.789 -8.6706,-0.036 -16.1431,-1.948 -23.0629,-5.9006 -3.7362,-2.1341 -6.1911,-5.8688 -25.8082,-39.2633 l -21.6793,-36.9049 -3.9071,-0.5241 c -2.149,-0.2882 -5.132,-1.4875 -6.629,-2.665 -2.4269,-1.909 -2.8189,-1.9675 -3.6177,-0.54 -0.4928,0.8805 -1.2731,6.8615 -1.7341,13.2911 -1.0119,14.1158 -1.9923,18.6658 -6.5168,30.2446 -3.6911,9.446 -4.4646,17.8913 -2.5475,27.816 0.662,3.4273 0.3333,6.2325 -1.5235,13 -1.3023,4.7463 -2.6421,10.8525 -2.9775,13.5694 -0.4678,3.7902 -1.3801,5.71 -3.92,8.25 -3.0572,3.0572 -3.7957,3.309 -9.6602,3.2938 -4.722,-0.012 -7.3699,-0.5941 -10.328,-2.2695 z m 16.6492,-5.369 c 1.2817,-1.1599 1.8288,-3.073 1.8288,-6.3947 0,-2.6068 0.9526,-7.8239 2.1169,-11.5936 1.6576,-5.3667 1.9829,-8.2646 1.4995,-13.3553 -0.3396,-3.5758 -0.9047,-9.7309 -1.2558,-13.6779 l -0.6382,-7.1765 4.5934,-7.1796 c 5.1666,-8.0755 5.3777,-9.0976 6.0868,-29.4674 0.2681,-7.7 0.9293,-15.4575 1.4693,-17.2388 l 0.982,-3.2388 -19.177,-16.6895 c -10.5473,-9.1792 -20.3019,-17.7087 -21.6769,-18.9543 l -2.5,-2.2648 -11.5,4.5289 c -6.325,2.4909 -12.1136,5.12 -12.8636,5.8423 -2.1593,2.08 -5.2591,16.4258 -4.5408,21.0149 0.3444,2.2001 2.1988,8.0496 4.1209,12.9991 5.7919,14.9137 6.4433,19.9353 6.0939,46.9768 -0.3014,23.3237 -0.2446,24.1473 1.9465,28.2478 2.1083,3.9458 7.182,7.9481 15.4265,12.1692 1.4758,0.7556 4.0448,3.5638 5.7087,6.2405 3.436,5.5274 5.1079,6.1784 5.1079,1.9891 0,-3.3132 2.2412,-5.6276 4.5805,-4.7299 1.3091,0.5023 1.4808,1.5257 0.9293,5.5362 -0.6429,4.6741 -0.5351,4.9967 2.1567,6.4556 3.7267,2.0197 7.2456,2.0051 9.5047,-0.039 z m -25.0435,-48.0951 c -2.0967,-8.2825 -2.2492,-15.2619 -0.5672,-25.9635 1.6002,-10.1806 1.5979,-11.4605 -0.041,-22.7865 -2.7497,-19.0061 -3.8717,-22.1523 -10.1339,-28.4166 -3.8849,-3.8861 -5.2505,-5.9347 -4.833,-7.25 0.8829,-2.7818 2.0881,-2.2861 7.9719,3.2786 7.1022,6.7169 9.1121,11.1828 11.4714,25.4887 2.3758,14.4066 2.4732,21.1792 0.4694,32.6348 -1.3443,7.6849 -1.356,9.7295 -0.097,17 0.7869,4.5455 1.2244,8.6021 0.9722,9.0145 -0.2523,0.4126 -1.3148,0.75 -2.3611,0.75 -1.3629,0 -2.1717,-1.0634 -2.8518,-3.75 z m 278.0271,-9.8207 c 77.726,-19.564 141.5008,-35.7516 141.7217,-35.9725 0.4514,-0.4514 -12.5693,-225.09777 -13.6704,-235.85527 l -0.7062,-6.8985 -19.9365,23.3689 -19.9365,23.3689 4.2192,83.0296 c 4.4602,87.77077 4.5854,91.15077 3.4038,91.86477 -0.4125,0.2492 -52.05,13.1537 -114.75,28.6765 -62.7,15.5229 -114.3792,28.5722 -114.8426,28.9985 -0.4635,0.4263 -0.3526,1.6908 0.2464,2.8101 1.4838,2.7724 0.3641,5.1797 -2.4093,5.1797 -1.9616,0 -4.7055,-4.283 -19.0587,-29.75 -9.2219,-16.3624 -17.2551,-30.2818 -17.8515,-30.9319 -0.8172,-0.8909 -2.6285,-0.014 -7.3538,3.5594 -6.9548,5.2598 -13.1578,7.8529 -21.0094,8.7828 -2.8716,0.3401 -5.213,0.8932 -5.203,1.229 0.01,0.3359 8.8974,15.6525 19.75,34.0369 17.8852,30.2978 20.1029,33.6164 23.6953,35.4588 5.3461,2.7418 12.0584,4.4659 17.704,4.5476 3.0065,0.043 54.9566,-12.5905 145.9875,-35.5033 z m -303.9048,10.3207 c 0.4791,-27.309 -0.5039,-33.936 -8.1635,-55.0381 -2.4107,-6.6414 -3.186,-10.4279 -3.1738,-15.5 0.027,-11.1255 -1.8797,-31.3687 -3.4851,-37.0033 -0.8931,-3.13457 -2.9514,-6.88947 -5.0499,-9.21227 -3.9993,-4.4267 -3.8287,-6.3981 0.4253,-4.9151 1.8902,0.6589 3.8,2.8554 6.0653,6.976 2.7879,5.0712 3.4738,7.67027 4.3746,16.57627 0.8028,7.9385 1.3119,10.103 2.0492,8.7143 2.8678,-5.4016 10.0201,-10.0554 20.4936,-13.3348 l 5.2858,-1.655 -14.5805,-12.64507 c -13.4466,-11.6617 -14.8297,-12.6027 -17.7857,-12.1009 -15.3944,2.6137 -18.7242,4.481 -20.5055,11.4987 -0.7225,2.8467 -0.7566,11.23127 -0.1088,26.76727 1.0222,24.5155 1.081,23.9932 -5.0237,44.6004 -3.8855,13.1158 -2.4061,18.9921 6.4235,25.5149 4.4748,3.3057 6.2764,5.497 8.5096,10.3501 3.2511,7.0651 7.9058,13.1823 7.9636,10.4657 0.02,-0.9301 -0.414,-1.9691 -0.964,-2.3091 -1.5986,-0.9879 -1.1551,-4.5032 0.6557,-5.1981 2.5051,-0.9613 5.3443,3.2083 5.3443,7.8488 0,4.8446 3.3344,11.6429 6.2953,12.8349 4.657,1.875 4.6912,1.7838 4.9547,-13.2356 z m 302.5468,-50.2809 91.2969,-22.6606 -0.5257,-4.1542 c -0.2892,-2.2848 -2.1406,-37.45427 -4.1144,-78.15437 -1.9737,-40.6999 -3.8079,-75.0768 -4.076,-76.3929 l -0.4875,-2.3929 -3.3021,3.2005 c -4.0153,3.8918 -12.1593,6.2512 -22.0881,6.3992 -5.8133,0.087 -8.3562,-0.4607 -15,-3.2288 -12.0813,-5.0337 -22.8731,-10.639 -34.4085,-17.8721 -8.4158,-5.2769 -12.3406,-7.0432 -20.5,-9.226 -5.5503,-1.4848 -12.1403,-3.0035 -14.6443,-3.375 l -4.5529,-0.6754 -2.2675,5.4709 c -5.3557,12.9216 -23.4023,26.543 -39.3603,29.7088 -4.8703,0.9662 -6.2418,1.7582 -9.1101,5.2606 -5.1006,6.2282 -11.659,16.7856 -18.7129,30.1232 -7.9664,15.0627 -12.1854,19.558 -30.8399,32.8602 -8.4466,6.0231 -16.7199,12.8161 -19.3301,15.8713 l -4.5633,5.3414 4.0027,3.3605 c 2.497,2.0963 5.1667,5.8442 7.0971,9.9635 2.6403,5.6337 3.098,7.7775 3.1176,14.60307 0.032,11.0582 -2.1905,15.2401 -14.9031,28.0454 l -10.1335,10.2074 11.8366,20.8736 c 6.5101,11.4805 13.1495,23.1891 14.7541,26.0192 l 2.9175,5.1455 23.3004,-5.8306 c 12.8152,-3.2069 64.384,-16.028 114.5973,-28.4914 z m -191.3673,-9.3037 c 9.7361,-4.3683 36.8445,-28.9933 41.2094,-37.4341 1.1859,-2.2932 1.4829,-4.9301 1.1463,-10.1757 -0.8177,-12.74207 -0.1797,-12.04567 -49.2183,-53.72007 -67.0459,-56.9777 -71.2823,-60.2434 -82.3054,-63.4479 -6.592,-1.9163 -10.0832,-1.3841 -20.5525,3.1334 -15.4667,6.6739 -27.3966,17.7439 -35.2706,32.7281 -3.5231,6.7045 -3.6593,7.3308 -3.1806,14.6276 0.2751,4.1928 1.1171,9.2651 1.8711,11.2719 1.9552,5.2033 115.4315,104.50947 120.1972,105.18787 7.989,1.1371 21.1744,0.04 26.1034,-2.1711 z m 32.2244,-80.70617 c 0.3252,-0.8474 9.008,-9.1217 19.2951,-18.3873 24.0614,-21.6723 28.4481,-26.8395 38.3481,-45.1722 8.6608,-16.0379 18.4232,-26.8998 24.1768,-26.8998 2.5321,0 17.4153,-6.2819 22.5478,-9.517 4.8432,-3.0528 10.5626,-10.2873 13.5985,-17.2008 4.3656,-9.9413 4.769,-10.5188 9.3797,-13.4252 2.475,-1.5602 10.0366,-5.1752 16.8035,-8.0334 10.314,-4.3564 13.7905,-6.4325 21.5,-12.8399 12.4559,-10.352 21.4267,-20.1836 26.033,-28.5312 3.8067,-6.8985 3.8272,-6.9952 2.6312,-12.4525 -1.992,-9.0894 -6.9081,-21.60011 -10.8965,-27.73018 -4.4526,-6.84336 -8.4993,-10.63252 -30.6136,-28.66543 -1.7121,-1.39616 -6.7277,-2.53082 -19.0354,-4.30631 l -16.7108,-2.41067 -3.481,3.3063 c -1.9146,1.81847 -6.3978,6.68131 -9.9627,10.80631 -6.9515,8.04361 -14.7772,22.85478 -22.734,43.02698 l -4.1522,10.5269 3.3092,-0.3863 c 1.8201,-0.2125 3.3093,0.058 3.3093,0.6009 0,0.543 -3.0375,3.626 -6.75,6.851 -3.7125,3.225 -7.4104,6.7583 -8.2175,7.8518 -0.8072,1.0934 -3.5872,4.3286 -6.1779,7.1893 -2.5906,2.8607 -5.1646,6.0503 -5.72,7.088 -0.9004,1.6823 -0.6915,1.84 1.9278,1.4556 2.1658,-0.3179 2.9376,-0.026 2.9376,1.1097 0,3.0571 -3.0769,4.7564 -27.3555,15.1081 -17.4879,7.4563 -42.0282,22.77 -50.7131,31.6461 -7.0274,7.182 -12.7106,16.7971 -15.3277,25.9319 -0.8667,3.0251 -1.9757,10.9368 -2.4645,17.5818 -0.976,13.2677 -2.0296,16.4182 -5.4905,16.4182 -1.803,0 -2.883,1.2596 -5.1539,6.011 -2.2741,4.7579 -2.6169,6.2692 -1.6444,7.25 4.7042,4.7444 43.9056,37.6072 44.931,37.6658 0.7048,0.04 1.5474,-0.6201 1.8726,-1.4675 z m -22.274,-34.9114 c -0.8568,-2.2329 0.2545,-3.2574 4.359,-4.0184 2.0686,-0.3836 5.111,-1.5305 6.761,-2.5487 4.9665,-3.0649 42.4534,-42.7715 50.5,-53.4902 5.0055,-6.6677 8.2484,-10.0968 9.75,-10.3101 4.1289,-0.5864 2.5159,3.2381 -6.9441,16.4647 -11.5467,16.1443 -42.3298,47.2235 -51.7427,52.2405 -6.2545,3.3336 -11.7647,4.0558 -12.6832,1.6622 z m 89.62,-92.9433 c 0,-0.7675 4.9198,-5.067 10.9328,-9.5544 13.4513,-10.0384 16.9976,-13.894 21.3737,-23.2375 3.9344,-8.4003 10.191,-15.2859 11.2892,-12.4241 0.8094,2.1095 -1.5873,7.5804 -7.928,18.0968 -5.7811,9.5883 -10.1399,14.3339 -18.1677,19.7796 -3.3,2.2386 -7.272,5.1198 -8.8267,6.4026 -3.1398,2.5908 -8.6733,3.1886 -8.6733,0.937 z m 49.3773,-65.7411 c 1.9556,-9.7776 29.5936,-50.86348 34.2154,-50.86348 2.7446,0 1.3194,3.10567 -5.8478,12.74375 -8.3543,11.23431 -10.5549,14.67082 -19.0508,29.75003 -3.9477,7.0068 -6.8814,11.1234 -8.0893,11.3513 -1.6538,0.312 -1.8102,-0.068 -1.2275,-2.9816 z m -166.053,146.8865 c 5.0645,-8.0585 7.6757,-15.3418 7.6757,-21.409 l 0,-5.3923 -3.0481,1.5763 c -1.9408,1.0036 -4.9381,1.467 -8.25,1.2756 -4.5671,-0.2639 -5.2418,-0.5824 -5.5293,-2.6104 -0.2995,-2.1131 -0.044,-2.2578 3,-1.699 4.2601,0.7821 13.7862,-3.8295 15.4744,-7.4912 7.6359,-16.562 12.0419,-24.4963 16.7807,-30.2182 9.1271,-11.0207 16.8817,-15.8709 54.5723,-34.1331 17.2434,-8.3549 32.5104,-28.5648 45.5901,-60.3501 5.6584,-13.75061 12.2345,-25.88216 16.836,-31.05903 7.8847,-8.87057 10.2854,-13.25925 9.806,-17.92624 -0.3701,-3.60326 -0.8551,-4.33486 -3.4803,-5.25 -3.9283,-1.36942 -15.608,-1.37205 -19.3526,-0.004 -1.9522,0.71305 -3.667,2.59123 -5.2497,5.75 -6.1147,12.20333 -9.3383,20.79247 -12.6241,33.63636 -3.7649,14.71671 -6.4264,20.13891 -13.8937,28.30471 -3.927,4.2944 -6.3003,5.1814 -8.358,3.1237 -1.3386,-1.3387 -11.1277,7.4071 -14.8479,13.2654 -1.9343,3.0461 -5.4573,5.2595 -21.6183,13.5823 -10.6191,5.4688 -23.5025,12.541 -28.6297,15.7161 -11.5911,7.178 -26.8815,21.5811 -33.2868,31.3552 -5.7441,8.7651 -8.1227,14.8619 -11.9801,30.7073 -1.6067,6.6 -3.8344,14.8286 -4.9504,18.2857 l -2.0291,6.2857 3.2372,2.7143 c 1.7804,1.4929 7.0502,5.9768 11.7106,9.9643 4.6604,3.9875 8.6247,7.25 8.8095,7.25 0.1849,0 1.8209,-2.3625 3.6356,-5.25 z m 82.6757,-113.4949 c 0,-1.4633 0.8783,-2.1792 3.25,-2.6496 1.7875,-0.3544 5.8669,-2.2564 9.0652,-4.2265 3.1983,-1.9701 6.0649,-3.3323 6.3701,-3.027 0.3052,0.3052 0.2901,1.5883 -0.033,2.8515 -0.8035,3.1356 -8.7922,7.9453 -14.2114,8.5561 -3.9438,0.4446 -4.4404,0.2763 -4.4404,-1.5045 z m 191.9083,68.2049 c 3.5245,-0.8308 6.8995,-2.1079 7.5,-2.838 0.6004,-0.73 13.0216,-15.2311 27.6026,-32.2247 14.581,-16.9935 33.8361,-39.5219 42.7893,-50.0631 17.374,-20.4559 18.4976,-21.3342 27.2909,-21.3342 4.3226,0 5.3529,0.4904 10.5063,5 5.6605,4.9534 5.7775,5 12.538,5 7.8222,0 14.0405,-2.0932 16.2541,-5.4716 2.0498,-3.1285 3.0649,-30.43783 1.8298,-49.22609 -0.8054,-12.25104 -1.302,-14.95108 -3.6216,-19.6922 -4.329,-8.84816 -10.1529,-14.42211 -22.2314,-21.2772 -15.2227,-8.63959 -42.5575,-23.33289 -43.4075,-23.33289 -0.3898,0 -0.9899,1.40555 -1.3335,3.12345 -0.6515,3.25761 -5.786,15.55764 -10.3063,24.68936 -1.869,3.77558 -4.6827,7.00111 -9.7245,11.14771 -11.5173,9.47248 -18.5936,18.38056 -26.3155,33.12794 -5.8185,11.11215 -11.1522,18.00257 -24.3147,31.41152 -6.4787,6.6 -13.4536,14.7 -15.4999,18 -6.4662,10.4282 -13.3432,16.5 -18.6882,16.5 -1.585,0 -4.8575,2.5794 -10.2996,8.1179 -12.0767,12.2906 -34.9353,28.7082 -48.3064,34.6946 l -4.0632,1.8191 12.2588,3.0996 c 10.8766,2.7501 13.3229,3.7941 21.6965,9.2598 9.6412,6.2931 31.8454,17.6241 39.9377,20.3807 5.7336,1.9531 9.9096,1.9737 17.9083,0.088 z m 36.7584,-104.1266 c -1.3961,-1.3962 -0.517,-3.3342 4.0785,-8.9917 7.9733,-9.81577 36.8888,-42.18387 48.2651,-54.0281 9.8093,-10.21275 11.2477,-11.33271 16.5258,-12.86708 12.3997,-3.60471 30.3959,0.0947 31.2986,6.43386 0.5841,4.10185 -1.2439,4.45027 -6.3521,1.21076 -7.2659,-4.60792 -10.6147,-5.44297 -16.6433,-4.15007 -11.2726,2.41754 -20.1775,9.33604 -35.0015,27.19367 -35.7261,43.03716 -39.8802,47.48956 -42.1711,45.19866 z m 94.0182,75.5746 c 1.5483,-0.6006 7.5401,-1.5016 13.3151,-2.0023 23.1809,-2.0096 29.5209,-4.3186 49,-17.8454 8.525,-5.9199 16.85,-11.4452 18.5,-12.2783 4.9718,-2.5102 9.5362,-2.8356 19.2754,-1.3741 15.8726,2.3819 26.1156,-0.033 35.4904,-8.3684 5.9768,-5.3139 8.9724,-10.4045 13.3806,-22.738 4.0011,-11.1947 5.2266,-22.3684 3.4757,-31.69204 -0.8569,-4.56308 -2.7981,-8.52871 -8.6141,-17.59702 -4.5156,-7.0407 -7.508,-12.76383 -7.508,-14.35944 0,-2.9508 0.2877,-3.1046 3.0456,-1.62856 1.7466,0.93475 1.8628,0.7378 1.3272,-2.25 -2.6216,-14.62461 -8.0877,-28.4389 -12.9378,-32.69736 -3.0265,-2.6573 -11.533,-6.07706 -15.1165,-6.07706 -1.6656,0 -1.7556,-5.16287 -0.1185,-6.8 1.7449,-1.74492 4.8161,-1.47526 9.0514,0.79474 l 3.7217,1.99473 -2.7281,-5.74473 c -1.5005,-3.15961 -4.5471,-8.44474 -6.7702,-11.74474 -3.9229,-5.82326 -4.4846,-6.22092 -19.0695,-13.5 -18.5782,-9.27208 -20.5021,-10.62568 -38.1792,-26.86208 -7.8493,-7.20961 -16.8488,-15.01273 -19.9988,-17.34028 -7.7832,-5.751 -46.1885,-22.07982 -61.1077,-25.98121 -14.1771,-3.70735 -28.4917,-4.02041 -42.6196,-0.93209 -26.3414,5.75815 -29.1567,6.23772 -33.1348,5.64437 -5.1625,-0.76999 -8.4488,-3.89304 -6.2983,-5.98547 1.1558,-1.1247 2.4621,-1.18715 6.7518,-0.32279 6.2733,1.26409 17.3235,-0.0603 26.6813,-3.19792 l 6,-2.01174 -15.5,0.51483 c -15.5962,0.51803 -37.2128,2.21825 -40,3.14614 -0.825,0.27465 2.6754,1.99946 7.7785,3.8329 5.1032,1.83343 12.2413,4.71993 15.8623,6.41443 3.6211,1.6945 7.36,3.08091 8.3087,3.08091 0.9487,0 7.9784,1.575 15.6215,3.5 16.0094,4.0321 20.8091,4.27392 29.5899,1.49077 7.7114,-2.44417 25.1945,-4.34186 29.3391,-3.1846 1.65,0.46072 3.1335,1.53017 3.2965,2.37656 0.2488,1.29119 -1.6023,1.62578 -11.5,2.07862 -9.1587,0.41904 -13.5854,1.14435 -19.7965,3.24367 -7.1629,2.42101 -8.9417,2.64178 -17,2.10986 -4.95,-0.32676 -11.3839,-1.23869 -14.2976,-2.02653 l -5.2975,-1.43243 6.4562,6.84393 c 3.5509,3.76415 8.2545,9.24157 10.4525,12.17204 5.4013,7.2014 14.4758,22.94063 14.3939,24.9654 -0.129,3.18989 9.1667,13.23619 15.8344,17.11297 4.9146,2.85747 6.4581,4.29207 6.4581,6.00233 0,5.00211 -10.1712,1.94146 -21.1442,-6.36254 -6.0539,-4.58144 -6.1591,-4.61711 -7.1566,-2.42782 -0.5568,1.22207 -0.7169,2.6928 -0.3558,3.26829 0.3611,0.5755 7.8566,4.98238 16.6566,9.79307 35.7305,19.53281 43.3524,24.3341 48.1775,30.34894 2.4829,3.09511 5.9295,8.55247 7.6591,12.12747 l 3.1447,6.5 0.3621,23.66281 0.3621,23.66277 4.5051,-2.857 c 2.4778,-1.57137 5.8066,-3.14289 7.3973,-3.49227 3.4291,-0.75317 3.3951,-0.57 0.9831,-5.29787 -2.8444,-5.57553 -4.0537,-13.83833 -4.7094,-32.17844 -0.6586,-18.42006 -1.9273,-24.89625 -7.0897,-36.1896 -3.7613,-8.22852 -3.8381,-11.02751 -0.2769,-10.09622 4.521,1.18226 11.2977,15.4849 13.0388,27.51895 0.5783,3.99678 1.465,13.64864 1.9706,21.44857 1.0753,16.59049 3.7827,26.42463 8.1596,29.63908 4.3422,3.18895 15.6929,3.47116 25.2692,0.62827 l 7.7339,-2.29594 -0.6436,-5.15131 c -1.2532,-10.03005 3.4557,-26.45157 7.8355,-27.32512 2.0054,-0.39999 2.1233,2.77093 0.4114,11.05926 -1.0409,5.03935 -0.9605,6.82338 0.5762,12.78851 1.7826,6.91979 1.7818,6.9393 -0.4492,10.90884 -3.4618,6.15929 -7.1372,7.2336 -30.9727,9.05309 -7.2548,0.5538 -15.4083,1.8396 -19.3132,3.0457 -7.9468,2.4545 -14.6315,7.7922 -14.6315,11.6832 0,3.9369 -3.0322,9.2875 -6.582,11.6144 -1.7952,1.1768 -4.0033,3.3912 -4.9069,4.9208 -3.6526,6.1835 -15.2909,15.7495 -19.1611,15.7495 -3.7434,0 -2.8484,-2.6249 3.2721,-9.5963 l 5.6222,-6.4037 -5.7798,0 c -5.2407,0 -6.278,-0.3844 -11.1221,-4.1216 -2.9383,-2.2669 -5.3424,-4.5169 -5.3424,-5 0,-1.1739 -7.6694,-1.1257 -9.889,0.062 -0.9667,0.5173 -5.2483,5.0222 -9.5148,10.0108 l -7.7573,9.0701 1.037,4.8353 c 1.7444,8.1339 4.984,15.6348 8.001,18.5253 l 2.8712,2.7507 -0.4906,-2.5664 c -0.351,-1.8362 -0.062,-2.5664 1.0152,-2.5664 4.3802,0 9.9516,9.4725 11.7128,19.9141 1.2394,7.348 2.1392,8.7002 6.7006,10.0694 4.109,1.2334 14.7396,1.1888 17.9988,-0.075 z m -2.6867,-6.6182 c -3.0508,-4.1079 -4.2336,-4.8891 -9.2482,-6.1078 -6.9753,-1.6954 -7.9477,-4.182 -1.6353,-4.182 8.061,0 18.4792,8.404 16.5738,13.3695 -0.9668,2.5193 -1.9121,2.0077 -5.6903,-3.0797 z m 6.6685,-16.9564 c -1.2445,-1.2445 -0.6662,-4.8219 1.301,-8.0483 2.3165,-3.7992 7.9856,-6.8292 21.0323,-11.2412 11.7005,-3.9567 16.4547,-6.5515 17.928,-9.785 1.9358,-4.2487 0.5689,-6.1149 -4.7286,-6.4562 -4.2653,-0.2747 -4.6994,-0.5336 -4.6994,-2.8027 0,-2.3145 0.3434,-2.4959 4.6283,-2.4448 8.0699,0.096 12.6156,4.9627 11.281,12.0769 -1.3471,7.1804 -6.6083,10.8736 -20.3693,14.2985 -10.6396,2.6481 -15.7559,5.5135 -19.3186,10.8194 -2.6095,3.8865 -5.3564,5.2817 -7.0547,3.5834 z m 167.5,-37.4069 c 13.585,-4.5347 27.7351,-15.8689 32.794,-26.2678 4.3884,-9.02073 6.0393,-16.71815 6.0393,-28.15868 0,-22.40098 -8.3918,-38.53536 -23.8413,-45.83797 -6.3409,-2.99718 -7.2313,-3.1452 -18.6587,-3.10195 -22.6641,0.0858 -28.6624,0.59387 -27.915,2.36457 2.0916,4.95559 4.5415,14.18215 5.9222,22.30332 2.3346,13.73225 5.0692,22.98949 9.1762,31.06352 3.473,6.82757 3.6877,7.81623 4.0631,18.70849 0.3381,9.8104 0.043,12.8224 -2.0108,20.5 -1.3239,4.95 -2.7276,9.7183 -3.1193,10.5962 -0.6338,1.4202 -0.018,1.4929 5.5857,0.659 3.4638,-0.5155 8.8479,-1.7884 11.9646,-2.8287 z m -286.7,-42.92648 c 2.3406,-3.575 6.8583,-11.225 10.0394,-17 8.5475,-15.51729 9.8383,-17.329 16.1328,-22.64414 16.795,-14.18187 18.1384,-16.01177 25.0547,-34.12833 5.1736,-13.55188 5.2723,-17.68921 0.6473,-27.14233 -3.0667,-6.26799 -16.2723,-20.51026 -26.3409,-28.40858 -3.575,-2.80442 -8.864,-7.22215 -11.7533,-9.81718 -5.0486,-4.53438 -14.0087,-8.85944 -18.3537,-8.85944 -1.5357,0 -1.9538,-0.54967 -1.7115,-2.25 0.2567,-1.80158 0.8975,-2.2085 3.2154,-2.04177 11.6778,0.84002 40.185,23.14922 57.5793,45.06052 l 3.3887,4.26876 1.3674,-3.2521 c 0.7521,-1.78866 1.1144,-4.26025 0.8051,-5.49242 -0.3092,-1.23217 -4.1529,-7.61203 -8.5415,-14.17746 -9.9572,-14.89611 -22.8917,-27.47519 -33.4959,-32.57545 -17.7361,-8.53048 -63.7208,-19.09185 -72.1409,-16.56872 -2.7355,0.81969 -2.6861,0.86109 1.1409,0.95747 8.9921,0.22645 23.0527,4.89285 22.2367,7.37983 -0.6942,2.11564 -5.1753,1.84689 -13.297,-0.79748 -4.8934,-1.59323 -11.4494,-2.81675 -17.0872,-3.18893 l -9.1476,-0.60388 -10.7824,5.70679 c -15.8885,8.40934 -21.0014,12.02712 -30.4225,21.52628 -9.6331,9.71302 -14.8509,17.94939 -18.719,29.54856 -2.3368,7.00716 -2.675,9.64878 -2.7245,21.2853 -0.045,10.6769 -0.351,13.47151 -1.5565,14.23374 -2.0973,1.32617 -3.4461,0.68966 -3.8133,-1.79959 -0.2561,-1.73612 -1.4548,-0.71761 -6.5657,5.57832 -3.4388,4.23623 -9.533,12.42723 -13.5426,18.20223 -4.0096,5.775 -9.0425,12.60573 -11.1843,15.17941 -2.2433,2.6957 -3.8518,5.66315 -3.7944,7 0.099,2.29328 0.1078,2.2913 0.7924,-0.16817 2.1568,-7.74837 21.3605,-11.96407 34.1324,-7.49293 l 3.5245,1.23384 12.2494,-13.12607 c 18.1232,-19.42025 17.7493,-18.72208 17.4737,-32.62608 -0.2047,-10.32968 0,-11.9062 2.027,-15.49152 1.2403,-2.19533 2.9402,-4.12347 3.7777,-4.28476 1.2865,-0.24774 1.515,1.30253 1.473,9.99152 -0.027,5.65662 0.2894,12.17452 0.704,14.48422 0.7296,4.06512 0.4915,4.59294 -7.4429,16.5 -4.5081,6.7653 -10.9801,15.00054 -14.3821,18.30054 -3.402,3.3 -7.6193,7.66751 -9.3717,9.70558 l -3.1863,3.70557 3.1583,-1.57555 c 2.4546,-1.22452 4.7527,-1.42327 10.3146,-0.89203 11.9577,1.14211 28.037,3.69541 30.1563,4.78862 1.1,0.56742 6.9746,4.74781 13.0545,9.28974 11.101,8.29274 23.2957,20.35393 26.1395,25.85319 2.935,5.6757 8.3739,22.89016 9.48,30.00526 l 1.116,7.1785 16.9606,-17.0294 c 9.3282,-9.3662 18.8755,-19.95448 21.2161,-23.52948 z m -30.125,10.28187 c 0.8993,-5.54189 8.0128,-15.17285 22.5146,-30.48288 7.1378,-7.53556 13.2922,-14.69132 13.6763,-15.90169 0.536,-1.68875 6.4128,-14.47829 9.2577,-20.1473 0.207,-0.4125 -0.3219,-0.75 -1.1754,-0.75 -0.8535,0 -3.3802,2.475 -5.6149,5.5 -3.931,5.32124 -6.1747,6.64428 -7.5351,4.44316 -2.2412,-3.62629 3.778,-11.19676 11.9921,-15.08273 5.0908,-2.40838 7.3129,-2.85898 14.1019,-2.85964 11.82,-0.001 11.7183,0.13533 12.5338,-16.81965 0.5133,-10.66921 1.1235,-14.94477 2.5414,-17.80638 4.7226,-9.53122 5.4163,-3.61424 2.4667,21.04081 -2.1121,17.65481 -2.9547,18.97469 -12.8182,20.08089 -3.1804,0.35669 -6.2692,0.79766 -6.8639,0.97993 -0.5948,0.18227 -4.4025,6.78715 -8.4617,14.6775 -6.6565,12.93893 -8.1165,15.03273 -14.8841,21.34611 -13.4922,12.58656 -19.8244,19.72342 -24.554,27.67451 -5.167,8.68627 -8.2021,10.42327 -7.1772,4.10736 z m -87.4962,-90.26084 c -5.9741,-3.95708 -8.2338,-6.56679 -7.4514,-8.6057 0.9122,-2.37696 5.9453,-1.16483 11.8438,2.85233 5.4964,3.74334 6.564,5.67282 4.1254,7.45596 -2.5006,1.82852 -3.4834,1.63208 -8.5178,-1.70259 z"
       id="path3331"
       inkscape:connector-curvature="0" />
  </g>
</svg>
