<?xml version="1.0" encoding="UTF-8" standalone="no"?>
<!-- Created with Inkscape (http://www.inkscape.org/) -->

<svg
   xmlns:dc="http://purl.org/dc/elements/1.1/"
   xmlns:cc="http://creativecommons.org/ns#"
   xmlns:rdf="http://www.w3.org/1999/02/22-rdf-syntax-ns#"
   xmlns:svg="http://www.w3.org/2000/svg"
   xmlns="http://www.w3.org/2000/svg"
   xmlns:sodipodi="http://sodipodi.sourceforge.net/DTD/sodipodi-0.dtd"
   xmlns:inkscape="http://www.inkscape.org/namespaces/inkscape"
   width="764.06891"
   height="900.70166"
   id="svg2"
   version="1.1"
   inkscape:version="0.48.3.1 r9886"
   sodipodi:docname="Dumbbell-decline-flys-2.svg">
  <defs
     id="defs4" />
  <sodipodi:namedview
     id="base"
     pagecolor="#ffffff"
     bordercolor="#666666"
     borderopacity="1.0"
     inkscape:pageopacity="0.0"
     inkscape:pageshadow="2"
     inkscape:zoom="0.49497475"
     inkscape:cx="-350.17904"
     inkscape:cy="302.64229"
     inkscape:document-units="px"
     inkscape:current-layer="layer1"
     showgrid="false"
     fit-margin-top="0"
     fit-margin-left="0"
     fit-margin-right="0"
     fit-margin-bottom="0"
     inkscape:window-width="1378"
     inkscape:window-height="738"
     inkscape:window-x="-136"
     inkscape:window-y="131"
     inkscape:window-maximized="0" />
  <metadata
     id="metadata7">
    <rdf:RDF>
      <cc:Work
         rdf:about="">
        <dc:format>image/svg+xml</dc:format>
        <dc:type
           rdf:resource="http://purl.org/dc/dcmitype/StillImage" />
        <dc:title></dc:title>
      </cc:Work>
    </rdf:RDF>
  </metadata>
  <g
     inkscape:label="Ebene 1"
     inkscape:groupmode="layer"
     id="layer1"
     transform="translate(-1444.9094,-258.32797)">
    <path
       style="fill:#000000"
       d="m 1526.5159,1155.6953 c -2.3197,-1.3139 -5.7714,-4.8241 -8.2804,-8.4208 -2.3663,-3.3923 -5.9762,-7.159 -8.022,-8.3706 -8.53,-5.0517 -11.359,-7.4277 -14.057,-11.8062 -2.5048,-4.0649 -3.3056,-4.6482 -6.7021,-4.8815 -4.7395,-0.3256 -7.9681,-2.3475 -10.442,-6.5393 -2.069,-3.5057 -2.1172,-3.5577 -6.6921,-7.2108 -1.7455,-1.3938 -5.078,-6.2356 -7.4056,-10.7595 -3.5946,-6.9866 -5.0336,-8.7433 -9.555,-11.6642 -9.7948,-6.3276 -12.3424,-16.5986 -7.8283,-31.5612 5.7466,-19.0481 5.6403,-18.4042 5.0338,-30.5 -0.3172,-6.325 -0.8652,-15.7034 -1.2179,-20.841 -0.6356,-9.2591 0.5812,-20.5607 2.8475,-26.4472 1.3032,-3.3851 8.323,-7.7118 12.512,-7.7118 1.6704,0 4.4022,-0.273 6.0706,-0.6067 3.0075,-0.6015 2.9289,-0.699 -9.1831,-11.3831 l -12.2165,-10.7765 -1.692,-7.0099 c -0.9305,-3.8555 -1.6987,-9.8706 -1.7069,-13.3669 -0.013,-5.3912 0.5534,-7.4676 3.7274,-13.6687 8.2148,-16.04987 19.5763,-27.19437 36.1841,-35.49317 l 10.3964,-5.195 10.6036,0 c 12.591,0 12.9129,0.1517 31.6035,14.9008 9.9299,7.8358 12.1924,9.2206 13.1153,8.0274 1.3183,-1.7046 3.4023,-8.6356 6.1964,-20.6087 2.4675,-10.5738 11.9899,-30.8307 18.5728,-39.50975 5.3386,-7.03853 9.0813,-10.32278 27.7885,-24.38484 10.3886,-7.80901 17.0753,-11.86501 30.327,-18.39568 14.7899,-7.28871 18.2356,-9.46238 26.5039,-16.71988 5.2271,-4.5881 11.1818,-9.37906 13.2327,-10.64659 5.7809,-3.57275 10.653,-9.93709 12.3527,-16.13592 3.3358,-12.16548 6.6133,-22.78932 8.5462,-27.70226 l 2.0362,-5.1754 -2.5858,-4.41245 c -1.4223,-2.42685 -2.5859,-5.05814 -2.5859,-5.84731 0,-0.78916 3.6071,-6.14963 8.0157,-11.91214 16.6023,-21.70085 28.1091,-38.00811 30.4917,-43.21239 1.355,-2.9598 3.3046,-10.30523 4.3324,-16.32318 2.3884,-13.98491 8.4079,-25.96199 18.866,-37.53788 6.3953,-7.07875 22.9894,-18.88291 33.5558,-23.86972 12.1408,-5.72989 15.3534,-6.7885 23.0181,-7.58491 6.8439,-0.71112 9.2702,-2.79826 13.8914,-11.94921 1.6665,-3.3 4.9431,-8.475 7.2814,-11.5 5.3537,-6.92602 13.9565,-20.64981 15.9796,-25.49184 0.8471,-2.02728 1.7767,-6.45845 2.0659,-9.84706 1.8528,-21.71084 4.8941,-36.54101 9.5405,-46.52337 3.4759,-7.46751 3.9243,-15.31832 1.3282,-23.25559 -1.2238,-3.74146 -1.5113,-7.327 -1.1467,-14.29885 0.4601,-8.79614 0.7546,-9.8096 5.3834,-18.52549 5.5869,-10.52013 14.4528,-21.62432 20.6937,-25.91821 4.435,-3.05134 13.2639,-6.13959 17.5523,-6.13959 1.3676,0 7.2484,-2.20034 13.0685,-4.88964 5.8202,-2.6893 12.1571,-5.21358 14.0821,-5.6095 1.925,-0.39593 4.8725,-1.74982 6.5499,-3.00864 4.7024,-3.52886 11.4501,-12.82687 11.4501,-15.7777 0,-1.4304 -1.428,-6.78883 -3.1732,-11.90762 -2.7854,-8.16927 -3.1794,-10.65149 -3.2238,-20.3069 -0.041,-8.96577 0.3767,-12.25128 2.2601,-17.76623 10.5528,-30.90003 43.9844,-42.19142 77.1369,-26.05269 10.5232,5.12275 19.3354,14.09765 24.8598,25.31892 5.722,11.62254 7.4774,21.48662 6.9366,38.97963 -0.3911,12.65329 -0.6807,14.28995 -4.5149,25.52037 -2.2534,6.6 -5.041,16.05 -6.1946,21 -2.5068,10.75607 -4.3403,13.54023 -10.1517,15.41554 l -4.3866,1.41554 6.4757,2.18886 c 16.8259,5.68735 23.1361,10.97562 29.3007,24.55528 7.4806,16.47853 8.063,19.02385 8.2197,35.92478 0.1855,20.01192 2.141,27.69835 10.7436,42.22944 7.3891,12.48134 9.2548,17.20927 11.2057,28.39648 1.7257,9.89575 1.9628,31.95403 0.4072,37.87408 -0.5781,2.2 -1.3884,7.93693 -1.8007,12.74873 -0.6232,7.27473 -1.1581,9.18486 -3.175,11.33732 -3.4808,3.71486 -8.7112,5.68735 -12.9255,4.87452 -4.2683,-0.82324 -12.6614,-0.93538 -28.5,-0.38077 l -12,0.4202 -8.8271,-4.2409 c -6.1389,-2.94941 -10.7293,-6.06753 -15.0734,-10.23899 l -6.2464,-5.99808 -2.9266,3.0847 c -5.9806,6.30388 -19.2838,15.25455 -30.9265,20.80798 -16.2113,7.73264 -19.4636,11.33542 -29.2966,32.45431 -4.0131,8.61919 -7.0633,16.04859 -6.7783,16.50979 0.285,0.46119 7.8435,4.77472 16.7966,9.58562 33.3945,17.94437 43.4136,24.22519 48.4427,30.36782 2.5522,3.11726 6.0343,8.59275 7.738,12.16775 l 3.0976,6.5 0.335,31.16965 c 0.3775,35.11512 0.2239,36.04031 -6.7505,40.65574 -5.0945,3.37138 -10.2402,4.6631 -18.5845,4.6653 -7.5896,0.002 -10.2691,-1.11815 -16.3558,-6.83747 -3.5301,-3.31708 -8.362,-4.17742 -12.1314,-2.16008 -1.0206,0.54623 -8.2083,8.46622 -15.9726,17.59997 l -14.1169,16.60683 0.5559,5.65003 c 0.3057,3.10752 3.737,60.26994 7.625,127.02761 5.8856,101.0552 6.8454,121.5812 5.7325,122.5939 -0.7352,0.6689 -65.4617,17.3548 -143.8367,37.0797 -155.1441,39.0455 -149.3792,37.839 -162.4873,34.0058 -12.9228,-3.779 -12.061,-2.7379 -35.9973,-43.485 l -21.6319,-36.8243 -3.9072,-0.5241 c -2.1489,-0.2882 -5.1319,-1.4874 -6.6289,-2.665 -2.5217,-1.9836 -2.7924,-2.0147 -3.6825,-0.4243 -0.5284,0.9442 -1.2978,6.9252 -1.7098,13.2912 -0.8256,12.7578 -2.4897,20.2638 -6.9772,31.4707 -3.1684,7.9126 -3.8725,17.0214 -2.0466,26.4741 0.662,3.4274 0.3333,6.2325 -1.5235,13 -1.3023,4.7464 -2.6421,10.8526 -2.9775,13.5694 -0.4679,3.7902 -1.3801,5.7101 -3.92,8.25 -3.0572,3.0572 -3.7958,3.309 -9.6603,3.2938 -4.722,-0.012 -7.3699,-0.594 -10.328,-2.2694 z m 16.9213,-5.9366 c 0.8562,-1.2224 1.5567,-4.1 1.5567,-6.3947 0,-2.2947 0.9526,-7.2564 2.117,-11.026 1.6757,-5.4255 1.9809,-8.209 1.4642,-13.3554 -0.3589,-3.5758 -0.9191,-9.7385 -1.2448,-13.6949 l -0.5922,-7.1936 4.5825,-7.1625 c 5.1546,-8.0566 5.3671,-9.0866 6.076,-29.4504 0.2681,-7.7 0.9293,-15.4575 1.4693,-17.2388 l 0.9819,-3.2388 -19.1769,-16.6895 c -10.5474,-9.1792 -20.302,-17.7086 -21.677,-18.9542 l -2.5,-2.2648 -11.5,4.5289 c -6.325,2.4909 -12.1136,5.1199 -12.8635,5.8423 -2.1594,2.0799 -5.2592,16.4258 -4.5409,21.0149 0.3444,2.2 2.1988,8.0496 4.121,12.999 5.7855,14.8974 6.434,19.8976 6.0895,46.9561 -0.2971,23.3411 -0.24,24.1685 1.9508,28.2686 2.185,4.0892 9.8889,10.0769 15.0881,11.7271 1.2023,0.3816 3.7485,3.1363 5.6581,6.1215 3.8832,6.0705 5.4969,6.8191 5.4969,2.5501 0,-3.3131 2.2413,-5.6275 4.5805,-4.7299 1.3091,0.5024 1.4809,1.5257 0.9293,5.5362 -0.6429,4.6742 -0.5351,4.9967 2.1568,6.4556 4.1427,2.2452 7.9443,2.0093 9.7767,-0.6068 z m -25.3155,-47.5275 c -2.0586,-8.1315 -2.2143,-15.131 -0.5841,-26.2473 1.5477,-10.5537 1.5438,-12.014 -0.061,-22.8878 -2.7624,-18.7191 -3.8747,-21.8072 -10.097,-28.0316 -3.8849,-3.8861 -5.2505,-5.9347 -4.833,-7.25 0.8829,-2.7817 2.0881,-2.2861 7.9719,3.2786 7.1022,6.717 9.1121,11.1829 11.4714,25.4887 2.3761,14.4084 2.458,19.7686 0.4931,32.2801 -1.319,8.3993 -1.3315,10.6339 -0.099,17.6193 0.7767,4.4 1.205,8.3375 0.9517,8.75 -0.2533,0.4125 -1.3166,0.75 -2.363,0.75 -1.3629,0 -2.1716,-1.0634 -2.8517,-3.75 z m 277.8694,-9.831 c 77.8239,-19.5695 141.6615,-35.7443 141.8612,-35.9441 0.4448,-0.4448 -13.718,-241.66784 -14.2183,-242.16813 -0.1962,-0.19621 -9.2776,10.09405 -20.1809,22.86725 l -19.824,23.22401 4.3971,86.78627 c 2.816,55.5798 4.0503,87.1083 3.4324,87.6818 -0.5306,0.4926 -52.4897,13.6428 -115.4647,29.2227 -62.975,15.5799 -114.6856,28.4566 -114.9124,28.6149 -0.2269,0.1583 0.099,1.4094 0.7231,2.7802 1.4854,3.2601 0.5406,5.5161 -2.3102,5.5161 -1.9513,0 -4.6596,-4.2045 -18.5188,-28.75 -8.9283,-15.8125 -16.8777,-29.7864 -17.6653,-31.053 l -1.432,-2.303 -4.6922,3.6086 c -6.9619,5.3542 -15.8376,9.358 -22.3877,10.099 -3.1925,0.3612 -5.7964,0.9361 -5.7865,1.2776 0.01,0.3414 8.8975,15.6626 19.75,34.0469 17.8853,30.2978 20.1029,33.6164 23.6954,35.4588 5.2934,2.7147 12.0435,4.4652 17.5362,4.5476 2.7899,0.042 58.2615,-13.4514 145.9976,-35.5135 z m -303.7641,9.831 c 0.4265,-26.9885 -0.5713,-33.6684 -8.1466,-54.5382 -2.4097,-6.6386 -3.1862,-10.4299 -3.1749,-15.5 0.024,-10.9443 -1.9043,-31.3155 -3.5037,-37.0031 -0.9001,-3.2013 -2.9162,-6.8724 -5.1039,-9.294 -2.4202,-2.6788 -3.2841,-4.3346 -2.6122,-5.0065 1.9315,-1.9315 5.8847,1.1611 9.2053,7.2014 2.7654,5.0301 3.4468,7.6348 4.3602,16.6662 0.5954,5.8875 1.2873,10.0339 1.5374,9.2143 1.4209,-4.6553 10.4759,-10.6847 20.9911,-13.9771 l 5.2857,-1.655 -14.5133,-12.5869 c -14.4488,-12.5308 -14.5323,-12.5846 -18.7858,-12.0929 -7.389,0.8542 -14.2863,3.174 -16.4728,5.5405 -3.8462,4.1626 -4.2915,8.5543 -3.2298,31.8482 1.0776,23.6425 0.8498,25.8333 -4.5539,43.7964 -4.3703,14.5278 -3.0122,20.4907 6.2202,27.3111 4.2178,3.1159 6.0644,5.3881 8.2644,10.169 3.251,7.0651 7.9058,13.1822 7.9635,10.4656 0.02,-0.93 -0.414,-1.9691 -0.964,-2.309 -1.5985,-0.9879 -1.155,-4.5033 0.6558,-5.1981 2.5051,-0.9614 5.3442,3.2083 5.3442,7.8487 0,4.8446 3.3344,11.6429 6.2953,12.835 4.6697,1.88 4.692,1.818 4.9378,-13.7356 z m 393.3025,-72.524 c 0.1569,-0.2298 -8.2083,-159.85497 -8.42,-160.67217 -0.064,-0.2454 -1.5781,0.9557 -3.3656,2.669 -4.1171,3.9462 -12.7597,6.4935 -22.2388,6.5545 -5.9128,0.038 -8.5809,-0.5344 -15.0967,-3.2396 -11.9751,-4.9717 -22.7905,-10.593 -34.4145,-17.8868 -7.1107,-4.4618 -13.0115,-7.3172 -18.2807,-8.8458 -7.9423,-2.3042 -20.6519,-4.8205 -21.0477,-4.1673 -0.1207,0.1992 -1.7837,3.6825 -3.6955,7.7406 -3.6763,7.8034 -8.0617,12.4933 -18.2302,19.4967 -5.9546,4.1011 -17.2338,8.6249 -21.5043,8.6249 -5.4956,0 -14.3055,11.8257 -27.7007,37.18337 -6.7589,12.7947 -12.0433,18.1429 -30.9161,31.2888 -7.3514,5.1207 -14.7576,11.2182 -17.572,14.4668 l -4.8647,5.6154 4.0137,3.3697 c 2.5083,2.1059 5.1743,5.8462 7.1082,9.9728 2.6403,5.6337 3.0979,7.7775 3.1175,14.6031 0.032,10.99 -2.1257,15.0498 -14.8485,27.9434 l -10.1825,10.3191 11.8338,20.8687 c 6.5086,11.4779 13.1375,23.1678 14.7307,25.9778 l 2.8969,5.109 114.2618,-28.3831 c 62.8439,-15.6106 114.3311,-28.4847 114.4159,-28.6089 z m -281.2887,12.9416 c 10.2426,-5.0112 36.1457,-28.7248 40.4328,-37.015 1.1416,-2.2077 1.4381,-4.9155 1.1056,-10.097 -0.8177,-12.7405 -0.1818,-12.0464 -49.2077,-53.7201 -63.7156,-54.16037 -67.8254,-57.42427 -77.8401,-61.81827 -9.6643,-4.2402 -15.824,-3.4396 -30.4493,3.9575 -12.9191,6.5341 -23.56,17.58867 -30.7961,31.99337 -2.5139,5.0045 -2.7007,6.1489 -2.2027,13.5 0.2993,4.4175 1.0662,9.3819 1.7043,11.0319 1.7407,4.5012 115.7013,103.7646 120.1795,104.6802 1.8298,0.3742 7.4667,0.5505 12.5265,0.392 7.515,-0.2355 10.1789,-0.7674 14.5472,-2.9046 z m 31.6832,-80.537 c 0.5503,-1.0281 6.9786,-7.1758 14.2852,-13.6615 26.6791,-23.6817 31.845,-29.4371 40.812,-45.4691 10.4474,-18.67867 20.0141,-29.99997 25.3507,-29.99997 2.8481,0 16.5726,-5.6089 23.1355,-9.4551 5.6889,-3.3338 11.6508,-11.2039 15.2298,-20.1042 2.5217,-6.2706 3.3124,-7.25222 8.1903,-10.16721 2.9696,-1.77458 10.3869,-5.32775 16.4828,-7.89594 6.195,-2.6099 13.73,-6.68623 17.0836,-9.24196 10.6976,-8.15247 24.855,-23.07232 28.9514,-30.51052 4.2813,-7.77398 4.3429,-10.36203 0.5163,-21.72111 -5.2733,-15.65345 -12.0845,-25.33413 -24.3758,-34.64522 -3.3506,-2.53813 -8.3939,-6.75293 -11.2075,-9.36623 -3.3177,-3.08162 -6.3049,-4.93498 -8.5,-5.27367 -1.8614,-0.28723 -9.4582,-1.49892 -16.8816,-2.69265 l -13.4973,-2.17043 -9.1835,9.64203 c -11.5251,12.10053 -16.3275,20.94762 -30.0195,55.3025 -0.3118,0.78236 0.4718,1.13056 2.2504,1 4.6575,-0.34188 3.8089,1.92717 -2.7472,7.34538 -3.4681,2.86624 -7.6369,6.84101 -9.2639,8.83283 -1.627,1.99182 -4.8895,5.80766 -7.25,8.47964 -2.3605,2.67199 -4.2918,5.18155 -4.2918,5.57681 0,0.39526 1.35,0.52052 3,0.27835 3.2039,-0.47024 3.7703,0.47327 1.75,2.91553 -2.147,2.59544 -6.2191,4.68022 -20.4577,10.47369 -16.9532,6.89803 -18.2967,7.58085 -34.637,17.60499 -21.3967,13.12609 -32.392,25.52819 -37.0516,41.79249 -0.8667,3.025 -1.9757,10.9368 -2.4645,17.5818 -0.9693,13.17697 -2.037,16.41117 -5.4244,16.43127 -2.9148,0.017 -8.7388,11.3565 -6.8247,13.2875 4.4802,4.5199 43.8503,37.5674 44.8247,37.6261 0.6682,0.04 1.665,-0.7679 2.2153,-1.7961 z m -22.5501,-34.5827 c -0.7953,-2.0726 0.3953,-3.5479 2.8633,-3.5479 4.278,0 10.7688,-4.2828 17.8844,-11.8005 4.0082,-4.2347 11.5872,-11.9745 16.8422,-17.19947 9.8921,-9.8356 18.5203,-19.5767 23.4727,-26.5 3.3564,-4.6923 9.663,-11.5 10.6534,-11.5 1.4136,0 1.8575,3.2184 0.7334,5.3187 -2.5441,4.7537 -18.5219,25.5532 -24.2486,31.5661 -12.2914,12.90577 -32.3051,30.76537 -36.8928,32.92177 -5.379,2.5284 -10.4936,2.8637 -11.308,0.7413 z m 89.62,-92.03973 c 0,-0.82052 4.3875,-4.70214 9.75,-8.62582 13.9055,-10.17452 16.8869,-13.31207 21.7431,-22.88233 4.8243,-9.50716 9.7837,-15.12316 11.6803,-13.22658 1.4935,1.49352 -0.7718,6.65393 -7.9946,18.21171 -6.4032,10.24623 -9.7789,13.92832 -17.6788,19.28306 -3.3,2.23684 -7.272,5.11656 -8.8267,6.39939 -3.2227,2.6591 -8.6733,3.18735 -8.6733,0.84057 z m 49.0089,-61.99744 c -0.9809,-1.18195 -0.6463,-2.68686 1.7211,-7.73899 3.8166,-8.1452 15.0655,-26.31069 22.0092,-35.54217 5.8087,-7.72245 8.7815,-10.10884 10.4787,-8.41163 0.671,0.67093 -2.1038,5.33178 -8.3777,14.07231 -5.1595,7.18801 -12.4418,18.69678 -16.1828,25.57504 -3.741,6.87826 -7.1683,12.73246 -7.6163,13.00932 -0.448,0.27686 -1.3625,-0.15688 -2.0322,-0.96388 z M 1586.3182,915.7312 c 5.0644,-8.0585 7.6757,-15.3418 7.6757,-21.40897 l 0,-5.3924 -3.0482,1.5763 c -1.9407,1.0036 -4.938,1.4671 -8.25,1.2757 -4.5929,-0.2654 -5.2407,-0.5754 -5.5341,-2.6481 -0.3051,-2.1549 -0.073,-2.2905 2.8312,-1.6528 2.4511,0.5384 4.5723,0.001 9.4187,-2.3845 5.6219,-2.7677 6.383,-3.5115 7.5185,-7.3473 2.0493,-6.9225 9.6439,-20.8013 14.9947,-27.4021 8.477,-10.4573 23.6402,-20.2854 46.0692,-29.86001 14.7948,-6.3157 22.103,-11.53543 29.1145,-20.79461 3.4199,-4.51615 7.3901,-9.57195 8.8227,-11.23511 3.2773,-3.8048 9.7692,-16.26145 14.5798,-27.97608 5.7781,-14.07034 12.1847,-26.44527 16.5428,-31.95426 2.1955,-2.77516 5.7903,-7.29574 7.9884,-10.04574 3.5973,-4.50032 3.9354,-5.39975 3.3833,-9 -0.3374,-2.2 -1.2909,-4.53133 -2.1189,-5.18073 -2.0092,-1.5759 -13.0947,-2.70083 -18.1682,-1.84367 -3.7985,0.64175 -4.3489,1.18538 -8.4604,8.35541 -5.4682,9.53607 -7.9116,16.07805 -11.6484,31.18756 -3.3079,13.37528 -4.978,17.04467 -11.4757,25.21227 -4.6721,5.87288 -9.0381,8.23142 -10.5899,5.72066 -1.12,-1.81228 -8.7986,4.54828 -14.0148,11.60918 -3.7185,5.03351 -5.142,5.95443 -23.8944,15.45792 -10.9672,5.55804 -24.58,13.17381 -30.2506,16.92393 -12.1256,8.01897 -26.3643,22.24788 -32.093,32.07098 -4.1309,7.0833 -8.5632,20.234 -11.7447,34.8469 -1.1209,5.1483 -2.6982,10.9407 -3.5052,12.8722 -0.807,1.9314 -1.4673,3.67607 -1.4673,3.87707 0,0.3961 23.2833,20.3903 23.7446,20.3903 0.1542,0 1.765,-2.3625 3.5797,-5.25 z m 82.3608,-112.12812 c -0.684,-1.78266 1.179,-3.62186 3.6688,-3.62186 1.0747,0 4.8143,-1.59964 8.3104,-3.55474 5.343,-2.98797 6.4524,-3.30483 6.958,-1.98727 0.8192,2.13485 -1.0933,4.19715 -7.0732,7.62712 -5.3813,3.08667 -10.9904,3.81322 -11.864,1.53675 z m 191.6002,66.98565 c 3.1818,-0.7487 6.7345,-2.2042 7.8947,-3.2344 2.0837,-1.8503 22.6815,-25.7725 65.102,-75.60954 23.2289,-27.29011 23.7884,-27.76357 32.809,-27.76357 4.3226,0 5.3529,0.49033 10.5064,5 5.6605,4.95335 5.7774,5 12.538,5 7.8104,0 14.0399,-2.09247 16.244,-5.45626 2.045,-3.12111 3.0409,-29.49303 1.84,-48.72436 -0.7975,-12.76993 -1.2632,-15.3887 -3.5786,-20.12114 -4.0874,-8.35432 -9.8787,-14.18466 -20.0074,-20.14215 -10.8266,-6.36798 -44.8078,-24.55342 -45.8834,-24.55499 -0.4125,-6.1e-4 -0.75,0.7329 -0.75,1.63001 0,1.75522 -6.4224,17.44216 -10.7607,26.28351 -1.9949,4.06565 -4.9892,7.429 -12.0184,13.5 -9.6026,8.29371 -19.1077,20.46825 -24.7825,31.74287 -5.348,10.62535 -12.1427,19.58323 -24.5321,32.34251 -6.9428,7.15 -14.3091,15.7 -16.3696,19 -6.3185,10.11932 -12.4442,15.5 -17.6462,15.5 -1.4422,0 -5.7112,3.40334 -12.2996,9.80554 -11.1595,10.84392 -27.4555,22.8751 -39.0381,28.82141 -4.1493,2.13018 -7.5392,4.09805 -7.533,4.37305 0.01,0.275 4.8418,1.67651 10.7457,3.11441 9.3088,2.2672 11.9963,3.4355 20.2345,8.7959 9.8279,6.3948 32.1145,17.8002 40,20.4704 5.6278,1.9057 9.9111,1.9619 17.2852,0.2268 z m 37.7177,-104.60567 c -1.0661,-0.65887 -1.1429,-1.3993 -0.3303,-3.18283 1.2949,-2.84199 27.4014,-32.8234 46.6631,-53.5892 17.5161,-18.88377 18.9596,-19.72981 33.6642,-19.72981 9.3572,0 10.9898,0.27372 15,2.51503 3.0107,1.68266 4.6108,3.29288 4.8347,4.86533 0.5405,3.79648 -1.282,4.64938 -4.7137,2.20582 -6.0313,-4.29469 -11.9493,-6.29022 -16.4382,-5.54293 -12.7123,2.1163 -21.7852,8.9392 -37.3707,28.10329 -14.7201,18.09983 -36.5054,43.38653 -38.1263,44.25401 -1.0249,0.5485 -2.389,0.59191 -3.1828,0.10129 z m -23.8327,-24.21353 c 1.5781,-2.35857 7.0228,-11.66716 12.0994,-20.68575 7.1152,-12.63997 10.2531,-17.22296 13.6936,-20 8.512,-6.87042 18.2453,-16.62284 20.6139,-20.6544 4.0155,-6.83458 10.5792,-25.58673 10.694,-30.55217 0.2477,-10.7193 -9.9534,-23.28604 -33.1271,-40.80908 -14.4109,-10.89699 -17.3831,-12.65364 -24.5818,-14.52866 -6.7998,-1.77113 -7.0212,-1.91992 -6.1676,-4.14435 1.6103,-4.19656 16.559,1.86382 32.6053,13.21863 5.225,3.69735 15.0728,12.28233 21.8839,19.07774 6.8111,6.7954 12.471,12.22803 12.5774,12.0725 0.1064,-0.15552 0.7589,-1.70444 1.4499,-3.44204 1.5501,-3.89815 1.4466,-4.11228 -9.2925,-19.21809 -6.2535,-8.79645 -10.1334,-13.05635 -17.1035,-18.77879 -4.9584,-4.07078 -11.2652,-8.49608 -14.0152,-9.83401 -13.2648,-6.45354 -55.4304,-15.61244 -70.881,-15.39622 l -8.119,0.11361 8.8383,1.37863 c 9.8446,1.5356 18.069,4.66406 17.4223,6.62726 -0.7129,2.16446 -4.2148,1.97482 -13.4028,-0.72584 -4.8718,-1.43196 -12.6828,-2.85621 -17.3578,-3.16499 l -8.5,-0.56142 -9,4.75062 c -20.0949,10.60706 -32.6108,20.82776 -40.9841,33.46851 -5.2017,7.85262 -6.9343,11.88888 -9.6218,22.41465 -1.7211,6.741 -1.9436,9.68291 -1.3694,18.1073 0.5823,8.54293 0.4457,10.25776 -0.9068,11.38021 -2.1446,1.77988 -4.6179,0.67387 -4.6179,-2.06505 0,-2.06602 -0.1614,-2.00916 -2.25,0.79268 -1.2375,1.66009 -4.3092,5.46002 -6.8259,8.44428 -2.5167,2.98426 -7.2136,9.25093 -10.4376,13.92593 -3.2239,4.675 -8.0272,11.12685 -10.6741,14.33745 -2.6468,3.21059 -4.7839,6.58559 -4.749,7.5 0.046,1.19895 0.3095,1.0514 0.9462,-0.52915 2.7442,-6.81284 20.9656,-10.50287 32.8731,-6.65717 l 5.1124,1.65112 10.2063,-10.77014 c 12.7078,-13.40985 15.5867,-16.96611 17.9092,-22.12324 1.6562,-3.67763 1.7263,-4.959 0.6936,-12.67761 -1.1113,-8.30567 -1.0677,-8.74418 1.3328,-13.40887 3.7062,-7.20174 5.4356,-6.45634 5.0522,2.17761 -0.1709,3.85 0.1424,10.10656 0.6963,13.90347 0.8374,5.74003 0.7403,7.42534 -0.5762,10 -4.0602,7.94039 -14.6591,21.93892 -23.0593,30.45575 -5.0875,5.15814 -9.25,9.77496 -9.25,10.2596 0,0.48465 0.9,-0.0188 2,-1.11882 1.1453,-1.14532 3.3333,-2 5.1201,-2 6.208,0 32.4518,4.2629 35.3799,5.74693 6.2705,3.17799 25.2898,18.25207 32.0876,25.43156 6.6864,7.06183 7.3484,8.19381 11.6946,19.99542 2.5338,6.8804 4.8932,14.94348 5.243,17.91795 0.3499,2.97448 0.7981,5.93779 0.9961,6.58514 0.448,1.46513 33.7248,-32.02342 37.649,-37.88869 z m -29.1703,10.17185 c 0,-6.30568 5.8879,-14.58653 23.4489,-32.97889 10.4402,-10.93448 11.3659,-12.25227 16.7472,-23.8407 4.361,-9.39137 5.3028,-12.19071 4.018,-11.94329 -0.9229,0.17774 -3.4369,2.68107 -5.5866,5.56294 -4.5113,6.04778 -7.6275,6.97707 -7.6275,2.27458 0,-6.73349 13.4028,-16.03235 23.1104,-16.03401 2.5358,-4.3e-4 6.6829,-0.28484 9.2158,-0.63202 4.0638,-0.557 4.7174,-0.99798 5.5581,-3.75 0.5241,-1.71532 1.1508,-8.31 1.3928,-14.65483 0.4505,-11.81032 2.9882,-20.96394 5.8121,-20.96394 1.3049,0 0.9081,10.99436 -1.0467,29 -1.5079,13.88954 -2.7216,15.43918 -13.3941,17.10153 -4.2487,0.66177 -6.7057,1.62123 -7.9521,3.10523 -0.9921,1.18115 -4.7859,8.03033 -8.4306,15.22039 -5.5984,11.04398 -7.5658,13.92644 -12.6769,18.57285 -13.3825,12.16563 -20.5108,20.09316 -25.5107,28.37077 -2.8668,4.74608 -5.6321,8.62923 -6.1452,8.62923 -0.5131,0 -0.9329,-1.36793 -0.9329,-3.03984 z m -89.8795,-92.21016 c -5.7996,-4.84757 -6.6671,-7.75 -2.3163,-7.75 2.8683,0 10.6121,4.339 13.0577,7.31647 1.992,2.42524 0.6767,4.68353 -2.7279,4.68353 -1.9814,0 -4.5736,-1.37483 -8.0135,-4.25 z m 188.8803,-40.12244 c 0,-2.57938 6.0903,-13.72261 9.6517,-17.66464 5.1,-5.64516 9.5918,-8.35537 17.9961,-10.85827 4.2105,-1.25395 7.9248,-3.08608 9.3656,-4.61979 1.3133,-1.39794 5.7849,-4.53718 9.9368,-6.97608 10.0647,-5.9121 10.9523,-6.72098 17.5684,-16.00878 9.6245,-13.51102 14.715,-25.05964 14.7068,-33.36463 -0.01,-7.43043 -1.9947,-12.92894 -6.4005,-17.70864 l -4.0484,-4.39201 -2.1625,3.20884 c -3.0171,4.47711 -6.6732,6.7022 -19.216,11.69462 -24.3091,9.67583 -31.875,15.69188 -36.2939,28.85931 -2.7559,8.21189 -5.5326,11.92235 -7.6235,10.1871 -1.6221,-1.34624 -0.5161,-5.00767 4.5423,-15.03743 7.3014,-14.47703 14.4085,-21.00454 29.264,-26.8776 20.4359,-8.07925 27.2787,-13.59397 30.1836,-24.32553 1.5676,-5.79118 1.6625,-8.00358 0.7482,-17.43835 -1.2911,-13.32329 -2.975,-17.62129 -7.801,-19.91139 -4.6053,-2.18533 -7.6661,-6.91074 -10.8639,-16.77193 -2.594,-7.99905 -3.1592,-11.6347 -1.8046,-11.60705 2.014,0.0411 3.5809,2.26128 6.2844,8.90465 5.2916,13.00299 8.9329,16.05938 19.1835,16.102 6.2805,0.0261 12.5912,2.64862 15.6107,6.48727 4.0019,5.0876 2.1273,8.00745 -2.5916,4.03671 -2.7305,-2.29757 -9.2579,-4.46483 -13.6178,-4.52149 -1.6255,-0.0211 -1.792,0.48475 -1.2264,3.72555 0.36,2.0625 1.2932,10.725 2.0739,19.25 1.5153,16.54757 2.7134,21.23022 7.1986,28.13575 2.6923,4.14502 2.8413,4.97387 2.9651,16.49985 0.1252,11.65181 0.2597,12.3783 3.375,18.22321 2.9306,5.49824 7.6955,10.68551 16.8109,18.30096 2.8658,2.39417 3.1837,3.20577 3.1837,8.12756 0,6.35221 -2.0657,9.32691 -3.9857,5.73946 -0.6188,-1.15628 -0.8391,-3.00331 -0.4896,-4.1045 0.4983,-1.57006 -1.3213,-4.04894 -8.4313,-11.48615 -4.9868,-5.2162 -9.7593,-10.82323 -10.6058,-12.46007 -0.8464,-1.63684 -1.7313,-2.97607 -1.9665,-2.97607 -0.2351,0 -1.3037,1.9125 -2.3746,4.25 -1.0709,2.3375 -4.0169,6.72181 -6.5468,9.74291 -2.5298,3.0211 -4.5997,5.9308 -4.5997,6.466 0,1.99147 14.679,15.23646 19.5,17.59498 4.6874,2.29318 5.8128,2.42147 18,2.05197 12.597,-0.38192 22.763,-0.4547 30.9738,-0.22174 6.8454,0.19421 7.779,-1.64668 8.9349,-17.61812 2.8486,-39.36241 0.451,-53.18478 -13.3071,-76.71628 -8.1139,-13.87785 -9.5934,-19.12758 -8.3788,-29.73046 1.2823,-11.19458 0.092,-21.57675 -3.6486,-31.81926 -6.6456,-18.19777 -11.6134,-24.13132 -24.6666,-29.46187 -15.4571,-6.31226 -19.0335,-8.38421 -26.8335,-15.54586 -5.3142,-4.87919 -10.0923,-8.23426 -14.5,-10.1814 -10.1887,-4.50092 -10.78,-4.87003 -11.9636,-7.46779 -1.6796,-3.6863 -1.4599,-14.34308 0.2957,-14.34308 0.9261,0 1.6373,1.68062 2.0832,4.92265 0.3723,2.70746 1.2021,5.57493 1.8438,6.37215 1.202,1.49317 7.67,4.03539 8.4027,3.30264 0.2264,-0.22637 -0.2966,-1.78105 -1.1622,-3.45485 -1.9777,-3.82455 -1.9846,-6.72731 -0.029,-12.26686 0.8497,-2.40665 1.3079,-5.32142 1.0183,-6.47727 -0.6244,-2.49177 0.1023,-3.46411 2.0347,-2.72257 1.6418,0.63 1.8619,6.23468 0.4396,11.1938 -1.0911,3.80451 0.3741,7.39477 7.0215,17.20477 4.808,7.0956 9.8656,11.53295 14.6638,12.86541 11.04,3.06584 16.2774,-0.47591 16.2774,-11.00755 0,-2.07307 1.5588,-8.74095 3.464,-14.81749 6.2911,-20.0654 6.8388,-22.90687 6.8647,-35.61483 0.029,-13.96301 -1.6349,-21.44405 -7.0753,-31.82128 -9.6934,-18.48982 -26.8944,-29.16106 -46.7534,-29.0052 -20.9579,0.16448 -37.0812,10.85952 -44.4382,29.47703 -3.0972,7.83791 -3.1187,8.01637 -2.1245,17.63375 0.6101,5.90195 2.2158,13.24851 4.0906,18.7157 3.7352,10.89215 3.499,13.51693 -1.9713,21.91317 -5.0106,7.69051 -8.3593,10.93404 -13.7965,13.36309 l -4.2398,1.89416 2.4898,2.3391 c 2.6331,2.47368 3.491,7.99665 1.2399,7.98278 -1.6513,-0.0102 -6.0272,-7.73472 -5.1687,-9.12386 0.9793,-1.58448 -2.5866,-0.36657 -13.5813,4.63858 -5.225,2.37861 -11.525,4.61857 -14,4.9777 -11.1109,1.61221 -13.4622,3.03255 -22.0941,13.34583 -9.2777,11.08493 -12.3108,16.47913 -14.4481,25.69508 -1.621,6.98954 -1.0683,18.31672 0.7363,15.09198 0.4979,-0.88969 1.5493,-1.61761 2.3365,-1.61761 4.7971,0 2.165,18.68312 -5.1726,36.71592 -4.4449,10.92397 -5.6708,15.28271 -6.883,24.47399 -0.8113,6.15061 -1.475,12.68528 -1.475,14.52149 0,1.83621 -0.9006,5.90104 -2.0014,9.03295 -2.2056,6.27528 -14.2685,27.377 -22.6073,39.54714 -3.3609,4.90516 -4.8853,7.93865 -4.115,8.18874 0.6731,0.21848 7.7487,0.94677 15.7237,1.61842 7.975,0.67164 14.7077,1.26171 14.9615,1.31126 0.8687,0.16956 15.1759,-17.901 20.514,-25.90991 2.9327,-4.4 8.7751,-14.8625 12.9833,-23.25 7.2634,-14.47735 10.5688,-18.56092 10.5225,-13 -0.028,3.36561 -12.2954,30.05113 -16.5656,36.03564 -2.0463,2.8679 -7.7568,10.07205 -12.69,16.00923 -4.9331,5.93718 -8.802,10.92144 -8.5975,11.07612 0.4539,0.34337 27.9148,9.54239 29.5081,9.8848 1.4345,0.3083 13.1275,-17.33492 14.9932,-22.62277 0.9154,-2.59456 1.3451,-7.76591 1.25,-15.04336 -0.1656,-12.67054 0.897,-24.50716 2.3644,-26.33966 0.5505,-0.6875 1.671,-1.25 2.4898,-1.25 1.1376,0 1.3457,0.76685 0.882,3.25 -2.5621,13.72007 -2.569,25.41811 -0.022,36.83802 0.4566,2.04717 -0.1953,3.40557 -3.1192,6.5 -3.2177,3.40522 -13.1416,21.10657 -12.2872,21.91676 0.1718,0.16293 3.7603,2.59707 7.9744,5.40918 10.5768,7.05808 22.8305,20.7767 29.3239,32.82953 2.235,4.14861 3.1056,5.01047 4.1695,4.12755 0.7395,-0.61376 1.345,-1.62333 1.3454,-2.24348 z m 113.5234,-65.37756 c 0.4165,-1.5125 0.8043,-4.8423 0.8617,-7.39955 0.09,-4.00867 -0.5689,-5.63494 -4.7804,-11.79863 l -4.8847,-7.14908 0.664,-10.20137 c 0.6257,-9.61193 0.8335,-10.35717 3.5954,-12.89776 3.3543,-3.08546 9.1217,-4.50274 12.9214,-3.17528 1.959,0.6844 2.6755,1.70308 2.9118,4.13972 0.3546,3.65762 -0.5193,3.95253 -4.9393,1.66687 -2.7489,-1.42156 -3.2473,-1.4204 -5.4344,0.0127 -3.1188,2.04351 -3.8003,5.03213 -3.2176,14.11117 0.4127,6.4317 0.9898,8.2408 4.3623,13.6767 3.3971,5.4754 3.8885,7.03252 3.9012,12.36087 0.016,6.58027 -1.403,9.40369 -4.7246,9.40369 -1.6924,0 -1.8795,-0.41617 -1.2368,-2.75 z m -223.5242,1.26254 c 0,-0.2681 1.7268,-1.57756 3.8374,-2.90991 3.2037,-2.02237 4.3856,-3.79985 7.1564,-10.76254 5.6169,-14.11454 9.2506,-18.4642 21.9223,-26.2416 5.9452,-3.64893 8.1714,-5.74639 11.2246,-10.5751 2.0946,-3.31287 4.1799,-6.02339 4.6339,-6.02339 1.2666,0 3.2254,2.2453 3.2254,3.69712 0,2.15068 -6.9428,9.16292 -17,17.16998 -11.8256,9.41499 -14.3764,12.1895 -16.5584,18.01028 -4.8247,12.871 -9.3621,18.11028 -15.6916,18.11888 -1.5125,0.002 -2.75,-0.21561 -2.75,-0.48372 z m 85,-49.85755 c 0,-3.31017 2.1682,-4.93008 14.1867,-10.59921 13.3292,-6.28736 15.4449,-8.62824 18.7102,-20.7023 1.1696,-4.32486 3.7588,-6.41433 4.7494,-3.83279 0.3139,0.81784 -1.3464,6.25686 -3.6895,12.08671 -4.8813,12.14562 -8.1949,15.46983 -17.3052,17.36114 -5.7171,1.18686 -11.3985,4.20832 -12.2922,6.53718 -0.9596,2.50078 -4.3594,1.83731 -4.3594,-0.85073 z m -15.6879,-13.90499 c 0.2999,-1.2375 1.4945,-4.95 2.6547,-8.25 2.799,-7.96135 11.826,-43.54162 14.0809,-55.5 2.9979,-15.8991 4.8372,-22.88515 7.4539,-28.3118 5.2192,-10.8239 24.0041,-34.6882 27.305,-34.6882 2.969,0 0.6749,5.06019 -5.764,12.71377 -12.2813,14.59807 -19.4625,29.15075 -22.5936,45.78623 -5.2665,27.98021 -14.8174,60.9245 -19.6415,67.75 -2.3523,3.32816 -4.2464,3.59911 -3.4954,0.5 z m -15.8742,-2.85051 c -0.3444,-0.55724 -0.3621,-2.06537 -0.039,-3.35139 0.3657,-1.45716 -0.3953,-4.48358 -2.0197,-8.0316 -3.258,-7.1165 -3.0493,-15.07762 0.5478,-20.89796 3.1339,-5.0707 4.8557,-3.4848 3.0846,2.84104 -1.4196,5.07047 -0.9106,11.01171 1.6355,19.08879 0.8997,2.85422 1.3511,6.32383 1.0031,7.71026 -0.6818,2.71676 -3.1923,4.29078 -4.212,2.64086 z m 79.0621,-19.42833 c -2.2,-0.79257 -4.1125,-1.44782 -4.25,-1.4561 -0.1375,-0.008 -0.25,-0.91506 -0.25,-2.01506 0,-2.21914 0.5218,-2.29666 7,-1.03994 3.8567,0.74818 5.5721,0.45671 12,-2.03894 8.4887,-3.29578 10,-3.52084 10,-1.48921 0,2.93482 -12.1668,9.54122 -17.5,9.50224 -1.65,-0.0121 -4.8,-0.67041 -7,-1.46299 z m -13.2568,-7.46947 c -4.4426,-2.70169 -5.5654,-5.47846 -5.6599,-13.99748 -0.083,-7.52174 1.9702,-16.39818 3.5658,-15.41205 0.468,0.28923 0.8509,4.73979 0.8509,9.89013 0,8.463 0.2344,9.64278 2.4351,12.25817 2.7198,3.23233 4.2032,7.74701 2.8253,8.59862 -0.4959,0.3065 -2.3037,-0.29533 -4.0172,-1.33739 z m -57.7468,-23.25169 c 0.7177,-7.44113 3.0902,-14.38726 5.5911,-16.36968 0.7769,-0.61582 3.2125,-1.68375 5.4125,-2.37317 10.0861,-3.16073 12.4779,-12.41711 4.2208,-16.33534 -1.8949,-0.8992 -3.8988,-2.20571 -4.4531,-2.90336 -1.381,-1.73796 -2.3131,-18.62238 -1.0705,-19.39034 1.8575,-1.148 3.0167,1.46051 3.7934,8.53654 0.4289,3.90709 1.2761,7.70183 1.8827,8.43274 0.6066,0.7309 2.9039,1.8685 5.1051,2.528 2.912,0.87245 4.1706,1.86994 4.6203,3.66184 1.5494,6.17341 -2.5407,12.92653 -12.1198,20.01058 -7.5828,5.60778 -7.8697,6.10714 -9.02,15.70219 -0.5801,4.83871 -1.0041,5.75 -2.6756,5.75 -1.8634,0 -1.943,-0.44865 -1.287,-7.25 z m -6.4964,3.54056 c -4.4027,-1.61885 -9.9805,-11.00252 -9.9805,-16.79056 0,-2.68439 2.3419,-8.3182 6.4431,-15.5 0.7852,-1.375 1.6827,-3.33818 1.9944,-4.36262 0.4637,-1.52409 0.8371,-1.63815 2.0548,-0.62756 2.1081,1.74953 1.8904,3.67575 -1.5885,14.05968 -3.5301,10.53682 -3.3613,12.33306 1.6844,17.91802 4.1347,4.57668 3.8631,6.94694 -0.6077,5.30304 z m 66.6875,-14.93639 c -1.1855,-1.18548 -0.7593,-3.93755 1.3471,-8.69937 1.9303,-4.36384 1.9559,-4.90279 0.5,-10.52147 -1.8983,-7.32562 -1.9418,-10.13333 -0.157,-10.13333 1.8915,0 3.3865,1.99389 6.6168,8.82435 3.1084,6.57257 6.6139,9.82394 11.6005,10.75943 4.9527,0.92913 7.9947,-0.1643 12.8127,-4.6054 4.1629,-3.83718 10.0096,-6.97838 12.9888,-6.97838 1.8856,0 4.788,2.89262 4.0693,4.05553 -0.304,0.49185 -2.4456,0.6594 -4.7592,0.37231 -4.1058,-0.50948 -4.2702,-0.41509 -6.8673,3.94358 -3.3743,5.66302 -6.671,7.80992 -12.9141,8.4098 -5.8767,0.56467 -12.5046,-1.64025 -15.9478,-5.30542 l -2.3241,-2.47388 -2.1443,6.18827 c -2.0661,5.96255 -3.3638,7.62161 -4.8214,6.16398 z m 82.4793,-6.10417 c -0.497,-0.9625 -1.4232,-3.36327 -2.0583,-5.33505 -1.644,-5.1041 -6.0529,-8.96368 -10.9969,-9.62681 -3.1791,-0.4264 -4.1116,-0.98235 -4.1116,-2.45119 0,-2.92819 2.3966,-3.19739 7.6771,-0.86236 8.3981,3.71358 13.3229,9.80381 13.3229,16.47575 0,3.88644 -2.2181,4.92781 -3.8332,1.79966 z m -77.1668,-45.08948 c 0,-1.99048 2.4527,-3.39753 8.9919,-5.15834 4.8975,-1.31876 9.5859,-0.54487 10.4573,1.72614 0.9537,2.48521 -1.1151,3.96144 -3.4809,2.48394 -1.5302,-0.9556 -3.0097,-0.97883 -6.4921,-0.10196 -2.4806,0.62463 -4.7541,1.53034 -5.0522,2.0127 -1.0361,1.67642 -4.424,0.93935 -4.424,-0.96248 z m 14,-36.71222 c -2.2,-0.82535 -5.488,-1.09687 -8.8521,-0.731 -4.8094,0.52304 -5.3165,0.39671 -5,-1.2457 0.4703,-2.44104 5.2267,-3.68707 11.2751,-2.95372 6.1821,0.74956 8.577,2.01091 8.577,4.5173 0,2.21934 -1.0017,2.28831 -6,0.41312 z"
       id="path3335"
       inkscape:connector-curvature="0" />
  </g>
</svg>
