<?xml version="1.0" encoding="UTF-8" standalone="no"?>
<!-- Created with Inkscape (http://www.inkscape.org/) -->

<svg
   xmlns:dc="http://purl.org/dc/elements/1.1/"
   xmlns:cc="http://creativecommons.org/ns#"
   xmlns:rdf="http://www.w3.org/1999/02/22-rdf-syntax-ns#"
   xmlns:svg="http://www.w3.org/2000/svg"
   xmlns="http://www.w3.org/2000/svg"
   xmlns:sodipodi="http://sodipodi.sourceforge.net/DTD/sodipodi-0.dtd"
   xmlns:inkscape="http://www.inkscape.org/namespaces/inkscape"
   width="162.72656"
   height="206.20009"
   id="svg2"
   version="1.1"
   inkscape:version="0.48.3.1 r9886"
   sodipodi:docname="Incline-press-2.svg">
  <defs
     id="defs4" />
  <sodipodi:namedview
     id="base"
     pagecolor="#ffffff"
     bordercolor="#666666"
     borderopacity="1.0"
     inkscape:pageopacity="0.0"
     inkscape:pageshadow="2"
     inkscape:zoom="3.959798"
     inkscape:cx="107.8614"
     inkscape:cy="107.89625"
     inkscape:document-units="px"
     inkscape:current-layer="layer1"
     showgrid="false"
     fit-margin-top="0"
     fit-margin-left="0"
     fit-margin-right="0"
     fit-margin-bottom="0"
     inkscape:window-width="1855"
     inkscape:window-height="1056"
     inkscape:window-x="65"
     inkscape:window-y="24"
     inkscape:window-maximized="1" />
  <metadata
     id="metadata7">
    <rdf:RDF>
      <cc:Work
         rdf:about="">
        <dc:format>image/svg+xml</dc:format>
        <dc:type
           rdf:resource="http://purl.org/dc/dcmitype/StillImage" />
        <dc:title></dc:title>
      </cc:Work>
    </rdf:RDF>
  </metadata>
  <g
     inkscape:label="Ebene 1"
     inkscape:groupmode="layer"
     id="layer1"
     transform="translate(-763.92825,-689.33435)">
    <path
       style="fill:#000000"
       d="m 881.65481,892.97284 c -3.025,-1.33082 -6.2376,-2.43775 -7.1392,-2.45984 -2.5256,-0.0619 -5.9325,-3.28569 -6.1189,-5.79016 -0.092,-1.2375 -0.2276,-2.25 -0.3011,-2.25 -1.0389,0 -6.5599,3.47415 -7.9341,4.99257 -3.6158,3.99547 -8.2384,1.67526 -8.7065,-4.37003 -0.2864,-3.69928 -0.1204,-3.94071 3.6125,-5.25397 5.0406,-1.77335 6.0313,-0.86984 1.2408,1.13172 -3.0346,1.26795 -3.6535,2.02651 -3.6535,4.47795 0,4.63397 2.7068,5.37961 7.9507,2.19015 6.5702,-3.99622 10.8613,-8.75779 12.1308,-13.46084 1.8682,-6.92092 2.8885,-15.96218 2.2539,-19.97241 -0.6502,-4.10879 1.6284,-11.49233 4.8204,-15.62 2.4912,-3.22156 2.3197,-1.82944 -0.5285,4.28837 -1.9356,4.1576 -2.4707,7.30715 -2.9043,17.09649 -0.478,10.78825 -0.8545,12.69477 -3.7285,18.88029 -3.9423,8.48481 -3.3251,10.91965 3.2111,12.66627 2.3619,0.63117 6.7694,1.99093 9.7944,3.0217 7.0734,2.41024 15.5,1.56823 15.5,-1.5488 0,-1.22582 -1.4258,-2.75562 -3.82,-4.09859 -5.0623,-2.83963 -11.6491,-11.94943 -11.5116,-15.92087 0.085,-2.44669 0.1857,-2.57091 0.5474,-0.67355 0.3213,1.68623 0.903,2.15152 2.1138,1.69076 1.339,-0.50957 1.4224,-0.38585 0.4204,0.62354 -0.6875,0.69259 -1.25,1.57667 -1.25,1.96464 0,1.68063 7.5982,9.62761 11.6134,12.14645 4.6702,2.92976 5.3441,4.64777 2.8152,7.17673 -2.5391,2.53913 -13.6995,2.03184 -20.4286,-0.92857 z m 1.6939,-10.73271 c -1.9305,-4.0681 -2.1837,-6.76729 -0.6349,-6.76729 0.5825,0 0.7891,0.43678 0.4592,0.97063 -0.33,0.53385 0.1208,2.36436 1.0017,4.06779 0.8809,1.70344 1.4365,3.59244 1.2347,4.19779 -0.2018,0.60534 -1.1291,-0.50567 -2.0607,-2.46892 z m -7.0272,-1.43396 c -0.9104,-0.91034 -0.8456,-6.10475 0.083,-6.67882 0.4125,-0.25494 0.75,1.2935 0.75,3.44098 0,2.14748 -0.038,3.90451 -0.083,3.90451 -0.046,0 -0.3834,-0.3 -0.75,-0.66667 z m -24.6667,-6.93772 c -5.225,-1.27699 -16.7,-3.97061 -25.5,-5.98584 -8.8,-2.01522 -20.5,-4.69549 -26,-5.95616 -15.49496,-3.55163 -16.97979,-3.46572 -23.30151,1.34825 -2.9744,2.265 -3.76703,2.42413 -8,1.60612 -4.51429,-0.87238 -4.69849,-1.04319 -4.69849,-4.35696 0,-3.32826 0.29485,-3.59527 8.42345,-7.62813 l 8.42344,-4.17914 4.18116,-12.37187 c 2.29963,-6.80454 6.4442,-18.44688 9.21014,-25.87188 7.84037,-21.04697 8.15656,-18.37081 -3.59801,-30.45248 -5.52557,-5.67934 -10.35119,-11.54007 -10.72359,-13.02385 -0.92382,-3.68079 2.13042,-7.59284 7.48042,-9.58137 2.59267,-0.96366 4.90416,-2.73058 6.06126,-4.63328 1.81893,-2.991 5.65762,-6.30902 7.29903,-6.30902 0.44676,0 -0.6946,1.32307 -2.53635,2.94015 -6.42223,5.63879 -6.40136,13.31395 0.0471,17.31256 1.85302,1.14904 2.20297,1.70263 1.08773,1.72068 -2.45209,0.0397 -7.85576,-5.45152 -7.85576,-7.98301 0,-1.90665 -0.37446,-2.11426 -2.75,-1.52466 -3.78498,0.93942 -7.25,4.4054 -7.25,7.25202 0,1.7018 4.05706,6.51153 14.40354,17.07568 7.92195,8.08862 16.58446,17.37584 19.24996,20.63826 6.6666,8.15935 25.3614,28.4962 29.6851,32.29247 2.3608,2.0728 4.2241,2.94146 5.5602,2.59207 1.8094,-0.47317 1.9512,-0.16665 1.4245,3.07915 -0.5213,3.21209 -0.3486,3.60463 1.5857,3.60463 1.1939,0 3.9016,-0.88307 6.0173,-1.96238 7.3699,-3.75986 15.1383,-6.95115 14.5317,-5.96971 -0.3359,0.54355 -2.0927,1.76314 -3.9039,2.71019 -5.6657,2.9625 -12.0375,6.45286 -12.4408,6.81482 -0.2126,0.19089 -0.9728,4.74808 -1.6891,10.12708 l -1.3026,9.78 0.1892,-9.09497 c 0.1777,-8.54201 0.052,-9.15947 -2.0608,-10.15591 -1.2375,-0.58352 -2.282,-0.99079 -2.3211,-0.90503 -0.039,0.0858 -0.4161,4.09547 -0.8379,8.9105 -0.4218,4.81502 -1.0715,9.05921 -1.4438,9.43154 -0.6473,0.64728 -55.7121,-12.50646 -57.856,-13.82048 -0.70985,-0.43507 -0.69508,-1.53453 0.047,-3.5 l 1.08201,-2.86565 -0.21012,3 c -0.19175,2.73756 0.0908,3.02865 3.2296,3.32751 4.59539,0.43754 12.983,-4.10089 13.04496,-7.05846 0.0379,-1.80874 -4.94458,-1.71517 -9.3558,0.1757 -5.26186,2.2555 -6.52377,2.53658 -5.07889,1.13128 1.68653,-1.64033 10.88143,-4.61552 13.2,-4.27113 1.80246,0.26773 2.25,0.9797 2.25,3.57944 0,2.74538 -0.55816,3.51141 -3.6238,4.97331 -1.9931,0.95044 -3.30897,2.04292 -2.92415,2.42773 0.6925,0.6925 44.77375,12.33617 45.15385,11.92699 0.6151,-0.66212 1.9982,-20.40455 1.4965,-21.36136 -0.3313,-0.63194 -6.0623,-6.93194 -12.7355,-14 -6.6731,-7.06805 -14.5445,-15.77601 -17.4919,-19.35101 -2.9474,-3.575 -6.598,-7.85 -8.1123,-9.5 -2.52151,-2.74729 -2.75383,-2.82225 -2.75807,-0.88985 -0.003,1.16059 -1.73158,5.88559 -3.8423,10.5 -2.11073,4.61442 -5.00856,12.21485 -6.43963,16.88985 -1.43107,4.675 -3.29537,10.75 -4.14289,13.5 l -1.54095,5 0.52273,-4.5 c 0.49523,-4.26328 7.48887,-25.76564 12.4443,-38.26074 2.20534,-5.56078 2.22216,-5.82979 0.48439,-7.75 -0.99014,-1.09409 -2.1178,-1.98926 -2.50592,-1.98926 -0.38812,0 -1.4001,2.3625 -2.24885,5.25 -0.84875,2.8875 -4.34123,13.125 -7.76107,22.75 -3.41985,9.625 -7.14877,20.15683 -8.28651,23.40406 l -2.06861,5.90407 -8.30966,3.89404 c -4.57031,2.14172 -8.30966,4.51058 -8.30966,5.26414 0,3.02872 1.31655,4.53369 3.96607,4.53369 3.12586,0 14.36545,-5.33515 13.35928,-6.34131 -1.595,-1.59501 0.79539,-1.09139 44.17465,9.30692 11,2.63678 22.5272,5.31697 25.6159,5.95597 3.0888,0.63901 6.4638,1.80376 7.5,2.58832 1.0363,0.78457 1.6591,1.37722 1.3841,1.317 -0.275,-0.0602 -4.775,-1.1543 -10,-2.43129 z m 61,0.13637 c -1.925,-0.7589 -5.6109,-1.41406 -8.191,-1.4559 -2.58,-0.0418 -4.9487,-0.4931 -5.2637,-1.00279 -0.7412,-1.19921 10.1124,-0.62017 13.5102,0.72077 1.582,0.62436 4.2485,0.6818 7,0.15079 6.1472,-1.18636 6.5775,-1.14409 4.9088,0.48221 -2.185,2.12943 -8.0027,2.66671 -11.9643,1.10492 z m -20.8309,-3.78198 c 2.7654,-2.2281 3.0084,-4.73335 0.5643,-5.81659 l -2.2334,-0.98983 2.2742,0.44092 c 1.8413,0.357 2.6936,-0.35141 4.4777,-3.72179 1.8046,-3.40928 2.2307,-5.97266 2.3539,-14.16271 0.096,-6.41513 0.7318,-11.56864 1.7723,-14.37573 1.989,-5.36598 1.9951,-5.121 -0.1281,-5.13958 -1.3671,-0.012 -1.4523,-0.20393 -0.3893,-0.87743 0.7484,-0.47417 2.1953,-0.64386 3.2154,-0.3771 1.7723,0.46346 1.7578,0.66919 -0.3258,4.62743 -1.7191,3.26578 -2.3096,6.57608 -2.7905,15.64241 -0.4815,9.07985 -1.113,12.61331 -3.0003,16.79019 -1.9853,4.39369 -2.183,5.62231 -1.1665,7.25 1.3084,2.09499 0.3231,2.67589 -1.4801,0.87268 -0.7829,-0.78285 -1.2752,-0.78285 -1.759,0 -0.3696,0.59792 -1.1814,1.08713 -1.804,1.08713 -0.6227,0 -0.434,-0.5625 0.4192,-1.25 z m 30.1272,-2.52931 c -1.7621,-1.49638 -4.6009,-3.78924 -6.3086,-5.09524 -5.8932,-4.50713 -6.314,-5.9024 -4.6142,-15.30075 0.8281,-4.57859 2.0578,-11.60219 2.7327,-15.60801 0.675,-4.00582 1.5732,-6.93082 1.996,-6.5 0.4229,0.43082 0.3703,2.58331 -0.1168,4.78331 -1.23,5.55458 -3.0103,16.12539 -3.621,21.5 -0.4459,3.92388 -0.1498,4.89244 2.3121,7.56532 1.5529,1.68592 4.961,4.57471 7.5735,6.41952 2.6125,1.84481 4.75,3.72792 4.75,4.18468 0,1.43866 -1.3958,0.86037 -4.7037,-1.94883 z m -60.0463,0.61337 c -2.3375,-0.52347 -4.25,-1.3162 -4.25,-1.76163 0,-0.82551 10.7336,1.32784 11.7663,2.36053 0.7897,0.78968 -2.4785,0.52927 -7.5163,-0.5989 z m 40.4545,-3.16232 c -1.9568,-2.98649 -2.1045,-4.55385 -0.6285,-6.67174 0.7812,-1.1209 0.8882,-0.69981 0.4236,1.66615 -0.4674,2.38056 -0.2023,3.40086 1.0687,4.11211 0.9296,0.52028 1.4991,1.51946 1.2655,2.2204 -0.2678,0.80326 -1.055,0.31268 -2.1293,-1.32692 z m -15.7045,-0.14036 c 0,-0.89208 0.5866,-1.24351 1.4943,-0.89521 0.8218,0.31537 1.2452,0.97625 0.9409,1.46861 -0.8726,1.41193 -2.4352,1.04399 -2.4352,-0.5734 z m -2.7243,-6.53138 c 0.3064,-1.375 1.084,-5.12319 1.728,-8.32931 0.6441,-3.20611 1.385,-5.6153 1.6466,-5.35373 0.6222,0.62225 -2.2895,14.67282 -3.2176,15.52637 -0.3927,0.36117 -0.4634,-0.46833 -0.157,-1.84333 z m 4.8059,0.3151 c -0.045,-0.6517 0.4098,-2.4517 1.0104,-4 0.6006,-1.54831 1.4756,-5.46761 1.9444,-8.70957 0.4689,-3.24195 1.3935,-6.39195 2.0548,-7 0.8089,-0.74384 1.0058,-0.7524 0.602,-0.0262 -0.3302,0.59364 -1.0862,4.12112 -1.6801,7.83884 -1.003,6.27848 -3.7467,14.5811 -3.9315,11.89691 z m -7.5631,-11.19034 c 0.5698,-4.57309 2.5674,-9.36711 3.161,-7.58633 0.1894,0.56821 -0.567,3.49201 -1.681,6.49734 l -2.0253,5.46423 0.5453,-4.37524 z m 25.0548,-3.12476 c 0.3273,-1.375 0.9433,-5.425 1.3689,-9 l 0.7739,-6.5 0.097,6 c 0.056,3.43491 -0.5298,7.28255 -1.369,9 -1.2416,2.54116 -1.3748,2.61764 -0.8707,0.5 z m -12.1077,-9.45479 c 1.409,-4.3801 1.5606,-10.14634 0.3255,-12.37918 -0.7905,-1.42896 -3.9834,-3.46013 -8.2345,-5.23829 -6.3465,-2.65465 -7.1383,-2.77661 -9.2107,-1.4187 -4.0008,2.6214 -5.3481,13.21247 -2.1819,17.15193 1.6059,1.99805 -0.983,2.59179 -7.9933,1.83323 -3.6689,-0.39699 -8.6498,-0.80385 -11.0688,-0.90412 -3.6688,-0.15208 -4.8698,-0.74734 -7.2429,-3.58992 -1.5647,-1.87419 -3.1017,-5.00344 -3.4156,-6.95389 -0.3139,-1.95045 -0.9353,-4.45525 -1.3808,-5.56622 -2.1648,-5.39797 19.1485,-19.93566 23.2354,-15.84875 0.8596,0.85966 7.2342,1.55902 12.702,1.39353 6.1331,-0.18561 15,0.94252 15,1.90845 0,0.43416 -1.0167,0.59502 -2.2594,0.35747 -2.6889,-0.51403 -6.3433,2.98018 -7.0168,6.70925 -0.4053,2.24472 -0.4653,2.19086 -0.5876,-0.52749 -0.075,-1.66513 0.5867,-4.05959 1.4703,-5.32105 l 1.6064,-2.29355 -6.9581,0.68564 c -4.3552,0.42915 -7.7044,0.28619 -8.9532,-0.38216 -1.3242,-0.70869 -2.33,-0.73297 -2.9908,-0.0722 -0.6608,0.66077 -1.426,0.47688 -2.2756,-0.54681 -2.0604,-2.48258 -3.57,-1.86754 -9.9782,4.06533 -3.3313,3.08425 -6.057,5.06888 -6.057,4.4103 0,-0.65859 1.0125,-2.08763 2.25,-3.17566 1.4683,-1.29093 0.917,-1.12041 -1.5866,0.49079 -4.336,2.79047 -7.3688,6.56531 -6.0463,7.52569 0.4856,0.35264 0.9688,2.5603 1.0737,4.90591 0.2797,6.25155 4.4546,9.52186 13.2378,10.36932 3.6143,0.34873 8.0842,0.97754 9.9332,1.39736 l 3.3618,0.76331 -0.8083,-3.39737 c -1.607,-6.75417 0.3505,-14.54763 4.1941,-16.69867 1.4628,-0.81861 1.4546,-0.96015 -0.09,-1.55294 -0.9348,-0.35873 -2.067,-0.42523 -2.5159,-0.14777 -0.4489,0.27746 -0.2958,-0.61868 0.3402,-1.99142 0.9821,-2.11938 1.324,-2.27042 2.2668,-1.00122 0.6106,0.82206 1.5254,1.49466 2.0329,1.49466 0.5075,0 2.1334,0.97417 3.6131,2.16482 1.4797,1.19065 4.8225,2.87815 7.4284,3.75 6.0718,2.03143 8.8067,6.21744 7.8318,11.98743 -0.3636,2.15231 -1.3403,4.74229 -2.1704,5.75552 -1.4548,1.7757 -1.4866,1.77164 -0.8805,-0.11256 z m -17.4595,-1.79521 c -0.01,-1.03293 6.18,-0.91824 7.8593,0.14566 0.8698,0.55105 -0.3076,0.81772 -3.2439,0.73469 -2.5351,-0.0717 -4.612,-0.46785 -4.6154,-0.88035 z m 6.1378,-8.63991 c -0.875,-0.5544 0.071,-0.82186 2.6663,-0.75381 2.2124,0.058 3.8085,0.45158 3.5471,0.87459 -0.6352,1.02786 -4.5198,0.95234 -6.2134,-0.12078 z m 23.8561,-5.81953 c 0.825,-0.30334 2.2875,-1.23756 3.25,-2.07604 0.9625,-0.83847 1.75,-1.09475 1.75,-0.56951 0,1.65206 -2.3175,3.35817 -4.45,3.27604 -1.4417,-0.0555 -1.6049,-0.2426 -0.55,-0.63049 z m 8.186,-1.7816 c -0.7826,-1.71763 -4.0148,-3.88518 -10.4105,-6.98133 -9.588,-4.64156 -10.5394,-5.63496 -2.8238,-2.94852 7.7937,2.71367 15.0483,7.60902 15.0483,10.15452 0,2.90934 -0.4091,2.85868 -1.814,-0.22467 z m -77.4172,-6.75896 c -4.1345,-4.15284 -11.9932,-9.75 -13.6896,-9.75 -0.4682,0 -3.4901,-1.68926 -6.7152,-3.75392 -3.2252,-2.06465 -6.7414,-4.23695 -7.81381,-4.82733 -3.41127,-1.87797 -5.81541,-6.12124 -6.28576,-11.09426 -0.39887,-4.21727 -0.12957,-5.12962 2.13963,-7.2488 2.7995,-2.61442 3.60208,-1.84495 1.03469,0.99199 -1.64738,1.82033 -2.15563,8.09828 -0.96047,11.86387 0.47342,1.49163 2.80422,3.17619 6.99832,5.05796 3.4587,1.55181 6.5626,3.26484 6.8975,3.80673 0.3349,0.54189 2.9429,2.20566 5.7955,3.69725 8.3603,4.3715 9.0844,4.86015 11.7712,7.9439 7.2615,8.33449 7.7422,10.25754 0.828,3.31261 z m 11.8499,-10.75 c -1.7403,-2.62983 -3.3923,-4 -4.8227,-4 -1.1966,0 -4.7777,-0.53746 -7.9581,-1.19436 -3.1804,-0.65689 -6.1043,-0.87257 -6.4976,-0.47927 -0.3933,0.3933 0.8317,2.01186 2.7223,3.59681 1.8906,1.58495 3.1044,3.22115 2.6973,3.63601 -0.407,0.41486 -1.848,-0.44125 -3.2022,-1.90245 -1.3542,-1.46121 -2.9337,-2.65674 -3.51,-2.65674 -0.5762,0 -1.0477,-0.58485 -1.0477,-1.29967 0,-0.75643 -3.1866,-2.23719 -7.624,-3.54268 -4.1932,-1.23365 -7.3876,-2.47942 -7.0986,-2.76836 0.2889,-0.28895 2.9014,0.18026 5.8055,1.04268 2.904,0.86242 7.2755,1.56803 9.7144,1.56803 2.4388,0 6.6225,0.77717 9.2969,1.72705 4.6089,1.63694 5.2159,1.6365 11.6342,-0.008 3.7244,-0.95449 7.5591,-1.73167 8.5216,-1.72705 0.9625,0.005 1.75,-0.42045 1.75,-0.9446 0,-0.52414 1.6875,-1.42261 3.75,-1.99658 3.1549,-0.87796 3.9491,-0.77472 5.0047,0.65054 0.6901,0.93177 0.9828,2.55083 0.6504,3.5979 -0.5374,1.69348 -0.2342,1.82911 2.7454,1.2278 1.8422,-0.37178 4.2495,-0.91567 5.3495,-1.20864 1.9133,-0.50956 1.9237,-0.45329 0.2415,1.29743 -1.4195,1.47736 -3.198,1.80819 -9.2268,1.71642 -7.1443,-0.10876 -7.4224,-0.0279 -6.4105,1.86287 1.5684,2.93049 0.4219,3.25719 -1.4428,0.41117 -1.0401,-1.58726 -1.2261,-2.58434 -0.5258,-2.81776 0.6995,-0.23317 0.6017,-0.75212 -0.2759,-1.46372 -1.0052,-0.81506 -2.7935,-0.66582 -6.8597,0.57248 -3.4865,1.06177 -5.0398,1.95958 -4.2429,2.45243 1.2258,0.75811 4.6825,6.65066 3.9015,6.65066 -0.2161,0 -1.584,-1.8 -3.0399,-4 z m 17.8742,-6.63571 c 2.2462,-2.24619 0.4904,-3.73916 -3.3941,-2.886 -2.1531,0.47292 -3.0988,1.26671 -3.0988,2.60117 0,2.44219 4.1533,2.62438 6.4929,0.28483 z m -31.4929,3.63571 c -1.213,-0.78387 -1.0694,-0.9723 0.75,-0.98469 1.2375,-0.008 2.25,0.43469 2.25,0.98469 0,1.25292 -1.0612,1.25292 -3,0 z m 47.4505,-5.08013 c -0.5417,-0.87652 -0.2951,-1.0742 0.8109,-0.64982 1.7867,0.68563 8.3845,-0.88815 9.1905,-2.19221 0.2883,-0.46646 0.035,-2.24979 -0.5617,-3.96297 -1.0138,-2.90811 -1.3947,-3.10825 -5.738,-3.01519 -2.5587,0.0548 -5.7772,0.41304 -7.1522,0.79604 -2.3654,0.65887 -2.3923,0.74253 -0.5,1.55401 1.1,0.4717 2.7875,0.7602 3.75,0.6411 0.9625,-0.1191 1.75,0.26174 1.75,0.84631 0,0.58457 -0.3375,1.00957 -0.75,0.94444 -0.4125,-0.0651 -1.7711,-0.0651 -3.019,0 -1.9183,0.10011 -2.1879,0.54356 -1.7441,2.86842 0.506,2.65024 0.4837,2.64117 -0.6152,-0.25 -2.087,-5.49092 -2.6979,-5.80073 -9.8402,-4.99014 -8.7894,0.99754 -10.0954,0.86577 -16.7725,-1.6923 -3.3806,-1.29513 -8.2369,-2.2537 -11.759,-2.32105 -3.3,-0.0631 -6.9829,-0.65063 -8.1843,-1.30562 -1.2013,-0.65499 -3.3183,-1.19089 -4.7045,-1.19089 -1.3862,0 -3.6983,-1.17802 -5.1381,-2.61783 -2.3359,-2.33586 -3.2063,-2.56903 -8.0807,-2.16481 -6.19546,0.51378 -5.95871,-1.06346 0.2854,-1.90097 3.2431,-0.43499 4.4722,-0.061 7.1186,2.16578 1.7593,1.48035 4.6623,2.92204 6.4512,3.20376 1.7888,0.28172 3.9301,0.87473 4.7585,1.3178 0.8284,0.44307 3.5643,0.57359 6.0798,0.29006 3.6673,-0.41336 5.9783,0.10099 11.6615,2.59534 7.2135,3.16605 10.6229,3.59438 17.7526,2.23034 l 4,-0.76528 -6.8553,-2.17709 c -3.7705,-1.19741 -8.083,-2.1771 -9.5834,-2.1771 -1.5004,0 -3.0653,-0.3375 -3.4776,-0.75 -0.4124,-0.4125 -2.6249,-1.54339 -4.9167,-2.51309 -4.1617,-1.76083 -4.1625,-1.76231 -0.667,-1.15184 1.925,0.33619 4.4967,1.24208 5.7148,2.01309 1.2182,0.77101 3.7341,1.40184 5.5911,1.40184 1.8569,0 5.5853,0.67013 8.2852,1.48918 2.6999,0.81904 5.357,1.49404 5.9047,1.5 0.5477,0.006 -19.0076,-19.99638 -43.4562,-44.44962 -24.44865,-24.45324 -44.1953,-44.7172 -43.88147,-45.03102 0.31382,-0.31382 20.96933,19.92444 45.90117,44.97391 l 45.3305,45.54449 7.1102,-0.18357 c 7.6923,-0.19859 13.554,1.61429 13.4211,4.15074 -0.054,1.02617 -0.2397,1.10768 -0.5834,0.25589 -0.8902,-2.20622 -2.3966,-1.3328 -1.8001,1.04375 0.7357,2.93143 -1.821,5.31134 -6.6731,6.21144 -2.4737,0.45891 -3.8842,0.27186 -4.414,-0.58532 z m -1.638,-2.60298 c 0.7219,-0.28888 1.5844,-0.25335 1.9167,0.0789 0.3323,0.33229 -0.2584,0.56864 -1.3125,0.52522 -1.165,-0.048 -1.4019,-0.28495 -0.6042,-0.60417 z m -48.6733,-2.35016 c -2.826,-2.35434 -4.7613,-2.48752 -6.7821,-0.46673 -0.825,0.825 -2.2035,1.5 -3.0634,1.5 -1.0915,0 -0.796,-0.60368 0.9792,-2 3.0777,-2.42092 6.4881,-2.55614 9.5944,-0.3804 1.8464,1.29327 2.8074,1.39402 4.7696,0.5 1.3514,-0.61578 3.6735,-1.07902 5.1602,-1.02941 2.4723,0.0825 2.4043,0.17447 -0.7971,1.07828 -1.925,0.54345 -3.9275,1.40287 -4.45,1.90981 -1.4061,1.36426 -2.777,1.08264 -5.4108,-1.11155 z m -22.5971,-1.89856 c -0.389,-0.62955 0.2124,-1.06817 1.4646,-1.06817 1.1686,0 2.9952,-0.46583 4.059,-1.03518 1.0906,-0.58363 1.9343,-0.63451 1.9343,-0.11663 0,0.5052 -0.7875,1.14498 -1.75,1.42172 -0.9625,0.27675 -2.492,0.80991 -3.3988,1.18481 -0.9069,0.37489 -1.946,0.20095 -2.3091,-0.38655 z m 27.8096,-12.87657 c -1.7173,-2.7499 -7.9797,-4.12989 -15.8517,-3.49315 -4.0298,0.32595 -6.6466,0.19182 -6.167,-0.31613 0.4581,-0.48527 1.8081,-0.96551 3,-1.06719 19.0187,-1.62254 18.0241,-1.65322 20.917,0.64517 1.5125,1.20167 2.75,2.63486 2.75,3.18486 0,0.55 -1.1857,0.0673 -2.6349,-1.07258 -1.4491,-1.13992 -3.1366,-2.0589 -3.75,-2.04217 -0.6133,0.0167 -0.3331,0.486 0.6226,1.04283 1.9372,1.1286 4.2793,4.92676 3.038,4.92676 -0.437,0 -1.3028,-0.81378 -1.924,-1.8084 z m -27.4415,-8.02384 c 0.5393,-1.00774 1.7751,-2.47024 2.7461,-3.25 1.2527,-1.00592 1.1035,-0.47368 -0.5135,1.83224 -2.4692,3.52128 -3.81609,4.37656 -2.2326,1.41776 z m 9.27,-3.4835 c -0.099,-2.09866 -0.6033,-4.60632 -1.1204,-5.57258 -1.4654,-2.73799 -8.7489,-7.36353 -12.85018,-8.16066 l -3.70962,-0.72102 3.5,-0.11126 c 3.48506,-0.11079 6.9583,1.59668 12.3147,6.05394 2.5275,2.10324 2.7755,2.85163 2.4302,7.33477 -0.324,4.20776 -0.4127,4.39275 -0.5647,1.17681 z"
       id="path3418"
       inkscape:connector-curvature="0" />
    <path
       style="fill:#000000"
       d=""
       id="path3414"
       inkscape:connector-curvature="0" />
    <path
       style="fill:#000000"
       d=""
       id="path3412"
       inkscape:connector-curvature="0" />
  </g>
</svg>
