<?xml version="1.0" encoding="UTF-8" standalone="no"?>
<!-- Created with Inkscape (http://www.inkscape.org/) -->

<svg
   xmlns:dc="http://purl.org/dc/elements/1.1/"
   xmlns:cc="http://creativecommons.org/ns#"
   xmlns:rdf="http://www.w3.org/1999/02/22-rdf-syntax-ns#"
   xmlns:svg="http://www.w3.org/2000/svg"
   xmlns="http://www.w3.org/2000/svg"
   xmlns:sodipodi="http://sodipodi.sourceforge.net/DTD/sodipodi-0.dtd"
   xmlns:inkscape="http://www.inkscape.org/namespaces/inkscape"
   width="595.60138"
   height="898.68768"
   id="svg2"
   version="1.1"
   inkscape:version="0.48.3.1 r9886"
   sodipodi:docname="Incline-flys-with-a-twist-2.svg">
  <defs
     id="defs4" />
  <sodipodi:namedview
     id="base"
     pagecolor="#ffffff"
     bordercolor="#666666"
     borderopacity="1.0"
     inkscape:pageopacity="0.0"
     inkscape:pageshadow="2"
     inkscape:zoom="0.98994949"
     inkscape:cx="275.30564"
     inkscape:cy="459.65437"
     inkscape:document-units="px"
     inkscape:current-layer="layer1"
     showgrid="false"
     fit-margin-top="0"
     fit-margin-left="0"
     fit-margin-right="0"
     fit-margin-bottom="0"
     inkscape:window-width="1855"
     inkscape:window-height="1056"
     inkscape:window-x="65"
     inkscape:window-y="24"
     inkscape:window-maximized="1" />
  <metadata
     id="metadata7">
    <rdf:RDF>
      <cc:Work
         rdf:about="">
        <dc:format>image/svg+xml</dc:format>
        <dc:type
           rdf:resource="http://purl.org/dc/dcmitype/StillImage" />
        <dc:title></dc:title>
      </cc:Work>
    </rdf:RDF>
  </metadata>
  <g
     inkscape:label="Ebene 1"
     inkscape:groupmode="layer"
     id="layer1"
     transform="translate(-134.67741,-99.684901)">
    <path
       style="fill:#000000"
       d="m 508.04173,997.54159 c -2.7095,-0.4534 -6.0845,-1.6799 -7.5,-2.7256 -1.4802,-1.0934 -5.2193,-2.2001 -8.8006,-2.6047 -3.4248,-0.3869 -8.449,-1.3634 -11.165,-2.1699 -6.2214,-1.8476 -17.4879,-10.5778 -22.0167,-17.06043 -11.3905,-16.3043 -16.2083,-20.6231 -34.244,-30.6969 -12.7226,-7.1061 -15.2326,-9.8435 -16.1532,-17.6167 -0.7863,-6.6395 0.4529,-9.9854 10.7654,-29.0655 12.2988,-22.75534 12.2531,-22.5008 11.6677,-64.99999 -0.2045,-14.85278 0.1523,-23.37213 1.2952,-30.92614 0.8677,-5.73437 1.5776,-10.55241 1.5776,-10.70675 0,-0.15434 -26.3558,-20.79738 -58.5683,-45.87343 l -58.5682,-45.59281 -38.4055,19.54957 c -21.1231,10.75226 -38.9295,19.54956 -39.57,19.54956 -1.0967,0 -3.5511,-2.06306 -15.2445,-12.8142 l -4.8565,-4.46511 0.7148,-14.75883 0.7148,-14.75882 9.6417,-4.4532 c 5.3029,-2.44925 22.2613,-10.38344 37.6853,-17.63152 l 28.0438,-13.17833 -5.1874,-61.53035 c -2.8531,-33.84169 -5.4488,-61.79174 -5.7683,-62.11123 -0.6129,-0.61294 -10.2643,6.48855 -12.8544,9.45834 -0.8362,0.95879 -2.2969,4.12824 -3.2458,7.04323 -2.0955,6.43644 -6.4356,9.66546 -14.2827,10.62626 -6.1822,0.75694 -7.5197,0.17216 -15.6422,-6.83914 -17.3029,-14.93564 -18.3686,-16.22652 -25.9522,-31.43428 l -7.1545,-14.34718 -0.6415,-21.65282 c -0.3528,-11.90905 -0.6903,-23.65901 -0.75,-26.11103 l -0.1085,-4.45821 -4.25,4.16088 c -5.4867,5.37171 -10.6873,7.49019 -18.2334,7.42752 -7.5938,-0.0631 -13.4874,-2.15469 -20.0653,-7.12103 -9.8688,-7.45105 -19.9818,-23.96134 -23.9196,-39.05095 -2.5263,-9.68054 -3.1176,-28.88724 -1.1472,-37.25893 5.1921,-22.05905 19.9421,-33.27656 37.1701,-28.26824 7.5057,2.18196 12.8016,5.88217 20.2831,14.17162 l 6.0289,6.67991 3.6778,-3.22917 c 4.4767,-3.93062 5.852,-4.47564 16.759,-6.64175 l 8.595,-1.70695 3.4075,-7.17518 c 6.1309,-12.91009 13.532,-18.71734 23.9486,-18.79132 38.6161,-0.27426 42.3905,0.23052 56.0412,7.49496 11.5035,6.12173 14.3331,8.95222 17.2197,17.22505 1.3933,3.99324 2.4515,9.30511 2.4636,12.3665 l 0.021,5.36649 6.25,-0.65643 c 4.4978,-0.47241 8.9133,-0.10479 15.75,1.31128 7.5496,1.56374 9.935,1.72591 11.619,0.78994 1.1654,-0.64778 3.8797,-2.14932 6.0317,-3.33675 4.967,-2.74073 13.5874,-4.34103 23.384,-4.34103 9.2108,0 14.6891,2.44498 22.4653,10.02621 4.7981,4.67793 5.315,4.91343 12.806,5.83431 4.6754,0.57476 9.9229,1.99529 13.0842,3.542 5.5152,2.69832 14.3783,11.35414 20.6294,20.1468 l 3.5196,4.95068 8.9804,0.0965 c 4.9392,0.0531 10.2179,0.60444 11.7304,1.22525 2.4306,0.99767 2.75,0.90829 2.75,-0.7698 0,-1.04418 1.1129,-3.22112 2.4731,-4.83764 3.1395,-3.73111 9.5269,-16.98567 9.5269,-19.76945 0,-3.59101 -0.9879,-3.40441 -5.4152,1.02289 -5.2948,5.29481 -9.828,6.85996 -18.4262,6.36185 -8.6519,-0.50124 -14.8862,-3.55715 -22.2215,-10.89251 -22.1325,-22.13245 -27.6529,-64.73038 -11.1943,-86.37897 7.6778,-10.09885 20.6809,-13.01029 32.4311,-7.26144 5.0178,2.45497 14.9302,11.5589 18.9132,17.37071 1.2434,1.81423 2.0499,2.04917 4.9492,1.4418 1.905,-0.39908 5.2637,-0.35024 7.4637,0.10853 2.9899,0.6235 5.3578,0.37212 9.3773,-0.99553 l 5.3773,-1.82966 1.8029,-7.09931 c 3.1281,-12.31785 8.5303,-20.44007 16.3478,-24.57898 5.9574,-3.15412 17.3915,-3.06109 23.5947,0.19199 14.3345,7.51733 25.4472,23.66947 30.081,43.72235 2.8747,12.44048 2.4126,30.78599 -0.9977,39.60902 -3.2967,8.52893 -7.9572,14.81907 -13.5094,18.23324 -4.4311,2.72474 -5.7375,3.02641 -13,3.002 -9.5994,-0.0323 -14.0435,-1.9664 -22.1633,-9.64584 -6.3709,-6.02532 -6.4541,-5.88262 -5.9316,10.17298 0.3077,9.45292 0.8643,12.83505 3.127,19 2.5302,6.89378 2.7434,8.59345 2.6383,21.02796 -0.088,10.43467 -0.5941,15.23651 -2.2129,21 -1.1543,4.10962 -2.7891,12.64531 -3.6329,18.9682 -1.6135,12.09096 -2.4804,13.96056 -7.7326,16.67656 -2.067,1.06893 -4.5142,1.29644 -9.0023,0.83697 -3.39,-0.34705 -9.1612,-0.1933 -12.8249,0.34167 -7.1976,1.05098 -17.3852,-0.62147 -37.5887,-6.17071 -5.0875,-1.39737 -9.25,-2.17917 -9.25,-1.73733 0,0.44184 3.1784,4.91035 7.0632,9.93001 4.7125,6.0892 7.7268,9.12667 9.0572,9.12667 4.9959,0 11.2936,2.48076 14.5406,5.72773 4.4247,4.42466 12.339,15.29605 12.339,16.9493 0,2.28514 4.5022,4.30221 11.069,4.95914 7.623,0.76258 11.606,2.55662 13.1373,5.91726 1.3039,2.86196 4.8555,3.97832 15.7937,4.96439 12.3534,1.11366 23.7156,3.8868 57.9919,14.15398 14.9443,4.47642 26.1619,11.05882 28.5381,16.74588 1.0764,2.57628 2.7514,3.77274 9.1439,6.53163 8.9748,3.87336 25.7148,12.86965 32.3261,17.37237 6.9336,4.72232 17.3899,14.46289 23.5812,21.96711 3.9265,4.75909 8.6783,8.85336 15.8935,13.69424 5.6608,3.798 11.1782,8.0316 12.2609,9.408 4.1275,5.24731 5.4873,23.63194 2.3569,31.86558 -0.5249,1.38066 -4.923,5.75173 -9.7735,9.71347 -7.3038,5.96555 -9.249,8.17624 -11.3213,12.86655 -8.4758,19.18357 -18.114,33.08592 -28.3499,40.89237 -15.0578,11.48403 -22.6478,19.49613 -22.6478,23.90738 0,1.04517 1.8658,4.14205 4.1463,6.88197 2.2805,2.73992 5.7332,8.35667 7.6727,12.48167 4.9623,10.55414 10.5021,16.76952 18.6539,20.9286 9.1695,4.67831 13.9564,8.30224 17.6011,13.32504 2.6321,3.62726 2.9925,4.82955 2.4719,8.24636 -0.3353,2.2 -0.8676,5.93826 -1.183,8.30725 -0.3699,2.77854 -1.2716,4.73058 -2.5404,5.5 -1.0819,0.65601 -2.5933,2.67145 -3.3588,4.47874 -1.9465,4.59578 -6.9025,6.48072 -17.0882,6.49924 -12.1647,0.0221 -17.1145,-2.93149 -27.2214,-16.24329 -1.2902,-1.69933 -3.6356,-3.75669 -5.2121,-4.57191 -2.708,-1.40038 -3.103,-1.32019 -7.1542,1.45266 -2.3583,1.61418 -38.0378,21.91063 -79.2878,45.10323 -41.25,23.19257 -75.2904,42.46217 -75.6452,42.82117 -0.6273,0.6349 9.8052,19.9565 14.27,26.4289 7.7512,11.2365 17.5663,19.9851 28.8752,25.7374 9.0703,4.6137 13,10.0257 13,17.90383 0,4.3268 -3.5618,10.3747 -6.4359,10.9282 -1.026,0.1976 -2.9355,1.6309 -4.2433,3.1851 -4.1922,4.9822 -15.617,7.6042 -25.7472,5.9092 z m 18.0957,-7.8766 c 4.6114,-2.0938 6.7704,-5.1023 5.817,-8.1063 -0.9496,-2.9918 -5.3672,-7.8438 -8.7204,-9.57783 -2.0771,-1.0741 -2.6763,-1.8686 -1.9541,-2.5909 1.7995,-1.7995 6.1423,0.1134 10.775,4.74623 5.1224,5.1223 6.4132,5.5047 6.4132,1.9 0,-5.46893 -2.2633,-7.83373 -12.5,-13.06113 -14.4982,-7.4035 -26.1749,-18.389 -35.0742,-32.998 -5.7706,-9.473 -18.2393,-35.4867 -19.3524,-40.3752 -3.5924,-15.77779 0.5311,-33.16909 15.8168,-66.70913 3.311,-7.26503 8.3144,-19.41503 11.1186,-27 2.8042,-7.58497 5.6181,-15.1228 6.2531,-16.75072 0.635,-1.62793 3.6964,-5.76466 6.803,-9.19275 6.9476,-7.66636 12.9513,-20.65436 14.028,-30.34739 0.6602,-5.94341 0.4404,-7.18504 -2.5675,-14.5 -4.1272,-10.03734 -8.9578,-25.09522 -11.1198,-34.66245 -1.7973,-7.9538 -5.4409,-15.90393 -14.249,-31.09054 -7.0154,-12.0957 -9.6359,-13.74701 -21.8158,-13.74701 -16.7876,0 -31.2737,8.80631 -43.1997,26.26172 -5.6936,8.33332 -5.7668,9.35306 -1.355,18.85726 2.1398,4.60956 6.1211,11.08102 8.8474,14.38102 16.247,19.66597 26.3665,38.326 26.3665,48.61906 0,4.39609 -1.5776,5.12226 -3,1.38094 -1.1956,-3.14458 -2.9906,-3.13722 -5.2894,0.0217 -3.8545,5.2967 -17.69,33.28456 -19.0622,38.56101 -2.6415,10.15709 -3.9689,31.23043 -3.3804,53.6648 0.4156,15.84225 0.2134,22.89165 -0.7948,27.71048 -1.5619,7.4652 -6.594,18.0216 -13.3741,28.0567 -7.2057,10.6649 -8.7999,17.5582 -5.728,24.7674 1.9083,4.4787 4.6353,6.6191 16.1289,12.6597 13.2158,6.9458 15.4686,8.7616 22.1532,17.8561 6.7387,9.1681 17.9363,20.45093 24.7682,24.95653 4.4748,2.9511 5.6176,3.2456 12.5927,3.2456 6.2421,0 8.4924,0.452 12.0786,2.4257 5.7473,3.1633 16.3539,3.4627 22.5766,0.6374 z m -11.9166,-9.5329 c -2.0611,-1.1166 -3.7486,-2.3677 -3.75,-2.7802 0,-1.4208 3.7803,-0.7463 6.0284,1.0742 3.4748,2.8137 1.9178,3.9795 -2.2784,1.7061 z m -79.7418,-56.12003 c -7.6871,-4.3937 -7.7354,-5.5473 -0.7609,-18.1813 5.7955,-10.4983 7.5691,-10.2146 2.8899,0.4623 -4.7292,10.7906 -4.7463,11.2405 -0.6109,16.0717 1.9947,2.3304 3.4792,4.2317 3.2989,4.2251 -0.1804,-0.01 -2.348,-1.1667 -4.817,-2.5778 z m 11.9891,-73.96296 c 0,-0.30403 2.6227,-2.98099 5.8283,-5.94881 4.2274,-3.91385 6.6693,-7.26421 8.8897,-12.19723 2.8147,-6.2535 7.4179,-23.17126 8.9248,-32.80119 0.6157,-3.93435 0.639,-3.95368 1.4244,-1.17784 0.9184,3.24642 -0.1385,10.76605 -3.1033,22.07908 -4.0683,15.52356 -9.6812,26.36694 -15.0985,29.16835 -2.7389,1.41631 -6.8654,1.94383 -6.8654,0.87764 z m 23.2017,-67.44723 c -2.0597,-8.72531 -2.5391,-13.6735 -1.3933,-14.38162 1.4229,-0.87937 3.3871,8.98883 2.999,15.06679 l -0.3074,4.81483 -1.2983,-5.5 z m 29.4062,-19.30114 c -3.3139,-3.3139 -6.7944,-10.37841 -6.4174,-13.02563 0.2476,-1.73874 1.067,-0.93466 4.0984,4.02176 3.5552,5.81271 6.4206,8.04505 9.5466,7.43758 0.8092,-0.15725 1.1999,0.4552 0.9915,1.55395 -0.5468,2.88145 -5.3428,2.88865 -8.2191,0.0123 z m -11.5416,-24.69886 c 0.6497,-1.375 2.9583,-4.88666 5.1304,-7.80368 4.5013,-6.04532 7.7491,-12.67636 7.7813,-15.8873 0.012,-1.20504 0.472,-2.4691 1.022,-2.80902 2.1066,-1.30198 0.9208,7.12875 -1.75,12.44204 -2.7225,5.41598 -14.5464,19.0589 -12.1837,14.05796 z m 80.9337,118.48655 c 39.875,-22.44738 72.8306,-41.30238 73.2346,-41.89999 0.4041,-0.59761 0.7416,-6.73146 0.75,-13.63079 l 0.015,-12.54423 -12.8546,-4.81881 c -11.2995,-4.23591 -13.1443,-4.66757 -15.25,-3.56851 -1.3175,0.68767 -12.6341,7.06588 -25.1481,14.1738 -21.1871,12.03427 -22.6773,13.06431 -21.6574,14.9701 1.3835,2.585 -0.3593,4.82344 -2.5765,3.3094 -0.7874,-0.53763 -9.6167,-13.49463 -19.6207,-28.79332 l -18.1891,-27.8158 -3.9457,6.8158 c -2.1702,3.74869 -5.9285,9.23 -8.3518,12.18068 -2.4234,2.95069 -4.4061,5.944 -4.4061,6.65181 0,0.7078 6.762,11.08258 15.0266,23.05506 8.2647,11.97247 14.8649,22.25416 14.6672,22.84819 -1.183,3.55353 -4.1948,0.25856 -17.2227,-18.84205 -7.6841,-11.26597 -14.2665,-20.5048 -14.6274,-20.53074 -0.3609,-0.0259 -2.7537,5.01535 -5.3172,11.20285 -2.5635,6.1875 -6.0073,14.35092 -7.6528,18.14092 -1.6455,3.79001 -2.6278,7.20748 -2.1828,7.59438 0.445,0.38689 4.0716,3.26764 8.0591,6.40167 3.9875,3.13402 7.25,6.34055 7.25,7.12562 0,0.78507 -6.5067,5.27619 -14.4594,9.98027 -15.8309,9.36423 -15.7466,9.26329 -17.1936,20.58668 -1.0462,8.18638 2.7491,24.71995 7.2837,31.73065 l 1.4942,2.3102 5.1875,-2.9102 c 2.8532,-1.6006 37.8126,-21.27625 77.6876,-43.72364 z m -66.1889,-18.01934 c 0.1712,-0.14091 -2.4439,-2.37615 -5.8111,-4.96721 -3.3673,-2.59106 -6.2477,-4.55104 -6.4009,-4.35551 -0.6489,0.82832 -7.5991,18.95286 -7.5991,19.8167 0,0.69275 17.4519,-8.55156 19.8111,-10.49398 z m 193.6451,-8.49488 c 1.354,-1.35405 1.3306,-1.88076 -0.2204,-4.9431 -1.1219,-2.21524 -2.7465,-3.6904 -4.5933,-4.17065 -1.5716,-0.4087 -3.6742,-1.48221 -4.6724,-2.38558 -0.9982,-0.90337 -3.6668,-1.89089 -5.9303,-2.19448 -4.9339,-0.66178 -4.8905,-2.82769 0.053,-2.66956 3.7337,0.11942 15.3755,4.71013 18.1566,7.15966 1.8407,1.6212 1.9161,1.51316 2.2807,-3.26862 0.1259,-1.65 0.5484,-3.96644 0.939,-5.14765 1.1285,-3.41314 -5.3605,-9.77935 -14.0696,-13.80319 -10.3149,-4.76576 -16.2536,-10.71405 -22.3596,-22.39559 -2.7753,-5.30946 -7.2797,-12.08496 -10.0098,-15.05666 l -4.9638,-5.4031 -1.0086,2.6531 c -1.348,3.54546 -3.0582,3.37043 -3.0582,-0.31298 0,-3.16897 2.2306,-8.74868 5.343,-13.36515 1.0498,-1.55717 9.5468,-9.36985 18.8821,-17.36151 9.3353,-7.99167 18.3911,-16.53926 20.1241,-18.99465 1.7329,-2.45539 4.9739,-8.59271 7.2021,-13.63849 6.8892,-15.60018 11.0571,-22.20522 16.4626,-26.08868 7.1616,-5.14511 10.7535,-13.97333 9.7083,-23.86139 -0.9219,-8.72188 -1.958,-10.21925 -11.1941,-16.17752 -8.1096,-5.23159 -18.4401,-14.81741 -33.5673,-31.14755 -7.3677,-7.95358 -16.341,-13.74768 -29.0698,-18.77043 -31.1373,-12.28672 -30.6536,-12.18594 -40.6104,-8.46059 -12.2959,4.60046 -20.057,14.76882 -22.2942,29.20919 -0.586,3.78244 -0.9139,7.02868 -0.7288,7.21388 1.6438,1.6437 22.8731,10.56141 33.2423,13.96394 10.9733,3.60071 12.3764,4.27934 9,4.35287 -7.221,0.15725 -31.5408,-7.29787 -39.152,-12.00184 l -3.3479,-2.06913 0,10.95656 c 0,16.83274 -0.4134,16.01275 10.8324,21.48674 10.8894,5.30048 17.976,6.68344 44.6676,8.71691 16.5771,1.26291 20.4509,2.02631 25.25,4.97596 4.7897,2.94393 4.0114,3.90634 -2.6692,3.30057 -7.323,-0.66403 -9.8476,0.71724 -19.4044,10.61635 -7.589,7.86079 -11.3965,15.12825 -14.5137,27.7023 -2.7888,11.2496 -3.198,14.14386 -3.3188,23.47616 -0.094,7.24491 -0.2788,8.05736 -1.4653,6.43471 -0.7469,-1.02143 -1.4915,-1.66499 -1.6546,-1.43014 -0.1632,0.23485 -2.0278,3.09787 -4.1436,6.36227 -5.4112,8.34878 -11.7735,14.85891 -21.2539,21.74762 -8.5218,6.19221 -10.3265,8.88181 -10.3265,15.38961 0,5.91866 7.836,12.47004 13.2305,11.06151 1.2482,-0.3259 3.7531,-1.50812 5.5664,-2.62715 3.1329,-1.93335 3.22,-2.14453 1.75,-4.24324 -3.4431,-4.91577 -0.7598,-12.26514 6.2524,-17.1246 2.0945,-1.45146 4.1266,-2.63902 4.5159,-2.63902 0.3893,0 -1.3224,2.49251 -3.8037,5.53891 -4.4232,5.43045 -5.1113,7.61944 -3.8618,12.28535 0.4805,1.7946 1.1238,2.19841 2.8228,1.77199 1.3685,-0.34348 7.839,1.62746 17.114,5.21297 l 14.9135,5.76526 -0.3672,11.10711 -0.3671,11.10712 5.4514,3.48719 c 5.5879,3.57454 9.7829,7.98734 9.7829,10.29086 0,1.77445 5.1504,5.29534 11.8924,8.12983 4.567,1.92007 7.0401,2.305 13.3279,2.0744 5.2551,-0.19272 8.2043,-0.76708 9.2359,-1.79866 z m -5.3967,-19.40892 c -1.3204,-1.40554 -2.0865,-2.8698 -1.7024,-3.25391 0.9567,-0.95671 4.9735,3.19848 4.4911,4.6458 -0.2316,0.69465 -1.3555,0.13368 -2.7887,-1.39189 z m -49.0595,-85.31513 c 0,-0.41344 2.0482,-1.83833 4.5517,-3.16641 6.4591,-3.42652 13.1803,-11.26901 18.7531,-21.88156 5.3324,-10.15473 6.6952,-11.67852 6.6952,-7.48657 0,8.38346 -21.2849,33.28626 -28.4504,33.28626 -0.8523,0 -1.5496,-0.33827 -1.5496,-0.75172 z m 30.1478,-47.07261 c -0.6957,-2.37838 -1.0672,-4.85338 -0.8256,-5.5 0.6987,-1.86956 2.8097,4.43684 2.4321,7.26559 -0.2925,2.19133 -0.5231,1.93781 -1.6065,-1.76559 z m 25.6733,-13.92567 c -1.9716,-2.0625 -4.0879,-4.73292 -4.7029,-5.93426 -2.4544,-4.79421 -0.839,-4.35002 4.6318,1.27361 3.1625,3.25086 6.65,6.44669 7.75,7.10184 1.8493,1.10146 1.7704,1.19563 -1.0471,1.25 -2.2608,0.0436 -3.9721,-0.90884 -6.6318,-3.69119 z m -9.9027,-21.61803 c 2.7629,-4.4704 2.6252,-8.62572 -0.4895,-14.77224 -1.6352,-3.22685 -2.0902,-4.92563 -1.25,-4.66679 2.342,0.72152 5.8211,8.96718 5.8211,13.79644 0,4.86836 -2.1323,9.01062 -4.6383,9.01062 -1.2563,0 -1.1582,-0.59322 0.5567,-3.36803 z m -108.688,152.5348 13.7304,-7.81258 -3.9763,-2.9271 c -4.6065,-3.39099 -6.5029,-8.4851 -5.5426,-14.88856 0.9599,-6.4012 3.4745,-9.52273 16.5182,-20.50497 7.1754,-6.04137 13.5433,-12.33862 15.5541,-15.38144 3.876,-5.86523 6.4802,-14.72772 6.4976,-22.11222 0.015,-6.38759 1.8135,-13.19727 7.1411,-27.0399 4.0008,-10.39513 4.6553,-11.41628 11.9033,-18.57034 l 7.6697,-7.57035 -15.8989,-1.15734 c -17.1562,-1.24887 -27.1683,-3.81186 -39.8002,-10.1884 l -6.0281,-3.04298 -34.2494,21.16647 c -18.8371,11.64156 -34.3785,21.2648 -34.5363,21.38498 -0.7835,0.59666 4.0521,19.17626 7.2816,27.97796 6.2512,17.03669 6.8308,19.9693 5.6991,28.83798 l -1.0001,7.83798 16.0198,24.66202 c 17.0262,26.21143 17.6834,27.16774 18.659,27.1517 0.3452,-0.006 6.8062,-3.52598 14.358,-7.82291 z m -139.7835,-19.41677 c 1.9292,-3.9875 5.497,-10.7099 7.9285,-14.93866 l 4.4209,-7.68867 -50.8982,-37.6785 c -27.994,-20.72317 -50.8981,-38.29897 -50.8981,-39.05733 0,-0.8008 10.166,-6.45788 24.25,-13.49432 13.3375,-6.66352 24.346,-12.19882 24.4633,-12.30067 0.1173,-0.10184 -0.3861,-2.18918 -1.1186,-4.63851 -0.7326,-2.44934 -1.662,-8.45753 -2.0655,-13.35153 -0.6984,-8.4727 -0.913,-9.09065 -4.4875,-12.92271 l -3.754,-4.0245 -26.1583,12.85827 c -18.3345,9.01243 -26.4736,12.54298 -27.2125,11.80413 -0.8342,-0.8342 -8.825,-86.16546 -8.8986,-95.02505 -0.011,-1.375 -4.8106,-7.74665 -12.7205,-16.88838 -12.7003,-14.6782 -12.7024,-14.67999 -14.25,-12.29195 -0.8513,1.31361 -3.2334,4.23659 -5.2935,6.49551 l -3.7457,4.10712 5.4957,64.15533 c 3.0226,35.28542 5.4956,64.53904 5.4956,65.00803 0,0.469 -17.1,8.87859 -38,18.68799 l -38,17.83526 -0.01,7.04957 c 0,3.87726 -0.2813,9.31794 -0.6145,12.09039 l -0.6058,5.04082 8.2516,7.43874 8.2517,7.43874 39.1129,-19.89379 39.1129,-19.89378 58.5,45.64478 c 32.175,25.10464 58.8238,45.65354 59.2197,45.66423 0.3958,0.0107 2.2981,-3.24306 4.2272,-7.23056 z m 17.5594,-29.25674 2.3549,-2.50674 -2.7455,-5.74326 c -4.0094,-8.38732 -10.0098,-17.65001 -19.5458,-30.17283 -6.2019,-8.14447 -9.0075,-11.07043 -10.6151,-11.07043 -4.3385,0 -7.6847,-4.17706 -13.9848,-17.45731 -3.4031,-7.17348 -7.2429,-15.80799 -8.533,-19.18781 l -2.3455,-6.14512 -22.2987,11.13627 c -12.2643,6.12494 -22.1849,11.45061 -22.0458,11.83482 0.2971,0.82048 95.9801,71.77041 96.8286,71.79945 0.3167,0.0108 1.6355,-1.10833 2.9307,-2.48704 z m -32.5128,-57.24326 c -1.6872,-4.09817 -1.6143,-5.57924 0.5608,-11.39521 5.0676,-13.55086 15.9545,-26.25607 26.5532,-30.98836 6.567,-2.9321 18.148,-5.03795 28.2543,-5.13764 l 9.3618,-0.0923 -0.7127,-14.25649 c -1.1725,-23.45376 1.8232,-28.68752 21.9903,-38.41957 l 12.2257,-5.89976 0.5188,-6.78032 c 0.5903,-7.71484 3.827,-17.09813 7.2712,-21.07945 3.8317,-4.42927 4.2328,-0.45247 0.5414,5.36818 -2.5511,4.02267 -3.0558,5.82666 -3.043,10.87674 0.01,3.32982 0.3635,6.6022 0.789,7.27194 0.561,0.88288 5.107,-0.83575 16.5322,-6.25 14.28,-6.76721 16.334,-7.46776 21.8952,-7.46776 11.4234,0 18.7617,5.74903 19.7841,15.49951 l 0.5244,5.00049 1.825,-3.7103 c 2.3593,-4.79674 9.1081,-10.98239 15.5358,-14.23956 2.8112,-1.42453 8.739,-3.14253 13.2679,-3.84532 l 8.1864,-1.27035 -6.9277,-3.60944 c -16.2221,-8.452 -38.455,-14.7526 -73.3164,-20.7772 -9.5402,-1.6487 -17.9977,-3.53865 -18.7945,-4.1999 -0.7967,-0.66124 -2.0986,-2.4592 -2.893,-3.99545 -2.6838,-5.18987 -4.7148,-5.4112 -13.1026,-1.42785 -7.756,3.68328 -11.8037,4.53314 -11.0755,2.32537 0.3601,-1.09179 3.3622,-3.05608 6.1779,-4.04223 0.5079,-0.17789 -0.9536,-2.86433 -3.2478,-5.96987 -4.8596,-6.57821 -5.8423,-6.90102 -21.3761,-7.02218 -7.4543,-0.0581 -11.5237,0.38978 -14.7303,1.62135 -4.7889,1.83927 -7.2464,0.98288 -4.6449,-1.61863 2.3018,-2.30184 14.3494,-4.71844 23.523,-4.71844 9.2653,0 9.9154,-0.80212 4.7265,-5.83138 -2.6198,-2.53922 -4.69,-3.45055 -9.75,-4.29202 -7.5876,-1.2618 -19.3952,-0.57178 -28.1524,1.64519 -8.3618,2.11687 -24.3157,9.93862 -35.877,17.58947 -10.7601,7.12063 -33.5623,29.35693 -36.9861,36.0683 -2.8926,5.66978 -2.7444,10.33697 0.4335,13.66134 1.9719,2.06269 2.6111,3.8927 2.85,8.1591 0.3037,5.42187 2.0167,7.24899 2.6155,2.78961 0.8205,-6.11111 4.9126,-16.46811 8.5947,-21.7533 13.522,-19.409 36.1979,-38.03631 46.3033,-38.03631 3.9243,0 2.1884,2.00472 -3.3632,3.88415 -13.6256,4.61272 -24.3735,14.56319 -34.9511,32.3581 -15.324,25.77977 -16.0901,29.57419 -9.1411,45.27534 4.0487,9.14812 4.2649,9.4309 4.5645,5.97197 0.2211,-2.55156 -0.5942,-5.37714 -2.7429,-9.50558 -4.7801,-9.1847 -0.871,-8.30541 4.7222,1.0622 3.2173,5.38834 3.6193,10.56098 1.7062,21.95382 -1.865,11.10582 -1.6143,14.75119 1.6715,24.30608 1.8255,5.30851 18.1199,43.73848 19.4746,45.93043 0.9683,1.56669 2.5506,0.7217 1.8474,-0.98651 z m 32.5065,-95.80523 c -9.7327,-2.67577 -19.6285,-3.03122 -25.5,-0.91593 -5.0302,1.81217 -6.5,1.83334 -6.5,0.0936 0,-2.48698 2.8063,-3.78332 10.3817,-4.79557 12.837,-1.71535 34.6289,2.27448 35.4405,6.48871 0.4425,2.29767 -3.112,2.07374 -13.8222,-0.87081 z m -19,-20.42152 c 0,-4.17939 7.3292,-9.73712 22.4846,-17.05001 21.9005,-10.5675 50.7485,-17.70009 56.5154,-13.97324 1.8046,1.16624 2.1456,1.08012 -6.5,1.64183 -21.5,1.39687 -51.0776,13.33488 -64.5674,26.06051 -3.6717,3.46371 -6.9586,6.29766 -7.3042,6.29766 -0.3457,0 -0.6284,-1.33954 -0.6284,-2.97675 z m -2,-14.48845 c 0,-1.35587 1.4018,-4.06181 3.1152,-6.01322 4.0292,-4.58909 18.8317,-14.46995 30.3376,-20.25073 9.3622,-4.70377 21.5232,-9.6281 22.173,-8.97839 0.2041,0.20413 -5.5225,3.66344 -12.7258,7.68736 -18.3956,10.27616 -26.5723,15.80302 -34.6413,23.4149 -3.8511,3.6329 -7.2847,6.60528 -7.6303,6.60528 -0.3457,0 -0.6284,-1.10934 -0.6284,-2.4652 z m 115.3503,102.4652 31.5727,-19.5 0.039,-31.67327 0.038,-31.67328 -2.7033,-3.2127 c -3.2864,-3.90554 -7.858,-5.94075 -13.3448,-5.94075 -6.2216,0 -64.1547,27.51523 -68.6613,32.61056 -5.7775,6.53229 -6.6643,11.28338 -5.3394,28.60554 1.1327,14.80805 1.2138,15.15899 4.3515,18.8359 4.5709,5.35646 10.7988,16.14211 14.7728,25.58425 3.219,7.64799 3.5528,8.06806 5.5633,7 1.1764,-0.62494 16.3466,-9.91125 33.7115,-20.63625 z m -42.9577,-19.4191 c -0.3346,-0.87198 -0.4403,-6.6469 -0.2348,-12.83316 0.6268,-18.87312 3.241,-21.72763 31.6383,-34.54616 18.4328,-8.32061 22.6257,-9.57464 22.0272,-6.58814 -0.2026,1.01073 -7.137,4.6813 -18.5633,9.82599 -22.0432,9.92492 -25.011,11.7721 -28.2141,17.56057 -2.1137,3.81995 -2.5698,6.22586 -3.018,15.92019 -0.363,7.8522 -0.9183,11.54921 -1.7774,11.83316 -0.6872,0.22713 -1.5233,-0.30047 -1.8579,-1.17245 z m -147.0259,-18.03784 c 12.4483,-6.02632 22.6333,-11.20651 22.6333,-11.51153 0,-0.30503 -12.0334,-14.48882 -26.7409,-31.51955 -19.1541,-22.17986 -26.8423,-30.43815 -27.0984,-29.10811 -0.3705,1.92401 5.5871,77.31127 6.4342,81.41717 0.2633,1.27657 0.8522,2.17657 1.3086,2 0.4564,-0.17657 11.0149,-5.25166 23.4632,-11.27798 z m 25.6125,-23.35441 c -2.1728,-6.16828 -4.5814,-12.22162 -5.3526,-13.45186 -0.7712,-1.23023 -1.7152,-4.01586 -2.0979,-6.19028 -1.1611,-6.59786 -4.038,-10.93162 -15.839,-23.86004 -6.2191,-6.8132 -17.5368,-19.62055 -25.1505,-28.46079 -15.1751,-17.61982 -18.269,-19.96721 -29.8513,-22.64862 -3.7466,-0.86738 -7.0091,-1.57706 -7.25,-1.57706 -0.2409,0 -0.438,1.04152 -0.438,2.31448 0,1.61328 13.5319,17.97387 44.6649,54.00183 24.5657,28.42804 44.7998,51.55236 44.9648,51.38738 0.165,-0.16499 -1.4777,-5.34675 -3.6504,-11.51504 z m -13.9792,-40.71085 c 0,-0.83721 -1.7707,-5.04381 -3.9348,-9.34801 -4.2462,-8.44528 -11.9085,-17.57902 -18.4673,-22.01375 -5.5703,-3.76636 -15.5979,-9.38425 -15.5979,-8.7386 0,0.28832 5.2494,6.50885 11.6653,13.82339 25.1965,28.7254 26.3347,29.86106 26.3347,26.27697 z m -114.5164,-7.90652 c 2.7063,-1.13078 4.1563,-2.89201 6.953,-8.44557 2.8239,-5.60752 4.8924,-8.10299 10.2985,-12.42462 7.83,-6.25927 14.4293,-13.18461 16.6428,-17.46512 5.589,-10.80788 7.9598,-32.43618 5.2327,-47.73597 -2.0396,-11.4424 -2.0573,-18.41733 -0.054,-21.27749 2.0972,-2.99426 3.6775,-2.83076 2.2802,0.23592 -1.0087,2.21396 0.2806,15.0153 2.7488,27.29157 0.5528,2.74935 2.3533,2.83562 7.2041,0.34517 4.1107,-2.1105 7.2102,-6.57787 7.2102,-10.39247 0,-2.86115 -1.5948,-3.7027 -7.0167,-3.7027 -4.9865,0 -8.9834,-1.54619 -8.9834,-3.47525 0,-1.94387 1.3977,-1.9554 3,-0.0247 1.6013,1.92935 5.1445,1.89224 15.607,-0.16345 8.9312,-1.75484 11.3281,-1.21553 9.9983,2.24973 -0.6234,1.6246 -0.7311,1.62381 -1.9289,-0.0142 -1.0042,-1.37333 -1.9373,-1.56163 -4.4772,-0.90349 -1.7647,0.45728 -3.2064,1.16892 -3.2038,1.58142 0,0.4125 0,1.78899 0,3.05887 0,3.92176 2.3695,5.92224 8.5964,7.25755 l 5.9036,1.26596 -5.5,0.0777 c -3.025,0.0427 -6.673,-0.53441 -8.1066,-1.28249 -2.4559,-1.2815 -2.7628,-1.16441 -5.3077,2.02506 l -2.7012,3.3852 1.9922,2.53267 c 1.1698,1.48714 2.2595,4.8851 2.6397,8.2311 0.9205,8.10201 1.3571,9.19986 4.0691,10.23096 2.7426,1.04272 3.1553,2.74595 0.8772,3.62014 -3.2682,1.25388 -7.463,-6.09199 -7.463,-13.06846 0,-3.26805 -2.3964,-8.13869 -4.3785,-8.89928 -0.7988,-0.30653 -2.7279,-0.2178 -4.2869,0.19719 l -2.8347,0.75451 -0.5467,11.43163 c -0.3007,6.2874 -0.4925,11.53988 -0.4261,11.67218 0.066,0.1323 4.7519,1.4543 10.4125,2.93779 12.0388,3.1551 22.2656,8.64062 39.7057,21.29774 12.8185,9.30296 14.6955,11.37946 19.6592,21.7484 l 3.4584,7.22448 5.3376,-7.22448 c 2.9356,-3.97346 8.861,-10.72571 13.1676,-15.005 l 7.83,-7.78052 -3.7351,-1.56063 c -2.0543,-0.85835 -6.5966,-2.15934 -10.094,-2.89108 -5.4697,-1.14442 -7.2,-1.11696 -12.3753,0.19644 -5.8693,1.4895 -8.8155,1.13205 -5.8648,-0.71155 5.5994,-3.49851 20.3215,-3.5658 30.4713,-0.13926 l 5.7101,1.92773 6.4207,-4.85979 c 8.5566,-6.47646 29.1548,-16.55061 37.869,-18.5209 3.85,-0.87049 7.5625,-1.74796 8.25,-1.94993 0.7831,-0.23008 1.25,-2.22421 1.25,-5.33959 0,-2.7348 0.4991,-5.28087 1.1092,-5.65794 0.7767,-0.48003 0.9235,0.47668 0.4894,3.19098 -0.861,5.38445 0.4114,6.87656 5.8642,6.87656 2.4933,0 4.5341,-0.29683 4.5352,-0.65962 0.001,-0.36279 -2.8519,-4.48755 -6.34,-9.16612 -13.0524,-17.5074 -14.853,-21.7261 -16.5447,-38.76349 -1.091,-10.98751 -2.5095,-14.97257 -8.3773,-23.53471 -4.088,-5.96496 -4.2948,-6.11081 -7.9665,-5.61833 -2.4366,0.32682 -3.7695,0.10544 -3.7695,-0.62606 0,-0.62242 0.9,-1.13167 2,-1.13167 1.1,0 2,-0.40933 2,-0.90961 0,-1.67416 -14.4415,-8.81468 -19.25,-9.51809 -2.6125,-0.38216 -4.75,-1.11727 -4.75,-1.63357 0,-1.50746 6.0661,-1.02333 11.7402,0.93696 2.8822,0.99572 5.4697,1.58103 5.75,1.30069 0.2804,-0.28034 0.5098,-1.75876 0.5098,-3.28536 0,-6.65296 -17.0032,-23.46841 -26.2474,-25.95761 -7.55,-2.03302 -23.594,0.94795 -30.8126,5.72498 l -4.0526,2.68189 2.6217,2.43105 c 3.6205,3.35711 2.2994,4.08681 -1.544,0.85281 -1.7156,-1.4436 -4.3221,-2.89645 -5.7922,-3.22855 -1.4701,-0.33211 -4.8921,-1.23198 -7.6044,-1.99971 -2.7124,-0.76774 -7.2672,-1.39588 -10.1218,-1.39588 -7.2261,0 -23.5885,4.31253 -31.9468,8.41993 l -7,3.43995 0.3413,9.99076 c 0.7516,22.0059 -8.8057,41.45185 -22.296,45.36526 -2.2249,0.64541 -5.7238,2.21086 -7.7754,3.47879 -4.5707,2.8248 -5.1419,2.86891 -3.7619,0.29047 0.8157,-1.52415 0.7634,-2.10517 -0.2148,-2.38579 -0.7112,-0.20403 -3.1725,-0.88049 -5.4695,-1.50325 -2.2971,-0.62276 -6.5048,-2.69915 -9.3505,-4.61421 -2.8458,-1.91505 -5.2993,-3.48191 -5.4523,-3.48191 -1.1207,0 -2.5855,6.42941 -2.0354,8.93395 0.7527,3.42707 0.8594,3.48706 3.5951,2.02293 3.3546,-1.79534 3.396,1.54484 0.077,6.25241 -4.8076,6.82003 -4.6005,7.67707 3.7174,15.38005 7.7668,7.19263 10.3284,11.54581 11.5282,19.59093 l 0.698,4.68026 3.0482,-1.0626 c 7.3001,-2.54486 14.1418,-13.46234 16.24,-25.9147 0.7249,-4.30247 1.7724,-7.43732 2.5744,-7.70466 1.734,-0.57799 0.8258,11.85699 -1.4144,19.36511 -2.606,8.73463 -10.7628,16.45632 -17.3836,16.45632 -3.137,0 -4.1256,1.7415 -4.1526,7.31574 -0.018,3.66228 -1.6735,6.68426 -3.6623,6.68426 -1.2391,0 -1.4473,-0.69865 -0.9688,-3.25 0.3352,-1.7875 0.8941,-6.87298 1.242,-11.30108 0.7864,-10.00942 0.07,-11.55586 -9.7086,-20.94892 -13.4315,-12.90224 -12.2324,-10.84866 -14.1805,-24.28605 -0.9646,-6.65414 -2.0219,-12.79685 -2.3495,-13.65045 -1.0354,-2.69823 -2.386,-0.60639 -2.386,3.69552 0,2.90272 -0.3152,3.82573 -1.0542,3.08673 -0.5798,-0.57984 -0.9173,-3.70734 -0.75,-6.95 l 0.3042,-5.89575 6.295,-3.03727 c 6.5928,-3.18101 15.1438,-9.91342 17.8637,-14.06455 1.8387,-2.80612 4.2546,-13.19995 4.3062,-18.52574 0.043,-4.40733 -1.0989,-5.45121 -7.5058,-6.86311 -2.7275,-0.60107 -7.3934,-1.99464 -10.3687,-3.09681 -6.3779,-2.3626 -8.0904,-1.9745 -8.0904,1.83359 0,6.3712 6.0551,10.47286 15.7119,10.64323 4.371,0.0771 6.2747,0.49908 6.2802,1.39204 0,0.70477 -0.5546,1.42324 -1.2421,1.59661 -0.6875,0.17338 -5.2824,1.28884 -10.2109,2.47881 -12.5296,3.02521 -19.5099,8.48594 -19.5544,15.29749 -0.012,1.7698 -0.2351,1.99851 -0.9105,0.93153 -0.4923,-0.7778 -0.6552,-2.89286 -0.3619,-4.70014 0.4703,-2.89806 0.228,-3.36258 -2.0528,-3.93501 -1.4223,-0.35697 -4.6623,-3.07941 -7.2,-6.04986 -2.5378,-2.97044 -4.9815,-5.40081 -5.4305,-5.40081 -0.449,0 -0.3627,1.9125 0.1918,4.25 0.9434,3.977 1.299,24.81989 0.499,29.25 -0.3804,2.1064 -1.1719,4.36988 -2.9722,8.5 -1.3733,3.1504 -1.0793,46.99108 0.3722,55.5 1.2211,7.15838 6.234,17.98737 11.7087,25.29316 2.1815,2.91124 9.0751,10.87215 15.319,17.6909 10.6186,11.59621 11.5971,12.40155 15.1347,12.45684 2.0801,0.0325 5.3208,-0.58383 7.2015,-1.36962 z m -4.4837,-10.60618 c -1.7422,-1.38711 -3.7124,-1.91082 -6.5,-1.72777 -5.0272,0.33013 -6.3198,-1.62727 -1.3483,-2.04183 4.4576,-0.37171 10.8483,2.134 10.8483,4.25347 0,1.9254 0.033,1.93068 -3,-0.48387 z m -12.6151,-31.12706 c -5.0203,-3.76231 -13.4896,-12.24184 -14.8201,-14.83804 -2.2817,-4.4521 -5.7075,-20.50876 -5.348,-25.06615 0.4096,-5.1938 1.0966,-3.89311 2.6757,5.06615 0.6514,3.69553 2.9712,10.16739 5.3767,15 l 4.2308,8.5 9.7549,5.83769 c 5.3651,3.21073 9.5011,6.24823 9.1909,6.75 -1.086,1.75731 -8.1069,0.9641 -11.0609,-1.24965 z m 168.4117,-2.58804 c -1.5882,-1.83662 -3.7965,-7.59454 -3.7965,-9.89922 0,-2.74985 1.7986,-1.23742 2.4111,2.02744 0.3486,1.85802 1.7487,4.58121 3.1113,6.05152 1.3627,1.47032 2.4776,2.87512 2.4776,3.12178 0,1.14689 -2.8489,0.26477 -4.2035,-1.30152 z m 14.4463,-3.47867 c 0.2253,-0.67577 2.3563,-2.36722 4.7357,-3.75877 2.3793,-1.39155 4.6759,-3.42614 5.1035,-4.52132 0.7433,-1.90383 0.7805,-1.89541 0.8477,0.19181 0.045,1.41371 -1.4638,3.44011 -4.2827,5.75 -4.3874,3.59513 -7.1606,4.60768 -6.4042,2.33828 z m -34.9343,-6.8853 c -1.7553,-0.50208 -4.134,-2.23651 -5.2859,-3.85428 -1.4097,-1.97968 -2.6268,-2.73713 -3.7226,-2.31664 -1.0875,0.41732 -1.3881,0.2363 -0.9051,-0.54517 1.2041,-1.94823 3.6599,-1.32901 7.2578,1.83006 4.016,3.52606 6.0452,3.70489 11.3473,1 4.3678,-2.22831 7,-2.5641 7,-0.89301 0,0.60884 -0.6629,0.85264 -1.473,0.54177 -0.8101,-0.31086 -2.7226,0.47942 -4.25,1.75618 -3.5887,2.99984 -6.0303,3.60755 -9.9685,2.48109 z m 49.3729,-3.10405 c -0.6498,-0.41325 1.8295,-0.75825 5.5095,-0.76667 3.6801,-0.008 6.9042,0.32969 7.1648,0.75136 0.6125,0.99102 -11.1177,1.00519 -12.6743,0.0153 z m -101.767,-3.7538 -2.4144,-2.05872 3,0.76527 c 1.6499,0.4209 5.597,0.73675 8.7711,0.70189 7.7765,-0.0854 6.9598,1.97106 -0.9361,2.35683 -4.8885,0.23884 -6.4554,-0.0896 -8.4206,-1.76527 z m 26.538,0.58982 c -3.0417,-1.3486 -6.4524,-5.45582 -6.4524,-7.76991 0,-0.67225 1.3777,0.0994 3.0616,1.71482 2.7066,2.59647 3.9533,2.99508 10.75,3.43709 6.389,0.4155 7.3504,0.69162 5.6884,1.63387 -3.4521,1.95711 -9.7772,2.43419 -13.0476,0.98413 z m 69.7591,0.132 c -0.5683,-0.6875 -1.7979,-3.16418 -2.7325,-5.50372 -0.9345,-2.33955 -3.0562,-5.39555 -4.7147,-6.7911 -3.3733,-2.8385 -3.1227,-4.52001 0.3149,-2.11224 2.6479,1.85465 5.905,6.59224 5.9142,8.60234 0,0.79491 1.2157,2.70741 2.6936,4.25 1.9797,2.06634 2.2752,2.80472 1.1225,2.80472 -0.8606,0 -2.0296,-0.5625 -2.598,-1.25 z m 19.7885,-2.38192 c 0,-2.87835 -0.7512,-4.34037 -3.6204,-7.04634 -1.9912,-1.87792 -3.3196,-3.71514 -2.952,-4.08271 1.0222,-1.02224 3.824,1.08391 6.3224,4.75268 2.2689,3.33187 3.1028,10.00829 1.25,10.00829 -0.55,0 -1,-1.63437 -1,-3.63192 z m -51,-1.29135 c 0,-1.968 5.2877,-7.07748 7.3388,-7.09147 3.3902,-0.0231 6.8563,-2.21374 8.679,-5.48526 1.3678,-2.45489 1.4476,-3.36341 0.4391,-5 -0.6779,-1.1 -1.5382,-3.8 -1.9119,-6 -0.3738,-2.2 -1.7743,-5.67785 -3.1123,-7.72856 -2.954,-4.52746 -3.0265,-5.15959 -0.4327,-3.77144 3.0042,1.60783 4.8655,5.01795 5.9979,10.98905 0.5603,2.95455 1.7597,6.19069 2.6654,7.19143 1.5292,1.68972 1.5286,1.81952 -0.01,1.81952 -1.2082,0 -1.6549,0.89777 -1.6549,3.32569 0,4.68798 -3.4211,7.67431 -8.7914,7.67431 -3.3366,0 -4.4876,0.49609 -5.8006,2.5 -1.6374,2.49901 -3.408,3.31819 -3.408,1.57673 z m -54.445,-6.98773 c -0.2874,-0.46502 0.7076,-1.09734 2.2112,-1.40515 1.5036,-0.30782 3.566,-1.17677 4.5832,-1.93102 2.5623,-1.90006 3.6407,-8.96476 2.4934,-16.3346 -1.2409,-7.97012 -0.7615,-15.62394 1.0152,-16.20941 1.0659,-0.35125 1.2104,0.42684 0.6715,3.61657 -0.4718,2.79222 -0.028,6.69252 1.4174,12.46276 1.829,7.3008 1.9373,8.89684 0.8285,12.20974 -0.7015,2.0961 -2.4004,4.5959 -3.7754,5.55511 -2.9003,2.02324 -8.6826,3.26969 -9.445,2.036 z m 24.445,-4.16028 c 0,-0.43667 0.931,-1.08945 2.069,-1.45062 3.0178,-0.95784 5.9229,-6.36482 5.9272,-11.03193 0,-3.27007 0.6413,-4.67178 3.3014,-7.25 2.8425,-2.75514 4.0089,-3.19617 8.4529,-3.19617 6.9079,0 9.9425,-1.53977 11.3319,-5.74991 1.4897,-4.5137 0.561,-9.875 -3.115,-17.98209 -1.6418,-3.62101 -2.8549,-6.71387 -2.6957,-6.87304 0.6073,-0.60733 6.9488,9.55452 8.2629,13.24084 0.7577,2.12531 1.3973,6.45831 1.4215,9.6289 0.042,5.45 -0.1336,5.87287 -3.2061,7.74626 -2.1573,1.31531 -5.0319,1.98282 -8.5497,1.9853 -6.6081,0.005 -10.9689,2.14022 -11.7861,5.77193 -2.4841,11.03816 -4.556,14.64342 -8.8917,15.47226 -1.3874,0.26521 -2.5225,0.12493 -2.5225,-0.31173 z m 71.5346,-2.27973 c -1.2821,-0.93752 -3.9889,-1.19111 -9.1669,-0.85881 -5.0372,0.32327 -7.8223,0.0775 -8.8576,-0.78177 -2.3605,-1.95901 -1.774,-3.05924 1.0569,-1.98291 1.4119,0.5368 5.5744,0.69866 9.25,0.35969 5.9807,-0.55155 6.8837,-0.39336 8.5935,1.50538 2.2685,2.51924 1.7068,3.64693 -0.8759,1.75842 z m -2.3639,-10.14899 c -0.1181,-2.2 -1.0828,-5.9125 -2.1438,-8.25 -1.5542,-3.42398 -1.654,-4.25 -0.5132,-4.25 2.4103,0 3.5959,3.77502 3.2261,10.27234 -0.2327,4.08814 -0.4282,4.85346 -0.5691,2.22766 z m -106.5158,-3.32874 c -2.4919,-2.75358 -1.9983,-3.40019 1.2954,-1.69694 3.7172,1.92222 6.1633,1.92284 10.7588,0.003 2.1243,-0.88756 4.0155,-1.15236 4.5332,-0.63471 1.2596,1.25929 -6.483,4.15739 -11.1076,4.15739 -2.4354,0 -4.426,-0.66431 -5.4798,-1.82874 z m -109.561,-13.92126 c -2.4359,-9.29119 -2.4342,-9.25 -0.3773,-9.25 1.5137,0 1.9344,0.70554 1.938,3.25 0,1.7875 0.3625,4.7125 0.8,6.5 0.5287,2.16048 0.4311,3.25 -0.2911,3.25 -0.5976,0 -1.5289,-1.6875 -2.0696,-3.75 z m 100.6561,3.0701 c -0.9625,-0.25671 -1.75,-1.33375 -1.75,-2.39342 0,-2.1148 1.044,-2.48259 2.6079,-0.91871 0.6773,0.6773 2.9573,0.2292 6.95,-1.36589 7.8242,-3.12576 11.1831,-3.87008 11.9398,-2.64575 0.3412,0.55202 -0.3359,1.00367 -1.5045,1.00367 -2.4664,0 -5.652,1.50668 -8.4932,4.017 -2.1704,1.91759 -6.9566,3.04816 -9.75,2.3031 z m 104.5035,-1.99216 c -1.8676,-1.3029 -2.9962,-1.37837 -6.6928,-0.44755 -6.7683,1.70427 -9.9513,1.39722 -12.3864,-1.19484 -2.9382,-3.12754 -2.7434,-4.10449 0.4069,-2.04037 2.2678,1.48596 3.1835,1.53692 7.5425,0.41974 5.5116,-1.41257 11.0321,-0.78701 12.8982,1.46154 0.6726,0.81045 2.0944,1.47354 3.1595,1.47354 1.0651,0 1.6585,0.45 1.3186,1 -0.889,1.4384 -3.6465,1.14171 -6.2465,-0.67206 z m -213.5719,0.0204 c -0.3749,-0.37491 -0.6817,-1.98626 -0.6817,-3.58075 0,-1.59449 -0.4864,-3.80803 -1.081,-4.91898 -1.3886,-2.59473 -0.6404,-3.30509 1.9954,-1.89445 1.5451,0.82689 2.0817,2.07906 2.0703,4.83102 -0.016,3.93074 -1.1636,6.70253 -2.303,5.56318 z m 82.3092,-8.83735 c 0.6797,-0.81894 1.6313,-1.24452 2.1148,-0.94572 0.4835,0.2988 4.3632,0.0587 8.6217,-0.53363 11.0408,-1.53564 16.6011,-5.57807 24.8545,-18.0699 2.7117,-4.10415 5.7342,-7.3155 8.119,-8.62605 4.5611,-2.50651 14.2802,-5.88181 19.7992,-6.87596 5.1833,-0.93369 6.5,-2.06442 6.5,-5.58219 0,-1.58266 0.45,-2.87756 1,-2.87756 1.3559,0 1.2663,5.32128 -0.1417,8.41145 -0.9062,1.98898 -2.2978,2.73233 -6.75,3.60553 -12.9778,2.54535 -18.0342,5.61895 -27.0998,16.47284 -11.604,13.89287 -16.1432,16.39427 -29.881,16.46629 -7.3041,0.0383 -8.2148,-0.1461 -7.1367,-1.4451 z m 58.7406,0.88713 c -3.0151,-3.0151 1.5195,-8.31304 14.2686,-16.67053 7.8697,-5.15889 9.5557,-6.71471 9.8249,-9.06604 0.1925,-1.68175 -0.3823,-3.61992 -1.4105,-4.75613 -0.9545,-1.05474 -1.4896,-2.16364 -1.189,-2.46423 0.3006,-0.3006 1.5417,0.71466 2.7581,2.25613 1.759,2.22917 2.1117,3.69568 1.7239,7.1669 -0.7267,6.50546 -3.3634,9.38186 -9.7984,10.68928 -6.9229,1.40655 -11.7681,3.95102 -12.843,6.74458 -0.4659,1.21104 -1.2423,3.24356 -1.7251,4.51671 -0.4829,1.27314 -1.2072,1.98564 -1.6095,1.58333 z m 74.2686,-4.81313 c 0,-1.62063 -1.5311,-3.7627 -4.6546,-6.51212 -4.8674,-4.28444 -5.3148,-6.92198 -0.5791,-3.41395 5.0905,3.77084 9.4194,12.34108 6.2337,12.34108 -0.55,0 -1,-1.08676 -1,-2.41501 z m -14.7028,-16.54314 c -1.8559,-1.50466 -2.8896,-1.62885 -6.5623,-0.7884 -5.876,1.34462 -14.1993,-1.04119 -18.1998,-5.21678 -3.5263,-3.68068 -1.9741,-3.95291 3.06,-0.53667 3.1512,2.13844 4.8127,2.5 11.4886,2.5 6.8105,0 8.1622,0.30764 10.6105,2.41493 3.2538,2.80057 2.8899,4.29189 -0.397,1.62692 z m -18.2972,-17.07888 c -1.375,-0.39116 -5.9446,-0.47946 -10.1546,-0.19623 -7.2386,0.48699 -7.7957,0.37391 -10.25,-2.08043 -3.5016,-3.50151 -3.2973,-5.32228 0.3089,-2.7544 2.3668,1.6853 4.4491,2.07398 11.25,2.09989 5.7215,0.0218 8.9516,0.49021 10.2727,1.48967 2.3969,1.81339 1.8439,2.37203 -1.427,1.4415 z m 126.8604,72.67332 c 2.0481,-1.99996 4.0424,-3.63629 4.4317,-3.63629 1.8593,0 0.3789,4.099 -2.2921,6.34655 -3.5424,2.98071 -3.7145,3.65345 -0.9343,3.65345 6.3343,0 9.4845,-5.50689 10.2969,-18 0.3935,-6.05173 1.5648,-12.4038 3.2269,-17.5 2.3612,-7.24011 2.56,-9.04485 2.0928,-19 -0.2839,-6.05 -1.4466,-15.275 -2.5836,-20.5 -1.4279,-6.56113 -2.0723,-13.15317 -2.0831,-21.30902 -0.01,-7.61425 -0.3709,-11.58948 -1.0156,-11.19098 -0.55,0.33992 -1,3.26492 -1,6.5 0,5.78286 -1.2068,8.50966 -2.3953,5.41247 -0.3326,-0.86683 -0.6047,-3.8467 -0.6047,-6.62194 0,-4.46521 0.5609,-5.80801 4.8739,-11.66822 7.7364,-10.51157 8.4729,-12.44498 7.7996,-20.47572 -0.3207,-3.8259 -1.0535,-7.42652 -1.6283,-8.00139 -0.727,-0.72693 -1.0452,-0.70316 -1.0452,0.0781 0,2.38209 -5.3307,7.29552 -9.1597,8.44271 l -4.0122,1.2021 0.6391,4.26174 c 0.6576,4.38562 -0.7775,11.82587 -2.4846,12.88092 -0.6014,0.37166 -0.7316,-1.61925 -0.3467,-5.30134 0.5483,-5.24611 0.371,-6.12505 -1.6076,-7.96838 -2.07,-1.92847 -14.5424,-6.06026 -15.4759,-5.12676 -0.9011,0.9011 -0.655,25.57063 0.2853,28.59231 1.0319,3.31625 0.546,7.29343 -0.891,7.29343 -0.451,0 -0.9819,-1.4625 -1.1797,-3.25 l -0.3596,-3.25 -1.2037,2.8151 c -0.6621,1.5483 -1.2233,5.5983 -1.2473,9 -0.067,9.48579 -1.2951,13.97008 -5.9258,21.63417 -5.4917,9.08912 -5.1389,11.79235 2.2945,17.57969 4.408,3.43195 5.4974,4.98783 7.3517,10.5 3.4488,10.25188 2.6288,11.16409 -2.0419,2.27132 -2.3686,-4.50984 -4.8851,-8.89673 -5.5921,-9.74863 -0.707,-0.85191 -4.883,-3.34953 -9.28,-5.55028 -8.7057,-4.35736 -12.3411,-4.82125 -23.2628,-2.96834 -3.3,0.55985 -6.8516,1.11895 -7.8924,1.24244 -2.6589,0.31548 -3.2858,-2.28538 -0.713,-2.95817 1.1579,-0.30281 2.1054,-0.87348 2.1054,-1.26815 0,-1.1611 -7.9312,-12.26101 -11.3515,-15.88678 -1.7317,-1.83569 -4.8265,-4.20245 -6.8772,-5.25945 -3.7403,-1.92779 -16.6604,-5.34719 -17.402,-4.60557 -0.2176,0.21757 0.3136,2.09299 1.1805,4.16762 0.8668,2.07462 1.4352,5.16324 1.2631,6.86359 -0.2694,2.66136 0.2658,3.48047 3.8461,5.88652 4.7235,3.17424 13.4128,14.37239 16.2226,20.90639 1.3035,3.03115 2.0515,7.84 2.431,15.62714 0.4716,9.67714 0.9429,12.04597 3.3734,16.95602 l 2.8252,5.7074 12.9944,3.76604 c 11.4202,3.30982 24.7727,6.20642 32.4944,7.0491 1.375,0.15006 6.0182,-0.22834 10.3182,-0.84088 6.9272,-0.98678 8.2427,-1.52814 11.5422,-4.75 z m -41.9102,-9.53218 c -3.6024,-0.4025 -8.5711,-1.71036 -11.0417,-2.90634 -4.5665,-2.2106 -18.9085,-13.87229 -18.9085,-15.37475 0,-1.58916 1.9626,-0.79472 5.3207,2.15376 6.4641,5.67555 19.5941,11.09072 31.0383,12.801 12.4674,1.86322 15.5024,1.09594 18.2747,-4.62004 1.3289,-2.74013 1.8691,-3.20639 2.1529,-1.85857 0.4652,2.20864 -2.0104,6.1461 -5.1628,8.21167 -2.8408,1.86136 -12.7529,2.59002 -21.6736,1.59327 z m 34.4371,-26.85411 c 3.2372,-10.84902 3.3269,-23.0684 0.2135,-29.06713 -0.9469,-1.82443 -1.5664,-4.07443 -1.3768,-5 0.5841,-2.84997 3.623,2.73753 4.7655,8.76219 1.2867,6.7847 1.3073,21.14385 0.035,24.48984 -1.105,2.90638 -4.4875,3.66438 -3.6373,0.8151 z m 5.2535,-56.85349 c -0.729,-5.31891 -0.3036,-6.39651 2.5252,-6.39651 1.5932,0 1.8676,0.3886 1.2357,1.75 -0.4467,0.9625 -0.7648,3.4375 -0.7069,5.5 0.1549,5.51245 -2.2745,4.83353 -3.054,-0.85349 z m -336.1409,78.50161 c 8.6462,-2.35766 16.9226,-14.30714 19.567,-28.25098 5.2884,-27.88556 -11.8167,-65.64962 -33.144,-73.17433 -27.4236,-9.67561 -43.9252,31.06817 -28.2564,69.76715 5.7104,14.10348 16.8111,26.88047 26.6354,30.65744 5.9817,2.29965 9.5684,2.53582 15.198,1.00072 z m 0.5,-5.60827 c 0,-0.56107 0.9532,-2.23182 2.1181,-3.71277 10.7517,-13.66861 8.2404,-47.87454 -5.194,-70.74631 -4.4331,-7.54718 -10.1296,-12.89543 -16.5447,-15.53316 -4.8426,-1.99117 -5.9375,-3.8979 -1.6294,-2.83761 15.2907,3.76327 28.5494,26.50199 31.4003,53.85147 1.4316,13.73394 0.2883,23.91824 -3.5305,31.44865 -2.373,4.67952 -6.6198,9.51004 -6.6198,7.52973 z m 56.9158,-0.89158 c -0.6532,-2.69405 -1.6271,-5.34827 -2.1641,-5.89827 -0.6402,-0.65564 -0.7945,-0.31128 -0.4481,1 0.2906,1.1 0.8269,4.19179 1.1917,6.87064 0.4298,3.15482 1.006,4.52809 1.6358,3.89826 0.6299,-0.62982 0.554,-2.69791 -0.2153,-5.87063 z m 37.6251,-10.76514 c 8.0766,-3.76096 13.4203,-11.72449 16.4467,-24.5098 1.8903,-7.98569 0.8224,-27.72977 -1.9808,-36.62333 -5.1863,-16.45401 -16.3849,-32.09901 -26.7536,-37.37603 -13.4579,-6.84926 -26.2814,-1.85073 -33.1892,12.93705 -5.0034,10.71082 -4.9632,10.82161 4.8884,13.45831 10.0896,2.70042 12.0476,4.56353 12.0476,11.46365 0,4.74676 0.012,4.76329 3.8313,5.37405 6.86,1.09695 8.7483,5.11212 7.1919,15.29196 -1.6836,11.01217 -3.4789,14.6126 -10.615,21.28803 l -6.4707,6.05305 4.4361,4.43607 c 4.2694,4.26946 10.3751,8.03554 15.6264,9.63873 4.6165,1.40936 9.4648,0.93198 14.5409,-1.43174 z m -3.5409,-3.49078 c 0,-0.56337 0.4586,-1.30772 1.0191,-1.6541 1.7905,-1.10661 5.6946,-9.8113 6.8566,-15.28747 3.4235,-16.13542 -2.0077,-42.81185 -11.8015,-57.96479 -4.5427,-7.02843 -11.149,-12.87853 -16.2789,-14.41549 -4.3296,-1.29716 -5.2597,-3.39774 -1.0453,-2.3605 7.376,1.81533 14.0044,7.52338 19.6436,16.91585 13.0978,21.81558 16.3488,55.21064 6.8644,70.51408 -2.6536,4.28173 -5.258,6.388 -5.258,4.25242 z m -33.1474,-0.71804 c 0.9876,-2.16751 0.8689,-2.96294 -0.7487,-5.01939 -1.7742,-2.25559 -2.0473,-2.31863 -3.547,-0.81894 -1.644,1.644 -1.3597,4.6046 0.688,7.16402 1.4772,1.8464 2.3002,1.54399 3.6077,-1.32569 z m -12.8343,-31.76578 c 3.585,-1.81723 7.635,-3.62255 9,-4.01182 2.4406,-0.69605 2.4189,-0.74116 -1.3107,-2.72293 -4.7631,-2.53087 -7.6945,-7.2489 -7.7191,-12.42378 -0.022,-4.58523 -0.6037,-5.73466 -3.7385,-7.38548 -1.2375,-0.65169 -2.25,-1.61905 -2.25,-2.1497 0,-1.79307 2.5259,-0.98002 6.0949,1.96187 2.808,2.31457 12.8838,6.07331 16.2804,6.07331 0.9934,0 -0.5543,-9.42387 -1.7615,-10.7257 -0.6251,-0.67413 -4.794,-1.91949 -9.2641,-2.76746 -9.787,-1.85656 -12.2075,-1.1898 -15.8918,4.37752 -2.6832,4.0546 -6.6598,6.24911 -13.6021,7.50653 l -3.6442,0.66006 1.9809,5.22452 c 1.0894,2.87349 2.7294,5.63097 3.6442,6.12773 0.9148,0.49676 4.4206,3.75926 7.7907,7.25 3.37,3.49074 6.52,6.33838 7,6.32809 0.4799,-0.0103 3.8059,-1.50553 7.3909,-3.32276 z m -4.6957,-8.06004 c -1.0024,-1.32084 -2.5768,-3.77435 -3.4986,-5.45226 -1.0771,-1.96039 -2.8398,-3.35228 -4.932,-3.89443 -3.4389,-0.89111 -5.1998,-3.2518 -2.4256,-3.2518 3.1859,0 7.3677,3.00598 10.9268,7.85438 1.9837,2.70247 3.6068,5.41578 3.6068,6.0296 0,1.86534 -1.7505,1.2534 -3.6774,-1.28549 z m 257.9982,-2.67061 c 12.2827,-3.41071 20.8775,-22.25107 19.3227,-42.35665 -2.1885,-28.2988 -19.4865,-53.6006 -37.8515,-55.36524 -9.4427,-0.90733 -16.8083,3.9726 -22.2729,14.75634 -3.4579,6.82386 -4.6994,13.07986 -4.6735,23.54963 0.067,27.09961 15.3948,53.82582 34.1545,59.55291 3.6279,1.10756 6.9851,1.06694 11.3207,-0.13699 z m 0.6793,-5.27501 c 0,-0.38266 1.1559,-2.44243 2.5686,-4.57726 4.0323,-6.09312 5.4331,-12.29926 5.414,-23.98454 -0.027,-16.74553 -4.1037,-31.77956 -11.8778,-43.80759 -4.3814,-6.7789 -8.826,-10.7928 -15.1048,-13.64129 -3.0196,-1.36986 -3.9292,-2.16348 -2.7649,-2.41231 3.0126,-0.64381 11.9272,5.03923 16.0172,10.21093 10.7839,13.63601 16.5468,33.82773 15.5277,54.40517 -0.5249,10.59992 -3.0281,18.15952 -7.3609,22.22994 -1.3305,1.24999 -2.4191,1.95962 -2.4191,1.57695 z m -180.4439,-2.60904 c 1.4289,-1.42888 15.0299,-6.87556 19.0545,-7.63057 2.6812,-0.50299 3.3639,-1.03714 2.8933,-2.26357 -0.3388,-0.88288 -0.9896,-4.58058 -1.4462,-8.21712 -0.5377,-4.28211 -1.7459,-8.06241 -3.4289,-10.72843 -5.1886,-8.21924 -19.1447,-15.94619 -32.8052,-18.16289 -8.072,-1.30985 -15.8237,-1.33006 -15.8237,-0.0413 0,0.55 0.3375,1.00561 0.75,1.01247 1.1153,0.0185 8.2295,6.87343 12.4352,11.98191 l 3.6851,4.47616 2.3793,-2.23527 c 1.3086,-1.2294 3.3562,-2.23527 4.5502,-2.23527 1.9285,0 1.7591,0.37739 -1.5177,3.38029 l -3.6885,3.38029 3.2502,7.05144 c 1.7877,3.8783 4.0166,10.229 4.9533,14.11266 1.6386,6.79443 2.7084,8.16989 4.7591,6.11915 z m 266.9425,-7.14781 c 8.8925,-2.23916 15.9825,-11.336 19.089,-24.49228 1.9243,-8.14963 1.4009,-23.33836 -1.1339,-32.90374 -5.9411,-22.4197 -22.4968,-40.5 -37.085,-40.5 -6.5099,0 -9.131,0.97432 -13.9108,5.17105 -4.0881,3.58942 -10.46,15.65735 -10.4548,19.80074 0,2.25078 0.4182,2.53273 3.7851,2.56943 4.6703,0.0509 8.6016,2.82317 10.5771,7.45878 1.7529,4.11316 5.6347,27.00867 5.6347,33.23425 0,3.24242 -0.8616,5.61961 -3.4751,9.58796 l -3.4751,5.2766 4.0964,4.44398 c 4.7732,5.1783 9.3394,8.19213 15.1779,10.01772 5.291,1.65439 5.868,1.67171 11.1745,0.33551 z m 2.0458,-7.36539 c 12.9522,-16.98127 5.4181,-61.07034 -13.243,-77.49646 -2.4585,-2.16409 -6.0071,-4.44198 -7.8857,-5.06199 -3.7375,-1.23349 -4.8575,-3.55171 -1.1657,-2.41288 10.402,3.20878 18.623,12.70907 24.7531,28.60511 5.8653,15.20913 7.4789,37.66386 3.5093,48.83559 -1.9792,5.57037 -5.5808,10.98407 -7.3133,10.99317 -0.807,0.004 -0.2961,-1.31051 1.3453,-3.46254 z m -361.3332,5.44184 c 2.5064,-0.70579 4.6166,-2.31562 6.5,-4.95871 1.5338,-2.15249 3.8006,-4.46184 5.0372,-5.13187 3.6505,-1.97783 1.9699,-2.06746 -5.8724,-0.31319 -7.8754,1.76165 -11.9962,3.80137 -15.7479,7.79487 -4.3919,4.675 -0.672,5.63749 10.0831,2.6089 z m 317.2956,-34.06091 c 10.1639,-3.8028 13.6153,-12.97435 8.6812,-23.06859 -1.5881,-3.24884 -3.3593,-5.17086 -5.8574,-6.3563 -3.5276,-1.67398 -3.7126,-1.65008 -12.431,1.60573 -8.0371,3.00143 -8.7145,3.45471 -7.3748,4.93504 2.0545,2.2702 1.849,2.97256 -0.8699,2.97256 -1.2897,0 -3.2012,-0.94607 -4.2476,-2.10238 -2.4309,-2.68617 -7.1399,-5.13939 -7.8036,-4.06545 -0.413,0.66829 3.8604,12.79807 4.9328,14.00139 0.1635,0.18345 2.4168,-0.60405 5.0075,-1.75 8.0476,-3.55985 10.456,-2.4538 10.456,4.80199 0,3.21343 -0.6097,5.13453 -2.1499,6.7739 -1.6667,1.77423 -1.8352,2.38875 -0.75,2.73522 0.7699,0.24578 2.0749,0.672 2.8999,0.94715 2.634,0.87852 3.8081,0.70188 9.5068,-1.43026 z m -0.9086,-6.66156 c 1.1352,-2.44588 0.8102,-9.24152 -0.5048,-10.55659 -0.6014,-0.60137 -1.0792,-2.01591 -1.0618,-3.14341 0.029,-1.84658 0.2869,-1.75944 2.6052,0.87808 2.2935,2.60944 2.5012,3.47374 1.9084,7.94255 -0.7384,5.56599 -1.1733,6.62937 -2.7113,6.62937 -0.6408,0 -0.7324,-0.67989 -0.2357,-1.75 z m -13.4088,3.00504 c 0.969,-0.96909 2.0527,-3.21599 2.4082,-4.99311 0.8914,-4.457 -1.4393,-5.15434 -7.1326,-2.13406 -4.5253,2.40066 -5.1393,3.75699 -3.8599,8.52608 0.5067,1.8888 0.9622,2.04372 3.7001,1.25851 1.7172,-0.49248 3.9151,-1.68832 4.8842,-2.65742 z"
       id="path3329"
       inkscape:connector-curvature="0" />
  </g>
</svg>
