<?xml version="1.0" encoding="UTF-8" standalone="no"?>
<!-- Created with Inkscape (http://www.inkscape.org/) -->

<svg
   xmlns:dc="http://purl.org/dc/elements/1.1/"
   xmlns:cc="http://creativecommons.org/ns#"
   xmlns:rdf="http://www.w3.org/1999/02/22-rdf-syntax-ns#"
   xmlns:svg="http://www.w3.org/2000/svg"
   xmlns="http://www.w3.org/2000/svg"
   xmlns:sodipodi="http://sodipodi.sourceforge.net/DTD/sodipodi-0.dtd"
   xmlns:inkscape="http://www.inkscape.org/namespaces/inkscape"
   width="687.96234"
   height="897.99066"
   id="svg2"
   version="1.1"
   inkscape:version="0.48.3.1 r9886"
   sodipodi:docname="Incline-flys-2.svg">
  <defs
     id="defs4" />
  <sodipodi:namedview
     id="base"
     pagecolor="#ffffff"
     bordercolor="#666666"
     borderopacity="1.0"
     inkscape:pageopacity="0.0"
     inkscape:pageshadow="2"
     inkscape:zoom="0.49497475"
     inkscape:cx="1023.3952"
     inkscape:cy="425.15121"
     inkscape:document-units="px"
     inkscape:current-layer="layer1"
     showgrid="false"
     fit-margin-top="0"
     fit-margin-left="0"
     fit-margin-right="0"
     fit-margin-bottom="0"
     inkscape:window-width="1855"
     inkscape:window-height="1056"
     inkscape:window-x="65"
     inkscape:window-y="24"
     inkscape:window-maximized="1" />
  <metadata
     id="metadata7">
    <rdf:RDF>
      <cc:Work
         rdf:about="">
        <dc:format>image/svg+xml</dc:format>
        <dc:type
           rdf:resource="http://purl.org/dc/dcmitype/StillImage" />
        <dc:title></dc:title>
      </cc:Work>
    </rdf:RDF>
  </metadata>
  <g
     inkscape:label="Ebene 1"
     inkscape:groupmode="layer"
     id="layer1"
     transform="translate(-237.88011,-119.63132)">
    <path
       style="fill:#000000"
       d="m 709.91218,1015.2179 c -2.7205,-1.3222 -8.0964,-2.9281 -11.9464,-3.5686 -3.85,-0.6405 -8.8,-1.9806 -11,-2.9779 -5.8638,-2.6582 -14.93,-11.29506 -20.4618,-19.49276 -6.6011,-9.7825 -14.0817,-16.3266 -28.139,-24.6161 -13.2376,-7.8062 -14.9005,-9.8024 -15.2097,-18.2579 -0.2037,-5.5704 2.3093,-11.4969 13.2222,-31.1826 7.9332,-14.3109 8.4068,-16.9561 8.2346,-46 -0.082,-13.75 0.2181,-27.7997 0.6658,-31.2214 l 0.8141,-6.22135 -58.4526,-44.27864 c -32.149,-24.35326 -59.0407,-44.62501 -59.7595,-45.04834 -0.8195,-0.48264 -14.2196,5.95052 -35.9314,17.25 -19.0434,9.91083 -35.3115,18.01969 -36.1511,18.01969 -0.8397,0 -5.5446,-3.47246 -10.4553,-7.71658 l -8.9285,-7.71657 0.2761,-13.97071 0.2761,-13.97071 33.9582,-16.18735 c 18.6771,-8.90305 34.0957,-16.59983 34.2638,-17.10397 0.4793,-1.43796 -17.6658,-148.42529 -18.4881,-149.76528 -0.4036,-0.65778 -10.4089,-11.89745 -22.2339,-24.97704 -11.825,-13.07958 -21.8643,-24.42151 -22.3097,-25.20428 -1.4722,-2.58777 -1.9646,-14.88118 -0.8114,-20.25824 0.6237,-2.90817 2.5226,-7.30583 4.2197,-9.77259 3.6042,-5.23854 3.597,-9.09195 -0.039,-20.85668 -4.601,-14.8874 -3.7645,-34.17697 3.0545,-70.43357 2.4291,-12.91498 2.963,-17.94655 2.4936,-23.5 -0.3285,-3.88653 -0.8597,-14.49143 -1.1805,-23.56643 l -0.5833,-16.5 5.578,-20.20639 c 3.0679,-11.11352 5.578,-21.12602 5.578,-22.25 0,-2.41599 -1.2605,-2.63953 -3.0084,-0.53351 -0.6893,0.83055 -3.7445,2.23433 -6.7894,3.11951 -10.6109,3.08465 -20.4544,0.0868 -30.1824,-9.19214 -7.158,-6.82757 -13.0682,-15.66064 -16.393,-24.49985 -9.1074,-24.21297 -6.9121,-50.29263 5.4153,-64.33277 9.2807,-10.57013 26.1106,-10.78015 39.1055,-0.48801 3.7409,2.96292 4.2242,3.08835 7.7865,2.02107 5.3594,-1.60571 8.429,-1.41825 11.1811,0.68282 2.151,1.64218 13.5913,4.84536 14.3518,4.01835 0.1715,-0.18649 1.0261,-3.82392 1.8991,-8.08316 2.5488,-12.43519 7.9348,-20.82813 16.0098,-24.94769 4.5155,-2.30361 14.8493,-3.47675 18.4579,-2.09543 1.7945,0.6869 3.6432,0.22529 8,-1.99753 5.1016,-2.6028 6.4136,-2.8488 13.1662,-2.46874 5.1697,0.29097 8.8647,1.12386 11.8921,2.68059 5.2112,2.67971 12.7881,9.56091 16.6269,15.10025 2.2213,3.20541 3.3544,3.96834 5.867,3.95039 5.9987,-0.0428 7.372,-2.32352 7.8145,-12.97776 0.3155,-7.59646 0.9236,-10.64923 3.035,-15.23546 3.7518,-8.14921 7.3783,-12.50164 13.1975,-15.83942 4.1755,-2.39499 6.2233,-2.908 11.6389,-2.91574 9.601,-0.0137 15.0365,2.22499 22.6152,9.31449 13.687,12.8035 21.0431,28.6943 22.8449,49.35014 2.671,30.61959 -15.3315,54.03407 -36.1029,46.95651 -2.6225,-0.89358 -4.9667,-1.42618 -5.2094,-1.18357 -0.2426,0.24262 0.4912,3.20189 1.6308,6.57616 2.2567,6.68247 9.3103,19.00526 17.9217,31.30938 6.9124,9.8765 14.8833,27.6273 17.3383,38.61159 1.3227,5.91812 2.6413,9.23118 4.4081,11.07528 3.6686,3.82918 4.1951,6.78693 4.27,23.98775 0.059,13.49367 0.4744,17.36398 3.2216,29.99289 3.7686,17.32399 3.6028,23.28745 -1.2778,45.96392 -2.7114,12.5983 -3.1562,16.77525 -3.3362,31.33301 l -0.2077,16.79694 3.8109,2.40571 c 4.4893,2.834 12.2542,12.59983 15.7919,19.86133 2.2283,4.57383 2.5149,6.47831 2.6062,17.3147 l 0.1025,12.17561 5.5,10.79135 c 5.86,11.4976 15.387,25.61113 22.9098,33.9389 2.5246,2.7948 6.1193,7.64692 7.9883,10.78247 1.8689,3.13556 3.7525,5.92011 4.1858,6.1879 0.4333,0.26779 4.0792,0.89565 8.102,1.39525 6.858,0.85172 7.5353,1.1637 10.8607,5.00304 l 3.5465,4.09466 11.3159,1.48676 c 13.9041,1.82683 13.7507,1.79288 29.091,6.43861 6.875,2.08206 16.55,4.99927 21.5,6.4827 12.4928,3.74386 24.5702,9.72412 28.3635,14.04444 1.7251,1.96476 3.1455,4.11913 3.1564,4.7875 0.011,0.66836 5.7484,3.99832 12.75,7.39992 22.3997,10.8825 30.9913,17.54113 50.2301,38.92893 1.925,2.14002 7.775,6.83998 13,10.44434 8.649,5.96631 9.6529,6.99631 11.2063,11.4977 2.1025,6.09276 2.3572,20.16171 0.4475,24.72643 -1.2654,3.02488 -8.8667,10.26443 -14.8176,14.11247 -1.4651,0.94739 -3.4117,3.38368 -4.3256,5.41397 -10.4601,23.23599 -16.8006,31.52758 -34.8425,45.56386 -8.381,6.5203 -14.6681,13.45055 -14.6681,16.16873 0,0.6826 1.7447,3.35238 3.8771,5.93286 2.1324,2.58048 5.7066,8.43452 7.9428,13.00898 5.1739,10.58406 8.7918,14.65802 17.0492,19.19831 9.5258,5.2377 14.6304,9.65344 17.131,14.81884 1.837,3.7947 2.0127,5.0246 1.0941,7.6594 -0.6018,1.7264 -1.0942,4.1968 -1.0942,5.4897 0,1.2929 -1.012,3.3628 -2.2489,4.5997 -1.2369,1.2369 -2.9244,3.5994 -3.75,5.25 -2.0353,4.0691 -7.4779,5.7996 -16.5011,5.2464 -10.7012,-0.6561 -14.9336,-3.3961 -24.4261,-15.8134 -1.9059,-2.4931 -13.2,-8.9319 -15.6671,-8.9319 -0.2237,0 -0.4068,1.4649 -0.4068,3.2554 l 0,3.2554 -68.611,39.4655 c -37.736,21.706 -69.2964,39.9667 -70.1341,40.5792 -1.3123,0.9596 -0.7272,2.5551 4.2278,11.5291 3.163,5.7284 7.2678,12.4932 9.1219,15.0327 5.5156,7.5549 16.416,17.1249 24.1044,21.1626 7.871,4.1337 10.4866,7.0191 12.2293,13.4908 0.9843,3.6555 0.8725,4.86856 -0.7965,8.64166 -1.2288,2.7779 -2.8043,4.6497 -4.2917,5.0987 -1.2925,0.3902 -3.7293,2.0174 -5.4149,3.6159 -3.8682,3.6681 -8.0669,4.873 -16.9822,4.873 -5.4175,0 -8.2112,-0.5594 -12.0066,-2.4041 z m 23.0469,-5.0287 c 4.5187,-1.888 6.0463,-4.8503 4.4672,-8.6626 -1.2453,-3.00646 -7.2426,-8.90456 -9.0543,-8.90456 -0.5633,0 -0.7461,-0.45 -0.4062,-1 1.3878,-2.2455 5.039,-0.7468 9.8143,4.0285 5.7645,5.76456 7.7534,5.47816 5.8593,-0.8435 -1.037,-3.4613 -2.1052,-4.4071 -9.9179,-8.7818 -20.1435,-11.2793 -28.6603,-21.1778 -42.3285,-49.1955 -9.5286,-19.5321 -10.9322,-25.4594 -9.2246,-38.9528 1.255,-9.9168 6.1323,-23.6913 15.3158,-43.2549 5.9376,-12.6488 12.3314,-28.28298 15.3723,-37.58856 0.9145,-2.79868 3.0388,-6.39868 4.7205,-8 5.3546,-5.09838 9.5892,-11.66368 13.2903,-20.60487 4.596,-11.10307 4.6272,-15.20631 0.202,-26.57814 -3.6976,-9.50202 -6.38,-18.23554 -9.4854,-30.88312 -1.9555,-7.96436 -7.16,-19.2751 -14.8783,-32.33451 -3.2277,-5.46127 -4.5405,-6.75946 -8.2875,-8.19561 -9.8759,-3.78522 -24.2055,-1.2934 -34.9523,6.07797 -6.1043,4.18705 -15.8048,15.11351 -18.8097,21.18701 l -1.9488,3.93886 3.0968,7.52336 c 1.9319,4.69324 5.6247,10.7166 9.8168,16.01202 3.696,4.66877 8.8203,11.64802 11.3874,15.50944 8.1748,12.2966 14.2944,30.39137 10.7075,31.66049 -0.6875,0.24326 -1.25,-0.28434 -1.25,-1.17243 0,-2.1433 -2.6588,-3.07996 -4.4718,-1.57532 -2.3512,1.95128 -16.2127,28.01073 -18.3636,34.52337 -2.9997,9.08228 -4.4573,26.31954 -4.5662,54.00004 l -0.098,25 -3.1446,7.2301 c -1.7295,3.9766 -5.605,10.9516 -8.6122,15.5 -7.0611,10.6801 -7.4235,11.4217 -8.1947,16.7699 -0.518,3.5922 -0.1849,5.4078 1.6513,9 2.0191,3.9501 3.5833,5.212 12.8002,10.327 13.9086,7.7188 15.9886,9.4118 22.6815,18.4619 7.2529,9.8074 13.044,15.9845 20.0601,21.39736 5.341,4.1206 5.9437,4.3277 14.3193,4.9199 6.4442,0.4557 9.4925,1.1498 11.5913,2.6393 1.5663,1.1115 3.7478,2.2706 4.8478,2.5756 3.0132,0.8358 12.2089,-0.1727 15.9933,-1.7539 z m -11.7406,-9.037 c -2.061,-1.1166 -3.7485,-2.36766 -3.75,-2.78016 0,-1.4208 3.7803,-0.7463 6.0285,1.0741 3.4748,2.81366 1.9178,3.97956 -2.2785,1.70606 z m -74.5027,-54.09636 c -3.4723,-2.0811 -4.25,-3.09 -4.25,-5.5135 0,-2.6856 8.0728,-18.2293 10.127,-19.4988 0.9476,-0.5857 -1.0304,5.1314 -4.0061,11.5785 -2.7382,5.9326 -2.6468,8.6216 0.43,12.6556 1.403,1.8394 2.4155,3.3401 2.25,3.3349 -0.1655,0 -2.2134,-1.1557 -4.5509,-2.5567 z m 12.7505,-68.1838 c 3e-4,-0.4125 2.2415,-2.68 4.9805,-5.0387 2.7391,-2.3588 6.0929,-6.1877 7.4531,-8.5086 2.9128,-4.9704 9.5659,-27.3819 9.5659,-32.2237 0,-1.84855 0.5212,-3.68311 1.1582,-4.0768 3.1344,-1.93714 -1.5038,21.9463 -6.8606,35.3273 -3.2085,8.0148 -9.6829,15.2705 -13.6262,15.2705 -1.4692,0 -2.6712,-0.3375 -2.6709,-0.75 z m 22.8027,-59.75004 c -1.8232,-5.29102 -3.0421,-14.66107 -2.0379,-15.66531 0.7314,-0.73134 1.3982,0.63562 2.2043,4.51899 1.2347,5.94751 1.1021,14.82775 -0.1664,11.14632 z m 27.7985,-19.59865 c -3.1009,-2.43918 -7.8674,-11.29557 -7.3906,-13.73211 0.2095,-1.07037 1.691,0.5727 4.1296,4.57972 2.7011,4.43844 4.5788,6.43419 6.4811,6.88826 3.9306,0.93825 4.4028,1.38724 3.1043,2.95181 -1.6125,1.94303 -3.1993,1.7705 -6.3244,-0.68768 z M 698.88728,775.122 c 1.0136,-1.65 3.6281,-5.34946 5.81,-8.22102 2.1819,-2.87155 4.7535,-7.76298 5.7148,-10.86983 1.2719,-4.11082 1.933,-5.16624 2.4279,-3.87637 1.636,4.26326 -5.9812,17.93708 -13.3513,23.96722 l -2.4444,2 1.843,-3 z m 67.5785,115.79484 67.5,-38.921 0.2782,-12.4603 0.2782,-12.46043 -12.4644,-4.70199 -12.4644,-4.70198 -22.9802,13.30157 c -18.0284,10.43523 -22.7861,13.60843 -22.0792,14.72543 1.4313,2.2614 1.0801,3.9274 -0.8182,3.882 -1.1435,-0.027 -7.2794,-8.1805 -17.7048,-23.52539 l -15.9547,-23.48347 -2.5453,3.26536 c -1.3998,1.79595 -3.3245,4.04916 -4.277,5.00714 -1.73,1.74003 -7.7682,14.19338 -7.7682,16.02143 0,0.53162 5.6521,8.79353 12.5602,18.35973 11.581,16.0371 13.3589,19.437 10.1308,19.3737 -0.655,-0.013 -6.366,-7.2023 -12.691,-15.9766 -6.325,-8.7744 -11.725,-15.95931 -12,-15.9666 -0.7949,-0.0211 -14.1732,29.9521 -13.8191,30.9609 0.1755,0.5001 2.7941,2.6352 5.8191,4.7446 3.025,2.1094 5.5,4.4291 5.5,5.1549 0,0.7257 -4.7089,4.097 -10.4643,7.4916 -9.8715,5.8224 -10.5413,6.4254 -11.8227,10.6433 -1.6394,5.3961 -1.0306,19.5474 1.0957,25.4713 3.1705,8.8331 5.9518,13.6662 7.5882,13.1861 0.8817,-0.2587 31.9781,-17.9848 69.1031,-39.3913 z m -62,-17.407 c 0,-0.3577 -1.5796,-1.8553 -3.5103,-3.3279 l -3.5104,-2.6775 -1.8448,4.3088 c -4.0931,9.5594 -4.1268,9.4897 2.7579,5.7048 3.3592,-1.8467 6.1076,-3.6504 6.1076,-4.0082 z m 187.0133,-8.6975 c 2.1545,-1.7446 2.1758,-1.924 0.5926,-4.9855 -1.0029,-1.9395 -2.7058,-3.4355 -4.3741,-3.8428 -1.5025,-0.3669 -3.805,-1.4984 -5.1166,-2.5145 -1.3117,-1.0162 -3.7117,-1.8475 -5.3334,-1.8475 -3.3081,0 -3.4475,-2.3031 -0.1689,-2.7913 2.1663,-0.3227 16.7878,6.0125 17.8523,7.735 1.2278,1.9866 2.662,-0.088 2.0348,-2.9437 -0.3471,-1.5806 -0.154,-3.0958 0.4415,-3.4639 3.727,-2.3034 -2.3318,-9.619 -12.0551,-14.5557 -10.123,-5.13967 -15.9504,-11.1567 -21.4926,-22.19189 -4.1139,-8.19123 -11.4088,-17.78855 -13.5211,-17.78855 -0.48,0 -0.8727,0.9 -0.8727,2 0,1.11111 -0.6666,2 -1.5,2 -3.666,0 0.1567,-11.42257 5.7788,-17.26757 1.7717,-1.84188 9.7902,-8.80953 17.8189,-15.48367 8.0287,-6.67414 15.4537,-13.39794 16.5,-14.94178 1.0463,-1.54384 5.2773,-9.54157 9.4023,-17.77273 6.9463,-13.86093 7.9238,-15.28671 13.2405,-19.31347 5.2816,-4.00012 5.9111,-4.90927 7.874,-11.37164 2.1678,-7.13697 2.1559,-12.37766 -0.041,-18.15635 -0.6269,-1.6488 -3.6974,-4.38786 -8.0368,-7.16938 -6.9091,-4.42864 -15.7506,-12.74531 -31.5365,-29.66455 -9.6417,-10.33387 -15.3207,-13.80457 -37,-22.61225 -17.5554,-7.13224 -20.0796,-7.4983 -28.9134,-4.19314 -10.139,3.7935 -17.5086,12.43226 -19.5946,22.96921 -0.5964,3.01253 -1.2953,6.48266 -1.5532,7.71141 -0.4144,1.97428 0.783,2.86179 10.2961,7.63134 5.9208,2.96849 15.3776,6.81997 21.0151,8.55885 5.6375,1.73888 10.25,3.42996 10.25,3.75795 0,2.33175 -24.862,-4.58733 -35.2215,-9.80214 -3.1469,-1.58405 -5.9594,-2.88009 -6.2501,-2.88009 -0.7329,0 -0.6472,13.36652 0.1271,19.81371 l 0.6381,5.31371 8.7189,4.37888 c 10.0802,5.06261 17.2957,6.61117 41.9874,9.01122 12.6059,1.2253 17.5515,2.12051 20.9551,3.79315 6.3833,3.13685 6.5558,4.95541 0.3941,4.1532 -2.667,-0.34723 -6.0528,-0.16768 -7.5238,0.399 -4.9784,1.91776 -16.6056,13.94371 -19.8231,20.50292 -4.2386,8.64051 -8.0589,24.46264 -8.301,34.37902 -0.1903,7.79601 -0.7491,9.6048 -2.228,7.21187 -0.3547,-0.57382 -2.4497,1.56368 -4.6556,4.75 -5.6421,8.14959 -12.1532,14.64611 -20.4962,20.45024 -7.4006,5.14856 -9.3215,8.04546 -9.3215,14.05804 0,4.04281 1.5176,6.4842 5.221,8.3993 3.0191,1.56125 3.3517,1.53113 7.3776,-0.66813 l 4.216,-2.30309 14.3427,5.43105 14.3427,5.43106 0.2937,7.99742 0.2937,7.99747 5.8771,2.8362 c 6.8947,3.3274 13.4906,8.7093 15.5467,12.6853 4.3286,8.3707 25.0424,14.3995 31.5021,9.1688 z m -5.0133,-18.6903 c -1.7591,-1.8725 -1.9672,-2.5 -0.8293,-2.5 1.4856,0 4.8293,2.9971 4.8293,4.3287 0,1.3807 -1.7264,0.5914 -4,-1.8287 z m -75.3333,-34.16671 c -0.3667,-0.36666 -0.6667,-2.45595 -0.6667,-4.64285 0,-3.42251 0.6764,-4.65256 4.8572,-8.83334 5.7839,-5.78389 8.9074,-6.55273 3.8417,-0.94561 -4.961,5.4913 -5.8848,7.58045 -5.1303,11.60248 0.5018,2.6744 0.3177,3.48599 -0.7906,3.48599 -0.7946,0 -1.7446,-0.3 -2.1113,-0.66667 z m 30.9051,-45.21727 c -0.3005,-0.48617 0.9104,-1.47962 2.6909,-2.20766 5.9032,-2.4138 13.5388,-10.75781 19.5424,-21.35554 4.9034,-8.65556 5.7388,-9.67149 6.0107,-7.30912 0.47,4.08269 -4.145,11.70171 -12.6018,20.80462 -8.6212,9.27989 -13.9925,12.73699 -15.6422,10.0677 z m 29.1125,-41.7907 c -1.4657,-5.36847 -1.6969,-7.45121 -0.7631,-6.87407 1.1372,0.70282 2.5967,7.36419 1.7902,8.1707 -0.2908,0.2908 -0.753,-0.29268 -1.0271,-1.29663 z m 24.1369,-14.07536 c -3.7598,-3.93315 -5.8212,-7.25616 -5.8212,-9.38388 0,-0.69594 2.2625,1.27312 5.0278,4.37569 2.7653,3.10258 5.9153,5.92273 7,6.26701 2.7013,0.85735 2.4883,2.49118 -0.3248,2.49118 -1.3504,0 -3.7744,-1.5454 -5.8818,-3.75 z m -10.8212,-18.42126 c 0,-0.64419 0.7636,-2.01502 1.6969,-3.04629 2.2409,-2.47612 2.0045,-7.48728 -0.5933,-12.57937 -2.5359,-4.97077 -2.6371,-5.89045 -0.4487,-4.07552 4.1379,3.43164 5.7756,14.38512 2.7884,18.64993 -1.6817,2.40099 -3.4433,2.9388 -3.4433,1.05125 z m -106.7852,138.98575 c 15.1422,-8.72313 15.846,-9.26426 13.9821,-10.75 -3.0427,-2.42528 -4.1969,-5.4772 -4.1969,-11.09762 0,-7.71075 2.063,-10.86547 12.8037,-19.57944 18.6142,-15.10185 21.733,-19.89464 23.2279,-35.69526 0.8238,-8.70714 1.7875,-12.10457 8.5641,-30.19217 1.3415,-3.5808 4.0683,-7.19976 9.6068,-12.75 l 7.7335,-7.75 -4.5074,0 c -8.4875,0 -23.9269,-2.06478 -30.9286,-4.13623 -3.85,-1.13902 -10.5092,-3.79042 -14.7982,-5.892 l -7.7982,-3.82105 -32.0376,19.17464 -32.0376,19.17464 0.6184,5.5 c 0.3402,3.025 3.1215,12.9213 6.1807,21.99179 5.338,15.82704 5.5351,16.78066 4.8906,23.65858 -0.4446,4.74437 -1.6629,9.26303 -3.6045,13.36851 l -2.933,6.2017 7.2597,10.65248 c 18.6179,27.31878 21.2647,31.12698 21.6343,31.12698 0.2174,0 7.5705,-4.1335 16.3402,-9.18555 z m -128.7706,-12.05316 c 1.2194,-3.48968 4.0806,-9.90125 6.3583,-14.24793 2.2777,-4.34668 4.0414,-7.96426 3.9194,-8.03908 -3.2592,-1.99844 -101.4341,-73.15033 -101.9059,-73.85585 -0.3762,-0.56264 -0.4516,-1.39895 -0.1676,-1.85847 0.2839,-0.45951 13.096,-7.12845 28.4713,-14.81986 20.6812,-10.34573 27.7501,-14.32584 27.1676,-15.29674 -0.433,-0.7218 -5.6749,-6.73192 -11.6487,-13.35582 l -10.8615,-12.04347 -24.451,11.98209 c -13.4481,6.59015 -24.7605,11.67446 -25.1386,11.29845 -0.3781,-0.376 -3.1625,-21.06079 -6.1875,-45.9662 l -5.5,-45.28256 -18,-20.0733 c -9.9,-11.04031 -18.1286,-19.51474 -18.2859,-18.83207 -0.1573,0.68268 3.5552,32.67704 8.25,71.09859 4.6948,38.42154 8.5359,70.81998 8.5359,71.99652 0,1.82657 -5.0415,4.54138 -34.5,18.5778 l -34.5,16.43862 0,11.5814 0,11.58139 6.25,5.43219 c 3.4375,2.9877 6.9566,5.98053 7.8202,6.65074 1.3012,1.00987 4.5552,-0.33146 19,-7.83182 9.5864,-4.97772 25.5979,-13.29363 35.581,-18.4798 l 18.1512,-9.42941 59.3377,44.93438 c 32.6358,24.71391 59.5063,44.7658 59.7124,44.55974 0.2061,-0.20605 1.3723,-3.22984 2.5917,-6.71953 z m 17.9013,-32.51692 4.8456,-6.61273 -4.7801,-9.25332 c -2.629,-5.08932 -8.7464,-14.56895 -13.5943,-21.06584 -4.8478,-6.49688 -8.8148,-12.15002 -8.8155,-12.56252 -6e-4,-0.4125 -1.0655,-0.75 -2.3663,-0.75 -1.3008,0 -3.6251,-0.99108 -5.1651,-2.20241 -2.9111,-2.28986 -9.5442,-15.43164 -15.6003,-30.90812 l -3.3695,-8.61053 -27.2524,13.60328 c -14.9888,7.48181 -27.1388,13.93044 -27,14.3303 0.2893,0.83316 96.9916,70.76678 97.7524,70.69306 0.275,-0.0266 2.6805,-3.02417 5.3455,-6.66117 z m -27.2645,-58.09302 c -1.8602,-3.47598 -1.2104,-6.79362 2.8783,-14.69491 10.4187,-20.13367 23.6773,-27.87181 47.8573,-27.93116 l 10.3165,-0.0253 -0.6936,-13.10016 c -0.7628,-14.40984 -0.078,-18.201 4.4316,-24.53821 3.3541,-4.71322 7.2768,-7.33716 18.4811,-12.36226 l 9.1478,-4.10276 0.673,-6.4483 c 0.7703,-7.38069 2.8552,-13.77483 5.8741,-18.01438 4.1042,-5.7639 5.5675,-2.40196 1.5386,3.53501 -1.3279,1.95676 -2.7158,5.34197 -3.0843,7.52268 -0.7357,4.35465 0.1423,10.00838 1.5542,10.00838 0.4931,0 7.4262,-2.925 15.4068,-6.5 11.6619,-5.22407 15.5007,-6.5 19.5561,-6.5 6.5336,0 10.7393,1.82118 14.7471,6.38584 2.613,2.97598 3.2344,4.54167 3.2344,8.14896 0,5.18118 1.2208,5.76069 3.0142,1.43088 1.6337,-3.94412 9.2774,-10.67924 14.9858,-13.20452 2.475,-1.09489 7.5545,-2.22573 11.2877,-2.51299 4.1445,-0.31891 6.6497,-0.93599 6.4335,-1.5847 -0.1948,-0.58432 -3.2492,-2.55013 -6.7877,-4.36847 -15.1527,-7.78673 -30.8591,-12.43878 -64.9267,-19.23052 l -18.4933,-3.68682 -2.5813,-3.8009 c -3.9011,-5.74429 -4.6221,-5.85064 -13.2232,-1.95036 -4.2378,1.92172 -8.156,3.21537 -8.707,2.8748 -1.8345,-1.13374 -1.0356,-2.59352 1.998,-3.65104 1.65,-0.5752 3,-1.38427 3,-1.79795 0,-1.04693 -5.3206,-8.26744 -7.2817,-9.8819 -2.7172,-2.23688 -23.3907,-2.81067 -29.2564,-0.81202 -5.8353,1.98829 -5.4619,1.98209 -5.4619,0.0907 0,-0.85306 1.5489,-2.19817 3.4419,-2.98912 4.1085,-1.71664 21.7897,-3.83851 24.5872,-2.95062 3.1884,1.01196 2.4529,-2.92588 -1.1058,-5.92034 -1.6922,-1.42389 -3.3797,-2.60865 -3.75,-2.6328 -0.3703,-0.0242 -4.0483,-0.4409 -8.1733,-0.9261 -18.8413,-2.21619 -38.7255,4.45525 -62,20.80192 -8.595,6.03664 -27.8356,25.61766 -30.135,30.66809 -2.4612,5.40608 -2.3548,6.41754 1.2466,11.85473 2.2117,3.33908 2.9645,5.46701 2.603,7.35806 -0.5684,2.97321 0.041,5.28721 1.3924,5.28721 0.4912,0 0.893,-0.8526 0.893,-1.89466 0,-4.15252 4.2339,-15.22678 7.935,-20.75527 2.1541,-3.21754 8.5624,-10.58463 14.2407,-16.37132 10.8106,-11.01683 19.8947,-16.98495 28.2028,-18.52881 5.6975,-1.05874 4.3066,1.28693 -2.0363,3.43421 -12.8813,4.36077 -22.1762,12.61265 -32.0012,28.41017 -15.0688,24.2292 -16.0604,28.71119 -9.591,43.34887 3.5943,8.13235 3.7629,8.33685 4.0601,4.92504 0.215,-2.4679 -0.5431,-5.07746 -2.4719,-8.50868 -4.2457,-7.55293 -1.5078,-8.45675 3.1701,-1.04649 4.1634,6.59525 4.8826,11.54664 3.0771,21.18235 -2.0679,11.03535 -2.0012,14.24752 0.4609,22.21889 2.7837,9.01253 17.91,44.91652 19.2877,45.78133 1.66,1.04206 1.9598,0.22174 0.747,-2.04424 z m 31.419,-88.22234 c -4.7681,-1.56031 -7.9504,-1.87938 -15.5,-1.55416 -5.225,0.22509 -10.5794,0.57032 -11.8988,0.76718 -3.1365,0.46802 -3.8356,-1.67867 -1.0347,-3.17765 3.3307,-1.78256 16.5452,-2.34451 24.8176,-1.05538 7.5647,1.17884 17.1159,4.64652 17.1159,6.2141 0,1.49965 -7.2195,0.86107 -13.5,-1.19409 z m -18.0557,-18.10464 c -2.7895,-8.78907 45.8087,-29.82441 68.9038,-29.82441 8.4798,0 5.6081,1.67343 -4.827,2.81283 -20.4025,2.22774 -45.3738,12.44059 -56.9918,23.30868 -6.0333,5.64387 -6.407,5.83916 -7.085,3.7029 z m -1.4443,-14.78961 c 0,-4.83111 11.6037,-13.8572 29,-22.55801 9.8254,-4.91419 21.9708,-9.83933 22.6324,-9.17776 0.2077,0.20774 -4.9121,3.22107 -11.3773,6.6963 -15.5835,8.37646 -26.5136,15.52214 -33.3953,21.83264 -3.1021,2.84461 -5.9146,5.17203 -6.25,5.17203 -0.3354,0 -0.6098,-0.88434 -0.6098,-1.9652 z m 105.1795,98.15253 31.3205,-18.81266 -0.036,-29.10332 c -0.04,-32.46215 -0.1474,-33.04888 -6.6416,-36.36198 -7.0725,-3.60812 -9.792,-2.89353 -38.6453,10.15469 -14.6723,6.63524 -28.2582,13.09625 -30.1907,14.3578 -1.9523,1.27445 -4.7925,4.6434 -6.3915,7.58131 l -2.8779,5.28757 0.6946,14.91544 0.6945,14.91543 3.434,4.4988 c 5.7452,7.52662 12.679,20.53154 15.7974,29.62959 0.3299,0.9625 0.8072,1.75 1.0606,1.75 0.2535,0 14.5551,-8.4657 31.7814,-18.81267 z M 718.48778,676.372 c 0.038,-19.3477 2.6348,-22.30481 29.9031,-34.0488 9.9594,-4.28935 18.5505,-7.52529 19.0914,-7.19099 2.667,1.64826 -0.3168,3.58361 -15.2665,9.90209 -27.8866,11.78629 -29.8207,13.79887 -30.5625,31.8013 -0.3401,8.25625 -0.7661,10.7864 -1.8159,10.7864 -1.0821,0 -1.3669,-2.37426 -1.3496,-11.25 z m -105.4179,-1 c -0.541,-7.32936 -1.728,-12.2986 -5.7168,-23.93238 -2.7686,-8.0753 -5.9009,-16.38295 -6.9606,-18.46144 -1.0597,-2.07848 -1.9267,-4.81284 -1.9267,-6.07634 0,-1.2635 -3.178,-8.58258 -7.0623,-16.26461 -8.4701,-16.75143 -13.826,-22.71289 -27.9838,-31.14727 -5.1996,-3.09762 -13.418,-8.13376 -18.2631,-11.19141 -5.7469,-3.62674 -10.7283,-5.95773 -14.3293,-6.70532 -3.0361,-0.63027 -5.6874,-0.97867 -5.8918,-0.77421 -0.5117,0.51165 16.4021,19.66711 36.6516,41.50924 15.6242,16.85308 18.3364,20.29374 15.9971,20.29374 -0.9932,0 -25.06,-25.85343 -45.1483,-48.5 -11.3279,-12.77044 -14.0677,-15.31035 -18.4332,-17.08795 -12.8705,-5.2408 -20.0681,-9.9204 -29.8403,-19.40109 -10.4287,-10.11756 -20.7603,-21.93679 -24.9224,-28.51096 -1.3928,-2.2 -4.207,-10.3 -6.2538,-18 -2.0468,-7.7 -3.9359,-14.675 -4.198,-15.5 -0.8065,-2.53827 -3.429,3.63285 -4.0337,9.4917 -0.3008,2.91504 -0.2441,7.31977 0.1261,9.7883 0.637,4.24804 5.141,9.44465 84.1612,97.10411 45.9185,50.93874 83.7633,92.61589 84.0996,92.61589 0.3363,0 0.3041,-4.1625 -0.072,-9.25 z m -47.2336,-2.25 c 12.9044,-6.27479 20.4055,-10.45883 20.1359,-11.23168 -0.4909,-1.40773 -51.6845,-58.42351 -52.0918,-58.01623 -0.1916,0.19162 8.9926,76.98183 9.518,79.58124 0.1041,0.51481 0.5566,0.30642 22.4379,-10.33333 z m 33.016,-76.22693 c 2.5165,-3.42481 7.733,-9.55103 11.5923,-13.61383 l 7.0168,-7.3869 -6.0891,-1.29219 c -4.846,-1.02839 -7.422,-1.04662 -12.6176,-0.0893 -10.4501,1.9255 -9.8225,-0.78596 0.6904,-2.98285 5.0573,-1.05683 12.1171,-0.83559 19.5207,0.61176 2.4613,0.48117 3.9876,-0.1592 8.5,-3.56629 3.025,-2.28403 5.6184,-4.26384 5.7632,-4.39959 0.1447,-0.13575 -0.4178,-1.87646 -1.25,-3.86824 -1.7257,-4.13011 -1.9949,-8.68564 -0.5132,-8.68564 0.55,0 1,1.30015 1,2.88922 0,1.58906 0.8511,3.94026 1.8913,5.22486 l 1.8913,2.33565 10.3587,-4.89488 c 5.6973,-2.69219 11.1362,-5.83088 12.0865,-6.97487 0.9565,-1.15154 1.7377,-1.52202 1.75,-0.82998 0.012,0.6875 0.9704,1.25 2.1292,1.25 1.4621,0 1.9308,-0.45915 1.5314,-1.5 -0.482,-1.256 0.7206,-1.5 7.393,-1.5 6.9339,0 7.9686,-0.22809 7.9686,-1.7566 0,-4.04173 -2.1586,-8.73459 -5.225,-11.35909 -2.9709,-2.54278 -3.0743,-2.8068 -1.1139,-2.84367 4.2637,-0.0802 10.1861,11.16154 7.8616,14.92266 -0.3785,0.61244 0.4065,1.0367 1.9183,1.0367 2.2463,0 2.559,-0.41776 2.559,-3.41821 0,-1.88002 0.2732,-4.13002 0.607,-5 1.1817,-3.07938 2.2147,-1.5199 2.0549,3.10218 -0.1618,4.6815 -0.1598,4.68442 3.771,5.52237 2.1631,0.46112 4.2538,0.71584 4.6459,0.56603 0.3922,-0.1498 -3.2289,-6.65897 -8.0468,-14.4648 -9.7924,-15.86519 -12.032,-22.30215 -12.032,-34.58158 0,-9.54572 -2.0523,-16.21809 -7.3706,-23.96273 -4.0626,-5.91605 -4.4986,-6.2457 -7.8649,-5.9465 -3.8757,0.34448 -5.9779,-1.26617 -2.7532,-2.10945 3.3386,-0.87308 2.2867,-2.04996 -5.325,-5.95731 -4.9665,-2.54947 -8.6278,-3.75 -11.4367,-3.75 -2.2723,0 -4.4116,-0.45318 -4.7539,-1.00706 -1.1273,-1.824 2.5172,-2.26796 8.3075,-1.01197 8.7659,1.90146 9.653,1.82878 10.0282,-0.82157 0.3689,-2.60492 -4.8245,-11.09742 -9.458,-15.46618 -1.5803,-1.49008 -5.5216,-4.50564 -8.7583,-6.70123 -5.599,-3.79794 -6.2552,-3.99115 -13.5,-3.97463 -9.7924,0.0223 -20.1714,2.23955 -25.7286,5.49633 -2.4126,1.41384 -4.3865,2.86015 -4.3865,3.21401 0,0.35387 0.9785,1.6849 2.1743,2.95785 2.7885,2.96816 0.3738,3.178 -2.7542,0.23936 -3.0663,-2.8806 -16.4853,-6.23926 -24.9201,-6.23728 -8.8359,0.002 -28.9523,4.50394 -37.2859,8.34426 -4.2862,1.97516 -8.9554,5.45313 -14.6768,10.9324 -6.3298,6.06191 -9.0656,8.03571 -11.1383,8.03571 l -2.7476,0 2.2571,-2.40261 2.2572,-2.40262 -4.2538,-9.66137 -4.2539,-9.66138 2.1469,-8.68601 c 2.1544,-8.71616 3.1946,-15.35487 5.2335,-33.40247 0.9318,-8.24694 0.8377,-11.06814 -0.6218,-18.65365 l -1.7195,-8.93719 2.6514,-4.52442 c 3.8434,-6.55814 3.497,-9.51449 -1.8485,-15.77686 -3.365,-3.94224 -4.5,-6.10665 -4.5,-8.58165 0,-4.65043 2.4024,-4.24794 3.8693,0.64825 0.6522,2.17691 1.5903,4.20798 2.0846,4.5135 2.7643,1.70842 2.4516,-32.30989 -0.4501,-48.97152 -0.8621,-4.95 -2.6781,-13.20261 -4.0356,-18.33913 -1.3575,-5.13652 -2.484,-10.76152 -2.5033,-12.5 -0.019,-1.73848 -0.6585,-6.06913 -1.4205,-9.62367 -1.3061,-6.09368 -1.2539,-6.86474 0.9145,-13.5 1.2649,-3.87046 3.4316,-9.7372 4.815,-13.0372 1.3834,-3.3 4.1926,-10.92542 6.2429,-16.94538 3.6614,-10.75089 3.6971,-11.00198 2.012,-14.13097 -3.2229,-5.98463 -11.8059,-10.42365 -20.1545,-10.42365 -5.4747,0 -5.7139,1.59788 -0.3743,2.5 2.2,0.37169 4,1.08624 4,1.5879 0,1.19498 0.1628,1.21358 -8.7765,-1.00317 -12.0757,-2.99452 -13.2235,-3.18442 -13.2235,-2.18781 0,0.51426 1.8,2.36065 4,4.10308 4.1017,3.24859 5.1275,6.47252 2.8,8.8 -2.1424,2.14246 -3.0367,1.27537 -2.3669,-2.29502 0.6069,-3.23497 0.4077,-3.61326 -2.6771,-5.08433 -1.8331,-0.87412 -4.4366,-3.23886 -5.7855,-5.25498 -3.7121,-5.54811 -5.2297,-6.15819 -10.4149,-4.1868 l -2.5746,0.97887 3.4707,4.54695 c 8.962,11.74085 13.7314,27.21464 13.8687,44.99531 0.099,12.86274 -0.7203,17.02618 -5.3015,26.93348 -1.5646,3.38376 -3.0961,8.83546 -3.463,12.32793 -0.3618,3.44377 -2.1442,11.31877 -3.9609,17.5 -1.8167,6.18122 -4.1293,16.40158 -5.139,22.7119 -1.8299,11.43578 -1.8287,11.51594 0.3733,24.5 2.7357,16.13113 2.7293,16.83375 -0.2843,31.2679 -3.8751,18.56061 -6.4193,32.97967 -7.6312,43.24892 -1.3811,11.70349 0.1423,27.84704 3.6922,39.12708 1.4374,4.56747 2.1713,8.77141 1.8332,10.5 -0.3102,1.58553 0.347,8.70091 1.4603,15.81196 1.7193,10.98086 2.6955,14.29605 6.4784,22 5.4354,11.06953 14.1331,22.02853 27.9618,35.23161 12.4499,11.88659 19.3301,15.80782 35.6603,20.32373 6.325,1.7491 13.75,3.8915 16.5,4.76089 6.4345,2.03421 19.9611,10.40422 34.5,21.34794 10.2105,7.68564 11.891,9.39126 14.9872,15.21099 1.9179,3.60509 3.5629,6.47392 3.6555,6.37519 0.093,-0.0987 2.2273,-2.98164 4.7438,-6.40645 z m -59.799,-46.17641 c -0.9747,-1.07707 -2.1812,-4.99411 -2.7792,-9.02307 -0.6203,-4.17919 -1.8617,-8.14303 -3.0056,-9.59736 -1.9489,-2.47754 -2.6804,-2.54348 -9.0527,-0.8159 -1.0759,0.29171 -1.75,-0.08 -1.75,-0.96513 0,-0.90467 1.4766,-1.6757 3.9739,-2.07504 7.1135,-1.13749 15.0582,-10.46673 12.0254,-14.12106 -0.7374,-0.88846 -2.9255,-1.49973 -5.3717,-1.50065 -4.3724,-0.002 -10.7434,-2.65507 -11.4014,-4.74845 -0.6195,-1.97117 1.922,-1.45945 4.4235,0.89065 l 2.2787,2.14065 11.0919,-1.78456 c 11.6509,-1.87451 13.9587,-1.47224 12.5411,2.18604 -0.6614,1.70677 -0.7809,1.71304 -1.9668,0.10315 -0.9678,-1.31393 -2.138,-1.572 -5.0127,-1.1055 -3.6874,0.59837 -3.7393,0.66902 -3.0958,4.21407 0.9225,5.08278 3.2804,7.05363 9.2901,7.76539 2.9761,0.35248 4.9173,1.02705 4.5705,1.58825 -0.7558,1.22286 -9.8992,0.10056 -13.4294,-1.64839 -2.4084,-1.19318 -2.7883,-1.03461 -5.6296,2.34969 l -3.0469,3.62921 2.3796,2.76644 c 1.929,2.24257 2.3796,3.89208 2.3796,8.71067 0,4.61091 0.4486,6.39285 2,7.94424 1.1,1.1 2.45,2 3,2 0.55,0 1,0.675 1,1.5 0,2.11551 -3.3595,1.86516 -5.4125,-0.40334 z m 69.5442,-1.59666 c -2.1307,-1.925 -4.4086,-3.5 -5.0619,-3.5 -0.6533,0 -0.9097,-0.45 -0.5698,-1 1.1444,-1.85167 3.9875,-1.0201 6.838,2 3.1783,3.36735 7.4372,3.91514 11.662,1.5 1.375,-0.78602 3.85,-1.39901 5.5,-1.3622 l 3,0.0669 -3.3153,0.7847 c -1.8234,0.43159 -4.3274,1.73553 -5.5645,2.89764 -3.459,3.24965 -7.9025,2.75613 -12.4885,-1.38706 z m 50.1054,-2.75 c -0.5543,-0.6875 -2.022,-3.62902 -3.2614,-6.53671 -1.2395,-2.90768 -3.3847,-6.17649 -4.7673,-7.264 -2.8467,-2.23925 -2.4161,-3.66602 0.6166,-2.04296 2.5513,1.36541 6.175,7.19778 6.175,9.93865 0,1.1599 1.125,2.84604 2.5,3.74698 1.375,0.90093 2.5,2.03631 2.5,2.52305 0,1.32102 -2.6075,1.06809 -3.7629,-0.36501 z m -99.7959,-1.32041 c -1.8236,-1.47531 -1.6989,-1.53654 2.0588,-1.01101 2.2,0.30768 6.1641,0.56436 8.809,0.57041 2.949,0.007 4.57,0.3978 4.191,1.01101 -1.0279,1.66315 -12.8516,1.21528 -15.0588,-0.57041 z m 23.9588,-1.82959 c -4.3417,-4.34172 -4.8883,-8.40005 -0.5747,-4.2674 3.6066,3.45533 8.5048,4.8663 14.0523,4.04788 3.4767,-0.51293 4.2829,-0.3613 3.9175,0.73685 -0.5132,1.5424 -4.3434,2.58606 -10.1451,2.76436 -3.1298,0.0962 -4.4859,-0.51765 -7.25,-3.28169 z m 43.6,-1.79528 c 0,-1.90741 5.1956,-6.80472 7.2192,-6.80472 3.8179,0 8.7019,-2.83746 9.3536,-5.4341 0.8156,-3.24927 2.4272,-3.34398 2.4272,-0.14263 0,1.33281 -1.165,3.80781 -2.5889,5.5 -2.1666,2.57487 -3.3046,3.07673 -6.9769,3.07673 -3.5771,0 -4.6908,0.46202 -6.0261,2.5 -1.7378,2.65216 -3.4081,3.2916 -3.4081,1.30472 z M 502.80408,535.372 c -0.4289,-0.6875 -1.0758,-7.35414 -1.4376,-14.81476 -0.7415,-15.29305 -1.5952,-17.80596 -7.8745,-23.1808 -2.2144,-1.89546 -4.0262,-3.74063 -4.0262,-4.10037 0,-1.88163 3.1011,-0.12011 7.3084,4.15135 4.0973,4.15987 4.8639,5.60402 5.7066,10.75 0.5354,3.26952 0.9958,9.09458 1.0231,12.94458 0.027,3.85 0.6982,8.8 1.4908,11 1.7618,4.89042 1.7592,4.5 0.03,4.5 -0.7926,0 -1.7919,-0.5625 -2.2208,-1.25 z m 67.6617,-1.45046 c 9.5205,-3.44364 10.4874,-5.65699 9.4843,-21.71155 -0.5064,-8.10405 -0.3656,-11.94125 0.4973,-13.55361 1.7743,-3.31518 3.2527,-1.11538 1.8133,2.69801 -0.9665,2.56056 -0.8691,4.51461 0.5211,10.45826 2.092,8.94402 2.1382,13.03046 0.1897,16.79831 -2.1282,4.11548 -5.3369,6.02307 -9.9782,5.93209 -2.2151,-0.0434 -3.3525,-0.3231 -2.5275,-0.62151 z m 28.2558,-5.8274 c 3.6536,-2.48269 4.034,-3.25884 5.2176,-10.64575 0.4001,-2.49745 1.7104,-4.65856 4.0924,-6.75 2.9162,-2.56043 4.3449,-3.07639 8.5187,-3.07639 6.3947,0 10.3971,-2.07421 11.8071,-6.11884 1.7252,-4.949 1.2837,-9.85396 -1.4745,-16.38116 -3.8187,-9.0367 -3.8418,-9.27696 -0.5297,-5.5 4.6065,5.25294 6.2627,10.43415 5.9134,18.49965 l -0.3008,6.94525 -4,2.2611 c -2.4083,1.36135 -5.707,2.26765 -8.2898,2.27755 -2.3594,0.009 -5.9934,0.88553 -8.0755,1.94775 -3.3486,1.70832 -3.9286,2.56983 -5.0234,7.46188 -1.4154,6.32509 -5.6223,11.60682 -9.2446,11.60682 -2.0749,0 -1.9223,-0.27768 1.3891,-2.52786 z m 70.2123,-0.52373 c -0.4156,-0.67255 -3.0502,-0.82087 -7.309,-0.41149 -6.34,0.60943 -12.1589,-0.47314 -12.1592,-2.26217 0,-0.42611 4.2923,-0.7449 9.5386,-0.70842 8.4226,0.0586 9.7941,0.32182 11.7223,2.25 1.8277,1.82766 1.9125,2.18367 0.5205,2.18367 -0.9148,0 -1.9557,-0.47322 -2.3132,-1.05159 z m -24.4211,-2.39183 c -0.6589,-0.79388 -1.8461,-4.22197 -2.6384,-7.61798 -0.7922,-3.39601 -2.2595,-7.35897 -3.2605,-8.80658 -3.6627,-5.29647 -3.8021,-5.78991 -1.1389,-4.03224 3.9088,2.57977 5.9835,6.09121 6.8546,11.60179 0.4486,2.83817 1.5732,6.31638 2.499,7.72937 1.355,2.06802 1.4102,2.56906 0.2827,2.56906 -0.7703,0 -1.9397,-0.64954 -2.5985,-1.44342 z m 22.808,-4.05658 c -0.3548,-0.55 -0.6081,-3.25 -0.563,-6 0.053,-3.24898 -0.5489,-5.96306 -1.7199,-7.75 -1.5809,-2.41242 -1.6082,-2.75 -0.2223,-2.75 0.8689,0 2.0661,0.90847 2.6603,2.01883 1.1266,2.10498 0.9752,16.23346 -0.1551,14.48117 z m -109.152,-5.51898 c -3.3814,-2.65986 -3.5763,-4.78324 -0.2382,-2.59603 2.8665,1.87817 6.9422,2.0663 11.3648,0.52459 1.7203,-0.59973 3.7,-0.89727 4.3992,-0.6612 1.8323,0.61868 -3.9769,3.3903 -8.7758,4.18697 -3.2718,0.54316 -4.5647,0.2646 -6.75,-1.45433 z m -9.453,-12.01133 c -1.2375,-0.49788 -2.25,-1.59474 -2.25,-2.43747 0,-1.72922 0.8534,-1.911 2.897,-0.61705 0.9007,0.5703 3.6621,0.032 7.7728,-1.51531 3.5068,-1.31992 7.8281,-2.35466 9.6031,-2.29941 l 3.2271,0.10045 -3.8656,0.90795 c -2.1261,0.49937 -5.1981,2.02916 -6.8267,3.39955 -1.6286,1.37038 -3.5648,2.4916 -4.3026,2.4916 -0.7378,0 -1.9408,0.19686 -2.6733,0.43747 -0.7325,0.24061 -2.3443,0.0301 -3.5818,-0.46778 z m 108.5388,-2.69062 c -2.3752,-1.48516 -3.436,-1.54553 -8.5602,-0.48716 -8.0324,1.65908 -8.9675,1.56009 -11.774,-1.24646 -3.3212,-3.32117 -3.1175,-5.09525 0.2954,-2.57295 2.3139,1.71003 3.3041,1.87339 6.2434,1.02994 5.824,-1.67121 11.7844,-1.2266 14.952,1.11533 1.6338,1.2079 3.3907,1.79255 4.0893,1.36081 0.7905,-0.48855 1.0607,-0.26436 0.7622,0.63222 -0.6769,2.03258 -2.9257,2.09556 -6.0081,0.16827 z m -140.7888,-7.94623 c -6.6699,-3.36697 -18.0646,-16.33284 -14.3537,-16.33284 0.3555,0 2.7707,1.98714 5.3672,4.41587 7.6026,7.11128 13.4834,9.58818 22.7033,9.56217 12.1413,-0.0343 19.9884,-4.7633 28.36,-17.09115 5.4574,-8.03632 11.9927,-11.53317 28.8858,-15.456 6.7927,-1.57737 7.9971,-2.50533 8.0221,-6.18089 0.01,-1.2375 0.5049,-2.25 1.1032,-2.25 1.3831,0 0.1982,7.9999 -1.4359,9.69473 -0.6336,0.65711 -4.5163,1.89164 -8.6283,2.7434 -9.9803,2.06733 -17.5478,5.9253 -22.47,11.45533 -8.4123,9.45107 -15.6105,15.95562 -20.0187,18.08963 -6.437,3.11607 -22.4782,3.9024 -27.535,1.34975 z m 65,-0.93284 c 0,-3.51029 4.7604,-8.05284 14,-13.35944 8.3488,-4.79493 13,-8.68038 13,-10.85962 0,-0.79468 -0.9367,-2.96049 -2.0815,-4.81291 -2.6872,-4.34786 -1.1235,-4.38997 1.8315,-0.0493 2.5912,3.80615 2.8042,6.43623 0.888,10.96341 -1.9591,4.62885 -4.3621,6.27628 -11.0408,7.56938 -8.3486,1.61644 -11.6553,3.82272 -13.3502,8.90767 -1.5836,4.75078 -3.247,5.59135 -3.247,1.64081 z m 77.6461,-4.5875 c -0.4248,-2.23754 -2.1732,-4.68502 -5.3875,-7.54193 -3.1978,-2.84219 -4.196,-4.23618 -3.0434,-4.25 4.4034,-0.0528 12.6218,11.54246 10.023,14.14128 -0.6176,0.61753 -1.1889,-0.2255 -1.5921,-2.34935 z m -14.6427,-15.30842 c -0.9803,-1.18121 -2.6562,-1.36443 -7.9663,-0.87091 -7.3374,0.68194 -12.2508,-0.44025 -16.4746,-3.76268 -1.4094,-1.10861 -2.5625,-2.68089 -2.5625,-3.49396 0,-1.06387 1.0276,-0.69309 3.6656,1.32258 3.301,2.52234 4.6568,2.85062 13.6331,3.30089 8.9362,0.44827 10.1216,0.7328 11.4564,2.75 1.6511,2.4952 0.2087,3.11616 -1.7517,0.75408 z m -150.5932,-17.3623 c -1.1495,-2.55298 -4.7495,-8.69178 -8,-13.64178 -4.6339,-7.0565 -5.9777,-8.52527 -6.223,-6.80158 -0.172,1.20912 0.1667,3.09431 0.7527,4.18931 1.6182,3.02354 -0.8465,3.94575 -3.1018,1.1606 -2.5344,-3.12978 -2.3907,-4.62569 2.1775,-22.67905 2.3538,-9.30244 4.2714,-19.59355 4.634,-24.86928 0.7326,-10.66203 1.6945,-13.35537 3.2801,-9.1849 1.5143,3.98284 1.4532,4.51371 -2.4335,21.147 -1.9229,8.22916 -3.4958,16.32916 -3.4952,18 8e-4,2.77952 6.7845,17.28047 13.3503,28.5379 1.4436,2.475 2.6301,5.26094 2.6367,6.19098 0.024,3.38124 -1.5349,2.48833 -3.5778,-2.0492 z m 111.3913,-2.18646 c -3.8395,-3.83952 -3.5469,-5.76034 0.3748,-2.46043 2.9762,2.50426 3.5956,2.63057 9.8301,2.00447 4.9498,-0.49709 7.5936,-0.27552 10.3237,0.86519 2.0185,0.84337 3.6687,1.66886 3.6671,1.83442 0,0.16557 -4.8158,0.35881 -10.6985,0.42943 -10.4586,0.12555 -10.7578,0.0663 -13.4972,-2.67308 z m -153.0872,-26.57439 c -1.7646,-1.76458 -0.4762,-3.2799 3.0357,-3.57056 4.3093,-0.35666 4.0735,1.27081 2.7337,-18.86749 -0.7503,-11.27614 -0.7015,-11.70732 2.0037,-17.73549 2.6714,-5.95255 5.0132,-9.04016 6.0615,-7.99187 0.2753,0.27528 -0.8453,3.34621 -2.4902,6.82429 -4.1589,8.79406 -4.4782,12.67904 -2.092,25.45815 2.0054,10.74011 2.01,11.05663 0.1941,13.5 -1.8357,2.47012 -7.8438,3.9857 -9.4465,2.38297 z m 34.3077,-68.63093 c 0.026,-2.68251 3.3101,-10.21917 4.8739,-11.18565 1.7715,-1.09483 1.3019,2.69301 -1.0292,8.3023 -2.2518,5.41836 -3.8814,6.64049 -3.8447,2.88335 z m -12.022,-8.09906 c 0,-0.82263 2.4999,-6.6152 5.5553,-12.87237 4.646,-9.51441 5.7609,-12.87907 6.8108,-20.55504 0.6905,-5.04811 1.5656,-9.48854 1.9447,-9.86762 0.3791,-0.37908 0.6892,2.75538 0.6892,6.96547 0,8.42218 -3.6216,21.4829 -8.7822,31.67111 -2.6489,5.2296 -6.2178,7.90346 -6.2178,4.65845 z m 20,-151.74635 c -3.575,-1.0684 -7.5125,-1.70043 -8.75,-1.40452 -2.4871,0.59473 -3.1352,-1.22316 -0.7609,-2.13426 0.819,-0.31428 4.7565,0.12307 8.75,0.97189 3.9935,0.84883 9.2324,1.8446 11.6419,2.21284 3.051,0.46626 3.9618,0.93504 3,1.54417 -2.1184,1.3417 -6.7331,0.94605 -13.881,-1.19012 z m 24.6983,248.46418 c 8.9902,-7.62659 16.4768,-10.94194 29.3899,-13.01491 l 10.5883,-1.69975 -1.9318,-5.07705 c -1.0624,-2.79238 -2.3582,-7.7189 -2.8795,-10.94783 -1.6978,-10.51686 -6.5186,-16.89089 -16.6521,-22.01721 -6.7929,-3.43641 -17.7303,-6.61202 -22.7731,-6.61202 -4.9499,0 -4.416,-1.30508 -6.341,15.5 -1.2363,10.79312 -3.8944,28.48011 -5.1002,33.93619 -0.5642,2.55301 -0.4903,4.66142 0.2101,6 1.4303,2.73331 7.0829,9.37193 8.0712,9.47916 0.4291,0.0466 3.7673,-2.4494 7.4182,-5.54658 z m -13.6983,-10.97713 c 0,-1.05509 1.4973,-4.16233 3.3273,-6.90499 1.83,-2.74266 5.5302,-9.18802 8.2227,-14.32303 5.6588,-10.79217 8.6404,-14.19631 12.3364,-14.08467 1.5243,0.046 1.9884,0.30644 1.1136,0.62476 -2.3356,0.84986 -7.0274,5.50692 -8.6201,8.55624 -0.7928,1.51798 -2.2739,5.43452 -3.2913,8.70343 -1.7922,5.75806 -6.7285,13.59082 -11.0034,17.45951 -2.0447,1.85048 -2.0852,1.84987 -2.0852,-0.0312 z m 144.3305,-0.33982 c -0.7978,-2.7215 -1.3087,-6.884 -1.1354,-9.25 l 0.315,-4.30182 1.9238,5.73787 c 1.058,3.15583 2.1151,5.54653 2.3489,5.31268 0.2339,-0.23386 0.8429,-4.1659 1.3534,-8.73787 0.5105,-4.57198 2.3088,-14.16268 3.9962,-21.31268 3.4817,-14.75305 3.4322,-17.94713 -0.5706,-36.84277 -3.4018,-16.05892 -3.7945,-21.03894 -2.5912,-32.86793 1.193,-11.72872 0.7949,-13.68249 -3.7535,-18.41953 -1.653,-1.72163 -3.2955,-4.64663 -3.6499,-6.5 -1.4191,-7.42179 -3.0359,-12.75617 -6.3254,-20.86977 -3.8402,-9.47202 -5.7308,-12.85386 -11.8994,-21.28558 -7.6918,-10.5136 -14.0189,-22.97022 -18.3945,-36.21442 l -4.2948,-13 1.765,-12.3441 c 0.9708,-6.78925 2.8489,-15.53057 4.1735,-19.42515 1.3246,-3.89458 2.4084,-9.00433 2.4084,-11.35501 0,-3.6554 -0.4703,-4.62661 -3.25,-6.71063 -8.464,-6.34586 -17.207,-8.9061 -21.2863,-6.2333 -3.2361,2.12038 -2.3388,3.53407 2.3453,3.69499 2.7747,0.0953 2.2015,0.32498 -2.309,0.92508 -3.3,0.43905 -7.125,1.25347 -8.5,1.80981 -2.4376,0.98632 -2.4175,1.01312 0.809,1.07492 5.9523,0.11402 2.298,2.06339 -3.868,2.06339 -6.344,0 -6.4958,0.0948 -4.9058,3.06574 1.3444,2.51205 3.9187,2.40883 12.4648,-0.49978 l 7,-2.3824 -2.9024,2.31735 c -1.7159,1.36999 -5.1908,2.66739 -8.5,3.17357 -6.3467,0.97082 -6.2092,0.48371 -3.0566,10.82552 3.5636,11.69014 3.8129,33.89946 0.4781,42.58979 -0.4229,1.10187 0.6251,2.4016 3.4363,4.26196 4.3882,2.90401 5.329,5.64825 1.9362,5.64825 -1.6726,0 -2.0018,0.46509 -1.5928,2.25 1.3122,5.72676 3.826,21.97773 6.2261,40.25 3.4291,26.10626 6.2931,37.26135 11.4682,44.66812 5.7934,8.29165 10.3196,20.91925 8.2426,22.99619 -0.8996,0.89963 -1.3775,0.62663 -2.0405,-1.16576 -1.183,-3.1978 -1.6676,-2.05439 -4.0274,9.50145 -3.4516,16.90281 -3.6532,22.71936 -1.2323,35.56064 3.054,16.20031 2.6886,15.38019 5.7717,12.95502 2.4677,-1.94109 5.2928,-2.68467 5.2928,-1.39309 0,0.34241 -2.6932,3.5016 -5.9849,7.02042 -3.2916,3.51883 -6.7047,7.78983 -7.5844,9.49112 -2.1981,4.25069 -4.5581,11.10498 -3.6637,10.64084 7.6661,-3.97835 21.5104,-6.39028 31.4869,-5.48564 6.5159,0.59084 14.4332,4.72916 19.9632,10.43464 1.7464,1.80183 3.2627,3.27605 3.3696,3.27605 0.1069,0 -0.4584,-2.22668 -1.2562,-4.94818 z m 0.8489,-42.33563 c -4.6183,-5.56477 -5.5176,-16.18468 -2.2118,-26.11873 1.7269,-5.18933 2.1156,-8.02058 1.6404,-11.94909 -0.7626,-6.30439 0.8544,-4.17399 1.7848,2.35163 0.4024,2.82194 0.076,6.66238 -0.8755,10.29879 -1.955,7.47187 -1.9325,14.99764 0.057,18.8438 1.7552,3.3943 1.7996,3.37789 5.0973,-1.88333 2.303,-3.67437 2.3415,-3.69152 1.7025,-0.75926 -2.0402,9.36222 -4.4795,12.48716 -7.1942,9.21619 z m -14.88,-57.61427 c -4.2767,-3.09801 -6.8328,-8.06509 -7.8923,-15.33643 -0.5787,-3.9711 -0.5174,-4.12545 0.8876,-2.2364 0.8301,1.11599 2.0347,3.98022 2.6768,6.36495 1.255,4.66074 3.7785,7.60322 8.8415,10.30945 1.7529,0.93692 3.187,2.17442 3.187,2.75 0,1.94646 -3.6786,1.06196 -7.7006,-1.85157 z M 618.95988,322.372 c -0.4116,-2.78349 0.101,-7.5104 1.4854,-13.69874 3.176,-14.19698 3.5313,-23.2959 1.1922,-30.53017 -1.8198,-5.62814 -1.8974,-8.52109 -0.2284,-8.52109 1.0561,0 4.1924,13.46782 4.7907,20.57208 0.3953,4.69433 -0.084,8.14049 -2.1113,15.18817 -1.5392,5.35007 -2.6227,11.62035 -2.6227,15.17792 0,6.96487 -1.5755,8.10399 -2.5059,1.81183 z m 21.5059,-9.55887 c 0,-2.88211 0.6298,-5.58662 1.5718,-6.75 1.4877,-1.83733 1.5412,-1.76066 1,1.43387 -0.3145,1.85625 -0.5718,4.89375 -0.5718,6.75 0,1.85625 -0.45,3.375 -1,3.375 -0.55,0 -1,-2.16399 -1,-4.80887 z m -45.6583,-143.93487 c 0.3089,-0.49992 2.3984,-1.73716 4.6432,-2.74943 3.11,-1.40243 4.3592,-1.56277 5.2483,-0.67366 0.8891,0.88911 0.5124,1.16683 -1.5828,1.16683 -1.5123,0 -4.1269,0.71217 -5.8101,1.5826 -1.6832,0.87042 -2.8076,1.17357 -2.4986,0.67366 z m -3.5698,260.49374 c 1.0991,-4.63445 2.2879,-7.00252 8.2624,-16.45911 1.1648,-1.8435 1.1869,-3.16751 0.1337,-8 -5.1482,-23.62311 -5.1362,-32.49977 0.072,-53.44189 l 3.1465,-12.651 -3.304,-6.349 c -1.8172,-3.49195 -4.3508,-8.39043 -5.6301,-10.88552 -2.4969,-4.86952 -5.8306,-20.18082 -7.3948,-33.96348 -4.398,-38.75264 -5.9432,-49.46073 -7.4306,-51.49494 -0.987,-1.34974 -1.6722,-0.81055 -4.7122,3.70775 -2.1054,3.12923 -5.5404,6.51164 -8.4161,8.28719 -4.4767,2.76399 -5.6118,3.00618 -14.429,3.07849 -7.617,0.0625 -10.4884,0.51717 -14.0701,2.22804 -8.4477,4.0353 -21.7375,2.41201 -31,-3.78653 -2.475,-1.65629 -4.8062,-3.01336 -5.1804,-3.01572 -1.3261,-0.008 -1.3873,4.54945 -0.1124,8.37145 0.7111,2.13165 1.2928,6.48985 1.2928,9.6849 0,3.19504 0.4229,6.92135 0.9397,8.28069 0.5168,1.35933 2.5403,9.68842 4.4966,18.50909 3.9901,17.99044 4.8211,33.10976 2.6094,47.47235 -1.0266,6.66677 -0.9782,8.38871 0.3278,11.65261 1.6767,4.19044 1.2736,9.67952 -1.0497,14.29294 -1.1639,2.31132 -1.1882,4.0765 -0.1471,10.69309 l 1.2469,7.92478 6.5382,0.62097 c 9.2007,0.87386 18.5313,3.80331 25.5382,8.01805 10.8799,6.54438 11.9918,8.42538 14.4665,24.47193 0.6649,4.31133 1.9473,7.8438 3.8119,10.5 2.7049,3.8532 3.0701,4.02789 9.7658,4.67195 3.8257,0.368 8.7558,1.1103 10.9558,1.64955 7.5573,1.85242 7.9036,1.70047 9.2719,-4.06863 z M 452.91928,270.34982 c 4.9855,-2.82379 9.7303,-9.00037 12.6333,-16.44551 3.3699,-8.6424 3.836,-25.16218 1.0272,-36.40319 -3.3089,-13.24236 -9.1901,-24.13855 -17.5228,-32.46501 -7.7116,-7.70583 -13.2532,-10.41411 -21.3092,-10.41411 -15.1697,0 -26.805,20.03578 -24.8288,42.75478 2.617,30.08584 21.0767,55.2858 40.4565,55.22877 3.9225,-0.0115 6.7698,-0.68452 9.5438,-2.25573 z m -2.4535,-4.16593 c 0,-0.33262 1.1052,-2.28262 2.4561,-4.33333 10.6008,-16.09315 4.8213,-53.52521 -11.1441,-72.17715 -3.4309,-4.00828 -11.6651,-9.05141 -14.7787,-9.05141 -0.8433,0 -1.5333,-0.45 -1.5333,-1 0,-3.37843 10.1109,1.27355 16.1956,7.4515 9.1055,9.2452 15.8053,25.65005 17.9259,43.89292 1.4664,12.61558 0.3166,21.46773 -3.8416,29.576 -2.3582,4.59825 -5.2799,7.72002 -5.2799,5.64147 z m 82.0654,-15.56349 c 13.0005,-3.6115 21.515,-23.94731 18.8674,-45.06251 -3.345,-26.67619 -19.1815,-49.07742 -36.978,-52.30644 -5.2515,-0.95284 -13.3041,1.7865 -17.4557,5.93813 -4.5118,4.51181 -6.883,9.30689 -8.803,17.80173 l -1.5526,6.86931 4.9646,-0.65857 c 4.3613,-0.57854 5.6897,-0.27214 10.9304,2.52113 3.2811,1.74884 7.7648,5.13145 9.9636,7.51692 3.2792,3.55747 3.9979,5.05866 3.9979,8.35014 0,3.99742 -4.8919,18.06303 -11.1493,32.05746 l -3.242,7.25056 2.9457,2.44819 c 8.2697,6.87316 18.8672,9.67516 27.511,7.27395 z m -0.065,-4.79262 c 0,-0.52849 0.658,-1.50699 1.4623,-2.17444 2.3592,-1.958 5.4812,-11.54696 6.1229,-18.80642 0.8029,-9.08147 -1.7521,-25.12928 -5.582,-35.06051 -5.6994,-14.77889 -13.3372,-24.21705 -22.398,-27.67741 -4.629,-1.7678 -6.5588,-4.1948 -2.3552,-2.96182 11.6689,3.42262 19.4312,12.02266 26.2616,29.09574 4.0479,10.11824 5.7401,21.02038 5.3381,34.39077 -0.3184,10.59156 -0.6179,12.15445 -3.3497,17.48034 -2.713,5.28924 -5.5,8.18457 -5.5,5.71375 z m 26.1416,0.63366 c 8.7407,-2.61879 16.5899,-13.5155 18.9729,-26.33944 1.3432,-7.2284 0.5867,-21.71889 -1.5663,-30 -0.858,-3.3 -3.5825,-10.12343 -6.0545,-15.16317 -5.2171,-10.63629 -13.3049,-19.61192 -21.0634,-23.37553 -5.6634,-2.74728 -14.0791,-3.24275 -19.0973,-1.12433 l -3.1671,1.33696 8.2896,8.19677 c 6.9697,6.89171 9.0121,9.70393 12.828,17.66303 6.3112,13.16342 8.0925,20.90553 8.1605,35.46627 0.062,13.3238 -2.1166,22.69622 -6.8996,29.67902 -2.2646,3.30619 -2.3439,3.72513 -0.7822,4.134 3.2183,0.84258 6.4837,0.69358 10.3794,-0.47358 z m 1.9892,-6.46444 c 0.2094,-0.48125 1.5916,-3.1751 3.0715,-5.98634 4.1193,-7.82464 5.3083,-16.70714 3.8571,-28.81501 -2.8281,-23.59603 -13.575,-43.28034 -26.5701,-48.66649 -5.3522,-2.21838 -7.7277,-4.69849 -3.2393,-3.38198 10.2064,2.99366 16.7741,9.47292 23.2882,22.97482 6.6104,13.70152 7.8479,19.50077 7.9092,37.06487 0.052,14.81845 0,15.16066 -2.9474,20.92043 -1.65,3.22055 -3.6187,6.06011 -4.375,6.31012 -0.7562,0.25002 -1.2036,0.0608 -0.9942,-0.42042 z m 73.5957,-20.08327 c 4.208,-1.9528 9.9522,-8.37081 12.1918,-13.62206 3.4299,-8.04205 4.3711,-14.47811 3.8111,-26.05959 -0.8567,-17.71553 -6.6578,-32.66496 -17.1931,-44.30691 -17.818,-19.68951 -39.5193,-14.80686 -45.9621,10.34117 -0.8658,3.37939 -1.5742,7.54189 -1.5742,9.25 0,3.11151 1.2734,4.09038 2.5771,1.98103 0.4523,-0.7319 3.0047,-0.9577 7.309,-0.6466 7.8944,0.57058 17.3972,4.94232 21.6,9.93709 2.5046,2.97651 2.698,3.77106 2.1423,8.80298 -0.336,3.04214 -1.696,8.90616 -3.0223,13.03116 -1.3262,4.125 -2.9851,11.90399 -3.6864,17.28664 -1.4937,11.46601 -1.3089,11.84439 7.2387,14.81519 5.6295,1.9566 9.0115,1.76853 14.5681,-0.8101 z m -2.6226,-2.80411 c 0.2179,-0.55681 1.645,-3.5096 3.1714,-6.56175 4.0238,-8.04603 5.1053,-16.30849 3.7208,-28.42587 -2.7229,-23.83124 -15.025,-45.73192 -27.8463,-49.57328 -4.5781,-1.37161 -5.8249,-3.56111 -1.3998,-2.45801 8.7854,2.19003 16.7462,9.91777 22.6147,21.9527 6.1931,12.70057 7.9439,20.8775 8.0464,37.57859 0.081,13.17496 -0.1251,14.97324 -2.2535,19.6787 -1.2884,2.84828 -3.2666,5.99828 -4.3961,7 -1.1295,1.00171 -1.8754,1.36573 -1.6576,0.80892 z"
       id="path3252"
       inkscape:connector-curvature="0" />
  </g>
</svg>
