<?xml version="1.0" encoding="UTF-8" standalone="no"?>
<!-- Created with Inkscape (http://www.inkscape.org/) -->

<svg
   xmlns:dc="http://purl.org/dc/elements/1.1/"
   xmlns:cc="http://creativecommons.org/ns#"
   xmlns:rdf="http://www.w3.org/1999/02/22-rdf-syntax-ns#"
   xmlns:svg="http://www.w3.org/2000/svg"
   xmlns="http://www.w3.org/2000/svg"
   xmlns:sodipodi="http://sodipodi.sourceforge.net/DTD/sodipodi-0.dtd"
   xmlns:inkscape="http://www.inkscape.org/namespaces/inkscape"
   width="687.96234"
   height="897.99066"
   id="svg2"
   version="1.1"
   inkscape:version="0.48.3.1 r9886"
   sodipodi:docname="Incline-flys-with-a-twist-1.svg">
  <defs
     id="defs4" />
  <sodipodi:namedview
     id="base"
     pagecolor="#ffffff"
     bordercolor="#666666"
     borderopacity="1.0"
     inkscape:pageopacity="0.0"
     inkscape:pageshadow="2"
     inkscape:zoom="0.49497475"
     inkscape:cx="1023.3952"
     inkscape:cy="425.15121"
     inkscape:document-units="px"
     inkscape:current-layer="layer1"
     showgrid="false"
     fit-margin-top="0"
     fit-margin-left="0"
     fit-margin-right="0"
     fit-margin-bottom="0"
     inkscape:window-width="1855"
     inkscape:window-height="1056"
     inkscape:window-x="65"
     inkscape:window-y="24"
     inkscape:window-maximized="1" />
  <metadata
     id="metadata7">
    <rdf:RDF>
      <cc:Work
         rdf:about="">
        <dc:format>image/svg+xml</dc:format>
        <dc:type
           rdf:resource="http://purl.org/dc/dcmitype/StillImage" />
        <dc:title></dc:title>
      </cc:Work>
    </rdf:RDF>
  </metadata>
  <g
     inkscape:label="Ebene 1"
     inkscape:groupmode="layer"
     id="layer1"
     transform="translate(-237.88011,-119.63132)">
    <path
       style="fill:#000000"
       d="m 711.35474,1015.3213 c -2.1788,-1.1511 -8.0829,-2.9184 -13.1202,-3.9271 -5.0373,-1.0088 -10.4373,-2.5063 -12,-3.3278 -5.1364,-2.7 -13.9264,-11.39265 -18.8013,-18.59305 -6.6832,-9.8713 -14.6658,-16.8774 -28.5748,-25.0796 -13.3376,-7.8651 -14.9682,-9.8282 -15.2757,-18.3904 -0.2012,-5.6031 -0.2618,-5.4614 14.1401,-33.089 7.2705,-13.9472 8.0806,-18.8773 7.4765,-45.5 -0.2683,-11.825 -0.08,-24.7521 0.4195,-28.7269 l 0.9074,-7.22681 -58.442,-44.27317 c -32.1431,-24.35024 -59.0364,-44.61952 -59.7629,-45.04285 -0.8327,-0.48523 -14.1174,5.89005 -35.9454,17.25 -19.0434,9.91083 -35.2862,18.01969 -36.095,18.01969 -0.8088,0 -5.5136,-3.47494 -10.4552,-7.72209 l -8.9847,-7.72209 0.2761,-13.9652 0.2761,-13.96519 33.6748,-16.06271 c 18.5212,-8.8345 33.9599,-16.35151 34.3084,-16.70447 0.5505,-0.55753 -14.0317,-125.32103 -15.0291,-128.58743 -0.2445,-0.80085 -2.3928,0.0955 -6.1647,2.57227 -3.1842,2.0908 -9.9174,6.14549 -14.9627,9.01044 -7.6591,4.34918 -9.6205,5.98787 -11.8825,9.92773 -3.1617,5.50669 -7.3137,10.21874 -9.0042,10.21874 -0.6521,0 -3.3384,0.95222 -5.9694,2.11604 -4.5413,2.00883 -5.7763,2.08079 -24.3771,1.42047 -24.4642,-0.86847 -30.9662,-2.11637 -43.0935,-8.2707 l -9.5,-4.82103 -5,2.77863 c -13.2592,7.36848 -28.661,8.81222 -37.64428,3.52872 -9.76294,-5.74207 -13.2521,-12.85316 -13.12632,-26.75213 0.0511,-5.65068 0.72678,-11.52596 1.66746,-14.5 0.86983,-2.75 1.58637,-5.29059 1.59233,-5.64575 0.006,-0.35517 -2.12668,-2.01989 -4.73918,-3.69939 -2.6125,-1.6795 -6.75619,-5.10141 -9.20821,-7.60424 -2.45201,-2.50284 -4.84593,-4.55062 -5.31982,-4.55062 -0.47389,0 -2.92306,1.41831 -5.4426,3.1518 -6.14896,4.23059 -15.00543,6.85033 -23.11847,6.83843 -28.1872,-0.0413 -36.23707,-33.03926 -15.62402,-64.04572 12.91444,-19.42609 32.96583,-32.22115 50.46312,-32.2012 8.51613,0.01 13.02351,1.58241 18.62123,6.49728 6.00876,5.27575 8.35746,11.59291 8.36896,22.50941 0.01,6.02896 -0.3707,9.25 -1.0829,9.25 -0.6009,0 0.9741,2.29867 3.5,5.10815 4.7506,5.28373 5.742,8.87594 3.5698,12.93464 -0.8138,1.52069 -0.4177,2.74672 1.9383,5.99909 1.6286,2.24828 3.118,4.55816 3.3096,5.13307 0.1916,0.57491 2.4388,-0.3655 4.9937,-2.08979 11.4114,-7.70145 24.8051,-11.29326 34.2392,-9.182 8.2371,1.84338 14.4084,6.44177 17.9376,13.3658 2.5684,5.03887 2.9509,6.89095 3.0225,14.63448 l 0.082,8.86552 7.6305,-0.51918 c 5.4769,-0.37265 8.9344,-0.0749 12.25,1.05482 3.5539,1.21092 4.6195,1.28292 4.6195,0.31212 0,-0.69403 2.0121,-5.39597 4.4714,-10.44876 5.2725,-10.83296 10.9945,-16.92641 19.0171,-20.2516 3.0313,-1.25641 5.5115,-2.60291 5.5115,-2.99222 0,-0.38931 -1.9824,-2.91275 -4.4053,-5.60765 -5.5098,-6.12815 -7.0347,-11.3178 -6.2161,-21.15409 0.7058,-8.48014 2.3348,-12.41913 7.6183,-18.42149 5.5806,-6.33997 11.8691,-9.34358 23.4706,-11.21045 5.4637,-0.87918 10.0751,-1.73977 10.2478,-1.91242 0.1727,-0.17264 -0.8322,-2.36452 -2.233,-4.87084 -5.1759,-9.26061 -7.0389,-28.31815 -3.9383,-40.2871 3.2653,-12.6053 11.8828,-20.91193 25.9313,-24.99594 7.8618,-2.28548 23.6162,-1.59979 31.3583,1.36484 7.486,2.86659 18.8909,9.82089 20.7439,12.64891 0.8564,1.30708 2.2421,6.12177 3.0792,10.6993 0.8371,4.57754 2.2144,10.28857 3.0606,12.69118 l 1.5386,4.36839 4.622,-0.64737 c 2.8028,-0.39255 8.6504,0.0331 14.8562,1.08146 10.1116,1.70815 10.2671,1.70437 13,-0.31609 5.428,-4.01302 9.2183,-5.3304 18.4788,-6.42255 10.9423,-1.2905 18.9484,-0.22538 24.647,3.27899 5.1128,3.1441 11.5864,9.26657 15.6469,14.798 3.2458,4.42175 3.7924,4.74185 9.0172,5.2811 11.4711,1.18392 28.2611,8.45423 35.8576,15.52682 2.2943,2.13607 2.9837,2.37715 3.3825,1.18286 1.0996,-3.29297 10.3553,-10.9037 21.7359,-17.873 6.6,-4.04172 13.2824,-8.53622 14.8499,-9.98779 3.6216,-3.35392 8.0004,-9.6484 9.938,-14.28588 1.4894,-3.5646 1.463,-3.6653 -2.5673,-9.79814 -2.844,-4.32772 -4.5469,-6.03871 -5.6464,-5.67325 -0.8658,0.2878 -4.0492,1.42991 -7.0742,2.53802 -6.7259,2.46383 -17.5215,2.72465 -22.7283,0.5491 -9.5855,-4.00508 -14.5925,-10.92935 -16.4246,-22.71384 -4.1404,-26.63196 17.8778,-61.10653 45.8492,-71.78752 16.8301,-6.42661 33.9074,0.2909 38.8921,15.29856 2.1111,6.35586 2.094,18.31154 -0.038,26.53896 -1.5767,6.08498 -1.5638,6.36725 0.4191,9.15196 1.911,2.68379 13.9147,11.04282 15.8577,11.04282 0.4819,0 3.9805,-2.04303 7.7745,-4.54007 20.5023,-13.4935 42.3947,-10.28572 50.0072,7.3273 2.4588,5.68889 2.9489,20.38066 0.9411,28.21277 -3.6987,14.42773 -14.3085,31.06008 -26.2911,41.21503 -10.8292,9.17739 -25.243,14.65761 -35.3907,13.45576 -5.8268,-0.6901 -13.9687,-4.71182 -16.7836,-8.29031 -1.1619,-1.47719 -2.2914,-2.50461 -2.5099,-2.28314 -0.2186,0.22146 -3.1151,6.33905 -6.4369,13.59463 -6.9705,15.22549 -9.3503,19.22865 -15.6447,26.31581 -2.5113,2.82751 -5.9222,8.01155 -7.5799,11.52009 -4.0572,8.58697 -7.9358,11.81848 -13.3427,11.11645 -14.3793,-1.86703 -14.8717,-1.84414 -27.5454,1.28027 -6.8612,1.69148 -13.7278,3.07541 -15.2591,3.07541 l -2.7842,0 4.9015,9.75 c 2.6958,5.3625 7.3848,13.125 10.4198,17.25 3.035,4.125 5.0836,7.65828 4.5524,7.85173 -0.5312,0.19345 1.4215,2.92628 4.3393,6.07296 2.9179,3.14667 6.8343,8.29051 8.7033,11.43074 1.8689,3.14024 3.7525,5.92862 4.1858,6.19641 0.4333,0.26779 4.0792,0.89565 8.1019,1.39525 6.8581,0.85172 7.5354,1.1637 10.8608,5.00304 l 3.5465,4.09466 11.1886,1.47005 c 13.8145,1.81504 17.6381,2.66297 31.0713,6.89041 5.8559,1.84285 15.372,4.79948 21.147,6.57029 5.775,1.77081 13.5418,4.80875 17.2596,6.75097 6.5066,3.39914 12.7189,9.02626 12.7603,11.55829 0.011,0.66836 5.7484,3.99832 12.75,7.39992 22.3996,10.8825 30.9913,17.54113 50.2301,38.92893 1.925,2.14002 7.775,6.83998 13,10.44434 8.649,5.96631 9.6529,6.99631 11.2062,11.4977 1.9762,5.72661 2.3648,19.50786 0.6859,24.32401 -0.6702,1.92266 -3.7318,5.34684 -7.75,8.66804 -10.3584,8.56158 -11.5476,9.83907 -13.0404,14.00875 -2.4418,6.82052 -10.3541,20.36052 -15.6377,26.76034 -2.8077,3.40074 -7.7731,8.16901 -11.0344,10.59615 -10.5543,7.85479 -18.1377,14.95218 -19.8646,18.59136 l -1.6881,3.55739 4.4928,5.97672 c 2.471,3.2872 5.9201,9.01082 7.6647,12.71914 4.4803,9.52372 8.9993,14.61405 16.7652,18.88482 9.5953,5.27688 14.6949,9.68193 17.2005,14.85773 1.837,3.7947 2.0126,5.0246 1.0941,7.6594 -0.6018,1.7264 -1.0942,4.1968 -1.0942,5.4897 0,1.2929 -1.012,3.3628 -2.2489,4.5997 -1.2369,1.2369 -2.9244,3.5994 -3.75,5.25 -2.0353,4.0691 -7.4779,5.7996 -16.5011,5.2464 -10.71,-0.6566 -14.9174,-3.3832 -24.4549,-15.8482 -1.9728,-2.5783 -12.9975,-8.8971 -15.5231,-8.8971 -0.2871,0 -0.522,1.4649 -0.522,3.2554 l 0,3.2554 -68.611,39.4655 c -37.736,21.706 -69.273,39.9496 -70.0821,40.5412 -1.2463,0.9113 -0.7261,2.4472 3.4027,10.0459 2.6807,4.9336 6.5583,11.5078 8.617,14.6093 5.4342,8.1869 16.9853,18.7054 25.3766,23.108 7.876,4.1321 10.4919,7.0164 12.2351,13.49 0.9843,3.6555 0.8725,4.86855 -0.7965,8.64165 -1.2288,2.7779 -2.8043,4.6497 -4.2917,5.0987 -1.2925,0.3902 -3.7293,2.0174 -5.4149,3.6159 -3.8666,3.6666 -8.0668,4.873 -16.9671,4.873 -5.221,0 -8.0709,-0.542 -11.0067,-2.093 z m 22.5333,-5.7108 c 5.2098,-2.5286 6.0666,-6.116 2.559,-10.71465 -1.532,-2.0085 -4.1207,-4.4638 -5.7527,-5.4563 -1.8881,-1.1482 -2.5527,-2.0607 -1.8273,-2.509 2.1743,-1.3438 5.7621,0.4735 9.99,5.0603 5.0359,5.46335 7.1002,4.91815 5.2142,-1.3769 -1.0436,-3.4831 -2.1095,-4.3993 -10.7991,-9.2821 -11.7433,-6.5987 -22.5302,-16.3698 -29.3838,-26.6168 -7.9218,-11.8441 -19.8406,-37.363 -21.2272,-45.4485 -2.4525,-14.3024 1.5344,-29.5115 15.6899,-59.8522 6.205,-13.2997 13.7564,-31.94463 15.0567,-37.17588 0.3658,-1.47172 3.3351,-5.74672 6.5983,-9.5 5.5744,-6.41142 10.3514,-14.79008 13.5123,-23.69989 2.1081,-5.94231 1.7109,-12.80758 -1.11,-19.18618 -2.8331,-6.40614 -7.4516,-21.10793 -10.3959,-33.09274 -1.9567,-7.96477 -7.1624,-19.27721 -14.8794,-32.33451 -3.2278,-5.46127 -4.5405,-6.75946 -8.2875,-8.19561 -9.8759,-3.78522 -24.2055,-1.2934 -34.9523,6.07797 -6.2742,4.30358 -15.8979,15.23672 -18.7547,21.30664 l -1.931,4.10287 2.5929,6.11205 c 3.2632,7.69245 5.1126,10.59066 15.0498,23.58524 13.2045,17.26701 23.088,41 17.0744,41 -0.5673,0 -1.0314,-0.68912 -1.0314,-1.53138 0,-2.07537 -2.6907,-2.97019 -4.476,-1.48854 -2.3282,1.93221 -16.1555,27.95488 -18.3424,34.51992 -3.0033,9.01564 -4.4594,26.19794 -4.5764,54.00004 l -0.1052,25 -3.1446,7.2301 c -1.7295,3.9766 -5.605,10.9516 -8.6121,15.5 -7.0612,10.6801 -7.4236,11.4217 -8.1948,16.7699 -0.518,3.5922 -0.1849,5.4078 1.6513,9 2.0471,4.0048 3.5837,5.2152 13.9645,11 13.5971,7.5771 14.4171,8.2505 21.31,17.5 7.3659,9.8842 13.5171,16.4786 20.1299,21.58035 5.4977,4.2414 6.0427,4.4309 14.4567,5.0258 6.4769,0.4581 9.4852,1.1464 11.6044,2.6555 1.5735,1.1204 3.98,2.267 5.3478,2.5481 3.9697,0.8158 12.1847,-0.2707 15.9817,-2.1136 z m -10.9948,-8.2234 c -1.375,-1.0606 -3.0625,-1.93835 -3.75,-1.95055 -2.0451,-0.036 -1.4173,-2.0222 0.6392,-2.0222 2.3929,0 6.5215,3.28395 6.0028,4.77465 -0.2524,0.7254 -1.2822,0.4399 -2.892,-0.8019 z m -75.75,-54.53895 c -3.4723,-2.0811 -4.25,-3.09 -4.25,-5.5135 0,-2.6856 8.0728,-18.2293 10.127,-19.4988 0.9476,-0.5857 -1.0304,5.1314 -4.0061,11.5785 -2.7382,5.9326 -2.6468,8.6216 0.43,12.6556 1.403,1.8394 2.4155,3.3401 2.25,3.3349 -0.1655,0 -2.2134,-1.1557 -4.5509,-2.5567 z m 12.7505,-68.1838 c 3e-4,-0.4125 2.2415,-2.68 4.9805,-5.0387 2.7391,-2.3588 6.0929,-6.1877 7.4531,-8.5086 2.9128,-4.9704 9.5659,-27.3819 9.5659,-32.2237 0,-1.84855 0.45,-3.63912 1,-3.97904 3.1364,-1.93838 -0.7908,19.83604 -6.026,33.41134 -3.7498,9.7236 -9.9141,17.0887 -14.3026,17.0887 -1.4692,0 -2.6712,-0.3375 -2.6709,-0.75 z m 22.8027,-59.75004 c -1.8232,-5.29102 -3.0421,-14.66107 -2.0379,-15.66531 0.7314,-0.73134 1.3982,0.63562 2.2043,4.51899 1.2347,5.94751 1.1021,14.82775 -0.1664,11.14632 z m 27.7985,-19.59865 c -2.7931,-2.19707 -7.6017,-10.69063 -7.6017,-13.42712 0,-2.51095 1.557,-0.92085 4.902,5.00611 2.2304,3.952 3.8605,5.66375 5.8454,6.13822 4.01,0.95852 4.4823,1.39981 3.1787,2.97047 -1.6126,1.94303 -3.1993,1.7705 -6.3244,-0.68768 z m -11.1802,-24.40135 c 1.0136,-1.65 3.6281,-5.34946 5.81,-8.22102 2.1818,-2.87155 4.7535,-7.76298 5.7148,-10.86983 1.2719,-4.11082 1.933,-5.16624 2.4279,-3.87637 1.636,4.26326 -5.9812,17.93708 -13.3513,23.96722 l -2.4444,2 1.843,-3 z m 67.5785,115.79484 67.5,-38.921 0.2782,-12.4603 0.2782,-12.46043 -12.4644,-4.70199 -12.4644,-4.70198 -22.9013,13.2559 c -21.6478,12.5303 -22.847,13.3779 -21.9068,15.485 1.1255,2.5223 0.4476,3.7183 -1.6512,2.9129 -0.7798,-0.2992 -8.2791,-10.5923 -16.665,-22.87352 -8.3858,-12.28118 -15.5338,-22.64859 -15.8844,-23.03869 -1.627,-1.81043 -15.1189,19.08519 -15.1189,23.41546 0,0.53048 5.655,8.79545 12.5667,18.36665 11.5756,16.0296 13.3693,19.4674 10.1243,19.4038 -0.655,-0.013 -6.366,-7.2023 -12.691,-15.9766 -6.325,-8.7744 -11.725,-15.95931 -12,-15.9666 -0.7949,-0.0211 -14.1732,29.9521 -13.8191,30.9609 0.1755,0.5001 2.7941,2.6352 5.8191,4.7446 3.025,2.1094 5.5,4.4291 5.5,5.1549 0,0.7257 -4.7152,4.1007 -10.4783,7.4999 -9.5073,5.6076 -10.5891,6.5476 -11.6732,10.1433 -2.715,9.0053 -1.2192,21.7448 3.8425,32.7263 2.3031,4.9967 3.5982,6.7496 4.7391,6.4141 0.8634,-0.2539 31.9449,-17.9761 69.0699,-39.3826 z m -62,-17.407 c 0,-0.3577 -1.5796,-1.8553 -3.5103,-3.3279 l -3.5104,-2.6775 -1.8448,4.3088 c -4.0931,9.5594 -4.1268,9.4897 2.7579,5.7048 3.3592,-1.8467 6.1076,-3.6504 6.1076,-4.0082 z m 186.9704,-8.6627 c 1.9492,-1.5785 2.0543,-2.0769 0.9489,-4.5028 -1.3839,-3.0375 -11.592,-8.7223 -15.6623,-8.7223 -1.5008,0 -2.2605,-0.476 -1.9952,-1.25 0.2357,-0.6875 1.7357,-1.1972 3.3334,-1.1325 3.4667,0.1402 13.6382,4.3787 16.3095,6.7962 2.2585,2.0439 3.4312,0.7727 2.5449,-2.7587 -0.3366,-1.3408 -0.1254,-2.7373 0.4694,-3.105 3.7493,-2.3172 -2.2803,-9.6181 -12.0327,-14.5696 -10.1229,-5.13967 -15.9503,-11.1567 -21.4925,-22.19189 -4.1139,-8.19123 -11.4088,-17.78855 -13.5211,-17.78855 -0.48,0 -0.8727,0.9 -0.8727,2 0,1.11111 -0.6667,2 -1.5,2 -3.666,0 0.1567,-11.42257 5.7788,-17.26757 1.7717,-1.84188 9.7901,-8.80953 17.8189,-15.48367 8.0287,-6.67414 15.4537,-13.39794 16.5,-14.94178 1.0463,-1.54384 5.2773,-9.54157 9.4023,-17.77273 6.9463,-13.86093 7.9238,-15.28671 13.2405,-19.31347 5.2816,-4.00012 5.9111,-4.90927 7.874,-11.37164 2.1634,-7.12281 2.1557,-12.37816 -0.027,-18.11855 -0.6049,-1.5908 -3.8828,-4.5267 -8.2939,-7.42855 -7.2099,-4.743 -15.7328,-12.7625 -31.2938,-29.44575 -8.9876,-9.63578 -16.294,-14.35378 -31.5,-20.3409 -5.225,-2.05725 -12.425,-5.00459 -16,-6.54963 -5.7136,-2.46929 -7.0826,-2.69984 -11.3149,-1.90554 -14.2323,2.671 -24.1085,11.9069 -26.6931,24.96246 -0.5963,3.01253 -1.2953,6.48266 -1.5532,7.71141 -0.4144,1.97428 0.783,2.86179 10.2961,7.63134 5.9208,2.96849 15.3776,6.81997 21.0151,8.55885 5.6375,1.73888 10.25,3.42996 10.25,3.75795 0,2.33175 -24.8619,-4.58733 -35.2215,-9.80214 -3.1468,-1.58405 -5.9593,-2.88009 -6.25,-2.88009 -0.7072,0 -0.6578,6.68507 0.1237,16.72429 l 0.6403,8.22429 8.7012,4.49398 c 9.9352,5.13135 16.0815,6.4534 42.0063,9.03542 12.5334,1.24829 17.571,2.16967 20.9551,3.83269 6.3832,3.13685 6.5558,4.95541 0.3941,4.1532 -2.6671,-0.34723 -6.0528,-0.16768 -7.5238,0.399 -4.9784,1.91776 -16.6056,13.94371 -19.8232,20.50292 -4.2658,8.69621 -8.081,24.47985 -8.3108,34.38233 -0.1053,4.53647 -0.5289,8.24897 -0.9414,8.25 -0.4125,10e-4 -0.75,-0.44812 -0.75,-0.99812 0,-2.13548 -1.6219,-0.80346 -4.4261,3.63499 -4.5628,7.22209 -13.1736,15.96862 -21.1477,21.48106 -7.5139,5.19439 -9.4262,8.0546 -9.4262,14.09891 0,4.04281 1.5176,6.4842 5.221,8.3993 3.0191,1.56125 3.3517,1.53113 7.3776,-0.66813 l 4.216,-2.30309 14.3427,5.43105 14.3427,5.43106 0.2912,7.99742 0.2913,7.99747 5.7087,2.678 c 6.662,3.1252 13.6445,8.83 15.7199,12.8435 4.3107,8.3358 25.0411,14.4007 31.4592,9.2036 z m -4.9704,-18.7251 c -1.7591,-1.8725 -1.9673,-2.5 -0.8293,-2.5 1.4856,0 4.8293,2.9971 4.8293,4.3287 0,1.3807 -1.7264,0.5914 -4,-1.8287 z m -75.3333,-34.16671 c -0.3667,-0.36666 -0.6667,-2.45595 -0.6667,-4.64285 0,-3.42251 0.6764,-4.65256 4.8571,-8.83334 5.784,-5.78389 8.9075,-6.55273 3.8418,-0.94561 -4.9611,5.4913 -5.8848,7.58045 -5.1303,11.60248 0.5017,2.6744 0.3177,3.48599 -0.7906,3.48599 -0.7946,0 -1.7447,-0.3 -2.1113,-0.66667 z m 30.905,-45.21727 c -0.3004,-0.48617 0.9105,-1.47962 2.691,-2.20766 5.78,-2.3634 13.401,-10.64695 19.4675,-21.15979 4.8578,-8.41829 5.8197,-9.58486 6.0856,-7.37998 0.4752,3.93981 -4.2429,11.68211 -12.6018,20.67973 -8.6212,9.27989 -13.9925,12.73699 -15.6423,10.0677 z m 29.1126,-41.7907 c -1.4657,-5.36847 -1.6969,-7.45121 -0.7631,-6.87407 1.1372,0.70282 2.5967,7.36419 1.7902,8.1707 -0.2908,0.2908 -0.753,-0.29268 -1.0271,-1.29663 z m 24.1369,-14.07536 c -3.7598,-3.93315 -5.8212,-7.25616 -5.8212,-9.38388 0,-0.69594 2.2625,1.27312 5.0278,4.37569 2.7653,3.10258 5.9153,5.92273 7,6.26701 2.7013,0.85735 2.4882,2.49118 -0.3248,2.49118 -1.3505,0 -3.7744,-1.5454 -5.8818,-3.75 z m -10.8212,-17.75362 c 0,-0.277 0.8878,-2.15997 1.9728,-4.1844 2.1537,-4.01843 1.9397,-6.42337 -1.1147,-12.52214 -2.2915,-4.57568 -2.3392,-5.43369 -0.2032,-3.66228 4.1379,3.43164 5.7756,14.38512 2.7884,18.64993 -1.3981,1.99608 -3.4433,3.01703 -3.4433,1.71889 z M 778.10794,831.2288 c 15.1423,-8.72313 15.8461,-9.26426 13.9822,-10.75 -3.0427,-2.42528 -4.1969,-5.4772 -4.1969,-11.09762 0,-7.71075 2.063,-10.86547 12.8036,-19.57944 18.6143,-15.10185 21.7331,-19.89464 23.228,-35.69526 0.8238,-8.70714 1.7875,-12.10457 8.5641,-30.19217 1.3415,-3.5808 4.0683,-7.19976 9.6067,-12.75 l 7.7336,-7.75 -4.5074,0 c -8.4875,0 -23.9269,-2.06478 -30.9286,-4.13623 -3.85,-1.13902 -10.5092,-3.79042 -14.7982,-5.892 l -7.7982,-3.82105 -32.0184,19.17464 -32.0185,19.17464 0.6333,5.5 c 0.3484,3.025 3.1277,12.925 6.1762,22 5.2614,15.66188 5.5106,16.85557 4.9065,23.5 -0.4194,4.6139 -1.6523,9.17408 -3.6169,13.378 l -2.9805,6.378 6.5905,9.622 c 3.6248,5.2921 10.0323,14.6845 14.2388,20.872 4.2065,6.18754 7.8298,11.25004 8.0518,11.25004 0.2219,0 7.5787,-4.1335 16.3483,-9.18555 z m -128.7698,-11.81449 c 0.9537,-3.025 3.7023,-9.30397 6.108,-13.95327 2.4056,-4.64929 4.2779,-8.51286 4.1605,-8.58569 -3.3776,-2.09603 -101.4271,-73.16451 -101.8974,-73.8576 -0.3762,-0.55437 -0.4517,-1.38392 -0.1677,-1.84344 0.284,-0.45951 13.0793,-7.12005 28.4341,-14.80119 15.3547,-7.68114 27.9176,-14.20207 27.9176,-14.49095 0,-0.28889 -5.2353,-6.30242 -11.6341,-13.36341 l -11.6341,-12.83815 -24.4284,11.971 c -13.4356,6.58405 -24.7378,11.66368 -25.1159,11.28807 -0.3781,-0.37561 -3.1625,-21.06299 -6.1875,-45.97195 l -5.5,-45.28901 -15.4235,-17.18597 -15.4235,-17.18596 -2.3757,2.37566 -2.3756,2.37567 8.0491,65.82611 c 4.4271,36.20437 8.0492,66.79559 8.0492,67.9805 0,1.84655 -4.9295,4.5032 -34.5,18.59301 l -34.5,16.43862 0,11.5814 0,11.58139 6.25,5.43219 c 3.4375,2.9877 6.9566,5.98053 7.8201,6.65074 1.3013,1.00987 4.5553,-0.33146 19,-7.83182 9.5865,-4.97772 25.5961,-13.29268 35.577,-18.47769 l 18.1472,-9.4273 59.3528,44.93915 c 32.6441,24.71654 59.6254,44.63107 59.9584,44.25452 0.333,-0.37655 1.3857,-3.15963 2.3394,-6.18463 z m 17.9069,-32.76383 4.8517,-6.62096 -4.651,-9.06382 c -2.5581,-4.9851 -8.6783,-14.46102 -13.6006,-21.0576 -4.9222,-6.59659 -8.95,-12.33129 -8.9507,-12.74379 -6e-4,-0.4125 -1.0655,-0.75 -2.3663,-0.75 -1.3009,0 -3.6251,-0.99108 -5.1651,-2.20241 -2.9111,-2.28986 -9.5442,-15.43164 -15.6004,-30.90812 l -3.3694,-8.61053 -27.2524,13.60328 c -14.9888,7.48181 -27.1388,13.92036 -27,14.3079 0.2927,0.81706 97.0032,70.77275 97.7524,70.70934 0.275,-0.0233 2.6833,-3.02176 5.3518,-6.66329 z m -27.2708,-58.08478 c -1.8763,-3.50603 -1.2027,-6.75815 3.169,-15.29805 5.1344,-10.02977 13.0044,-18.4052 20.9022,-22.24461 7.1574,-3.47948 21.2238,-5.97069 30.1715,-5.34352 l 6.8237,0.47829 -0.7007,-13.22191 c -0.7706,-14.54135 -0.094,-18.30994 4.4244,-24.65996 3.3541,-4.71322 7.2768,-7.33716 18.4811,-12.36226 l 9.1478,-4.10276 0.673,-6.4483 c 0.7703,-7.38069 2.8552,-13.77483 5.8741,-18.01438 4.1042,-5.7639 5.5675,-2.40196 1.5386,3.53501 -1.3279,1.95676 -2.7158,5.34197 -3.0843,7.52268 -0.7357,4.35465 0.1423,10.00838 1.5542,10.00838 0.4931,0 7.4262,-2.925 15.4068,-6.5 11.6619,-5.22407 15.5007,-6.5 19.556,-6.5 6.5336,0 10.7394,1.82118 14.7472,6.38584 2.613,2.97598 3.2344,4.54167 3.2344,8.14896 0,2.45586 0.3375,4.46398 0.75,4.4625 0.4125,-10e-4 1.65,-1.65199 2.75,-3.66779 4.5097,-8.26427 16.3357,-14.94937 27.3331,-15.45117 3.1593,-0.14416 5.078,-0.65961 4.8692,-1.30812 -0.1894,-0.58862 -3.2375,-2.53453 -6.7734,-4.32424 -15.6112,-7.90172 -30.7981,-12.38965 -64.9221,-19.18541 l -18.4933,-3.68291 -2.5813,-3.8009 c -3.9011,-5.74429 -4.6222,-5.85064 -13.2232,-1.95036 -4.2378,1.92172 -8.156,3.21537 -8.707,2.8748 -1.8345,-1.13374 -1.0356,-2.59352 1.998,-3.65104 1.65,-0.5752 3,-1.38427 3,-1.79795 0,-1.04693 -5.3206,-8.26744 -7.2817,-9.8819 -2.7172,-2.23688 -23.3907,-2.81067 -29.2564,-0.81202 -5.8353,1.98829 -5.4619,1.98209 -5.4619,0.0907 0,-0.85306 1.5488,-2.19817 3.4419,-2.98912 4.1085,-1.71664 21.7897,-3.83851 24.5872,-2.95062 3.1884,1.01196 2.4529,-2.92588 -1.1058,-5.92034 -1.6922,-1.42389 -3.3797,-2.60865 -3.75,-2.6328 -0.3703,-0.0242 -4.0483,-0.4409 -8.1733,-0.9261 -9.8706,-1.16102 -20.9528,0.26706 -31.3956,4.04574 -10.1518,3.67332 -28.1266,14.34818 -37.7592,22.42427 -8.7126,7.30482 -22.6465,22.86004 -23.4908,26.22433 -0.6569,2.61709 1.1221,9.31526 3.4599,13.02752 0.78,1.23852 1.1872,3.46 0.9049,4.93662 -0.5725,2.99492 0.033,5.31153 1.3878,5.31153 0.4912,0 0.893,-0.8526 0.893,-1.89466 0,-4.15252 4.2338,-15.22678 7.935,-20.75527 2.1541,-3.21754 8.5624,-10.58463 14.2407,-16.37132 10.8106,-11.01683 19.8947,-16.98495 28.2028,-18.52881 5.6975,-1.05874 4.3066,1.28693 -2.0363,3.43421 -12.8813,4.36077 -22.1762,12.61265 -32.0012,28.41017 -15.041,24.18447 -15.933,28.18456 -9.6106,43.09686 3.6016,8.49499 3.7834,8.72912 4.0797,5.25431 0.2173,-2.54832 -0.5225,-5.11817 -2.4719,-8.58594 -2.7696,-4.92713 -2.724,-7.4546 0.092,-5.1172 2.556,2.12129 6.3045,9.39297 6.9889,13.55765 0.3818,2.32324 0.013,7.35351 -0.8809,12 -2.0231,10.52198 -1.943,13.97986 0.5077,21.9143 2.7837,9.01253 17.9101,44.91652 19.2877,45.78133 1.66,1.04206 1.9598,0.22174 0.7471,-2.04424 z m 31.419,-88.26173 c -4.8272,-1.59659 -7.8568,-1.89857 -15.5,-1.54499 -5.225,0.2417 -10.5794,0.60054 -11.8988,0.7974 -3.1365,0.46802 -3.8356,-1.67867 -1.0347,-3.17765 3.3307,-1.78256 16.5452,-2.34451 24.8176,-1.05538 7.5647,1.17884 17.1159,4.64652 17.1159,6.2141 0,1.50213 -7.2248,0.842 -13.5,-1.23348 z m -18.0557,-18.06525 c -2.7896,-8.78907 45.8087,-29.82441 68.9038,-29.82441 8.4798,0 5.6081,1.67343 -4.827,2.81283 -20.4025,2.22774 -45.3738,12.44059 -56.9918,23.30868 -6.0333,5.64387 -6.407,5.83916 -7.085,3.7029 z m -1.4443,-14.78961 c 0,-4.83111 11.6037,-13.8572 29,-22.55801 9.8254,-4.91419 21.9708,-9.83933 22.6324,-9.17776 0.2077,0.20774 -4.9121,3.22107 -11.3773,6.6963 -15.5835,8.37646 -26.5136,15.52214 -33.3953,21.83264 -3.1021,2.84461 -5.9146,5.17203 -6.25,5.17203 -0.3354,0 -0.6098,-0.88434 -0.6098,-1.9652 z m 105.1794,98.15394 31.3206,-18.81127 -0.025,-29.43873 c -0.019,-21.75166 -0.354,-30.02541 -1.2834,-31.68547 -0.6919,-1.23571 -3.025,-3.14821 -5.1847,-4.25 -7.2761,-3.71204 -9.8463,-3.04611 -38.8293,10.06079 -14.6724,6.63524 -28.2582,13.09625 -30.1907,14.3578 -1.9491,1.27238 -4.7916,4.64161 -6.3835,7.56658 l -2.8699,5.27285 0.7165,15.05231 0.7165,15.05232 3.2716,4.06704 c 5.237,6.51024 12.7231,20.549 15.8998,29.81704 0.33,0.9625 0.8072,1.75 1.0607,1.75 0.2534,0 14.5551,-8.46507 31.7814,-18.81126 z m -38.1574,-29.43874 c 0.038,-19.36403 2.638,-22.32635 29.8859,-34.04815 9.97,-4.28899 18.5694,-7.52493 19.1097,-7.19099 2.6658,1.64756 -0.3196,3.58367 -15.2676,9.90144 -27.8866,11.78629 -29.8207,13.79887 -30.5625,31.8013 -0.3401,8.25625 -0.7661,10.7864 -1.8159,10.7864 -1.0821,0 -1.367,-2.37426 -1.3496,-11.25 z m -105.4179,-1 c -0.5418,-7.34006 -1.7399,-12.34719 -5.8025,-24.25 -2.8159,-8.25 -5.9482,-16.56834 -6.9607,-18.48519 -1.0125,-1.91686 -1.8409,-4.51719 -1.8409,-5.77852 0,-1.26133 -1.35,-4.96766 -3,-8.23629 -1.65,-3.26863 -3,-6.67749 -3,-7.57525 0,-3.39225 -7.6913,-16.07749 -12.9886,-21.42212 -4.6037,-4.64474 -28.715,-20.54755 -40.7969,-26.90783 -3.1109,-1.63769 -16.3356,-4.94085 -15.991,-3.99412 0.4284,1.17706 27.7621,31.74945 42.5265,47.56537 12.2533,13.12593 14.6825,16.33395 12.3684,16.33395 -1.0301,0 -25.7042,-26.53916 -46.0213,-49.5 -17.1188,-19.34627 -21.53,-21.83271 -27.5624,-15.53616 -2.5129,2.6229 -2.6783,3.16684 -1.4371,4.72846 3.5947,4.52297 110.1289,122.3077 110.6251,122.3077 0.3104,0 0.257,-4.1625 -0.1186,-9.25 z m -47.2383,-2.25 c 11.3085,-5.5 20.5774,-10.34484 20.5976,-10.76631 0.039,-0.82307 -52.1364,-58.8981 -52.5418,-58.48246 -0.1776,0.18205 9.0533,77.44881 9.5075,79.5821 0.1094,0.51431 0.5525,0.31028 22.4367,-10.33333 z m -126.1105,-70.52275 c 1.8864,-0.89216 3.0774,-2.49891 3.7763,-5.09473 1.2994,-4.82526 5.5229,-9.88252 8.2535,-9.88252 1.9229,0 1.8276,0.28853 -1.0889,3.29761 -2.8974,2.98938 -4.1339,5.70239 -2.5989,5.70239 0.3284,0 2.5923,-2.21901 5.0307,-4.93113 2.4384,-2.71212 7.4572,-6.59517 11.1528,-8.62899 12.2835,-6.76013 25.9456,-16.34123 30.3596,-21.29096 6.5937,-7.39394 10.8033,-15.13552 14.656,-26.95249 2.7363,-8.39255 4.226,-11.39644 6.9167,-13.94643 3.592,-3.40418 7.2869,-4.29834 7.2869,-1.76342 0,0.81762 -1.5485,2.13358 -3.4411,2.92436 -2.812,1.17493 -3.6418,2.22858 -4.5388,5.76342 -0.6038,2.3791 -2.3416,8.27636 -3.8618,13.10503 l -2.7639,8.77939 5.5528,1.54459 c 3.054,0.84953 7.5778,2.15616 10.0528,2.90364 2.475,0.74748 8.1,2.31595 12.5,3.48551 14.4765,3.84797 47.1748,25.88204 53.3841,35.97346 1.7137,2.78524 3.1159,5.48075 3.1159,5.99003 0,2.87855 2.374,1.10832 7.8686,-5.86749 3.3965,-4.31199 8.6405,-10.17137 11.6534,-13.02086 3.0129,-2.84949 5.478,-5.32193 5.478,-5.49431 0,-0.30027 -6.0108,-1.93188 -10.76,-2.92075 -1.2429,-0.25882 -5.0205,0.17342 -8.3945,0.96053 -6.1823,1.44222 -7.5544,1.34295 -6.4366,-0.46566 1.6722,-2.70571 16.7825,-3.94315 25.4504,-2.08423 4.8351,1.03694 5.0723,0.97574 9.5923,-2.47442 2.549,-1.94572 5.3933,-3.96228 6.3207,-4.48126 1.566,-0.87641 1.5546,-1.08892 -0.1614,-2.98499 -2.0973,-2.31753 -3.6687,-11.89435 -1.7578,-10.71338 0.6308,0.38986 1.1486,1.69479 1.1507,2.89983 0,1.20504 0.8801,3.62827 1.9512,5.38495 l 1.9475,3.19398 10.9962,-5.19398 c 7.2216,-3.41106 11.2223,-5.8805 11.6548,-7.19397 0.5886,-1.7877 0.7081,-1.81424 1.1258,-0.25 0.5147,1.92709 0.7842,2.00041 4.094,1.11362 2.1441,-0.57444 2.1725,-0.6911 0.5,-2.05224 -1.5594,-1.26908 -0.3504,-1.36966 10.0214,-0.83383 l 11.7946,0.60935 -0.2001,-2.29345 c -0.4012,-4.59528 0.1348,-8.79345 1.1226,-8.79345 0.606,0 0.7785,1.50419 0.4301,3.75 -0.7499,4.8343 0.8643,6.90797 6.3081,8.10381 2.3375,0.51348 4.25,0.77046 4.25,0.57108 0,-0.19939 -1.9606,-3.41406 -4.3569,-7.14371 -7.6258,-11.86894 -13.8159,-23.20919 -15.3212,-28.06869 -0.8029,-2.59187 -1.8332,-10.15364 -2.2896,-16.80393 -0.8837,-12.876 -1.5717,-14.96001 -8.5305,-25.83835 -3.1396,-4.90794 -3.674,-5.29883 -7.0948,-5.18899 -2.2524,0.0723 -3.8793,-0.39681 -4.1593,-1.19941 -0.2883,-0.82645 0.1939,-1.1995 1.2925,-1 0.9638,0.175 1.8958,-0.13181 2.0712,-0.68181 0.5235,-1.64204 -14.2516,-9.48895 -19.1247,-10.15687 -2.4677,-0.33824 -4.4867,-1.00381 -4.4867,-1.47905 0,-1.56291 7.8295,-0.90212 12.8749,1.08661 4.3483,1.71394 5.0204,1.7647 5.537,0.41822 1.0961,-2.85621 0.5959,-4.18976 -4.3391,-11.56814 -5.2313,-7.82145 -14.8037,-16.20529 -21.0728,-18.45627 -7.6419,-2.74391 -24.4931,-0.58972 -32.6136,4.16919 -2.4125,1.41384 -4.3864,2.86015 -4.3864,3.21401 0,0.35387 0.9768,1.68313 2.1706,2.95391 3.155,3.35835 1.6297,3.86264 -2.1256,0.70276 -3.5555,-2.99175 -15.6651,-6.36361 -22.9006,-6.37657 -8.3039,-0.0149 -31.8797,7.14162 -40.8541,12.40137 -5.6667,3.32118 -14.0298,11.31736 -19.689,18.82531 -3.5968,4.77166 -7.9444,7.43285 -15.8248,9.68646 -12.2352,3.49894 -24.5412,11.85574 -28.3745,19.26868 -1.6375,3.1665 -5.8456,20.70007 -5.138,21.40772 0.2596,0.25962 2.4197,0.0344 4.8002,-0.50043 2.3805,-0.53486 4.6899,-0.74891 5.132,-0.47567 1.9907,1.23032 0.3033,2.28597 -6.2023,3.88026 -8.6328,2.11556 -19.4546,7.20808 -24.2328,11.40343 -4.8538,4.2617 -9.4526,11.65942 -12.2823,19.75754 -2.336,6.68506 -2.3378,6.72681 -0.4048,9.44139 1.0678,1.49966 4.9047,4.59808 8.5264,6.88539 3.6217,2.28732 6.3668,4.37693 6.1001,4.6436 -1.0199,1.01995 -13.9949,-5.73148 -19.8399,-10.32351 -5.9503,-4.6749 -6.3299,-4.81583 -13.8961,-5.15943 -4.2783,-0.19428 -8.526,0.0649 -9.4393,0.57605 -0.9133,0.51111 -3.099,4.49436 -4.8572,8.85167 -3.88,9.61577 -11.9095,21.46919 -19.2391,28.40118 -2.9859,2.82393 -5.4289,5.49749 -5.4289,5.94124 0,1.11027 10.7683,5.84599 18.8391,8.28511 11.2748,3.40742 45.4668,4.58586 51.4162,1.77209 z m -13.597,-4.65229 c -0.3713,-0.37127 2.5548,-1.49525 6.5023,-2.49773 3.9475,-1.00248 7.377,-1.62297 7.6211,-1.37885 0.2441,0.24412 -1.0694,1.36641 -2.9189,2.49399 -3.2349,1.97217 -9.8043,2.78281 -11.2045,1.38259 z m -17.2897,-16.81747 c -6.6878,-1.4545 -12.3686,-3.99585 -12.3686,-5.53317 0,-1.3209 0.5405,-1.24929 7.8391,1.03858 8.2713,2.59278 10.9833,2.50813 18.2994,-0.5712 3.3431,-1.40706 6.3101,-2.32647 6.5934,-2.04312 1.3283,1.32827 -1.1734,3.89907 -5.9652,6.12992 -5.9803,2.78419 -6.0699,2.79028 -14.3981,0.97899 z m 46.6314,-19.99064 c 0,-0.26574 2.2655,-1.63115 5.0343,-3.03424 3.7094,-1.87969 5.9435,-3.97228 8.4887,-7.95113 4.2425,-6.63212 7.477,-14.63651 7.477,-18.5034 0,-1.59383 0.4667,-4.12545 1.0372,-5.62582 0.7898,-2.07736 1.3152,-2.4499 2.203,-1.56207 1.3211,1.32105 0.028,10.64992 -2.7736,20.00478 -1.7095,5.70912 -7.7144,13.19757 -12.6151,15.73181 -2.5834,1.33593 -8.8515,2.00163 -8.8515,0.94007 z m 84.5862,-11.42155 c -1.0184,-1.12534 -2.1337,-4.91027 -2.7258,-9.25 -0.5512,-4.03992 -1.6852,-8.40291 -2.52,-9.69554 -1.3457,-2.08368 -2.0178,-2.27526 -5.9262,-1.68917 -6.5184,0.9775 -7.3674,-0.44524 -1.4592,-2.44536 5.714,-1.93439 10.2809,-5.75633 12.0862,-10.11475 1.9442,-4.69358 0.8776,-5.62287 -6.9616,-6.06583 -7.0845,-0.4003 -10.7921,-2.19707 -9.9217,-4.80819 0.2575,-0.77273 1.2842,-0.46655 3.0238,0.90178 3.2699,2.57214 5.006,2.581 14.0609,0.0718 3.9694,-1.1 8.6888,-2 10.4873,-2 2.8724,0 3.2701,0.32294 3.2701,2.65499 0,2.54084 -0.081,2.58139 -1.8914,0.94327 -1.4947,-1.35269 -2.5959,-1.52362 -5.25,-0.81493 -3.4789,0.92891 -3.7637,1.87887 -2.365,7.88897 0.5386,2.31446 4.8147,4.21642 10.3562,4.60632 1.7304,0.12176 3.1471,0.55888 3.1482,0.97138 0,1.21628 -9.19,0.77225 -13.1255,-0.63395 -3.5361,-1.26348 -3.6937,-1.21327 -6.25,1.99046 -3.1448,3.9412 -3.1426,3.91676 -0.6225,7.12062 1.5188,1.93087 2,4.05678 2,8.8363 0,6.42227 1.4602,9.43657 4.5714,9.43657 0.7857,0 1.4286,0.9 1.4286,2 0,2.58909 -3.1074,2.64379 -5.4138,0.0953 z m 72.9138,0.94521 c -1.1,-0.45799 -3.3063,-2.21346 -4.903,-3.90105 -1.5967,-1.68759 -3.3537,-2.78982 -3.9045,-2.44939 -0.5659,0.34973 -0.6911,0.11678 -0.288,-0.53556 1.1947,-1.93308 3.6595,-1.30552 7.2483,1.84549 3.9589,3.47596 6.3104,3.67445 11.8472,1 4.6726,-2.25702 6.1172,-2.42849 7.0974,-0.84248 0.4894,0.79196 0.039,0.98066 -1.4262,0.5975 -1.4493,-0.379 -3.3222,0.37822 -5.7939,2.34248 -3.7044,2.94389 -6.264,3.44741 -9.8773,1.94301 z m 47.7653,-4.87656 c -0.6266,-0.38724 -2.0955,-2.94505 -3.2642,-5.68402 -1.1688,-2.73896 -3.5289,-6.43569 -5.2447,-8.21495 -1.7158,-1.77926 -2.7681,-3.57926 -2.3383,-4 1.1351,-1.11133 8.5819,7.61713 8.5819,10.05891 0,1.13667 1.1619,3.27943 2.582,4.7617 2.4198,2.52567 2.2027,4.63544 -0.3167,3.07836 z m -101.3527,-2.16999 -2.4126,-2.09001 3.5,0.79803 c 1.925,0.43891 6.097,0.7695 9.2711,0.73464 8.0765,-0.0887 6.8101,1.98528 -1.4382,2.35536 -5.4263,0.24347 -6.9085,-0.0553 -8.9203,-1.79802 z m 27.2245,0.27944 c -3.4876,-1.83912 -7.0728,-6.671 -5.8541,-7.88971 0.3834,-0.38344 1.7883,0.48017 3.1219,1.91913 2.9339,3.16578 5.9119,4.00669 12.5584,3.54621 3.4076,-0.23608 5.0378,0.0337 5.0373,0.83358 0,2.71978 -10.5763,3.85157 -14.8635,1.59079 z m 93.8629,-0.62418 c 0,-4.12049 -2.0221,-8.33828 -4.5498,-9.48995 -3.9412,-1.79573 -3.0285,-4.0859 1.0106,-2.53594 3.5152,1.34891 7.6285,14.37667 4.5392,14.37667 -0.55,0 -1,-1.05785 -1,-2.35078 z m -53,-2.6844 c 0,-2.87799 3.5205,-5.97422 8.4086,-7.39523 5.1329,-1.49217 8.5914,-4.06784 8.5914,-6.39833 0,-0.64419 0.45,-1.17126 1,-1.17126 2.1517,0 0.9011,5.25278 -1.9231,8.07692 -2.2574,2.25747 -3.8349,2.92308 -6.9274,2.92308 -3.0802,0 -4.4581,0.57694 -5.9708,2.5 -2.0895,2.65635 -3.1787,3.15827 -3.1787,1.46482 z m -53,-10.25604 c 6.2339,-3.05982 7.0165,-5.82434 6.2898,-22.21728 -0.5011,-11.30399 -0.3613,-13.18722 1.0668,-14.37245 1.4394,-1.19463 1.6434,-1.09231 1.6434,0.82425 0,1.2035 -0.4513,3.03151 -1.003,4.06225 -0.7051,1.31759 -0.552,3.59932 0.5157,7.68426 2.8756,11.0018 2.9879,15.64723 0.486,20.09875 -2.4972,4.4431 -5.4824,6.23216 -10.2957,6.17022 l -3.203,-0.0412 4.5,-2.20878 z m 23.4676,-3.67808 c 4.6848,-3.08806 6.4857,-6.09805 6.5102,-10.8807 0.018,-3.59811 0.6099,-4.93768 3.4222,-7.75 2.888,-2.88799 4.0976,-3.4 8.0321,-3.4 6.7901,0 11.3521,-2.23921 13.1039,-6.43189 2.1507,-5.14743 1.8157,-8.85673 -1.562,-17.29214 -1.6644,-4.15646 -2.8327,-7.75055 -2.5964,-7.98686 0.8232,-0.8232 6.4089,8.2779 7.5061,12.23015 1.2482,4.49608 1.4641,14.40172 0.351,16.1049 -1.8316,2.80252 -7.9104,5.36863 -12.7347,5.37584 -7.6183,0.0114 -11.061,2.56821 -12.4469,9.24425 -1.4076,6.78025 -6.0386,12.75861 -9.8759,12.74916 l -2.6772,-0.007 2.9676,-1.95612 z m 72.2708,-0.43123 c -1.3008,-0.98725 -2.965,-1.11211 -6.3625,-0.47738 -2.5305,0.47275 -5.7878,0.59685 -7.2384,0.27578 -9.2517,-2.04768 -8.1001,-2.95569 3.7084,-2.92416 6.8421,0.0183 10.3505,0.445 11.5,1.39873 3.1537,2.61672 1.668,4.21291 -1.6075,1.72703 z m -25.5545,-4.34947 c -0.5824,-1.5125 -1.3561,-4.325 -1.7194,-6.25 -0.3633,-1.925 -1.7811,-5.44783 -3.1507,-7.82851 -1.3696,-2.38067 -2.2802,-4.53837 -2.0237,-4.79487 1.1953,-1.19538 6.6762,5.9878 7.1816,9.41229 0.3013,2.0411 1.1626,5.62359 1.9141,7.96109 1.0768,3.3493 1.1004,4.25 0.1116,4.25 -0.6901,0 -1.7312,-1.2375 -2.3135,-2.75 z m 23.9021,-6.28856 c -0.047,-2.49621 -0.9388,-6.21131 -1.9811,-8.25578 -1.24,-2.43216 -1.5333,-3.9409 -0.8483,-4.36422 2.7935,-1.72648 5.6073,8.59799 3.8587,14.15856 -0.9021,2.86863 -0.9471,2.80126 -1.0293,-1.53856 z m -109.6314,-3.41599 c -3.4097,-3.4097 -3.0785,-5.06658 0.4861,-2.43121 2.5924,1.9167 3.7172,2.09455 9.5,1.50209 7.8449,-0.80374 8.8495,0.72679 1.5101,2.30081 -7.2528,1.55544 -8.7474,1.37711 -11.4962,-1.37169 z m -80.4546,-7.37114 c 0,-1.60523 4.6047,-4.92398 13.3851,-9.64697 7.0622,-3.79883 10.1569,-4.88142 15.0847,-5.27698 6.1858,-0.49653 10.5302,0.69993 10.5302,2.90005 0,0.72097 -1.7639,0.85965 -5.3058,0.41712 -6.0532,-0.7563 -8.905,0.22887 -22.5659,7.79547 -8.1122,4.49328 -11.1283,5.52625 -11.1283,3.81131 z m 69.9648,-5.71669 c -1.8198,-2.1928 0.2957,-4.31625 2.4877,-2.49703 1.2641,1.04909 2.4713,0.9005 6.7924,-0.83609 6.9619,-2.79787 11.3446,-3.59772 12.1929,-2.22524 0.4326,0.69996 -0.3425,1.10737 -2.1288,1.11894 -1.5449,0.01 -4.7892,1.36001 -7.2095,3 -4.8577,3.29166 -10.083,3.91149 -12.1347,1.43942 z m 109.2666,-1.14439 c -1.9255,-1.34266 -3.1227,-1.41034 -7.9168,-0.44755 -3.1065,0.62388 -6.4936,1.13432 -7.5268,1.13432 -2.3754,0 -6.7878,-4.34042 -6.7878,-6.67705 0,-1.47381 0.2668,-1.38704 1.6036,0.52151 1.5317,2.18676 1.9933,2.25899 10.2896,1.60999 8.427,-0.65924 8.781,-0.59947 11.8759,2.0047 1.7545,1.4763 3.6492,2.40038 4.2104,2.0535 0.5613,-0.34688 1.0205,-0.15413 1.0205,0.42833 0,1.57174 -4.1687,1.18511 -6.7686,-0.62775 z m -137.0352,-7.41042 c 0.3256,-0.98272 3.0004,-1.59806 8.9319,-2.05483 4.6569,-0.3586 10.106,-1.33679 12.1091,-2.17374 5.1902,-2.16857 12.2353,-9.00863 17.2278,-16.72621 2.3633,-3.65325 5.5879,-7.55959 7.1659,-8.68075 3.9325,-2.79401 13.5584,-6.74332 21.369,-8.76726 6.8441,-1.77348 7.96,-2.63866 7.9848,-6.191 0.01,-1.20504 0.4653,-2.4691 1.0153,-2.80902 1.7746,-1.09675 1.1167,7.13773 -0.75,9.38797 -1.1178,1.34743 -4.6335,2.83915 -9.7316,4.12912 -11.3001,2.85924 -17.4427,6.9126 -25.1031,16.56509 -11.3943,14.35738 -16.5203,17.39196 -30.6983,18.17321 -8.2926,0.45695 -9.9067,0.3124 -9.5208,-0.85258 z m 61.8038,-2.62608 c 0,-4.38965 3.6922,-8.33894 13.3159,-14.24297 10.0781,-6.18279 11.0397,-6.9374 12.6201,-9.90371 1.0925,-2.05038 0.9707,-2.76501 -0.9033,-5.29978 -1.1914,-1.6114 -1.9975,-3.43573 -1.7914,-4.05406 0.2061,-0.61832 1.4152,0.33701 2.6869,2.12296 1.899,2.66693 2.2263,4.14088 1.8316,8.2485 -0.7117,7.40696 -3.1491,10.03741 -10.7211,11.56996 -8.3767,1.69541 -12.609,4.4201 -14.0959,9.07462 -1.6506,5.16727 -2.9428,6.25819 -2.9428,2.48448 z m 77.6292,-3.38092 c -0.4138,-2.06881 -2.3419,-4.78634 -5.3657,-7.5625 -5.1023,-4.68442 -3.7455,-6.29271 1.5497,-1.83703 3.3635,2.83022 6.791,10.29951 5.3757,11.71485 -0.5518,0.55183 -1.1697,-0.36542 -1.5597,-2.31532 z m -15.0557,-16.46574 c -1.3682,-1.00042 -3.4238,-1.23007 -7.121,-0.79554 -6.5914,0.7747 -14.0634,-1.57516 -17.9681,-5.65083 -3.9109,-4.08205 -2.453,-4.84802 2.1993,-1.15554 3.3994,2.698 4.8224,3.10511 13.0251,3.72615 7.1446,0.54093 9.5903,1.11872 10.9106,2.57758 2.1411,2.36587 1.5009,3.16045 -1.0459,1.29818 z m -17.7917,-17.98165 c -0.3034,-0.30338 -4.9187,-0.64088 -10.2561,-0.75 -8.8693,-0.18134 -9.869,-0.4016 -11.6151,-2.5592 -3.1559,-3.8995 -2.4016,-5.7302 1.1348,-2.7545 2.7268,2.29443 3.8577,2.55198 10.8103,2.46198 7.2772,-0.0942 12.1443,1.26596 12.1443,3.39385 0,0.88151 -1.4122,1.01385 -2.2182,0.20787 z M 343.89324,599.3398 c 11.7722,-2.68304 25.7876,-12.21095 35.026,-23.81124 9.7649,-12.26133 14.9804,-25.52154 14.9642,-38.04575 -0.033,-25.44646 -23.0119,-32.88598 -48.6774,-15.75943 -17.9586,11.98378 -31.31279,34.47895 -31.31279,52.7467 0,11.04014 3.88921,18.71639 11.49349,22.68512 6.3831,3.33136 11.0552,3.88287 18.5065,2.1846 z m -23.3697,-13.17549 c -5.19569,-19.38765 19.4259,-56.74406 43.4053,-65.85552 5.603,-2.12897 17.9644,-2.65652 17.9644,-0.76667 0,0.74797 -1.2939,0.92091 -3.8417,0.51349 -22.5119,-3.59979 -58.00671,35.74249 -55.90209,61.96159 0.50209,6.2551 -0.42636,8.62325 -1.62591,4.14711 z m -1.33092,-43.28534 c 2.08965,-3.57337 6.56372,-9.45217 9.94242,-13.064 4.8952,-5.23295 5.9371,-6.89347 5.1292,-8.17429 -0.5576,-0.88403 -1.4544,-1.75417 -1.9928,-1.93364 -2.0001,-0.66671 -9.56371,7.13181 -12.4365,12.82278 -2.96187,5.86743 -4.94169,7.50213 -4.94169,4.08027 0,-2.87184 5.23512,-10.35254 10.46889,-14.95952 2.647,-2.32994 5.1993,-4.23626 5.6719,-4.23626 0.4726,0 0.8592,-0.50937 0.8592,-1.13192 0,-1.46961 -6.7809,-7.86808 -8.33837,-7.86808 -3.02416,0 -11.47623,9.2043 -16.20291,17.64497 -4.31681,7.70876 -4.99959,8.49986 -5.27453,6.11129 -0.45935,-3.99075 4.03193,-11.53068 12.05495,-20.23775 4.22113,-4.58101 6.74471,-8.11824 6.41144,-8.98672 -0.30227,-0.78771 -2.25346,-2.30634 -4.33596,-3.37473 l -3.78638,-1.94253 -4.41921,3.14274 c -2.43056,1.7285 -6.76477,6.30063 -9.63158,10.16029 -5.73075,7.71547 -8.1707,10.12251 -9.2087,9.08452 -1.04383,-1.04384 1.51499,-4.69477 10.62244,-15.15614 7.81103,-8.97221 8.21222,-9.65191 6.46818,-10.95843 -7.47102,-5.59679 -14.21397,-0.79557 -21.78608,15.51249 -4.09448,8.81829 -3.61502,11.48094 3.17672,17.64153 3.1625,2.86861 6.65,6.14396 7.75,7.27854 1.1,1.13459 3.89806,4.03755 6.21792,6.45103 3.48055,3.62102 11.28899,8.68217 13.28208,8.60896 0.275,-0.0101 2.20971,-2.94204 4.29937,-6.5154 z m -37.36614,-3.18069 c 4.08828,-2.08118 7.59056,-4.27833 7.78286,-4.88255 0.1923,-0.60422 -1.21618,-2.17149 -3.12994,-3.48283 -5.35398,-3.6686 -7.96401,-9.08031 -7.25729,-15.04747 1.061,-8.95851 11.63107,-25.8913 17.00411,-27.23984 1.30397,-0.32728 4.78275,0.0306 7.73064,0.79526 4.59418,1.19172 5.64701,1.18913 7.37059,-0.0181 1.10595,-0.77465 4.20833,-1.40844 6.89419,-1.40844 l 4.88338,0 -0.35589,-7.77728 c -1.79428,-39.21102 -54.33225,-27.89444 -74.93928,16.14179 -3.80003,8.12048 -6.25639,19.74915 -5.41505,25.63549 2.83981,19.86861 19.77359,27.29114 39.43168,17.28397 z m -31.71463,-6.03397 c -1.46849,-3.57614 -0.63478,-14.75411 1.58898,-21.30419 2.94187,-8.66528 12.87218,-23.86211 20.41629,-31.24402 7.21681,-7.06163 16.07587,-12.97632 22.76265,-15.19731 5.15189,-1.71119 15.12204,-1.71403 15.68639,-0.004 0.20194,0.61172 -1.79391,0.8677 -5.14017,0.65926 -7.2728,-0.45302 -13.76257,1.81787 -22.27075,7.79293 -13.54491,9.51222 -25.71565,26.08194 -30.42124,41.41667 -1.62794,5.30519 -1.97212,8.32151 -1.51189,13.25 0.59701,6.39329 0.23442,7.90575 -1.11026,4.63114 z m 209.68789,-41.5627 c 1.1153,-3.29622 1.0735,-4.05193 -0.3082,-5.57874 -1.7379,-1.92033 -2.1218,-4.10856 -0.7207,-4.10856 0.4826,0 1.4446,0.68324 2.1376,1.51831 1.0867,1.3094 1.9867,0.71537 6.541,-4.31724 5.6715,-6.26727 13.1525,-10.78407 22.7256,-13.72102 6.2882,-1.92918 7.8603,-3.19043 5.0316,-4.03669 -0.9974,-0.29838 -3.4643,-1.41261 -5.4822,-2.47606 -3.633,-1.91468 -3.7781,-1.91388 -14.8624,0.082 -12.4246,2.23723 -15.2452,3.39873 -21.1009,8.68903 -5.0825,4.59166 -7.6595,9.63697 -8.4775,16.59739 -1.1269,9.58789 0.058,13.64611 5.8971,20.1974 l 5.2121,5.84785 1.0585,-7.4405 c 0.5821,-4.09228 1.6389,-9.15621 2.3484,-11.2532 z m 242.8766,14.19492 c 11.5795,-3.09026 16.4472,-3.34868 25.2169,-1.33875 2.2036,0.50505 3.3797,-0.53056 9.9202,-8.73524 11.1485,-13.98539 19.2115,-26.85302 25.9193,-41.36438 l 6.0351,-13.05614 -1.2036,-6.94386 c -0.662,-3.81912 -2.0289,-8.17119 -3.0376,-9.67128 -3.6803,-5.47358 -4.0178,-13.9375 -0.7718,-19.35356 0.905,-1.51002 1.0238,-0.32055 0.5576,5.58099 -0.4445,5.62682 -0.2419,7.96452 0.8111,9.35989 1.2725,1.68612 1.5959,1.07883 3.4616,-6.5 1.3551,-5.50442 1.6974,-8.49434 1.0022,-8.75351 -0.5807,-0.21648 -2.0938,-1.51367 -3.3625,-2.88263 -1.9367,-2.08976 -3.4717,-2.56774 -9.5692,-2.97981 -7.3004,-0.49336 -10.7624,-2.09258 -10.7624,-4.97151 0,-1.05773 0.6689,-0.89146 2.6349,0.65499 3.1492,2.47717 8.59,2.70488 10.8411,0.45373 1.4918,-1.49181 1.483,-1.76898 -0.1122,-3.5317 -2.4347,-2.69027 -11.7107,-7.84945 -14.1131,-7.84945 -2.2627,0 -3.6809,1.44018 -4.7043,4.77722 -0.9155,2.98504 1.882,8.69218 9.4844,19.3488 6.4966,9.10654 7.2664,10.95396 3.5496,8.51861 -2.4084,-1.57808 -2.4331,-1.55672 -5.3474,4.63499 -4.1266,8.76747 -10.8796,15.77832 -21.0537,21.85781 -12.4397,7.43324 -17.9217,11.58965 -20.7228,15.71184 -3.1323,4.60962 -3.1045,7.91671 0.1064,12.64828 2.8717,4.23161 2.1537,6.15009 -1.9191,5.12789 -1.9989,-0.50168 -2.8242,-1.73407 -4.0999,-6.12233 -3.0452,-10.47525 -9.7956,-15.34372 -28.4562,-20.52295 -6.2767,-1.7421 -11.9708,-3.3818 -12.6534,-3.64376 -0.8853,-0.33971 -1.2525,0.98432 -1.2807,4.61724 -0.037,4.81133 0.1721,5.23354 3.7792,7.62059 4.3705,2.89221 14.0708,15.86481 16.5963,22.1948 l 1.7033,4.26903 5.1338,-0.66117 c 7.3741,-0.94969 9.6338,-1.99006 9.6338,-4.43547 0,-1.25583 0.5054,-1.92917 1.25,-1.66554 1.9465,0.68915 1.0583,6.02824 -1.3267,7.97412 -1.4892,1.21508 -3.9024,1.75 -7.8948,1.75 l -5.7499,0 -0.6306,5.25 c -0.9074,7.55451 -0.7938,11.60908 0.3872,13.81574 1.5044,2.81101 6.9423,2.50082 20.7479,-1.18352 z m 18.0058,-7.01303 c -1.0203,-0.63079 -0.9528,-1.13299 0.3235,-2.40973 1.751,-1.75147 9.9164,-3.27898 9.8419,-1.84113 -0.077,1.48139 -8.7671,5.11542 -10.1654,4.25086 z m 5.8294,-15.6778 c -0.3025,-0.48948 0.6031,-1.50709 2.0124,-2.26135 4.4835,-2.3995 13.3186,-12.87932 16.9689,-20.12773 4.7466,-9.42557 5.6128,-7.88769 1.0129,1.7984 -4.0894,8.61102 -9.488,16.43416 -12.8639,18.64109 -3.1982,2.09069 -6.4873,2.99002 -7.1303,1.94959 z m -395.8005,21.50446 c 0.4546,-2.34354 -5.3839,-10.42011 -8.81528,-12.19455 -3.6025,-1.86293 -5.09702,-1.88389 -7.52895,-0.10563 -1.80777,1.32188 -1.72452,1.47263 1.57449,2.85105 2.98193,1.24592 5.43337,3.58242 11.07614,10.5568 1.3234,1.63575 3.275,1.05049 3.6936,-1.10767 z m 183.4573,-56.31287 c 15.0592,-14.4542 22.9536,-18.84956 39.7249,-22.1177 5.3763,-1.04765 5.3534,0.0226 0.4029,-18.77585 -2.5329,-9.61789 -15.3316,-18.69592 -30.9723,-21.96838 -14.125,-2.95535 -30.1766,2.1498 -37.6641,11.97895 -5.6554,7.42409 -7.0975,13.4809 -6.5262,27.41024 0.7376,17.98397 4.2449,25.66106 13.9281,30.48638 8.6033,4.28719 9.7191,3.9164 21.1067,-7.01364 z m -7.2751,-15.93102 c 0,-0.85142 1.5634,-3.99192 3.4741,-6.9789 1.9107,-2.98698 5.5513,-9.37787 8.0901,-14.20197 4.7751,-9.07314 9.2111,-14.27109 12.1794,-14.27109 1.1767,0 0.5398,0.96628 -2.0366,3.09 -4.3348,3.57307 -6.0458,6.55869 -8.7192,15.21417 -1.121,3.62917 -3.8628,8.84348 -6.5555,12.46708 -4.6494,6.25668 -6.4323,7.55406 -6.4323,4.68071 z m 299.6234,18.58914 c 17.5554,-6.17024 33.1656,-22.98693 40.8813,-44.0411 2.1858,-5.96459 2.7699,-9.34607 2.853,-16.51748 0.093,-7.98967 -0.218,-9.67669 -2.7251,-14.801 -8.8494,-18.08759 -32.5094,-15.98455 -53.2184,4.73038 -13.5277,13.53158 -21.4235,29.71853 -21.7497,44.5881 -0.2013,9.17748 1.5553,15.59774 5.615,20.52287 6.0516,7.34172 17.0587,9.48466 28.3439,5.51823 z m -26.2076,-9.17743 c -0.3863,-0.62498 -0.9219,-4.2056 -1.1903,-7.95693 -1.0274,-14.35807 8.2684,-34.32067 22.7745,-48.90834 10.7361,-10.79644 18.378,-15.07784 28.1623,-15.7779 4.2923,-0.30711 6.8377,-0.11032 6.8377,0.52864 0,0.55983 -2.8348,1.19838 -6.2997,1.419 -9.7129,0.61848 -16.5024,4.42117 -27.2003,15.23465 -9.9372,10.0445 -16.6779,20.8603 -20.5591,32.98792 -1.8102,5.65617 -2.1118,8.38838 -1.6837,15.25 0.527,8.44706 0.4299,9.28008 -0.8414,7.22296 z m -46.0984,-43.24051 5.6055,-2.47898 -0.5819,-4.91281 c -0.6268,-5.2923 0.7362,-9.23137 3.1942,-9.23137 1.0182,0 1.4648,-1.11003 1.4648,-3.64047 0,-5.07936 3.474,-11.4962 10.1945,-18.83044 7.2258,-7.88572 10.1621,-9.24257 15.3294,-7.08357 2.0807,0.8694 3.9408,1.42309 4.1335,1.23042 1.1352,-1.13524 2.487,-13.16103 2.0993,-18.67594 -2.0925,-29.76262 -36.3163,-30.44226 -60.8207,-1.20781 -10.5047,12.53233 -16.0266,25.52958 -16.7131,39.33846 -0.4342,8.73328 -0.2449,10.1415 2.0312,15.11328 2.6347,5.75491 7.4243,10.35998 12.9848,12.48447 4.696,1.79423 14.4681,0.81823 21.0785,-2.10524 z m -28.2196,-7.77238 c -4.9217,-14.11859 6.4186,-40.86266 24.4789,-57.72903 9.513,-8.88408 16.5726,-12.4518 25.6543,-12.96496 3.9693,-0.22428 6.769,0.0187 6.769,0.58751 0,0.53349 -2.4834,0.96999 -5.5186,0.96999 -16.7482,0 -39.4306,22.34843 -48.189,47.47945 -2.2344,6.41146 -2.4775,8.37788 -1.9843,16.05626 0.3091,4.8125 0.4103,8.75 0.2248,8.75 -0.1855,0 -0.8313,-1.41715 -1.4351,-3.14922 z m 70.3922,5.39684 c 1.6445,-3.16119 5.7831,-9.21704 9.1969,-13.45745 l 6.207,-7.70982 -6.0328,-3.66476 c -4.2185,-2.56257 -6.9402,-5.1393 -9.0496,-8.56757 -6.1582,-10.00826 -11.6507,-9.94179 -21.2721,0.25743 -7.308,7.74681 -9.9287,12.09264 -9.0196,14.95695 0.6308,1.98748 7.056,6.9376 9.0049,6.9376 0.5833,0 1.6309,-2.1375 2.328,-4.75 1.4407,-5.39916 6.3693,-13.59167 9.4931,-15.77963 4.4884,-3.14378 4.5962,-1.227 0.2127,3.77963 -4.0949,4.67696 -8.5585,13.60216 -8.5585,17.1132 0,0.70849 1.1006,2.32216 2.4459,3.58593 1.3452,1.26376 2.5827,3.7047 2.75,5.42431 0.2843,2.9233 0.4604,2.73649 2.7082,-2.87344 3.204,-7.99635 8.7891,-17.26542 11.1715,-18.54047 3.0509,-1.63278 2.3836,0.37383 -2.6331,7.91826 -2.5066,3.7696 -5.2093,9.01979 -6.006,11.6671 -1.3833,4.59618 -1.3503,4.91798 0.7318,7.1342 1.1992,1.2765 2.4394,2.31984 2.756,2.31853 0.3167,-10e-4 1.9212,-2.5888 3.5657,-5.75 z"
       id="path3265"
       inkscape:connector-curvature="0" />
  </g>
</svg>
