<?xml version="1.0" encoding="UTF-8" standalone="no"?>
<!-- Created with Inkscape (http://www.inkscape.org/) -->

<svg
   xmlns:dc="http://purl.org/dc/elements/1.1/"
   xmlns:cc="http://creativecommons.org/ns#"
   xmlns:rdf="http://www.w3.org/1999/02/22-rdf-syntax-ns#"
   xmlns:svg="http://www.w3.org/2000/svg"
   xmlns="http://www.w3.org/2000/svg"
   xmlns:sodipodi="http://sodipodi.sourceforge.net/DTD/sodipodi-0.dtd"
   xmlns:inkscape="http://www.inkscape.org/namespaces/inkscape"
   width="595.60138"
   height="898.68768"
   id="svg2"
   version="1.1"
   inkscape:version="0.48.3.1 r9886"
   sodipodi:docname="Incline-press-1.svg">
  <defs
     id="defs4" />
  <sodipodi:namedview
     id="base"
     pagecolor="#ffffff"
     bordercolor="#666666"
     borderopacity="1.0"
     inkscape:pageopacity="0.0"
     inkscape:pageshadow="2"
     inkscape:zoom="0.98994949"
     inkscape:cx="275.30564"
     inkscape:cy="459.65437"
     inkscape:document-units="px"
     inkscape:current-layer="layer1"
     showgrid="false"
     fit-margin-top="0"
     fit-margin-left="0"
     fit-margin-right="0"
     fit-margin-bottom="0"
     inkscape:window-width="1855"
     inkscape:window-height="1056"
     inkscape:window-x="65"
     inkscape:window-y="24"
     inkscape:window-maximized="1" />
  <metadata
     id="metadata7">
    <rdf:RDF>
      <cc:Work
         rdf:about="">
        <dc:format>image/svg+xml</dc:format>
        <dc:type
           rdf:resource="http://purl.org/dc/dcmitype/StillImage" />
        <dc:title></dc:title>
      </cc:Work>
    </rdf:RDF>
  </metadata>
  <g
     inkscape:label="Ebene 1"
     inkscape:groupmode="layer"
     id="layer1"
     transform="translate(-134.67741,-99.684901)">
    <path
       style="fill:#000000"
       d="m 508.0167,997.86711 c -2.64698,-0.44443 -6.02198,-1.62168 -7.5,-2.61612 -1.47801,-0.99444 -6.40841,-2.36046 -10.95643,-3.0356 -4.54803,-0.67514 -10.17303,-2.08012 -12.5,-3.12217 -5.79548,-2.5953 -14.63972,-10.11249 -18.69541,-15.89024 -11.27024,-16.05561 -16.45725,-20.70583 -34.06803,-30.54242 -12.84987,-7.17735 -15.3508,-9.89506 -16.27327,-17.68386 -0.78505,-6.62857 0.4423,-9.94637 10.76827,-29.10892 12.30887,-22.84236 12.24694,-22.49681 11.64225,-64.95658 -0.21363,-15.00054 0.13557,-23.29698 1.30168,-30.92614 0.8765,-5.73437 1.59364,-10.54896 1.59364,-10.69909 0,-0.15013 -26.35898,-20.79151 -58.57551,-45.86973 l -58.57551,-45.59677 -38.39824,19.54587 c -21.11903,10.75022 -38.89589,19.54586 -39.50413,19.54586 -0.60824,0 -5.36013,-3.7125 -10.55974,-8.25 l -9.45384,-8.25 0.63281,-15 c 0.34805,-8.25 0.70877,-15.08315 0.8016,-15.18478 0.0928,-0.10163 15.46063,-7.34379 34.15067,-16.09369 18.69004,-8.7499 35.5798,-16.76675 37.53281,-17.81522 l 3.55091,-1.90631 -6.72641,-78.5 c -3.69952,-43.175 -6.75993,-78.5739 -6.80091,-78.66423 -0.041,-0.0903 -2.23147,-1.49141 -4.86776,-3.11354 -10.71219,-6.59128 -19.00595,-17.06897 -32.27354,-40.77189 -5.87153,-10.48965 -10.37414,-16.58076 -25.74784,-34.83156 -10.24756,-12.16533 -19.43145,-23.67643 -20.40865,-25.58022 -2.15966,-4.20749 -2.30936,-12.10787 -0.30294,-15.98785 1.96544,-3.80076 9.0822,-9.79428 12.52863,-10.55124 2.71791,-0.59695 2.78058,-0.77728 3.4711,-9.98759 0.82096,-10.94997 0.40889,-12.73269 -4.10619,-17.76476 -2.17805,-2.42743 -3.4321,-4.8997 -3.55075,-7 -0.10088,-1.78592 -0.2754,-5.27212 -0.38781,-7.74712 -0.11241,-2.475 -0.68815,-10.35 -1.27942,-17.5 -0.59127,-7.15 -1.09169,-21.325 -1.11204,-31.5 l -0.037,-18.5 -8.56513,0.35528 c -7.94426,0.32954 -9.02619,0.12831 -14.92562,-2.77597 -8.38685,-4.12883 -18.76366,-15.1519 -24.32317,-25.83798 -6.23035,-11.97552 -9.24755,-23.50808 -9.87406,-37.74133 -0.80679,-18.32889 2.71034,-30.12309 12.00025,-40.24116 5.63673,-6.13922 10.47073,-8.21193 19.18744,-8.22711 11.35427,-0.0198 21.04087,5.46142 30.1565,17.06416 4.39705,5.59675 4.76008,5.83708 6.47407,4.28594 1.53493,-1.38909 3.32812,-1.54531 11.59262,-1.00996 9.17566,0.59437 9.93883,0.4948 12.4118,-1.61928 1.65636,-1.41598 3.26891,-4.4698 4.34186,-8.22249 2.3162,-8.10106 4.89379,-12.89201 9.79924,-18.2138 6.02964,-6.54138 10.72492,-8.63126 19.41421,-8.64131 10.29811,-0.0119 17.77647,3.824 27.26674,13.98609 3.90835,4.18502 7.25049,7.43583 7.42699,7.22402 0.1765,-0.2118 0.85766,-2.57775 1.5137,-5.25766 2.58783,-10.57131 9.78892,-20.81367 17.53406,-24.9393 3.21211,-1.71101 5.7517,-2.16241 12.06821,-2.14507 7.15812,0.0197 8.66214,0.37758 14.292,3.40116 6.23402,3.34805 15.30631,12.02788 18.86044,18.04454 1.51349,2.56214 2.38456,3.01123 5.84066,3.01123 2.23404,0 5.0117,0.66527 6.17258,1.47839 1.92854,1.3508 2.80732,1.16509 10.18317,-2.15203 l 8.07248,-3.63042 1.07182,-5.16296 c 2.24967,-10.83658 9.21866,-22.02863 16.53047,-26.54758 7.03355,-4.346968 19.177,-4.27292 28.07548,0.1712 2.49764,1.24737 7.83873,5.71949 11.86911,9.93804 22.41323,23.45967 28.18442,65.39501 12.25912,89.07876 -5.90924,8.78809 -11.63448,12.18205 -21.37994,12.67417 -4.04107,0.20407 -7.34739,0.75479 -7.34739,1.22383 0,0.46904 3.5643,9.08235 7.92068,19.1407 9.05972,20.91782 11.07932,29.24588 11.07932,45.68693 0,8.61565 0.37696,11.41747 1.95167,14.50617 1.07342,2.10545 1.76775,5.0131 1.54295,6.46145 -0.22479,1.44834 -0.90943,5.5671 -1.5214,9.1528 -0.99971,5.85752 -0.84645,7.67548 1.50943,17.90522 4.56252,19.81142 5.16126,40.99113 1.4358,50.78983 -1.20521,3.16994 -10.02084,18.03055 -14.25829,24.03539 -1.76806,2.50549 -3.52635,6.80871 -4.28373,10.48394 -1.26864,6.15622 -1.2486,6.29043 1.60547,10.75011 4.78137,7.47123 5.37822,9.86845 5.48146,22.01606 0.0867,10.20758 0.39467,12.14081 2.73988,17.20198 2.42348,5.23007 20.1144,30.11448 21.63871,30.43744 0.36193,0.0767 3.2678,0.67644 6.4575,1.33279 4.37557,0.90036 6.65815,2.05206 9.29694,4.69085 4.47759,4.47759 12.40361,15.34967 12.40361,17.01397 0,2.28514 4.5022,4.30221 11.069,4.95914 7.62302,0.76258 11.60609,2.55662 13.1373,5.91726 1.30399,2.86196 4.85558,3.97832 15.7937,4.96439 12.3598,1.11423 22.85184,3.67252 58,14.14221 15.21302,4.53155 29,13.07554 29,17.97172 0,0.84253 2.47291,2.5558 5.75,3.98369 9.30529,4.05449 25.16806,12.30185 32.18642,16.73435 7.97552,5.037 20.01742,15.90637 27.39479,24.72736 3.73089,4.46096 8.7066,8.70465 15.46458,13.18947 5.48011,3.63678 10.86594,7.75918 11.96853,9.16089 4.03223,5.12615 5.38092,23.79989 2.30351,31.89409 -0.51134,1.34492 -4.89829,5.68674 -9.74877,9.64848 -7.30379,5.96555 -9.24899,8.17624 -11.32129,12.86655 -8.47703,19.1863 -18.11655,33.08961 -28.3499,40.8897 -15.24861,11.62283 -22.64787,19.43446 -22.64787,23.91003 0,1.04517 1.86586,4.14205 4.14635,6.88197 2.2805,2.73992 5.7332,8.35667 7.67268,12.48167 5.19119,11.04095 10.43132,16.72616 19.81684,21.5 14.09314,7.16831 21.69569,17.08736 18.48978,24.12358 -0.61911,1.35879 -1.12565,4.02054 -1.12565,5.915 0,2.41295 -0.62057,3.82135 -2.07222,4.70295 -1.13973,0.69216 -2.69853,2.73717 -3.46401,4.54446 -1.96778,4.64589 -6.93414,6.54199 -17.09075,6.52507 -12.17849,-0.0203 -17.12831,-2.97887 -27.21885,-16.26912 -1.29021,-1.69933 -3.63566,-3.75669 -5.21212,-4.57191 -2.70771,-1.40021 -3.10352,-1.32006 -7.15417,1.4488 -2.35833,1.61206 -36.46288,21.0116 -75.78788,43.11009 -39.325,22.0985 -73.40735,41.27323 -75.73855,42.61052 l -4.23854,2.43144 3.14819,5.71456 c 15.28318,27.74183 24.09049,37.71379 40.8289,46.22795 9.07034,4.61372 13,10.02571 13,17.90383 0,4.32674 -3.56177,10.3747 -6.43584,10.9282 -1.02603,0.19759 -2.9355,1.63088 -4.24327,3.18507 -4.17321,4.95957 -15.6228,7.60624 -25.63359,5.92542 z m 17.98202,-7.89286 c 4.61146,-2.09377 6.77038,-5.10232 5.81698,-8.10622 -0.94959,-2.99189 -5.36714,-7.84385 -8.72032,-9.57785 -2.07711,-1.07411 -2.67635,-1.86861 -1.9541,-2.59086 1.79951,-1.79951 6.14222,0.11335 10.77501,4.74613 5.12232,5.12233 6.41311,5.50475 6.41311,1.90001 0,-5.43062 -2.04725,-7.56441 -12.5,-13.02836 -14.79728,-7.73495 -26.20617,-18.47851 -35.07631,-33.03075 -5.8145,-9.53919 -18.26819,-35.50747 -19.36283,-40.37515 -3.538,-15.73275 0.56158,-33.1845 15.50401,-66 4.92454,-10.81491 9.75508,-22.92395 16.90357,-42.37329 1.04144,-2.83353 4.18821,-7.51836 7.51809,-11.19275 7.0287,-7.75589 13.02408,-20.69067 14.10641,-30.43396 0.66022,-5.94341 0.44036,-7.18504 -2.56748,-14.5 -4.12726,-10.03734 -8.95786,-25.09522 -11.11979,-34.66245 -1.79734,-7.9538 -5.44095,-15.90393 -14.24903,-31.09054 -7.01539,-12.0957 -9.63594,-13.74701 -21.81581,-13.74701 -16.78762,0 -31.27372,8.80631 -43.19971,26.26172 -5.69354,8.33332 -5.76681,9.35306 -1.35493,18.85726 2.13978,4.60956 6.1211,11.08102 8.84738,14.38102 16.24698,19.66597 26.36643,38.326 26.36643,48.61906 0,4.39609 -1.57755,5.12226 -3,1.38094 -2.18188,-5.73879 -4.35682,-3.06104 -16.07136,19.78681 -3.32383,6.48274 -6.70982,13.67583 -7.52442,15.98465 -3.00263,8.51036 -4.54601,28.97042 -4.27926,56.72854 0.22413,23.32271 0.0406,27.09949 -1.5307,31.5 -2.6515,7.42564 -7.18129,16.12637 -12.5026,24.01473 -7.58603,11.24561 -8.92186,18.07312 -5.0863,25.99634 1.80136,3.72111 3.38802,4.89177 15.59741,11.50791 14.26117,7.72798 14.25626,7.72366 26.52108,23.30592 6.30364,8.00868 17.52552,18.40818 22.81607,21.14403 1.87514,0.96967 5.67132,1.53107 10.35314,1.53107 5.94688,0 8.25417,0.47432 11.79966,2.4257 5.74732,3.16324 16.35393,3.46267 22.5766,0.63735 z m -11.8928,-9.5627 c -5.08678,-2.88798 -5.53358,-3.50035 -2.55397,-3.50035 2.83098,0 7.28327,3.09173 6.6694,4.63132 -0.2172,0.54474 -2.05206,0.0405 -4.11543,-1.13097 z m -79.7656,-56.09022 c -7.68711,-4.39364 -7.73539,-5.54727 -0.76092,-18.18121 5.7955,-10.4983 7.56917,-10.2146 2.88991,0.46223 -4.72914,10.79062 -4.74624,11.2405 -0.61088,16.07173 1.99475,2.33042 3.47925,4.2317 3.29889,4.22507 -0.18035,-0.007 -2.34801,-1.16664 -4.817,-2.57782 z m 11.98908,-73.98378 c 0,-0.31551 2.5035,-2.86171 5.56333,-5.65823 3.05984,-2.79651 6.72885,-7.37587 8.15338,-10.17635 2.93462,-5.76919 9.24706,-27.38347 9.35358,-32.02737 0.0387,-1.68542 0.41709,-3.95182 0.84097,-5.03645 1.6359,-4.18594 1.94,3.91519 0.44941,11.97205 -3.8543,20.83308 -10.72468,36.56839 -17.49523,40.06959 -2.76328,1.42894 -6.86544,1.94086 -6.86544,0.85676 z m 23.2017,-67.42635 c -2.05964,-8.72531 -2.53901,-13.6735 -1.39325,-14.38162 1.42285,-0.87937 3.38708,8.98883 2.99899,15.06679 l -0.30744,4.81483 -1.2983,-5.5 z m 29.40625,-19.30114 c -3.29049,-3.29049 -6.79689,-10.37471 -6.41744,-12.9656 0.24336,-1.66168 1.11595,-0.80336 4.08397,4.01716 3.54184,5.75252 6.4384,7.98896 9.56107,7.38215 0.80918,-0.15725 1.19993,0.4552 0.99145,1.55395 -0.54674,2.88145 -5.34274,2.88865 -8.21905,0.0123 z M 486.36586,740.4928 c -0.02,-0.50512 2.28156,-4.09541 5.1147,-7.97841 5.6459,-7.7381 8.79289,-13.90389 8.82688,-17.29417 0.0121,-1.20504 0.47196,-2.4691 1.02196,-2.80902 2.10665,-1.30198 0.92085,7.12875 -1.75,12.44204 -2.58751,5.14748 -13.13448,17.63089 -13.21354,15.63956 z m 81.96354,116.90495 c 39.875,-22.44738 72.83061,-41.30238 73.23469,-41.89999 0.40408,-0.59761 0.74158,-6.71785 0.75,-13.60055 l 0.0153,-12.51398 -12.86361,-4.84419 c -11.29086,-4.25192 -13.15539,-4.69192 -15.25,-3.59875 -1.31252,0.68499 -12.62509,7.06101 -25.13906,14.16893 -21.18712,12.03427 -22.6773,13.06431 -21.65736,14.9701 1.38291,2.58399 -0.35952,4.82429 -2.57394,3.3094 -0.78591,-0.53763 -9.36456,-13.12752 -19.06366,-27.97752 -9.6991,-14.85 -17.97151,-27.35531 -18.38313,-27.78958 -0.41162,-0.43427 -2.20186,1.93739 -3.97831,5.27035 -1.77645,3.33297 -5.44864,8.82453 -8.16042,12.20347 -2.71178,3.37894 -4.93051,6.69995 -4.93051,7.38003 0,0.68007 6.75851,11.0433 15.0189,23.0294 8.2604,11.9861 14.86061,22.26843 14.66714,22.84962 -1.17445,3.52801 -4.21008,0.20133 -17.21487,-18.8654 -7.68414,-11.26597 -14.26648,-20.5048 -14.62742,-20.53074 -0.36094,-0.0259 -2.75366,5.01535 -5.31717,11.20285 -2.56351,6.1875 -6.00729,14.35092 -7.65283,18.14092 -1.64555,3.79001 -2.62782,7.20694 -2.18283,7.59319 0.445,0.38624 4.07158,3.29851 8.05908,6.47171 3.9875,3.1732 7.25,6.38027 7.25,7.12682 0,0.74654 -6.50669,5.20614 -14.45931,9.91022 -15.83098,9.36423 -15.74667,9.26329 -17.19368,20.58668 -1.04613,8.18638 2.74912,24.71995 7.28372,31.73065 l 1.49425,2.31019 5.18751,-2.9102 c 2.85313,-1.60061 37.81251,-21.27624 77.68751,-43.72363 z m -66.18884,-18.01934 c 0.17114,-0.14091 -2.44389,-2.37615 -5.81116,-4.96721 -3.36727,-2.59106 -6.24764,-4.55104 -6.40082,-4.35551 -0.6489,0.82832 -7.59918,18.95286 -7.59918,19.8167 0,0.69275 17.45197,-8.55156 19.81116,-10.49398 z m 193.64508,-8.49488 c 1.35405,-1.35405 1.33057,-1.88076 -0.22035,-4.9431 -1.12191,-2.21524 -2.74657,-3.6904 -4.59334,-4.17065 -1.5716,-0.4087 -3.67417,-1.48221 -4.67238,-2.38558 -0.99822,-0.90337 -3.66686,-1.89089 -5.93031,-2.19448 -4.93391,-0.66178 -4.8905,-2.82769 0.0535,-2.66956 3.73364,0.11942 15.37552,4.71013 18.15663,7.15966 1.84065,1.6212 1.91604,1.51316 2.2807,-3.26862 0.12583,-1.65 0.54834,-3.96644 0.93891,-5.14765 1.12856,-3.41314 -5.3605,-9.77935 -14.06958,-13.80319 -10.31486,-4.76576 -16.25359,-10.71405 -22.35958,-22.39559 -2.77529,-5.30946 -7.27967,-12.08496 -10.00976,-15.05666 l -4.96378,-5.4031 -1.0087,2.6531 c -1.34798,3.54546 -3.0582,3.37043 -3.0582,-0.31298 0,-3.16897 2.23063,-8.74868 5.34305,-13.36515 1.04984,-1.55717 9.54678,-9.36985 18.88209,-17.36151 9.3353,-7.99167 18.39114,-16.53926 20.12407,-18.99465 1.73293,-2.45539 4.9739,-8.59271 7.20215,-13.63849 6.88916,-15.60018 11.0571,-22.20522 16.46259,-26.08868 7.16161,-5.14511 10.75349,-13.97333 9.70831,-23.86139 -0.92043,-8.7079 -1.96429,-10.2233 -11.10338,-16.11901 -9.48267,-6.11735 -20.49171,-16.1607 -29.25239,-26.68644 -8.69891,-10.45152 -20.03008,-18.28816 -34.36649,-23.76787 -3.025,-1.15623 -10.45,-3.99842 -16.5,-6.31597 -12.08043,-4.62762 -14.78668,-4.82188 -23.21939,-1.6668 -12.29583,4.60046 -20.05691,14.76882 -22.29415,29.20919 -0.58601,3.78244 -0.91395,7.02868 -0.72876,7.21388 1.64371,1.6437 22.87304,10.56141 33.2423,13.96394 10.97323,3.60071 12.37638,4.27934 9,4.35287 -7.22101,0.15725 -31.54089,-7.29787 -39.15207,-12.00184 l -3.34793,-2.06913 0.0136,11.83156 c 0.008,6.50736 0.25854,12.74287 0.55783,13.8567 0.36402,1.35469 3.75289,3.59202 10.23635,6.75803 10.92183,5.33336 17.94943,6.7052 44.69217,8.72421 16.56933,1.25095 20.44683,2.0135 25.25,4.96567 4.92357,3.02618 4.08882,4.08396 -2.66572,3.37797 -7.31784,-0.76487 -9.79203,0.57868 -19.40786,10.53895 -4.54723,4.71011 -7.72031,9.13564 -9.73324,13.57507 -4.49443,9.91224 -7.92054,25.37642 -8.07809,36.46135 -0.11647,8.19561 -0.31091,9.18439 -1.4892,7.573 -0.74537,-1.01936 -1.48872,-1.66124 -1.65189,-1.42639 -0.16316,0.23485 -2.02776,3.09787 -4.14356,6.36227 -5.41119,8.34878 -11.77352,14.85891 -21.25387,21.74762 -8.52177,6.19221 -10.32652,8.88181 -10.32652,15.38961 0,5.91866 7.83605,12.47004 13.23059,11.06151 1.24817,-0.3259 3.75305,-1.50812 5.5664,-2.62715 3.1329,-1.93335 3.21999,-2.14453 1.75,-4.24324 -3.44314,-4.91577 -0.7598,-12.26514 6.2524,-17.1246 2.09446,-1.45146 4.1266,-2.63902 4.51587,-2.63902 0.38926,0 -1.32242,2.49251 -3.80375,5.53891 -4.42316,5.43045 -5.11125,7.61944 -3.8618,12.28535 0.47457,1.77222 1.13141,2.19651 2.76552,1.78637 1.2915,-0.32414 8.09213,1.745 17.11394,5.20704 l 14.97083,5.74492 -0.3631,11.11563 -0.36309,11.11563 5.44734,3.48462 c 5.58435,3.57227 9.77885,7.98528 9.77885,10.28829 0,1.77445 5.15042,5.29534 11.89246,8.12983 4.567,1.92007 7.04013,2.305 13.32789,2.0744 5.25505,-0.19272 8.20431,-0.76708 9.23589,-1.79866 z m -5.39667,-19.40892 c -1.32043,-1.40554 -2.08652,-2.8698 -1.7024,-3.25391 0.95671,-0.95671 4.9735,3.19848 4.49106,4.6458 -0.23155,0.69465 -1.35547,0.13368 -2.78866,-1.39189 z M 641.3294,726.15948 c 0,-0.41344 2.04829,-1.83833 4.55175,-3.16641 6.45906,-3.42652 13.1803,-11.26901 18.75312,-21.88156 5.33242,-10.15473 6.69513,-11.67852 6.69513,-7.48657 0,8.38346 -21.28485,33.28626 -28.45034,33.28626 -0.85231,0 -1.54966,-0.33827 -1.54966,-0.75172 z m 30.14787,-47.07261 c -0.69574,-2.37838 -1.06727,-4.85338 -0.82563,-5.5 0.69868,-1.86956 2.80973,4.43684 2.43215,7.26559 -0.2925,2.19133 -0.52318,1.93781 -1.60652,-1.76559 z m 25.67331,-13.92567 c -1.97159,-2.0625 -4.08792,-4.73292 -4.70295,-5.93426 -2.4544,-4.79421 -0.83901,-4.35002 4.63177,1.27361 3.1625,3.25086 6.65,6.44669 7.75,7.10184 1.84934,1.10146 1.77046,1.19563 -1.04705,1.25 -2.26079,0.0436 -3.97206,-0.90884 -6.63177,-3.69119 z m -9.90274,-21.61803 c 2.76286,-4.4704 2.62516,-8.62572 -0.48952,-14.77224 -1.63517,-3.22685 -2.09019,-4.92563 -1.25,-4.66679 2.34202,0.72152 5.82108,8.96718 5.82108,13.79644 0,4.86836 -2.13225,9.01062 -4.63826,9.01062 -1.25628,0 -1.15823,-0.59322 0.5567,-3.36803 z m -108.64468,152.51018 13.77377,-7.83721 -4.0214,-2.78683 c -4.68355,-3.24571 -6.5733,-8.38364 -5.56256,-15.12374 0.93341,-6.22446 3.71518,-9.64066 16.8785,-20.72801 6.85566,-5.77445 13.26002,-12.12025 15.20951,-15.07041 3.83403,-5.80205 6.43705,-14.67173 6.47287,-22.05605 0.0338,-6.96183 1.31734,-11.93186 6.70155,-25.94856 4.4756,-11.65133 4.92402,-12.36683 12.32228,-19.66168 l 7.67766,-7.57035 -15.89886,-1.15734 c -17.15621,-1.24887 -27.16835,-3.81186 -39.8002,-10.1884 l -6.0281,-3.04298 -34.24939,21.16647 c -18.83716,11.64156 -34.37851,21.2648 -34.53633,21.38498 -0.78352,0.59666 4.05205,19.17626 7.28162,27.97796 6.2512,17.03669 6.83076,19.9693 5.6991,28.83798 l -1.00013,7.83798 16.01978,24.66202 c 17.02623,26.21143 17.68343,27.16774 18.65901,27.1517 0.34516,-0.006 6.82575,-3.53706 14.40132,-7.84753 z M 438.77638,776.6612 c 1.92915,-3.9875 5.49211,-10.70113 7.91768,-14.91918 l 4.41013,-7.66918 -50.88739,-37.70595 c -27.98807,-20.73828 -50.8874,-38.32285 -50.8874,-39.07682 0,-0.79039 10.26829,-6.50098 24.25,-13.48635 13.3375,-6.66352 24.346,-12.19882 24.46333,-12.30067 0.11733,-0.10184 -0.38604,-2.18918 -1.1186,-4.63851 -0.73255,-2.44934 -1.662,-8.45753 -2.06544,-13.35153 -0.69857,-8.47422 -0.91253,-9.09011 -4.4906,-12.92599 l -3.75708,-4.02778 -25.75871,12.67598 c -14.16729,6.97179 -26.33647,12.67598 -27.04262,12.67598 -0.82401,0 -1.50741,-2.05967 -1.90786,-5.75 -0.82695,-7.62066 -7.57242,-88.12945 -7.57242,-90.37863 0,-2.34974 -37.41695,-45.65291 -37.78766,-43.73219 -0.15821,0.81972 2.65429,35.83106 6.25,77.80298 3.59571,41.97192 6.53766,76.64459 6.53766,77.05037 0,0.40579 -17.03428,8.73283 -37.85397,18.50453 l -37.85396,17.76672 -0.65192,12.11811 -0.65191,12.11811 7.75588,7.22122 c 4.26573,3.97167 8.14671,7.23417 8.6244,7.25 0.47768,0.0158 18.15877,-8.78579 39.29132,-19.55916 36.18913,-18.44921 38.5512,-19.50203 40.63148,-18.11033 1.21477,0.81268 27.63368,21.319 58.70868,45.5696 31.075,24.2506 56.82387,44.10026 57.21972,44.11034 0.39584,0.0101 2.29811,-3.24417 4.22726,-7.23167 z m 17.55935,-29.25674 2.35496,-2.50674 -2.74551,-5.74326 c -4.00947,-8.38732 -10.00979,-17.65001 -19.54579,-30.17283 -6.20192,-8.14447 -9.00755,-11.07043 -10.61514,-11.07043 -4.33853,0 -7.68471,-4.17706 -13.98479,-17.45731 -3.40307,-7.17348 -7.2429,-15.80799 -8.53297,-19.18781 l -2.34557,-6.14512 -22.29871,11.13627 c -12.26429,6.12494 -22.18488,11.45418 -22.04576,11.84274 0.29523,0.82456 95.97328,71.7635 96.82864,71.79203 0.31662,0.0106 1.63541,-1.10883 2.93064,-2.48754 z M 423.80779,690.1612 c -1.6265,-3.86955 -1.53126,-6.03367 0.50506,-11.47622 4.95087,-13.23238 16.14651,-26.22915 26.62412,-30.90735 6.56693,-2.9321 18.14798,-5.03795 28.25424,-5.13764 l 9.36181,-0.0923 -0.71269,-14.25649 c -1.17245,-23.45376 1.82321,-28.68752 21.99031,-38.41957 l 12.22569,-5.89976 0.51882,-6.78032 c 0.59033,-7.71484 3.82702,-17.09813 7.27118,-21.07945 3.83168,-4.42927 4.23277,-0.45247 0.54142,5.36818 -2.5511,4.02267 -3.05581,5.82666 -3.04304,10.87674 0.008,3.32982 0.36351,6.6022 0.78907,7.27194 0.56099,0.88288 5.10699,-0.83575 16.53212,-6.25 14.28005,-6.76721 16.33406,-7.46776 21.8952,-7.46776 11.42344,0 18.76173,5.74903 19.78418,15.49951 l 0.52437,5.00049 1.82498,-3.7103 c 2.35936,-4.79674 9.10811,-10.98239 15.53582,-14.23956 2.81118,-1.42453 8.73897,-3.14253 13.26789,-3.84532 l 8.18642,-1.27035 -6.92768,-3.60944 c -16.22209,-8.452 -38.45502,-14.7526 -73.31646,-20.7772 -9.5402,-1.6487 -17.9977,-3.53865 -18.79445,-4.1999 -0.79675,-0.66124 -2.09863,-2.4592 -2.89306,-3.99545 -2.68378,-5.18987 -4.71478,-5.4112 -13.10259,-1.42785 -7.75594,3.68328 -11.8037,4.53314 -11.07548,2.32537 0.36011,-1.09179 3.36221,-3.05608 6.17786,-4.04223 0.50793,-0.17789 -0.93998,-2.84596 -3.21758,-5.92903 -4.84928,-6.56422 -5.58837,-6.81311 -20.79411,-7.00244 -8.12468,-0.10117 -12.0435,0.29813 -15.34244,1.56329 -4.7896,1.83682 -7.24571,0.97961 -4.64495,-1.62115 2.30184,-2.30184 14.3494,-4.71844 23.52299,-4.71844 9.2653,0 9.91544,-0.80212 4.72656,-5.83138 -4.09873,-3.97265 -12.38683,-5.63614 -23.90241,-4.79743 -10.97109,0.79905 -18.78762,3.01988 -30.37702,8.63071 -16.68175,8.07622 -27.50138,15.92028 -41.63614,30.18559 -17.13809,17.29635 -20.47379,24.31771 -14.51428,30.55126 2.07659,2.17208 2.70558,3.93479 2.94787,8.26125 0.1694,3.025 0.73766,5.4063 1.26279,5.29177 0.52513,-0.11452 1.49531,-2.81452 2.15594,-6 2.44093,-11.76971 6.5189,-18.32238 21.44487,-34.45859 11.85743,-12.81887 25.33765,-21.83318 32.64987,-21.83318 3.9243,0 2.18843,2.00472 -3.36326,3.88415 -13.62559,4.61272 -24.37343,14.56319 -34.95108,32.3581 -15.32402,25.77977 -16.09011,29.57419 -9.14112,45.27534 3.95891,8.94512 4.27092,9.36456 4.55551,6.12406 0.20669,-2.35349 -0.67905,-5.42916 -2.73827,-9.50844 -4.6836,-9.27817 -0.92486,-8.55215 4.72658,0.91297 3.21728,5.38834 3.61928,10.56098 1.70618,21.95382 -1.86491,11.10582 -1.61421,14.75119 1.67156,24.30608 1.82551,5.30851 18.11991,43.73848 19.47461,45.93043 0.97235,1.5733 2.55094,0.72335 1.83222,-0.98651 z m 32.52161,-95.80523 c -9.73265,-2.67577 -19.62848,-3.03122 -25.5,-0.91593 -5.03014,1.81217 -6.5,1.83334 -6.5,0.0936 0,-2.41474 2.46554,-3.5551 10.16099,-4.69966 12.67454,-1.8851 34.83204,2.08695 35.66127,6.3928 0.44249,2.29767 -3.11198,2.07374 -13.82226,-0.87081 z m -19,-20.42152 c 0,-4.17939 7.32926,-9.73712 22.48469,-17.05001 21.90041,-10.5675 50.74842,-17.70009 56.51531,-13.97324 1.80463,1.16624 2.1456,1.08012 -6.5,1.64183 -21.49997,1.39687 -51.07751,13.33488 -64.56734,26.06051 -3.67172,3.46371 -6.95864,6.29766 -7.30426,6.29766 -0.34562,0 -0.6284,-1.33954 -0.6284,-2.97675 z m -2,-14.48845 c 0,-1.35587 1.40184,-4.06181 3.1152,-6.01322 4.02927,-4.58909 18.83179,-14.46995 30.3376,-20.25073 9.3622,-4.70377 21.52329,-9.6281 22.173,-8.97839 0.20412,0.20413 -5.52248,3.66344 -12.72578,7.68736 -18.39555,10.27616 -26.57228,15.80302 -34.64127,23.4149 -3.85107,3.6329 -7.28473,6.60528 -7.63035,6.60528 -0.34562,0 -0.6284,-1.10934 -0.6284,-2.4652 z m 115.35039,102.4652 31.5727,-19.5 0.0385,-31.67327 0.0385,-31.67328 -2.70331,-3.2127 c -3.28639,-3.90554 -7.85807,-5.94075 -13.34481,-5.94075 -6.22159,0 -64.15474,27.51523 -68.66132,32.61056 -5.75374,6.5054 -6.64015,11.2325 -5.37007,28.63786 0.99814,13.67853 1.33714,15.42088 3.44601,17.71128 1.28643,1.39716 3.78925,4.69584 5.56182,7.33039 3.59367,5.34125 13.03484,24.49648 13.05721,26.49185 0.0192,1.70931 -0.92178,2.24706 36.36477,-20.78194 z m -42.95772,-19.4191 c -0.33461,-0.87198 -0.44029,-6.6469 -0.23484,-12.83316 0.62678,-18.87312 3.24102,-21.72763 31.63827,-34.54616 18.43289,-8.32061 22.6257,-9.57464 22.02722,-6.58814 -0.20254,1.01073 -7.137,4.6813 -18.56332,9.82599 -22.04318,9.92492 -25.01098,11.7721 -28.21401,17.56057 -2.11376,3.81995 -2.56985,6.22586 -3.01803,15.92019 -0.36301,7.8522 -0.91833,11.54921 -1.77743,11.83316 -0.68721,0.22713 -1.52325,-0.30047 -1.85786,-1.17245 z M 360.69611,624.45426 c 12.44831,-6.02632 22.63329,-11.20343 22.63329,-11.50469 0,-0.62265 -47.66339,-56.06497 -51.84311,-60.3042 l -2.72701,-2.76583 3.69354,42.76583 c 2.03145,23.52121 3.73473,42.91583 3.78506,43.09916 0.13446,0.48972 -0.0735,0.58571 24.45823,-11.29027 z m 25.6125,-23.35441 c -2.17273,-6.16828 -4.58138,-12.22162 -5.35257,-13.45186 -0.77119,-1.23023 -1.71524,-4.01586 -2.09789,-6.19028 -1.15317,-6.5529 -4.14252,-11.13757 -14.90514,-22.85951 -5.64931,-6.15285 -16.919,-18.837 -25.04377,-28.187 -9.99646,-11.50395 -16.27684,-17.86276 -19.42607,-19.66863 -4.32896,-2.48238 -21.9053,-7.41317 -22.89548,-6.423 -0.24312,0.24312 20.60129,24.77371 46.32092,54.51242 25.71962,29.73871 46.89513,53.93821 47.05668,53.77665 0.16155,-0.16155 -1.48396,-5.3405 -3.65668,-11.50879 z M 368.6284,554.1612 c -6.66526,-14.46589 -12.95787,-21.65994 -25.22915,-28.84326 -4.0971,-2.39835 -7.64214,-4.16779 -7.87785,-3.93208 -0.68857,0.68857 34.63473,40.52534 35.93385,40.52534 0.40921,0 -0.86287,-3.4875 -2.82685,-7.75 z m 6.701,-0.21654 c 0,-0.5316 3.6298,-5.47914 8.06622,-10.99454 8.1708,-10.15799 23.80744,-24.42418 33.72196,-30.76642 8.99787,-5.75586 25.33816,-13.18529 32.71182,-14.87306 3.85,-0.88123 7.5625,-1.76748 8.25,-1.96945 0.72702,-0.21358 1.25,-2.01966 1.25,-4.31682 0,-4.43019 0.78529,-7.11317 2.08199,-7.11317 0.4774,0 0.60132,1.33344 0.27537,2.96321 -0.32595,1.62976 -0.32785,4.01823 -0.004,5.30769 0.51967,2.07053 1.1761,2.34448 5.61765,2.34448 2.76606,0 5.02921,-0.15156 5.02921,-0.33681 0,-0.18525 -3.58789,-5.41412 -7.97308,-11.61972 -10.63231,-15.04603 -12.074,-18.54559 -13.22163,-32.09409 -1.02165,-12.06123 -3.13228,-21.07093 -5.22151,-22.28915 -0.73158,-0.42659 -2.499,-3.09706 -3.92759,-5.93439 -2.58574,-5.13555 -2.61558,-5.15635 -6.62681,-4.61833 -2.65073,0.3555 -4.0296,0.15319 -4.0296,-0.59122 0,-0.62242 0.9,-1.13167 2,-1.13167 3.54977,0 2.13365,-1.41913 -5.26078,-5.27193 -4.62073,-2.40759 -8.57428,-3.76399 -10.9302,-3.75 -2.03004,0.0121 -3.97107,-0.43125 -4.31339,-0.98513 -1.21164,-1.96048 2.70449,-2.23094 9.17668,-0.63377 3.60574,0.88981 6.95454,1.37145 7.44179,1.07031 3.93761,-2.43358 -5.04643,-15.46727 -15.6141,-22.65232 -6.8191,-4.63636 -7.19383,-4.7592 -14.5,-4.75348 -9.17425,0.007 -19.0451,2.22667 -24.73647,5.56203 -2.34494,1.37423 -4.26353,2.745 -4.26353,3.04615 0,0.30116 1.0125,1.36845 2.25,2.37177 1.2375,1.00331 1.93151,2.14394 1.54223,2.53472 -0.38927,0.39078 -2.06285,-0.42972 -3.71908,-1.82334 -4.29685,-3.61556 -19.58562,-7.11612 -27.57315,-6.31323 -16.49413,1.65796 -34.39544,8.05544 -44.83194,16.0218 -4.81096,3.67229 -7.21903,4.42352 -7.87466,2.45661 -0.43823,-1.31468 -12.49546,-1.77768 -14.91436,-0.57272 -2.62351,1.30689 -3.21971,-1.6922 -3.44065,-17.30747 -0.24895,-17.59585 -2.61732,-36.84289 -5.40329,-43.91094 -3.706,-9.4022 -14.69035,-23.76715 -16.66439,-21.79311 -0.36258,0.36259 -0.80809,3.60292 -0.99001,7.20074 -0.18192,3.59782 -0.80783,7.4329 -1.39092,8.5224 -1.32143,2.46912 -3.49328,2.6721 -2.47071,0.23091 0.40317,-0.9625 0.95398,-5.14852 1.22402,-9.30228 0.43455,-6.68409 0.19651,-8.1334 -2.07066,-12.60744 -1.4089,-2.78034 -3.74978,-6.46719 -5.20195,-8.19299 -5.17141,-6.14587 -1.7901,-5.24063 4.66855,1.24986 3.61375,3.63157 7.30225,6.60285 8.19666,6.60285 2.13692,0 2.30742,-0.89822 4.28032,-22.54969 0.82623,-9.06745 -0.91212,-15.38334 -8.28729,-30.10994 l -5.58881,-11.15964 -0.10295,-9.71493 -0.10294,-9.71494 -1.74079,3.87457 -1.74078,3.87457 -0.0262,-3.05422 c -0.0145,-1.69394 1.27177,-5.10093 2.88813,-7.64967 2.40163,-3.78697 3.76509,-4.84792 7.75,-6.0305 5.33958,-1.58459 17.67764,-9.77625 19.77386,-13.12853 0.73499,-1.1754 2.61029,-5.79762 4.16734,-10.27161 3.32926,-9.56622 3.03358,-10.34237 -4.93251,-12.94775 -2.84517,-0.93054 -6.84261,-2.53021 -8.8832,-3.55481 -5.09636,-2.55894 -7.60015,-2.37335 -8.98496,0.66598 -2.30141,5.05104 5.08996,11.19192 14.65978,12.17962 4.52747,0.46727 5.33963,0.82238 4.41873,1.93199 -0.62058,0.74772 -2.38362,1.3595 -3.9179,1.3595 -1.53427,0 -6.22095,0.65653 -10.41485,1.45895 -9.00797,1.72351 -14.96461,5.31344 -18.36493,11.06812 -2.25289,3.81278 -2.32692,3.852 -1.83666,0.97293 0.28097,-1.65 0.77186,-3.675 1.09086,-4.5 0.43113,-1.115 -0.92163,-2.02527 -5.27043,-3.5465 l -5.85043,-2.04651 0.0378,11.54651 c 0.0543,16.58292 -3.80554,28.15352 -12.56029,37.6513 l -4.07825,4.42438 0.11234,27.80486 c 0.10056,24.88856 0.32375,28.47932 2.12791,34.23541 1.10856,3.5368 2.02137,6.54305 2.02846,6.68055 0.007,0.1375 -0.66209,0.25 -1.48709,0.25 -1.04221,0 -1.5,1.04832 -1.5,3.4349 0,5.00864 1.65639,8.7145 5.22623,11.69271 l 3.1496,2.62761 0.17389,20.37239 c 0.19405,22.73508 1.05241,28.96318 5.90099,42.81645 4.04992,11.57138 23.06522,47.67851 30.57433,58.05594 11.98031,16.55655 16.25706,21.67721 21.36636,25.58248 6.86535,5.24749 22.06993,11.93263 36.37725,15.99432 13.12968,3.72737 23.53166,9.50249 40.73135,22.61385 11.57059,8.82028 15.64724,13.9094 19.27276,24.05935 1.53126,4.28688 3.22724,6.27517 3.22724,3.78346 z m 20,-32.20785 c -9.34,-3.27508 -13.61478,-3.7381 -20.24076,-2.19236 -3.32659,0.77604 -6.25336,1.20597 -6.50393,0.9554 -2.35015,-2.35015 9.59488,-5.06809 18.74469,-4.26512 3.575,0.31374 8.89307,1.39688 11.81793,2.40699 5.01075,1.73047 5.21292,1.9286 3.5,3.43012 -1.66803,1.46216 -2.27143,1.43453 -7.31793,-0.33503 z m 12.98904,-15.07561 c -2.04646,-3.35644 -2.79603,-10.36678 -0.98904,-9.25 0.55,0.33992 1,1.51382 1,2.60868 0,2.5236 2.73829,7.89132 4.02568,7.89132 0.53588,0 0.97432,0.45 0.97432,1 0,2.21503 -3.15131,0.80004 -5.01096,-2.25 z m 16.01096,-2.263 c 0,-0.83215 2.025,-2.49681 4.5,-3.69926 2.85795,-1.3885 4.5,-2.84336 4.5,-3.98701 0,-0.9904 0.45,-1.80073 1,-1.80073 1.3909,0 1.2501,2.31798 -0.25,4.11593 -1.42702,1.71036 -8.32869,6.88407 -9.18328,6.88407 -0.3117,0 -0.56672,-0.68085 -0.56672,-1.513 z m -106.38382,-7.95004 c -0.88762,-1.35466 -2.02392,-5.35866 -2.52512,-8.89776 -0.5012,-3.53911 -1.44547,-7.43291 -2.09839,-8.6529 -1.06251,-1.98531 -1.70182,-2.14989 -6.0899,-1.56779 -5.97703,0.79288 -6.63435,-0.87515 -0.94824,-2.40627 4.8608,-1.30887 9.37649,-4.98297 11.02964,-8.97403 1.91832,-4.63122 0.91601,-5.67881 -6.03653,-6.30924 -4.41339,-0.40019 -6.82636,-1.16324 -8.28218,-2.61907 -2.9532,-2.9532 -1.37319,-3.69302 2.2175,-1.03831 l 3.04018,2.2477 9.9677,-1.6554 c 10.16114,-1.68753 13.10916,-1.48872 13.10916,0.88408 0,2.0325 -1.77048,2.68458 -2.71354,0.99942 -0.61587,-1.1005 -1.82413,-1.3344 -4.58161,-0.88692 -3.67477,0.59633 -3.73355,0.67572 -3.12745,4.22364 0.33973,1.98874 1.44742,4.34166 2.46152,5.22871 1.96666,1.72027 9.45658,3.31701 11.02175,2.34968 0.51663,-0.31929 0.93933,-0.10398 0.93933,0.47848 0,1.47179 -8.70194,1.25639 -13.12753,-0.32493 -3.5206,-1.25796 -3.70174,-1.20318 -6.14442,1.85814 -2.48666,3.11643 -2.4944,3.18355 -0.6447,5.59006 1.20541,1.56827 1.8801,4.10425 1.89441,7.12065 0.0285,5.99302 1.51378,9.86937 4.03428,10.5285 2.57781,0.67411 2.66458,4.2866 0.10297,4.2866 -1.03674,0 -2.61122,-1.10837 -3.49883,-2.46304 z m 71.88382,1.74194 c -1.1,-0.25638 -3.60335,-2.00817 -5.56299,-3.89286 -1.95965,-1.8847 -3.9443,-3.08007 -4.41033,-2.65638 -0.46603,0.42369 -0.52363,0.20784 -0.12799,-0.47966 1.17084,-2.03456 3.61538,-1.44483 7.25409,1.75 4.07808,3.5806 5.85149,3.70069 11.82096,0.80049 3.72106,-1.80783 4.74975,-1.96589 5.77675,-0.8876 1.0178,1.06862 0.85339,1.19254 -0.88663,0.66826 -1.46652,-0.44189 -3.03386,0.10693 -5,1.75077 -3.25538,2.72175 -5.96502,3.62263 -8.86386,2.94698 z m 48.91431,-3.41754 c -0.29279,-0.47375 2.41921,-0.86136 6.02667,-0.86136 3.60746,0 6.55801,0.3375 6.55679,0.75 -0.003,1.05523 -11.93485,1.16082 -12.58346,0.11136 z m -101.49987,-3.83318 -2.41444,-2.05872 3,0.76527 c 1.65,0.4209 5.59701,0.73675 8.77113,0.70189 7.77655,-0.0854 6.95979,1.97106 -0.93606,2.35683 -4.88855,0.23884 -6.45547,-0.0896 -8.42063,-1.76527 z m 26.47368,1.01477 c -2.54282,-1.05513 -6.38812,-5.73911 -6.38812,-7.7814 0,-0.98331 1.16827,-0.44298 3.5348,1.63486 3.17414,2.78693 4.19444,3.10359 10,3.10359 3.55586,0 6.4652,0.41968 6.4652,0.93261 0,1.83098 -10.39956,3.44329 -13.61188,2.11034 z m 66.75141,-5.39549 c -1.5842,-3.49389 -3.92403,-7.08354 -5.19962,-7.97699 -1.27558,-0.89346 -2.038,-1.90572 -1.69425,-2.24947 1.79765,-1.79764 8.73607,6.36707 8.74775,10.29382 0.004,1.21815 0.90659,2.69648 2.00659,3.28518 2.34791,1.25656 2.64427,3 0.50996,3 -0.86141,0 -2.70526,-2.68009 -4.37043,-6.35254 z m 22.55972,2.10254 c -0.42181,-3.17805 -1.38507,-4.93838 -3.81906,-6.97927 -1.79024,-1.5011 -2.92407,-3.06018 -2.51962,-3.46463 2.16396,-2.16397 8.63943,6.33698 8.63943,11.34178 0,4.78514 -1.63094,4.14866 -2.30075,-0.89788 z m -50.69925,-1.06291 c 0,-2.26352 5.34147,-6.41675 9.11271,-7.08553 1.98699,-0.35237 4.23699,-1.41937 5,-2.37112 2.57156,-3.20764 3.749,-5.96838 2.9224,-6.85211 -0.45185,-0.48308 -1.33698,-3.35333 -1.96696,-6.37833 -0.62998,-3.025 -2.25942,-7.1875 -3.62097,-9.25 -2.61131,-3.95564 -2.51392,-4.39127 0.60821,-2.72036 2.53343,1.35585 4.54096,5.41735 5.42246,10.97036 0.39289,2.475 1.35647,5.5125 2.1413,6.75 1.25133,1.97307 1.2395,2.25 -0.0961,2.25 -1.05876,0 -1.52305,1.01382 -1.52305,3.32569 0,4.68798 -3.42103,7.67431 -8.7914,7.67431 -3.33651,0 -4.48754,0.49609 -5.80056,2.5 -1.77749,2.71279 -3.40804,3.28075 -3.40804,1.18709 z m -54,-6.5112 c 0,-0.42576 1.61639,-1.35861 3.59197,-2.07299 5.61629,-2.03087 6.6411,-5.64987 5.81421,-20.5324 -0.50708,-9.1266 -0.37292,-12.47302 0.52225,-13.02627 1.94984,-1.20507 2.47818,0.22428 1.39158,3.76475 -0.78917,2.57133 -0.56334,5.15397 1.01481,11.60606 1.83523,7.50312 1.89251,8.68733 0.59751,12.35128 -0.78778,2.22888 -2.55733,4.8351 -3.93233,5.7916 -2.71781,1.89062 -9,3.36901 -9,2.11797 z m 27.83361,-7.02228 c 3.15893,-2.91631 4.16639,-4.59321 4.16639,-6.9349 0,-7.30588 5.19388,-12.21871 12.91769,-12.21871 11.63082,0 15.39067,-9.50337 9.05684,-22.89198 -1.66315,-3.51559 -2.85054,-6.56534 -2.63866,-6.77722 0.63781,-0.63781 5.66331,6.42298 7.21532,10.13747 0.79685,1.90712 1.44881,6.39072 1.44881,9.96356 0,6.38136 -0.0659,6.54085 -3.73213,9.03212 -2.63239,1.78875 -5.06342,2.53651 -8.25,2.5376 -2.48483,8.6e-4 -6.09287,0.78836 -8.01787,1.75 -2.85153,1.4245 -3.71056,2.6014 -4.63647,6.35206 -1.47025,5.95565 -2.7523,8.27044 -5.99207,10.81884 -4.71192,3.7064 -5.93936,2.29461 -1.53785,-1.76884 z m 67.92793,0.41397 c -1.19378,-0.87291 -4.07673,-1.11863 -9.23829,-0.78738 -5.17269,0.33196 -7.972,0.0923 -9.01311,-0.77179 -2.36047,-1.95901 -1.77403,-3.05924 1.05693,-1.98291 1.41189,0.5368 5.57439,0.69866 9.25,0.35969 5.98068,-0.55155 6.88369,-0.39336 8.59347,1.50538 2.23964,2.48717 1.84688,3.50205 -0.649,1.67701 z m -2.76154,-11.87645 c 0,-3.11981 -0.6054,-6.10928 -1.4682,-7.25 -1.84596,-2.44059 -1.90188,-3.44113 -0.19232,-3.44113 0.73672,0 1.86172,1.14617 2.5,2.54705 1.4203,3.1172 1.54362,13.45295 0.16052,13.45295 -0.55,0 -1,-2.38899 -1,-5.30887 z m -105.34501,-0.51987 c -2.35863,-2.60625 -2.04589,-3.55847 0.56752,-1.72796 2.60769,1.82649 6.24627,1.98645 10.60702,0.46628 4.64261,-1.61842 6.2643,-0.39024 1.95259,1.4788 -5.05202,2.18994 -11.03838,2.09093 -13.12713,-0.21712 z m -9.40499,-10.83354 c -1.36023,-0.54886 -1.75329,-4.33772 -0.45,-4.33772 0.44,0 1.31238,0.51238 1.93861,1.13861 0.85149,0.85149 2.93374,0.47323 8.25721,-1.5 7.49567,-2.77838 11.00418,-3.30082 11.00418,-1.63861 0,0.55 -1.2375,1.00819 -2.75,1.0182 -1.5125,0.01 -4.73022,1.36001 -7.15048,3 -4.07439,2.76084 -7.78816,3.55481 -10.84952,2.31952 z m 105.00356,-3.00978 c -1.86764,-1.3029 -2.99622,-1.37837 -6.69282,-0.44755 -6.76827,1.70427 -9.95131,1.39722 -12.38643,-1.19484 -2.79946,-2.97989 -2.85676,-5.368 -0.0617,-2.57298 1.75027,1.75027 2.73639,1.97777 5.75,1.32649 6.51584,-1.40814 12.78955,-1.06387 14.86657,0.81581 1.06059,0.95982 2.70697,1.74513 3.65862,1.74513 0.95165,0 1.45216,0.45 1.11224,1 -0.88898,1.4384 -3.64649,1.14171 -6.24644,-0.67206 z m -131.00979,-6.9923 c -3.138,-1.26512 0.58324,-2.33564 8.1189,-2.33564 6.82426,0 9.12271,-0.43756 13.34139,-2.53982 5.17636,-2.57949 11.49995,-8.79381 16.62891,-16.34158 3.52172,-5.18257 9.53551,-8.3343 22.44561,-11.7634 10.10928,-2.68516 11.18065,-3.36445 11.20611,-7.1052 0.008,-1.2375 0.52456,-2.25 1.14698,-2.25 1.4092,0 0.55354,7.46945 -1.08132,9.43934 -0.6212,0.74849 -3.92415,1.84857 -7.3399,2.44461 -10.28371,1.79449 -19.53489,7.01722 -25.81488,14.57373 -6.19621,7.4557 -13.29404,13.20567 -18.6701,15.1247 -3.58248,1.27879 -17.38735,1.7992 -19.9817,0.75326 z m 58.75623,-1.71928 c 0,-3.08237 5.17401,-7.70917 15.66637,-14.00947 10.15877,-6.1 11.43141,-8.09458 8.34797,-13.08368 -3.1055,-5.02481 -1.93605,-5.46074 1.46881,-0.54753 2.63798,3.80661 2.7167,4.23887 1.53843,8.44725 -1.53963,5.49902 -4.33825,8.13807 -9.52158,8.97867 -2.2,0.35679 -6.14135,1.61611 -8.75856,2.7985 -4.01057,1.81187 -4.92047,2.75106 -5.78855,5.97485 -1.14545,4.25387 -2.95289,5.13615 -2.95289,1.44141 z m 74.63068,-4.34565 c -0.47719,-1.97438 -2.39643,-4.57157 -4.93882,-6.68342 -4.68424,-3.89099 -4.47116,-5.99045 0.26565,-2.61754 3.65662,2.60374 6.30204,7.31638 5.80876,10.34793 -0.29217,1.79559 -0.4934,1.61006 -1.13559,-1.04697 z m -171.96324,-4.31766 c -3.2339,-2.54379 -6.22519,-8.07873 -7.21369,-13.34787 -0.63287,-3.37351 -0.50146,-3.76139 1.16652,-3.44313 1.41001,0.26905 2.16733,1.81294 3.03067,6.17841 1.279,6.46734 4.58618,10.90264 7.81413,10.47964 1.11921,-0.14667 2.16142,0.17131 2.31602,0.70662 0.55632,1.92629 -4.44858,1.52267 -7.11365,-0.57367 z m 10.02269,-4.64541 c -0.33833,-0.54743 -0.15606,-2.65799 0.40504,-4.69013 1.32341,-4.79301 -0.3006,-7.45413 -11.04232,-18.09405 -6.32501,-6.26507 -8.05285,-7.52508 -8.05285,-5.87244 0,1.15725 0.675,2.66429 1.5,3.34898 2.04768,1.69942 1.884,3 -0.37756,3 -4.21921,0 -4.61762,-2.14698 -4.71417,-25.40431 -0.0505,-12.15263 -0.55643,-24.24157 -1.12438,-26.86431 -1.10467,-5.10128 -0.36148,-6.73337 1.8528,-4.06885 1.00311,1.20707 1.49542,6.68656 1.86331,20.73899 0.275,10.50416 0.9323,19.77348 1.46067,20.59848 0.52837,0.825 4.57837,5.91417 9,11.30926 11.79893,14.39657 12.53933,15.55668 12.53933,19.64749 0,3.81922 -2.23002,8.09813 -3.30987,6.35089 z M 419.71764,420.855 c -1.86473,-1.86474 -2.48249,-1.94886 -6.63419,-0.90345 -5.73812,1.44487 -14.1372,-0.69039 -17.72096,-4.50512 -3.35923,-3.57575 -2.11696,-3.96013 2.52376,-0.78091 3.59802,2.4649 4.66429,2.68044 12.18218,2.46254 7.11211,-0.20614 8.51408,0.0362 10.25,1.77217 1.10603,1.10603 2.01097,2.46097 2.01097,3.01097 0,1.393 -0.27294,1.28262 -2.61176,-1.0562 z m -36.02416,-17.17934 c -2.13881,-0.96959 -5.04813,-5.76446 -3.49763,-5.76446 0.45297,0 1.68082,0.95072 2.72856,2.11271 1.64336,1.82256 2.69013,2.042 7.62184,1.59784 5.736,-0.51661 12.31326,0.41499 13.85015,1.96171 1.16812,1.17561 -18.12353,1.26152 -20.70292,0.0922 z m -157.69741,-9.43113 c -1.15996,-1.15995 -0.72097,-3.33333 0.67327,-3.33333 1.81001,0 4.05683,-7.12888 3.1854,-10.10686 -0.38516,-1.31623 -2.23592,-6.5662 -4.11281,-11.66661 -1.87689,-5.10041 -3.41253,-9.54301 -3.41253,-9.87245 0,-1.80977 3.06672,2.35068 4.03636,5.47591 0.62627,2.01851 2.51091,7.04501 4.1881,11.17001 2.81851,6.93204 2.95936,7.83781 1.85993,11.96087 -1.64784,6.17968 -4.13795,8.65224 -6.41772,6.37246 z m -3.64223,-53.02431 c 0.0135,-0.44496 0.47601,-2.76733 1.02792,-5.16083 0.72682,-3.15205 0.6672,-5.28173 -0.21625,-7.72487 -1.37377,-3.79911 -0.64158,-5.33669 1.63972,-3.44338 1.80771,1.50026 1.94485,5.46376 0.40117,11.59424 -0.97062,3.85468 -2.92393,7.0969 -2.85256,4.73484 z m 11.49025,-50.64625 c -0.90481,-1.38092 -2.06621,-5.35746 -2.58088,-8.83676 -1.00467,-6.79175 -0.18946,-24.54998 1.16543,-25.38735 0.45171,-0.27917 0.55336,3.89543 0.22589,9.27688 -0.49084,8.06617 -0.22128,11.26339 1.53495,18.20592 1.17169,4.6318 1.94345,8.60834 1.71503,8.83676 -0.22842,0.22842 -1.1556,-0.71453 -2.06042,-2.09545 z m -12.57566,120.72877 c -2.83218,-6.56192 -5.76475,-20.27602 -6.56669,-30.70899 -0.79425,-10.33292 -1.25942,-11.33264 -4.49517,-9.66083 -8.60276,4.44476 -12.04587,12.8838 -8.25081,20.22264 1.74539,3.37521 20.49978,25.96283 21.0773,25.38531 0.19063,-0.19063 -0.60345,-2.54779 -1.76463,-5.23813 z m 218.58419,-9.89154 c 0.39363,-5.775 1.11193,-10.5 1.59623,-10.5 0.4843,0 0.88055,4.02344 0.88055,8.94098 0,5.00432 0.44952,9.21881 1.02096,9.57197 0.56152,0.34704 1.7227,-1.0889 2.58039,-3.19098 0.85769,-2.10208 3.79298,-8.44315 6.52285,-14.09127 7.96621,-16.48206 9.00104,-19.28309 10.29085,-27.8547 1.54229,-10.24953 0.62137,-19.66308 -3.96908,-40.57178 -1.89528,-8.63268 -3.43166,-16.50768 -3.41417,-17.5 0.0297,-1.68506 0.12809,-1.67695 1.48967,0.12278 1.74908,2.31192 1.98168,2.12669 3.27409,-2.60732 0.87691,-3.21205 0.64985,-4.35716 -1.7846,-9 -2.45473,-4.68151 -2.69514,-5.9195 -2.00401,-10.31968 0.85145,-5.42082 -0.18219,-18.72334 -1.97103,-25.36662 -0.61361,-2.27876 -3.93776,-10.77849 -7.387,-18.88829 -8.28387,-19.47688 -9.0639,-21.6832 -12.63745,-35.74509 -4.03672,-15.88444 -3.77233,-15.28644 -5.60306,-12.6727 -1.57016,2.24172 -4.40841,2.97109 -4.40841,1.13286 0,-0.57191 0.95445,-2.91071 2.121,-5.19733 2.55651,-5.01118 2.21376,-12.91929 -0.86022,-19.84784 l -1.9588,-4.41499 -1.61726,3.7914 c -1.30179,3.05183 -2.61563,4.20631 -6.73538,5.9184 -4.68199,1.94574 -5.06224,2.34697 -4.46238,4.70859 1.38704,5.46076 1.70916,9.22266 1.07786,12.5878 -0.93597,4.98915 -2.56482,4.31861 -2.56482,-1.05585 0,-2.50232 -0.66272,-5.83123 -1.47272,-7.39759 -2.57707,-4.98351 -14.41815,-9.16044 -20.78336,-7.33132 l -2.75607,0.79199 -0.32036,10.82936 -0.32035,10.82936 9.03111,4.46136 c 4.96712,2.45375 9.67522,4.99591 10.46244,5.64925 1.98524,1.6476 5.71829,7.70948 6.59994,10.71725 0.63601,2.16977 0.23661,1.97283 -3.02361,-1.49089 -2.16395,-2.29902 -3.9263,-3.48127 -4.15713,-2.78877 -0.22039,0.66117 0.2869,6.73207 1.12731,13.49089 2.28573,18.38256 2.84434,31.27009 1.78467,41.17388 -1.27997,11.96271 -0.0315,20.83449 4.42765,31.46328 1.99631,4.75838 4.1248,11.01374 4.72998,13.90079 0.91159,4.34883 1.4065,5.152 2.88541,4.68261 2.86968,-0.9108 2.1495,1.69916 -2.39047,8.66317 -5.86855,9.00198 -6.7306,12.00107 -6.78055,23.58966 -0.0635,14.74594 3.05799,28.57817 6.71092,29.73756 3.27939,1.04084 13.24153,11.871 15.8798,17.26343 1.83089,3.74219 2.36509,6.03926 1.89852,8.16356 -0.52154,2.37453 -0.20061,3.27033 1.63131,4.55345 4.16413,2.91668 4.60286,2.18782 5.35878,-8.90262 z m 4.47678,-35.13713 c 0,-16.91832 -2.17274,-29.19138 -6.55515,-37.02787 -3.76658,-6.73528 -3.92889,-8.98801 -0.41869,-5.81133 5.19728,4.70348 7.7235,12.51429 9.88371,30.55939 1.08214,9.03959 0.21094,20.19613 -1.72854,22.13561 -0.90844,0.90844 -1.18133,-1.36825 -1.18133,-9.8558 z m -5.29667,-55.39636 c -3.54939,-4.14666 -4.67264,-7.95675 -4.69232,-15.91651 -0.0165,-6.68046 1.86329,-3.73725 2.85051,4.46301 0.74839,6.21648 1.18062,7.18435 4.48336,10.03934 2.01032,1.73778 3.65512,3.67441 3.65512,4.30363 0,2.36487 -2.96299,1.00519 -6.29667,-2.88947 z M 425.6541,294.55888 c 0.34843,-2.54206 2.05321,-7.43433 3.78839,-10.87171 6.55933,-12.99397 8.2665,-18.6873 8.32872,-27.77597 0.0736,-10.74984 1.93979,-12.32284 2.37278,-2 0.45498,10.84722 -1.2694,18.33796 -6.10034,26.5 -2.27874,3.85 -4.63924,9.44753 -5.24556,12.43895 -1.42367,7.02407 -4.06964,8.46213 -3.14399,1.70873 z m 21.6753,-0.74655 c 0,-2.54946 2.9015,-8.90113 4.06611,-8.90113 0.46103,0 0.18962,2.1375 -0.60312,4.75 -0.79274,2.6125 -1.44621,5.0875 -1.45217,5.5 -0.006,0.4125 -0.46082,0.75 -1.01082,0.75 -0.55,0 -1,-0.94449 -1,-2.09887 z m -150.15215,102.9276 c 5.32294,-4.6736 16.91368,-9.71071 30.82288,-13.39502 0.87027,-0.23052 0.80611,-1.52165 -0.25,-5.03084 -0.7814,-2.5964 -1.42073,-6.46367 -1.42073,-8.59392 0,-5.61537 -2.24269,-10.14753 -7.59587,-15.35023 -5.43304,-5.28032 -11.01741,-8.32996 -20.90413,-11.41582 -7.82774,-2.4432 -24.82355,-3.94644 -25.84956,-2.28632 -0.3512,0.56825 -0.20427,3.3231 0.32651,6.12188 0.53078,2.79878 1.21976,8.80859 1.53107,13.35512 0.31131,4.54653 0.99936,12.7016 1.529,18.12237 0.52964,5.42078 0.96298,12.0259 0.96298,14.67805 l 0,4.82209 5.75,0.64847 c 3.1625,0.35666 6.2,0.80352 6.75,0.99301 2.76101,0.95127 5.06297,0.21532 8.34785,-2.66884 z M 280.3294,383.61939 c 0,-0.66774 7.98831,-19.7849 9.44193,-22.5959 2.27135,-4.39229 5.54646,-7.11837 8.49663,-7.07225 l 2.56144,0.04 -2.55199,1.38814 c -3.33992,1.81675 -7.38286,9.36961 -9.47578,17.70228 -1.69426,6.74549 -4.33834,10.82954 -7.01119,10.82954 -0.80357,0 -1.46104,-0.13132 -1.46104,-0.29181 z m 92.91245,-1.63122 c 2.52315,-1.60767 6.25902,-3.22974 8.30192,-3.60461 2.04291,-0.37486 4.24063,-1.31567 4.88383,-2.09068 0.6432,-0.77501 4.93423,-3.68314 9.53563,-6.46251 4.9648,-2.99889 8.39836,-5.73761 8.44536,-6.73629 0.0436,-0.92558 0.0124,-7.14474 -0.0693,-13.82034 -0.14741,-12.05375 -0.12382,-12.18634 3.42081,-19.22504 4.47004,-8.8763 4.6005,-13.15164 0.64069,-20.99598 -5.83229,-11.55371 -6.48044,-16.00442 -6.64663,-45.64152 -0.16292,-29.05469 -1.76068,-45.47338 -5.07581,-52.15948 -1.35431,-2.73142 -3.48398,-4.61718 -7.96006,-7.04839 l -6.11107,-3.31925 -2.12745,5.83472 c -2.98567,8.1885 -9.3,16.60803 -14.94324,19.92534 -4.14485,2.43653 -5.72246,2.76706 -13.20713,2.76706 -11.25888,0 -16.00899,-2.29376 -26.18472,-12.64424 l -7.68472,-7.81669 -1.65361,5.73047 c -3.64713,12.63884 -12.00207,22.71765 -20.89637,25.2079 -11.42265,3.19814 -23.41955,-0.89708 -34.03587,-11.61838 l -6.40673,-6.4701 -3.95862,2.01954 c -4.2819,2.18446 -5.68293,4.86634 -6.75099,12.92289 -0.71252,5.37468 1.60335,13.31006 7.0283,24.08257 1.83792,3.64962 4.57437,10.6745 6.08102,15.61085 2.67333,8.7589 2.70923,9.20412 1.48987,18.47519 -1.72464,13.1129 -1.43169,23.70678 0.74768,27.03797 0.94862,1.44998 3.52476,5.4096 5.72476,8.79915 l 4,6.16283 4.5,-0.5593 c 5.99888,-0.74559 20.99323,1.18794 27.82021,3.58743 6.24788,2.19595 17.40423,8.58624 21.29246,12.19619 3.51005,3.25884 6.91793,12.67784 7.7738,21.48593 0.38533,3.96561 1.00173,7.51134 1.36978,7.87939 0.36806,0.36805 5.07346,0.6103 10.45647,0.53834 5.51655,-0.0737 12.18723,0.47608 15.28728,1.26004 8.12989,2.05594 9.86804,1.90313 14.91245,-1.311 z m 34.46593,-7.82697 c -0.36286,-1.5125 -0.78403,-2.9001 -0.93595,-3.08356 -0.15192,-0.18345 -2.45111,0.68887 -5.10932,1.9385 l -4.83311,2.27205 4.5,0.66131 c 2.475,0.36372 5.07107,0.7289 5.76905,0.81151 0.89137,0.10549 1.07271,-0.66825 0.60933,-2.59981 z M 203.20681,249.97374 c 4.88989,-2.49464 8.67265,-6.96147 12.20314,-14.40994 7.5716,-15.97422 5.99256,-39.31965 -4.06859,-60.1526 -9.83716,-20.36913 -25.06251,-31.3982 -39.1683,-28.37305 -9.29974,1.99444 -18.11372,13.22302 -20.89468,26.6188 -1.51409,7.29337 -0.70332,26.77429 1.44643,34.75425 2.23619,8.30084 9.64282,22.89556 15.00772,29.57264 10.51365,13.08514 24.23612,17.72318 35.47428,11.9899 z m -0.87383,-8.22619 c 5.80476,-8.01323 7.83132,-19.90671 6.02106,-35.33635 -1.29909,-11.07262 -5.43453,-24.69686 -10.30503,-33.94993 -4.25179,-8.07764 -13.13677,-16.99556 -18.54807,-18.61682 -4.23172,-1.26785 -5.61741,-2.941 -2.42154,-2.92387 3.19276,0.0171 11.95372,5.82627 16.12694,10.69332 7.14977,8.33848 13.87898,24.08288 16.18961,37.87896 1.79532,10.71939 1.58192,25.91786 -0.4622,32.91834 -1.94019,6.64454 -6.12793,13.5 -8.24662,13.5 -0.89684,0 -0.32818,-1.43857 1.64585,-4.16365 z m 94.505,-7.70133 c 7.44946,-3.38422 13.5527,-12.64928 16.48063,-25.01853 1.79429,-7.58012 0.77678,-26.52402 -1.93026,-35.93749 -2.65758,-9.24145 -7.53903,-18.97368 -13.38178,-26.67948 -14.98564,-19.76404 -35.32029,-21.76572 -46.13938,-4.54182 -2.88864,4.59868 -6.72825,14.92511 -5.99229,16.11593 0.3149,0.5095 2.08093,0.92637 3.92453,0.92637 4.72734,0 14.11238,3.80749 17.74168,7.19777 2.93756,2.74409 3.04058,3.11438 2.44681,8.79522 l -0.61986,5.93052 4.48067,1.98201 c 4.17112,1.84509 4.48148,2.24497 4.49235,5.78825 0.006,2.09342 -1.23099,7.3929 -2.7498,11.77662 -2.74113,7.91165 -3.84775,9.39717 -12.20761,16.38738 l -3.44574,2.8812 5.65994,5.65993 c 9.89971,9.89972 21.52355,13.15026 31.24011,8.73612 z m -4.50858,-2.98003 c 0,-0.46476 0.85839,-1.62185 1.90753,-2.57131 5.69761,-5.15626 8.73561,-20.65113 7.05086,-35.96186 -2.71718,-24.69317 -14.45588,-46.71785 -28.0066,-52.54721 -4.94943,-2.12919 -7.04714,-4.85726 -2.70179,-3.51369 7.70128,2.38123 15.77826,9.51205 21.14295,18.66619 13.13266,22.40919 15.73425,59.4288 5.15149,73.30352 -2.51251,3.29406 -4.54444,4.46748 -4.54444,2.62436 z m 71.5,-9.42501 c 12.8651,-8.65279 18.53155,-31.48621 13.66113,-55.04861 -4.19833,-20.31095 -16.78022,-39.09589 -30.22804,-45.13091 -17.53054,-7.86724 -33.00496,3.95403 -36.79246,28.10659 -0.77805,4.9616 -0.5957,6.29154 1.48615,10.83892 3.56245,7.7814 6.41121,19.91894 7.04216,30.00403 0.44749,7.1527 1.09036,9.92365 3.13205,13.5 4.14045,7.25264 12.09242,14.99067 18.69901,18.19594 7.94712,3.85564 16.84252,3.67543 23,-0.46596 z m -5.0881,-3.97998 c 6.90786,-9.3866 9.37402,-21.20256 7.64056,-36.60775 -2.84437,-25.27766 -14.4504,-47.19545 -28.10067,-53.06764 -5.46796,-2.35226 -6.78681,-4.46128 -1.91631,-3.06443 6.98963,2.0046 15.11541,9.27204 20.34533,18.19623 13.83785,23.61251 16.10596,62.06648 4.39603,74.53113 -2.75113,2.92845 -4.51775,2.93776 -2.36494,0.0125 z m 99.41706,-10.41676 c 5.34183,-3.0974 11.11997,-11.7021 13.76388,-20.49692 2.5558,-8.50175 2.57986,-26.2603 0.0503,-37.16862 -0.99892,-4.30776 -4.02212,-12.23865 -6.71821,-17.62419 -16.45931,-32.878014 -46.08843,-37.277214 -56.87605,-8.4447 -2.69331,7.19851 -2.96803,9.80993 -1.04892,9.97081 0.825,0.0692 2.57171,0.19429 3.88158,0.27807 4.13439,0.26441 10.64001,7.851 12.56458,14.65231 0.9338,3.3 2.16705,7.35 2.74056,9 4.9423,14.21923 5.98202,17.81364 6.80237,23.51626 1.09565,7.61639 4.66634,23.52178 5.98433,26.65678 1.69653,4.03539 11.61837,3.85659 18.85554,-0.3398 z m -2.23261,-8.06326 c 1.89774,-3.15151 3.97509,-7.53902 4.61633,-9.75 1.51728,-5.23159 1.432,-23.23543 -0.14929,-31.51998 -4.09281,-21.44254 -15.18676,-39.72329 -27.3616,-45.08678 -3.45488,-1.52201 -4.60621,-2.42212 -3.42832,-2.68025 6.11519,-1.34015 18.49019,10.24549 24.69722,23.12187 11.76205,24.40017 12.63302,57.85803 1.80615,69.3827 -3.6817,3.91899 -3.75702,2.47186 -0.18049,-3.46756 z M 243.49476,198.9562 c 2.43078,-1.07525 6.3136,-2.25786 8.62848,-2.62803 l 4.20888,-0.67302 -4.5063,-4.19646 c -4.48091,-4.17282 -4.50556,-4.23266 -4.37674,-10.62198 0.12439,-6.16997 -0.71129,-9.46252 -3.33192,-13.12755 -2.16849,-3.03269 0.14667,-3.23496 3.22881,-0.28209 1.70409,1.63263 2.78733,3.54139 2.5124,4.4271 -0.81441,2.62369 0.77501,3.89528 7.50578,6.00486 3.55589,1.1145 6.76052,2.03217 7.12141,2.03927 0.36089,0.007 0.96925,-2.2635 1.35191,-5.04576 0.85393,-6.2088 -0.27335,-7.73332 -7.72281,-10.44425 -7.18097,-2.61324 -15.03404,-2.46135 -21.19456,0.40992 -4.44007,2.06942 -5.60874,2.20209 -12.22735,1.38812 -4.05618,-0.49883 -7.99674,-0.52017 -8.8407,-0.0479 -2.29606,1.28494 -1.83429,4.11748 1.11318,6.82842 3.77742,3.47429 6.49589,10.0157 5.73772,13.80656 -1.03439,5.17196 1.29963,9.05678 7.05016,11.73448 6.1842,2.87964 8.06728,2.93833 13.74165,0.42828 z m -6.1691,-13.21167 c -0.004,-4.34748 -2.70858,-10.17127 -5.76044,-12.40285 -0.83106,-0.60768 -1.32584,-1.66043 -1.0995,-2.33944 0.64508,-1.93524 5.60283,2.47732 7.94776,7.07376 2.19315,4.29893 2.28756,10.89426 0.16592,11.59123 -0.87052,0.28597 -1.25113,-0.90491 -1.25374,-3.9227 z m 175.03098,-14.9404 c 6.12268,-2.6339 9.54665,-8.57763 8.67686,-15.06234 -1.07284,-7.99863 -9.50281,-17.83059 -15.28803,-17.83059 -2.81815,0 -18.41607,6.0133 -18.41607,7.09976 0,0.43276 0.86824,1.39497 1.92943,2.13825 1.06118,0.74329 2.23496,2.5688 2.6084,4.05671 0.43494,1.73292 1.3506,2.70528 2.54753,2.70528 4.3765,0 6.99946,11.03881 3.53308,14.86912 -2.14523,2.37046 -2.04585,2.90945 0.63156,3.42515 5.15766,0.9934 9.15585,0.58673 13.77724,-1.40134 z m -1.35165,-6.64293 c -0.24334,-0.4125 -0.47983,-2.95496 -0.52552,-5.6499 -0.0612,-3.60787 -0.66854,-5.52308 -2.30334,-7.26324 -1.54673,-1.64643 -1.90261,-2.68098 -1.17315,-3.41044 1.84452,-1.84452 5.96522,4.2931 6.72435,10.01564 0.3738,2.81787 0.41063,5.55868 0.0818,6.09067 -0.71199,1.15203 -2.1854,1.26619 -2.80418,0.21727 z m -16.58103,3.16442 c 2.31002,-2.09054 2.48387,-6.69314 0.33401,-8.84299 -1.67397,-1.67397 -4.42857,-2.12925 -4.42857,-0.73194 0,1.10841 -4.5756,3.16051 -7.04705,3.16051 -2.29346,0 -2.2328,-0.40334 -0.88475,5.88242 l 1.06821,4.98086 4.52636,-1.36223 c 2.4895,-0.74923 5.3838,-2.13821 6.43179,-3.08663 z m -9.16667,-10.53912 c 2.82569,-0.98505 3.14478,-1.45071 2.5696,-3.75 -0.3612,-1.44392 -1.1834,-2.92237 -1.82711,-3.28545 -0.64371,-0.36308 -2.93543,-2.06303 -5.09271,-3.77767 -2.15728,-1.71464 -4.29161,-2.74824 -4.74295,-2.2969 -0.86318,0.86318 4.00663,14.23472 5.18416,14.23472 0.37547,0 2.13452,-0.50612 3.90901,-1.1247 z"
       id="path3327"
       inkscape:connector-curvature="0" />
  </g>
</svg>
