<?xml version="1.0" encoding="UTF-8" standalone="no"?>
<!-- Created with Inkscape (http://www.inkscape.org/) -->

<svg
   xmlns:dc="http://purl.org/dc/elements/1.1/"
   xmlns:cc="http://creativecommons.org/ns#"
   xmlns:rdf="http://www.w3.org/1999/02/22-rdf-syntax-ns#"
   xmlns:svg="http://www.w3.org/2000/svg"
   xmlns="http://www.w3.org/2000/svg"
   xmlns:xlink="http://www.w3.org/1999/xlink"
   xmlns:sodipodi="http://sodipodi.sourceforge.net/DTD/sodipodi-0.dtd"
   xmlns:inkscape="http://www.inkscape.org/namespaces/inkscape"
   width="163.15936"
   height="198.72932"
   id="svg2"
   version="1.1"
   inkscape:version="0.48.3.1 r9886"
   sodipodi:docname="Incline-triceps-extensions-1.svg">
  <defs
     id="defs4">
    <radialGradient
       gradientUnits="userSpaceOnUse"
       gradientTransform="matrix(1,0,0,0.91819829,-19.285714,-7.9105395)"
       r="209.56604"
       fy="287.50052"
       fx="398.1105"
       cy="287.50052"
       cx="398.1105"
       id="radialGradient5255"
       xlink:href="#linearGradient5249"
       inkscape:collect="always" />
    <linearGradient
       id="linearGradient5249"
       inkscape:collect="always">
      <stop
         id="stop5251"
         offset="0"
         style="stop-color:#e3e3e3;stop-opacity:1;" />
      <stop
         id="stop5253"
         offset="1"
         style="stop-color:#e3e3e3;stop-opacity:0;" />
    </linearGradient>
  </defs>
  <sodipodi:namedview
     id="base"
     pagecolor="#ffffff"
     bordercolor="#666666"
     borderopacity="1.0"
     inkscape:pageopacity="0.0"
     inkscape:pageshadow="2"
     inkscape:zoom="1.979899"
     inkscape:cx="4.5871568"
     inkscape:cy="97.82442"
     inkscape:document-units="px"
     inkscape:current-layer="layer1"
     showgrid="false"
     showguides="true"
     inkscape:guide-bbox="true"
     fit-margin-top="0"
     fit-margin-left="0"
     fit-margin-right="0"
     fit-margin-bottom="0"
     inkscape:window-width="1112"
     inkscape:window-height="691"
     inkscape:window-x="65"
     inkscape:window-y="328"
     inkscape:window-maximized="0">
    <sodipodi:guide
       orientation="-0.70710678,0.70710678"
       position="-2243.5956,473.83099"
       id="guide2985" />
  </sodipodi:namedview>
  <metadata
     id="metadata7">
    <rdf:RDF>
      <cc:Work
         rdf:about="">
        <dc:format>image/svg+xml</dc:format>
        <dc:type
           rdf:resource="http://purl.org/dc/dcmitype/StillImage" />
        <dc:title></dc:title>
      </cc:Work>
    </rdf:RDF>
  </metadata>
  <g
     inkscape:label="Ebene 1"
     inkscape:groupmode="layer"
     id="layer1"
     transform="translate(-815.02427,-301.74956)">
    <path
       style="fill:#000000"
       d="m 939.52427,499.77269 c -4.95215,-1.19572 -16.87597,-6.17773 -18.75,-7.83412 -0.9625,-0.85072 -1.75,-2.15202 -1.75,-2.89178 0,-0.73975 -0.25458,-1.34501 -0.56574,-1.34501 -1.24691,0 -5.08141,2.38146 -7.57484,4.70445 -2.54373,2.36984 -2.75464,2.4011 -5.75,0.85213 -2.696,-1.39415 -3.10942,-2.14181 -3.10942,-5.62327 0,-3.77099 0.25861,-4.12636 4.25,-5.84017 l 4.25,-1.82485 -4,-1.12857 c -2.2,-0.62071 -4.57,-1.13108 -5.26666,-1.13414 -0.69666,-0.003 -9.92166,-2.02147 -20.5,-4.48533 -10.57834,-2.46386 -23.28334,-5.42024 -28.23334,-6.56972 -15.61143,-3.62528 -17.24292,-3.59814 -23.1959,0.38589 -4.47024,2.99171 -5.6758,3.36913 -8.63206,2.70238 -4.9833,-1.12392 -5.67204,-1.78654 -5.67204,-5.45695 0,-3.17053 0.33495,-3.45338 8.53044,-7.20336 l 8.53043,-3.90324 4.80973,-13.98762 c 2.64535,-7.6932 7.23332,-20.8851 10.1955,-29.31534 l 5.38576,-15.3277 -8.6096,-8.26795 c -4.73528,-4.54737 -9.84378,-10.13292 -11.35222,-12.41233 l -2.74262,-4.14438 2.73208,-3.58194 c 2.80812,-3.68163 5.11741,-5.17441 6.25102,-4.0408 0.35435,0.35435 -0.86011,1.90018 -2.69881,3.43519 -2.66415,2.22414 -3.21709,3.28611 -2.72273,5.22927 0.34118,1.34109 6.52721,8.51335 13.74672,15.93835 7.21951,7.425 16.51457,17.55 20.65569,22.5 4.14112,4.95 12.9146,14.55742 19.49663,21.34982 10.21557,10.54207 12.33339,12.27984 14.4681,11.87176 2.34882,-0.449 2.46316,-0.27752 1.88164,2.8222 -0.37622,2.00547 -0.17915,3.57218 0.50231,3.99335 0.61679,0.38119 4.5681,-0.88211 8.78068,-2.80734 4.21259,-1.92522 8.55925,-3.80728 9.65925,-4.18235 3.67267,-1.25227 -0.85895,-2.63578 -10.72755,-3.27514 -7.78268,-0.50422 -9.48108,-0.93389 -11.25422,-2.84713 -2.60872,-2.81486 -3.9492,-5.67975 -5.34581,-11.42517 -1.42808,-5.87485 -0.037,-7.8791 10.06421,-14.5 4.19554,-2.75 7.65865,-5.32184 7.69581,-5.7152 0.0372,-0.39337 -1.28326,-2.2537 -2.93426,-4.13409 -1.651,-1.88038 -3.29026,-4.93354 -3.64282,-6.78479 -0.77922,-4.09173 -3.08568,-8.86592 -4.28322,-8.86592 -0.48207,0 -1.32105,-1.27525 -1.86439,-2.8339 -0.58752,-1.68536 -2.34962,-3.48551 -4.34783,-4.44169 -1.84795,-0.8843 -4.14302,-2.53404 -5.10013,-3.66611 -2.05244,-2.4276 -8.21659,-2.7522 -16.35095,-0.86103 -4.4765,1.04074 -5.30586,1.62903 -6.34401,4.5 -0.65686,1.8165 -1.61516,3.30273 -2.12956,3.30273 -1.19293,0 -1.19143,-0.0165 0.42095,-4.62427 2.29742,-6.5654 2.96784,-17.5614 1.21235,-19.88432 -0.82773,-1.09528 -1.51927,-3.97365 -1.53677,-6.3964 -0.0308,-4.26431 -0.0925,-4.35005 -1.93252,-2.68486 -1.04934,0.94964 -2.16073,1.29944 -2.48118,0.78093 -0.31926,-0.51656 0.43528,-1.70199 1.67675,-2.6343 3.53684,-2.65605 3.67179,-12.63732 0.26813,-19.83207 -1.40829,-2.97689 -3.46108,-6.22751 -4.56176,-7.2236 -2.38808,-2.16119 -2.62482,-7.07286 -0.57713,-11.97367 1.13065,-2.70602 2.15958,-3.54631 4.99343,-4.07794 7.53712,-1.41398 10.58248,1.31791 10.58248,9.49315 0,2.09686 0.64607,4.34866 1.43572,5.004 1.98637,1.64854 2.82389,6.09889 3.02112,16.05335 0.16623,8.38995 0.72307,10.45905 4.48227,16.65511 1.41181,2.32699 1.88798,4.88605 1.81422,9.75 -0.055,3.62719 -0.42322,6.59489 -0.81826,6.59489 -1.22978,0 -2.03325,-4.95975 -1.37333,-8.47744 0.34645,-1.84672 0.19384,-4.1369 -0.33914,-5.08927 -0.82346,-1.47144 -1.1469,-1.1927 -2.15282,1.85527 -1.05754,3.20438 -0.85392,7.7164 0.58493,12.96144 0.86837,3.1655 -1.22593,1.82467 -2.45382,-1.571 -1.46059,-4.03918 -1.53918,-8.65903 -0.20692,-12.16315 0.67835,-1.7842 0.63712,-3.94823 -0.12987,-6.8151 -0.61811,-2.31041 -1.4029,-9.24088 -1.74397,-15.40103 -0.67697,-12.22689 -1.75408,-14.84596 -4.92524,-11.97609 -1.01881,0.922 -3.05444,1.67637 -4.52363,1.67637 -3.23034,0 -3.27234,0.34712 -0.5112,4.22478 1.72835,2.42725 2.11689,4.25685 1.94405,9.15438 -0.1188,3.36646 -0.19355,7.02084 -0.1661,8.12084 0.0275,1.1 0.0721,3.79592 0.0993,5.99093 0.0272,2.19501 0.9299,5.48323 2.00604,7.30716 2.05365,3.48066 2.73739,12.20191 0.95663,12.20191 -0.55,0 -0.19185,0.80815 0.79589,1.79589 1.32473,1.32473 2.9005,1.69055 6.00627,1.39437 2.31571,-0.22084 4.45911,-0.80399 4.76312,-1.29589 0.30402,-0.4919 1.42016,-0.89437 2.48032,-0.89437 1.27184,0 2.48037,-1.27568 3.5526,-3.75 0.89377,-2.0625 1.829,-3.21245 2.07827,-2.55544 0.24928,0.65701 -0.0724,2.17674 -0.71486,3.37717 -0.76843,1.43583 -0.82329,2.39572 -0.16035,2.80544 0.55427,0.34256 0.95881,0.84783 0.89898,1.12283 -0.24754,1.13782 4.0535,5.26518 7.54976,7.24489 2.0625,1.16787 3.75,2.65365 3.75,3.30175 0,0.64809 1.35,2.8771 3,4.95336 1.65,2.07625 3.00193,4.72563 3.00428,5.88751 0.002,1.16187 1.35043,4.13749 2.99572,6.61249 1.64529,2.475 2.99336,5.2875 2.99572,6.25 0.003,1.06413 0.76501,1.75 1.94526,1.75 1.06754,0 2.16042,0.35505 2.42861,0.789 0.2682,0.43395 5.46854,0.77145 11.55631,0.75 6.08777,-0.0215 11.06989,0.32506 11.07139,0.77002 0.001,0.44496 0.43653,0.5409 0.96676,0.2132 1.1843,-0.73194 15.96263,4.12857 18.03595,5.93192 0.825,0.71758 2.99702,2.06336 4.82672,2.99062 l 3.32672,1.68595 -0.50726,7.18464 c -0.64512,9.13725 -2.09357,19.6966 -3.63447,26.49582 -1.62168,7.15559 -0.47811,9.52032 7.52861,15.568 6.49087,4.90272 7.74536,7.30892 4.9989,9.58828 -2.52263,2.0936 -9.12551,2.41524 -13.51624,0.65842 -2.2349,-0.89423 -5.74482,-1.62587 -7.79982,-1.62587 -2.055,0 -5.2236,-0.42653 -7.04134,-0.94785 -2.5923,-0.74347 -3.91927,-0.57428 -6.15371,0.78456 -2.39049,1.45374 -2.68,2.04859 -1.79977,3.69786 1.21828,2.28266 8.30489,9.15116 12.13561,11.76211 7.24132,4.93556 -1.85448,10.43253 -12.86395,7.77423 z m 12.25,-2.6229 c 2.23688,-0.68939 1.32988,-2.3776 -2.93863,-5.46969 -5.96723,-4.32265 -11.81137,-12.42331 -11.81137,-16.37196 0,-1.75605 1.16922,-7.22337 2.59826,-12.14959 1.42905,-4.92622 2.9525,-10.98177 3.38545,-13.45677 0.43296,-2.475 1.49314,-7.694 2.35597,-11.59778 2.35299,-10.6459 1.62057,-12.21936 -7.45684,-16.01951 -7.41914,-3.10593 -7.49479,-3.11536 -9.82959,-1.22475 -2.48443,2.01178 -3.8974,9.34255 -2.71146,14.06769 0.51252,2.04206 1.08026,2.28695 4.53752,1.95725 2.17343,-0.20727 4.77722,0.1031 5.78619,0.68971 1.74137,1.01243 1.73297,1.06931 -0.1655,1.12055 -1.4153,0.0382 -2.70395,1.58193 -4.40789,5.28041 -1.98338,4.305 -2.52418,7.51835 -3.06751,18.22643 -0.58184,11.46709 -0.98269,13.6285 -3.3995,18.33001 -1.70774,3.32214 -2.62408,6.5118 -2.43249,8.46714 0.29217,2.98183 0.67867,3.24513 7.80739,5.31884 4.125,1.19994 8.625,2.64166 10,3.20382 2.21243,0.90453 8.22609,0.71425 11.75,-0.3718 z m -17.73075,-11.65375 c -1.84671,-4.12475 -1.83525,-5.79426 0.0398,-5.79426 0.51754,0 0.94098,0.92235 0.94098,2.04966 0,1.12731 0.68656,3.37731 1.52568,5 0.94298,1.82352 1.11527,2.95034 0.45111,2.95034 -0.59102,0 -1.92191,-1.89258 -2.95754,-4.20574 z m -7.309,-1.79426 c -0.58156,-2.22388 0.16052,-6 1.17911,-6 0.36085,0 0.65609,1.8 0.65609,4 0,4.25757 -0.96875,5.31331 -1.8352,2 z m 7.30406,-16.5 c -0.11477,-2.46769 4.47077,-19.5 5.2499,-19.5 0.47881,0 0.63622,0.7875 0.34981,1.75 -0.28642,0.9625 -1.22151,4.83597 -2.07798,8.60771 -1.44255,6.35274 -3.41351,11.46927 -3.52173,9.14229 z m -2.46477,-13.25 c 0.88321,-5.1737 2.69154,-10.25 3.65135,-10.25 1.23485,0 0.95018,2.70269 -0.70089,6.65424 -0.825,1.97451 -1.5,4.43505 -1.5,5.46788 0,1.03284 -0.47039,1.87788 -1.04531,1.87788 -0.65506,0 -0.80632,-1.40002 -0.40515,-3.75 z m 1.95046,-25.22301 c -1.40443,-0.58456 -0.45025,-0.81093 3.20424,-0.76018 2.86233,0.0397 4.97327,0.44597 4.69098,0.90273 -0.64432,1.04253 -5.24768,0.95941 -7.89522,-0.14255 z m -11.0758,51.20964 c 0.86669,-1.81747 1.5758,-3.70731 1.5758,-4.19966 0,-0.49235 -2.5875,-1.40807 -5.75,-2.03494 -7.86177,-1.55836 -9.25,-2.00356 -9.25,-2.96645 0,-0.4563 3.55448,-0.0583 7.89883,0.88451 l 7.89884,1.71416 0.59016,-3.56713 c 0.32459,-1.96191 0.59511,-7.23392 0.60116,-11.71557 0.01,-7.09497 0.39617,-8.88065 2.9901,-13.8118 l 2.97909,-5.66335 -3.22909,0.3118 c -2.05594,0.19852 -3.22909,0.85362 -3.22909,1.80316 0,0.82024 -1.62493,2.39524 -3.61095,3.5 -11.14704,6.2007 -12.61801,7.4528 -13.25049,11.27891 -0.3391,2.05135 -0.6215,6.29067 -0.62755,9.42071 -0.006,3.13004 -0.46101,5.9691 -1.01101,6.30902 -0.6397,0.39536 -1,-2.78407 -1,-8.82435 0,-8.47924 -0.19638,-9.49374 -1.92528,-9.94586 -1.73891,-0.45474 -1.98664,0.2358 -2.55902,7.13337 -0.89635,10.80149 -0.85837,10.67295 -3.05195,10.32827 -5.19151,-0.81575 -56.07123,-13.5596 -56.81772,-14.23114 -1.93055,-1.73671 6.64508,-31.95781 13.53298,-47.69115 3.09394,-7.06718 3.12376,-7.27711 1.31693,-9.27363 -1.01678,-1.12352 -2.16993,-1.69463 -2.56257,-1.26914 -0.39264,0.4255 -3.31112,8.64863 -6.48552,18.27363 -3.17441,9.625 -7.27379,21.23773 -9.10975,25.80607 -1.83595,4.56833 -3.3381,9.1846 -3.3381,10.25838 0,1.47275 -2.05388,2.9012 -8.36151,5.81534 -4.59883,2.12466 -8.66964,4.36159 -9.04624,4.97095 -1.0635,1.72078 1.25101,5.14926 3.47618,5.14926 2.29693,0 12.09318,-4.73234 13.11774,-6.33688 0.75699,-1.1855 12.79029,1.252 45.81383,9.28018 10.725,2.6073 22.9875,5.562 27.25,6.566 4.2625,1.00401 7.74544,2.08764 7.73986,2.40808 -0.006,0.32044 -2.48057,1.6811 -5.5,3.02369 -4.49392,1.99822 -5.48986,2.88529 -5.48986,4.88975 0,1.34678 0.73758,2.98803 1.63906,3.64721 1.36035,0.9947 2.79288,0.42177 8.4242,-3.3692 4.22346,-2.84321 7.38007,-5.8153 8.36094,-7.8722 z m 52.95392,-4.11494 c 1.59175,-0.62526 0.87124,-1.52903 -4.72526,-5.92715 -9.97019,-7.83527 -10.2243,-8.41506 -8.30765,-18.95519 0.87405,-4.80664 1.77281,-10.31435 1.99725,-12.23935 0.22444,-1.925 0.98012,-6.10641 1.6793,-9.29202 1.5261,-6.95331 0.3821,-10.02294 -4.3502,-11.67263 -1.67293,-0.58319 -3.74591,-1.69107 -4.60663,-2.46195 -0.86071,-0.77089 -4.42478,-2.361 -7.92014,-3.53358 -5.85673,-1.96474 -6.54306,-2.00888 -8.75,-0.56284 -2.39337,1.5682 -2.78163,2.48416 -2.44709,5.77302 0.0979,0.9625 -0.30027,1.75 -0.88484,1.75 -1.48405,0 -1.33359,-6.32551 0.18714,-7.86736 1.00755,-1.02155 -0.10772,-1.25859 -5.75,-1.22211 -11.48492,0.0743 -12.91972,-0.10227 -14.11474,-1.73656 -1.03233,-1.4118 -1.39,-1.40089 -3.70036,0.11292 -1.40666,0.92168 -4.49871,3.47857 -6.87123,5.68198 -4.85503,4.50897 -6.43853,5.10608 -4.72342,1.78113 0.87331,-1.69304 0.27281,-1.40628 -2.42591,1.15845 -1.97258,1.87465 -3.31097,3.85429 -2.9742,4.3992 0.33677,0.54491 0.76696,2.83611 0.95596,5.09155 0.26402,3.15065 1.15238,4.85382 3.83409,7.3508 3.0713,2.85973 4.18268,3.25844 9.25512,3.32029 3.17058,0.0386 6.6575,0.41898 7.74872,0.84517 1.09122,0.4262 2.75044,0.57448 3.68716,0.32952 1.40426,-0.36722 1.5258,-0.91035 0.69263,-3.09518 -1.47059,-3.85631 -0.12579,-10.68502 2.78563,-14.14505 l 2.52834,-3.00475 -2.8389,-0.0318 c -2.40778,-0.027 -2.60557,-0.2168 -1.30249,-1.25 0.84502,-0.67001 1.38922,-2.1182 1.20934,-3.2182 -0.30703,-1.8775 -0.20756,-1.86219 1.62389,0.25 1.07303,1.2375 2.56632,2.25 3.31842,2.25 0.75211,0 2.11575,0.87393 3.03031,1.94206 0.91457,1.06814 3.60208,2.49459 5.97225,3.1699 4.56837,1.30161 8.43862,4.14447 9.28874,6.82296 0.38978,1.22811 1.47956,1.52648 4.51718,1.2368 2.20191,-0.20998 4.00139,-0.22202 3.99884,-0.0268 -0.003,0.19527 -1.11687,3.05504 -2.47627,6.35504 -1.99985,4.85473 -2.47616,7.74136 -2.49536,15.12288 -0.0182,7.00382 -0.50291,10.20613 -2.08665,13.78643 -1.1346,2.56495 -1.9221,5.88465 -1.75,7.37712 0.29806,2.58483 0.63298,2.74107 7.05932,3.29331 3.71052,0.31885 7.04802,0.88135 7.41666,1.25 0.88582,0.88581 10.32345,0.73139 12.71505,-0.20805 z m -21.72313,-5.95043 c -2.24643,-2.48227 -1.94897,-8.17126 0.42725,-8.17126 0.47859,0 0.45852,1.0777 -0.0447,2.40135 -0.71324,1.87595 -0.48903,2.78504 1.02475,4.15499 2.0252,1.83278 2.53636,3.44366 1.09273,3.44366 -0.46476,0 -1.58976,-0.82293 -2.5,-1.82874 z m 2.34501,-18.60616 c 0,-0.2392 0.48586,-1.7017 1.07968,-3.25 0.59382,-1.54831 1.43676,-5.5151 1.8732,-8.8151 l 0.79351,-6 0.12681,5.78212 c 0.11307,5.15596 -1.86226,12.71788 -3.32217,12.71788 -0.30307,0 -0.55103,-0.19571 -0.55103,-0.4349 z m 2,-28.25908 c 0.825,-0.29485 2.05785,-1.23897 2.73967,-2.09805 1.45674,-1.83548 2.77018,-0.97901 1.91525,1.2489 -0.34937,0.91045 -1.73251,1.51076 -3.37354,1.46418 -1.52976,-0.0434 -2.10638,-0.32018 -1.28138,-0.61503 z m -15.54705,51.53346 c 3.61655,-1.64781 3.46702,-5.07818 -0.20295,-4.6559 -2.15997,0.24853 -2.81789,0.90645 -3.06642,3.06642 -0.35909,3.12076 -0.22959,3.18372 3.26937,1.58948 z m -42.97476,-16.3602 0.71709,-10.52072 -3.78675,-4.22928 c -2.08271,-2.3261 -8.1408,-8.95428 -13.46242,-14.72928 -5.32161,-5.775 -12.29784,-13.65 -15.50272,-17.5 -6.86176,-8.24297 -7.82613,-9.02482 -8.29339,-6.72367 -0.1925,0.94802 -1.58742,4.42367 -3.09983,7.72367 -2.30354,5.02624 -7.12535,18.93661 -11.11689,32.071 -1.61151,5.30273 -1.25521,5.54615 4.43467,3.02982 3.21012,-1.41967 6.42599,-2.17171 8,-1.87081 2.21629,0.42367 2.63205,1.03018 2.63205,3.83965 0,2.86695 -0.52286,3.58462 -3.71525,5.09951 l -3.71526,1.763 4.46526,1.32775 c 2.45589,0.73026 12.32851,3.35879 21.93917,5.84116 9.61065,2.48238 17.67315,4.71266 17.91666,4.95617 1.41793,1.41793 1.94359,-0.62937 2.58761,-10.07797 z m 48.85673,5.02548 c 1.24817,-3.01779 1.7982,-6.99807 1.81531,-13.13646 0.0173,-6.20203 0.59008,-10.29475 1.93665,-13.83755 1.05166,-2.76691 1.91234,-5.14325 1.91262,-5.28075 2.7e-4,-0.1375 -1.02219,-0.25 -2.27214,-0.25 -1.83436,0 -2.48492,0.81961 -3.37338,4.25 -0.60541,2.3375 -1.83273,6.85946 -2.72736,10.04879 -0.89464,3.18933 -1.62662,6.68808 -1.62662,7.77498 0,1.08691 -0.9,4.53686 -2,7.66655 -2.65206,7.54558 -2.58722,7.92663 1.27208,7.47608 2.78137,-0.32471 3.54064,-1.03131 5.06284,-4.71164 z m -95.24636,-9.54994 c 4.28057,-2.18378 5.81796,-4.4483 4.15142,-6.11484 -0.70078,-0.70078 -3.03892,-0.30128 -7.38278,1.26144 -7.97372,2.86859 -10.18523,5.31108 -5.6072,6.19285 4.1846,0.80599 4.82271,0.70928 8.83856,-1.33945 z m 17.51561,-83.68399 c -0.33229,-0.33229 -0.56864,0.25834 -0.52522,1.3125 0.048,1.16495 0.28494,1.4019 0.60416,0.60417 0.28887,-0.72188 0.25335,-1.58438 -0.079,-1.91667 z m 0.0581,-8.52083 c -0.27741,-0.6875 -0.50438,-0.125 -0.50438,1.25 0,1.375 0.22697,1.9375 0.50438,1.25 0.27741,-0.6875 0.27741,-1.8125 0,-2.5 z m -1.49101,-44.40499 c 2.13337,-1.93068 2.56208,-10.21167 0.62874,-12.14501 -1.72216,-1.72216 -7.32317,-1.47947 -8.87,0.38434 -1.76403,2.12553 -1.89089,11.00918 -0.15217,10.65638 0.7028,-0.1426 1.53844,0.4199 1.85698,1.25 0.76712,1.99907 4.25234,1.92138 6.53645,-0.14571 z m -5.13608,-2.27927 c -1.45634,-2.7212 -1.28754,-5.36175 0.48742,-7.62461 1.42163,-1.81242 1.48187,-1.69946 0.90846,1.70357 -0.34398,2.04141 -0.11849,4.57082 0.51259,5.75 0.70593,1.31905 0.75326,2.1053 0.12672,2.1053 -0.55,0 -1.46583,-0.87042 -2.03519,-1.93426 z m 23.52736,98.99776 c -2.67424,-2.71508 -7.60733,-6.3488 -10.9624,-8.07495 -7.58614,-3.90298 -12.91575,-7.08358 -15.28235,-9.12021 -0.99979,-0.86039 -2.54759,-1.82148 -3.43957,-2.13575 -0.89198,-0.31428 -2.66141,-2.71899 -3.93205,-5.34379 -2.28615,-4.72255 -2.29262,-4.83965 -0.62004,-11.21674 1.58224,-6.03264 1.58334,-6.78346 0.0172,-11.75172 -1.34676,-4.27243 -1.49461,-6.63457 -0.75818,-12.11384 0.70087,-5.21466 0.59665,-7.46708 -0.44561,-9.63104 -1.60011,-3.32216 -1.66906,-4.83782 -0.64905,-14.26649 0.72102,-6.66492 0.62505,-7.22338 -1.59714,-9.29367 -1.68883,-1.57338 -2.48269,-1.83307 -2.77877,-0.90898 -0.67777,2.11535 -2.35628,2.76219 -7.20963,2.77837 -3.13609,0.0104 -5.08514,-0.54032 -6.13871,-1.73469 -2.30182,-2.60944 -3.07624,-7.78078 -1.76168,-11.76393 1.82121,-5.51832 9.46847,-8.44399 14.72208,-5.63235 1.17801,0.63045 4.28642,1.14628 6.90758,1.14628 3.48687,0 4.46841,0.29733 3.65773,1.10801 -1.05553,1.05553 -2.61378,0.98035 -14.94872,-0.72117 -5.65077,-0.77948 -8.34327,1.81571 -8.34327,8.04173 0,5.04934 1.87777,7.57143 5.63717,7.57143 5.05086,0 6.38682,-1.58134 5.79863,-6.86369 -0.40215,-3.61154 -0.14976,-5.12881 1.01376,-6.09445 1.35274,-1.12267 1.47665,-0.9215 0.97706,1.5862 -0.69711,3.49923 1.00666,8.37194 2.92731,8.37194 0.77189,0 1.9169,1.23963 2.54447,2.75473 1.0512,2.5378 1.21142,7.29212 1.10941,32.9204 -0.0285,7.16333 0.51479,10.86403 2.47784,16.87764 2.808,8.6021 2.94347,9.44723 1.51435,9.44723 -0.55,0 -1.00689,-1.0125 -1.01531,-2.25 -0.0124,-1.81944 -0.20082,-1.96296 -0.98469,-0.75 -0.53316,0.825 -0.97627,3.76237 -0.98469,6.52749 -0.0169,5.54252 2.02391,9.47251 4.91895,9.47251 1.00147,0 2.41018,0.7101 3.13048,1.57801 0.7203,0.8679 3.3629,2.69413 5.87245,4.05828 10.05966,5.46829 15.78458,9.42696 20.29272,14.03207 2.60145,2.6574 4.73895,5.16914 4.75,5.58164 0.0455,1.69928 -1.81662,0.48448 -6.41737,-4.1865 z m 13.93463,-8.07243 c -0.35069,-1.1049 -2.63101,-3.6752 -5.06739,-5.71176 -2.69524,-2.25294 -4.40226,-4.50093 -4.3595,-5.74107 0.0624,-1.80927 0.14896,-1.83924 0.77059,-0.26686 0.38516,0.97425 2.15765,2.65764 3.93885,3.74086 2.89766,1.76217 7.20677,7.27819 7.21654,9.23776 0.008,1.60267 -1.89514,0.64397 -2.49909,-1.25893 z m -19.74721,-3.27862 c -4.83177,-4.1391 -4.98797,-7.4205 -0.48758,-10.24295 2.41352,-1.51366 4.1285,-1.86534 6.73762,-1.38164 2.54564,0.47193 2.83767,0.68475 1.071,0.7805 -4.64083,0.25151 -9.17154,2.43683 -8.4838,4.09202 0.35184,0.84679 0.86614,2.32712 1.14289,3.28962 0.27674,0.9625 1.10986,1.75 1.85136,1.75 0.7415,0 1.81402,0.87042 2.38337,1.93426 2.21635,4.14129 0.7908,4.06627 -4.21486,-0.22181 z m 4.75004,-1.71245 c -0.33992,-0.55 0.30852,-1 1.44098,-1 1.13246,0 2.05902,0.45 2.05902,1 0,0.55 -0.64844,1 -1.44098,1 -0.79254,0 -1.7191,-0.45 -2.05902,-1 z m 16.48904,-4.25 c -2.10839,-3.45802 -2.83868,-8.99964 -0.93514,-7.0961 1.14062,1.14062 4.15116,10.3461 3.38357,10.3461 -0.25678,0 -1.35857,-1.4625 -2.44843,-3.25 z m -17.98904,-0.75 c -1.21948,-0.78809 -1.09025,-0.97224 0.69098,-0.98469 1.20504,-0.008 2.4691,0.43469 2.80902,0.98469 0.78687,1.27319 -1.52988,1.27319 -3.5,0 z m -10.76269,-7.44208 c -1.22325,-1.40686 -2.88623,-2.55792 -3.69551,-2.55792 -0.80929,0 -1.9531,-0.9 -2.5418,-2 -0.5887,-1.1 -0.91406,-2 -0.72301,-2 1.48096,0 8.93467,4.388 9.36686,5.51428 1.11914,2.91643 -0.25865,3.51393 -2.40654,1.04364 z m 21.76269,0.18697 c 0,-0.825 0.675,-2.0602 1.5,-2.74489 1.21995,-1.01247 1.5,-0.96484 1.5,0.25511 0,0.825 -0.675,2.0602 -1.5,2.74489 -1.21995,1.01247 -1.5,0.96484 -1.5,-0.25511 z m -4,-2.9631 c 0,-2.40153 1.08235,-4.78179 2.17438,-4.78179 0.53072,0 0.65626,1.00664 0.28061,2.25 -0.91126,3.01617 -2.45499,4.60819 -2.45499,2.53179 z m -16.80197,-3.31315 c 0.29224,-0.29225 1.52819,-0.72333 2.74655,-0.95797 1.21835,-0.23463 3.07924,-0.70084 4.1353,-1.03602 2.29673,-0.72896 2.60988,1.04669 0.33833,1.91836 -1.94578,0.74667 -7.95416,0.8096 -7.22018,0.0756 z m -28.52873,-11.51413 c -3.67538,-2.89105 -5.02959,-8.3571 -3.02896,-12.2259 1.7316,-3.34854 6.09136,-7.72861 7.69277,-7.72861 0.57259,0 -0.11314,1.2375 -1.52383,2.75 -5.80947,6.2287 -6.4438,11.69685 -1.80928,15.59655 4.66768,3.92759 3.4653,5.3805 -1.3307,1.60796 z m 45.59793,-3.9102 c 0.3144,-2.34402 0.0229,-6.12541 -0.64782,-8.40308 -0.67069,-2.27768 -1.1398,-7.96623 -1.04246,-12.64123 0.15111,-7.25665 -0.24384,-9.57156 -2.69998,-15.82556 -1.58233,-4.02906 -2.87697,-8.615 -2.87697,-10.19098 0,-1.57599 -0.45,-3.14354 -1,-3.48346 -0.55,-0.33992 -1,-2.9 -1,-5.68907 l 0,-5.07104 -4.52261,0.50977 c -3.86181,0.43528 -4.34747,0.29872 -3.32387,-0.93464 0.7606,-0.91646 2.6878,-1.35554 5.27262,-1.20128 2.24062,0.13373 5.05678,-0.28716 6.25812,-0.9353 3.22379,-1.73928 7.77549,-1.43289 9.66075,0.6503 2.09784,2.31808 2.16595,9.28248 0.12931,13.22092 -1.30123,2.5163 -2.11037,2.95034 -5.5,2.95034 -2.18588,0 -3.97432,0.30219 -3.97432,0.67154 0,0.36935 1.15385,3.55572 2.56412,7.08083 2.15855,5.39552 2.60327,8.25501 2.81161,18.07846 0.1428,6.73272 0.7575,12.60678 1.45308,13.88555 0.73992,1.36031 0.95508,3.78294 0.55703,6.27217 -0.89825,5.61734 -2.86168,6.59578 -2.11861,1.05576 z m 2.69759,-50.97857 c 1.41029,-2.63516 1.30778,-9.39314 -0.16482,-10.86574 -2.77205,-2.77205 -8.86402,-0.72437 -10.17995,3.42176 -0.74389,2.3438 0.84634,7.41867 2.69251,8.59257 2.30793,1.46752 6.59668,0.82378 7.65226,-1.14859 z m -6.11318,-2.492 c -1.10034,-2.41499 -0.47546,-7.57374 0.91741,-7.57374 0.40202,0 0.73095,2.25 0.73095,5 0,2.75 -0.12215,5 -0.27144,5 -0.14929,0 -0.7689,-1.09182 -1.37692,-2.42626 z m -27.58499,50.40126 c -1.38455,-0.55686 -2.02017,-1.45375 -1.67244,-2.35992 0.33003,-0.86004 -0.29425,-1.91936 -1.51665,-2.57357 -1.62013,-0.86707 -2.07756,-2.08058 -2.07756,-5.51159 0,-2.41985 0.4681,-5.6309 1.04021,-7.13569 0.78907,-2.07539 0.66835,-3.66535 -0.5,-6.58533 -1.727,-4.3162 -1.91658,-5.8089 -0.73775,-5.8089 1.55291,0 4.40033,9.74816 3.41085,11.67708 -1.50085,2.92581 -2.1786,9.22634 -1.06641,9.91371 0.55836,0.34509 1.8375,1.97959 2.84253,3.63223 l 1.82733,3.0048 1.6491,-2.86391 c 1.56916,-2.72507 1.62274,-2.74271 1.10528,-0.36391 -0.29911,1.375 -0.54998,3.2875 -0.55749,4.25 -0.0151,1.9421 -0.4916,2.03429 -3.747,0.725 z m 25.3163,-15.84079 c -0.43077,-0.697 -0.51316,-1.53733 -0.18309,-1.86741 0.89496,-0.89496 1.87077,0.42131 1.38739,1.87145 -0.33872,1.01617 -0.57427,1.01538 -1.2043,-0.004 z m -25.8748,-17.13421 c -0.41897,-2.475 -1.03699,-6.02755 -1.37337,-7.89456 -0.41575,-2.30753 -0.26555,-3.18069 0.46903,-2.72669 1.29861,0.80258 2.50353,8.08229 2.01602,12.18005 -0.30327,2.54909 -0.45148,2.34128 -1.11168,-1.5588 z m 21.04185,-4.57286 c -0.4125,-0.41826 -0.75,-2.80047 -0.75,-5.29381 0,-3.20437 0.31195,-4.22138 1.06414,-3.46919 0.58527,0.58527 0.92277,2.96749 0.75,5.29381 -0.17278,2.32632 -0.65164,3.88746 -1.06414,3.46919 z m -41.77639,-10.99654 c -1.03615,-2.72529 -0.38918,-7.05573 1.20095,-8.03848 0.57945,-0.35813 0.69613,0.78021 0.29768,2.90415 -0.37487,1.99824 -0.17313,4.3941 0.47141,5.59843 0.77114,1.44089 0.79221,2.1053 0.0668,2.1053 -0.58296,0 -1.49953,-1.15623 -2.03682,-2.5694 z"
       id="path3204"
       inkscape:connector-curvature="0" />
  </g>
</svg>
