<?xml version="1.0" encoding="UTF-8" standalone="no"?>
<!-- Created with Inkscape (http://www.inkscape.org/) -->

<svg
   xmlns:dc="http://purl.org/dc/elements/1.1/"
   xmlns:cc="http://creativecommons.org/ns#"
   xmlns:rdf="http://www.w3.org/1999/02/22-rdf-syntax-ns#"
   xmlns:svg="http://www.w3.org/2000/svg"
   xmlns="http://www.w3.org/2000/svg"
   xmlns:sodipodi="http://sodipodi.sourceforge.net/DTD/sodipodi-0.dtd"
   xmlns:inkscape="http://www.inkscape.org/namespaces/inkscape"
   width="695.29211"
   height="897.36707"
   id="svg2"
   version="1.1"
   inkscape:version="0.48.3.1 r9886"
   sodipodi:docname="Incline-flys-1.svg">
  <defs
     id="defs4" />
  <sodipodi:namedview
     id="base"
     pagecolor="#ffffff"
     bordercolor="#666666"
     borderopacity="1.0"
     inkscape:pageopacity="0.0"
     inkscape:pageshadow="2"
     inkscape:zoom="0.49497475"
     inkscape:cx="877.04088"
     inkscape:cy="266.71124"
     inkscape:document-units="px"
     inkscape:current-layer="layer1"
     showgrid="false"
     fit-margin-top="0"
     fit-margin-left="0"
     fit-margin-right="0"
     fit-margin-bottom="0"
     inkscape:window-width="1855"
     inkscape:window-height="1056"
     inkscape:window-x="65"
     inkscape:window-y="24"
     inkscape:window-maximized="1" />
  <metadata
     id="metadata7">
    <rdf:RDF>
      <cc:Work
         rdf:about="">
        <dc:format>image/svg+xml</dc:format>
        <dc:type
           rdf:resource="http://purl.org/dc/dcmitype/StillImage" />
        <dc:title></dc:title>
      </cc:Work>
    </rdf:RDF>
  </metadata>
  <g
     inkscape:label="Ebene 1"
     inkscape:groupmode="layer"
     id="layer1"
     transform="translate(-126.39713,83.278021)">
    <path
       style="fill:#000000"
       d="m 607.35313,812.90859 c -1.925,-0.54725 -4.175,-1.59239 -5,-2.32252 -0.825,-0.73014 -5.37869,-1.99278 -10.11932,-2.80588 -4.74063,-0.81309 -10.14063,-2.20834 -12,-3.10054 -5.5906,-2.68259 -14.7039,-11.42401 -19.8305,-19.0213 -6.05806,-8.97766 -14.99088,-17.30251 -24.32552,-22.66993 -17.67204,-10.16142 -18.81464,-11.27724 -20.09209,-19.62126 -0.86223,-5.63184 0.49851,-9.24907 10.15425,-26.99286 11.63484,-21.38067 11.58897,-21.16232 11.71937,-55.79032 0.0601,-15.95 0.42323,-30.35 0.80704,-32 0.69385,-2.98284 0.35705,-3.25733 -58.89778,-48 -32.77759,-24.75 -60.13148,-45.12651 -60.78642,-45.28113 -1.08192,-0.25542 -13.03708,5.76877 -57.30448,28.87564 l -15.17545,7.92135 -9.57314,-8.25793 -9.57313,-8.25793 -10e-4,-14.06297 -0.001,-14.06296 34.25,-16.30525 c 18.8375,-8.96789 34.55095,-16.58955 34.91879,-16.93703 0.55567,-0.52493 -14.41858,-127.42304 -15.36335,-130.19548 -0.16799,-0.49297 -3.00544,0.8041 -6.30544,2.88238 -3.3,2.07828 -10.17395,6.15965 -15.27544,9.06971 -7.41935,4.23224 -9.6718,6.06794 -11.25614,9.17351 -2.4548,4.8118 -7.74477,10.93809 -9.44489,10.93809 -0.69811,0 -3.44693,0.96327 -6.10848,2.1406 -4.625,2.04586 -5.74822,2.10964 -25.37712,1.441 -24.38264,-0.83056 -30.74412,-2.07342 -43.27169,-8.4541 l -9.26624,-4.71957 -5,2.76728 c -12.98713,7.18782 -26.56573,8.87456 -36,4.47194 -14.952,-6.97715 -19.41205,-24.4704 -12.08511,-47.39715 0.45887,-1.43585 0.30756,-2.25 -0.41816,-2.25 -1.85788,0 -9.15856,-5.42722 -14.20221,-10.55772 l -4.70465,-4.78566 -5.29535,3.5116 c -7.66896,5.08567 -14.92971,7.30714 -23.79535,7.28032 -6.39107,-0.0193 -8.30796,-0.46077 -12.96444,-2.98561 -6.08456,-3.29917 -11.40878,-9.54488 -12.98995,-15.23819 -1.50822,-5.43061 -1.27469,-18.92506 0.44154,-25.51408 7.36059,-28.25923 36.51327,-53.73797 61.44435,-53.70089 12.07209,0.0179 22.29369,7.27472 25.51206,18.11214 1.78969,6.02654 2.09761,19.4256 0.46953,20.4318 -0.68746,0.42488 -0.008,1.82471 1.84888,3.80902 6.1653,6.58844 7.56746,10.53566 5.12935,14.43968 -1.00251,1.60528 0.82787,5.46296 5.71676,12.04858 0.14331,0.19304 1.78369,-0.81076 3.64528,-2.23067 4.80039,-3.66143 15.22533,-8.18225 22.1669,-9.61276 15.16787,-3.12579 29.17718,4.24687 33.10846,17.42394 0.80921,2.71233 1.47128,8.37734 1.47128,12.58893 l 0,7.65742 6.03233,-0.91301 c 5.62417,-0.85124 9.49788,-0.43936 16.71767,1.77754 1.69823,0.52146 2.25,0.28954 2.25,-0.94573 0,-0.90014 2.05029,-5.71899 4.55621,-10.70856 5.37094,-10.69419 11.08069,-16.71742 18.93229,-19.97173 3.03132,-1.25641 5.5115,-2.64682 5.5115,-3.08979 0,-0.44297 -2.21313,-3.24921 -4.91806,-6.23609 -4.27653,-4.72229 -5.01051,-6.17065 -5.6268,-11.10321 -0.84067,-6.72848 0.0195,-15.29423 2.01566,-20.07163 2.17488,-5.20522 10.96683,-13.93139 16.32741,-16.20523 2.58598,-1.09693 8.07679,-2.51321 12.20179,-3.14731 4.125,-0.63409 8.53414,-1.3717 9.7981,-1.63912 l 2.2981,-0.48623 -2.05053,-2.60682 c -7.54397,-9.5906 -9.00242,-37.58915 -2.61466,-50.19478 10.18327,-20.09573 40.1798,-25.90874 64.37668,-12.47554 10.8625,6.03046 12.80331,8.29651 14.66762,17.1256 4.26192,20.18391 3.98996,19.696 10.48252,18.80609 2.61141,-0.35793 8.77898,0.078 14.53878,1.02771 l 10.00339,1.64936 5.84044,-3.57403 c 6.56811,-4.01932 12.61662,-5.24661 25.15956,-5.10506 5.80706,0.0655 9.30227,0.66697 12.75076,2.1941 5.3588,2.3731 14.52312,10.59254 18.91591,16.96562 2.26476,3.28572 3.56289,4.25 5.72141,4.25 4.81738,0 18.31241,3.8899 25.79771,7.43611 3.95218,1.87238 9.21178,5.27182 11.688,7.55432 l 4.50223,4.15001 1.58508,-3.06522 c 2.04873,-3.96181 8.37839,-8.89245 22.562,-17.57522 13.1749,-8.06527 18.4566,-13.08856 22.36931,-21.27489 l 2.78493,-5.82676 -4.1485,-6.61646 -4.14851,-6.61646 -5.63547,2.58001 c -11.24838,5.14968 -25.25948,3.98832 -33.46298,-2.7737 -11.61384,-9.57311 -12.84528,-31.82093 -2.89693,-52.33737 9.82937,-20.27108 25.93108,-34.79102 44.54316,-40.167427 11.1587,-3.22336 23.80547,0.14038 30.34193,8.070247 6.1224,7.42753 7.81416,20.19631 4.60866,34.78445 -1.51971,6.91614 -1.51285,7.54399 0.1095,10.02 0.95193,1.45284 5.05851,4.66184 9.12573,7.1311 l 7.39495,4.48958 6.67419,-4.47615 c 21.56095,-14.46016 43.25077,-11.59685 51.41044,6.78678 3.44449,7.76039 3.28554,23.29332 -0.34315,33.53331 -9.97609,28.1521 -35.38335,50.24652 -57.69453,50.17178 -7.80435,-0.0262 -13.86019,-2.43797 -19.22477,-7.65655 l -3.66895,-3.56909 -2.29446,5.3738 c -6.32228,14.80721 -13.53206,27.98909 -18.89032,34.53779 -3.22394,3.94019 -7.21388,9.84263 -8.86653,13.11652 -1.65266,3.2739 -4.45942,7.17649 -6.23725,8.67244 -2.70896,2.27943 -3.8916,2.63431 -7.30298,2.19137 -14.37937,-1.86703 -14.87176,-1.84414 -27.54548,1.28027 -6.8612,1.69148 -13.7237,3.07541 -15.25,3.07541 -1.5263,0 -2.77509,0.23399 -2.77509,0.51998 0,1.83432 9.6997,19.26122 14.23484,25.57493 6.83999,9.52247 7.39416,10.41187 5.91967,9.50058 -2.10212,-1.29918 -1.20503,-0.006 3.14594,4.5349 4.64797,4.8509 10.383,12.90681 11.75226,16.50826 0.93599,2.46184 6.0939,4.34393 11.94729,4.35951 3.54359,0.009 10,3.18322 10,4.91571 0,2.41603 3.58031,3.95612 11.71287,5.03834 16.5639,2.2042 26.70182,4.78859 57.78713,14.73128 14.73773,4.7139 27.5,12.82833 27.5,17.48489 0,1.29019 1.08375,2.30461 3.25,3.0421 5.13627,1.7486 22.73489,11.03635 30.84823,16.28029 9.76729,6.31294 15.82028,11.70101 24.90177,22.16627 4.94261,5.69574 10.70688,10.89333 16.90475,15.24288 13.22402,9.28037 13.50672,9.76061 13.94911,23.69672 0.24344,7.66875 -0.0496,12.46178 -0.88534,14.47937 -0.72197,1.74298 -4.93416,5.95843 -9.97969,9.98741 -7.02126,5.60665 -9.0723,7.86663 -10.47667,11.54392 -2.82825,7.40567 -10.37499,20.41078 -15.83032,27.28002 -2.78996,3.51304 -8.47221,8.89809 -12.62724,11.96676 -10.09718,7.45722 -18.75894,16.02491 -19.58629,19.37359 -0.55262,2.23668 0.0711,3.66346 3.46488,7.92585 2.27636,2.85898 5.90189,8.83151 8.05674,13.27229 4.83928,9.97293 8.92336,14.36312 18.25493,19.62315 13.13448,7.40367 19.77073,16.23184 16.91431,22.501 -0.63754,1.39926 -1.15917,3.84742 -1.15917,5.44035 0,1.73938 -0.78009,3.44264 -1.95297,4.26416 -1.07414,0.75235 -2.40405,2.55433 -2.95537,4.0044 -1.53051,4.02556 -5.37909,5.95715 -12.94833,6.49872 -9.8112,0.70199 -17.05929,-1.62096 -22.71982,-7.28148 -2.43293,-2.43294 -4.42351,-5.02617 -4.42351,-5.76274 0,-2.2505 -5.18604,-6.41456 -11.37443,-9.13294 -3.23094,-1.41926 -6.26844,-2.58047 -6.75,-2.58047 -0.48156,0 -0.87557,1.50315 -0.87557,3.34034 l 0,3.34033 -70.00003,40.2552 c -38.50001,22.14036 -70.24398,40.64994 -70.54215,41.13238 -0.86046,1.39224 10.51495,21.39633 16.34011,28.7347 6.43906,8.11176 13.13493,13.72716 22.46544,18.84031 8.06651,4.42048 11.71779,9.00998 12.46878,15.67272 0.60695,5.38486 -1.7241,10.35392 -5.53005,11.78831 -1.48615,0.56011 -4.0521,2.29979 -5.7021,3.86595 -1.65,1.56617 -4.8,3.33606 -7,3.93309 -4.8466,1.31526 -13.72955,1.27747 -18.5,-0.0787 z m 20.02384,-6.83677 c 2.4574,-1.25367 4.17768,-2.94258 4.56365,-4.48041 0.80294,-3.19915 -2.17996,-8.3715 -6.34798,-11.00743 -3.07088,-1.94208 -4.31565,-4.5 -2.18985,-4.5 2.18101,0 6.766,3.02601 9.77134,6.44892 3.77483,4.29928 5.179,4.48526 5.179,0.68594 0,-4.16112 -3.20256,-7.60482 -10.80061,-11.61387 -17.895,-9.44215 -27.91277,-20.55701 -40.12656,-44.52099 -10.08854,-19.79414 -12.07283,-25.68348 -12.07283,-35.83196 0,-14.20827 3.48428,-25.74229 15.45721,-51.16804 3.49641,-7.425 8.98639,-20.42843 12.19995,-28.89651 5.1247,-13.50413 6.50746,-16.14228 11.25027,-21.46423 3.46668,-3.89 6.96599,-9.42575 9.75,-15.42406 5.78696,-12.46836 5.8364,-16.89275 0.35141,-31.44815 -2.19513,-5.82519 -5.58179,-16.74378 -7.52591,-24.26354 -3.72263,-14.39894 -5.26416,-18.04646 -14.24211,-33.69927 -5.06699,-8.83416 -5.98553,-9.87832 -10.33638,-11.75 -8.13375,-3.49905 -20.62252,-2.2877 -31.02237,3.00902 -7.89476,4.02085 -24.88207,23.00308 -24.88207,27.80412 0,2.96768 4.51855,13.18353 7.99937,18.08549 1.92534,2.71143 6.18723,8.44131 9.47084,12.73305 3.28362,4.29174 7.44742,10.25631 9.25289,13.25459 4.41841,7.3375 9.2769,20.18287 9.2769,24.52723 0,3.78897 -1.84703,4.83321 -2.71025,1.53226 -0.76228,-2.91495 -2.84623,-2.45304 -5.63949,1.25 -3.21048,4.25617 -15.11944,26.9939 -17.14487,32.73466 -2.9325,8.31169 -4.63922,29.02371 -4.40981,53.51534 0.27851,29.73282 0.31619,29.60459 -16.52399,56.23892 -5.56868,8.80739 -5.44865,17.26667 0.32591,22.96975 1.55448,1.53523 7.01575,5.04133 12.13616,7.79133 12.20835,6.5567 15.11817,8.9786 21.21073,17.65408 6.13498,8.73589 16.93916,19.73801 23.41733,23.84635 4.1001,2.6002 5.66906,3.00025 11.78406,3.00469 5.74199,0.004 7.7983,0.46342 11.05422,2.46879 5.3114,3.27139 15.63557,3.5179 21.52384,0.51393 z m -12.52384,-9.37269 -4,-2.11515 2.88485,-0.32943 c 1.61753,-0.18472 3.53556,0.32126 4.36607,1.15178 2.6947,2.6947 0.81433,3.44246 -3.25092,1.2928 z m -73,-53.28035 c -4.47193,-2.36285 -6.5,-4.41771 -6.5,-6.58586 0,-2.05077 8.49282,-18.31745 10.07361,-19.29443 1.47988,-0.91462 1.13663,0.24331 -2.57361,8.68192 -1.925,4.37824 -3.5,8.82299 -3.5,9.87721 0,1.05422 1.39662,3.50743 3.10359,5.45156 1.70698,1.94414 2.94448,3.51678 2.75,3.49476 -0.19447,-0.022 -1.70359,-0.75334 -3.35359,-1.62516 z m 10.50683,-70.0848 c 0.004,-0.4125 1.59654,-1.83269 3.5395,-3.15597 3.83669,-2.61302 8.28448,-7.84277 10.7163,-12.6003 2.14483,-4.19609 7.42423,-22.9238 8.24416,-29.24467 0.41224,-3.17792 1.08404,-5.00194 1.70166,-4.62023 2.62563,1.62273 -3.01485,26.10062 -8.77313,38.07257 -3.77834,7.85551 -8.39524,12.2986 -12.77971,12.2986 -1.46059,0 -2.65254,-0.3375 -2.64878,-0.75 z m 21.8789,-66.50128 c -1.41318,-7.22113 -1.20783,-12.69945 0.37959,-10.12714 0.80037,1.29695 2.73468,12.30441 2.73468,15.56208 0,5.39475 -1.51093,2.75791 -3.11427,-5.43494 z m 28.9538,-14.45444 c -2.64589,-2.82244 -6.83953,-10.33621 -6.83953,-12.25444 0,-2.3247 1.70882,-0.74546 4.81787,4.45254 3.26947,5.46619 5.93213,7.77332 8.39162,7.27112 0.70978,-0.14492 1.29051,0.4115 1.29051,1.2365 0,2.76322 -4.82523,2.31869 -7.66047,-0.70572 z m -10.51515,-23.79428 c 0.85147,-1.65 3.58118,-5.68861 6.06603,-8.97468 2.66667,-3.52652 4.98709,-7.93046 5.66294,-10.74771 1.08893,-4.53917 2.94665,-5.70736 2.94665,-1.85295 0,3.53826 -6.974,15.64837 -11.56104,20.07534 -4.17405,4.0284 -4.50046,4.1856 -3.11458,1.5 z m 67.17562,117.70567 69,-39.75683 0,-12.86091 0,-12.86091 -11.5,-4.36014 c -6.325,-2.39807 -11.95,-4.35952 -12.5,-4.35877 -0.93242,10e-4 -44.98483,25.14339 -46.22155,26.3801 -0.3099,0.3099 -0.0106,1.22962 0.66514,2.04382 1.42247,1.71397 0.4976,3.82058 -1.48101,3.37334 -0.74302,-0.16795 -8.41016,-10.65537 -17.03809,-23.30537 -8.62794,-12.65 -15.86695,-23.20139 -16.08669,-23.44754 -1.02786,-1.15134 -10.12898,11.04353 -12.58311,16.86047 -1.51508,3.59116 -2.75469,6.82812 -2.75469,7.19325 0,0.36513 5.625,8.43521 12.5,17.93351 6.875,9.4983 12.5,17.90803 12.5,18.6883 0,3.80973 -4.40169,-0.59436 -14.72513,-14.73317 -6.22243,-8.52215 -11.64545,-15.60836 -12.05115,-15.74714 -0.75774,-0.2592 -14.22372,28.44144 -14.22372,30.31564 0,0.57363 2.72618,2.96552 6.05817,5.3153 3.332,2.34979 5.89028,4.77604 5.68506,5.39168 -0.20521,0.61564 -4.84389,3.76564 -10.30817,7.00002 -5.46428,3.23437 -10.25408,6.18822 -10.64399,6.56411 -0.38992,0.37589 -1.4272,3.48709 -2.30508,6.91378 -1.44667,5.64692 -1.45297,7.05991 -0.0673,15.08931 1.45516,8.43222 6.60302,22.18366 8.28952,22.14374 0.4355,-0.0103 31.84182,-17.90933 69.79182,-39.77559 z m -67.26502,-14.38151 c 2.89576,-1.74671 5.49002,-3.36204 5.76502,-3.58963 0.67947,-0.56233 -5.21785,-5.22334 -6.61667,-5.22956 -1.00988,-0.004 -5.38333,9.03629 -5.38333,11.12838 0,1.32203 0.55701,1.11574 6.23498,-2.30919 z m 194.79395,-12.6465 c 2.07179,-1.67764 2.14014,-2.0475 0.86078,-4.65776 -0.76434,-1.55948 -2.06471,-3.13765 -2.88971,-3.50704 -0.825,-0.3694 -3.38915,-1.6484 -5.69812,-2.84224 -2.30896,-1.19384 -5.38396,-2.17062 -6.83333,-2.17062 -1.67005,0 -2.47827,-0.45782 -2.20671,-1.25 0.23569,-0.6875 1.73569,-1.19713 3.33334,-1.13251 3.46671,0.14021 13.63816,4.37871 16.30953,6.79627 2.2824,2.06555 3.58125,0.65858 2.68576,-2.90931 -0.32879,-1.31003 -0.14616,-2.66102 0.40586,-3.00218 3.87439,-2.39451 -2.61341,-10.30244 -12.40807,-15.1241 -9.78787,-4.81831 -15.6328,-10.8857 -21.55293,-22.37321 -2.93736,-5.69971 -6.68662,-11.24979 -9.3651,-13.86329 -4.17238,-4.07115 -4.51078,-4.21941 -5.13585,-2.25 -0.99035,3.12031 -2.53438,2.55682 -2.53438,-0.92491 0,-7.5821 5.57775,-14.13644 26.21868,-30.80925 13.57685,-10.96676 15.66721,-13.61027 24.28132,-30.70661 7.20908,-14.30778 8.54376,-16.31278 13.5,-20.28008 3.25116,-2.60245 6.26975,-6.07955 7.3826,-8.50399 2.37141,-5.16637 3.18624,-14.88908 1.70615,-20.35826 -0.98626,-3.64442 -1.94699,-4.67336 -7.36152,-7.88418 -4.23926,-2.51388 -12.13313,-9.66277 -24.72723,-22.39361 -18.19409,-18.39164 -18.67362,-18.78633 -29,-23.86939 -14.53986,-7.1571 -32.90494,-14.16608 -37.04382,-14.13765 -1.9009,0.0131 -6.01146,1.07472 -9.13459,2.35927 -12.96036,5.3306 -18.40321,13.09579 -21.21594,30.26826 -0.51369,3.13621 -0.46261,3.17761 10.6891,8.66204 6.16289,3.03092 15.93025,7.00439 21.70525,8.82993 7.61771,2.40805 9.7523,3.4105 7.77617,3.65187 -4.9594,0.60574 -30.18867,-7.21447 -36.39555,-11.28137 -4.2295,-2.77128 -4.45752,-2.183 -4.1614,10.73626 l 0.28078,12.25 9.27073,4.80038 c 10.61351,5.49566 15.74167,6.62644 41.72927,9.20146 13.0976,1.2978 18.20515,2.22427 22.25,4.03599 2.8875,1.29334 5.25,2.75142 5.25,3.24018 0,1.72503 -1.23466,2.08327 -3.80796,1.10491 -5.34356,-2.03163 -9.71041,-0.17989 -18.02796,7.64467 -6.13153,5.7681 -8.50019,8.84395 -11.01931,14.30925 -4.5034,9.77026 -8.10705,24.74387 -8.24612,34.26369 -0.10209,6.98842 -1.03103,10.00232 -2.09713,6.80403 -0.20083,-0.6025 -3.15231,2.668 -6.55885,7.26777 -6.1653,8.32486 -10.67175,12.66195 -19.24267,18.51949 -6.49377,4.43797 -8.17425,6.67452 -8.73181,11.62117 -0.59189,5.25126 0.74964,8.11912 5.00993,10.70995 l 3.15048,1.91592 4.18559,-2.45291 4.18559,-2.45292 14.35011,5.38275 14.35011,5.38276 0.28975,8.05763 0.28974,8.05764 6.49467,3.19731 c 6.83727,3.36598 15.42584,10.20683 15.42584,12.28678 0,1.4968 4.58346,5.88231 8,7.6545 8.03655,4.16862 20.1792,5.24258 24.02893,2.12526 z m -4.27145,-18.69702 c -1.50839,-1.30451 -2.34277,-2.61891 -1.85417,-2.92088 1.21754,-0.75248 5.47476,2.82374 4.98864,4.19064 -0.23141,0.65069 -1.51526,0.13061 -3.13447,-1.26976 z m -77.75748,-38.94584 c 0,-5.02481 3.16002,-9.50398 9.15221,-12.9728 l 3.34779,-1.938 -3.59453,4.438 c -5.04198,6.22509 -5.97734,8.32866 -5.27184,11.85614 0.5338,2.66899 0.33169,3.08186 -1.50863,3.08186 -1.8494,0 -2.125,-0.57911 -2.125,-4.4652 z m 32,-41.43934 c 0,-0.4975 2.41354,-2.26666 5.36341,-3.93147 6.64741,-3.75156 10.80599,-8.5402 17.00075,-19.57652 5.29057,-9.42544 6.63584,-10.91098 6.63584,-7.32776 0,3.05895 -6.12642,13.09032 -12.41938,20.33546 -6.53219,7.52055 -16.58062,13.88409 -16.58062,10.50029 z m 29.6498,-41.85308 c -0.25753,-0.41668 -0.78866,-2.55418 -1.18031,-4.75 -0.49259,-2.76184 -0.39045,-3.68416 0.3314,-2.99238 1.13723,1.08984 2.76695,8.5 1.86942,8.5 -0.30375,0 -0.76298,-0.34093 -1.02051,-0.75762 z m 23.45449,-15.25435 c -3.50469,-3.61135 -5.91683,-8.50883 -4.76039,-9.66526 0.24268,-0.24268 1.72708,1.36009 3.29867,3.56172 1.57159,2.20162 4.53283,5.04078 6.58053,6.30923 4.36683,2.70504 4.73594,3.80628 1.27579,3.80628 -1.60556,0 -3.89522,-1.43653 -6.3946,-4.01197 z m -8.97918,-20.16374 c 2.77574,-3.89816 2.76902,-8.15132 -0.0215,-13.62121 -2.53589,-4.97077 -2.63715,-5.89045 -0.4487,-4.07552 5.78479,4.79743 5.56937,20.87244 -0.2797,20.87244 -1.19109,0 -1.03217,-0.673 0.74991,-3.17571 z M 671.85313,625.82496 c 6.6,-3.83867 12.98532,-7.59332 14.1896,-8.34367 l 2.1896,-1.36426 -3.04734,-3.04735 c -2.94807,-2.94807 -3.03493,-3.29321 -2.66623,-10.59456 l 0.38112,-7.54722 5.99103,-5.67196 c 3.29506,-3.11958 9.55219,-8.59696 13.90471,-12.17196 10.86301,-8.92246 14.29856,-15.21061 15.67625,-28.69253 1.11346,-10.89616 4.00787,-20.50152 9.89407,-32.8343 3.34524,-7.00896 4.90644,-9.01942 10.56024,-13.59905 l 6.63466,-5.37412 -5.35386,-0.24832 c -20.93486,-0.971 -33.54222,-3.82557 -47.13243,-10.67178 l -6.77858,-3.41478 -32.22142,19.29909 -32.22142,19.2991 0.29115,5.36834 c 0.17299,3.18986 2.54355,12.0641 5.84165,21.86835 5.19527,15.44399 5.5225,16.98 5.11302,24 -0.32382,5.55135 -1.21852,9.20484 -3.44353,14.06163 l -3.00604,6.56164 14.47493,21.15769 c 13.50726,19.74326 14.61712,21.08354 16.60188,20.04856 1.16982,-0.61002 7.52694,-4.24986 14.12694,-8.08854 z M 541.77817,614.33398 c 0.98466,-3.1625 3.82243,-9.70692 6.30615,-14.54314 2.48372,-4.83623 4.34777,-8.93043 4.14233,-9.09821 -0.20544,-0.16779 -23.32352,-16.83755 -51.37352,-37.04391 -28.05,-20.20637 -51.1275,-37.48718 -51.28334,-38.4018 -0.21578,-1.26645 6.54067,-5.07041 28.3379,-15.95457 25.99604,-12.98077 28.49927,-14.44832 27.29152,-16 -1.08448,-1.3933 -16.75133,-19.03018 -21.34407,-24.02798 -0.98908,-1.07631 -5.76259,0.95183 -25.89003,11 -17.60965,8.79121 -24.89364,11.97143 -25.43249,11.10391 -0.41532,-0.66863 -3.16454,-21.36863 -6.10938,-46 -2.94485,-24.63136 -5.62783,-45.30761 -5.96219,-45.94721 -0.90926,-1.73935 -30.25597,-34.33709 -30.9126,-34.33709 -0.31153,0 -1.51451,0.89069 -2.6733,1.97931 l -2.10688,1.97931 8.25093,67.27069 c 4.53801,36.99888 8.2696,67.98469 8.29243,68.85735 0.0291,1.11395 -10.31154,6.52159 -34.7085,18.15078 l -34.75,16.56412 -0.27905,11.88342 -0.27904,11.88342 5.73304,4.9658 c 3.15317,2.73119 6.70895,5.74089 7.90172,6.68822 2.11416,1.67913 3.06868,1.2548 37.97242,-16.88037 31.51722,-16.37561 36.04094,-18.45466 37.7849,-17.36554 1.08964,0.68049 28.05375,20.98915 59.92026,45.13037 31.86651,24.14122 58.26342,43.89312 58.65981,43.89312 0.39638,0 1.52633,-2.5875 2.51098,-5.75 z m 18.35588,-33.75696 5.18619,-6.50697 -4.32837,-8.24303 c -5.66409,-10.7868 -6.63293,-12.28346 -16.52083,-25.52122 -5.62966,-7.5369 -9.01704,-11.22182 -10.31574,-11.22182 -1.06351,0 -2.80877,-0.46835 -3.87835,-1.04077 -2.28388,-1.22229 -8.86513,-14.05056 -14.98515,-29.20923 -2.38705,-5.9125 -4.74118,-10.75 -5.23139,-10.75 -1.77918,0 -54.77694,27.26409 -54.18225,27.87344 1.14614,1.1744 97.97273,71.02881 98.52234,71.07779 0.30105,0.0268 2.88115,-2.87936 5.73355,-6.45819 z m -27.31536,-58.24304 c -1.91475,-4.47719 -1.49094,-6.98858 2.53501,-15.02189 5.37063,-10.71648 13.19953,-19.2167 21.43155,-23.26931 7.86158,-3.87024 21.61006,-6.38061 30.81879,-5.62728 l 6.75091,0.55227 -0.64881,-14.27896 c -0.62805,-13.82198 -0.56829,-14.45483 1.86723,-19.77473 3.27335,-7.14992 7.93706,-10.91504 20.39878,-16.46839 l 10.11901,-4.50936 0.52189,-6.17617 c 0.87102,-10.30789 7.36518,-24.27268 9.65,-20.75101 0.6452,0.99446 0.18049,2.4008 -1.53763,4.65337 -3.05063,3.99959 -4.65401,12.79365 -3.01746,16.54986 l 1.14517,2.6284 15,-6.82315 c 16.67511,-7.58512 21.6272,-8.44637 29,-5.04361 6.38332,2.94609 8.90714,6.37827 9.5111,12.93426 l 0.52286,5.6757 1.66021,-3.05954 c 5.0949,-9.38921 16.4797,-16.39797 27.97203,-17.22024 8.43204,-0.60331 7.97212,-1.63827 -3.05583,-6.87657 -16.15268,-7.67255 -32.72405,-12.42871 -65.59187,-18.82555 -12.68043,-2.4679 -17.23946,-3.74583 -18,-5.04551 -1.80753,-3.08888 -5.67081,-7.47259 -6.58546,-7.47259 -0.48904,0 -4.32871,1.61033 -8.53258,3.57852 -5.72954,2.68248 -7.92599,3.29161 -8.77194,2.43268 -0.84047,-0.85337 -0.63306,-1.51153 0.81261,-2.57852 1.06762,-0.78797 2.53012,-1.43268 3.25,-1.43268 2.13626,0 1.52085,-1.94327 -2.23629,-7.06152 -3.11024,-4.23699 -4.12236,-4.9177 -8.25,-5.54855 -8.67414,-1.32573 -22.42773,-0.8682 -26.45484,0.88006 -3.57068,1.55011 -3.75,1.53926 -3.75,-0.22701 0,-2.78208 7.75847,-5.03782 19.75,-5.74222 6.77517,-0.39798 10.25,-0.99611 10.25,-1.76434 0,-2.5604 -5.65373,-6.48327 -10.99463,-7.62869 -7.48737,-1.60575 -22.81838,-0.58444 -31.50537,2.0988 -8.26856,2.554 -25.34415,11.33104 -34.5,17.73338 -8.18261,5.72179 -29.03513,26.707 -31.31754,31.51682 -1.60913,3.39099 -1.6122,3.8875 -0.0491,7.93037 0.9171,2.3721 2.04978,4.7404 2.51707,5.2629 0.46729,0.5225 0.85651,2.9975 0.86493,5.5 0.0198,5.88997 1.57248,8.67867 2.50425,4.49785 3.28599,-14.74414 7.93755,-22.45358 22.65041,-37.54053 8.7301,-8.95207 11.62574,-11.23657 18.69583,-14.75 8.28727,-4.1183 13.69818,-5.34925 12.89277,-2.93302 -0.22446,0.67336 -1.72446,1.50103 -3.33334,1.83928 -6.04043,1.2699 -15.95589,7.28245 -21.9497,13.30988 -6.10832,6.14258 -14.54835,18.77492 -21.66766,32.43035 -5.22623,10.02434 -5.24135,15.40768 -0.0775,27.58737 3.56354,8.4051 3.78634,8.69631 4.0754,5.32684 0.19992,-2.33027 -0.57909,-5.31057 -2.25,-8.60794 -2.94226,-5.8062 -3.00528,-6.11008 -1.26711,-6.11008 0.70879,0 2.82693,2.53804 4.70697,5.64009 3.01394,4.97298 3.40936,6.42192 3.34308,12.25 -0.0413,3.63545 -0.58197,8.40991 -1.20139,10.60991 -1.67869,5.96222 -1.38016,12.50326 0.90887,19.9143 1.66738,5.39834 17.00076,43.14208 18.62073,45.8357 0.94791,1.57613 2.52525,0.69913 1.79859,-1 z m 31.53444,-89.80523 c -9.96809,-2.7405 -20.4564,-3.11657 -25.70917,-0.92182 -2.50094,1.04496 -3.96823,1.19965 -4.67502,0.49286 -1.8679,-1.8679 1.80639,-4.08604 8.28536,-5.00184 12.02794,-1.70014 35.09883,2.61043 35.09883,6.55788 0,1.92192 -2.78945,1.68008 -13,-1.12708 z m -18,-19.37197 c 0,-4.0415 4.87211,-7.86785 18.5,-14.52912 16.6828,-8.1545 39.11018,-14.54368 51.05145,-14.54368 7.69284,0 5.68936,1.77176 -2.80648,2.4819 -21.18892,1.77111 -48.51203,12.73704 -59.75517,23.98229 -3.01939,3.01996 -5.8273,5.50095 -6.2398,5.51332 -0.4125,0.0124 -0.75,-1.29475 -0.75,-2.90471 z m -2,-13.72841 c 0,-4.86515 12.91318,-14.85971 30.5,-23.60642 9.51956,-4.73451 21.25313,-9.31817 21.98354,-8.58776 0.23961,0.23961 -5.05867,3.33991 -11.77394,6.88957 -15.32831,8.10246 -27.90249,16.46167 -33.66781,22.38208 -4.63394,4.7586 -7.04179,5.75792 -7.04179,2.92253 z m 107.12797,98.85391 31.37203,-18.8017 -0.34348,-30.4483 c -0.33323,-29.53905 -0.40789,-30.51934 -2.5,-32.82718 -2.77017,-3.05581 -7.65086,-5.12112 -12.10208,-5.12112 -4.45531,0 -59.85152,24.95238 -63.80487,28.73993 -1.51506,1.45152 -3.72022,4.63372 -4.90037,7.07157 -2.00921,4.15049 -2.10297,5.37958 -1.47384,19.32138 l 0.67186,14.88893 4.01478,5.2391 c 3.95179,5.1569 14.03436,24.09216 15.16976,28.48909 0.31955,1.2375 1.01822,2.25 1.55259,2.25 0.53437,0 15.089,-8.46077 32.34362,-18.8017 z m -38.4613,-18.86497 c -1.3985,-1.39849 -0.69714,-21.3245 0.88401,-25.11545 1.97802,-4.74246 6.84788,-9.82578 11.91235,-12.43451 8.55543,-4.40694 33.98185,-14.84434 35.46589,-14.55854 4.29987,0.82808 0.10853,3.53366 -16.59612,10.71307 -9.99196,4.2944 -19.51584,8.76831 -21.16417,9.94203 -5.07948,3.61691 -7.16863,9.40295 -7.16863,19.85401 0,10.93825 -0.89166,14.04107 -3.33333,11.59939 z M 505.40462,463.54515 c -1.04087,-7.82162 -8.75682,-31.95855 -12.45488,-38.96117 -0.87136,-1.65 -1.58706,-4.02533 -1.59045,-5.27852 -0.003,-1.25318 -1.35616,-4.95285 -3.00616,-8.22148 -1.65,-3.26863 -3,-6.64363 -3,-7.5 0,-2.60804 -6.01441,-13.67265 -10.59965,-19.5 -2.38021,-3.025 -7.15651,-7.36811 -10.614,-9.65135 -7.56567,-4.99618 -29.29625,-18.48542 -32.76851,-20.34103 -2.21535,-1.1839 -15.27757,-4.94694 -17.3229,-4.99048 -0.44278,-0.009 0.95785,1.89536 3.11251,4.23286 2.15465,2.3375 8.10032,8.975 13.21258,14.75 5.11226,5.775 16.31163,18.0901 24.88749,27.36688 8.57587,9.27678 15.75681,17.30726 15.95765,17.8455 0.20084,0.53825 -0.33525,0.82315 -1.19132,0.63312 -1.83151,-0.40655 -17.68479,-17.22662 -43.34443,-45.98772 -17.12553,-19.19548 -18.74086,-20.72395 -23.04774,-21.80844 -4.56108,-1.14849 -4.68256,-1.11513 -7.99245,2.19476 l -3.36098,3.36098 56.78588,62.94746 c 63.17923,70.03453 58.62223,66.07843 56.33736,48.90863 z m -47.67822,1.99755 c 19.84683,-9.64891 21.57415,-10.69251 20.40452,-12.32783 -1.99069,-2.78331 -52.10912,-58.1329 -52.38703,-57.85498 -0.16904,0.16904 8.3102,71.43921 9.57426,80.47409 0.0745,0.53212 1.36056,-0.0585 22.40825,-10.29128 z M 330.62711,394.0596 c 1.57303,-0.74768 3.04082,-2.43484 3.39034,-3.89706 1.5089,-6.31252 5.21007,-11.07856 8.60328,-11.07856 1.94971,0 1.86145,0.27164 -1.07143,3.29761 -2.89742,2.98938 -4.13391,5.70239 -2.59893,5.70239 0.32848,0 2.53946,-2.16021 4.91328,-4.80048 2.87538,-3.19811 8.9848,-7.56713 18.30305,-13.08905 7.69286,-4.55871 16.5848,-10.60394 19.75987,-13.43383 8.50934,-7.58425 14.68922,-17.70069 18.60661,-30.45896 2.68672,-8.75021 3.95806,-11.35579 7.04894,-14.44667 2.07405,-2.07405 4.67101,-3.77101 5.77101,-3.77101 3.47444,0 2.16074,2.81146 -2.21062,4.73097 -2.13214,0.93625 -3.054,2.42579 -4.31963,6.97965 -0.88496,3.18416 -2.69842,9.13115 -4.0299,13.21553 -1.33149,4.08438 -2.31265,7.4986 -2.18037,7.58715 0.13229,0.0885 6.31552,1.84816 13.74052,3.91025 7.425,2.0621 15.75,4.42973 18.5,5.26142 6.746,2.0402 19.39333,9.70338 34.56044,20.9406 10.97196,8.12906 13.0469,10.13776 16.40697,15.88322 2.11559,3.6175 4.14582,6.22041 4.51162,5.78424 0.3658,-0.43617 2.18991,-2.81803 4.05358,-5.29303 1.86366,-2.475 6.92834,-8.16618 11.25484,-12.64707 l 7.86637,-8.14706 -3.32691,-1.05285 c -6.78242,-2.1464 -10.48901,-2.29533 -16.74969,-0.67303 -3.46416,0.89765 -6.55619,1.37438 -6.87118,1.05939 -2.62377,-2.62378 12.80599,-5.8141 21.8891,-4.52589 3.63854,0.51604 7.24313,1.17713 8.0102,1.4691 0.76706,0.29196 4.14996,-1.51424 7.51754,-4.01377 l 6.12288,-4.54461 -1.87288,-3.67355 c -2.00992,-3.94234 -2.51081,-9.25066 -0.87288,-9.25066 0.55,0 1,1.32491 1,2.94424 0,1.64024 1.03039,4.14213 2.32648,5.64893 l 2.32648,2.7047 7.92352,-3.96486 c 4.35794,-2.18066 9.38602,-4.47427 11.17352,-5.09691 2.32884,-0.8112 3.28288,-1.78453 3.366,-3.43408 0.0854,-1.69407 0.23678,-1.83986 0.57333,-0.55202 0.48898,1.87115 3.44427,2.19659 6.81067,0.75 1.90836,-0.82005 1.8969,-0.86265 -0.25,-0.92971 -1.2375,-0.0387 -2.25,-0.58671 -2.25,-1.21789 0,-0.82949 2.62345,-0.96319 9.46427,-0.48233 5.20534,0.3659 10.15534,0.93047 11,1.25459 1.24155,0.47643 1.53573,-0.27753 1.53573,-3.93588 0,-4.9666 0.7392,-7.68878 2.08786,-7.68878 0.48063,0 0.62227,1.9125 0.31474,4.25 -0.70565,5.36354 0.78912,7.31882 6.20814,8.12076 l 4.11074,0.60834 -9.28173,-15.60669 c -10.34669,-17.39737 -11.89051,-22.00671 -12.94495,-38.64944 -0.69101,-10.90666 -1.81881,-14.27241 -7.97106,-23.78846 -4.07533,-6.30354 -4.38517,-6.54909 -7.7661,-6.15438 -1.93678,0.22611 -3.82612,-0.0819 -4.19855,-0.68451 -0.4046,-0.65466 0.12782,-1.09562 1.32288,-1.09562 3.85403,0 3.14889,-1.9512 -1.59496,-4.41342 -2.63285,-1.36655 -6.13701,-3.4046 -7.78701,-4.52901 -1.65,-1.12442 -4.4257,-2.04736 -6.16821,-2.05098 -3.74715,-0.008 -6.33179,-0.87056 -6.33179,-2.11358 0,-1.48856 6.16992,-0.94166 11.97234,1.06124 3.00979,1.03893 5.82229,1.67268 6.25,1.40834 3.93992,-2.43501 -5.16027,-16.98728 -15.72139,-25.14036 -8.27673,-6.38955 -12.51093,-7.64889 -23.00095,-6.841 -10.12159,0.77952 -13.89068,1.84649 -19.83136,5.61396 l -4.76231,3.02017 2.79683,2.40725 c 1.53826,1.32398 2.45757,2.7473 2.0429,3.16293 -0.41467,0.41562 -1.76467,-0.16486 -3,-1.28997 -3.31797,-3.02191 -5.42478,-3.88904 -14.11741,-5.81045 -9.87774,-2.18337 -14.85562,-1.69653 -30.74965,3.00733 -19.53935,5.78269 -26.68915,10.31345 -37.87226,23.9993 -6.77241,8.28805 -10.31374,10.82911 -17.50674,12.56183 -11.51386,2.77358 -26.18979,12.50462 -29.92514,19.84218 -1.51646,2.97889 -5.90321,21.10922 -5.26252,21.74991 0.23304,0.23304 2.3385,-0.007 4.67881,-0.53235 4.16404,-0.93559 7.00885,-0.60649 7.00885,0.81083 0,0.39059 -3.30916,1.4903 -7.35369,2.4438 -8.69437,2.0497 -18.33045,6.42181 -23.93253,10.85874 -5.17331,4.09734 -11.01366,13.15946 -13.71759,21.28474 l -2.12722,6.39232 2.176,2.9432 c 1.1968,1.61876 5.05128,4.62473 8.56551,6.67993 3.51424,2.0552 6.38952,4.10248 6.38952,4.54951 0,2.19081 -12.12766,-4.2215 -23.82326,-12.59618 -4.03835,-2.89168 -10.0209,-3.90084 -16.57121,-2.79531 -5.30354,0.8951 -5.17952,0.7528 -9.03459,10.3664 -3.56507,8.89041 -9.69417,18.01793 -17.90146,26.65901 l -6.84834,7.21031 3.21457,1.9549 c 1.76801,1.0752 7.54576,3.41534 12.83943,5.20032 8.10572,2.73317 11.75563,3.36068 23.12486,3.97573 17.50609,0.94704 28.81072,0.57017 32.27398,-1.07595 z m -13.53235,-4.55502 c -0.4171,-0.42387 2.47142,-1.59089 6.41893,-2.59337 3.94752,-1.00248 7.36533,-1.63467 7.59514,-1.40487 0.2298,0.22981 -0.75271,1.1848 -2.18336,2.1222 -2.85211,1.86877 -10.62498,3.10135 -11.83071,1.87604 z m -22.58327,-18.3306 c -5.72385,-1.97671 -10.0044,-5.09 -6.99837,-5.09 0.87371,0 3.40761,0.6418 5.63091,1.42622 8.2643,2.91582 12.37407,2.9506 19.00228,0.16083 7.10143,-2.98895 8.20682,-3.13764 8.20682,-1.1039 0,0.81574 -2.23504,2.61574 -4.96676,4 -6.04821,3.06486 -13.15877,3.27157 -20.87488,0.60685 z m 51.84402,-18.84 c 0.001,-0.4125 2.37105,-1.98756 5.26611,-3.50014 8.05308,-4.20748 14.9315,-16.09165 16.36294,-28.27103 0.41213,-3.50652 1.11311,-5.47883 1.94723,-5.47883 0.71682,0 1.5351,0.37505 1.8184,0.83344 0.69883,1.13072 -2.78448,17.79708 -4.64805,22.23929 -2.15841,5.145 -7.60364,10.95584 -12.24043,13.06229 -4.11739,1.87049 -8.51042,2.44632 -8.5062,1.11498 z m 86.0534,-11.19422 c -1.06933,-1.06933 -2.17322,-3.43183 -2.4531,-5.25 -1.50347,-9.76685 -1.89349,-11.46746 -3.21688,-14.02661 -1.38544,-2.67915 -1.66003,-2.76441 -6.91427,-2.14688 -6.29592,0.73996 -7.71399,-0.99395 -1.72153,-2.10496 5.59258,-1.03687 9.69097,-3.99743 12.27392,-8.86635 3.28394,-6.19028 2.37736,-7.65757 -4.74254,-7.67572 -6.54815,-0.0167 -10.59014,-1.63445 -11.13353,-4.45606 -0.35401,-1.83824 -0.26867,-1.84728 1.99114,-0.21075 4.14048,2.99848 4.97659,3.04702 14.25479,0.82761 13.1505,-3.14568 16.828,-2.74401 15.12341,1.65183 -0.60937,1.57148 -0.76528,1.55914 -2.03139,-0.16076 -1.15773,-1.57269 -1.96441,-1.72015 -5.17858,-0.94663 -3.59222,0.86449 -3.78893,1.11087 -3.48327,4.36287 0.43763,4.65608 2.85339,6.84591 9.27864,8.41086 l 5.39741,1.31461 -5,0.0667 c -2.75,0.0367 -6.63239,-0.51659 -8.62753,-1.22948 -3.53604,-1.26348 -3.69369,-1.21327 -6.25,1.99046 -3.14476,3.9412 -3.14263,3.91676 -0.62247,7.12062 1.52422,1.93773 2,4.05678 2,8.90773 0,6.3678 1.42399,9.3398 5.05491,10.55011 1.48546,0.49515 0.59477,3.81503 -1.02353,3.81503 -0.56726,0 -1.90628,-0.8749 -2.9756,-1.94422 z m 69.64134,-2.55578 c -1.86954,-1.925 -3.94276,-3.5 -4.60716,-3.5 -0.66439,0 -0.92988,-0.45 -0.58996,-1 1.07323,-1.73652 3.10213,-1.09675 6.34258,2 3.97295,3.79676 8.39721,4.28427 12.87224,1.4184 2.46727,-1.58008 7.28518,-1.91869 7.28518,-0.51202 0,0.49851 -0.88868,0.67398 -1.97485,0.38995 -1.2359,-0.3232 -3.13551,0.46019 -5.07673,2.09362 -4.68241,3.93998 -9.87547,3.6157 -14.2513,-0.88995 z m -47.39789,-2.56987 c -5.23407,-1.57279 -5.38628,-3.38182 -0.20237,-2.40516 2.42173,0.45626 6.31564,0.74555 8.65314,0.64286 2.3375,-0.10269 4.25,0.26754 4.25,0.82273 0,0.55519 -0.84375,1.00944 -1.875,1.00944 -1.03125,0 -3.16875,0.20069 -4.75,0.44597 -1.58125,0.24528 -4.31535,0.0131 -6.07577,-0.51584 z m 98.52045,-0.68013 c -0.81966,-0.9625 -2.11423,-3.3217 -2.87682,-5.24266 -0.76259,-1.92097 -2.92481,-5.19536 -4.80493,-7.27643 -4.31432,-4.77544 -3.51074,-5.87515 1.24311,-1.70122 2.10967,1.85232 4.0076,4.6999 4.6008,6.90285 0.55535,2.06242 1.91162,4.56606 3.01394,5.56364 2.08312,1.8852 2.61863,3.50382 1.15921,3.50382 -0.46476,0 -1.51565,-0.7875 -2.33531,-1.75 z m 20.93032,0.41821 c -0.4125,-1.00748 -0.75,-3.14498 -0.75,-4.75 0,-2.89668 -2.06905,-5.73822 -5.62883,-7.73037 -2.67438,-1.49666 -0.84471,-2.72463 2.0765,-1.39363 3.43597,1.56553 5.72276,6.4797 5.35708,11.51201 -0.2189,3.01238 -0.51603,3.67776 -1.05475,2.36199 z m -97.2152,-2.7718 c -1.94414,-1.70698 -3.5348,-4.04117 -3.5348,-5.18709 0,-1.98043 0.13604,-1.95372 2.75,0.53997 3.94495,3.76344 7.90182,4.98627 13.59917,4.20269 3.88882,-0.53485 4.79832,-0.39394 4.43845,0.68766 -0.50186,1.50836 -4.34498,2.56186 -10.00282,2.74205 -2.83197,0.0902 -4.55555,-0.61952 -7.25,-2.98528 z m 43.4652,-2.09169 c 0,-1.90741 5.19562,-6.80472 7.21921,-6.80472 3.81783,0 8.70189,-2.83746 9.35361,-5.4341 0.88654,-3.53227 2.42718,-3.22787 2.42718,0.47955 0,4.52779 -3.87812,7.95455 -9.00229,7.95455 -3.08158,0 -4.66583,0.61787 -6.41013,2.5 -2.54797,2.74931 -3.58758,3.12739 -3.58758,1.30472 z m -57.41353,-7.6648 c -0.33216,-0.53745 0.6375,-1.25571 2.1548,-1.59614 1.5173,-0.34043 3.88373,-1.47838 5.25873,-2.52877 2.48292,-1.89676 2.5,-2.01911 2.5,-17.90949 0,-11.34953 0.35846,-16.35899 1.23333,-17.23594 1.98629,-1.99098 2.49502,-0.36379 1.21842,3.89712 -0.98509,3.28795 -0.88884,5.13204 0.56616,10.84735 3.0849,12.11763 2.08258,18.51951 -3.51791,22.46916 -3.08011,2.1722 -8.59718,3.37759 -9.41353,2.05671 z m 28.20085,-6.2786 c 4.03261,-2.58222 6.21268,-6.58664 6.21268,-11.41166 0,-2.81726 0.77546,-4.42512 3.4,-7.04966 2.88799,-2.88799 4.09755,-3.4 8.03212,-3.4 2.54766,0 6.20886,-0.6588 8.13599,-1.46401 6.98094,-2.91683 8.19474,-12.82137 2.96986,-24.23401 -1.39588,-3.04902 -2.53797,-6.05035 -2.53797,-6.66963 0,-2.07231 6.99206,8.67964 7.99704,12.29735 1.15402,4.15424 1.3092,15.05486 0.23765,16.69446 -1.80488,2.76167 -7.91109,5.3685 -12.58356,5.3721 -2.66688,0.002 -6.35011,0.71612 -8.18495,1.58681 -2.81562,1.3361 -3.50317,2.36215 -4.40704,6.57679 -1.83443,8.55364 -5.6607,13.85157 -9.98345,13.82329 -2.54594,-0.0167 -2.53772,-0.0412 0.71163,-2.12183 z m 72.79274,0.38868 c -0.4143,-0.4125 -4.52273,-0.75 -9.12985,-0.75 -6.11223,0 -8.78223,-0.40548 -9.87722,-1.5 -1.33395,-1.33338 -0.39705,-1.5 8.43424,-1.5 8.96916,0 10.1537,0.21871 12.18605,2.25 1.73849,1.7376 1.89691,2.25 0.69561,2.25 -0.85556,0 -1.89453,-0.3375 -2.30883,-0.75 z m -24.93787,-2.75067 c -0.82537,-0.82537 -2.0207,-4.08787 -2.65629,-7.25 -0.63559,-3.16213 -2.27614,-7.47812 -3.64567,-9.59109 -3.12448,-4.82058 -2.35457,-5.82643 1.50527,-1.96658 2.07034,2.07034 3.29584,4.68452 4.15901,8.87179 0.67306,3.2651 1.85895,7.17405 2.6353,8.68655 1.52771,2.97631 0.42131,3.66826 -1.99762,1.24933 z m 22.35781,-9.54899 c 0,-2.77731 -0.70818,-6.41913 -1.57374,-8.09293 -1.97826,-3.82554 -0.88706,-5.13816 1.65982,-1.99663 1.43919,1.77522 1.91392,3.94556 1.91392,8.75 0,3.59281 -0.43768,6.38922 -1,6.38922 -0.55,0 -1,-2.27235 -1,-5.04966 z m -110.54775,-2.59636 c -3.36166,-3.62729 -3.08437,-4.8812 0.49433,-2.23535 2.63841,1.95066 3.70813,2.10772 10.22819,1.50174 7.87531,-0.73193 8.58908,0.71858 1.19749,2.43351 -6.58467,1.52772 -9.28574,1.14252 -11.92001,-1.6999 z m -80.45225,-7.78589 c 0,-1.73914 3.01681,-3.87547 13.5,-9.55987 6.80437,-3.6896 9.08202,-4.40757 15.23986,-4.80393 4.92058,-0.31672 7.72011,-0.0674 8.73899,0.77816 2.60408,2.16119 0.57474,3.16816 -4.98489,2.47353 -5.12863,-0.64078 -5.76157,-0.43361 -18.15393,5.94212 -7.06202,3.63333 -13.17753,6.60512 -13.59003,6.60397 -0.4125,-10e-4 -0.75,-0.64643 -0.75,-1.43398 z m 69.96483,-5.11047 c -1.83013,-2.20517 0.14475,-4.02822 2.66727,-2.46221 1.49038,0.92524 2.84576,0.73926 6.70616,-0.9202 6.08871,-2.61733 12.66174,-3.76097 12.66174,-2.20302 0,0.6203 -1.2375,1.136 -2.75,1.14601 -1.5125,0.01 -4.73022,1.36001 -7.15048,3 -4.85777,3.29166 -10.08306,3.91149 -12.13469,1.43942 z m 110.63876,-1.10631 c -2.41792,-1.30947 -3.80839,-1.38546 -8.41678,-0.45996 -3.03621,0.60976 -6.08579,1.10865 -6.77687,1.10865 -1.94527,0 -7.40994,-4.98772 -7.40994,-6.76321 0,-1.27022 0.46769,-1.14604 2.35246,0.6246 2.17152,2.04004 2.97451,2.15814 10.44065,1.53549 7.72539,-0.64428 8.22665,-0.55804 11.17463,1.92252 1.89067,1.5909 3.72061,2.35369 4.72338,1.96889 1.09525,-0.42029 1.39769,-0.241 0.91391,0.54177 -0.97849,1.58322 -3.51422,1.40983 -7.00144,-0.47875 z m -137.97879,-7.14938 c -0.97717,-1.58109 0.066,-1.87847 9.33575,-2.66146 12.5314,-1.05851 20.29659,-5.87696 27.14375,-16.84325 1.78478,-2.85847 4.40395,-6.47724 5.82038,-8.04171 3.47967,-3.84336 12.15917,-8.10899 22.73698,-11.17432 9.10145,-2.63749 10.29747,-3.4753 10.32303,-7.23119 0.008,-1.2375 0.52456,-2.25 1.14698,-2.25 1.64723,0 0.40856,7.74557 -1.59224,9.95643 -0.89653,0.99065 -4.42216,2.34593 -7.83474,3.01172 -10.3452,2.01834 -18.99858,7.25363 -25.53941,15.45135 -7.44307,9.32852 -13.59185,15.12735 -18.58869,17.53076 -4.78923,2.30354 -21.88329,3.98054 -22.95179,2.25167 z m 61.3752,-2.66826 c 0,-4.92813 3.70161,-8.55458 17.25425,-16.90391 4.26484,-2.62743 8.20234,-5.6144 8.75,-6.63771 1.4336,-2.67869 1.22609,-5.55599 -0.50425,-6.99205 -0.825,-0.68469 -1.48578,-1.97729 -1.4684,-2.87244 0.0233,-1.19812 0.68291,-0.88724 2.5,1.1782 5.33027,6.05878 0.81072,19.69424 -6.52778,19.69424 -3.19286,0 -10.79678,2.54515 -13.34705,4.46746 -1.01377,0.76415 -2.42902,3.09333 -3.14499,5.17595 -1.35638,3.94544 -3.51178,5.71938 -3.51178,2.89026 z m 79,-3.09353 c 0,-1.70989 -1.70836,-4.3662 -5.14506,-8 -5.06683,-5.35743 -5.1885,-7.01526 -0.27877,-3.79828 4.62941,3.03331 9.69614,14.35814 6.42383,14.35814 -0.55,0 -1,-1.15194 -1,-2.55986 z m -15.52778,-17.3985 c -1.66986,-1.65812 -2.58448,-1.81915 -5.96585,-1.05036 -6.81122,1.5486 -15.60549,-1.28846 -19.73413,-6.3663 -2.93741,-3.61273 -1.97954,-3.62924 3.32825,-0.0574 4.78468,3.21986 5.61097,3.43238 13.34501,3.43238 8.33924,0 9.52763,0.47192 11.96141,4.75 1.09342,1.922 -0.72861,1.48221 -2.93469,-0.70836 z m -27.62251,-18.96985 c -7.54041,-0.44678 -10.10936,-0.98829 -11.75,-2.47678 -3.21822,-2.91977 -2.75036,-5.25197 0.53515,-2.66759 2.16153,1.70026 4.05666,2.07258 10.54966,2.07258 5.13873,0 8.94961,0.53512 10.86514,1.52568 3.33921,1.72677 3.77385,2.55818 1.20034,2.29611 -0.9625,-0.098 -6.09263,-0.43552 -11.40029,-0.75 z M 234.22217,390.63122 c 12.58285,-3.34904 24.71104,-11.74506 34.35646,-23.78404 17.23775,-21.5154 20.49005,-47.02583 7.45442,-58.47112 -8.04338,-7.0621 -19.86083,-7.04462 -34.06778,0.0504 -10.27731,5.13253 -17.45762,11.00949 -24.27396,19.86783 -20.35173,26.44861 -19.9353,55.81898 0.88361,62.31999 5.60371,1.74983 9.12226,1.75365 15.64725,0.017 z m -24.52361,-12.08945 c -0.32549,-0.84821 -0.39585,-5.27552 -0.15636,-9.83845 0.36489,-6.95201 1.03053,-9.54932 4.10816,-16.02994 9.32056,-19.62646 25.07704,-36.12406 39.86942,-41.74472 5.21432,-1.98128 17.83335,-2.57899 17.83335,-0.84468 0,0.56956 -2.95521,1 -6.86564,1 -5.90325,0 -7.89025,0.51259 -14.175,3.65672 -21.69822,10.85518 -42.83027,43.64192 -39.17494,60.78061 0.92434,4.33395 -0.10548,6.49554 -1.43899,3.02046 z m -1.34543,-44.63246 c 1.925,-3.36335 6.33797,-9.18197 9.80659,-12.93025 5.4956,-5.93869 6.1662,-7.0774 5.21482,-8.85507 -0.60048,-1.12201 -1.52465,-2.04001 -2.05371,-2.04001 -2.14958,0 -9.17684,7.61242 -12.11354,13.12225 -3.27036,6.13582 -4.85416,7.35799 -4.85416,3.74578 0,-3.29981 3.56016,-8.30219 10.15778,-14.27269 4.43396,-4.0125 5.86761,-5.93128 5.4341,-7.27291 -0.6125,-1.89557 -6.4164,-6.32243 -8.2891,-6.32243 -2.10439,0 -12.86227,12.73829 -16.30278,19.30395 -3.65523,6.9754 -5,8.18886 -5,4.51177 0,-4.1774 4.28105,-10.97973 12.12581,-19.26718 8.79578,-9.29213 9.01891,-10.41374 2.71177,-13.6314 -3.89137,-1.98523 -3.93263,-1.98547 -6.62667,-0.0387 -3.82222,2.76202 -10.22288,9.70628 -14.62913,15.87156 -3.48028,4.86964 -6.58178,6.80307 -6.58178,4.10299 0,-1.49508 5.80943,-8.65868 13.82645,-17.04939 l 6.39818,-6.69639 -3.36232,-2.04987 c -4.59937,-2.80405 -8.07746,-2.59597 -11.57801,0.69266 -3.50248,3.29044 -9.617,14.06866 -11.36574,20.03468 -1.74091,5.93928 0.2503,9.74254 8.49151,16.21906 3.56816,2.80411 6.76468,5.97148 7.10337,7.03859 0.33869,1.06712 3.17422,3.9002 6.30118,6.29574 9.60039,7.35477 10.70377,7.31751 15.18538,-0.51274 z m -44.4315,-0.29258 c 2.71232,-0.80699 7.35234,-2.99523 10.31116,-4.86275 l 5.37965,-3.39551 -4.54235,-3.12522 c -5.44977,-3.74954 -8.33221,-9.9605 -7.37441,-15.89005 0.92451,-5.72345 7.0803,-17.36179 11.94752,-22.58837 4.76985,-5.12201 7.73317,-5.7903 14.70993,-3.31739 2.89912,1.02759 3.89691,0.99119 5.81191,-0.21202 1.27155,-0.79892 4.29789,-1.49508 6.72521,-1.54702 4.00939,-0.0858 4.47068,-0.3556 5.04034,-2.94822 1.12894,-5.13802 -0.53595,-13.16678 -3.88593,-18.73951 -16.52722,-27.49313 -69.08155,3.33294 -76.87806,45.09331 -4.31206,23.09662 11.13342,37.96574 32.75503,31.53275 z m -25.93821,-9.78275 c -5.80347,-21.65556 22.11758,-61.55459 47.70925,-68.17625 5.53119,-1.43116 14.66046,-1.20182 14.66046,0.3683 0,0.36861 -3.0602,0.64494 -6.80045,0.61408 -5.94668,-0.0491 -7.78788,0.4318 -14.66562,3.83035 -15.12872,7.47567 -31.15682,26.32635 -37.22793,43.78383 -2.09613,6.02742 -2.45752,8.56703 -2.07259,14.56501 0.45165,7.03771 -0.37119,9.61162 -1.60312,5.01468 z m 210.27003,-30.8185 c 0.0548,-1.96267 0.78991,-5.89276 1.63353,-8.73352 1.40463,-4.72992 1.39322,-5.37965 -0.13546,-7.71271 -2.00468,-3.05953 -1.12555,-4.45331 1.37918,-2.18657 1.6762,1.51694 2.05969,1.30647 6.04074,-3.31524 5.75718,-6.68367 11.85905,-10.68674 21.47085,-14.08572 9.55036,-3.37724 10.98143,-4.45976 7.04012,-5.32542 -1.57761,-0.3465 -4.0982,-1.43675 -5.60131,-2.42278 -2.62878,-1.72445 -3.12348,-1.72338 -12.98045,0.028 -5.63614,1.0014 -11.59475,2.28597 -13.24137,2.8546 -9.36072,3.23255 -17.11716,12.90432 -18.1279,22.60429 -1.0727,10.2946 9.1e-4,14.0902 5.8767,20.77628 4.96392,5.64847 5.22626,5.80487 5.8709,3.5 0.37113,-1.32697 0.71965,-4.01849 0.77447,-5.98117 z m 247.09968,3.99162 c 12.32149,-3.05947 18.17063,-3.37601 26.0255,-1.40842 2.24786,0.56308 3.30349,-0.33739 9.60246,-8.19104 3.89233,-4.85301 9.61006,-12.47086 12.70606,-16.92855 5.89234,-8.4839 19.74387,-35.76663 19.80682,-39.01257 0.0879,-4.53528 -1.52095,-13.01238 -2.73665,-14.41914 -4.21661,-4.87927 -5.47859,-13.45625 -2.89106,-19.64906 2.07366,-4.96297 2.68513,-3.75413 1.45822,2.88285 -0.66527,3.59876 -0.68593,6.42333 -0.059,8.07218 1.61215,4.24026 2.82853,3.94453 3.54945,-0.86296 0.37719,-2.51524 1.3144,-6.35483 2.0827,-8.53242 1.26814,-3.59429 1.23829,-4.01478 -0.32378,-4.5616 -0.94637,-0.33129 -2.43922,-1.49226 -3.31742,-2.57992 -1.24674,-1.54409 -3.21956,-2.08669 -9,-2.47536 -5.59461,-0.37617 -7.95294,-0.99958 -9.65326,-2.55176 -3.3764,-3.08225 -2.70755,-4.15125 1.11803,-1.78691 1.85242,1.14486 4.35701,2.08156 5.56575,2.08156 2.99256,0 6.06622,-1.76544 6.06622,-3.48429 0,-2.87334 -13.55033,-11.00923 -16.46993,-9.88887 -2.14834,0.82439 -3.53007,3.63441 -3.53007,7.17911 0,2.86863 6.55129,13.98859 13.25,22.49016 3.21682,4.08258 3.05219,6.19233 -0.25,3.20389 -1.10674,-1.00159 -2.14787,-1.63633 -2.31361,-1.41054 -0.16574,0.2258 -1.76513,3.44593 -3.55422,7.15585 -4.22216,8.75526 -10.49701,15.06062 -21.63217,21.73736 -12.59738,7.5535 -16.92448,10.91515 -19.90968,15.4675 -3.27116,4.98843 -3.26827,8.08787 0.0121,12.91531 1.94495,2.86225 2.31496,4.11718 1.46465,4.96749 -2.18494,2.18494 -6.23015,-1.34216 -7.81824,-6.81688 -1.96319,-6.76783 -4.07714,-9.42663 -10.63756,-13.37932 -4.87502,-2.93722 -26.31234,-10.01281 -30.61123,-10.10352 -1.12943,-0.0238 -1.49135,1.12688 -1.465,4.65789 0.0324,4.34754 0.34314,4.91268 4.26019,7.7492 5.11739,3.70574 11.41712,11.95298 15.30449,20.03571 2.81987,5.86316 2.94525,5.97056 6.63724,5.68545 7.1471,-0.55193 11.26308,-2.08679 11.26308,-4.20004 0,-2.11 1.46796,-2.63133 2.5373,-0.9011 1.01179,1.6371 -1.41571,6.54288 -3.85325,7.78709 -1.20123,0.61315 -4.65905,1.23581 -7.68405,1.38369 l -5.5,0.26886 0,9.95492 c 0,9.78844 0.0418,9.96516 2.5,10.5679 2.91783,0.71545 1.99541,0.87429 18,-3.0997 z m 18,-7.90007 c 0,-2.52091 10.18784,-6.14617 11.46497,-4.07972 0.36727,0.59424 -0.58001,1.49939 -2.1548,2.05897 -1.54559,0.54921 -3.59156,1.44837 -4.5466,1.99813 -2.21612,1.2757 -4.76357,1.2878 -4.76357,0.0226 z m 8,-16.76564 c 5.90752,-3.86987 14.03376,-13.36762 17.88659,-20.90543 2.20739,-4.31859 4.03593,-7.12168 4.06342,-6.2291 0.14414,4.67947 -10.86643,23.25729 -15.91425,26.85165 -1.56447,1.11401 -4.12503,2.00187 -5.69013,1.97302 l -2.84563,-0.0524 2.5,-1.63769 z m -401.61407,24.17924 c 1.28522,-3.34921 -6.00852,-12.80185 -10.80738,-14.00629 -1.5406,-0.38667 -3.88827,-0.15464 -5.39874,0.53357 l -2.6727,1.21777 3.95897,1.92567 c 4.54337,2.20993 9.53392,6.67499 9.53392,8.53003 0,1.15815 2.6131,3.25984 4.14301,3.33219 0.35366,0.0167 0.91297,-0.6731 1.24292,-1.53294 z m 185.47463,-57.60294 c 10.28137,-9.82414 18.08372,-15.69152 23.8664,-17.94756 1.52517,-0.59502 6.82304,-2.12682 11.77304,-3.404 5.93573,-1.53151 8.94366,-2.77497 8.83452,-3.65214 -0.8247,-6.62836 -4.70411,-20.54031 -6.38667,-22.90325 -5.31315,-7.46162 -20.93035,-15.32847 -32.91714,-16.58134 -12.10903,-1.26564 -26.71203,3.94145 -33.00118,11.76746 -4.98869,6.20775 -7.21555,12.31274 -7.77131,21.30521 -1.02377,16.56521 3.29683,31.27377 10.60779,36.11194 4.04083,2.67409 10.43351,5.34346 12.99455,5.42608 0.74831,0.0241 6.14831,-4.53094 12,-10.1224 z m -6.33584,-18.54711 c 0.85336,-2.04237 2.16988,-4.40487 2.9256,-5.25 0.75573,-0.84513 4.14491,-6.7116 7.5315,-13.0366 6.45161,-12.04938 8.94514,-14.94094 12.91606,-14.97776 2.23761,-0.0208 2.17236,0.12974 -0.9762,2.25156 -4.49668,3.03031 -7.33642,7.44156 -9.99702,15.52934 -2.29354,6.972 -10.33713,19.19686 -12.63095,19.19686 -1.05259,0 -1.00572,-0.75349 0.23101,-3.7134 z m 306.28018,19.21227 c 21.63388,-10.22458 38.57667,-34.03863 39.95687,-56.16167 0.90745,-14.54526 -2.84068,-23.31654 -11.93226,-27.92359 -4.4506,-2.25529 -6.15052,-2.5655 -12.34467,-2.25271 -6.0015,0.30306 -8.56546,1.04967 -15.58409,4.53799 -14.49175,7.20253 -24.89174,18.43274 -32.83629,35.45759 -4.73244,10.14142 -6.54687,18.77459 -5.74672,27.34323 1.91414,20.49804 18.25145,28.56294 38.48716,18.99916 z m -31.37239,-11.10036 c -2.50135,-16.68021 6.1019,-36.82688 23.06749,-54.01831 9.4224,-9.54783 15.61828,-13.50021 24.17541,-15.42159 4.98166,-1.11856 11.32459,-0.54511 11.32459,1.02383 0,0.4905 -1.5402,0.64188 -3.42267,0.3364 -8.58939,-1.39387 -21.26662,4.97904 -31.93779,16.05531 -14.50569,15.05634 -24.11645,37.56514 -21.63234,50.66382 1.20323,6.34459 1.19976,5.96203 0.0541,5.96203 -0.5163,0 -1.24924,-2.07067 -1.62876,-4.60149 z m -46.45357,-39.72076 5.52106,-2.19262 0,-6.36981 c 0,-5.49618 0.30859,-6.57482 2.25,-7.86454 1.47581,-0.98041 2.25,-2.49645 2.25,-4.406 0,-4.63009 4.49031,-12.26699 11.71691,-19.92757 6.48008,-6.86923 6.80937,-7.07241 10.73412,-6.62348 2.22694,0.25472 5.00076,0.77945 6.16407,1.16605 1.97645,0.65685 2.1972,0.1751 3.36781,-7.34993 4.38472,-28.18623 -14.2834,-42.077457 -39.77681,-29.59849 -11.16575,5.4656 -24.0362,18.58771 -30.39431,30.98864 -6.15534,12.00542 -7.81639,18.06797 -7.78983,28.4315 0.0165,6.45218 0.52585,9.67995 2.06207,13.0685 5.86216,12.93056 18.33129,16.85865 33.89491,10.67775 z m -28.00369,-8.24285 c -1.61855,-4.2571 -1.10244,-13.81174 1.13863,-21.07956 4.20968,-13.65208 11.1613,-24.80957 22.33948,-35.85534 10.36419,-10.24142 17.21326,-13.8433 27.2911,-14.35221 3.99055,-0.20152 7.25554,0.0247 7.25554,0.5026 0,0.47795 -2.67978,0.90541 -5.95507,0.94991 -17.23199,0.23411 -39.15828,21.65621 -48.51534,47.3997 -2.40735,6.62322 -2.67078,8.52291 -2.25336,16.25 0.25997,4.8125 0.29303,8.75 0.0735,8.75 -0.21956,0 -0.83806,-1.15429 -1.37445,-2.5651 z m 72.29788,3.74624 c 2.49869,-4.30037 6.89383,-10.39096 9.76698,-13.53465 2.87315,-3.14369 5.05201,-5.87915 4.8419,-6.0788 -0.2101,-0.19964 -3.19392,-2.00526 -6.63071,-4.01248 -3.98922,-2.32987 -6.83283,-4.80762 -7.86416,-6.85235 -3.03462,-6.01652 -6.36633,-8.70286 -10.79365,-8.70286 -3.71276,0 -4.6447,0.62316 -11.75954,7.86327 -10.78493,10.97484 -11.62608,15.89584 -3.4002,19.89228 l 4.50427,2.18834 1.13534,-4.21632 c 1.65799,-6.15732 4.4679,-11.20216 8.46675,-15.20101 5.44264,-5.44264 7.4379,-4.44312 2.44226,1.22344 -4.65972,5.28553 -7.23278,9.83896 -8.81945,15.60743 -1.00356,3.64848 -0.89632,3.99602 1.9798,6.41612 2.5512,2.14669 2.94253,3.05022 2.43031,5.61132 -0.92216,4.61078 1.0153,2.04482 3.77704,-5.0023 3.05282,-7.78986 9.19915,-17.38257 11.13751,-17.38257 0.83183,0 1.51242,0.21108 1.51242,0.46907 0,0.25799 -2.1867,3.81877 -4.85933,7.91283 -2.67264,4.09407 -5.39433,9.56839 -6.04821,12.16517 -1.10143,4.37419 -1.02541,4.8954 1.03365,7.08717 1.22239,1.30117 2.30834,2.36576 2.41324,2.36576 0.10489,0 2.23509,-3.51849 4.73378,-7.81886 z"
       id="path3201"
       inkscape:connector-curvature="0" />
  </g>
</svg>
