<?xml version="1.0" encoding="UTF-8" standalone="no"?>
<!-- Created with Inkscape (http://www.inkscape.org/) -->

<svg
   xmlns:dc="http://purl.org/dc/elements/1.1/"
   xmlns:cc="http://creativecommons.org/ns#"
   xmlns:rdf="http://www.w3.org/1999/02/22-rdf-syntax-ns#"
   xmlns:svg="http://www.w3.org/2000/svg"
   xmlns="http://www.w3.org/2000/svg"
   xmlns:sodipodi="http://sodipodi.sourceforge.net/DTD/sodipodi-0.dtd"
   xmlns:inkscape="http://www.inkscape.org/namespaces/inkscape"
   width="162.72656"
   height="206.20009"
   id="svg2"
   version="1.1"
   inkscape:version="0.48.3.1 r9886"
   sodipodi:docname="Incline-pushdown-1.svg">
  <defs
     id="defs4" />
  <sodipodi:namedview
     id="base"
     pagecolor="#ffffff"
     bordercolor="#666666"
     borderopacity="1.0"
     inkscape:pageopacity="0.0"
     inkscape:pageshadow="2"
     inkscape:zoom="3.959798"
     inkscape:cx="107.8614"
     inkscape:cy="107.89625"
     inkscape:document-units="px"
     inkscape:current-layer="layer1"
     showgrid="false"
     fit-margin-top="0"
     fit-margin-left="0"
     fit-margin-right="0"
     fit-margin-bottom="0"
     inkscape:window-width="1855"
     inkscape:window-height="1056"
     inkscape:window-x="65"
     inkscape:window-y="24"
     inkscape:window-maximized="1" />
  <metadata
     id="metadata7">
    <rdf:RDF>
      <cc:Work
         rdf:about="">
        <dc:format>image/svg+xml</dc:format>
        <dc:type
           rdf:resource="http://purl.org/dc/dcmitype/StillImage" />
        <dc:title></dc:title>
      </cc:Work>
    </rdf:RDF>
  </metadata>
  <g
     inkscape:label="Ebene 1"
     inkscape:groupmode="layer"
     id="layer1"
     transform="translate(-763.92825,-689.33435)">
    <path
       style="fill:#000000"
       d="m 881.42825,892.83502 c -3.025,-1.3308 -6.23765,-2.4378 -7.13922,-2.4599 -2.52563,-0.062 -5.93249,-3.2857 -6.11891,-5.7901 -0.0921,-1.23753 -0.22758,-2.25003 -0.30104,-2.25003 -1.03889,0 -6.55995,3.47413 -7.93411,4.99253 -3.61584,3.9955 -8.23845,1.6753 -8.70651,-4.36999 -0.28642,-3.69928 -0.12042,-3.94071 3.61248,-5.25397 5.04065,-1.77335 6.03127,-0.86984 1.24085,1.13172 -3.03463,1.26795 -3.65354,2.02651 -3.65354,4.47795 0,4.63399 2.70682,5.37959 7.95067,2.19019 6.57024,-3.99626 10.86135,-8.75783 12.13086,-13.46088 1.86819,-6.92092 2.88849,-15.96218 2.25388,-19.97241 -0.6502,-4.10879 1.62836,-11.49233 4.82034,-15.62 2.49129,-3.22156 2.31973,-1.82944 -0.52846,4.28837 -1.93561,4.1576 -2.47065,7.30715 -2.90433,17.09649 -0.47794,10.78825 -0.85443,12.69477 -3.72844,18.88029 -3.94234,8.48484 -3.32509,10.91964 3.21103,12.66624 2.36195,0.6312 6.76945,1.991 9.79445,3.0217 7.0734,2.4103 15.5,1.5683 15.5,-1.5488 0,-1.2258 -1.42581,-2.7556 -3.81999,-4.0986 -5.06231,-2.83959 -11.64915,-11.94939 -11.51157,-15.92083 0.0848,-2.44669 0.1857,-2.57091 0.54731,-0.67355 0.32137,1.68623 0.90309,2.15152 2.11382,1.69076 1.33899,-0.50957 1.42241,-0.38585 0.42043,0.62354 -0.6875,0.69259 -1.25,1.57667 -1.25,1.96464 0,1.68063 7.59823,9.62764 11.61341,12.14644 4.67022,2.9298 5.34413,4.6478 2.81516,7.1767 -2.53912,2.5392 -13.69948,2.0319 -20.42857,-0.9285 z m 1.69386,-10.73274 c -1.93044,-4.0681 -2.18365,-6.76729 -0.63484,-6.76729 0.58246,0 0.78907,0.43678 0.45913,0.97063 -0.32994,0.53385 0.12084,2.36436 1.00172,4.06779 0.88088,1.70344 1.43651,3.59241 1.23473,4.19781 -0.20178,0.6053 -1.12912,-0.5057 -2.06074,-2.46894 z m -7.02719,-1.43396 c -0.91035,-0.91034 -0.84554,-6.10475 0.0833,-6.67882 0.4125,-0.25494 0.75,1.2935 0.75,3.44098 0,2.14748 -0.0375,3.90451 -0.0833,3.90451 -0.0458,0 -0.38334,-0.3 -0.75,-0.66667 z m -24.66667,-6.93772 c -5.225,-1.27699 -16.7,-3.97061 -25.5,-5.98584 -8.8,-2.01522 -20.5,-4.69549 -26,-5.95616 -15.49496,-3.55163 -16.97979,-3.46572 -23.30151,1.34825 -2.9744,2.265 -3.76703,2.42413 -8,1.60612 -4.51429,-0.87238 -4.69849,-1.04319 -4.69849,-4.35696 0,-3.32824 0.29487,-3.59528 8.42303,-7.62792 l 8.42304,-4.17894 4.73606,-13.87208 c 5.38282,-15.76648 13.51227,-38.47098 15.30017,-42.73137 l 1.19991,-2.85928 5.72978,6.18884 c 3.15138,3.40387 8.12894,9.19055 11.06125,12.85929 2.9323,3.66874 10.6854,12.18332 17.22911,18.92129 9.89322,10.1869 12.26898,12.14883 14.10176,11.64536 2.04481,-0.56171 2.16183,-0.34496 1.61916,2.99916 -0.52126,3.21209 -0.34857,3.60463 1.58573,3.60463 1.19387,0 3.90164,-0.88307 6.01726,-1.96238 7.36992,-3.75986 15.13833,-6.95115 14.53177,-5.96971 -0.33593,0.54355 -2.09269,1.76314 -3.9039,2.71019 -5.66573,2.9625 -12.03756,6.45286 -12.44079,6.81482 -0.21267,0.19089 -0.9728,4.74808 -1.68919,10.12708 l -1.30252,9.78 0.18919,-9.09497 c 0.17768,-8.54201 0.0524,-9.15947 -2.06082,-10.15591 -1.2375,-0.58352 -2.28198,-0.99079 -2.32107,-0.90503 -0.0391,0.0858 -0.41615,4.09547 -0.83792,8.9105 -0.42177,4.81502 -1.06674,9.05447 -1.43327,9.421 -0.64008,0.64008 -55.734,-12.5089 -57.86332,-13.80994 -0.71104,-0.43445 -0.68279,-1.53734 0.0897,-3.5 1.09319,-2.77755 1.11253,-2.78432 0.629,-0.21991 -0.5378,2.85222 0.76512,3.85426 5.01153,3.85426 2.39929,0 9.3708,-3.55106 10.71006,-5.45535 2.3492,-3.34033 -2.45981,-4.23438 -8.60579,-1.5999 -5.26187,2.2555 -6.52378,2.53658 -5.0789,1.13128 1.68653,-1.64033 10.88143,-4.61552 13.2,-4.27113 1.80246,0.26773 2.25,0.9797 2.25,3.57944 0,2.74538 -0.55816,3.51141 -3.6238,4.97331 -1.9931,0.95044 -3.30896,2.04292 -2.92415,2.42773 0.6925,0.6925 44.77372,12.33617 45.15383,11.92699 0.61507,-0.66212 1.99819,-20.40455 1.49654,-21.36136 -0.33133,-0.63194 -6.06229,-6.93194 -12.73547,-14 -6.67318,-7.06805 -14.54456,-15.77601 -17.49196,-19.35101 -2.9474,-3.575 -6.59795,-7.85 -8.11232,-9.5 -2.52063,-2.74637 -2.75381,-2.82168 -2.75804,-0.89083 -0.002,1.16004 -1.58016,5.5192 -3.50581,9.68702 -3.10097,6.71164 -5.17937,12.65381 -10.91419,31.20381 l -1.54577,5 0.52273,-4.5 c 0.49576,-4.2678 7.48289,-25.74656 12.46212,-38.30913 l 2.30248,-5.80913 -2.13532,-2.13531 c -1.17442,-1.17443 -2.30048,-1.93532 -2.50235,-1.69087 -0.20188,0.24444 -2.74936,7.64444 -5.66108,16.44444 -2.91171,8.8 -6.96348,20.275 -9.00392,25.5 -2.04044,5.225 -4.02348,10.77513 -4.40675,12.33363 -0.57967,2.35712 -2.11951,3.50031 -9.15681,6.7981 -4.65298,2.18046 -8.45996,4.58102 -8.45996,5.33458 0,3.02872 1.31655,4.53369 3.96607,4.53369 3.33955,0 14.31679,-5.36036 13.27595,-6.48286 -0.95442,-1.02928 3.58689,-0.25216 17.25798,2.95324 6.05,1.41851 13.7,3.19609 17,3.95016 3.3,0.75408 11.4,2.71645 18,4.36083 6.6,1.64438 14.52716,3.51005 17.61591,4.14592 3.08875,0.63587 6.46375,1.79805 7.5,2.58261 1.03625,0.78457 1.65909,1.37722 1.38409,1.317 -0.275,-0.0602 -4.775,-1.1543 -10,-2.43129 z m 61,0.13637 c -1.925,-0.7589 -5.61094,-1.41406 -8.19098,-1.4559 -2.58004,-0.0418 -4.94872,-0.4931 -5.26372,-1.00279 -0.74116,-1.19921 10.11241,-0.62017 13.51019,0.72077 1.58205,0.62436 4.24848,0.6818 7,0.15079 6.14724,-1.18636 6.57752,-1.14409 4.9088,0.48221 -2.18499,2.12943 -8.00272,2.66671 -11.96429,1.10492 z m -20.83087,-3.78198 c 2.76533,-2.2281 3.00834,-4.73335 0.56422,-5.81659 l -2.23335,-0.98983 2.27421,0.44092 c 1.84133,0.357 2.69361,-0.35141 4.47768,-3.72179 1.80465,-3.40928 2.23069,-5.97266 2.35388,-14.16271 0.0965,-6.41513 0.73184,-11.56864 1.77232,-14.37573 1.98896,-5.36598 1.99506,-5.121 -0.12809,-5.13958 -1.36713,-0.012 -1.4523,-0.20393 -0.3893,-0.87743 0.74838,-0.47417 2.19533,-0.64386 3.21543,-0.3771 1.77228,0.46346 1.75779,0.66919 -0.32581,4.62743 -1.71909,3.26578 -2.30962,6.57608 -2.79049,15.64241 -0.48158,9.07985 -1.11299,12.61331 -3.00033,16.79019 -1.98531,4.39369 -2.18298,5.62231 -1.16647,7.25 1.30834,2.09499 0.32305,2.67589 -1.48016,0.87268 -0.78285,-0.78285 -1.2752,-0.78285 -1.75902,0 -0.36954,0.59792 -1.18133,1.08713 -1.804,1.08713 -0.62266,0 -0.43398,-0.5625 0.41928,-1.25 z m 30.12714,-2.52931 c -1.76204,-1.49638 -4.6009,-3.78924 -6.30855,-5.09524 -5.89327,-4.50713 -6.31404,-5.9024 -4.61425,-15.30075 0.82809,-4.57859 2.05783,-11.60219 2.73276,-15.60801 0.67493,-4.00582 1.57313,-6.93082 1.996,-6.5 0.42287,0.43082 0.37028,2.58331 -0.11687,4.78331 -1.22996,5.55458 -3.01026,16.12539 -3.62097,21.5 -0.44586,3.92388 -0.14984,4.89244 2.31214,7.56532 1.55291,1.68592 4.96097,4.57471 7.57347,6.41952 2.6125,1.84481 4.75,3.72792 4.75,4.18468 0,1.43866 -1.39577,0.86037 -4.70373,-1.94883 z m -60.04627,0.61337 c -2.3375,-0.52347 -4.25,-1.3162 -4.25,-1.76163 0,-0.82551 10.7336,1.32784 11.76629,2.36053 0.78968,0.78968 -2.47853,0.52927 -7.51629,-0.5989 z m 40.45448,-3.16232 c -1.95682,-2.98649 -2.10447,-4.55385 -0.62849,-6.67174 0.78116,-1.1209 0.88823,-0.69981 0.42365,1.66615 -0.46746,2.38056 -0.20231,3.40086 1.06862,4.11211 0.92968,0.52028 1.49917,1.51946 1.26552,2.2204 -0.26775,0.80326 -1.05499,0.31268 -2.1293,-1.32692 z m -15.70448,-0.14036 c 0,-0.89208 0.5866,-1.24351 1.49426,-0.89521 0.82184,0.31537 1.24528,0.97625 0.94098,1.46861 -0.87262,1.41193 -2.43524,1.04399 -2.43524,-0.5734 z m -2.7243,-6.53138 c 0.30639,-1.375 1.084,-5.12319 1.72804,-8.32931 0.64404,-3.20611 1.38499,-5.6153 1.64655,-5.35373 0.62225,0.62225 -2.28954,14.67282 -3.21763,15.52637 -0.39271,0.36117 -0.46334,-0.46833 -0.15696,-1.84333 z m 4.80587,0.3151 c -0.0449,-0.6517 0.40982,-2.4517 1.0104,-4 0.60059,-1.54831 1.4756,-5.46761 1.94447,-8.70957 0.46887,-3.24195 1.39372,-6.39195 2.05521,-7 0.91774,-0.84358 1.03016,-0.63165 0.47447,0.89447 -0.40053,1.1 -1.15884,4.63251 -1.68513,7.85002 -0.9166,5.60376 -3.6295,13.43316 -3.79942,10.96508 z m -7.5631,-11.19034 c 0.56987,-4.57309 2.56741,-9.36711 3.16101,-7.58633 0.1894,0.56821 -0.56702,3.49201 -1.68094,6.49734 l -2.0253,5.46423 0.54523,-4.37524 z m 25.05484,-3.12476 c 0.32732,-1.375 0.94333,-5.425 1.36893,-9 l 0.77381,-6.5 0.0969,6 c 0.0555,3.43491 -0.52978,7.28255 -1.36893,9 -1.24161,2.54116 -1.37478,2.61764 -0.87068,0.5 z m -12.10775,-9.45479 c 1.40904,-4.3801 1.56067,-10.14634 0.32553,-12.37918 -0.79046,-1.42896 -3.98343,-3.46013 -8.23449,-5.23829 -6.3465,-2.65465 -7.13831,-2.77661 -9.21073,-1.4187 -4.00078,2.6214 -5.34803,13.21247 -2.18184,17.15193 1.60585,1.99805 -0.98299,2.59179 -7.9933,1.83323 -3.6689,-0.39699 -8.64988,-0.80385 -11.06883,-0.90412 -3.66883,-0.15208 -4.86982,-0.74734 -7.24291,-3.58992 -1.56464,-1.87419 -3.10164,-5.00344 -3.41556,-6.95389 -0.31392,-1.95045 -0.93529,-4.45525 -1.38084,-5.56622 -2.16479,-5.39797 19.14847,-19.93566 23.23537,-15.84875 0.85967,0.85966 7.23425,1.55902 12.70204,1.39353 6.13314,-0.18561 15,0.94252 15,1.90845 0,0.43416 -1.01672,0.59502 -2.25938,0.35747 -2.68897,-0.51403 -6.34334,2.98018 -7.01678,6.70925 -0.40537,2.24472 -0.46538,2.19086 -0.58766,-0.52749 -0.0749,-1.66513 0.58673,-4.05959 1.47028,-5.32105 l 1.60647,-2.29355 -6.95809,0.68564 c -4.35522,0.42915 -7.70445,0.28619 -8.95327,-0.38216 -1.32421,-0.70869 -2.32999,-0.73297 -2.99076,-0.0722 -0.66077,0.66077 -1.42605,0.47688 -2.27564,-0.54681 -2.06036,-2.48258 -3.56996,-1.86754 -9.97817,4.06533 -3.33135,3.08425 -6.057,5.06888 -6.057,4.4103 0,-0.65859 1.0125,-2.08763 2.25,-3.17566 1.46827,-1.29093 0.91704,-1.12041 -1.58657,0.49079 -4.33604,2.79047 -7.36886,6.56531 -6.04636,7.52569 0.48561,0.35264 0.96879,2.5603 1.07372,4.90591 0.27967,6.25155 4.45465,9.52186 13.2378,10.36932 3.61427,0.34873 8.08423,0.97754 9.93323,1.39736 l 3.36182,0.76331 -0.80832,-3.39737 c -1.60701,-6.75417 0.35043,-14.54763 4.19412,-16.69867 1.46278,-0.81861 1.45456,-0.96015 -0.0902,-1.55294 -0.93484,-0.35873 -2.06702,-0.42523 -2.51596,-0.14777 -0.44893,0.27746 -0.29583,-0.61868 0.34025,-1.99142 0.98203,-2.11938 1.32397,-2.27042 2.26673,-1.00122 0.61064,0.82206 1.52546,1.49466 2.03294,1.49466 0.50748,0 2.13337,0.97417 3.6131,2.16482 1.47972,1.19065 4.8225,2.87815 7.4284,3.75 6.07179,2.03143 8.80667,6.21744 7.83183,11.98743 -0.36363,2.15231 -1.34033,4.74229 -2.17046,5.75552 -1.45481,1.7757 -1.48661,1.77164 -0.88049,-0.11256 z m -17.45946,-1.79521 c -0.008,-1.03293 6.18,-0.91824 7.85931,0.14566 0.86981,0.55105 -0.30764,0.81772 -3.24389,0.73469 -2.53512,-0.0717 -4.61206,-0.46785 -4.61542,-0.88035 z m 6.13779,-8.63991 c -0.87495,-0.5544 0.0711,-0.82186 2.66633,-0.75381 2.21234,0.058 3.80853,0.45158 3.54709,0.87459 -0.63525,1.02786 -4.51983,0.95234 -6.21342,-0.12078 z m 23.85611,-5.81953 c 0.825,-0.30334 2.2875,-1.23756 3.25,-2.07604 0.9625,-0.83847 1.75,-1.09475 1.75,-0.56951 0,1.65206 -2.31748,3.35817 -4.45,3.27604 -1.44171,-0.0555 -1.60491,-0.2426 -0.55,-0.63049 z m 8.18604,-1.7816 c -0.78261,-1.71763 -4.01485,-3.88518 -10.41052,-6.98133 -9.58799,-4.64156 -10.53939,-5.63496 -2.82386,-2.94852 7.79375,2.71367 15.04834,7.60902 15.04834,10.15452 0,2.90934 -0.4091,2.85868 -1.81396,-0.22467 z m -77.03206,-6.35497 c -4.1434,-4.14341 -12.41297,-10.15399 -13.9702,-10.15399 -0.52573,0 -3.6514,-1.8 -6.94592,-4 -3.29453,-2.2 -6.41736,-4 -6.93964,-4 -1.43951,0 -5.73556,-4.89599 -4.96883,-5.66272 0.36884,-0.36884 0.67061,-0.12679 0.67061,0.53788 0,0.66467 2.87216,2.49714 6.38257,4.07215 3.51042,1.57502 6.65659,3.30704 6.9915,3.84893 0.33491,0.54189 2.94289,2.20566 5.79551,3.69725 8.36034,4.3715 9.08442,4.86015 11.77118,7.9439 7.06783,8.11214 7.77494,10.27831 1.21322,3.7166 z m 11.90997,-10.55052 c -1.15455,-1.86809 -3.25529,-4.15405 -4.66833,-5.0799 -1.41303,-0.92586 -2.30041,-1.95211 -1.97195,-2.28057 0.82725,-0.82725 6.44541,4.66452 8.19129,8.007 2.01978,3.86688 0.96728,3.42815 -1.55101,-0.64653 z m -17.02771,-0.53575 c -0.56876,-1.06275 -1.92059,-2.21363 -3.00405,-2.5575 -1.16718,-0.37045 -2.37485,-2.0917 -2.96357,-4.22388 -0.5465,-1.97925 -2.2197,-4.87837 -3.71822,-6.44249 -2.95898,-3.08851 -2.2276,-3.93976 0.93982,-1.09385 1.86542,1.67606 2.0112,1.65494 3.45071,-0.5 0.82666,-1.2375 1.97657,-2.25 2.55536,-2.25 0.57878,0 0.10662,1.0125 -1.04927,2.25 -1.88993,2.02338 -1.96141,2.5018 -0.70975,4.75 0.76553,1.375 1.4078,3.20287 1.42729,4.06194 0.0195,0.85907 1.38544,2.56004 3.03544,3.77994 2.95597,2.18544 3.9215,4.15812 2.03518,4.15812 -0.53065,0 -1.43017,-0.86952 -1.99894,-1.93228 z m 26.56266,-2.70376 c -1.55497,-1.94879 -3.42484,-5.80872 -4.15527,-8.57763 -0.73042,-2.76892 -2.25405,-6.02008 -3.38584,-7.22481 -1.13178,-1.20473 -2.05779,-2.64548 -2.05779,-3.20166 0,-1.4422 -4.10947,-5.0118 -6.65762,-5.78299 -1.18669,-0.35915 -2.41422,-1.32169 -2.72783,-2.13896 -0.31362,-0.81728 -1.59269,-1.89662 -2.84238,-2.39855 l -2.27217,-0.91259 2.1933,-0.0634 c 1.20631,-0.0349 2.84494,0.86698 3.6414,2.00409 0.79647,1.13711 2.94951,2.87267 4.78454,3.85681 1.83503,0.98414 4.02139,2.89567 4.85859,4.24784 0.83719,1.35218 2.53299,4.00411 3.76843,5.89319 1.23545,1.88908 2.24795,4.004 2.25,4.69984 0.002,0.69583 1.40826,3.75381 3.12489,6.79552 3.68088,6.52217 3.44697,7.77775 -0.52225,2.80329 z m -18.51995,-5.94729 c 0.048,-1.16495 0.28494,-1.4019 0.60416,-0.60417 0.28887,0.72187 0.25335,1.58437 -0.079,1.91667 -0.33229,0.33229 -0.56864,-0.25834 -0.52522,-1.3125 z m 10.92105,1.32673 c 0,-0.14113 -0.41859,-1.71613 -0.93019,-3.5 -1.26047,-4.39498 0.31557,-4.15265 1.66881,0.2566 0.60429,1.96897 0.67769,3.5 0.16778,3.5 -0.49852,0 -0.9064,-0.11547 -0.9064,-0.2566 z m -21.55887,-4.2752 c 2.52654,-1.91098 4.15444,-1.89075 2.55887,0.0318 -0.68469,0.825 -1.97729,1.48569 -2.87245,1.4682 -1.36732,-0.0267 -1.31718,-0.26656 0.31358,-1.5 z m -14.32513,-0.43064 c -0.0638,-0.80434 -1.3535,-2.4515 -2.866,-3.66036 -1.5125,-1.20886 -2.39886,-2.5519 -1.9697,-2.98453 1.27068,-1.28095 5.97667,4.11299 5.43389,6.22824 -0.28953,1.12829 -0.52854,1.29476 -0.59819,0.41665 z m -26.4359,-8.96392 c -4.73277,-4.90949 -8.89653,-10.08777 -9.2528,-11.50728 -0.86094,-3.43026 1.76075,-7.32916 6.16589,-9.16975 3.42401,-1.43064 3.43151,-1.44816 1.8934,-4.42254 -0.84933,-1.64241 -2.00129,-6.63138 -2.55993,-11.08658 -0.55863,-4.4552 -1.86248,-10.32891 -2.89743,-13.05268 -1.17843,-3.10139 -1.45032,-4.80851 -0.72745,-4.56755 1.54965,0.51655 3.51083,7.36327 5.13732,17.93509 0.73638,4.78629 2.23082,10.18629 3.32097,12 1.09014,1.81371 2.25965,5.45823 2.5989,8.09893 0.33926,2.6407 1.74727,6.73024 3.12893,9.08786 1.38165,2.35761 2.5121,5.64885 2.5121,7.31386 0,1.665 0.93266,4.21297 2.07258,5.66214 1.13992,1.44917 1.62258,2.63486 1.07258,2.63486 -2.00993,0 -5.14516,-5.31997 -5.14516,-8.73049 0,-1.90342 -0.86135,-4.67043 -1.91412,-6.1489 -1.05277,-1.47848 -2.20369,-4.47295 -2.55762,-6.65437 -1.41599,-8.7276 -1.34112,-8.58535 -3.79657,-7.21328 -4.20572,2.3501 -6.73169,5.09685 -6.73169,7.32005 0,1.35259 2.6455,5.10887 6.75,9.58417 8.55163,9.32417 10.68847,11.84282 10.04756,11.84282 -0.28184,0 -4.38469,-4.01686 -9.11746,-8.92636 z m 48.1324,8.24325 c 0.72187,-0.28888 1.58437,-0.25335 1.91667,0.0789 0.33229,0.33229 -0.25834,0.56864 -1.3125,0.52522 -1.16495,-0.048 -1.4019,-0.28495 -0.60417,-0.60417 z m 8.2375,-3.76689 c 1.25672,-1.25672 1.22053,-4.55 -0.05,-4.55 -0.55,0 -1,-0.47656 -1,-1.05902 0,-1.76429 1.77842,-0.0915 3.43668,3.23254 0.85982,1.72356 1.56332,3.17712 1.56332,3.23012 0,0.053 -1.1025,0.0964 -2.45,0.0964 -1.54737,0 -2.1,-0.35 -1.5,-0.95 z m -4.99925,-1.55 c -0.024,-1.78618 1.64029,-4.64229 2.31305,-3.96953 0.2599,0.2599 -0.14969,1.59686 -0.91019,2.97104 -0.80164,1.44849 -1.3912,1.86811 -1.40286,0.99849 z m -24.89494,-1.7814 c -2.81351,-0.93783 -0.66324,-1.73122 5.09742,-1.88079 3.43572,-0.0892 7.59677,-0.67767 9.24677,-1.30771 2.62772,-1.00337 2.81386,-0.96573 1.5,0.3033 -1.47869,1.42823 -13.59565,3.63472 -15.84419,2.8852 z m -9.2948,-10.28172 c -0.35423,-4.92124 -1.33215,-9.94728 -2.29937,-11.81768 -0.92565,-1.79002 -1.5432,-4.23242 -1.37232,-5.42757 0.41981,-2.93632 4.84427,10.79864 4.82517,14.97891 -0.0123,2.69701 0.42268,3.26657 2.91252,3.81343 2.40402,0.52801 7.53215,-1.01937 9.85097,-2.97246 0.15289,-0.12877 -0.17348,-1.42154 -0.72525,-2.87282 -0.55178,-1.45128 -0.61315,-2.63869 -0.13639,-2.63869 0.47676,0 1.16103,1.17215 1.5206,2.60477 0.52522,2.09266 1.08721,2.48856 2.85841,2.01366 1.21256,-0.32512 2.92081,-0.59727 3.79611,-0.60478 1.65244,-0.0142 1.65628,0.0799 -0.48962,-12.01365 l -0.62104,-3.5 1.46449,3 c 0.80548,1.65 1.4848,4.9125 1.50961,7.25 0.0409,3.85464 0.27766,4.25 2.5451,4.25 5.26631,0 2.19262,1.75085 -3.93753,2.24292 -4.18296,0.33577 -7.69847,1.29605 -10.0379,2.74189 -2.45098,1.5148 -4.6903,2.09791 -7.0145,1.82657 -3.17361,-0.3705 -3.43593,-0.18415 -3.72341,2.64502 -0.17011,1.67398 -0.58665,-0.8098 -0.92565,-5.51952 z m 32.13899,6.06312 c -1.21296,-0.78387 -1.06944,-0.97231 0.75,-0.98469 1.2375,-0.008 2.25,0.43469 2.25,0.98469 0,1.25292 -1.06124,1.25292 -3,0 z m -28.0358,-11.83565 c 0.65881,-1.2846 1.4721,-2.06139 1.8073,-1.72619 0.3352,0.3352 -0.20383,1.38624 -1.19784,2.33565 -1.72775,1.65022 -1.75457,1.6234 -0.60946,-0.60946 z m 9.18563,-4.06996 c -0.0824,-1.32308 -1.21192,-3.79808 -2.51004,-5.5 -1.29811,-1.70191 -2.49308,-3.54439 -2.65548,-4.09439 -0.1624,-0.55 -0.90031,-2.44805 -1.63979,-4.21788 -0.73949,-1.76984 -1.34452,-4.96579 -1.34452,-7.10212 0,-2.55364 -0.84907,-5.04822 -2.47859,-7.28212 -1.36323,-1.86883 -3.01046,-4.41038 -3.66052,-5.64788 -0.92366,-1.75836 -2.05141,-2.25 -5.16116,-2.25 -7.27227,0 -8.73823,5.25847 -3.25261,11.66719 3.19404,3.73151 6.54947,12.66955 5.24572,13.9733 -0.31013,0.31013 -0.87712,-1.16961 -1.25998,-3.28831 -0.86567,-4.79049 -1.95448,-6.96382 -5.57951,-11.13698 -1.56934,-1.80663 -2.85335,-4.37177 -2.85335,-5.70031 0,-1.32853 -0.7875,-2.91883 -1.75,-3.534 -1.53049,-0.9782 -1.46059,-1.05701 0.55727,-0.62834 3.49968,0.74348 5.1939,-3.54299 2.94744,-7.45722 -0.91393,-1.59243 -1.25498,-2.89533 -0.75789,-2.89533 0.49709,0 1.36248,0.7875 1.92308,1.75 0.56061,0.9625 1.03297,1.38718 1.04969,0.94373 0.0167,-0.44344 -3.48461,-6.29344 -7.78074,-13 -9.84861,-15.37434 -9.45541,-14.6947 -8.49787,-14.68845 0.44496,0.003 4.85902,6.30053 9.80902,13.99472 4.95,7.69419 9.3375,13.99182 9.75,13.99472 0.4125,0.003 0.75,0.50776 0.75,1.12191 0,0.6243 -0.88181,0.88603 -2,0.59362 -1.48349,-0.38794 -2,-0.0307 -2,1.38337 0,1.59275 0.74033,1.90638 4.5,1.90638 2.475,0 4.5,0.36515 4.5,0.81144 0,0.44629 0.91468,1.79323 2.03263,2.9932 2.8776,3.08875 5.96737,10.74762 5.96737,14.79183 0,3.51081 0.68645,5.16563 4.79754,11.5654 1.53118,2.3836 2.20392,4.65259 1.92722,6.5 -0.3696,2.46762 -0.44466,2.52408 -0.57493,0.43252 z m 0.52727,-9.90954 c -1.47241,-1.53686 -2.6771,-3.19259 -2.6771,-3.67941 0,-0.48681 1.41408,0.56123 3.14239,2.329 1.72832,1.76776 2.93301,3.42349 2.6771,3.6794 -0.25591,0.25592 -1.66999,-0.79213 -3.14239,-2.32899 z m -9.95969,-1.80077 c -0.33875,-0.33876 -2.10125,-0.96769 -3.91666,-1.39764 l -3.30075,-0.78172 3.05887,-0.10236 c 1.68238,-0.0563 3.93238,0.55833 5,1.36584 1.06762,0.8075 1.45363,1.4825 0.8578,1.5 -0.59584,0.0175 -1.3605,-0.24536 -1.69926,-0.58412 z m 13.8852,-6.6791 c -0.87033,-2.99383 -2.28653,-6.02769 -3.14711,-6.74191 -0.86058,-0.71422 -2.00102,-2.11386 -2.5343,-3.11031 -1.08095,-2.01976 -0.21884,-6.85276 1.22239,-6.85276 0.52892,0 0.47851,0.83759 -0.11741,1.95108 -0.83579,1.56169 -0.43874,2.90576 1.98945,6.73462 2.95554,4.6604 5.59283,12.03918 4.64261,12.98939 -0.26027,0.26027 -1.1853,-1.97628 -2.05563,-4.97011 z m -0.17404,-18.63156 c 0,-1.05962 0.35357,-1.70806 0.78572,-1.44098 0.43214,0.26707 0.78571,1.13404 0.78571,1.92658 0,0.79254 -0.35357,1.44098 -0.78571,1.44098 -0.43215,0 -0.78572,-0.86696 -0.78572,-1.92658 z m -45.92857,0.22404 c 5.14194,-0.55419 6.62765,-1.96886 4.05887,-3.86478 -2.65129,-1.95682 -3.4722,-1.80863 -4.52771,0.81732 -0.65526,1.63021 -0.92185,1.7842 -0.96777,0.55902 -0.10274,-2.7407 -1.99998,-3.1269 -3.06189,-0.62327 l -0.98157,2.31425 0.24003,-2.5 c 0.19343,-2.01453 0.85669,-2.55977 3.41557,-2.8078 1.74654,-0.1693 3.71414,-0.9568 4.37244,-1.75 0.70969,-0.85513 2.98234,-1.4422 5.58295,-1.4422 4.1476,0 4.31761,0.10964 3.12755,2.01691 -1.09777,1.75936 -1.40025,1.82321 -2.36871,0.5 -1.28519,-1.75593 -3.97231,-2.00137 -4.93088,-0.45038 -0.36254,0.5866 0.10984,1.62884 1.04972,2.3161 0.93989,0.68726 1.5434,2.11982 1.34115,3.18347 -0.30136,1.58484 -1.2686,1.95453 -5.35874,2.04819 -4.08667,0.0936 -4.26623,0.0362 -0.99101,-0.31683 z m 34,-2.29746 c 0.33992,-0.55 1.37898,-0.99311 2.30902,-0.98469 1.45727,0.0132 1.48367,0.14929 0.19098,0.98469 -1.95837,1.2656 -3.28218,1.2656 -2.5,0 z m 4.80375,-1.94644 c -0.27995,-1.07054 -1.25032,-2.14334 -2.15638,-2.384 -1.49009,-0.39578 -1.48571,-0.44863 0.0459,-0.55356 0.93132,-0.0638 2.28604,0.73025 3.01049,1.76455 0.72445,1.0343 2.21247,2.1071 3.3067,2.384 1.47702,0.37376 1.257,0.53333 -0.8541,0.61945 -2.035,0.083 -2.98836,-0.43749 -3.35263,-1.83044 z m -14.30375,-0.85356 c 0,-1.03903 2.1667,-3.2 3.20847,-3.2 0.44466,0 0.24642,0.9 -0.44054,2 -1.26178,2.02042 -2.76793,2.6734 -2.76793,1.2 z"
       id="path3420"
       inkscape:connector-curvature="0" />
    <path
       style="fill:#000000"
       d=""
       id="path3414"
       inkscape:connector-curvature="0" />
    <path
       style="fill:#000000"
       d=""
       id="path3412"
       inkscape:connector-curvature="0" />
  </g>
</svg>
