<?xml version="1.0" encoding="UTF-8" standalone="no"?>
<!-- Created with Inkscape (http://www.inkscape.org/) -->

<svg
   xmlns:dc="http://purl.org/dc/elements/1.1/"
   xmlns:cc="http://creativecommons.org/ns#"
   xmlns:rdf="http://www.w3.org/1999/02/22-rdf-syntax-ns#"
   xmlns:svg="http://www.w3.org/2000/svg"
   xmlns="http://www.w3.org/2000/svg"
   xmlns:xlink="http://www.w3.org/1999/xlink"
   xmlns:sodipodi="http://sodipodi.sourceforge.net/DTD/sodipodi-0.dtd"
   xmlns:inkscape="http://www.inkscape.org/namespaces/inkscape"
   width="163.15936"
   height="198.72932"
   id="svg2"
   version="1.1"
   inkscape:version="0.48.3.1 r9886"
   sodipodi:docname="High-cable-curls-2.svg">
  <defs
     id="defs4">
    <radialGradient
       gradientUnits="userSpaceOnUse"
       gradientTransform="matrix(1,0,0,0.91819829,-19.285714,-7.9105395)"
       r="209.56604"
       fy="287.50052"
       fx="398.1105"
       cy="287.50052"
       cx="398.1105"
       id="radialGradient5255"
       xlink:href="#linearGradient5249"
       inkscape:collect="always" />
    <linearGradient
       id="linearGradient5249"
       inkscape:collect="always">
      <stop
         id="stop5251"
         offset="0"
         style="stop-color:#e3e3e3;stop-opacity:1;" />
      <stop
         id="stop5253"
         offset="1"
         style="stop-color:#e3e3e3;stop-opacity:0;" />
    </linearGradient>
  </defs>
  <sodipodi:namedview
     id="base"
     pagecolor="#ffffff"
     bordercolor="#666666"
     borderopacity="1.0"
     inkscape:pageopacity="0.0"
     inkscape:pageshadow="2"
     inkscape:zoom="1.979899"
     inkscape:cx="4.5871568"
     inkscape:cy="97.82442"
     inkscape:document-units="px"
     inkscape:current-layer="layer1"
     showgrid="false"
     showguides="true"
     inkscape:guide-bbox="true"
     fit-margin-top="0"
     fit-margin-left="0"
     fit-margin-right="0"
     fit-margin-bottom="0"
     inkscape:window-width="1112"
     inkscape:window-height="691"
     inkscape:window-x="65"
     inkscape:window-y="328"
     inkscape:window-maximized="0">
    <sodipodi:guide
       orientation="-0.70710678,0.70710678"
       position="-2243.5956,473.83099"
       id="guide2985" />
  </sodipodi:namedview>
  <metadata
     id="metadata7">
    <rdf:RDF>
      <cc:Work
         rdf:about="">
        <dc:format>image/svg+xml</dc:format>
        <dc:type
           rdf:resource="http://purl.org/dc/dcmitype/StillImage" />
        <dc:title></dc:title>
      </cc:Work>
    </rdf:RDF>
  </metadata>
  <g
     inkscape:label="Ebene 1"
     inkscape:groupmode="layer"
     id="layer1"
     transform="translate(-815.02427,-301.74956)">
    <path
       style="fill:#000000"
       d="m 939.16143,499.59224 c -5.84038,-1.76763 -16.49428,-6.3499 -18.13464,-7.79975 -0.9625,-0.85072 -1.75,-2.15202 -1.75,-2.89178 0,-0.73975 -0.25458,-1.34501 -0.56574,-1.34501 -1.24691,0 -5.08141,2.38146 -7.57484,4.70445 -2.54373,2.36984 -2.75464,2.4011 -5.75,0.85213 -2.696,-1.39415 -3.10942,-2.14181 -3.10942,-5.62327 0,-3.77099 0.25861,-4.12636 4.25,-5.84017 l 4.25,-1.82485 -4,-1.12857 c -2.2,-0.62071 -4.57,-1.13108 -5.26666,-1.13414 -0.69666,-0.003 -9.92166,-2.02147 -20.5,-4.48533 -10.57834,-2.46386 -23.28334,-5.42024 -28.23334,-6.56972 -15.61143,-3.62528 -17.24292,-3.59814 -23.1959,0.38589 -4.47024,2.99171 -5.6758,3.36913 -8.63206,2.70238 -4.9833,-1.12392 -5.67204,-1.78654 -5.67204,-5.45695 0,-3.17053 0.33495,-3.45338 8.53044,-7.20336 l 8.53043,-3.90324 4.80973,-13.98762 c 2.64535,-7.6932 7.21587,-20.83414 10.15672,-29.20209 5.22795,-14.87578 5.30597,-15.25977 3.50484,-17.25 -1.01413,-1.12061 -1.32802,-2.03554 -0.69833,-2.03554 1.39357,0 11.915,10.9647 19.67124,20.5 3.13168,3.85 11.08863,12.55742 17.68212,19.34982 10.23037,10.53899 12.35484,12.27972 14.48893,11.87176 2.34882,-0.449 2.46316,-0.27752 1.88164,2.8222 -0.37622,2.00547 -0.17915,3.57218 0.50231,3.99335 0.61679,0.38119 4.5681,-0.88211 8.78068,-2.80734 4.21259,-1.92522 8.55925,-3.80728 9.65925,-4.18235 3.44061,-1.17314 -0.45192,-2.4962 -9.17226,-3.11761 -4.30525,-0.30679 -8.80307,-0.75325 -9.99514,-0.99214 -2.92339,-0.58583 -6.59078,-6.7496 -7.92957,-13.32719 -1.05633,-5.18989 -0.99468,-5.5047 1.6648,-8.5 1.51897,-1.71077 5.70911,-4.9105 9.31141,-7.1105 3.60231,-2.2 6.56565,-4.32184 6.58521,-4.7152 0.0195,-0.39337 -1.31527,-2.2537 -2.96627,-4.13409 -1.651,-1.88038 -3.29026,-4.93354 -3.64282,-6.78479 -0.77922,-4.09173 -3.08568,-8.86592 -4.28322,-8.86592 -0.48207,0 -1.30915,-1.24112 -1.83795,-2.75804 -0.5288,-1.51692 -2.26032,-3.42942 -3.84782,-4.25 -1.58751,-0.82058 -3.9732,-2.55834 -5.30155,-3.86169 -2.10668,-2.06703 -3.05507,-2.29394 -7.42465,-1.77643 -2.75521,0.32632 -5.26838,1.01107 -5.58482,1.52169 -0.31644,0.51061 -2.82535,1.23533 -5.57535,1.61049 -8.50536,1.1603 -8.49327,1.15136 -8.56339,6.33137 -0.0564,4.17043 -0.17438,4.40916 -1.07816,2.18261 -0.58646,-1.44478 -0.74366,-5.46488 -0.37244,-9.52434 0.52715,-5.76466 0.1619,-8.94167 -2.03674,-17.71601 -1.4735,-5.88042 -3.22091,-11.43267 -3.88315,-12.33834 -1.10764,-1.51479 -1.53199,-1.47937 -5.29867,0.44225 -3.9909,2.036 -9.69438,8.12147 -12.29407,13.11744 -0.71005,1.36455 -2.37814,3.33615 -3.70687,4.38133 -1.32873,1.04517 -2.83119,2.85372 -3.3388,4.01899 -0.50762,1.16528 -1.46673,2.87847 -2.13136,3.8071 -1.02016,1.42536 -0.66998,2.16293 2.24761,4.73403 4.01325,3.53664 5.59079,3.7323 8.76408,1.08699 1.92094,-1.60132 2.12217,-2.27132 1.19983,-3.99474 -0.60952,-1.13889 -1.53564,-1.80655 -2.05804,-1.48369 -0.52241,0.32286 -0.94983,0.09 -0.94983,-0.51745 0,-1.78475 4.61082,-5.87778 7.41388,-6.5813 1.73843,-0.43632 2.60916,-1.35105 2.65641,-2.79067 0.0386,-1.17787 0.49609,-3.04159 1.01653,-4.14159 0.6678,-1.41145 0.8104,-0.25839 0.4846,3.91829 -0.25391,3.25506 -0.0351,6.71525 0.48617,7.68931 0.63192,1.18076 0.57636,2.00059 -0.16669,2.45983 -1.39495,0.86212 -2.8554,-1.34365 -2.87559,-4.34311 -0.0148,-2.20609 -0.10705,-2.22824 -3.01531,-0.72432 -3.30437,1.70876 -3.83598,3.24197 -1.44253,4.16043 0.85661,0.32871 1.32073,1.21459 1.03138,1.96861 -0.36133,0.94163 0.27695,1.37096 2.03816,1.37096 3.05537,0 8.01914,3.30975 8.83931,5.8939 0.32154,1.01307 0.12559,3.04926 -0.43544,4.52488 -0.88029,2.31534 -0.664,3.00428 1.57855,5.02807 9.07626,8.19085 13.66943,11.57549 21.92076,16.15304 6.76808,3.7547 16.44209,12.76116 15.12342,14.07984 -0.35135,0.35135 -3.22965,-1.8126 -6.39622,-4.80877 -3.16656,-2.99617 -8.7623,-6.9289 -12.43498,-8.73939 -3.67267,-1.8105 -9.07267,-5.64764 -12,-8.52698 -2.92732,-2.87934 -6.52407,-6.02155 -7.99276,-6.9827 -2.59636,-1.69911 -2.78248,-1.67676 -6.71677,0.80685 l -4.04641,2.55439 -4.03323,-3.83673 c -2.21828,-2.1102 -4.03324,-4.58257 -4.03324,-5.49417 0,-2.41536 -7.85269,-9.13428 -10.81731,-9.2555 -3.73591,-0.15276 -9.18269,-6.49416 -9.18269,-10.69092 0,-5.03191 4.85778,-9.70581 10.08765,-9.70581 3.34216,0 8.22964,3.73076 7.47246,5.70396 -1.22396,3.18959 2.05818,0.43659 4.31598,-3.62018 3.03971,-5.46166 7.76362,-10.17282 12.86821,-12.83348 3.60292,-1.87795 4.2464,-1.94511 6.11258,-0.63799 1.14716,0.8035 2.57132,3.26419 3.1648,5.4682 0.69492,2.58075 1.86209,4.31489 3.27868,4.87136 1.2098,0.47523 4.07066,2.81798 6.35747,5.2061 3.74882,3.91491 4.1423,4.8011 4,9.00891 -0.2166,6.40472 -1.3736,7.03891 -2.14323,1.17477 -0.8771,-6.683 -1.87171,-8.74768 -5.43694,-11.28635 l -3.07766,-2.19149 0.079,2.3181 c 0.0435,1.27495 0.62844,5.46809 1.29998,9.31809 1.18789,6.8103 1.30597,7.00836 4.35732,7.30861 1.72499,0.16973 4.62024,-0.45874 6.43389,-1.39662 1.8629,-0.96334 5.77565,-1.7502 8.99348,-1.80861 4.83201,-0.0877 6.12369,0.29226 8.51613,2.50508 1.55111,1.43466 4.2827,3.44418 6.0702,4.46561 1.7875,1.02143 3.25,2.37325 3.25,3.00403 0,0.63079 1.35,2.84565 3,4.9219 1.65,2.07626 3.00193,4.72563 3.00428,5.8875 0.002,1.16188 1.35043,4.1375 2.99572,6.6125 1.64529,2.475 2.99336,5.2875 2.99572,6.25 0.003,1.06413 0.76501,1.75 1.94526,1.75 1.06754,0 2.16042,0.35505 2.42861,0.789 0.2682,0.43395 5.46854,0.77145 11.55631,0.75 6.08777,-0.0215 11.06989,0.32506 11.07139,0.77002 10e-4,0.44496 0.43653,0.5409 0.96676,0.2132 1.1843,-0.73194 15.96263,4.12857 18.03595,5.93192 0.825,0.71758 2.99702,2.06336 4.82672,2.99062 l 3.32672,1.68595 -0.50726,7.18464 c -0.64512,9.13725 -2.09357,19.6966 -3.63447,26.49582 -1.62168,7.15559 -0.47811,9.52032 7.52861,15.568 6.49087,4.90272 7.74536,7.30892 4.9989,9.58828 -2.52263,2.0936 -9.12551,2.41524 -13.51624,0.65842 -2.2349,-0.89423 -5.74482,-1.62587 -7.79982,-1.62587 -2.055,0 -5.2236,-0.42653 -7.04134,-0.94785 -2.5923,-0.74347 -3.91927,-0.57428 -6.15371,0.78456 -2.39049,1.45374 -2.68,2.04859 -1.79977,3.69786 1.21828,2.28266 8.30489,9.15116 12.13561,11.76211 7.29279,4.97065 -3.035,10.9009 -13.47931,7.73986 z m 12.86536,-2.58853 c 2.23688,-0.68939 1.32988,-2.3776 -2.93863,-5.46969 -5.96723,-4.32265 -11.81137,-12.42331 -11.81137,-16.37196 0,-1.75605 1.16922,-7.22337 2.59826,-12.14959 1.42905,-4.92622 2.9525,-10.98177 3.38545,-13.45677 0.43296,-2.475 1.49314,-7.694 2.35597,-11.59778 2.35299,-10.6459 1.62057,-12.21936 -7.45684,-16.01951 -7.41914,-3.10593 -7.49479,-3.11536 -9.82959,-1.22475 -2.48443,2.01178 -3.8974,9.34255 -2.71146,14.06769 0.51252,2.04206 1.08026,2.28695 4.53752,1.95725 2.17343,-0.20727 4.77722,0.1031 5.78619,0.68971 1.74137,1.01243 1.73297,1.06931 -0.1655,1.12055 -1.4153,0.0382 -2.70395,1.58193 -4.40789,5.28041 -1.98338,4.305 -2.52418,7.51835 -3.06751,18.22643 -0.58184,11.46709 -0.98269,13.6285 -3.3995,18.33001 -1.70774,3.32214 -2.62408,6.5118 -2.43249,8.46714 0.29217,2.98183 0.67867,3.24513 7.80739,5.31884 4.125,1.19994 8.625,2.64166 10,3.20382 2.21243,0.90453 8.22609,0.71425 11.75,-0.3718 z m -17.73075,-11.65375 c -1.84671,-4.12475 -1.83525,-5.79426 0.0398,-5.79426 0.51754,0 0.94098,0.92235 0.94098,2.04966 0,1.12731 0.68656,3.37731 1.52568,5 0.94298,1.82352 1.11527,2.95034 0.45111,2.95034 -0.59102,0 -1.92191,-1.89258 -2.95754,-4.20574 z m -7.309,-1.79426 c -0.58156,-2.22388 0.16052,-6 1.17911,-6 0.36085,0 0.65609,1.8 0.65609,4 0,4.25757 -0.96875,5.31331 -1.8352,2 z m 7.30406,-16.5 c -0.11477,-2.46769 4.47077,-19.5 5.2499,-19.5 0.47881,0 0.63622,0.7875 0.34981,1.75 -0.28642,0.9625 -1.22151,4.83597 -2.07798,8.60771 -1.44255,6.35274 -3.41351,11.46927 -3.52173,9.14229 z m -2.46477,-13.25 c 0.88321,-5.1737 2.69154,-10.25 3.65135,-10.25 1.23485,0 0.95018,2.70269 -0.70089,6.65424 -0.825,1.97451 -1.5,4.43505 -1.5,5.46788 0,1.03284 -0.47039,1.87788 -1.04531,1.87788 -0.65506,0 -0.80632,-1.40002 -0.40515,-3.75 z m 1.95046,-25.22301 c -1.40443,-0.58456 -0.45025,-0.81093 3.20424,-0.76018 2.86233,0.0397 4.97327,0.44597 4.69098,0.90273 -0.64432,1.04253 -5.24768,0.95941 -7.89522,-0.14255 z m -11.0758,51.20964 c 0.86669,-1.81747 1.5758,-3.70731 1.5758,-4.19966 0,-0.49235 -2.5875,-1.40807 -5.75,-2.03494 -7.86177,-1.55836 -9.25,-2.00356 -9.25,-2.96645 0,-0.4563 3.55448,-0.0583 7.89883,0.88451 l 7.89884,1.71416 0.59016,-3.56713 c 0.32459,-1.96191 0.59511,-7.23392 0.60116,-11.71557 0.01,-7.09497 0.39617,-8.88065 2.9901,-13.8118 l 2.97909,-5.66335 -3.22909,0.3118 c -2.05594,0.19852 -3.22909,0.85362 -3.22909,1.80316 0,0.82024 -1.62493,2.39524 -3.61095,3.5 -12.02759,6.69052 -12.6717,7.29291 -13.39113,12.52373 -0.37277,2.71041 -0.70884,6.98348 -0.74682,9.4957 -0.038,2.51223 -0.44752,4.80158 -0.91008,5.08746 -0.46256,0.28588 -0.84102,-3.72929 -0.84102,-8.9226 0,-8.47924 -0.19638,-9.49374 -1.92528,-9.94586 -1.73891,-0.45474 -1.98664,0.2358 -2.55902,7.13337 -0.89635,10.80149 -0.85837,10.67295 -3.05195,10.32827 -5.19151,-0.81575 -56.07123,-13.5596 -56.81772,-14.23114 -1.94631,-1.75089 7.40129,-34.01112 14.39438,-49.67754 2.27613,-5.09913 2.28672,-5.26379 0.46785,-7.27362 -1.02355,-1.13102 -2.18225,-1.70825 -2.57489,-1.28276 -0.39264,0.4255 -3.31112,8.64863 -6.48552,18.27363 -3.17441,9.625 -7.27379,21.23773 -9.10975,25.80607 -1.83595,4.56833 -3.3381,9.1846 -3.3381,10.25838 0,1.47275 -2.05388,2.9012 -8.36151,5.81534 -4.59883,2.12466 -8.66964,4.36159 -9.04624,4.97095 -1.0635,1.72078 1.25101,5.14926 3.47618,5.14926 2.29693,0 12.09318,-4.73234 13.11774,-6.33688 0.75699,-1.1855 12.79029,1.252 45.81383,9.28018 10.725,2.6073 22.9875,5.562 27.25,6.566 4.2625,1.00401 7.74544,2.08764 7.73986,2.40808 -0.006,0.32044 -2.48057,1.6811 -5.5,3.02369 -4.49392,1.99822 -5.48986,2.88529 -5.48986,4.88975 0,1.34678 0.73758,2.98803 1.63906,3.64721 1.36035,0.9947 2.79288,0.42177 8.4242,-3.3692 4.22346,-2.84321 7.38007,-5.8153 8.36094,-7.8722 z m 52.95392,-4.11494 c 1.59175,-0.62526 0.87124,-1.52903 -4.72526,-5.92715 -9.97019,-7.83527 -10.2243,-8.41506 -8.30765,-18.95519 0.87405,-4.80664 1.77281,-10.31435 1.99725,-12.23935 0.22444,-1.925 0.98012,-6.10641 1.6793,-9.29202 1.5261,-6.95331 0.3821,-10.02294 -4.3502,-11.67263 -1.67293,-0.58319 -3.74591,-1.69107 -4.60663,-2.46195 -0.86071,-0.77089 -4.42478,-2.361 -7.92014,-3.53358 -5.85673,-1.96474 -6.54306,-2.00888 -8.75,-0.56284 -2.39337,1.5682 -2.78163,2.48416 -2.44709,5.77302 0.0979,0.9625 -0.30027,1.75 -0.88484,1.75 -1.48405,0 -1.33359,-6.32551 0.18714,-7.86736 1.00755,-1.02155 -0.10772,-1.25859 -5.75,-1.22211 -11.48492,0.0743 -12.91972,-0.10227 -14.11474,-1.73656 -1.03233,-1.4118 -1.39,-1.40089 -3.70036,0.11292 -1.40666,0.92168 -4.49871,3.47857 -6.87123,5.68198 -4.85503,4.50897 -6.43853,5.10608 -4.72342,1.78113 0.87332,-1.69304 0.27281,-1.40628 -2.42591,1.15845 -1.97258,1.87465 -3.31097,3.85429 -2.9742,4.3992 0.33677,0.54491 0.76696,2.83611 0.95596,5.09155 0.26402,3.15065 1.15238,4.85382 3.83409,7.3508 3.0713,2.85973 4.18268,3.25844 9.25512,3.32029 3.17058,0.0386 6.6575,0.41898 7.74872,0.84517 1.09122,0.4262 2.75044,0.57448 3.68716,0.32952 1.40426,-0.36722 1.5258,-0.91035 0.69263,-3.09518 -1.47059,-3.85631 -0.12579,-10.68502 2.78563,-14.14505 l 2.52834,-3.00475 -2.8389,-0.0318 c -2.40778,-0.027 -2.60557,-0.2168 -1.30249,-1.25 0.84502,-0.67001 1.38922,-2.1182 1.20934,-3.2182 -0.30703,-1.8775 -0.20756,-1.86219 1.62389,0.25 1.07303,1.2375 2.56632,2.25 3.31842,2.25 0.75211,0 2.11575,0.87393 3.03031,1.94206 0.91457,1.06814 3.60208,2.49459 5.97225,3.1699 4.56837,1.30161 8.43862,4.14447 9.28874,6.82296 0.38978,1.22811 1.47956,1.52648 4.51718,1.2368 2.20191,-0.20998 4.00139,-0.22202 3.99884,-0.0268 -0.003,0.19527 -1.11687,3.05504 -2.47627,6.35504 -2.00109,4.85774 -2.47615,7.7402 -2.49536,15.1408 -0.018,6.93302 -0.50149,10.19367 -2.00178,13.5 -1.08792,2.39756 -1.98792,5.8217 -2,7.6092 l -0.022,3.25004 5.75,0.0703 c 3.1625,0.0386 6.65,0.45702 7.75,0.92971 2.44977,1.0527 11.31019,1.13039 13.87812,0.12169 z m -21.72313,-5.95043 c -2.24643,-2.48227 -1.94897,-8.17126 0.42725,-8.17126 0.47859,0 0.45852,1.0777 -0.0447,2.40135 -0.71324,1.87595 -0.48903,2.78504 1.02475,4.15499 2.0252,1.83278 2.53636,3.44366 1.09273,3.44366 -0.46476,0 -1.58976,-0.82293 -2.5,-1.82874 z m 2.34501,-18.60616 c 0,-0.2392 0.48586,-1.7017 1.07968,-3.25 0.59382,-1.54831 1.43676,-5.5151 1.8732,-8.8151 l 0.79351,-6 0.12681,5.78212 c 0.11307,5.15596 -1.86226,12.71788 -3.32217,12.71788 -0.30307,0 -0.55103,-0.19571 -0.55103,-0.4349 z m 2,-28.25908 c 0.825,-0.29485 2.05785,-1.23897 2.73967,-2.09805 1.45674,-1.83548 2.77018,-0.97901 1.91525,1.2489 -0.34937,0.91045 -1.73251,1.51076 -3.37354,1.46418 -1.52976,-0.0434 -2.10638,-0.32018 -1.28138,-0.61503 z m -15.54705,51.53346 c 3.61655,-1.64781 3.46702,-5.07818 -0.20295,-4.6559 -2.15997,0.24853 -2.81789,0.90645 -3.06642,3.06642 -0.35909,3.12076 -0.22959,3.18372 3.26937,1.58948 z m -42.97476,-16.3602 0.7171,-10.52072 -3.78676,-4.22928 c -2.08271,-2.3261 -8.1408,-8.95428 -13.46242,-14.72928 -5.32161,-5.775 -12.29784,-13.65 -15.50272,-17.5 -3.20488,-3.85 -6.28151,-7.30766 -6.83694,-7.68369 -0.56293,-0.3811 -1.5128,0.72535 -2.14622,2.5 -0.62498,1.75103 -2.28366,5.88369 -3.68596,9.18369 -2.15746,5.07714 -5.80932,15.86906 -9.83729,29.071 -1.61754,5.30157 -1.25948,5.54641 4.43097,3.02982 3.21012,-1.41967 6.42599,-2.17171 8,-1.87081 2.21629,0.42367 2.63205,1.03018 2.63205,3.83965 0,2.86695 -0.52286,3.58462 -3.71525,5.09951 l -3.71526,1.763 4.46526,1.32775 c 2.45589,0.73026 12.32851,3.35879 21.93917,5.84116 9.61065,2.48238 17.67315,4.71266 17.91666,4.95617 1.41793,1.41793 1.94359,-0.62937 2.58761,-10.07797 z m 48.85673,5.02548 c 1.24817,-3.01779 1.7982,-6.99807 1.81531,-13.13646 0.0173,-6.20203 0.59008,-10.29475 1.93665,-13.83755 1.05166,-2.76691 1.91234,-5.14325 1.91262,-5.28075 2.7e-4,-0.1375 -1.02219,-0.25 -2.27214,-0.25 -1.83436,0 -2.48492,0.81961 -3.37338,4.25 -0.60541,2.3375 -1.83273,6.85946 -2.72736,10.04879 -0.89464,3.18933 -1.62662,6.68808 -1.62662,7.77498 0,1.08691 -0.9,4.53686 -2,7.66655 -2.65206,7.54558 -2.58722,7.92663 1.27208,7.47608 2.78137,-0.32471 3.54064,-1.03131 5.06284,-4.71164 z m -95.24636,-9.54994 c 4.28057,-2.18378 5.81796,-4.4483 4.15142,-6.11484 -0.70078,-0.70078 -3.03892,-0.30128 -7.38278,1.26144 -7.97372,2.86859 -10.18523,5.31108 -5.6072,6.19285 4.1846,0.80599 4.82271,0.70928 8.83856,-1.33945 z m 0.29112,-70.50186 c 1.68239,-4.38425 -1.16075,-8.45296 -5.90677,-8.45296 -2.5778,0 -9.47291,6.15914 -9.47291,8.46179 0,0.93063 1.3423,3.03436 2.98289,4.67495 l 2.98289,2.98289 4.39679,-3.02507 c 2.41823,-1.66379 4.67593,-3.75251 5.01711,-4.6416 z m -10.37968,3.56282 c 0,-0.54133 1.25201,-2.38547 2.78224,-4.09809 2.04494,-2.2887 3.43619,-3.00268 5.25,-2.6943 l 2.46776,0.41956 -2.61868,1.10385 c -1.44027,0.60711 -3.53003,2.26245 -4.64392,3.67852 -2.12277,2.69867 -3.2374,3.24626 -3.2374,1.59046 z m -16,-16.45406 c 0,-0.79106 1.33793,-2.90313 2.97317,-4.69349 1.63525,-1.79037 2.78145,-3.44694 2.54711,-3.68128 -0.85189,-0.85189 -7.04563,3.48237 -8.15435,5.70625 -0.62621,1.25604 -1.41618,1.83452 -1.75549,1.2855 -1.62229,-2.62493 3.14491,-8.11652 7.08054,-8.15646 4.67639,-0.0475 3.35816,-3.21885 -1.88495,-4.53479 -3.28455,-0.82437 -8.15844,1.79584 -9.72145,5.22626 -1.85357,4.06815 2.41187,10.17328 7.16542,10.25588 0.9625,0.0167 1.75,-0.61682 1.75,-1.40787 z m 74.52605,35.52035 c -0.3348,-1.05485 -2.61512,-3.71369 -5.06739,-5.90851 -2.45226,-2.19483 -4.42703,-4.81926 -4.38837,-5.83208 0.0627,-1.64356 0.14334,-1.66032 0.75,-0.15597 0.37384,0.92704 2.221,2.72704 4.10479,4 3.01659,2.03845 6.79365,6.92819 7.00183,9.06449 0.1567,1.60799 -1.82593,0.64352 -2.40086,-1.16793 z m -19.77609,-3.36962 c -2.33869,-2.00342 -3.75003,-4.08821 -3.75,-5.53937 2e-5,-1.27981 -1.37015,-3.69712 -3.04483,-5.3718 -3.30983,-3.30982 -3.36638,-4.69957 -0.10845,-2.66496 1.72956,1.08013 2.35647,0.9898 4.10351,-0.59124 1.13414,-1.02638 2.39681,-1.53017 2.80594,-1.11954 0.40913,0.41064 -0.2783,1.57535 -1.52762,2.58824 -2.80523,2.27434 -1.09556,3.75278 2.06547,1.78611 1.42927,-0.88924 3.43838,-1.14199 5.70602,-0.71784 2.55362,0.47765 2.84321,0.69026 1.071,0.78631 -4.64083,0.25151 -9.17154,2.43683 -8.4838,4.09202 0.35184,0.84679 0.86614,2.32712 1.14289,3.28962 0.27674,0.9625 1.10986,1.75 1.85136,1.75 0.7415,0 1.81402,0.87042 2.38337,1.93426 2.21635,4.14129 0.79081,4.06627 -4.21486,-0.22181 z m 4.75004,-1.71245 c -0.33992,-0.55 0.30852,-1 1.44098,-1 1.13246,0 2.05902,0.45 2.05902,1 0,0.55 -0.64844,1 -1.44098,1 -0.79254,0 -1.7191,-0.45 -2.05902,-1 z m 16.48904,-4.25 c -2.13174,-3.4963 -2.60848,-6.75 -0.98904,-6.75 0.55,0 1.00487,0.1125 1.01082,0.25 0.006,0.1375 0.65943,2.3875 1.45217,5 1.6896,5.56814 1.26802,5.99717 -1.47395,1.5 z m -17.98904,-0.75 c -1.21948,-0.78809 -1.09025,-0.97224 0.69098,-0.98469 1.20504,-0.008 2.4691,0.43469 2.80902,0.98469 0.78687,1.27319 -1.52988,1.27319 -3.5,0 z m 11,-7.2267 c 0,-1.82294 1.77282,-3.33381 2.75701,-2.34963 0.34317,0.34317 -0.13677,1.38466 -1.06653,2.31442 -1.55895,1.55895 -1.69048,1.56169 -1.69048,0.0352 z m -4,-2.99151 c 0,-2.40153 1.08235,-4.78179 2.17438,-4.78179 0.53072,0 0.65626,1.00664 0.28061,2.25 -0.91126,3.01618 -2.45499,4.60819 -2.45499,2.53179 z m -18,-3.29767 c 0,-1.0324 0.87711,-1.4562 2.75,-1.32875 1.5125,0.10293 3.7625,-0.14525 5,-0.5515 1.34589,-0.44184 2.25,-0.32863 2.25,0.28174 0,0.95979 -6.01423,3.09661 -8.75,3.10881 -0.6875,0.003 -1.25,-0.67657 -1.25,-1.5103 z m 8.59824,-14.5669 c -0.25703,-0.77947 -0.62632,-4.38734 -0.82064,-8.01748 -0.38855,-7.25849 -4.1347,-16.15225 -7.0391,-16.71158 -1.5916,-0.30652 -5.68818,2.11999 -10.62568,6.29386 -1.6875,1.42651 -2.25052,1.5821 -1.92095,0.53083 0.59784,-1.90694 10.79297,-9.00903 12.93569,-9.0112 2.07648,-0.002 3.01848,1.27421 5.74477,7.78358 2.45713,5.86675 4.37074,18.20435 3.04499,19.63199 -0.5042,0.54295 -1.04245,0.33893 -1.31908,-0.5 z M 871.39178,356.0557 c 0.0464,-1.1 0.44466,-3.125 0.88501,-4.5 0.78459,-2.44987 0.80233,-2.43984 0.88501,0.5 0.0464,1.65 -0.35185,3.675 -0.88501,4.5 -0.79859,1.23573 -0.95451,1.14764 -0.88501,-0.5 z"
       id="path3206"
       inkscape:connector-curvature="0" />
  </g>
</svg>
