<?xml version="1.0" encoding="UTF-8" standalone="no"?>
<!-- Created with Inkscape (http://www.inkscape.org/) -->

<svg
   xmlns:dc="http://purl.org/dc/elements/1.1/"
   xmlns:cc="http://creativecommons.org/ns#"
   xmlns:rdf="http://www.w3.org/1999/02/22-rdf-syntax-ns#"
   xmlns:svg="http://www.w3.org/2000/svg"
   xmlns="http://www.w3.org/2000/svg"
   xmlns:sodipodi="http://sodipodi.sourceforge.net/DTD/sodipodi-0.dtd"
   xmlns:inkscape="http://www.inkscape.org/namespaces/inkscape"
   width="695.29211"
   height="897.36707"
   id="svg2"
   version="1.1"
   inkscape:version="0.48.3.1 r9886"
   sodipodi:docname="Good-mornings-2-2.svg">
  <defs
     id="defs4" />
  <sodipodi:namedview
     id="base"
     pagecolor="#ffffff"
     bordercolor="#666666"
     borderopacity="1.0"
     inkscape:pageopacity="0.0"
     inkscape:pageshadow="2"
     inkscape:zoom="0.49497475"
     inkscape:cx="877.04088"
     inkscape:cy="266.71124"
     inkscape:document-units="px"
     inkscape:current-layer="layer1"
     showgrid="false"
     fit-margin-top="0"
     fit-margin-left="0"
     fit-margin-right="0"
     fit-margin-bottom="0"
     inkscape:window-width="1855"
     inkscape:window-height="1056"
     inkscape:window-x="65"
     inkscape:window-y="24"
     inkscape:window-maximized="1" />
  <metadata
     id="metadata7">
    <rdf:RDF>
      <cc:Work
         rdf:about="">
        <dc:format>image/svg+xml</dc:format>
        <dc:type
           rdf:resource="http://purl.org/dc/dcmitype/StillImage" />
        <dc:title></dc:title>
      </cc:Work>
    </rdf:RDF>
  </metadata>
  <g
     inkscape:label="Ebene 1"
     inkscape:groupmode="layer"
     id="layer1"
     transform="translate(-126.39713,83.278021)">
    <path
       style="fill:#000000"
       d="m 607.16883,813.00079 c -1.65,-0.57834 -3.689,-1.64846 -4.5312,-2.37803 -0.8422,-0.72958 -4.854,-1.84205 -8.9152,-2.47217 -4.0612,-0.63012 -9.1763,-1.77802 -11.3669,-2.5509 -5.6707,-2.00072 -15.9985,-11.45997 -21.6394,-19.81944 -6.0554,-8.97357 -14.9894,-17.29895 -24.3226,-22.66558 -17.6721,-10.16142 -18.8147,-11.27724 -20.0921,-19.62126 -0.8623,-5.63184 0.4985,-9.24907 10.1542,-26.99286 11.6349,-21.38067 11.589,-21.16232 11.7194,-55.79032 0.06,-15.95 0.4196,-30.35 0.799,-32 0.6854,-2.98109 0.3139,-3.2837 -58.92163,-48 -32.78626,-24.75 -60.13968,-45.12712 -60.78538,-45.28248 -0.6457,-0.15536 -9.25694,3.92569 -19.13609,9.06901 -9.87915,5.14331 -25.90785,13.48322 -35.61934,18.53311 l -17.65725,9.18164 -9.59275,-8.17951 -9.59275,-8.17951 0,-14.13854 0,-14.13853 34.25,-16.27986 c 18.8375,-8.95392 34.55123,-16.57359 34.9194,-16.93259 0.57505,-0.56074 -16.33306,-143.71502 -17.70317,-149.88575 -0.27269,-1.22815 -10.667,-13.51486 -23.09846,-27.30381 -24.0948,-26.72588 -24.32069,-27.07386 -24.31947,-37.46318 8.2e-4,-6.96913 1.61956,-13.34528 4.50081,-17.72856 2.88931,-4.39554 3.28774,-11.60433 0.96728,-17.5012 -5.98212,-15.2021 -5.75075,-47.5523 0.49939,-69.82648 2.51236,-8.9535 2.24282,-12.45293 -1.60685,-20.86171 -2.41451,-5.27399 -2.52129,-6.06787 -1.39835,-10.39604 0.66868,-2.57731 1.32324,-11.43601 1.45457,-19.68601 0.23294,-14.63256 0.37665,-15.53075 5.86663,-36.666961 5.45859,-21.01539 7.64305,-33.72946 7.66002,-44.58304 0.005,-2.8875 -0.1043,-5.24419 -0.2418,-5.2371 -0.1375,0.007 -3.10259,0.9071 -6.58909,2 -20.60688,6.45958 -34.80451,-4.26013 -38.3942,-28.988968 -0.89554,-6.1692259 -0.79185,-9.29684094 0.57586,-17.3706029 3.46275,-20.4409891 12.61448,-36.6589321 27.3681,-48.4994891 8.43365,-6.768454 15.84865,-9.486291 24.28933,-8.902822 13.9707,0.965736 22.53375,9.552154 25.95332,26.02413 0.99345,4.785402 1.66798,5.893885 4.66127,7.659965 4.18877,2.471439 4.38541,2.495322 4.38541,0.532634 0,-3.331302 6.37132,-17.779226 10.88188,-24.676295 6.21783,-9.507646 18.02111,-20.466668 26.77149,-24.856599 6.20273,-3.111809 7.64603,-3.433717 15.34663,-3.422847 9.915,0.014 14.39339,1.86039 20.25851,8.352384 4.19964,4.6485 7.74149,14.780594 7.74149,22.14593 0,4.603143 0.17726,4.903526 4.32972,7.337029 2.38135,1.395563 4.90877,3.235093 5.61649,4.087845 0.70772,0.852752 3.0859,2.034914 5.28483,2.627026 2.3744,0.639359 5.32347,2.523327 7.2617,4.639023 l 3.26364,3.562457 4.84765,-3.335267 c 14.74346,-10.143761 31.22966,-10.619132 40.94806,-1.180717 6.0831,5.907862 8.7231,12.984728 9.2222,24.721939 0.8093,19.0323031 -6.3057,37.895195 -20.0125,53.055945 l -4.5436,5.0256 2.0012,2.47137 c 5.2027,6.42513 14.0998,27.7947 16.2154,38.94729 1.1894,6.27005 2.2576,9.05473 4.4167,11.513821 2.3928,2.7252 2.9584,4.46257 3.5391,10.87117 0.4488,4.95267 0.2712,9.12112 -0.5064,11.88638 -2.2555,8.02126 -1.6803,21.27059 1.3572,31.25877 5.4467,17.91013 5.3639,23.50128 -0.6407,43.28122 -3.492,11.5032 -4.6247,21.38054 -4.3427,37.86789 l 0.242,14.14912 4.0608,2.46201 c 4.7889,2.90336 12.755,13.06684 16.0822,20.51827 2.045,4.57983 2.357,6.84188 2.357,17.08968 l 0,11.81115 4.9529,9.72806 c 6.0842,11.95022 14.0433,23.99094 21.5443,32.5926 6.2413,7.15712 11.2408,14.18074 12.5555,17.63865 0.936,2.46184 6.0939,4.34393 11.9473,4.35951 4.1726,0.0111 9.5646,3.05473 10.471,5.91054 0.7405,2.33308 4.6851,3.58446 14.529,4.60915 9.4959,0.98846 18.4636,2.98532 30.6811,6.83185 5.9504,1.8734 15.5439,4.8623 21.3189,6.64201 5.775,1.77971 13.1008,4.54784 16.2796,6.15139 7.0462,3.5545 13.7204,9.40415 13.7204,12.02528 0,1.29019 1.0838,2.30461 3.25,3.0421 5.1237,1.74432 22.73,11.0328 30.7645,16.23025 9.6887,6.26764 17.6547,13.3714 25.5257,22.76299 4.3083,5.14063 9.7881,10.06592 16.4702,14.80367 5.5076,3.90497 10.7956,8.29308 11.7511,9.75135 2.2534,3.43918 3.1173,23.70548 1.207,28.31727 -0.7219,1.74298 -4.9341,5.95843 -9.9797,9.98741 -7.0212,5.60665 -9.0723,7.86663 -10.4766,11.54392 -2.8283,7.40567 -10.375,20.41078 -15.8304,27.28002 -2.7899,3.51304 -8.4722,8.89809 -12.6272,11.96676 -10.0032,7.38782 -18.7569,16.01629 -19.5638,19.28397 -0.5261,2.13067 0.2533,3.86173 4.0522,9 2.587,3.49905 6.1829,9.51191 7.9909,13.36191 4.2142,8.9736 9.3144,14.26027 18.3258,18.99561 11.9245,6.26615 19.3574,16.49311 16.2318,22.33335 -0.6003,1.12176 -1.0915,3.39362 -1.0915,5.04859 0,1.85127 -0.7514,3.53537 -1.953,4.37696 -1.0741,0.75235 -2.404,2.55433 -2.9553,4.0044 -1.5801,4.15599 -5.3993,5.99703 -13.5222,6.51832 -9.7972,0.62875 -16.4143,-1.56938 -22.2292,-7.38434 -2.3872,-2.38714 -4.3403,-4.9871 -4.3403,-5.77768 0,-2.8704 -8.368,-8.38472 -16.75,-11.03781 -2.0331,-0.64352 -2.25,-0.38299 -2.25,2.70237 l 0,3.41454 -70.0208,40.28203 c -38.5115,22.15512 -70.2554,40.66162 -70.5422,41.12556 -0.8326,1.34725 10.5622,21.39034 16.3235,28.71248 6.4008,8.13486 13.4964,14.07136 22.5934,18.9026 7.8907,4.19059 11.6224,8.89324 12.3783,15.599 0.6069,5.38486 -1.7241,10.35392 -5.5301,11.78831 -1.4861,0.56011 -4.0521,2.29979 -5.7021,3.86595 -1.65,1.56617 -4.8,3.33606 -7,3.93309 -4.9667,1.34785 -15.0029,1.28829 -19,-0.11277 z m 20.5238,-6.80272 c 2.4574,-1.25367 4.1777,-2.94258 4.5637,-4.48041 0.8029,-3.19915 -2.18,-8.3715 -6.348,-11.00743 -3.0709,-1.94208 -4.3156,-4.5 -2.1898,-4.5 2.181,0 6.766,3.02601 9.7713,6.44892 3.7748,4.29928 5.179,4.48526 5.179,0.68594 0,-4.16112 -3.2026,-7.60482 -10.8006,-11.61387 -18.2485,-9.6287 -27.7913,-20.3254 -40.6103,-45.52099 -9.8213,-19.30368 -11.5891,-24.64932 -11.5891,-35.04501 0,-14.01538 3.2905,-24.83014 15.5033,-50.95499 3.4711,-7.425 8.9403,-20.42843 12.1539,-28.89651 5.1247,-13.50413 6.5074,-16.14228 11.2502,-21.46423 3.4667,-3.89 6.966,-9.42575 9.75,-15.42406 5.7951,-12.48591 5.8396,-16.88424 0.3191,-31.53403 -2.2129,-5.87242 -5.4275,-16.19054 -7.1435,-22.92915 -3.6623,-14.38185 -5.7919,-19.54293 -14.0032,-33.93598 -5.6452,-9.89499 -6.4499,-10.83653 -10.8979,-12.75 -12.047,-5.18248 -28.825,-0.76954 -41.3051,10.86405 -5.5241,5.14943 -14.6268,17.56615 -14.6268,19.95198 0,3.02751 5.1537,14.66035 8.3105,18.75837 16.8717,21.90199 20.7324,28.00824 25.1188,39.72862 2.6683,7.12985 3.3728,13.63094 1.4771,13.63094 -0.6015,0 -1.329,-0.9 -1.6166,-2 -0.7622,-2.91438 -2.8451,-2.45331 -5.6468,1.25 -4.1942,5.54362 -16.4701,29.96056 -17.9748,35.75196 -2.5756,9.91311 -3.9747,30.16298 -3.4377,49.75743 0.7124,25.9959 -1.2987,34.10404 -12.4954,50.37701 -6.6701,9.6941 -8.0099,12.73616 -8.0913,18.37224 -0.1192,8.24278 2.5288,11.37526 15.7082,18.58227 13.1824,7.20872 15.5118,9.14683 22.0998,18.3874 6.3244,8.87089 16.6518,19.37672 22.994,23.39114 4.3319,2.74201 5.8213,3.13119 12,3.13567 5.742,0.004 7.7983,0.46342 11.0542,2.46879 5.3114,3.27139 15.6356,3.5179 21.5238,0.51393 z m -12.5238,-9.31157 -4,-2.14611 2.8849,-0.34452 c 2.9433,-0.35149 6.1537,1.77305 5.4812,3.62734 -0.2097,0.57813 -2.0751,0.0925 -4.3661,-1.13671 z m -73,-53.34147 c -4.4719,-2.36285 -6.5,-4.41771 -6.5,-6.58586 0,-2.05077 8.4928,-18.31745 10.0736,-19.29443 1.4799,-0.91462 1.1366,0.24331 -2.5736,8.68192 -1.925,4.37824 -3.5,8.82299 -3.5,9.87721 0,1.05422 1.3966,3.50743 3.1036,5.45156 1.707,1.94414 2.9445,3.51678 2.75,3.49476 -0.1945,-0.022 -1.7036,-0.75334 -3.3536,-1.62516 z m 10.557,-70.0848 c 0.031,-0.4125 2.2536,-2.42257 4.9384,-4.46682 2.6848,-2.04426 6.1154,-5.82251 7.6237,-8.39611 3.187,-5.43827 8.8026,-23.6029 9.8239,-31.77729 0.4384,-3.50897 1.0972,-5.39396 1.7451,-4.99351 2.6457,1.63512 -2.9665,26.05501 -8.7528,38.08513 -3.7783,7.85551 -8.3952,12.2986 -12.7797,12.2986 -1.4606,0 -2.63,-0.3375 -2.5986,-0.75 z m 21.8287,-66.50128 c -1.4131,-7.22113 -1.2078,-12.69945 0.3796,-10.12714 0.8004,1.29695 2.7347,12.30441 2.7347,15.56208 0,5.39475 -1.5109,2.75791 -3.1143,-5.43494 z m 29.209,-13.65399 c -2.1202,-2.12024 -7.0947,-11.27834 -7.0947,-13.06149 0,-2.38037 1.8569,-0.71215 4.3921,3.94577 2.8931,5.31561 5.8996,8.02099 8.9137,8.02099 2.8086,0 1.4364,2.45287 -1.5723,2.81058 -1.6147,0.19196 -3.3863,-0.46334 -4.6388,-1.71585 z m -10.7703,-24.59473 c 0.8515,-1.65 3.5812,-5.68861 6.066,-8.97468 2.6667,-3.52652 4.9871,-7.93046 5.663,-10.74771 1.0889,-4.53917 2.9466,-5.70736 2.9466,-1.85295 0,3.53826 -6.974,15.64837 -11.561,20.07534 -4.1741,4.0284 -4.5005,4.1856 -3.1146,1.5 z m 67.1756,117.73073 69,-39.73753 0,-12.88309 0,-12.88309 -11.5,-4.36014 c -6.325,-2.39807 -11.95,-4.35952 -12.5,-4.35877 -0.9324,10e-4 -44.9848,25.14339 -46.2215,26.3801 -0.3099,0.3099 -0.011,1.22962 0.6651,2.04382 1.349,1.62542 0.6443,3.56797 -1.2943,3.56797 -0.9066,0 -25.0804,-34.09373 -32.8722,-46.36175 -1.1985,-1.88692 -10.0018,9.11496 -13.0224,16.27468 -1.5151,3.59116 -2.7547,6.86219 -2.7547,7.26896 0,0.40677 5.625,8.46051 12.5,17.8972 6.875,9.43668 12.5,17.81235 12.5,18.61258 0,3.84897 -4.3646,-0.50726 -14.7251,-14.69685 -6.2225,-8.52215 -11.6455,-15.60836 -12.0512,-15.74714 -0.7577,-0.2592 -14.2237,28.44144 -14.2237,30.31564 0,0.57363 2.7262,2.96552 6.0582,5.3153 3.332,2.34979 5.8821,4.80051 5.6669,5.44606 -0.2152,0.64554 -4.9427,3.87407 -10.5056,7.17452 -5.5629,3.30044 -10.3497,6.24999 -10.6373,6.55455 -0.2877,0.30456 -1.2361,3.33723 -2.1077,6.73927 -1.4411,5.62523 -1.4432,7.00492 -0.024,15.23143 1.4863,8.61234 6.5051,21.99349 8.2364,21.95968 0.447,-0.009 31.8627,-17.89776 69.8127,-39.7534 z m -67.265,-14.40657 c 2.8957,-1.74671 5.49,-3.36204 5.765,-3.58963 0.6795,-0.56233 -5.2178,-5.22334 -6.6167,-5.22956 -1.0098,-0.004 -5.3833,9.03629 -5.3833,11.12838 0,1.32203 0.557,1.11574 6.235,-2.30919 z m 194.7198,-12.5865 c 3.538,-2.86488 1.4343,-6.38741 -6.0473,-10.12603 -3.4248,-1.7114 -7.3176,-3.11163 -8.6506,-3.11163 -1.5007,0 -2.2604,-0.47597 -1.9951,-1.25 0.2357,-0.6875 1.7357,-1.19713 3.3334,-1.13251 3.4667,0.14021 13.6381,4.37871 16.3095,6.79627 2.2824,2.06555 3.5813,0.65858 2.6858,-2.90931 -0.3288,-1.31003 -0.1462,-2.66102 0.4058,-3.00218 3.9197,-2.42248 -2.5993,-10.27422 -12.4735,-15.02348 -9.4229,-4.53225 -15.974,-11.4518 -21.8495,-23.07852 -2.7155,-5.37344 -6.2754,-10.62731 -8.9838,-13.2586 -4.1916,-4.07234 -4.5299,-4.21998 -5.1551,-2.25 -1.018,3.20743 -2.5373,2.51665 -2.511,-1.14167 0.047,-6.55237 4.6864,-12.58761 18.4804,-24.04069 22.5895,-18.756 23.1309,-19.38524 31.8629,-37.03623 6.2139,-12.56087 8.549,-16.29649 11.8222,-18.9128 7.4144,-5.9265 8.6479,-7.47146 10.2368,-12.82202 1.7998,-6.06056 2.0126,-12.8202 0.5675,-18.02259 -0.8213,-2.95659 -2.3603,-4.47312 -8.7872,-8.65918 -4.4881,-2.92321 -11.8012,-9.22471 -17.2487,-14.8627 -24.1852,-25.03056 -23.7928,-24.69171 -34.9573,-30.1879 -14.311,-7.04518 -33.0819,-14.21098 -37.1503,-14.18215 -1.8423,0.0131 -5.905,1.07472 -9.0281,2.35927 -12.9714,5.33513 -18.3941,13.07886 -21.224,30.3083 -0.5219,3.17769 -0.4796,3.21316 9.9126,8.31367 5.7401,2.81731 15.5111,6.89847 21.7132,9.06926 10.9838,3.8444 11.1285,3.93354 5.5744,3.43321 -6.7258,-0.60589 -25.2933,-6.49557 -31.6132,-10.02783 -2.4401,-1.36379 -4.8298,-2.47962 -5.3105,-2.47962 -0.4808,0 -0.8741,5.54461 -0.8741,12.32136 l 0,12.32137 10.75,5.14661 c 11.5809,5.54441 16.1671,6.47338 45.75,9.26719 14.5876,1.37764 24.8909,5.21925 21.9326,8.17758 -0.3121,0.31209 -2.1348,0.13467 -4.0504,-0.39426 -5.3448,-1.47576 -9.7428,0.5585 -17.8436,8.25347 -5.4831,5.20839 -7.9882,8.52452 -10.4116,13.78198 -4.4871,9.73501 -8.0895,24.71868 -8.2283,34.22523 -0.1036,7.08655 -1.0327,9.99733 -2.1354,6.68934 -0.2219,-0.66557 -2.2725,1.54222 -4.5569,4.90621 -5.4235,7.98641 -12.2665,14.92526 -19.7064,19.98237 -8.0392,5.46444 -9.6475,7.45046 -10.2318,12.63454 -0.5919,5.25126 0.7496,8.11912 5.0099,10.70995 l 3.1505,1.91592 4.1856,-2.45291 4.1856,-2.45292 14.3501,5.38275 14.3501,5.38276 0.2898,8.05763 0.2897,8.05764 6.4947,3.19731 c 7.5346,3.70931 14.9453,9.86995 15.7886,13.12548 1.9206,7.41435 25.3188,14.08085 31.592,9.00106 z m -4.1973,-18.75702 c -1.5084,-1.30451 -2.3958,-2.58613 -1.9721,-2.84803 1.1316,-0.69933 5.5441,2.89151 5.0966,4.14753 -0.2165,0.60769 -1.5704,0.0446 -3.1245,-1.2995 z m -77.7575,-38.94584 c 0,-5.02481 3.16,-9.50398 9.1522,-12.9728 l 3.3478,-1.938 -3.5945,4.438 c -5.042,6.22509 -5.9774,8.32866 -5.2719,11.85614 0.5338,2.66899 0.3317,3.08186 -1.5086,3.08186 -1.8494,0 -2.125,-0.57911 -2.125,-4.4652 z m 32,-41.43934 c 0,-0.4975 2.4135,-2.26666 5.3634,-3.93147 6.6474,-3.75156 10.806,-8.5402 17.0008,-19.57652 5.2905,-9.42544 6.6358,-10.91098 6.6358,-7.32776 0,3.05895 -6.1264,13.09032 -12.4194,20.33546 -6.5322,7.52055 -16.5806,13.88409 -16.5806,10.50029 z m 29.6498,-41.85308 c -0.2575,-0.41668 -0.7887,-2.55418 -1.1803,-4.75 -0.4926,-2.76184 -0.3905,-3.68416 0.3314,-2.99238 1.1372,1.08984 2.7669,8.5 1.8694,8.5 -0.3037,0 -0.763,-0.34093 -1.0205,-0.75762 z m 26.2412,-12.2436 c -2.5644,-1.49873 -6.7283,-7.46541 -7.4058,-10.61211 l -0.6215,-2.88667 2.285,3 c 3.3098,4.34535 9.0324,9.5 10.5467,9.5 0.7175,0 1.3046,0.45 1.3046,1 0,1.25367 -3.9632,1.25288 -6.109,-0.001 z m -11.7659,-23.17449 c 2.7758,-3.89816 2.769,-8.15132 -0.021,-13.62121 -2.5359,-4.97077 -2.6371,-5.89045 -0.4487,-4.07552 5.7848,4.79743 5.5694,20.87244 -0.2797,20.87244 -1.1911,0 -1.0322,-0.673 0.7499,-3.17571 z m -109.3751,142.73119 c 8.3875,-4.8134 15.25,-8.98005 15.25,-9.25921 0,-0.27916 -1.1698,-1.89773 -2.5995,-3.59684 -2.3841,-2.83345 -2.5685,-3.70069 -2.2266,-10.47239 l 0.3729,-7.38312 5.991,-5.67196 c 3.295,-3.11958 9.5522,-8.59696 13.9047,-12.17196 10.863,-8.92246 14.2986,-15.21061 15.6762,-28.69253 1.1135,-10.89616 4.0079,-20.50152 9.8941,-32.8343 3.3453,-7.00896 4.9065,-9.01942 10.5603,-13.59905 l 6.6346,-5.37412 -5.3538,-0.24832 c -20.9448,-0.97145 -33.5413,-3.82507 -47.1529,-10.68206 l -6.799,-3.42506 -32.5305,19.53169 -32.5306,19.5317 0.6593,5.14602 c 0.3626,2.83032 3.1397,12.57103 6.1712,21.64603 5.149,15.41365 5.4831,16.9938 5.0744,24 -0.3247,5.56707 -1.2184,9.20467 -3.4674,14.11434 l -3.0299,6.61435 14.5148,21.10875 c 7.9831,11.60981 14.7897,20.96496 15.1257,20.78922 0.3361,-0.17574 7.4735,-4.25777 15.861,-9.07118 z m -130.325,-11.30548 c 0.9847,-3.1625 3.8225,-9.70692 6.3062,-14.54314 2.4837,-4.83623 4.3478,-8.92575 4.1423,-9.08781 -0.2054,-0.16206 -23.3235,-16.83285 -51.37349,-37.0462 -32.10568,-23.13595 -51,-37.36677 -51,-38.41219 0,-1.17039 8.1725,-5.7938 27.68231,-15.66066 15.22527,-7.7 27.95648,-14.28121 28.29158,-14.62491 0.4957,-0.50848 -5.15168,-7.09235 -22.46488,-26.18995 -0.4063,-0.44817 -11.83925,4.72683 -25.40656,11.5 -17.70912,8.84088 -24.88232,11.96954 -25.42816,11.09076 -0.41817,-0.67326 -3.20303,-21.59826 -6.18857,-46.5 l -5.42825,-45.2759 -8.05512,-9 c -24.28947,-27.13868 -27.84342,-31.02818 -28.6274,-31.33036 -0.4714,-0.18169 -0.63533,0.94331 -0.36428,2.5 1.19456,6.86067 17.61363,144.53939 17.27735,144.87567 -0.20612,0.20612 -15.88024,7.78556 -34.83139,16.8432 l -34.45663,16.46843 -0.27915,11.8682 -0.27914,11.8682 6.27914,5.45794 c 3.45353,3.00186 6.99804,6.01651 7.87667,6.69923 1.34358,1.04397 7.25408,-1.69881 37.18235,-17.25461 19.57166,-10.17274 35.95277,-18.48254 36.40248,-18.46622 0.44971,0.0163 27.36765,20.22343 59.81765,44.90466 32.44999,24.68124 59.48029,44.91788 60.06739,44.97032 0.587,0.0524 1.873,-2.49216 2.8576,-5.65466 z m 18.3056,-33.69387 5.1359,-6.44387 -4.2659,-8.30613 c -5.4896,-10.6889 -6.4495,-12.17453 -16.5324,-25.58863 -5.5148,-7.33673 -9.0836,-11.2175 -10.3157,-11.2175 -1.0362,0 -2.7591,-0.46835 -3.8287,-1.04077 -2.2839,-1.22229 -8.8651,-14.05056 -14.9851,-29.20923 -2.3871,-5.9125 -4.7503,-10.75 -5.2517,-10.75 -2.0929,0 -54.71164,27.37362 -53.98315,28.0834 1.42487,1.38827 97.77975,70.82813 98.34355,70.87302 0.301,0.024 2.8585,-2.85616 5.6832,-6.40029 z m -27.265,-58.30613 c -1.9148,-4.47719 -1.491,-6.98858 2.535,-15.02189 5.3706,-10.71648 13.1995,-19.2167 21.4315,-23.26931 7.8616,-3.87024 21.6101,-6.38061 30.8188,-5.62728 l 6.7509,0.55227 -0.6461,-14.21944 c -0.5855,-12.88673 -0.4586,-14.64337 1.3548,-18.7427 3.5102,-7.93546 7.2828,-11.18137 19.6337,-16.89261 l 11.4015,-5.27224 0.5181,-6.1284 c 0.8678,-10.26653 7.3672,-24.21585 9.6461,-20.70323 0.6452,0.99446 0.1805,2.4008 -1.5376,4.65337 -3.0544,4.00448 -4.6509,12.78303 -3.0175,16.59154 l 1.1452,2.67007 15,-6.8721 c 16.6698,-7.63711 21.5889,-8.49846 29,-5.07801 6.3833,2.94609 8.9071,6.37827 9.5111,12.93426 l 0.5229,5.6757 1.6326,-3 c 2.6799,-4.92409 9.9832,-11.58702 15.543,-14.17996 3.1584,-1.47303 7.97,-2.66105 12.2208,-3.01743 3.8563,-0.32329 6.766,-0.98484 6.4661,-1.4701 -0.7717,-1.2487 -12.9814,-7.29106 -21.8585,-10.81743 -9.3885,-3.72952 -30.8893,-9.20565 -53.0195,-13.5038 -12.686,-2.4639 -17.2391,-3.73843 -18,-5.03869 -1.8075,-3.08888 -5.6708,-7.47259 -6.5855,-7.47259 -0.489,0 -4.2895,1.59199 -8.4455,3.53775 -4.1559,1.94577 -7.9908,3.26921 -8.5219,2.94099 -1.7996,-1.11224 -0.9775,-2.57863 2.0344,-3.62858 1.65,-0.5752 3,-1.43863 3,-1.91875 0,-0.48012 -1.4418,-2.91848 -3.2041,-5.41858 -2.4148,-3.42603 -4.1916,-4.81156 -7.2135,-5.62529 -6.3359,-1.70607 -22.3906,-1.52776 -27.3324,0.30356 -4.0032,1.4835 -4.25,1.47107 -4.25,-0.21406 0,-2.71052 7.8964,-4.97998 19.75,-5.67628 11.214,-0.65873 12.0036,-1.24649 7.4874,-5.57331 -3.8167,-3.65667 -11.4835,-5.122 -23.2194,-4.43789 -11.6182,0.67723 -20.5165,3.3181 -32.776,9.72738 -15.4802,8.09306 -23.2043,13.79883 -35.7625,26.41746 -15.76074,15.83673 -18.25946,21.10834 -12.97949,27.38323 1.82061,2.16367 2.50416,4.15476 2.51531,7.32673 0.0202,5.73082 1.58632,8.42224 2.50425,4.30349 3.28599,-14.74414 7.93753,-22.45358 22.65043,-37.54053 8.7301,-8.95207 11.6257,-11.23657 18.6958,-14.75 8.043,-3.9969 13.6958,-5.342 12.9416,-3.07951 -0.1976,0.5928 -2.6569,1.85565 -5.4652,2.80634 -12.8813,4.36077 -22.1762,12.61265 -32.0012,28.41017 -15.12097,24.31306 -16.09791,28.79563 -9.6106,44.09686 3.6245,8.54899 3.7816,8.74947 4.0824,5.20937 0.2153,-2.5342 -0.486,-5.11104 -2.25,-8.26713 -2.89091,-5.17239 -3.12447,-6.33342 -1.2741,-6.33342 1.7736,0 7.3685,9.70198 8.1231,14.086 0.3395,1.9723 -0.064,7.1473 -0.8971,11.5 -2.8364,14.82302 -2.1313,18.1361 10.1574,47.72713 8.7541,21.07955 9.0473,21.68687 10.4701,21.68687 0.6392,0 0.7697,-0.70632 0.3234,-1.75 z m 37.0344,-88.23667 c -1.65,-0.43007 -5.682,-1.50901 -8.9601,-2.39764 -7.5018,-2.03362 -17.5041,-2.07532 -22.2491,-0.0927 -4.2928,1.79368 -6.7617,0.51943 -4.1173,-2.12503 3.7676,-3.76763 26.4384,-3.38581 37.1605,0.62586 8.5979,3.21689 7.1645,6.33501 -1.834,3.98955 z m -23.5,-20.96752 c 0,-2.3462 0.9776,-3.70415 4.75,-6.59816 13.5059,-10.36105 48.3973,-22.44765 64.8015,-22.44765 8.3657,0 5.2561,1.68965 -5.2135,2.83282 -20.3938,2.2268 -46.8517,13.1253 -57.338,23.61854 -3.025,3.02702 -5.8375,5.51378 -6.25,5.52615 -0.4125,0.0124 -0.75,-1.3069 -0.75,-2.9317 z m -2,-14.04581 c 0,-2.33186 5.7471,-8.35386 12.2277,-12.81264 10.3912,-7.14933 37.1953,-19.87971 39.9346,-18.9666 0.4968,0.16559 -3.724,2.73884 -9.3795,5.71834 -16.2396,8.55548 -27.4372,15.80604 -34.2433,22.17288 -6.6949,6.26268 -8.5395,7.10254 -8.5395,3.88802 z m 108,98.73888 30.5,-18.36025 -0.3541,-30.43931 c -0.3428,-29.47003 -0.4225,-30.51507 -2.5,-32.8182 -2.7456,-3.04373 -7.6332,-5.12112 -12.0488,-5.12112 -4.4224,0 -59.9246,24.98149 -63.8432,28.73579 -1.5174,1.45379 -3.7245,4.63786 -4.9047,7.07571 -2.0092,4.15049 -2.103,5.37958 -1.4738,19.32138 l 0.6718,14.88893 3.9913,5.2391 c 4.3023,5.64749 12.9602,21.89421 14.9125,27.98372 0.9874,3.0796 1.4979,3.57679 2.8748,2.79956 0.9208,-0.51978 15.3992,-9.20718 32.1742,-19.30531 z m -40,-28.771 c 0,-12.42288 1.1621,-16.44482 6.3007,-21.80551 1.7596,-1.83569 4.9827,-4.25625 7.1623,-5.379 8.5555,-4.40694 33.9819,-14.84434 35.4659,-14.55854 4.2999,0.82808 0.1086,3.53366 -16.5961,10.71307 -9.992,4.2944 -19.5158,8.76831 -21.1642,9.94203 -5.0794,3.61691 -7.1686,9.40295 -7.1686,19.85401 0,9.94621 -0.493,12.26606 -2.607,12.26606 -1.1065,0 -1.393,-2.26904 -1.393,-11.03212 z m -106,5.25589 c 0,-8.0188 -2.4735,-20.53393 -5.951,-30.10959 -2.12003,-5.8378 -4.18633,-11.73918 -4.59176,-13.11418 -0.40544,-1.375 -1.57418,-4.06834 -2.5972,-5.98519 -1.02301,-1.91686 -1.86003,-4.48352 -1.86003,-5.7037 0,-1.22018 -3.20696,-8.64285 -7.12658,-16.49483 -6.06095,-12.14162 -8.11696,-15.25822 -13.75,-20.8429 -3.77654,-3.74412 -10.27689,-8.68031 -15.12342,-11.48429 -4.675,-2.70475 -12.29813,-7.38046 -16.94029,-10.39046 -7.50844,-4.86851 -20.50235,-9.98932 -21.87205,-8.61962 -0.60699,0.60699 21.29456,25.31449 44.44452,50.13857 5.7023,6.11467 10.36782,11.40217 10.36782,11.75 0,3.42107 -14.72774,-11.61646 -45.90204,-46.86758 -7.78228,-8.8 -14.70048,-16.32014 -15.37378,-16.71142 -0.6733,-0.39128 -4.59918,-2.13292 -8.72418,-3.87032 -11.89453,-5.00981 -19.72318,-10.85866 -32.29881,-24.13072 -19.09973,-20.15746 -19.85968,-21.42676 -26.15383,-43.68329 -1.92804,-6.81766 -3.70348,-12.5937 -3.94542,-12.83565 -1.97235,-1.97235 -4.3049,12.55804 -3.19938,19.93021 0.62444,4.16405 5.44148,9.72644 81.38058,93.97281 44.39427,49.25073 82.29186,91.37205 84.21686,93.60293 4.19739,4.86432 4.99999,5.09696 4.99999,1.44922 z m -48.58172,-8.71848 c 20.04214,-9.69179 21.60229,-10.63377 20.39214,-12.3123 -2.00965,-2.78747 -52.15185,-58.18488 -52.42132,-57.91541 -0.25196,0.25196 8.21989,71.97359 9.15114,77.47242 0.30272,1.7875 0.69104,3.25 0.86294,3.25 0.1719,0 10.0787,-4.72262 22.0151,-10.49471 z m 45.31832,-90.65612 7.4172,-7.65083 -6.5769,-1.50019 c -5.84442,-1.33313 -7.30851,-1.33332 -13.14613,-0.002 -6.39692,1.45914 -9.37159,1.12532 -6.4018,-0.71841 4.41256,-2.73945 17.93153,-3.74519 25.83803,-1.92221 4.2305,0.97539 4.5432,0.87418 10,-3.23637 3.0982,-2.33379 5.7932,-4.34555 5.9889,-4.47058 0.1958,-0.12502 -0.4057,-2.22149 -1.3365,-4.65881 -0.9308,-2.43732 -1.5076,-5.50216 -1.2818,-6.81075 0.4416,-2.55923 1.1237,-1.56234 2.1355,3.12073 0.297,1.375 1.1635,3.35241 1.9255,4.39424 1.3283,1.81602 1.8669,1.65928 13.0435,-3.79589 6.4118,-3.12932 11.6579,-6.20923 11.6579,-6.84399 0,-0.82924 0.3052,-0.84889 1.0843,-0.0698 1.2512,1.2512 5.1674,0.53201 4.3454,-0.79802 -0.3012,-0.48745 2.8538,-0.88629 7.0113,-0.88629 l 7.559,0 0,-4.61513 c 0,-3.99712 -0.4687,-5.04442 -3.5,-7.821 -3.741,-3.42662 -4.286,-4.56387 -2.1871,-4.56387 2.892,0 6.9052,5.7532 7.4459,10.67399 0.5202,4.73457 1.4977,6.28015 3.9912,6.3107 0.812,0.01 1.25,-1.5187 1.25,-4.36225 0,-2.6712 0.5847,-4.8628 1.5,-5.62244 1.7728,-1.47128 1.7765,-1.45102 0.5332,2.88433 -1.4176,4.94268 0,6.83756 5.4473,7.27063 2.4857,0.1977 4.5195,0.31023 4.5195,0.25007 0,-0.0602 -4.0171,-6.53963 -8.927,-14.39882 -9.9576,-15.93922 -11.4957,-20.46591 -12.5653,-36.98171 -0.6682,-10.31851 -2.1967,-14.78969 -8.2571,-24.15303 -3.5458,-5.47841 -3.7444,-5.61492 -7.4468,-5.11833 -4.1313,0.55412 -5.3362,-1.10121 -1.5538,-2.13459 1.9042,-0.52025 0.9857,-1.30653 -5.9774,-5.11663 -6.3224,-3.45946 -9.2747,-4.50192 -12.75,-4.50192 -2.4874,0 -4.5226,-0.45 -4.5226,-1 0,-1.48977 9.1584,-1.20822 13.7839,0.42374 2.2194,0.78306 4.301,1.15806 4.6257,0.83334 1.5076,-1.50759 0.2888,-6.23007 -2.7797,-10.77043 -4.293,-6.35245 -7.0492,-9.0661 -14.2236,-14.00438 l -5.7855,-3.98227 -10.0604,0.0103 c -11.89246,0.0121 -18.68295,1.54741 -25.24191,5.70699 -4.78216,3.03275 -4.79455,3.05469 -2.56194,4.53708 1.2339,0.81928 2.24346,2.18816 2.24346,3.04195 0,1.25586 -0.42973,1.16093 -2.25,-0.49701 -3.83553,-3.49349 -9.162,-5.30614 -21.58775,-7.34651 -5.78112,-0.94928 -16.01895,0.44501 -30.64456,4.17351 -12.10504,3.08593 -17.51938,6.12755 -27.45712,15.42459 -5.14594,4.81417 -9.89812,8.44913 -11.04599,8.44913 -2.52717,0 -2.56633,-1.19069 -0.11221,-3.41165 1.85735,-1.68088 1.7899,-1.96208 -2.84987,-11.88099 l -4.75224,-10.15936 1.34844,-5.024 c 2.01026,-7.48982 3.30817,-16.30873 4.78785,-32.53215 1.74176,-19.09681 0.69901,-26.06197 -5.73647,-38.31715 l -3.059,-5.82529 1.74646,-9.17471 c 0.96055,-5.04608 2.92051,-13.2247 4.35548,-18.1747 4.43714,-15.30624 3.30466,-30.389001 -4.22793,-56.309291 -1.95958,-6.74306 -3.83738,-14.26294 -4.1729,-16.71085 -0.54915,-4.00644 -0.83535,-4.39419 -2.86702,-3.88427 -3.63546,0.91244 -3.76991,-1.25031 -0.21434,-3.44777 5.91289,-3.65437 7.79334,-6.51306 9.39755,-14.286323 2.00892,-9.734282 6.45511,-21.0774029 10.90918,-27.8314999 l 3.60726,-5.4700101 -2.19819,-1.77999 c -1.56516,-1.267386 -3.96618,-1.786315 -8.33741,-1.801952 -5.88291,-0.02107 -9.07415,-1.073883 -16.63922,-5.489404 -3.61759,-2.111485 -7.72108,-1.878344 -9,0.511336 -1.24453,2.325426 -3,2.651185 -3,0.556704 0,-2.375728 4.16425,-4.556704 8.70035,-4.556704 2.59501,0 6.39905,1.051372 9.74955,2.694612 3.02182,1.482037 5.8022,2.386625 6.17863,2.010195 1.08138,-1.081386 -2.74533,-8.651524 -5.44803,-10.777463 -3.69813,-2.908952 -8.69077,-2.372516 -17.1805,1.845966 -6.19287,3.077189 -7.81506,4.398716 -9.30775,7.582621 -2.33707,4.984973 -4.40581,26.4394701 -5.6501,58.596112 -1.01771,26.30124 -1.54733,29.58208 -8.57996,53.15105 -3.70262,12.408871 -4.2477,19.781491 -2.54306,34.396901 0.67813,5.81418 0.48317,7.9847 -1.15087,12.81275 -2.11122,6.23799 -1.85736,10.68048 0.91688,16.04527 1.93237,3.73679 1.35111,13.7956 -1.71289,29.64198 -3.83772,19.84791 -2.65888,47.90362 2.44249,58.12954 0.87379,1.75156 1.58991,5.68939 1.59561,8.7741 0.006,3.078 0.90633,10.77136 2.00141,17.09636 1.60224,9.2543 2.93636,13.45444 6.83186,21.50848 5.63563,11.65182 11.15761,18.66285 27.16594,34.49152 13.98001,13.82312 18.5726,16.3694 40.84897,22.64795 8.48501,2.39148 16.60047,4.95332 18.03438,5.69296 11.26833,5.81254 36.67752,23.983 41.42189,29.62136 1.34201,1.59489 3.43385,4.9528 4.64855,7.46202 l 2.20854,4.56223 4.57374,-6.24326 c 2.51555,-3.43379 7.91148,-9.68613 11.99096,-13.89409 z m -72.61266,-33.88578 c -1.01567,-1.67013 -2.13567,-5.80158 -2.48889,-9.181 -0.35321,-3.37941 -1.36009,-7.24001 -2.2375,-8.57911 -1.45457,-2.21996 -2.03633,-2.3762 -6.59561,-1.77139 -3.82368,0.50723 -4.90057,0.36402 -4.57637,-0.60858 0.23319,-0.69955 1.74033,-1.54569 3.34921,-1.88031 5.40657,-1.1245 9.05124,-3.76191 11.45172,-8.28686 3.08598,-5.81713 2.01534,-7.19322 -6.17435,-7.93583 -4.32323,-0.39202 -6.73839,-1.16212 -8.18668,-2.61041 -2.99779,-2.99779 -1.16815,-3.85767 2.47582,-1.16357 l 3.11669,2.30427 10.42645,-1.71102 c 11.34929,-1.86246 13.31558,-1.65143 13.31558,1.42904 0,2.43717 -0.86584,2.59711 -2.43588,0.44996 -0.91904,-1.25686 -1.86522,-1.39264 -4.61024,-0.66157 -3.17122,0.84457 -3.43061,1.19905 -3.16952,4.33142 0.40256,4.82963 3.10073,7.09803 9.13219,7.67757 2.7959,0.26865 5.08345,0.94531 5.08345,1.50369 0,1.27771 -11.24712,0.20361 -14.1531,-1.35163 -1.74856,-0.9358 -2.5688,-0.6107 -5.41195,2.14499 l -3.35104,3.24796 2.45804,2.92122 c 1.91148,2.27165 2.46109,4.07156 2.4717,8.0945 0.0191,7.23436 0.84802,9.60045 3.60584,10.29262 1.4578,0.36588 2.38051,1.33067 2.38051,2.48906 0,3.04648 -3.77433,2.31101 -5.87607,-1.14502 z m 75.17416,2.35531 c -1.2111,-0.24487 -3.57981,-2.01447 -5.26382,-3.93245 -1.68401,-1.91798 -3.50564,-3.21296 -4.04806,-2.87773 -0.54241,0.33523 -0.98621,0.13296 -0.98621,-0.4495 0,-2.09207 4.30216,-1.0009 7.65278,1.94098 4.01601,3.52606 6.04521,3.70489 11.34721,1 4.424,-2.25693 6.5669,-2.50981 7.5662,-0.89287 0.4547,0.73569 0.01,0.89296 -1.3271,0.46875 -1.353,-0.42941 -2.9708,0.16894 -4.9424,1.82793 -3.1536,2.65359 -6.486,3.62509 -9.9986,2.91489 z m -54.43731,-7.36672 -2.36078,-2.04803 3.5,0.79803 c 1.925,0.43891 5.8625,0.72653 8.75,0.63915 2.8875,-0.0874 5.25,0.20198 5.25,0.64301 0,2.79653 -11.9077,2.77124 -15.13922,-0.0322 z m 100.39201,0.79802 c -0.5457,-0.6875 -1.5382,-2.94513 -2.2056,-5.01696 -0.6674,-2.07183 -2.7569,-5.40348 -4.6433,-7.40367 -3.6942,-3.91692 -3.8585,-5.17822 -0.436,-3.34657 2.5233,1.35045 6.023,6.75684 6.0284,9.31265 0,0.9875 1.1287,2.92046 2.5037,4.29546 1.375,1.375 2.5,2.70454 2.5,2.95454 0,0.98102 -2.8108,0.38434 -3.7472,-0.79545 z m -76.32971,-2.67308 c -2.85181,-2.85181 -3.89109,-6.07692 -1.95826,-6.07692 0.53065,0 1.41345,0.83828 1.96178,1.86285 1.59189,2.97447 6.51172,4.47493 12.60931,3.8456 3.18911,-0.32915 5.46409,-0.16737 5.46409,0.38855 0,1.54237 -4.75355,2.903 -10.14202,2.903 -4.20605,0 -5.48178,-0.46996 -7.9349,-2.92308 z m 44.07691,-1.30403 c 0,-2.66163 4.9475,-7.77289 7.5238,-7.77289 4.2291,0 7.6261,-1.93695 8.786,-5.00966 0.6208,-1.64469 1.48,-2.99034 1.9094,-2.99034 1.6047,0 0.7049,5.82676 -1.2918,8.36514 -1.6413,2.08657 -2.9319,2.63486 -6.2024,2.63486 -3.2905,0 -4.7999,0.64955 -7.4274,3.19617 -2.3902,2.31669 -3.2976,2.75055 -3.2976,1.57672 z m -125.04271,-7.32436 c -0.8468,-1.02033 -1.44553,-6.06995 -1.74891,-14.75 -0.52216,-14.93985 -1.78209,-18.74613 -7.69914,-23.25929 -1.93008,-1.47214 -3.50923,-3.07321 -3.50923,-3.55793 0,-3.76289 10.62708,6.00648 11.95579,10.99084 0.5319,1.99532 1.26797,8.57785 1.63572,14.62785 0.36775,6.05 1.26214,12.4625 1.98754,14.25 1.09414,2.69616 1.09284,3.25 -0.008,3.25 -0.72959,0 -1.90595,-0.69816 -2.61414,-1.55147 z m 68.04272,-0.23823 c 0,-0.57827 1.30334,-1.33765 2.89631,-1.68753 6.21179,-1.36433 8.5438,-7.70209 7.21693,-19.61364 -0.97172,-8.72327 -0.18695,-16.0559 1.78855,-16.71166 1.11529,-0.37023 1.24002,0.22626 0.61029,2.9186 -1.0987,4.69736 -1.00207,6.20533 1.01941,15.90886 1.70681,8.19303 1.70575,8.67286 -0.0273,12.32489 -0.99176,2.08998 -2.81334,4.46183 -4.04795,5.27078 -2.897,1.89822 -9.45624,3.00089 -9.45624,1.5897 z m 26.99804,-5.01275 c 4.7357,-3.21816 7.00196,-6.38891 7.00196,-9.79652 0,-7.39913 5.38931,-12.40103 13.36149,-12.40103 2.6058,0 6.028,-0.66717 7.6049,-1.48261 5.8039,-3.00131 6.4974,-13.72184 1.5227,-23.53887 -1.4429,-2.84756 -2.4125,-5.38848 -2.1545,-5.64649 0.258,-0.258 2.0661,1.62234 4.0179,4.17853 3.8734,5.07294 4.979,9.64342 4.4659,18.46314 -0.3037,5.22135 -0.5028,5.57788 -4.3184,7.73355 -2.4869,1.40502 -5.7022,2.26666 -8.5,2.27785 -2.475,0.01 -6.075,0.80481 -8,1.76645 -2.84299,1.42024 -3.71126,2.60422 -4.62547,6.30732 -2.17064,8.79235 -6.24386,14.00776 -10.84703,13.88868 -1.86324,-0.0482 -1.82513,-0.18997 0.47055,-1.75 z m 73.69545,-1.63092 c -1.3157,-0.99757 -3.897,-1.23537 -9.5,-0.87516 -5.9042,0.37957 -8.1583,0.14312 -9.6919,-1.01668 -2.6631,-2.01393 -1.3161,-3.15438 2.2553,-1.90939 1.7505,0.61023 4.9213,0.67062 8.1783,0.15576 5.8144,-0.91913 11.0648,0.79127 11.0648,3.60452 0,1.77082 -0.024,1.77125 -2.3065,0.0409 z m -25.5426,-2.88483 c -0.6017,-0.72502 -1.6015,-3.76252 -2.2217,-6.75 -0.6203,-2.98749 -2.227,-7.3443 -3.5706,-9.6818 -2.8136,-4.89497 -1.9465,-5.51683 1.9792,-1.41932 1.9142,1.998 2.9894,4.53574 3.6553,8.62708 0.5189,3.18802 1.6431,6.86422 2.4982,8.16932 1.2849,1.96103 1.3117,2.37292 0.1542,2.37292 -0.7703,0 -1.8929,-0.59319 -2.4946,-1.3182 z m 22.8429,-8.87278 c 0,-2.91996 -0.6783,-6.59796 -1.5,-8.17333 -1.832,-3.5127 -1.8351,-3.63569 -0.092,-3.63569 0.7712,0 1.8962,1.41715 2.5,3.14922 1.3722,3.93626 1.4352,12.52429 0.098,13.35078 -0.6184,0.38222 -1.0023,-1.40767 -1.0061,-4.69098 z m -110.42279,-1.14711 c -3.3677,-3.3677 -3.32032,-5.39649 0.0639,-2.73449 2.90951,2.28862 7.40771,2.65091 12.19467,0.98216 1.72038,-0.59973 3.70003,-0.87496 4.39922,-0.61162 1.68624,0.6351 -4.98057,3.47881 -10.0599,4.29103 -3.46335,0.55381 -4.38663,0.28414 -6.59785,-1.92708 z M 439.01392,292.6671 c -0.81588,-2.12614 0.41833,-3.09588 2.37187,-1.86362 1.19437,0.75339 3.94797,0.23349 10.46207,-1.97533 6.83495,-2.31762 9.11106,-2.72784 10.03101,-1.80789 0.91996,0.91996 0.49801,1.18997 -1.85955,1.18997 -1.7337,0 -4.94826,1.2866 -7.45,2.9818 -5.03738,3.41338 -12.49999,4.22544 -13.5554,1.47507 z m 111.81711,-1.18957 c -2.0704,-1.44164 -3.2016,-1.48264 -9.8917,-0.35852 l -7.554,1.26929 -3.0569,-3.05698 c -1.6814,-1.68134 -2.764,-3.34998 -2.4059,-3.70809 0.3581,-0.3581 1.3989,0.0968 2.313,1.01084 1.4067,1.40668 2.9594,1.55667 10.1092,0.97653 7.6628,-0.62175 8.7151,-0.4874 11.3311,1.44668 1.5861,1.17265 3.5834,1.86364 4.4384,1.53553 0.855,-0.32811 1.5546,-0.14656 1.5546,0.40344 0,0.94198 -2.3659,2.27659 -3.8318,2.16153 -0.3675,-0.0288 -1.7202,-0.78496 -3.006,-1.68025 z m -142.16219,-7.93428 c -5.06624,-2.5577 -15,-12.72548 -15,-15.35336 0,-1.88891 0.7538,-1.49141 5.6395,2.97384 8.23388,7.5253 13.78005,10.04774 22.07726,10.04092 3.73078,-0.003 8.44976,-0.46842 10.48662,-1.03413 4.93824,-1.37151 13.21831,-8.04171 17.13017,-13.79958 6.1392,-9.0363 9.60144,-11.59384 20.29949,-14.99513 5.42683,-1.72537 11.77946,-3.61081 14.11696,-4.18986 3.78199,-0.93687 4.25,-1.37243 4.25,-3.95525 0,-1.59634 0.45,-3.18055 1,-3.52047 1.49104,-0.92151 1.23546,6.79573 -0.29435,8.88787 -0.77707,1.06271 -4.07414,2.35019 -8.25,3.22156 -10.21473,2.13151 -18.66009,6.42704 -23.68134,12.04496 -15.1229,16.91992 -20.68178,20.24761 -35.04149,20.97678 -7.50046,0.38087 -9.88953,0.13729 -12.73282,-1.29815 z m 66,-1.35093 c 0,-4.22163 3.26646,-7.28568 15.29966,-14.35159 11.61054,-6.81773 12.9855,-8.815 9.71328,-14.10956 -2.70674,-4.3796 -2.08742,-5.70237 0.89478,-1.91112 3.13927,3.99093 3.53637,6.93888 1.613,11.97508 -1.99303,5.2187 -4.28076,6.92344 -10.52072,7.83975 -2.475,0.36344 -6.40498,1.57808 -8.7333,2.6992 -3.43294,1.65301 -4.43066,2.77132 -5.27717,5.91505 -1.33545,4.95947 -2.98953,6.03462 -2.98953,1.94319 z m 77.99999,-4.0315 c 0,-2.49717 -1.0052,-4.0945 -4.75,-7.54835 -4.6756,-4.31229 -4.5204,-5.93595 0.2676,-2.79877 4.7297,3.09902 8.1847,11.22641 5.4824,12.89653 -0.5863,0.36234 -1,-0.69242 -1,-2.54941 z m -14.7028,-15.90874 c -1.8777,-1.52241 -2.8711,-1.63306 -6.7313,-0.74972 -6.591,1.50822 -14.4773,-0.57374 -18.7082,-4.93892 -3.9316,-4.0564 -2.7541,-4.33378 2.6602,-0.62662 3.6683,2.5117 4.6568,2.70747 12.5429,2.48412 8.0044,-0.2267 8.7141,-0.0792 10.9206,2.26947 2.8432,3.02645 2.3922,4.05593 -0.6842,1.56167 z M 386.28342,246.81073 c -0.45538,-1.81438 -13.1144,-22.18537 -15.23555,-24.51717 -1.19649,-1.3153 -1.61278,1.45905 -0.61541,4.10138 1.42973,3.78779 0.76407,5.16807 -1.82431,3.78281 -2.7552,-1.47454 -2.55271,-8.59662 0.60452,-21.26246 3.00637,-12.06062 5.44202,-27.2719 5.45027,-34.03839 0.004,-3.41778 0.37199,-4.71269 1.2559,-4.4214 2.23663,0.73708 1.91448,9.98189 -0.77672,22.28955 -4.41511,20.19162 -4.46972,19.06228 1.47763,30.55952 2.8671,5.5426 6.7499,12.6263 8.62843,15.74156 1.87854,3.11525 3.41668,6.42504 3.41809,7.35508 0.004,2.71738 -1.72886,3.01521 -2.38285,0.40952 z m 133.38541,-1.6295 c -1.375,-0.38675 -6.1692,-0.47466 -10.6537,-0.19535 -7.76829,0.48382 -8.27645,0.38509 -10.75001,-2.08846 -3.50223,-3.50223 -3.29858,-5.32346 0.30809,-2.75528 2.41343,1.71851 4.40955,2.06809 11.80882,2.06809 6.1086,0 9.5135,0.44531 10.8441,1.41824 2.425,1.77321 1.7212,2.47492 -1.5573,1.55276 z M 342.33551,215.54356 c -1.2999,-1.29989 -0.64142,-3.33351 1.08333,-3.34571 0.9625,-0.007 2.79579,-1.62628 4.07398,-3.59884 2.31836,-3.57778 2.3203,-3.60973 0.80203,-13.20631 -0.83707,-5.29093 -1.32036,-9.82145 -1.07398,-10.06783 1.39731,-1.39731 2.88929,4.66493 4.0928,16.62994 0.56798,5.6467 0.37434,6.62807 -2.02254,10.25 -2.43174,3.67461 -5.26148,5.0329 -6.95562,3.33875 z m 14.33333,-52.30427 c 0,-0.61053 0.96351,-2.41327 2.14114,-4.00609 2.988,-4.04149 2.05863,-8.35915 -3.56814,-16.57682 -4.56718,-6.67019 -5.34525,-8.44615 -3.70036,-8.44615 1.53883,0 9.23072,9.00314 10.70362,12.52827 1.75436,4.19877 1.81852,11.13012 0.13397,14.47173 -1.2689,2.51708 -5.71023,4.09525 -5.71023,2.02906 z m 19.44143,-41.47811 c -0.88258,-1.34698 -2.2763,-5.02094 -3.09716,-8.16435 -1.33246,-5.10256 -1.32371,-6.86969 0.0816,-16.482841 0.86576,-5.92215 1.5741,-11.24819 1.5741,-11.83565 0,-1.58419 1.69929,-1.29412 2.34981,0.4011 0.31009,0.80807 -0.0839,5.42057 -0.87555,10.25 -2.22416,13.568591 -1.99751,16.030501 2.02574,22.004691 1.925,2.85846 3.5,5.43995 3.5,5.73665 0,1.61945 -4.18923,0.18028 -5.55857,-1.9096 z m 1.55857,-104.590784 c 0,-1.12191 0.85212,-3.709409 1.89359,-5.749998 2.17975,-4.2708439 6.10641,-8.2649189 6.10641,-6.2112499 0,1.400761 -6.7937,14.0010879 -7.54894,14.0010879 -0.24808,0 -0.45106,-0.91793 -0.45106,-2.03984 z m -16.97989,-4.21016 c 0.036,-5.8155579 1.84013,-16.0117009 3.03362,-17.1444679 0.8844,-0.839401 1.00285,1.061006 0.49206,7.894468 -0.37,4.95 -0.8995,9.7874999 -1.17665,10.7499999 -0.84348,2.92924 -2.3704,1.95421 -2.34903,-1.5 z M 423.1019,227.69918 c 4.85404,-2.37486 13.41117,-4.51709 23.74043,-5.94327 l 4.67349,-0.64528 -2.42349,-7.12535 c -1.33292,-3.91895 -2.426,-8.05904 -2.42907,-9.2002 -0.026,-9.67211 -8.7097,-19.35605 -22.05962,-24.60055 -6.92986,-2.72238 -9.86217,-3.32794 -16.4348,-3.39395 l -8,-0.0804 -0.71582,9.30942 c -0.39371,5.12018 -1.8444,16.98432 -3.22377,26.36477 -2.78625,18.94801 -2.86938,18.36556 3.62735,25.41368 l 3.96296,4.2993 7.08407,-5.94803 c 3.89623,-3.27143 9.38546,-7.07401 12.19827,-8.45019 z m -25.43306,-3.0905 c 0,-1.0726 2.00354,-5.16965 4.4523,-9.10456 2.44877,-3.93491 6.08091,-10.38838 8.07144,-14.34103 4.18858,-8.31741 7.43953,-11.9544 10.68081,-11.94912 2.08384,0.003 1.99957,0.18415 -0.91421,1.96077 -3.42724,2.08969 -6.38028,7.07725 -9.41804,15.90666 -2.12785,6.18469 -6.61267,13.59684 -10.35314,17.11083 -2.35534,2.21273 -2.51916,2.23981 -2.51916,0.41645 z m 142.82269,-10.14845 c -2.0881,-8.1125 -3.8024,-15.56406 -3.8096,-16.55902 -0.028,-3.92202 1.8871,-0.24958 4.9763,9.54056 1.782,5.64765 3.5818,10.63932 3.9995,11.0926 0.4176,0.45327 0.9729,-3.14673 1.2339,-8 0.4044,-7.51935 1.0449,-10.081 4.3317,-17.32414 5.5961,-12.33182 5.7904,-19.42304 0.9731,-35.5 -4.8257,-16.10482 -5.2803,-21.76468 -2.6369,-32.82896 1.1601,-4.85592 2.1093,-11.01605 2.1093,-13.68918 0,-4.23332 -0.5159,-5.45635 -4,-9.48186 -2.9426,-3.399911 -4,-5.502941 -4,-7.955481 0,-7.09674 -7.6915,-27.35983 -14.1466,-37.26867 l -4.0546,-6.22415 -3.1494,2.36229 c -1.7322,1.29926 -5.6244,3.6314 -8.6494,5.18252 -4.647,2.38283 -6.7407,2.82668 -13.49999,2.86186 -4.4,0.0229 -9.2375,-0.30444 -10.75,-0.72742 l -2.75,-0.76905 0,7.52563 c 0,12.98558 4.1027,35.864351 7.7052,42.968131 0.84912,1.67439 2.99821,4.84434 4.77574,7.04434 4.78045,5.91655 7.51905,11.90638 7.51905,16.44528 0,2.21373 -1.4399,8.19415 -3.19981,13.28984 -3.11344,9.01475 -3.20118,9.73734 -3.25,26.76488 -0.0276,9.625 0.27922,18.30318 0.68181,19.28485 0.68629,1.67342 0.8892,1.68185 3.25,0.13499 2.4615,-1.61282 2.518,-1.59317 2.518,0.87535 0,1.49197 -1.739,4.64382 -4.24999,7.70301 -5.35222,6.52064 -13.70882,18.25171 -13.73227,19.27748 -0.01,0.42662 1.29883,0.0949 2.90796,-0.73725 4.77045,-2.4669 20.76,-4.82583 28.4466,-4.19673 7.6016,0.62213 14.9159,4.26523 20.8448,10.38225 1.7464,1.80183 3.2263,3.27605 3.2887,3.27605 0.062,0 -1.595,-6.6375 -3.6831,-14.75 z m -9.4641,-35.64366 c 1.0638,-9.05142 -1.5481,-20.48168 -7.4929,-32.79146 -3.6446,-7.54658 -4.9189,-11.16172 -4.191,-11.88962 1.4827,-1.48264 5.9879,4.11567 9.4768,11.77613 4.1289,9.06589 7.3077,31.33256 5.2415,36.71682 -0.3338,0.86999 -1.2958,1.58179 -2.1377,1.58179 -1.2634,0 -1.42,-0.9418 -0.8967,-5.39366 z m -0.2961,-56.16886 c -3.713,-3.35448 -5.6748,-7.46172 -7.4928,-15.68748 -1.0054,-4.54888 1.1417,-3.09607 2.9558,2 0.9299,2.6125 2.1244,5.93353 2.6543,7.38006 0.5912,1.6137 2.868,3.66664 5.8918,5.31242 5.4168,2.94817 6.2753,4.55752 2.4313,4.55752 -1.4576,0 -4.1387,-1.48302 -6.4404,-3.56252 z m -15.3958,-9.10415 c -1.3207,-1.32063 -0.5789,-10.98414 1.4073,-18.333331 2.9483,-10.90938 3.6442,-23.74774 1.5685,-28.9354 -1.9144,-4.78468 -2.1706,-9.4073 -0.4903,-8.84719 1.7834,0.59444 3.7978,9.35459 4.4341,19.28259 0.5115,7.98143 0.2846,9.84034 -2.0047,16.42515 -1.798,5.17126 -2.5816,9.496831 -2.5816,14.250001 0,6.28778 -0.6055,7.88597 -2.3333,6.15818 z m 21.3333,-12.1422 c 0,-2.879671 0.63,-5.587601 1.5704,-6.750001 1.4753,-1.82357 1.5366,-1.69889 1.011,2.05887 -0.3077,2.2 -0.5643,5.237501 -0.5704,6.750001 -0.01,1.5125 -0.461,2.75 -1.011,2.75 -0.55,0 -1,-2.16399 -1,-4.80887 z M 483.6989,219.60287 c 1.24799,-4.45739 7.58496,-14.05634 11.64927,-17.64577 1.75796,-1.55256 1.88926,-2.41061 1.14765,-7.5 -1.35155,-9.27524 -1.30043,-32.16691 0.0865,-38.74687 0.69559,-3.3 2.36194,-9.86858 3.70299,-14.59686 1.34105,-4.72827 2.23854,-9.22827 1.99442,-10 -0.24413,-0.77172 -0.70838,-2.61416 -1.03167,-4.0943 -0.32329,-1.48013 -3.07091,-5.53013 -6.10582,-9 -4.23905,-4.84658 -5.95896,-7.8154 -7.42047,-12.80884 -2.70148,-9.229901 -4.14573,-19.437531 -4.97537,-35.164841 -0.7061,-13.38538 -0.78375,-13.73647 -3.7967,-17.16803 -3.23048,-3.67934 -7.28086,-13.14627 -7.28086,-17.01755 0,-2.02701 -5.50093,-8.64533 -6.29749,-7.57668 -0.1751,0.23491 -1.62473,3.56884 -3.22141,7.40875 -6.27809,15.09843 -18.75618,29.56817 -30.42515,35.28136 -4.03636,1.97622 -7.4925,2.81844 -12.6364,3.07934 -17.56422,0.89087 -27.47343,-10.32938 -30.77119,-34.84235 -0.25898,-1.925 -0.35128,0.1 -0.20511,4.5 0.19104,5.75119 1.26178,11.23267 3.80908,19.5 9.22071,29.92611 10.43119,44.267241 4.97997,59.000001 -1.72978,4.675 -3.58888,11.84239 -4.13133,15.92753 l -0.98627,7.42753 3.90578,8.07247 c 2.34537,4.84742 4.16869,10.31367 4.56386,13.6823 l 0.65807,5.60983 8.6288,0.57689 c 11.03506,0.73776 17.49591,2.88606 27.54824,9.16008 7.92928,4.94896 8.12201,5.16505 10.29515,11.54337 1.21802,3.575 2.24041,8.3 2.27196,10.5 0.06,4.18052 2.98265,11.7035 5.72341,14.73202 1.07296,1.1856 3.11363,1.78235 6.19502,1.81161 2.52725,0.024 7.29501,0.65289 10.59501,1.39753 9.85771,2.22439 10.06941,2.16841 11.53006,-3.04852 z M 429.08775,66.859359 c 19.21724,-8.86081 34.58109,-35.79672 34.58109,-60.6275839 0,-16.2606801 -5.37589,-27.3558611 -15.25448,-31.4834011 -23.12769,-9.663365 -54.74552,25.83720706 -54.74552,61.468385 0,26.41532 15.50138,39.82631 35.41891,30.6426 z m -23.26302,-5.9613 c -4.4822,-5.40071 -5.46602,-21.66446 -2.1478,-35.50571 4.52231,-18.8638989 17.21985,-38.598197 28.62755,-44.49247 4.18088,-2.16023 11.23314,-3.888778 12.54865,-3.075746 0.62598,0.386876 -1.29691,1.324492 -4.27307,2.08359 -2.97617,0.759099 -6.98622,2.421905 -8.91122,3.695126 -13.0967,8.6623351 -24.81373,30.016347 -27.98773,51.00697 -1.35479,8.95966 -0.74739,14.96275 2.21392,21.88084 2.05913,4.81045 2.02528,6.93243 -0.0703,4.4074 z m 106.3441,-7.67741 c 15.6158,-7.62064 28.3787,-23.83479 34.6424,-44.0104129 2.8766,-9.26556804 3.1042,-23.9326261 0.4799,-30.9313291 -3.8505,-10.269284 -10.9128,-15.446865 -21.1742,-15.523484 -5.0624,-0.0378 -7.3512,0.592317 -14,3.854266 -20.463,10.039419 -36.44809,36.4189981 -36.44809,60.14894 0,10.76883 2.1138,17.53487 7.20297,23.05597 7.30967,7.93006 17.57994,9.12407 29.29702,3.40605 z m -27.96125,-10.19192 c -3.11472,-10.48842 -1.03886,-24.374023 5.88381,-39.3572349 6.57606,-14.2330271 18.40904,-28.0486181 28.07744,-32.7816841 5.4599,-2.672836 13.9899,-4.313887 14.8861,-2.863854 0.3099,0.50142 -1.6401,1.172653 -4.3334,1.491629 -10.5959,1.254936 -21.6142,9.831637 -30.89573,24.0495911 -5.04746,7.731937 -10.21443,19.5935029 -12.10308,27.7844699 -1.48158,6.425543 -1.26562,17.006993 0.44612,21.858583 1.77285,5.0248 1.77018,5 0.53874,5 -0.52869,0 -1.65369,-2.33168 -2.5,-5.1815 z m -139.73508,-9.40795 5.19634,-2.58945 0,-8.441793 c 0,-6.99574 1.47379,-19.9092889 4.56828,-40.027853 0.26635,-1.731704 1.36097,-4.263085 2.43249,-5.625291 2.30787,-2.933982 16.84677,-10.726156 20.01322,-10.726156 2.00637,0 2.14633,-0.343363 1.52864,-3.75 -0.99847,-5.506641 -4.83053,-13.336371 -8.14401,-16.64 -13.8803,-13.839025 -39.46715,-1.993852 -52.68502,24.39 -6.54599,13.066285 -9.04759,23.5938101 -8.53169,35.9040091 0.60583,14.4559109 5.52582,24.1480439 14.31809,28.2059439 6.05521,2.79465 14.87291,2.50517 21.30366,-0.69941 z m -23.99691,-7.08691 c -9.35044,-21.0179009 6.68937,-65.02324 27.91077,-76.573369 5.52026,-3.004505 13.28248,-4.686436 13.28248,-2.878072 0,0.620294 -0.81984,1.127808 -1.82186,1.127808 -10.05975,0 -23.02847,11.742712 -31.06522,28.128446 -6.82043,13.9058611 -9.40143,24.34476806 -8.956,36.222816 0.25599,6.826318 0.88418,10.231208 2.47464,13.412921 1.17235,2.3453 1.72421,4.51593 1.22634,4.82363 -0.49787,0.3077 -1.87089,-1.61118 -3.05115,-4.26418 z M 473.65753,8.2471241 c 1.11933,-4.152104 1.0494,-4.58763 -1.00354,-6.25 -3.38451,-2.74060604 -3.98467,-2.21981904 -3.99094,3.463112 -0.003,2.8875 -0.44382,7.9249149 -0.97919,11.1942499 -0.83671,5.10955 -0.73133,6.21174 0.75047,7.849113 1.65658,1.83049 1.76867,1.63753 2.87195,-4.944263 0.63145,-3.767 1.68951,-8.8575 2.35125,-11.3122119 z m 4.99099,-12.99705 c 1.11117,-2.178089 2.02032,-4.702599 2.02032,-5.6100221 0,-2.988945 6.22639,-13.401625 10.11367,-16.913543 l 3.81546,-3.447043 -2.52484,-3.000611 c -1.48712,-1.767341 -3.9149,-3.261384 -5.90691,-3.635088 -3.00419,-0.56359 -3.7516,-0.221068 -6.68972,3.065757 -7.07412,7.913715 -11.01799,18.016621 -7.80766,20.000712 1.23569,0.763701 1.28506,5.5013231 0.0772,7.4093161 -1.52296,2.405743 0.35758,4.84199 4.65247,6.02729796 0.12632,0.03486 1.13882,-1.71868696 2.25,-3.89677596 z m -9.1639,-6.3083781 c -0.17368,-1.216066 -1.14818,-2.369769 -2.16556,-2.563784 -1.60912,-0.306862 -1.75645,0.08211 -1.1324,2.989784 0.39455,1.8383971 0.95173,3.7378271 1.23816,4.2209561 0.82128,1.385261 2.40957,-2.197963 2.0598,-4.6469561 z m -60.17794,-4.230064 c 0.88313,-2.30141 12.64435,-11.296336 17.68701,-13.526942 2.47165,-1.093331 6.55969,-2.27102 9.08453,-2.617088 2.52484,-0.346068 4.59062,-1.037353 4.59062,-1.536189 0,-0.498836 3.78943,-4.74792 8.42095,-9.44241 l 8.42095,-8.535436 5.32905,0.262352 5.32905,0.262352 -0.30225,-3.934017 c -0.81064,-10.551294 -5.55407,-18.975821 -12.60663,-22.389907 -11.58286,-5.607165 -25.7701,-0.986344 -39.68047,12.924029 -6.30709,6.307084 -8.52622,9.449554 -12.76958,18.082773 -5.24797,10.677093 -8.14107,19.795639 -8.14107,25.659186 0,3.214046 0.1,3.289901 4.33605,3.289901 l 4.33605,0 1.72024,-6.187383 c 7.07903,-25.461861 27.78394,-48.767051 43.35766,-48.802848 2.3375,-0.0054 4.25,0.440231 4.25,0.990231 0,0.55 -1.93665,1 -4.30366,1 -11.02824,0 -26.40812,13.720275 -35.56374,31.726141 -3.94969,7.767647 -8.12705,21.575621 -6.95469,22.988231 1.41733,1.707771 2.75445,1.625463 3.45993,-0.212976 z m 59.40534,-5.751396 c 1.336,-5.068415 5.24499,-12.198211 8.76646,-15.989569 1.39951,-1.506763 2.35236,-2.91734 2.11746,-3.134616 -0.23491,-0.217276 -1.94859,-1.310444 -3.80819,-2.429262 -2.62078,-1.576772 -3.87839,-1.807634 -5.59251,-1.026629 -2.31617,1.055318 -7.31494,8.614677 -10.04121,15.184771 -1.54051,3.712496 -1.51441,3.978989 0.70765,7.224064 2.03031,2.965066 3.2795,3.858632 6.01862,4.30524 0.3913,0.0638 1.21557,-1.796499 1.83172,-4.133999 z m -8.43025,-13 c 2.00095,-3.9875 4.46207,-8.417034 5.46917,-9.843409 2.18862,-3.099792 1.00827,-4.906591 -3.20537,-4.906591 -3.41824,0 -8.19924,3.960873 -11.2925,9.355397 -4.15134,7.239768 -4.13943,8.194165 0.12995,10.414633 2.0822,1.082932 4.11766,2.027694 4.52325,2.099469 0.40558,0.07178 2.37456,-3.131999 4.3755,-7.119499 z m -14.78424,-0.828328 c 0.32191,-2.371737 0.29679,-2.380432 -1.2182,-0.421672 -1.88719,2.439993 -2.03866,3.807677 -0.36049,3.255005 0.6875,-0.226413 1.39791,-1.501413 1.57869,-2.833333 z"
       id="path3199"
       inkscape:connector-curvature="0" />
  </g>
</svg>
