<?xml version="1.0" encoding="UTF-8" standalone="no"?>
<!-- Created with Inkscape (http://www.inkscape.org/) -->

<svg
   xmlns:dc="http://purl.org/dc/elements/1.1/"
   xmlns:cc="http://creativecommons.org/ns#"
   xmlns:rdf="http://www.w3.org/1999/02/22-rdf-syntax-ns#"
   xmlns:svg="http://www.w3.org/2000/svg"
   xmlns="http://www.w3.org/2000/svg"
   xmlns:sodipodi="http://sodipodi.sourceforge.net/DTD/sodipodi-0.dtd"
   xmlns:inkscape="http://www.inkscape.org/namespaces/inkscape"
   width="258.10535"
   height="224.62752"
   id="svg2"
   version="1.1"
   inkscape:version="0.48.3.1 r9886"
   sodipodi:docname="Jm-press-2.svg">
  <defs
     id="defs4" />
  <sodipodi:namedview
     id="base"
     pagecolor="#ffffff"
     bordercolor="#666666"
     borderopacity="1.0"
     inkscape:pageopacity="0.0"
     inkscape:pageshadow="2"
     inkscape:zoom="2.8"
     inkscape:cx="137.09788"
     inkscape:cy="79.986837"
     inkscape:document-units="px"
     inkscape:current-layer="layer1"
     showgrid="false"
     fit-margin-top="0"
     fit-margin-left="0"
     fit-margin-right="0"
     fit-margin-bottom="0"
     inkscape:window-width="1855"
     inkscape:window-height="1056"
     inkscape:window-x="65"
     inkscape:window-y="24"
     inkscape:window-maximized="1" />
  <metadata
     id="metadata7">
    <rdf:RDF>
      <cc:Work
         rdf:about="">
        <dc:format>image/svg+xml</dc:format>
        <dc:type
           rdf:resource="http://purl.org/dc/dcmitype/StillImage" />
        <dc:title></dc:title>
      </cc:Work>
    </rdf:RDF>
  </metadata>
  <g
     inkscape:label="Ebene 1"
     inkscape:groupmode="layer"
     id="layer1"
     transform="translate(-722.88707,-675.84433)">
    <path
       style="fill:#000000"
       d=""
       id="path3414"
       inkscape:connector-curvature="0" />
    <path
       style="fill:#000000"
       d=""
       id="path3412"
       inkscape:connector-curvature="0" />
    <path
       style="fill:#000000"
       d="m 784.59915,898.93533 c -1.0898,-2.83998 -0.6935,-3.23705 6.854,-6.86724 16.8769,-8.11748 17.9695,-8.35915 18.7054,-4.13737 0.2729,1.56557 -1.7579,2.87578 -11.1664,7.20406 -6.325,2.90976 -12.0144,5.31114 -12.643,5.3364 -0.6287,0.0253 -1.4162,-0.66586 -1.75,-1.53585 z m 2.0761,-2.60571 c -0.3192,-0.79773 -0.5562,-0.56078 -0.6042,0.60417 -0.043,1.05416 0.193,1.64479 0.5253,1.3125 0.3323,-0.3323 0.3678,-1.1948 0.079,-1.91667 z m 13.0669,-3.038 c 5.0875,-2.33005 9.25,-4.80751 9.25,-5.50547 0,-1.92621 -1.2253,-1.61405 -11.2486,2.86572 -10.7268,4.79415 -10.1398,4.42783 -9.2925,5.79872 0.953,1.54194 1.1432,1.48873 11.2911,-3.15897 z m -0.083,6.55883 c -0.3667,-0.36666 -0.653,-1.37916 -0.6363,-2.25 0.025,-1.3003 0.2201,-1.2571 1.0917,0.24167 1.0767,1.85169 0.7646,3.22835 -0.4554,2.00833 z m 19.8333,-10.17882 c 0,-9.58606 -0.2767,-11.22664 -2.7588,-16.35977 -1.5174,-3.13789 -3.5387,-6.14164 -4.4917,-6.675 -0.9531,-0.53335 -1.41,-1.29261 -1.0153,-1.68724 2.2609,-2.26092 8.2165,9.0288 9.6789,18.34774 0.9441,6.01646 0.4675,15.86651 -0.8058,16.65348 -0.334,0.20641 -0.6073,-4.41923 -0.6073,-10.27921 z m 6.2294,7.34549 c 2.9519,-15.32332 -2.3655,-30.78083 -11.8162,-34.3496 -2.0417,-0.77097 -3.4115,-0.52096 -6.5,1.18639 -4.8148,2.66164 -7.9512,8.59339 -9.3392,17.66321 l -0.9947,6.5 0.4621,-6.4141 c 0.2738,-3.79842 1.4552,-8.58307 2.8972,-11.73281 2.042,-4.46016 3.1313,-5.60383 6.7482,-7.085 8.1966,-3.35656 12.1486,-1.39458 16.9875,8.4336 3.0618,6.21888 3.3257,7.51034 3.3257,16.27658 0,5.98347 -0.4721,10.26493 -1.2706,11.52173 -1.096,1.72534 -1.1647,1.45069 -0.5,-2 z m 2.8206,-16.34442 c 0.5225,-0.46444 5.45,-2.74672 10.95,-5.07175 13.5919,-5.74575 21.9746,-9.33369 22.1258,-9.47023 0.069,-0.0625 0.437,-1.1261 0.8174,-2.3636 0.5208,-1.69455 0.2901,-2.25 -0.9348,-2.25 -0.8945,0 -1.3826,0.39453 -1.0846,0.87673 0.5607,0.90717 -4.6065,3.39514 -22.1738,10.67662 -5.6375,2.33669 -10.2418,3.9556 -10.2318,3.59759 0.01,-0.35802 5.2976,-2.89996 11.75,-5.64876 6.4525,-2.74879 12.7443,-6.077 13.9818,-7.39602 3.0586,-3.26004 2.8867,-7.57714 -0.7558,-18.97874 -1.6468,-5.15492 -3.0024,-9.87992 -3.0124,-10.5 -0.01,-0.62008 -1.3712,-3.12428 -3.0248,-5.56488 -3.0338,-4.47753 -8.1349,-7.29531 -12.457,-6.88115 -3.2581,0.3122 -6.7862,-1.27595 -8.962,-4.03426 -2.6835,-3.40183 -4.6977,-7.32076 -4.08,-7.93841 0.7495,-0.74952 3.542,1.86017 3.542,3.31013 0,1.66122 6.6396,7.48115 8.5348,7.48115 0.8059,0 1.4652,-0.51974 1.4652,-1.15499 0,-0.734 0.6379,-0.60071 1.75,0.36569 2.4799,2.15493 7.233,3.16773 7.3134,1.55835 0.035,-0.69798 0.4761,-0.24109 0.9805,1.0153 0.5044,1.2564 2.2368,3.9564 3.8497,6 4.2229,5.35026 8.5379,19.69744 9.0049,29.94065 0.088,1.92584 0.5049,2.14433 3.1015,1.625 3.1097,-0.62193 3.4612,-0.14026 3.0287,4.15 -0.1109,1.1 -0.6232,2.43801 -1.1385,2.97335 -0.597,0.62019 0.4321,1.39849 2.8365,2.14514 2.5928,0.8052 3.0898,1.20461 1.5884,1.27666 -1.2017,0.0577 -3.3987,-0.35665 -4.8823,-0.92071 -2.3287,-0.88538 -4.777,-0.13355 -17.9102,5.5 -14.6839,6.29869 -17.9905,7.4748 -15.9726,5.68114 z m 45.5842,-14.06318 c 1.2957,-1.04918 2.7637,-1.65549 3.2623,-1.34736 1.1024,0.68133 -2.2172,3.25496 -4.1984,3.25496 -0.8991,0 -0.5558,-0.69954 0.9361,-1.9076 z m 3.7382,-2.3424 c -0.07,-0.1375 -0.2361,-1.31097 -0.3686,-2.60771 -0.1932,-1.88978 0.5764,-2.7289 3.8776,-4.22804 4.4493,-2.0205 8.6186,-2.48904 8.6186,-0.96855 0,1.33403 10.02,0.6652 12.8491,-0.85766 1.932,-1.03998 2.2764,-1.88736 1.9396,-4.7727 -0.3954,-3.38639 -0.2287,-3.58824 4.8019,-5.81297 8.2335,-3.64124 10.5851,-3.80874 3.3526,-0.23879 -6.4931,3.20496 -6.55,3.26889 -5.8578,6.57682 0.66,3.15396 0.4423,3.50315 -3.8994,6.25662 -4.788,3.03642 -7.886,3.1938 -14.3772,0.73037 -1.879,-0.7131 -3.7216,-0.68125 -6.1056,0.10555 -2.8924,0.95458 -3.3422,1.5045 -2.9422,3.59696 0.2741,1.43392 0,2.4701 -0.6444,2.4701 -0.6141,0 -1.174,-0.1125 -1.2442,-0.25 z m -40.8724,-17.59501 c 0,-10.03301 -0.2677,-12.07844 -1.75,-13.37089 -0.9625,-0.83923 -8.6611,-5.67308 -17.1081,-10.74189 l -15.358,-9.21601 -22.9647,10.67165 -22.96467,10.67166 -3.9272,-2.59894 c -3.4754,-2.29989 -3.9273,-3.05643 -3.9273,-6.57472 l 0,-3.97578 9,-4.52007 9,-4.52007 -0.011,-11.23997 -0.011,-11.23996 -4.2386,-1.99722 c -2.3312,-1.09847 -5.1057,-2.78122 -6.1657,-3.73944 -1.06,-0.95822 -2.0558,-1.61371 -2.2128,-1.45664 -0.9989,0.99888 -3.0594,19.08358 -2.647,23.23211 0.398,4.0041 0.1393,5.33885 -1.2598,6.5 -2.3536,1.95337 -10.0602,1.73679 -14.4532,-0.40619 -6.7953,-3.31488 -12.5015,-7.28267 -12.8151,-8.91093 -0.2269,-1.17809 0.5168,-0.87444 2.609,1.06525 3.809,3.53128 17.9656,8.56252 21.5567,7.6612 2.5284,-0.63458 2.651,-0.9684 2.6843,-7.30655 0.019,-3.65287 0.6853,-10.24159 1.4803,-14.64159 0.795,-4.4 1.4543,-8.30593 1.4651,-8.67985 0.011,-0.37391 -2.0271,-1.70204 -4.5287,-2.9514 -4.2334,-2.11429 -4.5277,-2.51386 -4.25,-5.77125 0.228,-2.67434 1.0104,-3.91383 3.3174,-5.25574 l 3.019,-1.75604 4.981,3.94651 c 2.7396,2.17058 5.2592,3.9513 5.5993,3.95714 0.3401,0.006 0.8665,-1.83958 1.1698,-4.10095 0.5595,-4.17073 4.1721,-9.0378 8.2119,-11.0633 1.26317,-0.63334 0.99847,-0.14111 -0.7184,1.33605 -1.4951,1.28636 -3.1826,3.60562 -3.75,5.15393 -1.7913,4.88821 -0.7878,15.72833 1.4684,15.86232 0.55,0.0327 1.8876,0.6811 2.9725,1.44098 1.08487,0.75988 2.64217,1.3816 3.46067,1.3816 0.8185,0 6.2745,2.26228 12.1246,5.0273 5.8574,2.76852 11.3347,4.7593 12.1907,4.43082 0.8549,-0.32806 1.8237,-1.57784 2.1529,-2.77729 0.3742,-1.36349 0.8796,-1.77024 1.3486,-1.0853 0.4125,0.60254 3.5577,3.00126 6.9892,5.33048 5.9117,4.01263 11.0894,9.5787 9.9606,10.70757 -0.2852,0.28514 -2.4166,-1.54077 -4.7365,-4.05757 -2.3199,-2.51681 -4.8357,-4.57601 -5.5907,-4.57601 -0.7549,0 -1.3726,-0.45 -1.3726,-1 0,-0.56559 -2.8652,-1 -6.5956,-1 -4.8281,0 -7.307,-0.50087 -9.25,-1.86901 -1.4599,-1.02796 -6.2544,-3.1008 -10.6544,-4.60632 -12.36757,-4.23172 -16.95197,-6.6867 -17.31957,-9.27467 -0.1757,-1.2375 -0.8352,-2.25 -1.4656,-2.25 -0.6304,0 -3.2698,-2.09173 -5.8654,-4.64829 -4.557,-4.48851 -4.8246,-4.60464 -7.7843,-3.37868 -4.1444,1.71667 -4.3177,5.983 -0.3151,7.75888 1.5125,0.67108 5.2031,3.06506 8.2014,5.31996 2.9982,2.25491 7.4982,5.28094 10,6.72451 2.5017,1.44358 8.23737,5.00945 12.74587,7.92416 4.5085,2.9147 8.4305,5.29946 8.7156,5.29946 0.285,0 4.2463,2.40561 8.8027,5.34579 4.5564,2.94019 12.7844,7.74394 18.2844,10.67502 5.5,2.93107 10.2872,5.75815 10.6383,6.2824 0.351,0.52425 2.6522,2.133 5.1139,3.57499 9.4394,5.52952 17.3132,11.31103 14.5907,10.7135 -1.4614,-0.32074 -3.3739,-0.85823 -4.25,-1.19442 -1.3983,-0.53657 -1.5929,0.74579 -1.5929,10.49573 0,6.73799 -0.3934,11.10699 -1,11.10699 -0.6104,0 -1,-4.615 -1,-11.84501 z m -69.39287,-18.45644 c 4.89107,-2.3658 14.17757,-6.7533 20.63667,-9.75 6.4591,-2.9967 11.7335,-5.67355 11.7209,-5.94855 -0.013,-0.275 -2.7472,-2.47803 -6.0769,-4.89562 l -6.0539,-4.39561 -3.5407,1.68848 c -1.9475,0.92866 -3.7683,1.46103 -4.0462,1.18305 -0.278,-0.27798 0.6777,-1.0445 2.1238,-1.70337 1.446,-0.65888 2.6292,-1.51657 2.6292,-1.90599 0,-0.38942 -3.8693,-3.24047 -8.5984,-6.33567 l -8.59837,-5.62763 0.7092,11.35045 0.7092,11.35045 -8.8608,4.39573 c -4.8734,2.41765 -9.1303,4.76232 -9.4598,5.21038 -1.12,1.52331 0.3332,6.17901 2.47,7.91311 3.0615,2.48455 4.3402,2.25739 14.2361,-2.52921 z m 108.97837,26.16304 c 0.5012,-0.81094 -0.2965,-0.95078 -2.7734,-0.48612 -2.8148,0.52806 -3.8422,0.23884 -5.3945,-1.51858 -1.9146,-2.16747 -1.9137,-2.16972 0.5824,-1.43628 11.0443,3.24523 14.4486,2.40517 17.8317,-4.4002 2.314,-4.65482 2.3199,-4.7587 0.7758,-13.7064 -0.8558,-4.95882 -1.8407,-9.75807 -2.1887,-10.66502 -0.348,-0.90694 -0.1856,-1.64899 0.361,-1.64899 1.3101,0 3.5776,12.03877 3.5786,19 10e-4,9.96031 -0.5381,11.1999 -5.9671,13.71146 -5.3721,2.48526 -7.8943,2.91149 -6.8058,1.15013 z m -11.9375,-11.11159 c -0.3468,-2.8875 -0.6345,-8.00754 -0.6393,-11.37788 -0.01,-3.37033 -0.6837,-7.74337 -1.5087,-9.71788 -0.825,-1.9745 -1.5,-3.82054 -1.5,-4.10231 0,-0.57512 8.9733,4.20913 10.45,5.57157 2.2542,2.07978 7.1555,0.87871 10.5014,-2.57335 2.8233,-2.91292 3.4477,-4.43041 4.0115,-9.75 0.6456,-6.09142 0.6937,-6.17807 1.4515,-2.61533 0.9871,4.64101 -0.5203,9.35846 -4.266,13.35018 -1.5663,1.66925 -3.3909,4.0496 -4.0546,5.28965 -0.6636,1.24006 -3.6562,3.41449 -6.6502,4.83207 l -5.4436,2.57742 0,6.88293 c 0,8.12127 -1.4516,9.12908 -2.352,1.63293 z m 6.9222,-12.6282 c 6.2094,-3.39613 6.7964,-5.11184 1.7631,-5.1536 -2.1083,-0.0175 -4.7068,-0.6925 -5.7744,-1.5 -2.9884,-2.26027 -3.2519,-1.86442 -2.5175,3.7818 0.3756,2.8875 0.4775,5.925 0.2264,6.75 -0.3752,1.23303 -0.2816,1.2547 0.5261,0.1218 0.5404,-0.75801 3.1397,-2.55801 5.7763,-4 z m 80.35707,15.62323 c -3.3652,-2.93647 -4.5634,-4.62974 -6.4193,-9.07173 -2.0028,-4.79318 -1.0894,-4.73337 1.3712,0.0898 1.0558,2.0697 3.1977,5.0411 4.7597,6.6031 2.5349,2.53489 3.3197,2.77424 7.3052,2.22798 5.3714,-0.73624 9.3434,-4.18026 11.5349,-10.00176 1.5335,-4.0736 1.5382,-4.0764 1.0091,-0.60879 -0.848,5.55735 -4.6771,10.4568 -9.2412,11.82423 -5.6076,1.68007 -7.3863,1.49688 -10.3196,-1.06284 z m -51.13947,-3.94646 c -2.4121,-2.97555 -3.1039,-9.20915 -1.8644,-16.79857 1.4005,-8.57597 1.3647,-20.58253 -0.07,-23.31574 -0.6305,-1.20134 -2.804,-4.20926 -4.8301,-6.68426 -7.3938,-9.03184 -5.866,-9.20357 2.385,-0.26808 4.4657,4.83608 4.8686,5.69978 5.3256,11.41601 0.272,3.40126 -0.061,11.00284 -0.7389,16.89241 -1.3164,11.42825 -0.4957,17.16996 2.6253,18.36759 0.8382,0.32164 11.7289,-3.9379 24.2016,-9.46563 12.47277,-5.52773 23.57627,-10.13859 24.67447,-10.24636 1.3803,-0.13545 2.0957,0.49334 2.3173,2.03683 0.2673,1.86246 -0.6443,2.66841 -5.4968,4.85934 -3.1995,1.44461 -8.7423,3.97175 -12.3173,5.61587 -9.11567,4.19227 -16.18877,6.93659 -16.66087,6.4644 -0.2205,-0.22051 6.9255,-3.65146 15.87997,-7.62432 17.2403,-7.64906 18.3676,-8.28983 17.3838,-9.88166 -0.3687,-0.5965 -10.0248,3.20576 -23.6584,9.31587 -12.66947,5.67805 -24.02737,10.57233 -25.23997,10.87617 -1.5027,0.37657 -2.7496,-0.12001 -3.9167,-1.55987 z m 61.21217,1.04606 c 0,-0.33021 0.7546,-2.34284 1.677,-4.47251 1.1612,-2.68133 1.6743,-6.63988 1.6683,-12.87212 -0.01,-7.49177 -0.4315,-9.9217 -2.5325,-14.5 -1.3882,-3.025 -3.489,-6.35724 -4.6684,-7.40499 -1.1794,-1.04774 -2.1444,-2.36943 -2.1444,-2.93709 0,-0.56766 1.3487,0.26004 2.9971,1.83932 7.9268,7.59431 10.5155,30.22198 4.4486,38.88376 -0.7951,1.1352 -1.4457,1.79384 -1.4457,1.46363 z M 851.56615,828.74923 c -0.3349,-1.05523 0.06,-3.45164 0.8772,-5.32536 l 1.4863,-3.40675 -0.6095,5 c -0.7124,5.84482 -0.9339,6.31608 -1.754,3.73211 z m 120.71227,-4.73211 c 0.01,-2.75 0.2017,-3.75631 0.4316,-2.23625 0.2298,1.52006 0.2237,3.77006 -0.014,5 -0.2374,1.22994 -0.4254,-0.0137 -0.4179,-2.76375 z m -29.5175,-2.11277 c -1.1354,-1.76225 1.1628,-12.62852 3.5852,-16.95151 3.5374,-6.31288 10.7976,-8.9602 16.4942,-6.01436 3.0637,1.58429 7.7189,9.38504 8.8888,14.8952 l 0.7633,3.59463 4.25,-1.9067 c 2.3375,-1.04869 4.2483,-1.59121 4.2462,-1.2056 0,0.67922 -7.7637,4.20111 -9.2567,4.20111 -0.4067,0 -0.7395,-0.73529 -0.7395,-1.63398 0,-3.86025 -2.6178,-9.79898 -5.9308,-13.45451 -4.595,-5.07017 -8.3741,-5.863 -13.0151,-2.73053 -4.8549,3.27677 -7.1096,7.71911 -7.8921,15.54968 -0.3721,3.72314 -0.9991,6.26859 -1.3935,5.65657 z m -89.46777,-5.82881 c -0.6596,-0.75102 -3.0221,-1.67346 -5.25,-2.04986 -2.2279,-0.37639 -4.0507,-1.0948 -4.0507,-1.59646 0,-1.15531 -0.2855,-1.18606 5.8185,0.62664 3.176,0.94318 5.1815,2.10431 5.1815,3 0,1.76796 -0.1622,1.76984 -1.6993,0.0197 z m 37.1379,-5.90067 c 0.1903,-3.76324 0.9025,-7.36324 1.5828,-8 0.9733,-0.91105 1.079,-0.51849 0.4963,1.84225 -0.4073,1.65 -1.1195,5.25 -1.5828,8 -0.7974,4.73395 -0.8238,4.63592 -0.4963,-1.84225 z m -31.6014,2.92831 c -2.0343,-2.72954 -15.9259,-9.55955 -19.6402,-9.65635 -1.4833,-0.0386 -3.597,-0.45702 -4.697,-0.92971 -1.7722,-0.76156 -1.6868,-0.86743 0.75,-0.92971 3.2942,-0.0842 3.2941,-0.0834 0.6802,-5.20703 -1.1383,-2.23139 -1.8436,-4.28321 -1.5672,-4.5596 0.2764,-0.27639 1.6654,1.79222 3.0866,4.59691 1.4213,2.80468 3.139,5.10557 3.8173,5.11308 0.6782,0.008 2.1767,0.26699 3.3301,0.57661 1.6384,0.43986 2.3666,-0.0882 3.3303,-2.41488 0.6785,-1.6378 2.3223,-4.00072 3.6531,-5.25092 3.2031,-3.00911 3.0661,-4.28572 -1.0787,-10.05503 -1.9241,-2.67819 -3.0537,-4.86943 -2.5102,-4.86943 0.5434,0 2.6321,2.47609 4.6415,5.50242 l 3.6534,5.50243 -4.1432,5.90652 c -2.2788,3.24859 -4.1432,6.32664 -4.1432,6.84011 0,0.51347 1.6875,1.78719 3.75,2.8305 2.0625,1.0433 4.7087,2.7171 5.8805,3.71955 2.0966,1.79355 2.1476,1.77377 3.198,-1.23945 1.2,-3.44219 2.2771,-4.18194 1.4426,-0.99071 -0.3324,1.271 0.349,3.29957 1.7633,5.25 1.9233,2.65228 1.9741,2.88885 0.3066,1.42863 -2.4189,-2.11819 -3.0948,-2.18379 -3.5177,-0.34142 -0.2335,1.01718 -0.7853,0.78864 -1.9861,-0.82252 z m 114.29747,-0.0541 c 0.9021,-0.90211 7.8653,-3.55303 7.8653,-2.99436 0,0.31044 -1.5606,1.21648 -3.4679,2.01342 -3.4811,1.45452 -5.27,1.85357 -4.3974,0.98094 z M 826.48035,801.92066 c -0.8461,-2.14695 -1.9808,-4.69104 -2.5216,-5.65354 -1.119,-1.9917 0.2985,-2.40153 1.7295,-0.5 1.2297,1.63415 3.3707,9.01681 2.7849,9.60269 -0.25,0.24991 -1.1467,-1.3022 -1.9928,-3.44915 z m -81.48787,-2.40354 c 0,-2.2 0.3494,-4 0.7764,-4 0.4271,0 0.6048,1.8 0.395,4 -0.2098,2.2 -0.5592,4 -0.7764,4 -0.2173,0 -0.395,-1.8 -0.395,-4 z m -7,2 c 0,-0.55 0.7016,-1 1.559,-1 0.8575,0 1.2809,0.45 0.941,1 -0.3399,0.55 -1.0415,1 -1.559,1 -0.5176,0 -0.941,-0.45 -0.941,-1 z m 123.99997,0.33786 c 0,-0.95174 4.9924,-9.33786 5.559,-9.33786 0.2611,0 -0.6655,2.25 -2.059,5 -2.3218,4.58176 -3.5,6.04206 -3.5,4.33786 z m 17.7602,-5.21099 c -1.3297,-1.58023 -3.4332,-3.41669 -4.6745,-4.08102 -1.2414,-0.66434 -2.0353,-1.42961 -1.7643,-1.70061 0.9541,-0.95412 6.2051,2.49575 8.4585,5.55729 2.8724,3.90226 1.2287,4.08483 -2.0197,0.22434 z m -153.26017,-0.0697 c 3.6893,-1.48942 10.5,-2.78744 10.5,-2.00114 0,0.42801 -2.2721,1.26549 -5.0492,1.86107 -5.8158,1.24726 -8.3549,1.31251 -5.4508,0.14007 z m 13.1445,-18.53674 c 0.1606,-15.94691 1.7855,-28.12425 4.1032,-30.75091 0.8398,-0.95175 3.0581,-2.0177 4.9295,-2.36878 3.8626,-0.72462 11.7139,1.16062 13.4262,3.22386 2.3923,2.88246 3.8966,1.5504 3.8966,-3.45033 0,-3.83721 0.5053,-5.30041 2.467,-7.14331 2.1727,-2.04118 3.13877,-2.24829 8.09897,-1.73634 6.0702,0.62649 12.8883,4.16473 21.111,10.95534 2.4974,2.0625 5.0188,3.75 5.6031,3.75 0.5844,0 1.7729,0.60089 2.6412,1.3353 0.8683,0.73442 3.1537,1.94168 5.0787,2.68281 1.925,0.74112 4.772,2.39023 6.3267,3.66469 1.5547,1.27446 3.4569,2.3172 4.227,2.3172 0.7701,0 2.1214,1.10075 3.0029,2.4461 1.6245,2.47932 7.3581,4.79859 14.9434,6.04472 2.2,0.36142 5.0125,1.30922 6.25,2.10621 2.8554,1.83899 3.0712,3.91282 0.25,2.40297 -1.356,-0.7257 -2,-0.73703 -2,-0.0352 0,0.56935 -0.7046,1.03518 -1.5657,1.03518 -0.8612,0 -2.5487,0.5354 -3.75,1.18979 -2.685,1.46254 -11.9366,2.21851 -9.6843,0.79133 0.825,-0.52277 3.1609,-0.95739 5.191,-0.96581 2.03,-0.008 3.9691,-0.46531 4.309,-1.01531 0.3399,-0.55 1.4915,-1 2.559,-1 3.4176,0 2.0752,-1.88671 -1.809,-2.54258 -2.0625,-0.34826 -5.168,-1.26865 -6.9011,-2.04531 -1.7332,-0.77666 -3.8441,-1.41211 -4.691,-1.41211 -0.8469,0 -1.8225,-0.45734 -2.168,-1.01631 -0.3454,-0.55897 -1.0497,-0.75573 -1.5651,-0.43724 -0.5153,0.31849 -2.7558,0.60418 -4.979,0.63486 -2.2231,0.0307 -3.8044,0.29346 -3.5139,0.58395 0.2905,0.29048 -1.6003,1.52336 -4.2019,2.73971 -6.3107,2.9506 -8.1539,5.25138 -9.1241,11.38878 -0.4476,2.83107 -1.1594,5.47564 -1.5819,5.87682 -1.4686,1.39441 0.2814,-10.65475 1.8816,-12.95547 2.5001,-3.5946 13.4489,-9.8151 17.2757,-9.8151 4.1963,0 4.2776,-1.47006 0.1607,-2.90523 -1.7369,-0.60549 -3.7514,-1.94809 -4.4767,-2.98356 -0.7252,-1.03548 -2.5666,-2.18753 -4.092,-2.56013 -1.5253,-0.37259 -4.4584,-1.83357 -6.5181,-3.24663 -3.0827,-2.115 -4.4967,-2.46833 -7.9984,-1.99866 -4.6364,0.62187 -8.7568,4.28475 -8.7568,7.78442 0,1.79618 0.4612,1.9175 5,1.3154 5.8126,-0.77107 6.6026,0.0579 1.4191,1.4891 -3.4688,0.95779 -7.9818,-0.0591 -9.4862,-2.13747 -0.3119,-0.43092 -3.2369,-1.208 -6.5,-1.72687 l -5.9329,-0.94339 6.5785,0.32759 c 6.2369,0.31058 6.6752,0.18375 8.44,-2.44213 1.0767,-1.60202 3.4816,-3.2551 5.7041,-3.92098 l 3.8425,-1.15126 -1.9376,-2.7001 c -2.457,-3.42397 -14.081,-9.3351 -19.4972,-9.91491 -6.35317,-0.68013 -8.12067,1.18937 -8.17297,8.64433 -0.042,5.99434 0.01,6.10986 3.25,7.28162 1.81097,0.65485 3.29267,1.55024 3.29267,1.98975 0,1.29885 -0.6937,1.03113 -10.82247,-4.17688 -8.7985,-4.52402 -10.0253,-4.89528 -13.5067,-4.08744 -4.4328,1.02858 -3.9473,0.6412 -6.0956,4.86423 -1.3319,2.61821 -1.7509,6.89037 -2.0264,20.65883 -0.1911,9.54692 -0.7302,18.04276 -1.1981,18.87966 -0.494,0.88357 -0.7901,-4.49172 -0.7062,-12.81882 z m 93.35547,9.10197 c 0,-0.20765 0.6853,-0.9463 1.5229,-1.64144 1.2733,-1.05678 1.4197,-0.99492 0.893,0.37756 -0.5379,1.40173 -2.4159,2.38422 -2.4159,1.26388 z m 35.5,-1.81861 c -1.1,-0.58345 -3.8382,-2.8238 -6.0849,-4.97855 -3.0187,-2.89508 -5.0363,-3.97858 -7.7294,-4.15087 -2.0044,-0.12823 -4.1386,-0.72734 -4.7426,-1.33136 -0.7977,-0.79763 0.2673,-0.85002 3.8909,-0.19141 3.7594,0.68329 5.9353,1.84881 8.8276,4.72857 3.3648,3.35017 4.618,3.90892 10.1563,4.52811 9.4633,1.05802 11.3376,2.14763 3.9804,2.31395 -3.4641,0.0783 -7.1983,-0.33499 -8.2983,-0.91844 z m -50.6392,-5.75437 c 2.4423,-2.12022 8.8092,-2.94262 7.5971,-0.98129 -0.3631,0.5875 -1.3182,0.81568 -2.1224,0.50708 -0.8042,-0.3086 -2.8962,0.13298 -4.6488,0.98129 l -3.1867,1.54239 2.3608,-2.04947 z m -30.8608,-2.10049 c 0,-1.21812 6.0952,-3.9611 8.7179,-3.92325 0.9801,0.0142 -0.3857,1.13915 -3.0352,2.5 -5.4726,2.81092 -5.6827,2.86353 -5.6827,1.42325 z m 25.8125,-6.63208 c 0.7219,-0.28888 1.5844,-0.25335 1.9167,0.0789 0.3323,0.33229 -0.2584,0.56864 -1.3125,0.52522 -1.165,-0.048 -1.4019,-0.28495 -0.6042,-0.60417 z m -57.81247,-4.43558 c -4.0943,-2.46971 -7.4388,-5.77584 -6.6454,-6.56922 0.3056,-0.30562 1.9321,0.8208 3.6145,2.50316 1.6824,1.68236 3.9526,3.3425 5.0449,3.68918 1.0923,0.34669 1.986,1.05002 1.986,1.56296 0,1.23572 0.029,1.24441 -4,-1.18608 z m 45.81247,-0.56442 c 0.7219,-0.28888 1.5844,-0.25335 1.9167,0.0789 0.3323,0.33229 -0.2584,0.56864 -1.3125,0.52522 -1.165,-0.048 -1.4019,-0.28495 -0.6042,-0.60417 z m -50.31247,-10.31689 c -0.3399,-0.55 -0.168,-1 0.382,-1 0.55,0 1.2781,0.45 1.618,1 0.3399,0.55 0.168,1 -0.382,1 -0.55,0 -1.2781,-0.45 -1.618,-1 z m 24.69927,-3.05004 c -4.80777,-1.04599 -5.41587,-2.34459 -0.6993,-1.49344 2.2,0.39702 4.1875,0.90672 4.4167,1.13267 0.9112,0.89847 -0.5805,1.04325 -3.7174,0.36077 z m -0.6993,-5.94996 c -0.377,-0.61008 1.1366,-1 3.882,-1 2.475,0 4.7781,0.45 5.118,1 0.3771,0.61008 -1.1366,1 -3.882,1 -2.475,0 -4.7781,-0.45 -5.118,-1 z"
       id="path3493"
       inkscape:connector-curvature="0" />
  </g>
</svg>
