<?xml version="1.0" encoding="UTF-8" standalone="no"?>
<!-- Created with Inkscape (http://www.inkscape.org/) -->

<svg
   xmlns:dc="http://purl.org/dc/elements/1.1/"
   xmlns:cc="http://creativecommons.org/ns#"
   xmlns:rdf="http://www.w3.org/1999/02/22-rdf-syntax-ns#"
   xmlns:svg="http://www.w3.org/2000/svg"
   xmlns="http://www.w3.org/2000/svg"
   xmlns:sodipodi="http://sodipodi.sourceforge.net/DTD/sodipodi-0.dtd"
   xmlns:inkscape="http://www.inkscape.org/namespaces/inkscape"
   width="258.10535"
   height="224.62752"
   id="svg2"
   version="1.1"
   inkscape:version="0.48.3.1 r9886"
   sodipodi:docname="Incline-pushdown-2.svg">
  <defs
     id="defs4" />
  <sodipodi:namedview
     id="base"
     pagecolor="#ffffff"
     bordercolor="#666666"
     borderopacity="1.0"
     inkscape:pageopacity="0.0"
     inkscape:pageshadow="2"
     inkscape:zoom="2.8"
     inkscape:cx="137.09788"
     inkscape:cy="79.986837"
     inkscape:document-units="px"
     inkscape:current-layer="layer1"
     showgrid="false"
     fit-margin-top="0"
     fit-margin-left="0"
     fit-margin-right="0"
     fit-margin-bottom="0"
     inkscape:window-width="1855"
     inkscape:window-height="1056"
     inkscape:window-x="65"
     inkscape:window-y="24"
     inkscape:window-maximized="1" />
  <metadata
     id="metadata7">
    <rdf:RDF>
      <cc:Work
         rdf:about="">
        <dc:format>image/svg+xml</dc:format>
        <dc:type
           rdf:resource="http://purl.org/dc/dcmitype/StillImage" />
        <dc:title></dc:title>
      </cc:Work>
    </rdf:RDF>
  </metadata>
  <g
     inkscape:label="Ebene 1"
     inkscape:groupmode="layer"
     id="layer1"
     transform="translate(-722.88707,-675.84433)">
    <path
       style="fill:#000000"
       d=""
       id="path3414"
       inkscape:connector-curvature="0" />
    <path
       style="fill:#000000"
       d=""
       id="path3412"
       inkscape:connector-curvature="0" />
    <path
       style="fill:#000000"
       d="m 823.16383,886.7623 c -2.25056,-1.442 -3.28676,-3.016 -3.71247,-5.6394 -0.3248,-2.0015 -0.34797,-4.0316 -0.0515,-4.5113 0.29648,-0.4797 4.52117,-2.8722 9.38819,-5.3165 l 8.84912,-4.4443 -0.50675,-15.2773 c -0.27871,-8.40252 -0.66884,-15.80771 -0.86696,-16.45599 -0.3211,-1.05068 -11.9285,-9.3213 -13.08198,-9.3213 -0.25456,0 -5.00729,-2.7451 -10.56163,-6.10021 -8.34532,-5.04102 -10.46649,-5.93032 -12.21645,-5.12171 -1.16471,0.53818 -11.48758,5.34662 -22.93972,10.68541 l -20.82206,9.70689 -3.92792,-2.59938 c -3.47441,-2.29925 -3.92793,-3.05773 -3.92793,-6.56916 0,-3.822 0.21405,-4.08026 5.75,-6.93771 3.56249,-1.83882 4.98913,-2.99469 3.75,-3.03827 -1.1,-0.0387 -3.11707,-0.92864 -4.48238,-1.97768 -1.74813,-1.34319 -2.84567,-1.60584 -3.71062,-0.88801 -2.75804,2.28897 -9.80962,1.22895 -17.38477,-2.61334 -9.19793,-4.66541 -9.9505,-5.27317 -9.80623,-7.91927 0.0887,-1.62757 0.22161,-1.72597 0.5654,-0.4187 1.03756,3.94534 18.21378,11.27663 23.91418,10.20723 1.87243,-0.35127 3.40442,-0.76766 3.40442,-0.92531 0,-0.15765 -1.11958,-2.24507 -2.48795,-4.63871 -1.36838,-2.39364 -2.47174,-5.02707 -2.4519,-5.85207 0.0198,-0.825 1.36735,1.07906 2.99449,4.23123 3.8022,7.36581 6.5238,9.18911 12.68051,8.49515 7.86667,-0.88668 11.74427,-7.91461 11.71148,-21.22638 -0.0286,-11.6149 -4.5308,-21.42368 -11.48371,-25.01917 -2.39348,-1.23772 -3.1836,-1.24773 -5.45536,-0.0691 -1.56395,0.81138 -2.2146,1.65132 -1.58203,2.04227 0.59096,0.36523 1.06446,1.2 1.05223,1.85504 -0.0122,0.65505 -0.82022,0.15389 -1.79553,-1.11368 l -1.77331,-2.30467 -1.85733,2.05234 c -1.02154,1.12878 -2.67386,4.41588 -3.67182,7.30467 -0.99796,2.88878 -1.82917,4.3161 -1.84712,3.17181 -0.018,-1.14429 1.09047,-4.29429 2.46316,-7 1.3727,-2.70572 2.4977,-5.04236 2.5,-5.19254 0.002,-0.15017 -1.09423,0.44667 -2.43675,1.32632 -1.34252,0.87965 -2.6251,2.80252 -2.85017,4.27305 -0.38119,2.49052 -0.41949,2.45943 -0.55906,-0.45387 -0.17226,-3.59573 1.48205,-5.33845 5.51713,-5.81195 1.55817,-0.18285 3.28304,-0.39095 3.83304,-0.46244 0.55,-0.0715 -0.55568,-1.50092 -2.45707,-3.1765 -2.06244,-1.81751 -4.18037,-2.85737 -5.25,-2.57765 -0.98611,0.25787 -1.79293,0.061 -1.79293,-0.43752 0,-2.10459 5.32206,-0.73817 8.15364,2.09342 2.29166,2.29165 3.57643,2.85507 5.44249,2.38672 5.35488,-1.34399 11.03112,3.48791 14.34119,12.20796 l 1.60326,4.22362 12.97971,-4.96058 c 20.16333,-7.70603 27.47739,-11.15363 27.47862,-12.95253 10e-4,-2.1027 2.69704,-4.35171 6.91325,-5.7679 4.87376,-1.63705 4.94625,-0.69772 0.0959,1.243 -3.95866,1.58394 -4.89569,2.64842 -5.4088,6.14445 -0.24082,1.64076 -17.79869,9.07108 -34.74427,14.70344 -4.96661,1.65079 -6.83828,2.75051 -6.84532,4.02202 -0.012,2.17515 -0.16882,2.18535 5.6574,-0.36814 2.65812,-1.16498 8.43293,-3.35793 12.83293,-4.87322 4.4,-1.5153 11.78176,-4.16214 16.4039,-5.88186 9.2764,-3.4514 9.44144,-3.49457 8.6858,-2.27192 -0.29058,0.47017 -3.89246,2.08183 -8.00417,3.58145 -4.11171,1.49963 -7.99456,3.35161 -8.62855,4.11553 -0.63399,0.76391 -1.22117,3.65177 -1.30485,6.41746 -0.0837,2.76569 -0.44149,5.02901 -0.79514,5.02961 -1.35006,0.002 -1.76405,-3.17308 -0.96871,-7.43029 l 0.8271,-4.42725 -4.60769,1.7795 c -2.53423,0.97872 -7.80912,3.01905 -11.72198,4.53405 l -7.11428,2.75456 -0.52523,7.66296 c -0.55774,8.13717 -2.56908,14.24567 -5.83554,17.72265 -1.09663,1.16732 -5.46265,3.87346 -9.70227,6.01365 -4.23961,2.14019 -8.02717,4.33752 -8.41678,4.88295 -1.914,2.67946 2.48918,9.41494 6.20839,9.49689 1.66157,0.0366 42.98785,-19.19205 42.9595,-19.98858 -0.01,-0.275 -2.74205,-2.47803 -6.07168,-4.89562 l -6.05389,-4.39561 -3.54077,1.68848 c -1.94743,0.92866 -3.76821,1.46103 -4.04619,1.18305 -0.27798,-0.27798 0.67773,-1.0445 2.1238,-1.70337 1.44608,-0.65888 2.62923,-1.53441 2.62923,-1.94562 0,-0.41121 -2.02419,-2.02648 -4.49821,-3.58949 -2.47402,-1.563 -4.49902,-3.23421 -4.5,-3.71379 -9.8e-4,-0.47959 1.01071,-0.1534 2.24821,0.72486 1.2375,0.87826 4.725,3.04803 7.75,4.82171 3.025,1.77368 8.425,5.08577 12,7.36021 3.575,2.27444 11.27483,6.67544 17.11073,9.77999 5.8359,3.10456 11.1785,6.32877 11.87244,7.16492 0.69395,0.83615 1.72755,1.52028 2.2969,1.52028 0.56935,0 3.32675,1.72819 6.12756,3.84043 13.67831,10.31556 17.20482,10.49216 33.51614,1.67847 8.74392,-4.72472 9.95146,-6.5189 4.38741,-6.5189 -2.82873,0 -4.84826,-0.81832 -7.58334,-3.0728 -2.05031,-1.69005 -3.72784,-3.72618 -3.72784,-4.52475 0,-0.79858 -1.0279,-1.84276 -2.28421,-2.32041 -3.15891,-1.20101 -14.54026,0.17381 -18.41613,2.2246 -4.38443,2.31988 -7.41098,2.09608 -17.29966,-1.27924 -9.84613,-3.3608 -7.88005,-3.93793 3.5,-1.0274 11.8477,3.03013 16.5,2.33196 16.5,-2.47617 0,-1.32319 0.44933,-2.6835 0.9985,-3.0229 0.57603,-0.35601 0.89336,0.35946 0.75,1.69098 -0.22269,2.06833 0.11507,2.27561 3.2515,1.99545 1.925,-0.17195 5.3375,-0.38727 7.58333,-0.47848 3.76783,-0.15302 4.08334,-0.38256 4.08334,-2.97069 0,-1.54267 0.49982,-3.30468 1.11071,-3.91557 0.81429,-0.81429 0.95611,-0.51947 0.53138,1.1047 -0.37124,1.41962 0.19104,3.25742 1.56535,5.11627 1.51157,2.04451 1.69911,2.72987 0.63529,2.32164 -3.75419,-1.44061 0.50396,4.85509 5.12974,7.58437 5.05671,2.98352 8.39594,2.64116 12.16469,-1.24721 2.83715,-2.92719 3.19617,-3.93936 3.19617,-9.0109 0,-8.08746 -4.30647,-16.6444 -9.87705,-19.62569 -1.26183,-0.67531 -2.06924,-1.45284 -1.79424,-1.72784 0.275,-0.275 1.39203,-0.0226 2.48229,0.56089 1.69021,0.90457 2.07432,0.69422 2.60686,-1.42761 0.73731,-2.93767 -1.57969,-7.9523 -4.36247,-9.4416 -1.05815,-0.5663 -3.04285,-1.02964 -4.41046,-1.02964 l -2.48655,0 2.42081,4.55291 c 2.92442,5.50008 3.0242,7.05604 0.49492,7.71746 -1.05924,0.277 -3.1145,2.84923 -4.56724,5.71606 -1.45273,2.86684 -2.86747,4.9863 -3.14386,4.70991 -0.69016,-0.69016 3.31058,-8.37298 4.8727,-9.35729 0.84977,-0.53545 0.2807,-1.00585 -1.73571,-1.43474 l -3,-0.63809 3.34615,-0.77734 c 3.09768,-0.71962 3.30209,-1.00797 2.7527,-3.88311 -0.7793,-4.07841 -6.31417,-9.14218 -10.94156,-10.01028 -4.55946,-0.85536 -9.30073,1.16017 -8.8481,3.76136 0.24749,1.42227 -0.0519,1.58941 -1.5,0.83752 -1.25618,-0.65223 -3.03441,-0.41091 -5.81754,0.7895 -5.11738,2.2072 -6.71599,4.18468 -7.56075,9.35267 l -0.68057,4.16346 -0.12516,-4.17327 c -0.0944,-3.14908 0.51019,-4.92837 2.46372,-7.25 1.4239,-1.6922 3.23673,-3.07673 4.02852,-3.07673 0.79179,0 4.18603,-1.38638 7.54274,-3.08084 l 6.10311,-3.08085 -2.88163,-1.75709 c -4.10452,-2.50277 -5.78972,-4.71098 -4.29851,-5.63259 0.66555,-0.41133 1.58229,-0.011 2.10218,0.91801 0.50708,0.90608 2.69782,2.55341 4.86833,3.66072 2.1705,1.10731 3.94637,2.34458 3.94637,2.74949 0,0.98216 7.3118,3.22315 10.51637,3.22315 7.51912,0 13.11932,5.62313 12.07907,12.12851 -0.34049,2.12932 -0.21624,3.87149 0.27611,3.87149 0.49235,0 1.17722,0.7875 1.52192,1.75 0.34471,0.9625 1.73368,3.55 3.0866,5.75 4.79462,7.79659 4.08356,16.02727 -1.90169,22.01253 -1.39241,1.39241 -3.00043,3.40757 -3.57337,4.47812 -1.20979,2.2605 -12.88959,8.37916 -21.34049,11.17957 -5.57206,1.84644 -6.0686,1.8577 -11,0.24944 -2.84048,-0.92636 -5.72702,-2.12985 -6.41452,-2.67442 -0.98925,-0.78359 -1.25,2.37095 -1.25,15.12232 l 0,16.1124 -9.05803,4.5492 c -9.01918,4.5297 -9.05671,4.5643 -8.75,8.0587 0.23176,2.6405 1.0591,3.983 3.34115,5.4217 l 3.03311,1.9122 22.46689,-10.5482 c 12.35678,-5.8015 22.74556,-10.8464 23.08617,-11.2109 0.34061,-0.3645 0.41602,-2.2462 0.16757,-4.1816 -0.33688,-2.6243 -1.30366,-4.0774 -3.80284,-5.7156 l -3.35112,-2.1967 -7.56645,3.4959 -7.56645,3.4959 -0.0304,4.2197 c -0.0248,3.4411 -0.22466,3.8858 -1.08304,2.4101 -0.99778,-1.7152 -0.42061,-21.48963 0.65874,-22.56898 0.25009,-0.25009 0.45471,2.77029 0.45471,6.71198 0,3.9416 0.23488,7.1666 0.52196,7.1666 0.28707,0 3.49932,-1.35 7.13831,-3 7.73363,-3.5066 8.19438,-3.5534 12.28664,-1.25 3.4084,1.9186 4.36992,4.2272 3.87677,9.3082 -0.32127,3.31 -0.49473,3.4149 -23.32368,14.1014 -12.65,5.9216 -23.45,10.7756 -24,10.7867 -0.55,0.011 -2.40487,-0.8801 -4.12194,-1.9802 z m 23.95326,-59.43863 c -6.2959,-2.42376 -11.71341,-5.47871 -10.99309,-6.19903 0.22036,-0.22035 4.0198,1.1906 8.44321,3.13546 4.42341,1.94486 9.68372,3.53611 11.68958,3.53611 2.1767,0 3.39785,0.40316 3.02898,1 -1.00151,1.62048 -5.57054,1.06757 -12.16868,-1.47254 z m -40.46911,-18.14584 c -2.94921,-1.99011 -5.91707,-4.31566 -6.59522,-5.1679 -1.46906,-1.84615 -0.7938,-9.29431 1.19053,-13.13157 1.66375,-3.21735 13.30805,-17.27365 15.26237,-18.42381 3.33455,-1.96248 2.17546,0.62229 -2.48765,5.54741 -8.32611,8.79395 -9.81973,11.03667 -11.56146,17.35985 -2.03319,7.38131 -2.06659,8.4344 -0.26753,8.4344 1.36492,0 11.73141,8.88108 10.45896,8.96029 -0.35078,0.0218 -3.05078,-1.58856 -6,-3.57867 z m -42.77795,1.49411 c -0.0463,-0.34335 0.59074,-2.53743 1.41574,-4.87573 2.43172,-6.89223 1.97002,-18.88301 -1.00941,-26.21543 -1.38017,-3.39664 -3.48362,-7.2127 -4.67431,-8.48013 -1.1907,-1.26744 -1.66711,-2.30444 -1.05869,-2.30444 0.60842,0 2.07425,1.35947 3.2574,3.02106 6.20954,8.72048 8.3259,26.17474 4.24127,34.97894 -1.14826,2.475 -2.12566,4.21908 -2.172,3.87573 z m 83.91574,-5.96072 c -0.825,-1.87826 -2.5125,-3.85922 -3.75,-4.40214 -2.52161,-1.10629 -2.99118,-2.51287 -0.83889,-2.51287 0.7761,0 2.54547,1.34812 3.93193,2.99583 l 2.52082,2.99583 2.31807,-4.65248 c 1.27494,-2.55887 3.13899,-4.86821 4.14233,-5.13188 1.39381,-0.36628 1.6827,-1.09619 1.22431,-3.09335 l -0.59995,-2.61395 2.00345,2.5 c 2.16403,2.70036 2.68826,4.51378 1.00395,3.47282 -1.90758,-1.17895 -5.85651,2.46302 -7.07296,6.52314 -0.6598,2.20222 -1.54541,4.00404 -1.96802,4.00404 -0.42262,0 -0.91389,0.74925 -1.09172,1.66501 -0.21724,1.11874 -0.81545,0.54458 -1.82332,-1.75 z m -116.36163,-3.41501 c -0.31658,-0.825 -0.33192,-2.13501 -0.0341,-2.91113 0.44093,-1.14902 -0.16334,-1.25216 -3.25331,-0.55526 -2.08714,0.47073 -3.95848,0.6922 -4.15853,0.49215 -0.89822,-0.89822 4.05057,-2.5188 8.16722,-2.67451 2.49349,-0.0943 4.48733,-0.43693 4.43077,-0.76137 -0.0566,-0.32443 0.42707,-1.71488 1.07475,-3.08988 l 1.17759,-2.5 -0.3827,2.75 c -0.44511,3.19841 -0.44012,3.20017 3.68882,1.29927 1.73312,-0.79789 5.54036,-2.33982 8.46054,-3.4265 l 5.30941,-1.97577 0.84128,2.1765 c 1.21833,3.15194 -0.10583,4.08748 -12.22364,8.63617 -12.16785,4.56747 -12.30965,4.59498 -13.09809,2.54033 z m 17.73682,-5.83717 c 5.28895,-1.93701 7.7081,-3.91287 6.39654,-5.22443 -0.26144,-0.26144 -4.64606,1.13538 -9.74359,3.10405 -5.09753,1.96867 -9.86973,3.34858 -10.60488,3.06648 -1.06588,-0.40902 -1.11449,-0.0254 -0.23997,1.89401 1.07043,2.34933 1.18305,2.36989 4.70669,0.85926 1.98551,-0.85121 6.25385,-2.51593 9.48521,-3.69937 z m 79.13001,5.32078 c 0.52553,-1.65578 -0.13307,-2.36721 -3.68261,-3.97804 -5.39113,-2.44656 -6.50835,-2.46001 -11.07216,-0.13325 -3.74586,1.90975 -4.75043,1.80241 -4.75043,-0.5076 0,-0.71607 0.5974,-1.07271 1.32755,-0.79252 0.73015,0.28018 2.41765,0.095 3.75,-0.41159 1.33235,-0.50655 2.75919,-0.86242 3.17076,-0.79081 0.41157,0.0716 2.37278,-3.2184 4.35824,-7.31113 1.98546,-4.09273 4.61746,-9.04273 5.8489,-11 1.23143,-1.95727 2.65393,-5.32407 3.16109,-7.48178 0.50717,-2.15771 1.45308,-4.1001 2.10203,-4.31641 0.88641,-0.29547 0.91987,0.43165 0.1345,2.92311 -2.22113,7.04622 -2.19102,7.25037 1.26134,8.5535 1.78954,0.67547 2.98442,1.49741 2.65529,1.82654 -0.32912,0.32913 -1.50736,0.11195 -2.61831,-0.48261 -3.96447,-2.12172 -5.16592,-1.26186 -8.61973,6.16898 -5.11026,10.99465 -5.15339,11.37565 -1.37334,12.13166 1.76575,0.35315 3.9828,1.34106 4.92679,2.19536 1.13936,1.03111 1.93763,1.1952 2.37463,0.48812 0.36206,-0.58583 1.98174,-1.06514 3.59928,-1.06514 3.08833,0 3.85895,-1.68203 1.74098,-3.8 -0.78182,-0.78182 -0.82449,-1.2 -0.12244,-1.2 1.42877,0 2.90279,1.96652 3.59725,4.79918 0.42643,1.73939 0.15726,2.25916 -1.10557,2.13484 -4.29511,-0.42284 -7.16924,0.16207 -7.16924,1.45899 0,0.76616 -0.7118,1.66616 -1.58179,2 -2.40351,0.92232 -2.60577,0.7733 -1.91301,-1.4094 z m -35.85473,-7.04391 c -1.44059,-1.13317 -5.43877,-3.03563 -8.88486,-4.22771 -4.27537,-1.47893 -5.57846,-2.27237 -4.10235,-2.49788 1.18979,-0.18176 4.88945,1.04571 8.22148,2.72771 3.33202,1.682 6.74606,3.05818 7.58674,3.05818 0.84069,0 1.52852,0.675 1.52852,1.5 0,2.04381 -1.24241,1.88376 -4.34953,-0.5603 z m -48.37811,-6.9397 c 0,-2.475 0.19502,-3.4875 0.43337,-2.25 0.23836,1.2375 0.23836,3.2625 0,4.5 -0.23835,1.2375 -0.43337,0.225 -0.43337,-2.25 z m 3.72764,2 c 0,-0.55 0.45,-1 1,-1 0.55,0 1,0.45 1,1 0,0.55 -0.45,1 -1,1 -0.55,0 -1,-0.45 -1,-1 z m -10.82715,-6.3653 c -0.64507,-3.50091 -1.10102,-10.36341 -1.01324,-15.25 l 0.15962,-8.8847 0.72635,10.5 c 0.39949,5.775 1.06383,12.6375 1.47631,15.25 1.11684,7.07375 0.007,5.74505 -1.34904,-1.6153 z m 3.81726,1.32857 c -1.46134,-5.42701 -1.53516,-16.19049 -0.12758,-18.6025 0.81892,-1.40329 0.94617,-0.0169 0.5176,5.63923 -0.31257,4.125 -0.10126,9.5128 0.46957,11.97289 1.33567,5.75633 0.63968,6.55823 -0.85959,0.99038 z m 89.27892,-2.65626 c 0.97297,-0.25354 2.32297,-0.23687 3,0.037 0.67703,0.27393 -0.11903,0.48137 -1.76903,0.46099 -1.65,-0.0204 -2.20394,-0.2445 -1.23097,-0.49804 z m 8.36084,-6.20634 c 0.46924,-2.3462 0.18001,-3.02624 -1.51606,-3.56455 -1.15275,-0.36587 -2.54994,-0.38461 -3.10486,-0.0417 -0.55492,0.34296 -1.00895,0.18396 -1.00895,-0.35334 0,-0.5373 2.5875,-0.94665 5.75,-0.90966 3.1625,0.037 5.075,0.29251 4.25,0.56783 -2.01933,0.6739 -2.96627,2.2446 -2.98469,4.9507 -0.008,1.2375 -0.45406,2.25 -0.99031,2.25 -0.54248,0 -0.71776,-1.28618 -0.39513,-2.89933 z m -45.62987,-3.98566 c 0,-0.91525 4.38489,-4.11501 5.63913,-4.11501 0.39022,0 -0.34739,1.125 -1.63913,2.5 -2.39771,2.55224 -4,3.19917 -4,1.61501 z m 61.33126,-5.68747 c 0.0928,-3.26015 0.57356,-6.2207 1.06834,-6.57901 0.49477,-0.35831 0.0116,-2.15831 -1.07374,-4 -1.87402,-3.18002 -2.22123,-3.33074 -6.89959,-2.99498 -2.70945,0.19445 -5.82627,0.78236 -6.92627,1.30646 -1.63451,0.77878 -1.57168,0.57962 0.34384,-1.08983 1.92609,-1.67865 3.44107,-1.98587 8.5,-1.72366 5.51711,0.28596 7.76517,-0.29946 21.65616,-5.63947 8.525,-3.2772 18.32267,-7.00669 21.7726,-8.28775 3.44993,-1.28106 6.69924,-2.59288 7.22068,-2.91515 1.22384,-0.75637 2.54214,4.3963 1.3835,5.40747 -1.5906,1.38816 -30.37174,12.25673 -31.4794,11.88751 -0.953,-0.31767 10.94248,-5.23192 25.47571,-10.52449 4.54366,-1.65467 6.63687,-3.59801 5.30745,-4.92743 -0.95603,-0.95603 -45.67862,17.06121 -45.67961,18.40279 -10e-4,1.62742 1.87938,1.53337 4.99907,-0.25 4.55065,-2.60139 5.28141,-1.55297 1.21978,1.75 -3.40655,2.77025 -4.09295,3.98934 -4.64993,8.25861 -0.99598,7.63417 -2.43644,8.86893 -2.23859,1.91893 z m -71.82571,1.56633 c 0.99854,-1.10337 2.03241,-1.78925 2.29749,-1.52417 0.67193,0.67194 -1.82222,3.5303 -3.08047,3.5303 -0.5679,0 -0.21556,-0.90276 0.78298,-2.00613 z m 59.99445,-0.71779 c -1.1,-0.27055 -2.77923,-1.31565 -3.73161,-2.32244 -1.64565,-1.73966 -1.63323,-1.86176 0.25,-2.45948 1.27699,-0.4053 1.98161,-1.5149 1.98161,-3.12056 0,-1.47137 0.42613,-2.22827 1.04068,-1.84846 0.92062,0.56897 0.71759,2.22291 -0.75436,6.14529 -0.24158,0.64374 0.57243,1.31874 1.8089,1.5 1.23647,0.18126 2.43337,0.89207 2.65979,1.57957 0.42701,1.29661 0.0956,1.35018 -3.25501,0.52608 z m -78.5,-1.08899 c 0,-0.4471 1.39401,-2.1346 3.0978,-3.75 l 3.09779,-2.93709 -2.34779,3.70767 c -2.22473,3.51332 -3.8478,4.77009 -3.8478,2.97942 z m 54,-0.18709 c -0.79314,-0.49019 -1.21708,-1.11625 -0.94208,-1.39125 0.275,-0.275 1.14894,-0.0989 1.94208,0.39125 0.79314,0.49019 1.21708,1.11625 0.94208,1.39125 -0.275,0.275 -1.14894,0.0989 -1.94208,-0.39125 z m -31,-3.72889 c -0.825,-0.31405 -1.725,-0.90608 -2,-1.31562 -0.275,-0.40954 -2.525,-1.22963 -5,-1.82241 l -4.5,-1.07778 4.95535,0.37266 c 4.52104,0.34 5.19889,0.0965 7.73403,-2.77765 1.52827,-1.73267 2.78586,-2.65755 2.79465,-2.0553 0.009,0.60226 -0.83521,1.86533 -1.87555,2.80682 -1.16966,1.05852 -1.68837,2.48866 -1.3592,3.74742 0.47086,1.80056 1.06454,1.96244 5.14152,1.40193 3.29791,-0.45341 4.18246,-0.34181 3.1092,0.39225 -1.59873,1.09347 -6.51779,1.27257 -9,0.32768 z m 43.25,-1.43258 c 0.1375,-0.63882 -0.87046,-1.44553 -2.23992,-1.79271 -1.70038,-0.43107 -2.09391,-0.87597 -1.24105,-1.40307 1.49949,-0.92674 5.23097,0.10311 5.23097,1.44369 0,0.52342 1.2375,0.69242 2.75,0.37555 l 2.75,-0.5761 -2.5,1.52162 c -3.00779,1.83069 -5.09198,2.01981 -4.75,0.43102 z m 68.89373,-1.37104 c -3.11727,-2.62302 -5.1677,-5.77015 -7.14115,-10.9607 -1.47238,-3.87266 -0.44268,-2.96886 1.98606,1.74321 1.20481,2.3375 3.38775,5.53039 4.85096,7.0953 2.41168,2.57929 3.11438,2.79288 7.51628,2.28457 5.96009,-0.68823 7.3276,-1.7683 10.29349,-8.12987 1.2821,-2.75 2.33549,-4.19457 2.34086,-3.21016 0.013,2.37897 -3.31073,8.79257 -5.63382,10.87129 -1.02103,0.91363 -3.91307,1.9651 -6.42676,2.33661 -4.03653,0.59657 -4.94594,0.35944 -7.78592,-2.03025 z m -143.84524,-0.87165 c -1.76084,-0.64104 -3.56084,-1.55066 -4,-2.02136 -1.36497,-1.46299 5.11562,0.47301 6.6658,1.99132 1.65186,1.61792 1.69448,1.61744 -2.6658,0.03 z m -18.6758,-2.38249 c -0.53122,-1.55588 -0.1671,-3.47337 1.13937,-6 1.69277,-3.2737 2.38291,-3.72843 5.82902,-3.8407 3.11924,-0.10162 3.2674,-0.0394 0.73339,0.3078 -4.01817,0.55063 -5.55672,2.41532 -6.31703,7.6561 -0.5218,3.59673 -0.71029,3.85219 -1.38475,1.8768 z m 67.70386,0.23344 c -1.7454,-0.76453 -3.45946,-1.85282 -3.80902,-2.41842 -0.34956,-0.5656 -2.07151,-1.08965 -3.82655,-1.16455 -2.35242,-0.1004 -2.5997,-0.25007 -0.94098,-0.56955 3.14086,-0.60496 2.82573,-1.67249 -1.5,-5.08147 -5.4514,-4.29609 -13.61607,-8.31808 -18.10909,-8.92073 -4.91481,-0.65921 -8.1341,2.08767 -8.15456,6.95793 -0.008,1.7875 -0.27966,4.24209 -0.60478,5.45465 -0.47324,1.76501 -0.0799,2.33297 1.97264,2.84812 2.26036,0.56731 5.84735,3.44723 4.29358,3.44723 -0.59487,0 -17.69853,-8.93366 -18.64574,-9.73913 -0.27387,-0.23289 0.85113,-0.10142 2.5,0.29216 1.64887,0.39357 3.70838,1.33015 4.57669,2.08128 2.90112,2.50962 3.92126,1.58301 3.92126,-3.56173 0,-4.18079 0.4167,-5.25739 2.75,-7.10506 3.94133,-3.12101 11.57257,-2.22567 18.92547,2.22045 4.16052,2.51576 17.25542,12.63652 21.2412,16.41684 0.82863,0.78592 -1.48438,0.20238 -4.59012,-1.15802 z m 105.1441,-1.03274 c 5.29107,-12.49469 3.81933,-27.46616 -3.6107,-36.73033 -1.6834,-2.09895 -2.8424,-4.03461 -2.57555,-4.30145 0.95213,-0.95214 6.68791,7.08629 8.24981,11.56172 2.52711,7.24115 2.99388,17.72762 1.08184,24.30481 -0.90328,3.10717 -2.16289,5.97113 -2.79913,6.36435 -0.81333,0.50267 -0.91614,0.14664 -0.34627,-1.1991 z m -168.09723,-2.20925 c 0.91515,-1.48073 4.81227,-2.26467 4.35536,-0.87611 -0.21199,0.64422 -1.41263,1.32165 -2.6681,1.50541 -1.28106,0.1875 -2.02141,-0.0886 -1.68726,-0.6293 z m 34.43908,0.11209 c 0.72187,-0.28887 1.58438,-0.25335 1.91667,0.079 0.33229,0.33229 -0.25834,0.56864 -1.3125,0.52522 -1.16495,-0.048 -1.4019,-0.28494 -0.60417,-0.60417 z m -4,-1 c 0.72187,-0.28887 1.58438,-0.25335 1.91667,0.079 0.33229,0.33229 -0.25834,0.56864 -1.3125,0.52522 -1.16495,-0.048 -1.4019,-0.28494 -0.60417,-0.60417 z m 2.4375,-5.03314 c 1.5125,-0.22913 3.9875,-0.22913 5.5,0 1.5125,0.22912 0.275,0.41659 -2.75,0.41659 -3.025,0 -4.2625,-0.18747 -2.75,-0.41659 z m 145.03601,-8.78375 c 0.008,-2.75 0.20172,-3.75631 0.43157,-2.23625 0.22986,1.52006 0.22371,3.77006 -0.0136,5 -0.23741,1.22994 -0.42547,-0.0137 -0.41797,-2.76375 z m -29.56409,-3.78229 c -0.79271,-2.06575 1.0258,-11.54285 2.97874,-15.52363 2.27241,-4.63198 7.53338,-8.19408 12.10206,-8.19408 2.77739,0 4.28105,0.81375 7.22801,3.91164 3.51426,3.69426 6.96927,11.25835 6.96927,15.25791 0,1.68064 0.48972,1.62893 6.6954,-0.70688 7.66912,-2.88665 8.03409,-3.13318 6.66498,-4.50229 -0.67504,-0.67504 -2.13436,-0.5444 -4.43333,0.39688 -1.88488,0.77174 -4.55205,1.70355 -5.92705,2.0707 -4.04068,1.07892 -0.10094,-1.07791 5.34838,-2.928 5.05478,-1.71614 6.65162,-1.38626 6.65162,1.37413 0,1.26081 -1.90363,2.44274 -6.75,4.19098 -3.7125,1.33921 -7.13822,2.43493 -7.6127,2.43493 -0.47449,0 -1.66651,-2.5979 -2.64893,-5.7731 -3.4857,-11.26578 -10.11743,-16.37112 -17.3437,-13.35179 -5.09163,2.12742 -8.47619,9.36264 -8.82946,18.87489 -0.15023,4.04516 -0.33121,4.45366 -1.09329,2.46771 z"
       id="path3495"
       inkscape:connector-curvature="0" />
  </g>
</svg>
