<?xml version="1.0" encoding="UTF-8" standalone="no"?>
<!-- Created with Inkscape (http://www.inkscape.org/) -->

<svg
   xmlns:dc="http://purl.org/dc/elements/1.1/"
   xmlns:cc="http://creativecommons.org/ns#"
   xmlns:rdf="http://www.w3.org/1999/02/22-rdf-syntax-ns#"
   xmlns:svg="http://www.w3.org/2000/svg"
   xmlns="http://www.w3.org/2000/svg"
   xmlns:sodipodi="http://sodipodi.sourceforge.net/DTD/sodipodi-0.dtd"
   xmlns:inkscape="http://www.inkscape.org/namespaces/inkscape"
   width="258.10535"
   height="224.62752"
   id="svg2"
   version="1.1"
   inkscape:version="0.48.3.1 r9886"
   sodipodi:docname="Jm-press-1.svg">
  <defs
     id="defs4" />
  <sodipodi:namedview
     id="base"
     pagecolor="#ffffff"
     bordercolor="#666666"
     borderopacity="1.0"
     inkscape:pageopacity="0.0"
     inkscape:pageshadow="2"
     inkscape:zoom="2.8"
     inkscape:cx="137.09788"
     inkscape:cy="79.986837"
     inkscape:document-units="px"
     inkscape:current-layer="layer1"
     showgrid="false"
     fit-margin-top="0"
     fit-margin-left="0"
     fit-margin-right="0"
     fit-margin-bottom="0"
     inkscape:window-width="1855"
     inkscape:window-height="1056"
     inkscape:window-x="65"
     inkscape:window-y="24"
     inkscape:window-maximized="1" />
  <metadata
     id="metadata7">
    <rdf:RDF>
      <cc:Work
         rdf:about="">
        <dc:format>image/svg+xml</dc:format>
        <dc:type
           rdf:resource="http://purl.org/dc/dcmitype/StillImage" />
        <dc:title></dc:title>
      </cc:Work>
    </rdf:RDF>
  </metadata>
  <g
     inkscape:label="Ebene 1"
     inkscape:groupmode="layer"
     id="layer1"
     transform="translate(-722.88707,-675.84433)">
    <path
       style="fill:#000000"
       d=""
       id="path3414"
       inkscape:connector-curvature="0" />
    <path
       style="fill:#000000"
       d=""
       id="path3412"
       inkscape:connector-curvature="0" />
    <path
       style="fill:#000000"
       d="m 823.17049,886.78023 c -2.25056,-1.442 -3.28676,-3.016 -3.71247,-5.6394 -0.3248,-2.0015 -0.34797,-4.0316 -0.0515,-4.5113 0.29648,-0.4797 4.52117,-2.8722 9.38819,-5.3165 l 8.84912,-4.4443 -0.50675,-15.27731 c -0.27871,-8.4025 -0.66884,-15.80769 -0.86696,-16.45597 -0.3211,-1.05068 -11.9285,-9.3213 -13.08198,-9.3213 -0.25456,0 -5.00729,-2.7451 -10.56163,-6.10021 -8.34532,-5.04102 -10.46649,-5.93032 -12.21645,-5.12171 -1.16471,0.53818 -11.48758,5.34662 -22.93972,10.68541 l -20.82206,9.70689 -3.92792,-2.59938 c -3.47606,-2.30034 -3.92793,-3.05675 -3.92793,-6.57515 l 0,-3.97578 9,-4.52007 9,-4.52007 -0.0115,-11.23997 -0.0115,-11.23996 -4.23853,-1.98914 c -2.33119,-1.09402 -5.79323,-3.42609 -7.69342,-5.18238 -1.9002,-1.75628 -3.8127,-2.97211 -4.25,-2.70185 -0.43731,0.27027 -0.802,2.82735 -0.81042,5.68239 -0.008,2.85504 -0.4952,5.86598 -1.08172,6.69098 -0.77447,1.08936 -0.91005,-0.62885 -0.49523,-6.27624 0.55815,-7.59869 0.51323,-7.80265 -1.96772,-8.93305 -2.11898,-0.96547 -2.48939,-1.73375 -2.23947,-4.64493 0.23197,-2.70206 0.99498,-3.87509 3.38578,-5.2052 l 3.08633,-1.71707 5.23615,4.08 c 6.55141,5.10485 8.25834,3.77007 4.05925,-3.17425 -1.53957,-2.54609 -3.08436,-5.75426 -3.43287,-7.12926 -0.34851,-1.375 0.851,0.16704 2.66558,3.42676 4.44508,7.98516 7.30041,10.00226 12.83517,9.06717 7.06141,-1.19302 10.2785,-6.17847 11.62535,-18.01554 0.69301,-6.09068 -1.6738,-16.11765 -5.24147,-22.20542 -3.31998,-5.66512 -8.62939,-8.44854 -13.13761,-6.88731 -4.48476,1.5531 -6.24196,3.60424 -8.37221,9.7727 -1.01459,2.9379 -1.855,4.44164 -1.86759,3.34164 -0.0126,-1.1 1.04988,-4.30389 2.36101,-7.11976 2.05307,-4.40927 2.98844,-5.32288 6.74024,-6.58339 5.7556,-1.93374 10.01277,-0.76938 13.39372,3.66327 2.91035,3.81567 6.46262,12.43058 6.46262,15.67305 0,1.54781 0.3338,1.8488 1.25,1.12715 0.6875,-0.54151 5.525,-2.36983 10.75,-4.06292 5.225,-1.6931 13.74256,-4.45009 18.9279,-6.12665 8.15487,-2.63668 11.53084,-3.19577 9.98877,-1.65423 -0.22917,0.22909 -5.81667,2.00709 -12.41667,3.95111 -6.6,1.94403 -13.65435,4.11909 -15.67633,4.83348 l -3.67633,1.29889 6.67633,5.56954 c 3.67198,3.06325 7.92787,6.38671 9.45754,7.38546 1.52966,0.99875 2.59939,1.99773 2.37718,2.21994 -0.45986,0.45986 -9.66253,-4.28482 -11.10839,-5.72722 -0.5225,-0.52124 -2.3225,-1.009 -4,-1.0839 -2.35632,-0.10521 -2.53827,-0.23475 -0.8,-0.56955 2.96569,-0.57122 2.83913,-1.43875 -0.66542,-4.56133 -2.64558,-2.35722 -3.24721,-2.49583 -6.5,-1.49752 -3.56227,1.0933 -3.58458,1.13545 -3.58458,6.77343 0,3.12031 -0.67013,7.88231 -1.48918,10.58222 -1.84757,6.09037 -1.84922,6.23859 -0.0426,3.85006 0.80751,-1.06762 1.48251,-1.43373 1.5,-0.81357 0.0383,1.35913 -2.43839,3.56891 -3.17474,2.83256 -0.2874,-0.2874 -1.24279,0.57672 -2.12311,1.92025 -2.28564,3.48832 -9.93369,5.05177 -14.12148,2.88677 -2.35839,-1.21924 -2.78619,-1.25812 -1.88901,-0.17167 0.63792,0.77249 1.55739,2.94427 2.04326,4.82617 0.81032,3.13854 1.50034,3.64358 8.34015,6.10427 4.10121,1.47546 10.2564,4.09822 13.67822,5.82837 4.08321,2.06456 7.68847,3.14572 10.48978,3.14572 l 4.2683,0 -2.74443,-2.54479 c -2.42979,-2.25302 -2.67086,-3.02692 -2.10268,-6.75 0.35296,-2.31286 1.04353,-4.98831 1.5346,-5.94543 1.10783,-2.15922 10.62088,-9.30153 13.33295,-10.01024 1.1,-0.28745 2.7875,-0.84683 3.75,-1.24307 0.9625,-0.39625 1.75,-0.32793 1.75,0.15182 0,0.47975 -2.1375,1.63226 -4.75,2.56113 -6.5337,2.32306 -12.84248,8.97145 -13.7292,14.46826 -0.64666,4.00868 -0.51073,4.3079 3.18013,7 2.12062,1.54678 6.31793,5.56942 9.32737,8.9392 3.00943,3.36978 6.43456,6.4034 7.6114,6.74137 2.0455,0.58743 3.9265,3.39888 2.93644,4.38895 -0.77947,0.77947 -7.52542,-3.79391 -8.62397,-5.84658 -0.5624,-1.05084 -1.68535,-1.91062 -2.49545,-1.91062 -0.8101,0 -2.19244,-1.79827 -3.07186,-3.99616 l -1.59894,-3.99615 -5.39089,0.63359 c -4.70949,0.55351 -5.86514,0.31406 -9.14296,-1.89443 -2.06364,-1.39041 -7.35207,-3.7348 -11.75207,-5.20975 -12.066,-4.04472 -16.94671,-6.66185 -17.31955,-9.2871 -0.17575,-1.2375 -0.8353,-2.25 -1.46565,-2.25 -0.63036,0 -3.31151,-2.13285 -5.95812,-4.73966 -4.71134,-4.6405 -4.86897,-4.7078 -7.53435,-3.21658 -1.49728,0.83769 -2.85741,2.45399 -3.0225,3.59177 -0.28125,1.9383 0.62537,2.84154 6.87804,6.85234 0.86783,0.55667 4.97794,3.26213 9.13356,6.01213 4.15563,2.75 11.77059,7.60976 16.92213,10.79947 5.15154,3.18971 13.19144,8.17198 17.86644,11.07172 4.675,2.89974 13.27483,7.81835 19.11073,10.93025 5.8359,3.1119 11.1785,6.34213 11.87244,7.17828 0.69395,0.83615 1.72755,1.52028 2.2969,1.52028 0.56935,0 3.32675,1.72819 6.12756,3.84043 11.18397,8.43444 13.98963,9.31926 21.96939,6.92847 5.17834,-1.55147 18.86568,-8.8986 19.34146,-10.38217 0.20666,-0.64439 -1.41236,-1.35059 -3.84415,-1.67676 -4.7204,-0.63314 -8.78388,-3.23669 -10.57625,-6.77642 -0.66106,-1.3055 -2.01106,-2.665 -3,-3.0211 -2.73071,-0.98326 -13.42985,0.17307 -16.6443,1.79887 -3.46852,1.7543 -10.40808,1.00971 -12.61872,-1.35395 -1.39625,-1.4929 -1.35421,-1.56788 0.46494,-0.82925 3.60842,1.46514 10.24141,1.68064 12.61586,0.40987 2.37629,-1.27175 6.07146,-1.86793 13.63055,-2.19917 3.57237,-0.15654 4.15692,-0.46805 3.68261,-1.96245 -0.87144,-2.74569 0.95397,-2.1022 3.39232,1.19585 1.52534,2.06313 1.73579,2.79507 0.68806,2.39301 -3.75419,-1.44061 0.50396,4.85509 5.12974,7.58437 5.15019,3.03868 8.16838,2.63422 12.68285,-1.6996 l 3.90631,-3.75 -1.61413,3.2003 c -0.88777,1.76016 -2.22344,3.56016 -2.96816,4 -0.74472,0.43983 -1.87591,1.79415 -2.51374,3.00959 -1.31168,2.49949 -13.85162,9.11665 -22.13227,11.6789 -5.31076,1.64329 -5.70323,1.63147 -11.40655,-0.34347 -3.2486,-1.12493 -6.0611,-2.04532 -6.25,-2.04532 -0.1889,0 -0.34345,6.97048 -0.34345,15.48996 l 0,15.48992 -9.05803,4.5493 c -9.01918,4.5297 -9.05671,4.5642 -8.75,8.0587 0.23176,2.6404 1.0591,3.983 3.34115,5.4217 l 3.03311,1.9122 22.46689,-10.5482 c 12.35678,-5.8016 22.74556,-10.8465 23.08617,-11.2109 0.34061,-0.3645 0.40581,-2.3336 0.14489,-4.3759 -0.37144,-2.90733 -1.20479,-4.1442 -3.8395,-5.69872 l -3.3651,-1.98545 -7.52979,3.47897 -7.52979,3.479 -0.0634,4.2197 c -0.0575,3.8254 -0.15623,3.9869 -1.05708,1.7283 -0.92578,-2.3211 -0.35326,-20.86819 0.67594,-21.89738 0.24449,-0.24449 0.44453,2.78047 0.44453,6.72213 0,3.94167 0.23488,7.16667 0.52196,7.16667 0.28707,0 3.49932,-1.35 7.13831,-3 7.73363,-3.5066 8.19438,-3.55347 12.28664,-1.25 3.4084,1.91854 4.36992,4.22715 3.87677,9.30808 -0.32127,3.3101 -0.49473,3.4149 -23.32368,14.1015 -12.65,5.9216 -23.45,10.7756 -24,10.7866 -0.55,0.011 -2.40487,-0.88 -4.12194,-1.9801 z m -44.12806,-63.70884 c 11.4125,-5.36447 20.73688,-9.97939 20.72085,-10.2554 -0.016,-0.27601 -2.7534,-2.47987 -6.08303,-4.89746 l -6.05389,-4.39561 -3.54077,1.68848 c -1.94743,0.92866 -3.76821,1.46103 -4.04619,1.18305 -0.27798,-0.27798 0.67773,-1.0445 2.1238,-1.70337 1.44608,-0.65888 2.62923,-1.51657 2.62923,-1.90599 0,-0.38942 -3.88708,-3.25211 -8.63795,-6.36154 l -8.63794,-5.65351 0.70898,10.584 c 0.46524,6.94541 0.3483,11.01859 -0.34015,11.84813 -0.57702,0.69526 -4.54649,3.02988 -8.82103,5.18805 -4.27455,2.15816 -8.09069,4.37019 -8.4803,4.91562 -1.91502,2.68087 2.49506,9.42306 6.20839,9.49147 0.825,0.0152 10.8375,-4.36146 22.25,-9.72592 z m 68.08132,4.27022 c -6.2959,-2.42376 -11.71341,-5.47871 -10.99309,-6.19903 0.22036,-0.22035 4.0198,1.1906 8.44321,3.13546 4.42341,1.94486 9.68372,3.53611 11.68958,3.53611 2.1767,0 3.39785,0.40316 3.02898,1 -1.00151,1.62048 -5.57054,1.06757 -12.16868,-1.47254 z M 739.14228,813.22282 c -2.28259,-0.77897 -6.78259,-2.8941 -10,-4.70028 -4.46988,-2.50929 -5.89341,-3.86481 -6.0345,-5.74618 -0.10252,-1.36709 0.0378,-1.70216 0.31541,-0.75335 1.10992,3.79305 18.47189,11.36678 23.51696,10.25869 2.36823,-0.52015 2.87238,-1.16452 2.9707,-3.79701 0.15466,-4.14072 0.18417,-3.65871 -0.46955,-7.67054 -0.56551,-3.47048 -0.55865,-3.46627 0.81355,0.5 1.76509,5.10189 1.8899,9.97841 0.28758,11.23684 -2.30561,1.81079 -7.21491,2.1001 -11.40015,0.67183 z m 145.65015,-4.41957 c 0,-2.39111 -3.34849,-9.63019 -5.82465,-12.59228 -0.96699,-1.15675 -2.79057,-2.65571 -4.0524,-3.33102 -1.26183,-0.67531 -2.07252,-1.44956 -1.80153,-1.72056 0.271,-0.27099 1.88454,0.22702 3.58565,1.1067 l 3.09293,1.59942 0,-4.56552 c 0,-2.51103 -0.83817,-6.23509 -1.86259,-8.27568 -1.02443,-2.04059 -2.0953,-6.63516 -2.37971,-10.21016 -0.48055,-6.0403 -0.42273,-6.28783 0.81749,-3.5 0.73403,1.65 1.3549,4.63312 1.37971,6.62916 0.0248,1.99603 1.20307,6.1585 2.61838,9.24993 2.42819,5.30388 2.48605,5.79561 1.02621,8.72193 -1.47776,2.96224 -1.43071,3.25371 1.05028,6.50645 2.36651,3.10265 4.60063,12.39253 2.98028,12.39253 -0.34653,0 -0.63005,-0.9049 -0.63005,-2.0109 z m -35,-4.52234 c 0,-0.29329 1.13258,-2.76829 2.51685,-5.5 1.53575,-3.03067 3.18172,-4.96676 4.2225,-4.96676 1.39597,0 1.30744,0.27892 -0.48754,1.53618 -1.20626,0.8449 -2.72762,3.3199 -3.3808,5.5 -0.65317,2.1801 -1.56636,3.96382 -2.0293,3.96382 -0.46294,0 -0.84171,-0.23996 -0.84171,-0.53324 z m -105,-4.30009 c 0,-2.29167 0.42171,-4.16667 0.93713,-4.16667 0.51911,0 0.67901,1.67273 0.35846,3.75 -0.80127,5.19253 -1.29559,5.3515 -1.29559,0.41667 z m -7,1.83333 c 0,-0.55 0.70156,-1 1.55902,-1 0.85746,0 1.2809,0.45 0.94098,1 -0.33992,0.55 -1.04148,1 -1.55902,1 -0.51754,0 -0.94098,-0.45 -0.94098,-1 z m 81.625,-5.125 c -1.00254,-5.01272 -0.72997,-9.37951 0.81648,-13.08071 1.07075,-2.56265 1.32077,-6.22547 0.97211,-14.24153 -0.38219,-8.78682 -0.0927,-12.16475 1.55851,-18.18333 2.21977,-8.09113 2.57706,-12.912 1.0279,-13.86943 -0.55,-0.33992 -1,-1.04529 -1,-1.56749 0,-1.44309 3.94932,1.33244 4.53883,3.18983 0.28406,0.89501 -0.61522,5.17112 -1.99841,9.50248 -2.52631,7.91096 -3.4576,19.6903 -1.64528,20.81037 0.50628,0.3129 0.54156,2.18477 0.0812,4.30902 -0.44766,2.06568 -1.348,6.24182 -2.00076,9.28031 -0.65275,3.03848 -1.0268,8.1016 -0.8312,11.25136 0.38319,6.17077 -0.50215,7.68527 -1.51938,2.59912 z m -94.18387,0.57933 c 1.06762,-0.79988 3.2347,-1.45433 4.81574,-1.45433 3.7569,0 6.6653,-1.61538 7.63681,-4.24163 0.77792,-2.10293 0.7831,-2.10235 1.37286,0.15289 0.50267,1.92219 -0.0386,2.53399 -3.58727,4.05456 -2.2986,0.98492 -5.97927,2.04999 -8.17927,2.36681 -3.66656,0.52801 -3.83819,0.4548 -2.05887,-0.8783 z m 111.88108,0.29567 c -0.43771,-0.6875 -0.80176,-6.515 -0.80902,-12.94999 -0.009,-8.01107 -0.40731,-12.09412 -1.26319,-12.95001 -1.47487,-1.47487 -1.6297,-2.85 -0.3209,-2.85 1.4843,0 3.2647,10.54789 3.0086,17.82432 -0.20572,5.845 0.21112,8.5274 1.77551,11.42568 0.69528,1.28812 -1.55174,0.81823 -2.391,-0.5 z m 26.67779,0.47243 c 0,-0.611 1.16626,-2.3735 2.59169,-3.91667 l 2.59169,-2.80576 -2.26785,3.5 c -2.953,4.5574 -2.91553,4.51598 -2.91553,3.22243 z m 5.38,-7.67454 c -0.68937,-1.79649 0.42805,-3.78456 1.6891,-3.00518 1.26716,0.78314 1.18433,4.45729 -0.10048,4.45729 -0.56727,0 -1.28214,-0.65345 -1.58862,-1.45211 z m -132.20715,-7.91319 c -0.64507,-3.50091 -1.10102,-10.36341 -1.01324,-15.25 l 0.15962,-8.8847 0.72635,10.5 c 0.3995,5.775 1.06383,12.6375 1.47631,15.25 1.11684,7.07375 0.007,5.74505 -1.34904,-1.6153 z m 3.81726,1.32857 c -1.46134,-5.42701 -1.53516,-16.19049 -0.12758,-18.6025 0.81892,-1.40329 0.94617,-0.0168 0.5176,5.63923 -0.31257,4.125 -0.10126,9.5128 0.46957,11.97289 1.33567,5.75633 0.63968,6.55823 -0.85959,0.99038 z m 84.57255,0.91556 c 1.02664,-1.98529 1.49089,-4.86249 1.27568,-7.90596 -0.40605,-5.74235 0.6332,-5.67917 1.55646,0.0946 0.51615,3.22781 0.20437,4.845 -1.45021,7.52216 -2.63894,4.26989 -3.53769,4.45796 -1.38193,0.28918 z m -18.56266,-4.87883 c -0.79314,-0.49019 -1.21708,-1.11625 -0.94208,-1.39125 0.275,-0.275 1.14894,-0.0989 1.94208,0.39125 0.79314,0.49019 1.21708,1.11625 0.94208,1.39125 -0.275,0.275 -1.14894,0.0989 -1.94208,-0.39125 z m 54.27837,-2.12163 c -1.34164,-1.34164 -8.77313,-1.69672 -12.27837,-0.58665 l -2.5,0.79171 2.5,-1.50628 c 1.375,-0.82845 4.44282,-1.52223 6.81739,-1.54172 3.83252,-0.0315 4.25366,-0.26004 3.75,-2.03543 -0.31207,-1.1 -0.81781,-2.88455 -1.12388,-3.96565 -0.30606,-1.08112 -0.10139,-3.61388 0.45484,-5.62837 0.83289,-3.0165 0.66643,-4.33876 -0.94351,-7.49451 -1.47312,-2.88755 -1.95576,-5.8746 -1.95858,-12.12163 -0.004,-9.2279 -2.23889,-14.78984 -5.94242,-14.78984 -1.73209,0 -1.94957,-0.61613 -1.7647,-4.99959 0.11902,-2.82189 0.64644,-4.84399 1.21086,-4.64237 1.10727,0.39554 1.14632,2.05498 0.1238,5.26175 -0.56085,1.7589 -0.18755,2.21746 2.19271,2.69351 3.93813,0.78763 6.18349,6.8333 6.18349,16.64913 0,8.11738 1.61245,14.03757 3.82333,14.03757 0.99568,0 1.1266,0.37449 0.437,1.25 -1.9556,2.48284 -2.2396,6.73202 -0.81539,12.19991 0.79853,3.06576 1.72664,6.0187 2.06248,6.5621 0.83537,1.35165 -0.84447,1.25094 -2.22905,-0.13364 z m -71.86869,-1.53401 c 3.66978,-1.98715 8.59032,-3.42447 8.59032,-2.50927 0,0.70018 -9.02136,4.19946 -10.63421,4.12487 -0.47619,-0.022 0.44357,-0.74904 2.04389,-1.6156 z m 25.59032,0.63273 c 0,-0.57192 0.69441,-1.30633 1.54313,-1.63201 2.34537,-0.90001 2.62076,0.0715 0.41139,1.45125 -1.23707,0.77256 -1.95452,0.83892 -1.95452,0.18076 z m 23.84674,-2.68872 c -0.55627,-3.65273 0.34556,-4.2966 5.98505,-4.27306 3.85281,0.0161 7.01789,1.34153 5.47723,2.29371 -0.49748,0.30746 -1.55803,0.1456 -2.35677,-0.35969 -0.79874,-0.50529 -2.67688,-0.9256 -4.17366,-0.93402 -2.23231,-0.0126 -2.87609,0.56879 -3.58208,3.23469 l -0.86068,3.25 -0.48909,-3.21163 z m -25.34674,-2.28837 c -0.73784,-1.19384 1.22178,-1.19384 4,0 1.78583,0.7674 1.71184,0.86696 -0.69098,0.92971 -1.48004,0.0387 -2.9691,-0.37971 -3.30902,-0.92971 z m -20.5,-0.88499 c 0,-0.91525 4.38489,-4.11501 5.63913,-4.11501 0.39022,0 -0.34738,1.125 -1.63913,2.5 -2.39771,2.55224 -4,3.19917 -4,1.61501 z m -17.8508,-5.7194 c 2.97584,-6.72738 2.36295,-20.68135 -1.24791,-28.41183 -1.41712,-3.03392 -3.37822,-6.31785 -4.35799,-7.29762 -2.02231,-2.02232 -1.33112,-3.58488 0.80248,-1.81415 4.81866,3.99913 9.21898,22.01526 7.68232,31.45353 -0.9113,5.59723 -2.87683,10.67446 -4.13239,10.67446 -0.43079,0 0.13328,-2.07198 1.25349,-4.60439 z m -23.50045,-1.14561 c -2.5449,-2.0625 -4.16199,-3.90666 -3.59353,-4.09813 0.56845,-0.19147 2.02696,0.70853 3.24113,2 1.21417,1.29147 3.33169,3.11203 4.70561,4.04568 1.37392,0.93365 1.9976,1.72115 1.38595,1.75 -0.61164,0.0289 -3.19427,-1.63505 -5.73916,-3.69755 z m 84.28964,-2 c -0.10362,-2.8875 -0.24464,-6.64297 -0.31339,-8.34549 -0.0687,-1.70252 0.16066,-3.27204 0.50981,-3.48782 1.14721,-0.70902 2.00545,12.03608 0.98307,14.5989 -0.86186,2.16041 -1.01568,1.79975 -1.17949,-2.76559 z m -49.22996,-0.94733 c -1.30503,-0.33896 -1.61095,-1.03443 -1.12649,-2.56085 0.78336,-2.46814 5.41806,-7.71748 5.41806,-6.13659 0,0.59664 -0.85119,1.85511 -1.89152,2.7966 -1.16966,1.05852 -1.68837,2.48866 -1.3592,3.74742 0.47086,1.80056 1.06454,1.96244 5.14152,1.40193 3.29791,-0.45341 4.18246,-0.34181 3.1092,0.39225 -1.51787,1.03816 -6.00909,1.2118 -9.29157,0.35924 z m 85.57359,-1.42065 c -0.61489,-0.61489 -0.89009,-2.52739 -0.61155,-4.25 0.51927,-3.21139 -3.83426,-23.2101 -5.88048,-27.01302 -0.62709,-1.16545 -1.44444,-3.77092 -1.81634,-5.78994 -0.6599,-3.58253 -0.57741,-3.70781 3.42508,-5.20143 6.42756,-2.39858 10.93833,-3.05122 5.39191,-0.78012 -7.75843,3.17685 -8.21479,4.0382 -5.75294,10.85806 3.99834,11.07623 5.96738,19.30651 6.28733,26.28008 0.177,3.85789 0.26628,7.01435 0.19839,7.01435 -0.0679,0 -0.62651,-0.50309 -1.2414,-1.11798 z M 741.4308,758.31415 c -0.7049,-1.83696 0.21902,-4.5 1.56125,-4.5 1.97734,0 15.75444,-5.26532 15.37663,-5.87662 -0.214,-0.34627 1.59379,-0.70632 4.01732,-0.80012 4.1662,-0.16124 4.40643,-0.0228 4.40643,2.53861 0,2.55248 -0.63008,2.92396 -10.89529,6.42364 -12.15086,4.14255 -13.63905,4.37036 -14.46634,2.21449 z m 2.04474,-1.6875 c -0.31922,-0.79773 -0.55618,-0.56078 -0.60416,0.60417 -0.0434,1.05416 0.19293,1.64479 0.52522,1.3125 0.33229,-0.3323 0.36782,-1.1948 0.0789,-1.91667 z m 14.05469,-2.53336 c 6.10401,-2.05928 8.24096,-3.23243 8.25,-4.52914 0.007,-0.9625 -0.1376,-1.75 -0.32068,-1.75 -1.32037,0 -19.21957,6.71073 -19.41712,7.27982 -0.67891,1.95575 -0.0821,2.89708 1.5,2.36595 0.9625,-0.32311 5.45701,-1.8381 9.9878,-3.36663 z m 105.30116,1.5323 c -1.12143,-1.20371 -2.03896,-2.85371 -2.03896,-3.66667 0,-0.81296 0.1125,-1.28836 0.25,-1.05644 0.1375,0.23191 1.57169,1.88191 3.18709,3.66667 1.6154,1.78475 2.42043,3.245 1.78896,3.245 -0.63148,0 -2.06567,-0.98485 -3.18709,-2.18856 z M 736.41512,755.0275 c -0.53122,-1.55588 -0.1671,-3.47337 1.13937,-6 1.69277,-3.2737 2.38291,-3.72843 5.82902,-3.8407 3.11924,-0.10162 3.2674,-0.0394 0.73339,0.3078 -4.01817,0.55063 -5.55672,2.41532 -6.31703,7.65609 -0.52179,3.59673 -0.71028,3.8522 -1.38475,1.87681 z m 4.75073,-3.00855 c 0.91515,-1.48073 4.81227,-2.26467 4.35536,-0.87611 -0.21199,0.64422 -1.41263,1.32165 -2.6681,1.50541 -1.28107,0.1875 -2.02141,-0.0886 -1.68726,-0.6293 z m 12.89894,-7.2048 c 0,-2.475 0.19502,-3.4875 0.43337,-2.25 0.23836,1.2375 0.23836,3.2625 0,4.5 -0.23835,1.2375 -0.43337,0.225 -0.43337,-2.25 z m 81.3683,-0.21034 c -0.33734,-1.25931 -0.6195,-4.18633 -0.62701,-6.50448 -0.0104,-3.2001 0.46785,-4.4725 1.98635,-5.28518 1.1,-0.5887 2,-1.86454 2,-2.83518 0,-2.19104 1.89521,-4.17472 3.95,-4.13441 1.27593,0.025 1.24057,0.21063 -0.2,1.04969 -0.9625,0.5606 -1.75,1.82717 -1.75,2.8146 0,0.98743 -0.8318,2.54809 -1.84844,3.46814 -1.35854,1.22947 -1.86308,3.1444 -1.90368,7.22533 -0.061,6.12815 -0.66684,7.71198 -1.60722,4.20149 z m -51.64066,-5.33935 c 0,-1.15423 0.4263,-1.31112 1.67052,-0.61482 1.20481,0.67425 6.40955,-0.70664 18.66969,-4.95333 9.34954,-3.23851 17.03531,-5.99934 17.07948,-6.13518 1.13346,-3.4857 4.27384,-5.8307 9.58031,-7.15385 1.375,-0.34285 0.475,0.41641 -2,1.68724 -3.30817,1.69863 -4.44501,2.84876 -4.29237,4.34253 0.18335,1.79429 -2.03875,2.75685 -19,8.23033 -10.5642,3.40912 -19.77013,6.18678 -20.45763,6.17258 -0.6875,-0.0142 -1.25,-0.72317 -1.25,-1.5755 z m 124.36999,-16.60939 c -3.18768,-3.40249 -4.60394,-5.69587 -6.3444,-10.2736 -1.56136,-4.1067 -0.36685,-2.96969 2.1278,2.02536 1.26153,2.52597 3.75412,5.87495 5.53908,7.44217 2.73881,2.4047 3.8356,2.75876 7.02646,2.26822 5.77533,-0.88787 7.24314,-2.02477 9.85415,-7.63259 1.32406,-2.84376 2.41178,-4.36505 2.41715,-3.38064 0.012,2.20033 -3.34138,8.92678 -5.233,10.49668 -0.76392,0.634 -3.83431,1.43231 -6.82309,1.77403 -5.21174,0.59587 -5.56224,0.48457 -8.56415,-2.71963 z m -69.86999,-0.84092 c -0.33992,-0.55 -1.58148,-1 -2.75902,-1 -1.55629,0 -1.84076,-0.30022 -1.04164,-1.09934 1.37651,-1.37651 5.5814,-0.16392 4.65114,1.34127 -0.44298,0.71675 -0.0686,0.86387 1.07838,0.42374 0.96632,-0.37081 2.95264,-0.92296 4.41404,-1.22699 l 2.6571,-0.55279 -2.5,1.52162 c -2.90778,1.76981 -5.6196,2.01701 -6.5,0.59249 z m 81.01755,-1.5 c 5.32023,-13.93395 3.78055,-27.86505 -4.24217,-38.38338 -1.45603,-1.90896 -1.97019,-3.18301 -1.17885,-2.9211 2.27963,0.75448 6.71792,8.8494 8.36926,15.26458 2.55404,9.92196 1.62069,20.95038 -2.20332,26.03431 -1.50333,1.99864 -1.50591,1.99866 -0.74492,0.006 z m -71.34692,-5.0181 c 1.8788,-1.97001 11.30786,-3.14229 13.17506,-1.63801 0.75337,0.60695 9.31402,-1.8144 24.64626,-6.97111 12.92057,-4.34559 24.08963,-7.67172 24.82014,-7.39139 0.7305,0.28031 1.18412,1.47447 1.00805,2.65367 -0.26834,1.79707 -2.81818,3.01742 -15.75782,7.54165 -8.49072,2.96871 -16.10712,5.26842 -16.92533,5.11047 -0.81821,-0.15795 5.84201,-2.76218 14.80049,-5.78718 8.95847,-3.025 16.51796,-6.08191 16.79887,-6.79313 1.15453,-2.92319 2.33013,-3.24279 -34.15414,9.28545 -10.70347,3.67544 -14.3094,4.53464 -15.6134,3.72027 -1.84429,-1.15177 -9.26178,-0.53309 -12.46881,1.04001 -1.88,0.92217 -1.89976,0.87592 -0.32937,-0.7707 z m 81.10173,-11.4819 c 0,-2.475 0.19502,-3.4875 0.43337,-2.25 0.23836,1.2375 0.23836,3.2625 0,4.5 -0.23835,1.2375 -0.43337,0.225 -0.43337,-2.25 z m -29.7008,-5.88421 c -0.68803,-1.11326 1.2733,-11.92965 2.64939,-14.61089 1.28633,-2.50634 4.88513,-6.5049 5.85457,-6.5049 0.3998,0 -0.49477,1.30781 -1.98793,2.90623 -3.0322,3.24599 -4.87648,8.47274 -5.23766,14.84377 -0.25258,4.45523 -0.38674,4.80847 -1.27837,3.36579 z m 30.88784,-1.05009 c 0.24478,-0.39606 3.16655,-1.54412 6.49283,-2.55124 3.32627,-1.00711 6.04777,-2.18331 6.04777,-2.61377 0,-1.76726 -2.23667,-1.90789 -7.1479,-0.44941 -2.85573,0.84806 -5.36509,1.36907 -5.57636,1.15779 -0.54959,-0.54959 8.71921,-3.60907 10.93378,-3.60907 2.08331,0 3.52521,2.66529 2.17326,4.01717 -1.12885,1.12878 -13.51747,5.00979 -12.92338,4.04853 z m -2.84568,-3.51919 c -1.43844,-7.28431 -5.50478,-13.27734 -11.11372,-16.37953 -1.96711,-1.08797 -1.96491,-1.10666 0.13364,-1.13657 4.6158,-0.0658 13.34312,14.10138 12.13948,19.70617 -0.21068,0.98106 -0.72506,0.009 -1.1594,-2.19007 z m -16.80122,-17.22962 c 0.72187,-0.28887 1.58437,-0.25335 1.91667,0.0789 0.33229,0.3323 -0.25834,0.56864 -1.3125,0.52522 -1.16495,-0.048 -1.4019,-0.28494 -0.60417,-0.60416 z"
       id="path3497"
       inkscape:connector-curvature="0" />
  </g>
</svg>
