<?xml version="1.0" encoding="UTF-8" standalone="no"?>
<!-- Created with Inkscape (http://www.inkscape.org/) -->

<svg
   xmlns:dc="http://purl.org/dc/elements/1.1/"
   xmlns:cc="http://creativecommons.org/ns#"
   xmlns:rdf="http://www.w3.org/1999/02/22-rdf-syntax-ns#"
   xmlns:svg="http://www.w3.org/2000/svg"
   xmlns="http://www.w3.org/2000/svg"
   xmlns:xlink="http://www.w3.org/1999/xlink"
   xmlns:sodipodi="http://sodipodi.sourceforge.net/DTD/sodipodi-0.dtd"
   xmlns:inkscape="http://www.inkscape.org/namespaces/inkscape"
   width="120.72859"
   height="193.36653"
   id="svg2"
   version="1.1"
   inkscape:version="0.48.3.1 r9886"
   sodipodi:docname="Incline-triceps-extensions-2.svg">
  <defs
     id="defs4">
    <radialGradient
       gradientUnits="userSpaceOnUse"
       gradientTransform="matrix(1,0,0,0.91819829,-19.285714,-7.9105395)"
       r="209.56604"
       fy="287.50052"
       fx="398.1105"
       cy="287.50052"
       cx="398.1105"
       id="radialGradient5255"
       xlink:href="#linearGradient5249"
       inkscape:collect="always" />
    <linearGradient
       id="linearGradient5249"
       inkscape:collect="always">
      <stop
         id="stop5251"
         offset="0"
         style="stop-color:#e3e3e3;stop-opacity:1;" />
      <stop
         id="stop5253"
         offset="1"
         style="stop-color:#e3e3e3;stop-opacity:0;" />
    </linearGradient>
  </defs>
  <sodipodi:namedview
     id="base"
     pagecolor="#ffffff"
     bordercolor="#666666"
     borderopacity="1.0"
     inkscape:pageopacity="0.0"
     inkscape:pageshadow="2"
     inkscape:zoom="1.979899"
     inkscape:cx="-51.564059"
     inkscape:cy="61.743315"
     inkscape:document-units="px"
     inkscape:current-layer="layer1"
     showgrid="false"
     showguides="true"
     inkscape:guide-bbox="true"
     fit-margin-top="0"
     fit-margin-left="0"
     fit-margin-right="0"
     fit-margin-bottom="0"
     inkscape:window-width="1112"
     inkscape:window-height="691"
     inkscape:window-x="66"
     inkscape:window-y="327"
     inkscape:window-maximized="0">
    <sodipodi:guide
       orientation="-0.70710678,0.70710678"
       position="-2252.7985,471.53135"
       id="guide2985" />
  </sodipodi:namedview>
  <metadata
     id="metadata7">
    <rdf:RDF>
      <cc:Work
         rdf:about="">
        <dc:format>image/svg+xml</dc:format>
        <dc:type
           rdf:resource="http://purl.org/dc/dcmitype/StillImage" />
        <dc:title></dc:title>
      </cc:Work>
    </rdf:RDF>
  </metadata>
  <g
     inkscape:label="Ebene 1"
     inkscape:groupmode="layer"
     id="layer1"
     transform="translate(-824.22715,-304.8127)">
    <path
       style="fill:#000000"
       d="m 827.984,497.52183 c -1.35947,-0.55584 -2.79246,-1.52951 -3.18442,-2.16371 -1.7194,-2.78205 2.52476,-12.8038 6.27156,-14.80902 2.30217,-1.23209 6.88463,-10.00257 6.88463,-13.17666 0,-1.26769 -0.92829,-5.44515 -2.06286,-9.28324 -1.13457,-3.8381 -2.43777,-10.57836 -2.89599,-14.97836 -0.45822,-4.4 -1.35753,-11.51371 -1.99846,-15.80825 -1.06698,-7.14927 -1.0036,-8.06368 0.75102,-10.83491 1.05398,-1.66466 3.18779,-3.86072 4.74179,-4.88013 2.58673,-1.69687 2.86286,-2.47123 3.26816,-9.16509 0.24348,-4.02139 0.36378,-10.53236 0.26733,-14.46883 -0.20888,-8.52458 1.2297,-12.49205 6.56445,-18.10412 2.12551,-2.236 5.21456,-5.62576 6.86456,-7.53279 l 3,-3.46733 -1.69561,-7.26958 c -1.72156,-7.38081 -1.29691,-14.31164 1.15788,-18.89847 2.4004,-4.48519 14.32127,-7.59468 19.16916,-5.00016 3.04658,1.63048 5.9885,9.46813 5.72462,15.25114 -0.19692,4.3157 0.1311,5.27072 2.51451,7.32084 2.73346,2.35122 3.62878,2.51043 15.87244,2.82239 l 5.743,0.14632 19.19539,-23.30551 c 17.51838,-21.26946 20.81858,-24.83967 20.81858,-22.52191 0,0.43099 -8.1459,10.66849 -18.102,22.75 -9.95614,12.08151 -18.53952,22.50272 -19.07419,23.15823 -1.19541,1.46558 4.87679,4.74506 10.35125,5.59053 5.03299,0.77728 19.77044,11.1395 19.98364,14.05087 0.7186,9.81752 -1.7114,21.04704 -5.247,24.24673 -1.1032,0.99835 -2.927,3.4543 -4.053,5.45768 -1.1259,2.00337 -3.4673,4.46493 -5.20293,5.47012 -4.71253,2.72924 -9.17777,6.65047 -8.98905,7.89391 0.0917,0.60408 0.45676,3.23582 0.81128,5.84832 0.60373,4.44897 0.83175,4.75 3.598,4.75 2.25893,0 3.41939,0.76424 4.93499,3.25 2.39801,3.93295 2.68751,12.44424 0.52084,15.30887 -1.00229,1.32515 -1.47829,4.50745 -1.5,10.02834 -0.0307,7.8188 -0.16485,8.273 -4.04057,13.6854 -2.20483,3.079 -4.79233,5.81866 -5.75,6.08813 -6.19574,1.74336 -7.92768,1.65124 -11.26717,-0.59924 -3.90327,-2.63041 -6.20638,-7.79355 -7.92283,-17.7615 -0.61561,-3.575 -1.32208,-7.625 -1.56994,-9 -0.24786,-1.375 -1.10022,-3.85 -1.89413,-5.5 -0.79391,-1.65 -2.36871,-5.1175 -3.49955,-7.70556 l -2.05608,-4.70556 -3.48365,1.45556 c -1.916,0.80056 -4.92516,1.45556 -6.68702,1.45556 -1.76186,0 -3.91381,0.62177 -4.78212,1.38172 -2.85259,2.4966 -5.89207,2.89004 -7.12126,0.92181 -0.87809,-1.40606 -2.15695,-1.73612 -5.79219,-1.49493 -7.27587,0.48275 -7.31371,0.51926 -5.59268,5.3972 0.89069,2.52447 1.64235,8.8203 1.8258,15.29263 0.23837,8.40966 0.84292,12.41514 2.56608,17.00157 1.23983,3.3 2.31753,7.35 2.39488,9 0.12792,2.72889 -0.42337,3.27779 -6.10045,6.07395 -3.43259,1.69067 -7.97597,4.95317 -10.09639,7.25 -2.12042,2.29683 -4.71193,4.18219 -5.75892,4.1897 -1.04698,0.008 -2.80361,0.21488 -3.90361,0.46081 -1.1,0.24593 -3.1123,-0.008 -4.47177,-0.56347 z m 8.76161,-2.83187 c 2.04059,-1.05649 5.19987,-3.52158 7.02063,-5.47798 1.82076,-1.9564 5.1098,-4.09618 7.30899,-4.75508 5.99322,-1.79561 6.37232,-3.44155 2.881,-12.50837 -2.66088,-6.91019 -3.00046,-9.00191 -3.00046,-18.48197 0,-8.50935 -0.41276,-11.65284 -2.02349,-15.41053 -1.11293,-2.59634 -2.16595,-6.0218 -2.34005,-7.61212 -0.17782,-1.6243 -1.70762,-4.25154 -3.49072,-5.99484 -3.56431,-3.48478 -4.67263,-6.60279 -3.71014,-10.43766 l 0.65242,-2.59943 -2.91194,2.07348 c -3.61775,2.57607 -5.55492,7.06166 -4.90295,11.35294 0.27345,1.79984 1.02344,7.09744 1.66666,11.77244 0.64321,4.675 1.62738,10.3 2.18703,12.5 0.55966,2.2 1.26196,5.24301 1.56067,6.76224 0.29871,1.51923 0.87857,2.96957 1.28859,3.22298 0.73432,0.45383 0.0309,-4.21141 -1.49034,-9.88437 -0.54829,-2.04469 -0.44772,-2.69539 0.34124,-2.20778 1.71053,1.05716 3.07503,7.34678 3.27738,15.10693 0.16622,6.37475 -0.1223,7.49644 -3.2301,12.55786 -1.87694,3.05682 -4.89428,6.88182 -6.70519,8.5 -2.44579,2.18549 -3.44262,4.06117 -3.87606,7.29336 -0.86052,6.417 2.43492,7.8841 9.49683,4.2279 z m 1.21016,-8.61896 c 0,-0.29691 0.86243,-2.23034 1.91651,-4.29651 1.05408,-2.06617 2.22843,-5.41931 2.60965,-7.45141 0.38123,-2.03211 1.06064,-3.46761 1.50982,-3.19001 0.44917,0.27761 0.45033,1.7821 0.003,3.34332 -1.78186,6.21291 -6.03858,14.38622 -6.03858,11.59461 z m 74.6771,-13.54122 c 1.1974,-0.4477 3.37988,-2.8664 4.84995,-5.37489 2.20225,-3.75785 2.73806,-6.06334 3.04317,-13.09416 0.25724,-5.92762 0.83742,-9.00039 1.90005,-10.06302 2.5453,-2.54534 2.01107,-10.57545 -0.91359,-13.73121 -4.32137,-4.66283 -6.8588,-1.44344 -5.39452,6.84434 0.87364,4.94477 -0.1508,22.5 -1.31298,22.5 -0.46705,0 -0.84918,-4.98204 -0.84918,-11.0712 l 0,-11.0712 -3.36808,3.5712 c -2.33793,2.47892 -4.24953,3.57457 -6.25,3.58221 -1.58505,0.006 -4.50028,0.27871 -6.47828,0.60591 -3.52327,0.58281 -3.58272,0.66896 -2.92508,4.23899 0.3692,2.00425 1.1775,4.58485 1.79622,5.73466 0.61872,1.14982 1.06815,2.94982 0.99874,4 -0.33582,5.08095 1.41378,9.41821 4.98745,12.36393 3.69059,3.0421 4.22126,3.09371 9.91613,0.96444 z m -3.83209,-33.25719 c 4.27465,-3.94058 5.35867,-7.24631 4.62445,-14.10234 -0.36918,-3.44732 -0.96333,-6.70126 -1.32035,-7.231 -0.35701,-0.52973 -3.9519,-1.57511 -7.98865,-2.32308 -7.33413,-1.35892 -7.33912,-1.36205 -6.7623,-4.24611 0.52976,-2.64884 0.39321,-2.81929 -1.66046,-2.0727 -2.82587,1.0273 -16.40733,0.59774 -18.52226,-0.58583 -2.57341,-1.44015 -5.81922,0.75534 -8.55912,5.78944 l -2.53402,4.65582 2.68885,5.47702 2.68885,5.47703 5,-0.53796 c 2.75,-0.29588 6.0218,-1.10419 7.27067,-1.79625 3.09716,-1.71628 3.77422,-1.061 5.77174,5.58607 2.41722,8.04369 4.45079,9.60047 11.42684,8.74772 3.56525,-0.43581 6.36411,-1.44431 7.87576,-2.83783 z m -31.5623,-19.41115 c -2.8695,-3.10715 -5.03683,-5.82982 -4.81627,-6.05037 0.7554,-0.7554 8.08761,5.77482 9.86785,8.78853 2.71589,4.59764 0.7281,3.52018 -5.05158,-2.73816 z m 14.16385,3.66294 c -0.3804,-0.6155 -2.99899,-2.19345 -5.8191,-3.50655 -4.32118,-2.01203 -4.70037,-2.38899 -2.41139,-2.39722 3.27462,-0.0118 9.50118,2.81101 10.1963,4.62245 0.63952,1.66657 -1.04794,2.76645 -1.96581,1.28132 z m -39.20953,7.22885 c -0.95536,-0.19668 -2.38378,-0.87168 -3.17426,-1.5 -1.16985,-0.92986 -1.30938,-0.80161 -0.75,0.6894 0.37798,1.00748 0.68723,2.20264 0.68723,2.65591 0,0.45327 1.11916,0.30397 2.48703,-0.33179 2.02069,-0.93916 2.16132,-1.22297 0.75,-1.51352 z m 15.72662,1.40141 c 1.9205,-2.31406 0.15556,-4.01077 -1.93702,-1.86213 -1.71785,1.76389 -1.76004,3.31833 -0.0901,3.31833 0.4502,0 1.36238,-0.65529 2.02708,-1.4562 z m -2.94131,-3.3608 c 1.98513,-1.60747 2.09761,-2.09759 0.97533,-4.25 -0.69772,-1.33815 -1.39979,-2.58767 -1.56016,-2.77671 -0.16037,-0.18903 -2.27228,1.72347 -4.69313,4.25 l -4.40155,4.59371 3.7178,0 c 2.10303,0 4.69241,-0.78919 5.96171,-1.817 z m -5.17276,-5.70997 c 2.82923,-3.03983 6.2362,-7.65233 7.57104,-10.25 1.40669,-2.73748 3.75428,-5.45873 5.58422,-6.47303 3.8504,-2.13421 5.70175,-2.30631 4.10434,-0.38155 -0.92654,1.11641 -0.2584,1.46804 3.62755,1.90915 2.6198,0.29738 4.95145,0.3559 5.18144,0.13004 0.23,-0.22586 -0.0746,-1.42248 -0.67688,-2.65915 -0.60227,-1.23667 -1.247,-2.83064 -1.43273,-3.54217 -0.24271,-0.92984 -0.93644,-0.73584 -2.46667,0.68979 -2.25152,2.09761 -3.56652,1.85283 -2.66514,-0.49611 1.49763,-3.90277 -2.69057,-8.68267 -9.50212,-10.84458 -2.98053,-0.94598 -10.7477,6.72409 -8.60772,8.50011 3.31492,2.75114 0.40593,8.14466 -5.94941,11.03072 -4.33464,1.96843 -8.10718,2.51508 -7.19733,1.04291 0.29602,-0.47896 1.92678,-1.14855 3.62392,-1.48798 1.69715,-0.33943 4.42593,-1.95735 6.06396,-3.59538 2.96634,-2.96634 2.9714,-2.99137 1.26635,-6.26202 -1.94203,-3.72522 -3.49239,-10.79219 -2.30046,-10.48612 0.43337,0.11129 1.8443,-1.21241 3.13538,-2.94155 3.49365,-4.67899 10.68096,-10.35399 13.13529,-10.37142 1.75819,-0.0125 1.87897,-0.19395 0.65539,-0.98469 -0.825,-0.53316 -2.5125,-0.97627 -3.75,-0.98469 -1.2375,-0.008 -2.25,-0.46531 -2.25,-1.01531 0,-1.72375 5.27372,-1.08936 7.43555,0.89445 1.13545,1.04195 3.88443,2.19087 6.10884,2.55316 l 4.0444,0.65871 9.18238,-10.99314 c 7.72956,-9.25381 8.89052,-11.08578 7.33769,-11.57863 -1.01458,-0.32202 -2.9542,-0.16365 -4.31025,0.35192 -1.46518,0.55706 -3.0403,0.5736 -3.88208,0.0408 -0.77909,-0.49314 -2.81834,-0.90352 -4.53167,-0.91194 -1.71333,-0.008 -4.41333,-0.99904 -6,-2.20139 -1.58667,-1.20234 -3.03529,-2.29026 -3.21914,-2.41761 -0.18385,-0.12734 -0.45372,-3.67071 -0.59971,-7.87415 -0.33733,-9.7126 -2.32005,-12.87718 -8.34948,-13.32641 -4.82734,-0.35967 -11.54467,2.68636 -13.3585,6.05752 -0.66486,1.2357 -1.24088,4.94673 -1.28005,8.24673 -0.0941,7.92898 4.58413,17.53104 9.18767,18.85764 3.79197,1.09272 7.58198,-1.22253 10.24305,-6.25731 1.54457,-2.92236 1.91123,-3.19004 1.9471,-1.42153 0.0574,2.83111 -5.77201,8.98598 -9.36495,9.88775 -1.83555,0.4607 -4.01258,0.1259 -6.31225,-0.97074 -3.10885,-1.48251 -3.76551,-1.5068 -5.74108,-0.21235 -1.22689,0.80389 -2.80433,2.84647 -3.50543,4.53908 -0.7011,1.6926 -1.65192,3.07746 -2.11294,3.07746 -1.79209,0 -5.79311,5.48461 -6.85199,9.39272 -0.61206,2.259 -1.06368,6.58228 -1.00359,9.60728 0.0601,3.025 -0.0671,10.675 -0.28274,17 -0.2156,6.325 0.0351,12.37867 0.55719,13.45259 1.61321,3.31854 7.82529,8.54741 10.15462,8.54741 1.39644,0 4.11077,-2.03917 7.35694,-5.52697 z m -15.83427,-15.22303 c -0.008,-2.3375 0.43469,-4.25 0.98469,-4.25 1.27601,0 1.27601,5.02551 0,7 -0.70991,1.09851 -0.97347,0.36246 -0.98469,-2.75 z m 24.23789,-8.5 c -1.77025,-1.2375 -3.22641,-2.54537 -3.23592,-2.90638 -0.032,-1.21474 3.60139,0.27671 6.55394,2.69029 3.8119,3.11608 1.08451,3.2937 -3.31802,0.21609 z m -19.38354,-5.44431 c 1.20682,-2.32069 2.97537,-3.794 3.69293,-3.07644 0.23624,0.23624 -0.75477,1.5188 -2.20225,2.85014 -2.50913,2.30781 -2.5786,2.31835 -1.49068,0.2263 z m 7.84815,-11.05569 c 0.36028,-0.9625 1.44783,-3.06821 2.41679,-4.67935 2.20648,-3.66882 1.66337,-4.57065 -2.75263,-4.57065 -2.07869,0 -3.24903,-0.40609 -2.88197,-1 0.89929,-1.45508 6.0686,-1.22473 7.35712,0.32784 1.21657,1.46588 0.30691,5.83538 -1.97578,9.49055 -1.62962,2.60944 -3.08758,2.90029 -2.16353,0.43161 z m 21.28219,-8.79775 c 0,-2.29053 4.76449,-6.29321 8.82574,-7.41458 1.95483,-0.53976 4.55341,-2.23154 5.77461,-3.75952 1.22121,-1.52798 2.52167,-2.47969 2.88992,-2.11491 1.32299,1.31053 -2.72802,5.76008 -6.32218,6.94414 -4.52432,1.4905 -9.16809,4.82371 -9.16809,6.58068 0,0.72157 -0.45,1.31194 -1,1.31194 -0.55,0 -1,-0.69649 -1,-1.54775 z m -16,-4.95225 c 0,-1.49071 0.4306,-2.35191 1,-2 0.55,0.33992 1,1.23992 1,2 0,0.76008 -0.45,1.66008 -1,2 -0.5694,0.35191 -1,-0.50929 -1,-2 z m 8.70332,-0.0314 c -1.34401,-1.84662 -1.45739,-2.46858 -0.45,-2.46858 1.71249,0 3.74668,2.00884 3.74668,3.7 0,1.9891 -1.30844,1.50035 -3.29668,-1.23143 z m 5.96335,0.86476 c -0.36667,-0.36667 -0.66667,-3.15667 -0.66667,-6.20001 0,-6.91443 1.78034,-5.78364 2.66587,1.69324 0.56576,4.77695 -0.1394,6.36657 -1.9992,4.50676 z m 9.54982,-7.35829 c -0.67839,-1.08628 -1.90462,-1.97505 -2.72496,-1.97505 -0.82034,0 -1.49153,-0.48032 -1.49153,-1.06739 0,-1.33988 3.96009,-0.23134 5.95714,1.66757 0.95381,0.90693 1.11787,1.72481 0.47496,2.36772 -0.64291,0.64291 -1.40824,0.29995 -2.21561,-0.99286 z m 31.66083,47.02495 c 2.92793,-2.2 5.66353,-4 6.07912,-4 1.13343,0 8.86603,-10.63936 10.39883,-14.30785 0.7359,-1.76133 1.6503,-6.37136 2.032,-10.24453 0.6367,-6.46203 0.5052,-7.24822 -1.5967,-9.54432 -2.795,-3.05328 -13.34284,-9.50184 -17.0736,-10.4382 -1.49692,-0.3757 -4.39076,-1.53405 -6.43076,-2.5741 -2.04,-1.04005 -4.26754,-1.891 -4.95008,-1.891 -0.68255,0 -5.51706,5.13638 -10.74337,11.41417 -9.20092,11.05207 -9.47209,11.51979 -8.54757,14.7434 0.52515,1.83107 0.95481,4.5697 0.95481,6.08583 0,3.14562 1.61538,3.52398 5.80202,1.35898 3.94549,-2.04029 6.18586,-4.87865 7.71262,-9.77122 1.26942,-4.0679 1.35563,-4.14268 1.41846,-1.23038 0.0368,1.70542 -0.39703,4.40542 -0.96405,6 -1.27901,3.5968 -7.69119,8.27008 -11.77422,8.5812 -4.33972,0.33067 -2.85675,1.81802 1.81267,1.81802 2.72421,0 4.66867,0.72215 6.49038,2.41045 3.12829,2.8992 1.73361,4.34608 -1.63507,1.69628 -1.68216,-1.32319 -3.82542,-1.82038 -7.36754,-1.70911 -4.33827,0.13629 -4.95057,0.40985 -4.65543,2.07997 0.55984,3.16797 4.50178,7.40791 6.94228,7.46708 3.18583,0.0772 8.22817,-2.21897 11.37875,-5.18173 2.61486,-2.45897 2.65827,-2.71066 2.51026,-14.55428 l -0.15062,-12.05204 -2.74778,-0.40328 c -2.44575,-0.35896 -2.81788,-0.0296 -3.38556,2.99638 -0.44449,2.36937 -0.95525,3.0822 -1.68535,2.3521 -0.73009,-0.73009 -0.71691,-1.77329 0.0435,-3.44221 0.858,-1.88309 0.7672,-2.71852 -0.42504,-3.91076 -1.35482,-1.35482 -1.07317,-1.43512 2.64736,-0.75477 3.74048,0.684 4.67384,0.41028 9.18684,-2.69411 2.76285,-1.90051 5.3171,-3.16173 5.67611,-2.80272 0.35901,0.35902 -0.0185,1.03819 -0.83892,1.50929 -0.82042,0.47109 -2.39167,1.55976 -3.49167,2.41927 -1.96878,1.53835 -1.95086,1.60802 1.14814,4.46336 4.02607,3.70951 10.41227,4.95649 13.84953,2.70429 3.7719,-2.47141 5.3783,-1.87783 1.7768,0.65654 -2.88252,2.02846 -3.13951,2.61813 -2.60991,5.9887 0.72001,4.58266 -1.02501,9.11223 -4.34986,11.29076 -2.3678,1.55144 -2.39792,1.69147 -0.64888,3.01694 1.759,1.33302 1.75108,1.3913 -0.19331,1.4218 -1.11513,0.0175 -3.08919,-0.71184 -4.38682,-1.62073 -1.29762,-0.90889 -3.39143,-1.76583 -4.6529,-1.90431 -1.94898,-0.21394 -2.28088,0.19482 -2.20907,2.72056 0.066,2.3209 -0.99029,3.98295 -4.81961,7.58364 l -4.90411,4.61132 3,0.70235 c 7.4267,1.7387 10.83806,1.10109 16.37732,-3.06103 z m -14.87732,-12.88197 c 0,-0.55 0.45,-1.27811 1,-1.61803 0.55,-0.33992 1,-0.16803 1,0.38197 0,0.55 -0.45,1.27811 -1,1.61803 -0.55,0.33992 -1,0.16803 -1,-0.38197 z m -1.69921,-3.74645 c 0.61248,-1.99563 1.2893,-3.10132 1.50404,-2.45709 0.56387,1.69161 -0.68544,6.08551 -1.73028,6.08551 -0.48804,0 -0.38623,-1.63279 0.22624,-3.62842 z m -16.8505,0.73865 c 1.25515,-2.78341 1.55982,-4.83494 1.00962,-6.79831 -0.43339,-1.54655 -0.7154,-3.14572 -0.62669,-3.55369 0.0887,-0.40798 -0.61248,-1.64548 -1.5582,-2.75 -2.87109,-3.35319 -10.12777,-2.76685 -15.36839,1.24177 -4.09688,3.13376 -9.96857,11.75 -8.00724,11.75 1.41024,0 3.35217,-2.18511 5.51382,-6.20433 1.95586,-3.63656 6.13554,-6.79567 8.99108,-6.79567 0.87764,0 1.59571,0.45 1.59571,1 0,0.55 -0.86786,1 -1.92857,1 -2.25455,0 -5.07143,2.52787 -5.07143,4.5511 0,1.39552 6.55988,5.28639 10.04389,5.95735 2.26473,0.43615 4.57237,-5.00266 2.64809,-6.24123 -0.65559,-0.42197 -2.04922,-1.77972 -3.09697,-3.01722 -1.88408,-2.22531 -1.88162,-2.25 0.22432,-2.25 4.21023,0 6.80368,9.47193 3.71247,13.55887 -1.61033,2.12905 -2.00962,3.85447 -0.70546,3.04846 0.45449,-0.28089 1.63527,-2.30458 2.62395,-4.4971 z m 35.41793,0.53005 c 2.16939,-2.30922 2.68403,-4.4795 2.31497,-9.76247 -0.15774,-2.25792 -0.75898,-2.71427 -4.32792,-3.28496 -2.2796,-0.36453 -5.49216,-1.62223 -7.13903,-2.7949 -1.97926,-1.40936 -2.82635,-1.65175 -2.49885,-0.71504 0.2725,0.7794 0.0788,2.54107 -0.43041,3.91482 -0.50922,1.37375 -0.6236,5.10197 -0.25417,8.28493 0.58791,5.06552 0.90582,5.7129 2.54925,5.19129 1.03267,-0.32775 2.67416,-0.13216 3.64776,0.43466 2.64949,1.5425 3.70208,1.32501 6.1384,-1.26833 z"
       id="path3270"
       inkscape:connector-curvature="0" />
  </g>
</svg>
