<?xml version="1.0" encoding="UTF-8" standalone="no"?>
<!-- Created with Inkscape (http://www.inkscape.org/) -->

<svg
   xmlns:dc="http://purl.org/dc/elements/1.1/"
   xmlns:cc="http://creativecommons.org/ns#"
   xmlns:rdf="http://www.w3.org/1999/02/22-rdf-syntax-ns#"
   xmlns:svg="http://www.w3.org/2000/svg"
   xmlns="http://www.w3.org/2000/svg"
   xmlns:xlink="http://www.w3.org/1999/xlink"
   xmlns:sodipodi="http://sodipodi.sourceforge.net/DTD/sodipodi-0.dtd"
   xmlns:inkscape="http://www.inkscape.org/namespaces/inkscape"
   width="120.72859"
   height="193.36653"
   id="svg2"
   version="1.1"
   inkscape:version="0.48.3.1 r9886"
   sodipodi:docname="Kneeling-concentration-triceps-extension-1.svg">
  <defs
     id="defs4">
    <radialGradient
       gradientUnits="userSpaceOnUse"
       gradientTransform="matrix(1,0,0,0.91819829,-19.285714,-7.9105395)"
       r="209.56604"
       fy="287.50052"
       fx="398.1105"
       cy="287.50052"
       cx="398.1105"
       id="radialGradient5255"
       xlink:href="#linearGradient5249"
       inkscape:collect="always" />
    <linearGradient
       id="linearGradient5249"
       inkscape:collect="always">
      <stop
         id="stop5251"
         offset="0"
         style="stop-color:#e3e3e3;stop-opacity:1;" />
      <stop
         id="stop5253"
         offset="1"
         style="stop-color:#e3e3e3;stop-opacity:0;" />
    </linearGradient>
  </defs>
  <sodipodi:namedview
     id="base"
     pagecolor="#ffffff"
     bordercolor="#666666"
     borderopacity="1.0"
     inkscape:pageopacity="0.0"
     inkscape:pageshadow="2"
     inkscape:zoom="1.979899"
     inkscape:cx="-51.564059"
     inkscape:cy="61.743315"
     inkscape:document-units="px"
     inkscape:current-layer="layer1"
     showgrid="false"
     showguides="true"
     inkscape:guide-bbox="true"
     fit-margin-top="0"
     fit-margin-left="0"
     fit-margin-right="0"
     fit-margin-bottom="0"
     inkscape:window-width="1112"
     inkscape:window-height="691"
     inkscape:window-x="66"
     inkscape:window-y="327"
     inkscape:window-maximized="0">
    <sodipodi:guide
       orientation="-0.70710678,0.70710678"
       position="-2252.7985,471.53135"
       id="guide2985" />
  </sodipodi:namedview>
  <metadata
     id="metadata7">
    <rdf:RDF>
      <cc:Work
         rdf:about="">
        <dc:format>image/svg+xml</dc:format>
        <dc:type
           rdf:resource="http://purl.org/dc/dcmitype/StillImage" />
        <dc:title></dc:title>
      </cc:Work>
    </rdf:RDF>
  </metadata>
  <g
     inkscape:label="Ebene 1"
     inkscape:groupmode="layer"
     id="layer1"
     transform="translate(-824.22715,-304.8127)">
    <path
       style="fill:#000000"
       d="m 827.80543,497.52183 c -1.35947,-0.55584 -2.79246,-1.52951 -3.18442,-2.16371 -1.7194,-2.78205 2.52476,-12.8038 6.27156,-14.80902 2.30217,-1.23209 6.88463,-10.00257 6.88463,-13.17666 0,-1.26769 -0.92829,-5.44515 -2.06286,-9.28324 -1.13457,-3.8381 -2.43777,-10.57836 -2.89599,-14.97836 -0.45822,-4.4 -1.35622,-11.50434 -1.99556,-15.78743 -1.0907,-7.30682 -1.03102,-8.00008 0.96699,-11.23293 1.34992,-2.18422 3.93378,-4.27326 7.05843,-5.70672 4.81374,-2.20834 6.06074,-3.95542 3.81425,-5.34384 -1.38912,-0.85851 -0.58699,-10.69517 0.9129,-11.19513 0.65738,-0.21913 0.33816,-1.92254 -0.8512,-4.54228 -1.04667,-2.30542 -1.91124,-5.76667 -1.92126,-7.69167 -0.0187,-3.58747 3.15307,-10 4.94618,-10 0.55071,0 1.61529,-1.46953 2.36574,-3.26562 0.75046,-1.7961 2.90305,-4.61651 4.78353,-6.2676 l 3.41905,-3.00197 -1.71571,-7.38271 c -1.74175,-7.49476 -1.32827,-14.40374 1.13778,-19.0116 2.4004,-4.48519 14.32123,-7.59468 19.16913,-5.00016 3.0466,1.63048 5.9885,9.46813 5.7246,15.25114 -0.1969,4.3157 0.1311,5.27072 2.5146,7.32084 2.7165,2.33667 3.4686,2.4735 15.6294,2.84331 3.4057,0.10357 7.1031,0.9949 9.7102,2.34082 2.3155,1.19545 4.4096,2.17355 4.6534,2.17355 0.2438,0 7.0687,-11.70862 15.1663,-26.01916 8.0977,-14.31054 15.1162,-26.2621 15.5966,-26.55902 2.2932,-1.41726 -0.1991,3.59472 -13.6176,27.38564 l -14.4911,25.69254 3.1068,0.80857 c 5.0082,1.30343 18.8493,11.50189 19.034,14.02467 0.7187,9.81752 -1.7114,21.04704 -5.247,24.24673 -1.1031,0.99835 -2.927,3.4543 -4.0529,5.45768 -1.126,2.00337 -3.4673,4.46493 -5.203,5.47012 -4.7125,2.72924 -9.1777,6.65047 -8.989,7.89391 0.092,0.60408 0.4567,3.23582 0.8113,5.84832 0.6037,4.44897 0.8317,4.75 3.598,4.75 2.2589,0 3.4194,0.76424 4.935,3.25 2.3979,3.93295 2.6875,12.44424 0.5208,15.30887 -1.0023,1.32515 -1.4783,4.50745 -1.5,10.02834 -0.031,7.8188 -0.1649,8.273 -4.0406,13.6854 -2.2048,3.079 -4.7923,5.81866 -5.75,6.08813 -6.1957,1.74336 -7.9277,1.65124 -11.2671,-0.59924 -3.9033,-2.63041 -6.2064,-7.79355 -7.9229,-17.7615 -0.6156,-3.575 -1.3221,-7.625 -1.5699,-9 -0.2479,-1.375 -1.1002,-3.85 -1.8941,-5.5 -0.794,-1.65 -2.3688,-5.1175 -3.4996,-7.70556 l -2.0561,-4.70556 -3.4836,1.45556 c -1.916,0.80056 -4.2856,1.46327 -5.2658,1.4727 -1.1732,0.0113 -3.0097,2.33396 -5.3751,6.79795 l -3.59297,6.78082 1.88817,3.45205 c 2.158,3.94517 1.8453,7.1568 -1.33687,13.73024 -1.15185,2.3794 -1.8336,4.58687 -1.51499,4.90548 1.48877,1.48877 -1.60003,4.21612 -5.10331,4.50613 -3.11871,0.25818 -3.6892,0.64556 -3.40218,2.31019 1.26057,7.31077 0.99812,7.83108 -5.58593,11.07395 -3.43259,1.69067 -7.97597,4.95317 -10.09639,7.25 -2.12042,2.29683 -4.71193,4.18219 -5.75892,4.1897 -1.04698,0.008 -2.80361,0.21488 -3.90361,0.46081 -1.1,0.24593 -3.1123,-0.008 -4.47177,-0.56347 z m 8.76161,-2.83187 c 2.04059,-1.05649 5.19987,-3.52158 7.02063,-5.47798 1.82076,-1.9564 5.1098,-4.09618 7.30899,-4.75508 4.86372,-1.4572 6.21474,-3.58894 4.81652,-7.59985 -0.84286,-2.41786 -1.47317,-2.86618 -3.48812,-2.48099 -2.64667,0.50594 -5.79478,-1.39487 -4.84782,-2.92709 0.35082,-0.56763 1.06526,-0.53087 1.81761,0.0935 1.87304,1.55448 13.25133,-0.67785 14.14961,-2.77604 0.38985,-0.91059 0.83762,-4.63641 0.99506,-8.2796 0.27105,-6.27203 0.14937,-6.68635 -2.29016,-7.79788 -1.82203,-0.83017 -2.26465,-1.48564 -1.51168,-2.23862 0.75298,-0.75298 1.83486,-0.51936 3.69492,0.79787 2.29455,1.62492 2.57589,2.41125 2.20466,6.16201 -0.4768,4.81754 -0.0275,4.96845 1.27469,0.42811 0.5992,-2.08927 0.46279,-3.83486 -0.43488,-5.56512 -0.71935,-1.38656 -1.0511,-2.77782 -0.73723,-3.0917 0.31388,-0.31385 -0.17931,-0.57066 -1.09597,-0.57066 -0.91667,0 -1.66667,-0.42269 -1.66667,-0.9393 0,-2.23448 -8.89013,2.21911 -11.89585,5.95932 -2.65845,3.30808 -7.10415,11.87222 -7.10415,13.68533 0,1.85293 2.81821,-2.36505 4.5,-6.73511 1.82974,-4.75449 6.3165,-9.97024 8.57673,-9.97024 1.771,0 0.90718,1.87033 -1.16802,2.52897 -2.79215,0.8862 -5.62083,7.40387 -3.7328,8.60091 0.72825,0.46172 1.66159,0.84639 2.07409,0.85481 0.4125,0.008 0.75,0.90674 0.75,1.99626 0,1.8674 -1.52643,2.68621 -6.31894,3.3896 -0.93572,0.13733 -2.23675,0.78514 -2.89118,1.43957 -1.69136,1.69136 -3.52546,1.47324 -4.70978,-0.56012 -0.56061,-0.9625 -1.03297,-1.24202 -1.04969,-0.62115 -0.0574,2.12925 -6.56881,11.98691 -9.86134,14.92901 -2.44579,2.18549 -3.44262,4.06117 -3.87606,7.29336 -0.86052,6.417 2.43492,7.8841 9.49683,4.2279 z M 837.809,486.321 c -0.0175,-0.43441 0.80435,-2.45941 1.8263,-4.5 1.02196,-2.04059 2.16886,-5.00076 2.54867,-6.57816 0.37981,-1.5774 0.89214,-2.66643 1.1385,-2.42006 0.71261,0.71261 -2.33332,10.12268 -3.98312,12.30544 -0.8242,1.09044 -1.51285,1.62719 -1.53035,1.19278 z m 74.6453,-13.79122 c 1.1974,-0.4477 3.3799,-2.8664 4.8499,-5.37489 2.2023,-3.75785 2.7381,-6.06334 3.0432,-13.09416 0.2573,-5.92762 0.8374,-9.00039 1.9001,-10.06302 2.5453,-2.54534 2.011,-10.57545 -0.9136,-13.73121 -4.3214,-4.66283 -6.8588,-1.44344 -5.3945,6.84434 0.8736,4.94477 -0.1508,22.5 -1.313,22.5 -0.4671,0 -0.8492,-4.98204 -0.8492,-11.0712 l 0,-11.0712 -3.3681,3.5712 c -2.3379,2.47892 -4.2495,3.57457 -6.25,3.58221 -1.585,0.006 -4.5003,0.27871 -6.4783,0.60591 -3.5232,0.58281 -3.5827,0.66896 -2.925,4.23899 0.3692,2.00425 1.1775,4.58485 1.7962,5.73466 0.6187,1.14982 1.0681,2.94982 0.9987,4 -0.3358,5.08095 1.4138,9.41821 4.9875,12.36393 3.6906,3.0421 4.2212,3.09371 9.9161,0.96444 z m -59.59531,-6.91894 c 1.47368,0 1.05697,-1.73278 -0.56654,-2.35577 -0.89123,-0.342 -1.93708,0.27545 -2.61633,1.54464 -0.97222,1.81661 -0.89243,2.02262 0.56653,1.46276 0.93397,-0.3584 2.11132,-0.65163 2.61634,-0.65163 z m -9.67678,-2.47756 c 0.34201,-1.36266 2.64079,-4.95631 5.10841,-7.98588 2.46762,-3.02957 4.50026,-6.52716 4.51699,-7.77243 0.0267,-1.98931 0.15174,-2.05598 1.03003,-0.54925 0.82389,1.41339 1.42835,1.51953 3.43824,0.60377 1.34123,-0.61111 2.23077,-1.44739 1.97675,-1.8584 -0.25401,-0.41101 0.2101,-2.65178 1.03136,-4.9795 1.49991,-4.25118 1.99079,-15.52187 0.85987,-19.74242 -0.55868,-2.08496 -0.74398,-1.96775 -2.37154,1.5 -0.97104,2.06892 -2.06698,4.6506 -2.43542,5.73706 -0.56035,1.65232 -1.15154,1.09466 -3.61481,-3.40977 -2.49558,-4.56353 -2.92088,-6.39065 -2.78755,-11.97539 l 0.15734,-6.59023 0.666,6.5 c 0.36629,3.575 1.48204,8.01981 2.47943,9.87735 l 1.81344,3.37735 1.5948,-3.37735 c 1.18502,-2.50956 1.6063,-6.58915 1.63957,-15.87735 0.0614,-17.14972 -1.61748,-20.48358 -6.92435,-13.75 -1.40877,1.7875 -2.56638,2.65288 -2.57248,1.92308 -0.006,-0.72981 1.36616,-2.70418 3.04946,-4.38748 l 3.06056,-3.06055 3.30659,3.20487 c 2.74295,2.65858 3.41191,2.93044 3.92441,1.59488 0.43341,-1.12945 -0.4351,-2.23123 -2.90985,-3.69137 -4.41463,-2.60469 -3.84908,-3.44808 0.96371,-1.43716 4.01711,1.67845 5.40314,3.92389 3.69357,5.98379 -0.83982,1.01193 -0.80488,1.60184 0.13813,2.33203 2.5095,1.94314 4.98573,2.26044 9.25383,1.18574 5.3026,-1.33523 7.3818,-4.95396 5.6691,-9.86703 -0.5811,-1.66694 -0.6862,-3.0308 -0.2336,-3.0308 0.4527,0 1.0726,1.24817 1.3777,2.77371 0.8847,4.42309 8.5975,6.59514 13.5914,3.8275 3.1901,-1.76801 9.5134,-13.72397 7.8226,-14.79086 -0.828,-0.52242 -1.5831,0.42674 -2.3551,2.96034 -0.8659,2.84173 -1.3023,3.32726 -1.8337,2.04005 -0.3835,-0.9291 -0.2414,-2.50381 0.3157,-3.49937 0.7404,-1.32291 0.6175,-2.24715 -0.4564,-3.4338 -1.3415,-1.48236 -1.1091,-1.55781 2.6696,-0.86682 l 4.139,0.75686 3.9058,-6.1338 c 2.1483,-3.3736 3.7885,-6.79118 3.645,-7.59464 -0.3911,-2.18966 -11.5141,-5.31658 -14.8166,-4.1653 -1.5395,0.53666 -3.2269,0.55308 -4.0382,0.0393 -0.7666,-0.4854 -2.716,-0.88944 -4.3319,-0.89786 -3.0363,-0.0158 -9.524,-3.75086 -9.58,-5.51532 -0.5277,-16.62459 -1.8952,-19.79238 -8.7654,-20.30425 -4.82731,-0.35967 -11.54464,2.68636 -13.35847,6.05752 -0.66486,1.2357 -1.24113,4.94673 -1.2806,8.24673 -0.0565,4.72535 0.5313,7.16843 2.76698,11.5 3.20187,6.20355 5.05243,8 8.24096,8 2.21503,0 6.88943,-3.86564 9.10583,-7.5304 1.0099,-1.66982 1.2001,-1.71408 1.25,-0.2908 0.084,2.40498 -6.0442,8.55797 -9.35035,9.38775 -1.83555,0.4607 -4.01258,0.1259 -6.31225,-0.97074 -3.18564,-1.51912 -3.72898,-1.53073 -5.87367,-0.12547 -1.29982,0.85167 -3.11469,3.00676 -4.03303,4.78908 -0.91835,1.78232 -2.50529,3.8304 -3.52652,4.55128 -2.47367,1.74616 -4.84538,6.4785 -4.84538,9.66816 0,1.41799 1.37946,5.31088 3.06548,8.65085 1.68601,3.33997 2.78654,6.3516 2.44562,6.69252 -0.34091,0.34092 -0.99507,0.0127 -1.45367,-0.72931 -1.16646,-1.88737 -3.05743,-0.43766 -3.05743,2.34397 0,1.27538 0.71308,4.0255 1.58462,6.11138 1.27459,3.05054 1.44948,5.77516 0.89389,13.92639 -0.52918,7.76372 -0.34472,11.17365 0.78867,14.5796 2.31354,6.95243 3.13083,18.37054 1.41675,19.7931 -1.18361,0.9823 -1.49176,-0.21699 -1.95027,-7.59036 -0.2995,-4.81635 -1.29269,-10.782 -2.2071,-13.257 -1.60353,-4.34023 -1.52608,-12.6505 0.18509,-19.85929 0.52564,-2.21445 0.35216,-2.31746 -2.82581,-1.678 -3.86976,0.77867 -8.53037,5.27282 -9.50814,9.16854 -0.36535,1.45568 0.0782,6.52165 0.98565,11.25772 0.90746,4.73606 1.64694,10.31298 1.64329,12.39315 -0.004,2.08016 0.66836,5.39762 1.49336,7.37212 0.825,1.97451 1.5,4.40849 1.5,5.40887 0,1.00037 0.38735,2.05825 0.86078,2.35085 0.83376,0.51529 0.21996,-3.86511 -1.37504,-9.81311 -0.54468,-2.03123 -0.44547,-2.694 0.33139,-2.21387 1.65063,1.02015 3.17097,7.41438 3.17729,13.36302 0.006,5.48781 1.34307,7.02578 2.41059,2.77244 z m 30.39149,-85.52517 c -1.193,-2.09905 -2.4666,-2.99727 -4.25,-2.99727 -1.40057,0 -2.5465,-0.45 -2.5465,-1 0,-1.47356 5.2105,-1.15585 7.3246,0.44662 1.1447,0.86763 1.7037,2.3454 1.5,3.96547 l -0.3246,2.58245 -1.7035,-2.99727 z m 4.588,-4.39301 c 0.4071,-1.62194 0.1191,-2.58078 -0.8916,-2.96862 -1.0836,-0.4158 -1.4929,-2.14432 -1.4929,-6.30426 0,-7.08158 1.7675,-6.09026 2.6659,1.49519 0.337,2.84539 0.8165,5.17343 1.0657,5.17343 0.2491,0 1.5971,-0.9 2.9955,-2 1.3984,-1.1 3.4073,-2 4.4641,-2 1.0569,0 3.2341,-1.43707 4.8383,-3.19349 3.3192,-3.63405 4.9703,-3.26202 2.4685,0.55621 -0.914,1.39493 -3.3125,3.08003 -5.3299,3.74466 -4.5243,1.4905 -9.1681,4.82371 -9.1681,6.58068 0,0.72157 -0.4988,1.31194 -1.1084,1.31194 -0.6701,0 -0.8706,-0.94738 -0.5071,-2.39574 z m -19.92068,-0.66281 c -0.37748,-0.61076 -1.98875,-0.7966 -3.80902,-0.43932 -2.359,0.46302 -2.77642,0.35553 -1.6548,-0.42614 2.20002,-1.53322 6.56777,-1.30172 8,0.42401 1.01629,1.22455 0.95779,1.5 -0.31854,1.5 -0.85988,0 -1.85782,-0.47635 -2.21764,-1.05855 z m 3.53618,-3.44145 c 0,-1.49071 0.4306,-2.35191 1,-2 0.55,0.33992 1,1.23992 1,2 0,0.76008 -0.45,1.66008 -1,2 -0.5694,0.35191 -1,-0.50929 -1,-2 z m 8.7033,-0.0314 c -1.344,-1.84662 -1.4574,-2.46858 -0.45,-2.46858 1.7125,0 3.7467,2.00884 3.7467,3.7 0,1.9891 -1.3084,1.50035 -3.2967,-1.23143 z m 15.5132,-6.49354 c -0.6784,-1.08627 -1.9046,-1.97504 -2.725,-1.97504 -0.8203,0 -1.4915,-0.48032 -1.4915,-1.06739 0,-1.33988 3.9601,-0.23134 5.9571,1.66757 0.9538,0.90693 1.1179,1.72481 0.475,2.36772 -0.6429,0.64291 -1.4082,0.29995 -2.2156,-0.99286 z m -17.3819,76.93107 c 3.2123,-5.84732 3.8121,-8.59521 1.1855,-5.43028 -1.36754,1.64773 -4.0201,2.07439 -4.0201,0.64661 0,-0.48265 0.675,-1.43775 1.5,-2.12244 0.825,-0.68469 1.485,-1.97729 1.4667,-2.87244 -0.033,-1.61985 -3.25302,-6.12756 -4.37699,-6.12756 -0.32434,0 -0.60566,3.4875 -0.62514,7.75 -0.0221,4.82461 -0.57489,8.69367 -1.46457,10.25 -1.96031,3.42921 -1.85262,4.00186 0.75,3.98813 1.71496,-0.009 3.04296,-1.45531 5.5846,-6.08202 z m 40.0104,-0.24436 c 4.2747,-3.94058 5.3587,-7.24631 4.6245,-14.10234 -0.3692,-3.44732 -0.9634,-6.70126 -1.3204,-7.231 -0.357,-0.52973 -3.9519,-1.57511 -7.9886,-2.32308 l -7.3396,-1.35993 0.5857,-2.92819 c 0.5014,-2.50746 0.3347,-2.82179 -1.1605,-2.18763 -0.9604,0.40732 -3.5102,0.85385 -5.6663,0.99231 -3.3879,0.21755 -4.1719,0.74234 -5.7739,3.86492 -1.6253,3.1681 -1.6598,3.61319 -0.2801,3.61319 1.946,0 7.7307,2.90081 8.6582,4.34179 1.1924,1.85255 -0.3142,2.84834 -2.0333,1.34394 -0.9079,-0.7945 -3.1649,-2.21211 -5.0156,-3.15024 -4.3051,-2.18227 -6.0245,-0.82244 -3.6132,2.85761 0.9395,1.43379 1.2329,2.6069 0.6521,2.6069 -0.5808,0 -1.3341,-0.45 -1.674,-1 -1.0281,-1.66347 -2.1158,-1.1387 -3.3769,1.62923 -1.5656,3.43615 -0.7631,4.06789 3.1651,2.49162 5.6367,-2.26184 6.0263,-2.0369 8.305,4.79502 1.177,3.52873 2.9875,7.04669 4.0234,7.81768 2.7325,2.03381 12.1671,0.75024 15.2284,-2.0718 z m -31.1141,-16.37544 c 1.6489,-3.18247 3.8381,-7.21976 4.8648,-8.97175 1.0267,-1.752 1.6271,-3.42505 1.3343,-3.71791 -0.2929,-0.29285 -3.2094,-0.8303 -6.4812,-1.19433 -3.9207,-0.43623 -6.7708,-1.38471 -8.3601,-2.7821 -1.32614,-1.16612 -2.10509,-1.58687 -1.73097,-0.93499 0.45348,0.79012 -0.4095,1.29015 -2.58875,1.5 -3.26291,0.31419 -3.26895,0.32507 -3.25362,5.85539 0.0145,5.21673 0.25693,5.75886 4.14757,9.27383 2.27272,2.05326 4.41437,4.85739 4.75917,6.2314 0.9343,3.72231 3.6781,1.74783 7.3088,-5.25954 z m 40.1464,-13.28631 c 2.9279,-2.2 5.6635,-4 6.0791,-4 1.1335,0 8.8661,-10.63936 10.3989,-14.30785 0.7359,-1.76133 1.6503,-6.37136 2.0319,-10.24453 0.6368,-6.46203 0.5053,-7.24822 -1.5966,-9.54432 -3.0166,-3.29528 -13.863,-9.78093 -17.4537,-10.43644 -2.5233,-0.46067 -3.1471,-9e-4 -5.6429,4.15928 l -2.8059,4.6772 2.6427,-1.73157 c 1.4535,-0.95237 2.9412,-1.40901 3.306,-1.01477 0.3647,0.39425 0.1067,0.9157 -0.5734,1.15878 -0.6802,0.24308 -2.2552,1.30347 -3.5,2.35641 l -2.2634,1.91445 3.1481,2.90157 c 4.0258,3.7105 10.4117,4.95785 13.8496,2.70525 3.7719,-2.47141 5.3782,-1.87783 1.7768,0.65654 -2.8826,2.02846 -3.1395,2.61813 -2.6099,5.9887 0.72,4.58266 -1.0251,9.11223 -4.3499,11.29076 -2.3678,1.55144 -2.3979,1.69147 -0.6489,3.01694 1.759,1.33302 1.7511,1.3913 -0.1933,1.4218 -1.1151,0.0175 -3.0892,-0.71184 -4.3868,-1.62073 -1.2976,-0.90889 -3.3914,-1.76583 -4.6529,-1.90431 -1.949,-0.21394 -2.2809,0.19482 -2.2091,2.72056 0.066,2.3209 -0.9903,3.98295 -4.8196,7.58364 l -4.9041,4.61132 3,0.70235 c 7.4267,1.7387 10.8381,1.10109 16.3773,-3.06103 z m -32.3384,-2.06303 c 0.3614,-0.58466 -0.062,-1.85759 -0.9409,-2.82874 -1.7786,-1.96529 -2.1465,-5.10825 -0.598,-5.10825 0.55,0 1,0.6199 1,1.37755 0,0.75766 0.647,1.9145 1.4377,2.57077 1.1709,0.97173 1.7227,0.64209 2.9731,-1.7759 1.5031,-2.90667 1.4782,-2.9852 -1.1877,-3.7348 -1.4977,-0.42113 -3.0606,-0.69188 -3.4731,-0.60166 -1.4506,0.31727 -0.7314,-1.90586 0.8076,-2.49643 1.2642,-0.48515 1.123,-0.82885 -0.75,-1.82523 -2.0705,-1.10138 -2.6364,-0.88257 -5.5066,2.12908 -4.0549,4.25467 -10.89615,4.97844 -15.92318,1.68461 -2.15527,-1.41219 -2.37782,-1.41123 -2.37782,0.0103 0,0.86258 1.0125,2.27952 2.25,3.14875 7.0154,4.92766 10.171,6.52023 13.0444,6.58324 1.7631,0.0387 4.1056,0.45702 5.2056,0.92971 2.7359,1.17565 3.2786,1.16718 4.0389,-0.063 z m -11.5389,-4.93699 c 0,-0.55 0.45,-1 1,-1 0.55,0 1.9,-0.9 3,-2 1.4857,-1.48571 2,-1.62886 2,-0.5567 0,0.79381 -1.0001,2.14381 -2.2225,3 -2.5669,1.79789 -3.7775,1.97631 -3.7775,0.5567 z m 23.2821,3.63259 c 1.7698,-0.75207 4.4153,-2.49342 5.8788,-3.86965 2.6148,-2.45896 2.6582,-2.71071 2.5102,-14.5537 -0.157,-12.56134 -0.6144,-13.20201 -3.184,-4.45924 -0.8486,2.8875 -1.987,5.25 -2.5297,5.25 -0.5428,0 -1.8618,1.43879 -2.9312,3.19731 l -1.9444,3.19732 3.0265,2.70203 c 3.6214,3.2332 2.2765,4.78049 -1.5434,1.77571 -1.4686,-1.15521 -2.8162,-1.93658 -2.9946,-1.73637 -0.5963,0.66895 -4.5703,8.77675 -4.5703,9.32416 0,1.03725 5.0908,0.52856 8.2821,-0.82757 z m 5.7179,-9.51456 c 0,-0.55 0.45,-1.27811 1,-1.61803 0.55,-0.33992 1,-0.16803 1,0.38197 0,0.55 -0.45,1.27811 -1,1.61803 -0.55,0.33992 -1,0.16803 -1,-0.38197 z m -1.6992,-3.74645 c 0.6125,-1.99563 1.2893,-3.10132 1.504,-2.45709 0.5639,1.69161 -0.6854,6.08551 -1.7303,6.08551 -0.488,0 -0.3862,-1.63279 0.2263,-3.62842 z m -37.80026,10.00516 c -2.0696,-1.51333 -3.65426,-0.94091 -2.89228,1.04478 0.31322,0.81624 1.3515,1.14026 2.60418,0.81267 1.97508,-0.51649 1.99005,-0.61296 0.2881,-1.85745 z m 56.36766,-8.73646 c 2.1694,-2.30922 2.684,-4.4795 2.315,-9.76247 -0.1578,-2.25792 -0.759,-2.71427 -4.3279,-3.28496 -2.2796,-0.36453 -5.3701,-1.53528 -6.8677,-2.60167 l -2.7229,-1.9389 -0.6405,4.67249 c -0.3522,2.56986 -0.3523,6.84454 -10e-5,9.49928 0.5447,4.10608 0.9162,4.73924 2.4879,4.24039 1.0162,-0.32252 2.6442,-0.12265 3.6178,0.44417 2.6495,1.5425 3.7021,1.32501 6.1384,-1.26833 z m -26.8682,0.35972 c 0,-0.55 -0.8734,-1 -1.941,-1 -1.0675,0 -2.2191,0.45 -2.559,1 -0.3505,0.56716 0.4896,1 1.941,1 1.4074,0 2.559,-0.45 2.559,-1 z"
       id="path3268"
       inkscape:connector-curvature="0" />
  </g>
</svg>
