<?xml version="1.0" encoding="UTF-8" standalone="no"?>
<!-- Created with Inkscape (http://www.inkscape.org/) -->

<svg
   xmlns:dc="http://purl.org/dc/elements/1.1/"
   xmlns:cc="http://creativecommons.org/ns#"
   xmlns:rdf="http://www.w3.org/1999/02/22-rdf-syntax-ns#"
   xmlns:svg="http://www.w3.org/2000/svg"
   xmlns="http://www.w3.org/2000/svg"
   xmlns:sodipodi="http://sodipodi.sourceforge.net/DTD/sodipodi-0.dtd"
   xmlns:inkscape="http://www.inkscape.org/namespaces/inkscape"
   width="486.6181"
   height="899.80511"
   id="svg2"
   version="1.1"
   inkscape:version="0.48.3.1 r9886"
   sodipodi:docname="Leg-lift-1.svg">
  <defs
     id="defs4" />
  <sodipodi:namedview
     id="base"
     pagecolor="#ffffff"
     bordercolor="#666666"
     borderopacity="1.0"
     inkscape:pageopacity="0.0"
     inkscape:pageshadow="2"
     inkscape:zoom="0.7"
     inkscape:cx="808.73557"
     inkscape:cy="450.59108"
     inkscape:document-units="px"
     inkscape:current-layer="layer1"
     showgrid="false"
     fit-margin-top="0"
     fit-margin-left="0"
     fit-margin-right="0"
     fit-margin-bottom="0"
     inkscape:window-width="1855"
     inkscape:window-height="1056"
     inkscape:window-x="65"
     inkscape:window-y="24"
     inkscape:window-maximized="1" />
  <metadata
     id="metadata7">
    <rdf:RDF>
      <cc:Work
         rdf:about="">
        <dc:format>image/svg+xml</dc:format>
        <dc:type
           rdf:resource="http://purl.org/dc/dcmitype/StillImage" />
        <dc:title></dc:title>
      </cc:Work>
    </rdf:RDF>
  </metadata>
  <g
     inkscape:label="Ebene 1"
     inkscape:groupmode="layer"
     id="layer1"
     transform="translate(-504.66283,-470.22289)">
    <path
       style="fill:#000000"
       d=""
       id="path3414"
       inkscape:connector-curvature="0" />
    <path
       style="fill:#000000"
       d=""
       id="path3412"
       inkscape:connector-curvature="0" />
    <path
       style="fill:#000000"
       d="m 802.96846,1368.5944 c -3.85,-0.7038 -10.82462,-2.4913 -15.49916,-3.9722 -8.18798,-2.594 -9.0339,-2.6672 -23.10428,-1.9974 -21.43768,1.0204 -32.30959,-1.7897 -38.30461,-9.9008 -1.78998,-2.4217 -2.07539,-4.1539 -1.97726,-12 0.0977,-7.8141 0.65814,-10.7218 3.79094,-19.6696 5.35982,-15.3086 6.58212,-25.3316 6.58528,-54 0.003,-27.394 -1.05362,-36.2386 -6.21225,-52 -2.98,-9.1049 -3.11008,-10.2071 -3.12781,-26.5 -0.0255,-23.4164 1.91087,-32.2226 11.08477,-50.4118 l 6.76438,-13.4119 -0.0722,-21.5881 -0.0722,-21.5882 -5.13458,-16 c -2.82401,-8.8 -6.30372,-20.725 -7.73268,-26.5 -4.70472,-19.0136 -4.05503,-17.5536 -8.38918,-18.8522 l -3.90972,-1.1714 -0.67846,-14.7382 c -0.37315,-8.10602 -0.80759,-20.13822 -0.96541,-26.73826 -0.31589,-13.20983 -1.61562,-18.74217 -7.04797,-30 -6.49484,-13.45969 -7.81095,-30.4814 -3.95728,-51.18093 1.58742,-8.52664 2.90219,-11.26147 10.48954,-21.81907 3.16211,-4.4 6.7467,-10.025 7.96574,-12.5 1.21905,-2.475 3.74803,-6.09837 5.61996,-8.05193 l 3.40351,-3.55192 -3.72932,-8.44808 -3.72932,-8.44807 -0.5352,-27 c -0.50759,-25.60755 -0.65098,-27.20552 -2.78021,-30.98519 -1.87767,-3.33309 -2.24502,-5.49877 -2.24502,-13.23512 0,-7.66978 -0.52756,-10.83263 -3.08828,-18.51481 -2.25417,-6.76253 -3.37925,-12.64452 -4.16559,-21.77788 -1.03741,-12.04962 -0.97463,-12.98029 1.69541,-25.13141 2.73033,-12.4255 2.74814,-12.72643 1.16559,-19.6844 -3.185,-14.00337 -1.21148,-25.96697 6.29632,-38.1687 2.18903,-3.55762 3.69345,-8.01076 5.02247,-14.86667 2.80696,-14.48008 10.23176,-34.09051 16.14671,-42.64678 3.53378,-5.1118 5.90645,-10.18758 8.4376,-18.05032 6.0633,-18.835 5.91988,-17.18036 2.30472,-26.58888 -2.87298,-7.47698 -3.20947,-9.44746 -3.21887,-18.84984 -0.009,-8.56817 0.37872,-11.35918 2.10503,-15.16987 5.06322,-11.17663 16.66924,-24.42761 25.21269,-28.78615 11.4514,-5.84207 31.65789,-5.00564 48.61194,2.01226 14.11454,5.84252 23.9882,17.46583 28.9071,34.02956 2.02101,6.80549 2.04686,24.4402 0.0592,40.37619 -0.82064,6.5791 -1.49204,17.06395 -1.49204,23.29966 0,13.10485 -1.21128,16.59303 -6.5343,18.81713 -4.83524,2.02029 -9.92169,1.72789 -17.9657,-1.03279 -9.07365,-3.11405 -9.87161,-2.58037 -14.93225,9.98669 l -3.93226,9.76494 2.93226,2.35859 c 1.61274,1.29723 5.30429,3.25252 8.20345,4.34509 14.39298,5.42411 22.158,11.74845 26.95134,21.95096 2.38889,5.08468 3.3922,6.10484 8.73811,8.88486 11.25293,5.85184 17.24634,10.88842 23.60689,19.83815 3.32112,4.67304 7.21272,10.89082 8.64798,13.81727 l 2.60958,5.32082 2.111,-3.13253 c 2.89756,-4.29967 10.23158,-9.65884 21.00142,-15.34628 7.9197,-4.18232 10.89137,-6.61733 23.56597,-19.31018 7.9769,-7.9884 15.3819,-16.19362 16.4556,-18.23381 1.858,-3.53071 1.8887,-4.34981 0.6375,-17 -2.5704,-25.98858 -2.5977,-24.80336 0.9006,-39.08307 1.7796,-7.26412 4.0452,-15.00749 5.0346,-17.20749 0.9895,-2.2 2.7012,-6.475 3.8038,-9.5 3.3261,-9.12569 7.8454,-18.40135 9.849,-20.21455 2.6213,-2.37225 5.8508,-1.27333 8.4054,2.86017 1.8039,2.9187 2.0613,4.63259 1.7613,11.72713 -0.2964,7.00968 -0.8595,9.29389 -3.6013,14.60852 -1.7875,3.46481 -3.25,6.63767 -3.25,7.05079 0,0.41312 1.1547,1.04092 2.5659,1.39512 1.6921,0.42469 3.0712,1.85341 4.0497,4.19528 1.6572,3.96631 2.1327,15.43426 0.9337,22.52233 -0.6331,3.74307 -0.1556,7.11947 2.4601,17.39215 2.5909,10.17528 3.1245,13.90848 2.6443,18.5019 -0.7729,7.39546 -4.0188,15.64882 -7.6537,19.46116 -1.5732,1.65 -3.82,5.475 -4.9928,8.5 -4.5497,11.73395 -20.4018,42.73418 -26.0326,50.90904 -3.2546,4.72503 -11.4428,14.48518 -18.196,21.68922 -6.75323,7.20405 -13.53614,14.74263 -15.07314,16.75241 -3.18714,4.16749 -8.71058,7.3067 -14.47917,8.22914 -4.59807,0.73526 -8.75403,-0.87024 -22.26101,-8.59969 -6.63516,-3.797 -10.53538,-5.31038 -16.17502,-6.27629 l -7.43158,-1.27282 -3.59925,8.03449 c -1.97959,4.41898 -3.87657,10.40289 -4.21551,13.29758 -0.33895,2.8947 -1.94566,9.1947 -3.57047,14 -3.60788,10.67016 -4.21224,14.88113 -3.98705,27.78053 0.10967,6.28226 -0.39495,12.27428 -1.34745,16 -0.83752,3.27601 -2.03214,10.66563 -2.6547,16.42136 -0.62256,5.75573 -1.39937,10.8977 -1.72624,11.42659 -0.52371,0.84738 -1.21983,11.22536 -1.55004,23.10844 -0.0611,2.2 0.95882,10.10341 2.26656,17.56314 l 2.37772,13.56314 -2.7926,8.93686 c -2.751,8.80376 -2.78588,9.23473 -2.34169,28.93686 0.34224,15.18047 0.10615,21.44586 -0.97975,26 -1.42138,5.9611 -1.23292,28.21994 0.39913,47.14276 l 0.61605,7.1427 -3.19426,0.7016 c -1.75684,0.3858 -3.36332,1.2216 -3.56995,1.8573 -0.20663,0.6356 -1.29012,10.1557 -2.40775,21.1557 -1.73259,17.0527 -2.62586,21.9158 -6.06154,33 -3.05669,9.8615 -4.38483,16.4152 -5.50132,27.1462 -1.78524,17.1586 -3.31711,22.0678 -9.31558,29.8538 -4.25328,5.5207 -4.72683,6.7188 -5.9286,15 -0.71835,4.95 -1.7105,17.775 -2.20478,28.5 -0.85051,18.4545 -1.20205,20.8383 -6.55712,44.4641 -3.11213,13.7303 -5.69452,26.2337 -5.73863,27.7853 -0.17774,6.2513 13.77148,19.9483 27.22615,26.7337 12.11902,6.1118 29.84726,13.0926 37.07892,14.6005 9.04925,1.8868 9.23623,1.9807 12.81766,6.4373 6.18551,7.697 4.44747,21.3247 -3.24828,25.4691 -3.35241,1.8054 -8.3356,1.7812 -23.95429,-0.1164 -2.6433,-0.3212 -6.84524,-0.2781 -9.33765,0.096 -4.44843,0.6671 -4.49859,0.7161 -2.73166,2.6685 3.27204,3.6156 17.78831,10.8622 21.75885,10.8622 8.05247,0 13.60135,4.3574 14.27446,11.2094 0.34252,3.4867 -0.1343,5.158 -2.54489,8.9198 -2.38498,3.7219 -4.63791,5.5184 -11.49472,9.166 -12.34905,6.5693 -25.74573,8.2375 -42.1184,5.2448 z m 26.5685,-5.1371 c 12.44979,-3.6607 20.9315,-8.2623 20.9315,-11.356 0,-2.2011 -3.73746,-4.8094 -7.64015,-5.3321 -1.61964,-0.2169 -2.85985,-0.997 -2.85985,-1.7989 0,-2.4373 4.40148,-2.177 9.65703,0.571 5.66757,2.9635 6.98271,2.6309 4.81634,-1.218 -1.23101,-2.187 -2.81025,-2.9049 -9.6004,-4.3641 -10.30371,-2.2143 -17.29363,-5.7599 -24.31903,-12.3358 -8.16449,-7.6422 -13.61355,-11.6813 -22.44712,-16.6391 -4.34125,-2.4364 -10.02938,-6.4549 -12.64029,-8.9299 -6.71745,-6.3678 -8.12466,-12.9578 -7.39168,-34.6155 0.59958,-17.716 2.82043,-32.312 7.97057,-52.3845 5.62779,-21.9342 6.42566,-27.376 7.45845,-50.8695 0.54085,-12.3032 1.44556,-24.0859 2.01046,-26.1837 0.56489,-2.0979 2.9707,-6.2066 5.34624,-9.1306 2.37553,-2.9239 4.80689,-6.235 5.40301,-7.358 1.366,-2.5732 5.23642,-22.4436 5.23642,-26.8834 0,-1.828 1.99674,-11.5926 4.43719,-21.6992 5.84589,-24.2094 9.21177,-48.8934 6.9724,-51.1327 -0.32472,-0.3247 -2.46222,0.091 -4.75,0.9248 -2.28777,0.8333 -7.98459,2.308 -12.65959,3.277 l -8.5,1.7618 -0.60251,10.5036 c -0.33138,5.777 -0.92044,11.018 -1.30902,11.6467 -1.75409,2.8382 -2.18677,0.3488 -1.78116,-10.2478 l 0.43602,-11.3911 -13.87167,-0.6517 c -7.62941,-0.3584 -18.32637,-1.3152 -23.77101,-2.1263 -5.44465,-0.811 -10.02261,-1.3513 -10.17325,-1.2007 -1.07423,1.0743 3.41819,23.3529 6.64373,32.9473 4.48197,13.3317 4.37876,12.8135 2.55201,12.8135 -2.71967,0 -7.85249,-14.5857 -11.61213,-32.9977 -2.74141,-13.4255 -2.77302,-13.5026 -5.90069,-14.3996 -1.72949,-0.496 -3.3809,-0.6655 -3.66981,-0.3766 -0.28891,0.2889 0.15722,3.3937 0.9914,6.8996 0.83419,3.5058 2.84618,12.4493 4.4711,19.8743 1.62492,7.425 4.33648,17.2432 6.02569,21.8182 l 3.0713,8.3182 0,21.7753 c 0,24.8334 0.003,24.8167 -9.26408,44.3136 -7.5625,15.9099 -9.01047,23.7272 -8.52801,46.0412 0.35643,16.4846 0.51432,17.6245 3.63366,26.2335 4.34861,12.0015 5.3968,24.7539 4.95053,60.2289 l -0.34936,27.7711 -4.32829,15.9616 c -4.5446,16.7594 -4.83377,21.327 -1.72869,27.3056 3.92751,7.5622 11.81986,9.5137 34.67828,8.5747 15.51027,-0.6371 15.60074,-0.6282 26.19139,2.5839 17.46254,5.2963 26.60684,6.1841 35.81307,3.4771 z m 5.52134,-10.3036 c -1.12097,-1.2387 -1.35053,-2.1292 -0.65904,-2.5566 1.3188,-0.815 6.27703,1.5137 6.82869,3.2073 0.65117,1.999 -4.23836,1.4833 -6.16965,-0.6507 z m -86.53253,-21.042 c -1.06848,-1.0685 -2.48078,-3.7387 -3.13844,-5.9338 -1.25638,-4.1934 -0.92837,-6.234 2.67207,-16.6235 0.953,-2.75 1.88172,-5.591 2.06383,-6.3134 0.18211,-0.7224 0.78428,-1.0333 1.33817,-0.691 1.67031,1.0323 1.13497,8.0041 -0.97098,12.6452 -3.44998,7.6031 -2.45844,11.983 3.49108,15.421 2.19744,1.2699 1.206,3.4382 -1.57206,3.4382 -1.06754,0 -2.81519,-0.8742 -3.88367,-1.9427 z m 1.35868,-96.4156 c -0.28668,-0.7471 1.3411,-4.3286 3.61729,-7.9589 6.87898,-10.9713 10.16758,-23.6022 10.93304,-41.9918 0.0185,-0.445 0.48368,-0.5309 1.03368,-0.191 1.45564,0.8996 1.21675,13.6177 -0.44848,23.8768 -1.49519,9.2114 -4.40726,16.363 -9.55823,23.4737 -3.12737,4.3172 -4.69134,5.0999 -5.5773,2.7912 z m 34.58401,-93.5471 c 0,-0.498 -1.54501,-2.7547 -3.43336,-5.0149 -1.88835,-2.2602 -4.13835,-6.5345 -5,-9.4985 -2.04664,-7.0402 -2.00793,-8.8123 0.18336,-8.3929 1.15183,0.2204 2.14997,1.9514 2.92016,5.0641 1.20033,4.851 3.89705,9.0557 7.36661,11.4859 2.74297,1.9212 2.71593,7.2617 -0.0368,7.2617 -1.1,0 -2,-0.4074 -2,-0.9054 z m -26.9995,-16.3446 c 2.8e-4,-0.6875 0.94357,-3.725 2.09621,-6.75 2.30514,-6.0497 2.11036,-12.7071 -0.63664,-21.7597 -1.83213,-6.0378 -1.85087,-9.2403 -0.0541,-9.2403 4.26852,0 7.39055,26.0073 4.14287,34.5112 -1.20739,3.1615 -2.28121,4.4888 -3.63158,4.4888 -1.05451,0 -1.91706,-0.5625 -1.91679,-1.25 z m 19.9995,-16.3449 c 0,-1.9409 2.22834,-4.7895 8.84219,-11.3033 8.40933,-8.2822 10.23548,-11.1285 12.73664,-19.8518 0.72055,-2.5131 3.42174,-1.3211 3.39921,1.5 -0.0332,4.1502 -3.00832,9.8698 -9.84607,18.9285 -9.36177,12.4025 -15.13197,16.4929 -15.13197,10.7266 z m 81.72345,205.13 c 4.45505,-5.1793 1.13877,-9.49 -7.32423,-9.5204 -5.16749,-0.019 -10.06062,-1.69 -10.83194,-3.7 -0.64032,-1.6686 0.78821,-1.576 8.93272,0.5791 5.36407,1.4194 12.5,1.4047 12.5,-0.026 0,-0.6226 -0.93717,-2.6483 -2.0826,-4.5017 -2.14091,-3.464 -2.92202,-3.8014 -11.34726,-4.9 -11.40128,-1.4867 -37.15332,-12.1081 -49.76724,-20.5264 -3.46659,-2.3136 -8.46839,-6.284 -11.1151,-8.8232 l -4.81219,-4.6167 0.31219,15.5364 0.3122,15.5365 3.56029,4.9635 c 2.57588,3.5912 7.13489,7.3829 16.48837,13.7136 13.95242,9.4433 14.08303,9.4827 25.18278,7.6049 5.68643,-0.962 7.56794,-0.8903 11.76856,0.4489 2.80472,0.8941 7.37943,1.4643 10.41944,1.2987 4.48305,-0.2442 5.83145,-0.7742 7.80401,-3.0674 z m -8.72345,-17.5351 c 0,-0.55 1.125,-1 2.5,-1 1.375,0 2.5,0.45 2.5,1 0,0.55 -1.125,1 -2.5,1 -1.375,0 -2.5,-0.45 -2.5,-1 z M 796.1461,1020.9703 c 6.65767,-0.9227 21.87318,-4.2234 30.19945,-6.5511 l 2.37709,-0.6646 -0.68765,-19.10012 c -0.61752,-17.15222 -0.47254,-20.17098 1.42164,-29.60014 1.77361,-8.82894 2.07795,-13.6034 1.91234,-30 -0.1357,-13.4353 0.18172,-20.43225 1.02061,-22.49748 3.35852,-8.26823 4.00101,-14.36921 2.45867,-23.34708 -0.81782,-4.76049 -1.91661,-10.29255 -2.44176,-12.29347 l -0.95482,-3.63802 -5.1044,1.49631 c -3.81451,1.11819 -8.75257,1.40198 -19.54104,1.12301 -14.05538,-0.36344 -14.42403,-0.32008 -13.95951,1.64172 0.26242,1.10825 1.22069,7.19001 2.12949,13.51501 2.66206,18.5272 4.63939,25.01645 15.08313,49.5 3.62851,8.50642 3.85622,9.65674 4.15223,20.97524 0.17446,6.67076 0.96515,14.17065 1.78504,16.93151 1.95366,6.57869 1.88673,7.26929 -0.9827,10.13869 -1.77371,1.7737 -3.54516,2.4546 -6.38645,2.4546 -3.92839,0 -3.93252,0 -4.61336,4.75 -0.40568,2.82782 -2.07032,6.86832 -4.11354,9.98462 -1.88766,2.879 -3.4321,5.8558 -3.4321,6.6151 0,3.0504 -4.06722,6.6503 -7.51356,6.6503 -1.85262,0 -3.64652,0.45 -3.98644,1 -0.93659,1.5154 -6.77488,1.1962 -9.20097,-0.5031 -1.18028,-0.8268 -2.64965,-3.0293 -3.26525,-4.8946 -0.62288,-1.8873 -1.97081,-3.6141 -3.03931,-3.8935 -1.93357,-0.5057 -5.40521,-6.9157 -6.44075,-11.8922 -0.3091,-1.4854 -1.45508,-2.96802 -2.56701,-3.32092 -4.62051,-1.4665 -4.90884,-3.9829 -4.30627,-37.58286 0.7392,-41.21863 0.74555,-38.62035 -0.10973,-44.91288 -1.05024,-7.72688 -5.01122,-23.56084 -7.37964,-29.5 -2.96276,-7.42957 -11.07858,-24.65953 -12.31985,-26.15517 -1.93782,-2.33493 -4.56047,0.30845 -10.33076,10.41239 -3.06021,5.35853 -7.33065,12.59042 -9.48985,16.07086 -4.79289,7.72572 -7.06095,16.85215 -7.78981,31.34539 -0.63066,12.54044 0.22558,16.75968 5.92255,29.18398 4.65348,10.14859 5.27589,14.09131 6.81062,43.14259 1.3207,24.99982 1.5079,26.06152 4.8285,27.38282 6.11167,2.4321 39.66813,6.8408 53.35517,7.0099 4.7727,0.059 12.1977,-0.3806 16.5,-0.9768 z m -13.91315,-5.1659 c 0.55516,-0.6875 1.32067,-3.275 1.70114,-5.75 0.38047,-2.475 1.55635,-6.8794 2.61307,-9.7876 1.05671,-2.9081 1.9213,-7.26622 1.9213,-9.68462 0,-2.4184 0.71078,-7.689 1.5795,-11.71246 1.1505,-5.32844 1.40572,-9.82778 0.93967,-16.56538 -0.79157,-11.44352 0.63215,-12.16225 3.00095,-1.51495 1.60537,7.21581 1.61211,8.34407 0.10038,16.80753 -0.89127,4.98986 -1.6205,11.10526 -1.6205,13.58976 0,2.4846 -1.125,7.82502 -2.5,11.86772 -2.96956,8.7308 -3.22758,12.2898 -0.85718,11.8233 0.90355,-0.1778 1.98672,-0.9983 2.40704,-1.8233 10.17662,-19.97442 13.36917,-32.59862 12.68458,-50.15825 -0.2432,-6.238 -0.80118,-12.41456 -1.23995,-13.72569 -0.60235,-1.79993 -0.46585,-2.27324 0.55726,-1.9322 0.74527,0.24842 2.18443,3.57117 3.19814,7.38388 1.46839,5.5228 1.75406,9.40948 1.40508,19.11684 -0.46313,12.8829 0.31221,15.2191 3.7795,11.3878 1.34441,-1.4856 1.42206,-2.2879 0.4532,-4.6826 -0.64305,-1.58941 -1.48778,-8.96484 -1.87717,-16.38984 -0.67337,-12.83968 -0.90292,-13.94021 -4.69309,-22.5 -6.18802,-13.9751 -12.00011,-31.25193 -13.28819,-39.5 -0.64419,-4.125 -2.25389,-12.675 -3.57713,-19 -5.07191,-24.24351 -6.29804,-42.32127 -4.03279,-59.45846 2.43434,-18.41649 2.12402,-26.13298 -1.58036,-39.29793 -3.0342,-10.78318 -3.24452,-11.18654 -5.00314,-9.59501 -3.73059,3.37613 -2.06315,-4.29691 3.28228,-15.10404 l 5.11808,-10.3475 -0.33771,-16.34853 c -0.18575,-8.99169 -0.2148,-20.28115 -0.0646,-25.08768 0.32626,-10.43817 0.14779,-10.45473 -8.33388,-0.77331 -3.3,3.76679 -6.5625,6.88556 -7.25,6.93059 -0.76858,0.0503 -1.25,-1.21416 -1.25,-3.28327 0,-3.59846 2.49926,-7.47335 7.49961,-11.62749 13.90659,-11.55318 18.21489,-18.21396 19.17298,-29.64207 0.80229,-9.5696 -2.25978,-21.38771 -8.18555,-31.59233 -4.54385,-7.8249 -5.25011,-9.77297 -3.54311,-9.77297 1.13944,0 11.12338,13.18059 13.46543,17.77679 2.21623,4.34926 3.9595,19.04994 3.26159,27.50436 -0.42123,5.10274 -1.34705,8.15714 -3.74054,12.34054 l -3.18077,5.55939 3.2705,6.50845 c 3.63778,7.23934 7.62653,10.73342 17.72989,15.53111 7.64003,3.62794 8.22288,5.77936 1.56572,5.77936 -6.33596,0 -12.04931,-2.96771 -18.16755,-9.43685 -4.73913,-5.01093 -5.12785,-5.22412 -5.86194,-3.21498 -0.43243,1.18351 -0.66823,11.45751 -0.52401,22.83112 l 0.26222,20.67929 -4.04958,7.68916 -4.04958,7.68915 1.64511,7.13155 c 0.90481,3.92236 2.49663,10.31026 3.53736,14.19535 2.24288,8.37268 2.33441,15.24145 0.39225,29.43621 -0.79015,5.775 -1.45089,15.96372 -1.46832,22.64159 -0.0307,11.77508 0.0362,12.15807 2.21832,12.6874 1.2375,0.3002 10.45403,0.57573 20.48119,0.61229 l 18.23118,0.0665 2.51882,-4.97064 c 1.7314,-3.41675 2.52532,-6.62224 2.53965,-10.25388 0.0115,-2.90578 0.71747,-8.20824 1.56891,-11.78324 1.39683,-5.86499 3.69905,-37.91442 2.79507,-38.91054 -0.20491,-0.22579 -1.25764,0.39046 -2.3394,1.36944 -1.55888,1.41076 -2.89984,1.64006 -6.46485,1.10545 -4.01224,-0.60167 -4.73794,-0.39857 -6.71963,1.88057 -1.22188,1.40529 -2.59046,2.55508 -3.04128,2.55508 -1.60111,0 -0.78454,-2.92931 1.58425,-5.68318 2.03849,-2.36989 3.17219,-2.79639 7.45808,-2.80577 4.59699,-0.0101 5.2949,-0.32765 7.7153,-3.51105 4.36751,-5.74432 9.42271,-17.46153 9.42271,-21.84048 0,-3.80434 -0.18663,-4.03513 -4.4334,-5.48215 -4.27169,-1.45551 -4.48716,-1.43158 -5.90731,0.656 -1.38071,2.02961 -1.52004,2.05105 -2.20335,0.33907 -1.37401,-3.4425 3.98542,-5.92165 10.04406,-4.64614 2.46963,0.51992 3.50233,-0.36874 6.40454,-5.51117 3.48511,-6.17527 3.88868,-10.82677 1.95515,-22.53473 l -1.14031,-6.90484 -2.49455,1.96221 c -5.85742,4.60744 -6.87431,1.2628 -1.77435,-5.83598 5.28952,-7.36262 6.33459,-12.60999 4.38713,-22.02809 -3.18489,-15.40253 -10.3466,-29.69045 -20.88861,-41.67372 -6.43338,-7.31292 -9.20187,-12.16262 -10.94735,-19.177 -1.3414,-5.39052 -6.22664,-9.75781 -9.92707,-8.87457 -8.18835,1.95445 -10.65307,1.81823 -13.6416,-0.75393 -3.34998,-2.88326 -2.68799,-4.58735 1.10985,-2.85694 2.7529,1.25431 6.40671,1.50277 8.76895,0.59629 1.29717,-0.49777 1.29287,-1.03073 -0.0356,-4.41277 -1.46011,-3.71707 -1.42332,-3.96157 1.09236,-7.25979 1.43184,-1.87725 3.65579,-6.64144 4.9421,-10.5871 l 2.33875,-7.17392 -2.07573,-1.36007 c -1.14166,-0.74804 -5.00026,-2.8301 -8.57468,-4.6268 -9.20265,-4.62574 -11.84226,-6.69686 -15.11785,-11.86194 -2.50088,-3.94348 -2.87182,-5.47397 -2.81081,-11.59724 0.13155,-13.20392 3.39099,-13.87004 4.09916,-0.83774 0.34568,6.36149 0.74392,7.58562 3.36134,10.33219 1.63307,1.71365 7.24421,5.15451 12.46921,7.64638 5.225,2.49186 12.51177,6.31588 16.19283,8.49781 8.70553,5.16016 16.70934,7.32456 21.38251,5.78228 5.74539,-1.89615 6.42078,-3.82592 6.45637,-18.44765 0.0174,-7.16512 0.68366,-17.52749 1.48053,-23.02749 1.85919,-12.83223 1.85765,-21.3825 -0.006,-31.16203 -5.50176,-28.87642 -29.29883,-44.01548 -61.80076,-39.31598 -8.99447,1.30052 -13.22999,3.61654 -20.01358,10.94364 -6.86206,7.41184 -9.99506,12.65324 -12.24124,20.4792 -2.25741,7.86507 -1.56403,20.84602 1.52527,28.55517 2.71064,6.76424 2.36497,10.29426 -2.61418,26.69644 -2.41818,7.9659 -5.16024,14.40458 -8.43379,19.80356 -2.90485,4.79089 -6.87191,13.75306 -9.8895,22.34182 -2.77138,7.88801 -5.03887,14.54134 -5.03887,14.78519 0,0.24385 0.9,-0.0383 2,-0.62701 1.78474,-0.95516 2,-0.76049 2,1.80871 0,1.86586 -2.44287,6.65234 -6.94144,13.60084 -8.95706,13.83509 -10.5913,18.54408 -10.44283,30.09045 0.0989,7.68854 0.58965,10.16574 3.36805,17 3.9713,9.76856 4.86786,14.5 2.7476,14.5 -0.81809,0 -2.16243,-1.0125 -2.98742,-2.25 -1.45259,-2.17891 -1.56851,-2.02883 -3.66896,4.75 -1.59827,5.15814 -2.16651,9.546 -2.15959,16.67608 0.0108,11.1406 0.20063,12.20778 4.32664,24.32392 2.34736,6.89305 3.10835,10.9899 3.25063,17.5 0.10218,4.675 0.25812,9.44273 0.34655,10.59496 0.0884,1.15223 1.96077,4.87992 4.16077,8.28375 4.07685,6.30768 5.07468,10.12129 2.64822,10.12129 -2.20449,0 -2.73772,13.90773 -1.12136,29.2473 2.0328,19.29172 2.74587,21.76154 10.32225,35.7527 9.10824,16.82 11.85532,23.31101 14.66132,34.64287 2.16183,8.73046 2.65021,11.66182 3.94416,23.67377 0.52691,4.89147 2.13032,6.82565 5.05074,6.09267 3.49315,-0.87673 3.69564,0.89119 0.54049,4.71894 -4.50778,5.46872 -5.25818,10.06432 -4.46722,27.3582 0.49088,10.73279 0.30634,18.19153 -0.61638,24.91221 -1.43176,10.42828 -0.72243,16.11868 2.23982,17.96798 2.61481,1.6325 3.24139,0.1866 3.98555,-9.1967 1.1982,-15.1085 2.0278,-21.16994 2.89742,-21.16994 1.78321,0 3.08516,4.35063 2.50202,8.36078 -0.33105,2.27657 -1.05055,8.41422 -1.59889,13.63926 -0.54834,5.225 -1.25414,11.525 -1.56845,14.00002 -0.71123,5.6005 0.82707,10 3.49654,10 2.31864,0 3.03568,-0.9887 4.2559,-5.868 1.11746,-4.4684 3.14646,-33.16822 2.99629,-42.38206 -0.0605,-3.7125 0.21435,-6.74615 0.61078,-6.74145 0.39644,0.005 1.51665,2.5922 2.48937,5.75 1.64496,5.3402 1.65992,6.30055 0.21408,13.74145 -0.91128,4.68985 -1.31181,10.06884 -0.968,13.00004 0.32256,2.75 0.1679,7.025 -0.34369,9.5 -1.60274,7.75382 -3.37203,14.43102 -4.31195,16.27302 -1.34862,2.6429 0.95531,6.2312 4.26855,6.648 0.34515,0.043 1.08177,-0.4835 1.63693,-1.171 z m 18.43448,-176.50006 c -1.36426,-3.01123 -1.69897,-6.80358 -1.69897,-19.25 l 0,-15.5 -3.25,-5.92758 c -3.31723,-6.05021 -4.19814,-10.05513 -2.05452,-9.34059 0.65751,0.21917 1.53433,1.66548 1.94847,3.21403 0.41415,1.54854 1.62893,3.76922 2.69953,4.93484 5.76159,6.27297 7.31395,12.21981 5.12313,19.6259 -1.75756,5.94145 -1.31011,15.42844 0.97089,20.58501 2.51341,5.68199 2.51283,5.40839 0.0115,5.40839 -1.40137,0 -2.58917,-1.1878 -3.75,-3.75 z m 13.00103,-14.45 c -2.29672,-2.29672 -0.61235,-17.29427 2.61456,-23.27983 1.54366,-2.86331 1.64637,-2.90276 1.97778,-0.75951 0.19226,1.24337 -0.33843,5.58739 -1.17929,9.6534 -1.06991,5.1735 -1.25,8.36504 -0.59992,10.63171 1.2964,4.52029 -0.13577,6.43159 -2.81313,3.75423 z m 5.8,-0.77432 c 0,-2.16327 4.55536,-5.02568 7.99809,-5.02568 1.15357,0 3.14002,-1.125 4.41433,-2.5 2.87937,-3.1069 3.58758,-3.13749 3.58758,-0.15499 0,3.05981 -2.94673,5.65499 -6.42101,5.65499 -1.51994,0 -3.9077,0.9 -5.30612,2 -3.20228,2.51891 -4.27287,2.52535 -4.27287,0.0257 z M 753.4669,810.87491 c -1.19634,-2.48725 -3.96783,-5.71091 -6.53154,-7.59717 -5.24801,-3.86125 -8.73306,-10.02265 -8.22816,-14.547 l 0.35447,-3.1764 2.06595,4.30094 c 1.13627,2.36552 5.53616,7.61706 9.77752,11.6701 6.47057,6.18325 7.65942,7.81216 7.38745,10.12194 -0.50524,4.29087 -2.54754,3.96397 -4.82569,-0.77241 z m 60.16209,-23.57057 c -0.50041,-0.9625 -1.20061,-4.225 -1.55602,-7.25 -0.49912,-4.24831 -0.24317,-6.28298 1.12466,-8.94045 2.33006,-4.52695 4.86879,-5.49392 3.7808,-1.44006 -1.06383,3.96383 -1.11889,11.13219 -0.12006,15.63051 0.6882,3.09935 0.55921,3.75 -0.74344,3.75 -0.86685,0 -1.98553,-0.7875 -2.48594,-1.75 z m -75.09145,-13.4011 c 0.0894,-2.3919 -0.17336,-7.31854 -0.58382,-10.94811 -0.6958,-6.15262 -0.55137,-6.93086 2.13422,-11.5 2.59674,-4.41798 2.86377,-5.70531 2.71048,-13.06712 -0.18793,-9.02613 -0.8271,-10.70282 -6.66847,-17.4931 -3.81596,-4.43585 -4.11711,-4.58814 -6.27584,-3.17369 -1.24714,0.81716 -2.40661,2.68891 -2.57659,4.15943 -0.40212,3.47874 -4.80906,4.55777 -4.80906,1.1775 0,-1.17441 0.46334,-3.00105 1.02964,-4.0592 1.22618,-2.29114 6.62299,-5.27733 7.99973,-4.42646 0.53385,0.32994 0.97063,-0.10167 0.97063,-0.95913 0,-2.68353 2.69849,-1.70113 4.00743,1.45893 0.68754,1.65987 2.93651,4.35362 4.9977,5.98611 3.45698,2.73798 3.83476,3.55406 4.87124,10.5229 1.64856,11.0841 1.3979,14.36716 -1.56305,20.47304 -2.1326,4.39769 -2.78201,7.48828 -3.24023,15.4206 -0.39417,6.82333 -0.97793,10.05432 -1.86979,10.3489 -0.94436,0.31192 -1.25255,-0.75336 -1.13422,-3.9206 z m 60.93092,-2.21271 c 0,-2.92917 2.65969,-5.0444 12,-9.5435 7.88905,-3.80005 9,-5.16553 9,-11.06203 0,-5.52994 5.30189,-17.19533 9.62567,-21.1787 5.72597,-5.27518 13.37433,-8.64921 13.37433,-5.9 0,0.52358 -2.01151,2.33591 -4.47002,4.02741 -2.45851,1.6915 -5.5786,4.52888 -6.93354,6.3053 -3.7232,4.88137 -7.57569,13.80043 -7.58667,17.5642 -0.0128,4.39465 -2.55952,9.6261 -5.68203,11.67204 -1.37497,0.90092 -4.69187,2.28896 -7.37088,3.08454 -2.67902,0.79559 -5.12888,1.86387 -5.44414,2.37397 -0.31526,0.5101 -1.90959,1.87905 -3.54296,3.04211 l -2.96976,2.11466 0,-2.5 z m -30.84819,-4.70361 c -3.35716,-3.6035 -7.93566,-25.93258 -5.31738,-25.93258 1.19719,0 1.69165,1.46659 3.03434,9 1.23685,6.9396 2.30819,9.6338 5.54493,13.94428 1.42246,1.89435 2.5863,3.80685 2.5863,4.25 0,1.61028 -3.9706,0.75365 -5.84819,-1.2617 z M 753.46846,631.88308 c 0,-0.64419 0.71233,-1.95838 1.58296,-2.92041 1.4562,-1.60909 1.40518,-1.84431 -0.63715,-2.93733 -1.22106,-0.65349 -3.72515,-0.94394 -5.56464,-0.64543 -3.66339,0.59449 -4.73915,-0.22912 -3.73095,-2.85644 0.53899,-1.40458 1.51588,-1.6096 5.44948,-1.14373 2.63603,0.3122 6.06837,1.22727 7.62742,2.03349 2.09667,1.08423 3.32622,1.19076 4.72277,0.40921 3.54907,-1.98616 9.67855,-2.9064 11.16144,-1.67571 2.27272,1.8862 1.59668,2.90761 -1.92447,2.90761 -2.09331,0 -5.75493,1.47271 -9.94522,4 -6.94917,4.19124 -8.74164,4.77127 -8.74164,2.82874 z m 23.48525,-29.57874 c -3.66511,-4.2625 -7.47106,-9.325 -8.45767,-11.25 -2.03397,-3.96851 -5.31408,-18.72742 -4.46679,-20.09837 1.90686,-3.08536 5.43921,2.03312 5.43921,7.88157 0,5.03314 2.46357,10.43537 7.25664,15.91267 5.22222,5.96774 9.74336,12.59595 9.74336,14.28426 0,2.74923 -3.48123,0.28683 -9.51475,-6.73013 z m 50.68558,266.65386 c 3.39178,-0.86698 3.75287,-1.32084 4.75,-5.97031 0.59354,-2.76759 1.07917,-5.38142 1.07917,-5.8085 0,-0.74967 -43.07848,-0.27074 -43.91051,0.48819 -0.22578,0.20594 0.13747,2.82305 0.80721,5.81579 l 1.21773,5.44135 5.69278,0.62635 c 3.13104,0.34449 6.36779,0.79101 7.19279,0.99228 2.40556,0.58684 19.15694,-0.55914 23.17083,-1.58515 z m 83.41404,-122.36751 c 1.37977,-0.90406 4.01342,-3.99605 5.85256,-6.87109 1.83914,-2.87504 5.5306,-6.92684 8.20323,-9.004 8.17333,-6.35231 21.93653,-23.22948 29.08143,-35.66126 3.6352,-6.325 10.7331,-20.05945 15.7731,-30.52101 5.0401,-10.46155 10.5449,-20.59398 12.2329,-22.5165 6.2556,-7.12473 6.6257,-16.90764 1.2719,-33.62096 -3.3321,-10.40234 -3.7423,-16.32077 -1.5024,-21.68149 1.1964,-2.86337 1.285,-4.57525 0.4407,-8.51202 -1.5149,-7.06384 -3.0458,-8.87571 -6.2613,-7.41062 -1.9668,0.89616 -2.5471,1.90549 -2.5644,4.46043 -0.1186,17.55528 -2.3039,31.69927 -5.0384,32.61076 -1.1273,0.37577 -1.2403,-0.62317 -0.6133,-5.42399 0.4226,-3.23653 0.8949,-8.81243 1.0496,-12.39089 0.1546,-3.57846 0.7537,-8.30346 1.3313,-10.5 0.5775,-2.19654 1.3603,-6.83065 1.7395,-10.29803 0.541,-4.94796 1.5433,-7.62556 4.6585,-12.44545 3.9692,-6.14098 5.231,-11.67942 3.1379,-13.7725 -1.5616,-1.56162 -12.2549,13.33962 -15.0858,21.02227 -1.3174,3.575 -3.041,9.65 -3.8302,13.5 -0.7893,3.85 -1.9745,8.87667 -2.6337,11.17039 -0.9805,3.4113 -0.9024,5.77752 0.4292,13 2.4676,13.38434 3.0609,22.43449 1.7821,27.18374 -0.7782,2.88988 -4.1694,7.842 -10.9024,15.92027 -13.3511,16.01879 -22.00147,23.77043 -32.48577,29.11081 -8.34029,4.24827 -19.5453,13.18003 -21.78532,17.36554 -0.60308,1.12686 -1.38209,5.20769 -1.73115,9.06852 -0.34906,3.86082 -1.08465,7.1611 -1.63465,7.33395 -2.45951,0.77295 -3.88184,-2.08455 -5.62067,-11.29209 -1.09555,-5.80116 -3.14927,-12.48015 -4.98824,-16.22239 -4.54728,-9.2536 -15.53579,-19.78971 -28.82209,-27.63548 -0.82635,-0.48797 -0.292,1.19287 1.26459,3.97793 2.89642,5.18225 2.88293,6.03969 -0.0802,5.09923 -2.35539,-0.74757 -5.16352,-5.80983 -8.68504,-15.65666 -3.6458,-10.19435 -8.64711,-16.6636 -15.77178,-20.40094 -3.12154,-1.63745 -5.96078,-2.69193 -6.30942,-2.34329 -1.2445,1.24449 6.66168,16.33641 11.43024,21.81895 12.53838,14.41569 22.01547,36.13618 22.06784,50.57721 0.016,4.41085 1.24414,5.96927 8.49691,10.78192 3.05876,2.02967 5.22066,2.64239 9.32333,2.64239 4.54664,0 5.29181,0.26033 5.00924,1.75 -0.61801,3.25805 -7.85965,2.81892 -15.55251,-0.9431 -3.7192,-1.81879 -7.09969,-3.4569 -7.51219,-3.64023 -1.13695,-0.50531 -0.89746,8.30243 0.42019,15.45361 1.38415,7.51203 3.14251,9.4386 10.82981,11.86582 3.025,0.95513 9.325,3.7486 14,6.20771 18.48175,9.72166 23.44043,10.86853 29.58487,6.84254 z m -19.0721,-4.51568 c -0.73451,-1.18847 0.77001,-4.18054 3.05619,-6.0779 0.92298,-0.76601 4.21005,-1.69281 7.30459,-2.05956 3.09455,-0.36675 6.63895,-0.99299 7.87645,-1.39164 1.69039,-0.54456 2.25,-0.3315 2.25,0.85661 0,2.20142 -3.13744,3.65182 -7.89946,3.65182 -3.05287,0 -4.86001,0.72792 -7.44776,3 -3.73527,3.27962 -4.23944,3.47782 -5.14001,2.02067 z m 12.48723,-32.78704 c 0,-0.4215 2.3625,-2.19898 5.25,-3.94996 10.02799,-6.08095 16.41175,-11.95924 21.38819,-19.69463 2.674,-4.15649 5.4243,-7.5644 6.1118,-7.57314 5.5157,-0.0701 -11.78418,21.78727 -23.23212,29.35254 -3.71745,2.45664 -9.51787,3.59333 -9.51787,1.86519 z m 74.98589,-171.11301 c 2.7516,-0.57776 2.8714,-0.78782 1.7349,-3.04165 -0.6714,-1.33157 -1.7569,-2.59777 -2.4121,-2.81378 -1.186,-0.39098 -3.4636,3.22748 -5.3363,8.47802 l -0.9833,2.75679 2.0205,-2.37938 c 1.1113,-1.30866 3.3506,-2.65866 4.9763,-3 z"
       id="path3589"
       inkscape:connector-curvature="0" />
  </g>
</svg>
