<?xml version="1.0" encoding="UTF-8" standalone="no"?>
<!-- Created with Inkscape (http://www.inkscape.org/) -->

<svg
   xmlns:dc="http://purl.org/dc/elements/1.1/"
   xmlns:cc="http://creativecommons.org/ns#"
   xmlns:rdf="http://www.w3.org/1999/02/22-rdf-syntax-ns#"
   xmlns:svg="http://www.w3.org/2000/svg"
   xmlns="http://www.w3.org/2000/svg"
   xmlns:sodipodi="http://sodipodi.sourceforge.net/DTD/sodipodi-0.dtd"
   xmlns:inkscape="http://www.inkscape.org/namespaces/inkscape"
   width="898.83014"
   height="758.2804"
   id="svg2"
   version="1.1"
   inkscape:version="0.48.3.1 r9886"
   sodipodi:docname="Leg-raises-1.svg">
  <defs
     id="defs4" />
  <sodipodi:namedview
     id="base"
     pagecolor="#ffffff"
     bordercolor="#666666"
     borderopacity="1.0"
     inkscape:pageopacity="0.0"
     inkscape:pageshadow="2"
     inkscape:zoom="0.49497475"
     inkscape:cx="410.36725"
     inkscape:cy="194.43091"
     inkscape:document-units="px"
     inkscape:current-layer="layer1"
     showgrid="false"
     fit-margin-top="0"
     fit-margin-left="0"
     fit-margin-right="0"
     fit-margin-bottom="0"
     inkscape:window-width="1378"
     inkscape:window-height="738"
     inkscape:window-x="66"
     inkscape:window-y="52"
     inkscape:window-maximized="0" />
  <metadata
     id="metadata7">
    <rdf:RDF>
      <cc:Work
         rdf:about="">
        <dc:format>image/svg+xml</dc:format>
        <dc:type
           rdf:resource="http://purl.org/dc/dcmitype/StillImage" />
        <dc:title></dc:title>
      </cc:Work>
    </rdf:RDF>
  </metadata>
  <g
     inkscape:label="Ebene 1"
     inkscape:groupmode="layer"
     id="layer1"
     transform="translate(99.836845,-198.67763)">
    <path
       style="fill:#000000"
       d="m 2.663158,955.90682 c -6.93703,-1.75372 -14.96202,-6.32423 -19.05095,-10.85019 -3.05266,-3.37893 -3.9737,-3.81192 -8.10859,-3.81192 -5.41513,0 -11.67429,-3.21958 -14.97169,-7.70113 -6.31796,-8.58687 -9.66986,-18.55572 -11.86877,-35.29887 -1.81027,-13.78394 -3.62482,-20.43198 -6.72132,-24.62517 -1.26929,-1.71884 -6.57625,-6.93967 -11.79324,-11.60184 -12.5936,-11.2543 -19.29097,-18.4914 -21.96752,-23.73787 -2.3342,-4.5754 -8.017923,-34.1446 -8.017923,-41.7127 0,-2.3324 0.51844,-7.74661 1.15207,-12.03157 l 1.152073,-7.79085 11.77348,-11.68582 c 12.65582,-12.56159 15.47673,-14.51723 22.28675,-15.45064 9.3417,-1.28043 22.92831,6.83008 24.50757,14.62977 0.65824,3.25094 1.02899,3.53933 5.34351,4.15649 6.80041,0.97276 17.86288,7.22228 25.81209,14.58204 6.05717,5.60801 7.70377999,7.95451 12.55153,17.8866 5.23425,10.72395 5.89729,11.61317 10.708,14.36067 6.87739,3.92784 14.06103,4.76488 22.13549,2.57922 11.82719,-3.20147 45.9038,-21.95359 76.077442,-41.86489 15.88443,-10.48198 26.56236,-15.73045 41.04081,-20.17259 35.24219,-10.81266 34.66622,-10.50842 39.8852,-21.06833 4.53056,-9.16696 15.51033,-21.27511 22.25181,-24.5386 3.66121,-1.77236 7.21161,-2.333 18.67151,-2.94842 15.98386,-0.85835 19.03156,-1.79849 26.31306,-8.11688 10.27797,-8.91852 34.44603,-22.63687 46.49734,-26.39296 3.90484,-1.21704 5.98434,-2.47644 6.70664,-4.06173 1.64217,-3.60416 6.17264,-5.30332 19.89641,-7.46217 15.58769,-2.45205 36.37321,-6.73563 41.63311,-8.57994 2.14273,-0.75133 5.90244,-3.21563 8.35491,-5.47624 l 4.45903,-4.11019 8.64509,0.5991 c 4.75479,0.3295 11.34508,0.86897 14.64508,1.19881 5.57153,0.5569 6.34101,0.37174 10.77535,-2.59282 5.47157,-3.65799 10.82768,-5.17202 15.38923,-4.35013 2.59692,0.4679 4.29365,-0.19655 9.45876,-3.70411 5.68711,-3.86204 7.06974,-4.34195 14.33542,-4.97581 5.49218,-0.47915 10.3373,-1.67151 15.28438,-3.76143 3.98372,-1.68295 14.24725,-5.35679 22.80783,-8.1641 12.4052,-4.06808 16.80768,-6.01921 21.68797,-9.61188 8.41687,-6.19615 17.80973,-11.31665 24.68279,-13.45579 3.17358,-0.98773 7.97006,-3.19101 10.65883,-4.89619 6.6884,-4.24165 10.22419,-5.00909 22.41944,-4.86611 10.21623,0.11977 10.69595,0.024 17.75056,-3.54377 13.70344,-6.93032 23.9146,-8.17952 37.81037,-4.62558 8.21559,2.1012 19.57416,7.34661 25.24546,11.65842 l 3.30639,2.5138 6.92196,-1.69631 c 3.80709,-0.93298 8.99121,-1.53175 11.52027,-1.3306 l 4.5983,0.36571 4.33064,-8.0133 c 2.38185,-4.40731 4.85332,-10.59632 5.49217,-13.75334 1.25419,-6.19789 5.84786,-13.88715 10.20482,-17.08168 2.45988,-1.80358 3.202,-1.86633 9,-0.76107 32.62083,6.21845 56.30861,15.78517 68.27138,27.57256 11.38259,11.21573 15.35892,23.64336 14.17839,44.31312 -1.52087,26.62848 -7.37071,40.07932 -18.80244,43.23339 l -3.32826,0.91828 0.34281,13.88616 c 0.41332,16.74261 -1.08495,24.01791 -6.62286,32.15928 -4.67365,6.87081 -10.83084,11.04751 -21.45013,14.5506 -12.17146,4.01511 -16.3405,6.40251 -27.41239,15.69772 -15.77954,13.24745 -22.70192,15.32732 -62.86386,18.88782 l -25.00643,2.21692 -1.99357,2.9899 c -3.90029,5.84952 -6.81288,7.16069 -15.81857,7.12112 -4.49626,-0.0198 -10.92532,-0.63055 -14.2868,-1.35731 l -6.11179,-1.3214 -6.38821,5.22234 c -3.51352,2.87229 -8.69631,6.30366 -11.51731,7.62527 -10.53016,4.93328 -29.432,7.66353 -61.8709,8.93686 -19.07943,0.74894 -19.25046,0.8123 -22.58752,8.36799 -2.46485,5.58087 -7.09162,10.54794 -12.41248,13.32543 -3.73259,1.94841 -5.23676,2.06047 -22.5,1.67622 -10.175,-0.22648 -22.55,-0.38611 -27.5,-0.35473 -8.2399,0.0522 -101.38042,8.51366 -109.5,9.94763 -8.66737,1.53071 -15.84436,7.03677 -37,28.38576 -19.19718,19.37262 -21.07197,20.97928 -29.5,25.28092 -15.40378,7.86203 -33.37107,12.39092 -68.85899,17.35679 -45.23895,6.33035 -60.59135,8.64155 -66.61338,10.02818 -7.43271,1.71146 -18.28406,6.69602 -26.121122,11.99872 -2.97358,2.01197 -9.45651,6.22207 -14.40651,9.35576 -4.95,3.13369 -15.2369,10.32665 -22.85977,15.98434 -18.68294,13.86648 -20.11167,14.45818 -35.64023,14.76018 -7.59624,0.14774 -14.46151,-0.25277 -17.5,-1.02092 z m 21.70078,-6.76746 c 11.75535,-2.45201 27.08741,-11.54403 63.43574,-37.6178 6.12509,-4.39371 13.270402,-9.02156 15.878472,-10.2841 4.7305,-2.29 29.94928,-6.52267 80.18213,-13.45761 58.18388,-8.03263 73.4014,-14.56686 96.76727,-41.55072 14.0507,-16.22634 28.48763,-25.63609 43.53561,-28.37581 7.98423,-1.45366 15.79932,-2.24543 60.5,-6.12949 24.35289,-2.11602 37.41905,-4.23612 42.11957,-6.83427 4.5214,-2.49914 8.78335,-10.06887 10.33804,-18.3616 2.32036,-12.37688 -3.34206,-35.37482 -11.92949,-48.45162 -8.60182,-13.09873 -16.46842,-18.7243 -29.03414,-20.76295 -14.31609,-2.32262 -19.43365,-1.63639 -36.19699,4.85374 -27.40965,10.612 -33.82429,14.01288 -51.61244,27.36357 l -10.68455,8.01916 -12.47535,2.84425 c -21.74718,4.95811 -22.76108,5.51896 -29.657,16.40481 -2.85769,4.51113 -5.57446,7.6738 -6.81083,7.92868 -25.00154,5.15425 -39.0226,10.40528 -79.59509,29.80915 -47.37078,22.65517 -76.580672,34.45283 -94.696322,38.24713 -16.18846,3.39066 -33.85331,-1.21816 -48.02973,-12.53112 -5.67281,-4.52697 -19.80597,-22.75927 -25.19931,-32.50805 -11.8139,-21.35431 -23.77696,-32.09129 -36.97379,-33.1844 -4.47095,-0.37034 -6.44119,-0.005 -10.0397,1.86182 -6.96376,3.61256 -8.44883,7.11683 -8.60352,20.30136 -0.11373,9.69358 -0.44676,11.68376 -2.76456,16.52122 -2.99323,6.24712 -3.51353,14.04451 -1.28664,19.28212 0.75248,1.76983 3.14581,5.24288 5.3185,7.71788 6.06409,6.90785 9.50514,12.39758 16.29724,26 3.43289,6.875 8.19573,15.45521 10.58409,19.06713 6.14077,9.28672 6.56067,10.78101 7.42778,26.43287 0.87465,15.7879 2.96655,23.10958 8.35675,29.24876 6.59886,7.51578 21.34446,10.96261 34.84826,8.14589 z m -7.74804,-41.64465 c -7.65886,-8.00346 -9.66156,-14.49835 -8.80719,-28.5622 l 0.61891,-10.1878 -4.57675,-11.16184 c -2.51721,-6.13902 -6.40673,-14.80152 -8.64338,-19.25 -2.91473,-5.7971 -3.6606699,-8.08816 -2.63341,-8.08816 3.76449,0 16.98449,21.24769 21.42648,34.43747 2.17487,6.45791 2.25692,7.49103 1.1799,14.85683 -0.63664,4.35395 -0.87037,9.61591 -0.51941,11.69323 0.56672,3.35439 4.63289,11.2517 9.91786,19.26247 1.78666,2.70814 1.78174,2.75 -0.32316,2.75 -1.29745,0 -4.29978,-2.25965 -7.63985,-5.75 z m 37.33862,-4.17898 c -6.67131,-2.15739 -14.79136,-11.30178 -14.79136,-16.65729 0,-2.63693 0.16281,-2.55611 4.98755,2.476 5.89267,6.14594 10.62576,8.37338 17.67327,8.31722 5.67472,-0.0452 8.19633,-1.07321 13.11698,-5.34746 4.54127,-3.94469 10.56776,-6.85949 14.18236,-6.85949 4.63236,0 3.64277,1.84341 -2.43171,4.52984 -3.96203,1.75219 -6.16818,3.5233 -7.99658,6.41967 -1.38876,2.19994 -3.67834,4.75558 -5.08796,5.6792 -2.9318,1.92099 -15.3533,2.83261 -19.65255,1.44231 z m 99.208642,-63.18359 c 0,-2.33645 20.34296,-11.10871 41,-17.67995 11.01956,-3.50545 28.5322,-6.46701 35.58908,-6.01848 10.02747,0.63735 4.7841,5.78981 -5.90786,5.80542 -5.49822,0.008 -28.63997,6.10647 -65.93122,17.37456 -2.6125,0.78941 -4.75,1.02271 -4.75,0.51845 z m 165.14858,-28.49152 c 0.2187,-1.17991 2.91017,-3.18062 7.12679,-5.29772 8.35902,-4.19695 20.13543,-5.54453 23.04312,-2.63684 0.93494,0.93494 1.48391,2.04936 1.21993,2.47649 -0.26398,0.42713 -4.20562,1.0154 -8.75919,1.30728 -7.14124,0.45773 -13.95595,2.15005 -21.13065,5.24742 -1.47608,0.63724 -1.78018,0.41491 -1.5,-1.09663 z m -47.0921,-2.06729 c -5.25043,-2.72828 -8.13231,-5.58613 -6.88794,-6.8305 0.3288,-0.32879 3.23788,0.33478 6.46463,1.47461 4.94412,1.74647 7.1803,1.9673 14.21822,1.4041 7.83327,-0.62686 8.32884,-0.55118 7.98777,1.21981 -0.48244,2.50513 -4.74909,4.44344 -11.13619,5.05909 -4.35804,0.42006 -6.08697,0.0422 -10.64649,-2.32711 z m 26.95487,-20.19987 c -2.28999,-0.41272 -3.61007,-1.26346 -3.84206,-2.47606 -0.31469,-1.64487 0.28681,-1.82357 5.48864,-1.6306 3.21314,0.1192 6.65106,0.16299 7.63982,0.0973 2.6493,-0.17597 6.647,-4.8765 9.41908,-11.07505 5.1985,-11.62418 9.28317,-14.48962 9.28317,-6.51224 0,13.99185 -13.28897,24.2459 -27.98865,21.59663 z m 51.33598,-20.666 c -0.95365,-2.48518 2.60442,-5.51342 11.30031,-9.6176 10.84269,-5.1174 31.25948,-11.87686 37.96373,-12.5688 4.92799,-0.50861 5.38863,-0.38297 5.38863,1.46981 0,2.79118 -4.74863,4.82418 -14.5,6.20779 -12.68622,1.80002 -20.2714,4.51313 -29.40867,10.51904 -4.62477,3.03986 -8.80139,5.52701 -9.28138,5.52701 -0.48,0 -1.13817,-0.69176 -1.46262,-1.53725 z M -25.479402,927.01403 c -0.41833,-0.67687 -1.03138,-7.373 -1.36233,-14.88028 -0.54067,-12.26456 -0.87179,-14.14374 -3.26322,-18.51932 -1.46383,-2.67835 -5.87983,-11.16972 -9.81333,-18.86972 -3.93351,-7.7 -10.69812,-19.01061 -15.03246,-25.13469 -4.33434,-6.12407 -8.77197,-13.09907 -9.8614,-15.5 -2.76633,-6.09655 -2.60423,-14.57665 0.4753,-24.86531 1.52122,-5.08234 2.51719,-10.92619 2.5439,-14.92623 0.0729,-10.9105 4.5116,-19.32522 12.01821,-22.78341 4.34836,-2.00323 4.89288,-4.069 2.55036,-9.67545 -1.1386,-2.72504 -2.20482,-3.52664 -5.94282,-4.46788 -5.96793,-1.50274 -8.2937,-1.44784 -14.30622,0.33769 -4.4116,1.3101 -6.03485,2.67607 -13.80228,11.61471 -6.97609,8.02798 -9.08643,11.1956 -10.17005,15.26529 -1.67201,6.27944 -1.75043,10.61134 -0.25926,14.32018 0.62252,1.54831 1.71855,8.82632 2.43563,16.17338 1.83169,18.76714 3.0709,21.07022 20.52264,38.14172 18.05987,17.66637 21.36824,24.12419 25.92471,50.60413 2.50993,14.58643 4.82139,19.81386 9.96958,22.54642 4.04292,2.1459 8.55066,2.52421 7.37304,0.61877 z m 107.96114,-83.24738 c 15.92453,-4.13754 28.171862,-9.30324 78.021912,-32.90823 26.31227,-12.45938 50.38727,-23.50844 53.5,-24.55346 7.42256,-2.49193 30.0171,-9.04066 31.5008,-9.13009 0.63729,-0.0384 3.21659,-2.85091 5.73177,-6.25 5.61176,-7.58388 9.0396,-9.54056 24.78534,-14.14797 14.41967,-4.21938 23.90152,-8.72903 33.6416,-16.00024 3.85,-2.87412 10.6,-7.28655 15,-9.8054 8.6005,-4.92349 36.12164,-16.72655 39.00121,-16.72655 4.54145,0 -3.12422,-16.62301 -11.55223,-25.05102 -6.06047,-6.06047 -16.10341,-11.67768 -25.21589,-14.10372 -4.52592,-1.20495 -5.3601,-1.07626 -16.5,2.54551 -15.95276,5.18652 -24.11086,9.25927 -34.73309,17.33975 -4.95,3.76553 -12.09301,9.04572 -15.87335,11.73375 l -6.87336,4.88733 -11.12664,0.80342 c -22.26378,1.6076 -29.54652,5.91557 -40.12665,23.73616 -5.70771,9.61376 -6.31983,10.27458 -12.56539,13.56496 -3.61096,1.90239 -15.24115,6.62083 -25.84487,10.48541 -23.13747,8.43258 -22.39012,8.0589 -62.67289,31.33642 -33.578292,19.40331 -52.328612,29.26114 -61.180032,32.1649 -3.48396,1.14293 -7.49635,1.61346 -11.86923,1.39187 l -6.60605,-0.33474 5.52441,5 c 16.97872,15.36702 34.23522,19.68539 56.03263,14.02194 z M 221.16316,755.30848 c -7.45022,-1.5033 -12.69449,-5.76928 -10.18153,-8.28224 0.77871,-0.77871 3.52046,-0.19647 9.73447,2.06722 10.82106,3.94198 13.63865,4.01121 16.33197,0.40125 1.65299,-2.21556 2.05789,-2.39712 2.08341,-0.93426 0.10844,6.21536 -7.13211,8.93456 -17.96832,6.74803 z m 59.18082,-15.49824 c 8.60573,-4.4785 11.74399,-7.4294 15.22901,-14.3198 2.40328,-4.75162 8.22618,-8.10585 18.7717,-10.81326 15.06331,-3.86729 17.20115,-2.90879 4.3049,1.93009 -10.13529,3.80292 -13.64397,6.59508 -19.56412,15.56885 -6.10137,9.24846 -8.68468,10.73417 -20.17594,11.6035 l -7.24637,0.54821 8.68082,-4.51759 z m -24.84049,-4.52047 c 4.94202,-5.47023 7.65146,-11.18644 7.70486,-16.25522 l 0.0452,-4.28984 2.40963,4.5 c 2.96242,5.53235 3.02916,7.04244 0.5279,11.94531 -2.63951,5.17387 -6.49474,8.05469 -10.77912,8.05469 l -3.4815,0 3.57305,-3.95494 z m 219.36225,70.4847 c 6.87663,-2.08718 10.44448,-5.257 12.57135,-11.16888 1.77621,-4.93719 7.24434,-10.22053 17.22607,-16.64395 4.47641,-2.88065 13.96314,-5.04237 19.94569,-4.54498 l 3.94569,0.32805 -5.94569,2.38847 c -6.26118,2.5152 -16.78308,8.10748 -16.25252,8.63803 0.1715,0.17151 13.05766,-0.71851 28.63591,-1.97782 l 28.32407,-2.28964 7.67343,-3.97625 c 4.22038,-2.18694 11.67126,-6.1262 16.5575,-8.75393 l 8.88408,-4.77768 6.80855,1.12441 c 9.39892,1.5522 16.47706,1.40653 19.99267,-0.41147 3.13841,-1.62293 8.93062,-8.83134 8.93062,-11.11416 0,-0.74248 0.45,-1.34996 1,-1.34996 0.55,0 1,0.87344 1,1.94098 0,1.06754 0.36107,2.16414 0.80237,2.43688 1.03581,0.64016 39.90429,-4.87478 48.64749,-6.90246 22.31842,-5.17599 33.67987,-10.63052 42.29162,-20.30382 6.57523,-7.38575 6.70241,-7.4533 21.24135,-11.28228 7.64141,-2.01245 8.97174,-2.736 13.41197,-7.29461 2.71103,-2.78332 6.09376,-7.54325 7.51718,-10.57763 2.39182,-5.09878 2.58522,-6.54056 2.55096,-19.01706 -0.0283,-10.32258 -0.42614,-14.37763 -1.69013,-17.22884 -2.36772,-5.3409 -10.13026,-13.24887 -15.46818,-15.75799 -23.5896,-11.08842 -23.10734,-10.76993 -37.43856,-24.72522 -11.40884,-11.10957 -14.85697,-13.85711 -21.12787,-16.83514 -9.39375,-4.46108 -22.86321,-7.35985 -37.78275,-8.13125 -10.38957,-0.53719 -12.02803,-0.38304 -16.37712,1.54077 -5.60662,2.48007 -7.30621,2.71964 -5.71802,0.80598 2.05864,-2.4805 11.6119,-7.09552 16.90639,-8.16718 l 5.26669,-1.06604 -6.29201,-3.68068 c -8.82062,-5.15984 -17.28249,-7.16004 -26.72238,-6.31658 -10.21194,0.91245 -19.90338,3.20551 -23.95085,5.66692 l -3.35602,2.04092 7.83865,3.40759 c 7.43465,3.23197 12.28724,6.44674 9.73115,6.44674 -0.63066,0 -6.68959,-1.59063 -13.46429,-3.53473 -21.02073,-6.03221 -31.31264,-6.30231 -39.35489,-1.03282 l -2.6963,1.76668 2.28781,1.15044 c 4.78376,2.40553 3.19184,3.35899 -6.7675,4.05329 -12.95514,0.90315 -17.38494,2.48617 -26.01819,9.29779 l -7.23142,5.70559 3.48142,2.86968 c 5.2888,4.35947 4.61329,5.96201 -1.5293,3.62801 -2.7559,-1.04716 -6.47969,-1.90393 -8.27508,-1.90393 -6.90515,0 -38.7713,8.91486 -38.68267,10.82185 0.0173,0.37298 4.10854,3.15315 9.09157,6.17815 9.42935,5.72418 17.62065,12.96908 27.08366,23.95447 l 5.55999,6.45446 3.86663,-1.711 c 5.29121,-2.34139 13.34824,-3.71335 21.25312,-3.61898 4.83388,0.0577 5.94079,0.29601 4.11351,0.88561 -1.375,0.44366 -6.38533,2.01931 -11.13407,3.50144 -4.74873,1.48212 -10.09232,3.91218 -11.87464,5.40013 l -3.24057,2.70535 3.66593,5.73078 c 5.89183,9.2104 12.43885,23.47481 13.68758,29.82199 0.63579,3.23166 1.29169,5.87575 1.45755,5.87575 0.16586,0 4.32181,-1.95669 9.23544,-4.34821 4.91363,-2.39151 9.85902,-4.59014 10.98976,-4.88583 2.57718,-0.67395 5.57716,-6.46617 7.67882,-14.82594 2.38358,-9.48114 2.57739,-9.84892 3.6791,-6.98197 0.86579,2.25302 -0.0376,11.53659 -1.71437,17.61677 -0.55082,1.99738 -0.33629,2.04569 5.74865,1.29451 3.47645,-0.42916 11.29664,-0.5117 17.3782,-0.18341 l 11.05739,0.59689 16.3642,-10.79967 c 18.55272,-12.244 23.08811,-14.04778 37.63393,-14.96748 22.61465,-1.42988 25.87132,-2.69192 33.16373,-12.85176 l 3.27664,-4.56503 -2.17092,-1.16184 c -2.72873,-1.46037 -10.88235,-8.92781 -10.88235,-9.96652 0,-0.42613 2.09652,-0.14381 4.65893,0.62736 2.56241,0.77117 6.85544,1.40213 9.54006,1.40213 4.39379,0 5.26102,-0.39936 8.68623,-4 3.68884,-3.87777 4.00666,-4 10.40093,-4 6.94786,0 9.59157,1.31651 4.95694,2.46845 -6.25043,1.55356 -11.27789,5.8981 -16.23718,14.03155 -2.68286,4.4 -7.05979,10.6949 -9.72652,13.98866 -5.42331,6.6985 -7.10333,7.33329 -19.77939,7.47352 -7.4893,0.0829 -18.71301,1.483 -24.61921,3.07123 -4.30238,1.15695 -28.17559,15.87448 -32.18933,19.84431 l -2.80854,2.77782 5.73537,1.28352 c 4.93611,1.10465 5.46685,1.43523 3.80854,2.3722 -2.3458,1.3254 -13.67167,1.41049 -34.92683,0.2624 -13.88069,-0.74977 -16.79474,-0.63635 -22,0.85625 -6.09404,1.74745 -56.85442,27.18769 -66,33.07808 -6.18461,3.98331 -6.8571,4.73363 -19.7111,21.99201 -11.99623,16.10668 -24.67364,28.05183 -39.32023,37.04903 l -5.96867,3.66647 17,-0.55333 c 11.1586,-0.36321 18.78767,-1.09593 22.20258,-2.13241 z m 89.29742,-59.50919 c 0,-1.40164 7.32644,-8.02469 13.36395,-12.08093 6.81674,-4.57976 10.80054,-5.0089 18.68555,-2.01283 6.78297,2.57733 17.99691,9.32407 17.57397,10.57319 -0.6269,1.85148 -8.06662,0.67925 -16.06245,-2.53086 -10.28215,-4.128 -14.19212,-3.76909 -25.31102,2.3234 -4.5375,2.48627 -8.25,4.16389 -8.25,3.72803 z m 64,-3.38294 c 0,-1.54785 2.64189,-5.25434 7.66234,-10.75 8.70006,-9.52357 13.99598,-13.5453 19.09696,-14.50225 4.63797,-0.87009 21.61701,0.1662 23.92978,1.46052 1.66095,0.92953 1.60388,1.09029 -0.68908,1.94116 -1.375,0.51023 -6.697,1.45682 -11.82667,2.10353 -15.48789,1.95258 -24.73601,6.82971 -32.66431,17.22599 -4.13175,5.4179 -5.50902,6.04817 -5.50902,2.52105 z m 49.26103,-4.45514 c -0.75852,-0.48175 0.99185,-1.24766 4.51382,-1.97511 7.49406,-1.54788 9.57889,-3.12569 12.50683,-9.46527 2.78306,-6.02587 5.85038,-9.3241 13.08468,-14.06971 6.09671,-3.99936 9.26549,-4.9398 11.89775,-3.53106 1.73629,0.92924 1.42953,1.27967 -2.91168,3.3262 -6.83996,3.2245 -10.86505,7.90095 -12.90292,14.99095 -1.00672,3.5025 -2.86326,7.10911 -4.50416,8.75 -2.63671,2.63672 -3.28096,2.79066 -11.61843,2.7762 -4.8548,-0.008 -9.38446,-0.36942 -10.06589,-0.8022 z m 48.58946,-29.81942 c -7.64026,-5.19337 -12.79474,-7.28339 -19.75736,-8.01112 -4.2272,-0.44183 -6.09313,-1.0622 -6.09313,-2.02579 0,-2.44061 2.95335,-2.64853 11.66174,-0.82102 9.44887,1.9829 21.68845,7.35909 22.6888,9.96597 2.14891,5.59997 -1.07598,5.93838 -8.50005,0.89196 z m -100.0662,-28.31811 c -1.55621,-1.22411 -2.97797,-3.56044 -3.33953,-5.48773 -0.53378,-2.8453 -1.31334,-3.61723 -5.12184,-5.07171 -5.37134,-2.05133 -8.31382,-6.27297 -8.31918,-11.93569 l -0.004,-3.95017 2.63556,4.06464 c 2.43446,3.75449 6.88099,7.3357 9.10822,7.3357 0.51435,0 1.53788,-1.2375 2.27451,-2.75 1.33387,-2.73881 1.34222,-2.72866 2.05052,2.49366 0.39115,2.88402 0.99777,6.38547 1.34803,7.78102 0.77493,3.08757 5.99784,6.45549 10.08316,6.50199 3.9814,0.0453 1.37746,1.64948 -4.09902,2.5252 -3.09759,0.49533 -4.46805,0.18321 -6.61669,-1.50691 z m 17.5523,-10.10518 c -1.73988,-1.1146 -3.87618,-3.11435 -4.74733,-4.44389 -0.89058,-1.3592 -3.27887,-2.87377 -5.45604,-3.46002 -7.94936,-2.14054 -13.84973,-9.88897 -14.84051,-19.48871 -0.75761,-7.34058 0.8455,-7.17573 3.59676,0.36984 2.3335,6.39987 7.63545,12.083 11.27256,12.083 1.91028,0 2.05031,-0.43836 1.60858,-5.03554 -0.72786,-7.57491 1.27778,-5.73193 4.46097,4.0992 1.50238,4.63999 3.64759,9.18972 4.76715,10.11051 1.11956,0.9208 5.06534,2.6917 8.76841,3.93533 5.88565,1.97663 6.41828,2.35113 4.23286,2.97615 -4.8424,1.38491 -10.44652,0.91492 -13.66341,-1.14587 z m -71.3747,-6.18978 c -2.45404,-1.2375 -4.60041,-3.00129 -4.76972,-3.91954 -0.28189,-1.52886 0.0896,-1.54993 4.40893,-0.25 2.59422,0.78075 7.36406,1.41954 10.59965,1.41954 l 5.8829,0 2.91635,-6.5 c 3.06568,-6.83282 4.2616,-7.74823 5.96482,-4.56574 2.36559,4.42016 -0.30912,12.15819 -5.05001,14.60979 -4.42825,2.28994 -14.64333,1.88342 -19.95292,-0.79405 z m -12.15792,-6.47637 c -0.85182,-0.9755 -2.33974,-3.47648 -3.30649,-5.55773 -1.13723,-2.44827 -3.32372,-4.70184 -6.19379,-6.38382 -3.05488,-1.79027 -4.1141,-2.92167 -3.40198,-3.63379 1.67793,-1.67793 8.63606,0.96367 11.49829,4.36524 4.52216,5.37427 5.89753,16.35605 1.40397,11.2101 z m 29.99172,-17.0137 -0.29569,-6.74007 -7.83957,-5.38305 c -9.12036,-6.26251 -11.82304,-9.94062 -11.43283,-15.55909 0.39224,-5.64777 2.13201,-5.42845 5.02943,0.63401 2.91954,6.10876 4.48901,7.79933 10.92884,11.77212 2.57722,1.58992 5.50222,4.13668 6.5,5.65947 2.84329,4.33942 1.9916,16.35668 -1.15923,16.35668 -1.0758,0 -1.50932,-1.68803 -1.73095,-6.74007 z m 83.0366,3.99007 c -1.39804,-1.5125 -4.38499,-5.23643 -6.63766,-8.27539 -5.05112,-6.81422 -7.42844,-8.59748 -18.51693,-13.8898 -6.37079,-3.04065 -9.3013,-5.05959 -10.71904,-7.38477 -3.23397,-5.30388 -2.2359,-5.87917 3.14031,-1.81006 3.23131,2.44568 7.82279,4.6507 12.53535,6.01999 8.81168,2.56034 13.01786,6.23322 19.15925,16.73001 6.18583,10.57276 6.68613,14.71979 1.03872,8.61002 z m -161.83229,-1.64426 c 0,-3.02714 11.64944,-10.52945 16.43428,-10.58378 5.06744,-0.0575 10.81816,-4.386 18.28025,-13.7592 7.93965,-9.97307 12.55959,-13.19663 18.97645,-13.2408 4.51933,-0.0311 4.96565,1.60623 0.81155,2.9772 -8.02824,2.64956 -22.50253,19.76898 -22.50253,26.61479 0,3.63234 -1.31656,4.42971 -2.83474,1.71686 -0.77408,-1.38319 -1.42511,-1.48371 -3.79969,-0.58668 -1.57607,0.59537 -5.77557,1.61334 -9.33224,2.26214 -3.55667,0.6488 -8.61917,2.27038 -11.25,3.60353 -3.67961,1.86459 -4.78333,2.0944 -4.78333,0.99594 z m 99.69302,-10.24606 c -0.35218,-0.35217 0.10894,-1.9087 1.0247,-3.45896 l 1.66501,-2.81864 -5.69136,-5.9668 c -4.9489,-5.1884 -5.69137,-6.48072 -5.69137,-9.90618 0,-2.47117 0.77245,-4.9214 2.07258,-6.57424 2.38737,-3.03506 5.57905,-3.67607 4.40581,-0.88486 -2.00013,4.75844 -1.62818,6.24236 3.4784,13.87734 5.45546,8.15658 5.85552,10.68872 2.31031,14.62266 -1.68277,1.86728 -2.54788,2.13588 -3.57408,1.10968 z m -31.50944,-28.06078 c 0.45906,-3.9187 5.46696,-6.46939 13.88411,-7.07163 4.72105,-0.33779 7.3846,-0.0968 8.41908,0.76175 2.81869,2.3393 1.53323,2.85824 -5.73677,2.31593 -7.25,-0.54082 -7.25,-0.54082 -11.0712,3.07711 -4.56128,4.31864 -5.92029,4.54539 -5.49522,0.91684 z M 454.52373,788.30606 c 3.77331,-3.60874 12.95892,-14.42045 20.41247,-24.02601 13.67878,-17.62817 16.22696,-22.29118 16.22696,-29.69427 0,-1.83759 0.43417,-3.34107 0.96482,-3.34107 1.56461,0 3.03518,3.60096 3.03518,7.43219 l 0,3.56367 5.86952,-4.24793 c 3.22823,-2.33636 6.64998,-4.7055 7.60389,-5.26476 1.31239,-0.76942 1.99179,-3.32245 2.79236,-10.49299 1.27278,-11.39996 0.0217,-20.4939 -3.89058,-28.28093 -5.02181,-9.99539 -18.67261,-24.79094 -35.15507,-38.10315 -4.00394,-3.23382 -7.0508,-6.10875 -6.77082,-6.38874 0.27999,-0.27999 4.90594,2.36395 10.27989,5.87542 12.05444,7.87667 30.88789,26.09202 34.54083,33.40722 4.23634,8.48349 7.87351,21.50859 8.57039,30.69154 l 0.65959,8.69155 5.87435,-3.59801 5.87435,-3.598 -0.51243,-6.09354 c -0.35604,-4.23373 -2.01122,-9.60346 -5.4231,-17.59354 -11.14084,-26.09006 -24.42387,-42.99063 -43.50095,-55.34812 -13.6061,-8.81357 -17.15785,-9.23561 -29.73432,-3.53316 -3.57845,1.62254 -9.29636,3.34521 -12.70647,3.82814 -6.41588,0.9086 -12.45996,3.24996 -14.38866,5.5739 -0.88382,1.06493 -0.23272,1.52419 3.204,2.25998 l 4.31323,0.92344 -3,1.24227 c -4.31355,1.78619 -15.29148,0.75553 -26.25079,-2.46455 l -9.25079,-2.71807 -3.61014,2.86808 c -1.98557,1.57745 -4.94881,3.83865 -6.58497,5.02489 -3.38731,2.45585 -19.53562,6.62991 -34.30331,8.86681 -5.5,0.8331 -13.52235,2.25373 -17.82745,3.15695 l -7.82746,1.64222 7.63687,2.20269 c 13.89994,4.00915 30.51688,17.95105 36.52027,30.64112 1.73969,3.67739 2.99652,5.44119 2.99698,4.20585 4.3e-4,-1.17015 0.60299,-2.62733 1.33902,-3.23818 0.73602,-0.61085 1.89577,-3.602 2.57721,-6.647 0.74473,-3.3278 2.59847,-7.3174 4.64689,-10.00098 3.39909,-4.45305 10.32185,-11.20092 13.1961,-12.86273 1.71327,-0.99057 1.58876,-0.7416 -3.13999,6.27838 -2.92344,4.33993 -7.54846,14.52685 -7.5947,16.72783 -0.0169,0.80356 3.15243,0.97922 10.97626,0.60839 7.49695,-0.35534 11,-0.17928 11,0.55285 0,1.31712 -1.38074,1.76249 -11.32822,3.65402 -8.36738,1.59107 -14.1501,4.45208 -14.91565,7.37954 -0.4324,1.65349 0.21089,1.76615 7.80772,1.36742 14.00031,-0.73483 28.61936,4.76897 36.78191,13.8477 18.41687,20.48398 26.45595,51.79354 18.41196,71.70846 l -2.48951,6.16341 4.6159,-3.14443 c 2.53874,-1.72943 7.70315,-6.09703 11.47646,-9.70577 z m -1.3122,-62.03187 c -2.4168,-4.10878 -6.51424,-9.59059 -9.10544,-12.18179 -5.21035,-5.21035 -19.76614,-13.07568 -28.18586,-15.23044 -5.82332,-1.4903 -7.55926,-3.61725 -2.95227,-3.61725 3.99686,0 19.20474,4.47285 25.77336,7.5803 7.22793,3.41936 14.56874,10.2586 17.95698,16.73005 2.507,4.7883 2.71067,5.85887 1.86122,9.78316 l -0.95383,4.40649 -4.39416,-7.47052 z m 328.85241,-73.5588 c 7.64985,-6.91118 10.74494,-18.73769 9.84752,-37.62792 -0.91019,-19.15902 -7.14975,-33.89478 -17.31286,-40.88718 -2.52237,-1.73544 -7.81472,-4.63843 -11.76078,-6.4511 -8.61839,-3.95896 -35.7473,-12.82791 -44.5154,-14.55293 l -6.28344,-1.23619 -4.05429,3.89232 c -4.55751,4.37543 -6.82153,8.83552 -6.82153,13.43833 0,1.71064 -1.61571,6.46946 -3.59047,10.57516 -1.97477,4.10569 -3.35414,8.08078 -3.06529,8.83353 0.28886,0.75275 2.12957,1.94878 4.09048,2.65785 5.73228,2.07282 4.25184,3.22969 -3.18472,2.48864 -15.32174,-1.52681 -20.87427,-1.73285 -23.16021,-0.85942 -2.0395,0.77926 -1.10811,1.1795 6.0556,2.60219 10.23711,2.03307 22.51155,6.62986 28.18223,10.55428 3.75791,2.60068 11.73632,10.5707 21.80962,21.7867 3.63981,4.0527 6.35177,5.34901 23.86277,11.40629 5.51438,1.9075 7.56144,3.35457 13.5,9.54316 8.33989,8.69102 10.4745,9.19032 16.40077,3.83629 z m -48.26627,-29.98552 c -5.01275,-1.7233 -8.06412,-4.69953 -11.13387,-10.85971 -2.45057,-4.91767 -2.49395,-5.38578 -1.86076,-20.08025 0.546,-12.67124 0.37396,-15.99193 -1.09031,-21.0452 -0.95624,-3.3 -2.2102,-6.57337 -2.78659,-7.27417 -1.27743,-1.55313 -0.36935,-2.67249 1.56567,-1.92996 4.3589,1.67267 8.67135,18.99151 8.67135,34.82422 0,6.13644 0.5223,11.19418 1.36403,13.20872 1.83459,4.3908 6.49402,8.13116 12.69474,10.19071 2.81646,0.93548 4.74294,2.04268 4.28104,2.46044 -1.67776,1.51746 -7.97078,1.78907 -11.7053,0.5052 z"
       id="path3007"
       inkscape:connector-curvature="0" />
  </g>
</svg>
