<?xml version="1.0" encoding="UTF-8" standalone="no"?>
<!-- Created with Inkscape (http://www.inkscape.org/) -->

<svg
   xmlns:dc="http://purl.org/dc/elements/1.1/"
   xmlns:cc="http://creativecommons.org/ns#"
   xmlns:rdf="http://www.w3.org/1999/02/22-rdf-syntax-ns#"
   xmlns:svg="http://www.w3.org/2000/svg"
   xmlns="http://www.w3.org/2000/svg"
   xmlns:xlink="http://www.w3.org/1999/xlink"
   xmlns:sodipodi="http://sodipodi.sourceforge.net/DTD/sodipodi-0.dtd"
   xmlns:inkscape="http://www.inkscape.org/namespaces/inkscape"
   width="1023.1214"
   height="669.50006"
   id="svg2"
   version="1.1"
   inkscape:version="0.48.3.1 r9886"
   sodipodi:docname="Leg-press-1-1024x670.svg"
   inkscape:export-filename="/home/christian/Dokumente/Code/workspace/opentraining-exercises/Back-extension-on-stability-ball-2.png"
   inkscape:export-xdpi="214"
   inkscape:export-ydpi="214">
  <defs
     id="defs4">
    <radialGradient
       gradientUnits="userSpaceOnUse"
       gradientTransform="matrix(1,0,0,0.91819829,-19.285714,-7.9105395)"
       r="209.56604"
       fy="287.50052"
       fx="398.1105"
       cy="287.50052"
       cx="398.1105"
       id="radialGradient5255"
       xlink:href="#linearGradient5249"
       inkscape:collect="always" />
    <linearGradient
       id="linearGradient5249"
       inkscape:collect="always">
      <stop
         id="stop5251"
         offset="0"
         style="stop-color:#e3e3e3;stop-opacity:1;" />
      <stop
         id="stop5253"
         offset="1"
         style="stop-color:#e3e3e3;stop-opacity:0;" />
    </linearGradient>
  </defs>
  <sodipodi:namedview
     id="base"
     pagecolor="#ffffff"
     bordercolor="#666666"
     borderopacity="1.0"
     inkscape:pageopacity="0.0"
     inkscape:pageshadow="2"
     inkscape:zoom="0.35"
     inkscape:cx="945.42861"
     inkscape:cy="-54.202105"
     inkscape:document-units="px"
     inkscape:current-layer="layer1"
     showgrid="false"
     showguides="true"
     inkscape:guide-bbox="true"
     fit-margin-top="0"
     fit-margin-left="0"
     fit-margin-right="0"
     fit-margin-bottom="0"
     inkscape:window-width="1615"
     inkscape:window-height="1026"
     inkscape:window-x="65"
     inkscape:window-y="24"
     inkscape:window-maximized="1">
    <sodipodi:guide
       orientation="-0.70710678,0.70710678"
       position="-1222.7463,1215.4078"
       id="guide2985" />
  </sodipodi:namedview>
  <metadata
     id="metadata7">
    <rdf:RDF>
      <cc:Work
         rdf:about="">
        <dc:format>image/svg+xml</dc:format>
        <dc:type
           rdf:resource="http://purl.org/dc/dcmitype/StillImage" />
        <dc:title></dc:title>
      </cc:Work>
    </rdf:RDF>
  </metadata>
  <g
     inkscape:label="Ebene 1"
     inkscape:groupmode="layer"
     id="layer1"
     transform="translate(205.82513,-572.55566)">
    <path
       style="fill:#000000"
       d="m 136.84695,1240.1275 c 0,-2.2216 1.7551,-2.9534 30.5,-12.7169 48.2513,-16.389 89.7651,-26.0758 149,-34.7673 29.1477,-4.2769 75.0736,-9.1249 93,-9.8173 6.4235,-0.2481 7,-0.1056 7,1.7297 0,2.3461 -1.2141,2.5404 -31.5,5.0408 -35.0104,2.8905 -85.5625,9.923 -122,16.9718 -31.1891,6.0335 -68.3102,16.3077 -102.6188,28.4022 -11.0543,3.8969 -20.8372,7.0852 -21.7399,7.0852 -0.9542,0 -1.6413,-0.8072 -1.6413,-1.9282 z m 96.5431,-54.1458 c -13.1664,-4.458 -25.0723,-10.6084 -31.4329,-16.2377 -9.4818,-8.3915 -19.8246,-14.6883 -24.1262,-14.6883 -2.0904,0 -6.6211,-1.3392 -10.2052,-3.0163 -6.6334,-3.1042 -14.5292,-4.9305 -32.7788,-7.5819 -9.9811,-1.4501 -30.768,-6.7936 -39.464204,-10.1446 -2.2197,-0.8554 -9.7005,-5.3061 -16.624,-9.8905 -6.9235,-4.5844 -17.5653,-10.8247 -23.6484,-13.8673 -14.6623,-7.3338 -19.0095,-12.0468 -22.598,-24.4994 -2.1895,-7.598 -6.5079,-14.045 -16.075899,-24 -14.7482006,-15.3448 -20.7887006,-24.8084 -27.127001,-42.5 -0.9852,-2.75 -2.8121,-6.125 -4.0598,-7.5 -1.2476,-1.375 -3.8317,-5.104 -5.7425,-8.2866 -2.6101,-4.3475 -8.2846,-10.04872 -22.8171,-22.92438 -10.6387,-9.42577 -30.8181,-27.30968 -44.843101,-39.74203 -92.477025,-81.97552 -86.304835,-76.76092 -92.340065,-78.01383 -10.16691,-2.11064 -17.942,1.78689 -19.76058,9.90566 -0.96289,4.29867 -0.85215,4.64606 3.50654,11 9.37284,13.66337 16.57462,20.69982 51.57392,50.38995 19.53609,16.57261 54.645185,46.35905 78.020186,66.19213 23.375,19.8331 51.95,44.0641 63.5000004,53.8469 19.7842006,16.757 24.2476006,21.6322 19.8048006,21.6322 -1.0088,0 -16.0243006,-12.0375 -33.367601,-26.75 -17.3433,-14.7125 -60.7616,-51.47362 -96.485196,-81.6913 -35.72361,-30.21769 -67.80265,-57.88384 -71.28678,-61.48032 -6.55719,-6.76864 -15.49255,-18.12913 -19.1959,-24.40585 -1.92736,-3.26662 -2.01962,-4.11328 -0.98919,-9.07685 2.05774,-9.91211 8.82477,-15.08453 19.51987,-14.92016 8.97532,0.13793 13.68548,2.37621 23.364,11.1026 4.7498,4.28254 12.1241,10.8651 16.38734,14.62791 l 7.75134,6.84146 -2.49369,-5.44693 c -4.66,-10.17877 -5.56292,-20.18163 -2.9608,-32.8006 2.46319,-11.9452 3.44272,-15.14047 6.50171,-21.20872 5.50177,-10.9141 9.9559,-15.79872 21.4501,-23.52341 12.2938,-8.26204 18.847095,-10.27935 33.299196,-10.25051 17.7179,0.0354 26.7202,3.45837 52.2008,19.84873 8.525,5.4837 18.7684,12.05694 22.7630004,14.6072 8.1275,5.18869 10.1808001,7.689 10.9355001,13.31579 0.5819,4.33786 -1.3169,8.78106 -7.9102001,18.51047 -5.4859004,8.09542 -5.6973004,10.75879 -1.8088,22.78874 3.6075,11.16015 5.1013,12.60931 11.1964001,10.86128 4.7526005,-1.36304 17.1035995,-1.10096 25.8240995,0.54797 19.0596,3.60391 33.3673,5.53519 34.2759,4.62661 0.6063,-0.60636 0.4942,-4.17871 -0.3074,-9.78946 -1.5448,-10.81385 -1.5298,-16.41746 0.052,-19.37289 1.8706,-3.49517 9.0054,-10.88346 13.4891,-13.96833 10.4986,-7.22326 12.4558,-7.8802 25.620404,-8.59972 10.6738,-0.58338 33.6708,-4.86109 35.3932,-6.58356 0.2473,-0.24723 -0.2838,-4.01816 -1.1802,-8.37985 -2.0478,-9.96472 -2.3541,-39.95837 -0.5048,-49.43034 6.4301,-32.93412 25.451,-61.15434 48.6186,-72.13284 16.7411,-7.93312 40.5999,-7.7884 57.1305,0.34652 2.4901,1.22543 5.6701,1.25502 21.9128,0.20392 29.7195,-1.92321 72.305,-3.4176 97.391,-3.4176 l 22.9111,0 4.9473,5.75 c 6.3144,7.33877 21.4522,27.69205 28.3271,38.08659 l 5.3092,8.02718 5.9915,-5.18188 c 3.2953,-2.85004 8.9624,-7.88189 12.5936,-11.18189 3.6311,-3.3 18.2857,-16.40149 32.5656,-29.11442 24.131,-21.48293 59.3469,-52.87866 132.7904,-118.38558 16.3409,-14.575 30.4898,-26.5 31.442,-26.5 0.999,0 1.8144,0.84591 1.9279,2 0.1406,1.42875 -3.5726,5.32142 -13,13.62855 -13.6655,12.04166 -76.9511,68.44914 -155.4467,138.55211 -24.8875,22.22658 -45.25,40.81122 -45.25,41.2992 0,1.05431 6.1,11.02014 6.7453,11.02014 0.2455,0 12.4407,-10.69797 27.1005,-23.77327 41.8071,-37.28839 125.0697,-111.53737 152.0899,-135.62539 13.5104,-12.04426 27.7726,-24.76342 31.6939,-28.26481 4.9725,-4.44007 7.6359,-6.1719 8.8029,-5.72407 0.9203,0.35315 1.537,1.41201 1.3704,2.35302 -0.1666,0.94101 -11.1029,11.34179 -24.3029,23.11284 -13.2,11.77106 -38.8736,34.68137 -57.0524,50.9118 -18.1788,16.23043 -56.5075,50.42158 -85.1749,75.98033 l -52.1226,46.47045 4.175,7.76552 c 2.2962,4.27103 4.5303,7.77182 4.9646,7.77954 0.4344,0.008 11.4594,-9.5177 24.5,-21.1676 17.3968,-15.54149 24.4822,-22.53122 26.6091,-26.25 8.0142,-14.01212 23.7812,-30.88809 35.5219,-38.02016 3.5183,-2.13731 9.467,-5.0475 13.2193,-6.46711 6.4321,-2.43347 10.1387,-5.54088 64.8089,-54.33109 31.8927,-28.4625 58.3961,-51.75 58.8965,-51.75 0.5003,0 1.511,0.72452 2.2459,1.61004 1.155,1.39167 0.8633,2.03592 -2.151,4.75 -11.886,10.70214 -103.6622,92.40426 -105.1821,93.63635 -1.6773,1.35976 -0.7738,1.51111 9.4435,1.58199 13.0199,0.0903 22.7406,2.35306 33.598,7.82075 14.1036,7.10245 28.8866,21.30718 38.9123,37.39007 4.055,6.50499 4.7184,7.13784 6.1659,5.88222 1.6002,-1.38799 12.1428,-10.77991 90.555,-80.67142 38.3875,-34.21611 44.0671,-38.57918 44.0671,-33.85214 0,1.43377 -21.2399,20.7036 -105.5,95.71451 -10.175,9.0581 -20.6682,18.46644 -23.3183,20.90743 l -4.8183,4.43817 2.7183,6.39601 c 1.4951,3.51781 2.8865,6.39602 3.092,6.39602 0.3338,0 20.5237,-17.96291 111.2739,-99 14.4741,-12.925 26.8611,-23.6318 27.5265,-23.79289 0.6654,-0.16109 1.7377,0.34319 2.3829,1.12061 1.6147,1.94552 1.5272,2.03435 -26.9113,27.33084 -13.5048,12.01279 -44.3546,39.49573 -68.555,61.07319 l -44.0008,39.23175 1.9011,8.26825 c 1.0455,4.54754 2.1953,9.00116 2.555,9.89694 0.5049,1.25742 8.0627,-4.98646 33.154,-27.39041 98.7087,-88.13651 115.4307,-102.80197 116.8965,-102.51969 4.4646,0.8598 0.9389,4.58946 -32.6028,34.48866 -19.1365,17.05836 -50.0937,44.64912 -68.7937,61.31282 -18.7,16.66369 -36.925,32.9319 -40.5,36.15156 l -6.5,5.85394 -0.078,18.73721 c -0.088,21.02924 -1.6769,32.595 -6.6289,48.23722 -6.3016,19.90545 -16.3043,36.5021 -30.7815,51.07326 -18.3397,18.45865 -37.4175,26.06757 -61.7996,24.64788 -13.8197,-0.80469 -29.2911,-6.11961 -38.9679,-13.38677 -1.8997,-1.42665 -3.7741,-2.13034 -4.5,-1.68939 -0.6842,0.41566 -19.4691,17.02835 -41.7441,36.91709 -54.1446,48.34417 -140.6728,125.52907 -171.2782,152.78347 -18.1782,16.188 -24.5998,22.4767 -24.1085,23.6099 1.5127,3.4896 1.5365,7.167 0.061,9.4192 -1.9032,2.9047 -1.1319,6.8904 1.1998,6.2 9.7021,-2.8724 44.321,-8.9026 66.1261,-11.5184 23.7757,-2.8521 41.9887,-4.1205 62.5,-4.3526 17.4012,-0.1968 18,-0.1371 18,1.7964 0,1.7876 -0.7433,2.0244 -7,2.2297 -48.1295,1.5795 -87.5634,5.8808 -125.9151,13.7342 -14.8848,3.048 -17.2854,3.815 -20,6.3896 -1.6967,1.6092 -4.1024,3.2324 -5.3459,3.607 -1.2435,0.3747 -2.9387,1.9917 -3.7669,3.5934 -1.7135,3.3134 -6.5796,6.2258 -8.9088,5.332 -1.0304,-0.3954 -1.5633,-0.035 -1.5633,1.0581 0,2.5311 -6.1319,4.5584 -13.7179,4.5354 -4.8745,-0.015 -9.3015,-0.8736 -15.739,-3.0533 z m 23.9569,-5.8485 c 0,-0.9757 -2.6699,-1.9942 -8.5,-3.2426 -5.1247,-1.0973 -11.6768,-3.4572 -16.5,-5.9429 -9.4923,-4.8918 -10.4752,-5.6713 -8.6077,-6.8254 1.8296,-1.1308 6.0972,0.1747 10.6218,3.2492 2.0322,1.3809 9.752,4.1912 17.206,6.2636 14.3674,3.9946 16.7799,3.9179 16.7799,-0.5335 0,-1.9839 -1.5799,-2.7685 -14,-6.9527 -15.4212,-5.1953 -23.4502,-8.9526 -27.249,-12.7513 -1.8315,-1.8315 -2.2003,-2.7926 -1.3848,-3.6081 0.8156,-0.8156 3.0458,-0.083 8.3728,2.7498 16.61,8.8334 20.7232,10.6224 30.0546,13.0726 10.7588,2.8249 13.4513,2.8487 15.1043,0.1332 1.5821,-2.5991 -2.7983,-6.1128 -10.662,-8.5524 -3.4298,-1.064 -9.3892,-3.6676 -13.2433,-5.7858 -3.8541,-2.1182 -9.2541,-4.9762 -12,-6.3512 -3.5793,-1.7923 -5.0879,-3.1738 -5.3292,-4.8802 -0.3047,-2.1544 -0.068,-2.3143 2.5,-1.6862 1.5601,0.3816 7.4453,3.4112 13.0782,6.7324 10.3252,6.0877 19.9812,9.834 25.3475,9.834 1.601,0 2.9109,-0.1882 2.9109,-0.4182 0,-0.23 0.255,-1.0826 0.5666,-1.8947 0.6706,-1.7475 -13.2827,-13.7741 -22.2428,-19.1716 -10.8219,-6.5189 -20.7395,-13.9977 -22.9815,-17.3301 -4.3279,-6.4328 0.4564,-8.6875 5.3886,-2.5394 3.4356,4.2825 3.2153,4.3578 12.8623,-4.4005 l 6.8891,-6.2546 -12.4912,0.5445 c -17.743,0.7733 -17.1964,0.6471 -32.4884,7.4996 -11.3743,5.0969 -14.8231,6.2162 -19.0366,6.1783 -5.7807,-0.052 -21.376,-5.0543 -36.4661,-11.697 -5.225,-2.3001 -11.9905,-5.17 -15.0344,-6.3777 -7.4684,-2.9633 -14.9828,-9.0575 -24.9985,-20.2742 -9.1711,-10.2708 -12.1845,-12.756 -22.1462,-18.2641 l -6.679104,-3.6931 -0.3209,2.7964 c -0.3006,2.6195 -0.6524,2.8155 -5.5604,3.0983 -3.437,0.198 -6.5332,-0.2984 -9,-1.4432 -4.5113,-2.0934 -19.2605,-16.4422 -19.2605,-18.7375 0,-2.9032 2.4149,-1.7237 7.881,3.8493 5.4612,5.5679 11.1421,8.9841 16.8324,10.1222 l 3.1654,0.633 -0.5093,-5.8628 c -1.2495,-14.3839 -3.81,-21.5926 -15.7478,-44.3362 -8.1009,-15.43376 -8.1225,-15.46256 -8.4292,-11.25005 -0.32,4.39475 -0.9672,5.04865 -2.9925,3.02335 -0.829,-0.829 -1.2048,-6.00764 -1.2156,-16.75004 -0.01,-9.30728 -0.5444,-17.79628 -1.3328,-21.14526 -1.5299,-6.49917 -7.8911,-16.47042 -17.8869,-28.03789 -6.95,-8.04277 -7.6726,-9.37278 -5.5147,-10.15096 4.5744,-1.64961 18.574,15.07068 27.7694,33.16604 3.0939,6.08845 3.1302,6.11807 7.4956,6.11807 6.5249,0 14.4568,-1.89512 19.1033,-4.56427 2.2651,-1.30115 4.4026,-2.08147 4.75,-1.73406 1.3791,1.37904 0.5078,4.3334 -1.7056,5.7837 -3.4233,2.24302 -19.5548,7.51463 -22.9953,7.51463 l -2.9575,0 0.6066,7.2353 c 0.8607,10.26641 4.0534,11.9547 14.6835,7.7647 6.1007,-2.40466 10,-2.59962 10,-0.5 0,0.9417 -0.9504,1.5 -2.5534,1.5 -1.4044,0 -4.0927,1.22818 -5.974,2.72929 l -3.4205,2.72928 3.1701,3.27072 c 2.1392,2.20703 4.1091,3.27073 6.0573,3.27073 3.7346,0 3.1235,2.37582 -0.7274,2.82812 -4.428,0.52 -7.3001,-0.6065 -11.7377,-4.60352 -2.2744,-2.04854 -3.9455,-3.27462 -3.7135,-2.72462 0.2319,0.55 3.4447,7.07504 7.1394,14.50004 7.2616,14.5929 12.5865,29.4708 13.4615,37.6117 0.5279,4.911 0.7312,5.1998 5.1738,7.351 5.538704,2.682 19.410404,12.1583 23.679904,16.1768 l 3.0556,2.8759 2.7151,-2.834 c 2.664,-2.7807 2.679,-2.8667 0.795,-4.5717 -1.056,-0.9557 -4.2216,-2.3448 -7.0346,-3.0869 -5.2245,-1.3782 -12.6984,-5.2775 -15.5159,-8.095 -2.0452,-2.0452 -2.0765,-6.4278 -0.046,-6.4278 0.8386,0 1.9918,1.2283 2.5626,2.7296 1.3049,3.4322 1.7023,3.6721 11.4127,6.8913 4.4,1.4587 9.2784,3.2984 10.8409,4.0883 2.5311,1.2796 3.0441,1.2523 4.7038,-0.2497 2.267,-2.0516 7.9618,-15.4233 7.9385,-18.64 -0.01,-1.2757 -1.6189,-6.1445 -3.577,-10.8195 -1.9581,-4.675 -4.2495,-10.6892 -5.092,-13.3648 l -1.532,-4.8648 -1.8422,4.1148 c -1.7889,3.9956 -3.2378,5.0601 -4.3774,3.216 -0.3055,-0.4943 0.333,-2.8568 1.419,-5.25 1.0859,-2.3932 1.9843,-6.0288 1.9964,-8.0791 0.021,-3.5943 -4.617,-14.77214 -6.1296,-14.77214 -1.4582,0 -3.8484,4.50578 -3.8484,7.25464 0,1.5453 0.675,4.4251 1.5,6.3996 1.8647,4.4629 1.8766,5.3458 0.072,5.3458 -1.5773,0 -5.5718,-9.639 -5.5718,-13.44522 0,-1.30366 1.1333,-4.55461 2.5184,-7.22439 l 2.5184,-4.85415 -3.5408,-8.98814 c -1.9475,-4.94348 -4.8793,-10.56314 -6.5152,-12.48814 l -2.9743,-3.5 1.6982,3.5 c 0.934,1.925 1.878,5.975 2.0976,9 0.3835,5.28076 0.2514,5.63467 -3.3159,8.8784 -3.3198,3.01877 -3.6615,3.7792 -3.2102,7.14376 0.2777,2.07095 2.2875,6.40067 4.4662,9.62156 5.1269,7.57952 6.5799,12.22402 6.0624,19.37812 -0.4686,6.4786 -2.2461,9.6867 -4.384,7.9124 -1.0777,-0.8944 -1.0209,-1.705 0.3163,-4.5091 1.5102,-3.1669 1.5073,-3.8054 -0.039,-8.6719 -0.9179,-2.8893 -3.4759,-8.1782 -5.6845,-11.7532 -4.4932,-7.27293 -7.322604,-14.80984 -6.8366,-18.21166 0.2071,-1.44972 1.8443,-3.09615 4.5726,-4.59828 4.7894,-2.63689 5.1911,-4.27147 2.75,-11.1901 -0.825,-2.3383 -1.5,-5.37498 -1.5,-6.74817 0,-2.21095 0.1901,-2.33963 1.6607,-1.12427 1.5194,1.25575 1.5419,1.18177 0.2641,-0.87008 -0.8745,-1.40429 -2.0245,-2.04322 -3.0765,-1.70933 -2.3724,0.75296 -3.1616,-1.05387 -3.2614,-7.46659 -0.1721,-11.05266 -11.189204,-27.26688 -22.420304,-32.99657 -6.6503,-3.39272 -18.6355,-6.08499 -27.0887,-6.08499 -5.379,0 -9.9381,-0.74304 -15.59,-2.54081 -13.187499,-4.19474 -20.143399,-5.03788 -29.2976995,-3.55125 -10.1834001,1.65374 -11.6037001,0.96459 -13.7718005,-6.6819 -0.8929,-3.14932 -2.9274,-9.4744 -4.521,-14.05572 -1.5936,-4.58132 -2.8974,-9.11255 -2.8974,-10.06939 0,-0.95685 1.8371,-4.18349 4.0824,-7.17032 5.9793004,-7.95385 7.9176004,-12.2436 7.9176004,-17.52235 0,-4.17361 -0.4529,-5.11674 -4.2500004,-8.85029 -2.3375,-2.29838 -12.125,-8.84558 -21.75,-14.54934 -31.4039,-18.60993 -41.0948,-21.99592 -57.3104,-20.02429 -9.776601,1.18871 -17.569296,3.57974 -24.021996,7.37062 -5.5253,3.24601 -16.8135,15.0499 -19.5815,20.47596 -5.6125,11.00217 -8.46349,31.91919 -5.66342,41.55111 3.2315,11.11598 14.75342,25.72337 22.99642,29.15469 2.1554,0.89727 9.7199,2.24158 16.809695,2.98735 10.320901,1.08564 13.726101,1.84848 17.081001,3.82655 8.1621,4.81249 12.7709,8.75334 17.076,14.60144 5.071,6.88851 6.9499,13.03339 9.4148,30.79139 l 1.6994,12.24345 11.9404,10.4828 c 6.5673,5.76554 12.1064,10.31685 12.3092,10.11403 0.2028,-0.20282 -0.3903,-2.97972 -1.318,-6.17089 -2.6554,-9.13427 -0.3783,-28.45186 3.5307,-29.95186 2.9108,-1.11697 3.7046,1.97967 2.7318,10.65692 -1.8031,16.08461 2.9708,32.42277 12.2425,41.89814 5.1072004,5.2195 6.2188004,5.859 12.7761005,7.3504 3.9501,0.8985 9.2308005,1.6336 11.7347005,1.6336 4.667,0 5.8321,1.3205 3.3526,3.8 -1.8784,1.8784 -13.7430005,1.0994 -19.9829006,-1.3121 -1.5391,-0.5948 -1.5194,-0.1092 0.2309,5.6808 3.5535,11.7558 7.8421001,18.6694 18.4973006,29.8195 14.039799,14.6919 17.769199,19.7826 22.038999,30.084 3.1943,7.7065 4.6353,9.8394 10.1034,14.9545 3.5077,3.2813 8.2755,6.9258 10.595,8.0988 2.3195,1.1731 6.9173,4.2387 10.2173,6.8126 12.5636,9.7992 19.8455,14.0553 32.453104,18.9685 13.6344,5.3133 24.6344,7.9154 45.0469,10.6562 7.3065,0.9811 15.6161,2.8196 20,4.4251 4.125,1.5107 10.0809,3.0629 13.2352,3.4495 6.3928,0.7834 11.9064,4.3165 25.7648,16.5098 5.9857,5.2666 9.5561,7.4521 17.6835,10.8245 11.4042,4.7321 17.7863,6.1062 27.3165,5.8815 4.8819,-0.1151 6.5,-0.5073 6.5,-1.5757 z m -152.735,-87.3032 c -2.6379,-2.0664 -3.0459,-2.0964 -11.500004,-0.8474 -16.5421,2.444 -21.2171,2.4585 -27.5306,0.085 -3.1711,-1.1921 -7.1086,-3.2974 -8.75,-4.6786 -3.1515,-2.6518 -4.0144,-6.3334 -1.4844,-6.3334 0.825,0 1.5,0.4408 1.5,0.9797 0,0.5388 1.9125,2.0013 4.25,3.25 4.0127,2.1435 5.3692,2.2703 24.2929,2.2703 17.669804,0 20.370604,0.2147 22.811204,1.8131 2.8935,1.8952 3.259,4.9962 0.6344,5.3837 -0.8187,0.1209 -2.7192,-0.7442 -4.2235,-1.9225 z m -62.109904,-24.9075 c -3.801,-2.2094 -5.6239,-8.6474 -5.0591,-17.8668 0.5963,-9.7334 -0.6131,-13.32 -4.6518,-13.7955 -2.0789,-0.2447 -2.7311,0.3174 -3.8008,3.2754 -1.8241,5.0446 -4.7502,6.7435 -9.402299,5.459 -7.0291,-1.9408 -12.6802005,-8.7668 -14.2689005,-17.2354 -0.8617,-4.5931 0.6072,-4.8366 2.7352995,-0.4535 0.8678,1.7875 2.979,5.1625 4.691501,7.5 2.6487,3.6155 3.6429,4.25 6.6593,4.25 3.046199,0 3.694099,-0.4257 4.598899,-3.0211 0.5792,-1.6616 1.8763,-3.4616 2.8822,-4 2.3893,-1.2787 8.5781,-1.254 11.0034,0.044 4.2853,2.2934 6.2755,10.4098 4.7708,19.4559 -1.4469,8.699 -1.3098,10.3641 1.0614,12.8881 3.436,3.6574 2.6973,5.7768 -1.2199,3.4998 z m 91.067504,-19.4776 c -0.3974,-0.3974 -0.7226,-2.2703 -0.7226,-4.162 0,-2.2654 -0.9746,-4.6832 -2.8553,-7.0833 -5.376,-6.8608 -6.632,-11.6647 -3.6885,-14.1076 2.1073,-1.7488 3.5631,-0.3855 2.9392,2.7525 -0.4107,2.0655 0.287,3.7828 2.9296,7.2112 3.9647,5.1434 5.4947,11.5022 3.4422,14.3059 -0.7272,0.9932 -1.6472,1.4807 -2.0446,1.0833 z M -18.810954,939.50478 c -0.9485,-2.47182 3.4108,-6.19035 8.762,-7.47409 2.6927004,-0.64598 4.8959004,-1.7172 4.8959004,-2.38049 0,-3.71738 9.6523001,-12.59454 13.6943006,-12.59454 3.522,0 3.0285,3.55238 -0.6728005,4.84266 -2.5825,0.90028 -7.0068001,6.20054 -7.0178001,8.40734 0,0.4125 1.0947,0.75 2.4373001,0.75 2.3392,0 4.3051,1.58724 3.2601,2.63224 -0.2745,0.27454 -4.389,1.07428 -9.1431001,1.7772 -5.7304004,0.84725 -9.6271004,2.00484 -11.5605004,3.4343 -3.4771,2.57074 -3.8811,2.62327 -4.6554,0.60538 z m 0.1579,-29.04155 c -1.6398,-1.25013 -4.9715,-1.47866 -18.5,-1.26899 -17.3042,0.2682 -26.0982,-1.1421 -29.0117,-4.65265 -2.0083,-2.41985 -0.4215,-2.87641 3.9366,-1.13265 3.3985,1.35981 6.8652,1.50806 22.8008,0.97504 16.5606,-0.55392 19.1853,-0.42571 22.0956,1.07928 2.4075,1.24494 3.2181,2.28087 2.9907,3.82181 -0.4003,2.7124 -1.7984,3.0944 -4.312,1.17816 z m -41.6149,-18.74924 c -4.0798,-1.5008 -9.8851,-5.37915 -9.8851,-6.60398 0,-0.4452 0.679,-1.37299 1.5089,-2.06174 1.2422,-1.03094 2.2045,-0.77024 5.4443,1.47496 7.224,5.00625 9.0104,4.46486 30.5468,-9.25782 8.5257,-5.43246 14.112,-7.57352 13.3089,-5.10088 -0.2485,0.76512 -5.5836,5.11258 -11.8557,9.66102 -16.7769,12.16624 -22.2395,14.4004 -29.0681,11.88844 z M 307.06415,1120.2242 c 12.2555,-10.9556 46.1328,-41.1823 75.2828,-67.1704 29.15,-25.9881 72.1986,-64.36954 95.6635,-85.2921 l 42.6635,-38.04102 -6.0867,-6.79823 -6.0866,-6.79822 -8.0768,7.2513 c -4.4423,3.98822 -11.5644,10.34869 -15.8269,14.13437 -7.431,6.59973 -7.75,7.06269 -7.75,11.24653 0,11.89631 -11.1134,22.21384 -24.5747,22.81491 l -6.185,0.27616 -50.81,45.3541 c -27.9456,24.9447 -67.998,60.71 -89.0054,79.4783 l -38.1954,34.1242 7.1353,5.0609 c 3.9243,2.7835 7.6829,4.8849 8.3524,4.6698 0.6695,-0.2152 11.2445,-9.3549 23.5,-20.3106 z m -31.3565,-3.494 c 6.9516,-6.229 42.1143,-37.6025 78.1393,-69.719 36.025,-32.1164 69.7944,-62.23244 75.0432,-66.92451 5.2487,-4.69207 9.6351,-8.98103 9.7475,-9.53103 0.1633,-0.79889 -11.0625,-4.38432 -14.0176,-4.47716 -0.3999,-0.0126 -22.2249,19.16153 -48.5,42.6091 -26.2752,23.4476 -63.7364,56.8601 -83.2471,74.25 -19.5107,17.39 -37.0146,33.0038 -38.8976,34.6974 l -3.4236,3.0793 5.8976,3.6439 c 3.2437,2.0042 6.0599,3.656 6.2583,3.6707 0.1985,0.015 6.0485,-5.0697 13,-11.2987 z m -60.2736,-11.3236 9.0871,-4.6162 2.7954,-8.5839 c 4.0589,-12.4634 4.1122,-17.3946 0.4984,-46.1508 -3.5453,-28.2115 -3.8043,-36.6248 -1.4374,-46.7003 2.9471,-12.54548 1.6441,-19.14223 -4.2216,-21.37235 -1.4225,-0.54084 -2.7596,-0.81016 -2.9712,-0.5985 -0.9788,0.97877 1.0513,3.55195 3.2346,4.09991 1.9323,0.485 2.4276,1.2569 2.4276,3.78365 0,4.16293 -8.1025,12.12767 -16.4423,16.16259 -19.1377,9.2591 -52.0957,14.9301 -65.5563,11.28 -3.0243,-0.8201 -5.6791,-1.3107 -5.8995,-1.0902 -0.7566,0.7565 7.0707,19.2814 8.8132,20.8584 0.9583,0.8672 2.607,1.5699 3.6636,1.5615 1.4821,-0.012 1.6063,-0.2149 0.5432,-0.8882 -2.2596,-1.4312 -0.5536,-2.6816 5.51,-4.0386 7.905,-1.7691 19.7039,-1.854 21.7492,-0.1566 4.4743,3.7133 0.6299,5.0607 -14.7561,5.1718 l -10.125,0.073 5.2383,1.862 c 12.0111,4.2696 23.2617,12.0215 23.2617,16.0277 0,4.4217 -15.8575,6.5352 -19.7591,2.6335 -1.404,-1.404 -1.3222,-1.6011 0.853,-2.0545 1.3234,-0.2758 4.1926,-0.8782 6.3761,-1.3386 l 3.9699,-0.8371 -5.4699,-3.0964 c -3.0085,-1.7029 -7.1107,-4.0686 -9.1159,-5.2569 l -3.6459,-2.1606 1.4874,4.2873 c 3.8212,11.014 -4.2662,35.601 -12.9049,39.2334 -3.5914,1.51 -5.7907,1.0673 -5.7907,-1.1658 0,-0.8281 2.0897,-4.2675 4.6437,-7.643 6.0867,-8.0444 8.2959,-13.1844 9.0257,-21.0002 0.4657,-4.9867 0.2429,-6.9241 -1.0002,-8.699 -1.5261,-2.1787 -1.6318,-2.1952 -2.3056,-0.3607 -5.0573,13.7693 -11.0607,24.9106 -15.8444,29.4047 -1.3856,1.3016 -2.5192,2.7041 -2.5192,3.1166 0,0.4124 2.9939,3.2349 6.653,6.2722 l 6.6531,5.5223 3.0889,-1.5974 c 7.1554,-3.7002 25.3487,-2.4862 34.843,2.3249 l 4.9606,2.5137 3.9639,-2.747 c 2.1802,-1.5108 5.1562,-4.7814 6.6134,-7.2679 2.2334,-3.811 2.618,-5.5642 2.4491,-11.1656 -0.1122,-3.7248 -1.3684,-10.5575 -2.8586,-15.5492 -5.3492,-17.9177 -6.5534,-27.7026 -4.3572,-35.4046 2.8792,-10.0975 4.9549,-7.1555 4.9755,7.0524 0.013,9.0033 0.5291,12.3721 3.5153,22.9476 5.8309,20.6498 4.6194,31.9608 -4.5406,42.3935 -4.9289,5.6137 -12.4654,9.5858 -18.2094,9.5971 -5.6819,0.011 -6.0337,-1.3006 -1.1254,-4.1966 3.3125,-1.9545 3.4734,-2.2492 1.8685,-3.4227 -4.3212,-3.1598 -20.3469,-4.2314 -24.9291,-1.6671 -2.7298,1.5277 19.0332,10.3281 37.936,15.3405 6.05,1.6042 12.125,2.6931 13.5,2.4196 1.375,-0.2734 6.5892,-2.5745 11.5871,-5.1134 z m 107.6565,-56.5728 c 29.841,-26.6147 63.0314,-56.21115 73.7564,-65.76989 17.3646,-15.47636 21.0164,-18.97834 19.8333,-19.01998 -0.1833,-0.006 -25.7862,-6.46471 -56.8953,-14.35168 l -56.5619,-14.33995 -35.1881,31.38862 -35.188,31.38868 0,11.0794 c 0,7.1377 1.2666,20.3771 3.5603,37.2131 3.806,27.9376 3.8674,33.0283 0.5428,45.0178 l -1.7173,6.193 16.8007,-0.2043 16.8006,-0.2044 54.2565,-48.3904 z m -171.7518,-45.1436 c -4.2532,-10.17923 -8.6397,-56.88667 -5.6256,-59.90077 2.5657,-2.56563 3.5043,1.2761 4.2757,17.50048 0.902,18.96978 4.7102,39.44599 8.2319,44.26229 1.334,1.8243 1.8958,1.8652 9.8441,0.716 10.22,-1.4777 22.0059,-4.493 29.629,-7.5803 5.4513,-2.20772 5.6428,-2.41152 5.363,-5.71083 -0.549,-6.47523 -4.3925,-17.31652 -10.3587,-29.21831 -5.8659,-11.70168 -7.0468,-17.00009 -2.9659,-13.3069 4.4784,4.05293 15.4786,28.61559 17.6242,39.3538 0.7661,3.83394 1.1115,3.89742 4.7967,0.88163 l 2.8063,-2.29644 -3.1102,-7.91759 c -3.8824,-9.88353 -8.5986,-17.70787 -16.6917,-27.6922 -3.466,-4.27604 -7.3776,-9.90104 -8.6923,-12.5 -5.841,-11.54611 -8.3958,-26.61572 -5.6937,-33.58409 0.9218,-2.37699 1.3585,-2.65124 2.592,-1.62756 1.0627,0.88199 1.4834,3.29641 1.4834,8.51354 l 0,7.2824 3.8108,-0.51114 c 2.0959,-0.28112 6.6323,0.2117 10.0808,1.09516 7.3559,1.8845 25.7209,2.15001 36.2045,0.52342 4.4696,-0.69347 10.6516,-2.79447 17.1916,-5.84265 13.2536,-6.17726 34.6931,-14.5744 42.8141,-16.76882 4.6024,-1.24365 9.7662,-1.68739 18.3982,-1.58101 12.4038,0.15286 14.0485,0.5354 33.5,7.79181 3.3281,1.24153 6.5835,1.56341 12.5,1.23593 10.587,-0.58599 16.7144,-3.49805 19.5095,-9.27199 2.5682,-5.30528 2.5049,-8.34148 -0.4899,-23.4804 -3.0337,-15.33524 -3.0964,-20.41326 -0.4319,-35.00054 1.9969,-10.93246 2.0181,-11.81024 0.487,-20.17869 -0.9924,-5.42475 -1.3612,-10.78622 -0.9705,-14.11065 0.5746,-4.88895 0.302,-5.97207 -3.0927,-12.28587 -4.8003,-8.92821 -5.0957,-9.25561 -9.0139,-9.99067 -1.8158,-0.34065 -4.5547,-1.92756 -6.0866,-3.52647 -3.6889,-3.85036 -8.411,-4.07892 -8.411,-0.40711 0,1.87923 -0.5256,2.5 -2.1166,2.5 -1.717,0 -2.0266,-0.47074 -1.6399,-2.49365 0.5937,-3.10566 -1.4383,-4.92525 -4.611,-4.12896 -2.5578,0.64197 -3.5967,3.06443 -3.6188,8.43835 -0.015,3.57604 -1.5212,7.18426 -2.9994,7.18426 -0.5034,0 -0.8251,-3.25064 -0.7148,-7.22365 l 0.2005,-7.22365 -3.7267,-2.02182 -3.7268,-2.02183 -2.1646,2.16456 c -2.3586,2.35865 -2.3433,2.76113 1.3139,34.53879 1.7798,15.46456 -1.7063,34.43278 -8.3399,45.37814 -2.7216,4.49059 -4.1654,5.71497 -9.7746,8.28869 -11.9438,5.48036 -22.7777,6.2559 -42.0813,3.01237 -10.909,-1.83302 -15.1093,-2.02967 -33,-1.54504 -11.275,0.30542 -22.525,1.07226 -25,1.70408 -3.0735,0.78463 -10.0594,0.94097 -22.038,0.49322 -12.5436,-0.46888 -18.3815,-0.31885 -20.5,0.52683 -1.6543,0.66037 -8.4981,1.23691 -15.5012,1.30586 l -12.5391,0.12345 -8.1536,5.86954 c -9.6138,6.92067 -11.8141,10.47415 -11.5358,18.63046 0.1032,3.025 0.2011,17.425 0.2176,32 0.017,15.03363 0.5034,28.87981 1.1241,32 1.8787,9.44473 8.5069,29.13585 13.1567,39.08616 4.8949,10.47478 6.3556,11.59018 15.4683,11.81178 l 4.199,0.1021 -1.4062,-3.3655 z m 59.0082,-95.49705 c -3.4944,-0.44554 -5,-1.08916 -5,-2.13749 0,-1.25136 2.9009,-1.60807 17.5,-2.15193 18.8473,-0.70211 22.7718,-1.56805 30.9809,-6.83581 2.5115,-1.6116 5.862,-4.28264 7.4457,-5.93566 3.0143,-3.14623 4.5734,-3.1982 4.5734,-0.15244 0,4.95041 -10.5574,11.7735 -23.186,14.98478 -8.1378,2.06932 -24.6378,3.20725 -32.314,2.22855 z m -76.8605,-3.83134 c -2.5124,-2.51241 1.9476,-7.89141 7.4086,-8.93512 1.8985,-0.36285 5.1548,-1.5118 7.2362,-2.5532 3.9141,-1.95841 5.7157,-1.73205 5.7157,0.71813 0,1.96161 -4.1347,4.48227 -9.2298,5.62676 -2.3486,0.52758 -5.1702,1.76484 -6.2702,2.74949 -2.7721,2.48137 -4.1128,3.14169 -4.8605,2.39394 z m 206.5109,-12.09339 c -0.9804,-1.90783 -0.425,-4.32909 1.2495,-5.44745 0.6051,-0.40408 4.1672,-0.74158 7.9158,-0.75 9.5484,-0.0214 10.6843,-0.82419 10.6843,-7.55049 0,-3.97507 0.3755,-5.46482 1.3776,-5.46482 2.7108,0 3.8903,2.8603 3.378,8.1916 -0.7016,7.30157 -2.8224,8.8084 -12.3978,8.8084 -5.4943,0 -7.5623,0.3693 -7.9665,1.42268 -0.855,2.22805 -3.2707,2.6781 -4.2409,0.79008 z m -6.4151,-24.46276 c -0.2373,-0.6875 1.3419,-3.87423 3.5093,-7.08163 2.1674,-3.2074 5.0876,-8.3824 6.4893,-11.5 2.8857,-6.41813 4.9618,-9.16837 6.9211,-9.16837 2.1546,0 1.6172,1.87355 -3.7285,13 -6.2789,13.06892 -11.6851,19.1139 -13.1912,14.75 z m 30.2647,-73.12756 c 0,-3.49884 2.1336,-6.27596 3.9562,-5.14951 1.4255,0.88103 1.3196,5.85129 -0.1562,7.32707 -2.2329,2.23287 -3.8,1.33484 -3.8,-2.17756 z m -10.3292,-4.03783 c -1.0211,-2.66106 0.8518,-7.0682 3.1465,-7.40416 1.7144,-0.25099 2.1827,0.18403 2.1827,2.02749 0,2.4624 -2.5178,6.79206 -3.9497,6.79206 -0.46,0 -1.0807,-0.63692 -1.3795,-1.41539 z m -74.4208,158.98905 c 9.2125,-8.19876 16.75,-15.1933 16.75,-15.54342 0,-0.63016 -17.374,-5.07736 -19.7147,-5.04634 -0.6681,0.009 -11.8685,9.54604 -24.8897,21.19373 -23.3893,20.92204 -23.6494,21.19842 -21.5489,22.89935 2.8675,2.32196 4.1533,6.05398 4.1533,12.05517 l 0,5.00195 14.25,-12.8268 c 7.8375,-7.05474 21.7875,-19.53488 31,-27.73364 z m -34.1731,-0.85971 c 12.4173,-11.11767 22.6747,-20.66395 22.7942,-21.21395 0.3757,-1.72936 -11.9955,-4.31876 -14.8711,-3.11266 -1.375,0.57671 -10.6,8.22338 -20.5,16.9926 -25.6318,22.70413 -23.0749,19.83824 -20.9335,23.46327 1.7097,2.89444 2.9785,3.42715 9.4335,3.9607 0.825,0.0682 11.6596,-8.97229 24.0769,-20.08996 z m 217.0746,14.40495 c 2.4986,-1.5846 5.6242,-4.3971 6.9457,-6.25 2.3759,-3.33121 2.4024,-3.63179 2.3693,-26.8689 -0.024,-17.01092 -0.5174,-26.81357 -1.7861,-35.5 -8.2054,-56.18079 -33.1577,-110.45516 -76.2023,-165.75 l -9.9253,-12.75 -12.5264,0.0148 c -36.2181,0.0428 -109.0755,3.24257 -137.7836,6.05122 -17.6585,1.72761 -34.0597,8.10138 -36.1302,14.04074 -1.6819,4.82473 -1.4714,5.8333 3.3875,16.23104 10.0293,21.46205 20.5865,50.76742 28.1448,78.12557 1.9809,7.17014 3.7293,13.18231 3.8854,13.36037 0.5287,0.60305 5.9637,-2.60717 7.7434,-4.57367 2.1075,-2.32874 4.6846,-13.71909 4.7089,-20.81248 0.016,-4.707 -3.2572,-16.08527 -7.3807,-25.65547 -2.2549,-5.23341 -2.0007,-9.05001 1.0033,-15.06536 6.2008,-12.41642 17.0799,-18.58524 25.1945,-14.28611 4.4557,2.36065 11.3485,12.72031 13.6857,20.56935 0.4095,1.375 1.5118,3.4 2.4496,4.5 2.6818,3.14551 8.715,13.894 9.8894,17.61879 0.5864,1.85967 1.7814,9.90621 2.6556,17.88121 0.9707,8.85585 2.5551,17.41939 4.0703,22 3.5429,10.71022 3.4531,10.61515 8.5712,9.08175 6.8408,-2.04955 10.1824,-6.23876 12.828,-16.08175 3.232,-12.02503 3.4795,-17.3444 1.6576,-35.62746 -2.0841,-20.91416 -2.0658,-27.78737 0.083,-31.42586 2.7652,-4.68111 5.9384,-5.40625 18.1318,-4.14354 5.8727,0.60816 12.7357,1.29863 15.2512,1.53438 5.1363,0.48138 7.8889,1.73881 16.8816,7.71192 4.636,3.07937 6.7246,5.23309 8.1084,8.36133 1.0251,2.31746 2.7398,5.00626 3.8103,5.9751 2.5831,2.33768 4.3835,12.72927 3.1384,18.11413 -0.6506,2.81353 -0.4825,6.52125 0.5666,12.5 1.4446,8.23234 1.4058,9.00499 -1.2347,24.53657 l -2.7263,16.03656 2.8127,11.90367 c 2.1235,8.98687 2.6895,13.43853 2.3099,18.16757 -0.7226,9.00168 -2.9012,12.17675 -11.2227,16.35563 -6.4251,3.22654 -7.6747,3.5 -15.9937,3.5 -7.7418,0 -10.445,-0.49733 -19.0241,-3.5 -9.8565,-3.44978 -10.2295,-3.49932 -26,-3.45257 -12.1022,0.0359 -17.5834,0.48005 -22.5,1.82332 -6.4757,1.76925 -28.3841,11.57846 -27.6035,12.3591 0.2258,0.22573 41.0664,10.69433 90.757,23.26356 65.7745,16.63765 91.9931,22.87402 96.4007,22.92987 5.032,0.0638 6.8213,-0.40974 10.5973,-2.80438 z m -23.4503,-19.751 c -0.3856,-0.38568 -0.7012,-5.24149 -0.7012,-10.79069 0,-50.14442 -20.5582,-111.49657 -58.6011,-174.88378 -9.0512,-15.08119 -10.1396,-17.37332 -8.8589,-18.65772 2.0557,-2.06174 2.5682,-1.40564 14.422,18.46429 37.0888,62.17006 56.7616,120.80957 57.3595,170.97428 0.1528,12.81369 -0.045,15.01904 -1.3703,15.28457 -0.8518,0.17066 -1.8643,-0.005 -2.25,-0.39095 z M 205.18275,736.48844 c -0.9781,-2.549 0.6578,-3.21375 10.6642,-4.33348 40.9438,-4.58163 101.4481,-4.34234 135.8295,0.53718 4.2254,0.59968 6.3247,2.61627 4.5533,4.37379 -0.5053,0.50131 -6.6335,0.27119 -14.331,-0.53815 -37.0959,-3.90043 -84.2713,-3.88175 -121.5518,0.0481 -7.7,0.81169 -14.1266,1.47668 -14.2814,1.47778 -0.1547,10e-4 -0.552,-0.70327 -0.8828,-1.56524 z M -59.726654,951.55566 c -2.0164,-13.42671 -7.2088,-24.92016 -13.9012,-30.77037 -4.1795,-3.65358 -8.3251,-5.04947 -25.738596,-8.6666 -15.3475,-3.18799 -17.6277,-3.46126 -16.0846,-1.92769 2.8501,2.8325 56.782596,50.68166 56.936996,50.51483 0.077,-0.0826 -0.4692,-4.20017 -1.2126,-9.15017 z M 221.08165,944.4099 c 7.8459,-6.95517 14.8688,-13.19973 15.6064,-13.8768 1.0657,-0.97823 -1.3987,-1.13321 -12,-0.75468 -9.9435,0.35504 -15.2511,0.0692 -20.8411,-1.12238 -12.7847,-2.72525 -15.7099,-1.78359 -13.0888,4.21339 1.0561,2.4164 15.2548,24.0953 15.8235,24.15967 0.129,0.0146 6.654,-5.66403 14.5,-12.6192 z m -108.7006,-3.10411 c 0.058,-20.16438 0.087,-45.46844 0.059,-52.25013 -0.045,-10.94757 4.5377,-16.45872 20.3469,-24.46987 5.965,-3.02266 5.9832,-3.02426 45.5595,-4.00692 18.6927,-0.46413 27.9014,-1.14301 36.5,-2.69084 9.3329,-1.68001 14.5023,-2.00059 27.4325,-1.70124 l 15.9324,0.36887 2.4829,-6 c 1.3655,-3.3 3.2283,-9.375 4.1396,-13.5 1.1861,-5.36965 2.1333,-7.59184 3.3347,-7.82332 1.2703,-0.24479 1.6779,0.40733 1.6779,2.68462 0,4.0426 -2.678,16.73718 -4.5164,21.40894 -0.816,2.07363 -1.4836,3.94413 -1.4836,4.15667 0,1.22009 25.6274,2.27903 26.799,1.10737 0.1757,-0.17562 -0.335,-2.73018 -1.1347,-5.67679 -0.7998,-2.94662 -1.975,-11.20749 -2.6117,-18.35749 -2.2551,-25.32504 -3.7935,-30.82977 -11.0317,-39.475 -2.2049,-2.63349 -5.3168,-8.00206 -6.9153,-11.93014 -3.7313,-9.16882 -5.5949,-11.95019 -8.8316,-13.18079 -3.5026,-1.33168 -8.0394,-0.22853 -8.7904,2.13742 -0.3534,1.11375 0.4321,3.98115 1.8809,6.86563 3.0965,6.16514 3.6405,9.4341 1.6355,9.82907 -0.9947,0.19595 -2.6318,-2.0696 -4.8598,-6.72535 -1.8478,-3.86146 -3.8185,-7.02084 -4.3791,-7.02084 -0.6547,0 -0.7766,2.1466 -0.3406,6 0.4786,4.23045 0.3416,6 -0.4645,6 -0.6288,0 -1.3786,-0.9 -1.6662,-2 -0.2877,-1.1 -0.9509,-2 -1.4738,-2 -1.397,0 -0.178,3.37423 5.0309,13.92576 4.4471,9.00845 4.6527,9.80537 4.6444,18 -0.01,9.73981 -2.6097,21.43963 -5.8536,26.34304 -2.8575,4.31917 -11.906,8.58414 -22.037,10.387 -7.4061,1.31796 -10.1586,1.25486 -32.1007,-0.7359 -30.0148,-2.72317 -41.1565,-2.32277 -57.9643,2.08309 -7.2054,1.88874 -16.5529,3.50352 -23.5,4.05961 -6.3446,0.50786 -12.885704,1.20698 -14.535704,1.5536 -8.8779,1.86502 -20.078,11.09337 -23.115,19.04585 -1.4588,3.81969 -1.5286,5.47903 -0.5311,12.618 0.6318,4.52097 1.1481,9.85307 1.1474,11.8491 -0.001,3.51326 0.2697,3.78121 8.4841,8.39156 4.6669,2.61933 10.2682,6.28845 12.4472,8.15358 4.733104,4.05135 10.439604,14.93543 12.091904,23.06313 0.7426,3.65287 2.1194,6.76937 3.7606,8.51258 1.424,1.5125 2.6174,2.75006 2.652,2.75013 0.035,7e-5 0.078,-5.28743 0.097,-11.75 z M 78.846946,902.18397 c 0,-2.74684 9.0105,-16.04377 13.7708,-20.3218 5.871004,-5.2762 15.729204,-6.72179 15.729204,-2.30651 0,1.66846 -0.8835,2.10783 -5.3296,2.65047 -6.545504,0.79887 -8.641804,2.60621 -15.773504,13.59953 -5.1219,7.89534 -8.3969,10.38304 -8.3969,6.37831 z m 29.487404,-30.14878 c -0.3469,-0.56126 0.4954,-2.35883 1.8718,-3.99461 1.3764,-1.63577 2.7758,-3.83499 3.1098,-4.88714 0.7894,-2.4872 3.4432,-3.49025 4.1767,-1.57869 1.8945,4.93689 -6.5858,14.62286 -9.1583,10.46044 z m 482.6808,69.47688 c 18.3959,-4.76685 35.8544,-18.21589 48.8317,-37.6173 15.3067,-22.8837 22.0041,-46.53838 21.9961,-77.68848 -0.01,-24.05418 -3.7566,-42.42495 -12.3865,-60.67279 -13.8623,-29.31186 -35.8045,-49.33307 -60.3795,-55.0934 -10.4374,-2.44651 -28.3857,-1.51134 -38.73,2.01797 -31.1141,10.61561 -55.9288,43.9152 -64.1595,86.09759 -2.3997,12.29835 -2.4336,42.25939 -0.062,55.13569 7.3277,39.79205 31.1595,73.07952 60.9293,85.10407 13.0884,5.28665 30.0079,6.33222 43.9608,2.71665 z m -48.1682,-15.66969 c -18.3625,-21.9155 -29.0909,-43.01059 -34.1015,-67.05305 -7.4452,-35.72438 3.7654,-87.35259 25.288,-116.4588 6.0451,-8.17515 15.7517,-18.27487 17.5636,-18.27487 3.5831,0 2.1297,3.39426 -4.3955,10.2651 -19.5562,20.59215 -31.0539,48.73674 -35.4118,86.68272 -3.8865,33.84101 7.3155,67.98031 32.4249,98.81821 3.7018,4.54632 6.4569,8.70882 6.1224,9.25 -1.2592,2.0375 -4.1053,0.81046 -7.4901,-3.22931 z m 30.2422,-84.73432 c -9.1678,-11.72505 -9.4043,-25.66161 -0.61,-35.93581 l 3.5237,-4.11659 32.4541,0 c 25.1481,0 33.1892,0.30707 35.7188,1.36403 12.7731,5.33693 15.6112,30.83188 4.3494,39.07144 -2.7099,1.98269 -4.2163,2.07325 -38,2.28456 l -35.1782,0.22003 -2.2578,-2.88766 z m 54.6893,-5.44392 c -4.5678,-7.74186 -4.2564,-19.87154 0.6761,-26.33843 l 2.4942,-3.27005 -26.4783,0 -26.4783,0 -2.1635,2.75 c -5.3046,6.74297 -6.3391,14.66054 -2.9047,22.23202 3.8519,8.49197 2.0167,8.01798 31.0443,8.01798 l 25.8113,0 -2.0011,-3.39152 z m 18.5317,1.01925 c 6.1918,-6.19179 5.8354,-20.42318 -0.6852,-27.36408 -2.6069,-2.77487 -5.2863,-2.86084 -9.4794,-0.30413 -4.5423,2.7696 -6.7098,7.4201 -6.594,14.14783 0.116,6.73924 2.274,11.29909 6.594,13.93313 4.2493,2.591 7.2841,2.46777 10.1646,-0.41275 z m -159.9632,92.19085 c 4.4,-3.92469 10.4158,-9.33004 13.3686,-12.01188 l 5.3685,-4.87608 -3.6288,-5.46531 c -1.9958,-3.00592 -3.8964,-5.46531 -4.2235,-5.46531 -0.3271,0 -5.0094,3.9375 -10.405,8.75 l -9.8102,8.75 -0.085,8.75 c -0.047,4.8125 0.2527,8.73974 0.6652,8.72719 0.4125,-0.0125 4.35,-3.23391 8.75,-7.15861 z m 1.1292,-26.62371 7.1292,-6.31506 -3.8224,-8.68991 c -2.1023,-4.77944 -4.9503,-12.59996 -6.3291,-17.37892 -2.4064,-8.34113 -5.6069,-26.7154 -5.6069,-32.18932 l 0,-2.62166 -9,0 c -4.95,0 -9,0.35539 -9,0.78976 0,0.43436 1.3299,5.04686 2.9554,10.25 4.72,15.10877 8.6801,32.48314 10.4756,45.96024 2.7347,20.52662 2.4427,19.33745 4.3781,17.82837 0.93,-0.72514 4.899,-4.16022 8.8201,-7.6335 z m -260.934,-56.55678 c 0.6664,-0.66634 -6.3421,-25.38599 -12.3343,-43.50442 -5.1481,-15.5661 -12.2317,-33.50674 -18.7581,-47.50863 -3.0477,-6.53861 -4.6028,-11.22096 -4.6028,-13.85888 l 0,-3.98393 -4.0631,4.85889 c -10.0188,11.98085 -17.8009,27.45421 -22.6694,45.07413 -2.3722,8.58529 -2.7076,11.62352 -2.7356,24.78475 -0.028,12.97591 0.2849,16.02385 2.3155,22.58748 l 2.3475,7.58749 17.1525,2.1738 c 9.4339,1.19559 18.5026,2.3559 20.1526,2.57848 3.9646,0.5348 22.502,-0.0959 23.1952,-0.78916 z m -66.0141,-4.01487 c 0.1,-0.0836 -0.7226,-3.29552 -1.827,-7.13761 -2.9789,-10.36305 -3.5532,-26.90543 -1.3588,-39.14016 4.529,-25.25097 14.8701,-45.75377 32.6758,-64.78488 7.9116,-8.45613 10.3525,-9.96557 11.4578,-7.08531 0.4838,1.26089 0.9515,1.28057 3.2186,0.13548 4.881,-2.46543 13.5123,-4.9044 21.619,-6.10895 l 8.0335,-1.19369 -4.5,-1.3567 c -7.5566,-2.27824 -25.2121,-1.85634 -33.6754,0.80471 -34.4188,10.82213 -58.5262,56.87528 -54.3965,103.91552 0.8222,9.36566 2.2478,18.30909 3.4857,21.86741 0.283,0.8133 14.3066,0.89062 15.2673,0.0842 z m 318.3189,-20.62322 0,-9 -14.0134,0 -14.0134,0 1.6054,3.75 c 0.883,2.0625 2.5265,6.1125 3.6522,9 l 2.0468,5.25 10.3612,0 10.3612,0 0,-9 z m 2.4001,-24.75 c 0.9616,-5.3625 2.9738,-13.45936 4.4716,-17.99303 l 2.7232,-8.24303 -2.5475,2.33492 c -1.401,1.28421 -9.2974,8.31383 -17.5474,15.62138 -8.25,7.30755 -16.1148,14.3537 -17.4773,15.65811 l -2.4772,2.37165 15.5532,0 15.5531,0 1.7483,-9.75 z"
       id="path3012"
       inkscape:connector-curvature="0" />
  </g>
</svg>
