<?xml version="1.0" encoding="UTF-8" standalone="no"?>
<!-- Created with Inkscape (http://www.inkscape.org/) -->

<svg
   xmlns:dc="http://purl.org/dc/elements/1.1/"
   xmlns:cc="http://creativecommons.org/ns#"
   xmlns:rdf="http://www.w3.org/1999/02/22-rdf-syntax-ns#"
   xmlns:svg="http://www.w3.org/2000/svg"
   xmlns="http://www.w3.org/2000/svg"
   xmlns:xlink="http://www.w3.org/1999/xlink"
   xmlns:sodipodi="http://sodipodi.sourceforge.net/DTD/sodipodi-0.dtd"
   xmlns:inkscape="http://www.inkscape.org/namespaces/inkscape"
   width="1023.1214"
   height="669.50006"
   id="svg2"
   version="1.1"
   inkscape:version="0.48.3.1 r9886"
   sodipodi:docname="Back-extension-on-stability-ball-2.svg"
   inkscape:export-filename="/home/christian/Dokumente/Code/workspace/opentraining-exercises/Back-extension-on-stability-ball-2.png"
   inkscape:export-xdpi="214"
   inkscape:export-ydpi="214">
  <defs
     id="defs4">
    <radialGradient
       gradientUnits="userSpaceOnUse"
       gradientTransform="matrix(1,0,0,0.91819829,-19.285714,-7.9105395)"
       r="209.56604"
       fy="287.50052"
       fx="398.1105"
       cy="287.50052"
       cx="398.1105"
       id="radialGradient5255"
       xlink:href="#linearGradient5249"
       inkscape:collect="always" />
    <linearGradient
       id="linearGradient5249"
       inkscape:collect="always">
      <stop
         id="stop5251"
         offset="0"
         style="stop-color:#e3e3e3;stop-opacity:1;" />
      <stop
         id="stop5253"
         offset="1"
         style="stop-color:#e3e3e3;stop-opacity:0;" />
    </linearGradient>
  </defs>
  <sodipodi:namedview
     id="base"
     pagecolor="#ffffff"
     bordercolor="#666666"
     borderopacity="1.0"
     inkscape:pageopacity="0.0"
     inkscape:pageshadow="2"
     inkscape:zoom="0.35"
     inkscape:cx="945.42861"
     inkscape:cy="-54.202105"
     inkscape:document-units="px"
     inkscape:current-layer="layer1"
     showgrid="false"
     showguides="true"
     inkscape:guide-bbox="true"
     fit-margin-top="0"
     fit-margin-left="0"
     fit-margin-right="0"
     fit-margin-bottom="0"
     inkscape:window-width="1615"
     inkscape:window-height="1026"
     inkscape:window-x="65"
     inkscape:window-y="24"
     inkscape:window-maximized="1">
    <sodipodi:guide
       orientation="-0.70710678,0.70710678"
       position="-1222.7463,1215.4078"
       id="guide2985" />
  </sodipodi:namedview>
  <metadata
     id="metadata7">
    <rdf:RDF>
      <cc:Work
         rdf:about="">
        <dc:format>image/svg+xml</dc:format>
        <dc:type
           rdf:resource="http://purl.org/dc/dcmitype/StillImage" />
        <dc:title></dc:title>
      </cc:Work>
    </rdf:RDF>
  </metadata>
  <g
     inkscape:label="Ebene 1"
     inkscape:groupmode="layer"
     id="layer1"
     transform="translate(205.82513,-572.55566)">
    <path
       style="fill:#000000"
       d="m 137.15994,1239.7781 c 0,-2.1218 3.89785,-3.753 30.5,-12.7637 52.49015,-17.7794 98.94968,-28.2017 164,-36.79 33.87056,-4.4719 82.84982,-9.082 84.65246,-7.9679 1.12158,0.6932 1.08441,3.1413 -0.0584,3.8477 -0.49827,0.3079 -9.61077,1.2524 -20.25,2.0988 -55.61606,4.4246 -120.06947,14.1607 -162.83356,24.5972 -21.4724,5.2404 -54.17978,15.1142 -75.42063,22.7684 -9.3006,3.3515 -17.7381,6.0937 -18.75002,6.0937 -1.13547,0 -1.83985,-0.7214 -1.83985,-1.8842 z m 96.54314,-54.1898 c -13.08249,-4.4296 -25.04383,-10.59 -31.43297,-16.1887 -10.07925,-8.8322 -19.78953,-14.7373 -24.23378,-14.7373 -2.17584,0 -5.80688,-0.9442 -8.06899,-2.0983 -7.16241,-3.654 -11.40472,-4.7536 -28.5644,-7.4039 -15.54775,-2.4014 -35.61165,-7.357 -46.242997,-11.4215 -2.475,-0.9463 -10.125,-5.5139 -17,-10.1503 -6.875,-4.6365 -17.27475,-10.78 -23.11054,-13.6524 -14.17904,-6.9789 -18.64625,-11.8581 -22.22406,-24.2736 -2.18953,-7.598 -6.50789,-14.045 -16.07591,-24 -15.0128999,-15.6202 -20.6295399,-24.4213 -27.12257,-42.5 -0.98767,-2.75 -2.81656,-6.125 -4.06421,-7.5 -1.24764,-1.375 -3.82485,-5.0925 -5.72714,-8.2611 -2.59506,-4.32258 -8.29251,-10.03923 -22.81713,-22.89406 -10.64714,-9.42311 -24.758439,-21.93682 -31.358439,-27.80824 -6.6,-5.87142 -31.877604,-28.26746 -56.172454,-49.76897 -42.83554,-37.91047 -44.33921,-39.12828 -49.68215,-40.23748 -10.13222,-2.10344 -17.92901,1.7967 -19.73814,9.87347 -0.93136,4.15802 -0.78064,4.71581 2.70195,10 8.64842,13.12234 17.13934,21.54766 48.89079,48.513 52.248184,44.37246 156.6286731,132.82698 161.750003,137.07078 4.85046,4.0193 6.22554,7.5126 2.95727,7.5126 -0.98599,0 -14.3874499,-10.6875 -29.781,-23.75 -15.39356,-13.0625 -60.149329,-51.044 -99.457273,-84.40328 -71.10428,-60.34372 -76.28452,-65.12051 -87.13295,-80.34675 -5.86572,-8.23281 -6.09408,-8.9401 -4.83868,-14.98732 2.03637,-9.80915 8.77452,-14.91184 19.50263,-14.76904 9.04651,0.12042 13.69299,2.31489 23.364,11.03452 4.7498,4.28254 12.12411,10.8651 16.38734,14.62791 l 7.75134,6.84146 -2.49368,-5.44693 c -4.9135,-10.73249 -5.60061,-20.32106 -2.49883,-34.87115 2.82307,-13.24272 3.65201,-15.51841 8.53437,-23.42945 4.95409,-8.02728 10.39538,-13.5572 18.95546,-19.26421 13.29014,-8.86056 20.569734,-10.81024 37.297144,-9.98924 16.608969,0.81518 23.551799,3.74134 51.293689,21.61845 6.51644,4.19925 15.24269,9.79728 19.3916501,12.44006 8.40377,5.35299 10.45645,7.82074 11.21606,13.48402 0.58182,4.33786 -1.31692,8.78106 -7.91021,18.51047 -2.16158,3.18976 -4.18099,7.34529 -4.48757,9.23453 -0.74832,4.61135 5.45253,24.44224 7.66679998,24.51914 0.84284,0.0293 7.38244002,0.15853 14.53243992,0.28724 10.91421,0.19646 14.84512,0.73098 24.5,3.33149 6.325,1.70362 15.48448,3.83982 20.35439,4.74711 10.66471,1.9869 17.94665,4.83942 28.7322,11.25512 11.15779,6.63714 17.274877,15.4781 19.364127,27.98676 0.38224,2.28852 1.63056,4.98852 2.77405,6 2.51844,2.2277 10.35718,14.1152 12.20393,18.50732 l 1.3328,3.1698 2.80011,-4.41903 c 1.54006,-2.43047 4.78286,-8.91903 7.20622,-14.41903 2.92592,-6.64061 5.58357,-11.07013 7.91111,-13.18548 2.28077,-2.07285 5.71566,-7.72727 9.83419,-16.18878 8.69553,-17.86491 15.18516,-27.22466 33.02155,-47.62574 8.29718,-9.49023 9.46532,-11.38742 9.46532,-15.37283 0,-1.88531 1.20925,-5.89945 2.68722,-8.92032 3.26102,-6.66527 9.63963,-11.17758 22.84728,-16.16248 5.03193,-1.89917 13.51015,-6.39588 19.87103,-10.53925 6.10196,-3.97473 16.49447,-10.26374 23.09447,-13.9756 6.6,-3.71186 13.93254,-7.8552 16.29453,-9.20742 l 4.29452,-2.4586 -5.40654,-5.83971 c -22.12375,-23.89629 -33.04925,-60.90369 -28.65156,-97.05002 3.32047,-27.29235 12.72451,-47.69409 29.96905,-65.01687 7.44856,-7.48235 11.22753,-10.42031 17.5,-13.60537 11.34033,-5.75843 16.12655,-6.85153 30,-6.85153 12.47472,0 17.77951,0.9932 27.22417,5.09709 4.96537,2.15755 5.85704,2.22524 18,1.36645 26.06284,-1.84326 54.74937,-3.00337 89.8569,-3.6339 l 36.08106,-0.64802 5.10538,6.13474 c 8.21733,9.87412 17.18654,21.87858 25.27681,33.83067 l 7.54533,11.14703 22.57596,-20.14703 c 12.41678,-11.08087 35.70167,-31.84703 51.74421,-46.14703 16.04253,-14.3 29.93818,-26 30.87921,-26 0.97531,0 1.79996,0.85993 1.91794,2 0.15429,1.49097 -12.3807,13.19876 -49.25007,46 -27.20138,24.2 -50.66018,45.05815 -52.13067,46.35144 l -2.67363,2.35145 2.3015,4.21308 c 4.87837,8.93028 3.44758,9.24803 18.26201,-4.0556 7.30614,-6.56104 30.15889,-26.94387 50.78389,-45.29517 20.625,-18.35129 38.94406,-34.71872 40.70902,-36.37205 2.73378,-2.56086 3.4436,-2.81138 4.79289,-1.69156 0.87113,0.72297 1.45207,1.8568 1.29098,2.51963 -0.16109,0.66283 -23.91789,22.24336 -52.79289,47.95673 -28.875,25.71337 -53.14967,47.36568 -53.94371,48.11624 -1.25228,1.18371 -1.06216,2.16292 1.43387,7.38523 2.82416,5.90883 2.95305,6.02027 6.94371,6.00373 3.85017,-0.0159 5.14,-0.97573 24.2853,-18.07103 17.90669,-15.98932 20.67253,-18.87525 24.18322,-25.23316 12.71916,-23.0346 30.10136,-40.19212 48.59968,-47.97148 17.62202,-7.41084 40.68153,-7.55983 58.46262,-0.37773 17.46096,7.05279 33.69627,21.9552 46.44341,42.63044 l 4.2914,6.96045 10.07278,-8.96032 c 10.06638,-8.95463 12.74828,-10.37329 13.90612,-7.35602 0.43169,1.12498 -1.29561,3.28722 -5.78139,7.23719 -3.51836,3.09809 -8.51742,7.66366 -11.10904,10.1457 l -4.71202,4.51281 2.56821,6 c 1.41251,3.3 2.72955,6.17163 2.92676,6.3814 0.1972,0.20977 6.17458,-4.85273 13.28307,-11.25 7.10849,-6.39727 13.36921,-11.6314 13.91281,-11.6314 0.5436,0 1.552,0.67915 2.2409,1.50922 1.4272,1.71976 1.5298,1.6105 -16.83204,17.93676 -8.94383,7.95234 -11.06156,10.33815 -10.56508,11.90243 0.34153,1.07605 1.36736,5.6432 2.27963,10.14922 l 1.65867,8.19277 18.39722,-16.38547 c 10.3706,-9.23654 19.0808,-16.25381 19.9641,-16.08371 4.1968,0.80823 1.408,4.15522 -17.5502,21.06308 l -19.72703,17.59357 -0.14737,17.31107 c -0.16925,19.88016 -1.95249,31.96107 -6.9947,47.38692 -12.21701,37.37605 -38.71118,65.40491 -68.9909,72.98723 -9.97205,2.49709 -27.5717,2.32003 -37.64353,-0.37872 -7.55788,-2.02513 -17.7737,-6.6143 -23.10946,-10.38125 -2.66841,-1.88386 -2.82303,-1.88765 -5.03241,-0.12335 -1.99584,1.59378 -70.17711,62.35752 -243.1555,216.70226 -26.4325,23.5852 -59.74707,53.2852 -74.03236,66 -14.2853,12.7149 -27.50785,24.4978 -29.38347,26.1843 -2.96138,2.6628 -3.26102,3.3451 -2.27673,5.1843 1.54675,2.8901 1.42291,6.3911 -0.31379,8.8706 -1.83429,2.6188 -0.94122,6.6305 1.32121,5.9349 9.28834,-2.8557 44.83915,-8.9868 66.62604,-11.4904 26.21778,-3.0127 41.35757,-4.0794 61.5,-4.3329 17.91095,-0.2254 18.5,-0.1691 18.5,1.7672 0,1.7523 -0.74292,2.0283 -6,2.2287 -48.76103,1.8592 -80.92064,5.0326 -115,11.3477 -22.0801,4.0915 -28.81603,5.9695 -32,8.9215 -1.65,1.5298 -4.01744,3.088 -5.26097,3.4626 -1.24353,0.3747 -2.93865,1.9917 -3.76692,3.5934 -1.56803,3.0322 -6.85363,6.4464 -8.4513,5.4589 -0.50626,-0.3128 -1.38354,0.2964 -1.94953,1.354 -2.71775,5.0781 -16.22753,5.5628 -29.52814,1.0592 z m 24.19184,-5.6201 c 0.23042,-0.6976 -1.19157,-1.57 -3.4203,-2.0984 -2.09807,-0.4974 -6.06468,-1.4268 -8.81468,-2.0652 -4.63099,-1.0752 -19.72347,-8.1336 -21.99164,-10.285 -1.59709,-1.5149 1.41728,-2.739 4.53961,-1.8436 1.52907,0.4386 4.43884,1.9245 6.46615,3.3021 2.03221,1.3809 9.75201,4.1912 17.20595,6.2636 14.36745,3.9946 16.77993,3.9179 16.77993,-0.5336 0,-1.9838 -1.57995,-2.7684 -14,-6.9526 -15.42122,-5.1953 -23.45025,-8.9526 -27.24903,-12.7513 -1.83047,-1.8305 -2.20007,-2.7928 -1.3855,-3.6074 0.81458,-0.8146 3.04813,-0.072 8.37273,2.7843 15.95297,8.557 20.67744,10.5886 30.61831,13.1664 9.55991,2.479 10.42905,2.5559 11.29969,1.0002 0.51875,-0.927 1.59582,-1.6854 2.39349,-1.6854 0.79767,0 1.45031,-0.4174 1.45031,-0.9274 0,-1.8242 -5.37991,-5.1096 -11.42426,-6.9765 -3.3816,-1.0445 -9.14399,-3.5457 -12.8053,-5.5582 -3.66132,-2.0125 -9.04498,-4.8693 -11.96369,-6.3485 -3.84336,-1.9478 -5.39957,-3.3458 -5.64336,-5.0696 -0.30468,-2.1544 -0.0676,-2.3143 2.5,-1.6863 1.56014,0.3817 7.35223,3.3561 12.87132,6.61 10.78484,6.3583 19.82494,9.9565 25.01485,9.9565 3.77575,0 5.27073,-2.4361 3.02072,-4.9224 -2.79461,-3.088 -16.08498,-13.1454 -26.07028,-19.7286 -12.6068,-8.3115 -18.4475,-13.0359 -19.45038,-15.733 -2.03106,-5.4622 2.59855,-6.2549 6.51818,-1.116 1.46827,1.925 3.04224,3.5 3.49771,3.5 0.92462,0 16.00841,-13.2594 15.57586,-13.692 -0.151,-0.151 -6.99458,0.1024 -15.20796,0.5631 l -14.93341,0.8376 -13.97325,6.2885 c -17.26805,7.7713 -19.30944,7.9017 -35.52675,2.2702 -12.16345,-4.2238 -29.83128,-11.488 -39,-16.035 -5.19469,-2.5762 -13.57831,-10.2003 -26.65873,-24.2438 -2.98827,-3.2083 -8.83331,-7.6972 -13.98735,-10.742 l -8.853917,-5.2306 -0.50553,2.742 c -0.46555,2.5252 -0.91933,2.7658 -5.7395,3.0439 -3.43196,0.1979 -6.5287,-0.2989 -8.99448,-1.4432 -4.51126,-2.0934 -19.26049,-16.4422 -19.26049,-18.7375 0,-2.8809 2.38395,-1.7108 7.79869,3.8277 5.38828,5.5114 11.21023,9.0029 16.9147,10.1438 l 3.1654,0.633 -0.5093,-5.8628 c -1.24669,-14.3516 -3.77042,-21.4502 -15.76208,-44.3351 -8.08375,-15.42703 -8.10831,-15.45985 -8.41491,-11.25 -0.19676,2.70176 -0.78842,4.22217 -1.64301,4.22217 -2.20316,0 -2.54878,-2.46998 -2.56511,-18.33179 -0.009,-8.99108 -0.55201,-17.44683 -1.33275,-20.76347 -1.5299,-6.49917 -7.89113,-16.47042 -17.88696,-28.03789 -6.95001,-8.04277 -7.67256,-9.37278 -5.51467,-10.15096 2.33101,-0.84061 6.93307,2.7594 12.76425,9.98497 6.33471,7.8495 16.47396,24.41181 17.53662,28.64578 0.60197,2.39846 1.11568,2.65336 5.34744,2.65336 5.87877,0 15.4998,-2.46489 19.66228,-5.03745 4.0708,-2.51589 4.43941,-2.4734 4.43941,0.51177 0,1.76805 -0.90612,2.94289 -3.1745,4.11592 -5.08143,2.62771 -19.58041,7.40976 -22.46608,7.40976 -2.63722,0 -2.64263,0.0163 -2.01239,6.0461 0.34757,3.32535 1.10251,6.92535 1.67764,8 1.416,2.64581 6.77531,2.56394 14.54474,-0.22218 5.83128,-2.09111 9.43059,-2.03588 9.43059,0.1447 0,0.56726 -1.33434,1.03138 -2.9652,1.03138 -1.89836,0 -4.25245,1.13021 -6.54296,3.14131 l -3.57776,3.14131 3.29296,2.81805 c 1.87811,1.60725 4.51033,2.83551 6.12629,2.85869 4.7302,0.0679 2.49731,2.50867 -2.60072,2.84297 -4.13253,0.2709 -5.04911,-0.092 -8.83225,-3.50002 -2.32167,-2.09127 -4.0166,-3.35231 -3.76652,-2.80231 0.25008,0.55 3.23031,6.62503 6.62273,13.50003 6.81583,13.8128 12.10144,28.7615 12.94525,36.6117 0.52787,4.911 0.73114,5.1998 5.17382,7.351 5.538667,2.6819 19.410347,12.1583 23.679897,16.1768 l 3.05554,2.8759 2.7615,-2.8824 2.76149,-2.8824 -2.70189,-2.1253 c -1.48604,-1.1689 -3.69434,-2.1253 -4.90732,-2.1253 -2.71596,0 -13.27143,-5.1836 -16.29885,-8.0041 -2.5887,-2.4117 -3.03034,-6.9959 -0.67399,-6.9959 0.85361,0 2.01443,1.3264 2.57959,2.9477 0.77971,2.2366 2.1541,3.3594 5.69798,4.6547 2.56873,0.9389 8.02406,2.9747 12.12297,4.524 6.84021,2.5855 7.59644,2.6867 9.20379,1.2321 2.19456,-1.9861 7.85544,-15.4249 7.80923,-18.539 -0.0189,-1.2757 -1.41629,-5.6945 -3.10525,-9.8195 -1.68896,-4.125 -4.09197,-10.182 -5.34002,-13.4599 -2.2478,-5.9038 -2.2757,-5.9303 -2.95903,-2.8191 -0.83331,3.794 -3.17199,6.0683 -4.68468,4.5556 -0.71819,-0.7182 -0.39658,-2.2972 1.04238,-5.1178 3.02655,-5.9325 2.69907,-11.5483 -1.05524,-18.09556 -2.94134,-5.12954 -3.19753,-5.3273 -4.53404,-3.5 -2.42567,3.3164 -2.71425,6.67575 -0.99041,11.52936 2.00945,5.6577 2.02188,5.9074 0.29404,5.9074 -1.75982,0 -5.63333,-9.2902 -5.63333,-13.51094 0,-1.78431 0.6768,-3.80589 1.504,-4.49241 3.13272,-2.59993 3.34368,-7.07759 0.68299,-14.49668 -2.04948,-5.7148 -8.37772,-16.5 -9.68141,-16.5 -0.17824,0 0.53508,1.77826 1.58517,3.95169 1.05009,2.17344 1.90925,6.01344 1.90925,8.53334 0,3.90282 -0.51856,5.10019 -3.5,8.08164 -1.93032,1.93032 -3.5,4.51122 -3.5,5.75477 0,2.31686 2.32701,7.10668 7.37946,15.18959 1.5837,2.5336 3.10154,6.5768 3.37297,8.9849 0.69044,6.1256 -0.56659,13.4955 -2.42336,14.208 -2.35824,0.905 -3.4703,-1.8394 -1.78661,-4.4091 0.80164,-1.2234 1.45754,-3.1236 1.45754,-4.2226 0,-3.1767 -3.67421,-11.6468 -7.40475,-17.07007 -3.84444,-5.58885 -6.905617,-13.79942 -6.417857,-17.21378 0.2071,-1.44972 1.844337,-3.09615 4.572607,-4.59828 4.78934,-2.63689 5.19104,-4.27147 2.75,-11.1901 -2.02516,-5.73991 -1.97561,-8.39649 0.14144,-7.5841 1.37248,0.52667 1.43434,0.38034 0.37756,-0.89301 -0.69514,-0.83759 -2.33379,-1.52289 -3.64144,-1.52289 -1.30766,0 -2.39215,-0.3375 -2.40997,-0.75 -0.449077,-10.39112 -0.959447,-13.40122 -2.994797,-17.66309 -3.09376,-6.47806 -12.58194,-16.51206 -18.82897,-19.91212 -6.33012,-3.44528 -17.24555,-6.23378 -28.11652,-7.18276 -5.53248,-0.48295 -11.62801,-1.8818 -17.56526,-4.03099 -13.02917,-4.71637 -19.23427,-5.68275 -27.6086099,-4.29976 -10.59244,1.74931 -10.72699,1.62086 -16.2081801,-15.47232 -2.55489,-7.96746 -4.64525,-15.12562 -4.64525,-15.90702 0,-0.7814 1.83709,-3.8645 4.08241,-6.85133 5.9792401,-7.95385 7.9175901,-12.2436 7.9175901,-17.52235 0,-4.17361 -0.4529,-5.11674 -4.25,-8.85029 -2.3375001,-2.29838 -12.1250001,-8.84558 -21.7500001,-14.54934 -31.40392,-18.60993 -41.094799,-21.99592 -57.310439,-20.02429 -9.77655,1.18871 -17.569274,3.57974 -24.021994,7.37062 -5.52524,3.24601 -16.81347,15.0499 -19.58146,20.47596 -5.6125,11.00217 -8.4635,31.91919 -5.66342,41.55111 3.24342,11.15699 14.75525,25.72404 23.0614,29.18186 2.19124,0.91221 9.77099,2.26551 16.843884,3.00734 10.2586,1.07595 13.70049,1.84447 17.01592,3.79938 8.1275,4.79229 12.74224,8.74077 17.0419,14.58145 5.067759,6.88406 6.947209,13.02575 9.414769,30.76561 l 1.69944,12.21766 11.90425,10.54475 c 6.54734,5.79961 12.08521,10.36379 12.30639,10.14262 0.22117,-0.22118 -0.36186,-2.73788 -1.29561,-5.59268 -2.76988,-8.46842 -0.38019,-29.06194 3.54726,-30.56904 2.91078,-1.11697 3.70459,1.97967 2.73183,10.65692 -1.71321,15.28241 2.77162,31.51751 11.37211,41.16703 5.7752901,6.4798 10.49936008,8.4818 22.18377,9.4015 7.69583,0.6057 9.14666,1.5169 6.55,4.1136 -1.87845,1.8784 -13.7430399,1.0994 -19.9829299,-1.3121 -1.53907,-0.5948 -1.51933,-0.1092 0.23089,5.6808 3.49623,11.5662 7.86858,18.6823 18.0104199,29.3126 14.27092,14.9582 18.32694,20.4604 22.49477,30.5157 3.22835,7.7886 4.65404,9.9029 10.13454,15.0297 3.50772,3.2813 8.27547,6.9257 10.595,8.0988 2.31952,1.1731 6.91731,4.2387 10.21731,6.8126 22.85463,17.8258 43.454397,25.5656 79.944137,30.0368 5.58197,0.684 13.28408,2.45 17.558,4.0259 4.18763,1.544 10.20047,3.1305 13.36188,3.5255 6.39294,0.7987 10.60125,3.4859 25.23105,16.1114 12.70504,10.9644 29.8104,17.3859 45.32523,17.0155 3.96712,-0.095 6.571,-0.6095 6.81468,-1.3473 z m -152.96996,-87.5316 c -2.63796,-2.0664 -3.04588,-2.0965 -11.499997,-0.8474 -16.54215,2.444 -21.21714,2.4585 -27.53062,0.085 -6.75372,-2.5389 -11.7344,-6.4018 -11.7344,-9.1009 0,-2.4702 0.4775,-2.4114 4.33851,0.5335 4.86236,3.7087 11.00133,4.5922 29.95756,4.3114 15.270607,-0.2263 17.602847,-0.045 20.053307,1.5571 2.89793,1.8949 3.26606,4.9958 0.63914,5.3837 -0.81869,0.1209 -2.71926,-0.7442 -4.2235,-1.9225 z m -62.109937,-24.9075 c -3.80096,-2.2094 -5.62392,-8.6474 -5.05912,-17.8668 0.59629,-9.7334 -0.61311,-13.32 -4.65181,-13.7955 -2.07885,-0.2447 -2.73109,0.3174 -3.80073,3.2754 -1.86758,5.1647 -5.1008,7.0193 -9.63081,5.5242 -5.21903,-1.7224 -9.48443,-5.7481 -12.1457399,-11.4633 -2.35069,-5.048 -3.08156,-9.5408 -1.55208,-9.5408 0.44813,0 1.52484,1.4625 2.39269,3.25 0.86785,1.7875 2.9790199,5.1625 4.6914899,7.5 2.64874,3.6155 3.64293,4.25 6.65932,4.25 3.04616,0 3.69414,-0.4257 4.59891,-3.0211 0.57924,-1.6616 1.87625,-3.4616 2.88224,-4 2.3893,-1.2787 8.57809,-1.254 11.00338,0.044 4.28526,2.2934 6.27549,10.4098 4.7708,19.4559 -1.44695,8.699 -1.30984,10.364 1.06138,12.8881 3.43598,3.6574 2.69725,5.7768 -1.21992,3.4998 z m 91.067467,-19.4776 c -0.3974,-0.3974 -0.72255,-2.2419 -0.72255,-4.0988 0,-2.3893 -1.16929,-4.925 -4,-8.6742 -4.53495,-6.0065 -5.32587,-10.8363 -2.06069,-12.5837 2.37272,-1.2699 3.34957,-0.032 2.53512,3.2133 -0.42197,1.6813 0.26763,3.4129 2.45556,6.1661 2.68356,3.3768 5.04811,9.0481 5.06443,12.1469 0.009,1.7036 -2.48224,4.62 -3.27187,3.8304 z M -18.497957,939.11139 c -0.94853,-2.47182 3.41075,-6.19035 8.7619701,-7.47409 2.69276,-0.64598 4.89593,-1.7172 4.89593,-2.38049 0,-3.71738 9.65231,-12.59454 13.69428,-12.59454 3.5220399,0 3.0285099,3.55238 -0.67279,4.84266 -2.58253,0.90028 -7.00675,6.20054 -7.01775,8.40734 -0.002,0.4125 1.0947,0.75 2.43724,0.75 2.33926,0 4.30511,1.58724 3.26012,2.63224 -0.27455,0.27454 -4.38896,1.07428 -9.14314,1.7772 -5.73039,0.84725 -9.6270301,2.00484 -11.5604701,3.4343 -3.47712,2.57074 -3.88105,2.62327 -4.65539,0.60538 z m 0.1579,-29.04155 c -1.63981,-1.25013 -4.97153,-1.47866 -18.5,-1.26899 -17.13157,0.26552 -26.098119,-1.14203 -28.917729,-4.53946 -1.84248,-2.22004 0.29583,-2.75691 4.306359,-1.08121 2.97097,1.24135 6.79537,1.39168 21.85623,0.85913 15.5538,-0.54999 18.82075,-0.40676 22.07742,0.9679 3.00467,1.26829 3.75334,2.0824 3.5,3.80591 -0.40979,2.78784 -1.78819,3.18861 -4.32228,1.25672 z m -44.167789,-19.89577 c -6.80538,-3.43543 -8.18564,-5.08694 -6.04255,-7.23003 1.49048,-1.49048 1.94371,-1.39205 5.75645,1.25018 7.181519,4.9768 8.781789,4.48694 30.453889,-9.3222 8.52576,-5.43248 14.11196,-7.57349 13.30899,-5.10088 -0.24847,0.76512 -4.91964,4.66016 -10.38038,8.65565 -19.68337,14.40184 -24.47136,16.10129 -33.096399,11.74728 z M 340.40036,1090.4585 c 64.07302,-57.1761 95.67874,-85.3706 176.25958,-157.23603 31.35,-27.95925 70.63761,-63.0064 87.30579,-77.88255 l 30.30579,-27.04755 -6.47782,-6.47782 -6.47782,-6.47782 -5.32797,4.82377 c -2.93038,2.65308 -10.39047,9.32148 -16.57797,14.81868 l -11.25,9.9949 0,5.88393 c 0,13.41034 -10.60195,23.07364 -25.70879,23.43267 l -7.21977,0.17159 -22.21338,19.85 c -12.21736,10.9175 -39.12093,34.90715 -59.78572,53.31034 -20.66479,18.40318 -49.94734,44.50042 -65.07234,57.99389 -88.87025,79.2837 -104.3498,93.0769 -121.25521,108.0458 -16.50489,14.6142 -18.44094,16.6455 -16.93972,17.7736 7.01491,5.2713 12.76272,9.2264 13.40844,9.2264 0.42203,0 26.08414,-22.5917 57.02691,-50.2038 z m 9.84662,-40.2962 c 47.46389,-42.35 105.67386,-94.28157 129.35547,-115.40346 23.68162,-21.12188 49.11457,-43.83806 56.51766,-50.48039 l 13.46016,-12.07698 -8.12171,-1.93982 -8.12171,-1.93981 -17.83845,15.95063 c -31.29856,27.98628 -136.77396,122.07703 -213.33846,190.31143 -39.31448,35.0371 -47.26491,42.1412 -49.338,44.0858 -1.7658,1.6564 -1.60868,1.8658 4,5.3299 3.2109,1.9832 6.12804,3.5061 6.48253,3.3843 0.35449,-0.1219 39.47862,-34.8716 86.94251,-77.2216 z m -141.88114,58.5994 c 1.26175,-0.4866 5.8941,-4.0183 10.2941,-7.8483 6.10257,-5.312 9.16242,-8.9545 12.90102,-15.3574 2.69557,-4.6165 9.8778,-15.5937 15.96053,-24.3937 6.08273,-8.8 12.73614,-19.0478 14.78536,-22.7728 l 3.72584,-6.7727 -4.11225,-7.2273 c -2.26174,-3.975 -7.22522,-13.7326 -11.02996,-21.6837 -6.17397,-12.90225 -7.68711,-15.2257 -14.07413,-21.61092 -7.82256,-7.82038 -21.87656,-17.51024 -30.60455,-21.10104 -3.05352,-1.25625 -6.04019,-2.29478 -6.63705,-2.30783 -0.59685,-0.0131 -4.13972,5.48876 -7.87304,12.22626 -11.77639,21.25279 -18.51717,30.11933 -21.49779,28.27718 -0.57419,-0.35487 -1.04398,-1.28241 -1.04398,-2.0612 0,-0.99048 -0.82637,-1.27661 -2.75,-0.95217 -1.5125,0.2551 -5.39431,0.91407 -8.62625,1.46439 -3.53319,0.60161 -7.68856,2.201 -10.42144,4.01123 -5.04089,3.3389 -5.10545,3.3576 -7.14545,2.0669 -2.09101,-1.323 -0.10144,-5.1578 4.49479,-8.66352 2.93167,-2.2361 4.99743,-2.89666 10.06839,-3.21956 3.50898,-0.22343 6.37996,-0.79467 6.37996,-1.26942 0,-0.47475 -1.8,-1.78147 -4,-2.90383 -2.2,-1.12236 -4,-2.49563 -4,-3.05171 0,-3.29028 8.89237,-1.59262 13.9502,2.66326 1.67218,1.40705 3.47486,2.40756 4.00596,2.22336 0.53109,-0.1842 4.53436,-5.90852 8.89615,-12.72071 l 7.93053,-12.3858 -6.50451,-6.1142 c -3.57748,-3.36281 -7.93776,-6.86583 -9.6895,-7.7845 -9.46568,-4.96407 -25.76985,-6.21557 -29.48264,-2.26308 -0.99888,1.06336 -3.25755,5.58527 -5.01927,10.04869 -1.76172,4.46341 -4.98854,11.17059 -7.17071,14.90483 l -3.96757,6.78954 5.43845,12.09516 c 3.92772,8.7353 5.58502,13.76189 5.96612,18.09519 0.82515,9.3825 5.69039,19.8341 12.56578,26.9941 6.46607,6.7338 7.75033,10.4784 6.57536,19.1724 -2.15147,15.9195 -11.64834,31.1303 -17.931,28.7194 -2.55049,-0.9787 -1.82994,-3.2591 3.08035,-9.7487 5.94988,-7.8635 8.2158,-12.9996 8.98597,-20.3682 0.45666,-4.3691 0.21451,-6.6829 -0.92547,-8.8432 l -1.54395,-2.9258 -0.96535,2.5 c -6.04022,15.6425 -9.44865,22.0613 -14.94574,28.1459 -3.47744,3.8492 -3.49742,3.9223 -1.63482,5.9856 1.03711,1.1488 5.35372,4.7037 9.59246,7.8997 l 7.70679,5.8109 7.29321,-3.084 c 9.0452,-3.825 19.20252,-4.6786 28.7932,-2.42 l 6.5,1.5307 3.3498,-3.1844 c 6.89451,-6.5542 12.4059,-15.0361 19.69335,-30.3078 7.99037,-16.7447 15.50669,-28.8398 22.82348,-36.727 4.21173,-4.5401 6.63337,-5.3335 6.63337,-2.1734 0,0.7471 -2.5231,4.433 -5.60688,8.191 -5.39699,6.577 -13.81009,22.4077 -16.38581,30.8328 -2.6868,8.7884 -13.04867,24.3834 -22.44323,33.778 -4.77653,4.7765 -8.06797,6.3465 -11.45086,5.4618 -1.27036,-0.3322 -3.3409,1.0286 -6.57194,4.3191 l -4.71724,4.804 6.83798,2.0357 c 16.74614,4.9853 19.8934,5.3797 25.54388,3.2008 z m -38.16411,-80.0213 c -1.68108,-3.1412 -4.01112,-14.2348 -4.02701,-19.1731 -0.0158,-4.9032 2.05118,-7.905 5.44309,-7.905 1.64208,0 1.73897,0.7039 1.10202,8.0059 -0.52916,6.0661 -0.30897,9.3454 0.90875,13.5342 0.88391,3.0406 1.33851,5.9629 1.01022,6.4941 -0.98775,1.5982 -3.34148,1.091 -4.43707,-0.9561 z m 8.75499,64.0315 c 0.57686,-1.7306 -11.59962,-1.3629 -17.86528,0.5395 l -5.4315,1.6491 5.93743,2.7142 5.93743,2.7143 5.52601,-3.2537 c 3.03931,-1.7895 5.69246,-3.753 5.89591,-4.3634 z m 139.43842,-39.8044 C 457.96354,928.52522 510.47758,881.68681 518.40134,874.57756 l 8.7414,-7.84283 -3.7414,-0.98961 c -29.79986,-7.88208 -105.54332,-26.18097 -106.63513,-25.762 -2.27909,0.87457 -6.50197,8.84628 -8.49653,16.03931 -3.96604,14.30275 -12.75074,24.6853 -31.10974,36.76828 -14.58557,9.5995 -24.51367,15.11627 -40.09845,22.2816 -12.99651,5.97534 -18.4246,10.16871 -25.3581,19.58996 -6.39703,8.69228 -12.43007,21.00043 -15.09105,30.78758 -6.29826,23.16522 -12.6749,38.73785 -22.3045,54.47075 -2.79728,4.5703 -3.62852,6.8105 -3.06366,8.2568 1.90821,4.886 0.94482,7.7072 -5.93019,17.3665 -16.25858,22.8429 -21.75333,30.9252 -27.76778,40.8438 -3.51245,5.7924 -6.38627,10.6577 -6.38627,10.8117 0,0.154 8.57372,0.121 19.05271,-0.073 l 19.05271,-0.3534 49.12978,-43.8051 z m -45.93254,-46.0552 c 8.22193,-13.12459 9.94275,-17.09214 16.14615,-37.22677 9.96988,-32.35967 16.92007,-47.78452 26.11869,-57.9663 6.40933,-7.09436 7.38587,-4.26585 1.98634,5.75334 l -3.40074,6.3103 3.65699,-2.8103 c 7.83772,-6.02307 19.73684,-13.36197 28.02007,-17.28165 23.05942,-10.91186 33.17267,-17.21947 42.78849,-26.68706 6.89546,-6.78916 9.76169,-11.77586 13.79236,-23.99613 1.47931,-4.485 4.11237,-10.335 5.85125,-13 4.26557,-6.5374 21.93386,-24.15631 28.73774,-28.65742 7.0924,-4.69199 10.23144,-5.25805 17.47722,-3.15164 11.43431,3.32405 25.5247,-0.69951 29.45944,-8.41224 2.64142,-5.17762 2.59209,-7.91257 -0.41711,-23.12416 -3.02733,-15.30327 -3.10599,-21.36025 -0.46516,-35.81814 1.96246,-10.74398 1.98232,-11.63183 0.44393,-19.84171 -1.04273,-5.56468 -1.3722,-10.50145 -0.93459,-14.00394 0.6079,-4.86545 0.34818,-6.03434 -2.58256,-11.62284 -3.86536,-7.37069 -6.69244,-10.71337 -9.06087,-10.71337 -0.95209,0 -3.61623,-1.575 -5.9203,-3.5 -5.22343,-4.36405 -8.73396,-4.65402 -9.18358,-0.75855 -0.19084,1.65345 -1.01094,2.87316 -2.06642,3.07332 -1.40209,0.2659 -1.75,-0.37852 -1.75,-3.24145 0,-3.31019 -0.22274,-3.57332 -3.02475,-3.57332 -3.41775,0 -4.97525,2.65569 -4.97525,8.48331 0,4.36258 -0.87095,6.51669 -2.63484,6.51669 -1.14653,0 -1.2956,-1.22261 -0.7721,-6.33231 0.62173,-6.06844 0.53394,-6.42264 -2.107,-8.5 -3.53686,-2.78209 -7.08241,-2.79043 -8.56502,-0.0201 -1.15639,2.16074 -0.7383,8.4496 2.23112,33.5602 1.78406,15.08669 -0.28041,26.27768 -8.80031,47.70455 -7.63544,19.20252 -8.1949,20.16972 -16.00151,27.66373 -8.28817,7.95627 -18.97159,15.20759 -43.11288,29.26262 -33.44272,19.47033 -37.66595,22.38263 -52.90183,36.48056 -15.00088,13.8805 -18.55806,16.12596 -28.83563,18.20241 -11.4929,2.322 -21.05696,9.4501 -25.46407,18.97839 -4.17092,9.01766 -6.75663,12.54432 -18.53593,25.28125 -6.6,7.13656 -16.37252,18.73677 -21.7167,25.77825 l -9.7167,12.80269 7.7167,4.16043 c 12.18375,6.56883 20.01646,12.17934 29.85433,21.3844 7.70127,7.20591 9.83865,9.92868 13.59733,17.32143 2.45283,4.82433 5.48067,11.35903 6.72851,14.52153 1.24785,3.1625 2.40132,5.75 2.56327,5.75 0.16195,0 2.76111,-3.9375 5.77592,-8.75 z m -24.94836,-34.76912 c -0.95235,-2.48178 0.36785,-5.74671 4.64898,-11.49723 6.03789,-8.11023 16.14029,-18.2269 24.43565,-24.47017 4.02896,-3.03229 11.84055,-10.07598 17.35908,-15.65266 6.9947,-7.06838 10.51351,-9.95529 11.61785,-9.53151 0.87127,0.33434 1.58414,1.23366 1.58414,1.99849 0,2.54771 -8.0757,10.61093 -20.8559,20.82366 -18.53288,14.80974 -26.27626,22.56299 -31.23017,31.26998 -4.35707,7.65799 -6.54567,9.70178 -7.55963,7.05944 z m 36.32854,-68.58036 c -5.393,-3.8511 -6.15464,-4.10773 -10.44574,-3.51957 -2.54572,0.34893 -4.878,1.0203 -5.18284,1.49194 -0.91921,1.42215 -4.46152,2.13965 -5.94998,1.20518 -2.31115,-1.45097 -0.42406,-4.04911 4.53391,-6.24225 5.91598,-2.61692 11.9813,-2.06454 17.22394,1.56861 2.09922,1.45476 5.80151,2.98384 8.22732,3.39795 3.82172,0.65242 4.41055,1.08301 4.41055,3.22527 0,2.10603 -0.51855,2.5134 -3.5,2.74959 -2.76065,0.2187 -4.72883,-0.60023 -9.31716,-3.87672 z m 11.56716,-9.61883 c -1.74959,-0.62759 -1.51374,-4.07822 0.60023,-8.78172 1.43401,-3.19064 1.61161,-4.87423 0.87773,-8.32062 -1.09003,-5.11884 -0.46214,-6.15378 2.24635,-3.70263 3.21861,2.9128 3.55499,7.75997 1.01066,14.56343 -2.39965,6.41661 -2.79481,6.9375 -4.73497,6.24154 z m 46.42767,-3.93739 c -2.75672,-2.75671 1.76445,-6.47778 19.07192,-15.69676 6.66986,-3.55277 12.74298,-7.76804 17.38877,-12.06933 6.69532,-6.19884 11.08415,-8.68906 12.6153,-7.15791 1.58667,1.58667 -3.39367,6.73724 -15.06476,15.57967 -16.25829,12.31785 -32.05381,21.30176 -34.01123,19.34433 z m 102.32233,-97.30915 c 0,-3.95736 2.29776,-5.03518 10.73426,-5.03518 4.00669,0 7.36545,-0.49971 8.06574,-1.2 0.66,-0.66 1.2,-3.585 1.2,-6.5 0,-5.40943 1.19799,-6.70201 3.8,-4.1 1.65686,1.65686 1.50629,9.30702 -0.25002,12.70334 -1.36424,2.63816 -1.93046,2.83695 -9.57224,3.36073 -5.37319,0.36829 -8.71673,1.09473 -9.87872,2.14632 -2.65547,2.40316 -4.09902,1.91886 -4.09902,-1.37521 z m -6.40653,-22.88395 c -0.28852,-0.46682 1.62331,-4.17932 4.24849,-8.25 2.62519,-4.07068 5.61373,-9.42623 6.6412,-11.90123 2.42067,-5.83098 5.10585,-8.81099 6.5963,-7.32054 1.36208,1.36208 -4.42102,15.23353 -9.61826,23.07054 -3.26612,4.92503 -6.44498,6.70329 -7.86773,4.40123 z m 30.80057,-70.56676 c -0.29875,-0.77854 -0.39713,-2.69104 -0.21861,-4.25 0.23518,-2.05387 0.94421,-2.92247 2.57457,-3.15402 1.84498,-0.26203 2.25,0.15483 2.25,2.31574 0,4.88809 -3.28865,8.52112 -4.60596,5.08828 z m -10.8258,-6.36946 c -0.84939,-2.6762 1.40075,-7.71501 3.44523,-7.71501 2.45174,0 2.26279,4.06731 -0.32893,7.08036 -2.39451,2.78378 -2.43178,2.79137 -3.1163,0.63465 z M -59.355637,951.66227 c -2.518429,-16.55718 -9.811969,-30.0153 -18.779819,-34.65276 -1.66943,-0.86329 -11.08538,-3.24178 -20.92433,-5.28553 -17.587764,-3.65333 -17.850204,-3.67736 -15.584644,-1.42682 3.10326,3.08268 56.267363,50.18314 56.443023,50.0054 0.0763,-0.0772 -0.44314,-3.96529 -1.15423,-8.64029 z m 253.283507,2 c 0.68696,-1.1 1.84741,-2 2.57877,-2 0.73136,0 4.2071,-3.7125 7.72386,-8.25 3.51676,-4.5375 11.43028,-14.17258 17.5856,-21.41128 l 11.19149,-13.16129 -5.67382,2.49845 c -7.30477,3.21662 -20.69697,12.14159 -25.12,16.74073 -4.01932,4.17937 -6.05383,4.56596 -6.05383,1.15034 0,-3.9979 12.02577,-12.66462 33.21678,-23.93864 13.15782,-7.00021 16.07419,-9.39986 20.09409,-16.53389 1.7338,-3.07693 5.99476,-8.39851 9.46879,-11.82573 5.10187,-5.03312 8.66268,-7.36308 18.51838,-12.11718 12.76542,-6.15767 22.26518,-12.49338 36.00424,-24.01244 4.50875,-3.78021 10.32093,-8.18362 12.91596,-9.78536 2.59504,-1.60173 6.00272,-4.63494 7.57263,-6.74045 4.73495,-6.35037 19.31786,-18.64114 25.70913,-21.66817 3.3,-1.56295 10.05,-3.81269 15,-4.99941 4.95,-1.18673 10.125,-2.45162 11.5,-2.81087 1.58757,-0.4148 4.08181,-3.01003 6.83409,-7.11083 4.92727,-7.34144 4.93237,-7.49319 0.70711,-21.02398 -3.94935,-12.64719 -4.4271,-24.18189 -1.51622,-36.60662 3.0505,-13.02067 2.14785,-19.13244 -4.37196,-29.60207 -3.50317,-5.62546 -4.79487,-8.89061 -5.65367,-14.29131 -0.61222,-3.85 -1.89773,-8.35 -2.85669,-10 -3.22167,-5.54324 -11.1727,-7.13145 -12.63509,-2.52385 -0.34415,1.08433 0.13044,4.6665 1.05465,7.96037 1.6947,6.03985 1.40955,9.55407 -0.71771,8.84498 -1.31043,-0.43681 -4.67815,-10.05992 -4.77836,-13.65394 -0.0556,-1.99314 -0.30597,-2.17341 -1.56615,-1.12756 -0.95816,0.7952 -1.5,3.00679 -1.5,6.12244 0,3.66894 -0.37169,4.87756 -1.5,4.87756 -0.83333,0 -1.5,-0.88889 -1.5,-2 0,-1.1 -0.45,-2 -1,-2 -1.62963,0 -1.16015,3.45733 1.59135,11.7191 4.48707,13.47307 3.22515,23.63129 -4.99017,40.17005 -1.8061,3.63597 -4.35154,10.81966 -5.65653,15.96375 -4.38637,17.29053 -4.83,17.83377 -26.47947,32.4246 -10.43085,7.02995 -21.44018,14.05425 -24.46518,15.60956 -22.45517,11.54534 -32.57965,17.71625 -43.49108,26.50797 -7.75982,6.25235 -19.33905,12.62526 -27.06541,14.89609 -5.90445,1.73537 -14.97114,7.30317 -19.87008,12.20212 -2.60336,2.60335 -3.59857,4.60534 -4.08818,8.22389 -1.26296,9.33394 -2.34578,11.03098 -16.45063,25.78194 -12.96873,13.56279 -19.83511,22.22985 -21.90518,27.64971 -0.49392,1.29317 -2.9751,6.62146 -5.51374,11.84065 -5.48108,11.26857 -5.71952,13.01057 -1.78086,13.01057 6.64736,0 26.92088,8.57702 33.41577,14.13705 3.92822,3.36279 3.95366,3.36677 5.51732,0.86295 z m 42.39066,-71.3105 c -1.57372,-3.47078 -4.11389,-7.29578 -5.64481,-8.5 -5.74666,-4.52033 -17.43196,-1.37708 -24.80409,6.6721 -7.02709,7.67245 -9.58585,3.68747 -2.67413,-4.16466 2.22997,-2.53338 6.49583,-5.78833 9.53435,-7.27494 4.79958,-2.34822 6.33621,-2.62309 12.08464,-2.16166 4.26281,0.34218 7.51348,1.21092 9.21566,2.46288 2.65559,1.95319 11.3606,17.71264 10.34492,18.72832 -0.30165,0.30165 -1.59398,0.54846 -2.87184,0.54846 -1.88344,0 -2.86518,-1.19492 -5.1847,-6.3105 z m 0.25607,-17.17351 c -0.43436,-1.73062 0.20444,-3.8967 2.10621,-7.14182 2.3181,-3.95554 2.64952,-5.43429 2.19814,-9.8078 -0.55462,-5.3737 0.45223,-8.56637 2.70151,-8.56637 0.87365,0 1.55267,2.04635 2.00466,6.04142 0.5919,5.23175 0.34117,6.78919 -1.87084,11.62085 -1.40489,3.06868 -2.55434,6.65004 -2.55434,7.95857 0,3.36015 -3.73713,3.2747 -4.58534,-0.10485 z m 25.58534,-14.02451 c 0,-2.3541 15.46119,-19.01512 22.8489,-24.62204 9.39224,-7.12826 23.83857,-13.99766 29.87343,-14.20516 7.40565,-0.25464 6.26297,2.22193 -2.22233,4.81655 -13.53692,4.13928 -20.88057,8.90028 -35.09893,22.75513 -7.20441,7.02022 -13.61691,12.76404 -14.25,12.76404 -0.63309,0 -1.15107,-0.67883 -1.15107,-1.50852 z m 99,-56.4189 c 0,-2.82517 4.3631,-5.78662 10.57287,-7.1763 6.93384,-1.55173 7.86912,-2.64237 6.49854,-7.57807 -1.43937,-5.18347 -1.34037,-7.31821 0.33938,-7.31821 2.15418,0 5.92114,8.54133 5.13985,11.65426 -1.08815,4.33554 -5.6886,8.09392 -10.85584,8.8688 -2.5467,0.3819 -5.14996,1.32044 -5.78502,2.08565 -1.78975,2.15651 -5.90978,1.78274 -5.90978,-0.53613 z m -4.4055,-34.91968 c -0.28795,-0.46591 1.725,-4.40341 4.47322,-8.75 2.74823,-4.3466 5.93195,-10.46132 7.07496,-13.58829 2.00853,-5.49483 4.14662,-7.77357 5.39639,-5.75139 1.20027,1.94207 -4.97988,17.54235 -9.77982,24.68678 -2.66944,3.97331 -5.87212,5.49442 -7.16475,3.4029 z M 574.7566,865.101 c 8.12343,-6.57484 7.90746,-5.67562 7.86915,-32.76469 -0.0254,-17.9561 -0.48851,-27.13202 -1.80047,-35.67404 -8.44517,-54.9855 -30.75669,-104.67574 -71.16845,-158.5 -6.19418,-8.25 -12.38399,-16.03836 -13.75513,-17.30746 l -2.49299,-2.30746 -43.37438,1.07132 c -60.41198,1.49214 -108.1647,4.51222 -120.08369,7.59459 -3.45988,0.89476 -9.48856,3.10268 -13.39706,4.90649 -5.88849,2.71759 -7.30235,3.84188 -8.25,6.56031 -1.72795,4.9568 -1.52678,5.88354 3.71045,17.09289 9.33618,19.98243 20.58386,50.94735 26.65791,73.38932 1.48861,5.5 3.03184,10.59657 3.4294,11.32571 0.8384,1.53764 8.05815,-16.00182 10.48422,-25.47005 2.01449,-7.86198 1.95932,-10.23109 -0.44916,-19.28803 -3.063,-11.51822 -2.74764,-14.27569 2.25311,-19.70086 2.32626,-2.5237 6.48876,-5.88442 9.25,-7.46827 11.65721,-6.68661 20.14364,-1.27111 23.98859,15.30799 0.84975,3.66404 3.5307,10.45804 5.95766,15.09778 2.42697,4.63975 4.74735,10.63187 5.15639,13.31582 0.40905,2.68395 0.23446,13.20491 -0.38798,23.37991 -1.0301,16.83902 -0.96415,19.35347 0.73456,28.0059 1.02645,5.22825 2.49768,11.05333 3.26941,12.94462 l 1.40314,3.43871 2.61016,-3.44462 c 4.80254,-6.33786 13.65371,-24.36321 15.6861,-31.94461 3.60993,-13.4661 4.36675,-22.93786 3.11213,-38.94921 -0.6271,-8.00293 -1.59389,-16.91886 -2.14842,-19.81317 -1.15454,-6.02594 -0.0178,-10.88099 3.2372,-13.82677 2.44463,-2.21236 8.45769,-2.20883 12.74356,0.007 2.64356,1.36704 3.2778,1.36858 5.99196,0.0146 2.71614,-1.35499 3.42335,-1.35221 6.72284,0.0264 2.02806,0.84738 4.93193,1.54069 6.45304,1.54069 1.52112,0 4.95366,1.50433 7.62788,3.34297 2.67421,1.83863 6.53021,3.65536 8.56888,4.03718 4.36563,0.81764 7.31584,4.13287 8.89429,9.99477 0.60925,2.26261 1.97275,5.80939 3.02998,7.88174 1.56703,3.07164 1.80207,4.9409 1.2719,10.11564 -0.43318,4.22808 -0.21026,7.64668 0.66758,10.23771 1.96889,5.81136 1.53983,16.7594 -1.01465,25.88999 -2.66837,9.53767 -2.34507,16.6533 1.47307,32.42181 3.63137,14.99715 3.07782,22.8269 -2.04419,28.91406 -5.54775,6.59313 -20.70532,9.7641 -34.35879,7.18788 l -6.64559,-1.25394 -5.54881,3.3651 c -5.44519,3.30225 -19.65465,17.47524 -18.5888,18.54108 0.29834,0.29834 30.60579,8.12422 67.34989,17.39084 60.7363,15.31729 67.50368,16.82922 74.46882,16.63739 6.89357,-0.18985 8.03957,-0.51711 11.43529,-3.26549 z m -24.39648,-18.74817 c -0.52033,-0.65481 -1.20198,-8.16556 -1.51479,-16.69056 -0.701,-19.10463 -2.55524,-31.71457 -7.77317,-52.86231 -9.0557,-36.7018 -25.43515,-74.48519 -50.32865,-116.09585 -5.74437,-9.60199 -10.22408,-17.81449 -9.95492,-18.25 1.58739,-2.56845 4.38727,-0.0634 10.01231,8.95816 31.2958,50.19257 52.34226,101.51319 59.7717,145.75 3.6813,21.91937 4.84678,48.80273 2.16045,49.83357 -0.78478,0.30115 -1.85261,0.0118 -2.37293,-0.64301 z M 316.54434,639.2216 c -0.35748,-0.93157 -0.25271,-2.06911 0.23282,-2.52786 1.95494,-1.84713 35.12591,-4.23555 65.88278,-4.74378 30.94545,-0.51135 50.12654,0.22884 74.24046,2.86492 10.17065,1.11183 12.87561,2.23254 11.34928,4.70218 -0.64436,1.04261 -3.91696,0.94197 -17.19279,-0.52872 -13.16133,-1.458 -24.4875,-1.81739 -57.39695,-1.82126 -37.34476,-0.004 -51.47438,0.61714 -71.73282,3.15532 -3.87556,0.48557 -4.85055,0.28618 -5.38278,-1.1008 z m 389.89365,198.18152 c 20.52059,-6.71769 39.10914,-23.97599 51.78321,-48.07746 22.81172,-43.37958 19.97907,-104.30229 -6.66122,-143.26482 -13.77789,-20.15075 -28.23565,-31.60065 -47.40004,-37.53871 -9.6742,-2.99754 -27.93724,-3.22014 -38,-0.46317 -33.14397,9.08072 -60.24337,43.70476 -68.565,87.60331 -2.48036,13.08453 -2.51625,41.72689 -0.0689,55 6.98435,37.87948 29.02012,70.31083 56.70592,83.45743 10.89164,5.17189 18.19587,6.56027 32.42799,6.16389 9.51581,-0.26503 13.61018,-0.86133 19.77805,-2.88047 z m -54.77024,-15.49085 c -21.63306,-25.87384 -33.01618,-53.74245 -34.20824,-83.75 -1.29459,-32.58879 7.90621,-68.13354 24.04563,-92.89359 6.45344,-9.90046 18.13057,-22.60641 20.77593,-22.60641 3.47999,0 1.93077,3.16536 -5.37113,10.97425 -21.33599,22.81742 -34.75,60.94527 -34.75,98.7731 0,30.89454 10.60317,58.59999 32.74748,85.56719 6.12234,7.45575 7.28893,10.68546 3.85964,10.68546 -0.80061,0 -3.9953,-3.0375 -7.09931,-6.75 z m 25.48459,-86.76105 c -4.57163,-6.64463 -5.99498,-10.74672 -5.97044,-17.20683 0.0253,-6.66433 2.2121,-12.20123 6.95008,-17.5975 l 3.23514,-3.68462 32.42853,0 c 25.12639,0 33.16363,0.30715 35.6931,1.36403 10.3684,4.33219 14.57103,21.50016 8.3023,33.91533 -3.85727,7.63928 -4.29532,7.71731 -43.33307,7.71909 l -34.20196,0.002 -3.10368,-4.51105 z m 56.69492,-2.28196 c -2.51597,-2.78012 -4.95239,-13.66504 -4.14714,-18.52774 0.80717,-4.87423 1.92327,-7.31597 4.77478,-10.44594 l 2.06503,-2.26669 -26.89305,0.26669 -26.89305,0.26669 -3.04694,4.33614 c -2.70886,3.85501 -3.04695,5.13104 -3.04695,11.5 0,6.23802 0.38771,7.77751 3,11.91207 l 3,4.74821 26.40499,0.002 c 25.32561,0.002 26.33865,-0.0715 24.78233,-1.79122 z m 16.16765,0.36801 c 7.19565,-3.72102 8.08574,-19.73828 1.52984,-27.52953 -3.58083,-4.25557 -7.50044,-3.87859 -13.14605,1.26436 -6.62224,6.03264 -4.28349,22.32499 3.79126,26.41086 3.18939,1.61385 4.46842,1.59004 7.82495,-0.14569 z m -144.35497,88.97442 c 6.6,-5.89224 11.89582,-11.10136 11.76849,-11.57582 -0.43878,-1.63501 -6.65503,-9.9736 -7.43511,-9.9736 -0.42988,0 -5.40576,4.13309 -11.0575,9.18465 -11.258,10.06246 -11.38372,10.31511 -10.27676,20.65175 l 0.67944,6.34448 2.16072,-1.95915 c 1.1884,-1.07754 7.56072,-6.78008 14.16072,-12.67231 z m -238.5,-14.81899 4.5,-2.87285 -4,0.6408 c -4.57633,0.73314 -10.64587,4.54911 -13.03482,8.19511 l -1.6297,2.48723 4.83226,-2.78871 c 2.65774,-1.5338 6.85726,-4.08151 9.33226,-5.66158 z m 233.36432,-6.02273 6.86432,-6.3118 -3.00005,-5.94795 c -7.26105,-14.39592 -12.57674,-34.63437 -13.84125,-52.69795 l -0.68254,-9.75 -11.28255,0 -11.28254,0 3.05738,8.25 c 7.80147,21.0514 14.86214,49.94784 16.30995,66.75 0.35545,4.125 0.83491,8.09446 1.06549,8.82103 0.51772,1.63143 3.13205,-0.23112 12.79179,-9.11333 z m -308.12934,-7.88354 c 2.89576,-1.74671 5.41801,-3.2872 5.605,-3.42331 0.18699,-0.13612 -2.57243,-4.30347 -6.13204,-9.2608 -17.79315,-24.77979 -26.21301,-51.10371 -23.62656,-73.86624 3.19437,-28.11256 14.96855,-52.88212 34.96699,-73.5607 5.30809,-5.48861 8.02809,-7.621 9.16473,-7.18483 0.88899,0.34114 5.8302,-0.72956 10.98045,-2.37933 5.15025,-1.64978 12.27612,-3.33961 15.83527,-3.75518 l 6.47118,-0.7556 -4.5,-1.3496 c -17.52045,-5.25458 -39.30151,-0.27976 -54.62373,12.47612 -7.98287,6.64581 -17.29269,19.09954 -22.91013,30.64686 -16.66904,34.26519 -13.76387,83.8015 6.76665,115.37887 4.42884,6.81185 15.25911,20.20958 16.33675,20.20958 0.22023,0 2.76967,-1.42913 5.66544,-3.17584 z m 21.29349,-12.98178 c 13.68403,-8.13549 19.08194,-13.66889 22.50938,-23.07436 l 2.64853,-7.26802 -2.37638,-9 c -7.41395,-28.07865 -17.81261,-57.79534 -27.94517,-79.86015 -3.50066,-7.62308 -6.36483,-15.00532 -6.36483,-16.40499 0,-2.52174 -0.0191,-2.52759 -2.09961,-0.64471 -3.49859,3.16617 -12.65466,17.60864 -16.88112,26.62766 -7.8032,16.65158 -12.04811,39.15034 -10.06998,53.37256 1.66784,11.99136 3.79223,19.07518 9.02173,30.08311 6.0141,12.6595 18.60688,32.32652 20.69864,32.32652 0.27588,0 5.16234,-2.77093 10.85881,-6.15762 z m 276.48254,-65.09238 c 0.006,-2.8875 0.28993,-6.9375 0.63084,-9 l 0.61983,-3.75 -17.13084,0 c -9.42196,0 -17.13084,0.26067 -17.13084,0.57926 0,0.3186 1.68179,4.3686 3.73731,9 l 3.73732,8.42074 12.76268,0 12.76269,0 0.011,-5.25 z m 2.46727,-22.45373 c 0.38795,-2.58705 1.71385,-8.18556 2.94644,-12.44113 l 2.24107,-7.73741 -2.11331,1.69114 c -3.77363,3.01978 -25.55248,22.49273 -25.55248,22.84703 0,0.18926 4.89891,0.3441 10.88646,0.3441 l 10.88645,0 0.70537,-4.70373 z"
       id="path2999"
       inkscape:connector-curvature="0" />
  </g>
</svg>
