<?xml version="1.0" encoding="UTF-8" standalone="no"?>
<!-- Created with Inkscape (http://www.inkscape.org/) -->

<svg
   xmlns:dc="http://purl.org/dc/elements/1.1/"
   xmlns:cc="http://creativecommons.org/ns#"
   xmlns:rdf="http://www.w3.org/1999/02/22-rdf-syntax-ns#"
   xmlns:svg="http://www.w3.org/2000/svg"
   xmlns="http://www.w3.org/2000/svg"
   xmlns:sodipodi="http://sodipodi.sourceforge.net/DTD/sodipodi-0.dtd"
   xmlns:inkscape="http://www.inkscape.org/namespaces/inkscape"
   width="898.83014"
   height="758.2804"
   id="svg2"
   version="1.1"
   inkscape:version="0.48.3.1 r9886"
   sodipodi:docname="Neues Dokument 1">
  <defs
     id="defs4" />
  <sodipodi:namedview
     id="base"
     pagecolor="#ffffff"
     bordercolor="#666666"
     borderopacity="1.0"
     inkscape:pageopacity="0.0"
     inkscape:pageshadow="2"
     inkscape:zoom="0.49497475"
     inkscape:cx="410.36725"
     inkscape:cy="194.43091"
     inkscape:document-units="px"
     inkscape:current-layer="layer1"
     showgrid="false"
     fit-margin-top="0"
     fit-margin-left="0"
     fit-margin-right="0"
     fit-margin-bottom="0"
     inkscape:window-width="1378"
     inkscape:window-height="738"
     inkscape:window-x="66"
     inkscape:window-y="52"
     inkscape:window-maximized="0" />
  <metadata
     id="metadata7">
    <rdf:RDF>
      <cc:Work
         rdf:about="">
        <dc:format>image/svg+xml</dc:format>
        <dc:type
           rdf:resource="http://purl.org/dc/dcmitype/StillImage" />
        <dc:title></dc:title>
      </cc:Work>
    </rdf:RDF>
  </metadata>
  <g
     inkscape:label="Ebene 1"
     inkscape:groupmode="layer"
     id="layer1"
     transform="translate(99.836845,-198.67763)">
    <path
       style="fill:#000000"
       d="m 391.07142,819.14853 c -0.55,-0.2246 -2.71435,-0.6955 -4.80966,-1.0467 -4.19754,-0.7034 -10.89339,-6.0836 -13.25508,-10.6506 -1.89731,-3.6689 -1.82573,-9.3414 0.14272,-11.3099 2.51482,-2.5148 4.45432,-3.2442 12.31699,-4.6318 4.97752,-0.8785 6.7755,-1.5304 5.5,-1.994 -1.04223,-0.3788 -2.11997,-0.5655 -2.39497,-0.4148 -0.275,0.1508 -8.24035,1.8876 -17.70078,3.8598 -18.7334,3.9051 -21.76468,3.8778 -25.87603,-0.2336 -2.46635,-2.4664 -2.58704,-3.0595 -2.2642,-11.1278 0.25287,-6.3197 0.91981,-9.6811 2.58027,-13.0045 l 2.23925,-4.4819 -5.34876,-5.5181 c -8.27448,-8.5365 -16.34219,-18.53418 -18.72432,-23.20354 -1.83069,-3.58844 -2.07851,-5.34309 -1.61682,-11.4477 l 0.54527,-7.20967 -5.26717,-5.82862 c -6.83931,-7.56836 -8.55707,-11.06528 -8.6106,-17.52897 -0.0548,-6.61729 -1.5509,-10.85855 -6.71424,-19.03412 -5.73464,-9.08015 -6.86736,-13.33276 -4.84229,-18.17946 1.57291,-3.76448 1.54678,-3.91732 -1.87214,-10.95192 -5.45676,-11.22755 -14.50793,-53.53539 -15.46092,-72.26892 -0.63919,-12.56491 -1.02463,-14.75934 -3.47051,-19.75852 -4.74574,-9.69995 -9.6056,-14.73693 -23.74065,-24.60587 -21.18945,-14.79425 -32.35568,-23.67343 -39.60981,-31.49696 -5.70868,-6.15678 -8.16016,-10.09785 -15.94859,-25.63946 -5.20075,-10.37797 -11.17211,-24.15593 -13.73081,-31.68168 -2.49027,-7.32448 -6.19771,-16.49515 -8.23876,-20.37927 -4.56569,-8.68853 -11.93057,-16.91933 -17.01196,-19.01213 -2.09849,-0.86427 -6.8568,-2.79817 -10.57402,-4.29755 -7.68945,-3.10161 -18.36909,-10.335 -24.19436,-16.387 -3.0754,-3.1951 -4.69201,-4.1068 -7.28212,-4.1068 -7.13675,0 -14.13197,-4.64897 -21.876643,-14.53904 -9.57414,-12.22633 -13.34236,-24.30461 -11.42933,-36.63442 0.59893,-3.8602 1.7319,-8.21284 2.51771,-9.67254 0.78582,-1.4597 6.10608,-8.10716 11.82282,-14.77214 13.160033,-15.3429 18.369553,-23.73267 24.795453,-39.93229 2.82519,-7.12226 6.67524,-15.26973 8.55567,-18.10548 4.5157,-6.80983 15.97145,-17.54391 25.87133,-24.24154 4.38793,-2.96859 10.00306,-7.33512 12.47806,-9.70339 5.7202,-5.47353 12.63584,-8.51996 20.83503,-9.17812 7.39913,-0.59393 11.43694,0.97602 14.59488,5.67467 l 1.90732,2.83787 3.08138,-1.78139 c 9.99198,-5.7765 15.86388,-4.7697 23.88651,4.09558 6.70988,7.41467 10.33619,14.61604 11.55776,22.95223 0.52387,3.575 1.64191,8.34019 2.48453,10.58932 1.25142,3.34032 1.36445,5.86062 0.61709,13.76003 -0.50322,5.31889 -1.58903,12.2537 -2.41292,15.41068 -2.17772,8.34459 -8.88201,27.80621 -11.91972,34.6013 -6.70481,14.99809 -8.25846,26.0253 -4.66095,33.08162 1.08401,2.12621 2.7207,6.15886 3.63709,8.96144 2.20848,6.75413 5.09227,12.39872 8.28361,16.2139 3.06365,3.66254 44.89266,41.60973 56.56355,51.31434 4.42466,3.67921 16.42429,13.28097 26.66584,21.33726 10.24155,8.05628 22.19977,18.15381 26.57382,22.43895 7.91565,7.75474 16.6577,18.67578 17.77995,22.21168 0.33581,1.05803 4.89601,4.11998 10.60976,7.12392 12.92031,6.79271 16.77524,11.015 19.76746,21.65119 6.73301,23.93326 6.05256,22.48957 14.60499,30.98671 11.46414,11.39001 19.20325,21.35486 34.06549,43.86259 14.18602,21.48366 17.20569,26.84694 19.96217,35.45507 0.96866,3.025 2.10235,5.87396 2.5193,6.33102 0.41696,0.45706 2.49914,-0.0486 4.62708,-1.12372 2.12794,-1.0751 12.34192,-4.73858 22.69774,-8.14107 15.56068,-5.11258 19.88794,-6.96605 24.93111,-10.67862 8.39713,-6.18161 17.79435,-11.30297 24.66186,-13.44038 3.17358,-0.98773 7.97006,-3.19101 10.65883,-4.89619 6.68419,-4.23898 10.2187,-4.99923 22.41948,-4.82225 10.2713,0.149 10.6579,0.0716 17.7505,-3.55109 13.6259,-6.95976 23.8821,-8.22437 37.8104,-4.66212 8.2007,2.0974 19.572,7.34506 25.2186,11.63795 l 3.2796,2.49333 7.1904,-1.63543 c 3.9548,-0.89949 9.181,-1.51302 11.6138,-1.36342 l 4.4233,0.27201 4.3035,-7.91542 c 2.3669,-4.35348 4.6025,-9.73549 4.968,-11.96001 1.0108,-6.152 5.1093,-14.04545 9.1224,-17.56899 4.2653,-3.74499 4.87,-3.7096 26.2032,1.53364 42.2201,10.3768 61.3811,24.66069 66.1797,49.33485 0.8185,4.2087 1.0183,10.35217 0.5935,18.25175 -1.4679,27.30039 -7.2256,40.73738 -18.8287,43.94114 l -3.3282,0.91897 0,16.27203 c 0,18.61536 -1.0168,22.97807 -7.2885,31.27202 -4.5306,5.9915 -11.8396,10.58473 -21.5233,13.52607 -10.501,3.18958 -15.4319,6.01558 -25.8353,14.80684 -16.7655,14.16745 -22.6215,15.87095 -67.8529,19.73835 l -19.5,1.6673 -3.7661,4.3085 c -2.1153,2.42 -5.3615,4.835 -7.4061,5.5098 -3.9422,1.301 -14.0085,0.7655 -23.1015,-1.229 -5.0468,-1.107 -5.3909,-1.0466 -8,1.4041 -3.1303,2.9401 -14.73108,10.4946 -20.95442,13.6456 -7.60656,3.8513 -17.48142,5.279 -41.77192,6.0395 -13.16532,0.4122 -24.14958,1.2047 -25.68847,1.8533 -1.47867,0.6234 -4.25648,3.5845 -6.17293,6.5804 -6.32983,9.8951 -14.67604,14.1262 -31.012,15.7213 -9.0532,0.884 -14.22613,0.7884 -27.24623,-0.5038 l -16.07139,-1.5949 -6.89046,2.5935 c -6.36083,2.3942 -21.8417,4.2612 -24.91852,3.0052 z m 20.63616,-8.2535 c 6.33996,-2.7922 6.42762,-2.8009 23.36384,-2.3107 9.35,0.2707 22.175,0.4921 28.5,0.4921 15.68284,0 16.65715,-0.5658 30.24076,-17.5613 5.90742,-7.3913 11.45978,-13.9674 12.33858,-14.6137 2.12411,-1.562 14.02095,-3.6116 18.42066,-3.1735 3.391,0.3377 3.2784,0.4375 -3.61557,3.2038 -3.91356,1.5704 -8.41356,3.9167 -10,5.214 l -2.88443,2.3588 4.5,0 c 2.475,0 14.76418,-0.8238 27.30928,-1.8259 l 22.80929,-1.822 7.69071,-3.9848 c 4.2299,-2.1917 11.68856,-6.1348 16.57476,-8.7625 l 8.8841,-4.7777 6.8086,1.1244 c 9.2888,1.534 16.468,1.4112 19.8538,-0.3397 3.5147,-1.8175 7.87,-6.8929 8.6782,-10.113 0.7263,-2.8941 2.3913,-3.2297 2.3913,-0.4819 0,1.0675 0.361,2.1641 0.8023,2.4369 1.02,0.6303 39.7072,-4.8417 48.8316,-6.9069 10.2644,-2.3232 22.0642,-6.34969 29.3661,-10.02071 4.7041,-2.36498 8.2244,-5.20488 12.7414,-10.27871 3.9872,-4.47864 7.4184,-7.36175 9.5,-7.98237 1.7922,-0.53433 7.0836,-2.01383 11.7586,-3.28777 7.436,-2.02634 9.1023,-2.91794 13.3118,-7.12306 2.6465,-2.64374 6.0215,-7.38791 7.5,-10.54259 2.5115,-5.35873 2.6852,-6.62325 2.643,-19.23579 -0.052,-15.52813 -0.854,-18.2177 -7.6286,-25.58227 -3.4156,-3.71306 -7.3783,-6.19481 -18.8262,-11.79031 -14.4125,-7.04451 -14.5816,-7.16662 -28,-20.21827 -17.5975,-17.11641 -22.4816,-19.71098 -44.1162,-23.43587 -15.0436,-2.59009 -25.2994,-2.58134 -31.3838,0.0268 -5.5239,2.36782 -7.2167,2.56841 -5.6397,0.66831 2.0597,-2.4818 11.5588,-7.03047 16.928,-8.10604 l 5.3425,-1.0702 -6.3408,-3.70917 c -8.8675,-5.18732 -17.3166,-7.18984 -26.771,-6.34507 -10.212,0.91245 -19.9034,3.20551 -23.9509,5.66692 l -3.356,2.04092 7.8386,3.40759 c 7.6812,3.33915 12.3099,6.44674 9.6024,6.44674 -0.7015,0 -6.7605,-1.59004 -13.4643,-3.53342 -20.8073,-6.03184 -31.18122,-6.30533 -39.22609,-1.03413 l -2.6963,1.76668 2.28781,1.15044 c 4.78376,2.40553 3.19184,3.35899 -6.7675,4.05329 -12.95514,0.90315 -17.38494,2.48617 -26.01819,9.29779 l -7.23142,5.70559 3.48142,2.86968 c 5.2888,4.35947 4.61329,5.96201 -1.5293,3.62801 -2.7559,-1.04716 -6.53289,-1.90393 -8.39331,-1.90393 -5.65166,0 -25.76262,5.55054 -32.58001,8.99195 l -6.41458,3.23807 5.88455,2.9294 c 10.03461,4.99534 18.06744,11.47282 27.17853,21.91612 5.81563,6.66598 9.28082,9.87933 10.29986,9.55131 0.84463,-0.27187 3.56069,-1.24208 6.03569,-2.156 2.63549,-0.97319 8.64336,-1.83122 14.5,-2.07086 10.80316,-0.44203 10.71927,-0.3461 -3.5,4.00245 -4.8815,1.49287 -9.92941,3.79623 -11.85773,5.41069 l -3.35774,2.8112 3.47448,5.43784 c 5.70013,8.92114 11.32407,20.98095 13.26161,28.43783 1.00036,3.85 1.90695,7.12699 2.01464,7.28219 0.10769,0.15521 4.2458,-1.68898 9.19582,-4.0982 4.95001,-2.40923 9.96187,-4.63194 11.13746,-4.93936 2.64291,-0.69114 6.65916,-8.9705 8.25577,-17.01898 0.63002,-3.1759 1.49816,-5.99232 1.92921,-6.25873 2.1699,-1.34107 1.87177,9.12141 -0.53021,18.60712 l -0.6518,2.57404 6.31425,-0.77952 c 3.47288,-0.42874 11.31848,-0.5093 17.43478,-0.17903 l 11.1206,0.60049 16.2592,-10.79027 c 10.1962,-6.7666 18.3789,-11.44999 21.9436,-12.55942 3.1502,-0.98048 12.3272,-2.26231 20.5858,-2.8754 17.7406,-1.31701 20.0789,-2.24033 26.7556,-10.56493 l 4.8123,-6 -2.2988,-1.5 c -3.3069,-2.15777 -10.7988,-9.11599 -10.7988,-10.02949 0,-0.42613 2.0965,-0.14381 4.6589,0.62736 2.5624,0.77117 6.8554,1.40213 9.5401,1.40213 4.3937,0 5.261,-0.39936 8.6862,-4 3.6888,-3.87777 4.0066,-4 10.4009,-4 6.9444,0 9.5964,1.3183 4.957,2.46412 -5.4327,1.34171 -11.8473,6.39252 -14.6436,11.53026 -3.0111,5.53245 -13.3557,19.7751 -15.8392,21.80781 -1.0106,0.82714 -7.0055,1.64487 -16.4331,2.24154 -8.1631,0.51664 -17.5235,1.63776 -20.8007,2.49137 -7.5628,1.96986 -30.9882,15.83577 -35.7857,21.18214 -1.7182,1.91481 -1.6268,1.99002 3.9269,3.23288 4.8967,1.09584 5.4185,1.42357 3.7591,2.36114 -2.3458,1.3254 -13.6717,1.41049 -34.9268,0.2624 -20.3448,-1.09892 -21.45747,-0.79373 -49.21429,13.49866 -19.8767,10.23481 -33.84741,19.10509 -51.98128,33.00394 -9.16377,7.0237 -14.96652,9.7478 -46.80447,21.9731 -15.4,5.9133 -30.925,12.1459 -34.5,13.8503 -5.54264,2.6424 -7.6462,3.0989 -14.28212,3.0996 -8.18677,8e-4 -14.71788,1.8924 -14.71788,4.2626 0,0.7502 1.2375,2.5149 2.75,3.9216 9.74564,9.0639 19.83335,10.6634 32.38616,5.1351 z m -24.59044,-3.1062 c -0.30015,-0.3001 -0.54572,-1.5871 -0.54572,-2.86 0,-1.7086 0.71966,-2.4755 2.75,-2.9304 1.5125,-0.3388 4.2997,-1.0102 6.19377,-1.4919 6.45741,-1.6423 5.29466,0.7073 -2.41698,4.8841 -2.98944,1.6192 -5.68092,2.6984 -5.98107,2.3982 z m 176.45428,-61.22397 c 0,-1.24651 9.69258,-9.83748 14.63584,-12.97241 5.6995,-3.6145 10.0451,-3.85556 17.7225,-0.98311 7.1773,2.68538 17.9396,9.67607 17.0679,11.08653 -0.9776,1.58168 -7.0044,0.38941 -15.7662,-3.11896 -10.3256,-4.13458 -13.3031,-3.90493 -24.41004,1.88268 -5.0875,2.65099 -9.25,4.49836 -9.25,4.10527 z m 64.00004,-3.463 c 0,-1.76582 2.7405,-5.3299 9.5682,-12.44335 12.1288,-12.6365 14.344,-13.61487 28.9529,-12.78758 5.7494,0.32559 11.2467,1.03589 12.2162,1.57844 1.5905,0.89013 1.5185,1.07706 -0.7373,1.91416 -1.375,0.51023 -6.697,1.45682 -11.8267,2.10353 -15.4879,1.95258 -24.736,6.82971 -32.6643,17.22599 -4.1659,5.46268 -5.509,6.04996 -5.509,2.40881 z m 49.261,-4.3429 c -0.7585,-0.48175 0.9918,-1.24766 4.5138,-1.97511 7.4684,-1.54257 9.5518,-3.10817 12.5961,-9.46527 2.9683,-6.19868 3.8127,-7.24541 9.2996,-11.52863 6.3765,-4.97767 12.8229,-7.55497 15.42,-6.16502 1.9787,1.05897 1.8031,1.27826 -2.7381,3.41908 -6.84,3.2245 -10.8651,7.90095 -12.9029,14.99095 -1.0067,3.5025 -2.8633,7.10911 -4.5042,8.75 -2.6367,2.63672 -3.2809,2.79066 -11.6184,2.7762 -4.8548,-0.008 -9.3845,-0.36942 -10.0659,-0.8022 z m 48.5895,-29.81942 c -7.6403,-5.19337 -12.7948,-7.28339 -19.7574,-8.01112 -4.2272,-0.44183 -6.0931,-1.0622 -6.0931,-2.02579 0,-2.44061 2.9533,-2.64853 11.6617,-0.82102 9.4489,1.9829 21.6885,7.35909 22.6888,9.96597 2.1489,5.59997 -1.076,5.93838 -8.5,0.89196 z m -100.0662,-28.31811 c -1.5563,-1.22411 -2.978,-3.56044 -3.3396,-5.48773 -0.5338,-2.8453 -1.3133,-3.61723 -5.1218,-5.07171 -5.3714,-2.05133 -8.3138,-6.27297 -8.3192,-11.93569 l 0,-3.95017 2.6356,4.06464 c 2.4344,3.75449 6.881,7.3357 9.1082,7.3357 0.5143,0 1.5379,-1.2375 2.2745,-2.75 1.3339,-2.73881 1.3422,-2.72866 2.0505,2.49366 0.3912,2.88402 0.9978,6.38547 1.348,7.78102 0.775,3.08757 5.9979,6.45549 10.0832,6.50199 3.9814,0.0453 1.3775,1.64948 -4.099,2.5252 -3.0976,0.49533 -4.4681,0.18321 -6.6167,-1.50691 z m 17.5523,-10.10518 c -1.7399,-1.1146 -3.8762,-3.11435 -4.7474,-4.44389 -0.9403,-1.43509 -3.3119,-2.88188 -5.8366,-3.56052 -7.7634,-2.0869 -14.7526,-12.32648 -14.7526,-21.61351 0,-4.99976 1.4803,-4.01202 3.8894,2.59514 2.3207,6.36471 7.631,12.083 11.2209,12.083 1.8089,0 2.0075,-0.53964 1.7486,-4.75 -0.1606,-2.6125 0.1429,-4.75 0.6745,-4.75 0.5316,0 2.1958,3.825 3.6981,8.5 1.5046,4.68184 3.646,9.25203 4.7672,10.17417 1.1196,0.9208 5.0653,2.6917 8.7684,3.93533 5.8857,1.97663 6.4183,2.35113 4.2329,2.97615 -4.8424,1.38491 -10.4466,0.91492 -13.6634,-1.14587 z m -71.37475,-6.18978 c -2.45404,-1.2375 -4.60041,-3.00129 -4.76972,-3.91954 -0.28189,-1.52886 0.0896,-1.54993 4.40893,-0.25 5.88673,1.77165 15.81154,1.87002 17.10424,0.16954 0.5227,-0.6875 1.7382,-3.38285 2.7012,-5.98966 2.0819,-5.63553 3.4225,-6.71461 5.2452,-4.22199 2.9017,3.96833 0.228,12.43826 -4.7369,15.0057 -4.4283,2.28994 -14.64336,1.88342 -19.95295,-0.79405 z m -12.15792,-6.47637 c -0.85182,-0.9755 -2.33974,-3.47648 -3.30649,-5.55773 -1.13723,-2.44827 -3.32372,-4.70184 -6.19379,-6.38382 -3.05488,-1.79027 -4.1141,-2.92167 -3.40198,-3.63379 1.67793,-1.67793 8.63606,0.96367 11.49829,4.36524 4.52216,5.37427 5.89753,16.35605 1.40397,11.2101 z m 29.99167,-17.0137 -0.2956,-6.74007 -7.8396,-5.38305 c -9.12037,-6.26251 -11.82305,-9.94062 -11.43284,-15.55909 0.39224,-5.64777 2.13201,-5.42845 5.02943,0.63401 2.91951,6.10876 4.48901,7.79933 10.92881,11.77212 2.5773,1.58992 5.5023,4.13668 6.5,5.65947 2.8433,4.33942 1.9916,16.35668 -1.1592,16.35668 -1.0758,0 -1.5093,-1.68803 -1.7309,-6.74007 z m 83.0367,3.99007 c -1.3981,-1.5125 -4.385,-5.23643 -6.6377,-8.27539 -5.0511,-6.81422 -7.4284,-8.59748 -18.5169,-13.8898 -6.3708,-3.04065 -9.3013,-5.05959 -10.7191,-7.38477 -3.2339,-5.30388 -2.2359,-5.87917 3.1403,-1.81006 3.2313,2.44568 7.8228,4.6507 12.5354,6.01999 8.8117,2.56034 13.0178,6.23322 19.1592,16.73001 6.1859,10.57276 6.6862,14.71979 1.0388,8.61002 z m -161.83234,-1.64426 c 0,-3.02714 11.64944,-10.52945 16.43428,-10.58378 5.06744,-0.0575 10.81816,-4.386 18.28025,-13.7592 7.93965,-9.97307 12.55959,-13.19663 18.97645,-13.2408 4.51933,-0.0311 4.96565,1.60623 0.81155,2.9772 -8.02824,2.64956 -22.50253,19.76898 -22.50253,26.61479 0,3.48705 -1.60159,4.58786 -2.66043,1.82858 -0.36344,-0.94712 -1.23289,-1.31292 -2.21861,-0.93344 -0.89153,0.34322 -5.18706,1.30133 -9.54562,2.12913 -4.35857,0.82781 -10.09607,2.60544 -12.75,3.95029 -3.70607,1.87801 -4.82534,2.11396 -4.82534,1.01723 z m 99.00004,-10.20145 c 0,-0.32764 0.7611,-1.88417 1.6913,-3.45896 l 1.6914,-2.86325 -5.6914,-5.9668 c -4.9489,-5.1884 -5.6913,-6.48072 -5.6913,-9.90618 0,-2.47117 0.7724,-4.9214 2.0725,-6.57424 2.3874,-3.03506 5.5791,-3.67607 4.4059,-0.88486 -1.9971,4.75113 -1.6273,6.24378 3.4148,13.78234 2.8087,4.19937 5.1068,8.43683 5.1068,9.41658 0,2.3201 -3.739,7.05108 -5.5726,7.05108 -0.7851,0 -1.4274,-0.26807 -1.4274,-0.59571 z m -30.8165,-28.10539 c 0.4515,-3.85368 5.2141,-6.28093 13.724,-6.99437 4.968,-0.4165 7.4922,-0.21765 8.5677,0.67495 2.8277,2.34676 1.5555,2.86849 -5.7252,2.34789 -7.2374,-0.51749 -7.2566,-0.51214 -11.0024,3.07712 -4.4806,4.29342 -5.9907,4.53616 -5.5641,0.89441 z m -209.83805,181.53606 2.79457,-1.4642 -6.01602,-3.7133 c -3.30881,-2.0424 -7.55166,-5.5074 -9.42855,-7.7001 l -3.41254,-3.9868 -1.64147,4.2982 c -2.21639,5.8035 -2.16493,12.3073 0.10852,13.717 2.34736,1.4556 14.08631,0.6878 17.59549,-1.1508 z m 68.65451,-13.3315 c 34.1142,-13.1603 37.68702,-15.0481 59.18857,-31.27409 11.22261,-8.46908 12.92887,-10.15359 14.76854,-14.58034 1.98036,-4.76528 4.67632,-18.34894 3.81306,-19.2122 -0.22438,-0.22437 -2.13974,1.27305 -4.25637,3.32761 -2.39703,2.32673 -5.01102,6.5251 -6.93111,11.13213 -2.90208,6.96321 -5.64821,10.37124 -7.14826,8.87119 -0.806,-0.806 2.96983,-13.52217 5.80802,-19.56017 1.3646,-2.90306 3.17896,-4.91777 5.3694,-5.96232 2.02316,-0.96478 3.71234,-2.73648 4.34826,-4.56068 1.31036,-3.75891 1.34318,-6.99007 0.063,-6.19885 -1.6749,1.03515 -8.78619,-1.41554 -12.03151,-4.1463 -3.49082,-2.93733 -8.26746,-9.71226 -16.12651,-22.873 l -5.35438,-8.96644 -0.61072,8.13553 c -0.80622,10.74 -3.30898,15.70421 -11.95159,23.70594 -7.67036,7.10158 -17.60713,12.78855 -26.54056,15.18958 -8.66078,2.32775 -33.00734,2.0897 -45.13907,-0.44136 -15.12369,-3.15527 -25.87871,-9.25156 -31.2424,-17.70922 l -2.87747,-4.5373 -1.62741,2.48374 c -1.48936,2.27306 -1.49337,2.76745 -0.0473,5.82842 0.86904,1.83957 3.14288,5.53303 5.05297,8.20768 3.19096,4.46823 3.47166,5.44242 3.45759,12 -0.008,3.92535 -0.45153,7.81199 -0.98469,8.63699 -0.7498,1.16023 -0.97284,0.84879 -0.98469,-1.37495 -0.0161,-3.01133 -4.77508,-14.62505 -5.993,-14.62505 -1.00316,0 -5.89212,9.22318 -7.55577,14.25421 -1.38056,4.17494 -1.39931,4.08726 -1.12363,-5.25421 0.19809,-6.7122 0.79896,-10.48391 2.04758,-12.85289 1.71087,-3.24596 1.70093,-3.50698 -0.31167,-8.18538 -2.53745,-5.89846 -2.61902,-8.69534 -0.32888,-11.27707 1.72259,-1.94193 1.66994,-1.96249 -3.36136,-1.31269 -12.68861,1.63874 -27.29376,-3.14784 -37.53605,-12.30176 -7.69233,-6.87493 -8.39905,-4.36772 -1.28519,4.55947 l 5.4326,6.81737 0,9.42714 0,9.42714 5.57008,5.39493 c 7.05408,6.83226 8.59854,10.39713 7.80281,18.01021 -0.59563,5.69873 -0.52121,5.92775 3.67368,11.30505 11.35772,14.55909 27.68244,32.00994 35.95343,38.43354 9.13281,7.0929 15.87719,9.662 32.5,12.3797 6.32916,1.0348 9.07659,0.2579 36.5,-10.3213 z m 89.3742,-49.47257 3.8742,-2.34753 -0.4944,-6.09168 c -0.30622,-3.77313 -1.65616,-8.64845 -3.54678,-12.80926 -8.67223,-19.08552 -28.18678,-46.04876 -38.08251,-52.61856 -8.59587,-5.70683 -17.12471,-10.41034 -17.12471,-9.44398 0,0.47666 2.1375,2.88497 4.75,5.35179 2.85725,2.69792 7.30211,8.94562 11.15471,15.67907 3.52259,6.15667 9.26121,14.80639 12.75249,19.2216 l 6.34778,8.02766 5.42608,0 c 8.87046,0 10.7027,3.85572 6.12502,12.88933 -1.85302,3.65675 -2.16364,5.10311 -1.28473,5.98202 0.66246,0.66246 1.33169,5.45401 1.56174,11.18172 0.39947,9.9456 0.41893,10.01219 2.53474,8.67395 1.17269,-0.74173 3.87556,-2.40498 6.00637,-3.69613 z m -82.07714,-25.96329 c 6.87668,-2.66489 19.07524,-12.07651 22.97768,-17.72808 4.87591,-7.06136 4.89174,-10.70571 0.12743,-29.33952 -6.08029,-23.7808 -10.04786,-34.30118 -16.95907,-44.96857 -33.82178,-52.20366 -39.10452,-59.0134 -54.35408,-70.06547 -5.54896,-4.02159 -10.08902,-7.73336 -10.08902,-8.24838 0,-0.51501 1.60887,-0.74857 3.57527,-0.519 l 3.57527,0.41739 -0.63122,-3.55798 c -0.34718,-1.9569 -1.58148,-7.14235 -2.7429,-11.52324 -1.81971,-6.86393 -2.76251,-8.61608 -6.81875,-12.67232 -4.79844,-4.79844 -8.15307,-6.24899 -17.0147,-7.35721 -4.47388,-0.55949 -4.6272,-0.70159 -8.40249,-7.78756 -9.26405,-17.38794 -15.49061,-23.89793 -38.80979,-40.57637 -19.59371,-14.0139 -24.25545,-17.75234 -44.21758,-35.45996 -31.06274,-27.55452 -40.43751,-38.12035 -50.36507,-56.76394 -3.39442,-6.3746 -4.03932,-8.61238 -4.58719,-15.91739 -0.78392,-10.45247 0.22353,-14.35855 11.54907,-44.77782 12.33398,-33.12783 13.16551,-37.59971 8.66383,-46.59286 -1.84904,-3.6939 -2.1165,-3.84669 -5.85564,-3.34516 -2.15496,0.28904 -3.91811,0.16496 -3.91811,-0.27572 0,-0.44069 1.559,-2.17007 3.46444,-3.84308 l 3.46445,-3.04182 -1.45459,-4.89812 c -3.00177,-10.10806 -9.91082,-16.4506 -18.11889,-16.63321 -4.2592,-0.0948 -8.35541,2.36959 -8.35541,5.02676 0,1.57413 -10.55915,12.37208 -21.28462,21.76599 -10.99116,9.62661 -13.09117,14.19106 -16.79623,36.50719 -3.50675,21.12171 -10.91843,31.83333 -31.83614,46.01067 -17.96052,12.17305 -20.71819,16.29804 -19.85785,29.7039 0.64025,9.97654 4.77988,18.34858 12.63439,25.55196 10.44727,9.5812 17.79975,12.99869 45.13295,20.97819 20.93419,6.11142 27.30682,10.44063 36.65062,24.89846 3.22128,4.98435 10.08533,15.45296 15.25343,23.26356 9.09043,13.73847 12.95209,20.95935 16.56473,30.97424 4.24464,11.76687 16.74919,25.81288 31.80073,35.72087 12.2856,8.08726 21.63939,12.60519 30.73799,14.84665 15.80623,3.89388 18.42335,6.66616 31.89471,33.78567 8.26929,16.6471 10.5559,22.18982 11.29284,27.37368 2.80403,19.72456 5.29774,33.44337 8.91775,49.05999 2.22348,9.59201 4.62435,22.42047 5.33527,28.5077 0.71091,6.08722 2.07387,12.71415 3.02879,14.7265 3.33447,7.02687 11.71158,12.95829 22.89159,16.20841 10.0412,2.91906 14.70405,3.38222 31.13905,3.09304 13.77137,-0.24231 16.80747,-0.59444 21.79706,-2.52804 z m -39.37059,-27.78293 c -3.57106,-3.00484 -6.66728,-9.29324 -9.76311,-19.8288 -4.07161,-13.85624 -5.24126,-23.38737 -5.76239,-46.95587 -0.5495,-24.85192 -1.39415,-32.58276 -4.55914,-41.72825 -1.12372,-3.24708 -1.82317,-6.12374 -1.55434,-6.39257 0.86836,-0.86836 7.60832,8.13328 9.88384,13.20048 2.06766,4.60432 2.25652,6.94347 2.94064,36.42034 0.90144,38.84046 2.5391,47.96129 10.94742,60.9706 2.16734,3.35329 3.94061,6.3067 3.94061,6.56314 0,1.3378 -3.23402,0.14022 -6.07353,-2.24907 z M 360.13821,568.40038 c -0.23495,-0.72815 -0.72054,-4.79605 -1.0791,-9.03978 -0.63842,-7.55597 -0.76107,-7.83818 -5.91787,-13.61752 -9.43129,-10.56984 -13.48158,-17.16661 -10.53998,-17.16661 2.10632,0 14.39881,12.73668 17.9394,18.58764 3.18671,5.26615 3.47175,6.38987 3.5,13.79812 0.0263,6.90174 -0.2221,8.11533 -1.72226,8.41356 -0.96417,0.19167 -1.94525,-0.24726 -2.18019,-0.97541 z m 8.13707,-43.07391 c -0.83821,-1.7875 -2.03839,-5.1869 -2.66708,-7.55422 -1.48159,-5.57893 -1.84496,-17.65269 -0.53678,-17.83559 0.55,-0.0769 1.75083,3.35039 2.66851,7.61619 0.91768,4.26579 3.04934,10.34361 4.73703,13.50627 3.3132,6.2088 3.25217,7.51735 -0.35062,7.51735 -1.64609,0 -2.773,-0.95103 -3.85106,-3.25 z m -54.15694,-19 c -0.21467,-0.6875 -0.83734,-4.50323 -1.3837,-8.47941 -0.74415,-5.41554 -1.9078,-8.73468 -4.63789,-13.22889 -9.25625,-15.23744 -30.24456,-38.98731 -41.62579,-47.10276 -8.76815,-6.25219 -12.52142,-9.6504 -11.63629,-10.53552 2.38867,-2.38867 19.49947,9.50868 34.42587,23.93672 19.55063,18.89788 29.46685,33.62711 30.91095,45.91414 0.90773,7.72343 0.0216,10.74572 -3.15051,10.74572 -1.38178,0 -2.68797,-0.5625 -2.90264,-1.25 z M 178.91782,370.12613 c -7.14162,-3.10713 -10.47683,-13.45201 -6.72187,-20.84932 1.86163,-3.66743 8.40933,-11.99981 8.98066,-11.42848 0.20981,0.20981 -0.73204,2.68968 -2.09301,5.51083 -3.15426,6.53848 -3.96496,11.98147 -2.26651,15.21731 0.72171,1.375 4.21872,4.07859 7.77111,6.00798 3.5524,1.92939 6.60987,4.29189 6.79439,5.25 0.28226,1.46569 -0.42963,1.73581 -4.48785,1.70288 -2.65282,-0.0215 -6.24244,-0.65657 -7.97692,-1.4112 z M 136.6066,357.64221 c -1.03708,-1.93781 -1.43331,-6.06574 -0.58223,-6.06574 0.24912,0 1.56593,0.50711 2.92626,1.12692 4.18986,1.90903 7.25192,0.19632 18.14293,-10.14795 5.77852,-5.48843 10.94998,-9.97897 11.49213,-9.97897 3.51385,0 -1.80881,7.78456 -11.65009,17.03863 -10.04556,9.44615 -17.90803,12.55073 -20.329,8.02711 z m 71.36217,-74.47263 c -0.29693,-0.7738 1.48999,-4.03629 3.97093,-7.25 2.48094,-3.21371 5.46344,-8.41216 6.62777,-11.55211 1.16433,-3.13996 2.97657,-6.73996 4.02719,-8 l 1.91022,-2.291 0.0333,4.33341 c 0.0383,4.99367 -4.8314,17.98931 -8.5851,22.91067 -2.63032,3.44853 -6.98362,4.45668 -7.98428,1.84903 z m 146.84699,388.21554 3.97637,-1.19135 -0.68874,-7.05865 c -0.3788,-3.88226 -2.64765,-16.05865 -5.04188,-27.05865 -5.26706,-24.19879 -7.48264,-36.64805 -7.4869,-42.0685 -0.005,-6.26757 -2.52886,-13.37065 -7.45812,-20.9893 -2.47039,-3.81821 -6.12082,-11.12339 -8.11206,-16.23374 -3.31368,-8.50422 -4.14019,-9.72407 -9.75414,-14.39604 -6.88273,-5.72788 -11.07571,-7.79711 -15.89675,-7.84507 -6.09449,-0.0606 -13.22795,-3.50548 -25.78212,-12.4506 -21.81547,-15.54398 -31.85406,-26.99379 -42.01993,-47.92699 -5.40125,-11.12208 -25.16429,-43.89823 -31.39457,-52.06655 -3.4049,-4.46406 -14.59813,-11.10523 -21.33137,-12.65633 -5.85181,-1.34806 -7.37348,-0.76122 -4.95517,1.91097 2.16241,2.38944 5.71164,10.54049 12.72428,29.22215 7.09564,18.9028 17.20084,41.26247 20.78917,46 4.87571,6.43721 11.10791,11.77235 23.44484,20.07021 24.70835,16.6189 41.38793,32.07208 47.58326,44.0846 3.10699,6.02432 3.15951,6.36058 3.16078,20.23565 0.001,11.44412 0.45457,15.99863 2.40071,24.10954 1.31967,5.5 3.36744,15.11354 4.5506,21.36341 2.52708,13.34895 6.52774,24.87334 11.44445,32.96712 6.41046,10.55275 18.11732,19.6724 28.34887,22.0838 5.55908,1.31018 16.95976,1.25413 21.49842,-0.10568 z M 306.6066,567.64221 c -0.56935,-1.06384 -1.03518,-4.33904 -1.03518,-7.27822 0,-5.46115 -0.44402,-6.39019 -7.13393,-14.92659 -3.40394,-4.34347 -4.53429,-7.86093 -2.52613,-7.86093 1.83282,0 9.93634,8.90892 13.25601,14.57351 3.28661,5.60817 4.25579,13.43189 1.9496,15.73808 -2.18782,2.18782 -3.23856,2.13055 -4.51037,-0.24585 z m 474.39166,85.86433 c 5.0702,-4.45168 7.3333,-8.65926 9.0519,-16.82912 3.2284,-15.34713 1.2639,-35.48845 -4.6816,-47.99901 -5.8015,-12.20749 -14.7062,-18.30793 -38.7971,-26.57913 -13.1616,-4.5188 -30.8211,-9.52281 -33.6066,-9.52281 -2.1782,0 -9.5563,7.15878 -11.0463,10.71788 -0.7409,1.76984 -1.3471,4.6175 -1.3471,6.32813 0,1.71064 -1.6157,6.46946 -3.5905,10.57516 -1.9748,4.10569 -3.3541,8.08078 -3.0653,8.83353 0.2889,0.75275 2.1296,1.94878 4.0905,2.65785 1.9609,0.70908 3.5653,1.71044 3.5653,2.22525 0,0.8881 -3.1681,0.72909 -18.6509,-0.93607 -5.513,-0.59292 -14.1471,0.1336 -13.1723,1.10839 0.2096,0.20963 3.9681,1.10693 8.3521,1.99398 9.4119,1.90436 16.8517,4.52165 24.6348,8.66644 5.1471,2.74105 12.9031,10.0415 24.9735,23.50669 3.6418,4.06265 6.3355,5.35107 23.8628,11.414 5.5143,1.9075 7.5614,3.35457 13.5,9.54316 8.1497,8.49285 10.4423,9.11119 15.9268,4.29568 z m -47.743,-30.38051 c -4.8149,-1.71516 -7.206,-3.88176 -10.5375,-9.54834 -2.611,-4.44111 -2.6463,-4.75495 -2.6463,-23.50122 0,-17.70502 -0.1529,-19.3015 -2.2431,-23.42356 -2.3348,-4.60422 -2.3183,-5.69772 0.072,-4.78057 4.3589,1.67267 8.6713,18.99151 8.6713,34.82422 0,6.13644 0.5223,11.19418 1.364,13.20872 1.8346,4.3908 6.4941,8.13116 12.6948,10.19071 2.8164,0.93548 4.7429,2.0467 4.281,2.46938 -1.7258,1.5793 -7.9552,1.87894 -11.656,0.56066 z M 111.54667,359.01137 c -0.53639,-1.4108 -0.97103,-6.2483 -0.96587,-10.75 0.008,-7.18959 0.36139,-8.79858 2.90402,-13.23143 3.19549,-5.57102 9.32254,-11.14165 21.90363,-19.91443 18.89016,-13.1721 26.54551,-24.22487 29.13644,-42.06707 2.00219,-13.7879 6.19392,-25.20745 11.8878,-32.38597 1.8961,-2.3905 1.89168,-2.46355 -0.45349,-7.5 -3.4238,-7.35291 -3.15855,-10.70207 1.14702,-14.48241 1.94413,-1.70697 3.96913,-3.10359 4.5,-3.10359 1.71053,0 1.02675,3.63433 -1.0348,5.5 -1.1,0.99549 -2,2.79808 -2,4.00576 0,2.68542 1.95095,8.49788 2.84783,8.48453 0.88805,-0.0132 8.71826,-6.27589 13.85972,-11.08515 6.90121,-6.45529 6.8715,-12.97889 -0.0741,-16.27479 -7.40233,-3.51263 -9.85055,-2.39536 -32.58659,14.87126 -21.99112,16.70091 -26.71262,22.77176 -35.02779,45.0383 -3.33192,8.92231 -12.98754,24.24175 -23.92567,37.96009 -9.794133,12.28355 -14.323883,21.52148 -14.234203,29.02908 0.1503,12.58381 5.27449,20.37607 17.640803,26.8261 4.51795,2.35648 5.63383,2.12701 4.47525,-0.92028 z m 26.48087,-57.5059 c -1.21641,-1.9682 0.56151,-9.38343 3.47149,-14.4786 1.58325,-2.77218 6.13155,-8.5235 10.10731,-12.78072 10.79716,-11.56149 14.18477,-12.72685 9.56855,-3.29165 -1.925,3.93456 -4.58116,7.01306 -9.57861,11.10163 -6.93155,5.67092 -7.52552,6.63664 -10.00715,16.27034 -1.08164,4.19893 -2.27367,5.26291 -3.56159,3.179 z"
       id="path3009"
       inkscape:connector-curvature="0" />
  </g>
</svg>
