<?xml version="1.0" encoding="UTF-8" standalone="no"?>
<!-- Created with Inkscape (http://www.inkscape.org/) -->

<svg
   xmlns:dc="http://purl.org/dc/elements/1.1/"
   xmlns:cc="http://creativecommons.org/ns#"
   xmlns:rdf="http://www.w3.org/1999/02/22-rdf-syntax-ns#"
   xmlns:svg="http://www.w3.org/2000/svg"
   xmlns="http://www.w3.org/2000/svg"
   xmlns:sodipodi="http://sodipodi.sourceforge.net/DTD/sodipodi-0.dtd"
   xmlns:inkscape="http://www.inkscape.org/namespaces/inkscape"
   width="486.6181"
   height="899.80511"
   id="svg2"
   version="1.1"
   inkscape:version="0.48.3.1 r9886"
   sodipodi:docname="Jm-press-3.svg">
  <defs
     id="defs4" />
  <sodipodi:namedview
     id="base"
     pagecolor="#ffffff"
     bordercolor="#666666"
     borderopacity="1.0"
     inkscape:pageopacity="0.0"
     inkscape:pageshadow="2"
     inkscape:zoom="0.7"
     inkscape:cx="808.73557"
     inkscape:cy="450.59108"
     inkscape:document-units="px"
     inkscape:current-layer="layer1"
     showgrid="false"
     fit-margin-top="0"
     fit-margin-left="0"
     fit-margin-right="0"
     fit-margin-bottom="0"
     inkscape:window-width="1855"
     inkscape:window-height="1056"
     inkscape:window-x="65"
     inkscape:window-y="24"
     inkscape:window-maximized="1" />
  <metadata
     id="metadata7">
    <rdf:RDF>
      <cc:Work
         rdf:about="">
        <dc:format>image/svg+xml</dc:format>
        <dc:type
           rdf:resource="http://purl.org/dc/dcmitype/StillImage" />
        <dc:title></dc:title>
      </cc:Work>
    </rdf:RDF>
  </metadata>
  <g
     inkscape:label="Ebene 1"
     inkscape:groupmode="layer"
     id="layer1"
     transform="translate(-504.66283,-470.22289)">
    <path
       style="fill:#000000"
       d=""
       id="path3414"
       inkscape:connector-curvature="0" />
    <path
       style="fill:#000000"
       d=""
       id="path3412"
       inkscape:connector-curvature="0" />
    <path
       style="fill:#000000"
       d="m 740.38707,1322.5857 c -4.9022,-1.0593 -9.4692,-3.6236 -11.8548,-6.6563 -3.5301,-4.4878 -4.4282,-9.0615 -3.8979,-19.8505 0.4123,-8.3876 1.1215,-11.8082 4.1688,-20.107 2.0197,-5.5 4.5531,-14.1297 5.6298,-19.177 1.7706,-8.2996 1.8623,-10.7378 0.9591,-25.5 -1.2065,-19.7186 -2.0617,-25.2098 -5.6083,-36.0148 -2.4923,-7.5928 -2.7651,-9.966 -3.168,-27.5603 l -0.4409,-19.2521 -6.0427,-5.0492 c -3.3235,-2.777 -7.4382,-5.7639 -9.1439,-6.6373 -21.586,-11.0547 -41.4667,-26.1728 -53.4242,-40.6261 -5.675,-6.8595 -25.5511,-23.9333 -37.7492,-32.427 -7.2628,-5.0572 -21.634,-10.3338 -33.7488,-12.3914 -11.5667,-1.9645 -18.924,-3.7125 -30.679,-7.2889 -11.39,-3.4653 -17.3168,-4.3977 -24.5001,-3.8545 -4.3615,0.3299 -8.5867,0.075 -10.7853,-0.6506 -3.7421,-1.235 -9.7146,-7.0933 -9.7146,-9.5289 0,-0.7637 -1.109,-2.7065 -2.4646,-4.3174 -3.2303,-3.8391 -4.2253,-9.9951 -2.2341,-13.8237 1.9976,-3.8409 4.3382,-5.9199 16.0646,-14.2689 11.9193,-8.4863 17.5959,-10.1319 34.9505,-10.1319 18.8593,0 35.5293,-3.6123 50.8407,-11.0167 9.5741,-4.6299 15.5667,-5.1852 21.7753,-2.0178 4.5667,2.3298 10.2293,8.6712 13.1733,14.7528 2.0781,4.2928 4.8733,19.3529 4.8872,26.3313 0.01,2.7303 1.1063,4.9229 4.7697,9.5 4.17,5.21 6.1918,6.671 16.25,11.7427 8.1574,4.1132 13.6615,6.1832 18.9874,7.1409 20.7863,3.7377 36.7102,10.0976 44.75,17.873 2.3375,2.2606 4.25,3.7159 4.25,3.2341 0,-1.2855 -6.7192,-27.8525 -9.1786,-36.2911 -2.0166,-6.9195 -2.2823,-7.2962 -5.8152,-8.2475 l -3.702,-0.9969 -0.6521,-10.658 c -0.3587,-5.8619 -0.6521,-16.4569 -0.6521,-23.5445 0,-15.5437 -1.8692,-25.63023 -6.5745,-35.47723 -5.6012,-11.722 -6.9332,-18.1215 -6.7281,-32.3251 0.1936,-13.4069 2.1347,-25.8178 4.8768,-31.181 0.9334,-1.8254 4.2767,-6.919 7.4296,-11.319 3.153,-4.4 6.7397,-10.025 7.9705,-12.5 1.2307,-2.475 3.7809,-6.1102 5.667,-8.0783 l 3.4292,-3.5782 -2.9148,-6.4965 c -4.5056,-10.0421 -5.1549,-15.0265 -5.1648,-39.64625 -0.01,-22.08361 -0.076,-22.83672 -2.4688,-27.70078 -2.0812,-4.2308 -2.4644,-6.4673 -2.4908,-14.53779 -0.026,-7.98093 -0.524,-10.95063 -3.0499,-18.19334 -2.2247,-6.37894 -3.3225,-12.02401 -4.174,-21.46221 -1.1252,-12.47353 -1.0829,-13.13523 1.6258,-25.43807 2.7395,-12.44261 2.757,-12.73702 1.1739,-19.6974 -3.185,-14.00337 -1.2114,-25.96697 6.2964,-38.1687 2.189,-3.55762 3.6934,-8.01076 5.0224,-14.86667 2.807,-14.48008 10.2318,-34.09051 16.1467,-42.64678 3.5338,-5.1118 5.9065,-10.18758 8.4376,-18.05032 6.0633,-18.835 5.9199,-17.18036 2.3048,-26.58888 -2.873,-7.47698 -3.2095,-9.44746 -3.2189,-18.84984 -0.01,-8.56817 0.3787,-11.35918 2.105,-15.16987 5.5813,-12.32032 17.2429,-25.02265 27.2989,-29.73535 4.9721,-2.33014 6.6518,-2.57419 17.5,-2.54256 30.8909,0.0901 50.0625,13.24226 58.0299,39.8099 1.9879,6.62854 1.9767,24.18019 -0.025,40.09987 -0.8274,6.5791 -1.5044,17.06395 -1.5044,23.29966 0,13.00862 -1.0515,16.08586 -6.3571,18.60351 -4.8013,2.27838 -9.5667,2.04557 -18.3277,-0.89539 -5.8412,-1.96084 -7.8526,-2.26866 -8.9379,-1.36789 -1.4826,1.23041 -4.2332,6.94931 -7.5465,15.69014 -2.2402,5.91011 -1.9354,6.75905 3.346,9.31834 1.8278,0.8857 7.719,3.72188 13.0916,6.30263 8.0881,3.88516 10.4789,5.58626 13.8997,9.88964 2.2723,2.85855 4.9619,7.05727 5.9768,9.33049 1.4869,3.33042 3.2543,4.96156 9.1002,8.39881 3.9902,2.34613 9.4033,5.82003 12.0291,7.71978 5.1238,3.70706 15.1375,16.96546 19.4413,25.74083 l 2.6096,5.32082 2.111,-3.13253 c 2.8562,-4.23823 9.3749,-9.01425 22.0851,-16.18083 9.454,-5.3306 12.1104,-7.50927 23.81,-19.52791 17.7266,-18.21005 17.4124,-17.52883 15.7654,-34.18153 -2.5704,-25.98858 -2.5977,-24.80336 0.9006,-39.08307 1.7795,-7.26412 4.0451,-15.00749 5.0346,-17.20749 0.9895,-2.2 2.7012,-6.475 3.8038,-9.5 3.3261,-9.12569 7.8454,-18.40135 9.849,-20.21455 2.6213,-2.37225 5.8508,-1.27333 8.4054,2.86017 1.8039,2.9187 2.0613,4.63259 1.7613,11.72713 -0.2964,7.00968 -0.8595,9.29389 -3.6013,14.60852 -1.7875,3.46481 -3.25,6.63767 -3.25,7.05079 0,0.41312 1.1547,1.04092 2.5659,1.39512 1.6921,0.42468 3.0712,1.85341 4.0497,4.19528 1.6572,3.96631 2.1327,15.43426 0.9337,22.52233 -0.6332,3.74307 -0.1556,7.11947 2.4601,17.39215 2.5909,10.17528 3.1244,13.90848 2.6443,18.5019 -0.7729,7.39546 -4.0189,15.64882 -7.6537,19.46116 -1.5732,1.65 -3.8295,5.475 -5.0141,8.5 -4.2919,10.96037 -19.9601,42.05206 -24.8231,49.25873 -5.1712,7.66337 -9.9778,13.3176 -23.6133,27.77728 -4.4272,4.69481 -9.307,10.20839 -10.8441,12.2524 -3.1579,4.19962 -8.6612,7.36108 -14.4156,8.28125 -4.674,0.7474 -8.0871,-0.5496 -21.3519,-8.11385 -7.451,-4.24893 -11.2198,-5.73672 -17.0707,-6.7388 l -7.5085,-1.286 -3.5993,8.03449 c -1.9796,4.41898 -3.8765,10.40289 -4.2155,13.29758 -0.3389,2.8947 -1.9456,9.1947 -3.5705,14 -3.6078,10.67016 -4.2122,14.88113 -3.987,27.78053 0.1102,6.31469 -0.3931,12.25502 -1.3557,16.00002 -0.842,3.276 -1.9741,10.3394 -2.5157,15.6964 -0.5416,5.3571 -1.299,10.2486 -1.6831,10.8702 -0.6124,0.9909 -1.4137,12.2841 -1.7304,24.3898 -0.058,2.2 0.9653,10.1034 2.273,17.5631 l 2.3777,13.5631 -2.7926,8.9369 c -2.751,8.8038 -2.7858,9.2347 -2.3416,28.9369 0.3418,15.1641 0.1055,21.4508 -0.9774,26.00003 -1.4201,5.9656 -1.2483,26.3326 0.3937,46.6808 l 0.6198,7.6809 -3.6364,0.6822 c -4.4171,0.8286 -4.3179,0.441 -5.1073,19.9561 -0.9755,24.117 -6.046,52.8288 -14.8627,84.161 -2.4514,8.7114 -5.4734,19.6413 -6.7158,24.2886 -1.7524,6.5555 -3.0869,9.3576 -5.953,12.5 -3.2193,3.5295 -3.7779,4.8928 -4.3441,10.6014 -0.3573,3.6031 -2.9143,18.9031 -5.6822,34 -6.4366,35.108 -6.6591,37.3058 -4.4506,43.9548 2.01,6.0518 10.6041,15.3883 19.7606,21.468 10.2144,6.7819 32.8615,15.9909 50.3095,20.4574 9.1894,2.3524 13.9774,14.9839 9.3516,24.6708 -3.0232,6.3309 -6.7174,7.838 -17.0078,6.9385 -4.6288,-0.4046 -15.6159,-0.8646 -24.4159,-1.0221 -11.441,-0.2049 -17.4247,-0.7521 -21,-1.9206 -2.75,-0.8989 -8.2541,-2.0639 -12.2314,-2.5891 -6.6784,-0.8819 -8.2461,-0.694 -20.5,2.4575 -14.4018,3.7039 -23.2915,4.831 -28.7686,3.6476 z m 118.6694,-7.5159 c 4.7715,-5.5471 2.5984,-8.3749 -7.4007,-9.6304 -8.0213,-1.0072 -9.9275,-1.6361 -10.6477,-3.5128 -0.8645,-2.2528 1.1716,-2.7047 4.5634,-1.0126 1.7373,0.8667 6.2316,1.8614 9.9872,2.2104 7.7199,0.7175 8.1561,0.2317 4.7458,-5.2862 -2.1378,-3.459 -2.933,-3.8037 -11.2785,-4.8897 -6.9856,-0.9089 -17.9534,-4.6825 -31.5442,-10.8529 -13.2011,-5.9934 -22.0402,-11.6057 -29.7978,-18.9196 -7.43,-7.0051 -8.8138,-11.5529 -8.7342,-28.7041 0.057,-12.3542 0.4539,-15.2039 4.6722,-33.5755 2.5353,-11.0416 4.9231,-23.2574 5.3064,-27.1464 l 0.6967,-7.0709 -5.5226,1.2838 c -13.8367,3.2164 -29.5602,2.7091 -37.1149,-1.1976 -1.6415,-0.8489 -5.3223,-3.7544 -8.1797,-6.4568 l -5.1952,-4.9134 -0.7166,11.9274 c -0.7685,12.7896 -0.6128,14.1491 3.1078,27.1494 3.6515,12.7588 5.3747,25.1305 5.3792,38.619 0,13.8315 -1.4432,23.248 -7.0428,45.807 -5.4015,21.7609 -5.1234,28.4656 1.4316,34.5112 4.2789,3.9463 11.1466,3.8663 33.0504,-0.3848 l 18.8481,-3.6582 11.6084,3.4553 c 14.2507,4.2417 20.5618,4.9903 29.6083,3.512 5.8862,-0.9618 7.7956,-0.8909 12,0.4462 2.7979,0.8897 7.3869,1.46 10.4194,1.2948 4.4497,-0.2423 5.8365,-0.78 7.75,-3.0046 z m -8.6694,-17.5979 c 0,-0.55 1.1516,-1 2.559,-1 1.4514,0 2.2915,0.4328 1.941,1 -0.3399,0.55 -1.4915,1 -2.559,1 -1.0676,0 -1.941,-0.45 -1.941,-1 z m -99.771,-1.6693 c -1.8092,-0.7279 -4.229,-5.7697 -4.229,-8.8112 0,-1.4189 1.1644,-5.3787 2.5875,-8.7997 4.5978,-11.0526 7.2435,-11.6107 3.4125,-0.7198 -3.2323,9.1887 -2.3537,13.3293 3.25,15.3166 2.8797,1.0212 2.1381,3.6945 -1,3.6044 -1.5125,-0.043 -3.322,-0.309 -4.021,-0.5903 z m -3.229,-92.9338 c 0,-0.3317 2.0756,-2.9116 4.6123,-5.7331 6.0928,-6.7766 10.2113,-12.8518 11.7755,-17.3702 2.0828,-6.0157 4.0437,-5.5845 3.2964,0.725 -1.1026,9.3094 -11.4327,22.9814 -17.3642,22.9814 -1.276,0 -2.32,-0.2714 -2.32,-0.6031 z m 41.1959,-43.3007 c 6.8285,-3.2945 9.8849,-7.86 11.492,-17.1658 0.7355,-4.2588 3.0906,-13.9729 5.2336,-21.5868 7.6294,-27.1066 16.0785,-75.9057 16.0785,-92.8632 0,-4.8906 -0.2258,-5.5443 -1.75,-5.0654 -5.3574,1.6831 -17.882,4.585 -19.7892,4.585 -2.1509,0 -2.2321,0.3823 -2.6321,12.3969 -0.2824,8.4831 -0.8438,12.9164 -1.7783,14.0424 -2.2615,2.7249 -3.0737,0.346 -2.0391,-5.9722 1.148,-7.0107 1.272,-17.5398 0.2234,-18.9671 -0.4117,-0.5603 -7.0918,-1.1358 -15.1932,-1.3088 -7.9522,-0.1698 -18.0772,-0.949 -22.5,-1.7315 -4.4228,-0.7826 -8.604,-1.4312 -9.2915,-1.4413 -2.0164,-0.03 -1.4793,4.6034 2.25,19.4106 3.8793,15.4026 4.1395,17.571 2.1086,17.571 -1.718,0 -4.0008,-5.5615 -5.5411,-13.5 -2.4274,-12.5101 -5.4304,-23.0455 -6.9121,-24.25 -0.8457,-0.6875 -2.5273,-1.25 -3.7369,-1.25 l -2.1993,0 3.2829,13.25 c 1.8056,7.2875 4.4424,18.2 5.8596,24.25 1.9782,8.4446 4.112,14.0251 9.1853,24.0221 7.0272,13.8471 8.5669,19.9779 5.0172,19.9779 -1.4265,0 -3.3219,-2.5903 -7.205,-9.8466 -6.0426,-11.292 -8.5873,-14.838 -15.8831,-22.1338 -7.7259,-7.726 -13.5181,-10.5558 -39.9008,-19.4941 -27.7997,-9.4184 -39.7325,-15.1325 -45.6934,-21.8807 -5.0059,-5.667 -5.8762,-7.7993 -5.902,-14.4599 -0.055,-14.2255 -4.3281,-26.7641 -11.4792,-33.6849 -3.3001,-3.1939 -4.1144,-3.4938 -9.3086,-3.429 -4.5272,0.057 -7.4317,0.9111 -14.1921,4.1759 -13.5799,6.558 -24.4478,8.6424 -51,9.7817 -18.8538,0.809 -21.8671,1.8177 -31.4075,10.5145 -5.081,4.6317 -8.449,6.9569 -10.0769,6.9569 -4.7134,0 -6.2449,7.2549 -1.9451,9.214 1.9954,0.9092 3.2817,0.8853 5.75,-0.1072 6.2973,-2.532 6.6795,-2.5232 6.6795,0.1541 0,2.9806 -1.4224,4.2976 -6.5641,6.0777 l -3.8539,1.3343 2.7186,2.7185 c 4.4744,4.4745 8.572,5.6058 20.4173,5.6371 10.9253,0.029 13.9995,0.5983 39.3515,7.2892 5.2631,1.3891 12.9131,2.8475 17,3.241 10.7077,1.031 22.7057,7.3181 42.5905,22.3178 14.5502,10.9758 21.1501,17.1268 37.8401,35.2662 6.2801,6.8254 21.9038,17.8902 40,28.3281 11.6871,6.7412 15.1262,9.3285 26.2424,19.7425 10.6354,9.9635 13.2886,10.8654 30.7576,10.4543 11.0637,-0.2603 13.6994,-0.6433 17.6959,-2.5714 z m -38.1959,-10.5073 c 0,-2.855 4.9096,-7.3556 8.8271,-8.0919 1.4701,-0.2763 5.5979,-1.2328 9.1729,-2.1256 11.7071,-2.9236 12,-2.9259 12,-0.093 0,1.9911 -0.8247,2.8349 -4.0202,4.1135 -2.2112,0.8847 -5.0237,1.6111 -6.25,1.6142 -3.7854,0.01 -9.3217,1.9068 -13.1557,4.5087 -4.6542,3.1584 -6.5741,3.1802 -6.5741,0.075 z m 7.608,-32.4142 c -0.2916,-0.4718 1.0105,-2.3512 2.8936,-4.1763 2.4525,-2.3771 3.6079,-4.5459 4.0727,-7.645 0.9708,-6.474 -1.9138,-17.6253 -6.5995,-25.5125 -2.1861,-3.6798 -3.9748,-7.7157 -3.9748,-8.9687 0,-2.0959 0.3249,-1.9619 4.0612,1.6748 5.6623,5.5114 9.5727,12.8161 10.9466,20.4486 2.3059,12.8101 -0.8277,20.414 -10.1887,24.7235 -0.3745,0.1724 -0.9195,-0.073 -1.2111,-0.5444 z m -43.108,-10.9346 c -4.4,-2.0643 -9.8,-4.7177 -12,-5.8964 -5.3183,-2.8494 -17.5,-15.5507 -17.5,-18.2465 0,-1.1535 0.3481,-2.0972 0.7735,-2.0972 0.4254,0 4.3092,3.5566 8.6307,7.9037 7.871,7.9173 10.5254,9.5317 27.9348,16.9896 2.8726,1.2306 4.6694,2.5877 4.4216,3.3398 -0.7714,2.3421 -4.2128,1.7827 -12.2606,-1.993 z m -89.8753,-76.7583 c -1.2643,-1.2643 -1.6247,-3.667 -1.6247,-10.8307 0,-10.4731 -1.151,-13.1148 -6.2948,-14.4477 -3.8926,-1.0087 -4.1686,-3.3165 -0.5488,-4.5895 3.6247,-1.2747 8.3587,0.8012 9.8084,4.3011 0.625,1.5088 1.5068,6.4182 1.9596,10.9097 0.4528,4.4914 1.3646,8.8185 2.0262,9.6157 3.2963,3.9719 -1.6826,8.6847 -5.3259,5.0414 z m 170.4015,-7.5332 c 4.6606,-0.5782 13.7925,-2.3782 20.2932,-4 6.5007,-1.6217 12.0769,-2.9486 12.3916,-2.9486 0.3147,0 0.2599,-8.6625 -0.1217,-19.25 -0.6232,-17.2893 -0.4798,-20.3195 1.4072,-29.75 1.763,-8.81093 2.0693,-13.63703 1.904,-30.00003 -0.1359,-13.4536 0.1812,-20.4302 1.0227,-22.5 0.6707,-1.65 1.8552,-5.7389 2.6321,-9.0865 1.2818,-5.5229 1.2304,-7.042 -0.5544,-16.4086 -2.8846,-15.1388 -2.1483,-14.0358 -8.1877,-12.2654 -3.8845,1.1387 -8.6116,1.3981 -19.5047,1.0704 -9.8906,-0.2976 -14.2523,-0.1013 -13.9761,0.6287 0.2209,0.5838 1.1799,6.9114 2.1311,14.0614 1.9619,14.7466 5.947,28.9605 11.7072,41.7572 6.9081,15.3466 7.82,18.9293 7.7969,30.63273 -0.013,6.7592 0.5332,12.3917 1.5057,15.519 2.021,6.4982 1.9515,7.2572 -0.9278,10.1365 -1.7738,1.7737 -3.5452,2.4546 -6.3865,2.4546 -3.9284,0 -3.9325,0 -4.6134,4.75 -0.4056,2.8278 -2.0703,6.8683 -4.1135,9.9846 -1.8877,2.879 -3.4321,5.8558 -3.4321,6.6151 0,3.0504 -4.0672,6.6503 -7.5136,6.6503 -1.8526,0 -3.6465,0.45 -3.9864,1 -0.9366,1.5154 -6.7749,1.1962 -9.201,-0.5031 -1.1802,-0.8267 -2.6496,-3.0293 -3.2652,-4.8946 -0.6229,-1.8873 -1.9708,-3.6141 -3.0393,-3.8935 -1.9336,-0.5057 -5.4052,-6.9157 -6.4408,-11.8922 -0.3091,-1.4854 -1.4551,-2.9679 -2.567,-3.3209 -4.587,-1.4558 -4.8718,-3.9479 -4.29,-37.54893 0.2995,-17.2957 0.5611,-33.2468 0.5814,-35.4468 0.081,-8.782 -3.5624,-27.0098 -7.5957,-38 -1.4582,-3.9735 -12.4115,-27.5625 -13.1337,-28.2846 -1.3343,-1.3343 -5.2022,3.1263 -10.0082,11.5418 -3.0602,5.3585 -7.3307,12.5904 -9.4899,16.0708 -4.7192,7.607 -7.0311,16.7489 -7.7818,30.7712 -0.6445,12.0389 0.4286,17.3733 5.9985,29.8201 4.543,10.1519 5.1821,14.2064 6.7125,42.58073 1.3858,25.6948 1.5367,26.5674 4.8161,27.8665 3.3045,1.309 17.097,3.5778 31.2041,5.1329 5.775,0.6366 11.4,1.2859 12.5,1.4428 4.9924,0.7124 17.8029,0.4647 25.5262,-0.4936 z m -13.2617,-5.1986 c 0.5552,-0.6875 1.3207,-3.275 1.7011,-5.75 0.3805,-2.475 1.5564,-6.8794 2.6131,-9.7875 1.0567,-2.9082 1.9213,-7.2663 1.9213,-9.6847 0,-2.4184 0.7108,-7.689 1.5795,-11.7124 1.1505,-5.3285 1.4057,-9.8278 0.9397,-16.5654 -0.4072,-5.88583 -0.2787,-9.25003 0.3531,-9.25003 1.1534,0 1.5274,1.1869 3.1503,10.00003 1.0007,5.4336 0.9329,7.8715 -0.4128,14.8604 -0.8854,4.5983 -1.6098,10.482 -1.6098,13.0749 0,2.5929 -1.125,8.022 -2.5,12.0647 -2.9696,8.7308 -3.2276,12.2898 -0.8572,11.8233 0.9036,-0.1778 1.9867,-0.9983 2.4071,-1.8233 10.1766,-19.9744 13.3691,-32.5986 12.6845,-50.1582 -0.2432,-6.23803 -0.8011,-12.41463 -1.2399,-13.72573 -0.6069,-1.8135 -0.4685,-2.2741 0.5785,-1.9251 0.7569,0.2523 2.2073,3.575 3.223,7.3838 1.481,5.55343 1.7552,9.33893 1.3839,19.10983 -0.4896,12.8853 0.2819,15.2251 3.7546,11.3878 1.3444,-1.4856 1.422,-2.2878 0.4532,-4.6826 -0.6431,-1.5894 -1.4716,-8.9648 -1.8412,-16.3898 -0.6271,-12.59593 -0.9114,-14.03583 -4.2465,-21.50003 -6.078,-13.6035 -12.5613,-32.6425 -13.7913,-40.5 -1.3409,-8.5662 -3.2073,-18.3691 -5.4262,-28.5 -0.8432,-3.85 -2.0447,-13.7682 -2.67,-22.0403 -0.9637,-12.7495 -0.8913,-16.9446 0.4753,-27.5426 2.4558,-19.04463 2.1659,-26.47175 -1.5489,-39.67352 -3.0342,-10.78318 -3.2445,-11.18654 -5.0031,-9.59501 -3.7306,3.37613 -2.0631,-4.29691 3.2823,-15.10404 l 5.1181,-10.3475 -0.322,-16.34853 c -0.1771,-8.99169 -0.1982,-20.28421 -0.047,-25.09448 0.3289,-10.45606 0.1369,-10.47366 -8.3673,-0.76651 -3.3,3.76679 -6.5625,6.88556 -7.25,6.93059 -0.7686,0.0503 -1.25,-1.21416 -1.25,-3.28327 0,-3.59846 2.4992,-7.47335 7.4996,-11.62749 8.3985,-6.97727 13.7385,-12.79477 16.0144,-17.4465 5.6609,-11.57052 4.0169,-26.7547 -4.6876,-43.29388 -2.736,-5.19871 -4.6723,-9.74803 -4.303,-10.1096 1.5772,-1.54376 13.8215,15.82954 15.6369,22.18684 0.6527,2.28567 1.2211,9.78077 1.2632,16.65577 0.076,12.39057 0.047,12.55015 -3.2348,18.22874 l -3.3112,5.72874 3.1347,6.56823 c 3.498,7.32925 7.4098,10.79061 17.7378,15.69493 7.5718,3.59554 8.2205,5.77936 1.7167,5.77936 -6.0639,0 -12.8466,-3.5605 -18.6964,-9.81442 -4.4078,-4.71228 -4.7376,-4.88378 -5.4802,-2.8498 -0.4346,1.19032 -0.6721,11.4699 -0.5279,22.84351 l 0.2622,20.67929 -3.9735,7.54477 -3.9736,7.54477 2.0109,9.27594 c 1.1061,5.10177 2.6636,11.49512 3.4614,14.20744 1.8107,6.15667 1.7964,14.07593 -0.05,27.56853 -0.7902,5.775 -1.4509,15.9637 -1.4684,22.6416 -0.031,11.7831 0.035,12.1568 2.2184,12.6596 3.53,0.8127 37.1205,0.7552 38.3656,-0.066 2.538,-1.6733 5.3849,-9.2817 5.4052,-14.4457 0.012,-2.9094 0.7175,-8.2149 1.5689,-11.7899 1.3253,-5.5647 3.7184,-37.87755 2.8757,-38.82985 -0.1605,-0.18145 -1.4411,0.42311 -2.8458,1.34345 -1.872,1.22663 -3.6142,1.49421 -6.5259,1.00229 -3.4649,-0.5854 -4.2581,-0.342 -6.2132,1.90655 -1.2327,1.41768 -2.6101,2.57761 -3.0609,2.57761 -1.8293,0 -0.6356,-3.3379 2.2122,-6.18569 2.7275,-2.72745 3.4611,-2.96748 7.3072,-2.39071 4.1841,0.62744 4.345,0.5443 7.5319,-3.89342 5.2711,-7.33984 9.2803,-17.11153 8.9319,-21.77002 -0.2851,-3.81326 -0.5493,-4.12296 -4.5094,-5.28703 -3.9012,-1.14671 -4.312,-1.08171 -5.6573,0.89519 -1.3329,1.9585 -1.508,1.98847 -2.1553,0.36895 -1.4299,-3.57734 5.2261,-7.03484 9.3224,-4.84259 2.4727,1.32334 4.0627,0.0424 7.5381,-6.07275 3.0267,-5.32572 3.4565,-11.76121 1.496,-22.40127 l -1.1626,-6.30994 -2.4722,1.94464 c -5.8075,4.56815 -6.8992,1.04856 -1.8367,-5.92138 6.7327,-9.26959 7.056,-16.098 1.5425,-32.58202 -4.0109,-11.99165 -8.3838,-19.59325 -17.761,-30.87474 -7.8136,-9.40034 -9.1909,-11.78911 -11.0846,-19.22485 -0.567,-2.22619 -2.3822,-5.34232 -4.0339,-6.92473 -2.9248,-2.80218 -3.1355,-2.84651 -8.0922,-1.70237 -7.121,1.64373 -8.4441,1.50265 -11.6309,-1.2402 -3.3909,-2.91854 -2.5033,-4.32376 1.6455,-2.60525 1.7414,0.72131 4.4626,0.97753 6.4406,0.60645 l 3.4252,-0.64256 -1.526,-3.88463 c -1.4784,-3.76383 -1.4449,-3.99075 1.0775,-7.29779 1.4318,-1.87725 3.674,-6.69727 4.9825,-10.71115 l 2.3792,-7.29798 -2.6151,-1.44424 c -1.4383,-0.79434 -6.4229,-3.55108 -11.0768,-6.12609 -10.7213,-5.93208 -14.212,-10.43416 -14.8419,-19.14241 -0.2375,-3.28402 -0.1273,-7.59438 0.2449,-9.57859 0.5623,-2.99686 0.9208,-3.40519 2.1177,-2.41179 0.9581,0.79507 1.441,3.18242 1.441,7.12308 0,9.8821 3.2941,13.83146 16.4933,19.7744 3.8464,1.7318 10.3714,5.1169 14.5,7.52243 9.961,5.80365 17.8123,8.08036 22.5142,6.52859 5.7931,-1.9119 6.4925,-3.85196 6.4925,-18.01019 0,-6.91221 0.7266,-17.72458 1.6147,-24.02749 4.9921,-35.43058 -5.5465,-58.42778 -31.1147,-67.89819 -11.1904,-4.14489 -32.4008,-3.70624 -41.3328,0.85481 -4.553,2.32496 -13.9405,12.08024 -17.4017,18.08354 -6.3346,10.98673 -7.4192,23.66199 -3.1745,37.09872 3.0819,9.75592 2.9033,11.84466 -2.513,29.39789 -2.5804,8.36276 -5.1347,14.29651 -8.2095,19.07161 -2.8197,4.37892 -6.2559,12.08774 -9.3303,20.93178 -6.4999,18.6979 -6.0824,17.2318 -4.4854,15.75 2.1018,-1.95019 2.9472,-1.49299 2.9472,1.59389 0,1.82233 -2.4935,6.69531 -6.9414,13.56566 -8.9571,13.83509 -10.5913,18.54408 -10.4429,30.09045 0.099,7.68854 0.5897,10.16574 3.3681,17 3.9713,9.76856 4.8678,14.5 2.7476,14.5 -0.8181,0 -2.1657,-1.0125 -2.9947,-2.25 -1.4585,-2.17743 -1.5787,-2.01538 -3.7266,5.02378 -1.9045,6.24207 -2.1581,8.93705 -1.7877,19 0.3689,10.01888 0.9142,13.10942 3.7458,21.22622 2.7387,7.85062 3.3484,11.14938 3.5119,19 0.214,10.27763 0.941,12.8448 5.5239,19.50584 3.1609,4.59413 3.9133,8.49416 1.6389,8.49416 -3.119,0 -2.2017,31.51113 1.3881,47.68463 0.5879,2.6485 4.171,10.4554 7.9625,17.3489 11.1993,20.3617 15.5581,33.2856 18.0202,53.4298 1.2172,9.9587 2.1352,11.7884 5.4916,10.946 3.4776,-0.8728 3.6995,0.8855 0.5894,4.6695 -1.5466,1.8817 -3.2087,4.5462 -3.6936,5.9212 -0.4849,1.375 -1.0012,12.85 -1.1472,25.5 -0.1461,12.65003 -0.3755,26.07433 -0.5097,29.83173 -0.2056,5.7531 0.059,7.053 1.6738,8.2331 3.1639,2.3116 4.3347,0.1107 4.9769,-9.356 0.9763,-14.3909 1.7429,-20.2088 2.6625,-20.2088 1.8081,0 3.1166,4.3246 2.5296,8.3608 -0.331,2.2765 -1.0505,8.4142 -1.5989,13.6392 -0.5483,5.225 -1.2541,11.525 -1.5684,14 -0.7112,5.6005 0.8271,10 3.4965,10 2.3187,0 3.0357,-0.9887 4.2559,-5.868 1.1175,-4.4683 3.1465,-33.1682 2.9963,-42.38203 -0.061,-3.7125 0.2144,-6.7462 0.6108,-6.7415 0.3964,0.01 1.508,2.5922 2.4702,5.75 1.6069,5.27403 1.6289,6.41403 0.2705,14.00173 -0.8134,4.5432 -1.2198,10.1682 -0.9031,12.5 0.6984,5.1434 -2.2029,21.0059 -4.7578,26.0128 -1.3486,2.643 0.9553,6.2312 4.2686,6.648 0.3451,0.043 1.0817,-0.4835 1.6369,-1.171 z m 18.4345,-176.50003 c -1.3716,-3.0274 -1.699,-6.8331 -1.699,-19.75 l 0,-16.00003 -3.25,-5.26502 c -3.2698,-5.29703 -4.2852,-9.7467 -2.0545,-9.00315 0.6575,0.21917 1.5343,1.66548 1.9484,3.21403 0.4142,1.54854 1.629,3.76922 2.6996,4.93484 5.7616,6.27297 7.3139,12.21981 5.1231,19.62593 -1.7576,5.9414 -1.3101,15.4284 0.9709,20.585 2.5134,5.682 2.5128,5.4084 0.012,5.4084 -1.4014,0 -2.5892,-1.1878 -3.75,-3.75 z m 13.001,-14.45 c -2.2967,-2.2967 -0.6124,-17.2943 2.6146,-23.27986 1.5436,-2.86331 1.6463,-2.90276 1.9777,-0.75951 0.1923,1.24337 -0.3384,5.58739 -1.1793,9.6534 -1.0699,5.17347 -1.25,8.36507 -0.5999,10.63167 1.2964,4.5203 -0.1357,6.4316 -2.8131,3.7543 z m 5.8,-0.7743 c 0,-2.1633 4.5554,-5.0257 7.9981,-5.0257 1.1536,0 3.14,-1.125 4.4143,-2.5 2.8794,-3.1069 3.5876,-3.1375 3.5876,-0.155 0,3.0598 -2.9467,5.655 -6.421,5.655 -1.5199,0 -3.9077,0.9 -5.3061,2 -3.2023,2.5189 -4.2729,2.5253 -4.2729,0.026 z m -66.0309,-13.36806 c -1.2805,-2.7242 -3.6282,-5.48983 -5.983,-7.04818 -5.0635,-3.35088 -9.2409,-10.41687 -8.7564,-14.81156 l 0.3635,-3.29793 2.0969,4.37009 c 1.181,2.46113 5.4559,7.51814 9.7866,11.57678 6.578,6.16491 7.6414,7.61812 7.3564,10.05276 -0.5183,4.4286 -2.552,4.0765 -4.864,-0.84196 z m 60.1914,-23.40767 c -0.5004,-0.9625 -1.2006,-4.225 -1.556,-7.25 -0.4991,-4.24831 -0.2432,-6.28298 1.1247,-8.94045 2.33,-4.52695 4.8688,-5.49392 3.7808,-1.44006 -1.0639,3.96383 -1.1189,11.13219 -0.1201,15.63051 0.6882,3.09935 0.5592,3.75 -0.7434,3.75 -0.8669,0 -1.9856,-0.7875 -2.486,-1.75 z m -75.0914,-13.4011 c 0.089,-2.3919 -0.1734,-7.31854 -0.5838,-10.94811 -0.6958,-6.15262 -0.5514,-6.93086 2.1342,-11.5 2.5967,-4.41798 2.8638,-5.70531 2.7105,-13.06712 -0.188,-9.02613 -0.8271,-10.70282 -6.6685,-17.4931 -3.816,-4.43585 -4.1171,-4.58814 -6.2758,-3.17369 -1.2472,0.81716 -2.4067,2.68891 -2.5766,4.15943 -0.4022,3.47874 -4.8091,4.55777 -4.8091,1.1775 0,-1.17441 0.4633,-3.00105 1.0296,-4.0592 1.2262,-2.29114 6.623,-5.27733 7.9998,-4.42646 0.5338,0.32994 0.9706,-0.10167 0.9706,-0.95913 0,-2.68353 2.6985,-1.70113 4.0074,1.45893 0.6876,1.65987 2.9365,4.35362 4.9977,5.98611 3.457,2.73798 3.8348,3.55406 4.8713,10.5229 1.6485,11.0841 1.3979,14.36716 -1.5631,20.47304 -2.1326,4.39769 -2.782,7.48828 -3.2402,15.4206 -0.3942,6.82333 -0.9779,10.05432 -1.8698,10.3489 -0.9444,0.31192 -1.2525,-0.75336 -1.1342,-3.9206 z m 60.9309,-2.21271 c 0,-2.92917 2.6597,-5.0444 12,-9.5435 7.8891,-3.80005 9,-5.16553 9,-11.06203 0,-5.52994 5.3019,-17.19533 9.6257,-21.1787 3.8803,-3.57489 9.4686,-6.84366 11.7076,-6.84822 2.6569,-0.005 1.839,1.1552 -4.3333,6.14926 -6.3974,5.17617 -13,16.61151 -13,22.51531 0,4.30488 -2.3004,9.28057 -5.2831,11.4272 -1.2193,0.87753 -4.5741,2.37444 -7.4551,3.32646 -2.8811,0.95202 -5.4822,2.12559 -5.7803,2.60793 -0.2981,0.48234 -1.8784,1.82857 -3.5117,2.99163 l -2.9698,2.11466 0,-2.5 z m -30.8482,-4.70361 c -3.3571,-3.6035 -7.9356,-25.93258 -5.3174,-25.93258 1.1972,0 1.6917,1.46659 3.0344,9 1.2368,6.9396 2.3082,9.6338 5.5449,13.94428 1.4225,1.89435 2.5863,3.80685 2.5863,4.25 0,1.61028 -3.9706,0.75365 -5.8482,-1.2617 z m -15.1518,-135.10384 c 0,-0.64419 0.7123,-1.95838 1.583,-2.92041 1.4562,-1.60909 1.4051,-1.84431 -0.6372,-2.93733 -1.221,-0.65349 -3.7251,-0.94394 -5.5646,-0.64543 -3.6133,0.58636 -4.7392,-0.22893 -3.7775,-2.73533 0.8378,-2.18319 6.828,-2.03151 11.9681,0.30304 3.4208,1.55368 4.46,1.64905 6.5,0.59647 4.1009,-2.11596 8.874,-2.77966 10.4692,-1.45576 2.3413,1.94314 1.7019,2.96601 -1.8541,2.96601 -2.0933,0 -5.755,1.47271 -9.9453,4 -6.9491,4.19124 -8.7416,4.77127 -8.7416,2.82874 z m 23.5456,-29.57874 c -3.696,-4.2625 -7.5281,-9.325 -8.5159,-11.25 -2.035,-3.96592 -5.317,-18.72615 -4.4689,-20.09837 2.0054,-3.24488 5.4156,2.06129 5.4612,8.49759 0.031,4.39935 3.378,11.22622 7.9187,16.15223 4.1812,4.53612 9.0593,11.76692 9.0593,13.42868 0,2.69892 -3.3405,0.32097 -9.4544,-6.73013 z m 48.7432,267.10703 c 4.3731,-0.6301 6.207,-2.914 7.1738,-8.934 l 0.6547,-4.077 -21.8086,0.4464 c -11.9948,0.2455 -21.9659,0.5873 -22.158,0.7596 -0.688,0.617 1.0179,8.2964 2.2032,9.9172 2.1604,2.9546 19.7432,3.9327 33.9349,1.8878 z m 85.9236,-123.50826 c 1.5289,-1.0887 3.9268,-3.93658 5.3287,-6.32862 1.4018,-2.39203 5.0876,-6.43927 8.1906,-8.99386 9.1633,-7.5437 21.8088,-23.02471 28.9187,-35.40307 3.594,-6.25723 10.6827,-19.98223 15.7528,-30.5 5.07,-10.51777 10.6078,-20.70565 12.3061,-22.63973 6.2747,-7.14571 6.6635,-17.51849 1.27,-33.885 -3.2978,-10.00706 -3.7346,-16.35503 -1.4944,-21.7167 2.3591,-5.64589 -0.5646,-16.38179 -4.4611,-16.38179 -3.4461,0 -3.5372,0.37565 -4.4896,18.51647 -0.5787,11.02027 -2.3265,18.58097 -4.46,19.29212 -1.1273,0.37577 -1.2403,-0.62317 -0.6134,-5.42399 0.4227,-3.23653 0.895,-8.81243 1.0497,-12.39089 0.1546,-3.57846 0.7537,-8.30346 1.3313,-10.5 0.5775,-2.19654 1.3603,-6.83065 1.7395,-10.29803 0.541,-4.94796 1.5433,-7.62556 4.6585,-12.44545 4.0158,-6.21323 5.2282,-11.68226 3.0684,-13.84201 -0.7843,-0.78435 -1.9879,0.21928 -4.3096,3.59381 -1.7717,2.57514 -4.4405,6.10315 -5.9305,7.84002 -2.9063,3.38768 -6.6328,13.43312 -8.5909,23.15795 -0.6644,3.3 -1.8022,8.10092 -2.5283,10.66871 -1.1293,3.99366 -1.0848,5.94564 0.308,13.5 2.4679,13.38592 3.0613,22.43598 1.7824,27.18542 -0.7791,2.89318 -4.1651,7.83277 -10.9132,15.92027 -13.4891,16.16656 -21.1708,23.05843 -32.1579,28.85147 -11.2853,5.95024 -21.4683,14.91324 -22.9324,20.18507 -0.5636,2.02898 -1.0272,5.82656 -1.0302,8.43906 0,4.36338 -0.2036,4.75 -2.4382,4.75 -2.7493,0 -2.9834,-0.52832 -4.6519,-10.5 -1.6425,-9.81644 -4.3323,-16.48777 -9.4516,-23.44181 -4.3143,-5.86052 -16.6395,-16.54626 -22.6994,-19.67996 l -3.0454,-1.57484 2.6551,4.75038 c 2.8563,5.11062 2.8358,5.96505 -0.1208,5.02665 -2.3472,-0.74495 -5.1556,-5.79439 -8.6657,-15.58042 -4.3284,-12.06741 -11.8332,-20.59955 -19.831,-22.54586 l -2.7433,-0.66759 1.395,3.95397 c 2.4667,6.9913 5.2334,11.57445 12.237,20.27124 7.2214,8.96724 11.8564,16.86978 15.2427,25.98824 2.7873,7.50545 5.0793,17.657 5.0971,22.57569 0.016,4.41085 1.2442,5.96927 8.4969,10.78192 3.0588,2.02967 5.2207,2.64239 9.3234,2.64239 4.5466,0 5.2918,0.26033 5.0092,1.75 -0.6357,3.35149 -7.843,2.81289 -15.9763,-1.19389 -3.9701,-1.95586 -7.3579,-3.55611 -7.5284,-3.55611 -0.7536,0 -0.2045,9.84192 0.8765,15.70883 1.367,7.419 3.0743,9.23967 11.1201,11.85834 2.8564,0.92968 9.9184,4.0992 15.6934,7.04338 17.6057,8.97562 21.8555,9.7647 28.2124,5.23822 z m -19.6996,-3.8281 c -0.7345,-1.18847 0.77,-4.18054 3.0562,-6.0779 0.9229,-0.76601 4.21,-1.69281 7.3046,-2.05956 3.0945,-0.36675 6.6389,-0.99299 7.8764,-1.39164 1.6904,-0.54456 2.25,-0.3315 2.25,0.85661 0,2.20142 -3.1374,3.65182 -7.8995,3.65182 -3.0528,0 -4.86,0.72792 -7.4477,3 -3.7353,3.27962 -4.2395,3.47782 -5.14,2.02067 z m 12.4872,-32.92565 c 0,-0.49774 2.1375,-2.14636 4.75,-3.66361 11.676,-6.78102 17.9031,-12.74582 23.6788,-22.68141 2.621,-4.50874 5.5712,-6.31281 5.5712,-3.40683 0,4.16322 -15.8783,22.33954 -24.4821,28.02527 -3.8533,2.54643 -9.5179,3.574 -9.5179,1.72658 z m 74.9859,-170.9744 c 2.7516,-0.57776 2.8714,-0.78782 1.7349,-3.04165 -0.6714,-1.33157 -1.7569,-2.59777 -2.4121,-2.81378 -1.186,-0.39098 -3.4636,3.22748 -5.3363,8.47802 l -0.9833,2.75679 2.0205,-2.37938 c 1.1113,-1.30866 3.3506,-2.65866 4.9763,-3 z"
       id="path3591"
       inkscape:connector-curvature="0" />
  </g>
</svg>
