<?xml version="1.0" encoding="UTF-8" standalone="no"?>
<!-- Created with Inkscape (http://www.inkscape.org/) -->

<svg
   xmlns:dc="http://purl.org/dc/elements/1.1/"
   xmlns:cc="http://creativecommons.org/ns#"
   xmlns:rdf="http://www.w3.org/1999/02/22-rdf-syntax-ns#"
   xmlns:svg="http://www.w3.org/2000/svg"
   xmlns="http://www.w3.org/2000/svg"
   xmlns:xlink="http://www.w3.org/1999/xlink"
   xmlns:sodipodi="http://sodipodi.sourceforge.net/DTD/sodipodi-0.dtd"
   xmlns:inkscape="http://www.inkscape.org/namespaces/inkscape"
   width="203.92014"
   height="128.88635"
   id="svg2"
   version="1.1"
   inkscape:version="0.48.3.1 r9886"
   sodipodi:docname="Low-triceps-extension-1.svg"
   inkscape:export-filename="/home/christian/Dokumente/Code/workspace/opentraining-exercises/Back-extension-on-stability-ball-2.png"
   inkscape:export-xdpi="214"
   inkscape:export-ydpi="214">
  <defs
     id="defs4">
    <radialGradient
       gradientUnits="userSpaceOnUse"
       gradientTransform="matrix(1,0,0,0.91819829,-19.285714,-7.9105395)"
       r="209.56604"
       fy="287.50052"
       fx="398.1105"
       cy="287.50052"
       cx="398.1105"
       id="radialGradient5255"
       xlink:href="#linearGradient5249"
       inkscape:collect="always" />
    <linearGradient
       id="linearGradient5249"
       inkscape:collect="always">
      <stop
         id="stop5251"
         offset="0"
         style="stop-color:#e3e3e3;stop-opacity:1;" />
      <stop
         id="stop5253"
         offset="1"
         style="stop-color:#e3e3e3;stop-opacity:0;" />
    </linearGradient>
  </defs>
  <sodipodi:namedview
     id="base"
     pagecolor="#ffffff"
     bordercolor="#666666"
     borderopacity="1.0"
     inkscape:pageopacity="0.0"
     inkscape:pageshadow="2"
     inkscape:zoom="2.8"
     inkscape:cx="149.76591"
     inkscape:cy="28.854274"
     inkscape:document-units="px"
     inkscape:current-layer="layer1"
     showgrid="false"
     showguides="true"
     inkscape:guide-bbox="true"
     fit-margin-top="0"
     fit-margin-left="0"
     fit-margin-right="0"
     fit-margin-bottom="0"
     inkscape:window-width="1615"
     inkscape:window-height="1026"
     inkscape:window-x="65"
     inkscape:window-y="24"
     inkscape:window-maximized="1">
    <sodipodi:guide
       orientation="-0.70710678,0.70710678"
       position="-1746.5899,502.78734"
       id="guide2985" />
  </sodipodi:namedview>
  <metadata
     id="metadata7">
    <rdf:RDF>
      <cc:Work
         rdf:about="">
        <dc:format>image/svg+xml</dc:format>
        <dc:type
           rdf:resource="http://purl.org/dc/dcmitype/StillImage" />
        <dc:title></dc:title>
      </cc:Work>
    </rdf:RDF>
  </metadata>
  <g
     inkscape:label="Ebene 1"
     inkscape:groupmode="layer"
     id="layer1"
     transform="translate(-318.01844,-400.54887)">
    <path
       style="fill:#000000"
       d="m 368.02184,527.37273 c -2.96487,-1.65327 -4.74201,-3.42486 -5.21693,-5.20066 -0.39616,-1.48129 -0.51329,-2.90025 -0.2603,-3.15325 0.253,-0.25299 0.74567,0.9684 1.09483,2.71421 0.34916,1.7458 1.13978,3.08735 1.75694,2.98122 0.61716,-0.10613 2.7996,0.64094 4.84987,1.66014 3.20516,1.59331 4.2566,1.68447 7.5,0.6502 24.99639,-7.97092 68.18308,-19.95474 81.77224,-22.69088 4.4,-0.88593 8.4275,-2.02582 8.95,-2.5331 1.20557,-1.17046 2.55,-1.18958 2.55,-0.0363 0,1.64811 -6.43917,3.94373 -22.5,8.02145 -25.37839,6.44338 -40.98089,10.7084 -55.5,15.17119 -17.44686,5.3627 -19.37721,5.54926 -24.99665,2.41575 z m -29.30598,-3.12893 c -0.10856,-0.10773 -2.15573,-0.48762 -4.54928,-0.84419 -2.39356,-0.35658 -5.31856,-1.02201 -6.5,-1.47873 -2.54423,-0.98354 -6.36407,-4.92418 -6.82321,-7.03898 -0.17869,-0.82301 -0.98964,-2.01675 -1.80212,-2.65275 -2.48483,-1.94509 -0.18013,-6.332 4.09217,-7.78927 1.98821,-0.67818 4.91321,-2.14927 6.5,-3.26908 1.58679,-1.11981 5.26607,-3.23569 8.17618,-4.70195 5.26874,-2.65465 5.32278,-2.73028 12.77508,-17.87825 10.29672,-20.92969 12.64913,-24.8849 16.01726,-26.93047 3.73547,-2.26868 5.16593,-2.23358 9.43215,0.23141 1.91642,1.10729 4.66262,2.48065 6.10267,3.0519 2.53669,1.00629 11.80867,10.85227 15.00586,15.93484 0.86494,1.375 2.0996,4.10828 2.7437,6.07395 1.03516,3.15917 1.50048,3.52561 4.00937,3.15738 1.56106,-0.22911 5.13293,-2.15331 7.93748,-4.276 10.70783,-8.10445 14.04463,-8.52298 18.01195,-2.25921 2.90049,4.57942 2.32089,9.32198 -1.44046,11.78651 -3.23068,2.11682 -4.18436,1.3389 -1.46474,-1.1948 2.37526,-2.2129 3.97232,-8.28783 2.17882,-8.28783 -0.63236,0 -1.57748,-1.125 -2.10025,-2.5 -0.52277,-1.375 -1.65109,-2.5 -2.50737,-2.5 -3.11463,0 -8.13205,2.79984 -12.155,6.78279 -2.85072,2.82237 -5.14598,4.17269 -7.47149,4.39554 l -3.35669,0.32167 4.99528,3.19094 c 2.7474,1.75501 6.94281,3.62755 9.32313,4.16119 5.56748,1.24817 6.79287,2.51319 1.90508,1.96668 -2.07189,-0.23165 -3.63515,-0.17316 -3.47392,0.13 0.16124,0.30315 1.15226,2.23869 2.20228,4.30119 1.05002,2.0625 2.36179,3.75 2.91504,3.75 0.55326,0 0.13241,0.71174 -0.93521,1.58164 -1.9127,1.55846 -1.91184,1.56985 0.0589,0.77728 1.1,-0.44239 7.85,-0.83673 15,-0.87631 9.94984,-0.0551 13.90851,-0.47209 16.87212,-1.77729 2.12967,-0.93793 5.32243,-1.70532 7.09502,-1.70532 4.74182,0 6.82443,-2.88284 7.35204,-10.17701 0.27944,-3.86309 0.0796,-5.87847 -0.54462,-5.49268 -0.54231,0.33517 -0.15093,-1.92189 0.86971,-5.01569 1.02062,-3.09379 1.8557,-7.13022 1.8557,-8.96985 0,-1.83962 0.49878,-3.34477 1.10841,-3.34477 0.68296,0 0.86756,0.9596 0.48095,2.5 -0.49945,1.98995 -0.2511,2.5 1.21727,2.5 1.01461,0 2.90808,1.13187 4.20771,2.51527 2.03888,2.17028 2.37139,3.55241 2.42432,10.0771 0.0595,7.33908 -0.0369,7.64973 -3.27227,10.54535 -2.02468,1.81204 -4.20218,2.86968 -5.54572,2.69362 -1.23372,-0.16168 -3.27043,0.69609 -4.60495,1.93939 -1.31606,1.2261 -3.32049,2.23271 -4.45428,2.23691 -1.13379,0.004 -4.98644,0.90076 -8.56144,1.99236 -7.08833,2.16436 -14.59318,2.55066 -19.91294,1.02497 -3.61342,-1.03632 -12.08706,0.4315 -12.08706,2.09374 0,0.48471 -0.9,0.88129 -2,0.88129 -1.1,0 -2,0.59037 -2,1.31194 0,3.03998 -6.12353,5.96603 -13.40511,6.40547 -5.16857,0.31191 -6.68763,0.14105 -5.59489,-0.62931 0.825,-0.58161 3.23199,-1.06437 5.34887,-1.07279 5.49254,-0.0219 9.81498,-2.41497 12.86895,-7.12488 2.28334,-3.52144 2.49287,-4.45352 1.51478,-6.73857 -1.89556,-4.42851 -4.47377,-7.71706 -8.39494,-10.70788 -3.0617,-2.33528 -3.46107,-2.45826 -2.21754,-0.68288 0.83417,1.19095 2.69467,3.09197 4.13444,4.2245 2.69601,2.12067 3.3427,6.0144 0.99891,6.0144 -0.72651,0 -2.28328,-1.63107 -3.45949,-3.62461 -2.01522,-3.41554 -2.21733,-3.51648 -3.50387,-1.75 -3.92941,5.39527 -8.4376,9.13686 -11.63382,9.65553 -4.1798,0.67829 -10.65503,-0.66085 -11.7482,-2.42964 -1.08792,-1.76028 -0.15482,-2.49801 1.30858,-1.03461 1.58163,1.58163 3.3063,1.5244 2.00905,-0.0667 -0.97397,-1.19457 -2.39147,-5.78933 -3.77916,-12.25 l -0.64437,-3 -1.9309,4.86841 c -1.94186,4.89604 -1.74982,8.61847 0.4461,8.6469 0.83861,0.0109 0.81255,0.25018 -0.0896,0.82273 -1.91129,1.21303 2.07082,9.48095 6.59087,13.68439 2.35738,2.19226 3.12683,3.43319 2.13952,3.45051 -1.81635,0.0319 -9.95821,-7.98112 -9.95821,-9.8006 0,-0.68859 -0.92617,-3.06744 -2.05816,-5.28632 -2.32059,-4.54873 -2.9379,-4.38518 -7.32105,1.9397 -1.91475,2.76299 -2.89037,5.91333 -3.62454,11.70385 -1.40391,11.07293 -2.44629,11.96159 -14.07706,12.00116 -4.96345,0.0169 -9.11327,-0.0574 -9.22182,-0.16518 z m 19.147,-5.72097 c 0.51143,-1.7295 1.45512,-5.69711 2.09709,-8.81691 0.91336,-4.43867 2.53578,-7.48357 7.45964,-14 6.18033,-8.17931 10.5989,-16.79058 10.5989,-20.65603 0,-1.0767 0.7118,-2.23078 1.58179,-2.56462 2.20896,-0.84766 2.63172,-0.76148 1.91929,0.39126 -0.33932,0.54903 0.0841,1.99916 0.94099,3.2225 1.77818,2.53872 2.08751,5.22459 0.48785,4.23594 -0.58854,-0.36374 -1.44347,-1.6278 -1.89984,-2.80902 -0.76548,-1.98129 -0.88644,-2.00717 -1.5613,-0.33411 -0.40627,1.00719 -0.006,4.05953 0.89984,6.86484 0.89726,2.7782 1.63138,6.09007 1.63138,7.35971 0,3.2232 4.65072,8.46189 7.51217,8.46189 2.71364,0 8.00937,-4.1649 10.49704,-8.25554 1.67209,-2.74954 1.63914,-3.09621 -1.02598,-10.79289 -3.09933,-8.95068 -4.42481,-11.23577 -10.84791,-18.70157 -4.90472,-5.70092 -7.36418,-6.4566 -11.72162,-3.6015 -1.38376,0.90667 -3.23523,3.04417 -4.11437,4.75 -0.87915,1.70582 -3.61421,6.1654 -6.07791,9.91017 -2.4637,3.74477 -6.46714,11.38784 -8.89652,16.9846 -4.91985,11.33425 -7.04877,14.13046 -12.00321,15.76558 -1.86132,0.61429 -5.40541,2.24656 -7.87576,3.62726 -2.47034,1.3807 -5.2143,2.23302 -6.09768,1.89403 -2.04664,-0.78537 -8.34825,1.45331 -8.34825,2.96576 0,1.66571 3.06471,4.17477 7.0366,5.76084 1.90487,0.76066 7.7384,1.49262 12.9634,1.62658 5.225,0.13396 9.63856,0.37982 9.8079,0.54636 1.15803,1.13881 4.26531,-1.2273 5.03647,-3.83513 z m -4.04504,-4.67223 c 1.19705,-1.11522 2.45569,-3.14022 2.79697,-4.5 0.34128,-1.35977 1.05206,-2.47232 1.5795,-2.47232 0.52743,0 0.65679,1.0125 0.28746,2.25 -1.12144,3.75755 -3.4156,6.75 -5.17487,6.75 -1.38603,0 -1.30028,-0.34026 0.51094,-2.02768 z m 7.20067,-21.52333 c 0,-1.58214 6.40099,-12.4955 8.29536,-14.14316 l 2.07622,-1.80583 -2.09133,3.5 c -1.15023,1.925 -3.08044,5.41475 -4.28936,7.75499 -2.0449,3.95857 -3.99089,6.2474 -3.99089,4.694 z m 8.06724,-4.94899 c 0.006,-1.766 2.85875,-6.13817 2.89732,-4.44113 0.0195,0.85738 -0.62525,2.43238 -1.43276,3.5 -0.80751,1.06762 -1.46656,1.49113 -1.46456,0.94113 z m 1.93276,-14.44098 c 0,-0.51754 0.45,-1.2191 1,-1.55902 0.55,-0.33992 1,0.0835 1,0.94098 0,0.85746 -0.45,1.55902 -1,1.55902 -0.55,0 -1,-0.42344 -1,-0.94098 z m 5.89166,-8.11729 c 1.31542,-1.09546 2.66471,-1.71869 2.99843,-1.38497 0.71019,0.71019 -2.78084,3.45868 -4.33122,3.40997 -0.58238,-0.0183 0.0174,-0.92955 1.33279,-2.025 z m -34.57968,40.26125 c 6.47301,-3.25338 9.53106,-7.01087 13.34521,-16.39755 1.32875,-3.27009 4.634,-9.40157 7.34499,-13.62552 2.71098,-4.22395 5.8051,-9.56046 6.87581,-11.85891 1.16332,-2.49726 3.18928,-4.82155 5.03437,-5.77568 1.6982,-0.87818 3.08764,-1.83309 3.08764,-2.12203 0,-0.28894 -1.55348,-1.17443 -3.45217,-1.96775 -4.43914,-1.85479 -8.01909,-0.59113 -10.33915,3.64956 -0.93978,1.71775 -2.61284,4.53431 -3.71792,6.25904 -1.10509,1.72472 -4.42091,8.31086 -7.36849,14.63586 -7.02257,15.06921 -9.57093,18.70437 -15.07411,21.50279 -2.50149,1.27204 -7.10344,3.65604 -10.22655,5.2978 -3.12311,1.64175 -6.24157,3.17273 -6.92991,3.40218 -0.68834,0.22944 -0.98425,1.11366 -0.65759,1.96494 0.53151,1.38507 1.41761,1.35901 8.42991,-0.24791 4.30979,-0.98762 10.45137,-3.11019 13.64796,-4.71682 z m 11.73784,-19.92447 c -0.0765,-1.87439 5.12549,-12.9151 5.54957,-11.77851 0.20521,0.55 -0.94828,3.7 -2.56331,7 -1.61504,3.3 -2.95885,5.45033 -2.98626,4.77851 z m 54.90434,7.63584 c -0.61391,-1.1471 -1.31533,-1.88651 -1.55872,-1.64312 -0.6999,0.69989 0.71897,3.72877 1.74673,3.72877 0.51083,0 0.42629,-0.93781 -0.18801,-2.08565 z m 63.59129,-1.3689 c 2.07151,-2.0715 2.45455,-3.40995 2.45455,-8.57692 0,-5.55795 -0.29471,-6.41491 -3.1967,-9.29545 l -3.1967,-3.17308 -0.85042,3.5 c -0.46774,1.925 -0.94172,7.21252 -1.0533,11.75005 -0.18063,7.34542 -0.006,8.25004 1.59257,8.25 0.9875,-3e-5 2.9,-1.1046 4.25,-2.4546 z m -45.54545,7.37346 c 0,-0.46124 1.9125,-1.38028 4.25,-2.04231 2.3375,-0.66202 4.78008,-1.69259 5.42795,-2.29014 1.67754,-1.54725 0.45667,-6.40896 -1.78834,-7.1215 -1.03929,-0.32985 -1.88961,-1.00827 -1.88961,-1.5076 0,-0.5263 1.07807,-0.49798 2.5651,0.0674 1.4108,0.53639 2.9858,0.97525 3.5,0.97525 1.71534,0 0.96229,-1.51337 -1.25041,-2.51287 -1.20192,-0.54292 -2.38948,-1.62482 -2.63903,-2.40422 -0.30129,-0.94101 0.57038,-0.68787 2.59453,0.75345 1.69351,1.20589 3.75524,1.89924 4.63903,1.5601 0.87493,-0.33574 1.59078,-0.14979 1.59078,0.41322 0,0.56301 -0.5625,1.2299 -1.25,1.48199 -1.78495,0.65448 0.37329,2.76659 3.03164,2.96683 1.14389,0.0862 1.85942,0.51326 1.59006,0.94909 -0.80734,1.30631 -4.12468,0.89657 -5.72884,-0.70759 -0.825,-0.825 -1.75715,-1.5 -2.07143,-1.5 -0.31429,0 -0.57143,0.675 -0.57143,1.5 0,1.35287 1.1873,1.94411 3.25,1.61842 1.69623,-0.26782 0.54953,1.54149 -2.53859,4.0055 -3.24995,2.59313 -12.71141,5.41785 -12.71141,3.79498 z m -0.0358,-7.08326 c -1.14512,-2.23286 -1.1183,-2.25968 0.60945,-0.60946 0.99401,0.94941 1.53304,2.00045 1.19784,2.33565 -0.3352,0.3352 -1.14849,-0.44159 -1.80729,-1.72619 z m -5.4642,-1.61678 c -2.88488,-0.59572 -4.3242,-2.2222 -1.95,-2.20356 2.06309,0.0162 5.21844,1.61938 4.42104,2.24625 -0.25907,0.20367 -1.37104,0.18445 -2.47104,-0.0427 z m 9.5,-0.71887 c -1.59557,-1.92255 0.0323,-1.94278 2.55887,-0.0318 1.63076,1.23344 1.68089,1.47328 0.31357,1.5 -0.89515,0.0175 -2.18775,-0.6432 -2.87244,-1.4682 z m 19.33553,0.79523 c -0.82547,-0.28701 -0.89442,-1.33507 -0.23685,-3.60005 0.51019,-1.75735 0.65672,-5.03358 0.32562,-7.28051 l -0.602,-4.08533 -7.23863,-2.17417 c -4.63245,-1.39139 -8.38085,-1.94573 -10.41115,-1.53967 l -3.17252,0.6345 0,-6.65712 c 0,-3.75046 0.67672,-8.27674 1.54989,-10.36654 2.16684,-5.18596 3.4837,-11.54813 3.89058,-18.79661 0.28809,-5.13209 0.96594,-7.11212 3.95362,-11.54856 1.98325,-2.94496 3.60591,-5.68482 3.60591,-6.08858 0,-2.02807 -6.68758,-9.83663 -9.16379,-10.69984 -2.12175,-0.73965 -2.83621,-1.63546 -2.83621,-3.55614 0,-2.47644 0.19692,-2.55918 5.55679,-2.33489 3.40483,0.14247 5.83726,-0.22128 6.28101,-0.93928 0.54446,-0.88095 2.01964,-0.79206 5.94321,0.3581 4.4981,1.31858 5.21899,1.87634 5.21899,4.03801 0,1.37947 0.3375,2.34368 0.75,2.1427 0.4125,-0.20099 1.92008,-0.955 3.35018,-1.67559 2.26921,-1.1434 3.26257,-1.0252 7.8043,0.92859 4.18947,1.80227 5.31709,2.80357 5.78351,5.13571 0.37029,1.85145 1.63581,3.44324 3.50661,4.41067 2.30897,1.19402 2.86155,2.08245 2.61631,4.20654 -0.26671,2.31004 -0.7729,2.69146 -3.56091,2.68316 -1.7875,-0.005 -3.25,0.50275 -3.25,1.12904 0,1.08824 4.49653,7.16865 26.34925,35.63063 9.14722,11.91376 11.65075,14.40858 11.65075,11.61024 0,-1.1955 2.91116,-3.77387 4.32258,-3.82844 0.45242,-0.0175 -0.11008,1.15389 -1.25,2.60306 -1.13992,1.44917 -2.03587,3.58667 -1.99101,4.75 0.067,1.73659 0.32269,1.56598 1.42879,-0.95332 1.25923,-2.86803 4.48964,-6.4792 4.48964,-5.0188 0,0.36169 -0.73298,1.77629 -1.62884,3.14355 -1.77742,2.71268 -1.43116,9.78371 0.57745,11.79232 3.19258,3.19258 7.42496,-5.87126 5.33146,-11.41756 -1.23084,-3.26088 0.0633,-4.02655 1.68475,-0.99679 3.57706,6.6838 -3.70136,18.18634 -8.48241,13.40529 -0.81533,-0.81532 -1.48241,-1.91477 -1.48241,-2.4432 0,-0.52844 -1.0101,-1.33446 -2.24467,-1.79115 -1.23456,-0.4567 -2.24706,-1.55483 -2.25,-2.44028 -0.004,-1.27796 -35.65058,-49.02635 -36.0932,-48.34695 -0.0652,0.10012 0.23145,3.69575 0.65927,7.9903 0.59052,5.92776 0.43475,8.62943 -0.64677,11.21788 -0.78355,1.87529 -1.48095,6.01157 -1.5498,9.19173 l -0.12516,5.78212 -0.77706,-4.5 c -0.8204,-4.75105 -0.3496,-8.67141 1.29155,-10.75461 0.91881,-1.1663 -0.74884,-26.06341 -1.81734,-27.13191 -0.22627,-0.22627 -1.43187,-0.92582 -2.67911,-1.55455 -4.01207,-2.0225 -1.69483,-8.26929 2.57421,-6.93954 2.85965,0.89074 1.66617,-2.85813 -1.35415,-4.25353 -7.05054,-3.25738 -9.73912,-2.17796 -10.29718,4.13414 -0.28126,3.18132 0.16185,4.56284 2.16498,6.75 1.38524,1.5125 2.05441,2.75 1.48706,2.75 -1.57168,0 -6.34263,-4.39351 -6.34263,-5.84085 0,-0.70245 -0.38351,-1.04016 -0.85226,-0.75046 -0.46874,0.2897 -1.16399,3.57875 -1.54501,7.30902 -0.38101,3.73026 -1.12834,9.48229 -1.66072,12.78229 -0.53239,3.3 -1.17256,8.475 -1.4226,11.5 -1.711,20.69971 -3.17067,25.44273 -3.07886,10.00441 0.0327,-5.49835 0.39191,-9.99866 0.79825,-10.0007 0.40634,-0.002 0.7256,-1.01621 0.70946,-2.25371 -0.0246,-1.88995 1.18371,-11.47779 3.47159,-27.54583 0.3973,-2.7903 0.0943,-3.43838 -1.97528,-4.22525 -1.8672,-0.7099 -2.44457,-1.66162 -2.44457,-4.02954 0,-2.87046 0.22978,-3.07601 3.10187,-2.77475 1.70603,0.17895 3.05603,-0.0121 3,-0.42463 -0.056,-0.4125 -0.10187,-1.14526 -0.10187,-1.62836 0,-0.4831 -1.8,-1.33525 -4,-1.89367 -2.2,-0.55842 -4,-0.6892 -4,-0.29062 0,0.39858 -1.125,1.32677 -2.5,2.06265 -1.375,0.73588 -2.46447,2.04942 -2.42105,2.91898 0.0516,1.03258 0.25391,1.1474 0.58333,0.33102 0.83998,-2.08169 2.33772,-1.40164 2.33772,1.06144 0,1.27129 0.88958,3.26628 1.97683,4.43332 1.86521,2.00206 1.88828,2.33382 0.40868,5.87502 -0.86249,2.06422 -2.6397,5.15799 -3.94936,6.87504 -2.49441,3.27034 -4.78081,15.49857 -4.53578,24.2584 0.0748,2.67276 -0.29677,4.15913 -0.99985,4 -1.85839,-0.42061 -3.90147,6.96069 -3.24743,11.73243 0.58628,4.27736 0.64991,4.33944 3.90682,3.81091 1.82096,-0.2955 4.80242,0.007 6.62546,0.67235 8.88448,3.24225 8.62928,3.27631 9.74872,-1.30094 0.97728,-3.99594 0.99898,-3.92777 0.52573,1.65149 -0.32691,3.85411 -0.14563,5.60439 0.53678,5.18264 0.67165,-0.4151 0.9816,1.61348 0.89025,5.82645 -0.1497,6.90381 -0.69661,8.61156 -2.55132,7.96668 z m 24.66447,-69.78181 c 0,-1.44688 -5.85811,-4.51342 -8.62212,-4.51342 -2.80257,0 -1.25849,2.77759 2.37212,4.26712 4.88748,2.0052 6.25,2.05889 6.25,0.2463 z m -21,-8.41192 c 0,-0.82663 -4.43537,-3.1015 -6.04705,-3.1015 -2.13776,0 -0.75971,2.89998 1.79705,3.78172 2.79329,0.96332 4.25,0.73017 4.25,-0.68022 z m -18,-6.6015 c 0,-0.83333 -0.88889,-1.5 -2,-1.5 -2.21329,0 -2.70961,1.547 -0.75,2.33772 2.17608,0.87806 2.75,0.70323 2.75,-0.83772 z m -17.5,77.88951 c -1.95876,-1.51499 -1.95006,-1.54011 0.42167,-1.2182 1.33192,0.18078 2.60692,0.89119 2.83334,1.57869 0.55267,1.67817 -0.81502,1.5267 -3.25501,-0.36049 z m 24.82395,-3.34221 c -0.8703,-2.30569 -0.82665,-2.7937 0.21416,-2.3943 1.68565,0.64684 2.47035,2.71528 1.57789,4.1593 -0.42356,0.68534 -1.12963,-0.0101 -1.79205,-1.765 z m 4.69611,0.47687 c -0.78875,-0.95039 -0.86462,-1.52417 -0.20152,-1.52417 1.20855,0 2.61759,1.8972 1.9241,2.5907 -0.2517,0.2517 -1.02686,-0.22824 -1.72258,-1.06653 z m -36.52006,-0.52417 c -0.33992,-0.55 0.057,-1 0.88197,-1 0.825,0 1.77811,0.45 2.11803,1 0.33992,0.55 -0.057,1 -0.88197,1 -0.825,0 -1.77811,-0.45 -2.11803,-1 z m 7.58638,-1.90297 c 2.28252,-3.08727 3.65038,-3.45939 2.59365,-0.70557 -0.31188,0.81274 -1.53414,1.99528 -2.71613,2.62786 -2.13124,1.14061 -2.13023,1.12467 0.12248,-1.92229 z m 17.16362,0.24069 c -0.6875,-0.27741 -1.25,-0.87476 -1.25,-1.32743 0,-1.02196 3.83152,-0.0919 4.5746,1.11042 0.57812,0.93542 -1.24868,1.05466 -3.3246,0.21701 z m 25.20888,-8.40426 c -0.36254,-0.58659 0.0745,-1.60296 0.9711,-2.25861 1.75169,-1.28086 2.36727,-8.21097 1.12628,-12.67943 -0.45595,-1.64174 0.0261,-4.18817 1.39921,-7.39154 2.67275,-6.23527 3.50247,-5.50893 1.48138,1.2968 -1.04067,3.50435 -1.27055,6.09821 -0.69379,7.82851 1.15673,3.47018 -0.60063,14.27081 -2.32198,14.27081 -0.71668,0 -1.59967,-0.47994 -1.9622,-1.06654 z m -4.79221,-2.60013 c -0.36667,-0.36666 -0.71887,-2.27916 -0.78267,-4.25 -0.0685,-2.11457 -0.31318,-2.76356 -0.59707,-1.58333 -0.26458,1.1 -0.94548,2.45 -1.5131,3 -0.70691,0.68496 -0.7924,0.0549 -0.27135,-2 1.75141,-6.90717 2.18767,-10.6744 1.76081,-15.20512 -0.31826,-3.37804 0.16708,-6.35714 1.64248,-10.0819 1.15183,-2.90786 2.12275,-6.95786 2.15762,-9 0.0583,-3.41638 0.1407,-3.51954 1.03126,-1.29134 0.72238,1.80738 0.42437,4.09025 -1.17488,9 -1.92219,5.90118 -2.07306,7.89085 -1.46558,19.32836 0.66042,12.43434 0.5933,13.46416 -0.78752,12.08333 z m -20.04573,-4.93241 c -1.89762,-5.5692 -1.87489,-5.40092 -0.72952,-5.40092 1.43369,0 4.33854,8.17004 3.28089,9.22769 -0.57391,0.57391 -1.55154,-0.89243 -2.55137,-3.82677 z m 2.87906,-13.99641 c 0,-6.49408 0.78409,-8.25 1.85517,-4.15451 0.63653,2.43393 -0.22856,9.55372 -1.23652,10.17667 -0.34026,0.21029 -0.61865,-2.49968 -0.61865,-6.02216 z"
       id="path3029"
       inkscape:connector-curvature="0" />
  </g>
</svg>
