<?xml version="1.0" encoding="UTF-8" standalone="no"?>
<!-- Created with Inkscape (http://www.inkscape.org/) -->

<svg
   xmlns:dc="http://purl.org/dc/elements/1.1/"
   xmlns:cc="http://creativecommons.org/ns#"
   xmlns:rdf="http://www.w3.org/1999/02/22-rdf-syntax-ns#"
   xmlns:svg="http://www.w3.org/2000/svg"
   xmlns="http://www.w3.org/2000/svg"
   xmlns:xlink="http://www.w3.org/1999/xlink"
   xmlns:sodipodi="http://sodipodi.sourceforge.net/DTD/sodipodi-0.dtd"
   xmlns:inkscape="http://www.inkscape.org/namespaces/inkscape"
   width="203.92014"
   height="128.88635"
   id="svg2"
   version="1.1"
   inkscape:version="0.48.3.1 r9886"
   sodipodi:docname="Low-triceps-extension-1.svg"
   inkscape:export-filename="/home/christian/Dokumente/Code/workspace/opentraining-exercises/Back-extension-on-stability-ball-2.png"
   inkscape:export-xdpi="214"
   inkscape:export-ydpi="214">
  <defs
     id="defs4">
    <radialGradient
       gradientUnits="userSpaceOnUse"
       gradientTransform="matrix(1,0,0,0.91819829,-19.285714,-7.9105395)"
       r="209.56604"
       fy="287.50052"
       fx="398.1105"
       cy="287.50052"
       cx="398.1105"
       id="radialGradient5255"
       xlink:href="#linearGradient5249"
       inkscape:collect="always" />
    <linearGradient
       id="linearGradient5249"
       inkscape:collect="always">
      <stop
         id="stop5251"
         offset="0"
         style="stop-color:#e3e3e3;stop-opacity:1;" />
      <stop
         id="stop5253"
         offset="1"
         style="stop-color:#e3e3e3;stop-opacity:0;" />
    </linearGradient>
  </defs>
  <sodipodi:namedview
     id="base"
     pagecolor="#ffffff"
     bordercolor="#666666"
     borderopacity="1.0"
     inkscape:pageopacity="0.0"
     inkscape:pageshadow="2"
     inkscape:zoom="2.8"
     inkscape:cx="149.76591"
     inkscape:cy="28.854274"
     inkscape:document-units="px"
     inkscape:current-layer="layer1"
     showgrid="false"
     showguides="true"
     inkscape:guide-bbox="true"
     fit-margin-top="0"
     fit-margin-left="0"
     fit-margin-right="0"
     fit-margin-bottom="0"
     inkscape:window-width="1615"
     inkscape:window-height="1026"
     inkscape:window-x="65"
     inkscape:window-y="24"
     inkscape:window-maximized="1">
    <sodipodi:guide
       orientation="-0.70710678,0.70710678"
       position="-1746.5899,502.78734"
       id="guide2985" />
  </sodipodi:namedview>
  <metadata
     id="metadata7">
    <rdf:RDF>
      <cc:Work
         rdf:about="">
        <dc:format>image/svg+xml</dc:format>
        <dc:type
           rdf:resource="http://purl.org/dc/dcmitype/StillImage" />
        <dc:title></dc:title>
      </cc:Work>
    </rdf:RDF>
  </metadata>
  <g
     inkscape:label="Ebene 1"
     inkscape:groupmode="layer"
     id="layer1"
     transform="translate(-318.01844,-400.54887)">
    <path
       style="fill:#000000"
       d="m 368.02184,527.37272 c -2.96487,-1.65327 -4.74201,-3.42486 -5.21693,-5.20066 -0.39616,-1.48129 -0.51329,-2.90025 -0.2603,-3.15325 0.253,-0.25299 0.74567,0.9684 1.09483,2.71421 0.34916,1.7458 1.13978,3.08735 1.75694,2.98122 0.61716,-0.10613 2.7996,0.64094 4.84987,1.66014 3.20516,1.59331 4.2566,1.68447 7.5,0.6502 25.04352,-7.98595 64.03981,-18.83334 79.77224,-22.18981 5.5,-1.17342 10.4275,-2.54366 10.95,-3.04499 1.20993,-1.16091 2.55,-1.17428 2.55,-0.0255 0,1.64811 -6.43917,3.94373 -22.5,8.02145 -27.45693,6.97111 -42.08672,10.9659 -55.77728,15.23046 -17.02712,5.30389 -19.08231,5.49981 -24.71937,2.35648 z m -29.30598,-3.12893 c -0.10856,-0.10773 -2.15573,-0.48762 -4.54928,-0.84419 -2.39356,-0.35658 -5.31856,-1.02201 -6.5,-1.47873 -2.54423,-0.98354 -6.36407,-4.92418 -6.82321,-7.03898 -0.17869,-0.82301 -0.98964,-2.01675 -1.80212,-2.65275 -2.48483,-1.94509 -0.18013,-6.332 4.09217,-7.78927 1.98821,-0.67818 4.91321,-2.14927 6.5,-3.26908 1.58679,-1.11981 5.26607,-3.23569 8.17618,-4.70195 5.26874,-2.65465 5.32278,-2.73028 12.77508,-17.87825 10.29672,-20.92969 12.64913,-24.8849 16.01726,-26.93047 3.73547,-2.26868 5.16593,-2.23358 9.43215,0.23141 1.91642,1.10729 4.66262,2.48065 6.10267,3.0519 2.53669,1.00629 11.80867,10.85227 15.00586,15.93484 0.86494,1.375 2.0996,4.10828 2.7437,6.07395 1.0348,3.15808 1.50101,3.52553 4.00647,3.15781 1.55946,-0.22888 5.03821,-2.15806 7.73055,-4.28706 2.69233,-2.12899 6.46871,-4.58595 8.39195,-5.45989 3.32317,-1.5101 4.5449,-1.52379 8.0032,-0.0897 1.25789,0.52162 1.5,-0.63026 1.5,-7.13655 0,-7.25553 0.25441,-8.18 3.92383,-14.25857 6.08729,-10.08388 8.31863,-11.2504 14.04868,-7.34454 1.08487,0.7395 2.60533,1.34454 3.3788,1.34454 0.77346,0 3.10588,1.53548 5.18316,3.41218 3.29686,2.97851 3.61659,3.64574 2.51576,5.25 -0.69361,1.0108 -3.16303,6.08281 -5.48759,11.27113 -4.42314,9.87223 -4.61468,11.62928 -2.52774,23.1877 0.63361,3.50925 0.547,3.64104 -2.80631,4.27013 -3.64955,0.68466 -6.72859,-8.9e-4 -6.72859,-1.49813 0,-0.49115 -0.45,-0.89301 -1,-0.89301 -0.55,0 -1,0.675 -1,1.5 0,1.35287 1.1873,1.94411 3.25,1.61842 1.69623,-0.26782 0.54953,1.54149 -2.53859,4.0055 -3.24995,2.59314 -12.71141,5.41786 -12.71141,3.79499 0,-0.46124 1.9125,-1.38028 4.25,-2.04231 2.3375,-0.66202 4.78008,-1.69259 5.42795,-2.29014 1.67754,-1.54725 0.45667,-6.40896 -1.78834,-7.1215 -1.03929,-0.32985 -1.88961,-1.00827 -1.88961,-1.5076 0,-0.5263 1.07807,-0.49798 2.5651,0.0674 1.4108,0.53639 2.9858,0.97525 3.5,0.97525 1.71534,0 0.96229,-1.51337 -1.25041,-2.51287 -1.20192,-0.54292 -2.38948,-1.62482 -2.63903,-2.40422 -0.30129,-0.94101 0.57038,-0.68787 2.59453,0.75345 1.69351,1.20589 3.75524,1.89924 4.63903,1.5601 0.87493,-0.33574 1.59078,-0.14979 1.59078,0.41322 0,0.56301 -0.5625,1.2299 -1.25,1.48199 -2.05931,0.75508 0.70872,2.95833 3.71667,2.95833 3.5753,0 4.00517,-0.69666 2.56913,-4.16357 -0.67837,-1.63774 -1.30144,-4.63742 -1.3846,-6.66595 -0.14723,-3.5914 -0.30699,-3.73754 -6.08379,-5.56542 -3.72168,-1.17761 -7.1689,-1.64525 -9.25,-1.25483 -3.7795,0.70904 -3.94366,1.05029 -1.69862,3.53104 2.29908,2.54044 1.08295,8.17891 -2.23262,10.35136 -3.23068,2.11682 -4.18436,1.3389 -1.46474,-1.1948 2.37526,-2.21291 3.97232,-8.28784 2.17882,-8.28784 -0.63236,0 -1.57748,-1.125 -2.10025,-2.5 -0.52277,-1.375 -1.65109,-2.5 -2.50737,-2.5 -3.14295,0 -8.42036,2.92773 -12.33652,6.84389 -2.76136,2.76136 -5.05623,4.11885 -7.33292,4.33765 l -3.31374,0.31846 4.99528,3.19094 c 2.7474,1.75501 6.94281,3.62755 9.32313,4.16119 5.56748,1.24817 6.79287,2.51319 1.90508,1.96668 -2.07189,-0.23165 -3.63515,-0.17316 -3.47392,0.13 0.16124,0.30315 1.15226,2.23869 2.20228,4.30119 1.05002,2.0625 2.36179,3.75 2.91504,3.75 0.55326,0 0.13241,0.71174 -0.93521,1.58164 -1.9127,1.55846 -1.91184,1.56985 0.0589,0.77728 1.1,-0.44239 7.85,-0.83673 15,-0.87631 9.94984,-0.0551 13.90851,-0.47209 16.87212,-1.77729 2.12967,-0.93793 4.82967,-1.71533 6,-1.72756 5.03715,-0.0526 9.11852,-6.11423 8.11523,-12.05262 -0.74201,-4.39193 -1.90981,-5.05776 -2.93802,-1.67514 -0.43016,1.41513 -0.87937,1.77429 -1.21065,0.96796 -0.28969,-0.70513 0.12131,-2.28013 0.91334,-3.5 2.84077,-4.37535 5.67197,-14.39072 5.18643,-18.347 -0.36047,-2.93715 -0.24637,-3.38849 0.47295,-1.87096 0.52142,1.1 0.97966,3.2375 1.01831,4.75 0.04,1.56346 0.63501,2.75 1.37912,2.75 0.71985,0 3.92437,1.575 7.12115,3.5 6.29094,3.78821 13.03773,4.88241 11.90508,1.93078 -0.54706,-1.42563 -0.2585,-1.42563 3.15351,0 4.65091,1.94327 5.51143,1.95957 5.51143,0.1044 0,-1.84452 -3.13035,-3.56553 -6.17494,-3.39488 -1.27878,0.0717 -3.11256,-0.20371 -4.07506,-0.61197 -1.34782,-0.57172 -1.75,-0.25809 -1.75,1.36468 0,3.48779 -1.39011,2.384 -3.3333,-2.64676 -5.36032,-13.8773 -5.84462,-14.46876 -15.66673,-19.13293 -3.80482,-1.80677 -5.61716,-3.09215 -4.37084,-3.09997 3.53219,-0.0222 13.11274,4.89121 15.82687,8.11677 1.39951,1.66321 2.8035,4.05576 3.12,5.31678 0.47249,1.88257 1.23279,2.28412 4.24971,2.24445 4.42382,-0.0582 11.17426,3.74796 11.17426,6.30044 0,0.98683 0.675,2.05325 1.5,2.36984 0.825,0.31658 1.50347,1.15222 1.5077,1.85698 0.004,0.70477 1.74756,2.27471 3.87405,3.48876 l 3.86635,2.20737 0.54123,-4.03518 c 0.2984,-2.22472 1.36441,-4.659 2.37595,-5.42557 2.9561,-2.24019 3.64416,-1.66284 1.4073,1.18087 -1.39812,1.77742 -2.03692,3.97402 -1.96301,6.75 l 0.10956,4.11514 0.8622,-4.39006 c 0.47421,-2.41453 1.62215,-5.22979 2.55097,-6.25613 2.26995,-2.50827 2.97543,-1.55956 0.9697,1.30403 -2.09211,2.9869 -2.10309,10.18141 -0.0182,11.91173 3.71737,3.08514 7.94485,-5.18132 5.69625,-11.13852 -1.23084,-3.26088 0.0633,-4.02655 1.68475,-0.99679 3.4369,6.42191 -3.62391,18.16483 -8.23241,13.69142 -0.67783,-0.65796 -3.70741,-2.71695 -6.73241,-4.57554 -5.32181,-3.26978 -5.80133,-3.3717 -14.80065,-3.14581 -7.88509,0.19793 -9.83625,-0.0826 -12.81974,-1.84286 l -3.5191,-2.07632 0.81975,2.25742 c 0.45086,1.24159 0.81974,4.88219 0.81974,8.09023 0,5.32421 -0.28476,6.08718 -3.26578,8.75 -3.186,2.84596 -7.2342,3.9188 -7.2342,1.9172 0,-0.55 0.92045,-1 2.04545,-1 1.125,0 3.15,-1.10455 4.5,-2.45455 4.37206,-4.37205 2.9157,-17.83618 -2.18988,-20.24563 -2.211,-1.04343 -2.51544,-0.85296 -3.88821,2.43255 -1.08975,2.60813 -1.33427,5.60428 -0.91128,11.16612 0.85245,11.20883 -0.4485,12.86071 -12.89814,16.37735 -10.11289,2.85658 -16.8807,3.38105 -22.57088,1.74913 -3.61342,-1.03632 -12.08706,0.4315 -12.08706,2.09374 0,0.48471 -0.9,0.88129 -2,0.88129 -1.1,0 -2,0.59037 -2,1.31194 0,3.03998 -6.12353,5.96603 -13.40511,6.40547 -5.16857,0.31191 -6.68763,0.14105 -5.59489,-0.62931 0.825,-0.58161 3.23199,-1.06437 5.34887,-1.07279 5.49254,-0.0219 9.81498,-2.41497 12.86895,-7.12488 2.28334,-3.52144 2.49287,-4.45352 1.51478,-6.73857 -1.89556,-4.42851 -4.47377,-7.71706 -8.39494,-10.70788 -3.0617,-2.33528 -3.46107,-2.45826 -2.21754,-0.68288 0.83417,1.19095 2.69467,3.09197 4.13444,4.2245 2.69601,2.12067 3.3427,6.0144 0.99891,6.0144 -0.72651,0 -2.28328,-1.63107 -3.45949,-3.62461 -2.01522,-3.41554 -2.21733,-3.51648 -3.50387,-1.75 -3.92941,5.39527 -8.4376,9.13686 -11.63382,9.65553 -4.1798,0.67829 -10.65503,-0.66085 -11.7482,-2.42964 -1.08792,-1.76028 -0.15482,-2.49801 1.30858,-1.03461 1.58163,1.58163 3.3063,1.5244 2.00905,-0.0667 -0.97397,-1.19457 -2.39147,-5.78933 -3.77916,-12.25 l -0.64437,-3 -1.9309,4.86841 c -1.94186,4.89604 -1.74982,8.61847 0.4461,8.6469 0.83861,0.0109 0.81255,0.25018 -0.0896,0.82273 -1.91129,1.21303 2.07082,9.48095 6.59087,13.68439 2.35738,2.19226 3.12683,3.43319 2.13952,3.45051 -1.81635,0.0319 -9.95821,-7.98112 -9.95821,-9.8006 0,-0.68859 -0.92617,-3.06744 -2.05816,-5.28632 -2.32059,-4.54873 -2.9379,-4.38518 -7.32105,1.9397 -1.91475,2.76299 -2.89037,5.91333 -3.62454,11.70385 -1.40391,11.07293 -2.44629,11.96159 -14.07706,12.00116 -4.96345,0.0169 -9.11327,-0.0574 -9.22182,-0.16518 z m 19.147,-5.72097 c 0.51143,-1.7295 1.45512,-5.69711 2.09709,-8.81691 0.91336,-4.43867 2.53578,-7.48357 7.45964,-14 6.18033,-8.17931 10.5989,-16.79058 10.5989,-20.65603 0,-1.0767 0.7118,-2.23078 1.58179,-2.56462 2.20896,-0.84766 2.63172,-0.76148 1.91929,0.39126 -0.33932,0.54903 0.0841,1.99916 0.94099,3.2225 1.77818,2.53872 2.08751,5.22459 0.48785,4.23594 -0.58854,-0.36374 -1.44347,-1.6278 -1.89984,-2.80902 -0.76548,-1.98129 -0.88644,-2.00717 -1.5613,-0.33411 -0.40627,1.00719 -0.006,4.05953 0.89984,6.86484 0.89726,2.7782 1.63138,6.09007 1.63138,7.35971 0,3.2232 4.65072,8.46189 7.51217,8.46189 2.70731,0 8.00774,-4.16222 10.48234,-8.23137 1.64386,-2.70311 1.61613,-3.10392 -0.68825,-9.94699 -3.12238,-9.27222 -3.57867,-10.09231 -10.05479,-18.07164 -4.03131,-4.96703 -6.11807,-6.75 -7.90011,-6.75 -3.33302,0 -7.14199,2.6924 -9.05203,6.3985 -0.87915,1.70582 -3.61421,6.1654 -6.07791,9.91017 -2.4637,3.74477 -6.46714,11.38784 -8.89652,16.9846 -4.91985,11.33425 -7.04877,14.13046 -12.00321,15.76558 -1.86132,0.61429 -5.40541,2.24656 -7.87576,3.62726 -2.47034,1.3807 -5.2143,2.23302 -6.09768,1.89403 -2.04664,-0.78537 -8.34825,1.45331 -8.34825,2.96576 0,1.66571 3.06471,4.17477 7.0366,5.76084 1.90487,0.76066 7.7384,1.49262 12.9634,1.62658 5.225,0.13396 9.63856,0.37982 9.8079,0.54636 1.15803,1.13881 4.26531,-1.2273 5.03647,-3.83513 z m -4.04504,-4.67223 c 1.19705,-1.11522 2.45569,-3.14022 2.79697,-4.5 0.34128,-1.35977 1.05206,-2.47232 1.5795,-2.47232 0.52743,0 0.65679,1.0125 0.28746,2.25 -1.12144,3.75755 -3.4156,6.75 -5.17487,6.75 -1.38603,0 -1.30028,-0.34026 0.51094,-2.02768 z m 7.20067,-21.52333 c 0,-1.58214 6.40099,-12.4955 8.29536,-14.14316 l 2.07622,-1.80583 -2.09133,3.5 c -1.15023,1.925 -3.08044,5.41475 -4.28936,7.75499 -2.0449,3.95857 -3.99089,6.2474 -3.99089,4.694 z m 8.06724,-4.94899 c 0.006,-1.766 2.85875,-6.13817 2.89732,-4.44113 0.0195,0.85738 -0.62525,2.43238 -1.43276,3.5 -0.80751,1.06762 -1.46656,1.49113 -1.46456,0.94113 z m 1.93276,-14.44098 c 0,-0.51754 0.45,-1.2191 1,-1.55902 0.55,-0.33992 1,0.0835 1,0.94098 0,0.85746 -0.45,1.55902 -1,1.55902 -0.55,0 -1,-0.42344 -1,-0.94098 z m 5.89166,-8.11729 c 1.31542,-1.09546 2.66471,-1.71869 2.99843,-1.38497 0.71019,0.71019 -2.78084,3.45868 -4.33122,3.40997 -0.58238,-0.0183 0.0174,-0.92955 1.33279,-2.025 z m -34.57968,40.26125 c 6.47301,-3.25338 9.53106,-7.01087 13.34521,-16.39755 1.32875,-3.27009 4.634,-9.40157 7.34499,-13.62552 2.71098,-4.22395 5.8051,-9.56046 6.87581,-11.85891 1.16332,-2.49726 3.18928,-4.82155 5.03437,-5.77568 1.6982,-0.87818 3.08764,-1.83309 3.08764,-2.12203 0,-0.28894 -1.55348,-1.17443 -3.45217,-1.96775 -4.43914,-1.85479 -8.01909,-0.59113 -10.33915,3.64956 -0.93978,1.71775 -2.61284,4.53431 -3.71792,6.25904 -1.10509,1.72472 -4.42091,8.31086 -7.36849,14.63586 -7.02257,15.06921 -9.57093,18.70437 -15.07411,21.50279 -2.50149,1.27204 -7.10344,3.65604 -10.22655,5.2978 -3.12311,1.64175 -6.24157,3.17273 -6.92991,3.40218 -0.68834,0.22944 -0.98425,1.11366 -0.65759,1.96494 0.53151,1.38507 1.41761,1.35901 8.42991,-0.24791 4.30979,-0.98762 10.45137,-3.11019 13.64796,-4.71682 z m 11.73784,-19.92447 c -0.0765,-1.87439 5.12549,-12.9151 5.54957,-11.77851 0.20521,0.55 -0.94828,3.7 -2.56331,7 -1.61504,3.3 -2.95885,5.45033 -2.98626,4.77851 z m 54.90434,7.63584 c -0.61391,-1.1471 -1.31533,-1.88651 -1.55872,-1.64312 -0.6999,0.69989 0.71897,3.72877 1.74673,3.72877 0.51083,0 0.42629,-0.93781 -0.18801,-2.08565 z m 39.72262,-25.16879 c 0.74528,-2.55596 1.7979,-4.92089 2.33914,-5.2554 1.66237,-1.0274 1.09222,-2.49016 -0.97061,-2.49016 -1.47518,0 -2.11599,0.91991 -2.61224,3.75 -0.36165,2.0625 -1.25862,4.71092 -1.99326,5.88538 -0.73464,1.17446 -1.04976,2.42134 -0.70026,2.77083 1.34168,1.34168 2.63262,-0.18645 3.93723,-4.66065 z m -4.48954,-0.13694 c 0.72202,-1.70974 1.31276,-5.54311 1.31276,-8.5186 0,-3.53293 0.44883,-5.56191 1.29362,-5.84787 0.93913,-0.3179 1.11494,0.27399 0.64159,2.15998 -0.60786,2.42188 -0.41786,2.59787 2.80469,2.59787 3.12725,0 3.61269,-0.39707 5.09314,-4.16593 1.30499,-3.32216 1.3879,-4.46539 0.40936,-5.64446 -1.92784,-2.32291 -13.38685,-7.26328 -15.21751,-6.56079 -0.90517,0.34735 -2.67982,2.71046 -3.94366,5.25136 -1.26384,2.5409 -2.99694,5.90541 -3.85133,7.47669 -0.96286,1.77077 -1.55261,5.38241 -1.55128,9.5 l 0.002,6.64313 5.84686,0.10862 c 5.63396,0.10466 5.89465,-0.005 7.15961,-3 z m 5.00082,-13.56813 c -2.30133,-3.11271 -2.87717,-6.04049 -1.18806,-6.04049 0.55,0 1,0.9 1,2 0,1.1 0.37777,2 0.83948,2 0.46172,0 1.35207,1.125 1.97857,2.5 1.55615,3.4154 0.0388,3.15029 -2.62999,-0.45951 z m -6.82407,-0.89661 0.62846,-3.35612 -1.96296,2.35612 c -2.41758,2.90181 -2.5808,1.81891 -0.36829,-2.44354 0.91936,-1.77117 1.85064,-2.63935 2.08541,-1.94411 0.23331,0.69093 0.90602,0.95846 1.4949,0.59451 1.42226,-0.87901 0.13447,5.70382 -1.3925,7.11801 -0.80937,0.7496 -0.94184,0.11463 -0.48502,-2.32487 z m 51.63601,15.26522 c 0,-0.19676 -1.44267,-1.10378 -3.20594,-2.0156 -2.19343,-1.13427 -3.32429,-1.30281 -3.58067,-0.53367 -0.271,0.81301 -0.92972,0.82717 -2.37971,0.0512 -2.33296,-1.24856 -3.11533,-0.80852 -2.30712,1.29764 0.36073,0.94003 1.43945,1.32936 2.90632,1.04895 1.28298,-0.24525 2.59969,-0.0139 2.92604,0.51414 0.52878,0.8556 5.64108,0.52697 5.64108,-0.36262 z m -67.03579,23.42655 c -1.14512,-2.23286 -1.1183,-2.25968 0.60945,-0.60946 0.99401,0.94941 1.53304,2.00045 1.19784,2.33565 -0.3352,0.3352 -1.14849,-0.44159 -1.80729,-1.72619 z m -5.46421,-1.61678 c -2.88488,-0.59572 -4.3242,-2.2222 -1.95,-2.20356 2.06309,0.0162 5.21844,1.61938 4.42104,2.24625 -0.25907,0.20367 -1.37104,0.18445 -2.47104,-0.0427 z m 9.5,-0.71887 c -1.59557,-1.92255 0.0323,-1.94278 2.55887,-0.0318 1.63076,1.23344 1.68089,1.47328 0.31357,1.5 -0.89515,0.0175 -2.18775,-0.6432 -2.87244,-1.4682 z m -12.5,-6.11049 c -1.95876,-1.51499 -1.95006,-1.54011 0.42167,-1.2182 1.33192,0.18078 2.60692,0.89119 2.83334,1.57869 0.55267,1.67817 -0.81502,1.5267 -3.25501,-0.36049 z m 24.82395,-3.34221 c -0.8703,-2.30569 -0.82665,-2.7937 0.21416,-2.3943 1.68565,0.64684 2.47035,2.71528 1.57789,4.1593 -0.42356,0.68534 -1.12963,-0.0101 -1.79205,-1.765 z m -31.82395,-0.0473 c -0.33992,-0.55 0.057,-1 0.88197,-1 0.825,0 1.77811,0.45 2.11803,1 0.33992,0.55 -0.057,1 -0.88197,1 -0.825,0 -1.77811,-0.45 -2.11803,-1 z m 7.58638,-1.90297 c 2.28252,-3.08727 3.65038,-3.45939 2.59365,-0.70557 -0.31188,0.81274 -1.53414,1.99528 -2.71613,2.62786 -2.13124,1.14061 -2.13023,1.12467 0.12248,-1.92229 z m 17.16362,0.24069 c -0.6875,-0.27741 -1.25,-0.87476 -1.25,-1.32743 0,-1.02196 3.83152,-0.0919 4.5746,1.11042 0.57812,0.93542 -1.24868,1.05466 -3.3246,0.21701 z m 19.24416,-4.37231 c -0.6739,-3.98878 0.50161,-6.96541 2.75073,-6.96541 0.55623,0 0.44556,0.66806 -0.24939,1.50542 -0.81078,0.97693 -1.02514,2.90774 -0.61062,5.5 0.35787,2.238 0.23247,3.99458 -0.28516,3.99458 -0.50816,0 -1.23066,-1.81556 -1.60556,-4.03459 z m 5.95722,-5.81222 c 0.40693,-1.28211 1.09391,-4.42858 1.52662,-6.99215 l 0.78676,-4.66104 0.11762,5.62755 c 0.0859,4.10832 -0.32627,5.99595 -1.52663,6.99216 -1.46594,1.21663 -1.56401,1.11182 -0.90437,-0.96652 z m 10.59446,-2.06754 c -0.6143,-1.14784 -0.69884,-2.08565 -0.18801,-2.08565 1.02776,0 2.44663,3.02888 1.74673,3.72877 -0.24339,0.24339 -0.94481,-0.49602 -1.55872,-1.64312 z"
       id="path3031"
       inkscape:connector-curvature="0" />
  </g>
</svg>
