<?xml version="1.0" encoding="UTF-8" standalone="no"?>
<!-- Created with Inkscape (http://www.inkscape.org/) -->

<svg
   xmlns:dc="http://purl.org/dc/elements/1.1/"
   xmlns:cc="http://creativecommons.org/ns#"
   xmlns:rdf="http://www.w3.org/1999/02/22-rdf-syntax-ns#"
   xmlns:svg="http://www.w3.org/2000/svg"
   xmlns="http://www.w3.org/2000/svg"
   xmlns:xlink="http://www.w3.org/1999/xlink"
   xmlns:sodipodi="http://sodipodi.sourceforge.net/DTD/sodipodi-0.dtd"
   xmlns:inkscape="http://www.inkscape.org/namespaces/inkscape"
   width="765.50378"
   height="817.16132"
   id="svg2"
   version="1.1"
   inkscape:version="0.48.3.1 r9886"
   sodipodi:docname="Lunges-1.svg">
  <defs
     id="defs4">
    <radialGradient
       gradientUnits="userSpaceOnUse"
       gradientTransform="matrix(1,0,0,0.91819829,-19.285714,-7.9105395)"
       r="209.56604"
       fy="287.50052"
       fx="398.1105"
       cy="287.50052"
       cx="398.1105"
       id="radialGradient5255"
       xlink:href="#linearGradient5249"
       inkscape:collect="always" />
    <linearGradient
       id="linearGradient5249"
       inkscape:collect="always">
      <stop
         id="stop5251"
         offset="0"
         style="stop-color:#e3e3e3;stop-opacity:1;" />
      <stop
         id="stop5253"
         offset="1"
         style="stop-color:#e3e3e3;stop-opacity:0;" />
    </linearGradient>
  </defs>
  <sodipodi:namedview
     id="base"
     pagecolor="#ffffff"
     bordercolor="#666666"
     borderopacity="1.0"
     inkscape:pageopacity="0.0"
     inkscape:pageshadow="2"
     inkscape:zoom="0.35"
     inkscape:cx="25.47086"
     inkscape:cy="14.555748"
     inkscape:document-units="px"
     inkscape:current-layer="layer1"
     showgrid="false"
     showguides="true"
     inkscape:guide-bbox="true"
     fit-margin-top="0"
     fit-margin-left="0"
     fit-margin-right="0"
     fit-margin-bottom="0"
     inkscape:window-width="1201"
     inkscape:window-height="886"
     inkscape:window-x="166"
     inkscape:window-y="73"
     inkscape:window-maximized="0">
    <sodipodi:guide
       orientation="-0.70710678,0.70710678"
       position="-2435.8215,508.73353"
       id="guide2985" />
  </sodipodi:namedview>
  <metadata
     id="metadata7">
    <rdf:RDF>
      <cc:Work
         rdf:about="">
        <dc:format>image/svg+xml</dc:format>
        <dc:type
           rdf:resource="http://purl.org/dc/dcmitype/StillImage" />
        <dc:title></dc:title>
      </cc:Work>
    </rdf:RDF>
  </metadata>
  <g
     inkscape:label="Ebene 1"
     inkscape:groupmode="layer"
     id="layer1"
     transform="translate(-1007.25,281.77987)">
    <path
       style="fill:#000000"
       d="m 1370.4704,525.04392 c -3.7419,-2.06528 -13.437,-9.48042 -15.6687,-11.98392 -1.8902,-2.12044 -6.8313,-20.14526 -6.8313,-24.92012 0,-4.09792 -2.8055,-12.13284 -7.4689,-21.39141 -3.4444,-6.83828 -3.6927,-7.88918 -3.071,-13 0.3721,-3.05817 0.5925,-6.91031 0.4899,-8.56031 -0.3293,-5.2968 -0.1041,-13.77721 0.5947,-22.40147 0.861,-10.62541 -0.3461,-18.23641 -6.8351,-43.09853 -4.4028,-16.86871 -5.0884,-20.78191 -5.0809,-29 0.014,-14.86525 4.0056,-31.90576 10.79,-46.0584 3.0166,-6.29288 5.9345,-13.4666 6.4841,-15.9416 1.9747,-8.89278 3.1164,-24.83375 3.1155,-43.5 -5e-4,-10.50929 0.6616,-24.58599 1.4817,-31.5 0.8154,-6.875 1.4865,-13.20464 1.4913,-14.06586 0,-0.86122 -1.8571,-2.61446 -4.1374,-3.89609 -7.2893,-4.09679 -7.924,-5.15473 -6.3102,-10.51703 2.0897,-6.94351 9.0919,-41.49138 10.9491,-54.02102 1.3961,-9.4191 1.4644,-13.0567 0.4756,-25.31067 -0.6351,-7.870873 -0.8589,-15.489673 -0.4972,-16.930663 0.3616,-1.441 1.0695,-6.2512 1.5729,-10.68933 0.7406,-6.5282 1.8081,-9.84644 5.5894,-17.37416 3.9411,-7.84604 4.7448,-10.43286 5.1266,-16.5 0.505,-8.02677 -2.3435,-22.322521 -5.47,-27.451581 -0.9846,-1.6153 -6.7417,-7.2567303 -12.7937,-12.5365103 -14.4758,-12.62889 -18.0989,-17.4632897 -23.56,-31.4365197 -0.8088,-2.06959 -1.5704,-1.49601 -10.6214,8 -5.3625,5.62618 -12.3991,12.7931797 -15.6369,15.9266397 -7.0503,6.82325 -19.2752,15.4548303 -22.999,16.2387603 -1.4735,0.31022 -3.7951,0.79533 -5.159,1.07802 -1.3639,0.2827 -3.8544,1.8577 -5.5345,3.5 -2.8333,2.7697 -3.5899,2.98601 -10.4441,2.98601 -8.1611,0 -7.5663,0.39676 -14.5947,-9.73518 -2.089,-3.0113503 -4.8897,-5.2216103 -9.6924,-7.6488003 -8.192,-4.14011999 -10.0792,-6.09638 -14.5907,-15.1239697 -6.9978,-14.00288 -7.9821,-17.63499 -12.1934,-44.99205 -1.8103,-11.75998 -8.9534,-34.26945 -13.8042,-43.499996 -1.8787,-3.575 -4.2083,-8.6375 -5.1768,-11.25 -0.9686,-2.6125 -2.0374,-4.74987 -2.3752,-4.74972 -0.3378,1.5e-4 -0.6368,9.11265 -0.6645,20.249996 -0.042,17.038 -0.3895,21.70448 -2.1887,29.42194 -5.3353,22.88558 -17.4405,41.88055 -31.4484,49.34726 -11.9463,6.36786 -27.349,5.04146 -40.1537,-3.45784 -16.8491,-11.18381 -32.2277,-38.27513 -37.6655,-66.35269 -0.9972,-5.14914 -2.0478,-9.59676 -2.3346,-9.88359 -0.2869,-0.28683 -11.9149,1.261 -25.8402,3.43962 -15.1489,2.37006 -25.9664,3.62981 -26.9314,3.13629 -2.858,-1.46164 -4.2889,-6.56195 -3.2904,-11.728266 l 0.9033,-4.673 27,-4 27,-4 0.6438,-14 c 0.938,-20.3996 3.8654,-32.02389 12.0042,-47.66758 5.6823,-10.92211 14.0832,-19.83633 22.6848,-24.07089 5.9164,-2.91262 7.5367,-3.26049 15.1461,-3.25181 5.518,0.006 10.2832,0.62609 13.5211,1.75867 6.9215,2.42109 17.5888,10.70414 24.6545,19.14395 7.3599,8.7913 17.7848,29.28413 20.9044,41.09337 1.4135,5.35046 2.7431,8.49429 3.5925,8.49429 0.7417,0 1.3486,-0.7266 1.3486,-1.61467 0,-2.68659 5.0428,-11.076 7.3444,-12.21837 1.1856,-0.58842 5.4349,-2.17749 9.4431,-3.53125 4.7282,-1.59697 8.0138,-3.38469 9.3555,-5.09045 2.3032,-2.92802 16.6594,-10.54526 19.8746,-10.54526 1.1341,0 3.8813,0.92812 6.1049,2.0625 3.092,1.57742 4.6047,3.28253 6.4321,7.25 1.3142,2.85312 4.1412,7.08941 6.2824,9.41398 l 3.8929,4.22647 58.885,-9.1141 c 32.3868,-5.01276 59.4392,-9.62234 60.1164,-10.24352 1.3173,-1.20825 4.6332,-13.17514 5.7921,-20.90287 0.5699,-3.80067 0.4212,-4.69246 -0.7825,-4.69246 -1.8032,0 -8.9644,-7.59766 -11.1561,-11.83598 -2.3448,-4.5343 -2.0069,-11.90061 0.8127,-17.71767 1.7685,-3.6484 2.5269,-7.24651 2.8903,-13.71202 0.3785,-6.7334 1.1003,-10.00731 3.113,-14.12115 3.985,-8.14517 9.7723,-14.08078 17.3808,-17.82643 6.3234,-3.113 7.2589,-3.28675 17.6973,-3.28675 10.5715,0 11.3274,0.14578 18.5313,3.57415 11.4564,5.45216 19.3435,15.95151 23.6071,31.42585 2.0942,7.60082 3.2311,48.62748 1.4862,53.63287 -0.6119,1.75529 -0.9562,3.34776 -0.7652,3.53881 0.191,0.19105 17.4056,-2.32074 38.2545,-5.58175 20.8489,-3.26101 41.5072,-6.43406 45.9072,-7.05121 4.4,-0.61716 9.1937,-1.35448 10.6527,-1.6385 3.4548,-0.67254 5.2693,-4.94283 4.3677,-10.27922 -1.783,-10.55358 8.2555,-17.86271 19.1316,-13.92987 2.7104,0.98011 4.2444,0.89153 8.6589,-0.5 3.3019,-1.04086 8.6697,-1.69113 13.9596,-1.69113 9.5372,0 8.9838,0.43109 10.2697,-8 3.4019,-22.30424 18.3563,-46.78684 33.6399,-55.07347 6.0185,-3.26313 6.7967,-3.42485 16.3199,-3.39125 13.3657,0.0472 19.1917,2.32262 28.5501,11.15081 11.3882,10.74311 20.7598,26.89742 25.9977,44.81391 1.7687,6.05 3.3466,11.15266 3.5066,11.33924 0.1599,0.18658 12.2422,-1.50092 26.8495,-3.75 14.6073,-2.24908 27.6667,-4.08924 29.0207,-4.08924 1.4105,0 3.1268,0.94921 4.0187,2.22251 1.8662,2.66438 2.0737,11.12829 0.3067,12.51014 -0.6875,0.53764 -14.1875,2.94634 -30,5.35266 l -28.75,4.37513 -0.02,13.51978 c -0.032,21.9678 -3.0084,37.00892 -10.3922,52.51978 -7.3808,15.50447 -17.0256,26.50333 -27.468,31.32423 -4.7225,2.180176 -7.0574,2.596246 -14.62,2.605206 -8.0411,0.01 -9.7232,-0.3287 -15.7876,-3.174446 -10.529,-4.94074 -20.3637,-15.07091 -27.9165,-28.75499 -4.2673,-7.73147 -3.7907,-3.7743 3.6393,30.216126 0.8675,3.96886 1.6605,11.61886 1.7621,17 0.1667,8.82813 -0.1125,10.51651 -2.8578,17.28387 -1.6734,4.125 -3.5608,9.64931 -4.1942,12.27625 -2.3718,9.83633 -10.5608,17.53155 -17.4623,16.40937 -1.7506,-0.28466 -6.5285,-1.00346 -10.6175,-1.59733 -4.0889,-0.59387 -11.129,-2.20668 -15.6446,-3.58403 -6.5085,-1.98521 -10.3648,-2.50426 -18.6055,-2.50426 -6.0999,0 -12.8199,-0.63154 -16.2631,-1.52839 -12.4303,-3.23768 -27.1017,-13.02543 -35.2473,-23.51464 -2.5473,-3.28018 -4.7923,-5.80308 -4.9889,-5.60645 -0.1966,0.19662 0.2028,4.81069 0.8876,10.25349 1.4445,11.4804 1.4475,13.72747 0.046,34.08311 -0.8992,13.06135 -1.4228,16.00076 -3.7404,20.9999997 -2.4123,5.20371 -2.7444,7.28003 -3.169,19.8128803 -0.9554,28.201331 -0.9946,27.123141 1.0712,29.403991 1.9806,2.18681 2.4316,7.04049 2.476,26.65013 0.021,9.33398 2.5288,17.14012 11.8682,36.945883 l 5.6587,12 0.6934,12.5 c 0.8326,15.00741 1.9723,18.76066 7.5965,25.01605 4.6468,5.16845 5.6391,9.62403 2.6887,12.0727 -1.2162,1.00933 -1.4746,2.43736 -1.0626,5.87244 2.3563,19.64607 2.8308,26.94104 2.3766,36.53881 -0.4607,9.7328 -0.2326,11.9792 1.9794,19.5 2.3803,8.09292 2.4628,9.21837 1.7227,23.5 -1.009,19.4692 -0.7464,32.43952 1.2782,63.12615 1.4519,22.00743 1.4932,27.48025 0.3323,44.09213 -0.729,10.43128 -1.0775,20.81368 -0.7746,23.07199 0.7024,5.23696 13.5754,23.21944 21.4766,30.00099 3.0174,2.58981 7.6942,6.61217 10.3929,8.93859 6.5681,5.66198 8.8189,6.71955 22.7608,10.69447 18.6678,5.32228 20.1247,6.38866 20.1247,14.73067 0,5.45563 -0.2585,6.10346 -3.8797,9.72467 -6.5283,6.52825 -11.4181,7.62034 -34.1203,7.62034 -10.725,0 -21.1669,-0.35401 -23.2041,-0.78669 -2.0372,-0.43268 -6.0872,-2.42844 -9,-4.43503 l -5.2959,-3.64834 -18.2556,-0.73683 c -20.6059,-0.83171 -22.602,-1.47253 -27.7569,-8.91113 -2.7542,-3.97425 -2.7822,-4.16655 -2.1464,-14.75436 0.3921,-6.53016 1.8416,-15.61856 3.7045,-23.22762 2.1997,-8.98458 3.2221,-16.01542 3.6356,-25 0.7508,-16.31174 -0.451,-22.14677 -6.2417,-30.30668 -6.5602,-9.24425 -10.4332,-17.17376 -12.0012,-24.57132 -2.1534,-10.15952 -1.8541,-33.5036 0.5773,-45.02379 2.7968,-13.25133 2.6138,-17.01318 -1.1524,-23.6866 -2.9118,-5.15936 -3.0935,-6.03707 -2.5323,-12.23485 0.3325,-3.67222 0.2126,-8.38119 -0.2664,-10.46439 -0.479,-2.0832 -5.3975,-10.65867 -10.93,-19.0566 -5.5325,-8.39794 -10.91,-17.16932 -11.9498,-19.49197 -2.6722,-5.96836 -3.6524,-4.08218 -5.6314,10.8362 -2.6576,20.03396 -4.4514,30.45973 -5.9924,34.82714 -1.5964,4.52483 -7.5398,14.30854 -11.0396,18.17286 -1.5239,1.68271 -2.4587,4.29805 -2.8593,8 -0.4456,4.11727 -2.5469,9.39679 -8.3583,21 l -7.7631,15.5 -0.02,26.5 -0.02,26.5 -3.2821,8.30099 c -3.5676,9.02301 -5.3934,19.2345 -7.3509,41.11405 l -1.2643,14.13093 2.8123,8.72702 c 5.4583,16.938 20.417,41.41995 34.4445,56.37307 11.0783,11.80919 11.9386,14.44968 7.6853,23.58545 -2.5282,5.43025 -7.1439,9.25767 -11.1729,9.26475 -1.1704,0.002 -2.7483,0.93795 -3.5064,2.07976 -2.964,4.46394 -33.0965,7.73988 -39.3655,4.27974 z m 20.951,-6.61944 c 1.1269,-0.61539 4.524,-1.14531 7.549,-1.1776 l 5.5,-0.0587 -0.3192,-4.61646 c -0.2405,-3.47815 0.068,-4.76493 1.25,-5.21861 2.2107,-0.84836 4.3877,0.18814 5.0985,2.42745 0.85,2.6781 5.0635,2.46822 6.8736,-0.34238 2.3896,-3.71039 2.9539,-9.16108 1.2814,-12.37852 -0.8209,-1.57931 -4.3987,-5.43324 -7.9506,-8.56427 -11.3919,-10.04208 -30.3302,-41.79116 -35.9347,-60.24299 -2.0801,-6.8483 -2.0892,-7.19605 -0.4681,-18.02363 0.9091,-6.07232 1.8284,-15.54059 2.043,-21.04059 0.3864,-9.907 1.2803,-13.52583 7.5343,-30.5 2.1257,-5.76939 2.8379,-21.27736 1.4441,-31.44607 l -0.6477,-4.72521 -2.6932,4.33564 c -3.5568,5.72584 -5.4163,11.69961 -8.4488,27.14249 -2.5875,13.17673 -3.0575,14.69313 -4.5543,14.69313 -2.0167,0 -1.9025,-4.43968 0.4403,-17.12482 3.0757,-16.65306 5.871,-25.94567 9.6882,-32.20731 1.6202,-2.65767 4.0284,-8.87752 5.3516,-13.82189 1.3232,-4.94437 3.6503,-11.09491 5.1714,-13.66787 7.9165,-13.39102 13.3402,-24.13764 13.3402,-26.43249 0,-3.01938 2.1937,-9.74562 3.1784,-9.74562 0.4741,0 3.0758,-3.39126 5.7816,-7.53613 3.6747,-5.62907 5.3026,-9.36164 6.4332,-14.75 1.6253,-7.74659 4.0297,-33.62424 3.2011,-34.45282 -0.2755,-0.27556 -6.2595,1.18518 -13.2977,3.24609 -22.869,6.69649 -22.4494,6.61041 -28.7966,5.90707 -5.0415,-0.55865 -14.8207,-3.2276 -21.6891,-5.91943 -2.0256,-0.79387 -2.0752,-0.53205 -4.2643,22.50522 -0.8677,9.1303 -1.5009,24.53967 -1.4179,34.5 0.1807,21.65746 -0.7957,28.57639 -5.6677,40.16609 -2.0425,4.85865 -5.221,12.43391 -7.0635,16.83391 -4.5961,10.9765 -6.8101,21.33268 -6.8411,32 -0.023,7.78306 0.6753,11.56909 5.1613,28 5.7474,21.05094 6.9203,26.86895 8.1899,40.62366 0.7574,8.20537 0.6248,9.98699 -1.0615,14.26601 -1.6927,4.29501 -1.7828,5.53452 -0.7404,10.1921 0.9294,4.15295 0.9163,6.2678 -0.06,9.75558 -1.4757,5.27051 -1.0146,7.07052 4.0123,15.66265 2.7323,4.67023 4.2459,8.89278 5.3766,15 0.8657,4.675 2.6084,12.55 3.8728,17.5 2.6567,10.40033 5.7131,14.31067 14.7644,18.88937 4.775,2.41549 6.1445,2.66894 11.3793,2.1059 3.2731,-0.35204 6.8731,-1.14357 8,-1.75895 z m -12.201,-7.3986 c -1.7006,-0.68619 -1.582,-4.8173 0.1802,-6.2798 0.7866,-0.65283 3.1453,-1.04543 5.2417,-0.87245 5.108,0.42152 5.6291,3.05092 1.1462,5.78403 -3.3789,2.06006 -4.3515,2.26266 -6.5681,1.36822 z m 18.4174,-10.5034 c -2.7898,-3.56469 -2.5109,-5.83432 0.717,-5.83432 3.5794,0 6.6156,2.77971 6.6156,6.0567 0,4.19608 -3.9688,4.07571 -7.3326,-0.22238 z m -42.9586,-57.4588 c -1.4329,-1.43289 -0.6467,-6.17229 1.5721,-9.47764 2.6478,-3.94433 8.6446,-7.52415 11.0549,-6.59924 2.8608,1.0978 2.0135,5.28374 -1.5227,7.52272 -1.7527,1.10977 -3.8927,3.51646 -4.7554,5.3482 -1.4862,3.15554 -4.7508,4.80405 -6.3489,3.20596 z m -2.8053,-119.55578 c -0.6418,-1.19915 -1.4491,-7.10491 -1.7941,-13.12391 -0.6509,-11.35695 -0.2325,-12.7245 3.4597,-11.30767 1.3182,0.50583 1.4671,1.84252 0.9311,8.35699 -0.4552,5.53153 -0.2217,9.09883 0.8142,12.44261 1.2734,4.11016 1.2718,4.75703 -0.013,5.25 -2.0862,0.80056 -2.1097,0.7894 -3.3981,-1.61802 z m 24.319,-41.37644 c -1.4407,-1.00909 -2.2225,-2.5921 -2.2225,-4.5 0,-3.64016 1.2371,-3.75649 3.4838,-0.32759 1.5816,2.4138 2.0922,2.56553 6.615,1.96556 5.077,-0.67348 6.4229,0.49701 3.7012,3.21873 -1.7084,1.7084 -8.9476,1.48536 -11.5775,-0.3567 z m -9.911,-24.07386 c -1.6205,-4.22283 7.0312,-13.30755 14.6189,-15.35071 1.9922,-0.53645 5.1603,-2.11012 7.0402,-3.49705 1.8798,-1.38692 4.2867,-2.52168 5.3486,-2.52168 1.5986,0 1.8306,0.50054 1.3488,2.90955 -0.4162,2.08123 -0.1461,3.07678 0.949,3.49697 0.8419,0.32309 1.3531,1.37629 1.136,2.34046 -0.2171,0.96416 0.6657,3.90739 1.9619,6.54051 2.5111,5.10114 2.3309,6.71251 -0.7509,6.71251 -2.4603,0 -4.5223,-3.20351 -6.1148,-9.5 -0.6955,-2.75 -1.3506,-5.14196 -1.4557,-5.31548 -0.1051,-0.17351 -2.8996,1.05173 -6.2098,2.72275 -3.7943,1.91535 -7.5854,4.8962 -10.2578,8.06548 -4.4035,5.22227 -6.547,6.17845 -7.6144,3.39669 z m 203.2548,197.53729 c 7.2487,-1.33555 16.0772,-5.37211 17.4792,-7.99181 2.165,-4.04541 -5.9252,-8.55542 -23.2345,-12.95235 -4.5711,-1.16115 -9.5038,-2.86525 -10.9616,-3.78688 -3.7485,-2.36977 -25.8019,-25.97322 -33.6081,-35.97011 l -6.5475,-8.38509 0.8511,-19.66024 c 1.0858,-25.08173 1.0862,-47.26716 10e-4,-73.41025 -0.7959,-19.18132 -1.0003,-20.75 -2.7037,-20.75 -2.4289,0 -2.4002,-3.05491 0.1416,-15.09821 1.0914,-5.17098 1.9914,-11.45664 2,-13.96813 0.026,-7.46056 -1.9424,-16.28459 -3.9997,-17.93366 -1.7793,-1.42625 -1.7948,-1.8196 -0.3168,-8 1.1927,-4.98691 1.4213,-9.64256 0.9819,-20 -0.5888,-13.88042 -2.5019,-30.01344 -3.5555,-29.98262 -0.3268,0.01 -3.6727,2.72278 -7.4354,6.02936 -12.5399,11.01999 -26.3536,15.77707 -48.4217,16.67524 l -13.2628,0.53979 3.6535,6.61912 c 2.0095,3.64051 6.736,10.94149 10.5035,16.22439 9.0682,12.71594 9.8687,14.83936 9.8687,26.17624 0,9.072 0.1312,9.60751 4.4771,18.28212 4.6622,9.30582 5.1635,11.30288 3.5646,14.19993 -1.9025,3.44691 -4.2168,16.96161 -4.7498,27.73643 -0.9776,19.76078 1.9867,31.31025 11.5563,45.02571 7.7892,11.16375 8.5758,14.76845 7.8501,35.97429 -0.4403,12.86827 -1.0524,17.85946 -3.1271,25.5 -3.5005,12.89158 -5.0218,28.22788 -3.1576,31.83282 3.1853,6.15971 4.2312,6.48935 20.8852,6.5821 l 15.2769,0.0851 8.4622,4.19297 c 8.2745,4.10002 15.5278,5.91536 26.4621,6.62297 11.1022,0.71846 15.399,0.635 21.0664,-0.40921 z m 3.0063,-9.82642 c -0.979,-1.08182 -3.0834,-2.25321 -4.6763,-2.60308 -1.593,-0.34988 -2.8963,-1.00224 -2.8963,-1.4497 0,-3.01846 9.519,-1.11837 10.5418,2.10426 0.9735,3.06722 -0.8649,4.27368 -2.9692,1.94852 z m -79.154,-21.15538 c -4.2198,-1.22528 -6.4878,-4.02146 -7.127,-8.78691 -0.7039,-5.248 0.1295,-8.29664 3.297,-12.06095 4.9267,-5.8551 7.1493,-2.46117 3.8266,5.84321 -2.2087,5.52006 -1.5921,7.06732 3.5759,8.97356 4.6176,1.70319 6.4141,4.60068 3.8572,6.22102 -1.6316,1.03402 -3.3672,0.98965 -7.4297,-0.18993 z m -6.0569,-85.4245 c -0.4225,-1.10101 0.4759,-2.55574 2.7557,-4.4626 l 3.3826,-2.82909 0,-9.35437 c 0,-5.1449 0.3375,-9.46687 0.75,-9.60437 1.8258,-0.60862 2.5835,-0.0661 3.7118,2.65797 1.6907,4.08167 -0.088,18.43995 -2.7233,21.98641 -2.2947,3.08786 -6.9443,4.03591 -7.8768,1.60605 z m 7.2374,-75.25043 c -8.3425,-6.16249 -8.8872,-6.76711 -8.1599,-9.05859 0.7084,-2.23194 4.5608,-3.15038 4.5608,-1.08734 0,0.60724 2.7114,3.75724 6.0254,7 5.2802,5.16661 5.733,5.89593 3.6611,5.89593 -1.3005,0 -4.0398,-1.2375 -6.0874,-2.75 z m -6.0249,-34.91722 c -0.7948,-2.07121 -0.031,-2.78569 4.5328,-4.24234 4.0951,-1.30695 6.1849,-3.14561 8.9945,-7.9138 1.9743,-3.3506 4.1473,-3.80535 4.695,-0.9826 0.1632,0.84058 -1.2058,3.49815 -3.0421,5.90572 -5.785,7.58466 -13.6139,11.31492 -15.1802,7.23302 z m -98.4122,-28.75608 c 7.6675,-1.48722 35.255,-10.84802 37.5266,-12.73329 0.8812,-0.73133 1.3114,-3.70459 1.3114,-9.06473 0,-12.67361 2.3003,-15.83108 12.6196,-17.32227 2.6842,-0.38788 5.5161,-1.04564 6.2932,-1.46169 0.777,-0.41606 5.052,-5.64757 9.5,-11.62559 5.4766,-7.36053 8.8135,-10.97228 10.3372,-11.18868 3.4665,-0.49233 2.8379,2.41654 -2.1193,9.80625 -2.403,3.58231 -5.5831,8.66977 -7.0668,11.30546 -3.1826,5.65353 -9.4312,10.50307 -14.5977,11.32922 -2.0297,0.32457 -4.2957,0.96421 -5.0355,1.42142 -1.259,0.77811 -3.1555,12.83517 -2.1954,13.9572 0.2353,0.275 4.605,0.65385 9.7104,0.8419 7.889,0.29057 11.0087,-0.11878 20.7816,-2.7269 15.9821,-4.2652 19.4264,-5.94994 29.7778,-14.5654 4.9889,-4.15228 9.7287,-7.5496 10.5328,-7.5496 2.3856,0 1.6933,-2.09045 -2.2968,-6.93564 -2.0673,-2.5104 -4.401,-5.38626 -5.1859,-6.39081 -0.9941,-1.27238 -1.636,-6.12613 -2.1158,-16 -0.7517,-15.46688 -1.5297,-18.29596 -8.6189,-31.34096 l -3.8951,-7.167403 -2.4627,3.59294 c -2.0241,2.95306 -2.495,4.941943 -2.6438,11.167413 -0.1,4.16595 -0.2121,7.94185 -0.25,8.39088 -0.038,0.44903 -1.3064,0.67403 -2.8189,0.5 -2.1697,-0.24965 -2.8175,-0.90416 -3.0699,-3.10161 -0.4065,-3.54018 2.9809,-13.732933 6.7182,-20.214813 l 2.8828,-5 -2.3688,-6.3113 c -1.9443,-5.18001 -2.2554,-7.39704 -1.7358,-12.36844 l 0.6331,-6.05713 -4.3197,3.12918 c -9.4567,6.8504 -28.0139,10.42076 -54.0235,10.39403 l -18.5336,-0.0191 0.3799,3.25437 c 0.4481,3.8381 -2.3357,10.60504 -6.2848,15.27751 -2.8429,3.36353 -9.0586,6.966553 -15.7621,9.136633 -2.0537,0.66485 -4.7537,2.49282 -6,4.06215 -1.8163,2.28729 -2.8211,2.7439 -5.0649,2.30174 -4.5798,-0.90251 -2.8641,-3.12474 7.2991,-9.45381 11.5488,-7.192023 19.0059,-14.466533 18.9863,-18.521523 -0.03,-6.29087 -0.6247,-6.87359 -8.3313,-8.16852 -3.9642,-0.66611 -8.4848,-1.87367 -10.0457,-2.68347 -1.5609,-0.80976 -3.2154,-1.47232 -3.6766,-1.47232 -1.5733,0 -2.9216,7.48529 -2.9272,16.25 0,4.8125 -0.3695,8.75 -0.8144,8.75 -0.4449,0 -1.6505,-0.6154 -2.6791,-1.36757 -1.824,-1.33369 -1.8179,-1.68214 0.2442,-14.06968 1.163,-6.98617 2.6487,-13.34576 3.3016,-14.13244 1.497,-1.8038 6.3399,-1.86096 7.8078,-0.0922 5.5877,6.73275 61.4302,7.74683 82.2985,1.49452 4.5289,-1.35689 11.7443,-7.33035 14.7722,-12.22964 1.135,-1.8365 2.0637,-3.59065 2.0637,-3.89811 0,-0.30745 -2.5312,0.96514 -5.6247,2.82799 -15.2448,9.17991 -35.7503,12.1288 -65.3753,9.40159 -15.6579,-1.44142 -25.2924,-3.49666 -32.9234,-7.02319 -4.9536,-2.28923 -6.6042,-2.6759 -7.2138,-1.68988 -0.4347,0.70321 -2.9442,6.22857 -5.5766,12.27857 l -4.7862,11 0.236,28.000003 c 0.2347,27.82877 0.2174,28.08867 -2.8205,42.5 -1.6811,7.975 -4.3748,19.81873 -5.9861,26.3194 -1.6112,6.50071 -2.9294,12.45166 -2.9294,13.22436 0,2.27171 7.6683,5.64659 25,11.0026 9.0409,2.79393 9.8465,2.83725 19.162,1.03038 z m 24.49,-70.33074 c -0.3622,-0.58601 -0.3944,-1.75371 -0.072,-2.59489 0.5002,-1.30371 4.3744,-1.58472 26.2532,-1.90428 27.1761,-0.39693 30.863,-0.93777 36.0297,-5.28522 5.7126,-4.80689 8.7662,-1.35499 3.3725,3.81249 -5.284,5.06239 -9.4774,5.76556 -38.3306,6.42737 -18.3647,0.42124 -26.7985,0.28029 -27.2532,-0.45547 z m 3.348,-9.15707 c 0,-3.49378 7.4798,-8.50001 21.5018,-14.39106 3.299,-1.38602 9.5982,-4.14252 13.9982,-6.12555 l 8,-3.605523 -6.5,0.53308 c -32.0969,2.63237 -33.0516,2.820333 -41.1242,8.095803 -3.2836,2.14582 -6.1332,1.23223 -5.696,-1.82614 0.4778,-3.34211 6.8454,-6.328263 18.8202,-8.825903 8.4554,-1.7636 14.1764,-2.21472 29.3808,-2.31682 16.917,-0.11359 18.9957,0.0538 19.9861,1.60932 1.7442,2.7397 -1.7681,5.36102 -10.8669,8.110123 -11.4766,3.46751 -30.6242,11.8482 -37.8991,16.58804 -6.8801,4.48252 -9.6009,5.09314 -9.6009,2.15463 z m 35,-64.499003 c 11.2374,-3.12001 12.4924,-4.0701 13.8113,-10.45522 1.1288,-5.46543 2.5852,-8.13467 4.4383,-8.13467 0.4673,0 0.5385,2.74997 0.1583,6.11103 -0.6696,5.91809 -0.6275,6.07684 1.3327,5.02778 2.9953,-1.60303 3.3733,-3.56363 2.134,-11.06809 -0.9339,-5.65484 -0.8244,-8.42302 0.6594,-16.675561 0.9786,-5.44234 1.9562,-11.6951603 2.1724,-13.8951603 l 0.3931,-4 -2.5969,2.86053 c -1.4283,1.57329 -2.8425,4.0886603 -3.1427,5.5897103 -0.4736,2.36789 -1.0544,2.74911 -4.388,2.87973 -3.0579,0.11982 -4.2636,-0.38526 -5.907,-2.47457 -2.4167,-3.0722603 -2.7606,-7.3554003 -0.5906,-7.3554003 0.8109,0 2.1724,1.35 3.0257,3 0.8532,1.65 1.9007,3.0000003 2.3278,3.0000003 1.1663,0 11.7863,-16.9123103 13.5008,-21.5 2.0714,-5.54267 2.9106,-10.76589 1.5995,-9.95557 -2.0232,1.25041 -5.9109,-0.61033 -7.4356,-3.55892 -1.4891,-2.87946 -1.7907,-2.98551 -8.4925,-2.98551 -6.7434,0 -6.9955,-0.0906 -8.535,-3.06768 -1.9001,-3.67435 -1.5864,-7.29354 0.6693,-7.72316 1.0521,-0.20036 1.9961,0.7263 2.6495,2.60067 0.9555,2.74088 1.4306,2.95288 8.0885,3.60893 6.3784,0.62851 7.3178,1.00942 9.5623,3.87732 1.5866,2.02738 2.8193,2.82208 3.4002,2.19212 0.5012,-0.54351 1.2054,-6.11571 1.5648,-12.38266 0.5703,-9.94515 0.4669,-11.2397 -0.8126,-10.17774 -1.7597,1.46037 -6.7766,1.04853 -7.3176,-0.6007 -0.2116,-0.64509 0.6495,-1.32009 1.9136,-1.5 3.5736,-0.50863 5.2865,-5.04205 3.8421,-10.16859 -2.2976,-8.15414 -2.3398,-8.65851 -0.7251,-8.65851 0.8433,0 1.7603,0.5625 2.0377,1.25 0.2774,0.6875 0.5399,-0.2125 0.5833,-2 0.094,-3.88533 -0.1424,-3.93361 -4.2378,-0.86422 -7.3869,5.53633 -11.7123,6.99896 -20.8724,7.05811 -8.5799,0.0554 -8.7338,0.0128 -12.25,-3.39006 -1.9585,-1.89539 -3.5608,-4.28079 -3.5608,-5.30089 0,-1.64149 0.4136,-1.53923 3.5977,0.88943 7.5805,5.78195 20.1587,4.08463 30.6218,-4.13214 7.8041,-6.12866 9.1739,-9.04571 8.4256,-17.94228 -0.3269,-3.88737 -0.8543,-10.217946 -1.1719,-14.067946 -0.6309,-7.64907 0.3598,-10.71341 2.807,-8.68234 1.7249,1.43154 3.2111,13.86199 3.2162,26.900826 l 0,9.2185 6.5,6.60488 c 13.6044,13.82393 27.8518,22.44868 40.3771,24.44244 3.7825,0.60208 7.0672,0.90472 7.2993,0.67253 0.2322,-0.23219 -2.4148,-1.74975 -5.8822,-3.37236 -11.4363,-5.35151 -17.8748,-10.28448 -13.4236,-10.28448 0.7541,0 5.8166,1.96647 11.25,4.36993 22.8409,10.10363 32.8535,13.63007 38.6994,13.63007 3.7238,0 7.1273,0.72937 10.0662,2.15719 3.8649,1.8777 4.8306,1.99545 7.4539,0.90885 4.0753,-1.68803 7.8329,-7.40698 9.242,-14.06604 0.6401,-3.025 2.0537,-7.25837 3.1413,-9.40749 3.5215,-6.95853 4.9801,-13.45513 4.2589,-18.96932 -0.3686,-2.81775 -2.6278,-18.398186 -5.0206,-34.623186 -2.3927,-16.225 -4.6587,-32.7625 -5.0355,-36.75 -0.6396,-6.76865 -0.8425,-7.25 -3.0559,-7.25 -3.17,0 -2.99,-1.60809 0.5098,-4.55294 3.1387,-2.64104 5.7787,-7.49318 6.7678,-12.43886 l 0.6303,-3.15147 -3.8777,1.62021 c -2.1327,0.89112 -4.8679,1.3717 -6.078,1.06797 -1.2102,-0.30374 -2.4795,-0.1006 -2.8207,0.45142 -0.3411,0.55202 -2.5287,1.00367 -4.8613,1.00367 -5.6333,0 -6.9963,1.41211 -5.0311,5.21243 1.9595,3.78925 1.4786,9.15972 -0.8598,9.6027 -1.38,0.26142 -1.7532,-0.37121 -1.7648,-2.99181 -0.022,-4.90572 -1.9526,-7.93828 -7.3688,-11.57332 -3.9136,-2.62657 -5.8375,-3.25 -10.0295,-3.25 -4.7646,0 -7.5869,-1.1904 -7.5869,-3.2 0,-0.44 2.8643,-0.8 6.3651,-0.8 7.4295,0 11.6349,-2.41583 11.6349,-6.68387 0,-2.41246 -0.1865,-2.49801 -3.75,-1.72027 -4.7327,1.0329 -9.842,1.10254 -13.936,0.18995 -2.3905,-0.53288 -3.7636,-0.24153 -5.5,1.16707 -2.0881,1.69393 -2.2875,2.58413 -2.0426,9.11638 0.1633,4.3556 1.0173,8.92537 2.144,11.4724 2.0515,4.6378 4.2978,5.77985 13.6977,6.96416 3.5645,0.4491 6.2147,1.55217 8.75,3.642 4.0012,3.29813 4.7264,5.85218 1.6616,5.85218 -1.7071,0 -1.8428,0.34822 -1,2.5651 1.2638,3.3241 1.2134,17.65463 -0.082,23.4349 -0.5549,2.475 -3.0168,7.46441 -5.4709,11.08758 -2.4542,3.62317 -4.9278,7.92327 -5.4969,9.55579 -1.068,3.06371 -0.6293,4.52644 4.0055,13.356626 2.4971,4.75723 4.4743,10.87908 3.7483,11.6051 -1.1146,1.11462 -2.6434,-0.66578 -5.9153,-6.88906 -3.9828,-7.57557 -13.7137,-17.581906 -19.813,-20.373926 -2.475,-1.13296 -9.1695,-3.10753 -14.8767,-4.38795 -10.1897,-2.28606 -10.402,-2.29351 -11.7769,-0.41317 -1.0952,1.49785 -1.7754,1.68162 -3.1233,0.84386 -1.8947,-1.17765 -3.3516,-5.26092 -5.6679,-15.88485 -1.3376,-6.1353 -2.0529,-7.46291 -5.7906,-10.74735 -2.3455,-2.06105 -7.996,-5.64093 -12.5567,-7.95529 -10.0194,-5.08449 -16.4449,-5.8049 -30.4629,-3.41545 -9.0098,1.53578 -19.8621,1.17974 -24.7891,-0.81328 -1.2258,-0.49585 -1.8097,0.66118 -2.8324,5.61229 -1.654,8.00831 -3.6367,11.81908 -6.1491,11.81908 -2.4155,0 -2.4155,-0.0104 0.039,-7.83909 3.1267,-9.97471 3.341,-9.6685 -6.7629,-9.66443 -8.2912,0.003 -9.1957,-0.21882 -17.25,-4.23675 -4.675,-2.33215 -11.1309,-6.31029 -14.3464,-8.8403 -5.8025,-4.5654 -5.8416,-4.63135 -5.1986,-8.75973 0.3564,-2.28784 0.6328,-5.87866 0.6142,-7.97961 -0.027,-3.09307 0.2958,-3.75713 1.6985,-3.48996 1.3915,0.26505 1.7921,1.60528 2.0363,6.81297 0.3863,8.23755 1.3689,9.29552 14.4676,15.57786 8.7542,4.19864 11.2364,4.94793 17.2281,5.20059 10.1883,0.42964 13.807,-1.89372 18.7511,-12.03903 4.2248,-8.66932 5.7022,-16.47588 5.7235,-30.24252 0.037,-24.00103 -6.8048,-44.92974 -17.3068,-52.94001 -11.418,-8.70891 -29.5911,-9.79943 -41.1495,-2.46929 -8.8221,5.59482 -14.9771,17.71698 -14.8806,29.30738 0.043,5.20336 0.362,6.12604 2.7058,7.83341 1.4612,1.06443 2.6568,2.57279 2.6568,3.35192 0,1.61706 -2.5691,1.92285 -3.5,0.41659 -0.8733,-1.41291 -5.0533,-1.24325 -6.2972,0.2556 -1.6813,2.02587 -2.471,6.50119 -1.7889,10.13747 0.6874,3.66381 7.8861,12.60693 10.148,12.60693 0.7656,0 2.1617,1.17478 3.1025,2.61062 1.5196,2.31922 1.5807,3.50154 0.5472,10.59254 -1.6363,11.22617 -5.2097,23.97054 -6.5828,23.477 -0.6209,-0.22316 -2.2538,0.15465 -3.6288,0.83957 -1.375,0.68493 -6.0972,2.22688 -10.4936,3.42656 -5.6457,1.54056 -9.611,3.39686 -13.5,6.3199 -6.5867,4.95058 -16.0064,13.69206 -16.0064,14.85387 0,0.45647 1.35,0.55994 3,0.22994 2.2887,-0.45775 3,-0.23685 3,0.93168 0,1.44588 -8.9585,5.71516 -18.112,8.63152 -4.585,1.4608 -14.5254,7.40658 -18.2296,10.90394 -3.7015,3.4947 -6.3608,8.72659 -9.7505,19.182856 l -2.7555,8.5 2.6738,0.76936 c 6.7766,1.9499 15.6702,1.15745 25.0769,-2.23443 6.7024,-2.41679 9.5103,-3.02144 10.3113,-2.22044 1.7434,1.74338 -0.5524,3.69448 -8.0156,6.81217 -6.0095,2.51039 -8.0365,2.82332 -19.6988,3.04114 -7.15,0.13354 -14.0239,0.49933 -15.2753,0.81288 -4.6446,1.16376 -14.7988,12.34175 -16.6869,18.36941 -0.5743,1.83339 -0.079,3.04265 2.2527,5.5 1.6438,1.73245 3.3097,4.27491 3.7019,5.64991 0.3922,1.375 2.2952,6.4592 4.2288,11.29822 1.9336,4.83901 3.2583,9.05556 2.9438,9.37009 -0.3146,0.31454 -1.6599,0.29882 -2.9896,-0.0349 -2.5405,-0.63762 -5.7468,-6.71973 -7.1872,-13.63339 -1.3017,-6.24857 -3.3963,-8.89054 -11.6126,-14.64791 -10.9368,-7.66357 -14.5675,-11.60881 -16.3364,-17.75131 -0.8078,-2.80543 -2.371,-8.27554 -3.4736,-12.15581 -1.1026,-3.88027 -2.715,-8.75496 -3.5832,-10.83265 -1.3064,-3.12673 -1.8285,-3.56998 -3.0304,-2.57252 -1.2157,1.00894 -1.452,0.70604 -1.452,-1.86089 0,-3.183636 1.4523,-4.688776 12,-12.436416 5.5455,-4.07338 8.1735,-10.46449 7.7128,-18.75695 -0.3269,-5.88436 -3.8172,-14.42788 -6.2804,-15.37308 -0.8116,-0.31144 -3.7326,0.32335 -6.4911,1.41064 -2.7584,1.0873 -6.2816,1.9769 -7.8291,1.9769 -1.5476,0 -4.2457,0.49915 -5.9957,1.10923 -2.5985,0.90582 -3.0684,1.50181 -2.5624,3.25 1.7085,5.90288 8.113,7.15967 16.0264,3.14496 5.6839,-2.88362 7.4195,-3.11262 7.4195,-0.97894 0,0.9246 -2.8896,2.84203 -7.3376,4.86906 -5.584,2.54472 -7.8802,4.22193 -9.6085,7.01834 -2.5687,4.15633 -2.7607,5.73893 -1.6784,13.83735 0.6295,4.71062 0.5061,5.75 -0.6823,5.75 -2.1,0 -4.2048,-5.74717 -4.1202,-11.25 0.071,-4.61016 -0.9666,-5.88991 -3.123,-3.85243 -0.5225,0.49367 -2.75,1.1514 -4.95,1.46163 -2.2,0.31023 -5.6937,0.85628 -7.7638,1.21344 -2.3747,0.40971 -4.2996,0.20474 -5.2154,-0.55537 -0.9342,-0.77532 -2.8665,-0.96571 -5.421,-0.53414 l -3.9693,0.67062 3.1847,7.01302 c 3.15,6.93656 3.2499,7.03554 9.1588,9.07827 5.7111,1.974336 6.1792,1.992386 10.6342,0.4101 2.5631,-0.91033 4.9373,-1.65514 5.276,-1.65514 1.4355,0 0.4336,2.439466 -1.8842,4.587576 -3.052,2.82847 -3.1774,6.32259 -0.443,12.3499 2.0065,4.42307 1.9779,7.06252 -0.077,7.06252 -1.5937,0 -3.6853,-5.69327 -4.4969,-12.24043 -0.6704,-5.40824 -0.8486,-5.70604 -3.0799,-5.14602 -1.3025,0.32692 -3.7262,0.12102 -5.3859,-0.45755 -1.6597,-0.5786 -3.0176,-0.95654 -3.0176,-0.83988 0,0.44368 3.8395,10.35155 5.4378,14.03205 0.9191,2.11651 3.1965,14.04151 5.061,26.5 3.272,21.86326 4.7694,27.94098 9.5232,38.65181 3.4467,7.76573 6.4591,11.1024597 14.1464,15.6693497 5.4137,3.21623 7.9144,5.4846 10.4967,9.52135 3.8199,5.9715303 7.1404,8.5593003 10.9828,8.5593003 3.0629,0 23.9635,-10.2220303 33.3521,-16.31173029 10.1426,-6.57887001 14.5494,-10.56603971 24.5881,-22.24686971 10.9728,-12.76778 13.2979,-17.85015 14.0212,-30.64798 0.9826,-17.38532 1.9059,-20.04342 6.9621,-20.04342 1.881,0 2.4286,0.52872 2.4286,2.34501 0,1.28976 -0.8673,3.12984 -1.9272,4.08906 -2.2309,2.01898 -2.7803,4.83291 -4.0151,20.56593 -0.8984,11.44753 -0.8889,11.53194 2.0786,18.5 1.6397,3.85 3.5173,8.09934 4.1724,9.44297 1.8297,3.75225 11.3765,13.6986397 18.1276,18.88637971 11.4135,8.77036999 14.138,13.05500029 17.1911,27.03530129 1.2774,5.84944 2.3338,12.45984 2.3476,14.68976 0.025,4.02262 0.082,4.08317 7.275,7.72111 3.9875,2.01669 8.4844,3.95273 9.9933,4.30232 l 2.7432,0.63561 -1.4182,-4.01968 c -1.2824,-3.63477 -1.253,-4.16914 0.3066,-5.58057 1.5826,-1.43224 1.8554,-1.33639 3.3094,1.16295 0.8716,1.49812 1.8975,4.18677 2.2799,5.97479 0.84,3.92847 1.5631,4.15594 16.7292,5.26228 15.4604,1.12781 36.0884,0.44193 42.8066,-1.42333 z m -27.6209,-2.02647 c -4.077,-1.77442 -7.9581,-6.96065 -9.4871,-12.67733 -1.4006,-5.23662 -0.6908,-8.18384 1.8549,-7.70233 1.2526,0.23692 2.05,1.89956 2.7932,5.82391 1.087,5.74006 1.0548,5.70623 12.0701,12.69057 1.6394,1.03948 1.691,1.33556 0.3898,2.23469 -1.978,1.36671 -3.839,1.27648 -7.6209,-0.36951 z m 28.8209,-16.76342 c -2.5638,-2.56376 0.041,-10.8 3.415,-10.8 1.6446,0 1.8857,5.55266 0.4097,9.4349 -1.0771,2.83297 -2.0203,3.16959 -3.8247,1.3651 z m -37.2096,-9.65573 c -1.7733,-1.77328 -2.9904,-4.039271 -2.9904,-5.567351 0,-3.36397 0.9876,-3.2506 4.5629,0.52372 1.6154,1.70535 3.9861,3.508121 5.2683,4.006151 2.9837,1.15892 2.3101,3.29909 -1.1679,3.71056 -1.9129,0.22629 -3.5405,-0.54063 -5.6729,-2.67308 z M 1379.58,19.595766 c -2.8311,-2.22695 -5.6096,-7.79177 -5.6096,-11.2348803 0,-1.68323 0.9116,-1.09866 4.75,3.0457303 4.9881,5.38583 9.3425,7.32933 12.2931,5.48668 0.9577,-0.59808 2.0147,-0.81391 2.349,-0.47962 1.3,1.29995 0.4967,3.0041 -1.9392,4.11396 -3.9125,1.78267 -8.8902,1.391 -11.8433,-0.93187 z m 36.715,-1.51911 c -1.7464,-0.86128 -3.9451,-2.41665 -4.8861,-3.45638 -1.6148,-1.78439 -1.6139,-1.92759 0.016,-2.55314 0.9499,-0.36449 3.2764,0.0761 5.1701,0.97915 4.7322,2.25666 7.0231,2.062 9.5193,-0.80888 2.7096,-3.1163703 5.9562,-3.7839203 12.8559,-2.6433603 6.357,1.0508503 10.6802,-0.41266 14.1139,-4.77789 1.8647,-2.37053 1.994,-3.44682 1.3667,-11.37315 -0.7576,-9.5712097 0.1741,-11.1688997 3.21,-5.5048497 1.1325,2.1129997 1.7538,5.5393897 1.7757,9.7939797 0.057,11.0985 -3.6897,14.3900003 -18.264,16.0447503 -6.5157,0.73978 -9.5953,1.60657 -12.2561,3.44966 -4.0769,2.82398 -8.0733,3.09315 -12.6216,0.85011 z M 1393.3295,4.7654657 c -3.8671,-2.358 -4.909,-3.92742999 -3.5258,-5.31069999 0.7456,-0.74551001 2.5713,-0.40862 6.1659,1.13771 5.6919,2.44859999 8.0401,2.13241999 10.8686,-1.46343 1.056,-1.34249001 2.4177,-2.44089001 3.0261,-2.44089001 1.8399,0 1.2418,4.55769 -0.9665,7.36514 -1.7632,2.24153 -2.8455,2.6343 -7.25,2.63112 -3.3355,-0.002 -6.2948,-0.68509 -8.3183,-1.91895 z m -138.3591,-0.0773 c 0,-0.55 -2.2642,-1 -5.0314,-1 -3.6909,0 -5.1951,-0.42655 -5.6457,-1.60092 -0.8609,-2.24327999 1.4005,-3.36589 6.8163,-3.38377 5.3451,-0.0176 9.5952,2.62849 8.5589,5.32893 -0.6791,1.76965 -4.6981,2.33062 -4.6981,0.65576 z m 107.536,-11.73213 c -1.3948,-2.05268 -2.5294,-4.8651797 -2.5212,-6.2499997 0.014,-2.41357 0.1519,-2.35592 3.3226,1.39176 3.0532,3.6088297 3.6002,3.8621797 7.109,3.2927697 5.0413,-0.81808 5.3129,-1.26517 2.5536,-4.2023997 -1.2877,-1.37066 -2.0382,-2.7952 -1.6677,-3.16563 1.0028,-1.00282 9.685,3.34093 14.1199,7.0642097 5.7842,4.85614 2.5575,7.90193 -3.8773,3.65998 -2.8895,-1.90477 -2.9551,-1.90469 -5.3849,0.007 -1.5718,1.23638 -4.0225,1.93485 -6.7889,1.93485 -3.8791,0 -4.5926,-0.3879 -6.8651,-3.73213 z m 43.964,-1.1486 c -4.8728,-2.2375897 -7.7952,-5.3479097 -7.324,-7.7948697 0.4832,-2.50899 4.1954,-2.36934 4.6679,0.1756 1.282,6.9053997 6.7612,5.74532 21.3914,-4.52909 5.1804,-3.63803 8.2763,-5.02967 13.2965,-5.97692 9.0626,-1.70999 10.7165,-3.27899 11.2514,-10.67381 0.3403,-4.70533 -0.016,-6.85649 -1.6755,-10.1089 -2.5035,-4.90728 -2.5414,-5.21128 -0.6499,-5.21128 1.8589,0 6.1293,7.41465 6.9373,12.04525 0.3673,2.10506 -0.015,5.67857 -0.9408,8.7967 -1.8534,6.24101 -4.6938,8.35473 -13.5747,10.10194 -5.1407,1.01137 -6.8775,1.99656 -12.4955,7.08782 -5.9203,5.3651897 -11.0028,7.9886097 -15.3841,7.9407497 -0.825,-0.009 -3.3,-0.84295 -5.5,-1.85319 z m -161.5275,-2.7630297 c -4.0402,-2.68595 -14.9725,-13.69487 -14.9725,-15.07735 0,-2.79648 3.439,-0.9872 8.8682,4.66555 6.3265,6.58705 9.175,8.05556 15.6254,8.05556 4.1659,0 6.8154,-1.42712 7.727,-4.16205 0.6176,-1.85268 3.9755,-0.0947 3.5948,1.88197 -0.9662,5.01684 -15.4308,8.2343797 -20.8429,4.63632 z m 116.5275,-9.55119 c -1.1,-0.62377 -2.3307,-1.62258 -2.7347,-2.21959 -0.7587,-1.12083 -1.0763,-8.58546 -0.3653,-8.58546 0.22,0 1.975,1.575 3.9,3.5 3.1666,3.16667 4.0333,3.5 9.1,3.5 3.08,0 5.6,-0.27274 5.6,-0.60608 0,-0.33334 -1.1279,-1.49324 -2.5064,-2.57755 -3.5276,-2.77487 -4.9822,-5.72888 -3.5323,-7.17373 0.8605,-0.85748 1.5699,-0.59395 2.8426,1.05601 2.1718,2.81537 6.1926,4.30135 11.6387,4.30135 4.7359,0 7.3111,1.84626 5.3336,3.82379 -0.647,0.64692 -2.7737,1.19025 -4.7262,1.20742 -1.9759,0.0174 -5.3238,1.12366 -7.55,2.49488 -4.4074,2.71459 -13.2899,3.38285 -17,1.27896 z m 51.2012,-4.43715 c -0.3857,-0.38568 -0.7012,-2.4163 -0.7012,-4.5125 0,-3.63595 0.2595,-3.93926 5.6425,-6.59391 5.1409,-2.5352 5.9768,-3.43235 9.4004,-10.08896 2.0668,-4.01848 4.5901,-7.94902 5.6074,-8.73453 2.3954,-1.84957 7.3492,-1.41519 8.7134,0.76404 1.5121,2.41545 0.2284,3.20003 -3.2512,1.98703 -3.6833,-1.28398 -4.6133,-0.34432 -5.6046,5.66279 -0.8752,5.30371 -4.3018,9.3392 -11.0079,12.96399 -4.2705,2.30827 -5,3.1358 -5,5.67164 0,2.86661 -2.1684,4.51079 -3.7988,2.88041 z m -134.2012,-3.3679 c -1.0844,-1.75456 0.3937,-2.82718 6.2365,-4.52574 3.9,-1.13377 6.7504,-2.77114 9.0279,-5.18595 4.6711,-4.95282 9.2097,-14.43337 10.3684,-21.65808 1.0939,-6.82078 2.2135,-8.68393 4.0903,-6.80706 0.9642,0.96422 0.8741,2.9115 -0.4259,9.19829 -3.0323,14.66454 -8.8939,24.17968 -17.2972,28.07869 -4.332,2.00993 -11.0047,2.5103 -12,0.89985 z m 94.8052,-9.49505 c -4.429,-1.88812 -11.8511,-8.94595 -16.3052,-15.50495 -4.1141,-6.05815 -10.501,-12.31782 -16.8663,-16.53016 -4.2797,-2.83223 -5.2489,-5.10469 -2.609,-6.11772 3.4271,-1.3151 20.916,13.75782 27.1402,23.39098 4.0934,6.33534 9.1858,9.2569 16.1353,9.2569 11.3428,0 31.9883,-7.81975 42.7071,-16.17592 10.5684,-8.23891 13.4537,-16.18106 9.9386,-27.35678 -0.986,-3.13449 -2.8396,-7.2419 -4.1193,-9.12759 -2.3156,-3.41225 -3.0309,-6.339706 -1.5492,-6.339706 2.2651,0 5.6734,3.930966 8.9513,10.323996 3.0627,5.97337 3.6752,8.19215 3.6549,13.23928 -0.035,8.74164 -2.9952,14.23468 -11.2459,20.87021 -7.1533,5.75293 -24.2525,15.68497 -31.9133,18.53681 -6.5524,2.43922 -19.8032,3.28938 -23.9192,1.53465 z m 208.0311,-11.07087 c -0.6545,-1.7056 5.16,-8.43409 7.2884,-8.43409 0.6778,0 1.9511,-0.71871 2.8295,-1.59713 0.9504,-0.95038 2.2954,-1.32379 3.3215,-0.92213 1.4953,0.58537 1.3482,0.96338 -1.1083,2.84712 -1.5579,1.19468 -4.667,3.85964 -6.9091,5.92214 -4.6674,4.29348 -4.6199,4.27434 -5.422,2.18409 z m -130.6814,-2.26283 c -2.2246,-2.45826 -2.1693,-4.59627 0.095,-3.66716 3.2938,1.35152 4.6119,0.9945 5.2035,-1.40946 1.3397,-5.44336 6.1377,-5.27637 12.8234,0.44632 6.4088,5.48572 5.4377,7.58021 -1.372,2.95904 -4.7754,-3.24071 -7.4048,-3.27871 -7.4048,-0.10699 0,3.86952 -6.3577,5.0793 -9.3451,1.77825 z m 83.9628,-18.28356 c -10.0172,-2.35165 -28.6177,-16.5177 -28.6177,-21.79511 0,-3.12699 1.0653,-2.59627 5.7814,2.87998 6.0173,6.98726 19.5303,13.61844 30.9742,15.1998 9.9919,1.38072 15.0933,0.21132 19.3343,-4.43201 2.4176,-2.64692 2.929,-2.85456 3.4819,-1.41377 0.9398,2.449 -2.0037,6.34292 -6.5466,8.66055 -3.0823,1.57245 -5.7594,1.99088 -12.2354,1.91241 -4.5594,-0.0553 -10.0369,-0.51058 -12.1721,-1.01185 z m 44.6379,-4.03208 c -0.8925,-0.89252 -0.5877,-1.86071 1.2875,-4.08923 1.3513,-1.60591 2.4603,-3.44781 2.4644,-4.09312 0,-0.6453 0.434,-4.88139 0.9551,-9.41353 0.7439,-6.46907 0.6371,-9.263346 -0.4967,-12.999996 -1.8009,-5.93491 -1.8009,-6.25974 -10e-4,-6.25974 3.6215,0 5.2112,9.81707 3.5624,21.999996 -1.6063,11.86879 -4.7497,17.8775 -7.7716,14.85562 z m -357.0362,-7.27335 c -1.6825,-3.69268 -3.4348,-14.5879 -2.7714,-17.23124 0.9589,-3.820546 2.2478,-2.701546 2.9454,2.55711 0.3581,2.69948 1.5038,7.38671 2.5461,10.41607 1.0422,3.02936 1.6322,5.7707 1.3111,6.09186 -1.2569,1.25682 -2.9802,0.47284 -4.0312,-1.8338 z m 108.4472,-14.24894 c -1.3304,-1.33043 -0.5722,-2.34004 4.6609,-6.205916 3.9482,-2.91675 5.7819,-5.12553 7.0827,-8.53154 2.0976,-5.49259 4.5898,-6.16569 4.5898,-1.23967 0,6.91945 -12.8355,19.474996 -16.3334,15.977126 z m 30.7795,-28.420456 c -1.409,-2.27989 1.8893,-3.28679 13.268,-4.05037 6.4714,-0.43427 16.8993,-1.53213 23.173,-2.4397 l 11.4067,-1.65011 5.8531,2.79752 c 5.5078,2.63252 7.0944,4.54455 4.8977,5.90223 -0.5255,0.32476 -3.7084,-0.56825 -7.0732,-1.98447 l -6.1178,-2.57493 -16.552,2.54348 c -17.6539,2.71281 -27.7636,3.22306 -28.8555,1.45635 z m 116.4446,-5.7706 c -2.4149,-2.12175 -5.5157,-4.20412 -6.8907,-4.6275 -8.2779,-2.54881 -13,-4.80593 -13,-6.21385 0,-1.25506 0.9261,-1.46638 4.7968,-1.09446 9.3882,0.90209 22.2032,8.62599 22.2032,13.38243 0,3.42464 -2.0366,3.01024 -7.1093,-1.44662 z m -52.4175,1.81451 c -0.7648,-1.2376 3.736,-7.41068 6.8433,-9.38578 4.8935,-3.11042 18.6835,-4.34627 18.6835,-1.67439 0,1.83583 -2.946,3.12388 -9.056,3.95948 -5.5772,0.76273 -6.7599,1.32313 -9.5125,4.50747 -3.1261,3.61631 -5.7269,4.5856 -6.9583,2.59322 z m -35.1918,-13.92668 c -3.8215,-2.33006 -9.5512,-12.91359 -9.0895,-16.78951 0.4552,-3.82132 2.5176,-3.84823 3.339,-0.0436 1.1978,5.54787 4.1906,10.4144 8.5071,13.83308 3.0566,2.42093 3.773,3.47409 2.7878,4.09868 -1.8069,1.14559 -1.8909,1.12896 -5.5444,-1.09869 z m -248.6129,118.778606 c 9.7173,-4.85304 20.283,-20.23631 25.6411,-37.33237 3.9104,-12.47664 5.0109,-22.64475 4.4171,-40.811756 -1.0337,-31.63238 -8.0313,-55.32371 -22.2091,-75.19203 -13.4415,-18.83664 -30.9837,-26.45109 -47.0176,-20.40868 -16.447,6.19808 -30.057,30.79383 -33.4554,60.45994 -1.6032,13.99528 -1.4053,19.46967 0.7054,19.50783 0.9625,0.0174 10.0156,-1.20361 20.118,-2.71337 l 18.3681,-2.74501 2.3819,2.76913 c 2.8668,3.33277 3.1556,9.15113 0.6097,12.28328 -1.4682,1.80631 -4.5381,2.54458 -20.4342,4.91405 -10.2885,1.53361 -19.2362,3.115796 -19.8837,3.515966 -1.5565,0.96201 0.275,11.0794 4.3347,23.94431 13.2315,41.93027 41.717,64.14802 66.424,51.80871 z m -14.2802,-1.9894 c -0.4336,-0.70157 0.2526,-1.81192 1.691,-2.73623 1.3313,-0.85554 5.0257,-4.00946 8.2096,-7.00871 14.0109,-13.19808 20.3454,-39.81116 17.6917,-74.326696 -3.4211,-44.49487 -15.6849,-70.14088 -38.7306,-80.99307 -6.3223,-2.97713 -7.5068,-4.33512 -4.7155,-5.40624 3.2077,-1.2309 14.7306,5.72208 22.4655,13.55581 11.4358,11.58199 18.0994,26.72445 22.4851,51.09583 2.5871,14.37685 3.2092,48.764576 1.1035,60.999996 -3.6795,21.37987 -11.2044,35.17025 -23.5344,43.13 -4.9733,3.21052 -5.6239,3.37539 -6.6659,1.68931 z m 129.9135,-39.31931 c 5.2066,-7.55188 10.447,-12.90554 15.3305,-15.66158 4.5998,-2.59601 5.3778,-3.48362 5.8428,-6.66658 1.4717,-10.07404 8.1678,-24.672686 13.6969,-29.861326 2.0933,-1.96443 6.0739,-3.95958 20.946,-10.49835 3.0978,-1.36202 5.8407,-3.66815 8.3323,-7.0056 2.0429,-2.73636 3.5648,-5.08291 3.382,-5.21454 -0.2422,-0.17441 -74.4694,11.96889 -75.4885,12.34964 -0.086,0.0321 -0.4662,2.42084 -0.8452,5.30834 -0.8457,6.44452 -2.3914,8.98889 -7.5239,12.38541 -2.1872,1.4474 -4.8624,4.06479 -5.945,5.81643 -1.9567,3.165976 -1.9567,3.231636 -0.01,11.116466 5.3739,21.72991 5.2184,21.38343 12.6478,28.16947 5.3439,4.88104 6.909,5.8598 7.196,4.5 0.2017,-0.95578 1.2975,-3.08778 2.4351,-4.73778 z m -242.5115,-32.66164 c 0.3844,-1.98068 -1.4973,-6.838356 -2.649,-6.838356 -1.3276,0 -1.9355,4.324186 -0.9735,6.924666 0.8929,2.41376 3.1477,2.36003 3.6225,-0.0863 z m 25.612,-1.32281 c 12.1537,-1.91646 32.1115,-5.040726 44.3506,-6.942826 12.2392,-1.90211 22.7017,-3.73566 23.25,-4.07456 1.5319,-0.94677 1.1823,-6.09957 -0.5092,-7.50332 -1.222,-1.0142 -9.948,0.0174 -46.25,5.46762 -24.609,3.69472 -44.8154,6.78964 -44.9029,6.8776 -0.4016,0.40363 0.9796,9.659936 1.4415,9.659936 0.2873,0 10.4662,-1.568 22.62,-3.48445 z m 625.0278,-8.937576 c 11.8648,-5.80491 23.9597,-24.49169 29.0889,-44.94288 9.8975,-39.46287 0.7598,-86.56807 -21.5221,-110.94806 -6.5906,-7.21121 -13.1521,-11.31108 -21.3334,-13.33002 -6.1459,-1.51664 -7.17,-1.51942 -13.1825,-0.0357 -12.2195,3.01546 -21.5739,11.9506 -29.5008,28.17866 -7.4977,15.3494 -11.9004,34.7061 -8.7038,38.26693 0.8557,0.95319 2.3266,3.66857 3.2687,6.03419 1.5198,3.81621 2.0084,4.24374 4.3339,3.79224 1.4415,-0.27988 8.921,-1.44243 16.621,-2.58345 7.7,-1.14103 15.0137,-2.29391 16.2527,-2.56198 4.288,-0.92775 8.2063,9.88041 5.2756,14.55207 -0.6534,1.04149 -6.6685,2.42596 -19.6783,4.52924 l -18.7374,3.02924 -1.9573,6.97076 c -2.8968,10.31608 -2.3759,21.77273 1.4227,31.29622 8.2096,20.58235 21.131,35.18315 35.208,39.78413 6.4199,2.09832 16.5139,1.21225 23.1441,-2.03162 z m -14.0464,-2.76611 c -0.4234,-0.6851 0.032,-1.63771 1.0746,-2.25 13.1626,-7.7268 21.9106,-21.62499 26.2343,-41.6792 2.5098,-11.64053 2.5509,-50.14992 0.068,-63.38266 -4.951,-26.38441 -14.6326,-42.37377 -30.3658,-50.14951 -4.067,-2.01005 -7.3946,-4.26121 -7.3946,-5.00256 0,-4.25582 14.1554,2.55431 22.0238,10.59556 13.6562,13.95622 20.471,35.98871 21.6691,70.05651 1.4039,39.9174 -6.632,65.4775 -24.9155,79.25 -5.2252,3.93602 -7.1764,4.53154 -8.3937,2.56186 z m -91.6995,-9.31186 c 6.7433,-10.73225 7.6325,-13.8376 7.1185,-24.86164 -0.6241,-13.38565 -3.7284,-17.63836 -12.8752,-17.63836 -3.5887,0 -8.495,-4.16178 -10.0828,-8.55274 -0.844,-2.33398 -1.7508,-3.31177 -2.7968,-3.01581 -0.8514,0.24088 -22.5796,3.71317 -48.285,7.71621 -25.7054,4.00303 -46.4027,7.61256 -45.9941,8.02117 0.4086,0.4086 5.6208,0.004 11.5827,-0.89968 12.1168,-1.83608 18.512,-1.24118 28.8732,2.68589 12.6898,4.80964 24.4536,17.01129 25.5197,26.46965 0.2836,2.51642 0.6139,4.57531 0.734,4.57531 0.12,0 6.3663,1.53507 13.8806,3.41126 12.3501,3.08361 18.2839,5.52821 24.141,9.94568 2.3452,1.76877 1.8185,2.27437 8.1842,-7.85694 z m -359.0565,-3.40016 c 2.3685,-4.70944 -4.011,-20.25158 -8.5923,-20.93272 -3.8061,-0.5659 -6.4823,0.62642 -8.2955,3.69601 -2.2481,3.8057 -2.2005,5.07007 0.1676,4.4508 2.4523,-0.64129 9.5182,6.26199 10.5281,10.28574 1.4281,5.6899 4.0545,6.75036 6.1921,2.50017 z m -11.3777,0.26044 c 2.3913,-0.67649 2.1952,-2.73109 -0.5672,-5.94259 -2.1767,-2.5306 -2.6591,-2.6511 -7.9616,-1.98861 l -5.6444,0.70523 0.5481,3.18284 c 1.0279,5.96867 0.9684,5.92202 6.6294,5.20375 2.8851,-0.36606 6.0332,-0.88834 6.9957,-1.16062 z m 20.8324,-0.95959 c 1.1086,-1.33583 1.037,-3.00976 -0.435,-10.16067 -2.3378,-11.35758 -3.8745,-14.24002 -7.5913,-14.24002 -1.5909,0 -3.6288,0.28251 -4.5286,0.62781 -1.4712,0.56454 -1.4406,0.84163 0.3037,2.75 2.2409,2.45172 7.1688,16.22749 7.1688,20.04016 0,3.01171 2.9285,3.57796 5.0824,0.98272 z m 8.5851,-4.24 c 0.9567,-1.53182 0.6922,-1.9639 -1.7715,-2.89382 -3.1174,-1.1767 -3.4012,-0.75241 -2.2839,3.41393 0.6517,2.42975 2.3492,2.21204 4.0554,-0.52011 z m 72.7399,-10.15631 c 34.6211,-5.41763 38.1322,-6.1445 40.5,-8.38439 1.4259,-1.34887 5.0676,-4.10297 8.0926,-6.1202 4.7319,-3.1555 5.081,-3.58885 2.5,-3.10302 -3.5873,0.67522 -94.0938,14.60323 -94.8943,14.60323 -0.3059,0 -0.1174,1.15429 0.419,2.5651 0.5364,1.4108 0.9753,3.5984 0.9753,4.86133 0,1.83111 0.4557,2.21658 2.25,1.90303 1.2375,-0.21626 19.3083,-3.06255 40.1574,-6.32508 z m -72.9986,-10.41279 c -1.6475,-5.51041 -2.9532,-7.09455 -6.0994,-7.39999 -2.4194,-0.23489 -3.4516,0.20547 -4.3303,1.84738 -0.9471,1.76962 -0.7494,2.91803 1.1037,6.41112 l 2.2575,4.25534 3.8469,-1.51113 c 3.1827,-1.25022 3.739,-1.87227 3.2216,-3.60272 z m 14.2599,-2.17079 c 0.674,-1.7563 -1.4257,-8.03491 -3.3207,-9.92994 -2.0349,-2.03488 -6.652,-1.87505 -9.3681,0.32428 l -2.2416,1.81515 2.7867,6.07105 2.7867,6.07106 4.4217,-1.50665 c 2.432,-0.82865 4.6529,-2.10888 4.9353,-2.84495 z m 258.1244,-18.90412 c 27.1112,-4.13417 49.7812,-7.51668 50.3778,-7.51668 0.7145,0 0.8548,-1.43759 0.4111,-4.21246 -0.3705,-2.31685 -0.7839,-4.32273 -0.9187,-4.45751 -0.4355,-0.43547 -99.7861,14.35901 -100.1553,14.9143 -0.093,0.14062 -1.367,2.44248 -2.8299,5.11524 l -2.6598,4.85958 3.2408,-0.59289 c 1.7825,-0.32609 25.4228,-3.9754 52.534,-8.10958 z m 88.1922,-12.50882 c 1.378,-0.73752 2.0318,-2.65426 2.5474,-7.46901 0.6278,-5.86257 0.4458,-6.8997 -1.9189,-10.93473 -2.9688,-5.06598 -6.9906,-8.60412 -9.7801,-8.60412 -4.1483,0 -2.7217,5.29514 2.8834,10.70225 2.7753,2.6773 3.083,8.71039 0.6233,12.22202 -1.5596,2.22672 -1.5481,2.45071 0.1912,3.72251 2.2089,1.61523 3.011,1.66834 5.4537,0.36108 z m 11.4974,-4.12293 c 2.2928,-2.20408 2.4936,-7.39654 0.5175,-13.38413 -1.6347,-4.9532 -8.5545,-12.5008 -11.4609,-12.5008 -3.5324,0 -3.6711,1.04392 -0.6496,4.8899 5.3746,6.84103 6.3968,9.86094 5.8631,17.32032 -0.4723,6.60035 -0.415,6.8188 1.6288,6.21087 1.1651,-0.34656 3.0106,-1.48783 4.1011,-2.53616 z m 10.1572,-2.56553 c 1.8226,-4.36225 1.313,-7.7982 -2.2374,-15.08594 -2.5014,-5.13439 -7.2729,-9.04968 -9.4151,-7.72572 -0.5245,0.32421 0.5881,2.83091 2.4726,5.57045 3.6941,5.37034 5.1827,11.68215 4.1072,17.41514 -0.5821,3.10293 -0.4165,3.50667 1.4385,3.50667 1.4702,0 2.5556,-1.09934 3.6342,-3.6806 z m 20.724,-0.8182 c 8.3248,-1.37434 16.5986,-2.74474 18.3861,-3.04532 2.9071,-0.48885 3.25,-0.89807 3.25,-3.87875 0,-1.83273 -0.5625,-3.76185 -1.25,-4.28694 -0.8157,-0.62297 -7.1204,-0.0518 -18.1445,1.6438 l -16.8944,2.5985 -1.3404,4.48375 c -0.7372,2.46607 -1.3472,4.59626 -1.3556,4.73376 -0.032,0.52479 2.6688,0.17472 17.3488,-2.2488 z m -55.6546,-9.87721 c 0.6455,-0.64548 -2.6246,-6.77547 -5.0006,-9.37399 -2.9666,-3.24432 -7.9489,-3.0314 -10.6929,0.45695 l -2.1293,2.70695 2.0923,0.77398 c 1.1508,0.4257 2.8638,2.16914 3.8067,3.87432 1.636,2.95839 1.9381,3.07514 6.6001,2.55012 2.6871,-0.30262 5.0827,-0.74737 5.3237,-0.98833 z m -15.7247,-0.37399 c -0.036,-1.77777 -1.7465,-3.44426 -2.4187,-2.35676 -0.3762,0.60872 -0.4059,1.55676 -0.066,2.10676 0.7209,1.16642 2.5071,1.34614 2.4847,0.25 z m 183.9387,-7.25416 c 15.7314,-2.43729 25.7299,-4.42628 26.2272,-5.21737 0.862,-1.37098 0.1907,-4.67278 -1.267,-6.23252 -0.7387,-0.79045 -44.2712,5.01861 -53.6335,7.15697 -3.778,0.86288 -2.7264,9.27485 1.0765,8.61115 1.1954,-0.20863 13.614,-2.15183 27.5968,-4.31823 z"
       id="path3205"
       inkscape:connector-curvature="0" />
  </g>
</svg>
