<?xml version="1.0" encoding="UTF-8" standalone="no"?>
<!-- Created with Inkscape (http://www.inkscape.org/) -->

<svg
   xmlns:dc="http://purl.org/dc/elements/1.1/"
   xmlns:cc="http://creativecommons.org/ns#"
   xmlns:rdf="http://www.w3.org/1999/02/22-rdf-syntax-ns#"
   xmlns:svg="http://www.w3.org/2000/svg"
   xmlns="http://www.w3.org/2000/svg"
   xmlns:xlink="http://www.w3.org/1999/xlink"
   xmlns:sodipodi="http://sodipodi.sourceforge.net/DTD/sodipodi-0.dtd"
   xmlns:inkscape="http://www.inkscape.org/namespaces/inkscape"
   width="765.50378"
   height="817.16132"
   id="svg2"
   version="1.1"
   inkscape:version="0.48.3.1 r9886"
   sodipodi:docname="Lunges-1.svg">
  <defs
     id="defs4">
    <radialGradient
       gradientUnits="userSpaceOnUse"
       gradientTransform="matrix(1,0,0,0.91819829,-19.285714,-7.9105395)"
       r="209.56604"
       fy="287.50052"
       fx="398.1105"
       cy="287.50052"
       cx="398.1105"
       id="radialGradient5255"
       xlink:href="#linearGradient5249"
       inkscape:collect="always" />
    <linearGradient
       id="linearGradient5249"
       inkscape:collect="always">
      <stop
         id="stop5251"
         offset="0"
         style="stop-color:#e3e3e3;stop-opacity:1;" />
      <stop
         id="stop5253"
         offset="1"
         style="stop-color:#e3e3e3;stop-opacity:0;" />
    </linearGradient>
  </defs>
  <sodipodi:namedview
     id="base"
     pagecolor="#ffffff"
     bordercolor="#666666"
     borderopacity="1.0"
     inkscape:pageopacity="0.0"
     inkscape:pageshadow="2"
     inkscape:zoom="0.35"
     inkscape:cx="25.47086"
     inkscape:cy="14.555748"
     inkscape:document-units="px"
     inkscape:current-layer="layer1"
     showgrid="false"
     showguides="true"
     inkscape:guide-bbox="true"
     fit-margin-top="0"
     fit-margin-left="0"
     fit-margin-right="0"
     fit-margin-bottom="0"
     inkscape:window-width="1201"
     inkscape:window-height="886"
     inkscape:window-x="166"
     inkscape:window-y="73"
     inkscape:window-maximized="0">
    <sodipodi:guide
       orientation="-0.70710678,0.70710678"
       position="-2435.8215,508.73353"
       id="guide2985" />
  </sodipodi:namedview>
  <metadata
     id="metadata7">
    <rdf:RDF>
      <cc:Work
         rdf:about="">
        <dc:format>image/svg+xml</dc:format>
        <dc:type
           rdf:resource="http://purl.org/dc/dcmitype/StillImage" />
        <dc:title></dc:title>
      </cc:Work>
    </rdf:RDF>
  </metadata>
  <g
     inkscape:label="Ebene 1"
     inkscape:groupmode="layer"
     id="layer1"
     transform="translate(-1007.25,281.77987)">
    <path
       style="fill:#000000"
       d="m 1618.7209,534.30776 c -21.5623,-4.53588 -27.2809,-6.81733 -32.0908,-12.80252 -3.7156,-4.62366 -4.966,-5.09072 -22.7989,-8.51642 -7.3643,-1.41469 -14.6343,-3.30745 -16.1557,-4.20613 -4.2821,-2.52951 -7.3022,-8.68581 -6.6493,-13.55409 0.6454,-4.81184 9.0024,-22.37519 14.5096,-30.49395 10.6209,-15.65721 14.6661,-29.6747 13.1356,-45.51663 -2.1607,-22.36487 -2.1838,-24.22972 -0.4486,-36.24945 2.9502,-20.43744 7.9371,-34.63499 16.7709,-47.74707 2.5001,-3.7109 4.1212,-7.00943 3.6024,-7.33008 -0.5189,-0.32065 -3.9655,-0.62527 -7.6593,-0.67692 -6.1507,-0.086 -7.9363,0.43823 -21.2159,6.2287 -8.7448,3.81311 -16.0391,7.69752 -18.3776,9.78666 -6.9398,6.19967 -11.3345,7.49675 -24.0014,7.08395 -10.5606,-0.34416 -11.4486,-0.54286 -17.621,-3.94302 -8.4248,-4.64088 -10.608,-5.00713 -22,-3.6907 l -9.5,1.0978 -5.5,5.17689 c -3.025,2.8473 -6.4972,5.71035 -7.7161,6.36235 -3.25,1.73859 -4.5939,8.00073 -3.7538,17.49134 0.6359,7.1838 0.5127,8.13136 -1.2436,9.56683 -1.5188,1.24137 -2.22,3.86811 -3.1748,11.89297 -1.7373,14.60209 -8.8184,54.74898 -10.7064,60.7003 -0.8724,2.75 -4.2739,10.85 -7.5588,18 -3.285,7.15 -6.386,13.9 -6.891,15 -0.5051,1.1 -2.7107,6.44216 -4.9015,11.87147 -4.8932,12.12682 -6.0566,13.94012 -11.0746,17.26083 -5.405,3.57689 -13.6257,5.33343 -25.0479,5.35208 -12.0961,0.0198 -18.3906,-1.77681 -23.2496,-6.63575 -2.025,-2.02508 -3.6819,-4.02244 -3.6819,-4.43857 0,-1.75924 -5.3391,-6.91006 -7.1626,-6.91006 -3.1935,0 -16.5982,-4.78352 -26.4576,-9.44148 -11.1587,-5.27176 -13.6004,-7.78982 -25.2687,-26.05852 -9.7856,-15.32109 -12.6573,-19.26749 -13.4512,-18.48539 -0.2873,0.28303 0.1067,4.78303 0.8757,10 1.0998,7.46163 2.2981,11.24562 5.6164,17.73562 4.1975,8.20971 4.2102,8.26718 2.5727,11.70105 -2.9066,6.09512 -4.4363,6.52974 -21.8863,6.21828 -12.8736,-0.22978 -16.0603,-0.58494 -18.2763,-2.03691 -1.4761,-0.96723 -4.9397,-1.94823 -7.6967,-2.17999 -7.3713,-0.61967 -10.3185,-3.23732 -14.9887,-13.31303 -6.5767,-14.18881 -6.7247,-15.79188 -2.8411,-30.78384 3.5472,-13.69342 3.8561,-18.17972 2.9512,-42.85579 -0.5021,-13.6908 0.2787,-16.46748 6.5979,-23.46198 5.0051,-5.54007 10.6714,-8.37602 16.9153,-8.46598 4.0848,-0.0589 5.8585,0.52411 9.69,3.18473 2.5795,1.79122 5.9121,4.94122 7.4056,7 4.6941,6.47049 24.3095,21.85674 32.9044,25.81014 3.0666,1.41053 10.3073,3.08928 18.7253,4.34145 14.5805,2.16882 23.3934,5.53416 30.789,11.75718 l 3.3222,2.79538 -0.6866,-3.98046 c -0.3776,-2.18925 -0.9625,-12.53046 -1.2998,-22.98046 -0.5936,-18.39072 -0.6892,-19.06413 -2.9806,-21 -2.3379,-1.97518 -2.3483,-2.06826 -0.8384,-7.5 1.5667,-5.63544 7.6258,-58.30533 11.6192,-101 0.9904,-10.58975 1.4698,-12.3499 6.0563,-22.23756 6.1794,-13.32153 6.8147,-18.46002 3.9076,-31.60553 -2.5205,-11.39767 -4.2467,-14.30939 -12.8775,-21.72147 -16.5677,-14.22822 -21.1289,-19.58971 -25.2548,-29.68544 -1.2924,-3.1625 -2.6573,-5.75 -3.033,-5.75 -0.3757,0 -1.9454,1.9125 -3.4881,4.25 -1.5428,2.3375 -8.2401,9.65934 -14.8829,16.27075 -12.5218,12.46258 -18.4304,16.47379 -29.5779,20.07957 -3.025,0.97847 -7.4223,2.99407 -9.7719,4.47911 -5.132,3.24367 -11.723,4.40293 -16.9818,2.98687 -3.2317,-0.87021 -4.5467,-2.11352 -8.0547,-7.61605 -3.7452,-5.87465 -4.8962,-6.89515 -10.7903,-9.56767 -8.0567,-3.65308 -10.516,-6.1996 -15.4536,-16.00126 -5.6704,-11.25635 -7.4822,-17.55695 -10.4617,-36.38132 -3.088,-19.50926 -9.0312,-39.539723 -15.4288,-52.000003 -2.2592,-4.4 -4.6175,-9.6875 -5.2407,-11.75 -0.6232,-2.0625 -1.3993,-3.75002 -1.7248,-3.75005 -0.3254,-3e-5 -0.601,8.43747 -0.6125,18.75 -0.023,20.427953 -1.4109,30.307303 -6.1214,43.562043 -5.8517,16.46614 -16.5971,30.83111 -27.4727,36.7267 -6.1304,3.32325 -6.8039,3.46131 -16.8851,3.46131 -9.6761,0 -11.0151,-0.24408 -17.0644,-3.11061 -20.087,-9.51847 -38.6854,-39.37158 -44.5714,-71.543783 -0.9082,-4.96454 -2.111,-8.83294 -2.7412,-8.81674 -0.6176,0.0159 -12.373,1.80576 -26.123,3.9775 l -25,3.94862 -2.25,-2.53326 c -2.4009,-2.70323 -3.003,-8.31079 -1.3572,-12.6398 0.8506,-2.23722 2.1392,-2.52801 27.25,-6.14945 14.4965,-2.09064 26.3911,-3.87572 26.4326,-3.96683 0.041,-0.0911 0.596,-7.14065 1.2323,-15.66565 0.7584,-10.15899 2.0133,-18.67003 3.6419,-24.69964 9.3154,-34.4884199 29.9319,-52.99397 53.8467,-48.33336 9.1151,1.77638 15.1218,5.46329 25.3065,15.53300014 12.5858,12.44365986 21.0732,27.63043986 26.4919,47.40254986 1.5732,5.74072 2.551,7.78693 3.5395,7.40759 0.7512,-0.28827 1.3763,-1.26347 1.3892,-2.16713 0.013,-0.90365 1.2511,-3.89301 2.7516,-6.64301 2.6417,-4.84124 2.9982,-5.08967 11.2267,-7.82391 5.7368,-1.90627 9.6357,-3.90459 11.9983,-6.14956 1.925,-1.82911 6.8268,-4.98388 10.8929,-7.01059 5.8327,-2.90734 8.095,-3.5532 10.7205,-3.06065 4.5163,0.84725 8.8285,4.6926 10.8067,9.63657 0.9021,2.25462 3.1331,5.5188 4.9577,7.25373 1.8245,1.73492 3.5167,3.77162 3.7603,4.52598 0.3569,1.10488 12.081,-0.44486 60.2955,-7.9701 l 59.8524,-9.34168 1.4336,-3.43113 c 1.1843,-2.8345 5.1836,-19.0177099 5.2588,-21.2798799 0.012,-0.35817996 -1.4435,-1.51564996 -3.2341,-2.57216 -1.7907,-1.05651 -4.9922,-4.44212 -7.1145,-7.52356 -3.1404,-4.5597501 -3.8724,-6.5171401 -3.9328,-10.5155801 -0.074,-4.89361 1.5267,-10.38478 3.8584,-13.23748 0.6996,-0.85597 1.3997,-5.57885 1.6306,-11 0.3596,-8.44399 0.7764,-10.19497 3.7497,-15.75209 4.0516,-7.57245 10.2785,-13.52006 17.8891,-17.08671 5.0435,-2.36356 6.844,-2.65474 16.1752,-2.61591 9.2601,0.0385 11.3232,0.3862 17.4712,2.9441 8.3167,3.46019 13.798,8.58323 18.8202,17.58987 6.3127,11.3212 7.8157,18.73779 8.4322,41.61031 0.3745,13.8910701 0.1765,21.6502201 -0.6347,24.8716401 -0.6484,2.5751399 -0.9965,4.8644799 -0.7736,5.0874299 0.3119,0.31186 78.7994,-11.4609999 94.2172,-14.1322499 3.7611,-0.65164 5.4501,-4.49078 4.7415,-10.7772901 -0.6129,-5.43817 1.5367,-10.01933 6.0245,-12.83899 3.2415,-2.0366 5.0061,-2.06864 15.9592,-0.28978 2.5363,0.41193 4.9083,0.0643 7.298,-1.06976 2.6951,-1.27889 5.6644,-1.60369 12.4357,-1.3603 l 8.8952,0.31973 1.1097,-6.5 c 4.462,-26.13543 18.0569,-48.72995 34.5037,-57.34483 5.5232,-2.89306 6.7549,-3.1402 15.5,-3.10985 7.4923,0.026 10.7156,0.51555 15.2521,2.31645 11.8761,4.71463 21.875,15.37166 31.0918,33.13823 4.8944,9.43452 10.6561,25.29614 10.6561,29.3356 0,0.8505 0.4819,1.84422 1.071,2.20827 0.589,0.36405 13.6957,-1.27625 29.126,-3.6451 l 28.0551,-4.30702 2.3739,2.75989 c 2.4929,2.89813 3.2014,8.7794 1.4032,11.64836 -0.6779,1.08161 -8.9718,2.76223 -29.7347,6.02526 l -28.7945,4.5252501 -0.6153,15.97475 c -0.7006,18.1891199 -2.6634,29.9950099 -6.9618,41.8742999 -6.4072,17.70705 -18.6312,33.44788 -30.4229,39.17537 -5.186,2.51897 -7.1531,2.91466 -14.5,2.91674 -5.6551,0.002 -10.2566,-0.60904 -13.7485,-1.82449 -10.7024,-3.7253 -21.8802,-14.35325 -29.989,-28.51355 -3.0054,-5.24839 -3.2372,-5.4386 -3.2336,-2.65363 0,1.65 1.6004,10.2 3.5518,19 2.2818,10.29016 3.7497,19.93529 4.1133,27.027403 0.5353,10.4427 0.4196,11.37061 -2.1827,17.5 -1.5114,3.55993 -3.0717,9.43537 -3.4674,13.05652 -0.9087,8.3176 -5.0021,14.74925 -11.3396,17.81719 -5.5198,2.67208 -6.8965,2.63735 -16.5682,-0.41792 -4.3819,-1.38424 -11.077,-2.9073 -14.8781,-3.38458 -3.801,-0.47727 -8.2615,-1.56618 -9.9122,-2.41978 -2.0786,-1.07488 -5.5904,-1.51939 -11.4235,-1.44592 -13.7197,0.17281 -24.7389,-3.35231 -36.293,-11.61042 -5.8961,-4.21413 -14.2141,-12.39488 -17.9182,-17.62249 -1.7398,-2.45539 -1.7605,-2.35725 -1.1607,5.5 0.3358,4.4 1.0001,9.79217 1.4761,11.9826 0.491,2.25979 0.4834,7.0182 -0.018,11 -0.4857,3.85957 -1.1927,12.1924 -1.5711,18.5174 -0.5985,10.00257 -1.1105,12.42553 -3.9322,18.6079 -2.475,5.42272 -3.0048,7.53556 -2.2347,8.91173 0.652,1.16499 0.7098,5.19962 0.1634,11.3921 -1.4533,16.46794 -1.1853,25.60521 0.8157,27.814 1.1225,1.2391 1.75,3.54912 1.75,6.4425 0,3.79369 0.3824,4.68496 2.4053,5.60668 1.3229,0.60276 3.1535,2.36249 4.0679,3.91051 1.6153,2.73443 1.8957,2.81217 9.8447,2.72993 4.781,-0.0495 13.5859,-1.22641 21.1821,-2.83138 11.7777,-2.48849 14.2222,-2.68773 26,-2.11918 18.876,0.91121 35.7918,3.9067 53.5,9.47388 8.525,2.68013 18.4864,5.40665 22.1364,6.05894 3.65,0.65228 8.0211,2.02807 9.7135,3.0573 3.8756,2.35689 8.9942,9.31469 13.8587,18.83815 3.6716,7.1882 3.7699,7.65926 3.5505,17 -0.2694,11.46672 -1.6416,18.67794 -4.9677,26.10535 -3.9445,8.80824 -10.8683,28.02189 -12.2528,34.00159 -1.4358,6.20126 -9.1111,34.85482 -12.188,45.5 -1.1128,3.85 -5.537,14.46973 -9.8315,23.5994 -4.2945,9.12966 -8.373,19.12291 -9.0632,22.20721 -1.183,5.2862 -1.0941,6.05474 1.5505,13.4006 5.8145,16.15027 15.7726,33.53546 21.8009,38.06057 1.756,1.31814 7.2427,4.433 12.1927,6.92191 4.95,2.48891 10.514,5.66411 12.3645,7.05601 3.1312,2.35529 3.3295,2.84098 2.8599,7.00674 -0.6671,5.91888 -3.1883,9.16553 -9.7048,12.49756 -5.0026,2.55792 -6.1864,2.74252 -16.9489,2.64291 -6.3639,-0.0589 -13.5957,-0.53308 -16.0707,-1.05372 z m 25.5461,-6.20677 c 6.4391,-1.71479 9.4539,-3.33825 9.4539,-5.09088 0,-3.14854 -5.6564,-7.65991 -16.9388,-13.5098 -6.5751,-3.40918 -12.3829,-6.72349 -12.9063,-7.36512 -2.0157,-2.47133 -15.1206,-28.55552 -18.1703,-36.16662 -1.763,-4.4 -3.6532,-8.95909 -4.2005,-10.13131 -1.4321,-3.06757 1.0529,-10.81044 9.7465,-30.36869 8.5333,-19.19776 12.7558,-30.92603 18.3613,-51 2.227,-7.975 5.183,-17.82856 6.5689,-21.89681 2.3416,-6.87342 2.4004,-7.48423 0.8303,-8.6323 -1.5336,-1.12135 -1.1273,-2.20716 4.3973,-11.75333 7.9624,-13.75861 10.4263,-20.95022 11.0585,-32.27719 0.6012,-10.77154 -1.0682,-17.73917 -5.9882,-24.99234 -4.6455,-6.84855 -7.0723,-8.2689 -20.397,-11.93788 -6.5239,-1.79639 -15.4617,-4.73355 -19.8617,-6.52703 -9.714,-3.95951 -28.639,-7.96864 -37.5,-7.94412 -3.575,0.01 -10.9113,1.07177 -16.3029,2.35974 -19.7056,4.70731 -28.4597,14.85268 -37.3375,43.27153 -3.1153,9.97246 -3.7083,13.32123 -3.7775,21.32973 -0.075,8.6258 0.1691,9.9274 2.6483,14.1446 1.5017,2.55454 4.0515,5.75627 5.6662,7.11496 l 2.9359,2.47036 14.3337,-4.2437 c 7.8836,-2.33404 19.6407,-6.59204 26.1269,-9.46223 12.8648,-5.69277 10.7157,-5.47667 28.5192,-2.8677 6.5987,0.96699 9.5639,0.9596 14.3833,-0.0358 6.3464,-1.31083 8.3493,-0.70403 7.2377,2.19278 -0.7297,1.90144 -6.296,3.67308 -11.5658,3.68117 -3.3614,0.005 -3.9434,0.48268 -7.7957,6.3954 -8.2775,12.70483 -17.709,38.57707 -19.9584,54.74958 -0.8689,6.24737 -0.7228,9.79628 0.8342,20.26613 1.4735,9.90776 1.6822,14.16271 0.951,19.39349 -2.0202,14.45211 -6.0351,25.49673 -13.2523,36.45565 -5.5125,8.37051 -9.004,14.7512 -12.0605,22.04049 -2.3185,5.52944 -2.679,7.38874 -1.9353,9.98188 1.3917,4.85263 6.389,7.72296 13.4457,7.72296 9.2029,0 20.3164,4.0074 27.1593,9.79332 6.4379,5.44338 15.3847,9.03982 30.3098,12.18384 10.7455,2.26357 18.2067,2.45929 24.9808,0.65526 z m -5.8803,-8.01965 c -0.8869,-1.35359 -2.531,-2.75261 -3.6537,-3.10892 -2.5495,-0.80918 -1.6531,-2.50385 1.3244,-2.50385 3.3293,0 6.8282,2.84883 6.4704,5.26823 -0.4463,3.01795 -2.2889,3.17126 -4.1411,0.34454 z m -69.5557,-33.98329 c -4.4997,-2.541 -6.3115,-8.4225 -3.9879,-12.94522 2.2541,-4.38741 9.5198,-10.68426 12.3281,-10.68426 1.0159,0 0.5615,4.87464 -0.5164,5.54082 -0.5863,0.36237 -2.3858,2.48085 -3.999,4.70772 -3.2562,4.49504 -2.9339,5.66638 2.3042,8.37513 2.0742,1.07258 2.7972,2.10786 2.5729,3.68406 -0.3803,2.67233 -5.0534,3.38212 -8.7019,1.32175 z m 23.5566,-81.29615 c -1.5577,-1.55761 -0.4362,-3.53168 2.7664,-4.86983 4.2939,-1.7941 6.209,-4.47023 8.2036,-11.4635 2.8706,-10.06458 6.3633,-12.85032 6.3633,-5.07534 0,4.68261 -6.0372,17.17287 -9.689,20.04538 -2.5376,1.99602 -6.3345,2.67316 -7.6443,1.36329 z m -13.4686,-90.32 c -1.816,-0.43007 -7.216,-3.42006 -12,-6.64441 -9.9451,-6.70292 -19.343,-10.30577 -26.9795,-10.3431 -3.9034,-0.0191 -5.4417,-0.44352 -5.8957,-1.62674 -0.922,-2.40264 1.4883,-3.36678 8.4592,-3.38377 7.8467,-0.0191 11.0085,1.30046 22.9851,9.59277 5.2669,3.64667 11.6364,7.29009 14.1545,8.09649 2.5181,0.8064 5.1915,1.65809 5.9409,1.89264 1.0906,0.34132 1.1161,0.72353 0.1276,1.91462 -1.3478,1.62395 -1.8849,1.66361 -6.7921,0.5015 z m 56.3019,-0.49647 c -4.8515,-1.73818 -9.5,-6.64727 -9.5,-10.03264 0,-3.45064 2.4874,-3.1605 4.6766,0.5455 1.2359,2.09217 3.0327,3.35869 5.8066,4.09284 5.7223,1.51452 7.0168,2.34217 7.0168,4.48643 0,2.43344 -2.8418,2.75593 -8,0.90787 z m -33,-17.68412 c -2.2,-1.14816 -8.5,-3.75273 -14,-5.78794 -10.4588,-3.87015 -12.8297,-6.27159 -6.7696,-6.8567 2.1468,-0.20727 6.2726,1.05788 12.2992,3.77153 4.9878,2.24588 12.7407,5.14353 17.2287,6.4392 10.4414,3.01445 11.1692,4.61435 2.075,4.56132 -4.9253,-0.0287 -7.9502,-0.62274 -10.8333,-2.12741 z m 17.8212,-1.43806 c -0.4224,-1.10069 0.821,-2.83364 3.9552,-5.51273 3.254,-2.78137 5.0433,-5.32831 6.209,-8.83809 1.8663,-5.61874 4.9887,-10.04386 7.0872,-10.04386 1.9716,0 1.7856,3.3644 -0.4307,7.78984 -1.022,2.04059 -2.1769,5.03271 -2.5665,6.64917 -1.0585,4.3917 -4.4583,8.61412 -8.192,10.17413 -4.2695,1.78392 -5.3082,1.74649 -6.0622,-0.21846 z m -221.3212,219.79184 c 3.8052,-1.83358 8.5248,-9.47407 11.5428,-18.68652 1.3958,-4.26042 4.6844,-11.0816 16.6963,-34.63085 2.1556,-4.22597 8.1065,-32.43096 10.2053,-48.36915 1.4468,-10.98652 2.4461,-25.5 1.7558,-25.5 -0.2008,0 -5.6155,2.69955 -12.0327,5.99901 -20.5932,10.58829 -30.6466,10.32591 -54.8652,-1.43195 l -13.3023,-6.4581 0.018,16.19552 c 0.011,9.65237 0.6062,19.51869 1.4734,24.42098 0.8002,4.52401 1.7556,14.21572 2.123,21.53713 0.5978,11.91244 0.4833,13.4964 -1.0895,15.06918 -3.1439,3.14399 -4.05,1.50913 -3.6732,-6.62826 0.3373,-7.28563 0.1966,-7.86161 -3.3428,-13.68811 -9.2308,-15.19549 -15.675,-18.83495 -41.6989,-23.54976 -19.9618,-3.61651 -24.3389,-6.0542 -42.0162,-23.39953 -7.5382,-7.39662 -14.7382,-14.02145 -16,-14.72182 -5.8559,-3.25037 -15.2333,0.67572 -18.9324,7.9266 -1.9787,3.87855 -2.0731,4.99074 -1.2915,15.20685 1.2492,16.32673 0.6797,25.40297 -2.6098,41.59469 -3.5798,17.62074 -3.6314,19.89774 -0.5722,25.2495 1.3135,2.29794 2.7034,5.96979 3.0887,8.15966 1.1844,6.73192 1.9908,7.51841 7.7085,7.51841 3.4848,0 6.8161,0.83217 10.4517,2.61094 3.7603,1.83972 6.3004,2.45543 8.5997,2.08449 1.7947,-0.28954 5.2007,-0.85208 7.5688,-1.25008 2.7905,-0.46897 5.105,-0.2959 6.5768,0.49178 3.6102,1.93209 8.8667,0.97675 10.277,-1.86777 1.3192,-2.66089 1.3372,-2.61597 -5.2217,-13.02512 -3.1519,-5.00208 -3.4442,-6.12471 -3.5146,-13.5 -0.042,-4.42433 -0.6172,-9.83685 -1.2775,-12.02781 -1.6332,-5.41925 -6.9688,-8.47723 -14.8306,-8.49998 -10.1255,-0.0293 -14.8151,-3.39917 -14.8151,-10.64599 0,-5.8819 1.6556,-6.3398 3.9096,-1.08134 l 1.8935,4.41717 7.5699,0.68597 c 8.7846,0.79604 12.7442,2.26778 21.4397,7.96889 6.3015,4.1315 10.5914,9.27826 22.2036,26.63885 11.919,17.81933 19.8499,23.39333 38.4837,27.04736 7.9204,1.55316 8.8095,2.07247 17,9.92897 6.9244,6.64203 11.7291,9.13489 20,10.37669 5.3025,0.79612 16.894,-0.4289 20.5,-2.1665 z m -35.5157,-10.21192 c -1.2953,-2.09583 2.071,-4.06288 8.6046,-5.02792 8.6046,-1.27096 17.1227,-0.2892 16.7001,1.92478 -0.2441,1.27922 -2.0245,1.75891 -8.2999,2.2363 -4.394,0.33427 -9.8554,0.92852 -12.1365,1.32056 -2.7803,0.47785 -4.385,0.3283 -4.8683,-0.45372 z m 0.9794,-23.03332 c -0.3599,-0.5823 0.4953,-2.7198 1.9003,-4.75 3.1123,-4.49694 4.4362,-10.42746 5.4004,-24.19128 0.5843,-8.33974 1.0442,-10.5 2.2356,-10.5 1.2636,0 1.486,2.12729 1.4114,13.5 -0.094,14.36783 -1.1562,20.13453 -4.4874,24.36945 -2.1175,2.69201 -5.2908,3.46409 -6.4603,1.57183 z m -104.2392,-2.40583 c -1.6109,-1.35551 -4.8194,-2.76685 -7.13,-3.13633 -3.8025,-0.60805 -4.1722,-0.91969 -3.8977,-3.28545 0.4852,-4.18196 4.9105,-4.06098 11.2535,0.30764 2.8579,1.96828 6.1491,3.57869 7.3139,3.57869 2.7103,0 3.7501,1.67537 2.1995,3.5438 -1.8422,2.21968 -6.4726,1.74025 -9.7392,-1.00835 z m -19.6489,-3.20944 c -3.0731,-4.52253 -3.2566,-6.32601 -0.6437,-6.32601 2.2865,0 6.3515,5.29517 5.8903,7.67291 -0.586,3.02188 -2.6354,2.49576 -5.2466,-1.3469 z m 89.1271,-5.76833 c -6.2621,-2.23376 -11.7036,-6.42314 -14.5331,-11.18893 -1.4683,-2.47301 -4.5821,-7.16893 -6.9196,-10.43537 -4.3276,-6.04744 -5.0851,-8.29918 -3.1869,-9.47239 1.0886,-0.67274 7.0916,5.26435 11.0139,10.89283 2.673,3.83578 12.7785,12.27826 17.7007,14.78774 2.9174,1.4874 4.8992,1.71656 10.4127,1.20412 6.4597,-0.60037 6.8096,-0.52456 6.8096,1.47554 0,1.15963 -0.8704,2.57425 -1.9343,3.1436 -2.7304,1.46125 -14.8389,1.20665 -19.363,-0.40714 z m 84.1421,-78.5844 c 3.6603,-1.11469 11.6052,-4.65861 17.6552,-7.87536 l 11,-5.84865 0.2803,-13.30869 c 0.1593,-7.56162 0.743,-13.86621 1.3518,-14.59975 0.5893,-0.71009 4.2559,-2.31476 8.148,-3.56595 6.9076,-2.22059 7.25,-2.49269 14.3444,-11.40158 8.9958,-11.2966 21.7591,-22.3733 25.7799,-22.3733 2.7854,0 1.7902,1.46377 -6.4418,9.47473 -4.4206,4.30185 -8.8728,8.99239 -9.8938,10.42341 l -1.8564,2.60186 7.188,-0.32181 c 6.0437,-0.27058 8.8697,0.22919 17.7535,3.13974 5.811,1.90385 12.0912,3.7863 13.9558,4.18322 l 3.3903,0.72168 -2.7863,-2.95397 c -3.8287,-4.05921 -6.4331,-11.4455 -7.8035,-22.13129 -2.1887,-17.0663 -1.2296,-20.43955 13.4679,-47.36852 5.1564,-9.44769 13.3759,-17.95321 20.9931,-21.72372 4.076,-2.01763 4.0904,-2.04363 1.1288,-2.03446 -1.65,0.005 -7.5,1.59491 -13,3.53287 -7.7045,2.71475 -11.3398,3.47506 -15.8368,3.31224 l -5.8368,-0.21134 -10.998,8.67768 c -6.0489,4.77272 -11.6083,8.67768 -12.3542,8.67768 -3.5293,0 -2.0685,-2.71923 4.9202,-9.15888 4.1831,-3.85445 7.6056,-7.58484 7.6056,-8.28975 0,-1.53427 -3.8016,-6.55137 -4.9642,-6.55137 -0.4504,0 -1.1024,1.12914 -1.4488,2.5092 -1.4226,5.6682 -14.9069,11.79847 -32.087,14.58751 -4.4,0.71431 -16.3915,1.32189 -26.6478,1.35019 l -18.6479,0.0514 -0.4015,5.55043 c -0.7097,9.81195 -6.9042,16.69305 -18.9967,21.10217 -3.5808,1.30566 -6.7779,3.27595 -8.1403,5.01679 -1.9061,2.43552 -2.7222,2.77098 -5.426,2.23022 -4.5263,-0.90526 -2.9942,-3.12775 5.7285,-8.3098 8.1479,-4.8406 18.4679,-13.16623 20.0998,-16.21547 0.6619,-1.23667 0.8622,-3.85151 0.4869,-6.35424 l -0.6377,-4.25281 -5.4755,-0.64353 c -4.8469,-0.56966 -9.3556,-1.8223 -14.5726,-4.04867 -2.5054,-1.0691 -3.8692,4.27079 -3.8692,15.14916 0,8.20564 -0.2124,9.3823 -1.6428,9.10077 -3.4659,-0.68212 -3.8011,-3.20389 -1.9917,-14.98344 2.1805,-14.19519 2.9388,-15.83988 7.3035,-15.83988 1.832,0 3.331,0.41278 3.331,0.91729 0,1.49549 7.937,3.95365 16.3224,5.05516 4.3023,0.56515 15.8572,1.02755 25.6776,1.02755 35.5727,0 48.5543,-3.91375 55.7847,-16.81824 l 2.2848,-4.07769 -5.6594,3.40793 c -11.4853,6.91606 -26.5051,10.44585 -44.5542,10.47064 -27.1162,0.0372 -46.8724,-3.49431 -59.9686,-10.71974 -0.3371,-0.18593 -2.8907,4.74135 -5.6747,10.94952 -5.3769,11.98978 -5.6661,13.54069 -6.6945,35.89998 -0.2432,5.28682 -1.5487,18.56182 -2.9012,29.5 -1.3525,10.93818 -2.9858,25.2876 -3.6297,31.8876 -0.6439,6.6 -1.8023,14.475 -2.5742,17.5 -1.1133,4.36263 -1.146,5.66478 -0.1583,6.29683 8.5359,5.46193 26.4501,15.5818 30.7453,17.36821 7.2038,2.99612 17.6255,3.11579 26.8448,0.30824 z m 36.5468,-48.39514 c -1.4034,-3.65715 10.9651,-18.7607 28.3246,-34.58814 9.7817,-8.9184 14.7445,-11.94127 16.5614,-10.08772 0.9693,0.9888 -1.397,3.76793 -11.4283,13.42236 -6.9579,6.69645 -16.5672,16.78786 -21.3541,22.42536 -8.4455,9.94613 -10.9684,11.78632 -12.1036,8.82814 z m -23.4216,-33.1143 c -2.8544,-3.43929 4.497,-8.16141 31.2569,-20.07772 7.9801,-3.55362 8.4507,-3.91487 5.5,-4.22219 -4.3373,-0.45171 -27.3553,1.61858 -31.8771,2.86708 -1.987,0.54866 -5.2611,2.11613 -7.2757,3.48328 -2.0146,1.36714 -4.5728,2.48571 -5.6849,2.48571 -3.283,0 -2.1023,-4.98739 1.705,-7.20217 7.8198,-4.54895 30.8994,-8.01838 51.4542,-7.73484 11.4784,0.15834 12.0014,0.0729 14.999,-2.44947 7.2213,-6.07631 8.1832,-0.97368 1.0706,5.67931 -3.1776,2.97225 -6.4069,4.95086 -9.25,5.66739 -10.9277,2.75408 -34.7476,13.00135 -43.0411,18.51616 -3.7416,2.48799 -6.9782,4.52362 -7.1925,4.52362 -0.2142,0 -0.9632,-0.69127 -1.6644,-1.53616 z m 36.53,-66.2256 c 10.7046,-3.52295 11.1984,-3.90709 11.9092,-9.26499 0.6457,-4.86791 3.7739,-10.11571 5.1892,-8.70543 0.4238,0.4223 0.1891,3.03639 -0.5215,5.8091 -1.3892,5.42059 -1.2041,6.29285 1.1445,5.39161 2.3767,-0.91201 3.4694,-4.61278 2.6481,-8.96853 -1.2833,-6.80591 -0.9527,-13.19025 1.2496,-24.13273 2.5616,-12.72729 1.5355,-15.44851 -2.6214,-6.95218 -2.5151,5.14066 -3.0015,5.58491 -6.1151,5.58491 -4.2448,0 -7.3826,-2.97519 -7.3826,-7 0,-3.83527 0.8398,-3.78814 4.294,0.24099 2.6379,3.07707 2.8612,3.15366 4,1.37201 0.6633,-1.03785 2.6188,-3.99231 4.3456,-6.56546 4.7188,-7.03156 8.3431,-14.6314 9.2226,-19.33929 0.7835,-4.19341 0.7756,-4.20825 -2.2518,-4.20825 -2.3306,0 -3.5121,-0.74773 -5.0742,-3.21148 -1.9573,-3.08708 -2.2968,-3.21297 -8.7632,-3.25 -6.0026,-0.0344 -6.8987,-0.30074 -8.3226,-2.47388 -1.9762,-3.01605 -1.56,-7.93203 0.7079,-8.36176 1.138,-0.21563 1.861,0.60867 2.3044,2.62733 0.7046,3.20786 3.187,4.16979 10.7611,4.16979 3.1691,0 4.5705,0.63875 6.9205,3.15448 1.6954,1.81489 3.3024,2.77038 3.7842,2.25 0.4607,-0.49746 1.056,-6.19707 1.323,-12.66578 0.3765,-9.11939 0.2232,-11.40256 -0.6823,-10.16422 -1.41,1.9283 -6.6992,1.58147 -7.3785,-0.48383 -0.3183,-0.96745 0.049,-1.21269 1.1708,-0.78215 1.0784,0.4138 2.1803,-0.20584 3.2387,-1.82116 1.5912,-2.42843 1.553,-6.07941 -0.1491,-14.23734 -0.6978,-3.34435 0.2379,-4.16098 2.3489,-2.05 0.9333,0.93333 1.2,0.48889 1.2,-2 0,-3.83202 -0.2318,-3.87574 -4.3167,-0.81422 -6.3808,4.78221 -11.9792,6.91706 -19.412,7.40245 -4.5974,0.30022 -8.3408,0.0114 -10.2839,-0.79345 -3.6505,-1.51207 -6.9874,-5.47775 -6.9874,-8.30395 l 0,-2.03946 2.25,2.04935 c 3.5881,3.26812 6.3438,4.32613 11.5747,4.44398 7.038,0.15856 13.9701,-2.49793 20.7541,-7.95329 7.9923,-6.42708 9.2773,-10.0417 7.6271,-21.454803 -1.4351,-9.92537 -1.5616,-18.39874 -0.2865,-19.18678 1.7367,-1.07337 4.0806,2.58127 4.0806,6.36259 0,2.07327 0.4911,7.41907 1.0914,11.87957 0.7506,5.57697 0.7764,9.58719 0.083,12.839483 l -1.0087,4.72947 8.4415,8.27214 c 14.4855,14.19489 28.8898,22.38448 41.9106,23.82828 l 5.9825,0.66336 -9,-4.64932 c -9.0356,-4.66769 -12.5,-7.05964 -12.5,-8.63039 0,-1.60093 2.5338,-0.82999 13.8117,4.20245 21.3257,9.51595 28.1719,11.93854 35.5791,12.59001 3.91,0.34389 8.997,1.46614 11.3043,2.49389 5.1196,2.28042 5.7714,2.29682 9.265,0.2331 3.6091,-2.13195 6.154,-6.44807 8.1746,-13.86446 0.8992,-3.3 2.891,-8.925 4.4263,-12.5 3.5994,-8.38141 3.5158,-10.85554 -1.4867,-44.000003 -2.1999,-14.575 -4.4939,-30.775 -5.098,-36 -1.6038,-13.8736 -1.6444,-14 -4.4954,-14 -3.3159,0 -3.1366,-0.71866 1.0959,-4.39402 4.2995,-3.73359 8.3805,-13.8654899 5.8156,-14.4385599 -0.8187,-0.18291 -2.1192,0.19088 -2.8901,0.83065 -0.7709,0.63978 -2.6618,1.03978 -4.202,0.8889 -1.5402,-0.15088 -3.8392,0.29278 -5.109,0.98592 -1.2814,0.6994999 -3.5465,0.9883799 -5.0906,0.64923 -4.0207,-0.88309 -5.5853,1.3198299 -3.6175,5.0931299 1.9879,3.81182 1.9464,8.28265 -0.084,9.06185 -2.023,0.77629 -3.364,-1.29686 -3.3838,-5.23093 -0.011,-2.13535 -0.9928,-3.97905 -3.2653,-6.13001 -4.502,-4.2611999 -7.4413,-5.5961899 -13.25,-6.0179299 -6.3557,-0.46146 -7.5,-0.88151 -7.5,-2.7532 0,-1.20405 1.2208,-1.4841 5.9063,-1.35496 6.7772,0.18678 10.6908,-1.73669996 11.6979,-5.74929 0.8869,-3.5335 0.2069,-3.83347 -5.4205,-2.39121 -3.6783,0.9427 -6.2796,0.99876 -10.2172,0.22019 -4.9628,-0.98126 -5.4303,-0.89688 -7.7209,1.39379 -2.2924,2.29232 -2.396,2.86929004 -1.7318,9.63737 1.266,12.9001399 3.6721,15.7473299 14.4752,17.1292399 5.9022,0.75499 11.4038,3.56682 13.0699,6.67988 1.2333,2.3044 0.303,4.24281 -1.6724,3.48477 -1.1021,-0.42289 -1.2489,0.0551 -0.6703,2.18183 1.2122,4.45517 0.834,21.43209 -0.5673,25.46756 -0.7151,2.0593 -3.3014,6.66692 -5.7474,10.23914 -6.3519,9.2768 -6.4055,10.4322 -0.985,21.24319 2.5209,5.02787 4.5835,9.846263 4.5835,10.707533 0,3.08814 -2.549,1.47985 -5.0017,-3.155853 -4.5981,-8.69039 -10.6392,-15.87296 -16.8246,-20.00341 -4.8451,-3.23544 -8.3604,-4.58588 -17.3739,-6.67441 -13.1325,-3.04296 -13.7997,-3.09616 -13.7997,-1.10039 0,2.2218 -3.7588,1.81912 -5.0202,-0.5378 -0.5999,-1.12079 -1.7423,-5.4436 -2.5387,-9.60624 -2.0583,-10.75749 -3.5441,-13.26917 -10.6897,-18.07005 -15.3895,-10.33958 -21.8083,-11.76215 -39.2514,-8.69909 -8.9158,1.56565 -19.0375,1.29993 -24.1222,-0.63326 -2.0245,-0.76974 -2.281,-0.47401 -2.9059,3.3511 -1.1066,6.77402 -4.4396,13.69534 -6.595,13.69534 -2.2932,0 -2.3008,0.50422 0.1231,-8.24256 1.1,-3.96948 2,-7.67629 2,-8.23734 0,-0.61995 -3.6285,-1.0201 -9.25,-1.0201 -9.0995,0 -9.3975,-0.0774 -18.3171,-4.7568 -4.987,-2.61623 -11.4667,-6.90591 -14.3993,-9.5326 l -5.3322,-4.77581 1.2504,-3.78869 c 0.6877,-2.0837799 1.0679,-5.3513699 0.8449,-7.2613099 -0.3545,-3.03687996 -0.1476,-3.43572996 1.649,-3.17869996 1.8229,0.26081 2.0873,1.10617996 2.3473,7.50646996 0.2659,6.5425099 0.5446,7.3901899 3,9.1244999 3.7288,2.63362 15.8767,8.61733 20.6162,10.15492 5.8408,1.89486 13.686,1.51024 18.4162,-0.90289 3.4358,-1.75284 4.7163,-3.37774 8.1969,-10.40198 3.6962,-7.4591799 4.2364,-9.5049999 5.1957,-19.6781799 1.7601,-18.6640101 -1.5861,-40.5651801 -7.9975,-52.3450401 -3.6669,-6.73736 -12.0103,-14.09386 -18.459,-16.27557 -7.1394,-2.41542 -18.6894,-2.40247 -25.7295,0.0288 -12.8109,4.42429 -22.6707,21.16981 -20.599,34.9848 0.4775,3.18442 1.1944,4.52885 2.6126,4.89971 1.1923,0.31179 1.9544,1.3692 1.9544,2.7117 0,1.70937 -0.3907,2.03641 -1.75,1.46502 -4.2636,-1.79213 -6.0219,-1.6421 -7.628,0.65086 -4.0328,5.75773 0.3485,17.7307501 7.7785,21.2565401 6.5239,3.09575 6.6826,6.18828004 1.4762,28.7593199 -1.8302,7.93439 -2.2153,8.68808 -4.6854,9.16762 -10.007,1.9428 -21.1397,6.18288 -26.1913,9.97544 -6.9199,5.19518 -14.8442,12.55221 -16.1519,14.99564 -0.8843,1.65235 -0.7678,1.74361 1.0105,0.79188 2.7923,-1.49439 5.1414,-1.34317 5.1414,0.33099 0,0.81795 -3.2435,2.72011 -7.75,4.5449 -17.3476,7.0246 -19.9462,8.25382 -24.5016,11.59016 -2.6134,1.91402 -6.0477,5.2692 -7.6317,7.45597 -3.6177,4.99405 -9.6495,23.054943 -8.0333,24.053813 1.9605,1.21164 13.282,1.93445 16.9166,1.08003 1.925,-0.45251 7.045,-2.0498 11.3777,-3.54952 5.4046,-1.87076 8.2009,-2.40342 8.9076,-1.69678 1.7674,1.76743 -0.9961,3.85327 -9.6266,7.26587 -7.7694,3.07209 -8.747,3.21777 -20.4885,3.05307 -8.8877,-0.12467 -13.0841,0.21708 -15.0315,1.22411 -4.0008,2.06886 -11.9791,10.99857 -14.1523,15.83978 l -1.8997,4.23192 2.8806,2.26295 c 1.7543,1.37812 3.5601,4.31067 4.6183,7.5 0.9558,2.88038 3.0232,8.35634 4.5943,12.16881 3.1551,7.65616 2.6555,10.00081 -1.5448,7.24872 -2.5092,-1.64411 -5.8928,-9.20679 -7.1735,-16.03363 -0.7439,-3.96549 -4.1785,-7.39142 -16.4342,-16.39289 -7.2636,-5.33494 -10.4179,-10.087 -12.1163,-18.25396 -0.6291,-3.025 -2.4895,-9.22771 -4.1342,-13.783803 -2.4444,-6.77107 -3.2427,-8.07445 -4.3718,-7.13738 -1.0719,0.88959 -1.5267,0.76765 -2.0302,-0.54428 -0.9359,-2.43904 2.3325,-6.35375 9.5109,-11.39154 7.5067,-5.2682 8.6056,-6.86367 10.2343,-14.85955 1.1159,-5.47825 1.0538,-6.89046 -0.5224,-11.891 -0.9838,-3.12095 -2.8514,-6.73708 -4.1501,-8.03584 l -2.3614,-2.36138 -5.0801,2.00239 c -2.7941,1.10131 -6.0759,2.00489 -7.2931,2.00796 -4.1652,0.0105 -9.713,2.05923 -9.713,3.58688 0,0.82415 1.1046,2.60299 2.4546,3.95299 3.2035,3.20353 7.7564,3.19023 14.126,-0.0413 5.9086,-2.99767 6.4194,-3.04674 6.4194,-0.61671 0,1.37286 -1.7705,2.63995 -6.4937,4.64734 -10.7596,4.5729 -13.4477,9.90822 -11.232,22.29318 0.6853,3.83027 0.5703,4.28871 -1,3.98634 -2.2692,-0.43697 -4.5227,-7.12145 -4.0671,-12.06434 0.3891,-4.22079 0.1649,-4.35164 -3.8429,-2.24288 -1.6244,0.85475 -4.0134,1.26226 -5.5191,0.94145 -1.4601,-0.31111 -2.9492,-0.0893 -3.309,0.49288 -0.8415,1.36169 -6.8178,1.37689 -8.1739,0.0208 -1.0678,-1.06777 -9.4197,-0.24518 -9.2959,0.91557 0.036,0.3422 1.499,3.4987 3.25,7.01442 2.9059,5.83469 3.6198,6.55421 8.1836,8.24919 5.9335,2.20364 9.1129,2.29484 12.5,0.35858 5.2181,-2.98289 6.9992,-0.66923 2.3431,3.04348 -3.0787,2.45479 -3.4048,6.50266 -0.9123,11.322553 1.9087,3.69108 2.1022,8.47423 0.3192,7.89346 -2.0042,-0.65285 -3.7114,-5.10166 -4.3766,-11.404803 l -0.6178,-5.85469 -5.3778,-0.0808 c -2.9578,-0.0444 -5.3778,0.0629 -5.3778,0.23838 0,0.17549 1.5375,4.03684 3.4166,8.580783 2.821,6.82136 3.9608,12.01004 6.5381,29.76171 3.2525,22.40256 5.6249,31.21916 11.594,43.08798 3.0455,6.05556 3.9993,7.02006 11.8017,11.93419 5.6944,3.5865 9.1494,6.51988 10.4967,8.91201 2.6122,4.63804 7.0095,8.76644 10.1529,9.5321 4.4906,1.09377 34.0904,-14.63092 45.7227,-24.28981 6.9975,-5.81044 21.3416,-23.07518 24.005,-28.89276 2.6848,-5.86441 4.2216,-14.53332 4.2522,-23.98666 0.024,-7.4101 1.5077,-11.13032 4.7648,-11.94781 3.2097,-0.80559 5.1437,1.09127 3.4956,3.42828 -3.4228,4.85316 -4.1738,7.72374 -5.1769,19.78866 -0.5915,7.1136 -1.1443,13.38382 -1.2285,13.93382 -0.084,0.55 1.8085,5.44579 4.2059,10.87954 3.8334,8.68838 5.2692,10.76069 11.909,17.18777 4.1526,4.01952 10.0252,9.2699 13.0502,11.66752 8.197,6.49694 11.2358,12.30519 13.8305,26.43483 1.1949,6.50669 2.2843,12.8972 2.421,14.20115 0.1897,1.80979 1.7866,3.16237 6.7485,5.71587 3.575,1.83979 7.8026,3.65056 9.3947,4.02393 2.7959,0.65568 2.8679,0.58003 2.109,-2.21588 -1.3092,-4.82261 -1.1073,-6.81131 0.7291,-7.18353 1.7901,-0.36285 4.0743,3.56606 5.2026,8.94873 0.5358,2.55673 0.8777,2.68313 8.811,3.25767 4.5395,0.32875 9.8286,0.77275 11.7536,0.98667 1.925,0.21392 10.475,0.25837 19,0.0988 12.1594,-0.22763 16.7931,-0.71575 21.5,-2.26481 z m -30.5156,-2.05578 c -6.6855,-3.48733 -11.9428,-19.01066 -6.7701,-19.99059 1.1866,-0.22479 1.91,0.54218 2.3502,2.49169 2.2306,9.87766 2.1804,9.79808 8.3989,13.29584 4.7008,2.64409 5.7545,3.65554 4.8916,4.69533 -1.5232,1.8353 -4.7519,1.65612 -8.8706,-0.49227 z m 29.6823,-15.84913 c -1.2318,-1.2318 -0.6813,-6.8675 0.89,-9.11082 2.2166,-3.1647 4.4433,-2.84986 4.4433,0.62827 0,6.09361 -2.981,10.83486 -5.3333,8.48255 z m -36.6477,-9.3143 c -2.7136,-2.71366 -4.381,-7.05705 -3.1728,-8.2652 0.5606,-0.56066 2.2766,0.43563 4.3896,2.54862 1.908,1.90801 4.4603,3.7837 5.6717,4.16819 3.0678,0.97369 2.0673,2.96697 -1.6756,3.33832 -2.1285,0.21118 -3.7782,-0.35529 -5.2129,-1.78993 z m -37.8296,-9.05719 c -2.9771,-2.77361 -6.4587,-9.81768 -5.7567,-11.64713 0.4203,-1.09527 1.9759,-0.007 5.8569,4.09696 4.2423,4.48616 5.9066,5.58833 8.4384,5.58833 1.7347,0 3.4366,-0.45734 3.7821,-1.01631 0.7855,-1.271 2.4899,-0.30253 2.4899,1.41481 0,3.66353 -11.2784,4.85403 -14.8106,1.56334 z m 35.0068,-2.56004 c -6.6086,-3.96059 -4.1209,-6.4335 3.3774,-3.35738 3.5791,1.46827 8.4264,0.57984 8.4264,-1.54442 0,-2.11969 4.2234,-2.85912 12.3884,-2.16893 7.8516,0.66371 10.4609,-0.32723 14.55,-5.52562 1.8842,-2.39542 2.0216,-3.47733 1.4258,-11.22815 -0.7175,-9.33547 0.1757,-10.86232 2.9506,-5.04337 2.1033,4.41077 2.2201,14.53095 0.2125,18.41332 -2.0571,3.97787 -8.5957,6.77673 -17.7372,7.59233 -5.8246,0.51967 -8.5007,1.27137 -10.9443,3.07415 -4.2564,3.14031 -9.1748,3.06916 -14.6496,-0.21193 z m -21.9462,-12.51685 c -1.7978,-1.15133 -3.25,-2.93114 -3.25,-3.98315 0,-2.36416 0.2921,-2.3599 6.7607,0.0987 6.7749,2.575 6.9127,2.56061 10.3104,-1.07662 4.5691,-4.89126 7.1008,-0.95474 2.8563,4.44126 -1.808,2.29853 -2.7973,2.63271 -7.75,2.61801 -4.0219,-0.0119 -6.6251,-0.62376 -8.9274,-2.0982 z m -137.75,0.11505 c -0.3399,-0.55 -2.6306,-1 -5.0904,-1 -3.1782,0 -4.6501,-0.46324 -5.0867,-1.60092 -0.8149,-2.12363 1.3423,-3.365 5.8801,-3.38377 6.0765,-0.0251 11.0078,3.21659 9.2413,6.07493 -0.7551,1.22179 -4.1719,1.15943 -4.9443,-0.0902 z m 111.2209,-8.08355 c -2.6825,-1.58079 -6.9503,-8.87635 -6.2539,-10.69095 0.481,-1.25359 1.2682,-0.78928 3.7345,2.20282 2.8651,3.47585 3.4511,3.74749 7.0444,3.26553 5.1781,-0.69454 5.5334,-1.23545 2.7541,-4.19385 -1.2877,-1.37066 -2.0536,-2.77971 -1.7021,-3.13122 1.0598,-1.05977 11.327,4.64896 14.7933,8.22534 2.8059,2.89492 3.0092,3.43012 1.5202,4.00151 -0.9454,0.36279 -3.4424,-0.11752 -5.5487,-1.06736 -3.4394,-1.55095 -4.071,-1.57396 -6.1962,-0.22579 -3.3149,2.10286 -8.0403,2.85458 -10.1456,1.61397 z m 40.7295,-4.32305 c -4.4516,-1.93902 -8.8358,-7.42414 -7.3575,-9.20529 1.8081,-2.1787 3.2826,-1.61273 4.9071,1.88353 0.8994,1.93564 2.3702,3.35229 3.6732,3.53785 2.7066,0.38544 8.7844,-2.67421 17.5744,-8.8472 5.149,-3.61596 8.2291,-5.0087 12.8944,-5.83048 8.8272,-1.55489 10.4774,-2.93041 11.2868,-9.40796 0.5313,-4.25305 0.2329,-6.50798 -1.4143,-10.68714 -2.3062,-5.85072 -2.0275,-7.26345 0.9086,-4.60633 4.8585,4.39693 6.6112,14.96167 3.6557,22.03532 -1.6179,3.87204 -4.7016,5.71858 -12.5788,7.53226 -7.2278,1.66413 -8.8744,2.57615 -12.7527,7.06306 -5.9092,6.83664 -14.1533,9.42614 -20.7969,6.53238 z m -162.4917,-3.84852 c -4.1143,-2.60812 -13.9587,-12.89881 -13.9587,-14.5915 0,-2.46233 2.7923,-0.92491 8.0342,4.42366 6.8236,6.96246 9.571,8.42296 15.8447,8.42296 4.817,0 7.3093,-1.25391 8.412,-4.23214 0.3512,-0.94866 0.9185,-0.83991 2.2533,0.43195 1.4259,1.35857 1.5411,1.99253 0.5739,3.15789 -4.0406,4.86862 -15.2499,6.13325 -21.1594,2.38718 z m 120.2975,-7.68919 c -5.0631,-1.24954 -6.2593,-2.77198 -6.2293,-7.92813 l 0.027,-4.62756 2.7231,3.25821 c 3.1248,3.73887 7.7001,5.3632 12.7832,4.53832 l 3.5292,-0.57271 -3.5446,-3.24678 c -1.9496,-1.78573 -3.5447,-3.94703 -3.5447,-4.80289 0,-2.86104 2.1986,-2.95795 4.4024,-0.19407 1.8416,2.3096 3.2189,2.84248 8.8542,3.42576 7.2905,0.75459 8.2877,1.23325 7.3983,3.55103 -0.3821,0.99578 -1.8702,1.54313 -4.1955,1.54313 -1.9989,0 -5.4635,1.07992 -7.7813,2.42551 -4.8912,2.8395 -9.8842,3.75009 -14.4219,2.63018 z m 47.2209,-7.12786 c -1.2609,-3.97282 0.3694,-6.97241 4.8724,-8.96427 5.3192,-2.35297 7.3507,-4.56812 11.1505,-12.15889 3.554,-7.09983 7.0762,-9.69148 11.2,-8.2412 1.5293,0.53782 2.9328,1.7682 3.1188,2.73417 0.286,1.48486 -0.317,1.7135 -3.9013,1.47934 l -4.2395,-0.27698 -1.283,4.93645 c -1.7099,6.57944 -4.0244,9.46773 -10.4912,13.09244 -4.5854,2.57017 -5.4513,3.51671 -5.7172,6.25 -0.2303,2.36758 -0.8086,3.22111 -2.1826,3.22111 -1.0281,0 -2.1652,-0.93248 -2.5269,-2.07217 z m -132.9771,-1.92783 c -1.0672,-1.72689 0.3689,-2.81993 5.7685,-4.39042 7.0397,-2.0475 12.6957,-7.91567 16.679,-17.30477 1.6789,-3.95735 3.0525,-8.59943 3.0525,-10.31574 0,-3.44765 1.538,-6.98907 3.0352,-6.98907 1.3966,0 1.1623,8.66936 -0.3919,14.50515 -3.1164,11.70104 -8.6046,19.90399 -15.7587,23.55376 -4.0362,2.05908 -11.3501,2.61486 -12.3846,0.94109 z m 93.5,-9.68761 c -4.668,-2.36211 -11.6469,-9.45323 -16.5253,-16.79094 -2.5046,-3.76733 -6.7487,-8.10424 -11.4747,-11.72581 -7.4067,-5.67576 -9.144,-7.97057 -7.0255,-9.2799 3.0178,-1.86509 24.9633,17.09152 27.8476,24.05483 0.6911,1.66846 3.1514,4.28647 5.4672,5.81781 3.9734,2.62733 4.6897,2.75719 12.7107,2.30429 18.8237,-1.06288 42.057,-13.40198 49.6589,-26.37355 2.2636,-3.86253 2.5302,-5.19796 2.0216,-10.12544 -0.3718,-3.60307 -1.883,-8.235853 -4.1376,-12.684893 -4.9007,-9.67032 -4.6276,-12.37705 0.6817,-6.75879 4.8405,5.12219 8.7754,14.398763 8.7754,20.688323 0,12.43945 -6.9476,20.45689 -27.7756,32.0525 -13.7055,7.63034 -18.344,9.26627 -28.3135,9.98568 -6.9071,0.49844 -9.0367,0.2903 -11.9109,-1.16411 z m 209,-11.1253 c 0,-2.47521 10.0921,-11.18709 12.9595,-11.18709 2.3684,0 0.7842,3.13845 -2.7095,5.36781 -2.0625,1.31609 -4.8409,3.57173 -6.1743,5.01254 -2.8451,3.07434 -4.0757,3.31792 -4.0757,0.80674 z m -130.9963,-2.68315 c -2.8368,-3.01965 -2.2254,-4.01769 1.4387,-2.34824 2.9413,1.34018 4.5108,0.17001 4.5423,-3.38665 0.027,-3.01799 4.5194,-3.2497 9.2505,-0.47709 4.8148,2.82168 8.4129,6.39331 7.4303,7.37583 -0.3605,0.36054 -2.8561,-0.54222 -5.5458,-2.00613 -5.756,-3.13278 -7.1197,-3.29782 -7.1197,-0.86166 0,4.63154 -6.2458,5.69618 -9.9963,1.70394 z m 87.3135,-17.00693 c -3.4006,-0.7392 -8.1256,-2.21396 -10.5,-3.27726 -9.2611,-4.14716 -20.8172,-14.91542 -20.8172,-19.397893 0,-2.87646 1.3748,-2.15841 4.6488,2.42814 5.4361,7.615353 21.2201,15.166213 34.2303,16.375383 7.8804,0.7324 12.7292,-0.51503 16.1481,-4.1544 2.8397,-3.02262 3.9728,-3.12877 3.9728,-0.37219 0,3.2938 -5.4165,7.61033 -11.0714,8.82309 -6.2396,1.33816 -8.8025,1.27261 -16.6114,-0.42487 z m 41.1701,-4.51748 c -0.3468,-0.56126 0.485,-2.3463 1.8485,-3.96675 3.7514,-4.45834 4.7288,-18.764213 2.0675,-30.262783 -0.8396,-3.62769 1.8046,-3.78386 3.4362,-0.20295 2.5542,5.60593 0.9022,27.886003 -2.462,33.202953 -1.4974,2.36662 -3.8256,2.952 -4.8902,1.22953 z m -357.0947,-8.58242 c -1.7346,-4.1516 -2.382,-16.699243 -0.8926,-17.301413 0.55,-0.22236 1.3177,1.80264 1.706,4.5 0.3883,2.69737 1.4008,6.87338 2.25,9.280033 1.9474,5.5188 1.9458,7.12427 -0.01,7.12427 -0.8531,0 -2.2284,-1.6213 -3.0564,-3.60289 z m 109.0804,-13.440913 c -0.8452,-1.36746 0.9278,-3.42274 5.2648,-6.10316 2.3844,-1.47365 4.2717,-3.88688 5.8749,-7.51208 2.61,-5.9016 5.3873,-7.19682 5.3873,-2.5124 0,7.32063 -13.7048,20.69419 -16.527,16.12764 z m 32.277,-26.98921 c -0.9625,-0.5865 -1.75,-1.68663 -1.75,-2.44472 0,-1.45078 2.9973,-1.92749 19,-3.02185 4.675,-0.31971 12.9747,-1.25164 18.4439,-2.07097 l 9.9439,-1.48967 6.3061,2.68013 c 6.0589,2.57509 7.8973,4.83226 4.879,5.9905 -0.785,0.30121 -3.5975,-0.4289 -6.25,-1.62246 -5.8445,-2.62976 -9.2128,-2.64303 -25.3318,-0.0998 -18.2236,2.87532 -23.2541,3.28962 -25.2411,2.07881 z m 114.75,-6.64791 c -2.4578,-2.20418 -6.8882,-4.59588 -11.491,-6.20319 -5.3223,-1.8586 -7.595,-3.16344 -7.8505,-4.50728 -0.3207,-1.6865 0.13,-1.83619 4.1605,-1.3819 5.4913,0.61895 16.7248,5.72616 20.1677,9.16906 2.9433,2.94331 3.3721,6.6272 0.7633,6.55742 -0.9625,-0.0258 -3.55,-1.6611 -5.75,-3.63411 z m -51.9872,1.70159 c -0.8144,-1.31774 0.7059,-3.94117 4.2233,-7.28739 2.076,-1.97494 4.9408,-3.19052 10.0105,-4.24759 7.352,-1.53294 10.2534,-1.23235 10.2534,1.06228 0,1.87393 -0.8146,2.21745 -8.0038,3.37524 -5.19,0.83582 -7.021,1.67159 -9.9691,4.55033 -3.6881,3.60136 -5.4395,4.28617 -6.5143,2.54713 z m -36.4852,-14.65093 c -5.7057,-4.80099 -10.561,-17.37811 -6.9935,-18.11594 1.078,-0.22297 1.9006,1.05308 2.767,4.29226 0.8404,3.14241 2.8168,6.28435 6.2094,9.87154 2.7371,2.89409 4.6795,5.55908 4.3164,5.92219 -1.2543,1.25432 -3.1849,0.65054 -6.2993,-1.97005 z m 149.1599,199.947153 c -0.7219,-0.28887 -1.5844,-0.25335 -1.9167,0.0789 -0.3323,0.33229 0.2584,0.56864 1.3125,0.52522 1.165,-0.048 1.4019,-0.28494 0.6042,-0.60416 z m -403.8149,-77.82571 c 13.5081,-3.51841 23.8226,-15.34229 31.0681,-35.61423 7.1482,-19.99978 8.3518,-43.768423 3.584,-70.780363 -8.5818,-48.62145 -38.799,-80.4381 -66.5247,-70.0459699 -19.3529,7.25386 -34.5,39.6081599 -34.5,73.6921999 0,7.05207 0.075,7.27804 2.25,6.77804 6.5513,-1.50605 36.2922,-5.48357 37.6884,-5.04042 2.0837,0.66133 5.0616,5.67372 5.0616,8.51956 0,1.20528 -0.7251,3.41902 -1.6114,4.91943 -1.546,2.61704 -2.3493,2.84085 -19.75,5.50215 -9.9762,1.52577 -19.0907,2.98872 -20.2543,3.25099 -2.0842,0.46975 -2.0945,0.59121 -0.6864,8.15214 0.7862,4.221413 2.9515,12.252463 4.8118,17.846783 9.8113,29.50528 27.002,49.60309 45.5356,53.23615 6.4347,1.26135 6.9472,1.24534 13.3273,-0.41646 z m -7.3726,-4.90962 c 0,-0.78014 1.4625,-2.32784 3.25,-3.43932 4.2949,-2.67062 10.8779,-9.60344 14.1615,-14.91424 3.8378,-6.20702 8.2886,-20.37074 9.6548,-30.7247 1.4959,-11.33588 0.6827,-41.636723 -1.45,-54.033123 -5.8166,-33.8094 -19.4602,-55.7703399 -38.8663,-62.5599499 -2.4576,-0.85983 -3.75,-1.93206 -3.75,-3.11112 0,-2.54491 1.5661,-2.27371 9.8811,1.71111 21.4331,10.27154 34.3765,36.2848899 38.0588,76.4897799 4.1097,44.870533 -4.1619,76.022983 -23.605,88.901573 -5.0925,3.37313 -7.3349,3.88673 -7.3349,1.67999 z m 134.4962,-44.85564 c 3.4001,-4.12212 7.605,-7.89465 10.825,-9.71192 5.2145,-2.94289 5.276,-3.03384 6.3714,-9.428413 1.2631,-7.37423 6.7073,-19.30008 11.3532,-24.87002 3.3464,-4.01197 9.227,-7.40915 18.683,-10.79302 4.399,-1.57419 7.0214,-3.41546 11.029,-7.7439 4.802,-5.18645 5.0621,-5.70119 3,-5.93865 -4.2374,-0.48797 -73.014,11.5583 -73.8915,12.94213 -0.4596,0.72483 -0.8425,3.03495 -0.851,5.13361 -0.021,5.18202 -1.1844,7.00741 -7.3895,11.59139 -8.1593,6.02762 -8.3572,7.1564 -4.1242,23.529503 1.9678,7.61121 4.2176,14.78914 4.9995,15.95097 0.782,1.16182 4.0266,4.18243 7.2104,6.71247 l 5.7885,4.60008 0.7182,-2.61692 c 0.395,-1.43931 3.2201,-5.6501 6.278,-9.35731 z M 1022.6314,88.156457 c -0.5007,-1.74608 -0.9105,-3.29016 -0.9105,-3.43129 0,-0.14113 -0.4142,-0.2566 -0.9205,-0.2566 -1.569,0 -2.2865,5.74456 -1.0144,8.12157 1.1197,2.0921 1.282,2.12422 2.4771,0.48994 0.9069,-1.24029 1.014,-2.67224 0.3683,-4.92362 z m 51.9797,-2.06938 c 27.4092,-4.27402 41.6755,-6.90412 42.2347,-7.78632 1.2172,-1.92014 1.0657,-4.1893 -0.4149,-6.21415 -1.2196,-1.66792 -3.7716,-1.39596 -46.75,4.98178 l -45.46,6.746 0.3547,4.94866 0.3548,4.94866 4.1452,-0.58525 c 2.28,-0.32189 22.7709,-3.48962 45.5355,-7.03938 z m 596.1546,-3.54352 c 16.2751,-6.18406 29.7198,-28.4643 34.5279,-57.21885 2.0735,-12.4003 1.4983,-40.0772 -1.0747,-51.71813 -5.1087,-23.11248 -16.3282,-44.25922 -28.7144,-54.12123 -9.096,-7.24231 -21.9741,-10.07912 -31.5237,-6.94407 -16.0428,5.26669 -29.9568,26.52155 -35.2935,53.91387 -1.5684,8.0506 -1.6409,9.71566 -0.4788,11 0.7532,0.83238 2.3076,3.70223 3.4543,6.37745 1.8985,4.42939 2.3293,4.81608 4.8214,4.32748 1.5052,-0.29509 9.8233,-1.57228 18.4848,-2.83818 l 15.748,-2.30164 2.0774,2.07741 c 2.4343,2.43424 3.6108,9.2238201 2.0905,12.0644201 -0.8974,1.67683 -3.8356,2.41903004 -19.0923,4.82274 -9.9173,1.56249 -18.4905,3.12455 -19.0515,3.47123 -0.5609,0.34668 -1.9776,4.41775 -3.1482,9.0468299 -3.1094,12.29592 -1.9009,21.06304 4.8358,35.08195 11.1455,23.19369 24.9249,34.75662 41.5315,34.85108 3.3197,0.0189 7.875,-0.77889 10.8055,-1.89236 z m -11.0448,-4.40658 c 0,-0.73237 2.288,-2.81414 5.0844,-4.62616 10.4166,-6.74972 18.1749,-20.36118 22.2478,-39.03222 2.7834,-12.75979 3.0107,-47.58726 0.4024,-61.64572 -5.213,-28.09688 -15.0883,-44.65839 -31.2197,-52.35721 -6.0379,-2.88161 -8.6149,-6.0071 -4.953,-6.0071 3.383,0 12.8261,5.46479 18.466,10.68633 14.4932,13.41816 21.8742,35.32264 23.5339,69.8412501 1.5775,32.8115399 -4.6993,59.5111499 -17.2803,73.5042499 -7.8641,8.7467 -16.2815,13.72876 -16.2815,9.63658 z m -92.9996,-6.66841 c 7.8869,-12.58471 8.5055,-14.45283 8.4435,-25.5 -0.042,-7.53623 -0.4897,-10.82014 -1.8164,-13.32878 -1.909,-3.60984 -6.6897,-6.17122 -11.5185,-6.17122 -3.4009,0 -8.75,-4.72125 -9.7178,-8.57726 -0.406,-1.61797 -1.3194,-2.42421 -2.7496,-2.42716 -2.4629,-0.005 -93.9279,14.19813 -94.5583,14.68355 -1.6881,1.29997 2.2867,1.22941 11.4196,-0.20272 14.1037,-2.2116 22.5278,-0.94162 34.9144,5.2635 10.0845,5.05188 20.5827,18.01625 20.5827,25.41789 0,3.0778 -1.2673,2.56291 18.2591,7.4183 8.3086,2.06597 11.9529,3.53704 16,6.45862 2.8825,2.0808 5.5619,3.71173 5.9543,3.62428 0.3924,-0.0874 2.5466,-3.084 4.787,-6.659 z m -358.2004,-4.2 c 4.1243,-4.12422 -3.4682,-22.8 -9.2691,-22.8 -3.9567,0 -5.5264,1.07088 -7.6387,5.21144 -1.8955,3.71538 -1.9083,3.92846 -0.2041,3.38756 4.0463,-1.28424 8.5858,3.42555 12.1936,12.651 1.1468,2.93236 2.9635,3.50488 4.9183,1.55 z m -10.2324,-1.46428 c 2.0267,-0.77774 1.7758,-2.39425 -0.8886,-5.72392 -2.2217,-2.77653 -2.5351,-2.86023 -8.1029,-2.16457 l -5.7919,0.72365 0.6079,3.03956 c 0.3344,1.67176 0.6079,3.71643 0.6079,4.54373 0,1.24904 1.0292,1.38773 6.0676,0.8177 3.3371,-0.37755 6.7121,-0.93382 7.5,-1.23615 z m 20.2911,-1.08572 c 1.1166,-2.10339 -0.1572,-11.08777 -2.6278,-18.53348 l -1.7309,-5.21652 -4.2532,0.0865 c -4.8342,0.0984 -6.5118,1.126 -4.0694,2.49281 1.498,0.83835 8.1314,18.43505 7.7455,20.54691 -0.5316,2.90881 3.4553,3.41262 4.9358,0.62373 z m 7.4103,-6.77803 c -2.4323,-1.00467 -2.809,-0.91168 -3.098,0.76489 -0.181,1.04973 -0.057,2.61827 0.2761,3.48566 0.5155,1.34344 0.9744,1.23013 3.098,-0.76489 l 2.4929,-2.34196 -2.769,-1.1437 z m 72.231,-7.02716 c 35.3687,-5.41268 37.1984,-5.79847 41.5,-8.74991 2.475,-1.69816 6.7299,-4.60599 9.4554,-6.46184 3.4458,-2.34632 4.2074,-3.20703 2.5,-2.82529 -1.3505,0.30195 -23.3804,3.74714 -48.9554,7.65599 -25.575,3.90884 -46.5626,7.18107 -46.6391,7.27161 -0.077,0.0906 0.3628,2.30013 0.9763,4.91018 0.8188,3.48358 1.5207,4.62802 2.6392,4.30358 0.838,-0.24308 18.1736,-2.99003 38.5236,-6.10432 z m -72.1154,-12.77191 c -1.6008,-4.53715 -2.7953,-5.63493 -6.156,-5.65759 -1.4377,-0.01 -2.6737,0.86752 -3.3673,2.38984 -0.8965,1.96751 -0.6899,3.12745 1.1352,6.37485 l 2.2311,3.9697 3.8003,-1.49277 3.8002,-1.49277 -1.4435,-4.09126 z m 13.4851,1.39687 c 2.2028,-1.17893 2.2036,-2.86185 0,-8.83206 -1.6103,-4.37052 -8.5644,-5.40414 -12.161,-1.80753 -1.2363,1.23624 -1.0422,2.22933 1.4504,7.42285 2.7576,5.74551 2.9962,5.96168 5.7179,5.1811 1.5621,-0.44801 3.807,-1.33197 4.9886,-1.96436 z m 258.0631,-20.11721 c 28.8725,-4.4261 52.6311,-8.18318 52.797,-8.34907 0.1659,-0.16589 -0.064,-2.0570399 -0.51,-4.2025599 -0.7728,-3.71418 -0.977,-3.88582 -4.2657,-3.58537 -4.527,0.41359 -96.303,14.1714599 -96.4699,14.4615299 -4.4401,7.71551 -5.4327,9.72291 -4.8076,9.72291 0.4184,0 24.3837,-3.62135 53.2562,-8.04744 z m 89.9909,-12.8842299 c 0.8278,-0.52393 1.7373,-3.55179 2.173,-7.23467996 0.6745,-5.70052004 0.4925,-6.80628004 -1.8206,-11.06166014 -3.0289,-5.57216 -4.8777,-7.40492 -8.2761,-8.20403 -4.433,-1.04241 -5.4106,0.6218 -2.8824,4.90687 1.2284,2.08191 3.3341,4.88597 4.6794,6.2312401 2.0443,2.04431 2.3565,3.11293 1.9012,6.50753 -0.2997,2.23386004 -1.2349,4.75171 -2.0785,5.59522 -1.3782,1.3782 -1.3606,1.66511 0.1733,2.83061 2.012,1.52875 4.1559,1.67873 6.1307,0.4289 z m 11.3263,-4.26601 c 4.9355,-5.70793 -2.3363,-24.2348401 -9.7868,-24.9347801 -5.4975,-0.51645 -5.8277,-0.0467 -2.5729,3.66026 5.7424,6.54031 7.4339,11.0979701 6.7674,18.23526014 -0.5793,6.20283996 -0.5413,6.33616996 1.6246,5.70717996 1.2197,-0.35422 3.0052,-1.55478 3.9677,-2.66792 z m 9.9095,-1.55231996 c 1.6491,-4.08559004 1.3068,-8.29535004 -1.1363,-13.97448014 -2.5877,-6.01523 -6.0434,-9.56864 -8.8576,-9.1079 -1.9037,0.31169 -1.8073,0.69007 1.5492,6.07917 3.2179,5.16659 3.5793,6.4538301 3.5793,12.7500001 0,6.18449 0.2195,7.00321 1.8777,7.00321 1.1126,0 2.33,-1.12048 2.9877,-2.74999996 z m 21.644,-1.75469004 c 22.2368,-3.54832 21.1965,-3.24694 21.1965,-6.14051 0,-1.36745 -0.4259,-3.2820501 -0.9464,-4.2546501 -0.8961,-1.67445 -1.8654,-1.62065 -18.25,1.01305 -9.517,1.5297701 -17.3673,2.8051201 -17.4452,2.8341001 -0.078,0.029 -0.4367,1.2902 -0.7975,2.8027 -0.3607,1.5125 -0.8898,3.5375 -1.1758,4.50000004 -0.6537,2.20036996 -1.2669,2.22693996 17.4184,-0.75469004 z m -58.144,-9.1019301 c 2.1583,-0.579 2.1585,-0.58148 0.299,-4.73634 -3.5183,-7.86101 -8.9237,-9.79918 -13.754,-4.93158 -2.293,2.31081 -2.4445,2.77718 -0.9956,3.0654 0.9398,0.18697 2.664,1.88551 3.8315,3.77454 2.1828,3.5317601 5.0998,4.3086001 10.6191,2.82798 z m -14.6595,-2.39338 c -0.5887,-1.1 -1.2795,-2 -1.5352,-2 -0.2556,0 -0.4648,0.9 -0.4648,2 0,1.13148 0.6667,2 1.5352,2 1.2253,0 1.3191,-0.4037 0.4648,-2 z m 182.5,-5.51654 c 30.6305,-4.67519 28.5029,-4.12898 28.4847,-7.31292 -0.01,-1.46879 -0.4266,-3.3206 -0.9293,-4.11512 -0.9616,-1.51993 -1.2262,-1.4889 -43.5554,5.10722 l -13,2.02578 0.3552,4.46214 c 0.3373,4.23839 0.4878,4.4341 3,3.90279 1.4546,-0.30764 12.9948,-2.13909 25.6448,-4.06989 z"
       id="path3207"
       inkscape:connector-curvature="0" />
  </g>
</svg>
