<?xml version="1.0" encoding="UTF-8" standalone="no"?>
<!-- Created with Inkscape (http://www.inkscape.org/) -->

<svg
   xmlns:dc="http://purl.org/dc/elements/1.1/"
   xmlns:cc="http://creativecommons.org/ns#"
   xmlns:rdf="http://www.w3.org/1999/02/22-rdf-syntax-ns#"
   xmlns:svg="http://www.w3.org/2000/svg"
   xmlns="http://www.w3.org/2000/svg"
   xmlns:xlink="http://www.w3.org/1999/xlink"
   xmlns:sodipodi="http://sodipodi.sourceforge.net/DTD/sodipodi-0.dtd"
   xmlns:inkscape="http://www.inkscape.org/namespaces/inkscape"
   width="475.80771"
   height="865.33716"
   id="svg2"
   version="1.1"
   inkscape:version="0.48.3.1 r9886"
   sodipodi:docname="Lunges-2-1.svg">
  <defs
     id="defs4">
    <radialGradient
       gradientUnits="userSpaceOnUse"
       gradientTransform="matrix(1,0,0,0.91819829,-19.285714,-7.9105395)"
       r="209.56604"
       fy="287.50052"
       fx="398.1105"
       cy="287.50052"
       cx="398.1105"
       id="radialGradient5255"
       xlink:href="#linearGradient5249"
       inkscape:collect="always" />
    <linearGradient
       id="linearGradient5249"
       inkscape:collect="always">
      <stop
         id="stop5251"
         offset="0"
         style="stop-color:#e3e3e3;stop-opacity:1;" />
      <stop
         id="stop5253"
         offset="1"
         style="stop-color:#e3e3e3;stop-opacity:0;" />
    </linearGradient>
  </defs>
  <sodipodi:namedview
     id="base"
     pagecolor="#ffffff"
     bordercolor="#666666"
     borderopacity="1.0"
     inkscape:pageopacity="0.0"
     inkscape:pageshadow="2"
     inkscape:zoom="0.35"
     inkscape:cx="-201.86374"
     inkscape:cy="53.39066"
     inkscape:document-units="px"
     inkscape:current-layer="layer1"
     showgrid="false"
     showguides="true"
     inkscape:guide-bbox="true"
     fit-margin-top="0"
     fit-margin-left="0"
     fit-margin-right="0"
     fit-margin-bottom="0"
     inkscape:window-width="1201"
     inkscape:window-height="886"
     inkscape:window-x="166"
     inkscape:window-y="73"
     inkscape:window-maximized="0">
    <sodipodi:guide
       orientation="-0.70710678,0.70710678"
       position="-2663.1561,547.56844"
       id="guide2985" />
  </sodipodi:namedview>
  <metadata
     id="metadata7">
    <rdf:RDF>
      <cc:Work
         rdf:about="">
        <dc:format>image/svg+xml</dc:format>
        <dc:type
           rdf:resource="http://purl.org/dc/dcmitype/StillImage" />
        <dc:title></dc:title>
      </cc:Work>
    </rdf:RDF>
  </metadata>
  <g
     inkscape:label="Ebene 1"
     inkscape:groupmode="layer"
     id="layer1"
     transform="translate(-1234.5846,291.12079)">
    <path
       style="fill:#000000"
       d="m 1371.8928,572.05036 c -5.1939,-2.7267 -14.6298,-9.9868 -17.6373,-13.5705 -2.4244,-2.8888 -5.7444,-15.0201 -7.8656,-28.7413 -0.7457,-4.8234 -2.8184,-10.664 -6.6659,-18.7836 -5.1916,-10.956 -5.5307,-12.1148 -4.8285,-16.5 0.4153,-2.594 0.6653,-6.7414 0.5556,-9.2164 -0.4449,-10.0316 -0.2792,-14.8487 0.7568,-22 1.5629,-10.7883 0.039,-21.4295 -7.0161,-49 -7.3317,-28.6501 -7.5678,-33.0711 -2.9672,-55.54698 2.7382,-13.37699 3.8142,-16.55916 9.6947,-28.67167 6.0589,-12.48016 6.6944,-14.40826 7.5652,-22.95299 1.8975,-18.61952 2.605,-32.57665 2.2634,-44.65448 -0.3393,-12.00041 -0.441,-12.48383 -3.8455,-18.29281 -1.9233,-3.28166 -4.1921,-8.08489 -5.0417,-10.67385 -1.7225,-5.24896 -6.2411,-8.97157 -12.0303,-9.91103 -2.8043,-0.45507 -3.8558,-0.0318 -6.5068,2.61915 -6.169,6.16905 -10.2623,7.58469 -21.9308,7.58469 -9.03,0 -11.1008,-0.3208 -14.7915,-2.29149 -6.5101,-3.47617 -12.03,-9.6196 -15.7708,-17.55238 -7.3691,-15.62716 -9.1155,-31.72486 -5.4921,-50.62557 4.9386,-25.76138 13.2534,-38.66813 29.1949,-45.31831 l 3.6404,-1.51865 -1.7728,-8.8468 c -2.7554,-13.749763 -3.502,-44.991753 -1.4063,-58.846803 2.1684,-14.33604 1.8971,-20.58201 -1.1559,-26.60673 -3.0761,-6.07037 -7.2174,-20.2995299 -8.5899,-29.5140299 -0.9553,-6.4135601 -0.6878,-9.5225801 2.6943,-31.3046201 3.5873,-23.10397 3.6983,-24.54981 2.4848,-32.37924 -1.6764,-10.81674 -1.0404,-24.03687 1.3962,-29.023367 4.1067,-8.40403 18.8438,-21.02582 33.8916,-29.0268 2.5716,-1.36732 7.6985,-5.78436 11.3931,-9.81563 3.6947,-4.03127 11.5972,-11.56337 17.5613,-16.73801 12.0607,-10.46434 13.7921,-13.08932 16.6877,-25.3008 1.0812,-4.55992 2.8815,-11.43934 4.0005,-15.28759 2.4568,-8.44926 2.4592,-8.50318 0.3631,-8.50318 -2.3414,0 -10.1687,-8.43613 -12.4132,-13.37874 -1.0293,-2.26669 -1.8814,-5.97718 -1.8934,-8.24553 -0.024,-4.50863 2.238,-11.87782 4.3975,-14.32608 0.8967,-1.01659 1.499,-5.00506 1.7508,-11.59478 0.3322,-8.69206 0.7843,-10.84724 3.3562,-16 3.798,-7.609 11.955,-15.87034 18.7347,-18.97417 10.7883,-4.93904 24.7369,-5.1248 37.0211,-0.49304 8.2643,3.11605 13.4964,7.47335 19.2475,16.02941 9.3489,13.90868 11.8299,26.60716 11.2543,57.60312 l -0.3692,19.87981 -3.3085,7 c -1.8198,3.85 -4.3958,8.44255 -5.7246,10.20567 -2.2482,2.98302 -2.2932,3.27096 -0.6489,4.1455 3.4326,1.82564 15.6136,4.38554 21.1547,4.44576 3.0868,0.0335 10.3415,-0.3062 16.1216,-0.755 9.8318,-0.7634 10.8957,-0.65982 16.5083,1.6072 7.1514,2.88855 16.621,9.00221 21.475,13.86431 2.4181,2.42218 4.275,5.83871 5.9784,11 2.138,6.478 2.4529,9.1587 2.3371,19.8989 l -0.1339,12.41234 3.9207,6.20799 c 5.3188,8.421667 7.8366,18.678567 8.9519,36.467327 1.205,19.21815 1.297,19.61433 6.2848,27.06226 2.3712,3.54076 8.613,12.79588 13.8706,20.56695 5.9543,8.80073 10.7013,17.0974801 12.5874,22.0000001 3.3879,8.8059599 6.8232,27.7570199 7.7714,42.8707899 0.5197,8.28396 1.4823,12.57405 5.6098,25 4.6429,13.97785 9.0117,23.12197 10.6361,22.26167 7.2772,-3.85414 9.0647,-4.26167 18.6932,-4.26167 9.2156,0 10.4201,0.23268 15.3554,2.9663 7.0935,3.929 12.5715,10.278453 17.2841,20.033703 4.7573,9.84761 6.8245,19.23016 6.83,31 0.012,25.32216 -11.6132,50.45148 -28.76,62.16898 -23.9543,16.36949 -49.8892,3.57456 -58.0727,-28.65009 l -1.8855,-7.42463 -6.73,-2.72613 -6.73,-2.72614 -3.5445,3.54455 c -4.0433,4.04327 -10.4481,7.25926 -14.5215,7.2915 -2.076,0.0164 -3.0303,0.694 -3.7894,2.69046 -0.558,1.46768 -1.736,3.19604 -2.6177,3.84081 -1.2482,0.91267 -1.476,2.25951 -1.0288,6.08149 0.316,2.70006 1.0817,9.1842 1.7016,14.4092 0.62,5.225 1.0406,16.25 0.9349,24.5 -0.1679,13.09619 0.091,15.88845 2.0394,22 2.4997,7.84112 2.7478,14.92225 1.5444,44.09196 -0.5499,13.32748 -0.222,23.76424 1.4887,47.38625 1.9493,26.91667 2.0604,31.99899 0.9967,45.58386 -0.6584,8.4093 -1.2642,19.4925 -1.3461,24.6294 l -0.149,9.3398 9.5701,12.9813 c 5.6765,7.6998 11.7793,14.7409 15,17.3062 2.9864,2.3787 8.1299,6.61 11.4299,9.4031 7.0513,5.968 8.7594,6.7503 24.6023,11.2671 6.6076,1.8839 13.9002,4.4641 16.2058,5.7338 l 4.1919,2.3085 0.2923,7.1587 c 0.2869,7.028 0.2272,7.2238 -3.2659,10.7169 -4.6319,4.632 -8.2268,6.4217 -16.3626,8.146 -7.8445,1.6627 -27.911,1.8606 -40.6522,0.4011 -7.959,-0.9118 -9.7095,-1.4995 -15.2859,-5.1326 -7.8561,-5.1185 -11.0007,-5.7237 -30.0254,-5.7778 -17.3703,-0.049 -18.4942,-0.3841 -25.0022,-7.4445 -3.9245,-4.2576 -4.1981,-4.9323 -4.1981,-10.353 0,-8.5501 1.7932,-21.4774 4.4729,-32.2461 5.8076,-23.3382 6.1161,-45 0.7892,-55.4251 -0.822,-1.6088 -3.6794,-5.929 -6.3497,-9.6004 -5.9139,-8.13085 -8.3454,-13.62132 -10.3674,-23.41015 -2.2669,-10.97513 -2.0474,-33.50567 0.4441,-45.56432 3.7805,-18.29763 3.7516,-19.85055 -0.5108,-27.47239 -3.5726,-6.38842 -3.7258,-7.03494 -3.188,-13.44968 1.0228,-12.20011 0.4155,-13.88783 -11.4127,-31.71768 -5.9475,-8.9652 -11.969,-18.5805 -13.3812,-21.36732 -1.4122,-2.78683 -2.955,-4.82753 -3.4285,-4.5349 -1.0632,0.65712 -2.4332,8.43999 -5.0241,28.54197 -1.0988,8.525 -2.5937,17.77182 -3.322,20.54849 -1.5767,6.01063 -7.711,17.28857 -12.1491,22.33613 -2.5154,2.86071 -3.4284,5.13045 -4.374,10.8736 -0.9387,5.70098 -2.9516,10.74287 -9.382,23.5 l -8.1868,16.24178 -0.05,9.5 c -0.027,5.225 0.1393,17.6 0.3706,27.5 l 0.4206,17.99997 -3.5497,9 c -4.5267,11.4773 -5.4672,16.007 -7.8614,37.8646 -2.5379,23.1685 -2.4971,24.6919 0.929,34.6978 4.0836,11.9264 6.0641,16.1644 12.5338,26.8214 9.9915,16.4582 15.73,24.3423 24.0831,33.0873 4.4807,4.6909 8.8998,9.6416 9.8203,11.0014 2.3476,3.468 2.0664,9.6423 -0.7108,15.6064 -2.784,5.9789 -6.7355,9.4211 -10.8149,9.4211 -2.0069,0 -3.7003,0.9159 -5.3764,2.9077 -1.9013,2.2596 -3.6144,3.0629 -7.6854,3.6037 -2.8814,0.3827 -7.6958,1.3242 -10.6989,2.0922 -8.2313,2.1051 -18.6918,1.7532 -23.5399,-0.7918 z m 22.4882,-7.4707 c 1.9333,-0.797 5.7223,-1.305 8.5,-1.1396 l 5.0118,0.2985 0,-4.5 c 0,-2.475 0.3641,-5.0625 0.809,-5.75 1.4378,-2.2215 4.6685,-1.4023 5.9149,1.5 0.6496,1.5125 1.242,2.8646 1.3164,3.0045 0.074,0.14 1.5481,-0.2379 3.2748,-0.8398 2.5954,-0.9048 3.4255,-2.002 4.7906,-6.3327 1.5361,-4.8732 1.5356,-5.4819 -0.01,-8.7331 -0.9121,-1.9222 -4.8541,-6.356 -8.76,-9.8531 -11.8106,-10.5743 -31.9574,-43.4899 -38.8068,-63.4023 -2.185,-6.3523 -2.5439,-14.3193 -0.9726,-21.5935 0.5347,-2.475 1.3631,-11.25 1.8409,-19.5 0.8911,-15.3844 1.5874,-18.3604 9.0081,-38.5 2.1337,-5.7906 2.551,-16.58579 1.2177,-31.49997 l -0.6258,-7 -3.2022,5.18729 c -3.8274,6.20014 -6.5016,14.85007 -9.3156,30.13178 -1.1463,6.2254 -2.5449,12.5254 -3.1079,14 -1.0032,2.6271 -1.0533,2.6407 -2.4936,0.6809 -1.6367,-2.2268 -1.5797,-2.8073 2.2191,-22.6138 2.9955,-15.61832 5.6247,-23.78215 9.947,-30.88617 1.881,-3.09151 4.2719,-9.22222 5.4598,-14 1.4666,-5.8985 3.9923,-11.86665 8.2526,-19.5 9.4782,-16.98299 11.7406,-21.60059 11.7406,-23.96278 0,-2.85466 2.9706,-11.53722 3.9473,-11.53722 1.5321,0 10.0515,-14.05961 11.9696,-19.75341 1.087,-3.22672 2.477,-10.78973 3.0889,-16.80668 0.6119,-6.01695 1.5068,-14.08148 1.9888,-17.92117 0.4819,-3.83969 0.7765,-7.08101 0.6545,-7.20293 -0.1219,-0.12192 -2.3379,0.53932 -4.9244,1.46942 -4.3907,1.5789 -4.8703,2.10979 -7.229,8.00166 -5.8191,14.53594 -17.646,28.24561 -29.1627,33.80514 -4.8868,2.35909 -7.1307,2.81875 -13.833,2.83374 -7.7097,0.0172 -11.098,-0.99628 -20.6262,-6.1699 -0.3445,-0.18701 -0.8283,11.94141 -1.0753,26.95205 l -0.449,27.29208 -3.0601,8.5 c -1.6831,4.675 -5.3558,13.6923 -8.1616,20.03845 -6.0574,13.70061 -8.959,24.36768 -9.7869,35.97836 -0.6695,9.38986 -0.1171,12.53206 6.5266,37.12096 5.211,19.2864 6.9317,28.1047 8.0523,41.2678 0.8389,9.8547 0.7365,11.3924 -1.063,15.9576 -1.7913,4.5447 -1.8688,5.6685 -0.7717,11.188 0.9298,4.6778 0.9458,6.9215 0.067,9.4416 -1.8763,5.3821 -1.4051,7.5581 3.8492,17.7785 3.6107,7.0232 5.2926,11.6754 6.0477,16.7287 0.5754,3.85 2.1497,10.5108 3.4984,14.8016 1.3488,4.2909 2.4523,8.9135 2.4523,10.2724 0,3.6279 7.1751,10.8555 14.3527,14.4577 5.5581,2.7894 6.7224,3.021 12.1473,2.4163 3.3,-0.3679 7.5697,-1.316 9.4882,-2.1069 z m -13.7382,-7.9826 c -0.6875,-0.2888 -1.25,-1.8488 -1.25,-3.4665 0,-3.3824 3.2668,-5.1972 8.4437,-4.6909 3.9711,0.3884 4.7651,3.9697 1.3676,6.168 -2.7454,1.7763 -6.8167,2.7224 -8.5613,1.9894 z m 20.8139,-10.7926 c -3.938,-4.0629 -3.5931,-6.5659 0.9047,-6.5659 5.1913,0 8.9537,5.6778 5.8314,8.8 -1.8805,1.8805 -3.1591,1.4565 -6.7361,-2.2341 z m -47.3551,-63.1903 c -1.3759,-1.376 -0.6844,-6.679 1.2868,-9.8685 2.4572,-3.9757 9.2223,-8.8024 11.6836,-8.3358 1.2118,0.2297 1.9227,1.3909 2.1256,3.4715 0.2576,2.6433 -0.2351,3.4601 -3.1885,5.2853 -1.9212,1.1874 -4.3084,3.8269 -5.3047,5.8654 -1.7123,3.5034 -4.9337,5.2511 -6.6028,3.5821 z m -2.6528,-129.80805 c -1.5129,-1.82296 -3.0099,-12.08797 -3.0359,-20.81752 -0.017,-5.84078 0.2224,-6.75 1.7799,-6.75 3.4747,0 4.1094,1.90445 3.5022,10.50877 -0.4389,6.21898 -0.1806,9.39985 1.0586,13.03679 0.9016,2.6459 1.6392,4.95556 1.6392,5.13258 0,0.98588 -3.9383,0.10119 -4.944,-1.11062 z m 28.2984,-44.25957 c -3.3718,-0.65955 -5.6915,-3.82857 -4.9539,-6.76766 0.8374,-3.33644 1.7758,-3.20476 4.0005,0.56139 1.9163,3.24409 2.2243,3.28538 9.9823,1.33824 2.1376,-0.53649 2.6167,-0.30731 2.6167,1.25167 0,3.85484 -4.0294,5.10612 -11.6456,3.61636 z m -12.9936,-26.81019 c -1.9802,-5.16034 6.031,-14.09566 15.5072,-17.29579 3.4235,-1.15615 7.5883,-3.24957 9.255,-4.65203 1.6668,-1.40247 3.6851,-2.54994 4.4851,-2.54994 2.0164,0 2.9349,2.90096 1.5968,5.04354 -0.8619,1.38012 -0.7852,1.90352 0.3422,2.33615 0.7991,0.30665 1.4583,1.80916 1.465,3.33893 0.01,1.52976 1.1499,4.77202 2.5406,7.20502 2.1877,3.82717 2.3366,4.61564 1.1046,5.84762 -3.0812,3.08126 -6.7503,-1.78014 -9.3784,-12.42633 l -0.7789,-3.15508 -7.115,3.38779 c -5.6141,2.67309 -8.0131,4.5517 -11.3717,8.90507 -4.2941,5.56606 -6.5943,6.77286 -7.6525,4.01505 z m 224.1139,213.96681 c 8.1986,-2.1354 15.9516,-6.4479 16.3275,-9.0818 0.6579,-4.6106 -7.2621,-8.3866 -31.3022,-14.9238 -5.6011,-1.5231 -6.7645,-2.409 -17.5,-13.3252 -11.8295,-12.0288 -23.0623,-24.9686 -29.053,-33.4683 -3.3712,-4.783 -3.4058,-4.9429 -3.2545,-15 0.084,-5.591 0.6996,-17.0107 1.3678,-25.3771 0.7382,-9.24365 0.9723,-21.99426 0.5966,-32.49996 -0.34,-9.50863 -0.8767,-24.71341 -1.1926,-33.78841 -0.6611,-18.99221 -0.9493,-21 -3.0147,-21 -2.5345,0 -2.625,-2.27589 -0.4806,-12.0866 1.1317,-5.17737 2.3327,-12.35931 2.669,-15.95986 0.8153,-8.72952 -1.1784,-20.44741 -3.9121,-22.9943 -1.9129,-1.78212 -1.9834,-2.33181 -0.9006,-7.02264 1.6015,-6.93804 1.4259,-34.236 -0.2978,-46.2941 -0.7751,-5.42162 -1.5722,-10.02052 -1.7714,-10.21976 -0.1993,-0.19924 -3.7134,2.60923 -7.8092,6.24104 -4.3005,3.81331 -10.4045,8.00627 -14.4469,9.92384 -12.4927,5.92607 -33.0434,10.00291 -46.5701,9.23857 l -6.8703,-0.3882 4.1053,7.53101 c 2.258,4.14205 7.477,12.256 11.5978,18.031 4.1209,5.775 8.125,11.98367 8.898,13.79705 0.773,1.81338 1.7668,8.78838 2.2084,15.5 0.7669,11.65535 0.9897,12.56195 4.9648,20.20295 4.0858,7.85368 5.0794,12.16441 3.2387,14.05 -2.1075,2.15884 -5.0726,22.64281 -5.0726,35.04292 0,20.35246 2.9848,31.32567 11.6283,42.74931 6.4463,8.51984 8.3571,13.31764 9.6275,24.17424 1.4424,12.3264 -0.1315,29.9461 -4.1272,46.2018 -1.6518,6.7201 -3.3007,16.3951 -3.6642,21.5 -0.6195,8.6991 -0.5117,9.5005 1.7173,12.7672 3.6936,5.4129 5.8584,6.0693 17.8183,5.4022 13.6824,-0.7632 21.4821,0.6129 31.4549,5.5498 10.016,4.9584 18.8948,6.589 37.585,6.9025 5.8627,0.098 11.8121,-0.4318 15.4348,-1.3754 z m 0.077,-10.4079 c -0.9672,-1.0688 -3.0858,-2.2348 -4.7079,-2.5911 -4.1115,-0.903 -2.9323,-2.9916 1.6051,-2.8431 4.2596,0.1394 8.1837,3.2878 7.2219,5.7943 -0.8059,2.1002 -1.9859,1.997 -4.1191,-0.3601 z m -88.3614,-24.0562 c -6.8032,-4.2015 -7.7079,-13.2243 -2.102,-20.963 5.457,-7.5332 8.4208,-4.4196 4.859,5.1046 -2.6999,7.2195 -2.2415,8.4274 4.0852,10.7644 3.6402,1.3447 4.4679,2.1083 4.4679,4.122 0,2.1714 -0.4857,2.5046 -4,2.7439 -2.6657,0.1816 -5.1041,-0.4095 -7.3101,-1.7719 z m -3.831,-91.50775 c -0.3467,-0.90346 0.8677,-3.10795 3.0314,-5.50288 l 3.6097,-3.9956 0,-9.99712 c 0,-8.11294 0.2761,-9.99712 1.4648,-9.99712 2.478,0 3.5352,3.52441 3.5352,11.78504 0,8.73065 -1.226,13.55335 -4.3128,16.96496 -2.3212,2.56546 -6.4677,2.98569 -7.3284,0.74272 z m 7.4259,-82.28666 c -1.8066,-1.53667 -4.5223,-3.57204 -6.0348,-4.52306 -1.8095,-1.13777 -2.75,-2.58692 -2.75,-4.23744 0,-4.79176 2.6456,-3.76582 10.269,3.98225 7.1015,7.21761 7.3181,7.57219 4.6255,7.57219 -1.642,0 -4.2003,-1.16993 -6.1097,-2.79394 z m -6.1778,-37.78785 c -0.3339,-0.86998 -0.607,-1.7655 -0.607,-1.99004 0,-0.22454 2.8231,-1.68831 6.2735,-3.25282 5.3145,-2.40967 6.5608,-3.48139 8.1519,-7.00995 2.2302,-4.94561 5.5746,-5.84476 5.5746,-1.49873 0,4.0431 -11.5796,15.33333 -15.7263,15.33333 -1.8676,0 -3.2962,-0.61631 -3.6667,-1.58179 z m -118.0493,4.47434 c 6.9138,-2.58678 17.406,-12.14721 22.3656,-20.37948 5.1797,-8.59735 9.0332,-20.60219 10.3255,-32.16641 0.9613,-8.60263 0.8856,-11.63538 -0.4831,-19.3573 -2.9619,-16.71032 -11.0693,-29.56125 -21.6165,-34.26398 -21.6423,-9.64978 -46.4206,13.40491 -52.114,48.48891 -4.1048,25.295 6.0496,51.33089 22.5295,57.76521 6.468,2.52537 12.0796,2.49968 18.993,-0.087 z m -73.5515,-27.89569 c 3.9106,-1.99508 5.9579,-3.99686 4.0876,-3.99686 -2.1165,0 -8.4977,-6.6589 -10.3123,-10.76105 -1.6643,-3.76234 -1.7618,-5.14601 -0.8332,-11.82236 0.5784,-4.15872 1.0517,-10.3766 1.0517,-13.8175 0,-5.34437 -0.4591,-6.94932 -3.15,-11.01178 l -3.1499,-4.75557 1.1113,-9.16587 c 1.6667,-13.74571 -0.9424,-37.70115 -4.0999,-37.64391 -3.1057,0.0563 -9.6794,4.12172 -13.0849,8.09221 -10.1923,11.88294 -18.0005,39.77276 -15.7219,56.15579 2.2732,16.34371 8.2906,29.64625 16.3088,36.05333 7.2164,5.76641 19.4276,6.9411 27.7927,2.67357 z m 24.3126,-12.48561 c -0.7123,-7.6276 1.0997,-22.32733 3.8842,-31.51125 1.084,-3.575 3.9629,-10.27496 6.3977,-14.8888 l 4.4269,-8.3888 -4.826,-5.1112 c -3.4479,-3.65169 -5.4502,-5.02001 -7.0121,-4.79186 -2.6807,0.39156 -4.1895,-2.95871 -4.1895,-9.30265 0,-9.39987 3.1766,-10.3791 4.9202,-1.51669 0.6493,3.3 1.3427,6 1.5411,6 0.1984,0 0.2882,-6.6375 0.1997,-14.75 l -0.161,-14.75 4.9301,-14.5 c 6.481,-19.061103 6.4858,-21.114143 0.096,-40.908623 l -4.9744,-15.40863 -1.9851,4.40863 c -1.4201,3.15378 -1.9476,6.34729 -1.8531,11.21974 0.1036,5.34544 -0.2052,6.94053 -1.4351,7.41248 -2.0081,0.77058 -3.7632,-1.64698 -5.8968,-8.12242 -0.9244,-2.80565 -3.6383,-7.60419 -6.0309,-10.66342 -4.2604,-5.4474 -5.8239,-10.95581 -3.1002,-10.92245 2.1621,0.0265 3.4765,1.36764 5.0541,5.15691 1.2966,3.11439 6.2918,7.92063 6.9771,6.71324 4.0959,-7.21602 15.1637,-31.25412 16.7528,-36.38546 2.7948,-9.0242799 3.5653,-22.76636 2.0356,-36.30408 -1.4752,-13.05534 -2.3472,-16.01193 -6.1246,-20.76516 -3.5064,-4.41224 -4.0349,-9.43076 -0.993,-9.43076 2.0364,0 7.1702,6.56092 9.0948,11.62304 1.8219,4.79196 4.0448,24.40363 4.1081,36.2434501 l 0.061,11.36649 3.26,3.63351 c 5.298,5.9050499 7.2799,10.9263099 8.4483,21.4053599 0.5918,5.30713 1.076,11.66849 1.076,14.13637 l 0,4.48704 8.25,4.46388 c 7.2792,3.93859 15.75,7.20886 15.75,6.08049 0,-0.21954 -0.7259,-2.21334 -1.6131,-4.43067 -1.2917,-3.2282 -1.3669,-4.32814 -0.3775,-5.52023 0.6795,-0.8188 1.5535,-1.48873 1.9421,-1.48873 0.6561,0 4.2549,7.42705 5.3906,11.12485 0.7339,2.38933 4.6602,2.83293 31.1595,3.52043 22.3802,0.58063 24.5715,0.47859 32.4375,-1.51056 4.6398,-1.1733 10.0391,-2.96225 11.9984,-3.97546 3.2416,-1.67626 3.6075,-2.30519 4.0625,-6.9822 0.4848,-4.98355 2.814,-9.17706 5.0972,-9.17706 0.6703,0 0.8299,0.69971 0.3993,1.75 -0.3946,0.9625 -0.9569,3.71268 -1.2496,6.11151 -0.5085,4.16749 -0.4398,4.31212 1.5428,3.25106 2.8335,-1.51645 3.5242,-4.28826 2.5968,-10.42071 -1.0297,-6.80931 -0.6536,-12.12933 1.6858,-23.84894 2.1433,-10.7370099 2.3697,-13.8429199 1.0093,-13.8429199 -1.1989,0 -4.7469,5.7831999 -5.5686,9.0769499 -0.5623,2.2539 -1.1471,2.5673 -4.6646,2.5 -3.1113,-0.0595 -4.568,-0.71213 -6.435,-2.88271 -1.3274,-1.54317 -2.4134,-3.6541199 -2.4134,-4.6909899 0,-3.36394 2.2026,-3.42989 4.9013,-0.14675 1.4293,1.73884 3.0487,3.1390899 3.5987,3.1116599 0.55,-0.0274 2.7011,-2.8439899 4.7802,-6.2590199 8.5846,-14.10075 14.0301,-28.2736201 10.5947,-27.5743001 -3.1373,0.63864 -6.6625,-1.20786 -7.8696,-4.12212 -1.3539,-3.26849 -1.5921,-3.33715 -10.5667,-3.04638 l -6.0615,0.19639 -1.7854,-3.9593 c -2.0514,-4.54925 -1.8168,-7.53641 0.629,-8.00742 1.1435,-0.22021 2.168,0.79842 3.138,3.11999 1.4264,3.41393 1.5096,3.45086 8.6844,3.85628 6.7624,0.38211 7.4286,0.63017 10.0162,3.72969 4.512,5.40468 4.8795,4.3753 6.3574,-17.81037 0.4602,-6.90869 0.3889,-7.25902 -1.0577,-5.1938 -1.1408,1.62883 -2.365,2.1336 -4.628,1.90839 -3.3965,-0.33798 -5.0999,-2.80619 -1.9368,-2.80619 4.55,0 6.121,-6.02328 3.6766,-14.09655 -1.9375,-6.39911 -1.5214,-8.1642 1.3188,-5.59388 1.7073,1.54507 1.7806,1.44853 1.3967,-1.83946 -0.2228,-1.90856 -0.5798,-3.47011 -0.7934,-3.47011 -0.2135,0 -2.5753,1.5712 -5.2483,3.49157 -6.2733,4.50696 -10.3256,6.14983 -17.3016,7.01448 -8.4677,1.04953 -13.3912,-0.12089 -17.4087,-4.13837 -1.8888,-1.88889 -3.4343,-4.34225 -3.4343,-5.4519 0,-1.93292 0.1363,-1.91441 3.25,0.44115 9.2431,6.99266 20.8338,5.54379 33.726,-4.21586 6.8818,-5.20969 9.5757,-9.64897 11.1288,-18.339287 1.5478,-8.66112 0.2626,-14.98534 -4.6801,-23.02914 -3.0406,-4.94832 -3.3579,-6.02891 -2.3328,-7.94433 l 1.1865,-2.21696 2.3813,2.94432 c 5.0999,6.30562 7.7415,13.48531 8.153,22.15905 0.336,7.08335 0.659,8.30021 2.3453,8.83544 2.5473,0.808457 1.9718,3.856667 -0.8032,4.254307 -1.4851,0.21282 -2.6524,1.68624 -3.8777,4.89461 -2.133,5.58527 -1.543,19.33601 1.4721,34.30921 3.3011,16.39318 6.3042,21.04601 17.1226,26.52809 5.4404,2.75686 6.7928,4.31125 4.8146,5.53381 -3.3132,2.04772 -12.2724,-2.5682 -19.0517,-9.81579 l -4.5964,-4.91399 -0.6105,5.07979 c -0.3357,2.79389 -0.6143,8.46626 -0.6191,12.60526 -0.01,6.34609 0.4565,8.46178 2.9599,13.5000001 1.6711,3.36325 2.9824,7.62734004 3,9.75609 0.066,7.99519 8.2142,26.5109799 16.3779,37.2184499 2.516,3.3 7.5779,8.475 11.2488,11.5 3.6708,3.025 7.7568,6.4 9.0801,7.5 1.5069,1.25264 3.829,5.92367 6.2141,12.5 2.9227,8.05845 4.1921,10.43167 5.4593,10.20616 2.3761,-0.42283 2.1048,2.94664 -0.6905,8.57708 -3.4487,6.94681 -4.8141,12.969253 -4.4669,19.703743 l 0.3086,5.98697 3.75,0.60561 c 3.3314,0.53801 3.7501,0.37203 3.7508,-1.48698 4e-4,-1.15092 1.3895,-5.01758 3.0867,-8.59258 1.6973,-3.575 3.7709,-8.525003 4.6081,-11.000003 2.4478,-7.23692 4.7563,-9.03189 5.8764,-4.56913 0.7812,3.11233 -1.9023,12.352013 -5.5997,19.280753 -3.2249,6.04322 -2.9792,8.11454 1.6088,13.56709 1.6053,1.9078 2.4145,3.94814 2.2219,5.60239 -0.4618,3.96561 -3.3295,3.8198 -6.0022,-0.30519 -1.7957,-2.77164 -2.9654,-3.55387 -5.3283,-3.56353 -3.3945,-0.0139 -7.4725,2.40538 -7.4725,4.43303 0,0.73261 1.5232,1.61776 3.3848,1.967 1.8617,0.34925 5.3492,1.96614 7.75,3.5931 2.4009,1.62695 4.8152,2.96531 5.3652,2.97413 0.55,0.009 2.2447,-3.92288 3.7661,-8.73709 3.2789,-10.37614 8.7658,-19.91892 15.6989,-27.30365 2.7693,-2.949603 5.035,-5.535543 5.035,-5.746533 0,-0.211 -0.8847,-1.62615 -1.9661,-3.14479 -1.8499,-2.59799 -6.759,-15.03496 -11.2682,-28.54758 -1.3637,-4.08685 -2.2537,-10.46403 -2.7911,-20 -1.4242,-25.27221 -6.3936,-42.7363699 -16.1961,-56.91896 -2.6917,-3.89457 -7.6599,-11.22901 -11.0402,-16.29874 l -6.1461,-9.21771 -1.28,3.04414 c -0.8626,2.05152 -1.8558,2.93299 -3.0461,2.70327 -1.5555,-0.30022 -1.7792,-1.68428 -1.8756,-11.60503 -0.2791,-28.71542 -2.1627,-41.7459 -7.6017,-52.5886 l -2.9505,-5.881627 -1.9491,3.204987 c -2.0615,3.39002 -4.4601,3.64588 -4.2848,0.45706 0.057,-1.044327 0.845,-5.367317 1.75,-9.606627 2.0802,-9.74353 2.0945,-19.88376 0.041,-29.09475 -1.4552,-6.52759 -2.0935,-7.66273 -6.8588,-12.19741 -2.8898,-2.75 -8.9441,-7.21516 -13.4539,-9.92257 -9.5771,-5.74957 -16.1883,-6.9527 -23.0714,-4.19864 -6.0468,2.41944 -16.8105,2.07184 -27.908,-0.90126 -5.1682,-1.38459 -9.5203,-2.3939 -9.6713,-2.24291 -0.151,0.15099 -1.0033,3.41693 -1.894,7.25765 -1.8894,8.14716 -3.8054,11.50773 -6.561,11.50773 -2.4473,0 -2.4463,-0.32278 0.023,-7.5 1.1,-3.19721 2,-7.13832 2,-8.75804 l 0,-2.94494 -6.7923,0.68211 c -5.5484,0.55721 -7.9747,0.28873 -13.25,-1.46613 -7.3942,-2.45979 -17.3143,-8.06546 -24.9399,-14.09314 -5.2074,-4.11623 -5.244,-4.18387 -4.4778,-8.28499 0.4249,-2.27418 0.7691,-6.27237 0.765,-8.88487 -0.01,-5.22808 -0.025,-5.20583 2.8245,-3.68065 1.7541,0.93876 1.963,1.92908 1.7107,8.10973 -0.3425,8.38942 -0.1152,8.65079 13.4531,15.46703 12.2384,6.14818 19.5814,7.92396 26.4293,6.39148 7.42,-1.66052 10.8966,-5.01041 15.4283,-14.86586 3.4264,-7.45172 3.9877,-9.78831 4.9141,-20.4567 1.7089,-19.68121 -1.279,-40.81341 -7.6934,-54.41158 -3.8474,-8.15613 -12.3174,-16.37378 -19.8791,-19.28666 -7.8941,-3.04095 -21.5558,-3.36659 -29.2128,-0.69631 -7.1527,2.49438 -14.4981,9.33688 -18.2439,16.9947 -5.5784,11.40422 -6.2677,24.34693 -1.4144,26.55823 1.3628,0.62094 2.3785,1.94691 2.3785,3.10515 0,2.28429 -1.1786,2.55134 -3.8626,0.87515 -2.6178,-1.63483 -6.7817,-0.31127 -7.5042,2.38535 -1.1562,4.31471 -0.6388,11.30753 1.0202,13.78843 2.816,4.21125 6.7465,8.13486 9.0443,9.02852 1.2087,0.47009 2.9856,2.05716 3.9485,3.5268 1.668,2.54568 1.6676,3.1641 -0.01,13.07268 -2.1456,12.68173 -5.9184,25.61499 -8.3881,28.7547 -1.0075,1.28084 -4.6721,4.69252 -8.1436,7.58152 -12.0976,10.06771 -23.8931,22.34452 -24.7768,25.78781 -0.7451,2.90298 -1.745,3.67217 -8.7084,6.69929 -10.0542,4.37074 -14.0845,7.18225 -24.4001,17.02119 -7.7831,7.42346 -8.4885,8.432407 -9.7883,13.999997 -1.6802,7.19679 -1.8343,18.48762 -0.3275,24 1.0869,3.97647 7.3648,17.1886 10.9695,23.08597 1.6291,2.66513 1.6992,3.34184 0.5143,4.96225 -1.8453,2.52369 -3.5667,1.04816 -8.0938,-6.93796 -1.905,-3.36064 -3.4725,-5.66026 -3.4832,-5.11026 -0.011,0.55 -1.5244,9.78645 -3.3637,20.52545 -4.1278,24.1007401 -3.9143,26.8038401 4.0087,50.74795 l 5.7157,17.2734 -1.8341,12.95391 c -1.4763,10.42655 -1.7256,16.61655 -1.2779,31.7266 0.5028,16.96891 0.912,20.31005 4.2582,34.772693 3.0507,13.18535 3.7803,18.46282 4.1472,30 0.2449,7.7 0.058,16.025 -0.4159,18.5 -0.751,3.92412 -0.4941,5.26784 2.0072,10.5 2.8466,5.95439 2.8636,6.10262 2.2379,19.5 -0.7399,15.84435 0.2366,19.49451 6.2657,23.42045 3.8806,2.52688 5.1299,2.89738 9.098,2.69803 1.9839,-0.0997 2.2611,-0.50644 1.7454,-2.56118 -0.7272,-2.89781 1.1575,-7.5573 3.0569,-7.5573 0.877,0 1.3395,1.27246 1.3395,3.68555 0,2.40774 0.7539,4.48799 2.1743,6 1.1959,1.27295 2.304,2.31445 2.4624,2.31445 0.1584,0 0.015,-2.91994 -0.3179,-6.48875 z m -18.7986,-11.47851 c -0.3288,-0.532 -0.304,-3.18213 0.055,-5.88918 0.396,-2.985 0.172,-6.37909 -0.5691,-8.6248 -1.6398,-4.96856 -0.027,-6.63201 2.8651,-2.95522 1.6281,2.0698 2.1287,4.10086 2.1287,8.63706 0,7.561 -2.3734,12.24031 -4.4798,8.83214 z M 1297.6437,83.571747 c -0.4128,-1.00824 -0.7502,-5.88316 -0.7498,-10.83316 5e-4,-7.68245 0.395,-9.84177 2.6946,-14.75 2.7011,-5.76498 4.8047,-7.43534 4.8047,-3.8151 0,1.0642 -0.5337,3.2017 -1.1859,4.75 -0.6523,1.54831 -1.4398,7.95422 -1.75,14.23537 -0.3865,7.82492 -0.9575,11.55026 -1.8136,11.83316 -0.6872,0.22709 -1.5872,-0.41204 -2,-1.42027 z m 133.1948,-24.26804 c -3.5453,-1.47731 -8.2971,-7.82714 -9.9024,-13.23253 -1.9122,-6.4392 -1.9163,-7.27782 -0.043,-8.83259 2.396,-1.98849 4.1907,0.36838 4.9582,6.51142 0.7394,5.91776 1.7899,7.07528 10.3573,11.4117 2.3735,1.20136 4.1387,2.72262 3.9227,3.38058 -0.4772,1.45362 -6.456,1.9435 -9.2928,0.76142 z m 31.7547,-18.26512 c -3.0553,-3.05527 -0.132,-11.8 3.9446,-11.8 1.8348,0 1.9623,0.41085 1.3181,4.25 -1.3627,8.12087 -2.7301,10.08259 -5.2627,7.55 z m 79.3995,-5.97896 c -0.2608,-1.27657 -0.6976,-7.04604 -0.9707,-12.82104 -0.591,-12.5017099 -2.7183,-18.8738399 -9.1889,-27.5246999 -4.6195,-6.1760701 -5.8715,-10.8976501 -2.7292,-10.2925101 2.5071,0.48284 13.033,16.49798014 14.6679,22.3172101 1.5789,5.6198299 2.6619,22.4617399 1.731,26.9174999 -0.7623,3.64841 -2.8785,4.4946 -3.5101,1.40354 z m -118.8495,-2.87544 c -3.2212,-1.92348 -6.4739,-10.9456 -3.9462,-10.9456 0.4421,0 2.3012,1.54488 4.1313,3.43306 1.8301,1.88818 4.6354,3.9748 6.2339,4.63693 1.5985,0.66213 2.7421,1.70475 2.5414,2.31694 -0.4865,1.48362 -6.7567,1.87456 -8.9604,0.55867 z m -42.2157,-11.09728 c -3.0379,-2.38958 -6.9122,-10.42111 -6.077,-12.5976199 0.3688,-0.96104 2.3443,0.50125 6.3163,4.6754499 5.9594,6.26273 8.8907,7.39422 13.1922,5.09216 2.7938,-1.49518 3.4746,1.55982 0.7698,3.45432 -3.2893,2.30395 -10.9042,1.96919 -14.2013,-0.62431 z m 39.3944,-1.82472 c -4.9868,-2.63633 -6.3486,-4.43019 -4.5172,-5.95012 1.1332,-0.94054 2.2822,-0.76022 5.4485,0.85508 4.6492,2.37184 9.7436,1.89569 10.6616,-0.99649 0.8285,-2.61038 3.0845,-3.05434 13.8436,-2.72426 l 9.5239,0.29219 4.1132,-3.9999999 4.1132,-4 -0.6866,-9.75 c -0.4828,-6.8559801 -0.3591,-9.7500001 0.4166,-9.7500001 2.0419,0 4.4531,6.4349 4.8682,12.9920301 0.7869,12.43114 -4.6603,17.4226299 -20.6206,18.8953499 -7.3459,0.67784 -9.8208,1.34489 -12.8956,3.47572 -4.5256,3.13629 -9.1783,3.35165 -14.2688,0.6605 z M 1297.5562,7.4885871 c -1.9344,-3.73077 -2.2291,-11.06116 -0.7331,-18.2359301 1.5354,-7.36389 1.2311,-9.3907 -1.7863,-11.89487 -0.9953,-0.82608 -1.6735,-0.8799 -2.1136,-0.16776 -1.3355,2.16086 -2.6457,0.93457 -2.3434,-2.19325 0.4601,-4.75902 3.1079,-4.69893 7.9881,0.18125 l 4.1004,4.10041 -0.7413,9.23007 c -0.9775,12.16982014 -0.9907,15.7739901 -0.068,18.4800801 0.6338,1.85845 0.4051,2.25 -1.3141,2.25 -1.1448,0 -2.4897,-0.7875 -2.9888,-1.75 z m 98.5365,-2.34399 c -7.2199,-3.81008 -5.9733,-8.29144 1.3786,-4.95604996 6.3262,2.87003996 9.5767,2.63107996 12.9219,-0.94996 1.5413,-1.65000004 3.2969,-3.00000004 3.9012,-3.00000004 2.1212,0 1.1654,6.02431 -1.3557,8.54545 -3.1783,3.17827 -11.182,3.34957 -16.846,0.36056 z m -29.9786,-8.98956 c -3.7841,-2.22991 -8.7443,-12.9498501 -5.9709,-12.9040701 0.4125,0.007 1.7607,1.57279 2.9961,3.47996 2.6222,4.0483801 6.0936,5.2309101 10.2733,3.4996201 1.6393,-0.6790301 2.9806,-1.3845501 2.9806,-1.5678301 0,-0.18327 -1.2375,-1.58013 -2.75,-3.10414 -2.2966,-2.3141 -2.4726,-2.82613 -1.0671,-3.10585 0.9255,-0.18421 3.1755,0.41962 5,1.34185 4.6807,2.36608 13.8171,9.3142101 13.8171,10.5077901 0,2.09747 -3.3817,2.1493 -7.5669,0.11598 -2.7801,-1.35068 -4.5848,-1.74337 -4.991,-1.08603 -1.4554,2.35487 -10.2163,4.29883 -12.7212,2.82272 z m 43.7791,-5.08071 c -6.7789,-3.7400601 -10.135,-10.8357401 -5.125,-10.8357401 1.8291,0 2.5104,0.677 2.9641,2.94562 1.3107,6.55323 6.9593,5.60876 20.1848,-3.37501 8.442,-5.7344 14.1201,-8.56657 17.194,-8.57619 2.2415,-0.007 8.3598,-1.72994 10.0857,-2.84018 0.7171,-0.46122 1.7051,-3.67864 2.1958,-7.14983 0.7925,-5.60647 0.6191,-6.98295 -1.552,-12.32616 -2.6686,-6.56739 -2.5285,-7.96661 0.5212,-5.20663 5.6066,5.07389 7.6486,16.44622 4.4075,24.54656 -1.9248,4.81047 -4.433,6.2926 -14.4961,8.56604 -6.5994,1.4909 -7.856,2.17378 -11.88,6.45601 -6.4782,6.8938901 -10.4088,8.9575901 -17,8.9256201 -3.025,-0.0147 -6.4,-0.52321 -7.5,-1.13011 z m -48,-12.9904701 c -3.2602,-1.78321 -4.5,-3.99728 -4.5,-8.0364 0,-4.58083 0.9043,-4.78219 3.8123,-0.84891 2.6784,3.6227 8.5518,5.56951 13.8208,4.58104 l 3.8261,-0.71777 -3.1287,-2.66161 c -4.3828,-3.72847 -5.9423,-6.9896 -3.7457,-7.83255 1.0654,-0.40881 2.2591,0.12168 3.2932,1.46349 2.2112,2.86921 6.2277,4.20744 12.6281,4.20744 8.67,0 8.4313,4.287 -0.3116,5.59808 -2.5531,0.38286 -6.6333,1.75492 -9.0672,3.04901 -4.815,2.56018 -13.052,3.15374 -16.6273,1.19818 z m 54.5277,-7.27251 c -1.609,-4.23181 0.2351,-7.07004 6.6595,-10.25004 5.3662,-2.65616 6.0817,-3.4255 9.3128,-10.01378 4.8496,-9.88843 6.4698,-11.47443 11.3464,-11.10675 2.3821,0.1796 4.3732,0.97339 5.0164,1.99985 1.5842,2.52825 0.2244,3.14685 -3.9146,1.78086 -4.3359,-1.43098 -4.9385,-0.86747 -5.8953,5.5131 -0.9108,6.07316 -4.3532,10.35975 -11.6245,14.4751 -5.609,3.17451 -6.4284,4.01088 -6.4284,6.56184 0,3.91605 -3.1044,4.63782 -4.4723,1.03982 z m -42.5277,-11.99632 c -7.737,-3.46945 -17.5,-14.72061 -17.5,-20.16746 0,-3.97625 1.5803,-5.31308 2.5694,-2.1735 1.8681,5.92993 12.8158,15.14696 19.2903,16.24082 15.7035,2.65308 49.7693,-12.44249 59.4116,-26.32707 2.9494,-4.24698 3.2287,-5.30881 3.2287,-12.27277 0,-7.05373 -0.331,-8.26739 -4.4288,-16.237897 -2.4358,-4.7379 -4.1159,-8.92717 -3.7336,-9.3095 1.5984,-1.59842 6.4484,3.80822 10.5053,11.710997 4.1072,8.00086 4.3184,8.8204 3.8912,15.10252 -0.642,9.44118 -3.4523,14.58181 -11.6286,21.27111 -6.9259,5.66631 -20.9353,14.07272 -31.554,18.9341 -9.3204,4.26702 -24.1765,5.86312 -30.0515,3.22865 z m -54.1542,-1.11777 c -1.2868,-3.35325 10.4386,-19.45867 14.1667,-19.45867 3.7261,0 3.8958,1.78554 0.4456,4.68867 -1.7446,1.46799 -4.5989,5.62608 -6.343,9.2402 -2.32,4.80759 -3.7686,6.65705 -5.3975,6.89127 -1.3782,0.19816 -2.4724,-0.32059 -2.8718,-1.36147 z m 138.873,-13.7258 c -3.2438,-3.45289 -2.9201,-5.14691 0.6324,-3.30979 3.0976,1.60179 5.1488,0.63646 5.1488,-2.42308 0,-2.24789 2.0109,-4 4.5908,-4 2.415,0 11.1369,5.62113 12.7911,8.24366 1.8158,2.87863 -0.1967,3.14467 -4.1247,0.54525 -6.3387,-4.19475 -7.6996,-4.27834 -8.7999,-0.54052 -0.8183,2.77952 -1.47,3.29478 -4.4885,3.54893 -2.6642,0.22432 -4.076,-0.28258 -5.75,-2.06445 z m -111.2188,-27.00297 c 0,-10.19579 6.1719,-28.860537 10.9832,-33.214667 1.7288,-1.56456 2.0488,-1.59552 2.5657,-0.2483 0.3249,0.84654 -0.2933,3.27183 -1.3736,5.38952 -1.7043,3.3406 -5.6339,18.899867 -7.7267,30.593547 -0.4963,2.77278 -1.1634,3.75 -2.5599,3.75 -1.6508,0 -1.8887,-0.78982 -1.8887,-6.2701 z m 15.25,-47.339917 c -0.6875,-0.30616 -1.25,-1.41057 -1.25,-2.45426 0,-2.26519 0.9531,-2.5086 15.5,-3.95861 6.05,-0.60306 16.7194,-2.20731 23.7097,-3.565 l 12.7098,-2.46854 6.5402,2.9655 c 10.817,4.90465 7.6817,8.53233 -3.3956,3.92883 l -5.2026,-2.1621 -19.1807,3.6859 c -20.6627,3.97069 -27.4683,4.90219 -29.4308,4.02828 z m 68.75,-9.18703 c 0,-0.98838 1.7404,-3.4965 3.8675,-5.57361 3.329,-3.25064 4.8371,-3.92661 10.8295,-4.85415 8.0826,-1.25107 12.5929,-0.51885 12.1142,1.96669 -0.3967,2.05995 -3.6699,3.02827 -10.6763,3.15844 -4.7952,0.0891 -5.7057,0.47151 -8.571,3.59968 -3.487,3.80693 -7.5639,4.7248 -7.5639,1.70295 z m -37.9507,-13.9545 c -6.5692,-3.32848 -14.2714,-21.74845 -9.0941,-21.74845 0.8787,0 1.7667,1.49868 2.2412,3.7825 1.1661,5.61258 3.1329,8.84458 8.2563,13.56715 2.5335,2.33525 4.3415,4.6744 4.0178,5.19813 -0.8082,1.3077 -1.4493,1.21317 -5.4212,-0.79933 z m 71.9507,-3.29734 c 0,-3.38226 11.7532,-7.77756 13.4511,-5.03027 0.6572,1.06341 -9.3896,7.07916 -11.8228,7.07916 -0.9746,0 -1.6283,-0.82258 -1.6283,-2.04889 z m -36.811,365.1 5.5145,-3.94889 0.55,-9.98045 c 0.6068,-11.01177 2.2991,-15.32309 6.6871,-17.03625 1.9277,-0.75262 13.0121,-3.08552 14.6603,-3.08552 0.1285,0 3.8174,-4.8375 8.1976,-10.75 8.8383,-11.93014 12.5219,-15.78803 14.1275,-14.79575 1.9271,1.19101 1.1378,4.23761 -2.3799,9.18656 -1.8997,2.67255 -5.2731,8.09756 -7.4964,12.05557 -2.2234,3.95801 -5.5376,8.33668 -7.3648,9.73038 -3.6833,2.80944 -10.7181,5.57324 -14.1856,5.57324 -2.5661,0 -3.4993,2.96172 -3.4993,11.10595 0,4.38027 0.2516,4.9191 2.5686,5.50062 1.4127,0.35457 7.3752,0.41922 13.25,0.14365 8.5134,-0.39934 13.0938,-1.24575 22.5673,-4.17024 15.006,-4.63237 15.7755,-5.04674 27.1815,-14.63662 5.1962,-4.36885 10.1192,-7.94336 10.9401,-7.94336 2.9512,0 1.2234,-4.24177 -4.1964,-10.30228 -1.8702,-2.09125 -3.8468,-4.97652 -4.3924,-6.4117 -0.5457,-1.43518 -1.1195,-8.98483 -1.2752,-16.77698 l -0.283,-14.16756 -6.791,-13.66485 c -6.7396,-13.56159 -6.8041,-13.64789 -8.5311,-11.42074 -3.5087,4.52471 -4.4538,7.41185 -4.9904,15.24411 -0.5289,7.72053 -0.6353,8 -3.048,8 -1.9694,0 -2.5659,-0.57029 -2.8103,-2.68703 -0.3929,-3.4018 4.9966,-18.98499 8.2842,-23.952933 l 2.4908,-3.76377 -2.062,-6.67598 c -1.425,-4.61366 -1.9602,-8.64509 -1.7324,-13.05023 0.1814,-3.50584 0.062,-6.37331 -0.2653,-6.37216 -0.3273,0.001 -1.3636,0.85132 -2.3029,1.88926 -2.3672,2.6158 -11.9948,6.7836 -20.9762,9.08065 -10.669,2.72865 -30.407,4.36834 -46.1552,3.83424 l -13.4707,-0.45686 0,4.43743 c 0,5.93033 -5.1409,15.582483 -10.2836,19.307883 -2.1124,1.53017 -6.9601,3.97413 -10.7727,5.43103 -4.5008,1.71983 -7.7531,3.69796 -9.273,5.63994 -2.1002,2.68354 -2.7237,2.91922 -6.0651,2.29237 l -3.7242,-0.69867 2.2115,-2.35403 c 1.2163,-1.29472 5.2957,-4.18636 9.0654,-6.42587 7.8876,-4.68595 18.1125,-12.932743 20.4411,-16.486553 1.2104,-1.84743 1.4287,-3.64874 0.9043,-7.46201 -0.6466,-4.70131 -0.8763,-5.02671 -3.5483,-5.02671 -4.4809,0 -13.0974,-2.06532 -17.1333,-4.10674 l -3.6779,-1.86032 -1.2763,3.73353 c -0.7147,2.09043 -1.2498,8.02443 -1.2159,13.48353 0.059,9.511123 0,9.750003 -2.2284,9.750003 -1.3963,0 -2.5318,-0.76557 -2.912,-1.96335 -0.6848,-2.157603 3.1697,-26.484403 4.6403,-29.286653 1.2498,-2.38133 6.252,-2.25039 9.6386,0.2523 5.5372,4.09192 15.7279,5.35801 43.7095,5.43042 27.3993,0.0709 38.5262,-1.16659 48.0015,-5.33856 5.9808,-2.63332 15.3629,-12.96689 15.4631,-17.03125 0.023,-0.94667 -0.9031,-0.54049 -2.7146,1.19022 -3.6419,3.47948 -13.8606,8.12954 -23.75,10.80755 -21.4091,5.79751 -70.8388,2.42289 -87.6644,-5.98495 -3.3903,-1.6942 -6.2281,-2.96682 -6.306,-2.82804 -1.2165,2.166 -9.0438,19.95821 -10.1113,22.98386 -0.8878,2.51637 -1.6859,10.28595 -2.0727,20.180103 -0.6053,15.47936 -0.5386,16.29654 1.7626,21.58835 1.907,4.38513 2.3918,7.23294 2.3918,14.04913 l 0,8.54913 5.9166,-3.04913 c 5.3945,-2.78002 6.7624,-3.04782 15.5,-3.03432 8.4005,0.013 10.203,0.34011 14.6032,2.65019 10.2064,5.35834 19.7065,19.17412 23.0986,33.5917 1.7585,7.47398 2.2349,21.65199 1.0247,30.4933 -0.9737,7.11423 -0.1488,7.31114 7.5459,1.80111 z m -9.189,-68.30496 c 0,-1.3927 0.7118,-2.80532 1.5818,-3.13916 0.87,-0.33385 13.3898,-0.60699 27.8219,-0.60699 28.4542,0 33.3415,-0.71222 38.651,-5.63255 3.3256,-3.08185 5.9453,-3.10025 5.9453,-0.0418 0,3.15826 -3.6411,6.34312 -10.1102,8.8432 -4.886,1.88832 -8.1239,2.13099 -34.6398,2.59623 l -29.25,0.5132 0,-2.53217 z m 3.4945,-6.7551 c -2.3127,-3.74206 5.8542,-9.68554 24.3481,-17.71926 6.9616,-3.02408 15.1324,-6.57078 18.1574,-7.88154 l 5.5,-2.38319 -5.5,0.48577 c -3.025,0.26718 -11.7361,0.97674 -19.358,1.5768 -15.643,1.23156 -20.9222,2.51682 -25.8847,6.30189 -4.8015,3.66229 -7.7573,3.52714 -7.7573,-0.35467 0,-2.55887 0.6756,-3.32094 4.75,-5.35808 8.5586,-4.27914 23.4175,-6.89898 46.476,-8.194333 14.7874,-0.83072 21.4079,-0.0171 22.9249,2.817453 1.6096,3.00769 -2.2488,5.99716 -10.3748,8.03836 -3.5561,0.89327 -9.573,3.02143 -13.3709,4.72925 -3.7979,1.70781 -10.374,4.44585 -14.6138,6.08451 -4.2397,1.63867 -11.1161,5.20388 -15.2809,7.92269 -7.9189,5.16951 -8.9921,5.59108 -10.016,3.93435 z m 193.5681,67.48078 c 11.7336,-5.93822 23.1177,-21.63323 27.5424,-37.97183 2.4797,-9.15691 2.9982,-28.58824 0.9748,-36.53271 -8.4089,-33.014753 -33.655,-42.430263 -55.1067,-20.55202 -19.0718,19.4509 -24.5427,55.35554 -12.2029,80.08473 8.2272,16.48758 23.8689,22.52444 38.7924,14.97183 z m -81.8436,-33.51584 c 3.5299,-0.98036 9.781,-5.34269 9.781,-6.82572 0,-0.38056 -1.8978,-1.35306 -4.2174,-2.1611 -8.39,-2.92273 -10.036,-8.68882 -7.7246,-27.06017 1.2805,-10.1779 2.1871,-12.18752 6.561,-14.54302 3.2095,-1.72844 3.3818,-2.10087 3.3966,-7.34338 0.01,-3.03743 0.6676,-8.2226 1.4644,-11.522603 1.7011,-7.04522 1.9216,-13.88112 0.5314,-16.47868 -0.5437,-1.01595 -3.0225,-2.62394 -5.5083,-3.5733 -8.2526,-3.15168 -19.9283,-0.40362 -27.855,6.55608 -4.704,4.13021 -6.2116,7.10805 -6.9617,13.75081 -0.558,4.941903 -0.2536,5.923393 5.1101,16.477753 l 5.7035,11.22284 0.5785,12.52225 c 0.7052,15.26611 2.0827,20.68232 6.6034,25.96373 3.7517,4.38304 5.8193,4.8802 12.5371,3.01451 z m 22.281,-18.70599 c 0,-5.3625 -0.45,-10.08061 -1,-10.48469 -2.258,-1.65894 -5.5556,-0.74935 -6.5247,1.79979 -2.8058,7.37974 1.0892,17.56378 7.0247,18.36722 0.275,0.0372 0.5,-4.31982 0.5,-9.68232 z m 6.5505,-5.00992 c -1.1902,-1.02715 -1.6282,-0.95914 -2.371,0.36817 -1.1732,2.09631 -0.2531,8.99214 1.4806,11.09681 1.1602,1.40845 1.4077,0.83314 1.8451,-4.28922 0.3784,-4.42991 0.1386,-6.2323 -0.9547,-7.17576 z m -210.254,2.74136 c 1.6742,-9.76326 1.5238,-12.67226 -0.9813,-18.98144 -1.7837,-4.49233 -2.1958,-7.62571 -2.2495,-17.10238 l -0.066,-11.602383 -1.7586,4.602383 c -4.3835,11.47171 -5.0135,15.61106 -4.5562,29.93858 l 0.4423,13.85917 3.4363,3.123 c 1.8899,1.71765 3.6821,3.13619 3.9827,3.15232 0.3005,0.0161 1.088,-3.12904 1.75,-6.98925 z m 190.4479,2.76856 c -0.1947,-1.7875 0.3188,-5.44441 1.141,-8.12646 1.3414,-4.37542 1.3338,-5.1224 -0.073,-7.2701 -1.4316,-2.18487 -1.4191,-2.78453 0.1432,-6.87522 0.9413,-2.46486 2.6741,-5.15582 3.8507,-5.97989 2.6581,-1.86186 0.5501,-2.04131 -4.2642,-0.36301 -4.2201,1.47114 -5.9228,5.54161 -7.1073,16.99136 -1.1675,11.28417 -0.086,14.12705 5.6148,14.75732 0.6039,0.0668 0.899,-1.26343 0.6952,-3.134 z m -36.1735,-68.880543 c 6.443,-6.38224 13.7783,-9.05596 25.0628,-9.13534 l 8.6336,-0.0607 -1.4584,-4.28021 c -1.0646,-3.12452 -3.2608,-5.84485 -8.1336,-10.07511 -15.4151,-13.38211 -18.1563,-16.48472 -23.6551,-26.77349 -5.3691,-10.04605 -8.5202,-19.49655 -8.5202,-25.5527999 0,-3.16012 -3.6457,-10.99181 -5.1167,-10.99181 -1.5107,0 -2.1642,4.73517 -2.3424,16.9735799 -0.1003,6.88953 -0.5513,16.63691 -1.0021,21.66084 -0.8176,9.10969 -0.8126,9.14075 1.8674,11.47094 2.9287,2.5465 3.1217,4.55445 2.6536,27.60652 -0.1533,7.54952 0.2011,10.07595 1.9643,14 l 2.1514,4.78812 1.6104,-2.5 c 0.8857,-1.375 3.7139,-4.58374 6.285,-7.13054 z M 1358.684,63.738587 c 3.0909,-5.77955 3.2036,-6.40416 3.0667,-17 -0.1955,-15.14141 -1.6301,-22.70196 -5.5278,-29.13312 l -3.2329,-5.33427 -3.1347,7.73369 c -1.7241,4.25354 -4.1024,9.61649 -5.2852,11.91767 -1.8497,3.59863 -2.0167,4.85773 -1.1938,9 1.2448,6.26523 4.1195,15.4803 7.5845,24.3118 3.0541,7.78446 2.7263,7.84794 7.7232,-1.49577 z"
       id="path3271"
       inkscape:connector-curvature="0" />
  </g>
</svg>
