<?xml version="1.0" encoding="UTF-8" standalone="no"?>
<!-- Created with Inkscape (http://www.inkscape.org/) -->

<svg
   xmlns:dc="http://purl.org/dc/elements/1.1/"
   xmlns:cc="http://creativecommons.org/ns#"
   xmlns:rdf="http://www.w3.org/1999/02/22-rdf-syntax-ns#"
   xmlns:svg="http://www.w3.org/2000/svg"
   xmlns="http://www.w3.org/2000/svg"
   xmlns:xlink="http://www.w3.org/1999/xlink"
   xmlns:sodipodi="http://sodipodi.sourceforge.net/DTD/sodipodi-0.dtd"
   xmlns:inkscape="http://www.inkscape.org/namespaces/inkscape"
   width="475.80771"
   height="865.33716"
   id="svg2"
   version="1.1"
   inkscape:version="0.48.3.1 r9886"
   sodipodi:docname="Lunges-2-1.svg">
  <defs
     id="defs4">
    <radialGradient
       gradientUnits="userSpaceOnUse"
       gradientTransform="matrix(1,0,0,0.91819829,-19.285714,-7.9105395)"
       r="209.56604"
       fy="287.50052"
       fx="398.1105"
       cy="287.50052"
       cx="398.1105"
       id="radialGradient5255"
       xlink:href="#linearGradient5249"
       inkscape:collect="always" />
    <linearGradient
       id="linearGradient5249"
       inkscape:collect="always">
      <stop
         id="stop5251"
         offset="0"
         style="stop-color:#e3e3e3;stop-opacity:1;" />
      <stop
         id="stop5253"
         offset="1"
         style="stop-color:#e3e3e3;stop-opacity:0;" />
    </linearGradient>
  </defs>
  <sodipodi:namedview
     id="base"
     pagecolor="#ffffff"
     bordercolor="#666666"
     borderopacity="1.0"
     inkscape:pageopacity="0.0"
     inkscape:pageshadow="2"
     inkscape:zoom="0.35"
     inkscape:cx="-201.86374"
     inkscape:cy="53.39066"
     inkscape:document-units="px"
     inkscape:current-layer="layer1"
     showgrid="false"
     showguides="true"
     inkscape:guide-bbox="true"
     fit-margin-top="0"
     fit-margin-left="0"
     fit-margin-right="0"
     fit-margin-bottom="0"
     inkscape:window-width="1201"
     inkscape:window-height="886"
     inkscape:window-x="166"
     inkscape:window-y="73"
     inkscape:window-maximized="0">
    <sodipodi:guide
       orientation="-0.70710678,0.70710678"
       position="-2663.1561,547.56844"
       id="guide2985" />
  </sodipodi:namedview>
  <metadata
     id="metadata7">
    <rdf:RDF>
      <cc:Work
         rdf:about="">
        <dc:format>image/svg+xml</dc:format>
        <dc:type
           rdf:resource="http://purl.org/dc/dcmitype/StillImage" />
        <dc:title></dc:title>
      </cc:Work>
    </rdf:RDF>
  </metadata>
  <g
     inkscape:label="Ebene 1"
     inkscape:groupmode="layer"
     id="layer1"
     transform="translate(-1234.5846,291.12079)">
    <path
       style="fill:#000000"
       d="m 1674.1715,552.83053 c -7.8381,-0.78973 -27.038,-5.02042 -34.2166,-7.53961 -2.1659,-0.76007 -6.6782,-4.0133 -10.0275,-7.2294 -6.6606,-6.3959 -5.6401,-6.02224 -27.8805,-10.20786 -13.6648,-2.57169 -17.0744,-4.40754 -20.6288,-11.10701 -2.3136,-4.3608 -2.3914,-4.97598 -1.195,-9.44918 1.9348,-7.2338 8.263,-20.10292 15.0074,-30.51902 7.9845,-12.33133 11.7503,-20.61376 13.788,-30.32558 1.4718,-7.01445 1.5358,-9.78632 0.5192,-22.5 -1.494,-18.68402 -1.4299,-29.50163 0.2355,-39.7434 1.1273,-6.93275 1.1243,-8.42274 -0.019,-9.37132 -2.4066,-1.99726 -9.1577,-16.6064 -10.4372,-22.58556 -0.6826,-3.18985 -1.5842,-6.19159 -2.0036,-6.67054 -0.4195,-0.47895 -3.342,-1.91916 -6.4946,-3.20047 l -5.732,-2.32966 -4.3808,3.85616 c -8.7271,7.68185 -17.9136,10.04138 -31.6542,8.13024 -5.8469,-0.81322 -9.7396,-2.11258 -15.4848,-5.16875 l -7.6746,-4.08244 -12,0.67828 -12,0.67829 -6.003,5.75056 c -3.3017,3.1628 -7.6379,6.34171 -9.636,7.06423 -3.2836,1.18736 -3.6928,1.75111 -4.2564,5.86271 -0.3429,2.50197 -0.1154,8.36737 0.5056,13.03422 1.0898,8.18935 1.0534,8.5466 -1.0461,10.24665 -1.1964,0.96881 -2.3614,3.24407 -2.5887,5.05613 -2.0934,16.68223 -3.1479,23.51533 -7.0194,45.48483 -5.036,28.57752 -5.4859,30.16136 -13.4387,47.30984 -3.1883,6.875 -7.4618,16.55 -9.4966,21.5 -7.8089,18.99673 -10.138,23.21025 -14.6272,26.4622 -6.7448,4.88592 -13.526,6.436 -28.3935,6.49031 -12.4937,0.0456 -13.2331,-0.0693 -18.9846,-2.95251 -4.7828,-2.39752 -6.7938,-4.20107 -10.0134,-8.98062 -2.412,-3.58056 -5.0266,-6.26775 -6.5154,-6.69611 -15.8778,-4.56859 -33.3482,-11.74335 -40.3095,-16.5543 -3.3567,-2.31984 -16.8736,-21.39899 -26.5897,-37.53162 -2.4222,-4.02172 -6.9517,-7.43222 -5.7656,-4.34112 0.3438,0.89589 1.0873,5.56074 1.6523,10.36633 0.8498,7.22854 1.8267,10.31995 5.6567,17.90111 5.1997,10.29265 5.2593,12.60013 0.4492,17.41022 l -2.8176,2.81761 -16.8812,-0.0559 c -15.082,-0.0499 -17.3075,-0.27751 -20.8812,-2.13535 -2.2,-1.14371 -4.9754,-1.96681 -6.1675,-1.82911 -3.8429,0.44386 -9.8573,-1.76469 -12.5411,-4.60521 -1.4374,-1.52125 -4.5374,-7.04093 -6.8891,-12.26593 -5.8013,-12.88979 -6.0417,-17.16221 -1.8296,-32.52926 3.5469,-12.94059 3.828,-17.37498 2.8819,-45.47074 -0.4204,-12.48509 -0.289,-13.80947 1.7476,-17.61647 4.6859,-8.75912 11.9119,-14.61069 20.3968,-16.51712 7.5727,-1.70145 10.9447,0.0979 23.4048,12.48883 11.0344,10.97322 26.0138,22.68347 33.9962,26.57679 2.2687,1.10655 10.2759,2.88353 18.5,4.10561 15.7308,2.33755 24.5986,5.42599 33.25,11.58013 l 4.75,3.3789 -0.044,-4.24833 c -0.044,-4.26582 -0.4294,-5.51122 -5.5834,-18.04737 -3.0578,-7.43754 -6.6244,-10.56583 -13.2892,-11.6562 -3.0752,-0.50309 -3.9212,-0.18622 -5.9638,2.23365 -1.3091,1.55095 -4.6841,4.01629 -7.5,5.47855 -4.4105,2.29038 -6.3663,2.66335 -14.1197,2.69261 -7.3485,0.0277 -9.9567,-0.39713 -14.2138,-2.31536 -18.5254,-8.34757 -28.5135,-39.14626 -22.3564,-68.93631 5.1314,-24.82737 11.5579,-35.64933 25.4019,-42.77593 l 7.3367,-3.77678 -1.7273,-8.5726 c -2.6796,-13.29823 -3.4675,-45.83288 -1.4307,-59.07259 2.2668,-14.73456 1.9787,-19.73018 -1.5759,-27.32624 -3.1844,-6.80492 -7.5795,-22.80229 -8.5625,-31.16555 -0.4213,-3.58512 0.5326,-12.38958 3.1502,-29.07525 3.4223,-21.81515 3.6538,-24.53191 2.6161,-30.70152 -0.626,-3.72271 -1.1383,-10.946854 -1.1383,-16.053654 0,-12.11706 2.211,-16.75522 12.7945,-26.83956 6.7399,-6.422 24.9915,-18.8259 27.7294,-18.84506 0.5369,-0.004 2.0062,-1.51975 3.2651,-3.368863 2.4087,-3.53766 11.5948,-12.50812 24.5575,-23.98091 4.2609,-3.77113 8.3821,-7.82575 9.1582,-9.0102701 2.3914,-3.64969 10.6137,-36.0750899 9.2643,-36.5347899 -2.6532,-0.9039 -10.822,-9.57628 -12.727,-13.51165 -3.3258,-6.87006 -2.2159,-17.33437 2.3917,-22.55009 0.8965,-1.01485 1.4895,-5.10186 1.7463,-12.0366 0.3571,-9.64109 0.6652,-11.01469 3.7662,-16.792 4.4223,-8.239093 13.1864,-16.355643 20.7692,-19.234793 3.5525,-1.34886 9.0644,-2.39137 14.2846,-2.70175 7.393,-0.43957 9.5419,-0.15574 16.5,2.17932 11.4802,3.8526 16.6567,7.5117 22.0023,15.552633 10.4352,15.69682 11.8763,22.27157 11.9447,54.49659 l 0.053,25 -3.8756,7.4999999 c -2.1315,4.125 -4.7126,8.68553996 -5.7358,10.13453 l -1.8604,2.63453 2.7359,1.10094 c 7.9076,3.18207 16.739,4.3448 26.7359,3.51997 20.747,-1.7118 25.1174,-0.78666 38.5878,8.1684301 9.1961,6.11355 12.4312,10.0869 14.7949,18.17127 2.67,9.131863 3.363,16.430493 2.3307,24.544763 -0.8517,6.69469 -0.8205,6.83578 2.6484,11.98684 6.655,9.88212 9.6219,21.98305 10.5395,42.987714 0.6083,13.9247 1.4262,16.47722 8.4115,26.25102 15.4836,21.66453 21.853,32.30919 25.2623,42.21839 2.249,6.53698 5.596,26.80059 6.4055,38.78161 1.0423,15.42532 -0.3175,13.88109 14.3756,16.32559 7.2855,1.21209 19.1746,4.20992 27.7033,6.98537 8.2172,2.67412 18.1834,5.42299 22.1471,6.10861 13.6651,2.36371 18.8744,6.89668 27.538,23.96277 l 4.2553,8.38235 -0.2541,11.10934 c -0.2942,12.86569 -1.6368,18.85545 -7.1227,31.77801 -5.4772,12.90191 -10.9577,28.99401 -12.7197,37.34795 -1.4603,6.9236 -7.1843,28.04438 -12.0601,44.5 -1.3852,4.675 -6.1078,16.09962 -10.4947,25.38804 -4.3869,9.28842 -8.7337,19.77664 -9.6597,23.30716 l -1.6836,6.41911 3.3785,9.69284 c 5.9901,17.18538 15.6942,34.20448 22.9289,40.21305 2.028,1.68424 8.2989,5.32208 13.9355,8.08409 13.221,6.47856 16.2518,8.99929 16.2518,13.51672 0,13.54017 -13.8329,20.5124 -36.2213,18.25665 z m 20.5121,-8.88575 c 3.6805,-1.1368 6.7733,-2.71657 7.128,-3.64091 1.5015,-3.91298 -5.6656,-9.96233 -19.8939,-16.79118 -4.9637,-2.38235 -10.238,-5.6204 -11.7207,-7.19568 -3.4221,-3.63586 -19.5479,-35.53882 -22.7848,-45.07704 -2.2014,-6.48675 -2.3337,-7.7568 -1.3147,-12.6153 0.6233,-2.97132 4.8118,-13.67551 9.3078,-23.7871 9.582,-21.55011 13.6999,-32.56463 17.9714,-48.07036 1.7143,-6.22289 5.1485,-17.76835 7.6315,-25.65657 4.1479,-13.1774 4.3783,-14.44187 2.8369,-15.56898 -1.9283,-1.40997 -1.3655,-2.79179 6.7561,-16.58879 2.4281,-4.125 5.2169,-9.525 6.1973,-12 2.2773,-5.74919 4.5943,-17.80583 4.5943,-23.90647 0,-8.78156 -4.6496,-20.86979 -10.3578,-26.92885 -4.2617,-4.52359 -6.6195,-5.61714 -18.7287,-8.68624 -5.7274,-1.45164 -14.1791,-4.19793 -18.7815,-6.10288 -10.1236,-4.19022 -24.7442,-7.83678 -37.5522,-9.36602 -20.8171,-2.48552 -40.6686,4.83892 -50.6013,18.66989 -7.185,10.00499 -15.6951,33.20037 -17.9044,48.80116 -1.0529,7.43508 -0.1667,14.50585 2.4531,19.57197 2.2451,4.34159 9.3709,11.2005 10.9906,10.57897 0.7498,-0.28771 7.3525,-2.17505 14.6727,-4.19408 7.3202,-2.01903 16.6845,-5.22975 20.8095,-7.13494 17.1605,-7.92585 21.2048,-9.19154 26.0364,-8.14829 10.2656,2.21658 17.8171,2.98603 23.4636,2.39078 11.3553,-1.19708 11.9264,-1.16347 12.302,0.72387 0.4635,2.32957 -5.2202,4.73113 -11.1971,4.73113 -3.8887,0 -4.8322,0.45239 -7.3737,3.53572 -9.2757,11.25297 -21.4004,43.15695 -24.2861,63.90414 -0.9114,6.55271 -0.758,9.82113 1.0088,21.48613 1.7419,11.50088 1.9125,14.96531 1.0398,21.11853 -2.3219,16.37119 -6.2241,26.45396 -16.1959,41.84706 -6.5358,10.08924 -13.7567,25.17465 -13.7823,28.79332 -0.049,6.9697 5.3187,11.30548 14.0046,11.31136 5.8396,0.004 18.1108,2.9922 23.3515,5.68649 1.7206,0.88458 5.2624,3.52089 7.8705,5.85846 5.464,4.89708 13.8962,8.27205 29.7579,11.91053 13.2681,3.04354 23.6249,3.21679 32.2908,0.54017 z m -8.9846,-7.92901 c -0.2786,-1.0654 -1.8453,-2.40376 -3.4814,-2.97413 -3.1408,-1.09487 -3.02,-3.08877 0.1871,-3.08877 4.7372,0 9.2261,4.18786 7.4936,6.99105 -1.0502,1.69928 -3.6633,1.12173 -4.1993,-0.92815 z m -74.8062,-36.61225 c -1.65,-0.84537 -3.5625,-2.2786 -4.25,-3.18497 -1.9359,-2.55216 -1.5279,-10.07994 0.7456,-13.75862 3.4955,-5.65582 13.0044,-10.90723 13.0044,-7.18185 0,0.72886 -2.025,3.93301 -4.5,7.12032 -2.475,3.18731 -4.5,6.40682 -4.5,7.15447 0,0.74764 1.7585,2.25647 3.9078,3.35294 4.3386,2.21342 5.2607,3.69394 3.9219,6.29706 -1.1087,2.15568 -4.3609,2.23403 -8.3297,0.20065 z m 24.7,-88.65065 c -1.9103,-1.91032 -1.4667,-2.62438 3.05,-4.90978 5.1279,-2.59463 5.4527,-3.08164 9.25,-13.86834 3.3473,-9.50856 5.7714,-11.30358 6.316,-4.6771 0.397,4.83035 -5.3891,17.51986 -9.9175,21.75002 -3.2679,3.05272 -6.6818,3.72194 -8.6985,1.7052 z m -16.4703,-98.23304 c -2.0737,-0.73989 -7.1275,-3.66604 -11.2306,-6.50256 -10.4998,-7.25846 -16.9031,-9.9305 -26.8858,-11.21914 -6.1582,-0.79495 -8.6133,-1.50847 -8.6133,-2.50331 0,-3.0698 9.7893,-4.36126 17.2834,-2.28014 2.0809,0.57786 9.4536,4.8492 16.3837,9.49187 6.9301,4.64267 14.4526,8.91458 16.7166,9.49314 6.3592,1.62509 6.622,1.77486 5.9925,3.41533 -0.72,1.87627 -4.5646,1.91804 -9.6465,0.10481 z m 61.7289,-0.44662 c -4.8902,-2.22131 -9.4586,-7.3879 -9.4586,-10.69707 0,-3.46096 1.7697,-3.0055 5.9606,1.53405 2.7171,2.94317 4.7231,4.12837 7.8275,4.62479 4.574,0.73141 6.7555,2.55894 5.8551,4.90516 -0.7834,2.04152 -5.2355,1.88112 -10.1846,-0.36693 z m -30.4586,-16.80192 c -0.825,-0.28802 -3.3,-1.45719 -5.5,-2.59814 -2.2,-1.14095 -8.5,-3.68544 -14,-5.65441 -8.124,-2.90837 -10,-3.95384 -10,-5.57292 0,-3.29958 5.9895,-2.31778 17.1949,2.8186 9.0264,4.13754 22.6632,8.68845 26.035,8.68845 0.6986,0 1.2701,-0.65697 1.2701,-1.45993 0,-0.80296 2.2307,-3.54651 4.9572,-6.09678 3.7381,-3.49663 5.3288,-5.91545 6.4687,-9.83637 1.6574,-5.70151 5.5613,-10.20952 8.0232,-9.26482 1.9072,0.73186 1.9806,2.58268 0.2058,5.18539 -0.7398,1.08488 -2.583,5.24504 -4.096,9.2448 -3.0908,8.17103 -7.1702,12.22771 -12.2963,12.22771 -1.7874,0 -3.2867,0.62056 -3.6242,1.5 -0.432,1.12564 -2.1433,1.4803 -6.857,1.42105 -3.4548,-0.0434 -6.9564,-0.3146 -7.7814,-0.60263 z m -224.4851,235.10748 c 4.0668,-1.9298 8.247,-9.23566 13.4647,-23.53273 1.6333,-4.47513 6.3988,-14.49433 10.59,-22.26489 6.7236,-12.46547 7.9571,-15.59945 10.4804,-26.62828 5.7983,-25.34321 10.8848,-65.10145 8.3093,-64.9492 -0.4726,0.0279 -5.0256,2.17188 -10.1178,4.76431 -8.9909,4.57726 -9.341,4.88656 -12.1101,10.69921 -6.298,13.22043 -18.3369,25.49719 -28.9189,29.4904 -10.1171,3.81777 -21.3587,2.29972 -30.3427,-4.09744 -1.6417,-1.16901 -3.145,-1.96387 -3.3406,-1.76637 -0.1956,0.1975 0.031,2.38409 0.503,4.85909 1.222,6.40446 2.3848,32.20229 1.5936,35.3549 -0.4869,1.94006 -1.303,2.6451 -3.0615,2.6451 -2.885,0 -3.5407,-1.4944 -2.4104,-5.4934 1.8757,-6.63592 1.0412,-10.7811 -3.7347,-18.55258 -5.4484,-8.86568 -7.6394,-11.37698 -12.7958,-14.66614 -6.6173,-4.22108 -16.2027,-7.23001 -31.4527,-9.87326 -21.6134,-3.74619 -25.6956,-5.98188 -44.6707,-24.46477 -8.25,-8.03601 -16.1126,-15.36218 -17.4725,-16.28038 -7.3468,-4.96065 -19.2873,0.57535 -22.5722,10.46515 -1.3908,4.18718 -1.5537,6.53199 -0.8527,12.27084 1.7214,14.0935 0.9073,32.03076 -2.0695,45.59454 -4.1923,19.10175 -4.35,23.16726 -1.0896,28.09392 1.4887,2.24965 3.0926,6.55569 3.5977,9.65897 0.5012,3.0798 1.3733,6.06157 1.9379,6.62616 0.5645,0.56458 4.0627,1.21624 7.7737,1.44813 3.711,0.23188 6.9722,0.76505 7.2472,1.18482 0.8441,1.28848 8.0994,3.988 10.7182,3.988 1.3607,0 4.9267,-0.71302 7.9245,-1.5845 4.974,-1.44599 5.6618,-1.44599 7.8687,0 1.33,0.87148 3.9769,1.5845 5.882,1.5845 6.8613,0 8.6375,-5.63096 3.7397,-11.8561 -5.6832,-7.22336 -7.1331,-11.37529 -7.1331,-20.42592 0,-11.99728 -1.8415,-16.75659 -7.558,-19.53391 -2.6715,-1.29793 -6.4119,-2.18633 -9.2187,-2.18965 -11.0989,-0.0131 -17.5837,-4.7295 -17.0241,-12.38152 0.3801,-5.19658 2.8347,-5.55512 4.4214,-0.64581 1.3934,4.31106 1.9299,4.57389 12.3794,6.06523 10.5722,1.50884 20.3999,6.31386 27.5,13.44547 2.75,2.76222 8.7851,10.64721 13.4113,17.52221 11.3055,16.80083 14.3828,20.48448 21.474,25.70469 7.5104,5.52885 9.8355,6.5025 22.2012,9.29684 5.4524,1.2321 10.6797,2.64025 11.6162,3.12922 0.9366,0.48897 4.0802,3.40285 6.986,6.47528 6.3763,6.74198 12.3879,10.41946 19.7836,12.10231 7.2878,1.65832 21.8256,0.95591 26.5426,-1.28244 z m -39.0061,-11.41165 c -1.1525,-1.86478 1.8448,-4.15993 6.6433,-5.08707 6.7992,-1.3137 18.2268,-1.10181 20.2471,0.37543 2.9527,2.15908 0.025,3.35889 -9.8992,4.05722 -4.95,0.34831 -10.6303,0.90943 -12.6229,1.24694 -2.3484,0.39778 -3.8851,0.18934 -4.3683,-0.59252 z m 1.4912,-25.60988 c 0,-0.8776 0.8973,-2.8558 1.9941,-4.39602 2.9203,-4.10117 4.8829,-12.98245 5.7449,-25.99684 0.6223,-9.39387 1.0556,-11.54481 2.3765,-11.79742 2.4698,-0.47231 2.9359,4.12862 1.8738,18.49741 -1.0581,14.31339 -2.0755,18.85705 -5.0769,22.67278 -2.3223,2.95225 -6.9124,3.62964 -6.9124,1.02009 z m -112.0136,-0.9208 c -2.0151,-2.42804 -6.5216,-4.48357 -9.8297,-4.48357 -3.3553,0 -4.6796,-2.1545 -3.1179,-5.07244 1.7361,-3.24396 6.6121,-2.07839 14.4612,3.45683 1.65,1.16358 4.125,2.11561 5.5,2.11561 2,0 2.5,0.5 2.5,2.5 0,2.20995 -0.4741,2.53475 -4.0865,2.79951 -2.8254,0.20708 -4.5002,-0.19901 -5.4271,-1.31594 z m -22.4108,-4.15756 c -2.9043,-4.27396 -3.3325,-7.32601 -1.0278,-7.32601 2.5341,0 6.5826,5.09811 6.2496,7.87005 -0.4591,3.82162 -2.3921,3.62022 -5.2218,-0.54404 z m 100.7682,-5.30935 c -8.907,-1.88664 -16.813,-7.47663 -21.0339,-14.87206 -1.4579,-2.55453 -4.6384,-7.48025 -7.0676,-10.94606 -4.0225,-5.73899 -4.8958,-9.19854 -2.3218,-9.19854 1.322,0 7.7642,6.64906 10.7083,11.05218 2.7164,4.06246 14.9738,14.45097 20.1863,17.10849 2.8215,1.43847 4.9079,1.66818 10.7025,1.17835 8.0316,-0.67891 10.12,0.46786 6.8348,3.75303 -2.2512,2.25123 -11.6995,3.26099 -18.0086,1.92461 z m 62.1562,-52.48641 c 15.3647,-6.91532 27.448,-26.66993 30.5441,-49.93565 2.1147,-15.8913 -1.2064,-32.22929 -8.8547,-43.56053 -18.3158,-27.13536 -52.4303,-12.26573 -63.376,27.62398 -1.7073,6.22202 -2.1528,10.63068 -2.1563,21.34195 0,12.13917 0.2666,14.25265 2.6834,20.96658 4.1017,11.39469 10.1388,19.66288 16.894,23.1374 8.2371,4.23676 15.5152,4.36461 24.2655,0.42627 z m -76.5119,-26.78025 c 2.4266,-1.2375 4.5285,-2.7 4.6709,-3.25 0.1424,-0.55 -1.4582,-2.18736 -3.5569,-3.63859 -2.1814,-1.50841 -4.7609,-4.59079 -6.0222,-7.19637 -2.1087,-4.35607 -2.1541,-5.00729 -1.0257,-14.71353 1.557,-13.39322 0.9773,-18.93691 -2.3999,-22.95056 -2.872,-3.41315 -3.1599,-6.14661 -1.6852,-16.00095 0.8923,-5.96322 -0.337,-24.60401 -2.0788,-31.52143 l -1.0808,-4.29226 -4.3689,1.48863 c -11.7542,4.00506 -21.3646,22.25346 -25.4501,48.32506 -2.7039,17.25427 5.1412,42.65952 15.6477,50.6732 7.5268,5.74095 19.4875,7.0865 27.3499,3.0768 z m 15.8349,-8.36459 c 2.8914,-0.57829 2.989,-0.74266 1.6525,-2.78241 -1.4141,-2.15822 -1.0305,-9.603 0.4948,-9.603 0.9328,0 3.0297,4.64984 3.0297,6.71831 0,1.59384 2.7346,5.28799 3.905,5.27518 0.3272,-0.004 0.6414,-4.84109 0.6982,-10.75 0.1544,-16.07827 5.2452,-34.20002 12.4499,-44.31802 2.1093,-2.96221 2.1165,-3.08416 0.3098,-5.22921 -4.0805,-4.84464 -8.1459,-8.18014 -9.6181,-7.89127 -0.8549,0.16774 -2.2722,-0.71989 -3.1496,-1.97251 -2.133,-3.04527 -2.1811,-13.10136 -0.071,-14.85254 1.9142,-1.58863 1.819,-1.74645 3.6338,6.02006 l 1.5188,6.5 -0.088,-15 -0.088,-15 4.8947,-14.5 c 6.5107,-19.28738 6.5057,-21.77052 -0.084,-41.82232 l -5.0355,-15.32234 -1.8112,4.32234 c -1.0945,2.61178 -1.8414,6.97358 -1.8876,11.02169 -0.1253,11.00577 -4.0794,11.59972 -6.7505,1.01401 -0.5949,-2.35765 -3.2741,-7.25666 -5.9537,-10.88669 -5.2479,-7.10925 -6.304,-11.32668 -2.8365,-11.32668 1.4301,0 2.6008,1.26424 3.9357,4.25 1.045,2.3375 2.9889,5.00938 4.3197,5.9375 l 2.4196,1.6875 7.5281,-14.6875 c 4.1405,-8.07812 8.5156,-17.8375 9.7226,-21.6875 3.6342,-11.59277 3.7702,-29.47598 0.3744,-49.24988 -0.307,-1.78743 -2.0787,-5.16243 -3.9372,-7.5 -3.3532,-4.21771 -4.4365,-8.99047 -2.3354,-10.28906 1.4907,-0.92132 3.91,1.52482 7.6353,7.7201 2.6985,4.48764 3.4408,7.18764 4.75,17.2773 0.8534,6.57716 1.5517,16.85563 1.5517,22.84104 l 0,10.88257 3.4952,4.0834 c 1.9224,2.24586 4.3705,5.9174 5.4402,8.15896 1.8854,3.95068 4.0646,18.8534 4.0646,27.79561 0,3.1651 0.5094,4.61701 1.9316,5.50516 4.7407,2.96065 15.8579,8.13471 18.8007,8.75005 l 3.2323,0.67589 -1.4823,-4.2013 c -1.854,-5.25488 -1.887,-7.94984 -0.097,-7.94984 1.7735,0 4.0086,3.42643 5.9093,9.05888 1.4633,4.3362 1.6252,4.45996 6.8522,5.23839 2.9444,0.43849 16.1535,0.88273 29.3535,0.98719 23.4321,0.18544 24.1967,0.12748 32.3128,-2.4491 10.3316,-3.27993 12.1872,-4.8433 12.1872,-10.26784 0,-4.40238 2.2032,-8.56752 4.532,-8.56752 1.1095,0 1.2061,0.55881 0.4433,2.5651 -1.1985,3.15225 -1.2801,8.4349 -0.1303,8.4349 0.4648,0 1.6779,-0.9203 2.6958,-2.04511 1.6726,-1.84816 1.7427,-2.69082 0.7277,-8.75 -1.1526,-6.88011 -0.4286,-14.58901 2.8131,-29.95483 0.9499,-4.50277 1.0145,-6.55401 0.2308,-7.33769 -0.7837,-0.78367 -1.8879,0.60002 -3.9501,4.94973 -2.8037,5.91385 -2.9461,6.03852 -6.9573,6.0877 -4.6919,0.0575 -7.0446,-1.89792 -7.9939,-6.64414 -1.039,-5.19517 1.5954,-5.22519 4.8851,-0.0557 0.9624,1.5125 2.0825,2.75 2.489,2.75 1.1441,0 11.0543,-15.39521 13.6855,-21.26 1.2929,-2.882 2.6375,-7.04564 2.9879,-9.25252 0.6346,-3.99758 0.6248,-4.01248 -2.6362,-4 -2.6999,0.0103 -3.7098,-0.65813 -5.7667,-3.81698 l -2.4937,-3.8295 -6.7367,0.67654 -6.7367,0.67654 -2.0405,-3.34704 c -2.2989,-3.77074 -2.6135,-6.88167 -0.8719,-8.62325 1.359,-1.35901 3.8238,0.1411 3.8238,2.32723 0,2.82468 3.1122,4.44898 8.5244,4.44898 6.1964,0 10.1825,1.50123 11.0238,4.15176 0.3226,1.01653 1.4159,1.84824 2.4294,1.84824 1.6034,0 1.9224,-1.13683 2.455,-8.75 0.3366,-4.8125 0.8449,-10.90537 1.1295,-13.53971 l 0.5173,-4.78971 -2.1003,2.10029 c -1.3173,1.3173 -3.0741,1.9845 -4.7125,1.78971 -3.2038,-0.3809 -4.3267,-2.81058 -1.2989,-2.81058 1.5191,0 2.5895,-1.08108 3.7131,-3.75 1.341,-3.18553 1.3897,-4.42736 0.3232,-8.25 -2.2802,-8.17253 -2.3449,-9 -0.7039,-9 0.8433,0 1.7602,0.5625 2.0376,1.25 0.2774,0.6875 0.5399,-0.40326 0.5834,-2.42391 l 0.079,-3.673904 -5.8782,3.925274 c -8.1089,5.41492 -12.9828,6.92258 -22.3792,6.92258 l -8.0058,0 -4.4552,-4.45515 c -4.5054,-4.505414 -5.1883,-8.206754 -0.9364,-5.075394 7.5559,5.564624 18.3568,5.994614 27.3689,1.08957 13.6711,-7.44074 18.6285,-15.26367 18.7317,-29.55903 0.055,-7.57395 -1.0955,-10.76344 -7.477,-20.73383 -1.2582,-1.96577 -1.2334,-2.43026 0.207,-3.87063 1.5157,-1.51573 1.8632,-1.32423 4.698,2.58901 4.5521,6.28408 7.1261,14.05636 7.1261,21.51778 0,5.40385 0.3185,6.59774 2,7.49767 2.7816,1.48865 2.553,4 -0.3641,4 -1.8925,0 -2.719,0.92905 -4.1424,4.65631 -1.4685,3.84512 -1.6685,6.41476 -1.1483,14.750004 0.6862,10.99522 2.756,23.05277 5.3967,31.43858 2.0639,6.55374 7.1825,11.93822 14.7592,15.52562 6.2872,2.97683 7.3508,5.63484 2.2489,5.62011 -4.3221,-0.0125 -12.3208,-4.71649 -17.4122,-10.24004 l -4.1214,-4.47119 -0.5972,3.61031 c -0.3284,1.98566 -0.6021,7.7271 -0.6082,12.75875 -0.01,8.24242 0.2861,9.71327 2.989,14.85155 1.7355,3.29915 3.0024,7.24097 3.0056,9.35155 0.01,5.72934 1.7114,10.77557 7.8045,23.1302 5.995,12.15583 13.107,20.92687 23.2259,28.64361 l 4.8958,3.73362 16.7841,0.14353 16.7841,0.14353 -0.2534,-8.57302 c -0.584,-19.75309 -4.6177,-39.87457 -10.2541,-51.15098 -1.7655,-3.53212 -6.6721,-11.37204 -10.9036,-17.42204 -4.2314,-6.05 -8.7483,-12.73463 -10.0375,-14.85473 l -2.344,-3.85473 -1.3054,3.10473 c -1.413,3.36043 -1.4718,3.39891 -3.8202,2.49774 -1.3449,-0.51609 -1.5844,-2.87456 -1.5991,-15.75 -0.029,-25.71251 -2.2824,-40.215124 -7.6985,-49.555084 l -2.5585,-4.41208 -1.3948,2.66208 c -0.8306,1.58537 -2.2379,2.66207 -3.4794,2.66207 -1.7583,0 -1.9872,-0.43045 -1.4624,-2.75 4.2242,-18.66837 4.5238,-30.08018 1.0829,-41.241693 -2.0175,-6.54431 -5.5195,-9.98599 -18.4568,-18.13873 -11.2208,-7.07113 -15.4365,-7.8907601 -24.7109,-4.80444 -8.0813,2.68928 -16.6326,2.29575 -29.0168,-1.33536 l -8.2125,-2.4079501 -1.1328,5.5890801 c -1.7295,8.53311 -4.4449,14.08909 -6.886,14.08909 -2.5151,0 -2.522,-0.99003 -0.056,-8 1.0641,-3.025 1.9494,-6.85 1.9674,-8.5 l 0.033,-3.0000001 -9.8254,0 c -9.5562,0 -10.0562,-0.11585 -18.25,-4.22792 -10.6306,-5.33499004 -20.7906,-12.88997 -21.5836,-16.0495499 -0.3318,-1.32204 -0.066,-4.19702 0.5907,-6.38884 0.6567,-2.19181 0.9049,-5.30105 0.5517,-6.9094 -0.4806,-2.18824 -0.2756,-2.92429 0.8147,-2.92429 2.8709,0 3.9942,2.83025 3.4801,8.76786 -0.273,3.15268 -0.2965,6.29719 -0.052,6.9878 0.6417,1.8133699 12.8838,8.7482299 21.615,12.24437986 9.4765,3.79458004 17.1761,4.03825004 23.697,0.74996004 3.9808,-2.00743004 4.9746,-3.27416 9.2177,-11.7499999 4.5031,-8.99502 4.8094,-10.12929 5.7619,-21.33868 2.0236,-23.81427 -2.2954,-47.36172 -11.1072,-60.55758 -6.9093,-10.346713 -18.3172,-16.103743 -31.9105,-16.103743 -13.4034,0 -23.5323,5.11451 -30.0259,15.161403 -6.8452,10.59079 -8.9268,28.06598 -3.6208,30.39594 1.1807,0.51846 2.2905,1.95516 2.4663,3.19266 0.3799,2.67527 0.3512,2.68077 -3.6291,0.69512 -3.8751,-1.93316 -6.8935,-0.6368 -7.7622,3.33374 -0.3274,1.49663 -0.7557,3.25007 -0.9518,3.89654 -1.356,4.47136 5.407,15.41341 10.9609,17.73401 5.2977,2.21348 6.1269,5.76726 4.0451,17.33514 -0.9656,5.3655 -2.8033,13.5804499 -4.0838,18.2554499 -2.5636,9.3596601 -2.14,8.8418801 -20.2554,24.7567001 -10.2861,9.03656 -16.0768,15.66093 -16.7849,19.201393 -0.4607,2.30335 -1.7417,3.21409 -8.283,5.88859 -8.9979,3.67892 -13.9362,7.03343 -24.4034,16.5768 -9.2268,8.41251 -10.7603,11.72461 -11.4296,24.68629 -0.5892,11.408954 0.5464,15.706174 7.8704,29.784014 5.3607,10.30383 5.9835,13.10622 2.9127,13.10622 -1.3792,0 -3.0967,-1.95102 -5.6961,-6.47059 -2.0468,-3.55882 -3.88,-6.3121 -4.0737,-6.11839 -0.1937,0.19371 -1.8714,9.38528 -3.7282,20.42572 -3.9415,23.4356 -3.7311,27.83286 2.1363,44.64771 8.1746,23.42686 7.8428,21.3802 5.8386,36.01555 -1.4015,10.23417 -1.6693,17.04237 -1.2589,31.99999 0.4768,17.37536 0.84,20.36812 4.2483,35 4.1011,17.60561 5.6313,37.07379 3.7252,47.39366 -0.9218,4.99119 -0.7762,5.84932 1.9516,11.5 2.9353,6.08071 2.945,6.16093 2.3002,19.11269 -0.795,15.96685 0.3917,20.09712 6.894,23.99479 4.5142,2.70592 4.9339,2.78952 9.4602,1.88427 z m -9.1494,-27.63541 c -0.2735,-3.4375 -0.8213,-7.76983 -1.2176,-9.6274 -0.5506,-2.58159 -0.409,-3.27362 0.601,-2.93695 2.5946,0.86489 5.3977,5.87941 5.3703,9.60724 -0.077,10.45948 -3.9647,12.878 -4.7537,2.95711 z m -16.7601,-108.41872 c -1.9285,-4.96908 -0.6485,-18.05783 2.4211,-24.75641 2.0367,-4.44475 3.0007,-5.63953 3.8583,-4.78199 0.8575,0.85754 0.6888,2.6438 -0.6754,7.14936 -1.1372,3.75602 -1.8558,9.44951 -1.918,15.19709 -0.1054,9.7381 -1.5807,12.6166 -3.686,7.19195 z m 134.4381,-22.42372 c -4.4137,-1.27864 -9.0145,-6.94027 -10.8942,-13.40613 -1.7871,-6.14722 -1.2425,-9.50142 1.5426,-9.50142 1.9853,0 2.4778,1.07628 3.4964,7.64095 0.7122,4.58965 2.589,6.64949 9.8124,10.76952 3.9343,2.24394 4.594,3.00169 3.6276,4.16617 -1.3223,1.59328 -2.9779,1.66551 -7.5848,0.33091 z m 30.8246,-18.13134 c -2.1562,-2.15619 -1.4057,-8.21199 1.337,-10.78865 3.6006,-3.38254 4.8288,-1.68044 3.4446,4.77377 -1.2288,5.72966 -2.9286,7.86786 -4.7816,6.01488 z m 79.4083,-5.94305 c -0.2291,-0.73324 -0.6657,-6.34249 -0.9703,-12.465 -0.6599,-13.26286 -2.7488,-19.68845 -9.1834,-28.24842 -4.4908,-5.974 -5.6906,-10.11974 -2.9287,-10.11974 1.8912,0 9.4851,10.2373 13.1891,17.78011 2.6697,5.43663 2.8088,6.40883 2.8088,19.63171 0,10.23486 -0.3302,14.02318 -1.2495,14.33316 -0.6872,0.23173 -1.4369,-0.17859 -1.666,-0.91182 z m -120.1845,-5.23316 c -2.1231,-2.12308 -3.4,-4.37647 -3.4,-6 0,-3.35664 0.9751,-3.2792 4.4558,0.35386 1.5565,1.62463 4.3676,3.68354 6.247,4.57535 2.7831,1.32067 3.1977,1.88578 2.2347,3.04614 -2.0321,2.44848 -5.9186,1.64353 -9.5375,-1.97535 z m -40.5689,-8.85497 c -3.0912,-2.60018 -6.8311,-9.65678 -6.8311,-12.88913 0,-1.85344 0.9739,-1.20345 5.848,3.90296 6.1864,6.48123 9.6216,8.13057 13.0795,6.27993 2.1427,-1.14672 4.0725,-0.67544 4.0725,0.99455 0,1.60919 -5.7728,3.96683 -9.7003,3.96169 -2.4732,-0.003 -4.7314,-0.78872 -6.4686,-2.25 z m 39.6541,-1.84172 c -5.0736,-2.6693 -6.8996,-4.42373 -6.0445,-5.80735 0.9506,-1.53803 3.8237,-1.36323 6.1182,0.37224 1.0676,0.8075 3.5769,1.4825 5.5761,1.5 2.7759,0.0243 4.0149,-0.54801 5.2424,-2.42147 2.0357,-3.10689 6.4005,-3.9411 14.1226,-2.69919 7.0214,1.12922 10.9326,-0.19602 15.0619,-5.10352 2.453,-2.91514 2.5155,-3.33336 1.8514,-12.38054 -0.749,-10.20414 0.1685,-11.91675 3.2752,-6.11348 2.6062,4.86831 2.467,16.69314 -0.2405,20.42307 -3.1256,4.30609 -9.8253,7.10878 -19.448,8.13577 -6.5617,0.70031 -9.3869,1.50964 -12.3895,3.54917 -4.6956,3.18947 -7.8504,3.32054 -13.1253,0.5453 z m -123.3026,-11.59298 c -2.0376,-3.87337 -2.3212,-11.80591 -0.6801,-19.02131 1.5164,-6.66711 1.5128,-7.33607 -0.052,-9.72433 -1.8388,-2.80633 -3.4024,-3.21274 -5.2505,-1.36469 -0.9333,0.93333 -1.2,0.48191 -1.2,-2.03138 0,-5.98847 6.072,-5.02424 10.1759,1.61591 1.9108,3.09181 2.0342,4.21734 1.3218,12.06273 -0.8532,9.39624 -0.9629,14.55391 -0.3747,17.61443 0.497,2.58597 -2.6679,3.26759 -3.9404,0.84864 z m 101.2623,-1.37861 c -3.8268,-1.11218 -7.8945,-5.31772 -7.113,-7.35412 0.5002,-1.30368 1.3503,-1.1678 5.8765,0.93935 7.0104,3.2637 8.7737,3.12848 12.7539,-0.97804 1.845,-1.9036 3.7333,-3.22704 4.1962,-2.94098 1.836,1.13476 0.7211,5.67629 -2.0816,8.47899 -3.1201,3.12017 -7.3145,3.69086 -13.632,1.8548 z m -33.6667,-11.18172 c -0.8823,-0.6875 -2.5416,-2.825 -3.6874,-4.75 -3.432,-5.76582 -2.2299,-9.91369 1.3081,-4.51393 2.8855,4.40379 5.6592,5.61581 9.8843,4.31909 2.0442,-0.6274 3.7168,-1.43678 3.7168,-1.79863 0,-0.36184 -1.1111,-1.70176 -2.4692,-2.97758 -4.2392,-3.98256 -1.6813,-4.21709 5.4014,-0.49524 7.3282,3.85088 12.6928,8.64608 11.618,10.38503 -0.9587,1.55129 -2.6081,1.34595 -6.9437,-0.86444 -3.7809,-1.9276 -3.8501,-1.9276 -7.4466,0 -4.1496,2.22404 -9.0371,2.52278 -11.3817,0.6957 z m 43.8158,-5.01645 c -2.1483,-1.22845 -4.8081,-3.45027 -5.9107,-4.93737 -1.6875,-2.27583 -1.7961,-2.95535 -0.686,-4.29289 1.9895,-2.39718 4.1135,-1.41032 5.3738,2.49671 2.054,6.36792 7.2281,5.10748 22.7936,-5.5526 5.6364,-3.86014 9.2713,-5.58041 13.522,-6.39942 8.1328,-1.56702 12.1732,-3.55806 12.7223,-6.26928 1.572,-7.76264 1.4264,-10.22362 -0.9516,-16.07588 -2.8698,-7.06261 -2.8053,-6.70472 -1.2074,-6.69599 1.4318,0.008 5.1294,5.1512 6.6919,9.30827 0.582,1.5483 1.0327,4.9233 1.0017,7.5 -0.1286,10.6711 -4.0902,15.04266 -15.5999,17.2144 -6.0885,1.1488 -7.3044,1.81727 -13.0818,7.19201 -9.8085,9.12484 -16.8486,10.98333 -24.6679,6.51204 z m -44.9514,-11.76176 c -4.8164,-1.44332 -6.6426,-3.81505 -6.6426,-8.62678 0,-4.93492 1.0284,-5.52907 3.0457,-1.7597 0.761,1.42193 2.6146,3.22193 4.1193,4 2.6148,1.3522 11.9277,1.98862 13.0262,0.89018 0.2885,-0.28848 -1.2115,-2.26054 -3.3334,-4.38235 -4.2553,-4.25534 -4.6903,-5.5597 -2.176,-6.52454 1.1204,-0.42991 2.3723,0.21905 3.75,1.9438 2.1759,2.72395 7.4122,4.42272 13.7592,4.46374 2.03,0.0131 4.0113,0.54213 4.4028,1.17556 1.0338,1.67277 -2.4618,3.8483 -6.1834,3.8483 -1.764,0 -5.7737,1.35 -8.9104,3 -5.7548,3.02719 -9.6227,3.54051 -14.8574,1.97179 z m 51.9642,-8.40239 c -0.9818,-3.91173 0.8825,-7.24573 4.7687,-8.52831 5.5822,-1.84229 8.6521,-4.91609 11.7045,-11.71948 4.6261,-10.31063 11.0009,-14.20471 15.363,-9.38462 2.479,2.73927 1.2354,4.19546 -2.4776,2.9011 -4.2878,-1.49475 -5.6276,-0.57651 -6.3686,4.36495 -0.9145,6.09837 -3.8018,10.35134 -9.3447,13.76477 -8.5799,5.28367 -9.0317,5.73421 -8.5065,8.48157 0.4178,2.18581 0.1288,2.55062 -2.0206,2.55062 -1.8223,0 -2.675,-0.66466 -3.1182,-2.4306 z m -95.4921,-11.47738 c -2.1741,-1.37686 -0.7097,-4.97327 5.0992,-12.52307 6.4835,-8.42647 8.1564,-9.62724 10.3527,-7.4309 1.4722,1.47221 1.339,1.79296 -1.6194,3.89957 -2.0454,1.45643 -4.3121,4.70167 -6.2018,8.87889 -3.5509,7.84962 -4.7644,8.99078 -7.6307,7.17551 z m 51.0112,-1.15655 c -4.277,-2.6075 -12.7062,-11.22312 -14.6412,-14.96516 -1.1434,-2.21098 -1.2342,-3.49312 -0.4012,-5.66411 l 1.0768,-2.8062 1.5347,3 c 2.2005,4.30152 8.1101,10.25338 13.1229,13.21694 3.9969,2.36291 4.9635,2.51189 13,2.00356 20.1422,-1.27406 45.8922,-14.8378 53.8064,-28.34235 3.916,-6.682154 3.1709,-14.563084 -2.419,-25.587594 -4.6482,-9.16723 -4.8271,-9.79056 -2.8089,-9.79056 2.0985,0 6.9861,6.04115 10.2259,12.6394 2.415,4.91821 2.8708,7.06829 2.8348,13.37106 -0.055,9.648384 -2.5488,14.379374 -11.57,21.951134 -7.6999,6.46271 -25.6277,16.9012 -35.2434,20.52054 -9.0018,3.38826 -23.3301,3.61603 -28.5178,0.45334 z m 87.0926,-13.20286 c -2.7041,-2.87838 -2.9675,-5.25495 -0.4685,-4.22615 4.6034,1.89514 5.1262,1.75108 6.0028,-1.65423 0.7516,-2.92 1.3202,-3.39113 4.4095,-3.65392 2.7571,-0.23453 4.5042,0.43337 7.8476,3 7.2747,5.58467 8.5786,10.17665 1.5317,5.39451 -3.5638,-2.41848 -7.5061,-4.13939 -7.867,-3.43413 -0.096,0.18772 -0.8636,1.69131 -1.7058,3.34131 -2.0464,4.00949 -6.6006,4.58523 -9.7503,1.23261 z m -110.531,-21.37844 c -1.2048,-1.204804 -0.7401,-11.229184 0.8418,-18.156764 1.9108,-8.3684 8.3436,-21.58154 10.7207,-22.02073 2.3851,-0.44067 2.2135,1.55827 -0.6827,7.95248 -1.338,2.95396 -3.7005,11.40911 -5.25,18.78922 -2.5963,12.36591 -3.808,15.257604 -5.6298,13.435794 z m 13.6483,-54.921394 c -1.0278,-2.678383 0.9022,-3.391583 12.2113,-4.512693 10.3458,-1.02561 17.0802,-2.05359 32.6039,-4.97686 6.4297,-1.21078 6.8704,-1.15916 13.25,1.55218 6.2651,2.66271 8.2288,4.94195 5.2444,6.087163 -0.745,0.28589 -3.7825,-0.40301 -6.75,-1.530883 -7.1073,-2.70134 -8.4171,-2.63633 -28.8954,1.434333 -19.5622,3.88855 -26.7256,4.39265 -27.6642,1.94676 z m 69.6392,-6.962913 c -1.9022,-2.29204 6.317,-9.92689 11.6317,-10.80477 7.3194,-1.20901 14.406,-0.79552 15.0482,0.87803 0.9077,2.36529 -0.1271,2.81178 -8.3332,3.59562 -6.9117,0.66021 -7.929,1.04839 -11.2524,4.29354 -4.0493,3.95408 -5.2238,4.29141 -7.0943,2.03758 z m -39.9513,-16.10335 c -3.9357,-3.31172 -9.2428,-13.6491801 -8.8318,-17.2030501 0.5318,-4.59771004 3.0282,-3.07944 4.664,2.83653 1.2018,4.3466001 2.6346,6.5739201 6.8324,10.6210001 2.9214,2.81654 5.3117,5.40404 5.3117,5.75 0,1.64568 -5.1876,0.342 -7.9763,-2.00448 z m 73.9763,-1.34347 c 0,-1.08732 1.1315,-2.71833 2.5144,-3.62446 2.7999,-1.83453 11.4856,-3.16509 11.4856,-1.75947 0,1.00484 -11.119,7.36088 -12.8769,7.36088 -0.6177,0 -1.1231,-0.88963 -1.1231,-1.97695 z m -35,365.723547 9.5,-5.2466 0.034,-14.3557 c 0.04,-16.62355 -0.4343,-15.77552 10.8446,-19.40125 6.7833,-2.18057 7.179,-2.49577 14.2026,-11.31576 3.9737,-4.98999 10.186,-11.78598 13.805,-15.10219 6.8929,-6.31607 14.9773,-11.29463 16.2592,-10.01275 0.4138,0.41379 -3.5282,5.12529 -8.7599,10.47 -13.9009,14.20104 -13.6398,13.67201 -6.3406,12.84751 4.961,-0.56037 7.5617,-0.22192 14.5,1.88696 9.6284,2.92652 25.2966,7.48318 25.7311,7.48318 0.1597,0 -1.2802,-1.57054 -3.1997,-3.49009 -6.3644,-6.36433 -10.8984,-28.60153 -8.6608,-42.47668 1.6364,-10.14679 17.2645,-39.97771 24.3227,-46.42709 5.0818,-4.64342 14.0374,-10.54919 17.6613,-11.64672 l 2.6002,-0.7875 -3,-0.0283 c -3.4159,-0.0322 -13.2075,2.55501 -21.9051,5.78799 -4.223,1.56974 -7.7217,2.12913 -12.2825,1.96379 l -6.3774,-0.2312 -11.3339,9.1679 c -7.8717,6.36735 -12.1384,9.1679 -13.9675,9.1679 -1.4485,0 -2.6336,-0.41607 -2.6336,-0.9246 0,-0.50853 3.7879,-4.37277 8.4176,-8.58721 8.0432,-7.32178 8.3733,-7.78957 7.4224,-10.51734 -1.6536,-4.74348 -3.3275,-5.43785 -5.7339,-2.37854 -3.8717,4.92197 -9.5433,8.36716 -18.6061,11.30205 -13.5824,4.39852 -22.7289,5.51685 -45.5026,5.56358 l -20.5026,0.0421 0.3596,3.77106 c 0.495,5.18999 -3.7808,13.61393 -9.4374,18.5931 -2.6292,2.31434 -7.1721,4.88895 -11.029,6.25057 -4.3075,1.52064 -7.5434,3.43722 -9.4285,5.58421 -2.4246,2.76146 -3.3428,3.17439 -5.9148,2.65999 -5.2835,-1.0567 -3.6002,-3.27389 7.7836,-10.25242 10.8396,-6.64488 19.9051,-14.55134 20.5887,-17.95646 0.2927,-1.45753 0.1897,-4.21471 -0.2288,-6.12708 -0.7556,-3.45338 -0.8139,-3.48589 -8.5735,-4.78019 -4.297,-0.71674 -9.5357,-2.18216 -11.6416,-3.2565 l -3.8289,-1.95334 -1.2424,3.73353 c -0.684,2.0554 -1.2007,8.11592 -1.1494,13.48353 0.091,9.55332 0.046,9.75 -2.2226,9.75 -2.7392,0 -3.7521,-2.09513 -3.0866,-6.38424 2.1254,-13.69745 3.9683,-23.39307 4.7264,-24.86576 1.1336,-2.20224 7.0763,-2.36354 8.8388,-0.2399 3.0918,3.72536 22.532,6.4899 45.637,6.4899 33.3559,0 53.4737,-5.52162 59.8673,-16.43143 3.087,-5.26757 3.1654,-6.53973 0.2373,-3.85145 -6.8105,6.25273 -27.5345,12.93226 -43.25,13.93983 -11.9019,0.76308 -39.4948,-1.22279 -52,-3.74245 -5.8662,-1.18197 -12.7659,-3.38487 -16.691,-5.32901 l -6.6911,-3.31413 -5.2441,11.60237 -5.2441,11.60238 -0.8673,15.01194 c -0.8082,13.98793 -4.0778,46.66441 -5.4466,54.43381 l -0.6029,3.42186 5.6496,-4.60208 c 9.1105,-7.42139 15.6733,-10.07284 25.1583,-10.1643 7.1345,-0.0688 8.7596,0.2864 14.708,3.21466 13.3302,6.56219 22.6585,22.65738 24.6161,42.47297 0.7851,7.94741 0.1163,21.30055 -1.3516,26.98503 -0.3906,1.5125 -0.3238,2.74847 0.1483,2.7466 0.4721,-0.002 5.1334,-2.36437 10.3584,-5.25 z m 18,-43.13265 c 0,-4.00018 7.7263,-14.25741 20.4237,-27.11409 16.6538,-16.8627 28.5763,-25.23726 28.5763,-20.07245 0,0.78507 -5.1896,6.29757 -11.5324,12.25 -6.3428,5.95242 -14.3192,14.19759 -17.7253,18.32259 -8.9803,10.87583 -16.8456,19 -18.3945,19 -0.7538,0 -1.3478,-1.05155 -1.3478,-2.38605 z m -24.75,-34.33223 c -1.9695,-0.70649 -1.4627,-3.73922 1,-5.98385 5.1483,-4.6924 9.2946,-6.76628 39.75,-19.88183 6.514,-2.80524 7.1173,-2.76722 -15.0749,-0.95018 -18.4981,1.51458 -25.5149,3.17473 -30.2518,7.15746 -3.2494,2.73201 -4.9348,2.97147 -6.6202,0.9406 -3.2464,-3.91167 4.4557,-8.79985 18.3514,-11.64679 11.6765,-2.39227 35.4805,-4.30002 45.9151,-3.67983 7.8888,0.46888 8.2975,0.38421 11.4652,-2.37555 3.7756,-3.28932 6.2152,-3.68452 6.2152,-1.00681 0,2.09131 -9.5621,11.57938 -12.5527,12.45552 -1.071,0.31377 -3.9723,1.08541 -6.4473,1.71474 -2.475,0.62933 -9,3.07164 -14.5,5.42734 -5.5,2.3557 -12.224,5.11176 -14.9423,6.12458 -2.7183,1.01282 -8.1183,3.90789 -12,6.43349 -9.1173,5.93205 -8.8484,5.79456 -10.3077,5.27111 z m 159.6179,48.93572 c 3.4346,-9.60157 10.7435,-23.15862 14.7269,-27.31643 l 2.5257,-2.63623 -2.3102,-0.61874 c -5.5805,-1.49457 -14.8214,-0.63317 -21.3818,1.99314 l -6.5926,2.63918 0.6503,6.11082 c 0.8901,8.36428 3.1317,17.09075 6.0008,23.36082 1.3213,2.8875 2.5907,5.25 2.8208,5.25 0.2302,0 1.8322,-3.95215 3.5601,-8.78256 z m -19.2206,-21.90348 c -0.3086,-0.30857 -1.3679,-0.23214 -2.3542,0.16984 -1.6722,0.6816 -1.6583,0.782 0.2069,1.48938 1.8832,0.71423 3.3711,-0.43543 2.1473,-1.65922 z m -214.9288,-54.81396 c -0.2132,-2.40318 -0.8085,-1.34847 -2.9923,5.30162 -2.3487,7.15211 -2.7262,9.94477 -2.7262,20.16821 0,6.52663 0.3164,12.6909 0.7032,13.69838 0.782,2.03714 5.4421,-34.35709 5.0153,-39.16821 z m 12.3965,-64.78613 c -0.9934,-11.10332 -1.7525,-15.02595 -3.6068,-18.63843 -4.6939,-9.1442 -4.7739,-9.15344 -7.9619,-0.91927 -1.5638,4.03911 -3.9273,9.22743 -5.2522,11.52959 -1.8898,3.28389 -2.2709,5.00756 -1.7688,8 0.8731,5.20268 4.0036,15.21078 7.7469,24.76569 l 3.115,7.95142 4.493,-9.31299 4.493,-9.31299 -1.2582,-14.06302 z m 165.135,21.85763 c 4.2625,-0.97474 7.75,-1.87078 7.75,-1.9912 0,-0.12042 -4.6125,-4.2753 -10.25,-9.23306 -9.0497,-7.95858 -10.8533,-10.11677 -15.4024,-18.43067 -6.007,-10.9784 -8.3061,-17.29176 -9.0734,-24.91656 -0.3045,-3.025 -1.3998,-7.1875 -2.4342,-9.25 -3.713,-7.40375 -5.0868,-4.09744 -5.2975,12.75 -0.083,6.6 -0.5154,16.275 -0.9619,21.5 -0.8052,9.42434 -0.7909,9.51931 1.8039,11.92431 1.9494,1.80691 2.6155,3.4064 2.6155,6.28056 0,3.14494 0.6368,4.41532 3.4522,6.88727 1.8987,1.66707 3.6934,3.79082 3.9884,4.71945 0.4455,1.40289 1.8488,1.6752 8.2978,1.61028 4.2689,-0.043 11.2491,-0.87564 15.5116,-1.85038 z"
       id="path3269"
       inkscape:connector-curvature="0" />
  </g>
</svg>
