<?xml version="1.0" encoding="UTF-8" standalone="no"?>
<!-- Created with Inkscape (http://www.inkscape.org/) -->

<svg
   xmlns:dc="http://purl.org/dc/elements/1.1/"
   xmlns:cc="http://creativecommons.org/ns#"
   xmlns:rdf="http://www.w3.org/1999/02/22-rdf-syntax-ns#"
   xmlns:svg="http://www.w3.org/2000/svg"
   xmlns="http://www.w3.org/2000/svg"
   xmlns:xlink="http://www.w3.org/1999/xlink"
   xmlns:sodipodi="http://sodipodi.sourceforge.net/DTD/sodipodi-0.dtd"
   xmlns:inkscape="http://www.inkscape.org/namespaces/inkscape"
   width="230.91824"
   height="204.72134"
   id="svg2"
   version="1.1"
   inkscape:version="0.48.3.1 r9886"
   sodipodi:docname="Lying-close-grip-triceps-press-to-chin-1.svg">
  <defs
     id="defs4">
    <radialGradient
       gradientUnits="userSpaceOnUse"
       gradientTransform="matrix(1,0,0,0.91819829,-19.285714,-7.9105395)"
       r="209.56604"
       fy="287.50052"
       fx="398.1105"
       cy="287.50052"
       cx="398.1105"
       id="radialGradient5255"
       xlink:href="#linearGradient5249"
       inkscape:collect="always" />
    <linearGradient
       id="linearGradient5249"
       inkscape:collect="always">
      <stop
         id="stop5251"
         offset="0"
         style="stop-color:#e3e3e3;stop-opacity:1;" />
      <stop
         id="stop5253"
         offset="1"
         style="stop-color:#e3e3e3;stop-opacity:0;" />
    </linearGradient>
  </defs>
  <sodipodi:namedview
     id="base"
     pagecolor="#ffffff"
     bordercolor="#666666"
     borderopacity="1.0"
     inkscape:pageopacity="0.0"
     inkscape:pageshadow="2"
     inkscape:zoom="1.4"
     inkscape:cx="28.631432"
     inkscape:cy="-30.280772"
     inkscape:document-units="px"
     inkscape:current-layer="layer1"
     showgrid="false"
     showguides="true"
     inkscape:guide-bbox="true"
     fit-margin-top="0"
     fit-margin-left="0"
     fit-margin-right="0"
     fit-margin-bottom="0"
     inkscape:window-width="1201"
     inkscape:window-height="886"
     inkscape:window-x="166"
     inkscape:window-y="73"
     inkscape:window-maximized="0">
    <sodipodi:guide
       orientation="-0.70710678,0.70710678"
       position="-2320.5334,318.27993"
       id="guide2985" />
  </sodipodi:namedview>
  <metadata
     id="metadata7">
    <rdf:RDF>
      <cc:Work
         rdf:about="">
        <dc:format>image/svg+xml</dc:format>
        <dc:type
           rdf:resource="http://purl.org/dc/dcmitype/StillImage" />
        <dc:title></dc:title>
      </cc:Work>
    </rdf:RDF>
  </metadata>
  <g
     inkscape:label="Ebene 1"
     inkscape:groupmode="layer"
     id="layer1"
     transform="translate(-891.96185,-140.20651)">
    <path
       style="fill:#000000"
       d="m 994.54522,342.11405 -2.8892,-1.99636 3.5779,0.59807 c 3.0945,0.51728 6.53928,-0.80194 25.49998,-9.76543 l 21.9221,-10.3635 0.304,-3.54296 c 0.254,-2.96044 -0.1824,-3.88933 -2.6544,-5.64953 -1.6271,-1.1586 -3.4474,-2.10655 -4.0452,-2.10655 -0.5977,0 -4.2367,1.40845 -8.0866,3.12988 l -6.9999,3.12989 0.6401,4.00314 c 0.5084,3.17906 0.3522,3.90399 -0.7589,3.52148 -1.1231,-0.38662 -1.3521,-3.17515 -1.1607,-14.13302 0.1311,-7.50826 0.1311,-13.6516 0,-13.65187 -0.1311,-2.8e-4 -2.6722,-0.92556 -5.647,-2.05618 l -5.4085,-2.05567 0.6488,14.99122 c 0.753,17.39535 1.4649,15.98911 -11.17048,22.06432 -6.1696,2.96644 -7.1612,3.80414 -7.1612,6.05 0,1.43375 0.5625,3.19049 1.25,3.90387 1.0109,1.04902 0.8675,1.22905 -0.75,0.94138 -1.5636,-0.27809 -2.0667,-1.27278 -2.3056,-4.55909 l -0.3057,-4.20339 9.0557,-4.54801 9.05558,-4.54802 0,-11.85039 c 0,-6.51772 -0.2762,-13.86578 -0.6139,-16.32902 -0.5688,-4.15048 -1.0614,-4.77099 -6.72228,-8.46904 l -6.1084,-3.99042 -2.2452,5.52429 c -3.0482,7.4999 -5.6924,9.88479 -11.8437,10.68228 -4.7421,0.61481 -5.217,0.46481 -8.205,-2.59133 -2.9682,-3.036 -6.863,-11.68812 -5.7586,-12.79255 0.5924,-0.5924 0.3209,-1.01832 3.8225,5.99618 3.4653,6.94159 6.3996,8.53741 12.1897,6.62924 10.3508,-3.41122 13.8647,-23.36721 6.7831,-38.52341 -1.8735,-4.00975 -7.9175,-8.04644 -9.5714,-6.39256 -0.6197,0.61974 -1.8968,1.1268 -2.8379,1.1268 -1.9436,0 -6.6183,5.15817 -8.0229,8.85257 -0.9616,2.52907 -2.7853,14.14743 -2.2207,14.14743 0.1728,0 2.1224,-0.7235 4.3324,-1.60777 4.8288,-1.93209 7.2855,-1.26675 6.8424,1.85311 -0.2614,1.84097 -2.2453,3.02849 -10.8201,6.47691 -13.6399,5.48536 -14.6099,5.48615 -14.0495,0.0113 0.1631,-1.59389 -0.3384,-1.53013 -5.1349,0.65283 -2.9236,1.33059 -8.5798,3.90045 -12.5694,5.71079 l -7.2539,3.29154 -3.7461,-2.14093 c -3.4837,-1.99087 -3.7462,-2.46652 -3.7462,-6.78796 l 0,-4.64707 8.75,-4.49268 c 9.9469,-5.10725 9.4377,-3.88293 8.1164,-19.51373 -0.6234,-7.37455 -0.6919,-7.52525 -4.25,-9.34474 -1.989,-1.01712 -5.0985,-3.21937 -6.91,-4.8939 -2.7678,-2.55849 -3.4499,-2.80694 -4.2721,-1.55614 -0.9467,1.44004 -0.6917,11.64662 0.6178,24.72959 0.6167,6.16207 0.5887,6.25501 -2.2137,7.33503 -4.27483,1.64747 -9.36193,0.55956 -18.01873,-3.85343 -6.5676,-3.348 -7.9681,-4.50352 -8.7466,-7.2168 -0.8099,-2.82283 -0.6206,-3.46595 1.5,-5.096 1.3348,-1.02601 3.6432,-1.87548 5.1298,-1.88771 4.0558,-0.0334 7.7742,-2.08302 8.4157,-4.6388 0.3139,-1.25052 0.073,-4.59179 -0.5341,-7.42504 -0.6076,-2.83325 -1.068,-11.69976 -1.0231,-19.70336 l 0.082,-14.55199 2.924,-2.92404 c 2.762,-2.76191 3.2431,-2.88734 8.6785,-2.2623 7.94973,0.91418 12.89793,2.2696 14.63803,4.00972 2.5945,2.59451 3.6164,1.64728 3.6164,-3.35212 0,-6.4663 2.9824,-9.46845 9.2804,-9.34204 8.1197,0.16298 13.0144,3.10757 32.1529,19.34266 1.523,1.29191 -0.084,2.04586 -2.0859,0.97842 -8.7483,-4.66554 -13.0214,-4.82606 -15.7948,-0.59334 -2.4252,3.70132 -1.9015,4.43999 3.1474,4.43999 4.8328,0 4.947,1.23786 0.2167,2.3481 -1.6527,0.38789 -3.9942,-0.12442 -6.5,-1.42217 -2.1542,-1.11567 -5.9417,-2.27645 -8.4167,-2.57953 -3.6885,-0.45167 -5.0178,-0.14166 -7.3712,1.71918 -7.4494,5.89018 -7.4108,18.76049 0.067,22.32637 1.8547,0.88443 3.9194,1.60433 4.5882,1.59978 0.6689,-0.005 4.8683,1.83017 9.3321,4.07717 4.4637,2.247 10.0887,4.33776 12.5,4.64614 l 4.384,0.56068 -2.25,-2.45231 c -1.2375,-1.34877 -2.25,-3.37956 -2.25,-4.51286 0,-7.79389 4.3031,-13.41637 13.6533,-17.83975 6.5244,-3.08653 7.1068,-5.66383 1.8467,-8.17219 -3.3721,-1.60805 -4.6279,-3.29861 -2.4503,-3.29861 2.0859,0 6.9503,3.08253 6.9503,4.40436 0,0.74415 1.35,1.91219 3,2.59564 1.65,0.68345 3.0017,1.75055 3.0037,2.37132 0,0.62077 0.9263,-0.38457 2.0539,-2.2341 2.623,-4.30237 3.4514,-3.51473 1.565,1.48796 -2.2849,6.05931 -3.7219,16.27442 -3.2598,23.17227 0.2972,4.43582 0.084,6.18405 -0.7204,5.91384 -0.7421,-0.24917 -1.1651,-3.68276 -1.2073,-9.79745 -0.036,-5.17761 -0.1482,-9.76955 -0.25,-10.20431 -0.1018,-0.43476 -1.4215,0.356 -2.9327,1.75724 -3.0477,2.82598 -4.4771,1.54402 -1.7,-1.52463 1.6972,-1.87546 1.6684,-1.94214 -0.8384,-1.94214 -1.4278,0 -2.9164,-0.51853 -3.3081,-1.1523 -0.6449,-1.0434 2.2989,-0.90207 8.8529,0.42501 0.6173,0.12501 1.2842,-0.50578 1.4818,-1.40175 0.2365,-1.07196 -0.5257,-1.85118 -2.2289,-2.27866 -7.2119,-1.81007 -19.8057,7.23443 -20.6963,14.8635 -0.2448,2.09625 0.034,4.20959 0.6198,4.69632 0.5856,0.48672 2.1767,1.8031 3.5357,2.92529 1.4376,1.1871 3.2947,1.82489 4.4409,1.52515 3.2739,-0.85613 8.4807,2.35789 11.1223,6.86542 1.3562,2.31426 2.4659,4.92914 2.4659,5.81086 0,3.11409 2.0147,2.75827 8.41958,-1.48699 4.4918,-2.97722 6.2988,-4.75131 5.8992,-5.79185 -0.3168,-0.825 -0.7449,-2.625 -0.9513,-4 -0.3043,-2.0274 -0.049,-1.83836 1.3496,1 l 1.7247,3.5 0.3425,-3.25 c 0.3671,-3.48425 2.2157,-4.5565 2.2157,-1.28518 0,1.08065 0.8438,2.41639 1.8751,2.96833 2.7732,1.48417 3.3104,4.82348 1.0327,6.41887 -1.8728,1.31177 -1.8711,1.37125 0.092,3.14749 1.1003,0.99576 2.0005,2.26047 2.0005,2.81047 0,0.55 -0.8229,0.25525 -1.8287,-0.65499 -1.0058,-0.91025 -2.3183,-1.65499 -2.9167,-1.65499 -0.5984,0 -1.2379,-0.40296 -1.4213,-0.89547 -0.1833,-0.49251 -3.8208,1.35209 -8.0833,4.09911 -7.39848,4.76805 -7.74998,5.1645 -7.74998,8.74049 0,3.54707 2.2633,7.03996 4.5787,7.06638 0.5067,0.006 3.62128,2.0417 6.92128,4.52426 3.3,2.48256 7.8934,5.43374 10.2076,6.55817 3.9878,1.9376 4.5103,1.96536 10,0.53137 5.921,-1.54667 20.4707,-8.64396 20.9912,-10.23948 0.1587,-0.48665 -1.4865,-0.95103 -3.6562,-1.03195 -4.7451,-0.17696 -9.325,-3.20623 -11.0146,-7.28526 -1.2139,-2.9307 -1.35,-2.97788 -7.5807,-2.62813 -4.299,0.24131 -6.9253,-0.0843 -8.1459,-1.00987 -1.652,-1.25269 -1.5525,-1.36978 1.1986,-1.41147 5.1345,-0.0778 7.6895,-1.08492 6.4725,-2.55127 -2.0876,-2.51539 0.8521,-2.48532 3.8526,0.0394 2.6042,2.19128 2.9293,2.27064 2.4948,0.60891 -0.2748,-1.0509 -0.015,-2.8164 0.5774,-3.92332 0.7944,-1.48435 0.7392,-2.66395 -0.2104,-4.49429 -1.1834,-2.28102 -1.4856,-2.37199 -3.7372,-1.12508 -1.3473,0.74614 -3.2372,1.37257 -4.1997,1.39205 -0.9625,0.0195 -1.75,0.71044 -1.75,1.53544 0,2.29223 -1.3657,1.77401 -2.6559,-1.0078 -1.0904,-2.35088 -0.9905,-2.4922 1.7612,-2.4922 4.0858,0 11.6813,-4.05877 12.6148,-6.74092 0.4536,-1.30332 3.0528,-3.4149 6.2122,-5.04679 2.9877,-1.54323 5.6366,-3.41902 5.8864,-4.16843 0.3317,-0.99496 -0.055,-1.14758 -1.4322,-0.56569 -5.769,2.43689 -9.4414,2.90377 -12.9269,1.64339 -3.0428,-1.1003 -3.9085,-1.05743 -5.9739,0.29583 -3.0036,1.96806 -3.8606,2.0019 -3.1399,0.124 0.3078,-0.80224 -0.4927,-3.38974 -1.779,-5.75 -1.2863,-2.36027 -3.3499,-7.44139 -4.5858,-11.29139 -2.6176,-8.15386 -3.1671,-8.96113 -8.309,-12.20708 -3.7458,-2.36459 -3.916,-2.38236 -5.8809,-0.614 -1.96068,1.7645 -2.01218,1.76227 -1.65728,-0.0717 0.5546,-2.86661 3.47918,-4.36617 5.61618,-2.87971 0.9625,0.66948 3.1388,1.92098 4.8362,2.7811 3.0361,1.53849 7.4138,7.86798 7.4138,10.7193 0,0.829 1.7026,1.96566 3.9553,2.6406 2.1755,0.65177 4.7292,1.96051 5.6751,2.90829 0.9458,0.94778 3.0696,2.17324 4.7195,2.72324 1.6499,0.55 3.1686,1.51717 3.3747,2.14927 0.2647,0.81142 -0.7421,0.75083 -3.4248,-0.20611 -2.0899,-0.74546 -5.5998,-1.38202 -7.7998,-1.41458 -2.659,-0.0394 -3.5414,-0.34975 -2.632,-0.92586 1.1045,-0.69965 0.9599,-1.2748 -0.75,-2.98469 -2.624,-2.62407 -2.6893,-0.97296 -0.1798,4.55401 1.9747,4.34936 6.0747,7.84488 8.2798,7.05918 0.7051,-0.25125 2.44,0.12687 3.8552,0.84025 2.3865,1.20292 2.6969,1.08777 4.2766,-1.58652 1.6202,-2.74277 1.6051,-3.16339 -0.3105,-8.61359 -1.1077,-3.15151 -1.8284,-5.91562 -1.6015,-6.14247 0.2268,-0.22685 -0.4539,-2.43346 -1.5127,-4.90358 -2.4158,-5.63589 -2.4223,-11.63378 -0.018,-16.92728 1.4866,-3.27335 2.5343,-4.23624 5.1864,-4.76667 3.0128,-0.60256 3.6741,-0.26578 7.0726,3.60197 3.1732,3.61137 3.7555,4.99044 3.7916,8.97916 0.047,5.17558 3.2752,14.90573 5.5804,16.81885 2.3363,1.93899 1.7473,2.4626 -2.8807,2.56083 l -4.3425,0.0922 0.093,-11.09217 0.093,-11.09216 -3.4174,-4.25 c -3.4494,-4.28991 -6.0528,-5.29413 -7.7773,-3 -0.5168,0.6875 -1.7818,3.81299 -2.8111,6.94554 l -1.8713,5.69553 2.9043,5.30447 c 8.0073,14.62432 7.8861,14.26954 6.0987,17.85261 -2.1443,4.29821 -2.0768,4.47733 0.941,2.49996 2.0154,-1.32051 2.8749,-1.42635 4,-0.49257 1.7465,1.44942 1.8549,4.12263 0.2331,5.74446 -1.9922,1.99222 2.7413,1.47466 7.1682,-0.78376 2.3882,-1.2184 4.0565,-2.85809 4.3239,-4.25 0.4057,-2.11095 0.4449,-2.09151 0.5717,0.28376 0.075,1.4025 -0.3904,3.07662 -1.0341,3.72027 -1.6999,1.69995 -1.7425,11.87586 -0.076,18.06405 0.8433,3.13052 1.1632,6.79359 0.7743,8.86649 -0.7697,4.1029 -4.4912,10.2688 -6.2088,10.28681 -0.6492,0.007 -1.3242,1.02488 -1.5,2.26238 -0.3742,2.63471 -12.6738,9.5373 -22.0695,12.38547 l -5.75,1.74303 -0.05,4.06075 c -0.028,2.23341 -0.2157,5.97325 -0.4178,8.31075 -0.4539,5.24832 0.3143,5.3495 8.9595,1.18003 6.2355,-3.00732 6.4229,-3.03426 9.187,-1.31997 4.355,2.70107 5.3219,4.39748 5.318,9.33107 l 0,4.55887 -16.7464,7.88228 c -9.2106,4.33525 -19.9463,9.35784 -23.8573,11.16131 l -7.11078,3.27903 -2.8892,-1.99636 z m -49.827,-62.82626 c 9.2931,-4.4 17.4097,-8 18.037,-8 0.6273,0 1.6928,-2.80675 2.3677,-6.23723 1.342,-6.82145 3.1214,-10.92388 6.4001,-14.75562 l 2.133,-2.49284 -2.2097,1.86137 c -2.6858,2.26241 -5.8985,1.66632 -10.1076,-1.87539 -1.6343,-1.37516 -3.8675,-2.50029 -4.9627,-2.50029 -1.0953,0 -3.2803,-0.67223 -4.8557,-1.49384 -1.5754,-0.82161 -3.5393,-1.5228 -4.3643,-1.5582 -3.0162,-0.12943 -12.5227,-5.51055 -13.5839,-7.68917 -0.6005,-1.23267 -2.9647,-3.598 -5.2539,-5.25628 -2.2892,-1.65828 -4.1622,-3.4464 -4.1622,-3.9736 0,-0.5272 -0.8954,-1.43775 -1.9898,-2.02346 -1.5198,-0.81334 -2.5828,-0.67637 -4.50003,0.57983 -5.1207,3.35523 -3.1915,5.26629 19.82433,19.63778 5.041,3.14769 11.1905,7.02544 13.6655,8.61724 2.475,1.5918 6.6375,4.09789 9.25,5.56909 2.6125,1.47121 4.75,3.10595 4.75,3.63276 0,1.50751 -1.9541,1.12675 -4.8688,-0.94873 -2.36,-1.68049 -2.9713,-1.74398 -5.1544,-0.53543 -1.3622,0.75412 -3.0393,1.38709 -3.7268,1.40657 -2.1788,0.0618 -1.3513,-1.59738 1.4284,-2.8639 l 2.6784,-1.22037 -8.2678,-5.44014 c -4.5473,-2.99208 -8.3472,-5.44015 -8.4443,-5.44015 -0.097,0 -0.01,4.92098 0.1978,10.93551 l 0.3743,10.93552 -9.1084,4.57452 c -8.6783,4.35852 -9.1084,4.72838 -9.1084,7.83287 0,2.47456 0.6615,3.66848 2.75,4.96335 1.5125,0.93776 3.0123,1.71699 3.3329,1.73162 0.3206,0.0146 8.1863,-3.57339 17.4793,-7.97339 z m 18.2179,-0.37269 c 3.146,-1.30498 7.4074,-2.91488 9.4699,-3.57755 2.0625,-0.66268 3.75,-1.61997 3.75,-2.12731 0,-1.4261 -1.2784,-1.15125 -9.6635,2.07755 -4.285,1.65 -8.3636,3 -9.0637,3 -0.7,0 -1.2728,0.675 -1.2728,1.5 0,1.93112 0.03,1.92721 6.7801,-0.87269 z m 89.57048,-3.63206 c 1.4479,-1.72074 2.8187,-4.94167 3.208,-7.53736 0.8781,-5.85562 -2.0457,-11.65189 -8.8218,-17.48868 -4.5503,-3.91949 -5.0165,-4.09597 -7.7884,-2.94783 -1.6216,0.67169 -2.9484,1.59621 -2.9484,2.05449 0,0.45827 -1.0652,1.89839 -2.367,3.20026 -1.9988,1.99875 -2.1703,2.63621 -1.1021,4.097 0.7554,1.03311 1.0594,3.26256 0.7546,5.53474 -0.4131,3.07984 -0.072,4.21323 1.7907,5.94846 l 2.3009,2.14367 -2.2701,0 c -2.0448,0 -1.8567,0.39725 1.893,4 3.5488,3.40968 4.8022,4 8.4927,4 3.5845,0 4.7646,-0.51708 6.8579,-3.00475 z m -91.10058,-0.19536 c 1.5125,-0.54755 2.75,-1.41066 2.75,-1.91804 0,-0.50737 -1.9125,0.042 -4.25,1.22075 -4.6738,2.35695 -6.3823,3.64724 -3.25,2.45445 1.1,-0.41889 3.2375,-1.20961 4.75,-1.75716 z m 48.49318,-18.17484 c 3.2489,-2.12883 4.1646,-3.62505 2.2184,-3.62505 -1.9426,0 -19.02528,12.08787 -18.43418,13.04427 0.3235,0.52347 3.3747,-0.90357 6.78038,-3.17121 3.4057,-2.26763 7.6516,-5.07923 9.4354,-6.24801 z m -90.40978,3.87495 c -0.092,-2.75 -0.4811,-9.95 -0.8655,-16 -0.62043,-9.7629 -0.95793,-11.22493 -3.00153,-13 -3.2851,-2.85359 -2.3822,-7.89663 1.7861,-9.97608 2.78973,-1.39166 3.28333,-1.35587 6.20493,0.44978 1.7458,1.07895 4.0018,2.87626 5.0134,3.99401 2.6049,2.87838 3.5292,2.53271 3.5292,-1.31983 0,-4.38214 3.5692,-9.55671 8.5296,-12.3662 4.2904,-2.43001 7.8907,-2.83277 11.8537,-1.32604 2.1422,0.81444 2.864,0.53915 4.8854,-1.86313 1.3045,-1.55033 4.0571,-3.37496 6.1169,-4.05475 3.6328,-1.19892 3.6921,-1.29438 1.981,-3.18516 -3.043,-3.36245 -12.8116,-8.74022 -17.1312,-9.43095 -2.2775,-0.36419 -5.3357,-0.36231 -6.7959,0.004 -2.1645,0.54323 -2.5684,1.11977 -2.1859,3.12026 0.258,1.34963 0.1307,2.45389 -0.2829,2.45389 -0.4135,0 -0.9343,1.56211 -1.1571,3.47135 -0.422,3.61403 1.3262,5.42587 3.5631,3.69307 1.3405,-1.03834 7.6233,0.47217 7.6233,1.83279 0,0.51701 -0.5625,0.76673 -1.25,0.55493 -0.6875,-0.2118 -2.6,-0.65458 -4.25,-0.98396 -2.8223,-0.56338 -2.8859,-0.50971 -1.073,0.90615 4.45,3.47548 0.082,2.33463 -9.1824,-2.39813 -9.8693,-5.04194 -12.3644,-5.61309 -19.42263,-4.44603 -2.7377,0.45266 -3.9495,1.28082 -4.7398,3.23899 -1.8728,4.64054 -2.1929,21.97025 -0.5756,31.16044 2.2483,12.77553 2.1416,13.49588 -2.2566,15.24203 -2.0625,0.81883 -5.6625,1.80725 -8,2.19648 -4.7025,0.78303 -5.6358,2.96776 -2.4857,5.81856 3.456,3.12768 15.567,7.70061 19.7357,7.45194 l 4.00003,-0.23861 -0.1666,-5 z m -4.33343,-6.5 c 0,-2.2 0.45,-4 1,-4 0.55,0 1,1.8 1,4 0,2.2 -0.45,4 -1,4 -0.55,0 -1,-1.8 -1,-4 z m -8,2 c 0,-0.55 0.3375,-1.00614 0.75,-1.01365 0.4125,-0.008 1.875,-0.31055 3.25,-0.67342 2.2447,-0.59238 2.3598,-0.48885 1.1276,1.01366 -1.4899,1.81661 -5.1276,2.29435 -5.1276,0.67341 z m 5.193,-13.66435 c -1.9687,-3.72921 -3.3279,-13.40742 -2.6477,-18.85205 1.1076,-8.86458 2.2262,-7.24571 2.2645,3.2771 0.02,5.35661 0.5126,11.2845 1.0957,13.17307 1.1846,3.83638 0.7745,5.21872 -0.7125,2.40188 z m 10.37493,-22.83565 c -2.5218,-1.925 -5.48133,-3.5 -6.57663,-3.5 -2.6106,0 -2.5657,-1.61654 0.064,-2.30422 1.3578,-0.35506 3.13973,0.40412 5.25003,2.23672 1.7571,1.52581 4.2072,3.30602 5.4447,3.95603 2.2481,1.18082 3.0712,3.11147 1.3266,3.11147 -0.5079,0 -2.9868,-1.575 -5.5087,-3.5 z m 1.7306,-7.90416 c -4.1265,-1.50227 -5.1924,-2.59584 -2.5303,-2.59584 2.9629,0 7.2318,1.7563 7.2318,2.97525 0,1.20438 -0.4512,1.16797 -4.7015,-0.37941 z m -13.29853,-5.47926 c 0,-0.86612 5.1619,-2.2733 5.8501,-1.59481 0.1926,0.18984 0.054,0.82511 -0.309,1.4117 -0.7923,1.28196 -5.5411,1.43889 -5.5411,0.18311 z m 32.25003,-4.82231 c -1.2375,-0.23836 -2.25,-0.83087 -2.25,-1.31671 0,-1.08118 10.1257,-0.063 11.45,1.15134 0.9624,0.88246 -4.9273,0.98832 -9.2,0.16537 z m 109.74998,46.20573 c 0,-1.925 -0.2311,-3.5 -0.5136,-3.5 -0.4355,0 -3.8836,1.77616 -5.4715,2.81839 -0.5742,0.37691 4.1459,4.12708 5.2351,4.15937 0.4125,0.0122 0.75,-1.55276 0.75,-3.47776 z m -38,80.10699 c 0,-0.21616 0.6984,-0.661 1.5519,-0.98855 0.89,-0.34149 1.2914,-0.17385 0.941,0.39301 -0.5872,0.95021 -2.4929,1.40545 -2.4929,0.59554 z m -33.99998,-34.76417 c 0,-0.25694 0.9958,-2.46418 2.2128,-4.90499 1.8054,-3.62079 2.2196,-6.18685 2.25,-13.93783 0.041,-10.43202 -1.2373,-15.39009 -5.1732,-20.06764 -2.6629,-3.16468 -2.4832,-5.16789 0.2593,-2.89176 7.9684,6.61314 9.5217,34.06058 2.2976,40.59828 -1.0156,0.9191 -1.8465,1.46087 -1.8465,1.20394 z m 35.43198,-11.13298 c -6.3775,-2.78082 -11.2223,-5.94639 -9.8176,-6.41465 0.5905,-0.19682 3.2813,0.63319 5.9796,1.84447 8.2876,3.72033 11.7709,4.82961 15.215,4.84528 1.9483,0.009 3.0549,0.42629 2.691,1.01506 -1.0648,1.72282 -8.781,1.01517 -14.068,-1.29016 z m -15.182,-9.93033 c -1.2375,-0.59683 -2.24998,-1.51452 -2.24998,-2.03931 0,-0.56583 0.7122,-0.60829 1.74998,-0.10431 0.9625,0.46743 4.3375,0.8249 7.5,0.79438 5.6235,-0.0543 7.3302,0.74938 4.1682,1.96274 -2.4388,0.93587 -8.6648,0.59386 -11.1682,-0.6135 z m 85.9591,-18.34559 c -2.5581,-1.79178 -5.6387,-7.42188 -6.6665,-12.18392 l -0.7015,-3.25 -9.9206,0 c -5.4562,0 -9.9205,-0.39752 -9.9205,-0.88337 0,-1.46246 3.0794,-1.8218 11.5631,-1.34932 6.7744,0.37729 8.8922,0.0924 13.25,-1.78227 2.8528,-1.22723 5.1869,-2.62591 5.1869,-3.10818 0,-1.31821 -1.4028,-1.08321 -7.213,1.20837 -3.9407,1.55423 -6.5602,1.94238 -10.287,1.52427 -2.75,-0.30852 -6.9125,-0.57188 -9.25,-0.58523 -2.3946,-0.0137 -4.25,-0.50174 -4.25,-1.11798 0,-0.74102 3.1875,-0.98287 9.8848,-0.75 l 9.8848,0.34371 0.5818,-5.5 c 1.2378,-11.7007 5.2702,-18.43273 12.484,-20.84168 5.2219,-1.74381 9.4613,0.52028 12.6104,6.73477 1.4048,2.77223 2.5542,5.73038 2.5542,6.57367 0,2.07606 1.7762,1.93098 7.9939,-0.65297 5.1432,-2.1374 5.2916,-2.14388 6.6468,-0.29044 0.7625,1.04268 1.231,2.36397 1.0412,2.93621 -0.1897,0.57224 -3.4434,2.23395 -7.2304,3.69269 l -6.8854,2.65225 -0.3209,5.34775 c -0.444,7.40148 -1.7117,11.61494 -5.1035,16.96329 -2.4115,3.80252 -3.5674,4.69378 -6.7746,5.22362 -5.6409,0.93187 -6.6821,0.82895 -9.158,-0.90524 z m 7.3185,-1.19923 c 2.5849,-1.84808 6.4007,-14.43821 6.448,-21.27459 0.038,-5.55407 -2.811,-15.05549 -5.6188,-18.73678 -2.6753,-3.5075 -2.5572,-5.46444 0.1921,-3.18272 7.1104,5.90109 9.1484,29.02773 3.4145,38.74601 -1.8173,3.08013 -1.8374,3.33577 -0.2375,3.02767 4.9995,-0.96282 9.0432,-16.24015 7.2574,-27.41879 -1.9904,-12.45923 -7.3368,-18.44067 -14.2987,-15.99709 -4.7044,1.65123 -5.5166,2.35198 -7.7105,6.65235 -1.6718,3.27693 -4.2977,15.82301 -3.5005,16.72438 0.1338,0.15132 2.3012,-0.60696 4.8163,-1.68507 3.8649,-1.65668 4.7512,-1.74542 5.7242,-0.57312 1.9845,2.39121 0.1606,5.0123 -5.007,7.19556 l -4.9827,2.10514 1.5259,4.32481 c 2.0331,5.76242 4.1027,8.77841 6.758,9.84795 2.7657,1.11402 3.9268,1.16836 5.2193,0.24429 z m 18.1003,-28.85354 c 2.1296,-0.89037 4.9579,-2.03209 6.2849,-2.53716 1.6309,-0.62071 2.0842,-1.24695 1.3988,-1.93239 -1.2893,-1.28927 -12.3082,3.04161 -12.3102,4.8384 0,1.57284 -0.022,1.57442 4.6265,-0.36885 z m -100.2284,25.21756 c -0.3374,-0.87929 -0.3545,-2.27371 -0.038,-3.09871 0.3426,-0.89285 0.01,-1.5 -0.8235,-1.5 -0.7694,0 -1.5428,-0.99241 -1.7186,-2.20535 -0.1757,-1.21294 -2.3445,-3.73963 -4.8195,-5.61486 -5.58348,-4.23044 -6.19618,-5.27943 -5.80938,-9.94703 l 0.3094,-3.73276 1.38128,4 c 0.7598,2.2 3.9489,6.7 7.0869,10 3.1381,3.3 5.9308,6.675 6.2061,7.5 0.427,1.27985 0.7445,1.29857 2.1631,0.12756 2.798,-2.30969 2.0499,0.97227 -0.8482,3.72115 -2.1277,2.01816 -2.5626,2.12372 -3.0897,0.75 z m -10.9482,-6.499 c 0.027,-2.14516 0.3862,-3.6936 0.7987,-3.44098 1.0081,0.61737 0.9635,7.34127 -0.049,7.34127 -0.4393,0 -0.7768,-1.75513 -0.75,-3.90029 z m -24.99238,-8.16624 c -0.3625,-0.58659 -0.4535,-1.27219 -0.2022,-1.52354 0.6975,-0.69748 3.7433,0.68337 3.7433,1.69706 0,1.25179 -2.7433,1.11736 -3.5411,-0.17352 z m -19.4589,-1.98236 c 0,-1.21346 7.659,-4.89663 10.25,-4.92915 2.9973,-0.0376 1.9164,1.78292 -1.5,2.52636 -1.7875,0.38897 -4.1376,1.32473 -5.2225,2.07945 -2.3589,1.64103 -3.5275,1.74815 -3.5275,0.32334 z m 5,-5.48629 c 0,-1.97543 3.6692,-5.44308 6.3235,-5.97617 1.7471,-0.35088 4.0204,-0.87758 5.0517,-1.17044 1.2109,-0.34382 1.6328,-0.14021 1.191,0.57466 -0.3763,0.60892 -1.542,1.10713 -2.5904,1.10713 -1.0484,0 -3.4438,1.35 -5.323,3 -3.2825,2.88207 -4.6528,3.60798 -4.6528,2.46482 z m -11,-3.05147 c 0,-1.757 2.7933,-4.95338 3.6127,-4.134 0.4269,0.42691 -0.2113,1.76371 -1.4183,2.97065 -1.2069,1.20694 -2.1944,1.73045 -2.1944,1.16335 z"
       id="path3356"
       inkscape:connector-curvature="0" />
  </g>
</svg>
