<?xml version="1.0" encoding="UTF-8" standalone="no"?>
<!-- Created with Inkscape (http://www.inkscape.org/) -->

<svg
   xmlns:dc="http://purl.org/dc/elements/1.1/"
   xmlns:cc="http://creativecommons.org/ns#"
   xmlns:rdf="http://www.w3.org/1999/02/22-rdf-syntax-ns#"
   xmlns:svg="http://www.w3.org/2000/svg"
   xmlns="http://www.w3.org/2000/svg"
   xmlns:sodipodi="http://sodipodi.sourceforge.net/DTD/sodipodi-0.dtd"
   xmlns:inkscape="http://www.inkscape.org/namespaces/inkscape"
   width="899.79584"
   height="623.06177"
   id="svg2"
   version="1.1"
   inkscape:version="0.48.3.1 r9886"
   sodipodi:docname="Lying-rear-lateral-raise-1.svg">
  <defs
     id="defs4" />
  <sodipodi:namedview
     id="base"
     pagecolor="#ffffff"
     bordercolor="#666666"
     borderopacity="1.0"
     inkscape:pageopacity="0.0"
     inkscape:pageshadow="2"
     inkscape:zoom="0.24748737"
     inkscape:cx="244.83449"
     inkscape:cy="48.35399"
     inkscape:document-units="px"
     inkscape:current-layer="layer1"
     showgrid="false"
     fit-margin-top="0"
     fit-margin-left="0"
     fit-margin-right="0"
     fit-margin-bottom="0"
     inkscape:window-width="1378"
     inkscape:window-height="738"
     inkscape:window-x="211"
     inkscape:window-y="83"
     inkscape:window-maximized="0" />
  <metadata
     id="metadata7">
    <rdf:RDF>
      <cc:Work
         rdf:about="">
        <dc:format>image/svg+xml</dc:format>
        <dc:type
           rdf:resource="http://purl.org/dc/dcmitype/StillImage" />
        <dc:title></dc:title>
      </cc:Work>
    </rdf:RDF>
  </metadata>
  <g
     inkscape:label="Ebene 1"
     inkscape:groupmode="layer"
     id="layer1"
     transform="translate(91.146684,-303.38574)">
    <path
       style="fill:#000000"
       d="m 421.01775,925.06426 c -0.825,-0.4836 -69,-17.6309 -151.5,-38.1052 -82.5,-20.4744 -150.5625,-37.6702 -151.25,-38.2129 -1.38779,-1.0956 -1.8288,-33.2929 -0.48469,-35.3861 0.40408,-0.6292 9.63955,-5.4418 20.52328,-10.6945 l 19.78858,-9.5504 49.13609,10.9365 c 27.02485,6.0151 49.25054,10.8221 49.39042,10.6822 0.13988,-0.1399 0.58087,-19.9887 0.97998,-44.1085 l 0.72565,-43.85412 -2.40466,0.75331 c -1.32256,0.41432 -3.67668,1.81673 -5.23138,3.11647 -1.91663,1.60233 -4.08985,2.36317 -6.75,2.36317 l -3.92327,0 0,5.3185 c 0,6.37547 -2.30394,14.61857 -5.50169,19.68417 -5.19036,8.2221 -28.11227,22.4459 -41.82277,25.9524 -12.17749,3.1145 -19.36753,1.2699 -32.3652,-8.3032 -14.87798,-10.9581 -29.42628,-35.4921 -33.91388,-57.19186 -2.29256,-11.08564 -1.54159,-29.02398 1.5026,-35.89223 3.39388,-7.65723 14.74569,-18.15668 25.10533,-23.22027 22.65157,-11.07165 34.61144,-11.27698 49.13403,-0.84354 2.67641,1.92282 5.29478,3.49603 5.81858,3.49603 0.52381,0 1.2456,-1.56303 1.60399,-3.4734 0.9842,-5.24625 -2.08299,-17.31819 -8.33618,-32.80969 l -5.56357,-13.78309 -6.2152,-4.43507 c -9.84227,-7.0233 -16.90063,-13.92299 -30.51063,-29.82479 -14.74161,-17.22395 -22.96894,-30.78267 -28.01802,-46.17396 -2.92632,-8.92039 -3.2749,-11.18757 -3.22875,-21 0.0641,-13.62686 3.22943,-26.62811 9.74274,-40.017 7.51088,-15.43951 22.88131,-29.95759 36.14176,-34.13758 4.78258,-1.50757 5.43253,-2.07174 6.9429,-6.02659 5.24055,-13.72217 21.31389,-26.77616 40.48396,-32.8791 12.05118,-3.83658 14.81736,-5.44892 23.1278,-13.48065 12.08911,-11.68368 21.98151,-17.3898 35.63883,-20.55715 7.57809,-1.75748 22.67576,-2.22143 31.83989,-0.97844 6.04598,0.82005 6.29385,0.75375 25,-6.68758 23.63434,-9.40177 23.98873,-9.51014 34.89348,-10.66961 11.9495,-1.27055 17.33526,-3.04233 27.4977,-9.04606 4.67374,-2.76113 8.76019,-5.02024 9.08102,-5.02024 0.32083,0 1.2127,-1.176 1.98194,-2.61334 3.89668,-7.28102 32.76014,-22.32215 47.6691,-24.841 5.11624,-0.86439 25.05376,1.83481 34.02876,4.6069 3.70368,1.14395 12.46673,4.95261 19.47344,8.46368 10.6213,5.32234 13.57975,6.38376 17.79317,6.38376 15.64776,0 36.37585,3.99586 46.53511,8.97081 12.50892,6.12557 30.56772,22.45632 39.34606,35.58103 6.8124,10.18538 12.18368,24.63091 12.98358,34.91801 0.55241,7.10437 1.04604,8.73534 3.62481,11.97663 5.24844,6.5968 6.47464,8.97361 6.48004,12.56012 0.01,5.9951 1.7189,9.9191 7.3316,16.82556 2.9804,3.66731 6.2449,8.24284 7.2544,10.16784 2.2047,4.20414 2.4617,13.43225 0.5596,20.09158 l -1.3115,4.59157 6.1864,9.40843 c 11.7096,17.80828 19.8926,37.44143 19.9681,47.90842 l 0.018,2.5 12.7493,0.041 c 12.0709,0.0388 13.1715,0.2151 20.6828,3.31253 9.4355,3.89094 12.1231,5.65736 20.1503,13.24375 4.2428,4.00976 7.1999,5.95909 9.7721,6.44163 3.8719,0.72638 18.7463,0.0634 29.4491,-1.31253 19.6618,-2.52772 33.6832,3.92383 37.3262,17.17464 1.3443,4.88947 -0.1113,20.02117 -3.2802,34.09896 -1.8738,8.32449 -1.928,9.78809 -0.7216,19.5 1.5803,12.72205 1.5409,37.09741 -0.075,46.68039 -1.498,8.88158 -3.7177,12.49435 -9.352,15.2219 -6.5159,3.15427 -14.0456,3.99913 -33.2019,3.72536 -14.9274,-0.21334 -17.5832,-0.50521 -21.7838,-2.39401 -3.5922,-1.61527 -5.1489,-3.02513 -6.25,-5.66023 -2.9841,-7.14194 -1.2315,-11.51979 9.0737,-22.66621 10.2692,-11.10745 10.6475,-17.71979 1.9974,-34.90825 -4.3886,-8.72046 -6.8871,-16.00889 -8.2583,-24.09008 l -0.779,-4.59114 -11,3.49467 c -14.9716,4.75645 -29.6196,5.4313 -46.9141,2.16138 -13.0702,-2.47124 -18.0931,-2.24099 -24.5518,1.12546 -7.4161,3.8655 -19.17783,0.91629 -30.34193,-7.60813 -2.51464,-1.92009 -4.82411,-3.49109 -5.13211,-3.49109 -0.30799,0 -0.55999,2.21968 -0.55999,4.93261 0,3.84152 0.3871,5.04267 1.75,5.43016 0.9625,0.27365 22.90003,3.97012 48.75003,8.21437 25.85,4.24425 47.5218,8.21317 48.1595,8.81984 1.4494,1.37879 3.9749,33.3973 2.7251,34.5488 -7.0865,6.52911 -25.3113,20.05422 -27.0226,20.05422 -1.7821,0 -143.73232,-26.74616 -150.86203,-28.42531 -1.53456,-0.36141 -2.81452,0.7387 -5.5,4.72714 -1.925,2.85899 -3.64928,5.53351 -3.83174,5.94338 -0.18245,0.40987 1.65662,3.0182 4.08682,5.79629 8.27939,9.46458 16.91321,26.06154 21.30681,40.9585 1.49934,5.08367 1.91936,9.6595 1.92759,21 0.01,13.16012 -0.21036,14.98883 -2.37984,19.79002 -6.27974,13.89745 -36.42192,32.16735 -53.10964,32.19105 -7.51385,0.011 -11.63508,-1.2993 -18.93805,-6.0194 l -6.22546,-4.0237 -3.4626,2.14 c -4.8845,3.0188 -14.37389,15.1782 -14.37389,18.4183 0,6.5172 -5.61588,12.1186 -13.15233,13.1183 -4.38375,0.5816 -5.08705,1.0226 -6.31419,3.9595 -5.96677,14.2805 -41.10566,34.1768 -56.40812,31.9393 -7.59764,-1.1109 -16.69808,-6.2675 -25.23677,-14.3001 -21.08378,-19.8341 -34.21252,-54.3048 -29.9674,-78.6821 2.01781,-11.58712 7.33463,-19.73327 17.73248,-27.16876 11.34714,-8.11433 28.50555,-14.36241 39.44187,-14.36241 7.18749,0 17.48536,4.93638 25.41338,12.18215 l 5.53057,5.05463 4.64347,-3.61769 c 2.55391,-1.98973 8.55968,-7.02951 13.34617,-11.19951 l 8.70271,-7.58181 0.49688,-8.7145 c 0.76222,-13.36822 5.88628,-22.61669 14.74352,-26.61075 5.16571,-2.32941 5.62303,-4.15443 4.12935,-16.47876 -1.07313,-8.85429 -0.98713,-10.59722 0.96832,-19.62552 1.18032,-5.44953 3.1666,-12.72074 4.41395,-16.15824 l 2.26791,-6.25 -2.62589,-7.9e-4 c -5.31927,-0.002 -19.60298,-8.08101 -33.81557,-19.12738 l -6.18969,-4.81078 -35.34038,18.43932 c -25.86024,13.49293 -37.21008,18.88974 -42.31031,20.11838 -3.83346,0.92348 -7.49553,1.80877 -8.13793,1.9673 -0.73699,0.18188 0.0702,2.62001 2.1873,6.60705 11.68972,22.01444 14.63254,50.9824 6.62635,65.22709 -3.62605,6.45151 -17.09859,16.93661 -29.37884,22.86429 l -8.73319,4.21552 -0.0168,54.07087 -0.0168,54.0709 68.75,15.3286 c 37.8125,8.4307 69.7625,15.7002 71,16.1544 2.23059,0.8186 2.25,0.9979 2.25,20.7824 l 0,19.9566 -3.25,2.2454 c -1.7875,1.2349 -8.71581,6.2156 -15.39625,11.0681 -6.68044,4.8525 -12.53044,8.8091 -13,8.7923 -0.46956,-0.017 -1.52875,-0.426 -2.35375,-0.9095 z m 15.05333,-16.0601 11.92608,-8.5 -0.23971,-15.9371 -0.2397,-15.9371 -69.46756,-15.371 c -38.20716,-8.4541 -70.04466,-15.85 -70.75,-16.4353 -1.02847,-0.8536 -1.28244,-22.0243 -1.28244,-106.90337 l 0,-105.83901 -3.75,-0.98548 c -7.61577,-2.00138 -35.26176,-8.09161 -36.73107,-8.09161 -1.3494,0 -1.51893,12.31953 -1.51893,110.37756 0,99.48971 -0.15623,110.50721 -1.58382,111.69201 -3.11743,2.5872 -4.88732,-0.081 -5.20853,-7.8519 l -0.29234,-7.0728 -9.20766,-2.0801 c -5.06421,-1.144 -27.19149,-6.0769 -49.17174,-10.9619 l -39.96408,-8.8818 -17.28592,8.6262 -17.28591,8.6262 0,13.0566 0,13.0566 148.75,37.1184 c 81.8125,20.4151 149.34113,37.0456 150.06362,36.9566 0.7225,-0.089 6.68036,-3.9867 13.23971,-8.6617 z m -42.55333,-74.1012 c 6.79183,-1.851 11.80193,-9.5165 13.53952,-20.7155 3.53788,-22.8022 -11.67327,-59.2518 -31.40535,-75.25482 -8.88209,-7.20351 -13.91928,-9.43868 -21.13417,-9.37794 -7.29442,0.0614 -11.61144,2.14624 -14.96551,7.22738 -16.59786,25.14438 7.06438,83.58898 39.19109,96.80008 6.48618,2.6672 9.00689,2.8926 14.77442,1.3207 z m 20.44183,-8.843 c 11.79198,-7.0919 18.00469,-12.6973 20.77153,-18.7408 9.18388,-20.0603 -2.25731,-58.63783 -23.83994,-80.38382 -8.50152,-8.56587 -17.68009,-13.86067 -24.37342,-14.06018 -5.75019,-0.1714 -15.63992,2.67071 -25.97387,7.46437 l -8.97388,4.16276 5.68328,0.70992 c 28.87105,3.60637 59.21627,54.49485 53.88208,90.35945 -0.64237,4.319 -2.04145,9.3331 -3.10905,11.1426 -1.06761,1.8095 -1.64496,3.2899 -1.283,3.2899 0.36196,0 3.60928,-1.7749 7.21627,-3.9442 z m 35.56478,-26.6259 c 4.77986,-2.2682 5.84319,-5.6928 5.01533,-16.1526 -0.69065,-8.7262 -0.67522,-8.8094 2.33796,-12.601 2.6211,-3.2982 2.88253,-4.1475 1.92421,-6.2508 -0.60994,-1.3386 -0.8753,-2.6676 -0.58968,-2.9532 1.04529,-1.0453 3.98308,0.8644 4.85412,3.1554 1.01648,2.6736 0.41784,4.9741 -2.04855,7.8723 -4.66802,5.4855 -3.03212,7.6482 1.76702,2.3362 1.98334,-2.1954 5.74397,-5.0749 8.35695,-6.399 5.48838,-2.7812 11.66805,-8.7603 12.50641,-12.1006 0.31786,-1.2665 -0.24026,-5.79779 -1.24027,-10.06962 -1.12776,-4.81757 -1.83185,-11.75416 -1.85415,-18.26695 -0.0344,-10.04035 0.12189,-10.82832 3.56999,-18 5.21411,-10.8448 16.55521,-25.15051 36.91259,-46.56167 9.45645,-9.94596 14.06998,-17.6754 18.04782,-30.23704 1.68964,-5.33571 5.60611,-17.33787 8.70327,-26.67147 8.05332,-24.26946 7.60924,-29.63988 -2.91902,-35.30058 -7.82111,-4.20515 -10.77031,-7.03565 -16.37407,-15.71504 -5.67414,-8.78839 -13.57428,-16.67112 -26.37451,-26.31638 -9.84403,-7.4177 -13.97133,-9.60229 -28.41221,-15.03862 -11.72251,-4.41299 -21.26484,-10.51029 -26.27751,-16.79064 -4.30957,-5.39946 -5.11729,-7.16002 -5.90388,-12.86856 l -0.68895,-5 4.10061,6.14601 c 4.49722,6.74045 10.81688,13.35399 12.76057,13.35399 0.68144,0 2.26413,-3.0375 3.5171,-6.75 2.11602,-6.26969 2.25993,-8.18827 2.0225,-26.96277 l -0.25562,-20.21278 5.26768,-4.1651 c 2.89722,-2.2908 7.90828,-5.44465 11.13569,-7.00855 8.27414,-4.00938 12.43471,-7.44753 16.0207,-13.23898 2.90075,-4.68478 3.13227,-4.84784 3.42131,-2.40971 0.61134,5.15689 -5.28889,12.62717 -13.81002,17.48486 -17.00016,9.69137 -17.32189,10.20303 -15.90232,25.29007 0.53721,5.7094 1.12609,10.53007 1.30862,10.7126 1.01497,1.01496 3.97951,-7.98425 4.03201,-12.23964 0.0457,-3.70807 0.44212,-5 1.53401,-5 2.06586,0 3.21382,7.70718 1.9728,13.2449 -1.16702,5.20745 -3.3918,9.89264 -6.11329,12.87405 -1.14091,1.24987 -2.69312,5.76144 -3.78456,11 -1.01769,4.88458 -2.14722,9.61492 -2.51006,10.51187 -0.48915,1.20917 0.16765,1.91925 2.54031,2.74636 3.16126,1.10202 3.30549,1.00956 11.90278,-7.63082 7.43321,-7.47046 8.8795,-9.47575 9.91439,-13.74636 2.67069,-11.02098 3.22016,-12.5 4.64385,-12.5 0.97478,0 1.47344,1.08228 1.49742,3.25 l 0.036,3.25 2.45487,-3 c 4.66357,-5.69916 8.63985,-14.61392 11.72437,-26.28585 2.67001,-10.10346 3.08715,-13.36415 3.03376,-23.71415 -0.0652,-12.64413 -1.88416,-23.68109 -5.49184,-33.32347 -1.68485,-4.50317 -4.09296,-7.53043 -13.19873,-16.59233 -12.43395,-12.37402 -31.31908,-26.39345 -40.67472,-30.19498 -8.42463,-3.42324 -20.88586,-6.23932 -30.98154,-7.00144 -8.52539,-0.64358 -8.66807,-0.61556 -17.79732,3.49512 -11.05233,4.97659 -24.0802,8.88641 -33.71731,10.11896 -10.07326,1.28833 -21.20397,5.09927 -34.13396,11.68682 -9.5873,4.88452 -12.18256,5.7734 -17.92399,6.13898 -3.69242,0.23512 -9.84475,-0.16334 -13.67185,-0.88546 -12.6775,-2.39207 -31.68758,1.56792 -44.34262,9.23701 -3.01386,1.82644 -9.83829,7.48565 -15.1654,12.57603 -8.57091,8.19004 -10.60638,9.60538 -17.68565,12.29752 -16.17782,6.15217 -18.74573,7.30705 -24.31628,10.93594 -7.72974,5.03547 -16.41566,14.37829 -16.0017,17.21188 0.29179,1.99726 0.82293,2.1556 6.44765,1.92216 15.31213,-0.63548 28.84825,4.77933 41.35191,16.54187 4.28866,4.03447 8.63475,7.33945 9.65799,7.3444 1.02324,0.005 3.11116,-1.45754 4.63982,-3.25 l 2.77939,-3.25901 -0.66397,4 c -0.36519,2.2 -1.30274,5.62618 -2.08345,7.61372 -1.34303,3.41913 -1.26126,3.93071 1.51832,9.5 3.90708,7.82842 6.60629,16.35031 5.52216,17.43444 -1.4302,1.4302 -2.701,-0.15547 -6.71961,-8.38451 -4.32965,-8.86598 -16.77523,-25.83484 -21.85149,-29.7933 -15.97464,-12.45699 -42.56922,-14.4963 -60.99219,-4.67696 -8.28639,4.4166 -19.80432,16.8739 -24.17315,26.14466 -5.74414,12.18921 -9.0113,25.6356 -9.02949,37.16195 -0.0137,8.66563 0.40857,11.22801 3.16432,19.2029 7.63152,22.08497 17.75718,37.90775 35.70689,55.7971 26.45552,26.36656 40.69132,33.58626 54.08073,27.42708 9.67908,-4.45241 29.43791,-27.43873 32.56881,-37.88873 0.97586,-3.25714 0.79482,-5.64385 -1.13451,-14.95696 l -2.29568,-11.08139 -4.08825,-0.064 -4.08825,-0.064 3.16892,-1.57907 c 1.9515,-0.97244 4.24518,-3.54102 5.97045,-6.68605 2.40233,-4.37924 2.80425,-6.24695 2.82053,-13.10697 0.0153,-6.44915 -0.42656,-8.83855 -2.27937,-12.32564 -2.86163,-5.38575 -7.78921,-7.85503 -12.43988,-6.23379 -4.98376,1.73735 -6.92597,1.38487 -6.5602,-1.19057 0.489,-3.44313 7.29756,-5.52258 12.74162,-3.8915 5.64659,1.69177 10.60269,6.33023 12.73811,11.92174 2.4658,6.45661 2.23327,17.08148 -0.53005,24.21976 -2.39305,6.18177 -2.6261,9.2788 -1.04052,13.82721 l 1.08961,3.12566 3.75199,-4.72644 c 8.1928,-10.32056 26.22325,-26.12821 38.56879,-33.814 2.99914,-1.86714 2.99898,-1.86652 -0.55684,2.14902 -5.06544,5.72044 -9.94316,13.02658 -9.94316,14.89357 0,0.87701 1.225,2.06031 2.72221,2.62955 1.49722,0.56925 5.30939,3.50274 8.4715,6.51888 8.21354,7.83439 12.97538,9.71646 25.80629,10.1997 12.57088,0.47344 24.88813,-1.42849 34.04845,-5.25747 11.44707,-4.78483 12.53552,-4.4115 6.52734,2.23884 l -3.42422,3.7902 6.03586,4.82987 c 12.40181,9.92389 31.63792,16.57528 47.9746,16.58849 10.10863,0.008 21.89245,-2.03881 28.45956,-4.94375 2.54796,-1.12708 4.81546,-2.04924 5.03891,-2.04924 1.54766,0 -10.95654,9.69247 -14.80365,11.47487 l -4.78702,2.21785 2.71509,2.4871 c 12.28222,11.25091 23.15529,16.93105 33.66038,17.58434 6.52656,0.40587 7.92195,0.0984 18.639,-4.1066 13.77582,-5.4052 19.39159,-6.92254 23.9961,-6.48357 2.64426,0.25209 3.4196,0.77948 3.4196,2.32601 0,1.76586 -0.57923,1.96929 -4.94771,1.7377 -6.42809,-0.34079 -10.90614,1.20504 -16.65518,5.74939 -2.67449,2.11407 -7.70523,4.66504 -11.79013,5.97851 -9.26656,2.9796 -12.14869,6.21899 -15.82055,17.78162 -2.47641,7.7982 -2.73009,9.84339 -2.32606,18.75278 0.24942,5.5 0.44597,14.78912 0.43677,20.64248 -0.0156,9.9412 -0.22619,11.06142 -3.19555,17 -5.17304,10.34585 -16.97044,25.61334 -25.20159,32.61439 -4.125,3.50853 -10.07708,8.62075 -13.22685,11.36048 l -5.72686,4.98132 2.22686,3.44633 c 1.22477,1.89549 2.97285,3.69044 3.88462,3.98879 2.4179,0.79117 9.39168,8.6535 11.63442,13.1168 2.03623,4.05228 3.57411,21.54688 3.6129,41.09938 0.0203,10.2091 0.22596,10.468 6.10152,7.6799 z m 41.49339,-139.07617 c 0,-0.90546 2.05426,-3.84246 4.56502,-6.52667 7.05519,-7.54257 10.52764,-15.9927 11.90863,-28.97941 1.81687,-17.08563 4.39403,-16.25748 3.58612,1.15238 -0.44641,9.6196 -5.78427,25.7926 -10.24663,31.04589 -3.76753,4.43531 -9.81314,6.47317 -9.81314,3.30781 z m 9.38,-76.80581 c -0.30647,-0.79867 -0.27221,-1.91328 0.0761,-2.47693 1.28965,-2.0867 -1.52186,-8.92148 -4.88432,-11.87375 -3.69163,-3.2413 -7.44943,-4.68073 -14.82182,-5.67753 -3.81245,-0.51546 -4.75,-1.02489 -4.75,-2.58095 0,-1.64924 0.71727,-1.93873 4.80366,-1.93873 9.33233,0 20.7869,8.26204 23.12422,16.67922 1.37136,4.93857 1.34443,6.64847 -0.12788,8.12078 -1.59833,1.59833 -2.74227,1.51401 -3.42,-0.25211 z m 25.35656,-20.11954 c -2.61514,-4.98941 -5.9882,-10.22189 -7.49569,-11.62774 -2.6644,-2.48476 -2.94217,-2.5278 -9.95553,-1.54239 -8.46281,1.18907 -11.32154,0.35104 -16.7341,-4.90557 -4.29871,-4.17486 -6.7808,-8.72801 -6.36192,-11.67033 0.26278,-1.84586 0.99595,-1.28058 4.75541,3.66647 2.4446,3.21683 5.43403,6.22491 6.64317,6.68463 1.9786,0.75226 7.39947,-0.16824 15.22628,-2.58552 1.92415,-0.59427 3.20014,0.19997 7.57083,4.71246 5.77712,5.96455 11.98632,18.83023 11.42005,23.66273 -0.26431,2.25564 -1.06196,1.24927 -5.0685,-6.39474 z M 457.37213,544.4853 c -0.31345,-0.81684 0.15358,-3.29336 1.03785,-5.50338 2.0031,-5.00624 2.03988,-11.98195 0.0969,-18.38666 -3.19293,-10.52518 -0.34452,-11.12327 3.57168,-0.74997 3.31208,8.7731 1.69709,23.8866 -2.73416,25.58703 -0.77133,0.29598 -1.65887,-0.13017 -1.97232,-0.94702 z m -73.68771,-24.14778 c -1.29776,-1.29776 -0.59465,-2.11189 6.16487,-7.13832 9.48053,-7.04978 18.91773,-17.3416 19.69352,-21.47692 0.4156,-2.21532 -0.0649,-5.11678 -1.4514,-8.76483 -2.54976,-6.70855 -2.54985,-6.69418 0.0287,-4.36061 5.14238,4.65379 6.44942,13.45263 3.00023,20.19719 -5.69785,11.14162 -23.70113,25.27831 -27.43594,21.54349 z m -15.87591,-28.88395 c -5.59917,-3.03916 -12.3676,-15.42055 -13.75074,-25.15401 -1.74396,-12.27263 -4.49164,-17.66156 -11.14749,-21.86321 -3.70846,-2.34105 -5.4451,-6.43216 -2.73039,-6.43216 2.4755,0 9.46924,4.98989 12.12994,8.65447 6.42043,8.84285 5.4364,8.16844 7.81359,5.35507 3.12005,-3.69254 6.72004,-11.24281 8.35679,-17.52674 1.76393,-6.77216 4.30984,-10.14848 12.07096,-16.00816 6.24052,-4.71162 9.44418,-6.08095 11.96434,-5.11387 2.60596,1 1.62959,2.63923 -1.572,2.63923 -2.37037,0 -4.42943,1.29263 -8.99325,5.64578 -6.00898,5.7316 -7.91545,9.56892 -7.92693,15.95528 -0.007,3.86003 -3.76591,11.10503 -9.72194,18.73796 l -4.55622,5.83903 0.59397,6.3607 c 0.61494,6.58531 3.96573,14.64126 7.32052,17.59996 1.02195,0.90128 3.32059,1.94954 5.10809,2.32945 3.56654,0.75803 3.50887,0.69366 2.64301,2.95005 -0.75216,1.9601 -4.0238,1.97351 -7.60225,0.0312 z m -79.77882,-4.66694 c -2.83921,-3.04754 -6.01194,-13.85092 -6.01194,-20.47111 0,-7.14791 1.92208,-6.65961 3.64486,0.92597 1.98352,8.73369 5.17978,14.61827 9.48891,17.46992 4.53731,3.00265 4.19054,4.29278 -1.15383,4.29278 -2.74188,0 -4.51629,-0.65933 -5.968,-2.21756 z m 123.19249,-9.53244 c 0.2041,-0.4125 2.6041,-5.24515 5.33333,-10.73923 4.80049,-9.66362 4.96083,-10.26663 4.91888,-18.5 -0.0239,-4.68092 -0.59826,-10.1286 -1.27646,-12.10595 -1.79446,-5.23187 -4.79077,-6.40548 -16.34238,-6.40104 -5.41079,0.002 -9.8378,-0.3099 -9.8378,-0.69329 0,-0.3834 1.00013,-1.3976 2.22251,-2.25379 3.27298,-2.29248 19.91047,-2.18193 23.87272,0.15863 4.55668,2.69169 6.23358,8.43611 5.69115,19.49572 -0.52671,10.73911 -4.8556,23.51053 -9.74192,28.74136 -2.52909,2.7074 -5.81448,4.26699 -4.84003,2.29759 z M 237.26775,441.7837 c -4.70417,-2.26874 -2.4647,-3.37198 6.74984,-3.3252 6.09913,0.031 8.99989,0.41704 9,1.19786 3.9e-4,2.80066 -11.21319,4.31528 -15.74984,2.12734 z m 30.75,-3.15896 c 0,-2.75803 11.78367,-16.71853 20.12752,-23.84572 11.18086,-9.55054 36.0144,-20.04443 57.59746,-24.33893 13.78667,-2.74322 18.05665,-4.31568 26.655,-9.81598 11.42125,-7.30608 21.44894,-11.60955 34.00008,-14.59143 6.79255,-1.61376 14.7733,-3.85511 17.73501,-4.98079 6.43255,-2.44487 7.88493,-2.54277 7.88493,-0.53152 0,2.14421 -4.67614,4.01114 -18.76137,7.49038 -14.36929,3.5494 -20.19943,5.97288 -30.93347,12.85848 -11.03421,7.07816 -16.93223,9.47727 -37.42339,15.22259 -19.14614,5.36821 -31.93884,10.26341 -46.38177,17.74825 -6.75934,3.50293 -10.86721,6.54079 -16.5,12.2021 -4.125,4.14588 -8.625,9.20531 -10,11.24316 -2.90232,4.30146 -4,4.66902 -4,1.33941 z m -34.53513,-23.67739 c -1.47498,-2.38657 0.58156,-5.66035 4.73123,-7.53159 4.7614,-2.14709 13.28587,-2.40886 25.90857,-0.79559 8.76696,1.12047 11.7054,0.56307 15.97625,-3.03062 1.68989,-1.42195 3.713,-2.58536 4.49581,-2.58536 2.23662,0 1.66496,3.84922 -0.96178,6.47596 -3.90292,3.90292 -9.69064,4.94614 -20.61495,3.71579 -10.65207,-1.19968 -17.33118,-0.37393 -22.72723,2.80982 -3.78204,2.23145 -5.83521,2.51543 -6.8079,0.94159 z m 67.2018,-27.60983 c -0.36667,-0.36666 -0.66667,-1.23214 -0.66667,-1.92327 0,-3.77425 13.01415,-13.79591 15.14643,-11.66363 0.6854,0.6854 -0.48391,2.0898 -3.60792,4.3333 -2.54209,1.82559 -5.5399,4.80448 -6.6618,6.61976 -2.04253,3.30488 -2.96309,3.88079 -4.21004,2.63384 z M 189.51646,778.66986 c 6.11987,-1.5863 10.64444,-6.9104 13.12543,-15.4447 2.12056,-7.2945 1.36855,-22.68307 -1.62344,-33.22097 -2.76888,-9.75211 -9.81516,-24.58463 -15.39125,-32.39882 -9.49317,-13.30349 -24.93927,-24.60668 -33.60945,-24.59481 -14.01497,0.0192 -21.42942,10.68533 -21.19728,30.49363 0.36738,31.34803 25.21884,69.95697 48.63767,75.56287 4.35668,1.0429 4.52901,1.0361 10.05832,-0.3972 z m 324.31733,-5.3144 c 1.47618,-1.0674 3.97801,-4.5089 5.55962,-7.6478 7.45942,-14.80446 2.74771,-43.03096 -10.98354,-65.7991 l -4.89212,-8.11176 -5.28717,5.80649 c -11.40005,12.51978 -14.56472,26.37749 -10.30865,45.14031 1.1527,5.08168 2.09582,10.61206 2.09582,12.28986 0,3.3732 -2.9679,9.8693 -5.45029,11.9295 -1.42044,1.1788 -1.20276,1.5925 1.97409,3.7512 6.66952,4.532 9.5501,5.3581 17.29224,4.9591 5.19834,-0.268 8.09293,-0.9389 10,-2.3178 z m -297.07543,-7.6053 c 13.97981,-9.6206 17.25939,-15.75797 17.25939,-32.29925 0,-16.13786 -6.08772,-34.78441 -16.4407,-50.35752 -8.70631,-13.09616 -23.08502,-24.50859 -33.29416,-26.42569 -4.20191,-0.78905 -18.33182,3.23624 -28.26514,8.0521 l -7.5,3.63613 5.59136,0.67538 c 19.45379,2.34979 43.39178,30.92063 51.50488,61.47288 1.37086,5.16239 1.86136,10.54397 1.86845,20.5 0.01,13.58917 -0.028,13.78587 -4.27299,22.33307 -0.68092,1.371 5.82899,-2.2744 13.54891,-7.5871 z m 318.7075,-3.0623 c 15.14155,-10.2518 18.10462,-16.34599 17.30625,-35.59391 -0.56169,-13.54156 -3.33473,-23.48904 -10.33946,-37.08976 -4.77732,-9.27586 -14.56776,-22.7986 -15.92797,-22 -0.46839,0.275 -5.28007,5.05168 -10.69261,10.61484 l -9.84098,10.11484 3.66803,5.38516 c 5.08852,7.47063 11.83507,21.9392 14.40145,30.88516 3.95444,13.78454 3.71601,33.36087 -0.528,43.35107 -0.7588,1.7862 -0.66733,1.7899 2.60941,0.1055 1.86767,-0.9601 6.07242,-3.5579 9.34388,-5.7729 z m -99.32604,-9.3587 c -1.17884,-2.02718 -1.46351,-1.3783 -0.49853,1.1364 0.34294,0.8937 0.83419,1.4142 1.09166,1.1568 0.25747,-0.2575 -0.009,-1.2894 -0.59313,-2.2932 z M 248.22067,727.75419 c 1.69997,-1.34052 2.52338,-4.73629 3.45537,-14.25 l 0.58778,-6 -4.20802,4.75 c -2.91132,3.28629 -4.98113,4.75 -6.71687,4.75 -2.45067,0 -2.49228,0.12177 -1.79399,5.25 0.39318,2.8875 1.22291,5.58061 1.84384,5.98469 1.74426,1.13509 5.07768,0.8986 6.83189,-0.48469 z m 9.79708,-14.80902 c 0,-5.68487 -0.35514,-7.94164 -1.25,-7.94331 -0.92763,-0.002 -1.16648,2.19386 -0.92615,8.51337 0.40767,10.71959 2.17615,10.25633 2.17615,-0.57006 z m 58.79894,-5.20999 c 1.06062,-2.87704 2.22878,-7.58242 2.59591,-10.4564 0.88373,-6.91803 -0.8878,-20.59496 -3.82806,-29.55421 l -2.36959,-7.22038 -0.0986,26.80902 c -0.0603,16.40724 0.26428,26.58474 0.83666,26.23099 0.5144,-0.31791 1.80305,-2.93197 2.86368,-5.80902 z m 8.89748,2.84129 c 10.77737,-6.36534 17.55851,-12.58215 20.80358,-19.07228 2.86079,-5.72159 2.99481,-6.55683 2.88811,-18 -0.0926,-9.93315 -0.5762,-13.54397 -2.80768,-20.96416 -2.82885,-9.40659 -10.292,-25.55242 -12.05149,-26.07228 -0.56592,-0.1672 -5.66527,-0.52375 -11.33189,-0.79232 l -10.30295,-0.48831 0.35269,13.15853 c 0.31406,11.71731 0.65314,13.84395 3.09587,19.41638 4.90518,11.18991 6.87856,20.63407 6.946,33.24216 0.0486,9.08866 -0.36201,12.70567 -1.95837,17.25 -1.11093,3.1625 -1.88883,5.75 -1.72866,5.75 0.16017,0 2.90283,-1.54247 6.09479,-3.42772 z m -77.92495,-3.97657 c 2.44877,-2.48378 5.6244,-4.62488 7.38041,-4.97609 2.60702,-0.5214 2.98919,-0.96357 2.47882,-2.86803 -0.33186,-1.23837 -0.60954,-3.26409 -0.61705,-4.50159 -0.0181,-2.98257 -2.3983,-2.92253 -10.22555,0.25797 -3.88923,1.58034 -6.52281,2.15732 -7.12019,1.55994 -0.59738,-0.59738 -0.29756,-4.04769 0.81061,-9.32831 1.62815,-7.7584 1.63862,-8.61239 0.14112,-11.50824 -0.88965,-1.72039 -3.19301,-4.32965 -5.11859,-5.79836 -1.92558,-1.46871 -3.50105,-3.29197 -3.50105,-4.05169 0,-5.20111 11.12031,4.45412 13.54794,11.76302 1.30603,3.93208 2.00708,4.84946 3.30486,4.32468 0.90596,-0.36634 3.3347,-0.90599 5.3972,-1.19921 3.35818,-0.47743 3.75,-0.83909 3.75,-3.46133 0,-2.11302 -1.3398,-4.37306 -4.81271,-8.11833 -8.64756,-9.32571 -9.18729,-10.33191 -9.18729,-17.12731 0,-3.3921 1.12324,-12.89391 2.49608,-21.11514 2.97715,-17.82854 3.02829,-19.17075 0.75392,-19.78736 -6.9554,-1.88568 -7.21584,-1.82785 -14.89171,3.30608 -7.00969,4.68837 -7.9492,5.03359 -13.69867,5.03359 -3.39505,0 -7.71505,-0.4423 -9.59999,-0.9829 -1.88494,-0.54059 -3.60551,-0.80456 -3.82348,-0.58658 -0.21797,0.21797 1.6339,6.84777 4.11526,14.7329 5.66141,17.99041 5.96601,19.79548 4.75707,28.19024 l -0.987,6.85365 5.46149,7.14635 c 6.42939,8.41284 14.53217,23.73298 16.92526,32.00106 1.67431,5.78472 1.73206,5.84722 4.82981,5.22767 1.81458,-0.36291 4.94576,-2.46346 7.43343,-4.98668 z M 457.757,681.28845 c 4.25114,-8.89068 3.90309,-11.1012 -0.98119,-6.23161 -3.46021,3.44981 -6.80184,11.58864 -6.72479,16.37885 0.0315,1.95977 0.14424,1.93709 2.1445,-0.4315 1.16118,-1.375 3.66384,-5.74708 5.56148,-9.71574 z m 327.04628,7.86429 c 5.1626,-1.61738 10.129,-5.08251 11.7346,-8.18754 3.6285,-7.01665 4.4096,-27.03673 1.8997,-48.6867 -1.1969,-10.32442 -1.3196,-14.61764 -0.5057,-17.70218 2.5325,-9.59818 5.0859,-24.2902 5.0859,-29.26354 0,-9.33916 -3.6957,-14.87866 -11.8444,-17.7537 -7.0664,-2.49314 -15.8296,-2.90855 -24.1556,-1.14506 -4.125,0.87369 -11.325,1.57902 -16,1.56739 -10.1247,-0.0252 -13.3197,-1.26847 -23.8646,-9.28659 -7.4192,-5.64142 -24.8321,-13.84392 -32.2832,-15.20737 -2.0063,-0.36712 -6.1688,-0.14414 -9.25,0.49552 -6.6646,1.38356 -6.9682,2.47572 -2.6022,9.36017 3.4757,5.48067 3.6861,6.66105 1.1871,6.66105 -4.6854,0 -10.5588,-10.25043 -12.0624,-21.05181 -0.5702,-4.09651 -1.5505,-9.84178 -2.1784,-12.76729 -1.1744,-5.47136 -9.2103,-22.13465 -16.8384,-34.91576 l -4.3179,-7.23486 -2.4843,3.73486 c -1.3663,2.05417 -6.0873,7.38776 -10.49114,11.85241 l -8.00691,8.11755 2.74005,4.38245 c 1.50702,2.41035 4.25029,6.07125 6.0961,8.13533 1.8459,2.06409 3.3562,4.20159 3.3562,4.75 0,2.55149 -3.8179,0.47431 -8.9505,-4.86967 -7.02148,-7.31064 -9.31494,-8.17826 -12.89338,-4.87761 -7.67249,7.07689 -24.50977,15.69562 -35.75915,18.30452 -3.78832,0.87857 -7.01658,1.72613 -7.17392,1.88347 -0.48273,0.48272 7.91349,15.72781 11.87217,21.55641 4.05587,5.9717 17.19397,19.1585 34.14643,34.27299 7.83131,6.98226 12.24427,10.13928 16.28755,11.65205 6.933,2.59398 9.0278,2.59625 13.8438,0.015 6.016,-3.22439 12.0153,-3.44559 26.0186,-0.95932 19.0878,3.38902 31.2114,2.69692 47.6084,-2.71782 16.5665,-5.47071 21.4477,-6.09549 26.6976,-3.41717 5.1857,2.64552 10.3024,6.95436 10.3024,8.67575 0,2.31792 -3.8917,2.79106 -6.6743,0.81142 -6.1236,-4.35665 -7.9563,-5.3227 -10.1071,-5.32767 -1.2548,-0.003 -2.5556,0.70939 -2.8908,1.58285 -1.1207,2.92049 3.516,18.40934 8.7466,29.21814 4.7718,9.86059 5.1808,11.27808 5.2504,18.19375 0.096,9.50817 -2.0024,13.84304 -11.4434,23.64342 -3.9495,4.09984 -6.8814,8.01721 -6.8814,9.19424 0,2.965 3.947,6.92156 8,8.0194 4.4488,1.20506 34.4253,0.65747 38.7855,-0.70851 z m -16.268,-2.12016 c -2.1125,-3.41815 5.0847,-14.02839 9.5158,-14.02839 2.9452,0 2.3031,2.23991 -1.2899,4.5 -2.139,1.34543 -3.5415,3.28992 -4.2853,5.94125 -1.1309,4.03114 -2.7534,5.50809 -3.9406,3.58714 z m -114.83,-89.67422 c -0.3781,-0.37813 -0.6875,-1.97696 -0.6875,-3.55296 0,-1.57599 -0.675,-4.48095 -1.5,-6.45545 -1.8411,-4.40639 -1.8413,-4.34576 0.015,-4.34576 2.5189,0 5.5625,6.03321 5.2577,10.42228 -0.2591,3.72996 -1.5902,5.42659 -3.0849,3.93189 z m 134.7605,-8.60417 c -2.8627,-8.77515 -3.5941,-9.08099 -13.5101,-5.64935 -3.3385,1.15536 -6.295,1.8756 -6.5701,1.60055 -2.1407,-2.14077 12.4659,-8.52352 16.5438,-7.22924 3.7659,1.19524 7.056,4.694 8.116,8.63082 2.2955,8.52459 -1.8757,10.93569 -4.5796,2.64722 z m -166.00533,-7.16824 c -2.64829,-1.93648 -1.15758,-3.05806 3.60727,-2.71402 2.66639,0.19252 5.06534,-0.39392 7.32544,-1.79074 5.79372,-3.58073 21.70792,-2.25693 19.31982,1.60709 -0.3357,0.54312 -2.9919,0.80393 -5.9028,0.57957 -3.5887,-0.27662 -7.3463,0.25911 -11.6727,1.6642 -7.52015,2.44234 -10.05255,2.57297 -12.67703,0.6539 z m 79.90113,0.42909 c -6.1675,-1.29774 -14.2893,-5.04047 -15.3864,-7.09047 -1.657,-3.09607 0.7318,-3.18732 5.7786,-0.22074 4.5579,2.67923 5.3263,2.80036 17.764,2.80036 7.15,0 15.025,-0.41113 17.5,-0.91363 4.1302,-0.83856 4.3874,-0.77719 3.1301,0.74684 -2.9981,3.63429 -20.347,6.4534 -28.7863,4.67764 z M 257.86061,685.61022 c 0.32303,-1.70309 -0.0755,-1.82445 -3.95427,-1.20421 -5.06436,0.80983 -5.86303,1.3609 -3.85963,2.66307 2.46207,1.6003 7.40883,0.67673 7.8139,-1.45886 z m 443.82257,-20.85603 10.4706,-8.25 -0.6139,-10.5 c -0.3376,-5.775 -0.8313,-11.63438 -1.0971,-13.02085 -0.4823,-2.51561 -0.5826,-2.53725 -48.2042,-10.40315 -26.24644,-4.33527 -48.50833,-8.27922 -49.47083,-8.76434 -1.50314,-0.75761 -1.75,-2.39568 -1.75,-11.61248 l 0,-10.73044 -12.06891,-11.98437 c -9.03718,-8.97388 -13.58319,-14.43358 -18.09707,-21.73437 -3.31549,-5.3625 -6.24258,-9.75 -6.50465,-9.75 -0.26207,0 -0.15385,14.74134 0.24048,32.75854 0.64192,29.32933 0.54997,32.89713 -0.8784,34.08257 -3.31551,2.75163 -5.16932,1.0601 -5.48859,-5.00811 l -0.29713,-5.64757 -6.04409,-0.70149 c -3.32425,-0.38582 -6.399,-0.31504 -6.83279,0.15729 -0.43378,0.47232 -2.24232,5.80877 -4.01897,11.85877 -1.77666,6.05 -4.71904,15.11492 -6.53863,20.14428 l -3.30835,9.14427 19.16855,3.65608 c 10.5427,2.01085 43.46855,8.32207 73.16855,14.02494 29.70003,5.70287 54.83133,10.40521 55.84743,10.44965 1.016,0.0444 6.5591,-3.63172 12.318,-8.16922 z m -443.66543,-21.95 c 0,-21.12584 -0.66324,-23.50543 -3.53941,-12.69872 -1.70092,6.39089 -1.86762,16.22179 -0.41487,24.46506 1.31711,7.47362 1.64984,8.43366 2.9229,8.43366 0.67447,0 1.03138,-6.99021 1.03138,-20.2 z m -8.91067,8.13691 c -0.75806,-3.86513 -0.88432,-4.02862 -0.97976,-1.2687 -0.0603,1.74252 0.17102,3.89943 0.51397,4.79313 1.11111,2.89552 1.35821,1.02582 0.46579,-3.52443 z m 7.87334,-37.37024 c -1.18304,-1.18813 -1.52793,-0.75721 -2.34768,2.93333 l -0.66637,3 1.9717,-2.5 c 1.21594,-1.54174 1.61548,-2.85775 1.04235,-3.43333 z m 91.06364,2.62668 c 6.67022,-1.76994 33.74723,-15.093 60.86621,-29.94881 l 6.39253,-3.50183 -8.89253,-2.25859 c -4.89088,-1.24222 -13.14218,-4.09608 -18.3362,-6.3419 l -9.44368,-4.08332 -18.77273,8.91362 c -19.9776,9.48571 -27.32601,11.66995 -36.185,10.75562 -6.10154,-0.62973 -47.05382,-9.36699 -50.40491,-10.754 -2.45104,-1.01447 -2.99072,-4.12084 -1,-5.75598 0.88018,-0.72297 8.35056,0.56486 25.25,4.3529 24.50134,5.49201 30.94408,6.23026 38,4.35431 2.2,-0.58492 11.31955,-4.47669 20.26566,-8.64838 15.46567,-7.21185 16.18509,-7.67393 14.62754,-9.39501 -2.67132,-2.95177 -9.79792,-5.27093 -12.21768,-3.97591 -2.57253,1.37677 -28.00696,1.45342 -35.11286,0.10581 -7.71274,-1.46269 -11.52942,-3.6276 -19.61904,-11.1284 -8.76923,-8.13094 -12.11652,-9.18842 -18.81706,-5.94475 -5.29753,2.56449 -15.56519,14.34043 -17.29971,19.84096 -0.64523,2.04617 -1.20773,5.60709 -1.25,7.91315 -0.0435,2.37347 -1.0312,5.84485 -2.27621,8 -2.84102,4.91789 -12.33095,18.02289 -15.58913,21.52761 -1.9383,2.08497 -2.19999,2.83852 -1.12029,3.22588 1.17704,0.42228 59.05196,13.31192 66.90878,14.90162 5.62772,1.13868 26.62621,-0.19098 34.02631,-2.1546 z m 219.62291,-48.37733 c -0.75252,-32.66935 -0.61039,-32.07457 -7.9452,-33.24723 -5.14165,-0.82202 -11.85208,-4.62826 -14.45198,-8.19735 l -1.93187,-2.65203 -10.91009,5.80178 c -6.00054,3.19098 -11.08838,5.94491 -11.30629,6.11984 -0.21792,0.17494 1.39195,2.258 3.57749,4.62903 2.18554,2.37103 6.53217,8.19595 9.65919,12.94427 5.20467,7.90321 6.29748,8.95959 12.9225,12.49169 5.95692,3.1759 7.64793,4.64867 9.56,8.32618 1.94069,3.73257 2.2326,5.45517 1.77383,10.4678 -0.30202,3.3 -0.82937,7.19593 -1.17188,8.65763 -0.70083,2.99081 0.30671,3.52825 6.98581,3.72637 l 3.91072,0.116 -0.67223,-29.18398 z m -27.21829,-54.31602 c -0.36719,-2.2 -0.96941,-7.33022 -1.33826,-11.40048 -0.64592,-7.12765 -0.82502,-7.53343 -4.85804,-11.00693 -2.68116,-2.30918 -4.42071,-4.77301 -4.83602,-6.84952 l -0.64861,-3.24307 -12.55928,0 c -16.07248,0 -19.11939,1.26952 -24.13638,10.05663 -1.89511,3.31923 -5.82835,8.66793 -8.74053,11.88599 l -5.29488,5.85102 3.74054,1.49261 c 3.53563,1.41084 4.00505,1.3586 8.56953,-0.9537 3.8,-1.92503 5.1318,-2.19501 6.25,-1.26698 1.94255,1.61217 1.78739,4.63001 -0.29804,5.79708 -1.56252,0.87442 -1.49422,1.15505 0.75,3.08192 1.35797,1.16594 5.70052,4.34817 9.65011,7.07162 3.94959,2.72345 7.45157,5.3894 7.78217,5.92434 0.33687,0.54506 6.32325,-1.97551 13.61821,-5.73396 l 13.01711,-6.70657 -0.66763,-4 z m 41.50518,13.90511 c 15.26579,-3.70927 32.03154,-14.34486 46.5808,-29.5492 11.46462,-11.98083 18.28352,-22.94484 20.01702,-32.18499 0.7886,-4.20373 -1.2836,-8.5418 -10.2027,-21.35873 -5.62291,-8.08019 -6.48645,-9.94876 -7.16322,-15.5 -0.61828,-5.07145 -1.49667,-7.26091 -4.46877,-11.13879 -3.11551,-4.06496 -3.69924,-5.60641 -3.69924,-9.76848 0,-6.4704 -5.92674,-24.74026 -10.47711,-32.29689 -5.7384,-9.52956 -12.88942,-17.63782 -23.04255,-26.12707 -19.51682,-16.31843 -26.95543,-19.28882 -51.12698,-20.41601 l -16.14665,-0.75297 -13.85335,-6.57764 c -16.45096,-7.81099 -23.6665,-10.2711 -34.45951,-11.74887 -9.46946,-1.29655 -19.04639,-0.15807 -30.71678,3.65153 -10.29416,3.36035 -11.70825,4.29457 -6.55806,4.33259 8.80586,0.065 21.84186,3.02575 28.92184,6.56873 7.10204,3.55401 27.88152,18.37264 26.99969,19.25448 -0.26156,0.26156 -8.25268,-3.39468 -17.75805,-8.12497 -17.5987,-8.75789 -25.06903,-11.30876 -36.09432,-12.32503 -7.54659,-0.69561 -13.04865,0.72824 -17.65473,4.56877 l -3.46656,2.8904 5.96656,0.65344 c 17.2232,1.88624 34.30638,6.96668 45.47157,13.523 6.04928,3.5522 29.69246,24.91837 38.32566,34.63462 8.03433,9.04223 11.66933,23.33692 11.66933,45.88974 0,10.72073 -0.45795,15.02569 -2.40616,22.61901 -1.32338,5.15802 -2.73898,10.2112 -3.14577,11.22928 -0.69825,1.74756 -0.5737,1.76527 2.22748,0.31672 1.63191,-0.84389 6.76,-4.70581 11.39577,-8.58203 8.55404,-7.15251 11.92868,-8.63232 11.92868,-5.23081 0,2.39972 -8.34285,10.2 -18.60696,17.39687 -4.45883,3.12638 -9.36728,7.3367 -10.90767,9.35626 l -2.80072,3.67193 10.40768,-0.6997 c 16.91748,-1.13734 22.44048,-2.32308 31.09962,-6.67681 4.40826,-2.21643 8.27788,-3.767 8.59916,-3.44571 1.2993,1.2993 -8.617,9.94549 -14.54111,12.67863 -7.20878,3.32584 -7.78006,4.98255 -3.47546,10.07879 1.526,1.80664 3.35475,4.04055 4.06389,4.96425 0.70915,0.9237 1.49079,4.5237 1.737,8 0.2462,3.4763 1.18229,8.69336 2.0802,11.59346 1.96589,6.34951 8.24623,13.84733 12.67187,15.12839 5.05391,1.46292 15.48821,1.23392 22.60861,-0.49619 z m 11.82646,-17.9705 c -4.98871,-2.70684 -8.30794,-12.04672 -9.39441,-26.43461 -0.91833,-12.1614 -1.0598,-12.33438 -9.40217,-11.49658 -6.47407,0.65016 -7.00911,0.54437 -9.41507,-1.86159 -1.403,-1.40301 -2.56564,-3.35888 -2.58364,-4.34638 -0.0999,-5.4798 -1.96787,-15.49444 -3.48748,-18.69677 -2.00717,-4.2298 -4.28598,-5.56081 -13.81237,-8.06757 -3.75792,-0.98885 -7.07322,-2.42501 -7.36734,-3.19148 -0.29412,-0.76646 0.49502,-4.9574 1.75365,-9.3132 2.09114,-7.23689 2.17815,-8.41995 1.00936,-13.72304 -1.71254,-7.77021 -6.86066,-18.75994 -12.47132,-26.62257 -7.4723,-10.47149 -5.92439,-11.79028 3.24362,-2.7635 10.06634,9.91126 13.90569,19.77354 15.6597,40.22557 l 0.65547,7.6429 4.38962,1.67641 c 5.54618,2.11811 11.85767,9.47455 14.35414,16.73068 2.28955,6.65469 6.50702,15.0654 8.30097,16.55424 0.74322,0.61682 3.81583,1.93855 6.82801,2.93719 l 5.47669,1.81569 0.56043,7.5 c 0.69603,9.31481 2.22792,13.99665 6.83604,20.89265 6.93331,10.37563 6.78106,10.04398 5.10353,11.11714 -1.99753,1.27787 -2.99113,1.18625 -6.23743,-0.57518 z m -41.26257,-16.82692 c -6.15081,-1.93524 -8.5,-3.49478 -8.5,-5.64287 0,-2.37625 1.7593,-2.47123 8.40893,-0.454 6.36901,1.93211 13.90219,1.89677 17.73099,-0.0832 3.70532,-1.9161 6.11339,-1.19298 5.68022,1.70571 -0.76134,5.09478 -13.54967,7.54841 -23.32014,4.47433 z m 58.16667,-49.27436 c -1.51507,-1.51506 -0.41285,-4.66723 4.08333,-11.67762 2.6125,-4.07338 5.5333,-8.84145 6.49067,-10.59571 0.95737,-1.75426 2.19487,-2.90886 2.75,-2.56577 1.95268,1.20683 0.96907,5.63023 -3.01312,13.55041 -4.99667,9.93789 -8.17832,13.42126 -10.31088,11.28869 z"
       id="path3077"
       inkscape:connector-curvature="0" />
  </g>
</svg>
