<?xml version="1.0" encoding="UTF-8" standalone="no"?>
<!-- Created with Inkscape (http://www.inkscape.org/) -->

<svg
   xmlns:dc="http://purl.org/dc/elements/1.1/"
   xmlns:cc="http://creativecommons.org/ns#"
   xmlns:rdf="http://www.w3.org/1999/02/22-rdf-syntax-ns#"
   xmlns:svg="http://www.w3.org/2000/svg"
   xmlns="http://www.w3.org/2000/svg"
   xmlns:xlink="http://www.w3.org/1999/xlink"
   xmlns:sodipodi="http://sodipodi.sourceforge.net/DTD/sodipodi-0.dtd"
   xmlns:inkscape="http://www.inkscape.org/namespaces/inkscape"
   width="230.23566"
   height="111.31602"
   id="svg2"
   version="1.1"
   inkscape:version="0.48.3.1 r9886"
   sodipodi:docname="Lying-bicep-cable-curl-1.svg">
  <defs
     id="defs4">
    <radialGradient
       gradientUnits="userSpaceOnUse"
       gradientTransform="matrix(1,0,0,0.91819829,-19.285714,-7.9105395)"
       r="209.56604"
       fy="287.50052"
       fx="398.1105"
       cy="287.50052"
       cx="398.1105"
       id="radialGradient5255"
       xlink:href="#linearGradient5249"
       inkscape:collect="always" />
    <linearGradient
       id="linearGradient5249"
       inkscape:collect="always">
      <stop
         id="stop5251"
         offset="0"
         style="stop-color:#e3e3e3;stop-opacity:1;" />
      <stop
         id="stop5253"
         offset="1"
         style="stop-color:#e3e3e3;stop-opacity:0;" />
    </linearGradient>
  </defs>
  <sodipodi:namedview
     id="base"
     pagecolor="#ffffff"
     bordercolor="#666666"
     borderopacity="1.0"
     inkscape:pageopacity="0.0"
     inkscape:pageshadow="2"
     inkscape:zoom="2.8"
     inkscape:cx="73.793206"
     inkscape:cy="50.811507"
     inkscape:document-units="px"
     inkscape:current-layer="layer1"
     showgrid="false"
     showguides="true"
     inkscape:guide-bbox="true"
     fit-margin-top="0"
     fit-margin-left="0"
     fit-margin-right="0"
     fit-margin-bottom="0"
     inkscape:window-width="1217"
     inkscape:window-height="830"
     inkscape:window-x="378"
     inkscape:window-y="223"
     inkscape:window-maximized="0">
    <sodipodi:guide
       orientation="-0.70710678,0.70710678"
       position="-1814.7457,-88.572254"
       id="guide2985" />
  </sodipodi:namedview>
  <metadata
     id="metadata7">
    <rdf:RDF>
      <cc:Work
         rdf:about="">
        <dc:format>image/svg+xml</dc:format>
        <dc:type
           rdf:resource="http://purl.org/dc/dcmitype/StillImage" />
        <dc:title></dc:title>
      </cc:Work>
    </rdf:RDF>
  </metadata>
  <g
     inkscape:label="Ebene 1"
     inkscape:groupmode="layer"
     id="layer1"
     transform="translate(-386.17441,173.24035)">
    <path
       style="fill:#000000"
       d="m 423.84226,-64.360289 c -5.52039,-3.76399 -6.81415,-5.38278 -7.48756,-9.36869 -0.64978,-3.84599 -2.0785,-6.45585 -6.69576,-12.2312 -3.84359,-4.80763 -4.74384,-12.403347 -1.89819,-16.015631 2.87143,-3.64501 7.57525,-4.60655 10.41335,-2.12866 1.19249,1.04115 3.30005,2.45451 4.68347,3.14081 1.38342,0.68631 3.40842,2.915814 4.5,4.954454 1.38592,2.588347 2.76698,3.797507 4.57768,4.007887 2.84854,0.33096 33.80122,-14.986991 35.21064,-17.425141 0.99296,-1.71773 8.0091,-5.37613 10.31043,-5.37613 0.93156,0 4.43699,-1.51885 7.78984,-3.37521 5.58996,-3.09498 13.51019,-6.18709 21.0961,-8.23605 1.65,-0.44567 5.925,-0.87905 9.5,-0.96307 3.575,-0.084 8.86952,-0.4971 11.76561,-0.91795 4.31606,-0.62719 5.05937,-1.01368 4.12193,-2.14322 -0.8391,-1.01105 -0.85828,-2.50807 -0.072,-5.62127 0.5894,-2.33378 1.35709,-5.59323 1.70598,-7.24323 0.34888,-1.65 1.34402,-3.7875 2.21141,-4.75 1.42095,-1.57676 1.4228,-1.75 0.0186,-1.75 -0.85715,0 -8.4644,2.03423 -16.90499,4.5205 -16.91092,4.98131 -25.33643,7.37981 -81.84654,23.29932 -47.12164,13.27467 -44.29324,12.5599 -43.79585,11.06774 0.3183,-0.95491 43.49957,-13.65814 87.79585,-25.82812 6.45839,-1.77438 8.89833,-2.47115 41.5,-11.85117 l 17,-4.89118 3.67073,-5.4016 c 2.67699,-3.93929 3.38832,-5.74188 2.62755,-6.65854 -0.57374,-0.69132 -1.62557,-1.25695 -2.33739,-1.25695 -1.57177,0 -2.29911,-1.86882 -1.67049,-4.29213 0.39012,-1.50389 1.14975,-1.68943 4.72288,-1.15361 2.46023,0.36894 5.12083,0.17674 6.30165,-0.45522 3.05038,-1.63251 9.58724,0.7155 9.99662,3.59073 0.24613,1.72863 1.71613,2.64695 7,4.37294 3.67865,1.20165 7.10845,2.57162 7.62178,3.04438 2.12771,1.95956 -0.52602,1.74224 -7.43966,-0.60924 -8.40861,-2.85996 -7.99367,-2.77637 -7.99367,-1.61034 0,0.48813 3.15,1.9202 7,3.18238 3.85,1.26217 7,2.82611 7,3.47541 0,0.8633 -1.20592,0.78354 -4.48751,-0.29681 -4.05766,-1.33583 -5.11143,-1.30846 -11.00095,0.28576 -3.58239,0.96971 -6.91044,2.2587 -7.39568,2.86443 -0.79852,0.99679 -3.11586,10.38199 -3.11586,12.61916 0,0.50566 0.68308,0.65727 1.51796,0.33689 0.83488,-0.32037 2.86029,-0.0265 4.5009,0.65308 2.37315,0.98299 3.28991,0.98082 4.48452,-0.0106 0.86298,-0.7162 2.71909,-1.00269 4.36435,-0.67364 3.04617,0.60923 4.15988,-0.69662 11.36315,-13.32355 4.42304,-7.75333 7.13881,-10.07024 10.95929,-9.3497 4.06308,0.76629 6.80983,3.02165 6.80983,5.59156 0,1.22858 1.09305,2.34445 3.00249,3.06519 3.51136,1.32539 4.81378,4.30525 2.77348,6.34556 -1.07377,1.07376 -2.07454,1.18438 -4.0208,0.44441 -1.74425,-0.66316 -3.68029,-0.63301 -5.92319,0.0923 -5.40592,1.74807 -6.16484,2.3093 -7.16006,5.29497 -0.76843,2.30529 -0.6021,3.09364 0.88161,4.17855 2.87732,2.10395 7.08528,1.60748 9.85556,-1.1628 1.89339,-1.89338 3.54227,-2.49864 6.79546,-2.49442 6.16891,0.008 11.09007,1.61468 13.80836,4.50817 2.04052,2.17204 2.37281,3.55262 2.42575,10.07863 0.0595,7.33908 -0.0369,7.64973 -3.27227,10.54534 -2.11009,1.88849 -4.18468,2.87197 -5.65246,2.67963 -1.27536,-0.16713 -3.16668,0.46341 -4.20293,1.4012 -3.3725,3.05207 -14.00516,5.20932 -26.311,5.33821 -12.47127,0.13063 -19,0.98574 -19,2.48855 0,0.52508 -0.9,0.95469 -2,0.95469 -1.1,0 -2,0.59037 -2,1.31194 0,3.01253 -6.15197,5.954844 -14.13306,6.759424 -4.30816,0.43431 -8.37263,1.123147 -9.03215,1.530747 -0.65952,0.40761 -2.35465,0.87093 -3.76696,1.02962 -1.4123,0.15868 -6.39283,0.72245 -11.06783,1.25282 -14.53174,1.64859 -22.25865,4.26359 -28.08992,9.50639 -4.98448,4.48148 -12.22239,7.60906 -17.60903,7.60906 -1.93403,0 -9.1573,1.36364 -23.87961,4.5081 -1.14321,0.24417 -2.59606,1.57974 -3.22856,2.96792 -0.6325,1.38819 -1.65117,2.52398 -2.26371,2.52398 -0.61254,0 -2.25788,0.9 -3.6563,2 -3.40495,2.67833 -8.86317,2.44899 -13.27287,-0.5577 z m 16.09765,-4.4423 c 3.42657,-2.75 6.97621,-5 7.8881,-5 0.91188,0 3.65063,-0.66886 6.08611,-1.48636 2.43548,-0.8175 8.11429,-1.8896 12.61958,-2.38245 9.07442,-0.99267 15.83421,-3.74873 19.98754,-8.1492 4.50838,-4.77664 18.16058,-9.42851 24.76427,-8.43823 2.86267,0.42928 6.28842,0.0947 9.96011,-0.97264 5.30483,-1.542157 5.59613,-1.794987 5.58687,-4.849051 -0.0118,-3.89415 -3.90243,-12.5068 -6.82297,-15.10396 -1.67078,-1.48578 -2.98284,-1.74331 -6.2335,-1.22351 -4.41814,0.70649 -11.93376,4.13348 -11.93376,5.44158 0,0.43755 -1.9125,1.84526 -4.25,3.12825 -2.3375,1.28299 -4.925,2.88385 -5.75,3.55748 -0.825,0.67362 -3.18203,1.52613 -5.23785,1.89446 -2.08029,0.37272 -4.17324,1.48325 -4.71969,2.504294 -0.54002,1.00903 -2.00798,2.06973 -3.26215,2.3571 -2.79998,0.64159 -9.68057,3.389387 -20.45802,8.170047 -10.28013,4.56005 -18.71059,6.47459 -21.11804,4.79587 -0.93734,-0.65362 -3.07402,-1.8831 -4.74819,-2.73219 -1.67416,-0.84909 -3.87657,-2.99904 -4.89424,-4.77765 -2.87853,-5.030897 -5.7089,-7.733837 -8.09845,-7.733837 -1.9118,0 -2.27108,0.7068 -2.84606,5.598997 -0.53353,4.53952 -0.29695,6.19527 1.25022,8.75 1.04955,1.73305 3.36107,6.526 5.1367,10.651 5.57072,12.94139 7.5699,13.64313 17.09342,6 z m -9.52391,-4.85741 c -0.86556,-1.6738 -1.58805,-4.07812 -1.60554,-5.34293 -0.0175,-1.26481 -0.6925,-3.17317 -1.5,-4.24079 -1.69605,-2.24237 -1.88226,-3.55887 -0.50338,-3.55887 1.38497,0 2.9664,3.31574 4.63279,9.71344 1.67028,6.41264 1.24884,7.8241 -1.02387,3.42915 z m 6.34293,-1.22592 c -2.30673,-2.30673 -1.84836,-3.93479 0.54789,-1.94608 1.22358,1.01548 2.27997,0.94867 5.52417,-0.3494 4.96781,-1.98773 5.2538,-0.55185 0.45411,2.28003 -4.33249,2.55623 -3.98621,2.55541 -6.52617,0.0155 z m 21.64056,-12.31909 c 2.64941,-1.85572 14.37557,-6.59758 16.31518,-6.59758 2.84013,0 -0.24282,1.82261 -8.3496,4.93619 -8.69736,3.34041 -11.06891,3.83504 -7.96558,1.66139 z m 24.44277,-6.41356 c 0,-1.02165 4.10911,-2.408237 4.873,-1.64436 0.6363,0.6363 0.002,1.09662 -2.623,1.9035 -1.2406,0.38134 -2.25,0.26508 -2.25,-0.25914 z m 12,-0.58804 c 2.84702,-1.736807 7,-2.090387 7,-0.59598 0,0.55 -0.61875,1 -1.375,1 -0.75625,0 -2.89375,0.25225 -4.75,0.56055 l -3.375,0.56055 2.5,-1.52512 z m -5,-4.595977 c 0,-0.55 0.43247,-1 0.96104,-1 0.52858,0 1.87383,-0.979754 2.98944,-2.177234 1.11562,-1.19747 2.37065,-1.83419 2.78896,-1.41493 0.41831,0.41927 -0.50203,1.84902 -2.0452,3.17723 -2.96483,2.551844 -4.69424,3.073114 -4.69424,1.414934 z m 17,-5.522024 c 0,-0.89488 9.31496,-6.47798 10.80799,-6.47798 0.77904,0 -0.87321,1.575 -3.67167,3.5 -4.71444,3.24296 -7.13632,4.25361 -7.13632,2.97798 z m -89.49675,23.870661 c -5.04391,-10.36837 -5.30867,-13.48044 -1.67091,-19.640931 1.44981,-2.45525 1.46892,-2.90604 0.15825,-3.73469 -2.11164,-1.33504 -2.3915,-1.25758 -5.34457,1.47923 -2.11352,1.95875 -2.64602,3.366894 -2.64602,6.997121 0,3.78523 0.58209,5.18918 3.48261,8.3997 3.52035,3.8966 7.45505,11.35134 7.49543,14.20093 0.0283,1.9988 2.362,4.42989 2.84924,2.96817 0.19375,-0.58126 -1.75206,-5.38255 -4.32403,-10.66953 z m 32.49675,-7.56606 c 1.925,-0.5676 6.65,-2.59606 10.5,-4.50768 3.85,-1.91162 9.84296,-4.546797 13.31769,-5.855947 3.47473,-1.30915 7.47292,-3.288984 8.88486,-4.399614 1.41194,-1.11064 3.29398,-2.02031 4.18231,-2.02148 2.25109,-0.003 13.29589,-5.8491 15.11514,-8.00058 0.825,-0.97566 3.17456,-2.3599 5.22124,-3.07609 3.28503,-1.14952 3.6498,-1.6022 3.11174,-3.86168 -0.92441,-3.88194 -1.15762,-4.05951 -5.33155,-4.05951 -5.29707,0 -21.82443,8.40425 -23.09397,11.74341 -0.4991,1.31273 -0.90746,2.80749 -0.90746,3.32169 0,1.81437 4.65332,0.904 8,-1.5651 4.81842,-3.55492 5.14591,-3.04627 0.69965,1.08666 -2.99169,2.78087 -4.4812,3.46667 -7,3.22294 -2.94026,-0.2845 -3.18675,-0.58173 -3.04058,-3.66641 0.15413,-3.25266 0.0615,-3.33731 -2.98446,-2.72811 -1.72893,0.34579 -4.95051,2.39732 -7.15906,4.55897 -2.20855,2.16164 -6.26555,4.88939 -9.01555,6.06166 -2.75,1.17227 -9.40908,4.343804 -14.79796,7.047851 -5.38887,2.70404 -10.47793,4.91644 -11.30901,4.91644 -2.47545,0 -0.54055,1.90025 2.9062,2.85417 3.37232,0.93331 6.91495,0.63442 12.70077,-1.07159 z m 22,-17.568601 c 0,-1.51148 3.19141,-2.42257 4.36722,-1.24676 0.71037,0.71037 0.68371,1.03278 -0.0854,1.03278 -0.61502,0 -1.83002,0.27314 -2.7,0.60699 -0.87002,0.33384 -1.58182,0.15699 -1.58182,-0.39301 z m 61,8.286024 c 2.3383,-0.825 5.81437,-1.5 7.7246,-1.5 4.79916,0 9.35692,-2.394014 12.0254,-6.316454 2.796,-4.10988 2.81191,-5.89135 0.1026,-11.48804 -1.76741,-3.65099 -3.09742,-4.85609 -7.51611,-6.81024 -6.35122,-2.80881 -18.56404,-4.27123 -20.72088,-2.48122 -0.9465,0.78553 -3.74457,1.00987 -8.27292,0.66331 -3.76348,-0.28803 -6.28019,-0.27102 -5.59269,0.0378 0.6875,0.30882 1.25,2.0707 1.25,3.91529 0,3.23477 0.11695,3.33482 3.29542,2.81902 2.88202,-0.46768 3.74441,-0.0378 6.87442,3.42676 3.92418,4.34359 7.30271,12.98143 6.57218,16.802964 -0.25557,1.33694 -0.35866,2.4308 -0.22907,2.4308 0.12958,0 2.14875,-0.675 4.48705,-1.5 z m 4,-15.776954 c 0,-2.28086 -3.62887,-4.48292 -8.72908,-5.29697 -2.326,-0.37125 -4.9634,-1.21195 -5.8609,-1.86822 -1.50598,-1.10119 -1.50208,-1.32294 0.0505,-2.87553 0.92528,-0.92528 2.43768,-1.66736 3.3609,-1.64906 1.39112,0.0276 1.30241,0.3473 -0.51801,1.86704 l -2.19658,1.83376 4.96723,0.5883 c 8.55612,1.01334 13.25004,4.75353 10.01971,7.98385 -0.7917,0.79171 -1.09377,0.63065 -1.09377,-0.58317 z m -1.5,-7.21274 c -1.65,-0.74898 -3.85191,-1.63079 -4.89313,-1.95958 -1.04122,-0.32879 -1.65846,-0.83248 -1.37164,-1.1193 0.87001,-0.87001 9.62371,1.69368 10.85698,3.17967 1.5086,1.81776 -0.46089,1.77453 -4.59221,-0.10079 z m 29.19731,10.7551 c 4.60278,-0.56326 4.55301,-0.71269 -1.82222,-5.47089 -3.28451,-2.45142 -5.8458,-7.79452 -3.73642,-7.79452 1.58555,0 0.8833,-3.88782 -0.88867,-4.9199 -1.56287,-0.91029 -1.5094,-1.02253 0.5,-1.04969 1.2375,-0.0167 2.25,-0.21861 2.25,-0.44862 0,-0.23002 0.29463,-1.18602 0.65474,-2.12445 0.58944,-1.53605 0.36881,-1.51927 -2.21199,0.16822 l -2.86674,1.87444 2.40005,-3.25 c 1.32003,-1.7875 2.88218,-3.25 3.47145,-3.25 0.58927,0 1.63346,-0.9 2.32042,-2 1.08863,-1.74318 0.99869,-2 -0.70044,-2 -1.0722,0 -2.22757,0.45 -2.56749,1 -0.33992,0.55 -1.42617,1 -2.4139,1 -0.98772,0 -3.96874,2.11184 -6.62449,4.69299 -3.87579,3.76692 -5.48263,4.67444 -8.14292,4.59904 -1.90128,-0.0539 -3.05938,0.31853 -2.71636,0.87354 0.32887,0.53212 0.82583,0.7396 1.10436,0.46107 0.27853,-0.27853 1.02097,-0.0771 1.64987,0.44756 3.42912,2.86091 8.98752,5.9258 10.74687,5.9258 1.10998,0 1.73256,0.45636 1.38649,1.01631 -0.34546,0.55897 -1.08419,0.73444 -1.64162,0.38994 -0.55742,-0.34451 -0.30132,0.7508 0.5691,2.43403 0.87043,1.68322 1.5826,4.48089 1.5826,6.21705 0,2.61298 0.3014,3.03308 1.75,2.43918 0.9625,-0.3946 3.63879,-0.9486 5.94731,-1.2311 z m -13.19731,-21.26541 c -0.33992,-0.55 0.057,-1 0.88197,-1 0.825,0 1.77811,0.45 2.11803,1 0.33992,0.55 -0.057,1 -0.88197,1 -0.825,0 -1.77811,-0.45 -2.11803,-1 z m 37.85588,19.205 c 0.62926,-0.47527 2.90101,-0.9596 5.04833,-1.07628 5.70978,-0.31025 9.45079,-3.36977 10.25277,-8.38503 0.59339,-3.7109 0.7451,-3.88905 1.52243,-1.78772 0.47485,1.28364 0.59842,3.16867 0.27459,4.18896 -0.8862,2.79218 3.09123,2.40075 6.09145,-0.59947 3.29392,-3.29392 3.54407,-12.89064 0.43891,-16.83821 -3.65645,-4.64843 -15.99326,-6.78314 -18.59983,-3.21844 -1.74022,2.37988 -1.75917,3.51119 -0.0588,3.51119 1.45085,0 6.28823,4.71942 5.57175,5.43589 -0.24408,0.24408 -2.35764,-0.84158 -4.6968,-2.41258 -2.33917,-1.571 -6.03888,-3.15808 -8.22159,-3.52685 -2.18271,-0.36877 -4.26835,-1.15554 -4.63475,-1.74839 -0.3664,-0.59285 -1.22898,1.13381 -1.91683,3.83701 -0.68786,2.70321 -1.13077,5.03709 -0.98424,5.1864 0.14652,0.14932 1.34191,-0.12637 2.65641,-0.61264 1.69412,-0.62669 3.0752,-0.43516 4.74328,0.65781 1.91667,1.25585 2.72041,1.31264 4.33214,0.3061 1.77512,-1.10859 1.9452,-0.99835 1.6519,1.07071 -0.25676,1.81134 -0.8637,2.23999 -2.82696,1.99655 -1.375,-0.1705 -4.39252,-0.55172 -6.70561,-0.84717 -3.93403,-0.50248 -4.33739,-0.32102 -6.24626,2.81 -2.71081,4.44637 -2.78091,1.2988 -0.12547,-5.63351 1.05747,-2.76063 2.48993,-7.65098 3.18325,-10.86744 1.3809,-6.40624 4.07797,-10.65189 6.76667,-10.65189 0.95008,0 2.15531,-0.42789 2.6783,-0.95088 0.57099,-0.57099 2.45078,-0.61259 4.70532,-0.1041 5.09139,1.14829 5.82287,-0.57737 0.8162,-1.92553 -4.46516,-1.20234 -6.01919,-2.81453 -3.95052,-4.09837 1.12078,-0.69557 1.00465,-1.21039 -0.62188,-2.75697 -1.58224,-1.50446 -2.62665,-1.72183 -5,-1.04065 -2.41621,0.69348 -4.727,3.51855 -11.87479,14.51756 -8.51038,13.09578 -11.47484,20.01247 -11.58959,27.04085 -0.0753,4.61257 13.07082,10.7009 21.32026,9.87399 2.67073,-0.26771 5.37073,-0.87561 6,-1.3509 z m -5.85588,-4.205 c -0.99549,-1.1 -2.97773,-2.00689 -4.40499,-2.01531 -2.04269,-0.0121 -2.27575,-0.22164 -1.09501,-0.98469 0.825,-0.53316 2.7375,-0.97626 4.25,-0.98469 2.08844,-0.0116 2.75,0.46583 2.75,1.98469 0,2.22871 1.18064,2.50888 4.06574,0.96482 1.49267,-0.79885 1.93426,-0.70913 1.93426,0.39301 0,3.031 -4.95424,3.4552 -7.5,0.64217 z m -14.43709,-1.4242 c -1.1069,-1.33373 -0.84384,-5.66698 0.67237,-11.0758 0.5565,-1.98522 0.56579,-1.98538 1.25587,-0.0216 0.38237,1.08809 0.3379,3.5627 -0.0988,5.49912 -0.46156,2.04651 -0.3959,3.91894 0.15681,4.47165 0.52295,0.52299 0.95084,1.31088 0.95084,1.75088 0,1.27726 -1.65006,0.92658 -2.93709,-0.6242 z m 32.96605,-10.53674 c -0.80907,-0.51167 -1.13586,-1.2655 -0.72619,-1.67516 0.40967,-0.40967 1.50556,0.0159 2.43533,0.94562 1.80738,1.80739 0.72543,2.26921 -1.70914,0.72954 z m -14.52896,-3.03906 c -0.33992,-0.55 -0.16803,-1 0.38197,-1 0.55,0 1.27811,0.45 1.61803,1 0.33992,0.55 0.16803,1 -0.38197,1 -0.55,0 -1.27811,-0.45 -1.61803,-1 z m 10.21025,-7 c -0.28766,-1.1 -0.11514,-2 0.38337,-2 0.49851,0 0.90638,0.1882 0.90638,0.41821 0,0.23002 0.27314,1.13002 0.60699,2 0.33384,0.86999 0.16133,1.58179 -0.38337,1.58179 -0.5447,0 -1.22571,-0.9 -1.51337,-2 z m -58.57994,8.93026 c 1.38467,-0.74105 1.69853,-1.43238 1.02148,-2.25 -0.97295,-1.17495 -0.0379,-9.12744 1.22118,-10.38657 0.34487,-0.34486 0.62703,1.92298 0.62703,5.03964 0,5.21723 0.17846,5.6647 2.25,5.64188 1.2375,-0.0136 4.48376,-1.66286 7.2139,-3.66494 4.77026,-3.49815 4.87613,-3.67932 2.71386,-4.64415 -1.93131,-0.86178 -2.65606,-0.51969 -5.11635,2.41494 -1.57647,1.88042 -3.18761,3.10405 -3.58029,2.71918 -0.39269,-0.38487 0.19144,-3.08487 1.29806,-6 1.79964,-4.74071 4.3485,-14.14235 3.89627,-14.37162 -0.0965,-0.0489 -2.30919,0.53472 -4.91709,1.29698 -6.05411,1.76955 -9.18514,5.79465 -10.86274,13.96466 -0.97835,4.7646 -1.00249,6.77978 -0.1048,8.75 1.31796,2.89258 1.5621,2.97641 4.33949,1.49 z m 8.97047,-27.1016 c 1.86957,-0.64424 3.98724,-1.99424 4.70592,-3 0.71869,-1.00576 2.38504,-1.82866 3.703,-1.82866 1.91249,0 2.60252,-0.74691 3.41777,-3.69947 1.2236,-4.43151 -0.60047,-7.28519 -4.20261,-6.5748 -2.40316,0.47394 -3.4854,1.72409 -9.11074,10.52427 -3.91148,6.11904 -3.8181,6.40663 1.48666,4.57866 z m 0.89922,-12.80961 c 0,-1.10887 -4.79508,-2.5573 -5.64671,-1.70568 -0.30446,0.30446 -0.25694,1.03351 0.10559,1.6201 0.82758,1.33904 5.54112,1.41184 5.54112,0.0856 z"
       id="path3268"
       inkscape:connector-curvature="0" />
  </g>
</svg>
