<?xml version="1.0" encoding="UTF-8" standalone="no"?>
<!-- Created with Inkscape (http://www.inkscape.org/) -->

<svg
   xmlns:dc="http://purl.org/dc/elements/1.1/"
   xmlns:cc="http://creativecommons.org/ns#"
   xmlns:rdf="http://www.w3.org/1999/02/22-rdf-syntax-ns#"
   xmlns:svg="http://www.w3.org/2000/svg"
   xmlns="http://www.w3.org/2000/svg"
   xmlns:xlink="http://www.w3.org/1999/xlink"
   xmlns:sodipodi="http://sodipodi.sourceforge.net/DTD/sodipodi-0.dtd"
   xmlns:inkscape="http://www.inkscape.org/namespaces/inkscape"
   width="230.23566"
   height="111.31602"
   id="svg2"
   version="1.1"
   inkscape:version="0.48.3.1 r9886"
   sodipodi:docname="Dumbbell-front-raises-2-2.svg">
  <defs
     id="defs4">
    <radialGradient
       gradientUnits="userSpaceOnUse"
       gradientTransform="matrix(1,0,0,0.91819829,-19.285714,-7.9105395)"
       r="209.56604"
       fy="287.50052"
       fx="398.1105"
       cy="287.50052"
       cx="398.1105"
       id="radialGradient5255"
       xlink:href="#linearGradient5249"
       inkscape:collect="always" />
    <linearGradient
       id="linearGradient5249"
       inkscape:collect="always">
      <stop
         id="stop5251"
         offset="0"
         style="stop-color:#e3e3e3;stop-opacity:1;" />
      <stop
         id="stop5253"
         offset="1"
         style="stop-color:#e3e3e3;stop-opacity:0;" />
    </linearGradient>
  </defs>
  <sodipodi:namedview
     id="base"
     pagecolor="#ffffff"
     bordercolor="#666666"
     borderopacity="1.0"
     inkscape:pageopacity="0.0"
     inkscape:pageshadow="2"
     inkscape:zoom="2.8"
     inkscape:cx="73.793206"
     inkscape:cy="50.811507"
     inkscape:document-units="px"
     inkscape:current-layer="layer1"
     showgrid="false"
     showguides="true"
     inkscape:guide-bbox="true"
     fit-margin-top="0"
     fit-margin-left="0"
     fit-margin-right="0"
     fit-margin-bottom="0"
     inkscape:window-width="1217"
     inkscape:window-height="830"
     inkscape:window-x="378"
     inkscape:window-y="223"
     inkscape:window-maximized="0">
    <sodipodi:guide
       orientation="-0.70710678,0.70710678"
       position="-1814.7457,-88.572254"
       id="guide2985" />
  </sodipodi:namedview>
  <metadata
     id="metadata7">
    <rdf:RDF>
      <cc:Work
         rdf:about="">
        <dc:format>image/svg+xml</dc:format>
        <dc:type
           rdf:resource="http://purl.org/dc/dcmitype/StillImage" />
        <dc:title></dc:title>
      </cc:Work>
    </rdf:RDF>
  </metadata>
  <g
     inkscape:label="Ebene 1"
     inkscape:groupmode="layer"
     id="layer1"
     transform="translate(-386.17441,173.24035)">
    <path
       style="fill:#000000"
       d="m 423.96122,-64.399788 c -5.52039,-3.76399 -6.81415,-5.38278 -7.48756,-9.36869 -0.64978,-3.84599 -2.0785,-6.45585 -6.69576,-12.2312 -3.84359,-4.80763 -4.74384,-12.40335 -1.89819,-16.015632 2.91418,-3.69929 7.59524,-4.61593 10.41335,-2.03915 1.19249,1.09038 3.16007,2.28301 4.3724,2.6503 1.21233,0.36729 3.24317,2.556512 4.51298,4.864932 1.65247,3.00407 3.04214,4.28278 4.88876,4.49841 2.83593,0.33116 33.7925,-14.994382 35.19765,-17.425142 1.00979,-1.74685 8.02048,-5.37365 10.40653,-5.38357 0.98441,-0.004 5.25489,-1.98678 9.48994,-4.40598 10.18854,-5.82001 13.76489,-6.91661 19.83473,-6.08179 4.82731,0.66393 4.96517,0.77571 4.96517,4.02618 0,3.23056 0.11239,3.32505 3.33324,2.80238 2.97283,-0.48243 3.72609,-0.082 6.96637,3.70358 4.01448,4.69001 7.16212,12.76737 6.44241,16.532272 -0.25557,1.33694 -0.35866,2.4308 -0.22907,2.4308 0.12958,0 2.14875,-0.675 4.48705,-1.5 2.3383,-0.825 5.81437,-1.5 7.7246,-1.5 4.79916,0 9.35692,-2.394012 12.0254,-6.316452 3.48851,-5.12782 3.007,-5.99545 -4.5,-8.1085 -3.7125,-1.04498 -7.25336,-2.07731 -7.86858,-2.29407 -0.61522,-0.21675 -1.42894,0.64386 -1.80827,1.91246 -0.66368,2.21956 -0.72007,2.23112 -1.49493,0.30656 -0.4941,-1.22721 -0.37498,-2.28388 0.30827,-2.73469 0.73052,-0.48199 0.59758,-0.73886 -0.38649,-0.74683 -0.825,-0.007 -4.82676,-0.9982 -8.8928,-2.20338 -5.07015,-1.5028 -7.53964,-2.75276 -7.86019,-3.97852 -0.29985,-1.14665 -1.77206,-1.99391 -4.1072,-2.3637 -2.00189,-0.31703 -6.63389,-1.3036 -10.29332,-2.19239 l -6.65352,-1.61597 -24.34648,5.74334 c -35.08353,8.27622 -87.21664,19.47253 -88.1128,18.92346 -1.47068,-0.90108 0.2722,-2.1096 4.00526,-2.77728 9.42726,-1.68612 100.77659,-21.91181 103.88744,-23.00175 2.45232,-0.85922 0.15707,-5.68861 -3.50806,-7.38126 -4.37964,-2.02262 -5.02465,-2.81327 -4.36205,-5.34704 0.44846,-1.7149 1.01594,-1.85655 4.62743,-1.155 2.26396,0.43979 6.043,0.71416 8.39786,0.60972 4.55221,-0.20188 4.87596,1.1406 0.66147,2.74295 -1.97169,0.74963 -2.32797,1.52549 -2.15286,4.68831 0.19364,3.49785 0.4411,3.79003 3.20982,3.79003 1.66667,0 3.05556,-0.55556 3.125,-1.25 0.0687,-0.6875 0.18125,-2.09752 0.25,-3.13337 0.0687,-1.03585 1.1375,-2.20855 2.375,-2.606 1.81044,-0.58145 1.92475,-0.81072 0.58514,-1.17355 -2.05721,-0.55721 -3.27239,-3.33708 -1.45874,-3.33708 1.5545,0 4.6236,3.17518 4.6236,4.78343 0,1.51529 6.11842,2.5749 10.75,1.86173 l 3.75,-0.57743 -3,1.40073 c -2.84145,1.32669 -2.568,1.39659 5.174,1.32251 6.65313,-0.0636 8.85,0.32064 11.80716,2.06541 1.99824,1.17899 4.31386,2.14362 5.14582,2.14362 1.5867,0 9.83056,-5.31326 10.88102,-7.01294 1.16584,-1.88638 -2.25162,-0.97164 -6.08253,1.62808 -3.83194,2.60043 -3.88245,2.60605 -8.97744,1 -2.8181,-0.88833 -7.07176,-1.61514 -9.45259,-1.61514 -2.38082,0 -4.02898,-0.29979 -3.66257,-0.6662 1.14466,-1.14466 12.71359,-0.6469 15.13946,0.65139 1.98388,1.06174 2.73595,0.9207 5.33443,-1.00045 2.21643,-1.63867 3.91612,-2.10172 6.3591,-1.73241 1.83378,0.27722 4.46385,-0.072 5.84462,-0.77597 2.98847,-1.52371 20.16148,-0.54719 23.67378,1.34617 3.46184,1.86617 7.02002,1.38228 9.72483,-1.32253 1.89339,-1.89339 3.54227,-2.49865 6.79546,-2.49442 6.16891,0.008 11.09007,1.61467 13.80836,4.50817 2.04052,2.17203 2.37281,3.55262 2.42575,10.07862 0.0595,7.33908 -0.0369,7.64974 -3.27227,10.54535 -2.11009,1.88848 -4.18468,2.87197 -5.65246,2.67963 -1.27536,-0.16713 -3.16668,0.46341 -4.20293,1.4012 -2.71628,2.4582 -13.73149,5.13325 -21.46551,5.21291 -3.65998,0.0377 -6.44592,0.40604 -6.19098,0.81854 0.6486,1.04945 -1.48182,0.92561 -6.09103,-0.35408 -2.97146,-0.82499 -4.87141,-0.78438 -7.75,0.16564 -2.09741,0.69221 -3.81348,1.63653 -3.81348,2.0985 0,0.46197 -0.9,0.83994 -2,0.83994 -1.1,0 -2,0.59037 -2,1.31194 0,3.01253 -6.15197,5.954832 -14.13306,6.759412 -4.30816,0.43431 -8.37263,1.12315 -9.03215,1.53075 -0.65952,0.40761 -2.35465,0.87093 -3.76696,1.02962 -1.4123,0.15868 -6.39283,0.72245 -11.06783,1.25282 -14.53174,1.64859 -22.25865,4.26359 -28.08992,9.50639 -4.98448,4.48149 -12.22239,7.60907 -17.60903,7.60907 -1.93403,0 -9.1573,1.36364 -23.87961,4.5081 -1.14321,0.24417 -2.59606,1.57974 -3.22856,2.96792 -0.6325,1.38819 -1.83465,2.52398 -2.67144,2.52398 -0.83679,0 -1.52144,0.37777 -1.52144,0.83948 0,1.36953 -4.85028,3.16704 -8.29705,3.07488 -1.76162,-0.0471 -4.77795,-1.15952 -6.70295,-2.47206 z m 16.09765,-4.4423 c 3.42657,-2.75 6.97621,-5 7.8881,-5 0.91188,0 3.65063,-0.66886 6.08611,-1.48636 2.43548,-0.8175 8.11429,-1.8896 12.61958,-2.38245 9.07442,-0.99267 15.83421,-3.74873 19.98754,-8.1492 4.50838,-4.77664 18.16058,-9.42851 24.76427,-8.43823 2.86267,0.42928 6.28842,0.0947 9.96011,-0.97264 5.30483,-1.54216 5.59613,-1.79499 5.58687,-4.849052 -0.0118,-3.89415 -3.90243,-12.50681 -6.82297,-15.10396 -1.67078,-1.48578 -2.98284,-1.74331 -6.2335,-1.22351 -4.41814,0.70649 -11.93376,4.13348 -11.93376,5.44158 0,0.43755 -1.9125,1.84526 -4.25,3.12825 -2.3375,1.28299 -4.925,2.88385 -5.75,3.55748 -0.825,0.67362 -3.18203,1.52613 -5.23785,1.89446 -2.08029,0.37272 -4.17324,1.48325 -4.71969,2.504292 -0.54002,1.00903 -2.00798,2.06973 -3.26215,2.3571 -2.79998,0.64159 -9.68057,3.38939 -20.45802,8.17005 -10.28013,4.56005 -18.71059,6.47459 -21.11804,4.79587 -0.93734,-0.65362 -3.07402,-1.8831 -4.74819,-2.73219 -1.67416,-0.84909 -3.87657,-2.99904 -4.89424,-4.77765 -2.87853,-5.0309 -5.7089,-7.73384 -8.09845,-7.73384 -1.9118,0 -2.27108,0.7068 -2.84606,5.599 -0.53353,4.53952 -0.29695,6.19527 1.25022,8.75 1.04955,1.73305 3.36107,6.526 5.1367,10.651 5.57072,12.94139 7.5699,13.64313 17.09342,6 z m -9.52391,-4.85741 c -0.86556,-1.6738 -1.58805,-4.07812 -1.60554,-5.34293 -0.0175,-1.26481 -0.6925,-3.17317 -1.5,-4.24079 -1.69605,-2.24237 -1.88226,-3.55887 -0.50338,-3.55887 1.38497,0 2.9664,3.31574 4.63279,9.71344 1.67028,6.41264 1.24884,7.8241 -1.02387,3.42915 z m 6.34293,-1.22592 c -2.30673,-2.30673 -1.84836,-3.93479 0.54789,-1.94608 1.22358,1.01548 2.27997,0.94867 5.52417,-0.3494 4.96781,-1.98773 5.2538,-0.55185 0.45411,2.28003 -4.33249,2.55623 -3.98621,2.55541 -6.52617,0.0155 z m 21.64056,-12.31909 c 2.64941,-1.85572 14.37557,-6.59758 16.31518,-6.59758 2.84013,0 -0.24282,1.82261 -8.3496,4.93619 -8.69736,3.34041 -11.06891,3.83504 -7.96558,1.66139 z m 34.44277,-5.62037 c 0,-0.95958 4.77573,-2.97721 7.04705,-2.97721 3.53743,0 2.03643,1.52591 -2.54705,2.58933 -2.475,0.57423 -4.5,0.74877 -4.5,0.38788 z m -10,-0.84243 c 0,-1.17547 3.88025,-2.58787 4.74203,-1.72609 0.76897,0.76898 0.25205,1.19098 -2.49203,2.03447 -1.29441,0.39788 -2.25,0.26691 -2.25,-0.30838 z m 7,-5.13478 c 0,-0.55 0.43247,-1 0.96104,-1 0.52858,0 1.87383,-0.979752 2.98944,-2.177232 1.11562,-1.19747 2.37065,-1.83419 2.78896,-1.41493 0.41831,0.41927 -0.50203,1.84902 -2.0452,3.17723 -2.96483,2.551842 -4.69424,3.073112 -4.69424,1.414932 z m 17,-5.522022 c 0,-0.89488 9.31496,-6.47798 10.80799,-6.47798 0.77904,0 -0.87321,1.575 -3.67167,3.5 -4.71444,3.24296 -7.13632,4.25361 -7.13632,2.97798 z m -89.49675,23.870662 c -5.04391,-10.36837 -5.30867,-13.48044 -1.67091,-19.640932 1.44981,-2.45525 1.46892,-2.90604 0.15825,-3.73469 -2.11164,-1.33504 -2.3915,-1.25758 -5.34457,1.47923 -2.11352,1.95875 -2.64602,3.366892 -2.64602,6.997122 0,3.78523 0.58209,5.18918 3.48261,8.3997 3.52035,3.8966 7.45505,11.35134 7.49543,14.20093 0.0283,1.9988 2.362,4.42989 2.84924,2.96817 0.19375,-0.58126 -1.75206,-5.38255 -4.32403,-10.66953 z m 31.99675,-7.54507 c 2.2,-0.54772 7.15,-2.57277 11,-4.5001 3.85,-1.92734 9.84296,-4.57537 13.31769,-5.88452 3.47473,-1.30915 7.47292,-3.288982 8.88486,-4.399612 1.41194,-1.11064 3.29398,-2.02031 4.18231,-2.02148 2.25109,-0.003 13.29589,-5.8491 15.11514,-8.00058 0.825,-0.97566 3.17456,-2.3599 5.22124,-3.07609 3.28503,-1.14953 3.6498,-1.6022 3.11174,-3.86168 -0.92441,-3.88194 -1.15762,-4.05951 -5.33155,-4.05951 -5.29707,0 -21.82443,8.40425 -23.09397,11.74341 -0.4991,1.31273 -0.90746,2.80749 -0.90746,3.32169 0,1.81437 4.65332,0.904 8,-1.5651 4.81842,-3.55492 5.14591,-3.04627 0.69965,1.08666 -2.99169,2.78087 -4.4812,3.46667 -7,3.22294 -2.94026,-0.2845 -3.18675,-0.58173 -3.04058,-3.66641 0.15413,-3.25266 0.0615,-3.33731 -2.98446,-2.72811 -1.72893,0.34578 -4.95051,2.36981 -7.15906,4.49784 -2.64165,2.54533 -9.161,6.30145 -19.05429,10.978112 -8.2713,3.90993 -15.61036,7.10897 -16.30901,7.10897 -2.27111,0 -0.13835,1.94453 3.14698,2.86924 3.22052,0.90647 4.85173,0.764 12.20077,-1.06567 z m 22.5,-17.589592 c 0,-1.51148 3.19141,-2.42257 4.36722,-1.24676 0.71037,0.71037 0.68371,1.03278 -0.0854,1.03278 -0.61502,0 -1.83002,0.27314 -2.7,0.60699 -0.87002,0.33384 -1.58182,0.15699 -1.58182,-0.39301 z m 89.83179,-3.28427 c 1.3331,-0.0562 1.26645,-0.24292 -0.33179,-0.92971 -3.10388,-1.33378 -4.5,-1.14546 -4.5,0.60699 0,1.05452 0.5438,1.39831 1.58179,1 0.86998,-0.33385 2.33248,-0.63862 3.25,-0.67728 z m 27.56732,-2.76059 c 0.60549,-0.45554 2.85778,-0.92372 5.0051,-1.0404 5.70978,-0.31025 9.45079,-3.36977 10.25277,-8.38503 0.59339,-3.7109 0.7451,-3.88905 1.52243,-1.78773 0.47485,1.28365 0.59842,3.16868 0.27459,4.18897 -0.8862,2.79218 3.09123,2.40075 6.09145,-0.59948 3.29392,-3.29391 3.54407,-12.89063 0.43891,-16.8382 -3.65645,-4.64843 -15.99326,-6.78314 -18.59983,-3.21844 -1.74022,2.37988 -1.75917,3.51119 -0.0588,3.51119 1.45085,0 6.28823,4.71942 5.57175,5.43589 -0.24408,0.24408 -2.41357,-0.87914 -4.82109,-2.49605 -2.40752,-1.61691 -4.92597,-2.93984 -5.59656,-2.93984 -0.67058,0 -4.05502,-0.90592 -7.52096,-2.01315 -4.04984,-1.29377 -7.49114,-1.79001 -9.63027,-1.38871 -3.65768,0.68619 -4.10285,1.51437 -1.82856,3.40186 1.57415,1.30643 1.91487,3.75528 0.89301,6.41821 -1.15215,3.00246 -2.4872,1.60079 -1.82703,-1.91821 0.43737,-2.3314 0.27729,-3.5 -0.47944,-3.5 -0.62482,0 -1.56377,-1.125 -2.08654,-2.5 -0.52277,-1.375 -1.65109,-2.5 -2.50737,-2.5 -3.12922,0 -8.41314,2.92051 -12.27998,6.78735 -2.17946,2.17946 -4.5814,4.22554 -5.33765,4.54686 -0.75625,0.32131 2.06939,0.53466 6.2792,0.4741 6.0848,-0.0875 8.51859,0.34043 11.86993,2.08725 3.59619,1.87444 4.45527,1.99851 5.84579,0.84426 2.56087,-2.12573 6.95328,-3.73982 10.17713,-3.73982 1.67948,0 2.96606,-0.53907 2.98336,-1.25 0.0169,-0.69372 0.48401,-0.47121 1.04969,0.5 0.5606,0.9625 2.12192,1.75 3.46959,1.75 1.34767,0 2.45031,0.45 2.45031,1 0,0.5768 -3.1394,1 -7.41821,1 -8.23113,0 -10.58179,0.56601 -10.58179,2.54797 0,2.43946 -1.89076,2.55242 -6.2176,0.37144 -2.93622,-1.48003 -6.8758,-2.31759 -12.5324,-2.6644 -7.75575,-0.47551 -8.25,-0.38582 -8.25,1.49714 0,3.74765 -2.30619,4.48697 -7.55953,2.42344 -5.24007,-2.05832 -7.33485,-5.18843 -4.85155,-7.24939 1.11331,-0.92396 2.07013,-0.94695 3.94069,-0.0947 3.07317,1.40023 3.18332,0.56634 0.24002,-1.817 -1.53721,-1.24475 -4.02105,-1.83126 -7.99211,-1.88715 -5.10813,-0.0719 -5.95009,0.20636 -7.42214,2.45299 -1.5661,2.39017 -1.54889,2.68346 0.30295,5.16381 1.07985,1.44634 3.73598,3.17557 5.90252,3.84273 2.16653,0.66716 8.45204,2.60803 13.96779,4.31305 5.51575,1.70502 11.37812,3.10003 13.02749,3.10003 1.64937,0 3.9351,0.65577 5.07939,1.45726 3.2826,2.29922 25.90944,2.85921 28.76359,0.71186 z m -20.34363,-4.43093 c -1.88735,-1.19499 -5.25944,-2.24542 -7.49352,-2.33428 -4.25142,-0.16911 -5.70177,-1.47791 -2.77532,-2.50446 2.01967,-0.70846 7.66327,0.69592 11.26288,2.80272 2.27326,1.3305 2.96375,1.31912 6.37213,-0.10499 5.38735,-2.25097 8.57835,-2.10113 8.57835,0.40282 0,2.22871 1.18064,2.50888 4.06574,0.96482 1.51701,-0.81188 1.93426,-0.70813 1.93426,0.48094 0,2.60971 -4.81454,3.0771 -7.33226,0.71182 -2.34989,-2.2076 -5.2523,-2.06137 -9.17422,0.46223 -1.71358,1.10262 -2.50741,0.97392 -5.43804,-0.88162 z m 32.97348,-11.69913 c -0.80907,-0.51167 -1.13586,-1.2655 -0.72619,-1.67516 0.40967,-0.40967 1.50556,0.0159 2.43533,0.94562 1.80738,1.80739 0.72543,2.26921 -1.70914,0.72954 z m -50.52896,-3.03906 c -0.33992,-0.55 0.057,-1 0.88197,-1 0.825,0 1.77811,0.45 2.11803,1 0.33992,0.55 -0.057,1 -0.88197,1 -0.825,0 -1.77811,-0.45 -2.11803,-1 z m 7.69102,-2.0445 c 1.24877,-1.68905 2.42528,-2.6066 2.61448,-2.03901 0.44164,1.32494 -1.91662,4.50414 -3.59523,4.84675 -0.75105,0.1533 -0.34141,-1.01942 0.98075,-2.80774 z m 28.30898,2.0445 c -0.33992,-0.55 -0.16803,-1 0.38197,-1 0.55,0 1.27811,0.45 1.61803,1 0.33992,0.55 0.16803,1 -0.38197,1 -0.55,0 -1.27811,-0.45 -1.61803,-1 z m -11.25,-1.66228 c -0.6875,-0.27741 -1.25,-0.87476 -1.25,-1.32743 0,-1.02196 3.83152,-0.0919 4.5746,1.11042 0.57812,0.93542 -1.24868,1.05466 -3.3246,0.21701 z m 21.46025,-5.33772 c -0.28766,-1.1 -0.11514,-2 0.38337,-2 0.49851,0 0.90638,0.1882 0.90638,0.41821 0,0.23002 0.27314,1.13002 0.60699,2 0.33384,0.86999 0.16133,1.58179 -0.38337,1.58179 -0.5447,0 -1.22571,-0.9 -1.51337,-2 z m -54.83183,12.97638 c -2.68738,-1.45606 -7.87842,-2.1643 -7.87842,-1.07489 0,0.58322 1.2375,1.33334 2.75,1.66693 1.5125,0.33359 3.2,0.73143 3.75,0.88411 1.72747,0.47951 2.82285,-0.69353 1.37842,-1.47615 z m -23.64519,-3.14315 c -1.64675,-1.64675 -9.64005,-3.52742 -12.22315,-2.87587 -3.10663,0.78361 -1.8255,1.59914 3.98992,2.53989 2.475,0.40037 5.16539,1.09025 5.97864,1.53306 1.82911,0.99593 3.53948,0.0878 2.25459,-1.19708 z m 0.76677,-3.74143 c 0,-0.97347 -12.06013,-5.36501 -12.77375,-4.65139 -0.86026,0.86027 0.9442,2.55959 2.71796,2.55959 1.00439,0 3.34033,0.65739 5.19098,1.46086 3.98984,1.73222 4.86481,1.8457 4.86481,0.63094 z m -24.49884,-8.09367 c 0.63306,-1.02432 -3.41551,-2.99813 -6.14959,-2.99813 -2.32042,0 -1.02073,2.35613 1.72257,3.12274 3.52186,0.98417 3.74564,0.97787 4.42702,-0.12461 z"
       id="path3270"
       inkscape:connector-curvature="0" />
  </g>
</svg>
