<?xml version="1.0" encoding="UTF-8" standalone="no"?>
<!-- Created with Inkscape (http://www.inkscape.org/) -->

<svg
   xmlns:dc="http://purl.org/dc/elements/1.1/"
   xmlns:cc="http://creativecommons.org/ns#"
   xmlns:rdf="http://www.w3.org/1999/02/22-rdf-syntax-ns#"
   xmlns:svg="http://www.w3.org/2000/svg"
   xmlns="http://www.w3.org/2000/svg"
   xmlns:xlink="http://www.w3.org/1999/xlink"
   xmlns:sodipodi="http://sodipodi.sourceforge.net/DTD/sodipodi-0.dtd"
   xmlns:inkscape="http://www.inkscape.org/namespaces/inkscape"
   width="230.91824"
   height="204.72134"
   id="svg2"
   version="1.1"
   inkscape:version="0.48.3.1 r9886"
   sodipodi:docname="Lying-close-grip-triceps-press-to-chin-1.svg">
  <defs
     id="defs4">
    <radialGradient
       gradientUnits="userSpaceOnUse"
       gradientTransform="matrix(1,0,0,0.91819829,-19.285714,-7.9105395)"
       r="209.56604"
       fy="287.50052"
       fx="398.1105"
       cy="287.50052"
       cx="398.1105"
       id="radialGradient5255"
       xlink:href="#linearGradient5249"
       inkscape:collect="always" />
    <linearGradient
       id="linearGradient5249"
       inkscape:collect="always">
      <stop
         id="stop5251"
         offset="0"
         style="stop-color:#e3e3e3;stop-opacity:1;" />
      <stop
         id="stop5253"
         offset="1"
         style="stop-color:#e3e3e3;stop-opacity:0;" />
    </linearGradient>
  </defs>
  <sodipodi:namedview
     id="base"
     pagecolor="#ffffff"
     bordercolor="#666666"
     borderopacity="1.0"
     inkscape:pageopacity="0.0"
     inkscape:pageshadow="2"
     inkscape:zoom="1.4"
     inkscape:cx="28.631432"
     inkscape:cy="-30.280772"
     inkscape:document-units="px"
     inkscape:current-layer="layer1"
     showgrid="false"
     showguides="true"
     inkscape:guide-bbox="true"
     fit-margin-top="0"
     fit-margin-left="0"
     fit-margin-right="0"
     fit-margin-bottom="0"
     inkscape:window-width="1201"
     inkscape:window-height="886"
     inkscape:window-x="166"
     inkscape:window-y="73"
     inkscape:window-maximized="0">
    <sodipodi:guide
       orientation="-0.70710678,0.70710678"
       position="-2320.5334,318.27993"
       id="guide2985" />
  </sodipodi:namedview>
  <metadata
     id="metadata7">
    <rdf:RDF>
      <cc:Work
         rdf:about="">
        <dc:format>image/svg+xml</dc:format>
        <dc:type
           rdf:resource="http://purl.org/dc/dcmitype/StillImage" />
        <dc:title></dc:title>
      </cc:Work>
    </rdf:RDF>
  </metadata>
  <g
     inkscape:label="Ebene 1"
     inkscape:groupmode="layer"
     id="layer1"
     transform="translate(-891.96185,-140.20651)">
    <path
       style="fill:#000000"
       d="m 993.70948,342.8854 c -4.3161,-2.61007 -4.8436,-3.48132 -4.8622,-8.03076 -0.015,-3.71541 0.045,-3.77003 9.1024,-8.31916 l 9.11772,-4.57919 -0.405,-15.91508 c -0.4619,-18.14991 0.5756,-16.07946 -11.62252,-23.19369 -4.0106,-2.33911 -10.3106,-6.15579 -14,-8.48152 -3.6894,-2.32573 -7.5329,-4.23823 -8.5413,-4.25 -1.0083,-0.0118 -11.4113,4.4786 -23.11775,9.9786 -11.70645,5.5 -21.76822,10 -22.3595,10 -0.59128,0 -2.69808,-0.95761 -4.68178,-2.12802 -3.38814,-1.99905 -3.58857,-2.39902 -3.30716,-6.59965 l 0.29956,-4.47163 8.75,-4.48666 c 9.94719,-5.10053 9.43776,-3.87612 8.1164,-19.5077 -0.62337,-7.37455 -0.69191,-7.52525 -4.25,-9.34474 -1.98902,-1.01712 -5.09853,-3.21937 -6.91002,-4.8939 -2.76776,-2.55849 -3.44984,-2.80694 -4.27211,-1.55614 -0.94667,1.44004 -0.69169,11.64662 0.6178,24.72959 0.61676,6.16207 0.58871,6.25501 -2.21369,7.33503 -4.27481,1.64747 -9.36186,0.55956 -18.01867,-3.85343 -6.56766,-3.348 -7.96812,-4.50352 -8.74658,-7.2168 -0.80989,-2.82283 -0.62059,-3.46595 1.5,-5.096 1.33478,-1.02601 3.6432,-1.87548 5.12982,-1.88771 4.05575,-0.0334 7.7742,-2.08302 8.41566,-4.6388 0.31386,-1.25052 0.0715,-4.60114 -0.53857,-7.44582 -0.61007,-2.84468 -1.07288,-11.53187 -1.02845,-19.30488 0.0849,-14.85434 0.72216,-17.37092 4.97516,-19.64705 2.78419,-1.49006 16.35877,0.45421 20.58637,2.94855 1.77081,1.04481 3.48228,1.63702 3.80327,1.31604 0.32099,-0.32099 0.58361,-2.45517 0.58361,-4.74263 0,-5.8187 3.24428,-8.79654 9.44795,-8.67202 2.50082,0.0502 5.3986,0.54706 6.43951,1.10414 1.69043,0.90469 1.96307,0.54261 2.55283,-3.39019 1.74734,-11.65208 13.39151,-18.78698 20.23614,-12.39958 2.7619,2.57743 6.3236,8.91446 6.3236,11.25114 0,0.81446 0.4356,1.75009 0.9681,2.07919 1.2514,0.77341 17.01882,-8.61326 17.02622,-10.13609 0,-0.63567 2.0307,-2.49708 4.5057,-4.13646 5.1246,-3.3944 12.8293,-5.00923 15.0615,-3.15672 1.1141,0.92465 2.1104,0.91327 4.4376,-0.0507 1.6505,-0.68366 3.017,-1.52592 3.0368,-1.87169 0.02,-0.34578 1.0893,-1.91646 2.3767,-3.4904 1.5965,-1.95186 3.7311,-3.11813 6.714,-3.6682 4.4074,-0.81277 10.1722,-0.26288 9.4528,0.90167 -0.2135,0.34554 3.3224,0.67726 7.8574,0.73716 4.535,0.0599 9.827,0.40561 11.76,0.76823 l 3.5144,0.65932 0.6526,-6.26823 c 1.5505,-14.89441 10.3284,-23.08148 19.6042,-18.28477 2.5467,1.31693 6.3502,7.55006 8.3796,13.73212 0.5852,1.7827 1.0941,1.71074 11.3415,-1.60366 1.6558,-0.53557 2.47,-0.18301 3.3426,1.44738 1.5496,2.89548 0.3855,3.93608 -7.2863,6.51317 l -6.1696,2.07247 -0.3135,5.42753 c -0.4138,7.16368 -2.6615,13.79215 -6.0287,17.77877 -2.392,2.83195 -3.4033,3.26216 -8.0923,3.44258 -5.0066,0.19263 -5.5502,-0.0232 -8.2753,-3.28645 -1.6043,-1.92095 -3.6492,-5.81596 -4.5443,-8.65558 -1.8351,-5.82182 -2.0428,-5.91883 -15.0416,-7.0255 -3.971,-0.33807 -6.9819,-0.99979 -6.691,-1.47049 0.6385,-1.03315 8.1856,-1.02128 14.5129,0.0228 5.8312,0.96222 17.6764,-2.43349 15.6294,-4.48051 -0.331,-0.33103 -2.9709,0.18499 -5.8664,1.14672 -4.6585,1.5473 -6.3125,1.61149 -14.3677,0.55763 -9.9399,-1.30045 -13.0796,-0.82946 -11.8432,1.77658 0.423,0.89153 0.8876,4.09596 1.0324,7.12096 0.1449,3.025 0.9961,9.325 1.8917,14 0.8956,4.675 1.7653,12.325 1.9327,17 0.1675,4.675 0.796,10.07203 1.3968,11.9934 0.6007,1.92137 1.0923,5.99786 1.0923,9.05887 0,3.34543 0.5856,6.33978 1.4682,7.5066 1.7181,2.27154 1.9766,7.74142 0.4966,10.50687 -1.7945,3.353 -2.6884,2.11283 -2.1931,-3.04245 0.3246,-3.37811 -0.044,-6.0767 -1.1467,-8.40113 -0.8938,-1.88343 -1.625,-4.59391 -1.625,-6.02329 0,-1.59613 -0.556,-2.59887 -1.441,-2.59887 -2.5584,0 -2.7115,-1.82669 -1.0074,-12.01806 0.9207,-5.50612 1.3893,-11.01705 1.0412,-12.24653 -1.4784,-5.22305 -3.6189,-19.20305 -4.0193,-26.25202 -0.2377,-4.18451 -0.9691,-8.25512 -1.6253,-9.0458 -0.7281,-0.87723 -3.0264,-1.43759 -5.8964,-1.43759 -3.7635,0 -5.1876,0.51574 -7.1275,2.58139 l -2.4243,2.58139 2.6557,-0.66614 c 2.1272,-0.53358 2.785,-0.25881 3.3054,1.38084 0.3573,1.12584 0.1847,2.91572 -0.3835,3.97752 -0.8335,1.55744 -0.6027,2.21651 1.1946,3.41021 2.0277,1.34677 2.1975,2.14229 1.8911,8.85723 -0.6141,13.45718 -0.5922,16.3534 0.1445,19.12756 1.147,4.3193 2.8069,3.31993 2.0762,-1.25 -0.4286,-2.68029 -0.2676,-4 0.4882,-4 0.6203,0 1.1278,0.86247 1.1278,1.91659 0,1.05413 1.132,2.74163 2.5156,3.75 2.2735,1.65701 2.4532,2.28822 1.8672,6.56037 -0.7643,5.57222 -2.3828,5.37797 -2.3828,-0.28598 0,-4.87151 -1.1843,-4.99695 -4.0101,-0.42472 -2.2134,3.58146 -2.3401,8.37144 -0.4555,17.22464 0.6105,2.86794 0.9935,3.17657 3.3277,2.68187 2.4775,-0.52504 2.5254,-0.46773 0.7877,0.94257 -1.0257,0.83247 -1.5278,2.02307 -1.1268,2.67185 0.3977,0.64365 -0.4144,0.4249 -1.8047,-0.4861 -1.3904,-0.911 -2.7829,-2.67208 -3.0944,-3.91351 -0.4773,-1.90153 -1.1619,-2.22133 -4.3452,-2.02981 -2.0783,0.12504 -5.6912,0.91948 -8.0287,1.76543 -2.3375,0.84594 -4.25,1.14554 -4.25,0.66577 0,-0.47976 0.5625,-1.1348 1.25,-1.45564 1,-0.46666 1,-0.7 0,-1.16666 -0.6875,-0.32084 -1.25,-1.17269 -1.25,-1.89301 0,-1.11824 -2.0348,-2.52366 -3.6538,-2.52366 -0.9227,0 0.9226,11.49887 1.9512,12.15925 0.647,0.41534 0.412,1.27422 -0.6353,2.32143 -1.0699,1.06994 -1.6676,3.32917 -1.6774,6.34075 -0.01,2.57321 -0.4357,5.34329 -0.9495,6.15573 -0.6254,0.989 -0.4781,1.98103 0.4458,3.00183 1.9939,2.20328 3.5922,6.85774 2.5714,7.4886 -0.4791,0.29611 -1.8066,-1.39405 -2.95,-3.75592 -1.7415,-3.59744 -1.9974,-5.56437 -1.5769,-12.1207 0.2761,-4.30451 0.7513,-8.22989 1.0561,-8.72307 0.3048,-0.49317 0.061,-3.27406 -0.5426,-6.17976 -0.8502,-4.09558 -0.7845,-6.84582 0.2926,-12.23561 0.7641,-3.82389 1.4876,-12.72458 1.6078,-19.7793 0.1813,-10.6382 0.5498,-13.38805 2.1595,-16.11633 3.1111,-5.27288 0.01,-10.88857 -5.461,-9.88838 -4.4439,0.81245 -12.6634,5.65515 -10.388,6.12034 1.1579,0.23673 1.9589,1.66515 2.3679,4.22271 0.3399,2.12573 1.24,4.10362 2.0001,4.39531 2.5407,0.97497 1.5797,8.05314 -2.2115,16.28772 -3.2694,7.10113 -3.5473,8.39188 -3.0804,14.3054 0.5097,6.45491 -0.4094,11.46605 -3.84172,20.94634 -0.8854,2.44548 -1.5447,6.94548 -1.4652,10 0.079,3.05451 0.094,6.45366 0.032,7.55366 -0.233,4.14968 -2.1069,-1.28766 -2.725,-7.90706 -0.5156,-5.5216 -0.2854,-6.99739 1.5867,-10.17039 1.2045,-2.04136 1.9612,-4.30762 1.6816,-5.03612 -0.2795,-0.72851 0.1445,-2.57598 0.9423,-4.1055 2.13372,-4.09046 1.91622,-6.63272 -0.513,-5.99746 -1.0868,0.28421 -3.6743,0.13058 -5.75,-0.34139 -5.6665,-1.28843 -10.9863,0.71816 -16.524,6.23262 -4.27695,4.25897 -4.75003,5.18299 -4.75003,9.27768 0,2.50119 0.38115,4.54762 0.84699,4.54762 0.46584,0 1.92834,0.88866 3.25004,1.97479 2.8119,2.31084 2.5578,2.05706 8.6597,8.6508 2.6088,2.81907 6.7683,6.37132 9.2433,7.89388 2.475,1.52257 6.24742,4.3315 8.38312,6.24209 3.5895,3.21109 4.2323,3.42604 8.5,2.84238 2.5393,-0.34728 4.7669,-1.07523 4.9502,-1.61768 0.1833,-0.54244 1.7583,-0.98877 3.5,-0.99184 1.7417,-0.003 4.8849,-0.48269 6.9849,-1.06583 2.7074,-0.75183 4.1948,-0.74766 5.113,0.0143 1.0125,0.84032 1.1951,0.55322 0.8376,-1.31695 -0.7059,-3.69253 1.6135,-4.26201 2.8549,-0.70097 0.5895,1.69126 1.7029,3.07501 2.4741,3.07501 0.7712,0 1.4022,0.45 1.4022,1 0,0.55 -0.9368,1 -2.0816,1 -1.7619,0 -1.4422,0.6144 2.0816,4 3.5488,3.40968 4.8021,4 8.4927,4 6.0083,2e-5 9.5073,-4.04599 9.5073,-10.9938 0,-8.29526 -6.0568,-19.05066 -11.4971,-20.41608 -1.7096,-0.42908 -2.5029,-1.31671 -2.5029,-2.80028 0,-1.8906 0.162,-1.97293 1.25,-0.63532 0.6875,0.84521 2.6487,2.08439 4.3582,2.75372 3.391,1.3277 5.9366,4.31902 9.3214,10.95376 1.8415,3.60967 2.0805,5.20887 1.4876,9.95381 -0.715,5.72279 -3.9344,12.14915 -6.0977,12.17183 -0.6492,0.007 -1.3242,1.02488 -1.5,2.26238 -0.3742,2.63471 -12.6738,9.5373 -22.0695,12.38547 l -5.75,1.74303 -0.05,4.06075 c -0.028,2.23341 -0.2157,5.97325 -0.4178,8.31075 -0.454,5.24891 0.3393,5.35336 8.6802,1.14289 6.0601,-3.05909 6.2026,-3.08022 9.2215,-1.36694 4.5121,2.56065 5.5667,4.34565 5.5628,9.41518 l 0,4.55887 -16.7465,7.88228 c -9.2105,4.33525 -19.9515,9.36024 -23.8689,11.16664 l -7.12252,3.28437 -3.3775,-2.04249 z m 26.72792,-11.14128 21.8946,-10.35048 0.304,-3.54296 c 0.254,-2.96044 -0.1824,-3.88933 -2.6544,-5.64953 -1.6271,-1.1586 -3.4474,-2.10655 -4.0452,-2.10655 -0.5978,0 -4.2368,1.40845 -8.0867,3.12988 l -6.9998,3.12989 0.6401,4.00314 c 0.5083,3.17906 0.3521,3.90399 -0.759,3.52148 -1.123,-0.38662 -1.352,-3.17515 -1.1606,-14.13302 0.1311,-7.50826 0.1311,-13.6516 0,-13.65187 -0.1311,-2.8e-4 -2.6723,-0.92556 -5.647,-2.05618 l -5.4086,-2.05567 0.6489,14.99122 c 0.7529,17.39535 1.4649,15.98911 -11.17052,22.06432 -6.296,3.0272 -7.1612,3.77353 -7.1612,6.17742 0,2.73541 3.9095,6.87939 6.4902,6.87939 0.6713,0 11.07312,-4.65772 23.11522,-10.35048 z m 8.8946,-40.06279 c 9.3036,-3.45914 22.1538,-11.6165 15.5992,-9.90243 -3.4395,0.89946 -10.9115,-3.22279 -12.7215,-7.01836 l -1.6492,-3.45844 -7.6143,0.20985 c -4.1878,0.11542 -8.5972,0.74373 -9.7985,1.39625 -4.0507,2.20015 -9.5612,1.43002 -14.7659,-2.0636 -2.66292,-1.7875 -6.27242,-4.15 -8.02122,-5.25 -5.4906,-3.45374 -11.1825,-8.87097 -12.9562,-12.33105 -1.2479,-2.43431 -2.1605,-3.15578 -3.39,-2.67997 -5.57754,2.15847 -10.80868,1.07614 -14.12771,-2.92304 -0.71478,-0.86127 -2.31807,-1.56594 -3.56286,-1.56594 -1.24478,0 -3.55218,-0.67223 -5.12755,-1.49384 -1.57537,-0.82161 -3.53931,-1.5228 -4.36431,-1.5582 -3.01623,-0.12943 -12.52268,-5.51055 -13.58393,-7.68917 -0.60046,-1.23267 -2.96471,-3.598 -5.2539,-5.25628 -2.2892,-1.65828 -4.16217,-3.4464 -4.16217,-3.9736 0,-0.5272 -0.89541,-1.43775 -1.98981,-2.02346 -2.41698,-1.29353 -7.01019,1.26016 -7.01019,3.89747 0,2.00318 17.74157,14.16986 39,26.74513 2.475,1.46407 7.875,4.76227 12,7.32933 4.125,2.56707 11.55003,6.82163 16.50003,9.4546 4.95,2.63296 10.4324,5.86289 12.1832,7.17761 1.7508,1.31473 3.55082,2.39235 4.00002,2.39471 0.4492,0.002 3.2662,1.86124 6.2599,4.13083 2.9937,2.26959 7.4591,5.19843 9.9231,6.50854 4.6682,2.4821 7.838,2.46977 14.6338,-0.0569 z m -13.068,-8.87689 c -6.3775,-2.78082 -11.2224,-5.94639 -9.8176,-6.41465 0.5905,-0.19682 3.2813,0.63319 5.9796,1.84447 8.2875,3.72033 11.7709,4.82961 15.215,4.84528 1.9482,0.009 3.0548,0.42629 2.691,1.01506 -1.0648,1.72282 -8.781,1.01517 -14.068,-1.29016 z m -68.18205,-4.42348 c 11.4125,-5.34414 20.75,-10.00461 20.75,-10.3566 0,-0.35199 -2.59859,-2.46278 -5.77464,-4.69066 -5.35401,-3.75562 -5.95496,-3.95086 -8.25,-2.68033 -1.36145,0.7537 -3.03786,1.38631 -3.72536,1.40579 -2.17882,0.0618 -1.35129,-1.59738 1.42842,-2.8639 l 2.67841,-1.22037 -8.26781,-5.44014 c -4.54729,-2.99208 -8.34723,-5.44015 -8.4443,-5.44015 -0.0971,0 -0.008,4.92098 0.19781,10.93551 l 0.3743,10.93552 -9.10841,4.57452 c -8.67833,4.35852 -9.10842,4.72838 -9.10842,7.83287 0,2.47456 0.66151,3.66848 2.75,4.96335 1.5125,0.93776 2.975,1.71766 3.25,1.73311 0.275,0.0154 9.8375,-4.34438 21.25,-9.68852 z M 919.16536,261.5946 c -0.0916,-2.75 -0.48112,-9.95 -0.86555,-16 -0.62035,-9.7629 -0.9579,-11.22493 -3.00143,-13 -3.28516,-2.85359 -2.38227,-7.89663 1.78608,-9.97608 2.78964,-1.39166 3.28333,-1.35587 6.20493,0.44978 1.74578,1.07895 4.00178,2.87626 5.01334,3.99401 2.6049,2.87838 3.52922,2.53271 3.52922,-1.31983 0,-4.38214 3.56916,-9.55671 8.52957,-12.3662 4.54937,-2.57668 8.8073,-2.87623 12.61844,-0.88773 l 2.64801,1.38162 -0.89801,-3.13118 c -1.08425,-3.78056 -1.07929,-3.64439 -0.13273,-3.64439 0.42091,0 1.55204,2.21516 2.51362,4.92257 0.9738,2.7418 3.10534,6.06441 4.81145,7.5 4.85689,4.0868 6.3921,3.49406 9.88808,-3.81779 4.735,-9.90318 3.4616,-26.3293 -2.66839,-34.42046 -2.81552,-3.71628 -2.3867,-5.46866 0.66287,-2.70883 2.59032,2.34418 5.59312,10.56463 6.45952,17.68324 0.7618,6.25951 -0.7506,16.62204 -3.0847,21.13572 -1.3742,2.65732 -1.3531,2.85322 0.2736,2.53996 2.8015,-0.53952 6.3411,-8.62635 7.0369,-16.077 1.1215,-12.01058 -2.403,-22.80716 -8.6943,-26.63316 -2.55598,-1.55438 -3.57734,-1.67395 -6.25916,-0.73277 -4.69332,1.64712 -5.53708,2.35951 -7.6121,6.42688 -1.85328,3.63272 -4.32554,16.19536 -3.1816,16.16709 0.32391,-0.008 2.57341,-0.70559 4.99889,-1.55019 4.83198,-1.68259 6.35095,-0.88624 5.84577,3.06474 -0.2044,1.59854 -2.36339,2.6776 -10.75573,5.37569 -5.775,1.85663 -10.8375,3.88163 -11.25,4.5 -0.52726,0.79041 -1.04243,0.67884 -1.73469,-0.37569 -0.54157,-0.825 -0.99158,-1.15798 -1,-0.73996 -0.008,0.41801 -4.0465,-1.26455 -8.9735,-3.73904 -8.54323,-4.29067 -9.24156,-4.46946 -15.07546,-3.8597 -4.66979,0.4881 -6.4423,1.13621 -7.49094,2.73904 -2.16932,3.3158 -2.7285,21.63003 -0.96617,31.64418 2.24541,12.75921 2.13828,13.48125 -2.25924,15.22711 -2.0625,0.81883 -5.6625,1.80725 -8,2.19648 -4.7025,0.78303 -5.63583,2.96776 -2.48573,5.81856 3.45606,3.12768 15.56699,7.70061 19.73573,7.45194 l 4,-0.23861 -0.16659,-5 z m -4.33341,-6.5 c 0,-2.2 0.45,-4 1,-4 0.55,0 1,1.8 1,4 0,2.2 -0.45,4 -1,4 -0.55,0 -1,-1.8 -1,-4 z m -8,2.10699 c 0,-1.01973 2.42749,-2.10699 4.70423,-2.10699 1.25609,0 1.31072,0.27706 0.29577,1.5 -1.34612,1.62198 -5,2.06555 -5,0.60699 z m 5.19299,-13.77134 c -1.96868,-3.72921 -3.32794,-13.40742 -2.64767,-18.85205 1.10755,-8.86458 2.22622,-7.24571 2.26453,3.2771 0.0195,5.35661 0.51256,11.2845 1.0957,13.17307 1.18456,3.83638 0.77447,5.21872 -0.71256,2.40188 z m 10.37495,-22.83565 c -2.52188,-1.925 -5.48135,-3.5 -6.57659,-3.5 -2.61062,0 -2.56572,-1.61653 0.064,-2.30422 1.35773,-0.35506 3.13966,0.40412 5.25,2.23672 1.75706,1.52581 4.20715,3.30602 5.44465,3.95603 2.24807,1.18082 3.07122,3.11147 1.3266,3.11147 -0.50788,0 -2.98677,-1.575 -5.50866,-3.5 z m 1.73055,-7.90416 c -4.12646,-1.50227 -5.1924,-2.59584 -2.53026,-2.59584 2.96284,0 7.23177,1.7563 7.23177,2.97525 0,1.20438 -0.45115,1.16797 -4.70151,-0.37941 z m -13.29849,-5.47926 c 0,-0.86612 5.16187,-2.2733 5.85014,-1.59481 0.19257,0.18984 0.0535,0.82511 -0.30902,1.4117 -0.7923,1.28196 -5.54112,1.43889 -5.54112,0.18311 z m 58.17431,38.56897 c -1.19587,-1.27295 -2.17431,-3.2417 -2.17431,-4.375 0,-7.79389 4.30303,-13.41637 13.65333,-17.83975 6.215,-2.94018 7.0251,-5.55148 2.4553,-7.9146 -2.8226,-1.45967 -2.9207,-1.42406 -4.132,1.50027 -1.5047,3.63252 -5.9041,6.94353 -9.22601,6.94353 -1.34236,0 -3.25513,0.9 -4.25062,2 -2.34932,2.59597 -3.87846,2.55524 -3.18805,-0.0849 0.36868,-1.40981 -0.56496,-3.53931 -2.88337,-6.57659 -1.88572,-2.47043 -3.42858,-4.17712 -3.42858,-3.79265 0,0.38447 -0.62736,0.17838 -1.39412,-0.45798 -0.76677,-0.63636 -3.57927,-1.41251 -6.25,-1.72477 -4.06217,-0.47494 -5.32519,-0.19667 -7.72706,1.70248 -7.44939,5.89018 -7.41081,18.76049 0.0669,22.32637 1.85466,0.88443 3.99914,1.60805 4.76552,1.60805 0.76637,0 4.32898,1.53012 7.9169,3.40028 8.15943,4.25298 11.3421,5.42077 15.04615,5.52077 l 2.92434,0.079 -2.17434,-2.31445 z m -12.17431,-12.73444 c 0,-1.21346 7.65905,-4.89663 10.25,-4.92915 2.99732,-0.0376 1.91639,1.78292 -1.5,2.52636 -1.7875,0.38898 -4.13763,1.32473 -5.22251,2.07945 -2.35889,1.64103 -3.52749,1.74815 -3.52749,0.32334 z m -7,-6.84033 c 0,-2.18212 3.52186,-6.91542 4.45456,-5.98681 0.58405,0.58149 -3.17002,7.87603 -4.05334,7.87603 -0.22067,0 -0.40122,-0.85015 -0.40122,-1.88922 z m 81.50005,0.97799 c 2.9037,-0.64251 3.0193,-0.88726 3.6034,-7.62629 0.3318,-3.82936 0.7512,-7.41248 0.9318,-7.96248 0.1807,-0.55 -0.2761,-2.91774 -1.0151,-5.26164 -1.0324,-3.27443 -1.116,-6.05424 -0.361,-12 1.2578,-9.90439 0.5668,-13.35167 -3.0227,-15.07873 -2.228,-1.07199 -3.3716,-1.09776 -5.7111,-0.12868 -1.609,0.66643 -2.9253,1.58391 -2.9253,2.03885 0,0.45494 -1.0605,1.97138 -2.3566,3.36988 -2.2428,2.42007 -2.3638,3.27205 -2.5088,17.66271 -0.084,8.31599 -0.3703,16.08245 -0.6368,17.2588 -0.5643,2.49193 2.1144,6.06358 5.308,7.07718 1.2068,0.38302 2.1942,1.16423 2.1942,1.73601 0,0.60179 0.7369,0.73188 1.75,0.3089 0.9625,-0.40188 3.1,-1.02941 4.75,-1.39451 z m 19.634,-6.7424 c -0.9408,-1.61862 -1.077,-1.48248 -1.1036,1.10363 -0.022,2.15133 0.2684,2.65121 1.0732,1.84638 0.7909,-0.79095 0.7996,-1.62674 0.03,-2.95001 z m -52.3216,-4.16042 c -0.128,-4.64595 0.4582,-7.1071 2.9179,-12.25 4.3909,-9.18083 4.6661,-10.58072 2.8377,-14.4338 l -1.604,-3.38028 -6.73202,3.8284 c -14.2367,8.09618 -12.9177,6.78092 -13.5459,13.50783 -0.3116,3.3366 -0.8274,6.74645 -1.1463,7.57745 -0.3963,1.03287 0.3757,1.87155 2.4402,2.65081 1.661,0.62695 3.0212,1.7415 3.0227,2.47678 0,1.64799 6.6855,5.58059 9.7336,5.72841 2.08832,0.10127 2.22582,-0.2764 2.07612,-5.7056 z m -58.08194,-8.78877 c -0.33155,-0.33155 -0.20957,-1.63716 0.27108,-2.90136 0.6621,-1.74146 0.42128,-2.70814 -0.99366,-3.98865 -1.78526,-1.61563 -1.88168,-1.54285 -2.18775,1.65136 -0.20013,2.08858 0.24224,3.79823 1.17982,4.55967 1.54735,1.25665 2.79946,1.74792 1.73051,0.67898 z m 14.76608,-4.02136 c 7.92149,-2.59731 11.32352,-4.36343 8.45341,-4.38847 -2.59277,-0.0226 -18.95,5.30343 -18.95,6.17027 0,1.34683 1.97947,1.01082 10.49659,-1.7818 z m -4.74659,-3.00611 c 1.65937,-0.44469 2.25,-1.34378 2.25,-3.42507 0,-2.57687 -0.38991,-2.88056 -4.48719,-3.49499 -8.72427,-1.30828 -12.0936,1.37514 -6.87795,5.47777 2.69623,2.12085 5.14013,2.50756 9.11514,1.44229 z m 41.54113,-10.76415 c 10.40582,-5.67262 12.81772,-7.60556 9.49002,-7.60556 -2.1957,0 -18.74732,10.46578 -18.76442,11.86501 -0.013,1.07303 0.5268,1.00886 2.5244,-0.30001 1.3976,-0.91576 4.4351,-2.69751 6.75,-3.95944 z m 93.04002,-2.26057 c 4.9903,-0.82454 8.1591,-5.52639 9.6735,-14.35388 2.0272,-11.81631 -1.974,-26.37254 -8.1234,-29.55253 -3.4582,-1.78828 -9.5166,-0.60391 -12.2262,2.3901 -2.0227,2.23505 -4.3135,9.13194 -4.9923,15.03021 l -0.5016,4.35889 3.1694,-0.71476 c 1.7432,-0.39311 4.1377,-0.9361 5.321,-1.20665 1.5561,-0.35575 2.3351,0.0863 2.8146,1.59692 0.9,2.83576 0.1478,3.7541 -4.2301,5.16408 -5.9586,1.91909 -6.2824,2.45038 -4.5649,7.49074 1.6155,4.74136 6.2594,10.459 8.4801,10.44088 0.7418,-0.006 3.0728,-0.29585 5.1799,-0.644 z m -0.3311,-2.14499 c 0,-0.44 0.4315,-1.23152 0.9589,-1.75893 2.0716,-2.07159 4.2714,-13.82312 3.6324,-19.40476 -0.8267,-7.22227 -3.1511,-14.18669 -5.6189,-16.83552 -2.2786,-2.44579 -2.5996,-4.37868 -0.5997,-3.61126 2.6397,1.01296 6.6448,10.11269 7.516,17.0769 0.9715,7.76537 -0.124,17.95412 -2.4047,22.36444 -1.42,2.74597 -3.484,4.03103 -3.484,2.16913 z m -55.3933,-10.24059 c 2.2015,-0.83699 3.3863,-2.96679 1.6433,-2.95383 -2.3336,0.0174 -8.802,2.40356 -10.1386,3.74008 -1.415,1.41508 -1.2024,1.49399 2.2704,0.84248 2.1074,-0.39535 4.9086,-1.12828 6.2249,-1.62873 z m 75.0554,-15.64203 c 5.5149,-1.73843 7.0005,-3.31738 3.1213,-3.31738 -2.8974,0 -10.7834,3.02458 -10.7834,4.13586 0,1.25236 1.6527,1.07581 7.6621,-0.81848 z m -84.6471,99.93262 c 0.022,-1.08327 2.372,-7.54921 3.2275,-8.87929 1.1645,-1.81063 4.7575,-2.3975 4.7575,-0.77709 0,0.77351 -0.6378,1.40638 -1.4173,1.40638 -0.7795,0 -2.1907,2.025 -3.1359,4.5 -1.4825,3.8819 -3.4782,6.06266 -3.4318,3.75 z m -21.015,-1.4767 c 0,-1.82294 1.7728,-3.33381 2.757,-2.34963 0.3431,0.34317 -0.1368,1.38466 -1.0666,2.31443 -1.5589,1.55894 -1.6904,1.56168 -1.6904,0.0352 z m 33.0332,-1.06314 c -0.076,-1.81393 3.9568,-8.3046 5.8836,-9.46863 2.6306,-1.58917 2.643,-0.78627 0.04,2.60031 -1.1236,1.46199 -2.9086,3.78316 -3.9667,5.15816 -1.0581,1.375 -1.9388,2.14457 -1.9571,1.71016 z m -27.9254,-9.4216 c 1.0407,-2.04129 1.8922,-4.60629 1.8922,-5.7 0,-1.41567 0.309,-1.67949 1.0728,-0.91576 1.3359,1.33592 -0.6766,9.69013 -2.1195,8.79836 -0.5243,-0.32406 -0.9533,-0.11264 -0.9533,0.46982 0,0.58246 -0.4015,1.05902 -0.8922,1.05902 -0.4907,0 -0.041,-1.67015 1,-3.71144 z m -5.0856,-4.53856 c 0.012,-0.6875 0.9022,-2.375 1.9778,-3.75 1.1461,-1.46519 1.9647,-4.07665 1.9777,-6.30902 0.013,-2.27997 0.4237,-3.56092 1.0223,-3.19098 1.7122,1.05825 1.0995,6.55063 -1.1842,10.61385 -2.1726,3.8657 -3.836,5.02159 -3.7936,2.63615 z m 8.1357,-5.75 c 0,-1.375 0.2269,-1.9375 0.5043,-1.25 0.2775,0.6875 0.2775,1.8125 0,2.5 -0.2774,0.6875 -0.5043,0.125 -0.5043,-1.25 z m -30.69912,-2.06653 c -0.3625,-0.58659 -0.4535,-1.27219 -0.2021,-1.52354 0.6975,-0.69748 3.7433,0.68337 3.7433,1.69706 0,1.25179 -2.7433,1.11736 -3.5412,-0.17352 z m 8.5412,-2.05804 c 0,-0.66987 0.7447,-2.04088 1.655,-3.04669 1.5629,-1.72703 1.5106,-1.82874 -0.941,-1.82874 -1.4278,0 -2.8741,-0.45 -3.214,-1 -0.8245,-1.33407 1.819,-1.26095 8.2207,0.22739 5.5854,1.29856 7.3742,3.30708 2.2793,2.5593 -1.65,-0.24217 -3.0142,-0.18074 -3.0315,0.1365 -0.068,1.24763 -4.9685,4.15948 -4.9685,2.95224 z m 20.70412,-12.12543 c 1.129,-1.2375 2.8073,-3.6 3.7297,-5.25 l 1.6771,-3 -0.5585,3.5 c -0.3072,1.925 -1.507,4.2875 -2.6662,5.25 -3.0325,2.51775 -4.6063,2.15713 -2.1821,-0.5 z m 0.3662,-7.94098 c -0.039,-2.03004 0.3797,-3.9691 0.9297,-4.30902 1.2066,-0.74576 1.2066,3.19192 0,6 -0.6927,1.61186 -0.8731,1.28369 -0.9297,-1.69098 z"
       id="path3352"
       inkscape:connector-curvature="0" />
  </g>
</svg>
