<?xml version="1.0" encoding="UTF-8" standalone="no"?>
<!-- Created with Inkscape (http://www.inkscape.org/) -->

<svg
   xmlns:dc="http://purl.org/dc/elements/1.1/"
   xmlns:cc="http://creativecommons.org/ns#"
   xmlns:rdf="http://www.w3.org/1999/02/22-rdf-syntax-ns#"
   xmlns:svg="http://www.w3.org/2000/svg"
   xmlns="http://www.w3.org/2000/svg"
   xmlns:xlink="http://www.w3.org/1999/xlink"
   xmlns:sodipodi="http://sodipodi.sourceforge.net/DTD/sodipodi-0.dtd"
   xmlns:inkscape="http://www.inkscape.org/namespaces/inkscape"
   width="896.91168"
   height="788.29224"
   id="svg2"
   version="1.1"
   inkscape:version="0.48.3.1 r9886"
   sodipodi:docname="Lying-bicep-cable-curl-2.svg">
  <defs
     id="defs4">
    <radialGradient
       gradientUnits="userSpaceOnUse"
       gradientTransform="matrix(1,0,0,0.91819829,-19.285714,-7.9105395)"
       r="209.56604"
       fy="287.50052"
       fx="398.1105"
       cy="287.50052"
       cx="398.1105"
       id="radialGradient5255"
       xlink:href="#linearGradient5249"
       inkscape:collect="always" />
    <linearGradient
       id="linearGradient5249"
       inkscape:collect="always">
      <stop
         id="stop5251"
         offset="0"
         style="stop-color:#e3e3e3;stop-opacity:1;" />
      <stop
         id="stop5253"
         offset="1"
         style="stop-color:#e3e3e3;stop-opacity:0;" />
    </linearGradient>
  </defs>
  <sodipodi:namedview
     id="base"
     pagecolor="#ffffff"
     bordercolor="#666666"
     borderopacity="1.0"
     inkscape:pageopacity="0.0"
     inkscape:pageshadow="2"
     inkscape:zoom="0.70000001"
     inkscape:cx="293.15003"
     inkscape:cy="294.86911"
     inkscape:document-units="px"
     inkscape:current-layer="layer1"
     showgrid="false"
     showguides="true"
     inkscape:guide-bbox="true"
     fit-margin-top="0"
     fit-margin-left="0"
     fit-margin-right="0"
     fit-margin-bottom="0"
     inkscape:window-width="1217"
     inkscape:window-height="830"
     inkscape:window-x="378"
     inkscape:window-y="223"
     inkscape:window-maximized="0">
    <sodipodi:guide
       orientation="-0.70710678,0.70710678"
       position="-1703.8003,398.71744"
       id="guide2985" />
  </sodipodi:namedview>
  <metadata
     id="metadata7">
    <rdf:RDF>
      <cc:Work
         rdf:about="">
        <dc:format>image/svg+xml</dc:format>
        <dc:type
           rdf:resource="http://purl.org/dc/dcmitype/StillImage" />
        <dc:title></dc:title>
      </cc:Work>
    </rdf:RDF>
  </metadata>
  <g
     inkscape:label="Ebene 1"
     inkscape:groupmode="layer"
     id="layer1"
     transform="translate(-275.22902,362.9269)">
    <path
       style="fill:#000000"
       d="m 632.81726,424.37033 c -1.1,-0.50992 -62.88277,-16.20557 -137.29505,-34.87923 -74.41228,-18.67366 -136.1188,-34.21353 -137.12561,-34.53313 -1.49241,-0.4736 -2.34851,0.6377 -4.63425,6.0158 -1.54202,3.6282 -3.72312,7.2408 -4.84688,8.02792 -2.43803,1.70766 -7.91277,1.86832 -10.81095,0.31726 -1.2198,-0.65281 -6.51938,-1.04794 -12.80359,-0.95461 -10.1903,0.15134 -10.87503,0.0308 -13.79955,-2.43006 -1.69248,-1.42411 -3.34929,-3.44651 -3.68182,-4.49421 -0.33253,-1.0477 -1.4133,-2.1616 -2.4017,-2.4753 -2.7369,-0.8687 -4.08329,-4.8824 -3.44516,-10.2705 0.40687,-3.4354 0.17847,-5.1496 -0.79182,-5.9432 -0.74999,-0.6133 -6.01981,-2.3617 -11.7107,-3.8852 -5.6909,-1.5236 -10.9784,-3.4014 -11.75,-4.173 -1.10684,-1.1068 -1.40292,-5.4705 -1.40292,-20.6765 0,-17.1051 0.19689,-19.4461 1.75,-20.8065 0.9625,-0.8432 11.875,-6.4581 24.25,-12.4776 21.71116,-10.5609 22.72408,-11.1852 28.89116,-17.8095 3.51514,-3.7757 7.50868,-9.3059 8.87453,-12.2893 3.14671,-6.8733 2.64062,-12.5083 -2.39675,-26.6859 -4.42274,-12.4476 -7.7944,-19.3719 -17.7803,-36.5148 -10.75295,-18.4596 -19.89364,-36.602 -23.59497,-46.8311 -3.95096,-10.919 -6.62272,-26.9221 -7.45759,-44.668896 -0.55421,-11.7804 -1.14468,-15.4877 -3.72458,-23.3843 -2.78943,-8.538 -3.02272,-10.2516 -2.58663,-19 0.44889,-9.0052 0.77049,-10.187 5.06545,-18.6157 4.20296,-8.248 4.63855,-9.7937 5.21351,-18.5 0.34505,-5.225 1.27718,-14.7847996 2.0714,-21.2440996 l 1.44403,-11.7441004 -7.122,-14.2169 c -8.51258,-16.9927 -10.52381,-25.9073 -9.4294,-41.7949 2.52446,-36.647404 18.01943,-64.442404 43.03215,-77.191604 7.938,-4.0461 22.83216,-8.8084 27.54825,-8.8084 0.95753,0 3.22461,-2.5227 5.32478,-5.9253 4.71792,-7.6436 14.22825,-16.2899 24.76494,-22.5149 10.74654,-6.349 12.69429,-8.1415 21.03552,-19.3585 7.09348,-9.539 12.87763,-14.2092 25.3265,-20.4487 8.34787,-4.184 23.65951,-9.5499 31.03361,-10.8755 3.90773,-0.7025 8.28357,-2.2192 9.96639,-3.4544 4.21929,-3.0972 13.86248,-7.7543 21.38955,-10.33 5.26804,-1.8027 7.97597,-3.6668 15.42776,-10.6203 11.41369,-10.6503 18.22999,-13.7251 38.18269,-17.224 17.56156,-3.0796 42.61094,-3.4524 60.95846,-0.9072 17.43557,2.4186 17.43101,2.4192 25.09515,-3.3817 7.10514,-5.3779 26.72723,-15.3994 37.44639,-19.1249 10.96527,-3.811 33.17053,-2.5497 50.6745,2.8784 l 5.17449,1.6047 7.04067,-4.1828 c 3.87236,-2.3005 8.96884,-6.4308 11.32549,-9.1784 6.11377,-7.1279 10.69217,-9.7945 21.5422,-12.5468 13.03691,-3.3071 24.86859,-4.1716 28.8581,-2.1085 1.66414,0.8605 6.78138,2.5235 11.3716,3.6955 7.85127,2.0046 9.12129,2.0594 21.42942,0.9235 7.19594,-0.6642 20.50853,-1.2265 29.58353,-1.2496 16.49999,-0.042 16.50001,-0.042 27.5,3.7132 6.05,2.0654 14.94866,5.9459 19.7748,8.6232 10.79972,5.9912 17.08118,8.3693 26.51403,10.0379 7.24489,1.2816 7.29848,1.2748 8.8935,-1.1278 4.3787,-6.5955 14.67514,-15.0461 23.6269,-19.3913 14.36822,-6.9744 38.07648,-11.7164 47.15211,-9.4312 6.1247,1.5422 15.642,7.7924 22.0998,14.5134 l 5.2158,5.4284 9.3332,-3.3148 9.3331,-3.3149 2.0845,-5.9533 c 1.1464,-3.2744 2.9128,-7.5284 3.9253,-9.4534 3.2174,-6.1167 13.4897,-15.227 22.3905,-19.8577 10.2558,-5.3357 28.5403,-10.2244 39.1565,-10.4693 6.767,-0.156 8.0863,0.1483 13.5,3.1148 10.0566,5.5105 17.9328,14.0591 25.661,27.8519 8.6246,15.3924 11.7861,27.7272 12.5231,48.8603 0.5937,17.0227 -0.6004,24.3481 -5.7164,35.0677 -3.6817,7.7142 -9.7059,13.3037 -21.0685,19.5484 -17.2838,9.4988 -35.1593,14.5505 -45.5201,12.8643 -9.3951,-1.5291 -18.7984,-8.3164 -29.6447,-21.3976 -2.3365,-2.8178 -2.4999,-2.8604 -4.7991,-1.25 -1.3092,0.917 -3.1802,1.6672 -4.1578,1.6672 -1.3703,0 -1.7775,0.8152 -1.7775,3.5585 0,12.5668 -6.1946,30.4812 -12.6675,36.6339 -3.4916,3.3188 -17.3324,11.2822 -27.1741,15.6348 -9.7139,4.296 -22.00125,7.1572 -30.77408,7.1658 -6.20028,0.01 -8.05704,-0.4639 -14.43367,-3.654 -16.87008,-8.4398 -31.45353,-28.2622 -39.92016,-54.2612 -3.21009,-9.8574 -3.04693,-9.7579 -16.32268,-9.9594 -9.22629,-0.1401 -20.87796,2.0672 -29.20785,5.5332 -4.94682,2.0584 -18.00266,7.0293 -23.27742,8.8627 -0.94818,0.3296 -0.65435,1.6736 1.14008,5.2149 1.32963,2.624 4.04197,9.1081 6.02742,14.4092 2.91021,7.7702 3.60992,11.0231 3.60992,16.7821 0,8.2599 1.43706,12.3285 6.25851,17.7191 4.79768,5.364 5.67119,7.3544 6.39176,14.5643 0.76944,7.6991 1.88748,9.9904 9.60396,19.682 8.5298,10.7132 10.14457,14.7389 9.44726,23.5525 -0.30728,3.8839 -1.26368,9.0246 -2.12531,11.4238 -1.55614,4.333004 -1.54737,4.386404 1.31301,8.000004 8.1349,10.2769 23.70787,39.6288 26.08401,49.163 0.61338,2.4612 1.43832,7.3998 1.83321,10.9748 0.68508,6.2025 0.83186,6.4835 3.20578,6.138 1.3683,-0.1991 7.25183,-0.3412 13.07451,-0.3156 8.05746,0.035 12.11887,0.5575 17,2.1858 12.68103,4.2302 20.40785,8.6725 28.77315,16.5419 4.57819,4.3069004 9.45399,7.9663004 11.33149,8.5048004 4.9388,1.4165 22.4872,1.0723 29.3087,-0.5749 7.2358,-1.7471 20.0696,-1.901 27.8712,-0.3343 12.5296,2.51630005 21.8121,11.4696 23.1715,22.3497996 0.8431,6.7482 -0.9165,22.2833 -4.2289,37.3361 -2.4878,11.3055 -2.4898,11.3601 -0.9037,23.7263 2.6183,20.412396 1.9211,48.050196 -1.5363,60.905896 -1.5553,5.7831 -7.2394,10.9844 -14.4186,13.1939 -5.0834,1.5645 -9.542,1.8335 -30.4552,1.8376 -23.7426,0.01 -24.6485,-0.068 -29.3019,-2.3596 -5.7012,-2.8071 -7.7747,-5.6356 -8.43669,-11.5085 -0.66301,-5.8822 1.36339,-9.7997 9.93049,-19.1979 3.8677,-4.2429 8.1024,-10.0127 9.4104,-12.8218 4.1263,-8.8619 3.2168,-14.043396 -5.6364,-32.107496 -6.2713,-12.796 -8.9659,-21.2742 -8.9659,-28.2101 0,-2.3594 -0.2981,-4.2899 -0.6624,-4.2899 -0.3644,0 -6.32686,1.8793 -13.25004,4.1761 -11.96803,3.9705 -13.3013,4.1969 -27.0876,4.5997 -11.36485,0.332 -16.55407,0.024 -24,-1.4261 -5.35649,-1.0429 -13.86159,-1.8497 -19.5,-1.8497 -8.95871,0 -10.32804,0.2462 -13.15027,2.3644 -2.79075,2.0945 -3.98912,2.3203 -10.5,1.9788 -8.87884,-0.4658 -17.45431,-4.1409 -26.10667,-11.1884 l -5.74306,-4.6778 0,6.4442 c 0,5.2815 0.3157,6.5336 1.75,6.9402 0.9625,0.2728 26.725,4.6213 57.25,9.6632 30.525,5.0419 56.01716,9.6864 56.64924,10.3212 0.65374,0.6566 1.63606,7.8371 2.27836,16.6542 0.62101,8.525 1.37337,17.142896 1.67188,19.150796 l 0.54278,3.6507 -14.64167,11.8493 c -8.05292,6.5171 -15.39743,12.2018 -16.32113,12.6327 -1.5369,0.717 -24.9949,-3.6558 -218.67946,-40.764396 -24.75,-4.7419 -45.52357,-9.1611 -46.1635,-9.8204 -0.75396,-0.7767 -1.41323,-8.283 -1.87298,-21.3256 l -0.70949,-20.1269 13.87298,-7.6051 c 8.76576,-4.8054 15.01692,-7.6118 16.9803,-7.6231 1.70901,-0.01 21.84981,2.457 44.75733,5.482 22.90752,3.025 42.39414,5.5 43.30362,5.5 1.51939,0 1.5997,-2.8605 0.98963,-35.2499996 -0.64457,-34.2206004 -0.72551,-35.3011004 -2.77171,-37.0000004 -1.15926,-0.9625 -2.87622,-1.75 -3.81546,-1.75 -5.38005,0 -12.55031,-3.3843 -17.35972,-8.1937 l -5.04332,-5.0433 -4.08384,1.9992 c -2.24611,1.0996 -51.32741,26.8205 -109.06954,57.1575 -87.55391,45.9997 -106.3164,55.4979 -113,57.2044 -9.57362,2.4444 -28.41376,4.0477 -37.6892,3.2074 l -6.6749,-0.6047 0.47272,121.351096 c 0.26,66.7431 0.63783,121.5162 0.83964,121.718 0.2018,0.2018 36.62064,8.3969 80.93075,18.2114 44.31011,9.8144 81.47348,18.1331 82.58526,18.4859 1.95435,0.6203 2.02143,1.4354 2.02143,24.56168 l 0,23.92007 -3.75,2.39453 c -2.0625,1.31699 -10.03963,6.94763 -17.72695,12.51254 -7.68733,5.56491 -14.66233,10.08756 -15.5,10.05034 -0.83768,-0.0372 -2.42305,-0.48489 -3.52305,-0.9948 z m 18.8529,-18.55073 14.6471,-10.61322 0,-18.20154 0,-18.20157 -83.25,-18.4465 -83.25,-18.4466 -0.5,-125.1557 c -0.275,-68.8357 -0.72499,-125.368496 -1,-125.628596 -0.275,-0.2601 -11.41249,-2.9359 -24.75,-5.9462 l -24.25,-5.4732 0,129.428896 c 0,87.3063 -0.3369,130.0584 -1.03517,131.3632 -1.16669,2.1799 -3.96297,2.5361 -5.76483,0.7342 -0.7337,-0.7337 -1.20178,-4.328 -1.20458,-9.25 l -0.005,-8.05 -12.25389,-2.8651 -12.25388,-2.8651 -8.49154,1.7198 c -4.67034,0.9459 -9.89571,2.3004 -11.61193,3.01 -4.32904,1.7898 -20.18572,17.6662 -25.36863,25.4001 -6.1303,9.1476 -11.1619,18.2812 -10.46222,18.9915 0.65881,0.6688 271.96621,68.87019 274.55415,69.01756 0.88159,0.0502 8.19409,-4.68467 16.25,-10.52193 z M 321.46698,360.68277 c 0.60512,-1.5125 1.6683,-12.425 2.36264,-24.25 0.69433,-11.825 1.3131,-21.5699 1.37504,-21.6553 0.0619,-0.086 1.65105,-1.9968 3.53137,-4.2474 1.88032,-2.2506 4.16648,-6.3432 5.08036,-9.0946 2.20419,-6.6362 4.50088,-6.7274 4.50088,-0.1787 0,3.9196 -0.66026,5.7476 -3.52157,9.75 -4.07427,5.6992 -6.47843,12.8634 -6.47843,19.3054 0,2.4839 -0.74654,10.2163 -1.65897,17.183 -0.91243,6.9667 -1.3979,13.3471 -1.07882,14.1786 0.85301,2.2229 5.69442,1.0033 6.71943,-1.6927 0.45797,-1.2045 1.16243,-6.8832 1.56546,-12.6192 0.90131,-12.8274 2.09775,-16.3564 8.45064,-24.926 5.40736,-7.2941 8.77092,-14.1695 11.42637,-23.3565 1.92424,-6.6573 5.30797,-10.6466 9.03043,-10.6466 3.42732,0 3.20354,1.5064 -0.78991,5.3172 -2.52591,2.4104 -3.74855,4.8468 -5.03792,10.0393 -1.19509,4.8128 -3.90437,10.5101 -9.08954,19.1143 -7.94134,13.1777 -9.0566,16.1753 -10.09393,27.1309 -0.8186,8.6454 0.36241,11.6717 4.37401,11.2083 2.33124,-0.2693 3.55945,-1.9886 9.37397,-13.1215 3.68017,-7.0464 9.30517,-16.1886 12.5,-20.3162 3.19483,-4.1275 7.89787,-10.4565 10.4512,-14.0643 5.53526,-7.8214 13.99713,-14.0685 24.22391,-17.8839 3.92351,-1.4638 9.77705,-3.7833 13.00787,-5.1545 3.23081,-1.3713 7.61831,-2.7271 9.75,-3.013 3.4515,-0.463 3.87579,-0.2865 3.87579,1.6118 0,1.3383 -0.65126,2.1562 -1.75,2.1976 -1.23425,0.046 14.12962,4.3424 17.5,4.8932 0.1375,0.023 0.25,-1.4646 0.25,-3.3046 0,-3.011 -0.81867,-3.9723 -8.19198,-9.6189 -8.18865,-6.271 -9.57208,-6.9817 -17.57896,-9.0309 -3.6928,-0.9452 -5.5342,-2.5712 -13.60284,-12.0121 -18.83333,-22.0363 -19.62688,-24.1573 -19.62485,-52.4528 9.2e-4,-12.8647 0.50388,-21.7966 1.55077,-27.5399 0.85218,-4.675 1.79925,-15.475 2.10461,-24 0.64036,-17.8774 -0.94726,-27.9929 -7.2428,-46.1477 -7.42574,-21.413996 -13.17965,-32.121496 -16.0023,-29.778896 -2.02083,1.6771 -1.78017,2.8632 1.60835,7.9266 3.51683,5.2553 6.41359,13.966496 5.08583,15.294196 -0.53687,0.5369 -2.5268,-1.8725 -4.91058,-5.945696 -4.86287,-8.3093 -6.07881,-9.4518 -18.44525,-17.3313 -5.3625,-3.4169 -9.74999,-6.6797 -9.74999,-7.2507 0,-1.9039 9.34105,0.1574 14.10291,3.112 l 4.60293,2.8561 3.16976,-4.8419 c 4.02231,-6.1441 9.99534,-20.2386 10.35185,-24.4271 0.2608,-3.0641 -0.24473,-3.547 -11.72746,-11.2009 -12.97219,-8.6468 -37.42356,-29.7943 -47.03389,-40.67859955 l -5.96611,-6.75710005 -0.7133,3.8355 c -0.39232,2.10960005 -1.36062,10.2621 -2.15178,18.1168996 -1.34499,13.3531 -1.67008,14.6701 -5.00189,20.2632 -5.88512,9.8794 -8.11853,21.5831 -5.71639,29.9554 0.69213,2.4124 0.76149,2.3686 1.97787,-1.25 0.86252,-2.5658 1.85739,-3.75 3.15047,-3.75 1.80987,0 1.88067,1.0902 1.67245,25.75 -0.19932,23.605096 -0.036,26.458096 1.96099,34.249996 5.37345,20.9668 10.21383,32.2 28.88381,67.0312 6.15489,11.4827 9.74758,19.7896 13.78287,31.8682 4.7601,14.2482 5.60294,16.0663 6.59163,14.2189 3.3243,-6.2115 3.93836,2.7937 1.067,15.6478 -1.76846,7.9168 -6.28754,13.5261 -21.53765,26.7339 -7.62056,6.6 -14.63036,13.35 -15.57736,15 -0.94699,1.65 -3.35786,9.525 -5.35748,17.5 l -3.63567,14.5 2.04747,11.5 c 1.12611,6.325 2.31027,13.2689 2.63145,15.4309 1.24955,8.4108 2.39574,0.6675 2.43216,-16.4309 0.0418,-19.6089 0.31255,-20.694 7.84003,-31.4157 2.78106,-3.9612 4.15333,-6.977 4.15333,-9.1276 0,-3.4384 2.17918,-6.082 4.05693,-4.9215 1.89656,1.1722 0.26962,6.276 -5.70637,17.9013 l -5.62188,10.9364 -0.81365,19.9296 c -0.4475,10.9612 -1.02471,20.1406 -1.28268,20.3985 -0.25798,0.258 -0.0118,1.7808 0.54712,3.3841 0.81036,2.3245 1.609,2.9149 3.9431,2.9149 2.25963,0 3.17776,-0.6269 4.02714,-2.75 z m 45.85028,-59.7785 c 0,-1.5013 6.16999,-12.4715 7.0144,-12.4715 1.57218,0 1.10493,4.1404 -0.98747,8.75 -1.35695,2.9895 -2.53685,4.25 -3.97803,4.25 -1.12689,0 -2.0489,-0.2378 -2.0489,-0.5285 z m -30.81642,-12.1892 c 0.34118,-2.9303 6.05164,-7.578 8.6832,-7.0671 2.85347,0.5539 2.22704,2.7188 -1.20119,4.1512 -1.91008,0.7981 -3.77155,2.3921 -4.13661,3.5424 -1.01345,3.1931 -3.73086,2.6842 -3.3454,-0.6265 z m 3.24144,-126.0323 c -4.90402,-11.1933 -8.24915,-16.1402 -14.51502,-21.4653 -2.77285,-2.3566 -6.11556,-6.0877 -7.42823,-8.2914 -4.56491,-7.6635 -7.31042,-33.693296 -4.01357,-38.052096 1.36796,-1.8086 1.47037,-1.6585 1.5,2.1984 0.0434,5.651496 2.78703,19.694796 4.9703,25.440696 0.98601,2.595 5.84408,10.501 10.79571,17.5689 4.95163,7.068 9.91172,14.6508 11.02241,16.8508 3.72638,7.3811 4.83874,14.5 2.26567,14.5 -0.42006,0 -2.48883,-3.9375 -4.59727,-8.75 z m -40.93911,168 c -1.98944,-4.7818 -1.59638,-11.1923 1.44984,-23.6463 1.7301,-7.0732 3.80232,-14.1302 4.60494,-15.6823 0.80262,-1.5521 1.45931,-3.0731 1.45931,-3.38 0,-0.307 -4.95,1.9245 -11,4.9586 l -11,5.5168 0,15.2942 0,15.2943 5.75,1.6008 c 7.95257,2.214 9.64228,2.2225 8.73591,0.044 z m 143.46217,-128.3172 c -0.56091,-43.138 -1.11619,-93.2663 -1.23395,-111.396296 l -0.21413,-32.9635 -11.98622,-2.817 -11.98623,-2.8171 -5.92534,2.6592 c -5.19593,2.3318 -6.74418,2.583 -12.57709,2.0409 -3.65846,-0.34 -9.21458,-1.5 -12.34693,-2.5776 -5.57371,-1.9177 -5.73257,-1.9194 -7.44766,-0.078 -0.96386,1.0345 -3.48409,5.9704 -5.6005,10.9685 -3.36488,7.9466 -3.6774,9.3218 -2.48903,10.953 0.74745,1.026 3.56979,4.8895 6.27187,8.5857 5.71041,7.8112 8.96815,16.697896 14.28339,38.962996 4.51094,18.896 4.56207,26.1784 0.41103,58.5468 -3.90954,30.4853 -4.43298,42.6735 -2.15019,50.0663 2.4353,7.8866 8.34661,16.0381 19.17115,26.4365 7.5081,7.2125 10.29263,9.2437 14.00259,10.2143 2.54696,0.6663 5.92869,2.3036 7.51496,3.6383 2.86261,2.4088 12.63963,8.5239 13.08815,8.1862 0.12868,-0.097 -0.22497,-35.4709 -0.78587,-78.6089 z m 618.31856,-54.5725 c 7.2304,-2.1029 12.2931,-5.8193 14.6997,-10.7907 3.025,-6.2489 4.501,-27.1082 3.0359,-42.904496 -2.0463,-22.0624 -2.3203,-30.6563 -1.1477,-35.9953 6.0348,-27.4756 6.6211,-36.3249 2.8955,-43.6998 -4.0902,-8.0964996 -13.1631,-11.9699996 -28.0372,-11.9699996 -4.9754,0 -11.6429,0.7105 -15.0685,1.6056 -4.4586,1.1651 -9.0251,1.4858 -16.6443,1.1689 -12.1347,-0.5047 -14.3905,-1.4031 -26.64299,-10.6099 -8.78524,-6.6014004 -13.69671,-9.2470004 -26.98103,-14.5336004 -9.93928,-3.9554 -17.18358,-4.6105 -24.87602,-2.2496 -4.86307,1.4926 -4.84349,2.7049 0.17694,10.9544 4.16871,6.8500004 3.50251,9.1212004 -1.7719,6.0408004 -5.44015,-3.1772 -9.85581,-12.6112004 -11.53676,-24.6482004 -1.68357,-12.0556 -2.70906,-16.1587 -6.05539,-24.2284 -3.08099,-7.4297 -20.26688,-38.5 -21.29553,-38.5 -0.41337,0 -2.00455,1.9125 -3.53595,4.25 -1.5314,2.3375 -6.86164,8.4253 -11.84498,13.5285 l -9.06061,9.2784 1.96209,3.6863 c 1.07916,2.0275 4.35184,6.5136 7.27264,9.9691 4.83669,5.7222 5.78306,8.2877 3.05719,8.2877 -0.55783,0 -4.77332,-3.6 -9.36774,-8 -4.59442,-4.4 -8.80678,-8 -9.36081,-8 -0.55402,0 -4.29948,2.4873 -8.32325,5.5273 -10.1229,7.6479 -27.27858,16.0018 -38.31594,18.6578 -4.95,1.1912 -9.13305,2.2574 -9.29567,2.3694 -0.54711,0.3767 12.94538,23.8820004 16.32318,28.4366004 7.88275,10.6291 46.26468,45.7646996 54.29737,49.7048996 7.85744,3.8543 13.59104,4.112 20.34956,0.9147 6.93308,-3.2798 14.93836,-3.4379 30.38268,-0.5997 15.11775,2.7781 28.55894,3.5306 35.94289,2.0122 3.3,-0.6787 12.3,-3.2498 20,-5.7137 8.62813,-2.7609 16.68593,-4.6769 21.00003,-4.9935 6.8275,-0.501 7.1478,-0.4169 13,3.4127 7.0039,4.5833 8.9445,6.6705 8.1432,8.7586 -1.001,2.6087 -6.24,1.8057 -10.0513,-1.5407 -3.6416,-3.1973 -8.7637,-5.2016 -11.0507,-4.324 -0.7393,0.2837 -1.5731,1.3912 -1.8528,2.461 -1.0303,3.9397 4.097,20.5429 10.3385,33.4784 6.1106,12.6641 6.2445,13.119 6.3246,21.484996 0.1085,11.3352 -2.4237,16.5783 -13.3124,27.5634 -6.0725,6.1264 -8.0391,8.7722 -8.0391,10.8158 0,4.1553 1.7685,6.5661 6.3307,8.63 3.6311,1.6426 6.6563,1.8822 23.4359,1.8561 14.2166,-0.022 20.6385,-0.4289 24.5,-1.552 z m -18.8876,-2.8148 c -1.7184,-4.4781 6.9234,-16.5455 11.8488,-16.5455 2.974,0 1.9743,3.3852 -1.4767,5 -2.4576,1.1501 -3.6822,2.7654 -5.2485,6.9235 -2.1282,5.6494 -4.0604,7.3925 -5.1236,4.622 z M 907.0185,39.800674 c -0.38568,-0.3856 -0.70124,-2.1462 -0.70124,-3.9124 0,-1.7662 -0.67499,-4.8267 -1.5,-6.8012 -3.03819,-7.2714 -0.70379,-9.2276 3.45111,-2.8919 2.96136,4.5157 3.60139,13.4719 1.00013,13.9952 -0.85182,0.1714 -1.86432,0 -2.25,-0.3897 z m 158.7839,-9.5635 c -3.5097,-10.8761 -4.8134,-11.4465 -16.5138,-7.226 -3.9314,1.4181 -7.3833,2.3431 -7.6709,2.0554 -1.1467,-1.1467 5.301,-5.7349 10.0344,-7.1406 6.7013,-1.99 9.5207,-1.8786 13.4754,0.5325 3.9156,2.3873 6.4186,7.738 5.9943,12.8144 -0.4937,5.9073 -3.2522,5.3702 -5.3194,-1.0357 z m -195.94678,-9.1527 c -2.93035,-2.1427 -1.04463,-3.4067 4.31416,-2.8918 4.11478,0.3954 5.53742,0.047 8.76207,-2.1439 3.19343,-2.17 4.97798,-2.616 10.46833,-2.616 8.01756,0 13.14868,1.559 12.70549,3.8603 -0.26103,1.3554 -1.48702,1.5784 -7.30105,1.3279 -5.09034,-0.2193 -8.59093,0.2573 -12.8939,1.7554 -6.79486,2.3657 -13.39039,2.6566 -16.0551,0.7081 z m 92.44329,0.3116 c -8.55704,-2.0327 -16.98165,-6.8043 -16.98165,-9.6182 0,-2.0385996 2.62391,-1.6181 6.77144,1.085 6.89052,4.4907 26.46066,6.0521 38.72856,3.0899 7.49987,-1.8109 7.5,-1.8109 7.5,-0.1285 0,4.4363 -24.70822,8.2586 -36.01836,5.5718 z m -2.98165,100.934196 c 3.025,-2.4587 7.98765,-6.5409 11.0281,-9.0716 l 5.5281,-4.6013 -1.09544,-14.596296 c -0.60249,-8.028 -1.29014,-14.7756 -1.5281,-14.9948 -0.23796,-0.2191 -25.95275,-4.6568 -57.14398,-9.8614 -31.19123,-5.2046 -57.40373,-10.0376 -58.25,-10.74 -1.23373,-1.0239 -1.53868,-3.7378 -1.53868,-13.6933 l 0,-12.4163 -14.08574,-14.1849 C 830.56934,6.4261744 826.88184,1.9480744 820.79974,-7.8566256 l -7.34605,-11.8422004 0.18178,40.8158 0.18179,40.8158 -2.5856,0.3006 c -3.53876,0.4114 -4.7406,-1.4181 -5.10452,-7.77 l -0.30988,-5.4089 -41.5,-5.7608 c -22.82499,-3.1684 -43.10666,-5.7833 -45.07036,-5.8108 -2.50621,-0.035 -6.75313,1.6637 -14.249,5.6999 l -10.67864,5.75 -9.9e-4,15.2715 c -9.9e-4,14.8973 0.0541,15.294 2.249,16.1946 1.2375,0.5077 36,7.3186 77.25,15.1354 41.24999,7.816796 97.95,18.584196 125.99999,23.927596 40.39832,7.6956 51.31182,9.4681 52.5,8.5269 0.82501,-0.6536 3.975,-3.1999 7,-5.6585 z m -412,-60.223596 c 8.46109,-2.2145 20.92801,-8.4408 114,-56.9340996 93.90957,-48.9297004 114,-59.5180004 114,-60.0819004 0,-0.094 -0.46696,-1.7431 -1.0377,-3.6645 -0.57074,-1.9213 -1.4125,-7.7578 -1.8706,-12.9699 l -0.8329,-9.4766 -5.12976,-4.5234 c -4.24133,-3.74 -5.12969,-5.1003 -5.12939,-7.8544 l 3.6e-4,-3.331 -17.92162,0.331 c -16.64293,0.3073 -18.08776,0.483 -20.25,2.4616 -1.28062,1.1719 -7.27839,4.2581 -13.32838,6.8583 -15.5023,6.6626 -21.78411,10.7231 -27.63405,17.8627 -8.5688,10.4578 -21.50691,20.4412 -35.81311,27.6345 -15.21239,7.6489 -25.04644,10.0348 -44.05284,10.6879 -9.56209,0.3285 -16.26618,1.0018 -17.5,1.7574 -12.82931,7.8569 -48.0627,15.8224 -63.11514,14.2688 -5.49385,-0.567 -11.46969,-3.8909 -16.26497,-9.047 l -2.38012,-2.5592 -18.61988,0.3527 c -20.91915,0.3962 -25.50226,1.4728 -29.36512,6.8976 -1.96944,2.7659 -2.18505,4.1382 -1.91422,12.1838004 0.35761,10.6235 -0.76525,14.2674 -9.01508,29.2554996 -3.36948,6.1216 -7.83701,12.3305 -12.16351,16.9046 -6.3914,6.7572 -6.68533,7.2637 -4.5,7.7545 26.23272,5.8916 76.1526,16.809 80.09725,17.5172 9.17888,1.6479 29.0858,0.5027 39.74079,-2.2861 z m -60.86399,-37.7366 c -14.50019,-3.2349 -26.98769,-6.3992 -27.75,-7.0319 -1.79499,-1.4897 -1.7727,-4.3395 0.0458,-5.8487 1.12901,-0.937 7.3143,0.1161 29.25,4.98 29.19117,6.4727 37.58576,7.3809 46.31822,5.0113 4.40082,-1.1942 32.39575,-14.2964996 135.5,-63.4173 36.95553,-17.6064 51.55075,-24.1068 53,-23.6052 2.3694,0.8201 3.13823,4.2048 1.29826,5.7154 -0.71404,0.5863 -19.52326,9.6049 -41.79826,20.0415 -22.275,10.4366 -63.23771,30.0063004 -91.02826,43.4884004 -27.79054,13.4819996 -52.31554,25.0089996 -54.5,25.6153996 -2.18446,0.6065 -8.47174,1.0644 -13.97174,1.0176 -8.34506,-0.071 -14.36312,-1.0584 -36.36399,-5.9665 z m -78.3427,23.0703 c 12.22665,-5.5491 31.303,-32.1645 35.68685,-49.7903996 l 1.42196,-5.7172 -4.3252,-12.5000004 -4.32522,-12.5 -4.37585,0.3391 -4.37585,0.339 3.64983,-3.3821 c 9.42392,-8.7328 9.08848,-29.8208 -0.62894,-39.5382 -4.82491,-4.8249 -8.79987,-5.523 -14.89607,-2.6159 -6.34625,3.0263 -9.14955,-0.7079 -3.53348,-4.7069 3.7769,-2.6894 10.45767,-3.5689 15.2058,-2.0019 5.09681,1.6821 12.38945,8.5149 15.37403,14.4047 3.11552,6.1482 4.21548,18.4781 2.4493,27.4555 -0.98186,4.9907 -0.9094,6.4673 0.4805,9.7918 0.90021,2.1532 2.05201,5.0061 2.55955,6.3396 0.91782,2.4116 0.95101,2.3971 6.13115,-2.6786 2.86458,-2.8068 8.58333,-7.0842 12.70833,-9.5053 9.14711,-5.3687 30.439,-16.7408 31.34383,-16.7408 1.99285,0 -0.0161,2.4291 -5.09383,6.159 -11.46079,8.4187 -14.66875,12.6989 -10.66821,14.2341 0.86998,0.3338 6.94369,0.6069 13.49712,0.6069 l 11.91534,0 3.75288,3.3557 c 6.08772,5.4434 7.98523,6.105 17.25287,6.0153 11.34767,-0.1098 21.23046,-1.8555 34.5,-6.0939 13.63046,-4.3536 15.1999,-5.1372 24.5,-12.2321 9.34075,-7.1258 16.02503,-11.045 18.83786,-11.045 1.18918,0 2.16214,0.1882 2.16214,0.4183 0,0.23 0.23215,1.0232 0.5159,1.7626 0.31477,0.8203 -1.82946,3.0523 -5.5,5.7253 -3.30875,2.4095 -6.0159,4.6918 -6.0159,5.0718 0,0.3801 2.8125,0.3196 6.25,-0.1343 22.1847,-2.9294 49.07701,-14.6782 65.04788,-28.4183 9.25021,-7.9581 11.30395,-11.0871 14.16056,-21.5744 2.41891,-8.880404 16.11057,-25.457904 20.36083,-24.652404 3.46835,0.6573 2.47177,5.0808 -2.43556,10.8106 -5.84121,6.820204 -11.06527,14.873904 -11.95978,18.437904 l -0.67847,2.7032 8.33416,-4.1903 c 17.52512,-8.8114 28.87392,-18.199104 35.34031,-29.233104 6.28042,-10.7167 11.60944,-43.0478 8.59896,-52.1696 l -1.23056,-3.7286 -2.64416,2.4916 c -4.16998,3.9293 -20.85662,14.4154 -29.76073,18.7019 -7.88,3.7935 -8.13578,4.0276 -8.77649,8.0344 -1.35705,8.4865 -5.55068,13.9331 -11.93771,15.5044 -1.55692,0.383 -3.05227,1.426 -3.32301,2.3177 -2.19991,7.246 -6.39957,11.8056 -9.70533,10.537 -2.34298,-0.899 -2.08086,-2.2873 1.8591,-9.8462 3.45811,-6.6344 4.49897,-11.5695 2.44014,-11.5695 -2.27922,0 -12.3141,10.7991 -15.02548,16.1697 -1.5743,3.1184 -6.60856,9.6824 -11.18725,14.5868 -6.09035,6.5235 -8.90527,10.433604 -10.48715,14.567304 -5.0975,13.3206 -13.90817,22.4369 -17.86272,18.4824 -2.40034,-2.4004 -0.99647,-5.1485 6.84936,-13.4082 3.86505,-4.0689 6.73019,-7.398 6.36699,-7.398 -0.36321,0 -2.79427,1.0814 -5.40236,2.403 -11.40659,5.7801 -31.26729,9.2019 -43.65372,7.5211 -5.42976,-0.7369 -14.46818,-4.6222 -17.5021,-7.5237 -1.28399,-1.2279 -1.26046,-1.6042 0.19113,-3.0558 1.54054,-1.5405 2.05847,-1.5232 7.46428,0.2495 4.32842,1.4194 8.48492,1.8813 16.30888,1.8124 13.60702,-0.1199 24.28394,-2.4964 35.56501,-7.916004 7.35203,-3.5321 10.29816,-5.6623 15.59075,-11.2727 7.96772,-8.4462 11.42907,-14.3586 17.30179,-29.5536 6.10132,-15.7864 8.04225,-19.3541 11.5026,-21.1435 6.51571,-3.3694 6.63038,-0.9252 0.54337,11.5812 -2.47306,5.0812 -4.33608,9.3989 -4.14005,9.595 0.19604,0.196 2.76437,-1.264 5.7074,-3.2445 2.94302,-1.9806 11.89355,-6.9397 19.89004,-11.0204 32.41174,-16.5401 51.15555,-34.1481 61.40669,-57.6857 5.06602,-11.6321 12.07994,-22.9823 17.01058,-27.5272 5.09588,-4.6972 7.16428,-5.236 8.15216,-2.1235 0.50521,1.5918 -0.13974,2.8038 -2.68261,5.0412 l -3.34773,2.9457 3.5,-0.699 c 6.81293,-1.3606 21.31309,-0.6149 30,1.5427 18.85286,4.6826 41.73576,3.6991 58.77487,-2.5262 20.44422,-7.4693 24.75449,-8.6801 41.8101,-11.745 l 17.55728,-3.155 0.29794,-15 c 0.18587,-9.3576 0.85633,-16.9748 1.78239,-20.25 l 1.48445,-5.25 -3.12362,0 c -6.16185,0 -17.99145,-4.1764 -32.41311,-11.4435 -8.06867,-4.0658 -17.1453,-8.1531 -20.1703,-9.0828 -8.64545,-2.6572 -30.0728,-3.1052 -45.12104,-0.9435 -18.93112,2.7195 -26.45524,2.5564 -32.45709,-0.7034 -2.70703,-1.4703 -7.4756,-3.6275 -10.59685,-4.7938 -5.52441,-2.0643 -5.92237,-2.0784 -15,-0.534 -12.27122,2.0878 -18.60884,5.2893 -27.24304,13.7622 -5.61058,5.5058 -9.15965,7.9465 -17.08198,11.7475 -12.35787,5.9289 -46.84754,16.4881 -58.62128,17.9472 -10.43176,1.2928 -23.09495,6.2934 -40.25681,15.8972 -13.19826,7.3857 -21.35098,14.1221 -25.35021,20.9463 l -2.65659,4.5331 2.44244,1.5838 c 4.92873,3.1959 25.58353,18.9464 26.85506,20.4784 1.90993,2.3014 0.59227,4.6059 -2.63123,4.6019 -1.98734,0 -6.06442,-2.5883 -14.28138,-9.0577 -6.325,-4.9799 -13.62888,-10.1566 -16.23084,-11.5037 -11.16405,-5.7802 -27.40588,-7.0405 -39.15334,-3.038 -7.17197,2.4435 -10.08615,2.4255 -11.04306,-0.068 -1.969,-5.1312 4.86254,-7.1768 26.89624,-8.0538 l 14.969,-0.5957 6.42676,-5.452 c 17.91222,-15.1954 33.453,-24.2788 54.13524,-31.6412 l 9.5,-3.3817 -4.72947,-0.7128 c -6.35489,-0.9578 -16.41656,0.8828 -18.57797,3.3984 -0.9309,1.0834 -3.44286,3.1263 -5.58211,4.5398 -3.57313,2.3609 -4.7527,2.5674 -14.5,2.5382 -5.83575,-0.017 -15.11045,-0.6837 -20.61045,-1.4805 -18.47264,-2.6764 -50.49412,-1.6623 -63.09583,1.9982 -7.04185,2.0456 -18.81093,9.9709 -28.37349,19.107 -7.86388,7.513 -8.22744,7.7255 -17.211,10.0589 -5.16582,1.3417 -10.59211,3.4627 -12.41384,4.8522 -3.98046,3.036 -23.30151,23.6163 -25.36672,27.0199 -3.31017,5.4555 -4.25614,0.7819 -1.09566,-5.4131 1.0689,-2.0952 3.45119,-5.7898 5.29397,-8.2102 1.84279,-2.4204 3.65286,-4.8953 4.02239,-5.4999 0.84433,-1.3814 -16.65193,3.383 -25.03861,6.8182 -11.67311,4.7814 -16.9924,8.701 -23.33,17.191 -3.24752,4.3505 -5.71092,8.1037 -5.47423,8.3404 0.2367,0.2367 3.13199,-0.7821 6.434,-2.264 3.302,-1.4818 6.48635,-2.3959 7.07634,-2.0313 4.3263,2.6738 -4.1438,9.276 -19.36039,15.0908 -14.33652,5.4785 -22.62484,10.5555 -31.15123,19.0819 -6.09542,6.0954 -6.81896,8.3694 -2.66569,8.3778 3.45262,0.01 9.24465,1.5098 15.91425,4.129 l 5.16426,2.0281 5.71571,-4.6555 c 6.08909,-4.9596 9.97294,-6.9064 12.12822,-6.0794 2.92866,1.1239 1.17188,4.3383 -4.69302,8.5872 -3.31132,2.3988 -5.89882,4.6605 -5.75,5.0259 0.14882,0.3654 2.80075,2.7141 5.89318,5.2195 l 5.6226,4.5551 5.8774,-5.961 c 3.23257,-3.2786 8.1274,-7.47 10.8774,-9.3144 7.8728,-5.28 10.10573,-8.3089 13.92989,-18.8954 2.7603,-7.6415 3.4207,-10.7268 2.93978,-13.7343 -0.98409,-6.1542 3.40114,-11.3013 6.47394,-7.5988 1.53813,1.8533 -2.93484,23.3107 -6.288,30.1643 -3.77379,7.7134 -5.85412,9.989 -15.96352,17.4626 -5.00065,3.6968 -9.70253,7.8704 -10.44863,9.2748 -1.27586,2.4015 -1.08071,2.892 3.28109,8.2472 5.47983,6.7277 15.13668,26.3783 13.67926,27.8357 -1.60457,1.6046 -3.89651,0.031 -6.02205,-4.1359 -3.07257,-6.0227 -12.83732,-17.7692 -22.24364,-26.7579 -13.28593,-12.6961 -24.6099,-17.3693 -42.14072,-17.3905 -18.43594,-0.022 -35.83866,6.1729 -46.06413,16.3984 -6.78716,6.7871 -16.10979,20.7551 -18.5113,27.7352 -3.54283,10.297404 -5.6254,24.672004 -5.55676,38.354504 0.0585,11.6639 0.35126,13.7709 2.84833,20.5 5.66642,15.27 19.26891,36.3601 32.24754,49.9984004 8.42232,8.8503996 22.62453,20.5160996 36.83892,30.2593996 22.264,15.261 37.14961,19.8074 48.2933,14.7498 z m 92.87336,-83.6742 c -2.08553,-2.0855 -0.35888,-6.426 4.9015,-12.3214 6.50928,-7.2951 6.96913,-8.3298 9.04336,-20.3494 0.86356,-5.004 2.38401,-10.6936 3.37876,-12.6435 2.34702,-4.6006 6.79885,-9.0191 9.08706,-9.0191 3.71551,0 3.0752,2.3392 -1.96256,7.1698 l -5.14771,4.936 0.65024,9.2505 c 0.85003,12.0926 -1.09869,17.1487 -8.3027,21.542 -7.49973,4.5736 -8.54052,5.7967 -7.8003,9.1669 0.53772,2.4482 0.32746,2.9348 -1.26819,2.9348 -1.05203,0 -2.21279,-0.3 -2.57945,-0.6666 z m -31.46294,-71.461504 c -2.36296,-1.1697 -5.38255,-3.5508 -6.7102,-5.2914 -6.65051,-8.7193 -10.68134,-24.5198 -7.02855,-27.5514 1.2509,-1.0381 2.14475,-1.1332 3.36884,-0.3582 1.27958,0.81 1.58834,2.2265 1.33071,6.1045 -0.23625,3.5564 0.29257,6.4696 1.78821,9.8507 2.81167,6.3563 4.16194,7.7143 11.95337,12.0222 8.13027,4.4952 7.6219,4.0106 6.11395,5.8276 -1.76195,2.123 -5.75784,1.8999 -10.81633,-0.604 z m 65.99627,-4.0719 c -1.87132,-1.8713 -1.41341,-8.7277 0.90237,-13.5114 2.37395,-4.904 6.25703,-8.1838 15.80989,-13.3539 3.77749,-2.0444 7.10841,-4.6358 7.80828,-6.0747 0.67156,-1.3807 1.45876,-8.5454 1.75019,-15.9294 0.60043,-15.2135 2.12855,-21.6968 6.55392,-27.8059 2.49576,-3.4453 3.5853,-4.1888 5.76763,-3.9362 3.97774,0.4606 3.88313,3.1845 -0.32272,9.2912 -4.65855,6.764 -5.16629,10.8791 -3.43611,27.8484 l 1.32788,13.0237 -4.18423,3.7131 c -2.30133,2.0423 -7.72442,5.1403 -12.05131,6.8844 -10.11118,4.0759 -13.61521,7.5696 -13.36549,13.3262 0.1008,2.3235 -0.0594,5.012 -0.35591,5.9745 -0.61835,2.0071 -4.41116,2.3433 -6.20439,0.55 z m 172.21823,-11.1525 c -0.28545,-0.7438 0.90992,-3.6511 2.65638,-6.4606 3.86656,-6.22 4.00284,-9.4528 0.55039,-13.0564 -3.05165,-3.1852 -3.4418,-6.1305 -0.81209,-6.1305 2.56162,0 7.0851,5.0468 8.22554,9.1771 1.30332,4.7203 -0.22791,12.3313 -3.09488,15.383 -2.48874,2.6492 -6.69292,3.2567 -7.52534,1.0874 z m -177.44214,-60.9677 c -15.94212,-6.5592 -36.86755,-26.3705 -35.8003,-33.8942 0.57317,-4.0405 3.18588,-2.4564 7.33904,4.4497 9.14952,15.2142 20.29505,21.8695 40.70308,24.3048 6.08704,0.7264 8.2486,2.988 5.74226,6.0079 -1.88643,2.273 -11.47436,1.8102 -17.98408,-0.8682 z m 154.01468,-64.689 c -1.98057,-1.9806 -2.15022,-2.8648 -1.55651,-8.1124 0.65329,-5.7744 0.61155,-5.911 -2.13397,-6.9814 -2.65938,-1.0368 -11.0971,-0.677 -17.64972,0.7526 -2.36759,0.5165 -2.79035,0.3207 -2.5,-1.158 0.63409,-3.2293 5.05326,-5.4925 11.98957,-6.1402 12.6325,-1.1796 17.85986,1.371 17.85986,8.7144 0,8.2113 2.43682,9.3965 12.32507,5.9944 10.61044,-3.6505 21.42912,-9.9837 25.49017,-14.9218 6.47506,-7.8734 8.38063,-11.1042 8.72318,-14.79 0.40434,-4.3503 0.97112,-5.0003 2.93741,-3.3684 0.89209,0.7404 1.52417,2.8936 1.52417,5.1921 0,10.3581 -10.61058,21.0706 -30.83498,31.1311 -8.74579,4.3505 -11.38186,5.2002 -17.14319,5.5258 -5.99211,0.3386 -7.07466,0.1182 -9.03106,-1.8382 z m 133.00923,-29.3267 c 0,-1.2947 0.79971,-3.0778 1.77712,-3.9624 3.04924,-2.7595 12.66318,-6.6728 22.89594,-9.3198 9.00113,-2.3283 11.08746,-2.5008 24.82694,-2.0529 11.26254,0.3672 16.86861,1.0282 22.49952,2.6527 8.80602,2.5406 14.00048,5.484 14.00048,7.9332 0,2.9236 -0.93719,3.0032 -6.32638,0.5372 -10.11045,-4.6265 -17.09969,-5.8518 -33.67362,-5.9036 -18.38752,-0.058 -22.74567,0.8563 -36.25,7.6005 -9.52662,4.7577 -9.75,4.8153 -9.75,2.5151 z m -42.33332,-17.3307 c -4.15917,-4.1592 12.78311,-21.2934 18.77955,-18.9924 0.85457,0.328 1.55377,1.7354 1.55377,3.1277 0,2.0466 -0.48825,2.5313 -2.54966,2.5313 -4.77945,0 -8.28658,2.6758 -9.51136,7.2567 -0.62399,2.3338 -1.59563,4.8058 -2.1592,5.4933 -1.0881,1.3274 -4.99615,1.7003 -6.11311,0.5834 z m 48.92337,252.643904 c 17.19231,-4.3965 35.43425,-15.7748 51.93021,-32.3913 14.1053,-14.2084 25.47974,-33.173104 25.47974,-42.482504 0,-3.7384 -3.6889,-10.5003 -12.33112,-22.6035 -6.85634,-9.6021 -7.16357,-10.2785 -7.72166,-17 -0.52346,-6.3043 -1.03155,-7.6115 -5.11263,-13.154 -4.15714,-5.6458 -4.5781,-6.7609 -5.09681,-13.5 -0.63328,-8.2279 -6.17902,-25.9593 -10.95908,-35.0396 l -2.99724,-5.6936 -8.30568,0.5862 c -4.56812,0.3223 -13.85645,0.082 -20.64073,-0.5338 -37.9853,-3.4487 -37.42684,-3.4257 -43.10736,-1.7744 -7.02288,2.0416 -16.13924,8.1014 -18.34241,12.1924 l -1.74595,3.242 3.1878,3.6307 c 3.3543,3.8204 8.42715,13.1791 10.82033,19.9621 0.78077,2.2129 1.85857,8.5367 2.39509,14.0528 1.71917,17.6755 1.51946,17.0903 6.4787,18.9842 5.82938,2.2263 14.61337,11.6884 16.36333,17.6265 2.28878,7.7667 8.81813,20.6782 11.25622,22.2588 1.29756,0.8412 4.46899,2.0552 7.04761,2.6978 6.72319,1.6754 7.52118,3.0177 8.00308,13.461904 0.48815,10.58 3.20759,17.5457 10.45691,26.7848 5.10117,6.5013 5.12796,8.7152 0.10549,8.7152 -4.32537,0 -7.29468,-2.1795 -9.88406,-7.2551 -2.68949,-5.2719 -5.83971,-20.4791 -5.85669,-28.2723 -0.009,-3.948004 -0.57849,-6.834704 -1.6518,-8.367104 -1.557,-2.2229 -2.02444,-2.3059 -9.37684,-1.6645 -7.16046,0.6246 -7.93894,0.5023 -10.42751,-1.6383 -2.39586,-2.0608 -2.83017,-3.4637 -3.97968,-12.8544 -2.07374,-16.9415 -4.673,-20.5655 -16.82427,-23.4576 -8.42119,-2.0043 -11.75304,-3.8065 -11.75304,-6.3572 0,-1.0012 0.9,-4.4362 2,-7.6335 2.41925,-7.0316 2.54961,-14.2863 0.38751,-21.5668 -1.63449,-5.5039 -7.01319,-16.821 -9.68556,-20.379 -1.39689,-1.8598 -1.55224,-1.7679 -3.51459,2.0786 -1.12921,2.2134 -4.78566,7.3641 -8.12545,11.4458 -3.33979,4.0818 -5.8766,7.9384 -5.63737,8.5702 1.85129,4.8891 2.78218,14.8415 2.30469,24.6402 -0.49432,10.1441 -1.52392,15.4191 -6.36556,32.6129 l -0.67634,2.4019 4.06774,-2.2862 c 2.23727,-1.2575 6.89621,-4.753 10.35322,-7.768 8.8959,-7.7584 13.72665,-10.8146 15.03144,-9.5098 2.79957,2.7995 -3.94119,9.9242 -20.78658,21.9704 -5.41923,3.8754 -11.39083,8.9681 -13.27022,11.3172 l -3.41708,4.2712 9.91708,-0.6938 c 23.72707,-1.6598 27.19224,-2.3617 38.65901,-7.8308 5.90806,-2.8179 11.05874,-4.8066 11.44596,-4.4194 1.28382,1.2838 -11.08128,11.8153 -17.61907,15.0064 -8.41214,4.105904 -9.23535,5.512404 -5.73942,9.805804 6.83615,8.3956 7.68522,10.2426 8.23149,17.9062 0.29117,4.0849 1.19857,9.4993 2.01645,12.032 3.04735,9.4368 10.45616,18.0843 16.42265,19.1684 6.70094,1.2176 19.12915,0.6118 26.59005,-1.2961 z m -33.85558,-40.0172 c -6.23511,-1.5486 -11.73447,-4.7923 -11.73447,-6.9214 0,-2.9558 1.03504,-3.0642 9.05314,-0.9475 10.39606,2.7444 16.45197,2.7397 21.8253,-0.017 4.01881,-2.0616 4.51023,-2.1143 5.98305,-0.6415 1.89441,1.8944 0.98991,3.8423 -3.25633,7.0125 -2.12713,1.5882 -4.45894,2.0911 -10.42267,2.2479 -4.22537,0.1111 -9.37698,-0.2189 -11.44802,-0.7333 z m 65.9322,-58.626704 c -1.52016,-1.5202 -0.37274,-4.4989 4.98258,-12.9346 3.10709,-4.8943 6.71347,-10.5863 8.01419,-12.6488 5.70799,-9.0509 5.9051,-0.3922 0.2573,11.3029 -2.24359,4.6459 -5.19149,9.9096 -6.55089,11.6971 -2.30705,3.0336 -5.15526,4.1313 -6.70318,2.5834 z m -166.88149,3.9397 c 3.30731,-2.1037 4.17957,-3.2482 4.19951,-5.5101 0.0139,-1.5819 -0.3865,-1.5417 -4.48469,0.4493 -3.3959,1.6499 -4.5,2.7508 -4.5,4.487 0,2.7496 1.14823,2.8873 4.78518,0.5738 z m 309.34718,-44.344 c 4.31798,-2.3107 10.91768,-11.342 12.98988,-17.7757 2.7222,-8.452 3.6688,-27.9346 1.8942,-38.988 -6.2454,-38.9018 -33.39791,-73.8845 -54.8499,-70.6676 -6.09087,0.9134 -9.06151,2.5367 -13.37089,7.3067 -7.04978,7.8032 -10.4035,21.9898 -9.49096,40.1476 0.62568,12.4496 2.54592,20.7602 8.21377,35.5479 8.80399,22.9702 24.5616,41.0484 39.36136,45.1581 4.62084,1.2832 12.16636,0.9225 15.25254,-0.729 z m 29.18798,-10.7177 c 11.2366,-5.911 15.9149,-9.9489 19.1223,-16.5046 5.443,-11.125 7.1804,-31.83 3.9859,-47.4989 -3.8891,-19.0757 -10.5082,-33.939 -21.3774,-48.0027 -11.3403,-14.6733 -21.8435,-20.9389 -32.97343,-19.6702 -12.1157,1.3811 -34.07771,7.6389 -34.07771,9.71 0,0.4153 1.62451,0.755 3.61002,0.755 9.5153,0 26.57663,14.4055 36.13372,30.509 18.7656,31.6196 22.9141,75.1373 9.0798,95.247 l -2.9278,4.256 5.3021,-2.0803 c 2.9162,-1.1442 9.2713,-4.1683 14.1225,-6.7203 z m 85.3116,-30.841 c 1.8887,-0.8962 5.0433,-3.4837 7.0102,-5.75 18.2071,-20.9784 11.4104,-74.1581 -12.7899,-100.0715 -3.8276,-4.0985 -8.4121,-8.3498 -10.1879,-9.4473 -5.1151,-3.1613 -11.7613,-4.2741 -17.7967,-2.9797 -6.7728,1.4525 -13.6815,8.0785 -16.6208,15.9407 l -2.0329,5.4374 9.7705,0.5548 c 12.6063,0.7157 13.8848,1.5628 17.522,11.6102 2.5089,6.9307 3.7352,8.7323 10.6239,15.6082 8.4969,8.481 9.6405,11.1007 8.4146,19.2757 -1.1342,7.5634 -9.1168,14.7239 -19.4545,17.4509 -5.3653,1.4154 -9.0904,3.736 -9.0904,5.663 0,0.788 -1.1846,2.5305 -2.6323,3.8723 l -2.6324,2.4395 4.6995,5.5008 c 12.2629,14.3539 24.9886,19.7393 35.1971,14.895 z m 24.0911,-8.3941 c 6.6271,-3.313 14.1005,-7.8292 16.6076,-10.0361 17.759,-15.6321 16.4632,-62.5535 -2.5309,-91.6496 -5.9092,-9.0519 -14.7306,-18.1045 -20.2997,-20.8318 -7.5589,-3.7015 -24.065,-1.8286 -41,4.6522 l -6,2.2961 4.5795,0.6892 c 7.136,1.0739 12.7823,4.5191 20.9518,12.7843 17.4604,17.6647 28.0608,50.8235 24.97,78.1077 -1.2224,10.7911 -4.6557,21.5588 -8.4675,26.5563 -1.4496,1.9005 -2.2361,3.4554 -1.7478,3.4554 0.4883,0 6.31,-2.7106 12.937,-6.0237 z m -72.7522,-13.4612 c 1.5793,-0.8167 3.8104,-2.8034 4.9579,-4.415 2.5175,-3.5355 2.1352,-4.8597 -4.3027,-14.9034 -2.483,-3.8738 -5.6264,-9.2154 -6.9852,-11.87 -1.3588,-2.6547 -3.4336,-5.4084 -4.6107,-6.1195 -1.8086,-1.0925 -2.1021,-2.0996 -1.8946,-6.5 0.3319,-7.036 -0.5265,-9.0463 -4.7157,-11.044 -2.3976,-1.1433 -3.452,-2.2633 -3.2296,-3.4304 0.845,-4.4343 10.3957,-0.868 13.4397,5.0186 0.9807,1.8964 1.375,4.3307 1.038,6.4078 -0.8553,5.2701 1.8153,11.2042 9.2931,20.6502 3.8063,4.808 7.2024,9.6303 7.5471,10.7162 0.777,2.4482 0.7886,2.447 7.4919,-0.8338 4.1564,-2.0342 5.5856,-3.299 5.8504,-5.1775 0.4928,-3.4953 -2.2607,-8.0978 -7.4294,-12.4183 -8.3732,-6.9991 -4.2542,-12.4567 4.4341,-5.8753 4.6533,3.5249 9.1449,10.921 9.1449,15.0585 0,3.928 1.3958,3.9107 4.3558,-0.054 1.2896,-1.7273 1.9775,-4.2255 1.9775,-7.1814 0,-4.2472 -0.3823,-4.8951 -6.0717,-10.2882 -4.337,-4.1113 -7.2098,-8.0412 -10.0555,-13.7557 -5.6418,-11.329 -6.6171,-12.0281 -16.5669,-11.8737 -6.4215,0.1 -10.3049,0.8583 -18.4009,3.595 -5.6439,1.9078 -10.5216,3.7287 -10.8394,4.0464 -0.3177,0.3178 1.5308,4.0511 4.1078,8.2963 5.8169,9.5824 7.888,14.3749 10.9442,25.3237 2.1239,7.6093 2.8905,11.3409 5.1069,24.8623 0.5989,3.6533 1.3119,3.8858 5.413,1.7651 z m -377.47084,-42.0069 c 10.54324,-2.2993 24.49738,-6.7034 23.96559,-7.5638 -1.11766,-1.8085 -19.83317,-4.2163 -28.33785,-3.6458 -8.51177,0.5709 -22.769,4.121 -30.60647,7.6211 l -4.02126,1.7958 7,0.6747 c 3.85,0.3711 10.15,1.2599 14,1.975 7.57231,1.4066 7.63371,1.4037 18,-0.857 z"
       id="path3334"
       inkscape:connector-curvature="0" />
  </g>
</svg>
