<?xml version="1.0" encoding="UTF-8" standalone="no"?>
<!-- Created with Inkscape (http://www.inkscape.org/) -->

<svg
   xmlns:dc="http://purl.org/dc/elements/1.1/"
   xmlns:cc="http://creativecommons.org/ns#"
   xmlns:rdf="http://www.w3.org/1999/02/22-rdf-syntax-ns#"
   xmlns:svg="http://www.w3.org/2000/svg"
   xmlns="http://www.w3.org/2000/svg"
   xmlns:sodipodi="http://sodipodi.sourceforge.net/DTD/sodipodi-0.dtd"
   xmlns:inkscape="http://www.inkscape.org/namespaces/inkscape"
   width="899.79584"
   height="623.06177"
   id="svg2"
   version="1.1"
   inkscape:version="0.48.3.1 r9886"
   sodipodi:docname="Leg-raises-2.svg">
  <defs
     id="defs4" />
  <sodipodi:namedview
     id="base"
     pagecolor="#ffffff"
     bordercolor="#666666"
     borderopacity="1.0"
     inkscape:pageopacity="0.0"
     inkscape:pageshadow="2"
     inkscape:zoom="0.24748737"
     inkscape:cx="244.83449"
     inkscape:cy="48.35399"
     inkscape:document-units="px"
     inkscape:current-layer="layer1"
     showgrid="false"
     fit-margin-top="0"
     fit-margin-left="0"
     fit-margin-right="0"
     fit-margin-bottom="0"
     inkscape:window-width="1378"
     inkscape:window-height="738"
     inkscape:window-x="211"
     inkscape:window-y="83"
     inkscape:window-maximized="0" />
  <metadata
     id="metadata7">
    <rdf:RDF>
      <cc:Work
         rdf:about="">
        <dc:format>image/svg+xml</dc:format>
        <dc:type
           rdf:resource="http://purl.org/dc/dcmitype/StillImage" />
        <dc:title></dc:title>
      </cc:Work>
    </rdf:RDF>
  </metadata>
  <g
     inkscape:label="Ebene 1"
     inkscape:groupmode="layer"
     id="layer1"
     transform="translate(91.146684,-303.38574)">
    <path
       style="fill:#000000"
       d="m 420.77241,925.47775 c -0.825,-0.5009 -69,-17.6352 -151.5,-38.0762 -82.5,-20.4411 -150.5625,-37.6099 -151.25,-38.1529 -1.38765,-1.0961 -1.82908,-33.308 -0.48469,-35.3686 0.40408,-0.6194 9.64037,-5.4317 20.52509,-10.6941 l 19.79041,-9.568 49.13427,10.9361 c 27.02385,6.0148 49.23509,10.8272 49.35832,10.6941 0.12323,-0.1331 0.55551,-45.5557 0.96062,-100.939 l 0.73657,-100.69699 -2.3853,-0.53566 c -1.31191,-0.29461 -5.46612,-1.22204 -9.23158,-2.06095 l -6.84628,-1.52529 -7.65372,5.11977 -7.65371,5.11977 -8.15453,-0.42756 c -6.61612,-0.34689 -9.38464,-1.03313 -14.67487,-3.6375 -13.27928,-6.53737 -24.73439,-16.49168 -41.66021,-36.20208 -17.15405,-19.97617 -23.27713,-29.96241 -29.09808,-47.45652 -3.00007,-9.01631 -3.31914,-11.08206 -3.24361,-21 0.101,-13.26416 3.10361,-25.95152 9.24145,-39.04933 4.71687,-10.06554 11.81785,-20.40873 16.10918,-23.46443 l 3.01146,-2.14436 -3.89161,-4.42111 c -5.91082,-6.71504 -11.41521,-17.93343 -13.55956,-27.63547 -0.9491,-4.29416 -3.24864,-2.338 -4.01146,3.41244 -1.34455,10.13565 -7.00922,17.60156 -20.07976,26.46467 -12.97687,8.79958 -26.887088,13.8839 -35.932768,13.13376 -6.39571,-0.53038 -14.70921,-4.42461 -21.76639,-10.19586 l -5.18432,-4.23965 -11.43811,6.79533 c -6.29095,3.73744 -12.21088,7.04061 -13.15539,7.34038 -1.3698,0.43476 -1.8388,2.21016 -2.31785,8.77434 -0.87187,11.94669 -2.99648,17.17931 -9.70003,23.88985 -14.54749957,14.56267 -39.05549,25.49311 -51.28121,22.87117 -30.48073,-6.53695 -60.19177,-57.93468 -53.74162,-92.96873 3.20438,-17.40464 16.18019,-29.64154 40.02929,-37.74983 13.51022,-4.59325 20.30693,-4.52602 29.94595,0.29618 4.03869,2.02047 10.00521,6.21977 13.5537804,9.53928 7.99967,7.4833 9.08137,7.30536 20.1770196,-3.31911 4.49721,-4.30624 8.54721,-7.83027 9,-7.8312 0.45279,-9.2e-4 0.94958,-3.40093 1.10399,-7.55558 0.1544,-4.15465 0.98749,-9.66639 1.8513,-12.24832 4.84186,-14.47229 22.1049,-26.83573 45.77139,-32.78056 5.6877,-1.42871 7.59531,-1.50861 12.07615,-0.50584 6.08547,1.36187 15.37836,6.72559 21.919218,12.65147 4.15985,3.76873 4.65986,3.96567 6.98091,2.74954 6.40828,-3.35763 16.92214,-4.65591 50.80488,-6.27352 22.05266,-1.05282 35.12459,-0.11875 40.96892,2.92749 2.22501,1.15974 4.81361,1.86482 5.75243,1.56685 0.93882,-0.29797 3.85108,-0.1412 6.47167,0.34838 4.42415,0.82652 5.17064,0.64535 10.44356,-2.53465 9.13913,-5.51165 14.63459,-6.66749 29.11783,-6.12424 10.92662,0.40984 13.73204,0.8915 21.561,3.70182 20.01681,7.18533 19.72978,7.12339 24.61392,5.31202 3.22125,-1.19465 7.83855,-1.62581 17.38608,-1.6235 12.05082,0.003 13.73014,0.24593 23,3.32827 9.6491,3.20844 10.40353,3.30526 21.5,2.75925 15.62025,-0.7686 24.91741,-3.34544 35.58106,-9.86181 4.72376,-2.88661 9.60125,-6.45177 10.83886,-7.92258 7.60283,-9.03546 33.4766,-22.2477 47.60181,-24.30751 5.61276,-0.81848 24.70404,1.75733 33.76286,4.55532 3.68934,1.13952 12.33458,4.88008 19.21165,8.31235 12.4613,6.21931 12.54112,6.24279 23.50376,6.91416 22.44236,1.3744 37.05229,5.28623 49.05571,13.13475 8.09101,5.29036 29.14668,26.61839 33.34658,33.77794 1.8712,3.1899 5.0155,9.7149 6.9874,14.5 l 3.5852,8.70018 -0.2493,15.24308 -0.2492,15.24307 5.6166,11.25693 c 9.9664,19.97463 15.7399,25.57934 24.93,24.2012 l 4.477,-0.67137 0,-6.20279 c 0,-24.68632 12.4703,-39.46026 41.4792,-49.14182 9.4669,-3.15952 11.8895,-3.59911 17.5877,-3.1914 23.725,1.69752 50.6207,36.42351 55.9687,72.2631 2.1096,14.13729 -0.3398,28.98609 -5.96,36.131 -6.3004,8.00964 -26.4703,20.33819 -39.9248,24.40351 -9.1652,2.76927 -15.1191,2.24026 -24.0016,-2.13259 l -6.3685,-3.13519 -6.607,1.63044 c -4.711,1.16257 -7.567,2.55908 -9.9524,4.86663 l -3.3454,3.2362 11.312,0.61541 c 9.5243,0.51815 12.5659,1.1207 19.2456,3.81254 9.3846,3.78193 11.9939,5.51156 20.4102,13.52898 l 6.3436,6.04307 12.1564,-0.21337 c 6.6859,-0.11736 18.6813,-0.34236 26.6563,-0.5 14.4676,-0.28599 14.5122,-0.27993 19.9718,2.71337 5.9775,3.27718 9.4162,7.56086 11.1594,13.90104 1.3432,4.88569 -0.094,19.77833 -3.3341,34.53964 -1.9343,8.81362 -1.9815,10.10882 -0.7096,19.5 1.6379,12.09469 1.6076,36.50953 -0.057,46.38183 -1.6158,9.5793 -4.1206,13.0708 -11.5655,16.1217 -5.6772,2.3265 -6.9999,2.446 -27.4645,2.4811 -20.5189,0.035 -21.6974,-0.068 -25.8256,-2.2531 -4.6146,-2.443 -7.1744,-6.7211 -7.1744,-11.9901 0,-3.1308 3.7705,-8.953 10.5398,-16.2749 10.0827,-10.90575 10.4834,-16.96989 2.2733,-34.40721 -6.3539,-13.49508 -6.7431,-14.58542 -8.2408,-23.08643 l -1.0723,-6.08643 -11,3.48997 c -14.9754,4.75123 -29.6288,5.42486 -46.9141,2.15667 -13.0726,-2.47169 -18.0929,-2.24109 -24.5567,1.128 -7.4531,3.8848 -18.6619,1.19084 -29.6907,-7.13598 -2.889,-2.18119 -5.497,-3.9658 -5.7956,-3.9658 -0.2986,0 -0.5429,2.21968 -0.5429,4.93261 0,3.84152 0.3871,5.04267 1.75,5.43016 0.9625,0.27365 22.9,3.97012 48.75,8.21437 25.85,4.24425 47.5218,8.21317 48.1595,8.81984 1.4519,1.38119 3.9728,33.38125 2.7251,34.59269 -4.9798,4.83514 -25.3457,20.01104 -26.8846,20.03334 -4.1202,0.06 -225.0479,-42.35382 -226.14581,-43.41525 -1.34806,-1.30329 -2.85356,-34.52134 -1.63995,-36.18478 0.43217,-0.59236 6.17286,-3.9382 12.75709,-7.43519 l 11.97132,-6.35818 38.52868,5.21808 c 21.19077,2.86994 39.15412,5.20328 39.91855,5.18519 1.14228,-0.027 1.30153,-2.48907 0.89401,-13.82099 l -0.49586,-13.78811 -5.6031,-9.2943 c -5.37552,-8.91677 -10.73164,-21.17207 -12.12319,-27.73894 -0.3624,-1.7102 -1.91188,-4.30988 -3.44329,-5.77707 l -2.78439,-2.66761 -90.41702,47.21645 c -49.72937,25.96904 -92.92771,48.24308 -95.99633,49.49786 -8.19251,3.34999 -23.6791,5.61674 -34.6707,5.07469 l -9.25,-0.45617 0,103.36062 c 0,56.8484 0.2296,103.3607 0.51023,103.3607 1.46064,0 139.67726,30.9978 140.50918,31.512 0.58727,0.3629 0.98059,8.534 0.98059,20.3715 l 0,19.7655 -15.39039,11.1755 c -8.46472,6.1465 -15.77722,11.149 -16.25,11.1167 -0.47279,-0.032 -1.53461,-0.4687 -2.35961,-0.9696 z m 15.28005,-16.0746 11.68861,-8.397 -0.23433,-15.929 -0.23433,-15.9289 -69.42193,-15.3413 c -38.18207,-8.4377 -70.01957,-15.8373 -70.75,-16.4435 -1.08878,-0.9036 -1.32807,-20.1669 -1.32807,-106.9124 0,-99.90343 -0.0977,-105.83966 -1.75,-106.33897 -3.6807,-1.11229 -37.50227,-8.60594 -38.84171,-8.60594 -1.20255,0 -1.40829,16.12565 -1.40829,110.37761 0,99.4897 -0.15623,110.5072 -1.58382,111.692 -3.11463,2.5849 -4.8873,-0.081 -5.20815,-7.8333 l -0.29197,-7.0542 -7.70803,-1.7143 c -4.23942,-0.9429 -26.32491,-5.8813 -49.07887,-10.9741 l -41.37083,-9.2598 -17.37917,8.5937 -17.37916,8.5937 0,13.0844 0,13.0843 148.75,37.1373 c 81.8125,20.4255 149.44557,37.0089 150.29572,36.852 0.85014,-0.1569 6.80559,-4.0639 13.23433,-8.6823 z M 788.4816,687.89565 c 3.5842,-1.7949 6.4278,-4.0453 7.5063,-5.9406 3.8878,-6.8319 4.7524,-25.75979 2.224,-48.68294 -0.8583,-7.7812 -1.2628,-15.29927 -0.899,-16.70681 2.4993,-9.66845 5.4595,-26.37908 5.4595,-30.81902 0,-2.91741 -0.6273,-6.8056 -1.3939,-8.64044 -3.7696,-9.02198 -18.9468,-13.48833 -34.6061,-10.18396 -9.6978,2.04639 -22.9052,2.06854 -27.7446,0.0465 -2.0241,-0.84575 -7.4338,-4.2649 -12.0216,-7.59811 -8.1235,-5.90214 -21.6793,-12.56066 -30.2944,-14.88048 -3.2519,-0.87566 -5.7948,-0.86004 -10.7011,0.0657 l -6.4356,1.2143 0.607,3.03465 c 0.3338,1.66905 1.7282,4.5047 3.0986,6.30144 2.9559,3.87538 3.1476,5.40023 0.6788,5.40023 -2.1528,0 -6.3161,-4.22592 -8.5745,-8.70329 l -1.6156,-3.20329 -5.2485,2.44352 c -2.8867,1.34394 -5.811,2.44792 -6.4985,2.45329 -0.6875,0.005 -1.2544,1.02227 -1.2598,2.25977 -0.016,3.73439 -4.4377,12.0101 -8.5865,16.07134 -5.0765,4.96936 -19.6744,14.76824 -25.6836,17.24014 -2.5919,1.06618 -4.7143,2.23432 -4.7163,2.59585 -0.01,1.8272 10.7835,9.99352 15.5821,11.78892 6.838,2.55842 8.9829,2.56871 13.6534,0.0655 5.9182,-3.17194 12.8441,-3.46918 25.7877,-1.1067 11.5006,2.09908 27.8047,2.86574 33.4782,1.57423 1.6471,-0.37495 8.3948,-2.39158 14.9948,-4.4814 16.2428,-5.14313 21.1503,-5.72707 26.253,-3.12389 5.1368,2.62061 10.247,6.93315 10.247,8.64754 0,2.31792 -3.8917,2.79106 -6.6743,0.81142 -6.1236,-4.35665 -7.9563,-5.3227 -10.1071,-5.32767 -1.2548,-0.003 -2.5385,0.66483 -2.8528,1.48384 -1.1842,3.08593 2.9849,17.30437 8.3599,28.5109 5.1187,10.67224 5.5215,12.03984 5.5952,19 0.1006,9.50773 -1.9953,13.83972 -11.4395,23.64342 -3.9494,4.0998 -6.8814,8.0172 -6.8814,9.1942 0,2.9635 3.9455,6.9206 8,8.0233 1.925,0.5236 11.0238,0.8319 20.2196,0.6851 16.1808,-0.2584 16.9054,-0.3601 22.4896,-3.1565 z m -20.1917,-0.3611 c -2.1125,-3.4182 5.0847,-14.0284 9.5158,-14.0284 2.9452,0 2.3031,2.2399 -1.2899,4.5 -2.139,1.3454 -3.5415,3.2899 -4.2853,5.9412 -1.1309,4.0312 -2.7534,5.5081 -3.9406,3.5872 z m -114.83,-89.67424 c -0.3781,-0.37813 -0.6875,-1.90755 -0.6875,-3.39871 0,-1.49117 -0.675,-4.32671 -1.5,-6.30122 -1.857,-4.44437 -1.8563,-4.65424 0.015,-4.65424 2.519,0 5.5625,6.03321 5.2577,10.42228 -0.259,3.72996 -1.5902,5.42659 -3.0849,3.93189 z m 134.7605,-8.60417 c -2.8466,-8.72587 -3.6834,-9.09072 -13.1883,-5.75 -6.7931,2.38756 -7.3637,2.43449 -6.639,0.54595 0.6915,-1.80209 7.6638,-5.13639 12.461,-5.95915 6.8566,-1.17595 14.2005,7.16829 12.4494,14.14518 -0.9789,3.90015 -3.2779,2.5514 -5.0831,-2.98198 z m -87.448,-7.08785 c -6.5249,-1.51322 -13.5216,-4.973 -14.333,-7.08753 -1.058,-2.75706 1.2467,-2.70958 6.069,0.12502 4.5579,2.67923 5.3263,2.80036 17.764,2.80036 7.15,0 15.025,-0.41113 17.5,-0.91363 4.0747,-0.82727 4.3746,-0.76156 3.173,0.6952 -3.3853,4.10441 -20.5921,6.60252 -30.173,4.38058 z m 0.6654,83.08786 10.4706,-8.25001 -0.6138,-10.5 c -0.3376,-5.775 -0.8313,-11.63438 -1.0971,-13.02085 -0.4823,-2.51561 -0.5826,-2.53725 -48.2042,-10.40315 -26.2465,-4.33527 -48.5084,-8.27922 -49.4709,-8.76434 -1.4813,-0.74659 -1.75,-2.33541 -1.75,-10.34684 l 0,-9.46482 -5.7782,0 c -6.67015,0 -17.11956,-4.42446 -23.79725,-10.07617 -2.1585,-1.82686 -4.65528,-3.92544 -5.5484,-4.66353 -1.49107,-1.23222 -1.58211,0.11405 -1.11337,16.46303 0.44324,15.45929 0.3012,17.97869 -1.0781,19.12341 -3.28875,2.72941 -5.16272,1.04793 -5.4789,-4.91614 l -0.29422,-5.54995 -39.05884,-5.36254 -39.05883,-5.36253 -9.64694,5.12954 -9.64694,5.12953 0,13.46118 c 0,7.40365 0.225,13.64049 0.5,13.85965 0.68893,0.54903 214.92889,41.51063 217.84739,41.65133 1.5342,0.074 5.9748,-2.7449 12.818,-8.1368 z M 349.27241,616.26309 c 5.74569,-1.73279 33.64278,-15.83601 99,-50.04888 74.23484,-38.86009 90.93087,-47.96526 90.62479,-49.42215 -0.20636,-0.98226 -0.33996,-5.79242 -0.29688,-10.68926 0.0431,-4.89684 -0.35032,-9.70428 -0.87423,-10.68321 -0.5239,-0.97892 -3.65281,-3.9013 -6.95312,-6.49417 -3.30031,-2.59287 -6.00056,-5.31087 -6.00056,-6.04001 0,-1.05222 -2.01122,-1.19912 -9.75,-0.71214 -12.90158,0.81188 -15.17161,2.19275 -33.18635,20.18746 -10.89641,10.88429 -15.71558,14.98603 -19.65324,16.72745 -7.10755,3.1433 -24.27732,5.55652 -39.66554,5.57503 l -12.75512,0.0153 -8.94123,8.94123 c -6.72606,6.72606 -10.62681,9.73961 -15.74487,12.1638 -6.73625,3.19063 -6.95226,3.22225 -21.80365,3.19177 -16.79237,-0.0345 -20.77447,-0.82174 -39,-7.71044 -10.19479,-3.85333 -11.74125,-4.16137 -21.1262,-4.20822 l -10.12621,-0.0505 -5.53807,3.81274 c -11.93259,8.2151 -19.93831,19.39286 -21.31331,29.7581 -0.38997,2.93978 -1.63354,6.93897 -2.76349,8.8871 -3.13348,5.40241 -11.60325,17.15222 -14.96476,20.76007 -2.25138,2.41638 -2.64575,3.34452 -1.58312,3.72587 1.16448,0.41791 58.49321,13.1903 66.91516,14.90818 1.375,0.28046 8.125,0.35415 15,0.16374 9.58986,-0.2656 14.36249,-0.90789 20.5,-2.75885 z m -30.5,-26.47005 c -7.44839,-1.31311 -43.83348,-9.51137 -45.75,-10.30836 -2.4512,-1.01933 -2.99043,-4.12547 -1,-5.76038 0.88048,-0.72322 8.34469,0.58252 25.25,4.41709 20.82432,4.7235 25.01958,5.38536 31.70541,5.00191 8.71306,-0.49972 -2.11105,4.32395 108.79459,-48.48335 58.44461,-27.82819 60.65069,-28.67188 59.81068,-22.87412 -0.25775,1.77904 -13.59884,8.47972 -78.31068,39.33219 -49.26691,23.48885 -79.9954,37.5931 -83.41678,38.28798 -5.35315,1.08722 -12.22807,1.24298 -17.08322,0.38704 z m -91.06572,21.5465 c 9.35757,-4.4405 29.14294,-27.68371 32.17238,-37.79505 0.97586,-3.25714 0.79482,-5.64385 -1.13451,-14.95696 l -2.29565,-11.08139 -4.08825,-0.064 -4.08825,-0.064 3.16892,-1.57907 c 1.9515,-0.97244 4.24518,-3.54102 5.97045,-6.68605 5.25698,-9.58302 3.18365,-26.9554 -3.65374,-30.61466 -2.45059,-1.31152 -6.2578,-1.47407 -11.23563,-0.47971 -3.41641,0.68245 -3.75,0.55499 -3.75,-1.43278 0,-3.01082 5.90356,-5.44086 11.0895,-4.5647 5.63244,0.95159 11.71861,5.79685 14.13055,11.24945 2.85198,6.44737 2.81599,17.78859 -0.0801,25.23543 -2.40245,6.17754 -2.63765,9.27387 -1.05035,13.82721 l 1.08961,3.12566 3.76588,-4.72644 c 8.52556,-10.70014 26.44261,-26.39537 38.5549,-33.77386 l 3,-1.82752 -3.13001,3.43748 c -2.8125,3.08888 -5.36998,7.02845 -5.36998,8.27208 0,0.2563 2.3625,1.01842 5.25,1.6936 2.8875,0.67518 11.25411,3.43499 18.59246,6.13291 17.19331,6.32108 23.70369,7.80607 34.3022,7.82419 17.52418,0.03 30.09168,-5.98451 44.05504,-21.08358 8.03404,-8.68748 15.63748,-14.90164 18.23318,-14.90164 0.41644,0 -0.43284,2.03059 -1.88729,4.51242 -2.4589,4.1958 -2.51819,4.56417 -0.84502,5.25 3.08474,1.26443 25.43551,0.49527 33.15862,-1.1411 4.04756,-0.85759 9.22999,-2.65561 11.51651,-3.99561 5.96341,-3.49479 27.58285,-26.12745 30.94331,-32.39351 2.00999,-3.74792 3.04603,-7.50834 3.61004,-13.10309 0.89975,-8.92521 2.97607,-13.22454 7.58549,-15.70687 4.74052,-2.55294 5.99938,-1.50737 3.03034,2.51692 -2.96984,4.02541 -4.09145,8.92112 -2.8779,12.56178 l 0.86943,2.60828 4.19029,-2.81423 c 6.37771,-4.28332 15.07526,-11.61241 15.77738,-13.29499 0.3919,-0.93917 -0.23961,-2.05043 -1.68908,-2.97218 -4.1031,-2.60929 -8.25106,-7.52383 -10.88704,-12.89905 l -2.57205,-5.24484 -3.69726,5.99004 c -5.43977,8.81313 -11.1674,13.33065 -23.22414,18.31744 l -10.41704,4.30859 -0.009,5.66821 c -0.005,3.11752 -0.27839,6.37091 -0.60796,7.22977 -0.63883,1.66476 -7.20932,6.12682 -7.9424,5.39373 -0.24004,-0.24003 0.52252,-2.70619 1.69457,-5.48034 4.18498,-9.90557 0.20969,-12.99785 -9.93993,-7.73203 l -4.97156,2.57933 3.37927,5.61184 c 3.77847,6.27477 4.45815,12.24416 1.82257,16.00698 -2.68254,3.82985 -3.97574,2.74803 -3.61742,-3.02613 0.29615,-4.7724 0.0114,-5.6148 -3.12245,-9.23609 l -3.44832,-3.98474 -0.71911,4.2564 c -0.55679,3.2956 -1.36443,4.59011 -3.5779,5.73474 -4.07237,2.1059 -5.36174,1.82796 -3.04683,-0.6568 1.09405,-1.17433 2.27233,-3.42433 2.61841,-5 0.70425,-3.20643 -0.20097,-8.54368 -1.59518,-9.40535 -0.5014,-0.30988 -3.35477,3.18468 -6.34082,7.76569 -6.60432,10.13192 -13.42469,16.73077 -25.46163,24.63464 -16.21725,10.64881 -25.99767,13.08715 -42.6036,10.62141 -5.77275,-0.85718 -12.41574,-2.25544 -14.76218,-3.10727 -2.34645,-0.85182 -7.97877,-1.79787 -12.51627,-2.10233 -8.47621,-0.56875 -9.99754,-1.57644 -6.61639,-4.38255 2.25518,-1.87163 11.40163,-1.64828 19.67176,0.48038 4.10676,1.05704 10.84795,1.78911 17,1.84615 8.581,0.0795 11.36501,-0.31782 17.58889,-2.51052 11.48123,-4.0449 22.50387,-11.15292 32.10809,-20.70512 8.07,-8.02628 8.84432,-9.18372 13.89366,-20.76795 5.09427,-11.68729 10.63494,-21.03444 11.78611,-19.88326 0.29416,0.29415 -0.67049,5.1045 -2.14366,10.68967 -1.47316,5.58517 -2.53448,10.28818 -2.35847,10.45113 0.78465,0.72645 31.34656,-7.63448 37.76699,-10.33206 13.00631,-5.46467 26.17817,-18.36914 27.61181,-27.05128 0.32752,-1.98344 0.99443,-4.86402 1.48203,-6.4013 0.82227,-2.5924 0.54871,-3.00931 -3.77291,-5.75 -2.56244,-1.62522 -5.5611,-2.95495 -6.66342,-2.95495 -3.95421,0 9.6e-4,-2.04747 5.1282,-2.65472 5.00131,-0.59233 5.15881,-0.52716 10.26075,4.2451 6.30237,5.89513 7.33861,7.88314 8.93506,17.14177 1.57337,9.12481 3.84703,12.46464 12.49968,18.36105 6.95043,4.73643 15.2766,7.79463 26.68319,9.80071 3.0861,0.54276 10.0611,2.93507 15.5,5.31625 l 9.8889,4.32942 8,-2.33398 c 9.97721,-2.91083 14.45269,-2.46536 24.42549,2.43124 15.5756,7.64753 31.5657,28.12365 39.1994,50.1968 3.0001,8.67481 4.0605,13.88059 4.7464,23.30221 l 0.6287,8.63585 3.5,-1.13585 c 2.5298,-0.82098 4.0192,-2.19886 5.3728,-4.9705 1.7792,-3.64307 1.7917,-4.16333 0.2494,-10.41314 -0.8929,-3.61816 -3.6481,-10.03212 -6.1228,-14.25323 -3.1163,-5.31556 -4.4994,-8.80048 -4.4994,-11.33687 0,-4.48564 2.4995,-5.03779 4.129,-0.91211 0.5974,1.5125 1.575,3.65 2.1724,4.75 5.9297,10.91826 8.7907,17.22368 9.3218,20.54483 0.3478,2.17534 0.8131,3.95517 1.034,3.95517 0.2209,0 2.6085,-1.74441 5.3057,-3.87647 3.9119,-3.09212 6.081,-4.02063 10.7206,-4.58893 7.1916,-0.88089 12.0331,-3.06646 12.9095,-5.82764 1.2886,-4.06006 0.5524,-12.34021 -1.622,-18.24285 -1.2084,-3.28026 -3.4102,-10.23911 -4.893,-15.46411 -1.4828,-5.225 -3.2164,-10.45384 -3.8524,-11.61965 -2.8285,-5.18441 -16.4747,-7.97564 -34.2256,-7.00058 -8.2244,0.45176 -13.8914,0.20882 -19.8955,-0.8529 -4.6176,-0.81652 -8.578,-1.66707 -8.8011,-1.8901 -0.223,-0.22304 0.9675,-0.88415 2.6456,-1.46913 1.678,-0.58498 3.051,-1.29798 3.051,-1.58444 0,-0.28646 -2.0527,-3.69398 -4.5615,-7.57226 -2.5089,-3.87829 -7.6684,-13.58387 -11.4656,-21.56795 -8.7025,-18.29797 -14.962,-27.43553 -27.0937,-39.55077 -10.45236,-10.43821 -21.32529,-18.17302 -31.74034,-22.57953 -13.94372,-5.89945 -20.55205,-9.86232 -24.00371,-14.39449 -4.16817,-5.47299 -4.74739,-5.80584 -12.1887,-7.00423 -8.02651,-1.29263 -11.55581,-0.29658 -27.70433,7.81879 l -13.25788,6.66269 -24.24212,0.0839 c -26.69115,0.0924 -30.14727,0.69811 -44.24211,7.75368 -6.27149,3.13937 -19.5,12.42462 -19.5,13.68729 0,2.9328 21.53286,15.93581 31,18.71991 4.47975,1.3174 4.46167,1.32205 -4.01587,1.03311 -7.989,-0.27229 -9.082,-0.58874 -17.66599,-5.11471 -13.2775,-7.00065 -18.8106,-12.90145 -16.37133,-17.45928 0.96313,-1.79961 0.65436,-2.03664 -3.45609,-2.65304 -6.18779,-0.92791 -17.25235,0.38997 -21.48861,2.55947 -4.6877,2.4007 -16.12849,14.39441 -19.07245,19.9942 -2.03151,3.86421 -2.41575,4.17965 -2.71954,2.23265 -0.70325,-4.50718 3.7511,-14.44775 10.13386,-22.61531 l 3.03421,-3.88265 -3.59467,-3.29427 c -5.64048,-5.16912 -12.85443,-6.51308 -23.80889,-4.43561 -2.91409,0.55264 -5.48955,0.8136 -5.72325,0.5799 -1.03321,-1.03321 4.99786,-3.72856 10.51917,-4.70112 8.31621,-1.46487 15.40373,0.1368 23.35953,5.27888 l 6.26367,4.0484 7.2187,-1.1645 c 4.48902,-0.72415 11.31564,-0.91456 18.05313,-0.50354 l 10.83442,0.66097 6.90838,-4.57252 c 12.09273,-8.00395 25.90222,-11.67802 47.09162,-12.52892 l 15,-0.60236 -8,-4.69127 c -10.40329,-6.10057 -23.77851,-10.51048 -36.35287,-11.98578 -11.20594,-1.31476 -11.5779,-1.2454 -24.83395,4.63099 -11.32948,5.02234 -25.79204,8.49986 -38.31318,9.21238 -9.57746,0.54501 -11.37861,0.34599 -20.5,-2.26513 -8.98494,-2.57205 -11.52259,-2.86458 -25,-2.88191 -13.06925,-0.0168 -15.85279,0.27549 -21.62532,2.27076 -13.06716,4.51666 -23.67559,12.16385 -42.08415,30.33677 -13.36444,13.19338 -15.97401,14.10873 -8.86487,3.1095 7.1492,-11.06119 27.27388,-30.11585 37.35537,-35.3692 l 3.13362,-1.63289 -11.11784,-3.59416 c -14.80112,-4.78488 -23.6416,-6.12548 -30.71314,-4.65743 -8.93445,1.85478 -18.32776,8.86285 -31.82049,23.74032 -5.87182,6.47444 -10.16463,8.69818 -19.76318,10.23764 -16.08814,2.58028 -17.19537,3.17527 -22.28112,11.97308 -2.77307,4.79713 -3.2643,5.23754 -3.55479,3.18706 -0.52773,-3.72503 2.63761,-10.73944 6.29569,-13.95127 4.30335,-3.7784 10.11657,-5.86145 19.97448,-7.15747 4.36385,-0.57372 9.31385,-1.84815 11,-2.83207 3.53584,-2.06328 12.0034,-13.66275 11.07286,-15.1684 -0.34383,-0.55633 -2.36129,-1.01152 -4.48323,-1.01152 -2.12194,0 -5.80789,-0.83112 -8.19098,-1.84692 -6.71618,-2.86281 -12.21009,-3.14751 -42.83291,-2.21962 -20.93209,0.63426 -29.79937,1.27429 -33.3933,2.41031 -8.55448,2.70403 -20.40316,11.66584 -39.011878,29.50685 -19.37211,18.57289 -24.33363,22.4004 -31.98108,24.67145 -7.78401,2.3116 -9.89977,1.89838 -5.16685,-1.00911 3.42216,-2.10228 3.68805,-2.50943 2,-3.06253 -5.65916,-1.85423 -8.09875,-2.90827 -9.52657,-4.11597 -2.99375,-2.53223 -14.15893,-6.49139 -16.58742,-5.88188 -1.299,0.32603 -4.87251,2.86648 -7.94113,5.64544 l -5.57932,5.05265 4.73616,-0.71023 c 3.44396,-0.51645 4.5436,-0.39865 4.03037,0.43178 -1.08765,1.75984 -5.65314,3.8206 -10.09944,4.55865 -6.8226296,1.1325 -7.0394996,1.65384 -3.1934196,7.67676 7.5554996,11.83182 13.8241196,26.77624 15.2666496,36.39573 0.37291,2.48668 1.08706,4.77404 1.58702,5.08303 2.10756,1.30255 7.33512,-1.13153 15.49429,-7.21451 4.78239,-3.56545 10.24107,-7.12853 12.13042,-7.91795 1.88935,-0.78942 7.7799,-4.28201 13.09012,-7.76131 5.31022,-3.4793 11.22779,-6.87499 13.15016,-7.54598 1.92237,-0.671 9.79522,-1.85602 17.49522,-2.6334 17.315348,-1.74812 25.308278,-4.15939 34.774008,-10.49046 l 7.3621,-4.92407 1.23229,-6.68787 c 1.47605,-8.01083 3.97217,-13.18156 9.05633,-18.76025 2.08046,-2.28283 4.09383,-5.43496 4.47415,-7.00475 1.14856,-4.7406 3.50081,-7.42556 10.69613,-12.209 8.04885,-5.35087 8.68962,-6.14262 6.35364,-7.85073 -1.28423,-0.93905 -1.4292,-1.4801 -0.54331,-2.02761 1.89722,-1.17254 5.92584,0.25753 7.1455,2.5365 1.42381,2.66042 -0.37101,4.73975 -8.19232,9.49095 -7.21114,4.38053 -10.85852,8.61945 -10.85852,12.61957 0,2.09921 -1.12305,4.29517 -3.59717,7.03372 -4.60448,5.0966 -6.16853,8.93151 -7.47569,18.32961 -2.17556,15.64168 2.47387,30.02724 12.73618,39.40642 3.8697,3.53669 6.11578,4.92046 7.22588,4.45174 18.10968,-7.64651 34.747,-9.19686 48.37573,-4.50789 8.2288,2.83113 13.81072,6.40686 22.13049,14.1766 4.06617,3.79735 8.22813,6.90834 9.24881,6.91329 1.02067,0.005 3.1065,-1.45754 4.63516,-3.25 l 2.77939,-3.25901 -0.66397,4 c -0.36519,2.2 -1.30906,5.64198 -2.0975,7.64884 -1.33842,3.40679 -1.27166,3.97067 1.00632,8.5 3.93827,7.83049 7.09642,17.35111 6.08964,18.35789 -1.47399,1.47399 -2.71445,-0.0567 -6.76104,-8.34308 -4.87567,-9.98408 -17.09355,-26.23652 -22.76292,-30.27962 -10.19073,-7.2675 -20.13909,-10.35447 -33.36931,-10.35447 -16.85395,0 -27.13676,4.31879 -39.13641,16.43734 -6.16557,6.22667 -8.9826,10.01144 -11.62983,15.62507 -9.01671,19.12056 -11.66177,39.97036 -6.90233,54.40803 5.69391,17.27237 17.36589,37.67195 28.84905,50.42064 7.59983,8.43739 26.23759,25.16674 33.14706,29.75299 11.31556,7.51084 20.6611,9.16753 29.10674,5.15977 z M 655.7724,493.18268 c 0,-4.60806 -0.9624,-5.67654 -5.1132,-5.67654 -2.7601,0 -3.6321,-2.98187 -1.3581,-4.64461 2.6759,-1.95671 6.8806,-1.66557 8.9487,0.61962 1.2429,1.37339 1.8232,3.73414 1.905,7.75 0.1073,5.26942 -0.079,5.80297 -2.1324,6.09454 -2.0449,0.29043 -2.25,-0.0871 -2.25,-4.14301 z m -300.93767,-27.5601 c -0.55443,-1.03595 -1.49807,-5.0418 -2.09698,-8.90188 -1.2271,-7.90884 -0.10829,-16.75837 3.01928,-23.88171 l 1.82962,-4.16715 -2.86898,-1.18837 c -3.83307,-1.58771 -11.94526,-10.3717 -11.94526,-12.93449 0,-2.82794 0.79068,-2.62405 8.0704,2.08106 10.52486,6.80255 17.34719,8.22948 27.81158,5.81696 2.41008,-0.55563 4.65856,-0.73366 4.99661,-0.39561 0.33805,0.33805 -1.06473,2.15366 -3.11729,4.03469 -2.51097,2.30114 -4.71161,3.42006 -6.72638,3.42006 -1.64695,0 -4.77757,0.71347 -6.95695,1.58548 -3.54904,1.42004 -4.28306,2.35547 -7.03455,8.96487 -3.95916,9.51031 -4.63115,14.72831 -2.6176,20.32538 0.8658,2.40665 1.57418,4.99415 1.57418,5.75 0,2.02817 -2.77152,1.66971 -3.93768,-0.50929 z M 332.1714,436.75614 c -6.0505,-15.13684 -12.70218,-23.46798 -23.20777,-29.0674 -6.75071,-3.59809 -12.19122,-7.7863 -12.19122,-9.38504 0,-0.64461 1.63572,-0.77936 4.41026,-0.36329 l 4.41026,0.66136 2.20711,-5.79781 c 3.48977,-9.16719 3.57336,-12.9864 0.48706,-22.25371 -1.49665,-4.49403 -2.46059,-8.43154 -2.1421,-8.75003 1.54762,-1.54762 7.84019,7.47424 9.67476,13.87102 1.08708,3.79044 -1.29084,18.23288 -3.83766,23.30823 -1.43974,2.86913 -1.3919,3.04436 1.36517,5 11.05972,7.84489 20.67299,21.75996 22.06893,31.94448 0.78767,5.74665 -1.08809,6.22772 -3.2448,0.83219 z m -91.08643,-9.03566 c -3.88584,-2.47084 -4.56141,-15.75613 -1.06256,-20.89563 3.94536,-5.79537 4.68085,-4.20299 1.60229,3.46906 -1.17008,2.91594 -1.0627,4.02295 0.94947,9.78844 2.59019,7.42167 2.10269,9.92205 -1.4892,7.63813 z m -48.62831,-6.86342 c -0.37634,-0.37634 -0.68425,-1.69425 -0.68425,-2.92869 0,-4.86944 11.05021,-10.42223 20.74052,-10.42223 5.49148,0 4.77009,1.47392 -1.65529,3.38205 -6.58307,1.95496 -11.00825,4.29501 -14.65098,7.74749 -1.68616,1.59809 -3.37366,2.59772 -3.75,2.22138 z m 389.3757,-11.10092 c -1.80283,-3.1625 -5.06437,-9.04919 -7.24787,-13.08153 -3.18041,-5.87337 -5.19736,-8.22103 -10.14104,-11.80381 -3.39407,-2.45974 -8.82553,-5.55005 -12.06991,-6.86734 -10.20896,-4.14505 -10.40617,-6.49625 -0.38168,-4.5505 8.12823,1.57769 17.44984,6.20762 21.43064,10.64436 2.40571,2.68125 10.35379,18.69328 15.18324,30.58785 0.18334,0.45153 -0.52815,0.82097 -1.58109,0.82097 -1.28389,0 -2.99401,-1.89381 -5.19229,-5.75 z M 184.95599,395.7826 c 0.26683,-2.29672 2.26186,-3.91852 12.73025,-10.3487 11.90784,-7.31436 15.23113,-10.18167 23.18729,-20.00584 3.58225,-4.42331 10.24708,-8.90705 11.45071,-7.70342 1.50353,1.50353 -1.08253,5.05952 -5.93857,8.1659 -3.9516,2.5278 -5.92143,4.69598 -8.0015,8.80717 -2.67436,5.28579 -3.09912,5.62105 -13.78564,10.88113 -7.12918,3.5091 -12.22698,6.75268 -14.42358,9.1773 -4.02307,4.44069 -5.65287,4.76123 -5.21896,1.02646 z m 284.12806,-4.71965 c -9.37461,-2.93078 -22.31164,-12.93856 -22.31164,-17.25976 0,-1.26338 0.23136,-2.29705 0.51413,-2.29705 0.28277,0 2.90167,1.94468 5.81978,4.32151 4.95019,4.03199 16.74647,9.67849 20.21963,9.67849 0.84288,0 4.23981,-2.6739 7.54874,-5.94201 6.24481,-6.16775 8.96924,-7.492 17.39772,-8.45641 7.99253,-0.91453 10.65075,2.57289 2.77438,3.63981 -8.62323,1.16809 -12.95183,4.60197 -18.47787,14.65852 -1.45583,2.6494 -2.25543,3.09037 -5.5,3.03319 -2.08808,-0.0368 -5.68127,-0.65612 -7.98487,-1.37629 z M 99.772412,382.1208 c 0,-2.69335 12.629928,-13.3325 18.382118,-15.48467 11.32999,-4.23909 23.11788,-3.52546 23.11788,1.39954 0,1.82873 -0.58926,1.94531 -8.19162,1.62071 -10.82437,-0.46217 -16.15501,1.36508 -24.37961,8.3569 -6.49305,5.5198 -8.928768,6.64031 -8.928768,4.10752 z M 521.24011,363.47243 c -1.59856,-1.66854 -4.92112,-3.62115 -7.38347,-4.33914 -6.47899,-1.88918 -6.43943,-3.62798 0.0824,-3.62341 6.27959,0.004 11.46603,2.68465 12.40064,6.40841 0.62395,2.48588 -0.0354,4.58785 -1.4392,4.58785 -0.41464,0 -2.0618,-1.36517 -3.66037,-3.03371 z m 96.84709,220.92081 c 6.0192,-7.01321 7.1937,-11.13 7.1005,-24.8871 -0.072,-10.59526 -0.5009,-13.87141 -2.8158,-21.5 -9.1162,-30.04274 -31.75679,-55.5 -49.3592,-55.5 -6.77781,0 -11.36557,2.12033 -14.65786,6.77443 -4.62835,6.54283 -5.42314,9.68758 -5.50635,21.78723 -0.0955,13.88007 2.11392,23.04385 9.01638,37.39685 8.81441,18.32873 19.48844,30.63878 32.09822,37.01792 5.8032,2.93577 6.90726,3.15595 13.76321,2.74479 6.9929,-0.41937 7.6336,-0.65646 10.3609,-3.83412 z m 21.5053,-10.23703 c 13.9207,-9.50241 16.7535,-15.64917 15.9456,-34.59986 -0.5693,-13.35308 -3.9112,-24.95163 -11.0515,-38.35505 -10.8342,-20.33743 -28.4367,-35.33175 -41.21419,-35.10735 -5.91531,0.10388 -21.8992,5.31436 -29,9.4535 l -5,2.91457 5.09028,0.0221 c 20.43986,0.0886 47.35421,32.96766 53.96731,65.92742 2.3324,11.62458 1.6647,27.87747 -1.3887,33.8048 -1.1929,2.31559 -2.1689,4.48979 -2.1689,4.83156 0,0.78062 5.3737,-2.44344 14.8201,-8.89165 z m 88.1112,-45.63037 c 8.7371,-2.50576 13.3282,-12.00733 13.2975,-27.5197 -0.031,-15.70851 -4.5553,-31.05149 -13.8587,-47 -5.8341,-10.00114 -19.5769,-24.07225 -27.3701,-28.02395 -10.1015,-5.12218 -21.3025,-3.09853 -26.719,4.82724 -2.9325,4.29109 -5.281,13.7452 -5.281,21.25928 l 0,6.14238 8.7307,0.67109 c 21.0223,1.6159 23.7353,4.29646 31.9061,31.52413 5.3521,17.83532 5.8187,25.67591 1.8738,31.48907 l -2.4894,3.66833 2.7394,1.0844 c 7.664,3.03384 11.6281,3.46734 17.1707,1.87773 z m 23.0687,-10.80301 c 9.8599,-6.2446 15.16,-11.33276 17.9088,-17.1928 2.3311,-4.96944 2.5862,-6.67819 2.5412,-17.02389 -0.053,-12.3054 -1.877,-20.90448 -7.0651,-33.31565 -10.1907,-24.37843 -30.3041,-43.68435 -45.5114,-43.68435 -4.7853,0 -18.5687,4.32208 -26.3735,8.26995 l -6,3.03497 6.3974,1.3148 c 15.9268,3.2733 31.8144,18.95937 43.0716,42.52537 6.6777,13.97918 9.3638,25.27711 9.3568,39.35491 0,10.36324 -0.4614,12.84077 -3.8427,20.86633 -0.7154,1.69787 -0.5696,1.75203 1.6153,0.60001 1.3209,-0.69648 4.8766,-2.83382 7.9016,-4.74965 z M 550.31999,490.81936 c 3.39176,-6.93251 11.38779,-15.13092 18.88306,-19.36098 5.82838,-3.28934 5.84439,-3.31112 3.70617,-5.04254 -3.95998,-3.2066 -15.91216,-7.05925 -24.37969,-7.85851 -4.54142,-0.42868 -9.83212,-1.44329 -11.75712,-2.25471 l -3.5,-1.4753 -7.5,7.00212 c -4.125,3.85117 -9.41628,8.22543 -11.75841,9.72058 -3.94397,2.51774 -4.09165,2.76315 -2,3.32364 4.23395,1.13455 16.32451,0.63605 22.29831,-0.91938 3.27806,-0.85352 9.6726,-3.5265 14.2101,-5.93995 8.04064,-4.27673 8.25,-4.32912 8.25,-2.0645 0,3.02181 -6.19412,8.61592 -13.78025,12.44538 -8.73684,4.41034 -8.87878,4.82171 -3.80005,11.01304 3.95145,4.8171 4.40111,5.93388 5.0108,12.44494 1.04683,11.17927 1.91574,12.06448 2.72641,2.77754 0.51666,-5.91881 1.51118,-9.96984 3.39067,-13.81137 z M -22.696018,505.0574 c 4.73151,-1.97695 8.26386,-7.91582 10.11901,-17.01288 6.0160604,-29.50073 -19.02588,-77.41833 -45.01899,-86.14357 -8.59733,-2.88591 -18.31881,0.12697 -22.56186,6.99236 -16.25911,26.30779 10.01403,86.80376 42.21631,97.20639 4.61534,1.49094 10.07616,1.1176 15.24553,-1.0423 z M -0.22758757,494.16784 C 9.1855224,487.94539 13.035472,484.17322 15.526562,478.73198 c 6.87122,-15.00873 1.80647,-42.78319 -11.8956896,-65.23456 -10.1219,-16.58499 -26.4471404,-29.26928 -37.5639904,-29.18624 -5.75129,0.043 -17.81948,3.89658 -27.06531,8.64249 l -6.72916,3.4541 4.5,0.059 c 17.55721,0.23 41.2146,25.59111 50.87555,54.53941 6.3026504,18.88539 6.4912404,34.85836 0.57787,48.9436 -0.7496,1.78548 -0.49617,1.75036 3.1153004,-0.43181 2.1622,-1.30648 5.95628,-3.71402 8.43128003,-5.35009 z M 86.940142,450.47627 c 7.36735,-2.04628 12.83227,-12.11887 12.83227,-23.65163 0,-4.36324 -0.31432,-5.33516 -1.75,-5.41124 -9.34543,-0.49524 -18.01598,2.00507 -26.01414,7.50164 -2.60472,1.79004 -7.08792,4.86788 -9.96267,6.83963 l -5.22681,3.58501 3.65706,3.21093 c 4.87496,4.28028 14.95502,8.9551 19.29656,8.94916 1.925,-0.003 5.15048,-0.4632 7.16773,-1.0235 z M 112.13852,438.2455 c 8.47155,-5.73556 13.1186,-10.77884 14.98839,-16.26636 0.90182,-2.64669 1.52201,-4.92983 1.3782,-5.07363 -0.14381,-0.14381 -3.26699,0.57193 -6.94041,1.59054 -3.67341,1.01861 -9.11877,2.15685 -12.10079,2.52943 l -5.42186,0.67742 -0.54212,8.15162 c -0.29817,4.48339 -1.2727,9.85784 -2.16563,11.94323 l -1.623498,3.79161 3.280798,-1.68614 c 1.80445,-0.92738 5.92056,-3.47335 9.14692,-5.65772 z M 621.403,405.05175 C 619.9402,384.24179 610.6086,368.27794 589.26779,350.07732 570.20158,333.81659 562.44136,330.705 538.12577,329.57109 l -16.14665,-0.75297 -13.85335,-6.57764 c -16.45096,-7.81099 -23.6665,-10.2711 -34.45951,-11.74887 -9.46946,-1.29655 -19.04639,-0.15807 -30.71678,3.65153 -11.1417,3.63701 -11.32682,3.98458 -2.53828,4.76555 11.70723,1.04033 20.06092,3.25739 27.09465,7.19087 7.55878,4.22711 25.50295,17.50353 24.71816,18.28831 -0.3061,0.30611 -7.17044,-2.86372 -15.25408,-7.04405 -27.85393,-14.40426 -46.67191,-17.49338 -55.64614,-9.13476 l -2.94861,2.74635 3.44861,0.68443 c 1.89674,0.37643 6.88939,1.1621 11.09478,1.74592 16.90198,2.34649 32.52984,9.24993 43.19542,19.08112 l 4.35039,4.01005 5.67081,-1.47706 c 6.40144,-1.66737 13.55196,-5.08589 21.63722,-10.34433 4.95488,-3.22252 6.19379,-3.58064 12.5,-3.61323 12.94094,-0.0669 16.20235,0.97349 21.91573,6.99096 3.6433,3.83721 6.92648,6.11322 11.58427,8.03062 19.6539,8.0906 39.83897,20.86286 48.3531,30.5958 2.50529,2.86391 7.83759,10.30097 11.84969,16.52678 4.012,6.22582 7.4741,11.31967 7.6935,11.31967 0.2194,0 0.1,-4.25448 -0.2657,-9.45439 z M 71.522412,381.16588 c 5.0875,-5.01613 9.25,-9.60885 9.25,-10.20605 0,-1.69125 -10.96887,-12.7006 -16.23902,-16.29895 -16.56642,-11.31122 -31.23975,-5.69344 -34.68383,13.27892 -2.06518,11.37639 -2.42363,10.76081 9.67285,16.61157 13.55335,6.55541 18.10714,8.03104 20.75,6.72392 1.1,-0.54404 6.1625,-5.09328 11.25,-10.10941 z m 23.79993,-24.53616 8.360678,-9.58982 -2.2053,-2.34962 c -3.967578,-4.22719 -13.490798,-9.9332 -18.639968,-11.16846 -4.55982,-1.09389 -5.91242,-0.96156 -14.05979,1.37549 -4.95803,1.4222 -12.00812,4.09496 -15.66686,5.93946 l -6.65226,3.35365 5.08839,0.60265 c 2.79862,0.33145 6.81828,1.48516 8.93258,2.56379 6.00441,3.06323 15.42047,10.53929 19.56042,15.53038 2.55454,3.07973 4.27557,4.34761 5.34462,3.93738 0.86724,-0.33279 5.33911,-4.9205 9.93749,-10.1949 z"
       id="path3073"
       inkscape:connector-curvature="0" />
  </g>
</svg>
