<?xml version="1.0" encoding="UTF-8" standalone="no"?>
<!-- Created with Inkscape (http://www.inkscape.org/) -->

<svg
   xmlns:dc="http://purl.org/dc/elements/1.1/"
   xmlns:cc="http://creativecommons.org/ns#"
   xmlns:rdf="http://www.w3.org/1999/02/22-rdf-syntax-ns#"
   xmlns:svg="http://www.w3.org/2000/svg"
   xmlns="http://www.w3.org/2000/svg"
   xmlns:xlink="http://www.w3.org/1999/xlink"
   xmlns:sodipodi="http://sodipodi.sourceforge.net/DTD/sodipodi-0.dtd"
   xmlns:inkscape="http://www.inkscape.org/namespaces/inkscape"
   width="896.91168"
   height="788.29224"
   id="svg2"
   version="1.1"
   inkscape:version="0.48.3.1 r9886"
   sodipodi:docname="Lying-one-arm-rear-lateral-raise-1.svg">
  <defs
     id="defs4">
    <radialGradient
       gradientUnits="userSpaceOnUse"
       gradientTransform="matrix(1,0,0,0.91819829,-19.285714,-7.9105395)"
       r="209.56604"
       fy="287.50052"
       fx="398.1105"
       cy="287.50052"
       cx="398.1105"
       id="radialGradient5255"
       xlink:href="#linearGradient5249"
       inkscape:collect="always" />
    <linearGradient
       id="linearGradient5249"
       inkscape:collect="always">
      <stop
         id="stop5251"
         offset="0"
         style="stop-color:#e3e3e3;stop-opacity:1;" />
      <stop
         id="stop5253"
         offset="1"
         style="stop-color:#e3e3e3;stop-opacity:0;" />
    </linearGradient>
  </defs>
  <sodipodi:namedview
     id="base"
     pagecolor="#ffffff"
     bordercolor="#666666"
     borderopacity="1.0"
     inkscape:pageopacity="0.0"
     inkscape:pageshadow="2"
     inkscape:zoom="0.70000001"
     inkscape:cx="293.15003"
     inkscape:cy="294.86911"
     inkscape:document-units="px"
     inkscape:current-layer="layer1"
     showgrid="false"
     showguides="true"
     inkscape:guide-bbox="true"
     fit-margin-top="0"
     fit-margin-left="0"
     fit-margin-right="0"
     fit-margin-bottom="0"
     inkscape:window-width="1217"
     inkscape:window-height="830"
     inkscape:window-x="378"
     inkscape:window-y="223"
     inkscape:window-maximized="0">
    <sodipodi:guide
       orientation="-0.70710678,0.70710678"
       position="-1703.8003,398.71744"
       id="guide2985" />
  </sodipodi:namedview>
  <metadata
     id="metadata7">
    <rdf:RDF>
      <cc:Work
         rdf:about="">
        <dc:format>image/svg+xml</dc:format>
        <dc:type
           rdf:resource="http://purl.org/dc/dcmitype/StillImage" />
        <dc:title></dc:title>
      </cc:Work>
    </rdf:RDF>
  </metadata>
  <g
     inkscape:label="Ebene 1"
     inkscape:groupmode="layer"
     id="layer1"
     transform="translate(-275.22902,362.9269)">
    <path
       style="fill:#000000"
       d="m 633.71014,423.64915 c -2.0878,-0.97505 -274.21143,-68.92127 -276.05248,-68.92721 -0.57885,-0.002 -1.8984,2.34912 -2.93234,5.22441 -2.48492,6.91033 -5.4239,9.7722 -10.03549,9.7722 -1.98615,0 -4.54776,-0.50124 -5.69245,-1.11386 -1.2198,-0.65281 -6.51939,-1.04794 -12.8036,-0.95461 -10.19029,0.15134 -10.87502,0.0308 -13.79955,-2.43006 -1.69247,-1.42412 -3.34928,-3.44653 -3.68181,-4.49424 -0.33253,-1.04771 -1.4133,-2.16159 -2.4017,-2.4753 -2.74284,-0.87054 -4.08337,-4.88177 -3.4418,-10.2988 0.42483,-3.58709 0.18187,-5.2496 -0.92961,-6.36109 -0.82763,-0.82762 -6.07721,-2.54148 -11.66573,-3.80858 -5.58853,-1.2671 -10.81402,-2.95688 -11.61221,-3.75507 -1.16794,-1.16793 -1.45125,-5.21385 -1.45125,-20.72483 0,-17.09969 0.19738,-19.4481 1.75,-20.82086 0.9625,-0.851 11.875,-6.46545 24.25,-12.47655 21.58972,-10.48711 22.75271,-11.20079 28.74635,-17.6404 8.61834,-9.2596 10.57952,-13.3773 10.03206,-21.06334 -0.60081,-8.43509 -9.77903,-29.83476 -18.67326,-43.53801 -23.27568,-35.86065 -31.80484,-52.20175 -36.17003,-69.2985 -2.53676,-9.93552 -4.89316,-26.44402 -4.9168,-34.446288 -0.0134,-4.54391 -0.95337,-8.78349 -3.51832,-15.86929 -5.78852,-15.99103 -4.4126,-29.3029 4.53719,-43.89701 4.79838,-7.82456 5.26311,-9.18361 7.49725,-21.92502 2.77632,-15.8335199 3.81446,-19.9560399 7.08071,-28.11775 l 2.40494,-6.0095 -4.56286,-12.9379 c -5.57228,-15.8002 -7.02649,-25.6766 -5.48557,-37.2559 5.18066,-38.930302 25.7905,-68.520902 54.51665,-78.272302 4.76942,-1.6191 5.18635,-2.0593 8.62478,-9.1081 8.07419,-16.5521 23.7675,-28.8947 46.22418,-36.355 15.10224,-5.0171 17.3286,-6.3398 28.59566,-16.9885 15.4833,-14.6335 27.35914,-20.7156 47.10139,-24.1226 9.1841,-1.5849 14.8094,-1.5629 32.0322,0.1252 6.4246,0.6298 6.9215,0.4989 23,-6.0569 27.6802,-11.2863 33.768,-13.2737 42.9831,-14.0322 15.8321,-1.3033 28.4596,-4.8641 40.7887,-11.5019 4.338,-2.3355 6.099,-3.9935 7.5323,-7.0916 2.6943,-5.8239 10.9642,-11.8929 27.1294,-19.9093 18.0517,-8.952 26.8977,-11.3416 38.8823,-10.5034 20.7491,1.4511 31.2002,4.3918 53.1898,14.9665 l 15.0721,7.2481 11.8919,0.7109 c 13.951,0.8341 31.679,3.7188 39.4864,6.4252 12.9394,4.4855 23.0233,11.3075 37.7783,25.5582 15.3906,14.8646 21.3783,23.7245 28.2911,41.8616 3.2481,8.5221 3.9081,11.484 3.9081,17.5384 0,8.3985 1.4197,12.4501 6.2585,17.86 4.7977,5.364 5.6712,7.3544 6.3917,14.5644 0.7667,7.6714 2.0948,10.4344 9.0344,18.7961 2.967,3.575 6.565,8.884 7.9957,11.7977 2.3096,4.704 2.5373,6.105 2.0318,12.5 -0.3131,3.9613 -1.2675,9.1459 -2.1208,11.5215 l -1.5515,4.3193 4.0655,5.384802 c 5.5995,7.4165 15.8597,25.6132 20.8228,36.9299 2.8756,6.5568 4.4591,11.9334 5.2214,17.7288 1.5192,11.5502 1.3015,11.1169 5.0996,10.1476 5.8575,-1.4949 22.3329,-0.4913 29.0609,1.7702 13.1212,4.4104 19.94,8.3218 28.3879,16.28363 4.70896,4.4381301 9.60026,8.1284801 11.49336,8.6713901 4.9388,1.41645 22.4872,1.07226 29.3087,-0.57486 3.3,-0.79682 9.6903,-1.45579 14.2008,-1.46438 22.1943,-0.0423 34.7833,8.07654 36.8658,23.7752899 0.8395,6.32792 -0.9783,22.16045 -4.2528,37.04064 -2.4878,11.30546 -2.4898,11.36007 -0.9037,23.72632 2.6183,20.412347 1.9211,48.050188 -1.5363,60.905878 -1.5553,5.78308 -7.2394,10.98436 -14.4186,13.19388 -5.0834,1.56451 -9.542,1.83354 -30.4552,1.8376 -23.7426,0.005 -24.6485,-0.0683 -29.3019,-2.35953 -5.7012,-2.80715 -7.7747,-5.63561 -8.4367,-11.50856 -0.65826,-5.84033 1.2499,-9.55086 9.8799,-19.2123 7.9683,-8.92046 10.6325,-13.48578 11.4804,-19.67199 0.8116,-5.921228 -0.831,-11.341278 -7.6504,-25.242848 -6.2752,-12.79221 -8.9713,-21.27012 -8.9713,-28.2101 0,-2.35944 -0.3712,-4.2899 -0.8249,-4.2899 -0.4536,0 -4.1661,1.14039 -8.24996,2.5342 -15.2587,5.20779 -22.1094,6.4658 -35.2107,6.4658 -7.7907,0 -15.7772,-0.65362 -21.3334,-1.74594 -4.8846,-0.96027 -13.381,-1.74777 -18.881,-1.75 -8.9622,-0.004 -10.327,0.24131 -13.1503,2.36028 -2.7889,2.09313 -3.9978,2.32153 -10.5389,1.99123 -8.6957,-0.43912 -17.6143,-4.31534 -26.4069,-11.47705 l -5.4039,-4.40153 0,6.40309 c 0,5.81159 0.2078,6.45361 2.25,6.94983 1.2375,0.30071 27,4.67243 57.25,9.71494 30.25,5.04251 55.5171,9.68277 56.1492,10.31168 0.6549,0.65159 1.635,7.81096 2.2784,16.64347 0.621,8.525 1.3739,17.146218 1.6731,19.158268 l 0.5441,3.65826 -14.8224,11.89915 c -8.1523,6.54453 -15.3827,12.23597 -16.0674,12.64764 -0.6847,0.41167 -41.4583,-6.92667 -90.6079,-16.30742 -49.1496,-9.38074 -89.8421,-17.0559 -90.4277,-17.0559 -0.5857,0 -3.1343,2.96052 -5.6638,6.57894 l -4.599,6.57895 4.5029,5.00831 c 18.5341,20.61441 30.8922,54.14384 29.2121,79.25747 -1.1887,17.76887 -4.7461,24.42722 -18.6716,34.94746 -17.4098,13.15243 -34.9801,20.62887 -48.4796,20.62887 -8.8976,0 -13.8146,-1.6529 -22.0568,-7.41462 l -6.346,-4.43617 -4.3765,2.89884 c -2.407,1.59437 -7.1585,6.48795 -10.5588,10.87463 -4.8027,6.19594 -6.1823,8.73516 -6.1823,11.37867 0,7.14359 -7.0014,13.78543 -15.2529,14.46972 l -5.3359,0.44249 -3.3884,6.53524 c -2.7172,5.24084 -4.919,7.74503 -11.1162,12.64322 -17.3078,13.6798 -36.8756,22.58079 -49.6816,22.59904 -23.0656,0.0329 -48.6269,-25.10477 -63.0359,-61.99106 -7.6771,-19.65307 -8.8959,-45.21192 -2.7895,-58.5 7.0793,-15.4053 24.8603,-28.01061 49.4691,-35.06959 16.647,-4.77514 28.0643,-1.77729 43.8237,11.50685 3.9559,3.33451 7.4245,6.06274 7.708,6.06274 0.7668,0 20.3694,-16.56836 25.8496,-21.84833 4.292,-4.13524 4.7507,-5.01398 4.7575,-9.11408 0.028,-16.99425 6.2468,-29.77785 17.6029,-36.18681 2.9146,-1.64488 5.598,-3.93214 5.9632,-5.08278 0.3652,-1.15065 0.08,-7.66279 -0.6344,-14.47143 -1.2433,-11.853468 -1.1993,-12.834228 1.0351,-23.087948 2.0058,-9.20441 4.6124,-17.71327 7.4924,-24.45862 0.6204,-1.45301 0.2162,-1.75 -2.3817,-1.75 -6.3147,0 -24.4202,-10.29412 -40.7268,-23.15574 -3.378,-2.66434 -6.3881,-4.84426 -6.6892,-4.84426 -0.301,0 -19.0799,9.64058 -41.7307,21.42351 -30.2922,15.75794 -43.2592,21.98364 -49.0329,23.54154 -8.6475,2.33335 -27.6659,3.95929 -38.1088,3.25804 l -6.7033,-0.45014 0.4765,121.303398 c 0.2621,66.71687 0.6376,121.46438 0.8343,121.66113 0.1968,0.19675 35.8488,8.19952 79.2268,17.78394 43.378,9.58442 80.5566,17.90607 82.6191,18.49254 l 3.75,1.06632 0,23.94732 0,23.94731 -3.8755,2.44646 c -2.1315,1.34556 -10.0884,6.9762 -17.6821,12.51255 -7.5937,5.53634 -14.5122,10.03562 -15.3746,9.9984 -0.8623,-0.0372 -2.4678,-0.488 -3.5678,-1.00172 z m 18.8866,-18.60229 14.6134,-10.67169 0,-18.18108 0,-18.18107 -83.25,-18.41846 -83.25,-18.41846 -0.5,-125.14582 c -0.275,-68.8302 -0.725,-125.363658 -1,-125.629898 -0.275,-0.26624 -11.3,-2.92549 -24.5,-5.90945 l -24.00002,-5.42537 -0.5,130.363048 c -0.43887,114.424 -0.6834,130.47898 -2,131.31118 -4.34118,2.74401 -5.99912,0.12889 -6.00458,-9.47124 l -0.005,-8.05 -12.24541,-2.85695 -12.24542,-2.85696 -9,1.7561 c -4.95,0.96586 -10.125,2.32207 -11.5,3.01381 -5.10465,2.56808 -18.89103,16.60579 -24.70272,25.15307 -6.35439,9.34542 -11.89077,19.05999 -11.20894,19.66809 0.57787,0.51538 273.04599,68.39134 275.04829,68.51872 0.9002,0.0573 8.2127,-4.69814 16.25,-10.56757 z M 322.829,357.71855 c 0.61538,-2.475 1.4556,-12.825 1.86716,-23 0.41156,-10.175 1.21156,-19.4 1.77778,-20.5 0.56621,-1.1 2.26368,-3.42143 3.77215,-5.15874 1.50847,-1.73731 3.50364,-5.44981 4.43372,-8.25 2.21959,-6.68256 4.5312,-6.85678 4.52793,-0.34126 -0.002,3.87845 -0.72453,5.81306 -3.93807,10.54372 -2.39727,3.52902 -4.32816,7.82879 -4.93975,11 -1.3155,6.82111 -3.56469,28.84435 -3.59555,35.20628 -0.0231,4.76161 0.0949,4.98396 2.47575,4.66354 1.375,-0.18505 2.91135,-0.73141 3.41412,-1.21412 0.50277,-0.48272 1.46358,-6.63131 2.13514,-13.66354 1.42887,-14.96243 1.94981,-16.51661 8.49602,-25.34696 5.36256,-7.2337 8.72895,-14.12466 11.37883,-23.29239 1.92425,-6.65725 5.30797,-10.64653 9.03044,-10.64653 3.42731,0 3.20353,1.50631 -0.78991,5.31715 -2.52592,2.41041 -3.74856,4.84683 -5.03793,10.03933 -1.19508,4.8128 -3.90436,10.51011 -9.08954,19.11427 -7.94134,13.17766 -9.0566,16.1753 -10.09393,27.13088 -0.8186,8.64545 0.36241,11.67176 4.37402,11.2083 2.33124,-0.26932 3.55944,-1.98854 9.37396,-13.12148 3.68018,-7.04635 9.30518,-16.18862 12.5,-20.31615 3.19483,-4.12754 7.89787,-10.45651 10.45121,-14.06437 5.52772,-7.81068 13.97781,-14.05455 24.22391,-17.89935 3.92351,-1.47228 8.5867,-3.30813 10.36264,-4.07967 10.98349,-4.77166 16.27102,-5.52848 16.27102,-2.32891 0,1.21297 -0.68865,2.02596 -1.75,2.06596 -1.23425,0.0465 14.12962,4.34243 17.5,4.89319 0.1375,0.0225 0.25,-1.46458 0.25,-3.30456 0,-3.01164 -0.81898,-3.97259 -8.20884,-9.63185 -7.53101,-5.76736 -11.74334,-7.86476 -18.94983,-9.43551 -3.36029,-0.73242 -24.89601,-25.03109 -28.84093,-32.5411 -4.50017,-8.56708 -6.96172,-37.18554 -4.90668,-57.04613 0.71137,-6.875 1.31164,-18.575 1.33393,-26 0.0346,-11.54602 -0.35388,-15.01976 -2.68434,-24 -4.9884,-19.22238 -11.17924,-32.98126 -19.65401,-43.680258 -6.20588,-7.83462 -8.40474,-6.80923 -2.53097,1.18026 2.77788,3.77847 4.97017,8.204197 5.82038,11.749998 1.10728,4.61791 -1.60977,3.25437 -5.08162,-2.55018 -4.42342,-7.395468 -6.61147,-9.327338 -18.68874,-16.500728 -5.83459,-3.4655 -10.60835,-6.728 -10.60835,-7.25 0,-1.79246 6.50468,-0.92737 11.89534,1.58201 2.96743,1.38136 5.5021,2.38946 5.6326,2.24023 3.79097,-4.33519 15.47206,-25.93882 15.47206,-28.61485 0,-0.48809 -3.2625,-3.59522 -7.25,-6.90473 -3.9875,-3.30951 -9.0168,-7.74372 -11.17622,-9.8538 -7.21876,-7.05382 -28.83548,-32.8225599 -32.84019,-39.1479499 -2.17634,-3.4375 -4.30458,-6.2500001 -4.72943,-6.2500001 -1.43997,0 -6.01458,14.1166601 -7.4494,22.98793 -2.11663,13.08678 -3.06258,15.8565 -7.96444,23.31971 -6.7727,10.31163 -10.8616,25.46281 -8.45241,31.31992 l 1.18152,2.87244 0.59028,-2.89306 c 0.55378,-2.7141 3.40972,-5.62085 4.47548,-4.55509 0.26461,0.26462 0.68343,10.1487 0.9307,21.96464 0.50278,24.025218 1.3747,29.450038 7.79263,48.483508 4.43016,13.13839 10.59941,25.40933 25.30225,50.32734 13.25033,22.45634 13.52059,23.03809 24.23777,52.17266 0.42189,1.14689 0.75602,0.97033 1.4194,-0.75 2.86412,-7.42757 4.16044,6.2506 1.4556,15.3588 -2.15052,7.24157 -5.78262,11.53721 -20.68357,24.46221 -7.33699,6.36405 -14.27381,12.95138 -15.41517,14.6385 -1.14137,1.68713 -3.75386,9.82089 -5.80553,18.07504 l -3.73033,15.00754 2.05485,11.35396 c 1.13016,6.24467 2.33395,13.15395 2.67508,15.35395 1.21218,7.81748 2.23868,0.44323 2.31085,-16.60078 0.0418,-9.8786 0.54396,-17.97723 1.24005,-20 0.64337,-1.86957 3.34337,-6.50729 6,-10.30605 3.34416,-4.78186 4.83023,-7.89772 4.83023,-10.12755 0,-3.41331 2.17231,-6.09519 4.01474,-4.95651 1.83269,1.13267 0.1715,6.33549 -5.72394,17.92734 l -5.56212,10.93645 -0.93847,20.06355 c -0.51617,11.03495 -0.93038,20.88701 -0.92047,21.89345 0.0282,2.86229 2.21429,4.79967 5.04466,4.47066 2.14996,-0.24992 2.77412,-1.05875 3.70448,-4.80056 z m 45.38112,-57.52852 c 0,-1.50133 6.16999,-12.47148 7.0144,-12.47148 1.57218,0 1.10493,4.14034 -0.98747,8.75 -1.35695,2.98943 -2.53685,4.25 -3.97804,4.25 -1.12689,0 -2.04889,-0.23783 -2.04889,-0.52852 z M 337.3937,288.00085 c 0.34118,-2.93034 6.05163,-7.57803 8.68319,-7.06718 2.85348,0.55393 2.22705,2.71884 -1.20119,4.15125 -1.91007,0.79808 -3.77154,2.39213 -4.13661,3.54234 -1.01344,3.1931 -3.73086,2.68427 -3.34539,-0.62641 z m -1.33705,-124.94152 c -4.81017,-10.34985 -8.92391,-15.75911 -15.85302,-20.84554 -2.76141,-2.02706 -6.15521,-5.62139 -7.54179,-7.98741 -4.14815,-7.07828 -7.98833,-31.33991 -5.84473,-36.926038 1.18613,-3.09101 2.11203,-1.49726 2.712,4.668208 1.50281,15.44314 5.39885,24.42829 17.01913,39.25 12.33034,15.7274 18.8004,28.866 14.88955,30.23588 -0.80304,0.28129 -2.78784,-2.8152 -5.38114,-8.3951 z m -36.73091,165.56104 c -0.61359,-1.76015 -1.11562,-4.83191 -1.11562,-6.82613 0,-4.50786 5.45624,-27.1235 7.49496,-31.06594 0.82777,-1.60074 1.50504,-3.16154 1.50504,-3.46844 0,-0.30691 -4.95,1.9245 -11,4.95869 l -11,5.51671 0,15.34953 0,15.34954 7.25,1.94548 c 3.9875,1.07002 7.41453,1.83194 7.61562,1.69316 0.20109,-0.13878 -0.13641,-1.69245 -0.75,-3.4526 z m 304.043,-11.01605 c 6.9312,-1.73091 12.8311,-10.79097 14.8351,-22.7812 5.1335,-30.71453 -17.2909,-78.7221 -44.359,-94.96687 -10.463,-6.27932 -15.5499,-7.24298 -24.3843,-4.61942 -23.6863,7.03407 -22.435,53.12824 2.497,91.98172 6.0467,9.42309 20.1162,23.15197 27.9846,27.30714 9.3631,4.94441 13.6824,5.51204 23.4266,3.07863 z m 30.7672,-14.94578 c 16.4317,-11.59283 20.0742,-18.32247 20.0742,-37.08748 0,-15.82907 -3.7664,-30.43305 -12.2122,-47.35251 -12.3275,-24.69555 -33.3391,-43.3432 -49.1966,-43.66149 -7.2663,-0.14585 -31.6145,8.4075 -37.8362,13.29164 -1.5386,1.20778 -1.0785,1.38956 3.8889,1.53645 9.3203,0.2756 18.8413,5.67603 30.4323,17.26154 10.4922,10.48717 15.7412,17.87513 22.4312,31.57186 8.869,18.15802 11.9996,32.31797 11.3152,51.1792 -0.3664,10.0963 -0.8134,12.65752 -3.0638,17.55623 l -2.6348,5.73543 4.688,-2.39588 c 2.5784,-1.31774 8.0296,-4.75349 12.1138,-7.63499 z M 443.22577,212.63982 c -0.53634,-37.0817 -0.98427,-87.08221 -0.9954,-111.11225 -0.0111,-24.030038 -0.37926,-43.912858 -0.81804,-44.184048 -0.43879,-0.27118 -4.61023,-1.27781 -9.26988,-2.23695 l -8.47208,-1.74389 -5.66912,3.62648 c -11.08844,7.0932 -13.75735,8.10559 -21.46142,8.14094 -6.62589,0.0304 -7.92787,-0.34461 -17.14859,-4.93933 l -9.9783,-4.97222 -5.02806,10.11454 -5.02807,10.11454 7.67892,9.4329 c 12.08999,14.851507 11.41935,13.47648 18.94227,38.838018 4.46561,15.05462 4.59578,15.87354 4.53015,28.5 -0.0372,7.15 -0.83414,22 -1.77107,33 -2.55614,30.01028 -1.00214,46.40931 5.33342,56.28242 1.73451,2.70301 7.988,9.60012 13.89664,15.32691 8.84642,8.57417 11.5605,10.62482 15.37382,11.61581 2.54696,0.66189 5.92869,2.29551 7.51496,3.63027 2.90795,2.44688 12.64431,8.5228 13.0996,8.17473 0.13497,-0.10318 -0.19342,-30.52717 -0.72975,-67.60887 z m 226.21817,63.23417 c 1.5036,-0.86216 3.4801,-3.14025 4.3923,-5.06243 1.4387,-3.0318 1.5062,-4.49507 0.5095,-11.04393 -1.6575,-10.89129 -1.4913,-12.07726 2.3741,-16.93981 4.0192,-5.05611 3.9926,-4.94712 1.9283,-7.89435 -1.4197,-2.02689 -1.4163,-2.28601 0.037,-2.84379 0.8871,-0.34042 2.4732,0.17726 3.562,1.16258 2.427,2.1964 2.6698,8.63458 0.3968,10.52101 -2.1212,1.76047 -4.7407,6.9748 -3.9125,7.78821 0.3679,0.36139 2.5386,-1.43777 4.8237,-3.99813 2.3608,-2.64516 6.1915,-5.52916 8.872,-6.67927 5.5768,-2.39293 14.2475,-10.18351 15.5625,-13.9828 0.6631,-1.91594 0.3548,-5.25516 -1.0785,-11.68273 -1.397,-6.26451 -2.0365,-12.95126 -2.1041,-22 -0.089,-11.84005 0.1324,-13.54418 2.4755,-19.0988 5.0421,-11.95282 17.5685,-28.10032 42.9772,-55.4012 10.3063,-11.07378 16.6605,-20.047281 20.181,-28.499998 0.9163,-2.2 3.5331,-10.24637 5.8152,-17.88082 2.282,-7.63445 6.4019,-20.41935 9.1553,-28.41088 4.4867,-13.02245 4.9663,-15.23463 4.6224,-21.32048 -0.4638,-8.20944 -1.995,-10.18581 -12.2992,-15.8751199 -8.3844,-4.62934 -10.5906,-6.86886002 -17.7443,-18.0127001 -6.1181,-9.53056 -15.4881,-18.86096 -29.7929,-29.66686 -10.7719,-8.1373 -17.2141,-11.5832 -31.4874,-16.843 -23.8757,-8.7984 -36.7699,-20.0897 -39.879,-34.9219 -0.7572,-3.6125 -1.2483,-6.5682 -1.0911,-6.5682 0.1571,0 2.8105,3.7946 5.8964,8.4325 5.3415,8.0276 13.1575,15.9427 14.7632,14.9503 1.4833,-0.9167 5.8171,-16.6111 6.3994,-23.1747 0.3274,-3.689502 0.1082,-13.833602 -0.487,-22.542402 -0.6816,-9.9741 -0.7338,-16.4851 -0.1409,-17.5929 1.544,-2.885 11.6543,-9.9922 20.2588,-14.2412 8.5804,-4.237 16.4878,-11.2973 18.7384,-16.7309 1.5031,-3.6287 3.0512,-4.0648 3.0198,-0.8507 -0.072,7.3771 -7.3757,15.2845 -21.2201,22.9741 -4.6779,2.5982 -9.9651,6.3867 -11.7493,8.4188 l -3.244,3.6948 0.6892,10.5811 c 0.3791,5.8196 1.0255,12.1562 1.4364,14.0812 l 0.7471,3.5 2.2865,-4.4163 c 1.6573,-3.2011 2.264,-6.0093 2.205,-10.2056 -0.087,-6.1504 0.9705,-7.8706 3.5308,-5.7457 1.2544,1.0411 1.4837,2.8303 1.1349,8.8559 -0.4863,8.401 -3.8221,17.1301 -8.2309,21.538902 -1.41,1.41 -2.5668,3.5557 -2.5706,4.7682 -0.01,2.2558 -3.3092,16.7981 -4.5322,19.96 -0.5253,1.3581 0.1495,2.1016 2.9813,3.2848 l 3.6604,1.5294 7.9491,-7.1776 c 10.2915,-9.2928 13.2079,-13.8041 15.3586,-23.758 1.7974,-8.318602 3.9449,-11.765502 5.6507,-9.069702 0.4996,0.7896 0.9153,2.5592 0.9238,3.9325 0.014,2.2042 0.4353,1.9113 3.6002,-2.5 7.3972,-10.3107 10.2698,-17.6694 14.3378,-36.7294 4.2225,-19.7836 1.5245,-47.8716 -6.047,-62.9525 -2.3613,-4.7033 -16.9315,-20.0365 -26.7786,-28.1809 -26.9717,-22.3079 -44.9977,-30.2009 -71.6251,-31.3623 -11.9304,-0.5204 -12.0779,-0.4995 -18.1674,2.5745 -12.5382,6.3292 -29.2342,11.4487 -42.9438,13.1677 -10.224,1.282 -26.1783,6.6436 -36.6819,12.3274 -4.4984,2.4342 -10.9221,5.4132 -14.2749,6.62 -6.4604,2.3255 -4.7012,2.2996 -32.6288,0.4807 -11.2293,-0.7314 -21.8815,1.012 -33.33093,5.4551 -9.97605,3.8713 -17.3125,9.0438 -29.94429,21.1122 l -11,10.5094 -12,4.3847 c -6.6,2.4117 -15.375,6.1145 -19.5,8.2286 -12.99469,6.6599 -24.50668,17.5593 -25.21912,23.8771 -0.27231,2.4148 -0.11302,2.4825 5.21912,2.2156 7.78319,-0.3895 21.23135,1.5157 27.64994,3.9172 7.60868,2.8468 18.7827,10.5671 25.63751,17.7135 7.84991,8.1837 9.19302,8.4876 13.92819,3.1518 2.0814,-2.3455 3.78436,-4.0037 3.78436,-3.6851 0,2.1464 -2.48943,11.6601 -3.64158,13.9168 -1.28026,2.5077 -1.15634,3.2255 1.46733,8.5 4.79841,9.6465 8.62236,21.212902 7.41298,22.422302 -1.70556,1.7056 -3.01243,0.1975 -6.64843,-7.6722 -4.83228,-10.458802 -14.80465,-24.749702 -23.18894,-33.230802 -12.11873,-12.2587 -28.31624,-18.0311 -47.4581,-16.913 -17.2185,1.0058 -28.73144,5.7211 -40.07996,16.4154 -13.46148,12.6854 -19.20819,23.5812 -25.17891,47.739402 -5.08001,20.5543 -1.75182,37.1882 13.17198,65.832 7.88541,15.1347301 15.53334,24.8284501 33.28463,42.18813 23.70995,23.1869 35.76092,31.22064 48.34796,32.23101 7.3579,0.59062 12.89167,-1.48713 21.35895,-8.01959 10.10725,-7.79769 25.00353,-27.3731 29.04026,-38.16223 l 1.9539,-5.2222899 -2.70194,-12.92353 -2.70195,-12.9235001 -4.28736,-0.5 -4.28735,-0.5 3.43111,-1.8337 c 6.69468,-3.5776 11.80038,-18.3117 9.72106,-28.0531 -2.93409,-13.7458 -9.92827,-19.7657 -18.70435,-16.0988 -4.46423,1.8652 -6.56312,1.2713 -6.13143,-1.7349 0.42995,-2.9942 4.24613,-4.7469 10.37436,-4.7648 9.65689,-0.028 19.21898,8.7588 21.50276,19.7597 1.82002,8.767 0.84595,22.0285 -1.95035,26.553 -2.11641,3.4245 -2.20255,4.1043 -1.10155,8.6937 0.65692,2.7384 1.59952,4.9789 2.09466,4.9789 0.49514,0 0.90026,-0.4269 0.90026,-0.9486 0,-1.5447 16.45552,-18.3734 25.30562,-25.8794 7.994,-6.7799 22.3612,-17.172 23.7405,-17.172 0.3795,0 -0.8672,1.6511 -2.7705,3.6692 -4.2022,4.4556 -12.2756,16.3311 -12.2756,18.0567 0,0.6859 1.635,1.9304 3.6334,2.7653 1.9983,0.835 6.7897,4.4957 10.6475,8.135 11.4832,10.8327 19.6581,13.1433 40.5244,11.4542 14.2975,-1.1574 26.671,-4.0359 32.8727,-7.6474 7.8929,-4.5963 9.8074,-2.1899 3.6659,4.608 -2.0793,2.3016 -3.2653,4.39686 -2.75,4.85846 9.9609,8.9226101 22.4958,15.8325701 37.4061,20.6203796 16.4274,5.2749904 42.2805,4.3769304 58.5,-2.0321095 l 6,-2.37088 -5,4.5219995 c -5.7644,5.2132804 -14.1335,10.3380704 -16.905,10.3517304 -1.8733,0.009 -1.8733,0.0445 0,2.11856 2.0721,2.29423 16.2482,13.41713 20.6049,16.16713 4.9317,3.11286 17.4395,6.72369 23.2908,6.72369 4.2015,0 8.3609,-1.04665 16.3237,-4.10761 18.5778,-7.14142 25.1538,-9.00743 30.6183,-8.68831 4.302,0.25123 5.0673,0.59798 5.0673,2.29592 0,1.76256 -0.7222,2.01976 -6.0828,2.16643 -8.5997,0.2353 -13.9581,1.92752 -18.2239,5.75523 -4.4685,4.00957 -9.8419,6.79219 -17.2079,8.91104 -9.3374,2.68593 -13.7177,8.97963 -18.1559,26.0865 -1.8561,7.15431 -1.9951,9.34198 -1.213,19.0808 0.4859,6.049998 0.8195,16.010638 0.7413,22.134768 -0.1267,9.91963 -0.4538,11.8294 -2.9971,17.5 -3.2838,7.32146 -16.3873,26.07897 -23.2151,33.23218 -2.5551,2.67683 -8.6956,8.13943 -13.6456,12.13912 -4.95,3.99969 -10.4861,8.83032 -12.3025,10.73474 l -3.3024,3.46259 2.3024,3.58755 c 1.2664,1.97315 3.5477,4.12269 5.0697,4.77675 2.9522,1.26869 9.452,8.85139 13.2285,15.4323 1.999,3.48358 2.394,6.00114 3.0595,19.5 0.4202,8.525 0.8047,20.97913 0.8544,27.67585 l 0.09,12.17585 3,-0.56434 c 1.65,-0.31039 4.2302,-1.26975 5.7338,-2.13192 z m 47.2495,-162.18242 c -0.3491,-0.56483 1.6557,-3.53306 4.4551,-6.59606 9.8387,-10.765088 13.5607,-19.768948 15.0129,-36.318198 0.5329,-6.07267 1.5336,-12.05766 2.2238,-13.29998 1.1644,-2.09585 1.3125,-1.86204 2.053,3.24122 2.9609,20.40459 -9.9198,53.999998 -20.7039,53.999998 -1.3234,0 -2.6918,-0.46214 -3.0409,-1.02698 z m 12.1833,-89.639688 c -0.3666,-0.36666 -0.6666,-2.47459 -0.6666,-4.68427 0,-8.76775 -7.9567,-17.7944299 -16.8938,-19.16568992 -10.6583,-1.63534998 -11.6062,-1.96106998 -11.6062,-3.98783998 0,-1.57743 0.7718,-2.05973 3.6836,-2.30194 5.4098,-0.44999 10.9429,1.35491 17.3434,5.65733001 6.7533,4.53967999 10.9894,10.43848989 11.9114,16.58707989 0.8613,5.74379 -1.332,10.33508 -3.7718,7.89533 z m 33.2371,-16.9728999 c -0.8779,-1.02324 -3.2791,-5.31771 -5.3359,-9.54327 -2.0569,-4.22556 -5.1755,-9.3437001 -6.9302,-11.3736201 l -3.1905,-3.6908 -8.7905,1.1698 c -4.8347,0.6433 -9.7729,0.8623 -10.9735,0.4866 -6.739,-2.1088 -15.4695,-11.5686 -17.2207,-18.6591 -1.0779,-4.364 0.8457,-3.2606 6.1011,3.5 2.6723,3.4375 5.3262,6.5806 5.8976,6.9846 1.7159,1.2135 9.7666,0.7756 14.0389,-0.7635 6.1211,-2.2052 8.7323,-1.8225 13.07,1.9157 4.9715,4.2845 9.6623,12.06716 12.9572,21.4981001 2.8748,8.22809 3.0228,11.5596799 0.3765,8.47549 z m -84.6456,-32.1103901 c 0.2668,-1.5125 1.2647,-5.6435 2.2174,-9.18 1.6927,-6.2831 1.6825,-6.6186 -0.4493,-14.6881 -1.1998,-4.542 -2.0022,-9.2986 -1.7829,-10.5701 0.3203,-1.8579 1.0719,-0.9373 3.8276,4.6882 3.0363,6.1982 3.4291,7.9162 3.4291,15 0,9.7448 -2.5243,17.5 -5.6962,17.5 -1.6664,0 -1.9438,-0.4936 -1.5457,-2.75 z m -86.0116,-26.4035 c -0.6856,-0.6856 -1.2465,-1.567 -1.2465,-1.9588 0,-0.3917 2.8125,-2.7362 6.25,-5.21 7.9373,-5.7121 19.8436,-17.126 22.613,-21.6777 2.6723,-4.3923 2.714,-10.1317 0.115,-15.8592 -3.4308,-7.560902 -2.0353,-7.963502 3.088,-0.891 2.4217,3.3431 2.934,5.0373 2.934,9.7038 0,7.8577 -3.6759,14.8018 -12.5243,23.6597 -10.6365,10.648 -18.3624,15.1 -21.2292,12.2332 z m -18.7891,-33.7095 c -7.4802,-4.5615 -14.8891,-17.906402 -16.5429,-29.796902 -1.9328,-13.8962 -6.5048,-22.4786 -13.9145,-26.1201 -4.1538,-2.0414 -5.5108,-6.22 -2.0199,-6.22 1.1655,0 3.3485,0.6357 4.851,1.4126 3.3533,1.7341 11.7565,10.5881 13.3331,14.0485 0.6363,1.3964 1.4946,2.5389 1.9074,2.5389 2.7631,0 11.2007,-15.2379 12.4589,-22.5 1.083,-6.2511 4.8903,-11.8687 11.7039,-17.269 10.4972,-8.3197 17.7656,-11.0864 17.7656,-6.7624 0,1.0486 -0.9856,1.5314 -3.1261,1.5314 -2.5323,0 -4.5359,1.3782 -10.5478,7.2553 -7.3518,7.187 -7.4317,7.3213 -8.4826,14.25 -1.4037,9.2543 -4.1226,15.2883 -11.2124,24.8837 l -5.8689,7.9428 0.4532,7.5841 c 0.7177,12.0094 6.7843,22.401402 13.766,23.580902 2.9565,0.4995 4.0186,1.156 4.0186,2.4841 0,3.3323 -4.0707,3.8832 -8.5426,1.1561 z m -93.8609,-5.4496 c -3.6028,-3.6028 -6.7405,-13.191902 -7.3418,-22.437402 -0.455,-6.9955 -0.3024,-8.25 1.0039,-8.25 1.0971,0 2.0062,2.0871 3.1578,7.25 2.4485,10.9772 5.7065,17.173002 10.9877,20.895502 2.4818,1.7493 4.2796,3.5572 3.9951,4.0175 -0.2845,0.4603 -2.5362,0.837 -5.0037,0.837 -3.3552,0 -5.0695,-0.5831 -6.799,-2.3126 z m 143.4035,-11.565002 c 0,-0.4827 0.7129,-1.4693 1.5843,-2.1924 2.0435,-1.696 7.6197,-12.8651 9.9501,-19.93 3.2125,-9.7391 1.6051,-26.6415 -2.9397,-30.911 -3.2208,-3.0258 -13.5591,-4.5667 -21.1832,-3.1573 -6.2213,1.15 -6.9738,0.9758 -6.0607,-1.4036 0.9861,-2.5697 5.6197,-3.7019 15.6492,-3.824 15.7123,-0.1913 20.075,3.5207 21.539,18.3262 1.14,11.5297 -5.3472,33.4429 -11.9836,40.4796 -3.0607,3.2452 -6.5554,4.638 -6.5554,2.6125 z m -201.90538,-40.9949 c -2.49888,-0.6992 -4.96234,-3.5932 -3.93401,-4.6215 0.32444,-0.3244 3.37164,-0.1419 6.77156,0.4056 3.95417,0.6368 7.08547,0.6519 8.68984,0.042 3.61239,-1.3734 5.37797,-1.1773 5.37797,0.5975 0,3.279 -10.23233,5.4437 -16.90536,3.5765 z m 34.2411,-2.695 c -1.07728,-2.8074 1.91148,-6.7089 16.14868,-21.0806 13.9395,-14.0712 14.0834,-14.1809 26.5156,-20.2059 15.7126,-7.6147 33.0355,-13.5666 48.5,-16.6636 16.2164,-3.2477 21.6612,-5.2795 32.6439,-12.1816 14.1855,-8.9149 24.0355,-13.0261 41.5641,-17.3484 8.6856,-2.1418 18.1829,-4.8162 21.1052,-5.9432 5.1201,-1.9747 7.1868,-1.9561 7.1868,0.065 0,2.1982 -7.258,5.0315 -21.6142,8.4375 -16.2716,3.8604 -26.544,8.1262 -37.5236,15.5823 -9.9901,6.7841 -21.4563,11.5515 -40.4583,16.8216 -25.029,6.9416 -33.5182,10.0691 -52.324,19.2765 -15.9537,7.811 -16.678,8.302 -25.5,17.2873 -4.994,5.0864 -10.20492,11.0973 -11.57992,13.3576 -2.70962,4.4542 -3.73268,5.0236 -4.66426,2.596 z m -39.66907,-29.0992 c -1.50596,-1.506 -0.50304,-5.3169 1.89581,-7.2038 5.67189,-4.4615 11.05184,-4.8297 36.66182,-2.5091 8.27223,0.7495 10.4122,0.2446 15.24722,-3.5978 4.4475,-3.5345 6.5285,-3.8395 6.5285,-0.9569 0,3.3982 -1.8372,5.8105 -6.0694,7.9696 -3.6691,1.8719 -5.52116,2.0179 -22.23756,1.7533 -18.19364,-0.288 -18.24726,-0.2824 -23.55639,2.4614 -5.43232,2.8074 -7.2892,3.2641 -8.47,2.0833 z m 78.33335,-35.0048 c 0,-4.4238 13.2109,-15.5523 16.2401,-13.6802 1.558,0.963 0.6343,2.2543 -3.9901,5.5781 -2.6125,1.8777 -5.875,5.0668 -7.25,7.0869 -2.9494,4.3332 -5,4.7496 -5,1.0152 z m 243.0672,458.56361 c 6.5184,-1.39794 11.8574,-6.05901 15.0632,-13.15051 2.179,-4.81998 2.3636,-6.48852 2.2954,-20.74164 -0.067,-13.90958 -0.355,-16.42347 -2.8118,-24.5 -1.5057,-4.95 -4.759,-13.275 -7.2294,-18.5 -4.5028,-9.5236 -11.3315,-20.97486 -12.5175,-20.99125 -1.7479,-0.0242 -12.6151,14.39626 -15.6469,20.7628 -3.1146,6.54054 -3.5103,8.35006 -3.9362,18 -0.3775,8.55324 -0.049,12.60176 1.6212,19.96786 3.3908,14.95589 2.6093,21.66495 -3.2722,28.09118 -2.1269,2.32395 -2.1273,2.33486 -0.133,3.82574 4.8092,3.59522 10.6133,6.47559 14.6467,7.26863 6.1064,1.2006 6.1702,1.20042 11.9205,-0.0328 z m 37.4918,-18.7048 c 5.1743,-3.87466 9.3776,-7.92983 10.8835,-10.5 11.3067,-19.29737 4.6661,-56.0051 -15.3764,-84.99758 -2.7719,-4.00972 -6.35,-8.54557 -7.9512,-10.07966 l -2.9114,-2.78926 -11.8517,12.22792 c -6.5185,6.72536 -11.7692,12.52607 -11.6682,12.89046 0.101,0.36439 1.8529,3.11464 3.8932,6.11165 6.1216,8.99217 14.3008,27.02728 17.0344,37.56107 4.6639,17.97165 4.3311,38.70026 -0.7821,48.72306 l -1.9816,3.8842 6.1407,-3.3596 c 3.3773,-1.84779 9.9342,-6.2003 14.5708,-9.67226 z m -121.0206,-6.72581 c -2.2803,-5.97088 -2.9515,-5.2996 -0.7692,0.76923 0.9213,2.56203 1.8651,4.46824 2.0973,4.23603 0.2322,-0.23222 -0.3654,-2.48458 -1.3281,-5.00526 z m 20.3356,-76.76821 c 4.2533,-6.52813 9.6283,-18.52432 8.7111,-19.44156 -0.966,-0.966 -5.5671,2.76374 -8.0463,6.52252 -2.7652,4.1924 -6.7971,19.22571 -5.1563,19.22571 0.2104,0 2.2316,-2.838 4.4915,-6.30667 z m 388.39256,0.66692 c 7.2304,-2.10285 12.2931,-5.81925 14.6997,-10.79071 3.025,-6.24887 4.501,-27.10816 3.0359,-42.904458 -2.0463,-22.06245 -2.3203,-30.65634 -1.1477,-35.99536 6.0348,-27.47558 6.6211,-36.3249 2.8955,-43.69976 -4.0902,-8.0964599 -13.1631,-11.9699599 -28.0372,-11.9699599 -4.9754,0 -11.6429,0.71042 -15.0685,1.60557 -4.4473,1.16212 -9.0655,1.48868 -16.721,1.18237 -12.0084,-0.48048 -14.1634,-1.35935 -27.09946,-11.05233 -8.2458,-6.1784701 -13.2888,-8.8679701 -26.4478,-14.1046701 -9.9393,-3.9554 -17.1836,-4.6105 -24.876,-2.2496 -4.8631,1.4926 -4.8435,2.7049 0.1769,10.95444 4.1687,6.8499701 3.5025,9.1211901 -1.7719,6.0407701 -5.5622,-3.24853 -9.8721,-12.6139101 -11.5781,-25.1594101 -0.8015,-5.8944 -2.7233,-14.4265 -4.2705,-18.9601 -2.7348,-8.013 -21.4963,-43.257 -23.027,-43.257 -0.42,0 -2.0166,1.9125 -3.548,4.25 -1.5314,2.3375 -6.8617,8.4252 -11.845,13.5284 l -9.0606,9.2784 1.9621,3.6863 c 1.0791,2.0275 4.3811,6.5481 7.3378,10.0459 3.6482,4.316 5.0484,6.6868 4.3573,7.3779 -1.5023,1.5023 -3.8296,-0.084 -11.0829,-7.5552 -3.4924,-3.5972 -7.1557,-6.7961 -8.1406,-7.1087 -1.1937,-0.3789 -4.2447,1.2856 -9.1502,4.9915 -10.1626,7.6778 -27.3053,16.0305 -38.3593,18.6905 -4.95,1.1912 -9.1331,2.2574 -9.2957,2.3694 -0.5471,0.3767 12.9454,23.8820299 16.3232,28.4366301 7.8863,10.63394 46.167,45.6614199 54.2974,49.6829999 7.8346,3.87533 13.5787,4.13971 20.3495,0.93663 6.8782,-3.25394 14.931,-3.43908 29.907,-0.6876 14.9835,2.75286 28.1415,3.51956 35.9186,2.09292 3.575,-0.6558 12.8,-3.22906 20.5,-5.71835 17.10086,-5.52846 25.31926,-6.45751 31.05386,-3.51051 6.2176,3.19518 11.9071,8.56898 11.153,10.53414 -1.0527,2.74347 -6.1735,2.08593 -10.0138,-1.28584 -6.0748,-5.33378 -11.8878,-6.22301 -12.9953,-1.98793 -1.0444,3.99367 4.0685,20.55386 10.3519,33.52922 6.1756,12.75254 6.2582,13.03553 6.2544,21.423247 0,11.518501 -2.0415,15.812401 -12.8036,26.999411 -6.3025,6.5514 -8.5005,9.52094 -8.5005,11.48416 0,4.09772 1.7865,6.51688 6.3307,8.57255 3.6311,1.64263 6.6563,1.88223 23.4359,1.85614 14.2166,-0.0221 20.6385,-0.42891 24.5,-1.55201 z m -18.8876,-2.8148 c -1.7184,-4.47813 6.9235,-16.54545 11.8488,-16.54545 2.8885,0 2.0231,2.6544 -1.5535,4.76462 -2.434,1.43614 -3.8415,3.3854 -5.25,7.27108 -2.0022,5.52371 -3.9783,7.2901 -5.0453,4.50975 z M 907.91134,39.086452 c -0.3857,-0.38568 -0.7012,-2.21569 -0.7012,-4.06669 0,-1.85099 -0.675,-4.98095 -1.5,-6.95545 -2.9785,-7.12845 -0.6652,-8.86012 3.4511,-2.58338 2.9613,4.51569 3.6014,13.47189 1.0001,13.99519 -0.8518,0.17136 -1.8643,-0.004 -2.25,-0.38967 z m 158.78386,-9.56353 c -3.5097,-10.87611 -4.8134,-11.44656 -16.5138,-7.22599 -3.9313,1.41811 -7.3832,2.34304 -7.6709,2.05539 -1.1467,-1.14667 5.301,-5.73491 10.0344,-7.14057 6.7013,-1.99006 9.5207,-1.87866 13.4754,0.53243 3.9156,2.38731 6.4186,7.738 5.9943,12.81438 -0.4937,5.9073 -3.2522,5.37024 -5.3194,-1.03564 z m -195.94676,-9.15267 c -2.9303,-2.14273 -1.0446,-3.40676 4.3142,-2.89185 4.1148,0.39538 5.5374,0.0473 8.7621,-2.14392 3.1934,-2.16999 4.9779,-2.61593 10.4683,-2.61593 8.0175,0 13.1487,1.55895 12.7055,3.86021 -0.2611,1.35543 -1.487,1.57841 -7.3011,1.32793 -5.0903,-0.2193 -8.5909,0.25728 -12.8939,1.75542 -6.7948,2.36572 -13.3904,2.65663 -16.0551,0.70814 z m 91.4617,-0.0973 c -9.7474,-2.74386 -16,-6.3428 -16,-9.20941 0,-2.0385104 2.6239,-1.6180704 6.7714,1.08501 6.9123,4.50498 26.938,6.09903 38.5673,3.06998 7.0811,-1.84439 7.6613,-1.85262 7.6613,-0.10858 0,4.76782 -25.6761,8.35068 -37,5.163 z m 12.022,89.817588 2.522,-2.30936 -1.0893,-14.515328 c -0.5992,-7.98343 -1.2841,-14.68971 -1.5221,-14.90284 -0.2379,-0.21313 -25.9816,-4.67476 -57.2082,-9.91474 -31.2265,-5.23997 -57.439,-10.07789 -58.25,-10.75093 -1.1549,-0.95853 -1.4744,-3.92426 -1.4744,-13.68612 l 0,-12.46242 -14.0964,-14.16514 C 831.42224,5.6351221 827.76364,1.1989221 821.66814,-8.6196379 l -7.3493,-11.8381701 0.1956,40.83817 0.1957,40.83817 -2.3051,0.32676 c -3.7543,0.53222 -5.1949,-1.5172 -5.1949,-7.39019 0,-2.92519 -0.3375,-5.51904 -0.75,-5.76409 -0.4125,-0.24506 -3.9837,-0.76439 -7.9359,-1.15407 l -7.1858,-0.70851 -1.1489,4.34505 c -0.6318,2.38978 -4.0314,13.08688 -7.5545,23.77135 -3.5231,10.68446 -6.15,19.68446 -5.8375,20 0.3125,0.31553 39.7957,8.037988 87.7404,17.160998 l 87.1722,16.58731 10,-7.99662 c 5.5,-4.39814 11.1349,-9.03583 12.522,-10.30598 z m -426.022,-48.708828 c 7.8501,-2.0635 15.6176,-5.68113 44.7251,-20.83019 l 35.2251,-18.33299 -4.7251,-1.29509 c -13.7714,-3.77452 -22.555,-6.7731 -29.9927,-10.239 l -8.2675,-3.8525999 -21.9894,10.3982499 c -12.0941,5.71904 -23.6737,10.86604 -25.7324,11.43777 -2.0587,0.57173 -7.9074,1.04203 -12.997,1.04509 -7.6655,0.005 -13.9222,-1.03213 -36.4529,-6.04038 -14.9595,-3.32527 -27.78273,-6.53037 -28.49613,-7.12244 -1.71612,-1.42425 -1.64918,-4.29451 0.13469,-5.77498 1.12894,-0.9369404 7.29764,0.10936 29.16444,4.94672 28.9716,6.40904 37.6545,7.35261 46.282,5.02945 4.3888,-1.18178 39.9105,-17.4574299 41.4836,-19.0073099 0.4776,-0.47061 -1.0479,-2.11291002 -3.4224,-3.68429 -3.3371,-2.20837 -5.2963,-2.79138 -8.8619,-2.63706 -2.5176,0.10897 -10.7529,0.48898 -18.3007,0.84446 -26.3265,1.23994 -37.0855,-1.77399 -48.774,-13.6631301 -7.7853,-7.919 -9.8486,-9.0992 -16.0715,-9.193 -6.1761,-0.093 -10.7806,2.9174 -18.91275,12.366 -7.44045,8.6449501 -8.26611,10.6313501 -7.44301,17.9066301 0.56842,5.0241595 0.30046,6.3334599 -2.3739,11.5991799 -1.65805,3.26465 -7.05777,11.56073 -11.99938,18.43573 -4.9416,6.875 -8.87289,12.62329 -8.7362,12.77397 0.34584,0.38125 65.34594,14.98398 74.53394,16.74458 11.1577,2.13804 29.9694,1.30702 42,-1.85537 z M 806.88754,4.4685321 c -0.6211,-34.3717401 -0.69,-35.2936401 -2.768,-37.0000401 -1.172,-0.9625 -2.8995,-1.75 -3.8387,-1.75 -5.343,0 -12.5511,-3.3851 -17.2823,-8.1163 l -4.9658,-4.9658 -12.6613,6.6477 c -6.9637,3.6562 -12.8448,6.8207 -13.0691,7.0321 -0.2242,0.2115 1.8311,2.976 4.5673,6.1434 2.7362,3.1674 7.1289,9.1339 9.7614,13.2589 6.4965,10.1797401 8.9727,12.6308201 16.7253,16.5557801 7.7436,3.92046 10.1923,6.6701795 12.5222,14.0612999 1.5958,5.06238 1.5959,5.81652 0,12.63336 -0.9326,3.98728 -1.6898,7.78494 -1.6828,8.43923 0.012,1.0969 3.0135,1.71399 10.4201,2.14227 l 2.9072,0.1681 -0.637,-35.2499999 z m -45.9927,-51.4135401 c 8.1484,-4.2149 14.9574,-7.7695 15.131,-7.899 0.1736,-0.1296 -0.2153,-2.1935 -0.8643,-4.5865 -0.649,-2.393 -1.518,-8.3883 -1.9311,-13.3229 l -0.751,-8.972 -5.135,-4.528 c -4.1982,-3.702 -5.135,-5.121 -5.1347,-7.7781 l 4e-4,-3.25 -15.6843,0 c -19.207,0 -22.8787,1.2306 -26.8082,8.9851 -2.4141,4.7642 -12.6688,18.2915 -15.8341,20.8874 -2.4598,2.0173 -2.1116,2.6521 2.4347,4.4379 3.9893,1.567 4.2522,1.5408 9.0827,-0.907 6.1701,-3.1267 9.1949,-2.8908 9.6163,0.7499 0.2076,1.7937 -0.367,3.1255 -1.7733,4.1105 -2.0394,1.4284 -1.9961,1.5255 2.1929,4.9219 2.3503,1.9056 6.9914,5.2961 10.3136,7.5344 3.3221,2.2383 6.6397,4.7919 7.3724,5.6748 0.7327,0.8828 1.6977,1.6051 2.1444,1.6051 0.4468,0 7.4792,-3.4485 15.6276,-7.6635 z m 63.9053,3.6408 c 10.4199,-2.6646 23.8977,-9.3439 34.41,-17.0529 17.7245,-12.9978 35.4227,-34.1401 40.6624,-48.575402 3.9427,-10.862 3.2923,-13.0716 -8.9159,-30.289 -7.9716,-11.2425 -8.2129,-11.7522 -8.7886,-18.56 -0.5323,-6.2954 -1.048,-7.6194 -5.1233,-13.154 -4.1579,-5.6469 -4.5779,-6.7596 -5.0953,-13.5 -0.5516,-7.1869 -5.6195,-24.3581 -9.8375,-33.3314 -7.8296,-16.6569 -39.1039,-45.679 -57.4018,-53.2682 -8.3417,-3.4597 -19.494,-5.2464 -32.7478,-5.2464 -15.3071,0 -20.2562,-1.235 -35.4815,-8.8542 -32.4919,-16.26 -52.5424,-17.9956 -81.7312,-7.0747 -3.1227,1.1684 -5.522,2.2798 -5.332,2.4698 0.1901,0.1901 5.2169,0.8411 11.1707,1.4467 19.1593,1.9489 27.8437,5.8114 48.9458,21.7687 5.4032,4.086 9.6343,7.6188 9.4023,7.8507 -0.5963,0.5963 -10.7197,-4.1055 -20.7263,-9.6262 -19.8535,-10.9534 -39.8088,-16.3023 -52.7923,-14.1509 -5.6227,0.9317 -7.1789,1.6707 -10.4894,4.9813 l -3.8873,3.8872 8.1605,0.6805 c 10.389,0.8665 19.1699,2.7209 30.5085,6.4433 12.3601,4.0577 17.2545,6.3082 25.1879,11.5816 9.2011,6.116 44.5037,40.7693 47.297,46.4272 5.2007,10.5337 8.7207,34.7889 7.7131,53.1486 -0.5041,9.1848 -1.8698,16.0677 -6.3344,31.9223 l -0.6763,2.4018 4.0677,-2.2862 c 2.2373,-1.2574 6.8962,-4.7529 10.3533,-7.7679 8.8959,-7.7584 13.7266,-10.8146 15.0314,-9.5098 2.7996,2.7995 -3.9412,9.9242 -20.7866,21.9704 -5.4192,3.8753 -11.3908,8.9681 -13.2702,11.3172 l -3.4171,4.2712 9.9171,-0.6938 c 23.7271,-1.6598 27.1922,-2.3617 38.659,-7.8308 5.9081,-2.8179 11.054,-4.8113 11.4355,-4.4299 1.2674,1.2674 -11.0777,11.7776 -17.6086,14.9913 -8.4161,4.141402 -9.2331,5.540802 -5.7394,9.831402 6.8361,8.3955 7.6852,10.2426 8.2315,17.9062 0.2911,4.0849 1.1985,9.4993 2.0164,12.032 3.0474,9.4367 10.4562,18.0843 16.4227,19.1684 6.7009,1.2176 19.1291,0.6118 26.59,-1.2961 z m 11.6191,-21.5433 c -1.2297,-0.8614 -3.1824,-3.4215 -4.3393,-5.6891 -2.6895,-5.2719 -5.8397,-20.4791 -5.8567,-28.2724 -0.01,-3.947902 -0.5785,-6.834602 -1.6518,-8.367002 -1.557,-2.2229 -2.0244,-2.3059 -9.3768,-1.6645 -7.1605,0.6246 -7.939,0.5023 -10.4275,-1.6383 -2.3959,-2.0608 -2.8302,-3.4637 -3.9797,-12.8544 -2.0738,-16.9415 -4.673,-20.5655 -16.8243,-23.4576 -12.4023,-2.9518 -13.4599,-4.4972 -9.7525,-14.2514 4.8327,-12.715 0.1539,-29.6663 -13.61,-49.3088 -2.9648,-4.2311 -5.3905,-7.9713 -5.3905,-8.3117 0,-3.874 13.9482,8.8482 18.2462,16.6424 5.3195,9.6467 7.7363,17.3434 8.7664,27.9185 1.7545,18.0104 1.541,17.3782 6.5086,19.2753 5.8294,2.2263 14.6134,11.6884 16.3633,17.6265 2.3925,8.1185 8.6907,20.4102 11.3513,22.1535 1.4182,0.9292 4.6176,2.2029 7.1098,2.8305 6.557,1.6511 7.3661,3.0364 7.8459,13.434502 0.4881,10.58 3.2076,17.5457 10.4569,26.7848 2.6215,3.3411 4.3014,6.4037 3.9766,7.25 -0.7518,1.9593 -6.5635,1.8971 -9.4159,-0.1008 z m -45.4747,-18.4739 c -6.2351,-1.5486 -11.7344,-4.7923 -11.7344,-6.9214 0,-2.9558 1.035,-3.0642 9.0531,-0.9475 10.3961,2.7444 16.452,2.7397 21.8253,-0.017 4.0188,-2.0616 4.5102,-2.1143 5.9831,-0.6415 1.8944,1.8944 0.9899,3.8423 -3.2564,7.0125 -2.1271,1.5882 -4.4589,2.0911 -10.4226,2.2479 -4.2254,0.1111 -9.377,-0.2189 -11.4481,-0.7333 z m 65.9322,-58.626702 c -1.5201,-1.5202 -0.3727,-4.4989 4.9826,-12.9346 3.1071,-4.8943 6.7135,-10.5863 8.0142,-12.6488 5.965,-9.4584 5.8568,-0.2283 -0.1417,12.0964 -5.6307,11.5688 -10.0923,16.2497 -12.8551,13.487 z"
       id="path3332"
       inkscape:connector-curvature="0" />
  </g>
</svg>
