<?xml version="1.0" encoding="UTF-8" standalone="no"?>
<!-- Created with Inkscape (http://www.inkscape.org/) -->

<svg
   xmlns:dc="http://purl.org/dc/elements/1.1/"
   xmlns:cc="http://creativecommons.org/ns#"
   xmlns:rdf="http://www.w3.org/1999/02/22-rdf-syntax-ns#"
   xmlns:svg="http://www.w3.org/2000/svg"
   xmlns="http://www.w3.org/2000/svg"
   xmlns:xlink="http://www.w3.org/1999/xlink"
   xmlns:sodipodi="http://sodipodi.sourceforge.net/DTD/sodipodi-0.dtd"
   xmlns:inkscape="http://www.inkscape.org/namespaces/inkscape"
   width="171.60693"
   height="195.974"
   id="svg2"
   version="1.1"
   inkscape:version="0.48.3.1 r9886"
   sodipodi:docname="Medicine-ball-biceps-curl-on-stability-ball-2.svg">
  <defs
     id="defs4">
    <radialGradient
       gradientUnits="userSpaceOnUse"
       gradientTransform="matrix(1,0,0,0.91819829,-19.285714,-7.9105395)"
       r="209.56604"
       fy="287.50052"
       fx="398.1105"
       cy="287.50052"
       cx="398.1105"
       id="radialGradient5255"
       xlink:href="#linearGradient5249"
       inkscape:collect="always" />
    <linearGradient
       id="linearGradient5249"
       inkscape:collect="always">
      <stop
         id="stop5251"
         offset="0"
         style="stop-color:#e3e3e3;stop-opacity:1;" />
      <stop
         id="stop5253"
         offset="1"
         style="stop-color:#e3e3e3;stop-opacity:0;" />
    </linearGradient>
  </defs>
  <sodipodi:namedview
     id="base"
     pagecolor="#ffffff"
     bordercolor="#666666"
     borderopacity="1.0"
     inkscape:pageopacity="0.0"
     inkscape:pageshadow="2"
     inkscape:zoom="1.4"
     inkscape:cx="-20.782608"
     inkscape:cy="72.042964"
     inkscape:document-units="px"
     inkscape:current-layer="layer1"
     showgrid="false"
     showguides="true"
     inkscape:guide-bbox="true"
     fit-margin-top="0"
     fit-margin-left="0"
     fit-margin-right="0"
     fit-margin-bottom="0"
     inkscape:window-width="1201"
     inkscape:window-height="886"
     inkscape:window-x="167"
     inkscape:window-y="73"
     inkscape:window-maximized="0">
    <sodipodi:guide
       orientation="-0.70710678,0.70710678"
       position="-2357.4474,306.31795"
       id="guide2985" />
  </sodipodi:namedview>
  <metadata
     id="metadata7">
    <rdf:RDF>
      <cc:Work
         rdf:about="">
        <dc:format>image/svg+xml</dc:format>
        <dc:type
           rdf:resource="http://purl.org/dc/dcmitype/StillImage" />
        <dc:title></dc:title>
      </cc:Work>
    </rdf:RDF>
  </metadata>
  <g
     inkscape:label="Ebene 1"
     inkscape:groupmode="layer"
     id="layer1"
     transform="translate(-928.87589,-136.99187)">
    <path
       style="fill:#000000"
       d="m 946.56567,331.05973 c -1.925,-1.06096 -4.5306,-2.40601 -5.7902,-2.98899 -1.873,-0.86686 -2.103,-1.40977 -1.2627,-2.98004 1.1724,-2.19066 7.0794,-6.09883 9.218,-6.09883 0.786,0 3.1531,-1.76564 5.2604,-3.92365 l 3.8313,-3.92364 -3.6017,0.81232 c -1.981,0.44678 -4.9319,1.93159 -6.5577,3.29958 -3.4786,2.92707 -15.1613,4.75711 -17.5759,2.75319 -2.1429,-1.77845 -1.3726,-5.01027 1.7577,-7.37465 3.8665,-2.92049 14.6845,-13.75115 15.8088,-15.82741 1.2395,-2.28892 1.1511,-10.54909 -0.1587,-14.82234 -1.6577,-5.40876 -3.6901,-32.03624 -2.7225,-35.66851 1.5541,-5.83354 15.6716,-13.78986 29.2932,-16.50906 4.7303,-0.94427 7.5846,-1.17293 27.10033,-2.17096 4.4552,-0.22783 9.0381,-0.91613 10.1843,-1.52956 1.1462,-0.61342 2.9011,-1.11758 3.8997,-1.12035 0.9987,-0.003 4.0658,-1.78616 6.8158,-3.9631 8.0427,-6.36672 9.9127,-6.92025 20.6177,-6.10303 5.1602,0.39393 10.3652,1.2461 11.5665,1.8937 3.4619,1.86617 7.02,1.38228 9.7248,-1.32253 1.375,-1.375 3.1304,-2.5 3.9008,-2.5 0.7705,0 1.8336,-1.4625 2.3625,-3.25 0.8192,-2.76857 0.6008,-3.73143 -1.474,-6.5 -1.3397,-1.7875 -2.865,-3.25 -3.3896,-3.25 -0.5247,0 -0.046,1.15374 1.0628,2.56386 4.2148,5.35823 -1.1726,9.4003 -7.8954,5.9238 -1.7362,-0.8978 -3.791,-1.38893 -4.5664,-1.0914 -0.7754,0.29753 -1.4097,0.036 -1.4097,-0.58126 0,-0.61722 -1.8,-2.78397 -4,-4.815 -2.2,-2.03103 -4,-4.25636 -4,-4.94518 0,-0.68882 1.35,-2.51349 3,-4.05482 1.65,-1.54133 3,-3.53152 3,-4.42265 0,-0.89113 1.1066,-2.12445 2.4592,-2.74072 2.0332,-0.9264 2.2807,-1.45399 1.4289,-3.04562 -0.7674,-1.43388 -0.6235,-2.54596 0.5638,-4.35807 0.8768,-1.33812 2.0338,-2.43294 2.5711,-2.43294 0.5373,0 0.977,-1.37656 0.977,-3.05902 0,-1.71564 0.4247,-2.79649 0.9672,-2.46122 0.532,0.32878 0.7361,1.81784 0.4535,3.30901 -0.4724,2.49348 -0.062,2.90469 5.1126,5.12005 3.0945,1.32485 7.519,4.3014 9.8322,6.61457 2.3131,2.31316 5.1745,4.51322 6.3585,4.88902 1.184,0.3758 3.5757,2.30391 5.3149,4.2847 3.0639,3.4896 3.1406,3.80218 2.4698,10.06611 -0.3808,3.55557 -1.2392,8.04438 -1.9077,9.97514 -0.8664,2.50244 -0.9435,5.01055 -0.2685,8.73447 0.5208,2.87319 0.6437,6.84008 0.2732,8.8153 -0.8014,4.27151 -5.5689,8.71187 -9.3537,8.71187 -1.427,0 -3.305,0.62259 -4.1733,1.38354 -2.3935,2.09756 -19.3133,6.61646 -24.7735,6.61646 -2.6502,0 -6.3483,-0.43876 -8.2182,-0.97503 -3.6134,-1.03632 -12.087,0.4315 -12.087,2.09374 0,0.48471 -0.9,0.88129 -2,0.88129 -1.1,0 -2,0.59037 -2,1.31194 0,3.01253 -6.152,5.95483 -14.1331,6.75941 -4.3082,0.43431 -8.3726,1.12315 -9.0322,1.53075 -1.3448,0.83115 -3.09583,1.07688 -13.83473,1.94153 -9.9115,0.79801 -13.0001,2.01481 -13.0001,5.12153 0,1.38992 0.5328,2.32775 1.25,2.20018 0.6875,-0.12228 2.9275,0.61157 4.9778,1.63077 3.2052,1.59331 4.2566,1.68447 7.5,0.6502 24.86963,-7.93048 68.06073,-19.92172 81.77233,-22.70261 4.4,-0.89238 8.5733,-2.0964 9.2741,-2.6756 0.7008,-0.57921 1.568,-0.75933 1.927,-0.40027 1.2013,1.20126 -3.1353,3.50168 -10.2011,5.41138 l -7,1.89191 -0.5,7.91444 c -0.5541,8.7695 -2,7.87971 -2,-1.23071 l 0,-5.48157 -3.25,0.31336 -3.25,0.31336 -0.2905,8.25 c -0.3629,10.30738 -2.2095,10.93421 -2.2095,0.75 0,-4.99326 -0.3851,-7.5 -1.1521,-7.5 -1.065,0 -16.9118,4.15777 -34.8479,9.14316 l -7.5,2.08465 0.3001,8.63609 c 0.2146,6.17512 0.01,8.20865 -0.7347,7.1361 -0.5692,-0.825 -1.0417,-4.56782 -1.0501,-8.31739 -0.017,-7.33772 0.3922,-6.9468 -5.5153,-5.27548 -1.8939,0.53581 -1.9851,1.29614 -1.7177,14.32935 0.1962,9.56503 -0.028,13.30595 -0.73473,12.26352 -0.5594,-0.825 -1.0239,-6.7875 -1.0323,-13.25 -0.017,-13.05627 0,-13.03531 -6.6696,-10.25 -4.8397,2.02217 -8.2066,1.88224 -12.1199,-0.50374 -1.8008,-1.09794 -3.4405,-1.99626 -3.6437,-1.99626 -0.2033,0 0.061,1.9125 0.5879,4.25 0.5265,2.3375 1.1117,9.44317 1.3004,15.79037 0.2854,9.60165 0.7787,12.61252 2.9363,17.92241 2.9242,7.19654 3.334,13.15364 1.0611,15.42651 -0.8427,0.84268 -3.2052,1.81272 -5.25,2.15564 -4.9178,0.82471 -10.4493,2.50381 -11.8254,3.5896 -1.2023,0.9487 -12.2636,4.80181 -13.8925,4.83933 -0.55,0.0127 -2.575,-0.84503 -4.5,-1.906 z m 9,-1.48839 c 2.475,-0.76939 6.525,-2.29663 9,-3.39387 2.475,-1.09724 7.1142,-2.52533 10.3094,-3.17351 8.0448,-1.63203 8.8186,-3.50984 5.449,-13.22404 -3.5997,-10.37748 -3.9281,-12.25337 -3.8124,-21.77578 0.071,-5.80983 -0.6076,-11.32393 -2.1362,-17.36855 -2.2211,-8.78344 -2.2234,-8.8683 -0.2747,-10.31768 1.4407,-1.07149 3.3651,-1.29082 7.2125,-0.82207 3.5577,0.43345 7.0197,0.1242 10.75,-0.96025 5.2044,-1.51294 5.5019,-1.77414 5.4927,-4.82165 -0.012,-3.89415 -3.9025,-12.5068 -6.823,-15.10396 -2.6663,-2.37103 -7.4384,-1.75187 -15.7712,2.04624 -9.6674,4.40639 -18.7963,13.26107 -16.8756,16.36873 0.3312,0.5359 0.9926,4.01018 1.4697,7.72064 0.4772,3.71045 1.3297,8.77128 1.8946,11.24628 1.0545,4.62042 3.5232,17.64633 4.5803,24.1673 0.5587,3.44613 0.1672,4.14905 -6.4905,11.65544 -4.2503,4.79212 -8.1631,8.25722 -9.7798,8.66065 -3.3906,0.84616 -9.1948,4.37997 -9.1948,5.59817 0,0.50514 0.8519,0.91844 1.893,0.91844 1.0412,0 2.1387,0.6401 2.4389,1.42244 0.3002,0.78234 1.5859,1.62105 2.857,1.86381 1.2711,0.24276 2.5361,0.4978 2.8111,0.56674 0.275,0.069 2.525,-0.50414 5,-1.27352 z m -7,-4.07947 c -2.394,-1.36853 -2.408,-1.43063 -0.3318,-1.46456 2.8028,-0.0458 5.3318,0.93681 5.3318,2.07155 0,1.29404 -2.1259,1.03596 -5,-0.60699 z m 13,-5.25436 c 0,-1.24682 3.9198,-6.09215 3.9668,-4.90337 0.018,0.46325 -0.8668,1.98644 -1.9668,3.38486 -1.1,1.39842 -2,2.08175 -2,1.51851 z m 10,-4.12367 c 0,-0.61708 0.5129,-1.12197 1.1398,-1.12197 0.6269,0 1.7801,-0.7875 2.5628,-1.75 0.9338,-1.1483 1.2967,-1.26368 1.0555,-0.33558 -0.4821,1.8546 -4.7581,4.7372 -4.7581,3.20755 z m 0.1018,-27.77103 c -2.6201,-9.79855 -3.2366,-14.28669 -2.2058,-16.05808 0.9051,-1.55553 1.0472,-1.42324 1.0736,0.9993 0.017,1.53569 0.7334,6.19526 1.5925,10.3546 1.6393,7.93657 1.3084,11.31879 -0.4603,4.70418 z m -4.9991,-5.68285 c -1.3409,-7.6997 -1.4091,-10.40182 -0.2303,-9.11809 0.8716,0.94919 2.5021,15.45 1.7373,15.45 -0.2224,0 -0.9005,-2.84936 -1.507,-6.33191 z m -4.6869,-22.83453 c 0.2295,-0.73346 0.6883,-2.57106 1.0198,-4.08356 0.3519,-1.60605 1.2695,-2.75 2.2059,-2.75 1.1636,0 1.3218,0.34288 0.5768,1.25 -0.5646,0.6875 -1.1822,2.33975 -1.3724,3.67167 -0.1902,1.33192 -0.9087,2.60702 -1.5965,2.83356 -0.6894,0.22703 -1.0635,-0.18664 -0.8336,-0.92167 z m 6.2509,-8.50023 c -1.4018,-1.40184 -0.5826,-2.3587 1.2019,-1.4037 1.0276,0.55 2.2248,0.67834 2.6603,0.28519 0.4355,-0.39315 0.4681,-0.15232 0.072,0.53518 -0.7772,1.35047 -2.8589,1.6591 -3.9347,0.58333 z m 9.3333,-1.85535 c 0,-0.89488 9.315,-6.47798 10.808,-6.47798 0.7791,0 -0.8732,1.575 -3.6716,3.5 -4.7145,3.24296 -7.1364,4.25361 -7.1364,2.97798 z m -38,66.80517 c 1.925,-0.27957 4.9165,-1.57043 6.6477,-2.86856 1.7312,-1.29814 5.3239,-2.84796 7.9838,-3.44406 10.3502,-2.31953 11.3761,-5.83717 7.2899,-24.99751 -4.9274,-23.1046 -5.5995,-29.32781 -3.6164,-33.48642 0.9145,-1.91763 2.0774,-3.4866 2.5842,-3.4866 0.5069,0 2.7616,-1.53725 5.0104,-3.41611 2.2489,-1.87886 6.7741,-4.45732 10.056,-5.72992 5.4854,-2.12702 5.9187,-2.51725 5.3675,-4.83389 -0.9807,-4.12195 -1.348,-4.30239 -7.4577,-3.6638 -10.6014,1.10807 -26.2315,9.48121 -27.3694,14.66197 -0.3543,1.61312 -0.3324,3.43741 0.049,4.05397 0.3811,0.61656 0.6206,5.39378 0.5324,10.61605 -0.1155,6.83321 0.4427,11.90279 1.9911,18.08373 1.3724,5.47783 1.9819,10.35541 1.683,13.46638 -0.4276,4.45022 -1.0726,5.48548 -7.3599,11.81289 -3.7902,3.81436 -7.384,6.93824 -7.9862,6.94196 -0.6023,0.004 -1.927,0.92614 -2.944,2.0498 -1.6205,1.79068 -1.6396,1.96275 -0.1549,1.39302 0.9632,-0.36963 1.6939,-0.17251 1.6939,0.45696 0,0.60885 -0.675,1.10699 -1.5,1.10699 -0.825,0 -1.5,0.375 -1.5,0.83333 0,1.59604 1.4626,2.27809 3.4746,1.62031 1.114,-0.3642 3.6004,-0.89092 5.5254,-1.17049 z m 7,-9.95385 c 0,-1.27732 3.8384,-4.8243 4.5022,-4.16045 0.2695,0.26946 -0.6333,1.54515 -2.0061,2.83485 -1.3728,1.28971 -2.4961,1.88623 -2.4961,1.3256 z m 11.6434,-3.8068 c 1.3763,-2.46263 2.2181,-4.93763 1.8705,-5.5 -0.3475,-0.56238 -0.1553,-1.0225 0.4271,-1.0225 1.7165,0 1.2071,4.24486 -0.93,7.75 -3.0195,4.95233 -4.2196,3.8752 -1.3676,-1.2275 z m -7.7056,-46.60583 c -0.034,-0.77917 -0.2651,-3.44167 -0.5132,-5.91667 -0.4142,-4.13268 -0.3296,-4.34446 1.0362,-2.59448 0.9257,1.18607 1.3188,3.22061 1.0412,5.38866 -0.4629,3.61546 -1.4555,5.59703 -1.5642,3.12249 z m 6.0345,-11.25303 c -2.4843,-1.24912 -3.8391,-3.66364 -2.0556,-3.66364 0.5958,0 1.0833,0.43713 1.0833,0.97141 0,0.53427 1.451,1.34739 3.2244,1.80692 2.2753,0.5896 2.759,1.01408 1.6432,1.44223 -0.8695,0.3337 -2.6225,0.0831 -3.8953,-0.55692 z m 47.02783,11.83636 c 2.3382,-0.825 5.8143,-1.5 7.7245,-1.5 4.7992,0 9.357,-2.39401 12.0255,-6.31645 2.796,-4.10988 2.8119,-5.89135 0.1026,-11.48804 -1.7675,-3.65099 -3.0975,-4.85609 -7.5162,-6.81024 -6.3143,-2.7925 -18.56423,-4.27106 -20.70003,-2.49849 -0.9212,0.76447 -3.4521,0.9646 -7.3055,0.57768 l -5.896,-0.59203 0.3801,3.98509 c 0.3688,3.86734 0.4745,3.96975 3.5779,3.46614 2.764,-0.44853 3.6835,0.0186 6.7769,3.44258 3.9242,4.34359 7.30273,12.98143 6.5722,16.80296 -0.2556,1.33694 -0.3587,2.4308 -0.2291,2.4308 0.1296,0 2.14883,-0.675 4.48713,-1.5 z m 4,-15.77695 c 0,-2.57402 -4.2574,-4.79091 -10.42263,-5.42721 -3.5868,-0.37019 -5.5774,-1.0356 -5.5774,-1.86431 0,-1.84137 2.8458,-4.43742 4.8214,-4.39826 1.3911,0.0276 1.3024,0.3473 -0.518,1.86704 l -2.1966,1.83376 4.9672,0.5883 c 8.55613,1.01334 13.25013,4.75352 10.01973,7.98385 -0.7917,0.79171 -1.0937,0.63065 -1.0937,-0.58317 z m -1.5,-7.21274 c -1.65,-0.74898 -3.852,-1.63079 -4.8932,-1.95958 -1.0412,-0.32879 -1.65843,-0.83248 -1.37163,-1.1193 0.87003,-0.87001 9.62373,1.69367 10.85703,3.17967 1.5086,1.81775 -0.4609,1.77453 -4.5922,-0.10079 z m 38,10.9723 c 9.9498,-0.0551 13.9085,-0.47209 16.8721,-1.77729 2.1296,-0.93793 4.7268,-1.70532 5.7714,-1.70532 3.1638,0 9.6447,-4.95388 10.794,-8.25074 1.3338,-3.82605 0.911,-4.34435 -1.432,-1.75539 -0.9985,1.10337 -2.2742,2.00613 -2.8348,2.00613 -0.5607,0 -0.095,-1.0125 1.0352,-2.25 3.3339,-3.65115 10.177,-15.59245 11.2146,-19.56961 0.528,-2.02422 1.223,-6.23656 1.5444,-9.36076 0.5685,-5.52806 0.4964,-5.7461 -2.6904,-8.13194 -5.1981,-3.89169 -9.3949,-5.68769 -13.2906,-5.68769 -1.9885,0 -4.4858,-0.46583 -5.5497,-1.03518 -1.4881,-0.7964 -1.9342,-0.70931 -1.9342,0.37755 0,0.77701 -0.675,1.97294 -1.5,2.65763 -1.2138,1.00734 -1.5,0.97346 -1.5,-0.17756 0,-0.78234 0.4983,-1.92075 1.1073,-2.5298 0.8098,-0.80981 0.536,-1.41315 -1.0191,-2.24541 -3.1825,-1.70321 -7.4933,0.63994 -7.9135,4.30142 -0.2889,2.51746 -0.08,2.7559 1.8753,2.13548 1.3743,-0.4362 1.9678,-0.32209 1.5809,0.30395 -0.3407,0.55129 0.1295,1.28974 1.0448,1.641 0.9154,0.35127 1.9886,0.11396 2.385,-0.52734 0.4726,-0.76464 0.9535,-0.43209 1.3973,0.96613 0.4821,1.51881 1.4961,2.13213 3.5253,2.13213 2.1303,0 3.6502,1.01211 6.0277,4.01397 l 3.1791,4.01397 1.7347,-2.26397 c 0.9541,-1.24518 2.0887,-3.16397 2.5214,-4.26397 0.4876,-1.23983 0.9613,-1.53311 1.2463,-0.77161 0.2528,0.67561 -0.4558,2.92561 -1.5747,5 -3.8015,7.04757 -5.1178,11.50459 -5.1178,17.32863 0,5.13199 -1.4881,11.89333 -2.384,10.83167 -0.1804,-0.21378 -0.055,-4.27428 0.278,-9.02333 l 0.606,-8.63464 -2.4271,0.26656 c -3.4996,0.38436 -6.9671,5.50272 -3.7279,5.50272 1.573,0 5.23,3.75828 4.4327,4.55556 -0.2988,0.29881 -2.2338,-0.60395 -4.3001,-2.00613 -2.0662,-1.40219 -4.3103,-2.54943 -4.9869,-2.54943 -0.6766,0 -4.066,-0.90592 -7.5319,-2.01315 -4.0499,-1.29377 -7.4912,-1.79001 -9.6303,-1.38871 -3.791,0.7112 -3.9557,1.05143 -1.7098,3.53313 2.2991,2.54044 1.083,8.17891 -2.2326,10.35136 -3.2307,2.11682 -4.1843,1.3389 -1.4647,-1.1948 2.3752,-2.2129 3.9723,-8.28783 2.1788,-8.28783 -0.6324,0 -1.5775,-1.125 -2.1002,-2.5 -0.5228,-1.375 -1.6511,-2.5 -2.5074,-2.5 -3.173,0 -8.1644,2.83188 -12.4231,7.0482 -3.4989,3.46407 -5.0568,4.32019 -7.724,4.24459 -1.9188,-0.0544 -3.0866,0.31716 -2.7432,0.87278 0.3288,0.53212 0.8258,0.7396 1.1043,0.46107 0.2786,-0.27853 1.021,-0.0771 1.6499,0.44756 3.8076,3.17666 9.1043,5.92791 11.4379,5.94111 1.488,0.008 3.3806,0.48746 4.2056,1.06452 1.1369,0.79527 0.6125,0.96353 -2.1669,0.6952 l -3.6668,-0.35401 1.4168,2.73983 c 0.7793,1.50691 1.4169,4.16032 1.4169,5.89648 0,2.65574 0.2777,3.02499 1.75,2.32695 0.9625,-0.45634 7.6,-0.86209 14.75,-0.90167 z m -6.5,-2.5637 c 0,-0.46124 1.9125,-1.38028 4.25,-2.04231 2.3375,-0.66202 4.78,-1.69259 5.4279,-2.29014 1.6775,-1.54725 0.4567,-6.40896 -1.7883,-7.1215 -1.0393,-0.32985 -1.8896,-1.00827 -1.8896,-1.5076 0,-0.5263 1.078,-0.49798 2.5651,0.0674 1.4108,0.53639 2.9858,0.97525 3.5,0.97525 1.7153,0 0.9622,-1.51337 -1.2505,-2.51287 -1.2019,-0.54292 -2.3894,-1.62482 -2.639,-2.40422 -0.3013,-0.94101 0.5704,-0.68787 2.5945,0.75345 1.6936,1.20589 3.7553,1.89924 4.6391,1.5601 0.8749,-0.33574 1.5908,-0.11229 1.5908,0.49655 0,0.60885 -0.45,1.10699 -1,1.10699 -0.55,0 -1,0.4645 -1,1.03222 0,1.69072 4.2661,2.75183 7.4233,1.84637 1.7566,-0.50379 2.5661,-0.4792 2.0092,0.061 -1.9471,1.88902 -8.0565,2.29357 -9.7073,0.64279 -1.9794,-1.97938 -2.7252,-2.00194 -2.7252,-0.0824 0,1.35287 1.1873,1.94411 3.25,1.61842 1.6962,-0.26782 0.5495,1.54149 -2.5386,4.0055 -3.25,2.59314 -12.7114,5.41786 -12.7114,3.79499 z m -0.036,-7.08326 c -1.1452,-2.23286 -1.1183,-2.25968 0.6094,-0.60946 0.994,0.94941 1.533,2.00045 1.1978,2.33565 -0.3352,0.3352 -1.1484,-0.44159 -1.8072,-1.72619 z m -5.4642,-1.61678 c -2.8849,-0.59572 -4.3242,-2.2222 -1.95,-2.20356 2.063,0.0162 5.2184,1.61938 4.421,2.24625 -0.2591,0.20367 -1.371,0.18445 -2.471,-0.0427 z m 9.5,-0.71887 c -1.5956,-1.92255 0.032,-1.94278 2.5588,-0.0318 1.6308,1.23344 1.6809,1.47328 0.3136,1.5 -0.8952,0.0175 -2.1878,-0.6432 -2.8724,-1.4682 z m -12.5,-6.11049 c -1.9588,-1.51499 -1.9501,-1.54011 0.4216,-1.2182 1.3319,0.18078 2.6069,0.89119 2.8334,1.57869 0.5526,1.67817 -0.8151,1.5267 -3.255,-0.36049 z m 29.5,-2.88951 c -0.6945,-0.83674 -0.8028,-1.5 -0.2449,-1.5 0.55,0 1.5602,0.675 2.2449,1.5 0.6944,0.83674 0.8027,1.5 0.2448,1.5 -0.55,0 -1.5602,-0.675 -2.2448,-1.5 z m -36.5,-0.5 c -0.34,-0.55 0.057,-1 0.8819,-1 0.825,0 1.7781,0.45 2.1181,1 0.3399,0.55 -0.057,1 -0.882,1 -0.825,0 -1.7781,-0.45 -2.118,-1 z m 7.5863,-1.90297 c 2.2826,-3.08727 3.6504,-3.45939 2.5937,-0.70557 -0.3119,0.81274 -1.5342,1.99528 -2.7161,2.62786 -2.1313,1.14061 -2.1303,1.12467 0.1224,-1.92229 z m 17.1637,0.24069 c -0.6875,-0.27741 -1.25,-0.87476 -1.25,-1.32743 0,-1.02195 3.8315,-0.0919 4.5746,1.11042 0.5781,0.93542 -1.2487,1.05466 -3.3246,0.21701 z m 21.4812,-5.25756 c -0.435,-1.66335 -0.3049,-2.05378 0.4372,-1.31171 0.5811,0.5811 0.8598,1.64682 0.6193,2.36826 -0.2496,0.74895 -0.7029,0.29565 -1.0565,-1.05655 z m -4.7312,-22.08016 c -1.2195,-0.78809 -1.0903,-0.97224 0.6909,-0.98469 1.2051,-0.008 2.4691,0.43469 2.8091,0.98469 0.7868,1.27319 -1.5299,1.27319 -3.5,0 z m 19.5931,40.49779 c 2.2205,-2.22053 2.4687,-3.20551 2.2045,-8.75 -0.1637,-3.43628 -0.7468,-6.24779 -1.2957,-6.24779 -0.9222,0 -6.2176,13.41407 -6.415,16.25 -0.145,2.08448 2.8508,1.40318 5.5062,-1.25221 z m -10.2034,-26.99779 c 0.49,-2.19092 0.3973,-2.59546 -0.3441,-1.5 -0.5582,0.825 -1.0219,2.3625 -1.0303,3.41667 -0.02,2.55844 0.5519,1.76026 1.3744,-1.91667 z m -8.0911,-3.16405 c -0.4293,-1.11888 -0.2552,-1.42716 0.5314,-0.94098 2.5275,1.5621 0.987,-1.37163 -2.08,-3.96125 -3.2673,-2.75861 -12.2708,-7.40574 -14.3834,-7.42395 -0.6234,-0.005 -1.3667,0.8824 -1.6518,1.97283 -0.6274,2.39887 4.6209,7.35688 10.7198,10.12699 5.2211,2.37141 7.7188,2.45378 6.864,0.22636 z m -8.2986,-6.33595 c -1.375,-1.07554 -1.9874,-1.96553 -1.3608,-1.97776 0.6265,-0.0122 2.2015,0.86279 3.5,1.94449 3.0721,2.55935 1.1288,2.58957 -2.1392,0.0333 z m 18.3935,-12.41678 c -1.0103,-2.63282 -13.2736,-9.58322 -16.9087,-9.58322 -1.822,0 -2.7225,3.00866 -1.3835,4.62215 0.6248,0.75276 2.8825,1.89195 5.0173,2.53154 2.1347,0.63959 3.8814,1.517 3.8814,1.94981 0,0.4328 2.1375,0.95546 4.75,1.16146 2.6125,0.206 4.8483,0.45565 4.9686,0.55479 0.1202,0.0991 -0.026,-0.4573 -0.3251,-1.23653 z m -8.8935,-3.58322 c -1.65,-1.09275 -2.325,-1.97978 -1.5,-1.97118 1.6584,0.0173 7.0994,3.91733 5.5,3.94235 -0.55,0.009 -2.35,-0.87842 -4,-1.97117 z m -25.8345,26.32632 c -0.6571,-4.04931 0.3823,-9.80335 2.8287,-15.65819 0.8766,-2.09821 1.3344,-4.63275 1.0171,-5.63229 -0.3172,-0.99954 0.1064,-3.77901 0.9414,-6.1766 0.835,-2.39758 1.5247,-6.30132 1.5327,-8.67498 0.01,-2.37366 0.4804,-5.18616 1.0497,-6.25 0.8558,-1.59898 0.7037,-1.93426 -0.8775,-1.93426 -1.052,0 -2.4688,-0.67005 -3.1485,-1.48899 -0.6797,-0.81894 -1.5746,-1.27956 -1.9888,-1.02358 -1.4499,0.8961 -4.1947,-3.36857 -4.7283,-7.34647 -0.2961,-2.20786 -0.2401,-5.60454 0.1246,-7.54818 0.7454,-3.97356 4.9885,-9.59278 7.2435,-9.59278 0.9105,0 0.1597,1.25368 -1.9463,3.25 -4.2159,3.99631 -5.6227,10.62277 -3.3747,15.89533 l 1.4303,3.35467 -0.5079,-4.18666 c -0.7535,-6.21145 0.4743,-10.94286 3.8321,-14.76724 2.7552,-3.13798 3.238,-3.32644 6.0292,-2.35344 1.6687,0.58174 3.5115,2.10545 4.095,3.38603 1.2939,2.83981 3.7248,3.53704 5.9146,1.69637 1.0469,-0.88005 2.6115,-1.12644 4.3624,-0.687 l 2.73,0.6852 -2.9873,2.33792 c -5.6903,4.45338 -6.3863,17.06992 -1.1442,20.74167 4.9469,3.46489 9.8968,-2.29646 9.9029,-11.52613 0,-4.71855 -0.4541,-6.21745 -2.7172,-8.907 -1.4966,-1.77854 -2.0865,-3.0222 -1.3109,-2.76367 7.5639,2.52131 7.1723,21.54468 -0.5157,25.04755 -3.9593,1.80399 -10.3801,-0.78609 -12.0892,-4.87668 -1.7446,-4.17541 -1.7423,-10.4839 0,-14.66655 l 1.3685,-3.2754 -3.1185,0.30593 c -1.7152,0.16826 -2.5561,0.0441 -1.8686,-0.27582 1.8336,-0.85335 1.5268,-2.85461 -0.754,-4.91876 -6.119,-5.53792 -13.7316,8.81135 -9.2858,17.50368 1.4446,2.82441 2.3692,3.5 4.7902,3.5 2.3497,0 3.0692,-0.48768 3.3195,-2.25 0.1758,-1.2375 0.7383,-2.25 1.25,-2.25 1.3752,0 1.1375,1.70256 -0.7397,5.29966 -0.9187,1.76019 -2.0292,6.80034 -2.4679,11.20034 -0.9963,9.99105 -2.1394,15.37862 -4.8636,22.92225 -1.629,4.51104 -1.9804,7.07267 -1.4747,10.75 0.7793,5.66573 -0.9515,6.74071 -1.8581,1.15407 z m 18.3097,-44.89142 c -2.2181,-5.83402 -0.7782,-13.75843 3.3414,-18.38925 l 2.1834,-2.45435 -2.5,1.55642 c -1.375,0.85603 -3.1509,2.86048 -3.9464,4.45435 -1.7673,3.5408 -1.8874,12.08408 -0.2129,15.14793 1.6607,3.03874 2.3381,2.8506 1.1345,-0.3151 z m -11.2343,-8.76669 c -1.1595,-2.86648 -0.9514,-5.27863 0.3437,-3.98355 0.5966,0.59657 0.93,2.14907 0.741,3.45 -0.3026,2.08262 -0.4323,2.14639 -1.0847,0.53355 z"
       id="path3484"
       inkscape:connector-curvature="0" />
  </g>
</svg>
