<?xml version="1.0" encoding="UTF-8" standalone="no"?>
<!-- Created with Inkscape (http://www.inkscape.org/) -->

<svg
   xmlns:dc="http://purl.org/dc/elements/1.1/"
   xmlns:cc="http://creativecommons.org/ns#"
   xmlns:rdf="http://www.w3.org/1999/02/22-rdf-syntax-ns#"
   xmlns:svg="http://www.w3.org/2000/svg"
   xmlns="http://www.w3.org/2000/svg"
   xmlns:xlink="http://www.w3.org/1999/xlink"
   xmlns:sodipodi="http://sodipodi.sourceforge.net/DTD/sodipodi-0.dtd"
   xmlns:inkscape="http://www.inkscape.org/namespaces/inkscape"
   width="171.60693"
   height="195.974"
   id="svg2"
   version="1.1"
   inkscape:version="0.48.3.1 r9886"
   sodipodi:docname="Lying-triceps-extension-across-face-1.svg">
  <defs
     id="defs4">
    <radialGradient
       gradientUnits="userSpaceOnUse"
       gradientTransform="matrix(1,0,0,0.91819829,-19.285714,-7.9105395)"
       r="209.56604"
       fy="287.50052"
       fx="398.1105"
       cy="287.50052"
       cx="398.1105"
       id="radialGradient5255"
       xlink:href="#linearGradient5249"
       inkscape:collect="always" />
    <linearGradient
       id="linearGradient5249"
       inkscape:collect="always">
      <stop
         id="stop5251"
         offset="0"
         style="stop-color:#e3e3e3;stop-opacity:1;" />
      <stop
         id="stop5253"
         offset="1"
         style="stop-color:#e3e3e3;stop-opacity:0;" />
    </linearGradient>
  </defs>
  <sodipodi:namedview
     id="base"
     pagecolor="#ffffff"
     bordercolor="#666666"
     borderopacity="1.0"
     inkscape:pageopacity="0.0"
     inkscape:pageshadow="2"
     inkscape:zoom="1.4"
     inkscape:cx="-20.782608"
     inkscape:cy="72.042964"
     inkscape:document-units="px"
     inkscape:current-layer="layer1"
     showgrid="false"
     showguides="true"
     inkscape:guide-bbox="true"
     fit-margin-top="0"
     fit-margin-left="0"
     fit-margin-right="0"
     fit-margin-bottom="0"
     inkscape:window-width="1201"
     inkscape:window-height="886"
     inkscape:window-x="167"
     inkscape:window-y="73"
     inkscape:window-maximized="0">
    <sodipodi:guide
       orientation="-0.70710678,0.70710678"
       position="-2357.4474,306.31795"
       id="guide2985" />
  </sodipodi:namedview>
  <metadata
     id="metadata7">
    <rdf:RDF>
      <cc:Work
         rdf:about="">
        <dc:format>image/svg+xml</dc:format>
        <dc:type
           rdf:resource="http://purl.org/dc/dcmitype/StillImage" />
        <dc:title></dc:title>
      </cc:Work>
    </rdf:RDF>
  </metadata>
  <g
     inkscape:label="Ebene 1"
     inkscape:groupmode="layer"
     id="layer1"
     transform="translate(-928.87589,-136.99187)">
    <path
       style="fill:#000000"
       d="m 946.70856,331.05973 c -1.925,-1.06096 -4.53061,-2.40601 -5.79024,-2.98899 -1.873,-0.86686 -2.10303,-1.40977 -1.26265,-2.98004 1.1724,-2.19066 7.07935,-6.09883 9.21798,-6.09883 0.78596,0 3.15312,-1.76564 5.26035,-3.92365 l 3.83134,-3.92364 -3.60174,0.81232 c -1.98095,0.44678 -4.9319,1.93159 -6.55766,3.29958 -3.47863,2.92707 -15.16135,4.75711 -17.57594,2.75319 -2.1429,-1.77845 -1.37262,-5.01027 1.75769,-7.37465 3.86658,-2.92049 14.68453,-13.75115 15.80883,-15.82741 1.23947,-2.28892 1.15106,-10.54909 -0.15865,-14.82234 -1.65772,-5.40876 -3.69015,-32.03624 -2.72251,-35.66851 1.55406,-5.83354 15.67152,-13.78986 29.2932,-16.50906 4.73023,-0.94427 7.5846,-1.17293 27.10024,-2.17096 4.4552,-0.22783 9.0381,-0.91613 10.1843,-1.52956 1.1462,-0.61342 2.9011,-1.11725 3.8997,-1.11961 0.9987,-0.002 4.1589,-1.78079 7.0227,-3.95205 8.981,-6.80917 13.7643,-8.58508 14.9314,-5.54365 0.3166,0.825 0.9933,1.5 1.5038,1.5 0.563,0 0.5712,-0.68855 0.021,-1.75 -1.7775,-3.42816 -2.1666,-10.73764 -0.8384,-15.75 0.8056,-3.0403 1.2071,-8.89839 1.0244,-14.94639 -0.2729,-9.03347 -0.073,-10.35295 2.1753,-14.37595 3.1286,-5.59762 3.1228,-8.37637 -0.024,-11.77216 -1.375,-1.48365 -2.5,-2.87129 -2.5,-3.08364 0,-1.90034 3.2609,-7.39113 4.9153,-8.27655 2.6473,-1.41678 2.6256,-2.46349 -0.1039,-5.00636 -1.8144,-1.69041 -1.9042,-2.03895 -0.5256,-2.03895 0.9146,0 2.4067,1.4625 3.3158,3.25 2.2304,4.38577 2.1051,4.33387 4.2047,1.74094 1.1316,-1.39745 3.0933,-2.36599 5.025,-2.4809 3.5949,-0.21386 4.1268,0.90689 1.1791,2.48442 -6.425,3.43856 -7.4101,19.87703 -1.3242,22.09656 3.6049,1.3147 7.3139,-2.33435 7.3139,-7.19572 0,-2.17775 0.6454,-5.50419 1.4342,-7.39209 1.3781,-3.29835 1.3233,-3.55122 -1.4012,-6.46788 -1.7505,-1.87387 -2.3081,-3.03533 -1.4573,-3.03533 0.758,0 2.1105,1.11764 3.0055,2.48365 1.499,2.28779 1.7944,2.36665 3.7456,1 3.6336,-2.54507 4.2724,-1.62386 0.9673,1.39491 -5.2334,4.77992 -6.5837,14.92645 -2.6375,19.81907 1.3443,1.66679 1.3743,1.63806 0.3985,-0.38189 -1.3604,-2.81607 -1.3558,-10.38983 0.01,-14.00064 1.7431,-4.6134 5.6614,-8.09033 8.5047,-7.54679 2.3056,0.44073 5.7292,3.7619 6.7335,6.53187 0.2771,0.76423 1.512,0.19097 3.4015,-1.57905 2.3731,-2.22306 3.4315,-2.60683 5.2915,-1.91875 2.2914,0.84765 2.2963,0.88068 0.3353,2.27887 -6.7996,4.84792 -8.0452,19.26891 -1.9061,22.06609 8.5106,3.87768 13.6205,-16.75573 5.6627,-22.86554 -0.9335,-0.71671 -1.102,-1.23129 -0.4093,-1.25 1.7186,-0.0464 5.081,4.59172 5.8426,8.0593 1.5405,7.01164 -4.2776,18.9089 -9.2464,18.9089 -6.5208,0 -9.4333,-12.58327 -4.9391,-21.33875 l 2.4838,-4.83875 -2.352,2.20956 c -4.1281,3.87819 -5.2012,13.60237 -2.1482,19.46794 2.3569,4.52822 1.4188,24.91415 -1.5047,32.69933 -0.5575,1.48463 -1.0933,4.393 -1.1906,6.46303 -0.1426,3.03223 0.3987,4.27812 2.7853,6.41057 2.7842,2.48767 2.9663,3.111 3.0274,10.36407 0.063,7.51688 -0.022,7.79466 -3.2687,10.70072 -2.0246,1.81204 -4.2021,2.86968 -5.5457,2.69362 -1.2337,-0.16168 -3.2704,0.69609 -4.6049,1.93939 -1.3161,1.2261 -3.3205,2.23271 -4.4543,2.23691 -1.1338,0.004 -4.9864,0.90076 -8.5614,1.99236 -7.0884,2.16436 -14.5932,2.55066 -19.913,1.02497 -3.6134,-1.03632 -12.087,0.4315 -12.087,2.09374 0,0.48471 -0.9,0.88129 -2,0.88129 -1.1,0 -2,0.59037 -2,1.31194 0,3.01253 -6.152,5.95483 -14.1331,6.75941 -4.3082,0.43431 -8.3726,1.12315 -9.0322,1.53075 -1.3448,0.83115 -3.0958,1.07688 -13.83469,1.94153 -9.91144,0.79801 -13.00005,2.01481 -13.00005,5.12153 0,1.38992 0.53281,2.32775 1.25,2.20018 0.6875,-0.12228 2.92749,0.61157 4.97776,1.63077 3.20516,1.59331 4.2566,1.68447 7.49999,0.6502 24.86959,-7.93048 68.06069,-19.92172 81.77229,-22.70261 4.4,-0.89238 8.5733,-2.0964 9.2741,-2.6756 0.7008,-0.57921 1.568,-0.75933 1.927,-0.40027 1.2013,1.20126 -3.1353,3.50168 -10.2011,5.41138 l -7,1.89191 -0.5,7.91444 c -0.5541,8.7695 -2,7.87971 -2,-1.23071 l 0,-5.48157 -3.25,0.31336 -3.25,0.31336 -0.2905,8.25 c -0.3629,10.30738 -2.2095,10.93421 -2.2095,0.75 0,-4.99326 -0.3851,-7.5 -1.1521,-7.5 -1.068,0 -17.0163,4.18536 -34.9117,9.16195 l -7.5638,2.10344 0.3787,8.61731 c 0.273,6.21158 0.086,8.19854 -0.6709,7.1173 -0.5773,-0.825 -1.0565,-4.56782 -1.0649,-8.31739 -0.017,-7.33772 0.3922,-6.9468 -5.5153,-5.27548 -1.8901,0.53474 -1.9878,1.32222 -1.7769,14.32935 0.143,8.82102 -0.1011,13.04532 -0.6797,11.76352 -0.4966,-1.1 -0.9345,-7.0625 -0.9732,-13.25 -0.078,-12.49914 -0.093,-12.52081 -6.72449,-9.75 -4.83973,2.02217 -8.20656,1.88224 -12.11992,-0.50374 -1.80079,-1.09794 -3.44046,-1.99626 -3.6437,-1.99626 -0.20325,0 0.0613,1.9125 0.58789,4.25 0.52658,2.3375 1.11178,9.44317 1.30045,15.79037 0.2854,9.60165 0.77868,12.61252 2.93628,17.92241 2.92421,7.19654 3.33397,13.15364 1.0611,15.42651 -0.84268,0.84268 -3.20518,1.81272 -5.25,2.15564 -4.91776,0.82471 -10.44929,2.50381 -11.82539,3.5896 -1.20234,0.9487 -12.26364,4.80181 -13.89246,4.83933 -0.55,0.0127 -2.575,-0.84503 -4.5,-1.906 z m 9,-1.48839 c 2.475,-0.76939 6.525,-2.29663 9,-3.39387 2.475,-1.09724 7.11421,-2.52533 10.30936,-3.17351 8.0448,-1.63203 8.81856,-3.50984 5.44899,-13.22404 -3.59964,-10.37748 -3.92806,-12.25337 -3.81237,-21.77578 0.0706,-5.80983 -0.60759,-11.32393 -2.13617,-17.36855 -2.22118,-8.78344 -2.22344,-8.8683 -0.27471,-10.31768 1.44064,-1.07149 3.36503,-1.29082 7.2125,-0.82207 3.55763,0.43345 7.01965,0.1242 10.74995,-0.96025 5.2044,-1.51294 5.5019,-1.77414 5.4927,-4.82165 -0.012,-3.89415 -3.9025,-12.5068 -6.823,-15.10396 -2.6663,-2.37103 -7.43837,-1.75187 -15.77121,2.04624 -9.66737,4.40639 -18.79623,13.26107 -16.87559,16.36873 0.3312,0.5359 0.99258,4.01018 1.46973,7.72064 0.47716,3.71045 1.32971,8.77128 1.89457,11.24628 1.0545,4.62042 3.52326,17.64633 4.58035,24.1673 0.55864,3.44613 0.16721,4.14905 -6.49049,11.65544 -4.25031,4.79212 -8.16317,8.25722 -9.7798,8.66065 -3.39065,0.84616 -9.19481,4.37997 -9.19481,5.59817 0,0.50514 0.85186,0.91844 1.89301,0.91844 1.04116,0 2.13864,0.6401 2.43885,1.42244 0.30021,0.78234 1.58586,1.62105 2.85699,1.86381 1.27113,0.24276 2.53615,0.4978 2.81115,0.56674 0.275,0.069 2.525,-0.50414 5,-1.27352 z m -7,-4.07947 c -2.39399,-1.36853 -2.40806,-1.43063 -0.33179,-1.46456 2.80271,-0.0458 5.33179,0.93681 5.33179,2.07155 0,1.29404 -2.12596,1.03596 -5,-0.60699 z m 13,-5.25436 c 0,-1.24682 3.91977,-6.09215 3.96673,-4.90337 0.0183,0.46325 -0.86673,1.98644 -1.96673,3.38486 -1.1,1.39842 -2,2.08175 -2,1.51851 z m 10,-4.12367 c 0,-0.61708 0.51289,-1.12197 1.13976,-1.12197 0.62686,0 1.78013,-0.7875 2.56282,-1.75 0.93377,-1.1483 1.29666,-1.26368 1.05544,-0.33558 -0.48204,1.8546 -4.75802,4.7372 -4.75802,3.20755 z m 0.11089,-27.77103 c -2.12537,-8.01974 -2.93811,-12.65184 -2.56227,-14.60339 0.60661,-3.14989 1.45138,-3.36645 1.45138,-0.37206 0,1.48986 0.70293,6.11193 1.56206,10.27127 1.63633,7.92196 1.30822,11.34298 -0.45118,4.70418 z m -5.00823,-5.68285 c -1.34085,-7.6997 -1.4091,-10.40182 -0.23033,-9.11809 0.87159,0.94919 2.50216,15.45 1.73731,15.45 -0.22238,0 -0.90052,-2.84936 -1.50698,-6.33191 z m -4.68686,-22.83453 c 0.22943,-0.73346 0.68831,-2.57106 1.01973,-4.08356 0.35191,-1.60605 1.26956,-2.75 2.20597,-2.75 1.16358,0 1.32179,0.34288 0.57676,1.25 -0.56464,0.6875 -1.18224,2.33975 -1.37244,3.67167 -0.1902,1.33192 -0.90863,2.60702 -1.5965,2.83356 -0.68935,0.22703 -1.06345,-0.18664 -0.83352,-0.92167 z m 6.25087,-8.50023 c -1.40184,-1.40184 -0.58258,-2.3587 1.20185,-1.4037 1.02768,0.55 2.22483,0.67834 2.66032,0.28519 0.4355,-0.39315 0.46811,-0.15232 0.0725,0.53518 -0.77716,1.35047 -2.85887,1.6591 -3.93464,0.58333 z m 9.33333,-1.85535 c 0,-0.89488 9.31496,-6.47798 10.80795,-6.47798 0.7791,0 -0.8732,1.575 -3.67163,3.5 -4.71444,3.24296 -7.13632,4.25361 -7.13632,2.97798 z m -38,66.80517 c 1.925,-0.27957 4.91644,-1.57043 6.64765,-2.86856 1.73121,-1.29814 5.32395,-2.84796 7.98385,-3.44406 10.35021,-2.31953 11.37603,-5.83717 7.28983,-24.99751 -4.92736,-23.1046 -5.59943,-29.32781 -3.61633,-33.48642 0.91445,-1.91763 2.07735,-3.4866 2.58421,-3.4866 0.50686,0 2.76153,-1.53725 5.01038,-3.41611 2.24885,-1.87886 6.77403,-4.45732 10.05596,-5.72992 5.48543,-2.12702 5.91874,-2.51725 5.36754,-4.83389 -0.98074,-4.12195 -1.34802,-4.30239 -7.4577,-3.6638 -10.60142,1.10807 -26.23151,9.48121 -27.3694,14.66197 -0.3543,1.61312 -0.33241,3.43741 0.0486,4.05397 0.38106,0.61656 0.62061,5.39378 0.53234,10.61605 -0.1155,6.83321 0.44271,11.90279 1.99117,18.08373 1.37232,5.47783 1.9819,10.35541 1.68298,13.46638 -0.42762,4.45022 -1.07262,5.48548 -7.3599,11.81289 -3.79017,3.81436 -7.38398,6.93824 -7.98623,6.94196 -0.60226,0.004 -1.92703,0.92614 -2.94394,2.0498 -1.62054,1.79068 -1.63968,1.96275 -0.15498,1.39302 0.96323,-0.36963 1.69393,-0.17251 1.69393,0.45696 0,0.60885 -0.675,1.10699 -1.5,1.10699 -0.825,0 -1.5,0.375 -1.5,0.83333 0,1.59604 1.46258,2.27809 3.47457,1.62031 1.11399,-0.3642 3.60043,-0.89092 5.52543,-1.17049 z m 7,-9.95385 c 0,-1.27732 3.83833,-4.8243 4.50219,-4.16045 0.26946,0.26946 -0.6333,1.54515 -2.00613,2.83485 -1.37283,1.28971 -2.49606,1.88623 -2.49606,1.3256 z m 11.64332,-3.8068 c 1.37639,-2.46263 2.21815,-4.93763 1.87058,-5.5 -0.34756,-0.56238 -0.15538,-1.0225 0.42708,-1.0225 1.7165,0 1.20711,4.24486 -0.93002,7.75 -3.01949,4.95233 -4.2196,3.8752 -1.36764,-1.2275 z m -8.01138,-48.61278 c -0.34757,-1.73785 -0.61763,-4.34097 -0.60014,-5.78472 0.0303,-2.50201 0.0994,-2.53572 1.47397,-0.71948 0.87764,1.15963 1.26759,3.26895 0.9962,5.38866 -0.59269,4.62923 -1.10604,4.93547 -1.87003,1.11554 z m 6.72039,-8.95706 c -2.44028,-0.9232 -3.86997,-2.76835 -2.89809,-3.74023 0.35998,-0.35998 0.98024,-0.12746 1.37836,0.51672 0.39813,0.64417 1.80059,1.56953 3.1166,2.05635 1.31601,0.48683 1.9783,1.13141 1.47177,1.4324 -0.50653,0.301 -1.88742,0.18164 -3.06864,-0.26524 z m 46.64771,11.54734 c 2.3382,-0.825 5.8143,-1.5 7.7245,-1.5 4.7992,0 9.357,-2.39401 12.0255,-6.31645 2.796,-4.10988 2.8119,-5.89135 0.1026,-11.48804 -1.7675,-3.65099 -3.0975,-4.85609 -7.5162,-6.81024 -6.3786,-2.82095 -18.56379,-4.27137 -20.73639,-2.46829 -0.9628,0.79905 -3.4027,0.9997 -7.3033,0.6006 l -5.8574,-0.59933 0.37786,3.96218 c 0.36639,3.84195 0.47489,3.94643 3.57574,3.44323 2.764,-0.44853 3.6835,0.0186 6.7769,3.44258 3.9242,4.34359 7.30269,12.98143 6.57219,16.80296 -0.2556,1.33694 -0.3587,2.4308 -0.2291,2.4308 0.1296,0 2.1488,-0.675 4.4871,-1.5 z m 4,-15.77695 c 0,-2.57402 -4.2574,-4.79091 -10.42259,-5.42721 -3.5868,-0.37019 -5.5774,-1.0356 -5.5774,-1.86431 0,-1.84137 2.8458,-4.43742 4.8214,-4.39826 1.3911,0.0276 1.3024,0.3473 -0.518,1.86704 l -2.1966,1.83376 4.96719,0.5883 c 8.5561,1.01334 13.2501,4.75352 10.0197,7.98385 -0.7917,0.79171 -1.0937,0.63065 -1.0937,-0.58317 z m -1.5,-7.21274 c -1.65,-0.74898 -3.852,-1.63079 -4.8932,-1.95958 -1.0412,-0.32879 -1.6584,-0.83248 -1.3716,-1.1193 0.87,-0.87001 9.6237,1.69367 10.857,3.17967 1.5086,1.81775 -0.4609,1.77453 -4.5922,-0.10079 z m 38,10.9723 c 9.9498,-0.0551 13.9085,-0.47209 16.8721,-1.77729 2.1296,-0.93793 5.3224,-1.70532 7.095,-1.70532 4.5822,0 6.6032,-2.74747 7.4779,-10.16615 0.5591,-4.74123 0.4726,-5.81955 -0.3521,-4.39437 -0.6011,1.03873 -2.368,3.27729 -3.9264,4.97456 l -2.8334,3.08596 2.2994,-4.5 c 1.2647,-2.475 3.0294,-5.4 3.9216,-6.5 0.8922,-1.1 2.1279,-3.35 2.7459,-5 1.2628,-3.37091 3.392,-16.16587 3.578,-21.5 0.067,-1.925 0.6864,-4.09656 1.3762,-4.8257 1.5192,-1.60565 1.0125,-20.11999 -0.6702,-24.4894 -1.3319,-3.45883 -1.4033,-9.71495 -0.1484,-13.01553 0.8289,-2.18029 0.6358,-2.51814 -1.6938,-2.96346 -2.0113,-0.38449 -3.289,0.20352 -5.4356,2.50148 -3.332,3.5669 -3.4767,4.8759 -0.8062,7.29261 2.8958,2.62069 2.7251,11.40093 -0.3501,18.00457 -2.034,4.36783 -3.0846,10.81645 -3.8277,23.49543 -0.048,0.825 -0.6333,2.175 -1.2999,3 -1.3961,1.72778 -4.738,10 -4.0399,10 0.2564,0 1.2253,-1.4625 2.1531,-3.25 1.0529,-2.02868 1.8596,-2.73795 2.1465,-1.88741 0.2528,0.74942 -0.4474,2.99942 -1.556,5 -1.1087,2.00057 -2.3393,6.56241 -2.7347,10.13741 -0.8266,7.47352 -1.0705,8.09872 -2.8875,7.40147 -1.0996,-0.42194 -1.0796,-1.24352 0.1147,-4.70632 1.0682,-3.09744 1.1635,-4.64951 0.3641,-5.93158 -0.5955,-0.95504 -1.0826,-2.33143 -1.0826,-3.05864 0,-1.92312 -13.8663,-5.88168 -17.8275,-5.08943 -3.6337,0.72674 -3.7794,1.05641 -1.5538,3.51577 2.2991,2.54044 1.083,8.17891 -2.2326,10.35136 -3.2307,2.11682 -4.1843,1.3389 -1.4647,-1.1948 2.3752,-2.2129 3.9723,-8.28783 2.1788,-8.28783 -0.6324,0 -1.5775,-1.125 -2.1002,-2.5 -0.5228,-1.375 -1.6511,-2.5 -2.5074,-2.5 -3.173,0 -8.1644,2.83188 -12.4231,7.0482 -3.4989,3.46407 -5.0568,4.32019 -7.724,4.24459 -1.9188,-0.0544 -3.0866,0.31716 -2.7432,0.87278 0.3288,0.53212 0.8258,0.7396 1.1043,0.46107 0.2786,-0.27853 1.021,-0.0771 1.6499,0.44756 3.8076,3.17666 9.1043,5.92791 11.4379,5.94111 1.488,0.008 3.3806,0.48746 4.2056,1.06452 1.1369,0.79527 0.6125,0.96353 -2.1669,0.6952 l -3.6668,-0.35401 1.4168,2.73983 c 0.7793,1.50691 1.4169,4.16032 1.4169,5.89648 0,2.65574 0.2777,3.02499 1.75,2.32695 0.9625,-0.45634 7.6,-0.86209 14.75,-0.90167 z m -6.5,-2.5637 c 0,-0.46124 1.9125,-1.38028 4.25,-2.04231 2.3375,-0.66202 4.78,-1.69259 5.4279,-2.29014 1.6775,-1.54725 0.4567,-6.40896 -1.7883,-7.1215 -1.0393,-0.32985 -1.8896,-1.00827 -1.8896,-1.5076 0,-0.5263 1.078,-0.49798 2.5651,0.0674 1.4108,0.53639 2.9858,0.97525 3.5,0.97525 1.7153,0 0.9622,-1.51337 -1.2505,-2.51287 -1.2019,-0.54292 -2.3894,-1.62482 -2.639,-2.40422 -0.3013,-0.94101 0.5704,-0.68787 2.5945,0.75345 1.6936,1.20589 3.7553,1.89924 4.6391,1.5601 0.8749,-0.33574 1.5908,-0.14979 1.5908,0.41322 0,0.56301 -0.5625,1.2299 -1.25,1.48199 -1.785,0.65448 0.3732,2.76659 3.0316,2.96683 1.1439,0.0862 1.8594,0.51326 1.5901,0.94909 -0.8074,1.30631 -4.1247,0.89657 -5.7289,-0.70759 -0.825,-0.825 -1.7571,-1.5 -2.0714,-1.5 -0.3143,0 -0.5714,0.675 -0.5714,1.5 0,1.35287 1.1873,1.94411 3.25,1.61842 1.6962,-0.26782 0.5495,1.54149 -2.5386,4.0055 -3.25,2.59313 -12.7114,5.41785 -12.7114,3.79498 z m -0.036,-7.08326 c -1.1452,-2.23286 -1.1183,-2.25968 0.6094,-0.60946 0.994,0.94941 1.533,2.00045 1.1978,2.33565 -0.3352,0.3352 -1.1484,-0.44159 -1.8072,-1.72619 z m -5.4642,-1.61678 c -2.8849,-0.59572 -4.3242,-2.2222 -1.95,-2.20356 2.063,0.0162 5.2184,1.61938 4.421,2.24625 -0.2591,0.20367 -1.371,0.18445 -2.471,-0.0427 z m 9.5,-0.71887 c -1.5956,-1.92255 0.032,-1.94278 2.5588,-0.0318 1.6308,1.23344 1.6809,1.47328 0.3136,1.5 -0.8952,0.0175 -2.1878,-0.6432 -2.8724,-1.4682 z m -12.5,-6.11049 c -1.9588,-1.51499 -1.9501,-1.54011 0.4216,-1.2182 1.3319,0.18078 2.6069,0.89119 2.8334,1.57869 0.5526,1.67817 -0.8151,1.5267 -3.255,-0.36049 z m 24.8239,-3.34221 c -0.8703,-2.30569 -0.8266,-2.7937 0.2142,-2.3943 1.6856,0.64684 2.4703,2.71528 1.5779,4.1593 -0.4236,0.68534 -1.1297,-0.0101 -1.7921,-1.765 z m 4.6961,0.47687 c -0.7887,-0.95039 -0.8646,-1.52417 -0.2015,-1.52417 1.2085,0 2.6176,1.8972 1.9241,2.5907 -0.2517,0.2517 -1.0269,-0.22824 -1.7226,-1.06653 z m -36.52,-0.52417 c -0.34,-0.55 0.057,-1 0.8819,-1 0.825,0 1.7781,0.45 2.1181,1 0.3399,0.55 -0.057,1 -0.882,1 -0.825,0 -1.7781,-0.45 -2.118,-1 z m 7.5863,-1.90297 c 2.2826,-3.08727 3.6504,-3.45939 2.5937,-0.70557 -0.3119,0.81274 -1.5342,1.99528 -2.7161,2.62786 -2.1313,1.14061 -2.1303,1.12467 0.1224,-1.92229 z m 17.1637,0.24069 c -0.6875,-0.27741 -1.25,-0.87476 -1.25,-1.32743 0,-1.02195 3.8315,-0.0919 4.5746,1.11042 0.5781,0.93542 -1.2487,1.05466 -3.3246,0.21701 z m 29.25,-21.33772 c -0.352,-0.5694 0.5092,-1 2,-1 1.4907,0 2.3519,0.4306 2,1 -0.34,0.55 -1.24,1 -2,1 -0.7601,0 -1.6601,-0.45 -2,-1 z m -2.5,-2.83139 c 0,-0.42273 0.54,-1.30861 1.2,-1.96861 1.6364,-1.63643 2.8571,-1.51239 2.1913,0.22268 -0.5954,1.55146 -3.3913,2.99089 -3.3913,1.74593 z m 9.5454,37.37684 c 2.0597,-2.05966 2.4546,-3.41814 2.4546,-8.44423 0,-4.80585 -0.454,-6.51741 -2.2967,-8.65967 l -2.2966,-2.66998 -1.6519,3.86421 c -0.9086,2.12532 -1.8023,7.12672 -1.9861,11.11422 -0.2985,6.478 -0.1395,7.25 1.494,7.25 1.0055,0 2.9327,-1.10455 4.2827,-2.45455 z m -19.9723,-22.79545 c 0.9536,-2.8875 2.3581,-6.21144 3.121,-7.38655 0.763,-1.1751 1.6678,-6.1251 2.0107,-11 0.432,-6.14058 1.3381,-10.39946 2.9496,-13.86345 3.1373,-6.74383 3.043,-9.08728 -0.4044,-10.05563 -1.5125,-0.42485 -3.093,-0.6968 -3.5123,-0.60433 -0.4192,0.0925 -1.6312,-1.26086 -2.6933,-3.00737 l -1.9311,-3.17547 -1.1222,2.46295 c -0.948,2.08047 -1.6691,2.3991 -4.6441,2.05178 -8.392,-0.97971 -9.9769,-16.17127 -2.5589,-24.52698 1.6483,-1.85667 1.6326,-1.87964 -0.4217,-0.6188 -5.5463,3.40409 -7.5309,14.07695 -3.9,20.97385 1.704,3.23665 1.7103,3.39023 0.084,2.0411 -0.9673,-0.8024 -2.232,-2.6024 -2.8106,-4 l -1.0519,-2.5411 -0.6823,3.5 c -0.3753,1.925 -1.6009,5.075 -2.7236,7 -1.7688,3.03263 -2.0098,4.96888 -1.8048,14.5 0.1301,6.05 0.576,11.7926 0.991,12.76134 0.5717,1.33459 0.3818,1.61833 -0.7837,1.17107 -2.0842,-0.79977 -3.3339,7.26585 -1.8052,11.65093 0.6032,1.73052 0.8378,3.56543 0.5213,4.07758 -0.3437,0.55616 1.3727,0.68846 4.262,0.32849 3.5536,-0.44273 6.2972,-0.0664 10.3375,1.41788 3.025,1.11131 5.8013,2.03679 6.1696,2.05663 0.3683,0.0198 1.4499,-2.32642 2.4035,-5.21392 z m -10.9824,-8.52441 c -0.771,-11.03956 -0.7436,-9.95446 -0.6301,-24.97559 0.094,-12.46059 1.94,-15.82145 2.1969,-4 0.087,3.9875 0.084,7.925 -0.01,8.75 -0.3852,3.5201 -0.3499,5.09155 0.3728,16.60337 0.4939,7.86845 0.4075,12.32109 -0.247,12.7256 -0.6334,0.39145 -1.2587,-2.98482 -1.686,-9.10338 z m 21.4093,-37.0706 c 0,-1.01476 -0.9,-2.6595 -2,-3.65499 -2.4601,-2.22634 -2.5252,-4.41499 -0.25,-8.41372 1.1961,-2.1023 2.7786,-3.27094 5,-3.69233 3.7764,-0.71639 3.9973,-1.40761 1.2459,-3.89763 -4.4634,-4.03928 -10.3513,2.86209 -10.3984,12.18816 -0.019,3.68761 0.5136,5.78083 1.8432,7.25 2.3193,2.5628 4.5593,2.67114 4.5593,0.22051 z m -26.6873,-13.90499 c 0.4615,-4.08595 0.2867,-5.25 -0.7884,-5.25 -1.7426,0 -4.5243,2.72776 -4.5243,4.43657 0,1.27296 3.9942,6.95652 4.4738,6.36609 0.1353,-0.16646 0.5128,-2.66516 0.8389,-5.55266 z m -12.7008,10.3123 c -3.7276,-1.64601 -5.5322,-4.99362 -5.5765,-10.34442 -0.056,-6.8003 4.2169,-15.21788 7.7253,-15.21788 0.897,0 0.2985,1.07637 -1.568,2.8199 -5.0916,4.75635 -6.4186,14.95826 -2.5854,19.87773 1.2552,1.61096 1.2975,1.5034 0.3985,-1.01273 -1.4131,-3.95502 -1.2505,-10.17505 0.3653,-13.96702 1.5231,-3.57461 6.2635,-8.41661 7.2622,-7.41791 0.3526,0.35266 -0.7314,1.92339 -2.4091,3.49051 -6.7935,6.34608 -6.1412,21.20952 0.9307,21.20952 1.0148,0 1.8451,0.45 1.8451,1 0,1.32918 -2.8251,1.13561 -6.3881,-0.4377 z"
       id="path3482"
       inkscape:connector-curvature="0" />
  </g>
</svg>
