<?xml version="1.0" encoding="UTF-8" standalone="no"?>
<!-- Created with Inkscape (http://www.inkscape.org/) -->

<svg
   xmlns:dc="http://purl.org/dc/elements/1.1/"
   xmlns:cc="http://creativecommons.org/ns#"
   xmlns:rdf="http://www.w3.org/1999/02/22-rdf-syntax-ns#"
   xmlns:svg="http://www.w3.org/2000/svg"
   xmlns="http://www.w3.org/2000/svg"
   xmlns:xlink="http://www.w3.org/1999/xlink"
   xmlns:sodipodi="http://sodipodi.sourceforge.net/DTD/sodipodi-0.dtd"
   xmlns:inkscape="http://www.inkscape.org/namespaces/inkscape"
   width="171.11018"
   height="168.72148"
   id="svg2"
   version="1.1"
   inkscape:version="0.48.3.1 r9886"
   sodipodi:docname="Medicine-ball-biceps-curl-on-stability-ball-1.svg">
  <defs
     id="defs4">
    <radialGradient
       gradientUnits="userSpaceOnUse"
       gradientTransform="matrix(1,0,0,0.91819829,-19.285714,-7.9105395)"
       r="209.56604"
       fy="287.50052"
       fx="398.1105"
       cy="287.50052"
       cx="398.1105"
       id="radialGradient5255"
       xlink:href="#linearGradient5249"
       inkscape:collect="always" />
    <linearGradient
       id="linearGradient5249"
       inkscape:collect="always">
      <stop
         id="stop5251"
         offset="0"
         style="stop-color:#e3e3e3;stop-opacity:1;" />
      <stop
         id="stop5253"
         offset="1"
         style="stop-color:#e3e3e3;stop-opacity:0;" />
    </linearGradient>
  </defs>
  <sodipodi:namedview
     id="base"
     pagecolor="#ffffff"
     bordercolor="#666666"
     borderopacity="1.0"
     inkscape:pageopacity="0.0"
     inkscape:pageshadow="2"
     inkscape:zoom="1.4"
     inkscape:cx="-1.829572"
     inkscape:cy="-43.573888"
     inkscape:document-units="px"
     inkscape:current-layer="layer1"
     showgrid="false"
     showguides="true"
     inkscape:guide-bbox="true"
     fit-margin-top="0"
     fit-margin-left="0"
     fit-margin-right="0"
     fit-margin-bottom="0"
     inkscape:window-width="1201"
     inkscape:window-height="886"
     inkscape:window-x="166"
     inkscape:window-y="73"
     inkscape:window-maximized="0">
    <sodipodi:guide
       orientation="-0.70710678,0.70710678"
       position="-2350.9944,304.98681"
       id="guide2985" />
  </sodipodi:namedview>
  <metadata
     id="metadata7">
    <rdf:RDF>
      <cc:Work
         rdf:about="">
        <dc:format>image/svg+xml</dc:format>
        <dc:type
           rdf:resource="http://purl.org/dc/dcmitype/StillImage" />
        <dc:title></dc:title>
      </cc:Work>
    </rdf:RDF>
  </metadata>
  <g
     inkscape:label="Ebene 1"
     inkscape:groupmode="layer"
     id="layer1"
     transform="translate(-922.42285,-162.91325)">
    <path
       style="fill:#000000"
       d="m 958.6047,330.23759 c -13.34252,-1.56178 -27.72645,-9.86332 -33.41572,-19.28555 -3.86935,-6.40817 -3.66584,-15.97825 0.52608,-24.73848 4.17742,-8.72995 10.19583,-15.27242 17.17573,-18.67134 4.90161,-2.38688 6.95766,-2.78572 14.46267,-2.80555 7.22497,-0.0191 8.74898,-0.29308 8.75,-1.57311 6.8e-4,-0.8525 0.56374,-2.11235 1.25124,-2.79966 2.78825,-2.78749 2.54754,-19.22156 -0.34095,-23.27807 -3.98327,-5.59398 -6.12722,-13.81541 -5.96453,-22.87227 0.17266,-9.61278 1.24781,-13.95909 4.08911,-16.53044 1.07709,-0.97475 3.09938,-4.26462 4.49398,-7.31083 2.10167,-4.59065 2.35907,-6.04503 1.50401,-8.49787 -3.04623,-8.73843 1.20847,-18.14559 8.46838,-18.72361 8.65554,-0.68913 12.13464,0.0349 15.91894,3.31275 l 3.7521,3.25 -0.068,8.78242 c -0.037,4.83034 -0.5415,9.66784 -1.1207,10.75 -1.4219,2.65685 -0.5166,2.47666 3.69456,-0.7354 2.9398,-2.24234 4.4871,-2.6809 9.0789,-2.57339 3.0443,0.0713 5.8071,0.50012 6.1395,0.95298 0.3324,0.45286 1.4818,1.30819 2.5542,1.90072 5.6593,3.12693 8.0753,12.83725 4.957,19.92267 -0.9683,2.2 -1.8612,4.45 -1.9843,5 -0.9205,4.11109 -2.8486,6.67671 -6.3662,8.47128 -2.6115,1.33226 -4.2521,2.96042 -4.673,4.63755 -1.3315,5.30518 -6.274,14.05496 -10.7525,19.03529 l -4.62576,5.14412 3.7475,-0.90859 c 10.08366,-2.44484 13.41996,-3.03654 21.74746,-3.85697 4.95,-0.48767 9.7689,-1.18331 10.7087,-1.54584 2.6614,-1.02662 8.1528,1.24738 11.5841,4.79693 1.7153,1.77443 3.991,3.96613 5.0572,4.87046 1.0661,0.90433 2.26,3.60433 2.6531,6 0.393,2.39567 1.3598,5.08746 2.1485,5.98174 0.7886,0.89429 1.7043,3.36929 2.0348,5.5 0.3306,2.13072 1.5997,5.89903 2.8203,8.37403 1.2207,2.475 3.2065,7.72383 4.4129,11.66406 2.1743,7.101 7.257,16.08276 9.6126,16.9867 2.1115,0.81025 7.9506,-1.20377 8.268,-2.85178 0.2232,-1.15908 -1.0961,-1.90309 -4.9985,-2.81898 -6.186,-1.45184 -8.8017,-2.65552 -8.8017,-4.05037 0,-0.63137 0.6451,-0.66552 1.75,-0.0926 0.9625,0.49905 4,1.22987 6.75,1.62405 5.3606,0.76837 8.5,2.81411 8.5,5.53895 0,2.18282 -3.1148,4.99141 -5.5788,5.03041 -3.1105,0.0492 0.3433,1.62312 5.3865,2.45465 2.3693,0.39064 5.4703,1.71021 6.8912,2.93238 2.4858,2.13825 2.5209,2.3174 0.9293,4.74655 -2.0891,3.18837 -6.7534,4.57522 -18.1282,5.39018 -4.95,0.35465 -10.8768,0.7793 -13.1706,0.94367 -6.5961,0.47266 -10.3922,-4.43405 -8.9621,-11.58434 0.3698,-1.84913 0.2253,-2.77979 -0.374,-2.40937 -1.5987,0.98807 -6.2683,-4.34763 -5.5122,-6.2986 0.3635,-0.93804 0.9072,-3.76353 1.2082,-6.27885 0.4982,-4.16212 0.1996,-5.03323 -3.321,-9.68813 -2.3144,-3.06011 -4.6211,-7.75079 -5.7423,-11.67667 -2.1761,-7.61948 -3.3326,-8.0655 -8.1229,-3.13277 -2.9464,3.03394 -8.5107,5.54912 -12.3122,5.56531 -0.7199,0.003 -1.0187,0.47529 -0.6639,1.04938 1.4,2.26514 -1.7294,4.0978 -5.8178,3.40708 -2.1713,-0.36685 -3.77,-0.28088 -3.5525,0.19106 0.2175,0.47193 1.248,2.53176 2.2899,4.57738 1.849,3.63002 1.8505,3.91817 0.062,12 -1.0078,4.55438 -2.2096,8.70818 -2.6705,9.23068 -0.461,0.5225 -0.8382,1.62331 -0.8382,2.44625 0,0.82294 -1.1752,3.19211 -2.6116,5.26483 -6.12526,8.83869 -22.63956,12.46725 -44.88837,9.86295 z m 34.86464,-6.49982 c 3.1927,-1.61538 6.85676,-4.18715 8.14246,-5.71504 3.2597,-3.87391 6.4929,-13.02584 6.4929,-18.3788 0,-5.69119 -2.3208,-11.3934 -4.699,-11.54572 -0.9906,-0.0634 -2.476,-0.18018 -3.301,-0.25942 -0.82496,-0.0792 -2.38766,0.42268 -3.47246,1.11535 -2.8737,1.83476 -5.5361,1.57154 -13.7179,-1.35619 -11.7498,-4.20445 -17.82015,-10.17858 -18.17248,-17.88439 -0.12569,-2.74914 -0.47164,-3.02834 -4.13716,-3.33891 -9.48209,-0.80339 -22.30601,4.29532 -27.76554,11.03941 -5.29645,6.54262 -7.73446,12.99705 -7.73446,20.47628 0,9.53122 3.94916,16.27005 12.90782,22.02585 9.72747,6.24975 14.43114,7.24174 33.12199,6.98537 16.09063,-0.22071 16.68403,-0.30476 22.33483,-3.16379 z m 73.91606,0.2792 c 1.5984,-0.61593 5.0924,-0.79985 8.2175,-0.43256 7.1021,0.83471 13.762,-1.54329 13.3043,-4.75046 -0.254,-1.78033 -1.0896,-2.1696 -5.2098,-2.42724 -3.6685,-0.22939 -5.8087,-1.04984 -8.4779,-3.25 -1.9638,-1.61873 -4.124,-2.94315 -4.8005,-2.94315 -1.8766,0 -6.0984,-7.89557 -9.74,-18.21525 -1.8019,-5.10661 -4.2434,-11.17932 -5.4253,-13.49491 -1.182,-2.31559 -2.1518,-5.01559 -2.1552,-6 0,-0.98441 -0.6131,-2.95295 -1.3549,-4.37452 -0.7418,-1.42158 -2.1382,-5.09444 -3.1031,-8.16192 -1.2642,-4.0193 -2.3522,-5.7377 -3.895,-6.15167 -3.6119,-0.96915 -18.2511,-0.6642 -23.6448,0.49255 l -5.1025,1.09428 1.6347,2.49485 c 3.0633,4.6752 3.0362,14.05649 -0.063,21.65973 -0.7024,1.72333 -0.4868,1.70827 3.316,-0.2318 2.237,-1.14121 5.7501,-3.61665 7.807,-5.50098 3.3525,-3.07133 7.0395,-4.61036 11.0447,-4.61036 1.0738,0 1.1358,0.39665 0.277,1.77187 -1.732,2.77327 2.314,14.67414 7.1699,21.08995 2.2129,2.92377 5.137,7.83387 6.498,10.91133 2.2913,5.18103 2.4,6.11863 1.4673,12.66112 -0.9472,6.64493 -0.8794,7.17253 1.1379,8.85909 2.23,1.86434 5.3444,1.72683 11.0972,-0.48995 z m -16.2807,-15.30341 c 0,-3.71281 -1.4372,-4.76041 -2.2526,-1.64203 -0.4478,1.71238 0.7543,5.14203 1.8023,5.14203 0.2476,0 0.4503,-1.575 0.4503,-3.5 z m -54.44376,-22.45628 c 0.526,-0.52595 4.59826,-1.26 9.04966,-1.63123 l 8.0934,-0.67496 1.6553,-4.61877 c 0.9605,-2.68006 1.6532,-7.63145 1.6503,-11.79618 0,-6.4874 -0.2485,-7.36903 -2.5387,-9.1705 -2.0595,-1.61997 -3.1347,-1.82076 -5.7434,-1.07258 -1.7653,0.50627 -4.0267,0.9205 -5.0253,0.9205 -3.0822,0 -0.8379,-1.88456 3.0875,-2.59261 5.4315,-0.97969 5.8377,-1.52621 2.2541,-3.03299 -2.2302,-0.93774 -3.777,-1.04988 -5.054,-0.36643 -1.0122,0.54167 -2.5319,0.71946 -3.3772,0.39508 -0.84526,-0.32438 -2.79036,0.30075 -4.32236,1.38919 -6.3065,4.48049 -9.5775,5.18031 -16.97691,3.63216 -3.74474,-0.7835 -6.95863,-1.87451 -7.14196,-2.42447 -0.75231,-2.25675 -1.83114,-0.77726 -1.64074,2.25007 0.11243,1.7875 -0.40992,4.13763 -1.16076,5.22251 -0.75084,1.08487 -1.36517,3.94041 -1.36517,6.34563 0,5.1767 2.50452,9.19445 7.23031,11.59885 1.79833,0.91496 5.06969,2.75092 7.26969,4.07991 4.16034,2.51324 12.20464,3.39847 14.05624,1.54682 z m -2.0762,-18.7996 c 1.386,-2.03961 2.52,-4.61643 2.52,-5.72625 0,-3.02342 4.54006,-2.80346 4.79126,0.23213 0.1947,2.35148 -1.3296,3.13512 -2.02726,1.04225 -0.2214,-0.66427 -1.455,0.66489 -2.7414,2.95368 -1.2864,2.28879 -2.9517,4.3966 -3.7007,4.68401 -0.7593,0.2914 -0.247,-1.11794 1.1581,-3.18582 z m -14.6449,-4.91705 c -0.91567,-0.24251 -1.91804,-1.10072 -2.22749,-1.90714 -0.44838,-1.16845 -0.1744,-1.25843 1.34911,-0.44307 1.05147,0.56273 2.8679,1.02314 4.03648,1.02314 1.1687,0 1.8467,0.45 1.5068,1 -0.6332,1.02447 -1.7389,1.10199 -4.6649,0.32707 z m 6.7625,-0.16908 c -0.4993,-0.80783 7.116,-5.15799 9.0295,-5.15799 0.9502,0 0.228,2.87535 -0.9724,3.87162 -1.9857,1.64791 -7.3084,2.49774 -8.0571,1.28637 z m 0.058,-7.21709 2.7856,-1.0591 -3.1242,-1.97815 c -1.7184,-1.08798 -3.89426,-3.64889 -4.83531,-5.6909 -0.94105,-2.04201 -2.99296,-5.75157 -4.55979,-8.24346 -1.56684,-2.49189 -3.37569,-6.98752 -4.01967,-9.9903 -0.64398,-3.00278 -1.83714,-6.47646 -2.65148,-7.71929 -1.3166,-2.00939 -1.30982,-2.2597 0.0612,-2.2597 1.87992,0 4.68825,5.34228 4.68825,8.91845 0,3.09996 3.2478,9.56185 6.6024,13.13627 1.31864,1.40509 2.39764,3.48123 2.39764,4.61363 0,1.13241 1.1787,3.23766 2.6194,4.67834 l 2.6194,2.61943 2.9302,-2.08648 c 6.6658,-4.74646 14.60802,-16.15881 16.50472,-23.71602 0.5631,-2.24357 0.3898,-2.3964 -2.029,-1.7893 -1.4546,0.36508 -2.6447,0.25336 -2.6447,-0.24828 0,-1.15261 2.4879,-2.12604 5.4339,-2.12604 2.9926,0 8.6577,-3.92663 9.665,-6.69901 0.6558,-1.8051 0.4946,-2.09355 -0.9,-1.61027 -0.9344,0.32382 -2.1489,1.12737 -2.6989,1.78567 -2.2721,2.71949 -5.3726,3.56231 -9.6059,2.61117 -4.3308,-0.97309 -6.05532,-2.5039 -5.2334,-4.64573 0.2616,-0.68174 -0.01,-1.5366 -0.5926,-1.8997 -1.65002,-1.01976 -1.25142,6.63147 0.4636,8.8989 0.8075,1.06756 1.1306,2.19256 0.7182,2.5 -1.0062,0.74995 -3.18262,4.19787 -3.83422,6.0741 -0.2894,0.83333 -3.0055,2.49101 -6.0359,3.68375 l -5.5096,2.1686 0.6591,-3.0009 c 0.4735,-2.156 0.165,-3.54682 -1.0957,-4.93987 -2.2693,-2.50758 -1.4395,-3.31952 1.3767,-1.34701 1.2043,0.84354 2.1897,2.39407 2.1897,3.44562 0,1.28863 0.489,1.72426 1.5,1.33631 1.8318,-0.70294 2.0514,-7.41017 0.3,-9.16163 -0.66,-0.66 -2.3048,-1.2 -3.655,-1.2 -2.3824,0 -2.4021,-0.0585 -0.6653,-1.97756 3.3239,-3.67287 -0.1047,-14.9153 -4.83221,-15.84509 -1.13871,-0.22395 -1.45592,0.1584 -1.03703,1.25 0.41508,1.08171 0.0238,1.57382 -1.25351,1.57639 -1.02134,0.002 -3.37024,0.9263 -5.21977,2.05388 -1.84953,1.12759 -3.60115,1.81178 -3.8925,1.52043 -0.79584,-0.79583 1.8038,-3.57805 3.34325,-3.57805 0.73869,0 2.70936,-1.33558 4.37925,-2.96796 1.6699,-1.63238 3.60218,-2.75077 4.29395,-2.48531 0.69177,0.26545 2.01577,-0.76146 2.94227,-2.28204 1.6534,-2.71362 1.6265,-2.82473 -1.4556,-6.01469 -1.72712,-1.7875 -2.6019,-3.25 -1.94401,-3.25 0.6579,0 1.19621,0.42885 1.19621,0.953 0,1.35043 6.9393,3.10033 9.6232,2.4267 3.8166,-0.9579 5.4928,-10.45565 3.5084,-19.8797 -0.9242,-4.38952 -5.9716,-6.7165 -13.51602,-6.23134 -8.3855,0.53924 -10.87912,4.51597 -8.88958,14.17675 0.94231,4.5756 0.80164,5.52841 -1.48442,10.05459 -1.38895,2.75 -3.61018,6.42349 -4.93607,8.16331 -1.82875,2.3997 -2.63188,5.1758 -3.32698,11.5 -0.50396,4.58518 -1.18659,9.26812 -1.51696,10.40655 -0.36895,1.2714 0.002,2.57003 0.96169,3.36648 0.85929,0.71315 2.0621,3.15259 2.67292,5.42098 0.61081,2.26839 1.90475,5.25347 2.87542,6.63351 0.97068,1.38004 2.07588,5.20917 2.45602,8.50917 0.93543,8.12055 1.4241,9.49465 3.38973,9.5318 0.92543,0.0175 2.55612,0.6925 3.62374,1.5 2.30148,1.74075 4.43261,1.84689 8.21431,0.4091 z m -0.054,-12.67288 c -0.3268,-0.32679 0.7542,-1.41417 2.4023,-2.4164 1.648,-1.00222 2.9964,-2.27884 2.9964,-2.83692 0,-0.55809 0.45,-1.0147 1,-1.0147 0.55,0 1,0.60526 1,1.34501 0,2.37981 -5.9697,6.35199 -7.3987,4.92301 z m -6.44348,-6.97818 c -2.43969,-4.76003 -2.557,-5.28984 -1.17128,-5.28984 1.18526,0 4.21406,6.90916 3.69499,8.42887 -0.20122,0.58912 -1.33689,-0.82344 -2.52371,-3.13903 z M 975.605,218.62889 c -1.65,-1.32297 -2.48735,-2.40763 -1.86078,-2.41036 1.46419,-0.006 6.02024,3.66454 5.36078,4.31931 -0.275,0.27305 -1.85,-0.58598 -3.5,-1.90895 z m 48.3307,33.15247 c 3.482,-0.86229 8.8445,-1.5678 11.9167,-1.5678 6.2325,0 6.3932,-0.73163 0.4536,-2.06616 -2.798,-0.62868 -5.6136,-0.45647 -9.6266,0.5888 -3.1196,0.81255 -7.9698,1.47736 -10.7782,1.47736 -5.0548,0 -5.0879,0.0203 -3.2834,2.01414 1.0025,1.10777 2.5347,1.81328 3.4049,1.5678 0.8703,-0.24548 4.4311,-1.15184 7.913,-2.01414 z m -25.82736,-31.56165 c -0.5519,-1.03107 -1.009,-3.36675 -1.0158,-5.19041 -0.01,-2.48029 -1.0321,-4.41368 -4.0592,-7.67326 -2.2256,-2.39663 -4.2639,-4.1403 -4.5293,-3.87482 -0.2655,0.26549 0.2649,2.35118 1.1786,4.63488 0.917,2.2917 1.4157,5.38052 1.1131,6.89355 -0.3658,1.82925 0.086,3.56696 1.3583,5.22264 1.0486,1.3647 1.9307,3.60627 1.9603,4.98127 l 0.054,2.5 2.4717,-2.80959 c 1.9351,-2.19974 2.2539,-3.21651 1.4684,-4.68426 z m 14.99666,-4.9338 c 0,-0.51021 1.7836,-1.7146 3.9636,-2.67642 4.3984,-1.94053 6.0364,-5.0869 6.0364,-11.59481 0,-11.18888 -11.5228,-16.55143 -20.9269,-9.73912 -8.17656,5.92309 -9.01926,14.52567 -1.7955,18.32975 2.6664,1.40415 3.7224,2.61954 3.7224,4.28425 0,2.0877 0.4575,2.324 4.5,2.324 2.475,0 4.5,-0.41744 4.5,-0.92765 z m -18.20116,-18.2697 c 1.2077,-2.85854 1.657,-4.65854 0.9985,-4 -0.6585,0.65854 -1.9575,1.19735 -2.8866,1.19735 -0.929,0 -2.7113,0.82769 -3.9606,1.83932 l -2.2715,1.83932 2.1607,2.16068 c 1.1884,1.18837 2.5213,2.16068 2.9622,2.16068 0.4408,0 1.7896,-2.33881 2.9973,-5.19735 z"
       id="path3418"
       inkscape:connector-curvature="0" />
  </g>
</svg>
