<?xml version="1.0" encoding="UTF-8" standalone="no"?>
<!-- Created with Inkscape (http://www.inkscape.org/) -->

<svg
   xmlns:dc="http://purl.org/dc/elements/1.1/"
   xmlns:cc="http://creativecommons.org/ns#"
   xmlns:rdf="http://www.w3.org/1999/02/22-rdf-syntax-ns#"
   xmlns:svg="http://www.w3.org/2000/svg"
   xmlns="http://www.w3.org/2000/svg"
   xmlns:xlink="http://www.w3.org/1999/xlink"
   xmlns:sodipodi="http://sodipodi.sourceforge.net/DTD/sodipodi-0.dtd"
   xmlns:inkscape="http://www.inkscape.org/namespaces/inkscape"
   width="171.11018"
   height="168.72148"
   id="svg2"
   version="1.1"
   inkscape:version="0.48.3.1 r9886"
   sodipodi:docname="Medicine-ball-biceps-curl-on-stability-ball-1.svg">
  <defs
     id="defs4">
    <radialGradient
       gradientUnits="userSpaceOnUse"
       gradientTransform="matrix(1,0,0,0.91819829,-19.285714,-7.9105395)"
       r="209.56604"
       fy="287.50052"
       fx="398.1105"
       cy="287.50052"
       cx="398.1105"
       id="radialGradient5255"
       xlink:href="#linearGradient5249"
       inkscape:collect="always" />
    <linearGradient
       id="linearGradient5249"
       inkscape:collect="always">
      <stop
         id="stop5251"
         offset="0"
         style="stop-color:#e3e3e3;stop-opacity:1;" />
      <stop
         id="stop5253"
         offset="1"
         style="stop-color:#e3e3e3;stop-opacity:0;" />
    </linearGradient>
  </defs>
  <sodipodi:namedview
     id="base"
     pagecolor="#ffffff"
     bordercolor="#666666"
     borderopacity="1.0"
     inkscape:pageopacity="0.0"
     inkscape:pageshadow="2"
     inkscape:zoom="1.4"
     inkscape:cx="-1.829572"
     inkscape:cy="-43.573888"
     inkscape:document-units="px"
     inkscape:current-layer="layer1"
     showgrid="false"
     showguides="true"
     inkscape:guide-bbox="true"
     fit-margin-top="0"
     fit-margin-left="0"
     fit-margin-right="0"
     fit-margin-bottom="0"
     inkscape:window-width="1201"
     inkscape:window-height="886"
     inkscape:window-x="166"
     inkscape:window-y="73"
     inkscape:window-maximized="0">
    <sodipodi:guide
       orientation="-0.70710678,0.70710678"
       position="-2350.9944,304.98681"
       id="guide2985" />
  </sodipodi:namedview>
  <metadata
     id="metadata7">
    <rdf:RDF>
      <cc:Work
         rdf:about="">
        <dc:format>image/svg+xml</dc:format>
        <dc:type
           rdf:resource="http://purl.org/dc/dcmitype/StillImage" />
        <dc:title></dc:title>
      </cc:Work>
    </rdf:RDF>
  </metadata>
  <g
     inkscape:label="Ebene 1"
     inkscape:groupmode="layer"
     id="layer1"
     transform="translate(-922.42285,-162.91325)">
    <path
       style="fill:#000000"
       d="m 959.31898,330.80901 c -13.34252,-1.56178 -27.72645,-9.86332 -33.41572,-19.28555 -3.86935,-6.40817 -3.66584,-15.97825 0.52608,-24.73848 4.17742,-8.72995 10.19583,-15.27242 17.17573,-18.67134 4.90161,-2.38688 6.95766,-2.78572 14.46267,-2.80555 7.22497,-0.0191 8.74898,-0.29308 8.75,-1.57311 6.8e-4,-0.8525 0.56374,-2.11235 1.25124,-2.79966 2.78825,-2.78749 2.54754,-19.22156 -0.34095,-23.27807 -3.98327,-5.59398 -6.12722,-13.81541 -5.96453,-22.87227 0.17266,-9.61278 1.24781,-13.95909 4.08911,-16.53044 1.07709,-0.97475 3.09938,-4.26462 4.49398,-7.31083 2.10167,-4.59065 2.35907,-6.04503 1.50401,-8.49787 -3.04623,-8.73843 1.20847,-18.14559 8.46838,-18.72361 8.65554,-0.68913 12.13464,0.0349 15.91892,3.31275 l 3.7521,3.25 -0.068,8.81594 c -0.079,10.24697 -1.7165,14.07132 -6.73408,15.72727 -5.2496,1.73254 -6.0073,3.46073 -2.8146,6.41964 1.5057,1.39543 3.0166,2.53715 3.3576,2.53715 0.341,0 2.0753,2.22298 3.85398,4.93995 2.6536,4.05344 3.234,5.92607 3.234,10.4349 0,3.02222 0.4652,6.71866 1.0339,8.2143 0.7672,2.01807 0.6151,4.60149 -0.5899,10.01777 -2.0125,9.04578 -1.2958,13.90077 1.9053,12.90612 5.3893,-1.67457 10.8215,-2.66374 19.1507,-3.48723 4.95,-0.4894 9.7689,-1.18644 10.7087,-1.54897 2.6614,-1.02662 8.1528,1.24738 11.5841,4.79693 1.7153,1.77443 3.991,3.96613 5.0572,4.87046 1.0661,0.90433 2.26,3.60433 2.6531,6 0.393,2.39567 1.3598,5.08746 2.1485,5.98174 0.7886,0.89429 1.7043,3.36929 2.0348,5.5 0.3306,2.13072 1.5997,5.89903 2.8203,8.37403 1.2207,2.475 3.2065,7.72383 4.4129,11.66406 2.1743,7.101 7.257,16.08276 9.6126,16.9867 2.1115,0.81025 7.9506,-1.20377 8.268,-2.85178 0.2232,-1.15908 -1.0961,-1.90309 -4.9985,-2.81898 -6.186,-1.45184 -8.8017,-2.65552 -8.8017,-4.05037 0,-0.63137 0.6451,-0.66552 1.75,-0.0926 0.9625,0.49905 4,1.22987 6.75,1.62405 5.3606,0.76837 8.5,2.81411 8.5,5.53895 0,2.18282 -3.1148,4.99141 -5.5788,5.03041 -3.1105,0.0492 0.3433,1.62312 5.3865,2.45465 2.3693,0.39064 5.4703,1.71021 6.8912,2.93238 2.4858,2.13825 2.5209,2.3174 0.9293,4.74655 -2.0891,3.18837 -6.7534,4.57522 -18.1282,5.39018 -4.95,0.35465 -10.8768,0.7793 -13.1706,0.94367 -6.5961,0.47266 -10.3922,-4.43405 -8.9621,-11.58434 0.3698,-1.84913 0.2253,-2.77979 -0.374,-2.40937 -0.5371,0.33195 -2.0704,-0.49032 -3.4074,-1.82727 -2.1463,-2.14627 -2.3256,-2.88419 -1.5322,-6.30384 1.5727,-6.77871 1.1156,-9.10852 -2.8037,-14.29086 -2.2014,-2.91075 -4.5239,-7.66823 -5.624,-11.52028 -2.1761,-7.61948 -3.3326,-8.0655 -8.1229,-3.13277 -2.8458,2.93039 -8.4907,5.54737 -12.0031,5.56466 -0.55,0.003 -1,1.68342 -1,3.73493 0,3.17839 -0.4588,3.95489 -3.1025,5.25065 -1.8734,0.91827 -2.9109,2.0724 -2.619,2.9135 0.5717,1.64741 -2.7268,17.18162 -3.9404,18.55715 -0.461,0.5225 -0.8381,1.62331 -0.8381,2.44625 0,0.82294 -1.1753,3.19211 -2.6117,5.26483 -6.1252,8.83869 -22.63951,12.46725 -44.88832,9.86295 z m 34.86464,-6.49982 c 6.98488,-3.53407 9.80468,-6.688 12.55768,-14.04612 2.2603,-6.04123 2.7695,-14.9325 0.9205,-16.0752 -0.6364,-0.39332 -2.7559,-0.65503 -4.7099,-0.58157 -1.9541,0.0735 -4.5675,-0.53129 -5.8077,-1.34388 -1.24018,-0.81259 -3.14388,-1.47744 -4.23048,-1.47744 -3.9698,0 -16.70947,-5.32441 -20.91766,-8.74232 -4.57273,-3.71398 -6.31539,-6.847 -6.53992,-11.75768 -0.12569,-2.74914 -0.47164,-3.02834 -4.13716,-3.33891 -9.48209,-0.80339 -22.30601,4.29532 -27.76554,11.03941 -5.29645,6.54262 -7.73446,12.99705 -7.73446,20.47628 0,9.53122 3.94916,16.27005 12.90782,22.02585 9.72747,6.24975 14.43114,7.24174 33.12199,6.98537 16.09063,-0.22071 16.68403,-0.30476 22.33483,-3.16379 z m 73.91608,0.2792 c 1.5984,-0.61593 5.0924,-0.79985 8.2175,-0.43256 7.1021,0.83471 13.762,-1.54329 13.3043,-4.75046 -0.254,-1.78033 -1.0896,-2.1696 -5.2098,-2.42724 -3.6685,-0.22939 -5.8087,-1.04984 -8.4779,-3.25 -1.9638,-1.61873 -4.124,-2.94315 -4.8005,-2.94315 -1.8766,0 -6.0984,-7.89557 -9.74,-18.21525 -1.8019,-5.10661 -4.2434,-11.17932 -5.4253,-13.49491 -1.182,-2.31559 -2.1518,-5.01559 -2.1552,-6 0,-0.98441 -0.6131,-2.95295 -1.3549,-4.37452 -0.7418,-1.42158 -2.1382,-5.09444 -3.1031,-8.16192 -1.2642,-4.0193 -2.3522,-5.7377 -3.895,-6.15167 -3.6119,-0.96915 -18.2511,-0.6642 -23.6448,0.49255 l -5.1025,1.09428 1.6057,2.45055 c 2.9812,4.54997 2.9693,14.42385 -0.026,21.70403 -0.709,1.72298 -0.4933,1.70786 3.3088,-0.2318 2.2369,-1.14121 5.7501,-3.61665 7.8069,-5.50098 3.3526,-3.07133 7.0396,-4.61036 11.0448,-4.61036 1.0738,0 1.1358,0.39665 0.277,1.77187 -1.7388,2.78417 2.3149,14.67541 7.2055,21.13703 2.2326,2.94966 5.1862,7.96175 6.5637,11.13798 2.3385,5.39206 2.4324,6.22839 1.4173,12.61404 -1.0288,6.47211 -0.9712,6.93531 1.0723,8.63244 2.2444,1.86395 5.3593,1.7266 11.1115,-0.48995 z m -16.2807,-15.30341 c 0,-3.71281 -1.4372,-4.76041 -2.2526,-1.64203 -0.4478,1.71238 0.7543,5.14203 1.8023,5.14203 0.2476,0 0.4503,-1.575 0.4503,-3.5 z m -36.163,-20.97314 c 1.5669,-1.62794 1.4608,-1.68697 -1.837,-1.02195 -1.925,0.38819 -3.9275,1.10839 -4.45,1.60044 -1.4427,1.35864 -6.1904,1.07177 -10.2357,-0.61848 -4.44638,-1.85784 -5.52858,-1.22937 -1.6527,0.95984 3.8475,2.17325 15.7794,1.56939 18.1754,-0.91985 z m -31.12008,-14.60857 c -3.09194,-6.07323 -4.16328,-9.57787 -4.91895,-16.09128 -0.53134,-4.57985 -1.10174,-9.45201 -1.26754,-10.82701 -0.16581,-1.375 -2.09874,-6.325 -4.2954,-11 -2.43968,-5.19221 -3.89831,-9.66746 -3.74823,-11.5 0.13513,-1.65 -0.20825,-3.57338 -0.76306,-4.27417 -0.55482,-0.70079 -0.82125,-1.46167 -0.59208,-1.69084 0.77273,-0.77273 8.86832,3.35627 8.86832,4.52311 0,0.63573 -0.5625,0.9259 -1.25,0.64482 -4.86337,-1.98836 -5.06723,-2.02523 -4.2958,-0.77702 0.43026,0.69618 0.93798,2.87225 1.12825,4.83571 0.34515,3.56164 5.29823,14.23151 6.60853,14.23601 1.46841,0.005 1.74058,-1.89551 0.69922,-4.88275 -0.59722,-1.71318 -1.58183,-3.11487 -2.18802,-3.11487 -0.77098,0 -0.75431,-0.34787 0.0554,-1.15762 0.87683,-0.87682 1.53175,-0.84712 2.70001,0.12245 1.78282,1.47961 1.97243,5.06231 0.53143,10.04177 -1.45044,5.0121 0.80694,22.36455 3.54019,27.21368 l 2.097,3.72029 1.7532,-4.87526 c 0.9642,-2.6814 2.6233,-5.66277 3.6868,-6.62528 2.2006,-1.99149 2.4279,-5.16588 0.7834,-10.94003 l -1.1393,-4 -1.2168,2.90059 -1.2168,2.90059 -2.6119,-3.84375 c -1.4365,-2.11406 -2.4632,-3.99241 -2.2815,-4.17412 0.6799,-0.67984 3.6192,0.97492 3.6836,2.07368 0.037,0.62865 0.6961,-0.87735 1.4652,-3.34668 1.2184,-3.91182 1.1987,-5.26025 -0.153,-10.47662 -2.0219,-7.80274 -3.0348,-9.60305 -4.9826,-8.85561 -1.2343,0.47363 -1.0527,-0.44948 0.8436,-4.28724 2.0131,-4.07435 2.2829,-5.62373 1.6164,-9.2809 -0.44,-2.41453 -1.5575,-5.22703 -2.4833,-6.25 -1.7632,-1.94832 -4.37324,-2.51257 -4.37324,-0.94544 0,1.10069 -9.09538,6.32345 -9.79457,5.62426 -0.76597,-0.76597 1.88441,-3.53876 3.38254,-3.53876 0.73869,0 2.70936,-1.33558 4.37925,-2.96796 1.6699,-1.63238 3.60814,-2.74848 4.3072,-2.48023 0.69902,0.26825 2.06742,-0.86044 3.04072,-2.5082 l 1.7698,-2.99594 -3.2925,-2.99452 c -1.81084,-1.64699 -2.72994,-3.00771 -2.04244,-3.02384 0.6875,-0.0161 1.25004,0.39954 1.25004,0.92369 0,1.35043 6.9393,3.10033 9.6232,2.4267 3.81661,-0.9579 5.49281,-10.45565 3.50841,-19.8797 -0.9242,-4.38952 -5.97161,-6.7165 -13.51603,-6.23134 -8.3855,0.53924 -10.87912,4.51597 -8.88958,14.17675 0.94231,4.5756 0.80164,5.52841 -1.48442,10.05459 -1.38895,2.75 -3.61018,6.42349 -4.93607,8.16331 -1.84447,2.42032 -2.61522,5.12143 -3.28147,11.5 -0.47893,4.58518 -1.17334,9.11096 -1.54314,10.05729 -0.4141,1.05971 0.13261,2.74394 1.42335,4.38486 1.15264,1.46534 2.09571,3.34178 2.09571,4.16987 0,0.82808 0.87492,3.3549 1.94427,5.61514 1.06934,2.26024 2.22718,7.11918 2.57296,10.79764 0.64192,6.82876 1.4661,8.31516 4.97129,8.96577 1.09368,0.203 2.14259,1.16913 2.3309,2.14696 0.28647,1.48754 -0.11991,1.66453 -2.48852,1.08381 -1.55699,-0.38174 -2.9809,-1.07445 -3.16423,-1.53936 -0.8089,-2.05125 -1.82713,-0.5589 -1.64074,2.40471 0.11243,1.7875 -0.40992,4.13763 -1.16076,5.22251 -0.75084,1.08487 -1.36517,4.10737 -1.36517,6.71666 0,4.09709 0.48192,5.22609 3.53333,8.2775 1.94334,1.94333 4.08084,3.54951 4.75,3.56929 0.66917,0.0198 2.51575,1.09829 4.10351,2.39668 l 2.8868,2.36071 2.1981,-2.5554 2.1981,-2.5554 -3.9529,-7.76426 z m 6.8648,12.08171 c 0.2301,0 0.4183,-0.675 0.4183,-1.5 0,-2.19932 -1.7539,-1.82839 -3.0812,0.65163 -0.9942,1.85771 -0.9195,2.06261 0.5466,1.5 0.934,-0.3584 1.8863,-0.65163 2.1163,-0.65163 z m 20.52038,-1.28656 c 4.0739,-2.7415 6.2835,-8.47148 5.3644,-13.91142 -0.7551,-4.46925 -6.1643,-9.72344 -10.2513,-9.95754 -10.1341,-0.58047 -14.40138,2.4759 -16.09208,11.52555 -1.1926,6.38397 1.0733,10.58409 6.87688,12.74721 6.3251,2.35749 10.162,2.24763 14.1021,-0.4038 z m 6.1383,-21.23594 c -0.626,-3.27487 -4.6582,-6.44251 -7.3161,-5.74745 -1.7932,0.46893 -1.5535,0.83383 1.9013,2.89403 2.1743,1.2966 4.2139,3.03661 4.5324,3.86669 0.905,2.35821 1.415,1.77257 0.8824,-1.01327 z m -6.2404,-8.14347 c 0.9999,-0.32232 0.3873,-0.95484 -1.8374,-1.89722 -2.4178,-1.02422 -3.8699,-1.12864 -5.2706,-0.37901 -1.0634,0.56908 -2.3938,0.75014 -2.9565,0.40235 -1.4119,-0.87258 -3.9355,1.40426 -3.9355,3.55063 0,1.65731 0.3842,1.67492 6.25,0.28633 3.4375,-0.81376 6.925,-1.69715 7.75,-1.96308 z m 12.8307,-2.76623 c 3.482,-0.86229 8.8445,-1.5678 11.9167,-1.5678 6.2325,0 6.3932,-0.73163 0.4536,-2.06616 -2.798,-0.62868 -5.6136,-0.45647 -9.6266,0.5888 -3.1196,0.81255 -7.9698,1.47736 -10.7782,1.47736 -5.0548,0 -5.0879,0.0203 -3.2834,2.01414 1.0025,1.10777 2.5347,1.81328 3.4049,1.5678 0.8703,-0.24548 4.4311,-1.15184 7.913,-2.01414 z M 997.819,243.9071 c 0,-2.68283 0.7066,-6.56901 1.5702,-8.63596 1.3377,-3.20158 1.3809,-4.39935 0.2916,-8.08844 -1.0234,-3.46605 -1.8335,-4.45222 -4.05868,-4.94097 -4.1278,-0.90661 -4.6626,-2.67707 -0.6903,-2.28511 2.50508,0.24719 3.41308,-0.0944 3.67318,-1.38206 0.4693,-2.32392 -2.1968,-7.69872 -5.74668,-11.58538 -3.9505,-4.32525 -5.4604,-4.14764 -3.5528,0.41792 1.7583,4.20806 1.9634,9.66869 0.4681,12.46259 -0.7708,1.44035 -0.6626,2.67032 0.4121,4.68425 0.8016,1.50207 1.9368,5.88104 2.5228,9.73104 0.586,3.85 1.321,8.6875 1.6333,10.75 0.8832,5.83282 3.47718,4.99142 3.47718,-1.12788 z"
       id="path3420"
       inkscape:connector-curvature="0" />
  </g>
</svg>
