<?xml version="1.0" encoding="UTF-8" standalone="no"?>
<!-- Created with Inkscape (http://www.inkscape.org/) -->

<svg
   xmlns:dc="http://purl.org/dc/elements/1.1/"
   xmlns:cc="http://creativecommons.org/ns#"
   xmlns:rdf="http://www.w3.org/1999/02/22-rdf-syntax-ns#"
   xmlns:svg="http://www.w3.org/2000/svg"
   xmlns="http://www.w3.org/2000/svg"
   xmlns:xlink="http://www.w3.org/1999/xlink"
   xmlns:sodipodi="http://sodipodi.sourceforge.net/DTD/sodipodi-0.dtd"
   xmlns:inkscape="http://www.inkscape.org/namespaces/inkscape"
   width="899.80206"
   height="884.72021"
   id="svg2"
   version="1.1"
   inkscape:version="0.48.3.1 r9886"
   sodipodi:docname="Narrow-grip-bench-press-1.svg">
  <defs
     id="defs4">
    <radialGradient
       gradientUnits="userSpaceOnUse"
       gradientTransform="matrix(1,0,0,0.91819829,-19.285714,-7.9105395)"
       r="209.56604"
       fy="287.50052"
       fx="398.1105"
       cy="287.50052"
       cx="398.1105"
       id="radialGradient5255"
       xlink:href="#linearGradient5249"
       inkscape:collect="always" />
    <linearGradient
       id="linearGradient5249"
       inkscape:collect="always">
      <stop
         id="stop5251"
         offset="0"
         style="stop-color:#e3e3e3;stop-opacity:1;" />
      <stop
         id="stop5253"
         offset="1"
         style="stop-color:#e3e3e3;stop-opacity:0;" />
    </linearGradient>
  </defs>
  <sodipodi:namedview
     id="base"
     pagecolor="#ffffff"
     bordercolor="#666666"
     borderopacity="1.0"
     inkscape:pageopacity="0.0"
     inkscape:pageshadow="2"
     inkscape:zoom="0.35"
     inkscape:cx="-313.41567"
     inkscape:cy="277.88391"
     inkscape:document-units="px"
     inkscape:current-layer="layer1"
     showgrid="false"
     showguides="true"
     inkscape:guide-bbox="true"
     fit-margin-top="0"
     fit-margin-left="0"
     fit-margin-right="0"
     fit-margin-bottom="0"
     inkscape:window-width="1201"
     inkscape:window-height="886"
     inkscape:window-x="167"
     inkscape:window-y="73"
     inkscape:window-maximized="0">
    <sodipodi:guide
       orientation="-0.70710678,0.70710678"
       position="-1701.2169,438.01372"
       id="guide2985" />
  </sodipodi:namedview>
  <metadata
     id="metadata7">
    <rdf:RDF>
      <cc:Work
         rdf:about="">
        <dc:format>image/svg+xml</dc:format>
        <dc:type
           rdf:resource="http://purl.org/dc/dcmitype/StillImage" />
        <dc:title></dc:title>
      </cc:Work>
    </rdf:RDF>
  </metadata>
  <g
     inkscape:label="Ebene 1"
     inkscape:groupmode="layer"
     id="layer1"
     transform="translate(-272.64535,420.05859)">
    <path
       style="fill:#000000"
       d="m 651.1025,451.59241 -15.27337,-12.52585 0.27337,-17.18589 0.27337,-17.18588 56.3443,-30.65162 c 30.98935,-16.85839 56.76715,-31.07444 57.28395,-31.59122 0.5827,-0.58276 0.6418,-24.04073 0.1556,-61.76805 l -0.7838,-60.82845 -71.50005,-44.31396 c -39.325,-24.37268 -72.02806,-44.32462 -72.67347,-44.33765 -0.64541,-0.013 -43.98747,20.67632 -96.31569,45.97632 -52.32822,25.3 -95.56355,46 -96.07852,46 -0.51496,0 -7.90923,-5.5125 -16.4317,-12.25 l -15.49541,-12.25 -0.003,-16.6933 c -0.002,-15.20212 0.16513,-16.81002 1.87514,-18 1.03276,-0.71868 17.6726,-8.2817 36.97742,-16.8067 l 35.09968,-15.5 0.0226,-7.14159 c 0.0212,-6.72228 -0.11902,-7.17713 -2.38893,-7.74684 C 447.87913,115.641 435.16883,106.2213 427.95793,98.6301 415.86096,85.895137 405.31831,67.858767 399.784,50.430157 c -1.2662,-3.9875 -2.79645,-7.25 -3.40057,-7.25 -0.60412,0 -4.90305,1.2761 -9.55317,2.83578 -6.62666,2.22262 -8.52098,3.28176 -8.761,4.89836 -0.16843,1.13441 2.26399,14.59581 5.40537,29.91422 4.17123,20.340273 5.73712,30.184663 5.80623,36.502333 0.0903,8.25087 -0.049,8.82839 -3.012,12.49552 -4.90885,6.07531 -11.2936,8.83468 -20.34111,8.79107 -4.15336,-0.02 -9.35188,-0.66885 -11.55188,-1.44183 -2.2,-0.77298 -4.27078,-1.33542 -4.60173,-1.24986 -0.33096,0.0856 -3.25595,-2.10861 -6.5,-4.87594 -9.70497,-8.27879 -19.811,-12.66441 -39.81182,-17.27674 -8.46188,-1.95137 -14.80297,-5.89923 -22.05234,-13.72942 -6.01587,-6.497853 -7.21951,-9.307283 -5.80524,-13.550093 0.5914,-1.7742 0.55042,-3.76251 -0.1138,-5.52224 -0.92096,-2.43991 -0.56331,-3.42285 3.17349,-8.72163 2.31629,-3.2845 4.21144,-6.69114 4.21144,-7.57033 0,-0.87919 0.65698,-2.86898 1.45995,-4.42176 2.52241,-4.87779 8.20177,-5.29504 19.58904,-1.43916 l 7.79143,2.63828 6.32979,-2.53317 c 3.48139,-1.39324 8.22862,-3.04414 10.54942,-3.66865 3.68585,-0.99183 4.34387,-1.60601 5.20172,-4.85511 0.54015,-2.0458 1.27044,-10.919633 1.62287,-19.719633 l 0.64078,-16 -4.5912,-17.65523 c -6.43667,-24.75191 -7.62056,-31.46265 -8.26422,-46.84477 -0.48955,-11.69907 -0.18421,-15.96794 2.28888,-32 2.31459,-15.004604 2.79256,-20.997434 2.52974,-31.718094 -0.30616,-12.4891 -0.17981,-13.53311 2.29103,-18.93013 3.3588,-7.3366 8.27993,-13.30559 14.28831,-17.33072 l 4.77246,-3.19718 16,0.63518 c 20.33308,0.8072 20.34146,0.80719 30.65873,-0.0124 7.64597,-0.60741 9.75134,-0.37493 18,1.9876 5.1377,1.47151 14.0397,4.66485 19.78224,7.09632 5.74253,2.43146 10.50273,4.31928 10.57822,4.19514 0.0755,-0.12413 1.08164,-3.6007 2.23587,-7.7257 1.50722,-5.38653 1.94558,-9.09435 1.55558,-13.15783 -0.44459,-4.63233 -0.1224,-6.50002 1.77757,-10.30435 2.73421,-5.47473 9.84903,-12.42343 16.01975,-15.64574 9.4745,-4.9475 35.95268,-3.28684 47.9973,3.01032 3.08289,1.61179 10.92388,4.32136 17.42442,6.02126 6.50054,1.6999 13.87817,4.27454 16.39474,5.72142 2.51657,1.44687 12.46642,10.44364 22.11078,19.9928 12.28542,12.16414 18.2102,17.3621 19.78984,17.3621 1.24005,0 4.14921,0.9582 6.4648,2.12932 4.26562,2.15737 17.91458,11.36856 22.96927,15.50112 2.09754,1.71489 3.94261,2.22881 7.69494,2.14334 6.09663,-0.13887 10.1004,2.30747 19.14921,11.70035 9.34812,9.70357 11.27871,10.678484 21.52184,10.868134 l 8.59267,0.1591 3.14111,-3.630254 c 1.72762,-1.99663 4.26612,-5.54284 5.64112,-7.88047 1.375,-2.33763 4.18962,-5.37803 6.25472,-6.75645 3.50169,-2.33732 4.37813,-2.4736 13.00546,-2.02234 13.60607,0.71169 17.64307,3.5786 20.82367,14.78815 0.7023,2.475 1.3862,4.65308 1.52,4.840194 0.1338,0.1871 4.7776,-1.146094 10.3197,-2.962654 l 10.0765,-3.30284 0,-8.32719 c 0,-9.48757 1.4848,-13.37295 7.4543,-19.5059 5.2737,-5.41808 10.9575,-8.08955 15.4378,-7.25597 1.9843,0.3692 6.9033,0.89767 10.931,1.17438 6.5137,0.4475 7.9354,0.20355 12.8627,-2.20713 4.7707,-2.33408 6.3779,-2.63421 11.5799,-2.16251 7.3947,0.67053 10.6654,2.90645 12.8914,8.81268 1.0857,2.88071 2.2196,4.34686 3.2881,4.2517 0.897,-0.0799 32.7763,-10.6356 70.8428,-23.45715 l 69.212,-23.31192 0,-19.04285 c 0,-15.06781 0.3897,-20.71277 1.867,-27.04284 5.7003,-24.42432 18.0432,-43.1442 33.44988,-50.73197 6.2777,-3.09178 7.2302,-3.26803 17.6593,-3.26803 10.6001,0 11.312,0.13829 18.5238,3.59874 18.401,8.8294 32.9821,25.35489 42.4859,48.15126 1.5478,3.7125 3.3091,6.75287 3.9141,6.75638 0.605,0.004 14.7831,-4.5712 31.507,-10.16603 l 30.4071,-10.17241 2.8927,3.23752 c 2.5161,2.81598 2.8537,3.90129 2.5929,8.3354 l -0.2998,5.09788 -30.881,10.29502 c -16.9846,5.66226 -31.1061,10.52 -31.381,10.79498 -0.275,0.27498 0.234,5.21243 1.131,10.97213 3.6741,23.58964 1.5403,50.52649 -5.435,68.61419 -4.1759,10.82847 -13.805,25.068224 -20.2307,29.917504 -9.4036,7.09667 -13.6631,8.45093 -26.7752,8.51282 l -11.572,0.0546 -8.5707,-4.24526 c -19.35668,-9.58779 -37.37658,-34.301464 -45.46018,-62.347264 l -2.7649,-9.59249 -69.2801,23.08803 -69.2801,23.08804 0,6.00448 c -0.012,18.250874 -3.7899,51.451164 -7.0436,61.905144 -1.0293,3.30742 -1.7128,6.17223 -1.5188,6.36624 0.194,0.19401 4.6669,1.42101 9.9397,2.72666 5.2728,1.30566 12.1833,3.68004 15.3568,5.27641 3.1735,1.59637 8.0451,4.06013 10.8259,5.47502 3.8892,1.97887 7.6968,2.82777 16.5,3.67863 15.0381,1.4535 16.2919,1.74772 24.0608,5.64663 7.8006,3.91485 16.5061,12.9157203 20.6156,21.3151 2.3793,4.86315 2.7283,6.88821 3.0262,17.55595 0.2456,8.7975 -0.03,12.734813 -1.02,14.558703 -1.3075,2.40934 -0.9737,2.92902 9.2024,14.33042 22.4414,25.14359 27.059,34.29345 27.059,53.618523 l 0,6.58162 4.9386,1.75404 c 6.0487,2.1483 11.27,7.8897 13.1931,14.50726 0.7525,2.58948 1.3472,8.78204 1.3215,13.76124 -0.055,10.59987 -1.5334,13.81605 -9.3679,20.37548 -8.4199,7.04948 -17.2654,11.75525 -78.5853,41.80681 -63.2571,31.0009 -67.9751,32.9116 -79.0909,32.03014 l -5.0909,-0.40369 -0.6592,37.48569 c -0.3625,20.61713 -0.5344,37.6105 -0.3818,37.76304 0.1525,0.15254 19.4684,-9.59743 42.9241,-21.66661 23.4557,-12.06919 43.1758,-21.94397 43.8224,-21.94397 0.6466,0 8.3287,4.3007 17.0712,9.55711 11.1341,6.69428 16.0576,10.21399 16.4362,11.75 0.2973,1.20609 0.412,9.38714 0.2547,18.18011 l -0.2858,15.98722 -125,67.20591 c -68.7501,36.96325 -125.67505,67.21758 -126.50005,67.23184 -0.825,0.0143 -8.37302,-5.61071 -16.77337,-12.49993 z m 138.06122,-59.01022 c 66.1167,-35.52888 121.2247,-65.23925 122.4622,-66.02305 2.0174,-1.2778 2.2492,-2.22376 2.2428,-9.15204 0,-4.24982 -0.2853,-10.67161 -0.6253,-14.27064 l -0.6182,-6.5437 -13.5237,-7.90717 -13.5236,-7.90717 -27.0713,13.95086 c -53.8461,27.74891 -62.2235,31.82113 -64.0335,31.12657 -1.6478,-0.63233 -1.7092,-3.18491 -1.0263,-42.67413 0.6807,-39.35893 0.618,-42.00156 -0.996,-42.00156 -3.9929,0 -17.1835,-5.35569 -24.7523,-10.04999 -4.4828,-2.78032 -9.0375,-5.52982 -10.1216,-6.10999 -1.9533,-1.04538 -1.9675,-0.50462 -1.586,60.17286 l 0.385,61.22772 -57.23694,31.1297 -57.23689,31.12969 -0.0131,13.677 -0.0131,13.677 12.75,10.51023 c 7.0125,5.78063 13.10452,10.53848 13.53781,10.573 0.4333,0.0345 54.88332,-29.00631 121.00002,-64.53519 z m 26.7122,-156.85072 c 4.6989,-1.02217 23.2531,-9.62054 66.9621,-31.03161 59.1854,-28.99219 73.7427,-37.00264 79.8172,-43.92117 3.6757,-4.1864 4.8311,-10.8449 3.3097,-19.07457 -1.3583,-7.34759 -4.3129,-12.08734 -9.0373,-14.49759 l -3.7468,-1.91145 -2.1683,9.71131 c -1.618,7.24678 -3.4455,11.99058 -7.2012,18.69254 -6.0443,10.78609 -9.103,14.11502 -18.9108,20.58123 -19.0166,12.53748 -38.6838,15.1303 -54.4913,7.18383 -12.4147,-6.24091 -19.8499,-14.2282 -28.0046,-30.08412 -7.7987,-15.16372 -13.3007,-19.20157 -23.3707,-17.15139 -3.1119,0.63358 -7.908,2.30704 -10.658,3.71879 -2.75,1.41176 -6.7501,3.46966 -8.889,4.57312 -3.1375,1.61863 -5.7336,1.99138 -13.4355,1.92914 -8.7325,-0.0706 -9.9789,0.16693 -14.6184,2.78528 -8.8376,4.98766 -16.1657,6.33443 -34.0571,6.25906 -18.0488,-0.076 -28.34571,-2.08635 -36.50005,-7.12612 -7.22127,-4.46308 -12.56735,-6.19054 -26.98475,-8.71949 -25.09038,-4.40108 -43.61066,-12.13873 -53.86773,-22.50556 -3.10614,-3.13937 -7.48945,-7.67774 -9.7407,-10.08525 -2.25126,-2.40751 -7.58959,-6.57918 -11.86296,-9.270383 -6.12309,-3.85607 -8.16504,-5.76348 -9.63485,-9 -2.72874,-6.00868 -2.40244,-11.32793 1.16217,-18.94532 1.70457,-3.64258 2.92826,-7.74224 2.75,-9.21314 -0.2839,-2.34254 -1.19179,-2.92955 -7.82118,-5.05682 -5.72158,-1.83597 -8.04468,-2.16774 -9.79705,-1.39914 -4.36961,1.91655 -9.24328,0.98473 -23.09493,-4.41563 -16.10535,-6.279013 -19.28998,-7.815423 -24.2077,-11.678853 l -3.59968,-2.82796 -0.61614,12.214983 c -0.33888,6.71823 -1.13589,15.06311 -1.77112,18.54417 -0.65445,3.58632 -0.7776,6.69208 -0.28418,7.16655 0.47894,0.46054 58.27941,36.371973 128.44549,79.803163 75.75786,46.89236 129.98136,79.83949 133.49996,81.11685 5.7865,2.10062 18.4311,4.77725 23.4254,4.95869 1.375,0.0499 5.4249,-0.54546 9,-1.32314 z M 506.11474,171.58028 c 50.74362,-24.52993 92.35209,-44.68339 92.46325,-44.78545 0.11117,-0.10207 -10.17838,-6.63685 -22.86567,-14.52174 l -23.06781,-14.33616 -25.84243,12.70301 c -14.21333,6.98665 -26.64878,12.54966 -27.63432,12.36225 -1.40556,-0.26729 -1.85754,-1.48469 -2.09641,-5.64656 -0.16749,-2.91818 -0.61749,-5.14377 -1,-4.94575 -13.3422,6.90715 -14.42184,7.22082 -24.94032,7.24588 l -10.24484,0.0244 -0.005,8.27475 c -0.005,8.11221 -0.0592,8.2947 -2.75516,9.29033 -1.5125,0.55857 -18.17461,7.83757 -37.02692,16.17557 l -34.27691,15.15999 0.27691,13.54968 0.27676,13.54968 12.76756,10.25 c 7.02217,5.6375 12.97966,10.25 13.23887,10.25 0.25922,0 41.98882,-20.06994 92.73244,-44.59988 z m 396.30108,6.07826 c 24.1383,-6.16255 40.0249,-25.43607 44.4927,-53.97838 1.2665,-8.09124 0.6325,-15.97759 -2.1152,-26.30932 -3.1569,-11.870403 -5.7236,-15.553703 -23.6252,-33.902123 -13.9227,-14.27029 -17.7953,-17.66713 -22.6618,-19.87805 -4.9316,-2.240493 -6.7693,-2.575043 -11.5,-2.093623 -9.6825,0.985333 -13.1275,2.497133 -18.5619,8.145493 -12.6073,13.10382 -26.0159,45.46925 -20.1884,48.730483 2.4463,1.36904 1.9769,3.06879 -1.8801,6.80714 -3.3973,3.29272 -3.4994,3.61414 -3.4781,10.94617 0.035,12.11509 3.6419,18.05383 10.9643,18.05383 2.5651,0 3.3032,-0.53178 4.1636,-3 1.4925,-4.2815 4.8502,-4.15305 4.8502,0.18555 0,5.18486 -3.2951,7.81445 -9.792,7.81445 -4.9625,0 -5.7766,-0.33323 -9.2159,-3.77255 -4.5821,-4.58213 -5.9804,-9.19276 -5.9828,-19.72745 -10e-4,-6.20579 0.4406,-8.72575 1.9712,-11.23598 1.6842,-2.76231 1.8354,-3.96148 1.033,-8.19243 -0.7082,-3.734363 -0.5728,-6.192813 0.5492,-9.970773 1.8115,-6.10018 8.0295,-19.70804 12.2692,-26.85082 3.0802,-5.1895 3.0902,-5.25 0.8646,-5.25 -5.6635,0 -9.0691,-6.65988 -4.6225,-9.03963 1.7444,-0.93355 2.1568,-0.79365 2.5945,0.88012 0.6683,2.55554 4.7749,3.58942 7.7088,1.94077 1.254,-0.70469 5.1697,-3.23931 8.7014,-5.63249 l 6.4213,-4.351223 -4.5,0.68998 c -2.4751,0.37949 -8.8566,1.77504 -14.1813,3.10122 -14.0119,3.489883 -18.8187,2.962443 -18.8187,-2.06492 0,-3.17648 1.7013,-4.10407 3.8917,-2.12179 2.4465,2.21408 5.1791,2.01543 15.0567,-1.09458 9.8304,-3.09518 20.5909,-3.60096 33.3136,-1.56585 8.1598,1.30524 12.1581,2.73986 17.4308,6.25428 l 3.1928,2.128143 1.4103,-4.812023 c 1.8983,-6.47783 0.6799,-17.38736 -2.8106,-25.16528 -4.3169,-9.6193297 -13.5562,-16.99197 -25.1553,-20.07305 -5.0824,-1.35002 -22.6871,-4.02966 -23.1977,-3.53092 -0.2021,0.19751 2.0812,2.9687 5.0741,6.15818 2.9928,3.1894803 7.6299,8.7240603 10.3045,12.29906 2.6746,3.575 6.1636,8.01774 7.7532,9.87276 2.0309,2.36983 2.576,3.68709 1.8333,4.4298 -1.9597,1.95967 -6.1952,-1.54652 -16.1542,-13.37241 -22.3133,-26.49611 -35.3734,-34.62635 -57.309,-35.67643 -12.3662,-0.59199 -19.7471,0.65505 -25.008,4.22517 -3.1116,2.11159 -3.5427,2.18367 -4.1245,0.6896 -1.4558,-3.7389 11.2628,-11.07713 19.4298,-11.21041 2.4511,-0.04 2.4086,-0.13024 -0.9315,-1.9758 -6.287,-3.47381 -15.7076,-5.87273 -29.8727,-7.60699 -20.3995,-2.49755 -23.427,-0.64116 -19.2287,11.79068 3.342,9.89609 2.3386,16.68769 -3.2982,22.32446 -2.3277,2.32778 -7.6004,3.51946 -7.6004,1.71778 0,-0.43549 2.025,-2.77918 4.5,-5.20821 2.475,-2.42903 4.5,-5.15227 4.5,-6.05166 0,-0.89938 -0.9,-4.25113 -2,-7.44834 -2.363,-6.86809 -2.5236,-11.31127 -0.5771,-15.96979 l 1.4229,-3.40556 -5.4864,-0.68548 c -3.0175,-0.37701 -7.3703,-0.37431 -9.6729,0.006 -7.4725,1.23423 -8.1958,1.17175 -8.0477,-0.69517 0.1965,-2.47533 -0.9643,-2.18252 -4.5217,1.1406 -2.9751,2.77914 -7.1172,10.74782 -7.1172,13.69231 0,0.94632 1.1352,1.41709 3.4171,1.41709 1.8794,0 5.3669,0.83706 7.75,1.86012 5.8297,2.50269 16.833,11.80214 16.833,14.22643 0,3.40881 -3.382,2.09997 -10.7762,-4.17054 -5.2251,-4.43092 -8.5926,-6.45809 -12.3938,-7.46085 -6.0585,-1.59819 -6.9532,-1.14195 -8.8132,4.49388 -0.72204,2.18772 -3.97735,7.25666 -7.23404,11.26431 -3.2567,4.00766 -7.91795,9.7616503 -10.35835,12.7866503 l -4.43708,5.4999997 4.75364,0.31489 c 7.81041,0.51738 11.12356,-0.58827 15.91371,-5.3106597 3.70232,-3.64995 5.55212,-4.61841 11.33232,-5.9330903 8.2467,-1.87567 14.1694,-2.01468 15.813,-0.37114 2.2679,2.2679103 1.2198,3.0300703 -3.2458,2.3604003 -6.317,-0.94729 -11.4477,0.76418 -18.5973,6.20367 -10.21979,7.7752497 -10.9575,8.1057797 -19.72299,8.8367997 -4.52499,0.37737 -8.63164,1.18405 -9.1259,1.79263 -0.49426,0.60857 -1.6718,4.92393 -2.61676,9.58968 -0.94496,4.66575 -2.07754,9.42855 -2.51684,10.58399 -0.78629,2.0681 -0.72907,2.07789 3.67469,0.62811 3.34557,-1.10141 4.76052,-1.18561 5.61214,-0.33399 1.51805,1.51805 0.25048,2.71969 -6.94177,6.580653 -8.79078,4.71908 -8.45437,5.32567 3.84148,6.92673 3.13912,0.40875 3.73969,0.16316 4.21303,-1.7228 0.75894,-3.02386 7.21149,-10.380173 10.67668,-12.172093 3.22893,-1.66975 7.94929,-1.96633 7.94929,-0.49946 0,0.53588 -1.4625,1.71351 -3.25,2.61697 -5.5069,2.78337 -10.75,8.764693 -10.75,12.263593 0,0.52481 2.37579,2.29502 5.27953,3.93379 2.90374,1.63877 7.43871,5.50693 10.07772,8.59591 5.7866,6.77329 7.974,7.49918 13.777,4.57186 2.4012,-1.21125 4.4837,-2.30242 4.6279,-2.42482 0.1441,-0.1224 -0.7246,-2.42959 -1.9306,-5.12708 -2.7869,-6.23346 -2.9746,-18.20815 -0.421,-26.845763 2.4939,-8.43529 9.0421,-17.43945 11.1499,-15.33165 0.2608,0.26082 -0.9961,3.57891 -2.7931,7.37354 -3.0736,6.49028 -3.2674,7.5515 -3.2674,17.899333 0,9.24628 0.3354,11.63772 2.1037,15 l 2.1036,4 8.3964,-0.32898 c 9.9855,-0.39124 20.4396,1.14669 27.0112,3.97371 5.2265,2.24839 12.7823,9.61215 20.1592,19.64691 4.6019,6.25978 4.6328,6.28003 6.1046,4 0.8137,-1.2604 2.8158,-5.66664 4.4493,-9.79164 4.9323,-12.45582 10.055,-19.95602 16.7614,-24.54067 3.2509,-2.22237 6.6386,-5.47952 7.5283,-7.2381 3.5829,-7.081653 5.8824,-7.663723 5.8824,-1.48899 0,3.03486 -0.7356,4.26768 -4.5887,7.69098 -14.0871,12.51577 -14.935,13.59463 -18.9219,24.07678 -5.8071,15.26775 -8.3085,19.895103 -9.997,18.493733 -0.7681,-0.63743 -2.2056,-0.90706 -3.1945,-0.59918 -2.6177,0.815 -3.422,0.0108 -9.5969,-9.595623 -9.697,-15.08578 -20.4321,-20.52258 -38.5542,-19.52576 -11.5729,0.63658 -16.3431,2.21778 -28.1329,9.32527 -9.2242,5.56085 -13.72353,6.66135 -16.00338,3.91429 -2.01536,-2.42836 -0.4417,-4.83775 2.65249,-4.06116 2.29244,0.57537 8.33699,-0.94685 8.33699,-2.09954 0,-0.56842 -5.87993,-7.22957 -9.65921,-10.9426 -6.23032,-6.1211 -16.99819,-9.53514 -30.56312,-9.69029 -9.9674,-0.114 -18.62483,2.12087 -27.77772,7.17068 -3.575,1.97239 -7.85,4.26656 -9.5,5.09817 -2.07495,1.04578 -3.09934,2.3783 -3.32216,4.32144 -0.45832,3.99689 -3.67784,3.27634 -3.67784,-0.82313 0,-2.31966 -0.63095,-3.26174 -2.82643,-4.22016 -1.87744,-0.81959 -2.70397,-1.82686 -2.46169,-3 0.3635,-1.76009 0.8552,-1.80015 7.07605,-0.57643 2.1398,0.42093 6.32435,-1.21641 18,-7.04307 23.21181,-11.58371 24.9975,-13.591803 29.27205,-32.917823 2.78143,-12.57535 3.81706,-14.44998 14.76624,-26.72882 9.5335,-10.69124 12.18963,-15.57159 13.60624,-25 0.98299,-6.54235 2.02146,-8.98579 8.13299,-19.13624 10.596,-17.59869 10.6453,-17.78039 8.0232,-29.56821 -1.1984,-5.38755 -2.6598,-11.95937 -3.2476,-14.604034 -2.4726,-11.12634 -11.52457,-15.81443 -24.31599,-12.59351 -4.59699,1.15753 -7.84627,3.92093 -8.97016,7.62881 -0.66963,2.20922 -0.64187,2.21515 3.5108,0.75 5.11533,-1.80479 6.93485,-1.86433 6.93251,-0.22682 -0.002,1.58805 -6.81123,5.791184 -14.24821,8.795334 -4.03643,1.63051 -5.75,2.86388 -5.75,4.13868 0,1.44554 -0.79896,1.81599 -3.91659,1.81599 -3.08337,0 -4.32679,-0.56311 -5.84474,-2.64692 l -1.92815,-2.64691 -5.22885,2.8459 c -5.25379,2.85947 -8.21184,6.02989 -9.99027,10.70754 -0.90495,2.38018 -0.7808,2.513 2.22509,2.38061 4.83338,-0.21289 6.96479,4.91569 7.67602,18.46991 0.51701,9.8529 0.76909,10.878 3.53212,14.36347 1.63645,2.06434 3.38811,4.32186 3.89257,5.01671 0.60957,0.83964 0.0297,2.77773 -1.72887,5.77854 l -2.64606,4.51517 1.97886,2.51572 c 2.38936,3.03758 2.4894,4.29037 0.40643,5.08969 -1.82089,0.69873 -5.06313,-0.79613 -5.669,-2.61375 -0.31835,-0.95504 -0.90135,-0.89915 -2.48851,0.23854 -1.14001,0.81718 -6.72965,4.81507 -12.4214,8.88421 -20.0975,14.3680603 -37.40401,30.3172 -41.3525,38.10918 -3.2221,6.3585 -5.30557,14.923303 -6.52799,26.835533 -0.71696,6.9866 -1.82093,11.77786 -3.6184,15.70405 -4.85075,10.59545 -1.72443,16.7105 12.38909,24.23293 3.23456,1.724013 6.97905,4.672653 8.32108,6.552543 3.49902,4.90133 10.21723,12.01994 14.10145,14.94187 4.37582,3.29175 22.42058,11.06078 31.55095,13.58401 3.96679,1.09624 10.71679,2.49084 15,3.09911 4.28322,0.60826 8.89112,1.34803 10.23978,1.64392 2.13749,0.46896 1.83956,-0.11689 -2.32197,-4.56589 -2.62574,-2.80713 -4.5919,-5.65103 -4.36924,-6.31978 1.08419,-3.25633 4.27346,-1.469 13.29322,7.44979 10.87771,10.75594 16.25094,14.17477 25.63083,16.30819 15.395,3.50152 43.7269,0.42962 52.871,-5.73257 4.252,-2.86547 4.6307,-4.67705 2.3685,-11.33233 -2.2319,-6.56607 -0.9677,-11.93259 3.745,-15.89814 2.7889,-2.34666 3.2988,-2.47119 4.6373,-1.13264 1.3386,1.33855 1.157,1.89906 -1.6514,5.09765 -3.4573,3.93763 -3.9663,7.48151 -1.6553,11.52415 0.786,1.375 1.445,3.92295 1.4645,5.6621 0.032,2.86802 0.3842,3.21991 3.7855,3.78364 7.2595,1.20321 17.3458,-1.9464 24.5121,-7.65434 2.2864,-1.82111 4.3655,-2.27015 12.0713,-2.60718 7.903,-0.34565 9.9027,-0.10135 13.2379,1.61723 5.9616,3.07196 8.2782,5.73873 12.4135,14.28993 12.6941,26.24985 33.6309,38.23956 56.5551,32.387 z m -170.04,-45.09205 c -5.055,-1.26 -7.5771,-2.74393 -7.2688,-4.27682 0.3455,-1.71753 1.0629,-1.7528 11.4004,-0.56044 7.6793,0.88574 14.7797,-0.72383 20.8082,-4.71698 4.6345,-3.06974 6.5603,-3.04862 6.5603,0.0719 0,2.63378 -2.9803,4.88435 -9.6068,7.25469 -5.6775,2.0309 -17.7531,3.25957 -21.8933,2.22761 z M 655.3715,126.1731 c -0.34231,-0.55389 -0.0314,-1.18572 0.69099,-1.40407 4.17186,-1.26105 4.81338,-1.66293 4.81338,-3.01533 0,-2.25057 -7.75526,-6.28407 -14.40223,-7.49058 -9.11507,-1.65451 -19.4945,-8.58623 -16.83666,-11.24407 0.81848,-0.81848 1.9923,-0.18289 4.42638,2.39678 2.59012,2.74503 4.62099,3.77882 9.31251,4.74041 10.48772,2.14959 16.52552,4.25978 20.56881,7.18873 4.72544,3.42309 5.28015,6.89953 1.38414,8.67467 -3.13242,1.42723 -9.11312,1.5194 -9.95732,0.15346 z m 173.89632,-2.02983 c -1.2938,-0.4871 -2.356,-2.03338 -2.75,-4.00338 -1.0431,-5.21529 -0.7533,-22.71627 0.5505,-33.247793 1.0572,-8.53969 0.9998,-10.57908 -0.45,-15.99029 -1.7733,-6.61813 -1.0212,-9.42902 1.7746,-6.63314 3.0142,3.01421 3.9824,11.89893 2.4605,22.57956 -1.7803,12.493223 -1.8219,25.506573 -0.101,31.505903 1.6183,5.64122 1.3105,6.84144 -1.4846,5.78914 z M 659.55102,95.616567 c -7.49036,-1.67682 -17.09899,-5.60502 -19.89116,-8.1319 -1.62263,-1.46845 -2.56153,-6.30451 -1.224,-6.30451 0.308,0 2.58693,1.54768 5.06429,3.43929 2.47737,1.89161 8.14065,4.6503 12.58508,6.13043 7.06324,2.35228 9.18507,2.62818 16.85061,2.19111 6.08833,-0.34714 10.11545,-1.15143 13.17066,-2.63043 5.6127,-2.71706 6.99003,-2.69774 6.58892,0.0924 -0.74933,5.21247 -19.77846,8.205733 -33.1444,5.21357 z m -59.69032,-9.95469 c -0.69304,-0.83506 -1.60652,-3.41289 -2.02996,-5.72851 -0.87477,-4.78377 1.01129,-9.75321 3.70165,-9.75321 1.28706,0 1.48838,0.71967 1.01585,3.63151 -0.36222,2.23211 -0.0152,5.00553 0.9005,7.19714 0.8194,1.96109 1.26483,4.15191 0.98986,4.86848 -0.67448,1.75765 -3.0325,1.64669 -4.5779,-0.21541 z m 22.68184,-29.14839 c -1.18893,-1.18893 -0.70571,-8.97122 0.82674,-13.31465 3.00341,-8.512573 14.68721,-21.021973 21.14942,-22.643883 3.92858,-0.98601 4.07219,0.51702 0.32667,3.41902 -11.32365,8.77349 -14.38874,13.19294 -18.00182,25.956183 -1.94526,6.87162 -2.76223,8.12212 -4.30101,6.58333 z M 816.36972,24.927764 c -13.6857,-11.01347 -18.0949,-13.57508 -28.984,-16.83883 -15.9591,-4.7833997 -21.4217,-7.8541597 -16.9942,-9.5531497 3.7256,-1.4296503 25.861,7.38532 36.2982,14.4549797 5.5626,3.76789 21.1862,17.32092 21.1862,18.37848 0,2.04084 -3.1732,0.26439 -11.5062,-6.44148 z m -109.79261,-74.37971 c -1.35239,-1.35238 -0.68291,-10.10808 1.18888,-15.54852 2.42816,-7.05758 4.90003,-11.81938 6.13553,-11.81938 1.5721,0 1.1424,2.79256 -1.5969,10.37901 -1.7987,4.98175 -2.47468,8.61793 -2.24996,12.10391 0.24986,3.8755 -0.023,5.04996 -1.22755,5.28457 -0.85182,0.16591 -1.86432,-0.0139 -2.25,-0.39959 z m -37.07509,-20.88461 c -1.79536,-1.79536 -3.20242,-6.24035 -2.27041,-7.17236 0.85581,-0.85582 3.64426,1.67803 3.64426,3.31151 0,0.8132 1.05425,1.37756 2.57332,1.37756 1.91119,0 2.48751,0.45029 2.23979,1.75 -0.44337,2.32622 -4.15422,2.76604 -6.18696,0.73329 z m 37.83913,-23.434814 c -2.9511,-1.1962 -4.78572,-3.77104 -4.05106,-5.68554 0.57609,-1.50126 0.8537,-1.46673 2.86188,0.35602 1.22314,1.11021 3.4614,2.31119 4.97385,2.66885 3.3338,0.78833 3.7356,3.63995 0.5,3.5488 -1.2374,-0.0349 -3.16557,-0.43452 -4.28467,-0.88813 z M 375.90591,130.93016 c 4.88207,-2.46635 8.96996,-7.68665 8.96996,-11.4548 0,-1.32497 -2.7,-16.08281 -6,-32.795203 -3.3,-16.71239 -6,-31.53678 -6,-32.94308 0,-1.40631 -0.33706,-2.55692 -0.74903,-2.55692 -0.41196,0 -7.63812,2.29607 -16.05813,5.10237 -14.0932,4.69713 -15.44837,4.97636 -17.06239,3.51569 -1.35898,-1.22987 -2.41413,-1.37035 -4.69186,-0.62467 -1.61623,0.52912 -6.76359,2.16961 -11.43859,3.64554 -4.675,1.47593 -11.23737,4.18596 -14.58305,6.02229 -7.33327,4.02499 -14.41695,4.68279 -14.41695,1.33878 0,-1.22811 0.67541,-2.01012 1.75,-2.02622 0.9625,-0.0144 3.55,-0.86267 5.75,-1.88499 l 4,-1.85876 -3.96967,-1.72022 c -5.97901,-2.59095 -10.34336,-2.40394 -12.58693,0.53933 -1.02752,1.34797 -2.15756,3.80086 -2.51121,5.45086 -0.35365,1.65 -1.82884,4.26263 -3.27819,5.80585 -2.31804,2.46815 -2.6462,3.67167 -2.72669,10 l -0.0915,7.19415 5.75449,5.649133 c 7.42536,7.28942 16.36166,11.72276 26.04068,12.91892 8.89263,1.09898 18.11046,5.37013 29.42965,13.63644 4.33022,3.16233 10.13804,6.53281 12.90625,7.48995 7.2711,2.51408 16.06566,2.33281 21.56316,-0.44444 z M 367.9864,88.813327 c -1.30196,-1.56876 -3.72114,-27.59956 -2.79039,-30.02506 1.44638,-3.7692 2.67986,-1.24905 2.67986,5.47528 0,3.89586 0.92499,10.70621 2.05553,15.1341 1.98389,7.77012 2.01135,10.78251 0.0983,10.78251 -0.49992,0 -1.41941,-0.61507 -2.0433,-1.36683 z m -33.03639,-1.51043 c -5.00488,-1.39861 -3.2504,-2.88709 3.87778,-3.28987 9.31543,-0.52636 10.54808,-1.75737 10.54808,-10.534 0,-9.59909 2.12332,-9.49766 3.02687,0.14459 0.57263,6.11084 0.40104,8.01762 -0.90024,10.00362 -2.42315,3.6982 -10.25128,5.43652 -16.55249,3.67566 z m 190.043,17.318643 c 11.60442,-5.80724 20.93783,-10.702543 20.74091,-10.878453 -1.23133,-1.09989 -27.11418,-16.62427 -27.29737,-16.37281 -0.12416,0.17044 -1.25807,3.128 -2.51981,6.57238 -1.26174,3.44437 -4.7121,9.93784 -7.66747,14.429933 -4.40827,6.70045 -5.3734,8.94337 -5.3734,12.4875 0,2.37604 0.22909,4.32007 0.50909,4.32007 0.28,0 10.00362,-4.75138 21.60805,-10.55862 z m -44.04864,7.99108 c 14.99102,-4.32642 25.94472,-18.088593 32.3735,-40.673883 6.75692,-23.73815 4.91888,-53.290693 -5.1057,-82.090563 -14.38637,-41.33097 -43.93618,-68.25238 -69.79918,-63.59065 -13.64062,2.45868 -23.44555,10.80357 -31.0456,26.42263 -8.05354,16.55105 -11.1022,35.23083 -9.30276,57 0.54556,6.6 1.19825,12.20948 1.45043,12.46551 0.25218,0.25604 9.5608,-2.55646 20.68583,-6.25 11.12503,-3.69353 20.86592,-6.71551 21.64643,-6.71551 2.79492,0 7.02855,5.20431 7.02855,8.64004 0,7.38216 -0.45699,7.67933 -23.74618,15.44202 l -21.45701,7.15198 0.58127,2.906363 c 1.33565,6.67827 9.11085,24.33772 14.47518,32.87683 18.17429,28.930413 41.28313,42.456263 62.21524,36.415233 z m -4.0685,-5.72951 c 0,-0.71338 1.85764,-3.07588 4.12809,-5.25 17.93431,-17.173393 22.66067,-46.461183 14.27424,-88.452956 -9.13041,-45.71699 -27.9607,-72.66262 -54.65233,-78.20598 -4.42798,-0.91961 -5.75,-1.60801 -5.75,-2.9941 0,-4.05083 14.6998,-0.37886 24.91541,6.2238 20.65483,13.34986 34.82893,42.39231 41.71652,85.47628 2.31611,14.48797 2.33481,38.150183 0.0383,48.500003 -2.48536,11.2011 -8.46773,22.83696 -15.4132,29.979053 -5.5446,5.70156 -9.25707,7.59604 -9.25707,4.7239 z M 343.38795,55.160607 c 0.97949,-1.58484 -1.49658,-7.98045 -3.08963,-7.98045 -2.07966,0 -2.21981,5.29869 -0.20498,7.75 1.24553,1.51536 2.44849,1.5995 3.29461,0.23045 z m 52.48792,-16.360863 c 26.125,-8.73422 47.83061,-16.38422 48.23469,-17 1.31557,-2.0048 0.80619,-5.27262 -1.08926,-6.98798 -1.75288,-1.58633 -4.54202,-0.79129 -50.86134,14.49799 l -49.00675,16.176363 1.35517,2.59702 c 0.74534,1.42836 1.35794,3.64252 1.36133,4.92034 0.004,1.36234 0.52319,2.18959 1.25616,2 0.6875,-0.17782 22.625,-7.4695 48.75,-16.203733 z m 192.65967,6.425473 c -14.98517,-16.586793 -13.40803,-44.7798927 3.80078,-67.943073 2.61433,-3.5189 4.14273,-6.17224 3.39644,-5.89632 -0.74629,0.27592 -4.50689,1.53434 -8.35689,2.79647 -3.85,1.26213 -7.3291,2.79048 -7.73132,3.39632 -1.38599,2.08762 -6.9504,18.11826 -8.88656,25.6015403 -2.50666,9.6882197 -2.53431,21.4802497 -0.0704,29.9999997 2.16705,7.49317 1.93937,9 -1.35991,9 -3.30911,0 -4.60109,-2.93499 -5.89655,-13.39522 l -1.10163,-8.89522 -4.47684,-1.15733 c -7.12535,-1.84203 -18.97679,-10.07341 -18.97679,-13.1802997 0,-2.68363 1.98537,-2.20407 6.57429,1.5879997 3.09835,2.56032 6.49494,4.31811 9.65237,4.99526 7.01797,1.50509 7.77334,1.37003 7.77334,-1.38981 0,-6.3351997 3.55319,-18.77689 8.64073,-30.25603 0.29024,-0.65486 -5.82073,0.91377 -13.57991,3.48584 l -14.10762,4.6765 -5.68746,8.80607 c -4.43175,6.8618203 -6.13542,8.74163 -7.71638,8.5141603 -1.11591,-0.16056 -2.19808,-1.19192 -2.40483,-2.29192 -0.45127,-2.40107 -1.907,-3.46407 -4.77209,-3.48469 -3.93158,-0.0283 -4.25824,1.84248 -2.25842,12.9337097 1.03621,5.74696 2.22196,10.7464 2.635,11.10985 10.39364,9.1459 20.32865,14.70787 36.57245,20.474543 7.40758,2.62974 8.04679,2.69768 13.36923,1.42084 5.14432,-1.2341 6.03668,-1.17278 11.1995,0.76966 7.67988,2.88944 7.83445,2.82059 3.76947,-1.67885 z M 598.8773,27.677204 c 4.09503,-8.45922 27.50115,-31.01896 39.44464,-38.01831 2.50466,-1.46783 4.55393,-3.22258 4.55393,-3.89945 0,-1.88415 4.07925,-5.29912 8.51365,-7.12726 4.09713,-1.68909 7.37436,-4.8624 10.03831,-9.72 1.19576,-2.1804 1.24522,-2.84689 0.23301,-3.13978 -5.67124,-1.64104 -11.04795,-4.08231 -15.26609,-6.93151 l -4.98112,-3.36457 -15.01888,5.24082 c -15.01074,5.23798 -15.02294,5.24476 -22.51888,12.51578 l -7.5,7.27497 7.71411,1.11408 c 8.27174,1.19462 13.28589,3.89397 13.28589,7.15241 0,2.46119 -3.30544,3.0541 -4.89643,0.8783 -0.95593,-1.30731 -3.33395,-1.82229 -10.23064,-2.21552 l -8.98523,-0.51232 -2.66366,5.93543 c -7.64738,17.04063 -7.25616,35.37812 0.98529,46.18322 l 2.6701,3.500683 1.12012,-4.973463 c 0.61607,-2.73541 2.19191,-7.18748 3.50188,-9.89351 z m 30.30524,-43.30049 c -5.11092,-5.26645 -10.29365,-15.96854 -8.32296,-17.18649 2.1932,-1.35547 5.01629,0.71966 5.01629,3.68726 0,1.44482 1.13517,4.56397 2.5226,6.93144 1.94234,3.31436 3.4468,4.58139 6.5405,5.50828 4.63683,1.38923 5.07509,4.17122 0.73627,4.67378 -2.03486,0.2357 -3.60428,-0.63794 -6.4927,-3.61427 z m -270.82353,51.77735 15.32654,-5.02609 0.71888,-6.19391 c 0.39539,-3.40665 2.18988,-10.03241 3.98776,-14.72391 1.79789,-4.6914997 3.57748,-10.4170997 3.95465,-12.72355 l 0.68575,-4.19356 -8.48941,-5.47659 c -13.75539,-8.87372 -17.25645,-17.75347 -12.79326,-32.44755 2.84531,-9.36757 4.24461,-10.77073 12.86487,-12.90037 l 7.23893,-1.78838 -5.51281,-6.18714 c -3.03205,-3.40293 -8.65207,-8.47044 -12.48893,-11.26114 -3.83686,-2.7907 -6.97611,-5.46388 -6.97611,-5.94041 0,-0.47653 0.64071,-1.39816 1.4238,-2.04807 2.82534,-2.34483 9.60572,2.67931 26.24967,19.45056 l 16.17348,16.29716 3.82652,-6.60313 c 7.93184,-13.68733 19.89069,-22.22248 33.85337,-24.16149 3.86476,-0.5367 8.03116,-0.71318 9.25866,-0.39218 1.78041,0.46559 3.73209,-0.84146 9.64913,-6.46207 8.00112,-7.600284 17.6895,-12.964484 27.50278,-15.227554 l 5.43741,-1.25394 -2.70822,-2.15946 c -5.97926,-4.76769 -31.98832,-20.41908 -45.1666,-27.17976 -24.28861,-12.46046 -39.72179,-16.43683 -52.18793,-13.44625 -4.05763,0.97342 -7.14752,0.8903 -16.866,-0.45367 -19.5788,-2.70755 -25.65238,-1.07353 -33.41658,8.99032 -6.41088,8.30969 -7.45248,12.91278 -5.55256,24.53822 0.85391,5.225 1.65843,11.75 1.78782,14.5 0.21872,4.64875 0.0772,4.98327 -2.01475,4.76179 -1.97408,-0.209 -2.25039,0.22022 -2.2532,3.500004 -0.002,2.05602 -0.71317,7.78821 -1.58092,12.73821 -2.18615,12.47071 -2.20464,33.68694 -0.0392,45 0.94748,4.95 3.83526,16.875 6.41729,26.5 4.67101,17.41207 4.69369,17.57411 4.51245,32.25 -0.11661,9.44269 0.18349,14.75 0.83403,14.75 0.55889,0 7.91311,-2.26174 16.34271,-5.02609 z m -3.49158,-7.22391 c -5.41275,-8.88887 -12.12253,-33.2537 -14.1648,-51.43585 -2.07264,-18.45246 1.69042,-43.15623 7.62399,-50.05003 1.30851,-1.52026 2.61174,-2.53226 2.89608,-2.24888 0.28434,0.28338 -1.01239,5.0811 -2.88162,10.6616 -5.14611,15.36355 -5.82542,21.33473 -4.01246,35.27017 2.51097,19.30084 5.24387,30.4890603 11.04959,45.23594 3.02949,7.69508 5.25424,14.4019 4.94389,14.90405 -1.14236,1.84838 -3.52859,0.82603 -5.45467,-2.337 z M 343.54254,-113.48652 c -0.36667,-0.36666 -0.66667,-1.93129 -0.66667,-3.47694 0,-3.61036 2.67642,-5.36842 12.14803,-7.97967 4.44708,-1.22603 8.07934,-2.88623 9.19288,-4.2018 4.86982,-5.75338 7.79419,-8.67492 8.68334,-8.67492 2.30261,0 0.74975,5.78531 -2.81834,10.5 -3.55036,4.69126 -4.12122,5.03688 -9.24496,5.59721 -7.84887,0.85835 -9.46789,1.56757 -12.42306,5.442 -2.64725,3.47073 -3.63058,4.03476 -4.87122,2.79412 z m 49.01887,138.314464 c 0.25873,-0.25873 -0.0381,-6.46073 -0.65954,-13.78221 -1.34388,-15.83196 -2.72546,-17.98079 -5.19337,-8.0774897 -0.91994,3.6915497 -2.57898,8.7369097 -3.68677,11.2119097 -1.10778,2.475 -2.32349,6.83781 -2.70156,9.69513 l -0.6874,5.19513 6.22911,-1.88602 c 3.42601,-1.03732 6.4408,-2.09772 6.69953,-2.35645 z m 142.29222,-32.80721 c 0.0122,-0.36268 -2.99052,0.31232 -6.67279,1.5 l -6.69503,2.15942 4.94503,0.51759 c 4.11501,0.43072 5.23503,0.17895 6.67279,-1.5 0.95027,-1.10967 1.73777,-2.31433 1.75,-2.67701 z m 52.02773,-22.66966 68.49451,-22.82908 0.30479,-4.67092 c 0.24797,-3.80015 -0.003,-4.67092 -1.34803,-4.67092 -0.90905,0 -32.84778,10.37529 -70.97494,23.0562 l -69.32213,23.0562 1.51416,4.4438 c 0.83278,2.44409 1.81182,4.4438 2.17564,4.4438 0.36382,0 31.48402,-10.27309 69.156,-22.82908 z m -194.64013,13.57908 c 0.35891,-3.9875 1.81797,-11.39402 3.24236,-16.45894 l 2.5898,-9.20893 -4.84876,-5.52845 c -5.11148,-5.82799 -5.76927,-6.09532 -11.34876,-4.61212 -1.925,0.51172 -5.37911,1.41757 -7.6758,2.01299 -3.80695,0.98695 -4.30722,1.5005 -5.6637,5.81401 -3.03335,9.64586 -2.52296,16.41116 1.62249,21.5062 2.22013,2.7287 18.24116,13.48177 20.32341,13.64076 0.66016,0.0504 1.3696,-2.83963 1.75896,-7.16552 z m 159.91004,-16.67508 38.74656,-12.92508 6.23902,-5.45364 c 12.57663,-10.99345 31.27195,-21.61177 44.55164,-25.30386 3.40306,-0.94613 6.18738,-2.06194 6.18738,-2.47957 0,-0.41762 1.2004,-2.18592 2.66756,-3.92953 l 2.66756,-3.17022 -3.41756,-2.6153 c -1.87966,-1.43842 -5.21756,-4.652114 -7.41756,-7.141554 -10.8018,-12.22292 -13.58966,-13.47124 -23.7663,-10.64188 -4.49228,1.24896 -6.32118,1.38887 -7.13691,0.54597 -0.80131,-0.82799 -0.55137,-1.56303 0.92774,-2.72836 1.95956,-1.54386 1.69914,-1.84232 -8.11683,-9.30205 -12.17546,-9.25284 -15.96005,-10.43142 -28.46264,-8.86373 -18.97177,2.37886 -32.3527,11.53517 -40.9185,27.99971 l -4.01063,7.70894 3.42531,2.612624 c 4.09794,3.12564 13.55876,3.86733 13.55876,1.06295 0,-4.730804 8.81338,-15.450344 12.70295,-15.450344 3.2444,0 2.85764,1.75353 -1.27121,5.76341 -3.1771,3.08556 -6.03309,7.968574 -5.16715,8.834514 0.1763,0.17631 3.00139,-0.38047 6.27798,-1.23727 11.42191,-2.986744 23.95743,-0.24115 23.95743,5.24727 0,2.89906 -3.71088,2.86096 -6.46093,-0.0663 -3.16382,-3.36773 -5.69123,-3.21994 -17.00959,0.99467 -5.9268,2.20696 -12.15968,3.75385 -16.65723,4.13403 -8.34489,0.7054 -9.68436,0.0949 -21.55623,-9.82401 -10.35559,-8.652104 -11.74681,-9.216414 -20.75072,-8.416924 -16.56171,1.47058 -30.2357,6.613424 -39.55145,14.875464 l -4.98615,4.42216 5.48615,2.77494 c 18.65919,9.438 32.7107,24.30278 45.59231,48.23111 2.14161,3.97816 4.12533,7.24066 4.40826,7.25 0.28293,0.009 17.95038,-5.79932 39.26098,-12.90811 z m 265.24185,-23.07492 c 0.7338,-4.125 1.8736,-16.62966 2.5328,-27.78814 l 1.1986,-20.288144 -4.2327,-11.21186 c -4.8598,-12.87313 -7.218,-15.71186 -13.0519,-15.71186 -4.133,0 -18.4539,5.28101 -15.7399,5.80429 0.868,0.16736 4.3654,-0.86886 7.7721,-2.30271 5.7779,-2.43186 6.3555,-2.50114 8.5988,-1.03123 2.4013,1.57338 3.3094,4.52965 1.3914,4.52965 -0.5575,0 -1.8788,-0.54035 -2.9363,-1.20077 -1.5801,-0.98679 -2.8163,-0.78227 -6.9367,1.14765 -4.2748,2.00221 -5.937,2.25195 -11.2747,1.69406 -4.1637,-0.4352 -7.5226,-1.48948 -10.0283,-3.14766 -6.0426,-3.9988 -11.8209,-2.83493 -17.1054,3.44541 -2.5543,3.03561 -5.705,14.05237 -5.705,19.94802 l 0,2.99189 4.4731,-1.52416 c 3.571,-1.21677 4.4282,-1.95257 4.25,-3.64831 -0.3384,-3.22126 3.0102,-3.33578 6.2682,-0.21439 2.2472,2.15292 2.9236,3.88963 3.4578,8.87824 0.8742,8.162874 -0.426,11.731764 -4.181,11.476044 -1.5225,-0.10369 -3.7662,0.13926 -4.9859,0.53989 l -2.2178,0.72842 2.7178,4.92928 c 2.3369,4.23849 3.4184,5.16158 7.7178,6.58687 11.4254,3.78774 15.5032,6.13315 17.0343,9.79758 0.8061,1.92924 1.4657,3.97216 1.4657,4.53982 0,1.89203 -3.1793,1.06267 -3.7103,-0.96788 -0.7415,-2.83554 -4.4427,-2.53437 -7.3654,0.59933 -1.3334,1.42964 -4.8994,3.88299 -7.9243,5.4519 -5.2527,2.72429 -5.3584,2.85473 -2.3494,2.90067 4.5355,0.0692 24.9554,3.69791 30.933,5.49685 2.796,0.84146 7.071,2.86634 9.5,4.49972 l 4.4164,2.9698 2.3415,-6.20913 c 1.2879,-3.41503 2.942,-9.58414 3.6757,-13.70914 z m -27.9206,-42.250004 c -2.5326,-3.93155 -4.8673,-14.71898 -3.5333,-16.32628 1.6622,-2.00282 2.583,-1.03653 3.303,3.46585 0.346,2.16365 1.5315,6.03928 2.6345,8.61251 1.9278,4.49732 1.9165,6.49792 -0.037,6.49792 -0.5048,0 -1.5701,-1.0125 -2.3673,-2.25 z m -21.9719,-20.2856 c -1.0327,-2.69097 -0.7256,-3.4644 1.3753,-3.4644 1.1,0 2,0.48037 2,1.06748 0,0.63899 1.7059,0.94004 4.25,0.75 3.2522,-0.24294 4.25,0.0347 4.25,1.18252 0,2.28664 -11.0108,2.71723 -11.8753,0.4644 z m -110.58957,77.601344 c -0.56935,-1.06384 -1.03518,-3.08884 -1.03518,-4.5 0,-2.84749 -0.85935,-3.01072 -6,-1.13971 l -3.5,1.27388 4.94578,3.15005 c 5.7103,3.63697 7.03997,3.9262 5.5894,1.21578 z m 104.21897,-13.27202 c 5.4444,-2.31345 11.074,-5.29523 12.5101,-6.62618 2.5028,-2.31951 2.5339,-2.47638 0.7497,-3.781 -1.0238,-0.74861 -3.4707,-1.62868 -5.4377,-1.95571 -7.5994,-1.26353 -8.5009,-1.85997 -11.2923,-7.47117 -1.4938,-3.00281 -2.8662,-5.86439 -3.0498,-6.35905 -0.1835,-0.49466 -5.3413,0.76919 -11.4616,2.80856 l -11.1278,3.70796 0.5446,3.35632 c 0.4345,2.67711 -0.2942,4.87602 -3.6007,10.86593 l -4.1454,7.50962 5.2784,0.5883 c 2.9031,0.32356 7.9784,0.72245 11.2784,0.88641 3.3,0.16397 6.8674,0.38321 7.9276,0.48721 1.0602,0.10399 6.3821,-1.70374 11.8265,-4.0172 z m -135.25415,-3.28328 c 9.625,-3.18113 17.54988,-5.83486 17.61084,-5.89716 0.061,-0.0623 0.41325,-2.08499 0.78286,-4.49485 l 0.67201,-4.38157 -3.28285,0.64296 c -5.31789,1.04153 -19.37942,8.19811 -27.88422,14.19161 -7.37714,5.19881 -9.60447,7.27006 -6.64864,6.18272 0.6875,-0.2529 9.125,-3.06257 18.75,-6.24371 z m 26.5,-9.51044 c -0.33992,-0.55 -1.04148,-1 -1.55902,-1 -0.51754,0 -0.94098,0.45 -0.94098,1 0,0.55 0.70156,1 1.55902,1 0.85746,0 1.2809,-0.45 0.94098,-1 z m 95.82175,-16.60723 c 9.2528,-3.08397 17.0567,-6.21542 17.342,-6.95876 0.2852,-0.743344 0.01,-2.899604 -0.6168,-4.791684 l -1.1353,-3.44016 -18.4498,6.13025 c -16.8256,5.590604 -18.3945,6.307964 -17.8223,8.148924 1.4048,4.51929 2.351,6.51866 3.0849,6.51866 0.4257,0 8.3444,-2.52325 17.5973,-5.60723 z m 301.03978,-1.24998 c 12.2494,-6.03038 22.4669,-21.391704 28.3637,-42.642794 2.618,-9.43518 2.7721,-11.12964 2.7273,-30 -0.053,-22.19848 -1.5769,-32.12794 -7.5507,-49.18841 -9.449,-26.98528 -28.0512,-49.53414 -45.7162,-55.41528 -14.4195,-4.80063 -29.904,-0.60602 -40.21978,10.89518 -6.5007,7.24775 -13.2292,20.94636 -16.5921,33.77989 -2.1429,8.17767 -2.6795,12.83846 -3.0428,26.42862 -0.2515,9.40562 -0.039,17.087 0.4942,17.86525 0.7582,1.10674 5.4221,-0.12399 24.632,-6.5 l 23.69658,-7.86525 2.9231,3.26578 c 3.8398,4.2899 4.1916,11.39435 0.6732,13.59614 -1.2375,0.77442 -12.7125,4.87222 -25.49998,9.10623 -12.7875,4.23402 -23.25,8.00732 -23.25,8.38513 0,2.41159 4.6042,16.51597 7.8462,24.0359 7.3237,16.98765 21.69248,35.23996 32.92308,41.821524 8.419,4.93387 13.9201,6.37613 22.8852,5.99999 6.744,-0.28296 9.288,-0.90012 14.707,-3.5679 z m -10.7522,-2.96579 c -0.2797,-0.45266 2.3658,-3.783524 5.8791,-7.401924 7.6546,-7.88384 12.6893,-17.33537 15.7399,-29.54831 1.7815,-7.1321 2.182,-11.6505 2.1916,-24.72677 0.03,-40.02563 -12.6669,-79.38183 -30.6569,-95.02989 -5.1665,-4.49387 -14.2737,-8.99338 -21.4568,-10.60088 -4.8831,-1.0928 -6.7152,-2.8804 -4.4114,-4.30426 1.7114,-1.0577 11.6453,1.46505 18.1051,4.59787 18.2508,8.851 32.4168,33.22969 38.8379,66.83716 8.4636,44.29703 3.5731,76.31743 -14.4695,94.73943 -5.7249,5.845324 -8.5382,7.412834 -9.759,5.437574 z M 538.89955,-116.9534 c 8.26915,-8.15533 18.03335,-13.23799 30.13989,-15.68902 l 8.62399,-1.74598 -13.9201,-14.21222 c -15.55006,-15.87638 -18.19703,-17.59525 -33.36746,-21.668 -5.5,-1.47656 -14.31397,-4.68453 -19.5866,-7.12882 -8.15178,-3.779 -11.16326,-4.62035 -20.12081,-5.62133 -14.47119,-1.61711 -19.31366,-0.48644 -27.61218,6.44721 -3.71085,3.10052 -7.07052,6.95898 -8.33653,9.5742 l -2.12063,4.38066 3.22307,8.14842 c 1.77269,4.48164 3.46135,9.15533 3.75258,10.38599 0.69555,2.93927 -1.95754,3.97821 -5.02554,1.96798 -2.24658,-1.47201 -2.34026,-1.40549 -3.3503,2.3786 l -1.03909,3.89296 10.41329,5.51145 c 5.72731,3.0313 10.68316,5.51145 11.013,5.51145 0.32985,0 -0.19961,-0.88324 -1.17655,-1.96275 -1.01965,-1.12671 -1.5064,-2.66604 -1.1427,-3.61382 0.56382,-1.46928 0.87993,-1.49112 2.87128,-0.19834 1.23074,0.799 3.81271,3.64448 5.73771,6.32329 3.80613,5.29658 5.15037,6.6139 15.20379,14.8994 3.89401,3.20923 7.30515,5.29415 8.13854,4.97435 4.00286,-1.53604 19.50962,3.2847 22.61959,7.03198 1.16157,1.39961 1.76751,0.6877 4.83187,-5.67691 2.478,-5.14674 5.47289,-9.21923 10.22989,-13.91075 z m -64.6786,-26.40958 c -0.32569,-0.84872 -0.3876,-1.74768 -0.13759,-1.99769 1.54235,-1.54235 17.85941,-4.73858 26.29251,-5.15026 12.05591,-0.58853 17.81012,0.85002 18.33824,4.58455 0.3157,2.23236 0.11568,2.34155 -3,1.63774 -11.40608,-2.57658 -20.08542,-2.3358 -32.58846,0.90407 -7.48344,1.93915 -8.16823,1.94081 -8.9047,0.0216 z m 447.65887,0.71416 c 86.48138,-28.82437 95.52688,-32.03937 95.82318,-34.05782 0.1799,-1.22586 -0.3641,-3.28382 -1.209,-4.57324 l -1.5361,-2.34439 -95.79098,32.06499 c -52.6851,17.63574 -95.8806,32.11876 -95.99,32.18448 -0.4807,0.28874 2.0069,8.55495 2.5745,8.55495 0.3478,0 43.6056,-14.32304 96.1284,-31.82897 z m 191.00888,-66.00026 c 27.2604,-9.08696 29.5092,-10.01211 29.7795,-12.2509 0.1609,-1.33193 -0.3668,-3.32127 -1.1725,-4.42077 -1.437,-1.96083 -2.0374,-1.80916 -31.3643,7.92302 l -29.8993,9.92211 0.9903,4.32789 c 0.5447,2.38033 1.2578,4.32788 1.5847,4.32788 0.3269,0 13.8636,-4.42315 30.0816,-9.82923 z"
       id="path3546"
       inkscape:connector-curvature="0" />
  </g>
</svg>
