<?xml version="1.0" encoding="UTF-8" standalone="no"?>
<!-- Created with Inkscape (http://www.inkscape.org/) -->

<svg
   xmlns:dc="http://purl.org/dc/elements/1.1/"
   xmlns:cc="http://creativecommons.org/ns#"
   xmlns:rdf="http://www.w3.org/1999/02/22-rdf-syntax-ns#"
   xmlns:svg="http://www.w3.org/2000/svg"
   xmlns="http://www.w3.org/2000/svg"
   xmlns:sodipodi="http://sodipodi.sourceforge.net/DTD/sodipodi-0.dtd"
   xmlns:inkscape="http://www.inkscape.org/namespaces/inkscape"
   width="532.17114"
   height="899.66425"
   id="svg2"
   version="1.1"
   inkscape:version="0.48.3.1 r9886"
   sodipodi:docname="Narrow-parallel-grip-chin-ups-1.svg">
  <defs
     id="defs4" />
  <sodipodi:namedview
     id="base"
     pagecolor="#ffffff"
     bordercolor="#666666"
     borderopacity="1.0"
     inkscape:pageopacity="0.0"
     inkscape:pageshadow="2"
     inkscape:zoom="0.7"
     inkscape:cx="497.56371"
     inkscape:cy="588.71278"
     inkscape:document-units="px"
     inkscape:current-layer="layer1"
     showgrid="false"
     fit-margin-top="0"
     fit-margin-left="0"
     fit-margin-right="0"
     fit-margin-bottom="0"
     inkscape:window-width="1855"
     inkscape:window-height="1056"
     inkscape:window-x="65"
     inkscape:window-y="24"
     inkscape:window-maximized="1" />
  <metadata
     id="metadata7">
    <rdf:RDF>
      <cc:Work
         rdf:about="">
        <dc:format>image/svg+xml</dc:format>
        <dc:type
           rdf:resource="http://purl.org/dc/dcmitype/StillImage" />
        <dc:title></dc:title>
      </cc:Work>
    </rdf:RDF>
  </metadata>
  <g
     inkscape:label="Ebene 1"
     inkscape:groupmode="layer"
     id="layer1"
     transform="translate(-278.4732,-448.03585)">
    <path
       style="fill:#000000"
       d=""
       id="path3414"
       inkscape:connector-curvature="0" />
    <path
       style="fill:#000000"
       d=""
       id="path3412"
       inkscape:connector-curvature="0" />
    <path
       style="fill:#000000"
       d="m 606.00156,1346.6356 c -1.04139,-0.6048 -4.14163,-1.1536 -6.88943,-1.2196 -4.0892,-0.098 -5.33312,-0.5738 -6.85331,-2.62 -2.66817,-3.5915 -5.38298,-21.3444 -5.22865,-34.1915 0.11596,-9.6529 0.39217,-11.1587 2.84321,-15.5 1.65152,-2.9253 2.91684,-6.9626 3.23074,-10.3085 0.65126,-6.9421 -2.08087,-24.3805 -4.80912,-30.6953 -1.38774,-3.212 -1.92951,-6.1441 -1.63437,-8.8453 l 0.44148,-4.0405 -12.30197,0.4095 c -19.66436,0.6547 -41.03568,-3.766 -53.40514,-11.0468 -4.72575,-2.7817 -6.51565,-3.2563 -12.71484,-3.3715 -7.63161,-0.1418 -9.26646,-0.8208 -15.81042,-6.5665 -6.65715,-5.845 -8.57621,-12.031 -8.94803,-28.8436 -0.11556,-5.225 -0.79017,-15.5566 -1.49914,-22.9592 -1.4504,-15.1439 -0.89928,-43.449 1.05767,-54.321 0.99474,-5.5264 0.97416,-7.2403 -0.11129,-9.2685 -1.16434,-2.1756 -0.94147,-4.0883 1.77346,-15.2198 1.70784,-7.0024 5.66081,-19.7065 8.78438,-28.2315 l 5.67923,-15.5 0.89061,-16 c 1.08868,-19.5583 2.17995,-25.2082 5.84649,-30.26972 2.82706,-3.9027 3.02259,-4.781 4.65096,-20.8937 0.76039,-7.52404 -2.01948,-16.83084 -10.22496,-34.23225 -9.0483,-19.18879 -11.61121,-28.40183 -12.13002,-43.60443 -0.244,-7.15 -0.0365,-15.25 0.4612,-18 0.49767,-2.75 0.56546,-9.5 0.15066,-15 -0.4148,-5.5 -1.01144,-15.4 -1.32586,-22 -0.31443,-6.6 -1.24367,-14.025 -2.06499,-16.5 -0.95092,-2.86552 -4.53874,-8.05295 -9.87791,-14.28189 -7.75884,-9.05185 -8.50452,-10.3129 -9.99135,-16.8968 -2.66073,-11.78208 -3.05045,-22.4533 -1.27798,-34.99383 1.98538,-14.04692 2.88589,-51.8274 1.33336,-55.94052 -0.85297,-2.25977 -0.70934,-4.38099 0.65537,-9.67862 1.43,-5.55112 1.62654,-9.05169 1.08108,-19.255 -0.82594,-15.44962 0.78211,-24.41523 7.34138,-40.93173 3.54521,-8.92697 4.86428,-13.88618 5.85737,-22.02161 0.70495,-5.775 1.76139,-12.07203 2.34765,-13.9934 1.54762,-5.0721 1.32157,-8.9458 -0.93408,-16.0066 -3.30162,-10.33497 -2.52085,-15.46998 3.57312,-23.5 1.28683,-1.69564 4.45398,-10.39135 7.28441,-20 2.75425,-9.35 5.31118,-17.7875 5.68208,-18.75 0.43995,-1.14167 0.20265,-1.74217 -0.68262,-1.72748 -0.74635,0.0124 -49.28199,8.31198 -107.85699,18.44354 -66.82374,11.55833 -106.85392,18.06951 -107.45,17.47748 -0.5997,-0.59562 -0.54722,-1.34632 0.14234,-2.03588 0.87111,-0.87111 512.88962,-89.91521 523.77212,-91.08815 3.7286,-0.40187 4.8948,2.64007 1.3356,3.48378 -1.265,0.29987 -61.7918,10.79575 -134.50386,23.32417 -110.79159,19.08958 -132.01796,23.00287 -131.05635,24.16154 0.6311,0.76043 1.45758,4.01283 1.83663,7.22755 0.37904,3.21472 2.6544,11.28648 5.05635,17.93724 l 4.36717,12.0923 3.78467,0.61031 c 5.08915,0.82066 8.46666,3.67899 9.6271,8.14722 0.52798,2.03301 1.69523,9.54638 2.59389,16.69638 1.96813,15.65913 5.74241,34.73046 8.53262,43.11502 2.41992,7.27188 6.96656,15.0706 13.36648,22.92718 8.24597,10.12279 9.82049,14.78951 10.61365,31.4578 0.37949,7.975 1.02347,15.4 1.43107,16.5 2.65169,7.15627 7.51357,15.09494 12.22125,19.95535 5.46477,5.64206 10.30107,14.15874 10.3195,18.17253 0.005,1.17033 0.66214,3.68921 1.45948,5.59751 0.79733,1.9083 1.90937,7.13552 2.47118,11.61605 1.093,8.71689 2.55702,12.47843 6.09534,15.66092 3.8086,3.42559 11.10768,14.31806 13.08929,19.53323 2.51905,6.62961 2.42864,15.90703 -0.25948,26.62488 -2.12165,8.45928 -2.12826,8.74879 -0.44124,19.3021 l 1.71271,10.71402 -2.67666,10.41171 c -3.06335,11.91582 -3.87842,13.73778 -9.16912,20.49597 -3.47935,4.44441 -4.10579,6.21011 -6.53363,18.41573 -3.80387,19.12339 -4.01902,19.67892 -10.84489,28.00147 -3.38251,4.12419 -6.75646,8.92078 -7.49766,10.65908 -1.70628,4.00166 -4.39555,25.47319 -4.39555,35.09479 0,4.8641 0.50979,8.0931 1.52154,9.6372 0.83685,1.2772 1.8777,5.28064 2.313,8.89644 0.60533,5.0281 1.62282,7.8264 4.32638,11.8982 5.43466,8.18521 6.51118,10.68182 9.44288,21.89932 2.21829,8.4878 2.77211,13.0025 2.99481,24.4136 0.35746,18.3158 3.9834,42.4292 7.9244,52.6993 0.3683,0.9598 -0.14918,2.1313 -1.30171,2.9469 -1.81853,1.2869 -1.93975,3.4783 -2.45342,44.3538 -0.52879,42.0777 -0.49352,43.1608 1.64405,50.5 l 2.18443,7.5 3.45182,-0.5 c 1.8985,-0.275 6.60182,-0.482 10.45182,-0.4599 5.86274,0.034 7.68714,0.4803 11.22946,2.7496 5.04817,3.2339 7.81667,8.2294 8.76437,15.8146 0.57979,4.6405 0.16766,7.4251 -2.44051,16.4895 -4.58825,15.946 -4.67977,17.6061 -1.48322,26.9062 3.4487,10.0336 3.69543,19.099 0.68066,25.0084 -1.12313,2.2016 -2.54055,5.854 -3.1498,8.1166 -1.3361,4.9619 -4.6132,9.375 -6.96178,9.375 -0.94361,0 -3.38029,1.9914 -5.41485,4.4254 -2.57146,3.0763 -5.30355,5.0234 -8.96177,6.3868 -5.1369,1.9146 -5.29208,2.0895 -6.49893,7.3246 -0.68,2.9497 -0.96727,7.2699 -0.63837,9.6004 0.85992,6.0931 -0.17123,8.9787 -3.88975,10.8853 -1.77953,0.9124 -4.52049,2.7314 -6.09102,4.0424 -1.92308,1.6052 -3.91353,2.3123 -6.09565,2.1653 -2.07958,-0.1401 -4.23918,0.5676 -6.02935,1.9758 -3.04831,2.3978 -5.97862,2.7376 -8.91293,1.0336 z m 8.30092,-5.2281 c 0.6338,-0.7637 3.6139,-1.6961 6.62244,-2.072 3.85317,-0.4814 5.47008,-1.1206 5.47008,-2.1625 0,-0.8135 1.54038,-2.1227 3.42307,-2.9093 4.00997,-1.6755 4.8125,-3.9288 2.72598,-7.6536 -1.36208,-2.4316 -1.32201,-3.2837 0.42321,-9 2.87581,-9.4194 2.41082,-18.2276 -1.57392,-29.8141 l -3.26715,-9.5 0.68354,-14.5 c 0.89191,-18.9202 0.8544,-19.6032 -1.35012,-24.5869 -2.21407,-5.0053 -5.00153,-7.0626 -10.82947,-7.9928 -5.70403,-0.9104 -11.74059,1.4648 -16.74324,6.588 -4.29257,4.3959 -6.00204,5.0504 -5.20215,1.9917 0.92411,-3.5338 -2.1667,-2.2303 -3.76137,1.5863 -1.41827,3.3944 -1.37467,3.7556 0.81462,6.75 2.30935,3.1586 4.15276,12.2283 5.62259,27.6637 0.5896,6.1916 0.66509,6.3429 1.59128,3.189 0.53477,-1.8211 1.41575,-3.1711 1.95772,-3 1.73598,0.5478 0.52071,5.9945 -2.50551,11.2294 -8.45885,14.6323 -9.26276,18.603 -7.10273,35.0816 2.05804,15.7005 3.60986,19.5 7.96434,19.5 5.2355,0 8.24951,-5.9331 5.60848,-11.0403 -1.63924,-3.17 -1.41013,-5.9597 0.48945,-5.9597 0.56726,0 1.03138,0.7998 1.03138,1.7774 0,0.9777 0.72165,2.8078 1.60366,4.0671 1.54591,2.2071 1.51391,4.7069 -0.1268,9.9055 -0.62821,1.9904 -0.36476,2.25 2.28406,2.25 1.64681,0 3.51275,-0.6249 4.14656,-1.3885 z m -4.90748,-16.1853 c 0,-2.4999 7.53152,-3.3603 10.91547,-1.247 1.51755,0.9478 2.41408,0.8349 4.56582,-0.575 2.64744,-1.7347 2.67379,-1.7283 2.3481,0.5707 -0.3152,2.2249 -0.70628,2.328 -9.07939,2.3944 -6.22633,0.049 -8.75,-0.2804 -8.75,-1.1431 z m 41.25,-24.2233 c 1.5125,-1.4174 2.75,-3.1679 2.75,-3.89 0,-0.7221 1.05526,-1.3129 2.34501,-1.3129 2.95911,0 4.93023,-2.2826 6.90836,-8 0.85631,-2.475 2.26631,-6.3949 3.13333,-8.7108 1.80147,-4.8119 1.34539,-8.3816 -2.83836,-22.2155 -3.23745,-10.7048 -3.18897,-13.3732 0.46306,-25.4865 5.01916,-16.648 3.59881,-24.9037 -5.04728,-29.3372 -5.96009,-3.0562 -12.7211,-2.9295 -22.03979,0.413 -9.91112,3.555 -23.5724,4.2797 -34.61369,1.8362 -9.69679,-2.146 -12.41861,-3.5191 -19.174,-9.6732 -11.32342,-10.3155 -19.18089,-14.12 -32.70258,-15.8344 -6.77764,-0.8593 -13.65953,-0.3025 -19.68406,1.5926 -2.94066,0.9251 -1.98344,-1.9442 1.26536,-3.7929 3.41118,-1.9411 4.97522,-5.2553 5.00548,-10.6064 0.0115,-2.0267 0.60442,-6.4694 1.31768,-9.8725 1.26366,-6.0294 1.24664,-6.1608 -0.66513,-5.1376 -1.07908,0.5775 -3.93124,2.8652 -6.33813,5.0838 -2.40689,2.2186 -4.66764,3.7423 -5.02389,3.3861 -1.31602,-1.3161 2.35766,-6.1221 8.18863,-10.7126 3.3,-2.598 7.49875,-6.5892 9.33056,-8.8695 3.1197,-3.8834 9.38645,-16.1432 8.64394,-16.9103 -0.18507,-0.1912 -2.63969,0.1463 -5.45472,0.75 -7.55406,1.62 -27.67105,1.3904 -33.6465,-0.3841 -5.15802,-1.5318 -14.51409,-7.476 -20.03036,-12.7258 l -3.15707,-3.0046 -1.10826,5.3561 c -3.51999,17.0116 -3.92267,28.7164 -1.57759,45.8561 0.79015,5.775 1.45089,17.6132 1.46832,26.3071 0.0403,20.1238 0.88769,23.5542 7.50592,30.3872 4.92423,5.084 5.35877,5.3057 10.39974,5.3057 4.80572,0 5.20589,-0.173 4.62602,-2 -0.9138,-2.8792 1.19815,-2.5351 6.5,1.0591 10.07987,6.8332 21.73731,11.5333 35.5,14.3131 13.38569,2.7036 18.25008,2.8618 31.8593,1.0361 10.96386,-1.4708 13.63767,-2.1727 16.1407,-4.2371 6.53972,-5.3938 13.90617,-6.548 21,-3.2905 4.95349,2.2746 6.82631,4.342 9.58697,10.583 2.27198,5.1361 2.29861,7.8761 0.30735,31.6201 -0.60208,7.1793 -0.43867,8.0593 3.06402,16.5 2.28012,5.4945 3.91259,11.2964 4.25393,15.1186 l 0.55391,6.2024 4.11691,-2.0624 c 2.2643,-1.1344 5.35441,-3.2222 6.86691,-4.6395 z m -1.58333,-8.8696 c -1.17232,-1.1723 -0.71602,-4.8179 0.89003,-7.1108 2.20318,-3.1455 3.83127,-2.8504 2.91053,0.5275 -0.41227,1.5125 -0.69109,3.7625 -0.61961,5 0.12327,2.1338 -1.71527,3.049 -3.18095,1.5833 z m -2.66667,-74.6276 c 0,-5.4755 -1.98145,-6.3514 -8.43911,-3.7304 -5.51037,2.2364 -7.56089,2.0915 -7.56089,-0.5344 0,-0.8967 1.03867,-1.4543 2.75,-1.4764 1.5125,-0.02 3.875,-0.6785 5.25,-1.4645 4.30794,-2.4627 7.74264,-1.8984 9.53434,1.5664 1.77408,3.4307 1.62249,8.0637 -0.28434,8.6898 -0.83828,0.2752 -1.25,-0.7295 -1.25,-3.0505 z m -95.07065,-7.0731 c -4.94637,-1.3337 -12.82343,-5.5952 -14.84516,-8.0312 -1.49563,-1.8021 -0.46932,-3.9632 1.51968,-3.1999 0.77087,0.2958 3.95163,2.4639 7.06836,4.8181 5.64993,4.2676 5.69232,4.2804 14.24728,4.2804 4.71927,0 9.81799,-0.3461 11.33049,-0.7691 2.14456,-0.5997 2.75,-0.4292 2.75,0.7748 0,3.4314 -12.69523,4.6548 -22.07065,2.1269 z m -38.10403,-27.8826 c -0.70196,-1.2686 -1.23074,-5.6199 -1.21227,-9.9756 0.0258,-6.0871 0.42586,-8.16 1.88623,-9.7736 2.20318,-2.4345 4.62712,-1.063 2.54828,1.4419 -1.31879,1.589 -1.01477,13.7603 0.45728,18.3073 0.54774,1.6919 0.33616,2.25 -0.85302,2.25 -0.8698,0 -2.14172,-1.0125 -2.8265,-2.25 z m 116.32742,17.4972 c 2.51518,-2.5152 -3.53719,-10.9429 -9.46784,-13.1836 -4.48239,-1.6936 -11.86409,-1.2665 -16.1849,0.9364 -4.62374,2.3573 -5.5,2.4611 -5.5,0.6518 0,-2.5802 7.85197,-5.0987 15.98178,-5.1261 6.59932,-0.022 8.20527,0.3343 11.58955,2.5727 l 3.92867,2.5983 -0.0929,-41.5983 c -0.0511,-22.8792 -0.50219,-42.587 -1.00239,-43.7952 -0.89643,-2.1654 -1.00506,-2.1353 -7.58984,2.1014 -3.67422,2.364 -11.09814,5.7948 -16.49761,7.624 -8.86351,3.0028 -10.96929,3.332 -21.6766,3.3893 l -11.85938,0.063 0.63831,5.5093 c 0.78666,6.7896 9.15128,38.2786 11.24234,42.3223 1.19693,2.3146 1.25739,3.1188 0.27986,3.723 -1.42033,0.8778 -0.7388,10.5716 1.19765,17.0349 1.40632,4.6938 6.02372,10.4449 10.06305,12.5337 7.40092,3.8272 31.91241,5.6805 34.9503,2.6426 z m -26.47715,-24.6989 c -4.32963,-1.544 -5.29845,-2.2588 -4.3487,-3.2086 0.36312,-0.3631 2.40283,-0.1381 4.53268,0.5 5.90215,1.7684 10.56019,1.4589 12.64043,-0.8397 2.28585,-2.5259 3.5,-2.5455 3.5,-0.057 0,4.5862 -8.3822,6.4374 -16.32441,3.605 z m -23.67559,1.8738 c 0,-6.9985 -0.72407,-11.0953 -3.93242,-22.25 -5.68872,-19.7784 -8.06758,-29.5679 -8.06758,-33.2 0,-3.1495 -0.053,-3.1848 -3.75,-2.4942 -2.0625,0.3852 -3.79211,0.7728 -3.84359,0.8612 -0.0515,0.088 -1.11226,2.6651 -2.3573,5.7258 -1.24504,3.0607 -4.00749,8.0107 -6.13877,11 -9.64524,13.5282 -10.79037,16.694 -10.86679,30.0422 l -0.0435,7.6071 7.75,0.5648 c 11.76863,0.8577 17.5923,2.4905 23.95478,6.7164 3.18737,2.117 6.13272,3.8841 6.54522,3.9268 0.4125,0.043 0.75,-3.7823 0.75,-8.5001 z m -30,-57.8344 c 4.125,-0.7384 9.1295,-2.0255 11.12111,-2.8602 4.39236,-1.841 4.61933,-2.7688 5.43746,-22.2275 0.32374,-7.7 1.09483,-15.0374 1.71353,-16.3052 0.6187,-1.2679 4.07309,-4.2663 7.67641,-6.6633 4.08655,-2.7185 7.62459,-6.0584 9.40365,-8.8771 3.55842,-5.6378 5.64784,-6.6717 5.64784,-2.7945 0,3.9201 -5.49821,11.7829 -11.00681,15.7404 -2.55366,1.8346 -5.1718,4.4963 -5.8181,5.9147 -0.70727,1.5523 -1.17509,7.7457 -1.17509,15.5568 l 0,12.9777 2.75,1.0593 c 11.31491,4.3585 35.45104,-3.0357 50.81742,-15.568 l 7.06742,-5.764 -1.28385,-5.1384 c -0.70612,-2.8261 -2.64919,-17.5134 -4.31793,-32.6384 -4.43437,-40.192 -6.98267,-50.5521 -14.92492,-60.67732 l -2.49226,-3.1773 -2.92782,2.4636 c -3.97907,3.3482 -8.53032,5.6065 -9.76323,4.8445 -0.55904,-0.3455 1.35907,-2.2878 4.26246,-4.3162 2.90339,-2.0284 5.84236,-4.8016 6.53106,-6.1627 1.27246,-2.5147 1.76956,-8.9746 0.69061,-8.9746 -0.32507,0 -2.46257,1.6079 -4.75,3.5732 -10.33643,8.8806 -34.53226,17.0462 -53.67698,18.1148 -15.58523,0.87 -29.43692,-2.2233 -35.73198,-7.9793 l -2.25,-2.0574 0,3.1273 c 0,8.99921 8.16799,14.43702 26,17.30952 7.79194,1.2552 12.23614,0.7112 25.77084,-3.1546 11.96233,-3.4167 11.22916,-3.3151 11.22916,-1.5549 0,1.6482 -2.84516,2.8549 -13.4928,5.723 -6.74022,1.8155 -9.79616,2.0744 -19.5,1.6523 -13.00609,-0.5659 -20.68277,-2.7489 -27.90925,-7.9365 l -4.40206,-3.16011 -1.83489,2.26601 c -3.03109,3.7432 -4.03994,9.6803 -4.85591,28.5767 l -0.77725,18 -6.50382,19.5 c -3.5771,10.725 -7.09327,22.1693 -7.81372,25.4317 l -1.30991,5.9318 7.39834,6.7673 c 12.53981,11.4704 20.78328,14.7168 37.50127,14.7685 5.5,0.017 13.375,-0.5732 17.5,-1.3116 z m -54.76773,-26.8926 c 0.38088,-4.7449 1.83469,-9.6671 5.23359,-17.7195 3.84878,-9.1183 4.86226,-12.8131 5.56265,-20.2795 0.5777,-6.1586 0.51283,-9.5439 -0.19933,-10.402 -0.77952,-0.9392 -0.24118,-2.1998 2.05754,-4.8179 1.7123,-1.9502 3.11328,-3.9534 3.11328,-4.4514 0,-0.4981 -1.125,-4.0244 -2.5,-7.8362 -3.13752,-8.698 -3.22824,-14.3366 -0.29818,-18.5343 2.273,-3.2563 3.74879,-4.6125 5.04818,-4.639 1.33649,-0.027 0.79736,2.0016 -1.27767,4.8082 -3.57422,4.8344 -3.59891,9.2403 -0.0937,16.7307 3.78081,8.0794 3.85215,9.7989 0.58426,14.0834 -2.12575,2.787 -2.68805,4.9914 -3.46765,13.5944 -1.09412,12.0736 -1.64262,14.1537 -6.00378,22.768 -2.17291,4.292 -3.67815,9.1937 -4.43118,14.43 -0.71342,4.9608 -1.64871,8.0995 -2.49788,8.3825 -1.08556,0.3619 -1.25182,-0.8634 -0.83008,-6.1174 z m 49.15646,-43.5285 c -5.13472,-3.7196 -12.3739,-12.1481 -12.38227,-14.4166 -0.01,-2.6125 1.25066,-2.06 3.50915,1.5385 1.10859,1.7663 5.08675,5.5198 8.84036,8.3411 3.75361,2.8213 6.80786,5.5212 6.78721,6 -0.0825,1.9121 -2.95377,1.2902 -6.75445,-1.463 z m -1.38873,-32.2182 c 0,-1.8081 5.00967,-2.9484 12.95323,-2.9484 13.26799,0 30.87479,-6.0843 44.35998,-15.32922 7.23683,-4.9613 8.68679,-5.5079 8.68679,-3.2751 0,3.3744 -28.59747,17.86512 -39.5,20.01532 -9.35188,1.8443 -26.5,2.8392 -26.5,1.5374 z m 21.79216,-24.53662 c 17.76175,-3.6596 33.91539,-10.6463 39.32592,-17.009 1.30743,-1.5375 1.73841,-5.45454 2.24487,-20.40288 0.82718,-24.41448 1.75169,-30.33522 5.53574,-35.45215 13.02682,-17.61537 15.33948,-22.77829 17.42384,-38.89803 1.33393,-10.31626 1.4371,-10.58861 5.88499,-15.53574 6.07471,-6.75653 8.1178,-11.33097 8.60109,-19.25764 0.36086,-5.91876 0.006,-7.57209 -3.25043,-15.15441 -3.76535,-8.76666 -4.81531,-13.71186 -3.0461,-14.34684 0.55665,-0.19979 2.24083,2.41689 3.74262,5.81483 3.07142,6.94933 4.57584,7.18543 2.88035,0.45202 -0.97242,-3.86181 -0.77902,-5.76311 1.45337,-14.2883 4.60756,-17.59557 2.10568,-28.10473 -9.70037,-40.74654 -5.49243,-5.88124 -7.10602,-8.31121 -7.49739,-11.29066 -1.49982,-11.418 -1.10755,-11.13117 -4.88814,-3.5742 -1.8672,3.73231 -6.45662,10.15914 -10.19871,14.28184 -6.74341,7.42928 -6.80116,7.54159 -6.50483,12.65138 l 0.29899,5.15556 2.40556,-2.40556 c 3.29216,-3.29216 9.03644,-3.25774 13.59859,0.0815 1.86883,1.36788 4.65583,2.99403 6.19332,3.61367 3.14855,1.26891 3.11983,3.24097 -0.054,3.70968 -1.3158,0.19432 -3.62227,-1.06313 -6.16702,-3.36216 -3.52876,-3.18802 -4.51229,-3.58868 -7.45442,-3.03674 -3.95393,0.74176 -10.62,8.43262 -10.62,12.2526 0,3.05678 -2.96002,3.13847 -3.11208,0.0859 -0.0616,-1.2375 -0.0208,-7.2 0.0908,-13.25 l 0.2029,-11 7.27214,-7.5 c 4.33833,-4.47426 8.61713,-10.1223 10.60601,-14 2.91782,-5.68884 3.33041,-7.43595 3.30618,-14 -0.0345,-9.34411 -2.14931,-14.43225 -9.20101,-22.13708 -5.99588,-6.55122 -17.47798,-13.00574 -26.36344,-14.81987 -11.59353,-2.36704 -24.03435,2.28395 -34.75689,12.99385 -7.87605,7.86675 -12.28302,15.7975 -15.9828,28.76251 -5.37863,18.84812 -5.07376,21.64287 2.91075,26.68327 4.91778,3.10446 6.15298,6.9456 4.74011,14.74047 -0.75881,4.18639 -0.69145,6.78103 0.26471,10.1961 1.41908,5.06844 2.38378,5.64294 4.09777,2.44031 0.63004,-1.17725 4.4341,-5.65692 8.45346,-9.95483 4.01936,-4.29791 7.60003,-8.73471 7.95704,-9.85956 0.72019,-2.2691 3.51434,-2.82184 3.51434,-0.69521 0,1.35883 -1.39734,3.32108 -11.49408,16.14089 -3.02826,3.84496 -5.50592,7.33246 -5.50592,7.75 0,0.41753 1.71984,0.75915 3.82186,0.75915 8.70895,0 17.41944,5.32284 15.76516,9.63383 -0.51543,1.34319 -1.34247,0.88065 -4.45634,-2.49228 l -3.82345,-4.14156 -9.95361,0 c -10.60344,0 -12.35361,-0.67041 -12.35361,-4.73212 0,-6.38015 -5.60991,-13.93367 -14.5,-19.52367 -2.75,-1.72917 -6.25796,-4.16717 -7.79547,-5.41778 -1.53751,-1.2506 -4.57501,-2.75301 -6.75,-3.33867 -2.17499,-0.58567 -3.95453,-1.51163 -3.95453,-2.05769 0,-1.79972 2.71192,-2.07728 6.17178,-0.63165 l 3.40525,1.4228 -0.3221,-6.61061 c -0.85508,-17.54873 -2.36564,-29.15754 -4.82891,-37.11061 -2.36916,-7.64922 -3.22287,-9.07424 -8.52934,-14.2371 -6.68189,-6.50106 -7.66878,-9.36732 -2.89668,-8.4129 2.93899,0.5878 3,0.51749 3,-3.45739 0,-2.44061 1.29504,-6.9135 3.25,-11.225 3.03113,-6.68491 3.24482,-7.87472 3.17314,-17.66761 -0.058,-7.9296 -0.60568,-12.0912 -2.23709,-17 -3.03622,-9.13574 -3.09539,-26.49455 -0.11744,-34.45384 2.38251,-6.36781 4.01189,-7.74433 12.51734,-10.57476 3.39991,-1.13142 6.92925,-2.88321 7.84298,-3.89287 1.66518,-1.84 5.57107,-16.20341 5.57107,-20.48689 0,-2.05583 -3.52015,-6.5048 -4.35348,-5.50218 -0.18767,0.2258 -0.81919,3.93011 -1.40338,8.23181 -1.24718,9.18364 -2.97115,11.67873 -8.06939,11.67873 -7.52838,0 -8.42034,-3.83901 -5.67871,-24.44115 0.8008,-6.01763 1.31119,-11.08596 1.13419,-11.26295 -0.17699,-0.17699 -2.87707,0.80826 -6.00017,2.18944 -4.69817,2.07776 -5.78201,3.02941 -6.27872,5.51296 -0.33415,1.67075 -1.23989,3.0017 -2.04273,3.0017 -0.89295,0 -1.25648,-0.66661 -0.95434,-1.75 0.26842,-0.9625 0.77299,-2.74335 1.12126,-3.95745 0.53357,-1.86003 0.12397,-2.33941 -2.60263,-3.04594 -1.77972,-0.46117 -3.41936,-1.389 -3.64364,-2.06184 -0.3048,-0.9144 1.06697,-1.07492 5.43198,-0.63561 l 5.83976,0.58773 -4.3592,-2.06844 c -5.78312,-2.7441 -6.7204,-2.63661 -10.30322,1.18155 -7.04232,7.50491 -8.17043,11.74967 -5.28187,19.87427 0.85565,2.40665 1.81967,8.04836 2.14228,12.53712 0.52217,7.26538 0.35867,8.45112 -1.48925,10.80037 -1.73748,2.20885 -2.06248,3.97543 -1.99399,10.83861 0.0719,7.20446 -0.36975,9.35262 -3.63888,17.69963 -9.99954,25.53163 -11.00578,31.20721 -9.13764,51.53976 0.69359,7.54891 0.56102,9.561 -0.80383,12.20034 -2.32712,4.50015 -2.04532,7.97457 0.8656,10.67232 2.77633,2.57302 3.31584,5.58758 1,5.58758 -0.825,0 -1.52426,0.7875 -1.55392,1.75 -0.0297,0.9625 -0.43876,5.35 -0.90913,9.75 -0.49944,4.67202 -0.46641,11.48592 0.0794,16.37965 0.79522,7.12983 0.61595,9.93564 -1.20199,18.81219 -1.64773,8.04547 -2.03378,12.7636 -1.68723,20.62035 0.56114,12.72186 2.96866,19.35375 10.08558,27.78228 l 5.18728,6.14327 0.60258,-7.86887 c 0.33141,-4.32788 1.28721,-9.44387 2.124,-11.36887 0.83678,-1.925 2.34854,-8.11819 3.35946,-13.76265 1.86636,-10.4208 3.1429,-12.16489 4.76473,-6.5099 0.67781,2.3634 0.2726,4.89665 -1.75909,10.99725 -3.77505,11.33546 -4.71802,18.33356 -3.56544,26.46034 1.24446,8.77455 6.39063,19.10456 12.6934,25.4797 7.8641,7.95441 8.65677,9.19861 9.32615,14.6385 0.3517,2.85822 0.82278,5.87176 1.04683,6.69676 0.22914,0.84369 -0.24352,1.5 -1.08026,1.5 -1.01258,0 -1.7045,-1.51596 -2.1667,-4.74718 -0.37348,-2.61095 -1.62303,-6.27456 -2.77676,-8.14134 -2.46056,-3.98126 -10.86589,-11.15229 -11.87371,-10.13008 -0.38235,0.38782 -0.55297,7.00737 -0.37915,14.71011 0.35237,15.61497 2.08498,24.22321 7.103,35.2902 3.58909,7.91558 3.68032,8.51829 1.28928,8.51829 -1.18342,0 -2.76115,-1.95207 -4.64733,-5.75 l -2.85564,-5.75 -0.83002,2.98866 c -3.70934,13.35624 -1.53804,25.19024 8.5339,46.51134 4.02715,8.525 8.02727,17.525 8.88915,20 2.57595,7.39714 4.89447,20.83888 4.53661,26.30118 -0.32784,5.0042 -0.24765,5.1721 3.75771,7.8665 9.45312,6.3593 28.85956,8.6109 45.19946,5.2442 z m 7.60609,-13.1025 c -1.05117,-5.6032 0.41269,-33.16334 2.10698,-39.66816 1.96219,-7.53334 4.36662,-12.16937 5.6473,-10.88869 0.64312,0.64312 0.11444,4.22234 -1.53097,10.3649 -2.99436,11.17841 -5.05462,32.88581 -3.60195,37.95095 1.33622,4.6592 1.23447,5.9317 -0.4743,5.9317 -0.88508,0 -1.7258,-1.4452 -2.14706,-3.6907 z m -51.85286,-28.22161 c -0.82828,-1.60172 -1.96813,-7.11422 -2.53299,-12.25 -1.52102,-13.82928 -1.674,-14.31749 -8.61205,-27.48259 -3.52019,-6.67966 -6.40035,-12.41716 -6.40035,-12.75 0,-4.45162 13.32536,15.26715 15.59675,23.07995 0.8291,2.85182 1.88992,9.82682 2.35738,15.5 0.46746,5.67318 1.34401,11.58166 1.9479,13.12997 1.34178,3.44021 1.34999,3.6849 0.12365,3.6849 -0.53588,0 -1.65201,-1.3105 -2.48029,-2.91223 z m 34.96772,-8.33777 c 1.34362,-4.66619 14.59765,-22.75 16.67398,-22.75 2.86037,0 -2.45441,9.39766 -7.19109,12.71535 -1.14046,0.79881 -3.44907,3.88965 -5.13024,6.86852 -3.10333,5.49879 -5.53331,7.26637 -4.35265,3.16613 z m 42.29617,-13.5 c -3.91018,-4.19235 -5.24759,-7.22303 -3.79835,-8.60736 0.90559,-0.86503 1.47474,-0.65984 2.34264,0.84458 0.63054,1.09297 2.76996,3.66944 4.75427,5.72549 1.98432,2.05605 3.37182,3.9743 3.08334,4.26278 -1.26981,1.26981 -4.0146,0.31264 -6.3819,-2.22549 z M 537.395,927.05254 c 0,-0.48535 1.39735,-2.20415 3.10521,-3.81955 1.70787,-1.6154 4.07037,-4.92856 5.25,-7.36258 2.13135,-4.39778 4.64479,-6.49229 4.64479,-3.87063 0,0.7538 -1.92254,4.5038 -4.2723,8.33333 -2.92138,4.76112 -4.97672,7.06383 -6.5,7.28234 -1.22524,0.17575 -2.2277,-0.0775 -2.2277,-0.56291 z m -7,-15.23759 c 0,-1.346 0.88144,-2.17711 2.75,-2.59294 5.53129,-1.23096 6.11945,-1.56617 8.71211,-4.96532 2.65939,-3.48664 4.53789,-4.44089 4.53789,-2.30518 0,2.39397 -5.42177,8.13199 -9.38391,9.93127 -5.27177,2.39401 -6.61609,2.38023 -6.61609,-0.0678 z m 40.08475,-4.26905 c -1.01429,-2.3375 -3.23095,-5.97755 -4.92591,-8.08899 -6.12365,-7.62838 -8.82501,-21.08014 -6.53384,-32.53601 1.12808,-5.64042 2.06305,-3.2863 2.67334,6.7311 0.6874,11.28319 2.47444,16.73823 8.5335,26.04894 3.94655,6.06449 5.50845,12.09496 3.13262,12.09496 -0.56954,0 -1.86541,-1.9125 -2.87971,-4.25 z m 19.38012,0.19316 c -1.31403,-2.12614 0.71803,-6.15949 5.99537,-11.89991 7.04624,-7.66455 8.12214,-9.91684 11.13465,-23.30923 2.6073,-11.59101 4.83705,-16.70208 6.54245,-14.99668 0.60152,0.60152 0.22592,2.93818 -1.02183,6.3569 -1.08514,2.97317 -2.4651,8.70679 -3.06659,12.74137 -1.46839,9.84939 -2.85367,12.80206 -9.01534,19.21583 -2.87892,2.99671 -6.09836,7.13606 -7.15431,9.19856 -2.06866,4.04052 -2.41355,4.31256 -3.4144,2.69316 z m -8.24636,-12.69316 c 0.30128,-3.77517 1.93285,-9.15928 4.75054,-15.67658 4.2628,-9.85984 4.29774,-10.03799 5.19696,-26.5 1.29955,-23.79064 1.45571,-36.95601 0.49609,-41.82342 -0.5827,-2.95557 -0.49901,-4.25 0.27475,-4.25 2.71679,0 3.19484,5.97716 2.71923,33.99898 -0.52398,30.87098 -0.74211,32.19974 -7.19348,43.81857 -1.31852,2.37466 -2.66293,5.97466 -2.98758,8 -1.10824,6.91409 -1.51348,8.18245 -2.61426,8.18245 -0.72706,0 -0.94525,-1.95342 -0.64225,-5.75 z m 23.78149,2.93855 c 0,-1.60729 0.67735,-1.91442 4.0283,-1.82656 5.40151,0.14164 5.16425,2.99624 -0.28662,3.44838 -3.13832,0.26031 -3.74168,-10e-4 -3.74168,-1.62182 z m -88.73625,-14.15547 c -3.22113,-1.46218 -4.76661,-3.01462 -6.44951,-6.47853 -1.82856,-3.76373 -1.98304,-4.77272 -0.88875,-5.80504 1.0191,-0.96139 1.42651,-0.97233 1.76686,-0.0474 1.74356,4.73799 5.17153,7.87432 10.02694,9.17391 2.82744,0.75678 6.28903,1.08777 7.69242,0.73555 3.59964,-0.90346 9.34931,-6.22276 11.69398,-10.81868 2.24148,-4.39372 10.90307,-13.79289 12.71047,-13.79289 2.13529,0 1.24178,2.30598 -1.91452,4.94097 -1.7041,1.42265 -5.4166,6.36998 -8.25,10.99408 -4.08713,6.67018 -6.06234,8.88866 -9.55892,10.7362 -5.37487,2.84001 -11.09858,2.96307 -16.82897,0.36183 z m 104.11455,-23.47 c -1.71693,-0.74725 -3.85443,-2.40477 -4.75,-3.68337 -1.95317,-2.78854 -2.22361,-8.24404 -0.3783,-7.63133 1.08157,0.35912 2.00704,2.42838 3.35508,7.50162 0.46773,1.76025 9.41795,1.54715 11.83605,-0.2818 2.22399,-1.68214 7.01919,-2.02203 6.03383,-0.42768 -1.21471,1.96544 -8.43664,5.95946 -10.70509,5.92034 -1.24843,-0.0215 -3.67463,-0.65053 -5.39157,-1.39778 z m -61.06359,-8.02674 c -1.76962,-0.76966 -3.94323,-2.86334 -4.89069,-4.71086 -2.92096,-5.69577 -6.51082,-9.29735 -9.79349,-9.82548 -3.74711,-0.60285 -4.75521,-3.50827 -1.56824,-4.51977 3.27073,-1.03809 6.3408,1.12873 11.43998,8.07422 6.81958,9.28878 14.01484,11.69309 16.02639,5.35524 0.89528,-2.82077 3.47134,-2.38271 3.47134,0.59031 0,5.74526 -7.2995,8.24864 -14.68529,5.03634 z m -33.62721,-8.18217 c -0.37813,-0.37813 -0.6875,-2.48253 -0.6875,-4.67645 0,-5.50683 -4.07947,-10.94686 -7.55491,-10.07458 -1.89637,0.47596 -2.44509,0.22061 -2.44509,-1.13783 0,-1.589 1.94267,-3.59777 10.27526,-10.62486 1.52639,-1.28725 3.5604,-4.55595 4.52002,-7.26379 1.81392,-5.11849 4.20472,-7.24669 4.20472,-3.7429 0,3.57609 -4.03325,11.57666 -7.78076,15.43435 -3.65454,3.76197 -3.65761,3.77255 -1.88532,6.5 3.18257,4.89778 4.78359,9.37527 4.47187,12.50629 -0.29957,3.00914 -1.75323,4.44483 -3.11829,3.07977 z m 85.33446,-7.10417 c 0.0319,-6.88983 2.73576,-11.81706 10.96202,-19.97571 7.11147,-7.05303 7.26817,-7.31592 6.55674,-11 -0.40087,-2.07586 -0.95941,-4.99011 -1.24121,-6.47611 -0.39477,-2.08169 0.34133,-3.74365 3.20706,-7.24089 3.27209,-3.99316 3.63833,-4.97135 3.04515,-8.13331 -0.58491,-3.11782 -0.4342,-3.54867 1.137,-3.25048 1.35083,0.25637 1.89007,1.43461 2.12121,4.63486 0.26019,3.60244 -0.18115,4.8504 -2.75,7.77617 -3.5798,4.07717 -3.69984,5.40825 -1.02033,11.31407 2.46395,5.4307 1.72209,6.89665 -6.71439,13.268 -9.95614,7.519 -12.32521,10.23083 -12.32521,14.1084 0,4.80526 -1.07501,9.725 -2.125,9.725 -0.48125,0 -0.86512,-2.1375 -0.85304,-4.75 z M 475.66694,760.65884 c 0.62823,-9.16572 1.65308,-10.80384 8.95235,-14.30945 4.8208,-2.31528 5.46159,-3.93901 5.6574,-14.33561 0.14486,-7.69158 -1.41342,-11.53143 -6.76531,-16.67083 -3.85966,-3.70642 -5.42376,-7.54705 -3.07354,-7.54705 2.03092,0 10.87754,9.23216 11.82756,12.34302 0.53026,1.73634 1.25033,7.9033 1.60016,13.70435 0.58017,9.62065 0.45846,10.77315 -1.38527,13.11708 -1.28649,1.6355 -3.42581,2.79429 -5.88461,3.18747 -5.54228,0.88625 -7.04106,3.08083 -7.81876,11.44862 -0.50502,5.43382 -1.03682,7.19946 -2.16841,7.19946 -1.25525,0 -1.40851,-1.32449 -0.94157,-8.13706 z m 66.29137,6.2395 c -0.3051,-0.49366 3.16726,-1.05616 7.71635,-1.25 8.12083,-0.34604 8.36608,-0.43257 13.5012,-4.76361 2.87657,-2.42614 5.49375,-4.14756 5.81594,-3.82536 1.39962,1.39961 -1.0415,4.8134 -5.47742,7.65993 -4.3446,2.78792 -5.55483,3.0766 -12.89791,3.0766 -4.45689,0 -8.35306,-0.4039 -8.65816,-0.89756 z M 479.395,692.32964 c 0,-1.35644 1.73556,-5.15151 3.85681,-8.43349 4.55499,-7.04746 6.49612,-15.31867 5.18659,-22.10025 -0.84529,-4.37745 0.14036,-7.6225 1.97151,-6.49078 1.48231,0.91611 2.11471,11.98294 1.06016,18.55248 -0.81232,5.06052 -2.12269,8.20624 -5.72767,13.75 -2.57091,3.95357 -5.05081,7.1883 -5.51089,7.1883 -0.46008,0 -0.83651,-1.10982 -0.83651,-2.46626 z m 61.19448,80.99375 c -0.57531,-1.26266 -2.97498,-3.36038 -5.3326,-4.66162 -6.94257,-3.83177 -7.66064,-6.03419 -5.4818,-16.81326 6.00291,-29.6973 14.57458,-42.79458 35.50857,-54.2561 4.31651,-2.36332 4.00654,-4.66408 -2.06079,-15.29651 -9.45804,-16.57434 -8.82786,-14.43079 -8.82786,-30.02778 0,-16.4831 -1.06149,-23.29101 -5.18002,-33.22222 -2.58544,-6.2344 -3.35296,-7.25 -5.47904,-7.25 -2.83591,0 -5.94402,-1.43563 -8.88116,-4.1022 -1.99308,-1.80947 -2.21952,-1.78538 -9.79957,1.04243 -13.19112,4.92109 -13.44976,5.27697 -15.86087,21.82441 -1.14454,7.85494 -1.06433,8.82967 1.61804,19.66232 3.68595,14.88558 3.43331,27.58726 -0.74178,37.29291 -1.94121,4.51267 -2.6756,7.91614 -2.6756,12.39993 0,5.41396 0.50824,7.06024 4.0998,13.28014 5.59902,9.6964 7.87844,19.11838 8.93064,36.91471 0.86974,14.71042 0.89844,14.84058 4.07898,18.5 1.7617,2.02694 5.94527,6.0779 9.29683,9.00213 l 6.09375,5.31678 0.87024,-3.65517 c 0.54972,-2.3089 0.48498,-4.50073 -0.17576,-5.9509 z m 61.3405,-75.83376 c -1.02675,-1.56702 -1.84396,-7.09627 -2.54951,-17.25 -0.57112,-8.21905 -1.71235,-17.30036 -2.53607,-20.18068 -0.82373,-2.88032 -4.79827,-10.30532 -8.83232,-16.5 -4.03405,-6.19468 -8.74371,-13.76649 -10.4659,-16.82625 -3.20879,-5.70096 -8.38251,-24.62104 -9.55351,-34.9368 -1.98604,-17.49572 -5.06274,-33.46507 -6.77791,-35.18024 -2.01389,-2.01389 -4.81976,-2.43325 -4.81976,-0.72035 0,0.60467 1.8,5.56394 4,11.0206 4.46273,11.06891 4.98316,15.68027 2.06744,18.31896 -1.06291,0.96192 -1.68976,2.38166 -1.39301,3.15499 0.39371,1.02598 -0.31805,1.40604 -2.63318,1.40604 -4.06379,0 -6.58554,-1.32183 -11.54125,-6.0496 -3.89426,-3.71513 -4.08592,-3.77941 -7.25,-2.43148 -2.90346,1.2369 -3.25,1.8162 -3.25,5.43281 0,2.22655 0.37777,4.04827 0.83948,4.04827 1.16412,0 3.16052,4.62669 3.16052,7.32455 0,3.76294 2.62893,6.27217 9.00845,8.59826 6.05241,2.20682 7.42154,4.26885 3.24424,4.88612 -2.05427,0.30356 -2.0387,0.43408 0.89465,7.5 2.7797,6.69582 3.0452,8.46516 3.85504,25.69107 0.93753,19.94217 1.68292,23.90137 5.48188,29.11763 1.35484,1.8603 3.48697,4.81975 4.73806,6.57655 1.41854,1.99192 3.02805,3.12109 4.2762,3 2.17193,-0.21072 2.45454,1.58963 1.30378,8.30582 l -0.5997,3.5 6.1487,-0.35228 c 6.5171,-0.37339 15.49651,1.19273 19.6487,3.42698 3.99634,2.15039 5.30716,1.82371 3.53498,-0.88097 z m -16.74422,-9.24435 c -4.72331,-2.56375 -16.00517,-21.63497 -13.99037,-23.64977 1.05412,-1.05412 3.63473,2.15808 6.98967,8.70039 1.12817,2.2 4.54115,6.4391 7.58439,9.42023 6.67324,6.53702 6.38059,9.30928 -0.58369,5.52915 z m -47.88558,-87.93082 c -1.55918,-3.5248 -2.35098,-4.42432 -2.99681,-3.40454 -0.48276,0.76229 -0.88464,1.88277 -0.89306,2.48996 -0.0186,1.33822 4.90815,6.80589 5.5522,6.16184 0.25121,-0.25121 -0.49683,-2.61248 -1.66233,-5.24726 z M 523.20553,590.0459 c 0.57924,-1.5125 1.96998,-9.95 3.09054,-18.75 1.12055,-8.8 2.76758,-21.77113 3.66007,-28.82474 0.89249,-7.05361 1.4121,-13.03536 1.15469,-13.29277 -0.25742,-0.25741 -2.03946,-0.72303 -3.9601,-1.0347 -4.13572,-0.67114 -3.6754,-2.21752 -6.74301,22.65221 -3.84292,31.15529 -4.71496,39.50231 -4.25727,40.75 0.25219,0.6875 1.70579,1.25 3.23022,1.25 2.10168,0 3.02628,-0.66477 3.82486,-2.75 z m 35.98947,-7.45 c 0.66,-0.66 1.2,-1.98203 1.2,-2.93784 0,-1.39934 -14.32819,-40.873 -18.00476,-49.6025 -0.83289,-1.97757 -1.2398,-2.10535 -3.4694,-1.08948 -1.38921,0.63297 -2.52584,1.48535 -2.52584,1.89417 0,3.50419 14.25019,46.98956 16.60973,50.68565 1.57267,2.46349 4.31211,2.92816 6.19027,1.05 z m -17.40194,-5.27269 2.89806,-0.63973 -3.85101,-3.94379 c -2.40944,-2.46749 -3.2884,-3.94379 -2.34806,-3.94379 0.82662,0 2.04295,0.54 2.70295,1.2 0.80118,0.80118 1.53284,0.86716 2.20147,0.19853 1.03085,-1.03085 -2.51881,-13.40231 -3.84327,-13.39479 -0.36201,0.002 -2.16097,0.91993 -3.99768,2.03972 -2.88121,1.75658 -3.15834,2.25424 -2.01949,3.62646 0.76753,0.92483 1.33199,4.15181 1.34866,7.71029 0.0304,6.49338 0.80845,8.76688 2.79234,8.15964 0.66988,-0.20504 2.5221,-0.66069 4.11603,-1.01254 z m -10.49774,-8.27731 c -0.089,-3.34672 -0.18578,-3.48115 -0.90032,-1.25 -1.14477,3.57455 -1.14477,5 0,5 0.55,0 0.95514,-1.6875 0.90032,-3.75 z m -17.27115,-11.84869 c 1.8299,-0.49107 2.22698,-1.57845 2.82506,-7.73634 0.38274,-3.94073 1.33337,-10.52122 2.11251,-14.62329 0.80311,-4.22829 1.0399,-7.83504 0.54676,-8.32818 -0.47842,-0.47842 -2.11493,-0.72218 -3.63669,-0.54168 -2.63875,0.31299 -2.93793,0.92996 -6.46305,13.32818 -2.03292,7.15 -4.01137,13.9759 -4.39656,15.16867 -0.52078,1.61263 -0.241,2.28798 1.09123,2.634 2.69588,0.70021 5.54679,0.73571 7.92074,0.0986 z m 24.37083,-4.98119 c 0,-0.6652 -0.97976,-4.29435 -2.17723,-8.06479 l -2.17724,-6.85533 -1.23531,8.5 c -0.67943,4.675 -1.27467,9.05522 -1.32277,9.73382 -0.0628,0.88655 0.89766,0.76406 3.41255,-0.43521 1.925,-0.91797 3.5,-2.21329 3.5,-2.87849 z m -32.74293,-12.20631 c 2.20214,-7.8574 3.83267,-14.45194 3.62341,-14.65454 -0.20926,-0.20259 -1.95299,-0.52381 -3.87494,-0.71381 l -3.49445,-0.34546 -3.69066,12.31631 c -2.02985,6.77396 -3.98673,13.66438 -4.34862,15.31204 -0.657,2.99132 -0.65175,2.99528 3.5617,2.6837 l 4.21967,-0.31205 4.00389,-14.28619 z m 32.99707,-15.46381 c 0.90002,-0.6875 1.90609,-2.375 2.23572,-3.75 1.25768,-5.24625 -5.55714,-8.93272 -9.4032,-5.08666 -2.29555,2.29555 -2.76569,7.00763 -0.88666,8.88666 1.5644,1.5644 5.97655,1.53701 8.05414,-0.05 z m -12.46408,-5.2508 c 0.15953,-2.47456 0.13383,-4.4992 -0.0571,-4.4992 -0.19095,0 -5.24969,0.90072 -11.24166,2.0016 -10.68665,1.96342 -14.31354,3.38086 -11.40851,4.45862 1.76764,0.65579 14.21974,2.24378 18.91722,2.41248 3.45983,0.12425 3.50333,0.074 3.79006,-4.3735 z M 278.7495,541.27734 c -0.33087,-0.86224 -0.37023,-1.79904 -0.0875,-2.08179 0.28275,-0.28275 117.67584,-20.73672 260.87354,-45.45326 143.19769,-24.71654 261.5973,-45.20162 263.1103,-45.52241 1.9912,-0.42219 2.9227,-0.13514 3.3735,1.03951 0.3425,0.89252 0.4263,1.81918 0.1863,2.05923 -0.2401,0.24006 -117.85819,20.69444 -261.37359,45.45418 -143.51539,24.75974 -261.95945,45.25498 -263.20903,45.54497 -1.50095,0.34833 -2.47611,-0.005 -2.87354,-1.04043 z"
       id="path3653"
       inkscape:connector-curvature="0" />
  </g>
</svg>
