<?xml version="1.0" encoding="UTF-8" standalone="no"?>
<!-- Created with Inkscape (http://www.inkscape.org/) -->

<svg
   xmlns:dc="http://purl.org/dc/elements/1.1/"
   xmlns:cc="http://creativecommons.org/ns#"
   xmlns:rdf="http://www.w3.org/1999/02/22-rdf-syntax-ns#"
   xmlns:svg="http://www.w3.org/2000/svg"
   xmlns="http://www.w3.org/2000/svg"
   xmlns:xlink="http://www.w3.org/1999/xlink"
   xmlns:sodipodi="http://sodipodi.sourceforge.net/DTD/sodipodi-0.dtd"
   xmlns:inkscape="http://www.inkscape.org/namespaces/inkscape"
   width="899.80206"
   height="884.72021"
   id="svg2"
   version="1.1"
   inkscape:version="0.48.3.1 r9886"
   sodipodi:docname="Lying-triceps-extension-across-face-2.svg">
  <defs
     id="defs4">
    <radialGradient
       gradientUnits="userSpaceOnUse"
       gradientTransform="matrix(1,0,0,0.91819829,-19.285714,-7.9105395)"
       r="209.56604"
       fy="287.50052"
       fx="398.1105"
       cy="287.50052"
       cx="398.1105"
       id="radialGradient5255"
       xlink:href="#linearGradient5249"
       inkscape:collect="always" />
    <linearGradient
       id="linearGradient5249"
       inkscape:collect="always">
      <stop
         id="stop5251"
         offset="0"
         style="stop-color:#e3e3e3;stop-opacity:1;" />
      <stop
         id="stop5253"
         offset="1"
         style="stop-color:#e3e3e3;stop-opacity:0;" />
    </linearGradient>
  </defs>
  <sodipodi:namedview
     id="base"
     pagecolor="#ffffff"
     bordercolor="#666666"
     borderopacity="1.0"
     inkscape:pageopacity="0.0"
     inkscape:pageshadow="2"
     inkscape:zoom="0.35"
     inkscape:cx="-313.41567"
     inkscape:cy="277.88391"
     inkscape:document-units="px"
     inkscape:current-layer="layer1"
     showgrid="false"
     showguides="true"
     inkscape:guide-bbox="true"
     fit-margin-top="0"
     fit-margin-left="0"
     fit-margin-right="0"
     fit-margin-bottom="0"
     inkscape:window-width="1201"
     inkscape:window-height="886"
     inkscape:window-x="167"
     inkscape:window-y="73"
     inkscape:window-maximized="0">
    <sodipodi:guide
       orientation="-0.70710678,0.70710678"
       position="-1701.2169,438.01372"
       id="guide2985" />
  </sodipodi:namedview>
  <metadata
     id="metadata7">
    <rdf:RDF>
      <cc:Work
         rdf:about="">
        <dc:format>image/svg+xml</dc:format>
        <dc:type
           rdf:resource="http://purl.org/dc/dcmitype/StillImage" />
        <dc:title></dc:title>
      </cc:Work>
    </rdf:RDF>
  </metadata>
  <g
     inkscape:label="Ebene 1"
     inkscape:groupmode="layer"
     id="layer1"
     transform="translate(-272.64535,420.05859)">
    <path
       style="fill:#000000"
       d="m 648.67396,452.16384 -15.2733,-12.52585 0.2733,-17.19015 0.2734,-17.19015 56.3543,-30.65736 c 30.9949,-16.86154 56.7693,-31.07231 57.2765,-31.57949 0.5597,-0.55969 0.6169,-24.84355 0.1457,-61.78379 l -0.7765,-60.86166 -71.5,-44.29204 c -39.325,-24.36062 -72.0329,-44.30097 -72.6843,-44.3119 -0.6514,-0.0109 -43.99833,20.68014 -96.32655,45.98014 -52.32822,25.3 -95.55868,46 -96.06768,46 -0.509,0 -7.89839,-5.5125 -16.42086,-12.25 l -15.49541,-12.25 -0.003,-16.6933 c -0.002,-15.20212 0.16513,-16.81002 1.87514,-18 1.03276,-0.71868 17.73059,-8.2817 37.10629,-16.8067 l 35.22855,-15.5 -0.66873,-47.500009 c -0.36781,-26.125 -0.97814,-47.63022 -1.3563,-47.78939 -0.37776,-0.15916 -15.08716,-9.23317 -32.68716,-20.16446 l -32,-19.8750697 -1.69453,6.85686 c -0.932,3.77127 -2.3823,8.1868397 -3.22289,9.8123597 -2.30038,4.44844 -3.33422,10.23332 -4.5937,25.70417 l -1.14337,14.04447 5.73262,27.95553 c 4.18906,20.428309 5.75809,30.284799 5.82724,36.606229 0.0903,8.25087 -0.049,8.82839 -3.012,12.49552 -4.90885,6.07531 -11.2936,8.83468 -20.34111,8.79107 -4.15374,-0.02 -9.35226,-0.66885 -11.55226,-1.44183 -2.2,-0.77298 -4.27078,-1.33542 -4.60173,-1.24986 -0.33096,0.0856 -3.25596,-2.1268 -6.5,-4.91636 -6.45597,-5.55148 -21.02235,-12.97202 -28.89827,-14.72161 -20.06736,-4.45785 -23.72043,-6.25793 -32.96589,-16.24414 -6.05753,-6.542839 -7.24874,-9.374739 -5.75084,-13.671619 0.64718,-1.85649 0.65195,-3.44969 0.0138,-4.59009 -1.40881,-2.51741 -0.33486,-5.64343 3.66945,-10.68094 1.93276,-2.43146 3.51849,-5.23069 3.52382,-6.2205 0.005,-0.98981 0.66669,-3.07012 1.46966,-4.6229 2.51579,-4.86499 8.2044,-5.29415 19.49567,-1.47077 l 7.69806,2.60666 9.92316,-3.68968 c 5.45774,-2.02933 10.53644,-4.28168 11.286,-5.00523 0.8636,-0.83362 1.66918,-5.29067 2.19909,-12.16698 1.64909,-21.39931 1.38393,-24.21195 -4.4702,-47.4152897 -8.53694,-33.8368903 -9.34721,-46.4579403 -4.85697,-75.6542603 2.17891,-14.16768 2.67767,-20.525791 2.45386,-31.281891 -0.27514,-13.22344 -0.21926,-13.62824 2.72741,-19.75978 3.20314,-6.66522 10.69624,-14.95412 15.99581,-17.69463 3.89014,-2.01167 22.12213,-2.35938 31.76981,-0.6059 4.64078,0.84347 7.33802,0.83235 10.82079,-0.0446 5.7335,-1.44371 19.41176,-0.64559 25.24756,1.47318 l 4.25,1.54303 0.003,-4.20564 c 0.005,-7.7283 2.18317,-22.11682 4.64792,-30.70564 8.96714,-31.24745 28.39162,-47.86454 53.34926,-45.63878 4.92589,0.4393 8.67954,1.66069 15.5,5.04349 16.01032,7.94079 27.22449,19.0696 39.30296,39.00379 5.47365,9.03366 6.41148,10.06327 10.62186,11.6615 l 4.61812,1.75301 62.22684,-20.74527 62.2268,-20.74527 0.763,-5.30158 c 1.0972,-7.62415 5.3183,-14.80015 10.725,-18.23288 6.1635,-3.91319 11.5831,-5.26624 15.8493,-3.95692 4.5196,1.38709 6.2384,0.22579 11.6053,-7.84109 7.5974,-11.4194 10.9868,-13.38449 21.4198,-12.41843 11.1223,1.02988 13.8835,2.08025 17.0844,6.49899 1.5893,2.19394 3.4478,6.16704 4.1301,8.82912 l 1.2405,4.84014 10.343,-3.46349 10.343,-3.4635 0,-8.71563 c 0,-7.85118 0.2809,-9.15854 2.8319,-13.18108 5.4787,-8.63898 13.0509,-13.42736 19.7938,-12.51681 2.4059,0.32488 6.372,0.85883 8.8137,1.18656 5.4557,0.7323 13.8755,-0.97182 17.4788,-3.53765 2.3275,-1.65728 3.5687,-1.80395 9.2759,-1.09615 8.6728,1.07557 9.9196,1.90103 12.4017,8.21042 1.3139,3.33997 2.6196,5.2232 3.5,5.04791 0.7723,-0.15377 32.6127,-10.72877 70.7565,-23.5 l 69.3521,-23.22042 -0.6287,-10.5 c -1.8699,-31.23203 7.2858,-61.00537 23.85374,-77.56885 6.9682,-6.96634 14.4442,-10.98041 23.383,-12.55496 9.476,-1.66916 15.8944,-0.43286 27.2398,5.24683 16.7309,8.37578 28.8287,22.09028 38.9501,44.15533 2.4527,5.34691 4.7722,9.72165 5.1544,9.72165 0.3822,0 13.8563,-4.5 29.9425,-10 16.0861,-5.5 30.0295,-10 30.9852,-10 3.151,0 6.9154,5.69081 6.9154,10.45429 0,2.36545 -0.5625,4.74553 -1.25,5.28905 -0.6875,0.54353 -15.0028,5.55784 -31.8117,11.14293 l -30.5617,10.15469 1.4941,7.72952 c 1.0295,5.3258 1.4978,14.2601 1.506,28.72952 0.011,19.63855 -0.161,21.64 -2.6557,30.8718 -6.5922,24.39529 -19.8567,42.62126 -35.4689,48.73572 -7.6034,2.97785 -22.256,3.26322 -29.9389,0.58309 -15.5331,-5.41859 -31.7583,-21.86283 -42.4661,-43.03929 -4.00234,-7.91527 -10.84714,-26.93116 -10.84714,-30.13496 0,-0.96277 -0.5545,-1.52642 -1.25,-1.27065 -0.6875,0.25283 -31.9625,10.68847 -69.5,23.19031 -37.5375,12.50183 -68.25,23.0817 -68.25,23.51081 0,4.11474 2.5054,11.71172 5.0556,15.32966 3.0546,4.33362 3.1106,4.60614 2.0227,9.84661 -1.989,9.58078 0.6062,18.03845 13.6704,44.55136 6.1161,12.4123 8.4831,18.45986 10.1766,26 1.2137,5.40405 3.302,13.73522 4.6407,18.51371 1.4322,5.11205 2.434,11.35014 2.434,15.15539 0,5.91998 0.2946,6.81983 3.4816,10.63443 5.2733,6.31169 6.307,10.88748 4.156,18.397461 -3.8297,13.37142 -3.5843,15.14361 3.6963,26.69833 9.0423,14.35044 9.1597,14.80816 9.2118,35.92622 l 0.046,18.5 4.3162,6.7852003 c 12.5886,19.7896497 15.1767,39.6354297 7.4223,56.9145297 l -2.5748,5.73751 7.4566,8.28138 c 18.8465,20.93108 23.7883,31.07775 23.7883,48.843219 l 0,6.96339 5.3141,2.35013 c 10.2069,4.514 14.2206,12.53986 14.1378,28.27044 -0.043,8.17712 -0.3291,9.57023 -2.7001,13.15316 -2.8743,4.34329 -10.7484,10.73388 -20.2518,16.43627 -3.3,1.98011 -32.775,16.71845 -65.5,32.75186 -62.7241,30.73128 -67.4907,32.65868 -78.5913,31.77842 l -5.0913,-0.40373 -0.6714,37.47313 c -0.3692,20.61023 -0.5408,37.6036 -0.3813,37.76307 0.1594,0.15948 19.4809,-9.58482 42.9367,-21.654 23.4557,-12.06919 43.1758,-21.94397 43.8224,-21.94397 0.6466,0 8.3286,4.3007 17.0712,9.55711 11.1341,6.69428 16.0575,10.21399 16.4362,11.75 0.2973,1.20609 0.4119,9.38218 0.2547,18.16908 l -0.2859,15.97619 -125,67.21478 c -68.75,36.96813 -125.675,67.22741 -126.5,67.24286 -0.825,0.0154 -8.373,-5.60855 -16.7733,-12.49777 z m 138.0427,-59.01152 c 66.1269,-35.52959 121.2432,-65.23997 122.4807,-66.02305 1.9746,-1.24948 2.25,-2.25951 2.25,-8.24987 0,-3.75433 -0.282,-10.16274 -0.6268,-14.24091 l -0.6268,-7.41486 -12.1232,-7.1844 c -6.6677,-3.95141 -12.8734,-7.46645 -13.7903,-7.8112 -1.0712,-0.40277 -17.4099,7.47104 -45.7118,22.02906 -24.2245,12.46073 -44.8493,22.49848 -45.8328,22.30612 -1.6912,-0.33076 -1.7675,-2.64222 -1.406,-42.58068 0.3556,-39.28696 0.2633,-42.23094 -1.3237,-42.23094 -3.9782,0 -17.1806,-5.36405 -24.7359,-10.04999 -4.4828,-2.78032 -9.0388,-5.53051 -10.1245,-6.11154 -1.9572,-1.04744 -1.9706,-0.53686 -1.586,60.16394 l 0.3878,61.22034 -57.2398,31.13862 -57.2397,31.13862 -0.01,13.677 -0.01,13.677 12.75,10.51023 c 7.0125,5.78063 13.0961,10.53848 13.5192,10.573 0.4231,0.0345 54.8731,-29.0069 121,-64.53649 z m 31.6241,-157.90787 c 1.9837,-0.72448 30.3816,-14.43256 63.1066,-30.46239 60.1144,-29.44608 73.3557,-36.84522 79.4096,-44.37344 2.9119,-3.62097 3.0871,-4.32225 3.0325,-12.13928 -0.073,-10.504 -2.912,-16.83305 -9.0839,-20.25327 l -4.034,-2.23553 -2.1965,9.83743 c -2.4427,10.94032 -9.3323,24.50497 -15.9756,31.45362 -4.9001,5.12544 -16.4739,12.24232 -25.7948,15.86162 -26.4948,10.28798 -52.0724,-1.2447 -66.2944,-29.89146 -10.1067,-20.35759 -17.5349,-24.31952 -29.8849,-15.93962 -6.7736,4.5961 -12.1585,6.05542 -19.178,5.19731 -15.5279,-1.89825 -14.0913,-2.0273 -19.7358,1.77287 -8.7569,5.89552 -15.3602,7.90085 -27.7832,8.43738 -19.6717,0.84958 -32.4576,-4.16789 -52.981,-20.79086 -3.85,-3.11832 -10.6,-7.60481 -15,-9.96997 -11.3061,-6.07745 -17.1925,-10.40872 -23.3976,-17.21636 -2.9687,-3.25693 -9.8147,-9.498789 -15.2134,-13.870789 -10.1278,-8.20179 -15.8239,-15.12938 -21.8131,-26.52907 -3.1941,-6.07946 -3.2483,-6.12295 -8.3954,-6.7413 -2.8493,-0.34231 -7.7448,-0.62629 -10.8789,-0.63107 -3.3024,-0.005 -9.0797,-1.07686 -13.7402,-2.54911 -6.09444,-1.92523 -8.51262,-2.28847 -9.98589,-1.5 -3.77332,2.01942 -9.20474,0.98299 -22.9675,-4.38272 -17.72946,-6.91221 -19.08542,-7.62863 -28.10802,-14.85082 -9.99683,-8.00203 -15.26726,-10.23329 -29,-12.27732 -12.43587,-1.851 -13.03263,-2.05372 -20.5,-6.964 -2.75,-1.8083 -10.85,-5.4059697 -18,-7.9948297 -7.15,-2.58885 -13.6742,-5.0442 -14.49823,-5.45631998 -1.69889,-0.84966 -3.80878,-7.04593002 -3.92729,-11.53357032 -0.0689,-2.6094 -0.82757,-3.39021 -5.82686,-5.99703 -9.2439,-4.82012 -25.01073,-17.03888 -35.1764,-27.26052 l -9.42878,-9.48069 -5.15129,1.15281 c -12.18563,2.72702 -12.22588,2.7499 -13.83356,7.86275 -3.14363,9.99756 -2.48777,16.73091 2.14039,21.97448 1.48611,1.68372 78.97702,50.20263 172.20202,107.81979 93.22501,57.617169 184.17401,113.861899 202.10891,124.988289 17.9349,11.12639 35.2599,21.19216 38.5,22.36837 13.1899,4.78815 28.3427,5.83044 37.2845,2.56462 z M 503.69449,172.14587 c 50.73907,-24.53314 92.34387,-44.6866 92.45497,-44.78546 0.1112,-0.0989 -10.175,-6.62893 -22.85825,-14.51128 L 550.23083,98.517571 524.34088,111.20825 c -14.23948,6.97987 -26.67826,12.53915 -27.64174,12.35395 -1.60863,-0.30921 -1.79265,-2.76523 -2.25179,-30.053279 l -0.5,-29.71653 -17.78544,-11.02041 c -9.78199,-6.06122 -17.99033,-11.0204 -18.24076,-11.0204 -0.25042,0 -0.16126,21.3583 0.19813,47.4629 l 0.65346,47.462899 -2.9127,1.07907 c -1.60198,0.59349 -18.3374,7.88572 -37.18982,16.20495 l -34.27712,15.12587 0.27712,13.58216 0.27713,13.58216 12.76756,10.25 c 7.02217,5.6375 12.98338,10.25 13.24714,10.25 0.26376,0 41.99336,-20.07257 92.73244,-44.60572 z m 396.25827,6.0623 c 24.2919,-6.32723 40.0633,-25.43846 44.5273,-53.95658 1.7604,-11.24635 -1.0463,-27.809089 -6.4917,-38.309329 -3.1841,-6.13979 -35.6106,-39.13212 -41.041,-41.75711 -2.9006,-1.40214 -6.0631,-1.92179 -11.5063,-1.89072 -13.4034,0.0765 -19.4081,4.66605 -29.7664,22.75122 -9.6531,16.85386 -13.9392,31.60875 -9.8471,33.89879 2.4159,1.352049 1.9979,2.835629 -1.9335,6.861729 -3.3656,3.4467 -3.5568,4.00814 -3.6191,10.62877 -0.047,4.95925 0.5225,8.31974 1.9593,11.56772 2.2426,5.06987 4.5313,6.74893 9.1994,6.74893 2.5651,0 3.3031,-0.53178 4.1636,-3 1.4925,-4.2815 4.8501,-4.15305 4.8501,0.18555 0,5.18486 -3.295,7.81445 -9.7919,7.81445 -4.9626,0 -5.7766,-0.33323 -9.2159,-3.77255 -4.5821,-4.58213 -5.9804,-9.19276 -5.9829,-19.72745 -0.001,-6.2058 0.4407,-8.72576 1.9712,-11.23599 1.711,-2.80619 1.8417,-3.92896 0.9836,-8.453629 -0.7918,-4.17504 -0.6569,-6.22602 0.675,-10.26402 2.2913,-6.94659 7.4825,-18.21105 11.7412,-25.47742 3.4588,-5.90153 3.495,-6.06895 1.3108,-6.06895 -5.6588,0 -9.061,-6.66127 -4.617,-9.03963 1.7443,-0.93355 2.1568,-0.79365 2.5945,0.88012 0.5819,2.22521 4.2125,3.51224 7.002,2.48216 1.0062,-0.37156 3.6294,-2.11314 5.8294,-3.87016 2.2,-1.75702 5.35,-3.9096 7,-4.7835 4.7138,-2.4966 0.6974,-2.09572 -13.3356,1.33101 -6.757,1.65 -13.4128,3 -14.7907,3 -3.8221,0 -6.3737,-1.79193 -6.3737,-4.47617 0,-3.17648 1.7014,-4.10407 3.8918,-2.12179 2.426,2.19549 5.2918,2.01337 14.6082,-0.92835 11.155,-3.52223 18.9639,-4.03194 31.3821,-2.04843 12.4664,1.99121 14.8426,2.9268 22.6179,8.90554 l 6,4.61362 2.2323,-2.50738 c 3.6387,-4.08712 5.6249,-12.68369 4.9031,-21.22185 -0.8299,-9.81835 -4.3391,-19.5248997 -11.0968,-30.6942497 l -5.563,-9.1946003 0.6563,-12.96676 c 0.8911,-17.60723 -0.6342,-24.34686 -8.75,-38.66146 -7.3889,-13.0325 -8.3032,-18.27543 -5.0678,-29.05981 2.2795,-7.598281 2.2071,-8.035531 -2.5167,-15.206121 -2.6986,-4.09631 -3.4495,-6.39671 -3.9173,-12 -0.3183,-3.8127 -1.3842,-9.18219 -2.3688,-11.93219 -0.9846,-2.75 -2.7886,-9.95 -4.009,-16 -2.7056,-13.41324 -4.8482,-19.2396 -13.2386,-36 -10.7372,-21.44828 -14.4516,-34.80776 -11.9555,-43 0.7655,-2.51224 0.3852,-3.97552 -2.3386,-9 -1.789,-3.3 -3.5617,-8.25 -3.9394,-11 -0.8922,-6.49575 -8.225,-25.33862 -11.0142,-28.30271 -2.9741,-3.16056 -10.492,-3.32477 -16.0012,-0.34951 -2.1918,1.18372 -4.7837,2.15222 -5.7598,2.15222 -0.976,0 -2.5452,0.9 -3.487,2 -2.2981,2.68398 -5.6099,2.51927 -10.0532,-0.5 -10.5859,-7.19335 -21.0422,1.40368 -22.805,18.75 -0.7359,7.24176 -0.7259,7.25354 4.5683,5.34208 2.6034,-0.93996 3.4836,-1.84183 3.5,-3.58621 0.034,-3.61988 2.2189,-3.50886 6.0344,0.30663 2.809,2.80893 3.5231,4.33388 3.6704,7.8375 0.4553,10.82927 -0.2899,12.31853 -6.2111,12.41207 -2.1611,0.0341 -4.1941,0.32689 -4.5178,0.65056 -0.4882,0.48829 4.0818,10.74872 4.8129,10.80547 0.1282,0.01 6.3939,1.08647 13.9236,2.39226 14.4563,2.50696 21.4744,5.32369 22.8699,9.17895 1.376,3.80124 -0.4899,4.84391 -3.5662,1.99287 -1.5324,-1.4202 -3.1337,-2.58218 -3.5584,-2.58218 -0.4247,0 -1.4896,-0.27528 -2.3663,-0.61173 -1.3461,-0.51652 -1.2688,0.14493 0.4964,4.25 3.0545,7.10322 5.9005,21.73959 5.9185,30.43766 0.01,4.16676 -0.6795,12.49176 -1.529,18.5 -1.9443,13.75074 -2.1275,24.81579 -0.496,29.94485 1.3663,4.29492 13.6081,29.399331 15.0572,30.877871 1.5281,1.55922 5.522,-1.98844 6.7526,-5.998281 1.2879,-4.1964 1.48,-3.73224 -6.031,-14.57761 -3.9667,-5.72774 -6.6565,-15.00688 -5.3352,-18.4052 0.7116,-1.83011 0.8323,-1.81126 2.6471,0.41329 1.0458,1.28197 2.8817,5.10697 4.0798,8.5 1.924,5.44892 3.4635,7.42094 13.1861,16.89142 15.1745,14.781051 14.8454,14.172581 14.0543,25.982771 -0.5682,8.48445 -0.3628,10.59817 1.6334,16.80645 2.3455,7.29439 1.9229,9.9418 -1.3842,8.67274 -3.7213,-1.42802 -5.0765,-6.70155 -5.1867,-20.18423 -0.123,-15.03379 -0.508,-16.70534 -4.5041,-19.5508 -4.4842,-3.193031 -7.8472,-1.953731 -13.1818,4.85767 -8.162,10.42138 -9.0606,13.40588 -8.8408,29.36121 0.1918,13.92247 2.0358,21.89802 6.2922,27.21408 1.7096,2.13519 3.3769,5.1618 3.7051,6.7258 l 0.5966,2.84365 3.2498,-2.54808 c 2.3477,-1.84082 3.4278,-3.66206 3.8915,-6.56149 0.6537,-4.08829 2.6771,-5.92368 4.5099,-4.09091 1.127,1.12703 -4.4176,14.01899 -7.778,18.08466 l -1.9305,2.33578 9.906,10.16422 c 5.4483,5.5903103 12.6293,13.7642103 15.9577,18.1642103 3.3284,4.3999997 7.3558,9.5177397 8.9499,11.3727597 2.0364,2.36983 2.5839,3.68709 1.8412,4.4298 -1.9597,1.95967 -6.1953,-1.54652 -16.1543,-13.3724097 -22.3133,-26.4961103 -35.3733,-34.6263503 -57.3089,-35.6764303 -12.3662,-0.59199 -19.7472,0.65505 -25.008,4.22517 -3.1116,2.11159 -3.5428,2.18367 -4.1245,0.6896 -1.4551,-3.73706 11.2432,-11.06665 19.4297,-11.21505 2.188,-0.0397 1.8521,-0.41936 -2.2676,-2.56294 -6.6054,-3.437 -16.9197,-5.90038 -30.9176,-7.38416 -17.9646,-1.90425 -20.8852,0.20366 -16.8476,12.15963 1.1557,3.4223 2.1013,7.72496 2.1013,9.56145 0,4.87445 -4.5601,13.2802903 -7.8855,14.5354603 l -2.735,1.03234 1.7801,9.10239 c 1.8672,9.5481097 2.3345,27.3763497 0.9398,35.8495197 -1.1384,6.9159 1.0876,10.97695 10.8608,19.81386 8.6944,7.86153 11.6806,12.4557 14.5808,22.43203 1.2534,4.31147 1.5593,7.8123 1.1323,12.95729 -0.9276,11.174979 -2.2286,14.265039 -8.7532,20.789659 -5.0636,5.06359 -6.336,5.84498 -9.0776,5.57455 -1.7536,-0.17298 -3.3593,-0.83556 -3.5681,-1.4724 -0.2088,-0.63684 2.9065,-3.97473 6.923,-7.41753 6.4002,-5.48612 7.4613,-6.88771 8.5867,-11.34212 1.8418,-7.290229 1.0136,-17.160389 -1.9905,-23.722219 -3.2524,-7.10407 -7.4801,-11.81302 -16.7404,-18.64586 -10.8031,-7.97121 -13.0532,-10.61202 -13.0532,-15.32015 0,-4.28088 0.4959,-4.66042 3.0588,-2.34106 1.592,1.44074 1.8066,1.17655 2.9643,-3.64952 2.8972,-12.07676 0.5497,-31.3036597 -6.5874,-53.95357 -5.5352,-17.56631 -5.8288,-19.34443 -4.5114,-27.32179 0.6381,-3.86385 1.5471,-7.49838 2.0199,-8.07674 0.4728,-0.57836 2.7569,-6.63792 5.0758,-13.46569 5.4709,-16.10839 5.6033,-20.96905 0.9427,-34.58587 l -3.4227,-10.000001 -0.029,-33.5 c -0.016,-18.425 0.3397,-35.59119 0.7908,-38.14708 0.4588,-2.59913 3.0035,-8.32818 5.7743,-13 2.7247,-4.59411 6.5353,-11.53764 8.4681,-15.43008 l 3.5141,-7.07717 -2.9022,-13.6176 c -3.3836,-15.87627 -5.4637,-20.55079 -10.2243,-22.97652 -7.5492,-3.84667 -21.5637,-1.29693 -24.5435,4.46533 -1.8673,3.61092 -1.4778,4.14801 2.0386,2.8111 3.4218,-1.30097 7.5736,-1.32894 7.5736,-0.051 0,1.48129 -3.6031,3.53526 -13.3378,7.60331 -5.397,2.25536 -8.3644,3.9858 -7.6219,4.44469 1.9595,1.21105 0.093,2.97505 -3.1471,2.97505 -1.9487,0 -3.8435,-0.92228 -5.4448,-2.65015 l -2.4561,-2.65015 -4.0314,1.81789 c -3.8557,1.7387 -10.961,8.48256 -10.961,10.4035 0,0.50344 -0.2318,1.5194 -0.5151,2.25769 -0.3666,0.95536 0.4262,1.33931 2.75,1.33179 4.8799,-0.0158 6.9208,4.8876 7.7272,18.56522 0.6823,11.57225 0.5454,11.24807 8.3113,19.67345 5.4282,5.8891 9.1657,13.29211 8.218,16.27787 -0.9015,2.84063 -3.1734,2.42687 -4.2397,-0.77217 -0.8518,-2.55528 -0.9577,-2.39974 -1.5325,2.25 -0.3396,2.74728 -3.2998,13.54506 -6.5784,23.99506 -7.7071,24.56569 -9.729,32.03025 -11.6473,43.000001 -1.6867,9.64529 -1.5184,12.77281 1.5772,29.30076 2.4702,13.18826 2.4461,19.81405 -0.095,26.26128 l -2.0244,5.13608 2.0736,7.38998 c 1.8335,6.53419 1.9502,8.29153 1.0077,15.17503 -0.5862,4.28177 -2.4241,11.3742003 -4.0842,15.7609603 -5.161,13.6376597 -7.0068,22.8587497 -7.6017,37.9759097 -0.62,15.755 0.866,25.64063 5.0358,33.5 7.2148,13.59853 8.7964,17.37867 11.0876,26.5 2.724,10.844639 3.1115,15.022669 1.4863,16.027079 -2.1518,1.32988 -3.8867,-1.94527 -6.0093,-11.34406 -2.7794,-12.307359 -4.9865,-18.148379 -9.1354,-24.175729 -2.9185,-4.24001 -3.8455,-4.88613 -7.8115,-5.44447 -2.475,-0.34843 -8.0968,-2.53011 -12.4928,-4.84817 -8.4391,-4.44999 -11.1677,-7.61198 -9.4073,-10.90132 1.3925,-2.60191 2.856,-2.2383 3.9811,0.98908 0.7726,2.21654 2.5315,3.47092 8.413,6 4.0898,1.75868 8.4043,3.19759 9.5876,3.19759 1.8308,0 2.0591,-0.41001 1.5316,-2.75 -0.341,-1.5125 -0.9049,-7.70313 -1.2532,-13.75696 -0.6472,-11.24965 1.5517,-29.91095 5.114,-43.4003597 0.9544,-3.61403 1.1125,-5.99672 0.4768,-7.18453 -1.1515,-2.15158998 0.2948,-6.46045 3.2147,-9.57789 1.6816,-1.79533 2.0584,-3.6343603 2.1834,-10.6572403 0.083,-4.66813 -0.1835,-8.82634 -0.5925,-9.24048 -1.6317,-1.65244 -9.0203,1.80775 -13.2206,6.19145 -3.2345,3.37569 -5.6214,4.84341 -9.5712,5.88534 -6.4386,1.69848 -7.2507,2.45861 -7.4061,6.9321303 -0.1445,4.16092 -1.5422,5.88575 -4.0041,4.94105 -1.4779,-0.56715 -1.6978,-1.53831 -1.2957,-5.72339 0.6074,-6.3206303 4.1882,-9.8610503 12.3833,-12.2434303 3.6288,-1.05492 6.6812,-2.74096 8.4315,-4.65731 1.5292,-1.67422 5.1063,-3.80366 8.0817,-4.81092 4.9494,-1.67555 5.3161,-2.01757 5.035,-4.69704 -0.1667,-1.58945 0.6223,-5.23768 1.7533,-8.10718 2.5848,-6.5575 2.5824,-8.61737 -0.013,-11.21272 -1.9657,-1.9657 -2.1971,-1.98582 -4.6155,-0.40125 -2.2789,1.49321 -2.7056,1.50864 -4.0673,0.14702 -0.8768,-0.87679 -1.2423,-2.24782 -0.863,-3.23644 0.548,-1.42808 1.556,-1.62257 6.0211,-1.16173 4.8936,0.50507 5.3199,0.38881 4.8708,-1.32841 -0.4203,-1.60733 -1.1694,-1.80257 -5.1344,-1.33811 -10.4705,1.22653 -36.4702,11.10728 -48.7026,18.50864 -6.1198,3.70285 -24.3203,19.52262 -26.7807,23.27757 l -1.5431,2.35517 6.8741,0.67737 c 7.654,0.7542 13.5101,3.82995 13.5101,7.09579 0,2.5220303 -3.2806,3.1561103 -4.8964,0.9463903 -0.9559,-1.3073103 -3.334,-1.8222903 -10.2307,-2.2155203 l -8.9852,-0.51232 -2.6573,5.9213003 c -5.5368,12.33755 -6.9631,24.1811497 -4.1929,34.8164697 1.9999,7.67838 4.4499,11.5088 10.7841,16.86009 3.9769,3.35988 6.2846,4.51985 9.946,4.99948 l 4.7676,0.62453 -2.1523,-2.9111 c -1.9916,-2.6938 -2.0567,-6.05549 -0.1172,-6.05549 2.3273,0 8.7172,8.76264 13.8198,18.95153 6.3288,12.63742 11.0494,18.10634 24.5321,28.42088 4.1896,3.20519 10.0852,8.84827 13.1013,12.540159 5.6366,6.89958 10.917,10.25022 20.8378,13.22258 3.3328,0.99852 6.5139,3.46044 13.4065,10.37531 7.2522,7.27577 10.8217,9.98435 18.0755,13.71577 16.1231,8.29401 30.5311,10.7208 42.5298,7.16347 7.5376,-2.23472 11.6979,-4.50594 19.0251,-10.38641 6.544,-5.25191 9.4564,-5.97454 9.3372,-2.31675 -0.061,1.87827 0.749,2.2444 7,3.16335 9.4058,1.38273 15.1168,0.0906 21.8026,-4.93306 6.54,-4.91405 11.698,-5.25029 19.6619,-1.28173 5.8719,2.9261 10.0265,7.88675 12.7225,15.19076 2.2189,6.01136 10.1636,16.8932 16.4794,22.57163 11.0961,9.97633 26.2464,13.74779 40.4082,10.0591 z m -73.1134,-53.49347 c -1.2939,-0.4871 -2.356,-2.03338 -2.75,-4.00338 -1.0431,-5.21529 -0.7533,-22.716279 0.5505,-33.247799 1.0572,-8.53969 0.9998,-10.57908 -0.4501,-15.99029 -1.7335,-6.46974 -1.0941,-9.08836 1.6608,-6.80199 3.0353,2.51903 4.0316,11.24716 2.55,22.33767 -1.7248,12.91039 -1.7441,25.872419 -0.048,31.916649 1.5859,5.6504 1.2751,6.83904 -1.5135,5.78914 z m -106.0561,-3.19095 c -1.7247,-1.22531 -4.5934,-4.36365 -6.3747,-6.97409 -2.6378,-3.8655 -3.4343,-6.3237 -4.292,-13.24684 -0.5792,-4.675319 -0.7343,-8.819479 -0.3445,-9.209249 1.4565,-1.45654 2.7073,1.47628 3.5743,8.380899 1.1,8.76028 3.0918,12.268 9.8776,17.3952 5.1069,3.85863 5.9326,5.88192 2.4003,5.88192 -0.9378,0 -3.1162,-1.00253 -4.841,-2.22784 z m 74.7549,-24.676999 -2.4092,-1.84394 2.0776,-3.37561 c 1.1426,-1.85659 3.4188,-6.75062 5.0581,-10.87562 4.911,-12.35766 10.0821,-19.96234 16.6595,-24.5 3.1889,-2.2 6.5769,-5.4575 7.5289,-7.23888 3.8112,-7.13143 5.9943,-7.70847 5.9943,-1.58446 0,3.78365 -1.0561,5.02161 -13.2724,15.55812 -5.6649,4.88596 -5.5254,4.63301 -13.7146,24.86775 -1.6923,4.1814 -3.625,8.33019 -4.2949,9.21955 -1.1145,1.47953 -1.4229,1.46024 -3.6273,-0.22691 z m -113.3662,-59.847 c -3.5053,-3.87329 -5.0394,-12.24817 -2.2437,-12.24817 0.8146,0 1.7521,1.2375 2.0836,2.75 1.0228,4.66782 1.3276,5.25 2.7491,5.25 0.757,0 2.2177,-0.92964 3.246,-2.06587 2.0922,-2.31183 2.1471,-5.39658 0.4039,-22.6962897 -0.7444,-7.38746998 -0.7212,-11.42397 0.083,-14.4096 1.3731,-5.0993603 3.7253,-8.8282403 5.5688,-8.8282403 1.9346,0 1.7258,2.69885 -0.4523,5.8456303 -2.7048,3.90771 -3.2131,5.89172 -2.1953,8.56882002 1.2282,3.23024998 3.0143,16.66520968 3.218,24.20496968 0.2007,7.42572 -1.5283,11.98942 -5.2766,13.92774 -3.6716,1.89865 -5.2551,1.83275 -7.1843,-0.29899 z m 132.7754,-10.77979 c -13.9909,-11.40673 -18.8811,-14.18785 -32.4413,-18.4499397 -14.0403,-4.41298 -17.2893,-6.14301 -15.3084,-8.15137998 2.5514,-2.58672002 24.5925,5.59656998 36.288,13.47278968 6.2594,4.21532 21.9617,17.69227 21.9617,18.84924 0,2.0062 -3.0824,0.32682 -10.5,-5.72071 z M 655.91606,4.6894713 c -3.5807,-1.04154 -7.4687,-4.41320998 -7.4687,-6.47685 0,-2.00938 1.939,-1.81936 5.5,0.53896 2.0322,1.34588002 4.6936,1.98895002 8.25,1.99341002 4.4821,0.006 5.25,0.28346998 5.25,1.89959998 0,3.082 -4.9488,3.95958 -11.5313,2.04488 z m -29.162,-19.7413303 c -4.7712,-4.91637 -10.1568,-15.74642 -8.6031,-17.30012 1.7869,-1.78698 5.2964,0.73151 5.2964,3.80089 0,1.44482 1.1352,4.56397 2.5226,6.93144 1.9423,3.31436 3.4468,4.58139 6.5405,5.50828 4.6368,1.38923 5.0751,4.17122 0.7363,4.67378 -2.0349,0.2357 -3.6043,-0.63794 -6.4927,-3.61427 z m 61.1933,-7.19656 c -0.964,-1.55975 0.1931,-2.68862 3.4166,-3.33332 2.5736,-0.51471 2.9988,-1.08301 3.2708,-4.37084 0.2192,-2.6497 0.8356,-3.87833 2.0626,-4.11085 1.4076,-0.26675 1.75,0.38251 1.75,3.31861 0,5.81223 -8.1054,12.37096 -10.5,8.4964 z m -25,-10.50626 c -0.55,-0.1916 -3.5358,-1.05361 -6.6351,-1.91557 -6.926,-1.92625 -19.8649,-10.25342 -19.8649,-12.78457 0,-2.91587 2.8432,-2.08102 9.2086,2.70398 4.1307,3.10507 8.6284,5.32234 14.5268,7.16137 7.6503,2.38525 8.3523,2.80376 6.713,4.00242 -1.8714,1.36841 -2.2067,1.4391 -3.9484,0.83237 z m 225.0354,-5.86744 c -2.9481,-2.94813 -7.5354,-11.85207 -7.5354,-14.6263 0,-1.13657 1.1358,-4.30785 2.524,-7.04729 2.8155,-5.55605 3.3029,-9.7249 2.1286,-18.20271 -0.9251,-6.67828 0.5698,-7.8553 2.8985,-2.28212 2.0032,4.79435 1.8121,11.76904 -0.5719,20.87065 -2.1991,8.39601 -2.0958,8.95724 2.8482,15.48071 2.1818,2.87883 2.6395,3.09787 3.4493,1.65086 0.5135,-0.91761 0.6909,-2.88246 0.3941,-4.36634 -0.6799,-3.39926 0.5168,-5.4053 2.9491,-4.94384 3.3107,0.62812 3.1719,10.90547 -0.1928,14.27015 -2.2771,2.27712 -6.162,1.92594 -8.8917,-0.80377 z m -191.18,-3.14249 c -0.32,-0.8339 -0.2806,-3.92726 0.088,-6.87412 0.7096,-5.67915 9.6821,-23.30236 15.7713,-30.97695 3.4768,-4.38195 6.7857,-13.94679 6.7857,-19.61485 0,-2.554701 0.5223,-4.004311 1.5903,-4.414151 2.8566,-1.09619 3.6628,0.43063 2.973,5.630451 -1.036,7.81018 -5.0284,17.22061 -13.0524,30.76581 -5.8653,9.90119 -7.5477,13.64348 -8.0919,18 -0.3778,3.025 -1.0925,6.2875 -1.5882,7.25 -1.1079,2.15152 -3.6878,2.2863 -4.4754,0.23381 z m -1.3492,-33.47219 c -2.352,-4.39484 2.9,-40.316511 6.1958,-42.376871 3.0861,-1.9292 3.2802,0.37181 0.7739,9.1739 -2.027,7.11891 -2.426,10.500551 -2.2052,18.691351 0.2776,10.3007 -0.5387,15.58933 -2.5075,16.24561 -0.6203,0.20675 -1.6359,-0.57354 -2.257,-1.73399 z m 188.3976,-19.51819 c -3.0719,-4.6882 -1.6604,-12.493431 2.2592,-12.493431 0.9834,0 1.3984,1.14952 1.354,3.75 -0.035,2.0625 0.2132,5.148371 0.5521,6.857481 0.8251,4.16145 -1.8737,5.38339 -4.1653,1.88595 z M 731.79786,-198.77737 c -1.3401,-3.49222 0.3262,-13.18301 3.394,-19.73867 1.7327,-3.70281 3.6241,-6.73238 4.203,-6.73238 1.6124,0 1.2805,2.15626 -1.4475,9.40377 -1.647,4.37573 -2.5,8.68125 -2.5,12.61906 0,4.70082 -0.327,5.97717 -1.5314,5.97717 -0.8422,0 -1.7954,-0.68803 -2.1181,-1.52895 z m -37.6955,-21.29979 c -1.7786,-1.96535 -2.2637,-6.17126 -0.7117,-6.17126 0.5188,0 1.5313,0.83544 2.25,1.85654 0.7187,1.0211 2.3192,2.17642 3.5567,2.56739 1.2375,0.39096 2.25,1.35552 2.25,2.14346 0,2.0959 -5.3509,1.80731 -7.345,-0.39613 z m 38.345,-22.90912 c -2.1674,-1.09125 -3.6216,-2.61877 -3.8195,-4.01214 -0.3669,-2.58325 0.9986,-2.94411 2.8228,-0.746 0.6865,0.82719 2.6542,1.8683 4.3725,2.31356 3.2146,0.833 4.292,3.44031 1.6242,3.93088 -0.825,0.15171 -3.075,-0.51713 -5,-1.4863 z m 82.1213,-5.03551 c -1.6024,-2.99415 -4.2718,-14.39206 -3.7121,-15.85047 0.9943,-2.59122 2.5138,-1.37609 3.5935,2.87384 0.5939,2.3375 1.9216,6.35214 2.9505,8.92141 1.0289,2.56928 1.6103,4.93178 1.2921,5.25 -1.1408,1.14083 -3.192,0.54656 -4.124,-1.19478 z m -21.1107,-19.7139 c -1.3463,-1.62219 -0.7126,-4.51273 0.9894,-4.51273 0.5845,0 1.2995,0.61681 1.5888,1.3707 0.379,0.98777 1.7671,1.2308 4.9686,0.86994 3.5204,-0.3968 4.4426,-0.18659 4.4426,1.01268 0,2.82425 -9.8334,3.85719 -11.9894,1.25941 z M 373.47739,131.50159 c 4.88207,-2.46635 8.96996,-7.68665 8.96996,-11.4548 0,-1.32497 -2.7,-16.08282 -6,-32.795209 -6.40551,-32.43981 -6.75013,-36.3323 -4.98361,-56.28915 0.70477,-7.96197 1.74398,-13.11965 3.52604,-17.5 2.42399,-5.9582497 5.45757,-16.2966197 5.45757,-18.5992997 0,-0.60487 -3.78497,-3.54148 -8.41105,-6.5258003 -13.67049,-8.81896 -17.16897,-17.73293 -12.7149,-32.397 2.84531,-9.36757 4.24461,-10.77073 12.86487,-12.90037 l 7.23893,-1.78838 -5.51281,-6.18714 c -3.03205,-3.40293 -8.65207,-8.47044 -12.48893,-11.26114 -3.83686,-2.7907 -6.97611,-5.46388 -6.97611,-5.94041 0,-0.47653 0.64071,-1.39816 1.42379,-2.04807 3.00394,-2.49304 9.63704,2.70501 31.07621,24.35294 21.39973,21.60812 27.33059,26.45943 40.3678,33.02 l 7.3678,3.70761 -0.48176,-3.8219 c -0.82501,-6.54495 1.1687,-22.97344 3.7981,-31.29697 l 2.51442,-7.95954 -2.41126,-3.81968 c -4.2295,-6.69997 -8.33605,-15.48623 -11.56571,-24.7457 -1.72654,-4.95 -3.32868,-9.536021 -3.56031,-10.191151 -0.28609,-0.80917 -9.45457,1.82416 -28.59041,8.211621 l -28.16927,9.40278 -2.8847,-2.8847 c -2.53773,-2.53773 -2.8847,-3.60545 -2.8847,-8.87697 l 0,-5.992271 28.75,-9.37982 28.75,-9.37981 -0.35464,-7.95484 c -0.19504,-4.37516 -0.72814,-8.65781 -1.18465,-9.517 -1.92774,-3.62815 -19.92644,-6.19111 -28.43391,-4.0489 -3.70322,0.93248 -7.05414,0.84543 -16.82548,-0.4371 -20.25369,-2.65838 -26.09422,-1.02483 -34.01652,9.51417 -6.07452,8.0809 -7.11932,12.79518 -5.27962,23.82247 2.52076,15.109621 2.83811,18.943121 1.63002,19.689761 -0.61755,0.38167 -1.7781,0.1501 -2.57901,-0.51459 -1.2371,-1.02671 -1.45667,-0.55069 -1.45939,3.16391 -0.002,2.40484 -0.71721,8.42244 -1.58991,13.37244 -0.8727,4.95 -1.63474,15.075 -1.69343,22.5 -0.12092,15.29654 1.00048,22.28246 7.78533,48.5000003 2.41969,9.35 4.68918,19.2499997 5.04331,21.9999997 0.81892,6.35927 -1.13958,33.12086 -2.79055,38.13096 -1.43753,4.3624 -2.61775,5.05295 -15.19397,8.89003 -4.91833,1.50061 -11.7057,4.24728 -15.08304,6.1037 -7.38742,4.06063 -14.47454,4.73402 -14.47454,1.37531 0,-1.22811 0.67541,-2.01012 1.75,-2.02622 0.9625,-0.0144 3.55,-0.86267 5.75,-1.88499 l 4,-1.85876 -3.96967,-1.72022 c -5.97901,-2.59095 -10.34336,-2.40394 -12.58693,0.53933 -1.02752,1.34797 -2.15756,3.80086 -2.51121,5.45086 -0.35365,1.65 -1.82884,4.26263 -3.27819,5.80585 -2.31804,2.46815 -2.6462,3.67167 -2.72669,10 l -0.0915,7.19415 5.75449,5.64913 c 7.50247,7.365119 16.51451,11.819539 26.02505,12.863529 8.5915,0.94312 19.26695,5.97883 30.79422,14.52593 4.07526,3.02168 9.47526,6.13029 12,6.90804 7.23674,2.22927 15.89396,1.94373 21.12047,-0.69662 z m -7.91952,-42.116839 c -1.30195,-1.56876 -3.72113,-27.59956 -2.79038,-30.02506 1.44638,-3.7692 2.67986,-1.24905 2.67986,5.47528 0,3.89586 0.92499,10.70621 2.05553,15.1341 1.98389,7.77012 2.01135,10.78251 0.0983,10.78251 -0.49992,0 -1.41941,-0.61507 -2.04331,-1.36683 z m -33.11052,-1.52793 c -1.375,-0.38248 -2.5,-1.27224 -2.5,-1.97725 0,-0.89802 2.01083,-1.33366 6.71554,-1.45491 8.97817,-0.23139 10.28446,-1.54908 10.28446,-10.37421 0,-9.59909 2.12332,-9.49766 3.02687,0.14459 0.57263,6.11084 0.40104,8.01762 -0.90024,10.00362 -2.4355,3.71705 -10.241,5.4344 -16.62663,3.65816 z m 19.99156,-58.35524 c -5.41275,-8.88887 -12.12253,-33.2536997 -14.1648,-51.43585 -2.07264,-18.45246 1.69042,-43.15623 7.62399,-50.05003 1.30851,-1.52026 2.61661,-2.5274 2.90688,-2.23808 0.29028,0.28932 -1.00158,5.01432 -2.87079,10.5 -5.13057,15.05695 -5.8554,21.42131 -4.03409,35.42097 2.51097,19.3008403 5.24387,30.4890603 11.04959,45.23594 3.02949,7.69508 5.25424,14.4019 4.94389,14.90405 -1.14236,1.84838 -3.52859,0.82603 -5.45467,-2.337 z M 341.11402,-112.91509 c -0.36667,-0.36666 -0.66667,-1.94828 -0.66667,-3.5147 0,-3.63608 3.8105,-6.06663 13.06755,-8.33518 6.25115,-1.53193 7.10831,-2.07838 11.09287,-7.07183 2.37503,-2.97639 4.88554,-5.41162 5.57891,-5.41162 2.56074,0 1.22581,5.53275 -2.53342,10.5 -3.55036,4.69126 -4.12122,5.03688 -9.24496,5.59721 -7.84887,0.85835 -9.46789,1.56757 -12.42306,5.442 -2.64725,3.47073 -3.63058,4.03476 -4.87122,2.79412 z m 181.45047,218.10805 c 11.60442,-5.807239 20.93783,-10.702539 20.74091,-10.878449 -0.19693,-0.1759 -6.36138,-3.99703 -13.69879,-8.49139 -7.3374,-4.49436 -16.8999,-10.40214 -21.25,-13.12841 l -7.90926,-4.95684 0,24.00686 c 0,13.203769 0.22909,24.006859 0.50909,24.006859 0.28,0 10.00362,-4.75139 21.60805,-10.55863 z m 63.54257,-59.396319 c -11.8198,-13.08307 -13.58175,-33.63863 -4.6058,-53.7325097 9.4746,-21.2102003 31.3014,-39.5303503 61.4873,-51.6089703 10.2674,-4.10837 23.7657,-8.18285 29.4588,-8.89212 2.5511,-0.31783 2.684,-0.91559 1.4558,-6.5493 -0.5604,-2.57086 -4.8583,-4.96815 -14.7203,-8.21074 -8.1394,-2.67619 -14.7049,-7.43361 -21.7164,-15.73585 -7.8219,-9.261831 -11.9446,-10.714741 -21.9619,-7.739911 -4.0251,1.19532 -5.5776,1.29513 -6.4315,0.41348 -0.8395,-0.86674 -0.611,-1.56769 0.8988,-2.75724 1.9596,-1.54386 1.6992,-1.84232 -8.1168,-9.30205 -12.1661,-9.24569 -15.9647,-10.43084 -28.42511,-8.86844 -8.31741,1.04292 -16.1692,3.51259 -21.4742,6.75441 l -2.9916,1.82814 -0.0565,11.18384 -0.0565,11.183851 3.59029,-3.50583 c 3.4656,-3.384111 8.00591,-4.720721 8.00591,-2.356841 0,0.63194 -1.60572,2.708431 -3.56826,4.614431 -3.1771,3.08556 -6.03309,7.96857 -5.16715,8.83451 0.1763,0.17631 3.00139,-0.38047 6.27798,-1.23727 11.40797,-2.98309 23.95744,-0.24163 23.95744,5.23358 0,2.93391 -3.4045,2.87147 -6.5266,-0.11971 -3.48255,-3.33649 -5.57478,-3.14329 -19.29057,1.78126 l -9.81716,3.52479 -3.2814,9.54664 c -8.28077,24.0914 -21.80393,37.70836 -40.51786,40.7989 -18.02734,2.97715 -37.19881,-6.15497 -53.14332,-25.31424 l -4.84373,-5.82033 -0.995,3.75423 c -3.92239,14.79954 -4.48618,29.75773 -1.61708,42.90382 1.66125,7.6117603 1.96753,8.1873703 4.64105,8.7220803 5.58598,1.11719 22.45451,8.89947 26.60201,12.2728 5.7894,4.7087497 9.07363,5.8957797 21.78965,7.8754697 14.91758,2.32244 19.48787,4.24477 30,12.61841 9.17536,7.30881 18.84319,12.43267 32.82147,17.39506 7.40758,2.62974 8.04679,2.69768 13.36923,1.42084 5.14432,-1.2341 6.03671,-1.17278 11.19951,0.76966 7.6799,2.88944 7.8344,2.82059 3.7695,-1.67885 z M 563.311,40.501581 c -0.66369,-1.2375 -1.70245,-6.25285 -2.30835,-11.14522 l -1.10163,-8.89522 -4.47684,-1.15733 c -7.12539,-1.84203 -18.97683,-10.0734097 -18.97683,-13.1802997 0,-2.68363 1.98537,-2.20407 6.57429,1.588 4.24964,3.5116897 10.84434,6.0400697 15.75416,6.0400697 0.76486,0 1.70102,-2.99334 2.47547,-7.9151897 1.50452,-9.5617 3.70494,-16.1771603 8.63918,-25.9732903 l 3.72152,-7.38848 -6.28933,0.71156 c -11.73806,1.32801 -19.65867,6.41013 -26.5167,17.0139703 -10.4769,16.19931 -10.80116,16.61104 -12.85859,16.32728 -1.2018,-0.16576 -2.12745,-1.17317 -2.31933,-2.5242 -0.38353,-2.70027 -4.61415,-4.08653998 -7.31803,-2.39794 -4.574,2.85651 -13.62562,-0.31315 -20.86264,-7.30559 -2.475,-2.39135 -7.08792,-5.9820603 -10.25093,-7.9793403 -9.12834,-5.76409 -25.79963,-13.56878 -28.98374,-13.56878 -2.2401,0 -2.83115,-0.40378 -2.56166,-1.75 0.58072,-2.90095 8.9387,-2.15943 18.29633,1.62324 11.10185,4.48774 20.80513,10.43339 28.0949,17.21505 7.15641,6.6575803 10.17403,7.7210003 20.20111,7.1189103 l 7.29602,-0.43809 5.28203,-7.1345603 c 6.01236,-8.12102 15.17678,-16.86161 20.50801,-19.55957 4.7456,-2.40158 8.53099,-3.16551 16.2262,-3.27462 5.58994,-0.0793 6.56554,-0.39492 8.32954,-2.69507 11.4659,-14.95099 33.1307,-30.93071 51.5622,-38.03159 13.2599,-5.10851 25,-6.35842 25,-2.66164 0,1.63433 -2.1563,2.58794 -5.8519,2.58794 -4.5487,0 -16.9197,3.86112 -24.4691,7.63704 -18.3828,9.1944 -40.7884,29.33801 -47.9098,43.07301 -3.60724,6.95731 -8.84534,21.8800903 -10.80767,30.7899503 -1.66226,7.5474397 -1.29351,19.1422497 0.84279,26.4999997 1.03799,3.575 1.69415,7.0625 1.45813,7.75 -0.72913,2.12387 -5.08883,1.44253 -6.39881,-1 z m 181.83876,-52.94617 c 3.8593,-3.74051 3.9495,-4.59608 1.2976,-12.30383 -2.3557,-6.84713 -2.5237,-11.31078 -0.599,-15.91734 l 1.4011,-3.3531 -3.6511,-0.60377 c -2.008,-0.33208 -5.056,-0.60873 -6.7732,-0.61478 -2.8766,-0.0101 -3.1729,0.30653 -3.7677,4.02612 -0.7219,4.5142 1.4004,14.10282 4.4401,20.06112 1.0432,2.04502 2.1913,5.55951 2.5511,7.80998 0.3599,2.25048 0.9129,4.0917703 1.2289,4.0917703 0.316,0 2.0585,-1.4382803 3.8722,-3.1961703 z m 94.2976,-15.33716 c 0,-2.71618 -0.8234,-4.35675 -3.5604,-7.09372 -1.9582,-1.95821 -4.0842,-4.75571 -4.7244,-6.21666 -0.7884,-1.79904 -1.1803,-11.53127 -1.2144,-30.15629 l -0.05,-27.5 -5.6193,-11.000001 c -3.0905,-6.05 -6.3419,-13.44418 -7.2252,-16.4315 -1.8588,-6.28669 -2.1737,-23.81986 -0.5781,-32.18201 2.3954,-12.55301 2.8711,-22.52961 1.4089,-29.54987 -3.1529,-15.13854 -11.9054,-26.60522 -21.2725,-27.86917 -9.4053,-1.2691 -11.1638,-2.26998 -13.7512,-7.82692 -1.3164,-2.82729 -2.3979,-5.75117 -2.4032,-6.49752 -0.01,-0.74634 -0.5723,-1.14566 -1.2598,-0.88736 -0.6875,0.25829 -5.8847,1.98439 -11.5493,3.83578 l -10.2992,3.36615 0.5926,3.52121 c 0.5147,3.05826 -0.3083,5.09892 -6.2599,15.52121 -3.7688,6.6 -8.2724,15.6 -10.0078,20 l -3.1554,8 -0.2855,32.5 -0.2855,32.5 3.3732,10 c 4.9208,14.587761 4.7841,22.089431 -0.6919,37.961831 -2.2647,6.56432 -4.0021,12.05071 -3.8608,12.19197 0.1412,0.14126 7.2144,0.74055 15.7181,1.33175 21.7556,1.51249 40.9915,4.97184 48.417,8.70723 1.6744,0.84229 5.0694,3.20837 7.5444,5.25795 5.9321,4.91246 7.1692,5.49019 16,7.47196 4.125,0.92572 8.85,2.29777 10.5,3.049 4.3248,1.96906 4.5,1.89102 4.5,-2.00502 z m -329.01759,-9.73015 c 14.38927,-5.37617 26.94768,-26.37779 31.03695,-51.90358 1.80833,-11.287911 0.8161,-35.736681 -1.97935,-48.771491 -8.04783,-37.52592 -27.90365,-68.45585 -51.54002,-80.28523 -16.42155,-8.21856 -33.12861,-5.34212 -45.44509,7.82423 -14.24195,15.2247 -21.71008,43.189 -19.11847,71.58885 0.61197,6.70624 1.24607,12.32654 1.4091,12.48957 0.16303,0.16304 7.68948,-2.18363 16.72544,-5.21481 27.71485,-9.29714 25.38856,-8.87749 29.44889,-5.31247 2.78753,2.44749 3.48013,3.78675 3.48013,6.7295 0,6.55961 -1.33382,7.40071 -23.24801,14.65998 -11.1386,3.68977 -20.67841,7.10139 -21.19959,7.5814 -1.15699,1.06558 2.35977,12.379631 7.04072,22.651311 8.30121,18.2158 25.26097,38.23259 38.16954,45.04966 11.95639,6.31422 23.55005,7.27315 35.21976,2.91308 z m -8.49043,-3.74949 c -0.34433,-0.55713 2.09069,-3.72971 5.41115,-7.05017 6.68156,-6.68156 11.93383,-16.21737 14.83666,-26.93686 2.48718,-9.18457 2.46722,-39.597871 -0.0348,-53.000001 -4.2845,-22.95025 -10.85879,-42.92204 -18.43401,-56 -2.07077,-3.575 -7.36638,-10.13718 -11.76802,-14.58262 -8.41989,-8.50366 -14.84831,-12.38667 -24.00299,-14.4987 -6.22041,-1.43509 -7.74373,-2.14582 -7.32722,-3.41868 0.17997,-0.55 2.72057,-0.94578 5.64577,-0.87951 11.17609,0.25318 27.94902,11.46064 37.13643,24.81407 16.49932,23.98095 28.03022,72.31784 25.00655,104.826091 -1.75432,18.86119 -7.77507,32.84533 -18.61171,43.22866 -4.71341,4.51623 -6.68576,5.39418 -7.85783,3.49772 z m 174.37052,-70.137871 c 1.0915,-4.59204 5.169,-18.39973 9.061,-30.68376 3.8921,-12.28403 7.0658,-23.75903 7.0528,-25.5 -0.031,-4.1481 -3.7564,-13.04439 -7.7743,-18.56544 -2.2719,-3.12188 -3.202,-5.50627 -3.202,-8.20823 l 0,-3.80819 -30.75,10.59105 c -16.9125,5.82508 -43.8,14.8742 -59.75,20.10917 -15.95001,5.23496 -29.20276,9.69044 -29.45057,9.90107 -0.24781,0.21063 4.92016,5.76771 11.48437,12.34906 8.3549,8.37675 12.6265,11.96611 14.2404,11.96611 1.268,0 4.2,0.9582 6.5156,2.12932 4.3371,2.19351 17.962,11.40435 23.1311,15.63725 2.3197,1.8996 3.6195,2.26083 6.3153,1.75509 5.138,-0.96389 10.5178,2.20096 20.7638,12.215 7.8956,7.716901 10.1657,9.308341 18.5,12.969591 l 9.5,4.17334 1.1889,-9.34064 c 0.654,-5.13735 2.0821,-13.097761 3.1736,-17.689791 z m -307.60984,17.292641 c 0.56403,-2.15686 -1.7118,-8.141801 -3.09599,-8.141801 -1.83292,0 -2.29232,5.144051 -0.67926,7.605891 1.88232,2.87278 3.11826,3.04823 3.77525,0.53591 z m 101.06034,-33.917261 c 1.06422,-2.38501 -1.33791,-7.22454 -3.58596,-7.22454 -0.67476,0 -22.95818,7.24375 -49.51871,16.09722 -35.10091,11.70025 -48.03175,16.4121 -47.33959,17.25 0.52375,0.63403 1.25826,2.790351 1.63224,4.791821 l 0.67996,3.63905 48.58504,-16.198821 c 40.11308,-13.37418 48.75278,-16.57476 49.54702,-18.35473 z m 84.21875,-0.34161 c 2.63229,-1.16439 8.52496,-2.87405 13.09483,-3.79924 l 8.30883,-1.68217 -10.72096,-10.68773 -10.72097,-10.68773 -5.30275,1.69576 c -4.47321,1.43047 -5.22698,2.01507 -4.81839,3.73696 0.2664,1.12267 1.29064,6.87872 2.27609,12.79122 0.98545,5.9125 2.08548,10.75 2.44452,10.75 0.35904,0 2.8065,-0.95268 5.4388,-2.11707 z m 59.21825,-51.31895 68.25,-22.73061 -0.015,-3.66669 c -0.01,-2.01667 -0.3697,-4.22461 -0.8028,-4.90653 -0.5863,-0.92316 -18.3987,4.63112 -69.7346,21.74466 -37.92104,12.64148 -69.4899,23.19015 -70.15308,23.4415 -0.91198,0.34563 -0.82296,1.58049 0.36537,5.06805 0.86643,2.54283 2.08008,4.42474 2.70578,4.19565 0.62405,-0.22848 31.84713,-10.64419 69.38463,-23.14603 z m 64.6852,-36.4592 c 0.3043,-0.49236 -0.1191,-1.15324 -0.9409,-1.46861 -0.9077,-0.3483 -1.4943,0.003 -1.4943,0.89521 0,1.61739 1.5626,1.98533 2.4352,0.5734 z m 112.298,-23.49593 c 1.5811,-1.47013 -0.2704,-8.99032 -2.0524,-8.33644 -0.6494,0.2383 -8.96,3.01743 -18.4679,6.17585 -18.8803,6.27183 -17.7126,5.32686 -15.127,12.24144 0.8145,2.17838 0.9057,2.16094 17.6164,-3.37223 9.2388,-3.05906 17.3527,-6.07794 18.0309,-6.70862 z m 283.23304,5.82584 c 12.6232,-5.66493 24.0236,-22.5068 29.7398,-43.93469 2.4413,-9.15139 2.6691,-11.61236 2.6851,-29 0.019,-20.94518 -1.5315,-31.07497 -7.4891,-48.92039 -12.4226,-37.21043 -39.9037,-62.04796 -63.7905,-57.65406 -8.2392,1.51556 -13.2072,4.10598 -19.7597,10.30309 -14.4381,13.65497 -22.43834,37.39158 -22.41404,66.50258 0.01,8.0036 0.2202,14.7601 0.4745,15.01444 0.2544,0.25435 10.72844,-2.95938 23.27564,-7.14161 12.5472,-4.18222 23.5603,-7.60405 24.4737,-7.60405 3.0837,0 6.8384,5.74012 6.8384,10.45429 0,2.36545 -0.5625,4.74771 -1.25,5.29389 -0.6875,0.54619 -11.9911,4.53879 -25.1192,8.87244 -13.128,4.33366 -24.09144,8.44891 -24.36304,9.14501 -0.7258,1.86043 4.34054,17.50423 8.69664,26.8532 5.0468,10.83129 10.9231,19.35865 19.3932,28.14229 8.121,8.42156 14.3591,12.69892 22.4044,15.36226 7.949,2.63149 18.0244,1.9822 26.2042,-1.68869 z m -9.493,-3.47813 c -0.3547,-0.57389 2.4988,-4.35299 6.3412,-8.39798 16.4137,-17.27941 21.186,-41.78971 15.5878,-80.05858 -6.6988,-45.79231 -24.1239,-73.43973 -49.6031,-78.70238 -4.647,-0.95981 -5.7991,-1.58095 -5.7991,-3.12652 0,-1.7424 0.5073,-1.86613 5.25,-1.28052 2.9594,0.3654 8.8102,2.38665 13.4099,4.6326 20.7388,10.12654 34.9807,37.04535 40.7261,76.97682 5.9134,41.09927 0.2874,68.56106 -17.5271,85.55318 -5.7921,5.52479 -7.227,6.27824 -8.3857,4.40338 z m -115.72324,-54.43955 c 88.65884,-29.59859 95.25004,-31.95464 95.25004,-34.04725 0,-1.2365 -0.7875,-3.2195 -1.75,-4.40666 l -1.75,-2.15848 -96.00004,32.14757 c -52.8,17.68117 -96.1829,32.32304 -96.4064,32.5375 -0.8215,0.78796 3.2831,8.48076 4.327,8.10987 0.5937,-0.21092 43.9419,-14.69307 96.3294,-32.18255 z m 190.99294,-66.09976 c 31.4584,-10.66857 31.5385,-10.71508 27.755,-16.11684 l -1.5022,-2.14461 -29.6321,9.88975 c -16.2977,5.43936 -29.7632,10.02076 -29.9234,10.18089 -0.753,0.75303 2.1133,8.78002 3.0231,8.46594 0.5702,-0.19684 14.196,-4.82065 30.2796,-10.27513 z"
       id="path3548"
       inkscape:connector-curvature="0" />
  </g>
</svg>
