<?xml version="1.0" encoding="UTF-8" standalone="no"?>
<!-- Created with Inkscape (http://www.inkscape.org/) -->

<svg
   xmlns:dc="http://purl.org/dc/elements/1.1/"
   xmlns:cc="http://creativecommons.org/ns#"
   xmlns:rdf="http://www.w3.org/1999/02/22-rdf-syntax-ns#"
   xmlns:svg="http://www.w3.org/2000/svg"
   xmlns="http://www.w3.org/2000/svg"
   xmlns:sodipodi="http://sodipodi.sourceforge.net/DTD/sodipodi-0.dtd"
   xmlns:inkscape="http://www.inkscape.org/namespaces/inkscape"
   width="532.17114"
   height="899.66425"
   id="svg2"
   version="1.1"
   inkscape:version="0.48.3.1 r9886"
   sodipodi:docname="Leg-lift-2.svg">
  <defs
     id="defs4" />
  <sodipodi:namedview
     id="base"
     pagecolor="#ffffff"
     bordercolor="#666666"
     borderopacity="1.0"
     inkscape:pageopacity="0.0"
     inkscape:pageshadow="2"
     inkscape:zoom="0.7"
     inkscape:cx="497.56371"
     inkscape:cy="588.71278"
     inkscape:document-units="px"
     inkscape:current-layer="layer1"
     showgrid="false"
     fit-margin-top="0"
     fit-margin-left="0"
     fit-margin-right="0"
     fit-margin-bottom="0"
     inkscape:window-width="1855"
     inkscape:window-height="1056"
     inkscape:window-x="65"
     inkscape:window-y="24"
     inkscape:window-maximized="1" />
  <metadata
     id="metadata7">
    <rdf:RDF>
      <cc:Work
         rdf:about="">
        <dc:format>image/svg+xml</dc:format>
        <dc:type
           rdf:resource="http://purl.org/dc/dcmitype/StillImage" />
        <dc:title></dc:title>
      </cc:Work>
    </rdf:RDF>
  </metadata>
  <g
     inkscape:label="Ebene 1"
     inkscape:groupmode="layer"
     id="layer1"
     transform="translate(-278.4732,-448.03585)">
    <path
       style="fill:#000000"
       d=""
       id="path3414"
       inkscape:connector-curvature="0" />
    <path
       style="fill:#000000"
       d=""
       id="path3412"
       inkscape:connector-curvature="0" />
    <path
       style="fill:#000000"
       d="m 589.52463,1169.2105 c -1.451,-0.7571 -3.8052,-1.1535 -5.2315,-0.8808 -7.0898,1.3553 -9.6433,-1.8394 -11.5707,-14.4761 -0.6078,-3.9851 -1.5605,-10.0601 -2.1171,-13.5 -1.3201,-8.1587 0.074,-18.8594 3.2955,-25.3028 1.3618,-2.7233 2.7887,-6.2483 3.1711,-7.8333 1.031,-4.2739 -2.2448,-25.1939 -5.0622,-32.3285 -1.7126,-4.3368 -2.2662,-7.2027 -1.8353,-9.5 l 0.6172,-3.2897 -15.81436,0 c -21.4207,0 -39.2931,-3.8331 -49.8144,-10.6839 -4.3699,-2.8454 -5.8821,-3.2683 -12,-3.3562 -7.9673,-0.1144 -11.6056,-1.6321 -17.1114,-7.138 -6.2144,-6.2144 -7.4831,-10.5248 -8.4457,-28.6953 -0.4698,-8.8696 -1.3171,-21.52657 -1.8828,-28.12657 -1.5044,-17.5538 -1.2976,-27.3716 0.906,-43.0126 1.2648,-8.9773 1.6216,-14.2997 1,-14.9212 -0.5313,-0.5314 -0.9661,-2.2299 -0.9661,-3.7744 0,-3.9985 4.491,-22.4532 6.7632,-27.79176 1.0534,-2.475 3.7887,-9.9494 6.0785,-16.6099 3.9738,-11.559 4.2063,-12.9009 5.1117,-29.49996 1.0385,-19.03824 1.9076,-23.38298 5.541,-27.70107 1.7686,-2.10185 2.5882,-4.59319 3.0534,-9.28105 0.7731,-7.79159 -1.2097,-13.91784 -11.6917,-36.12416 -6.409,-13.57768 -9.7939,-24.19713 -9.8387,-30.86715 -0.028,-4.19502 -1.0205,-4.09921 -6.2511,0.60355 -5.0118,4.50602 -12.1671,7.47978 -17.9975,7.47978 -4.9078,0 -8.7687,-2.74382 -11.0051,-7.821 -1.1336,-2.57345 -3.5858,-6.46692 -5.4493,-8.65215 -4.4119,-5.17354 -6.9129,-13.48855 -5.5418,-18.42479 0.5503,-1.98113 1.0404,-10.53578 1.089,-19.01032 0.134,-23.33976 1.0744,-25.58269 19.1564,-45.68953 12.3017,-13.6792 16.997,-19.7769 23.457,-30.46297 3.9542,-6.54093 4.875,-9.01771 5.5129,-14.82852 0.4732,-4.31126 1.6017,-8.32859 2.9541,-10.51694 2.3347,-3.77749 2.3352,-3.70102 -0.1383,-20.34131 -1.3149,-8.84612 0.3821,-14.45242 5.8201,-19.22702 2.6772,-2.35061 4.4288,-5.55655 7.493,-13.71445 2.1995,-5.85568 5.1243,-13.31994 6.4995,-16.58722 1.3751,-3.26729 2.2891,-6.15167 2.0311,-6.40974 -0.2581,-0.25807 -48.7718,7.86321 -107.8083,18.04728 -67.0286,11.56273 -107.6959,18.16389 -108.2891,17.57758 -0.5995,-0.5925 -0.5487,-1.34018 0.1376,-2.02654 0.8658,-0.86581 512.80176,-89.89657 523.77686,-91.09 3.3643,-0.36585 4.9658,2.58114 1.8339,3.37479 -0.9891,0.25066 -61.5141,10.75148 -134.5,23.33515 -111.08226,19.15196 -132.51496,23.10422 -131.55626,24.25935 0.6298,0.75897 1.4553,4.01018 1.8344,7.2249 0.379,3.21472 2.6544,11.27579 5.0563,17.91348 4.1991,11.60408 4.4916,12.09196 7.6001,12.67733 2.8344,0.53376 3.8688,0.037 8.3927,-4.03033 5.56856,-5.00665 16.49986,-10.73098 24.11616,-12.62878 2.7169,-0.677 8.9228,-1.01359 14.5333,-0.78825 8.2069,0.32964 10.7192,0.84715 15.5234,3.19761 8.406,4.11268 17.6104,13.65568 22.2756,23.09521 3.4376,6.95534 3.8843,8.74162 4.2296,16.91196 0.319,7.54919 0.013,10.12512 -1.7626,14.83685 -2.3415,6.21341 -9.504,14.95215 -14.2792,17.42151 l -2.9781,1.54001 5.5666,4.96143 c 7.9658,7.09981 12.1043,15.77781 12.0644,25.29797 -0.035,8.35202 -1.2025,10.96955 -9.5206,21.3446 -3.5415,4.41729 -6.2451,8.9271 -6.8941,11.5 -3.6773,14.57833 -6.1325,20.70711 -9.9238,24.77295 -2.875,3.08314 -4.723,6.59808 -7.005,13.32392 -4.4596,13.14356 -7.5218,19.13421 -12.5023,24.45879 -5.4435,5.81947 -7.1366,11.83973 -8.0652,28.67719 -0.7617,13.81256 0.4482,23.35224 3.445,27.16206 1.4663,1.86404 2.0512,4.07894 2.0512,7.76704 0,4.15537 0.6694,6.22105 3.4401,10.61514 6.4594,10.24405 7.7937,13.33734 10.676,24.75021 2.3565,9.33077 2.8849,13.54809 2.8893,23.06223 0.01,12.81728 2.9402,35.27758 6.1254,46.88764 1.826,6.656 1.8786,7.5878 0.5131,9.0967 -1.241,1.3712 -1.6202,6.1946 -2.0578,26.17 -1.2713,58.0316 -1.2177,60.73777 1.3711,69.28477 1.8729,6.183 2.6879,7.6706 3.9398,7.1902 3.4582,-1.3271 13.8341,-1.651 17.8661,-0.5578 5.6011,1.5187 10.7082,6.1205 12.7626,11.4998 2.2716,5.948 1.5855,14.2946 -2.3892,29.0658 l -3.2274,11.9938 3.0455,9.1842 c 3.3095,9.9807 3.7868,16.7197 1.5812,22.3281 -0.757,1.925 -2.5319,6.65 -3.9443,10.5 -2.4754,6.7478 -4.5715,9.5 -7.2355,9.5 -0.694,0 -2.676,1.7599 -4.4045,3.9108 -2.0241,2.5187 -5.2341,4.8178 -9.0177,6.4587 -4.7119,2.0434 -5.9961,3.1004 -6.487,5.3392 -0.3367,1.5352 -0.9971,4.0162 -1.4677,5.5134 -0.4962,1.5787 -0.4559,4.0987 0.096,6 1.5105,5.2029 0.245,8.5413 -4.3869,11.5729 -2.2731,1.4878 -4.9461,3.5058 -5.94,4.4844 -1.1003,1.0835 -3.0665,1.7028 -5.0276,1.5837 -1.8558,-0.1128 -4.7039,0.7208 -6.7207,1.9669 -4.088,2.5259 -5.5541,2.6512 -9.1382,0.7812 z m 8.0457,-4.9997 c 0.6338,-0.7637 3.6662,-1.7026 6.7387,-2.0864 4.3285,-0.5409 5.6996,-1.1313 6.0895,-2.6225 0.2768,-1.0584 1.5864,-2.1963 2.9102,-2.5285 2.2818,-0.5727 4.3541,-3.0651 4.3541,-5.2369 0,-0.5469 -0.7306,-1.7249 -1.6236,-2.6179 -1.4981,-1.4981 -1.4594,-2.1235 0.5,-8.0924 3.1765,-9.6763 2.8313,-17.2748 -1.3764,-30.2904 -3.827,-11.8382 -4.1099,-15.4517 -2.4233,-30.9554 1.3004,-11.9534 0.25,-17.0543 -4.4874,-21.7918 -6.4328,-6.4328 -15.1637,-5.7965 -23.0704,1.6813 -5.5395,5.239 -8.0898,6.3034 -7.0189,2.9294 0.4456,-1.404 0.1797,-2 -0.8925,-2 -0.9152,0 -2.0071,1.6019 -2.7248,3.9973 -1.0609,3.5408 -0.9798,4.2369 0.7098,6.0955 1.3854,1.5239 2.6157,6.3831 4.4947,17.7527 2.0946,12.6742 2.7284,15.0358 3.3294,12.4045 0.9125,-3.9952 2.5834,-4.2729 2.5834,-0.4293 0,2.6852 -1.7427,6.4542 -8.5,18.3833 -2.7773,4.903 -2.9935,6.0012 -2.912,14.796 0.1023,11.0352 2.8601,26.7192 5.1432,29.25 1.9737,2.1878 6.5914,2.2712 8.3511,0.1509 1.2535,-1.5104 1.4244,-4.4264 0.7215,-12.3057 -0.2006,-2.2482 0.1749,-3.5684 1.1056,-3.8864 0.9355,-0.3197 1.2142,0.027 0.8291,1.0304 -0.3191,0.8316 0.059,2.7444 0.8406,4.2507 1.609,3.1013 1.843,8.2944 0.4716,10.4624 -0.5053,0.7987 -0.6969,1.8112 -0.4257,2.25 0.8063,1.3046 5.0399,0.9065 6.2825,-0.5908 z m -3.6744,-16.6115 c 0.3643,-1.929 6.1108,-2.5144 9.7768,-0.9958 2.1492,0.8902 3.2369,0.8587 4.836,-0.14 2.497,-1.5594 3.9293,-0.5032 2.1784,1.6065 -1.814,2.1858 -17.2114,1.7542 -16.7912,-0.4707 z m 34.1557,-19.3891 c 3.5805,-1.496 8.6112,-6.3375 8.6112,-8.2873 0,-0.6583 1.4485,-1.3378 3.2188,-1.5102 3.5721,-0.3478 3.9498,-0.9148 8.339,-12.5206 3.1609,-8.3577 3.0175,-11.3621 -1.1982,-25.1202 -3.4999,-11.4218 -3.435,-14.5061 0.5956,-28.3413 3.1938,-10.9627 3.3259,-11.9973 2.1841,-17.0993 -2.7083,-12.1022 -13.3866,-15.7735 -29.2141,-10.0441 -6.5731,2.3793 -8.917,2.6949 -20.4252,2.75 -18.4555,0.088 -24.4911,-1.8926 -35.08406,-11.5143 -8.4786,-7.7011 -13.7694,-10.8076 -22.9541,-13.4777 -7.1572,-2.0806 -20.5,-2.3688 -25.7788,-0.5568 -5.4621,1.875 -5.7505,0.5887 -0.8254,-3.68157 4.252,-3.6867 4.2809,-3.7578 5.1708,-12.7075 0.4921,-4.95 1.1896,-10.0125 1.5498,-11.25 0.3603,-1.2375 0.4009,-2.25 0.09,-2.25 -0.3106,0 -3.2683,2.25 -6.5728,5 -3.3045,2.75 -6.2528,5 -6.5519,5 -2.0894,0 0.847,-3.6961 9.9227,-12.4904 8.4315,-8.17 11.0792,-11.4511 13.6173,-16.8751 1.733,-3.7032 2.9168,-6.9672 2.6307,-7.2532 -0.286,-0.2861 -3.2404,0.015 -6.5652,0.6692 -3.6329,0.7147 -11.1538,1.0164 -18.8473,0.7561 -14.6002,-0.4941 -17.6238,-1.5889 -29.7621,-10.7763 -3.6552,-2.7667 -6.8002,-5.0303 -6.989,-5.0303 -0.1887,0 -1.1477,4.1625 -2.1311,9.25 -2.2969,11.8831 -2.2867,27.4769 0.029,44.75 1.3031,9.7186 1.6295,16.30107 1.1653,23.49997 -0.8401,13.0283 -0.018,18.4167 3.7755,24.7447 3.9808,6.6405 8.5333,9.7553 14.2581,9.7553 3.6854,0 4.3521,-0.3063 4.3521,-2 0,-2.8648 1.0821,-2.5534 9.0586,2.6066 11.4479,7.4056 24.1225,11.7145 42.4414,14.4285 10.7757,1.5965 33.31026,-1.0937 37.99996,-4.5364 7.528,-5.5262 12.768,-6.6828 19.6008,-4.3263 5.4719,1.8871 8.6339,4.7834 10.8523,9.9403 2.9706,6.9052 3.4896,12.6222 2.0055,22.0906 -2.2316,14.2381 -1.8193,19.1316 2.4639,29.2467 2.4097,5.6904 3.8422,10.6976 3.9337,13.7489 0.1591,5.3085 0.2867,5.395 5.0326,3.412 z m 4.6112,-15.9197 c 0,-3.3868 2.3131,-7.7114 3.4933,-6.5312 0.3612,0.3612 0.3469,2.723 -0.032,5.2484 -0.8258,5.5069 -3.4615,6.4836 -3.4615,1.2828 z m -2.7459,-71.2401 c 0.2931,-1.533 -0.1841,-3.378 -1.1972,-4.6291 l -1.6845,-2.0803 -4.8133,2.1292 c -2.6473,1.171 -5.383,2.1291 -6.0792,2.1291 -1.701,0 -2.7733,-2.9933 -1.213,-3.3862 0.6782,-0.1708 2.8081,-0.8964 4.7331,-1.6125 1.925,-0.7161 5.0443,-1.3469 6.9318,-1.4016 2.8669,-0.083 3.748,0.4385 5.3535,3.1699 2.1694,3.691 1.6615,8.2304 -0.9209,8.2304 -1.173,0 -1.4681,-0.6773 -1.1103,-2.5489 z m -95.76716,-8.2498 c -7.7526,-2.6808 -14.4869,-6.9777 -14.4869,-9.2434 0,-1.0768 0.3315,-1.9579 0.7367,-1.9579 0.4052,0 3.8368,2.1375 7.6259,4.75 l 6.8892,4.75 9.1241,-0.1 c 5.0183,-0.055 9.9757,-0.2799 11.0165,-0.5 2.9151,-0.6162 2.9808,1.6089 0.086,2.9277 -3.7619,1.714 -15.2116,1.3723 -20.9919,-0.6265 z m -37.3891,-28.3505 c -0.6038,-1.7321 -1.0978,-6.14717 -1.0978,-9.81137 0,-5.4767 0.3905,-7.0814 2.1944,-9.0176 2.394,-2.5697 3.5992,-1.3731 1.8705,1.8571 -1.5241,2.8478 -1.3136,10.1649 0.4351,15.12107 1.8581,5.2664 1.8795,5 -0.4022,5 -1.2345,0 -2.2875,-1.1054 -3,-3.1492 z m 116.37246,18.108 c 1.3878,-1.3882 1.268,-1.962 -1.2061,-5.7777 -4.9962,-7.7053 -15.8546,-10.4713 -24.2642,-6.1811 -4.3358,2.212 -6,2.4958 -6,1.0231 0,-3.1907 12.8537,-6.722 20.3669,-5.5953 2.4787,0.3717 6.0199,1.7028 7.8695,2.9579 l 3.3628,2.2821 -0.05,-43.25037 c -0.027,-23.7877 -0.3356,-43.5364 -0.6851,-43.8861 -0.3495,-0.3496 -3.3758,1.1355 -6.7251,3.3002 -12.9708,8.3835 -29.1136,12.777 -42.98186,11.6982 l -8.3426,-0.649 0.5252,2.8097 c 0.2888,1.5453 0.8104,4.6096 1.1591,6.8096 1.025,6.4675 8.4988,33.629 10.5249,38.25 1.0249,2.3375 1.4388,4.25 0.9197,4.25 -1.4985,0 -1.0954,11.12647 0.6113,16.87357 2.25656,7.5988 7.38836,12.3734 15.54266,14.4609 9.171,2.3479 10.4866,2.5039 19.6169,2.3258 5.8987,-0.1151 8.6491,-0.5948 9.7556,-1.7015 z m -25.8901,-24.29517 c -2.156,-0.6504 -4.1287,-1.8091 -4.3839,-2.5747 -0.351,-1.053 0.1168,-1.2131 1.9198,-0.6572 1.3112,0.4043 4.6346,0.9689 7.3855,1.2549 4.2096,0.4376 5.303,0.1869 6.905,-1.5833 2.3745,-2.6239 3.5934,-2.6781 3.5934,-0.16 0,4.4831 -7.1636,6.21137 -15.4198,3.7203 z m -24.25536,1.5864 c -0.3863,-7.3134 -1.6259,-13.7484 -4.9604,-25.75 -2.445,-8.8 -5.1835,-19.8704 -6.0855,-24.6009 l -1.6401,-8.601 -3.2044,0.9835 c -2.6551,0.8148 -3.7588,2.1649 -6.4375,7.8742 -1.7782,3.79 -5.4015,9.8283 -8.0518,13.4186 -6.2775,8.504 -7.7344,12.8642 -8.245,24.6756 l -0.4214,9.75 4.4191,0 c 12.2068,0 22.5901,3.11237 31.3022,9.38287 1.925,1.3855 3.5764,2.5411 3.6698,2.5681 0.093,0.027 -0.062,-4.3385 -0.3451,-9.70097 z m -22.8248,-59.2462 c 3.85,-1.205 7.317,-2.4883 7.7045,-2.8518 0.3875,-0.3635 1.2078,-8.7589 1.8229,-18.6565 1.2516,-20.1403 1.0105,-19.5141 9.6454,-25.05336 2.845,-1.8252 7.0217,-5.8213 9.28146,-8.8803 4.4192,-5.982 6.0479,-6.8747 6.042,-3.3118 -0.01,3.587 -3.6021,8.7563 -10.95666,15.75 l -6.8354,6.49996 -0.73,7.8617 c -0.6669,7.1813 -0.2415,20.2044 0.6905,21.1363 0.2122,0.2123 3.1479,0.8308 6.5236,1.3744 7.75936,1.2497 16.00376,-0.3533 28.10206,-5.464 7.5435,-3.1866 20.9861,-11.9724 24.0088,-15.6917 0.6581,-0.8097 0.5464,-3.3907 -0.334,-7.7167 -0.7276,-3.575 -2.4936,-17.52496 -3.9245,-30.99996 -2.6112,-24.58994 -6.3581,-46.86972 -8.6084,-51.18661 -0.9413,-1.80569 -6.446,-9.91823 -8.6748,-12.78439 -0.2014,-0.25907 -0.6793,0.006 -1.0619,0.58987 -1.1616,1.77167 -9.4041,7.38117 -10.8456,7.38117 -2.3656,0 -1.4572,-1.7706 2.0065,-3.91133 6.6094,-4.08483 8.6435,-6.93072 8.6435,-12.09311 l 0,-4.73171 -3.3642,3.17284 c -7.355,6.93669 -26.53606,14.78194 -44.36586,18.14608 -16.0667,3.03149 -36.7134,0.50999 -45.1782,-5.51745 l -3.0917,-2.20151 0,3.72171 c 0,3.08921 0.7136,4.38045 4.1987,7.59792 4.4963,4.15095 9.5342,6.01187 21.1872,7.82623 8.0614,1.25515 12.5515,0.71343 26.0748,-3.14582 5.9373,-1.69439 10.3258,-2.47731 10.8649,-1.9383 1.272,1.27209 -3.6715,3.62678 -12.9701,6.1778 -6.6683,1.82945 -9.6139,2.07386 -19.8431,1.64651 -13.3783,-0.55892 -20.6452,-2.64253 -28.3538,-8.12984 -4.2506,-3.02569 -4.3716,-3.0492 -5.7804,-1.12258 -2.8333,3.87482 -4.3781,11.77677 -4.3858,22.43406 -0.011,15.42976 -1.4894,25.88436 -5.0615,35.79546 -3.8591,10.7072 -12.1016,38.32856 -11.7126,39.25036 0.1549,0.3672 3.8283,3.886 8.163,7.8195 13.1382,11.9222 20.4483,14.4062 40.6187,13.8021 10.2285,-0.3064 15.1963,-0.9353 20.5,-2.5952 z m -61.4837,-25.2538 c 0.014,-5.183 0.7883,-8.0338 4.5378,-16.6991 4.8666,-11.24666 7.0507,-22.04426 6.1057,-30.18376 -0.4646,-4.0023 -0.2058,-4.9449 1.9012,-6.9243 3.0474,-2.8629 3.0378,-3.85791 -0.1245,-13.01761 -1.6987,-4.92043 -2.4038,-8.70276 -2.0901,-11.21259 0.521,-4.16852 4.922,-10.71256 7.2045,-10.71256 1.9631,0 1.8496,0.51668 -1.0509,4.78519 -3.3509,4.93133 -3.3465,11.19191 0.012,17.06688 3.1574,5.52306 3.2462,10.7135 0.238,13.90939 -1.8992,2.0177 -2.4284,4.2556 -3.3936,14.3525 -1.0286,10.759 -1.562,12.8341 -5.3035,20.6316 -3.5852,7.47166 -5.7022,15.73446 -6.0221,23.50436 -0.017,0.4125 -0.4808,0.75 -1.0308,0.75 -0.5618,0 -0.9929,-2.7391 -0.9837,-6.25 z m 48.7552,-43.77796 c -4.5141,-2.9899 -12.7715,-12.56819 -12.7715,-14.81433 0,-0.6367 0.675,-1.15763 1.5,-1.15763 0.825,0 1.5,0.60972 1.5,1.35494 0,1.6548 9.2773,10.53852 13.75,13.16662 3.2801,1.9273 4.3746,4.4784 1.9214,4.4784 -0.7307,0 -3.3856,-1.3625 -5.8999,-3.028 z m -0.7715,-32.42027 c 0,-1.84032 3.2609,-2.52217 12.1381,-2.53804 13.213,-0.0236 32.21856,-6.6795 45.27766,-15.85646 5.8301,-4.09695 8.5842,-5.11192 8.5842,-3.16346 0,3.55152 -28.51516,18.08018 -39.99996,20.3802 -10.9187,2.18665 -26,2.86982 -26,1.17776 z m 29.5,-25.99458 c 11.4539,-3.04225 24.21226,-8.94767 29.91266,-13.84557 3.9051,-3.35533 3.9106,-3.37054 2.8008,-7.78672 -0.6116,-2.43365 -1.6154,-9.46958 -2.2306,-15.63539 -1.0921,-10.94385 -0.4048,-18.66226 2.697,-30.28943 0.5922,-2.2198 0.4843,-2.35025 -0.9627,-1.16391 -0.8963,0.73485 -2.0823,1.05628 -2.6357,0.71429 -1.8569,-1.14767 0.9401,-5.11295 8.3239,-11.80037 7.4118,-6.71287 12.5242,-14.95998 14.1028,-22.75001 1.2014,-5.92863 4.5778,-12.82636 7.0815,-14.46683 3.5058,-2.2971 6.3457,-8.63414 7.9445,-17.7279 1.5026,-8.5462 1.4556,-8.45521 8.5957,-16.63221 13.3656,-15.30667 11.2216,-32.1114 -5.5726,-43.67805 -5.3143,-3.66008 -5.7031,-3.76468 -11.675,-3.1405 -3.3977,0.35513 -6.7378,1.11057 -7.4224,1.67875 -1.4579,1.20999 -2.9312,4.7642 -4.4691,10.78142 -1.8177,7.11221 -3.5484,4.72459 -3.1252,-4.31137 l 0.3657,-7.80586 -5.6157,0.66001 c -4.5606,0.53602 -5.6156,0.38541 -5.6156,-0.80172 0,-1.89223 5.9614,-3.53439 13,-3.58104 9.3133,-0.0617 20.1729,-1.86429 24.4359,-4.05606 9.5312,-4.90036 16.9496,-16.46126 16.9522,-26.41864 0,-15.58685 -11.7499,-33.60038 -26.3425,-40.37072 -11.5298,-5.34937 -29.3746,-2.53555 -43.2212,6.81522 -6.62556,4.47442 -19.66666,17.89641 -24.61296,25.33192 -2.2526,3.38629 -2.3966,4.1611 -1.3935,7.5 0.6153,2.04797 3.6901,6.81907 6.8331,10.60245 7.2712,8.75285 15.04576,12.92604 21.41496,11.49497 7.1971,-1.61708 8.694,-1.49446 6.9792,0.57174 -0.6599,0.79507 -3.5737,1.97684 -6.4752,2.62616 -6.053,1.35461 -10.06426,0.43928 -16.13796,-3.68248 -2.0166,-1.36846 -3.7262,-2.35337 -3.7992,-2.18869 -5.0948,11.49071 -10.1378,17.04394 -18.3874,20.24765 -3.71,1.44075 -7.8334,3.22305 -9.1632,3.96067 l -2.4178,1.34111 2.1958,1.17517 c 2.4883,1.33173 1.982,3.07483 -0.8932,3.07483 -1.0532,0 -5.4141,-1.4088 -9.691,-3.13066 -10.0624,-4.05118 -16.659,-4.21406 -24.5401,-0.60595 -10.0942,4.62125 -21.2746,17.18907 -25.1785,28.30278 -0.8565,2.43861 -2.2989,6.57133 -3.2051,9.18383 -1.2632,3.64164 -4.1676,7.31673 -12.4471,15.75 -11.0584,11.26375 -13.9052,15.76127 -13.9052,21.96788 0,2.93587 -0.3591,3.53212 -2.1272,3.53212 -1.9381,0 -2.0863,-0.42658 -1.6663,-4.79685 0.6188,-6.4402 4.6963,-15.04756 8.8643,-18.71194 11.8956,-10.45827 15.4773,-14.92546 18.3858,-22.93065 3.3804,-9.30448 12.8079,-23.89375 18.8208,-29.12592 4.7877,-4.16599 13.1021,-8.4103 16.504,-8.42487 1.2857,-0.006 2.5268,-0.77353 2.8437,-1.75977 2.4933,-7.7588 4.3794,-9.3148 13.579,-11.20238 7.0244,-1.44125 9.4759,-3.82771 11.9443,-11.62742 3.4114,-10.77923 3.7441,-13.12861 2.1766,-15.36664 -2.2717,-3.24333 -3.0153,-2.49473 -4.3036,4.33281 -0.6627,3.51251 -2.0571,7.78751 -3.0985,9.5 -1.5685,2.57922 -2.5261,3.11363 -5.5795,3.11363 -8.0186,0 -8.9369,-4.46922 -4.8666,-23.68622 1.3622,-6.43147 2.3583,-11.81202 2.2135,-11.95678 -0.5949,-0.5949 -10.6057,2.8382 -11.5034,3.94497 -0.5344,0.65892 -1.1326,2.06074 -1.3293,3.11516 -0.1967,1.05443 -0.9838,2.12566 -1.7491,2.38051 -1.4057,0.4681 -1.3147,-0.927 0.4274,-6.54764 0.5566,-1.79576 0.3086,-2.25 -1.2281,-2.25 -2.5295,0 -5.9432,-2.48924 -4.5742,-3.33538 0.5702,-0.35237 2.418,-0.15914 4.1063,0.4294 1.6882,0.58854 3.8774,0.91282 4.8648,0.72064 1.2747,-0.24809 0.5506,-0.96653 -2.4968,-2.47741 -2.3607,-1.1704 -5.1447,-1.90503 -6.1868,-1.63252 -1.042,0.2725 -3.9333,2.50534 -6.425,4.96186 -5.2134,5.13969 -6.3298,8.91632 -4.5596,15.42418 1.9952,7.33509 1.4603,20.25149 -1.0537,25.44471 -1.1841,2.44617 -2.4864,6.81389 -2.8938,9.70605 -0.4074,2.89216 -2.1273,7.95847 -3.8219,11.25847 -4.2957,8.36546 -16.3152,24.23627 -26.8852,35.5 -4.9032,5.225 -9.8802,11.075 -11.06,13 -3.3929,5.53614 -5.621,14.59131 -5.0185,20.39548 0.2914,2.80749 0.054,10.97233 -0.5267,18.14409 -1.1978,14.78412 -1.143,14.99148 7.6194,28.85146 4.7743,7.55174 5.3608,8.03943 10.8563,9.02651 6.7895,1.21951 13.3946,-3.63876 18.7159,-13.76623 1.3543,-2.57753 5.4153,-6.76693 10.7121,-11.05078 11.4249,-9.24011 12.399,-11.02829 15.3083,-28.10053 0.4686,-2.75 1.1831,-5.84493 1.5876,-6.87761 0.6504,-1.66021 0.3412,-1.82259 -2.6703,-1.40239 -1.8733,0.26138 -4.1935,0.81695 -5.156,1.23461 -1.3365,0.57992 -1.75,0.28675 -1.75,-1.24063 0,-3.55398 7.2678,-4.41018 13.7821,-1.62362 6.4898,2.77605 18.1907,1.30717 21.8568,-2.74382 2.2425,-2.47796 3.5705,-2.33065 3.1807,0.35282 -0.5214,3.5886 -6.3144,6.17831 -16.3196,7.2956 l -9,1.00504 -1.6179,5.5 c -0.8899,3.025 -2.3584,8.60786 -3.2635,12.40636 -1.5457,6.4872 -1.5409,7.02198 0.078,8.81128 1.2644,1.39713 2.8007,1.82716 5.7635,1.61324 3.0316,-0.21889 4.0395,0.0777 4.0395,1.18873 0,2.17373 -7.6203,2.48662 -11.5147,0.47279 -3.0856,-1.59568 -3.1825,-1.57103 -7.3062,1.86012 -9.4307,7.8469 -11.1572,9.60648 -10.1791,10.37444 0.55,0.43183 3.925,2.73521 7.5,5.11863 5.904,3.93612 6.9127,4.28178 11,3.76956 2.475,-0.31016 5.5125,-0.85294 6.75,-1.20617 3.9474,-1.12674 2.6608,2.30037 -1.362,3.628 -5.1673,1.70537 -13.4246,0.78515 -17.2228,-1.91935 -1.7333,-1.23426 -3.6046,-1.96409 -4.1583,-1.62185 -0.5538,0.34224 -1.0069,3.96159 -1.0069,8.043 0,8.78513 1.7879,13.92556 7.2663,20.89195 5.7737,7.342 7.7833,11.83359 11.2082,25.05094 l 3.1046,11.98167 4.6421,2.86998 c 2.5532,1.57849 7.7104,3.72587 11.4605,4.77196 9.891,2.7591 28.1462,2.08327 41.8183,-1.54817 z m -3.2124,-12.30711 c -1.1536,-4.2272 -0.7208,-29.05397 0.617,-35.38816 0.6549,-3.10099 2.0693,-6.43324 3.1431,-7.40499 2.5269,-2.28687 2.5252,-1.51881 -0.024,10.69094 -1.8641,8.92665 -1.8933,10.13962 -0.512,21.27426 0.8056,6.49434 1.2186,12.20615 0.9178,12.69292 -1.1259,1.82159 -3.4169,0.78988 -4.1414,-1.86497 z m 23.06176,-29.46649 c -0.488,-3.05147 -1.8727,-5.49774 -5.0118,-8.8537 -6.22856,-6.65887 -5.71366,-9.64152 0.7286,-4.22068 5.4939,4.6228 10.2162,17.29087 6.4456,17.29087 -0.9757,0 -1.7204,-1.45209 -2.1624,-4.21649 z m -60.34936,-0.84337 c 0,-0.58292 2.3611,-3.55642 5.247,-6.60778 9.2096,-9.73777 14.829,-12.37854 9.2694,-4.35601 -5.3877,7.77441 -14.5164,14.66905 -14.5164,10.96379 z m -5.6838,-13.15848 c 2.604,-0.69031 4.5098,-2.07988 6,-4.3747 2.7173,-4.18464 4.6838,-5.10004 4.6838,-2.18029 0,1.19014 -1.2092,3.42602 -2.6871,4.96861 -2.2194,2.31656 -3.4813,2.78673 -7.25,2.70137 l -4.5629,-0.10335 3.8162,-1.01164 z m 27.6838,-5.34673 c 0,-0.99175 14.7817,-7.43493 17.0569,-7.43493 1.8796,0 2.0034,0.22244 0.8784,1.57801 -2.1983,2.64871 -10.6603,6.42199 -14.4021,6.42199 -1.9432,0 -3.5332,-0.25428 -3.5332,-0.56507 z m 33.23546,-2.43018 c -1.2295,-1.14547 -2.2355,-2.96513 -2.2355,-4.04371 0,-2.1318 1.4716,-2.62501 2.5631,-0.85901 0.3746,0.60612 2.2323,1.75018 4.1282,2.54235 1.8959,0.79216 3.2688,1.98375 3.0508,2.64796 -0.6855,2.08882 -5.139,1.91819 -7.5066,-0.28759 z m -119.02486,-8.54279 c -0.7228,-0.81948 -3.03,-1.46196 -5.25,-1.46196 -2.8539,0 -3.9606,-0.41916 -3.9606,-1.5 0,-1.77505 6.0237,-2.09285 9.0428,-0.47708 2.5213,1.34933 4.544,4.99237 2.7424,4.93904 -0.7069,-0.0209 -1.8654,-0.69592 -2.5746,-1.5 z m 108.1391,-3.99628 c 0.8487,-6.19205 5.8519,-16.66813 16.76906,-35.11262 11.6705,-19.71702 12.8793,-23.78155 12.8868,-43.33142 0,-13.35802 0.9909,-21.29171 2.7814,-22.38454 0.3922,-0.23933 0.8503,8.02125 1.0181,18.35686 0.2426,14.94194 -0.031,20.09444 -1.3375,25.14903 -2.0525,7.94307 -8.8352,21.18764 -15.5462,30.35701 -6.0671,8.28965 -9.82646,15.5231 -12.86296,24.75 -2.578,7.83325 -4.6482,9.07011 -3.7087,2.21568 z m -22.5288,-7.71568 c -0.6872,-1.2375 -1.2656,-5.73544 -1.2852,-9.99543 -0.02,-4.25998 -0.3732,-7.74748 -0.7857,-7.75 -1.8377,-0.0112 -0.4932,-3.8185 2,-5.6638 4.1238,-3.05213 7.7055,-10.88261 7.8156,-17.08678 0.1074,-6.05157 1.0197,-7.54158 2.978,-4.86349 2.2374,3.05985 0.6038,10.11321 -4.7084,20.32893 -5.2179,10.03459 -5.6454,12.64826 -3.4297,20.97031 0.7599,2.85436 1.1296,5.44186 0.8214,5.75 -1.08,1.08004 -2.1675,0.54056 -3.406,-1.68974 z m 38.17906,-2.54657 c 0,-0.55736 2.1375,-2.25498 4.75,-3.77248 2.6125,-1.51749 7.0736,-5.16025 9.9136,-8.09502 2.84,-2.93476 5.6525,-5.33593 6.25,-5.33593 3.8095,0 -2.9141,8.29555 -11.4985,14.18682 -4.3529,2.98731 -9.4151,4.60923 -9.4151,3.01661 z m -115.51126,-6.22167 c -1.3228,-2.14031 9.0598,-16.98176 11.8799,-16.98176 2.2379,0 11.6314,9.37914 11.6314,11.61366 0,2.60459 -3.0642,1.39182 -5.0691,-2.00629 -3.8651,-6.55078 -9.4733,-5.03541 -13.7002,3.70184 -2.2487,4.64832 -3.527,5.63834 -4.742,3.67255 z m 52.5383,-2.69253 c -4.6987,-2.42073 -9.3508,-8.8306 -11.9108,-16.41127 -3.2193,-9.53267 -1.0123,-9.61587 3.7513,-0.14142 4.9557,9.85636 8.6853,13.27188 14.4592,13.2415 2.2953,-0.0121 6.1349,-0.91208 8.5325,-2 5.1543,-2.33883 6.1408,-2.43757 6.1408,-0.6146 0,1.45319 -9.8305,6.27655 -14.6251,7.17581 -1.7578,0.32969 -4.2244,-0.15602 -6.3479,-1.25002 z m 89.39296,-19.37768 c -2.407,-2.65962 -3.2257,-14.93479 -1.2947,-19.41155 1.2409,-2.877 1.3161,-2.68873 1.8343,4.5921 0.4351,6.11309 1.0761,8.36387 3.2904,11.55375 1.5125,2.17891 2.75,4.27496 2.75,4.6579 0,1.56916 -4.8237,0.54857 -6.58,-1.3922 z m -55.41996,-21.84413 c -0.825,-0.47947 -5.325,-1.89265 -10,-3.14039 -4.675,-1.24775 -9.0992,-2.72735 -9.8316,-3.288 -2.4083,-1.84361 -7.296,-12.71924 -6.955,-15.47556 0.2856,-2.30881 0.8251,-1.70328 4.051,4.54758 2.0468,3.96607 4.5339,7.6458 5.5268,8.17718 0.9929,0.53138 5.6085,1.92949 10.257,3.10691 8.5953,2.17711 11.7288,3.93863 10.5111,5.9089 -0.8038,1.30062 -1.544,1.3346 -3.5593,0.16338 z m 65.18046,-9.27277 c 0.1765,-1.21848 2.2161,-3.5678 4.5577,-5.25 2.3311,-1.67456 6.1561,-4.41073 8.5,-6.08037 3.2898,-2.34335 4.452,-3.93989 5.0957,-7 1.7792,-8.45835 2.2367,-9.82115 3.4311,-10.21927 1.7192,-0.57308 1.5579,2.715 -0.515,10.49428 -1.8644,6.99678 -2.3141,7.51053 -14.2231,16.24605 -6.2788,4.60571 -7.2904,4.87303 -6.8464,1.80931 z m -41.4806,-11.17595 c 0.4586,-4.44359 0.098,-6.38142 -2.07216,-11.12084 -3.0825,-6.73291 -3.0409,-6.49786 -1.148,-6.49786 3.73916,0 8.09306,16.19263 5.60426,20.84297 -1.9816,3.70267 -2.9621,2.37655 -2.3841,-3.22427 z m 30.726,-5.95113 c -1.2498,-3.25692 3.1045,-14.66757 5.5972,-14.66757 1.3623,0 1.2516,0.54132 -1.0231,5 -1.1,2.15618 -2,5.51325 -2,7.46016 0,3.47813 -1.5698,4.82436 -2.5741,2.20741 z m -114.42586,-7.13277 c 0,-6.09035 11.9624,-13.94628 20.312,-13.33927 2.9207,0.21234 4.188,0.75838 4.188,1.80447 0,1.18516 -1.1544,1.44174 -5.5,1.22245 -7.1977,-0.36321 -12.5304,2.5668 -15.4353,8.48088 -2.352,4.78817 -3.5647,5.41125 -3.5647,1.83147 z m 45,-13.22613 c 0,-0.78063 2.5875,-2.63192 5.75,-4.11399 5.376,-2.51939 6.5368,-2.67909 17.8452,-2.45497 l 12.0952,0.23971 3.71086,-4.13366 c 2.78,-3.0968 3.9971,-3.8474 4.852,-2.99243 1.4542,1.45419 -1.5252,5.68582 -6.283,8.92351 -3.18396,2.16678 -3.95296,2.24683 -15.90796,1.65608 -12.0085,-0.5934 -12.7717,-0.51242 -17.3123,1.83715 -3.6144,1.87027 -4.75,2.11858 -4.75,1.0386 z m 1.0776,-11.89111 c 8.8655,-3.56481 10.002,-4.80792 6.1952,-6.77651 -3.1297,-1.61844 -9.2728,-8.02852 -9.2728,-9.67585 0,-2.20544 -1.6554,-0.73237 -2.5432,2.26307 -1.0784,3.63868 -2.7567,4.6244 -13.1089,7.6995 -5.0172,1.49033 -7.6291,2.85248 -8.75,4.56319 -2.1552,3.28929 -2.1306,3.33259 2.1521,3.78057 11.8318,1.23765 18.9313,0.71797 25.3276,-1.85397 z m 4.8877,-16.76302 c -1.4471,-3.27155 -2.6453,-4.65454 -4.0324,-4.65454 -1.958,0 -1.9577,0.0311 0.04,3.94637 1.7306,3.39227 4.9171,6.49721 5.7811,5.63316 0.1488,-0.14875 -0.656,-2.365 -1.7884,-4.92499 z m 11.3886,2.59546 c 3.0799,-6.02719 3.0325,-8.97435 -0.2101,-13.06845 -1.6594,-2.09518 -3.5679,-5.01814 -4.241,-6.49548 -1.361,-2.98713 -3.4243,-3.36255 -6.3439,-1.15427 -1.0676,0.80751 -2.7466,1.4682 -3.731,1.4682 -1.1398,0 -2.0086,0.99876 -2.3924,2.75 -0.3314,1.5125 -0.7615,3.27526 -0.9559,3.91724 -0.4728,1.56207 1.8507,2.36996 3.6111,1.25555 0.7751,-0.49069 1.8996,-0.89906 2.4988,-0.90748 1.4219,-0.02 3.4105,4.39819 3.4105,7.5772 0,2.46846 3.9531,7.40749 5.9289,7.40749 0.5608,0 1.6521,-1.2375 2.425,-2.75 z m -30.5002,-13 c 1.2151,-3.04772 3.5115,-13.26677 8.708,-38.75 1.9067,-9.35 3.7185,-17.79659 4.0263,-18.77019 0.421,-1.33171 -0.3524,-2.15127 -3.1223,-3.30858 -2.025,-0.84612 -3.8056,-1.39953 -3.9568,-1.22981 -1.3306,1.49321 -13.4743,61.73503 -12.7993,63.49406 0.2774,0.72299 1.7516,1.31452 3.2761,1.31452 2.0912,0 3.0408,-0.67515 3.868,-2.75 z m 19.882,-12 c 2.3413,-0.9625 4.2585,-2.17538 4.2606,-2.69528 0,-0.51991 -1.2055,-2.20741 -2.6834,-3.75 -1.8627,-1.9443 -2.2309,-2.80472 -1.2,-2.80472 0.8179,0 2.0271,0.54 2.6871,1.2 0.8012,0.80118 1.5328,0.86716 2.2015,0.19853 1.0789,-1.07894 -2.5488,-13.39853 -3.9454,-13.39853 -0.4182,0 -2.2894,1.02808 -4.1582,2.28463 -3.312,2.22685 -3.4129,2.49871 -3.9925,10.75 -0.3271,4.65595 -0.413,8.80287 -0.191,9.21537 0.6227,1.15694 2.3854,0.90589 7.0213,-1 z m -9.806,-9.05902 c 0.039,-0.71996 -0.3797,-1.0309 -0.9297,-0.69098 -0.55,0.33992 -0.9684,1.82898 -0.9297,3.30902 0.063,2.40282 0.1623,2.47681 0.9297,0.69098 0.4727,-1.1 0.8911,-2.58906 0.9297,-3.30902 z m 25.0703,-8.50746 c 0,-0.92708 -10.7929,-30.50643 -11.6381,-31.89581 -0.517,-0.84983 -5.3619,1.2073 -5.3619,2.27664 0,0.99952 8.5688,29.67287 9.9634,33.34017 l 1.1046,2.90452 2.966,-2.84161 c 1.6313,-1.56289 2.966,-3.26565 2.966,-3.78391 z m -39.5557,-5.93352 c 0.2654,-1.2375 1.8113,-7.87171 3.4354,-14.74269 3.1291,-13.23788 2.9969,-14.28685 -1.7346,-13.76636 -2.0579,0.22639 -3.037,2.07885 -7.7643,14.69121 -5.9631,15.90958 -5.9533,16.02609 1.3502,16.05253 3.5841,0.013 4.3047,-0.32864 4.7133,-2.23469 z m 21.1167,-1.21102 c 3.8891,-1.62497 3.8961,-1.8284 0.4183,-12.03898 l -1.703,-5 -1.2113,6 c -0.6663,3.3 -1.5922,7.4625 -2.0576,9.25 -0.9642,3.70337 -0.4818,3.89289 4.5536,1.78898 z m -30.5266,-13.63075 c 5.6501,-15.06039 5.6474,-16.25603 -0.034,-15.66728 -2.2121,0.22921 -3.0988,1.75628 -7.6994,13.25905 -2.8597,7.15 -5.2222,13.53399 -5.25,14.18664 -0.028,0.65265 1.4119,1.36814 3.1994,1.58996 1.7875,0.22183 3.5308,0.47534 3.8739,0.56336 0.3431,0.088 3.0029,-6.18126 5.9105,-13.93173 z m 34.2197,-15.15823 c 0.9001,-0.6875 1.9061,-2.375 2.2358,-3.75 1.2852,-5.36129 -5.5949,-8.95042 -9.3765,-4.89138 -2.3282,2.4991 -2.7826,6.8222 -0.9134,8.69138 1.5644,1.5644 5.9766,1.53701 8.0541,-0.05 z m -12.464,-5.2508 c 0.1595,-2.47456 0.1338,-4.4992 -0.057,-4.4992 -1.5471,0 -22.0529,4.07965 -22.7873,4.53355 -2.3497,1.45222 -0.3502,2.33561 7.3043,3.22699 4.5375,0.52841 9.825,1.02309 11.75,1.0993 3.462,0.13705 3.5032,0.0897 3.7901,-4.36064 z m -247.4356,21.98224 c -0.3309,-0.86224 -0.374,-1.79531 -0.096,-2.0735 0.2782,-0.27819 117.6713,-20.7311 260.8736,-45.45091 143.20216,-24.71981 261.60556,-45.20862 263.11846,-45.5307 1.9926,-0.42419 2.9225,-0.13831 3.3736,1.03716 0.3425,0.89252 0.4231,1.8223 0.1793,2.06618 -0.2439,0.24387 -117.862,20.69869 -261.37356,45.45515 -143.5115,24.75646 -261.9525,45.24857 -263.2021,45.53802 -1.5003,0.34755 -2.4762,-0.006 -2.8735,-1.0414 z"
       id="path3655"
       inkscape:connector-curvature="0" />
  </g>
</svg>
