<?xml version="1.0" encoding="UTF-8" standalone="no"?>
<!-- Created with Inkscape (http://www.inkscape.org/) -->

<svg
   xmlns:dc="http://purl.org/dc/elements/1.1/"
   xmlns:cc="http://creativecommons.org/ns#"
   xmlns:rdf="http://www.w3.org/1999/02/22-rdf-syntax-ns#"
   xmlns:svg="http://www.w3.org/2000/svg"
   xmlns="http://www.w3.org/2000/svg"
   xmlns:xlink="http://www.w3.org/1999/xlink"
   xmlns:sodipodi="http://sodipodi.sourceforge.net/DTD/sodipodi-0.dtd"
   xmlns:inkscape="http://www.inkscape.org/namespaces/inkscape"
   width="125.74259"
   height="228.77939"
   id="svg2"
   version="1.1"
   inkscape:version="0.48.3.1 r9886"
   sodipodi:docname="One-arm-preacher-curl-2.svg">
  <defs
     id="defs4">
    <radialGradient
       gradientUnits="userSpaceOnUse"
       gradientTransform="matrix(1,0,0,0.91819829,-19.285714,-7.9105395)"
       r="209.56604"
       fy="287.50052"
       fx="398.1105"
       cy="287.50052"
       cx="398.1105"
       id="radialGradient5255"
       xlink:href="#linearGradient5249"
       inkscape:collect="always" />
    <linearGradient
       id="linearGradient5249"
       inkscape:collect="always">
      <stop
         id="stop5251"
         offset="0"
         style="stop-color:#e3e3e3;stop-opacity:1;" />
      <stop
         id="stop5253"
         offset="1"
         style="stop-color:#e3e3e3;stop-opacity:0;" />
    </linearGradient>
  </defs>
  <sodipodi:namedview
     id="base"
     pagecolor="#ffffff"
     bordercolor="#666666"
     borderopacity="1.0"
     inkscape:pageopacity="0.0"
     inkscape:pageshadow="2"
     inkscape:zoom="1.4"
     inkscape:cx="-89.123128"
     inkscape:cy="90.138649"
     inkscape:document-units="px"
     inkscape:current-layer="layer1"
     showgrid="false"
     showguides="true"
     inkscape:guide-bbox="true"
     fit-margin-top="0"
     fit-margin-left="0"
     fit-margin-right="0"
     fit-margin-bottom="0"
     inkscape:window-width="1201"
     inkscape:window-height="886"
     inkscape:window-x="83"
     inkscape:window-y="39"
     inkscape:window-maximized="0">
    <sodipodi:guide
       orientation="-0.70710678,0.70710678"
       position="-2029.0295,523.45635"
       id="guide2985" />
  </sodipodi:namedview>
  <metadata
     id="metadata7">
    <rdf:RDF>
      <cc:Work
         rdf:about="">
        <dc:format>image/svg+xml</dc:format>
        <dc:type
           rdf:resource="http://purl.org/dc/dcmitype/StillImage" />
        <dc:title></dc:title>
      </cc:Work>
    </rdf:RDF>
  </metadata>
  <g
     inkscape:label="Ebene 1"
     inkscape:groupmode="layer"
     id="layer1"
     transform="translate(-600.45797,-321.32485)">
    <path
       style="fill:#000000"
       d="m 634.71124,548.35888 c -3.49323,-2.40761 -4.90399,-4.43826 -4.94071,-7.11163 -0.0175,-1.27366 -0.55952,-3.29866 -1.20452,-4.5 -1.51606,-2.82375 -1.93367,-6.43177 -1.828,-15.79324 0.0546,-4.83384 -0.65908,-10.2973 -1.95669,-14.9799 -2.59263,-9.35581 -2.56644,-10.49797 0.44659,-19.47361 3.41159,-10.16298 3.60745,-19.4164 0.53839,-25.43751 -1.26154,-2.475 -3.62165,-6.1875 -5.24467,-8.25 -1.62303,-2.0625 -2.57565,-3.77927 -2.11693,-3.81504 0.45872,-0.0358 -3.21597,-1.49827 -8.16597,-3.25 l -9,-3.18496 -0.58441,-6 c -0.68201,-7.00195 0.20705,-8.5603 5.96864,-10.46179 3.79059,-1.25101 3.86592,-1.37364 4.48555,-7.30198 0.34662,-3.31629 0.63022,-7.35663 0.63022,-8.97855 0,-1.62192 0.84636,-4.14341 1.88079,-5.60331 1.52508,-2.15234 2.02025,-5.37031 2.61813,-17.01422 l 0.73733,-14.35986 6.48506,-12.64014 c 3.56679,-6.95208 7.18504,-13.42949 8.04057,-14.39424 0.85552,-0.96475 3.89585,-2.89912 6.75627,-4.29859 5.68896,-2.78335 9.87723,-6.68986 10.93861,-10.20272 1.94273,-6.4299 10.05963,-11.16864 16.65087,-9.72096 6.35008,1.39471 12.89237,9.92472 12.89237,16.8094 0,3.69596 -3.11962,11.55223 -6.29263,15.847 -1.7546,2.3749 -1.85066,3.19383 -0.8437,7.19282 0.62498,2.48203 1.13633,6.35434 1.13633,8.60514 0,3.73613 0.16838,4.00226 1.93426,3.05718 3.09849,-1.65826 7.58396,-1.20199 10.46541,1.06456 3.5421,2.78621 7.35036,1.9142 8.14466,-1.86497 0.87388,-4.1578 1.88012,-5.60728 4.93108,-7.10316 6.48432,-3.17926 14.66289,3.24085 17.48644,13.72671 2.64894,9.83742 -5.00634,17.39934 -13.18372,13.02294 -1.75792,-0.94081 -2.38034,-0.742 -3.91342,1.25 -1.00266,1.30281 -2.78019,4.39374 -3.95007,6.86874 -1.16988,2.475 -3.70405,6.70785 -5.6315,9.40634 -3.46798,4.85527 -3.48769,4.9415 -1.8938,8.28393 2.007,4.20871 2.07023,8.68343 0.14529,10.28099 -1.25591,1.04231 -1.07724,1.54242 1.25,3.49878 1.49345,1.25546 4.74037,3.40755 7.21537,4.78243 5.20686,2.89245 8.46399,8.36999 8.17475,13.74753 -0.44589,8.28982 -0.29074,17.38002 0.51503,30.1748 l 0.8612,13.6748 6.132,6.0752 c 3.66102,3.62712 6.99352,6.0752 8.26996,6.0752 2.8442,0 7.2089,4.41467 6.41365,6.48707 -0.33729,0.87897 -2.24526,2.42738 -4.23992,3.44093 -3.88349,1.9733 -10.40366,1.6459 -14.81093,-0.7437 -1.20134,-0.65137 -4.8441,-1.1843 -8.09501,-1.1843 -9.24816,0 -11.03467,-3.52879 -7.6155,-15.04241 1.94997,-6.56625 1.34888,-12.19378 -2.10925,-19.74734 -2.4833,-5.42423 -3.09182,-10.98106 -1.87098,-17.08525 1.09544,-5.47718 2.08121,-3.38454 2.64975,5.625 0.39487,6.25738 1.16685,9.88948 2.70994,12.75 1.91432,3.5487 2.08465,4.95901 1.50962,12.5 -0.35649,4.675 -0.72604,10.75 -0.82123,13.5 l -0.17308,5 6.40341,0.19222 c 3.52187,0.10573 7.57187,0.63418 9,1.17435 4.75182,1.79732 9.84628,2.2046 12.49281,0.99876 3.75634,-1.7115 3.20471,-3.62643 -1.40198,-4.86688 -5.02201,-1.35229 -16.12976,-12.51772 -17.21976,-17.30918 -0.39903,-1.7541 -0.91366,-12.86427 -1.14361,-24.68927 -0.26809,-13.78617 -0.84994,-22.43684 -1.62174,-24.11117 -0.66201,-1.43614 -2.7775,-3.36168 -4.70109,-4.27898 -1.92359,-0.9173 -5.21573,-3.04866 -7.31585,-4.73637 l -3.8184,-3.06855 -6.60165,3.84754 c -10.27834,5.99036 -18.83436,10.4561 -21.57214,11.25937 -2.46996,0.7247 -2.5012,0.87084 -2.60022,12.16084 -0.29611,33.7626 -0.42591,36.92732 -1.51458,36.92732 -0.80263,0 -0.97078,-6.55648 -0.6005,-23.41431 l 0.51429,-23.41431 -3.3995,-3.71138 c -3.01021,-3.28639 -3.39949,-3.46341 -3.39949,-1.54585 0,1.19104 0.97648,4.0601 2.16996,6.37569 2.44268,4.73928 3.01764,15.02216 1.05821,18.92555 -2.97813,5.93275 -5.22817,15.5403 -5.22817,22.32404 0,3.96501 -0.675,9.12227 -1.5,11.46057 -0.83701,2.37233 -1.5,7.66602 -1.5,11.97679 0,8.63461 1.8073,13.13118 9.08985,22.61558 5.29031,6.88983 5.20304,9.64216 -0.37328,11.77177 -5.51368,2.1057 -10.62671,2.08031 -13.74406,-0.0682 z m 9.09323,-1.33107 c 2.82365,-1.51118 2.4263,-3.30513 -0.56574,-2.55418 -2.78383,0.6987 -7.5,-0.19319 -7.5,-1.41835 0,-0.435 2.12621,-0.96001 4.72491,-1.16669 3.61488,-0.2875 5.16009,0.0594 6.57732,1.47663 1.01882,1.01882 2.52408,1.59466 3.34501,1.27964 1.16091,-0.44548 0.50486,-1.85162 -2.95207,-6.32732 -8.00742,-10.36723 -9.83141,-14.41292 -10.37113,-23.00366 -0.38881,-6.18864 -0.0674,-8.9414 1.5945,-13.65744 1.1448,-3.2486 2.08146,-7.7261 2.08146,-9.95 0,-5.60976 -1.74916,-3.50072 -2.72599,3.28683 -0.4257,2.95807 -1.22401,5.19638 -1.77401,4.97402 -1.63148,-0.65961 -0.48584,-8.06403 1.99661,-12.9043 5.52026,-10.76338 7.55109,-21.60392 4.84016,-25.83676 -1.9671,-3.07145 -0.91666,-3.98815 1.80338,-1.57378 l 2.1524,1.91054 -0.53539,-4.13271 c -0.29446,-2.273 -1.75304,-6.2105 -3.24129,-8.75 l -2.70591,-4.61729 -5.86603,0 c -4.73665,0 -6.25637,0.419 -7.89354,2.17629 -3.42099,3.672 -3.43317,5.55211 -0.0699,10.79329 2.79032,4.34832 3.18177,5.87395 3.51824,13.71157 0.20823,4.85037 1.08992,10.81263 1.95931,13.24948 0.95141,2.66673 1.21786,4.79348 0.66928,5.34206 -0.54858,0.54858 -1.38339,-0.51861 -2.09692,-2.68063 -0.65203,-1.97563 -1.56453,-3.59206 -2.02779,-3.59206 -0.46326,0 -1.53985,3.06692 -2.39242,6.81538 -1.44558,6.35573 -1.4237,7.35052 0.32441,14.75 2.53398,10.72592 3.02211,15.09882 2.05992,18.45378 -0.58551,2.04152 -0.11036,5.00705 1.70715,10.65486 4.22179,13.11895 3.36585,12.02259 11.11408,14.23579 0.17366,0.0496 1.18616,-0.37564 2.25,-0.94499 z m -13.06574,-20.31118 c 0,-1.29453 3.33503,-6.65364 4.14063,-6.65364 1.1057,0 0.19676,3.77233 -1.38546,5.75 -0.90999,1.13742 -2.75517,1.7426 -2.75517,0.90364 z m 7.25,-50.37192 c -1.97338,-0.70787 -1.45605,-2.28172 0.75,-2.28172 1.1,0 2,0.42344 2,0.94098 0,1.28004 -1.2374,1.88333 -2.75,1.34074 z m -3.21858,-14.49654 c 0.0282,-1.15125 4.96858,-5.5399 4.96858,-4.41365 0,1.56738 -1.50115,3.82631 -3.11765,4.69143 -1.39093,0.74441 -1.87415,0.67189 -1.85093,-0.27778 z m 0.509,-20.62269 6.63919,0.33751 -0.63708,-3.97175 c -0.38822,-2.42024 -2.27882,-6.1226 -4.83981,-9.47779 -2.31149,-3.02832 -5.04214,-6.86603 -6.0681,-8.52825 -1.02597,-1.66221 -2.00936,-3.18061 -2.18534,-3.37421 -0.17597,-0.1936 -1.34917,0.3689 -2.60712,1.25 -3.51095,2.45917 -4.70949,1.83059 -1.50631,-0.78999 l 2.83586,-2.32006 -3.83586,-3.75673 c -2.10972,-2.0662 -3.27335,-3.45443 -2.58585,-3.08496 1.80809,0.9717 1.52679,-0.50842 -0.75,-3.94626 -1.09275,-1.65 -1.98979,-2.354 -1.99341,-1.56445 -0.004,0.78955 -0.88728,2.373 -1.96368,3.51878 -1.62891,1.73389 -2.00018,3.757 -2.214,12.06445 l -0.25691,9.98122 3.714,5.23974 c 2.54427,3.58949 3.714,6.31955 3.714,8.66822 0,6.35753 0.83822,6.90598 4.54608,2.9745 3.27935,-3.47712 3.50512,-3.54986 9.99434,-3.21997 z m -17.3189,1.11043 c -0.29305,-2.59989 -1.02527,-5.26854 -1.62717,-5.93033 -0.60189,-0.66179 -2.16886,-2.98958 -3.48215,-5.17287 -2.38017,-3.9569 -2.39932,-3.96562 -5.9849,-2.72426 -3.52739,1.22121 -3.59738,1.34978 -3.6122,6.63514 l -0.0151,5.3898 6,2.29381 c 3.3,1.26159 6.675,2.70429 7.5,3.20599 0.825,0.5017 1.55723,0.93865 1.62717,0.97099 0.0699,0.0324 -0.1126,-2.06837 -0.40565,-4.66827 z m 41.98799,-0.3517 c 1.49023,-1.05667 2.97369,-1.92122 3.29659,-1.92122 0.95916,0 16.72446,-9.11904 20.2439,-11.70957 3.60794,-2.65568 4.1495,-5.56119 1.69083,-9.07144 -1.7791,-2.54002 -2.82773,-2.19151 -8.37181,2.78233 -2.81702,2.52727 -3.98018,2.96397 -6.5,2.44036 -9.56381,-1.98731 -17.8005,-9.07394 -26.56902,-22.85929 -5.48091,-8.61675 -5.51215,-8.64461 -9,-8.02292 -5.61057,1.00005 -9.71888,3.08185 -11.52668,5.8409 -1.61506,2.4649 -1.57776,2.7457 0.93409,7.03184 1.43897,2.45543 3.04256,4.72785 3.56352,5.04982 0.52096,0.32197 3.51901,4.50773 6.66234,9.30169 3.14333,4.79395 6.08675,8.86628 6.54094,9.04961 0.45418,0.18334 0.82579,0.79472 0.82579,1.35864 0,0.56391 2.12234,3.91579 4.71632,7.44861 4.38186,5.96778 4.93146,6.37999 7.75,5.81258 1.66852,-0.3359 4.25296,-1.47527 5.74319,-2.53194 z m 17.16364,-23.17122 c 7.20969,-5.50919 10.47117,-9.88957 18.42803,-24.75 1.9142,-3.575 4.07506,-7.60445 4.80192,-8.95434 1.21714,-2.26041 1.05476,-2.72114 -2.05512,-5.83102 -3.02472,-3.02471 -3.62014,-3.24988 -5.71233,-2.16021 -1.28461,0.66907 -2.47946,1.33683 -2.65522,1.48393 -0.17576,0.14709 0.65706,2.53767 1.85072,5.3124 1.73536,4.03398 1.96552,5.60649 1.14851,7.8471 l -1.02177,2.80214 -0.0789,-3.28324 c -0.10046,-4.17759 -4.4091,-12.74866 -7.33668,-14.59465 -4.06702,-2.56445 -6.34258,-2.76635 -8.7952,-0.78033 -1.88443,1.52591 -2.32148,2.82513 -2.2785,6.77315 0.058,5.32544 4.01794,13.61174 7.35961,15.40015 3.26565,1.74772 7.73567,1.16015 9.41512,-1.23759 1.5724,-2.24492 2.31455,-0.49954 0.79139,1.86119 -1.12836,1.74881 -8.29103,3.43115 -10.1406,2.38177 -1.12382,-0.63761 -3.10356,-0.0562 -6.71078,1.97087 -3.81238,2.14235 -5.40558,2.58641 -6.25,1.74199 -0.62336,-0.62332 -1.13335,-1.49381 -1.13335,-1.93442 0,-1.10799 -8.02367,-8.79889 -9.1796,-8.79889 -0.51614,0 -0.66134,-0.44835 -0.32267,-0.99633 0.84716,-1.37073 6.15281,1.47484 7.5228,4.03469 1.11867,2.09026 3.17706,1.82849 2.51932,-0.32039 -0.20504,-0.66988 -0.63888,-2.43523 -0.96409,-3.923 -0.78451,-3.58895 -7.36425,-8.75524 -8.60133,-6.7536 -1.53931,2.49067 -2.39404,0.008 -1.16623,-3.3875 2.08338,-5.76149 1.51599,-8.61196 -2.46077,-12.36253 -2.33528,-2.20245 -4.31883,-3.27058 -5.5,-2.96169 -2.80851,0.73444 -2.20578,-1.24291 0.71767,-2.3544 3.52272,-1.33934 4.46779,-1.22453 3.81983,0.46401 -0.32066,0.83564 0.37384,1.989 1.65593,2.75 1.21453,0.72091 3.24674,3.51605 4.51604,6.21144 l 2.30782,4.9007 0.97745,-3.4007 c 0.95375,-3.31825 0.97964,-3.27342 1.06764,1.8493 0.0496,2.8875 0.47883,5.25 0.95383,5.25 0.475,0 2.05,1.18636 3.5,2.63636 2.91228,2.91229 3.11749,2.75932 1.61164,-1.20139 -0.71446,-1.87915 -0.67798,-4.4577 0.12047,-8.51614 1.11975,-5.6916 0.73593,-11.0608 -0.98467,-13.77431 -0.70927,-1.11857 -1.30883,-1.06106 -3.43046,0.32909 -2.19044,1.43523 -2.43002,2.05532 -1.61865,4.1894 1.56458,4.11515 -0.2077,4.94288 -2.21324,1.03367 -1.09915,-2.14246 -3.27794,-4.28105 -5.37569,-5.2765 -3.74954,-1.77927 -7.47304,-5.79276 -7.47304,-8.05504 0,-0.75083 -0.50751,-1.36514 -1.12781,-1.36514 -0.75283,0 -0.91835,1.30985 -0.49783,3.93964 0.34648,2.16681 0.20173,4.20431 -0.32167,4.52779 -1.26172,0.77979 -2.41033,-5.60398 -1.74731,-9.71124 0.2891,-1.7909 0.84861,-5.17392 1.24336,-7.51782 l 0.71772,-4.26163 -6.92303,3.42145 c -6.74154,3.33176 -7.03458,3.63676 -11.1778,11.63373 -2.34012,4.51676 -4.12221,8.3436 -3.96019,8.5041 0.16201,0.1605 1.34138,-0.55686 2.62082,-1.59414 1.68616,-1.36702 2.14113,-2.46928 1.65344,-4.00584 -0.53653,-1.69044 -0.30294,-2.04865 1.15307,-1.76824 2.23864,0.43112 3.96242,4.92369 2.86436,7.46519 -0.73529,1.70186 -0.84317,1.7148 -1.21956,0.14634 -0.37812,-1.57565 -0.77934,-1.53351 -4.76048,0.5 -6.35941,3.24829 -7.57132,6.52169 -8.20897,22.17265 l -0.5316,13.04802 2.69878,-2.5 c 1.48433,-1.375 3.43164,-3.7375 4.32735,-5.25 1.23658,-2.0881 2.39903,-2.75 4.82962,-2.75 4.18499,0 4.73098,-1.84235 1.55588,-5.25 -2.1449,-2.302 -2.27831,-2.75 -0.81887,-2.75 2.65475,0 6.91591,5.27535 12.27981,15.2025 2.668,4.93776 5.60996,9.38779 6.53768,9.88897 0.92772,0.50117 2.64017,2.59811 3.80544,4.65987 1.49376,2.643 4.09322,4.84008 8.81322,7.44903 3.68202,2.0352 7.50907,3.7227 8.50456,3.75 0.9955,0.0273 3.72392,-1.41287 6.06316,-3.20037 z m -21.74035,-12.72122 c -1.55305,-3.52006 -1.96737,-3.83678 -3.64697,-2.78786 -2.71392,1.69487 -3.42971,0.36616 -1.43927,-2.67164 2.09865,-3.20293 3.63978,-2.24564 6.50294,4.03938 2.17582,4.77622 2.30622,5.39134 1.14295,5.39134 -0.44416,0 -1.596,-1.78705 -2.55965,-3.97122 z m -11.8828,-18.19106 c -2.62168,-0.95752 -3.81236,-2.83772 -1.79705,-2.83772 1.6683,0 6.04705,2.28857 6.04705,3.16051 0,1.02503 -0.70663,0.97136 -4.25,-0.32279 z m -10.57792,-15.64853 c -2.31044,-1.80171 -2.27128,-1.8165 5.21146,-1.96912 4.28191,-0.0873 7.81534,0.2927 8.17806,0.8796 0.89826,1.45341 0.6037,1.57403 -5.5616,2.2774 -4.44495,0.50711 -5.94656,0.27924 -7.82792,-1.18788 z m 40.56632,23.81081 c -2.62739,-4.45983 -5.69156,-7.89555 -8.2384,-9.23733 -1.88728,-0.9943 -1.90817,-0.94686 -0.37059,0.84182 3.06933,3.57058 4.59432,7.84344 4.12879,11.56844 l -0.45902,3.67292 3.50057,-1.67292 3.50057,-1.67293 -2.06192,-3.5 z m -39.88762,-4.09782 c 4.53836,-1.58209 3.88118,-2.87531 -0.85078,-1.67421 -2.2,0.55842 -4,1.41057 -4,1.89367 0,1.15517 1.04284,1.10799 4.85078,-0.21946 z m 78.62354,-3.85252 c 2.21858,-4.29026 1.8782,-8.59199 -1.07914,-13.6383 -4.12567,-7.03994 -9.29607,-9.32076 -13.64518,-6.01931 -2.48387,1.88552 -2.25435,2.71325 2.35891,8.50727 3.87819,4.8708 4.03854,5.33048 2.85564,8.18627 -1.33799,3.23018 -0.76398,4.40773 2.53545,5.20134 4.2595,1.02455 5.49202,0.62917 6.97432,-2.23727 z m -46.8492,-28.8219 c 1.16882,-0.95027 3.98132,-4.84935 6.25,-8.66462 3.53326,-5.94194 4.11972,-7.73477 4.08892,-12.5 -0.0275,-4.24846 -0.55919,-6.18481 -2.25,-8.19377 -2.57594,-3.06063 -7.70306,-5.86937 -10.71404,-5.86937 -6.84336,0 -15.37976,10.23334 -13.54957,16.24306 0.37803,1.24132 0.92535,4.95694 1.21626,8.25694 0.3715,4.21423 1.16947,6.70221 2.68112,8.35936 3.91306,4.28972 8.76328,5.22537 12.27731,2.3684 z m 30.46057,144.93236 c -0.64748,-1.20983 -0.74369,-2.91042 -0.24146,-4.26807 0.74442,-2.01237 0.9031,-1.83652 1.4645,1.62302 0.73429,4.5249 0.29337,5.47848 -1.22304,2.64505 z m -8.58935,-47.56385 c -1.07984,-0.60295 -3.85185,-2.33377 -6.16002,-3.84627 -3.19296,-2.09228 -5.4169,-2.75 -9.29861,-2.75 -4.63615,0 -12.03771,-2.11281 -12.03771,-3.43622 0,-0.79549 14.99304,0.4634 18.62908,1.56419 1.721,0.52103 3.92996,1.83228 4.90881,2.91389 0.97884,1.08162 3.50826,2.43202 5.62091,3.0009 2.11266,0.56888 3.8412,1.4145 3.8412,1.87915 0,1.41759 -3.42172,1.83685 -5.50366,0.67436 z m -2.74634,-7.16824 c -1.5125,-0.82055 -2.75,-2.13897 -2.75,-2.92983 0,-1.06024 0.96072,-0.78596 3.65767,1.04424 3.40496,2.31067 3.78238,2.36929 5.46275,0.84858 1.63282,-1.47768 1.67035,-1.95601 0.39335,-5.0123 -1.5952,-3.81787 -0.42565,-4.5187 1.92953,-1.15621 2.04932,2.92581 1.9664,5.09674 -0.27204,7.1225 -2.23623,2.02377 -4.79736,2.04901 -8.42126,0.083 z"
       id="path3738"
       inkscape:connector-curvature="0" />
  </g>
</svg>
