<?xml version="1.0" encoding="UTF-8" standalone="no"?>
<!-- Created with Inkscape (http://www.inkscape.org/) -->

<svg
   xmlns:dc="http://purl.org/dc/elements/1.1/"
   xmlns:cc="http://creativecommons.org/ns#"
   xmlns:rdf="http://www.w3.org/1999/02/22-rdf-syntax-ns#"
   xmlns:svg="http://www.w3.org/2000/svg"
   xmlns="http://www.w3.org/2000/svg"
   xmlns:xlink="http://www.w3.org/1999/xlink"
   xmlns:sodipodi="http://sodipodi.sourceforge.net/DTD/sodipodi-0.dtd"
   xmlns:inkscape="http://www.inkscape.org/namespaces/inkscape"
   width="120.49303"
   height="227.06534"
   id="svg2"
   version="1.1"
   inkscape:version="0.48.3.1 r9886"
   sodipodi:docname="One-arm-triceps-extension-1.svg">
  <defs
     id="defs4">
    <radialGradient
       gradientUnits="userSpaceOnUse"
       gradientTransform="matrix(1,0,0,0.91819829,-19.285714,-7.9105395)"
       r="209.56604"
       fy="287.50052"
       fx="398.1105"
       cy="287.50052"
       cx="398.1105"
       id="radialGradient5255"
       xlink:href="#linearGradient5249"
       inkscape:collect="always" />
    <linearGradient
       id="linearGradient5249"
       inkscape:collect="always">
      <stop
         id="stop5251"
         offset="0"
         style="stop-color:#e3e3e3;stop-opacity:1;" />
      <stop
         id="stop5253"
         offset="1"
         style="stop-color:#e3e3e3;stop-opacity:0;" />
    </linearGradient>
  </defs>
  <sodipodi:namedview
     id="base"
     pagecolor="#ffffff"
     bordercolor="#666666"
     borderopacity="1.0"
     inkscape:pageopacity="0.0"
     inkscape:pageshadow="2"
     inkscape:zoom="1.979899"
     inkscape:cx="-12.480648"
     inkscape:cy="59.467894"
     inkscape:document-units="px"
     inkscape:current-layer="layer1"
     showgrid="false"
     showguides="true"
     inkscape:guide-bbox="true"
     fit-margin-top="0"
     fit-margin-left="0"
     fit-margin-right="0"
     fit-margin-bottom="0"
     inkscape:window-width="1201"
     inkscape:window-height="886"
     inkscape:window-x="83"
     inkscape:window-y="39"
     inkscape:window-maximized="0">
    <sodipodi:guide
       orientation="-0.70710678,0.70710678"
       position="-2031.5777,519.63369"
       id="guide2985" />
  </sodipodi:namedview>
  <metadata
     id="metadata7">
    <rdf:RDF>
      <cc:Work
         rdf:about="">
        <dc:format>image/svg+xml</dc:format>
        <dc:type
           rdf:resource="http://purl.org/dc/dcmitype/StillImage" />
        <dc:title></dc:title>
      </cc:Work>
    </rdf:RDF>
  </metadata>
  <g
     inkscape:label="Ebene 1"
     inkscape:groupmode="layer"
     id="layer1"
     transform="translate(-603.00621,-319.21625)">
    <path
       style="fill:#000000"
       d="m 649.81401,544.52091 c -3.36784,-2.55976 -5.96963,-12.22346 -5.78753,-21.49633 0.0577,-2.94036 -0.6767,-8.66186 -1.6321,-12.71444 -1.65486,-7.01954 -1.65328,-7.64218 0.0333,-13.15388 3.8874,-12.70384 3.25913,-22.57438 -1.57886,-24.80509 -1.54967,-0.71453 -2.182,-2.00125 -2.33128,-4.74389 -0.11266,-2.06988 -0.41312,-3.9717 -0.66769,-4.22627 -0.25456,-0.25457 -2.76578,0.4122 -5.58048,1.4817 -3.84438,1.46074 -5.26014,1.64144 -5.6904,0.72627 -0.44575,-0.94814 -0.70211,-0.9411 -1.15609,0.0317 -0.82146,1.76026 -3.41383,1.54483 -6.9022,-0.57357 -2.59055,-1.57318 -3.31821,-1.63599 -5.5,-0.47478 -1.38296,0.73605 -3.75197,1.76815 -5.26447,2.29356 -2.02161,0.70226 -2.75,1.62402 -2.75,3.48004 0,3.04601 0.10649,3.05338 6.88519,0.47696 2.96185,-1.12574 6.11185,-1.90382 7,-1.72908 0.88815,0.17474 -1.74652,1.5191 -5.85483,2.98745 -8.27291,2.95686 -10.03036,2.5575 -10.03036,-2.27929 0,-2.52999 0.60206,-3.04335 5.78585,-4.93346 l 5.78586,-2.10963 -0.0953,-6.19409 c -0.15502,-10.07885 -1.63897,-19.03121 -3.56517,-21.50791 -1.84283,-2.36952 -1.66922,-3.95367 0.86792,-7.9193 0.78579,-1.22821 1.51568,-4.60321 1.62198,-7.5 0.18932,-5.15922 3.08974,-12.76688 4.86738,-12.76688 0.49396,0 0.63591,0.5625 0.31543,1.25 -0.32048,0.6875 -0.86047,2.0375 -1.19997,3 -0.3395,0.9625 -0.96561,1.75 -1.39135,1.75 -1.4854,0 -2.22839,21.20943 -0.98087,28 0.65677,3.575 1.22078,9.71396 1.25335,13.64213 0.0581,7.00644 0.11915,7.1707 3.21383,8.64645 2.83927,1.35395 3.42285,1.34158 5.83782,-0.12374 3.3279,-2.01925 3.3568,-3.21087 0.16976,-6.99846 -3.47303,-4.12745 -4.67759,-11.22465 -2.8994,-17.083 1.83596,-6.04866 1.80919,-10.99406 -0.0634,-11.71264 -1.20376,-0.46192 -1.01918,-1.16572 1,-3.813 1.36193,-1.78559 2.47624,-3.88571 2.47624,-4.66694 0,-0.78123 0.92532,-3.14687 2.05627,-5.25697 1.13095,-2.1101 1.91845,-4.79622 1.75,-5.96915 -0.30347,-2.11309 -0.32686,-2.11044 -2.55627,0.28992 -1.78264,1.91932 -2.25,2.07909 -2.25,0.76915 0,-1.97066 3.5695,-4.10293 5.57814,-3.33214 1.78245,0.68399 1.81035,3.34033 0.0701,6.67504 -2.78924,5.34489 -2.81603,7.5934 -0.11159,9.36542 1.3859,0.90808 2.91867,1.40454 3.40616,1.10326 0.48749,-0.30129 1.09099,0.0175 1.3411,0.70844 0.34077,0.94135 0.92615,0.98339 2.33541,0.16774 2.43807,-1.41111 9.37924,-0.57877 10.06445,1.20686 0.71558,1.86475 4.31621,1.766 4.31621,-0.11837 0,-0.825 0.86968,-1.5 1.93261,-1.5 2.14519,0 3.45488,-2.82664 2.48308,-5.35912 -0.85134,-2.21854 -1.65539,-2.07485 -4.82448,0.86217 -2.24821,2.08358 -3.33967,2.4009 -6.51277,1.8935 -2.21227,-0.35375 -4.73397,-0.11609 -6.00911,0.56634 -1.6886,0.90372 -2.52958,0.90003 -3.63325,-0.0159 -1.64306,-1.36365 -1.92848,-3.94699 -0.43608,-3.94699 0.55,0 1,0.675 1,1.5 0,1.89002 1.88369,1.96666 2.59781,0.10569 0.62106,-1.61845 6.76379,-1.3804 8.83984,0.34257 0.9929,0.82403 1.70815,0.47817 2.95894,-1.43077 0.90723,-1.38462 2.266,-2.51749 3.01947,-2.51749 2.26504,0 2.68635,-2.87483 0.58604,-3.99888 -1.59668,-0.85451 -2.19373,-0.55982 -3.51467,1.73475 l -1.59125,2.76413 0.6312,-2.98998 c 0.34715,-1.64449 1.09532,-3.27684 1.6626,-3.62744 1.44361,-0.89219 4.88325,0.14468 5.45924,1.64568 0.27358,0.71295 1.36875,1.0183 2.5471,0.71015 1.41496,-0.37002 2.66835,0.21698 3.97267,1.86051 l 1.90552,2.40108 -0.65216,-4.75908 c -0.41412,-3.02202 -0.23615,-5.26035 0.48759,-6.1324 0.62686,-0.75533 1.04054,-2.67539 0.91927,-4.26681 -0.12126,-1.59142 0.68439,-4.23184 1.79033,-5.8676 1.10593,-1.63576 3.05826,-4.50535 4.3385,-6.37687 2.06839,-3.02367 2.3499,-4.68879 2.52687,-14.94629 0.21253,-12.31836 -1.34126,-19.17483 -5.33782,-23.55444 -1.05223,-1.15308 -2.63595,-3.44651 -3.51939,-5.09651 -0.88343,-1.65 -3.35134,-4.95952 -5.48424,-7.3545 l -3.878,-4.3545 -3.29967,2.94826 c -2.24614,2.00692 -3.09397,3.48432 -2.65541,4.62718 0.89119,2.32243 3.59834,3.17166 5.77573,1.81186 2.04746,-1.27866 3.22874,-0.16235 2.32377,2.19596 -0.32814,0.85511 0.3454,2.87769 1.49675,4.49462 1.15135,1.61692 2.09337,3.51664 2.09337,4.2216 0,0.70496 0.71649,4.13866 1.5922,7.63045 1.44465,5.76042 1.44744,6.56963 0.03,8.73283 -1.20333,1.83652 -1.42123,3.8931 -0.94866,8.95369 l 0.61347,6.56955 2.35525,-2.7385 c 1.90371,-2.21349 2.35548,-2.39654 2.35647,-0.9548 7.2e-4,0.98104 -1.34873,3.10337 -2.99873,4.7163 -3.24542,3.1725 -3.70326,6.41334 -2.08679,14.77154 0.45888,2.37265 0.43952,4.51046 -0.0436,4.80901 -0.47831,0.29562 -0.86966,0.13886 -0.86966,-0.34834 0,-0.4872 -1.41392,-0.6783 -3.14205,-0.42467 -2.17659,0.31946 -2.92663,0.1126 -2.44098,-0.67319 0.38558,-0.62389 1.62018,-1.13435 2.74354,-1.13435 1.92968,0 2.00353,-0.38779 1.33723,-7.02252 -0.45334,-4.51418 -0.32595,-7.47955 0.35666,-8.30204 1.15177,-1.38774 0.44475,-5.67544 -0.9358,-5.67544 -0.4665,0 -1.36924,1.0125 -2.00609,2.25 -1.5811,3.07234 -9.83961,10.6769 -10.47629,9.64672 -0.77949,-1.26124 -6.59079,0.0682 -9.64568,2.20662 -3.02743,2.11921 -4.79049,2.42749 -4.79049,0.83764 0,-0.58246 0.45,-0.7809 1,-0.44098 0.55,0.33992 1,0.14148 1,-0.44098 0,-0.58246 -1.15156,-1.05902 -2.55902,-1.05902 -1.59195,0 -2.30448,-0.41184 -1.88548,-1.08981 0.39515,-0.63935 1.99944,-0.84106 3.88136,-0.48801 2.04003,0.38271 4.38687,0.0136 6.44659,-1.01393 2.98216,-1.48769 3.11509,-1.75239 1.67766,-3.34072 -0.85861,-0.94876 -1.55612,-2.13958 -1.55002,-2.64627 0.006,-0.50669 1.16371,0.54124 2.57248,2.32874 1.40876,1.7875 3.09127,3.23789 3.73891,3.2231 0.64763,-0.0148 2.75252,-1.40023 4.67752,-3.07873 l 3.5,-3.05183 -3.84739,0.53166 c -4.76994,0.65915 -11.01018,-1.68606 -12.45788,-4.68195 -1.03267,-2.13701 -1.06108,-2.12519 -1.12705,0.46886 -0.0679,2.67143 -1.86863,4.52814 -9.54201,9.83889 -7.97448,5.51914 -8.52197,6.12467 -9.16319,10.13463 -0.40918,2.55886 -0.98353,3.64432 -1.6014,3.02645 -1.1223,-1.1223 -0.20647,-5.98761 1.53622,-8.16108 1.64927,-2.05696 7.33514,-6.16814 12.48433,-9.0268 4.99696,-2.77416 6.50592,-6.96094 4.13509,-11.4732 -0.28898,-0.55 -0.63605,-3.36037 -0.77125,-6.24527 -0.20852,-4.44896 0.13442,-5.62553 2.25889,-7.75 3.87029,-3.87029 10.9761,-3.26351 15.575,1.32999 1.14347,1.14212 1.52064,3.83089 1.52064,10.84028 0,5.12678 0.225,9.30801 0.5,9.29161 1.68131,-0.10025 5.8953,-5.07588 5.39752,-6.37306 -0.32062,-0.83555 0.1549,-3.74066 1.05673,-6.4558 1.56422,-4.70942 1.54158,-5.32096 -0.49178,-13.28719 -1.17231,-4.59281 -2.28869,-8.50831 -2.48085,-8.70111 -0.19217,-0.1928 -1.36399,0.5947 -2.60407,1.75 -2.99467,2.78996 -5.07283,2.64855 -8.94372,-0.60859 -3.40796,-2.8676 -7.90767,-11.34331 -7.92406,-14.92585 -0.006,-1.22497 1.14478,-2.89148 2.69891,-3.90979 2.61952,-1.71637 2.83552,-1.70532 6.56144,0.33556 3.12295,1.71061 4.30694,1.90342 6.25053,1.01785 1.9042,-0.8676 2.20033,-1.46146 1.43857,-2.88482 -1.76887,-3.30518 -1.04872,-7.31277 1.67019,-9.2944 2.55084,-1.85915 2.59189,-1.85279 6.70603,1.03874 4.87734,3.42792 10.25583,12.89357 9.20591,16.20156 -0.36468,1.14901 -1.95908,2.85469 -3.54311,3.7904 l -2.88006,1.70129 2.89863,3.65983 c 4.8207,6.08663 6.3191,12.0447 6.17779,24.56481 -0.13482,11.94631 -1.68666,17.4371 -6.83633,24.18867 -2.30408,3.0208 -2.49815,4.10162 -2.48304,13.82855 0.009,5.80339 -0.36884,11.56483 -0.83967,12.80321 -1.42434,3.7463 -1.55691,14.89475 -0.20623,17.34353 0.8818,1.5987 2.17161,2.25691 4.45585,2.27386 4.06486,0.0302 10.81811,1.57368 11.61111,2.65382 0.33204,0.45228 2.38809,1.64874 4.56901,2.65881 2.18091,1.01007 5.55769,3.03507 7.50395,4.5 1.94625,1.46493 4.43687,3.15573 5.5347,3.75734 1.09783,0.6016 3.02124,2.59948 4.27424,4.43972 1.92939,2.83361 2.19182,4.1972 1.71403,8.90617 -0.31029,3.05815 -0.18244,11.53407 0.28411,18.83536 l 0.84827,13.27509 4.90011,4.97491 c 2.69506,2.73621 5.70452,4.97492 6.6877,4.97492 2.40382,0 5.87737,3.60245 5.19305,5.38576 -1.34294,3.49965 -10.08434,4.46201 -15.27871,1.68207 -1.29604,-0.69361 -3.76725,-1.05051 -5.49159,-0.7931 -1.72434,0.25741 -4.20108,0.0667 -5.50388,-0.42374 -2.25849,-0.85027 -2.33533,-1.18163 -1.65123,-7.12138 1.27292,-11.05223 1.01808,-15.01622 -1.28096,-19.92475 -2.18704,-4.6694 -2.65167,-10.03091 -1.28299,-14.80486 0.51296,-1.78918 0.88718,-0.32298 1.31616,5.15672 0.35746,4.56621 1.27581,8.68907 2.2752,10.21433 1.37744,2.10223 1.61498,4.56695 1.33417,13.84327 l -0.34163,11.28568 6.5,0.77096 c 3.575,0.42403 8.55119,1.02414 11.05819,1.33358 3.39756,0.41936 4.8827,0.17161 5.83265,-0.97301 1.08883,-1.31196 0.71624,-1.76834 -2.55819,-3.13343 -2.10796,-0.8788 -5.93932,-3.80365 -8.51414,-6.49968 -5.61614,-5.88052 -5.84773,-6.99582 -6.21109,-29.91102 -0.25427,-16.03525 -0.31598,-16.45628 -2.68384,-18.31236 -8.18633,-6.41695 -18.03156,-11.74958 -21.72133,-11.76527 -3.53439,-0.015 -6.8603,4.30274 -7.50774,9.74671 -0.69298,5.82691 0.72326,7.24285 7.24662,7.24507 2.64153,9e-4 6.03088,0.81798 8.05887,1.94277 1.925,1.06766 4.7375,2.46098 6.25,3.09627 1.5125,0.63528 2.75,1.60982 2.75,2.16564 0,1.3433 -5.08272,0.0706 -6.92658,-1.73433 -1.22452,-1.19869 -1.57978,-1.08921 -2.50818,0.77296 -0.76564,1.53573 -3.56212,2.97276 -9.57341,4.9195 -4.67051,1.51253 -9.27933,2.76931 -10.24183,2.79285 -1.5616,0.0382 -1.75,1.26747 -1.75,11.41867 l 0,11.37589 6.66472,-2.41916 c 6.48177,-2.35276 11.52392,-2.45443 12.88032,-0.25973 0.31239,0.50545 -0.0199,2.09671 -0.73853,3.53613 -1.06627,2.13588 -3.76989,3.51938 -14.70326,7.52397 -7.36822,2.69877 -13.61941,4.6842 -13.89154,4.41207 -0.6077,-0.60771 5.52757,-3.27138 17.58877,-7.63627 8.5802,-3.10514 10.97578,-4.84375 9.64375,-6.99902 -0.89874,-1.45418 -3.59467,-1.07957 -11.44423,1.59024 -4.04267,1.375 -7.52089,2.5 -7.72938,2.5 -0.20849,0 -0.32838,-4.8375 -0.26642,-10.75 0.15462,-14.75364 0.15096,-14.80516 -0.97147,-13.68273 -1.92618,1.92618 -5.03298,13.82288 -5.04355,19.313 -0.006,3.09085 -0.68096,7.82875 -1.5,10.52866 -3.08927,10.18349 -0.73687,19.82806 6.8263,27.98709 1.47648,1.59282 2.68452,3.69736 2.68452,4.67676 0,3.85812 -11.3168,6.52298 -15.19221,3.57743 z m 9.19221,-2.0099 c 0,-0.96713 -1.15487,-1.27744 -4,-1.07478 -2.2,0.1567 -4,-0.13144 -4,-0.64031 0,-0.50887 2.00264,-0.92522 4.45031,-0.92522 3.19557,0 4.72871,0.4934 5.43772,1.75 0.68396,1.21219 1.31001,1.43118 2.03711,0.71258 0.73075,-0.7222 0.20073,-2.08953 -1.7443,-4.5 -8.37515,-10.37923 -10.98058,-20.23238 -7.81029,-29.53667 1.81846,-5.33691 2.27989,-12.97979 0.62945,-10.42591 -0.53316,0.825 -0.97627,2.93594 -0.98469,4.69098 -0.008,1.75504 -0.46531,3.4691 -1.01531,3.80902 -1.94115,1.19969 -0.9709,-6.02198 1.47787,-11 3.06669,-6.23417 3.19014,-8.5 0.46311,-8.5 -1.13246,0 -1.78015,-0.45122 -1.43931,-1.0027 0.40926,-0.66221 1.24432,-0.66843 2.45906,-0.0183 1.3847,0.74107 1.98764,0.59794 2.43931,-0.57908 0.96986,-2.52743 0.68725,-10.22792 -0.40004,-10.8999 -0.55,-0.33992 -1,-1.11122 -1,-1.714 0,-0.60279 0.9,-0.28149 2,0.714 1.94765,1.7626 2,1.74663 2,-0.60982 0,-2.60671 -3.53491,-9.92264 -5.37532,-11.12487 -2.02401,-1.32216 -8.44356,-0.80357 -10.0598,0.81267 -3.26344,3.26343 -3.6284,5.07156 -1.55556,7.70674 2.15397,2.73833 4.49867,11.94911 3.62279,14.23159 -0.303,0.78961 0.10095,3.58396 0.89767,6.20967 1.9067,6.28386 1.79456,8.51848 -0.23957,4.77402 l -1.62972,-3 -1.28514,3 c -1.74361,4.07024 -1.68259,10.05111 0.18471,18.10273 0.88809,3.82939 1.29315,8.30661 0.94041,10.3945 -0.42766,2.53125 0.0183,5.34626 1.43944,9.08522 1.13249,2.97965 2.05931,6.18269 2.05959,7.11786 6.6e-4,2.22382 2.7006,3.73139 6.7505,3.76928 2.08808,0.0195 3.25,-0.4557 3.25,-1.32928 z m -10.45194,-17.73324 c 0.87968,-1.70111 1.80382,-2.88852 2.05365,-2.63869 0.76792,0.76792 -1.48603,5.73162 -2.60264,5.73162 -0.61558,0 -0.38831,-1.2804 0.54899,-3.09293 z m 2.95749,-50.9132 c 0.99854,-1.10337 2.03241,-1.78925 2.29749,-1.52417 0.67193,0.67194 -1.82222,3.5303 -3.08047,3.5303 -0.5679,0 -0.21556,-0.90276 0.78298,-2.00613 z m 20.49445,0.46719 c 10.25626,-2.59453 12.94247,-3.96503 12.33378,-6.29269 -0.41136,-1.57303 -1.61034,-2.10172 -5.67763,-2.50352 -8.57674,-0.84729 -11.98393,-1.84951 -13.79775,-4.0586 -1.6183,-1.97096 -1.83873,-1.99875 -3.43183,-0.4326 -1.47089,1.44602 -1.54767,2.28833 -0.56451,6.19282 0.62587,2.48555 1.13794,5.70023 1.13794,7.14374 0,2.029 0.39711,2.50777 1.75,2.10986 0.9625,-0.28309 4.675,-1.25465 8.25,-2.15901 z m -38.75,-11.52062 c 3.05223,-1.09247 3.75,-1.83529 3.75,-3.99212 0,-2.57046 -0.10493,-2.61706 -3.5,-1.55442 -1.925,0.60251 -3.5,1.73744 -3.5,2.52205 0,0.78461 -0.7875,2.32581 -1.75,3.42487 -1.36531,1.55904 -1.42027,1.88219 -0.25,1.47007 0.825,-0.29053 3.1875,-1.13224 5.25,-1.87045 z m 16.84434,-3.94044 c 2.54965,0 4.97935,0.66171 6.07692,1.65499 1.63089,1.47593 1.82874,1.48453 1.82874,0.0795 0,-2.38445 5.35799,-3.20121 8.31028,-1.26679 2.32434,1.52296 2.46803,1.49071 3.05082,-0.6847 0.33637,-1.25562 0.61774,-3.34045 0.62525,-4.63295 0.008,-1.32142 1.48722,-3.82357 3.38032,-5.71667 1.85166,-1.85166 3.12666,-3.60666 2.83333,-3.9 -0.29333,-0.29338 -2.00404,-0.53338 -3.80157,-0.53338 -4.45749,0 -8.39843,-1.63075 -8.39843,-3.47525 0,-1.76623 0.48978,-1.69035 -12.5,-1.93666 -5.87835,-0.11147 -10.96115,-0.71649 -12.33196,-1.4679 -2.00999,-1.10179 -2.52335,-1.02575 -3.71819,0.55076 -1.47678,1.9485 -1.77021,6.66117 -0.59946,9.62758 0.66388,1.6821 0.93399,1.64746 4.1728,-0.53517 4.03171,-2.71697 5.15942,-5.76336 2.13347,-5.76336 -1.26075,0 -2.35806,1.00776 -2.99438,2.75 l -1.00439,2.75 -0.0636,-2.5 c -0.11521,-4.52644 1.23434,-5.51773 5.69316,-4.18184 2.16954,0.65001 5.46741,1.21036 7.3286,1.24523 3.21486,0.0602 3.26216,0.11205 0.94634,1.03718 -1.3407,0.5356 -3.1407,0.83163 -3.99999,0.65787 -0.96366,-0.19487 -2.80778,1.59818 -4.81237,4.67909 -2.49764,3.8387 -3.25,6.0835 -3.25,9.69696 0,7.32653 0.63267,8.079 3.97907,4.7326 2.25625,-2.25626 3.77216,-2.86709 7.11527,-2.86709 z m -3.59434,-6.86942 c 0.55,-0.55602 2.31104,-1.24639 3.91341,-1.53417 3.71659,-0.66748 2.07615,0.91452 -1.91341,1.84524 -2.01876,0.47096 -2.67292,0.36922 -2,-0.31107 z m 17.5,-3.34147 c 0,-0.84932 0.74867,-2.16182 1.66372,-2.91667 1.52184,-1.2554 1.55292,-1.15924 0.36455,1.12756 -1.74217,3.35245 -2.02827,3.60481 -2.02827,1.78911 z m -16,-1.27788 c 0,-1.0217 9.68508,-6.50356 11.42144,-6.46467 1.41874,0.0318 0.53967,0.84725 -2.76924,2.56887 -2.66629,1.38727 -4.61733,2.75278 -4.33564,3.03446 0.28168,0.28168 1.51341,-0.0237 2.73718,-0.67865 3.43605,-1.83892 7.94626,-2.94003 7.94626,-1.93998 0,0.49041 -1.9125,1.419 -4.25,2.06353 -4.24287,1.16992 -10.75,2.02731 -10.75,1.41644 z m -15.19159,8.62834 c 0.97216,-0.61655 0.32968,-1.69101 -2.5,-4.18089 -3.72574,-3.27833 -3.81558,-3.30161 -4.13877,-1.07241 -0.33964,2.34272 2.2876,6.12565 4.23535,6.09842 0.60225,-0.008 1.6838,-0.38873 2.40342,-0.84512 z m 0.70472,-7.45391 c -1.94363,-4.65175 -1.91461,-7.66745 0.10146,-10.5458 2.24422,-3.20408 1.08481,-9.80041 -2.35335,-13.38907 -5.13151,-5.35615 -6.37602,-3.4359 -6.65583,10.26983 l -0.19438,9.52063 5.03564,4.15489 c 2.76959,2.28519 5.15802,4.0325 5.30761,3.88292 0.14958,-0.14959 -0.40893,-1.90162 -1.24115,-3.8934 z m 5.86843,0.7624 c 0.34149,-0.88992 0.17385,-1.29132 -0.39301,-0.94098 -0.5437,0.33602 -0.98855,1.0344 -0.98855,1.55194 0,1.43843 0.71677,1.12146 1.38156,-0.61096 z m 10.37624,-14.42394 c -2.54667,-2.00321 -4.32493,-6.02412 -2.66418,-6.02412 0.49851,0 0.90638,0.4541 0.90638,1.0091 0,0.55501 1.30358,2.37318 2.89685,4.04037 2.78221,2.91132 3.06992,2.98769 7.27061,1.92995 4.27419,-1.07625 4.36594,-1.18532 4.03025,-4.79037 -0.20642,-2.2168 0.45641,-5.46694 1.66086,-8.14394 l 2.00438,-4.45488 -2.18147,-2.12474 c -2.79009,-2.71751 -5.40683,-3.67111 -5.90622,-2.15235 -0.21464,0.65277 -0.27354,4.89936 -0.13089,9.43686 0.14892,4.73688 -0.14597,8.25 -0.6925,8.25 -0.52353,0 -0.95187,-1.6301 -0.95187,-3.62244 0,-2.7529 -0.30006,-3.38768 -1.25,-2.64444 -2.72685,2.13352 -5.99206,2.1478 -8.8448,0.0387 -2.63051,-1.94482 -3.17449,-2.00294 -7.12655,-0.76149 -2.80872,0.88231 -3.6592,1.48366 -2.47555,1.75043 1.24238,0.28 1.50319,0.76911 0.83866,1.57282 -0.53044,0.64155 -0.72897,2.39301 -0.44117,3.89213 0.40766,2.12352 1.21655,2.83717 3.66134,3.23031 12.18213,1.95897 12.42134,1.94797 9.39587,-0.43187 z m -7.7578,-7.52412 c -1.35129,-1.62821 -1.02807,-1.83174 1.41821,-0.89301 0.86999,0.33384 1.58179,1.00884 1.58179,1.5 0,1.38323 -1.62035,1.05539 -3,-0.60699 z m 19.5012,-5.42708 c 0.55055,-3.631 1.14863,-4.75642 2.04914,-3.85592 0.30268,0.30269 -0.15147,2.06519 -1.00922,3.91667 l -1.55955,3.36633 0.51963,-3.42708 z m -49.30535,10.17708 c -0.28974,-1.5125 -0.71979,-2.17265 -0.95566,-1.46701 -0.42534,1.2725 0.33557,4.21701 1.08975,4.21701 0.21599,0 0.15565,-1.2375 -0.13409,-2.75 z m 39.28864,-49.23287 c 1.38915,-1.53498 1.78424,-3.61768 1.74916,-9.22062 -0.0411,-6.56133 -0.29296,-7.45078 -2.69524,-9.51713 -1.90832,-1.64147 -3.90799,-2.27938 -7.1452,-2.27938 -4.22325,0 -4.58708,0.21975 -6.01264,3.6316 -1.00164,2.39724 -1.1808,3.96817 -0.52712,4.62185 0.54464,0.54464 0.74349,1.63332 0.44189,2.41929 -0.3016,0.78596 0.36364,2.41863 1.47832,3.62814 1.11467,1.20952 2.18809,3.08782 2.38537,4.174 0.3703,2.03883 4.13115,4.48446 6.93598,4.51038 0.87726,0.008 2.40253,-0.87755 3.38948,-1.96813 z M 648.8274,347.1207 c -3.99021,-4.17419 -5.81489,-7.28483 -6.89247,-11.75 l -0.72399,-3 -0.10236,2.93428 c -0.13306,3.81424 3.38162,11.01466 6.61982,13.56183 4.23728,3.33304 4.91896,2.24998 1.099,-1.74611 z m 7.50348,1.09201 c 0.80711,-0.80712 -1.27722,-3.48936 -2.24618,-2.89051 -0.3822,0.23621 -1.97677,-0.59264 -3.54348,-1.84189 -2.65156,-2.11428 -2.76874,-2.50034 -1.69441,-5.58217 0.98852,-2.83566 0.90338,-3.50323 -0.59322,-4.65164 -2.8593,-2.19407 -4.7959,-1.25001 -4.39557,2.14275 0.85745,7.26666 9.32455,15.97177 12.47286,12.82346 z m 8.70516,-10.59201 c -1.84242,-1.7875 -4.63902,-5.95 -6.21465,-9.25 -2.35534,-4.93301 -2.75005,-5.37759 -2.21954,-2.5 0.92854,5.03668 2.80651,8.26789 6.88808,11.85156 4.70782,4.13351 5.83499,4.05947 1.54611,-0.10156 z m 6.78588,-1.04328 c 0.76004,-3.91829 -7.63377,-15.70672 -11.18378,-15.70672 -2.61395,0 -1.98685,5.04878 1.26375,10.17444 4.41795,6.96637 9.13191,9.5953 9.92003,5.53228 z m 27.85097,173.62661 c -0.36667,-0.36666 -0.62799,-1.82916 -0.58072,-3.25 0.0844,-2.5366 0.10189,-2.52997 0.96694,0.3664 0.90899,3.04353 0.77489,4.04472 -0.38622,2.8836 z M 689.50622,464.8707 c -0.99549,-1.1 -1.31679,-2 -0.714,-2 0.60278,0 1.39357,0.48153 1.75731,1.07008 0.36374,0.58854 1.6278,1.46002 2.80902,1.93661 2.14267,0.86452 2.14279,0.86668 0.0527,0.92992 -1.1523,0.0349 -2.90954,-0.83661 -3.90503,-1.93661 z m 6.73194,-0.72839 c 0.061,-0.97438 -0.21454,-2.89661 -0.6123,-4.27161 -0.69406,-2.39926 -0.66067,-2.42178 0.82858,-0.55887 1.73702,2.17285 2.03873,5.13989 0.6123,6.02147 -0.51671,0.31934 -0.88957,-0.2166 -0.82858,-1.19099 z m -55.98817,-49.93597 c -0.69093,-0.27855 -1.00187,-0.91803 -0.69098,-1.42105 0.31088,-0.50302 -0.0865,-0.91459 -0.88299,-0.91459 -1.66109,0 -6.71563,-3.91617 -5.1198,-3.96673 0.5775,-0.0183 1.4775,0.37064 2,0.8643 1.60302,1.51456 9.34888,1.80833 9.89874,0.37542 0.26929,-0.70178 2.09216,-2.04015 4.05081,-2.97416 2.27356,-1.08419 3.36787,-2.20195 3.02655,-3.09142 -0.29405,-0.76627 -0.76083,-2.58891 -1.03729,-4.05031 -0.37921,-2.00454 -0.0168,-1.67473 1.47552,1.3429 l 1.97818,4 -3.22126,2.7231 c -1.77169,1.4977 -3.55361,2.7352 -3.95982,2.75 -1.37656,0.0501 -4.66214,3.37853 -4.15119,4.20528 0.54879,0.88796 -1.33569,0.97599 -3.36647,0.15726 z m 17.50623,-6.02497 c -0.9625,-0.25152 -1.75,-0.87432 -1.75,-1.38399 0,-1.45844 2.62618,-1.08203 4,0.57332 1.25875,1.5167 0.91947,1.63894 -2.25,0.81067 z m -23.25,-3.27362 c -1.79923,-0.73982 -1.82913,-0.89224 -0.29789,-1.51833 1.84741,-0.75535 3.79789,0.0357 3.79789,1.5403 0,1.10515 -0.77064,1.10032 -3.5,-0.022 z m 0.5,-13.53705 c 0,-0.825 0.45,-1.5 1,-1.5 0.55,0 1,0.675 1,1.5 0,0.825 -0.45,1.5 -1,1.5 -0.55,0 -1,-0.675 -1,-1.5 z m 28,0.61803 c 0,-0.55 0.45,-1.27811 1,-1.61803 0.55,-0.33992 1,-0.16803 1,0.38197 0,0.55 -0.45,1.27811 -1,1.61803 -0.55,0.33992 -1,0.16803 -1,-0.38197 z m 4.83819,-20.63602 c 0.23284,-3.67071 0.93568,-5.87238 2.25613,-7.06737 2.6621,-2.40916 3.55069,-1.05965 0.98901,1.50203 -1.40626,1.40626 -2.08333,3.36412 -2.08333,6.02431 0,2.16754 -0.3375,4.15062 -0.75,4.40683 -0.4125,0.25622 -0.59781,-1.93339 -0.41181,-4.8658 z"
       id="path3049"
       inkscape:connector-curvature="0" />
  </g>
</svg>
