<?xml version="1.0" encoding="UTF-8" standalone="no"?>
<!-- Created with Inkscape (http://www.inkscape.org/) -->

<svg
   xmlns:dc="http://purl.org/dc/elements/1.1/"
   xmlns:cc="http://creativecommons.org/ns#"
   xmlns:rdf="http://www.w3.org/1999/02/22-rdf-syntax-ns#"
   xmlns:svg="http://www.w3.org/2000/svg"
   xmlns="http://www.w3.org/2000/svg"
   xmlns:xlink="http://www.w3.org/1999/xlink"
   xmlns:sodipodi="http://sodipodi.sourceforge.net/DTD/sodipodi-0.dtd"
   xmlns:inkscape="http://www.inkscape.org/namespaces/inkscape"
   width="125.74259"
   height="228.77939"
   id="svg2"
   version="1.1"
   inkscape:version="0.48.3.1 r9886"
   sodipodi:docname="One-arm-preacher-curl-1.svg">
  <defs
     id="defs4">
    <radialGradient
       gradientUnits="userSpaceOnUse"
       gradientTransform="matrix(1,0,0,0.91819829,-19.285714,-7.9105395)"
       r="209.56604"
       fy="287.50052"
       fx="398.1105"
       cy="287.50052"
       cx="398.1105"
       id="radialGradient5255"
       xlink:href="#linearGradient5249"
       inkscape:collect="always" />
    <linearGradient
       id="linearGradient5249"
       inkscape:collect="always">
      <stop
         id="stop5251"
         offset="0"
         style="stop-color:#e3e3e3;stop-opacity:1;" />
      <stop
         id="stop5253"
         offset="1"
         style="stop-color:#e3e3e3;stop-opacity:0;" />
    </linearGradient>
  </defs>
  <sodipodi:namedview
     id="base"
     pagecolor="#ffffff"
     bordercolor="#666666"
     borderopacity="1.0"
     inkscape:pageopacity="0.0"
     inkscape:pageshadow="2"
     inkscape:zoom="1.979899"
     inkscape:cx="-1.0935734"
     inkscape:cy="103.69665"
     inkscape:document-units="px"
     inkscape:current-layer="layer1"
     showgrid="false"
     showguides="true"
     inkscape:guide-bbox="true"
     fit-margin-top="0"
     fit-margin-left="0"
     fit-margin-right="0"
     fit-margin-bottom="0"
     inkscape:window-width="1201"
     inkscape:window-height="886"
     inkscape:window-x="83"
     inkscape:window-y="39"
     inkscape:window-maximized="0">
    <sodipodi:guide
       orientation="-0.70710678,0.70710678"
       position="-2029.0295,523.45635"
       id="guide2985" />
  </sodipodi:namedview>
  <metadata
     id="metadata7">
    <rdf:RDF>
      <cc:Work
         rdf:about="">
        <dc:format>image/svg+xml</dc:format>
        <dc:type
           rdf:resource="http://purl.org/dc/dcmitype/StillImage" />
        <dc:title></dc:title>
      </cc:Work>
    </rdf:RDF>
  </metadata>
  <g
     inkscape:label="Ebene 1"
     inkscape:groupmode="layer"
     id="layer1"
     transform="translate(-600.45797,-321.32485)">
    <path
       style="fill:#000000"
       d="m 634.13829,548.82165 c -3.49323,-2.40761 -4.90399,-4.43826 -4.94071,-7.11163 -0.0175,-1.27366 -0.55952,-3.29866 -1.20452,-4.5 -1.51606,-2.82375 -1.93367,-6.43177 -1.828,-15.79324 0.0546,-4.83384 -0.65908,-10.2973 -1.95669,-14.9799 -2.59263,-9.35581 -2.56644,-10.49797 0.44659,-19.47361 2.98751,-8.89967 3.5885,-19.6079 1.34637,-23.98917 -2.94598,-5.75663 -5.96028,-10.71593 -7.37014,-12.12578 -0.78621,-0.78622 -4.70006,-2.53637 -8.69744,-3.88922 -3.99738,-1.35285 -7.83047,-3.2148 -8.51797,-4.13767 -0.6875,-0.92286 -1.25,-3.77218 -1.25,-6.33181 0,-5.24832 1.36311,-6.96398 7.15708,-9.00817 l 3.65708,-1.29027 0.71245,-9.08271 c 0.4803,-6.12307 1.28637,-9.89735 2.47372,-11.58271 1.37897,-1.95736 1.9213,-5.6169 2.49859,-16.85985 l 0.73733,-14.35986 6.48506,-12.64014 c 3.56679,-6.95208 7.18504,-13.42949 8.04057,-14.39424 0.85552,-0.96475 3.89585,-2.89912 6.75627,-4.29859 5.68896,-2.78335 9.87723,-6.68986 10.93861,-10.20272 1.94273,-6.4299 10.05963,-11.16864 16.65087,-9.72096 6.35008,1.39471 12.89237,9.92472 12.89237,16.8094 0,3.68903 -3.11813,11.55021 -6.27768,15.82677 -1.73942,2.35438 -1.83858,3.21561 -0.86356,7.5 0.61821,2.71646 0.96898,11.11986 0.79944,19.15218 l -0.30208,14.31199 4.22679,6.79201 c 2.32474,3.73561 6.06768,9.22022 8.31764,12.18801 4.29856,5.66999 5.42832,11.13285 2.84945,13.77825 -1.00589,1.03183 -0.57253,1.85316 2.21906,4.2057 l 3.46907,2.92347 1.30621,-2.493 c 3.82617,-7.3025 15.4039,-2.60963 18.80201,7.62113 3.22057,9.69624 0.11372,17.32211 -6.94902,17.05659 -3.24666,-0.12205 -3.56804,0.13082 -4.15713,3.2709 -0.35114,1.87176 -0.29739,3.95501 0.11943,4.62945 0.41683,0.67444 1.03541,7.1948 1.37461,14.48969 l 0.61674,13.26342 6.132,6.0752 c 3.66102,3.62712 6.99352,6.0752 8.26996,6.0752 2.8442,0 7.2089,4.41467 6.41365,6.48707 -0.33729,0.87897 -2.24526,2.42738 -4.23992,3.44093 -3.88349,1.9733 -10.40366,1.6459 -14.81093,-0.7437 -1.20134,-0.65137 -4.8441,-1.1843 -8.09501,-1.1843 -9.24816,0 -11.03467,-3.52879 -7.6155,-15.04241 1.94997,-6.56625 1.34888,-12.19378 -2.10925,-19.74734 -1.37279,-2.99856 -2.49598,-6.46631 -2.49598,-7.70609 0,-1.73621 -0.73572,-2.4013 -3.20193,-2.89455 -7.08643,-1.41728 -11.48033,-10.14887 -10.50726,-20.88006 0.51551,-5.68521 0.39044,-6.13342 -2.43048,-8.70994 -1.63568,-1.49397 -4.9764,-5.59704 -7.42381,-9.11795 -5.6623,-8.14593 -18.30852,-27.22742 -21.36546,-32.23768 -2.20047,-3.60651 -2.5568,-3.79547 -5.95578,-3.15834 -5.78452,1.0843 -9.83327,3.13433 -11.64196,5.89473 -1.61506,2.4649 -1.57776,2.7457 0.93409,7.03184 1.43897,2.45543 3.04256,4.72785 3.56352,5.04982 0.52096,0.32197 3.51901,4.50773 6.66234,9.30169 3.14333,4.79395 6.08675,8.86628 6.54094,9.04961 0.45418,0.18334 0.82579,0.79748 0.82579,1.36477 0,0.56729 1.9125,3.66667 4.25,6.88752 3.7191,5.12456 4.672,5.85972 7.62827,5.88523 2.00134,0.0173 5.62201,-1.25459 8.8832,-3.12045 3.07042,-1.75671 5.30914,-2.56223 5.06221,-1.82144 -0.24349,0.73048 -1.31593,1.79227 -2.3832,2.35952 -1.06726,0.56726 -3.16514,1.84088 -4.66194,2.83029 -1.49681,0.9894 -3.83898,1.8914 -5.20483,2.00444 -2.20104,0.18216 -2.54937,0.77801 -3.06398,5.24116 -0.31935,2.7696 -0.45468,7.96063 -0.30074,11.53563 0.5742,13.33501 -0.18207,31 -1.32717,31 -0.80807,0 -0.96932,-6.65071 -0.58144,-23.9811 l 0.53674,-23.98111 -3.39536,-3.76889 -3.39536,-3.7689 -0.0232,2.78984 c -0.0127,1.53441 0.95329,4.68441 2.14677,7 2.44267,4.73928 3.01763,15.02216 1.0582,18.92555 -2.97813,5.93275 -5.22817,15.5403 -5.22817,22.32404 0,3.96501 -0.675,9.12227 -1.5,11.46057 -0.837,2.37233 -1.5,7.66602 -1.5,11.97679 0,8.63461 1.8073,13.13118 9.08985,22.61558 5.29032,6.88983 5.20304,9.64216 -0.37328,11.77177 -5.51368,2.1057 -10.62671,2.08031 -13.74406,-0.0682 z m 9.09323,-1.33107 c 2.82365,-1.51118 2.4263,-3.30513 -0.56574,-2.55418 -2.78383,0.6987 -7.5,-0.19319 -7.5,-1.41835 0,-0.435 2.12621,-0.96001 4.72491,-1.16669 3.61488,-0.2875 5.16009,0.0594 6.57732,1.47663 1.01882,1.01882 2.52408,1.59466 3.34502,1.27964 1.1609,-0.44548 0.50485,-1.85162 -2.95208,-6.32732 -8.00742,-10.36723 -9.8314,-14.41292 -10.37113,-23.00366 -0.38881,-6.18864 -0.0674,-8.9414 1.5945,-13.65744 1.1448,-3.2486 2.08146,-7.7261 2.08146,-9.95 0,-5.60976 -1.74916,-3.50072 -2.72599,3.28683 -0.4257,2.95807 -1.22401,5.19638 -1.77401,4.97402 -1.63148,-0.65961 -0.48584,-8.06403 1.99661,-12.9043 5.52026,-10.76338 7.55109,-21.60392 4.84016,-25.83676 -1.9671,-3.07145 -0.91666,-3.98815 1.80338,-1.57378 l 2.1524,1.91054 -0.53539,-4.13271 c -0.29446,-2.273 -1.75304,-6.2105 -3.24129,-8.75 l -2.70591,-4.61729 -5.86603,0 c -4.73665,0 -6.25637,0.419 -7.89354,2.17629 -3.40111,3.65066 -3.41132,5.51592 -0.06,10.96249 2.79214,4.5378 3.18037,6.10626 3.52542,14.24274 0.21652,5.10569 1.07145,10.77969 1.93598,12.84881 1.77357,4.24474 1.93896,5.76967 0.62578,5.76967 -0.50734,0 -1.44224,-1.575 -2.07755,-3.5 -0.63531,-1.925 -1.53414,-3.5 -1.9974,-3.5 -0.46326,0 -1.52465,3.0375 -2.35864,6.75 -1.54397,6.8729 -1.16635,12.04518 1.46459,20.06081 0.99747,3.03898 1.38192,11.59062 0.68285,15.18919 -0.16027,0.825 0.75948,4.875 2.04388,9 3.91393,12.57002 3.2222,11.69375 10.98046,13.90981 0.17366,0.0496 1.18616,-0.37564 2.25,-0.94499 z m -13.06574,-19.58896 c 0,-1.85104 3.1015,-7.37586 4.14063,-7.37586 0.56338,0 0.70301,0.97493 0.32225,2.25 -0.75405,2.52511 -4.46288,6.78491 -4.46288,5.12586 z m 7.25,-51.09414 c -1.97338,-0.70787 -1.45605,-2.28172 0.75,-2.28172 1.1,0 2,0.42344 2,0.94098 0,1.28004 -1.2374,1.88333 -2.75,1.34074 z m -3.21857,-14.49654 c 0.0281,-1.15125 4.96857,-5.5399 4.96857,-4.41365 0,1.56738 -1.50115,3.82631 -3.11765,4.69143 -1.39093,0.74441 -1.87415,0.67189 -1.85092,-0.27778 z m 86.42152,52.0543 c 3.69579,-1.68391 3.12692,-3.60625 -1.43033,-4.83339 -2.85088,-0.76766 -5.80662,-2.96425 -10.43602,-7.75562 -7.40393,-7.66299 -7.11168,-6.56964 -8.15281,-30.50047 -0.35294,-8.1125 -0.83576,-14.75 -1.07293,-14.75 -1.91429,0 -5.36086,3.63919 -5.36086,5.66046 0,1.33675 -1.16394,3.59439 -2.58653,5.01698 -2.17761,2.17761 -2.48358,3.15853 -1.93534,6.20454 0.35816,1.98991 1.57803,5.56313 2.71082,7.94049 1.79081,3.75831 1.96711,5.38979 1.35073,12.5 -0.38989,4.49764 -0.78332,10.42753 -0.87429,13.17753 l -0.16539,5 7.5,0.65692 c 4.125,0.36131 9.3,1.09706 11.5,1.635 5.55191,1.35756 6.07177,1.36032 8.95295,0.0476 z m -25.36726,-9.67936 c -0.64748,-1.20983 -0.74369,-2.91042 -0.24146,-4.26807 0.74442,-2.01237 0.9031,-1.83652 1.4645,1.62302 0.73429,4.5249 0.29337,5.47848 -1.22304,2.64505 z M 690.0932,465.8909 c 2.56417,-3.25981 2.6052,-5.94194 0.18823,-12.30291 -3.38058,-8.89694 -10.60728,-12.67102 -15.07669,-7.87367 -2.46814,2.64923 -2.54766,4.92814 -0.39724,11.3833 1.94787,5.84711 2.8852,7.15732 6.85828,9.58646 4.07755,2.49302 5.98361,2.31362 8.42742,-0.79318 z m 19.00117,-9.32692 c 3.14169,-1.68139 4.37248,-6.2059 3.03774,-11.16711 -1.75714,-6.53129 -3.6725,-9.66781 -6.9336,-11.35418 -4.40047,-2.27557 -6.70366,-1.88258 -8.6918,1.48307 -0.97468,1.65 -2.28824,3 -2.91903,3 -0.63079,0 -2.84564,-1.35 -4.9219,-3 -2.07626,-1.65 -3.92401,-3 -4.10612,-3 -1.00789,0 1.21293,2.86105 4.06489,5.23675 3.23884,2.69798 5.63014,3.53637 10.54123,3.69577 3.3375,0.10833 7.17563,5.61813 6.32682,9.08243 -0.33488,1.36678 -1.2214,3.19657 -1.97003,4.0662 -0.74863,0.86963 -1.06017,1.88213 -0.69231,2.25 0.97019,0.97018 4.18485,0.81985 6.26411,-0.29293 z m -10.90336,-1.05172 c 1.04156,-0.55743 2.64461,-2.59582 3.56232,-4.52976 1.56755,-3.30335 1.56321,-3.63267 -0.0716,-5.43908 -1.26275,-1.39532 -2.53145,-1.76457 -4.62457,-1.34594 -2.33195,0.46639 -3.90117,-0.20753 -8.19277,-3.51847 -4.52977,-3.49469 -5.64931,-5.06119 -7.63307,-10.68044 -1.83928,-5.20998 -3.32217,-7.44425 -7.10123,-10.69946 -4.33061,-3.73029 -4.84119,-4.63211 -5.46942,-9.66028 -0.77284,-6.18566 -6.71774,-17.67657 -9.52487,-18.41065 -1.4524,-0.37981 -1.61842,-1.50109 -1.19627,-8.07916 l 0.49022,-7.63815 -3.78455,-3.56929 c -2.43444,-2.29597 -4.44361,-3.39694 -5.63198,-3.08617 -2.80852,0.73444 -2.20579,-1.24291 0.71766,-2.3544 3.52272,-1.33934 4.46779,-1.22453 3.81983,0.46401 -0.32066,0.83564 0.37384,1.989 1.65593,2.75 1.21453,0.72091 3.24675,3.51605 4.51604,6.21144 l 2.30782,4.9007 0.97745,-3.4007 0.97745,-3.4007 0.0902,4.62756 c 0.0582,2.98503 -0.44223,5.06942 -1.40981,5.87244 -1.67309,1.38854 -2.0464,5 -0.51685,5 1.40419,0 5.99556,9.34412 8.43648,17.16946 1.4802,4.74537 3.2867,7.95287 6.26187,11.11817 2.29982,2.4468 4.88737,6.1381 5.7501,8.20291 1.3223,3.16471 1.80411,3.55873 3.0685,2.50938 2.36127,-1.95968 1.77253,-5.5094 -1.7501,-10.55197 -1.7875,-2.55877 -5.6391,-8.31883 -8.5591,-12.80013 -4.82011,-7.39737 -5.25421,-8.52432 -4.71306,-12.23556 0.32782,-2.24826 0.11829,-5.34431 -0.46562,-6.88012 -0.75916,-1.99675 -0.73536,-4.45095 0.0835,-8.61331 1.11975,-5.6916 0.73593,-11.0608 -0.98467,-13.77431 -0.70928,-1.11857 -1.30883,-1.06106 -3.43047,0.32909 -2.19043,1.43523 -2.43001,2.05532 -1.61864,4.1894 1.56458,4.11515 -0.2077,4.94288 -2.21324,1.03367 -1.09915,-2.14246 -3.27794,-4.28105 -5.37569,-5.2765 -3.74954,-1.77927 -7.47304,-5.79276 -7.47304,-8.05504 0,-0.75083 -0.50751,-1.36514 -1.12781,-1.36514 -0.75283,0 -0.91835,1.30985 -0.49783,3.93964 0.34648,2.16681 0.20174,4.20431 -0.32167,4.52779 -1.26172,0.77979 -2.41033,-5.60398 -1.74731,-9.71124 0.2891,-1.7909 0.84861,-5.17392 1.24335,-7.51782 l 0.71773,-4.26163 -6.92303,3.42145 c -6.74153,3.33176 -7.03458,3.63676 -11.1778,11.63373 -2.34012,4.51676 -4.12221,8.3436 -3.9602,8.5041 0.16202,0.1605 1.34139,-0.55686 2.62083,-1.59414 1.68616,-1.36702 2.14113,-2.46928 1.65344,-4.00585 -0.53653,-1.69043 -0.30294,-2.04864 1.15307,-1.76824 2.23864,0.43113 3.96242,4.9237 2.86436,7.4652 -0.73529,1.70186 -0.84317,1.7148 -1.21956,0.14634 -0.37812,-1.57565 -0.77934,-1.53351 -4.76048,0.5 -6.35941,3.24829 -7.57132,6.52169 -8.20897,22.17265 l -0.5316,13.04802 2.69878,-2.5 c 1.48434,-1.375 3.43164,-3.7375 4.32735,-5.25 1.23658,-2.0881 2.39903,-2.75 4.82962,-2.75 4.18499,0 4.73098,-1.84235 1.55588,-5.25 -1.91173,-2.05175 -2.1682,-2.75 -1.0101,-2.75 3.14141,0 7.22127,4.58261 10.61036,11.91785 1.91324,4.14095 5.15629,9.8 7.20679,12.57565 2.0505,2.77566 5.16757,7.51262 6.92683,10.52658 4.08636,7.00074 12.98276,18.33043 16.67411,21.23472 1.75937,1.38423 4.30521,2.26912 6.63897,2.30757 5.14162,0.0847 8.72219,3.00419 11.99766,9.78244 2.82337,5.84268 3.581,6.36041 6.79246,4.64169 z m -34.07319,-38.28311 c -2.47793,-0.92133 -7.6531,-8.33566 -6.57251,-9.41625 0.29656,-0.29656 1.50194,1.09251 2.67861,3.08683 1.17668,1.99432 2.71486,3.62603 3.41819,3.62603 1.29279,0 4.14137,2.79302 3.41617,3.34954 -0.21588,0.16566 -1.53908,-0.12511 -2.94046,-0.64615 z m -0.95204,-7.07744 c 0,-0.75572 -1.16347,-3.45572 -2.5855,-6 -1.42202,-2.54427 -2.13549,-4.62595 -1.58549,-4.62595 1.1697,0 6.17099,8.61182 6.17099,10.62595 0,0.75573 -0.45,1.37405 -1,1.37405 -0.55,0 -1,-0.61832 -1,-1.37405 z m -29.82792,-36.43676 c -2.31044,-1.80171 -2.27128,-1.8165 5.21146,-1.96913 4.28191,-0.0873 7.81534,0.29272 8.17806,0.87962 0.89826,1.4534 0.6037,1.57402 -5.5616,2.27739 -4.44495,0.50711 -5.94656,0.27924 -7.82792,-1.18788 z m 1.28063,67.9733 6.55149,0.33751 -0.011,-3.5 c -0.008,-2.62099 -1.20174,-5.06605 -4.7521,-9.7356 -2.60758,-3.42957 -5.57231,-7.39722 -6.58829,-8.817 -1.69489,-2.36852 -1.99001,-2.45218 -3.57874,-1.0144 -0.95233,0.86185 -2.37108,1.55082 -3.15277,1.53104 -0.84404,-0.0214 -0.26952,-0.97822 1.41459,-2.35603 l 2.83586,-2.32006 -3.83586,-3.75673 c -2.10972,-2.0662 -3.27335,-3.45443 -2.58585,-3.08496 1.80809,0.9717 1.52679,-0.50842 -0.75,-3.94626 -1.09275,-1.65 -1.98979,-2.354 -1.99341,-1.56445 -0.004,0.78955 -0.88728,2.373 -1.96369,3.51878 -1.62541,1.73018 -2.00419,3.77593 -2.235,12.07122 -0.27285,9.80654 -0.21913,10.07508 2.9571,14.78135 2.05756,3.04873 3.235,6.01924 3.235,8.16144 0,6.29432 0.84643,6.8369 4.54608,2.91412 3.27214,-3.46947 3.51724,-3.54914 9.90663,-3.21997 z m -17.12562,1.08751 c -0.34905,-2.6125 -0.93651,-4.975 -1.30545,-5.25 -0.36894,-0.275 -1.70802,-2.36877 -2.97574,-4.65283 -2.22067,-4.00098 -2.41905,-4.11451 -5.42543,-3.1049 -4.61232,1.54891 -5.62047,2.65905 -5.62047,6.18905 0,1.75253 0.5625,3.94528 1.25,4.87277 1.03217,1.39249 11.40871,6.29658 13.98087,6.60755 0.40198,0.0486 0.44528,-2.04914 0.0962,-4.66164 z m 48.29803,-82.02224 c 1.16882,-0.95027 3.98132,-4.84935 6.25,-8.66462 3.53326,-5.94194 4.11972,-7.73477 4.08892,-12.5 -0.0275,-4.24846 -0.55919,-6.18481 -2.25,-8.19377 -2.57594,-3.06063 -7.70306,-5.86937 -10.71404,-5.86937 -6.84335,0 -15.37976,10.23334 -13.54957,16.24306 0.37803,1.24132 0.92535,4.95694 1.21626,8.25694 0.3715,4.21423 1.16948,6.70221 2.68112,8.35936 3.91306,4.28972 8.76329,5.22537 12.27731,2.3684 z m -1.88736,89.08056 c -3.01137,-0.78552 -0.82033,-2.30832 3.32126,-2.30832 2.83643,0 3.94098,0.42041 3.94098,1.5 0,1.48703 -3.26649,1.85061 -7.26224,0.80832 z"
       id="path3740"
       inkscape:connector-curvature="0" />
  </g>
</svg>
