<?xml version="1.0" encoding="UTF-8" standalone="no"?>
<!-- Created with Inkscape (http://www.inkscape.org/) -->

<svg
   xmlns:dc="http://purl.org/dc/elements/1.1/"
   xmlns:cc="http://creativecommons.org/ns#"
   xmlns:rdf="http://www.w3.org/1999/02/22-rdf-syntax-ns#"
   xmlns:svg="http://www.w3.org/2000/svg"
   xmlns="http://www.w3.org/2000/svg"
   xmlns:xlink="http://www.w3.org/1999/xlink"
   xmlns:sodipodi="http://sodipodi.sourceforge.net/DTD/sodipodi-0.dtd"
   xmlns:inkscape="http://www.inkscape.org/namespaces/inkscape"
   width="530.86438"
   height="900.13953"
   id="svg2"
   version="1.1"
   inkscape:version="0.48.3.1 r9886"
   sodipodi:docname="One-arm-upright-row-1.svg">
  <defs
     id="defs4">
    <radialGradient
       gradientUnits="userSpaceOnUse"
       gradientTransform="matrix(1,0,0,0.91819829,-19.285714,-7.9105395)"
       r="209.56604"
       fy="287.50052"
       fx="398.1105"
       cy="287.50052"
       cx="398.1105"
       id="radialGradient5255"
       xlink:href="#linearGradient5249"
       inkscape:collect="always" />
    <linearGradient
       id="linearGradient5249"
       inkscape:collect="always">
      <stop
         id="stop5251"
         offset="0"
         style="stop-color:#e3e3e3;stop-opacity:1;" />
      <stop
         id="stop5253"
         offset="1"
         style="stop-color:#e3e3e3;stop-opacity:0;" />
    </linearGradient>
  </defs>
  <sodipodi:namedview
     id="base"
     pagecolor="#ffffff"
     bordercolor="#666666"
     borderopacity="1.0"
     inkscape:pageopacity="0.0"
     inkscape:pageshadow="2"
     inkscape:zoom="0.7"
     inkscape:cx="-323.12687"
     inkscape:cy="482.00362"
     inkscape:document-units="px"
     inkscape:current-layer="layer1"
     showgrid="false"
     showguides="true"
     inkscape:guide-bbox="true"
     fit-margin-top="0"
     fit-margin-left="0"
     fit-margin-right="0"
     fit-margin-bottom="0"
     inkscape:window-width="1615"
     inkscape:window-height="1026"
     inkscape:window-x="65"
     inkscape:window-y="24"
     inkscape:window-maximized="1">
    <sodipodi:guide
       orientation="-0.70710678,0.70710678"
       position="-2093.9865,881.75861"
       id="guide2985" />
  </sodipodi:namedview>
  <metadata
     id="metadata7">
    <rdf:RDF>
      <cc:Work
         rdf:about="">
        <dc:format>image/svg+xml</dc:format>
        <dc:type
           rdf:resource="http://purl.org/dc/dcmitype/StillImage" />
        <dc:title></dc:title>
      </cc:Work>
    </rdf:RDF>
  </metadata>
  <g
     inkscape:label="Ebene 1"
     inkscape:groupmode="layer"
     id="layer1"
     transform="translate(-665.41501,-8.2669695)">
    <path
       style="fill:#000000"
       d="m 1016.5183,906.85674 c -4.6243,-2.11539 -8.4504,-7.2108 -8.4504,-11.25383 0,-1.89214 1.1543,-8.72012 2.5652,-15.17327 4.0817,-18.66913 4.5403,-22.29912 3.2638,-25.82942 -0.9323,-2.57819 -0.7026,-5.3042 1.266,-15.02658 1.9609,-9.68383 2.3824,-14.64689 2.2825,-26.87702 -0.1454,-17.80653 -2.6761,-36.66525 -5.898,-43.95043 -11.723,-26.50779 -15.12203,-46.59322 -15.96313,-94.33051 -0.451,-25.59026 -0.7639,-30.0167 -2.4824,-35.11824 -1.0816,-3.21052 -2.6331,-12.08409 -3.4479,-19.71906 -0.8148,-7.63497 -2.2321,-16.13176 -3.1495,-18.88176 -1.17112,-3.51024 -1.8683,-10.40881 -2.33995,-23.15323 l -0.67182,-18.15322 -6.69655,-7.09869 c -6.78821,-7.19587 -10.63891,-13.53854 -13.71756,-22.59486 -0.93484,-2.75 -2.39444,-5.13582 -3.24355,-5.30182 -1.78336,-0.34864 -2.79723,4.53068 -5.25743,25.30182 -0.84687,7.15 -2.20713,16.375 -3.0228,20.5 -0.81567,4.125 -1.9074,11.35411 -2.42607,16.06469 -0.51867,4.71057 -1.638,10.56057 -2.4874,13 -0.84941,2.43942 -1.56662,6.68531 -1.59381,9.43531 -0.0272,2.75 -0.72486,8.6 -1.55037,13 -3.02067,16.10031 -3.49711,21.41089 -3.90176,43.49029 -0.59482,32.45648 -3.5722,53.32395 -11.55847,81.00971 -10.96998,38.02925 -13.69737,67.11149 -8.56592,91.33867 1.99628,9.42508 2.21834,12.0384 1.31161,15.43549 -0.94859,3.55387 -0.74623,5.11338 1.54505,11.90765 1.89185,5.60986 2.47896,8.97268 2.07855,11.90544 -0.37493,2.7461 -0.0298,5.10875 1.0518,7.20034 0.88541,1.7122 1.60984,5.32475 1.60984,8.02789 0,9.36823 -5.74063,12.93506 -18.88687,11.735 -9.02626,-0.82396 -11.16396,-0.88906 -17.11313,-0.52113 -6.36868,0.39387 -23.08269,-1.46728 -25.68426,-2.86002 -1.20134,-0.64313 -3.36842,-1.16933 -4.81574,-1.16933 -5.2741,0 -11.15202,-4.62821 -12.06611,-9.5007 -1.057,-5.63431 1.27781,-11.38436 6.90061,-16.99447 3.3639,-3.35631 5.76524,-6.87174 6.88505,-10.07934 0.94576,-2.70902 5.41038,-10.77549 9.92138,-17.92549 l 8.20182,-13 -0.10497,-10.5 c -0.16841,-16.84686 -3.08824,-30.59973 -13.26917,-62.5 -5.00255,-15.67466 -7.39735,-31.86205 -6.65738,-45 1.22883,-21.81775 6.883,-49.68081 13.21644,-65.129 8.44951,-20.6096 9.31581,-24.9561 9.54112,-47.871 0.12392,-12.60378 -0.25676,-16.91698 -2.383,-27 -6.14069,-29.12026 -8.70638,-43.36462 -8.69646,-48.28138 0.007,-3.59036 -0.43373,-5.45192 -1.37727,-5.81399 -1.1109,-0.42629 -1.54359,-6.05884 -2.16773,-28.21862 -1.08481,-38.51541 -1.07661,-38.67969 2.87945,-57.68601 1.94615,-9.35 4.07792,-21.95 4.73726,-28 1.74766,-16.03628 9.60894,-39.16998 15.21616,-44.7772 2.87788,-2.87788 3.63049,-10.03352 3.02097,-28.7228 -0.56735,-17.39642 -1.88333,-22.73253 -8.39849,-34.05452 -6.21349,-10.79776 -13.3807,-27.02507 -15.73954,-35.63596 l -1.81613,-6.62975 -8.922,14.79427 c -9.25372,15.3443 -18.34235,25.99156 -27.19193,31.85513 -2.34845,1.55604 -5.79643,5.2155 -7.66217,8.13212 -5.01569,7.84079 -9.03229,10.53871 -15.68979,10.53871 -2.98821,0 -6.32074,-0.60608 -7.40561,-1.34684 -3.16344,-2.16001 -11.41868,-4.63971 -18.97251,-5.69893 -8.43165,-1.18231 -19.36069,-4.39879 -25.5,-7.50479 -4.91239,-2.48528 -9.85417,-7.32305 -15.01545,-14.69944 -1.82797,-2.6125 -3.61509,-4.75 -3.97137,-4.75 -0.35628,0 -0.61749,11.5875 -0.58048,25.75 l 0.0673,25.75 -2.5,0 -2.5,0 -0.60935,-29.5 c -0.33514,-16.225 -0.67953,-45.25 -0.76531,-64.5 -0.0858,-19.25 -0.50232,-34.455 -0.92564,-33.78888 -0.42332,0.66612 -2.80691,2.11229 -5.29685,3.21371 -2.48995,1.10142 -5.39815,2.96499 -6.46266,4.14126 -3.05989,3.38114 -6.94217,4.93391 -12.3359,4.93391 l -4.99503,0 0.19537,54.75 0.19537,54.75 -2.5,0 -2.5,0 -0.84267,-49.99825 c -0.60774,-36.05987 -1.1653,-50.17605 -2,-50.63602 -1.22875,-0.67712 -7.68333,-5.67361 -12.82006,-9.92402 -2.60571,-2.15611 -3.13449,-3.35157 -3.3636,-7.60451 -0.14951,-2.77543 -0.99226,-6.43935 -1.87276,-8.14206 -0.8805,-1.7027 -1.60091,-3.82775 -1.60091,-4.72234 0,-0.89458 -1.77902,-4.11088 -3.95338,-7.14734 -5.81112,-8.11514 -6.08618,-11.92736 -1.6362,-22.67737 1.97427,-4.76933 3.58958,-9.75677 3.58958,-11.0832 0,-1.32643 1.51214,-4.39271 3.36031,-6.81394 2.11481,-2.77056 3.61391,-6.09339 4.04452,-8.96488 0.52724,-3.51592 1.61769,-5.48687 4.75331,-8.59145 3.09009,-3.05951 4.28442,-5.19159 4.96407,-8.86172 0.49224,-2.6581 1.85633,-6.14039 3.03131,-7.73843 2.11264,-2.87331 2.13195,-3.33905 1.7414,-42 l -0.39492,-39.09447 2.5,0 2.5,0 0.61703,19.5 c 0.33937,10.725 0.67687,28.36206 0.75,39.19346 l 0.13297,19.69347 3.02124,1.78469 c 1.66169,0.98158 3.94881,3.70079 5.0825,6.04268 2.44198,5.04446 1.97029,8.84237 -1.82748,14.71418 -1.83654,2.83951 -2.27655,4.36411 -1.58733,5.5 0.90952,1.49899 12.85804,5.73289 22.19071,7.86317 l 4.37964,0.9997 -0.37964,-57.14568 -0.37964,-57.14567 2.5,0 2.5,0 0.61098,29 c 0.33604,15.95 0.67354,43.79059 0.75,61.86798 l 0.13902,32.86799 3,3.41681 c 4.26655,4.85933 4.22341,10.88424 -0.11328,15.82346 -2.58991,2.94974 -2.90141,3.80113 -1.85298,5.06441 0.97104,1.17003 0.99704,2.09639 0.11328,4.03602 -0.63086,1.38459 -1.14702,5.57474 -1.14702,9.31145 l 0,6.79402 5.00277,2.72285 c 2.75152,1.49757 10.96402,5.39792 18.25,8.66744 16.63679,7.46563 24.66954,12.8455 29.36993,19.67025 1.99147,2.89153 3.95489,5.25732 4.36315,5.25732 0.40827,0 1.02565,-2.06727 1.37197,-4.59392 1.41988,-10.3592 10.70141,-24.06162 20.67686,-30.52549 2.78164,-1.80244 4.96532,-3.97373 4.96532,-4.93714 0,-3.11071 5.03666,-19.32105 7.96125,-25.62306 6.5208,-14.05123 18.59938,-21.88289 40.74766,-26.42045 13.95362,-2.85871 13.75663,-2.77026 33.29109,-14.94796 8.05996,-5.02455 16.30041,-8.87943 24.30425,-11.36952 1.64419,-0.51153 1.77285,-1.73769 1.45026,-13.82189 -0.31664,-11.86145 -0.64633,-13.92802 -3.12469,-19.58655 -3.66609,-8.37032 -5.2253,-26.53454 -3.82817,-44.59687 0.81406,-10.52428 1.43002,-13.47034 3.92648,-18.7798 3.62582,-7.71135 9.61049,-13.83741 17.09567,-17.49957 4.77447,-2.33593 7.21375,-2.82268 15.72424,-3.13772 19.6647,-0.727929 30.59717,2.92251 38.45137,12.83916 6.02563,7.60793 6.38543,9.41993 6.80593,34.27368 0.4089,24.17246 -0.5233,32.23748 -4.9088,42.46848 -1.50483,3.51053 -1.89653,6.86087 -1.89653,16.21995 l 0,11.79552 6.49253,1.63086 c 9.1993,2.31081 15.2905,5.21899 29.1351,13.9103 16.9719,10.65453 27.3904,15.55639 36.4458,17.1475 8.7809,1.54288 20.8872,6.82496 26.0678,11.37363 1.9805,1.73892 5.3465,6.4285 7.4799,10.42127 l 3.8789,7.25959 0.2032,18.5 c 0.1918,17.4598 0.3768,19.08222 3.2905,28.8547 3.1073,10.42171 6.6647,26.0616 7.6971,33.83949 0.6581,4.95764 -0.7435,13.07657 -5.318,30.80581 -4.0119,15.54916 -4.0748,17.0739 -0.9469,22.95667 2.2992,4.32415 2.4369,5.5676 2.6365,23.80291 0.448,40.9332 0.5965,38.3786 -2.8037,48.24042 -1.7067,4.95 -6.2035,15.075 -9.9928,22.5 -6.742,13.21049 -13.5044,31.53264 -14.5787,39.5 l -0.5394,4 2.5871,-5.15632 c 2.9108,-5.80159 6.2965,-8.14746 15.7651,-10.92303 7.3835,-2.16436 21.2548,-2.42748 27.7979,-0.52729 5.1505,1.49579 11.4198,7.55243 16.2969,15.74405 3.2115,5.39416 7.1165,20.9374 7.9136,31.49876 1.2942,17.14727 -4.729,35.95354 -13.0084,40.61673 -9.7604,5.4973 -27.5554,8.70403 -34.8824,6.28592 -2.1339,-0.70426 -6.0205,-3.58666 -9.1284,-6.76995 l -5.4124,-5.54351 -3.5732,3.13732 c -2.4162,2.12151 -4.6142,3.13853 -6.7884,3.14106 -1.7684,0.002 -4.754,1.01455 -6.6348,2.25 -6.5617,4.31032 -7.6111,4.71687 -12.2123,4.73152 l -4.6319,0.0147 -1.7488,9.75 c -0.9618,5.3625 -2.815,14.16617 -4.1181,19.56371 -4.4909,18.60121 -2.7942,55.55241 3.4294,74.68629 16.4422,50.55004 18.7599,62.58654 16.3275,84.79543 -1.5236,13.91158 -3.3202,22.27617 -9.6711,45.02748 -8.0449,28.81998 -9.8669,38.04152 -9.9142,50.17709 l -0.041,10.5 6.4697,11 c 3.5583,6.05 8.3516,14.74887 10.6516,19.33081 2.3,4.58195 5.078,9.30695 6.1732,10.5 4.8685,5.30363 10.2055,14.15911 10.2055,16.9338 0,3.40627 -4.7054,8.38871 -8.8667,9.38873 -1.4483,0.34805 -4.8833,1.76436 -7.6333,3.14736 -5.8847,2.95947 -15.9306,3.86219 -34.25,3.07772 -2.0625,-0.0883 -6.9,0.14032 -10.75,0.50809 -5.0732,0.48461 -7.8394,0.28469 -10.0496,-0.72635 z m 18.1185,-8.87348 c 2.394,-1.09079 2.5983,-1.61048 2.1604,-5.49568 -0.5963,-5.29061 0.7666,-5.54413 2.9082,-0.54096 0.8828,2.0625 1.944,4.425 2.358,5.25 1.1079,2.20731 21.4303,1.99077 25.5665,-0.27241 1.6159,-0.88416 4.5467,-1.86518 6.5128,-2.18002 4.0656,-0.65106 7.9252,-3.7691 7.9252,-6.40259 0,-0.9774 -2.6607,-4.56462 -5.9127,-7.9716 -4.0286,-4.22061 -7.5769,-9.4573 -11.1354,-16.43393 -2.8726,-5.6317 -7.654,-13.73694 -10.6254,-18.01164 -7.2415,-10.41766 -7.9645,-14.41795 -5.8819,-32.54707 1.0998,-9.57451 3.2626,-19.98383 7.2059,-34.68074 3.0989,-11.55 6.6621,-24.87209 7.918,-29.60463 4.5547,-17.16173 5.4895,-38.80116 2.3376,-54.10819 -0.5987,-2.90795 -5.0976,-17.77207 -9.9974,-33.03138 l -8.9087,-27.74419 -0.074,-11.75581 c -0.041,-6.46569 -0.3795,-13.7808 -0.7527,-16.2558 l -0.6787,-4.5 -1.8571,7.85439 c -1.6632,7.03383 -2.0163,7.69531 -3.3799,6.33165 -1.3637,-1.36367 -1.3613,-2.8633 0.023,-14.3544 0.933,-7.74456 2.9236,-17.39079 5.021,-24.33164 3.7103,-12.27805 8.5143,-36.51741 7.4486,-37.58306 -0.353,-0.35303 -2.7714,0.0837 -5.3742,0.97059 -5.3446,1.82112 -11.0352,2.07275 -14.7692,0.65309 -2.3469,-0.89228 -2.7186,-0.59592 -5.3151,4.23702 -2.3943,4.45671 -3.717,5.6537 -9.2917,8.40905 -6.8952,3.40801 -17.6317,6.31331 -23.33083,6.31331 -4.2815,0 -4.6371,1.09069 -4.6555,14.28044 -0.01,6.91015 0.6973,12.77961 2.409,20 1.3324,5.62076 2.9281,15.07802 3.5459,21.01614 1.262,12.1304 4.19343,23.20152 9.42583,35.59927 3.3204,7.86746 3.6838,10.10415 1.6416,10.10415 -0.4653,0 -2.0327,-2.025 -3.4831,-4.5 -1.4505,-2.475 -2.7307,-4.50082 -2.845,-4.50182 -0.4058,-0.004 0.2874,12.79673 1.8684,34.50182 2.2816,31.32303 6.5338,54.57028 13.9013,76 5.549,16.14026 6.6356,24.74316 6.4416,51 -0.1446,19.57792 -0.4488,23.81317 -2.0445,28.46534 -2.2936,6.68673 -2.3125,7.97009 -0.2146,14.62518 1.639,5.19947 1.6262,5.35923 -1.0048,12.58789 -1.4657,4.02688 -2.6628,8.57329 -2.6601,10.10314 0,1.52985 -0.8911,5.44111 -1.9862,8.6917 -1.095,3.25058 -1.735,6.57723 -1.4221,7.39255 1.5965,4.16049 14.0184,5.59369 20.982,2.42084 z m 13.4647,-6.96328 c -2.3134,-3.79447 -2.5305,-5.39823 -0.8698,-6.42459 1.6226,-1.00286 6.0146,4.36336 5.6402,6.89146 -0.4906,3.31343 -2.5909,3.10788 -4.7704,-0.46687 z m 12.6676,-1.45546 c -1.0357,-1.03574 -0.8522,-5.3679 0.2274,-5.3679 1.4877,0 4.1961,3.12574 3.7832,4.36607 -0.4498,1.35106 -3.0194,1.99295 -4.0106,1.00183 z m -31.7012,-45.84485 c 0,-2.22635 4.4772,-4.70979 9.5144,-5.27757 3.5936,-0.40504 4.4856,-0.19891 4.4856,1.03657 0,1.01613 -1.3448,1.76935 -3.9424,2.20822 -2.1684,0.36634 -4.4735,1.3059 -5.1225,2.0879 -1.5495,1.86708 -4.9351,1.82927 -4.9351,-0.0551 z m -1.3227,-98.22433 c -0.2916,-3.1893 -0.5057,-6.69872 -0.4756,-7.79872 0.1451,-5.30951 -2.5611,-31.76539 -4.7567,-46.5 -2.8391,-19.05379 -2.9833,-22 -1.0768,-22 2.2151,0 4.7929,11.35553 5.6705,24.97938 0.4436,6.88634 1.543,19.49562 2.4431,28.02062 0.9002,8.525 1.4975,18.38928 1.3274,21.92063 -0.4024,8.35594 -2.4128,9.24054 -3.1319,1.37809 z m 1.3227,-89.35809 c -1.2721,-0.87243 -1.1201,-1.28773 1,-2.7331 6.9481,-4.7368 9.999,-8.65204 11.0117,-14.13126 1.4583,-7.89035 2.739,-8.35369 3.6809,-1.33168 0.681,5.07724 -2.194,10.8168 -7.8381,15.64796 -4.4928,3.84562 -5.4906,4.16933 -7.8545,2.54808 z m -28,-50.01397 c 0,-0.66339 0.6799,-1.70578 1.511,-2.31642 0.831,-0.61063 3.6692,-4.70963 6.3071,-9.10888 4.9241,-8.2122 10.0107,-12.82232 13.5638,-12.29336 2.2854,0.34023 3.4722,2.792 1.3515,2.792 -3.7171,0 -9.5629,5.97967 -13.3632,13.66923 -3.2843,6.64521 -4.2865,7.87868 -6.6202,8.14719 -1.6549,0.19042 -2.75,-0.16388 -2.75,-0.88976 z m 28.615,-1.67666 c -1.8213,-3.48684 -6.1805,-7.55014 -10.365,-9.66152 -3.2975,-1.6638 -4.0369,-2.98414 -2.2794,-4.07033 2.9141,-1.80097 16.0294,9.61753 16.0294,13.95553 0,3.31966 -1.5891,3.21465 -3.385,-0.22368 z M 918.9722,895.02429 c 3.09988,-1.93591 3.26124,-3.39924 1.08665,-9.85442 -1.09505,-3.25059 -1.9897,-7.38685 -1.98812,-9.1917 0.002,-1.80485 -1.20656,-6.13084 -2.68476,-9.61331 -2.47292,-5.82589 -2.58635,-6.66479 -1.41981,-10.5 2.26307,-7.44024 2.31616,-10.10803 0.3145,-15.8031 -1.70403,-4.84829 -1.97705,-8.57725 -2.1207,-28.96491 -0.18756,-26.62016 0.87129,-35.1559 6.37615,-51.40023 4.00711,-11.82458 9.97861,-36.98149 11.42026,-48.11156 1.77843,-13.73019 4.25176,-48.62965 3.92537,-55.38844 l -0.31388,-6.5 -2.27032,4.25 c -1.24868,2.3375 -2.93618,4.25 -3.75,4.25 -2.08546,0 -1.92315,-0.78785 2.09344,-10.16139 5.38409,-12.56488 8.17575,-23.33716 9.86014,-38.04762 0.83702,-7.31004 2.42424,-16.66599 3.52716,-20.79099 2.45142,-9.16851 2.66375,-22.94107 0.53958,-35 -1.90878,-10.83615 -1.93902,-14.1057 -0.12404,-13.40922 0.75678,0.2904 1.94563,3.21242 2.6419,6.49338 0.69627,3.28095 1.42997,5.80134 1.63046,5.60085 0.37947,-0.37947 3.33054,-23.05618 3.34256,-25.68501 0.006,-1.29035 -3.3125,-1.50536 -23.74201,-1.53836 -17.08485,-0.0276 -26.95391,-0.51718 -35.17081,-1.74473 -6.28206,-0.93851 -11.6348,-1.4935 -11.89498,-1.23333 -1.505,1.50501 5.24436,37.90145 9.73865,52.51642 2.76328,8.98589 4.17443,16.67925 5.60617,30.56398 0.48532,4.70652 0.29373,6.33916 -0.85583,7.29322 -1.26774,1.05213 -1.74508,0.10961 -3.3132,-6.54203 l -1.83208,-7.77126 -0.70577,3.97805 c -0.38817,2.18792 -0.73169,9.39285 -0.76339,16.01095 l -0.0576,12.03291 -9.388,29.46709 c -9.51711,29.87234 -11.61493,39.42722 -11.60918,52.87609 0.004,9.50781 1.86079,23.29503 4.45637,33.091 1.23871,4.675 4.78854,17.98713 7.88851,29.58252 3.98685,14.91273 6.07269,25.01837 7.12743,34.53157 1.98079,17.86564 1.18678,22.91374 -4.89039,31.09174 -2.47194,3.32648 -7.28613,11.43231 -10.69819,18.01297 -4.55888,8.79247 -7.75254,13.52812 -12.04515,17.86091 -6.97262,7.03787 -7.54802,9.90914 -2.5914,12.93125 1.7875,1.08986 4.50333,1.98325 6.03518,1.9853 1.53185,0.002 3.92768,0.75233 5.32406,1.66727 3.55042,2.32633 24.25879,2.6007 25.39523,0.33647 0.41407,-0.825 1.47518,-3.1875 2.35802,-5.25 2.14762,-5.01732 3.504,-4.74514 2.90349,0.58262 -0.45446,4.0319 -0.28976,4.40976 2.37283,5.44391 6.35179,2.46704 14.36115,2.48946 18.26553,0.0511 z m -36.90434,-6.19858 c 0,-1.38466 1.0937,-3.78016 2.43044,-5.32333 1.98781,-2.29479 2.66851,-2.57125 3.73772,-1.51804 1.07518,1.05909 0.95437,1.94473 -0.68044,4.9882 -2.43286,4.52918 -5.48772,5.56078 -5.48772,1.85317 z m -11.29876,-2.26119 c -1.07695,-1.07694 -0.84726,-2.07902 0.87019,-3.79647 2.35239,-2.3524 3.59965,-1.90269 3.24499,1.17002 -0.30247,2.62061 -2.63337,4.10827 -4.11518,2.62645 z m 29.87503,-45.88698 c -1.05806,-0.80051 -3.42056,-1.73628 -5.25,-2.07949 -2.03437,-0.38165 -3.32627,-1.21389 -3.32627,-2.14277 0,-1.20777 0.91851,-1.41524 4.48557,-1.01318 5.03726,0.56778 9.51443,3.05122 9.51443,5.27757 0,1.87566 -2.91892,1.85298 -5.42373,-0.0421 z m 4.0904,-93.14759 c -1.13295,-1.13294 -0.71851,-15.16152 0.88134,-29.83333 0.83963,-7.7 1.93413,-19.85 2.43223,-27 0.96931,-13.91419 3.41446,-24.5 5.65911,-24.5 1.85472,0 1.73012,3.2724 -0.6663,17.5 -1.11168,6.6 -2.45874,17.93799 -2.99349,25.19553 -0.53475,7.25754 -1.41499,16.25754 -1.9561,20 -0.54112,3.74246 -0.99276,9.61697 -1.00365,13.05447 -0.0183,5.77149 -0.65478,7.28169 -2.35314,5.58333 z m -6.73621,-97.01512 c -6.66158,-6.01834 -9.82511,-14.7739 -6.96952,-19.28925 1.31626,-2.0813 1.88496,-1.13333 3.02796,5.04731 0.82735,4.47384 1.75604,6.12427 5.30269,9.42373 2.36482,2.2 5.17914,4.53921 6.25404,5.19824 1.68936,1.03576 1.75097,1.33878 0.45437,2.23469 -2.44854,1.69185 -3.78034,1.26032 -8.06954,-2.61472 z m 3.55827,-47.33645 c -1.99076,-3.22111 13.25991,-17.49121 16.53194,-15.46899 1.82065,1.12523 0.99433,3.26665 -1.50233,3.89327 -3.19187,0.80111 -9.19911,6.07595 -11.0951,9.7424 -1.53172,2.96201 -2.85567,3.57892 -3.93451,1.83332 z m 25.93996,-1.73176 c -0.81306,-1.5125 -2.72153,-5.225 -4.24104,-8.25 -2.18332,-4.3465 -3.84833,-6.12918 -7.93889,-8.5 -5.58224,-3.23537 -6.24444,-5.13081 -1.67056,-4.78175 4.35109,0.33206 7.33934,3.14359 12.57496,11.83132 2.62702,4.35917 5.46726,8.43092 6.31163,9.04834 2.33779,1.70944 1.83464,3.40209 -1.0113,3.40209 -1.75297,0 -3.00717,-0.85695 -4.0248,-2.75 z m 80.57135,-47.40035 c 1.925,-0.61847 6.0203,-2.38519 9.1006,-3.92605 4.8743,-2.43823 5.8895,-3.47313 7.8283,-7.97987 5.5396,-12.87718 6.2545,-27.35121 2.1372,-43.2723 -3.2016,-12.38054 -6.605,-18.92716 -13.0211,-25.04712 -4.7381,-4.51935 -6.5377,-5.57565 -10.5154,-6.17214 -6.34223,-0.95108 -16.84113,0.0295 -22.93692,2.14221 l -4.90728,1.70081 3.53623,1.81419 c 17.67544,9.06806 26.93987,57.18486 15.16564,78.76657 -1.313,2.40678 -2.3873,4.4698 -2.3873,4.58449 0,0.50139 12.82883,-1.59195 16.00003,-2.61079 z m -16.06273,-3.78275 c 3.3712,-6.71332 4.5692,-14.10011 4.3897,-27.0669 -0.1452,-10.49183 -0.6059,-13.86555 -2.8675,-21 -5.0706,-15.99557 -11.0723,-25.04996 -17.77475,-26.81559 -4.92924,-1.29852 -6.29759,-0.44049 -9.02196,5.65727 -4.07633,9.12374 -5.01403,14.41878 -4.3404,24.50945 1.4582,21.84294 10.43971,41.66851 22.08536,48.75065 3.50415,2.13098 4.77545,1.44972 7.52955,-4.03488 z m 52.66203,-16.66341 c 5.5007,-1.95082 7.9072,-4.7875 9.8855,-11.65283 2.549,-8.8456 5.5225,-10.63158 11.6623,-7.00471 2.8742,1.69783 3.0714,1.67981 7.1543,-0.65362 9.4954,-5.4268 11.809,-6.38195 12.8754,-5.31557 1.5141,1.51413 0.6598,2.43888 -7.2395,7.83618 -6.9097,4.72122 -10.6754,5.73685 -15.9291,4.29615 -0.9974,-0.27351 -2.3866,1.41371 -4.1918,5.09091 -1.485,3.025 -2.7262,5.77953 -2.7582,6.12117 -0.032,0.34164 2.2564,0.92821 5.0854,1.30349 4.7315,0.62766 5.6049,0.3976 10.9007,-2.87117 3.1664,-1.95442 6.3248,-3.55349 7.0186,-3.55349 2.2365,0 9.6035,-4.84197 11.2952,-7.42383 2.3454,-3.57941 2.0779,-6.38704 -1.8038,-18.93639 -6.0557,-19.5776 -7.5543,-26.85442 -7.5543,-36.68261 0,-15.21949 2.7661,-24.49276 13.6588,-45.79145 14.6894,-28.72219 16.2019,-35.02096 13.6803,-56.97092 -1.2123,-10.55235 -1.3098,-14.71539 -0.4456,-19.01889 1.836,-9.14203 1.4475,-13.98198 -1.3935,-17.35828 -4.2145,-5.00863 -3.3925,-15.65944 2.687,-34.81763 2.6777,-8.43831 2.9629,-10.50582 2.5515,-18.5 -0.2868,-5.57429 -1.8896,-14.82961 -4.2107,-24.31551 -3.4557,-14.12191 -3.8605,-15.15454 -5.1945,-13.25 -2.0153,2.87726 -4.3333,2.63807 -4.3333,-0.44715 0,-1.38196 0.9345,-5.76946 2.0768,-9.75 1.245,-4.33883 2.3,-11.69444 2.6341,-18.36637 0.4787,-9.55759 0.2549,-12.12477 -1.5845,-18.18086 -1.3993,-4.6066 -3.2015,-8.1114 -5.1977,-10.10753 -4.6355,-4.63552 -15.415,-10.23514 -23.339,-12.12392 -10.5346,-2.51104 -20.5761,-6.83359 -36.1396,-15.55699 -21.0137,-11.77823 -25.8533,-14.12467 -31.9437,-15.48765 -4.4287,-0.99109 -5.823,-0.99307 -6.78983,-0.01 -0.9584,0.97488 -0.739,1.62802 1.03343,3.0769 2.8742,2.34959 2.8369,3.01872 -0.1682,3.01872 -5.02143,0 -5.57993,-0.78198 -5.61123,-7.85699 l -0.029,-6.64301 -3.2206,7.10405 c -4.2004,9.26567 -10.93938,21.39631 -11.88623,21.39631 -0.40961,0 0.43168,-3.0375 1.86953,-6.75 4.34676,-11.22318 10.0721,-28.51956 10.7373,-32.43757 l 0.626,-3.68758 -6.70502,6.94519 c -7.92971,8.21376 -11.09855,9.41561 -22.75617,8.63079 l -7.89398,-0.53145 -8.12691,-8.08469 c -4.4698,-4.44658 -8.42634,-8.08469 -8.79231,-8.08469 -1.01053,0 2.55883,12.11015 7.64843,25.94963 2.50549,6.81286 4.29439,12.64806 3.97533,12.96712 -1.59833,1.59834 -8.56779,-11.99482 -11.86125,-23.13405 l -2.44888,-8.2827 -0.0532,9.55 c -0.0548,9.83529 -0.80748,11.95 -4.25323,11.95 -1.94402,0 -2.42303,-1.49691 -0.8,-2.5 0.55,-0.33992 1,-1.76526 1,-3.16743 0,-2.26996 -0.30141,-2.47909 -2.75,-1.90803 -8.45079,1.97091 -31.64528,15.07805 -41.02902,23.18538 -3.79851,3.28182 -4.53224,3.56146 -6.53393,2.49019 -1.80303,-0.96495 -3.85127,-0.87884 -10.22097,0.4297 -17.67113,3.63022 -24.70775,7.18574 -31.33137,15.83134 -4.00802,5.23155 -9.58685,19.6885 -10.28181,26.64419 -0.3796,3.79938 -0.27603,3.83561 6.8971,2.41246 2.57465,-0.51081 3.25,-0.3143 3.25,0.94565 0,2.26456 -3.50994,4.20674 -11,6.08669 -7.94315,1.99368 -12.68188,5.15659 -17.9434,11.9765 -4.6596,6.0397 -6.05038,9.65315 -8.58065,22.29371 -1.58265,7.9065 -1.65273,9.58081 -0.49182,11.75 0.74461,1.39131 2.12269,2.52965 3.0624,2.52965 0.93972,0 2.26878,0.675 2.95347,1.5 1.56913,1.89068 -0.27021,4.5 -3.1721,4.5 -4.20444,0 -7.55186,-3.01552 -12.33036,-11.10776 -6.47415,-10.96379 -9.22535,-13.92459 -18.8626,-20.29963 -6.20426,-4.10412 -25.21931,-14.43801 -33.88494,-18.41507 -0.4125,-0.18931 -0.74945,13.53079 -0.74878,30.48913 l 0.001,30.83333 6.08859,7.5 c 12.96988,15.97646 15.19995,17.55442 29.40897,20.80939 13.95886,3.19765 18.25265,3.64948 18.65748,1.96328 0.59267,-2.4686 6.18755,-0.16707 11.74894,4.8331 4.31933,3.88345 5.54929,4.49887 7.85727,3.93148 4.75994,-1.17018 7.00323,-3.31945 8.65489,-8.2921 1.8403,-5.54065 13.58142,-18.31646 13.58142,-14.7783 0,1.04734 -0.97677,2.94398 -2.17061,4.21476 -1.19384,1.27078 -1.91613,2.56498 -1.6051,2.87602 0.31104,0.31103 2.64677,-2.0497 5.19053,-5.24606 2.54376,-3.19636 5.93821,-7.43564 7.54322,-9.42062 1.60502,-1.98497 5.86849,-8.05997 9.47439,-13.5 3.6059,-5.44002 8.14168,-12.14095 10.07952,-14.89095 4.32556,-6.13842 7.26612,-13.76041 8.12366,-21.05668 1.01944,-8.67384 2.68653,-5.95031 4.05911,6.6314 0.68554,6.2839 1.67,13.00028 2.1877,14.92528 5.23624,19.47029 9.30079,28.81201 19.0602,43.80684 l 6.05738,9.30684 0,12.24327 c 0,6.73379 -0.48152,18.24813 -1.07003,25.58741 -0.86793,10.8237 -0.82071,13.58204 0.25,14.60366 1.64279,1.56747 18.94113,11.45198 20.04149,11.45198 1.07223,0 -1.62991,-6.3605 -4.28804,-10.0935 -2.35027,-3.30066 -1.98469,-6.24714 0.64968,-5.23624 2.2941,0.88033 9.4169,12.13914 9.4169,14.88504 0,3.74977 7.37056,4.9447 30.5,4.9447 26.03812,0 49.48904,-2.74208 50.31034,-5.88272 0.9793,-3.74463 7.6747,-16.03719 8.9397,-16.41279 2.1459,-0.63718 1.4104,4.25155 -1.6739,11.12578 l -2.9238,6.5167 5.1738,-1.51883 c 5.4275,-1.59328 10.6494,-4.38878 12.6092,-6.7502 0.8853,-1.06676 0.7667,-4.08111 -0.501,-12.72525 -1.1868,-8.09257 -1.5482,-15.76826 -1.2654,-26.87811 l 0.3957,-15.55074 4.5971,-6.96192 c 6.8889,-10.43271 8.4946,-14.27193 9.1824,-21.95501 l 0.626,-6.99309 -6.2582,6.57377 c -6.6221,6.95594 -14.6908,11.33347 -16.8712,9.15313 -1.5504,-1.55045 -0.2982,-2.97378 4.9801,-5.66075 7.6591,-3.89893 9.5139,-6.54049 9.3456,-13.30937 -0.1317,-5.29895 -0.022,-5.61194 1.3451,-3.82947 0.8187,1.06762 1.4885,2.53012 1.4885,3.25 0,2.24624 1.8847,1.43462 3.3465,-1.44113 0.8677,-1.70691 1.0937,-3.50861 0.596,-4.75 -1.2401,-3.09277 -1.086,-3.68031 0.8075,-3.07966 1.54,0.4885 1.9495,-0.8534 3.413,-11.18261 0.9146,-6.45575 2.0181,-12.63773 2.4523,-13.73773 0.5658,-1.43364 -0.4629,-0.92847 -3.6326,1.78388 -7.0697,6.0497 -13.234,8.48948 -27.4827,10.87752 -11.8629,1.98817 -13.9506,2.07328 -23.86773,0.97291 -11.87406,-1.3175 -16.22102,-2.7031 -19.49069,-6.21267 -2.14339,-2.30066 -2.95677,-6.92164 -1.21835,-6.92164 0.50781,0 2.19531,1.05814 3.75,2.35143 4.42275,3.6791 6.33533,4.40424 14.67594,5.56431 12.05223,1.67632 18.17653,1.31019 30.91033,-1.84794 13.8484,-3.43453 16.7744,-5.06582 24.5602,-13.69239 l 5.8469,-6.4782 3.1667,5.94137 c 1.7417,3.26776 3.1667,6.66589 3.1667,7.5514 0,2.1215 -3.6001,2.09451 -4.4166,-0.0331 -0.3467,-0.90372 -0.8289,-1.44476 -1.0713,-1.20231 -1.5785,1.5785 -3.8069,28.79174 -3.8359,46.84544 -0.038,23.33343 0.069,23.78369 9.5058,40.30301 5.7082,9.9919 7.5009,10.71555 9.4937,3.83235 2.4256,-8.37784 5.9865,-9.30329 4.8757,-1.26713 -0.9357,6.76877 -2.3046,9.65878 -9.1801,19.38125 -11.4087,16.13295 -13.1641,26.05188 -11.4963,64.96205 0.6197,14.45866 1.1407,31.46347 1.1577,37.78847 0.026,9.77787 0.2298,11.23794 1.3593,9.75 2.1738,-2.86352 2.8987,-2.02132 2.3616,2.74362 -0.6837,6.06578 -4.083,10.21729 -13.1961,16.11637 -6.7069,4.34153 -7.8894,5.58818 -10.5426,11.11457 l -2.9883,6.22455 3.9358,5.61862 c 2.308,3.29477 4.4335,7.84223 5.139,10.99492 1.1537,5.15532 1.0768,5.63448 -1.8713,11.65683 -3.2062,6.54939 -4.8683,12.93887 -3.8109,14.64979 0.7504,1.21425 6.6124,0.5088 12.1801,-1.46578 z m 31.8164,-157.88323 c -2.3611,-9.4076 3.1473,-23.12879 13.5573,-33.77026 5.7342,-5.86174 10.0585,-8.45291 10.0131,-6 -0.01,0.4125 -3.1582,4.30624 -7.0012,8.65275 -9.3875,10.61739 -12.4534,16.99845 -12.5379,26.09492 -0.053,5.68409 -0.3758,7.05751 -1.7203,7.31644 -1.0862,0.20918 -1.8807,-0.57947 -2.311,-2.29385 z M 969.73453,365.52995 c -1.10484,-1.10483 -0.75007,-5.84993 0.53333,-7.13333 1.98977,-1.98977 3.97156,-1.42004 3.65242,1.05 -0.15989,1.2375 0.0595,2.8125 0.48745,3.5 0.42799,0.6875 0.50005,1.7 0.16013,2.25 -0.69834,1.12994 -3.82135,1.34532 -4.83333,0.33333 z m -44.7969,-16.08333 c -0.66561,-1.6937 -0.88372,-6.99048 -0.56784,-13.78975 0.56067,-12.06787 0.31007,-12.99427 -5.03302,-18.60601 -3.46754,-3.64189 -3.47032,-3.65249 -2.62007,-10 0.46814,-3.49483 1.30116,-6.35424 1.85116,-6.35424 0.55,0 1.28782,2.35819 1.63961,5.24042 0.41993,3.44058 1.79374,7.03894 4,10.477 3.29136,5.12902 3.36275,5.47329 3.47522,16.75958 0.0632,6.33765 0.62888,12.79826 1.25716,14.35692 0.62827,1.55865 0.88754,3.24615 0.57615,3.75 -1.12392,1.81854 -3.5202,0.85868 -4.57837,-1.83392 z m 75.13027,0.3151 c 0,-0.7892 0.4982,-2.7017 1.1071,-4.25 0.6089,-1.54831 1.049,-7.32522 0.978,-12.83758 -0.1266,-9.83683 -0.054,-10.16925 3.8984,-17.9451 2.3143,-4.55266 3.7889,-8.67427 3.4666,-9.68974 -0.6438,-2.02847 1.2428,-6.1505 2.4684,-5.39306 0.4499,0.27809 1.1319,3.279 1.5154,6.66869 0.6847,6.05222 0.6352,6.22797 -2.7501,9.77237 -5.321,5.57106 -5.6174,6.67441 -5.018,18.68125 0.6055,12.1302 -0.347,16.42807 -3.6411,16.42807 -1.1136,0 -2.0247,-0.64571 -2.0247,-1.4349 z m -46.00004,-10.50133 c -1.925,-0.38842 -4.93399,-1.45849 -6.68665,-2.37792 -3.31823,-1.74072 -5.58288,-1.4394 -8.58698,1.14252 -1.32213,1.13633 -2.0623,1.2357 -2.90762,0.39038 -1.66455,-1.66455 0.60594,-3.9661 5.29994,-5.37246 3.22436,-0.96604 4.8819,-0.85999 9.79123,0.62644 7.66573,2.32099 10.29503,1.61678 12.53843,-3.35819 1.60984,-3.56999 1.65802,-4.88588 0.52797,-14.42112 -1.33358,-11.25263 -0.87216,-15.69342 1.63063,-15.69342 1.27662,0 1.44281,0.74602 0.89219,4.00508 -0.40136,2.37564 0.0123,8.10808 1.01684,14.09009 1.42805,8.50427 1.49473,10.79493 0.4254,14.6142 -1.02025,3.64397 -1.91396,4.79905 -4.57262,5.90991 -3.56316,1.48879 -4.07338,1.51299 -9.36876,0.44449 z m 40.98751,-0.57878 c -2.3514,-2.83331 -7.0993,-3.33251 -12.36101,-1.29966 -4.4303,1.71162 -5.08643,1.74333 -7.21482,0.34876 -3.1949,-2.09338 -4.59083,-5.01324 -4.22159,-8.8303 l 0.30991,-3.20379 2.71735,4.17841 c 2.65265,4.07892 2.80302,4.15475 6.31546,3.18492 3.48938,-0.96346 5.8618,-0.746 13.7172,1.25739 2.6841,0.68453 3.75003,1.49712 3.75003,2.85881 0,2.57712 -1.50073,3.32707 -3.01253,1.50546 z m 99.48323,-24.53246 c -0.3561,-0.5761 -0.1023,-3.31969 0.5639,-6.09685 0.8371,-3.48926 0.9936,-8.98566 0.5068,-17.78932 -0.5607,-10.13704 -0.4063,-13.45406 0.7558,-16.23525 1.647,-3.94172 6.0363,-7.83111 8.8377,-7.83111 2.688,0 2.2971,2.88526 -0.5369,3.96273 -3.7247,1.41613 -4.7288,6.3638 -4.9271,24.27819 -0.1226,11.07685 -0.5882,16.97622 -1.4606,18.50908 -1.3853,2.43386 -2.7145,2.86127 -3.7396,1.20253 z m -167.01186,-9.01906 c -0.80566,-1.30359 -0.91589,-1.20504 4.2765,-3.82341 2.32945,-1.17468 4.97511,-3.26478 5.87924,-4.64465 1.57459,-2.40313 2.01423,-2.49742 10.43079,-2.23714 7.61033,0.23534 9.16637,-0.009 11.62075,-1.82378 4.57457,-3.38271 5.65572,-8.23793 3.81683,-17.14055 -1.49828,-7.25364 -1.30274,-11.26394 0.54921,-11.26394 3.18357,0 4.69782,18.81068 2.11343,26.25408 -1.98126,5.70635 -7.92879,8.81807 -16.49905,8.63223 -6.09593,-0.13218 -7.04837,0.14686 -11.8952,3.485 -5.26783,3.62809 -9.05158,4.57 -10.2925,2.56216 z m 69.04113,-3.02885 c -5.1216,-2.95857 -8.9035,-3.67886 -10,-1.90462 -0.8708,1.40891 -7.29108,1.16505 -11.81621,-0.44881 -4.99438,-1.78122 -7.6838,-4.30347 -7.6838,-7.20618 0,-2.91565 2.96429,-3.19758 3.70824,-0.35269 0.61715,2.35999 6.79604,4.31675 12.79176,4.05095 2.20001,-0.0975 4.67501,-0.18167 5.50001,-0.18698 2.3447,-0.0151 10.38253,3.6948 11.85873,5.47346 2.6111,3.14622 0.5608,3.41665 -4.35873,0.57487 z m -196.33924,-1.50092 c 0.27721,-1.43943 1.63725,-2.06296 5.80943,-2.66339 2.99612,-0.43118 6.46268,-1.44915 7.70346,-2.26214 3.0132,-1.97432 4.32634,-1.86298 4.32634,0.36684 0,3.49904 -3.52955,5.38837 -11.07483,5.92823 -6.57622,0.47053 -7.0984,0.36481 -6.7644,-1.36954 z m 104.14533,-12.4037 c -1.11827,-2.96264 -1.22491,-3 -8.56425,-3 -7.99904,0 -9.12343,-0.6131 -11.54849,-6.29705 -1.45061,-3.40001 -1.5706,-10.35177 -0.19336,-11.20295 0.57915,-0.35794 1,0.60654 1,2.29176 0,6.15381 3.14292,11.20824 6.96944,11.20824 0.77858,0 0.79783,-0.56635 0.0657,-1.93426 -1.43821,-2.68739 -1.2945,-6.06574 0.25806,-6.06574 0.71127,0 1.72377,1.44916 2.25,3.22035 0.77594,2.61162 1.72877,3.44115 5.04069,4.38842 9.13949,2.61407 12.47088,5.93646 9.21611,9.19123 -1.93918,1.93918 -3.28616,1.39966 -4.4939,-1.8 z m 100.51344,0.79368 c -0.2435,-1.68177 -1.353,-2.45697 -4.6664,-3.26055 -5.54933,-1.34585 -7.47373,-3.79627 -9.58643,-12.20696 -0.9378,-3.73336 -2.1603,-7.33642 -2.7166,-8.0068 -0.5564,-0.67038 -4.36702,-1.96539 -8.46809,-2.87779 -7.03058,-1.56415 -10.38202,-3.35395 -10.38202,-5.54439 0,-1.5053 3.12053,-2.3202 3.92157,-1.02409 0.39585,0.6405 4.71148,1.86128 9.59028,2.71287 12.67326,2.21207 12.62996,2.17565 12.38916,10.42308 -0.2365,8.09879 1.2004,10.98172 6.93053,13.905 4.6381,2.36618 6.5823,4.56513 5.8118,6.57322 -0.8563,2.23129 -2.4571,1.83809 -2.8238,-0.69359 z m -88.47221,-3.33093 c -0.95458,-2.4876 2.49832,-5.28478 8.06011,-6.52945 2.84984,-0.63777 5.88112,-1.67116 6.73619,-2.29644 0.85506,-0.62527 2.06148,-4.0142 2.68093,-7.53095 1.64983,-9.36651 2.63873,-10.10591 13.51598,-10.10591 7.864,0 9.32616,-0.27771 11.31891,-2.1498 2.13525,-2.00596 2.3342,-2.03032 2.9736,-0.36407 1.61533,4.20949 -2.36793,6.17996 -12.9285,6.39556 -4.66961,0.0953 -6.25631,0.57916 -8.16773,2.49058 -2.26286,2.26286 -4.51932,8.16492 -4.53124,11.85205 -0.007,2.03801 -3.87409,4.21017 -10.43969,5.86341 -2.60493,0.65592 -4.97105,1.80452 -5.25805,2.55243 -0.70526,1.83789 -3.23057,1.72477 -3.96051,-0.17741 z m 98.15271,-9.46275 c -0.8862,-1.43395 0.1932,-2.79 3.6396,-4.57217 3.9438,-2.03944 7.8374,-10.28174 7.8506,-16.61881 0.01,-4.81099 1.5531,-7.13934 3.1063,-4.68714 0.4801,0.75797 0.8798,2.92481 0.8882,4.81521 l 0.015,3.43709 3.0819,-2.93709 c 3.2472,-3.09459 5.9181,-8.34905 5.9181,-11.64255 0,-1.13543 0.5263,-1.77715 1.25,-1.52408 1.9981,0.69874 1.2526,7.27621 -1.4142,12.47753 -1.6019,3.12424 -3.7042,5.4371 -6.1373,6.75201 -2.0383,1.10152 -4.9871,4.05329 -6.5639,6.57061 -4.334,6.91893 -9.9103,10.71937 -11.6346,7.92939 z m -198.31959,-3.18268 c 0.21045,-1.43749 1.31605,-2.44761 3.2383,-2.95865 8.35797,-2.22201 19.5103,-14.2868 22.51643,-24.35867 2.3187,-7.76868 4.35005,-11.59213 5.98498,-11.26505 2.7988,0.55992 2.05806,10.30292 -1.28578,16.9119 -5.31163,10.49826 -10.80449,16.37883 -18.96542,20.30408 -8.73223,4.20003 -11.95956,4.58388 -11.48851,1.36639 z m -40.18045,-1.8424 c -1.375,-0.47695 -4.3417,-1.33971 -6.59266,-1.91723 -2.30139,-0.59046 -5.68757,-2.59899 -7.73665,-4.58903 -4.32469,-4.20009 -13.75701,-16.7708 -16.18565,-21.57106 -0.94544,-1.86868 -2.6324,-4.39691 -3.74879,-5.61828 -1.6688,-1.82574 -1.80569,-2.49072 -0.76972,-3.73899 0.69305,-0.83507 1.68318,-1.25682 2.20029,-0.93723 0.51712,0.3196 3.43174,4.44328 6.47695,9.16373 7.64646,11.85297 14.83033,18.59316 25.03699,23.49065 4.57558,2.19552 8.31924,4.61076 8.31924,5.36719 0,1.53255 -3.1388,1.6896 -7,0.35025 z m 131.5,-1.44883 c -3.01857,-1.85919 -5.423,-2.47133 -9.79966,-2.49488 -3.18981,-0.0172 -7.1229,-0.71548 -8.74019,-1.55182 -5.71037,-2.95294 -8.52155,-12.70192 -5.86232,-20.33017 1.7547,-5.03355 2.90217,-3.66917 2.90217,3.45078 0,6.17255 0.2202,6.8202 3.4,10 1.87,1.87 4.10004,3.4 4.95564,3.4 1.39613,0 1.4035,-0.43122 0.0719,-4.20548 -2.61827,-7.42098 0.21915,-9.62674 3.00384,-2.33513 1.52737,3.99935 2.39246,4.78455 8.38586,7.61146 7.00294,3.30307 8.14233,4.30459 8.16749,7.17915 0.0209,2.38838 -1.75312,2.19034 -6.48469,-0.72391 z m 1.69314,-20.5399 c -10.50682,-1.09184 -16.88711,-3.20857 -22.43114,-7.44175 -4.60348,-3.51502 -9.92742,-12.2168 -12.12285,-19.81434 l -1.22235,-4.2301 -9.27433,-0.2884 c -8.12666,-0.25271 -9.23395,-0.5002 -8.94804,-2 0.40131,-2.10509 9.97677,-4.30539 17.19608,-3.9514 l 4.89051,0.2398 1.3762,5.39537 c 4.20946,16.50316 13.3207,23.78317 32.75742,26.17364 12.02808,1.47931 31.84229,0.67542 39.58536,-1.60603 6.80658,-2.00552 9.37169,-2.254 9.94089,-0.96298 2.28388,5.18015 -31.01429,10.64076 -51.74775,8.48619 z m 54.56547,-35.19095 c -0.38112,-14.51116 -0.21131,-20.49712 0.59582,-21.0036 0.62087,-0.3896 1.43647,-0.3896 1.81244,0 0.37598,0.3896 0.80473,9.70701 0.95279,20.70537 0.23422,17.39891 0.068,20.03575 -1.27941,20.29524 -1.34321,0.25868 -1.61931,-2.3936 -2.08164,-19.99701 z m 82.47063,-16.96605 c -0.749,-0.74896 -1.2292,-4.09677 -1.2292,-8.56903 0,-7.98756 1.9741,-13.36352 6.7971,-18.51016 5.326,-5.68335 5.5886,-2.68574 0.6009,6.85785 -3.2424,6.204 -3.533,7.39138 -2.9099,11.89215 1.1271,8.14226 1.0841,8.92284 -0.5089,9.24798 -0.8365,0.17072 -2.074,-0.24274 -2.75,-0.91879 z m -174.78001,-1.91134 c -0.81393,-1.31697 0.31553,-14.96599 1.67317,-20.21935 1.00392,-3.88469 3.26266,-5.71344 4.96017,-4.01593 0.81111,0.81111 -1.71823,16.94332 -3.69509,23.56743 -0.58983,1.97641 -1.93987,2.28327 -2.93825,0.66785 z m 101.94954,-11.08164 c -1.32949,-2.15116 4.16944,-5.55571 10.85342,-6.71967 7.84522,-1.36619 20.74785,-1.46684 20.74785,-0.16185 0,1.04535 -2.8293,1.66167 -13.60223,2.963 -3.9061,0.47186 -9.25085,1.80841 -11.87708,2.97012 -5.60772,2.48055 -5.21284,2.41938 -6.12196,0.9484 z m -30.85285,-5.88435 c -3.27474,-1.59214 -8.33724,-3.38954 -11.25,-3.99423 -5.35014,-1.11068 -6.60601,-2.24092 -3.7204,-3.34824 2.41298,-0.92594 15.03508,2.02596 19.72493,4.61302 4.43407,2.44598 6.23152,5.83584 3.02287,5.70092 -1.00282,-0.0422 -4.50265,-1.37933 -7.7774,-2.97147 z m 14.10907,-6.7806 c -0.91025,-1.00581 -1.65499,-2.59195 -1.65499,-3.52475 0,-2.24278 -3.93277,-3.64144 -10.3151,-3.66847 -6.3879,-0.0271 -11.96154,-2.46432 -19.29306,-8.43653 -4.18596,-3.40986 -6.42446,-4.54151 -8.98351,-4.54151 -2.81143,0 -3.40833,-0.37318 -3.40833,-2.13084 0,-1.88654 0.41118,-2.06412 3.5863,-1.54887 1.97247,0.32009 5.68497,1.92182 8.25,3.55939 6.75049,4.30968 14.48674,7.09145 21.51701,7.737 8.14376,0.74781 12.44611,2.13342 13.02586,4.1951 0.2611,0.92852 0.77216,3.60072 1.13568,5.93822 0.74025,4.75992 -0.84403,5.75372 -3.85986,2.42126 z m 15.34501,-0.0303 c 0,-1.96246 0.52775,-2.14096 6.33,-2.14096 5.46373,0 7.55231,-0.60287 15.26171,-4.40526 9.49553,-4.68335 17.18393,-6.59474 26.52693,-6.59474 7.2018,0 11.1508,1.38808 10.6767,3.75291 -0.3697,1.84408 -1.5289,1.93047 -9.7953,0.72999 -4.7715,-0.69293 -12.5336,1.41607 -25.95763,7.05278 -4.5672,1.91775 -8.8852,2.863 -14.75004,3.22889 -7.96878,0.49716 -8.29237,0.4338 -8.29237,-1.62361 z m -10,-30.14096 c 0,-0.55 1.03899,-1 2.30887,-1 2.88757,0 5.41943,-1.90951 5.85677,-4.41713 0.1839,-1.05443 0.89686,-2.10443 1.58436,-2.33334 1.64837,-0.54884 1.69114,5.90933 0.05,7.55047 -1.44616,1.44616 -9.8,1.61664 -9.8,0.2 z m 165.93044,392.53105 c 11.3382,-3.01747 15.9714,-5.50737 18.6026,-9.99716 3.5309,-6.0251 6.4693,-18.51993 6.4539,-27.44385 -0.016,-9.42123 -3.0017,-24.25837 -6.3547,-31.58221 -1.3923,-3.0413 -4.4335,-7.7852 -6.758,-10.54201 -3.4287,-4.06622 -5.2693,-5.31551 -9.7506,-6.61827 -6.1951,-1.80097 -17.5462,-1.41784 -24.8933,0.84021 l -4.2696,1.31224 4.7006,3.5 c 5.8009,4.31932 10.2573,12.20137 13.8518,24.5 2.2022,7.53485 2.6477,11.11632 2.7367,22 0.1216,14.88431 -1.2467,22.77034 -5.2485,30.25 l -2.8089,5.25 4.1538,-0.0119 c 2.2846,-0.007 6.5975,-0.66221 9.5842,-1.45708 z m -14.5096,-3.8057 c 4.2553,-7.26112 5.9407,-15.81996 5.8535,-29.72535 -0.065,-10.41081 -0.5154,-13.97453 -2.6929,-21.32235 -5.163,-17.42143 -11.3577,-25.65484 -19.3146,-25.67106 -2.859,-0.006 -3.5084,0.5431 -5.6117,4.74341 -1.3082,2.6125 -3.1415,7.08121 -4.0741,9.93046 -1.9328,5.90544 -2.1266,4.79478 5.0951,29.20708 3.666,12.3928 4.4542,16.38254 4.0497,20.5 -0.5022,5.11226 -0.502,5.11268 5.226,10.86246 3.1505,3.1625 6.4562,5.75 7.346,5.75 0.8899,0 2.7452,-1.92359 4.123,-4.27465 z m -159.60301,-10.7111 6.31782,-1.25184 -0.70913,-4.13121 c -0.39003,-2.27216 -0.70496,-8.4062 -0.69984,-13.6312 0.008,-8.25432 0.4211,-10.55997 3.14988,-17.58373 1.72731,-4.44606 4.20596,-9.08461 5.50809,-10.30791 2.29123,-2.15249 30.88019,-14.3487 36.55759,-15.59567 3.5985,-0.79036 7.7552,0.25629 8.4758,2.13424 0.322,0.83913 -0.565,2.51161 -2.0737,3.90975 -2.0107,1.86345 -2.2464,2.44332 -0.9932,2.44332 2.2524,0 8.7207,6.01393 12.7423,11.84723 l 3.3267,4.82519 2.051,-3.04349 c 1.128,-1.67392 4.6573,-4.58982 7.8429,-6.47977 10.872,-6.45033 12.1036,-12.99858 7.2691,-38.64916 -1.5549,-8.25 -3.1123,-16.575 -3.4608,-18.5 -0.4889,-2.6995 -1.433,-3.8999 -4.1281,-5.24845 -1.9218,-0.96164 -4.5661,-1.74914 -5.8762,-1.75 -5.5464,-0.004 -12.515,-7.20657 -15.6968,-16.22493 -2.8398,-8.04883 -0.9578,-12.26429 3.2773,-7.34069 l 2.371,2.75641 6.1363,-3.65538 c 3.375,-2.01047 7.4094,-3.90999 8.9653,-4.22118 2.0429,-0.40857 2.8273,-1.15623 2.8233,-2.69078 -0.01,-2.56148 -1.8934,-9.625 -2.5708,-9.625 -0.2654,0 -2.6986,1.75176 -5.4072,3.8928 -3.6327,2.87148 -7.8884,4.82449 -16.2206,7.44394 -15.15813,4.76534 -21.14133,5.6599 -42.29584,6.32365 -28.8906,0.90648 -50.94777,-2.97194 -67.73308,-11.90983 -4.25319,-2.26475 -7.91528,-3.92262 -8.13796,-3.68415 -0.22268,0.23848 -2.71332,5.23596 -5.53474,11.10553 -5.4872,11.41534 -6.38101,15.0244 -8.07344,32.59919 -0.59697,6.19912 -2.29649,16.77412 -3.77672,23.5 -2.5676,11.6667 -2.69105,13.51604 -2.6856,40.22887 0.003,15.4 0.3521,30.10919 0.77546,32.68709 0.71523,4.35505 1.06716,4.79695 4.96792,6.23787 5.56105,2.05422 12.74222,3.65332 20.69816,4.60906 9.46034,1.13646 45.44181,0.44175 52.81783,-1.01977 z m -76.35812,-39.25864 c -0.29774,-0.77589 -0.0176,-2.72581 0.62254,-4.33316 0.67934,-1.7058 1.50168,-13.12213 1.97529,-27.42245 1.15587,-34.90015 2.4935,-38.82028 14.50507,-42.50919 3.81556,-1.17181 7.93673,-2.76164 9.15814,-3.53297 2.50589,-1.58247 5.20755,-7.13699 3.72684,-7.66226 -2.71973,-0.9648 -17.85299,-10.93906 -17.89664,-11.79558 -0.12606,-2.47415 5.76227,-1.4501 12.56234,2.18475 4.36732,2.33446 7.29696,3.38514 7.54821,2.70706 1.09828,-2.964 3.14597,-4.67967 4.81904,-4.03765 1.45954,0.56008 1.654,1.40304 1.10935,4.80905 -1.59654,9.98423 -8.75256,19.97466 -15.31468,21.38064 -13.11152,2.80924 -13.59646,4.10995 -16.78515,45.02079 -0.86013,11.03555 -1.90931,21.35623 -2.33149,22.93484 -0.85512,3.19743 -2.86679,4.42445 -3.69886,2.25613 z m 62.86319,-0.35653 c -0.78932,-2.05692 0.9286,-3.08507 7.42312,-4.44264 6.35913,-1.32926 9.75398,-0.96605 9.75398,1.04356 0,0.9829 -1.37892,1.70773 -4,2.10258 -2.2,0.33142 -5.26679,1.11892 -6.8151,1.75 -3.84653,1.56783 -5.63527,1.44032 -6.362,-0.4535 z m 8.58634,-10.55762 c -6.19517,-3.30229 -8.86105,-4.13005 -14.5,-4.50226 -3.80008,-0.25083 -7.92174,-0.66333 -9.15924,-0.91668 -3.07494,-0.62951 -3.0096,-4.19377 0.0912,-4.97201 6.2627,-1.57184 36.13068,10.359 34.11159,13.62596 -0.93634,1.51503 -2.57634,1.01183 -10.5435,-3.23501 z m -24.30713,-48.65955 c -3.61457,-0.63234 -6.7821,-3.33525 -5.45905,-4.6583 0.31478,-0.31478 3.20591,0.11363 6.42473,0.95203 8.83985,2.30249 22.27838,1.93619 36.07862,-0.9834 10.73754,-2.27164 22.3568,-6.59454 22.35151,-8.31579 -10e-4,-0.37205 -7.76364,-0.70485 -17.25,-0.73955 -13.95048,-0.051 -19.2553,-0.49401 -27.74792,-2.31705 -12.14032,-2.60606 -19,-5.33679 -19,-7.56362 0,-2.39605 3.88122,-1.90793 12.11246,1.52332 9.59452,3.99955 19.79368,4.97008 40.2234,3.82758 10.57424,-0.59135 16.47185,-0.54522 17.75005,0.13882 2.452,1.3123 2.5258,6.09047 0.1276,8.26087 -3.0688,2.77715 -11.11421,5.82746 -20.59511,7.8083 -9.68338,2.02314 -37.86879,3.31719 -45.01629,2.06679 z m 109.08503,88.05643 c -0.2503,-0.95609 -0.446,0.0617 -0.4349,2.26166 0.011,2.2 0.2159,2.98225 0.4551,1.73834 0.2391,-1.24391 0.2301,-3.04391 -0.02,-4 z m -27.6519,-45.78072 c 0.9478,-1.14206 0.9882,-1.83423 0.1556,-2.66683 -0.8326,-0.8326 -2.226,-0.62773 -5.3685,0.78934 l -4.24403,1.91379 2.96083,0.63472 c 4.6947,1.00642 5.1423,0.96019 6.4961,-0.67102 z m 30.6233,-79.13243 c -0.7208,-0.72082 -16.6585,10.03995 -16.6585,11.24744 0,2.9364 4.4027,6.47853 10.3081,8.29328 l 6.1919,1.9028 0.2852,-10.51586 c 0.1568,-5.78372 0.1,-10.70117 -0.1267,-10.92766 z m 8.4766,-12.32519 c 1.1387,-5.775 4.086,-15.7827 6.5494,-22.23934 5.1253,-13.43313 5.1108,-14.21216 -0.4698,-25.26066 -1.9447,-3.85 -4.9318,-10.8851 -6.6382,-15.63355 l -3.1024,-8.63355 -4.4306,6.42683 -4.4307,6.42683 -0.056,15.20672 c -0.06,16.19569 1.8614,32.70672 3.8063,32.70672 2.994,0 4.4121,6.51345 5.7697,26.5 0.1601,2.35628 0.282,2.14171 0.5681,-1 0.2003,-2.2 1.2959,-8.725 2.4346,-14.5 z M 696.06786,224.29024 c 0,-1.42137 -0.51476,-1.77177 -2.0233,-1.37728 -1.91484,0.50075 -1.92824,0.60122 -0.25,1.87458 2.2894,1.73706 2.2733,1.74058 2.2733,-0.4973 z m 18.5302,-9.1144 c 2.47055,-1.69978 6.06193,-3.74651 7.98085,-4.54828 3.69313,-1.54309 4.4365,-3.77653 2.23895,-6.7269 -1.14345,-1.53517 -1.7188,-1.55247 -6.75,-0.20299 -3.416,0.91624 -10.14163,1.47971 -17.75,1.48708 -11.58729,0.0112 -12.25,-0.0963 -12.25,-1.98813 0,-1.88654 0.66659,-1.99999 11.75,-1.99977 9.71909,1.9e-4 13.30559,-0.4525 20.75,-2.61905 9.85713,-2.86872 12.5,-4.54192 12.5,-7.91372 0,-4.85787 -7.03188,-6.98401 -16.52759,-4.99725 -3.63494,0.76053 -9.09301,1.08913 -12.94913,0.7796 -3.9172,-0.31444 -8.86936,-0.006 -12.00996,0.74699 -2.93932,0.70514 -6.04969,1.01135 -6.91192,0.68049 -1.83489,-0.70412 -1.145,-3.25471 1.1149,-4.12192 2.60703,-1.00041 31.24932,-3.01059 39.7837,-2.7921 8.36838,0.21423 10.20627,-0.44754 12.33307,-4.44083 1.6149,-3.03213 0.59742,-4.95252 -3.99004,-7.53082 -3.71812,-2.0897 -3.91137,-2.42763 -3.33595,-5.83354 0.77756,-4.6023 -0.26989,-5.4681 -8.39527,-6.93944 -3.51351,-0.63622 -8.59267,-2.02569 -11.28702,-3.0877 -5.9349,-2.33932 -9.18923,-2.40951 -17.0672,-0.36813 -11.04022,2.86081 -13.45234,4.21702 -15.18004,8.53498 -0.86765,2.16847 -1.58574,4.94608 -1.59575,6.17245 -0.01,1.22637 -1.36001,4.20998 -3,6.63024 -4.34303,6.40936 -4.03772,10.20942 1.44596,17.99693 2.43695,3.46078 4.7202,8.01891 5.07818,10.13772 0.35772,2.11735 1.29023,4.38074 2.07223,5.02975 0.78201,0.649 1.42183,2.72949 1.42183,4.62331 0,6.78454 0.48793,7.01799 13.96634,6.68225 11.62965,-0.28969 12.23654,-0.41395 16.56386,-3.39122 z m -26.5302,-47.29231 c 0,-3.3403 15.13664,-5.50994 26.88704,-3.85391 7.85152,1.10654 10.69869,2.56893 8.11291,4.16703 -0.81583,0.50421 -2.45799,0.67213 -3.64924,0.37315 -3.54715,-0.89028 -19.41835,-0.85428 -25.60071,0.0581 -4.94862,0.73028 -5.75,0.62654 -5.75,-0.74435 z m 42.60417,33.58392 c -0.3323,-0.33229 -0.56864,0.25834 -0.52522,1.3125 0.048,1.16495 0.28494,1.4019 0.60416,0.60417 0.28887,-0.72188 0.25335,-1.58438 -0.0789,-1.91667 z m -37.84547,-52.94291 c 6.14452,-1.43712 7.17164,-1.97204 6.69148,-3.48488 -0.31939,-1.00631 0.55066,-3.69471 1.9913,-6.15297 2.7967,-4.77221 3.13985,-7.72401 1.45859,-12.54687 -1.06623,-3.0586 -4.61963,-5.05259 -6.70606,-3.7631 -0.50581,0.31261 -1.50851,2.67153 -2.22821,5.24206 -0.7197,2.57052 -2.83157,6.66894 -4.69304,9.1076 -3.64944,4.78103 -5.27276,8.27082 -5.27276,11.33534 0,2.35868 -0.17931,2.3533 8.7587,0.26282 z m 283.98373,-30.14451 c 8.25244,-5.87626 16.32508,-18.53716 19.93788,-31.26999 2.48743,-8.76663 2.40433,-47.87581 -0.1166,-54.84475 -3.8219,-10.56569 -11.64513,-16.325 -24.56371,-18.08338 -24.80519,-3.37628 -40.09473,5.84697 -43.91054,26.48858 -1.32005,7.1408 -1.3978,30.61525 -0.13044,39.38128 1.61317,11.15798 6.74973,20.14628 17.86515,31.2617 9.09297,9.09297 10.04686,9.76855 14.21152,10.06518 7.14327,0.50878 13.34404,-0.60417 16.70674,-2.99862 z"
       id="path3018"
       inkscape:connector-curvature="0" />
  </g>
</svg>
