<?xml version="1.0" encoding="UTF-8" standalone="no"?>
<!-- Created with Inkscape (http://www.inkscape.org/) -->

<svg
   xmlns:dc="http://purl.org/dc/elements/1.1/"
   xmlns:cc="http://creativecommons.org/ns#"
   xmlns:rdf="http://www.w3.org/1999/02/22-rdf-syntax-ns#"
   xmlns:svg="http://www.w3.org/2000/svg"
   xmlns="http://www.w3.org/2000/svg"
   xmlns:xlink="http://www.w3.org/1999/xlink"
   xmlns:sodipodi="http://sodipodi.sourceforge.net/DTD/sodipodi-0.dtd"
   xmlns:inkscape="http://www.inkscape.org/namespaces/inkscape"
   width="589.98224"
   height="899.41656"
   id="svg2"
   version="1.1"
   inkscape:version="0.48.3.1 r9886"
   sodipodi:docname="One-arm-bench-press-1.svg"
   inkscape:export-filename="/home/christian/Dokumente/Code/workspace/opentraining-exercises/Back-extension-on-stability-ball-2.png"
   inkscape:export-xdpi="214"
   inkscape:export-ydpi="214">
  <defs
     id="defs4">
    <radialGradient
       gradientUnits="userSpaceOnUse"
       gradientTransform="matrix(1,0,0,0.91819829,-19.285714,-7.9105395)"
       r="209.56604"
       fy="287.50052"
       fx="398.1105"
       cy="287.50052"
       cx="398.1105"
       id="radialGradient5255"
       xlink:href="#linearGradient5249"
       inkscape:collect="always" />
    <linearGradient
       id="linearGradient5249"
       inkscape:collect="always">
      <stop
         id="stop5251"
         offset="0"
         style="stop-color:#e3e3e3;stop-opacity:1;" />
      <stop
         id="stop5253"
         offset="1"
         style="stop-color:#e3e3e3;stop-opacity:0;" />
    </linearGradient>
  </defs>
  <sodipodi:namedview
     id="base"
     pagecolor="#ffffff"
     bordercolor="#666666"
     borderopacity="1.0"
     inkscape:pageopacity="0.0"
     inkscape:pageshadow="2"
     inkscape:zoom="0.35"
     inkscape:cx="-498.20464"
     inkscape:cy="247.27467"
     inkscape:document-units="px"
     inkscape:current-layer="layer1"
     showgrid="false"
     showguides="true"
     inkscape:guide-bbox="true"
     fit-margin-top="0"
     fit-margin-left="0"
     fit-margin-right="0"
     fit-margin-bottom="0"
     inkscape:window-width="1615"
     inkscape:window-height="1026"
     inkscape:window-x="65"
     inkscape:window-y="24"
     inkscape:window-maximized="1">
    <sodipodi:guide
       orientation="-0.70710678,0.70710678"
       position="-1607.1591,769.52291"
       id="guide2985" />
  </sodipodi:namedview>
  <metadata
     id="metadata7">
    <rdf:RDF>
      <cc:Work
         rdf:about="">
        <dc:format>image/svg+xml</dc:format>
        <dc:type
           rdf:resource="http://purl.org/dc/dcmitype/StillImage" />
        <dc:title></dc:title>
      </cc:Work>
    </rdf:RDF>
  </metadata>
  <g
     inkscape:label="Ebene 1"
     inkscape:groupmode="layer"
     id="layer1"
     transform="translate(-178.58766,103.24579)">
    <path
       style="fill:#000000"
       d="m 441.63382,794.7561 c -1.85065,-0.80347 -4.77565,-1.46526 -6.5,-1.47063 -6.38729,-0.0199 -19.61964,-8.35848 -22.85743,-14.40398 -0.61453,-1.14744 -1.89191,-6.3971 -2.83861,-11.66592 -1.27315,-7.08564 -2.79102,-11.59875 -5.83021,-17.33502 -3.99521,-7.5407 -4.10881,-8.02287 -4.1043,-17.42033 0.004,-8.51332 -1.16462,-17.52958 -3.95703,-30.52747 -0.59782,-2.7827 -0.28104,-6.19035 1.13314,-12.18943 l 1.96294,-8.32695 -2.1311,-15.31057 c -1.1721,-8.42081 -3.98522,-24.53556 -6.25138,-35.81056 -3.86568,-19.23326 -4.12318,-21.58137 -4.1671,-38 -0.056,-20.93129 1.53371,-28.75115 10.16449,-50 8.99007,-22.13341 9.37087,-23.22418 8.69141,-24.89543 -0.3588,-0.88251 -0.96304,-9.53402 -1.34277,-19.22557 l -0.69041,-17.62101 -6.03927,-7.9984 c -3.3216,-4.39912 -7.06765,-10.53217 -8.32456,-13.629 -1.86467,-4.59425 -2.71764,-5.63059 -4.63435,-5.63059 -3.48529,0 -9.04877,-5.44518 -11.03116,-10.7966 -0.95829,-2.58687 -1.92012,-4.92352 -2.1374,-5.19255 -0.41729,-0.51668 -9.20198,-1.09197 -15.4727,-1.01328 -2.8919,0.0363 -4.59259,-0.73926 -7.6212,-3.47543 -2.31436,-2.09089 -4.93557,-3.52214 -6.45047,-3.52214 -1.50263,0 -3.78656,-1.23469 -5.55475,-3.00288 l -3.00289,-3.00288 -54.10121,17.70241 -54.10121,17.70241 -7.97283,-7.92607 -7.97283,-7.92607 0,-10.65214 0,-10.65214 2.75,-1.06873 c 1.5125,-0.5878 17.0375,-5.68036 34.5,-11.31681 31.5441,-10.18161 31.75,-10.26601 31.75,-13.01404 0,-2.3923 -0.55423,-2.91521 -4.10247,-3.87065 -15.03459,-4.0484 -32.21097,-14.73164 -42.21778,-26.25833 -2.84886,-3.28155 -7.47916,-7.26703 -10.28954,-8.8566 -7.59378,-4.2951 -8.92956,-6.15509 -8.67429,-12.07839 0.12336,-2.86228 -0.41253,-6.2255 -1.25,-7.84499 -1.89586,-3.66619 -1.85698,-9.82919 0.12238,-19.40039 0.98223,-4.74957 1.37032,-9.84637 1.01703,-13.35696 -1.94572,-19.33471 -1.88115,-24.91002 0.3745,-32.33624 l 2.20802,-7.26945 -4.07925,-3.53553 c -30.11478,-26.10078 -30.59163,-26.69356 -31.78919,-39.51793 -0.52647,-5.63788 -0.27375,-7.09063 2.06505,-11.87097 2.90261,-5.93273 6.98785,-9.59135 14.12665,-12.65139 6.1491,-2.63581 18.43367,-5.62679 26.73889,-6.51023 3.7125,-0.3949 6.75,-0.96622 6.75,-1.26959 0,-0.30338 -0.4962,-3.40095 -1.10266,-6.88351 -3.13213,-17.98602 8.0617,-38.20798 25.80105,-46.6103 6.59618,-3.12431 7.19426,-3.22042 19.80161,-3.18226 15.08466,0.0457 21.3496,1.5325 31.54361,7.48612 10.4806,6.121 10.72304,6.43129 14.04405,17.97453 1.66148,5.775 3.78396,12.07361 4.71661,13.99692 1.55889,3.21472 2.01852,3.47704 5.69573,3.25062 2.2,-0.13545 8.275,0.61232 13.5,1.66173 7.46309,1.49891 9.95543,1.65959 11.62412,0.74937 1.16826,-0.63725 3.58411,-1.98529 5.36855,-2.99563 1.78445,-1.01034 5.7786,-2.3823 8.87589,-3.04879 5.2586,-1.13156 7.54145,-2.29384 19.8859,-10.12456 l 4.74554,-3.01034 0.56172,-13.98966 c 0.55462,-13.81294 0.60802,-14.07177 4.22728,-20.48966 4.43396,-7.86254 4.70271,-12.21071 1.21094,-19.59171 -5.35296,-11.315224 -6.76299,-26.195604 -4.63444,-48.908294 1.17041,-12.4888 -0.3933,-38.91853 -2.72158,-46.0000001 -1.42501,-4.33418 -2.37043,-5.43278 -7.09968,-8.25 -3.00067,-1.7875 -5.98809,-3.25 -6.63871,-3.25 -0.65062,0 -1.458,1.4625 -1.79418,3.25 -0.95912,5.09973 -6.00511,14.8264201 -10.18676,19.6360701 -5.35051,6.15405 -12.10368,9.09206 -20.92459,9.10337 -10.01576,0.0128 -16.97556,-3.46507 -25.62148,-12.80347 -23.70074,-25.5989901 -26.59802,-72.904636 -5.75446,-93.956564 5.40448,-5.458515 10.07794,-7.555489 17.87594,-8.020908 9.79762,-0.584765 16.68437,2.353404 25.06932,10.695585 3.64634,3.627753 7.29571,7.599006 8.10971,8.825006 1.30743,1.969197 1.87879,2.113375 4.90048,1.2366 3.59251,-1.042405 8.53982,-0.444601 10.69465,1.292281 0.91062,0.733993 3.53365,0.05907 9.19319,-2.365472 7.74631,-3.318516 7.94365,-3.490636 9.04895,-7.8925 1.67535,-6.672115 6.36387,-15.927994 10.53106,-20.789984 8.33042,-9.71934 21.78423,-12.46704 33.83681,-6.91054 9.03779,4.166612 17.57186,13.606116 23.60163,26.105669 6.17982,12.810617 8.36738,22.627197 8.37776,37.594857 0.009,13.04341 -1.58858,20.54081 -6.41399,30.0998999 -6.13515,12.15367 -15.81845,18.9001001 -27.12771,18.9001001 -2.87296,0 -4.82186,0.44965 -4.82186,1.11249 0,0.61188 2.88519,8.37438 6.41153,17.25 8.95014,22.52704 9.03204,22.89336 9.08957,40.6549 0.0409,12.625 0.37603,16.20391 1.79799,19.20046 1.65892,3.49593 1.66049,4.18871 0.0308,13.635254 -1.68492,9.7669 -1.67599,10.17275 0.47971,21.79954 1.55176,8.36946 2.19568,15.7061 2.19348,24.99202 -0.004,17.61566 -1.4451,22.08815 -12.51827,38.85534 -8.21962,12.44634 -11.48481,19.90743 -11.48481,26.24334 0,1.27773 1.21522,4.67069 2.70048,7.5399 2.44997,4.73283 2.70972,6.28355 2.8001,16.71676 0.0881,10.16848 0.40298,12.15956 2.71969,17.19648 3.27804,7.12701 21.28289,31.51105 23.87474,32.33368 1.05756,0.33565 3.58389,2.59743 5.61407,5.02617 3.91203,4.68004 7.40594,6.25877 18.79092,8.4907 4.96318,0.97299 6.86402,1.98511 11,5.85705 4.43148,4.14858 6.70556,5.26595 20,9.827 8.25,2.83041 20.625,6.58462 27.5,8.3427 13.50971,3.4547 21.69877,6.63274 23.87244,9.26453 0.75485,0.91393 1.98064,1.66169 2.72397,1.66169 3.68008,0 34.12734,13.8434 42.90359,19.50689 2.75,1.77463 8.97604,6.8814 13.83565,11.34838 7.12739,6.55154 11.36703,9.42902 21.92875,14.88325 11.5032,5.94044 13.49545,7.35017 16.40661,11.60944 3.46061,5.06318 7.53304,16.78342 9.49867,27.3367 0.98099,5.2668 0.90547,6.83005 -0.50887,10.53343 -2.07183,5.425 -2.11318,15.20504 -0.11747,27.78191 2.27776,14.35427 3.70374,59.1002 2.43009,76.25355 -2.14275,28.85833 -2.32464,46.65676 -0.55358,54.17041 0.89763,3.80817 2.54066,8.39411 3.65118,10.19097 1.11052,1.79686 7.38247,7.35468 13.93766,12.35071 7.51721,5.72924 14.42463,12.04654 18.70492,17.10692 6.50782,7.69387 14.11259,13.92744 16.99108,13.92744 0.74899,0 3.48434,1.06338 6.07855,2.36308 2.59422,1.29969 7.19176,2.92511 10.21676,3.61204 11.14375,2.53058 19,9.15616 19,16.02368 0,3.28268 -0.62188,4.38136 -4.25,7.50842 -2.3375,2.01469 -5.56047,4.34905 -7.16215,5.18746 -4.4783,2.3442 -13.37394,2.77042 -20.67553,0.99065 -3.52678,-0.85966 -10.56973,-2.04912 -15.65102,-2.64324 -9.34341,-1.09247 -15.97085,-3.78347 -27.96431,-11.35461 -4.82217,-3.0441 -19.17403,-7.68748 -23.76064,-7.68748 -1.84823,0 -6.8875,0.67492 -11.19838,1.49983 -17.98887,3.44224 -24.79916,1.38866 -29.88796,-9.01247 -3.60663,-7.37169 -2.98329,-12.58296 3.51683,-29.40155 6.47356,-16.74988 8.59863,-31.63384 6.50855,-45.58581 -2.8145,-18.7878 -6.04152,-29.76694 -11.00384,-37.43789 -9.7842,-15.12484 -12.16157,-25.73672 -10.8793,-48.56211 0.46347,-8.25 0.85731,-20.14104 0.87521,-26.42452 l 0.0325,-11.42453 -6.92633,-3.57547 c -3.80949,-1.96652 -9.99699,-6.44249 -13.75,-9.94661 l -6.82363,-6.37113 0,3.17079 c 0,5.7161 -4.72709,11.9392 -11.768,15.4923 -1.79741,0.90703 -22.17408,8.32258 -45.2815,16.47899 -23.10743,8.15642 -42.22841,15.04476 -42.49108,15.30743 -0.26267,0.26267 -0.361,23.65956 -0.2185,51.99309 l 0.25908,51.5155 36.5,-14.32989 c 20.075,-7.88144 36.95,-14.33017 37.5,-14.3305 0.55,-3.4e-4 5.5,2.84803 11,6.32971 l 10,6.33032 0.2855,10.80676 c 0.1782,6.7453 -0.11831,11.21472 -0.78896,11.89226 -0.59096,0.59702 -32.66943,13.48372 -71.2855,28.6371 l -70.21104,27.5516 0.22889,22.26314 c 0.12589,12.24473 0.69751,24.00347 1.27027,26.13054 0.71944,2.67181 3.81219,6.88133 10.00414,13.61659 7.18454,7.81495 10.16704,12.07182 15.03272,21.45601 4.81053,9.27781 7.12333,12.59502 11.14671,15.98759 3.24956,2.74007 5.89441,6.1095 7.34863,9.36185 1.24955,2.79459 3.89117,6.63186 5.87027,8.52725 4.39069,4.20497 4.697,7.92468 1.04668,12.71049 -3.83611,5.0294 -7.78077,6.69716 -14.08729,5.95595 -4.53223,-0.53267 -5.42981,-0.35259 -6.29435,1.26281 -1.34878,2.52023 -8.11398,5.12303 -13.33691,5.13117 -2.5376,0.004 -5.42994,0.80144 -7.22976,1.99341 -3.52646,2.33548 -7.68957,2.49065 -12.36481,0.46086 z m 12.36481,-6.82251 c 2.2,-0.85281 5.71708,-1.57032 7.81574,-1.59446 5.13344,-0.0591 7.57517,-1.53855 9.28234,-5.62438 1.58476,-3.79288 2.86964,-4.2112 5.5326,-1.80125 0.98349,0.89005 3.74991,1.83938 6.14759,2.10964 3.95211,0.44546 4.60996,0.19365 7.04058,-2.69499 1.47463,-1.7525 2.68115,-3.6449 2.68115,-4.20534 0,-1.46139 -3.28914,-6.82757 -4.18488,-6.82757 -0.41451,0 -2.40495,-2.5875 -4.42319,-5.75 -2.01824,-3.1625 -5.99115,-8 -8.82869,-10.75 -2.90975,-2.81999 -6.96156,-8.35743 -9.29307,-12.70048 -4.51326,-8.40711 -9.07005,-14.80682 -17.65803,-24.79952 -10.36284,-12.05787 -11.00847,-15.29538 -11.06784,-55.5 -0.0487,-32.99385 -0.54667,-29.94257 6.85414,-42 2.02553,-3.3 4.38451,-8.40745 5.24217,-11.3499 1.86707,-6.40548 2.00209,-18.57455 0.33234,-29.9527 l -1.21841,-8.3026 -3.8896,6.3026 c -6.65649,10.78598 -15.40288,36.4323 -16.55833,48.5526 -0.3277,3.4375 -0.97217,6.25 -1.43216,6.25 -3.226,0 -1.35585,-16.99655 3.70853,-33.70442 4.06219,-13.40153 7.86583,-22.17155 12.22736,-28.19246 4.34242,-5.99454 7.07645,-13.87236 7.76644,-22.3782 0.72591,-8.94864 1.63898,-11.44368 7.36824,-20.13429 l 4.55498,-6.90937 0.0155,-11.7056 c 0.0111,-8.36745 0.40246,-12.17187 1.37244,-13.34063 2.0928,-2.52167 2.96001,-1.97246 3.33956,2.11497 l 0.34821,3.75 2.19019,-4.5 c 2.54638,-5.23184 2.77229,-10.97968 1.20289,-30.60478 -2.85479,-35.69888 -14.81868,-55.21498 -35.46878,-57.85847 -7.15358,-0.91575 -25.82187,1.06969 -30.81165,3.27693 -7.10418,3.14256 -15.18884,14.18148 -16.86056,23.0217 -0.76773,4.05978 -0.40934,6.13174 2.76396,15.97931 2.99131,9.28279 4.76501,12.8744 9.87692,20 10.03357,13.98599 9.83951,13.37434 10.21137,32.18531 0.47777,24.16805 0.41632,25.52862 -1.34103,29.69413 -2.74121,6.49761 -2.08074,15.30612 2.1599,28.80587 2.07324,6.6 4.00667,13.125 4.29651,14.5 0.48898,2.31977 0.39483,2.39186 -1.3059,1 -2.36697,-1.9371 -7.89075,-13.87654 -10.10556,-21.84278 -2.02607,-7.28735 -2.28938,-7.06376 -6.29213,5.34278 -7.52016,23.3088 -7.78491,40.69428 -1.10406,72.5 7.34025,34.94498 8.46822,48.98723 5.01844,62.47571 l -1.99379,7.79564 3.5542,3.93407 c 3.79878,4.2048 4.40896,8.4118 1.1829,8.15569 -2.11651,-0.16802 -2.11788,-0.12144 -0.18062,6.13889 1.15367,3.72812 1.38482,7.16219 0.90869,13.5 l -0.63857,8.5 5.22489,9.94229 c 4.79294,9.12037 5.27552,10.65841 5.83744,18.60469 0.3819,5.40059 1.17476,9.34692 2.1056,10.48032 2.06604,2.51559 17.15917,9.46569 20.6404,9.5045 1.56896,0.0175 3.75265,0.72099 4.85265,1.56332 2.17923,1.66876 4.81929,1.43913 11,-0.95677 z m 12.7,-11.83835 c -0.66,-0.66 -1.2,-1.9549 -1.2,-2.87756 0,-2.27864 -2.38456,-4.09584 -4.37325,-3.3327 -0.89471,0.34333 -1.62675,0.93552 -1.62675,1.31597 0,0.38046 -1.6875,0.77196 -3.75,0.87002 -2.0625,0.0981 -6.83789,0.45425 -10.61198,0.79156 -3.77408,0.3373 -8.38658,0.32726 -10.25,-0.0223 -2.81526,-0.52817 -3.38802,-1.07357 -3.38802,-3.22623 0,-2.5378 0.0968,-2.57406 4.75,-1.77897 2.6125,0.4464 6.55,0.73301 8.75,0.63692 10.77431,-0.47064 14.95186,-1.0323 15.29314,-2.05612 0.97509,-2.92528 7.40101,0.42038 9.83033,5.11817 2.34335,4.53155 -0.14192,7.84279 -3.42347,4.56124 z m -55.2,-64.05488 c 0,-0.69019 2.50084,-4.57921 5.55742,-8.64228 3.05659,-4.06306 6.98488,-10.13586 8.72953,-13.49511 2.8658,-5.51796 3.2044,-5.84466 3.50653,-3.38335 0.65368,5.32526 -12.4617,26.77562 -16.3714,26.77562 -0.78215,0 -1.42208,-0.5647 -1.42208,-1.25488 z M 437.3919,525.79833 c -2.30102,-1.25067 -5.89327,-5.49797 -5.89327,-6.96791 0,-1.06581 2.83822,-0.49428 7.26111,1.46217 3.01802,1.33501 5.54725,1.79098 7.62712,1.375 2.82326,-0.56465 3.11177,-0.38889 3.11177,1.89566 0,1.38491 -0.7118,2.79116 -1.58179,3.125 -2.68196,1.02917 -7.78855,0.59739 -10.52494,-0.88992 z m 25.65567,-41.4239 c -0.35064,-0.56735 -0.90072,-3.25382 -1.22241,-5.96993 -0.45845,-3.87089 -1.52968,-6.09017 -4.9557,-10.26673 -4.35968,-5.31475 -5.34181,-8.1244 -3.28442,-9.39593 1.75545,-1.08493 7.78878,5.56218 11.04085,12.16405 3.38289,6.86745 3.72354,13.61696 0.71598,14.1864 -0.91122,0.17253 -1.94366,-0.15051 -2.2943,-0.71786 z m -37.17763,-6.55396 c -0.62552,-1.63006 18.49702,-22.72464 19.845,-21.89154 2.104,1.30034 -0.20435,6.86692 -6.0893,14.68435 -5.45267,7.2432 -12.35428,10.85925 -13.7557,7.20719 z m 330.79995,196.81978 c 4.16989,-3.77369 1.01181,-9.84518 -4.57573,-8.79695 -2.35878,0.44251 -4.48968,-0.0797 -8.05064,-1.97313 -2.66352,-1.41621 -5.45075,-2.57493 -6.19383,-2.57493 -0.74308,0 -1.35106,-0.45 -1.35106,-1 0,-1.45354 4.11028,-1.22519 9,0.5 2.3383,0.825 5.56722,1.5 7.17539,1.5 4.6604,0 8.82461,2.63534 8.82461,5.5847 0,2.91019 1.4902,2.47278 2.3145,-0.67936 0.95047,-3.6346 -6.69427,-9.88388 -13.63391,-11.1452 -5.47042,-0.99428 -20.31678,-6.74476 -25.07436,-9.71212 -1.70842,-1.06557 -6.48123,-5.45577 -10.60623,-9.756 -4.125,-4.30024 -13.6539,-12.43865 -21.17534,-18.08537 -15.26716,-11.46181 -16.76752,-13.49281 -18.99022,-25.70665 -1.49999,-8.24254 -1.62646,-31.20247 -0.4005,-72.70971 0.82658,-27.98564 0.74347,-30.80378 -1.43218,-48.56286 -2.17905,-17.7868 -2.42824,-18.84959 -4.40572,-18.79029 -3.62468,0.1087 -3.06195,-4.25987 1.76804,-13.72557 l 4.45435,-8.72955 -1.36089,-5.74101 c -2.38135,-10.04584 -6.1621,-19.87523 -9.88067,-25.68829 -3.43951,-5.37682 -4.18585,-5.9176 -16.00243,-11.59487 -10.78386,-5.18111 -13.15361,-6.78045 -18.23455,-12.3065 -9.7553,-10.60988 -20.2129,-16.99317 -43.33989,-26.45454 -14.50063,-5.93228 -20.24055,-6.93409 -29.70145,-5.18395 -18.19776,3.36636 -24.57463,9.13442 -30.1694,27.28909 -1.72645,5.60223 -6.10406,30.9354 -6.12373,35.43801 -0.007,1.69756 16.77107,9.99348 23.78789,11.76163 3.13868,0.79091 12.99426,2.12359 21.90129,2.96152 20.03798,1.88507 24.39646,3.40506 34.88862,12.16719 4.35423,3.63627 9.71678,7.75915 11.91678,9.16196 5.76475,3.67585 15.15427,7.14963 21.26712,7.86808 9.24746,1.08686 7.85525,4.29778 -1.87499,4.32435 l -5.60786,0.0153 -2.14991,15.75 c -3.21707,23.56792 -2.70941,36.49778 2.0122,51.25 2.65574,8.29763 5.71524,13.67707 13.026,22.9033 3.22646,4.07181 6.13108,8.45831 6.45471,9.74776 0.88284,3.51751 -0.28583,5.67149 -2.7303,5.03225 -1.73228,-0.453 -1.9897,-0.18026 -1.54456,1.63655 0.29379,1.19907 1.28392,7.58014 2.20029,14.18014 2.80232,20.18312 0.8416,34.20043 -7.2407,51.76421 -6.90832,15.0126 -6.26397,23.15805 2.14769,27.14964 4.76673,2.26196 31.42799,1.83146 29.99673,-0.48436 -0.26897,-0.43521 -0.0258,-1.0776 0.54041,-1.42753 2.02804,-1.2534 11.69708,2.53385 22.87587,8.96021 6.25498,3.59581 11.52836,6.53783 11.71861,6.53783 0.19026,0 0.0869,-0.675 -0.22968,-1.5 -1.04699,-2.7284 2.19231,-1.59461 4.54822,1.59194 3.41665,4.62126 7.56943,5.90167 19.30803,5.95316 6.50591,0.0285 11.3839,0.5496 13.28212,1.41879 4.39103,2.01061 14.39704,1.93927 16.67126,-0.11888 z M 646.37572,633.39679 c -2.22529,-1.80193 -2.27856,-2.11967 -1.04773,-6.25 0.71322,-2.39335 1.7942,-6.26405 2.40218,-8.60155 0.60798,-2.3375 1.49372,-4.25 1.96832,-4.25 1.78174,0 1.92272,3.06652 0.38426,8.35862 -2.31255,7.95489 -1.88609,8.58398 6.91588,10.20207 3.68982,0.67831 3.80614,0.79367 1.5,1.48764 -4.66626,1.40419 -9.70563,1.01062 -12.12291,-0.94678 z M 623.39324,433.9212 c -6.84223,-1.47263 -9.92252,-3.35028 -16.39461,-9.99364 -3.69125,-3.78894 -6.43962,-5.59057 -10.5,-6.88305 -7.03916,-2.24067 -8.43395,-3.17603 -7.6771,-5.14835 1.7595,-4.58519 11.85956,-0.01 23.6771,10.72658 7.4528,6.77077 12.80262,9.09904 17.75029,7.725 5.5602,-1.54415 7.24971,-1.33154 7.24971,0.91232 0,3.93746 -4.35648,4.75936 -14.10539,2.66114 z m 13.89825,-18.82723 c -0.40441,-9.87863 -0.86036,-12.22312 -3.6277,-18.65344 -3.16263,-7.34883 -3.932,-11.55332 -2.29881,-12.56269 1.22732,-0.75852 3.4625,2.04706 6.70606,8.4174 2.65872,5.2217 2.80364,6.20731 2.864,19.47844 0.0552,12.12731 -0.15125,14.02085 -1.55871,14.29873 -1.39846,0.2761 -1.68612,-1.23864 -2.08484,-10.97844 z m -125.04832,200.94117 67.24453,-26.2399 3.9e-4,-7.5 3.9e-4,-7.5 -7.54118,-4.75 c -4.14765,-2.6125 -8.01014,-4.75 -8.58332,-4.75 -0.57317,0 -18.3641,6.80326 -39.53538,15.11836 -24.35865,9.56695 -38.84269,14.76892 -39.4449,14.16671 -0.57999,-0.57999 -0.93245,-22.07217 -0.90246,-55.02965 l 0.0492,-54.07798 -3.47813,1.06747 c -3.07218,0.94288 -3.72699,1.77869 -5.61036,7.16128 -1.17272,3.35159 -3.38007,10.59381 -4.90521,16.09381 -1.52515,5.5 -4.70113,14.03746 -7.05775,18.97214 -3.378,7.07341 -4.58536,11.09428 -5.70519,19 -1.57939,11.15012 -1.61076,14.0894 -0.25113,23.52786 2.70625,18.78653 0.34619,32.60511 -8.70619,50.97632 -6.25993,12.70413 -8.37221,21.97511 -4.71062,20.67535 1.04102,-0.36953 32.15281,-12.47983 69.13731,-26.91177 z M 527.99863,463.1901 c 54.32555,-19.17957 54.34129,-19.18774 55.25303,-28.67636 l 0.47784,-4.97299 -6.44735,-1.12275 c -3.54604,-0.61752 -8.93904,-1.12276 -11.98444,-1.12276 -7.90998,0 -21.25841,-2.51462 -31.3502,-5.90584 l -8.68783,-2.91945 -3.13053,1.90891 c -1.72178,1.0499 -4.73199,1.91059 -6.68935,1.91264 -4.21931,0.004 -12.7639,-4.85326 -20.73693,-11.78917 -10.59358,-9.21558 -9.28831,-8.7524 -17.35522,-6.15854 l -7.071,2.27363 0.66369,12.58891 c 0.36503,6.9239 1.29203,15.73891 2.06,19.58891 0.76797,3.85 1.68361,10.07054 2.03476,13.82343 0.42671,4.56054 1.02398,6.67915 1.80099,6.38838 9.19693,-3.44171 82.06402,-26.71181 83.64432,-26.71181 1.4894,0 2.06389,0.52434 1.84123,1.68051 -0.24363,1.2651 -10.95296,5.13651 -43.32332,15.66137 l -42.99969,13.98085 0.323,8.91761 c 0.28502,7.86891 0.52022,8.84019 2,8.25924 0.92235,-0.3621 23.277,-8.28423 49.677,-17.60472 z M 270.95801,436.85278 c 24.22234,-7.94335 47.75018,-15.612 52.28409,-17.04144 l 8.24348,-2.59899 -2.92541,-5.7952 c -4.52337,-8.96074 -8.15947,-11.57491 -18.7059,-13.4486 -4.8706,-0.86532 -11.55564,-1.84885 -14.85564,-2.18562 -3.3,-0.33677 -7.21162,-0.83934 -8.69248,-1.11682 -2.58822,-0.48498 -2.70439,-0.31893 -3,4.28805 l -0.30752,4.79257 -34.23412,11.02425 -34.23413,11.02426 -0.0159,6.86149 -0.0159,6.86148 5.25,5.82453 c 2.8875,3.2035 5.68172,5.85333 6.20938,5.88852 0.52766,0.0352 20.77766,-6.43512 45,-14.37848 z m 112.93728,-15.24801 c 4.36073,-8.27652 11.5275,-16.20987 17.30723,-19.15847 8.82594,-4.50266 23.85605,-5.10933 40.39401,-1.63047 9.22564,1.94068 13.83522,4.43268 18.85828,10.19506 l 4.1705,4.78435 -0.31334,-5.5 -0.31334,-5.5 6.7059,-3.36787 c 3.68824,-1.85232 8.73738,-3.59684 11.2203,-3.8767 4.39987,-0.49593 4.83868,-0.27293 17.29411,8.78867 7.02883,5.11363 13.29915,9.69003 13.93404,10.16977 1.40487,1.06156 6.5464,-0.08 5.79997,-1.28779 -0.29253,-0.47331 -1.80984,-0.60498 -3.37181,-0.29258 -1.56202,0.3124 -3.13641,0.0883 -3.49877,-0.49801 -0.80896,-1.30892 1.82736,-22.23315 4.42685,-35.13549 2.28922,-11.36235 9.23735,-26.25449 14.33946,-30.73419 4.08065,-3.58287 16.85329,-9.05781 23.14212,-9.91979 2.50934,-0.34394 4.74533,-0.92128 4.96886,-1.28297 0.22354,-0.36169 -4.40124,-1.93319 -10.2773,-3.49221 -5.87605,-1.55902 -20.19365,-6.41908 -31.81688,-10.80012 -16.55257,-6.23901 -21.4057,-8.47479 -22.39059,-10.31509 -1.41363,-2.64137 -1.59613,-2.73213 -11.97626,-5.9557 -4.125,-1.28103 -9.525,-3.01597 -12,-3.85543 -2.475,-0.83947 -7.13872,-1.81667 -10.36382,-2.17158 -6.8549,-0.75434 -6.4253,-2.22076 0.97717,-3.33551 l 4.88665,-0.73588 -3.20034,-1.70077 c -5.98636,-3.18134 -21.25561,-1.76465 -36.43817,3.38075 -14.35015,4.8633 -35.01904,16.12092 -45.67202,24.87593 -7.90425,6.49601 -15.97254,16.67858 -17.79398,22.45687 -1.66403,5.2789 -1.64739,5.56552 0.91729,15.80066 2.56115,10.22102 7.65819,23.10733 7.67745,19.41008 0.005,-1.03123 -1.18088,-4.52808 -2.63612,-7.77078 -1.45524,-3.24271 -2.31029,-6.22398 -1.90011,-6.62505 1.24038,-1.21283 7.48923,6.84623 8.64949,11.15513 1.15037,4.27213 0.63115,12.22862 -1.56797,24.02765 -1.11467,5.98057 -1.04454,8.81137 0.52045,21.00697 0.9948,7.75223 2.37442,15.44183 3.06581,17.088 1.21305,2.88817 1.27862,2.7478 1.87172,-4.00697 0.47477,-5.4071 1.47674,-8.63624 4.40316,-14.19047 z m 71.50625,-33.51586 c -7.42455,-13.8382 -10.86423,-16.68437 -21.40291,-17.70984 -5.57764,-0.54273 -6,-0.75981 -6,-3.08383 0,-2.28188 0.4247,-2.52701 4.86784,-2.8096 7.36045,-0.46814 14.74366,3.63134 20.36799,11.30921 5.9728,8.15357 11.54908,18.23037 10.77837,19.47741 -1.77649,2.87442 -4.38049,0.70222 -8.61129,-7.18335 z m 32.14332,-21.70728 c -3.25062,-6.07385 3.58644,-28.5631 10.76771,-35.41839 4.42978,-4.22869 4.48114,-1.99131 0.12498,5.4441 -4.2419,7.24037 -5.63092,11.94858 -6.50273,22.0415 -0.3161,3.65949 -1.15932,7.45309 -1.87383,8.43022 -1.22201,1.67121 -1.3713,1.6417 -2.51613,-0.49743 z m -117.56131,-4.11079 c -1.03306,-1.67153 0.51917,-7.07287 3.87259,-13.4756 3.72395,-7.11019 23.18531,-27.28558 28.77238,-29.82803 1.99644,-0.90849 6.49644,-2.34052 10,-3.18228 12.62275,-3.03272 14.02549,-3.64958 19.43112,-8.54494 5.33267,-4.82929 9.43899,-6.36535 9.43899,-3.53085 0,1.70921 -10.93435,10.5376 -16.5,13.32209 -2.2,1.10066 -6.2494,2.32968 -8.99867,2.73117 -8.89014,1.29825 -14.01726,3.95898 -22.47912,11.66559 -9.13495,8.31962 -12.43861,12.98641 -17.07285,24.11725 -3.00272,7.21214 -4.92665,9.21379 -6.46444,6.7256 z m 39.81653,-15.63242 c -0.98316,-2.56208 1.7803,-6.52654 6.98986,-10.02761 8.25963,-5.55088 58.56788,-24.31557 65.1902,-24.31557 7.18213,0 -0.83423,4.02399 -25.73437,12.91796 -25.70779,9.18244 -31.2519,11.76134 -38.07252,17.7098 -3.38794,2.95473 -6.51484,5.37224 -6.94864,5.37224 -0.43381,0 -1.07485,-0.74557 -1.42453,-1.65682 z m 16.44855,1.09393 c -1.45374,-1.49336 -0.71194,-2.22167 2.96544,-2.91155 4.9057,-0.92031 8.81425,-2.95495 14.28456,-7.43597 8.77633,-7.18916 10.02441,-7.72251 23.17209,-9.90227 9.21757,-1.52818 14.04054,-2.86236 17.69193,-4.89411 5.39593,-3.00247 7.94943,-2.43151 6.70206,1.49858 -0.84195,2.65277 -3.72277,3.67835 -18.70936,6.66061 -15.67277,3.11881 -17.22069,3.70661 -22.44677,8.52384 -2.31612,2.13492 -6.11328,4.85209 -8.43814,6.03814 -4.40087,2.24516 -13.91981,3.7602 -15.22181,2.42273 z m -62.62299,82.81289 c -0.51885,-0.9625 -2.11565,-2.84654 -3.54843,-4.18676 -2.08367,-1.94904 -2.8526,-2.18584 -3.84182,-1.18313 -0.9853,0.99873 -0.57275,1.84999 2.02902,4.18675 3.71385,3.33558 6.90063,4.03885 5.36123,1.18314 z m -11.40514,-2.54237 c -1.20233,-1.8108 -4.64107,-5.1858 -7.64164,-7.5 -4.86649,-3.7533 -5.17993,-4.20763 -2.90276,-4.20763 1.40405,0 3.626,0.8381 4.93767,1.86244 1.31167,1.02434 3.37272,2.17184 4.5801,2.55001 2.02494,0.63423 2.15275,0.42566 1.6474,-2.68841 -0.38705,-2.38511 -0.0565,-3.86732 1.12619,-5.05001 2.58776,-2.58777 3.85796,-2.058 3.18102,1.32672 -0.536,2.68 0.10502,3.72218 5.99699,9.75 l 6.59713,6.74925 -0.68642,-5.5 c -1.03233,-8.27158 -4.3548,-21.18081 -8.68353,-33.73928 -2.13071,-6.1816 -3.87402,-11.85842 -3.87402,-12.61514 0,-0.75672 0.94203,-2.57346 2.09339,-4.03718 1.88991,-2.40263 1.98283,-3.12046 0.95593,-7.38486 l -1.13746,-4.72354 -9.2802,0 c -8.77263,0 -9.49484,0.16409 -13.20442,3 -9.22028,7.04875 -18.42771,9.61421 -21.4473,5.97583 -1.68198,-2.02666 -0.36788,-3.1992 1.95773,-1.74683 1.01569,0.63431 2.10782,0.89218 2.42695,0.57305 0.31914,-0.31914 -1.09485,-1.41823 -3.14219,-2.44242 -8.03027,-4.0172 -15.37328,-10.59406 -20.14702,-18.04495 -5.25412,-8.20066 -8.79813,-10.91672 -23.3169,-17.86963 -8.38016,-4.01318 -8.84373,-4.11923 -11.21482,-2.56564 -6.69983,4.3899 -6.14617,-1.20585 0.84495,-8.53987 8.16822,-8.56884 10.55791,-18.20262 9.82156,-39.59454 l -0.38742,-11.255 -2.81576,2.005 c -1.54867,1.10275 -3.30879,2.005 -3.91139,2.005 -2.40908,0 -0.79459,-2.74492 5.27482,-8.96812 3.50374,-3.59254 8.21716,-8.48574 10.47426,-10.87379 3.91156,-4.1385 6.0781,-4.88966 6.90946,-2.39558 0.20855,0.62564 -1.39508,3.07251 -3.56361,5.4375 -3.32765,3.62912 -4.13107,5.3921 -5.14961,11.29999 -0.66375,3.85 -1.057,10.09208 -0.87389,13.87128 l 0.33294,6.87129 4.96885,1.94797 c 2.73286,1.07139 9.70786,3.29868 15.5,4.94954 12.16144,3.46622 21.47949,8.66039 38.85332,21.65803 11.13024,8.3267 14.38933,11.98874 18.15499,20.39962 1.65828,3.70387 1.72903,3.74254 2.74954,1.50275 1.72399,-3.78375 12.76773,-15.91628 18.37348,-20.1849 l 5.23252,-3.98443 -5.91635,-1.84348 c -5.78715,-1.80322 -13.18485,-1.8372 -20.66635,-0.0949 -4.35733,1.01473 -3.51207,-2.16785 1,-3.76519 5.21564,-1.84641 20.58851,-1.51687 26.1747,0.56109 4.33777,1.61358 4.49652,1.59838 8.08082,-0.77359 2.01087,-1.33073 6.84372,-4.02476 10.73967,-5.98673 5.85967,-2.95088 6.99355,-3.91136 6.56268,-5.55902 -0.41526,-1.58797 0.4131,-2.44557 4.08563,-4.22982 2.62476,-1.27521 4.6065,-2.92665 4.6065,-3.83875 0,-0.8804 0.54,-2.14073 1.2,-2.80073 0.79046,-0.79046 0.83009,-1.2 0.11614,-1.2 -0.59612,0 -2.09331,-2.48715 -3.3271,-5.52699 -1.29373,-3.18756 -3.56009,-6.55758 -5.35434,-7.9618 -2.44816,-1.91597 -2.85112,-2.69479 -1.89105,-3.65486 0.96006,-0.96006 2.07628,-0.31996 5.2382,3.00391 2.27113,2.38746 4.01815,5.21126 4.01815,6.49476 0,1.24894 1.2375,3.45587 2.75,4.90429 2.28569,2.18886 3.83405,2.68476 9.17063,2.93709 8.73427,0.413 9.18099,2.47272 0.56813,2.61949 -4.9184,0.0838 -6.72041,-0.25599 -7.13874,-1.34615 -0.80192,-2.08976 -1.9957,-0.99132 -2.68877,2.47403 -0.40489,2.02442 -1.90152,3.84862 -4.64949,5.66715 -2.22883,1.47497 -3.90184,2.83233 -3.71781,3.01637 0.18404,0.18403 3.46261,-0.97964 7.28572,-2.58594 3.82311,-1.6063 10.76918,-4.02072 15.43572,-5.36538 l 8.48461,-2.44483 0.29944,-5.03415 c 0.16954,-2.85035 0.92869,-5.55639 1.75,-6.23802 1.6125,-1.33826 1.62859,-1.29363 1.81683,5.04103 l 0.13373,4.5 4.74326,0.30452 4.74326,0.30451 -7.04103,-9.80451 c -11.58948,-16.13819 -14.76562,-24.79582 -14.96957,-40.80455 -0.082,-6.43677 -1.74191,-10.96653 -6.94507,-18.95265 -3.77387,-5.79235 -4.4024,-6.33226 -6.12172,-5.25853 -1.41216,0.88191 -2.37535,0.90687 -3.66259,0.0949 -1.87719,-1.1841 -1.54909,-2.97289 0.50346,-2.74483 2.86623,0.31847 0.80335,-1.3617 -6.00847,-4.89377 -4.09974,-2.12579 -8.97696,-3.86122 -11.24153,-4 -2.26396,-0.13873 -3.783,-0.67913 -3.5,-1.24512 0.58812,-1.17624 9.09045,-1.21063 13.75,-0.0556 3.05581,0.75747 3.25,0.64621 3.25,-1.86209 0,-2.99146 -6.06738,-11.77832 -10.99754,-15.92678 -4.78631,-4.02741 -11.07449,-7.42837 -15.09123,-8.16208 -5.34726,-0.97674 -21.40711,2.10736 -27.09548,5.20336 l -4.84884,2.63907 2.12131,2.25804 c 3.18573,3.39105 1.38819,4.98475 -2.20866,1.9582 -1.63377,-1.37473 -4.86254,-2.99015 -7.17503,-3.58983 -2.31249,-0.59967 -5.77953,-1.509 -7.70453,-2.02072 -5.77172,-1.5343 -13.33856,-1.07998 -25.74632,1.54583 -12.55754,2.65752 -26.92772,8.7544 -34.01628,14.4322 -4.52795,3.6268 -15.35998,8.64664 -20.77948,9.62974 -5.54658,1.00615 -7.92911,2.37774 -17.36775,9.99836 -11.65772,9.41228 -16.33673,17.05954 -18.51822,30.26579 -0.48873,2.95864 -0.33448,3.24592 1.44035,2.68262 3.02861,-0.96125 2.52529,1.32032 -2.46933,11.19345 -6.46916,12.78791 -8.16899,22.26106 -6.50508,36.25271 1.10668,9.30601 1.05574,12.06767 -0.39436,21.37828 -1.49628,9.60706 -1.51194,11.05863 -0.15438,14.30774 0.83097,1.98877 1.51085,5.60835 1.51085,8.04349 0,4.333 2.24601,10.32822 3.8693,10.32822 0.44987,0 6.58703,5.40314 13.63814,12.00697 13.28089,12.43844 22.09921,18.38518 34.49256,23.26048 10.09237,3.97015 13.38391,4.60393 32.13736,6.18802 9.6315,0.81356 18.48846,1.84048 19.68213,2.28205 2.22091,0.82157 11.16567,14.91918 15.07858,23.76496 1.93379,4.37166 4.48446,7.38446 6.32055,7.46572 0.39523,0.0175 0.45959,-0.6432 0.14301,-1.4682 -1.02762,-2.67792 0.80803,-1.59549 5.08755,3 4.89634,5.25786 7.43913,5.97655 4.27269,1.20763 z m -73.4047,-58.21062 c -8.6854,-1.88799 -14.45308,-4.65933 -19.63193,-9.43302 -5.14446,-4.742 -6.96325,-8.43004 -6.50744,-13.19541 0.31585,-3.30216 0.41747,-3.20611 5.15407,4.87162 7.11545,12.1346 9.68037,13.49634 29.48709,15.65508 15.11421,1.6473 18.58404,3.64238 6.13104,3.52522 -4.6475,-0.0437 -11.23227,-0.6843 -14.63283,-1.42349 z m -53.24774,-25.18598 c -1.35841,-4.89187 -1.36468,-9.31103 -0.0132,-9.31103 1.38419,0 5.1687,8.5935 4.74756,10.7803 -0.17972,0.9332 -1.08036,1.84186 -2.00142,2.01924 -1.1998,0.23106 -1.97474,-0.75812 -2.73294,-3.48851 z m -2.44999,-31.28944 c -0.53249,-3.33006 -0.0669,-5.44518 2.47156,-11.22891 3.46282,-7.88973 3.55482,-13.31659 0.28698,-16.92751 -1.78366,-1.97092 -1.79484,-1.97058 -2.55252,0.0776 -1.01927,2.75534 -3.64719,2.61568 -4.36187,-0.23182 -0.70199,-2.79698 0.98502,-7.56215 2.94326,-8.3136 2.13545,-0.81945 5.37226,1.27479 7.0828,4.58261 2.52593,4.88461 1.99342,17.57879 -1.1226,26.76117 -1.44812,4.26737 -2.96113,8.12436 -3.36224,8.57109 -0.40111,0.44673 -1.02452,-1.03406 -1.38537,-3.29065 z m 170.66935,-10.82195 c -1.53883,-0.97793 -4.28879,-7.49732 -4.28879,-10.16752 0,-1.13966 0.65876,-2.03212 1.5,-2.03212 0.88778,0 1.50153,0.91833 1.50374,2.25 0.004,2.61768 3.49561,8.75 4.98156,8.75 0.55809,0 1.0147,0.45 1.0147,1 0,1.17724 -2.97457,1.30329 -4.71121,0.19964 z m -91.18157,-13.26373 c -1.02487,-1.68526 -2.15639,-5.65389 -2.5145,-8.81919 -0.35812,-3.16529 -1.32283,-6.71408 -2.14381,-7.88619 -1.30455,-1.86251 -2.13715,-2.05479 -6.60589,-1.52553 -6.7128,0.79503 -6.31901,-1.57023 0.55331,-3.32337 2.61898,-0.66811 5.58628,-1.9609 6.594,-2.87287 2.37415,-2.14859 4.95303,-7.49278 4.36064,-9.03653 -0.25408,-0.66213 -2.94685,-1.46034 -5.98393,-1.7738 -5.94146,-0.61321 -10.36704,-2.84221 -10.36704,-5.22148 0,-2.03247 1.57699,-1.84957 4.83756,0.56108 2.71253,2.00545 2.90951,2.01092 12.3272,0.34223 10.38399,-1.8399 12.83524,-1.53656 12.83524,1.58836 0,2.066 -2.55172,2.87621 -3.17448,1.00794 -0.20051,-0.60153 -1.67772,-0.75612 -3.58333,-0.375 -2.51071,0.50214 -3.24219,1.15928 -3.24219,2.91266 0,4.13021 3.13538,6.69629 8.85322,7.2457 3.22493,0.30987 5.08568,0.93063 4.85942,1.62112 -0.7344,2.24119 -8.38315,1.82662 -14.75453,-0.79972 -1.01555,-0.41862 -2.3129,0.40728 -3.80059,2.4195 l -2.25872,3.05507 2.0506,2.60691 c 1.53448,1.95078 2.0506,4.0732 2.0506,8.43263 0,5.74501 0.35322,6.49006 4.40278,9.28697 1.05349,0.72762 1.58507,1.82824 1.19098,2.4659 -1.33064,2.15302 -4.60048,1.18899 -6.48654,-1.91239 z m 67.02446,-0.43591 c -2.13074,-1.925 -4.38204,-3.5 -5.00288,-3.5 -1.67971,0 -1.36492,-1.69541 0.44364,-2.38943 1.86992,-0.71755 4.24716,0.42763 6.84374,3.29681 2.27166,2.51015 7.186,2.75999 10.37351,0.52737 2.36666,-1.65767 8.05819,-1.6191 7.21031,0.0489 -0.275,0.54099 -1.29909,0.84824 -2.27576,0.68278 -0.97666,-0.16546 -3.14869,0.85442 -4.82672,2.26639 -4.29564,3.61454 -8.03492,3.34132 -12.76584,-0.93278 z m -44.75592,-2.58861 c -1.71833,-0.49687 -3.7422,-1.64799 -4.49748,-2.55805 -1.26007,-1.5183 -0.96142,-1.58452 3.62424,-0.80363 2.74862,0.46806 6.90998,0.75661 9.24748,0.64122 2.41218,-0.11908 4.25,0.24027 4.25,0.83102 0,1.98165 -8.10842,3.19523 -12.62424,1.88944 z m 112.19509,-0.098 c -0.22826,-0.72236 -0.69198,-2.98227 -1.03049,-5.02203 -0.4227,-2.54704 -1.54336,-4.36936 -3.57792,-5.81809 -3.36647,-2.39715 -3.8174,-3.97327 -1.13675,-3.97327 3.49537,0 8.17431,6.79734 8.17431,11.87524 0,3.14146 -1.71096,5.21092 -2.42915,2.93814 z m -92.17085,-3.21339 c -3.50923,-3.50923 -4.4491,-6.6 -2.00699,-6.6 0.76616,0 1.64301,0.65147 1.94855,1.44771 1.11858,2.91496 6.71172,4.8266 12.40319,4.23919 4.6199,-0.47682 5.33203,-0.3241 5.06061,1.08525 -0.37239,1.93366 -3.63341,2.99018 -9.65536,3.12817 -3.68181,0.0844 -4.87226,-0.42258 -7.75,-3.30032 z m 41.6,-1.96514 c 0,-1.83318 3.84761,-6.63345 5.32258,-6.64044 0.64758,-0.003 2.87319,-0.4765 4.9458,-1.05208 4.98354,-1.38395 6.96762,-5.64019 5.0841,-10.90636 -0.69558,-1.94479 -1.28987,-4.43598 -1.32063,-5.53598 -0.0308,-1.1 -1.18605,-3.97697 -2.56729,-6.39327 -2.77708,-4.8581 -2.6725,-5.82357 0.44979,-4.15257 3.13027,1.67527 4.81435,4.89616 6.01265,11.49955 0.59423,3.27453 1.52874,6.40203 2.07671,6.95 1.4453,1.4453 1.222,2.59629 -0.50371,2.59629 -0.9198,0 -1.5,0.93536 -1.5,2.41821 0,1.33002 -0.27953,3.14666 -0.62118,4.03699 -0.85283,2.22244 -6.07563,4.77581 -8.31494,4.06508 -1.14914,-0.36473 -2.9617,0.36431 -4.84437,1.94847 -3.42422,2.88129 -4.21951,3.10107 -4.21951,1.16611 z m -54.40824,-6.48638 c -0.28945,-0.46834 1.20561,-1.37041 3.32236,-2.0046 6.31079,-1.89076 6.61802,-2.77351 6.32626,-18.17672 -0.20937,-11.05298 0.0241,-13.9418 1.20619,-14.92282 2.48757,-2.06449 3.55069,-0.33882 2.19811,3.56801 -1.03471,2.98867 -0.9531,4.65038 0.5023,10.22803 0.95575,3.66279 1.76367,7.88185 1.79537,9.37569 0.0838,3.9478 -2.74815,9.238 -5.96135,11.13608 -2.96124,1.74925 -8.50948,2.21981 -9.38924,0.79633 z m 24.40824,-4.08109 c 0,-0.51294 0.88826,-1.21454 1.97391,-1.55911 3.11442,-0.98848 6.02609,-5.438 6.02609,-9.20888 0,-1.88699 0.44431,-4.26108 0.98735,-5.27576 1.66627,-3.11346 7.43015,-6.02364 11.93034,-6.02364 6.30385,0 9.80235,-2.24659 11.12027,-7.14097 1.24649,-4.62912 0.90107,-6.62768 -2.70991,-15.67906 -1.38673,-3.47601 -2.30709,-6.53426 -2.04524,-6.79611 1.05792,-1.05792 7.17055,8.18398 8.26573,12.49727 0.64503,2.54038 1.42423,4.39387 1.73156,4.11887 0.30732,-0.275 1.69157,0.56421 3.0761,1.86491 2.38781,2.24322 2.78082,2.3017 7.63799,1.13648 5.7225,-1.3728 10.48593,-0.78185 13.15295,1.63177 0.9781,0.88517 2.47013,1.34395 3.31561,1.01951 0.96195,-0.36914 1.53725,-0.0285 1.53725,0.9101 0,2.39382 -2.97474,2.88337 -6.14417,1.01114 -2.4776,-1.46356 -3.68305,-1.56223 -7.93775,-0.64976 -7.43177,1.59383 -9.74641,1.33843 -12.45961,-1.37477 l -2.45063,-2.45063 -0.64084,4.00762 c -0.86691,5.42134 -5.8053,8.89363 -12.64879,8.89363 -2.64964,0 -6.11329,0.67006 -7.697,1.48903 -2.90078,1.50005 -3.31837,2.26634 -4.54232,8.33525 -0.89626,4.44405 -6.01214,10.17572 -9.08248,10.17572 -1.31803,0 -2.39641,-0.41968 -2.39641,-0.93261 z m 70.48733,-2.08789 c -0.38751,-0.62701 -3.01302,-0.78406 -6.80902,-0.4073 -6.83059,0.67794 -11.67831,-0.61504 -11.67831,-3.11484 0,-1.21295 0.53587,-1.40846 2.25,-0.82091 2.41176,0.82666 6.36432,0.7882 11.3446,-0.1104 2.236,-0.40345 3.83134,0.0211 5.75,1.53037 1.46047,1.14881 2.6554,2.50608 2.6554,3.01616 0,1.25407 -2.72471,1.18186 -3.51267,-0.0931 z m -1.84785,-6.67335 c -0.35171,-0.35172 -0.63948,-2.95347 -0.63948,-5.78169 0,-2.97326 -0.61927,-5.96095 -1.4682,-7.08333 -1.96704,-2.60067 -1.8919,-3.44113 0.30768,-3.44113 2.54104,0 4.16052,4.08248 4.16052,10.48804 0,5.06725 -0.89801,7.28062 -2.36052,5.81811 z m -104.46517,-5.6206 c -3.40435,-3.62377 -2.58875,-4.7464 1.72976,-2.38092 3.80942,2.08663 4.03298,2.09725 9.2212,0.43812 6.93734,-2.21847 8.98669,-0.60106 2.79665,2.20721 -6.06208,2.75022 -11.00482,2.65515 -13.74761,-0.26441 z m -9.42431,-10.71543 c -1.94646,-1.18957 -2.31019,-3.50587 -0.7062,-4.49719 0.5741,-0.35481 1.68655,-0.11168 2.47213,0.54029 1.12567,0.93422 2.88163,0.6152 8.28722,-1.50561 6.6596,-2.6128 11.69685,-3.04673 11.69685,-1.00761 0,0.55 -1.53721,1.14658 -3.41602,1.32574 -1.87882,0.17916 -4.87448,1.43816 -6.65704,2.79779 -3.70768,2.82798 -9.11213,3.91406 -11.67694,2.34659 z m -57.42655,-7.57589 c 1.21948,-7.51476 8.14199,-13.34819 16.83104,-14.1831 7.1351,-0.68559 6.08122,1.60939 -1.71963,3.74476 -7.89997,2.1625 -8.16158,2.36915 -10.9331,8.63605 -2.78976,6.30813 -5.06905,7.29129 -4.17831,1.80229 z m 31.79843,-2.23495 c -2.89638,-1.96651 0.11237,-3.15928 7.96926,-3.15928 4.87439,0 9.38807,-0.59121 11.61388,-1.52121 5.52589,-2.30887 11.87953,-7.97676 16.39395,-14.62454 2.23409,-3.28984 5.48827,-6.85139 7.23151,-7.91455 3.54714,-2.16332 16.19739,-6.49649 21.88389,-7.49603 4.21397,-0.7407 5.44537,-1.86924 5.93981,-5.44367 0.1902,-1.375 0.79582,-2.275 1.34582,-2 1.44496,0.72248 0.83698,8.09159 -0.80288,9.73145 -0.7647,0.7647 -4.6969,2.07472 -8.73823,2.91117 -9.64706,1.99667 -16.02434,5.33716 -21.22104,11.11581 -14.54893,16.17817 -18.29405,18.45299 -31.23785,18.97416 -4.95,0.1993 -9.62015,-0.0587 -10.37812,-0.57331 z m 57.87812,-1.52442 c 0,-3.82348 3.53108,-7.26314 13.66338,-13.30962 5.23932,-3.12658 10.20005,-6.71337 11.02385,-7.97065 1.36445,-2.08241 1.3115,-2.54764 -0.5947,-5.22465 -2.23068,-3.1327 -2.68255,-5.12994 -1.16062,-5.12994 1.90847,0 5.06809,5.89396 5.06809,9.45403 0,3.81885 -1.88179,8.37305 -4.28325,10.36609 -0.77832,0.64595 -3.76622,1.62032 -6.63977,2.16528 -8.6259,1.63587 -11.90703,3.66972 -13.10651,8.12426 -1.16451,4.32465 -3.97047,5.40252 -3.97047,1.5252 z m 74,-3.09199 c 0,-2.11465 -1.20239,-4.0378 -4.5,-7.19746 -6.2655,-6.00341 -6.13227,-8.2477 0.25831,-4.35132 1.83769,1.12046 4.21571,3.95724 5.45418,6.50637 2.06881,4.25823 2.09726,4.61837 0.49169,6.22393 -1.60557,1.60557 -1.70418,1.53721 -1.70418,-1.18152 z M 404.5145,215.81436 c -1.15273,-1.38896 -2.39563,-1.57718 -6.78961,-1.02819 -7.20907,0.90072 -14.27258,-0.88606 -17.71753,-4.48181 -4.09154,-4.27066 -2.65949,-5.42277 2.49127,-2.00427 4.06445,2.69752 5.28352,2.987 12.59501,2.99087 6.74122,0.004 8.38895,0.32908 9.85262,1.94642 0.96669,1.06817 1.58249,2.46751 1.36844,3.10965 -0.25677,0.77032 -0.86921,0.5891 -1.8002,-0.53267 z M 388.18393,199.6472 c -0.35642,-0.35642 -4.94334,-0.57288 -10.19316,-0.48103 -8.93227,0.15628 -9.70392,0.008 -12.01863,-2.30651 -2.30309,-2.30309 -3.35102,-5.56442 -1.78796,-5.56442 0.37705,0 1.73911,0.98977 3.02681,2.1995 2.0261,1.90342 3.30429,2.16641 9.49546,1.95366 7.54352,-0.25922 12.79218,1.16378 12.79218,3.46816 0,1.52109 -0.33698,1.70837 -1.3147,0.73064 z m -20.30237,196.39804 c -0.66708,-5.10557 -5.23624,-18.66831 -5.33405,-15.83318 -0.0611,1.77252 5.09368,21.08318 5.62799,21.08318 0.21561,0 0.0833,-2.3625 -0.29394,-5.25 z m -39.05617,-31.04828 2.82676,-1.20808 -23.23559,-19.49682 c -12.77957,-10.72325 -23.83911,-19.85668 -24.57676,-20.29651 -1.02967,-0.61396 -1.34117,0.11274 -1.34117,3.12884 0,3.71362 0.40247,4.23145 7.35739,9.46615 5.28583,3.97843 8.23339,7.08979 10.46858,11.05033 3.55466,6.29851 13.39577,14.84637 19.64942,17.06722 4.9801,1.76858 5.36001,1.78097 8.85137,0.28887 z m 17.31941,-6.70172 9.14618,-0.5 -35.40191,-29.5 c -32.47672,-27.06247 -39.90843,-32.98002 -41.43733,-32.99474 -0.30079,-0.003 -1.03929,2.80724 -1.64112,6.24474 -0.60184,3.4375 -1.25574,6.77759 -1.45312,7.42243 -0.4676,1.52764 59.32967,51.28252 60.64113,50.45702 0.55,-0.3462 5.11578,-0.85445 10.14617,-1.12945 z m 4.36838,-15.97105 c -5.36844,-10.67731 -12.77635,-18.0551 -26.01455,-25.9088 -5.775,-3.42608 -13.425,-8.07343 -17,-10.32745 -5.40274,-3.4064 -13,-6.48135 -13,-5.26168 0,0.47525 58.96105,49.46898 59.53299,49.46898 0.26913,0 -1.31416,-3.58697 -3.51844,-7.97105 z m -75.08192,-25.61013 c -1.74568,-2.10342 -2.25488,-1.83415 -5.65588,2.99089 l -3.10825,4.40972 4.66575,1.92023 4.66575,1.92023 0.30507,-4.91112 c 0.17111,-2.7544 -0.21203,-5.5342 -0.87244,-6.32995 z m -56.63877,-68.10329 c 0.18852,-9.0812 0.49356,-10.49593 3.56831,-16.54905 3.82229,-7.52475 11.45729,-16.56473 16.75621,-19.83964 l 3.5859,-2.21621 -3.10273,-2.42826 c -1.70651,-1.33554 -4.30417,-4.47834 -5.77258,-6.984 l -2.66985,-4.55575 -6.07956,0.57572 c -6.7145,0.63585 -19.64288,3.61598 -26.51089,6.11105 -12.77971,4.64271 -17.08936,15.24661 -11.27931,27.75278 1.10021,2.36823 6.83452,8.18749 16.06962,16.3077 7.89743,6.94403 14.55467,12.42981 14.79386,12.19063 0.23918,-0.23919 0.52764,-4.90343 0.64102,-10.36497 z m 207.75876,-53.06553 c 0.89536,-7.82807 1.52027,-10.25 2.64473,-10.25 1.20347,0 1.41896,1.54478 1.17998,8.45915 -0.1608,4.65253 -0.0865,8.65738 0.16515,8.89967 0.25164,0.24229 4.61407,-7.95183 9.6943,-18.20915 13.14097,-26.53251 13.96829,-32.83686 8.28709,-63.14967 -2.77222,-14.79157 -3.51552,-22.000004 -2.26854,-22.000004 0.56688,0 1.3522,0.787504 1.74515,1.750004 0.56421,1.38198 1.00781,0.92814 2.10937,-2.158084 1.31817,-3.69308 1.2504,-4.15468 -1.232,-8.39057 -2.48629,-4.24252 -2.57067,-4.82197 -1.57614,-10.82371 1.99664,-12.04939 0.12486,-23.08672 -7.14446,-42.12858 -8.1875,-21.44701 -9.20869,-24.66078 -11.67722,-36.7490601 -2.73421,-13.3892799 -2.62307,-13.1330199 -4.82962,-11.1361199 -1.69825,1.5368899 -5.15041,2.2761099 -5.15041,1.1028699 0,-0.29328 1.125,-2.7533199 2.5,-5.4667499 2.9265,-5.77517 3.12525,-10.14043 0.83354,-18.308 l -1.66645,-5.9392 -1.58355,3.3736 c -1.14915,2.44816 -3.03158,4.04677 -6.86226,5.82757 -3.93636,1.82995 -5.11107,2.84713 -4.61945,4 1.27508,2.9902 1.56163,11.57719 0.47977,14.37731 -1.76312,4.5633799 -3.62921,2.7249499 -3.25758,-3.2093 0.29641,-4.73318 0.0394,-5.45859 -3.01722,-8.51518 -3.89665,-3.89666 -10.7201,-5.74721 -18.0568,-4.89709 -3.80959,0.44143 -4.75,0.25192 -4.75,-0.95722 0,-2.07456 1.86714,-3.39251 6,-4.23518 5.78325,-1.17918 8,-3.11625 8,-6.99068 0,-4.64535 -2.34886,-5.89485 -6.41746,-3.41384 -1.6954,1.03385 -4.05824,1.88141 -5.25075,1.88347 -4.82818,0.008 -5.04511,0.49709 -3.67794,8.28646 0.69672,3.9695 1.28463,11.51468 1.30646,16.76705 l 0.0397,9.5497799 8.18293,3.95023 c 9.84373,4.75195 13.27211,7.46168 15.86092,12.53617 1.86553,3.6567401 2.5449,6.9140501 1.44205,6.9140501 -0.28275,0 -1.89304,-1.4625 -3.57842,-3.25 l -3.06433,-3.2500001 0.60421,5.5000001 c 1.5432,14.0475 1.80718,37.69566 0.5576,49.95133 -1.50975,14.80737 -0.78482,20.53817 4.09057,32.33747 1.63879,3.966164 3.25072,9.351504 3.58207,11.967434 0.49445,3.90356 0.8506,4.55029 1.98659,3.6075 0.76128,-0.6318 1.63936,-0.89352 1.95128,-0.58159 0.97729,0.97729 -0.53831,4.30384 -5.18217,11.37426 -2.46842,3.75823 -4.94929,8.54613 -5.51305,10.63977 -1.75833,6.52993 -1.47316,23.38892 0.54985,32.50706 1.72855,7.79093 2.19337,8.6621 7.53391,14.11999 6.87467,7.02573 10.45852,13.83914 9.70895,18.45815 -0.48104,2.96436 -0.15944,3.47556 3.62961,5.76952 2.32922,1.41015 4.24104,2.04032 4.34755,1.43304 0.10457,-0.59616 0.71769,-5.69643 1.3625,-11.33393 z m 5.73288,-34.5 c 0.60681,-16.48126 -1.03597,-28.90302 -4.76265,-36.01248 -4.54192,-8.66472 -3.75357,-11.7715 1.42528,-5.6168 3.88187,4.61334 5.10296,8.28918 6.4377,19.37928 0.66194,5.5 1.3973,11.23812 1.63413,12.75139 1.045,6.67724 -1.9775,20.74861 -4.45676,20.74861 -0.38055,0 -0.50551,-5.0625 -0.2777,-11.25 z m -0.008,-51 c -0.88267,-0.6875 -2.76868,-3.0003 -4.19113,-5.13955 -2.19525,-3.30134 -2.58637,-5.002644 -2.58637,-11.250004 0,-4.04825 0.40186,-7.36045 0.89301,-7.36045 1.36405,0 2.10699,2.69658 2.10699,7.64753 0,5.32217 1.22366,7.953824 5.31426,11.429034 2.04866,1.74046 2.82444,3.11961 2.39067,4.25 -0.7664,1.99721 -1.7683,2.10523 -3.92752,0.42344 z m -15.7775,-18.573194 c 0,-2.60181 1.71746,-7.31393 5.37603,-14.75 7.28566,-14.80814 8.97055,-20.27145 8.13202,-26.3683 -0.68693,-4.99453 0.7048,-9.66303 2.54212,-8.5275 1.28093,0.79166 1.20321,12.35013 -0.1347,20.033 -0.75583,4.34028 -2.57478,8.75983 -6.00149,14.58191 -2.70432,4.59475 -5.20051,9.92908 -5.54709,11.85408 -1.33184,7.39745 -4.36689,9.60538 -4.36689,3.17681 z m 21.38959,-0.60394 c -0.79098,-2.06125 3.22507,-10.57287 4.98861,-10.57287 1.26137,0 1.17898,0.9229 -0.53558,6 -2.00198,5.92819 -3.38712,7.3506 -4.45303,4.57287 z M 258.99863,202.89761 c 6.10566,-1.79786 10.61357,-4.12419 19.03743,-9.82436 11.1091,-7.51718 23.0539,-12.95888 33.04592,-15.05473 l 5.12445,-1.07486 -0.43374,-7.07421 c -0.68174,-11.11877 -2.63416,-16.76337 -7.23649,-20.9213 -8.10885,-7.32586 -22.02295,-12.66082 -32.96907,-12.64104 -15.81,0.0286 -30.2472,7.93057 -37.70518,20.63742 -2.99826,5.10841 -5.78946,19.22503 -4.97548,25.16369 1.17977,8.60731 7.92076,19.00608 14.11216,21.76966 3.76819,1.68196 2.64815,1.77346 12,-0.98027 z m 8.5,-19.87823 c 0,-0.70173 1.94817,-4.41423 4.32926,-8.25 2.3811,-3.83578 6.26222,-10.69812 8.62471,-15.24966 4.35365,-8.38765 7.84441,-12.22448 11.12187,-12.22448 3.02957,0 2.94741,1.50149 -0.15737,2.87579 -3.28216,1.45283 -7.42894,7.84724 -9.45526,14.5802 -1.73773,5.77404 -2.90102,7.95637 -7.61938,14.29401 -3.69521,4.96335 -6.84383,6.79172 -6.84383,3.97414 z m 128.37838,-13.47414 c -0.36286,-1.5125 -0.74159,-2.85766 -0.84164,-2.98925 -0.10004,-0.13158 -2.11391,0.51967 -4.47525,1.44723 l -4.29335,1.68648 4.36593,1.17216 c 2.40126,0.64469 4.712,1.23094 5.13498,1.30277 0.42298,0.0718 0.47218,-1.10689 0.10933,-2.61939 z M 355.49863,21.986276 c 5.27976,-2.64868 11.48071,-11.11054 14.42982,-19.6910401 3.0143,-8.77016 3.31811,-27.1665999 0.6352,-38.4630599 -7.17453,-30.208634 -28.53827,-48.865235 -46.5736,-40.67196 -7.57411,3.440844 -14.16917,13.413534 -17.11216,25.87609 -2.09425,8.86839 -1.33828,26.8423 1.54604,36.75893 2.87281,9.8770299 8.40956,20.3544899 14.17385,26.82188 10.69965,12.00474 21.5105,15.08334 32.90085,9.36916 z m -4,-3.21515 c 0,-0.28826 1.54624,-2.77194 3.43608,-5.51929 5.06772,-7.3671601 6.99825,-17.1981401 6.26051,-31.88072 -1.25512,-24.97946 -11.33695,-45.975897 -25.23268,-52.549631 -5.40099,-2.555077 -7.04701,-4.526251 -3.77963,-4.526251 3.53403,0 10.44287,4.358706 15.25556,9.624558 11.41667,12.491644 18.04021,35.137894 16.78109,57.3754439 -0.29584,5.225 -1.31001,11.75 -2.2537,14.5 -2.09193,6.0960501 -7.03627,13.5000001 -9.01527,13.5000001 -0.79858,0 -1.45196,-0.23585 -1.45196,-0.52411 z m 98.5,-14.3468201 c 8.28989,-3.78643 14.10541,-12.35634 17.56544,-25.8849199 5.55734,-21.72899 -1.9312,-50.72729 -17.03734,-65.974663 -10.99073,-11.093499 -22.95485,-13.201303 -32.97416,-5.809286 -4.70831,3.473679 -9.57632,10.669184 -11.92673,17.629124 l -1.99606,5.910673 2.48408,0 c 7.47247,0 14.26569,7.977507 16.29879,19.140222 0.53691,2.94788 2.15019,8.66249 3.58507,12.69913 1.43488,4.03664 3.02747,11.00953 3.53908,15.49531 1.10295,9.67059 3.6647,23.2546599 4.98154,26.4153399 0.80611,1.93485 1.67575,2.24692 6.20885,2.22804 2.93345,-0.0122 7.04552,-0.83228 9.27144,-1.84897 z m -3.05022,-3.21033 c -0.36754,-0.59469 0.52221,-2.32384 1.97723,-3.84256 6.2343,-6.5072 9.33138,-22.0962799 7.57,-38.1033899 -2.59455,-23.578744 -14.13998,-44.894605 -26.53161,-48.98421 -3.88373,-1.281747 -5.06691,-4.618544 -1.2154,-3.427659 12.24668,3.786665 20.99283,14.833042 27.26769,34.439077 2.30434,7.199982 2.79864,10.815692 3.23191,23.640872 0.45299,13.40896 0.27279,15.92547 -1.57529,22 -1.95957,6.4409599 -7.30253,15.3591299 -9.2018,15.3591299 -0.46996,0 -1.15519,-0.48657 -1.52273,-1.08126 z M 408.4782,-32.954764 c 8.85928,-4.52687 11.04948,-11.73205 6.43248,-21.16118 -3.23737,-6.611571 -6.81349,-9.58158 -11.56642,-9.60604 -3.53589,-0.0182 -17.84563,4.963878 -17.84563,6.213129 0,0.403547 0.9,1.215387 2,1.804089 1.16955,0.625923 2,2.093822 2,3.535182 0,1.78857 0.5424,2.46482 1.97695,2.46482 4.50465,0 7.16766,9.60637 4.07141,14.68689 -1.78932,2.93602 -1.80863,3.2221 -0.24529,3.634 4.16225,1.09666 9.11049,0.50673 13.1765,-1.57089 z m -1.57843,-6.14704 c -0.29486,-0.76838 -0.45242,-2.00588 -0.35014,-2.75 0.50306,-3.65994 -0.20492,-7.86403 -1.551,-9.2101 -1.85573,-1.85574 -1.96037,-4.642862 -0.17431,-4.642862 2.67095,0 5.40818,4.462342 5.99994,9.781322 0.32316,2.90473 0.33395,5.94223 0.024,6.75 -0.71516,1.86367 -3.24321,1.90953 -3.94847,0.0716 z m -24.15114,-7.779 c 1.81911,-0.92965 2.47863,-5.82396 0.7848,-5.82396 -0.53087,0 -2.50277,-1.35 -4.38202,-3.000002 -3.41344,-2.997041 -6.04042,-3.675593 -8.40874,-2.171987 -0.96462,0.612424 -0.64201,2.220274 1.39079,6.931529 2.56219,5.93818 2.74607,6.11537 5.75596,5.54645 1.71006,-0.32323 3.89671,-0.99015 4.85921,-1.48203 z"
       id="path3095"
       inkscape:connector-curvature="0" />
  </g>
</svg>
