<?xml version="1.0" encoding="UTF-8" standalone="no"?>
<!-- Created with Inkscape (http://www.inkscape.org/) -->

<svg
   xmlns:dc="http://purl.org/dc/elements/1.1/"
   xmlns:cc="http://creativecommons.org/ns#"
   xmlns:rdf="http://www.w3.org/1999/02/22-rdf-syntax-ns#"
   xmlns:svg="http://www.w3.org/2000/svg"
   xmlns="http://www.w3.org/2000/svg"
   xmlns:sodipodi="http://sodipodi.sourceforge.net/DTD/sodipodi-0.dtd"
   xmlns:inkscape="http://www.inkscape.org/namespaces/inkscape"
   width="152.03343"
   height="260.53766"
   id="svg2"
   version="1.1"
   inkscape:version="0.48.3.1 r9886"
   sodipodi:docname="One-arm-floor-press-2.svg">
  <defs
     id="defs4" />
  <sodipodi:namedview
     id="base"
     pagecolor="#ffffff"
     bordercolor="#666666"
     borderopacity="1.0"
     inkscape:pageopacity="0.0"
     inkscape:pageshadow="2"
     inkscape:zoom="1.4"
     inkscape:cx="-40.967179"
     inkscape:cy="89.974634"
     inkscape:document-units="px"
     inkscape:current-layer="layer1"
     showgrid="false"
     fit-margin-top="0"
     fit-margin-left="0"
     fit-margin-right="0"
     fit-margin-bottom="0"
     inkscape:window-width="1855"
     inkscape:window-height="1056"
     inkscape:window-x="65"
     inkscape:window-y="24"
     inkscape:window-maximized="1" />
  <metadata
     id="metadata7">
    <rdf:RDF>
      <cc:Work
         rdf:about="">
        <dc:format>image/svg+xml</dc:format>
        <dc:type
           rdf:resource="http://purl.org/dc/dcmitype/StillImage" />
        <dc:title></dc:title>
      </cc:Work>
    </rdf:RDF>
  </metadata>
  <g
     inkscape:label="Ebene 1"
     inkscape:groupmode="layer"
     id="layer1"
     transform="translate(-953.54315,-1024.5002)">
    <path
       style="fill:#000000"
       d=""
       id="path3414"
       inkscape:connector-curvature="0" />
    <path
       style="fill:#000000"
       d=""
       id="path3412"
       inkscape:connector-curvature="0" />
    <path
       style="fill:#000000"
       d="m 1029.0304,1274.4008 c -2.4208,-0.5496 -2.1881,-3.5555 0.5359,-6.9239 1.2573,-1.5547 4.0233,-5.4015 6.1467,-8.5484 l 3.8607,-5.7216 -1.7022,-4.4574 c -0.9363,-2.4516 -3.1846,-6.4018 -4.9962,-8.7784 -3.7514,-4.9212 -6.9643,-10.785 -6.2827,-11.4665 0.2528,-0.2528 1.4863,1.2515 2.7411,3.343 1.2548,2.0914 3.7934,5.6933 5.6414,8.0041 3.8692,4.8386 6.527,11.5468 5.5729,14.0661 -1.2551,3.3143 -8.1055,13.2805 -10.429,15.1726 l -2.3386,1.9044 2.9373,1.1241 c 1.8918,0.7241 4.7334,0.8383 7.9838,0.3209 4.0914,-0.6513 5.4281,-1.3882 7.0627,-3.8939 1.1089,-1.6998 3.9585,-4.5847 6.3325,-6.4109 5.1954,-3.9965 5.0795,-5.7658 -0.8976,-13.6982 -2.1605,-2.8674 -4.4484,-6.3549 -5.084,-7.75 -0.6357,-1.3952 -1.5119,-2.5366 -1.9471,-2.5366 -0.4353,0 -2.2755,-1.4799 -4.0895,-3.2886 -3.2395,-3.2302 -19.3816,-11.4613 -20.4269,-10.416 -0.7445,0.7445 1.4428,4.6033 4.335,7.6475 3.0354,3.195 6.2938,9.3576 6.2938,11.9033 0,2.0475 -4.1126,4.4405 -9.6245,5.6001 -1.7184,0.3616 -4.1128,1.7095 -5.3208,2.9954 -2.5976,2.765 -9.2929,4.845 -14.1169,4.3856 -2.85541,-0.2719 -3.48901,-0.7679 -3.73991,-2.9281 -0.2213,-1.9061 0.5799,-3.3833 3.00001,-5.5311 4.7044,-4.175 8.8021,-10.5272 8.8021,-13.645 0,-1.4681 -2.0903,-6.0564 -4.6451,-10.1962 -3.9282,-6.3652 -5.06201,-7.5269 -7.34641,-7.5269 -4.9002,0 -9.9127,-3.2995 -12.4695,-8.2081 -0.5798,-1.1131 -4.71527,-3.5849 -9.35589,-5.5922 -6.93784,-3.0008 -8.63515,-3.3986 -10.23643,-2.3985 -2.91024,1.8174 -4.73288,1.4547 -6.53867,-1.3012 -0.90093,-1.375 -2.23475,-2.5 -2.96403,-2.5 -0.72929,0 -1.63389,-0.4983 -2.01022,-1.1072 -0.45866,-0.7421 0.004,-0.8886 1.40427,-0.4442 1.71415,0.544 2.35484,0.025 3.57421,-2.8929 1.20588,-2.8861 2.01838,-3.5557 4.3142,-3.5557 3.1744,0 7.60563,2.6536 6.74813,4.0411 -0.30737,0.4973 3.80715,2.9445 9.14338,5.4381 5.33625,2.4936 9.75755,4.4184 9.82505,4.2773 0.068,-0.1411 0.688,-0.9986 1.3786,-1.9056 1.0138,-1.3314 0.9489,-3.4507 -0.3371,-11 -1.1429,-6.7094 -1.3482,-10.9087 -0.727,-14.8654 0.6074,-3.8686 0.4743,-7.0023 -0.446,-10.5 -1.0049,-3.8192 -1.0553,-6.0933 -0.2154,-9.7208 0.8299,-3.5846 0.7903,-5.9292 -0.1631,-9.649 -1.6725,-6.5259 -0.2512,-9.8993 6.2541,-14.8437 l 4.9628,-3.772 -4.325,-1 c -6.194,-1.4322 -6.842,-2.0919 -6.6888,-6.8091 0.08,-2.4709 0.2978,-3.1649 0.53,-1.6909 1.0586,6.7207 1.057,6.7189 6.283,7.2211 3.9477,0.3793 5.81011,1.2321 9.01611,4.1285 4.3865,3.963 3.6655,4.9477 -1.1252,1.5365 -2.9655,-2.1117 -2.971,-2.1118 -5.15441,-0.125 -1.2021,1.0939 -3.2348,2.5306 -4.517,3.1926 -3.9814,2.0556 -5.1417,6.4014 -3.5411,13.2626 0.956,4.098 1.0708,6.4788 0.3751,7.7788 -1.0947,2.0453 -1.3494,8.9376 -0.4199,11.3599 0.3205,0.8353 1.2205,1.2739 2,0.9748 1.7833,-0.6843 1.7718,-0.4226 -0.1872,4.2658 -1.8285,4.3763 -1.9608,12.7726 -0.3419,21.7004 0.9371,5.1677 0.8456,6.601 -0.6306,9.8746 -0.9497,2.1061 -2.1084,3.8294 -2.5749,3.8294 -1.5568,0 -0.8722,4.6699 0.9019,6.1516 2.1526,1.7979 6.8398,3.8484 8.797,3.8484 0.9477,0 1.453,-1.0432 1.453,-3 0,-2.8308 0.76941,-3.4617 3.75001,-3.0747 2.0068,0.2606 1.4479,-2.7402 -1.25,-6.7105 -1.81881,-2.6766 -2.47291,-4.9102 -2.40041,-8.197 0.075,-3.394 0.2678,-3.9166 0.77561,-2.1008 l 0.6758,2.4171 1.7245,-2.6319 c 0.9484,-1.4475 1.7245,-3.028 1.7245,-3.5121 0,-0.4841 0.9583,-1.7374 2.1297,-2.7852 1.1713,-1.0477 3.223,-3.6257 4.5592,-5.7289 l 2.4295,-3.8239 -4.0592,-4.4037 c -2.8001,-3.0377 -4.0592,-5.3033 -4.0592,-7.3037 0,-3.1939 -2.4276,-6.1499 -3.2195,-3.9203 -0.2492,0.7016 -0.088,5.6283 0.3576,10.9484 0.644,7.6845 0.5037,10.4594 -0.6826,13.5 l -1.4932,3.8272 0.6073,-3.5 c 0.334,-1.925 0.4902,-6.425 0.3471,-10 -0.1431,-3.575 -0.2492,-7.7034 -0.2358,-9.1741 0.021,-2.3136 -0.1676,-2.4821 -1.39971,-1.25 -2.1199,2.1199 -2.3279,1.741 -0.7281,-1.3259 1.78101,-3.4143 1.81821,-4.9223 0.1467,-5.9504 -2.964,-1.823 -5.6976,-7.1846 -5.5848,-10.954 l 0.115,-3.8456 0.7077,3.6277 c 1.3029,6.6786 9.35601,13.5224 13.29271,11.2967 1.0172,-0.5752 1.0211,-0.4502 0.02,0.6288 -0.6875,0.7407 -1.25,1.995 -1.25,2.7872 0,1.9023 4.1453,10.1596 5.1003,10.1596 0.4102,0 2.4679,1.7419 4.5727,3.871 5.7572,5.8236 9.772,6.5591 19.7031,3.6099 8.0068,-2.3778 7.8603,-1.9368 5.0598,-15.2309 -0.2607,-1.2376 -1.0938,-2.25 -1.8513,-2.25 -1.3827,0 -6.5332,-5.3059 -8.4354,-8.6899 -0.9165,-1.6304 -1.3728,-1.3957 -4.5955,2.3631 -1.9722,2.3002 -4.8411,4.4506 -6.3922,4.7913 -3.2953,0.7238 -7.9508,-0.8223 -9.7982,-3.2539 -2.2656,-2.982 -1.4646,-3.6121 1.089,-0.8567 1.8386,1.984 3.4024,2.6381 6.25,2.6143 4.2486,-0.036 5.8672,-1.0374 9.0844,-5.6226 2.9639,-4.2241 2.8001,-7.2869 -0.5367,-10.0372 l -2.75,-2.2666 4.2018,1.7291 c 3.5899,1.4773 4.1182,2.0642 3.6286,4.0306 -0.4012,1.6112 0.4267,3.7666 2.7601,7.186 3.3665,4.9333 7.8792,8.1963 7.9399,5.741 0.077,-3.1218 1.7649,2.3302 2.3549,7.6076 0.3588,3.2099 1.2673,7.0349 2.0187,8.5 0.7515,1.4651 1.6665,4.6889 2.0333,7.1639 1.7565,11.8512 1.7316,13.1093 -0.347,17.5313 -2.051,4.3633 -2.0514,4.3936 -0.1097,8.9234 1.6753,3.9082 2.3568,4.5453 4.8626,4.5453 2.3368,0 3.1773,-0.6353 4.2421,-3.2059 1.2339,-2.979 1.3455,-5.7955 1.1033,-27.8402 -0.097,-8.8575 -2.8392,-20.3831 -5.6451,-23.7293 -1.2565,-1.4986 -2.6148,-4.2996 -3.0185,-6.2246 -0.4036,-1.925 -3.6668,-7.9335 -7.2515,-13.3521 -6.5039,-9.8313 -9.8708,-12.6479 -15.1189,-12.6479 -1.0503,0 -2.4742,-0.6803 -3.1642,-1.5117 -0.6901,-0.8314 -3.1755,-2.3613 -5.5233,-3.3999 -4.6093,-2.0389 -6.2008,-4.8489 -4.5225,-7.9849 2.1409,-4.0002 0.8007,-10.0127 -2.8579,-12.8217 -0.8727,-0.67 -4.3741,-1.2325 -7.7809,-1.25 -7.58351,-0.039 -11.14261,2.4244 -12.31681,8.5249 -0.7288,3.7865 -0.7636,3.8159 -0.874,0.7403 -0.2719,-7.5729 4.1754,-11.297 13.49101,-11.297 4.5752,0 6.3676,0.5052 9.0496,2.5509 3.1075,2.3701 3.3433,2.9546 3.3291,8.25 -0.01,3.1345 -0.4357,6.3638 -0.9494,7.1762 -1.123,1.776 1.4145,5.0229 3.9254,5.0229 0.9079,0 3.1756,1.125 5.0393,2.5 1.8637,1.375 4.5108,2.5 5.8824,2.5 3.7819,0 8.7947,3.976 11.3388,8.9937 1.2533,2.472 3.6879,6.0722 5.41,8.0004 1.7222,1.9282 3.8925,5.7559 4.823,8.5059 0.9305,2.75 2.5011,6.35 3.4903,8 2.2994,3.8352 2.9093,6.5143 4.3005,18.8902 1.5121,13.4508 1.4895,27.2746 -0.052,31.7124 -2.1868,6.2966 -9.7402,7.5098 -12.6498,2.0318 l -1.3993,-2.6344 -1.9489,4.5 c -2.7915,6.4458 -3.5075,11 -1.7294,11 0.7788,0 1.6624,-0.3988 1.9636,-0.8861 0.6998,-1.1324 7.5776,1.1977 8.9975,3.0482 1.0747,1.4004 12.4535,6.8379 14.3096,6.8379 1.5673,0 14.486,6.038 17.5133,8.1854 3.0845,2.188 3.5252,4.8965 1.1786,7.2431 -2.5624,2.5624 -3.4631,1.7937 -1.6335,-1.3942 1.6044,-2.7955 1.6035,-3.0643 -0.015,-4.6832 -1.6233,-1.6233 -1.8288,-1.6167 -3.7486,0.1207 -1.1348,1.027 -2.0311,3.0936 -2.0311,4.6831 0,3.1763 -0.6475,3.4551 -3.5275,1.5191 -1.0849,-0.7292 -4.6725,-2.381 -7.9725,-3.6706 -3.3,-1.2896 -7.125,-3.0894 -8.5,-3.9995 -1.375,-0.9101 -3.9732,-2.2423 -5.7737,-2.9605 -4.7251,-1.8846 -5.4923,-3.8771 -3.0279,-7.8644 2.3149,-3.7456 1.7693,-4.8355 -2.8869,-5.7667 -2.5959,-0.5192 -3.4005,-0.2061 -4.7453,1.8462 -2.1361,3.2601 -0.7276,7.0895 3.3908,9.2192 1.6737,0.8655 3.043,2.0274 3.043,2.582 0,0.5546 2.1825,4.2555 4.85,8.2243 2.6675,3.9688 5.1098,7.9551 5.4273,8.8585 0.3959,1.1261 -1.8361,4.1551 -7.0999,9.6351 l -7.6774,7.9926 -6,0.4388 c -3.3,0.2414 -6.7875,0.2601 -7.75,0.042 z m -14.9463,-23.0952 c 2.5356,-2.0082 5.1133,-3.1554 7.0902,-3.1554 3.1701,0 7.1061,-2.9232 7.1061,-5.2775 0,-1.2917 -2.4191,-5.1979 -4.6112,-7.446 -2.0605,-2.1132 -5.2058,-7.668 -5.8864,-10.3956 -0.5126,-2.0544 -2.2964,-3.3956 -8.2736,-6.221 -4.1911,-1.9811 -7.8395,-3.3826 -8.1075,-3.1146 -0.2681,0.2681 0.4938,1.7175 1.693,3.221 3.1297,3.924 6.8212,11.1881 7.6629,15.0792 0.6157,2.8466 0.1877,4.1237 -2.8708,8.5644 -1.9769,2.8704 -4.7123,6.191 -6.0788,7.379 -6.85451,5.96 4.8336,7.261 12.2761,1.3665 z m 62.2537,-5.9054 c 0.7581,-1.5125 1.5428,-3.0875 1.7438,-3.5 0.201,-0.4125 -0.1666,-0.75 -0.8168,-0.75 -0.6502,0 -2.6002,-0.6181 -4.3333,-1.3736 -21.4353,-9.3436 -22.538,-9.6493 -24.3447,-6.7498 -1.5107,2.4244 0.3567,4.1897 6.4675,6.1136 2.3507,0.7401 7.5257,2.9979 11.5,5.0172 3.9744,2.0193 7.4913,3.7437 7.8155,3.832 0.3243,0.088 1.2098,-1.0769 1.968,-2.5894 z m -37.6409,-16.8932 c 0.3468,-0.9037 0.485,-1.7886 0.3072,-1.9665 -0.6635,-0.6634 -11.817,-5.3903 -12.719,-5.3903 -0.516,0 -5.7071,-2.2775 -11.5357,-5.061 -5.8286,-2.7835 -11.3188,-4.921 -12.2004,-4.75 -1.8898,0.3666 -2.97681,2.811 -1.25,2.811 1.347,0 23.758,9.8015 30.8197,13.4791 5.6254,2.9296 5.7828,2.9506 6.5782,0.8777 z m 3.5224,-17.5739 c 1.2209,-2.0444 1.9576,-4.1413 1.6372,-4.6597 -0.3204,-0.5184 0.362,-3.1207 1.5164,-5.7829 2.2427,-5.172 2.2059,-11.7911 -0.1093,-19.6803 -1.0906,-3.7163 -1.1892,-3.7836 -3.0598,-2.0908 -3.9849,3.6063 -19.241,5.0148 -24.6134,2.2724 -3.4332,-1.7526 -4.31,-1.4997 -4.31,1.2435 0,0.9634 -1.5807,2.7287 -3.5127,3.9227 -3.0899,1.9097 -5.4873,4.7174 -5.4873,6.4264 0,0.3112 1.7028,0.5658 3.7841,0.5658 3.2535,0 4.5323,0.7575 9.1194,5.4023 3.5207,3.5649 5.0659,5.8381 4.5433,6.6836 -0.6103,0.9875 -0.9243,0.9105 -1.3693,-0.3359 -0.4901,-1.3724 -1.1047,-1.1862 -4.0602,1.2305 -3.3404,2.7314 -3.4119,2.926 -1.75,4.7623 0.953,1.0531 1.7327,2.3695 1.7327,2.9254 0,0.5559 1.1164,1.5194 2.4809,2.1411 3.4408,1.5678 4.4808,-0.7048 4.622,-10.1001 0.061,-4.0913 0.4692,-8.017 0.906,-8.7238 0.4946,-0.8001 -0.1119,-2.2623 -1.6073,-3.875 -4.2514,-4.5849 -2.9241,-5.5091 2.2471,-1.5648 3.1536,2.4054 3.2549,2.6717 1.8386,4.8333 -1.1302,1.7249 -1.19,2.3156 -0.2431,2.4008 9.1909,0.828 13.4832,2.9026 15.973,7.7203 0.6482,1.2543 -0.2648,0.7668 -2.4487,-1.3075 -2.8131,-2.6718 -4.5514,-3.4178 -9.0445,-3.8816 l -5.562,-0.574 -0.5732,4.3815 c -0.3152,2.4099 -0.5041,5.5066 -0.4197,6.8816 0.084,1.375 -0.1471,3.175 -0.5144,4 -0.5013,1.1261 1.0136,2.2564 6.079,4.5354 l 6.7467,3.0355 1.6194,-4.5355 c 0.8907,-2.4945 2.6183,-6.2081 3.8391,-8.2525 z m -28.9389,1.7885 c 0,-0.2357 -0.7387,-1.1672 -1.6414,-2.07 -1.5219,-1.5219 -1.3794,-1.8671 1.9564,-4.741 3.5182,-3.031 3.5625,-3.1591 2.0058,-5.7944 -1.8325,-3.1022 -6.5152,-6.1683 -8.4806,-5.5528 -0.7371,0.2308 -2.5777,0.6909 -4.0902,1.0223 -3.41731,0.7488 -3.52101,2.8649 -0.3446,7.0294 1.323,1.7345 2.5605,4.252 2.75,5.5944 0.2481,1.7576 1.324,2.7747 3.8446,3.6342 4.2699,1.4561 4,1.3969 4,0.8779 z m -25.96011,-8.0714 c -0.076,-1.1528 -15.66796,-8.3467 -18.28993,-8.4387 -3.69154,-0.1295 -1.45305,1.7052 6,4.9176 4.2625,1.8373 8.19063,3.7317 8.72923,4.2099 1.2392,1.1004 3.6477,0.6345 3.5607,-0.6888 z m -23.62172,-4.107 c 0.86999,-0.3339 1.58179,-1.3109 1.58179,-2.1713 0,-0.8603 0.74474,-2.3872 1.65499,-3.393 1.56384,-1.728 1.50877,-1.8287 -1,-1.8287 -1.46025,0 -2.65499,0.525 -2.65499,1.1666 0,0.6417 -0.33679,0.8299 -0.74843,0.4183 -0.41163,-0.4117 0.11802,-1.382 1.177,-2.1564 1.05899,-0.7743 1.64019,-1.6931 1.29156,-2.0418 -1.15626,-1.1562 -3.59487,0.4704 -5.11642,3.4127 -1.33504,2.5817 -1.33455,3.1398 0.004,5.0515 1.68391,2.4041 1.6254,2.3804 3.81008,1.5421 z m 79.64523,31.4794 c -0.072,-1.8497 2.6525,-4.4898 3.6274,-3.5149 0.3534,0.3533 0.103,0.6425 -0.5564,0.6425 -0.6594,0 -1.6059,1.0125 -2.1033,2.25 -0.612,1.5226 -0.9249,1.7238 -0.9677,0.6224 z m -87.62231,-43.3406 c -1.06762,-0.8075 -1.41543,-1.4825 -0.77292,-1.5 1.89979,-0.052 4.33179,1.1133 4.33179,2.0751 0,1.3106 -1.35528,1.0916 -3.55887,-0.5751 z m 71.65941,-12.9108 c -1.5951,-1.9218 -3.186,-7.6737 -2.4514,-8.8624 0.3252,-0.5261 1.4044,1.4457 2.3984,4.3817 1.9312,5.7047 1.9437,6.7589 0.053,4.4807 z m -9.6005,-11.621 c -2,-0.8595 -2,-0.8595 0,-0.8595 1.1,0 2.9,0.3868 4,0.8595 2,0.8594 2,0.8594 0,0.8594 -1.1,0 -2.9,-0.3868 -4,-0.8594 z m 11.5,-4 c 0.5887,-1.1 1.5083,-2 2.0436,-2 0.5392,0 0.4162,0.8921 -0.2757,2 -0.687,1.1 -1.6066,2 -2.0437,2 -0.437,0 -0.3129,-0.9 0.2758,-2 z m -19.5817,-20.3318 c 0.3199,-1.0075 0.5817,-1.9996 0.5817,-2.2047 0,-0.2051 1.5799,-0.6693 3.511,-1.0316 1.9311,-0.3623 3.7576,-1.0576 4.059,-1.5453 0.3014,-0.4876 1.7589,-0.8686 3.239,-0.8466 l 2.691,0.04 -2.5,1.3415 c -1.375,0.7379 -4.0686,1.6789 -5.9857,2.0912 -1.9172,0.4123 -4.0914,1.4781 -4.8317,2.3685 -1.2191,1.4662 -1.2911,1.4462 -0.7643,-0.2131 z m -6.1863,-1.6682 c -1.0417,-1.6681 -0.9987,-2 0.2595,-2 0.8297,0 1.5085,0.1882 1.5085,0.4182 0,0.23 0.2731,1.13 0.607,2 0.8693,2.2655 -0.8927,1.9552 -2.375,-0.4182 z m -6.18841,-1.0815 c 0.9157,-1.7111 0.8753,-2.3698 -0.1904,-3.0995 -1.01,-0.6916 -0.8489,-0.8466 0.6353,-0.6113 2.73221,0.4331 2.99961,3.0171 0.4747,4.588 -1.9503,1.2134 -2.0087,1.1577 -0.9196,-0.8772 z"
       id="path3847"
       inkscape:connector-curvature="0" />
  </g>
</svg>
