<?xml version="1.0" encoding="UTF-8" standalone="no"?>
<!-- Created with Inkscape (http://www.inkscape.org/) -->

<svg
   xmlns:dc="http://purl.org/dc/elements/1.1/"
   xmlns:cc="http://creativecommons.org/ns#"
   xmlns:rdf="http://www.w3.org/1999/02/22-rdf-syntax-ns#"
   xmlns:svg="http://www.w3.org/2000/svg"
   xmlns="http://www.w3.org/2000/svg"
   xmlns:xlink="http://www.w3.org/1999/xlink"
   xmlns:sodipodi="http://sodipodi.sourceforge.net/DTD/sodipodi-0.dtd"
   xmlns:inkscape="http://www.inkscape.org/namespaces/inkscape"
   width="117.04163"
   height="188.3631"
   id="svg2"
   version="1.1"
   inkscape:version="0.48.3.1 r9886"
   sodipodi:docname="One-arm-bicep-concentration-on-stability-ball-1.svg">
  <defs
     id="defs4">
    <radialGradient
       gradientUnits="userSpaceOnUse"
       gradientTransform="matrix(1,0,0,0.91819829,-19.285714,-7.9105395)"
       r="209.56604"
       fy="287.50052"
       fx="398.1105"
       cy="287.50052"
       cx="398.1105"
       id="radialGradient5255"
       xlink:href="#linearGradient5249"
       inkscape:collect="always" />
    <linearGradient
       id="linearGradient5249"
       inkscape:collect="always">
      <stop
         id="stop5251"
         offset="0"
         style="stop-color:#e3e3e3;stop-opacity:1;" />
      <stop
         id="stop5253"
         offset="1"
         style="stop-color:#e3e3e3;stop-opacity:0;" />
    </linearGradient>
  </defs>
  <sodipodi:namedview
     id="base"
     pagecolor="#ffffff"
     bordercolor="#666666"
     borderopacity="1.0"
     inkscape:pageopacity="0.0"
     inkscape:pageshadow="2"
     inkscape:zoom="2.8"
     inkscape:cx="-38.906685"
     inkscape:cy="85.138027"
     inkscape:document-units="px"
     inkscape:current-layer="layer1"
     showgrid="false"
     showguides="true"
     inkscape:guide-bbox="true"
     fit-margin-top="0"
     fit-margin-left="0"
     fit-margin-right="0"
     fit-margin-bottom="0"
     inkscape:window-width="1201"
     inkscape:window-height="886"
     inkscape:window-x="167"
     inkscape:window-y="73"
     inkscape:window-maximized="0">
    <sodipodi:guide
       orientation="-0.70710678,0.70710678"
       position="-1464.5243,51.705208"
       id="guide2985" />
  </sodipodi:namedview>
  <metadata
     id="metadata7">
    <rdf:RDF>
      <cc:Work
         rdf:about="">
        <dc:format>image/svg+xml</dc:format>
        <dc:type
           rdf:resource="http://purl.org/dc/dcmitype/StillImage" />
        <dc:title></dc:title>
      </cc:Work>
    </rdf:RDF>
  </metadata>
  <g
     inkscape:label="Ebene 1"
     inkscape:groupmode="layer"
     id="layer1"
     transform="translate(-35.952717,110.00999)">
    <path
       style="fill:#000000"
       d="m 43.175811,77.939792 c -3.467821,-0.70956 -4.383144,-1.44186 -5.839805,-4.67216 -2.191374,-4.8596 -1.761532,-9.81822 1.164457,-13.43308 1.258577,-1.55489 2.584376,-4.02989 2.946219,-5.5 0.361843,-1.47011 1.214984,-3.57293 1.895871,-4.67293 0.952209,-1.53833 0.997132,-4.0775 0.19461,-11 -0.57385,-4.95 -1.169354,-18.675 -1.323343,-30.5000005 -0.275473,-21.1539495 0.187162,-25.4224195 3.143151,-28.9999995 1.504297,-1.82063 0.382916,-10.25896 -1.967291,-14.80376 -1.154373,-2.23232 -1.587491,-6.52813 -1.698496,-16.84632 -0.182908,-17.00171 -0.189955,-16.90523 1.353373,-18.52849 0.690996,-0.72679 3.693556,-5.06565 6.672356,-9.64192 4.294273,-6.59721 6.364093,-8.80318 9.993645,-10.65102 2.517704,-1.28179 5.702644,-3.53872 7.077644,-5.01541 4.047787,-4.347152 12.356605,-7.798592 17.3008,-7.186672 7.17171,0.88762 15.877159,2.69846 17.723848,3.686783 1.85985,0.99536 3.3497,-0.17301 5.43631,-4.263273 1.38305,-2.71111 7.27356,-5.76048 11.02344,-5.70655 3.77924,0.0544 10.23216,3.69639 12.91432,7.28885 2.67287,3.580023 3.37981,14.444082 1.32546,20.369102 -1.39201,4.01474 -1.35651,4.29546 0.79943,6.32086 1.24088,1.16575 2.78813,4.22515 3.43834,6.79868 0.6502,2.57353 1.88628,7.10409 2.74684,10.06791 1.23374,4.24909 1.34257,6.35928 0.51457,9.97763 -0.6033,2.63646 -0.68589,5.26935 -0.19411,6.18826 1.54579,2.88833 2.19536,11.47234 1.15363,15.24516 -0.56191,2.0351 -0.62434,3.70018 -0.13873,3.70018 0.48562,0 3.10467,2.66968 5.82011,5.93262 6.10985,7.34173 7.39252,12.4936495 4.21984,16.94926946 -1.14625,1.60977 -2.0841,3.81331004 -2.0841,4.89675004 0,1.08345 -0.675,3.88306 -1.5,6.2213605 -0.825,2.3383 -1.5,5.72633 -1.5,7.52895 0,1.80262 -1.61646,7.92145 -3.59213,13.59741 -2.65503,7.62772 -3.4407,11.2669 -3.01166,13.94996 0.67559,4.22489 4.9466,12.37487 8.28582,15.81106 5.27145,5.42454 5.13579,14.36729 -0.23841,15.71613 -3.16666,0.79478 -9.8728,-2.28362 -13.48939,-6.19219 -1.34983,-1.4588 -4.25423,-3.45723 -6.45423,-4.44096 -5.39043,-2.41032 -9.5,-6.51412 -9.5,-9.48666 0,-1.33945 0.89832,-3.90874 1.99626,-5.70953 3.09426,-5.07505 2.62539,-6.12841 -1.74626,-3.92315 -3.82899,1.93151 -17.06199,4.67032 -18.0057,3.72661 -0.758319,-0.75832 3.65884,-2.2735 10.09806,-3.46386 3.08432,-0.57016 6.93378,-1.72233 8.55436,-2.56036 2.25385,-1.16551 3.0503,-1.23335 3.38799,-0.28856 1.0726,3.00087 1.7466,-0.82151 2.26489,-12.8445 0.63549,-14.74189 0.76409,-15.60588 3.12248,-20.9787 0.95159,-2.1679101 2.4935,-6.1916505 3.42646,-8.9416505 1.60691,-4.73657 1.70169,-4.82719 1.79887,-1.71987004 0.0564,1.80408004 -1.12317,6.07908004 -2.62131,9.50000044 -2.46237,5.6226701 -2.70311,7.2203701 -2.50731,16.6401301 0.2387,11.4832 -0.7683,16.80159 -4.18064,22.07974 -3.85043,5.95578 -4.05155,8.66484 -0.86333,11.62882 1.52635,1.41899 4.88739,3.65277 7.46898,4.96395 2.58159,1.31118 5.07469,3.06458 5.54023,3.89645 1.22339,2.18607 7.98216,5.39776 10.16045,4.82812 1.02175,-0.26719 2.4241,-1.54409 3.11634,-2.83756 1.11671,-2.08658 0.92545,-2.78183 -1.6961,-6.16577 -1.6251,-2.09771 -3.92119,-5.41862 -5.10244,-7.3798 -1.18124,-1.96119 -3.06224,-4.39343 -4.17999,-5.40499 -2.51811,-2.27885 -2.80634,-10.41824 -0.49391,-13.94745 2.09276,-3.19396 6.46162,-17.19411 6.46162,-20.70647 0,-3.11246 1.5665,-10.6474905 3.19647,-15.3753005 0.56885,-1.65000004 1.39426,-5.25 1.83424,-8 0.70904,-4.4317895 0.55225,-5.2272895 -1.37975,-6.9999995 -1.19884,-1.1 -3.22244,-3.6875 -4.49689,-5.75 -1.27445,-2.0625 -2.65445,-3.75 -3.06665,-3.75 -1.34218,0 -2.96109,4.38448 -3.64022,9.8588 -0.62934,5.0729599 -3.05359,9.1411995 -5.4472,9.1411995 -1.52604,0 -1.20307,-1.15494 0.96973,-3.4677799 1.08335,-1.1531697 2.6863,-5.2321796 3.56211,-9.0644496 0.87581,-3.83227 2.08346,-9.15279 2.68367,-11.82338 0.80374,-3.57621 0.78342,-6.52642 -0.0771,-11.1967 -0.64261,-3.4876 -0.88021,-8.79304 -0.528,-11.78985 0.47574,-4.04776 0.22247,-6.28651 -0.985,-8.70694 -0.89396,-1.792 -1.62707,-4.65154 -1.62913,-6.35454 -0.002,-1.703 -0.93209,-4.61912 -2.06674,-6.48028 l -2.063,-3.38391 -2.4673,3.63096 c -2.41828,3.55879 -8.77245,7.63687 -11.89924,7.63687 -1.92662,0 -9.12667,-3.58692 -9.98375,-4.9737 -1.01051,-1.63505 -3.51625,-11.93424 -3.51625,-14.45265 0,-1.28082 0.675,-2.88896 1.5,-3.57365 1.30659,-1.08437 1.50048,-0.42323 1.50374,5.12755 0.006,10.29516 4.74661,15.89227 12.26554,14.48171 5.08703,-0.95433 10.06451,-7.74785 12.62061,-17.22528 1.55473,-5.76458 1.39431,-8.55516 -0.78397,-13.636869 -2.33676,-5.451463 -7.3256,-8.249243 -13.28438,-7.450003 -5.13565,0.68884 -6.51769,1.97699 -10.04608,9.363609 -2.90665,6.085023 -6.23923,10.208843 -7.351349,9.096723 -0.309998,-0.31 0.39915,-2.45084 1.575889,-4.75744 1.17674,-2.3066 1.93689,-4.396443 1.68923,-4.644103 -0.24766,-0.247656 -4.536462,-1.270006 -9.530679,-2.271886 -12.748962,-2.557553 -15.797859,-1.866043 -24.818041,5.628919 -2.837721,2.35789 -5.495245,4.28707 -5.905609,4.28707 -1.777601,0 -7.584203,5.38857 -8.95431,8.30967 -1.633124,3.48186 -5.545374,9.27804 -7.937609,11.75994 -1.256052,1.30313 -1.428525,3.96152 -1.0159,15.6584 0.306336,8.68386 1.067834,15.7067 1.984962,18.30612 0.818377,2.31953 1.50227,5.62325 1.519761,7.3416 0.01749,1.71835 0.647525,3.93628 1.400074,4.92874 1.197097,1.57873 1.068016,2.10473 -1.031804,4.20455 -2.522315,2.52231 -2.680749,3.46833 -2.845565,16.9909795 -0.05363,4.4 -0.487105,11.2318804 -0.963282,15.1819505 -0.671037,5.56652 -0.470952,9.21467 0.889543,16.21904 0.965425,4.9704 1.557703,10.38353 1.316173,12.02918 -0.280539,1.91143 0.02313,3.09642 0.84079,3.28096 1.020142,0.23024 0.994349,0.89779 -0.127075,3.28887 -9.624667,20.52151 -9.559194,20.26801 -6.521617,25.25 1.705932,2.79793 2.539999,3.25 5.996262,3.25 4.599148,0 7.637354,-2.39086 8.545305,-6.72456 0.319814,-1.52649 1.45626,-4.69998 2.525436,-7.05219 2.256414,-4.96417 2.382731,-6.5431 0.763129,-9.53899 -1.824952,-3.37574 -1.638853,-12.1624 0.499961,-23.60563 1.859601,-9.94936 1.872249,-10.77304 0.279259,-18.18611 -1.614638,-7.5138105 -1.409842,-12.01252054 0.666843,-14.6484305 0.706713,-0.89702 0.246309,-1.84047 -1.611157,-3.30155 -2.665437,-2.0966396 -8.131619,-11.7983295 -7.182332,-12.7476195 0.29054,-0.29054 0.657102,-0.34075 0.814582,-0.11159 0.157481,0.22917 1.962077,3.00417 4.010215,6.16667 2.048137,3.1625 4.079575,5.7499999 4.514307,5.7499999 2.524873,0 6.155451,-2.7118499 6.024531,-4.4999999 -0.643546,-8.7898 1.385686,-14.16899 2.700726,-7.15923 0.795667,4.24128 -1.044674,11.1964599 -3.406093,12.8726195 -4.517805,3.20678 -5.597825,9.64001 -3.170515,18.8854505 l 1.889713,7.19776 -2.477728,8.55012 c -1.924554,6.64124 -2.367265,10.01282 -1.982952,15.1017 0.272126,3.60337 0.555461,6.55158 0.629633,6.55158 0.07417,0 0.299305,0.9 0.500297,2 0.200992,1.1 0.62445,3.39586 0.941019,5.1019 0.34873,1.87938 -0.02009,4.24411 -0.93579,6 -0.831253,1.59396 -1.514142,3.82089 -1.51753,4.94874 -0.02247,7.47855 -7.515672,12.09008 -16.618552,10.22753 z m 91.279059,-16.44484 c -0.36667,-0.36666 -0.66667,-1.13166 -0.66667,-1.7 0,-0.6266 0.46577,-0.56756 1.18333,0.15 0.65084,0.65084 0.95084,1.41584 0.66667,1.7 -0.28417,0.28417 -0.81667,0.21667 -1.18333,-0.15 z m -2.49315,-6.08333 c -1.77139,-3.45646 -2.26368,-7.43643 -1.09413,-8.84565 1.9024,-2.29226 2.91138,-1.60821 2.28052,1.54612 -0.32455,1.62275 -0.11171,4.32275 0.47298,6 1.13665,3.2606 -0.1414,4.26151 -1.65937,1.29953 z m -59.173518,-2.18623 c -4.724367,-0.95328 -9.615426,-3.6192 -10.402357,-5.66991 -1.040079,-2.7104 0.03189,-2.78959 5.113896,-0.37774 3.935334,1.86765 7.193663,2.38602 18.288461,2.90956 l 13.499999,0.63703 -5.4315,1.71864 c -5.490892,1.73744 -14.649847,2.07758 -21.068499,0.78242 z m -18.965081,-7.99852 c -0.628871,-1.17506 -1.6738,-1.75732 -2.550173,-1.42102 -0.90633,0.34779 -1.484746,-0.0146 -1.484746,-0.93025 0,-1.23968 1.931762,-2.71398 3.556107,-2.71398 1.042354,0 3.332471,5.95083 2.490399,6.47126 -0.520387,0.32161 -1.425602,-0.31109 -2.011587,-1.40601 z M 129.7882,31.663102 c 0,-0.44467 1.06479,-3.10192 2.36619,-5.90499 1.3014,-2.80307 2.63507,-6.85765 2.96369,-9.01018 0.32863,-2.15253 1.10086,-4.40253 1.71608,-5 1.49238,-1.44933 0.38002,7.38172 -1.64267,13.04123 -1.32341,3.70293 -5.40329,8.89325 -5.40329,6.87394 z M 48.551857,28.161622 C 47.43476,24.368912 47.645715,6.6665915 48.845618,3.5106015 c 0.819688,-2.15594 1.254494,-2.46233 1.934017,-1.36284 0.482131,0.7801 0.595226,1.87364 0.251324,2.43009 -0.343902,0.55644 -0.87671,6.6529305 -1.184017,13.5477405 -0.347839,7.8042 -0.83668,11.59238 -1.295085,10.03603 z M 141.10097,1.8298315 c 0.37798,-1.00748004 0.68723,-2.91998 0.68723,-4.25 0,-1.33001 0.45,-2.41821 1,-2.41821 1.66502,0 1.11949,5.65791996 -0.68723,7.12756 -1.48525,1.20814 -1.60496,1.15316 -1,-0.45935 z M 52.538202,-0.42123854 c -1.137836,-1.13854996 -0.896405,-7.20861986 0.316531,-7.95825956 1.778674,-1.09928 2.127427,0.15581 1.26012,4.5349096 -0.454658,2.2956 -1.164151,3.83610996 -1.576651,3.42334996 z M 123.30474,-4.8116185 c -0.33082,-0.53528 -2.26988,-1.73595 -4.30902,-2.6681499 -2.03914,-0.9322097 -4.12149,-1.9180697 -4.62746,-2.1908097 -0.50597,-0.27274 -0.63259,0.25293 -0.28138,1.16816 1.32793,3.4605296 -5.96289,1.7755296 -13.79868,-3.1890499 -0.549999,-0.34847 -2.894349,-1.1249 -5.209666,-1.72541 -3.749966,-0.97261 -5.32259,-0.73139 -14.401125,2.20895 -5.605301,1.8154299 -10.580791,3.0601599 -11.056644,2.7660699 -1.149805,-0.71062 0.0019,-2.4886099 1.492844,-2.3045599 2.803898,0.34614 3.674593,-0.23901 3.674593,-2.46952 0,-1.30765 -0.675,-2.93775 -1.5,-3.62244 -0.825,-0.68469 -1.5,-1.91989 -1.5,-2.74489 0,-2.19603 2.482874,0.0822 3.950197,3.62465 l 1.16537,2.81346 5.597443,-1.84661 c 3.078593,-1.01564 6.76509,-1.8441 8.192216,-1.84103 4.295654,0.009 10.400282,2.04408 13.778052,4.59262 3.67216,2.7706699 4.88265,2.9753499 5.65731,0.95662 0.58258,-1.51817 -4.7306,-13.05979 -6.52163,-14.16671 -0.57229,-0.35369 -2.00317,0.50354 -3.17974,1.90496 -1.176569,1.40142 -3.63144,2.85107 -5.455267,3.22145 -8.588271,1.74406 -13.795904,-5.53318 -12.605392,-17.615 0.455885,-4.62651 1.231092,-7.38045 2.304229,-8.18582 0.889466,-0.66754 2.247533,-2.43584 3.017926,-3.92957 0.770393,-1.49373 1.822102,-2.45544 2.337132,-2.13713 0.560073,0.34614 0.499501,1.01565 -0.150714,1.66587 -1.940704,1.9407 -1.162346,2.68713 2.802084,2.68713 2.347526,0 4.825034,0.76064 6.25,1.91886 1.900092,1.54441 3.336492,1.80509 7.360782,1.33583 5.98164,-0.69749 7.60382,-2.44267 6.84544,-7.3645 -0.36958,-2.39855 -0.002,-4.5796 1.09565,-6.5 l 1.65186,-2.89019 -0.59999,3.79371 c -0.97985,6.19556 -0.044,7.64435 4.87421,7.54563 4.68414,-0.094 9.06382,1.76944 12.13519,5.16327 1.50025,1.65775 1.99764,3.61291 1.99764,7.85238 0,8.65499 -4.20976,13.14501 -12.32455,13.14501 -4.49733,0 -7.48313,-1.91437 -9.10942,-5.84059 -1.07587,-2.59739 -1.59402,-2.86843 -4.68682,-2.45164 -1.91247,0.25773 -4.24266,0.17365 -5.17821,-0.18684 -2.67759,-1.03173 0.49579,-2.3775 5.09524,-2.16078 l 3.79623,0.17887 -0.29623,-4.01951 c -0.27934,-3.79025 -0.46735,-4.00712 -3.29624,-3.80237 -6.95777,0.5036 -7.5,0.9431 -7.5,6.07905 0,3.82896 0.55375,5.36437 2.83578,7.86287 1.55967,1.70762 4.09713,5.29541 5.63879,7.97286 4.50053,7.81622 4.40498,7.7334 16.86129,14.6165295 l 3.16414,1.74844 -2.69098,0.002 c -1.48004,8.5e-4 -2.96166,-0.43641 -3.29248,-0.97169 z M 97.837862,-24.364058 c 3.210368,-1.66015 3.843828,-4.4879 1.450339,-6.47432 -2.186803,-1.81489 -2.007744,-9.61388 0.25,-10.8889 1.504469,-0.84961 1.203929,-1.21756 -2.142024,-2.62245 -4.153516,-1.74397 -7.548762,-1.40501 -9.946802,0.99303 -2.201532,2.20154 -3.017582,8.89444 -1.615245,13.24759 1.829874,5.6803 2.348909,6.12896 8.253732,7.13455 0.439813,0.0749 2.127313,-0.55038 3.75,-1.3895 z m -5.52398,-4.42466 c -2.068605,-4.00024 -2.034152,-11.64056 0.05611,-12.44267 0.869984,-0.33385 1.694506,-0.60699 1.832273,-0.60699 0.137767,0 0.04568,2.46962 -0.204627,5.48805 -0.332782,4.01292 -0.01271,6.16324 1.190781,8 1.418405,2.16476 1.438933,2.51195 0.148519,2.51195 -0.823555,0 -2.183929,-1.32765 -3.023053,-2.95034 z m 34.704498,1.70969 c 5.10597,-2.40963 6.45851,-8.34119 3.62095,-15.87963 -1.84652,-4.90557 -11.04219,-6.68866 -14.85113,-2.87972 -3.83647,3.83647 -2.29956,15.94196 2.44204,19.23469 1.62774,1.13036 5.87216,0.90079 8.78814,-0.47534 z m -5.1576,-4.39421 c -2.26191,-2.87555 -2.78658,-9.16251 -1.0374,-12.43088 1.85237,-3.46118 2.60108,-2.05369 2.15895,4.05862 -0.3213,4.44196 -0.008,6.64171 1.20925,8.5 2.18141,3.32925 0.3077,3.22656 -2.3308,-0.12774 z m -66.572578,10.63486 c -0.339919,-0.55 0.253424,-1 1.318538,-1 1.065115,0 2.496773,-0.675 3.181462,-1.5 1.211084,-1.45927 4,-2.09395 4,-0.91029 0,0.32434 -1.0125,1.43437 -2.25,2.46673 -2.479519,2.06849 -5.292307,2.49314 -6.25,0.94356 z m 13.364768,-4.95808 c -0.87129,-2.49939 -1.930108,-3.33453 -5.406377,-4.26429 -3.81256,-1.01971 -4.6422,-1.7873 -7.027685,-6.50213 l -2.704794,-5.34593 1.572347,-7.71479 c 3.02123,-14.82379 3.042335,-15.28792 0.767633,-16.88118 -2.703157,-1.89337 -2.744952,-3.76739 -0.05188,-2.3261 4.299063,2.30079 14.62373,-2.26387 20.235986,-8.94658 2.093205,-2.49245 2.175131,-3.06092 0.44113,-3.06092 -1.790531,0 -5.335653,-2.68881 -4.563364,-3.4611 0.343542,-0.34354 2.187374,0.1206 4.097405,1.03143 2.815684,1.34271 4.361567,1.4665 8.170016,0.65424 6.511806,-1.38884 5.61692,0.80564 -0.965605,2.36789 -2.71127,0.64347 -4.536982,1.22341 -4.057137,1.28875 0.479844,0.0653 0.314679,0.79086 -0.367035,1.61227 -2.327099,2.80398 4.648893,14.29226 10.032822,16.52236 3.949831,1.63607 3.839762,3.40976 -0.161931,2.60942 -3.360993,-0.6722 -10.957477,-8.3418 -11.921386,-12.03614 -1.686079,-6.46216 -4.00273,4.45574 -4.32429,20.37948 l -0.130625,6.46861 4.25,2.35632 c 2.3375,1.29597 4.25,2.76147 4.25,3.25664 0,1.3018 -4.950969,-0.77539 -8.744267,-3.66868 l -3.253137,-2.48129 -1.153055,2.53068 c -0.63418,1.39187 -1.925417,2.77581 -2.869414,3.07543 -0.943998,0.29961 -2.464811,1.37178 -3.379585,2.38259 -1.581488,1.74753 -1.415965,1.94421 3.368116,4.00227 3.334887,1.43463 5.031342,2.76197 5.031342,3.93663 0,0.97471 0.48921,2.26141 1.087132,2.85933 0.782843,0.78285 0.775602,1.27967 -0.02587,1.77501 -0.669281,0.41364 -1.54496,-0.55124 -2.196492,-2.42022 z m -5.025566,-15.04192 c 0.665665,0 1.638024,-1.125 2.160798,-2.5 0.522774,-1.375 1.524136,-2.5 2.225249,-2.5 0.887282,0 1.302522,-1.89973 1.366117,-6.25 0.05025,-3.4375 0.445904,-8.15431 0.879227,-10.4818 0.999262,-5.36727 -0.411928,-6.07957 -6.702538,-3.3831 -4.580153,1.96328 -4.583121,1.96782 -5.086318,7.78966 -0.276921,3.20388 -0.792411,8.28723 -1.145534,11.29633 -0.353122,3.00909 -0.370359,6.55355 -0.0383,7.87657 l 0.603739,2.40548 2.263632,-2.12657 c 1.244994,-1.16961 2.808263,-2.12657 3.473928,-2.12657 z m -14.839202,11.24055 c 0,-1.15776 4.105067,-3.46882 4.845806,-2.72808 0.358077,0.35808 -0.221751,1.28926 -1.288508,2.06929 -2.139599,1.56451 -3.557298,1.82706 -3.557298,0.65879 z m 26,-19.61344 c 0,-3.64448 8.173077,-8.87424 11.07033,-7.08364 0.601844,0.37196 -1.181955,1.75903 -3.991051,3.10341 -2.793604,1.33697 -5.079279,3.06181 -5.079279,3.83297 0,0.77116 -0.45,1.68023 -1,2.02015 -0.564438,0.34884 -1,-0.46692 -1,-1.87289 z m 48.396728,-7.54759 c -0.48518,-3.03414 -1.16609,-4.0558 -3.01182,-4.51905 -1.3117,-0.32922 -2.38491,-1.04857 -2.38491,-1.59857 0,-1.2663 5.23011,-0.0566 6.23469,1.44207 0.40408,0.60282 0.74158,2.07173 0.75,3.26424 0.008,1.19252 0.28845,2.88002 0.6223,3.75 0.33384,0.86999 0.11416,1.58179 -0.48818,1.58179 -0.60235,0 -1.37728,-1.76421 -1.72208,-3.92048 z m -28.888541,-0.32952 c 0.890569,-3.11648 6.258551,-7.59706 10.696491,-8.92821 3.13197,-0.93943 4.13364,-0.83014 6.47957,0.70698 2.99434,1.96196 1.69601,3.28029 -1.53014,1.55371 -3.6338,-1.94476 -14.154108,3.70752 -14.154108,7.60461 0,0.7221 -0.480324,1.31291 -1.067388,1.31291 -0.630761,0 -0.804377,-0.92039 -0.424425,-2.25 z m 32.491811,-0.90218 c 0,-1.15446 4.73849,-1.07997 5.45898,0.0858 0.31736,0.51349 -0.78108,0.89501 -2.44098,0.84782 -1.6599,-0.0472 -3.018,-0.46733 -3.018,-0.93363 z m -26.33333,-9.51449 c -0.36667,-0.36666 -0.666669,-1.70756 -0.666669,-2.97976 0,-3.30051 -2.896782,-10.09998 -4.577701,-10.74501 -0.782264,-0.30019 -1.422298,-1.02575 -1.422298,-1.61236 0,-0.75484 0.581517,-0.75535 1.98965,-0.002 2.778724,1.48713 5.216918,6.62109 5.559798,11.70693 0.30053,4.45783 0.23065,4.74537 -0.88278,3.63194 z m -9.911739,-20.08333 c -0.259639,-1.5125 -0.808859,-3.5375 -1.220489,-4.5 -0.448689,-1.04915 -0.315372,-1.75 0.332891,-1.75 1.572043,0 4.222611,5.60204 3.518603,7.43666 -0.920343,2.39837 -2.107508,1.86293 -2.631005,-1.18666 z"
       id="path3610"
       inkscape:connector-curvature="0" />
  </g>
</svg>
