<?xml version="1.0" encoding="UTF-8" standalone="no"?>
<!-- Created with Inkscape (http://www.inkscape.org/) -->

<svg
   xmlns:dc="http://purl.org/dc/elements/1.1/"
   xmlns:cc="http://creativecommons.org/ns#"
   xmlns:rdf="http://www.w3.org/1999/02/22-rdf-syntax-ns#"
   xmlns:svg="http://www.w3.org/2000/svg"
   xmlns="http://www.w3.org/2000/svg"
   xmlns:sodipodi="http://sodipodi.sourceforge.net/DTD/sodipodi-0.dtd"
   xmlns:inkscape="http://www.inkscape.org/namespaces/inkscape"
   width="581.40894"
   height="899.99414"
   id="svg2"
   version="1.1"
   inkscape:version="0.48.3.1 r9886"
   sodipodi:docname="Overhead-squat-2.svg">
  <defs
     id="defs4" />
  <sodipodi:namedview
     id="base"
     pagecolor="#ffffff"
     bordercolor="#666666"
     borderopacity="1.0"
     inkscape:pageopacity="0.0"
     inkscape:pageshadow="2"
     inkscape:zoom="0.49497475"
     inkscape:cx="661.40572"
     inkscape:cy="165.76291"
     inkscape:document-units="px"
     inkscape:current-layer="layer1"
     showgrid="false"
     fit-margin-top="0"
     fit-margin-left="0"
     fit-margin-right="0"
     fit-margin-bottom="0"
     inkscape:window-width="1855"
     inkscape:window-height="1056"
     inkscape:window-x="65"
     inkscape:window-y="24"
     inkscape:window-maximized="1" />
  <metadata
     id="metadata7">
    <rdf:RDF>
      <cc:Work
         rdf:about="">
        <dc:format>image/svg+xml</dc:format>
        <dc:type
           rdf:resource="http://purl.org/dc/dcmitype/StillImage" />
        <dc:title></dc:title>
      </cc:Work>
    </rdf:RDF>
  </metadata>
  <g
     inkscape:label="Ebene 1"
     inkscape:groupmode="layer"
     id="layer1"
     transform="translate(-609.75253,-403.52525)">
    <path
       style="fill:#000000"
       d=""
       id="path3414"
       inkscape:connector-curvature="0" />
    <path
       style="fill:#000000"
       d=""
       id="path3412"
       inkscape:connector-curvature="0" />
    <path
       style="fill:#000000"
       d="m 654.04319,1302.1575 c -4.3261,-1.9067 -8.10903,-6.0755 -12.27813,-13.5305 -2.00981,-3.5939 -5.78995,-9.3561 -8.40033,-12.8048 -2.61038,-3.4488 -5.2257,-8.0515 -5.81182,-10.2282 -0.70802,-2.6293 -0.8402,-12.1093 -0.39384,-28.2468 0.4475,-16.1792 0.31005,-25.9587 -0.41165,-29.2893 -0.71292,-3.2899 -3.31978,-8.342 -7.62225,-14.7718 -7.67728,-11.4732 -10.11826,-18.5081 -9.18302,-26.4656 0.81781,-6.9583 3.4073,-11.9514 8.65861,-16.6956 5.47475,-4.9461 13.36114,-8.4912 22.20398,-9.9812 3.91003,-0.6588 7.28881,-1.7368 7.50839,-2.3956 0.60746,-1.8224 18.03643,-14.6147 23.94682,-17.5762 2.86921,-1.4377 6.02007,-2.614 7.00189,-2.614 1.1852,0 4.18147,-3.7808 8.91546,-11.25 9.82114,-15.4955 13.46846,-22.3886 18.91637,-35.75 9.28722,-22.7776 16.11547,-34.01 27.3029,-44.913 6.87613,-6.7013 9.14461,-8.1528 23.62654,-15.117 9.48338,-4.5604 17.07586,-8.8802 18.60757,-10.58694 2.79289,-3.1119 20.98538,-28.096 27.58505,-37.8831 5.97471,-8.8602 7.79694,-12.8818 11.33823,-25.02297 2.70097,-9.26018 3.02871,-11.45731 2.09548,-14.048 -1.72054,-4.77629 -1.29326,-8.36368 1.88317,-15.81095 l 2.93531,-6.88196 -4.49673,-11.81862 c -2.47321,-6.50024 -5.98871,-15.10336 -7.81224,-19.11804 -5.20434,-11.45789 -6.09616,-16.49045 -6.07818,-34.29943 0.0138,-13.67631 0.33787,-17.03539 2.2314,-23.12928 2.80113,-9.01481 8.30594,-16.52602 19.60814,-26.75492 4.7913,-4.33631 10.02351,-9.79119 11.62711,-12.12195 4.83097,-7.02157 8.20574,-22.90085 9.56239,-44.99385 0.56306,-9.1693 0.23209,-14.02753 -1.98866,-29.19131 -2.39545,-16.35666 -2.55903,-19.21557 -1.62194,-28.34728 0.924,-9.00419 0.80435,-11.3074 -1.05504,-20.30869 -3.37952,-16.36018 -1.72153,-29.66167 5.06723,-40.65272 1.52872,-2.475 4.04307,-7.87367 5.58746,-11.99704 3.54205,-9.45695 10.42458,-16.83923 18.06531,-19.37707 6.00288,-1.99384 13.54543,-6.65425 19.38473,-11.9775 3.67145,-3.34698 4.86495,-5.60936 9.10964,-17.26802 2.68656,-7.37903 4.88465,-14.31724 4.88465,-15.41826 0,-1.10102 -1.0927,-4.691 -2.42822,-7.97774 -4.30734,-10.60043 -4.84369,-15.39647 -3.06297,-27.389 3.75625,-25.29708 10.91465,-36.12033 28.1562,-42.57122 13.12795,-4.9118 30.24209,-3.10394 46.90318,4.95462 10.5534,5.10442 15.34266,9.88915 20.44038,20.42101 4.09713,8.46466 4.1214,8.58301 4.70274,22.93087 0.60808,15.0077 -1.78733,47.26452 -3.93233,52.95324 -1.72439,4.57323 -5.34538,6.71611 -11.34874,6.71611 -2.91502,0 -6.45043,-0.43738 -7.85646,-0.97195 -3.56094,-1.35387 -5.34477,-0.39726 -7.6367,4.09528 l -1.97773,3.87667 2.06248,0 c 5.06557,0 18.15344,-3.45473 25.37511,-6.69813 7.81927,-3.51178 8.00577,-3.54218 18.96057,-3.09082 l 11.0637,0.45584 8.1075,-7.63677 c 4.4591,-4.20023 9.6518,-8.24723 11.5394,-8.99335 26.3892,-10.43117 43.9954,-19.77387 46.417,-24.6311 0.6754,-1.35473 0.7296,-7.02637 0.1602,-16.74916 -0.9621,-16.42741 -0.5196,-18.85028 5.8729,-32.15651 3.6246,-7.54466 7.3656,-11.77138 19.8954,-22.47897 4.6448,-3.96923 5.1647,-4.16375 9.5,-3.55425 8.626,1.21269 10.6882,7.41299 6.672,20.06009 -1.3864,4.36587 -2.1979,8.24873 -1.8032,8.62859 0.3947,0.37985 2.0676,0.83777 3.7176,1.01759 3.8457,0.41911 4.3344,3.56482 1.9326,12.438 -1.3296,4.91182 -1.5432,7.9139 -0.9342,13.12847 1.0507,8.99533 0.8475,13.09758 -1.017,20.53462 -2.7307,10.89166 -3.2802,11.71554 -9.9042,14.84923 -3.3424,1.58128 -6.849,2.87541 -7.7924,2.87584 -2.5002,10e-4 -7.778,4.97226 -19.0895,17.98016 -5.51,6.33635 -12.2926,13.88313 -15.0726,16.77063 -4.3998,4.57007 -4.7671,5.25 -2.8359,5.25 1.3321,0 3.7144,-1.65584 5.9627,-4.14451 2.7949,-3.09364 7.2949,-5.86781 17.7474,-10.94096 18.3687,-8.91531 40.5031,-25.34996 40.5031,-30.07328 0,-0.55292 -1.1633,-4.3758 -2.5852,-8.49529 -2.2759,-6.59383 -2.6049,-9.24203 -2.75,-22.1335 l -0.1648,-14.64351 2.4839,-1.2433 c 3.2624,-1.63297 4.153,-5.27658 3.3952,-13.89095 -0.6417,-7.29517 0.9454,-12.79377 4.2521,-14.73201 0.7482,-0.43852 1.6432,-2.56661 1.989,-4.72908 0.874,-5.46558 2.3084,-7.02022 7.0663,-7.65839 3.4683,-0.46519 4.2917,-0.22446 5.2302,1.52909 0.6231,1.16435 1.7269,1.84594 2.5055,1.54717 0.7654,-0.29373 3.2375,0.63114 5.4934,2.05525 3.2522,2.05304 4.3494,3.51545 5.2978,7.06129 0.9825,3.67355 1.7581,4.65751 4.344,5.51092 4.424,1.46006 5.5489,4.65882 6.5449,18.6118 0.4763,6.6719 1.8035,17.89873 2.9493,24.94849 1.816,11.17311 1.9385,13.90603 0.9547,21.29938 -0.6208,4.66489 -1.5324,9.23598 -2.0259,10.15797 -0.4934,0.92198 -4.6284,4.85558 -9.1888,8.74133 -4.5604,3.88574 -9.9189,8.78784 -11.9079,10.89354 -4.6195,4.89063 -20.6222,28.55274 -22.893,33.85034 -0.9514,2.21931 -4.481,7.45516 -7.8437,11.63524 -3.3627,4.18008 -6.9831,9.62763 -8.0453,12.10567 -2.5192,5.87708 -6.9491,9.129 -17.2215,12.642 -9.4492,3.23146 -22.2501,10.52642 -28.6906,16.3502 -2.3707,2.14369 -5.7729,4.50868 -7.5603,5.25553 -6.7013,2.79998 -31.5216,7.66825 -50.9854,10.00031 -6.5209,0.7813 -12.4173,1.88624 -13.1031,2.45544 -0.7397,0.61386 -1.4882,4.79785 -1.8399,10.28436 -0.8198,12.79129 -2.9506,19.94175 -8.0949,27.16513 -4.30667,6.04729 -4.33638,6.14825 -4.88133,16.58433 -0.87464,16.74993 -3.71719,23.11899 -18.42822,41.29043 -3.96195,4.8939 -7.6394,10.3181 -8.1721,12.05378 -0.53271,1.73569 -2.40548,7.76232 -4.1617,13.39253 l -3.19313,10.23673 3.12326,3.5572 c 2.47769,2.82194 2.98799,4.11653 2.46881,6.26327 -1.07747,4.45518 -2.30153,7.31296 -4.38651,10.24104 -1.49209,2.09545 -1.97509,4.40471 -1.97509,9.44307 0,8.08468 -2.5683,16.18852 -10.81787,34.13392 -7.70369,16.75797 -10.50933,25.51379 -14.22331,44.38803 -3.75911,19.10363 -6.36046,28.67344 -9.96,36.64075 -3.17436,7.02622 -9.67276,16.21612 -13.42014,18.97842 -2.41637,1.7812 -2.63327,2.7285 -4.09427,17.8808 -1.49881,15.5445 -1.48079,16.3954 0.63314,29.88914 2.11714,13.5141 2.1311,14.189 0.51737,25 -1.711,11.4625 -1.60436,14.7218 1.31243,40.1109 0.56867,4.95 1.31735,15.75 1.66373,24 0.57557,13.7088 0.40421,16.1033 -1.99065,27.8162 -1.44123,7.0488 -2.58246,15.5988 -2.53605,19 0.10088,7.393 1.26831,17.3699 2.13377,18.2353 0.34119,0.3412 42.39419,-2.7993 93.45106,-6.9788 51.057,-4.1796 94.7433,-7.5933 97.0808,-7.5859 3.8772,0.012 4.25,0.2353 4.25,2.5446 0,1.3923 -0.5625,2.7104 -1.25,2.9291 -0.6875,0.2188 -44,3.856 -96.25,8.0828 -52.25001,4.2267 -95.15382,7.8249 -95.34181,7.996 -0.86501,0.7871 2.55828,7.8762 4.3418,8.9911 2.03206,1.2704 18.27286,5.8713 24.30882,6.8866 1.81985,0.3061 7.89485,-0.1223 13.5,-0.9521 6.94991,-1.0289 11.65963,-1.2326 14.80826,-0.6407 8.99287,1.6906 16.28358,10.5332 16.35223,19.833 0.0827,11.2023 -19.75887,23.5377 -46.46931,28.8896 -14.50775,2.9069 -13.91725,2.6563 -23.80085,10.1024 -11.85563,8.9318 -21.83745,13.2552 -30.76765,13.3264 -5.53504,0.044 -13.41926,-2.9697 -17.5635,-6.7138 -8.61598,-7.784 -9.71523,-13.8717 -7.3231,-40.5559 1.66231,-18.5432 1.48474,-30.4218 -0.50286,-33.6378 -0.70608,-1.1425 -12.52474,-0.428 -71.69375,4.3341 -38.96656,3.1361 -71.74829,5.884 -72.84829,6.1063 -1.35315,0.2735 -2.58293,2.0458 -3.80237,5.4796 -2.09289,5.8933 -7.74806,10.6766 -13.75933,11.6378 l -3.71849,0.5946 -4.1031,13.6398 c -9.47112,31.4844 -10.19855,37.666 -6.71617,57.0726 2.98401,16.6293 2.72186,17.7974 -4.73488,21.0982 -2.29111,1.0142 -4.91829,3.12 -5.83817,4.6796 -1.97096,3.3416 -8.89968,7.3058 -12.67199,7.2502 -1.46052,-0.021 -4.0055,-0.6341 -5.6555,-1.3613 z m 11.13761,-6.3649 c 0.62569,-0.4041 1.82211,-2.3788 2.65871,-4.3883 1.47048,-3.532 2.14574,-3.9836 7.84338,-5.2448 1.45184,-0.3214 2.86305,-1.1663 3.13604,-1.8777 0.27298,-0.7114 -0.34839,-6.2278 -1.38083,-12.2587 -2.60213,-15.2 -2.39513,-20.5014 1.55391,-39.797 3.96702,-19.3834 5.3286,-23.9747 10.5778,-35.6682 3.52058,-7.8427 3.74982,-8.9012 2.96441,-13.689 -0.46818,-2.854 -3.02019,-9.604 -5.67113,-15 -4.7085,-9.5842 -4.89653,-9.8074 -8.13575,-9.6564 -4.03403,0.1881 -6.96627,2.6486 -7.37776,6.1908 -0.63982,5.5078 -6.80639,3.3525 -6.80639,-2.3789 0,-4.0048 4.28513,-8.0541 9.57295,-9.0461 4.29023,-0.8049 4.01823,-1.9657 -1.43862,-6.1394 l -4.20866,-3.2191 -10.08476,0.5085 c -23.00856,1.16 -36.30756,6.6432 -40.96125,16.8883 -3.7292,8.2098 -1.7968,16.3886 6.91103,29.2508 2.15613,3.1848 4.60388,7.1405 5.43943,8.7905 2.35054,4.6417 4.05378,32.5096 2.78627,45.5878 -1.60965,16.6084 0.17409,23.0075 8.8246,31.658 3.62834,3.6283 4.99801,5.8459 5.48265,8.8767 0.71056,4.4436 2.18733,6.1078 8.17636,9.2143 4.11582,2.1349 8.1377,2.6895 10.13761,1.3979 z m -2.01623,-9.7561 c -1.05654,-1.0566 -1.62138,-3.3384 -1.62138,-6.55 0,-4.2405 0.27562,-4.9286 1.97432,-4.9286 2.56342,0 5.23798,5.1483 4.83429,9.3055 -0.35515,3.6574 -2.71449,4.6458 -5.18723,2.1731 z m -4.54528,-31.3364 c -1.79679,-3.3573 -4.12658,-23.6407 -5.4723,-47.6422 -1.48349,-26.4586 -1.89551,-28.2311 -8.63842,-37.162 -3.81976,-5.0593 -5.24639,-10.338 -2.79396,-10.338 1.97065,0 9.64655,8.7073 12.31082,13.965 2.80357,5.5326 4.4677,14.9783 4.49871,25.535 0.0113,3.85 0.91443,16.225 2.00693,27.5 2.42562,25.0333 2.48974,28.6028 0.52738,29.3558 -0.84681,0.325 -1.89482,-0.1965 -2.43916,-1.2136 z m 237.66101,-10.6768 c 2.02008,-0.844 5.94312,-3.2451 8.71788,-5.3357 2.77476,-2.0906 8.64501,-5.8739 13.04501,-8.4074 6.99689,-4.0288 9.31658,-4.8025 18.5,-6.1705 19.27302,-2.8709 37.5234,-10.7722 43.3617,-18.7729 1.66027,-2.2752 1.79684,-3.1355 0.83342,-5.25 -1.34688,-2.9561 -3.92818,-3.2354 -8.42229,-0.9114 -2.919,1.5095 -3.21403,1.4996 -4.41831,-0.1473 -1.91287,-2.616 -0.78502,-3.4702 4.58205,-3.4702 5.28957,0 8.20252,-1.9499 5.86397,-3.9253 -5.19309,-4.3866 -9.38741,-7.0979 -11.18804,-7.2322 -2.72454,-0.2032 -3.249,-0.1601 -15.06888,1.2385 -8.6109,1.0189 -11.31363,0.9413 -20,-0.5742 -19.52723,-3.4068 -22.79529,-5.0458 -25.98283,-13.0307 -1.09253,-2.7368 -2.05987,-5.1078 -2.14963,-5.2688 -0.18422,-0.3303 -37.77261,2.8379 -38.16166,3.2166 -0.13777,0.1341 0.38679,4.4891 1.1657,9.6778 1.50223,10.0071 1.21228,15.171 -1.93144,34.3983 -1.88745,11.5439 -1.32966,19.1549 1.68465,22.987 1.12055,1.4246 4.35357,3.9185 7.18448,5.5422 4.30457,2.4688 6.25729,2.9536 11.92923,2.9614 3.85559,0.01 8.36699,-0.6528 10.45499,-1.5252 z m -4.42329,-28.3894 c -1.7524,-1.0829 -3.6649,-2.8634 -4.25,-3.9567 -1.62608,-3.0384 -1.27842,-10.3679 0.62036,-13.0788 0.92631,-1.3224 2.16818,-4.5535 2.75973,-7.18 0.84143,-3.736 1.38508,-4.5842 2.49764,-3.8966 1.21966,0.7538 1.15782,2.3193 -0.4344,10.9971 -1.75214,9.5495 -1.7603,10.2144 -0.14509,11.8286 1.07306,1.0725 3.28295,1.7104 5.92468,1.7104 3.82748,0 4.21326,0.2289 4.21326,2.5 0,2.2046 -0.47264,2.5322 -4,2.7724 -2.62422,0.1788 -5.09587,-0.4048 -7.18618,-1.6964 z m 73.68618,-25.5064 c 0,-1.021 0.90283,-1.5696 2.58333,-1.5696 3.13272,0 2.78984,2.3485 -0.41166,2.8196 -1.44221,0.2122 -2.17167,-0.2077 -2.17167,-1.25 z m -260.28449,-7.3196 c 2.05476,-3.1625 6.33436,-8.5789 9.51021,-12.0366 3.44543,-3.7511 5.77428,-7.1906 5.77428,-8.5282 0,-3.354 -6.11177,-15.3805 -11.27432,-22.1852 -7.31882,-9.6468 -15.46114,-14.962 -25.85228,-16.8762 -4.91146,-0.9048 -7.29802,0.175 -17.87536,8.0876 l -9.07475,6.7886 7.90419,0.529 c 9.39893,0.629 12.33039,2.4416 19.71233,12.1888 5.39308,7.121 8.71797,13.9811 13.58412,28.0274 1.85684,5.3598 3.48398,9.7473 3.61586,9.75 0.13188,0 1.92095,-2.5827 3.97572,-5.7452 z m 87.28449,-13.3508 c 35.475,-2.845 64.79992,-5.4488 65.1665,-5.786 1.82025,-1.6746 -5.52963,-30.3393 -10.67001,-41.6132 -4.43272,-9.7219 -6.21317,-15.6647 -7.57431,-25.2817 -1.831,-12.9367 -0.0955,-33.3321 4.01324,-47.1626 1.66378,-5.6005 3.31311,-10.6488 3.66518,-11.2184 0.80879,-1.3087 4.26449,-23.8373 3.65643,-23.8373 -0.24757,0 -2.45845,1.7678 -4.91305,3.9285 -2.45461,2.1606 -7.05431,5.6063 -10.22156,7.657 -4.85367,3.1427 -6.34458,4.8669 -9.48731,10.9719 -2.05078,3.9838 -10.01552,17.5256 -17.69943,30.093 -15.70817,25.6913 -16.42171,26.4951 -38.07028,42.8852 -17.60557,13.3291 -24.20155,19.4816 -32.66079,30.4644 -3.60078,4.675 -8.06244,10.112 -9.9148,12.0822 -3.05031,3.2443 -3.26471,3.8537 -2.27341,6.461 1.42596,3.7505 0.54094,7.0984 -3.07926,11.6482 -1.61543,2.0302 -2.93714,3.9938 -2.93714,4.3635 0,0.3697 1.9125,0.4123 4.25,0.095 2.3375,-0.3176 33.275,-2.9053 68.75,-5.7503 z m 90.5,-7.4065 c 9.35,-0.8064 17.61572,-1.4722 18.36828,-1.4795 1.10108,-0.011 1.23671,-1.6242 0.69453,-8.2632 -0.53287,-6.5249 -0.22279,-10.4455 1.4829,-18.75 3.23129,-15.732 3.52017,-34.3081 1.04969,-67.5 -1.14623,-15.4 -2.5366,-29.572 -3.08972,-31.4934 -1.1495,-3.9929 -1.32412,-9.3548 -0.33683,-10.3421 0.36787,-0.3679 1.45938,0.047 2.42558,0.921 3.12472,2.8278 3.53719,-5.6979 0.98285,-20.3155 -1.79755,-10.28684 -2.06935,-14.56014 -1.53506,-24.13504 0.35708,-6.3992 0.26866,-12.6139 -0.19649,-13.8105 -0.77057,-1.9821 -1.46786,-1.4149 -7.84573,6.3825 -5.11276,6.2507 -9.29165,10.0928 -15.5,14.2506 -4.675,3.1309 -11.27527,7.5836 -14.66726,9.895 l -6.16725,4.20244 -0.57056,7.7225 c -1.09573,14.8307 -2.54669,22.7809 -5.60699,30.7225 -7.10439,18.4362 -9.39378,37.4127 -6.55894,54.3663 2.01131,12.0285 3.87499,17.782 9.2751,28.6337 3.34865,6.7293 4.32981,10.2238 6.17694,22 2.69825,17.2025 2.97234,18.5052 3.88801,18.4795 0.40202,-0.011 8.38095,-0.6803 17.73095,-1.4868 z m -11.75,-32.182 c -0.9625,-0.2515 -1.75,-1.0993 -1.75,-1.884 0,-1.0804 1.48806,-1.4267 6.13192,-1.4267 5.74911,0 6.34467,-0.2255 9.53967,-3.6132 1.87425,-1.9873 5.06073,-6.4873 7.08107,-10 4.01288,-6.9771 6.24734,-8.1707 6.24734,-3.3371 0,5.6356 -5.24282,13.4155 -12.26508,18.2003 -3.92616,2.6753 -9.63113,3.4598 -14.98492,2.0607 z m 10.57103,-90.9165 c -0.33891,-0.8831 0.35477,-4.3706 1.54151,-7.75 1.18674,-3.3793 2.15315,-8.3006 2.14758,-10.9363 -0.0127,-6.0326 -2.55153,-18.4704 -5.07906,-24.88284 -2.2958,-5.8245 -2.37705,-6.8251 -0.5542,-6.8251 1.42828,0 4.10838,5.5208 7.28184,15.00004 1.42967,4.2705 1.8413,8.55 1.8413,19.1432 0,12.0123 -0.22771,13.895 -1.90499,15.75 -2.27005,2.5106 -4.42431,2.7152 -5.27398,0.501 z m -14.82103,-4.8814 c -6.0048,-2.2578 -8.05378,-4.7025 -4.942,-5.8966 4.22371,-1.6208 14.35357,3.5659 13.14014,6.7281 -0.76329,1.9891 -0.67149,1.9984 -8.19814,-0.8315 z m -142.57363,108.1064 c 3.59119,-5.8107 21.82964,-22.5293 41.04355,-37.6234 22.30781,-17.5246 27.97213,-22.6732 33.55027,-30.4958 4.54807,-6.378 12.22354,-21.2563 19.86686,-38.5105 4.84433,-10.9357 9.30141,-17.5327 10.27007,-15.2008 0.3979,0.9578 1.72983,0.6023 5.18909,-1.3851 8.77809,-5.0432 11.22625,-7.4388 13.8981,-13.5996 2.44602,-5.64004 3.58888,-6.77414 20.1743,-20.01904 9.66976,-7.7222 18.86493,-15.2203 20.43369,-16.6626 2.73527,-2.5148 14.6477,-18.543 14.6477,-19.7086 0,-1.9536 -9.69363,-14.85392 -14.77588,-19.66377 -5.71373,-5.40748 -8.22412,-6.89657 -8.22412,-4.87831 0,1.14195 -8.89711,14.81258 -15.23273,23.40548 -4.01866,5.4504 -5.26804,6.5521 -6.38207,5.6276 -2.20055,-1.8263 -1.74708,-2.9048 5.00551,-11.90477 7.04666,-9.39187 12.38502,-20.87433 10.328,-22.21485 -6.64623,-4.33124 -29.97365,-7.1301 -40.74008,-4.88807 l -5.52137,1.14979 -2.34092,9.13857 c -2.90442,11.33842 -8.25597,27.83943 -10.96658,33.81453 -1.12279,2.475 -6.77189,11.5693 -12.55356,20.2094 -8.11561,12.1281 -9.9508,15.4537 -8.04994,14.5876 2.92511,-1.3328 3.86987,-0.6834 2.99881,2.061 -0.90939,2.8653 -13.85115,10.86504 -36.41877,22.51184 -15.55732,8.0288 -20.82995,11.2924 -25.88683,16.0228 -8.10474,7.5816 -9.47568,10.0406 -18.73681,33.6074 -8.30537,21.1347 -12.83876,30.2125 -21.1392,42.3298 -2.9499,4.3063 -5.36346,8.0188 -5.36346,8.25 0,0.2311 0.69735,0.4202 1.54966,0.4202 4.62144,0 18.98879,11.9225 25.92011,21.5094 2.18337,3.0198 4.28417,5.4906 4.66844,5.4906 0.38427,0 1.63894,-1.5214 2.78816,-3.3808 z m 3.7403,-54.2858 c -0.36667,-0.3667 -0.66667,-1.0367 -0.66667,-1.4889 0,-0.959 10.67874,-6.3742 27.12325,-13.7542 12.1832,-5.4675 14.83202,-7.5744 19.22825,-15.2942 4.05148,-7.1143 9.6485,-10.3001 9.6485,-5.4919 0,7.0629 -16.40222,23.8317 -30.04895,30.7205 -9.25118,4.67 -23.03006,7.563 -25.28438,5.3087 z m 76.33333,-86.2627 c 0,-1.1746 2.24209,-3.63344 5.73182,-6.28594 3.15249,-2.3961 6.30249,-5.5779 7,-7.0707 0.6975,-1.4927 1.84487,-3.9516 2.54972,-5.4641 0.85483,-1.8343 2.18672,-2.8553 4,-3.0664 3.62375,-0.4218 3.54329,1.3955 -0.41808,9.4422 -4.11041,8.3495 -10.54046,14.37424 -15.34112,14.37424 -2.81265,0 -3.52234,-0.3887 -3.52234,-1.9293 z m 109.35349,-59.3359 c 7.44508,-10.11383 10.24534,-17.32017 16.54752,-42.5843 3.31175,-13.27614 7.38159,-27.23757 9.04408,-31.02539 6.15623,-14.02642 16.05491,-42.1641 16.05491,-45.6372 0,-1.97298 -0.6457,-4.83589 -1.4349,-6.36202 -2.50118,-4.83676 -14.03086,-14.67905 -25.48903,-21.75866 -6.09184,-3.76394 -11.07607,-7.18636 -11.07607,-7.60539 0,-1.77352 6.22073,-0.53891 11.63504,2.30919 7.53776,3.96508 20.00781,12.95479 24.85265,17.91635 l 3.79748,3.88897 2.83922,-4.18818 c 1.56157,-2.3035 2.8474,-4.51002 2.85741,-4.90338 0.01,-0.39337 -1.41079,-2.34274 -3.15734,-4.33195 -9.69138,-11.03787 -37.93288,-24.04538 -60.82446,-28.01461 -12.58792,-2.18265 -29.73882,-1.5602 -44.69013,1.62191 -9.46197,2.01381 -11.35096,2.73461 -12.23155,4.6673 -1.03788,2.2779 -1.02189,2.28311 4.69013,1.52912 3.15235,-0.41611 13.15655,-0.73578 22.23155,-0.71037 18.41823,0.0516 24,1.33523 24,5.51935 0,1.85126 -0.40134,2.07534 -2.75,1.53538 -6.21232,-1.4282 -26.27573,-2.74067 -37.13947,-2.42951 -8.65605,0.24792 -12.53132,0.79047 -15.22905,2.13211 -4.51802,2.24691 -18.06438,14.63677 -20.73615,18.96583 -1.09662,1.77685 -3.42526,8.85564 -5.17475,15.73064 -2.83309,11.13328 -3.12728,13.59337 -2.69061,22.5 0.569,11.60561 2.73879,18.81325 11.09235,36.84667 3.01823,6.51567 5.66555,12.02454 5.88295,12.24193 0.73361,0.73362 10.79365,-21.11523 11.37678,-24.70861 0.43187,-2.66134 -0.20697,-5.43003 -2.52703,-10.95194 -2.66729,-6.34834 -4.11056,-13.92805 -2.65207,-13.92805 1.84868,0 5.4563,2.65369 7.33501,5.3955 3.01044,4.39344 6.21204,13.71875 6.21204,18.0938 0,2.36782 -2.19735,7.92007 -6.63886,16.77498 -5.96347,11.88924 -13.36114,28.15792 -13.36114,29.38335 0,0.25872 0.4407,0.19804 0.97933,-0.13486 2.36202,-1.4598 17.0826,-2.28149 25.42001,-1.41891 23.4315,2.4242 44.41384,15.36576 52.94584,32.65614 1.69624,3.43747 3.325,6.24317 3.61945,6.23477 0.29445,-0.01 2.26944,-2.3708 4.38886,-5.24996 z m 55.88009,-183.79817 c 2.19211,-4.76083 6.09885,-10.596 10.54335,-15.74772 8.24825,-9.56074 9.79383,-13.51275 10.63323,-27.18892 0.5427,-8.84212 0.91828,-10.15788 5.42347,-19 5.57228,-10.93653 7.44518,-16.96758 6.98898,-22.50583 l -0.3226,-3.91569 -5.57266,5.46076 c -4.38212,4.29414 -6.17918,7.05118 -8.41175,12.90527 -3.60109,9.44253 -8.35621,14.1978 -20.14798,20.14861 -8.81977,4.45096 -10.65869,6.31993 -11.80296,11.99585 -0.76246,3.78207 -10.26364,17.91103 -12.04447,17.91103 -2.31314,0 -1.87955,-1.33265 2.49767,-7.67675 3.0446,-4.41266 4.16806,-7.15554 4.63792,-11.32325 0.34103,-3.025 1.02665,-6.29278 1.52361,-7.26174 0.49695,-0.96896 5.23272,-3.78478 10.52393,-6.25738 12.20916,-5.70537 15.82162,-9.40567 20.17461,-20.66513 2.61857,-6.77322 4.48059,-9.77598 8.96361,-14.45504 13.03117,-13.60095 15.97097,-15.17034 29.94647,-15.98637 12.2424,-0.71484 45.3223,-6.94753 50.9775,-9.60486 2.346,-1.10238 5.198,-3.31392 6.3378,-4.91453 1.1397,-1.60062 4.2977,-4.03795 7.0177,-5.41629 2.7201,-1.37834 7.4755,-4.12445 10.5676,-6.10245 3.0921,-1.97801 9.812,-5.54108 14.9331,-7.91793 7.9625,-3.69568 9.5191,-4.81947 10.7475,-7.75948 0.7901,-1.89086 3.0015,-5.17512 4.9143,-7.29836 1.9128,-2.12324 5.9188,-7.91044 8.9021,-12.86044 16.7674,-27.82069 18.5191,-29.99851 41.0212,-51 3.6319,-3.38965 5.7496,-6.32565 6.5752,-9.11602 1.6095,-5.43896 1.5112,-15.59169 -0.2697,-27.88398 -0.7969,-5.5 -1.4657,-14.275 -1.4862,-19.5 -0.045,-11.38143 -1.289,-16.63128 -4.1579,-17.54183 -1.1382,-0.36126 -2.4404,-0.27464 -2.8937,0.19249 -0.4533,0.46714 -0.9705,7.93496 -1.1493,16.59515 -0.251,12.15214 -0.6244,15.74677 -1.6361,15.75 -1.0391,0.003 -1.2659,-3.5727 -1.0936,-17.24581 0.1858,-14.75332 -0.059,-18.04604 -1.6891,-22.75 -1.4764,-4.25955 -2.4216,-5.57309 -4.1908,-5.82406 l -2.2845,-0.32407 0.213,15.32407 c 0.3261,23.46949 -0.058,31.31138 -1.4644,29.89728 -0.8351,-0.83965 -1.0989,-6.06226 -0.903,-17.87966 0.3842,-23.1729 -1.9682,-34.43123 -6.2909,-30.10766 -1.1231,1.12335 -1.4682,6.29725 -1.6783,25.1641 -0.1454,13.0625 -0.584,23.75 -0.9747,23.75 -0.7401,0 -2.1223,-7.66425 -2.1642,-12 -0.013,-1.375 0.3392,-6.39358 0.7832,-11.1524 0.4441,-4.75882 0.4911,-10.33836 0.1045,-12.39897 -0.6899,-3.67789 -0.7375,-3.71175 -2.5941,-1.84759 -1.6686,1.67543 -1.9048,3.60577 -2.0065,16.39896 -0.063,7.975 0.3822,18.72592 0.9902,23.89094 0.6081,5.16501 0.8816,9.61492 0.6078,9.88868 -0.7088,0.70877 -2.5537,-4.47697 -2.5537,-7.17794 0,-4.31056 -2.2768,-14.10668 -3.6123,-15.54216 -2.245,-2.41315 -2.7861,-0.35929 -1.6322,6.1957 0.6046,3.43463 0.867,8.49478 0.5832,11.24478 -0.3885,3.76422 0.017,6.23364 1.6405,9.99132 1.1861,2.74522 2.7507,7.53787 3.4768,10.65033 1.2626,5.41243 1.2135,5.83774 -1.1256,9.76027 -1.624,2.7234 -6.5418,7.16019 -14.638,13.20645 -13.1575,9.82595 -15.3757,11.11679 -26.5136,15.42896 -5.8727,2.27371 -8.6963,4.17726 -14.2718,9.6216 l -6.9506,6.7871 -8.8568,1.53669 c -10.7325,1.86212 -13.0633,2.64568 -22.6934,7.62904 -8.6271,4.46433 -11.7095,4.73877 -19.9997,1.78063 -7.3535,-2.62393 -24.2827,-3.68594 -31.8305,-1.99681 -2.86821,0.64187 -8.30101,2.97046 -12.07291,5.17463 -3.7719,2.20417 -7.45315,3.7792 -8.18055,3.50007 -1.58886,-0.6097 -1.74261,-3.75022 -0.25636,-5.23647 0.75492,-0.75492 -0.20238,-1.80962 -3.27901,-3.61264 -2.38986,-1.40055 -6.84247,-4.60235 -9.8947,-7.11511 -3.05222,-2.51276 -8.43917,-5.65487 -11.97099,-6.98246 -8.19574,-3.08075 -10.21412,-5.70132 -10.69384,-13.88437 -0.41123,-7.01463 0.76017,-13.90184 2.46088,-14.46874 0.79243,-0.26414 1.08999,2.45204 0.997,9.10077 -0.14926,10.67131 0.7076,12.49311 6.7479,14.34693 l 3.42472,1.05107 3.5651,-5.77593 c 1.96081,-3.17676 5.20598,-7.21663 7.2115,-8.9775 2.99689,-2.6313 4.20024,-3.09274 6.75582,-2.59061 9.25662,1.81879 12.11568,1.79518 14.48027,-0.11955 2.04108,-1.65276 2.33808,-2.73575 2.26056,-8.24278 -0.0491,-3.48701 0.57627,-11.081 1.38968,-16.87552 1.74479,-12.42954 1.92318,-30.41154 0.38444,-38.75371 -1.52171,-8.24982 -5.54231,-15.94398 -10.70731,-20.49039 -2.40774,-2.11938 -8.49996,-5.87205 -13.53827,-8.33926 -13.98195,-6.84685 -24.08972,-7.84901 -38.96816,-3.8636 -4.75846,1.27462 -6.94726,2.65865 -12.11041,7.6577 -3.4662,3.35604 -7.23307,7.93387 -8.37082,10.17297 -1.13775,2.23909 -3.2147,9.94878 -4.61544,17.13264 -2.79249,14.32165 -2.61211,16.56804 2.339,29.1291 2.83711,7.19781 2.6223,10.36532 -1.51369,22.3204 -6.36984,18.41203 -7.8257,21.00657 -13.61263,24.25956 -2.82181,1.58622 -6.74544,4.33725 -8.71918,6.11341 -1.97373,1.77617 -6.2233,4.05644 -9.44347,5.06728 -7.61228,2.38955 -12.65906,7.91562 -15.73922,17.23398 -1.21308,3.6699 -4.1457,10.04755 -6.51695,14.17255 -6.82144,11.86654 -8.11366,22.20544 -4.31323,34.50979 1.93153,6.25356 2.00256,7.66772 1.0224,20.35533 -1.09472,14.17075 -0.70428,19.52879 2.4593,33.74848 2.34956,10.5608 1.50043,31.63097 -2.04613,50.77231 -1.41505,7.63725 -2.41736,14.04137 -2.22735,14.23139 0.19001,0.19001 4.59135,-0.32584 9.78076,-1.14634 15.75213,-2.49056 14.63923,-1.96381 15.37526,-7.27733 0.35759,-2.5815 1.85317,-10.99363 3.3235,-18.69363 2.55895,-13.40096 2.67503,-15.43341 2.713,-47.5 l 0.0397,-33.5 3.17255,-12 c 5.72852,-21.66781 8.35554,-28.78321 14.46939,-39.19101 8.07216,-13.74148 12.04185,-23.43176 12.82595,-31.30899 0.63362,-6.36547 0.67332,-6.43791 1.91801,-3.5 1.55667,3.67429 0.76292,12.26923 -1.82225,19.73179 -1.00376,2.89752 -5.19789,10.77282 -9.32031,17.50068 -8.22154,13.41772 -12.3828,24.26844 -15.44262,40.26753 -1.55915,8.15244 -1.78262,14.03916 -1.57543,41.5 0.22783,30.19705 0.1062,32.70428 -2.15878,44.5 -1.32012,6.875 -2.6919,14.75 -3.0484,17.5 -0.3565,2.75 -0.85879,5.72737 -1.1162,6.61637 -0.40827,1.41004 1.16271,1.68336 12.30696,2.1412 14.27588,0.58649 24.80137,3.1529 38.0662,9.28163 4.11974,1.90344 7.59865,3.4608 7.7309,3.4608 0.13225,0 0.76747,-2.09298 1.4116,-4.65106 1.4074,-5.58927 3.57548,-10.05632 6.35757,-13.09894 4.14958,-4.53817 5.15459,-1.46944 1.35327,4.13212 -2.51545,3.70673 -5.43915,15.85302 -3.93649,16.3539 0.49216,0.16406 4.92168,2.90969 9.84338,6.10142 l 8.94855,5.80313 4.12553,-12.07028 c 2.26904,-6.63866 5.69266,-15.4738 7.60805,-19.63365 z m -69.81655,-2.29226 c -0.28611,-0.74559 0.40302,-4.88034 1.53139,-9.18833 3.34881,-12.7854 2.70822,-17.13478 -3.61465,-24.54222 -3.51794,-4.12137 -4.3763,-5.84351 -4.13644,-8.299 0.47604,-4.87323 3.44042,-4.67386 4.78562,0.32186 0.65273,2.42403 2.69128,5.6436 5.05542,7.98423 3.73813,3.70096 3.96163,4.26021 3.96163,9.91269 0,6.6556 -2.29183,19.97464 -3.97977,23.12859 -1.25528,2.34551 -2.84912,2.64727 -3.6032,0.68218 z m -44.99939,-12.99841 c -0.35636,-0.92866 -0.46227,-4.60407 -0.23537,-8.16759 0.36918,-5.79777 0.78847,-6.87344 3.98714,-10.22875 1.96601,-2.0623 5.16984,-6.28749 7.1196,-9.38933 4.57333,-7.27559 5.71099,-7.95034 5.71099,-3.3872 0,5.01521 -2.16785,9.66881 -6.89129,14.79314 -2.88578,3.1307 -4.48164,6.06796 -5.5727,10.25683 -1.7241,6.61925 -3.12734,8.70549 -4.11837,6.1229 z m 44.60432,-56.82265 c 0.0625,-6.61074 5.46471,-13.89608 20.20063,-27.24222 12.20342,-11.05249 13.08906,-12.67667 13.78887,-25.28764 0.45552,-8.2086 0.98086,-10.80721 2.63297,-13.02405 2.67279,-3.58641 9.0306,-5.90039 20.0234,-7.28767 9.47628,-1.1959 19.07998,-3.55243 21.03837,-5.16235 1.73784,-1.42862 3.70277,-0.0171 2.31087,1.66004 -2.14447,2.58394 -10.86614,5.45397 -20.09759,6.61349 -16.08953,2.02095 -19.01061,4.65963 -20.37704,18.40708 -1.11738,11.24169 -3.82889,15.84803 -16.88282,28.68069 -6.93541,6.81784 -13.07815,13.90423 -15.44643,17.81931 -4.15282,6.86517 -7.23004,8.92914 -7.19123,4.82332 z m 48.97804,-22.32332 c 0,-1.06568 1.08581,-1.50161 3.75,-1.50558 13.581,-0.0202 22.25,-7.73157 22.25,-19.79215 0,-5.0829 2.0906,-9.20227 4.6702,-9.20227 1.21788,0 1.42078,0.70754 0.93203,3.25 -0.34362,1.7875 -1.00008,6.41201 -1.4588,10.27669 -0.96124,8.09837 -1.92911,10.27374 -6.15194,13.82702 -3.93714,3.31288 -8.84461,4.63378 -17.24149,4.64071 -5.33581,0.004 -6.75,-0.30868 -6.75,-1.49442 z m -85.33333,-20.16667 c -1.42325,-1.42325 -0.55336,-7.6628 1.87152,-13.42406 l 2.53818,-6.03046 -4.50656,-5.01239 c -4.73699,-5.26867 -6.52512,-10.41042 -4.89269,-14.06883 0.82553,-1.8501 1.05558,-1.63311 2.15342,2.03115 0.85957,2.86897 2.72361,5.36269 6.19931,8.29344 5.97571,5.03879 6.15109,6.55523 1.80128,15.57428 -2.69551,5.58897 -3.0105,6.98998 -2.10873,9.37906 0.58308,1.54473 0.80907,3.05968 0.5022,3.36655 -0.76301,0.763 -2.74682,0.70238 -3.55793,-0.10874 z m 154.33334,-1.22809 c -3.4075,-0.94785 -3.148,-3.231 0.5,-4.39951 6.044,-1.93599 19.8004,-13.736 28.7646,-24.67389 7.7914,-9.50682 9.7354,-10.97973 9.7354,-7.37623 0,4.43419 -23.867,30.94906 -32.458,36.05895 -2.274,1.35257 -2.9408,1.39239 -6.542,0.39068 z m -25.33334,-7.77191 c -1.23742,-1.23742 -0.66577,-9.81143 0.84763,-12.71332 1.42532,-2.73301 1.34846,-3.11175 -1.50616,-7.42144 -2.93796,-4.43551 -3.98765,-9.19857 -2.02719,-9.19857 0.53952,0 1.25502,1.092 1.59,2.42668 0.33498,1.33467 2.36856,3.59105 4.51905,5.01418 4.58951,3.03718 4.87611,5.04664 1.44183,10.10738 -2.04397,3.01195 -2.36435,4.39454 -1.86408,8.0444 0.47755,3.48411 0.29632,4.40736 -0.86516,4.40736 -0.80809,0 -1.76926,-0.3 -2.13592,-0.66667 z m 80.79514,-6.0144 c -1.2553,-1.2553 -1.5546,-2.80354 -1.1816,-6.1129 1.0785,-9.56848 10.7814,-18.15685 25.8534,-22.88378 8.0811,-2.53439 9.0559,-3.10274 9.5576,-5.57225 0.3074,-1.5125 0.926,-2.75 1.3748,-2.75 1.6895,0 2.0847,2.22186 0.9028,5.07531 -1.1843,2.85919 -7.4519,6.47777 -18.9688,10.95161 -8.8279,3.42928 -13.4994,8.69427 -12.8415,14.47308 0.3072,2.69854 0.6624,2.97527 3.5349,2.75387 3.945,-0.30406 5.0663,1.24922 2.7496,3.80914 -2.2277,2.46152 -8.6265,2.61065 -10.9812,0.25592 z m 35.0327,-11.32788 c -1.0782,-1.74455 0.4749,-4.757 4.0881,-7.92946 3.8846,-3.41073 5.2121,-3.7602 6.0444,-1.59128 0.3276,0.8537 -1.0485,3.35618 -3.2814,5.96721 -3.8463,4.49771 -5.6798,5.44872 -6.8511,3.55353 z m 9.5055,-34.08829 c 0,-0.60348 2.2147,-3.08847 4.9216,-5.52219 5.0814,-4.56864 10.0784,-13.03554 10.0784,-17.07691 0,-1.38103 0.6008,-2.30366 1.5,-2.30366 2.2417,0 1.8603,4.07882 -1.0644,11.38472 -3.4158,8.53237 -8.6239,14.61528 -12.5135,14.61528 -1.6072,0 -2.9221,-0.49376 -2.9221,-1.09724 z M 960.55798,550.08103 c -4.66686,-1.84029 -9.0695,-4.22597 -9.78364,-5.30153 -1.68622,-2.53958 -2.11837,-15.73439 -0.56617,-17.28659 2.11171,-2.11171 3.33502,0.10461 3.33502,6.04221 0,3.22256 0.28199,6.59404 0.62664,7.49218 0.34465,0.89815 3.60715,3.13407 7.25,4.96872 3.64285,1.83465 7.74836,4.27164 9.12336,5.41553 2.29242,1.90711 2.33394,2.07713 0.5,2.04763 -1.1,-0.0177 -5.81834,-1.53786 -10.48521,-3.37815 z m 33.43109,38.48667 c 3.7438,-1.36322 9.29913,-2.34455 15.00003,-2.6497 12.8858,-0.68973 13.2686,-0.83599 19.723,-7.53544 4.7623,-4.94312 5.8311,-5.65777 5.8311,-3.8991 0,1.18433 -1.5779,4.4963 -3.5063,7.35993 l -3.5064,5.2066 5.9121,1.86299 5.912,1.863 7.8443,-2.98468 c 4.3144,-1.64158 10.3193,-3.77053 13.3443,-4.73101 5.0856,-1.61474 7.1953,-3.45665 28,-24.44527 21.3027,-21.49105 22.8725,-22.85023 29.5,-25.54179 8.8913,-3.61094 9.3208,-3.96794 10.063,-8.36582 0.3388,-2.00724 1.4721,-6.81522 2.5184,-10.6844 1.4697,-5.43485 1.6768,-7.8215 0.9105,-10.4934 -1.4542,-5.0704 -1.2117,-12.86872 0.5887,-18.93135 1.743,-5.86932 0.9291,-7.52707 -2.9913,-6.09252 -3.1171,1.14061 -4.8304,8.80308 -4.1133,18.39589 0.4586,6.13401 0.3072,7.74725 -0.6948,7.40107 -0.9608,-0.33198 -1.2325,-3.44289 -1.0864,-12.44153 0.174,-10.71784 0.5744,-13.17296 3.75,-22.99614 3.7858,-11.71047 4.1621,-14.30469 2.52,-17.37288 -1.7604,-3.28941 -3.6604,-2.20154 -4.9177,2.81574 -0.6547,2.6125 -2.7866,8.35 -4.7377,12.75 -2.8255,6.37204 -3.6504,9.67883 -4.0538,16.25 -0.5283,8.60725 -1.594,10.59015 -2.6542,4.93873 -0.8831,-4.70732 0.8381,-12.58239 4.9315,-22.56351 3.782,-9.22171 5.4783,-17.12522 3.6756,-17.12522 -1.9018,0 -4.8007,4.66298 -9.7506,15.68441 -4.5241,10.07332 -4.8861,11.48472 -5.274,20.56559 -0.2291,5.3625 -0.8142,9.75 -1.3002,9.75 -1.1674,0 -1.1432,-19.21089 0.028,-22.1849 0.5014,-1.27331 2.1184,-5.01032 3.5932,-8.30448 2.3344,-5.21367 2.4252,-5.75726 0.7012,-4.19713 -4.3557,3.94186 -9.9818,20.38384 -10.4148,30.43651 -0.1244,2.8875 -0.6449,5.25 -1.1567,5.25 -0.9385,0 -0.2522,-15.14913 0.9061,-20 1.3617,-5.70275 -1.5115,0.92024 -3.4784,8.01809 -1.781,6.42673 -1.9645,9.06939 -1.4017,20.1883 0.4772,9.42878 0.986,12.79361 1.9345,12.79361 2.465,0 2.4012,1.85096 -0.1689,4.90545 -4.3491,5.16861 -18.0578,13.35893 -36.2786,21.67491 -13.2158,6.03167 -18.6392,9.07592 -22.75,12.76998 -5.8066,5.21797 -6.5381,6.64966 -3.3975,6.64966 2.9627,0 2.4248,1.74881 -0.75,2.43838 -1.5125,0.32851 -7.925,0.51445 -14.25,0.41321 -10.8543,-0.17374 -12.0909,0.0192 -22.02337,3.43702 -5.78784,1.9916 -15.23784,4.38195 -21,5.31189 -5.76215,0.92993 -10.80483,1.97594 -11.20596,2.32447 -1.75477,1.52464 19.3983,15.49496 22.22932,14.68111 0.825,-0.23716 4.17565,-1.40549 7.44588,-2.59627 z"
       id="path4295"
       inkscape:connector-curvature="0" />
  </g>
</svg>
