<?xml version="1.0" encoding="UTF-8" standalone="no"?>
<!-- Created with Inkscape (http://www.inkscape.org/) -->

<svg
   xmlns:dc="http://purl.org/dc/elements/1.1/"
   xmlns:cc="http://creativecommons.org/ns#"
   xmlns:rdf="http://www.w3.org/1999/02/22-rdf-syntax-ns#"
   xmlns:svg="http://www.w3.org/2000/svg"
   xmlns="http://www.w3.org/2000/svg"
   xmlns:sodipodi="http://sodipodi.sourceforge.net/DTD/sodipodi-0.dtd"
   xmlns:inkscape="http://www.inkscape.org/namespaces/inkscape"
   width="176.48874"
   height="247.7744"
   id="svg2"
   version="1.1"
   inkscape:version="0.48.3.1 r9886"
   sodipodi:docname="One-arm-side-deadlift-1.svg">
  <defs
     id="defs4" />
  <sodipodi:namedview
     id="base"
     pagecolor="#ffffff"
     bordercolor="#666666"
     borderopacity="1.0"
     inkscape:pageopacity="0.0"
     inkscape:pageshadow="2"
     inkscape:zoom="1.979899"
     inkscape:cx="68.482975"
     inkscape:cy="67.633245"
     inkscape:document-units="px"
     inkscape:current-layer="layer1"
     showgrid="false"
     fit-margin-top="0"
     fit-margin-left="0"
     fit-margin-right="0"
     fit-margin-bottom="0"
     inkscape:window-width="1855"
     inkscape:window-height="1056"
     inkscape:window-x="65"
     inkscape:window-y="24"
     inkscape:window-maximized="1" />
  <metadata
     id="metadata7">
    <rdf:RDF>
      <cc:Work
         rdf:about="">
        <dc:format>image/svg+xml</dc:format>
        <dc:type
           rdf:resource="http://purl.org/dc/dcmitype/StillImage" />
        <dc:title></dc:title>
      </cc:Work>
    </rdf:RDF>
  </metadata>
  <g
     inkscape:label="Ebene 1"
     inkscape:groupmode="layer"
     id="layer1"
     transform="translate(-1135.2006,-1042.2417)">
    <path
       style="fill:#000000"
       d=""
       id="path3414"
       inkscape:connector-curvature="0" />
    <path
       style="fill:#000000"
       d=""
       id="path3412"
       inkscape:connector-curvature="0" />
    <path
       style="fill:#000000"
       d="m 1215.7844,1286.8875 c -1.925,-1.2421 -5.7167,-4.3565 -8.4259,-6.9207 l -4.9259,-4.6624 1.2301,-5.798 c 2.2767,-10.7314 2.3745,-12.5268 1.1644,-21.3815 -0.6706,-4.9074 -0.8483,-9.8452 -0.4002,-11.1213 0.8761,-2.4952 1.4358,1.0665 2.9232,18.6011 0.6054,7.1378 0.4758,9.1145 -0.6556,10 -0.7755,0.6071 -1.4901,2.0037 -1.5879,3.1037 -0.098,1.1 -0.4187,3.211 -0.7132,4.6912 -0.4493,2.2581 0.022,3.0356 2.9278,4.8315 1.9047,1.1772 3.4632,2.5321 3.4632,3.0108 0,0.4787 2.066,2.2919 4.5911,4.0292 4.2121,2.898 5.1169,3.1252 10.9616,2.7531 3.5038,-0.2232 6.6734,-0.7085 7.0435,-1.0787 1.0275,-1.0275 -1.6377,-6.6889 -3.6578,-7.7701 -2.2172,-1.1866 -10.4771,-11.9384 -11.3962,-14.8341 -0.3723,-1.1731 -1.1005,-2.1329 -1.6181,-2.1329 -0.5834,0 -0.5788,-0.665 0.012,-1.75 1.3338,-2.4487 3.1883,-14.9066 3.982,-26.75 0.3968,-5.9222 1.3112,-11.2233 2.2423,-13 2.899,-5.5319 3.1222,-9.8707 0.6684,-12.9903 l -2.2034,-2.8011 2.6262,1.7207 2.6262,1.7208 1.5919,-5.3251 c 1.0666,-3.568 1.3852,-7.0049 0.9656,-10.4164 -0.6077,-4.9404 -0.5286,-5.1532 2.6693,-7.178 2.3578,-1.4929 3.7891,-1.8226 5.0297,-1.1586 0.9537,0.5104 3.4511,0.8883 5.5498,0.8397 2.8371,-0.066 0.7836,-0.8624 -8.0064,-3.1066 l -11.822,-3.0183 -2.265,2.1278 c -2.1476,2.0176 -2.5454,2.0571 -7.6779,0.7626 -4.1022,-1.0347 -5.8973,-2.0995 -7.413,-4.3972 -1.7539,-2.6589 -3.1689,-3.3012 -11.5,-5.2208 -20.864,-4.8072 -27,-6.4178 -27,-7.087 0,-0.3849 6.6991,0.9793 14.8868,3.0315 20.1988,5.0627 22.1132,5.3882 22.1132,3.7608 0,-1.4314 -34.4687,-10.2109 -36.1088,-9.1972 -0.4902,0.3029 -0.8912,0.074 -0.8912,-0.5083 0,-1.5578 0.9352,-1.416 19.4284,2.9471 9.3107,2.1967 17.089,3.9939 17.2852,3.9939 0.1962,0 -0.052,-0.7875 -0.5523,-1.75 -1.8051,-3.4748 -3.1233,-27.4369 -2.1317,-38.75 0.1928,-2.2 -0.4353,-6.81 -1.3959,-10.2444 -1.6358,-5.8485 -1.6421,-6.6092 -0.1,-12 1.6657,-5.8229 2.2494,-9.3991 2.3893,-14.6375 0.1033,-3.8672 5.1403,-8.4973 14.325,-13.1678 3.9886,-2.0282 7.5496,-4.1587 7.9133,-4.7345 0.3637,-0.5757 0.955,-3.0059 1.3141,-5.4006 0.3591,-2.3946 1.0141,-4.1307 1.4554,-3.858 0.4413,0.2728 0.3288,2.5658 -0.2501,5.0955 -0.8277,3.617 -0.7707,4.7736 0.2665,5.4147 0.925,0.5716 0.4439,1.0074 -1.6102,1.4586 -4.2768,0.9393 -15.4982,6.8921 -18.8529,10.0012 -2.4948,2.312 -2.9533,3.5779 -3.3068,9.1285 -0.2256,3.5444 -0.8079,6.4443 -1.2938,6.4443 -0.4859,0 -0.8835,1.0957 -0.8835,2.4349 0,1.3392 -0.4575,3.6383 -1.0167,5.1091 -0.7659,2.0143 -0.5875,4.066 0.7227,8.3151 0.9568,3.1025 2.0551,5.8713 2.4408,6.153 0.3857,0.2816 0.068,3.2066 -0.7072,6.5 -1.6939,7.202 -1.8304,14.7454 -0.3525,19.4945 0.5978,1.9214 1.239,6.1934 1.4247,9.4934 0.3544,6.2982 1.965,15.8444 2.939,17.4204 0.3147,0.5091 2.0229,1.2444 3.796,1.6338 1.7731,0.3895 4.2013,1.3485 5.3959,2.1313 2.7566,1.8061 3.8932,0.3136 3.4733,-4.5609 -0.2602,-3.0194 -0.057,-3.3425 1.7953,-2.858 3.6386,0.9515 2.4116,-2.3231 -2.7261,-7.2751 -4.7656,-4.5935 -4.8127,-4.7013 -4.6143,-10.5662 0.1103,-3.2589 0.6455,-8.4003 1.1894,-11.4253 1.1794,-6.5601 0.5372,-12 -1.4168,-12 -1.1238,0 -1.0582,-0.6315 0.3378,-3.25 1.6141,-3.0277 3.5036,-15.7425 2.3414,-15.7562 -0.2875,0 -0.5694,-2.2775 -0.6264,-5.0537 -0.1639,-7.9742 1.4631,-4.2904 2.1692,4.9116 0.5008,6.5272 0.2794,9.2659 -1.0254,12.6824 -1.329,3.48 -1.4514,5.1234 -0.6077,8.1616 1.4297,5.1483 1.3371,8.8494 -0.3867,15.4677 -1.8847,7.2356 -0.8059,11.2001 4.4419,16.3245 2.3623,2.3068 4.0124,4.8548 4.0124,6.196 0,1.5415 0.7274,2.4462 2.25,2.7984 1.2375,0.2862 11.84,2.7793 23.5612,5.5402 11.7211,2.761 21.7336,4.7588 22.25,4.4397 0.5163,-0.3191 0.9388,-1.3016 0.9388,-2.1834 0,-2.4256 4.7929,-10.0976 7.0694,-11.316 2.0234,-1.0828 9.3169,-0.478 13.6327,1.1305 1.2112,0.4514 2.8987,2.1678 3.75,3.8141 2.2684,4.3865 1.8879,4.892 -0.7456,0.9905 -1.2614,-1.8688 -2.9489,-3.4414 -3.75,-3.4945 -0.8011,-0.053 -2.3146,-0.4659 -3.3633,-0.9172 -4.2491,-1.8284 -9.735,4.207 -12.2284,13.4532 -0.6764,2.5084 -1.2602,3.6283 -1.2973,2.4887 -0.1191,-3.6568 3.0299,-11.3209 5.925,-14.42 1.9181,-2.0534 2.3408,-3.0081 1.3318,-3.0081 -2.5201,0 -7.0274,5.3957 -8.8914,10.6439 l -1.7794,5.01 -12.0768,-2.8297 c -6.6422,-1.5563 -17.0267,-4.0178 -23.0767,-5.47 -15.2798,-3.6676 -16.8449,-3.8888 -16.3171,-2.3056 0.2533,0.7602 6.096,2.6578 13.8774,4.5074 7.3918,1.7569 18.7272,4.4486 25.1897,5.9814 l 11.75,2.787 -0.1681,4.0878 -0.1681,4.0878 -0.3812,-3.5651 -0.3813,-3.565 -9.7006,-2.3877 c -6.3239,-1.5566 -12.7463,-2.4042 -18.4497,-2.435 -8.4757,-0.046 -8.749,0.025 -8.75,2.2525 -5e-4,1.2648 0.6767,3.6102 1.5051,5.2121 0.8283,1.6018 2.3827,6.5829 3.4542,11.069 1.0715,4.4861 2.8123,9.9032 3.8685,12.0379 2.077,4.1981 1.2562,5.2684 -1.2721,1.6588 -1.523,-2.1744 -1.5567,-2.1383 -1.5567,1.6681 0,2.1398 -0.4977,6.7488 -1.1061,10.2422 -0.841,4.8293 -0.8203,6.6959 0.086,7.7881 0.6557,0.7901 0.9019,1.9062 0.5471,2.4803 -0.3548,0.5741 -0.2495,1.0438 0.2341,1.0438 1.0465,0 3.0626,15.7362 2.1497,16.7788 -1.4837,1.6945 -4.1652,11.116 -3.5903,12.6144 0.7295,1.9009 4.6896,3.6068 8.3728,3.6068 1.4097,0 4.9038,1.3392 7.7646,2.976 5.8292,3.3351 11.9727,3.809 14.6396,1.1293 1.4646,-1.4715 1.2562,-1.9386 -2.5,-5.6053 -2.2537,-2.2 -6.3426,-6.475 -9.0866,-9.5 l -4.989,-5.5 -0.1208,-19 c -0.066,-10.45 -0.2565,-19.45 -0.4224,-20 -0.166,-0.55 0.2619,-2.35 0.9509,-4 1.4831,-3.5519 0.7307,-12.4637 -1.1533,-13.6593 -0.9275,-0.5887 -0.9485,-0.8143 -0.077,-0.8254 0.6661,-0.01 1.7313,-2.7173 2.3948,-6.09 0.6574,-3.3411 1.5155,-5.5565 1.9069,-4.9231 0.6906,1.1173 -0.42,9.2482 -1.5024,10.9996 -0.2951,0.4774 -0.075,2.9288 0.4897,5.4475 0.7974,3.5582 0.7065,5.3446 -0.4078,8.0114 -1.0068,2.4096 -1.2635,5.459 -0.8618,10.2357 0.6064,7.2104 0.719,16.4144 0.3221,26.3287 -0.2355,5.8849 -0.1283,6.1585 4.6038,11.75 2.6648,3.1487 6.7598,7.5834 9.1,9.855 2.3403,2.2715 4.2551,4.8039 4.2551,5.6275 0,2.6274 -3.0332,4.1386 -8.4121,4.1913 -4.0257,0.039 -6.1416,-0.5531 -9.2008,-2.576 -2.1851,-1.4449 -5.8528,-2.9447 -8.1506,-3.3329 -5.11,-0.8634 -9.2417,-3.9381 -9.2215,-6.8626 0.015,-2.227 1.9084,-8.2548 3.2463,-10.3372 0.4099,-0.6379 -0.1804,-5.8129 -1.3118,-11.5 -1.9808,-9.9572 -2.1124,-21.9829 -0.3397,-31.0447 0.291,-1.4875 -0.1942,-5.5375 -1.0782,-9 -2.7716,-10.8564 -5.6543,-20.0062 -6.1475,-19.513 -0.2607,0.2607 -0.5942,3.5663 -0.741,7.3458 -0.2607,6.7099 -2.1672,15.8033 -5.4242,25.8717 -0.8896,2.75 -1.9387,8.6 -2.3314,13 -0.3927,4.4 -1.4429,12.4829 -2.3337,17.9619 -1.5276,9.3962 -1.3736,15.5381 0.3897,15.5381 0.4315,0 2.0832,1.8887 3.6705,4.1971 1.5873,2.3084 4.8162,6.1929 7.1753,8.6322 2.3591,2.4393 4.1235,4.9381 3.921,5.5529 -1.3381,4.0619 -14.1218,4.9031 -19.7103,1.2969 z m 1.0789,-9.2624 c 0.048,-1.165 0.285,-1.4019 0.6042,-0.6042 0.2889,0.7219 0.2534,1.5844 -0.079,1.9167 -0.3323,0.3323 -0.5687,-0.2584 -0.5253,-1.3125 z m -1.8525,-5.667 c -1.7026,-4.7085 -1.4665,-5.9835 0.3379,-1.8251 0.8173,1.8835 1.3516,3.8278 1.1873,4.3207 -0.1643,0.4928 -0.8506,-0.6302 -1.5252,-2.4956 z m -7.1985,-1.2161 c -0.6693,-0.8065 -1.0415,-1.9929 -0.8269,-2.6365 0.2145,-0.6436 1.1674,0.016 2.1176,1.4664 1.8152,2.7704 0.8008,3.6902 -1.2907,1.1701 z m 44.7316,-3.5715 c -3.5413,-5.1198 -2.8272,-5.098 1.2405,0.038 1.7424,2.2 2.7928,3.9829 2.334,3.962 -0.4587,-0.021 -2.0672,-1.8209 -3.5745,-4 z m -8.7689,0.7879 c -2.1547,-3.2525 -3.056,-5.75 -2.075,-5.75 0.4681,0 1.1121,0.7875 1.431,1.75 0.3189,0.9625 1.3263,2.7625 2.2386,4 0.9123,1.2375 1.2621,2.25 0.7773,2.25 -0.4848,0 -1.5521,-1.0125 -2.3719,-2.25 z m -28.7901,-16.25 c -0.059,-4.4 0.5267,-10.925 1.3015,-14.5 1.1878,-5.4807 1.3145,-5.7159 0.808,-1.5 -0.3303,2.75 -0.916,9.275 -1.3014,14.5 l -0.7009,9.5 -0.1072,-8 z m -5.1216,-6.0833 c 0.048,-1.165 0.285,-1.4019 0.6042,-0.6042 0.2889,0.7219 0.2534,1.5844 -0.079,1.9167 -0.3323,0.3323 -0.5687,-0.2584 -0.5253,-1.3125 z m 0.46,-4.1667 c 1.5752,-7.8402 2.7769,-12.3271 3.4054,-12.7155 0.4088,-0.2527 0.1386,1.8718 -0.6005,4.721 -0.7391,2.8492 -1.3438,6.2073 -1.3438,7.4624 0,1.2552 -0.4079,2.2821 -0.9064,2.2821 -0.4985,0 -0.7481,-0.7875 -0.5547,-1.75 z m -5.46,-8.8333 c 0.048,-1.165 0.285,-1.4019 0.6042,-0.6042 0.2889,0.7219 0.2534,1.5844 -0.079,1.9167 -0.3323,0.3323 -0.5687,-0.2584 -0.5253,-1.3125 z m 0.9211,-2.5685 c 0,-0.3282 0.675,-2.5099 1.5,-4.8482 0.825,-2.3383 1.5,-6.6699 1.5,-9.6257 0,-6.3384 1.4626,-7.3114 1.6901,-1.1243 0.1826,4.9669 -1.2959,11.3492 -3.2881,14.1934 -0.7711,1.1009 -1.402,1.7331 -1.402,1.4048 z m 9.3059,-11.1251 c 0.1067,-2.0428 0.5316,-3.7161 0.9441,-3.7186 1.0546,-0.01 0.9069,4.199 -0.2095,5.9642 -0.6553,1.0361 -0.8716,0.3749 -0.7346,-2.2456 z m 32.7853,-4.1118 c -0.6309,-1.5888 -0.946,-3.0898 -0.7002,-3.3356 0.7356,-0.7357 2.7751,3.7378 2.2931,5.0297 -0.2452,0.6571 -0.9619,-0.1053 -1.5929,-1.6941 z m 37.4088,-1.2858 c -1.1,-0.2434 -2.675,-0.7127 -3.5,-1.0428 -0.825,-0.3301 -1.8938,-0.51 -2.3752,-0.3997 -2.5804,0.5911 -7.7036,-7.7191 -7.5552,-12.2551 0.038,-1.1704 0.7006,-0.081 1.4717,2.4212 0.7711,2.502 2.5344,5.6129 3.9184,6.9131 l 2.5164,2.364 -1.9881,-4.1148 c -1.0934,-2.2631 -1.9579,-5.149 -1.9211,-6.4131 0.044,-1.5073 0.5321,-0.8076 1.4185,2.0329 1.7929,5.7454 3.9017,7.8895 8.5288,8.6712 5.0729,0.8571 7.4383,-0.5574 10.5132,-6.2866 1.3921,-2.5937 2.2406,-3.5908 1.8857,-2.2158 -0.9389,3.638 -5.2253,8.9781 -8.0765,10.0621 -1.3567,0.5159 -2.55,0.8857 -2.6517,0.8219 -0.1017,-0.064 -1.0849,-0.3151 -2.1849,-0.5585 z m -70.525,-2.9838 c 0.5637,-0.2796 1.025,-1.9971 1.025,-3.8166 0,-2.7346 0.454,-3.4222 2.618,-3.9654 3.507,-0.8802 4.3204,0.133 1.0921,1.3604 -1.735,0.6597 -2.6714,1.8594 -2.8887,3.7009 -0.1768,1.4986 -0.8951,2.8382 -1.5964,2.9769 -0.7012,0.1387 -0.8137,0.023 -0.25,-0.2562 z m 67.8107,-2.953 c -0.7485,-1.702 -1.2735,-7.0088 -1.278,-12.9178 -0.01,-8.7662 0.3096,-10.6454 2.5122,-14.9233 1.3859,-2.6918 3.0888,-5.0838 3.7841,-5.3156 0.6954,-0.2318 0.1303,1.2495 -1.2556,3.2918 -1.3859,2.0423 -2.9737,5.3474 -3.5285,7.3447 -1.5035,5.4128 -1.2366,16.677 0.4932,20.8172 1.7961,4.2986 1.1151,5.893 -0.7274,1.703 z m -74.6707,-6.6387 c -1.251,-9.4495 -1.9694,-19.75 -1.3774,-19.75 0.2211,0 2.4151,1.385 4.8755,3.0778 3.6178,2.4891 5.5939,3.1107 10.3312,3.25 3.2219,0.095 5.6157,0.5666 5.3196,1.0487 -0.8324,1.3554 -12.0395,6e-4 -14.7645,-1.7849 -1.336,-0.8754 -2.7361,-1.5916 -3.1114,-1.5916 -0.3752,0 -0.4335,5.4 -0.1294,12 0.3041,6.6 0.4169,12 0.2507,12 -0.1662,0 -0.7936,-3.7125 -1.3943,-8.25 z m 35.085,3.05 c -1.4061,-1.4061 -1.4601,-5.4555 -0.1106,-8.3 0.7517,-1.5844 0.8466,-1.327 0.4569,1.2391 -0.7071,4.6558 0.2209,6.2609 3.6197,6.2609 1.7134,0 2.6927,0.4196 2.334,1 -0.8543,1.3823 -4.8444,1.2556 -6.3,-0.2 z m -18.6815,-7.4986 c 1.7473,-4.1817 2.4815,-5.1932 2.4815,-3.4184 0,1.4288 -2.8286,7.117 -3.5391,7.117 -0.2683,0 0.2077,-1.6644 1.0576,-3.6986 z m 75.7315,0.9766 c -8.6826,-2.0551 -10.25,-2.7254 -10.25,-4.3834 0,-2.9529 1.6436,-3.0337 11.9908,-0.5899 7.3512,1.7362 9.5703,2.6548 9.8437,4.0747 0.1942,1.0082 -0.027,2.1686 -0.4907,2.5788 -0.4641,0.4102 -5.4563,-0.3459 -11.0938,-1.6802 z m 8.2911,-0.3445 c 0.9834,-1.5912 0.2776,-1.9378 -7.0815,-3.4775 -3.7069,-0.7756 -7.5768,-1.6758 -8.5997,-2.0005 -1.2175,-0.3864 -1.8599,-0.1 -1.8599,0.8305 0,0.9304 2.675,2.1236 7.75,3.4567 9.6564,2.5367 9.008,2.4579 9.7911,1.1908 z m -33.3091,-1.9335 c 0,-1.925 0.2058,-2.7125 0.4573,-1.75 0.2515,0.9625 0.2515,2.5375 0,3.5 -0.2515,0.9625 -0.4573,0.175 -0.4573,-1.75 z m 24.963,-6.5 c 0.02,-1.65 0.2445,-2.2039 0.498,-1.231 0.2535,0.973 0.2369,2.323 -0.037,3 -0.2739,0.6771 -0.4814,-0.119 -0.461,-1.769 z m -142.9109,-5.2013 c -4.9451,-0.9571 -9.267,-9.3251 -9.2785,-17.9654 0,-2.3929 -0.5377,-4.3813 -1.2556,-4.671 -0.7467,-0.3013 -0.5454,-0.5362 0.5,-0.5833 1.4314,-0.065 1.751,0.7858 1.7556,4.671 0.01,8.6196 3.2737,15.8548 7.5076,16.6439 9.2683,1.7274 10.0882,1.7075 12.6484,-0.3064 1.4122,-1.1108 3.1392,-3.3994 3.8376,-5.0857 0.6985,-1.6862 1.4676,-2.8683 1.7091,-2.6268 0.6521,0.652 -2.5241,6.4409 -4.7615,8.6782 -1.9008,1.9008 -6.7916,2.3819 -12.6627,1.2455 z m 141.7949,-0.882 c 0.048,-1.165 0.2849,-1.4019 0.6041,-0.6042 0.2889,0.7219 0.2534,1.5844 -0.079,1.9167 -0.3323,0.3323 -0.5686,-0.2584 -0.5252,-1.3125 z m -144.6741,-4.5738 c -1.1379,-2.1828 -1.8324,-6.1191 -2.0013,-11.3429 l -0.2588,-8 0.7884,8.2131 c 0.4692,4.8876 1.4844,9.2753 2.5075,10.8367 0.9455,1.4431 1.4913,2.8515 1.2129,3.1299 -0.2784,0.2784 -1.2903,-0.9982 -2.2487,-2.8368 z m 5.0563,0.082 c -0.8746,-1.6912 -1.7642,-6.3037 -1.9769,-10.25 l -0.3867,-7.175 0.8477,6.5344 c 0.4662,3.594 1.5463,8.2065 2.4002,10.25 1.8789,4.4969 1.3194,4.9021 -0.8843,0.6406 z m 95.6178,1.4068 c -0.043,-0.6425 -0.338,-1.9925 -0.6545,-3 -0.5471,-1.7412 -0.5188,-1.7434 0.5708,-0.044 0.6304,0.9833 0.9249,2.3333 0.6544,3 -0.355,0.875 -0.5138,0.8873 -0.5707,0.044 z m -1.1157,-8.943 c -0.6798,-2.0598 -1.2286,-5.5775 -1.2195,-7.817 0.01,-2.2394 -0.3744,-4.82 -0.8521,-5.7344 -0.5455,-1.0442 -0.3471,-2.903 0.5332,-4.9966 l 1.4018,-3.334 0.1165,4.4966 c 0.064,2.4732 0.1481,5.6216 0.1868,6.9966 0.039,1.375 0.5145,4.8982 1.0575,7.8294 1.1801,6.3705 0.5017,7.789 -1.2242,2.5594 z m -78.8844,0.028 c 0.048,-1.1649 0.285,-1.4019 0.6042,-0.6041 0.2889,0.7218 0.2534,1.5843 -0.079,1.9166 -0.3323,0.3323 -0.5687,-0.2583 -0.5253,-1.3125 z m 64.095,-1.263 c 1.2794,-1.5656 2.4848,-2.4395 2.6787,-1.9422 0.4169,1.0692 -2.755,4.7886 -4.0836,4.7886 -0.5066,0 0.1256,-1.2809 1.4049,-2.8464 z m -98.6739,-10.1537 c -0.731,-1.1828 0.2475,-1.1828 3,0 1.9282,0.8286 1.9214,0.862 -0.191,0.9297 -1.205,0.039 -2.4691,-0.3797 -2.809,-0.9297 z m 17.6579,-1 c 0,-1.375 0.227,-1.9375 0.5044,-1.25 0.2774,0.6875 0.2774,1.8125 0,2.5 -0.2774,0.6875 -0.5044,0.125 -0.5044,-1.25 z m 18.0741,-1 c 0,-1.925 0.2058,-2.7125 0.4573,-1.75 0.2516,0.9625 0.2516,2.5375 0,3.5 -0.2515,0.9625 -0.4573,0.175 -0.4573,-1.75 z m 107.1891,0.5811 c -1.9014,-0.8279 -3.6042,-2.6295 -4.4526,-4.7109 -0.7556,-1.8536 -2.6326,-4.5632 -4.1711,-6.0214 -2.0082,-1.9033 -2.7974,-3.6226 -2.7974,-6.0944 0,-2.7034 -1.0744,-4.671 -5,-9.157 -2.75,-3.1426 -5,-6.5876 -5,-7.6556 0,-2.7701 0.7093,-2.4131 2.5989,1.3082 0.9076,1.7875 3.1691,5.1257 5.0256,7.4183 2.1652,2.6737 3.3755,5.2489 3.3755,7.1819 0,2.2071 0.8029,3.5853 3,5.1498 1.65,1.1749 3,2.7594 3,3.521 0,1.9814 2.1722,6.479 3.1291,6.479 0.4445,0 0.5666,-0.6295 0.2713,-1.3988 -0.2952,-0.7694 -0.056,-1.696 0.5314,-2.0591 0.6488,-0.4009 1.0682,0.3215 1.0682,1.8399 0,2.839 1.68,4.3381 3.1802,2.8378 0.6746,-0.6746 0.4366,-1.8749 -0.7226,-3.6441 -0.9507,-1.451 -1.4618,-2.9048 -1.1359,-3.2307 0.9733,-0.9734 4.013,6.3404 3.3516,8.0641 -0.7293,1.9003 -1.2442,1.9172 -5.2522,0.172 z m -142.6974,-1.9388 c 0.2901,-0.4718 2.2015,-0.5901 4.2475,-0.2629 3.6366,0.5815 3.7468,0.5051 4.9195,-3.4089 1.9183,-6.4027 9.7891,-13.9156 11.5662,-11.0402 0.2524,0.4084 2.1175,0.8048 4.1446,0.881 2.0271,0.076 4.5671,0.9363 5.6445,1.9113 2.251,2.0371 4.7723,6.5707 4.7149,8.4777 -0.022,0.7149 -0.7165,-0.2619 -1.5444,-2.1705 -1.8233,-4.2038 -4.3745,-7.1738 -5.5422,-6.4521 -0.4722,0.2918 -1.6356,0.096 -2.5855,-0.4359 -3.6173,-2.0244 -8.8763,2.7444 -11.8035,10.703 -0.7394,2.0104 -1.3662,2.9802 -1.3929,2.1552 -0.077,-2.3917 3.4279,-9.3246 5.7664,-11.405 3.0434,-2.7076 2.6503,-3.9096 -0.7103,-2.1718 -3.2453,1.6782 -5.7465,5.1146 -7.5854,10.4216 -1.2078,3.4858 -1.4774,3.6552 -5.8167,3.6552 -2.5026,0 -4.3128,-0.386 -4.0227,-0.8577 z m 98.1033,-1.0111 c -4.1997,-1.0166 -7.5724,-2.6861 -5.2437,-2.5956 1.8597,0.072 12.6347,2.8491 13.183,3.3974 0.8346,0.8346 -2.621,0.4856 -7.9393,-0.8018 z m -79.7872,-0.495 c -0.055,-1.8931 4.1202,-9.1362 5.2668,-9.1362 0.5161,0 0.4168,0.6284 -0.2206,1.3964 -0.6374,0.768 -2.0246,3.1305 -3.0826,5.25 -1.058,2.1195 -1.9416,3.2399 -1.9636,2.4898 z m 65.6992,-5.078 c -2.0686,-0.4108 -3.9431,-0.9295 -4.1657,-1.1526 -0.2225,-0.2231 5.6325,-0.4217 13.0111,-0.4413 7.3786,-0.02 13.4156,0.2054 13.4156,0.5 0,0.2946 -1.0125,0.5572 -2.25,0.5836 -1.2375,0.026 -5.4,0.3199 -9.25,0.6525 -3.85,0.3326 -8.6925,0.2686 -10.761,-0.1422 z m -6.6601,-2.6415 c 0.048,-1.165 0.285,-1.4019 0.6042,-0.6042 0.2889,0.7219 0.2534,1.5844 -0.079,1.9167 -0.3323,0.3323 -0.5687,-0.2584 -0.5253,-1.3125 z m 62.9402,-4.0836 c -1.1815,-2.6582 -2.5367,-6.8581 -3.0117,-9.3331 -0.475,-2.475 -1.346,-5.7668 -1.9355,-7.3151 -0.5896,-1.5483 -1.0719,-3.7944 -1.0719,-4.9913 0,-1.197 -1.6181,-4.5257 -3.5959,-7.3973 -1.9777,-2.8716 -3.4402,-5.6517 -3.25,-6.1779 0.1903,-0.5263 1.8088,1.1763 3.5968,3.7836 3.0291,4.4168 7.1719,16.8745 7.2256,21.7272 0.013,1.171 1.1947,4.6873 2.6261,7.814 1.4315,3.1267 2.3691,5.9185 2.0836,6.204 -0.2855,0.2854 -1.4857,-1.6559 -2.6671,-4.3141 z m -44.8488,1.1417 c 5.3187,-0.7255 10.5766,-1.8042 11.6843,-2.397 2.7704,-1.4827 3.5604,-1.35 1.8925,0.3179 -1.5282,1.5283 -13.3907,3.6649 -19.4387,3.5013 -2.0946,-0.057 0.5432,-0.6967 5.8619,-1.4222 z m -16.1594,-0.9617 c -1.0749,-1.2952 -0.8329,-1.347 1.8776,-0.4021 3.54,1.234 3.9679,1.889 1.2339,1.889 -1.0326,0 -2.4328,-0.6691 -3.1115,-1.4869 z m 23.1253,-8.572 c -0.075,-1.4073 0.5245,-3.4323 1.332,-4.5 0.8075,-1.0676 1.4825,-1.4686 1.5,-0.8911 0.017,0.5775 -0.3801,1.4775 -0.8835,2 -0.5035,0.5225 -1.1172,2.075 -1.3638,3.45 l -0.4485,2.5 -0.1362,-2.5589 z m -12.1029,-6.0338 c -0.089,-1.5775 4.7336,-9.3163 6.0111,-9.6468 0.897,-0.2321 0.784,0.049 -0.2944,0.7312 -0.9625,0.6092 -1.75,1.9355 -1.75,2.9472 0,1.6244 -3.8827,7.4662 -3.9667,5.9684 z m -5.0333,-4.8998 c -0.825,-0.529 -2.2496,-0.7288 -3.1658,-0.444 -0.9163,0.2848 -1.9983,-0.02 -2.4046,-0.6773 -0.4972,-0.8046 -0.3117,-0.9314 0.5676,-0.3879 0.7958,0.4918 1.7401,0.2139 2.4166,-0.7114 0.9616,-1.3149 1.3498,-1.2013 2.895,0.8473 1.9637,2.6033 1.9191,2.8019 -0.3088,1.3733 z m 30.079,-1.5908 c 0.048,-1.165 0.2849,-1.4019 0.6041,-0.6042 0.2889,0.7219 0.2534,1.5844 -0.079,1.9167 -0.3323,0.3323 -0.5686,-0.2584 -0.5252,-1.3125 z m 4.5003,-1.9167 c -1.6277,-4.2135 -3.9932,-8.3622 -4.5662,-8.0081 -1.2026,0.7432 -0.8529,-3.6311 0.5608,-7.0144 1.9235,-4.6038 2.4497,-4.4083 1.2161,0.4518 -0.8482,3.3415 -0.6731,4.5063 1.17,7.7858 2.0998,3.736 2.9698,4.1721 8.79,4.406 1.5096,0.061 2.25,0.7138 2.25,1.9847 0,2.3813 -0.8492,2.3588 -4,-0.1058 -3.2165,-2.516 -3.7764,-2.4831 -4.2545,0.25 -0.3777,2.1589 -0.4249,2.169 -1.1662,0.25 z m -33.5793,-1.5 c -0.9013,-0.5825 -1.0246,-0.9755 -0.309,-0.9847 0.655,-0.01 1.4691,0.4347 1.809,0.9847 0.7673,1.2415 0.4211,1.2415 -1.5,0 z m 20.8245,-1.3258 c -0.372,-1.8248 -0.2327,-2.4824 0.3935,-1.8562 0.5332,0.5332 0.7925,1.8049 0.5761,2.8258 -0.2914,1.3748 -0.5429,1.1233 -0.9696,-0.9696 z m -46.0378,-1.6742 c -0.4653,-3.1703 0.5799,-4.093 1.6063,-1.4182 0.8792,2.2912 0.7447,4.4182 -0.2795,4.4182 -0.4876,0 -1.0846,-1.35 -1.3268,-3 z m 38.7133,1 c 0.9955,-1.1 1.969,-2 2.1635,-2 0.1944,0 -0.2086,0.9 -0.8956,2 -0.6869,1.1 -1.6605,2 -2.1634,2 -0.503,0 -0.1,-0.9 0.8955,-2 z m -14.9357,-1.2931 c 0.3755,-0.9862 0.9347,-1.5412 1.2426,-1.2334 0.3079,0.3079 6e-4,1.1148 -0.6828,1.7932 -0.9876,0.9802 -1.1025,0.8654 -0.5598,-0.5598 z m 24.4167,-0.2298 c -1.0568,-1.2733 -0.9949,-1.4197 0.3776,-0.893 0.9028,0.3464 1.6414,1.0317 1.6414,1.5229 0,1.286 -0.5789,1.1054 -2.019,-0.6299 z m -21.136,-6.1842 c -2.7114,-0.4161 -8.6617,-7.8096 -7.3449,-9.1263 0.3574,-0.3575 1.1429,0.231 1.7455,1.3078 2.8933,5.17 5.4057,6.5256 12.0939,6.5256 5.8132,0 6.5932,-0.2483 8.1254,-2.5868 1.9266,-2.9403 3.2513,-2.62 1.6372,0.396 -1.8355,3.4296 -8.0005,4.7507 -16.2571,3.4837 z m 18.655,-3.2929 c -0.3491,-0.5648 0.4699,-1 1.882,-1 1.375,0 2.7781,0.45 3.118,1 0.3491,0.5648 -0.4699,1 -1.882,1 -1.375,0 -2.7781,-0.45 -3.118,-1 z m 19.6579,-2 c 0,-1.375 0.227,-1.9375 0.5044,-1.25 0.2774,0.6875 0.2774,1.8125 0,2.5 -0.2774,0.6875 -0.5044,0.125 -0.5044,-1.25 z m -57.6579,0 c 0.3399,-0.55 1.068,-1 1.618,-1 0.55,0 0.7219,0.45 0.382,1 -0.3399,0.55 -1.068,1 -1.618,1 -0.55,0 -0.7219,-0.45 -0.382,-1 z m 53.5307,-3.4193 c -0.5059,-1.3306 -1.6776,-2.8433 -2.6037,-3.3616 -1.1256,-0.6299 -1.3149,-1.1704 -0.5708,-1.6302 1.0011,-0.6187 5.1305,4.7326 5.1401,6.6611 0.01,1.5761 -1.0844,0.6486 -1.9656,-1.6693 z m 2.0865,-3.2256 c -0.7108,-2.1538 -1.0954,-5.2523 -0.8546,-6.8856 0.3858,-2.6175 0.4555,-2.5172 0.5876,0.8462 0.082,2.0987 0.629,4.7111 1.2147,5.8055 0.5856,1.0943 0.9028,2.4757 0.7048,3.0698 -0.1981,0.5941 -0.9417,-0.6821 -1.6525,-2.8359 z m -45.3498,-2.5225 c 0.8631,-0.8631 1.7622,-0.8808 3.45,-0.068 2.1436,1.0328 2.0726,1.1039 -1.1674,1.1674 -2.6298,0.052 -3.1725,-0.2098 -2.2826,-1.0997 z m 37.333,-3.1281 c -1.2649,-2.1063 -1.2436,-2.1276 0.4783,-0.4783 0.9913,0.9494 1.587,1.9414 1.3239,2.2045 -0.2631,0.2631 -1.0741,-0.5137 -1.8022,-1.7262 z m -4.1004,-4.2045 c -0.6944,-0.8367 -0.8027,-1.5 -0.2449,-1.5 0.55,0 1.5602,0.675 2.2449,1.5 0.6944,0.8367 0.8027,1.5 0.2449,1.5 -0.55,0 -1.5602,-0.675 -2.2449,-1.5 z m -13,-0.5347 c -0.825,-0.5522 -4.3125,-0.9203 -7.7499,-0.818 -6.1687,0.1837 -10.3207,-0.988 -4.6668,-1.317 6.1997,-0.3607 11.9787,0.3964 13.381,1.7531 1.6963,1.6411 1.2066,1.835 -0.9643,0.3819 z m 4,-0.9301 c 0,-0.5307 1.0125,-1.4961 2.25,-2.1455 2.2379,-1.1744 2.2398,-1.1692 0.345,0.9648 -2.1163,2.3835 -2.595,2.6013 -2.595,1.1807 z m 17.6381,-1.4647 c -1.0244,-1.5635 -3.2172,-2.8802 -5.8854,-3.5341 -2.339,-0.5732 -5.5267,-1.7158 -7.0837,-2.5393 -3.7069,-1.9602 -4.4089,-1.8919 -5.169,0.5029 -0.3491,1.1 -1.0605,2 -1.5808,2 -0.5203,0 -0.265,-1.63 0.5674,-3.6221 0.8324,-1.9922 1.5134,-3.7922 1.5134,-4 0,-0.2079 -1.9125,-0.3801 -4.25,-0.3829 -4.353,-0.01 -11.0949,-3.9638 -9.4961,-5.576 0.4147,-0.4181 1.9135,0.3291 3.3306,1.6604 2.0715,1.9461 3.639,2.4206 7.9961,2.4206 5.5678,0 6.2022,0.3172 4.3462,2.1732 -0.7643,0.7643 -0.083,1.6854 2.368,3.2 1.8927,1.1697 4.1604,2.1268 5.0393,2.1268 2.6086,0 8.2156,3.0494 9.5574,5.1978 1.8381,2.9433 0.6604,3.2935 -1.2534,0.3727 z m -40.6381,-0.5705 c -0.9013,-0.5825 -1.0246,-0.9755 -0.309,-0.9847 0.655,-0.01 1.4691,0.4347 1.809,0.9847 0.7673,1.2415 0.4211,1.2415 -1.5,0 z m 13.6269,-4.0544 c -0.957,-1.6201 -1.3163,-2.9456 -0.7984,-2.9456 1.3399,0 4.3126,4.7947 3.3439,5.3935 -0.443,0.2737 -1.5884,-0.8278 -2.5455,-2.4479 z m 14.2134,-17.6499 c 0.675,-12.932 -2.2246,-18.2957 -9.8905,-18.2957 -8.5875,0 -13.5648,5.7526 -12.6496,14.6201 0.3054,2.959 0.1941,5.3799 -0.2475,5.3799 -0.8661,0 -1.2697,-3.2475 -1.1583,-9.3197 0.074,-4.0541 2.7054,-8.3009 6.4396,-10.3949 1.1913,-0.668 4.7135,-1.2305 7.8271,-1.25 5.0748,-0.032 5.9208,0.2732 8.1682,2.9441 2.7625,3.2831 4.4445,13.2209 3.1981,18.8957 -1.1952,5.4418 -2.0385,4.1525 -1.6871,-2.5795 z"
       id="path4359"
       inkscape:connector-curvature="0" />
  </g>
</svg>
