<?xml version="1.0" encoding="UTF-8" standalone="no"?>
<!-- Created with Inkscape (http://www.inkscape.org/) -->

<svg
   xmlns:dc="http://purl.org/dc/elements/1.1/"
   xmlns:cc="http://creativecommons.org/ns#"
   xmlns:rdf="http://www.w3.org/1999/02/22-rdf-syntax-ns#"
   xmlns:svg="http://www.w3.org/2000/svg"
   xmlns="http://www.w3.org/2000/svg"
   xmlns:sodipodi="http://sodipodi.sourceforge.net/DTD/sodipodi-0.dtd"
   xmlns:inkscape="http://www.inkscape.org/namespaces/inkscape"
   width="152.03343"
   height="260.53766"
   id="svg2"
   version="1.1"
   inkscape:version="0.48.3.1 r9886"
   sodipodi:docname="One-arm-snatch-1.svg">
  <defs
     id="defs4" />
  <sodipodi:namedview
     id="base"
     pagecolor="#ffffff"
     bordercolor="#666666"
     borderopacity="1.0"
     inkscape:pageopacity="0.0"
     inkscape:pageshadow="2"
     inkscape:zoom="1.4"
     inkscape:cx="-40.967179"
     inkscape:cy="89.974634"
     inkscape:document-units="px"
     inkscape:current-layer="layer1"
     showgrid="false"
     fit-margin-top="0"
     fit-margin-left="0"
     fit-margin-right="0"
     fit-margin-bottom="0"
     inkscape:window-width="1855"
     inkscape:window-height="1056"
     inkscape:window-x="65"
     inkscape:window-y="24"
     inkscape:window-maximized="1" />
  <metadata
     id="metadata7">
    <rdf:RDF>
      <cc:Work
         rdf:about="">
        <dc:format>image/svg+xml</dc:format>
        <dc:type
           rdf:resource="http://purl.org/dc/dcmitype/StillImage" />
        <dc:title></dc:title>
      </cc:Work>
    </rdf:RDF>
  </metadata>
  <g
     inkscape:label="Ebene 1"
     inkscape:groupmode="layer"
     id="layer1"
     transform="translate(-953.54315,-1024.5002)">
    <path
       style="fill:#000000"
       d=""
       id="path3414"
       inkscape:connector-curvature="0" />
    <path
       style="fill:#000000"
       d=""
       id="path3412"
       inkscape:connector-curvature="0" />
    <path
       style="fill:#000000"
       d="m 1046.9547,1284.7651 c -4.9882,-1.1975 -4.9443,-4.6352 0.1312,-10.2649 1.2396,-1.375 2.7443,-4.6942 3.3438,-7.376 1.3762,-6.1564 0.973,-6.8069 -12.4459,-20.0788 l -10.1564,-10.0452 -1.1863,-8.0083 c -0.6525,-4.4046 -1.1864,-9.2156 -1.1864,-10.691 0,-1.4755 -0.4611,-2.9676 -1.0246,-3.3159 -0.6243,-0.3859 -0.7693,-2.5575 -0.3712,-5.559 0.7337,-5.5306 -0.7741,-6.6055 -4.1042,-2.9258 -0.9955,1.1 -2.6137,2 -3.596,2 -0.9823,0 -2.0641,0.45 -2.404,1 -0.3399,0.55 -1.7165,1 -3.059,1 -1.3426,0 -2.441,0.2443 -2.441,0.5429 0,0.2986 1.8,2.927 4,5.8409 2.2,2.9139 4,5.7031 4,6.1984 0,1.5136 7.3359,11.7646 10.1188,14.1397 3.2329,2.7592 4.7298,9.8581 2.5403,12.0476 -0.7812,0.7812 -4.1774,1.7455 -7.547,2.1428 -3.6549,0.4309 -7.2461,1.55 -8.9014,2.7738 -5.3975,3.9905 -16.21073,2.3126 -16.21073,-2.5154 0,-1.1702 0.53215,-1.0194 2.31575,0.6562 1.94838,1.8303 3.09878,2.0875 7.25008,1.6207 2.7138,-0.3052 5.3842,-1.1142 5.9342,-1.7979 1.5726,-1.9546 6.609,-3.5357 11.2439,-3.5297 2.3342,0 4.6984,-0.2753 5.2537,-0.6185 1.8114,-1.1195 -0.2006,-5.9158 -4.1954,-10.0015 -2.1511,-2.2 -5.4847,-7.15 -7.408,-11 -4.5782,-9.1645 -9.9648,-14.8038 -13.3922,-14.0205 l -2.502,0.5719 2.5,-2.0035 c 1.375,-1.1019 3.2507,-2.0134 4.1682,-2.0257 2.6344,-0.035 4.8318,-1.1307 4.8318,-2.4091 0,-0.6452 -1.575,-2.6586 -3.5,-4.4743 -1.925,-1.8157 -3.5,-3.7329 -3.5,-4.2605 0,-0.5276 1.2329,0.184 2.7398,1.5812 1.5069,1.3973 3.013,2.5405 3.347,2.5405 0.3339,0 1.6344,0.8909 2.8899,1.9798 l 2.2827,1.9797 2.947,-2.4797 c 4.8123,-4.0493 5.8722,-3.4318 6.0427,3.5202 0.01,0.275 -0.2625,1.9735 -0.5983,3.7744 -0.5577,2.991 -0.4449,3.1858 1.3036,2.25 2.3461,-1.2556 15.0488,-1.3539 18.2387,-0.1411 2.3044,0.8762 2.3221,0.8253 2.1688,-6.25 -0.091,-4.2165 0.46,-8.8399 1.3485,-11.3071 1.6743,-4.6492 1.3385,-10.7412 -0.9149,-16.5954 -1.4409,-3.7434 -1.4634,-3.7553 -3.2849,-1.7425 -2.7824,3.0745 -7.3614,5.0092 -11.9142,5.0339 l -4.0964,0.022 2.5,1.9555 c 1.375,1.0755 1.9279,1.9655 1.2286,1.9778 -1.8901,0.033 -9.6481,-5.338 -8.3401,-5.774 0.6182,-0.206 0.8258,-0.8571 0.4614,-1.4467 -0.4441,-0.7185 0.1312,-0.8308 1.7437,-0.3405 6.0446,1.8378 11.3793,1.7118 14.6564,-0.3462 3.5105,-2.2046 4.0336,-4.5241 2.2039,-9.7729 -0.7968,-2.2858 -0.6815,-4.0493 0.4839,-7.3993 2.6313,-7.5635 4.0355,-20.3752 2.7159,-24.7796 -0.6345,-2.1178 -1.1537,-5.5321 -1.1537,-7.5872 0,-2.0552 -1.0797,-5.828 -2.3993,-8.384 -3.2868,-6.3665 -4.598,-12.7567 -3.9424,-19.2128 0.4616,-4.5464 0.2058,-5.8715 -1.5654,-8.1078 -3.2519,-4.1058 -7.0922,-4.4635 -13.622,-1.2688 -6.3241,3.0941 -7.6339,4.9253 -8.5421,11.942 l -0.6472,5 -0.1371,-5 c -0.096,-3.5034 0.491,-6.0301 1.961,-8.4415 2.2331,-3.6631 2.5218,-7.9456 1.362,-20.2023 -0.4752,-5.0209 -0.2496,-7.3768 0.9232,-9.6449 2.2085,-4.2707 3.4869,-10.6787 2.4869,-12.4656 -0.7379,-1.3186 -1.3478,-1.3419 -4.614,-0.1764 -2.07,0.7386 -4.579,1.3627 -5.5757,1.3868 -2.5205,0.061 -11.6392,2.9046 -14.86696,4.636 -1.47346,0.7904 -4.62346,1.3563 -7,1.2576 -2.37653,-0.099 -7.34959,0.6322 -11.05124,1.6242 -5.46069,1.4635 -7.01694,1.5658 -8.25,0.5425 -0.83585,-0.6937 -1.51973,-1.8654 -1.51973,-2.6037 0,-1.4617 3.07866,-3.4508 5.18426,-3.3493 0.72366,0.035 0.30324,0.4703 -0.93426,0.9678 -2.28055,0.9166 -3.01717,3.3766 -1.32438,4.4228 1.45329,0.8982 15.07438,-3.7029 15.07438,-5.092 0,-2.0174 -1.45302,-2.3518 -5.43762,-1.2516 -2.06246,0.5695 -3.98746,0.7979 -4.27779,0.5075 -0.29033,-0.2903 1.53826,-1.0481 4.06353,-1.684 2.52527,-0.6358 5.11011,-1.7811 5.74409,-2.545 0.63397,-0.7639 1.88508,-1.3752 2.78023,-1.3585 1.42727,0.027 1.4122,0.1559 -0.12244,1.0497 -3.66881,2.1369 -0.88195,8.7313 3.14922,7.4519 2.11242,-0.6705 2.14734,-0.8231 0.58367,-2.5509 -2.48313,-2.7438 -1.07614,-6.1941 2.37817,-5.8317 1.47639,0.1548 4.02412,-0.2207 5.66164,-0.8346 1.63753,-0.6139 6.04723,-1.826 9.79933,-2.6936 3.8603,-0.8926 7.5504,-2.4088 8.5,-3.4925 2.527,-2.8839 10.4827,-5.4817 14.4871,-4.7305 2.3702,0.4447 5.6289,-0.1283 10.7931,-1.8977 9.6207,-3.2963 26.9217,-7.81 27.5453,-7.1863 0.4901,0.4901 -1.5594,1.2061 -11.6475,4.0695 -3.025,0.8586 -9.947,2.9125 -15.3823,4.5643 -5.9094,1.7959 -10.4597,2.6802 -11.3184,2.1996 -1.5603,-0.8732 -8.4411,0.6489 -12.0493,2.6654 -1.2375,0.6915 -2.25,2.1274 -2.25,3.1908 0,1.1437 -0.5145,1.736 -1.2595,1.4501 -1.3228,-0.5076 -5.4781,0.2555 -17.49053,3.2117 -5.69154,1.4007 -7.25,2.1756 -7.25,3.6047 0,1.5216 0.61556,1.7423 3.75,1.3442 2.0625,-0.2619 6.00003,-1.1169 8.75003,-1.8999 12.3037,-3.5033 15.6858,-4.0303 16.6003,-2.5866 1.4325,2.2615 1.0201,7.5798 -1.0984,14.1629 -1.5529,4.8256 -1.9428,8.439 -1.75,16.2168 l 0.2481,10.0077 3.4614,-1.7577 c 4.5828,-2.3271 12.236,-2.3313 14.2316,-0.01 2.5278,2.9432 3.0396,5.3706 3.2668,15.4936 0.1632,7.2724 0.6222,10.1895 1.8098,11.5018 6.0635,6.7001 7.9359,33.484 3.0823,44.0894 -1.75,3.8238 -1.1757,7.3646 1.6942,10.445 1.2014,1.2896 1.7336,2.8389 1.3694,3.9865 -0.3278,1.0327 0.071,2.632 0.8855,3.5554 2.2474,2.5464 2.8608,9.0461 1.4324,15.1783 -0.7046,3.025 -1.2171,9.325 -1.1388,14 0.078,4.675 -0.2062,8.95 -0.6322,9.5 -0.4259,0.55 -1.3333,3.8534 -2.0164,7.341 -1.2142,6.1991 -1.1873,6.3893 1.2031,8.5 3.1954,2.8215 5.7176,6.5617 10.3721,15.3806 2.0962,3.9719 5.5366,9.017 7.6451,11.2114 2.1085,2.1943 3.8337,4.602 3.8337,5.3502 0,0.7483 -1.3375,3.1282 -2.9722,5.2887 -1.6347,2.1604 -2.9847,4.4023 -3,4.9819 -0.044,1.6836 -6.2909,7.1602 -9.0278,7.9152 -4.2288,1.1666 -5.4265,1.2937 -7.5,0.7959 z m 6.399,-2.8412 c 2.8317,-1.133 5.3681,-3.4974 9.0202,-8.4088 2.7944,-3.758 5.0808,-7.1481 5.0808,-7.5336 0,-0.3855 -2.25,-3.1627 -5,-6.1717 -2.75,-3.0089 -5,-5.929 -5,-6.4891 0,-2.4698 -3.7714,-8.8189 -8.7629,-14.7522 -4.7405,-5.6349 -5.3301,-6.8118 -4.7593,-9.5 2.7744,-13.0681 1.8284,-14.5683 -9.1861,-14.5683 l -7.5655,0 0.6285,6.25 c 1.5915,15.8243 2.0509,16.7651 12.8196,26.25 3.7466,3.3 8.2432,7.7582 9.9924,9.9072 3.1488,3.8686 3.1686,3.9626 2.0104,9.5 -0.6434,3.076 -2.0778,6.7178 -3.1876,8.0928 -3.6469,4.5183 -4.56,7.0267 -2.9326,8.0563 1.9337,1.2235 2.2844,1.1911 6.8421,-0.6326 z m -17.6669,-50.4237 c -1.0418,-1.6681 -0.9987,-2 0.2594,-2 0.8418,0 1.5085,0.8839 1.5085,2 0,1.1 -0.1167,2 -0.2594,2 -0.1427,0 -0.8216,-0.9 -1.5085,-2 z m 4.9826,-2 c -0.01,-1.925 0.345,-4.625 0.7853,-6 0.6475,-2.0219 0.8087,-2.1175 0.8427,-0.5 0.023,1.1 -0.3303,3.8 -0.7853,6 l -0.8274,4 -0.015,-3.5 z m -40.3572,18.4606 c 2.6889,-1.967 9.0747,-8.6608 9.1154,-9.555 0.025,-0.5534 -3.2926,-4.5088 -14.84135,-17.6932 -2.54737,-2.9082 -5.05058,-6.1992 -5.56268,-7.3134 -0.71723,-1.5604 -1.75088,-1.9718 -4.5,-1.7908 -4.12541,0.2716 -8.0689,-0.8088 -8.0689,-2.2108 0,-0.5676 0.88728,-0.4929 2.14581,0.1806 1.20054,0.6425 4.3167,0.9398 7.07382,0.6749 4.25004,-0.4084 5.59797,-1.1334 9.79788,-5.2701 2.67842,-2.6382 5.39742,-6.0703 6.04222,-7.627 1.1382,-2.7478 2.9403,-3.0354 2.9403,-0.4692 0,1.4605 -10.53988,12.5831 -13.44333,14.1866 -1.80098,0.9946 -1.52141,1.5164 3.81729,7.1236 3.16833,3.3277 6.47134,7.1197 7.33984,8.4268 0.8686,1.307 3.626,4.5058 6.1275,7.1085 l 4.5482,4.732 -4.9447,4.9065 c -2.7197,2.6985 -6.0698,5.2232 -7.4448,5.6105 l -2.50003,0.7041 2.35753,-1.7246 z m 9.3823,-19.8163 c -2.2083,-2.3957 -4.5427,-5.4332 -5.1877,-6.75 -0.9679,-1.976 -0.7249,-1.8702 1.3911,0.6057 1.4101,1.65 4.2255,4.6875 6.2564,6.75 2.0309,2.0625 3.2116,3.75 2.6238,3.75 -0.5878,0 -2.8754,-1.9601 -5.0836,-4.3557 z m -12.57316,-12.311 c -0.36667,-0.3666 -0.66667,-1.2988 -0.66667,-2.0714 0,-1.164 0.25706,-1.1477 1.5,0.095 0.825,0.825 1.5,1.7572 1.5,2.0714 0,0.7828 -1.5173,0.7208 -2.33333,-0.095 z m -20.66667,-10.1515 c 0,-0.45 1.4048,-2.646 3.12178,-4.88 2.11095,-2.7466 5.26799,-5.0725 9.75,-7.183 5.14709,-2.4238 7.12904,-3.9998 8.86944,-7.0529 1.23268,-2.1624 4.87571,-6.9993 8.09561,-10.7487 3.22,-3.7495 6.1748,-8.1672 6.5663,-9.8172 0.3915,-1.65 2.2609,-5.3556 4.1543,-8.2346 1.8935,-2.879 3.4426,-5.6877 3.4426,-6.2415 0,-0.5538 0.8541,-1.5403 1.898,-2.1923 1.5359,-0.9591 1.7027,-1.6139 0.8743,-3.4319 -1.4369,-3.1537 -0.169,-8.6796 2.7024,-11.7779 3.4128,-3.6825 5.2607,-3.2845 2.1139,0.4553 -3.9293,4.6697 -4.4627,8.843 -1.9714,15.4229 0.6397,1.6894 0.5239,1.8106 -0.7456,0.7806 -1.2594,-1.022 -1.8604,-0.5362 -3.7111,3 -1.2145,2.3207 -3.3225,5.7485 -4.6844,7.6173 -2.8516,3.9132 -3.1646,5.5803 -0.8832,4.7048 5.5771,-2.1401 6.4347,-1.4937 1.7199,1.2964 -2.8529,1.6883 -6.4529,4.7611 -8,6.8284 -1.547,2.0674 -3.8288,4.7984 -5.0706,6.0689 -1.2418,1.2706 -4.0076,4.6787 -6.14629,7.5737 -2.96907,4.0191 -5.27701,5.8868 -9.76107,7.8991 -4.3882,1.9693 -6.49973,3.6518 -8.35373,6.6563 -2.32775,3.7721 -3.98114,5.1245 -3.98114,3.2563 z m 44.03903,-7.3704 c -1.1215,-1.2037 -2.039,-2.5537 -2.039,-3 0,-1.5657 1.5218,-0.6732 3.8261,2.2439 2.6886,3.4038 1.2475,4.0135 -1.7871,0.7561 z m -13.0626,-5.6138 c 5.4303,-3.7225 8.7633,-7.3039 11.5205,-12.3787 1.5894,-2.9254 4.0403,-6.1908 5.4464,-7.2564 5.3312,-4.0401 10.7718,-10.388 11.3405,-13.2317 0.325,-1.625 1.4884,-4.0517 2.5853,-5.3927 l 1.9944,-2.4381 -1.5652,5 c -1.5095,4.8218 -6.0618,11.7766 -9.2564,14.1414 -3.5547,2.6314 -6.6872,6.2666 -8.9218,10.3537 -2.3974,4.3845 -6.0602,8.0269 -11.318,11.2549 -3.6409,2.2353 -5.1018,2.1933 -1.8257,-0.052 z m 5.9283,-16.5961 c 2.2429,-2.3875 7.0953,-4.0857 7.0953,-2.4831 0,0.8149 -7.1931,4.8816 -8.6345,4.8816 -0.3928,0 0.2999,-1.0793 1.5392,-2.3985 z m 9.1359,-7.0071 c -0.074,-1.6401 5.0307,-7.5944 6.5103,-7.5944 0.797,0 1.4491,0.45 1.4491,1 0,0.55 -0.5297,1 -1.1772,1 -0.6474,0 -2.4291,1.4625 -3.9593,3.25 -1.5302,1.7875 -2.8005,2.8425 -2.8229,2.3444 z m -12.8118,-6.2868 c -1.6953,-2.3924 -1.9894,-4.4343 -1.9891,-13.8076 3e-4,-10.1154 0.2319,-11.4648 2.8803,-16.7799 1.584,-3.179 2.88,-6.4122 2.88,-7.1849 0,-2.108 1.9772,-6.8913 2.5937,-6.2748 0.8213,0.8213 -1.4509,8.6011 -4.2821,14.6617 -1.9907,4.2611 -2.4309,6.484 -2.0564,10.382 0.2621,2.7279 0.034,6.4028 -0.5075,8.1664 -0.7923,2.5814 -0.5688,4.1454 1.1462,8.0226 2.4745,5.594 2.1819,6.8323 -0.6651,2.8145 z m 27.3964,-15.3283 c 1.1688,-1.1957 2.8134,-2.0177 3.6547,-1.8267 0.9606,0.2182 0.1701,1.0269 -2.1251,2.174 l -3.6548,1.8267 2.1252,-2.174 z m -1.0455,-12.169 c -2.2886,-3.2674 -0.9046,-3.5898 2.1779,-0.5073 2.1101,2.1101 2.3334,2.697 1.0264,2.697 -0.9188,0 -2.3608,-0.9853 -3.2043,-2.1897 z m -8.0797,-6.0007 c -3.5705,-2.0165 -7.6895,-5.8096 -6.3089,-5.8096 1.7879,0 8.8089,4.811 8.8089,6.036 0,1.1765 -0.019,1.1748 -2.5,-0.2264 z m 5.2073,-5.7984 c 0.2861,-1.0938 0.9408,-1.7287 1.455,-1.4109 0.5516,0.3409 0.4548,1.1561 -0.2362,1.9887 -1.5774,1.9007 -1.835,1.7786 -1.2188,-0.5778 z m -7.7073,-0.7221 c 0,-0.5743 0.7875,-1.6618 1.75,-2.4167 1.6188,-1.2695 1.64,-1.2224 0.283,0.6276 -0.8069,1.1 -1.5944,2.1875 -1.75,2.4167 -0.1557,0.2291 -0.283,-0.053 -0.283,-0.6276 z m -8.5454,-4.7436 c -1.35,-1.35 -2.4546,-3.1132 -2.4546,-3.9183 0,-0.805 -0.2617,-2.2879 -0.5817,-3.2954 -0.3199,-1.0075 0.6558,0.3057 2.1682,2.9182 3.612,6.2393 6.9258,6.2249 13.6635,-0.059 2.0207,-1.8846 2.75,-2.1585 2.75,-1.0328 0,1.8359 -2.3514,4.0193 -6.7003,6.2215 -4.3424,2.1989 -5.9653,2.0459 -8.8451,-0.8339 z m 13.5454,-32.823 c 0,-0.7026 -0.7235,-2.3105 -1.6078,-3.573 l -1.6079,-2.2955 -2.3921,2.2473 c -3.0638,2.8783 -3.1011,1.5299 -0.058,-2.0869 2.3316,-2.7709 2.336,-2.7717 3.6547,-0.6601 1.2721,2.0369 1.3449,2.0442 1.9922,0.1988 0.3695,-1.0534 0.087,-4.4213 -0.6285,-7.4842 -1.8481,-7.9145 -0.7969,-15.2352 2.8459,-19.819 2.0996,-2.642 2.7473,-4.3288 2.3183,-6.0379 -0.5002,-1.9929 -0.2907,-2.2749 1.3117,-1.7663 1.0488,0.3328 5.4539,-0.4836 9.7891,-1.8144 4.3352,-1.3308 12.0446,-3.6856 17.1321,-5.2329 9.1035,-2.7687 9.25,-2.8629 9.25,-5.9508 0,-3.1279 2.5149,-6.4476 4.8845,-6.4476 0.6749,0 0.013,1.0446 -1.4716,2.3213 -2.3633,2.0328 -2.5777,2.6853 -1.7256,5.25 1.128,3.395 5.2072,6.0669 7.7643,5.0857 1.6397,-0.6293 1.6509,-0.8517 0.1568,-3.132 -1.6837,-2.5697 -2.0249,-5.276 -1.0014,-7.9432 0.445,-1.1596 1.8462,-1.5439 5.25,-1.4399 l 4.643,0.1419 -4,0.6081 c -3.6515,0.5551 -4.0277,0.8969 -4.3182,3.9234 -0.175,1.8235 0.2513,4.0016 0.9474,4.8403 1.1255,1.3562 1.4098,1.3278 2.5682,-0.2564 0.7165,-0.9798 1.3026,-1.5182 1.3026,-1.1965 0,0.3217 3.3922,-0.4923 7.5381,-1.8089 4.146,-1.3166 8.5335,-2.3574 9.75,-2.3129 3.5173,0.1288 -4.8753,3.6747 -10.5418,4.454 -2.7201,0.3741 -5.2986,1.3875 -6.0062,2.3606 -2.3935,3.2912 -6.8502,4.3297 -11.516,2.6836 -4.6152,-1.6284 -8.5212,-0.9152 -26.7119,4.8773 -4.3934,1.399 -8.7505,2.5436 -9.6826,2.5436 -0.9321,0 -2.004,0.9744 -2.382,2.1653 -0.378,1.1909 -1.7421,3.2202 -3.0314,4.5095 -3.6364,3.6363 -4.8477,9.6144 -3.5105,17.3252 1.2822,7.3937 1.2617,17 -0.036,17 -0.4781,0 -0.8693,-0.5749 -0.8693,-1.2775 z"
       id="path3845"
       inkscape:connector-curvature="0" />
  </g>
</svg>
