<?xml version="1.0" encoding="UTF-8" standalone="no"?>
<!-- Created with Inkscape (http://www.inkscape.org/) -->

<svg
   xmlns:dc="http://purl.org/dc/elements/1.1/"
   xmlns:cc="http://creativecommons.org/ns#"
   xmlns:rdf="http://www.w3.org/1999/02/22-rdf-syntax-ns#"
   xmlns:svg="http://www.w3.org/2000/svg"
   xmlns="http://www.w3.org/2000/svg"
   xmlns:sodipodi="http://sodipodi.sourceforge.net/DTD/sodipodi-0.dtd"
   xmlns:inkscape="http://www.inkscape.org/namespaces/inkscape"
   width="183.35753"
   height="198.88968"
   id="svg2"
   version="1.1"
   inkscape:version="0.48.3.1 r9886"
   sodipodi:docname="One-leg-squat-1.svg">
  <defs
     id="defs4" />
  <sodipodi:namedview
     id="base"
     pagecolor="#ffffff"
     bordercolor="#666666"
     borderopacity="1.0"
     inkscape:pageopacity="0.0"
     inkscape:pageshadow="2"
     inkscape:zoom="1.979899"
     inkscape:cx="176.55849"
     inkscape:cy="90.297695"
     inkscape:document-units="px"
     inkscape:current-layer="layer1"
     showgrid="false"
     fit-margin-top="0"
     fit-margin-left="0"
     fit-margin-right="0"
     fit-margin-bottom="0"
     inkscape:window-width="1855"
     inkscape:window-height="1056"
     inkscape:window-x="65"
     inkscape:window-y="24"
     inkscape:window-maximized="1" />
  <metadata
     id="metadata7">
    <rdf:RDF>
      <cc:Work
         rdf:about="">
        <dc:format>image/svg+xml</dc:format>
        <dc:type
           rdf:resource="http://purl.org/dc/dcmitype/StillImage" />
        <dc:title></dc:title>
      </cc:Work>
    </rdf:RDF>
  </metadata>
  <g
     inkscape:label="Ebene 1"
     inkscape:groupmode="layer"
     id="layer1"
     transform="translate(-541.66954,-1019.8625)">
    <path
       style="fill:#000000"
       d=""
       id="path3414"
       inkscape:connector-curvature="0" />
    <path
       style="fill:#000000"
       d=""
       id="path3412"
       inkscape:connector-curvature="0" />
    <path
       style="fill:#000000"
       d="m 618.40371,1217.5436 c -1.63358,-2.0769 -1.31511,-8.4029 0.75555,-15.0078 1.07631,-3.4332 1.96274,-7.0563 1.96984,-8.0512 0.007,-0.995 0.37703,-1.584 0.82208,-1.3089 0.88438,0.5465 0.0197,8.0745 -1.88791,16.4362 -1.065,4.6682 -1.00961,5.5219 0.45319,6.9847 1.55531,1.5553 1.98199,1.5377 6.39601,-0.2647 2.89379,-1.1816 7.25246,-1.9581 11.22953,-2.0005 3.82429,-0.041 8.44702,-0.8359 11.22982,-1.9317 4.90422,-1.9311 5.45976,-3.6061 1.19601,-3.6061 -1.35087,0 -4.81181,-1.3557 -7.69098,-3.0127 -9.356,-5.3845 -9.20182,-5.1573 -8.99962,-13.2603 0.21466,-8.6021 1.9586,-31.7781 2.76363,-36.727 l 0.56934,-3.5 -1.39914,3.7002 c -0.76952,2.0351 -1.69352,5.1721 -2.05332,6.9711 -0.73594,3.6797 -5.76233,8.8287 -8.61844,8.8287 -2.86508,0 -3.42272,1.7766 -3.29263,10.4902 0.0658,4.4054 -0.0664,6.8848 -0.29375,5.5098 -0.22733,-1.375 -0.89,-4.8399 -1.47261,-7.6998 l -1.05929,-5.1999 -5.18951,-0.3001 c -2.85423,-0.1651 -6.76451,0.093 -8.68951,0.574 -1.925,0.4808 -8.52595,0.5771 -14.66878,0.2141 -6.70877,-0.3965 -11.40234,-0.2822 -11.75364,0.2862 -0.32168,0.5205 0.87927,2.5162 2.66878,4.4351 7.4146,7.9504 9.75364,11.5312 9.75364,14.932 0,1.8569 -0.5625,4.0863 -1.25,4.9543 -2.0963,2.6465 -29.99768,6.5244 -35.42473,4.9234 -1.7461,-0.5151 -3.37999,-0.7312 -3.63087,-0.4804 -0.25088,0.2509 -2.52086,-1.9041 -5.0444,-4.7889 -2.52354,-2.8848 -4.34048,-5.4929 -4.03763,-5.7957 0.30285,-0.3029 1.46309,0.702 2.57831,2.2329 2.24635,3.0837 7.60899,6.1004 12.50008,7.0316 1.75492,0.3341 6.54616,-0.034 10.6472,-0.8191 4.10104,-0.7847 9.94598,-1.397 12.98875,-1.3606 3.04277,0.036 6.01403,-0.2317 6.6028,-0.5955 0.58877,-0.3639 1.07049,-2.4312 1.07049,-4.594 0,-3.9272 -0.81436,-5.3227 -9.3156,-15.9631 l -2.80713,-3.5135 -13.99858,1.4179 c -13.07902,1.3246 -14.10961,1.3035 -15.68864,-0.3219 -1.59429,-1.6411 -1.3078,-2.089 5.05595,-7.9044 3.71029,-3.3905 8.21029,-8.4023 10,-11.1372 3.82104,-5.8391 6.27524,-7.2984 11.28964,-6.713 2.92287,0.3412 4.09847,1.146 5.74134,3.9305 l 2.06589,3.5014 6.12375,-0.4916 c 3.36806,-0.2703 7.52078,-1.2139 9.22826,-2.0969 1.9966,-1.0325 5.97528,-1.6576 11.14882,-1.7516 7.84318,-0.1425 8.06853,-0.2157 9.01289,-2.9247 1.07665,-3.0884 -1.31117,-11.8148 -3.63916,-13.2994 -0.83461,-0.5323 -1.07339,-1.933 -0.68366,-4.0104 0.76806,-4.0941 -0.85656,-8.3423 -4.72363,-12.3519 -2.67783,-2.7765 -3.13102,-4.0723 -3.57001,-10.2078 -0.46221,-6.4599 -0.26711,-7.4146 2.4153,-11.8198 6.56356,-10.7789 6.43747,-10.3087 5.3497,-19.949 -2.46193,-21.8187 -3.24049,-25.2379 -4.55458,-20.0022 -0.35573,1.4173 -1.35227,3.1579 -2.21454,3.868 -1.38111,1.1373 -1.4811,0.9432 -0.83989,-1.6301 0.40032,-1.6066 1.59996,-4.0298 2.66587,-5.3848 1.0659,-1.3551 1.93801,-3.653 1.93801,-5.1065 0,-1.4534 0.72151,-3.6727 1.60335,-4.9317 1.51125,-2.1576 1.48254,-2.3207 -0.5,-2.8391 -2.46699,-0.6452 -2.72768,-2.5538 -0.59102,-4.327 1.13627,-0.943 1.23502,-1.5893 0.39715,-2.5989 -1.69662,-2.0443 -10.82924,-1.2211 -12.54925,1.1311 -0.74813,1.0232 -1.36328,2.1118 -1.36701,2.4191 -0.004,0.3074 -2.5118,0.682 -5.5735,0.8323 -3.60372,0.1771 -5.34368,-0.087 -4.93421,-0.75 0.34789,-0.5629 2.46686,-1.0234 4.70884,-1.0234 3.06355,0 4.65195,-0.6211 6.39323,-2.5 1.86856,-2.0162 3.2723,-2.5 7.25389,-2.5 3.27097,0 5.6899,0.6097 7.16819,1.8067 1.90462,1.5423 3.19429,1.6908 8.81039,1.0147 8.33885,-1.0039 9.85164,-2.4204 10.10344,-9.4606 0.0421,-1.1766 0.9522,-3.2016 2.02248,-4.5 l 1.94598,-2.3608 -1.31301,4 c -0.72216,2.2 -1.57433,5.7169 -1.89372,7.8154 l -0.58071,3.8155 5.63887,-0.7046 c 3.37646,-0.4218 6.46492,-1.4742 7.69774,-2.6229 1.53493,-1.4301 3.20405,-1.8401 6.55888,-1.6109 4.45905,0.3047 4.49704,0.2803 4.17482,-2.6806 -0.42131,-3.8716 -1.76631,-5.4019 -6.66647,-7.5849 -2.42368,-1.0797 -3.26433,-1.8137 -2.12638,-1.8564 2.42911,-0.091 8.35693,3.573 9.63068,5.953 0.54304,1.0147 0.98735,2.9837 0.98735,4.3755 0,4.5843 2.92191,5.0294 19.69966,3.0012 2.91141,-0.352 4.37869,-1.0718 4.78326,-2.3465 0.87998,-2.7725 6.02629,-4.5985 9.06214,-3.2152 1.35022,0.6152 2.45494,1.8692 2.45494,2.7867 0,1.4729 0.90713,1.5881 7.75,0.9841 4.2625,-0.3763 11.575,-0.8716 16.25,-1.1008 l 8.5,-0.4166 -7.5,0.9463 c -4.125,0.5204 -11.87293,1.4486 -17.21763,2.0625 -5.96867,0.6856 -10.17088,1.6624 -10.8925,2.5319 -0.64618,0.7786 -0.95817,1.6323 -0.69332,1.8972 0.49254,0.4925 29.88761,-1.2426 33.05345,-1.951 0.9625,-0.2154 1.75,-0.023 1.75,0.4268 0,1.0334 -4.8202,1.7308 -17.5,2.5323 -5.5,0.3476 -11.2375,1.2343 -12.75,1.9704 -2.36512,1.151 -2.75,1.1308 -2.75,-0.1441 0,-0.8153 -0.41891,-1.2234 -0.9309,-0.907 -1.43317,0.8857 -2.32656,-1.2954 -1.64419,-4.0141 0.33726,-1.3438 1.31262,-2.4432 2.16747,-2.4432 2.17058,0 1.34455,-3.3885 -0.93296,-3.8271 -3.71862,-0.7161 -6.48846,0.7781 -7.55665,4.0766 -2.10957,6.5143 -0.64382,10.7505 3.71967,10.7505 1.91172,0 2.28649,0.2911 1.45078,1.1268 -1.85314,1.8531 -6.16397,0.1567 -6.88315,-2.7088 -0.57365,-2.2856 -1.01819,-2.4967 -4.26523,-2.026 -1.99366,0.289 -6.88734,0.8147 -10.87484,1.1682 -7.14691,0.6336 -7.25,0.6832 -7.25,3.4823 0,1.5617 -0.41494,3.0959 -0.92208,3.4093 -1.26305,0.7807 -4.77923,12.0096 -5.54738,17.7157 -0.38733,2.8772 -1.81906,6.3112 -3.73284,8.9531 -2.69491,3.7202 -3.22807,5.544 -4.041,13.8237 -0.65391,6.6601 -0.6085,10.0634 0.15049,11.2787 1.06672,1.7081 1.86655,25.3366 0.89068,26.3125 -0.27281,0.2728 -0.80654,-4.9987 -1.18608,-11.7145 -0.37954,-6.7157 -1.08264,-12.6853 -1.56244,-13.2657 -0.47981,-0.5804 -1.0247,-2.4053 -1.21086,-4.0553 -0.27204,-2.411 -0.73114,-2.9116 -2.33849,-2.5496 -1.1,0.2478 -6.95,0.4728 -13,0.5 -7.01626,0.032 -11.81111,0.513 -13.23965,1.3292 -3.36131,1.9206 -5.26035,6.4778 -5.26035,12.6237 0,6.3934 1.36693,9.9519 4.64891,12.1023 3.26947,2.1423 5.62267,8.1713 4.92944,12.6295 -0.69587,4.4752 -0.20734,4.6398 11.59176,3.9049 6.90843,-0.4303 9.29591,-1.0033 11.75,-2.8199 3.67178,-2.7181 3.7353,-2.4045 1.63461,8.0721 -1.55975,7.7787 -4.05472,37.9395 -4.05472,49.0161 0,5.9645 0.28936,7.0264 2.33479,8.5682 3.62857,2.7353 8.26363,4.926 12.96671,6.1285 5.39521,1.3795 6.38883,3.5744 2.95516,6.5279 -2.20916,1.9002 -3.79942,2.2275 -11.10859,2.2863 -5.64495,0.045 -9.54821,0.5949 -11.53955,1.6247 -3.6095,1.8665 -11.47211,2.0539 -12.84681,0.3061 z m -62.56093,-40.7587 c 10.47208,-2.201 35.76625,-3.9506 56.66451,-3.9196 2.7077,0 5.90722,-0.6755 7.21482,-1.5322 1.29224,-0.8467 3.29997,-1.5395 4.46163,-1.5395 3.35981,0 7.53351,-4.9423 8.31831,-9.8502 0.38148,-2.3856 1.80653,-6.9817 3.16678,-10.2135 1.36024,-3.2318 2.47317,-7.2449 2.47317,-8.918 0,-2.9529 -0.10975,-3.0247 -3.75,-2.4544 -2.0625,0.3231 -6.225,0.7137 -9.25,0.868 -3.025,0.1542 -6.0625,0.3451 -6.75,0.4243 -1.55961,0.1794 -1.68103,6.7594 -0.14228,7.7104 0.68661,0.4243 0.8722,2.1575 0.48819,4.559 -0.73402,4.5903 1.25305,5.3937 3.40328,1.3759 0.73544,-1.3742 1.52294,-2.3127 1.75,-2.0856 0.22707,0.227 -0.0894,1.3514 -0.70335,2.4985 -0.74151,1.3855 -0.7687,2.0856 -0.081,2.0856 0.56935,0 1.03518,0.4222 1.03518,0.9382 0,0.5161 -1.9125,0.7512 -4.25,0.5226 -16.68086,-1.6316 -19.56424,-1.6431 -22.88118,-0.091 -1.85285,0.8668 -6.19746,2.2271 -9.65469,3.023 -6.06086,1.3951 -6.35619,1.3714 -8.25,-0.6613 -1.08027,-1.1595 -1.96413,-2.6825 -1.96413,-3.3845 0,-1.5463 -3.13832,-3.3466 -5.83404,-3.3466 -1.11606,0 -4.71,2.8592 -8.31575,6.6157 -3.49261,3.6386 -8.50313,8.8317 -11.13448,11.5401 -6.44964,6.6384 -5.61943,7.8542 3.98505,5.8355 z m 81.14385,-84.267 c 3.15785,-1.1559 3.35969,-1.5193 3.61416,-6.5064 0.25038,-4.9068 0.14926,-5.1732 -1.42337,-3.75 -2.26573,2.0505 -6.3826,1.941 -8.19281,-0.2179 -2.93561,-3.5011 -5.07171,-9.9304 -4.36633,-13.142 0.37545,-1.7094 1.08574,-3.108 1.57842,-3.108 0.50052,0 0.45298,1.1647 -0.10773,2.6395 -0.797,2.0963 -0.56624,3.4853 1.12132,6.75 2.33398,4.5151 4.79546,7.6105 6.0519,7.6105 1.85026,0 7.67551,-6.2086 10.23157,-10.905 1.50952,-2.7734 3.13811,-7.4606 3.61909,-10.4159 0.48099,-2.9553 1.68076,-7.1296 2.66616,-9.2762 0.9854,-2.1466 2.03269,-5.8663 2.32731,-8.2659 l 0.53568,-4.3631 6.5,-0.2093 c 18.16839,-0.5849 17,-0.4019 17,-2.6628 0,-1.9753 -0.36595,-2.0607 -6.25,-1.4586 -10.55204,1.0799 -13.75,1.695 -13.75,2.6447 0,0.5017 -0.47829,0.9121 -1.06286,0.9121 -0.58457,0 -0.92207,-1 -0.75,-2.2223 0.26585,-1.8883 -0.28819,-2.327 -3.68714,-2.9191 -5.89517,-1.027 -8.27442,-0.1621 -9.03106,3.2828 -0.51449,2.3425 -0.92921,2.7215 -2.00279,1.8305 -1.60015,-1.328 -32.46615,0.7884 -32.46615,2.2262 0,1.8455 3.71082,2.0573 16.78819,0.9584 12.20747,-1.0259 13.75493,-0.975 15.39189,0.5065 1.00095,0.9058 1.81992,2.8706 1.81992,4.366 0,3.8068 -4.30959,11.0981 -8.21658,13.9013 l -3.28342,2.3559 3.57056,-3.8931 c 1.96381,-2.1412 4.39512,-5.8066 5.40291,-8.1454 1.77031,-4.1083 1.77089,-4.3202 0.0173,-6.2579 -1.6824,-1.859 -2.62539,-1.9587 -12.90291,-1.3639 -14.99547,0.8678 -17.8241,2.6512 -17.92168,11.2993 -0.0418,3.7023 1.13926,11.6456 2.445,16.4441 0.61819,2.2719 1.07463,8.0359 1.0143,12.8089 -0.0949,7.5116 0.12449,8.7215 1.63241,9 4.95551,0.9154 19.14265,0.6239 22.08674,-0.4539 z m -19.41478,-10.4743 c -0.8785,-8.1304 -0.87332,-9.2212 0.0996,-20.9763 0.51473,-6.2195 1.38519,-10.2485 2.67098,-12.3628 1.04907,-1.725 2.1441,-2.8998 2.43341,-2.6104 0.28931,0.2893 -0.21677,1.6596 -1.12464,3.0452 -2.17604,3.321 -3.85612,20.6974 -3.03642,31.4043 0.75878,9.9111 -0.014,11.0226 -1.04288,1.5 z m 16.587,-10.0497 c -0.0276,-2.133 3.2674,-7.8133 3.73281,-6.4349 0.23499,0.6959 -0.50496,2.7209 -1.64435,4.5 -1.13939,1.779 -2.0792,2.6498 -2.08846,1.9349 z m -5.26778,-11.4503 c 0.30901,-1.2375 1.16688,-3.1376 1.90638,-4.2225 0.7395,-1.0849 1.34455,-2.7724 1.34455,-3.75 0,-1.8813 1.49425,-2.4048 2.44999,-0.8584 0.46334,0.7497 -5.13616,11.0809 -6.00585,11.0809 -0.14129,0 -0.004,-1.0125 0.30493,-2.25 z m 18.25093,-6.2029 c 0,-0.2492 0.52223,-1.5992 1.16052,-3 1.62675,-3.5704 2.90903,-3.1916 1.53338,0.4529 -0.9439,2.5007 -2.6939,4.1553 -2.6939,2.5471 z m 1,-8.506 c -1.91763,-0.4857 -2.12945,-0.7756 -0.90932,-1.2446 0.87488,-0.3363 2.21185,-0.2276 2.97104,0.2416 1.96626,1.2153 0.8742,1.7465 -2.06172,1.003 z m -81.5,149.8632 c -2.82381,-0.6285 -2.76508,-0.6751 1,-0.7947 2.2,-0.07 6.475,-0.4061 9.5,-0.7472 3.71981,-0.4194 5.17633,-0.2914 4.5,0.3958 -1.26308,1.2833 -11.03029,2.0296 -15,1.1461 z m 49.03823,-67.1852 c -0.42674,-0.9794 -0.50867,-3.1169 -0.18206,-4.75 0.32661,-1.633 0.20967,-2.9691 -0.25985,-2.9691 -1.52865,0 -3.49353,-6.0028 -2.34185,-7.1545 0.72427,-0.7242 1.25089,-0.098 1.72251,2.0497 0.37362,1.7011 1.37899,3.4845 2.23416,3.963 1.29565,0.7251 1.39216,1.6846 0.57891,5.756 -0.72971,3.6531 -1.17169,4.4365 -1.75182,3.1049 z m 2.00254,-30.6531 c -0.34213,-0.5536 2.68883,-0.8723 7.44098,-0.7824 4.41004,0.083 8.01825,0.5037 8.01825,0.934 0,1.1173 -14.7645,0.9725 -15.45923,-0.1516 z m -16.95173,-19.9219 c -0.29094,-0.4708 -0.99747,-2.1583 -1.57007,-3.75 l -1.04108,-2.8941 3.01344,3.2685 c 2.45937,2.6674 3.50011,3.1463 5.66021,2.6041 1.86243,-0.4674 2.43691,-0.3247 1.9386,0.4816 -0.82048,1.3275 -7.21656,1.5593 -8.0011,0.2899 z m -2.35704,-14.1441 c 0,-1.925 0.2058,-2.7125 0.45733,-1.75 0.25152,0.9625 0.25152,2.5375 0,3.5 -0.25153,0.9625 -0.45733,0.175 -0.45733,-1.75 z m 1.11578,-10.2533 c 0.45049,-5.098 0.2701,-5.8808 -1.58373,-6.873 -1.22441,-0.6553 -4.30521,-0.8912 -7.42808,-0.5689 -2.93479,0.3029 -5.33597,0.1959 -5.33597,-0.2378 0,-0.4336 2.29944,-1.0608 5.10987,-1.3936 4.19793,-0.4972 5.89761,-0.1858 9.52386,1.7446 3.10369,1.6522 3.96163,2.5233 2.89013,2.9345 -0.93167,0.3575 -1.52981,1.8599 -1.53917,3.8661 -0.008,1.8048 -0.49456,3.9564 -1.08031,4.7814 -0.78341,1.1034 -0.93057,-0.021 -0.5566,-4.2533 z m -21.68707,-3.2288 c -0.81517,-0.8152 -1.63482,-1.9335 -1.82142,-2.485 -0.22664,-0.6699 -3.30169,-0.6658 -9.26153,0.012 -9.34284,1.0632 -10.52613,0.7062 -10.56245,-3.1869 -0.0183,-1.9574 1.99891,-2.5278 12.14243,-3.4337 6.89446,-0.6157 7.86926,-0.9699 9.77993,-3.5543 2.27211,-3.0732 6.63687,-3.8959 8.86233,-1.6704 2.01914,2.0191 1.33145,3.2289 -0.75971,1.3365 -4.35858,-3.9445 -9.51628,0.7039 -8.59571,7.7469 0.23124,1.7691 0.45081,3.5541 0.48793,3.9666 0.0371,0.4125 1.21905,0.75 2.62651,0.75 1.45136,0 2.2915,0.4328 1.94098,1 -0.89576,1.4494 -3.13041,1.2267 -4.83929,-0.4821 z m -1.91071,-5.4634 c 0.1375,-0.03 0.25,-0.5045 0.25,-1.0545 0,-1.1072 -10.9236,-1.3653 -15.875,-0.375 -3.01786,0.6036 -4.27729,2.8242 -2.02712,3.5743 0.79468,0.2649 13.90818,-1.3284 17.65212,-2.1448 z"
       id="path4165"
       inkscape:connector-curvature="0" />
  </g>
</svg>
