<?xml version="1.0" encoding="UTF-8" standalone="no"?>
<!-- Created with Inkscape (http://www.inkscape.org/) -->

<svg
   xmlns:dc="http://purl.org/dc/elements/1.1/"
   xmlns:cc="http://creativecommons.org/ns#"
   xmlns:rdf="http://www.w3.org/1999/02/22-rdf-syntax-ns#"
   xmlns:svg="http://www.w3.org/2000/svg"
   xmlns="http://www.w3.org/2000/svg"
   xmlns:xlink="http://www.w3.org/1999/xlink"
   xmlns:sodipodi="http://sodipodi.sourceforge.net/DTD/sodipodi-0.dtd"
   xmlns:inkscape="http://www.inkscape.org/namespaces/inkscape"
   width="530.86438"
   height="900.13953"
   id="svg2"
   version="1.1"
   inkscape:version="0.48.3.1 r9886"
   sodipodi:docname="One-arm-upright-row-1.svg">
  <defs
     id="defs4">
    <radialGradient
       gradientUnits="userSpaceOnUse"
       gradientTransform="matrix(1,0,0,0.91819829,-19.285714,-7.9105395)"
       r="209.56604"
       fy="287.50052"
       fx="398.1105"
       cy="287.50052"
       cx="398.1105"
       id="radialGradient5255"
       xlink:href="#linearGradient5249"
       inkscape:collect="always" />
    <linearGradient
       id="linearGradient5249"
       inkscape:collect="always">
      <stop
         id="stop5251"
         offset="0"
         style="stop-color:#e3e3e3;stop-opacity:1;" />
      <stop
         id="stop5253"
         offset="1"
         style="stop-color:#e3e3e3;stop-opacity:0;" />
    </linearGradient>
  </defs>
  <sodipodi:namedview
     id="base"
     pagecolor="#ffffff"
     bordercolor="#666666"
     borderopacity="1.0"
     inkscape:pageopacity="0.0"
     inkscape:pageshadow="2"
     inkscape:zoom="0.7"
     inkscape:cx="-323.12687"
     inkscape:cy="482.00362"
     inkscape:document-units="px"
     inkscape:current-layer="layer1"
     showgrid="false"
     showguides="true"
     inkscape:guide-bbox="true"
     fit-margin-top="0"
     fit-margin-left="0"
     fit-margin-right="0"
     fit-margin-bottom="0"
     inkscape:window-width="1615"
     inkscape:window-height="1026"
     inkscape:window-x="65"
     inkscape:window-y="24"
     inkscape:window-maximized="1">
    <sodipodi:guide
       orientation="-0.70710678,0.70710678"
       position="-2093.9865,881.75861"
       id="guide2985" />
  </sodipodi:namedview>
  <metadata
     id="metadata7">
    <rdf:RDF>
      <cc:Work
         rdf:about="">
        <dc:format>image/svg+xml</dc:format>
        <dc:type
           rdf:resource="http://purl.org/dc/dcmitype/StillImage" />
        <dc:title></dc:title>
      </cc:Work>
    </rdf:RDF>
  </metadata>
  <g
     inkscape:label="Ebene 1"
     inkscape:groupmode="layer"
     id="layer1"
     transform="translate(-665.41501,-8.2669695)">
    <path
       style="fill:#000000"
       d="m 1016.804,907.42819 c -1.6773,-0.7673 -4.2648,-2.83922 -5.75,-4.60432 -3.4374,-4.08508 -3.4585,-7.37362 -0.1426,-22.15434 4.0546,-18.07323 4.5525,-21.95433 3.2712,-25.49788 -0.9323,-2.57819 -0.7026,-5.3042 1.266,-15.02658 4.6396,-22.91295 2.389,-55.94725 -5.0673,-74.37702 -11.23341,-27.76585 -13.66939,-43.05973 -14.55089,-91.35553 -0.46348,-25.39313 -0.76832,-29.57284 -2.54056,-34.83365 -1.10764,-3.28797 -2.63956,-12.12799 -3.40428,-19.64448 -0.76471,-7.51649 -2.31644,-16.59134 -3.44829,-20.16634 -1.66388,-5.25547 -2.06171,-9.18052 -2.0778,-20.5 -0.0149,-10.4824 -0.52083,-16.08947 -2.01356,-22.31608 -1.0965,-4.57384 -2.50759,-13.79884 -3.13574,-20.5 -0.92413,-9.85861 -1.50313,-12.47597 -3.03378,-13.71419 -1.57081,-1.27071 -2.22657,-4.57833 -3.86604,-19.5 -3.43865,-31.29703 -4.14653,-31.98974 -5.84501,-5.71973 -1.64308,25.41306 -1.7548,26.01244 -4.98106,26.72239 -2.4904,0.54801 -2.72771,1.15087 -4.44948,11.30325 -1.00033,5.8984 -2.43009,16.00186 -3.17726,22.45215 -0.74716,6.45028 -1.63599,12.1768 -1.97516,12.7256 -0.33918,0.5488 -1.23886,6.30641 -1.99929,12.7947 -0.76042,6.48828 -2.0841,13.81176 -2.9415,16.27439 -0.8574,2.46264 -1.58116,6.72752 -1.60835,9.47752 -0.0272,2.75 -0.72486,8.6 -1.55037,13 -3.02067,16.10031 -3.49711,21.41089 -3.90176,43.49029 -0.59482,32.45648 -3.5722,53.32395 -11.55847,81.00971 -10.93233,37.89875 -13.65644,67.07951 -8.5645,91.74317 1.88045,9.10824 2.12159,11.99105 1.26993,15.1818 -0.89907,3.3684 -0.66955,5.07059 1.58531,11.75684 1.89185,5.60986 2.47896,8.97268 2.07855,11.90544 -0.37493,2.7461 -0.0298,5.10875 1.0518,7.20034 0.88541,1.7122 1.60984,5.32475 1.60984,8.02789 0,9.36823 -5.74063,12.93506 -18.88687,11.735 -9.02626,-0.82396 -11.16396,-0.88906 -17.11313,-0.52113 -6.36868,0.39387 -23.08269,-1.46728 -25.68426,-2.86002 -1.20134,-0.64313 -3.36842,-1.16933 -4.81574,-1.16933 -5.2741,0 -11.15202,-4.62821 -12.06611,-9.5007 -1.057,-5.63431 1.27781,-11.38436 6.90061,-16.99447 3.3639,-3.35631 5.76524,-6.87174 6.88505,-10.07934 0.94576,-2.70902 5.4088,-10.77549 9.91787,-17.92549 l 8.19832,-13 -0.0771,-10.10271 c -0.13121,-17.19203 -1.81495,-24.81791 -15.67796,-71.00772 -3.31697,-11.05174 -4.99675,-26.62388 -4.19465,-38.88585 1.37953,-21.08927 7.0263,-48.21647 13.14165,-63.13272 8.44951,-20.6096 9.31581,-24.9561 9.54112,-47.871 0.1242,-12.63205 -0.25375,-16.89436 -2.39417,-27 -6.01575,-28.40236 -8.70467,-43.3417 -8.69015,-48.28138 0.0106,-3.59391 -0.42794,-5.45156 -1.37241,-5.81399 -1.10974,-0.42585 -1.55091,-6.08189 -2.20101,-28.21862 -1.1145,-37.95005 -1.08812,-38.47235 2.91735,-57.77276 1.95033,-9.39772 4.08277,-21.99772 4.73875,-28 1.74577,-15.97402 9.62233,-39.10273 15.22434,-44.70474 2.13678,-2.13678 2.20472,-2.84616 2.09188,-21.84008 -0.13053,-21.97204 -1.47257,-28.92004 -7.38163,-38.21594 -4.65405,-7.3216 -12.95601,-24.21447 -16.04698,-32.65249 -1.51104,-4.125 -3.07024,-7.5 -3.46488,-7.5 -0.39465,0 -3.47882,4.84665 -6.85371,10.77034 -8.67005,15.21787 -14.9549,23.3187 -21.1815,27.30181 -2.9035,1.85735 -6.98184,5.52594 -9.06297,8.15242 -6.1215,7.72562 -9.70105,11.3463 -12.8429,12.99047 -3.28118,1.71709 -12.96976,2.01041 -14.85043,0.44959 -2.53924,-2.10738 -12.14439,-5.23434 -19.02051,-6.19214 -8.58085,-1.19525 -19.48488,-4.38989 -25.67787,-7.52305 -4.91239,-2.48528 -9.85417,-7.32305 -15.01545,-14.69944 -1.82797,-2.6125 -3.63733,-4.75 -4.02079,-4.75 -0.38346,0 -0.64468,11.5875 -0.58048,25.75 l 0.11672,25.75 -2.5,0 -2.5,0 -0.61266,-28.5 c -0.33697,-15.675 -0.68136,-44.7 -0.76532,-64.5 -0.084,-19.8 -0.499,-35.455 -0.92232,-34.78888 -0.42332,0.66612 -2.80691,2.11229 -5.29686,3.21371 -2.48995,1.10142 -5.39814,2.96499 -6.46265,4.14126 -3.06266,3.3842 -6.94345,4.93391 -12.35551,4.93391 l -5.01464,0 0.21498,54.75 0.21498,54.75 -2.5,0 -2.5,0 -0.8487,-50 c -0.60935,-35.89888 -1.1734,-50.17937 -2,-50.63601 -1.22502,-0.67674 -7.69732,-5.68843 -12.81403,-9.92228 -2.60571,-2.15611 -3.13449,-3.35157 -3.3636,-7.60451 -0.14951,-2.77543 -0.99226,-6.43935 -1.87276,-8.14206 -0.8805,-1.7027 -1.60091,-3.81515 -1.60091,-4.69434 0,-0.87919 -1.83207,-4.19639 -4.07127,-7.37158 -5.77947,-8.19527 -6.01364,-11.62157 -1.53391,-22.44344 1.98285,-4.79006 3.60518,-9.79446 3.60518,-11.12089 0,-1.32643 1.51214,-4.39271 3.36031,-6.81394 2.11481,-2.77056 3.61391,-6.09339 4.04452,-8.96488 0.52724,-3.51592 1.61769,-5.48687 4.75331,-8.59145 3.09009,-3.05951 4.28442,-5.19159 4.96407,-8.86172 0.49224,-2.6581 1.8554,-6.13914 3.02926,-7.73566 2.1099,-2.8696 2.12979,-3.34924 1.7414,-42.000004 l -0.39287,-39.09724 2.5,0 2.5,0 0.61455,20 c 0.338,11 0.6755,28.8875 0.75,39.75 0.10678,15.569274 0.41337,19.750004 1.44836,19.750004 1.85027,0 6.35038,4.9457 7.66477,8.42372 1.39155,3.68218 0.52097,8.02124 -2.56912,12.80484 -1.32471,2.05071 -2.40856,4.11846 -2.40856,4.59501 0,2.61514 3.87822,4.11056 23.87315,9.20533 l 3.37315,0.85949 -0.37315,-57.194204 -0.37315,-57.19419 2.5,0 2.5,0 0.60776,30 c 0.33427,16.5 0.67177,44.340594 0.75,61.867984 l 0.14224,31.86799 3,3.41681 c 4.26655,4.85933 4.22341,10.88424 -0.11328,15.82346 -2.58991,2.94974 -2.90142,3.80113 -1.85298,5.06441 0.97104,1.17003 0.99704,2.09639 0.11328,4.03602 -0.63086,1.38459 -1.14702,5.61246 -1.14702,9.39527 l 0,6.87784 5.29928,2.87021 c 2.9146,1.57862 9.3271,4.5939 14.25,6.70063 20.44859,8.75087 27.77446,13.48719 33.00004,21.33521 l 3.82473,5.74417 1.83479,-6.5 c 1.00913,-3.575 2.68644,-8.34523 3.72735,-10.60052 2.48797,-5.39054 12.39431,-16.01728 17.23228,-18.48543 3.18268,-1.62368 3.83153,-2.47341 3.83153,-5.01776 0,-1.68469 0.9277,-6.69652 2.06156,-11.13741 6.54135,-25.61994 15.87792,-33.32742 51.21493,-42.27874 4.93148,-1.24921 9.69616,-3.61441 17.5,-8.68704 12.15338,-7.89991 21.56697,-12.88356 28.81154,-15.25314 l 4.96065,-1.62255 -0.22202,-12.16637 c -0.20397,-11.17741 -0.46777,-12.69954 -3.24541,-18.725694 -3.93187,-8.5303 -5.03724,-16.74045 -5.06144,-37.59385 -0.0149,-12.81663 0.38103,-18.42152 1.58931,-22.5 3.22168,-10.87458 8.69428,-17.49647 18.6778,-22.60026 4.41083,-2.2549203 6.84898,-2.7353203 15.84329,-3.1216603 18.61283,-0.7995 27.71878,1.9374903 36.57195,10.9924703 7.11173,7.27386 8.33831,11.41711 9.4708,31.99139 1.16885,21.23486 0.20547,32.85712 -3.68067,44.40372 -2.44536,7.265734 -2.60336,8.698224 -1.95986,17.768934 l 0.69993,9.86608 4.13382,-0.64962 c 2.2736,-0.35729 5.86134,-0.92415 7.97284,-1.25969 2.1114,-0.33554 6.8364,-0.0458 10.5,0.64381 l 6.661,1.25389 7.6331,-4.02372 c 10.1161,-5.33254 15.369,-5.92568 32.3151,-3.64891 12.5714,1.68902 13.7328,1.69569 20.1951,0.11593 3.9536,-0.96648 8.7619,-3.02408 11.3567,-4.8598 2.475,-1.75102 6.1812,-4.29909 8.2361,-5.66239 2.0548,-1.36331 3.9671,-3.20652 4.2494,-4.09604 0.8104,-2.553234 10.9693,-8.715364 16.5919,-10.064204 2.8649,-0.68729 8.4829,-1.03043 12.7691,-0.77992 9.2523,0.54074 16.7003,3.8031 28.6535,12.550734 4.9481,3.62115 10.9038,6.90277 15.6118,8.60223 4.2429,1.53158 8.756,3.94216 10.197,5.44659 5.5176,5.76055 7.4065,15.33658 3.6889,18.70101 -1.1013,0.99662 -3.0486,3.68407 -4.3274,5.97211 -2.1245,3.80113 -2.2122,4.48611 -1.0169,7.93883 1.6525,4.77295 3.3573,18.18865 3.3117,26.06076 -0.1228,21.20201 -10.7714,43.20366 -22.4651,46.41619 -9.6675,2.65587 -29.9883,0.31778 -36.5914,-4.21018 -1.7483,-1.19888 -4.9123,-5.06444 -7.031,-8.59013 l -3.8523,-6.41035 -7.2627,0.23316 c -6.0902,0.19553 -8.1505,0.74605 -12.7626,3.41035 -5.2689,3.0437 -5.9622,3.17719 -16.5,3.17719 -7.0923,0 -12.159,-0.48899 -14.2625,-1.37648 -2.6581,-1.1215 -4.0722,-1.14976 -7.6339,-0.15254 -6.3231,1.77037 -6.9957,3.78181 -6.6968,20.02902 0.1986,10.79259 -0.272,16.55606 -2.3466,28.73846 -3.6586,21.48469 -7.0781,30.5726 -17.407,46.26154 l -5.596,8.5 0.054,15.5 c 0.068,19.33262 2.3348,33.06207 5.7041,34.54107 1.6345,0.71751 2.3817,2.21772 2.9679,5.95893 1.047,6.68329 4.9216,23.0788 9.2163,39 4.073,15.09869 5.5205,22.98675 8.9921,49 1.3946,10.45 4.0454,26.2 5.8907,35 l 3.355,16 -2.7472,1.37389 c -2.7263,1.36338 -2.7527,1.47443 -3.4506,14.5 -0.704,13.13911 -3.9193,33.39336 -7.5869,47.79272 -1.5817,6.20939 -1.9528,11.0962 -1.9528,25.70995 0,19.93274 1.6804,33.99888 5.5101,46.12344 1.3029,4.125 4.4423,13.94592 6.9765,21.82426 13.7742,42.82185 13.7693,59.55894 -0.032,108.99865 -8.0449,28.81998 -9.867,38.04152 -9.9142,50.17709 l -0.041,10.5 6.4697,11 c 3.5583,6.05 8.3515,14.74887 10.6516,19.33081 2.3,4.58195 5.0779,9.30695 6.1731,10.5 4.8686,5.30359 10.2056,14.15907 10.2056,16.93376 0,3.40627 -4.7054,8.38871 -8.8667,9.38873 -1.4483,0.34805 -4.8833,1.76436 -7.6333,3.14736 -5.8847,2.95948 -15.9306,3.86218 -34.25,3.07768 -2.0625,-0.088 -6.9,0.1404 -10.75,0.5081 -5.0733,0.4847 -7.8394,0.2847 -10.0496,-0.7263 z m 18.1185,-8.8735 c 2.394,-1.09079 2.5983,-1.61048 2.1604,-5.49568 -0.5963,-5.29061 0.7666,-5.54413 2.9082,-0.54096 0.8828,2.0625 1.9439,4.425 2.358,5.25 1.1079,2.20731 21.4303,1.99077 25.5665,-0.27241 1.6159,-0.88416 4.5466,-1.86518 6.5128,-2.18002 4.0656,-0.65106 7.9252,-3.7691 7.9252,-6.40259 0,-0.9774 -2.6607,-4.56462 -5.9127,-7.9716 -4.0104,-4.20149 -7.599,-9.4889 -11.1539,-16.43393 -4.46,-8.71342 -8.8585,-15.80752 -14.6834,-23.68216 -5.0982,-6.89223 -3.0965,-29.83238 5.3712,-61.55729 3.0828,-11.55 6.6634,-25.02217 7.9568,-29.93815 4.5816,-17.41361 5.4909,-38.46059 2.3232,-53.77467 -0.6016,-2.90795 -5.1004,-17.76173 -9.9975,-33.00839 l -8.9037,-27.72122 -0.088,-11.27878 c -0.048,-6.20334 -0.3906,-13.52879 -0.7608,-16.27879 l -0.6732,-5 -1.8747,7.82886 c -1.6648,6.95301 -2.0421,7.66134 -3.372,6.33143 -1.3299,-1.3299 -1.3179,-2.99391 0.1075,-14.87388 0.8827,-7.35705 2.3127,-15.3812 3.1777,-17.83143 5.1348,-14.54352 11.4831,-48.2858 11.4831,-61.03445 0,-4.35629 -0.1474,-7.92053 -0.3276,-7.92053 -0.1802,0 -3.0452,1.10425 -6.3667,2.45389 -12.2136,4.96283 -45.4525,9.5646 -58.49987,8.09904 l -5.69416,-0.63961 0.42685,3.29334 c 0.23477,1.81134 0.92173,8.91792 1.52657,15.79241 0.60483,6.87449 1.22377,12.62313 1.3754,12.77477 0.15164,0.15163 0.84537,-2.40873 1.54164,-5.68968 0.69627,-3.28096 1.88512,-6.20298 2.6419,-6.49338 1.77901,-0.68268 1.76014,1.52467 -0.11039,12.90922 -2.23244,13.58728 -1.93946,25.76468 0.90899,37.78044 1.33245,5.62076 2.92811,15.07802 3.54592,21.01614 1.26204,12.1304 4.19335,23.20152 9.42575,35.59927 3.3204,7.86746 3.6838,10.10415 1.6417,10.10415 -0.4653,0 -2.0327,-2.025 -3.4831,-4.5 -1.4505,-2.475 -2.7308,-4.50101 -2.8451,-4.50225 -0.8135,-0.009 2.6154,48.98931 4.3739,62.50225 1.4848,11.40939 7.3962,36.27799 11.4099,48 5.5385,16.17572 6.6214,24.76767 6.4276,51 -0.1446,19.57792 -0.4488,23.81317 -2.0446,28.46534 -2.2936,6.68673 -2.3124,7.97009 -0.2146,14.62518 1.639,5.19947 1.6263,5.35923 -1.0048,12.58789 -1.4657,4.02688 -2.6627,8.37673 -2.66,9.66635 0,1.28962 -0.9582,5.51518 -2.1352,9.39013 l -2.1399,7.04536 2.3899,1.81509 c 1.3145,0.9983 3.29,2.02294 4.39,2.27699 3.0776,0.71077 12.1162,-0.24036 15.0689,-1.58569 z m 13.4647,-6.96328 c -2.3134,-3.79447 -2.5305,-5.39823 -0.8698,-6.42459 1.6226,-1.00286 6.0145,4.36336 5.6402,6.89146 -0.4906,3.31343 -2.5909,3.10788 -4.7704,-0.46687 z m 12.6676,-1.45546 c -1.0357,-1.03574 -0.8523,-5.3679 0.2273,-5.3679 1.4877,0 4.1962,3.12574 3.7833,4.36607 -0.4498,1.35106 -3.0195,1.99295 -4.0106,1.00183 z m -31.3249,-44.82952 c -0.7984,-2.08055 0.4056,-3.54931 4.2136,-5.14041 4.522,-1.88941 9.4101,-1.83641 9.4101,0.10203 0,0.825 -0.833,1.5 -1.8511,1.5 -1.0181,0 -3.9588,1.12072 -6.535,2.49049 -3.8329,2.03795 -4.7846,2.22836 -5.2376,1.04789 z m -1.7517,-99.73354 c -0.3004,-3.46766 -0.5169,-6.97984 -0.4811,-7.80484 0.199,-4.58729 -2.576,-31.75593 -4.6985,-46 -2.8391,-19.05379 -2.9833,-22 -1.0768,-22 2.2151,0 4.7929,11.35553 5.6705,24.97938 0.4436,6.88634 1.543,19.49562 2.4431,28.02062 1.7765,16.82454 1.7189,28.11006 -0.1464,28.72548 -0.7682,0.25345 -1.3504,-1.76157 -1.7108,-5.92064 z m 1.3754,-88.86421 c -1.2721,-0.87243 -1.1201,-1.28773 1,-2.7331 6.9481,-4.7368 9.999,-8.65204 11.0117,-14.13126 1.4583,-7.89035 2.739,-8.35369 3.6808,-1.33168 0.6681,4.98052 -2.0547,10.54298 -7.623,15.57362 -4.2859,3.87211 -5.6168,4.3046 -8.0695,2.62242 z m -28,-50.01397 c 0,-0.66339 0.6799,-1.70578 1.5109,-2.31642 0.8311,-0.61063 3.6693,-4.70963 6.3071,-9.10888 4.9242,-8.2122 10.0108,-12.82232 13.5639,-12.29336 3.3582,0.49994 2.8186,2.31863 -1.2162,4.09878 -5.0423,2.22468 -6.7129,4.17787 -11.0593,12.93056 -3.0293,6.1005 -4.0465,7.31329 -6.3564,7.57908 -1.655,0.19042 -2.75,-0.16388 -2.75,-0.88976 z m 28.5767,-1.77822 c -1.896,-3.66645 -7.9032,-8.94129 -11.0951,-9.7424 -2.4915,-0.62532 -3.324,-2.7674 -1.511,-3.88789 2.8472,-1.75966 16.0294,9.70801 16.0294,13.94455 0,3.36565 -1.5961,3.21913 -3.4233,-0.31426 z M 919.25792,895.59572 c 3.09988,-1.93591 3.26124,-3.39924 1.08665,-9.85442 -1.09505,-3.25059 -1.9897,-7.38685 -1.98812,-9.1917 0.002,-1.80485 -1.20656,-6.13084 -2.68476,-9.61331 -2.46791,-5.81409 -2.58488,-6.67256 -1.43069,-10.5 2.30059,-7.62903 2.33442,-9.49012 0.28816,-15.85158 -1.78343,-5.54437 -2.04537,-9.12869 -2.14248,-29.31666 -0.12587,-26.16856 0.97388,-34.88431 6.43515,-51 4.01173,-11.83824 9.98209,-36.99774 11.41689,-48.11156 1.73368,-13.42896 4.28141,-49.5721 3.93957,-55.88844 l -0.32471,-6 -2.27032,4.25 c -1.24868,2.3375 -2.93618,4.25 -3.75,4.25 -2.08546,0 -1.92315,-0.78785 2.09344,-10.16139 5.38409,-12.56488 8.17575,-23.33716 9.86014,-38.04762 0.83702,-7.31004 2.42424,-16.66599 3.52716,-20.79099 2.45142,-9.16851 2.66375,-22.94107 0.53958,-35 -1.90878,-10.83615 -1.93902,-14.1057 -0.12404,-13.40922 0.75678,0.2904 1.94563,3.21242 2.6419,6.49338 0.69627,3.28095 1.41192,5.81939 1.59034,5.64097 0.25617,-0.25617 3.35181,-24.72618 3.38094,-26.72513 0.004,-0.275 -10.67941,-0.52033 -23.74093,-0.54517 -16.99656,-0.0323 -26.99548,-0.52837 -35.17015,-1.74474 -6.28206,-0.93475 -11.6348,-1.48668 -11.89498,-1.22651 -1.505,1.50501 5.24436,37.90145 9.73865,52.51642 2.76328,8.98589 4.17443,16.67925 5.60617,30.56398 0.48532,4.70652 0.29373,6.33916 -0.85583,7.29322 -1.26774,1.05213 -1.74508,0.10961 -3.3132,-6.54203 l -1.83208,-7.77126 -0.70577,3.97805 c -0.38817,2.18792 -0.73169,9.39285 -0.76339,16.01095 l -0.0576,12.03291 -9.388,29.46709 c -9.66177,30.3264 -11.612,39.35329 -11.612,53.74776 0,9.92187 2.50349,26.31266 5.65592,37.03031 7.16712,24.36684 12.33145,46.54944 13.7798,59.18902 2.05173,17.90526 1.26315,22.9781 -4.85098,31.20583 -2.47194,3.32648 -7.30669,11.47197 -10.74388,18.10109 -4.38489,8.45691 -7.7782,13.56562 -11.37345,17.12302 -6.32178,6.25522 -7.60809,8.43867 -6.35297,10.78389 1.2314,2.30089 6.09745,4.78617 9.37108,4.78617 1.42167,0 3.72734,0.74859 5.12372,1.66353 3.55042,2.32633 24.25879,2.6007 25.39523,0.33647 0.41407,-0.825 1.47518,-3.1875 2.35802,-5.25 2.12986,-4.97583 3.23094,-4.74351 2.80657,0.59217 -0.31662,3.9811 -0.10934,4.43379 2.4928,5.44391 6.32993,2.45722 14.34518,2.47549 18.24248,0.0416 z m -36.90434,-6.2998 c 0,-3.40683 4.65083,-8.27704 6.31499,-6.61288 0.8806,0.8806 0.6811,2.05285 -0.82727,4.86093 -2.46735,4.59339 -5.48772,5.55764 -5.48772,1.75195 z m -11.29876,-2.15997 c -1.07695,-1.07694 -0.84726,-2.07902 0.87019,-3.79647 2.35239,-2.3524 3.59965,-1.90269 3.24499,1.17002 -0.30247,2.62061 -2.63337,4.10827 -4.11518,2.62645 z m 29.39148,-45.9907 c -2.42401,-1.30746 -5.23651,-2.3772 -6.25,-2.3772 -1.0135,0 -1.84272,-0.675 -1.84272,-1.5 0,-3.2493 12.28417,-0.529 13.64684,3.02206 1.12343,2.92762 -1.08221,3.26721 -5.55412,0.85514 z m 3.91799,-100.6272 c 0.006,-4.5375 0.69767,-14.55 1.5373,-22.25 0.83963,-7.7 1.93413,-19.85 2.43223,-27 0.96931,-13.91419 3.41446,-24.5 5.65911,-24.5 1.85472,0 1.73012,3.2724 -0.6663,17.5 -1.11168,6.6 -2.45874,17.93799 -2.99349,25.19553 -0.53475,7.25754 -1.41499,16.25754 -1.9561,20 -0.54112,3.74246 -0.99276,9.61697 -1.00365,13.05447 -0.0155,4.88009 -0.34859,6.25 -1.51981,6.25 -1.21299,0 -1.49795,-1.57858 -1.48929,-8.25 z m -6.08025,-89.43179 c -6.66158,-6.01834 -9.82511,-14.7739 -6.96952,-19.28925 1.31626,-2.0813 1.88496,-1.13333 3.02796,5.04731 0.82735,4.47384 1.75604,6.12427 5.30269,9.42373 2.36482,2.2 5.17914,4.53921 6.25404,5.19824 1.68936,1.03576 1.75097,1.33878 0.45437,2.23469 -2.44854,1.69185 -3.78034,1.26032 -8.06954,-2.61472 z m 3.55827,-47.33645 c -1.99076,-3.22111 13.25991,-17.49121 16.53194,-15.46899 1.82065,1.12523 0.99433,3.26665 -1.50233,3.89327 -3.19187,0.80111 -9.19911,6.07595 -11.0951,9.7424 -1.53172,2.96201 -2.85567,3.57892 -3.93451,1.83332 z m 25.93996,-1.73176 c -0.81306,-1.5125 -2.72153,-5.225 -4.24104,-8.25 -2.18332,-4.3465 -3.84833,-6.12918 -7.93889,-8.5 -5.58224,-3.23537 -6.24444,-5.13081 -1.67056,-4.78175 4.35109,0.33206 7.33934,3.14359 12.57496,11.83132 2.62702,4.35917 5.46726,8.43092 6.31163,9.04834 2.33779,1.70944 1.83464,3.40209 -1.0113,3.40209 -1.75297,0 -3.00717,-0.85695 -4.0248,-2.75 z m 22.12986,-81.72985 c 4.25397,-0.81392 7.93818,-1.68354 8.18713,-1.9325 0.24895,-0.24895 1.31687,-10.72052 2.37316,-23.27014 1.05628,-12.54963 2.12253,-23.38001 2.36945,-24.06751 0.24692,-0.6875 1.76566,-1.25 3.37499,-1.25 3.78863,0 13.78275,-3.10799 25.8713,-8.04551 12.35874,-5.04789 15.55804,-5.64801 18.79674,-3.52592 1.8246,1.19553 2.2843,2.07844 1.6616,3.19121 -1.5878,2.83725 -20.6076,16.38022 -23.00444,16.38022 -4.26881,0 -1.95433,-3.08756 5.52458,-7.36989 10.76366,-6.16317 13.07336,-8.12878 11.48816,-9.77709 -1.0858,-1.12906 -2.1516,-0.87458 -6.5,1.5519 -2.86066,1.59633 -9.34525,5.09636 -14.41018,7.77783 -5.06492,2.68148 -9.46145,5.28395 -9.77005,5.78329 -0.3086,0.49933 0.34562,10.04875 1.45384,21.22092 1.10821,11.17217 2.01723,20.61325 2.02005,20.98018 0.0271,3.53035 31.85354,2.5465 52.36964,-1.6189 9.6771,-1.96475 13.2538,-3.2325 20.433,-7.24237 l 8.7025,-4.86072 -0.2282,-5.33808 c -0.1255,-2.93594 -1.4043,-10.1236 -2.8417,-15.97258 -1.4374,-5.84897 -3.4477,-16.70949 -4.4674,-24.13449 l -1.8539,-13.5 0.5416,11.5 c 0.2979,6.325 1.1669,13.3 1.931,15.5 1.7906,5.15474 1.7686,6.5 -0.1062,6.5 -2.2881,0 -3.0781,-3.06667 -5.4247,-21.05882 -5.9888,-45.91806 -6.179,-46.44235 -17.5851,-48.47713 -7.8214,-1.39531 -13.6687,-7.12017 -17.0442,-16.68743 -2.8221,-7.99844 -0.9614,-12.2685 3.2251,-7.40142 l 2.3187,2.69569 7.3528,-4.03545 c 4.044,-2.21949 8.1019,-4.03544 9.0175,-4.03544 1.0613,0 1.6627,-0.8155 1.6591,-2.25 -0.01,-3.81793 -2.0232,-9.75 -3.3098,-9.75 -0.6717,0 -3.3572,1.76501 -5.9678,3.92225 -3.4559,2.85586 -7.6651,4.88613 -15.4816,7.46742 -13.94859,4.60633 -20.18077,5.56707 -40.73522,6.27962 -28.75526,0.99685 -49.89953,-2.5463 -67.2834,-11.27467 -5.10587,-2.56364 -9.44295,-4.48869 -9.63796,-4.27789 -0.19501,0.2108 -2.663,5.18564 -5.48442,11.05521 -5.4872,11.41534 -6.38101,15.0244 -8.07344,32.59919 -0.59697,6.19912 -2.29649,16.77412 -3.77672,23.5 -2.5676,11.6667 -2.69105,13.51604 -2.6856,40.22887 0.003,15.4 0.35031,30.09726 0.77149,32.66057 0.69576,4.23446 1.12683,4.80504 4.71476,6.24064 4.57175,1.82926 16.43101,4.35196 22.95529,4.88306 12.92594,1.05222 39.33033,0.61887 46.55855,-0.76412 z m -72.09884,-39.76454 c -0.29774,-0.77589 -0.0176,-2.72581 0.62254,-4.33316 0.67902,-1.70499 1.50295,-13.12887 1.97781,-27.42245 1.12697,-33.92255 2.82422,-39.49826 12.77218,-41.95827 7.89653,-1.95272 12.82985,-4.81172 14.25982,-8.26399 0.76241,-1.84062 0.90994,-3.28549 0.35553,-3.48216 -2.71973,-0.9648 -17.85299,-10.93906 -17.89664,-11.79558 -0.12606,-2.47415 5.76227,-1.4501 12.56234,2.18475 4.36732,2.33446 7.29696,3.38514 7.54821,2.70706 1.09828,-2.964 3.14597,-4.67967 4.81904,-4.03765 1.45954,0.56008 1.654,1.40304 1.10935,4.80905 -1.59654,9.98423 -8.75256,19.97466 -15.31468,21.38064 -13.11152,2.80924 -13.59646,4.10995 -16.78515,45.02079 -0.86013,11.03555 -1.90931,21.35623 -2.33149,22.93484 -0.85512,3.19743 -2.86679,4.42445 -3.69886,2.25613 z m 62.86319,-0.35653 c -0.78932,-2.05692 0.9286,-3.08507 7.42312,-4.44264 6.35913,-1.32926 9.75398,-0.96605 9.75398,1.04356 0,0.9829 -1.37892,1.70773 -4,2.10258 -2.2,0.33142 -5.26679,1.11892 -6.8151,1.75 -3.84653,1.56783 -5.63527,1.44032 -6.362,-0.4535 z m 8.58634,-10.55762 c -6.19517,-3.30229 -8.86105,-4.13005 -14.5,-4.50226 -3.80008,-0.25083 -7.92174,-0.66333 -9.15924,-0.91668 -3.07494,-0.62951 -3.0096,-4.19377 0.0912,-4.97201 6.2627,-1.57184 36.13068,10.359 34.11159,13.62596 -0.93634,1.51503 -2.57634,1.01183 -10.5435,-3.23501 z m -24.30713,-48.6608 c -3.60583,-0.62966 -6.78322,-3.33289 -5.46589,-4.65021 0.31102,-0.31102 3.37785,0.15501 6.81518,1.03561 12.65428,3.24188 40.11228,0.0435 52.7986,-6.15006 2.8875,-1.4097 5.25,-3.02815 5.25,-3.59654 0,-0.58108 -0.766,-0.73065 -1.75,-0.34168 -3.08303,1.21868 -25.22923,0.57943 -35.14954,-1.0146 -17.45793,-2.8052 -27.10046,-6.0035 -27.10046,-8.98886 0,-2.30426 3.99138,-1.77899 12.11246,1.59402 9.9008,4.11219 20.0604,5.09636 40.12572,3.88701 10.83351,-0.65294 16.50514,-0.6279 17.82542,0.0787 2.47365,1.32385 2.56002,6.09162 0.14986,8.27278 -3.05968,2.76898 -11.10108,5.82406 -20.59506,7.82447 -9.66514,2.03646 -37.76454,3.3157 -45.01629,2.04937 z m 118.51741,-18.36447 c -1.1448,-4.02391 -2.8775,-10.1137 -3.8505,-13.53287 l -1.769,-6.21669 -8.5,5.528 c -4.675,3.0404 -8.6296,6.09296 -8.7881,6.78347 -0.6453,2.81271 3.9439,6.58967 10.4475,8.59844 3.6032,1.1129 7.3828,2.02346 8.3992,2.02346 1.0164,0 2.6565,1.08093 3.6447,2.40206 0.9882,1.32113 1.9544,2.25092 2.1472,2.06619 0.1927,-0.18473 -0.5862,-3.62816 -1.731,-7.65206 z m -61.09032,-25.40369 c 25.68712,-2.67869 23.84282,-2.10232 25.95712,-8.11229 2.4799,-7.04939 6.0977,-13.30021 7.6978,-13.30021 2.2019,0 1.3776,3.79692 -3.0828,14.19991 l -1.5863,3.69991 4.2425,-1.32697 c 7.2401,-2.26456 9.1481,-3.27185 12.0981,-6.38717 2.5835,-2.72823 2.7556,-3.33341 1.8065,-6.35064 -2.0415,-6.49 -3.3573,-22.641 -2.9653,-36.39933 l 0.3971,-13.93571 5.6602,-8.83432 c 10.3304,-16.12352 18.2042,-40.83434 19.4433,-61.01952 l 0.6048,-9.85383 -2.9011,1.51329 c -1.5956,0.83231 -4.9261,3.34504 -7.4011,5.58383 -9.1435,8.27085 -19.7041,11.95943 -39.0406,13.63594 -9.1417,0.7926 -25.50926,-1.49435 -30.16802,-4.21521 -4.06395,-2.37347 -6.7553,-6.74628 -5.14392,-8.35766 0.82424,-0.82424 2.30196,-0.21459 5.62141,2.31921 3.88666,2.96675 5.72613,3.59422 13.43489,4.58283 4.91242,0.62999 11.11958,1.14544 13.79364,1.14544 5.8388,0 25.6,-4.55016 30.5026,-7.02341 2.8681,-1.44691 15,-12.92182 15,-14.1877 0,-0.19777 -4.5902,-0.17522 -10.2003,0.0501 -11.5712,0.46476 -21.9811,-1.05483 -26.6415,-3.88897 -6.737,-4.09704 -14.51124,-19.89912 -16.47204,-33.48155 l -1.19525,-8.27943 -3.66805,1.26102 c -2.01743,0.69356 -5.30361,2.22602 -7.30262,3.40547 -4.49989,2.655 -5.52026,2.68596 -5.52026,0.1675 0,-2.51651 3.42737,-4.75448 10.73036,-7.00657 4.55303,-1.40406 5.84088,-2.25542 6.10749,-4.03746 0.29073,-1.94335 0.0119,-2.16391 -2,-1.58184 -14.12829,4.08759 -18.30792,4.29027 -17.64967,0.85584 0.2537,-1.32367 1.68008,-1.8986 5.8239,-2.34742 3.01836,-0.32693 7.26504,-1.50768 9.43709,-2.6239 3.80946,-1.9577 4.0117,-2.32019 5.71696,-10.247 1.2651,-5.88081 2.9857,-10.19469 6.05083,-15.17068 4.25396,-6.90603 6.47126,-8.59857 16.28306,-12.42935 3.3821,-1.32049 -7.2338,-2.28013 -13.8835,-1.25501 -6.20869,0.95716 -11.61652,3.21312 -11.61652,4.84604 0,0.53588 -0.45,0.97432 -1,0.97432 -0.55,0 -1.01068,-1.4625 -1.02374,-3.25 -0.0219,-3.0032 -0.19869,-2.82469 -2.32772,2.3508 -1.93688,4.70838 -10.08142,20.45992 -11.28017,21.81587 -0.20261,0.22916 -0.58149,0.20355 -0.84196,-0.0569 -0.26048,-0.26048 1.5566,-5.82431 4.03794,-12.36409 4.24242,-11.18124 8.43565,-25.20821 8.43565,-28.2185 0,-0.74038 -3.09824,1.75209 -6.88497,5.53883 -7.3189,7.31889 -9.27369,8.14927 -19.24003,8.17298 -8.81692,0.021 -10.64743,-0.8704 -19.93238,-9.70623 l -8.85512,-8.42679 1.90809,6.88557 c 1.04945,3.78707 4.16786,12.68138 6.9298,19.76514 2.76193,7.08376 4.81948,13.08178 4.57232,13.32894 -1.89989,1.89989 -10.40151,-14.52728 -13.37082,-25.83562 l -1.96933,-7.5 -0.32878,11.5 -0.32878,11.5 -2.75,0.31642 c -1.5125,0.17403 -2.75,-0.16347 -2.75,-0.75 0,-0.58653 0.45,-1.06642 1,-1.06642 0.55,0 1,-1.35857 1,-3.01905 0,-2.78821 -0.21027,-2.96816 -2.75,-2.35344 -6.61899,1.60207 -33.47115,16.41951 -42.00738,23.18033 -4.15333,3.2895 -6.24262,3.99658 -6.24262,2.1127 0,-1.95843 -18.06056,3.13729 -27.04015,7.62929 -4.80912,2.40574 -11.80388,9.31076 -14.26886,14.08581 -1.88778,3.65693 -6.33841,18.56148 -7.2087,24.14095 l -0.66707,4.27659 4.34239,-0.72578 c 7.56985,-1.26521 9.34239,-1.04273 9.34239,1.1726 0,1.60644 -1.0823,2.24537 -5.5,3.24691 -15.73956,3.56831 -21.3763,6.90198 -26.49467,15.66945 -2.66126,4.55857 -7.50533,20.35388 -7.50533,24.473 0,3.48312 2.59571,7.11064 5.08809,7.11064 2.46915,0 3.53907,2.5394 1.90134,4.51273 -3.27905,3.95102 -9.0317,-0.4134 -17.81657,-13.51704 -7.18845,-10.72241 -14.3871,-16.27627 -34.67286,-26.7506 -8.25,-4.2598 -15.3375,-7.89509 -15.75,-8.07842 -0.4125,-0.18334 -0.74945,13.54166 -0.74878,30.5 l 0.001,30.83333 6.08859,7.5 c 8.62893,10.62919 12.89287,14.90564 16.90899,16.95858 3.48924,1.78361 17.45746,5.29405 26,6.53423 2.475,0.35931 5.2875,0.87574 6.25,1.14763 1.13259,0.31993 1.75,-0.0587 1.75,-1.07305 0,-0.86207 0.34987,-1.56739 0.77749,-1.56739 1.24803,0 5.4289,3.02045 9.43751,6.81808 3.66578,3.47284 3.77178,3.50284 8,2.26431 6.53918,-1.91545 8.45591,-3.57552 10.20358,-8.83724 1.12129,-3.37592 3.37148,-6.57913 7.47244,-10.63731 5.93331,-5.8714 9.31801,-6.38657 4.52338,-0.68848 -1.57901,1.87654 -1.98919,2.8547 -1.04519,2.49246 1.88094,-0.72179 18.91491,-23.35585 24.39253,-32.41182 4.97485,-8.22476 6.87833,-14.11443 8.34987,-25.83581 0.78169,-6.22643 1.63877,-9.51491 2.57335,-9.87354 0.77071,-0.29575 1.63022,-0.3088 1.91001,-0.029 0.2798,0.2798 0.63821,6.07289 0.79648,12.87354 0.24699,10.61271 0.74686,13.85268 3.52767,22.86482 3.85376,12.48938 7.07134,18.79818 17.08088,33.49093 l 7.5,11.00907 -0.16938,26.5 -0.16939,26.5 6.63062,4 c 6.54815,3.95026 13.02327,7.28164 14.4334,7.42584 1.23664,0.12645 -1.10729,-4.93463 -4.42482,-9.5542 -2.41502,-3.36287 -2.88795,-4.68412 -1.99593,-5.57614 0.89202,-0.89202 1.78974,-0.59163 3.78871,1.26774 3.1019,2.88529 8.38405,11.74177 8.39741,14.07977 0.0118,2.05822 0.89962,2.39044 10.07371,3.76932 13.59644,2.04357 22.504,1.94671 45.96487,-0.49983 z m -12.63516,-11.82803 c -0.29875,-0.77854 -0.39713,-2.69104 -0.21861,-4.25 0.3932,-3.43381 4.32457,-4.19241 4.32457,-0.83447 0,1.1 0.36406,2.5625 0.80902,3.25 0.44496,0.6875 0.5309,1.7 0.19098,2.25 -0.92417,1.49534 -4.48386,1.20565 -5.10596,-0.41553 z M 925.1484,350.51805 c -0.86929,-1.53338 -1.2273,-6.1685 -1.12407,-14.55307 l 0.15148,-12.30308 -4.3543,-4.48025 c -4.97502,-5.11891 -6.02308,-7.50777 -4.52333,-10.31009 0.58047,-1.08461 1.0554,-3.12661 1.0554,-4.53777 0,-1.5083 0.56577,-2.56574 1.37277,-2.56574 0.9137,0 1.53093,1.64598 1.84572,4.92202 0.31828,3.3124 1.58463,6.65444 3.87236,10.21956 3.22449,5.02493 3.42981,5.89088 3.99004,16.82798 0.32485,6.34174 1.11776,12.8057 1.76202,14.36436 1.94844,4.71378 -1.5588,6.80706 -4.04809,2.41608 z m 75.7169,-1.5 c 0.4098,-1.5125 0.8917,-8.2488 1.0711,-14.96955 0.3145,-11.78408 0.4525,-12.45765 3.8717,-18.9007 2.2619,-4.26238 3.5455,-8.05335 3.5455,-10.47144 0,-3.70903 1.6645,-6.32165 2.371,-3.72169 2.9433,10.83011 2.6114,12.64723 -3.3444,18.31047 l -3.1519,2.99709 0.6601,12.00291 c 0.7374,13.4104 -0.1106,17.50291 -3.6267,17.50291 -1.8499,0 -2.0399,-0.37425 -1.3964,-2.75 z m -46.20167,-9.29717 c -2.30448,-0.45542 -5.27857,-1.54132 -6.6091,-2.41312 -2.56197,-1.67867 -4.97592,-1.28858 -7.97458,1.28866 -2.36862,2.03574 -4.73088,0.0869 -2.76536,-2.28139 2.53945,-3.05985 8.23905,-3.92145 14.29496,-2.16094 7.33584,2.13258 8.39519,2.0537 11.28948,-0.84059 2.04325,-2.04325 2.45358,-3.42566 2.44876,-8.25 -0.003,-3.1875 -0.45018,-8.49545 -0.99332,-11.79545 -1.16749,-7.09348 -0.42185,-12.5 1.72394,-12.5 1.20145,0 1.37422,0.85384 0.86282,4.26408 -0.40698,2.71391 0.0745,7.73378 1.32437,13.80834 2.60617,12.66616 1.36051,18.93972 -4.14142,20.8577 -3.41268,1.18967 -3.5539,1.19001 -9.46055,0.0227 z m 20.92382,-1.74153 c -2.57294,-1.98039 -4.90416,-8.94101 -3.47359,-10.37158 0.56066,-0.56066 1.95949,0.64954 3.57836,3.09581 2.45769,3.71383 2.86206,3.93866 5.36932,2.9854 3.42587,-1.30251 15.64634,0.59612 17.39447,2.70249 1.60209,1.93043 -0.36047,4.2067 -2.31005,2.67929 -3.39332,-2.65852 -7.29061,-3.06359 -11.81791,-1.22831 -5.58922,2.26575 -5.96707,2.27167 -8.7406,0.1369 z m -47.23387,-32.69098 c 0,-0.81382 1.73126,-2.3629 3.84725,-3.44239 2.11598,-1.0795 4.63681,-3.16775 5.60183,-4.64057 1.72049,-2.62578 1.90328,-2.66531 9.40276,-2.03326 6.24425,0.52626 8.28807,0.31888 11.13425,-1.12976 6.1911,-3.15113 6.48162,-4.65996 4.43326,-23.02434 -0.60023,-5.3813 -0.47198,-6.25 0.92271,-6.25 2.35394,0 3.15794,4.09672 3.15794,16.091 0,9.72611 0.14774,10.55237 1.80908,10.11792 1.23252,-0.32231 1.98613,0.20398 2.36462,1.65132 0.69756,2.66747 6.64125,4.41714 14.44928,4.25351 7.83598,-0.16422 16.87704,3.84702 16.87704,7.48782 0,0.8585 -1.8784,0.30354 -5.60157,-1.65499 -5.81966,-3.06132 -8.84215,-3.65571 -9.89845,-1.94658 -0.33992,0.55 -2.05398,0.99749 -3.80902,0.99442 -5.65897,-0.01 -11.08295,-2.13028 -14.3731,-5.61885 -2.5058,-2.65692 -3.38147,-3.09142 -4.01169,-1.99057 -1.95896,3.42189 -7.88483,5.64821 -14.64386,5.50165 -5.03947,-0.10927 -7.25335,0.30518 -9.26709,1.73489 -6.2176,4.41432 -8.01868,5.36822 -10.14524,5.3732 -1.32197,0.003 -2.25,-0.60504 -2.25,-1.47442 z m -126.61997,-2.98438 c -2.29313,-1.67678 0.016,-3.15624 5.91055,-3.78688 2.63482,-0.2819 5.59525,-1.24075 6.57874,-2.1308 0.98349,-0.89004 2.54023,-1.61826 3.45942,-1.61826 2.23336,0 2.14461,3.26165 -0.14514,5.33384 -2.40765,2.1789 -13.68607,3.75045 -15.80357,2.2021 z m 102.11997,-13.53594 c -1.50086,-2.90234 -1.78054,-3 -8.59142,-3 -3.87204,0 -7.85637,-0.43687 -8.85407,-0.97083 -2.31527,-1.23909 -5.05451,-8.04011 -5.05451,-12.54941 0,-4.81343 1.61643,-4.37614 2.28636,0.61853 0.3027,2.25679 1.56352,5.17747 2.80598,6.5 2.68918,2.8625 5.49027,3.2787 4.38605,0.65171 -1.89771,-4.51477 -1.76655,-6.25 0.47242,-6.25 1.66223,0 2.04504,0.43771 1.60244,1.83222 -0.71746,2.26052 1.86885,4.75333 5.94675,5.73177 4.2957,1.0307 10.5,4.29361 10.5,5.52208 0,1.674 -1.98427,4.91393 -3.0095,4.91393 -0.51653,0 -1.63725,-1.35 -2.4905,-3 z m 101.50002,1.03026 c 0,-1.49043 -1.1559,-2.30396 -4.75,-3.34322 -5.71758,-1.65325 -8.57703,-5.32071 -10.35987,-13.2873 -0.67402,-3.01185 -1.71254,-6.1233 -2.30782,-6.91434 -0.59528,-0.79103 -4.42377,-2.13427 -8.50776,-2.98497 -8.12685,-1.69284 -10.07457,-2.77991 -10.07457,-5.62287 0,-2.23259 1.27117,-2.37808 4.28518,-0.49046 1.21815,0.7629 5.79093,1.89835 10.16173,2.52321 10.69336,1.52875 11.95656,2.74101 11.21416,10.7619 -0.66728,7.20929 0.90329,10.04457 7.40005,13.35896 3.9856,2.03329 6.493,5.26319 5.4261,6.9895 -1.028,1.66328 -2.4872,1.08221 -2.4872,-0.99041 z m 13.5,-0.0303 c -0.9798,-1.58529 0.2933,-2.86158 5.4721,-5.48587 2.6568,-1.34631 5.8132,-3.69701 7.0141,-5.22376 1.8766,-2.3857 2.0893,-3.5307 1.5127,-8.14513 -0.7803,-6.24563 1.0597,-6.9057 3.0241,-1.08487 l 1.1609,3.43963 1.7214,-3.32299 c 1.1231,-2.16792 1.4981,-4.34041 1.0786,-6.25 -0.7601,-3.46104 0.8936,-3.95861 2.5944,-0.78058 2.0535,3.83689 0.5261,10.75492 -3.2226,14.59688 -1.8457,1.89152 -4.7057,4.81586 -6.3557,6.49854 -2.8706,2.92744 -9.6798,6.68988 -12.191,6.73619 -0.655,0.0121 -1.4691,-0.42804 -1.809,-0.97804 z M 916.35358,286.923 c 0,-2.72921 2.80399,-4.72274 9.22604,-6.55936 6.47096,-1.85061 7.2525,-2.87222 8.10573,-10.59563 0.46834,-4.23939 1.20969,-6.02375 3.23449,-7.7851 2.33054,-2.02732 3.50632,-2.25294 10.42256,-2 6.2946,0.2302 8.16856,-0.0519 9.73217,-1.4649 2.52072,-2.27797 4.27901,-2.22555 4.27901,0.12756 0,3.13595 -2.69843,4.39254 -11,5.12244 -4.36166,0.38349 -8.69068,1.32787 -9.62005,2.09863 -2.22536,1.84556 -4.37995,7.11614 -4.37995,10.71426 0,3.70861 -2.198,5.59735 -9,7.73366 -3.025,0.95007 -5.99961,2.34076 -6.61024,3.09042 -1.61706,1.98524 -4.38976,1.6808 -4.38976,-0.48198 z m 98.00002,-10.5363 c 0,-0.75972 1.5754,-2.58298 3.501,-4.05169 4.7294,-3.60731 6.7376,-7.81836 7.4236,-15.567 0.4298,-4.85537 0.9549,-6.5 2.0754,-6.5 1.016,0 1.6013,1.22967 1.814,3.811 0.2399,2.91165 0.7036,3.73597 1.9648,3.49308 1.9899,-0.38321 6.0635,-6.19237 6.8335,-9.74468 0.9694,-4.47272 1.3494,-5.2011 2.3806,-4.56377 3.459,2.13777 -2.3516,15.93529 -7.8714,18.6911 -2.0871,1.04203 -4.4613,3.58271 -6.2115,6.64711 -1.5581,2.72821 -4.036,5.90668 -5.5063,7.06327 -3.0441,2.39443 -6.4037,2.773 -6.4037,0.72158 z m -197.62002,-1.0708 c -0.75238,-1.96069 0.35853,-3.54789 2.48324,-3.54789 2.28333,0 10.11719,-4.99791 13.53354,-8.63424 3.80506,-4.05007 8.22515,-12.07891 9.56032,-17.36576 1.91094,-7.56672 3.19868,-10.11747 4.93339,-9.77203 2.86468,0.57045 2.14677,11.15858 -1.22254,18.03056 -4.82267,9.83621 -9.73762,15.1377 -17.75033,19.14629 -7.75757,3.88096 -10.66359,4.42074 -11.53762,2.14307 z m -40.38,-3.57297 c -1.375,-0.47695 -4.3417,-1.33971 -6.59266,-1.91723 -2.30139,-0.59046 -5.68757,-2.59899 -7.73665,-4.58903 -4.32469,-4.20009 -13.75701,-16.7708 -16.18565,-21.57106 -0.94544,-1.86868 -2.6324,-4.39691 -3.74879,-5.61828 -1.6688,-1.82574 -1.80569,-2.49072 -0.76972,-3.73899 0.69305,-0.83507 1.68318,-1.25682 2.20029,-0.93723 0.51711,0.3196 3.43174,4.44328 6.47695,9.16373 7.64646,11.85297 14.83033,18.59316 25.03699,23.49065 4.57558,2.19552 8.31924,4.61076 8.31924,5.36719 0,1.53255 -3.1388,1.6896 -7,0.35025 z m 131,-1.47492 c -3.22158,-1.72507 -6.14764,-2.42246 -10.29966,-2.45481 -6.97661,-0.0544 -10.79796,-1.84905 -13.6038,-6.38898 -2.55793,-4.13883 -2.92441,-14.17941 -0.62834,-17.21508 1.75167,-2.31592 1.66477,-2.5543 2.00374,5.49705 0.25125,5.96798 0.53497,6.68005 3.88487,9.75 1.9876,1.8215 4.29178,3.31182 5.12041,3.31182 1.32659,0 1.31547,-0.47764 -0.0931,-3.99797 -0.87982,-2.19888 -1.31143,-4.74913 -0.95913,-5.66722 0.78297,-2.04037 2.00411,-0.98923 4.38026,3.77046 1.27188,2.54772 3.44129,4.26801 8.69473,6.89473 5.84374,2.92187 7.05227,3.95424 7.31642,6.25 0.38155,3.316 -0.0555,3.33479 -5.81642,0.25 z m -2.59789,-21.497 c -16.66906,-2.44415 -25.9136,-10.48231 -31.34314,-27.253 -0.66774,-2.0625 -1.74168,-3.80445 -2.38652,-3.871 -0.64485,-0.0665 -4.54745,-0.17905 -8.67245,-0.25 -5.94267,-0.10221 -7.5,-0.44047 -7.5,-1.629 0,-2.20541 16.36913,-4.83629 19.94729,-3.20597 1.40399,0.6397 2.55271,1.83086 2.55271,2.64702 0,3.87198 4.66525,13.35584 8.6827,17.65081 7.66377,8.1932 18.2851,11.12365 40.3173,11.12365 13.90976,0 24.9588,-1.48739 29.06425,-3.91253 2.88803,-1.70601 6.35333,-1.13236 5.72401,0.94755 -1.79411,5.92948 -36.38445,10.68527 -56.38615,7.75247 z m 57.3084,-34.253 c -0.57173,-19.30756 -0.12441,-23.66256 2.17753,-21.2 0.48842,0.5225 1.09338,10.0625 1.34435,21.2 0.41738,18.52184 0.31216,20.25 -1.23296,20.25 -1.51035,0 -1.75279,-2.14489 -2.28892,-20.25 z m -93.02718,-18.4 c -1.80066,-1.80067 0.251,-21.33253 2.53151,-24.1 0.56653,-0.6875 1.64995,-1.25 2.4076,-1.25 1.92639,0 1.72998,4.70997 -0.64427,15.45018 -1.96196,8.87519 -2.97783,11.21683 -4.29484,9.89982 z m 70.77615,-17.42262 c -3.32229,-1.60023 -8.18057,-3.30932 -10.79619,-3.79797 -5.48723,-1.02513 -6.70655,-1.85845 -4.63433,-3.16725 4.12007,-2.60221 24.97104,4.51466 24.97104,8.52314 0,2.18633 -2.67329,1.7498 -9.54052,-1.55792 z m 14.81596,-5.65194 c -1.22351,-1.22351 -2.49751,-3.31206 -2.83111,-4.64123 -0.64686,-2.57731 -3.61419,-3.63421 -10.20331,-3.63421 -5.92401,0 -10.82582,-2.05379 -18.06439,-7.56872 -4.51351,-3.43877 -8.11392,-5.39949 -10.29973,-5.60907 -2.24417,-0.21517 -3.47065,-0.90355 -3.69203,-2.07221 -0.56022,-2.95729 3.99649,-2.09364 12.3751,2.34552 10.46416,5.54411 14.57738,6.90255 23.79734,7.85931 10.18002,1.05638 11.88119,2.56148 11.45065,10.1309 l -0.30796,5.41427 -2.22456,-2.22456 z m 3.97456,-30.00382 c -2.42697,-0.85097 -1.20222,-2.02364 2.77827,-2.66015 3.4661,-0.55425 4.11154,-1.06053 4.625,-3.62781 0.78255,-3.91275 3.34673,-3.95496 3.34673,-0.0551 0,3.21715 -2.20489,6.02868 -4.82143,6.14794 -0.92321,0.0421 -2.35357,0.20181 -3.17857,0.35495 -0.825,0.15314 -2.0625,0.0812 -2.75,-0.15984 z m -262.25,81.822 c 0,-1.42137 -0.51476,-1.77177 -2.0233,-1.37728 -1.91484,0.50075 -1.92824,0.60122 -0.25,1.87458 2.2894,1.73706 2.2733,1.74058 2.2733,-0.4973 z m 18.5302,-9.1144 c 2.47055,-1.69978 6.06193,-3.74651 7.98085,-4.54828 3.69313,-1.54309 4.4365,-3.77653 2.23895,-6.7269 -1.14345,-1.53517 -1.7188,-1.55247 -6.75,-0.20299 -3.416,0.91624 -10.14163,1.47971 -17.75,1.48708 -11.58729,0.0112 -12.25,-0.0963 -12.25,-1.98813 0,-1.88654 0.66659,-1.99999 11.75,-1.99977 9.71909,1.9e-4 13.30559,-0.4525 20.75,-2.61905 4.95,-1.4406 9.7875,-3.31044 10.75,-4.15521 2.15325,-1.88987 2.27035,-5.54923 0.23172,-7.24114 -2.36749,-1.96484 -9.32144,-2.86989 -13.34865,-1.73731 -1.99819,0.56196 -8.58307,1.1184 -14.63307,1.23654 -6.05,0.11814 -13.1375,0.56608 -15.75,0.99542 -5.0192,0.82487 -6.03437,-0.0522 -3.26533,-2.8213 0.93019,-0.93018 4.38481,-1.70063 9.25,-2.06291 4.27093,-0.31803 12.71533,-0.98448 18.76533,-1.48099 6.05,-0.49651 12.95813,-0.67373 15.35141,-0.39381 5.036,0.58901 8.44537,-0.88166 10.01129,-4.31849 1.49345,-3.27775 0.57896,-5.02578 -3.96539,-7.57985 -3.60628,-2.02684 -3.87427,-2.48179 -3.64489,-6.18762 0.27707,-4.47635 0.0731,-4.60306 -12.75242,-7.92274 -3.3,-0.85415 -7.90631,-2.13004 -10.23624,-2.83531 -4.78549,-1.44855 -12.27965,-0.33904 -21.82004,3.23048 -4.48864,1.67942 -5.48863,2.54805 -6.84983,5.95002 -0.87664,2.19093 -1.60208,4.98691 -1.61209,6.21328 -0.01,1.22637 -1.36001,4.20998 -3,6.63024 -4.33129,6.39203 -4.03413,10.21451 1.39324,17.92206 2.46222,3.49666 4.64437,7.89739 4.99105,10.06541 0.33881,2.11877 1.29504,4.41585 2.12496,5.10462 0.82992,0.68878 1.50895,2.8018 1.50895,4.69562 0,6.78454 0.48793,7.01799 13.96634,6.68225 11.62965,-0.28969 12.23654,-0.41395 16.56386,-3.39122 z m -26.5302,-47.29231 c 0,-3.3403 15.13664,-5.50994 26.88704,-3.85391 7.85151,1.10654 10.69869,2.56893 8.11291,4.16703 -0.81584,0.50421 -2.45799,0.67213 -3.64924,0.37315 -3.54715,-0.89028 -19.41835,-0.85428 -25.60071,0.0581 -4.94862,0.73028 -5.75,0.62654 -5.75,-0.74435 z m 353.00002,50.82174 c 0,-0.27024 -1.482,-2.43287 -3.2934,-4.80585 -4.6389,-6.07737 -7.2649,-12.72109 -9.6456,-24.40347 -4.3763,-21.47486 -1.118,-44.09952 7.7078,-53.51978 2.2887,-2.44293 2.3714,-2.7885 0.8106,-3.38746 -0.956,-0.36684 -5.2085,-0.42913 -9.45,-0.13841 -20.9793,1.43795 -28.98973,11.29155 -29.87269,36.74632 -0.52198,15.04833 1.12484,24.26916 6.16159,34.5 4.4205,8.97899 8.0329,12.41352 14.7718,14.04466 5.0926,1.23266 22.8099,1.98143 22.8099,0.96399 z m 124,-1 c 0,-0.27024 -1.49,-2.44327 -3.311,-4.82897 -1.821,-2.38569 -4.483,-7.90208 -5.9154,-12.25865 -7.6874,-23.38057 -4.8895,-53.10793 6.1856,-65.72184 l 3.248,-3.69919 -9.8536,0.0775 c -9.328,0.0734 -15.6969,1.45042 -20.4543,4.4225 -2.8254,1.76507 -8.7088,11.81496 -10.5377,18 -2.5311,8.55983 -2.5348,30.67533 -0.01,39 2.2591,7.4383 7.0429,16.58589 10.2488,19.59767 3.2038,3.0098 14.1471,5.77313 23.146,5.84468 3.9875,0.0317 7.25,-0.16346 7.25,-0.4337 z m -112,-8.0305 c 0,-0.62124 -1.0914,-2.15479 -2.4252,-3.4079 -3.751,-3.52385 -4.9991,-10.49282 -3.641,-20.32954 0.748,-5.41718 0.8337,-10.63913 0.2503,-15.24071 -0.9888,-7.79913 -0.5235,-14.2848 1.176,-16.39364 0.6178,-0.76649 2.8501,-2.12707 4.9609,-3.02351 l 3.8377,-1.62987 -4.7858,-7.22649 c -2.7169,-4.10258 -5.4972,-7.22649 -6.4314,-7.22649 -3.0256,0 -8.271,4.4532 -10.5198,8.93096 -3.4671,6.90369 -4.9335,15.48559 -4.7964,28.06904 0.1862,17.08307 4.9004,32.83447 12.3748,41.34737 l 3.2979,3.7561 3.351,-3.2479 c 1.843,-1.78635 3.351,-3.75619 3.351,-4.37742 z m 122.2618,2.02185 c 2.701,-3.01929 7.3138,-12.32805 9.1143,-18.39282 2.3711,-7.9871 3.0298,-19.46781 1.6933,-29.5111 -1.4069,-10.57244 -3.4602,-16.33278 -8.5613,-24.01791 -3.3698,-5.07684 -4.092,-5.6537 -6.4032,-5.11494 -7.1465,1.66592 -12.7365,12.46312 -15.0449,29.05996 -2.3265,16.72739 3.3702,40.96921 11.6813,49.70852 2.7836,2.92711 3.5005,2.76205 7.5205,-1.73171 z m -81.8792,-7.45537 c 1.3821,-0.52546 4.3113,-2.58018 6.5094,-4.56604 3.9676,-3.58445 4.046,-3.60623 10.8023,-2.9996 8.4379,0.75762 9.6336,0.10098 8.2491,-4.53012 -1.6781,-5.61322 -2.261,-23.79791 -1.0384,-32.39729 0.6215,-4.37163 2.2157,-10.3199 3.5427,-13.21836 7.0762,-15.45654 13.2531,-19.52014 30.638,-20.15603 17.3923,-0.63616 25.0191,2.01546 29.6913,10.32281 1.077,1.9149 1.2833,1.8429 4.8495,-1.69226 3.6543,-3.62251 3.702,-3.76789 2.5247,-7.69725 -1.5952,-5.3243 -6.3302,-9.07084 -17.1124,-13.53998 -4.8068,-1.99238 -10.582,-5.19957 -12.8339,-7.12707 -4.9821,-4.2645 -12.9542,-7.900154 -20.9398,-9.549564 -11.4952,-2.37429 -23.5035,2.464524 -28.7788,11.596564 -1.274,2.20526 -3.9297,9.18456 -5.9017,15.50956 -1.972,6.325 -4.7103,13.45843 -6.085,15.85207 -1.3748,2.39364 -2.4996,4.58925 -2.4996,4.87913 0,0.28988 3.6,0.21302 8,-0.1708 6.543,-0.57076 8,-0.44139 8,0.71036 0,2.49649 -4.9297,3.76595 -18.8628,4.85746 -14.8311,1.16185 -30.179,5.06412 -36.3266,9.23615 -3.4773,2.35983 -3.905,4.46131 -2.2483,11.0466 0.4274,1.69875 -0.031,7.60967 -1.1009,14.19416 -2.5667,15.79694 -0.9954,18.58502 9.9238,17.60875 l 4.8853,-0.43678 -0.6528,-7.63855 c -0.359,-4.2012 -0.9208,-10.16803 -1.2484,-13.25961 -0.6311,-5.95583 0.6646,-8.3654 3.0904,-5.74726 1.4365,1.55031 3.5403,13.52806 3.5403,20.15596 0,3.02189 0.5832,4.93021 1.8599,6.08561 3.1786,2.87655 14.8004,4.46681 19.5227,2.67138 z m -4.8259,-8.26714 c -1.8038,-2.57523 -2.2132,-18.92057 -0.5815,-23.21239 1.5678,-4.12345 3.0248,-2.96425 3.0248,2.40648 0,2.73437 0.7366,8.32413 1.637,12.42169 0.9004,4.09756 1.3645,8.16035 1.0314,9.02842 -0.8653,2.25483 -3.2957,1.94853 -5.1117,-0.6442 z m 16.6433,-8.97749 c -1.4591,-1.45908 -1.5787,-9.67385 -0.1939,-13.31618 1.5757,-4.14434 3.4895,-2.45929 3.527,3.1055 0.018,2.70087 0.6016,5.93248 1.2963,7.18135 0.6947,1.24886 0.9907,2.71136 0.6578,3.25 -0.8363,1.35319 -3.8387,1.22788 -5.2872,-0.22067 z m -5.8418,-23.69657 c -1.728,-0.44362 -4.7751,-1.81596 -6.7712,-3.04966 -3.3232,-2.05383 -4.0455,-2.14327 -8.5607,-1.06007 -5.1929,1.24575 -7.0263,0.83675 -7.0263,-1.56742 0,-1.76248 5.7231,-5.41735 8.4911,-5.42254 1.0951,-0.002 5.2655,1.61416 9.2675,3.59159 6.0288,2.97888 8.0879,3.52367 12.0089,3.17737 2.6029,-0.22987 5.5162,-0.76946 6.474,-1.19908 2.3505,-1.05423 3.5453,2.06811 1.5536,4.05983 -1.7432,1.7432 -10.9556,2.62045 -15.4369,1.46998 z m 34.3084,-40.7701 c -1.5458,-1.54588 -0.3451,-2.22861 5.0834,-2.89032 6.4518,-0.78645 12.3997,-3.39758 16.5066,-7.24644 2.0436,-1.91523 3.0478,-2.29211 3.8828,-1.45719 1.5856,1.58562 0.5441,3.63749 -3.3564,6.61257 -5.0448,3.84779 -19.9033,7.19446 -22.1164,4.98138 z m -403.06245,78.9375 c -0.3323,-0.33229 -0.56864,0.25834 -0.52522,1.3125 0.048,1.16495 0.28494,1.4019 0.60416,0.60417 0.28887,-0.72188 0.25335,-1.58438 -0.0789,-1.91667 z m -37.84547,-52.94291 c 6.14452,-1.43712 7.17164,-1.97204 6.69148,-3.48488 -0.31939,-1.00631 0.55066,-3.69471 1.9913,-6.15297 2.7967,-4.77221 3.13985,-7.72401 1.45859,-12.54687 -1.06623,-3.0586 -4.61963,-5.05259 -6.70606,-3.7631 -0.50582,0.31261 -1.50851,2.67153 -2.22821,5.24206 -0.7197,2.57052 -2.83157,6.66894 -4.69304,9.1076 -3.64944,4.78103 -5.27276,8.27082 -5.27276,11.33534 0,2.35868 -0.17931,2.3533 8.7587,0.26282 z m 383.10232,-1.81428 c 11.4317,-1.99513 13.9059,-3.65109 18.0274,-12.0653 3.1642,-6.45993 8.2704,-20.60046 7.6635,-21.22284 -0.1472,-0.15098 -3.9052,1.42402 -8.3511,3.5 -5.255,2.45377 -8.0165,4.29936 -7.8921,5.2745 0.3236,2.53781 -13.1298,2.5563 -21.1811,0.0291 -13.0567,-4.09833 -21.6414,-3.4979 -32.5975,2.27992 l -4.0301,2.12531 7,0.66314 c 12.065,1.14297 15.264,2.57341 19.9021,8.89934 2.2538,3.07399 4.9941,7.26912 6.0895,9.32251 1.6771,3.1438 2.3878,3.64817 4.5,3.19349 1.3796,-0.29698 6.2708,-1.19661 10.8694,-1.99918 z m -110.17578,-25.5136 c 3.01501,0 4.49448,-0.97282 10.28369,-6.76203 12.46094,-12.46095 17.04832,-25.585334 17.00397,-48.647934 -0.055,-28.59447 -1.86104,-36.6425 -9.84075,-43.85168 -5.80876,-5.24787 -9.13876,-6.66825 -18.38822,-7.84333 -21.39608,-2.71822 -34.75053,3.48547 -40.95579,19.02562 -2.02986,5.08348 -2.22787,7.26799 -2.22799,24.57935 -1.9e-4,29.56188 2.50963,36.59257 18.98566,53.184174 9.36975,9.43547 10.43821,10.21242 14.53371,10.56845 2.43126,0.21136 5.01978,0.24098 5.75227,0.0658 0.73248,-0.17512 2.91653,-0.31842 4.85345,-0.31842 z"
       id="path3020"
       inkscape:connector-curvature="0" />
  </g>
</svg>
