<?xml version="1.0" encoding="UTF-8" standalone="no"?>
<!-- Created with Inkscape (http://www.inkscape.org/) -->

<svg
   xmlns:dc="http://purl.org/dc/elements/1.1/"
   xmlns:cc="http://creativecommons.org/ns#"
   xmlns:rdf="http://www.w3.org/1999/02/22-rdf-syntax-ns#"
   xmlns:svg="http://www.w3.org/2000/svg"
   xmlns="http://www.w3.org/2000/svg"
   xmlns:sodipodi="http://sodipodi.sourceforge.net/DTD/sodipodi-0.dtd"
   xmlns:inkscape="http://www.inkscape.org/namespaces/inkscape"
   width="575.55243"
   height="899.75592"
   id="svg2"
   version="1.1"
   inkscape:version="0.48.3.1 r9886"
   sodipodi:docname="One-arm-flat-bench-flys-1.svg">
  <defs
     id="defs4" />
  <sodipodi:namedview
     id="base"
     pagecolor="#ffffff"
     bordercolor="#666666"
     borderopacity="1.0"
     inkscape:pageopacity="0.0"
     inkscape:pageshadow="2"
     inkscape:zoom="0.7"
     inkscape:cx="426.27674"
     inkscape:cy="469.96707"
     inkscape:document-units="px"
     inkscape:current-layer="layer1"
     showgrid="false"
     fit-margin-top="0"
     fit-margin-left="0"
     fit-margin-right="0"
     fit-margin-bottom="0"
     inkscape:window-width="1855"
     inkscape:window-height="1056"
     inkscape:window-x="65"
     inkscape:window-y="24"
     inkscape:window-maximized="1" />
  <metadata
     id="metadata7">
    <rdf:RDF>
      <cc:Work
         rdf:about="">
        <dc:format>image/svg+xml</dc:format>
        <dc:type
           rdf:resource="http://purl.org/dc/dcmitype/StillImage" />
        <dc:title></dc:title>
      </cc:Work>
    </rdf:RDF>
  </metadata>
  <g
     inkscape:label="Ebene 1"
     inkscape:groupmode="layer"
     id="layer1"
     transform="translate(-196.03509,-325.02905)">
    <path
       style="fill:#000000"
       d=""
       id="path3414"
       inkscape:connector-curvature="0" />
    <path
       style="fill:#000000"
       d=""
       id="path3412"
       inkscape:connector-curvature="0" />
    <path
       style="fill:#000000"
       d="m 452.46601,1222.6225 c -1.57537,-0.8216 -4.50037,-1.5037 -6.5,-1.5158 -6.6746,-0.04 -18.677,-7.2566 -21.65825,-13.0217 -0.87687,-1.6956 -2.22323,-6.992 -2.99191,-11.7697 -1.02494,-6.3704 -2.4759,-10.7518 -5.44156,-16.4315 -3.92293,-7.513 -4.04397,-8.038 -4.04397,-17.5399 0,-5.4805 -0.66072,-12.3317 -1.5,-15.5539 -0.825,-3.1674 -1.5,-7.2448 -1.5,-9.0609 0,-1.8161 -0.47414,-4.6621 -1.05365,-6.3245 -0.82607,-2.3697 -0.61713,-4.7321 0.96739,-10.9381 l 2.02104,-7.9156 -2.42106,-16.9611 c -1.33158,-9.3286 -3.58557,-22.5861 -5.00886,-29.4611 -5.99593,-28.9624 -6.90544,-45.3131 -3.46078,-62.2163 2.42238,-11.8868 4.42573,-17.9201 11.71002,-35.26561 5.20017,-12.38277 5.41999,-13.2596 4.76331,-19 -0.37865,-3.30997 -0.63942,-11.04357 -0.57948,-17.18578 0.12872,-13.19184 -0.9801,-17.14751 -6.71829,-23.96717 -2.25151,-2.67585 -5.70317,-8.12768 -7.67035,-12.11518 -2.8671,-5.81163 -4.02583,-7.25 -5.84049,-7.25 -1.24508,0 -3.26994,-0.70474 -4.49968,-1.56608 -2.34531,-1.64272 -6.20912,-8.34569 -6.20912,-10.77164 0,-2.66039 -2.50401,-3.49643 -11.81667,-3.94533 -8.8051,-0.42444 -9.48736,-0.61929 -12.54502,-3.5829 -1.77844,-1.72373 -4.02918,-3.13405 -5.00166,-3.13405 -2.41402,0 -5.82399,-1.84249 -7.65567,-4.13655 -1.46837,-1.83904 -3.25572,-1.33494 -53.59996,15.11704 -28.64452,9.36073 -52.74741,17.01951 -53.56198,17.01951 -0.81457,0 -4.70709,-3.32704 -8.65004,-7.39342 l -7.169,-7.39342 0,-10.0714 c 0,-8.5844 0.25838,-10.20345 1.75,-10.96582 0.9625,-0.49193 16.2625,-5.54319 34,-11.225 32.09134,-10.27976 32.25,-10.34422 32.25,-13.10222 0,-2.39893 -0.55166,-2.92018 -4.10247,-3.87631 -14.85566,-4.00022 -32.1897,-14.76652 -41.99216,-26.08165 -2.73292,-3.15465 -7.40991,-7.11332 -10.39331,-8.79704 -6.33057,-3.57276 -7.51206,-5.36666 -7.51206,-11.40585 0,-2.44399 -0.72668,-6.18282 -1.61485,-8.3085 -1.75424,-4.19849 -1.5869,-7.64282 1.0804,-22.2374 1.39115,-7.61189 1.38195,-8.85873 -0.10301,-13.96681 -1.97493,-6.79353 -1.40877,-21.73541 1.0462,-27.61098 0.87519,-2.09464 1.59126,-4.33717 1.59126,-4.98341 0,-0.64624 -6.80384,-7.18079 -15.11964,-14.52123 -16.3504,-14.43265 -18.28454,-17.13015 -19.45865,-27.13858 -1.74789,-14.89951 7.02719,-24.02053 27.74382,-28.83755 4.58396,-1.06587 11.15626,-2.25484 14.60511,-2.64217 l 6.27065,-0.70424 -0.77065,-3.6185 c -0.42385,-1.99018 -0.7151,-7.35421 -0.64723,-11.92007 0.1098,-7.38567 0.52148,-9.107 3.73139,-15.60181 6.53159,-13.21577 18.33607,-22.40908 31.82475,-24.78507 7.0474,-1.24137 22.6821,0.17248 29.86789,2.70097 6.33092,2.22769 17.69866,9.17035 19.48883,11.9025 0.83378,1.27249 2.39225,5.47586 3.46328,9.34081 1.07104,3.86495 2.89162,9.55101 4.04574,12.63568 l 2.09841,5.60849 5.67815,-7.8e-4 c 3.12298,-4.2e-4 9.37319,0.73269 13.88935,1.62915 l 8.2112,1.62991 4.7888,-3.03465 c 5.76762,-3.65493 13.79227,-5.42282 24.84545,-5.47366 9.40835,-0.0433 14.31494,1.7937 21.6057,8.08895 5.76637,4.97901 16.83407,9.6118 20.98107,8.7824 1.70692,-0.34139 6.73173,-2.2589 11.16624,-4.26114 8.02396,-3.62291 8.11238,-3.63762 18.37655,-3.05637 l 10.31379,0.58407 0,-4.42924 c 0,-3.36833 1.17865,-6.67561 4.9208,-13.80769 6.20922,-11.83404 8.0792,-18.13805 8.0792,-27.23638 l 0,-7.22242 -5.01073,1.90392 c -13.83807,5.25806 -28.64821,-0.59589 -35.44595,-14.01058 -4.59284,-9.06353 -5.95653,-15.7224 -5.85411,-28.58549 0.10992,-13.80574 2.63623,-24.16565 9.08279,-37.24679 4.85256,-9.84665 14.90035,-20.71479 23.41561,-25.32738 5.58605,-3.02588 7.17538,-3.4197 13.81239,-3.42258 6.39986,-0.003 8.19208,0.40358 12.2181,2.77021 7.16249,4.21035 14.4856,16.07029 17.2562,27.94679 1.67211,7.16771 2.80913,8.2816 9.9713,9.76846 3.7883,0.78644 6.50993,2.2439 10.11636,5.4174 l 4.93378,4.3415 5.25237,-4.80038 c 7.72847,-7.06338 15.03607,-10.333 23.16214,-10.36337 19.18784,-0.0717 31.01879,16.5704 31.07239,43.7083 0.0535,27.10706 -13.70725,53.52742 -33.08423,63.52091 -5.26533,2.71554 -7.23094,3.18368 -13.28887,3.16497 -8.62693,-0.0267 -13.73653,-2.10503 -19.60673,-7.97523 -4.74626,-4.74626 -8.4511,-12.04269 -10.06996,-19.83212 -0.60916,-2.93111 -1.30801,-5.12886 -1.553,-4.88388 -0.24498,0.24499 0.46469,4.66817 1.57706,9.82931 5.99206,27.80189 6.1689,38.05962 0.98068,56.88388 -1.59167,5.775 -3.36175,13.65 -3.93352,17.5 -2.40617,16.20211 -2.11444,15.99449 -22.50407,16.01532 -14.40251,0.0147 -15.27883,0.13422 -22,3 -6.57773,2.80463 -7.76914,2.98158 -19.75,2.93327 l -12.75,-0.0514 0,4.7729 c 0,2.84036 0.95477,6.93181 2.35805,10.10488 3.2355,7.31604 20.14082,29.74859 24.3191,32.27029 1.86973,1.12843 4.28247,3.5036 5.36164,5.27815 2.25567,3.70915 4.05628,4.52418 15.75312,7.13049 7.64384,1.70321 8.93275,2.33647 12.66234,6.22118 3.79894,3.95694 5.59423,4.81049 21.099,10.03129 9.32071,3.1385 21.67175,6.88375 27.44675,8.3228 10.85619,2.7052 18.29484,5.52272 20.9682,7.94207 0.8477,0.76716 4.91414,2.60919 9.03654,4.09341 9.86472,3.55167 31.20442,13.79705 36.945,17.73763 2.50264,1.71792 8.18325,6.54141 12.62357,10.71886 6.73361,6.33499 10.18401,8.63076 20.79292,13.83481 12.06452,5.91809 12.9034,6.52673 16.28797,11.81767 2.16641,3.38664 4.73762,9.6889 6.54448,16.04106 3.13767,11.03073 3.26362,14.99256 0.83212,26.17409 -0.98998,4.55251 -0.8338,7.81138 1.0064,21 1.85207,13.27371 2.1975,20.62735 2.30697,49.11125 0.0708,18.425 -0.37613,40.02502 -0.99319,48.00002 -1.13837,14.7124 -0.52335,27.835 1.65334,35.2773 1.50089,5.1317 5.51569,9.4504 16.34211,17.5791 5.03447,3.78 13.51962,11.5952 18.8559,17.3671 5.90037,6.382 10.99456,10.9743 13,11.7191 1.81372,0.6736 5.77267,2.3023 8.79767,3.6194 3.025,1.3171 8.13013,3.0478 11.34474,3.8461 10.37108,2.5755 17.05526,8.5304 17.05526,15.1942 0,4.057 -2.67607,7.1415 -9.34488,10.7712 -6.51522,3.546 -12.24476,4.1905 -20.65212,2.3232 -3.79665,-0.8433 -11.14506,-2.0685 -16.32979,-2.7228 -9.69145,-1.223 -9.4307,-1.1187 -27.57321,-11.0341 -3.85,-2.1041 -10.47621,-4.7756 -14.72492,-5.9365 l -7.72492,-2.1109 -12.58857,2.1532 c -17.03812,2.9142 -20.4418,2.1058 -26.53224,-6.3019 -2.56357,-3.5389 -2.92935,-4.9031 -2.92935,-10.9252 0,-5.8566 0.73702,-8.7884 4.94898,-19.6865 4.04577,-10.4682 5.21877,-14.9905 6.42727,-24.7797 1.38174,-11.1923 1.35321,-12.7077 -0.43686,-23.1994 -3.35529,-19.6654 -5.41737,-26.1057 -11.42015,-35.667 -6.1179,-9.74468 -6.87167,-11.85334 -9.09246,-25.43602 -1.41245,-8.63868 -1.39735,-11.2607 0.17577,-30.5376 0.94649,-11.59813 1.42501,-22.26638 1.06338,-23.70722 -0.49398,-1.96818 -2.58316,-3.67656 -8.40039,-6.86924 -4.25858,-2.33725 -10.27607,-6.6658 -13.3722,-9.619 l -5.62931,-5.36946 -0.61651,3.8554 c -0.85046,5.31851 -4.43329,10.26017 -9.44482,13.02687 -2.32095,1.28132 -23.00353,8.96889 -45.9613,17.08351 l -41.7414,14.75383 -0.25916,50.6665 c -0.14254,27.86653 0.11662,50.66653 0.57592,50.66653 0.4593,0 16.94371,-6.3161 36.63204,-14.0356 l 35.79695,-14.0356 10.12712,6.3236 10.12713,6.3237 0.28613,10.3159 c 0.15737,5.6738 -0.14559,10.8317 -0.67324,11.462 -0.52766,0.6303 -32.04113,13.296 -70.02995,28.146 l -69.07058,27 0.0628,9 c 0.0346,4.95 0.40226,15.525 0.81712,23.5 0.85583,16.4519 1.47752,18.2536 8.86968,25.7045 8.03803,8.102 11.80692,13.3854 17.08998,23.9577 4.06151,8.1277 6.18329,11.1163 10.59837,14.928 3.55576,3.0698 6.09236,6.2639 7.12799,8.9757 0.88428,2.3154 3.3659,5.9267 5.51472,8.0249 4.48927,4.3837 4.8934,7.077 1.81041,12.0654 -2.99084,4.8393 -7.06109,6.6613 -13.65856,6.1142 -4.56539,-0.3786 -5.61206,-0.1463 -6.58643,1.4619 -1.61413,2.6642 -7.07301,4.7677 -12.37286,4.7677 -2.95596,0 -5.33142,0.6774 -7.01274,2 -3.03107,2.3842 -8.59556,2.6017 -12.63718,0.4938 z m 9.20433,-5.0943 c 1.25676,-0.8803 5.06939,-1.8406 8.4725,-2.1339 7.75754,-0.6688 9.49932,-1.5711 11.28556,-5.8461 0.78582,-1.8808 1.63684,-3.4195 1.89117,-3.4195 0.25433,0 1.93579,0.8983 3.73658,1.9962 4.57588,2.7899 8.58292,2.5612 11.96945,-0.6833 3.61699,-3.4653 3.54573,-6.3082 -0.26026,-10.3825 -1.68574,-1.8046 -3.76298,-4.6308 -4.61608,-6.2806 -0.85311,-1.6497 -4.60695,-6.228 -8.34186,-10.1741 -3.73491,-3.946 -8.01997,-9.6048 -9.52235,-12.5751 -3.76231,-7.4384 -9.13849,-15.1241 -16.36894,-23.4006 -3.36339,-3.85 -6.9782,-8.8 -8.03293,-11 -2.74004,-5.7154 -4.01855,-19.6094 -4.23284,-46 -0.20818,-25.6379 0.2622,-28.6424 5.78698,-36.9633 7.52097,-11.3274 9.46789,-21.4919 7.40076,-38.638 -0.68951,-5.7193 -1.47156,-10.7713 -1.73788,-11.2266 -0.79656,-1.362 -8.0628,11.2669 -11.1946,19.4564 -4.30052,11.2457 -9.11077,28.8088 -9.3586,34.17 -0.11917,2.5782 -0.52386,4.6907 -0.89929,4.6945 -1.55571,0.016 -1.85965,-4.3808 -0.82514,-11.9364 2.35681,-17.2132 8.84568,-36.4736 15.73626,-46.7087 5.40404,-8.027 7.75496,-14.9128 8.73032,-25.571 0.61476,-6.71775 1.23677,-8.54015 4.77841,-14 6.94783,-10.71092 7.74751,-13.24189 6.92024,-21.90256 -0.77965,-8.16227 0.17837,-14.26002 2.13872,-13.61282 0.66209,0.21858 1.43303,1.93665 1.7132,3.81793 l 0.5094,3.42051 2.2406,-4.56572 c 2.60294,-5.30408 2.80171,-10.53698 1.17217,-30.85866 -1.83592,-22.89525 -7.73162,-39.03642 -17.52904,-47.99071 -7.77192,-7.10309 -13.09983,-8.53776 -28.87574,-7.77548 -6.61473,0.31961 -13.82679,1.09908 -16.02679,1.73215 -7.9598,2.29049 -19.5,17.58076 -19.5,25.83666 0,5.44816 3.78259,18.04823 7.30212,24.32385 1.75884,3.13615 5.83524,9.56121 9.05867,14.27792 l 5.86079,8.57585 0.31065,21.1136 c 0.18217,12.38138 -0.10017,22.19243 -0.68267,23.72208 -0.54632,1.43465 -1.41198,4.81273 -1.92369,7.50685 -1.03041,5.42499 0.76022,14.67605 5.52162,28.52675 2.84188,8.2669 2.9816,9.0749 1.56936,9.0749 -1.42875,0 -5.61082,-8.6955 -8.924,-18.5551 -1.58261,-4.7096 -3.08958,-8.775 -3.34882,-9.0343 -0.73277,-0.7327 -6.4185,17.2277 -8.1008,25.5894 -3.75916,18.6842 -3.28563,27.8691 2.99023,58 6.85598,32.9161 7.89072,46.8297 4.45571,59.9134 l -1.91083,7.2782 3.49172,3.8649 c 3.60402,3.9892 4.11231,7.5537 1.04163,7.3046 -2.09004,-0.1696 -2.10653,0.2683 -0.2123,5.6371 1.03756,2.9408 1.42258,7.3687 1.25,14.3758 l -0.24939,10.126 4.17567,7 c 4.87259,8.1683 6.35242,13.0744 6.04664,20.0467 -0.31922,7.2786 1.78682,9.8843 11.76965,14.5625 4.56651,2.1399 9.4225,3.8908 10.79109,3.8908 1.36858,0 3.77727,0.6722 5.35264,1.4938 3.61475,1.8852 4.39266,1.875 7.20433,-0.094 z m 14.4661,-15.3021 c -1.10641,-2.8167 -2.21016,-4.0974 -3.53113,-4.0974 -1.25637,0 -1.8097,-0.5772 -1.59831,-1.6672 0.54585,-2.8145 2.4721,-2.5801 6.28132,0.7644 2.69344,2.3649 3.56713,3.8606 3.34402,5.7249 -0.49411,4.1287 -2.73107,3.7681 -4.4959,-0.7247 z m -31.05612,-0.8032 c -1.63013,-0.3139 -2.25,-1.1342 -2.25,-2.9773 0,-2.3285 0.27522,-2.4923 3.25,-1.9341 9.23115,1.7321 11.12727,1.8128 14.72227,0.6263 4.3976,-1.4513 9.02773,-0.6769 9.02773,1.5099 0,1.0574 -1.12709,1.481 -3.94098,1.481 -2.16754,0 -4.2191,0.45 -4.55902,1 -0.59942,0.9699 -11.69873,1.1708 -16.25,0.2942 z m -22.24821,-59.0442 c 9.8e-4,-0.4125 2.65307,-4.2888 5.89352,-8.614 3.24045,-4.3251 7.15396,-10.4001 8.69668,-13.5 2.0567,-4.1326 2.91383,-5.123 3.21313,-3.713 0.51779,2.4394 -7.86975,19.1071 -11.75661,23.3627 -2.67763,2.9316 -6.05111,4.3065 -6.04672,2.4643 z m 26.49821,-181.80621 c -2.89338,-1.48897 -6.43186,-5.14548 -6.47776,-6.69383 -0.0387,-1.30628 2.42519,-0.81692 6.51632,1.29421 2.733,1.41031 4.96926,1.86141 7.21144,1.45469 2.7055,-0.49076 3.25,-0.28037 3.25,1.25579 0,4.23978 -4.99897,5.52006 -10.5,2.68914 z m 24.22065,-41.13846 c -0.2562,-0.44295 -0.77239,-2.92061 -1.14709,-5.50591 -0.51019,-3.52011 -1.82591,-6.09092 -5.23933,-10.23716 -4.14501,-5.03491 -5.17512,-8.5623 -2.50047,-8.5623 4.02485,0 13.63989,15.97724 12.99665,21.59645 -0.31376,2.74098 -3.04858,4.54362 -4.10976,2.70892 z m -35.47065,-4.96765 c -2.3361,-0.94264 -1.26048,-3.14296 3.72967,-7.62953 2.73882,-2.46243 6.79928,-6.77913 9.02325,-9.59267 4.40824,-5.57684 5.99911,-6.33746 5.99334,-2.86552 -0.007,4.28887 -9.02974,16.68171 -14.02626,19.26552 -1.57888,0.81646 -3.00553,1.44895 -3.17034,1.40553 -0.16481,-0.0434 -0.86216,-0.30592 -1.54966,-0.58333 z M 759.60781,1106.572 c 2.4485,-1.715 3.01156,-6.2543 1.02251,-8.2433 -0.66,-0.66 -3.0225,-1.203 -5.25,-1.2066 -2.35806,0 -5.30329,-0.8366 -7.05,-1.9934 -1.65,-1.0928 -3.98594,-1.9898 -5.19098,-1.9934 -1.20504,0 -2.4691,-0.4566 -2.80902,-1.0066 -0.94749,-1.5331 5.07582,-1.2041 9.15424,0.5 1.97451,0.825 4.86388,1.5 6.42083,1.5 4.55384,0 7.87308,2.0411 8.80927,5.4172 l 0.85486,3.0828 1.13054,-2.8155 c 1.1489,-2.8612 0.10323,-6.6845 -1.8282,-6.6845 -0.48845,0 -2.16012,-1.0601 -3.71481,-2.3557 -1.5547,-1.2956 -4.53802,-2.6705 -6.62959,-3.0552 -2.09157,-0.3848 -8.61657,-2.5617 -14.5,-4.8377 -10.38917,-4.019 -10.97316,-4.4132 -20.28449,-13.6948 -5.27304,-5.2561 -15.19752,-13.7344 -22.05439,-18.8405 -6.85688,-5.1061 -13.24995,-10.6092 -14.20683,-12.2291 -5.00593,-8.4743 -6.39846,-30.7815 -4.18167,-66.98704 1.7629,-28.79232 1.56348,-40.45813 -1.05985,-62 -0.83723,-6.875 -1.74241,-14.36502 -2.01152,-16.64449 -0.415,-3.51523 -0.78606,-4.06689 -2.44384,-3.63337 -1.68926,0.44175 -1.95455,-0.011 -1.95455,-3.33579 0,-2.69524 1.11425,-5.64905 3.72192,-9.86663 2.5577,-4.13674 3.69459,-7.1168 3.63455,-9.527 -0.14614,-5.86647 -5.26846,-21.08667 -9.54223,-28.3533 l -4.03495,-6.86059 -11.5507,-5.42736 c -9.98385,-4.69113 -12.64798,-6.49249 -19.63965,-13.27938 -4.44892,-4.31862 -11.2463,-9.88033 -15.10529,-12.35936 -9.99403,-6.42021 -36.96242,-17.58439 -44.3398,-18.35548 -6.61669,-0.69158 -19.25309,1.66166 -25.23853,4.70012 -7.27825,3.69473 -12.9821,12.73199 -16.42738,26.02774 -1.51467,5.84534 -5.71724,32.05075 -5.20916,32.48208 0.12717,0.10796 4.37407,2.29462 9.43755,4.85924 10.45571,5.29576 17.55757,7.02192 35.08078,8.52664 20.52201,1.76222 24.26047,3.13923 36.36529,13.39463 11.20835,9.4959 17.56209,12.71152 29.63995,15.00074 3.46079,0.65596 6.38579,1.6334 6.5,2.1721 0.11426,0.53897 -2.75963,1.11088 -6.39027,1.27168 l -6.59792,0.29223 -1.90208,12.20777 c -2.76033,17.71613 -2.58757,39.5653 0.39548,50.0171 2.98491,10.45828 5.79197,15.73162 13.62067,25.58772 5.20086,6.5478 6.58177,9.0014 6.58177,11.6946 0,3.7835 -2.10816,4.6546 -4.01343,1.6584 -0.94072,-1.4794 -1.0283,-1.3467 -0.5663,0.8579 4.46347,21.2994 4.51121,42.2857 0.12589,55.3493 -1.40861,4.1962 -3.89696,10.2757 -5.52967,13.5101 -5.44419,10.7849 -4.77202,19.2688 1.88139,23.7461 3.67597,2.4737 11.25455,2.9664 25.26825,1.6427 5.31093,-0.5017 6.55101,-0.9297 6.09987,-2.1053 -1.34914,-3.5158 12.13008,1.7622 25.734,10.0766 7.19938,4.4001 7.52144,4.4972 8.03483,2.4217 0.50566,-2.0443 0.65993,-1.9865 2.82884,1.0594 3.57566,5.0216 6.64241,6.0656 19.26198,6.5578 7.24037,0.2824 12.64641,1.0091 14.87435,1.9995 4.54852,2.022 11.94593,2.0608 14.77749,0.077 z m -107.20606,-41.0148 c -1.95723,-1.9572 -2.00417,-5.3731 -0.13252,-9.6446 0.7914,-1.8062 1.69997,-4.5214 2.01905,-6.0339 0.31908,-1.5125 1.02157,-2.75 1.56109,-2.75 1.38409,0 1.19986,3.7073 -0.45524,9.1609 -1.85398,6.1089 -0.64857,7.8419 5.997,8.6217 4.12457,0.484 4.52686,0.6982 2.43919,1.2988 -4.46059,1.2833 -9.79731,0.9784 -11.42857,-0.6529 z M 627.77192,870.18043 c -4.61793,-1.40126 -7.36089,-3.24288 -13.4416,-9.02466 -4.31308,-4.10104 -7.54635,-6.20947 -11.5,-7.49922 -7.21509,-2.35368 -7.1789,-2.32509 -5.92054,-4.67636 0.84152,-1.5724 1.6833,-1.87937 3.75271,-1.36852 3.87619,0.95687 11.68027,6.17409 19.149,12.80157 7.71614,6.84703 12.00024,8.47107 18.19692,6.89818 4.63381,-1.17618 6.26728,-0.50694 5.2477,2.15002 -0.50657,1.3201 -1.91875,1.64932 -6.78278,1.58127 -3.37865,-0.0473 -7.29429,-0.4353 -8.70141,-0.86228 z m 15.86113,-17.80177 c -0.35859,-9.21089 -0.87553,-11.87041 -3.61062,-18.57556 -3.53663,-8.67016 -3.96203,-11.67444 -1.65306,-11.67444 0.91783,0 2.87939,2.79681 4.85969,6.92902 2.9371,6.12868 3.40286,8.26403 4.03241,18.48719 0.74423,12.08557 0.32044,15.58379 -1.88791,15.58379 -0.98805,0 -1.42771,-2.71551 -1.74051,-10.75 z M 519.73494,1049.4887 c 36.07746,-14.1019 66.15788,-26.082 66.84538,-26.6224 0.77893,-0.6123 1.25,-3.5197 1.25,-7.715 l 0,-6.7325 -7.75,-4.8153 c -4.2625,-2.6484 -8.425,-4.762 -9.25,-4.6968 -0.825,0.065 -18.0947,6.6745 -38.37711,14.6872 -28.76532,11.364 -37.18032,14.317 -38.25554,13.4247 -1.15487,-0.9585 -1.26995,-9.6376 -0.70955,-53.51698 0.36788,-28.80513 0.28982,-52.37296 -0.17347,-52.37296 -3.15228,0 -7.4253,2.63926 -7.97825,4.92783 -0.34181,1.41469 -1.67687,5.27217 -2.96681,8.57217 -1.28994,3.3 -2.8735,8.60014 -3.51903,11.77808 -0.64553,3.17794 -3.21317,10.08347 -5.70587,15.3456 -3.12677,6.60067 -4.83642,11.78608 -5.51329,16.72196 -0.53961,3.9349 -1.28204,8.6746 -1.64985,10.5327 -0.3678,1.8581 -0.13668,7.9331 0.51361,13.5 2.57486,22.0425 0.76972,34.1365 -7.55416,50.6113 -2.64282,5.2307 -5.36666,11.2218 -6.05298,13.3135 -1.16899,3.5627 -0.80536,8.6969 0.61597,8.6969 0.34957,0 30.15349,-11.538 66.23095,-25.64 z m 14.43434,-148.97624 c 25.93857,-9.1389 48.63445,-17.50735 50.43528,-18.59654 4.06482,-2.4585 6.22576,-6.49211 6.22576,-11.62097 0,-4.83165 -0.0938,-4.86519 -17.16517,-6.13856 -13.71054,-1.02267 -21.81535,-2.61029 -32.64971,-6.39558 -6.87871,-2.40328 -6.97687,-2.40865 -9.81665,-0.53644 -6.86986,4.52913 -14.71914,1.12559 -32.36847,-14.03537 -4.20162,-3.60924 -6.07245,-3.72987 -13.53812,-0.87292 l -5.71609,2.18742 0.75135,6.56258 c 0.41324,3.60942 0.90304,9.5999 1.08845,13.31219 0.18541,3.71228 0.79122,8.43728 1.34624,10.5 0.55503,2.06271 1.30826,6.97228 1.67387,10.91015 0.3656,3.93787 1.02527,7.74314 1.46594,8.45616 0.61762,0.99932 10.04409,-1.72981 41.13656,-11.90976 22.18443,-7.26339 40.92104,-13.20616 41.63689,-13.20616 0.71586,0 1.15606,0.73133 0.97823,1.62519 -0.23648,1.18869 -11.5366,5.27636 -42.07332,15.21949 l -41.75,13.59431 0,8.7805 c 0,4.82928 0.26503,8.78051 0.58896,8.78051 0.32393,0 21.81143,-7.47729 47.75,-16.6162 z M 293.28002,871.50457 c 28.07766,-9.14325 51.19226,-16.74772 51.36578,-16.89881 0.78867,-0.68678 -5.92521,-12.25165 -8.47099,-14.59153 -3.34896,-3.07811 -7.73012,-4.25221 -23.65853,-6.34025 -15.82005,-2.07382 -14.68596,-2.29735 -14.68596,2.89456 l 0,4.43987 -26.75,8.61688 c -14.7125,4.73929 -29.9,9.6397 -33.75,10.88982 l -7,2.27294 -0.29628,6.69603 -0.29627,6.69602 5.69849,5.97428 c 3.13418,3.28585 5.94486,5.97428 6.24598,5.97428 0.30111,0 23.52011,-7.48084 51.59777,-16.62409 z m 102.67237,7.94909 c -1.17884,-2.02721 -1.46351,-1.37835 -0.49853,1.13634 0.34294,0.8937 0.83419,1.41426 1.09166,1.15679 0.25747,-0.25747 -0.009,-1.28938 -0.59313,-2.29313 z m -0.0459,-20.00941 c 1.98322,-3.92716 5.96777,-9.38038 9.46995,-12.9605 4.92083,-5.03035 7.15425,-6.52262 12,-8.01789 11.29126,-3.48417 37.796,-1.28891 46.17493,3.82445 1.77159,1.08113 4.97832,3.96205 7.12607,6.40202 2.14776,2.43998 4.07328,4.43694 4.27894,4.43769 0.20566,7.5e-4 0.2242,-2.3981 0.0412,-5.33077 -0.29202,-4.67965 -0.0473,-5.51751 2,-6.84691 3.58318,-2.32674 13.58722,-5.82507 16.62025,-5.81196 1.83413,0.008 6.92217,3.0829 15.71249,9.49587 12.55252,9.15768 17.28228,11.27174 19,8.49241 0.64503,-1.04367 -0.5182,-1.33812 -4.15449,-1.05164 -1.18497,0.0934 -2.42462,-0.26735 -2.75479,-0.80157 -0.75551,-1.22244 1.87878,-21.65629 4.37259,-33.91767 2.15039,-10.57282 8.20331,-24.02766 13.00351,-28.90505 3.59387,-3.65166 15.55416,-8.93012 24.44268,-10.78733 l 6.0905,-1.27258 -6,-1.72006 c -3.3,-0.94603 -9.15,-2.62736 -13,-3.73628 -3.85,-1.10892 -15.325,-5.14527 -25.5,-8.96966 -14.44836,-5.43059 -19.04752,-7.6009 -21,-9.90973 -1.8494,-2.18693 -4.45181,-3.50363 -10,-5.05953 -4.125,-1.15679 -8.71355,-2.7247 -10.19678,-3.48424 -1.48323,-0.75954 -6.13647,-1.89257 -10.34054,-2.51785 -7.86827,-1.17026 -8.57049,-2.82145 -1.21268,-2.8515 2.0625,-0.008 3.75,-0.45375 3.75,-0.98963 0,-1.90568 -5.98365,-4.02568 -11.36237,-4.02568 -22.58725,0 -57.0803,15.52448 -76.4399,34.40373 -13.9882,13.64111 -15.46025,17.74603 -11.68926,32.59627 1.32682,5.225 3.53617,12.2 4.90969,15.5 2.19764,5.28003 2.50237,5.62789 2.53957,2.89894 0.0232,-1.70558 -1.08273,-5.2169 -2.45773,-7.80292 -2.88235,-5.42095 -2.9245,-5.6084 -1.25,-5.55958 1.89355,0.0552 6.63247,6.81337 7.78877,11.10755 1.02745,3.81565 0.0248,16.09328 -2.0868,25.55355 -1.09499,4.90568 2.10101,31.74403 4.22993,35.52086 1.17315,2.08122 1.33811,1.69299 1.87828,-4.4207 0.4247,-4.80677 1.5605,-8.61977 4.016,-13.48211 z m 74.18966,-26.56559 c -0.53848,-0.6875 -2.6885,-4.4 -4.77783,-8.25 -2.08933,-3.85 -4.96636,-8.29424 -6.39339,-9.8761 -3.56131,-3.94767 -9.66951,-6.5757 -15.34461,-6.60194 -4.09546,-0.0189 -4.75,-0.30097 -4.75,-2.04671 0,-4.38174 7.30086,-4.43578 15.73795,-0.11648 8.64101,4.42369 23.71413,28.14123 17.88449,28.14123 -0.75765,0 -1.81813,-0.5625 -2.35661,-1.25 z m 27.40084,-27.41667 c -1.00625,-1.00624 -0.75412,-10.24135 0.41862,-15.33333 1.35392,-5.87867 6.29949,-15.85695 9.65031,-19.47065 3.95057,-4.26052 3.93293,-1.4023 -0.0322,5.20903 -4.23784,7.06615 -5.35531,10.70902 -6.1129,19.9277 -0.77408,9.41922 -1.75507,11.83607 -3.92388,9.66725 z m -114.66667,-6.86185 c 0,-9.53112 18.89492,-33.2775 31.69136,-39.82843 1.75525,-0.89857 7.08172,-2.54088 11.8366,-3.64957 10.38162,-2.42068 11.63132,-3.03094 17.6792,-8.63317 4.76844,-4.41708 7.79284,-5.54848 7.79284,-2.91525 0,1.69901 -9.77563,9.88967 -14.96025,12.53466 -1.98176,1.01102 -6.06392,2.30094 -9.07147,2.86648 -10.20336,1.91866 -13.76794,3.82698 -23.1187,12.3767 -8.46701,7.74167 -9.40343,9.00485 -14.47583,19.5271 -2.98278,6.1875 -5.86209,11.25 -6.39849,11.25 -0.53639,0 -0.97526,-1.58783 -0.97526,-3.52852 z m 39,-14.28439 c 0,-5.57417 7.41664,-10.14955 31.84829,-19.64742 15.90676,-6.1838 35.23501,-12.53967 38.13322,-12.53967 3.94207,0 1.91946,1.8541 -5.23151,4.79567 -3.9875,1.64027 -14.45,5.55992 -23.25,8.71032 -21.90397,7.84162 -27.58508,10.56089 -34.34189,16.43778 -3.1973,2.78093 -6.11586,5.05623 -6.48569,5.05623 -0.36983,0 -0.67242,-1.26581 -0.67242,-2.81291 z m 15.49563,1.80585 c -0.34231,-0.55389 -0.0314,-1.19047 0.69099,-1.41463 8.70338,-2.70079 11.67993,-4.24286 18.21729,-9.43786 4.59389,-3.65059 8.90414,-6.2481 10.8572,-6.54292 15.08659,-2.2774 22.57485,-4.01539 26.78448,-6.21655 4.87837,-2.55083 6.95441,-2.50456 6.95441,0.15498 0,2.48346 -4.2035,4.23352 -15.5,6.45318 -17.48743,3.43614 -20.07568,4.42237 -26.13186,9.95738 -3.69508,3.37709 -7.1514,5.50557 -10.60623,6.53154 -5.91584,1.75682 -10.37283,1.96051 -11.26628,0.51488 z m -60.49563,82.35145 c 0,-1.46323 -5.19849,-7.34439 -6.49187,-7.34439 -2.71693,0 -2.68669,2.20419 0.0697,5.08126 2.49485,2.60406 6.42215,3.98802 6.42215,2.26313 z m -11.57119,-3.84884 c -1.47013,-1.92744 -4.88918,-5.13129 -7.59789,-7.11967 -2.7087,-1.98837 -4.69294,-3.84719 -4.40942,-4.13071 0.28352,-0.28353 3.11717,0.75915 6.297,2.31706 3.17982,1.55791 6.09234,2.97881 6.47227,3.15757 0.37992,0.17876 0.43416,-1.25626 0.12053,-3.18893 -0.34801,-2.14452 -0.0823,-4.10181 0.68168,-5.02241 2.0033,-2.41383 3.30918,-1.76925 2.68979,1.32769 -0.49711,2.48557 0.24325,3.62895 5.98958,9.25 l 6.5568,6.41385 -0.68714,-6.45248 c -0.89688,-8.42201 -2.7819,-15.92823 -7.60206,-30.27173 -4.50855,-13.41622 -4.68608,-15.02966 -1.95426,-17.76148 1.80199,-1.80199 1.87862,-2.44959 0.82825,-7 l -1.15744,-5.01431 -7.57825,-0.11848 c -9.57531,-0.14971 -10.08003,-0.0738 -12.95475,1.94748 -9.01741,6.34045 -11.71068,7.54362 -17.02769,7.60679 -3.35345,0.0398 -5.56043,-0.39033 -5.81594,-1.13362 -0.29313,-0.85274 0.68759,-1.03824 3.40419,-0.64387 l 3.81594,0.55397 -5,-2.59229 c -8.69755,-4.50932 -14.81994,-9.88414 -19.74098,-17.33052 -5.51278,-8.34179 -8.05346,-10.43362 -20.25902,-16.68 -8.72791,-4.46664 -13.72681,-5.66953 -15,-3.60946 -0.33992,0.55 -1.26648,1 -2.05902,1 -3.00823,0 -1.23991,-4.1576 3.99473,-9.39223 7.64698,-7.64698 8.75807,-11.64429 9.32077,-33.53267 l 0.44794,-17.4249 -3.17893,2.6749 c -3.37086,2.83639 -5.02549,3.36317 -5.02549,1.59994 0,-1.89283 19.40181,-21.92504 21.23508,-21.92504 2.73183,0 2.11576,1.89572 -2.10372,6.47331 -3.17265,3.44193 -4.07217,5.36577 -5,10.69375 -0.62225,3.57322 -1.13136,9.67985 -1.13136,13.57028 l 0,7.07351 8.25,2.95919 c 4.5375,1.62755 10.725,3.5241 13.75,4.21456 7.20936,1.64553 13.42043,4.76519 25,12.55683 17.98906,12.10446 23.08858,16.49606 26.65943,22.95857 1.82341,3.3 3.51172,6.45 3.7518,7 0.25214,0.57762 0.84139,0.42184 1.3951,-0.36884 3.77195,-5.38621 13.58765,-15.93852 18.01026,-19.36183 6.02876,-4.66655 5.93864,-4.84867 -3.60946,-7.29478 -5.78061,-1.48092 -9.68158,-1.22852 -17.45713,1.12952 -1.13498,0.34419 -1.75,-0.007 -1.75,-0.99814 0,-3.80695 18.63429,-5.26211 28.43744,-2.22068 l 4.93743,1.53183 5.56257,-3.36383 c 3.05941,-1.85012 7.70006,-4.39613 10.31256,-5.65781 3.6074,-1.74216 4.75,-2.84252 4.75,-4.57438 0,-1.66425 1.11163,-2.84753 4.11417,-4.3793 2.26279,-1.15439 4.34027,-2.96354 4.61663,-4.02033 0.56128,-2.14636 2.2692,-2.63103 2.2692,-0.64394 0,2.12535 -2.79373,5.43191 -6.55185,7.75456 -1.95434,1.20785 -3.40212,2.34731 -3.21729,2.53215 0.18484,0.18483 4.08097,-1.17391 8.65808,-3.01942 4.57711,-1.84551 11.85374,-4.37599 16.17028,-5.62327 l 7.84827,-2.26779 0.29626,-4.99826 c 0.17647,-2.97731 0.8193,-5.17069 1.58987,-5.42473 0.93783,-0.30918 1.11429,0.28802 0.64159,2.1714 -0.35862,1.42883 -0.36967,3.72287 -0.0246,5.09787 0.55251,2.20137 1.16272,2.5 5.10841,2.5 2.46452,0 4.48095,-0.27274 4.48095,-0.6061 0,-0.33335 -1.29111,-2.24585 -2.86913,-4.25 -6.48345,-8.23423 -14.90941,-22.20731 -15.99781,-26.52975 -0.63946,-2.53952 -1.55425,-9.48889 -2.03287,-15.44304 -0.91321,-11.36038 -1.6553,-13.51961 -7.85634,-22.85904 -2.95016,-4.44327 -3.70832,-5.03895 -5.21544,-4.09774 -1.92138,1.19994 -5.02838,0.46901 -5.02838,-1.18295 0,-0.56726 0.675,-1.03138 1.5,-1.03138 2.98376,0 1.36741,-1.56473 -5.0375,-4.87665 -3.59156,-1.85715 -8.53989,-3.60318 -10.9963,-3.88005 -2.45641,-0.27687 -4.4662,-0.9473 -4.4662,-1.48985 0,-0.87323 4.82134,-0.72555 14.96879,0.45848 3.86559,0.45105 3.55331,-2.20217 -1.07496,-9.13306 -4.7141,-7.05942 -14.06187,-14.50849 -20.32187,-16.19413 -6.68483,-1.80004 -20.70335,0.58974 -28.83851,4.91618 l -4.76654,2.53495 2.18715,2.32812 c 3.00831,3.20219 1.6424,4.03933 -2.16601,1.3275 -4.13134,-2.94177 -15.99659,-5.95521 -23.48805,-5.96529 -9.86771,-0.0133 -26.79132,4.3596 -37,9.56042 -4.95,2.52179 -10.35,5.60759 -12,6.85735 -4.92135,3.72756 -12.85646,7.37203 -19.90751,9.1432 -7.05777,1.77285 -15.79875,7.56645 -24.41436,16.18207 -5.18583,5.18582 -10.01059,15.02049 -10.8513,22.119 -0.53449,4.51289 -0.40552,5.07919 1.03114,4.52789 2.63105,-1.00963 2.00852,2.22868 -1.72781,8.98777 -6.49455,11.74877 -7.16088,15.10937 -6.85961,34.5961 0.1496,9.67662 -0.25298,21.15665 -0.90052,25.67949 -0.89283,6.23601 -0.89378,8.84966 -0.004,11 0.64188,1.55128 1.33001,5.11056 1.52917,7.90951 0.46241,6.49854 1.42894,8.21608 7.30265,12.97687 2.64119,2.14075 9.08976,7.95169 14.33016,12.9132 10.85668,10.27891 20.7475,16.35236 33.78414,20.74513 6.93558,2.33699 12.11664,3.21391 25.68786,4.34784 9.35,0.78123 18.19825,1.67425 19.66278,1.98449 2.06737,0.43794 3.88256,2.61889 8.11798,9.75377 3.00037,5.05433 6.34149,11.2147 7.42471,13.6897 1.08322,2.475 2.7317,5.12927 3.66327,5.89838 1.47191,1.21522 1.8699,1.15752 3.03835,-0.44044 1.26201,-1.72589 1.44398,-1.64661 2.96304,1.29091 1.71414,3.31479 5.19169,6.25115 7.40327,6.25115 0.84872,0 0.36322,-1.2654 -1.34459,-3.50445 z m -64.61862,-55.53852 c -18.52566,-2.16033 -31.10837,-10.30567 -32.55253,-21.07268 -0.73773,-5.50017 0.606,-4.60656 5.07431,3.37455 6.23401,11.13493 9.64215,13.01104 26.66803,14.68022 12.62418,1.23765 15,1.73313 15,3.12827 0,1.05874 -4.46196,1.02404 -14.18981,-0.11036 z m -58.26284,-22.88042 c -1.34615,-2.17811 -1.85677,-11.07661 -0.63561,-11.07661 1.5321,0 4.29355,6.57596 3.89441,9.27394 -0.34201,2.31181 -2.28118,3.3845 -3.2588,1.80267 z m -3.09083,-33.45669 c -0.48291,-2.57411 0.12751,-5.11535 2.55997,-10.65749 3.47574,-7.91915 3.55624,-11.63251 0.35799,-16.51365 -1.76986,-2.70115 -1.78161,-2.70347 -2.74682,-0.54035 -1.22842,2.75299 -4.0243,2.29706 -4.45479,-0.72646 -0.35381,-2.48505 2.21446,-7.18197 3.92711,-7.18197 0.57962,0 2.36925,1.31538 3.97694,2.92308 2.80573,2.80573 2.92308,3.29119 2.92308,12.09263 0,7.35687 -0.51985,10.63388 -2.62967,16.57692 -1.44632,4.07405 -2.77593,7.40737 -2.95469,7.40737 -0.17876,0 -0.61036,-1.52104 -0.95912,-3.38008 z m 164.51655,-13.86992 c -2.07641,-4.57444 -2.56239,-8.75 -1.01838,-8.75 0.52507,0 1.23748,1.50744 1.58312,3.34987 0.34564,1.84242 1.71603,4.52278 3.04532,5.95635 2.94653,3.1777 2.99794,3.69378 0.36798,3.69378 -1.44119,0 -2.62109,-1.26057 -3.97804,-4.25 z m -87.13149,-9 c -0.67583,-1.2375 -1.54321,-4.84253 -1.92749,-8.01117 -0.38429,-3.16864 -1.44807,-6.90483 -2.36395,-8.30264 -1.50559,-2.29783 -2.09112,-2.47761 -6.10769,-1.87529 -3.56215,0.53418 -4.44245,0.37178 -4.44245,-0.81955 0,-0.95041 1.38704,-1.70753 3.84959,-2.10131 2.11727,-0.33856 4.97703,-1.50242 6.35501,-2.58634 2.85802,-2.24812 5.83417,-7.78909 5.14637,-9.58147 -0.25408,-0.66213 -2.94685,-1.46034 -5.98393,-1.7738 -5.43585,-0.56103 -10.36704,-2.80685 -10.36704,-4.72148 0,-1.54703 2.6229,-1.13625 4.09863,0.64189 1.07718,1.29792 2.48916,1.49616 7.12245,1 3.1784,-0.34036 8.41719,-0.90074 11.64175,-1.24529 4.1069,-0.43883 6.08747,-0.26298 6.61287,0.58713 1.14957,1.86005 -1.07995,3.61265 -2.79016,2.19331 -0.8123,-0.67416 -2.69748,-0.9016 -4.4943,-0.54224 -2.83578,0.56716 -3.04807,0.88164 -2.53391,3.75363 0.74629,4.16862 3.47845,6.38248 8.87556,7.19182 2.57545,0.38622 4.18666,1.08756 3.82877,1.66665 -0.72093,1.16647 -9.71935,0.19027 -12.63636,-1.37087 -1.55733,-0.83345 -2.4787,-0.50536 -4.7845,1.70373 l -2.85573,2.73597 1.95746,2.48852 c 1.07661,1.36869 1.96242,3.89033 1.96848,5.60366 0.0245,6.92779 1.21441,10.75034 3.63272,11.66978 3.16445,1.20313 3.089,3.94536 -0.10855,3.94536 -1.52535,0 -2.93316,-0.85759 -3.6936,-2.25 z m 65.09983,-1.16496 c -2.08801,-2.21369 -3.78747,-3.20313 -4.83124,-2.81277 -1.39572,0.52199 -1.42738,0.37747 -0.23773,-1.08504 1.89275,-2.32686 2.84502,-2.14249 6.78034,1.31277 3.74206,3.28557 6.51938,3.68819 10.34722,1.5 2.94915,-1.68589 8,-1.95902 8,-0.43261 0,0.61558 -0.85442,0.7962 -2.01856,0.42672 -1.37284,-0.43572 -2.99684,0.1825 -5.07672,1.93261 -4.4682,3.75974 -8.89419,3.47237 -12.96331,-0.84168 z m 57.55859,0.67472 c -7.80251,-0.5926 -7.95006,-2.25976 -0.2,-2.25976 5.28889,0 6.7,0.31592 6.7,1.5 0,0.825 -0.3375,1.41889 -0.75,1.31975 -0.4125,-0.0991 -3,-0.35113 -5.75,-0.55999 z m -102.14767,-3.25307 c -1.18122,-0.47659 -2.48869,-1.4183 -2.90548,-2.09268 -0.5723,-0.92601 0.19821,-1.06825 3.14767,-0.58109 2.14802,0.35479 6.09808,0.65002 8.77792,0.65607 4.21707,0.01 4.705,0.21277 3.62756,1.51101 -1.37576,1.65769 -9.03453,1.96451 -12.64767,0.50669 z m 88.57181,-5.51143 c -1.69034,-3.57761 -3.93978,-6.96844 -4.99874,-7.53519 -2.2476,-1.20287 -2.5529,-2.96007 -0.51429,-2.96007 1.99858,0 6.58866,5.74883 7.25659,9.08851 0.30902,1.54509 1.4102,3.577 2.44708,4.51536 2.27127,2.05547 2.42284,3.39613 0.38396,3.39613 -0.86617,0 -2.80141,-2.75177 -4.5746,-6.50474 z m 21.6323,2.03253 c -0.50809,-3.3882 -1.43719,-5.07212 -3.83305,-6.94717 -3.38184,-2.64668 -3.24579,-4.19859 0.27025,-3.08264 3.00951,0.95518 5.99819,6.30857 6.00262,10.75202 0.005,5.19182 -1.62534,4.70917 -2.43982,-0.72221 z m -89.65523,0.36645 c -2.69537,-2.8854 -3.82143,-5.89424 -2.20593,-5.89424 0.38241,0 1.98925,1.2375 3.57077,2.75 2.55629,2.44473 3.58917,2.7397 9.30472,2.65723 4.46043,-0.0644 6.42923,0.28271 6.42923,1.13337 0,1.57774 -3.25229,2.42858 -9.34879,2.44575 -4.14385,0.0117 -5.27058,-0.43788 -7.75,-3.09211 z m 41.09879,-1.73925 c 0,-2.59519 3.27489,-5.25739 8.72035,-7.08886 4.75402,-1.59892 8.86029,-6.44108 7.2643,-8.56613 -0.41307,-0.55 -1.26001,-3.41453 -1.88209,-6.36563 -0.62207,-2.9511 -2.02464,-6.62056 -3.1168,-8.15437 -2.74345,-3.85281 -2.55155,-5.39683 0.42809,-3.44449 2.91376,1.90917 5.58388,7.21646 5.59231,11.11562 0.003,1.56688 0.69194,4.16394 1.53012,5.77124 0.83818,1.6073 1.1297,3.1823 0.64781,3.5 -0.48188,0.3177 -1.18188,1.82658 -1.55555,3.35307 -1.06567,4.35332 -4.0827,6.72456 -8.55596,6.72456 -2.99818,0 -4.3927,0.59151 -5.89392,2.5 -2.34102,2.97612 -3.17866,3.14872 -3.17866,0.65499 z m -53,-6.0033 c 0,-0.46657 1.79691,-1.55416 3.99314,-2.41686 5.52602,-2.17068 6.32908,-4.78684 5.48709,-17.87533 -0.72729,-11.30545 -0.22809,-14.8595 2.08716,-14.8595 1.7057,0 1.76859,0.73775 0.39805,4.6693 -0.77326,2.21817 -0.64697,4.4558 0.5,8.85932 3.14237,12.06437 1.02792,19.40746 -6.16342,21.40444 -4.61401,1.28127 -6.30202,1.33983 -6.30202,0.21863 z m 24,-3.98271 c 0,-0.45706 1.16339,-1.45365 2.58531,-2.21464 3.18374,-1.70388 5.41469,-5.8255 5.41469,-10.00347 0,-4.7726 4.92038,-8.95087 10.54066,-8.95087 2.38103,0 5.4599,-0.42991 6.84194,-0.95537 6.39484,-2.43131 7.75823,-11.45922 3.24287,-21.47303 -3.63226,-8.05531 -2.84935,-8.99498 1.83164,-2.19839 3.5177,5.10754 3.91539,6.34813 4.3298,13.50676 l 0.45632,7.88265 -3.85375,2.61869 c -2.68049,1.82144 -5.16287,2.61869 -8.15373,2.61869 -2.36499,0 -5.83373,0.64084 -7.70831,1.42409 -2.78227,1.16251 -3.53529,2.12686 -4.09951,5.25 -0.87025,4.8171 -2.00696,7.11255 -5.23721,10.57591 -2.41029,2.58423 -6.19072,3.75608 -6.19072,1.91898 z m 68.63568,-2.31305 c -1.05771,-0.61459 -3.86996,-0.83355 -6.5,-0.50609 -6.27403,0.78115 -11.5295,-0.4407 -11.98107,-2.78551 -0.28826,-1.49681 9.6e-4,-1.6851 1.49397,-0.97258 1.01828,0.48596 4.95298,0.76683 8.74377,0.62417 4.89014,-0.18404 7.57724,0.18936 9.25,1.28539 3.84151,2.51706 2.93242,4.64341 -1.00667,2.35462 z m -1.92968,-6.52262 c -0.35146,-0.56867 -0.5984,-3.05715 -0.54877,-5.52996 0.0546,-2.72158 -0.59598,-5.54334 -1.6485,-7.14968 -1.68339,-2.56918 -1.67453,-2.65367 0.27843,-2.65367 2.30741,0 4.25542,4.41992 4.14255,9.39922 -0.0883,3.89786 -1.3694,7.3164 -2.22371,5.93409 z m -102.05101,-5.16205 c -2.61375,-2.88816 -2.07357,-4.49163 0.8646,-2.56647 2.48698,1.62953 7.51884,1.56958 13.23041,-0.15764 3.92249,-1.18618 2.4557,1.25339 -1.77024,2.94427 -5.3584,2.14401 -10.26454,2.05637 -12.32477,-0.22016 z m -9.45499,-11.37126 c -0.66,-0.66 -1.2,-1.785 -1.2,-2.5 0,-1.54269 2.18079,-1.71921 3.60797,-0.29203 0.6773,0.6773 3.03282,0.18521 7.18013,-1.5 6.39112,-2.59694 11.2119,-3.24532 11.2119,-1.50797 0,0.55 -1.05728,1 -2.34952,1 -1.29223,0 -4.32973,1.34181 -6.75,2.9818 -4.59035,3.11046 -9.62574,3.89294 -11.70048,1.8182 z m 102.8,-1.81878 c -0.91851,-0.63086 -4.60127,-0.79123 -9.5,-0.41369 -7.68919,0.59259 -8.09404,0.51599 -10.42061,-1.97155 -2.80194,-2.99581 -2.05753,-4.79116 0.88312,-2.12991 1.71728,1.55412 2.55818,1.64025 6.44895,0.66054 6.54083,-1.647 9.98399,-1.38999 12.98308,0.9691 1.46534,1.15264 3.36363,1.82733 4.21842,1.49932 0.97604,-0.37454 1.40094,-0.13116 1.14227,0.65429 -0.53554,1.62615 -3.84116,2.04653 -5.75523,0.7319 z m -158.46114,-5.23122 c 1.00142,-4.66434 2.07093,-6.35911 5.72457,-9.07125 3.67176,-2.72559 8.87704,-4.67875 12.46913,-4.67875 4.28932,0 1.87195,2.43001 -3.6336,3.65261 -6.24937,1.38776 -8.73764,3.41016 -11.19301,9.09739 -2.21121,5.12167 -4.391,5.76905 -3.36709,1 z m 87.46114,-3.03181 c 0,-3.56811 3.22903,-7.11705 10.27993,-11.29838 14.59215,-8.65345 16.22032,-10.48119 13.303,-14.93359 -2.46757,-3.76598 -1.7987,-5.30332 0.94867,-2.18046 3.2076,3.64599 3.29103,9.17777 0.20744,13.75351 -1.9413,2.8807 -3.17837,3.53907 -8.75,4.65673 -7.70467,1.54556 -10.94312,3.69259 -12.48729,8.27881 -1.38439,4.11167 -3.50175,5.15372 -3.50175,1.72338 z m -56.7541,0.0318 c 0.27026,-0.81881 3.48979,-1.43512 9.33334,-1.78666 12.26061,-0.73758 17.09881,-3.61669 25.50927,-15.18002 4.24074,-5.8305 6.06209,-7.42613 11.23631,-9.84381 3.39635,-1.58697 9.73336,-3.77287 14.08224,-4.85756 7.91228,-1.97347 9.54896,-3.05551 9.57763,-6.33195 0.008,-0.9625 0.52456,-1.75 1.14698,-1.75 1.35215,0 0.55399,7.71434 -0.95421,9.22254 -0.5392,0.5392 -4.06221,1.61977 -7.82891,2.40128 -9.15178,1.89878 -16.30206,5.51645 -20.98792,10.61878 -15.6455,17.03606 -18.51029,18.70324 -32.19396,18.73544 -7.02755,0.0165 -9.23141,-0.28685 -8.92077,-1.22804 z m 128.7541,-4.35842 c 0,-1.83027 -1.41703,-3.91534 -4.75,-6.98933 -3.97198,-3.66335 -4.40053,-4.38266 -2.61636,-4.39157 3.1514,-0.0158 9.36636,7.27802 9.36636,10.99221 0,1.64842 -0.45,2.99712 -1,2.99712 -0.55,0 -1,-1.17379 -1,-2.60843 z m -12.97257,-13.85851 c -1.14541,-1.38014 -2.42956,-1.5667 -7.0738,-1.02768 -7.07139,0.82072 -12.91777,-0.81473 -16.58102,-4.63834 -3.65093,-3.81076 -2.49797,-4.57046 2.1497,-1.41647 3.27166,2.22021 4.81639,2.54943 11.96225,2.54943 6.85398,0 8.49495,0.31988 9.96307,1.94214 0.96669,1.06817 1.58249,2.46751 1.36844,3.10965 -0.2575,0.77249 -0.86268,0.59698 -1.78864,-0.51873 z m -33.59854,-16.3863 c -2.81256,-0.51506 -5.42889,-3.15413 -5.42889,-5.47606 0,-1.94665 0.0885,-1.93615 2.46026,0.29197 2.15828,2.02759 3.37056,2.29019 9.87622,2.13935 6.61872,-0.15346 12.66352,1.18714 12.66352,2.8085 0,0.63004 -16.34345,0.82732 -19.57111,0.23624 z m -4.07338,182.61421 c -3.79328,-10.89678 -4.20659,-7.96686 -0.71474,5.06673 2.49901,9.32773 2.89928,10.18396 3.17712,6.79614 0.19585,-2.38816 -0.74941,-6.94212 -2.46238,-11.86287 z m -33.56007,-21.76738 c -0.43172,-1.13843 -46.05922,-38.99359 -46.99967,-38.99359 -0.43767,0 -0.79577,1.55583 -0.79577,3.45741 0,3.08805 0.76179,4.06522 7.1309,9.14703 3.92199,3.12929 7.85949,7.08596 8.75,8.79259 2.18826,4.19376 12.98593,14.96271 17.20598,17.16023 1.87721,0.97753 4.76312,2.07313 6.41312,2.43466 3.15587,0.69149 8.79989,-0.66813 8.29544,-1.99833 z m 15.13882,-4.99359 c 4.43616,0 8.036,-0.3375 7.99966,-0.75 -0.078,-0.8853 -67.59764,-56.94557 -71.65614,-59.49474 -1.52778,-0.9596 -3.01383,-1.7471 -3.30234,-1.75 -0.28851,-0.003 -1.0699,3.42228 -1.73644,7.61149 -1.17684,7.39659 -1.14723,7.66875 1.02456,9.41591 1.23004,0.98955 14.38644,11.90732 29.23644,24.26172 21.29954,17.72006 27.35559,22.27707 28.68426,21.58408 0.92634,-0.48315 5.31384,-0.87846 9.75,-0.87846 z m 7.07869,-9.46594 c -4.61665,-12.1427 -14.73765,-24.22967 -24.51295,-29.27449 -1.65,-0.85153 -8.625,-5.03776 -15.5,-9.30275 -6.875,-4.26498 -14.075,-8.06542 -16,-8.44542 l -3.5,-0.69089 3.5,2.96024 c 10.60728,8.97147 56.53443,47.18882 56.72525,47.20278 0.12389,0.009 -0.19665,-1.0932 -0.7123,-2.44947 z m -75.01295,-25.37907 c 0,-3.69652 -0.50872,-5.29658 -2.1461,-6.75 -1.45721,-1.2935 -2.27976,-1.5238 -2.56251,-0.71746 -0.22903,0.65314 -1.66735,2.90314 -3.19628,5 l -2.77986,3.81247 4.09237,1.69413 c 6.21904,2.5745 6.59238,2.40239 6.59238,-3.03914 z m -56.98174,-62.90499 c 0.49639,-20.38773 0.35838,-19.47845 3.98448,-26.25 3.34468,-6.24602 13.33279,-17.55987 17.49726,-19.81972 1.90353,-1.03295 1.82922,-1.22749 -1.54056,-4.03296 -1.94731,-1.6212 -4.42231,-4.78741 -5.5,-7.03601 -1.0921,-2.27865 -2.67609,-4.09344 -3.57845,-4.09984 -3.82402,-0.0271 -19.35595,3.17118 -26.76187,5.51071 -12.45559,3.93472 -17.11912,8.94934 -17.11912,18.40792 0,9.08313 1.92013,11.9187 17.31427,25.56905 13.28785,11.78267 15.66,13.55768 15.70399,11.75085 z M 479.33032,676.8682 c 7.70125,-2.70878 10.37091,-3.16328 18.5,-3.14957 5.225,0.009 11.32425,0.3771 13.5539,0.8184 3.80551,0.7532 4.24027,0.59009 7.09589,-2.66229 2.74514,-3.12653 3.10842,-4.34442 3.72255,-12.47973 0.42292,-5.60234 1.85432,-12.75359 3.78118,-18.89071 2.9256,-9.31815 3.06701,-10.4966 2.50501,-20.87564 -0.32759,-6.05 -1.02389,-13.475 -1.54734,-16.5 -0.52345,-3.025 -1.51266,-11.20106 -2.19824,-18.16903 -1.13583,-11.54402 -1.08975,-13.0795 0.51887,-17.29161 0.97096,-2.54243 2.00851,-7.30387 2.30567,-10.58098 0.48475,-5.34587 0.34611,-5.96725 -1.3486,-6.0447 -1.03889,-0.0475 -4.09468,-0.21819 -6.79064,-0.37935 -4.22548,-0.2526 -5.22773,0.0697 -7.26455,2.33632 -2.75706,3.06809 -2.52682,6.64503 0.72137,11.20668 2.13171,2.99371 1.90011,4.92267 -0.59103,4.92267 -2.23979,0 -4.47466,-4.29404 -5.13449,-9.86531 -0.52616,-4.44252 -0.25599,-5.64746 2.04632,-9.12648 1.93376,-2.92212 2.26297,-4.00821 1.21491,-4.00821 -0.79067,0 -3.50095,-1.575 -6.02284,-3.5 -2.52188,-1.925 -4.97067,-3.5 -5.44173,-3.5 -1.58445,0 -6.12621,-4.13133 -6.12621,-5.57258 0,-2.00743 1.60846,-1.77677 4.97703,0.71372 2.24721,1.66143 3.73491,2.00501 6.64026,1.53354 7.37569,-1.19691 8.52017,-6.0731 1.68527,-7.18034 -2.09141,-0.33881 -5.86395,-1.52991 -8.38342,-2.64689 -8.72755,-3.86928 -12.62046,-0.79809 -13.58595,10.71821 l -0.58511,6.97927 5.45188,6.47754 c 2.99854,3.56264 6.43022,8.40389 7.62596,10.75832 2.22186,4.37488 2.97558,12.21921 1.17408,12.21921 -0.55,0 -1,-0.87344 -1,-1.94098 0,-1.06754 -0.45,-2.2191 -1,-2.55902 -0.61786,-0.38186 -1.00757,1.41073 -1.01981,4.69098 -0.039,10.45392 -2.02279,19.16774 -7.50154,32.95062 -6.30993,15.87389 -6.62493,19.02755 -2.82482,28.281 2.95134,7.18667 5.86976,9.28022 11.28012,8.09191 2.33812,-0.51354 3.06605,-0.32383 3.06605,0.79905 0,3.19844 -8.42347,3.71438 -12.19587,0.74701 -1.35608,-1.06669 -3.77926,-4.86388 -5.38486,-8.4382 -2.82264,-6.28364 -3.08035,-6.53814 -7.78536,-7.68816 -7.81434,-1.91002 -16.3527,-0.72955 -24.27395,3.35598 -3.77298,1.94597 -6.7808,3.91427 -6.68405,4.37397 0.0968,0.45971 0.48239,1.62334 0.85699,2.58584 0.90798,2.33302 -1.01551,2.2546 -4.43576,-0.18083 -2.43594,-1.73454 -13.09714,-6.28911 -13.09714,-5.59522 0,0.15499 0.68262,1.91555 1.51694,3.91235 0.83431,1.9968 1.24385,4.71859 0.91009,6.04843 -0.50496,2.01191 0.057,2.85718 3.34668,5.03421 4.16381,2.75548 11.03489,11.31118 14.46381,18.00997 1.12018,2.18841 2.3125,6.23841 2.64959,9 0.60336,4.94304 0.67506,5.0314 4.61289,5.68471 6.91716,1.14759 16.6446,-0.13347 26,-3.42408 z m 26.5,-8.64408 c 0,-0.80301 10.18508,-7.09546 11.48485,-7.09546 0.28333,0 0.51515,0.8633 0.51515,1.91844 0,1.0995 -1.43775,2.80702 -3.36803,4 -3.42155,2.11463 -8.63197,2.8251 -8.63197,1.17702 z m -48.84176,-7.53613 c -5.09902,-1.25455 -9.18708,-3.86383 -7.96628,-5.08463 0.31511,-0.3151 3.58199,0.12494 7.25973,0.97786 9.60325,2.22715 14.18623,0.76067 22.84351,-7.30953 4.28752,-3.99678 4.87738,-4.29506 4.23788,-2.14303 -1.47531,4.96467 -4.21319,8.52452 -8.5817,11.15813 -5.57862,3.36313 -10.94177,4.0869 -17.79314,2.4012 z m 47.84176,-26.59421 c 0,-0.66085 0.76767,-4.93101 1.70594,-9.48925 1.74906,-8.4972 1.71699,-9.05325 -1.38274,-23.97256 -0.55033,-2.64879 -0.43908,-2.84437 0.95823,-1.6847 0.86947,0.72159 2.06184,3.55475 2.64971,6.29591 1.46509,6.83147 1.34114,23.79404 -0.19588,26.80651 -1.35287,2.65155 -3.73526,3.95529 -3.73526,2.04409 z M 290.5067,637.3234 c 13.14315,-8.88297 25.9191,-14.72299 36.56514,-16.7143 3.14188,-0.58768 3.67263,-1.04286 3.31167,-2.84014 -0.23641,-1.17716 -0.70116,-5.23669 -1.03277,-9.02116 -0.33161,-3.78447 -1.20571,-8.28447 -1.94243,-10 -4.03725,-9.40106 -22.6793,-18.61914 -37.65416,-18.61914 -18.64665,0 -35.33989,11.82492 -39.52762,28 -0.92557,3.575 -1.71307,9.65 -1.75,13.5 -0.0588,6.12603 0.35901,7.79522 3.34621,13.36926 3.48119,6.49584 8.20343,11.19231 12.25044,12.18362 4.53143,1.10997 17.19049,-3.61111 26.43352,-9.85814 z m -7.67638,-11.47352 c 0,-0.70332 2.48905,-5.47101 5.53123,-10.59487 3.04218,-5.12385 6.677,-11.57716 8.07738,-14.34069 1.40039,-2.76352 3.70205,-6.09583 5.1148,-7.40513 2.59896,-2.40863 6.27659,-3.21753 6.27659,-1.38053 0,0.55 -0.64224,1 -1.4272,1 -2.59513,0 -7.51327,7.31447 -10.06232,14.96514 -3.27083,9.81697 -13.51048,23.27439 -13.51048,17.75608 z m 285.83681,-23.2252 c 7.65505,-3.56366 16.8348,-13.22288 21.85454,-22.99602 5.90364,-11.49406 8.38509,-20.31446 9.02845,-32.09194 1.8623,-34.0913 -18.05154,-52.38651 -40.61843,-37.31692 -9.73801,6.5028 -16.88684,16.63046 -21.9629,31.11461 -5.93074,16.9229 -6.31317,32.23407 -1.14982,46.03438 5.70294,15.24245 19.30595,21.56019 32.84816,15.25589 z m -21.25498,-5.79985 c -5.8526,-7.67315 -7.93378,-18.63418 -6.41716,-33.79743 2.48307,-24.82579 17.09055,-49.96239 31.58533,-54.35211 4.152,-1.25742 2.31259,1.22713 -3.22022,4.34965 -14.45464,8.1577 -26.52978,35.01642 -26.52978,59.01019 0,9.6354 2.03783,16.67982 6.52618,22.55988 3.91041,5.12292 4.06069,5.53365 2.02471,5.53365 -0.79701,0 -2.58309,-1.48672 -3.96906,-3.30383 z M 485.91817,567.6176 c 1.87668,-0.95156 4.18156,-2.40423 5.12196,-3.22815 1.61053,-1.41104 1.60107,-1.70888 -0.16292,-5.12941 -1.95144,-3.78402 -3.8578,-6.01454 -8.54373,-9.99654 -2.75855,-2.34416 -2.77832,-2.44628 -2.22671,-11.5 0.67609,-11.09669 1.72296,-14.06605 5.68059,-16.11262 2.41546,-1.24909 3.05201,-2.23848 3.08685,-4.7979 0.0556,-4.08378 2.24341,-10.27932 4.51712,-12.79174 2.93258,-3.24046 12.34897,-7.12985 17.64286,-7.2873 4.68408,-0.1393 4.85951,-0.24811 4.26507,-2.64528 -2.63677,-10.63306 -11.77061,-21.92706 -19.39312,-23.97958 -11.20175,-3.01632 -26.55942,6.51969 -35.9601,22.32863 -7.66825,12.89554 -12.04377,32.74373 -10.17705,46.16499 2.33598,16.79506 8.30169,26.54651 18.56133,30.34 4.03444,1.49173 13.38492,0.76598 17.58785,-1.3651 z m -18.34714,-6.23894 c -1.44842,-1.5125 -3.67011,-5 -4.9371,-7.75 -2.06599,-4.48424 -2.29907,-6.44413 -2.25957,-19 0.0523,-16.62944 1.36918,-22.47197 8.33955,-37 6.43302,-13.40805 14.76424,-22.49964 22.86641,-24.95337 3.81908,-1.1566 2.53201,1.26885 -1.86317,3.5111 -5.27013,2.68863 -11.96912,9.58987 -15.75609,16.23181 -13.62956,23.90475 -15.87798,53.4512 -5.09108,66.90182 1.62819,2.03025 2.96034,3.94275 2.96034,4.25 0,1.30121 -1.80306,0.37355 -4.25929,-2.19136 z m 63.77484,-20.25 c 2.39081,-7.09444 6.60027,-15.88336 9.73565,-20.32704 1.11091,-1.57447 1.60793,-3.18695 1.12176,-3.63933 -8.05816,-7.49809 -10.62272,-9.03363 -15.08739,-9.03363 -4.1003,0 -5.00169,-0.44291 -8.40597,-4.13042 -3.65008,-3.95375 -4.02125,-4.11043 -8.67757,-3.66301 -9.92831,0.95398 -16.22539,6.28438 -17.60322,14.9009 -0.74253,4.64352 -0.30699,5.45304 3.42966,6.37458 2.30857,0.56933 2.63109,0.23987 3.70845,-3.78822 1.07164,-4.00677 1.66576,-4.62154 6.47152,-6.6966 6.20541,-2.67941 13.79156,-3.83774 13.79156,-2.10584 0,1.31628 -2.67881,2.58136 -8.65534,4.08752 -7.63574,1.92431 -11.18176,7.18399 -7.39581,10.96994 1.12813,1.12813 3.31115,2.05115 4.85115,2.05115 3.66494,0 5.2,1.66158 5.2,5.62857 0,3.63114 -1.95497,6.07104 -5.5968,6.98508 -1.95754,0.49131 -2.22333,0.89815 -1.30763,2.0015 1.57146,1.8935 3.91571,1.73821 5.51238,-0.36515 1.13881,-1.50019 1.33298,-1.52507 1.36025,-0.17431 0.047,2.32921 4.42693,6.03541 8.21647,6.95261 6.17642,1.49491 6.96788,0.98358 9.33088,-6.0283 z m -6.05565,-2.06489 c -1.21238,-1.96166 0.55788,-7.66262 3.28012,-10.56333 2.26824,-2.41695 2.75087,-2.59756 3.04727,-1.14039 0.19371,0.95226 -0.35419,2.73989 -1.21755,3.9725 -0.86336,1.23262 -1.56974,3.71599 -1.56974,5.51862 0,3.26332 -2.08524,4.56662 -3.5401,2.2126 z m -9.7724,-9.58094 c -1.12822,-1.12822 -0.78363,-5.18833 0.75232,-8.86439 1.64409,-3.93485 6.76422,-7.48054 10.81018,-7.48604 3.61787,-0.005 3.53369,1.66522 -0.12442,2.46868 -4.11349,0.90347 -7.4005,4.86215 -8.05974,9.70667 -0.54053,3.97209 -1.90055,5.65286 -3.37834,4.17508 z"
       id="path3717"
       inkscape:connector-curvature="0" />
  </g>
</svg>
