<?xml version="1.0" encoding="UTF-8" standalone="no"?>
<!-- Created with Inkscape (http://www.inkscape.org/) -->

<svg
   xmlns:dc="http://purl.org/dc/elements/1.1/"
   xmlns:cc="http://creativecommons.org/ns#"
   xmlns:rdf="http://www.w3.org/1999/02/22-rdf-syntax-ns#"
   xmlns:svg="http://www.w3.org/2000/svg"
   xmlns="http://www.w3.org/2000/svg"
   xmlns:sodipodi="http://sodipodi.sourceforge.net/DTD/sodipodi-0.dtd"
   xmlns:inkscape="http://www.inkscape.org/namespaces/inkscape"
   width="176.48874"
   height="247.7744"
   id="svg2"
   version="1.1"
   inkscape:version="0.48.3.1 r9886"
   sodipodi:docname="One-legged-kickback-2.svg">
  <defs
     id="defs4" />
  <sodipodi:namedview
     id="base"
     pagecolor="#ffffff"
     bordercolor="#666666"
     borderopacity="1.0"
     inkscape:pageopacity="0.0"
     inkscape:pageshadow="2"
     inkscape:zoom="1.979899"
     inkscape:cx="68.482975"
     inkscape:cy="67.633245"
     inkscape:document-units="px"
     inkscape:current-layer="layer1"
     showgrid="false"
     fit-margin-top="0"
     fit-margin-left="0"
     fit-margin-right="0"
     fit-margin-bottom="0"
     inkscape:window-width="1855"
     inkscape:window-height="1056"
     inkscape:window-x="65"
     inkscape:window-y="24"
     inkscape:window-maximized="1" />
  <metadata
     id="metadata7">
    <rdf:RDF>
      <cc:Work
         rdf:about="">
        <dc:format>image/svg+xml</dc:format>
        <dc:type
           rdf:resource="http://purl.org/dc/dcmitype/StillImage" />
        <dc:title></dc:title>
      </cc:Work>
    </rdf:RDF>
  </metadata>
  <g
     inkscape:label="Ebene 1"
     inkscape:groupmode="layer"
     id="layer1"
     transform="translate(-1135.2006,-1042.2417)">
    <path
       style="fill:#000000"
       d=""
       id="path3414"
       inkscape:connector-curvature="0" />
    <path
       style="fill:#000000"
       d=""
       id="path3412"
       inkscape:connector-curvature="0" />
    <path
       style="fill:#000000"
       d="m 1217.0016,1289.2828 c -0.8421,-0.3739 -4.3296,-3.7059 -7.75,-7.4045 -6.7383,-7.2864 -7.427,-9.5384 -4.5928,-15.0191 0.8944,-1.7296 2.4246,-5.9365 3.4004,-9.3487 0.9758,-3.4122 2.0614,-7.1091 2.4125,-8.2154 0.5279,-1.663 -0.018,-2.2228 -3.1503,-3.232 -4.9854,-1.6062 -6.3171,-2.7605 -6.1525,-5.3325 l 0.1362,-2.1275 0.4156,2.1148 c 0.2992,1.5222 1.8344,2.573 5.4787,3.75 2.7846,0.8994 6.1629,1.6352 7.5072,1.6352 1.3748,0 2.1737,0.4375 1.8261,1 -0.3399,0.55 -1.4188,1 -2.3974,1 -1.3981,0 -2.2426,1.8293 -3.941,8.5367 -1.1889,4.6951 -2.2138,9.9826 -2.2776,11.75 -0.064,1.7673 -0.3218,2.4258 -0.5733,1.4633 -0.8729,-3.3403 -3.3107,-1.1158 -3.3107,3.021 0,2.6769 12.8652,14.1156 17.1839,15.2785 4.5001,1.2118 10.2194,0.3744 11.9867,-1.755 1.0403,-1.2536 0.2348,-2.4311 -4.9644,-7.2574 -3.4134,-3.1686 -6.2062,-6.2386 -6.2062,-6.8224 0,-0.5837 -1.165,-2.4458 -2.5889,-4.138 -1.4239,-1.6922 -2.0464,-3.0767 -1.3834,-3.0767 0.7153,0 0.9918,-0.8176 0.6798,-2.0105 -0.5355,-2.0479 4.3046,-13.2609 6.2407,-14.4575 1.533,-0.9474 1.3634,-0.3702 -1.9474,6.6282 -1.6496,3.4869 -2.9996,7.2642 -3,8.394 0,2.9872 5.2204,10.7478 9.4692,14.0739 3.0692,2.4026 6.53,7.0207 6.53,8.7136 0,0.2426 -1.8091,1.165 -4.0202,2.0497 -4.0508,1.6208 -12.1747,2.0474 -15.0109,0.7883 z m 29.6248,-10.1989 c -1.5984,-0.4903 -4.2984,-2.2364 -6,-3.8802 -1.7842,-1.7238 -4.9541,-3.4046 -7.4892,-3.9711 -4.2651,-0.9532 -6.0576,-2.3704 -6.0892,-4.8144 -0.029,-2.2125 1.7673,-5.8054 4.4061,-8.8151 1.4467,-1.65 2.8924,-4.0125 3.2129,-5.25 0.3204,-1.2375 0.9837,-2.25 1.4741,-2.25 1.8921,0 0.7304,3.013 -3.142,8.1496 -4.8726,6.4632 -5.0142,9.8603 -0.4664,11.1921 5.0332,1.4739 11.5,4.5802 11.5,5.524 0,1.4675 5.9191,3.4614 9.8381,3.314 2.1709,-0.082 4.1668,-0.8335 4.9099,-1.8497 0.6886,-0.9418 1.252,-1.2314 1.252,-0.6436 0,2.8862 -8.1819,4.8967 -13.4063,3.2944 z m 33.9063,0.3332 c -1.1,-0.2371 -2.675,-0.7012 -3.5,-1.0313 -0.825,-0.3301 -1.8938,-0.51 -2.3752,-0.3998 -1.4389,0.3297 -4.8112,-3.1712 -6.1897,-6.4259 -0.7089,-1.6736 -1.5975,-5.7699 -1.9745,-9.1027 l -0.6856,-6.0598 -20.6375,-4.809 c -20.8243,-4.8524 -26.0339,-6.3017 -23.0852,-6.4221 0.8537,-0.035 10.0787,1.9784 20.5,4.474 10.4212,2.4956 20.1852,4.8018 21.6977,5.125 2.2126,0.4727 2.75,1.1398 2.75,3.4134 0,5.9874 2.2443,13.1652 5.089,16.2754 l 2.8799,3.1488 -1.8839,-4 c -1.0361,-2.2 -2.1447,-6.7 -2.4636,-10 l -0.5798,-6 1.4596,6.9851 c 1.7742,8.4915 4.0047,11.7047 8.9342,12.8706 5.1862,1.2265 7.9895,-0.3225 10.9789,-6.0665 2.7021,-5.1918 3.4256,-5.196 1.2146,-0.01 -2.4119,5.6605 -7.4997,9.0297 -12.1289,8.0319 z m -2.7671,-6.064 c -0.6909,-1.5605 -1.2208,-7.0882 -1.2252,-12.7791 -0.01,-8.7662 0.3096,-10.6454 2.5122,-14.9233 1.3859,-2.6918 3.0888,-5.0838 3.7841,-5.3156 0.6954,-0.2318 0.1303,1.2495 -1.2556,3.2918 -3.374,4.9718 -4.5361,9.5804 -4.5428,18.0147 0,4.9395 0.5587,8.1454 1.8866,10.75 1.0407,2.0413 1.4796,3.7115 0.9753,3.7115 -0.5044,0 -1.4649,-1.2375 -2.1346,-2.75 z m -25.6602,-6.7402 c -5.9986,-7.3987 -6.6545,-8.8301 -5.4657,-11.928 1.1312,-2.9478 2.2052,-1.602 1.7305,2.1682 -0.4356,3.4589 0.01,4.274 5.6747,10.5 3.3809,3.7125 5.6939,6.75 5.1401,6.75 -0.5538,0 -3.7397,-3.3706 -7.0796,-7.4902 z m -17.8512,-3.1046 c -0.1181,-1.4271 0.1723,-3.2866 0.6455,-4.132 0.5896,-1.0536 0.8603,-0.2371 0.8603,2.5948 0,4.5211 -1.1608,5.7061 -1.5058,1.5372 z m 61.0285,-0.1273 c -8.6826,-2.055 -10.25,-2.7253 -10.25,-4.3833 0,-2.9529 1.6436,-3.0338 11.9908,-0.5899 7.3512,1.7362 9.5703,2.6548 9.8437,4.0746 0.1942,1.0082 -0.027,2.1687 -0.4907,2.5789 -0.4641,0.4102 -5.4563,-0.346 -11.0938,-1.6803 z m 8.2911,-0.3445 c 0.9834,-1.5911 0.2776,-1.9377 -7.0815,-3.4774 -3.7069,-0.7756 -7.5768,-1.6758 -8.5997,-2.0005 -1.2175,-0.3864 -1.8599,-0.1 -1.8599,0.8305 0,0.9304 2.675,2.1235 7.75,3.4567 9.6565,2.5367 9.008,2.4578 9.7911,1.1907 z m -61.8744,-0.6001 c -0.3667,-0.3667 -0.653,-1.3792 -0.6363,-2.25 0.025,-1.3003 0.2201,-1.2571 1.0917,0.2417 1.0768,1.8517 0.7646,3.2283 -0.4554,2.0083 z m 53.5283,-7.8333 c 0.02,-1.65 0.2445,-2.204 0.498,-1.231 0.2535,0.973 0.2369,2.323 -0.037,3 -0.2739,0.677 -0.4814,-0.119 -0.461,-1.769 z m -24.1275,-0.072 c -0.1191,-3.6569 3.0299,-11.3209 5.925,-14.4201 1.9181,-2.0534 2.3408,-3.0081 1.3318,-3.0081 -2.5201,0 -7.0274,5.3958 -8.8914,10.6439 l -1.7794,5.0101 -12.0768,-2.8297 c -10.3142,-2.4168 -24.25,-5.7156 -37.4214,-8.8583 -2.9894,-0.7133 -3.2914,-0.5945 -2.8436,1.118 0.2756,1.0539 0.093,1.9161 -0.4053,1.9161 -0.4985,0 -0.9064,-1.125 -0.9064,-2.5 0,-2.8982 -0.2881,-2.8605 7.5,-0.98 3.3,0.7968 6.2926,1.4558 6.6503,1.4644 0.3576,0.01 1.1805,-2.195 1.8287,-4.8969 0.6482,-2.7018 2.268,-6.3892 3.5997,-8.1942 3.0068,-4.0755 3.0067,-4.9629 0,-11.3222 -2.8741,-6.0754 -5.3276,-8.5002 -9.786,-9.6717 l -3.2909,-0.8647 3.7595,0.4213 c 4.7954,0.5374 9.5523,3.911 10.3785,7.3604 1.2135,5.0669 3.3408,8.1813 5.6377,8.2539 1.2234,0.039 3.1243,0.4799 4.2243,0.9805 1.3749,0.6258 0.5497,0.7298 -2.6404,0.3327 -4.599,-0.5726 -4.6508,-0.5463 -5.8062,2.9548 -0.6412,1.9429 -1.6027,3.6781 -2.1366,3.8561 -0.8417,0.2805 -4.2048,10.8608 -3.63,11.4199 0.1173,0.114 1.7882,0.5004 3.7132,0.8587 3.4547,0.6429 3.5223,0.5882 5.2261,-4.2279 1.7497,-4.9457 7.5186,-13.8338 8.4041,-12.9482 0.2657,0.2656 -1.2686,3.345 -3.4095,6.843 -2.1408,3.498 -4.1183,7.5423 -4.3944,8.9872 -0.471,2.4652 -0.1739,2.7006 4.8208,3.8184 2.9275,0.6551 5.7369,0.9352 6.2431,0.6224 0.5061,-0.3129 2.1432,-2.7061 3.6378,-5.3184 4.1419,-7.2391 9.7485,-15.3064 10.273,-14.7819 0.6936,0.6936 -1.9018,6.5324 -2.9037,6.5324 -0.473,0 -2.5559,3.1423 -4.6287,6.983 -2.0727,3.8407 -4.4436,7.0374 -5.2686,7.104 -0.825,0.067 1.875,0.9567 6,1.9783 8.1593,2.0208 10,1.8926 10,-0.6961 0,-2.4989 4.752,-10.1661 7.0695,-11.4064 2.0233,-1.0829 9.3168,-0.478 13.6326,1.1305 1.2112,0.4514 2.8987,2.1677 3.75,3.8141 2.2684,4.3865 1.8879,4.892 -0.7456,0.9905 -1.2614,-1.8689 -2.9489,-3.4414 -3.75,-3.4946 -0.8011,-0.053 -2.3146,-0.4659 -3.3633,-0.9171 -4.2491,-1.8284 -9.735,4.207 -12.2284,13.4532 -0.6764,2.5083 -1.2602,3.6282 -1.2973,2.4887 z m -118.7834,-5.1294 c -4.955,-0.9591 -9.267,-9.3259 -9.2785,-18.0035 -0.01,-4.0146 -0.1643,-4.2344 -3.5166,-4.8633 -1.9311,-0.3623 -3.8049,-1.1342 -4.1641,-1.7153 -0.4244,-0.6867 0.017,-0.7975 1.2611,-0.3166 1.0527,0.407 3.1515,0.9897 4.664,1.295 2.5225,0.509 2.7505,0.9375 2.7556,5.1799 0.01,8.4971 3.2996,15.7347 7.5076,16.5189 9.2683,1.7274 10.0882,1.7075 12.6484,-0.3064 1.4122,-1.1108 3.1392,-3.3994 3.8376,-5.0856 0.6985,-1.6863 1.4676,-2.8684 1.7091,-2.6269 0.6521,0.6521 -2.5241,6.4409 -4.7615,8.6782 -1.9008,1.9009 -6.7916,2.382 -12.6627,1.2456 z m 141.7949,-0.8821 c 0.048,-1.1649 0.2849,-1.4019 0.6041,-0.6042 0.2889,0.7219 0.2534,1.5844 -0.079,1.9167 -0.3323,0.3323 -0.5686,-0.2583 -0.5252,-1.3125 z m -144.6741,-4.5737 c -1.1379,-2.1829 -1.8324,-6.1191 -2.0013,-11.3429 l -0.2588,-8 0.7884,8.213 c 0.4692,4.8877 1.4844,9.2754 2.5075,10.8368 0.9455,1.443 1.4913,2.8515 1.2129,3.1299 -0.2784,0.2784 -1.2903,-0.9982 -2.2487,-2.8368 z m 4.9,-0.093 c -1.2834,-2.3882 -1.7542,-5.6364 -1.7757,-12.25 -0.026,-7.8848 0.3207,-9.7125 2.7943,-14.75 1.553,-3.1625 3.2711,-5.75 3.8181,-5.75 0.547,0 0.1545,1.2375 -0.8723,2.75 -5.2357,7.7126 -6.6154,18.4446 -3.5354,27.5 1.0756,3.1625 1.8121,5.75 1.6366,5.75 -0.1755,0 -1.1051,-1.4625 -2.0656,-3.25 z m 93.0985,-2 c 0.7157,-1.7875 1.6034,-4.1019 1.9725,-5.1431 0.3692,-1.0412 0.9232,-1.6411 1.2312,-1.3331 0.5997,0.5997 -3.1535,9.7262 -3.9998,9.7262 -0.2779,0 0.08,-1.4625 0.7961,-3.25 z m -54.9034,-2.7368 c -3.85,-0.9926 -12.2875,-3.0496 -18.75,-4.5712 -6.4625,-1.5216 -11.75,-3.1027 -11.75,-3.5137 0,-0.411 2.3625,-0.1117 5.25,0.6652 2.8875,0.7769 11.1,2.7947 18.25,4.4839 7.15,1.6893 13.4275,3.4879 13.95,3.997 0.5225,0.5091 0.7475,0.8846 0.5,0.8346 -0.2475,-0.05 -3.6,-0.9032 -7.45,-1.8958 z m 23.1456,-3.5922 c -1.5699,-1.889 -2.6176,-4.0517 -2.3281,-4.8059 0.2894,-0.7543 0.1268,-1.7708 -0.3614,-2.259 -0.9724,-0.9724 -1.3002,-7.6665 -0.9563,-19.5318 0.1553,-5.3612 -0.3069,-9.0616 -1.5331,-12.2722 -2.0185,-5.2856 -1.2716,-7.4976 0.8167,-2.4185 l 1.384,3.3664 1.6436,-3.1564 c 1.1131,-2.1378 1.7315,-6.2508 1.9163,-12.7452 0.15,-5.2739 0.5577,-9.591 0.9061,-9.5936 2.2193,-0.017 1.6325,13.7726 -0.9032,21.2225 -0.8849,2.6 -1.2815,5.0547 -0.8812,5.455 0.4003,0.4003 3.748,0.9237 7.4394,1.1631 4.6883,0.304 6.1087,0.6767 4.7116,1.2363 -2.2513,0.9016 -10.0856,0.1368 -12.75,-1.2447 -0.9625,-0.4991 -1.75,-0.6037 -1.75,-0.2325 0,0.3713 0.7875,1.2882 1.75,2.0377 1.6376,1.2752 1.6273,1.3196 -0.1607,0.6916 -1.6316,-0.5731 -1.8162,-0.3178 -1.2637,1.7475 0.3559,1.3303 0.6532,3.4567 0.6607,4.7254 0.013,2.1835 0.1323,2.2236 2.2362,0.75 3.8175,-2.6739 4.0135,-1.7029 0.3123,1.5469 -3.2883,2.8871 -3.5348,3.5107 -3.5348,8.941 0,6.2183 0.9224,7.5975 4.75,7.103 2.6542,-0.343 2.929,1.4379 0.7107,4.605 -1.3925,1.9881 -1.3815,2.4386 0.115,4.7226 2.4093,3.677 0.4016,2.9547 -2.9301,-1.0542 z m 0.8544,-3.421 c 0.3399,-0.55 0.1415,-1 -0.441,-1 -0.5824,0 -1.059,0.45 -1.059,1 0,0.55 0.1984,1 0.441,1 0.2425,0 0.7191,-0.45 1.059,-1 z m -46.4211,4.4166 c 0.048,-1.1649 0.285,-1.4019 0.6042,-0.6041 0.2889,0.7218 0.2534,1.5843 -0.079,1.9166 -0.3323,0.3323 -0.5687,-0.2583 -0.5253,-1.3125 z m 31.5878,-0.083 c -0.3667,-0.3667 -0.6667,-3.5462 -0.6667,-7.0657 0,-3.5195 -0.4521,-7.2439 -1.0047,-8.2765 -1.1357,-2.1221 -1.2512,-4.9856 -1.1089,-27.4992 0.07,-11.0917 0.5739,-17.6947 1.6406,-21.5 0.8467,-3.0205 1.6455,-7.8166 1.7752,-10.6579 0.1573,-3.4456 0.8787,-5.8764 2.1662,-7.2991 2.5998,-2.8728 15.7761,-9.0349 19.319,-9.0349 2.3004,0 3.2965,-0.8046 5.2092,-4.2078 1.3007,-2.3142 2.5509,-3.6497 2.7782,-2.9677 0.632,1.8959 -4.6192,8.1755 -6.8366,8.1755 -1.078,0 -3.8676,0.8637 -6.1991,1.9193 -2.3315,1.0556 -5.1488,2.1783 -6.2606,2.4949 -1.1119,0.3165 -3.4744,1.9025 -5.25,3.5243 -2.958,2.7017 -3.2285,3.4561 -3.2285,9.0051 0,3.331 -0.4142,6.0564 -0.9205,6.0564 -0.5063,0 -1.2378,1.4442 -1.6255,3.2094 -1.1061,5.0361 -1.2252,43.9495 -0.1447,47.2906 0.7556,2.3367 1.7587,17.5 1.1576,17.5 -0.073,0 -0.4336,-0.3 -0.8002,-0.6667 z m -21.6667,-4.3821 c -8.525,-2.1301 -16.0625,-3.6796 -16.75,-3.4434 -0.6875,0.2362 -1.25,-0.01 -1.25,-0.5392 0,-0.5327 0.5625,-0.9659 1.25,-0.9625 1.8869,0.01 35.0004,7.911 35.5797,8.4902 1.1191,1.1191 -4.0816,0.14 -18.8297,-3.5451 z m 97.4211,-3.3701 c -1.9014,-0.828 -3.6042,-2.6296 -4.4526,-4.7109 -0.7556,-1.8536 -2.6326,-4.5633 -4.1711,-6.0214 -2.0082,-1.9033 -2.7974,-3.6226 -2.7974,-6.0944 0,-2.7034 -1.0744,-4.671 -5,-9.157 -2.75,-3.1426 -5,-6.5876 -5,-7.6556 0,-2.7702 0.7093,-2.4131 2.5989,1.3082 0.9076,1.7875 3.2363,5.2077 5.175,7.6005 2.3124,2.8541 3.4966,5.3409 3.4429,7.2299 -0.06,2.0972 0.7148,3.4468 2.8507,4.9676 1.6129,1.1485 2.9325,2.7113 2.9325,3.473 0,1.9814 2.1722,6.479 3.1291,6.479 0.4445,0 0.5666,-0.6295 0.2713,-1.3989 -0.2952,-0.7693 -0.056,-1.6959 0.5314,-2.059 0.6488,-0.401 1.0682,0.3214 1.0682,1.8398 0,2.8391 1.68,4.3381 3.1802,2.8378 0.6747,-0.6746 0.4366,-1.8749 -0.7226,-3.644 -0.9507,-1.451 -1.4618,-2.9048 -1.1359,-3.2307 0.9733,-0.9734 4.013,6.3403 3.3516,8.0641 -0.7293,1.9003 -1.2442,1.9171 -5.2522,0.172 z m -50.2262,-2.0811 c 0.02,-1.65 0.2445,-2.204 0.4981,-1.231 0.2535,0.973 0.2369,2.323 -0.037,3 -0.2739,0.677 -0.4813,-0.119 -0.461,-1.769 z m 29.5154,0.5 c 0.2876,-1.1 0.6955,-2 0.9063,-2 0.2109,0 0.3834,0.9 0.3834,2 0,1.1 -0.4079,2 -0.9064,2 -0.4985,0 -0.671,-0.9 -0.3833,-2 z m -85.4581,-3.5 c 0.011,-2.2 0.2159,-2.9823 0.4551,-1.7384 0.2392,1.2439 0.2301,3.0439 -0.02,4 -0.2503,0.9561 -0.446,-0.062 -0.4349,-2.2616 z m -35.5208,-1.8577 c 0.2859,-0.4718 2.1938,-0.5901 4.2398,-0.2629 3.6366,0.5815 3.7468,0.5051 4.9195,-3.4089 1.9183,-6.4027 9.7891,-13.9157 11.5662,-11.0403 0.2524,0.4084 2.1175,0.8049 4.1446,0.8811 2.0271,0.076 4.5671,0.9363 5.6445,1.9113 2.251,2.0371 4.7723,6.5706 4.7149,8.4777 -0.022,0.7148 -0.7165,-0.2619 -1.5444,-2.1706 -1.8233,-4.2037 -4.3745,-7.1737 -5.5422,-6.452 -0.4722,0.2918 -1.6356,0.096 -2.5855,-0.436 -3.6173,-2.0243 -8.8763,2.7444 -11.8035,10.7031 -0.7394,2.0103 -1.3662,2.9802 -1.3929,2.1552 -0.077,-2.3917 3.4279,-9.3246 5.7664,-11.405 3.0623,-2.7245 2.6426,-3.9056 -0.7623,-2.1449 -3.3169,1.7152 -6.8068,6.8512 -7.7042,11.3383 -0.5866,2.933 -0.8088,3.0518 -5.3963,2.8853 -2.6314,-0.095 -4.5505,-0.5597 -4.2646,-1.0314 z m 89.4686,-1.8423 c -1.524,-1.524 -1.5392,-2.8 -0.033,-2.8 0.6416,0 0.8736,0.293 0.5155,0.6511 -0.3581,0.3581 0.1294,1.2438 1.0833,1.9682 0.954,0.7244 1.262,1.3314 0.6845,1.3489 -0.5775,0.017 -1.59,-0.5082 -2.25,-1.1682 z m 19.0781,-0.05 c -1.9545,-2.5272 -2.6213,-4.0802 -1.438,-3.3488 1.1842,0.7318 3.5533,4.5988 2.8175,4.5988 -0.227,0 -0.8477,-0.5625 -1.3795,-1.25 z m 6.3894,-0.565 c -1.9046,-2.1045 -4.1541,-8.0318 -3.3524,-8.8334 0.3004,-0.3005 1.1133,1.3462 1.8063,3.6594 1.4753,4.924 4.8384,7.1197 7.9391,5.1832 2.6105,-1.6302 3.438,-1.4998 1.9395,0.3058 -1.7097,2.06 -6.3416,1.885 -8.3325,-0.315 z m -14.1351,-2.4373 c -0.9502,-2.2256 0.2661,-7.3551 1.4564,-6.1424 0.483,0.4921 0.5212,2.4697 0.085,4.3947 -0.6237,2.752 -0.9531,3.1255 -1.5413,1.7477 z m 38.4867,-3.4146 c -1.1815,-2.6582 -2.5367,-6.8581 -3.0117,-9.3331 -0.475,-2.475 -1.346,-5.7668 -1.9355,-7.3151 -0.5896,-1.5483 -1.0719,-3.8316 -1.0719,-5.074 0,-1.2424 -1.575,-4.4742 -3.5,-7.1817 -1.925,-2.7076 -3.5,-5.5933 -3.5,-6.4127 0,-0.8194 1.6027,0.89 3.5615,3.7987 3.3136,4.9204 7.3598,16.8239 7.415,21.8139 0.013,1.1711 1.1947,4.6874 2.6261,7.8141 1.4315,3.1267 2.3691,5.9184 2.0836,6.2039 -0.2855,0.2855 -1.4857,-1.6558 -2.6671,-4.314 z m -18.478,-5.0258 c -3.3889,-3.961 -3.5615,-4.3668 -1.1989,-2.8187 2.1612,1.416 6.673,7.626 5.4335,7.4786 -0.1516,-0.018 -2.0572,-2.115 -4.2346,-4.6599 z m -14.5789,-2.348 c 2.3419,-2.0017 4.4453,-2.9153 6.5,-2.8231 2.6512,0.1188 2.7272,0.1945 0.5971,0.5945 -1.3423,0.2521 -3.8598,1.5408 -5.5944,2.8638 -4.4738,3.4124 -5.6543,2.9135 -1.5027,-0.6352 z m -36.3998,-4.2195 c -1.0657,-2.3319 -2.1157,-4.5773 -2.3333,-4.9898 -0.2177,-0.4125 0.039,-0.75 0.5709,-0.75 0.5317,0 1.225,0.7875 1.5406,1.75 0.3156,0.9625 1.2463,3.2125 2.0683,5 0.822,1.7875 1.1788,3.2454 0.7928,3.2398 -0.3859,-0.01 -1.5736,-1.9181 -2.6393,-4.25 z m 31.5079,-1.1551 c -0.8612,-1.0377 -1.9742,-1.1859 -4.1719,-0.5556 -2.8879,0.8283 -2.8099,0.6545 2.135,-4.756 2.8228,-3.0886 6.2201,-6.4713 7.5495,-7.517 1.7162,-1.3499 2.4171,-2.8952 2.4171,-5.3287 0,-1.8851 0.45,-3.4274 1,-3.4274 1.5937,0 1.1586,4.923 -0.7156,8.0957 -0.9436,1.5973 -2.0152,2.9043 -2.3813,2.9043 -0.3662,0 -1.8885,1.6031 -3.3829,3.5624 -2.5774,3.3792 -2.6295,3.6593 -1.0126,5.446 0.9375,1.0359 3.3443,2.0572 5.3485,2.2694 3.3011,0.3497 3.2086,0.4018 -0.9837,0.5541 -2.9466,0.107 -5.0542,-0.346 -5.8021,-1.2472 z m -15.7616,-6.8739 -2.1914,-1.2184 2.5279,-1.193 c 2.1007,-0.9913 2.4362,-0.9539 1.985,0.2218 -0.7894,2.0573 0.7952,2.6385 4.0359,1.4801 2.6409,-0.944 2.7017,-0.9104 0.8928,0.4928 -2.3194,1.7993 -4.2974,1.8584 -7.2502,0.2167 z m 32.3932,-4.9608 c -0.936,-2.0625 -2.3829,-5.325 -3.2153,-7.25 -1.2668,-2.9297 -2.0408,-3.514 -4.75,-3.586 l -3.2366,-0.086 2.8139,-0.8446 c 3.9528,-1.1865 5.6861,-2.8616 5.6861,-5.4951 0,-1.2467 0.8477,-3.3136 1.8837,-4.593 l 1.8837,-2.3263 2.1125,3.4655 c 2.2834,3.7456 2.7105,5.4484 1.1201,4.4654 -0.55,-0.3399 -1,-1.2113 -1,-1.9365 0,-0.7252 -0.7093,-1.9072 -1.5762,-2.6267 -2.0335,-1.6877 -3.3865,0.1899 -3.4085,4.7299 -0.01,1.7417 -0.5246,3.3364 -1.147,3.5439 -0.734,0.2447 -0.1866,2.3075 1.5573,5.8691 2.7006,5.5152 3.1284,5.7924 9.3244,6.0415 1.5096,0.061 2.25,0.7137 2.25,1.9846 0,2.3813 -0.8492,2.3588 -4,-0.1058 -3.2174,-2.5167 -3.7819,-2.4833 -4.2285,0.25 -0.3222,1.9719 -0.578,1.7865 -2.0696,-1.5 z m -25.2648,-3.5954 c 1.9318,-2.0749 3.8143,-3.1149 5.5,-3.0386 2.0676,0.094 2.1764,0.2095 0.5629,0.5998 -1.1,0.2661 -2.9,1.272 -4,2.2352 -3.7135,3.2519 -5.0211,3.381 -2.0629,0.2036 z m -26.4371,-3.2136 c 0,-1.7847 0.4166,-2.8016 1,-2.441 0.55,0.3399 1,1.7165 1,3.059 0,1.3425 -0.45,2.441 -1,2.441 -0.55,0 -1,-1.3766 -1,-3.059 z m 36.5,1.059 c -1.9282,-0.8286 -1.9214,-0.862 0.191,-0.9297 1.205,-0.039 2.4691,0.3797 2.809,0.9297 0.731,1.1828 -0.2475,1.1828 -3,0 z m -14,-4.1607 c -2.2176,-1.2195 -5.4432,-4.8663 -5.4778,-6.1929 -0.012,-0.4695 1.5685,0.543 3.5126,2.25 3.0932,2.7159 4.3112,3.1184 9.75,3.2219 4.9581,0.094 5.6084,0.2727 3.2152,0.8817 -4.4731,1.1382 -8.7517,1.0757 -11,-0.1607 z m 36.6579,-4.8393 c 0,-1.375 0.227,-1.9375 0.5044,-1.25 0.2774,0.6875 0.2774,1.8125 0,2.5 -0.2774,0.6875 -0.5044,0.125 -0.5044,-1.25 z m -50.6579,-3 c 0.3399,-0.55 1.068,-1 1.618,-1 0.55,0 0.7219,0.45 0.382,1 -0.3399,0.55 -1.068,1 -1.618,1 -0.55,0 -0.7219,-0.45 -0.382,-1 z m 48.6172,-3.6449 c -0.7108,-2.1538 -1.0954,-5.2523 -0.8546,-6.8856 0.3858,-2.6175 0.4555,-2.5172 0.5876,0.8462 0.082,2.0987 0.629,4.7111 1.2147,5.8055 0.5856,1.0943 0.9028,2.4757 0.7048,3.0698 -0.1981,0.5941 -0.9417,-0.6821 -1.6525,-2.8359 z m -38.9681,1.0411 c -0.743,-0.8403 -1.0913,-1.7873 -0.7741,-2.1045 0.6954,-0.6955 3.625,1.5922 3.625,2.8307 0,1.3266 -1.3368,0.986 -2.8509,-0.7262 z m 1.8509,-6.8052 c 0,-0.1904 0.675,-0.9063 1.5,-1.591 0.8646,-0.7176 1.5,-0.8148 1.5,-0.2295 0,0.5585 -0.675,1.2745 -1.5,1.5911 -0.825,0.3166 -1.5,0.4198 -1.5,0.2294 z m 22,-4.091 c 0.6847,-0.825 1.9508,-1.5 2.8136,-1.5 1.2558,0 1.1815,0.2928 -0.3725,1.4682 -2.5396,1.9208 -4.0249,1.9402 -2.4411,0.032 z m -23,-0.941 c 0,-0.7925 0.45,-1.7191 1,-2.059 0.55,-0.3399 1,0.3085 1,1.441 0,1.1324 -0.45,2.059 -1,2.059 -0.55,0 -1,-0.6485 -1,-1.441 z m 6.8608,-1.6155 -2.3608,-2.0565 2.4416,1.1942 c 1.3429,0.6568 3.5929,1.5436 5,1.9705 l 2.5584,0.7764 -2.6392,0.086 c -1.4516,0.047 -3.7016,-0.8395 -5,-1.9705 z m 27.0044,-0.9825 c -1.4492,-1.6286 -2.2542,-2.961 -1.789,-2.961 1.0498,0 4.9238,4.0823 4.9238,5.1885 0,1.1942 -0.2451,1.02 -3.1348,-2.2275 z m -14.8652,-0.7401 c 0,-0.3099 0.7447,-1.3864 1.655,-2.3922 1.4171,-1.5658 1.4381,-1.8287 0.146,-1.8287 -1.8392,0 -7.2707,-4.8636 -6.4018,-5.7325 0.3419,-0.3419 1.8898,0.5933 3.4398,2.0783 1.6187,1.5507 4.7001,3.0692 7.2396,3.5675 2.4318,0.4771 3.7291,0.9168 2.8828,0.9771 -0.8462,0.06 -3.2087,0.9611 -5.25,2.0018 -2.0412,1.0407 -3.7114,1.6386 -3.7114,1.3287 z m 12.0436,-6.9709 c 0.024,-0.4125 0.4395,-2.775 0.9235,-5.25 1.1087,-5.6694 -0.4085,-13.2573 -3.3116,-16.5617 -1.4606,-1.6625 -3.6399,-2.6496 -6.7599,-3.0619 -4.1295,-0.5456 -4.9484,-0.301 -7.9389,2.371 -2.5963,2.3198 -3.4844,4.061 -4.012,7.8659 l -0.6775,4.8867 -0.1336,-5.1464 c -0.1224,-4.7135 0.1638,-5.4076 3.4012,-8.25 3.8474,-3.3781 7.1744,-3.8674 13.795,-2.029 3.1044,0.862 4.1893,1.8553 5.728,5.2444 1.8785,4.1375 2.6796,15.5959 1.3352,19.0992 -0.6098,1.5891 -2.4309,2.2339 -2.3494,0.8318 z"
       id="path4357"
       inkscape:connector-curvature="0" />
  </g>
</svg>
