<?xml version="1.0" encoding="UTF-8" standalone="no"?>
<!-- Created with Inkscape (http://www.inkscape.org/) -->

<svg
   xmlns:dc="http://purl.org/dc/elements/1.1/"
   xmlns:cc="http://creativecommons.org/ns#"
   xmlns:rdf="http://www.w3.org/1999/02/22-rdf-syntax-ns#"
   xmlns:svg="http://www.w3.org/2000/svg"
   xmlns="http://www.w3.org/2000/svg"
   xmlns:xlink="http://www.w3.org/1999/xlink"
   xmlns:sodipodi="http://sodipodi.sourceforge.net/DTD/sodipodi-0.dtd"
   xmlns:inkscape="http://www.inkscape.org/namespaces/inkscape"
   width="120.49303"
   height="227.06534"
   id="svg2"
   version="1.1"
   inkscape:version="0.48.3.1 r9886"
   sodipodi:docname="One-arm-triceps-extension-1.svg">
  <defs
     id="defs4">
    <radialGradient
       gradientUnits="userSpaceOnUse"
       gradientTransform="matrix(1,0,0,0.91819829,-19.285714,-7.9105395)"
       r="209.56604"
       fy="287.50052"
       fx="398.1105"
       cy="287.50052"
       cx="398.1105"
       id="radialGradient5255"
       xlink:href="#linearGradient5249"
       inkscape:collect="always" />
    <linearGradient
       id="linearGradient5249"
       inkscape:collect="always">
      <stop
         id="stop5251"
         offset="0"
         style="stop-color:#e3e3e3;stop-opacity:1;" />
      <stop
         id="stop5253"
         offset="1"
         style="stop-color:#e3e3e3;stop-opacity:0;" />
    </linearGradient>
  </defs>
  <sodipodi:namedview
     id="base"
     pagecolor="#ffffff"
     bordercolor="#666666"
     borderopacity="1.0"
     inkscape:pageopacity="0.0"
     inkscape:pageshadow="2"
     inkscape:zoom="1.979899"
     inkscape:cx="-12.480648"
     inkscape:cy="59.467894"
     inkscape:document-units="px"
     inkscape:current-layer="layer1"
     showgrid="false"
     showguides="true"
     inkscape:guide-bbox="true"
     fit-margin-top="0"
     fit-margin-left="0"
     fit-margin-right="0"
     fit-margin-bottom="0"
     inkscape:window-width="1201"
     inkscape:window-height="886"
     inkscape:window-x="83"
     inkscape:window-y="39"
     inkscape:window-maximized="0">
    <sodipodi:guide
       orientation="-0.70710678,0.70710678"
       position="-2031.5777,519.63369"
       id="guide2985" />
  </sodipodi:namedview>
  <metadata
     id="metadata7">
    <rdf:RDF>
      <cc:Work
         rdf:about="">
        <dc:format>image/svg+xml</dc:format>
        <dc:type
           rdf:resource="http://purl.org/dc/dcmitype/StillImage" />
        <dc:title></dc:title>
      </cc:Work>
    </rdf:RDF>
  </metadata>
  <g
     inkscape:label="Ebene 1"
     inkscape:groupmode="layer"
     id="layer1"
     transform="translate(-603.00621,-319.21625)">
    <path
       style="fill:#000000"
       d="m 649.81401,545.026 c -3.36784,-2.55976 -5.96963,-12.22346 -5.78753,-21.49633 0.0577,-2.94036 -0.6767,-8.66186 -1.6321,-12.71444 -1.65486,-7.01954 -1.65328,-7.64218 0.0333,-13.15388 3.8874,-12.70384 3.25913,-22.57438 -1.57886,-24.80509 -1.54967,-0.71453 -2.182,-2.00125 -2.33128,-4.74389 -0.11266,-2.06988 -0.41312,-3.9717 -0.66769,-4.22627 -0.25456,-0.25457 -2.76578,0.4122 -5.58048,1.4817 -3.84438,1.46074 -5.26014,1.64144 -5.6904,0.72627 -0.44575,-0.94814 -0.70211,-0.9411 -1.15609,0.0317 -0.82146,1.76026 -3.41383,1.54483 -6.9022,-0.57357 -2.59055,-1.57318 -3.31821,-1.63599 -5.5,-0.47478 -1.38296,0.73605 -3.75197,1.76815 -5.26447,2.29356 -2.02161,0.70226 -2.75,1.62402 -2.75,3.48004 0,3.04601 0.10649,3.05338 6.88519,0.47696 2.96185,-1.12574 6.11185,-1.90382 7,-1.72908 0.88815,0.17474 -1.74652,1.5191 -5.85483,2.98745 -8.27291,2.95686 -10.03036,2.5575 -10.03036,-2.27929 0,-2.52999 0.60206,-3.04335 5.78585,-4.93346 l 5.78586,-2.10963 -0.0953,-6.19409 c -0.15502,-10.07885 -1.63897,-19.03121 -3.56517,-21.50791 -1.83235,-2.35605 -1.6663,-3.9566 0.81292,-7.83536 0.75554,-1.18204 1.50506,-5.0153 1.6656,-8.51835 0.27599,-6.02218 2.483,-12.71411 3.34262,-10.13525 0.21851,0.65555 -0.0338,2.00435 -0.56071,2.99734 -1.70428,3.21182 -2.46183,22.27303 -1.1647,29.30544 0.65941,3.575 1.22557,9.71396 1.25814,13.64213 0.0581,7.00644 0.11915,7.1707 3.21383,8.64645 2.83927,1.35395 3.42285,1.34158 5.83782,-0.12374 3.3279,-2.01925 3.3568,-3.21087 0.16976,-6.99846 -3.47303,-4.12745 -4.67759,-11.22465 -2.8994,-17.083 1.82917,-6.02631 1.80844,-10.99435 -0.0489,-11.70706 -1.21143,-0.46487 -1.10448,-1.04407 0.62462,-3.3828 2.2456,-3.03734 5.75113,-12.31296 5.80444,-15.35853 0.0312,-1.78186 -0.084,-1.78858 -2.58381,-0.15064 -1.88984,1.23827 -2.49275,1.33963 -2.17103,0.36501 0.24498,-0.74215 1.53489,-1.9013 2.86645,-2.5759 3.60355,-1.82563 4.50808,1.01064 2.48978,7.807 -1.57857,5.31561 -1.56969,5.41075 0.66568,7.13575 1.24607,0.96157 2.799,1.55657 3.45097,1.32223 0.65196,-0.23435 1.38067,0.11113 1.61934,0.76774 0.32099,0.88303 0.92355,0.91045 2.31461,0.10533 2.43807,-1.41111 9.37924,-0.57877 10.06445,1.20686 0.71558,1.86475 4.31621,1.766 4.31621,-0.11837 0,-0.825 0.86968,-1.5 1.93261,-1.5 2.14519,0 3.45488,-2.82664 2.48308,-5.35912 -0.85134,-2.21854 -1.65539,-2.07485 -4.82448,0.86217 -2.24821,2.08358 -3.33967,2.4009 -6.51277,1.8935 -2.21227,-0.35375 -4.73397,-0.11609 -6.00911,0.56634 -1.6886,0.90372 -2.52958,0.90003 -3.63325,-0.0159 -1.64306,-1.36365 -1.92848,-3.94699 -0.43608,-3.94699 0.55,0 1,0.675 1,1.5 0,1.89002 1.88369,1.96666 2.59781,0.10569 0.62106,-1.61845 6.76379,-1.3804 8.83984,0.34257 0.9929,0.82403 1.70815,0.47817 2.95894,-1.43077 0.90723,-1.38462 2.31414,-2.51749 3.12646,-2.51749 2.00585,0 1.87782,-2.6322 -0.16618,-3.41655 -0.90372,-0.34679 -1.73735,-0.50743 -1.85252,-0.35699 -0.11516,0.15045 -0.71207,1.17354 -1.32646,2.27354 -1.09987,1.9692 -1.11754,1.96723 -1.14748,-0.12756 -0.0587,-4.10528 5.04492,-5.37167 7.21723,-1.79085 0.41121,0.67782 1.6635,0.9929 2.78288,0.70018 1.20453,-0.31499 2.90223,0.23318 4.15935,1.343 2.10714,1.86025 2.11809,1.85525 1.37009,-0.62477 -0.41471,-1.375 -0.67861,-3.175 -0.58645,-4 0.0922,-0.825 0.31195,-4.3374 0.4884,-7.80534 0.30256,-5.9462 0.56909,-6.55011 4.67946,-10.60271 4.99842,-4.92818 7.77489,-11.57684 8.59046,-20.57112 0.30027,-3.31145 0.93345,-6.02083 1.40706,-6.02083 1.24326,0 1.07013,2.75499 -0.73166,11.64304 -1.71132,8.44175 -2.34051,9.7198 -7.80638,15.85696 -3.24315,3.64145 -3.57842,4.58264 -3.74028,10.5 -0.0978,3.575 -0.0643,8.84048 0.0745,11.70107 0.13878,2.86059 -0.21675,6.68559 -0.79006,8.5 -1.56301,4.94666 -1.74559,14.97174 -0.3196,17.54893 0.88412,1.59787 2.17672,2.25691 4.45976,2.27386 4.06486,0.0302 10.81811,1.57368 11.61111,2.65382 0.33204,0.45228 2.38809,1.64874 4.56901,2.65881 2.18091,1.01007 5.55769,3.03507 7.50395,4.5 1.94625,1.46493 4.43687,3.15573 5.5347,3.75734 1.09783,0.6016 3.02124,2.59948 4.27424,4.43972 1.92939,2.83361 2.19182,4.1972 1.71403,8.90617 -0.31029,3.05815 -0.18244,11.53407 0.28411,18.83536 l 0.84827,13.27509 4.90011,4.97491 c 2.69506,2.73621 5.70452,4.97492 6.6877,4.97492 2.40382,0 5.87737,3.60245 5.19305,5.38576 -1.34294,3.49965 -10.08434,4.46201 -15.27871,1.68207 -1.29604,-0.69361 -3.76725,-1.05051 -5.49159,-0.7931 -1.72434,0.25741 -4.20108,0.0667 -5.50388,-0.42374 -2.25849,-0.85027 -2.33533,-1.18163 -1.65123,-7.12138 1.27292,-11.05223 1.01808,-15.01622 -1.28096,-19.92475 -2.18704,-4.6694 -2.65167,-10.03091 -1.28299,-14.80486 0.51296,-1.78918 0.88718,-0.32298 1.31616,5.15672 0.35746,4.56621 1.27581,8.68907 2.2752,10.21433 1.37744,2.10223 1.61498,4.56695 1.33417,13.84327 l -0.34162,11.28568 6.5,0.77096 c 3.575,0.42403 8.55119,1.02414 11.05819,1.33358 3.39756,0.41936 4.8827,0.17161 5.83265,-0.97301 1.08883,-1.31196 0.71624,-1.76834 -2.55819,-3.13343 -2.10796,-0.8788 -5.93932,-3.80365 -8.51414,-6.49968 -5.61614,-5.88052 -5.84773,-6.99582 -6.21109,-29.91102 -0.25427,-16.03525 -0.31598,-16.45628 -2.68384,-18.31236 -8.18633,-6.41695 -18.03156,-11.74958 -21.72133,-11.76527 -3.53439,-0.015 -6.8603,4.30274 -7.50774,9.74671 -0.69298,5.82691 0.72326,7.24285 7.24662,7.24507 2.64153,9e-4 6.03088,0.81798 8.05887,1.94277 1.925,1.06766 4.7375,2.46098 6.25,3.09627 1.5125,0.63528 2.75,1.60982 2.75,2.16564 0,1.38749 -5.06057,0.034 -7.25,-1.93913 -1.59603,-1.43832 -1.75,-1.43349 -1.75,0.0549 0,2.39355 -3.42785,4.15661 -13.24497,6.81235 l -8.74498,2.36569 -0.005,11.12588 -0.005,11.12589 6.66472,-2.41916 c 6.48177,-2.35276 11.52392,-2.45443 12.88032,-0.25973 0.31239,0.50545 -0.0199,2.09671 -0.73853,3.53613 -1.06627,2.13588 -3.76989,3.51938 -14.70326,7.52397 -7.36822,2.69877 -13.61941,4.6842 -13.89154,4.41207 -0.6077,-0.60771 5.52757,-3.27138 17.58877,-7.63627 8.5802,-3.10514 10.97578,-4.84375 9.64375,-6.99902 -0.89874,-1.45418 -3.59467,-1.07957 -11.44423,1.59024 -4.04267,1.375 -7.52089,2.5 -7.72938,2.5 -0.20849,0 -0.32838,-4.8375 -0.26642,-10.75 0.15462,-14.75364 0.15096,-14.80516 -0.97147,-13.68273 -1.92618,1.92618 -5.03298,13.82288 -5.04355,19.313 -0.006,3.09085 -0.68096,7.82875 -1.5,10.52866 -3.08927,10.18349 -0.73687,19.82806 6.8263,27.98709 1.47648,1.59282 2.68452,3.69736 2.68452,4.67676 0,3.85812 -11.3168,6.52298 -15.19221,3.57743 z m 9.19221,-2.0099 c 0,-0.96713 -1.15487,-1.27744 -4,-1.07478 -2.2,0.1567 -4,-0.13144 -4,-0.64031 0,-0.50887 2.00264,-0.92522 4.45031,-0.92522 3.19557,0 4.72871,0.4934 5.43772,1.75 0.68396,1.21219 1.31001,1.43118 2.03711,0.71258 0.73075,-0.7222 0.20073,-2.08953 -1.7443,-4.5 -8.37515,-10.37923 -10.98058,-20.23238 -7.81029,-29.53667 1.81846,-5.33691 2.27989,-12.97979 0.62945,-10.42591 -0.53316,0.825 -0.97627,2.93594 -0.98469,4.69098 -0.008,1.75504 -0.46531,3.4691 -1.01531,3.80902 -1.94115,1.19969 -0.9709,-6.02198 1.47787,-11 3.06669,-6.23417 3.19014,-8.5 0.46311,-8.5 -1.13246,0 -1.78015,-0.45122 -1.43931,-1.0027 0.40926,-0.66221 1.24432,-0.66843 2.45906,-0.0183 1.3847,0.74107 1.98764,0.59794 2.43931,-0.57908 0.96986,-2.52743 0.68725,-10.22792 -0.40004,-10.8999 -0.55,-0.33992 -1,-1.11122 -1,-1.714 0,-0.60279 0.9,-0.28149 2,0.714 1.94765,1.7626 2,1.74663 2,-0.60982 0,-2.60671 -3.53491,-9.92264 -5.37532,-11.12487 -2.02401,-1.32216 -8.44356,-0.80357 -10.0598,0.81267 -3.26344,3.26343 -3.6284,5.07156 -1.55556,7.70674 2.15397,2.73833 4.49867,11.94911 3.62279,14.23159 -0.303,0.78961 0.10095,3.58396 0.89767,6.20967 1.9067,6.28386 1.79456,8.51848 -0.23957,4.77402 l -1.62972,-3 -1.28514,3 c -1.74361,4.07024 -1.68259,10.05111 0.18471,18.10273 0.88809,3.82939 1.29315,8.30661 0.94041,10.3945 -0.42766,2.53125 0.0183,5.34626 1.43944,9.08522 1.13249,2.97965 2.05931,6.18269 2.05959,7.11786 6.6e-4,2.22382 2.7006,3.73139 6.7505,3.76928 2.08808,0.0195 3.25,-0.4557 3.25,-1.32928 z m -10.45194,-17.73324 c 0.87968,-1.70111 1.80382,-2.88852 2.05365,-2.63869 0.76792,0.76792 -1.48603,5.73162 -2.60264,5.73162 -0.61558,0 -0.38831,-1.2804 0.54899,-3.09293 z m 2.95749,-50.9132 c 0.99854,-1.10337 2.03241,-1.78925 2.29749,-1.52417 0.67193,0.67194 -1.82222,3.5303 -3.08047,3.5303 -0.5679,0 -0.21556,-0.90276 0.78298,-2.00613 z m 20.49445,0.46719 c 10.25626,-2.59453 12.94247,-3.96503 12.33378,-6.29269 -0.41136,-1.57303 -1.61034,-2.10172 -5.67763,-2.50352 -8.57674,-0.84729 -11.98393,-1.84951 -13.79775,-4.0586 -1.6183,-1.97096 -1.83873,-1.99875 -3.43183,-0.4326 -1.47089,1.44602 -1.54767,2.28833 -0.56451,6.19282 0.62587,2.48555 1.13794,5.70023 1.13794,7.14374 0,2.029 0.39711,2.50777 1.75,2.10986 0.9625,-0.28309 4.675,-1.25465 8.25,-2.15901 z m -38.75,-11.52062 c 3.05223,-1.09247 3.75,-1.83529 3.75,-3.99212 0,-2.57046 -0.10493,-2.61706 -3.5,-1.55442 -1.925,0.60251 -3.5,1.73744 -3.5,2.52205 0,0.78461 -0.7875,2.32581 -1.75,3.42487 -1.36531,1.55904 -1.42027,1.88219 -0.25,1.47007 0.825,-0.29053 3.1875,-1.13224 5.25,-1.87045 z m 16.84434,-3.94044 c 2.54965,0 4.97935,0.66171 6.07692,1.65499 1.63089,1.47593 1.82874,1.48453 1.82874,0.0795 0,-2.38445 5.35799,-3.20121 8.31028,-1.26679 2.32434,1.52296 2.46803,1.49071 3.05082,-0.6847 0.33637,-1.25562 0.61774,-3.34045 0.62525,-4.63295 0.008,-1.32142 1.48722,-3.82357 3.38032,-5.71667 1.85166,-1.85166 3.12666,-3.60666 2.83333,-3.9 -0.29333,-0.29338 -2.00404,-0.53338 -3.80157,-0.53338 -4.45749,0 -8.39843,-1.63075 -8.39843,-3.47525 0,-1.76623 0.48978,-1.69035 -12.5,-1.93666 -5.87835,-0.11147 -10.96115,-0.71649 -12.33196,-1.4679 -2.00999,-1.10179 -2.52335,-1.02575 -3.71819,0.55076 -1.47678,1.9485 -1.77021,6.66117 -0.59946,9.62758 0.66388,1.6821 0.93399,1.64746 4.1728,-0.53517 4.03171,-2.71697 5.15942,-5.76336 2.13347,-5.76336 -1.26075,0 -2.35806,1.00776 -2.99438,2.75 l -1.00439,2.75 -0.0636,-2.5 c -0.11521,-4.52644 1.23434,-5.51773 5.69316,-4.18184 2.16954,0.65001 5.46741,1.21036 7.3286,1.24523 3.21486,0.0602 3.26216,0.11205 0.94634,1.03718 -1.3407,0.5356 -3.1407,0.83163 -3.99999,0.65787 -0.96366,-0.19487 -2.80778,1.59818 -4.81237,4.67909 -2.49764,3.8387 -3.25,6.0835 -3.25,9.69696 0,7.32653 0.63267,8.079 3.97907,4.7326 2.25625,-2.25626 3.77216,-2.86709 7.11527,-2.86709 z m -3.59434,-6.86942 c 0.55,-0.55602 2.31104,-1.24639 3.91341,-1.53417 3.71659,-0.66748 2.07615,0.91452 -1.91341,1.84524 -2.01876,0.47096 -2.67292,0.36922 -2,-0.31107 z m 17.5,-3.34147 c 0,-0.84932 0.74867,-2.16182 1.66372,-2.91667 1.52184,-1.2554 1.55292,-1.15924 0.36455,1.12756 -1.74217,3.35245 -2.02827,3.60481 -2.02827,1.78911 z m -16,-1.27788 c 0,-1.0217 9.68508,-6.50356 11.42144,-6.46467 1.41874,0.0318 0.53967,0.84725 -2.76924,2.56887 -2.66629,1.38727 -4.61733,2.75278 -4.33564,3.03446 0.28168,0.28168 1.51341,-0.0237 2.73718,-0.67865 3.43605,-1.83892 7.94626,-2.94003 7.94626,-1.93998 0,0.49041 -1.9125,1.419 -4.25,2.06353 -4.24287,1.16992 -10.75,2.02731 -10.75,1.41644 z m -15.19159,8.62834 c 0.97216,-0.61655 0.32968,-1.69101 -2.5,-4.18089 -3.72574,-3.27833 -3.81558,-3.30161 -4.13877,-1.07241 -0.33964,2.34272 2.2876,6.12565 4.23535,6.09842 0.60225,-0.008 1.6838,-0.38873 2.40342,-0.84512 z m 0.70472,-7.45391 c -1.94363,-4.65175 -1.91461,-7.66745 0.10146,-10.5458 2.24422,-3.20408 1.08481,-9.80041 -2.35335,-13.38907 -5.13151,-5.35615 -6.37602,-3.4359 -6.65583,10.26983 l -0.19438,9.52063 5.03564,4.15489 c 2.76959,2.28519 5.15802,4.0325 5.30761,3.88292 0.14958,-0.14959 -0.40893,-1.90162 -1.24115,-3.8934 z m 5.86843,0.7624 c 0.34149,-0.88992 0.17385,-1.29132 -0.39301,-0.94098 -0.5437,0.33602 -0.98855,1.0344 -0.98855,1.55194 0,1.43843 0.71677,1.12146 1.38156,-0.61096 z m 10.37624,-14.42394 c -2.54667,-2.00321 -4.32493,-6.02412 -2.66418,-6.02412 0.49851,0 0.90638,0.4541 0.90638,1.0091 0,0.55501 1.30358,2.37318 2.89685,4.04037 2.78221,2.91132 3.06992,2.98769 7.27061,1.92995 4.27419,-1.07625 4.36594,-1.18532 4.03025,-4.79037 -0.20642,-2.2168 0.45641,-5.46694 1.66086,-8.14394 l 2.00438,-4.45488 -2.18147,-2.12474 c -2.79009,-2.71751 -5.40683,-3.67111 -5.90622,-2.15235 -0.21464,0.65277 -0.27354,4.89936 -0.13089,9.43686 0.14892,4.73688 -0.14597,8.25 -0.6925,8.25 -0.52353,0 -0.95187,-1.6301 -0.95187,-3.62244 0,-2.7529 -0.30006,-3.38768 -1.25,-2.64444 -2.72685,2.13352 -5.99206,2.1478 -8.8448,0.0387 -2.63051,-1.94482 -3.17449,-2.00294 -7.12655,-0.76149 -2.80872,0.88231 -3.6592,1.48366 -2.47555,1.75043 1.24238,0.28 1.50319,0.76911 0.83866,1.57282 -0.53044,0.64155 -0.72897,2.39301 -0.44117,3.89213 0.40766,2.12352 1.21655,2.83717 3.66134,3.23031 12.18213,1.95897 12.42134,1.94797 9.39587,-0.43187 z m -7.7578,-7.52412 c -1.35129,-1.62821 -1.02807,-1.83174 1.41821,-0.89301 0.86999,0.33384 1.58179,1.00884 1.58179,1.5 0,1.38323 -1.62035,1.05539 -3,-0.60699 z m 19.5012,-5.42708 c 0.55055,-3.631 1.14863,-4.75642 2.04914,-3.85592 0.30268,0.30269 -0.15147,2.06519 -1.00922,3.91667 l -1.55955,3.36633 0.51963,-3.42708 z m -49.30535,10.17708 c -0.28974,-1.5125 -0.71979,-2.17265 -0.95566,-1.46701 -0.42534,1.2725 0.33557,4.21701 1.08975,4.21701 0.21599,0 0.15565,-1.2375 -0.13409,-2.75 z m 87.47082,78.08333 c -0.36667,-0.36666 -0.62799,-1.82916 -0.58072,-3.25 0.0844,-2.5366 0.10189,-2.52997 0.96694,0.3664 0.90899,3.04353 0.77489,4.04472 -0.38622,2.8836 z m -10.16667,-45.33333 c -0.99549,-1.1 -1.31679,-2 -0.714,-2 0.60278,0 1.39357,0.48153 1.75731,1.07008 0.36374,0.58854 1.6278,1.46002 2.80902,1.93661 2.14267,0.86452 2.14279,0.86668 0.0527,0.92992 -1.1523,0.0349 -2.90954,-0.83661 -3.90503,-1.93661 z m 6.73194,-0.72839 c 0.061,-0.97438 -0.21454,-2.89661 -0.6123,-4.27161 -0.69406,-2.39926 -0.66067,-2.42178 0.82858,-0.55887 1.73702,2.17285 2.03873,5.13989 0.6123,6.02147 -0.51671,0.31934 -0.88957,-0.2166 -0.82858,-1.19099 z M 637.3706,413.39474 c -4.39716,-1.95613 -6.45371,-4.01895 -4.00673,-4.01895 0.81163,0 1.62568,0.41135 1.80902,0.91411 0.18333,0.50277 2.16845,1.04273 4.41136,1.19993 3.27854,0.22977 4.64889,-0.24351 6.98979,-2.41412 1.60146,-1.48495 3.52992,-2.69992 4.28546,-2.69992 1.4107,0 1.2624,-3.32119 -0.33489,-7.5 -0.76448,-2 -0.76448,-2 0.73079,0 0.8224,1.1 1.81303,3.46023 2.20139,5.24496 0.60711,2.78993 0.37963,3.38556 -1.62222,4.24761 -4.89551,2.10814 -9.09106,5.41139 -8.11406,6.38838 1.19904,1.19905 -2.26145,0.4568 -6.34991,-1.362 z m 21.20373,-3.90874 c -0.34769,-0.56258 -1.29275,-0.76937 -2.10014,-0.45955 -0.80738,0.30983 -1.46797,0.0652 -1.46797,-0.54367 0,-1.4167 3.67035,-1.4494 4.54112,-0.0405 0.36253,0.58659 0.43415,1.29153 0.15915,1.56653 -0.275,0.275 -0.78447,0.0397 -1.13216,-0.52285 z m -42.27095,-6.36021 c 0.43598,-3.30577 1.40946,-4.99213 4.38167,-7.59033 5.02532,-4.39295 11.974,-8.4443 13.55846,-7.9051 0.69449,0.23634 -0.53729,1.41688 -2.73729,2.62341 -6.32084,3.4665 -11.82547,7.71895 -12.62489,9.75302 -0.404,1.02795 -0.76617,3.1065 -0.80483,4.619 -0.0387,1.5125 -0.57953,2.75 -1.20195,2.75 -0.75263,0 -0.94394,-1.42348 -0.57117,-4.25 z m 45.78179,3.45469 c -0.0575,-0.94311 -1.09861,-1.11406 -3.82895,-0.62871 -2.55247,0.45373 -3.43066,0.33952 -2.75,-0.35762 0.55,-0.56333 1.9,-1.19166 3,-1.39631 2.12287,-0.39493 2.19753,-1.11842 1.15217,-11.16458 -0.27714,-2.66339 -0.73353,-5.07216 -1.01419,-5.35282 -0.28066,-0.28066 -0.1002,-1.70153 0.40103,-3.15747 0.7979,-2.3177 0.75884,-2.40307 -0.31384,-0.68591 -1.20506,1.92908 -4.32619,5.09794 -8.90259,9.03873 -1.60555,1.38255 -3.43749,1.90673 -5.93394,1.6979 -2.72331,-0.22781 -4.37813,0.3431 -6.72953,2.32167 -1.80483,1.51866 -3.62532,2.31033 -4.32226,1.8796 -0.84364,-0.5214 -0.62525,-0.97085 0.72953,-1.50139 1.63822,-0.64153 1.52252,-0.76795 -0.75736,-0.82749 -1.48004,-0.0387 -3.00396,-0.57669 -3.38648,-1.19563 -0.48734,-0.78853 0.46771,-0.97921 3.19098,-0.63709 3.38642,0.42543 5.67952,-0.23853 10.29702,-2.98144 0.22579,-0.13413 -0.40895,-1.14939 -1.41054,-2.25613 -1.00159,-1.10674 -1.56768,-2.26566 -1.25797,-2.57536 0.30971,-0.30971 1.36003,0.78598 2.33405,2.43487 2.51131,4.2513 4.46678,4.33964 8.97609,0.40549 l 3.94783,-3.4443 -4.38417,0.62292 c -5.69122,0.80864 -10.76075,-0.91311 -12.58631,-4.27464 l -1.44945,-2.66898 -0.04,3.25 c -0.0631,5.12429 -1.54309,3.78647 -1.65938,-1.5 -0.0575,-2.6125 -0.42573,-7.07834 -0.81837,-9.9241 -0.4485,-3.25057 -0.30087,-5.94583 0.39709,-7.25 0.61105,-1.14174 0.90697,-2.0759 0.6576,-2.0759 -0.24937,0 -1.2777,-0.30925 -2.28518,-0.68723 -1.61251,-0.60496 -1.66749,-0.48525 -0.45935,1 0.75485,0.92798 0.92245,1.68723 0.37245,1.68723 -1.56056,0 -2.86601,-2.23837 -3.05074,-5.23093 -0.24751,-4.0093 4.41765,-6.21863 13.05772,-6.18391 5.21868,0.021 7.37591,0.49286 9.5,2.07811 3.05474,2.2798 3.7794,5.99608 1.64127,8.41685 -0.82553,0.93465 1.00147,0.392 4.47248,-1.32839 5.48273,-2.71749 6.31485,-2.85411 12.67015,-2.08012 4.20907,0.5126 6.97236,1.34191 7.24883,2.1755 0.35271,1.06341 0.0151,1.11605 -1.60316,0.25 -3.77912,-2.02253 -12.81095,-1.31855 -18.21468,1.41974 -5.04468,2.55633 -5.43871,3.08969 -4.35977,5.90136 0.47009,1.22505 2.10519,1.57834 7.25,1.56648 3.67622,-0.009 6.08379,-0.37038 5.39086,-0.81035 -0.89579,-0.56877 -0.35065,-1.46155 1.9154,-3.13691 2.81412,-2.08057 3.0855,-2.12963 2.43212,-0.43966 -0.40449,1.04623 -0.98751,3.15146 -1.29561,4.67829 -0.41054,2.03449 -1.01077,2.63305 -2.24693,2.24071 -2.50566,-0.79527 -5.69116,3.28169 -6.82363,8.73323 -0.89112,4.28967 -0.26365,6.2328 1.23147,3.81363 0.31829,-0.515 1.46985,-0.86924 2.55902,-0.78719 2.75066,0.2072 2.49747,3.04371 -0.57285,6.4178 l -2.55316,2.80576 1.61389,-3.31779 c 2.0781,-4.27207 1.38275,-6.47064 -0.9301,-2.94079 -1.58873,2.42471 -1.6439,3.4032 -0.54013,9.57954 0.67614,3.78345 0.97987,7.509 0.67495,8.27901 -0.41,1.03539 -0.57496,1.06266 -0.63334,0.10472 z m -11.07895,-23.20469 c 1.59385,-1.59385 2,-3.33333 2,-8.56574 0,-7.85338 -1.05657,-10.14212 -5.54837,-12.01892 -4.62457,-1.93227 -7.08906,-1.77791 -9.45941,0.59244 -2.58789,2.58789 -2.56372,10.54429 0.041,13.49222 0.97192,1.1 1.92854,2.8887 2.12582,3.97488 0.37895,2.08643 4.15082,4.48561 7.09097,4.51038 0.9625,0.008 2.65,-0.88526 3.75,-1.98526 z m 6.53216,-1.26728 c 1.11769,-1.22799 2.85265,-3.52683 3.85548,-5.10852 1.49619,-2.35984 1.58013,-3.02988 0.46784,-3.73468 -1.66168,-1.05292 -3.98237,-1.10565 -5.46639,-0.12421 -1.15645,0.76481 -2.55104,11.24774 -1.4923,11.21741 0.33177,-0.01 1.51768,-1.022 2.63537,-2.25 z m -4.03216,-19.73272 c 0.33992,-0.55 -0.15327,-1 -1.09597,-1 -1.58954,0 -1.58323,-0.1445 0.0869,-1.99004 1.75767,-1.9422 1.71409,-2.02633 -1.81289,-3.5 -4.25031,-1.77589 -11.09565,-1.95756 -15.52887,-0.41214 -6.70693,2.33806 -2.01492,5.88657 6.85078,5.18117 3.97003,-0.31587 6.05635,-0.007 7.5,1.1099 2.36937,1.83331 3.16913,1.95549 4,0.61111 z m -21,43 c 0.33992,-0.55 1.23992,-1 2,-1 0.76008,0 1.66008,0.45 2,1 0.35191,0.5694 -0.50929,1 -2,1 -1.49071,0 -2.35191,-0.4306 -2,-1 z m 1.5,-12.94098 c 0,-0.51754 0.45,-1.2191 1,-1.55902 0.55,-0.33992 1,0.0835 1,0.94098 0,0.85746 -0.45,1.55902 -1,1.55902 -0.55,0 -1,-0.42344 -1,-0.94098 z m 33.03544,-11.11789 c -0.0195,-0.85738 0.62525,-2.43238 1.43276,-3.5 1.88023,-2.48589 1.90227,-0.71317 0.0318,2.55887 -0.91603,1.60243 -1.44185,1.94032 -1.46456,0.94113 z"
       id="path3051"
       inkscape:connector-curvature="0" />
  </g>
</svg>
