<?xml version="1.0" encoding="UTF-8" standalone="no"?>
<!-- Created with Inkscape (http://www.inkscape.org/) -->

<svg
   xmlns:dc="http://purl.org/dc/elements/1.1/"
   xmlns:cc="http://creativecommons.org/ns#"
   xmlns:rdf="http://www.w3.org/1999/02/22-rdf-syntax-ns#"
   xmlns:svg="http://www.w3.org/2000/svg"
   xmlns="http://www.w3.org/2000/svg"
   xmlns:sodipodi="http://sodipodi.sourceforge.net/DTD/sodipodi-0.dtd"
   xmlns:inkscape="http://www.inkscape.org/namespaces/inkscape"
   width="406.88489"
   height="898.69598"
   id="svg2"
   version="1.1"
   inkscape:version="0.48.3.1 r9886"
   sodipodi:docname="One-arm-shoulder-press-1.svg">
  <defs
     id="defs4" />
  <sodipodi:namedview
     id="base"
     pagecolor="#ffffff"
     bordercolor="#666666"
     borderopacity="1.0"
     inkscape:pageopacity="0.0"
     inkscape:pageshadow="2"
     inkscape:zoom="0.49497475"
     inkscape:cx="-561.31285"
     inkscape:cy="565.86932"
     inkscape:document-units="px"
     inkscape:current-layer="layer1"
     showgrid="false"
     fit-margin-top="0"
     fit-margin-left="0"
     fit-margin-right="0"
     fit-margin-bottom="0"
     inkscape:window-width="1378"
     inkscape:window-height="738"
     inkscape:window-x="-124"
     inkscape:window-y="155"
     inkscape:window-maximized="0" />
  <metadata
     id="metadata7">
    <rdf:RDF>
      <cc:Work
         rdf:about="">
        <dc:format>image/svg+xml</dc:format>
        <dc:type
           rdf:resource="http://purl.org/dc/dcmitype/StillImage" />
        <dc:title></dc:title>
      </cc:Work>
    </rdf:RDF>
  </metadata>
  <g
     inkscape:label="Ebene 1"
     inkscape:groupmode="layer"
     id="layer1"
     transform="translate(-1689.9706,-263.1292)">
    <path
       style="fill:#000000"
       d="m 1970.9775,1158.2823 c -4.377,-4.377 -4.4651,-6.4112 -0.9465,-21.8558 1.8908,-8.3 2.4406,-12.9065 2.0291,-17.0027 -0.3754,-3.7358 0.1269,-9.0967 1.4991,-16 1.7448,-8.7781 1.9637,-12.4669 1.4167,-23.8817 -0.8575,-17.8923 -2.4566,-26.354 -7.3988,-39.1505 -2.2623,-5.8578 -4.8012,-13.2828 -5.6419,-16.5 -2.7145,-10.3877 -4.4114,-29.28099 -4.8815,-54.34949 -0.3546,-18.9111 -0.8178,-25.4678 -2.0304,-28.7426 -0.8641,-2.3335 -2.2175,-9.9835 -3.0076,-17 -0.7902,-7.0166 -2.1435,-14.7264 -3.0075,-17.1331 -1.0968,-3.0554 -1.5708,-7.9905 -1.5708,-16.3556 0,-7.5794 -0.5692,-14.1764 -1.5495,-17.9596 -0.8522,-3.2887 -1.9401,-10.477 -2.4176,-15.9738 -0.6336,-7.2947 -1.3033,-10.3125 -2.4796,-11.1726 -1.2173,-0.8901 -2.0901,-5.3346 -3.5684,-18.1705 -1.0763,-9.3457 -1.9632,-17.3562 -1.9709,-17.8012 -0.01,-0.4449 -0.3934,-0.5745 -0.8572,-0.2879 -0.4637,0.2866 -1.1309,6.5007 -1.4826,13.809 -0.9388,19.5083 -1.5045,22.7073 -4.1319,23.3667 -1.9833,0.4978 -2.3817,1.882 -4.3849,15.2344 -1.2118,8.0778 -2.6777,17.1619 -3.2576,20.1869 -0.5798,3.025 -1.4804,9.4118 -2.0013,14.1929 -0.5208,4.7812 -1.6111,10.5753 -2.4227,12.8758 -0.8117,2.3005 -1.4805,6.0386 -1.4862,8.307 -0.01,2.2683 -0.9056,9.2412 -2,15.4952 -1.3968,7.9829 -1.99,15.8786 -1.9908,26.5 0,25.4911 -3.0071,46.74649 -10.0826,71.31609 -5.156,17.9039 -7.8612,33.6494 -8.5584,49.813 -0.4756,11.0267 -0.2383,14.4177 1.5632,22.3402 1.4313,6.2943 1.9223,10.8606 1.5055,14.0021 -0.4497,3.3901 -0.065,6.2364 1.4106,10.4346 1.2516,3.561 1.8226,7.0452 1.4903,9.0932 -0.3342,2.0594 0.071,4.4995 1.0669,6.4254 1.9926,3.8533 2.0422,7.4597 0.1529,11.1133 -2.1312,4.1211 -6.2124,5.4254 -14.7792,4.723 -3.9974,-0.3278 -7.943,-0.5747 -8.768,-0.5488 -10.3972,0.3262 -21.3321,-0.3494 -25,-1.5447 -2.475,-0.8065 -5.7762,-1.7259 -7.3361,-2.043 -4.5906,-0.9334 -7.6639,-4.7492 -7.6639,-9.5156 0,-4.9831 1.0948,-7.2656 5.9856,-12.4798 2.0635,-2.1999 4.2467,-5.4885 4.8513,-7.3079 0.6047,-1.8193 4.2638,-8.377 8.1313,-14.5726 l 7.0318,-11.2647 -0.035,-8.9274 c -0.046,-11.7612 -1.7349,-20.6805 -7.4658,-39.4273 -6.5268,-21.3506 -7.2564,-24.287 -8.4512,-34.0145 -2.067,-16.8283 3.2306,-50.87919 10.6441,-68.41539 5.7948,-13.7075 6.4787,-16.6947 7.3425,-32.0701 0.9115,-16.2277 1.1471,-14.329 -6.6016,-53.2081 -1.3382,-6.7145 -2.4331,-13.9895 -2.4331,-16.1667 0,-2.2784 -0.5305,-4.1351 -1.25,-4.3744 -0.9512,-0.3164 -1.3205,-7.1607 -1.5448,-28.6315 -0.2835,-27.1321 -0.1954,-28.6844 2.2923,-40.4176 1.423,-6.7109 3.2214,-17.2601 3.9966,-23.4425 1.9084,-15.2205 7.7694,-32.52277 12.6805,-37.4338 1.808,-1.80804 2.1315,-3.65665 2.5722,-14.69681 0.5631,-14.10742 -0.685,-24.54355 -3.5867,-29.99145 -8.8285,-16.57499 -13.1936,-26.04339 -15.5338,-33.69438 -1.5045,-4.91855 -3.2264,-10.29281 -3.8264,-11.94281 -0.6,-1.65 -2.5832,-7.275 -4.4072,-12.5 -1.8239,-5.225 -3.5124,-9.5 -3.7523,-9.5 -0.2398,0 -7.1284,4.81264 -15.3079,10.69477 -19.0959,13.73238 -23.8914,15.91798 -44.3325,20.20518 -9.075,1.90334 -18.2826,4.39199 -20.4614,5.53034 -4.6038,2.4053 -9.5109,2.65252 -13.3406,0.67209 -5.035,-2.6037 -6.6533,-5.36668 -7.2946,-12.45466 -0.3308,-3.65625 -2.0012,-10.53201 -3.7121,-15.27948 -1.7109,-4.74747 -4.3002,-15.54747 -5.754,-24 -3.4983,-20.33904 -3.1277,-26.70907 3.0177,-51.86824 5.2782,-21.60927 5.93,-29.05557 3.1512,-36 -0.9904,-2.475 -2.0463,-7.9875 -2.3464,-12.25 -0.3001,-4.2625 -0.8565,-7.75 -1.2366,-7.75 -0.3801,0 -1.1591,5.88338 -1.7313,13.07418 -0.5721,7.1908 -1.4942,13.52815 -2.0491,14.08301 -2.5696,2.56963 -35.6998,2.78579 -38.2361,0.24948 -4.2851,-4.28506 -4.7613,-65.2572 -0.5547,-71.01014 1.0611,-1.45114 3.3031,-1.83501 12.8524,-2.20053 11.669,-0.44665 23.2665,0.30276 25.4361,1.64364 0.6648,0.41085 1.4392,4.40991 1.7804,9.19375 0.332,4.65664 0.8093,9.47911 1.0605,10.71661 0.5662,2.78924 3.0624,2.9478 3.9189,0.24894 0.8655,-2.72675 3.7239,-4.07829 8.7683,-4.14581 9.3394,-0.125 30.5662,-1.01598 35.8939,-1.50662 4.8257,-0.4444 5.971,-0.21298 7.75,1.56601 1.1481,1.14811 2.0875,3.01878 2.0875,4.15703 0,1.57422 0.5385,1.99307 2.25,1.75 2.0624,-0.2929 2.3115,-1.02838 2.9879,-8.81955 1.0824,-12.46954 1.2125,-12.79238 5.5202,-13.7062 4.945,-1.04901 28.9242,-0.73463 32.7419,0.42926 2.658,0.81033 3.0764,1.47681 3.6698,5.84577 2.4157,17.78471 1.6731,63.98823 -1.0726,66.73392 -1.2367,1.2368 -23.3648,2.11577 -31.4545,1.24944 -8.0514,-0.86224 -8.2999,-1.245 -9.3058,-14.33032 -0.5325,-6.92798 -0.852,-8.16175 -1.6021,-6.18763 -2.9782,7.83726 -3.6197,8.62576 -9.6187,11.8232 -3.358,1.7898 -6.5092,4.01656 -7.0026,4.94837 -1.2838,2.42433 -3.1135,15.11076 -3.1135,21.58734 0,3.6241 1.3297,9.71948 3.885,17.80845 2.1367,6.76412 4.2076,13.80735 4.6021,15.65162 l 0.7172,3.35323 3.6478,-3.54772 c 4.5913,-4.46521 15.979,-9.84 22.093,-10.42748 3.9992,-0.38426 4.8474,-0.86539 5.961,-3.38114 0.714,-1.61322 4.8852,-6.72244 9.2692,-11.35383 10.5258,-11.11976 15.282,-13.4906 28.5218,-14.21719 9.0674,-0.49761 10.5472,-0.29936 19.7235,2.6423 l 9.9207,3.18027 8.8293,-2.70845 8.8294,-2.70846 0,-10.01391 c 0,-8.66242 -0.3711,-10.90176 -2.7497,-16.59238 -2.6887,-6.43235 -2.7497,-7.02268 -2.75,-26.57846 -3e-4,-19.43699 0.073,-20.15483 2.5899,-25.5 3.6418,-7.73314 7.1226,-11.46616 13.7057,-14.69891 5.3219,-2.61339 6.5082,-2.79624 17.7041,-2.72877 13.1186,0.0791 16.7151,1.05394 23.3892,6.33996 2.0421,1.61734 5.009,5.32195 6.5931,8.23247 l 2.8802,5.29186 0.069,21.53169 c 0.065,20.50917 -0.046,21.81664 -2.3408,27.5317 -1.8635,4.64016 -2.5002,8.3955 -2.8091,16.56962 l -0.3996,10.56962 6.1511,1.71016 c 6.7787,1.88463 14.3125,5.44284 20.4926,9.67868 11.6893,8.0118 14.2758,9.05226 23.3511,9.39327 12.4638,0.46833 19.4428,3.82131 28.4299,13.659 3.728,4.08081 7.7716,9.46963 8.9858,11.97516 1.7025,3.5129 4.107,5.90054 10.5062,10.43243 10.7158,7.58892 13.8892,11.20538 20.3341,23.17314 3.849,7.14747 7.1284,11.62822 11.9881,16.37991 8.1997,8.01742 9.4916,11.56665 7.4318,20.4171 -1.0325,4.43652 -2.1657,6.60725 -4.4371,8.5 -2.0779,1.73148 -4.2627,5.57077 -6.8526,12.04191 -2.0911,5.225 -5.4507,11.975 -7.4657,15 -5.0028,7.51048 -21.074,22.73107 -34.8709,33.02538 -7.8523,5.85882 -12.0517,9.72001 -13.4262,12.34482 -1.1,2.1007 -4.1162,5.2446 -6.7028,6.98644 -3.4929,2.35221 -6.4069,5.85461 -11.3263,13.61351 -3.6429,5.7456 -7.0362,11.2176 -7.5406,12.1601 -0.6008,1.1227 -0.2573,4.9305 0.996,11.0417 1.0522,5.1304 2.8502,16.753 3.9954,25.828 1.1452,9.075 3.1549,21.675 4.4658,28 3.9539,19.0767 3.8789,17.9216 1.2411,19.1234 -2.2058,1.005 -2.3658,1.7284 -2.9255,13.2199 -0.5219,10.7167 -3.782,30.4989 -6.6992,40.6501 -1.562,5.4357 -1.2221,32.1332 0.5338,41.9287 1.5772,8.7982 4.5831,19.4778 9.4509,33.5779 5.5376,16.04 7.5153,26.905 7.4628,40.99999 -0.054,14.6516 -1.518,23.3635 -7.6163,45.3364 -6.2658,22.5767 -8.8162,35.0167 -8.826,43.0517 -0.01,7.3609 0.018,7.4365 7.4909,20.5799 4.125,7.2555 7.5,13.6914 7.5,14.3021 0,0.6107 2.1665,3.9498 4.8144,7.4202 8.1056,10.6233 8.9214,12.4017 7.1539,15.5941 -0.9846,1.7784 -4.1649,3.9953 -9.215,6.4235 -7.2955,3.5078 -8.2924,3.7177 -18.4824,3.892 -5.924,0.1014 -11.4459,0.1001 -12.2709,0 -0.825,-0.1028 -5.1944,0.1213 -9.7098,0.4981 l -8.2099,0.6851 -3.5401,-3.5402 z m 18.3369,-4.9036 c 2.064,-0.7672 2.3013,-1.3502 1.8022,-4.426 -0.7816,-4.8161 1.4988,-4.0358 2.7537,0.9423 0.6776,2.6878 1.5985,3.8679 3.3643,4.3111 3.7559,0.9427 16.5312,-0.4332 19.7869,-2.131 1.6037,-0.8363 3.9284,-1.5234 5.1659,-1.5268 2.2904,-0.01 6.25,-3.1834 6.25,-5.0148 0,-0.5548 -2.4607,-3.6854 -5.4683,-6.9568 -3.1741,-3.4526 -7.3216,-9.6372 -9.8858,-14.7413 -2.4297,-4.8363 -6.2305,-11.2049 -8.4463,-14.1525 -3.2034,-4.2616 -4.1561,-6.5147 -4.6511,-11 -1.0158,-9.2049 1.872,-26.9433 8.0001,-49.1407 6.8812,-24.9253 8.3735,-32.8224 8.409,-44.5 0.04,-13.18109 -1.2212,-19.14449 -9.491,-44.87549 -7.2427,-22.5356 -7.4696,-23.5453 -7.5663,-33.6783 -0.055,-5.7454 -0.4102,-11.5613 -0.7898,-12.9241 -0.5833,-2.094 -0.8889,-1.5903 -1.9721,3.25 -1.175,5.2506 -2.3272,6.9077 -3.461,4.9778 -0.9916,-1.6877 2.2993,-23.4154 4.7395,-31.2913 3.8802,-12.5241 7.5831,-33.8299 7.5831,-43.6322 0,-7.7567 -0.1606,-8.4707 -1.75,-7.7801 -10.6418,4.6238 -26.2964,7.4227 -43.2417,7.7313 l -12.2126,0.2223 0.7054,10.5 c 0.7908,11.7707 1.8468,15.2893 2.9015,9.6676 0.6366,-3.3934 2.1442,-5.4541 3.2103,-4.388 0.2639,0.2639 -0.2161,4.8041 -1.0666,10.0894 -2.053,12.7585 -1.9498,20.7012 0.386,29.6927 1.0628,4.0911 2.4256,11.9227 3.0284,17.4036 1.3529,12.3 3.0794,19.1003 7.526,29.6436 3.193,7.5709 3.5776,9.8911 1.6395,9.8911 -0.4157,0 -1.6094,-1.6875 -2.6527,-3.75 l -1.8969,-3.75 -0.3723,2.9318 c -0.2047,1.6125 0.3701,12.6375 1.2774,24.5 2.0705,27.06989 5.4219,44.45119 13.1247,68.06819 2.6532,8.1349 2.7892,9.5305 3.1648,32.4871 0.3448,21.0724 0.1754,24.6256 -1.3934,29.2412 -1.4921,4.3896 -1.5878,5.802 -0.5819,8.5839 1.6722,4.6244 1.5154,7.3713 -0.7959,13.9475 -1.1,3.1297 -2.0066,6.7141 -2.0145,7.9654 -0.01,1.2512 -0.6977,4.2362 -1.5325,6.6334 -1.1606,3.3324 -1.2452,4.687 -0.3597,5.754 2.5673,3.0933 10.248,3.6535 16.7837,1.2241 z m 10.8443,-5.7313 c -2.0691,-3.5026 -2.1872,-5.1053 -0.3763,-5.1053 1.9946,0 4.8805,3.5925 4.4926,5.5928 -0.5494,2.8338 -2.2751,2.6295 -4.1163,-0.4875 z m 10.4787,-1.3052 c -0.66,-0.66 -1.2,-1.785 -1.2,-2.5 0,-1.8357 2.9395,-1.6213 3.6642,0.2672 0.8265,2.1538 -0.9414,3.7556 -2.4642,2.2328 z m -26.0145,-37.5249 c 0.4314,-2.2401 4.4553,-4.2418 8.5645,-4.2604 4.4839,-0.02 4.078,1.6852 -0.7078,2.9739 -2.1768,0.5861 -4.2283,1.5035 -4.559,2.0385 -1.0422,1.6864 -3.6526,1.0911 -3.2977,-0.752 z m -1.5403,-86.0252 c -1.3631,-20.5848 -2.6011,-33.05949 -4.0936,-41.24999 -1.8935,-10.3914 -2.0252,-16.3245 -0.3498,-15.766 1.7347,0.5782 3.4794,8.3369 4.2729,19.0016 0.3791,5.0954 1.3231,15.11449 2.0977,22.26439 1.8451,17.0313 1.8693,25.5 0.073,25.5 -1.0027,0 -1.5223,-2.5329 -2.0002,-9.75 z m 0.8819,-68.20599 c -0.3249,-0.5259 0.661,-1.7339 2.191,-2.6846 5.5714,-3.4619 7.1915,-5.6071 8.3125,-11.0066 1.2928,-6.2274 2.9694,-6.1957 2.9694,0.056 0,6.3944 -6.3901,14.591 -11.3752,14.591 -0.8287,0 -1.7727,-0.4302 -2.0977,-0.956 z m -22.5271,-40.9215 c 0,-0.4827 0.6989,-1.4576 1.5532,-2.1666 0.8542,-0.7089 3.2988,-4.2779 5.4323,-7.9311 3.7911,-6.4911 6.8965,-9.0248 11.0616,-9.0248 2.5516,0 2.5162,1.6865 -0.053,2.5018 -3.5311,1.1207 -7.5802,5.248 -9.502,9.6856 -1.0273,2.3719 -2.5281,5.1002 -3.3352,6.0626 -1.5156,1.8077 -5.1573,2.4238 -5.1573,0.8725 z m 22.5,-2.3737 c -1.8144,-2.8796 -6.743,-6.9322 -9.7979,-8.0564 -0.9225,-0.3394 -0.9283,-0.7336 -0.025,-1.6942 0.9361,-0.9958 1.8932,-0.809 4.68,0.9134 4.2088,2.6011 9.6432,8.5879 9.6432,10.6232 0,2.4965 -2.4025,1.543 -4.5,-1.786 z m -88.759,238.93879 c 1.5192,-1.5192 1.5155,-2.0325 -0.051,-7.0014 -0.9296,-2.949 -1.6902,-6.5226 -1.6902,-7.9411 0,-1.4186 -0.9343,-4.7541 -2.0763,-7.4121 -1.3078,-3.0443 -1.8737,-5.9433 -1.5291,-7.833 1.7049,-9.3496 1.7346,-10.6725 0.3317,-14.7898 -1.8605,-5.4603 -2.3478,-38.0459 -0.7219,-48.267 0.6075,-3.8187 2.4476,-10.9587 4.0891,-15.8665 3.079,-9.2058 6.9343,-24.5648 8.8046,-35.0767 1.5047,-8.45689 4.108,-39.44399 4.0707,-48.45409 l -0.031,-7.5459 -2.4246,3.9469 c -4.0436,6.5823 -4.1181,1.8137 -0.1276,-8.1605 4.1351,-10.3353 6.2851,-19.0157 7.1299,-28.7863 0.3329,-3.85 1.5341,-10.825 2.6693,-15.5 2.2541,-9.2821 2.5914,-20.9813 0.8616,-29.8865 -0.5754,-2.9626 -1.0319,-7.0126 -1.0144,-9 0.028,-3.2397 0.1708,-3.4304 1.3755,-1.8426 0.7391,0.974 1.6982,3.674 2.1315,6 0.7497,4.0254 0.8479,3.7717 2.0389,-5.2709 0.6881,-5.225 1.2888,-10.4 1.3347,-11.5 0.081,-1.9301 -0.5892,-2.0038 -19.1644,-2.1067 -11.154,-0.062 -23.348,-0.7199 -28.998,-1.5649 l -9.75,-1.4582 0,2.2354 c 0,5.0903 5.1022,31.604 7.8696,40.8943 3.4792,11.6802 5.9576,30.0728 4.2786,31.7519 -1.2482,1.2482 -1.4182,0.8901 -3.4417,-7.2519 l -1.3669,-5.5 -0.737,14.5 c -0.7336,14.4325 -0.7716,14.6082 -8.1556,37.7095 -8.8508,27.6898 -10.3346,36.8397 -8.5484,52.71359 0.6311,5.6081 2.2522,14.2197 3.6026,19.1368 10.365,37.7425 12.4988,48.2585 12.4988,61.5988 0,6.9572 -0.84,9.3043 -5.5273,15.445 -2.0014,2.622 -5.6408,8.7533 -8.0876,13.6251 -2.619,5.2147 -6.728,11.3371 -9.991,14.8864 -5.1974,5.6535 -5.4529,6.1644 -4.1036,8.2068 0.7913,1.1979 2.7372,2.5514 4.3241,3.0078 1.587,0.4563 4.2354,1.3297 5.8854,1.9409 1.65,0.6111 7.1652,1.2812 12.2561,1.489 l 9.256,0.3779 2.2162,-4.8188 2.2162,-4.8188 0.3321,4.1848 c 0.2756,3.4743 0.7897,4.3614 3.0277,5.2249 3.8806,1.4972 12.9602,0.7544 14.9367,-1.2221 z m -30.5544,-4.8367 c 0.3144,-3.1592 3.0597,-5.9379 4.4716,-4.526 0.8839,0.8839 -2.5483,7.6752 -3.879,7.6752 -0.4983,0 -0.7649,-1.4172 -0.5926,-3.1492 z m -10.1866,-2.0775 c 0,-1.5375 1.9374,-3.7734 3.2695,-3.7734 0.4783,0 0.7258,1.0079 0.5501,2.2398 -0.3451,2.4184 -3.8196,3.8134 -3.8196,1.5336 z m 24.5,-36.8911 c -1.65,-1.0295 -3.7609,-1.8741 -4.691,-1.877 -2.251,-0.01 -3.3193,-1.8722 -1.4772,-2.5791 2.1994,-0.844 9.6898,1.4666 10.3525,3.1935 0.9969,2.5979 -1.0527,3.2163 -4.1843,1.2626 z m 2.9478,-76.9667 c -0.7592,-1.2285 0.013,-12.5457 2.1081,-30.9156 0.7843,-6.87499 1.4354,-14.97489 1.4469,-17.99999 0.022,-5.8679 2.2288,-15.6315 3.9131,-17.3159 2.0969,-2.0968 2.1484,2.2183 0.1662,13.9157 -1.8608,10.9805 -3.2636,24.26099 -4.7693,45.15029 -0.561,7.7817 -1.3164,9.6712 -2.865,7.1655 z m -3.2959,-77.52169 c -6.1582,-4.3134 -9.8327,-13.1877 -7.1904,-17.3658 1.0449,-1.6522 0.8743,-1.9796 2.9424,5.6483 1.0481,3.8659 3.8555,7.079 8.6374,9.8855 1.0433,0.6123 1.4984,1.5649 1.075,2.25 -1.0034,1.6235 -2.7394,1.4906 -5.4644,-0.418 z m 1.5834,-39.9919 c -1.2846,-1.2846 -0.8235,-2.2986 2.9395,-6.4638 5.1817,-5.7354 11.3252,-8.7443 11.3252,-5.5466 0,0.7654 -1.0856,1.6641 -2.4125,1.9971 -2.2858,0.5737 -5.2171,3.2316 -9.2972,8.4299 -1.0009,1.2753 -2.1507,1.9878 -2.555,1.5834 z m 21.0238,-1.652 c -0.8089,-1.2374 -1.824,-3.3662 -2.2556,-4.7306 -1.2204,-3.8579 -4.4183,-7.6585 -8.1225,-9.6534 -4.2154,-2.2701 -4.6401,-4.8953 -0.631,-3.9002 3.8559,0.957 6.7495,3.947 10.7602,11.1189 1.9041,3.4049 4.1718,6.4631 5.0393,6.796 0.8675,0.3329 1.2972,1.0584 0.9549,1.6123 -1.0897,1.7631 -4.2233,1.0852 -5.7453,-1.243 z m 19.9276,-67.7623 5.1867,-1.1262 0.5764,-5.1807 c 0.3171,-2.8494 1.133,-11.6743 1.8133,-19.6109 l 1.2369,-14.4302 7.1437,-1.7524 c 3.929,-0.9638 10.9361,-3.3222 15.5712,-5.241 10.7681,-4.4574 14.6841,-5.2011 17.2851,-3.2826 1.9834,1.4629 1.98,1.4965 -0.4125,4.0432 -3.9911,4.2484 -17.0613,12.8172 -18.6314,12.2147 -2.6902,-1.0323 -1.4938,-2.4174 5.2939,-6.1286 7.0849,-3.8736 10.25,-6.2353 10.25,-7.6479 0,-1.755 -3.7831,-0.7337 -8.5542,2.3093 -2.7202,1.7349 -7.2636,4.2224 -10.0964,5.5279 -2.8329,1.3053 -5.6605,2.9877 -6.2837,3.7386 -0.8477,1.0214 -0.7194,5.61 0.5096,18.2221 0.9034,9.2714 1.8596,17.082 2.1249,17.357 0.2653,0.2751 7.5288,0.4509 16.1411,0.3908 19.5965,-0.1366 32.2386,-2.5245 42.8979,-8.1025 7.143,-3.7379 7.2394,-3.8414 7.2487,-7.7883 0.01,-2.2 -1.069,-8.5 -2.3871,-14 -1.3182,-5.5 -2.9114,-14.05 -3.5405,-19 -2.24,-17.6254 -5.9186,-37.9749 -6.72,-37.1736 -0.4711,0.4711 0.824,9.7162 4.7526,33.9266 2.2427,13.8211 2.3407,16.0583 0.6791,15.5044 -1.8783,-0.6261 -3.5733,-7.7188 -5.7892,-24.2252 -1.1099,-8.2677 -2.25,-16.4655 -2.5335,-18.2173 l -0.5156,-3.1851 -3.4347,1.4351 c -4.5054,1.8825 -16.1127,1.9267 -17.1993,0.065 -0.4748,-0.8131 -3.197,-1.5627 -6.6996,-1.8447 -6.394,-0.5148 -9.1324,-2.6052 -8.1859,-6.2487 0.2805,-1.0797 -0.2192,-2.769 -1.1106,-3.7539 -2.2493,-2.4855 -1.8445,-11.201 0.7222,-15.5514 1.0858,-1.8402 1.9742,-3.5138 1.9742,-3.719 0,-0.2051 -1.4625,0.05 -3.25,0.5673 -1.7875,0.5172 -9.775,1.2194 -17.75,1.5605 -24.4124,1.0443 -42.8641,-1.9513 -57.7429,-9.37448 -3.9835,-1.98744 -7.4042,-3.42282 -7.6014,-3.18972 -0.1972,0.23309 -2.2882,4.65134 -4.6466,9.8183 -3.0742,6.7352 -4.5472,11.5475 -5.2033,17 -1.2274,10.1985 -3.4505,24.8326 -5.2572,34.6055 -1.5771,8.5314 -1.9867,30.227 -0.8849,46.8673 l 0.6534,9.8672 3.2503,1.3581 c 11.5363,4.8202 43.9763,6.6831 59.1193,3.395 z m -61.1022,-31.851 c -0.3294,-0.5328 -0.094,-2.2441 0.5225,-3.8027 0.6167,-1.5587 1.4732,-12.2839 1.9034,-23.834 0.778,-20.89 2.1026,-28.7054 5.3125,-31.3435 0.6474,-0.5321 3.8385,-1.7383 7.0912,-2.6806 5.9015,-1.7095 10.5859,-5.1478 10.5859,-7.7699 0,-0.7617 -1.2375,-1.9412 -2.75,-2.6212 -5.3159,-2.3897 -12.25,-7.3081 -12.25,-8.689 0,-2.1763 3.0139,-1.6275 8.9098,1.6224 6.373,3.5128 7.6781,3.6657 8.3799,0.9818 0.2877,-1.1 1.2402,-2 2.1167,-2 2.2331,0 2.0709,6.3685 -0.2928,11.5 -2.8209,6.1241 -6.2135,9.0965 -12.4524,10.9101 -3.4714,1.0092 -6.2117,2.5005 -7.1078,3.8681 -1.8087,2.7604 -3.1469,11.805 -4.6194,31.2218 -0.6256,8.25 -1.4356,16.7647 -1.8,18.9215 -0.6493,3.8431 -2.3623,5.6362 -3.5495,3.7152 z m 51.8217,-0.2883 c -0.3914,-0.6335 0.093,-1.74 1.0761,-2.459 2.1185,-1.5492 9.8527,-2.8585 12.0054,-2.0324 2.4125,0.9257 1.7498,2.643 -1.0198,2.643 -1.3927,0 -4.1476,0.6751 -6.1221,1.5 -4.3145,1.8027 -5.0153,1.8438 -5.9396,0.3484 z m 6.5938,-9.3484 c -4.7626,-2.4933 -7.8364,-3.4195 -11.5,-3.4651 -6.8908,-0.086 -9.661,-0.9547 -9.2899,-2.9141 0.6903,-3.6445 9.1797,-2.1227 23.0399,4.1302 3.7125,1.6748 6.75,3.6535 6.75,4.3971 0,2.0355 -1.8544,1.5929 -9,-2.1481 z m -22.25,-40.513 c -1.3857,-0.8602 -2.5788,-4.0228 -1.5,-3.9761 0.1375,0.01 2.459,0.6809 5.1589,1.5 7.4184,2.2504 18.8203,1.8657 31.1674,-1.0518 9.6242,-2.274 16.4199,-4.9321 16.4258,-6.4247 10e-4,-0.2939 -4.8346,-0.3907 -10.7462,-0.2152 -17.1952,0.5107 -41.2559,-4.4492 -41.2559,-8.5045 0,-1.9748 3.0972,-1.4305 12.5,2.1966 6.909,2.6651 7.2438,2.6942 25.7455,2.2366 20.1722,-0.4989 21.5837,-0.1877 20.4073,4.4992 -0.7449,2.968 -4.5688,5.1448 -13.7113,7.8054 -5.9871,1.7423 -10.8617,2.2491 -24.9415,2.5932 -11.5784,0.2829 -18.0922,0.06 -19.25,-0.6587 z m 93.8058,-3.8731 c 5.1922,-2.3583 9.9197,-7.9216 16.0425,-18.8785 5.2789,-9.4467 11.1504,-16.5369 15.5998,-18.83781 1.5411,-0.79689 2.8019,-2.0235 2.8019,-2.72578 0,-2.07048 9.544,-11.21233 19.1243,-18.31838 5.2902,-3.92398 13.7169,-11.82838 20.7605,-19.47371 11.1589,-12.11227 12.1327,-13.50922 16.5648,-23.76304 2.7023,-6.25207 5.9602,-12.09316 7.6456,-13.70782 1.6152,-1.54745 3.4224,-4.61721 4.016,-6.82167 1.6824,-6.24822 -0.1239,-10.17506 -7.4256,-16.14244 -5.2685,-4.30583 -7.0113,-6.64325 -11.7551,-15.7662 -6.1295,-11.78764 -9.5758,-15.92527 -18.1602,-21.80258 l -5.7297,-3.92286 0.6315,3.1574 c 1.0951,5.47553 -1.7768,2.8839 -4.6418,-4.18874 -3.2242,-7.95964 -7.8675,-14.84246 -14.5164,-21.51793 -6.5182,-6.54425 -14.1421,-9.5835 -24.0139,-9.573 -10.6775,0.0114 -14.5,-0.70834 -14.5,-2.73008 0,-3.15496 -24.8739,-15.92949 -31.25,-16.04911 -2.9993,-0.0563 -3.9128,2.56497 -1.25,3.58677 2.3193,0.88999 1.7724,2.36163 -0.8776,2.36163 -3.66,0 -4.8495,-2.20481 -4.1474,-7.68757 l 0.6163,-4.81243 -3.4073,7.08582 c -4.3882,9.1257 -8.7957,16.63584 -9.4054,16.02615 -0.2631,-0.2631 1.346,-5.20148 3.5758,-10.97417 3.3998,-8.80185 7.1456,-20.85319 7.1456,-22.9893 0,-0.30955 -2.1375,1.73237 -4.75,4.53761 -5.6714,6.08979 -9.3458,7.81389 -16.6528,7.81389 -7.44,0 -9.3519,-0.90351 -16.9479,-8.00919 l -6.5631,-6.13946 1.9025,6.82432 c 1.0464,3.75338 3.4648,11.01194 5.3743,16.13013 1.9152,5.13342 2.9484,9.14113 2.3044,8.93854 -1.9852,-0.62451 -7.498,-11.88769 -9.3788,-19.16171 l -1.7886,-6.91738 -0.5,8.91738 c -0.4659,8.30964 -0.6533,8.93915 -2.75,9.23692 -2.5717,0.36524 -2.7342,-0.0713 -1.0379,-2.78764 0.6667,-1.06752 0.97,-2.18318 0.6739,-2.47923 -0.296,-0.29605 -4.3255,0.56277 -8.9543,1.9085 l -8.416,2.44678 -8.3185,-2.41163 c -4.5752,-1.32639 -11.7878,-2.9427 -16.0279,-3.59179 -12.801,-1.9596 -21.5549,1.67927 -31.9385,13.27636 -7.3552,8.21472 -8.029,9.75432 -5.2531,12.0021 1.5482,1.25365 3.9147,1.817 7.6331,1.817 4.6196,0 5.3892,0.27013 5.3892,1.89159 0,3.06866 -4.3584,3.39858 -13.7651,1.04199 -5.2261,-1.30924 -10.1254,-1.94335 -12.5266,-1.62129 -5.8074,0.77894 -15.9953,6.15609 -19.9433,10.52601 -3.3249,3.6803 -3.9479,5.35049 -7.7655,20.81704 -1.2129,4.91412 -4.1886,8.96389 -5.8375,7.94475 -1.6688,-1.03133 -1.4431,-4.14225 0.8779,-12.10327 2.5997,-8.9166 2.031,-16.06661 -2.7439,-34.49682 -3.2087,-12.38529 -3.4573,-14.367 -3.0107,-24 0.2938,-6.33554 0.1482,-9.60762 -0.367,-8.25 -0.9893,2.60701 -2.9183,3.01419 -2.9183,0.61602 0,-0.89869 0.5285,-3.39808 1.1745,-5.5542 1.2999,-4.33871 4.7735,-7.50113 14.499,-13.20026 7.0656,-4.14046 8.6999,-7.26178 8.7584,-16.72795 0.051,-8.18693 -0.5611,-8.59337 -13.7157,-9.11274 -6.1689,-0.24356 -11.9849,-0.78256 -12.9243,-1.19778 -2.5577,-1.1304 -3.5988,3.87786 -1.3277,6.3873 2.2706,2.50908 10.5007,4.39028 15.5068,3.5445 2.6991,-0.45601 4.029,-0.31343 4.029,0.43196 0,1.57256 -4.4269,3.06315 -9.0972,3.06315 -4.6306,0 -10.4398,2.21643 -13.6065,5.19136 -1.227,1.15275 -2.9703,4.32168 -3.8738,7.04208 -1.9784,5.95644 -3.8126,5.09236 -2.8045,-1.3212 0.5048,-3.21113 1.672,-5.36502 4.2878,-7.91224 l 3.5942,-3.5 -11.749,0 -11.7489,0 -10e-4,3.35566 c 0,4.74341 2.8738,15.31674 4.7267,17.38143 0.8574,0.9554 3.0694,2.2833 4.9155,2.95089 4.5069,1.62972 4.2364,2.81202 -0.6433,2.81202 -3.8425,0 -4.0007,0.128 -4.018,3.25 -0.01,1.7875 -1.1529,7.975 -2.54,13.75 -8.4679,35.25421 -8.6717,37.69391 -4.8865,58.5 1.4009,7.7 2.9541,16.38554 3.4517,19.30121 0.4975,2.91566 2.2745,7.69544 3.9487,10.62173 2.4844,4.34219 3.0441,6.45007 3.0441,11.46349 0,5.85739 0.1511,6.23509 3.25,8.12453 4.1762,2.54625 7.3129,2.50791 12.2648,-0.14992 4.9911,-2.67886 8.0341,-3.60165 17.6058,-5.33893 4.1913,-0.76073 11.0152,-2.70129 15.1642,-4.31235 8.3457,-3.24065 27.3847,-15.08141 38.2152,-23.76689 8.8175,-7.07113 13.7733,-9.64331 17.8236,-9.25074 2.6394,0.25582 3.1764,0.73052 3.1764,2.80787 0,1.79935 -0.5605,2.52857 -2,2.60194 -4.677,0.23839 -4.7668,0.3138 -4.1352,3.47227 0.3382,1.69082 2.3453,7.42832 4.4603,12.75 2.1149,5.32169 4.3994,12.37579 5.0765,15.67579 2.9323,14.28942 6.2731,22.26479 14.8708,35.5 l 5.5217,8.5 -0.6447,21.59174 -0.6447,21.59173 8.2477,4.65816 c 4.5362,2.56198 8.4051,4.18579 8.5975,3.60846 0.1925,-0.57732 -0.82,-2.81763 -2.25,-4.97845 -2.7667,-4.18085 -3.4141,-7.40656 -1.3499,-6.72646 2.0029,0.6599 7.8093,8.80124 8.4064,11.78694 0.48,2.40009 1.2236,2.86851 6.1119,3.85023 7.9384,1.5942 30.4731,1.2474 46.0735,-0.70909 l 13.3417,-1.67326 2.1583,-5.068 c 2.6175,-6.14656 5.3622,-10.432 6.6812,-10.432 1.5727,0 1.145,2.37119 -1.5104,8.37557 -1.3681,3.09344 -2.1555,5.62406 -1.75,5.62362 2.086,-0.002 10.5868,-3.90413 12.3523,-5.66968 1.8959,-1.89587 1.9484,-2.4442 0.807,-8.42865 -0.6714,-3.52047 -1.2319,-13.2385 -1.2456,-21.59561 -0.024,-14.68162 0.062,-15.32326 2.5437,-19 8.1472,-12.0697 12.6846,-22.09369 16.3115,-36.03495 2.3424,-9.00412 4.8629,-25.20922 4.0478,-26.02435 -0.7009,-0.70091 -4.901,1.90735 -9.3629,5.81447 -6.1045,5.34531 -11.7796,7.70146 -22.9442,9.52573 -13.8961,2.27058 -30.0295,0.67751 -34.6148,-3.41799 -2.6085,-2.32982 -3.6418,-4.57544 -2.761,-6.00054 0.5486,-0.88768 1.7623,-0.42558 4.4112,1.67949 2.7916,2.21848 5.4392,3.16957 11.2142,4.0285 10.7561,1.59977 13.5071,1.44254 25.6781,-1.46765 10.1421,-2.4251 11.1934,-2.91471 16.3217,-7.60173 3.0148,-2.75533 7.1197,-7.66391 9.122,-10.90796 3.9138,-6.34074 6.946,-7.94851 5.9376,-3.14827 -1.0599,5.04584 0.362,5.7586 7.774,3.89676 3.6057,-0.90572 7.4758,-1.64676 8.6003,-1.64676 3.0483,0 2.4782,2.86911 -0.7055,3.5503 -5.9781,1.2791 -11.1847,3.66849 -11.7287,5.38245 -0.3147,0.9917 -0.1148,3.00636 0.4444,4.47702 1.3806,3.63119 8.605,14.33801 12.4222,18.41016 6.9209,7.38312 23.5362,14.85133 30.8619,13.87182 2.0624,-0.27576 4.0326,-0.0439 4.3781,0.51524 1.258,2.03543 -2.2324,2.88717 -9.1279,2.22746 -13.5557,-1.29689 -15.1645,-1.13011 -18.3271,1.89992 -4.6476,4.45268 -7.988,12.31864 -10.6187,25.00481 -2.2856,11.02188 -3.2879,13.63272 -8.1566,21.24716 -1.6346,2.55633 -1.652,2.74655 -0.1422,1.55104 1.4836,-1.17468 1.8146,-1.11846 2.4002,0.40758 1.5985,4.16565 -9.869,9.44088 -20.5871,9.47035 -3.0627,0.008 -6.0899,0.34707 -6.7271,0.75255 -1.5904,1.01194 -0.4652,6.23214 1.3433,6.23214 1.1431,0 1.033,0.58433 -0.5181,2.75 -4.3321,6.04858 -9.2,9.8953 -14.727,11.63752 -6.5179,2.05463 -15.4396,9.82153 -15.4396,13.44123 0,2.1386 0.1815,2.105 6.8929,-1.2748 3.7911,-1.9092 9.0786,-4.0019 11.75,-4.6505 2.6714,-0.6487 5.7861,-2.0173 6.9215,-3.0414 2.4618,-2.2204 4.4356,-2.4118 4.4356,-0.4301 0,1.9971 -4.9462,5.307 -11.2113,7.5023 -2.9088,1.0192 -7.7637,3.0216 -10.7887,4.4497 -3.025,1.4281 -6.2875,2.6009 -7.25,2.6063 -1.7931,0.01 -2.4336,2.4692 -0.8913,3.4224 1.5235,0.9416 17.5599,-2.5759 20.1505,-4.4198 1.38,-0.9824 4.3796,-2.2897 6.6657,-2.9053 2.8069,-0.7558 5.13,-2.3317 7.1546,-4.8534 3.267,-4.0692 5.0925,-3.7982 3.6067,0.5354 -0.6468,1.8864 -2.6327,3.5895 -6.4246,5.5096 -3.0185,1.5286 -7.0686,3.8483 -9,5.1549 -2.0671,1.3984 -6.5349,2.8994 -10.8613,3.6488 -7.3264,1.2691 -9.924,3.1307 -7.046,5.0496 1.6319,1.0881 6.3814,0.6993 13.3957,-1.0967 11.3637,-2.9096 13.3244,-3.9912 17.739,-9.7861 7.2046,-9.4573 9.7244,-7.7136 2.8089,1.9438 -4.1267,5.7628 -9.2807,8.8398 -17.309,10.3335 -2.0685,0.3849 -4.0076,1.0988 -4.309,1.5864 -1.0074,1.63 9.0173,0.8667 13.1259,-0.9995 z m -53.8891,-40.78052 c -1.2664,-1.26642 -0.6617,-5.398 0.8764,-5.98825 1.9274,-0.73961 2.0663,-0.57756 2.9195,3.40492 0.5949,2.77661 0.4177,3.25 -1.2165,3.25 -1.052,0 -2.2128,-0.3 -2.5794,-0.66667 z m -35.7936,-13.08333 c -0.6683,-1.70589 -0.8431,-6.23245 -0.4605,-11.92218 l 0.6168,-9.17218 -4.0147,-4.63864 c -4.5646,-5.27398 -4.3973,-4.63629 -2.7023,-10.30311 1.3627,-4.55585 2.6876,-4.64852 2.6876,-0.18799 0,1.48091 1.4313,5.34341 3.1808,8.58333 2.8584,5.29383 3.1931,6.80278 3.3033,14.89077 0.067,4.95 0.4923,10.4625 0.9442,12.25 0.679,2.68538 0.5351,3.25 -0.8281,3.25 -0.9073,0 -2.1345,-1.2375 -2.7271,-2.75 z m 62.7227,-2 c 0.4502,-2.0625 0.8378,-7.575 0.8613,-12.25 0.038,-7.5343 0.3721,-9.0601 2.9405,-13.42991 1.5937,-2.71145 2.9437,-6.49927 3,-8.41738 0.1255,-4.27426 2.1272,-5.26957 2.8996,-1.44177 0.3095,1.53398 0.8453,3.51906 1.1907,4.41128 0.4099,1.05865 -0.7996,3.27172 -3.4815,6.37033 l -4.1094,4.7481 0.6475,9.12968 c 0.6962,9.81479 -0.3343,14.62967 -3.131,14.62967 -1.3694,0 -1.5027,-0.61125 -0.8177,-3.75 z m -38.0958,-5.87799 c -1.1,-0.25644 -3.6725,-1.18163 -5.7167,-2.05598 -3.4124,-1.45961 -3.9211,-1.45575 -6.2148,0.0471 -3.0953,2.02816 -3.5685,2.03953 -3.5685,0.0858 0,-0.85306 1.5842,-2.21295 3.5205,-3.02198 3.1248,-1.30562 4.1315,-1.29333 8.9567,0.1094 6.3586,1.8485 8.6006,1.10411 10.5023,-3.48697 0.9848,-2.37754 1.0053,-4.72661 0.096,-10.94843 -1.1944,-8.16886 -0.7112,-13.10139 1.2834,-13.10045 0.7358,3.4e-4 1.2616,2.93259 1.4793,8.25 0.769,18.77788 0.6974,20.64552 -0.8512,22.19272 -1.6831,1.68168 -6.4174,2.64424 -9.4866,1.92875 z m 32.6166,-0.73152 c -1.9106,-2.30214 -5.6207,-2.74566 -9.4797,-1.13324 -1.965,0.82101 -4.0371,1.49275 -4.6048,1.49275 -2.097,0 -5.0321,-4.08285 -5.0321,-7 0,-3.74962 1.033,-3.80856 3.0984,-0.17678 1.3897,2.44363 2.0772,2.75468 5.2655,2.38246 5.4015,-0.63059 12.6603,0.6938 13.3271,2.43155 0.853,2.22274 -1.1188,3.7571 -2.5744,2.00326 z m 76.8834,-18.9855 c 0,-1.85421 2.2995,-3.68282 10.8016,-8.58955 5.2851,-3.05017 7.7527,-5.15999 8.9352,-7.63967 1.5267,-3.20146 4.2632,-4.72668 4.2632,-2.37611 0,1.82041 -2.7182,6.36547 -5.155,8.6195 -2.62,2.42351 -16.8086,11.33084 -18.049,11.33084 -0.4378,0 -0.796,-0.60526 -0.796,-1.34501 z m -131.3992,-8.49193 c -0.2845,-0.46031 1.4889,-2.25104 3.941,-3.97939 2.452,-1.72835 4.4582,-3.59901 4.4582,-4.15702 0,-0.62162 3.0864,-0.92008 7.9689,-0.77061 7.3945,0.22637 8.1557,0.0578 10.5594,-2.33816 2.8894,-2.88007 3.2507,-5.73388 1.9839,-15.66788 -0.6846,-5.36757 -0.5739,-6.25 0.7841,-6.25 1.9963,0 3.1116,6.68393 2.5079,15.0299 -0.3803,5.25788 -0.2154,5.9701 1.382,5.9701 0.9976,0 1.8138,0.6401 1.8138,1.42245 0,2.02614 6.5075,3.90694 11.2958,3.2647 3.8533,-0.51683 9.5088,1.39616 13.4432,4.54717 2.8942,2.31793 -0.1613,2.45101 -4.5113,0.19648 -4.0962,-2.12302 -5.1363,-2.29579 -7.7867,-1.29343 -4.5261,1.71179 -10.2374,0.28447 -13.8699,-3.46624 l -3.0711,-3.17113 -2.8757,2.75 c -2.5227,2.41242 -3.6592,2.75 -9.2587,2.75 -5.5052,0 -6.9524,0.41255 -10.5243,3 -4.0923,2.96443 -7.2353,3.78946 -8.2405,2.16306 z m -20.0114,-13.66306 c -0.6377,-2.54064 -1.5135,-2.84309 -7.3165,-2.52667 -4.8094,0.26224 -7.1278,-0.79208 -8.7839,-3.99454 -1.6937,-3.27532 -1.9867,-9.55317 -0.489,-10.47879 0.596,-0.36836 1,0.8381 1,2.98644 0,2.53418 0.7603,4.3648 2.5606,6.16508 2.9089,2.90885 4.1673,2.57715 2.4434,-0.64401 -1.1744,-2.19435 -0.7486,-5.00751 0.7578,-5.00751 0.4535,0 1.2552,1.42382 1.7814,3.16405 0.7946,2.62762 1.7403,3.38933 5.5784,4.49282 5.3873,1.54893 7.3018,3.43386 6.3936,6.29514 -0.8981,2.82973 -3.1678,2.56841 -3.9258,-0.45201 z m 83.2259,0.77926 c -0.1931,-1.00234 -2.1913,-2.36719 -4.7862,-3.26916 -4.3538,-1.5133 -4.5077,-1.71719 -6.7852,-8.98912 -1.2816,-4.09239 -2.5048,-7.6152 -2.7181,-7.82846 -0.2132,-0.21327 -3.4563,-1.13133 -7.2067,-2.04014 -5.7041,-1.3822 -6.8714,-2.02028 -7.1387,-3.90238 -0.3326,-2.34197 0.7349,-2.93034 2.3696,-1.30603 0.5225,0.51918 4.0527,1.43822 7.8448,2.04232 10.341,1.64734 10.9723,2.16828 10.3173,8.51398 -0.6395,6.19611 0.496,8.34346 6.3738,12.05396 2.4104,1.5216 3.9141,3.2344 3.9141,4.45831 0,2.43582 -1.7264,2.64658 -2.1847,0.26672 z m 11.1847,-1.18424 c 0,-0.49774 1.9131,-2.0261 4.2512,-3.39636 6.6946,-3.92328 8.1203,-5.97394 7.3785,-10.61278 -0.7623,-4.76699 0.9148,-6.40921 2.4469,-2.39605 1.0439,2.73445 1.112,2.75681 2.5269,0.82963 0.902,-1.2285 1.2232,-3.03216 0.8459,-4.75 -0.3616,-1.64624 -0.1848,-2.76946 0.436,-2.76946 1.8172,0 3.3204,4.09074 2.7027,7.3553 -0.6296,3.32785 -7.5552,11.66475 -12.2756,14.77712 -2.9161,1.92273 -8.3125,2.54764 -8.3125,0.9626 z m -83.8196,-3.28997 c 0.2515,-1.72699 1.5788,-2.5678 6.2259,-3.9438 3.2484,-0.96187 6.2356,-2.28177 6.6381,-2.9331 0.4026,-0.65134 1.0143,-3.31331 1.3595,-5.91549 0.9092,-6.85334 2.8006,-8.15204 11.365,-7.80353 5.8574,0.23836 7.3912,-0.0441 9.218,-1.69728 l 2.1914,-1.98321 -0.3391,2.98568 c -0.3341,2.94112 -0.4484,2.99543 -7.6534,3.63877 -4.73,0.42236 -7.9781,1.25392 -9.1933,2.3537 -1.7565,1.58963 -3.655,6.92602 -3.1479,8.84847 0.4511,1.71011 -2.109,3.57096 -7.1716,5.21286 -2.8451,0.92275 -5.6005,2.07241 -6.123,2.5548 -1.8121,1.67302 -3.6976,0.93558 -3.3696,-1.31787 z m 79.8196,-6.73696 c 0,-0.51254 1.3568,-1.89802 3.0151,-3.07883 3.9501,-2.81274 6.2685,-7.31875 6.9404,-13.48926 0.6124,-5.62349 2.38,-6.70591 2.8579,-1.75 0.1723,1.7875 0.6948,3.25 1.1611,3.25 1.704,0 5.9636,-6.15299 6.597,-9.52944 0.8,-4.26462 2.4285,-4.57285 2.4285,-0.45966 0,4.76498 -3.7584,11.71649 -7.1339,13.19481 -1.6254,0.71186 -4.067,3.18604 -5.4258,5.49819 -1.3588,2.31214 -3.4639,4.89964 -4.6779,5.75 -2.4432,1.71127 -5.7624,2.06506 -5.7624,0.61419 z m 106.6476,-5.78259 c -0.3516,-2.63202 -0.7537,-5.63707 -0.8935,-6.67787 -0.4142,-3.08485 1.873,-2.92212 3.177,0.22604 1.4084,3.40008 1.0648,10.34913 -0.5376,10.87453 -0.6521,0.2138 -1.3691,-1.6026 -1.7459,-4.4227 z m -194.1476,0.7145 c -2.0502,-1.3578 -4.6938,-1.98891 -8.35,-1.99341 -4.7468,-0.006 -5.7334,-0.38996 -8.75,-3.40659 -3.0285,-3.02854 -3.4,-3.99094 -3.4,-8.80887 0,-3.20773 0.5975,-6.19881 1.4682,-7.35 1.3458,-1.77933 1.4708,-1.45542 1.5,3.88579 0.028,5.08505 0.404,6.19909 2.9549,8.75 3.2841,3.28415 5.6647,3.88942 4.6139,1.17308 -2.6182,-6.76752 -0.8379,-10.2993 1.8948,-3.75904 1.1331,2.71182 2.7541,4.11109 7.2634,6.26954 4.167,1.99464 5.895,3.40789 6.1244,5.00905 0.399,2.78547 -1.3474,2.86113 -5.3196,0.23045 z m 175.2465,-11.75 c -0.8565,-2.0625 -2.0752,-5.14188 -2.7082,-6.84306 -0.633,-1.70118 -3.3756,-5.28426 -6.0946,-7.96241 -5.3481,-5.26766 -5.9227,-6.44453 -3.1466,-6.44453 4.3384,0 15.2029,15.79446 15.2029,22.10155 0,3.99344 -1.3929,3.62886 -3.2535,-0.85155 z m -304.2668,-3.51766 c -2.9461,-2.66731 -4.539,-4.82733 -4.0926,-5.54968 1.1546,-1.8681 2.2997,-1.42921 6.0462,2.31734 1.925,1.925 4.448,3.5 5.6067,3.5 1.4667,0 2.0053,0.53158 1.7731,1.75 -0.6328,3.32015 -4.3174,2.52364 -9.3334,-2.01766 z m 122.6017,-3.25574 c -7.7351,-2.17254 -11.8313,-5.04048 -15.5311,-10.87418 -4.8223,-7.60336 -6.5503,-13.76009 -6.5503,-23.33774 0,-4.60847 -0.5034,-10.37831 -1.1187,-12.82186 -1.3198,-5.24133 -2.8882,-5.59342 -10.8813,-2.44282 -6.2441,2.46121 -7,2.47946 -7,0.16898 0,-1.86045 1.538,-2.89944 8.25,-5.57313 4.6815,-1.86484 4.7565,-3.80446 0.25,-6.46335 -4.3563,-2.57026 -4.8577,-5.68814 -0.75,-4.66305 3.952,0.98622 8.9049,5.04323 12.0378,9.86025 2.5122,3.86279 2.7533,5.16576 3.2691,17.6703 0.6389,15.48966 2.4597,21.17035 8.7549,27.31453 4.6957,4.58308 10.1143,6.46839 22.447,7.81004 11.1927,1.21763 28.0652,-0.20651 33.0624,-2.79067 2.1028,-1.08741 3.2112,-1.20151 4.0008,-0.41186 1.859,1.85896 -1.6916,4.27807 -8.5155,5.80185 -9.7021,2.16647 -35.0627,2.62397 -41.7251,0.75271 z m 52.3051,-27.45157 c -0.092,-13.76468 0.1476,-17.02503 1.25,-17.02503 1.0775,0 1.4028,2.93681 1.551,14 0.1031,7.7 0.2156,15.23134 0.25,16.7363 0.038,1.67375 -0.52,2.84843 -1.4375,3.02504 -1.2824,0.24684 -1.5165,-2.18128 -1.6135,-16.73631 z m -141.1365,11.30763 c -2.3177,-0.3276 -3.25,-0.98525 -3.25,-2.2926 0,-1.54758 0.8575,-1.84346 5.5032,-1.89895 10.8908,-0.13008 18.222,-3.8002 27.2245,-13.62907 4.9684,-5.4245 8.2723,-7.00703 8.2723,-3.96238 0,4.89396 -9.3642,14.52443 -18.441,18.96527 -5.3394,2.61233 -12.9278,3.71969 -19.309,2.81773 z m 204.1991,-22.77008 c -3.126,-4.77074 -5.6225,-17.56258 -3.4277,-17.56258 0.5618,0 1.394,1.0125 1.8494,2.25 1.854,5.03876 5.1292,15.69429 5.1292,16.68742 0,1.87472 -1.905,1.13714 -3.5509,-1.37484 z m -231.9899,-7.25068 c -1.3835,-3.12846 -2.7722,-6.71076 -3.0859,-7.96068 -1.0269,-4.09145 5.3915,-31.4698 7.7141,-32.90524 1.9876,-1.22842 1.9707,2.71929 -0.042,9.8935 -3.3467,11.92693 -3.6397,18.9351 -1.1683,27.94339 2.5302,9.22269 2.4948,8.71713 0.6107,8.71713 -0.878,0 -2.568,-2.3863 -4.0282,-5.6881 z m 176.7619,-6.5619 c 0.2133,-0.6875 2.0318,-2.06549 4.0412,-3.0622 4.3507,-2.15813 21.7377,-3.66276 21.7377,-1.88113 0,1.08268 -1.7098,1.49411 -11.2883,2.71635 -2.6335,0.33605 -6.3315,1.25584 -8.2178,2.04399 -4.2253,1.76544 -6.7869,1.84017 -6.2728,0.18299 z m -24.2211,-3.24016 c -2.475,-1.31989 -6.8625,-2.94616 -9.75,-3.61395 -7.1515,-1.6539 -6.7667,-3.3112 0.6134,-2.64199 7.8008,0.70734 15.1366,3.94955 15.1366,6.68987 0,2.56299 -0.4399,2.53117 -6,-0.43393 z m 10.2448,-5.75984 c -0.55,-0.6875 -1.2901,-2.19836 -1.6446,-3.35746 -0.5403,-1.76678 -1.6871,-2.20483 -7.0942,-2.70975 -7.1254,-0.66538 -10.9652,-2.31057 -17.109,-7.3304 -2.3042,-1.88268 -5.2376,-3.35239 -6.691,-3.35239 -2.9608,0 -4.4368,-1.6692 -2.8654,-3.24057 0.7551,-0.75508 3.8298,0.29619 10.5344,3.60174 7.2723,3.58541 11.2762,4.89728 17.2639,5.65644 4.2876,0.54362 8.3288,1.54954 8.9803,2.23539 0.6516,0.68585 1.4933,3.1595 1.8706,5.497 0.5454,3.37864 0.3855,4.25 -0.7795,4.25 -0.806,0 -1.9154,-0.5625 -2.4655,-1.25 z m 12.7552,-0.60023 c 0,-1.93189 0.5136,-2.12846 5.2741,-2.01871 4.2231,0.0974 6.7092,-0.60112 12.4753,-3.50483 7.9889,-4.02319 18.2132,-6.00429 25.6949,-4.9788 3.4239,0.46929 4.5557,1.05692 4.5557,2.36536 0,1.51961 -1.0488,1.73195 -8.25,1.67028 -7.3716,-0.0631 -9.2083,0.33104 -17.25,3.70184 -6.082,2.54936 -11.1885,3.9561 -15.75,4.33882 -6.4072,0.53758 -6.75,0.45766 -6.75,-1.57396 z m -66.9621,-13.60416 c -1.1005,-1.32599 -0.7328,-1.76362 2.5897,-3.08229 8.9438,-3.54963 8.5793,-3.24506 7.8514,-6.55907 -0.6149,-2.7993 -0.4678,-3.03972 1.6735,-2.73658 3.9416,0.558 3.7033,5.17653 -0.4831,9.36295 -1.9082,1.90816 -4.3776,3.46938 -5.4876,3.46938 -1.11,0 -2.6579,0.24548 -3.4398,0.54551 -0.7819,0.30003 -1.9987,-0.14993 -2.7041,-0.9999 z m 57.9621,-10.57061 c 0,-0.56375 1.3558,-1.29617 3.013,-1.62759 2.0888,-0.41777 3.1989,-1.34364 3.6193,-3.01856 0.6572,-2.61834 2.6753,-2.65483 3.1792,-0.0575 0.4754,2.45059 -3.4223,5.72865 -6.8115,5.72865 -1.65,0 -3,-0.46125 -3,-1.025 z m 75.8137,165.34987 c 2.4478,-1.53876 9.0967,-11.20205 10.9978,-15.9839 0.6212,-1.56253 2.0126,-7.25676 3.092,-12.65383 2.1172,-10.58613 7.8239,-24.14292 11.6928,-27.7776 l 2.3248,-2.18406 -3.7105,-2.69245 c -5.3434,-3.87723 -13.3521,-12.93856 -16.2296,-18.36271 -2.6312,-4.95992 -3.981,-5.8927 -3.981,-2.75109 0,1.05557 -1.137,7.69307 -2.5266,14.75 -2.7716,14.07511 -7.0406,24.42913 -14.6519,35.5365 l -4.3131,6.29427 -0.355,12.76603 c -0.1953,7.02132 -0.088,13.46142 0.2379,14.31133 0.4937,1.28649 1.8085,1.4328 7.8509,0.87361 3.9918,-0.36943 8.299,-1.32617 9.5715,-2.1261 z m -62.1254,-185.92568 c 6.1341,-5.02642 10.9324,-12.55232 13.8358,-21.70081 2.2375,-7.05029 2.4754,-9.45791 2.4703,-25 0,-9.45911 -0.4972,-18.99838 -1.0982,-21.19838 -1.4332,-5.24683 -5.0708,-9.95043 -10.2259,-13.22261 -3.7058,-2.35225 -5.4,-2.69531 -15.211,-3.08006 -9.8217,-0.38517 -11.6207,-0.18347 -16.2935,1.8267 -6.2807,2.70189 -11.5167,8.43725 -13.5721,14.86668 -2.0941,6.5504 -2.8854,21.99946 -1.6931,33.05621 1.4089,13.06525 4.9505,20.11596 15.2215,30.30308 l 7.8138,7.75 7.1791,0 c 6.7626,0 7.4339,-0.20885 11.5733,-3.60081 z m -108.2499,-10.51237 c 2.2124,-2.03616 1.8205,-59.2318 -0.4308,-62.8745 -0.9682,-1.56667 -19.175,-2.66419 -26.3492,-1.58835 -5.4074,0.8109 -5.2739,0.4192 -6.5854,19.31196 -0.9055,13.04337 0.055,36.38247 1.7591,42.76407 0.7501,2.80828 1.1805,3.0377 6.7346,3.58993 7.4127,0.73702 23.6153,-0.0467 24.8717,-1.20311 z m -106.906,-0.0859 c 0.2777,-0.27773 0.8767,-7.31555 1.331,-15.63962 0.9489,-17.38613 -0.3313,-47.21444 -2.0726,-48.29059 -2.1265,-1.31428 -14.7924,-2.07874 -22.7582,-1.3736 l -7.94,0.70285 -0.7963,4.65001 c -1.0429,6.08985 -1.029,47.02408 0.018,54.34148 0.7757,5.41879 0.9673,5.71356 4,6.15266 4.0366,0.58444 27.5427,0.13195 28.2178,-0.54319 z m 19.3677,-26.98766 c -0.7826,-1.46213 -0.9912,-5.4385 -0.6296,-12 0.5033,-9.13403 0.4104,-9.81326 -1.3418,-9.81326 -2.5877,0 -4.5901,3.47259 -5.7665,10 -1.7266,9.5809 0.1875,14 6.0641,14 2.6151,0 2.7499,-0.17601 1.6738,-2.18674 z m 11.5839,0.43674 c -2.7184,-6.51662 -2.7327,-6.78715 -0.7719,-14.59958 2.1798,-8.68549 1.6537,-9.86593 -3.5791,-8.03085 -3.1284,1.09708 -4.994,5.71474 -5.0766,12.56533 -0.097,8.04117 2.3813,11.54967 8.3006,11.75171 1.3886,0.0474 1.6729,-0.37796 1.127,-1.68661 z m -23.2691,-9.5 c 0.1647,-2.6125 -0.041,-4.75 -0.4577,-4.75 -0.4165,0 -0.6959,3.0375 -0.621,6.75 0.1411,6.99483 0.5605,6.21716 1.0787,-2 z m 27.9688,-1.16612 c 1.5144,-1.06074 2.7322,-1.18616 4.6046,-0.47425 2.8178,1.0713 4.1589,-0.0786 4.21,-3.60963 0.016,-1.1 0.2992,-3.00802 0.6294,-4.24004 0.6939,-2.58919 -2.3084,-4.23482 -6.3252,-3.46696 -3.8828,0.74226 -8.0748,11.85084 -6.5116,17.25549 0.6664,2.30394 0.7279,2.25666 1.0215,-0.78548 0.1802,-1.86761 1.1834,-3.84708 2.3713,-4.67913 z m 32.8163,-0.0839 c 0,-3.74737 -0.3164,-4.5 -1.8916,-4.5 -3.081,0 -3.6789,4.7054 -0.893,7.02846 1.2566,1.04775 2.3971,1.91997 2.5346,1.93827 0.1375,0.0183 0.25,-1.99173 0.25,-4.46673 z m -8.2189,0.0232 c 0.1545,-0.13856 0.5626,-2.62987 0.9069,-5.53623 0.5254,-4.437 0.3295,-5.50098 -1.2222,-6.63562 -2.3649,-1.72921 -7.893,-1.74637 -9.3184,-0.0289 -1.3901,1.67499 -4.0752,11.89924 -3.4174,13.01283 0.4126,0.69853 12.1829,-0.0338 13.0511,-0.81206 z"
       id="path3401"
       inkscape:connector-curvature="0" />
  </g>
</svg>
