<?xml version="1.0" encoding="UTF-8" standalone="no"?>
<!-- Created with Inkscape (http://www.inkscape.org/) -->

<svg
   xmlns:dc="http://purl.org/dc/elements/1.1/"
   xmlns:cc="http://creativecommons.org/ns#"
   xmlns:rdf="http://www.w3.org/1999/02/22-rdf-syntax-ns#"
   xmlns:svg="http://www.w3.org/2000/svg"
   xmlns="http://www.w3.org/2000/svg"
   xmlns:xlink="http://www.w3.org/1999/xlink"
   xmlns:sodipodi="http://sodipodi.sourceforge.net/DTD/sodipodi-0.dtd"
   xmlns:inkscape="http://www.inkscape.org/namespaces/inkscape"
   width="117.04163"
   height="188.3631"
   id="svg2"
   version="1.1"
   inkscape:version="0.48.3.1 r9886"
   sodipodi:docname="Narrow-grip-bench-press-2.svg">
  <defs
     id="defs4">
    <radialGradient
       gradientUnits="userSpaceOnUse"
       gradientTransform="matrix(1,0,0,0.91819829,-19.285714,-7.9105395)"
       r="209.56604"
       fy="287.50052"
       fx="398.1105"
       cy="287.50052"
       cx="398.1105"
       id="radialGradient5255"
       xlink:href="#linearGradient5249"
       inkscape:collect="always" />
    <linearGradient
       id="linearGradient5249"
       inkscape:collect="always">
      <stop
         id="stop5251"
         offset="0"
         style="stop-color:#e3e3e3;stop-opacity:1;" />
      <stop
         id="stop5253"
         offset="1"
         style="stop-color:#e3e3e3;stop-opacity:0;" />
    </linearGradient>
  </defs>
  <sodipodi:namedview
     id="base"
     pagecolor="#ffffff"
     bordercolor="#666666"
     borderopacity="1.0"
     inkscape:pageopacity="0.0"
     inkscape:pageshadow="2"
     inkscape:zoom="2.8"
     inkscape:cx="-38.906685"
     inkscape:cy="85.138027"
     inkscape:document-units="px"
     inkscape:current-layer="layer1"
     showgrid="false"
     showguides="true"
     inkscape:guide-bbox="true"
     fit-margin-top="0"
     fit-margin-left="0"
     fit-margin-right="0"
     fit-margin-bottom="0"
     inkscape:window-width="1201"
     inkscape:window-height="886"
     inkscape:window-x="167"
     inkscape:window-y="73"
     inkscape:window-maximized="0">
    <sodipodi:guide
       orientation="-0.70710678,0.70710678"
       position="-1464.5243,51.705208"
       id="guide2985" />
  </sodipodi:namedview>
  <metadata
     id="metadata7">
    <rdf:RDF>
      <cc:Work
         rdf:about="">
        <dc:format>image/svg+xml</dc:format>
        <dc:type
           rdf:resource="http://purl.org/dc/dcmitype/StillImage" />
        <dc:title></dc:title>
      </cc:Work>
    </rdf:RDF>
  </metadata>
  <g
     inkscape:label="Ebene 1"
     inkscape:groupmode="layer"
     id="layer1"
     transform="translate(-35.952717,110.00999)">
    <path
       style="fill:#000000"
       d="m 43.53297,77.725519 c -3.46782,-0.70956 -4.38315,-1.44186 -5.83981,-4.67216 -2.19137,-4.8596 -1.76153,-9.81822 1.16446,-13.43308 1.25858,-1.55489 2.58438,-4.02989 2.94622,-5.5 0.36184,-1.47011 1.21498,-3.57293 1.89587,-4.67293 0.95221,-1.53833 0.99713,-4.0775 0.19461,-11 -0.57385,-4.95 -1.16935,-18.675 -1.32334,-30.5000004 -0.27548,-21.1539496 0.18716,-25.4224196 3.14315,-28.9999996 1.5043,-1.82063 0.38291,-10.25896 -1.96729,-14.80376 -1.15437,-2.23232 -1.58749,-6.52813 -1.6985,-16.84632 -0.18291,-17.00171 -0.18995,-16.90523 1.35337,-18.52849 0.691,-0.72679 3.69356,-5.06565 6.67236,-9.64192 4.29427,-6.59721 6.36409,-8.80318 9.99365,-10.65102 2.5177,-1.28178 5.70264,-3.53872 7.07764,-5.01541 4.04779,-4.347149 12.3566,-7.798589 17.3008,-7.186669 7.17171,0.88762 15.87715,2.69846 17.72385,3.68678 1.85985,0.995359 3.3497,-0.17301 5.43631,-4.26327 1.38305,-2.71111 7.27356,-5.76048 11.02344,-5.70655 3.77066,0.0542 10.23032,3.69393 12.8985,7.26766 2.54707,3.411529 3.33101,13.429039 1.54203,19.704839 -0.70303,2.46627 -1.17499,4.89289 -1.0488,5.39249 0.12619,0.4996 -0.15349,1.1746 -0.62152,1.5 -0.46803,0.3254 -1.87969,2.06433 -3.137,3.86428 -2.28669,3.27357 -8.6422,7.22736 -11.61761,7.22736 -1.92662,0 -9.12667,-3.58692 -9.98375,-4.9737 -1.01051,-1.63505 -3.51625,-11.93424 -3.51625,-14.45264 0,-1.28083 0.675,-2.88897 1.5,-3.57366 1.30659,-1.08437 1.50048,-0.42323 1.50374,5.12756 0.006,10.29515 4.74661,15.89226 12.26554,14.4817 5.08703,-0.95433 10.06451,-7.74785 12.62061,-17.22528 1.55473,-5.76458 1.39431,-8.55516 -0.78397,-13.63687 -2.33676,-5.451459 -7.3256,-8.249239 -13.28438,-7.449999 -5.13565,0.68884 -6.51769,1.97699 -10.04608,9.363609 -2.90665,6.08502 -6.23924,10.20884 -7.35135,9.09672 -0.31,-0.31 0.39915,-2.45084 1.57589,-4.75744 1.17674,-2.3066 1.93689,-4.39644 1.68923,-4.6441 -0.24766,-0.24766 -4.53646,-1.27001 -9.53068,-2.27189 -12.74896,-2.557549 -15.79786,-1.866039 -24.81804,5.62892 -2.83772,2.35789 -5.49525,4.28707 -5.90561,4.28707 -1.7776,0 -7.5842,5.38857 -8.95431,8.30967 -1.63313,3.48186 -5.54537,9.27804 -7.93761,11.75994 -1.25605,1.30313 -1.42852,3.96152 -1.0159,15.6584 0.30634,8.68386 1.06783,15.7067 1.98496,18.30612 0.81838,2.31953 1.50227,5.62325 1.51976,7.3416 0.0175,1.71835 0.64753,3.93628 1.40008,4.92874 1.19709,1.57873 1.06801,2.10473 -1.03181,4.20455 -2.52231,2.52231 -2.68075,3.46833 -2.84556,16.9909796 -0.0536,4.4 -0.48711,11.23188 -0.96328,15.1819504 -0.67104,5.56652 -0.47096,9.21467 0.88954,16.21904 0.96542,4.9704 1.5577,10.38353 1.31617,12.02918 -0.28054,1.91143 0.0231,3.09642 0.84079,3.28096 1.02014,0.23024 0.99435,0.89779 -0.12707,3.28887 -9.62467,20.52151 -9.5592,20.26801 -6.52162,25.25 1.70593,2.79793 2.54,3.25 5.99626,3.25 4.59915,0 7.63736,-2.39086 8.54531,-6.72456 0.31981,-1.52649 1.45626,-4.69998 2.52543,-7.05219 2.25642,-4.96417 2.38273,-6.5431 0.76313,-9.53899 -1.82495,-3.37574 -1.63885,-12.1624 0.49996,-23.60563 1.8596,-9.94936 1.87225,-10.77304 0.27926,-18.18611 -1.61464,-7.5138104 -1.40984,-12.0125204 0.66685,-14.6484304 0.70671,-0.89702 0.2463,-1.84047 -1.61116,-3.30155 -2.66544,-2.09664 -8.13162,-11.7983296 -7.18233,-12.7476196 0.29054,-0.29054 0.6571,-0.34075 0.81458,-0.11159 0.15748,0.22917 1.96207,3.00417 4.01021,6.16667 2.04814,3.1625 4.07958,5.7499996 4.51431,5.7499996 2.52487,0 6.15545,-2.7118496 6.02453,-4.4999996 -0.64354,-8.7898 1.38569,-14.16899 2.70073,-7.15923 0.79566,4.24128 -1.04468,11.1964596 -3.4061,12.8726196 -4.5178,3.20678 -5.59782,9.64001 -3.17051,18.8854504 l 1.88971,7.19776 -2.47773,8.55012 c -1.92455,6.64124 -2.36726,10.01282 -1.98295,15.1017 0.27213,3.60337 0.55546,6.55158 0.62963,6.55158 0.0742,0 0.29931,0.9 0.5003,2 0.20099,1.1 0.62445,3.39586 0.94102,5.1019 0.34873,1.87938 -0.0201,4.24411 -0.93579,6 -0.83125,1.59396 -1.51414,3.82089 -1.51753,4.94874 -0.0225,7.47855 -7.51567,12.09008 -16.61855,10.22753 z m 96.69964,-2.79714 c -1.877,-1.04729 -4.802,-3.2306 -6.5,-4.85178 -1.69799,-1.62119 -4.66225,-3.63905 -6.58725,-4.48414 -7.58253,-3.32879 -10.8555,-9.15792 -7.68424,-13.68553 2.30522,-3.29116 0.38827,-6.53169 -4.93731,-8.3463 -2.56501,-0.87398 -4.57905,-1.09772 -4.9197,-0.54653 -0.82165,1.32944 -6.52179,1.12775 -9.36854,-0.33149 -1.32538,-0.67939 -3.25805,-2.87661 -4.29482,-4.88272 -1.85678,-3.59278 -1.85441,-3.73517 0.15841,-9.5 3.62526,-10.38296 11.70031,-14.4257 17.40984,-8.71618 1.45,1.45 2.62205,3.5875 2.60456,4.75 -0.0312,2.07356 -0.0596,2.07683 -1.5,0.17251 -0.80751,-1.06762 -1.4682,-2.2611 -1.4682,-2.65217 0,-1.38523 -6.05926,-2.8347 -8.28742,-1.98249 -4.85048,1.8552 -6.66987,5.36302 -7.03501,13.56368 -0.16112,3.61852 0.15217,4.16557 3.38242,5.9061 5.14627,2.77293 8.94001,1.65891 8.94001,-2.62519 0,-2.38264 1.02161,-4.23405 4.02501,-7.29428 4.83982,-4.93142 5.96626,-10.78481 3.72222,-19.34209 -0.93689,-3.5726604 -1.16257,-7.0838504 -0.67489,-10.50000043 0.40297,-2.82283997 0.98815,-7.56077997 1.30039,-10.52875957 l 0.5677,-5.39634 -2.54079,2.38696 c -1.69796,1.59514 -2.39753,3.13644 -2.10889,4.6463296 0.7552,3.9506 -5.24183,2.8227 -13.79075,-2.5937096 -0.55,-0.34847 -2.89435,-1.1249 -5.20967,-1.72541 -3.74996,-0.97261 -5.32259,-0.73139 -14.40112,2.20895 -5.6053,1.8154296 -10.58079,3.0601596 -11.05665,2.7660696 -1.1498,-0.71062 0.002,-2.4886096 1.49285,-2.3045596 2.80389,0.34614 3.67459,-0.23901 3.67459,-2.46952 0,-1.30765 -0.675,-2.93775 -1.5,-3.62244 -0.825,-0.68469 -1.5,-1.91989 -1.5,-2.74489 0,-2.19603 2.48287,0.0822 3.9502,3.62465 l 1.16537,2.81346 5.59744,-1.84661 c 3.07859,-1.01564 6.76509,-1.8441 8.19222,-1.84103 4.29565,0.009 10.40028,2.04408 13.77805,4.59262 1.7508,1.32099 3.40616,2.4018 3.67858,2.4018 0.27242,0 2.6168,-2.03268 5.20974,-4.51707 l 4.71442,-4.51707 -0.61614,-6.59809 c -0.77977,-8.35039 -1.60549,-9.40875 -6.4494,-8.26649 -2.04626,0.48254 -8.89548,0.6056 -15.22048,0.27346 -12.09383,-0.63507 -15.16017,-1.67571 -23.7487,-8.05972 l -3.2487,-2.41482 -1.15306,2.53068 c -0.63418,1.39187 -1.92542,2.77581 -2.86941,3.07543 -0.944,0.29961 -2.46481,1.37178 -3.37959,2.38259 -1.58149,1.74753 -1.41596,1.94421 3.36812,4.00227 3.33488,1.43463 5.03134,2.76197 5.03134,3.93663 0,0.97471 0.48921,2.26141 1.08713,2.85933 0.78284,0.78285 0.7756,1.27967 -0.0259,1.77501 -0.66928,0.41364 -1.54496,-0.55124 -2.19649,-2.42022 -0.87129,-2.49939 -1.93011,-3.33453 -5.40638,-4.26429 -3.81256,-1.01971 -4.6422,-1.7873 -7.02768,-6.50213 l -2.7048,-5.34593 1.57235,-7.71478 c 3.02123,-14.8238 3.04233,-15.28793 0.76763,-16.88119 -2.70316,-1.89337 -2.74495,-3.76739 -0.0519,-2.3261 4.29907,2.30079 14.62373,-2.26387 20.23599,-8.94658 2.0932,-2.49245 2.17513,-3.06092 0.44113,-3.06092 -1.82831,0 -5.32811,-2.69636 -4.53249,-3.49198 0.36052,-0.36052 2.05339,0.0674 3.76191,0.9509 2.31082,1.19497 4.42222,1.43184 8.24396,0.92487 3.4415,-0.45653 4.92667,-0.34034 4.49881,0.35196 -0.3513,0.56841 -2.7105,1.34416 -5.24267,1.72388 -2.53217,0.37972 -4.34161,0.95274 -4.02098,1.27338 0.32064,0.32063 0.0842,1.18394 -0.52538,1.91846 -2.19831,2.6488 4.98915,14.2209 10.16394,16.36437 3.92524,1.62588 3.8451,3.41083 -0.11755,2.6183 -3.42288,-0.68458 -11.81553,-9.03777 -11.88098,-11.82512 -0.0218,-0.93004 -0.46712,-1.95515 -0.98953,-2.27801 -1.5528,-0.95969 -3.08653,3.0745 -2.91852,7.67665 0.0862,2.36079 -0.19188,7.90103 -0.61791,12.31165 -0.61117,6.32742 -0.48336,8.25647 0.60583,9.14344 1.43315,1.16705 8.68465,5.33725 9.28089,5.33725 0.18679,0 0.90658,-2.025 1.59954,-4.5 0.69296,-2.475 1.54159,-4.5 1.88585,-4.5 0.34426,0 1.22462,-1.35255 1.95636,-3.00567 0.73174,-1.65311 1.76344,-2.73805 2.29267,-2.41097 0.61347,0.37914 0.61514,1.0155 0.005,1.75567 -0.80163,0.9719 -5.13948,12.77355 -5.13948,13.98267 0,0.71789 22.66401,1.74446 24.3373,1.10236 0.91448,-0.35092 1.6627,-1.39989 1.6627,-2.33105 0,-0.93115 0.54,-2.23301 1.2,-2.89301 0.93333,-0.93333 0.36179,-1.2 -2.57193,-1.2 -4.25697,0 -12.07332,-4.09492 -13.73192,-7.19405 -1.51108,-2.82348 -0.0785,-3.67976 1.92224,-1.14897 2.46135,3.11341 7.25854,5.21706 13.59548,5.96184 5.83464,0.68575 6.58539,1.30698 4.08613,3.38118 -1.88312,1.56285 -1.90569,2.63035 -0.0705,3.33457 0.92992,0.35684 2.11023,-0.75747 3.37735,-3.18848 l 1.94785,-3.73703 -2.87735,-3.22031 c -2.89263,-3.23741 -3.90041,-8.43843 -1.87735,-9.68875 0.55,-0.33992 1,0.33811 1,1.50672 0,3.35287 1.7992,6.17103 6.81475,10.67425 4.76809,4.28105 5.52603,6.94813 0.95209,3.35027 l -2.53848,-1.99677 -1.22252,2.95143 c -2.35226,5.67886 1.28174,30.0141 4.48203,30.0141 1.2397,0 2.8996,-5.04346 3.00446,-9.12879 0.0658,-2.5624 0.91091,-5.83768 1.89314,-7.33676 2.23976,-3.41831 2.81433,-2.89075 1.65737,1.52178 -0.49663,1.89407 -1.10453,5.0909 -1.3509,7.10407 -0.60457,4.94017 -4.72351,13.8396996 -6.40538,13.8396996 -1.01825,0 -1.10577,-0.4693 -0.35063,-1.88029 0.76391,-1.42738 0.55441,-2.40133 -0.86975,-4.0433996 -1.87407,-2.16082 -1.87673,-2.15699 -2.52061,3.6302896 -0.84073,7.55653997 -0.84364,14.6368 -0.008,20.5993904 1.11837,7.98435 -0.15222,12.97517 -4.58553,18.01166 -4.56507,5.1862 -4.95074,7.79766 -1.48677,10.06734 3.00803,1.97094 3.53518,2.00664 3.53518,0.23944 0,-3.21272 5.08127,-12.54611 7.93764,-14.58002 1.78706,-1.27251 3.0732,-3.08924 3.0884,-4.3625 0.0143,-1.20005 1.12039,-5.4833 2.45792,-9.51834 3.75931,-11.3409404 5.06291,-22.2155104 3.46272,-28.88583 -1.18721,-4.94887 -1.15089,-5.58396 0.36804,-6.43399 1.35764,-0.75977 1.68528,-2.4726 1.68528,-8.81011 0,-5.0827 -0.41087,-8.00393 -1.16091,-8.25394 -0.84027,-0.28009 -0.70218,-1.73328 0.5,-5.26148 2.29419,-6.73309 2.11139,-12.28865 -0.54354,-16.51822 -2.97142,-4.73378 -6.01595,-13.24013 -4.56581,-12.75675 0.62006,0.20668 1.41759,1.02401 1.7723,1.81627 0.35471,0.79226 2.06964,4.21262 3.81096,7.60079 l 3.16603,6.16031 -0.18248,16.33969 -0.18249,16.33969 5.67903,5.86976 c 7.55479,7.8085 9.41688,13.8873096 5.70691,18.6302396 -1.07554,1.37499997 -1.96553,3.45592 -1.97776,4.62427 -0.0122,1.16835 -0.69724,4.03743 -1.52224,6.37573 -0.825,2.3383004 -1.5,5.6051704 -1.5,7.2597104 0,3.95932 -2.06246,10.74029 -3.2667,10.74029 -0.54287,0 -0.64416,-1.17872 -0.23631,-2.75 0.3926,-1.5125 1.11452,-5.45 1.60427,-8.75 1.56454,-10.5420704 2.49375,-15.0357004 3.4186,-16.53213043 0.49594,-0.80244 1.21039,-3.71098997 1.58768,-6.46342997 0.60287,-4.3981196 0.40217,-5.3073296 -1.6565,-7.5044396 -1.28836,-1.375 -3.7169,-4.02924 -5.39676,-5.89831 l -3.05473,-3.39832 0,10.43039 c 0,6.5034196 -0.5923,12.48901957 -1.57321,15.8983096 -4.06085,14.1140704 -5.51381,20.4392504 -4.75412,20.6961204 2.98444,1.00913 7.65532,4.74899 9.3829,7.51267 1.50832,2.4129 1.8902,4.24628 1.47076,7.06096 -0.54337,3.64638 -5.02157,11.69818 -6.50621,11.69818 -0.39275,0 -1.75181,0.9 -3.02012,2 -2.90943,2.52333 -5.6244,2.52639 -9.75,0.011 -3.16775,-1.93142 -3.25,-1.93339 -3.25,-0.0781 0,1.04693 -0.2666,2.59826 -0.59244,3.44738 -0.7568,1.9722 3.59296,6.06694 9.78624,9.21248 2.58159,1.31118 5.07469,3.06458 5.54023,3.89645 1.22339,2.18607 7.98216,5.39776 10.16045,4.82812 1.02175,-0.26719 2.43717,-1.56853 3.1454,-2.89185 1.08185,-2.02146 1.04137,-2.68734 -0.25325,-4.16577 -3.71432,-4.24169 -10.75568,-15.50079 -10.22802,-16.35456 0.93698,-1.51606 2.31735,-0.0834 4.97725,5.16561 1.37381,2.71108 2.90011,4.92923 3.39178,4.92923 0.49167,0 1.87121,2.01876 3.06565,4.48614 4.61993,9.54349 -0.97937,15.47562 -9.90604,10.49489 z m -4.75742,-27.92436 c 6.61426,-7.32118 6.8927,-16.73764 0.56022,-18.94516 -5.35658,-1.86731 -11.16643,1.73978 -14.41865,8.95192 -3.20097,7.09848 0.33439,13.47215 7.66224,13.81379 1.88651,0.088 3.64428,-0.99589 6.19619,-3.82055 z m -8.32983,-5.10633 c 0,-4.08599 2.25652,-8.21448 5.41318,-9.90388 2.47809,-1.32623 5.07948,-0.67805 3.04177,0.75791 -2.66028,1.87469 -6.45495,7.61956 -6.45495,9.77236 0,1.3328 -0.45,2.42327 -1,2.42327 -0.55,0 -1,-1.37235 -1,-3.04966 z m -63.1608,-82.95034 c 0.66567,0 1.63803,-1.125 2.1608,-2.5 0.52277,-1.375 1.62251,-2.5 2.44386,-2.5 0.91375,0 1.27092,-0.57971 0.92023,-1.49359 -0.31523,-0.82147 -0.001,-5.33675 0.69744,-10.03394 1.58976,-10.68561 1.01067,-11.57056 -5.75826,-8.79969 l -4.80327,1.96622 -0.67574,5.9305 c -0.37166,3.26178 -0.95798,8.39249 -1.30292,11.40159 -0.34495,3.00909 -0.3555,6.55355 -0.0234,7.87657 l 0.60374,2.40548 2.26363,-2.12657 c 1.245,-1.16961 2.80827,-2.12657 3.47393,-2.12657 z m 70.82747,102.33333 c -0.36667,-0.36666 -0.66667,-1.13166 -0.66667,-1.7 0,-0.6266 0.46577,-0.56756 1.18333,0.15 0.65084,0.65084 0.95084,1.41584 0.66667,1.7 -0.28417,0.28417 -0.81667,0.21667 -1.18333,-0.15 z m -61.66667,-8.26956 c -4.72437,-0.95328 -9.61543,-3.6192 -10.40236,-5.66991 -1.04008,-2.7104 0.0319,-2.78959 5.1139,-0.37774 3.93533,1.86765 7.19366,2.38602 18.28846,2.90956 l 13.5,0.63703 -5.4315,1.71864 c -5.49089,1.73744 -14.64985,2.07758 -21.0685,0.78242 z m 27.61313,-3.0769 c 0.95588,-0.95588 13.20437,-3.93199 16.33687,-3.96951 1.09035,-0.013 1.16557,0.26707 0.30329,1.12935 -0.6307,0.6307 -4.2082,1.73916 -7.95,2.46325 -8.49273,1.64346 -10.02308,1.70983 -8.69016,0.37691 z m -46.57821,-4.92162 c -0.62887,-1.17506 -1.6738,-1.75732 -2.55017,-1.42102 -0.90633,0.34779 -1.48475,-0.0146 -1.48475,-0.93025 0,-1.23968 1.93176,-2.71398 3.55611,-2.71398 1.04235,0 3.33247,5.95083 2.4904,6.47126 -0.52039,0.32161 -1.42561,-0.31109 -2.01159,-1.40601 z m 48.96508,-12.87816 c 0,-4.03857 0.48098,-5.27372 2.98957,-7.6771 3.85088,-3.68937 4.70126,-2.83492 1.49871,1.5059 -1.62435,2.20168 -2.48828,4.69402 -2.48828,7.17839 0,2.09315 -0.45,3.80572 -1,3.80572 -0.55,0 -1,-2.16581 -1,-4.81291 z m -54.23634,-4.18709 c -1.1171,-3.79271 -0.90615,-21.4950304 0.29376,-24.6510204 0.81968,-2.15594 1.25449,-2.46233003 1.93401,-1.36284 0.48213,0.7801 0.59523,1.87364 0.25133,2.43009 -0.34391,0.55644 -0.87671,6.6529304 -1.18402,13.5477404 -0.34784,7.8042 -0.83668,11.59238 -1.29508,10.03603 z m 87.26697,-12.5 c 0,-1.1 0.43621,-2.675 0.96937,-3.5 0.80271,-1.2421 0.96937,-1.15614 0.96937,0.5 0,1.1 -0.43621,2.675 -0.96937,3.5 -0.80271,1.2421 -0.96937,1.15614 -0.96937,-0.5 z m 5.28214,-13.8317904 c 0.37798,-1.00748003 0.68723,-2.91998 0.68723,-4.25 0,-1.33001 0.45,-2.41821 1,-2.41821 1.66502,0 1.11949,5.65791997 -0.68723,7.12756 -1.48525,1.20814 -1.60496,1.15316 -1,-0.45935 z M 52.89536,-0.63551143 c -1.13784,-1.13854997 -0.89641,-7.20861997 0.31653,-7.95825997 1.77868,-1.09928 2.12743,0.15581 1.26012,4.53491 -0.45466,2.2956 -1.16415,3.83610997 -1.57665,3.42334997 z m 2.75,-20.41713957 c -0.33992,-0.55 0.25342,-1 1.31854,-1 1.06511,0 2.49677,-0.675 3.18146,-1.5 1.21108,-1.45927 4,-2.09395 4,-0.91029 0,0.32434 -1.0125,1.43437 -2.25,2.46673 -2.47952,2.06849 -5.29231,2.49314 -6.25,0.94356 z m 27.52896,-2.96094 c -0.80907,-0.51167 -1.13586,-1.2655 -0.72619,-1.67516 0.40967,-0.40967 1.50556,0.0159 2.43532,0.94562 1.80739,1.80739 0.72544,2.26921 -1.70913,0.72954 z m 16.97104,-2.4021 c 0,-1.12572 7.92075,-4.63696 10.46016,-4.63696 3.92071,0 3.00837,1.42182 -1.71016,2.66518 -2.3375,0.61595 -5.2625,1.44574 -6.5,1.84399 -1.2375,0.39825 -2.25,0.45575 -2.25,0.12779 z m -12.96665,-3.13878 c -3.22628,-1.02214 -4.65793,-1.10562 -5.15546,-0.30061 -0.45491,0.73606 -2.14606,0.0428 -4.98035,-2.04153 -5.0022,-3.67866 -3.96978,-3.87604 6.17009,-1.17958 4.0878,1.08706 8.86831,1.98706 10.62335,2 2.96736,0.0219 6.00579,2.00707 3.11804,2.03719 -0.71996,0.008 -2.20902,0.21301 -3.30902,0.45665 -1.1,0.24365 -4.00999,-0.19381 -6.46665,-0.97212 z m -38.03335,-0.25763 c 0,-1.15776 4.10507,-3.46882 4.84581,-2.72808 0.35807,0.35808 -0.22176,1.28926 -1.28851,2.06929 -2.1396,1.56451 -3.5573,1.82706 -3.5573,0.65879 z m 26,-19.61344 c 0,-3.64448 8.17308,-8.87424 11.07033,-7.08364 0.60184,0.37196 -1.18196,1.75903 -3.99105,3.10341 -2.7936,1.33697 -5.07928,3.06181 -5.07928,3.83297 0,0.77116 -0.45,1.68023 -1,2.02015 -0.56444,0.34884 -1,-0.46692 -1,-1.87289 z m 48.17431,-5.94156 c -2.23348,-2.37743 -2.86465,-4.68555 -1.2813,-4.68555 0.49116,0 1.15807,0.69074 1.48204,1.53497 0.52954,1.37996 0.88878,1.37996 3.55732,0 1.63257,-0.84423 3.77816,-1.51254 4.76797,-1.48513 1.00107,0.0277 -0.0959,0.96902 -2.47215,2.12126 -3.42789,1.66219 -4.04576,2.34379 -3.12756,3.45016 1.94095,2.33869 -0.61924,1.52006 -2.92632,-0.93571 z m -28.66612,-1.93555 c 0.89057,-3.11648 6.25854,-7.59706 10.69649,-8.92821 3.13197,-0.93943 4.13364,-0.83014 6.47957,0.70698 2.99434,1.96196 1.69601,3.28029 -1.53014,1.55371 -3.6338,-1.94476 -14.15411,3.70752 -14.15411,7.60461 0,0.7221 -0.48032,1.31291 -1.06739,1.31291 -0.63076,0 -0.80437,-0.92039 -0.42442,-2.25 z m 23.49181,-5.75 c 0,-0.55 0.45,-1 1,-1 0.55,0 1,0.45 1,1 0,0.55 -0.45,1 -1,1 -0.55,0 -1,-0.45 -1,-1 z m -17.33333,-4.66667 c -0.36667,-0.36666 -0.66667,-1.70756 -0.66667,-2.97976 0,-3.30051 -2.89678,-10.09998 -4.5777,-10.74501 -0.78227,-0.30019 -1.4223,-1.02575 -1.4223,-1.61236 0,-0.75484 0.58152,-0.75535 1.98965,-0.002 2.77872,1.48713 5.21692,6.62109 5.5598,11.70693 0.30053,4.45783 0.23064,4.74537 -0.88278,3.63194 z m -9.68033,-19.08333 c -0.007,-0.9625 -0.28499,-2.7625 -0.61663,-4 -0.33163,-1.2375 -0.17272,-2.25 0.35314,-2.25 1.39653,0 3.3207,4.72295 2.64332,6.48815 -0.793,2.06654 -2.36307,1.90942 -2.37983,-0.23815 z"
       id="path3612"
       inkscape:connector-curvature="0" />
  </g>
</svg>
