<?xml version="1.0" encoding="UTF-8" standalone="no"?>
<!-- Created with Inkscape (http://www.inkscape.org/) -->

<svg
   xmlns:dc="http://purl.org/dc/elements/1.1/"
   xmlns:cc="http://creativecommons.org/ns#"
   xmlns:rdf="http://www.w3.org/1999/02/22-rdf-syntax-ns#"
   xmlns:svg="http://www.w3.org/2000/svg"
   xmlns="http://www.w3.org/2000/svg"
   xmlns:sodipodi="http://sodipodi.sourceforge.net/DTD/sodipodi-0.dtd"
   xmlns:inkscape="http://www.inkscape.org/namespaces/inkscape"
   width="900.08936"
   height="451.96805"
   id="svg2"
   version="1.1"
   inkscape:version="0.48.3.1 r9886"
   sodipodi:docname="One-arm-flat-bench-flys-2.svg">
  <defs
     id="defs4" />
  <sodipodi:namedview
     id="base"
     pagecolor="#ffffff"
     bordercolor="#666666"
     borderopacity="1.0"
     inkscape:pageopacity="0.0"
     inkscape:pageshadow="2"
     inkscape:zoom="0.7"
     inkscape:cx="536.53998"
     inkscape:cy="193.56434"
     inkscape:document-units="px"
     inkscape:current-layer="layer1"
     showgrid="false"
     fit-margin-top="0"
     fit-margin-left="0"
     fit-margin-right="0"
     fit-margin-bottom="0"
     inkscape:window-width="1855"
     inkscape:window-height="1056"
     inkscape:window-x="65"
     inkscape:window-y="24"
     inkscape:window-maximized="1" />
  <metadata
     id="metadata7">
    <rdf:RDF>
      <cc:Work
         rdf:about="">
        <dc:format>image/svg+xml</dc:format>
        <dc:type
           rdf:resource="http://purl.org/dc/dcmitype/StillImage" />
        <dc:title></dc:title>
      </cc:Work>
    </rdf:RDF>
  </metadata>
  <g
     inkscape:label="Ebene 1"
     inkscape:groupmode="layer"
     id="layer1"
     transform="translate(-165.16897,-760.74644)">
    <path
       style="fill:#000000"
       d=""
       id="path3414"
       inkscape:connector-curvature="0" />
    <path
       style="fill:#000000"
       d=""
       id="path3412"
       inkscape:connector-curvature="0" />
    <path
       style="fill:#000000"
       d="m 198.7673,1208.7305 c -3.79592,-2.1912 -7.41328,-3.9841 -8.03856,-3.9841 -0.62529,0 -2.90218,-0.9 -5.05977,-2 -2.15759,-1.1 -4.39024,-2.0007 -4.96144,-2.0016 -0.57121,-9e-4 -2.73152,-1.8009 -4.80069,-4 -2.06916,-2.1991 -4.399,-3.9984 -5.17741,-3.9984 -2.46024,0 -5.56046,-5.0179 -5.56046,-9 0,-5.3917 2.82771,-8.3023 13.30987,-13.6999 7.91447,-4.0755 11.13344,-6.6183 23.19013,-18.319 7.7,-7.4727 16.93841,-15.8853 20.5298,-18.6948 9.20429,-7.2002 14.71068,-13.4091 21.0951,-23.7863 9.57622,-15.5651 14.49417,-25.4763 21.33656,-43 13.69521,-35.0739 20.34888,-48.3417 34.69055,-69.17496 2.96272,-4.30375 5.93914,-9.67256 6.61428,-11.9307 1.5019,-5.02341 7.99013,-12.58864 13.58261,-15.83722 5.66574,-3.29114 14.60644,-4.73808 22.3569,-3.61818 7.13878,1.03151 17.21629,5.99137 20.78103,10.22781 1.84081,2.18768 3.25326,2.83829 6.19861,2.85525 9.00087,0.0518 19.15723,7.88752 24.90766,19.21642 1.88119,3.70608 6.24181,9.78108 9.69028,13.49998 18.04073,19.4555 19.37472,21.5049 28.8102,44.2616 3.56471,8.5975 5.26312,11.5771 6.7292,11.8054 3.36254,0.5237 14.38529,-2.8208 21.17722,-6.4254 9.16676,-4.8651 18.37099,-12.5093 21.15474,-17.5694 2.81578,-5.1182 9.25647,-9.7032 18.04584,-12.8463 5.8676,-2.0982 8.21711,-2.2736 34.27485,-2.5575 31.81035,-0.3467 32.56569,-0.2147 51.70854,9.0373 5.12382,2.4764 11.11603,4.7678 13.31603,5.092 3.66279,0.5398 4.22249,0.3053 6.63918,-2.781 1.45154,-1.8537 3.15878,-5.8733 3.79385,-8.9324 1.27845,-6.1583 6.46872,-17.6292 10.91171,-24.1157 6.30386,-9.20333 7.46734,-12.56879 6.62234,-19.15565 -1.13853,-8.87492 -0.86659,-11.84788 1.5098,-16.50599 2.06241,-4.04266 2.07801,-4.33472 0.45814,-8.5763 -1.28865,-3.37428 -1.57115,-6.54214 -1.21997,-13.68007 0.40191,-8.16887 1.09344,-10.9771 5.73486,-23.28895 9.37588,-24.87045 13.03758,-35.92755 13.0439,-39.38817 0.005,-2.56784 -0.96227,-4.43882 -3.99381,-7.72766 -3.7648,-4.08433 -4.00241,-4.70829 -4.04101,-10.61183 -0.0383,-5.86483 -0.29505,-6.55324 -3.95117,-10.59592 l -3.91015,-4.32357 -73.79883,14.64041 c -40.58936,8.05222 -75.87367,15.08418 -78.40958,15.62657 l -4.61074,0.98617 -0.53594,7.81921 c -0.9792,14.28628 -5.38499,20.07479 -15.27944,20.07479 -5.32681,0 -11.82578,-3.95815 -14.81913,-9.0255 -0.9664,-1.63597 -2.12216,-2.9745 -2.56837,-2.9745 -0.4462,0 -27.08326,5.60311 -59.19346,12.45137 l -58.38218,12.45136 -3.78904,-2.49139 c -8.0081,-5.26553 -10.00925,-14.41428 -5.24197,-23.965 l 2.46899,-4.94634 57.28101,-10.33924 c 31.50455,-5.68657 58.29351,-10.57286 59.53101,-10.8584 1.6324,-0.37667 2.25153,-1.24427 2.25558,-3.16077 0.0102,-4.83484 1.94785,-9.72279 5.02161,-12.66764 2.63678,-2.52619 3.93043,-2.95489 9.75633,-3.23313 8.51518,-0.40666 10.82958,0.81315 14.75224,7.77524 1.73901,3.08645 3.71815,5.39771 4.52703,5.28669 2.10774,-0.28928 151.03604,-29.33833 153.68721,-29.97729 1.5849,-0.38198 2.25,-1.2775 2.25,-3.0295 0,-5.48036 8.44743,-12.16367 17.52745,-13.86709 2.78985,-0.52338 3.96179,-1.46754 5.45525,-4.39497 2.47198,-4.84546 6.43239,-7.36723 11.57017,-7.36723 4.74178,0 8.85419,2.20722 19.61107,10.5257 l 7.36098,5.69238 78.98754,-15.4287 c 43.44315,-8.48578 80.00004,-15.66842 81.23754,-15.96143 2.07497,-0.49128 2.25115,-1.09523 2.26474,-7.76367 0.008,-3.97702 0.57162,-8.33132 1.25224,-9.67621 1.82294,-3.60205 7.30942,-6.40782 12.63387,-6.46091 7.60776,-0.0759 9.76403,0.9677 12.74078,6.1661 1.49287,2.60704 2.78275,4.8511 2.86641,4.98681 0.0837,0.13571 20.23106,-4.02679 44.772,-9.25 24.54094,-5.22321 45.52346,-9.49674 46.62782,-9.49674 1.10436,0 3.82687,1.73032 6.05003,3.84516 3.67264,3.4937 4.04211,4.30283 4.04211,8.85212 0,5.61277 -3.15777,11.50195 -6.53517,12.18798 -1.08066,0.21951 -21.53983,4.05393 -45.46483,8.52094 l -43.5,8.12184 -0.60134,5.98598 c -0.87269,8.68701 -3.10187,13.25511 -7.33055,15.02197 -9.18366,3.83717 -17.28517,-0.10607 -22.16013,-10.78599 -0.94145,-2.0625 -2.43089,-3.75009 -3.30985,-3.75019 -0.87897,-1e-4 -37.88708,7.25717 -82.24024,16.12727 l -80.64211,16.12745 -2.11198,7.12274 c -5.36895,18.10696 -6.33698,30.37154 -4.19293,53.12273 0.57015,6.05 1.11413,20.45 1.20885,32 l 0.17222,21 -2.86827,6.5 c -2.6066,5.90703 -2.87805,7.59471 -2.97552,18.5 -0.10532,11.78352 -0.17333,12.12628 -3.76998,19 -4.03098,7.70376 -5.62505,15.77856 -5.65836,28.66226 l -0.0198,7.6622 6.51436,4.6485 c 7.67326,5.4756 12.73646,12.4555 15.51062,21.3824 1.55092,4.9906 1.97502,9.2235 1.97502,19.7125 0,15.0282 -1.50474,20.9562 -7.01529,27.637 -4.52274,5.4832 -14.28559,9.9406 -23.16375,10.5758 -7.11044,0.5088 -7.25773,0.5772 -12.25893,5.6922 -6.65155,6.8028 -11.69926,8.526 -24.99017,8.5309 -8.47579,0 -10.6192,0.3374 -13.52583,2.1093 -4.61557,2.8138 -19.31431,6.4553 -32.01664,7.9321 -10.88104,1.2649 -19.90688,0.7867 -29.02939,-1.5381 -8.35448,-2.1291 -22.43328,-2.2818 -29.16198,-0.3163 -3.11409,0.9097 -10.08909,2.169 -15.5,2.7986 -10.5626,1.2289 -17.33803,2.8403 -17.33803,4.1234 0,0.4379 -3.32213,2.3726 -7.3825,4.2994 -5.33504,2.5317 -8.29498,4.6937 -10.67258,7.7956 -8.84341,11.5372 -14.10253,15.2069 -26.04116,18.1708 -10.39467,2.5807 -20.24229,3.5573 -36.20635,3.5906 -24.07582,0.05 -33.76829,-2.9526 -45.14846,-13.9873 -6.10641,-5.9211 -7.72822,-6.9819 -10.67466,-6.9819 -4.18666,0 -5.87429,-1.4767 -5.87429,-5.1404 l 0,-2.7404 -7.17515,2.4404 c -5.57,1.8945 -9.24524,2.4404 -16.42857,2.4404 -9.39185,0 -12.39628,-1.0782 -12.39628,-4.4489 0,-0.7184 -0.67472,-1.8661 -1.49939,-2.5505 -1.70514,-1.4152 -1.70962,-1.4582 1.5828,15.1917 2.20951,11.1736 2.3657,15.1679 0.77849,19.9085 -4.02618,12.0252 -14.65365,17.1727 -39.3619,19.0653 -9.89699,0.7581 -15.06363,1.6114 -17.62923,2.9119 -5.25748,2.6648 -14.23043,3.8904 -32.37077,4.4216 l -16,0.4685 -6.90167,-3.984 z m 34.07991,-0.4189 c 5.59803,-0.8458 12.48793,-2.4482 15.3109,-3.5609 7.25446,-2.8594 11.8414,-3.7452 25.51086,-4.9262 19.90228,-1.7196 29.24941,-5.7975 33.52277,-14.6251 l 2.31099,-4.7739 -2.68524,-11.0895 c -2.99799,-12.3811 -3.4345,-22.6601 -1.268,-29.8588 1.53306,-5.094 10.61763,-18.5258 15.78393,-23.3371 1.83455,-1.7085 6.33532,-5.3416 10.00171,-8.0736 8.60507,-6.4121 11.10873,-9.4792 15.36902,-18.8278 4.9738,-10.9143 7.20746,-18.4866 8.97755,-30.4346 1.75356,-11.8365 4.80391,-18.0221 10.1384,-20.559 5.71871,-2.7197 8.13819,-0.9418 3.79837,2.7911 l -2.66628,2.2935 3.51188,3.5118 c 2.89837,2.8984 3.63786,4.5202 4.23303,9.2838 0.45299,3.6256 0.33535,6.1577 -0.31636,6.8094 -1.29972,1.2997 -3.28919,0.1771 -2.64788,-1.4942 0.69716,-1.8167 -2.1437,-10.5723 -4.14947,-12.7886 -4.33422,-4.7893 -7.41442,-0.353 -7.41442,10.6787 0,3.4571 -0.43728,7.4358 -0.97173,8.8415 -0.75903,1.9964 -0.53085,3.3031 1.0424,5.9696 3.40325,5.768 4.03416,9.4595 4.82242,28.2163 0.91887,21.8645 1.57195,23.59 10.10731,26.7048 6.5359,2.3851 20.43811,2.7307 28.9996,0.7209 15.29247,-3.5898 21.7177,-9.4445 29.51735,-26.8962 l 5.46664,-12.2316 -3.10499,-11.2047 c -3.32244,-11.9895 -9.05369,-27.1459 -13.88111,-36.7089 -3.14511,-6.2305 -7.86474,-12.4147 -19.52376,-25.5825 -3.93804,-4.4476 -9.1381,-11.799 -11.55571,-16.3363 -5.20339,-9.76575 -11.9606,-16.61915 -17.39016,-17.63774 -2.80153,-0.52557 -6.08616,0.0723 -13.52506,2.46178 -13.83751,4.44483 -19.30626,10.10578 -23.35361,24.17436 -1.22819,4.2692 -4.11249,8.8378 -12.31101,19.5 -5.88887,7.6585 -12.154,15.8124 -13.92251,18.1198 -7.88817,10.2916 -15.97618,28.0919 -21.94844,48.3047 -4.39152,14.8629 -7.83942,22.7819 -13.86647,31.8479 -7.32954,11.0252 -12.32007,15.9243 -24.60579,24.1552 -8.20533,5.4973 -13.8024,10.1778 -18.83321,15.7494 -8.50212,9.4159 -12.73849,11.9036 -30.30422,17.7952 -7.18878,2.4111 -13.69768,4.9044 -14.46422,5.5406 -3.14356,2.6089 -0.8167,7.7876 4.18101,9.3052 1.55521,0.4723 2.41044,0 3.41544,-1.8751 1.90099,-3.552 5.60473,-5.688 9.23805,-5.3276 4.49645,0.446 4.85625,2.8092 0.42769,2.8092 -2.61766,0 -4.04766,0.6826 -5.62137,2.6833 -1.16084,1.4757 -1.97711,3.3765 -1.81392,4.2238 0.16318,0.8473 2.99279,2.9285 6.28804,4.6248 5.25635,2.7059 6.85007,3.0528 12.99134,2.8277 3.85,-0.1411 11.58021,-0.9486 17.17824,-1.7944 z m -18.43794,-8.7342 c -4.86212,-3.7369 -5.26147,-4.831 -1.76335,-4.831 1.55575,0 3.1024,0.9546 4.1587,2.5667 1.46653,2.2382 2.26937,2.5262 6.27306,2.25 3.55523,-0.2452 4.59129,0.022 4.59129,1.1833 0,1.068 -1.29885,1.585 -4.5097,1.795 -3.80461,0.2489 -5.17265,-0.2145 -8.75,-2.964 z m 69.24675,-24.8519 c -0.34704,-0.5615 0.93482,-1.6752 2.84859,-2.4748 3.98422,-1.6647 7.66436,-5.859 7.66436,-8.7352 0,-1.0787 -0.72263,-4.447 -1.60584,-7.4851 -1.23987,-4.265 -1.35285,-6.0792 -0.49575,-7.9603 1.25783,-2.7607 3.53999,-2.1081 2.78078,0.7951 -0.27227,1.0412 0.13318,4.2529 0.90101,7.1372 2.58448,9.7081 1.36914,15.6846 -3.72523,18.319 -3.21491,1.6625 -7.46338,1.8677 -8.36792,0.4041 z m 104.78311,-52.2291 c -1.14315,-1.2375 -2.73108,-3.8356 -3.52872,-5.7736 -2.05892,-5.0026 -8.00943,-30.0417 -7.30642,-30.7447 1.30892,-1.3089 3.55157,3.8327 5.93893,13.616 1.82918,7.4959 3.64135,12.1279 6.57556,16.8077 2.22777,3.5531 4.05049,6.8842 4.05049,7.4024 0,1.7761 -3.65087,0.9428 -5.72984,-1.3078 z m -87.89047,-12.2029 c -1.41527,-3.6881 7.54773,-22.4812 18.86126,-39.5471 6.7433,-10.1719 13.75905,-17.4031 13.75905,-14.1815 0,0.4501 -3.7814,5.8476 -8.4031,11.9944 -8.86921,11.796 -16.82811,26.7348 -19.50199,36.6052 -1.61925,5.9773 -3.57384,8.1034 -4.71522,5.129 z m 30.62031,-64.4063 c 0,-1.9454 7.49855,-11.1408 9.08499,-11.1408 2.22718,0 0.50289,3.8834 -3.66317,8.25 -2.4925,2.6125 -4.73207,4.75 -4.97682,4.75 -0.24475,0 -0.445,-0.8366 -0.445,-1.8592 z m 13,-26.0183 c 0,-1.6119 2.45037,-2.9255 8.29736,-4.4479 3.18855,-0.8302 7.32103,-2.6716 9.18328,-4.092 3.57671,-2.7281 5.51936,-3.2691 5.51936,-1.5371 0,1.8168 -4.56236,5.6991 -9.84045,8.3737 -4.93738,2.502 -13.15955,3.5662 -13.15955,1.7033 z m -158.06961,166.1403 c 1.88671,-1.2686 8.63671,-3.9263 15,-5.906 15.50895,-4.825 17.57864,-6.0068 24.8521,-14.1907 3.71191,-4.1766 12.09663,-11.364 20.65142,-17.7024 12.64344,-9.3679 15.27345,-11.8345 21.53561,-20.1977 9.52484,-12.7206 11.78711,-17.5184 18.50141,-39.2378 8.70378,-28.155 11.2825,-32.9628 29.96485,-55.8664 13.3133,-16.3215 15.18708,-19.2611 15.95172,-25.0252 1.32279,-9.97169 12.64908,-22.12756 24.43825,-26.22822 l 3.32576,-1.15681 -3.32576,-3.46339 c -7.31685,-7.61967 -17.65128,-9.98565 -29.5492,-6.76503 -5.277,1.42842 -7.51748,2.67813 -10.72363,5.98153 -2.2291,2.29672 -4.68077,5.93524 -5.44813,8.0856 -0.76737,2.15037 -5.89667,11.55976 -11.39844,20.90972 -14.09762,23.9583 -23.62804,42.698 -30.18338,59.3499 -3.107,7.8924 -8.46433,20.2745 -11.90517,27.5158 -12.64973,26.6216 -17.1267,32.4734 -37.79948,49.4072 -7.08054,5.7999 -13.52375,12.0752 -16.34865,15.9225 -5.72732,7.8002 -8.25961,9.7382 -21.09459,16.1441 -5.56871,2.7793 -10.85621,5.7845 -11.75,6.6783 -2.5281,2.5281 -1.95459,5.3113 1.53131,7.4312 l 3.15639,1.9195 4.43628,-4.9342 c 2.98253,-3.3173 5.22515,-4.9343 6.84361,-4.9343 1.32403,0 2.40733,0.45 2.40733,1 0,0.55 -0.86,1 -1.91111,1 -3.0985,0 -7.09758,5.5881 -7.03245,9.8268 l 0.0564,3.6732 1.19356,-3.4653 c 0.68584,-1.9913 2.65279,-4.4466 4.62395,-5.7719 z m 86.06961,-100.037 c 0,-2.5851 3.55866,-9.4142 12.28635,-23.5775 1.98328,-3.2185 4.56862,-8.8435 5.7452,-12.5 2.05253,-6.3788 4.32703,-10.1483 6.12344,-10.1483 2.90634,0 -0.32631,7.561 -12.18503,28.5 -3.73787,6.6 -7.35648,13.9125 -8.04134,16.25 -1.411,4.816 -3.92862,5.7617 -3.92862,1.4758 z m 44.66667,-90.89243 c -1.75239,-1.75238 -0.33297,-2.56089 3.58333,-2.04109 2.3375,0.31024 6.5,-0.0211 9.25,-0.73641 4.34401,-1.12987 5.04571,-1.10337 5.34839,0.20201 0.19162,0.82638 -0.25838,1.88704 -1,2.35702 -1.58627,1.00527 -16.209,1.1912 -17.18172,0.21847 z M 427.1952,1177.7104 c 10.95018,-1.3387 22.38426,-4.4461 27.6246,-7.5073 2.40837,-1.4069 6.08029,-5.1286 8.74712,-8.8658 2.52795,-3.5427 5.78129,-7.3733 7.22965,-8.5126 2.92367,-2.2997 5.45953,-10.792 4.69228,-15.7138 -1.16622,-7.4812 -2.89504,-13.5198 -5.954,-20.7968 -1.83395,-4.3628 -3.1274,-8.1395 -2.87433,-8.3925 1.02453,-1.0246 3.9836,2.6596 6.63432,8.2599 3.79512,8.0181 5.19461,15.4679 4.65543,24.7819 -0.2478,4.2807 -0.0526,7.783 0.43373,7.783 1.88946,0 6.77666,-3.1159 7.75533,-4.9446 1.87316,-3.5 1.17513,-14.4934 -1.44477,-22.7537 -5.09377,-16.0603 -15.02232,-28.0373 -28.77129,-34.7075 -7.66619,-3.7192 -15.60941,-5.7868 -14.33984,-3.7326 0.38696,0.6262 1.48702,1.1384 2.44456,1.1384 2.21313,0 4.14098,1.9068 4.14098,4.0958 0,0.9418 2.23687,3.1311 5.03139,4.9244 4.54386,2.9158 8.23796,7.0223 6.25379,6.952 -0.43185,-0.015 -2.55284,-1.3653 -4.71332,-3 -7.72456,-5.8447 -8.84299,-2.8383 -2.04776,5.5044 8.39124,10.3022 10.20057,14.8472 6.9759,17.5234 -1.73851,1.4429 -1.63957,1.6107 -1.94509,-3.2998 -0.18028,-2.8975 -1.19398,-4.7974 -4.26856,-8 -5.33424,-5.5565 -9.26053,-12.5717 -9.39592,-16.788 -0.10929,-3.4038 -0.11155,-3.4021 -0.9249,0.7034 -0.44844,2.2636 -3.52442,9.5199 -6.83552,16.1251 -6.27941,12.5266 -10.29715,17.2003 -18.35869,21.3561 -6.11172,3.1506 -16.56099,5.0605 -28.27132,5.1674 -9.45181,0.086 -11.74216,-0.2254 -16.27308,-2.2149 -2.90019,-1.2735 -6.35864,-3.6055 -7.68544,-5.1823 -1.3268,-1.5768 -2.61827,-2.867 -2.86993,-2.867 -1.39575,0 -1.42686,3.4439 -0.0501,5.5451 1.90676,2.91 3.86783,18.3657 2.50343,19.7301 -1.04617,1.0461 -1.44551,-0.043 -3.12692,-8.5252 -0.62687,-3.1625 -1.28159,-5.75 -1.45493,-5.75 -0.17333,0 -1.06254,1.575 -1.97602,3.5 -0.91347,1.925 -2.08974,3.5 -2.61394,3.5 -1.58649,0 -1.07379,-3.843 1.0745,-8.054 2.35215,-4.6106 1.38831,-7.9312 -2.31276,-7.9679 -6.07631,-0.06 -16.34546,-8.1711 -14.94992,-11.8078 0.37386,-0.9742 0.16574,-1.2454 -0.59496,-0.7753 -2.23482,1.3812 -1.13953,4.5724 4.32243,12.5938 3.97155,5.8326 6.23273,10.5394 8.16617,16.9983 3.16327,10.5673 7.92369,17.2742 17.22184,24.2638 10.33775,7.771 20.09081,10.385 39.64585,10.6257 5.51443,0.068 13.83943,-0.3428 18.5,-0.9126 z m 24.24393,-38.214 c -1.14315,-1.2375 -2.81741,-4.05 -3.72058,-6.25 -2.44105,-5.946 -6.54635,-11.4469 -9.79758,-13.1282 -2.77592,-1.4355 -3.27487,-3.3641 -1.06121,-4.102 1.69705,-0.5657 9.78243,8.1351 13.22016,14.2264 1.72955,3.0646 4.25885,6.0797 5.62066,6.7002 2.2469,1.0238 2.83161,0.743 6.3186,-3.0341 2.7079,-2.9332 4.65076,-4.1623 6.57951,-4.1623 3.26086,0 3.02969,1.9383 -0.43916,3.6822 -1.29333,0.6502 -3.82235,2.7877 -5.62005,4.75 -3.90522,4.2628 -7.93767,4.7415 -11.10035,1.3178 z m -98.27016,17.7971 c 0,-1.1771 -2.40555,-5.5471 -3.05353,-5.5471 -1.38701,0 -1.97902,3.2559 -0.84128,4.6268 1.05787,1.2746 3.89481,1.945 3.89481,0.9203 z m -18.35534,-3.6304 c 3.77044,-1.1458 8.56221,-3.2454 10.64837,-4.6658 3.39124,-2.3089 3.72435,-2.9092 3.14465,-5.6667 -0.97953,-4.6593 -1.80309,-4.961 -7.08146,-2.5941 -2.67092,1.1977 -8.00005,3.3242 -11.84252,4.7255 -11.28326,4.1151 -14.37173,7.2001 -9.2637,9.2533 3.571,1.4353 7.04476,1.1814 14.39466,-1.0522 z m -18.23393,-3.0836 c 0.51454,-2.343 1.70947,-3.0426 9.83747,-5.7595 5.08849,-1.7009 11.66988,-4.4791 14.62532,-6.1738 4.86775,-2.7913 5.22672,-3.2281 3.81389,-4.6409 -1.41283,-1.4128 -2.67156,-0.9425 -13.37352,4.9976 -6.49764,3.6065 -13.50139,7.2512 -15.56389,8.0994 -2.0625,0.8481 -3.75,2.2079 -3.75,3.0217 0,1.692 3.30303,5.3497 3.61789,4.0064 0.11394,-0.4862 0.47072,-2.0841 0.79284,-3.5509 z m 1.71443,-7.2338 c 11.84901,-5.4638 23.92782,-13.1463 22.66108,-14.413 -1.27707,-1.2771 -4.42167,0.1636 -12.93216,5.9249 -3.10525,2.1021 -8.09832,4.9066 -11.09571,6.2322 -2.99738,1.3255 -5.7301,3.1406 -6.0727,4.0334 -0.80443,2.0963 -1.12985,2.1741 7.43949,-1.7775 z m 1.37484,-5.7758 c 3.85,-2.013 7.9,-4.378 9,-5.2556 2.23234,-1.7811 -12.85148,5.9585 -16,8.2096 -2.79137,1.9958 -1.10781,1.2853 7,-2.954 z m 186.88772,2.1061 c 5.98825,-0.6054 13.51189,-1.9391 16.71921,-2.9637 5.37778,-1.718 6.59248,-1.7574 15.61228,-0.5057 5.37943,0.7464 13.15579,2.118 17.28079,3.0479 13.05082,2.9419 32.04484,0.2789 48.43829,-6.7912 6.30407,-2.7188 8.18824,-3.0556 17.56171,-3.1388 11.76703,-0.1044 16.62819,-1.6787 23.31593,-7.5506 6.43137,-5.6468 8.06733,-8.8231 9.73904,-18.909 1.30985,-7.9026 1.36431,-10.8696 0.34549,-18.8211 -0.66522,-5.1919 -1.41957,-9.6498 -1.67633,-9.9066 -0.25676,-0.2567 -1.93848,1.8266 -3.73716,4.6295 -2.08816,3.2542 -3.61715,4.7496 -4.22981,4.1369 -1.90677,-1.9068 0.5355,-7.3536 6.91678,-15.426 11.52213,-14.5757 12.16604,-16.7758 12.66567,-43.2757 l 0.37647,-19.9677 3.66136,-6.99389 c 4.71054,-8.99799 5.32038,-14.56297 2.73897,-24.99387 -2.02484,-8.18193 -1.47452,-11.73958 1.24143,-8.02531 1.24378,1.70098 1.57582,1.25107 3.72984,-5.05374 2.00242,-5.86111 2.36817,-8.9117 2.38842,-19.92095 0.0131,-7.15 -0.59309,-20.875 -1.34719,-30.5 -2.31455,-29.54196 -0.80015,-45.80553 6.50013,-69.80675 2.9974,-9.85456 2.74537,-10.55694 -6.24892,-17.41512 -11.74611,-8.95646 -16.09052,-10.68887 -21.95289,-8.75411 -3.29903,1.08877 -6.24826,4.48829 -4.98753,5.74902 0.33096,0.33095 3.85492,0.85491 7.83102,1.16435 11.65654,0.90716 7.82589,2.60962 -5.02072,2.23137 -6.7871,-0.19984 -11.25,0.0514 -11.25,0.63337 0,1.3824 3.81072,2.18573 7.17582,1.5127 3.42303,-0.6846 6.85178,1.89271 6.77173,5.09016 -0.0517,2.06472 -0.0751,2.06248 -1.62197,-0.15499 -1.27646,-1.82988 -2.52703,-2.25445 -6.69755,-2.27386 -2.82042,-0.0131 -6.70303,-0.38483 -8.62803,-0.82603 -6.67359,-1.52954 -12,1.75372 -12,7.39694 0,2.09476 3.30974,1.7862 6.01589,-0.56083 2.75056,-2.38555 5.27638,-1.89218 9.22166,1.80128 4.32283,4.04692 4.51589,8.07338 0.8997,18.76326 -4.76905,14.09784 -4.14741,17.25673 4.52934,23.01604 3.40548,2.26042 5.33341,4.24375 5.33341,5.48665 0,2.20621 -0.39596,2.34019 -2.92145,0.98859 -1.63495,-0.875 -1.84705,-0.21527 -2.44917,7.61811 -0.74635,9.70983 -3.81545,19.76164 -9.50007,31.11434 -6.84113,13.66238 -8.4559,19.27005 -7.91008,27.46972 0.26564,3.99068 1.31169,9.85764 2.32456,13.03768 l 1.84156,5.7819 -2.69267,5.49026 c -3.02182,6.16135 -3.18151,7.58958 -1.53635,13.74065 1.50228,5.61685 0.87273,7.77222 -4.73331,16.20526 -7.82829,11.776 -12.19391,21.7071 -12.87642,29.2918 -0.332,3.6895 -0.83595,8.5082 -1.11988,10.7082 l -0.51625,4 3.34261,-5.5 c 1.83844,-3.025 4.5204,-7.3 5.95991,-9.5 1.43951,-2.2 3.13738,-6.5875 3.77305,-9.75 0.8135,-4.0472 1.61748,-5.75 2.71491,-5.75 3.23225,0 0.8053,8.5692 -6.60083,23.3066 -3.92305,7.8064 -7.84338,17.0719 -8.71186,20.5901 -1.79198,7.2593 -2.3054,21.3139 -1.0336,28.2941 0.78005,4.2813 0.63124,4.9143 -1.70454,7.25 -2.85735,2.8574 -8.65012,3.6118 -8.65012,1.1266 0,-0.7879 0.84065,-1.6994 1.86812,-2.0255 4.4034,-1.3976 5.20879,-3.6931 4.50554,-12.8421 -0.64223,-8.3552 -0.74071,-8.6215 -3.40528,-9.2067 -2.57833,-0.5663 -15.07611,-10.4906 -15.80171,-12.548 -0.78932,-2.2379 3.04345,-0.6272 7.86405,3.3049 2.86568,2.3375 6.33568,4.8633 7.71112,5.6128 3.53418,1.9258 4.49764,0.09 3.80993,-7.2594 -0.30347,-3.2432 -0.55177,-7.5958 -0.55177,-9.6724 l 0,-3.7756 -10.25,-3.0983 c -5.6375,-1.704 -14.75,-5.3328 -20.25,-8.0639 -5.96539,-2.9623 -12.42076,-5.3662 -16,-5.9583 -3.3,-0.546 -15.9,-0.8286 -28,-0.628 -18.83977,0.3122 -23.05613,0.6729 -29.35226,2.5107 -11.25589,3.2856 -14.77725,5.4644 -18.67236,11.5535 -6.16958,9.6446 -21.86701,20.2233 -35.88388,24.1826 -7.46123,2.1076 -9.5915,3.1001 -9.5915,4.4688 0,3.0403 1.7245,2.9992 4.83906,-0.1154 1.6539,-1.6539 3.79515,-3.0071 4.75833,-3.0071 1.54645,0 1.49698,0.2707 -0.42308,2.3145 -1.19587,1.2729 -2.17017,2.7354 -2.1651,3.25 0.005,0.5145 3.94256,2.7173 8.75,4.895 6.79433,3.0777 10.21288,5.4159 15.35139,10.5 l 6.61059,6.5405 16.13582,0 c 12.10685,0 16.13672,0.3074 16.13941,1.231 0.006,2.0835 -5.06988,2.6502 -13.91827,1.5539 -8.24643,-1.0216 -14.07815,-0.2914 -14.07815,1.7629 0,0.4686 1.58267,3.4621 3.51704,6.6522 4.80856,7.9299 6.48296,14.154 6.48296,24.0982 0,8.2591 0.047,8.4226 2.25,7.8337 1.2375,-0.3308 7.14947,-1.0968 13.13772,-1.7023 z m 17.97761,-9.7117 c 1.08589,-1.757 15.30918,-7.2175 18.81515,-7.2234 4.78136,-0.01 11.00211,-1.8927 13.31952,-4.0353 1.1,-1.017 2.86304,-3.4576 3.91786,-5.4234 1.91027,-3.5602 1.90947,-3.5821 -0.20395,-5.5511 -1.16699,-1.0872 -2.39345,-3.666 -2.72547,-5.7307 -1.24797,-7.7606 -1.36543,-7.9794 -4.63556,-8.6334 -1.88254,-0.3765 -4.67996,-2.2669 -6.87815,-4.6479 -2.5144,-2.7236 -4.23046,-3.8118 -5.33991,-3.386 -0.90635,0.3478 -1.63482,0.1341 -1.63482,-0.4797 0,-0.6088 1.56,-1.107 3.46667,-1.107 2.65334,0 4.31981,0.8532 7.10306,3.6364 l 3.6364,3.6364 6.8985,-0.5783 c 3.79417,-0.3181 7.36964,-0.8695 7.94549,-1.2254 1.77443,-1.0967 -1.02659,-3.4691 -4.09584,-3.4691 -3.74119,0 -8.53862,-4.1998 -10.03244,-8.7827 -1.33096,-4.0832 -2.7173,-5.4552 -4.7554,-4.7061 -0.75912,0.2791 -1.15418,-0.049 -0.91713,-0.7605 0.59321,-1.7816 3.57653,-2.1401 5.37674,-0.646 0.84148,0.6983 2.62357,3.4278 3.9602,6.0655 2.78948,5.5048 5.08603,6.4985 12.23466,5.2936 7.63847,-1.2873 13.44286,-1.1247 13.95655,0.3912 0.32745,0.9662 -0.1218,1.1705 -1.56605,0.7121 -1.68401,-0.5344 -11.21141,1.102 -11.21141,1.9257 0,0.1404 1.16347,2.337 2.58549,4.8813 2.43929,4.3643 2.821,4.6235 6.75,4.5824 2.29048,-0.024 6.11425,-0.4203 8.49726,-0.8809 3.77112,-0.7287 4.67848,-0.5397 7,1.4585 2.66421,2.2932 2.47506,4.7962 -0.19499,2.5803 -0.99265,-0.8239 -4.24796,-0.9712 -10.98748,-0.4975 l -9.57692,0.6732 -2.84852,-3.0494 c -2.77105,-2.9664 -2.97887,-3.0195 -7.64196,-1.9524 -2.63639,0.6033 -5.02051,1.6886 -5.29804,2.4118 -1.03541,2.6983 0.82138,8.3234 3.279,9.9337 2.31203,1.5149 2.80578,1.4783 7.70326,-0.5712 2.8781,-1.2044 7.3704,-2.4489 9.9829,-2.7655 3.96905,-0.481 4.75,-0.3061 4.75,1.0637 0,1.1807 -0.90902,1.642 -3.25,1.649 -5.26833,0.016 -12.97708,4.238 -17.31609,9.4842 -8.33362,10.0761 -8.39704,10.12 -15.5778,10.7906 -3.64792,0.3406 -9.27038,1.598 -12.49435,2.7941 -6.95961,2.582 -12.92785,3.6463 -11.99643,2.1392 z m 2.66442,-20.8013 c -4.55087,-1.9739 -7.02975,-4.2912 -7.02975,-6.5715 0,-2.6112 1.66429,-2.287 3.62545,0.7061 2.13771,3.2625 6.45787,5.5013 9.22133,4.7787 1.54855,-0.405 2.15322,-0.1091 2.15322,1.0535 0,2.0416 -3.30794,2.0554 -7.97025,0.033 z m 12.47025,-9.2582 c -3.9171,-2.395 -5.84346,-4.7936 -4.9764,-6.1965 0.46523,-0.7528 1.57068,-0.3108 3.33609,1.334 3.49187,3.2531 6.44519,4.7041 9.57457,4.7041 1.41116,0 2.56574,0.45 2.56574,1 0,1.6881 -7.32235,1.1012 -10.5,-0.8416 z m -42.5,-12.5132 c -0.94005,-1.9711 -3.35063,-4.1432 -6.45748,-5.8187 -6.24011,-3.3652 -7.54252,-5.1614 -7.54252,-10.4026 0,-3.3477 0.49455,-4.5179 2.45135,-5.8 1.34824,-0.8834 3.59824,-2.8431 5,-4.3548 1.40176,-1.5117 2.54865,-2.3934 2.54865,-1.9592 0,2.038 -3.08987,6.4003 -5.41469,7.6445 -4.00132,2.1414 -3.46045,6.0223 1.45872,10.4665 2.22421,2.0094 5.59921,4.3951 7.5,5.3015 2.70655,1.2907 3.45597,2.2457 3.45597,4.4038 0,3.9461 -1.26146,4.1643 -3,0.519 z m 21.66667,1.6882 c -1.58518,-1.5852 -0.34547,-3.5674 4.33333,-6.9288 4.05566,-2.9137 5,-4.1486 5,-6.5382 0,-3.6577 2.96605,-9.5829 6.40268,-12.7907 4.76731,-4.4497 3.22187,-8.3365 -5.39636,-13.5718 -6.64095,-4.0342 -8.0085,-6.6702 -5.98939,-11.5447 1.99579,-4.8183 3.21354,-4.6789 2.4695,0.2828 -0.74662,4.9788 -0.0747,5.7908 9.77961,11.8189 2.62132,1.6035 5.2543,3.9871 5.85107,5.2968 0.96246,2.1124 0.50994,3.0951 -4.00586,8.6992 -3.02118,3.7492 -5.35264,7.7661 -5.73472,9.8804 -0.94063,5.2052 -2.74309,8.2577 -7.31467,12.3879 -4.41352,3.9873 -4.41513,3.9882 -5.39519,3.0082 z m -58.66667,-13.1927 c 0,-2.5079 3.35006,-4.3774 11,-6.1383 7.0656,-1.6265 7.6817,-2.0307 5.51256,-3.6168 -1.2063,-0.8821 -3.29474,-1.1046 -6.40149,-0.682 -4.21988,0.5739 -4.49464,0.4859 -3.23863,-1.0382 0.75485,-0.9159 2.44235,-1.6654 3.75,-1.6654 1.67403,0 2.37756,-0.5655 2.37756,-1.9111 0,-1.0511 1.38453,-3.0761 3.07673,-4.5 3.81775,-3.2124 6.41693,-3.4011 2.78604,-0.2022 -2.29732,2.0239 -4.86277,5.6586 -4.86277,6.8893 0,0.2241 1.78112,0.9411 3.95804,1.5933 6.51635,1.9524 3.90537,4.79 -7.95804,8.6488 -3.025,0.9839 -6.5125,2.4466 -7.75,3.2505 -2.08174,1.3522 -2.25,1.3052 -2.25,-0.6279 z m 49.17366,-2.6711 c -1.27948,-1.2758 -4.07873,-2.6156 -6.22056,-2.9775 -5.74527,-0.9706 -8.9531,-3.8837 -8.9531,-8.1304 0,-4.1746 1.19048,-6.6913 5.36999,-11.3522 2.2035,-2.4573 2.38999,-2.867 0.63001,-1.3842 -3.03843,2.5598 -7.18629,3.4277 -12.79003,2.6761 -5.69672,-0.7641 -5.34101,-2.2957 0.54003,-2.3252 2.6125,-0.013 6.55,-0.4761 8.75,-1.0288 6.94153,-1.744 7.5,-1.8438 7.5,-1.3403 0,1.2906 -3.02092,6.1019 -4.89762,7.8003 -2.47284,2.2379 -2.7218,6.2633 -0.57676,9.3258 0.83909,1.1979 4.21409,3.1584 7.5,4.3565 5.00199,1.8238 5.97438,2.5634 5.97438,4.5443 0,2.7788 0.13337,2.7866 -2.82634,-0.1644 z m 15.27545,-10.7196 c -1.16589,-3.8258 -3.43965,-5.5837 -10.08045,-7.7937 -3.51942,-1.1711 -7.06713,-2.7976 -7.8838,-3.6143 -2.10991,-2.1099 -1.83769,-7.6237 0.52465,-10.6269 2.7947,-3.5529 10.87333,-7.8788 13.94924,-7.4694 2.19339,0.2919 1.77847,0.6906 -3.03108,2.9127 -5.78279,2.6717 -9.92767,6.8067 -9.92767,9.9039 0,1.9745 4.4552,5.9377 6.6747,5.9377 3.39608,0 9.52391,4.2311 10.90094,7.5268 0.7834,1.875 1.42436,3.8735 1.42436,4.4411 0,1.9307 -1.86237,1.0415 -2.55089,-1.2179 z m 45.5733,-1.7149 c -0.81267,-0.5139 -3.36603,-0.6756 -5.67413,-0.3592 -6.21295,0.8516 -11.34828,-0.3451 -11.34828,-2.6444 0,-1.0329 -1.18099,-3.2815 -2.62443,-4.997 -4.39184,-5.2194 -1.47361,-4.8831 3.16489,0.3648 l 4.33035,4.8992 6.14356,-0.6422 c 6.46414,-0.6756 9.98563,0.3397 9.98563,2.8789 0,1.6607 -1.78681,1.8852 -3.97759,0.4999 z m -84.02241,-13.8125 c 0,-2.6407 2.70551,-6.0192 6.3107,-7.8807 l 3.1893,-1.6467 -3.75,4.1553 c -2.0625,2.2854 -3.75,4.829 -3.75,5.6524 0,0.8234 -0.45,1.4971 -1,1.4971 -0.55,0 -1,-0.7998 -1,-1.7774 z m 171.33929,-56.13623 c -3.42312,-2.11009 -5.14679,-5.67883 -3.52576,-7.29986 1.31944,-1.31944 3.47308,0.0242 2.8097,1.753 -0.33477,0.87239 1.04359,1.93168 3.96558,3.0476 4.51791,1.7254 5.37802,3.68708 1.83286,4.18027 -1.05692,0.14703 -3.34399,-0.60942 -5.08238,-1.68101 z m -11.33929,-8.06715 c 0,-2.76466 3.23754,-9.02209 5.92588,-11.45339 1.17628,-1.06381 3.06087,-3.42631 4.18797,-5.25 2.19423,-3.55035 3.88615,-4.30597 3.88615,-1.73559 0,1.55542 -11.4025,18.93249 -13.11941,19.9936 -0.48432,0.29933 -0.88059,-0.40025 -0.88059,-1.55462 z m 18,-145.31918 c 0,-0.715 0.55123,-1.85123 1.22496,-2.52496 0.96661,-0.96661 0.96661,-1.63864 0,-3.18643 -1.70645,-2.73246 -1.53452,-3.22465 0.70732,-2.02486 2.5291,1.35354 3.45252,4.44872 2.08794,6.99848 -1.20918,2.25937 -4.02022,2.77524 -4.02022,0.73777 z m 11,-2.23518 c 0,-0.84435 0.76596,-2.70419 1.70213,-4.13297 1.66669,-2.54368 1.64066,-2.64695 -1.25,-4.95984 -2.6234,-2.09905 -2.72258,-2.36263 -0.89069,-2.36704 3.42568,-0.008 6.7083,3.78156 5.94059,6.85846 -1.12431,4.50608 -5.50203,8.16719 -5.50203,4.60139 z M 335.51013,1125.3064 c 1.64395,-1.2623 1.70349,-1.7945 0.55587,-4.9682 -1.12913,-3.1225 -1.05226,-4.0122 0.63275,-7.3231 1.05493,-2.0727 2.07978,-4.1062 2.27747,-4.5187 1.04363,-2.1777 -2.49647,-0.041 -9.75456,5.8887 -6.0464,4.9394 -9.14261,8.3786 -12.09656,13.4365 -6.29866,10.7848 -6.36362,10.7326 5.64113,4.5309 5.99651,-3.0978 11.73126,-6.2685 12.7439,-7.0461 z m 23.76168,-3.1131 3.00352,-1.5532 -0.63166,-16.1968 c -0.50013,-12.8243 -1.05595,-17.29 -2.66932,-21.4469 -1.12072,-2.8875 -2.39434,-5.25 -2.83028,-5.25 -0.43594,0 -2.49541,4.3875 -4.57661,9.75 -2.0812,5.3625 -5.2568,11.6069 -7.05689,13.8764 -2.93867,3.705 -3.17429,4.4702 -2.30725,7.4934 0.53111,1.8519 0.96565,4.4993 0.96565,5.8831 0,2.557 1.31429,3.7454 7.96144,7.1988 4.20419,2.1842 4.38135,2.1896 8.1414,0.2452 z m 314.62675,-11.0186 c 9.77998,-4.7789 13.90279,-12.7681 14.92743,-28.9265 0.98767,-15.5754 -2.75388,-25.5837 -13.27737,-35.5158 l -5.81263,-5.486 -0.76708,4.4593 c -0.42189,2.4525 -2.91198,8.7525 -5.53351,14 l -4.76643,9.5407 0.44605,10 c 0.84768,19.0043 0.49487,27.7764 -1.28277,31.8934 l -1.68105,3.8934 6.25889,-0.6515 c 3.47344,-0.3616 8.58625,-1.7889 11.48847,-3.207 z M 326.00845,917.19939 c 0.63829,-1.40088 1.16052,-4.17385 1.16052,-6.16215 0,-4.63078 -4.37289,-12.2908 -7.01647,-12.2908 -2.57732,0 -4.98353,4.85264 -4.98353,10.05034 0,3.38589 0.62579,4.77545 3.4,7.54966 4.06133,4.06133 5.88251,4.27013 7.43948,0.85295 z m 61.32652,-10.45295 c 30.92341,-6.6 57.03655,-12 58.02919,-12 1.91144,0 2.48623,2.46082 0.81593,3.49313 -2.41069,1.48989 6.29957,9.50687 10.32898,9.50687 2.67996,0 5.03175,-10.07278 4.31938,-18.50007 -1.13512,-13.42849 -7.42814,-28.07051 -13.19349,-30.69738 -2.24214,-1.02159 -2.86973,-0.85336 -5.08654,1.36346 -3.15656,3.15655 -4.58172,10.83399 -2.01112,10.83399 0.965,0 1.63167,0.81716 1.63167,2 0,1.1 -0.33742,2 -0.74981,2 -0.79868,0 -110.24461,19.71713 -113.92912,20.52479 l -2.17892,0.47764 2.66733,4.74878 c 2.15175,3.83086 2.66958,6.0533 2.67893,11.4975 0.006,3.7118 0.11095,6.7493 0.23239,6.75 0.12145,7.1e-4 25.52178,-5.39871 56.4452,-11.99871 z m 76.58384,-0.53733 c 2.63316,-1.84434 5.25016,-10.03609 5.25016,-16.43407 0,-6.08551 -2.36211,-14.94487 -6.2251,-23.34799 -3.41734,-7.43369 -5.73626,-9.68061 -9.9908,-9.68061 l -2.77089,0 3.40868,4.46561 c 7.82728,10.2543 11.70907,30.1359 8.17598,41.87546 -1.51654,5.03906 -1.21339,5.47879 2.15197,3.1216 z m 94.66684,-43.446 c 46.68582,-9.34083 85.08364,-17.18365 85.32848,-17.42849 0.78153,-0.78154 -0.82601,-6.41039 -2.14287,-7.50328 -0.9133,-0.75798 -24.93798,3.57501 -85.68572,15.4539 -46.42911,9.07896 -84.96277,16.70148 -85.63034,16.93891 -0.91181,0.32431 -0.95209,1.25151 -0.16193,3.727 0.57852,1.81241 1.22309,3.85779 1.43239,4.54529 0.2093,0.6875 0.73967,1.25 1.17861,1.25 0.43893,0 38.99556,-7.6425 85.68138,-16.98333 z m 82.10724,-9.09203 c 0.86441,-2.72352 0.14096,-3.30833 -3.0896,-2.49751 -2.56813,0.64456 -2.59854,0.73393 -0.89158,2.62009 2.25409,2.49075 3.1606,2.46284 3.98118,-0.12258 z m 135.97608,-34.3923 c 45.65,-9.06752 84.10656,-16.60923 85.45901,-16.75937 1.6666,-0.185 2.575,0.28361 2.81893,1.45419 0.27877,1.33776 -0.55747,1.87386 -3.70901,2.37781 -2.23791,0.35785 -4.06893,1.20534 -4.06893,1.88329 0,0.67796 1.16693,2.98294 2.59318,5.12219 7.95821,11.9366 12.94241,8.98916 12.86947,-7.61045 -0.0599,-13.62628 -5.82262,-28.44636 -12.43796,-31.98679 -3.29042,-1.76098 -6.68423,2.41369 -7.54174,9.27696 -0.82858,6.63171 -0.31826,7.70983 3.64939,7.70983 2.27356,0 2.93485,0.40864 2.69098,1.66288 -0.33233,1.70922 0.42925,1.55108 -133.894,27.80342 l -34.57068,6.75655 0.0707,4.72891 c 0.0547,3.66121 0.40935,4.65418 1.57068,4.39795 0.825,-0.18203 38.85,-7.74984 84.5,-16.81737 z m 100.34007,-0.83964 c 2.17748,-2.6237 4.18559,-13.01695 3.51059,-18.16952 -0.84394,-6.44206 -4.63122,-17.61983 -7.80488,-23.03528 -1.84138,-3.14208 -3.29356,-4.38746 -5.67027,-4.8628 -1.75723,-0.35144 -3.37886,-0.45508 -3.60363,-0.23031 -0.22478,0.22477 1.19297,2.50696 3.15055,5.07153 4.92017,6.44578 7.9451,16.83213 8.01893,27.53368 0.0322,4.675 -0.26761,9.9625 -0.66636,11.75 -0.77543,3.47607 0.90732,4.54263 3.06507,1.9427 z m 53.42486,-28.7421 c 23.74196,-4.42717 43.33649,-8.21869 43.5434,-8.42559 1.06844,-1.06845 2.86952,-8.04092 2.47086,-9.56539 -0.25293,-0.9672 -1.75198,-2.99646 -3.33123,-4.50948 l -2.87137,-2.75094 -43.78829,9.21742 c -24.08357,5.06958 -44.29809,9.37791 -44.92116,9.57406 -1.62144,0.51046 2.60713,14.50932 4.38276,14.50932 0.7413,0 20.77307,-3.62223 44.51503,-8.0494 z"
       id="path3783"
       inkscape:connector-curvature="0" />
  </g>
</svg>
