<?xml version="1.0" encoding="UTF-8" standalone="no"?>
<!-- Created with Inkscape (http://www.inkscape.org/) -->

<svg
   xmlns:dc="http://purl.org/dc/elements/1.1/"
   xmlns:cc="http://creativecommons.org/ns#"
   xmlns:rdf="http://www.w3.org/1999/02/22-rdf-syntax-ns#"
   xmlns:svg="http://www.w3.org/2000/svg"
   xmlns="http://www.w3.org/2000/svg"
   xmlns:sodipodi="http://sodipodi.sourceforge.net/DTD/sodipodi-0.dtd"
   xmlns:inkscape="http://www.inkscape.org/namespaces/inkscape"
   width="406.88489"
   height="898.69598"
   id="svg2"
   version="1.1"
   inkscape:version="0.48.3.1 r9886"
   sodipodi:docname="One-arm-shoulder-press-1.svg">
  <defs
     id="defs4" />
  <sodipodi:namedview
     id="base"
     pagecolor="#ffffff"
     bordercolor="#666666"
     borderopacity="1.0"
     inkscape:pageopacity="0.0"
     inkscape:pageshadow="2"
     inkscape:zoom="0.49497475"
     inkscape:cx="-561.31285"
     inkscape:cy="565.86932"
     inkscape:document-units="px"
     inkscape:current-layer="layer1"
     showgrid="false"
     fit-margin-top="0"
     fit-margin-left="0"
     fit-margin-right="0"
     fit-margin-bottom="0"
     inkscape:window-width="1378"
     inkscape:window-height="738"
     inkscape:window-x="-124"
     inkscape:window-y="155"
     inkscape:window-maximized="0" />
  <metadata
     id="metadata7">
    <rdf:RDF>
      <cc:Work
         rdf:about="">
        <dc:format>image/svg+xml</dc:format>
        <dc:type
           rdf:resource="http://purl.org/dc/dcmitype/StillImage" />
        <dc:title></dc:title>
      </cc:Work>
    </rdf:RDF>
  </metadata>
  <g
     inkscape:label="Ebene 1"
     inkscape:groupmode="layer"
     id="layer1"
     transform="translate(-1689.9706,-263.1292)">
    <path
       style="fill:#000000"
       d="m 1970.9572,1158.2824 c -4.377,-4.377 -4.4651,-6.4112 -0.9465,-21.8558 1.8908,-8.3 2.4406,-12.9065 2.0291,-17.0027 -0.3754,-3.7358 0.1269,-9.0968 1.4991,-16 1.7449,-8.7781 1.9637,-12.4669 1.4167,-23.8817 -0.8575,-17.8923 -2.4566,-26.354 -7.3987,-39.1505 -2.2624,-5.8579 -4.8013,-13.2829 -5.642,-16.5 -2.7148,-10.3891 -4.4151,-29.28252 -4.891,-54.34952 -0.3617,-19.0519 -0.8198,-25.4639 -2.0603,-28.8348 -0.8773,-2.3841 -2.0759,-9.1341 -2.6636,-15 -0.5877,-5.8658 -1.9268,-13.6387 -2.9757,-17.273 -1.393,-4.8264 -1.9072,-9.7748 -1.9072,-18.3556 0,-7.3698 -0.5774,-13.9763 -1.5495,-17.7275 -0.8522,-3.2888 -1.9401,-10.477 -2.4176,-15.9738 -0.6336,-7.2948 -1.3033,-10.3125 -2.4796,-11.1726 -1.2173,-0.8901 -2.0901,-5.3346 -3.5684,-18.1705 -1.0763,-9.3457 -1.9632,-17.3562 -1.9709,-17.8012 -0.01,-0.4449 -0.3934,-0.5745 -0.8571,-0.2879 -0.4638,0.2866 -1.131,6.5007 -1.4827,13.809 -0.9388,19.5083 -1.5045,22.7072 -4.1319,23.3667 -1.9833,0.4978 -2.3817,1.882 -4.3849,15.2344 -1.2118,8.0778 -2.6777,17.1618 -3.2576,20.1868 -0.5798,3.025 -1.4804,9.4119 -2.0013,14.193 -0.5208,4.7812 -1.6111,10.5753 -2.4227,12.8758 -0.8117,2.3005 -1.4805,6.0386 -1.4861,8.307 -0.01,2.2683 -0.9057,9.2412 -2,15.4952 -1.3969,7.9829 -1.9901,15.8786 -1.9909,26.5 0,25.4911 -3.0071,46.74652 -10.0826,71.31612 -5.156,17.9039 -7.8612,33.6494 -8.5584,49.8129 -0.4756,11.0268 -0.2383,14.4178 1.5632,22.3403 1.4313,6.2943 1.9223,10.8606 1.5055,14.002 -0.4497,3.3902 -0.065,6.2365 1.4107,10.4347 1.2515,3.561 1.8225,7.0451 1.4902,9.0932 -0.3342,2.0594 0.071,4.4995 1.0669,6.4254 1.9926,3.8533 2.0422,7.4596 0.1529,11.1133 -2.1312,4.1211 -6.2124,5.4254 -14.7792,4.723 -3.9974,-0.3278 -7.943,-0.5747 -8.768,-0.5489 -10.3972,0.3263 -21.3321,-0.3493 -25,-1.5446 -2.475,-0.8065 -5.7762,-1.7259 -7.3361,-2.0431 -4.5906,-0.9333 -7.6639,-4.7491 -7.6639,-9.5156 0,-4.983 1.0948,-7.2655 5.9856,-12.4797 2.0636,-2.2 4.2467,-5.4885 4.8513,-7.3079 0.6047,-1.8193 4.2638,-8.377 8.1313,-14.5726 l 7.0318,-11.2647 -0.035,-8.9274 c -0.046,-11.7612 -1.7349,-20.6805 -7.4658,-39.4274 -6.5268,-21.3505 -7.2564,-24.2869 -8.4512,-34.0144 -2.067,-16.82842 3.2306,-50.87922 10.6441,-68.41552 5.8333,-13.7984 6.4699,-16.6275 7.3291,-32.5701 0.722,-13.3984 0.5837,-16.7202 -1.0205,-24.5 -5.0434,-24.4582 -8.0008,-40.8762 -8.0008,-44.416 0,-2.2454 -0.5335,-4.0948 -1.25,-4.3331 -0.9512,-0.3164 -1.3205,-7.1608 -1.5448,-28.6315 -0.2835,-27.1321 -0.1954,-28.6844 2.2923,-40.4176 1.423,-6.7109 3.2214,-17.2601 3.9966,-23.4425 1.9063,-15.2043 7.7696,-32.5229 12.6695,-37.4229 1.7833,-1.7833 2.1239,-3.6736 2.5577,-14.1968 0.5786,-14.0351 -0.6574,-24.63807 -3.5227,-30.21946 -1.1068,-2.15605 -4.448,-8.67084 -7.4247,-14.47729 -2.9767,-5.80646 -6.6432,-14.58146 -8.1476,-19.5 -1.5045,-4.91855 -3.227,-10.29281 -3.8277,-11.94281 -6.8981,-18.94537 -7.8481,-22.70176 -8.9906,-35.54811 -1.3645,-15.34177 -0.3696,-13.5855 -19.1162,-33.74501 -10.8743,-11.69391 -19.6206,-23.39897 -22.3305,-29.88459 -3.1252,-7.47959 -7.2587,-24.04176 -8.3164,-33.32229 -1.9959,-17.51222 -3.9811,-26.28622 -6.5616,-29 -3.393,-3.56831 -5.4833,-9.18141 -5.4833,-14.72465 0,-2.63389 -1.1035,-9.73584 -2.4523,-15.78212 -1.3487,-6.04628 -3.1967,-16.14131 -4.1065,-22.43341 -1.9043,-13.16973 -1.4772,-17.35038 4.0931,-40.05982 1.8212,-7.425 4.0519,-17.45673 4.957,-22.29273 1.6,-8.54811 1.5895,-8.90978 -0.3746,-13 -1.1113,-2.314 -2.6535,-8.48227 -3.4273,-13.70727 -1.6391,-11.06734 -2.2915,-9.7216 -3.1284,6.4529 -0.3118,6.02409 -1.0377,11.42409 -1.6132,12 -1.6805,1.68148 -37.8005,1.40108 -38.8536,-0.30163 -3.7823,-6.11484 -3.9344,-67.58361 -0.1768,-71.44685 0.4256,-0.43757 4.7808,-1.20953 9.6782,-1.71546 11.082,-1.14482 27.3577,0.29408 29.05,2.56827 0.6301,0.8467 1.4661,6.0177 1.8579,11.49111 0.527,7.36303 1.0652,9.95166 2.0692,9.95166 0.7463,0 1.8901,-1.0125 2.5418,-2.25 1.7333,-3.29139 2.8847,-3.81195 7.9385,-3.58915 2.5041,0.11039 5.0467,-0.1044 5.6501,-0.47733 0.6034,-0.37292 6.2454,-0.62074 12.5378,-0.5507 6.5042,0.0724 12.9916,-0.38448 15.0349,-1.05881 2.6646,-0.87942 4.6401,-0.90448 7.6391,-0.0969 3.3225,0.89465 4.1909,1.65171 4.861,4.23805 0.4488,1.73185 1.2453,3.28462 1.77,3.45058 2.2965,0.72634 3.3212,-1.76654 4.3845,-10.66572 0.7601,-6.3609 1.6482,-9.88749 2.6878,-10.67268 3.2803,-2.47764 24.4067,-2.92867 35.088,-0.74909 2.8902,0.58976 3.2844,1.11089 4,5.288 0.4366,2.54857 0.7938,18.23045 0.7938,34.84861 0,27.67311 -0.1502,30.365 -1.7857,32 -1.5775,1.57696 -3.8184,1.78516 -19.2143,1.78516 -14.1789,0 -17.6998,-0.27968 -18.8831,-1.5 -0.8515,-0.87807 -1.922,-5.42356 -2.5821,-10.96301 -0.6201,-5.20465 -1.2869,-9.62248 -1.4819,-9.81738 -0.1949,-0.19491 -0.6553,1.42687 -1.0231,3.60396 -0.7662,4.53535 -2.8954,6.75328 -10.2492,10.67647 -6.0751,3.24103 -6.6987,4.60288 -8.3145,18.15963 -1.2122,10.16974 -1.1616,10.47525 4.862,29.34033 3.326,10.41664 3.6689,12.53626 3.6398,22.5 -0.023,7.96345 -0.6817,13.75612 -2.3854,20.98412 l -2.3533,9.98412 3.2988,2.51588 c 7.7989,5.9479 13.4505,11.93881 18.3658,19.46843 5.8312,8.93281 17.1278,31.38 18.1409,36.04745 0.3582,1.65 0.8429,3.71883 1.0772,4.59739 0.2343,0.87856 2.33,2.1662 4.6571,2.86141 10.2776,3.07044 18.4503,9.8971 22.6908,18.95378 2.2963,4.90408 2.6537,5.21471 5.375,4.67045 1.6034,-0.32066 3.534,-0.58303 4.2902,-0.58303 1.0808,0 1.375,-2.28357 1.375,-10.67154 0,-9.37981 -0.3328,-11.46782 -2.7497,-17.25 -2.6887,-6.43235 -2.7497,-7.02268 -2.75,-26.57846 -3e-4,-19.43699 0.073,-20.15483 2.5899,-25.5 3.6418,-7.73314 7.1226,-11.46616 13.7057,-14.69891 5.3219,-2.61339 6.5082,-2.79624 17.7041,-2.72877 13.1186,0.0791 16.7151,1.05394 23.3892,6.33996 2.0421,1.61734 5.009,5.32195 6.5931,8.23247 l 2.8802,5.29186 0.069,21.53169 c 0.065,20.50917 -0.046,21.81664 -2.3408,27.5317 -1.8635,4.64016 -2.5001,8.3955 -2.8091,16.56962 l -0.3996,10.56962 6.1511,1.71016 c 6.7787,1.88463 14.3125,5.44284 20.4926,9.67868 11.6893,8.0118 14.2758,9.05226 23.3511,9.39327 12.4639,0.46833 19.4428,3.82131 28.4299,13.659 3.728,4.08081 7.7716,9.46963 8.9859,11.97516 1.7024,3.5129 4.1069,5.90054 10.5061,10.43243 10.7159,7.58892 13.8892,11.20538 20.3341,23.17314 3.849,7.14747 7.1284,11.62822 11.9881,16.37991 8.1997,8.01742 9.4916,11.56665 7.4318,20.4171 -1.0325,4.43652 -2.1657,6.60725 -4.4371,8.5 -2.0779,1.73148 -4.2627,5.57077 -6.8526,12.04191 -2.0911,5.225 -5.4507,11.975 -7.4657,15 -5.0028,7.51046 -21.074,22.73106 -34.8709,33.02536 -7.8523,5.8588 -12.0517,9.72 -13.4262,12.3448 -1.1,2.1007 -4.1162,5.2446 -6.7028,6.9865 -3.4929,2.3522 -6.4069,5.8546 -11.3263,13.6135 -3.6429,5.7456 -7.0253,11.1973 -7.5164,12.115 -0.5693,1.0636 -0.1737,5.3791 1.0913,11.9044 1.0913,5.6298 2.8665,17.1872 3.9448,25.683 1.0784,8.4958 3.0446,20.7076 4.3693,27.1372 3.9876,19.3533 3.9061,18.1119 1.2687,19.3136 -2.2061,1.0052 -2.3655,1.7267 -2.9219,13.2199 -0.3952,8.163 -1.6486,16.9203 -3.8153,26.6567 -2.6936,12.1044 -3.2934,17.1315 -3.6303,30.4276 -0.5447,21.498 1.3417,31.8856 10.7276,59.0724 5.5709,16.1366 7.5185,26.892 7.4243,41 -0.099,14.7676 -1.655,24.0922 -7.5671,45.3364 -6.2601,22.4949 -8.8269,35.0002 -8.8368,43.0517 -0.01,7.3609 0.018,7.4365 7.4909,20.5799 4.125,7.2554 7.5,13.6914 7.5,14.3021 0,0.6107 2.2487,4.0443 4.9971,7.6301 2.7484,3.5858 5.7434,8.0848 6.6556,9.9977 1.5511,3.2527 1.5477,3.6475 -0.053,6.0911 -1.0162,1.5509 -4.7531,3.9988 -9.1939,6.0225 -6.8857,3.138 -8.3352,3.4241 -18.1935,3.5911 -5.8915,0.1 -11.3868,0.097 -12.2118,-0.01 -0.825,-0.1028 -5.1944,0.1213 -9.7098,0.4981 l -8.2099,0.6851 -3.5401,-3.5402 z m 18.3369,-4.9037 c 2.064,-0.7672 2.3013,-1.3501 1.8022,-4.4259 -0.7815,-4.8162 1.4989,-4.0358 2.7537,0.9423 0.6776,2.6878 1.5985,3.8679 3.3643,4.3111 3.7559,0.9427 16.5312,-0.4332 19.7869,-2.131 1.6037,-0.8364 3.9284,-1.5234 5.1659,-1.5268 2.2904,-0.01 6.25,-3.1834 6.25,-5.0148 0,-0.5548 -2.4607,-3.6854 -5.4683,-6.9568 -3.1741,-3.4527 -7.3216,-9.6373 -9.8858,-14.7413 -2.4297,-4.8363 -6.2452,-11.2245 -8.4789,-14.196 -3.041,-4.0455 -4.2184,-6.6832 -4.687,-10.5 -1.0727,-8.7385 1.998,-27.6161 8.0675,-49.5973 6.8819,-24.9229 8.3746,-32.8211 8.4101,-44.5 0.04,-13.18102 -1.2212,-19.14442 -9.491,-44.87542 -7.2427,-22.5356 -7.4696,-23.5453 -7.5663,-33.6783 -0.055,-5.7455 -0.4102,-11.5613 -0.7898,-12.9242 -0.5833,-2.0939 -0.8889,-1.5903 -1.9721,3.25 -1.175,5.2507 -2.3272,6.9078 -3.461,4.9779 -0.9916,-1.6877 2.2994,-23.4154 4.7395,-31.2913 3.8802,-12.5241 7.5831,-33.8299 7.5831,-43.6322 0,-7.7567 -0.1606,-8.4707 -1.75,-7.7801 -10.6396,4.6228 -26.2956,7.4226 -43.2323,7.7312 l -12.2031,0.2224 0.693,11 c 0.7322,11.6212 1.8042,14.9819 2.9058,9.1098 0.6274,-3.3441 2.1393,-5.3904 3.1995,-4.3302 0.2639,0.2639 -0.2161,4.8041 -1.0666,10.0893 -2.053,12.7586 -1.9498,20.7013 0.386,29.6928 1.0628,4.0911 2.4256,11.9227 3.0284,17.4036 1.3529,12.3 3.0794,19.1003 7.526,29.6436 3.193,7.5709 3.5776,9.8911 1.6395,9.8911 -0.4157,0 -1.6027,-1.6875 -2.6379,-3.75 -1.7986,-3.5835 -1.9005,-3.639 -2.2967,-1.25 -0.4278,2.5803 1.1541,26.0584 2.9174,43.2991 1.0879,10.63682 6.8028,36.90472 9.3466,42.96052 4.3219,10.2887 5.5301,19.4764 5.5374,42.1062 0.01,18.1382 -0.2859,22.6904 -1.711,26.7028 -1.4368,4.0455 -1.5186,5.3882 -0.5,8.2052 1.6866,4.664 1.5337,7.3973 -0.782,13.9859 -1.1,3.1297 -2.0065,6.7141 -2.0145,7.9654 -0.01,1.2512 -0.6977,4.2362 -1.5325,6.6334 -1.1605,3.3324 -1.2452,4.687 -0.3597,5.754 2.5673,3.0933 10.2481,3.6535 16.7837,1.224 z m 10.8386,-5.7407 c -2.1049,-3.5633 -2.1767,-5.0958 -0.2386,-5.0958 1.9575,0 4.8971,4.5828 4.1643,6.4923 -0.8632,2.2495 -2.0137,1.8402 -3.9257,-1.3965 z m 10.4844,-1.2958 c -0.66,-0.66 -1.2,-1.785 -1.2,-2.5 0,-1.8356 2.9395,-1.6212 3.6642,0.2673 0.8265,2.1538 -0.9414,3.7556 -2.4642,2.2327 z m -26.0145,-37.5248 c 0.4314,-2.2401 4.4554,-4.2418 8.5645,-4.2604 4.4839,-0.02 4.078,1.6852 -0.7078,2.9739 -2.1768,0.5861 -4.2283,1.5035 -4.559,2.0385 -1.0422,1.6864 -3.6526,1.0911 -3.2977,-0.752 z m -1.1855,-81.4791 c 0,-7.2833 -1.7078,-24.7824 -4.0307,-41.30002 -2.3027,-16.3745 -2.4714,-20.8301 -0.7675,-20.2621 1.7347,0.5782 3.4794,8.3369 4.2729,19.0015 0.3791,5.0955 1.3231,15.1145 2.0977,22.26452 1.9083,17.6147 1.8859,25.5 -0.072,25.5 -1.1412,0 -1.5,-1.2448 -1.5,-5.2039 z m 0.5272,-72.75212 c -0.325,-0.5259 0.6609,-1.7339 2.1909,-2.6846 5.5714,-3.4619 7.1915,-5.6071 8.3125,-11.0066 1.2928,-6.2275 2.9694,-6.1957 2.9694,0.056 0,6.3944 -6.3901,14.591 -11.3752,14.591 -0.8287,0 -1.7727,-0.4302 -2.0976,-0.956 z m -22.5272,-40.9215 c 0,-0.4827 0.6989,-1.4576 1.5532,-2.1666 0.8542,-0.7089 3.2988,-4.278 5.4323,-7.9311 3.7911,-6.4911 6.8965,-9.0248 11.0616,-9.0248 2.5516,0 2.5162,1.6865 -0.053,2.5018 -3.5312,1.1207 -7.5803,5.248 -9.5021,9.6856 -1.0273,2.3719 -2.5281,5.1001 -3.3352,6.0626 -1.5156,1.8077 -5.1573,2.4238 -5.1573,0.8725 z m 22.5,-2.3737 c -1.8144,-2.8796 -6.743,-6.9322 -9.7979,-8.0564 -0.9224,-0.3394 -0.9283,-0.7336 -0.025,-1.6942 0.9361,-0.9958 1.8932,-0.809 4.68,0.9134 4.2088,2.6011 9.6432,8.5879 9.6432,10.6232 0,2.4965 -2.4025,1.543 -4.5,-1.786 z m -88.759,238.93882 c 1.5192,-1.5192 1.5155,-2.0325 -0.051,-7.0014 -0.9296,-2.9491 -1.6902,-6.5226 -1.6902,-7.9412 0,-1.4185 -0.9343,-4.754 -2.0763,-7.4121 -1.3078,-3.0442 -1.8737,-5.9432 -1.5291,-7.8329 1.7049,-9.3496 1.7346,-10.6725 0.3317,-14.7898 -1.8605,-5.4603 -2.3478,-38.0459 -0.7219,-48.267 0.6075,-3.8187 2.4476,-10.9587 4.0891,-15.8665 3.0671,-9.1702 6.9126,-24.4766 8.8124,-35.0767 1.4358,-8.01062 4.102,-40.14112 4.0629,-48.96132 l -0.031,-7.0387 -2.4246,3.9469 c -4.0436,6.5823 -4.1181,1.8136 -0.1276,-8.1605 4.2082,-10.518 6.3309,-19.1654 7.1993,-29.329 0.3505,-4.1015 1.5074,-10.8324 2.571,-14.9574 2.2941,-8.8976 2.4756,-20.9126 0.4951,-32.7742 -1.8378,-11.0074 0.7214,-12.5371 2.8873,-1.7258 l 0.8014,4 0.7179,-5.5 c 0.3948,-3.025 1.0032,-8.2 1.352,-11.5 l 0.6342,-6 -12.984,0.3495 c -11.6701,0.3141 -41.9631,-2.0538 -44.2345,-3.4576 -0.4538,-0.2804 -0.8251,0.6059 -0.8251,1.9697 0,5.2952 5.0385,31.6344 7.8696,41.1384 3.4792,11.6802 5.9576,30.0728 4.2786,31.7519 -1.2482,1.2482 -1.4182,0.8901 -3.4417,-7.2519 l -1.3669,-5.5 -0.737,14.5 c -0.7335,14.4325 -0.7716,14.6082 -8.1556,37.7095 -8.8508,27.6898 -10.3346,36.8397 -8.5484,52.71362 0.6311,5.6081 2.2523,14.2197 3.6026,19.1368 10.365,37.7425 12.4988,48.2585 12.4988,61.5988 0,6.9572 -0.84,9.3043 -5.5272,15.445 -2.0015,2.622 -5.6409,8.7533 -8.0876,13.6251 -2.6191,5.2147 -6.7281,11.3371 -9.9911,14.8864 -5.1973,5.6535 -5.4528,6.1644 -4.1036,8.2068 0.7913,1.1979 2.7372,2.5514 4.3242,3.0078 1.5869,0.4563 4.2353,1.3297 5.8853,1.9409 1.65,0.6111 7.1652,1.2812 12.2561,1.489 l 9.256,0.3779 2.2162,-4.8188 2.2163,-4.8188 0.332,4.1848 c 0.2757,3.4743 0.7897,4.3614 3.0277,5.2249 3.8806,1.4972 12.9602,0.7544 14.9367,-1.2221 z m -30.5544,-4.8367 c 0.3144,-3.1593 3.0597,-5.9379 4.4716,-4.526 0.8839,0.8839 -2.5483,7.6751 -3.879,7.6751 -0.4983,0 -0.7649,-1.4171 -0.5926,-3.1491 z m -10.1866,-2.0775 c 0,-1.5375 1.9374,-3.7734 3.2696,-3.7734 0.4782,0 0.7257,1.0079 0.55,2.2398 -0.3451,2.4184 -3.8196,3.8134 -3.8196,1.5336 z m 24.5,-36.8911 c -1.65,-1.0295 -3.7609,-1.8741 -4.691,-1.877 -2.251,-0.01 -3.3193,-1.8722 -1.4772,-2.5791 2.1994,-0.844 9.6898,1.4666 10.3525,3.1935 0.9969,2.5979 -1.0527,3.2163 -4.1843,1.2626 z m 2.9478,-76.9668 c -0.7592,-1.2284 0.013,-12.5456 2.1081,-30.91552 0.7843,-6.875 1.4354,-14.975 1.4469,-18 0.022,-5.8679 2.2288,-15.6315 3.9131,-17.3159 2.0969,-2.0969 2.1484,2.2183 0.1662,13.9157 -1.8608,10.9805 -3.2636,24.26102 -4.7693,45.15022 -0.561,7.7818 -1.3164,9.6712 -2.865,7.1655 z m -3.2959,-77.52172 c -6.1582,-4.3133 -9.8327,-13.1876 -7.1904,-17.3657 1.0449,-1.6522 0.8743,-1.9796 2.9424,5.6482 1.0481,3.8659 3.8555,7.0791 8.6374,9.8856 1.0433,0.6123 1.4984,1.5649 1.075,2.25 -1.0034,1.6234 -2.7394,1.4906 -5.4644,-0.418 z m 1.5834,-39.9918 c -1.2846,-1.2846 -0.8235,-2.2986 2.9396,-6.4638 5.1816,-5.7355 11.3251,-8.7443 11.3251,-5.5466 0,0.7654 -1.0856,1.6641 -2.4125,1.9971 -2.2858,0.5737 -5.2171,3.2316 -9.2972,8.4299 -1.0009,1.2752 -2.1507,1.9877 -2.555,1.5834 z m 21.0238,-1.652 c -0.8089,-1.2375 -1.824,-3.3663 -2.2556,-4.7306 -1.2204,-3.8579 -4.4183,-7.6585 -8.1225,-9.6534 -3.3868,-1.8239 -4.5681,-4.366 -2.0289,-4.366 3.0096,0 8.2547,4.8716 11.7456,10.9091 2.0346,3.5188 4.4294,6.8064 5.3218,7.3058 0.8924,0.4995 1.3615,1.3304 1.0425,1.8466 -1.0524,1.7028 -4.2066,0.9774 -5.7029,-1.3115 z m 19.906,-67.7577 5.165,-1.1216 0.5743,-4.6853 c 0.3159,-2.5769 1.071,-11.2104 1.6781,-19.1854 0.607,-7.975 1.3993,-14.7894 1.7606,-15.1432 0.3613,-0.3538 3.1249,-1.1591 6.1413,-1.7897 3.0164,-0.6306 9.8726,-2.907 15.2359,-5.0588 12.1737,-4.8841 15.6576,-5.5787 18.2797,-3.6446 1.9834,1.4629 1.98,1.4965 -0.4125,4.0432 -3.9911,4.2484 -17.0613,12.8172 -18.6313,12.2147 -2.6903,-1.0324 -1.4939,-2.4174 5.2938,-6.1286 7.0849,-3.8736 10.25,-6.2353 10.25,-7.648 0,-1.7549 -3.7831,-0.7336 -8.5542,2.3094 -2.7202,1.7349 -7.2636,4.2224 -10.0964,5.5278 -2.8329,1.3054 -5.6735,3.0034 -6.3124,3.7732 -0.8858,1.0674 -0.7691,5.3945 0.4915,18.2222 0.9093,9.2523 1.8784,17.0474 2.1536,17.3224 0.2753,0.275 7.5469,0.4509 16.1592,0.3908 19.5965,-0.1367 32.2386,-2.5245 42.8979,-8.1025 7.143,-3.7379 7.2394,-3.8414 7.2487,-7.7883 0.01,-2.2 -1.069,-8.5 -2.3871,-14 -1.3182,-5.5 -2.9114,-14.05 -3.5405,-19 -2.24,-17.6254 -5.9186,-37.9749 -6.72,-37.1736 -0.4711,0.4711 0.824,9.7162 4.7526,33.9265 2.2427,13.8212 2.3407,16.0583 0.6791,15.5045 -1.8783,-0.6261 -3.5733,-7.7188 -5.7892,-24.2252 -1.1098,-8.2677 -2.2499,-16.4655 -2.5335,-18.2173 l -0.5156,-3.1851 -3.4347,1.4351 c -4.5054,1.8825 -16.1126,1.9266 -17.1993,0.065 -0.4748,-0.8131 -3.197,-1.5627 -6.6996,-1.8447 -6.394,-0.5148 -9.1324,-2.6052 -8.1859,-6.2487 0.2805,-1.0798 -0.2192,-2.769 -1.1105,-3.7539 -2.2494,-2.4855 -1.8446,-11.201 0.7221,-15.5514 1.0858,-1.8403 1.9742,-3.5138 1.9742,-3.719 0,-0.2051 -1.4625,0.05 -3.25,0.5673 -1.7875,0.5172 -9.775,1.2194 -17.75,1.5605 -24.4124,1.0443 -42.8641,-1.9513 -57.7429,-9.3745 -3.9835,-1.9874 -7.4042,-3.4228 -7.6014,-3.1897 -0.1972,0.2331 -2.2882,4.6513 -4.6466,9.8183 -3.0742,6.7352 -4.5471,11.5475 -5.2033,17 -1.2274,10.1985 -3.4505,24.8326 -5.2571,34.6055 -1.5772,8.5314 -1.9868,30.227 -0.885,46.8672 l 0.6534,9.8673 3.2503,1.3581 c 11.528,4.8167 43.9758,6.6833 59.0977,3.3997 z m -61.0806,-31.8556 c -0.3293,-0.5328 -0.094,-2.2441 0.5225,-3.8027 0.6167,-1.5587 1.4732,-12.284 1.9034,-23.834 0.778,-20.89 2.1026,-28.7054 5.3125,-31.3435 0.6474,-0.5321 3.8385,-1.7383 7.0912,-2.6806 5.9015,-1.7095 10.5859,-5.1478 10.5859,-7.7699 0,-0.7617 -1.2375,-1.9412 -2.75,-2.6212 -5.3159,-2.3897 -12.25,-7.3081 -12.25,-8.689 0,-2.1763 3.0139,-1.6275 8.9098,1.6224 6.373,3.5128 7.6781,3.6657 8.38,0.9818 0.2876,-1.1 1.2401,-2 2.1166,-2 2.2331,0 2.0709,6.3685 -0.2928,11.5 -2.8209,6.1241 -6.2135,9.0964 -12.4524,10.9101 -3.4714,1.0092 -6.2117,2.5005 -7.1078,3.8681 -1.8087,2.7604 -3.1469,11.805 -4.6194,31.2218 -0.6256,8.25 -1.4356,16.7647 -1.8,18.9215 -0.6493,3.8431 -2.3623,5.6361 -3.5495,3.7152 z m 51.8217,-0.2884 c -0.3914,-0.6334 0.093,-1.7399 1.0761,-2.4589 2.1185,-1.5492 9.8527,-2.8585 12.0054,-2.0324 2.4125,0.9257 1.7498,2.643 -1.0198,2.643 -1.3927,0 -4.1476,0.675 -6.1221,1.5 -4.3145,1.8027 -5.0153,1.8438 -5.9396,0.3483 z m 6.5938,-9.3483 c -4.7626,-2.4933 -7.8364,-3.4195 -11.5,-3.4651 -6.8908,-0.086 -9.661,-0.9547 -9.2899,-2.9142 0.6903,-3.6444 9.1797,-2.1226 23.0399,4.1303 3.7125,1.6748 6.75,3.6535 6.75,4.3971 0,2.0355 -1.8544,1.5929 -9,-2.1481 z m -22.25,-40.513 c -0.9625,-0.5975 -1.75,-1.7871 -1.75,-2.6436 0,-1.0916 0.5233,-1.3414 1.75,-0.8351 8.0066,3.3044 20.7092,3.2865 34.8263,-0.049 9.6242,-2.2741 16.4199,-4.9321 16.4258,-6.4247 10e-4,-0.2939 -4.8346,-0.3907 -10.7462,-0.2152 -17.1952,0.5107 -41.2559,-4.4492 -41.2559,-8.5045 0,-1.9748 3.0972,-1.4305 12.5,2.1966 6.909,2.6651 7.2438,2.6942 25.7455,2.2366 20.1722,-0.4989 21.5837,-0.1877 20.4073,4.4992 -0.7449,2.968 -4.5688,5.1448 -13.7113,7.8054 -5.9871,1.7423 -10.8617,2.2491 -24.9415,2.5932 -11.5783,0.2829 -18.0922,0.06 -19.25,-0.6587 z m 93.8058,-3.8731 c 5.1922,-2.3583 9.9197,-7.9216 16.0425,-18.8785 5.2789,-9.4468 11.1504,-16.5369 15.5998,-18.8378 1.5411,-0.7969 2.8019,-2.0235 2.8019,-2.7258 0,-2.062 9.5292,-11.2013 19.0165,-18.2384 5.1532,-3.8223 13.7537,-11.8916 20.7639,-19.4814 11.2926,-12.22626 12.2321,-13.56995 16.6725,-23.84301 2.6998,-6.24609 5.9574,-12.08588 7.6423,-13.70014 1.6152,-1.54745 3.4224,-4.61721 4.016,-6.82167 1.6824,-6.24822 -0.1239,-10.17506 -7.4256,-16.14244 -5.2685,-4.30583 -7.0113,-6.64325 -11.7551,-15.7662 -6.1295,-11.78764 -9.5758,-15.92527 -18.1602,-21.80258 l -5.7297,-3.92286 0.6315,3.1574 c 1.0951,5.47553 -1.7768,2.8839 -4.6418,-4.18874 -3.2242,-7.95964 -7.8675,-14.84246 -14.5164,-21.51793 -6.5182,-6.54425 -14.1421,-9.5835 -24.0139,-9.573 -10.6775,0.0114 -14.5,-0.70834 -14.5,-2.73008 0,-3.15496 -24.8739,-15.92949 -31.25,-16.04911 -2.9993,-0.0563 -3.9128,2.56497 -1.25,3.58677 2.3193,0.88999 1.7724,2.36163 -0.8776,2.36163 -3.66,0 -4.8495,-2.20481 -4.1474,-7.68757 l 0.6163,-4.81243 -3.4073,7.08582 c -4.3881,9.1257 -8.7957,16.63584 -9.4054,16.02615 -0.2631,-0.2631 1.346,-5.20148 3.5758,-10.97417 3.3998,-8.80185 7.1456,-20.85319 7.1456,-22.9893 0,-0.30955 -2.1375,1.73237 -4.75,4.53761 -5.6714,6.08979 -9.3458,7.81389 -16.6528,7.81389 -7.5112,0 -9.8276,-1.09475 -17.1077,-8.08546 l -6.3092,-6.05846 0.8733,3.88673 c 0.4803,2.1377 2.7027,8.99368 4.9386,15.23551 2.236,6.24183 3.903,11.83596 3.7046,12.4314 -0.9909,2.97274 -10.1913,-17.38424 -10.8858,-24.08604 -0.1039,-1.00302 -0.4414,2.22632 -0.75,7.17632 -0.522,8.37365 -0.7176,9.02224 -2.811,9.31955 -2.5717,0.36524 -2.7342,-0.0713 -1.0378,-2.78764 1.5991,-2.56065 0.671,-3.31821 -2.5601,-2.08974 -2.3764,0.90353 -2.5261,1.26163 -1.5792,3.77798 1.3801,3.66717 7.5461,9.99736 11.9271,12.24475 1.925,0.98748 5.525,2.12757 8,2.53351 7.1442,1.17178 10,3.04591 10,6.56245 0,2.80425 -0.1447,2.92185 -2.1219,1.72432 -5.397,-3.26894 -6.5388,-3.75947 -8.8781,-3.81433 -4.0172,-0.0942 -9.5406,-2.43895 -13.9246,-5.91111 -4.6049,-3.6472 -4.6312,-3.63411 -2.5754,1.28602 1.8526,4.43378 1.8535,4.65424 0.02,4.65424 -1.9548,0 -4.6595,-5.46993 -8.4256,-17.03921 -4.544,-13.95926 -9.3908,-21.7115 -16.0746,-25.71079 -2.9874,-1.7875 -6.2232,-3.25 -7.1907,-3.25 -2.7155,0 -4.0239,3.56944 -4.5809,12.49771 -0.6142,9.84457 0.9991,20.09107 4.3097,27.37313 2.8432,6.25372 2.962,7.12916 0.9675,7.12916 -3.8274,0 -9.019,-20.1273 -10.0022,-38.77731 -0.7911,-15.00702 -2.2459,-20.96491 -8.1122,-33.22269 -9.3107,-19.45461 -17.3932,-31.65313 -24.41,-36.84092 -4.0231,-2.97441 -6.2976,-1.70008 -9.667,5.41618 -1.4225,3.00434 -3.0188,5.72975 -3.5474,6.05646 -2.3233,1.43582 -2.5121,-1.65364 -0.5146,-8.41876 2.1015,-7.11753 2.1116,-7.44319 0.4312,-14 -0.9462,-3.69213 -1.7165,-7.50046 -1.7119,-8.46296 0.015,-3.13642 3.0706,-1.84253 4.7231,2 l 1.6127,3.75 1.5517,-4.5 c 1.1254,-3.26374 1.55,-8.48349 1.5456,-19 0,-13.21381 -0.2907,-15.5378 -3.2154,-26.19977 -2.6437,-9.63775 -3.2232,-13.60323 -3.2883,-22.5 -0.043,-5.94013 -0.3059,-10.23773 -0.5833,-9.55023 -0.2774,0.6875 -0.9754,1.25 -1.5511,1.25 -0.6571,0 -0.8477,-1.76823 -0.5122,-4.75 0.4539,-4.03417 1.2014,-5.35281 4.9599,-8.75 2.434,-2.2 5.7395,-4.65217 7.3456,-5.44927 8.8591,-4.39684 11.5868,-8.78179 11.5868,-18.6271 0,-7.74658 -0.921,-8.42363 -11.4585,-8.42363 -5.0718,0 -10.7934,-0.45288 -12.7148,-1.0064 -6.4657,-1.86267 -7.4633,3.68674 -1.3794,7.67307 1.799,1.17874 4.7244,1.66666 9.9926,1.66666 9.0361,0 9.5269,1.78515 0.8191,2.97926 -13.6575,1.87287 -18.4487,4.92171 -20.4931,13.04065 -1.3856,5.50299 -2.9326,6.09097 -2.9326,1.11464 0,-4.6419 2.1656,-9.66598 5.194,-12.04998 l 2.4363,-1.9179 -11.8154,0 c -8.438,0 -11.8153,0.33862 -11.8151,1.18462 5e-4,2.41656 2.9527,15.11699 4.0984,17.63165 0.7288,1.59937 2.8652,3.29359 5.5402,4.39348 5.3827,2.21316 5.5455,3.29025 0.4975,3.29025 -3.8518,0 -3.8661,0.0151 -4.5145,4.75 -0.3577,2.6125 -2.4299,12.175 -4.6048,21.25 -6.2885,26.23954 -6.5212,28.75792 -3.9898,43.18524 1.1885,6.77312 2.4061,14.02642 2.7059,16.11846 0.4137,2.88743 0.9139,3.66216 2.0762,3.21613 3.3331,-1.27903 4.0825,5.19711 2.0357,17.59132 l -1.1555,6.9964 4.0245,4.19623 c 4.5444,4.73829 5.0873,6.17804 6.2964,16.69622 2.8884,25.12879 4.0709,32.28947 6.5227,39.5 5.8567,17.22422 9.6891,22.80795 28.4832,41.5 15.4385,15.35457 22.119,24.12547 22.3463,29.33846 0.1705,3.91109 -2.2267,4.30092 -4.0679,0.66154 -1.6053,-3.17304 -1.5948,-2.3982 0.1097,8.10177 0.768,4.73098 3.1671,13.05598 5.3314,18.5 2.1643,5.44403 4.4891,12.59823 5.1663,15.89823 2.9322,14.28942 6.273,22.26479 14.8707,35.5 l 5.5217,8.5 -0.6447,21.59176 -0.6447,21.5917 8.2477,4.6582 c 4.5362,2.562 8.4051,4.1858 8.5975,3.6084 0.1925,-0.5773 -0.82,-2.8176 -2.25,-4.9784 -2.7667,-4.1809 -3.4141,-7.4066 -1.3499,-6.7265 2.0054,0.6607 7.8096,8.8029 8.408,11.7948 0.4875,2.4374 1.2018,2.869 6.4612,3.9037 8.1712,1.6076 29.7531,1.2471 45.7226,-0.7637 l 13.3417,-1.68 2.1583,-5.068 c 2.6175,-6.1465 5.3622,-10.432 6.6813,-10.432 1.5726,0 1.1449,2.3712 -1.5105,8.3756 -1.368,3.0935 -2.1555,5.6241 -1.75,5.6236 2.086,0 10.5868,-3.9041 12.3523,-5.6696 1.8959,-1.8959 1.9484,-2.4443 0.8071,-8.4287 -0.6715,-3.5205 -1.232,-13.2385 -1.2457,-21.5956 -0.024,-14.68163 0.062,-15.32327 2.5437,-19.00001 8.1472,-12.0697 12.6846,-22.09369 16.3115,-36.03495 2.3424,-9.00412 4.8629,-25.20922 4.0478,-26.02435 -0.7009,-0.70091 -4.901,1.90735 -9.3629,5.81447 -5.9804,5.23663 -11.4855,7.57382 -22.3454,9.48663 -13.6054,2.3964 -30.5701,0.76856 -35.2136,-3.37889 -2.6085,-2.32982 -3.6417,-4.57544 -2.761,-6.00054 0.5486,-0.88768 1.7623,-0.42558 4.4112,1.67949 2.7916,2.21848 5.4392,3.16957 11.2142,4.0285 10.7561,1.59977 13.5071,1.44254 25.6781,-1.46765 10.1421,-2.4251 11.1934,-2.91471 16.3217,-7.60173 3.0148,-2.75533 7.1197,-7.66391 9.1221,-10.90796 3.9137,-6.34074 6.9459,-7.94851 5.9375,-3.14827 -1.0599,5.04584 0.362,5.7586 7.774,3.89676 3.6057,-0.90572 7.4759,-1.64676 8.6003,-1.64676 3.0483,0 2.4782,2.86911 -0.7055,3.5503 -5.9781,1.2791 -11.1847,3.66849 -11.7287,5.38245 -0.3147,0.9917 -0.1147,3.00636 0.4444,4.47702 1.3806,3.63119 8.605,14.33801 12.4222,18.41016 6.9209,7.38312 23.5362,14.85133 30.8619,13.87182 2.0624,-0.27576 4.0326,-0.0439 4.3781,0.51524 1.258,2.03543 -2.2324,2.88717 -9.1279,2.22746 -13.5557,-1.29689 -15.1644,-1.13011 -18.3271,1.89992 -4.6476,4.45268 -7.988,12.31864 -10.6187,25.00481 -2.2697,10.94488 -3.4112,13.93438 -7.9887,20.92048 -1.643,2.5076 -1.6317,2.5704 0.3697,2.047 3.0101,-0.7871 2.6543,2.0845 -0.5727,4.6229 -3.6174,2.8454 -11.6101,5.0674 -18.294,5.0858 -3.0627,0.01 -6.0899,0.347 -6.7271,0.7525 -1.5904,1.0119 -0.4652,6.2321 1.3433,6.2321 1.1431,0 1.033,0.5844 -0.5181,2.75 -4.3321,6.0486 -9.2,9.8953 -14.727,11.6376 -6.5179,2.0546 -15.4396,9.8215 -15.4396,13.4412 0,2.1386 0.1815,2.105 6.8929,-1.2748 3.7911,-1.9092 9.0786,-4.0019 11.75,-4.6505 2.6714,-0.6487 5.7861,-2.0173 6.9216,-3.0414 2.4617,-2.2204 4.4355,-2.4118 4.4355,-0.4301 0,1.9971 -4.9462,5.307 -11.2113,7.5023 -2.9088,1.0192 -7.7637,3.0216 -10.7887,4.4497 -3.025,1.4281 -6.2875,2.6009 -7.25,2.6063 -1.7931,0.01 -2.4336,2.4692 -0.8913,3.4224 1.5235,0.9416 17.5599,-2.5759 20.1505,-4.4198 1.38,-0.9824 4.3796,-2.2897 6.6657,-2.9053 2.8069,-0.7558 5.13,-2.3317 7.1546,-4.8534 3.267,-4.0692 5.0925,-3.7983 3.6067,0.5354 -0.6468,1.8864 -2.6327,3.5895 -6.4246,5.5096 -3.0185,1.5286 -7.0685,3.8483 -9,5.1549 -2.0671,1.3984 -6.5349,2.8994 -10.8613,3.6488 -7.3264,1.269 -9.924,3.1307 -7.046,5.0496 1.6319,1.0881 6.3814,0.6993 13.3957,-1.0967 11.3637,-2.9096 13.3244,-3.9912 17.739,-9.7861 7.2046,-9.4573 9.7244,-7.7136 2.8089,1.9438 -4.1267,5.7628 -9.2807,8.8398 -17.3089,10.3335 -2.0686,0.3849 -4.0077,1.0988 -4.3091,1.5864 -1.0074,1.63 9.0173,0.8667 13.1259,-0.9995 z m -53.8891,-40.7805 c -1.2664,-1.2664 -0.6617,-5.398 0.8764,-5.9883 1.914,-0.7344 2.0265,-0.5971 2.7883,3.4049 0.5133,2.6966 0.3107,3.25 -1.1897,3.25 -0.9946,0 -2.1084,-0.3 -2.475,-0.6666 z m -35.7935,-13.0834 c -0.6684,-1.7058 -0.8432,-6.2324 -0.4606,-11.9221 l 0.6168,-9.1722 -4.0147,-4.6387 c -4.5646,-5.27394 -4.3973,-4.63625 -2.7023,-10.30307 1.3627,-4.55585 2.6876,-4.64852 2.6876,-0.18799 0,1.48091 1.4313,5.34341 3.1808,8.58336 2.8584,5.2938 3.1931,6.8027 3.3033,14.8907 0.067,4.95 0.4923,10.4625 0.9442,12.25 0.679,2.6854 0.5351,3.25 -0.828,3.25 -0.9074,0 -2.1346,-1.2375 -2.7271,-2.75 z m 62.7226,-2 c 0.4502,-2.0625 0.8378,-7.575 0.8613,-12.25 0.038,-7.5026 0.3775,-9.0693 2.8948,-13.352 1.5686,-2.66859 2.9186,-6.45685 3,-8.41835 0.1804,-4.34397 2.1683,-5.36903 2.9453,-1.51867 0.3095,1.53398 0.8453,3.51906 1.1907,4.41128 0.4099,1.05865 -0.7996,3.27172 -3.4814,6.37034 l -4.1095,4.7481 0.6475,9.1297 c 0.6962,9.8148 -0.3343,14.6296 -3.131,14.6296 -1.3694,0 -1.5027,-0.6112 -0.8177,-3.75 z m -38.0958,-5.8779 c -1.1,-0.2565 -3.6725,-1.1817 -5.7167,-2.056 -3.4124,-1.4596 -3.9211,-1.4558 -6.2148,0.047 -3.0953,2.0281 -3.5685,2.0395 -3.5685,0.086 0,-0.8531 1.5032,-2.1791 3.3404,-2.9468 2.8785,-1.2027 4.1237,-1.1911 9.005,0.084 6.6009,1.7238 8.7516,1.0085 10.6341,-3.5363 0.9848,-2.3775 1.0053,-4.7266 0.096,-10.9484 -1.1944,-8.16889 -0.7112,-13.10142 1.2834,-13.10048 0.7358,3.4e-4 1.2616,2.93259 1.4794,8.25 0.7689,18.77788 0.6973,20.64548 -0.8512,22.19268 -1.6832,1.6817 -6.4175,2.6443 -9.4867,1.9288 z m 32.6166,-0.7316 c -1.9106,-2.3021 -5.6206,-2.7456 -9.4797,-1.1332 -1.965,0.821 -4.0371,1.4927 -4.6048,1.4927 -2.097,0 -5.0321,-4.0828 -5.0321,-7 0,-3.7496 1.033,-3.8085 3.0984,-0.1767 1.3897,2.4436 2.0772,2.7546 5.2655,2.3824 5.4015,-0.6306 12.6603,0.6938 13.3271,2.4316 0.853,2.2227 -1.1188,3.7571 -2.5744,2.0032 z m 76.8834,-18.9855 c 0,-1.85418 2.2995,-3.68279 10.8016,-8.58952 5.2851,-3.05017 7.7527,-5.15999 8.9352,-7.63967 1.5267,-3.20146 4.2632,-4.72668 4.2632,-2.37611 0,1.82041 -2.7182,6.36547 -5.155,8.6195 -2.62,2.42351 -16.8086,11.3308 -18.049,11.3308 -0.4378,0 -0.796,-0.6052 -0.796,-1.345 z m -131.3992,-8.4919 c -0.2845,-0.46031 1.4889,-2.25104 3.941,-3.97939 2.452,-1.72835 4.4582,-3.59901 4.4582,-4.15702 0,-0.62162 3.0864,-0.92008 7.9689,-0.77061 7.3945,0.22637 8.1557,0.0578 10.5594,-2.33816 2.8894,-2.88007 3.2507,-5.73388 1.9839,-15.66788 -0.6826,-5.35193 -0.5714,-6.25 0.7734,-6.25 1.9012,0 3.2117,8.47249 2.4832,16.05432 -0.415,4.31938 -0.2405,4.94568 1.378,4.94568 1.0193,0 1.8532,0.6401 1.8532,1.42245 0,2.02614 6.5076,3.90694 11.2958,3.2647 3.8533,-0.51683 9.5088,1.39616 13.4432,4.54717 2.8942,2.31793 -0.1613,2.45101 -4.5113,0.19648 -4.0962,-2.12302 -5.1363,-2.29579 -7.7867,-1.29343 -4.5261,1.71179 -10.2374,0.28447 -13.8699,-3.46624 l -3.0711,-3.17113 -2.8757,2.75 c -2.5227,2.41242 -3.6592,2.75 -9.2587,2.75 -5.5052,0 -6.9524,0.41255 -10.5243,3 -4.0923,2.96443 -7.2353,3.78946 -8.2405,2.16306 z m -20.0005,-13.61951 c -0.6494,-2.58748 -1.5053,-2.88768 -7.3274,-2.57022 -4.8094,0.26224 -7.1278,-0.79208 -8.7839,-3.99454 -1.6937,-3.27532 -1.9867,-9.55317 -0.489,-10.47879 0.596,-0.36836 1,0.8381 1,2.98644 0,2.53418 0.7603,4.3648 2.5606,6.16508 2.9089,2.90885 4.1673,2.57715 2.4434,-0.64401 -1.1744,-2.19435 -0.7486,-5.00751 0.7578,-5.00751 0.4535,0 1.2552,1.42382 1.7814,3.16405 0.7946,2.62762 1.7403,3.38933 5.5784,4.49282 5.4905,1.57859 7.7294,3.7704 6.249,6.11743 -1.6329,2.58858 -3.085,2.49971 -3.7703,-0.23075 z m 83.215,0.73571 c -0.1931,-1.00234 -2.1913,-2.36719 -4.7862,-3.26916 -4.3538,-1.5133 -4.5077,-1.71719 -6.7852,-8.98912 -1.2816,-4.09239 -2.5048,-7.6152 -2.718,-7.82846 -0.2133,-0.21327 -3.4564,-1.13133 -7.2068,-2.04014 -5.7041,-1.3822 -6.8713,-2.02028 -7.1386,-3.90238 -0.3327,-2.34197 0.7348,-2.93034 2.3695,-1.30603 0.5225,0.51918 4.0527,1.43822 7.8448,2.04232 10.341,1.64734 10.9723,2.16828 10.3173,8.51398 -0.6395,6.19611 0.496,8.34346 6.3738,12.05396 2.4104,1.5216 3.9141,3.2344 3.9141,4.45831 0,2.43582 -1.7264,2.64658 -2.1847,0.26672 z m 11.1847,-1.18424 c 0,-0.49774 1.9131,-2.0261 4.2512,-3.39636 6.6946,-3.92328 8.1203,-5.97394 7.3785,-10.61278 -0.7622,-4.76699 0.9148,-6.40921 2.4469,-2.39605 1.0439,2.73445 1.112,2.75681 2.5269,0.82963 0.902,-1.2285 1.2232,-3.03216 0.8459,-4.75 -0.3616,-1.64624 -0.1848,-2.76946 0.436,-2.76946 1.8172,0 3.3204,4.09074 2.7027,7.3553 -0.6296,3.32785 -7.5552,11.66475 -12.2756,14.77712 -2.9161,1.92273 -8.3125,2.54764 -8.3125,0.9626 z m -83.8195,-3.28997 c 0.2514,-1.72699 1.5787,-2.5678 6.2258,-3.9438 3.2484,-0.96187 6.2356,-2.28177 6.6381,-2.9331 0.4026,-0.65134 1.0143,-3.31331 1.3595,-5.91549 0.9092,-6.85334 2.8006,-8.15204 11.365,-7.80353 5.8574,0.23836 7.3912,-0.0441 9.218,-1.69728 l 2.1914,-1.98321 -0.3391,2.98568 c -0.3341,2.94112 -0.4484,2.99543 -7.6534,3.63877 -4.73,0.42236 -7.9781,1.25392 -9.1933,2.3537 -1.7565,1.58963 -3.655,6.92602 -3.1479,8.84847 0.4511,1.71011 -2.109,3.57096 -7.1716,5.21286 -2.8451,0.92275 -5.6005,2.07241 -6.123,2.5548 -1.8121,1.67302 -3.6976,0.93558 -3.3695,-1.31787 z m 79.8195,-6.73696 c 0,-0.51254 1.3568,-1.89802 3.0151,-3.07883 3.9501,-2.81274 6.2685,-7.31875 6.9404,-13.48926 0.6124,-5.62349 2.38,-6.70591 2.8579,-1.75 0.1723,1.7875 0.6948,3.25 1.1611,3.25 1.704,0 5.9636,-6.15299 6.597,-9.52944 0.8001,-4.26462 2.4285,-4.57285 2.4285,-0.45966 0,4.76498 -3.7584,11.71649 -7.1339,13.19481 -1.6254,0.71186 -4.067,3.18604 -5.4258,5.49819 -1.3588,2.31214 -3.4639,4.89964 -4.6779,5.75 -2.4432,1.71127 -5.7624,2.06506 -5.7624,0.61419 z m 106.6691,-5.78259 c -0.3398,-2.63202 -0.9069,-5.798 -1.2601,-7.0355 -0.9751,-3.41618 2.0882,-2.87815 3.5377,0.62136 1.3957,3.36946 1.0412,10.31408 -0.5532,10.83684 -0.6538,0.21436 -1.3593,-1.59522 -1.7244,-4.4227 z m -194.1691,0.7145 c -2.0502,-1.3578 -4.6938,-1.98891 -8.35,-1.99341 -4.7467,-0.006 -5.7334,-0.38996 -8.75,-3.40659 -3.0285,-3.02854 -3.4,-3.99094 -3.4,-8.80887 0,-3.20773 0.5975,-6.19881 1.4682,-7.35 1.3458,-1.77933 1.4708,-1.45542 1.5,3.88579 0.028,5.08505 0.404,6.19909 2.9549,8.75 3.2841,3.28415 5.6647,3.88942 4.6139,1.17308 -2.6068,-6.73811 -0.8425,-10.3102 1.8773,-3.80089 1.106,2.64707 2.8532,4.16191 7.5134,6.5144 4.3618,2.20182 6.0723,3.62461 6.0723,5.05089 0,2.51396 -1.689,2.50954 -5.5,-0.0144 z m 175.2465,-11.75 c -0.8565,-2.0625 -2.0752,-5.14188 -2.7082,-6.84306 -0.633,-1.70118 -3.3756,-5.28426 -6.0946,-7.96241 -5.2004,-5.12218 -5.9076,-6.44453 -3.4466,-6.44453 4.5501,0 15.5029,15.64233 15.5029,22.14046 0,3.95759 -1.3993,3.57461 -3.2535,-0.89046 z m -165.2465,-7.83723 c -1.1,-0.26929 -5.15,-1.20998 -9,-2.0904 -8.7007,-1.98969 -11.6601,-3.44395 -18.0848,-8.88694 -6.8375,-5.7927 -9.9037,-12.8043 -11.2766,-25.78712 -1.1146,-10.54016 -2.7298,-14.30896 -6.3537,-14.82553 -1.2455,-0.17753 -2.4146,-1.11028 -2.598,-2.07278 -0.4302,-2.25705 3.473,-2.37697 6.578,-0.2021 2.206,1.5451 2.2088,1.53943 1.5681,-3.1348 -0.5161,-3.76553 -0.3667,-4.59287 0.7626,-4.22406 3.0444,0.99422 4.3092,6.23741 4.8998,20.31096 0.5251,12.51341 0.8651,14.53092 3.2028,19 4.793,9.16333 11.4651,13.4113 25.0573,15.95337 15.0366,2.8122 25.4652,2.80841 36.9945,-0.0135 3.7988,-0.92976 3.742,1.99576 -0.077,3.97067 -2.8535,1.47561 -27.468,3.0316 -31.6729,2.00218 z m 35.8501,-13.95014 c 0.3574,-2.60798 0.6499,-10.30397 0.6499,-17.1022 0,-10.13366 0.2614,-12.36043 1.4507,-12.36043 1.2186,0 1.4154,2.67823 1.2302,16.74012 -0.2041,15.49376 -0.3605,16.76708 -2.1006,17.1022 -1.6968,0.32676 -1.8168,-0.10046 -1.2302,-4.37969 z m 63.099,-23.90005 c -3.126,-4.77074 -5.6225,-17.56258 -3.4277,-17.56258 0.5618,0 1.394,1.0125 1.8494,2.25 1.854,5.03876 5.1292,15.69429 5.1292,16.68742 0,1.87472 -1.905,1.13714 -3.5509,-1.37484 z m -55.228,-13.81258 c 0.2133,-0.6875 2.0318,-2.06549 4.0412,-3.0622 4.3507,-2.15813 21.7377,-3.66276 21.7377,-1.88113 0,1.08268 -1.7098,1.49411 -11.2882,2.71635 -2.6336,0.33605 -6.3316,1.25584 -8.2179,2.04399 -4.2253,1.76544 -6.7869,1.84017 -6.2728,0.18299 z m -24.7211,-3.8114 c -2.75,-1.56567 -7.1375,-3.36224 -9.75,-3.99238 -6.2553,-1.50878 -6.2239,-3.34231 0.047,-2.73976 6.8816,0.66123 16.2032,5.11297 16.2032,7.73822 0,2.55468 -0.3376,2.50244 -6.5,-1.00608 z m 23.5,-5.78883 c 0,-1.93189 0.5136,-2.12846 5.2741,-2.01871 4.2253,0.0974 6.7097,-0.60137 12.4931,-3.51384 11.2975,-5.6893 29.1231,-7.14107 30.0274,-2.44552 0.2595,1.34757 -0.9354,1.57363 -7.9948,1.51255 -7.4303,-0.0643 -9.2426,0.32338 -17.2998,3.70066 -6.082,2.54936 -11.1885,3.9561 -15.75,4.33882 -6.4072,0.53758 -6.75,0.45766 -6.75,-1.57396 z m -59.25,-2.8391 c -0.9625,-0.25152 -1.7498,-0.98682 -1.7496,-1.63399 3e-4,-0.79395 2.4398,-1.19004 7.5,-1.21774 5.099,-0.0279 7.4996,0.33487 7.4996,1.13336 0,2.0348 -8.0461,3.07829 -13.25,1.71837 z m -21.7495,-3.43412 c -4.2675,-1.70168 -6.819,-4.88884 -9.9664,-12.44933 -2.7931,-6.70923 -4.0848,-15.43178 -2.2841,-15.42396 0.4125,0.002 2.068,3.26429 3.6788,7.25 4.1692,10.31586 7.9481,15.51361 12.6452,17.39302 4.5846,1.8344 5.2838,4.38502 1.176,4.29033 -1.5125,-0.0349 -3.8748,-0.51189 -5.2495,-1.06006 z m -26.3906,-8.12655 c -0.1801,-0.6875 -1.0401,-4.99767 -1.9111,-9.57816 -1.7825,-9.37368 -2.1427,-9.9592 -9.4476,-15.35565 -5.4387,-4.01778 -6.7559,-6.81619 -3.2084,-6.81619 3.0677,0 11.4652,8.4215 13.747,13.78624 2.4158,5.67983 4.5898,15.78209 3.8252,17.77479 -0.6792,1.76987 -2.5601,1.88814 -3.0051,0.18897 z m 98.3901,-9.775 c 0,-0.56375 1.3558,-1.29617 3.013,-1.62759 2.0888,-0.41777 3.1989,-1.34364 3.6193,-3.01856 0.6572,-2.61834 2.6753,-2.65483 3.1792,-0.0575 0.4754,2.45059 -3.4223,5.72865 -6.8115,5.72865 -1.65,0 -3,-0.46125 -3,-1.025 z m -87.6848,-20.07688 c -5.5664,-1.61062 -12.0255,-9.38735 -18.6031,-22.39812 -6.4879,-12.83339 -9.0275,-39.4981 -3.7621,-39.50022 0.3025,-1.2e-4 0.55,4.85152 0.55,10.78143 l 0,10.78166 7.2171,14.46857 c 3.9694,7.95771 8.9194,16.3935 11,18.74621 3.3792,3.82111 4.5097,4.41063 10.5925,5.52372 3.7453,0.68535 6.4828,1.57291 6.0833,1.97236 -0.9899,0.98997 -9.1701,0.75502 -13.0777,-0.37561 z m -20.1464,-5.58277 c -0.5646,-1.05489 -2.8657,-6.53441 -5.1136,-12.17671 -5.5324,-13.88663 -9.3217,-21.15155 -12.5905,-24.13864 -5.8377,-5.33462 -10.2631,-13 -7.5052,-13 2.841,0 11.7673,12.70505 20.4433,29.09745 7.4427,14.06219 9.1028,18.82552 7.2179,20.7104 -1.2339,1.23397 -1.5634,1.1678 -2.4519,-0.4925 z m -15.1105,-100.56535 c -3.7071,-8.61279 -3.4569,-21.9237 0.6721,-35.75 1.9001,-6.36269 2.854,-7.81565 4.2285,-6.44109 0.6119,0.61189 0.069,4.37462 -1.5,10.3972 -2.9681,11.39287 -3.1531,20.63535 -0.5784,28.90766 1.0342,3.32308 1.6342,6.28817 1.3333,6.58909 -1.298,1.29806 -2.4417,0.27902 -4.1555,-3.70286 z m 198.6331,291.65496 c 5.1137,-3.207 11.8292,-15.6449 13.2508,-24.5422 2.0144,-12.60661 8.1612,-27.9472 12.9191,-32.24203 l 2.0819,-1.87927 -3.7216,-2.70044 c -5.3532,-3.88436 -13.3607,-12.9422 -16.2406,-18.3707 -2.6312,-4.95992 -3.981,-5.8927 -3.981,-2.75109 0,1.05557 -1.137,7.69307 -2.5266,14.75 -2.7842,14.13923 -7.2383,24.90208 -14.7158,35.55933 l -4.2576,6.06805 -0.3508,12.86775 c -0.193,7.0772 -0.084,13.5631 0.2421,14.413 0.4937,1.2865 1.8085,1.4328 7.8509,0.8736 3.9918,-0.3694 8.2439,-1.2901 9.4492,-2.046 z m -62.9436,-185.15496 c 5.9961,-4.56217 11.9741,-13.64497 14.7369,-22.3908 2.2822,-7.22468 2.5148,-9.55597 2.5097,-25.16082 0,-9.45911 -0.4972,-18.99838 -1.0982,-21.19838 -1.4332,-5.24683 -5.0708,-9.95043 -10.2259,-13.22261 -3.7058,-2.35225 -5.4,-2.69531 -15.211,-3.08006 -9.8217,-0.38517 -11.6207,-0.18347 -16.2935,1.8267 -6.2807,2.70189 -11.5167,8.43725 -13.5721,14.86668 -2.0941,6.5504 -2.8854,21.99946 -1.6931,33.05621 1.4089,13.06525 4.9506,20.11596 15.2215,30.30308 l 7.8138,7.75 7.0988,0 c 6.2012,0 7.5557,-0.3477 10.7131,-2.75 z M 1770.2217,333.07094 c 2.0651,-2.06511 2.8469,-38.51391 1.1679,-54.45552 -0.546,-5.18473 -1.1291,-9.56314 -1.2958,-9.7298 -0.1666,-0.16665 -4.1362,-0.59765 -8.8212,-0.95776 -10.9775,-0.8438 -21.4937,0.22915 -22.278,2.273 -0.3201,0.83408 -1.1148,8.07158 -1.7661,16.08333 -0.9219,11.34055 -0.9134,17.85758 0.038,29.42482 0.6724,8.1719 1.4699,15.50256 1.7722,16.29036 0.3023,0.78779 2.1986,1.63716 4.2139,1.88748 4.9375,0.61328 26.1823,-0.0294 26.9688,-0.81591 z m 107.1933,-0.52488 c 2.544,-4.75344 2.0636,-60.27498 -0.544,-62.88351 -0.8775,-0.87773 -23.8271,-1.46049 -27.8435,-0.70702 -3.2182,0.60374 -3.357,0.82564 -3.9771,6.35613 -2.2553,20.11341 -1.4232,52.01756 1.499,57.47773 0.8274,1.54612 2.6398,1.75283 15.3677,1.75283 13.3969,0 14.5061,-0.14286 15.4979,-1.99616 z m -87.7288,-26.75384 c -0.9576,-3.42411 -0.9814,-9.1646 -0.066,-16 0.6858,-5.12266 0.6421,-5.25 -1.8011,-5.25 -3.4494,0 -5.6756,5.49575 -5.8032,14.32649 -0.1074,7.43602 1.3062,9.67351 6.1116,9.67351 2.0593,0 2.2392,-0.3173 1.5589,-2.75 z m 12.6991,2 c -0.017,-0.4125 -0.6925,-1.62351 -1.5,-2.69113 -1.8622,-2.4621 -1.8511,-7.54374 0.032,-14.55887 1.9225,-7.16232 1.9528,-7 -1.3089,-7 -4.6464,0 -6.1928,1.93724 -7.1926,9.01031 -1.2877,9.11035 -0.074,13.19776 4.4668,15.03817 2.613,1.05916 5.5438,1.16649 5.5029,0.20152 z m 4.238,-12.34552 c 1.0135,-0.56719 2.6689,-0.52227 4.3533,0.11813 1.4948,0.56834 2.801,0.90826 2.9026,0.75537 0.1016,-0.15289 0.6895,-2.52798 1.3066,-5.27798 0.9784,-4.3609 0.9052,-5.16547 -0.5734,-6.29459 -2.1554,-1.64595 -6.1791,-0.72978 -8.4204,1.91725 -2.1433,2.53133 -3.7863,8.25981 -3.6932,12.87734 l 0.071,3.5 1.2093,-3.34015 c 0.6651,-1.83708 1.9452,-3.752 2.8447,-4.25537 z m 32.7938,0.59552 c 0,-4.13333 -0.2037,-4.5 -2.5,-4.5 -2.0231,0 -2.5,0.49402 -2.5,2.58971 0,2.01641 3.0828,6.15515 4.75,6.37702 0.1375,0.0183 0.25,-1.99173 0.25,-4.46673 z m -61.3107,-2.25 c -0.2515,-0.9625 -0.4573,-0.175 -0.4573,1.75 0,1.925 0.2058,2.7125 0.4573,1.75 0.2516,-0.9625 0.2516,-2.5375 0,-3.5 z m 49.3432,2.75 3.7824,0 0.3426,-5.6801 c 0.4109,-6.81422 -0.7256,-8.3199 -6.28,-8.3199 -3.5488,0 -4.1243,0.35177 -5.3166,3.25 -0.7354,1.7875 -1.6633,5.22891 -2.0618,7.64757 l -0.7248,4.39756 3.2379,-0.64756 c 1.7808,-0.35617 4.9399,-0.64757 7.0203,-0.64757 z"
       id="path3399"
       inkscape:connector-curvature="0" />
  </g>
</svg>
