<?xml version="1.0" encoding="UTF-8" standalone="no"?>
<!-- Created with Inkscape (http://www.inkscape.org/) -->

<svg
   xmlns:dc="http://purl.org/dc/elements/1.1/"
   xmlns:cc="http://creativecommons.org/ns#"
   xmlns:rdf="http://www.w3.org/1999/02/22-rdf-syntax-ns#"
   xmlns:svg="http://www.w3.org/2000/svg"
   xmlns="http://www.w3.org/2000/svg"
   xmlns:sodipodi="http://sodipodi.sourceforge.net/DTD/sodipodi-0.dtd"
   xmlns:inkscape="http://www.inkscape.org/namespaces/inkscape"
   width="899.87421"
   height="464.901"
   id="svg2"
   version="1.1"
   inkscape:version="0.48.3.1 r9886"
   sodipodi:docname="Lying-rear-lateral-raise-2.svg">
  <defs
     id="defs4" />
  <sodipodi:namedview
     id="base"
     pagecolor="#ffffff"
     bordercolor="#666666"
     borderopacity="1.0"
     inkscape:pageopacity="0.0"
     inkscape:pageshadow="2"
     inkscape:zoom="0.98994949"
     inkscape:cx="385.00399"
     inkscape:cy="153.04062"
     inkscape:document-units="px"
     inkscape:current-layer="layer1"
     showgrid="false"
     fit-margin-top="0"
     fit-margin-left="0"
     fit-margin-right="0"
     fit-margin-bottom="0"
     inkscape:window-width="1378"
     inkscape:window-height="738"
     inkscape:window-x="211"
     inkscape:window-y="83"
     inkscape:window-maximized="0" />
  <metadata
     id="metadata7">
    <rdf:RDF>
      <cc:Work
         rdf:about="">
        <dc:format>image/svg+xml</dc:format>
        <dc:type
           rdf:resource="http://purl.org/dc/dcmitype/StillImage" />
        <dc:title></dc:title>
      </cc:Work>
    </rdf:RDF>
  </metadata>
  <g
     inkscape:label="Ebene 1"
     inkscape:groupmode="layer"
     id="layer1"
     transform="translate(-18.539916,-431.90691)">
    <path
       style="fill:#000000"
       d="m 304.26606,894.8079 c -0.99501,-1.5933 -2.33203,-2 -6.57422,-2 -2.92886,0 -6.30681,-0.5254 -7.50657,-1.1674 -1.19975,-0.6421 -4.27178,-1.0721 -6.82672,-0.9555 -6.04536,0.2758 -10.07266,-2.8458 -10.24451,-7.9408 -0.0762,-2.2591 -0.88673,-4.0607 -2.36591,-5.2589 -3.89737,-3.157 -2.99936,-7.0348 3.12663,-13.5016 2.95715,-3.1217 6.39422,-7.7008 7.63792,-10.1758 1.24371,-2.475 5.22505,-7.2 8.84743,-10.5 3.62239,-3.30004 10.52004,-9.91494 15.32813,-14.69974 9.91673,-9.8687 10.65263,-10.1876 27.12783,-11.7549 13.38446,-1.2732 20.92719,-3.3991 25.01323,-7.05 3.02422,-2.7021 3.14137,-3.1031 3.11216,-10.6516 -0.0402,-10.3867 -2.99864,-19.701 -9.47912,-29.8438 -2.81127,-4.4 -7.30822,-12.3393 -9.99321,-17.643 -5.33838,-10.5448 -6.971,-18.5483 -6.971,-34.1737 0,-4.328 -0.92173,-12.3921 -2.04829,-17.9203 -1.72108,-8.4454 -2.47991,-10.3868 -4.75,-12.152 -4.80986,-3.7402 -8.16886,-7.9632 -11.21544,-14.1001 -2.82467,-5.69 -14.55515,-35.4328 -15.88051,-40.2653 -0.42426,-1.547 -2.95957,-3.4298 -8.07902,-6 -7.90285,-3.9676 -8.9007,-5.0295 -18.52674,-19.7175 -9.69403,-14.7917 -11.5294,-18.0626 -12.10757,-21.5774 -0.51711,-3.1435 -1.11593,-3.7385 -5.23814,-5.2051 -10.9099,-3.8813 -25.85136,-15.1323 -33.06357,-24.897 l -4.17412,-5.6514 -6.2083,0.5069 c -7.49502,0.6118 -12.76543,2.9216 -14.36618,6.2959 -0.65228,1.375 -2.616,5.5714 -4.36381,9.3254 -3.37959,7.2587 -7.23433,10.6639 -12.07946,10.6709 -2.4286,0 -2.97485,0.9821 -8.2347,14.7537 -3.09845,8.1125 -7.22008,19.4647 -9.15917,25.2271 -3.70812,11.0195 -7.02799,26.3676 -6.04682,27.9552 0.31817,0.5148 2.10917,0.6876 3.98001,0.384 5.31157,-0.8619 32.65277,2.5708 45.47257,5.7092 26.81661,6.5649 55.83213,21.507 69.13192,35.6009 7.48977,7.937 9.29948,11.1822 12.7554,22.8736 4.16666,14.0958 5.54681,23.2562 5.49922,36.5 -0.0352,9.7989 -0.41149,12.4668 -2.54372,18.0354 -6.15627,16.0781 -13.33572,26.1915 -25.11,35.3715 -19.92764,15.5368 -33.18319,21.1188 -59.55708,25.0801 -24.56282,3.6893 -45.54831,3.8107 -93.3919,0.5403 -27.478224,-1.8783 -45.925294,-7.331 -66.398734,-19.6268 -13.41156,-8.0545 -17.53095,-12.0076 -21.77968,-20.9005 -9.82179,-20.5576 -11.13788,-42.4816 -3.78186,-63 6.1082,-17.0378 19.59605,-33.3042 37.30347,-44.988 4.10422,-2.7081 10.97861,-8.0933 15.27643,-11.9671 9.65016,-8.6981 9.25083,-8.48 25.685794,-14.0248 17.61167,-5.9417 21.13001,-7.9549 22.80621,-13.0498 0.75434,-2.2928 1.68543,-12.9435 2.20374,-25.2084 0.74529,-17.6358 0.63592,-22.7244 -0.64479,-30 -0.84827,-4.8191 -1.92011,-11.0119 -2.38186,-13.7619 -0.46176,-2.75 -0.58384,-9.1147 -0.27129,-14.1439 l 0.56827,-9.1439 -5.58471,-7.1375 c -11.81665,-15.1022 -15.07969,-23.8021 -15.03068,-40.0747 0.0388,-12.8682 1.97644,-21.3421 7.30231,-31.9348 7.0615,-14.0446 18.32855,-24.0075 33.79125,-29.8798 5.93009,-2.2522 8.30633,-2.5679 19.74155,-2.6229 10.8236,-0.052 14.20145,0.3153 20.17647,2.1939 8.91855,2.8042 16.52007,9.3583 22.47022,19.3738 2.24468,3.7784 4.36746,6.8747 4.71728,6.8806 0.34981,0.01 2.7479,0.6517 5.32908,1.4351 l 4.69306,1.4242 2.46808,-4.1851 c 5.51618,-9.3535 17.11451,-18.5914 29.44931,-23.4558 6.35437,-2.5059 7.79497,-2.6608 28.1965,-3.0323 29.26443,-0.5329 61.20969,1.9187 83.5,6.4082 4.4,0.8862 12.51116,3.3224 18.0248,5.4139 8.31675,3.1547 12.9171,4.1596 27,5.8983 l 16.9752,2.0957 7,-3.5088 c 5.2641,-2.6387 8.8213,-3.67 14.34437,-4.1589 6.25153,-0.5533 9.00435,-1.492 18.5,-6.3081 14.07936,-7.1409 20.14521,-8.4726 35.4081,-7.7733 15.96551,0.7315 25.50953,3.6596 47.74753,14.6489 17.76591,8.7793 24.57404,11.0819 32.79922,11.0928 5.77149,0.01 11.10954,1.631 14.41973,4.3852 2.41002,2.0052 4.24859,2.392 13.78105,2.8994 11.78948,0.6274 22.15082,3.161 35.41884,8.6605 4.08037,1.6913 9.93037,3.7541 13,4.584 l 5.58116,1.5089 19,-9.477 c 25.58803,-12.7631 32.11231,-14.7295 49.5,-14.9193 l 13.5,-0.1473 13.5,4.9097 c 12.41466,4.515 14.37203,4.9422 24.34671,5.3142 20.8211,0.7763 37.0694,-3.1965 46.9373,-11.4764 6.0553,-5.0808 10.0477,-6.4602 20.216,-6.985 8.2277,-0.4246 9.2929,-0.2628 12.413,1.8865 5.1171,3.5249 7.5074,8.9771 7.9353,18.101 0.1999,4.2625 0.6777,7.75 1.0618,7.75 0.3841,0 2.9239,-1.4123 5.6441,-3.1384 6.2109,-3.9412 14.5815,-6.8616 19.667,-6.8616 2.1494,0 6.1208,0.9519 8.8254,2.1154 4.2667,1.8355 5.266,2.8524 7.5526,7.6858 4.0537,8.569 4.3842,21.4356 1.0324,40.1988 -3.8475,21.5381 -4.9143,36.3017 -3.5965,49.7762 1.6781,17.1601 -0.9479,23.1693 -16.3522,37.4187 l -10.0592,9.3051 -8.0619,0.3824 c -16.3867,0.7773 -20.9306,-0.01 -24.4238,-4.2161 -0.8483,-1.0221 -2.3963,-1.3072 -5.1167,-0.9423 -5.8496,0.7846 -8.8798,-0.3698 -11.1729,-4.2563 -1.1253,-1.9072 -2.6438,-3.4677 -3.3746,-3.4677 -0.7308,0 -2.1831,-1.0863 -3.2275,-2.414 -1.0444,-1.3277 -3.4395,-3.0697 -5.3226,-3.8711 -5.9483,-2.5316 -8.4221,-6.1136 -8.435,-12.2139 -0.01,-4.6016 -0.3838,-5.6306 -2.7128,-7.4626 -4.4274,-3.4827 -4.5147,-7.5341 -0.3655,-16.9711 1.9743,-4.4903 3.5834,-9.3799 3.5759,-10.8657 -0.018,-3.466 -1.0171,-7.2016 -1.9272,-7.2016 -0.3891,0 -6.363,3.3603 -13.2752,7.4674 -6.9122,4.1071 -16.0463,8.8493 -20.2981,10.5382 -8.94407,3.553 -33.14737,10.9941 -35.76056,10.9943 -0.97611,0 -2.16673,1.0311 -2.64583,2.2912 -1.19735,3.1493 -2.11792,3.7967 -14.22756,10.0056 -9.66802,4.957 -11.4235,5.5144 -19.48215,6.1857 -7.08247,0.5899 -10.16013,1.3938 -15.36321,4.0127 -8.68302,4.3704 -22.06188,9.0216 -31.67223,11.0107 -10.28933,2.1297 -32.02279,4.6955 -40.83427,4.8208 -7.46405,0.1061 -30.11076,-2.4326 -42.5,-4.7642 -8.14529,-1.533 -20.92253,-0.7451 -25.21838,1.555 -1.42136,0.7611 -6.80608,1.2346 -14.28162,1.256 -10.96823,0.031 -12.55888,-0.2064 -18.5,-2.7646 -15.67345,-6.7487 -21.3598,-8.6722 -27.23625,-9.2132 -7.96567,-0.7334 -12.11871,-2.0109 -16.64977,-5.1216 -3.35124,-2.3007 -4.26828,-2.4471 -12.61398,-2.0141 -9.61543,0.499 -14.82592,2.1537 -19.70207,6.2567 -3.98822,3.3558 -17.38173,9.9984 -21.79968,10.8116 -1.92404,0.3541 -8.89825,1.1075 -15.49825,1.6742 -6.6566,0.5716 -13.47755,1.7263 -15.31823,2.5933 -1.82503,0.8596 -5.80217,1.8193 -8.8381,2.1326 -5.31926,0.549 -5.49972,0.6642 -4.9656,3.1707 0.30484,1.4306 1.27725,7.9648 2.16091,14.5206 1.2866,9.545 2.28245,13.2615 4.99903,18.6559 1.86581,3.705 4.14971,9.7513 5.07533,13.4362 0.99901,3.9771 3.05354,8.5872 5.05555,11.3441 7.41238,10.2072 8.40945,14.6953 6.19277,27.8756 -1.05951,6.2998 -0.95245,7.3573 1.54576,15.2686 3.67151,11.6269 4.92683,29.3967 4.2033,59.5 -0.78015,32.4589 -2.02291,50.8799 -3.88891,57.6437 -1.16178,4.2112 -1.31722,6.7108 -0.61241,9.8477 0.51951,2.3122 0.66227,5.70884 0.31722,7.54804 -2.03592,10.8525 -17.83244,20.1684 -41.39159,24.4106 -13.54578,2.4391 -18.37495,4.87 -28.26063,14.2257 -10.39197,9.8349 -14.12613,11.8243 -22.194,11.8243 -5.48045,0 -6.76955,-0.33 -7.81247,-2 z m 13.84256,-3.6195 c 1.87702,-0.8907 4.5875,-3.0282 6.02329,-4.75 4.45861,-5.3467 13.3903,-12.3954 20.32294,-16.0384 5.03829,-2.6476 9.0776,-3.8532 16.75705,-5.0014 12.71671,-1.9014 21.36607,-4.74 27.84746,-9.1391 6.86239,-4.6576 9.43877,-9.4601 9.43877,-17.59444 0,-3.5037 0.50552,-7.9424 1.12338,-9.8638 0.61786,-1.9214 1.47993,-10.6934 1.91571,-19.4934 0.43579,-8.8 1.29625,-25.2955 1.91214,-36.6566 0.95169,-17.5555 0.88928,-22.1985 -0.41571,-30.9262 -0.84454,-5.6482 -1.53552,-12.1059 -1.53552,-14.3504 0,-2.2445 -1.1769,-8.1277 -2.61534,-13.0738 -2.11825,-7.2837 -2.65207,-11.3688 -2.80862,-21.493 l -0.19329,-12.5 -5.09182,-9.5 c -2.80051,-5.225 -5.40822,-10.625 -5.79491,-12 -0.3867,-1.375 -2.54515,-6.325 -4.79655,-11 -3.75372,-7.7945 -4.15303,-9.413 -4.81102,-19.5 -1.06283,-16.293 -2.82582,-20.0953 -16.11359,-34.7524 -6.87847,-7.5873 -10.72447,-14.3013 -10.73924,-18.7476 -0.0242,-7.2808 3.34644,-9.617 4.45011,-3.0844 0.79632,4.7133 3.4837,8.8243 14.01427,21.4382 7.96369,9.5392 8.02088,9.5828 12.60078,9.6144 5.93407,0.041 10.58444,-1.5797 14.66756,-5.1119 1.79759,-1.5551 4.45474,-3.1252 5.90478,-3.4891 2.91736,-0.7322 5.99222,0.7603 5.5289,2.6837 -0.48071,1.9955 15.24162,0.5576 22.041,-2.0158 3.15867,-1.1955 8.33367,-4.1047 11.5,-6.465 10.66763,-7.9521 14.85247,-9.2137 33.61715,-10.1346 7.77691,-0.3816 14.97805,-1.1287 16.00253,-1.6602 1.74956,-0.9076 1.71203,-1.0668 -0.61778,-2.6208 -1.36427,-0.91 -4.33175,-2.9463 -6.5944,-4.5253 -2.45605,-1.7138 -5.93475,-3.076 -8.63222,-3.38 -2.87662,-0.3243 -4.5183,-1.0001 -4.5183,-1.8602 0,-3.7866 12.37553,-1.7826 18.94428,3.0678 5.09103,3.7592 7.3148,3.3266 11.34498,-2.2068 5.18754,-7.1224 7.30751,-11.9263 9.09387,-20.607 2.32123,-11.2797 2.07139,-18.4358 -0.95894,-27.4667 -5.8603,-17.4646 -13.17375,-26.6426 -30.33309,-38.0666 -6.3751,-4.2443 -13.69944,-8.9321 -16.27629,-10.4175 -4.63897,-2.6739 -4.74216,-2.6857 -10.4601,-1.1964 -13.22782,3.4454 -49.64724,1.0258 -68.02387,-4.5193 -3.39304,-1.0238 -11.83054,-2.645 -18.75,-3.6027 -6.91946,-0.9577 -12.58084,-2.178 -12.58084,-2.7118 0,-1.7498 23.8413,0.046 30.34933,2.2855 11.53689,3.9706 21.44504,5.282 43.77743,5.794 24.54811,0.5628 28.58129,-0.1735 19.21784,-3.5086 -3.92262,-1.3972 -9.46192,-2.2663 -16.8446,-2.6429 -18.41569,-0.9395 -36.32364,-4.0649 -49.30336,-8.6048 -9.94224,-3.4774 -14.99647,-4.5256 -33.69664,-6.9882 -68.40526,-9.008 -100.63345,-4.0796 -113.2595,17.32 l -2.22478,3.7707 3.49214,-0.6552 c 3.99909,-0.7502 4.5589,0.5007 1.56422,3.4954 -2.21842,2.2184 -9.42891,3.5558 -15.0826,2.7975 -2.13561,-0.2864 -6.53475,-1.5491 -9.77589,-2.8058 -5.30099,-2.0556 -6.1155,-2.7702 -8.10823,-7.1139 -1.2184,-2.6559 -4.55304,-7.2199 -7.41031,-10.1423 -6.17016,-6.3107 -11.59081,-8.4931 -23.20186,-9.3413 -17.58924,-1.2848 -32.57596,4.1902 -44.83099,16.3777 -8.36845,8.3224 -11.00557,12.7392 -13.01887,21.8047 -6.88038,30.9811 0.18023,47.1094 32.24714,73.6612 18.15503,15.0326 23.06098,17.8343 31.22915,17.8343 7.06994,0 10.17801,-2.2804 14.58181,-10.6986 4.71453,-9.0122 13.29857,-34.1283 13.29857,-38.9104 0,-0.7619 -1.63811,-3.1984 -3.64024,-5.4145 -2.00213,-2.2162 -3.33436,-4.3352 -2.96052,-4.7091 1.21195,-1.2119 7.75952,3.0723 10.21266,6.6825 2.7676,4.0729 2.9198,6.4807 0.8881,14.0501 -0.81194,3.025 -1.4816,7.4789 -1.48813,9.8976 l -0.0119,4.3976 9.36585,-0.6583 c 5.15122,-0.3621 12.41833,-1.6165 16.14913,-2.7876 8.10523,-2.5441 13.77466,-1.8257 14.29283,1.8111 0.29217,2.0506 0.0127,2.1338 -5.5,1.6373 -5.02887,-0.453 -6.0633,-0.2398 -7.7128,1.5896 -1.04774,1.162 -2.73524,2.1127 -3.75,2.1127 -2.64199,0 -2.2909,1.724 1.30378,6.4021 5.36809,6.9861 19.23,16.9181 28.85121,20.6717 4.40724,1.7195 4.5463,1.7127 6.74606,-0.3297 3.12597,-2.9023 3.78385,-1.6313 2.3294,4.5003 -1.55142,6.5404 -0.76833,8.8338 5.92429,17.35 2.70849,3.4465 5.86856,8.2747 7.02237,10.7293 4.55764,9.6959 10.51263,13.2696 26.8291,16.1006 9.64783,1.6739 12.38855,3.5148 11.9473,8.0246 -0.34339,3.5097 -2.52304,4.0565 -4.18953,1.0511 -1.5515,-2.798 -2.68935,-3.4671 -5.92638,-3.4847 -2.47122,-0.013 -2.7287,0.2612 -2.09561,2.2347 0.39698,1.2375 1.0352,3.6 1.41827,5.25 1.51849,6.5406 10.2566,30.2543 12.66649,34.3746 1.40723,2.406 4.19427,6.1953 6.19342,8.4205 3.47603,3.8691 14.62123,12.7049 16.02559,12.7049 0.36892,0 1.18032,-1.35 1.80313,-3 0.6546,-1.7342 1.85926,-3 2.85516,-3 1.47421,0 1.63103,0.6694 1.08686,4.6396 -0.34975,2.5517 -0.63592,6.6347 -0.63592,9.0733 0,3.6732 -0.29823,4.3763 -1.73852,4.0989 -0.95618,-0.1841 -1.9011,-1.2296 -2.09983,-2.3233 -0.4626,-2.5461 -4.0785,-6.4885 -5.95116,-6.4885 -1.165,0 -1.31289,1.101 -0.77235,5.75 4.62757,39.7998 5.89139,45.1173 13.2919,55.9255 9.55301,13.9518 14.02415,28.7294 12.87207,42.5438 -0.44599,5.3479 -0.32597,7.7281 0.36806,7.2992 1.78108,-1.1008 1.11859,3.0912 -0.75674,4.7884 -4.22041,3.8194 -24.42245,9.4733 -37.2134,10.4148 -8.89213,0.6545 -12.45362,2.2379 -15.09222,6.71 -1.07335,1.8192 -4.5292,5.341 -7.67966,7.8262 -8.95654,7.06534 -15.79795,14.03084 -19.5655,19.92044 -1.90283,2.9746 -4.19735,6.0206 -5.09894,6.7688 -3.259,2.7048 -7.40757,8.6866 -6.74324,9.7231 0.37376,0.5831 1.6589,1.3657 2.85587,1.739 1.86814,0.5827 2.67798,-0.1772 5.71915,-5.3661 8.3332,-14.2185 14.0221,-20.5608 25.22589,-28.12354 3.91674,-2.6438 8.57778,-6.6458 10.35787,-8.8934 3.25716,-4.1125 7.59947,-7.0262 10.47112,-7.0262 2.87385,0 1.57768,2.7157 -2.62296,5.4955 -2.29494,1.5188 -5.26526,4.0599 -6.60071,5.647 -1.33545,1.5871 -6.34157,5.56604 -11.12471,8.84204 -8.93573,6.1202 -15.17134,13.2013 -22.16421,25.1694 -1.71803,2.9403 -4.2653,6.5567 -5.66062,8.0364 -2.92167,3.0983 -2.52161,5.386 1.18856,6.7967 2.961,1.1257 5.51776,0.3628 7.35826,-2.1958 0.72818,-1.0122 3.05996,-3.8463 5.18174,-6.2978 2.12178,-2.4515 5.31931,-7.1994 7.10562,-10.5509 2.07386,-3.8909 4.71914,-7.1188 7.31826,-8.9301 2.23874,-1.5602 6.32043,-5.1625 9.07043,-8.0053 2.75,-2.8428 6.6875,-6.0415 8.75,-7.1082 2.0625,-1.06674 3.75,-2.40094 3.75,-2.96474 0,-0.5638 1.10455,-2.1297 2.45455,-3.4796 1.96795,-1.968 3.47128,-2.4546 7.58333,-2.4546 3.66372,0 5.00702,0.3571 4.7025,1.25 -0.23446,0.6875 -1.42542,1.1044 -2.64658,0.9264 -2.68946,-0.3919 -6.72406,2.0833 -7.52884,4.6189 -0.3227,1.0168 -2.42233,2.88034 -4.66585,4.14124 -7.30265,4.1044 -21.65374,18.0032 -26.35283,25.5225 -2.42013,3.8725 -6.0081,8.5918 -7.97326,10.4872 -4.24218,4.0915 -4.42844,5.343 -1.02597,6.8933 4.01989,1.8316 7.2761,1.3791 9.6399,-1.3395 2.77243,-3.1886 4.17792,-3.189 3.56852,-10e-4 -0.70769,3.7021 1.31856,5.6644 6.5934,6.3852 0.46688,0.064 2.38461,-0.6128 4.26162,-1.5035 z m -3.61049,-14.6438 c 0,-2.8155 7.48794,-12.0934 14.76566,-18.2955 4.25389,-3.6252 8.30528,-7.6712 9.0031,-8.9911 1.53088,-2.8956 4.20859,-4.4501 7.6655,-4.4501 3.52376,0 3.31222,2.6771 -0.27377,3.4647 -1.76855,0.3885 -3.37149,1.7054 -4.25,3.4917 -0.77577,1.5774 -5.02477,5.7712 -9.44223,9.3194 -4.41746,3.5482 -9.59246,8.7511 -11.5,11.562 -3.3088,4.8757 -5.96826,6.613 -5.96826,3.8989 z M 374.1648,710.14116 c -1.20737,-1.2073 -0.69527,-8.3291 0.86795,-12.0704 0.84405,-2.0201 3.31905,-6.0363 5.5,-8.925 2.18096,-2.8886 3.96538,-5.6516 3.96538,-6.14 0,-0.4884 -0.9,-1.7024 -2,-2.6979 -2.58067,-2.3355 -2.63181,-5.5 -0.0889,-5.5 2.50733,0 7.08889,5.5073 7.08889,8.5212 0,1.4593 -2.45547,5.2572 -6.3994,9.898 -6.32775,7.4458 -6.38911,7.5759 -5.48057,11.6195 0.50536,2.2492 0.65853,4.5106 0.34038,5.0254 -0.67088,1.0855 -2.82463,1.2383 -3.79374,0.2692 z m -32.4763,-39.8589 c -3.86561,-9.0999 -5.22542,-13.4947 -5,-16.1595 0.49309,-5.8291 2.80963,-5.4339 2.80963,0.4793 0,2.8934 0.55108,5.4183 1.32226,6.0583 2.17241,1.8029 9.94224,19.0158 9.31799,20.6426 -1.34371,3.5017 -3.44497,0.7611 -8.44988,-11.0207 z m 36.37154,-1.0203 c -0.91746,-1.4002 -6.04109,-6.9127 -11.38584,-12.25 -17.88014,-17.8551 -21.03041,-29.7667 -8.93491,-33.7842 4.36033,-1.4483 4.8949,-1.9278 4.49291,-4.0307 -0.25095,-1.3128 0.10752,-3.1579 0.79661,-4.1003 1.93187,-2.642 4.46932,0.033 4.46932,4.7111 0,4.3914 -1.44028,5.8792 -7.80574,8.0632 -2.50581,0.8597 -5.01952,2.298 -5.58604,3.1961 -2.38083,3.7744 6.72624,15.3514 19.56128,24.8664 5.5553,4.1183 6.99585,5.7747 7.88096,9.0617 1.75736,6.5263 -0.3329,9.0829 -3.48855,4.2667 z m 42.48499,-78.4039 c -0.7992,-0.5056 -2.8242,-3.7612 -4.5,-7.2347 -2.02966,-4.207 -3.96637,-6.7517 -5.80096,-7.622 -3.95233,-1.875 -5.05435,-0.7358 -4.28048,4.4247 0.58939,3.9304 0.45166,4.3818 -1.3368,4.3818 -2.72062,0 -3.41258,-2.8352 -2.58287,-10.583 l 0.69882,-6.5255 -4.62231,-4.4289 c -5.02452,-4.8143 -5.70183,-6.4626 -2.65563,-6.4626 2.4035,0 8.21883,5.6425 9.89382,9.5998 0.75548,1.7849 2.74261,3.6019 5.1672,4.7248 2.84912,1.3195 5.49249,4.028 9.54952,9.785 5.28456,7.4988 6.2902,10.912 3.20417,10.8751 -0.70476,-0.01 -1.93527,-0.429 -2.73448,-0.9345 z m 17.25479,-11.5514 c -1.17883,-0.8257 -2.43557,-2.8319 -2.79276,-4.4581 -1.07614,-4.8997 -10.50893,-11.8397 -10.50893,-7.7318 0,0.7199 0.66069,2.1824 1.4682,3.25 2.11401,2.795 1.9139,5.4411 -0.4115,5.4411 -2.76463,0 -5.0567,-3.7878 -5.0567,-8.3565 0,-9.6574 -4.42728,-15.6311 -11.59107,-15.6398 -1.70009,0 -5.2006,-0.6386 -7.77891,-1.4145 -4.58858,-1.381 -4.81959,-1.3423 -10.90893,1.8252 -3.4216,1.7798 -9.03359,3.8575 -12.47109,4.6171 -3.4375,0.7596 -6.25,1.6872 -6.25,2.0613 0,0.3742 3.0375,3.1674 6.75,6.2073 9.48901,7.7697 11.88311,10.4668 10.50997,11.8399 -2.16588,2.1659 -6.3618,-0.2688 -14.92532,-8.6606 l -8.65293,-8.4794 -6.01212,0 c -4.19101,0 -6.56605,0.5013 -7.84086,1.655 -1.74323,1.5776 -1.82874,1.4644 -1.82874,-2.4204 l 0,-4.0754 6.75,-0.5935 c 14.9831,-1.3173 23.97096,-2.8002 28.15052,-4.6446 2.52791,-1.1155 7.52319,-5.1155 11.73858,-9.3999 7.73446,-7.8609 12.52239,-11.0569 15.08889,-10.0721 1.16399,0.4467 0.0264,2.0189 -4.59025,6.3444 -3.37576,3.1628 -6.13774,6.2682 -6.13774,6.901 0,1.2639 6.05839,3.5562 9.39377,3.5543 1.15843,-7e-4 5.70623,-1.1334 10.10623,-2.5172 6.30483,-1.9828 23.48454,-4.7316 29.57255,-4.7316 0.54677,0 2.52353,-1.5294 4.39281,-3.3987 2.67156,-2.6715 5.02077,-3.7811 10.98055,-5.1861 5.8477,-1.3786 7.85315,-1.5161 8.76797,-0.6013 1.69049,1.6905 0.28375,2.5826 -7.21388,4.5747 -3.575,0.9499 -8.08521,2.99 -10.02268,4.5337 -2.83809,2.2612 -5.26732,3.0444 -12.5,4.0304 -10.64887,1.4518 -20.87396,3.654 -23.50626,5.0628 -1.8201,0.9741 -1.79855,1.1499 0.56856,4.638 1.35321,1.9941 2.46038,4.2489 2.46038,5.0108 0,0.7619 1.15575,1.8246 2.56833,2.3617 4.52283,1.7196 9.50306,6.1889 13.57023,12.178 3.77242,5.5552 4.21073,7.796 1.52493,7.796 -0.67016,0 -2.18297,-0.6756 -3.3618,-1.5012 z m -109.94092,-3.001 c -0.99452,-2.5917 0.46734,-6.071 5.19108,-12.3549 6.31645,-8.4028 6.60218,-9.9403 4.08976,-22.0073 l -2.12321,-10.1976 2.88463,-5.5095 c 2.67134,-5.1022 6.67795,-9.4285 8.73183,-9.4285 0.47583,0 0.86514,1.2617 0.86514,2.8038 0,1.8916 -1.13879,3.9076 -3.5,6.1962 -2.90025,2.811 -3.5,4.1083 -3.5,7.5704 0,2.298 0.675,6.0913 1.5,8.4296 3.04289,8.6245 1.9009,12.941 -7.73839,29.25 -4.05495,6.8607 -5.36862,7.9377 -6.40084,5.2478 z m -54.36077,-10.3428 c 0,-2.1307 2.1558,-4.2331 6.70034,-6.5344 4.90657,-2.4846 20.15733,-2.244 25.3395,0.3997 4.04856,2.0654 5.14848,4.5865 2.45244,5.621 -0.82925,0.3183 -2.51675,-0.078 -3.75,-0.8805 -3.39679,-2.2103 -8.51266,-2.7865 -16.08716,-1.8119 -4.66978,0.6009 -7.5502,1.5434 -9.06445,2.9659 -2.76236,2.5951 -5.59067,2.7166 -5.59067,0.2402 z m -22.20128,-20.905 c -1.63017,-6.5651 4.31789,-10.69 16.92992,-11.7405 8.08321,-0.6734 8.55383,-0.8457 10.12431,-3.7072 4.8873,-8.905 7.43101,-11.7941 12.61864,-14.3322 3.33195,-1.6302 6.56489,-2.4907 8.60564,-2.2906 5.06014,0.4961 4.65759,2.4776 -0.62431,3.0729 -5.27538,0.5946 -9.92885,4.3787 -14.12752,11.4882 -1.9853,3.3616 -2.37174,5.0256 -1.86445,8.0283 0.53342,3.1572 0.25702,4.1345 -1.66051,5.8714 -2.88214,2.6105 -6.78941,3.6137 -8.51074,2.1852 -1.68377,-1.3974 0.1142,-3.8255 2.83274,-3.8255 1.03266,0 1.87756,-0.3943 1.87756,-0.8762 0,-1.6494 -11.30526,-1.8972 -15.85529,-0.3474 -3.35837,1.1438 -4.67762,2.2548 -5.76342,4.8535 -1.51508,3.6261 -3.87711,4.4611 -4.58257,1.6201 z m 4.91432,-32.5 c -1.65241,-1.7875 -3.95133,-5.9204 -5.10871,-9.1842 l -2.10433,-5.9342 -7.5,-1.6787 c -9.161,-2.0505 -15.37726,-4.3112 -20,-7.2736 -1.925,-1.2336 -4.7375,-2.7814 -6.25,-3.4397 -2.75996,-1.2011 -3.6295,-3.578 -1.73684,-4.7477 0.55724,-0.3444 5.14031,1.9915 10.1846,5.1909 l 9.17144,5.8172 10.8154,0.3385 c 7.28926,0.2281 10.8421,0.7171 10.8973,1.5 0.045,0.6388 0.0144,3.7212 -0.0682,6.8498 -0.17917,6.7892 0.81061,8.922 5.4799,11.8077 1.93539,1.1962 3.26452,2.5864 2.95363,3.0894 -1.10719,1.7915 -3.77421,0.8666 -6.73417,-2.3354 z m 80.81844,2.575 c -1.63269,-0.275 -4.17716,-1.3606 -5.65438,-2.4125 -1.47721,-1.0519 -3.85387,-1.9125 -5.28147,-1.9125 -1.92896,0 -2.59563,-0.5137 -2.59563,-2 0,-2.8464 4.47122,-2.6234 9.5,0.4739 4.57436,2.8174 11.43922,3.2746 20.83533,1.3876 6.39008,-1.2833 9.94554,-4.1525 11.68791,-9.4319 1.87822,-5.6911 1.01077,-7.6434 -4.77324,-10.7431 -3.55742,-1.9064 -5.25,-3.4378 -5.25,-4.75 0,-2.7799 1.10709,-2.4587 8.18588,2.3752 7.03648,4.8051 9.61137,8.6635 8.04247,12.0516 -1.97189,4.2584 -9.28823,11.4435 -13.27807,13.0399 -4.25809,1.7038 -16.29914,2.7841 -21.4188,1.9218 z m -32.09218,-13.4232 c -0.37331,-0.604 0.95013,-2.6804 2.94098,-4.6141 3.66199,-3.5568 4.07431,-4.8401 3.68136,-11.4574 -0.45719,-7.6993 3.44222,-10.278 17.78606,-11.762 10.02093,-1.0368 15.46633,-0.1987 18.51437,2.8493 3.02893,3.029 0.91375,4.7935 -3.19751,2.6675 -1.68588,-0.8718 -5.46804,-1.5851 -8.4048,-1.5851 -6.2841,0 -16.6601,2.4982 -18.67328,4.4958 -0.77743,0.7715 -1.59622,4.013 -1.81953,7.2034 -0.22331,3.1905 -0.85514,6.9799 -1.40407,8.4211 -1.45414,3.8176 -7.82197,6.3729 -9.42358,3.7815 z m 124.50138,-6.3739 c -1.40763,-0.7656 -5.16344,-4.7919 -8.34624,-8.9473 -4.87083,-6.3593 -6.44449,-7.7251 -9.94068,-8.6275 -7.4653,-1.9269 -7.89083,-2.116 -6.9278,-3.0791 0.56972,-0.5697 3.01859,-0.4792 6.35067,0.2346 4.85488,1.04 6.22671,1.9834 13.08719,9.0002 4.65096,4.7569 9.26767,8.4802 11.74352,9.4708 2.24383,0.8978 3.83105,2.0347 3.52716,2.5264 -0.83362,1.3488 -6.59616,0.9979 -9.49382,-0.5781 z m -180.40048,-5.4628 c -0.95728,-1.549 1.3908,-10.1677 4.15245,-15.2417 3.1332,-5.7568 15.27491,-17.7541 20.83195,-20.5843 6.61704,-3.3701 15.12014,-4.5179 29.66222,-4.004 15.04158,0.5316 37.80775,4.4542 37.81113,6.5149 0.003,1.7224 -6.0649,1.6009 -18.37862,-0.368 -13.41264,-2.1446 -30.36477,-1.4562 -40.11933,1.6292 -15.28333,4.8341 -20.65364,9.3458 -27.59926,23.1866 -2.70544,5.3912 -5.11331,9.8022 -5.35084,9.8022 -0.23753,0 -0.69189,-0.4207 -1.0097,-0.9349 z m 101.7098,-18.6705 c -0.6875,-0.3087 -1.25,-1.1855 -1.25,-1.9485 0,-1.1076 2.07967,-1.3428 10.31711,-1.1667 9.91994,0.2121 10.47884,0.109 14.51812,-2.678 4.28514,-2.9566 6.41934,-2.8646 4.56049,0.1966 -2.13728,3.5196 -8.48189,5.6075 -17.89572,5.8889 -4.95,0.1479 -9.5625,0.016 -10.25,-0.2923 z m -154.06378,348.123 c 30.36435,-2.915 46.52061,-8.3756 64.35753,-21.7518 14.21561,-10.6605 20.2427,-18.121 26.76466,-33.1301 2.92196,-6.7244 3.10064,-7.8562 3.0996,-19.6357 -6.1e-4,-6.875 -0.57098,-15.2 -1.2675,-18.5 -2.38816,-11.3148 -7.32695,-25.9106 -10.16133,-30.0303 -13.12053,-19.07 -51.18242,-37.728 -90.82855,-44.5242 -9.72632,-1.6673 -29.15063,-2.7143 -29.15063,-1.5712 0,0.2058 0.675,2.2874 1.5,4.6257 2.41218,6.8368 1.98261,8.7696 -2.969,13.3584 -2.45795,2.2779 -5.14999,5.7956 -5.98232,7.8172 -0.83232,2.0215 -3.73755,5.551 -6.45604,7.8433 -2.7185,2.2923 -6.86616,6.5782 -9.21702,9.5243 -7.34218,9.2012 -14.18315,10.957 -16.92266,4.3432 -1.03798,-2.5059 -1.05703,-4.0482 -0.0945,-7.6472 0.66318,-2.4795 1.00099,-4.713 0.7507,-4.9633 -0.49619,-0.4962 -11.3109,6.574 -16.07758,10.5109 -1.63261,1.3484 -5.00761,6.0735 -7.500004,10.5003 -5.98268,10.626 -7.42947,11.5813 -18.03158,11.9052 -10.27691,0.3141 -14.42066,-1.0916 -15.92312,-5.4016 -0.57911,-1.6612 -0.84713,-3.3534 -0.5956,-3.7604 0.25153,-0.407 0.4189,-4.9678 0.37194,-10.1351 -0.047,-5.1674 -0.0907,-11.2897 -0.0972,-13.6052 l -0.0118,-4.21 -5.77023,4.4401 c -20.83012,16.0284 -32.99758,39.2453 -32.95914,62.8899 0.0169,10.3691 1.59879,18.0594 6.13414,29.8199 4.41607,11.4513 9.44048,16.2173 26.91708,25.5329 22.43371,11.958 28.09386,13.365 65.434004,16.2663 26.86683,2.0875 49.2067,1.9345 74.68622,-0.5115 z M 74.236416,712.99076 c 0.68106,-0.4325 1.68294,-3.1311 2.2264,-5.9967 2.30648,-12.1621 9.02819,-21.2272 23.017604,-31.0425 4.11526,-2.8873 8.32195,-6.5758 9.3482,-8.1967 2.18042,-3.4437 3.66951,-3.8013 3.66951,-0.8813 0,3.6838 -1.8581,5.7129 -10.49264,11.4581 -11.619854,7.7316 -15.531524,12.4501 -19.542234,23.5729 -2.72175,7.5482 -3.03952,9.2429 -1.87172,9.9822 4.23003,2.6779 8.1051,0.101 11.35825,-7.5534 2.36735,-5.5701 3.98727,-7.6398 9.827214,-12.5556 3.84593,-3.2373 8.84402,-7.1319 11.10686,-8.6546 7.40405,-4.9824 18.61427,-13.7352 18.61427,-14.5338 0,-0.4298 0.85788,-0.7815 1.9064,-0.7815 1.71925,0 1.8002,0.346 0.82456,3.525 -0.59502,1.9387 -2.51176,5.2012 -4.25943,7.25 -4.52011,5.2988 -6.63666,9.8589 -6.28014,13.5305 0.57152,5.8857 3.20696,4.6574 13.63101,-6.3527 5.32268,-5.6219 10.3035,-11.3987 11.06849,-12.8372 0.76499,-1.4386 2.94514,-4.3516 4.84476,-6.4734 3.10702,-3.4703 3.39248,-4.2737 2.84262,-8 -1.87104,-12.6795 -1.73748,-17.2197 0.88669,-30.1422 3.39703,-16.7284 6.21895,-26.3273 11.83278,-40.25 3.24653,-8.0516 4.14327,-11.25 3.15417,-11.25 -6.00912,0 -21.15635,-8.8136 -34.32485,-19.9724 -5.58816,-4.7354 -7.57514,-5.9206 -8.20821,-4.8963 -1.89117,3.06 -2.12373,12.0984 -0.53122,20.6464 2.77831,14.9129 3.59699,21.4687 3.60482,28.8664 0.007,6.8702 -1.37812,23.7628 -2.5946,31.637 -0.4164,2.6953 -0.23434,3.7003 0.63401,3.5 2.56083,-0.5909 1.86021,1.985 -1.65782,6.095 -4.386,5.1241 -10.01397,7.7737 -25.79816,12.1455 -12.542314,3.4738 -19.291084,7.2311 -29.152854,16.2301 -4.73088,4.3171 -9.34459,12.1601 -7.96488,13.5398 0.29802,0.298 0.67093,0.3543 0.82869,0.1252 0.15776,-0.2292 1.57084,-2.3319 3.14017,-4.6727 6.18181,-9.2208 21.57299,-21.6579 21.57299,-17.4325 0,0.4463 -2.96115,3.2588 -6.58033,6.25 -11.96631,9.8899 -14.04457,13.3869 -16.90108,28.4385 -2.43987,12.8562 -1.8815,15.3264 1.35625,6 7.35336,-21.1815 9.9767,-25.4329 19.12516,-30.9943 2.475,-1.5046 6.35993,-4.526 8.63317,-6.7142 3.906984,-3.7609 6.125834,-3.933 4.758254,-0.3691 -0.33829,0.8815 -4.390824,4.3286 -9.005624,7.66 -4.6148,3.3315 -9.49244,7.5019 -10.83921,9.2676 -2.92618,3.8364 -10.54659,24.5975 -10.54659,28.7331 0,3.0044 0.59526,3.4609 2.73829,2.0998 z m 804.575024,-106.5124 6.8132,0.1705 3.3901,-5.2995 c 1.8645,-2.9147 5.2207,-6.7494 7.4582,-8.5215 5.0501,-3.9998 10.0318,-11.1153 11.101,-15.8561 0.5129,-2.2742 0.2126,-7.7832 -0.82,-15.0426 -1.9215,-13.5074 -0.984,-27.914 3.2261,-49.579 3.1799,-16.3632 3.3211,-27.2521 0.4308,-33.2227 -3.1905,-6.5906 -6.0126,-8.3196 -13.5797,-8.3196 -7.8049,0 -12.5786,1.872 -17.833,6.9933 -7.9807,7.7786 -22.4133,12.7099 -40,13.6672 -10.3541,0.5636 -11.367,0.4436 -17.2502,-2.0436 -9.6109,-4.0632 -16.8729,-5.6176 -26.2099,-5.6099 -14.9004,0.012 -28.31553,4.1524 -46.83918,14.4555 -10.52745,5.8555 -23.19286,9.9383 -34.70073,11.186 l -7,0.759 6.84304,0.7226 c 7.64087,0.8069 8.17971,1.0653 7.25382,3.4781 -0.57874,1.5081 -1.94764,1.6292 -12.4503,1.1011 -14.58816,-0.7334 -19.11975,-1.7861 -31.14656,-7.2351 -5.9906,-2.7141 -13.74822,-5.2054 -21,-6.7439 l -11.5,-2.4398 5.24374,10.5629 c 2.88406,5.8096 5.49748,12.1568 5.80762,14.1048 1.31537,8.2622 0.009,7.5326 13.65495,7.6257 13.16251,0.09 22.03983,2.1594 24.18614,5.6386 1.96798,3.1901 -0.55608,3.9404 -5.32247,1.5822 -3.618,-1.7901 -6.65176,-2.2374 -17.71773,-2.6128 l -13.35225,-0.4528 -0.0174,11.8804 c -0.01,6.5916 -0.67476,14.9839 -1.49408,18.8518 -1.61228,7.6113 -6.6128,18.942 -11.48453,26.0228 l -3.10007,4.5059 5.41705,0 c 6.88333,0 20.25316,-2.3202 29.22517,-5.0718 11.54445,-3.5404 20.15726,-8.4749 29.6235,-16.972 10.86778,-9.7552 15.98949,-13.2161 18.92215,-12.7862 4.06293,0.5955 3.04741,2.3653 -4.32383,7.5355 -3.99738,2.8038 -8.61796,6.5523 -10.26796,8.3301 l -3,3.2323 5.9911,-0.671 c 6.70785,-0.7513 15.08292,-4.2214 19.84641,-8.2231 1.73937,-1.4612 5.0374,-5.4479 7.32895,-8.8594 2.61289,-3.8898 5.3282,-6.6838 7.28207,-7.4931 3.55302,-1.4717 4.94163,-0.7988 3.05147,1.4787 -2.15426,2.5957 -0.50466,2.735 6.76202,0.5709 3.82448,-1.139 7.52852,-2.0709 8.2312,-2.0709 3.37101,0 22.09979,-8.6576 36.10029,-16.6877 8.6523,-4.9627 19.3354,-10.215 24,-11.7994 7.7738,-2.6407 9.5355,-2.8555 23.4065,-2.8541 15.6909,0 19.9279,0.915 19.2894,4.1587 -0.2831,1.4384 -1.435,1.6315 -7.9384,1.3308 -5.0475,-0.2334 -7.8489,0.039 -8.3255,0.8104 -1.0133,1.6396 1.2198,6.6622 5.6684,12.7486 3.781,5.173 3.8061,5.2704 3.8061,14.7898 0,12.185 -1.4627,15.2276 -11.041,22.9665 -4.2256,3.4141 -7.7403,7.1621 -8.5632,9.1316 -3.152,7.5437 -0.5609,11.9346 6.3869,10.8236 2.7649,-0.4422 4.9513,-0.1704 6.8845,0.8557 1.558,0.827 4.6328,2.4636 6.8328,3.6369 2.9837,1.5912 4.7622,1.937 7,1.3609 1.65,-0.4247 6.066,-0.6956 9.8133,-0.6018 z m -24.8188,-11.6794 c -0.9135,-1.478 0.2642,-4.4628 2.5921,-6.5694 2.9629,-2.6814 4.2334,-0.1606 2.1359,4.238 -1.5795,3.3122 -3.528,4.273 -4.728,2.3314 z m 22.1164,-2.7135 c -0.3973,-0.3973 -2.8348,-0.7348 -5.4166,-0.75 -4.0968,-0.024 -4.735,-0.314 -5.0139,-2.2776 -0.2957,-2.0827 0.062,-2.25 4.8158,-2.25 2.8244,0 6.0148,0.4707 7.0898,1.046 1.436,0.7685 3.5484,0.5989 7.9615,-0.6394 6.2861,-1.7637 7.6032,-1.5448 6.5901,1.0954 -1.2253,3.193 -13.6761,6.1262 -16.0267,3.7756 z M 660.0035,574.81656 c -1.28401,-2.0776 1.0063,-3.118 12.12638,-5.509 5.97754,-1.2852 12.83733,-3.0484 15.24398,-3.9182 5.52617,-1.9973 9.12427,-2.0433 9.12427,-0.1167 0,2.1205 -2.51623,3.1885 -15.18597,6.4456 -14.82118,3.8102 -20.37004,4.617 -21.30866,3.0983 z m 100.74463,-26.74 c -3.40728,-0.6176 -2.82988,-3.2687 0.7119,-3.2687 4.58503,0 16.99681,-4.3257 22.48391,-7.836 5.7006,-3.6469 7.5542,-3.9492 7.5542,-1.2321 0,2.4664 -3.7995,5.1101 -12,8.3497 -8.78456,3.4703 -14.6822,4.7244 -18.75001,3.9871 z m 1.41667,-17.9354 c -1.56715,-1.5671 -0.39357,-2.3338 3.58333,-2.3409 17.10421,-0.03 48.88131,-11.2315 55.13921,-19.436 3.2958,-4.321 4.6108,-4.5019 4.6108,-0.6343 0,6.4455 -14.3586,14.1111 -37.7094,20.1319 -10.7919,2.7826 -23.95023,3.9531 -25.62394,2.2793 z m -50.56239,-3.2477 c -0.76764,-0.4861 -1.12127,-1.599 -0.78583,-2.4731 0.50145,-1.3067 1.66119,-1.4794 6.52275,-0.9713 5.0729,0.5302 6.73652,0.2409 11.71097,-2.0365 9.07258,-4.1535 10.25646,-0.099 1.30457,4.4684 -4.02894,2.0554 -16.07799,2.706 -18.75246,1.0125 z m 182.33123,-26.5856 c -1.2518,-2.9961 -1.9368,-3.5 -4.7578,-3.5 -1.8125,0 -4.169,0.6607 -5.2366,1.4682 -4.1925,3.171 -8.1931,0.8393 -4.6459,-2.7078 4.6856,-4.6857 17.3982,-2.8221 18.7982,2.7556 1.4493,5.7745 -1.9053,7.3752 -4.1579,1.984 z m -53.0404,-2.9129 c -1.0442,-2.7209 0.3081,-3.1054 9.6347,-2.739 7.8486,0.3084 9.5105,0.051 14.5368,-2.25 7.0596,-3.2319 8.6722,-3.3 8.2529,-0.3481 -0.4727,3.3288 -8.9444,5.8867 -21.5509,6.507 -8.9328,0.4396 -10.3129,0.2911 -10.8735,-1.1699 z m -212.29433,101.2529 c 5.18411,-1.7692 8.04583,-4.3768 12.13866,-11.0608 5.12685,-8.3726 7.3892,-14.8626 9.77405,-28.0386 1.82841,-10.1018 1.92071,-12.4563 0.91096,-23.2406 -1.42832,-15.2548 -3.54401,-21.507 -11.11903,-32.8585 -3.35511,-5.0278 -6.14637,-9.1967 -6.20281,-9.2642 -0.0564,-0.068 -8.20175,-0.8654 -18.10069,-1.7732 -17.51343,-1.6059 -18.13278,-1.7402 -23,-4.9865 -2.75106,-1.8349 -9.06113,-7.3395 -14.02239,-12.2324 -9.69423,-9.5607 -17.41928,-14.3205 -29.81842,-18.3725 -7.11213,-2.3242 -7.63479,-3.643 -1.66111,-4.1914 l 3.5,-0.3213 -6.5,-3.1772 c -8.81372,-4.3083 -20.90786,-8.2772 -30.18603,-9.9063 -13.31706,-2.3382 -35.8606,0.5196 -46.41616,5.8841 l -4.61429,2.345 4.54348,1.7352 c 4.1923,1.601 4.94896,1.6147 9.78974,0.1772 6.89096,-2.0464 14.88326,-2.096 14.88326,-0.092 0,1.0028 -1.57284,1.6742 -4.98175,2.1264 -9.04238,1.1995 -9.01703,2.1709 0.23402,8.967 4.53625,3.3325 9.37273,6.7617 10.74773,7.6206 3.6723,2.2937 8,6.8855 8,8.4881 0,3.4663 -3.4405,2.0547 -13.18298,-5.4086 -19.85812,-15.2124 -32.9309,-20.3174 -47.02675,-18.364 -7.12244,0.987 -10.11979,2.1049 -5.64384,2.1049 4.96873,0 35.1041,17.3131 51.67598,29.6885 9.1651,6.8441 13.90409,13.9482 18.0415,27.0454 3.98082,12.6016 5.5139,21.9707 4.88239,29.8379 -0.41206,5.1334 -1.47901,8.1227 -5.75182,16.1153 -7.36642,13.7795 -12.11657,19.6965 -18.27628,22.766 -2.81099,1.4008 -6.01253,2.5469 -7.11454,2.5469 -1.40611,0 -1.68885,0.3148 -0.94808,1.0556 0.58057,0.5806 5.05807,1.2876 9.95,1.5713 13.0664,0.7577 14.06767,0.042 27.38087,-19.5781 7.19929,-10.6096 9.7916,-25.5169 6.57936,-37.8349 -1.5684,-6.0143 -1.45847,-8.2139 0.4105,-8.2139 0.47205,0 1.67908,2.1375 2.68228,4.75 1.35167,3.5199 1.80572,7.3396 1.75336,14.75 -0.0611,8.6448 -0.49191,11.1209 -3.17904,18.2708 -3.13446,8.3402 -10.03051,20.6289 -15.3737,27.3958 l -2.89516,3.6666 2.96006,0.6501 c 1.62804,0.3576 4.89863,2.0587 7.26798,3.7803 2.36935,1.7215 5.88291,3.6968 7.80791,4.3893 4.81008,1.7307 18.34546,1.6373 25,-0.1723 10.16383,-2.7641 24.73106,-2.813 44,-0.1479 20.32797,2.8115 26.41463,3.1065 31.10078,1.5073 z m -97.60078,-11.1989 c -3.7988,-1.1446 -4.18927,-1.7595 -2.65978,-4.1892 0.36288,-0.5764 4.77578,-1.5533 9.80645,-2.1709 10.52756,-1.2923 14.68749,-3.0927 16.86208,-7.2979 l 1.54261,-2.9831 -4.84418,0 c -7.01814,0 -15.20718,-2.6236 -15.20718,-4.8721 0,-2.7663 0.6499,-2.9257 6.12998,-1.5042 7.64574,1.9833 18.37514,1.9866 27.37002,0.01 10.28607,-2.2621 15.37039,-1.5992 26.23589,3.4206 13.09687,6.0508 17.47856,7.1205 30.76411,7.5102 10.73931,0.3151 12,0.5404 12,2.1446 0,1.5894 -1.17245,1.8249 -10.34933,2.0786 -13.15223,0.3635 -25.27921,-1.7023 -40.20202,-6.8486 -12.51683,-4.3164 -17.14682,-4.9645 -20.97719,-2.9362 -1.3593,0.7198 -5.84646,4.4575 -9.97146,8.3059 -11.00448,10.2668 -16.72097,12.2803 -26.5,9.3339 z m 35.20124,-56.2732 c -2.20703,-2.207 2.59956,-14.2241 8.27465,-20.6877 5.48969,-6.2524 6.95439,-3.8301 2.39176,3.9554 -1.44779,2.4705 -3.58529,7.2699 -4.75,10.6654 -1.95775,5.7074 -4.08972,7.8936 -5.91641,6.0669 z m 270.29877,59.9478 c 0,-4.9897 3.7762,-10.7775 10.599,-16.2449 11.3658,-9.108 12.0047,-14.1963 3.901,-31.0708 -3.025,-6.299 -5.5,-12.0259 -5.5,-12.7264 0,-0.7005 -0.3375,-1.2702 -0.75,-1.266 -2.7514,0.028 -14.6475,2.3633 -19.0829,3.7466 -5.162,1.61 -5.3136,1.7607 -4.7319,4.7045 2.017,10.2072 1.8849,11.9672 -1.2718,16.9448 -4.823,7.605 -4.9553,9.9242 -0.8513,14.9325 2.6697,3.258 3.3667,4.8934 2.97,6.9684 -0.7909,4.1373 1.4088,8.1536 5.8251,10.6357 2.1944,1.2333 4.5262,3.1013 5.1819,4.1512 1.7256,2.7632 3.7109,2.3484 3.7109,-0.7756 z m -7,-6.4113 c 0,-3.8199 3.465,-8.9044 6.0681,-8.9044 2.4607,0 2.4839,2.1904 0.047,4.3961 -1.0369,0.9384 -2.1506,3.0331 -2.475,4.655 -0.8147,4.0731 -3.6398,3.9592 -3.6398,-0.1467 z m 6.468,-16.8557 c -3.8089,-2.7768 -7.1753,-5.0487 -7.481,-5.0487 -0.3057,0 -1.3579,1.3579 -2.3384,3.0176 -0.9804,1.6597 -2.2024,2.7582 -2.7156,2.441 -1.7195,-1.0627 -0.9561,-5.0883 1.3814,-7.2843 2.7107,-2.5465 3.6856,-2.7332 3.6856,-0.7057 0,0.8587 0.5905,1.242 1.4219,0.923 1.8356,-0.7044 5.14,1.0582 9.8078,5.2318 3.1065,2.7775 4.2513,3.2304 6.8513,2.7104 2.6875,-0.5375 3.0716,-0.3608 2.7621,1.2709 -0.2424,1.2782 -1.3511,1.9926 -3.4047,2.194 -2.3471,0.2302 -4.633,-0.8588 -9.9704,-4.75 z m -130.96801,-62.0537 c 15.88152,-2.1606 24.93013,-4.1651 27.69739,-6.1356 4.76699,-3.3943 23.34471,-11.7618 34.09164,-15.355 19.92448,-6.6616 37.18288,-7.1618 56.71098,-1.6439 15.1535,4.2818 18.8138,4.6492 26.7353,2.6834 3.7206,-0.9233 8.7729,-2.6609 11.2274,-3.8613 3.9852,-1.949 4.5983,-2.7176 5.7296,-7.1826 2.0475,-8.0812 0.047,-15.0169 -5.7331,-19.8809 -2.4831,-2.0894 -4.159,-2.618 -8.2859,-2.6135 -7.5391,0.01 -11.5526,1.4386 -17.1733,6.121 -2.75,2.2909 -6.8139,4.9771 -9.0308,5.9692 -5.4356,2.4326 -26.8247,6.5928 -38.2192,7.4338 -6.9159,0.5105 -9.25,1.0344 -9.25,2.0766 0,2.6218 -3.93797,1.3939 -11.62658,-3.6253 -15.95006,-10.4123 -32.52453,-12.3152 -52.87343,-6.0703 -11.08448,3.4017 -22.29838,8.4689 -31.1131,14.059 -2.78238,1.7645 -4.03946,3.0304 -3.00936,3.0304 1.15156,0 1.64691,0.6109 1.41903,1.75 -0.30735,1.5364 -1.56741,1.7351 -10.32332,1.6279 -11.92921,-0.1459 -15.98204,-1.1327 -28.53463,-6.9471 -10.16391,-4.7081 -15.16437,-5.8973 -29.25768,-6.958 l -8.81905,-0.6638 2.02082,3.9611 c 1.11144,2.1786 2.53011,5.9837 3.1526,8.4558 l 1.13178,4.4948 7.56733,0.6396 c 4.16204,0.3518 9.28378,0.6397 11.38166,0.6397 2.76129,0 4.72117,0.7881 7.09912,2.8548 2.25399,1.959 4.85386,3.0584 8.2848,3.5034 8.34974,1.083 27.73818,6.3203 37.13308,10.0306 4.8892,1.9308 9.98842,3.3207 11.36692,3.0982 1.375,-0.222 6.1,-0.8934 10.5,-1.492 z m -20.99737,-11.9907 c -0.85242,-1.3793 2.68918,-2.5841 11.49737,-3.9111 5.73338,-0.8638 10.71983,-2.6777 21.16942,-7.7004 7.51818,-3.6138 14.49318,-6.4134 15.5,-6.2214 1.00682,0.192 1.96636,1.2958 2.13232,2.4529 0.25817,1.8001 -0.3195,2.1743 -4,2.5912 -2.36596,0.2679 -9.47674,2.9854 -15.80174,6.0388 -6.325,3.0534 -13.3,6.0428 -15.5,6.6431 -5.00881,1.3667 -14.17835,1.4321 -14.99737,0.1069 z m 162.63658,-17.0376 c -2.7824,-2.3179 -5.9987,-2.5212 -8.6952,-0.5494 -2.596,1.8983 -4.8539,0.2172 -3.3878,-2.5223 1.5052,-2.8126 11.6573,-2.6948 15.3089,0.1776 1.4492,1.1399 2.6349,2.7149 2.6349,3.5 0,2.0272 -3.0827,1.7085 -5.8608,-0.6059 z m -242.13921,7.0618 c 0,-0.5343 -1.05321,-3.3468 -2.34048,-6.25 -3.26776,-7.3698 -9.22798,-12.3563 -16.4742,-13.7827 -3.12693,-0.6156 -7.91893,-1.7453 -10.64889,-2.5106 -2.72997,-0.7653 -5.09729,-1.2577 -5.26073,-1.0942 -0.16343,0.1634 2.52018,2.4888 5.96358,5.1675 3.44339,2.6787 8.98132,7.4569 12.3065,10.6183 5.86136,5.5727 11.10226,8.7035 14.70422,8.7841 0.9625,0.022 1.75,-0.3981 1.75,-0.9324 z"
       id="path3141"
       inkscape:connector-curvature="0" />
  </g>
</svg>
