<?xml version="1.0" encoding="UTF-8" standalone="no"?>
<!-- Created with Inkscape (http://www.inkscape.org/) -->

<svg
   xmlns:dc="http://purl.org/dc/elements/1.1/"
   xmlns:cc="http://creativecommons.org/ns#"
   xmlns:rdf="http://www.w3.org/1999/02/22-rdf-syntax-ns#"
   xmlns:svg="http://www.w3.org/2000/svg"
   xmlns="http://www.w3.org/2000/svg"
   xmlns:xlink="http://www.w3.org/1999/xlink"
   xmlns:sodipodi="http://sodipodi.sourceforge.net/DTD/sodipodi-0.dtd"
   xmlns:inkscape="http://www.inkscape.org/namespaces/inkscape"
   width="589.98224"
   height="899.41656"
   id="svg2"
   version="1.1"
   inkscape:version="0.48.3.1 r9886"
   sodipodi:docname="One-arm-bench-press-1.svg"
   inkscape:export-filename="/home/christian/Dokumente/Code/workspace/opentraining-exercises/Back-extension-on-stability-ball-2.png"
   inkscape:export-xdpi="214"
   inkscape:export-ydpi="214">
  <defs
     id="defs4">
    <radialGradient
       gradientUnits="userSpaceOnUse"
       gradientTransform="matrix(1,0,0,0.91819829,-19.285714,-7.9105395)"
       r="209.56604"
       fy="287.50052"
       fx="398.1105"
       cy="287.50052"
       cx="398.1105"
       id="radialGradient5255"
       xlink:href="#linearGradient5249"
       inkscape:collect="always" />
    <linearGradient
       id="linearGradient5249"
       inkscape:collect="always">
      <stop
         id="stop5251"
         offset="0"
         style="stop-color:#e3e3e3;stop-opacity:1;" />
      <stop
         id="stop5253"
         offset="1"
         style="stop-color:#e3e3e3;stop-opacity:0;" />
    </linearGradient>
  </defs>
  <sodipodi:namedview
     id="base"
     pagecolor="#ffffff"
     bordercolor="#666666"
     borderopacity="1.0"
     inkscape:pageopacity="0.0"
     inkscape:pageshadow="2"
     inkscape:zoom="0.35"
     inkscape:cx="-498.20464"
     inkscape:cy="247.27467"
     inkscape:document-units="px"
     inkscape:current-layer="layer1"
     showgrid="false"
     showguides="true"
     inkscape:guide-bbox="true"
     fit-margin-top="0"
     fit-margin-left="0"
     fit-margin-right="0"
     fit-margin-bottom="0"
     inkscape:window-width="1615"
     inkscape:window-height="1026"
     inkscape:window-x="65"
     inkscape:window-y="24"
     inkscape:window-maximized="1">
    <sodipodi:guide
       orientation="-0.70710678,0.70710678"
       position="-1607.1591,769.52291"
       id="guide2985" />
  </sodipodi:namedview>
  <metadata
     id="metadata7">
    <rdf:RDF>
      <cc:Work
         rdf:about="">
        <dc:format>image/svg+xml</dc:format>
        <dc:type
           rdf:resource="http://purl.org/dc/dcmitype/StillImage" />
        <dc:title></dc:title>
      </cc:Work>
    </rdf:RDF>
  </metadata>
  <g
     inkscape:label="Ebene 1"
     inkscape:groupmode="layer"
     id="layer1"
     transform="translate(-178.58766,103.24579)">
    <path
       style="fill:#000000"
       d="m 441.7051,794.41747 c -1.8506,-0.80347 -4.7756,-1.46526 -6.5,-1.47063 -6.3873,-0.0199 -19.6196,-8.35848 -22.8574,-14.40398 -0.6145,-1.14744 -1.8919,-6.3971 -2.8386,-11.66592 -1.2732,-7.08564 -2.791,-11.59875 -5.8302,-17.33502 -3.9952,-7.5407 -4.1088,-8.02287 -4.1043,-17.42033 0,-8.51332 -1.1647,-17.52958 -3.9571,-30.52747 -0.5978,-2.7827 -0.281,-6.19035 1.1332,-12.18943 l 1.9629,-8.32695 -2.1311,-15.31057 c -1.1721,-8.42081 -3.9852,-24.53556 -6.2514,-35.81056 -3.8656,-19.23326 -4.1231,-21.58137 -4.1671,-38 -0.056,-20.93129 1.5337,-28.75115 10.1645,-50 8.9901,-22.13341 9.3709,-23.22418 8.6914,-24.89543 -0.3588,-0.88251 -0.963,-9.53402 -1.3427,-19.22557 l -0.6904,-17.62101 -6.0393,-7.9984 c -3.3216,-4.39912 -7.0677,-10.53217 -8.3246,-13.629 -1.8646,-4.59425 -2.7176,-5.63059 -4.6343,-5.63059 -3.4853,0 -9.0488,-5.44518 -11.0312,-10.7966 -0.9583,-2.58687 -1.9201,-4.92352 -2.1374,-5.19255 -0.4173,-0.51668 -9.202,-1.09197 -15.4727,-1.01328 -2.8919,0.0363 -4.5926,-0.73926 -7.6212,-3.47543 -2.3143,-2.09089 -4.9356,-3.52214 -6.4505,-3.52214 -1.5026,0 -3.7865,-1.23469 -5.5547,-3.00288 l -3.0029,-3.00288 -54.1012,17.70241 -54.1012,17.70241 -7.9728,-7.92607 -7.9729,-7.92607 0,-10.65214 0,-10.65214 2.75,-1.06873 c 1.5125,-0.5878 17.0375,-5.68036 34.5,-11.31681 31.5441,-10.18161 31.75,-10.26601 31.75,-13.01404 0,-2.3923 -0.5542,-2.91521 -4.1024,-3.87065 -15.0346,-4.0484 -32.211,-14.73164 -42.2178,-26.25833 -2.8489,-3.28155 -7.4792,-7.26703 -10.2896,-8.8566 -7.5937,-4.2951 -8.9295,-6.15509 -8.6743,-12.07839 0.1234,-2.86228 -0.4125,-6.2255 -1.25,-7.84499 -1.8958,-3.66619 -1.8569,-9.82919 0.1224,-19.40039 0.9823,-4.74957 1.3703,-9.84637 1.0171,-13.35696 -1.9458,-19.33471 -1.8812,-24.91002 0.3745,-32.33624 l 2.208,-7.26945 -4.0793,-3.53553 c -30.1148,-26.10078 -30.5916,-26.69356 -31.7892,-39.51793 -0.5264,-5.63788 -0.2737,-7.09063 2.0651,-11.87097 2.9026,-5.93273 6.9878,-9.59135 14.1266,-12.65139 6.1491,-2.63581 18.4337,-5.62679 26.7389,-6.51023 3.7125,-0.3949 6.75,-0.96622 6.75,-1.26959 0,-0.30338 -0.4962,-3.40095 -1.1026,-6.88351 -3.1322,-17.98602 8.0617,-38.20798 25.801,-46.6103 6.5962,-3.12431 7.1943,-3.22042 19.8016,-3.18226 15.0847,0.0457 21.3496,1.5325 31.5436,7.48612 10.4806,6.121 10.7231,6.43129 14.0441,17.97453 1.6615,5.775 3.7839,12.07361 4.7166,13.99692 1.5589,3.21472 2.0185,3.47704 5.6957,3.25062 2.2,-0.13545 8.275,0.61232 13.5,1.66173 7.4631,1.49891 9.9555,1.65959 11.6241,0.74937 1.1683,-0.63725 3.5696,-1.97776 5.3363,-2.97891 4.5508,-2.57893 15.2582,-4.64579 24.0396,-4.6404 8.7307,0.005 14.0201,1.99122 21.0333,7.89683 4.0798,3.43553 5.28,3.886 12,4.50404 13.6674,1.25699 22.4924,7.20873 32.6753,22.0369 l 4.7914,6.9771 8,-0.30103 c 4.4,-0.16557 9.251,0.17621 10.7799,0.7595 2.5216,0.96202 2.8725,0.81664 3.7781,-1.56514 0.549,-1.44411 2.1801,-4.02558 3.6246,-5.73659 3.3963,-4.0229 8.3156,-14.41206 8.3166,-17.56389 8e-4,-2.40117 -0.078,-2.37711 -3.7492,1.13982 -5.9057,5.65805 -9.8,7.25677 -17.75,7.28674 -5.6662,0.0214 -8.0794,-0.50372 -12.6654,-2.75579 -11.3394,-5.56854 -23.0711,-21.92377 -27.4138,-38.21782 -2.4338,-9.13144 -2.9798,-28.5016 -1.0363,-36.75893 7.7188,-32.793848 37.7832,-39.964129 57.0839,-13.61436 l 3.9684,5.41771 9.0316,-0.0648 c 4.9674,-0.0356 10.6307,-0.61381 12.585,-1.28487 3.2959,-1.13172 3.7099,-1.75207 5.7134,-8.561778 2.8724,-9.76336 9.2543,-19.185731 15.6548,-23.113111 4.4076,-2.7045 5.7653,-3.0199 13,-3.0199 7.0881,0 8.736,0.36419 13.4422,2.97086 11.1672,6.185191 22.3608,22.183281 26.6083,38.029139 2.5118,9.37043 3.0797,27.58129 1.119,35.88672 -2.154,9.12456 -7.9153,19.87898 -12.9649,24.20129 -11.014,9.42751 -27.1063,7.77402 -38.8746,-3.99438 l -4.5003,-4.50027 -0.6965,10.74675 c -0.7284,11.23761 -0.599,12.36853 2.6921,23.53979 2.8841,9.7897 2.1111,29.20154 -1.6762,42.09525 -2.0251,6.89445 -5.5707,25.35453 -5.5707,29.00412 0,0.27082 -1.7054,1.62101 -3.7899,3.00042 -3.285,2.17394 -4.8502,2.49757 -11.75,2.4295 -4.378,-0.0432 -10.6601,0.22665 -13.9601,0.59966 -6.7094,0.75839 -15.2201,-0.61908 -33.2623,-5.38361 -6.6894,-1.76651 -10.9783,-2.49724 -10.5629,-1.79965 3.3749,5.66702 13.8114,18.69399 15.374,19.18992 1.083,0.34373 3.6301,2.61212 5.6603,5.04086 3.912,4.68004 7.4059,6.25877 18.7909,8.4907 4.9632,0.97299 6.864,1.98511 11,5.85705 4.4315,4.14858 6.7056,5.26595 20,9.827 8.25,2.83041 20.625,6.58462 27.5,8.3427 13.5097,3.4547 21.6988,6.63274 23.8725,9.26453 0.7548,0.91393 1.9806,1.66169 2.7239,1.66169 3.6801,0 34.1274,13.8434 42.9036,19.50689 2.75,1.77463 8.9761,6.8814 13.8357,11.34838 7.1274,6.55154 11.367,9.42902 21.9287,14.88325 11.5032,5.94044 13.4955,7.35017 16.4066,11.60944 3.4606,5.06318 7.5331,16.78342 9.4987,27.3367 0.981,5.2668 0.9055,6.83005 -0.5089,10.53343 -2.0718,5.425 -2.1131,15.20504 -0.1174,27.78191 2.2777,14.35427 3.7037,59.1002 2.4301,76.25355 -2.1428,28.85833 -2.3247,46.65676 -0.5536,54.17041 0.8976,3.80817 2.5406,8.39411 3.6512,10.19097 1.1105,1.79686 7.3824,7.35468 13.9376,12.35071 7.5172,5.72924 14.4246,12.04654 18.7049,17.10692 6.5079,7.69387 14.1126,13.92744 16.9911,13.92744 0.749,0 3.4844,1.06338 6.0786,2.36308 2.5942,1.29969 7.1917,2.92511 10.2167,3.61204 11.1438,2.53058 19,9.15616 19,16.02368 0,3.28268 -0.6219,4.38136 -4.25,7.50842 -2.3375,2.01469 -5.5604,4.34905 -7.1621,5.18746 -4.4783,2.3442 -13.374,2.77042 -20.6756,0.99065 -3.5267,-0.85966 -10.5697,-2.04912 -15.651,-2.64324 -9.3434,-1.09247 -15.9708,-3.78347 -27.9643,-11.35461 -4.8222,-3.0441 -19.174,-7.68748 -23.7606,-7.68748 -1.8483,0 -6.8875,0.67492 -11.1984,1.49983 -17.9889,3.44224 -24.7992,1.38866 -29.888,-9.01247 -3.6066,-7.37169 -2.9833,-12.58296 3.5169,-29.40155 6.4735,-16.74988 8.5986,-31.63384 6.5085,-45.58581 -2.8145,-18.7878 -6.0415,-29.76694 -11.0038,-37.43789 -9.7842,-15.12484 -12.1616,-25.73672 -10.8793,-48.56211 0.4634,-8.25 0.8573,-20.14104 0.8752,-26.42452 l 0.033,-11.42453 -6.9263,-3.57547 c -3.8095,-1.96652 -9.997,-6.44249 -13.75,-9.94661 l -6.8237,-6.37113 0,3.17079 c 0,5.7161 -4.7271,11.9392 -11.768,15.4923 -1.7974,0.90703 -22.1741,8.32258 -45.2815,16.47899 -23.1074,8.15642 -42.2284,15.04476 -42.4911,15.30743 -0.2626,0.26267 -0.361,23.65956 -0.2185,51.99309 l 0.2591,51.5155 36.5,-14.32989 c 20.075,-7.88144 36.95,-14.33017 37.5,-14.3305 0.55,-3.4e-4 5.5,2.84803 11,6.32971 l 10,6.33032 0.2855,10.80676 c 0.1782,6.7453 -0.1183,11.21472 -0.7889,11.89226 -0.591,0.59702 -32.6695,13.48372 -71.2855,28.6371 l -70.2111,27.5516 0.2289,22.26314 c 0.1259,12.24473 0.6975,24.00347 1.2703,26.13054 0.7194,2.67181 3.8122,6.88133 10.0041,13.61659 7.1846,7.81495 10.1671,12.07182 15.0327,21.45601 4.8106,9.27781 7.1234,12.59502 11.1468,15.98759 3.2495,2.74007 5.8944,6.1095 7.3486,9.36185 1.2495,2.79459 3.8912,6.63186 5.8703,8.52725 4.3906,4.20497 4.697,7.92468 1.0466,12.71049 -3.8361,5.0294 -7.7807,6.69716 -14.0873,5.95595 -4.5322,-0.53267 -5.4298,-0.35259 -6.2943,1.26281 -1.3488,2.52023 -8.114,5.12303 -13.3369,5.13117 -2.5376,0.004 -5.43,0.80144 -7.2298,1.99341 -3.5264,2.33548 -7.6895,2.49065 -12.3648,0.46086 z m 12.3648,-6.82251 c 2.2,-0.85281 5.7171,-1.57032 7.8158,-1.59446 5.1334,-0.0591 7.5751,-1.53855 9.2823,-5.62438 1.5848,-3.79288 2.8696,-4.2112 5.5326,-1.80125 0.9835,0.89005 3.7499,1.83938 6.1476,2.10964 3.9521,0.44546 4.61,0.19365 7.0406,-2.69499 1.4746,-1.7525 2.6811,-3.6449 2.6811,-4.20534 0,-1.46139 -3.2891,-6.82757 -4.1849,-6.82757 -0.4145,0 -2.4049,-2.5875 -4.4231,-5.75 -2.0183,-3.1625 -5.9912,-8 -8.8287,-10.75 -2.9098,-2.81999 -6.9616,-8.35743 -9.2931,-12.70048 -4.5133,-8.40711 -9.0701,-14.80682 -17.658,-24.79952 -10.3629,-12.05787 -11.0085,-15.29538 -11.0679,-55.5 -0.049,-32.99385 -0.5466,-29.94257 6.8542,-42 2.0255,-3.3 4.3845,-8.40745 5.2421,-11.3499 1.8671,-6.40548 2.0021,-18.57455 0.3324,-29.9527 l -1.2184,-8.3026 -3.8896,6.3026 c -6.6565,10.78598 -15.4029,36.4323 -16.5584,48.5526 -0.3277,3.4375 -0.9721,6.25 -1.4321,6.25 -3.226,0 -1.3559,-16.99655 3.7085,-33.70442 4.0622,-13.40153 7.8658,-22.17155 12.2274,-28.19246 4.3424,-5.99454 7.0764,-13.87236 7.7664,-22.3782 0.7259,-8.94864 1.639,-11.44368 7.3682,-20.13429 l 4.555,-6.90937 0.015,-11.7056 c 0.011,-8.36745 0.4025,-12.17187 1.3725,-13.34063 2.0928,-2.52167 2.96,-1.97246 3.3395,2.11497 l 0.3482,3.75 2.1902,-4.5 c 2.5464,-5.23184 2.7723,-10.97968 1.2029,-30.60478 -2.8548,-35.69888 -14.8187,-55.21498 -35.4688,-57.85847 -7.1535,-0.91575 -25.8218,1.06969 -30.8116,3.27693 -7.1042,3.14256 -15.1889,14.18148 -16.8606,23.0217 -0.7677,4.05978 -0.4093,6.13174 2.764,15.97931 2.9913,9.28279 4.765,12.8744 9.8769,20 10.0336,13.98599 9.8395,13.37434 10.2114,32.18531 0.4777,24.16805 0.4163,25.52862 -1.3411,29.69413 -2.7412,6.49761 -2.0807,15.30612 2.1599,28.80587 2.0733,6.6 4.0067,13.125 4.2966,14.5 0.4889,2.31977 0.3948,2.39186 -1.3059,1 -2.367,-1.9371 -7.8908,-13.87654 -10.1056,-21.84278 -2.0261,-7.28735 -2.2894,-7.06376 -6.2921,5.34278 -7.5202,23.3088 -7.7849,40.69428 -1.1041,72.5 7.3403,34.94498 8.4682,48.98723 5.0184,62.47571 l -1.9937,7.79564 3.5542,3.93407 c 3.7987,4.2048 4.4089,8.4118 1.1829,8.15569 -2.1166,-0.16802 -2.1179,-0.12144 -0.1807,6.13889 1.1537,3.72812 1.3849,7.16219 0.9087,13.5 l -0.6385,8.5 5.2248,9.94229 c 4.793,9.12037 5.2756,10.65841 5.8375,18.60469 0.3819,5.40059 1.1747,9.34692 2.1056,10.48032 2.066,2.51559 17.1592,9.46569 20.6404,9.5045 1.5689,0.0175 3.7526,0.72099 4.8526,1.56332 2.1793,1.66876 4.8193,1.43913 11,-0.95677 z m 12.7,-11.83835 c -0.66,-0.66 -1.2,-1.9549 -1.2,-2.87756 0,-2.27864 -2.3845,-4.09584 -4.3732,-3.3327 -0.8947,0.34333 -1.6268,0.93552 -1.6268,1.31597 0,0.38046 -1.6875,0.77196 -3.75,0.87002 -2.0625,0.0981 -6.8379,0.45425 -10.612,0.79156 -3.774,0.3373 -8.3865,0.32726 -10.25,-0.0223 -2.8152,-0.52817 -3.388,-1.07357 -3.388,-3.22623 0,-2.5378 0.097,-2.57406 4.75,-1.77897 2.6125,0.4464 6.55,0.73301 8.75,0.63692 10.7743,-0.47064 14.9519,-1.0323 15.2932,-2.05612 0.9751,-2.92528 7.401,0.42038 9.8303,5.11817 2.3433,4.53155 -0.1419,7.84279 -3.4235,4.56124 z m -55.2,-64.05488 c 0,-0.69019 2.5009,-4.57921 5.5574,-8.64228 3.0566,-4.06306 6.9849,-10.13586 8.7296,-13.49511 2.8658,-5.51796 3.2044,-5.84466 3.5065,-3.38335 0.6537,5.32526 -12.4617,26.77562 -16.3714,26.77562 -0.7821,0 -1.4221,-0.5647 -1.4221,-1.25488 z M 437.4632,525.4597 c -2.301,-1.25067 -5.8933,-5.49797 -5.8933,-6.96791 0,-1.06581 2.8382,-0.49428 7.2611,1.46217 3.0181,1.33501 5.5473,1.79098 7.6272,1.375 2.8232,-0.56465 3.1117,-0.38889 3.1117,1.89566 0,1.38491 -0.7118,2.79116 -1.5818,3.125 -2.6819,1.02917 -7.7885,0.59739 -10.5249,-0.88992 z m 25.6557,-41.4239 c -0.3507,-0.56735 -0.9008,-3.25382 -1.2224,-5.96993 -0.4585,-3.87089 -1.5297,-6.09017 -4.9557,-10.26673 -4.3597,-5.31475 -5.3419,-8.1244 -3.2845,-9.39593 1.7555,-1.08493 7.7888,5.56218 11.0409,12.16405 3.3829,6.86745 3.7235,13.61696 0.716,14.1864 -0.9113,0.17253 -1.9437,-0.15051 -2.2943,-0.71786 z m -37.1777,-6.55396 c -0.6255,-1.63006 18.4971,-22.72464 19.845,-21.89154 2.104,1.30034 -0.2043,6.86692 -6.0893,14.68435 -5.4526,7.2432 -12.3542,10.85925 -13.7557,7.20719 z m 330.8,196.81978 c 4.1699,-3.77369 1.0118,-9.84518 -4.5757,-8.79695 -2.3588,0.44251 -4.4897,-0.0797 -8.0507,-1.97313 -2.6635,-1.41621 -5.4507,-2.57493 -6.1938,-2.57493 -0.7431,0 -1.3511,-0.45 -1.3511,-1 0,-1.45354 4.1103,-1.22519 9,0.5 2.3383,0.825 5.5672,1.5 7.1754,1.5 4.6604,0 8.8246,2.63534 8.8246,5.5847 0,2.91019 1.4902,2.47278 2.3145,-0.67936 0.9505,-3.6346 -6.6942,-9.88388 -13.6339,-11.1452 -5.4704,-0.99428 -20.3168,-6.74476 -25.0743,-9.71212 -1.7085,-1.06557 -6.4813,-5.45577 -10.6063,-9.756 -4.125,-4.30024 -13.6539,-12.43865 -21.1753,-18.08537 -15.2672,-11.46181 -16.7675,-13.49281 -18.9902,-25.70665 -1.5,-8.24254 -1.6265,-31.20247 -0.4005,-72.70971 0.8265,-27.98564 0.7434,-30.80378 -1.4322,-48.56286 -2.1791,-17.7868 -2.4283,-18.84959 -4.4057,-18.79029 -3.6247,0.1087 -3.062,-4.25987 1.768,-13.72557 l 4.4544,-8.72955 -1.3609,-5.74101 c -2.3789,-10.03533 -6.1607,-19.87307 -9.867,-25.6668 -3.4233,-5.35159 -4.1813,-5.90012 -15.9631,-11.552 -10.7888,-5.17551 -13.1203,-6.75062 -18.2483,-12.32798 -9.7957,-10.65405 -20.2265,-17.02556 -43.3792,-26.49742 -14.5006,-5.93228 -20.2405,-6.93409 -29.7014,-5.18395 -18.1978,3.36636 -24.5747,9.13442 -30.1694,27.28909 -1.7265,5.60223 -6.1041,30.9354 -6.1238,35.43801 -0.01,1.69756 16.7711,9.99348 23.7879,11.76163 3.1387,0.79091 12.9943,2.12359 21.9013,2.96152 20.038,1.88507 24.3965,3.40506 34.8886,12.16719 4.3543,3.63627 9.7168,7.75915 11.9168,9.16196 5.7648,3.67585 15.1543,7.14963 21.2671,7.86808 9.2475,1.08686 7.8553,4.29778 -1.8749,4.32435 l -5.6079,0.0153 -2.1499,15.75 c -3.2171,23.56792 -2.7094,36.49778 2.0122,51.25 2.6557,8.29763 5.7152,13.67707 13.026,22.9033 3.2264,4.07181 6.1311,8.45831 6.4547,9.74776 0.8828,3.51751 -0.2858,5.67149 -2.7303,5.03225 -1.7323,-0.453 -1.9897,-0.18026 -1.5446,1.63655 0.2938,1.19907 1.284,7.58014 2.2003,14.18014 2.8023,20.18312 0.8416,34.20043 -7.2407,51.76421 -6.9083,15.0126 -6.2639,23.15805 2.1477,27.14964 4.7667,2.26196 31.428,1.83146 29.9967,-0.48436 -0.2689,-0.43521 -0.026,-1.0776 0.5405,-1.42753 2.028,-1.2534 11.697,2.53385 22.8758,8.96021 6.255,3.59581 11.5284,6.53783 11.7186,6.53783 0.1903,0 0.087,-0.675 -0.2296,-1.5 -1.047,-2.7284 2.1923,-1.59461 4.5482,1.59194 3.4166,4.62126 7.5694,5.90167 19.308,5.95316 6.5059,0.0285 11.3839,0.5496 13.2821,1.41879 4.3911,2.01061 14.3971,1.93927 16.6713,-0.11888 z M 646.447,633.05816 c -2.2253,-1.80193 -2.2785,-2.11967 -1.0477,-6.25 0.7132,-2.39335 1.7942,-6.26405 2.4022,-8.60155 0.6079,-2.3375 1.4937,-4.25 1.9683,-4.25 1.7817,0 1.9227,3.06652 0.3842,8.35862 -2.3125,7.95489 -1.886,8.58398 6.9159,10.20207 3.6898,0.67831 3.8062,0.79367 1.5,1.48764 -4.6662,1.40419 -9.7056,1.01062 -12.1229,-0.94678 z M 623.4645,433.58257 c -6.8422,-1.47263 -9.9225,-3.35028 -16.3946,-9.99364 -3.6912,-3.78894 -6.4396,-5.59057 -10.5,-6.88305 -7.0391,-2.24067 -8.4339,-3.17603 -7.6771,-5.14835 1.7595,-4.58519 11.8596,-0.01 23.6771,10.72658 7.4528,6.77077 12.8026,9.09904 17.7503,7.725 5.5602,-1.54415 7.2497,-1.33154 7.2497,0.91232 0,3.93746 -4.3565,4.75936 -14.1054,2.66114 z m 13.8983,-18.82723 c -0.4044,-9.87863 -0.8604,-12.22312 -3.6277,-18.65344 -3.1626,-7.34883 -3.932,-11.55332 -2.2988,-12.56269 1.2273,-0.75852 3.4625,2.04706 6.706,8.4174 2.6588,5.2217 2.8037,6.20731 2.864,19.47844 0.055,12.12731 -0.1512,14.02085 -1.5587,14.29873 -1.3984,0.2761 -1.6861,-1.23864 -2.0848,-10.97844 z m -125.0483,200.94117 67.2445,-26.2399 4e-4,-7.5 4e-4,-7.5 -7.5412,-4.75 c -4.1477,-2.6125 -8.0101,-4.75 -8.5833,-4.75 -0.5732,0 -18.3641,6.80326 -39.5354,15.11836 -24.3587,9.56695 -38.8427,14.76892 -39.4449,14.16671 -0.58,-0.57999 -0.9325,-22.07217 -0.9025,-55.02965 l 0.049,-54.07798 -3.4781,1.06747 c -3.0722,0.94288 -3.727,1.77869 -5.6104,7.16128 -1.1727,3.35159 -3.38,10.59381 -4.9052,16.09381 -1.5251,5.5 -4.7011,14.03746 -7.0577,18.97214 -3.378,7.07341 -4.5854,11.09428 -5.7052,19 -1.5794,11.15012 -1.6108,14.0894 -0.2511,23.52786 2.7062,18.78653 0.3462,32.60511 -8.7062,50.97632 -6.26,12.70413 -8.3722,21.97511 -4.7106,20.67535 1.041,-0.36953 32.1528,-12.47983 69.1373,-26.91177 z m 15.7554,-152.84504 c 54.3256,-19.17957 54.3413,-19.18774 55.2531,-28.67636 l 0.4778,-4.97299 -6.4474,-1.12275 c -3.546,-0.61752 -8.939,-1.12276 -11.9844,-1.12276 -7.91,0 -21.2584,-2.51462 -31.3502,-5.90584 l -8.6878,-2.91945 -3.1306,1.90891 c -1.7217,1.0499 -4.7319,1.91059 -6.6893,1.91264 -4.2193,0.004 -12.7639,-4.85326 -20.7369,-11.78917 -10.5936,-9.21558 -9.2883,-8.7524 -17.3553,-6.15854 l -7.071,2.27363 0.6637,12.58891 c 0.3651,6.9239 1.2921,15.73891 2.06,19.58891 0.768,3.85 1.6836,10.07054 2.0348,13.82343 0.4267,4.56054 1.024,6.67915 1.801,6.38838 9.1969,-3.44171 82.064,-26.71181 83.6443,-26.71181 1.4894,0 2.0639,0.52434 1.8412,1.68051 -0.2436,1.2651 -10.9529,5.13651 -43.3233,15.66137 l -42.9997,13.98085 0.323,8.91761 c 0.285,7.86891 0.5202,8.84019 2,8.25924 0.9224,-0.3621 23.277,-8.28423 49.677,-17.60472 z M 266.5251,438.03016 c 21.7497,-7.10955 45.2776,-14.78178 52.2843,-17.04941 l 12.7394,-4.12295 -2.9214,-5.78724 c -4.5192,-8.95257 -8.1575,-11.56732 -18.7018,-13.44064 -4.8706,-0.86532 -11.5557,-1.84885 -14.8557,-2.18562 -3.3,-0.33677 -7.2116,-0.83934 -8.6925,-1.11682 -2.5882,-0.48498 -2.7043,-0.31893 -3,4.28805 l -0.3075,4.79257 -34.2341,11.02425 -34.2341,11.02426 -0.016,6.86149 -0.016,6.86148 5.25,5.82453 c 2.8875,3.2035 5.6798,5.85333 6.2052,5.88852 0.5254,0.0352 18.7504,-5.75292 40.5,-12.86247 z m 117.4415,-16.76402 c 4.3607,-8.27652 11.5275,-16.20987 17.3072,-19.15847 8.826,-4.50266 23.8561,-5.10933 40.394,-1.63047 9.2257,1.94068 13.8352,4.43268 18.8583,10.19506 l 4.1705,4.78435 -0.3133,-5.5 -0.3134,-5.5 6.7059,-3.36787 c 3.6883,-1.85232 8.7374,-3.59684 11.2203,-3.8767 4.3999,-0.49593 4.8387,-0.27293 17.2941,8.78867 7.0289,5.11363 13.2992,9.69003 13.9341,10.16977 1.4048,1.06156 6.5464,-0.08 5.7999,-1.28779 -0.2925,-0.47331 -1.8098,-0.60498 -3.3718,-0.29258 -1.562,0.3124 -3.1364,0.0883 -3.4987,-0.49801 -0.809,-1.30892 1.8273,-22.23315 4.4268,-35.13549 2.2892,-11.36235 9.2374,-26.25449 14.3395,-30.73419 4.0806,-3.58287 16.8533,-9.05781 23.1421,-9.91979 2.5093,-0.34394 4.7453,-0.92128 4.9689,-1.28297 0.2235,-0.36169 -4.4013,-1.93319 -10.2773,-3.49221 -5.8761,-1.55902 -20.1937,-6.41908 -31.8169,-10.80012 -16.5526,-6.23901 -21.4057,-8.47479 -22.3906,-10.31509 -1.4136,-2.64137 -1.5961,-2.73213 -11.9763,-5.9557 -4.125,-1.28103 -9.525,-3.01597 -12,-3.85543 -2.475,-0.83947 -7.1387,-1.81667 -10.3638,-2.17158 -6.8549,-0.75434 -6.4253,-2.22076 0.9772,-3.33551 l 4.8866,-0.73588 -3.2003,-1.70077 c -5.9864,-3.18134 -21.2556,-1.76465 -36.4382,3.38075 -14.3501,4.8633 -35.019,16.12092 -45.672,24.87593 -7.9043,6.49601 -15.9725,16.67858 -17.794,22.45687 -1.664,5.2789 -1.6474,5.56552 0.9173,15.80066 2.5612,10.22102 7.6582,23.10733 7.6775,19.41008 0.01,-1.03123 -1.1809,-4.52808 -2.6362,-7.77078 -1.4552,-3.24271 -2.3103,-6.22398 -1.9001,-6.62505 1.2404,-1.21283 7.4893,6.84623 8.6495,11.15513 1.1504,4.27213 0.6312,12.22862 -1.568,24.02765 -1.1146,5.98057 -1.0445,8.81137 0.5205,21.00697 0.9948,7.75223 2.3744,15.44183 3.0658,17.088 1.2131,2.88817 1.2786,2.7478 1.8717,-4.00697 0.4748,-5.4071 1.4768,-8.63624 4.4032,-14.19047 z m 71.5062,-33.51586 c -7.4245,-13.8382 -10.8642,-16.68437 -21.4029,-17.70984 -5.5776,-0.54273 -6,-0.75981 -6,-3.08383 0,-2.28188 0.4247,-2.52701 4.8679,-2.8096 7.3604,-0.46814 14.7436,3.63134 20.368,11.30921 5.9728,8.15357 11.549,18.23037 10.7783,19.47741 -1.7765,2.87442 -4.3805,0.70222 -8.6113,-7.18335 z M 487.6162,366.043 c -3.2507,-6.07385 3.5864,-28.5631 10.7677,-35.41839 4.4297,-4.22869 4.4811,-1.99131 0.1249,5.4441 -4.2419,7.24037 -5.6309,11.94858 -6.5027,22.0415 -0.3161,3.65949 -1.1593,7.45309 -1.8738,8.43022 -1.222,1.67121 -1.3713,1.6417 -2.5161,-0.49743 z m -117.5614,-4.11079 c -1.033,-1.67153 0.5192,-7.07287 3.8726,-13.4756 3.724,-7.11019 23.1853,-27.28558 28.7724,-29.82803 1.9965,-0.90849 6.4965,-2.34052 10,-3.18228 12.6228,-3.03272 14.0255,-3.64958 19.4311,-8.54494 5.3327,-4.82929 9.439,-6.36535 9.439,-3.53085 0,1.70921 -10.9343,10.5376 -16.5,13.32209 -2.2,1.10066 -6.2494,2.32968 -8.9986,2.73117 -8.8902,1.29825 -14.0173,3.95898 -22.4792,11.66559 -9.1349,8.31962 -12.4386,12.98641 -17.0728,24.11725 -3.0027,7.21214 -4.9267,9.21379 -6.4645,6.7256 z m 39.8166,-15.63242 c -0.9832,-2.56208 1.7803,-6.52654 6.9898,-10.02761 8.2597,-5.55088 58.5679,-24.31557 65.1902,-24.31557 7.1822,0 -0.8342,4.02399 -25.7343,12.91796 -25.7078,9.18244 -31.2519,11.76134 -38.0726,17.7098 -3.3879,2.95473 -6.5148,5.37224 -6.9486,5.37224 -0.4338,0 -1.0748,-0.74557 -1.4245,-1.65682 z m 16.4485,1.09393 c -1.4537,-1.49336 -0.7119,-2.22167 2.9655,-2.91155 4.9057,-0.92031 8.8142,-2.95495 14.2845,-7.43597 8.7764,-7.18916 10.0244,-7.72251 23.1721,-9.90227 9.2176,-1.52818 14.0406,-2.86236 17.6919,-4.89411 5.396,-3.00247 7.9495,-2.43151 6.7021,1.49858 -0.8419,2.65277 -3.7228,3.67835 -18.7094,6.66061 -15.6727,3.11881 -17.2206,3.70661 -22.4467,8.52384 -2.3161,2.13492 -6.1133,4.85209 -8.4382,6.03814 -4.4008,2.24516 -13.9198,3.7602 -15.2218,2.42273 z m -62.623,82.81289 c -0.5188,-0.9625 -2.1156,-2.84654 -3.5484,-4.18676 -2.0837,-1.94904 -2.8526,-2.18584 -3.8418,-1.18313 -0.9853,0.99873 -0.5728,1.84999 2.029,4.18675 3.7139,3.33558 6.9006,4.03885 5.3612,1.18314 z m -11.4051,-2.54237 c -1.2023,-1.8108 -4.6411,-5.1858 -7.6416,-7.5 -4.8665,-3.7533 -5.18,-4.20763 -2.9028,-4.20763 1.404,0 3.626,0.8381 4.9377,1.86244 1.3116,1.02434 3.3727,2.17184 4.5801,2.55001 2.0249,0.63423 2.1527,0.42566 1.6474,-2.68841 -0.3871,-2.38511 -0.056,-3.86732 1.1262,-5.05001 2.5877,-2.58777 3.8579,-2.058 3.181,1.32672 -0.5357,2.6786 0.1054,3.72385 5.9717,9.73634 l 6.5719,6.73559 -0.6613,-4.98634 c -1.2068,-9.09918 -4.5049,-22.18486 -8.5433,-33.89659 -2.1939,-6.36257 -3.9889,-12.18745 -3.9889,-12.94417 0,-0.75672 0.9421,-2.57346 2.0934,-4.03718 1.8899,-2.40263 1.9828,-3.12046 0.9559,-7.38486 l -1.1374,-4.72354 -9.2802,0 c -8.7726,0 -9.4949,0.16409 -13.2044,3 -9.2203,7.04875 -18.4277,9.61421 -21.4473,5.97583 -1.682,-2.02666 -0.3679,-3.1992 1.9577,-1.74683 1.0157,0.63431 2.1078,0.89218 2.4269,0.57305 0.3192,-0.31914 -1.0948,-1.41823 -3.1421,-2.44242 -8.0303,-4.0172 -15.3733,-10.59406 -20.1471,-18.04495 -5.2541,-8.20066 -8.7981,-10.91672 -23.3169,-17.86963 -8.3801,-4.01318 -8.8437,-4.11923 -11.2148,-2.56564 -6.6998,4.3899 -6.1462,-1.20585 0.845,-8.53987 8.1682,-8.56884 10.5579,-18.20262 9.8215,-39.59454 l -0.3874,-11.255 -2.8158,2.005 c -1.5486,1.10275 -3.3087,2.005 -3.9113,2.005 -2.4091,0 -0.7946,-2.74492 5.2748,-8.96812 3.5037,-3.59254 8.2171,-8.48574 10.4742,-10.87379 3.9116,-4.1385 6.0781,-4.88966 6.9095,-2.39558 0.2085,0.62564 -1.3951,3.07251 -3.5636,5.4375 -3.3277,3.62912 -4.1311,5.3921 -5.1496,11.29999 -0.6638,3.85 -1.057,10.13757 -0.8739,13.97239 l 0.3329,6.97238 5,1.85436 c 2.75,1.0199 9.725,3.20169 15.5,4.84844 12.1274,3.45811 21.4662,8.66621 38.8222,21.65054 11.1302,8.3267 14.3893,11.98874 18.155,20.39962 1.6583,3.70387 1.729,3.74254 2.7495,1.50275 1.724,-3.78375 12.7678,-15.91628 18.3735,-20.1849 l 5.2325,-3.98443 -5.9163,-1.84348 c -5.7872,-1.80322 -13.1849,-1.8372 -20.6664,-0.0949 -4.3573,1.01473 -3.512,-2.16785 1,-3.76519 5.2157,-1.84641 20.5885,-1.51687 26.1747,0.56109 4.3378,1.61358 4.4965,1.59838 8.0808,-0.77359 2.0109,-1.33073 6.8438,-4.02476 10.7397,-5.98673 5.8597,-2.95088 6.9936,-3.91136 6.5627,-5.55902 -0.4153,-1.58797 0.4131,-2.44557 4.0856,-4.22982 2.6248,-1.27521 4.6065,-2.92665 4.6065,-3.83875 0,-0.8804 0.54,-2.14073 1.2,-2.80073 0.7905,-0.79046 0.8301,-1.2 0.1162,-1.2 -0.5962,0 -2.0933,-2.48715 -3.3271,-5.52699 -1.2938,-3.18756 -3.5601,-6.55758 -5.3544,-7.9618 -2.4481,-1.91597 -2.8511,-2.69479 -1.891,-3.65486 0.96,-0.96006 2.0763,-0.31996 5.2382,3.00391 2.2711,2.38746 4.0181,5.21126 4.0181,6.49476 0,1.24894 1.2375,3.45587 2.75,4.90429 2.2857,2.18886 3.8341,2.68476 9.1707,2.93709 8.7342,0.413 9.1809,2.47272 0.5681,2.61949 -4.9184,0.0838 -6.7204,-0.25599 -7.1388,-1.34615 -0.8019,-2.08976 -1.9957,-0.99132 -2.6887,2.47403 -0.4049,2.02442 -1.9015,3.84862 -4.6495,5.66715 -2.2288,1.47497 -3.9019,2.83233 -3.7178,3.01637 0.184,0.18403 3.4626,-0.97964 7.2857,-2.58594 3.8231,-1.6063 10.7692,-4.02072 15.4357,-5.36538 l 8.4846,-2.44483 0.2995,-5.03415 c 0.1695,-2.85035 0.9287,-5.55639 1.75,-6.23802 1.6125,-1.33826 1.6286,-1.29363 1.8168,5.04103 l 0.1337,4.5 4.7433,0.30452 4.7432,0.30451 -7.041,-9.80451 c -11.5895,-16.13819 -14.7656,-24.79582 -14.9696,-40.80455 -0.082,-6.43677 -1.7419,-10.96653 -6.945,-18.95265 -3.7739,-5.79235 -4.4024,-6.33226 -6.1217,-5.25853 -1.4122,0.88191 -2.3754,0.90687 -3.6626,0.0949 -1.8772,-1.1841 -1.5491,-2.97289 0.5034,-2.74483 2.8663,0.31847 0.8034,-1.3617 -6.0084,-4.89377 -4.0998,-2.12579 -8.977,-3.86122 -11.2416,-4 -2.2639,-0.13873 -3.783,-0.67913 -3.5,-1.24512 0.5881,-1.17624 9.0905,-1.21063 13.75,-0.0556 3.0558,0.75747 3.25,0.64621 3.25,-1.86209 0,-2.99146 -6.0674,-11.77832 -10.9975,-15.92678 -4.7863,-4.02741 -11.0745,-7.42837 -15.0912,-8.16208 -5.3473,-0.97674 -21.4072,2.10736 -27.0955,5.20336 l -4.8489,2.63907 2.1213,2.25804 c 3.1858,3.39105 1.3882,4.98475 -2.2086,1.9582 -1.6338,-1.37473 -4.8626,-2.99015 -7.175,-3.58983 -2.3125,-0.59967 -5.7796,-1.509 -7.7046,-2.02072 -9.8929,-2.62984 -32.1114,1.42948 -46.8779,8.5646 -5.1579,2.49226 -10.7606,5.69479 -12.4505,7.11674 -3.9531,3.3263 -16.0417,8.9878 -21.1829,9.92066 -5.5794,1.01237 -7.9497,2.37528 -17.3985,10.00413 -11.6577,9.41228 -16.3367,17.05954 -18.5182,30.26579 -0.4888,2.95864 -0.3345,3.24592 1.4403,2.68262 3.0286,-0.96125 2.5253,1.32032 -2.4693,11.19345 -6.4692,12.78791 -8.169,22.26106 -6.5051,36.25271 1.1067,9.30601 1.0558,12.06767 -0.3943,21.37828 -1.4963,9.60706 -1.512,11.05863 -0.1544,14.30774 0.8309,1.98877 1.5108,5.60835 1.5108,8.04349 0,4.333 2.246,10.32822 3.8693,10.32822 0.4499,0 6.5871,5.40314 13.6382,12.00697 13.2729,12.43099 22.0358,18.3422 34.5378,23.29816 9.3376,3.70156 14.3347,4.64352 33.0286,6.226 9.1156,0.77166 17.5508,1.76442 18.7449,2.20613 2.2217,0.82184 11.1656,14.91764 15.0793,23.76522 1.9338,4.37166 4.4845,7.38446 6.3205,7.46572 0.3953,0.0175 0.4596,-0.6432 0.1431,-1.4682 -1.0277,-2.67792 0.808,-1.59549 5.0875,3 4.8963,5.25786 7.4391,5.97655 4.2727,1.20763 z m -73.4047,-58.21062 c -8.6854,-1.88799 -14.4531,-4.65933 -19.6319,-9.43302 -5.1445,-4.742 -6.9633,-8.43004 -6.5075,-13.19541 0.3159,-3.30216 0.4175,-3.20611 5.1541,4.87162 7.1154,12.1346 9.6804,13.49634 29.4871,15.65508 15.1142,1.6473 18.584,3.64238 6.131,3.52522 -4.6475,-0.0437 -11.2322,-0.6843 -14.6328,-1.42349 z m -53.2477,-25.18598 c -1.3585,-4.89187 -1.3647,-9.31103 -0.013,-9.31103 1.3841,0 5.1687,8.5935 4.7475,10.7803 -0.1797,0.9332 -1.0803,1.84186 -2.0014,2.01924 -1.1998,0.23106 -1.9747,-0.75812 -2.7329,-3.48851 z m -2.45,-31.28944 c -0.5325,-3.33006 -0.067,-5.44518 2.4715,-11.22891 3.4628,-7.88973 3.5548,-13.31659 0.287,-16.92751 -1.7837,-1.97092 -1.7948,-1.97058 -2.5525,0.0776 -1.0193,2.75534 -3.6472,2.61568 -4.3619,-0.23182 -0.702,-2.79698 0.985,-7.56215 2.9433,-8.3136 2.1354,-0.81945 5.3722,1.27479 7.0828,4.58261 2.5259,4.88461 1.9934,17.57879 -1.1226,26.76117 -1.4481,4.26737 -2.9612,8.12436 -3.3623,8.57109 -0.4011,0.44673 -1.0245,-1.03406 -1.3853,-3.29065 z m 170.6693,-10.82195 c -1.5388,-0.97793 -4.2888,-7.49732 -4.2888,-10.16752 0,-1.13966 0.6588,-2.03212 1.5,-2.03212 0.8878,0 1.5016,0.91833 1.5038,2.25 0,2.61768 3.4956,8.75 4.9815,8.75 0.5581,0 1.0147,0.45 1.0147,1 0,1.17724 -2.9745,1.30329 -4.7112,0.19964 z m -91.1816,-13.26373 c -1.0248,-1.68526 -2.1563,-5.65389 -2.5145,-8.81919 -0.3581,-3.16529 -1.3228,-6.71408 -2.1438,-7.88619 -1.3045,-1.86251 -2.1371,-2.05479 -6.6059,-1.52553 -6.7128,0.79503 -6.319,-1.57023 0.5534,-3.32337 2.6189,-0.66811 5.5862,-1.9609 6.594,-2.87287 2.3741,-2.14859 4.953,-7.49278 4.3606,-9.03653 -0.2541,-0.66213 -2.9469,-1.46034 -5.9839,-1.7738 -5.9415,-0.61321 -10.3671,-2.84221 -10.3671,-5.22148 0,-2.03247 1.577,-1.84957 4.8376,0.56108 2.7125,2.00545 2.9095,2.01092 12.3272,0.34223 10.384,-1.8399 12.8352,-1.53656 12.8352,1.58836 0,2.066 -2.5517,2.87621 -3.1745,1.00794 -0.2005,-0.60153 -1.6777,-0.75612 -3.5833,-0.375 -2.5107,0.50214 -3.2422,1.15928 -3.2422,2.91266 0,4.13021 3.1354,6.69629 8.8532,7.2457 3.225,0.30987 5.0857,0.93063 4.8595,1.62112 -0.7344,2.24119 -8.3832,1.82662 -14.7546,-0.79972 -1.0155,-0.41862 -2.3129,0.40728 -3.8006,2.4195 l -2.2587,3.05507 2.0506,2.60691 c 1.5345,1.95078 2.0506,4.0732 2.0506,8.43263 0,5.74501 0.3532,6.49006 4.4028,9.28697 1.0535,0.72762 1.5851,1.82824 1.191,2.4659 -1.3307,2.15302 -4.6005,1.18899 -6.4866,-1.91239 z m 67.0245,-0.43591 c -2.1307,-1.925 -4.382,-3.5 -5.0029,-3.5 -1.6797,0 -1.3649,-1.69541 0.4437,-2.38943 1.8699,-0.71755 4.2471,0.42763 6.8437,3.29681 2.2717,2.51015 7.186,2.75999 10.3735,0.52737 2.3667,-1.65767 8.0582,-1.6191 7.2103,0.0489 -0.275,0.54099 -1.2991,0.84824 -2.2757,0.68278 -0.9767,-0.16546 -3.1487,0.85442 -4.8268,2.26639 -4.2956,3.61454 -8.0349,3.34132 -12.7658,-0.93278 z M 324.9457,285.868 c -1.7183,-0.49687 -3.7422,-1.64799 -4.4975,-2.55805 -1.2601,-1.5183 -0.9614,-1.58452 3.6242,-0.80363 2.7487,0.46806 6.91,0.75661 9.2475,0.64122 2.4122,-0.11908 4.25,0.24027 4.25,0.83102 0,1.98165 -8.1084,3.19523 -12.6242,1.88944 z m 112.1951,-0.098 c -0.2283,-0.72236 -0.692,-2.98227 -1.0305,-5.02203 -0.4227,-2.54704 -1.5434,-4.36936 -3.5779,-5.81809 -3.3665,-2.39715 -3.8174,-3.97327 -1.1368,-3.97327 3.4954,0 8.1743,6.79734 8.1743,11.87524 0,3.14146 -1.7109,5.21092 -2.4291,2.93814 z m -92.1709,-3.21339 c -3.5092,-3.50923 -4.4491,-6.6 -2.007,-6.6 0.7662,0 1.643,0.65147 1.9486,1.44771 1.1186,2.91496 6.7117,4.8266 12.4032,4.23919 4.6199,-0.47682 5.332,-0.3241 5.0606,1.08525 -0.3724,1.93366 -3.6334,2.99018 -9.6554,3.12817 -3.6818,0.0844 -4.8722,-0.42258 -7.75,-3.30032 z m 41.6,-1.96514 c 0,-1.83318 3.8476,-6.63345 5.3226,-6.64044 0.6476,-0.003 2.8732,-0.4765 4.9458,-1.05208 4.9835,-1.38395 6.9676,-5.64019 5.0841,-10.90636 -0.6956,-1.94479 -1.2899,-4.43598 -1.3206,-5.53598 -0.031,-1.1 -1.1861,-3.97697 -2.5673,-6.39327 -2.7771,-4.8581 -2.6725,-5.82357 0.4498,-4.15257 3.1302,1.67527 4.8143,4.89616 6.0126,11.49955 0.5943,3.27453 1.5288,6.40203 2.0767,6.95 1.4453,1.4453 1.222,2.59629 -0.5037,2.59629 -0.9198,0 -1.5,0.93536 -1.5,2.41821 0,1.33002 -0.2795,3.14666 -0.6212,4.03699 -0.8528,2.22244 -6.0756,4.77581 -8.3149,4.06508 -1.1491,-0.36473 -2.9617,0.36431 -4.8444,1.94847 -3.4242,2.88129 -4.2195,3.10107 -4.2195,1.16611 z m -54.4082,-6.48638 c -0.2895,-0.46834 1.2056,-1.37041 3.3223,-2.0046 6.3108,-1.89076 6.6181,-2.77351 6.3263,-18.17672 -0.2094,-11.05298 0.024,-13.9418 1.2062,-14.92282 2.4876,-2.06449 3.5507,-0.33882 2.1981,3.56801 -1.0347,2.98867 -0.9531,4.65038 0.5023,10.22803 0.9558,3.66279 1.7637,7.88185 1.7954,9.37569 0.084,3.9478 -2.7482,9.238 -5.9614,11.13608 -2.9612,1.74925 -8.5095,2.21981 -9.3892,0.79633 z m 24.4082,-4.08109 c 0,-0.51294 0.8883,-1.21454 1.9739,-1.55911 3.1145,-0.98848 6.0261,-5.438 6.0261,-9.20888 0,-1.88699 0.4443,-4.26108 0.9874,-5.27576 1.6662,-3.11346 7.4301,-6.02364 11.9303,-6.02364 6.3039,0 9.8024,-2.24659 11.1203,-7.14097 1.2465,-4.62912 0.9011,-6.62768 -2.7099,-15.67906 -1.3868,-3.47601 -2.3071,-6.53426 -2.0453,-6.79611 1.058,-1.05792 7.1706,8.18398 8.2658,12.49727 0.645,2.54038 1.4242,4.39387 1.7315,4.11887 0.3073,-0.275 1.6916,0.56421 3.0761,1.86491 2.3878,2.24322 2.7808,2.3017 7.638,1.13648 5.7225,-1.3728 10.4859,-0.78185 13.153,1.63177 0.9781,0.88517 2.4701,1.34395 3.3156,1.01951 0.9619,-0.36914 1.5372,-0.0285 1.5372,0.9101 0,2.39382 -2.9747,2.88337 -6.1441,1.01114 -2.4776,-1.46356 -3.6831,-1.56223 -7.9378,-0.64976 -7.4318,1.59383 -9.7464,1.33843 -12.4596,-1.37477 l -2.4506,-2.45063 -0.6409,4.00762 c -0.8669,5.42134 -5.8053,8.89363 -12.6488,8.89363 -2.6496,0 -6.1133,0.67006 -7.697,1.48903 -2.9007,1.50005 -3.3183,2.26634 -4.5423,8.33525 -0.8962,4.44405 -6.0121,10.17572 -9.0825,10.17572 -1.318,0 -2.3964,-0.41968 -2.3964,-0.93261 z m 70.4874,-2.08789 c -0.3876,-0.62701 -3.0131,-0.78406 -6.8091,-0.4073 -6.8306,0.67794 -11.6783,-0.61504 -11.6783,-3.11484 0,-1.21295 0.5359,-1.40846 2.25,-0.82091 2.4118,0.82666 6.3643,0.7882 11.3446,-0.1104 2.236,-0.40345 3.8314,0.0211 5.75,1.53037 1.4605,1.14881 2.6554,2.50608 2.6554,3.01616 0,1.25407 -2.7247,1.18186 -3.5126,-0.0931 z m -1.8479,-6.67335 c -0.3517,-0.35172 -0.6395,-2.95347 -0.6395,-5.78169 0,-2.97326 -0.6192,-5.96095 -1.4682,-7.08333 -1.967,-2.60067 -1.8919,-3.44113 0.3077,-3.44113 2.541,0 4.1605,4.08248 4.1605,10.48804 0,5.06725 -0.898,7.28062 -2.3605,5.81811 z m -104.4652,-5.6206 c -3.4043,-3.62377 -2.5887,-4.7464 1.7298,-2.38092 3.8094,2.08663 4.033,2.09725 9.2212,0.43812 6.9373,-2.21847 8.9867,-0.60106 2.7966,2.20721 -6.062,2.75022 -11.0048,2.65515 -13.7476,-0.26441 z m -9.4243,-10.71543 c -1.9464,-1.18957 -2.3102,-3.50587 -0.7062,-4.49719 0.5741,-0.35481 1.6866,-0.11168 2.4722,0.54029 1.1256,0.93422 2.8816,0.6152 8.2872,-1.50561 6.6596,-2.6128 11.6968,-3.04673 11.6968,-1.00761 0,0.55 -1.5372,1.14658 -3.416,1.32574 -1.8788,0.17916 -4.8745,1.43816 -6.657,2.79779 -3.7077,2.82798 -9.1122,3.91406 -11.677,2.34659 z m -57.4265,-7.57589 c 1.2195,-7.51476 8.142,-13.34819 16.831,-14.1831 7.1351,-0.68559 6.0812,1.60939 -1.7196,3.74476 -7.9,2.1625 -8.1616,2.36915 -10.9331,8.63605 -2.7898,6.30813 -5.0691,7.29129 -4.1783,1.80229 z m 31.7984,-2.23495 c -2.8964,-1.96651 0.1124,-3.15928 7.9693,-3.15928 4.8744,0 9.388,-0.59121 11.6138,-1.52121 5.5259,-2.30887 11.8796,-7.97676 16.394,-14.62454 2.2341,-3.28984 5.4883,-6.85139 7.2315,-7.91455 3.5471,-2.16332 16.1974,-6.49649 21.8839,-7.49603 4.214,-0.7407 5.4454,-1.86924 5.9398,-5.44367 0.1902,-1.375 0.7958,-2.275 1.3458,-2 1.445,0.72248 0.837,8.09159 -0.8029,9.73145 -0.7647,0.7647 -4.6969,2.07472 -8.7382,2.91117 -9.647,1.99667 -16.0243,5.33716 -21.221,11.11581 -14.549,16.17817 -18.2941,18.45299 -31.2379,18.97416 -4.95,0.1993 -9.6201,-0.0587 -10.3781,-0.57331 z m 57.8781,-1.52442 c 0,-3.82348 3.5311,-7.26314 13.6634,-13.30962 5.2393,-3.12658 10.2001,-6.71337 11.0239,-7.97065 1.3644,-2.08241 1.3115,-2.54764 -0.5947,-5.22465 -2.2307,-3.1327 -2.6826,-5.12994 -1.1607,-5.12994 1.9085,0 5.0681,5.89396 5.0681,9.45403 0,3.81885 -1.8818,8.37305 -4.2832,10.36609 -0.7783,0.64595 -3.7662,1.62032 -6.6398,2.16528 -8.6259,1.63587 -11.907,3.66972 -13.1065,8.12426 -1.1645,4.32465 -3.9705,5.40252 -3.9705,1.5252 z m 74,-3.09199 c 0,-2.11465 -1.2024,-4.0378 -4.5,-7.19746 -6.2655,-6.00341 -6.1322,-8.2477 0.2583,-4.35132 1.8377,1.12046 4.2157,3.95724 5.4542,6.50637 2.0688,4.25823 2.0973,4.61837 0.4917,6.22393 -1.6056,1.60557 -1.7042,1.53721 -1.7042,-1.18152 z m -12.9841,-15.02375 c -1.1527,-1.38896 -2.3956,-1.57718 -6.7896,-1.02819 -7.2091,0.90072 -14.2726,-0.88606 -17.7175,-4.48181 -4.0916,-4.27066 -2.6595,-5.42277 2.4912,-2.00427 4.0645,2.69752 5.2835,2.987 12.595,2.99087 6.7413,0.004 8.389,0.32908 9.8527,1.94642 0.9666,1.06817 1.5824,2.46751 1.3684,3.10965 -0.2568,0.77032 -0.8692,0.5891 -1.8002,-0.53267 z m -16.3306,-16.16716 c -0.3564,-0.35642 -4.9433,-0.57288 -10.1931,-0.48103 -8.9323,0.15628 -9.704,0.008 -12.0187,-2.30651 -2.3031,-2.30309 -3.351,-5.56442 -1.7879,-5.56442 0.377,0 1.7391,0.98977 3.0268,2.1995 2.0261,1.90342 3.3043,2.16641 9.4954,1.95366 7.5436,-0.25922 12.7922,1.16378 12.7922,3.46816 0,1.52109 -0.337,1.70837 -1.3147,0.73064 z m -22.2678,187.98681 c -4.6116,-13.87821 -4.3384,-7.98288 0.355,7.66123 1.2757,4.25231 1.7364,4.95129 2.0305,3.08123 0.2092,-1.33033 -0.8643,-6.16443 -2.3855,-10.74246 z m -37.0907,-22.63705 2.8267,-1.20808 -23.2355,-19.49682 c -12.7796,-10.72325 -23.8392,-19.85668 -24.5768,-20.29651 -1.0297,-0.61396 -1.3412,0.11274 -1.3412,3.12884 0,3.71362 0.4025,4.23145 7.3574,9.46615 5.2858,3.97843 8.2334,7.08979 10.4686,11.05033 3.5547,6.29851 13.3958,14.84637 19.6494,17.06722 4.9801,1.76858 5.36,1.78097 8.8514,0.28887 z m 17.2825,-6.70172 9.1093,-0.5 -35.3836,-29.5 c -32.5476,-27.13555 -39.878,-32.98026 -41.3819,-32.99474 -0.3008,-0.003 -1.0393,2.80724 -1.6411,6.24474 -0.6018,3.4375 -1.2557,6.77759 -1.4531,7.42243 -0.4676,1.52764 59.3297,51.28252 60.6411,50.45702 0.55,-0.3462 5.0992,-0.85445 10.1093,-1.12945 z m 4.4053,-15.97105 c -5.3685,-10.67731 -12.7764,-18.0551 -26.0146,-25.9088 -5.775,-3.42608 -13.425,-8.07343 -17,-10.32745 -3.575,-2.25402 -8.0304,-4.44741 -9.9009,-4.87419 -3.3072,-0.75459 -3.3486,-0.72607 -1.5,1.03418 3.1272,2.97782 57.5252,48.04731 57.9922,48.04731 0.2371,0 -1.3724,-3.58697 -3.5767,-7.97105 z m -75.0819,-25.61013 c -1.7457,-2.10342 -2.2549,-1.83415 -5.6559,2.99089 l -3.1083,4.40972 4.6658,1.92023 4.6657,1.92023 0.3051,-4.91112 c 0.1711,-2.7544 -0.212,-5.5342 -0.8724,-6.32995 z m 241.4058,-46.79588 c 1.9065,-2.49955 2.5659,-4.94241 3.1431,-11.64308 0.4343,-5.04184 2.0051,-12.33148 3.8744,-17.97986 2.7421,-8.28541 3.1289,-10.77852 3.0259,-19.5 -0.065,-5.5 -0.8525,-13.76221 -1.75,-18.36047 -0.8975,-4.59826 -1.7075,-14.04826 -1.8,-21 -0.1239,-9.31741 -0.321,-11.08298 -0.75,-6.71738 -0.6212,6.32255 -2.414,8.37499 -3.508,4.0161 -1.3676,-5.44884 0.4895,-11.5601 5.4373,-17.89333 2.5975,-3.32471 5.4575,-7.48507 6.3557,-9.24526 1.6428,-3.21931 2.138,-10.81259 0.9857,-15.11521 -0.6069,-2.26604 -0.6825,-2.23983 -3.5391,1.22566 -1.7044,2.0677 -4.5019,4.01548 -6.7232,4.681 l -3.8043,1.13978 0.107,5.63456 c 0.1188,6.25448 -1.8591,12.13455 -4.0817,12.13455 -1.0694,0 -1.2382,-0.58601 -0.6479,-2.25 0.4389,-1.2375 0.8068,-4.275 0.8174,-6.75 0.019,-4.34803 -0.1327,-4.57407 -4.4808,-6.69331 -2.475,-1.20633 -6.1875,-2.49391 -8.25,-2.86129 l -3.75,-0.66798 -0.192,10.86129 c -0.2025,11.44873 -0.1635,12.48744 0.7081,18.86129 0.5936,4.34104 -0.5843,7.19388 -2.4853,6.01902 -0.7071,-0.437 -0.9529,-1.81266 -0.6037,-3.37811 l 0.5892,-2.64091 -1.4727,2.5 c -0.8817,1.49665 -1.4869,5.14527 -1.5081,9.09107 -0.045,8.40478 -1.7917,14.14099 -6.38,20.95416 -5.3562,7.95349 -5.05,10.73446 1.8992,17.24817 5.0082,4.69428 5.7363,5.91998 7.4003,12.4566 2.5424,9.98739 0.4541,9.62847 -4.2008,-0.72199 -3.3312,-7.40724 -4.0339,-8.256 -9.9197,-11.98121 -9.1399,-5.78482 -14.3145,-6.70462 -26.3137,-4.67736 -5.3343,0.90122 -10.1087,1.38522 -10.6098,1.07556 -1.58,-0.97652 -0.9967,-2.33619 1.5818,-3.6872 l 2.4927,-1.30608 -3.6221,-5.47586 c -4.59,-6.93928 -10.0125,-12.69445 -13.8634,-14.71406 -3.4939,-1.83239 -12.0463,-4.23278 -15.1422,-4.24993 l -2.1422,-0.0119 1.9553,3.75 c 1.2949,2.48354 1.8017,4.983 1.5006,7.40093 -0.4151,3.33363 -0.153,3.81164 3.0151,5.5 3.6772,1.95973 11.5929,11.92214 15.2766,19.22667 1.2142,2.40769 2.4572,6.79519 2.7622,9.75 0.3049,2.95482 1.0124,5.3724 1.5722,5.3724 0.5597,0 3.3194,1.77572 6.1325,3.94606 8.2243,6.34502 16.8455,9.84877 28.5336,11.5964 12.2929,1.83807 15.4592,1.08294 17.6728,-4.21473 1.5475,-3.70387 3.3635,-4.41279 3.3635,-1.31304 0,1.10807 -1.5394,3.69557 -3.421,5.75 l -3.421,3.73531 -11.1543,0.34047 c -16.3478,0.49901 -22.0467,-1.84617 -35.8978,-14.77226 l -4.3942,-4.1007 0.6328,6.05452 c 0.3481,3.32999 1.5921,8.28437 2.7645,11.00974 2.3577,5.48051 0.282,4.4843 22.891,10.98649 11.5021,3.30791 23.7105,5.15519 29.7867,4.50708 11.1276,-1.18694 12.3362,-1.59745 16.7902,-5.70295 3.4594,-3.18881 4.5231,-3.72542 4.9872,-2.51598 0.7601,1.98066 -1.0517,5.34901 -3.615,6.72085 -1.1028,0.5902 -1.767,1.45826 -1.4761,1.92903 0.9617,1.55606 4.415,-0.12058 6.8655,-3.33335 z m -14.3266,-36.79962 c 0.01,-0.72782 0.6762,-3.79832 1.4881,-6.82332 1.8575,-6.92027 1.8449,-16.29897 -0.029,-21.5 -1.7124,-4.75332 -1.8663,-7.5 -0.4201,-7.5 3.7529,0 6.5734,24.19087 3.7876,32.48634 -1.2701,3.78232 -4.853,6.25931 -4.8268,3.33698 z m 7.3969,-53.20038 c -0.2906,-0.75738 -0.389,-3.56988 -0.2186,-6.25 0.2609,-4.103 0.6258,-4.87294 2.3098,-4.87294 1.5479,0 1.9312,0.56513 1.6954,2.5 -0.1675,1.375 -0.2691,4.1875 -0.2258,6.25 0.058,2.75993 -0.332,3.75 -1.4768,3.75 -0.8556,0 -1.7933,-0.61968 -2.084,-1.37706 z m -291.1149,68.69259 c 0.1885,-9.0812 0.4935,-10.49593 3.5683,-16.54905 3.8223,-7.52475 11.4573,-16.56473 16.7562,-19.83964 l 3.5859,-2.21621 -3.1027,-2.42826 c -1.7065,-1.33554 -4.3042,-4.47834 -5.7726,-6.984 l -2.6699,-4.55575 -6.0795,0.57572 c -6.7145,0.63585 -19.6429,3.61598 -26.5109,6.11105 -12.7797,4.64271 -17.0894,15.24661 -11.2793,27.75278 1.1002,2.36823 6.8345,8.18749 16.0696,16.3077 7.8974,6.94403 14.5547,12.42981 14.7939,12.19063 0.2391,-0.23919 0.5276,-4.90343 0.641,-10.36497 z m 40.2061,-45.71316 c 6.1057,-1.79786 10.6136,-4.12419 19.0375,-9.82436 11.1091,-7.51718 23.0539,-12.95888 33.0459,-15.05473 l 5.1244,-1.07486 -0.4337,-7.07421 c -0.6818,-11.11877 -2.6342,-16.76337 -7.2365,-20.9213 -8.1089,-7.32586 -22.023,-12.66082 -32.9691,-12.64104 -15.81,0.0286 -30.2472,7.93057 -37.7052,20.63742 -2.9982,5.10841 -5.7894,19.22503 -4.9754,25.16369 1.1797,8.60731 7.9207,19.00608 14.1121,21.76966 3.7682,1.68196 2.6482,1.77346 12,-0.98027 z m 8.5,-19.87823 c 0,-0.70173 1.9482,-4.41423 4.3293,-8.25 2.3811,-3.83578 6.2622,-10.69812 8.6247,-15.24966 4.3536,-8.38765 7.8444,-12.22448 11.1219,-12.22448 3.0295,0 2.9474,1.50149 -0.1574,2.87579 -3.2822,1.45283 -7.4289,7.84724 -9.4553,14.5802 -1.7377,5.77404 -2.901,7.95637 -7.6193,14.29401 -3.6953,4.96335 -6.8439,6.79172 -6.8439,3.97414 z m 207.2821,5.92873 c 1.7699,-0.74092 4.8859,-3.19564 6.9246,-5.45494 8.1079,-8.98524 11.3045,-20.04042 10.4668,-36.19793 -2.0824,-40.1634 -32.8295,-67.303879 -52.0408,-45.93632 -18.2676,20.31799 -11.3844,66.35825 12.5944,84.24032 1.8001,1.34243 4.6229,2.91269 6.2729,3.48945 4.2917,1.50018 12.0275,1.43127 15.7821,-0.14058 z m -1.7813,-3.65169 c -0.3907,-0.63208 0.2149,-2.13403 1.3456,-3.33766 10.6325,-11.31776 10.1281,-42.89491 -1.0388,-65.03875 -3.6231,-7.18463 -11.1566,-14.92478 -16.1207,-16.56311 -4.044,-1.334618 -5.4213,-4.713858 -1.4369,-3.525208 11.3294,3.37982 19.9479,14.524768 25.9067,33.501178 2.0492,6.52566 2.3433,9.47076 2.3433,23.46237 0,15.48216 -0.092,16.19971 -2.8508,22.17044 -3.1518,6.82173 -6.9858,11.212 -8.1484,9.33074 z m 90.0406,-11.88084 c 7.6296,-3.46564 13.3041,-12.88037 16.1747,-26.83554 1.3263,-6.44813 1.418,-9.41598 0.534,-17.2848 -3.1839,-28.33815 -19.0645,-50.171169 -36.6046,-50.324659 -9.7514,-0.0853 -18.388,7.216361 -22.2663,18.824661 -0.9188,2.749998 -1.8781,5.562498 -2.1318,6.249998 -0.3202,0.86763 0.7537,1.25 3.5108,1.25 4.2332,0 8.3725,2.5071 10.4028,6.30086 0.6316,1.18017 1.4957,5.30777 1.9202,9.17245 0.4245,3.86468 1.2523,9.72669 1.8395,13.02669 1.9919,11.19354 1.4853,15.69573 -2.419,21.4975 l -3.4983,5.19848 2.0172,2.83298 c 2.5618,3.59761 8.8045,8.56005 13.1332,10.43971 4.6206,2.00644 12.5534,1.84752 17.3876,-0.34833 z m -4.5414,-1.629 c 0,-0.27976 1.3618,-2.38855 3.0262,-4.6862 4.9208,-6.79297 6.4938,-13.57714 6.331,-27.30514 -0.2974,-25.0792 -10.8552,-47.572968 -24.6745,-52.570108 -3.4712,-1.25518 -5.1522,-3.95571 -2.4327,-3.90793 5.7436,0.10091 15.7745,8.79294 20.6003,17.850698 6.3731,11.96199 8.426,20.28852 8.928,36.21191 0.3594,11.39873 0.115,15.76751 -1.119,20 -1.907,6.54124 -7.0371,14.91543 -9.1373,14.91543 -0.8371,0 -1.522,-0.2289 -1.522,-0.50866 z M 518.916,138.92831 c 9.5808,-3.58463 13.0318,-11.98845 9.03,-21.98988 -1.6179,-4.04348 -5.4288,-6.98182 -9.0552,-6.98182 -1.5398,0 -15.1278,4.71206 -16.2134,5.6225 -0.2159,0.18104 0.2052,1.04934 0.9357,1.92955 1.1099,1.33726 1.0922,1.74974 -0.1075,2.50885 -2.1806,1.37987 -2.6287,1.21123 -6.804,-2.5609 -6.1738,-5.57763 -7.5013,-4.75937 -4.4617,2.75 1.3915,3.4375 2.6726,6.4001 2.8469,6.58356 0.1743,0.18345 2.4365,-0.60405 5.0271,-1.75 2.5907,-1.14596 5.5372,-2.08356 6.548,-2.08356 4.1017,0 5.4787,9.93697 1.908,13.76963 -2.5232,2.70839 -2.5029,2.99439 0.25,3.52464 4.1019,0.79006 4.6369,0.71998 10.0961,-1.32257 z m -0.6248,-9.83453 c 0.3453,-3.80794 0.1368,-6.10684 -0.5948,-6.55902 -1.6425,-1.0151 -1.3791,-4.57815 0.3383,-4.57815 2.2149,0 3.5352,3.30627 3.5352,8.85247 0,5.83448 -0.7132,8.14753 -2.5121,8.14753 -0.9771,0 -1.1667,-1.45017 -0.7666,-5.86283 z m -13.4594,6.04885 c 1.899,-2.19896 2.7002,-5.62934 1.6947,-7.25627 -0.6229,-1.00789 -1.8043,-0.75798 -5.3774,1.13758 -3.9244,2.08188 -4.5792,2.87036 -4.5792,5.51429 0,1.69677 0.2633,3.3483 0.585,3.67006 0.891,0.891 6.0333,-1.16251 7.6769,-3.06566 z"
       id="path3093"
       inkscape:connector-curvature="0" />
  </g>
</svg>
