<?xml version="1.0" encoding="UTF-8" standalone="no"?>
<!-- Created with Inkscape (http://www.inkscape.org/) -->

<svg
   xmlns:dc="http://purl.org/dc/elements/1.1/"
   xmlns:cc="http://creativecommons.org/ns#"
   xmlns:rdf="http://www.w3.org/1999/02/22-rdf-syntax-ns#"
   xmlns:svg="http://www.w3.org/2000/svg"
   xmlns="http://www.w3.org/2000/svg"
   xmlns:sodipodi="http://sodipodi.sourceforge.net/DTD/sodipodi-0.dtd"
   xmlns:inkscape="http://www.inkscape.org/namespaces/inkscape"
   width="183.35753"
   height="198.88968"
   id="svg2"
   version="1.1"
   inkscape:version="0.48.3.1 r9886"
   sodipodi:docname="Preacher-hammer-curl-2.svg">
  <defs
     id="defs4" />
  <sodipodi:namedview
     id="base"
     pagecolor="#ffffff"
     bordercolor="#666666"
     borderopacity="1.0"
     inkscape:pageopacity="0.0"
     inkscape:pageshadow="2"
     inkscape:zoom="1.979899"
     inkscape:cx="176.55849"
     inkscape:cy="90.297695"
     inkscape:document-units="px"
     inkscape:current-layer="layer1"
     showgrid="false"
     fit-margin-top="0"
     fit-margin-left="0"
     fit-margin-right="0"
     fit-margin-bottom="0"
     inkscape:window-width="1855"
     inkscape:window-height="1056"
     inkscape:window-x="65"
     inkscape:window-y="24"
     inkscape:window-maximized="1" />
  <metadata
     id="metadata7">
    <rdf:RDF>
      <cc:Work
         rdf:about="">
        <dc:format>image/svg+xml</dc:format>
        <dc:type
           rdf:resource="http://purl.org/dc/dcmitype/StillImage" />
        <dc:title></dc:title>
      </cc:Work>
    </rdf:RDF>
  </metadata>
  <g
     inkscape:label="Ebene 1"
     inkscape:groupmode="layer"
     id="layer1"
     transform="translate(-541.66954,-1019.8625)">
    <path
       style="fill:#000000"
       d=""
       id="path3414"
       inkscape:connector-curvature="0" />
    <path
       style="fill:#000000"
       d=""
       id="path3412"
       inkscape:connector-curvature="0" />
    <path
       style="fill:#000000"
       d="m 605.09047,1217.6821 c 0,-0.55 -0.72183,-1 -1.60407,-1 -1.97902,0 -12.96766,-11.0753 -13.8985,-14.0081 -0.46889,-1.4773 -1.19018,-1.9386 -2.33777,-1.4951 -4.01921,1.5535 -12.57611,2.6239 -24.33466,3.0443 l -12.675,0.4531 -4.54413,-5.1946 c -2.49927,-2.8571 -4.29635,-5.4425 -3.9935,-5.7453 0.30285,-0.3029 1.46309,0.702 2.57831,2.2329 1.11522,1.531 3.8691,3.723 6.11973,4.8712 3.68499,1.8799 5.14146,2.0214 14.64083,1.4226 5.80182,-0.3657 13.09566,-1.1466 16.20855,-1.7353 5.34559,-1.011 5.69489,-1.2575 6.2922,-4.4415 1.00375,-5.3504 -2.33993,-8.9883 -10.49329,-11.4165 -3.6516,-1.0875 -7.41194,-2.831 -8.3563,-3.8745 -0.94435,-1.0435 -4.88591,-2.7192 -8.75902,-3.7238 -12.89877,-3.3455 -14.70164,-10.9572 -3.28205,-13.8567 3.20899,-0.8148 5.97958,-0.9439 7.93466,-0.3696 2.07722,0.6101 4.85513,0.3892 9.00401,-0.7161 10.00528,-2.6654 14.14722,0.5519 12.85432,9.9846 -0.56931,4.1536 -0.38673,4.6034 3.1409,7.7392 6.29805,5.5983 13.78588,9.9924 14.64873,8.5963 0.4212,-0.6815 0.033,-2.0191 -0.87834,-3.0261 -1.51709,-1.6764 -1.47241,-2.1356 0.62844,-6.4598 l 2.26164,-4.6552 -2.11797,-1.5975 c -2.08602,-1.5735 -4.92769,-10.682 -5.00054,-16.0285 -0.0341,-2.5024 1.89046,-6.6396 5.25567,-11.2979 2.22562,-3.0809 3.60722,-10.182 4.55417,-23.4076 0.6352,-8.8715 1.46074,-12.688 2.42504,-11.2112 0.39804,0.6096 -1.03873,21.6918 -1.818,26.6761 l -0.66592,4.2594 4.49842,1.9898 c 5.08945,2.2513 14.87535,3.8157 18.90065,3.0216 1.47796,-0.2916 3.88217,-1.576 5.34269,-2.8542 2.95219,-2.5836 4.1636,-2.3403 2.62855,0.5279 -2.52578,4.7195 -10.78656,5.9401 -21.60999,3.193 -4.42665,-1.1235 -8.44805,-2.432 -8.93644,-2.9078 -0.50682,-0.4937 -2.54578,0.8604 -4.75,3.1545 -3.05888,3.1837 -3.85973,4.7825 -3.85101,7.688 0.0194,6.4563 1.1474,10.8358 3.5519,13.7899 l 2.34293,2.8785 -0.43926,-5.5 -0.43926,-5.5 1.5879,5.7245 c 1.54145,5.557 1.52184,5.8609 -0.67046,10.3896 -1.64425,3.3966 -1.98662,5.1031 -1.25902,6.2755 1.44883,2.3347 9.93314,4.9374 16.39738,5.0302 l 5.58311,0.08 3.16689,-6.1404 c 1.74178,-3.3773 3.19851,-7.3148 3.23717,-8.75 0.0566,-2.1015 0.20962,-2.2562 0.78597,-0.7943 0.68708,1.7427 0.78373,1.74 2.41846,-0.066 0.93654,-1.0349 2.35114,-3.6517 3.14357,-5.8153 1.07135,-2.925 1.45885,-3.3475 1.51125,-1.6476 l 0.0705,2.286 3.73213,-2.536 c 3.84508,-2.6129 5.26783,-3.0937 5.26783,-1.7802 0,0.4157 -1.2918,1.3277 -2.87067,2.0266 -1.57887,0.6988 -3.81696,2.2712 -4.97355,3.4941 -8.86535,9.3735 -11.15578,12.7016 -11.15578,16.2097 0,1.7002 -0.77343,2.909 -2.30898,3.6086 -1.74145,0.7935 -2.5957,2.419 -3.47553,6.6137 -0.64161,3.0588 -0.88304,6.0203 -0.53652,6.581 0.34653,0.5607 0.19803,0.7524 -0.33,0.4261 -1.28021,-0.7912 -4.63577,5.5566 -4.18223,7.9116 0.19674,1.0216 1.66097,2.4821 3.25384,3.2456 2.57737,1.2353 3.62781,1.1482 9.54394,-0.7914 5.21248,-1.7088 7.23279,-1.957 9.35716,-1.1493 3.00372,1.142 9.82405,0.1306 10.38071,-1.5394 0.19217,-0.5765 -0.69095,-1.5222 -1.96249,-2.1015 -2.72813,-1.2431 -10.5829,-8.1342 -11.74635,-10.3053 -0.44622,-0.8327 -0.46608,-3.4019 -0.0441,-5.7093 0.72919,-3.9877 0.66785,-4.1422 -1.23923,-3.1216 -1.26727,0.6782 -0.40047,-0.9824 2.35294,-4.5079 2.40249,-3.0761 4.6483,-5.1141 5.00306,-4.5401 0.66217,1.0714 4.95116,-7.0896 4.91186,-9.3462 -0.0121,-0.6935 -0.92008,0.7186 -2.01777,3.138 -1.0977,2.4194 -2.246,4.1487 -2.55178,3.8429 -0.30578,-0.3057 0.15222,-1.9254 1.01777,-3.5992 0.86556,-1.6738 1.57374,-3.7781 1.57374,-4.6763 0,-0.8981 0.5625,-1.4429 1.25,-1.2106 1.76484,0.5963 7.6831,-10.0888 7.71972,-13.9376 0.0524,-5.5017 -7.63442,-9.1735 -13.0909,-6.2532 -1.09433,0.5856 -2.52605,0.886 -3.1816,0.6675 -2.28398,-0.7613 3.82555,-3.0657 8.128,-3.0657 3.57619,0 4.75073,0.5099 6.71836,2.9166 3.10822,3.802 3.0928,8.2274 -0.0503,14.4299 -1.37869,2.7207 -3.40587,7.228 -4.50486,10.0161 -1.09898,2.7882 -3.84051,7.5096 -6.09229,10.492 -2.25177,2.9825 -4.50158,7.1228 -4.99956,9.2007 -0.89353,3.7283 -0.82471,3.8536 5.23553,9.528 3.37753,3.1625 6.72796,5.75 7.4454,5.75 2.21255,0 2.70242,2.0332 0.95507,3.964 -2.21129,2.4434 -7.40879,3.3237 -11.40313,1.9313 -2.62724,-0.9159 -4.08559,-0.8019 -7.77724,0.608 -5.41822,2.0692 -13.16642,1.5801 -14.56525,-0.9195 -0.78382,-1.4006 -1.38838,-1.1362 -4.33131,1.8942 -2.79428,2.8774 -4.15566,3.522 -7.43797,3.522 -2.20972,0 -4.01767,-0.45 -4.01767,-1 z m 8.80867,-2.4925 c 3.27006,-2.7515 9.49408,-14.9773 10.58487,-20.7917 l 0.69709,-3.7158 -3.79532,-0.012 c -2.08742,-0.01 -6.26125,-0.6681 -9.27518,-1.4701 -3.36276,-0.8949 -5.83776,-1.1004 -6.40622,-0.5319 -0.56845,0.5684 0.0999,3.213 1.72988,6.8451 2.5694,5.7254 3.58105,11.8584 1.7716,10.7401 -0.48654,-0.3007 -1.18436,-2.5456 -1.55072,-4.9886 -0.8301,-5.5355 -3.2737,-8.6954 -10.10219,-13.0636 -2.93845,-1.8797 -7.05711,-5.2384 -9.15256,-7.4637 -3.65321,-3.8797 -3.79605,-4.2897 -3.47263,-9.9689 0.29968,-5.2621 0.0918,-6.0541 -1.86385,-7.1007 -1.3466,-0.7207 -3.61279,-0.905 -5.83729,-0.4747 -1.99988,0.3869 -6.78615,0.844 -10.63615,1.0157 -3.85,0.1718 -7.675,0.5602 -8.5,0.8631 -0.825,0.3029 -2.7375,1.0029 -4.25,1.5557 -2.71755,0.993 -3.4129,2.5946 -1.98469,4.5711 0.40408,0.5593 3.87494,2.0754 7.71303,3.3692 3.83809,1.2937 8.53032,3.4069 10.42718,4.6958 1.89686,1.289 5.85443,3.1002 8.79459,4.025 7.26398,2.2848 11.74404,7.2689 10.94728,12.1788 -0.33728,2.0784 -0.0104,4.5281 0.81335,6.0948 3.06371,5.8273 14.82773,15.9242 18.71253,16.0608 0.92031,0.032 3.00623,-1.0627 4.6354,-2.4336 z m -16.12544,-10.7575 c -3.99858,-5.3732 -5.98429,-8.7823 -5.43528,-9.3313 0.28538,-0.2854 2.03378,1.8662 3.88533,4.7812 1.85155,2.9151 3.72637,5.8626 4.16628,6.5501 1.67567,2.6188 -0.30704,1.1032 -2.61633,-2 z m 46.31677,-20.25 c 1.29175,-1.375 2.12363,-2.5 1.84863,-2.5 -0.275,0 -1.55688,1.125 -2.84863,2.5 -1.29175,1.375 -2.12363,2.5 -1.84863,2.5 0.275,0 1.55688,-1.125 2.84863,-2.5 z m -13.73064,21.6505 c -1.48822,-2.013 -1.80523,-3.2311 -1.10284,-4.2377 0.82864,-1.1876 0.91421,-1.1737 0.53689,0.087 -0.24687,0.825 0.47065,2.5107 1.59448,3.746 1.12383,1.2354 1.82209,2.4673 1.55168,2.7377 -0.2704,0.2704 -1.4315,-0.7796 -2.58021,-2.3333 z m -65.50145,-10.8752 c 1.79735,-0.2226 4.49735,-0.218 6,0.01 1.50265,0.2282 0.0321,0.4102 -3.26791,0.4046 -3.3,-0.01 -4.52944,-0.1923 -2.73209,-0.4148 z m 12.48209,-0.9646 c 0.9625,-0.2515 2.5375,-0.2515 3.5,0 0.9625,0.2515 0.175,0.4573 -1.75,0.4573 -1.925,0 -2.7125,-0.2058 -1.75,-0.4573 z m 59.75,-10.7037 c 0,-0.2162 0.69837,-0.661 1.55194,-0.9886 0.88992,-0.3414 1.29132,-0.1738 0.94098,0.3931 -0.58726,0.9502 -2.49292,1.4054 -2.49292,0.5955 z m -1.84253,-16.107 c -0.0604,-2.2 0.37138,-5.8 0.95943,-8 0.58806,-2.2 1.3004,-5.4526 1.58298,-7.228 0.43354,-2.7238 0.79114,-3.0796 2.28931,-2.2778 0.97653,0.5226 2.05456,1.7502 2.39561,2.728 0.54565,1.5643 0.443,1.5492 -0.85483,-0.1257 -1.14928,-1.4832 -1.57138,-1.5936 -1.91176,-0.5 -1.2241,3.933 -2.89871,10.8995 -3.58249,14.9035 l -0.76849,4.5 -0.10976,-4 z m 7.92148,-10.0833 c 0.048,-1.165 0.28494,-1.4019 0.60416,-0.6042 0.28887,0.7219 0.25335,1.5844 -0.0789,1.9167 -0.3323,0.3323 -0.56864,-0.2584 -0.52522,-1.3125 z m 5.42105,0.6471 c -1.51361,-0.6021 -0.83713,-0.8913 2.78164,-1.1894 4.03482,-0.3323 4.51258,-0.1971 3.05887,0.8659 -1.93521,1.415 -2.95467,1.4715 -5.84051,0.3235 z m -27.5,-18.4629 c 0,-2.0528 -0.50257,-4.7153 -1.11681,-5.9166 -1.00069,-1.9572 -0.95674,-2.0283 0.42275,-0.6843 1.63016,1.5883 2.63173,8.3957 1.41436,9.613 -0.39616,0.3962 -0.7203,-0.9592 -0.7203,-3.0121 z m -7.625,-2.7259 c 0.34375,-1.7187 0.66368,-4.7562 0.71095,-6.75 l 0.0859,-3.625 0.88909,2.98 c 1.03119,3.4564 0.14904,10.52 -1.3138,10.52 -0.58352,0 -0.73792,-1.2964 -0.37219,-3.125 z m 18.73748,0.7447 c -1.22988,-1.3091 -2.85104,-4.4234 -3.60258,-6.9205 -1.1493,-3.8189 -1.15251,-5.3872 -0.0202,-9.8698 1.543,-6.1083 3.82215,-12.4746 4.82495,-13.4774 2.18023,-2.1802 -1.20385,12.6397 -3.44758,15.098 -1.66397,1.8231 -0.80701,6.0852 2.17999,10.8422 1.65499,2.6357 3.73675,5.0714 4.62612,5.4126 2.28191,0.8757 11.53935,-9.6291 15.16194,-17.2048 4.50578,-9.4227 7.52193,-20.3648 6.08928,-22.0911 -0.68216,-0.8219 -0.94997,-2.8639 -0.63236,-4.8212 0.62599,-3.8575 -0.62166,-4.5831 -7.79206,-4.5317 -3.43168,0.025 -4.3029,0.5045 -6.13184,3.3777 l -2.13185,3.3491 3.29571,3.1086 c 1.81264,1.7097 4.34698,3.1608 5.63185,3.2246 1.73064,0.086 1.87673,0.2357 0.56362,0.5777 -0.97488,0.2539 -2.87135,2.5642 -4.21442,5.134 -3.46668,6.6331 -5.47389,8.783 -9.88568,10.5881 -3.33867,1.3661 -3.70095,1.3778 -2.62756,0.084 0.68478,-0.8251 1.77668,-1.5002 2.42645,-1.5002 1.88633,0 7.33176,-6.1629 9.01828,-10.2065 l 1.54592,-3.7065 -3.64864,-3.5435 c -3.27676,-3.1823 -4.21907,-3.5483 -9.24524,-3.5905 -3.07813,-0.026 -7.98675,-0.1479 -10.90805,-0.2711 -6.18819,-0.2609 -6.35467,-0.1818 -8.40273,3.9929 -1.28771,2.6249 -1.31221,3.0807 -0.14148,2.6314 0.77882,-0.2988 2.09389,-1.7275 2.92238,-3.1748 1.32414,-2.3131 1.43206,-2.3553 0.8922,-0.3492 -0.69538,2.5841 -5.45892,8.1299 -5.45892,6.3554 0,-0.8388 -0.55842,-0.8103 -2.04154,0.1039 -2.44354,1.5063 -6.95846,8.8943 -6.95846,11.3866 0,1.3699 -0.27,1.5019 -1.18999,0.5819 -1.6116,-1.6116 0.6747,-6.2679 6.07065,-12.3634 2.26564,-2.5594 4.11934,-5.1945 4.11934,-5.8557 0,-1.1444 3.18267,-5.5652 6.59346,-9.1585 1.44878,-1.5263 1.41153,-1.7594 -0.43953,-2.75 -1.11234,-0.5953 -3.8362,-1.0824 -6.05301,-1.0824 -4.60725,0 -6.22817,1.8835 -5.39078,6.264 0.50862,2.6607 -5.0558,17.4768 -8.34074,22.2085 -1.90708,2.747 -1.71049,5.9386 0.65092,10.5673 1.42049,2.7844 2.66748,3.9602 4.2,3.9602 1.40392,0 1.83543,0.3443 1.21243,0.9673 -1.81594,1.8159 -5.47595,-0.1349 -6.97239,-3.7164 -2.00523,-4.7992 -1.81946,-9.1888 0.53964,-12.7509 1.09275,-1.65 2.00386,-3.675 2.02468,-4.5 0.0208,-0.825 1.14468,-3.75 2.49745,-6.5 1.35277,-2.75 2.4637,-5.5044 2.46873,-6.1209 0.0106,-1.301 -14.9014,-2.8597 -17.98756,-1.8801 -1.1503,0.365 -2.0033,0.1813 -2.0033,-0.4316 0,-0.5871 -0.7063,-1.0674 -1.56955,-1.0674 -1.0557,0 -1.46494,-0.7366 -1.25,-2.25 0.30826,-2.1705 0.69125,-2.25 10.84017,-2.25 9.21811,0 10.85622,-0.2636 13.23136,-2.1293 2.18904,-1.7194 3.62853,-2.0311 7.47939,-1.6192 4.95853,0.5304 7.26863,1.6856 7.26863,3.6348 0,0.7687 3.55284,1.2299 10.87962,1.4125 9.15791,0.2281 10.97555,0.021 11.48583,-1.3088 0.4693,-1.2229 1.75376,-1.4997 5.68723,-1.2255 4.25642,0.2967 5.25329,0.032 6.14252,-1.6292 1.30215,-2.4331 0.38877,-13.6406 -1.42043,-17.4292 -1.15022,-2.4086 -1.91858,-2.7389 -6.98924,-3.0047 -9.71079,-0.5089 -14.29708,3.8147 -13.07854,12.3297 0.46024,3.216 -2.11725,10.4689 -3.72041,10.4689 -1.36513,0 -1.24299,-0.679 0.63872,-3.5509 1.16502,-1.778 1.44474,-3.6096 0.98774,-6.4676 -0.77009,-4.8158 1.20579,-10.1615 4.57094,-12.3664 2.49547,-1.6351 12.79958,-2.3899 16.51734,-1.2099 1.25884,0.3995 2.60457,2.0393 3.19459,3.8926 1.30701,4.1054 1.78352,15.7989 0.71419,17.5262 -0.52422,0.8468 0.002,2.1984 1.45945,3.75 2.07602,2.2099 3.05943,2.426 11.03738,2.426 7.87664,0 8.82212,-0.2011 9.39233,-1.9977 1.33191,-4.1964 9.27901,-3.9735 11.32954,0.3178 1.14434,2.3949 1.89968,2.7949 5.00937,2.6531 2.014,-0.092 9.16576,-0.1234 15.89278,-0.07 12.19533,0.097 12.23278,0.1042 12.86167,2.6099 1.29102,5.1439 -0.35588,5.6099 -17.21246,4.8711 -11.71269,-0.5134 -15.68845,-0.3731 -16.85434,0.5945 -1.2536,1.0404 -1.52582,0.9959 -1.52582,-0.2492 0,-0.8335 -0.675,-1.7744 -1.5,-2.091 -2.22993,-0.8557 -1.86781,-4.7295 0.5,-5.3486 3.7486,-0.9803 2.0169,-4.392 -2.54891,-5.0218 -3.89802,-0.5376 -5.86581,2.045 -5.91026,7.7569 -0.0416,5.3459 0.34388,5.9304 4.95917,7.5194 1.31593,0.453 1.55778,0.8531 0.70709,1.1698 -2.42433,0.9023 -5.86194,-0.6611 -7.01421,-3.1901 -1.09862,-2.4112 -1.53074,-2.524 -9.67144,-2.524 -7.30871,0 -8.52144,0.2387 -8.52144,1.6775 0,0.9226 -1.37191,5.4023 -3.04869,9.9547 -1.67678,4.5524 -3.21612,9.1466 -3.42076,10.2092 -0.62768,3.2592 -2.78671,6.4133 -8.49411,12.4086 -6.18065,6.4925 -9.24073,7.2903 -12.92396,3.3697 z m 88.67286,-39.7168 c 0.2523,-1.3324 -1.22212,-1.7054 -8.89508,-2.25 -12.86064,-0.9129 -22.12744,-0.7884 -23.8819,0.3208 -3.18064,2.0108 0.91411,2.9745 14.01101,3.2973 18.43366,0.4544 18.42066,0.4554 18.76597,-1.3681 z m -42.78534,-0.8267 c 0,-1.7159 -0.89178,-1.9602 -8.25,-2.2594 -9.61332,-0.391 -11.75,-0.074 -11.75,1.745 0,1.338 3.483,1.8711 14.75,2.258 4.57653,0.1571 5.25,-0.066 5.25,-1.7436 z m -36.4309,-2.188 c 0.37792,-0.6115 0.067,-1.513 -0.69098,-2.0034 -1.8776,-1.2147 -20.88212,-0.6555 -20.90735,0.6152 -0.0392,1.9755 20.42256,3.2906 21.59833,1.3882 z m -35.5691,-1.9196 c 0,-1.4708 -1.31809,-1.7297 -12.25,-2.4059 -8.17202,-0.5055 -9.75,-0.3659 -9.75,0.8623 0,1.029 1.4147,1.577 4.75,1.84 10.44101,0.8233 17.25,0.7063 17.25,-0.2964 z m 30,35.0472 c 0,-0.5413 1.37852,-2.4538 3.06337,-4.25 l 3.06337,-3.2658 -2.69626,4.25 c -2.7619,4.3535 -3.43048,4.99 -3.43048,3.2658 z m -19.69445,-9.6406 c 0.2859,-1.0313 0.81343,-3.6752 1.1723,-5.8752 0.67189,-4.1189 6.26693,-14.5 7.815,-14.5 0.78024,0 -1.35402,4.0671 -4.96623,9.4638 -0.72296,1.0801 -1.60151,4.1277 -1.95235,6.7725 -0.35084,2.6447 -1.07678,5.0798 -1.61321,5.4114 -0.55913,0.3455 -0.75351,-0.1975 -0.45551,-1.2725 z m 34.69445,-4.9073 c 0,-1.4139 2.93241,-7.3081 3.94817,-7.9359 0.63373,-0.3916 0.24769,0.9756 -0.85787,3.0383 -1.10555,2.0628 -1.77659,4.1283 -1.49118,4.5901 0.2854,0.4618 0.0424,0.8396 -0.5401,0.8396 -0.58246,0 -1.05902,-0.2394 -1.05902,-0.5321 z m -24,-5.5 c 0,-2.2161 2.96255,-7.9679 4.10396,-7.9679 0.77768,0 0.61822,0.6495 -0.44897,1.8287 -0.91025,1.0059 -1.65499,3.0309 -1.65499,4.5 0,1.4692 -0.45,2.6713 -1,2.6713 -0.55,0 -1,-0.4644 -1,-1.0321 z m -50,-10.9679 c -2.71666,-2.9082 -3.08087,-3 -11.90121,-3 l -9.09879,0 0,-3 0,-3 10.38337,0 c 9.46172,0 10.42873,-0.1735 10.89447,-1.9545 1.05201,-4.0229 10.72216,-3.4599 10.72216,0.6242 0,1.5372 -0.12797,1.5525 -1.25,0.1491 -2.04743,-2.5609 -5.66377,-2.905 -7.82421,-0.7446 -1.05919,1.0592 -1.92579,2.5295 -1.92579,3.2673 0,1.0434 -1.05538,1.1677 -4.75,0.5596 -6.92683,-1.1402 -14.03333,-1.0607 -14.79112,0.1654 -1.23165,1.9929 0.69402,2.4335 10.6352,2.4335 8.01857,0 9.82604,0.2647 9.3995,1.3768 -0.78751,2.053 1.40069,4.1212 4.37886,4.1385 2.06375,0.012 2.30569,0.2233 1.12756,0.9847 -2.28301,1.4754 -2.96623,1.2477 -6,-2 z m 72.8125,-0.6831 c 0.72187,-0.2889 1.58437,-0.2534 1.91667,0.079 0.33229,0.3323 -0.25834,0.5686 -1.3125,0.5252 -1.16495,-0.048 -1.4019,-0.2849 -0.60417,-0.6041 z"
       id="path4167"
       inkscape:connector-curvature="0" />
  </g>
</svg>
