<?xml version="1.0" encoding="UTF-8" standalone="no"?>
<!-- Created with Inkscape (http://www.inkscape.org/) -->

<svg
   xmlns:dc="http://purl.org/dc/elements/1.1/"
   xmlns:cc="http://creativecommons.org/ns#"
   xmlns:rdf="http://www.w3.org/1999/02/22-rdf-syntax-ns#"
   xmlns:svg="http://www.w3.org/2000/svg"
   xmlns="http://www.w3.org/2000/svg"
   xmlns:sodipodi="http://sodipodi.sourceforge.net/DTD/sodipodi-0.dtd"
   xmlns:inkscape="http://www.inkscape.org/namespaces/inkscape"
   width="575.55243"
   height="899.75592"
   id="svg2"
   version="1.1"
   inkscape:version="0.48.3.1 r9886"
   sodipodi:docname="Narrow-parallel-grip-chin-ups-2.svg">
  <defs
     id="defs4" />
  <sodipodi:namedview
     id="base"
     pagecolor="#ffffff"
     bordercolor="#666666"
     borderopacity="1.0"
     inkscape:pageopacity="0.0"
     inkscape:pageshadow="2"
     inkscape:zoom="0.7"
     inkscape:cx="426.27674"
     inkscape:cy="469.96707"
     inkscape:document-units="px"
     inkscape:current-layer="layer1"
     showgrid="false"
     fit-margin-top="0"
     fit-margin-left="0"
     fit-margin-right="0"
     fit-margin-bottom="0"
     inkscape:window-width="1855"
     inkscape:window-height="1056"
     inkscape:window-x="65"
     inkscape:window-y="24"
     inkscape:window-maximized="1" />
  <metadata
     id="metadata7">
    <rdf:RDF>
      <cc:Work
         rdf:about="">
        <dc:format>image/svg+xml</dc:format>
        <dc:type
           rdf:resource="http://purl.org/dc/dcmitype/StillImage" />
        <dc:title></dc:title>
      </cc:Work>
    </rdf:RDF>
  </metadata>
  <g
     inkscape:label="Ebene 1"
     inkscape:groupmode="layer"
     id="layer1"
     transform="translate(-196.03509,-325.02905)">
    <path
       style="fill:#000000"
       d=""
       id="path3414"
       inkscape:connector-curvature="0" />
    <path
       style="fill:#000000"
       d=""
       id="path3412"
       inkscape:connector-curvature="0" />
    <path
       style="fill:#000000"
       d="m 452.82319,1223.3368 c -1.57537,-0.8216 -4.50037,-1.5037 -6.5,-1.5158 -6.6746,-0.04 -18.677,-7.2566 -21.65825,-13.0217 -0.87687,-1.6957 -2.22323,-6.992 -2.99191,-11.7697 -1.02494,-6.3704 -2.4759,-10.7518 -5.44156,-16.4315 -3.92293,-7.513 -4.04397,-8.0381 -4.04397,-17.5399 0,-5.4805 -0.66072,-12.3317 -1.5,-15.5539 -0.825,-3.1674 -1.5,-7.2448 -1.5,-9.0609 0,-1.8161 -0.47414,-4.6621 -1.05365,-6.3245 -0.82607,-2.3697 -0.61713,-4.7321 0.96739,-10.9381 l 2.02104,-7.9156 -2.42106,-16.9611 c -1.33158,-9.3286 -3.58557,-22.5861 -5.00886,-29.4611 -5.99593,-28.9624 -6.90544,-45.3131 -3.46078,-62.2164 2.42238,-11.88679 4.42573,-17.91999 11.71002,-35.26549 5.20017,-12.3828 5.41999,-13.2596 4.76331,-19 -0.37865,-3.31 -0.63942,-11.0436 -0.57948,-17.1858 0.12872,-13.1918 -0.9801,-17.1475 -6.71829,-23.9672 -2.25151,-2.6758 -5.70317,-8.1277 -7.67035,-12.1152 -2.8671,-5.81158 -4.02583,-7.24995 -5.84049,-7.24995 -1.24508,0 -3.26994,-0.70474 -4.49968,-1.56608 -2.34531,-1.64272 -6.20912,-8.34569 -6.20912,-10.77164 0,-2.66039 -2.50401,-3.49643 -11.81667,-3.94533 -8.8051,-0.42444 -9.48736,-0.61929 -12.54502,-3.5829 -1.77844,-1.72373 -4.02918,-3.13405 -5.00166,-3.13405 -2.40982,0 -5.82289,-1.84124 -7.64732,-4.12548 -1.45707,-1.82429 -3.35529,-1.28853 -53.5,15.09989 -28.59413,9.3452 -52.70078,16.99904 -53.57033,17.00844 -0.86955,0.01 -4.80705,-3.30989 -8.75,-7.37627 l -7.169,-7.39342 0,-10.0714 c 0,-8.5844 0.25838,-10.20345 1.75,-10.96582 0.9625,-0.49193 16.2625,-5.54319 34,-11.225 32.09134,-10.27976 32.25,-10.34422 32.25,-13.10222 0,-2.39893 -0.55166,-2.92018 -4.10247,-3.87631 -14.85566,-4.00022 -32.1897,-14.76652 -41.99216,-26.08165 -2.73292,-3.15465 -7.40991,-7.11332 -10.39331,-8.79704 -6.33057,-3.57276 -7.51206,-5.36666 -7.51206,-11.40585 0,-2.44399 -0.72668,-6.18282 -1.61485,-8.3085 -1.75424,-4.19849 -1.5869,-7.64282 1.0804,-22.2374 1.39115,-7.61189 1.38195,-8.85873 -0.10301,-13.96681 -1.97493,-6.79353 -1.40877,-21.73541 1.0462,-27.61098 0.87519,-2.09464 1.59126,-4.34694 1.59126,-5.00512 0,-0.65818 -6.80752,-7.20106 -15.12783,-14.53974 -16.35551,-14.42589 -18.27804,-17.10435 -19.45046,-27.09836 -1.74789,-14.89951 7.02719,-24.02053 27.74382,-28.83755 4.58396,-1.06587 11.15626,-2.25484 14.60511,-2.64217 l 6.27065,-0.70424 -0.77065,-3.6185 c -0.42385,-1.99018 -0.7151,-7.35421 -0.64723,-11.92007 0.10971,-7.37988 0.52256,-9.10918 3.71841,-15.57555 4.78865,-9.68917 12.0419,-16.89539 21.65818,-21.51777 7.27588,-3.49738 7.82871,-3.60218 18.5,-3.50691 13.69035,0.12221 21.62805,2.08512 31.46797,7.78169 8.99906,5.20978 10.45504,7.03027 13.0057,16.26162 1.08527,3.92783 2.9175,9.66533 4.07162,12.75 l 2.09841,5.60849 5.67815,-7.8e-4 c 3.12298,-4.2e-4 9.37319,0.73269 13.88935,1.62915 l 8.2112,1.62991 4.88939,-3.1375 c 3.45804,-2.21903 7.11289,-3.49129 12.48481,-4.346 6.4874,-1.03219 7.67621,-1.53031 8.14913,-3.41456 0.30453,-1.21334 1.63632,-3.49272 2.95954,-5.06528 2.12708,-2.52788 2.30727,-3.37692 1.55502,-7.32707 -1.22824,-6.44959 -0.006,-27.82576 1.79426,-31.39154 2.75451,-5.45456 1.85912,-10.13995 -3.03781,-15.89628 -5.34956,-6.28839 -5.77845,-7.09414 -9.13503,-17.16208 -1.7028,-5.1075 -3.2086,-13.03023 -4.18133,-22 -1.72673,-15.92269 -2.67162,-20.48327 -9.01633,-43.51797 -7.77231,-28.21769 -9.92205,-33.90677 -14.82655,-39.23692 l -4.35863,-4.73692 -5.80834,3.4976 c -3.19458,1.92367 -7.40183,3.94028 -9.34943,4.48134 -13.58447,3.77388 -26.78908,-2.79374 -33.17112,-16.49843 -13.50978,-29.01065 3.29241,-76.0432 31.87705,-89.22998 19.13962,-8.82957 36.81537,1.79405 41.68152,25.05178 2.31108,11.04583 3.16311,11.85954 16.12571,15.40043 l 7.05427,1.92695 4.84694,-4.26508 c 21.59298,-19.00084 46.0976,-12.40052 53.04929,14.28883 2.19041,8.40952 1.95437,25.17257 -0.49156,34.91044 -1.09274,4.35048 -4.29963,12.60112 -7.12641,18.33475 -7.63254,15.48129 -17.50584,24.75464 -32.68226,30.69632 l -2.29548,0.89869 3.20649,4.9901 c 1.76357,2.74456 5.38093,8.26142 8.03856,12.2597 9.12958,13.73498 12.84341,23.52088 14.88829,39.2304 0.7443,5.71799 1.71486,9.15459 2.9654,10.5 3.08126,3.315 3.99221,7.17178 3.99221,16.90228 0,7.27523 0.75046,12.25175 3.48461,23.10763 3.75343,14.90288 6.51539,31.40448 6.51539,38.92687 0,12.16175 -4.23983,27.187 -11.0351,39.10652 -4.04547,7.09614 -4.61056,11.87718 -2.06327,17.4567 1.65882,3.63344 2.05868,6.56463 2.07641,15.22149 0.0186,9.05957 0.38748,11.54798 2.38001,16.05346 3.2355,7.31604 20.14082,29.74859 24.3191,32.27029 1.86973,1.12843 4.28247,3.5036 5.36164,5.27815 2.25567,3.70915 4.05628,4.52418 15.75312,7.13049 7.64384,1.70321 8.93275,2.33647 12.66234,6.22118 3.79894,3.95694 5.59423,4.81049 21.099,10.03129 9.32071,3.1385 21.67175,6.88375 27.44676,8.3228 10.8562,2.7052 18.2948,5.52272 20.9682,7.94207 0.8477,0.76716 4.9141,2.60919 9.0365,4.09341 9.8648,3.55167 31.2045,13.79705 36.945,17.73763 2.5027,1.71792 8.1833,6.54141 12.6236,10.71886 6.7336,6.33499 10.184,8.63076 20.7929,13.83481 12.0645,5.91809 12.9034,6.52673 16.288,11.81767 2.1664,3.38664 4.7376,9.6889 6.5445,16.04106 3.1376,11.03073 3.2636,14.99256 0.8321,26.17409 -0.99,4.55251 -0.8338,7.81138 1.0064,21 1.8537,13.2853 2.1964,20.6024 2.3005,49.1113 0.067,18.425 -0.3586,40.25 -0.9465,48.5 -1.6434,23.06479 0.062,35.52979 5.7473,42.00489 1.6799,1.9133 7.1735,6.5715 12.2079,10.3515 5.0345,3.78 13.5196,11.5951 18.8559,17.367 5.9004,6.3821 10.9946,10.9744 13,11.7192 1.8137,0.6736 5.7727,2.3023 8.7977,3.6194 3.025,1.317 8.1301,3.0478 11.3447,3.8461 10.3711,2.5755 17.0553,8.5303 17.0553,15.1942 0,4.057 -2.6761,7.1415 -9.3449,10.7711 -6.5152,3.5461 -12.2447,4.1906 -20.6521,2.3232 -3.7967,-0.8432 -11.1451,-2.0685 -16.3298,-2.7228 -9.6914,-1.2229 -9.4307,-1.1186 -27.5732,-11.034 -3.85,-2.1042 -10.4762,-4.7756 -14.7249,-5.9366 l -7.7249,-2.1108 -12.5886,2.1532 c -15.6761,2.6812 -18.5437,2.2542 -24.1594,-3.5975 -7.1415,-7.4418 -7.1298,-16.2332 0.046,-34.4711 3.658,-9.2968 4.821,-13.8486 6.0201,-23.5611 1.3908,-11.2659 1.3633,-12.7582 -0.429,-23.263 -3.2609,-19.11189 -5.538,-26.46999 -10.6253,-34.33419 -5.952,-9.2009 -7.9483,-14.5666 -9.8759,-26.5458 -1.4353,-8.9192 -1.4208,-11.4103 0.1786,-30.7393 0.9573,-11.5685 1.437,-22.22944 1.066,-23.69095 -0.5101,-2.01012 -2.5602,-3.69228 -8.4173,-6.90684 -4.2586,-2.33725 -10.2761,-6.6658 -13.3722,-9.619 l -5.6293,-5.36946 -0.6165,3.8554 c -0.8505,5.31851 -4.4333,10.26017 -9.4448,13.02687 -2.321,1.28132 -23.0036,8.96888 -45.96134,17.08348 l -41.7414,14.7539 -0.25916,50.6665 c -0.14251,27.8665 0.11665,50.66649 0.57595,50.66649 0.4593,0 16.94371,-6.3161 36.63204,-14.0357 l 35.79691,-14.03559 10.1272,6.3237 10.1271,6.32359 0.2861,10.316 c 0.1574,5.6738 -0.1456,10.8317 -0.6732,11.462 -0.5277,0.6303 -32.0412,13.296 -70.02997,28.146 l -69.07058,27 0.0628,9 c 0.0346,4.95 0.40226,15.525 0.81712,23.5 0.85583,16.4519 1.47752,18.2536 8.86968,25.7045 8.03803,8.102 11.80692,13.3854 17.08998,23.9577 4.06151,8.1277 6.18329,11.1163 10.59837,14.928 3.55576,3.0698 6.09236,6.2639 7.12799,8.9757 0.88428,2.3154 3.3659,5.9266 5.51472,8.0249 4.48927,4.3837 4.8934,7.077 1.81041,12.0654 -2.99084,4.8392 -7.06109,6.6613 -13.65856,6.1142 -4.56539,-0.3786 -5.61206,-0.1463 -6.58643,1.4619 -1.61413,2.6642 -7.07301,4.7677 -12.37286,4.7677 -2.95596,0 -5.33142,0.6774 -7.01274,2 -3.03107,2.3842 -8.59556,2.6016 -12.63718,0.4938 z m 9.20433,-5.0943 c 1.25676,-0.8803 5.06939,-1.8406 8.4725,-2.1339 7.75754,-0.6688 9.49932,-1.5711 11.28556,-5.8461 0.78582,-1.8808 1.63684,-3.4195 1.89117,-3.4195 0.25433,0 1.93579,0.8983 3.73658,1.9962 4.57588,2.7899 8.58292,2.5612 11.96945,-0.6833 3.61699,-3.4653 3.54573,-6.3082 -0.26026,-10.3825 -1.68574,-1.8046 -3.76298,-4.6309 -4.61608,-6.2806 -0.85311,-1.6497 -4.60695,-6.228 -8.34186,-10.1741 -3.73491,-3.946 -8.01997,-9.6048 -9.52235,-12.5751 -3.76231,-7.4384 -9.13849,-15.1241 -16.36894,-23.4006 -3.36339,-3.85 -6.9782,-8.8 -8.03293,-11 -2.74004,-5.7154 -4.01855,-19.6094 -4.23284,-46 -0.20818,-25.6379 0.2622,-28.6424 5.78698,-36.9633 7.52097,-11.3275 9.46789,-21.4919 7.40076,-38.638 -0.68951,-5.7193 -1.47156,-10.7713 -1.73788,-11.2267 -0.79656,-1.3619 -8.0628,11.267 -11.1946,19.4565 -4.30052,11.2457 -9.11077,28.8088 -9.3586,34.17 -0.11917,2.5782 -0.52386,4.6907 -0.89929,4.6945 -1.55571,0.016 -1.85965,-4.3809 -0.82514,-11.9364 2.35681,-17.2132 8.84568,-36.4736 15.73626,-46.7087 5.40404,-8.02699 7.75496,-14.91279 8.73032,-25.57099 0.61476,-6.7178 1.23677,-8.5402 4.77841,-14 6.94783,-10.7109 7.74751,-13.2419 6.92024,-21.9026 -0.77965,-8.1622 0.17837,-14.26 2.13872,-13.6128 0.66209,0.2186 1.43303,1.9367 1.7132,3.8179 l 0.5094,3.4206 2.2406,-4.5658 c 2.60294,-5.304 2.80171,-10.537 1.17217,-30.8586 -1.83592,-22.89528 -7.73162,-39.03645 -17.52904,-47.99074 -7.77192,-7.10309 -13.09983,-8.53776 -28.87574,-7.77548 -6.61473,0.31961 -13.82679,1.09908 -16.02679,1.73215 -7.9598,2.29049 -19.5,17.58076 -19.5,25.83666 0,5.42866 3.77495,18.0294 7.30212,24.37438 1.75884,3.16393 5.83523,9.58853 9.05866,14.27683 l 5.86077,8.5242 0.31066,21.1147 c 0.18218,12.3821 -0.10015,22.1935 -0.68265,23.7232 -0.54632,1.4346 -1.41198,4.8127 -1.92369,7.5068 -1.03041,5.425 0.76022,14.6761 5.52162,28.5268 2.84188,8.26689 2.9816,9.07479 1.56936,9.07479 -1.42875,0 -5.61082,-8.69539 -8.924,-18.55499 -1.58261,-4.7096 -3.08958,-8.775 -3.34882,-9.0343 -0.73277,-0.7327 -6.4185,17.2277 -8.1008,25.58929 -3.75916,18.6843 -3.28563,27.8691 2.99023,58 6.85598,32.9162 7.89072,46.8298 4.45571,59.9135 l -1.91083,7.2782 3.49172,3.8649 c 3.60402,3.9892 4.11231,7.5537 1.04163,7.3046 -2.09004,-0.1696 -2.10653,0.2683 -0.2123,5.6371 1.03756,2.9408 1.42258,7.3687 1.25,14.3757 l -0.24939,10.1261 4.17567,7 c 4.87259,8.1683 6.35242,13.0744 6.04664,20.0467 -0.31922,7.2786 1.78682,9.8843 11.76965,14.5625 4.56651,2.1399 9.4225,3.8908 10.79109,3.8908 1.36858,0 3.77727,0.6722 5.35264,1.4938 3.61475,1.8852 4.39266,1.875 7.20433,-0.094 z m 14.4661,-15.3021 c -1.10641,-2.8167 -2.21016,-4.0974 -3.53113,-4.0974 -1.25637,0 -1.8097,-0.5772 -1.59831,-1.6672 0.54585,-2.8145 2.4721,-2.5801 6.28132,0.7644 2.69344,2.3649 3.56713,3.8606 3.34402,5.7249 -0.49411,4.1287 -2.73107,3.7681 -4.4959,-0.7247 z m -31.05612,-0.8032 c -1.63013,-0.314 -2.25,-1.1342 -2.25,-2.9773 0,-2.3285 0.27522,-2.4923 3.25,-1.9341 9.23115,1.7321 11.12727,1.8128 14.72227,0.6263 4.3976,-1.4513 9.02773,-0.6769 9.02773,1.5099 0,1.0574 -1.12709,1.481 -3.94098,1.481 -2.16754,0 -4.2191,0.45 -4.55902,1 -0.59942,0.9698 -11.69873,1.1708 -16.25,0.2942 z m -22.24821,-59.0442 c 9.8e-4,-0.4125 2.65307,-4.2888 5.89352,-8.614 3.24045,-4.3251 7.15396,-10.4001 8.69668,-13.5 2.0567,-4.1326 2.91383,-5.1231 3.21313,-3.713 0.51779,2.4394 -7.86975,19.1071 -11.75661,23.3627 -2.67763,2.9316 -6.05111,4.3064 -6.04672,2.4643 z M 449.6875,961.28681 c -2.89338,-1.489 -6.43186,-5.1455 -6.47776,-6.6938 -0.0387,-1.3063 2.42519,-0.817 6.51632,1.2942 2.733,1.4103 4.96926,1.8614 7.21144,1.4547 2.93926,-0.5332 3.25,-0.3564 3.25,1.8488 0,3.8648 -5.08893,4.8807 -10.5,2.0961 z m 24.22065,-41.1385 c -0.2562,-0.4429 -0.77239,-2.9206 -1.14709,-5.5059 -0.51019,-3.5201 -1.82591,-6.0909 -5.23933,-10.2371 -4.14501,-5.035 -5.17512,-8.5623 -2.50047,-8.5623 4.02485,0 13.63989,15.9772 12.99665,21.5964 -0.31376,2.741 -3.04858,4.5436 -4.10976,2.7089 z m -35.47065,-4.9676 c -2.3361,-0.9427 -1.26048,-3.143 3.72967,-7.6296 2.73882,-2.4624 6.79928,-6.7791 9.02325,-9.5926 4.40824,-5.57687 5.99911,-6.33749 5.99334,-2.8655 -0.007,4.2888 -9.02974,16.6817 -14.02626,19.2655 -1.57888,0.8164 -3.00553,1.4489 -3.17034,1.4055 -0.16481,-0.043 -0.86216,-0.3059 -1.54966,-0.5833 z m 321.52751,192.10559 c 2.4485,-1.715 3.0115,-6.2543 1.0225,-8.2433 -0.66,-0.66 -3.0225,-1.203 -5.25,-1.2066 -2.3581,0 -5.3033,-0.8366 -7.05,-1.9934 -1.65,-1.0928 -3.986,-1.9898 -5.191,-1.9935 -1.205,0 -2.4691,-0.4565 -2.809,-1.0065 -0.9475,-1.5331 5.0758,-1.2041 9.1542,0.5 1.9745,0.825 4.8639,1.5 6.4209,1.5 4.5538,0 7.873,2.0411 8.8092,5.4172 l 0.8549,3.0828 1.1305,-2.8155 c 1.1489,-2.8612 0.1033,-6.6845 -1.8282,-6.6845 -0.4884,0 -2.1601,-1.0601 -3.7148,-2.3557 -1.5547,-1.2956 -4.538,-2.6705 -6.6296,-3.0552 -2.0915,-0.3848 -8.6165,-2.5617 -14.5,-4.8377 -10.3891,-4.019 -10.9731,-4.4132 -20.2845,-13.6948 -5.273,-5.2562 -15.1975,-13.7344 -22.0544,-18.8405 -6.8568,-5.1061 -13.2499,-10.6092 -14.2068,-12.2291 -4.9851,-8.4392 -6.3834,-30.9136 -4.1676,-66.98699 1.7716,-28.8411 1.5709,-40.564 -1.0612,-62 -0.8442,-6.875 -1.7665,-14.4412 -2.0496,-16.81372 -0.399,-3.34435 -0.8003,-4.0766 -1.7858,-3.25867 -1.7907,1.48608 -2.5872,0.30855 -2.5872,-3.82461 0,-2.36826 1.2484,-5.58282 3.7219,-9.58333 2.5577,-4.13674 3.6946,-7.1168 3.6346,-9.527 -0.1462,-5.86647 -5.2685,-21.08667 -9.5423,-28.3533 l -4.0349,-6.86059 -11.5507,-5.42736 c -9.9839,-4.69113 -12.648,-6.49249 -19.6397,-13.27938 -4.4489,-4.31862 -11.2463,-9.88033 -15.1053,-12.35936 -9.994,-6.42021 -36.9624,-17.58439 -44.3398,-18.35548 -6.6167,-0.69158 -19.2531,1.66166 -25.23849,4.70012 -7.27825,3.69473 -12.9821,12.73199 -16.42738,26.02774 -1.51467,5.84534 -5.71724,32.05075 -5.20916,32.48208 0.12717,0.10796 4.37407,2.29462 9.43755,4.85924 10.45571,5.29576 17.55758,7.02192 35.08078,8.52664 20.522,1.76222 24.2605,3.13923 36.3653,13.39463 11.2083,9.4959 17.5621,12.71152 29.6399,15.00074 3.4608,0.65596 6.3858,1.6334 6.5,2.1721 0.1143,0.53897 -2.7596,1.11088 -6.3902,1.27168 l -6.5979,0.29223 -1.9021,12.2078 c -2.7604,17.7161 -2.5876,39.5653 0.3954,50.0171 2.985,10.4582 5.792,15.7316 13.6207,25.5877 5.2009,6.5477 6.5818,9.0014 6.5818,11.6946 0,3.7835 -2.1082,4.6546 -4.0134,1.6583 -0.9408,-1.4793 -1.0283,-1.3467 -0.5663,0.8579 4.4634,21.29949 4.5112,42.28569 0.1259,55.34939 -1.4087,4.1962 -3.897,10.2757 -5.5297,13.5101 -5.4442,10.7849 -4.772,19.2688 1.8814,23.7461 3.6759,2.4737 11.2545,2.9664 25.2682,1.6427 5.311,-0.5017 6.551,-0.9297 6.0999,-2.1053 -1.3491,-3.5158 12.1301,1.7622 25.734,10.0766 7.1994,4.4001 7.5214,4.4972 8.0348,2.4217 0.5057,-2.0443 0.66,-1.9866 2.8289,1.0594 3.5756,5.0216 6.6424,6.0656 19.2619,6.5578 7.2404,0.2824 12.6465,1.0091 14.8744,1.9995 4.5485,2.022 11.9459,2.0608 14.7775,0.078 z m -107.2061,-41.0148 c -1.9572,-1.9572 -2.0041,-5.3731 -0.1325,-9.6446 0.7914,-1.8062 1.7,-4.5214 2.0191,-6.0339 0.319,-1.5125 1.0215,-2.75 1.561,-2.75 1.3841,0 1.1999,3.7073 -0.4552,9.1609 -1.854,6.1089 -0.6486,7.8419 5.997,8.6217 4.1246,0.4839 4.5269,0.6982 2.4392,1.2988 -4.4606,1.2832 -9.7973,0.9784 -11.4286,-0.6529 z m -24.6298,-195.37677 c -4.6179,-1.40126 -7.3609,-3.24288 -13.4416,-9.02466 -4.3131,-4.10104 -7.5464,-6.20947 -11.5,-7.49922 -7.2151,-2.35368 -7.1789,-2.32509 -5.9205,-4.67636 0.8415,-1.5724 1.6833,-1.87937 3.7527,-1.36852 3.8762,0.95687 11.6802,6.17409 19.149,12.80157 7.7161,6.84703 12.0002,8.47107 18.1969,6.89818 4.6338,-1.17618 6.2673,-0.50694 5.2477,2.15002 -0.5066,1.3201 -1.9188,1.64932 -6.7828,1.58127 -3.3786,-0.0473 -7.2943,-0.4353 -8.7014,-0.86228 z m 15.8611,-17.80177 c -0.3586,-9.21089 -0.8755,-11.87041 -3.6106,-18.57556 -3.5366,-8.67016 -3.962,-11.67444 -1.6531,-11.67444 0.9179,0 2.8794,2.79681 4.8597,6.92902 2.9371,6.12868 3.4029,8.26403 4.0324,18.48719 0.7443,12.08557 0.3205,15.58379 -1.8879,15.58379 -0.988,0 -1.4277,-2.71551 -1.7405,-10.75 z m -122.65305,196.58724 66.85035,-26.1627 0,-7.1922 0,-7.1922 -7.75,-4.8153 c -4.2625,-2.6484 -8.425,-4.76199 -9.25,-4.69679 -0.825,0.065 -18.09471,6.67449 -38.37712,14.68719 -28.76532,11.364 -37.18032,14.317 -38.25554,13.4247 -1.15487,-0.9585 -1.26995,-9.6376 -0.70955,-53.51699 0.36788,-28.8051 0.28982,-52.3729 -0.17347,-52.3729 -3.15228,0 -7.4253,2.6392 -7.97825,4.9278 -0.34181,1.4147 -1.67687,5.2721 -2.96681,8.5722 -1.28994,3.3 -2.8735,8.6001 -3.51903,11.778 -0.64553,3.178 -3.21317,10.0835 -5.70587,15.3456 -3.12677,6.6007 -4.83642,11.7861 -5.51329,16.722 -0.53961,3.9349 -1.28204,8.6746 -1.64985,10.5327 -0.3678,1.8581 -0.13668,7.9331 0.51361,13.49999 2.57726,22.0631 0.77341,34.138 -7.57759,50.7241 -2.65913,5.2814 -5.38437,11.2678 -6.0561,13.3031 -1.14575,3.4717 -0.76573,8.5944 0.63757,8.5944 0.34683,0 30.71326,-11.7732 67.48094,-26.1627 z m 13.1893,-148.45339 c 25.93855,-9.13895 48.63445,-17.5074 50.43525,-18.59659 4.0649,-2.4585 6.2258,-6.49211 6.2258,-11.62097 0,-4.8443 -0.052,-4.86258 -17.6003,-6.16963 -12.5731,-0.93649 -27.56186,-4.05245 -35.46958,-7.37365 -3.29834,-1.38528 -3.79273,-1.35241 -6.5,0.43225 -6.91768,4.56018 -13.84658,1.63568 -31.81762,-13.42937 -5.07954,-4.25815 -6.49906,-4.34267 -15.48989,-0.92221 l -4.37737,1.66533 0.75161,6.56549 c 0.41339,3.61103 0.90332,9.60282 1.08873,13.31511 0.18541,3.71228 0.77435,8.43728 1.30876,10.5 0.53441,2.06271 1.25484,6.45039 1.60096,9.75039 0.34612,3.3 0.84736,7.17072 1.11386,8.60161 l 0.48455,2.60164 40.69143,-13.35164 c 22.38029,-7.34339 41.29216,-13.35161 42.02646,-13.35161 0.7343,0 1.1895,0.73133 1.0117,1.62519 -0.2365,1.18869 -11.5366,5.27636 -42.07331,15.21949 l -41.75,13.59427 0,8.7805 c 0,4.8293 0.26503,8.7805 0.58896,8.7805 0.32393,0 21.81143,-7.4772 47.75,-16.6162 z M 293.6713,872.19256 c 28.05891,-9.15773 51.15816,-16.76219 51.33168,-16.89881 0.17351,-0.13663 -1.02147,-2.88144 -2.65551,-6.0996 -5.43929,-10.71238 -7.97887,-11.9881 -29.47401,-14.80587 -15.81884,-2.07367 -14.68596,-2.29651 -14.68596,2.88883 l 0,4.43416 -28.25,9.12185 c -15.5375,5.01702 -30.725,9.92001 -33.75,10.89554 l -5.5,1.77369 -0.29628,6.69603 -0.29627,6.69602 5.69849,5.97428 c 3.13418,3.28585 5.96021,5.97428 6.28008,5.97428 0.31987,0 23.53887,-7.49268 51.59778,-16.6504 z m 102.63827,7.9754 c -1.17884,-2.02721 -1.46351,-1.37835 -0.49853,1.13634 0.34294,0.8937 0.83419,1.41426 1.09166,1.15679 0.25747,-0.25747 -0.009,-1.28938 -0.59313,-2.29313 z m -0.0459,-20.00941 c 1.98322,-3.92716 5.96777,-9.38038 9.46995,-12.9605 4.92083,-5.03035 7.15425,-6.52262 12,-8.01789 11.30205,-3.4875 37.79735,-1.28828 46.19037,3.83399 1.78008,1.08638 5.1845,4.2021 7.56539,6.92381 l 4.32888,4.94856 -0.42219,-5.83678 c -0.38114,-5.26922 -0.19302,-5.98562 1.93461,-7.36733 3.60325,-2.33999 13.60199,-5.84088 16.64432,-5.82773 1.83413,0.008 6.92217,3.0829 15.71249,9.49587 12.55252,9.15768 17.28228,11.27174 19,8.49241 0.64503,-1.04367 -0.5182,-1.33812 -4.15449,-1.05164 -1.18497,0.0934 -2.42462,-0.26735 -2.75479,-0.80157 -0.75551,-1.22244 1.87878,-21.65629 4.37259,-33.91767 2.15039,-10.57282 8.20331,-24.02766 13.00351,-28.90505 3.59387,-3.65166 15.5542,-8.93012 24.4427,-10.78733 l 6.0905,-1.27258 -6,-1.72006 c -3.3,-0.94603 -9.15,-2.62736 -13.00002,-3.73628 -3.85,-1.10892 -15.325,-5.14527 -25.5,-8.96966 -14.37778,-5.40406 -19.05706,-7.60888 -21,-9.89493 -1.82097,-2.14255 -4.67289,-3.59895 -10.5,-5.36207 -4.4,-1.33131 -9.8,-3.11195 -12,-3.95697 -2.2,-0.84502 -5.18125,-1.55616 -6.625,-1.5803 -1.44375,-0.0241 -4.06755,-0.3324 -5.83066,-0.68502 -4.11756,-0.82351 -2.06781,-2.32202 3.20566,-2.34356 2.0625,-0.008 3.75,-0.45375 3.75,-0.98963 10e-6,-1.90568 -5.98364,-4.02568 -11.36236,-4.02568 -22.58725,0 -57.0803,15.52448 -76.4399,34.40373 -13.9882,13.64111 -15.46025,17.74603 -11.68926,32.59627 1.32682,5.225 3.53617,12.2 4.90969,15.5 2.19764,5.28003 2.50237,5.62789 2.53957,2.89894 0.0232,-1.70558 -1.08273,-5.2169 -2.45773,-7.80292 -2.88235,-5.42095 -2.9245,-5.6084 -1.25,-5.55958 1.89355,0.0552 6.63247,6.81337 7.78877,11.10755 1.02745,3.81565 0.0248,16.09328 -2.0868,25.55355 -1.09499,4.90568 2.10101,31.74403 4.22993,35.52086 1.17315,2.08122 1.33811,1.69299 1.87828,-4.4207 0.4247,-4.80677 1.5605,-8.61977 4.016,-13.48211 z m 74.18966,-26.56559 c -0.53848,-0.6875 -2.6885,-4.4 -4.77783,-8.25 -2.08933,-3.85 -4.96636,-8.29424 -6.39339,-9.8761 -3.56131,-3.94767 -9.66951,-6.5757 -15.34461,-6.60194 -4.09546,-0.0189 -4.75,-0.30097 -4.75,-2.04671 0,-4.38174 7.30086,-4.43578 15.73795,-0.11648 8.54938,4.37678 23.65231,28.14123 17.88449,28.14123 -0.75765,0 -1.81813,-0.5625 -2.35661,-1.25 z m 27.40084,-27.41667 c -1.00625,-1.00624 -0.75412,-10.24135 0.41862,-15.33333 1.35392,-5.87867 6.29949,-15.85695 9.65031,-19.47065 3.95057,-4.26052 3.93293,-1.4023 -0.0322,5.20903 -4.23784,7.06615 -5.35531,10.70902 -6.1129,19.9277 -0.77408,9.41922 -1.75507,11.83607 -3.92388,9.66725 z M 383.1875,799.31444 c 0,-9.53112 18.89492,-33.2775 31.69136,-39.82843 1.75525,-0.89857 7.08172,-2.54088 11.8366,-3.64957 10.38162,-2.42068 11.63132,-3.03094 17.6792,-8.63317 4.76844,-4.41708 7.79284,-5.54848 7.79284,-2.91525 0,1.69901 -9.77563,9.88967 -14.96025,12.53466 -1.98176,1.01102 -6.06392,2.30094 -9.07147,2.86648 -10.20336,1.91866 -13.76794,3.82698 -23.1187,12.3767 -8.46701,7.74167 -9.40343,9.00485 -14.47583,19.5271 -2.98278,6.1875 -5.86209,11.25 -6.39849,11.25 -0.53639,0 -0.97526,-1.58783 -0.97526,-3.52852 z m 39,-14.28439 c 0,-5.57417 7.41664,-10.14955 31.84829,-19.64742 15.90676,-6.1838 35.23501,-12.53967 38.13322,-12.53967 3.94207,0 1.91946,1.8541 -5.23151,4.79567 -3.9875,1.64027 -14.45,5.55992 -23.25,8.71032 -21.90397,7.84162 -27.58508,10.56089 -34.34189,16.43778 -3.1973,2.78093 -6.11586,5.05623 -6.48569,5.05623 -0.36983,0 -0.67242,-1.26581 -0.67242,-2.81291 z m 15.49563,1.80585 c -0.34231,-0.55389 -0.0314,-1.19047 0.69099,-1.41463 8.70338,-2.70079 11.67993,-4.24286 18.21729,-9.43786 4.59389,-3.65059 8.90414,-6.2481 10.8572,-6.54292 15.08659,-2.2774 22.57485,-4.01539 26.78448,-6.21655 4.87837,-2.55083 6.95441,-2.50456 6.95441,0.15498 0,2.48346 -4.2035,4.23352 -15.5,6.45318 -17.48743,3.43614 -20.07568,4.42237 -26.13186,9.95738 -3.69508,3.37709 -7.1514,5.50557 -10.60623,6.53154 -5.91584,1.75682 -10.37283,1.96051 -11.26628,0.51488 z m -60.49563,82.35145 c 0,-1.46323 -5.19849,-7.34439 -6.49187,-7.34439 -2.71693,0 -2.68669,2.20419 0.0697,5.08126 2.49485,2.60406 6.42215,3.98802 6.42215,2.26313 z m -11.57119,-3.84884 c -1.47013,-1.92744 -4.88918,-5.13129 -7.59789,-7.11967 -2.7087,-1.98837 -4.69294,-3.84719 -4.40942,-4.13071 0.28352,-0.28353 3.11717,0.75915 6.297,2.31706 3.17982,1.55791 6.09234,2.97881 6.47227,3.15757 0.37992,0.17876 0.43416,-1.25626 0.12053,-3.18893 -0.34801,-2.14452 -0.0823,-4.10181 0.68168,-5.02241 2.0033,-2.41383 3.30918,-1.76925 2.68979,1.32769 -0.49415,2.47073 0.23406,3.63031 5.65191,9 3.42052,3.39012 6.4764,6.16385 6.79084,6.16385 1.75128,0 -2.85897,-20.41786 -8.17925,-36.22421 -4.51494,-13.4137 -4.69322,-15.02884 -1.96058,-17.76148 1.80199,-1.80199 1.87862,-2.44959 0.82825,-7 l -1.15744,-5.01431 -9.25152,0 c -8.26789,0 -9.55207,0.25174 -12.07825,2.36772 -5.54456,4.64422 -12.87305,7.77646 -17.41627,7.44382 -2.34026,-0.17135 -4.43217,-0.85056 -4.64868,-1.50937 -0.27973,-0.85114 0.71079,-1.0375 3.42228,-0.64387 l 3.81594,0.55397 -5,-2.59229 c -8.69755,-4.50932 -14.81994,-9.88414 -19.74098,-17.33052 -5.51278,-8.34179 -8.05346,-10.43362 -20.25902,-16.68 -8.7279,-4.46664 -13.72681,-5.66953 -15,-3.60946 -0.33992,0.55 -1.26648,1 -2.05902,1 -3.00822,0 -1.23991,-4.1576 3.99473,-9.39223 7.64698,-7.64698 8.75808,-11.64429 9.32077,-33.53267 l 0.44794,-17.4249 -3.17893,2.6749 c -3.37086,2.83639 -5.02549,3.36317 -5.02549,1.59994 0,-1.89283 19.40181,-21.92504 21.23508,-21.92504 2.73183,0 2.11576,1.89572 -2.10372,6.47331 -3.17265,3.44193 -4.07217,5.36577 -5,10.69375 -0.62225,3.57322 -1.13136,9.66722 -1.13136,13.54223 l 0,7.04546 8.75,3.09852 c 4.8125,1.70419 11,3.61865 13.75,4.25437 8.86639,2.04962 22.68864,10.19301 40.92207,24.10925 6.23,4.7549 10.54655,10.39641 13.98916,18.28311 0.25214,0.57762 0.84139,0.42184 1.3951,-0.36884 3.77195,-5.38621 13.58765,-15.93852 18.01026,-19.36183 6.02876,-4.66655 5.93864,-4.84867 -3.60946,-7.29478 -5.78061,-1.48092 -9.68158,-1.22852 -17.45713,1.12952 -1.13498,0.34419 -1.75,-0.007 -1.75,-0.99814 0,-3.80695 18.63429,-5.26211 28.43744,-2.22068 l 4.93743,1.53183 5.56257,-3.36383 c 3.05941,-1.85012 7.70006,-4.39613 10.31256,-5.65781 3.6074,-1.74216 4.75,-2.84252 4.75,-4.57438 0,-1.66425 1.11163,-2.84753 4.11417,-4.3793 2.26279,-1.15439 4.34027,-2.96354 4.61663,-4.02033 0.56128,-2.14636 2.2692,-2.63103 2.2692,-0.64394 0,2.12535 -2.79373,5.43191 -6.55185,7.75456 -1.95434,1.20785 -3.40212,2.34731 -3.21729,2.53215 0.18484,0.18483 4.08097,-1.17391 8.65808,-3.01942 4.57711,-1.84551 11.85374,-4.37599 16.17028,-5.62327 l 7.84827,-2.26779 0.29626,-4.99826 c 0.17647,-2.97731 0.8193,-5.17069 1.58987,-5.42473 0.93783,-0.30918 1.11429,0.28802 0.64159,2.1714 -0.35862,1.42883 -0.36967,3.72287 -0.0246,5.09787 0.55251,2.20137 1.16272,2.5 5.10841,2.5 2.46452,0 4.48095,-0.27274 4.48095,-0.6061 0,-0.33335 -1.29111,-2.24585 -2.86913,-4.25 -6.48345,-8.23423 -14.90941,-22.20731 -15.99781,-26.52975 -0.63946,-2.53952 -1.55425,-9.48889 -2.03287,-15.44304 -0.91321,-11.36038 -1.6553,-13.51961 -7.85634,-22.85904 -2.95016,-4.44327 -3.70832,-5.03895 -5.21544,-4.09774 -1.92138,1.19994 -5.02838,0.46901 -5.02838,-1.18295 0,-0.56726 0.675,-1.03138 1.5,-1.03138 2.98376,0 1.36741,-1.56473 -5.0375,-4.87665 -3.59156,-1.85715 -8.53989,-3.60318 -10.9963,-3.88005 -2.45641,-0.27687 -4.4662,-0.9473 -4.4662,-1.48985 0,-0.87323 4.82134,-0.72555 14.96879,0.45848 3.86559,0.45105 3.55331,-2.20217 -1.07496,-9.13306 -4.70812,-7.05047 -14.01806,-14.47388 -20.37736,-16.24818 -5.62316,-1.56891 -21.94068,1.18683 -28.64993,4.83847 l -4.89963,2.66671 2.18715,2.32812 c 3.00831,3.20219 1.6424,4.03933 -2.16601,1.3275 -4.13134,-2.94177 -15.99659,-5.95521 -23.48805,-5.96529 -9.83732,-0.0133 -26.38987,4.27903 -36.80142,9.54305 -5.05922,2.55791 -10.54858,5.66241 -12.19858,6.89887 -4.97796,3.73036 -12.89808,7.35833 -19.90751,9.11905 -7.05777,1.77285 -15.79875,7.56645 -24.41436,16.18207 -5.18583,5.18582 -10.01059,15.02049 -10.8513,22.119 -0.53449,4.51289 -0.40552,5.07919 1.03114,4.52789 2.63105,-1.00963 2.00852,2.22868 -1.7278,8.98777 -6.49456,11.74877 -7.16088,15.10937 -6.85962,34.5961 0.1496,9.67662 -0.25298,21.15665 -0.90052,25.67949 -0.89283,6.23601 -0.89378,8.84966 -0.004,11 0.64188,1.55128 1.33001,5.11056 1.52917,7.90951 0.46241,6.49854 1.42894,8.21608 7.30265,12.97687 2.64119,2.14075 9.08976,7.95169 14.33016,12.9132 10.75473,10.18239 20.56793,16.24117 33.5563,20.71807 6.9789,2.40553 11.74448,3.2038 26.22231,4.39246 9.73137,0.79896 18.81839,1.90843 20.19339,2.46547 2.43435,0.98622 12.08437,16.2341 14.9502,23.62264 0.6779,1.74773 2.09859,3.96145 3.15708,4.91938 1.83205,1.65798 1.98987,1.65231 3.28446,-0.11815 1.28318,-1.75485 1.45128,-1.68318 2.97839,1.26991 1.71414,3.31479 5.19169,6.25115 7.40327,6.25115 0.84872,0 0.36322,-1.2654 -1.34459,-3.50445 z m -64.61862,-55.53852 c -18.52566,-2.16033 -31.10837,-10.30567 -32.55253,-21.07268 -0.73772,-5.50017 0.606,-4.60656 5.07431,3.37455 6.23401,11.13493 9.64215,13.01104 26.66803,14.68022 12.62418,1.23765 15,1.73313 15,3.12827 0,1.05874 -4.46196,1.02404 -14.18981,-0.11036 z m -58.26284,-22.88042 c -1.34615,-2.17811 -1.85677,-11.07661 -0.63561,-11.07661 1.5321,0 4.29355,6.57596 3.89441,9.27394 -0.34201,2.31181 -2.28118,3.3845 -3.2588,1.80267 z m -3.09083,-33.45669 c -0.48291,-2.57411 0.12751,-5.11535 2.55997,-10.65749 3.47574,-7.91915 3.55624,-11.63251 0.35799,-16.51365 -1.76986,-2.70115 -1.78162,-2.70347 -2.74682,-0.54035 -1.22842,2.75299 -4.02431,2.29706 -4.45479,-0.72646 -0.35381,-2.48505 2.21446,-7.18197 3.92711,-7.18197 0.57963,0 2.36925,1.31538 3.97694,2.92308 2.80573,2.80573 2.92308,3.29119 2.92308,12.09263 0,7.35687 -0.51985,10.63388 -2.62967,16.57692 -1.44632,4.07405 -2.77593,7.40737 -2.95469,7.40737 -0.17876,0 -0.61036,-1.52104 -0.95912,-3.38008 z m 164.51655,-13.86992 c -2.07641,-4.57444 -2.56239,-8.75 -1.01838,-8.75 0.52507,0 1.24741,1.56037 1.60519,3.46748 0.35777,1.90711 1.72816,4.6303 3.04531,6.05152 2.91821,3.1488 2.95122,3.481 0.34592,3.481 -1.44119,0 -2.62109,-1.26057 -3.97804,-4.25 z m -87.13149,-9 c -0.67583,-1.2375 -1.54321,-4.84253 -1.92749,-8.01117 -0.38429,-3.16864 -1.44807,-6.90483 -2.36395,-8.30264 -1.50559,-2.29783 -2.09112,-2.47761 -6.10769,-1.87529 -3.56215,0.53418 -4.44245,0.37178 -4.44245,-0.81955 0,-0.95041 1.38704,-1.70753 3.84959,-2.10131 2.11727,-0.33856 4.97703,-1.50242 6.35501,-2.58634 2.85802,-2.24812 5.83417,-7.78909 5.14637,-9.58147 -0.25408,-0.66213 -2.94685,-1.46034 -5.98393,-1.7738 -5.43585,-0.56103 -10.36704,-2.80685 -10.36704,-4.72148 0,-1.54703 2.6229,-1.13625 4.09863,0.64189 1.07718,1.29792 2.48916,1.49616 7.12245,1 3.1784,-0.34036 8.41719,-0.90074 11.64175,-1.24529 4.1069,-0.43883 6.08747,-0.26298 6.61287,0.58713 1.14957,1.86005 -1.07995,3.61265 -2.79016,2.19331 -0.8123,-0.67416 -2.69748,-0.9016 -4.4943,-0.54224 -2.83578,0.56716 -3.04807,0.88164 -2.53391,3.75363 0.74629,4.16862 3.47845,6.38248 8.87556,7.19182 2.57545,0.38622 4.18666,1.08756 3.82877,1.66665 -0.72093,1.16647 -9.71935,0.19027 -12.63636,-1.37087 -1.55733,-0.83345 -2.4787,-0.50536 -4.7845,1.70373 l -2.85573,2.73597 1.95746,2.48852 c 1.07661,1.36869 1.96242,3.89033 1.96848,5.60366 0.0245,6.92779 1.21441,10.75034 3.63272,11.66978 3.16445,1.20313 3.089,3.94536 -0.10855,3.94536 -1.52535,0 -2.93316,-0.85759 -3.6936,-2.25 z m 65.09983,-1.16496 c -2.08801,-2.21369 -3.78747,-3.20313 -4.83124,-2.81277 -1.39572,0.52199 -1.42738,0.37747 -0.23773,-1.08504 1.89275,-2.32686 2.84502,-2.14249 6.78034,1.31277 3.74206,3.28557 6.51938,3.68819 10.34722,1.5 2.94915,-1.68589 8,-1.95902 8,-0.43261 0,0.61558 -0.85442,0.7962 -2.01856,0.42672 -1.37284,-0.43572 -2.99684,0.1825 -5.07672,1.93261 -4.4682,3.75974 -8.89419,3.47237 -12.96331,-0.84168 z m 57.55859,0.67472 c -7.80251,-0.5926 -7.95006,-2.25976 -0.2,-2.25976 5.28889,0 6.7,0.31592 6.7,1.5 0,0.825 -0.3375,1.41889 -0.75,1.31975 -0.4125,-0.0991 -3,-0.35113 -5.75,-0.55999 z m -102.14767,-3.25307 c -1.18122,-0.47659 -2.48869,-1.4183 -2.90548,-2.09268 -0.5723,-0.92601 0.19821,-1.06825 3.14767,-0.58109 2.14802,0.35479 6.09808,0.65002 8.77792,0.65607 4.21707,0.01 4.705,0.21277 3.62756,1.51101 -1.37576,1.65769 -9.03453,1.96451 -12.64767,0.50669 z m 88.57181,-5.51143 c -1.69034,-3.57761 -3.93978,-6.96844 -4.99874,-7.53519 -2.2476,-1.20287 -2.5529,-2.96007 -0.51429,-2.96007 1.99858,0 6.58866,5.74883 7.25659,9.08851 0.30902,1.54509 1.4102,3.577 2.44708,4.51536 2.27127,2.05547 2.42284,3.39613 0.38396,3.39613 -0.86617,0 -2.80141,-2.75177 -4.5746,-6.50474 z m 21.6323,2.03253 c -0.50809,-3.3882 -1.43719,-5.07212 -3.83305,-6.94717 -3.38184,-2.64668 -3.24579,-4.19859 0.27025,-3.08264 3.00951,0.95518 5.99819,6.30857 6.00262,10.75202 0.005,5.19182 -1.62534,4.70917 -2.43982,-0.72221 z m -89.65523,0.36645 c -2.69537,-2.8854 -3.82143,-5.89424 -2.20593,-5.89424 0.38241,0 1.98925,1.2375 3.57077,2.75 2.55629,2.44473 3.58917,2.7397 9.30472,2.65723 4.46043,-0.0644 6.42923,0.28271 6.42923,1.13337 0,1.57774 -3.25229,2.42858 -9.34879,2.44575 -4.14385,0.0117 -5.27058,-0.43788 -7.75,-3.09211 z m 41.09879,-1.73925 c 0,-2.59519 3.27489,-5.25739 8.72035,-7.08886 4.75402,-1.59892 8.86029,-6.44108 7.2643,-8.56613 -0.41307,-0.55 -1.26001,-3.41453 -1.88209,-6.36563 -0.62207,-2.9511 -2.02464,-6.62056 -3.1168,-8.15437 -2.74345,-3.85281 -2.55155,-5.39683 0.42809,-3.44449 2.91376,1.90917 5.58388,7.21646 5.59231,11.11562 0.003,1.56688 0.69194,4.16394 1.53012,5.77124 0.83818,1.6073 1.1297,3.1823 0.64781,3.5 -0.48188,0.3177 -1.18188,1.82658 -1.55555,3.35307 -1.06567,4.35332 -4.0827,6.72456 -8.55596,6.72456 -2.99818,0 -4.3927,0.59151 -5.89392,2.5 -2.34102,2.97612 -3.17866,3.14872 -3.17866,0.65499 z m -53,-6.0033 c 0,-0.46657 1.79691,-1.55416 3.99314,-2.41686 5.52602,-2.17068 6.32908,-4.78684 5.48709,-17.87533 -0.72729,-11.30545 -0.22809,-14.8595 2.08716,-14.8595 1.7057,0 1.76859,0.73775 0.39805,4.6693 -0.77326,2.21817 -0.64697,4.4558 0.5,8.85932 3.14237,12.06437 1.02792,19.40746 -6.16342,21.40444 -4.61401,1.28127 -6.30202,1.33983 -6.30202,0.21863 z m 24,-3.98271 c 0,-0.45706 1.16339,-1.45365 2.58531,-2.21464 3.18374,-1.70388 5.41469,-5.8255 5.41469,-10.00347 0,-4.7726 4.92038,-8.95087 10.54066,-8.95087 2.38103,0 5.4599,-0.42991 6.84194,-0.95537 6.39484,-2.43131 7.75823,-11.45922 3.24287,-21.47303 -3.63226,-8.05531 -2.84935,-8.99498 1.83164,-2.19839 3.5177,5.10754 3.91539,6.34813 4.3298,13.50676 l 0.45632,7.88265 -3.85375,2.61869 c -2.68049,1.82144 -5.16287,2.61869 -8.15373,2.61869 -2.36499,0 -5.83373,0.64084 -7.70831,1.42409 -2.78227,1.16251 -3.53529,2.12686 -4.09951,5.25 -0.87025,4.8171 -2.00696,7.11255 -5.23721,10.57591 -2.41029,2.58423 -6.19072,3.75608 -6.19072,1.91898 z m 68.63568,-2.31305 c -1.05771,-0.61459 -3.86996,-0.83355 -6.5,-0.50609 -6.27403,0.78115 -11.5295,-0.4407 -11.98107,-2.78551 -0.28826,-1.49681 9.6e-4,-1.6851 1.49397,-0.97258 1.01828,0.48596 4.95298,0.76683 8.74377,0.62417 4.89014,-0.18404 7.57724,0.18936 9.25,1.28539 3.84151,2.51706 2.93242,4.64341 -1.00667,2.35462 z m -1.92968,-6.52262 c -0.35146,-0.56867 -0.5984,-3.05715 -0.54877,-5.52996 0.0546,-2.72158 -0.59598,-5.54334 -1.6485,-7.14968 -1.68339,-2.56918 -1.67453,-2.65367 0.27843,-2.65367 2.30741,0 4.25542,4.41992 4.14255,9.39922 -0.0883,3.89786 -1.3694,7.3164 -2.22371,5.93409 z m -102.05101,-5.16205 c -2.61375,-2.88816 -2.07357,-4.49163 0.8646,-2.56647 2.48698,1.62953 7.51884,1.56958 13.23041,-0.15764 3.92249,-1.18618 2.4557,1.25339 -1.77024,2.94427 -5.3584,2.14401 -10.26454,2.05637 -12.32477,-0.22016 z m -9.45499,-11.37126 c -0.66,-0.66 -1.2,-1.785 -1.2,-2.5 0,-1.54269 2.18079,-1.71921 3.60797,-0.29203 0.6773,0.6773 3.03282,0.18521 7.18013,-1.5 6.39112,-2.59694 11.2119,-3.24532 11.2119,-1.50797 0,0.55 -1.05728,1 -2.34952,1 -1.29223,0 -4.32973,1.34181 -6.75,2.9818 -4.59035,3.11046 -9.62574,3.89294 -11.70048,1.8182 z m 102.8,-1.81878 c -0.91851,-0.63086 -4.60127,-0.79123 -9.5,-0.41369 -7.68919,0.59259 -8.09404,0.51599 -10.42061,-1.97155 -2.80194,-2.99581 -2.05753,-4.79116 0.88312,-2.12991 1.71728,1.55412 2.55818,1.64025 6.44895,0.66054 6.54083,-1.647 9.98399,-1.38999 12.98308,0.9691 1.46534,1.15264 3.36363,1.82733 4.21842,1.49932 0.97604,-0.37454 1.40094,-0.13116 1.14227,0.65429 -0.53554,1.62615 -3.84116,2.04653 -5.75523,0.7319 z m -158.46114,-5.23122 c 1.00142,-4.66434 2.07093,-6.35911 5.72457,-9.07125 3.67176,-2.72559 8.87704,-4.67875 12.46913,-4.67875 4.25348,0 1.90036,2.34163 -3.80085,3.78228 -6.5079,1.64449 -8.598,3.34447 -11.02576,8.96772 -2.2112,5.12167 -4.391,5.76905 -3.36709,1 z m 87.46114,-3.03181 c 0,-3.56811 3.22903,-7.11705 10.27993,-11.29838 14.59215,-8.65345 16.22032,-10.48119 13.303,-14.93359 -2.46757,-3.76598 -1.7987,-5.30332 0.94867,-2.18046 3.20899,3.64757 3.29108,9.17769 0.20425,13.75824 -1.84822,2.74258 -3.27191,3.57205 -7.75,4.51531 -9.90513,2.0864 -11.89786,3.37825 -13.66408,8.85819 -1.20501,3.73873 -3.32177,4.55483 -3.32177,1.28069 z m -56.7541,0.0318 c 0.27026,-0.81881 3.48979,-1.43512 9.33334,-1.78666 12.26061,-0.73758 17.09881,-3.61669 25.50927,-15.18002 4.24074,-5.8305 6.06209,-7.42613 11.23631,-9.84381 3.39635,-1.58697 9.73336,-3.77287 14.08224,-4.85756 7.91228,-1.97347 9.54896,-3.05551 9.57763,-6.33195 0.008,-0.9625 0.52456,-1.75 1.14698,-1.75 1.35215,0 0.55399,7.71434 -0.95421,9.22254 -0.5392,0.5392 -4.06221,1.61977 -7.82891,2.40128 -9.15178,1.89878 -16.30206,5.51645 -20.98792,10.61878 -15.6455,17.03606 -18.51029,18.70324 -32.19396,18.73544 -7.02755,0.0165 -9.23141,-0.28685 -8.92077,-1.22804 z m 128.7541,-4.35842 c 0,-1.83027 -1.41703,-3.91534 -4.75,-6.98933 -3.97198,-3.66335 -4.40053,-4.38266 -2.61636,-4.39157 3.1514,-0.0158 9.36636,7.27802 9.36636,10.99221 0,1.64842 -0.45,2.99712 -1,2.99712 -0.55,0 -1,-1.17379 -1,-2.60843 z m -12.97257,-13.85851 c -1.14541,-1.38014 -2.42956,-1.5667 -7.0738,-1.02768 -7.07139,0.82072 -12.91777,-0.81473 -16.58102,-4.63834 -3.65093,-3.81076 -2.49797,-4.57046 2.1497,-1.41647 3.27166,2.22021 4.81639,2.54943 11.96225,2.54943 6.85398,0 8.49495,0.31988 9.96307,1.94214 0.96669,1.06817 1.58249,2.46751 1.36844,3.10965 -0.2575,0.77249 -0.86268,0.59698 -1.78864,-0.51873 z m -34.27799,-16.41355 c -2.38378,-0.72592 -4.74944,-3.43993 -4.74944,-5.44881 0,-1.94665 0.0885,-1.93615 2.46026,0.29197 2.15828,2.02759 3.37056,2.29019 9.87622,2.13935 6.61891,-0.15346 12.6647,1.18743 12.66285,2.8085 -7.4e-4,0.64153 -18.21229,0.82949 -20.24989,0.20899 z m -3.35374,182.97128 c -3.76692,-11.57997 -4.27399,-8.39825 -0.75493,4.73691 2.33274,8.70714 2.9198,10.03538 3.18817,7.21335 0.18314,-1.9257 -0.89544,-7.22287 -2.43324,-11.95026 z m -33.60026,-22.0972 c -0.43172,-1.13843 -46.05922,-38.99359 -46.99967,-38.99359 -0.43767,0 -0.79577,1.55583 -0.79577,3.45741 0,3.08805 0.76179,4.06522 7.1309,9.14703 3.92199,3.12929 7.85949,7.08596 8.75,8.79259 2.18826,4.19376 12.98593,14.96271 17.20598,17.16023 1.87721,0.97753 4.76312,2.07313 6.41312,2.43466 3.15587,0.69149 8.79989,-0.66813 8.29544,-1.99833 z m 15.19784,-4.99359 c 5.55556,0 7.914,-0.341 7.45828,-1.07838 -0.95352,-1.54282 -67.3501,-56.79435 -70.95156,-59.04192 -1.65,-1.02972 -3.23605,-1.87391 -3.52456,-1.87596 -0.28851,-0.002 -1.0699,3.4238 -1.73644,7.61301 -1.17684,7.39659 -1.14723,7.66875 1.02456,9.41591 1.23004,0.98955 14.38644,11.90732 29.23644,24.26172 21.29954,17.72006 27.35559,22.27707 28.68426,21.58408 0.92634,-0.48315 5.3404,-0.87846 9.80902,-0.87846 z m 7.01967,-9.46594 c -4.61665,-12.1427 -14.73765,-24.22967 -24.51295,-29.27449 -1.65,-0.85153 -8.625,-5.02724 -15.5,-9.27935 -6.875,-4.25212 -14.075,-8.02226 -16,-8.3781 l -3.5,-0.64697 3.5,2.89292 c 1.925,1.59111 15.425,12.84378 30,25.00595 14.575,12.16217 26.60136,22.12044 26.72525,22.12951 0.12389,0.009 -0.19665,-1.0932 -0.7123,-2.44947 z M 292.1875,762.99795 c 0,-3.69652 -0.50872,-5.29658 -2.1461,-6.75 -1.45721,-1.2935 -2.27976,-1.5238 -2.56251,-0.71746 -0.22903,0.65314 -1.66735,2.90314 -3.19628,5 l -2.77986,3.81247 4.09237,1.69413 c 6.21904,2.5745 6.59238,2.40239 6.59238,-3.03914 z m -56.98174,-62.90499 c 0.49639,-20.38773 0.35838,-19.47845 3.98448,-26.25 3.34469,-6.24602 13.33279,-17.55987 17.49726,-19.81972 1.90353,-1.03295 1.82922,-1.22749 -1.54056,-4.03296 -1.9473,-1.6212 -4.4223,-4.78741 -5.5,-7.03601 -1.0921,-2.27865 -2.67609,-4.09344 -3.57845,-4.09984 -3.82402,-0.0271 -19.35595,3.17118 -26.76187,5.51071 -12.45559,3.93472 -17.11912,8.94934 -17.11912,18.40792 0,9.08313 1.92013,11.9187 17.31427,25.56905 13.28785,11.78267 15.66,13.55768 15.70399,11.75085 z m 208.06272,-49 c 1.2723,-3.1625 3.80676,-8.10213 5.63214,-10.97696 7.16592,-11.2858 7.58384,-14.82682 4.69898,-39.81496 -2.52407,-21.86298 -4.4864,-30.98917 -9.94988,-46.27383 -1.90389,-5.32634 -3.46176,-10.47175 -3.46192,-11.43425 -4.1e-4,-2.36769 1.68178,-2.21256 3.01469,0.27801 0.59695,1.1154 1.51278,1.76385 2.03518,1.44098 1.9634,-1.21345 0.83402,-5.77538 -2.42632,-9.80069 -3.00272,-3.70725 -3.42939,-4.99786 -3.85744,-11.6683 -0.786,-12.24829 -4.85417,-22.29805 -16.71006,-41.27954 -10.32087,-16.52388 -10.48547,-16.72057 -14,-16.72984 -4.37454,-0.0115 -12.74182,-4.64586 -16.57782,-9.18182 -6.87747,-8.13241 -10.08776,-21.03046 -9.20805,-36.99532 0.53325,-9.67729 0.50945,-9.81348 -1.71482,-9.81348 -1.24057,0 -4.01141,-1.27191 -6.15741,-2.82647 -2.14601,-1.55456 -5.25102,-3.46706 -6.90004,-4.25 -1.64902,-0.78294 -3.63342,-2.86625 -4.40979,-4.62956 -1.01439,-2.30395 -2.28056,-3.3801 -4.5,-3.82466 -5.61954,-1.12562 -6.58842,-1.58934 -6.58842,-3.15333 0,-1.11821 0.626,-1.38186 2.25,-0.94763 1.2375,0.33089 5.80463,0.90367 10.14919,1.27285 6.9898,0.59396 8.05469,0.45856 9.25,-1.17611 2.48493,-3.39835 1.65291,-5.15159 -3.00087,-6.32343 -2.39342,-0.60267 -7.06267,-2.90609 -10.3761,-5.11871 -3.31342,-2.21262 -6.67098,-4.02295 -7.46122,-4.02295 -0.79025,0 -2.67489,1.29226 -4.18808,2.8717 -3.93557,4.10784 -5.47859,15.21605 -3.11671,22.43709 3.25223,9.94313 10.56377,23.0684 15.98268,28.69121 5.09103,5.28259 5.48159,6.09293 9.88038,20.5 2.5189,8.25 5.09476,17.475 5.72413,20.5 0.62937,3.025 2.42952,10.42954 4.00033,16.45453 1.57082,6.025 3.3332,15.475 3.91641,21 2.10421,19.93426 2.94773,23.87549 6.87089,32.10301 4.01148,8.41274 9.34245,15.44246 11.71074,15.44246 0.84336,0 1.63601,-1.57226 2.02776,-4.02216 0.70678,-4.41991 2.12415,-5.99178 3.47696,-3.85596 1.87266,2.95657 0.82419,8.64794 -3.08067,16.72269 -6.0748,12.56192 -7.35601,17.98389 -6.75719,28.5958 0.39189,6.94468 1.11943,10.34359 3.11653,14.55963 1.43292,3.025 2.62131,6.4 2.64087,7.5 0.0242,1.36104 1.38511,2.62149 4.25977,3.94532 2.32331,1.06993 6.6039,4.32028 9.51242,7.223 l 5.28822,5.27768 2.94916,-3.223 c 1.62204,-1.77265 3.42218,-4.9105 4.00032,-6.973 1.10506,-3.94224 2.97408,-5.0977 2.97408,-1.83861 0,1.05126 -1.50196,5.43876 -3.33769,9.75 -2.61709,6.14628 -3.16375,8.47627 -2.53204,10.79218 0.44311,1.62446 0.55461,3.9538 0.24778,5.17631 -0.44435,1.77042 0.23861,2.74983 3.35619,4.81295 2.15273,1.42461 4.90667,3.93277 6.11985,5.57369 1.21318,1.64091 2.36505,2.98348 2.5597,2.98348 0.19466,0 1.3949,-2.5875 2.66719,-5.75 z m -10.09875,-43.3 c -0.0733,-5.98671 -2.25541,-20.30212 -4.49123,-29.46473 -2.16764,-8.88317 -3.42787,-11.98168 -6.58579,-16.19236 -2.14787,-2.8639 -3.90521,-5.6764 -3.90521,-6.25 0,-2.21085 2.9178,-0.87629 6.32175,2.89147 3.50882,3.88384 5.28371,8.48255 9.21117,23.86596 2.02569,7.93435 2.46824,23.57278 0.71708,25.33895 -1.00493,1.01354 -1.25348,0.97643 -1.26777,-0.18929 z m -7.97046,-56.7 c -4.04938,-4.09027 -4.87253,-5.63157 -5.92659,-11.09722 -1.79686,-9.31727 0.57407,-9.84206 2.94923,-0.65278 1.74624,6.75607 2.74201,8.33377 6.92747,10.97594 2.22097,1.40203 4.03812,3.2185 4.03812,4.0366 0,2.82122 -3.29933,1.47371 -7.98823,-3.26254 z M 410.1875,536.71165 c 0,-3.1794 1.20631,-8.60001 3.17122,-14.25 3.17061,-9.11692 3.6566,-14.31853 2.62716,-28.11869 -0.51087,-6.84849 1.58983,-5.38328 2.86743,2 2.14742,12.40995 1.72701,17.66426 -2.16581,27.06831 -2.40224,5.80321 -3.5,10.01966 -3.5,13.4434 0,3.76737 -0.36714,4.98829 -1.5,4.98829 -1.13845,0 -1.5,-1.23681 -1.5,-5.13131 z m -37.6003,-105.634 c -2.22148,-1.48333 -3.3997,-5.24284 -3.3997,-10.84795 0,-6.49371 1.76071,-12.38674 3.70089,-12.38674 1.61926,0 1.60966,0.40535 -0.14679,6.1932 -1.70673,5.62404 -0.74774,10.23479 3.07322,14.77575 l 2.55047,3.03105 -2.3389,-0.0153 c -1.28639,-0.008 -2.83402,-0.34592 -3.43919,-0.75 z M 290.86388,638.0377 c 13.14315,-8.88297 25.9191,-14.72299 36.56514,-16.7143 3.14188,-0.58768 3.67263,-1.04286 3.31167,-2.84014 -0.23641,-1.17716 -0.70116,-5.23669 -1.03277,-9.02116 -0.33161,-3.78447 -1.20571,-8.28447 -1.94243,-10 -4.03725,-9.40106 -22.6793,-18.61914 -37.65416,-18.61914 -18.64665,0 -35.33989,11.82492 -39.52762,28 -0.92557,3.575 -1.71307,9.65 -1.75,13.5 -0.0588,6.12603 0.35901,7.79522 3.34621,13.36926 3.48119,6.49584 8.20343,11.19231 12.25044,12.18362 4.53143,1.10997 17.19049,-3.61111 26.43352,-9.85814 z m -7.67638,-11.47352 c 0,-0.70332 2.48905,-5.47101 5.53123,-10.59487 3.04218,-5.12385 6.677,-11.57716 8.07738,-14.34069 1.40039,-2.76352 3.70205,-6.09583 5.1148,-7.40513 2.59896,-2.40863 6.27659,-3.21753 6.27659,-1.38053 0,0.55 -0.64224,1 -1.4272,1 -2.59513,0 -7.51327,7.31447 -10.06232,14.96514 -3.27083,9.81697 -13.51048,23.27439 -13.51048,17.75608 z m 119,-12.27088 c 0,-0.89784 -3.01283,-6.45034 -3.5,-6.45034 -0.24675,0 -1.13019,1.31797 -1.96319,2.92882 -1.38931,2.68663 -1.37076,2.96646 0.22432,3.384 2.62408,0.6869 5.23887,0.75554 5.23887,0.13752 z m 19.52952,-156.54727 c 6.95603,-2.60258 16.81582,-11.5578 22.27163,-20.22834 14.17845,-22.53285 16.36047,-52.67353 4.91432,-67.88262 -13.35163,-17.74099 -39.50533,-7.68005 -53.15459,20.44779 -6.57135,13.54197 -8.07508,19.99323 -7.98572,34.2601 0.0876,13.98559 2.1842,21.00839 8.29564,27.78713 6.88914,7.64136 15.31582,9.48572 25.65872,5.61594 z m -20.48544,-6.65307 c -10.78012,-13.03404 -6.94009,-44.74962 8.30334,-68.57893 5.90735,-9.23468 13.51369,-15.67091 21.40258,-18.11015 1.62311,-0.50186 2.25,-0.2892 2.25,0.76328 0,0.80244 -1.19408,1.75868 -2.65352,2.12498 -8.2871,2.07993 -17.32571,12.10644 -24.38553,27.05082 -10.43993,22.09949 -11.69154,42.26939 -3.38859,54.60752 1.8852,2.8014 3.42764,5.27324 3.42764,5.49297 0,1.41234 -2.30625,-0.14682 -4.95592,-3.35049 z m -59.98981,-24.07339 c 2.44515,-1.20521 5.48088,-2.99452 6.74606,-3.97622 l 2.30034,-1.78493 -4.80034,-9.27766 -4.80033,-9.27766 0.0224,-10.18007 c 0.02,-9.08919 0.30831,-10.71586 2.69021,-15.18007 1.46728,-2.75 3.65151,-7.36578 4.85384,-10.25728 2.66856,-6.41764 6.98897,-10.37148 14.33734,-13.12085 4.18655,-1.56639 6.19147,-1.84604 8.08196,-1.12727 3.07236,1.16811 3.10999,0.67279 0.48244,-6.34996 -3.90806,-10.44534 -14.75677,-17.7009 -24.10525,-16.12148 -19.23124,3.24909 -37.32392,27.67996 -41.01179,55.37897 -2.66301,20.00145 4.63912,37.98275 17.38773,42.81687 4.57607,1.73518 12.56992,1.04311 17.81539,-1.54239 z m -21.47244,-5.48044 c -4.03143,-5.28548 -5.79175,-10.63161 -6.32072,-19.19617 -1.54441,-25.00539 13.40581,-57.21666 30.59988,-65.92956 5.45638,-2.76496 7.13901,-3.13827 7.13901,-1.58386 0,0.54262 -1.6528,1.67717 -3.6729,2.52121 -14.46088,6.04215 -28.15029,29.54199 -31.3705,53.852 -1.65321,12.48032 1.11491,25.13496 6.47031,29.57955 1.7262,1.43262 2.13004,4.06066 0.62398,4.06066 -0.52201,0 -2.08309,-1.48672 -3.46906,-3.30383 z m 65.04591,-18.44617 c 2.33767,-7.24094 7.09935,-17.97498 10.10638,-22.78235 3.36766,-5.38392 3.48417,-5.83486 1.82173,-7.05047 -0.97683,-0.71427 -3.99137,-1.77378 -6.69898,-2.35446 -6.71355,-1.43979 -13.16177,-4.82578 -12.4957,-6.56154 0.80537,-2.09875 -2.97684,-6.21924 -6.89588,-7.51263 -3.12943,-1.03281 -3.97392,-0.88051 -7.91074,1.42661 -4.07844,2.39013 -10.55455,9.02462 -10.55455,10.81268 0,0.42469 0.79554,0.77216 1.76787,0.77216 0.97232,0 3.42934,1.12901 5.46005,2.5089 l 3.69218,2.50891 1.12248,-2.09738 c 1.53472,-2.86763 7.9856,-9.92043 9.07378,-9.92043 1.75667,0 0.82708,2.70353 -1.74524,5.07569 -2.17217,2.00314 -5.37112,7.54772 -5.37112,9.30948 0,0.24718 2.10672,1.25398 4.6816,2.23733 4.00656,1.53012 4.75068,1.57809 5.16071,0.33271 0.65459,-1.98817 6.6985,-7.95521 8.05769,-7.95521 1.96842,0 1.15983,2.91469 -1.24587,4.49097 -2.70665,1.77346 -4.65413,5.54321 -4.65413,9.00903 0,1.32324 -0.52715,3.56286 -1.17144,4.97692 -1.0882,2.38835 -2.23394,2.97881 -7.24569,3.73415 -2.32816,0.35088 -3.37806,2.78893 -1.201,2.78893 0.8517,0 3.12659,1.38554 5.05531,3.07899 2.99237,2.62733 6.80712,4.50098 9.8442,4.83506 0.42977,0.0473 1.03563,-0.70155 1.34636,-1.66405 z"
       id="path3719"
       inkscape:connector-curvature="0" />
  </g>
</svg>
