<?xml version="1.0" encoding="UTF-8" standalone="no"?>
<!-- Created with Inkscape (http://www.inkscape.org/) -->

<svg
   xmlns:dc="http://purl.org/dc/elements/1.1/"
   xmlns:cc="http://creativecommons.org/ns#"
   xmlns:rdf="http://www.w3.org/1999/02/22-rdf-syntax-ns#"
   xmlns:svg="http://www.w3.org/2000/svg"
   xmlns="http://www.w3.org/2000/svg"
   xmlns:sodipodi="http://sodipodi.sourceforge.net/DTD/sodipodi-0.dtd"
   xmlns:inkscape="http://www.inkscape.org/namespaces/inkscape"
   width="581.40894"
   height="899.99414"
   id="svg2"
   version="1.1"
   inkscape:version="0.48.3.1 r9886"
   sodipodi:docname="One-legged-kickback-1.svg">
  <defs
     id="defs4" />
  <sodipodi:namedview
     id="base"
     pagecolor="#ffffff"
     bordercolor="#666666"
     borderopacity="1.0"
     inkscape:pageopacity="0.0"
     inkscape:pageshadow="2"
     inkscape:zoom="0.49497475"
     inkscape:cx="661.40572"
     inkscape:cy="165.76291"
     inkscape:document-units="px"
     inkscape:current-layer="layer1"
     showgrid="false"
     fit-margin-top="0"
     fit-margin-left="0"
     fit-margin-right="0"
     fit-margin-bottom="0"
     inkscape:window-width="1855"
     inkscape:window-height="1056"
     inkscape:window-x="65"
     inkscape:window-y="24"
     inkscape:window-maximized="1" />
  <metadata
     id="metadata7">
    <rdf:RDF>
      <cc:Work
         rdf:about="">
        <dc:format>image/svg+xml</dc:format>
        <dc:type
           rdf:resource="http://purl.org/dc/dcmitype/StillImage" />
        <dc:title></dc:title>
      </cc:Work>
    </rdf:RDF>
  </metadata>
  <g
     inkscape:label="Ebene 1"
     inkscape:groupmode="layer"
     id="layer1"
     transform="translate(-609.75253,-403.52525)">
    <path
       style="fill:#000000"
       d=""
       id="path3414"
       inkscape:connector-curvature="0" />
    <path
       style="fill:#000000"
       d=""
       id="path3412"
       inkscape:connector-curvature="0" />
    <path
       style="fill:#000000"
       d="m 964.14768,1278.0589 c -8.0995,-2.1735 -13.3443,-7.4396 -15.9009,-15.9651 -1.4078,-4.6947 -1.6624,-20.7766 -0.4422,-27.9365 l 0.8244,-4.8376 -6.8244,0.6371 c -12.5262,1.1696 -13.9357,1.5918 -19.697,5.9011 -8.0032,5.9861 -15.5643,10.4317 -22.8486,13.4339 -11.7078,4.8254 -24.951,3.1602 -31.4118,-3.9497 -6.7661,-7.4458 -7.0444,-15.8473 -1.3531,-40.8473 3.7788,-16.5989 3.9838,-18.3496 3.9804,-34 0,-19.1748 -2.4719,-38.0914 -6.5881,-50.5 -6.4413,-19.4177 -3.432,-47.6009 7.7604,-72.6799 5.6311,-12.6177 8.7866,-22.2519 12.387,-37.8201 3.5805,-15.48226 3.3839,-17.49136 -3.0319,-30.98126 -4.85,-10.19772 -10.807,-29.38462 -15.9176,-51.26882 -0.3532,-1.5125 -1.2389,-2.75 -1.9682,-2.75 -0.7292,0 -2.0707,-0.8229 -2.9809,-1.8287 -1.3758,-1.5202 -1.6599,-4.2618 -1.6839,-16.25 -0.03,-14.8868 -3.9677,-45.7864 -7.3817,-57.9213 -0.8511,-3.025 -2.3072,-13.375 -3.2358,-23 -1.3858,-14.3638 -1.4839,-19.1233 -0.5476,-26.5583 1.5522,-12.3263 4.4838,-21.3464 10.2185,-31.4417 2.6557,-4.67496 5.7587,-11.57518 6.8954,-15.33378 1.1367,-3.75861 2.9698,-7.98179 4.0735,-9.38486 1.1951,-1.51941 2.0066,-4.06111 2.0066,-6.28519 0,-2.05378 0.772,-7.7306 1.7156,-12.61514 1.2711,-6.57964 1.7203,-14.1932 1.7336,-29.38099 l 0.018,-20.5 -3.8513,-15 c -3.1934,-12.43781 -3.9741,-17.47678 -4.5705,-29.5 -0.5613,-11.31433 -1.3044,-16.44696 -3.3823,-23.36187 -4.0794,-13.57523 -3.3996,-24.81878 2.2722,-37.58197 1.6024,-3.60589 3.8469,-9.70616 4.9878,-13.55616 2.9835,-10.06821 7.3067,-15.40735 16.0878,-19.86837 7.5906,-3.85623 16.7046,-11.01882 20.1148,-15.808 2.0737,-2.91226 8.8374,-26.36968 8.8612,-30.73189 0.01,-1.32454 -1.8993,-6.49954 -4.2368,-11.5 l -4.25,-9.09174 0.1551,-11.5 c 0.3401,-25.21089 6.6268,-39.07465 21.2542,-46.87095 6.5193,-3.47478 16.857,-6.09176 24.0907,-6.09855 7.4929,-0.007 22.8091,3.65679 30.4439,7.28256 13.335,6.33273 21.26082,17.79258 24.13272,34.89283 2.0368,12.12767 2.2786,54.30418 0.3383,58.99536 -2.1316,5.15356 -9.53612,7.8257 -16.41902,5.92523 -5.3149,-1.46753 -6.8903,-0.25373 -9.9029,7.63014 -1.4261,3.73219 -2.593,7.02761 -2.593,7.32314 0,1.18074 12.0671,8.21878 21.5,12.53968 6.82202,3.12497 12.59212,4.98667 18.15672,5.85822 4.4862,0.70264 10.6816,2.07172 13.7676,3.04239 l 5.611,1.76485 13.9015,-6.61431 c 7.6459,-3.63787 16.7504,-7.76099 20.2324,-9.16249 3.4819,-1.4015 9.4341,-4.83517 13.227,-7.63039 l 6.8962,-5.08222 -0.6861,-16.24537 c -0.576,-13.64016 -0.4248,-17.03154 0.9432,-21.14774 2.8869,-8.68693 8.3076,-19.04681 11.6731,-22.30927 7.8841,-7.64274 9.521,-9.14608 13.7228,-12.60361 4.1013,-3.37478 4.7981,-3.60842 9,-3.01796 8.5918,1.20733 10.6507,7.42603 6.6402,20.05533 -1.3864,4.36587 -2.1979,8.24873 -1.8032,8.62859 0.3947,0.37986 2.0676,0.83777 3.7176,1.01759 3.8457,0.41911 4.3344,3.56482 1.9326,12.438 -1.3296,4.91182 -1.5432,7.91391 -0.9341,13.12847 1.0506,8.99533 0.8474,13.09758 -1.0171,20.53462 -3.043,12.13732 -4.0184,13.17473 -16.1041,17.12686 -3.9638,1.2962 -6.566,3.19362 -11.5023,8.38709 -5.9106,6.21845 -24.1376,26.52179 -31.5861,35.18419 l -3.2111,3.73444 4.2111,1.25927 c 5.538,1.65605 12.8738,5.40415 19.8959,10.16545 5.6151,3.80726 5.6933,3.82704 6.3722,1.61157 0.378,-1.23366 5.9365,-7.41801 12.3522,-13.74301 10.84,-10.68673 23.8272,-27.17817 28.3202,-35.96144 2.5532,-4.99137 2.1906,-11.3291 -1.2637,-22.08792 -2.6464,-8.24241 -3.0895,-11.28093 -3.4654,-23.767 l -0.4311,-14.31636 2.8848,-1.65566 c 3.5038,-2.01089 4.255,-5.11322 3.4182,-14.11639 -0.5219,-5.61557 -0.2854,-7.345 1.4765,-10.79858 1.1538,-2.26169 2.5644,-4.26767 3.1346,-4.45775 0.5702,-0.19008 1.3809,-2.36135 1.8015,-4.82505 0.5681,-3.32773 1.4011,-4.80147 3.2399,-5.73191 3.7405,-1.89264 7.7409,-1.58851 8.9554,0.68082 0.6273,1.17215 1.6584,1.72943 2.5599,1.38351 0.8303,-0.31859 3.2782,0.59122 5.44,2.0218 2.8425,1.88105 4.2724,3.74219 5.1656,6.72343 0.914,3.05065 2.0702,4.52064 4.4475,5.65427 4.5181,2.15454 5.523,5.07009 6.5092,18.88497 0.4763,6.6719 1.8035,17.89873 2.9493,24.94849 1.8175,11.182 1.9393,13.90907 0.9544,21.36926 -1.2828,9.7171 -2.1323,11.38228 -8.4459,16.55577 -4.145,3.39652 -4.8197,4.61581 -7.9429,14.35378 -5.0838,15.85152 -9.3007,31.57485 -11.0591,41.236 -2.0084,11.0352 -4.6552,19.01973 -10.0689,30.37526 -3.6985,7.75769 -5.5566,10.26846 -12.4192,16.78154 -5.8956,5.59537 -8.07,8.33203 -8.07,10.15701 0,7.65517 -5.0706,10.59215 -18.2871,10.59215 -8.899,0 -9.3872,-0.11937 -14.0513,-3.4354 -5.2525,-3.73444 -11.8198,-5.5646 -19.9678,-5.5646 -5.2126,0 -19.1111,-3.37531 -25.6938,-6.23982 -1.925,-0.83768 -7.5501,-4.45059 -12.5001,-8.02869 l -9,-6.50565 -0.5844,2.63708 c -0.3214,1.45039 -2.4224,6.09411 -4.669,10.31938 l -4.0848,7.6823 0.559,13.33074 c 0.7837,18.69296 -0.439,22.33141 -15.5669,46.32228 -4.4189,7.00781 -9.06052,30.64328 -7.3062,37.2029 0.6338,2.3695 1.1523,6.56965 1.1523,9.33367 0,3.17327 0.7933,6.57717 2.1523,9.23567 1.9366,3.7882 2.237,6.5979 2.9977,28.0338 0.9224,25.9905 1.2385,27.5284 9.7156,47.2666 4.294,9.9983 16.3897,51.064 15.6593,53.165 -0.3335,0.9596 -2.5006,2.6832 -4.8157,3.8301 -4.783,2.3697 -4.5894,0.9885 -2.6511,18.9146 0.9281,8.5844 0.9182,14.5137 -0.045,27 -1.5357,19.90572 -1.5662,17.6694 0.3585,26.31542 2.609,11.7203 2.1899,26.33676 -1.0432,36.38306 -2.5591,7.9518 -2.654,9.018 -2.25,25.3016 0.2319,9.35 0.4156,24.65 0.4083,34 -0.015,18.7629 -0.954,24.4527 -8.6661,52.5 -2.7279,9.9207 -4.0397,16.8019 -4.1538,21.7887 -0.1657,7.2427 -0.1434,7.309 3.5409,10.5 3.2753,2.8368 3.8939,4.141 5.3044,11.1823 0.8782,4.3841 1.728,8.1024 1.8885,8.2629 0.1605,0.1605 16.6322,-2.864 36.604,-6.721 19.9716,-3.8571 37.3177,-7.0129 38.5468,-7.0129 2.6689,0 4.0448,2.8423 2.2354,4.6178 -0.7077,0.6945 -18.2742,4.5339 -39.0367,8.532 l -37.7501,7.2693 -0.024,3.0404 c -0.013,1.6723 -0.4218,4.7549 -0.9081,6.8502 -0.8255,3.5563 -0.7075,3.8791 1.7738,4.8532 4.084,1.6032 19.4441,0.2673 30.4896,-2.6517 9.6508,-2.5505 9.8974,-2.5653 13.4311,-0.8047 1.9798,0.9864 3.8961,2.4685 4.2583,3.2935 0.3621,0.825 1.8403,3.789 3.2847,6.5867 2.3934,4.6355 2.5953,5.9216 2.2766,14.5 -0.1924,5.1773 -0.5895,10.0883 -0.8824,10.9133 -0.2929,0.825 -0.791,2.6867 -1.1068,4.1371 -0.483,2.2178 -2.1255,3.3104 -10.3335,6.8738 -5.3677,2.3303 -13.1344,6.7588 -17.2594,9.8411 -9.2914,6.9428 -15.1368,8.9769 -29.3586,10.2161 -13.7617,1.1992 -12.4687,0.8148 -28.14132,8.3658 -14.8148,7.1377 -18.0773,7.9431 -24.8326,6.1302 z m 16.5876,-8.5927 c 12.5344,-7.937 14.8373,-8.8239 27.07842,-10.4286 6.4729,-0.8485 13.3579,-1.5428 15.3,-1.5428 4.9019,0 16.5926,-5.3055 24.4594,-11.1001 3.6262,-2.6711 9.9263,-6.2147 14.0001,-7.8747 4.0739,-1.6601 7.4684,-3.0199 7.5435,-3.0218 0.5177,-0.013 1.5638,-7.5246 1.7413,-12.5034 0.1177,-3.3 0.5724,-6.7704 1.0105,-7.7121 0.5713,-1.2279 0.03,-2.4222 -1.9131,-4.2233 -1.6281,-1.5088 -2.4758,-3.1206 -2.1238,-4.0379 0.7959,-2.0741 -0.2071,-4.3791 -2.421,-5.5639 -1.355,-0.7252 -3.6108,-0.2843 -8.6324,1.6873 -6.2741,2.4633 -7.9542,2.6716 -21.7981,2.7035 -11.8727,0.027 -16.0036,-0.3314 -19.8136,-1.7208 l -4.8137,-1.7553 -9.1863,3.0408 c -12.86582,4.2589 -22.47072,6.0817 -32.04512,6.0817 l -8.228,0 -1.1177,3.75 c -0.6147,2.0625 -2.5636,7.7859 -4.3309,12.7186 -3.7545,10.4794 -4.9915,22.7919 -3.0034,29.893 1.4028,5.01 5.893,10.9399 10.4591,13.8123 4.4965,2.8287 11.196,2.0014 17.8348,-2.2025 z m -3.8005,-26.4259 c -3.355,-3.3549 -3.3369,-9.7803 0.045,-16.1415 1.375,-2.586 2.5,-5.3099 2.5,-6.0529 0,-1.6998 1.9069,-1.7762 2.5209,-0.1011 0.2521,0.6875 -0.375,3.9135 -1.3935,7.1689 -2.1841,6.9809 -1.8431,8.9921 2.0074,11.839 1.5759,1.165 2.8652,2.9336 2.8652,3.9302 0,2.8018 -5.5158,2.3871 -8.5455,-0.6426 z m 82.13552,-12.7955 c -1.45,-2.2408 -2.0013,-13.75 -0.6586,-13.75 1.7716,0 3.0685,2.807 3.0685,6.641 0,2.3325 0.45,4.5191 1,4.859 1.5527,0.9596 1.1774,4.5 -0.477,4.5 -0.8123,0 -2.1321,-1.0125 -2.9329,-2.25 z m -4.0901,-17.75 c -0.994,-1.6083 0.4251,-3 3.059,-3 2.7399,0 3.3564,2.4348 0.8592,3.393 -2.2306,0.856 -3.2068,0.7581 -3.9182,-0.393 z m -159.17482,31.9267 c 2.1038,-0.5842 7.9538,-3.8603 13,-7.2803 16.7434,-11.3475 18.7956,-12.227 31.6454,-13.5623 6.3089,-0.6556 11.5152,-1.2802 11.5697,-1.388 0.9079,-1.7972 4.4086,-11.0481 4.2195,-11.1505 -0.1429,-0.077 -1.5063,-0.6762 -3.0299,-1.3308 -3.6325,-1.5608 -4.7299,-4.7504 -4.7299,-13.7477 l 0,-7.4028 -8.75,-2.5824 c -19.9086,-5.8757 -21.7456,-7.1319 -23.3727,-15.9819 -0.6268,-3.4089 -0.8745,-10.7503 -0.5737,-17 0.4387,-9.1124 1.1601,-12.8875 4.2043,-22 4.2959,-12.8595 6.0153,-21.1759 7.4694,-36.1294 1.8706,-19.2359 3.7957,-55.6821 3.2813,-62.1231 -0.3467,-4.3406 -0.096,-6.738 0.8184,-7.8403 1.2002,-1.4461 1.428,-1.4371 2.5525,0.1008 1.0717,1.4656 1.4436,0.9849 2.8176,-3.6418 1.241,-4.179 1.4464,-7.8181 0.9509,-16.8483 -0.5058,-9.21776 -0.2168,-14.01426 1.4472,-24.01796 4.3048,-25.88032 3.5821,-46.91112 -1.7404,-50.63912 -1.2174,-0.8527 -2.1048,-2.5649 -2.1048,-4.0613 l 0,-2.5871 -7.9734,0.6649 c -10.6601,0.8891 -10.9928,1.056 -10.3233,5.1814 0.5417,3.3386 -2.8662,20.5304 -4.6262,23.3369 -1.3026,2.0772 -4.0771,0.5289 -4.0771,-2.2752 0,-1.3433 0.8942,-5.2949 1.9871,-8.7814 1.9548,-6.236 2.5072,-11.3856 1.5025,-14.0073 -0.4069,-1.062 -4.4082,-1.2623 -19.75,-0.9889 -10.5818,0.1886 -19.3856,0.4847 -19.564,0.6578 -0.4814,0.4672 3.6376,19.2229 5.4902,24.9993 0.8819,2.75 4.6912,12.7635 8.4649,22.25222 l 6.8615,17.2521 -0.9766,6.7479 c -2.956,20.42526 -5.2741,28.81276 -11.2716,40.78416 -15.2336,30.4072 -18.2175,56.958 -9.2387,82.2063 l 3.5892,10.0929 0.2028,31.8323 0.2027,31.8322 -3.7079,12 c -2.0393,6.6 -4.1674,14.9097 -4.7292,18.4659 -1.3045,8.2591 0.3967,12.1705 7.3001,16.7841 4.1718,2.7881 5.7353,3.2492 11,3.2444 3.3754,0 7.8583,-0.4835 9.9622,-1.0677 z m 1.4499,-28.4602 c -5.5812,-3.0806 -6.5168,-10.6429 -2.1128,-17.0769 1.4643,-2.1393 3.176,-5.6032 3.8037,-7.6976 0.6278,-2.0943 1.5672,-3.8056 2.0877,-3.8028 1.9436,0.011 1.5988,3.8107 -1.1167,12.3079 -2.7149,8.4953 -2.7431,8.8072 -0.9717,10.7645 1.4752,1.6301 2.577,1.8954 5.7594,1.3865 3.8688,-0.6187 3.9297,-0.5805 3.6053,2.2613 -0.2972,2.6031 -0.7279,2.914 -4.33,3.1259 -2.2,0.1294 -5.2262,-0.4416 -6.7249,-1.2688 z m -9.0251,-86.1558 c -0.9625,-0.2515 -1.75,-1.0993 -1.75,-1.884 0,-1.077 1.47,-1.4267 5.9971,-1.4267 5.5151,0 6.3276,-0.2985 10.1081,-3.714 2.261,-2.0426 5.815,-6.2233 7.8977,-9.2902 5.0675,-7.4622 6.6288,-8.7315 7.4722,-6.0743 0.9477,2.986 -2.1377,8.6491 -7.9055,14.5104 -7.3991,7.519 -14.0317,9.914 -21.8196,7.8788 z m 22.25,-91.6984 c 0,-0.7633 1.4625,-4.4758 3.25,-8.25 3.0338,-6.4059 3.2419,-7.5274 3.1289,-16.8623 -0.07,-5.7748 -0.8517,-12.8802 -1.8502,-16.81656 -0.9509,-3.7491 -1.4783,-7.0672 -1.172,-7.3735 2.4601,-2.4601 5.7873,6.4576 7.1599,19.19006 0.8275,7.6754 -0.9095,21.339 -3.4397,27.0591 -1.5854,3.584 -2.4577,4.4409 -4.5207,4.4409 -1.5136,0 -2.5562,-0.566 -2.5562,-1.3877 z m -13.5,-4.125 c -6.4956,-2.4479 -8.2575,-5.0081 -4.1553,-6.0377 3.6,-0.9035 11.6553,2.8529 11.6553,5.4352 0,2.996 -0.947,3.0721 -7.5,0.6025 z m 92.7554,168.9176 c 11.63552,-2.8353 15.93982,-4.3683 20.35732,-7.2502 l 5.6018,-3.6547 -0.4574,-9 c -0.3144,-6.1847 -1.1036,-10.4076 -2.5231,-13.5 -1.7697,-3.8555 -2.0776,-4.1311 -2.1498,-1.9243 -0.2346,7.171 -17.49012,14.6627 -36.02462,15.6405 -8.7319,0.4606 -11.197,0.2641 -13.8418,-1.1035 -3.3092,-1.7113 -4.1321,-4.2984 -2.0345,-6.396 0.6509,-0.6509 0.8655,-1.5012 0.477,-1.8897 -0.795,-0.795 -3.8193,3.0729 -4.8106,6.1527 -0.3577,1.1112 -0.6952,6.4283 -0.75,11.8158 -0.093,9.1338 0.066,9.9612 2.3549,12.25 3.8366,3.8366 14.9079,3.463 33.8008,-1.1406 z m -38.9022,-29.4049 c 0.6708,-1.375 2.6484,-3.4 4.3947,-4.5 2.7937,-1.7598 3.1797,-2.5454 3.2136,-6.5415 0.072,-8.5273 -3.0598,-28.4442 -5.8907,-37.4585 -4.9058,-15.621 -5.5826,-21.0155 -4.3201,-34.4346 1.2106,-12.8674 4.4428,-23.8231 11.8205,-40.0654 2.8547,-6.2848 3.8189,-9.6727 3.6997,-13 -0.089,-2.475 -0.4335,-13.725 -0.7663,-25 l -0.6052,-20.50006 -7.1889,-18.2195 c -4.6553,-11.79842 -7.4069,-17.61352 -7.8074,-16.50002 -0.3402,0.9457 -0.9337,5.7695 -1.3188,10.7195 -0.3851,4.95002 -1.3654,12.25332 -2.1785,16.22962 -0.9805,4.795 -1.4159,12.2034 -1.293,22.00006 0.1761,14.0362 0.035,15.2178 -2.8371,23.7704 -2.8928,8.6139 -3.0521,9.9867 -3.7147,32 -0.9915,32.9398 -2.5329,45.3883 -7.4302,60.0079 -6.086,18.1683 -7.5604,34.0853 -4.2985,46.4039 l 1.6979,6.4118 10.9849,3.5882 10.9849,3.5882 0.8168,-3 c 0.4493,-1.65 1.3657,-4.125 2.0364,-5.5 z m 30.9712,3.5027 c 10.153,-1.7706 18.72522,-4.7952 21.13402,-7.4569 1.4548,-1.6075 1.763,-4.2735 1.934,-16.729 0.1929,-14.058 0.496,-16.1052 5.9184,-39.9761 7.2879,-32.0826 7.9238,-37.2008 6.6729,-53.7038 -2.507,-33.0733 -2.5278,-32.1687 0.9804,-42.6369 4.1099,-12.2636 5.1642,-26.08676 2.5824,-33.85986 -0.939,-2.8271 -2.073,-5.1402 -2.52,-5.1402 -1.7389,0 -1.7234,-2.9881 0.075,-14.52552 2.1025,-13.4839 2.43,-30.4982 0.8114,-42.1521 -0.5975,-4.3023 -1.1953,-7.9327 -1.3284,-8.0675 -0.1331,-0.1348 -5.1736,1.9627 -11.2011,4.661 -10.93282,4.8942 -31.09482,12.0841 -33.88642,12.0841 -1.0596,0 -0.5357,1.4724 1.8681,5.25 6.8282,10.7304 11.6344,20.4736 11.6344,23.5853 0,4.4004 -2.5919,4.1533 -3.4325,-0.3271 -0.3999,-2.132 -2.5976,-5.7117 -5.6431,-9.192 -2.7435,-3.1351 -6.3289,-8.4263 -7.9677,-11.7582 l -2.9797,-6.058 -10.0869,0.3186 -10.087,0.3185 0.6659,3.6815 c 1.176,6.501 6.6508,21.4271 11.1557,30.4136 8.3392,16.63502 9.3753,21.19422 9.3753,41.25268 0,9.6977 0.4837,20.7497 1.0749,24.5601 1.1917,7.6803 -0.074,14.0585 -4.5458,22.9124 -9.1519,18.1195 -12.8716,44.3922 -8.6086,60.8045 1.7732,6.827 6.3925,15.5932 9.6344,18.2838 2.4756,2.0546 1.7947,4.9544 -1.1633,4.9544 -2.2092,0 -2.5216,0.3459 -2.0411,2.2604 0.312,1.2432 1.0655,9.6807 1.6745,18.75 0.6089,9.0693 1.2883,17.0521 1.5097,17.7396 0.538,1.6706 6.2766,1.586 16.7897,-0.2473 z m 0.9256,-35.165 c -2.1133,-0.8527 -1.472,-1.9294 5.0599,-8.4951 6.7676,-6.8026 10.6901,-13.604 10.6901,-18.5359 0,-3.0304 2.07172,-5.9015 3.34192,-4.6313 2.1547,2.1547 -3.06062,16.9823 -8.97542,25.5173 -2.2162,3.1979 -7.1774,7.0944 -8.5668,6.7284 -0.1648,-0.043 -0.8622,-0.306 -1.5497,-0.5834 z m -9.25,-110.8458 c 0,-1.1323 1.059,-1.4687 4.25,-1.3501 2.3375,0.087 5.2625,-0.1648 6.5,-0.5593 1.8391,-0.5863 2.25,-0.3397 2.25,1.3501 0,1.8778 -0.596,2.0674 -6.5,2.0674 -5.1266,0 -6.5,-0.3186 -6.5,-1.5081 z m 17.9017,-5.4258 c -1.041,-3.4744 -0.8574,-4.9635 1.5721,-12.75 3.297,-10.5668 3.0386,-16.79836 -1.0301,-24.83976 -1.4721,-2.9098 -2.3592,-5.8041 -1.9711,-6.432 1.9347,-3.1305 7.8211,7.3915 9.6314,17.2165 1.12252,6.09276 1.02802,7.06646 -1.4444,14.87926 -1.8807,5.9431 -2.4652,9.444 -2.0217,12.1099 0.555,3.3365 0.3932,3.75 -1.4669,3.75 -1.5669,0 -2.386,-0.9856 -3.2693,-3.9339 z m -10.9017,-105.40478 c 11.6627,-3.5374 26.50512,-9.6927 36.84902,-15.2816 4.758,-2.5708 8.8045,-4.7991 8.9923,-4.9517 0.1877,-0.1526 -1.7171,-7.9105 -4.2329,-17.2397 -3.4128,-12.6554 -6.511,-21.2439 -12.2022,-33.8253 l -7.628,-16.8631 -0.3235,-25.7098 c -0.3229,-25.6638 -0.3281,-25.7179 -2.94232,-30.1789 -1.7763,-3.031 -2.8633,-6.7554 -3.3783,-11.57489 -0.5295,-4.95528 -1.3464,-7.69308 -2.699,-9.04577 -1.8195,-1.81942 -15.3277,-5.00317 -37.4351,-8.82306 -3.575,-0.61772 -8.525,-1.56352 -11,-2.10178 -6.4339,-1.39924 -57.8454,-1.32814 -65.5454,0.0906 -7.217,1.32977 -8.0424,2.38495 -9.0984,11.63116 -0.5335,4.67176 -1.3744,6.58179 -4.6159,10.48444 -2.1971,2.6454 -5.6715,8.9372 -7.796,14.1183 -3.7952,9.255 -3.8355,9.496 -4.1384,24.7279 -0.4993,25.1056 1.7254,36.8981 9.2758,49.1689 3.0526,4.9611 3.2405,7.7129 0.5268,7.7129 -1.6969,0 -1.5125,5.8037 0.9846,31 2.2929,23.1353 2.3097,23.2016 6.4069,25.2484 4.1346,2.0655 15.7432,2.2933 37.3768,0.7335 9.9764,-0.7193 15.1468,-1.5623 18.395,-2.9991 l 4.5182,-1.9986 -0.5555,-10.0807 c -0.6119,-11.105 -2.9846,-17.5079 -7.8278,-21.1238 -2.4659,-1.8411 -2.8044,-1.8538 -7.6022,-0.2845 -5.3552,1.7516 -12.4187,1.7102 -13.0042,-0.076 -0.1949,-0.5946 2.5377,-2.4247 6.0723,-4.0669 l 6.4265,-2.9859 -5.3954,-4.1747 c -5.2413,-4.0554 -14.4193,-15.2511 -14.3884,-17.5515 0.031,-2.3176 1.7588,-3.8465 3.6633,-3.242 1.0606,0.3366 4.5929,3.8108 7.8496,7.7204 3.9292,4.717 8.7216,8.9526 14.2454,12.5903 4.6875,3.087 9.3779,7.0786 10.736,9.1366 2.5024,3.792 8.4812,26.6262 8.5014,32.4684 0.01,1.7524 0.2984,4.9258 0.6496,7.0519 l 0.6386,3.8657 15.6004,-0.496 c 12.9507,-0.4117 17.0441,-0.9338 24.1004,-3.074 z m 29.57882,-18.5337 c -0.3324,-0.5379 -1.6977,-6.2992 -3.0338,-12.8028 -3.0912,-15.0461 -3.8352,-17.1211 -9.61792,-26.8249 -3.793,-6.3648 -5.2016,-10.0545 -6.8919,-18.0518 -2.1666,-10.2507 -2.0483,-12.8454 0.6324,-13.8741 2.5162,-0.9656 3.3677,0.3531 2.7445,4.2504 -0.7903,4.9424 2.248,13.8585 9.25582,27.1622 3.9037,7.4106 6.0863,13.063 7.441,19.2699 2.3016,10.5458 2.8943,20.8534 1.2326,21.44 -0.6371,0.225 -1.4303,-0.031 -1.7627,-0.5689 z m -29.57882,-69.1773 c 0,-2.2273 0.6185,-5.2648 1.3745,-6.75 1.1582,-2.2756 1.1661,-4.2939 0.05,-12.8301 -0.7286,-5.5713 -2.0221,-13.1367 -2.8745,-16.812 -1.9126,-8.247 -1.9476,-10.5583 -0.1598,-10.5583 2.3828,0 5.2981,8.036 7.1649,19.75 0.9861,6.1875 2.1158,11.25 2.5104,11.25 1.6246,0 4.1287,-8.9272 4.2075,-15 0.092,-7.0527 -2.0482,-13.2169 -6.7091,-19.3277 -3.0073,-3.9428 -3.5205,-9.0032 -0.861,-8.491 2.5272,0.4867 7.8273,7.955 10.3162,14.5364 1.8618,4.9231 2.108,7.1197 1.6573,14.7823 -0.7018,11.9302 -1.9304,15.5936 -7.2309,21.5618 -3.4429,3.8764 -4.4452,5.7867 -4.4452,8.4716 0,3.0311 -0.3141,3.4666 -2.5,3.4666 -2.2551,0 -2.5,-0.3967 -2.5,-4.0496 z m -33.7046,-66.45252 c -20.4083,-4.32613 -25.267,-4.70777 -46.1187,-3.62254 -10.6278,0.55313 -19.9653,0.75932 -20.75,0.45821 -1.5546,-0.59659 -1.9497,-3.89224 -0.5688,-4.74566 0.4718,-0.2916 11.3843,-0.59984 24.25,-0.68498 17.4182,-0.11527 25.8182,0.25365 32.8921,1.44457 5.225,0.87965 13.325,2.08161 18,2.67103 11.3916,1.43622 15,2.65322 15,5.05908 0,1.68111 -0.722,1.91451 -5.75,1.85891 -3.1625,-0.035 -10.7921,-1.1323 -16.9546,-2.43862 z m 50.6804,-24.24784 c 2.0138,-13.57706 4.23902,-20.2443 10.31442,-30.90313 10.0117,-17.56491 11.0862,-20.55819 11.4316,-31.84687 0.1682,-5.5 0.424,-12.98649 0.5683,-16.63663 l 0.2624,-6.63664 -4.0179,4.56452 c -2.2098,2.51049 -7.3966,6.72096 -11.5263,9.35659 -12.10922,7.72846 -12.00832,7.63437 -12.00832,11.20174 0,3.77278 -6.7619,18.29461 -9.7624,20.96556 -3.4881,3.10504 -3.3208,0.27608 0.3978,-6.72682 2.5715,-4.84272 3.7132,-8.44031 4.0945,-12.90177 0.6288,-7.35681 1.7922,-8.90597 9.6811,-12.89158 8.61842,-4.35419 15.72192,-11.53326 19.87952,-20.09111 3.8468,-7.91795 5.6953,-13.7365 5.7038,-17.95386 0.01,-4.10092 -1.8181,-3.32705 -3.9642,1.67966 -1.0444,2.43631 -2.7159,4.85208 -3.7145,5.36838 -3.3402,1.7269 -9.2489,2.29705 -13.089,1.263 -5.12832,-1.38092 -16.64792,-8.43903 -17.04992,-10.44662 -0.5224,-2.60818 4.7125,-2.02602 7.3474,0.81709 2.7396,2.95602 9.60432,4.95458 14.11292,4.10874 2.3683,-0.44429 4.6684,-2.18593 8.0315,-6.08142 2.5921,-3.00236 5.4145,-5.46926 6.2721,-5.48201 0.9599,-0.0143 -0.2443,-1.74412 -3.1325,-4.5 -5.0936,-4.86019 -9.096,-5.81917 -11.3806,-2.72682 -1.8117,2.45212 -4.4392,0.0809 -2.8007,-2.52752 0.8082,-1.28676 2.7415,-1.79679 7.6429,-2.01624 6.1079,-0.27348 6.8046,-0.0799 10.0893,2.80419 1.9406,1.70388 5.5781,6.65152 8.0833,10.99477 3.3352,5.78228 5.8271,8.76865 9.3062,11.15274 2.6133,1.79075 7.0964,5.15929 9.9625,7.48564 3.2285,2.62041 7.4138,4.86505 11.0001,5.89957 3.1839,0.91841 8.602,2.54941 12.0402,3.62442 4.3727,1.36721 7.5495,1.75991 10.5711,1.30679 5.684,-0.85237 12.1042,0.95627 17.6776,4.97996 7.9727,5.75585 16.3622,7.14433 22.9251,3.79413 3.613,-1.84433 4.6216,-3.17665 5.4873,-7.24845 0.2924,-1.375 4.3342,-6.63197 8.9819,-11.68215 12.2492,-13.31021 16.2667,-22.63036 23.6294,-54.81785 3.6332,-15.88328 8.2532,-31.10192 11.2322,-37 1.1112,-2.2 4.3392,-6.51168 7.1734,-9.5815 2.9623,-3.20848 5.6671,-7.29681 6.3619,-9.61602 1.6011,-5.34377 1.4988,-15.53229 -0.2789,-27.80248 -0.7969,-5.5 -1.4632,-14.54535 -1.4806,-20.10078 -0.017,-5.55542 -0.5193,-11.49954 -1.1153,-13.20914 -1.092,-3.13268 -4.4155,-5.11239 -5.9419,-3.53942 -0.4533,0.46714 -0.9705,7.93496 -1.1493,16.59515 -0.251,12.15214 -0.6244,15.74677 -1.6361,15.75 -1.0391,0.003 -1.2659,-3.5727 -1.0936,-17.24581 0.1858,-14.75332 -0.059,-18.04604 -1.6891,-22.75 -1.4764,-4.25955 -2.4216,-5.57309 -4.1908,-5.82406 l -2.2845,-0.32407 0.2185,15.32407 c 0.2751,19.30085 -0.1191,29.82406 -1.1173,29.82406 -1.5135,0 -2.082,-8.38997 -1.5147,-22.3544 0.4041,-9.947 0.1899,-15.74579 -0.7215,-19.53684 -1.3223,-5.50007 -3.8754,-8.4295 -5.7301,-6.57476 -0.5823,0.58229 -1.0982,10.95745 -1.2545,25.22752 -0.146,13.33117 -0.5858,24.23848 -0.9772,24.23848 -0.7413,0 -2.1238,-7.66047 -2.1657,-12 -0.013,-1.375 0.3392,-6.39358 0.7832,-11.1524 0.4441,-4.75882 0.4911,-10.33836 0.1045,-12.39897 -0.6899,-3.67789 -0.7375,-3.71175 -2.5941,-1.84759 -1.6686,1.67543 -1.9048,3.60577 -2.0065,16.39896 -0.063,7.975 0.3822,18.72592 0.9902,23.89093 0.6081,5.16502 0.8816,9.61493 0.6078,9.88869 -0.7088,0.70877 -2.5537,-4.47697 -2.5537,-7.17794 0,-4.31056 -2.2768,-14.10668 -3.6122,-15.54216 -2.2481,-2.41633 -2.7862,-0.35552 -1.618,6.1957 0.6124,3.43463 0.8621,8.33048 0.5548,10.87967 -0.4491,3.72565 0.08,6.27588 2.6967,13 2.6003,6.6815 3.3531,10.28445 3.7405,17.90145 l 0.485,9.53635 -9.3734,13.87758 c -7.4565,11.03955 -11.1117,15.39221 -17.8734,21.28393 -5.325,4.63987 -9.918,9.71463 -12.2963,13.58607 l -3.7964,6.17973 2.5464,2.03756 c 3.4173,2.73453 3.2262,4.46244 -0.4935,4.46244 -4.0783,0 -9.52,-2.90244 -15.5124,-8.27389 -5.8379,-5.23292 -8.9551,-6.94559 -16.7835,-9.22136 -5.4915,-1.59643 -5.8788,-1.59366 -7.0812,0.0507 -0.8926,1.22076 -2.0195,1.55185 -3.7789,1.11028 -2.7518,-0.69065 -4.7502,-4.11569 -9.9165,-16.99529 -4.266,-10.63508 -11.3845,-18.32395 -21.6715,-23.40808 -7.083,-3.50061 -8.2732,-3.76675 -18.3947,-4.11319 -7.8094,-0.26732 -10.8216,-0.71931 -10.8216,-1.62385 0,-0.68938 -4.16242,-3.27891 -9.24992,-5.7545 -5.0875,-2.4756 -11.5762,-6.08192 -14.4193,-8.01405 -2.8432,-1.93214 -8.3533,-4.48006 -12.2448,-5.66206 -4.6909,-1.42481 -7.5792,-2.91797 -8.5703,-4.43047 -2.1923,-3.34593 -3.6914,-12.45724 -2.9556,-17.96401 0.8034,-6.01255 2.9019,-5.74498 3.0378,0.38733 0.1691,7.634 1.4281,13.62642 3.1962,15.21266 0.9383,0.8418 3.281,1.81568 5.206,2.16417 3.4794,0.62989 3.52,0.59473 6.8938,-5.98225 3.9471,-7.69448 8.35,-12.49213 11.4331,-12.45828 1.1952,0.0131 3.7481,0.38483 5.6731,0.82603 4.7142,1.08045 9.44622,-0.2954 10.61112,-3.08515 1.578,-3.77936 0.8185,-44.96422 -1.0256,-55.61171 -2.97472,-17.17575 -9.59292,-26.05933 -23.82632,-31.98216 -13.8221,-5.75163 -19.3005,-6.75914 -29.6503,-5.45276 -12.2581,1.54725 -19.2397,4.85555 -25.3341,12.00489 -7.1071,8.33726 -8.6398,12.32043 -10.3565,26.91346 -1.7288,14.69667 -1.3603,17.29144 4.1496,29.2169 1.8877,4.08557 3.4321,8.83872 3.4321,10.56256 0,3.74841 -5.2446,25.6556 -7.4786,31.23898 -0.9032,2.25739 -2.857,4.70282 -4.5618,5.70992 -1.6402,0.96884 -5.5645,4.12891 -8.7208,7.02237 -3.1563,2.89347 -7.7638,6.05103 -10.2388,7.0168 -8.0477,3.14029 -11.8022,8.30724 -14.5051,19.96172 -0.8174,3.5246 -3.1044,9.81596 -5.0823,13.98081 -5.1445,10.83289 -5.7305,20.17034 -1.9235,30.65348 2.3614,6.50265 2.8279,9.72133 3.5074,24.2043 0.7244,15.44045 1.0758,17.63459 4.6436,29 l 3.8599,12.2957 -0.028,21 c -0.019,14.21812 -0.6063,25.47187 -1.8196,34.84711 -0.9855,7.6159 -1.5834,14.0556 -1.3285,14.31044 0.2548,0.25483 5.461,0.14709 11.5693,-0.23942 l 11.106,-0.70275 1.0114,-3.75599 c 1.1119,-4.12916 3.7246,-32.87985 4.631,-50.95939 0.4387,-8.75149 0.058,-15.44351 -1.5938,-28 -4.0934,-31.11954 -3.9105,-38.97644 1.5708,-67.5 2.0444,-10.63862 3.5968,-15.42983 8.5465,-26.37683 7.1104,-15.72596 9.8212,-24.54776 9.87,-32.11999 0.034,-5.27665 0.094,-5.40027 1.4646,-3.00318 3.6429,6.37264 1.283,18.69111 -6.8966,36 -9.3884,19.86656 -10.8347,24.77442 -12.6721,43 -1.3113,13.00678 -0.783,24.87275 2.1016,47.20483 2.9531,22.86214 2.9166,25.12619 -1.076,66.79517 -0.5007,5.225 -1.2069,11.6375 -1.5695,14.25 l -0.6593,4.75 19.3859,0.0131 c 15.3859,0.0104 21.3462,0.42039 28.886,1.98686 5.225,1.08555 10.2517,1.97964 11.1705,1.98686 2.1368,0.0168 2.7787,-2.99116 3.1982,-14.98686 0.3585,-10.25042 3.2013,-19.16434 6.7109,-21.04261 2.9296,-1.56786 3.1398,0.52409 0.5434,5.40721 -1.8126,3.40902 -2.5593,6.79854 -3.046,13.82581 -0.3546,5.12027 -0.8832,11.34877 -1.1747,13.84111 l -0.5299,4.53151 8.5387,1.7747 c 4.6962,0.97609 10.4624,2.37992 12.8138,3.11962 2.3513,0.7397 4.7651,1.3894 5.364,1.44378 0.6222,0.0565 1.6454,-3.652 2.3869,-8.65113 z m -67.9824,-33.5 c 0,-1.7875 0.5006,-6.625 1.1206,-10.75 1.5457,-10.28354 0.3019,-14.48885 -6.2115,-21.00223 -4.2247,-4.22476 -4.9772,-5.53113 -4.7148,-8.18541 0.4781,-4.83497 2.5643,-4.55674 4.7915,0.639 1.2048,2.81073 3.1472,5.28812 4.9634,6.33051 1.6413,0.94192 3.5631,2.80639 4.2707,4.14325 1.5806,2.98595 1.4653,21.84104 -0.1707,27.9168 -1.3782,5.11808 -4.0394,5.71489 -4.0492,0.90808 z m -46.3059,-7.39583 c -0.3781,-0.37813 -0.6875,-3.69499 -0.6875,-7.3708 0,-5.9447 0.3551,-7.16955 3.213,-11.08333 1.7671,-2.42002 4.5796,-7.075 6.25,-10.3444 3.6187,-7.08302 5.537,-8.21405 5.537,-3.2647 0,4.93264 -2.51,11.38694 -5.9533,15.30871 -2.8763,3.27585 -4.5984,7.8223 -5.2361,13.82323 -0.3065,2.884 -1.7838,4.27059 -3.1231,2.93129 z m 39.3125,-46.89401 c 0,-6.50651 4.633,-13.59907 18.8681,-28.8851 4.0591,-4.35872 7.9993,-9.40676 8.756,-11.21788 0.8799,-2.10589 1.3759,-7.18964 1.3759,-14.10256 0,-12.28904 0.7203,-14.05097 7.0684,-17.2895 2.1649,-1.10445 8.7726,-3.13408 14.6839,-4.51028 14.5814,-3.39471 15.9728,-4.06754 19.9981,-9.67054 3.4524,-4.80538 5.4548,-5.63836 6.0596,-2.52071 0.4546,2.34338 -6.6814,9.78405 -11.31,11.7928 -2.2,0.95478 -8.3969,2.72176 -13.7709,3.92663 -7.9365,1.7794 -10.3961,2.78451 -13.101,5.35383 -3.2354,3.07306 -3.3503,3.45992 -4.0366,13.58281 -0.3885,5.73082 -1.3712,12.01056 -2.1836,13.95499 -1.9069,4.56396 -8.2862,13.04557 -15.513,20.62535 -3.5483,3.72152 -7.2826,9.13291 -9.8337,14.25 -4.4733,8.97248 -7.0612,10.69871 -7.0612,4.71016 z m 182.66672,1.87317 c -2.9615,-2.96144 3.3606,-6.33333 11.8745,-6.33333 4.7987,0 5.5575,0.25185 5.2724,1.75 -0.262,1.37657 -1.5402,1.81347 -5.9902,2.04742 -3.4098,0.17927 -6.1362,0.8745 -6.8628,1.75 -1.2787,1.54079 -3.1894,1.89049 -4.2939,0.78591 z m -7.6651,-15.82909 c -0.5509,-1.44894 -1.0016,-3.01238 -1.0016,-3.47432 0,-1.62736 -8.8969,-6.02987 -12.1781,-6.02618 -3.7916,0.004 -9.1909,2.94871 -10.7504,5.86266 -2.2504,4.20487 -14.0715,5.27825 -14.0715,1.27772 0,-1.37488 0.7543,-1.62503 3.9743,-1.31796 4.1891,0.3995 6.7194,-1.44119 11.4065,-8.29779 1.7669,-2.58477 2.1907,-2.71033 7,-2.074 7.4282,0.98284 12.539,3.60356 17.4359,8.94077 4.5613,4.97146 4.9138,6.90073 1.3566,7.4242 -1.5785,0.23229 -2.4431,-0.3988 -3.1717,-2.3151 z M 965.88128,628.61397 c -4.7292,-2.17614 -8.4011,-6.7758 -8.4011,-10.52358 0,-3.80986 1.3773,-3.20127 5.3875,2.38062 3.5686,4.96732 5.0122,5.74475 11.6125,6.25381 2.3245,0.17928 3.5,0.77374 3.5,1.76994 0,2.29379 -7.2187,2.36491 -12.0989,0.11921 z m 154.59892,-7.31759 c 0,-0.65911 2.8701,-3.92161 6.3779,-7.25 4.6307,-4.39381 6.8667,-7.42135 8.1621,-11.05162 3.7303,-10.454 4.4691,-11.89088 5.5558,-10.80425 2.5371,2.53713 -5.8163,22.09562 -11.6094,27.18205 -3.5294,3.09883 -8.4864,4.22256 -8.4864,1.92382 z M 988.94978,601.44555 c -1.0426,-1.68694 2.4502,-15.56819 4.3498,-17.28731 0.9542,-0.86353 4.2671,-2.72935 7.36202,-4.14627 3.0949,-1.41692 6.3556,-3.68794 7.2459,-5.04671 2.1408,-3.26738 3.7829,-3.13971 3.389,0.26349 -0.259,2.23814 -1.5859,3.42268 -7.3164,6.53128 -3.8499,2.08852 -7.52502,4.49303 -8.16672,5.34336 -0.6417,0.85034 -1.4618,3.87376 -1.8223,6.71872 -0.3606,2.84496 -0.8783,5.96015 -1.1506,6.92265 -0.5457,1.92887 -2.8727,2.348 -3.8907,0.70079 z m -107.0361,-2.35989 c -0.3326,-1.32501 0.3559,-5.91028 1.5298,-10.1895 l 2.1346,-7.7804 -4.411,-3.77041 c -5.0461,-4.3132 -6.971,-8.15249 -6.5091,-12.98201 l 0.3222,-3.36858 2.3179,4.70601 c 1.6585,3.36726 3.721,5.56933 7.25,7.74076 5.9375,3.65338 6.2838,5.90211 2.3484,15.25202 -2.0966,4.98142 -2.3794,6.58685 -1.5,8.51692 1.5438,3.38814 1.3561,4.28429 -0.8972,4.28429 -1.2591,0 -2.2013,-0.87788 -2.5856,-2.4091 z m 90.6573,-99.59891 c -5.175,-1.58497 -10.0192,-3.49182 -10.7648,-4.23743 -1.7426,-1.74258 -3.7365,-12.98292 -2.8966,-16.32925 1.3282,-5.29202 4.2628,-0.88524 4.4709,6.71391 0.1357,4.95375 2.3731,7.13354 10.5997,10.32666 7.2477,2.81318 9.5,4.15426 9.5,5.65657 0,1.18988 -0.1879,1.15319 -10.9092,-2.13046 z m 104.30232,69.33186 c 13.4665,-14.09965 35.2601,-34.32342 36.9891,-34.32464 0.6148,-4.3e-4 3.904,-1.31888 7.3093,-2.92989 5.6771,-2.6857 6.2454,-3.24652 6.8395,-6.74921 0.3564,-2.10106 1.5041,-6.98581 2.5504,-10.85499 1.4697,-5.43485 1.6768,-7.8215 0.9105,-10.4934 -1.4529,-5.06593 -1.2121,-12.86714 0.5838,-18.91455 1.8468,-6.21911 0.9686,-8.08183 -2.9653,-6.2894 -3.2874,1.49782 -5.0904,9.98338 -4.1497,19.52974 0.5427,5.50837 0.4125,6.82771 -0.6396,6.48015 -1.7734,-0.58582 -2.2326,-11.08956 -0.9149,-20.92975 0.5636,-4.20865 2.3902,-11.59317 4.0592,-16.41004 3.2446,-9.36395 3.6408,-12.4366 1.9994,-15.50361 -1.7604,-3.28941 -3.6604,-2.20154 -4.9177,2.81574 -0.6547,2.6125 -2.7836,8.35 -4.7309,12.75 -2.7183,6.14211 -3.6607,9.80474 -4.0581,15.77115 -0.56,8.40933 -1.6713,10.67035 -2.6584,5.40883 -0.8815,-4.69891 0.8422,-12.57941 4.9332,-22.55476 4.0747,-9.93531 5.6149,-17.67075 3.3715,-16.93293 -2.1711,0.71406 -5.252,5.8208 -9.9655,16.51854 -3.8028,8.63072 -4.3628,10.85423 -4.7322,18.78917 -0.5935,12.74864 -2.2067,13.1876 -2.2067,0.60044 0,-9.5574 0.2511,-10.87902 3.485,-18.34138 2.6255,-6.05869 3.0233,-7.62402 1.6128,-6.34757 -4.2543,3.85006 -9.8788,20.40641 -10.3066,30.33851 -0.1244,2.8875 -0.6449,5.25 -1.1567,5.25 -0.9385,0 -0.2521,-15.14913 0.9062,-20 1.3616,-5.70275 -1.5116,0.92024 -3.4785,8.01809 -1.7784,6.41759 -1.9641,9.07497 -1.4056,20.11093 0.5686,11.23435 0.8597,12.77272 2.4976,13.20106 6.036,1.57843 -7.2893,11.72704 -29.6542,22.58486 -9.9,4.80631 -19.4626,9.32125 -21.2501,10.03322 -4.0008,1.59354 -4.0493,2.34646 -0.3223,5.00039 3.9049,2.78051 10.9012,12.20941 15.1363,20.39924 1.8899,3.65465 3.613,6.64648 3.8292,6.64851 0.2162,0.002 5.8412,-5.70057 12.5,-12.67245 z"
       id="path4293"
       inkscape:connector-curvature="0" />
  </g>
</svg>
