<?xml version="1.0" encoding="UTF-8" standalone="no"?>
<!-- Created with Inkscape (http://www.inkscape.org/) -->

<svg
   xmlns:dc="http://purl.org/dc/elements/1.1/"
   xmlns:cc="http://creativecommons.org/ns#"
   xmlns:rdf="http://www.w3.org/1999/02/22-rdf-syntax-ns#"
   xmlns:svg="http://www.w3.org/2000/svg"
   xmlns="http://www.w3.org/2000/svg"
   xmlns:sodipodi="http://sodipodi.sourceforge.net/DTD/sodipodi-0.dtd"
   xmlns:inkscape="http://www.inkscape.org/namespaces/inkscape"
   width="899.87421"
   height="464.901"
   id="svg2"
   version="1.1"
   inkscape:version="0.48.3.1 r9886"
   sodipodi:docname="One-armed-biased-push-up-1.svg">
  <defs
     id="defs4" />
  <sodipodi:namedview
     id="base"
     pagecolor="#ffffff"
     bordercolor="#666666"
     borderopacity="1.0"
     inkscape:pageopacity="0.0"
     inkscape:pageshadow="2"
     inkscape:zoom="0.98994949"
     inkscape:cx="385.00399"
     inkscape:cy="153.04062"
     inkscape:document-units="px"
     inkscape:current-layer="layer1"
     showgrid="false"
     fit-margin-top="0"
     fit-margin-left="0"
     fit-margin-right="0"
     fit-margin-bottom="0"
     inkscape:window-width="1378"
     inkscape:window-height="738"
     inkscape:window-x="211"
     inkscape:window-y="83"
     inkscape:window-maximized="0" />
  <metadata
     id="metadata7">
    <rdf:RDF>
      <cc:Work
         rdf:about="">
        <dc:format>image/svg+xml</dc:format>
        <dc:type
           rdf:resource="http://purl.org/dc/dcmitype/StillImage" />
        <dc:title></dc:title>
      </cc:Work>
    </rdf:RDF>
  </metadata>
  <g
     inkscape:label="Ebene 1"
     inkscape:groupmode="layer"
     id="layer1"
     transform="translate(-18.539916,-431.90691)">
    <path
       style="fill:#000000"
       d="m 304.80037,894.5579 c -1.3362,-1.6496 -2.6706,-2.1678 -5.0004,-1.942 -1.7478,0.1694 -5.1228,-0.2603 -7.5,-0.9548 -2.3772,-0.6945 -6.5389,-1.3299 -9.2483,-1.4121 -4.0089,-0.1215 -5.3588,-0.6523 -7.25,-2.8509 -1.2781,-1.486 -2.3239,-3.9482 -2.3239,-5.4717 0,-1.6616 -1.0003,-3.7096 -2.5,-5.1185 -3.7948,-3.565 -3.1767,-6.2813 2.9444,-12.9395 2.9944,-3.2572 6.4255,-7.8658 7.6247,-10.2413 1.1992,-2.3756 5.5964,-7.4692 9.7716,-11.3192 4.1752,-3.85 11.3145,-10.7718 15.8652,-15.3818 l 8.274,-8.3819 7.76,-0.8142 c 4.2681,-0.4479 10.4781,-0.8385 13.8,-0.8682 7.1291,-0.064 16.636,-2.3541 19.9606,-4.8091 3.5595,-2.6285 4.4995,-5.5703 4.4995,-14.0818 0,-10.964 -1.9735,-17.551 -10.4401,-34.8453 -8.4411,-17.24244 -9.8563,-22.71934 -9.3875,-36.33074 l 0.3276,-9.5131 -5.5,1.9041 c -6.4379,2.2287 -30.3898,3.5496 -33.5826,1.852 -1.3771,-0.7322 -2.9348,-0.612 -5.5286,0.4269 l -3.6113,1.4463 0.9659,4.6984 c 0.5312,2.5841 0.9822,10.3234 1.0022,17.1984 0.033,11.2152 -0.2398,13.2195 -2.6521,19.50004 -7.844,20.4223 -19.0981,33.02 -41.1634,46.0776 -13.4107,7.936 -26.0464,11.6395 -50.7708,14.8806 -19.7494,2.5889 -63.0521,1.9135 -97.3826,-1.5189 -19.3684,-1.9364 -37.0766,-7.9158 -54.955,-18.556 -16.6513,-9.9099 -20.4996,-14.6478 -26.3832,-32.4818 -8.8042,-26.68714 -2.2344,-57.42634 16.628,-77.79994 l 5.3467,-5.7751 -2.6306,-7.4132 c -3.464,-9.7617 -4.3926,-28.9609 -1.884,-38.953 4.4984,-17.9182 15.232,-31.2436 31.6965,-39.3501 10.8267,-5.3307 16.5217,-6.6102 29.421,-6.6102 8.4724,0 9.7919,0.2762 15.8238,3.312 4.3626,2.1957 7.0863,3.029 8.081,2.4723 2.4027,-1.3446 3.6306,-7.3143 4.5836,-22.2843 1.2817,-20.133 5.8945,-41.4024 11.5139,-53.0898 5.4494,-11.334 10.3159,-17.5468 19.1109,-24.3981 9.9458,-7.7477 17.2485,-14.9693 19.4623,-19.2461 1.2914,-2.495 2.8412,-3.9374 4.6706,-4.3471 1.5058,-0.3371 4.3128,-1.0168 6.2378,-1.5104 5.5508,-1.4231 9.5294,-1.0666 12.285,1.101 2.784,2.1899 7.715,10.3356 7.715,12.7447 0,0.8263 1.3455,3.8539 2.9899,6.7281 9.7359,17.0165 10.6274,29.7888 2.844,40.7448 -1.6503,2.323 -6.8339,15.806 -6.8339,17.7756 0,0.3589 5.9625,-0.4152 13.25,-1.7202 12.7945,-2.291 13.9893,-2.3354 34.75,-1.291 11.825,0.5948 23.525,1.2644 26,1.4879 27.8443,2.5147 43.7813,1.1946 67,-5.5495 7.425,-2.1566 18.225,-4.6075 24,-5.4462 17.6887,-2.5691 23.2957,-4.5995 31.5421,-11.4217 3.2372,-2.678 7.3875,-4.8601 11.9579,-6.287 4.5537,-1.4216 8.7474,-3.6229 12,-6.2987 13.367,-10.9965 21.2343,-14.7737 35.5,-17.0442 16.9918,-2.7044 33.312,-0.7232 57.9428,7.0339 11.243,3.5408 11.6969,3.5988 26,3.3189 12.9118,-0.2527 14.8723,-0.071 17.3448,1.6047 2.5973,1.7607 3.3988,1.802 11.7428,0.606 11.1279,-1.595 26.0707,-0.8621 39.3297,1.9289 15.6636,3.2971 18.0932,3.0141 26.2468,-3.0573 3.7912,-2.823 8.6254,-6.6872 10.7426,-8.5872 2.1173,-1.9 7.5173,-5.8356 12,-8.7457 22.3998,-14.5415 35.8755,-17.6715 60.1505,-13.971 5.5,0.8384 11.8,1.7722 14,2.075 5.9816,0.8233 28.7397,-4.7136 38.7621,-9.4305 10.174,-4.7883 28.228,-16.3939 29.9572,-19.2573 3.2339,-5.3551 19.1371,-10.0018 27.0186,-7.8945 8.2231,2.1986 15.7621,13.4669 15.7621,23.5588 0,1.8619 0.2444,3.3852 0.543,3.3852 0.2986,0 2.8861,-1.7684 5.75,-3.9297 14.8016,-11.1704 29.374,-10.8335 36.5601,0.8453 5.475,8.898 6.9037,16.8095 7.5094,41.5844 0.6097,24.9406 1.5658,33.3055 5.6176,49.1518 2.3562,9.2148 2.6881,11.9069 1.9105,15.5 -1.5828,7.3138 -4.8681,14.4535 -8.0408,17.4741 -1.6603,1.5808 -4.5997,5.0193 -6.532,7.6412 -4.2579,5.7777 -6.4564,7.1041 -12.3178,7.4321 -2.475,0.1386 -8.0024,0.5378 -12.2831,0.8873 -7.3044,0.5964 -8.0321,0.4706 -11.8327,-2.0445 -3.4729,-2.2983 -4.4722,-2.5326 -7.0162,-1.6458 -1.6315,0.5688 -4.2879,0.7698 -5.903,0.4468 -2.8491,-0.5698 -7.965,-4.7315 -7.965,-6.4794 0,-0.475 -0.7628,-0.8636 -1.6952,-0.8636 -0.9324,0 -2.8449,-1.051 -4.25,-2.3356 -1.4051,-1.2845 -4.6866,-3.1196 -7.2921,-4.0779 -5.7117,-2.1006 -8.8409,-6.101 -9.5258,-12.1778 -0.2733,-2.4248 -0.8538,-4.4087 -1.29,-4.4087 -0.4361,0 -2.1776,-1.3846 -3.8699,-3.0769 -3.7356,-3.7356 -3.9178,-6.7967 -1.0687,-17.9553 2.064,-8.0839 1.9727,-8.9823 -1.602,-15.7578 -0.5404,-1.0245 -18.419,11.5784 -25.2382,17.7909 -10.5631,9.6232 -18.7993,15.0392 -37.1147,24.4061 -11.7322,6.0001 -15.0398,8.146 -15.9526,10.3497 -1.0422,2.5162 -13.5764,13.3461 -20.2983,17.5383 -1.4836,0.9253 -6.1109,2.6188 -10.2829,3.7634 -5.7768,1.5848 -9.5447,3.4906 -15.8025,7.993 -10.3422,7.441 -27.308,15.873 -39.979,19.8696 -5.3691,1.6934 -10.4451,3.079 -11.2801,3.079 -0.835,0 -4.2188,1.1366 -7.5194,2.5259 -4.9237,2.0723 -8.644,2.6971 -20.7199,3.4794 -8.0953,0.5244 -19.2277,0.9628 -24.7388,0.9741 -11.1493,0.023 -22.1273,2.4838 -29.0263,6.5068 -4.3272,2.5232 -17.8867,5.5138 -25.0003,5.5138 -2.3792,0 -8.967,-1.1244 -14.6395,-2.4987 -7.9222,-1.9193 -12.9727,-2.499 -21.7803,-2.5 -8.2399,-9e-4 -12.6821,-0.4655 -15.7861,-1.6509 -5.2326,-1.9984 -6.4406,-1.497 -15.5487,6.4531 -7.2317,6.3122 -21.0016,15.7975 -28.3051,19.4976 -4.7626,2.4129 -5.1477,2.8884 -5.7199,7.0635 -1.9525,14.2447 -1.8907,20.1132 0.3067,29.1287 1.6633,6.8239 2.1921,12.0277 2.1921,21.573 0,13.2995 -0.9482,18.5759 -4.6572,25.91704 -1.2552,2.4842 -3.4252,8.1438 -4.8224,12.577 -3.2973,10.4621 -11.6929,53.2549 -11.6929,59.5996 0,6.5111 -1.8332,10.5632 -6.8112,15.0551 -7.3711,6.6513 -19.5052,11.504 -35.6888,14.2725 -11.924,2.0399 -17.4075,4.8931 -28.0012,14.57 -10.7748,9.8421 -14.624,11.9425 -21.8863,11.9425 -4.4631,0 -5.8021,-0.4133 -7.2899,-2.25 z m 12.8623,-3.661 c 1.2734,-0.501 5.7393,-4.2135 9.9244,-8.25 4.1852,-4.0364 10.9809,-9.2641 15.1016,-11.6169 6.3626,-3.6329 9.2284,-4.5702 19.0062,-6.2162 16.7657,-2.8224 23.7362,-5.3919 30.3284,-11.1799 5.1589,-4.5296 7.5514,-9.729 6.9094,-15.015 -0.6069,-4.996 -10e-4,-7.8897 12.3519,-59.0094 l 9.1098,-37.69854 -1.4033,-9.3015 c -0.7719,-5.1159 -1.9233,-12.6318 -2.5587,-16.7021 -1.1562,-7.4066 -0.5728,-19.0519 1.1132,-22.218 0.474,-0.8902 1.0878,-5.5539 1.3639,-10.3638 0.5719,-9.9623 -0.4068,-12.8726 -5.6806,-16.8923 -2.8933,-2.2052 -4.6118,-2.5574 -15.6154,-3.2 l -12.3644,-0.7221 -11.1356,-6.7048 c -6.1246,-3.6877 -12.9357,-7.6155 -15.1357,-8.7286 -5.0475,-2.5538 -19.0067,-6.7738 -27.5,-8.3135 -7.5658,-1.3717 -26.4527,-1.8235 -27.6233,-0.6609 -0.4405,0.4375 -0.2555,1.6689 0.4112,2.7364 0.6667,1.0675 1.2121,3.3857 1.2121,5.1515 l 0,3.2106 -3.0975,-4.212 c -3.5833,-4.8726 -9.3519,-8.5351 -17.0102,-10.8 -9.141,-2.7035 -9.2304,-2.7988 -6.9034,-7.3602 1.9772,-3.8756 7.6136,-9.0218 9.8812,-9.0218 0.8306,0 0.7283,0.876 -0.3444,2.9503 -2.2492,4.3495 -1.9806,4.9609 3.1818,7.2445 4.9637,2.1957 9.2629,2.8604 34.2925,5.3026 8.525,0.8318 16.4804,1.7356 17.6787,2.0086 2.3342,0.5317 15.054,-3.8166 23.1186,-7.9033 7.9252,-4.016 10.9223,-7.1282 13.3949,-13.9096 2.4783,-6.797 7.98,-13.6931 10.9242,-13.6931 3.0619,0 2.2574,3.177 -3.1164,12.3072 -2.75,4.6724 -5,8.7647 -5,9.094 0,1.0534 25.9498,0.6403 30.4155,-0.4842 2.4395,-0.6143 6.635,-3.0026 9.6929,-5.5178 5.5135,-4.535 8.1161,-5.1876 8.6953,-2.1804 0.4709,2.4453 -11.9439,11.2947 -19.316,13.7685 -5.2331,1.7561 -6.9826,1.8917 -13.5,1.046 -13.8811,-1.8011 -19.703,-1.3797 -24.8771,1.8009 -2.5358,1.5587 -7.4408,4.1031 -10.8999,5.6542 l -6.2893,2.82 2.7893,1.8987 c 1.5341,1.0443 5.7143,3.4495 9.2893,5.3448 3.575,1.8953 7.5827,4.2229 8.9059,5.1725 2.388,1.7137 2.3966,1.7093 1.1633,-0.5952 -0.6834,-1.277 -2.5505,-3.0659 -4.149,-3.9755 -3.0474,-1.7339 -3.3428,-3.4425 -0.6843,-3.9583 2.137,-0.4147 8.1822,5.0584 10.1367,9.1774 1.4155,2.9828 2.243,3.4822 7.3611,4.4423 3.1715,0.5949 8.4663,1.3823 11.7663,1.7498 l 6,0.6681 -3.25,-3.4141 c -1.7875,-1.8778 -3.25,-4.1017 -3.25,-4.9422 0,-1.6834 -3.2838,-5.0004 -6.6842,-6.7517 -1.2014,-0.6188 -4.4271,-1.125 -7.1682,-1.125 -5.9,0 -8.1476,-0.7139 -8.1476,-2.5879 0,-2.2782 4.1069,-2.5924 11.5,-0.8799 8.2397,1.9086 13.5,4.8503 13.5,7.5494 0,2.3891 0.2738,2.3835 6.9176,-0.1417 8.2423,-3.1327 16.0824,-1.1186 16.0824,4.1315 0,2.3644 -2.2319,2.4779 -5.5805,0.2839 -2.1016,-1.377 -3.1344,-1.4577 -6.3462,-0.4954 -2.1098,0.6321 -4.3724,1.7956 -5.028,2.5856 -0.9914,1.1946 -0.5486,1.5418 2.6313,2.0628 7.7822,1.2752 9.3234,1.6671 9.3234,2.3712 0,1.4957 -2.4877,3.1205 -4.7779,3.1205 -2.3121,0 -2.2787,0.1159 1.204,4.1846 4.0608,4.7441 5.7579,9.6456 4.8725,14.0724 l -0.6046,3.0234 5.9269,-3.159 c 3.2598,-1.7374 8.3912,-5.1792 11.403,-7.6483 15.5907,-12.7811 28.5225,-20.8448 37.7864,-23.5617 3.435,-1.0074 4.6013,-1.9606 5.7434,-4.694 1.7461,-4.179 1.2197,-5.2174 -2.6448,-5.2174 -3.4494,0 -9.5434,-2.3593 -12.1223,-4.6931 -2.0079,-1.8172 -2.4289,-6.3069 -0.5913,-6.3069 0.6574,0 2.3987,1.1529 3.8694,2.562 2.303,2.2063 3.6693,2.5909 9.8436,2.7703 l 7.1694,0.2083 1.3874,-5.0203 c 2.0444,-7.3984 2.7674,-19.2522 1.5562,-25.516 -2.2642,-11.7095 -11.6468,-27.291 -20.8298,-34.5918 -8.2462,-6.5561 -12.5294,-8.9026 -27.0413,-14.8143 l -12.9778,-5.2868 -8.8362,4.2756 c -10.8065,5.2289 -14.1422,6.0819 -15.0038,3.8366 -0.7783,-2.028 0.6943,-3.0038 7.6556,-5.0728 5.5771,-1.6576 9.012,-3.3469 9.012,-4.4322 0,-0.616 -7.2175,-2.3043 -14.7225,-3.4439 -3.3704,-0.5118 -5.8795,0 -12.4325,2.5249 -5.5814,2.1524 -11.2731,3.4756 -17.7774,4.1331 -10.7913,1.0907 -18.3652,2.8542 -27.9777,6.5142 -18.7797,7.1503 -29.4757,8.928 -47.5138,7.8968 -23.7106,-1.3554 -36.2775,-2.2514 -50.2038,-3.5791 -13.8159,-1.3172 -14.4781,-1.2887 -30,1.2949 -8.7297,1.453 -19.2168,3.564 -23.3046,4.6912 -9.9249,2.7366 -15.3888,2.6944 -18.0287,-0.1393 -3.7684,-4.0448 -1.4209,-7.3922 3.1303,-4.4636 2.075,1.3353 3.1795,1.3288 10.0659,-0.059 7.194,-1.45 7.6959,-1.7151 7.1753,-3.7896 -1.0024,-3.9939 1.5287,-10.2483 7.1507,-17.6691 3.0321,-4.0021 5.78,-8.3412 6.1066,-9.6422 1.3129,-5.2312 -0.5599,-12.8357 -6.2031,-25.1878 -3.1409,-6.875 -5.9991,-14.075 -6.3516,-16 -0.5507,-3.0077 -1.233,-3.7054 -4.8511,-4.9602 -6.7239,-2.3321 -9.9442,-0.5576 -22.212,12.2397 -16.4162,17.1248 -17.8867,20.0233 -19.0797,37.6089 -0.8369,12.336 -0.4275,11.2265 -12.5432,33.9901 -3.6414,6.8417 -3.9271,7.9692 -3.9271,15.5 0,7.1463 0.4081,8.9921 3.3981,15.3715 1.8689,3.9875 3.6917,7.25 4.0507,7.25 0.9827,0 5.0512,-8.7832 5.0512,-10.9046 0,-8.1483 13.3754,-22.1464 18.1063,-18.9492 1.1233,0.7592 0.9167,1.2729 -1.0649,2.6479 -8.0678,5.5977 -11.0414,10.2049 -11.0414,17.107 0,2.7923 -0.6502,4.7492 -2.0399,6.1388 -2.0936,2.0936 -3.1599,4.3651 -4.3429,9.2509 l -0.6758,2.7909 2.9726,-1.5372 c 3.48,-1.7996 4.4515,-0.9113 2.7466,2.5113 -0.7474,1.5006 -3.3299,3.3282 -6.689,4.734 -4.704,1.9687 -6.6925,2.2237 -14.1754,1.818 l -8.7038,-0.4719 -5.6883,-5.6884 c -10.8662,-10.8662 -22.2828,-13.3967 -38.4375,-8.5198 -17.2018,5.193 -28.3371,14.3068 -35.9818,29.4494 -3.9348,7.7942 -4.5221,9.8068 -4.8142,16.5 -0.4267,9.7739 1.9849,24.6097 5.0969,31.3557 7.1586,15.5179 19.8922,25.0947 53.2843,40.0742 16.0998,7.2223 17.7482,7.4582 28.5237,4.0819 3.5682,-1.1181 4.9351,-2.1878 6.209,-4.8593 3.224,-6.7607 5.0903,-19.4259 5.1542,-34.9764 l 0.061,-14.9467 -4.1889,-3.0533 c -2.3039,-1.6792 -4.2164,-3.3907 -4.25,-3.8032 -0.1153,-1.4147 4.0202,-0.7491 8.0179,1.2903 5.9971,3.0595 7.9128,6.9455 7.9172,16.0605 0,5.9655 1.3503,13.9264 2.3516,13.8943 1.8564,-0.059 20.3099,-7.8504 23.6101,-9.9681 2.5081,-1.6095 6.4257,-3.2246 8.7058,-3.5892 3.5792,-0.5723 4.301,-0.3723 5.284,1.4645 1.1645,2.1759 1.0881,2.2678 -2.7236,3.2771 -0.7328,0.194 1.0917,2.6752 4.2865,5.8292 l 5.5624,5.4914 12.5205,-0.2647 c 12.5385,-0.2652 16.1406,0.418 27.6565,5.2451 1.2289,0.5152 1.75,0.2727 1.75,-0.8144 0,-3.2616 2.2724,-2.6044 9.6669,2.7957 22.9865,16.7868 37.5923,17.0339 60.4422,1.0226 4.34,-3.0411 7.8909,-5.1438 7.8909,-4.6726 0,0.4712 -1.8273,3.4653 -4.0606,6.6535 l -4.0607,5.7967 10.8107,-0.5397 c 14.3083,-0.7143 34.863,-6.5376 40.537,-11.4843 0.9495,-0.8279 1.4641,-1.9296 1.1436,-2.4482 -0.3284,-0.5314 0.6602,-0.8005 2.265,-0.6164 1.6259,0.1865 2.977,1.0089 3.1489,1.9165 0.3813,2.0139 -4.7542,7.1673 -11.5106,11.5508 -4.638,3.0091 -5.4229,4.0367 -6.9695,9.1252 -0.9717,3.1971 -1.7563,9.0526 -1.7733,13.2342 -0.026,6.4281 0.3588,8.1432 2.6936,12 3.6506,6.0305 12.3369,23.99954 14.4148,29.81934 1.1098,3.1084 1.8259,9.1311 2.1319,17.9295 0.532,15.2985 0.037,16.7112 -7.0224,20.0294 -3.8495,1.8095 -21.3703,5.1163 -36.1824,6.829 -4.5578,0.527 -5.5108,1.1606 -12.5,8.3109 -4.1613,4.2572 -10.266,10.0556 -13.566,12.8852 -3.3,2.8297 -7.575,7.4594 -9.5,10.2883 -1.925,2.8289 -5.8625,7.7187 -8.75,10.8663 -5.643,6.1513 -6.4398,8.5297 -3.202,9.5573 2.518,0.7992 4.5278,-0.7782 6.9421,-5.4483 1.0142,-1.9618 4.5657,-7.2644 7.8923,-11.7836 4.6212,-6.278 7.885,-9.4633 13.8329,-13.5 4.2816,-2.9058 10.2597,-7.8253 13.2847,-10.9322 5.9671,-6.1287 9.3561,-8.3122 11.5781,-7.4595 2.3572,0.9045 1.638,2.2023 -2.8281,5.1031 -2.3375,1.5183 -5.2911,4.048 -6.5636,5.6215 -1.2724,1.5736 -6.4165,5.6712 -11.4312,9.1058 -7.2453,4.9624 -10.3296,7.891 -15.0194,14.2614 -3.246,4.4091 -6.7232,9.5916 -7.7272,11.5166 -1.004,1.925 -3.2167,4.8217 -4.917,6.4371 -1.7004,1.6154 -3.0916,3.38 -3.0916,3.9213 0,2.0026 3.3916,4.6416 5.9654,4.6416 3.3257,0 12.7597,-10.5314 17.0535,-19.0375 1.7724,-3.5111 4.5472,-6.9987 7.1844,-9.0299 2.3632,-1.8202 7.2222,-6.0838 10.7978,-9.4747 3.5757,-3.3908 7.4449,-6.4647 8.5983,-6.8308 1.1534,-0.366 2.5958,-1.7602 3.2055,-3.0982 1.4948,-3.2809 6.5048,-5.7098 11.0052,-5.3357 4.1682,0.3466 5.0023,2.1598 1.1899,2.5868 -5.2859,0.5919 -6.6942,1.2534 -7.7905,3.6594 -0.6233,1.3681 -3.0629,3.6895 -5.4214,5.1588 -2.3585,1.4693 -6.779,4.9732 -9.8234,7.7866 -3.0444,2.8134 -6.7465,6.1157 -8.2269,7.3385 -1.4803,1.2228 -5.1157,5.9478 -8.0786,10.5 -2.9629,4.5522 -6.7984,9.5984 -8.5232,11.2138 -1.7248,1.6154 -3.136,3.3259 -3.136,3.801 0,1.4895 6.5708,3.6863 9.0924,3.0399 1.3242,-0.3395 2.9956,-1.4409 3.7143,-2.4476 2.0663,-2.8944 4.3649,-2.3623 3.5649,0.8252 -1.1083,4.4159 3.9967,6.7222 9.8133,4.4334 z m -2.6667,-14.0596 c -1.2949,-2.0952 3.3328,-8.0676 15.7558,-20.3341 10.6771,-10.5426 13.4189,-12.7509 15.52,-12.5 3.8337,0.4578 3.7594,2.467 -0.1388,3.7535 -2.1732,0.7172 -3.8773,2.1391 -4.608,3.8446 -0.6377,1.4887 -4.3566,5.1816 -8.2642,8.2066 -3.9076,3.025 -9.3234,8.3125 -12.0351,11.75 -5.2958,6.7132 -5.3271,6.7398 -6.2297,5.2794 z m 77.2243,-46.9434 c -1.5167,-0.9723 -2.9737,-1.9839 -3.2378,-2.248 -0.566,-0.566 4.9439,-23.6199 5.8655,-24.5415 1.5316,-1.5316 1.7448,1.0767 0.608,7.438 -0.6746,3.7748 -1.0435,10.1038 -0.8197,14.0644 0.2238,3.9606 0.3922,7.1682 0.3742,7.128 -0.018,-0.04 -1.2736,-0.8686 -2.7902,-1.8409 z m -22.7425,-64.1237 c 0,-1.5065 6.4249,-17.90874 9.0342,-23.06364 1.2246,-2.4193 4.8485,-8.4599 8.0531,-13.4235 11.3098,-17.5177 11.5209,-20.6644 2.2521,-33.5659 -2.0181,-2.8091 -3.3498,-5.7444 -3.1626,-6.9711 0.3047,-1.9972 0.5961,-1.9101 5.07,1.5147 6.5599,5.0218 8.1476,8.4243 8.1876,17.5471 0.029,6.5955 -0.4062,8.4238 -3.6086,15.1599 -2.0029,4.2129 -7.508,14.0503 -12.2337,21.8609 -4.7256,7.8106 -8.5921,15.0807 -8.5921,16.1559 0,2.81084 -1.8288,5.82334 -3.5351,5.82334 -0.8057,0 -1.4649,-0.467 -1.4649,-1.0377 z m -131.9323,-66.83584 c -1.8679,-3.4902 -1.2265,-10.415 1.4648,-15.8158 2.4104,-4.837 12.226,-15.3107 14.3487,-15.3107 3.1811,0 1.5412,3.0368 -5.4223,10.0414 -6.9123,6.953 -7.7572,8.2059 -7.5173,11.1461 0.6572,8.0553 0.4898,11.1492 -0.6239,11.5299 -0.6502,0.2223 -1.6627,-0.4936 -2.25,-1.5909 z m -13.9849,-10.2911 c -3.3508,-3.0457 -3.5646,-3.0947 -11.0015,-2.5212 -15.5993,1.2029 -21.21,-2.0176 -27.6962,-15.8978 -4.5351,-9.7047 -6.6718,-12.0044 -12.1006,-13.0228 -3.3455,-0.6276 -4.1668,-2.452 -2.3765,-5.2789 1.527,-2.4111 6.0668,-0.318 11.5974,5.3468 2.8747,2.9444 6.1424,7.3076 7.2617,9.696 1.1193,2.3884 2.7893,5.995 3.7111,8.0147 2.5093,5.4984 7.5682,7.22 18.6889,6.3605 6.9363,-0.5361 9.2808,-0.3525 11.7406,0.9195 3.6583,1.8918 6.5415,5.9348 5.7337,8.0401 -0.8167,2.1282 -1.676,1.872 -5.5586,-1.6569 z m 152.5428,-13.5395 c -0.4397,-0.4377 -10.1654,-0.7959 -21.6126,-0.7959 l -20.8131,0 -4.3499,-3.0263 c -5.2188,-3.6308 -9.4822,-10.922 -8.4962,-14.5299 0.3674,-1.3441 1.7748,-3.7846 3.1276,-5.4233 1.9938,-2.4151 2.7013,-2.7379 3.735,-1.7041 1.0338,1.0338 0.8375,2.0361 -1.0363,5.2918 -1.6979,2.9503 -2.1349,4.821 -1.646,7.0469 1.1671,5.3138 4.9598,6.184 29.6472,6.8021 20.0239,0.5013 21.8966,0.7039 24.5,2.6507 1.5503,1.1594 2.8187,2.5094 2.8187,3 0,1.1587 -4.8329,1.7247 -5.8744,0.688 z m -139.3679,-8.0459 c -1.7662,-0.9625 -4.3612,-3.3196 -5.7668,-5.2381 -2.2251,-3.0371 -2.5342,-4.4044 -2.3911,-10.5764 0.1503,-6.4852 -0.1022,-7.4561 -2.9677,-11.4119 -5.0176,-6.9266 -4.5794,-8.6862 5.1865,-20.8271 3.4051,-4.2331 7.6983,-10.059 9.5405,-12.9465 3.7211,-5.8326 6.1409,-6.8069 6.1409,-2.4725 0,3.3165 -1.5891,5.7807 -8.82,13.6768 -8.4849,9.2655 -9.9835,14.7103 -6.0623,22.0264 1.6755,3.1261 2.0046,5.0463 1.5761,9.1971 -0.6551,6.3481 0.9414,8.8343 8.972,13.9714 5.6029,3.5841 6.3601,4.7432 3.7525,5.7438 -2.7426,1.0524 -5.8417,0.6657 -9.1606,-1.143 z m -80.6918,-30.1434 c -0.5661,-0.916 19.0878,-15.3721 26.6954,-19.6354 5.3734,-3.0112 12.7147,-10.4568 17.5283,-17.7773 4.2034,-6.3924 13.5057,-13.906 19.9486,-16.1128 2.3309,-0.7984 11.7809,-2.6607 21,-4.1385 13.0129,-2.086 18.9985,-3.5795 26.7618,-6.6777 12.123,-4.838 17.0536,-5.063 38.5,-1.7569 21.5116,3.3161 32.6459,2.2166 49.1378,-4.8527 10.6823,-4.579 36.7417,-8.7774 38.3481,-6.1782 1.1361,1.8383 -1.3574,2.9902 -6.5109,3.0076 -6.0295,0.02 -26.5764,5.1084 -36.1893,8.9614 -8.0921,3.2436 -15.7657,5.0539 -21.4221,5.0539 -2.2528,0 -3.3636,0.4731 -3.3636,1.4326 0,1.605 -1.1156,2.0309 -9,3.4362 -8.8291,1.5736 -11.1203,2.8721 -17.9978,10.2002 -5.4598,5.8174 -7.0269,6.931 -9.7536,6.931 -1.7867,0 -3.2486,-0.2943 -3.2486,-0.6541 0,-0.3597 1.8156,-2.2081 4.0345,-4.1074 2.219,-1.8994 4.9205,-5.19 6.0033,-7.3125 2.3754,-4.6561 3.1751,-5.0871 13.8198,-7.4484 10.2084,-2.2644 9.1365,-2.8235 -8.3576,-4.3589 -15.2174,-1.3356 -25.0984,-0.4134 -36.0411,3.3635 -3.9673,1.3693 -13.8588,3.6517 -21.9812,5.072 -8.1223,1.4204 -17.1951,3.4906 -20.1617,4.6005 -7.484,2.8002 -17.4149,9.6817 -19.812,13.7286 -5.358,9.0457 -19.9401,21.6411 -36.3682,31.4132 -7.8321,4.659 -10.5019,5.5381 -11.5699,3.8101 z m 102.0139,-29.8602 c -1.2507,-1.2507 -0.472,-3.9928 1.6702,-5.8812 3.2616,-2.8752 7.2883,-4.3652 11.7971,-4.3652 4.6176,0 5.2615,1.5537 1.0292,2.4833 -1.608,0.3531 -5.3972,2.3748 -8.4203,4.4925 -3.0231,2.1177 -5.7574,3.5894 -6.0762,3.2706 z m -75.5798,-21.271 c 0,-0.5636 2.0803,-2.2511 4.6229,-3.75 2.5426,-1.499 7.047,-4.5802 10.0097,-6.8472 6.3748,-4.8778 12.0568,-6.2041 26.5197,-6.1905 11.7324,0.011 13.4259,-0.4712 15.4587,-4.4022 l 1.589,-3.0729 11.15,0.5632 c 12.0585,0.609 14.65,1.1938 14.65,3.3062 0,1.019 -0.829,1.191 -3.25,0.6742 -1.7875,-0.3816 -6.5071,-0.7078 -10.4881,-0.725 -6.6067,-0.029 -7.4577,0.2055 -9.7563,2.682 -3.2643,3.517 -7.2907,4.456 -22.5056,5.2488 -11.0791,0.5774 -12.8978,0.9314 -16,3.1144 -12.1998,8.585 -15.4903,10.4236 -18.655,10.4236 -1.8397,0 -3.345,-0.4611 -3.345,-1.0246 z m -6.6014,-68.4898 c -0.9061,-1.383 -1.875,-4.533 -2.1531,-7 -0.4061,-3.603 -0.2004,-4.4856 1.045,-4.4856 0.9108,0 1.8233,1.2414 2.2114,3.0083 1.1954,5.4426 6.9448,6.5889 12.4981,2.4917 3.9209,-2.8927 6,-3.1908 6,-0.8602 0,2.0627 -2.1584,3.8162 -8.5,6.9052 -6.3956,3.1153 -9.0304,3.1012 -11.1014,-0.059 z m 20.7429,301.94014 c 30.4601,-2.9035 45.9668,-8.1218 63.9159,-21.5091 14.9818,-11.174 20.7456,-18.2314 27.2521,-33.3684 2.7351,-6.36284 3.0375,-8.11794 3.1101,-18.04824 0.044,-6.05 -0.2751,-13.475 -0.7097,-16.5 l -0.7902,-5.5 -9.1343,0.356 c -11.2783,0.4396 -14.6413,-0.534 -24.4074,-7.066 -6.482,-4.3354 -9.7893,-5.7229 -20.793,-8.7227 -11.7111,-3.1927 -14.1738,-3.5378 -23.4549,-3.2862 -12.4061,0.3364 -16.7501,-1.2704 -23.1781,-8.573 -4.5717,-5.1938 -7.2771,-5.6679 -13.1672,-2.3077 -1.8066,1.0306 -7.6088,3.2906 -12.8938,5.0222 -12.2877,4.0261 -13.5484,5.3657 -15.3142,16.274 -2.2623,13.9753 -4.4915,16.5771 -16.0306,18.7102 -13.2474,2.4489 -21.2888,0.6098 -43.2548,-9.8927 -15.3581,-7.3431 -25.319,-14.2053 -34.2176,-23.5733 l -6.9758,-7.3437 -4.5934,5.1091 c -11.7044,13.0181 -18.475,31.083 -18.475,49.2938 0,10.2702 1.5856,17.97344 6.1194,29.72994 4.397,11.4018 9.4304,16.1733 26.8582,25.4602 22.3932,11.933 28.5448,13.4547 65.9928,16.3249 27.3523,2.0963 47.6598,1.9349 74.1415,-0.5893 z m 342.3585,-159.78504 c 2.75,-0.7346 6.9779,-2.3468 9.3954,-3.5827 8.7509,-4.4736 21.7647,-6.919 42.8499,-8.052 10.8651,-0.5838 22.1443,-1.5365 25.0649,-2.1171 13.4463,-2.6732 20.1898,-17.0837 20.1898,-43.1446 0,-12.7456 -0.2307,-14.3928 -3.5635,-25.4362 -4.4824,-14.8525 -7.011,-19.2594 -16.7863,-29.2561 l -7.8498,-8.0275 -17.6777,1.6554 c -21.2021,1.9855 -21.2897,1.9642 -38.3476,-9.3288 -12.7537,-8.4435 -17.9274,-10.5951 -31.1602,-12.9587 -7.7912,-1.3916 -9.3844,-1.9651 -8.4816,-3.053 0.6114,-0.7367 2.294,-1.3761 3.7392,-1.421 2.5537,-0.079 2.5347,-0.1221 -0.6775,-1.5253 -5.7778,-2.5239 -17.3324,-4.523 -29.195,-5.0509 -10.1486,-0.4517 -12.6717,-0.2083 -21.4718,2.0717 -13.3835,3.4674 -22.0066,6.9623 -28.0282,11.3596 l -5,3.6514 4.9229,0.8397 c 4.4007,0.7506 5.5807,0.5159 11.1228,-2.2124 3.5357,-1.7407 7.7943,-3.0522 9.9104,-3.0522 5.2077,0 4.1217,1.9898 -2.4561,4.5 -2.9407,1.1222 -5.4913,2.4813 -5.6679,3.0202 -0.1767,0.5389 5.5776,3.6757 12.7872,6.9706 13.8755,6.3414 18.2541,9.3728 17.2641,11.9525 -0.8833,2.3019 -1.8262,2.0297 -12.0366,-3.4746 -5.1331,-2.7672 -13.9486,-6.6855 -19.5899,-8.7073 -11.8877,-4.2605 -20.8141,-4.7517 -31.5594,-1.7368 -7.2812,2.043 -8.8218,3.4754 -3.738,3.4754 6.949,0 40.9795,12.4138 56.8478,20.7373 8.7524,4.5909 14.9458,11.5334 21.4555,24.0508 10.4189,20.0339 11.5024,29.4706 5.3865,46.9106 -5.9817,17.0571 -8.5893,21.2775 -15.1493,24.5192 l -5.5,2.7179 6.6243,0.032 c 6.9316,0.034 14.0327,-1.895 17.0578,-4.6327 3.0332,-2.745 11.9399,-22.4086 13.5016,-29.808 1.8242,-8.6428 1.1181,-16.3444 -2.3297,-25.4098 -3.2432,-8.5276 -3.8346,-11.1174 -2.5386,-11.1174 1.6133,0 4.7617,4.9582 6.6674,10.5 4.3671,12.6998 2.6646,30.155 -4.6328,47.5 -2.1982,5.225 -4.0763,10.1151 -4.1734,10.8668 -0.1074,0.8319 1.5847,1.8492 4.3234,2.5993 2.475,0.6779 5.85,1.9725 7.5,2.877 3.6986,2.0275 13.9786,2.1731 21,0.2976 z m -17.1998,-9.3399 c -1.9137,-0.3712 -2.0609,-0.7318 -1.1313,-2.772 0.8155,-1.7899 2.6085,-2.7321 7.5715,-3.9788 10.6562,-2.6767 15.1301,-5.4488 17.0827,-10.5847 l 0.9388,-2.4691 -9.7928,0 c -5.386,10e-4 -10.0985,-0.3017 -10.4722,-0.6727 -0.3737,-0.3711 -0.415,-1.4961 -0.092,-2.5 0.5203,-1.616 1.8787,-1.8368 11.8413,-1.9249 10.1115,-0.089 11.788,-0.371 16.519,-2.7746 7.4186,-3.7691 16.4817,-5.9197 21.5554,-5.1147 2.2985,0.3646 7.7792,1.5921 12.1792,2.7277 9.7917,2.527 22.0874,2.6659 32.4265,0.3662 5.9506,-1.3236 7.5872,-1.3988 8.2347,-0.3785 1.3207,2.081 1.0003,2.5668 -2.4112,3.6557 -10.9247,3.4873 -33.9504,3.9277 -54.3506,1.0396 -12.3583,-1.7495 -13.7791,-1.0827 -22.3696,10.498 -3.7045,4.9941 -7.6719,9.9104 -8.8164,10.9252 -4.1457,3.6758 -11.9466,5.3074 -18.9133,3.9558 z m 26.1531,-62.3764 c -1.9653,-3.1799 3.8936,-22.1666 7.5344,-24.4168 2.6485,-1.6368 2.8281,1.3161 0.4745,7.8001 -1.3542,3.7308 -2.4622,8.0835 -2.4622,9.6727 0,6.0077 -3.4534,10.331 -5.5467,6.944 z m 105.5467,46.52 c 17.6002,-6.3225 30.4863,-15.0525 38.7295,-26.2381 8.3437,-11.3221 15.118,-18.2063 17.9156,-18.2063 3.2253,0 2.9525,2.0582 -0.7372,5.5629 -3.9282,3.7313 -13.2789,15.3994 -12.7581,15.9202 1.0891,1.0891 14.2078,-4.5352 18.1906,-7.7988 5.5708,-4.5648 7.6409,-7.4812 10.6106,-14.9477 2.075,-5.2172 6.7663,-10.7366 9.1258,-10.7366 1.1498,0 1.1484,0.2776 -0.017,3.3432 -0.9091,2.391 -0.6171,2.3216 8.75,-2.079 11.7482,-5.5192 23.6236,-13.0876 31.6904,-20.197 10.761,-9.4838 25.8316,-20.1709 33.9993,-24.1098 11.0978,-5.3521 25.6059,-8.9574 36.045,-8.9574 8.9721,0 13.4556,1.1191 13.4556,3.3586 0,1.8185 -3.0904,2.6107 -10.25,2.6277 -4.8382,0.012 -5.75,0.2955 -5.75,1.7912 0,2.3009 2.2551,5.6353 7.5897,11.2225 5.1988,5.445 6.2757,8.1059 7.0665,17.46 0.8215,9.7184 -0.6348,13.6449 -7.8471,21.1583 -7.8583,8.1864 -9.3453,13.7256 -5.0094,18.6608 1.2989,1.4785 2.5253,1.6703 7.2573,1.135 5.0498,-0.5714 6.2231,-0.3343 10.3687,2.0952 4.0843,2.3936 5.2681,2.6427 9.3745,1.9728 2.5849,-0.4217 7.3998,-0.8152 10.6998,-0.8744 l 6,-0.1077 2.7786,-5.4871 c 1.5282,-3.0179 4.2941,-7.0679 6.1465,-9 4.2181,-4.3995 8.5749,-13.0006 8.5749,-16.928 0,-1.6399 -1.1562,-6.6417 -2.5693,-11.115 -4.9225,-15.5825 -5.5515,-20.3817 -6.3523,-48.4699 -0.8293,-29.0846 -1.5125,-33.2695 -6.4997,-39.808 -4.0508,-5.3108 -7.9338,-6.7726 -15.2454,-5.7391 -7.925,1.1202 -11.2728,2.9542 -15.4223,8.4485 -5.0561,6.695 -25.5621,16.7553 -40.911,20.0711 -18.4543,3.9867 -19.3145,4.0484 -29.0102,2.0801 -22.0182,-4.4698 -41.5863,1.8043 -65.4638,20.9894 -11.8874,9.5514 -23.6043,16.1084 -33.5087,18.7522 l -4.5173,1.2058 5.9222,0.5 c 3.2717,0.2762 6.0966,1.0307 6.312,1.6859 0.5288,1.6088 -5.2762,3.1246 -16.7342,4.3695 -10.7621,1.1693 -18.3651,0.5696 -27.9124,-2.2016 -4.1712,-1.2107 -11.4994,-2.1437 -19.9781,-2.5435 l -13.3906,-0.6314 5.6077,7.3603 c 6.0399,7.9276 11.6734,17.7488 11.6734,20.3508 0,1.998 1.1716,2.0053 9.5612,0.06 9.2865,-2.1537 23.7328,-2.1423 27.0349,0.021 1.3905,0.911 2.3421,2.1903 2.1148,2.8427 -0.4047,1.1616 -1.2323,1.1634 -9.0615,0.02 -4.2105,-0.6151 -26.363,2.3943 -27.1639,3.6903 -0.2732,0.442 0.1642,3.6551 0.9719,7.1401 3.9917,17.2214 2.6873,35.3103 -3.5116,48.6986 -1.6201,3.4993 -2.9458,6.4969 -2.9458,6.6613 0,0.6509 11.918,-2.5351 19,-5.0792 z m -4.8395,-21.0389 c 0.253,-1.3139 3.2533,-3.1113 9.8517,-5.902 5.2183,-2.207 12.5209,-5.5675 16.228,-7.4679 4.9845,-2.5551 7.0327,-3.1627 7.8629,-2.3325 1.9516,1.9516 -0.049,3.4057 -13.758,9.9978 -14.8949,7.1626 -20.7861,8.8276 -20.1846,5.7046 z m 206.4565,-16.9614 c -0.3284,-0.8557 0.051,-3.1057 0.842,-5 2.5379,-6.0742 5.6759,-3.4129 3.5547,3.0147 -1.2181,3.6906 -3.3695,4.6621 -4.3967,1.9853 z m 11.8885,-4.8164 c -1.1166,-0.8166 -1.5843,-1.9798 -1.1993,-2.9831 0.7285,-1.8985 8.5536,-2.3252 11.7055,-0.6384 1.3859,0.7418 3.3645,0.4509 7.5275,-1.1067 4.3227,-1.6174 5.9187,-1.8371 6.8041,-0.9367 0.8791,0.894 0.4958,1.7489 -1.5972,3.5622 -3.5824,3.1036 -9.0438,4.0776 -14.5723,2.599 -2.9822,-0.7976 -4.7968,-0.8518 -5.6209,-0.1679 -0.835,0.693 -1.7914,0.59 -3.0474,-0.3284 z m -126.0055,-22.6277 c -0.9277,-1.5011 0.3652,-3 2.5876,-3 3.2521,0 14.0833,-5.9787 19.2706,-10.6371 4.8941,-4.3952 8.6418,-5.6368 8.6418,-2.8629 0,2.9705 -8.7169,9.5587 -19.224,14.5294 -6.4712,3.0614 -10.1992,3.7129 -11.276,1.9706 z m -51.5,-12.8798 c 0,-1.5745 0.938,-1.9477 5.7756,-2.2976 4.5738,-0.3308 6.9363,-1.1882 11.3535,-4.1202 3.0679,-2.0363 5.8689,-3.7024 6.2245,-3.7024 1.6704,0 0.3597,3.9005 -2.1036,6.2599 -3.929,3.7633 -9.3419,5.7401 -15.7178,5.7401 -4.7476,0 -5.5322,-0.2666 -5.5322,-1.8798 z m 51,-5.5323 c 0,-0.8841 1.5891,-1.6755 4.25,-2.1166 16.5313,-2.7404 44.912,-18.9879 49.7571,-28.4851 2.4446,-4.7919 4.9929,-5.313 4.9929,-1.021 0,4.0473 -4.7577,9.2475 -14,15.3019 -8.6485,5.6655 -22.8565,12.7704 -31.4065,15.7054 -7.0166,2.4085 -13.5935,2.7063 -13.5935,0.6154 z m 71.5782,-45.4614 c -1.0192,-1.6492 0.2325,-3.1265 2.6489,-3.1265 6.7873,0 15.174,-2.4596 20.8119,-6.1036 6.8591,-4.4332 7.961,-4.6977 7.961,-1.9106 0,2.5111 -5.7162,6.3593 -13.5656,9.1327 -7.1752,2.5352 -16.8575,3.624 -17.8562,2.008 z m 66.4919,-5.7324 c -2.0018,-3.3927 -2.3476,-3.5651 -5.8488,-2.9154 -2.0467,0.3798 -4.4317,1.3275 -5.3,2.1059 -2.3061,2.0675 -4.9213,1.7691 -4.9213,-0.5615 0,-4.7189 12.0131,-7.2102 17.4836,-3.6258 2.5713,1.6847 4.194,5.6974 3.0516,7.5459 -1.1279,1.8249 -2.2687,1.1737 -4.4651,-2.5491 z m -736.0482,109.0201 c -2.1166,-3.6221 -4.6212,-9.7389 -5.5656,-13.5928 -2.5717,-10.4939 -1.6821,-16.2531 4.438,-28.7328 2.8081,-5.7262 5.1057,-11.2369 5.1057,-12.246 0,-1.009 0.8426,-4.4239 1.8723,-7.5886 1.0298,-3.1647 2.419,-9.3004 3.0872,-13.6348 0.6682,-4.3345 1.8064,-9.8462 2.5293,-12.2482 1.6739,-5.5618 0.3547,-4.7435 -4.5257,2.8074 -7.0814,10.9564 -11.9895,30.3771 -14.5529,57.5839 -0.9437,10.0155 -2.3695,19.1017 -3.5501,22.624 l -1.9731,5.8862 2.7436,2.8638 c 2.3964,2.5013 3.4711,2.8637 8.4917,2.8637 l 5.7481,0 -3.8485,-6.5858 z m 696.8479,-24.2766 c 0.7265,-1.2993 3.7037,-4.9543 6.6161,-8.1222 8.452,-9.1937 8.4005,-14.8826 -0.2426,-26.7891 -2.6855,-3.6994 -6.1316,-8.8638 -7.658,-11.4763 -1.731,-2.9627 -3.4734,-4.75 -4.6307,-4.75 -1.6887,0 -20.8374,6.5496 -21.7153,7.4274 -0.2056,0.2056 0.7815,2.6535 2.1935,5.4399 3.0654,6.0493 3.1429,7.5359 0.6905,13.2556 -3.6662,8.5508 -3.5204,10.0709 1.4325,14.9318 3.3463,3.2841 4.4442,5.12 4.4442,7.431 0,4.2048 2.2865,7.1141 7.8197,9.9498 2.5742,1.3192 5.5803,3.4484 6.6803,4.7315 l 2,2.333 0.5245,-6 c 0.2885,-3.3 1.1188,-7.0631 1.8453,-8.3624 z m -10.3465,4.9358 c -0.7777,-2.4503 1.8784,-8.9065 3.9988,-9.7202 2.8413,-1.0903 3.6927,1.1041 1.5066,3.8832 -1.1157,1.4185 -2.0287,3.7456 -2.0287,5.1713 0,3.0629 -2.5602,3.5531 -3.4767,0.6657 z m 4.0625,-18.0781 c -4.9029,-2.75 -8.9743,-4.8865 -9.0476,-4.7477 -0.073,0.1388 -0.6647,1.4899 -1.3142,3.0024 -0.6496,1.5125 -1.5926,2.75 -2.0955,2.75 -1.5429,0 -2.1238,-2.8822 -1.1154,-5.5343 1.0623,-2.794 4.1419,-4.5008 4.7624,-2.6394 0.2174,0.6524 0.7871,0.944 1.2659,0.6481 1.2716,-0.7859 7.6662,2.1018 11.1548,5.0372 2.436,2.0498 3.6712,2.4163 6.4106,1.9024 2.9407,-0.5517 3.3932,-0.3693 3.3932,1.3677 0,1.75 -1.7551,3.2231 -3.8318,3.216 -0.3675,0 -4.6796,-2.2523 -9.5824,-5.0024 z m -133.0283,-39.4548 c 1.9363,-0.8091 6.0906,-3.6969 9.2316,-6.4174 8.2363,-7.1336 24.2711,-17.6024 34.8859,-22.7763 13.4958,-6.5782 23.4809,-8.3882 45.325,-8.2157 13.0621,0.1031 19.4698,-0.2876 25.2674,-1.5405 10.1484,-2.1933 22.0407,-6.171 27.9826,-9.3595 l 4.75,-2.549 -0.022,-6.091 c -0.025,-7.0046 -2.2837,-12.7441 -6.6019,-16.7775 -4.5968,-4.2935 -7.2583,-4.8719 -14.9825,-3.2558 -6.0611,1.2682 -7.4366,2.0246 -12.3569,6.7958 -3.0452,2.9529 -8.2367,7.0001 -11.5367,8.9939 -10.5155,6.3532 -29.8493,14.4767 -42.2339,17.7454 -9.2668,2.4458 -11.9738,3.5362 -11.8833,4.7867 0.1949,2.6933 -3.8379,2.4305 -11.0742,-0.7218 -3.7447,-1.6313 -8.6086,-3.4567 -10.8086,-4.0563 -5.7676,-1.5722 -18.5117,-1.3502 -26.4751,0.461 -12.0233,2.7347 -29.3626,12.7523 -43.2602,24.9931 -4.0396,3.5581 -4.3997,4.1902 -2.9346,5.1523 5.7457,3.7733 -12.293,7.2835 -27.3301,5.3182 -4.4,-0.5751 -10.925,-1.9378 -14.5,-3.0282 -3.575,-1.0905 -8.4483,-1.9861 -10.8295,-1.9903 -4.8027,-0.01 -23.4292,2.0154 -24.0911,2.6176 -0.2313,0.2105 0.5225,1.3934 1.6752,2.6287 1.1527,1.2354 3.2793,4.6109 4.7259,7.5013 2.1889,4.3738 2.9981,5.1757 4.8248,4.781 1.2071,-0.2608 6.4449,-0.9579 11.6394,-1.5493 8.6652,-0.9864 9.6556,-0.9197 12,0.8079 2.1631,1.594 5.1651,1.9869 19.5553,2.5596 9.35,0.3721 21.5,1.4868 27,2.477 l 10,1.8005 14.2684,-4.8102 c 7.8477,-2.6456 15.8527,-5.4722 17.7891,-6.2812 z m -42.5575,-1.8719 c 0,-1.0277 1.5057,-1.9935 4.25,-2.7262 7.5143,-2.0063 18.0741,-7.5095 24.75,-12.8984 11.9652,-9.6585 18,-12.0679 18,-7.1867 0,1.3932 -0.9362,2.0958 -3.4118,2.5602 -1.9612,0.3679 -7.8074,3.8738 -13.75,8.2457 -11.6244,8.552 -19.0744,12.3837 -25.4817,13.1059 -3.5228,0.397 -4.3565,0.1864 -4.3565,-1.1005 z m 157.5458,-50.4098 c -0.4469,-1.1647 0.096,-2.3601 1.6398,-3.6101 4.0558,-3.2842 16.8144,-0.3444 16.8144,3.8744 0,1.9826 -1.8263,1.8596 -6.3069,-0.4247 -3.9133,-1.9951 -6.8452,-1.825 -8.7827,0.5097 -1.5433,1.8594 -2.5574,1.7542 -3.3646,-0.3493 z m -237.6712,55.4912 c -3.4048,-6.4066 -6.6388,-10.0359 -11.2603,-12.6368 -4.5749,-2.5748 -6.3161,-2.9316 -16.5097,-3.3825 l -11.3954,-0.504 7.3954,4.021 c 7.2782,3.9573 13.1991,7.4152 19.0867,11.1471 3.088,1.9573 7.6133,3.3245 11.5939,3.5028 2.0644,0.092 2.1697,-0.115 1.0894,-2.1476 z"
       id="path3139"
       inkscape:connector-curvature="0" />
  </g>
</svg>
