<?xml version="1.0" encoding="UTF-8" standalone="no"?>
<!-- Created with Inkscape (http://www.inkscape.org/) -->

<svg
   xmlns:dc="http://purl.org/dc/elements/1.1/"
   xmlns:cc="http://creativecommons.org/ns#"
   xmlns:rdf="http://www.w3.org/1999/02/22-rdf-syntax-ns#"
   xmlns:svg="http://www.w3.org/2000/svg"
   xmlns="http://www.w3.org/2000/svg"
   xmlns:sodipodi="http://sodipodi.sourceforge.net/DTD/sodipodi-0.dtd"
   xmlns:inkscape="http://www.inkscape.org/namespaces/inkscape"
   width="900.08936"
   height="451.96805"
   id="svg2"
   version="1.1"
   inkscape:version="0.48.3.1 r9886"
   sodipodi:docname="One-arm-floor-press-1.svg">
  <defs
     id="defs4" />
  <sodipodi:namedview
     id="base"
     pagecolor="#ffffff"
     bordercolor="#666666"
     borderopacity="1.0"
     inkscape:pageopacity="0.0"
     inkscape:pageshadow="2"
     inkscape:zoom="0.7"
     inkscape:cx="536.53998"
     inkscape:cy="193.56434"
     inkscape:document-units="px"
     inkscape:current-layer="layer1"
     showgrid="false"
     fit-margin-top="0"
     fit-margin-left="0"
     fit-margin-right="0"
     fit-margin-bottom="0"
     inkscape:window-width="1855"
     inkscape:window-height="1056"
     inkscape:window-x="65"
     inkscape:window-y="24"
     inkscape:window-maximized="1" />
  <metadata
     id="metadata7">
    <rdf:RDF>
      <cc:Work
         rdf:about="">
        <dc:format>image/svg+xml</dc:format>
        <dc:type
           rdf:resource="http://purl.org/dc/dcmitype/StillImage" />
        <dc:title></dc:title>
      </cc:Work>
    </rdf:RDF>
  </metadata>
  <g
     inkscape:label="Ebene 1"
     inkscape:groupmode="layer"
     id="layer1"
     transform="translate(-165.16897,-760.74644)">
    <path
       style="fill:#000000"
       d=""
       id="path3414"
       inkscape:connector-curvature="0" />
    <path
       style="fill:#000000"
       d=""
       id="path3412"
       inkscape:connector-curvature="0" />
    <path
       style="fill:#000000"
       d="m 198.85659,1208.7081 c -3.79592,-2.1912 -7.41328,-3.984 -8.03856,-3.984 -0.62529,0 -2.90218,-0.9 -5.05977,-2 -2.15759,-1.1 -4.39024,-2.0008 -4.96144,-2.0017 -0.57121,-9e-4 -2.73152,-1.8009 -4.80069,-4 -2.06916,-2.1991 -4.399,-3.9983 -5.17741,-3.9983 -2.46024,0 -5.56046,-5.018 -5.56046,-9 0,-5.3918 2.82771,-8.3024 13.30987,-13.7 7.91447,-4.0754 11.13344,-6.6183 23.19013,-18.319 7.7,-7.4727 16.93841,-15.8853 20.52981,-18.6947 9.20428,-7.2003 14.71067,-13.4091 21.09509,-23.7863 9.58945,-15.5867 14.49847,-25.4863 21.32271,-43 13.67747,-35.1018 19.51195,-46.788 33.9601,-68.02056 3.37603,-4.96131 6.68901,-10.85887 7.36217,-13.10569 1.49726,-4.99743 7.9854,-12.56207 13.57902,-15.83204 5.40985,-3.16255 14.82281,-4.64822 22.53948,-3.55748 6.95191,0.98265 17.06306,5.98092 20.59845,10.18249 1.84081,2.18768 3.25326,2.83829 6.19861,2.85525 9.00087,0.0518 19.15723,7.88752 24.90766,19.21642 1.89861,3.74041 6.29267,9.78321 9.87639,13.58211 l 6.45605,6.8438 42.78722,-7.784 c 23.53298,-4.2812 48.03372,-8.7458 54.44609,-9.9214 l 11.65887,-2.1373 1.05853,-6.16079 c 0.89465,-5.20699 1.63125,-6.66396 4.75775,-9.4108 3.75226,-3.29661 6.07928,-3.85582 13.85855,-3.3304 5.61333,0.37913 6.93088,1.32922 10.50406,7.5745 1.73259,3.02824 3.78135,5.5059 4.55281,5.5059 0.77146,0 35.87909,-6.75 78.01696,-15 42.13787,-8.25 77.02366,-15 77.52397,-15 0.50031,0 0.90965,-1.40938 0.90965,-3.13197 0,-5.14835 3.57045,-9.70328 9.74739,-12.43502 3.02581,-1.33816 6.68375,-2.43301 8.12876,-2.43301 2.08322,0 3.10893,-0.90792 4.95316,-4.38431 3.04341,-5.7369 7.34475,-8.0816 13.54382,-7.38288 4.88092,0.55015 6.48842,1.49256 19.03589,11.15992 l 7.64829,5.89273 75.22134,-14.71369 c 41.37174,-8.09252 77.30249,-15.15695 79.84611,-15.69873 l 4.62475,-0.98505 0.46046,-7.95414 c 0.38462,-6.64411 0.85817,-8.38543 2.87524,-10.57287 4.51627,-4.89771 10.68014,-6.38725 18.00786,-4.35173 2.84198,0.78946 4.15057,2.02241 6.26003,5.89818 1.90822,3.50602 3.16198,4.7849 4.40693,4.49521 14.07278,-3.27464 87.25751,-18.40264 89.02651,-18.40264 5.0897,0 11.2135,6.78809 11.2135,12.4301 0,3.56933 -2.9314,10.46967 -4.8703,11.46433 -0.8964,0.45984 -21.7102,4.56402 -46.253,9.12039 l -44.62309,8.28431 -0.61278,5.86274 c -0.84594,8.09353 -3.83337,13.60279 -8.41402,15.51671 -7.85717,3.28293 -15.80088,-0.51334 -20.7153,-9.89976 l -2.80793,-5.36308 -81.44328,16.1836 c -44.79381,8.90099 -81.85626,16.59658 -82.36101,17.10133 -0.50475,0.50475 -2.10838,5.39109 -3.56362,10.85853 -2.30556,8.66211 -2.65811,11.99888 -2.7408,25.94079 -0.0522,8.8 0.51251,29.0748 1.25492,45.055 1.78049,38.3252 1.31824,42.3779 -6.77835,59.4279 -3.26922,6.8844 -7.1648,16.0292 -8.65684,20.3217 -3.1609,9.0939 -5.48946,12.4109 -10.05042,14.3165 -4.34555,1.8157 -8.25617,1.7415 -12.9921,-0.2466 -3.02655,-1.2705 -5.72829,-1.4924 -12.37212,-1.0158 -4.675,0.3354 -10.07203,1.0668 -11.9934,1.6255 -5.65496,1.6443 -21.67266,1.1754 -32.89438,-0.9629 -8.14537,-1.552 -12.7797,-3.1659 -21.49802,-7.4865 -14.37574,-7.1244 -22.68735,-8.6593 -30.40884,-5.6158 -2.8205,1.1118 -7.28305,3.1445 -9.91678,4.5172 -13.26265,6.9126 -45.21794,10.4597 -58.39533,6.4821 -1.86629,-0.5634 -7.79292,-1.4597 -13.17029,-1.9919 -8.6235,-0.8534 -10.57022,-0.7339 -16.5,1.013 -3.69763,1.0894 -11.22297,2.4788 -16.72297,3.0876 -10.63723,1.1775 -17.5,2.7797 -17.5,4.0857 0,0.4379 -3.32213,2.3726 -7.3825,4.2995 -5.33504,2.5316 -8.29498,4.6937 -10.67258,7.7955 -12.94373,16.8865 -22.6388,20.5435 -56.94491,21.4798 -17.47417,0.4769 -20.40962,0.3148 -28.25576,-1.5603 -11.48429,-2.7445 -14.95419,-4.6616 -22.71535,-12.55 -5.58084,-5.6724 -6.96349,-6.5772 -10.05,-6.5772 -4.28788,0 -5.97889,-1.4539 -5.97889,-5.1405 l 0,-2.7404 -7.17515,2.4404 c -5.57,1.8945 -9.24524,2.4405 -16.42857,2.4405 -9.39185,0 -12.39628,-1.0783 -12.39628,-4.449 0,-0.7184 -0.67472,-1.8661 -1.49939,-2.5505 -1.70289,-1.4133 -1.72276,-1.607 1.5785,15.3887 2.21815,11.4196 2.36033,14.9998 0.78279,19.7115 -4.02618,12.0252 -14.65365,17.1727 -39.3619,19.0653 -9.89699,0.7581 -15.06363,1.6115 -17.62923,2.9119 -5.25748,2.6648 -14.23043,3.8904 -32.37077,4.4216 l -16,0.4685 -6.90167,-3.984 z m 34.07991,-0.4189 c 5.59803,-0.8457 12.48793,-2.4481 15.3109,-3.5609 7.32303,-2.8864 12.00298,-3.7863 25.55001,-4.9128 19.67855,-1.6364 29.20571,-5.8015 33.48362,-14.6385 l 2.31099,-4.7738 -2.68524,-11.0896 c -2.99799,-12.3811 -3.4345,-22.6601 -1.268,-29.8588 1.53306,-5.0939 10.61763,-18.5258 15.78393,-23.3371 1.83455,-1.7084 6.33532,-5.3416 10.00171,-8.0736 8.60507,-6.4121 11.10873,-9.4792 15.36902,-18.8278 4.95322,-10.8691 7.18473,-18.4593 8.93101,-30.3777 1.72663,-11.7844 4.83198,-18.0701 10.18494,-20.6159 5.71871,-2.7197 8.13819,-0.9418 3.79837,2.7912 l -2.66628,2.2934 3.51188,3.5119 c 2.89837,2.8984 3.63786,4.5202 4.23303,9.2838 0.45299,3.6256 0.33535,6.1576 -0.31636,6.8093 -1.21523,1.2153 -3.51776,0.1159 -2.66094,-1.2704 0.32089,-0.5193 -0.12824,-3.3922 -0.99807,-6.3843 -1.49075,-5.128 -4.35508,-8.5335 -7.17744,-8.5335 -1.84679,0 -3.37532,5.6988 -3.37532,12.5841 0,3.4572 -0.43728,7.4358 -0.97173,8.8416 -0.75903,1.9963 -0.53085,3.3031 1.0424,5.9695 3.40325,5.7681 4.03416,9.4596 4.82242,28.2164 0.91887,21.8645 1.57195,23.59 10.10731,26.7047 3.97909,1.4521 7.9879,2.0076 14.4996,2.0095 14.80509,0 25.27954,-3.3161 33.04648,-10.4754 5.1097,-4.71 5.89289,-6.0235 12.07568,-20.2524 l 4.30261,-9.9019 -3.07538,-11.098 c -2.50118,-9.026 -10.13061,-30.1862 -11.32039,-31.3972 -0.16163,-0.1645 -3.2997,0.398 -6.97349,1.25 -9.98339,2.3153 -11.97615,2.0673 -16.5431,-2.0586 -5.03341,-4.5474 -6.6584,-9.7698 -5.03995,-16.1972 1.55601,-6.1795 3.75964,-10.1604 6.10436,-11.0278 1.81094,-0.6699 1.60813,-1.1559 -2.48193,-5.9475 -2.44971,-2.87 -6.39821,-8.8748 -8.77445,-13.3441 -5.16999,-9.72382 -11.95904,-16.38541 -17.68485,-17.35278 -4.61088,-0.77901 -18.63667,3.33986 -24.24255,7.11915 -5.21047,3.51272 -9.35465,9.83443 -11.77538,17.96283 -1.79512,6.0277 -3.73154,9.2043 -12.8006,20.9986 -5.87703,7.6431 -12.13248,15.7843 -13.90099,18.0917 -7.88817,10.2916 -15.97618,28.092 -21.94844,48.3048 -4.39152,14.8628 -7.83942,22.7818 -13.86647,31.8478 -7.32954,11.0252 -12.32007,15.9244 -24.60579,24.1553 -8.20533,5.4972 -13.8024,10.1778 -18.83321,15.7493 -8.50212,9.4159 -12.73849,11.9036 -30.30422,17.7952 -7.18878,2.4111 -13.69768,4.9044 -14.46423,5.5406 -2.22514,1.8467 -1.63451,5.5772 1.24115,7.8392 3.43285,2.7003 4.73743,2.614 6.3616,-0.4208 1.89509,-3.541 5.60251,-5.6758 9.23176,-5.3159 4.49645,0.446 4.85625,2.8093 0.42769,2.8093 -2.61766,0 -4.04766,0.6825 -5.62137,2.6832 -1.16084,1.4758 -1.981,3.3883 -1.82258,4.25 0.15842,0.8617 2.98804,2.9377 6.28804,4.6133 5.22739,2.6543 6.90137,3.015 13,2.8015 3.85,-0.1348 11.58021,-0.9371 17.17824,-1.7829 z m -18.43794,-8.7342 c -4.86212,-3.7368 -5.26147,-4.8309 -1.76335,-4.8309 1.55575,0 3.1024,0.9545 4.1587,2.5667 1.46653,2.2382 2.26937,2.5261 6.27306,2.25 3.55523,-0.2453 4.59129,0.022 4.59129,1.1833 0,1.0679 -1.29884,1.5849 -4.5097,1.7949 -3.80461,0.2489 -5.17265,-0.2145 -8.75,-2.964 z m 69.24675,-24.8519 c -0.34704,-0.5615 0.93482,-1.6752 2.84859,-2.4748 3.98422,-1.6647 7.66436,-5.859 7.66436,-8.7352 0,-1.0787 -0.72263,-4.447 -1.60584,-7.4851 -1.23987,-4.265 -1.35285,-6.0792 -0.49575,-7.9603 1.25783,-2.7606 3.53999,-2.1081 2.78078,0.7951 -0.27227,1.0412 0.13318,4.2529 0.90101,7.1372 2.58448,9.7082 1.36914,15.6847 -3.72523,18.3191 -3.21491,1.6625 -7.46338,1.8676 -8.36792,0.404 z m 104.78311,-52.229 c -1.14315,-1.2375 -2.73108,-3.8357 -3.52872,-5.7737 -2.05892,-5.0025 -8.00943,-30.0417 -7.30642,-30.7447 1.28076,-1.2807 3.56316,3.7061 5.49092,11.9972 2.42403,10.4255 3.95859,14.2895 8.01842,20.1903 1.6806,2.4427 3.05564,4.9226 3.05564,5.511 0,1.8832 -3.58144,1.1456 -5.72984,-1.1801 z m -87.75262,-11.7216 c -2.83098,-4.5807 15.20183,-38.3855 27.35384,-51.2784 3.43197,-3.6412 5.12862,-4.611 5.12862,-2.9316 0,0.4501 -3.7814,5.8476 -8.4031,11.9945 -8.86921,11.796 -16.82811,26.7347 -19.50199,36.6051 -1.5604,5.76 -3.22438,7.7995 -4.57737,5.6104 z m 30.48246,-64.8876 c 0,-1.9454 7.49855,-11.1408 9.08499,-11.1408 2.22718,0 0.50289,3.8834 -3.66317,8.25 -2.4925,2.6125 -4.73207,4.75 -4.97682,4.75 -0.24475,0 -0.445,-0.8366 -0.445,-1.8592 z m 13,-26.0184 c 0,-1.6513 2.63705,-3.0657 7.76756,-4.166 2.82214,-0.6052 7.0045,-2.4574 9.29414,-4.1161 2.80385,-2.031 4.49286,-2.6857 5.17337,-2.0052 2.62843,2.6284 -11.28836,11.1649 -18.20183,11.1649 -2.21828,0 -4.03324,-0.3949 -4.03324,-0.8776 z m -158.06961,166.1403 c 1.88672,-1.2686 8.63672,-3.9263 15,-5.906 15.50895,-4.825 17.57864,-6.0068 24.8521,-14.1907 3.71191,-4.1766 12.09663,-11.364 20.65142,-17.7024 12.64344,-9.3678 15.27345,-11.8345 21.53561,-20.1977 9.52484,-12.7206 11.78711,-17.5184 18.50141,-39.2378 8.70378,-28.1549 11.2825,-32.9627 29.96485,-55.8663 13.3133,-16.3215 15.18708,-19.2611 15.95172,-25.0253 1.32279,-9.97162 12.64908,-22.12749 24.43825,-26.22815 l 3.32576,-1.15681 -3.32576,-3.46339 c -7.31685,-7.61967 -17.65128,-9.98565 -29.5492,-6.76503 -5.277,1.42842 -7.51748,2.67813 -10.72363,5.98153 -2.2291,2.29672 -4.68077,5.93524 -5.44813,8.0856 -0.76737,2.15037 -5.89667,11.55976 -11.39844,20.90975 -14.02502,23.8348 -23.62207,42.6824 -30.05335,59.0217 -3.03549,7.7119 -8.41816,20.1373 -11.9615,27.6122 -12.76849,26.9358 -17.12019,32.6394 -37.87318,49.6389 -7.08054,5.7999 -13.52375,12.0752 -16.34865,15.9225 -5.72732,7.8002 -8.25961,9.7382 -21.09459,16.1441 -5.56871,2.7793 -10.85621,5.7846 -11.75,6.6783 -2.5281,2.5281 -1.95459,5.3113 1.53131,7.4312 l 3.15639,1.9195 4.43628,-4.9342 c 2.98253,-3.3173 5.22515,-4.9342 6.84361,-4.9342 1.32403,0 2.40733,0.45 2.40733,1 0,0.55 -0.86,1 -1.91111,1 -3.0985,0 -7.09758,5.588 -7.03245,9.8267 l 0.0564,3.6733 1.19356,-3.4654 c 0.68584,-1.9913 2.65279,-4.4465 4.62395,-5.7719 z m 86.06961,-100.0369 c 0,-2.5852 3.55866,-9.4143 12.28635,-23.5775 1.98328,-3.2185 4.56862,-8.8435 5.7452,-12.5 2.05253,-6.3788 4.32703,-10.1483 6.12344,-10.1483 1.6128,0 0.8311,4.0942 -1.77245,9.2832 -1.4396,2.8693 -5.89662,11.0668 -9.90447,18.2168 -4.00786,7.15 -7.85123,14.9125 -8.54083,17.25 -1.42102,4.8167 -3.93724,5.7599 -3.93724,1.4758 z m 44.66667,-90.89246 c -1.75239,-1.75238 -0.33297,-2.56089 3.58333,-2.04109 2.3375,0.31024 6.5,-0.0211 9.25,-0.73641 4.34401,-1.12987 5.04571,-1.10337 5.34839,0.20201 0.19162,0.82638 -0.25838,1.88704 -1,2.35702 -1.58627,1.00527 -16.209,1.1912 -17.18172,0.21847 z m 110.35956,182.63066 c 10.95017,-1.3388 22.38425,-4.4462 27.62459,-7.5074 2.40837,-1.4068 6.08029,-5.1286 8.74712,-8.8658 2.52795,-3.5426 5.78129,-7.3733 7.22965,-8.5125 3.50934,-2.7605 5.42852,-10.8338 4.289,-18.0424 -0.9614,-6.0818 -3.21806,-13.2076 -6.61577,-20.8904 -4.25217,-9.6149 0.18761,-7.5082 4.82504,2.2895 3.79512,8.0181 5.19461,15.4679 4.65543,24.7819 -0.2478,4.2807 -0.0526,7.7831 0.43373,7.7831 1.88946,0 6.77666,-3.116 7.75533,-4.9446 1.50382,-2.81 1.25791,-12.7372 -0.48539,-19.5953 -4.24818,-16.7123 -15.33659,-30.9114 -29.48497,-37.7567 -7.88051,-3.8128 -15.86783,-5.9166 -14.58554,-3.8418 0.38696,0.6261 1.48702,1.1384 2.44456,1.1384 2.1993,0 4.14098,1.9029 4.14098,4.0584 0,0.9121 2.475,3.3017 5.5,5.3102 3.025,2.0085 5.5,4.3611 5.5,5.2281 0,1.1952 -1.01477,0.83 -4.197,-1.5102 -7.40531,-5.4459 -9.20826,-3.2143 -3.30085,4.0857 9.07637,11.216 11.18584,16.182 7.99785,18.8278 -1.73851,1.4428 -1.63957,1.6107 -1.94509,-3.2999 -0.18028,-2.8975 -1.19398,-4.7974 -4.26856,-8 -5.33424,-5.5565 -9.26053,-12.5717 -9.39592,-16.788 -0.10929,-3.4038 -0.11155,-3.4021 -0.9249,0.7034 -0.44844,2.2636 -3.52442,9.5199 -6.83552,16.1251 -6.2794,12.5267 -10.29714,17.2004 -18.35868,21.3561 -6.09253,3.1407 -16.55957,5.0595 -28.27132,5.1827 -10.02521,0.1054 -11.54267,-0.1305 -17.1238,-2.6618 -3.57548,-1.6217 -6.66276,-3.7846 -7.41898,-5.1976 -2.76941,-5.1747 -4.64334,-1.2509 -2.03518,4.2615 2.07798,4.3918 3.59128,17.8832 2.10869,18.7995 -0.53465,0.3304 -1.25909,-0.6551 -1.60986,-2.1901 -0.35077,-1.535 -1.1725,-5.0131 -1.82608,-7.7291 l -1.18833,-4.9382 -1.75015,3.6882 c -0.96258,2.0285 -2.17903,3.6882 -2.70323,3.6882 -1.58649,0 -1.07379,-3.8431 1.0745,-8.0541 2.35215,-4.6106 1.38831,-7.9312 -2.31276,-7.9679 -6.07631,-0.06 -16.34546,-8.171 -14.94992,-11.8078 0.37386,-0.9742 0.16574,-1.2454 -0.59496,-0.7753 -2.23482,1.3812 -1.13953,4.5725 4.32243,12.5939 3.97155,5.8326 6.23273,10.5393 8.16617,16.9982 5.45835,18.2343 20.78649,31.0305 40.56772,33.8666 8.8877,1.2743 24.86555,1.3249 34.79997,0.1104 z m 24.21542,-38.214 c -1.15883,-1.2375 -3.0178,-4.3794 -4.13105,-6.982 -2.69124,-6.2917 -5.99032,-10.6409 -9.42439,-12.4242 -2.71984,-1.4124 -3.19133,-3.3421 -0.99543,-4.0741 1.69705,-0.5657 9.78243,8.1352 13.22016,14.2265 1.72955,3.0646 4.25885,6.0796 5.62066,6.7001 2.2469,1.0238 2.83161,0.743 6.3186,-3.0341 2.7079,-2.9332 4.65076,-4.1622 6.57951,-4.1622 3.26086,0 3.02969,1.9382 -0.43916,3.6822 -1.29333,0.6502 -3.82235,2.7877 -5.62005,4.75 -3.90397,4.2614 -7.92635,4.7377 -11.12885,1.3178 z m -98.24165,17.797 c 0,-1.1771 -2.40555,-5.547 -3.05353,-5.547 -1.12971,0 -1.95088,2.8249 -1.3081,4.5 0.50413,1.3137 4.36163,2.2397 4.36163,1.047 z m -16.5,-4.0591 c 2.75,-0.9141 6.70687,-2.8224 8.79303,-4.2408 3.39164,-2.3059 3.72442,-2.9052 3.14465,-5.663 -0.97953,-4.6593 -1.80309,-4.961 -7.08146,-2.5941 -2.67092,1.1977 -8.00005,3.3242 -11.84252,4.7256 -8.22128,2.9983 -11.5137,4.9805 -11.5137,6.9316 0,3.5743 9.04014,3.9851 18.5,0.8407 z m -20.08927,-2.6549 c 0.51454,-2.343 1.70947,-3.0426 9.83747,-5.7595 5.08849,-1.7009 11.66988,-4.4791 14.62532,-6.1738 4.86775,-2.7913 5.22672,-3.2281 3.81389,-4.6409 -1.41283,-1.4128 -2.67156,-0.9424 -13.37352,4.9976 -6.49764,3.6065 -13.50139,7.2512 -15.56389,8.0994 -2.0625,0.8482 -3.75,2.2079 -3.75,3.0217 0,1.692 3.30303,5.3498 3.61789,4.0064 0.11394,-0.4862 0.47072,-2.0841 0.79284,-3.5509 z m 1.71443,-7.2337 c 11.84901,-5.4639 23.92782,-13.1464 22.66108,-14.4131 -1.26982,-1.2698 -4.40429,0.1563 -12.78624,5.8176 -3.025,2.0431 -8.044,4.9152 -11.15333,6.3824 -3.10933,1.4671 -5.90771,3.3304 -6.21861,4.1407 -0.73906,1.9259 -1.01187,1.996 7.4971,-1.9276 z m 1.37484,-5.7758 c 3.85,-2.0131 7.9,-4.3781 9,-5.2557 2.23234,-1.781 -12.85148,5.9585 -16,8.2096 -2.79137,1.9958 -1.10781,1.2853 7,-2.9539 z m 186.88771,2.106 c 5.98825,-0.6054 13.52963,-1.9447 16.75864,-2.9763 5.12791,-1.6382 6.91391,-1.7421 14.11228,-0.821 4.53275,0.5799 10.88458,1.7264 14.11517,2.5476 9.40231,2.3901 19.16163,2.7103 29.2173,0.9587 10.21692,-1.7796 23.41661,-6.0222 30.90889,-9.9345 l 5,-2.6109 -4.25,-0.047 c -5.01714,-0.055 -5.52204,-1.4075 -1.10078,-2.9487 7.88476,-2.7487 22.22678,-0.335 38.85079,6.5382 24.11014,9.9684 26.17444,10.6126 35.6671,11.129 6.06472,0.33 12.97191,-0.087 20.40982,-1.2325 11.49915,-1.7708 21.15164,-1.5338 27.50392,0.6754 6.78069,2.3582 11.73149,-1.9376 13.49309,-11.708 0.72133,-4.0007 2.52512,-8.3325 5.41336,-13 2.66551,-4.3076 5.92293,-11.8969 8.46895,-19.7315 l 4.13738,-12.7314 -0.35883,-16.2685 c -0.19735,-8.9477 -0.97559,-26.8013 -1.72942,-39.6746 -1.73979,-29.71073 -0.41592,-41.72918 7.15377,-64.94411 2.57078,-7.88415 1.98977,-9.4461 -5.70174,-15.3284 -11.38118,-8.70403 -13.52499,-9.82138 -18.84388,-9.82138 -3.74152,0 -5.56181,0.54224 -7.29907,2.17431 -4.02865,3.78473 -3.04007,4.71393 5.3553,5.03363 5.50682,0.2097 7.80113,0.68883 8.13565,1.69903 0.38908,1.17494 -1.34062,1.31166 -10.48866,0.82906 -6.02501,-0.31784 -11.54551,-0.21267 -12.26778,0.23371 -1.99836,1.23505 2.34733,2.32177 6.04067,1.51057 3.53434,-0.77627 6.91037,1.58324 6.91037,4.82967 0,1.96992 -0.0317,1.97135 -2.10611,0.095 -1.37232,-1.24128 -3.72407,-1.94825 -6.75,-2.02916 -2.55414,-0.0683 -6.77258,-0.46332 -9.3743,-0.87784 -6.06349,-0.96607 -9.3932,0.97874 -10.3429,6.04107 -0.81258,4.33146 -0.55363,4.63633 3.2859,3.86842 1.98633,-0.39726 2.98985,-1.17565 2.90972,-2.25694 -0.21871,-2.95146 4.83612,-2.60624 8.39467,0.57333 4.20351,3.75583 5.01088,9.80488 2.18219,16.34953 -1.08718,2.51537 -2.54239,7.1012 -3.2338,10.19073 -1.70006,7.59668 -0.30174,10.82814 6.69614,15.47447 3.29706,2.1891 5.33849,4.2625 5.33849,5.422 0,1.5033 -0.49825,1.7524 -2.5,1.25 -2.40817,-0.6044 -2.50064,-0.449 -2.51736,4.231 -0.0186,5.2032 -2.22953,16.94 -4.11762,21.8584 -0.63341,1.65 -3.8389,8.7535 -7.12331,15.7855 -6.97156,14.9264 -8.28444,22.1612 -7.32824,40.3833 0.61315,11.6849 0.25138,14.3312 -1.95919,14.3312 -0.83314,0 -1.56897,-1.7784 -1.96538,-4.75 -0.3485,-2.6125 -1.10944,-5.9966 -1.69098,-7.5203 -2.65593,-6.9586 -12.69424,-11.0592 -27.29792,-11.1512 -10.26653,-0.065 -12.94739,0.9111 -29.87707,10.8747 -6.40503,3.7696 -10.30313,5.4924 -11.42297,5.0486 -2.04968,-0.8123 -2.15605,-0.7244 12.05142,-9.956 l 9.75138,-6.3362 -3.70575,-3.2537 c -6.06646,-5.3264 -13.58025,-8.2731 -19.64044,-7.7025 -2.83611,0.267 -5.94029,0.816 -6.89815,1.2198 -2.79475,1.1784 -3.53603,-2.378 -0.90874,-4.3598 2.15,-1.6218 2.13088,-1.6549 -3.48231,-6.0389 -7.59231,-5.9296 -18.675,-11.2079 -31.36738,-14.939 -5.775,-1.6977 -15,-5.3566 -20.5,-8.131 -6.29165,-3.1737 -12.03959,-5.3252 -15.5,-5.8019 -5.30749,-0.7311 -5.60633,-0.6459 -8.5378,2.4348 -5.56934,5.8527 -14.3345,5.7317 -21.37568,-0.2953 l -4.23894,-3.6284 -8.17379,0.6062 c -8.95092,0.6637 -20.65975,3.612 -26.81379,6.7515 -2.5338,1.2927 -5.16394,3.9282 -7.38462,7.3996 -6.16958,9.6446 -21.86701,20.2234 -35.88388,24.1827 -7.46123,2.1076 -9.5915,3.1001 -9.5915,4.4688 0,3.0403 1.7245,2.9992 4.83906,-0.1154 1.6539,-1.6539 3.79515,-3.0071 4.75833,-3.0071 1.54645,0 1.49698,0.2707 -0.42308,2.3145 -1.19587,1.2729 -2.17431,2.7545 -2.17431,3.2923 0,0.5379 3.9375,2.7367 8.75,4.8862 6.88107,3.0735 10.16197,5.3072 15.3606,10.4576 l 6.61059,6.5494 16.13582,0 c 11.43438,0 16.13687,0.333 16.13941,1.143 0.008,2.4233 -8.13614,3.1121 -16.86335,1.4263 -4.4987,-0.869 -11.13307,0.2797 -11.13307,1.9276 0,0.4966 1.58267,3.5129 3.51704,6.703 4.80856,7.9299 6.48296,14.154 6.48296,24.0982 0,8.2591 0.047,8.4226 2.25,7.8337 1.2375,-0.3308 7.14947,-1.0968 13.13772,-1.7023 z m 218.07335,-4.9925 c -1.60226,-2.5925 7.97103,-7.937 14.21708,-7.937 3.71899,0 2.68504,1.5761 -1.92814,2.9392 -2.3375,0.6906 -5.68248,2.3369 -7.43328,3.6582 -3.60735,2.7226 -3.94356,2.8154 -4.85566,1.3396 z m -200.09574,-4.7191 c 1.08589,-1.757 15.30918,-7.2176 18.81515,-7.2235 4.78136,-0.01 11.00211,-1.8927 13.31952,-4.0353 1.1,-1.017 2.86304,-3.4575 3.91786,-5.4234 1.91027,-3.5602 1.90947,-3.5821 -0.20395,-5.5511 -1.16699,-1.0872 -2.39345,-3.666 -2.72547,-5.7307 -1.24797,-7.7606 -1.36543,-7.9793 -4.63556,-8.6334 -1.88254,-0.3765 -4.67996,-2.2668 -6.87815,-4.6479 -2.5144,-2.7236 -4.23046,-3.8117 -5.33991,-3.386 -0.90635,0.3478 -1.63482,0.1341 -1.63482,-0.4796 0,-0.6089 1.56,-1.107 3.46667,-1.107 2.65334,0 4.31981,0.8531 7.10306,3.6364 l 3.6364,3.6364 6.8985,-0.5784 c 3.79417,-0.3181 7.36964,-0.8695 7.94549,-1.2254 1.77443,-1.0967 -1.02659,-3.469 -4.09584,-3.469 -3.74119,0 -8.53862,-4.1999 -10.03244,-8.7827 -1.33096,-4.0833 -2.7173,-5.4553 -4.7554,-4.7061 -0.75912,0.279 -1.15418,-0.049 -0.91713,-0.7605 0.59321,-1.7816 3.57653,-2.1401 5.37674,-0.6461 0.84148,0.6984 2.62357,3.4279 3.9602,6.0656 2.78948,5.5047 5.08603,6.4984 12.23466,5.2936 7.63847,-1.2874 13.44286,-1.1247 13.95655,0.3911 0.32745,0.9663 -0.1218,1.1706 -1.56605,0.7122 -1.68401,-0.5345 -11.21141,1.1019 -11.21141,1.9256 0,0.1405 1.16347,2.337 2.58549,4.8813 2.43929,4.3644 2.821,4.6235 6.75,4.5824 2.29048,-0.024 6.11425,-0.4203 8.49726,-0.8808 3.77112,-0.7288 4.67848,-0.5398 7,1.4584 1.46699,1.2627 2.32225,2.6416 1.90058,3.0642 -0.42166,0.4226 -1.29575,0.2393 -1.94241,-0.4073 -0.83238,-0.8324 -4.02846,-0.9888 -10.9441,-0.5356 l -9.76836,0.6402 -2.85107,-3.0521 c -2.77388,-2.9695 -2.98083,-3.0224 -7.64451,-1.9552 -2.63639,0.6033 -5.02051,1.6886 -5.29804,2.4119 -1.03541,2.6982 0.82138,8.3234 3.279,9.9336 2.31203,1.5149 2.80578,1.4783 7.70326,-0.5711 2.8781,-1.2045 7.3704,-2.4489 9.9829,-2.7656 3.96905,-0.481 4.75,-0.3061 4.75,1.0637 0,1.1808 -0.90902,1.642 -3.25,1.649 -5.26833,0.016 -12.97708,4.238 -17.31609,9.4843 -8.33362,10.076 -8.39704,10.1199 -15.5778,10.7905 -3.64792,0.3406 -9.27038,1.598 -12.49435,2.7941 -6.95961,2.582 -12.92785,3.6463 -11.99643,2.1393 z m 159.13468,-12.3017 c -2.75,-0.4675 -10.11483,-2.6338 -16.3663,-4.8141 -8.86286,-3.0911 -11.90564,-3.7591 -13.8151,-3.0332 -3.55653,1.3522 -4.3186,1.167 -4.3186,-1.0499 0,-1.2606 0.87848,-2.2014 2.41603,-2.5873 2.30746,-0.5792 4.96458,0.018 26.49191,5.9538 13.56497,3.7402 23.0084,4.2931 30.84692,1.8059 6.43704,-2.0425 9.43798,-1.268 5.69411,1.4695 -4.44403,3.2496 -18.90213,4.3032 -30.94897,2.2553 z M 527.288,1109.1406 c -4.55087,-1.9739 -7.02975,-4.2912 -7.02975,-6.5715 0,-2.6112 1.66429,-2.287 3.62545,0.7061 2.13771,3.2625 6.45787,5.5013 9.22133,4.7787 1.54855,-0.405 2.15322,-0.1091 2.15322,1.0535 0,2.0417 -3.30794,2.0554 -7.97025,0.033 z m 13.47025,-8.5835 c -2.72282,-1.506 -6.5,-4.9968 -6.5,-6.0073 0,-1.6231 2.43568,-0.7825 5.0837,1.7545 1.63545,1.5668 4.3079,2.7967 6.80472,3.1316 2.26137,0.3033 4.11158,0.9423 4.11158,1.4198 0,1.2409 -7.12121,1.017 -9.5,-0.2986 z m -43.5,-13.1879 c -0.90653,-1.9008 -3.32413,-4.1342 -6.11053,-5.6451 -7.27484,-3.9447 -7.88947,-4.7243 -7.88947,-10.0074 0,-3.9514 0.41753,-5.0362 2.45135,-6.3688 1.34824,-0.8834 3.59824,-2.843 5,-4.3548 1.40176,-1.5117 2.54865,-2.3933 2.54865,-1.9591 0,2.038 -3.08987,6.4002 -5.41469,7.6444 -5.43825,2.9105 -2.20811,9.0189 8.16469,15.4399 3.11103,1.9258 4.25,3.2817 4.25,5.0593 0,3.6428 -1.31404,3.7267 -3,0.1916 z m 21.66667,1.6882 c -1.58518,-1.5852 -0.34547,-3.5674 4.33333,-6.9288 4.05566,-2.9137 5,-4.1485 5,-6.5381 0,-3.6577 2.96605,-9.583 6.40268,-12.7907 4.76731,-4.4498 3.22187,-8.3366 -5.39636,-13.5719 -6.64095,-4.0341 -8.0085,-6.6701 -5.98939,-11.5447 1.99379,-4.8134 3.21372,-4.68 2.47137,0.2704 -0.61247,4.0842 -0.42802,4.6379 2.28401,6.8567 1.62265,1.3276 5.04404,3.6441 7.60308,5.1477 2.55905,1.5036 5.14195,3.8074 5.73978,5.1195 0.96496,2.1179 0.51552,3.0948 -4.00392,8.7034 -3.02118,3.7493 -5.35264,7.7662 -5.73472,9.8805 -0.94063,5.2051 -2.74309,8.2577 -7.31467,12.3878 -4.41352,3.9874 -4.41513,3.9883 -5.39519,3.0082 z m 97.33333,-4.5023 c -2.43895,-0.6889 -6.33173,-3.9205 -12.84082,-10.6598 -12.26266,-12.6964 -15.83861,-17.1712 -13.72197,-17.1712 1.54424,0 6.67952,4.8202 16.85605,15.8217 8.06314,8.7167 14.44536,10.6894 24.59062,7.6008 3.65711,-1.1134 2.2239,1.7081 -1.94343,3.8259 -3.78078,1.9214 -7.59293,2.093 -12.94045,0.5826 z m -156,-8.6903 c 0,-2.508 3.35006,-4.3774 11,-6.1384 7.0656,-1.6264 7.6817,-2.0307 5.51256,-3.6168 -1.18738,-0.8682 -3.34347,-1.1116 -6.40149,-0.7225 -4.40925,0.5609 -4.53645,0.5081 -2.90614,-1.2074 1.52435,-1.604 2.26575,-1.6676 7,-0.6001 2.91229,0.6567 5.91069,1.5797 6.6631,2.0512 2.31689,1.4518 -1.88371,4.6038 -9.49584,7.1254 -3.7797,1.252 -7.88469,2.9337 -9.12219,3.7372 -2.0815,1.3513 -2.25,1.3043 -2.25,-0.6286 z m 49.17366,-2.6712 c -1.27948,-1.2757 -4.07873,-2.6156 -6.22056,-2.9774 -5.74527,-0.9707 -8.9531,-3.8837 -8.9531,-8.1304 0,-4.1746 1.19048,-6.6913 5.36999,-11.3522 2.2035,-2.4573 2.38999,-2.867 0.63001,-1.3843 -3.03843,2.5599 -7.18629,3.4278 -12.79003,2.6761 -6.40259,-0.8587 -5.04672,-1.9493 3.19879,-2.5729 4.07481,-0.3082 8.23731,-0.9874 9.25,-1.5093 1.01268,-0.5218 2.39706,-0.7494 3.07639,-0.5056 1.54509,0.5545 -0.47769,4.8385 -3.63277,7.6939 -2.47284,2.2378 -2.7218,6.2633 -0.57676,9.3257 0.83909,1.198 4.21409,3.1584 7.5,4.3565 5.00199,1.8238 5.97438,2.5635 5.97438,4.5444 0,2.7788 0.13337,2.7865 -2.82634,-0.1645 z m 15.23301,-10.9853 c -0.86083,-3.4298 -4.48652,-6.0635 -10.45225,-7.5925 -2.74672,-0.704 -5.88512,-2.1101 -6.97423,-3.1248 -2.5849,-2.4082 -2.57074,-7.7464 0.0293,-11.0519 2.7947,-3.5528 10.87333,-7.8787 13.94924,-7.4694 2.19339,0.2919 1.77847,0.6906 -3.03108,2.9127 -5.78279,2.6717 -9.92767,6.8067 -9.92767,9.904 0,1.9744 4.4552,5.9377 6.6747,5.9377 3.48181,0 9.36193,4.1519 10.81904,7.6393 1.75953,4.2111 1.87218,5.3607 0.52531,5.3607 -0.53952,0 -1.26509,-1.1321 -1.61238,-2.5158 z m -51.37487,-1.1453 c -0.0178,-1.2131 1.31782,-3.2967 3.04493,-4.75 4.09961,-3.4496 6.17015,-3.3219 2.63103,0.1622 -1.53573,1.5119 -3.43392,3.6489 -4.21819,4.7489 -1.41199,1.9804 -1.42627,1.9788 -1.45777,-0.1611 z m 96.99061,-0.3039 c -0.81267,-0.5139 -3.36603,-0.6755 -5.67413,-0.3591 -6.21295,0.8515 -11.34828,-0.3451 -11.34828,-2.6445 0,-1.0329 -1.18099,-3.2815 -2.62443,-4.9969 -4.39184,-5.2194 -1.47361,-4.8831 3.16489,0.3647 l 4.33035,4.8992 6.14356,-0.6421 c 6.46414,-0.6756 9.98563,0.3396 9.98563,2.8789 0,1.6606 -1.78681,1.8852 -3.97759,0.4998 z m -84.02241,-13.8125 c 0,-2.6406 2.70551,-6.0192 6.3107,-7.8806 l 3.1893,-1.6467 -3.75,4.1553 c -2.0625,2.2854 -3.75,4.829 -3.75,5.6524 0,0.8234 -0.45,1.4971 -1,1.4971 -0.55,0 -1,-0.7999 -1,-1.7775 z m 263.00001,-83.17544 c 0,-0.52412 0.51616,-2.08579 1.14702,-3.47038 0.8853,-1.94301 0.85736,-2.86647 -0.12244,-4.04706 -1.05178,-1.26731 -0.98758,-1.52961 0.37441,-1.52961 0.90414,0 2.14807,1.10657 2.7643,2.45904 0.89722,1.96918 0.78876,2.9652 -0.54449,5 -1.66095,2.53492 -3.6188,3.39407 -3.6188,1.58801 z m 11,-3.14276 c 0,-0.60264 0.7875,-2.4404 1.75,-4.08392 1.74493,-2.97955 1.74131,-2.99519 -1.25,-5.39932 -2.05538,-1.65192 -2.49144,-2.41268 -1.38486,-2.41608 2.21237,-0.007 6.88486,3.80542 6.88486,5.61727 0,2.52509 -2.97674,7.37776 -4.52568,7.37776 -0.81088,0 -1.47432,-0.49307 -1.47432,-1.09571 z M 335.59942,1125.284 c 1.64395,-1.2623 1.70349,-1.7945 0.55587,-4.9681 -1.12913,-3.1226 -1.05226,-4.0123 0.63275,-7.3231 1.05493,-2.0728 2.07978,-4.1062 2.27747,-4.5187 1.04363,-2.1778 -2.49647,-0.041 -9.75456,5.8886 -6.0464,4.9394 -9.14261,8.3786 -12.09656,13.4365 -6.29866,10.7848 -6.36362,10.7326 5.64113,4.5309 5.99651,-3.0978 11.73126,-6.2685 12.7439,-7.0461 z m 23.73744,-3.1006 2.97929,-1.5406 -0.61035,-16.2094 c -0.48442,-12.865 -1.03016,-17.2925 -2.64509,-21.4593 -1.1191,-2.8875 -2.39141,-5.25 -2.82735,-5.25 -0.43594,0 -2.49541,4.3875 -4.57661,9.75 -2.0812,5.3625 -5.31213,11.6744 -7.17985,14.0264 -3.0878,3.8885 -3.2971,4.5597 -2.30725,7.3992 0.59874,1.7176 1.08861,4.2974 1.08861,5.733 0,2.6628 1.24589,3.8041 7.96144,7.293 4.20102,2.1826 4.38364,2.1884 8.11716,0.2577 z m 353.82457,-58.2411 c 0.65507,-2.355 4.50251,-12.705 8.54985,-23 4.04734,-10.295 7.87036,-20.6377 8.49561,-22.9837 1.43328,-5.3779 0.15579,-10.4723 -3.61234,-14.4054 -2.32204,-2.4237 -2.82219,-3.97371 -3.28749,-10.18859 -0.47723,-6.37414 -0.95487,-7.79102 -3.66266,-10.86501 l -3.11387,-3.53498 -79.28578,15.86272 c -43.60719,8.72446 -79.39579,15.98286 -79.53022,16.12976 -0.13444,0.1468 -0.40794,3.9795 -0.60777,8.517 -0.35576,8.0778 -0.31469,8.25 1.96776,8.25 3.62609,0 16.25456,4.5326 26.2166,9.4097 4.97397,2.4351 10.87195,4.7363 13.10661,5.1139 3.80613,0.643 4.25243,0.4566 7.0585,-2.9476 3.86566,-4.6897 8.5749,-7.0351 18.05966,-8.9942 9.60893,-1.9848 15.87305,-1.9898 27.1233,-0.022 22.26775,3.895 35.56951,14.483 40.07673,31.9003 0.84829,3.278 1.54234,8.1577 1.54234,10.8436 0,3.8968 0.3709,4.9805 1.83571,5.3636 1.00965,0.264 5.17215,1.92 9.25,3.6799 l 7.41429,3.1998 0.60606,-8.5235 c 0.33333,-4.6879 1.14203,-10.4503 1.79711,-12.8053 z m -33.32138,13.7818 9.41821,0 0,-2.6057 c 0,-4.3332 -2.99896,-14.637 -5.52831,-18.9941 -1.309,-2.255 -5.03553,-6.5584 -8.28117,-9.5633 -6.0142,-5.5681 -11.66688,-8.203 -26.64949,-12.4222 -7.32976,-2.0641 -24.49995,-1.4733 -31.77731,1.0935 -4.56808,1.6111 -9.76373,6.3341 -9.76373,8.8753 0,0.6766 3.2625,2.7781 7.25,4.6702 3.9875,1.892 9.44203,4.6994 12.12117,6.2386 2.67914,1.5393 5.04281,2.6271 5.25259,2.4173 0.57552,-0.5755 -3.43608,-11.7742 -5.16056,-14.4061 -0.83012,-1.2669 -2.39893,-2.3035 -3.48625,-2.3035 -1.31028,0 -1.97695,-0.6744 -1.97695,-2 0,-2.9728 2.98459,-2.4738 6.84554,1.1446 3.56527,3.3413 5.87949,7.9538 8.48,16.9017 1.91596,6.5925 4.60128,9.357 10.64924,10.9634 5.31539,1.4117 14.52982,5.9353 18.02827,8.8504 1.37333,1.1444 3.09626,1.869 3.82875,1.6103 0.73248,-0.2587 5.56998,-0.4704 10.75,-0.4704 z m -232.1341,-11.5284 c 12.03921,-3.1358 29.91601,-15.055 33.3085,-22.2082 0.95909,-2.0223 3.7688,-5.2188 6.2438,-7.1033 4.26321,-3.2461 4.34214,-3.3929 1.5,-2.7882 -1.65,0.3511 -15.51974,3.2933 -30.82165,6.5382 -15.30191,3.2449 -28.06609,6.1443 -28.36487,6.4431 -0.29877,0.2988 0.84975,3.8893 2.55228,7.979 1.70253,4.0896 3.54309,8.6129 4.09012,10.0518 1.17732,3.0965 3.08559,3.2772 11.49182,1.0876 z M 411.23421,1042.31 c 1.4659,-5.2357 0.29728,-9.9193 -3.64359,-14.6028 -1.93543,-2.3001 -2.88695,-2.7567 -4.2381,-2.0335 -2.26391,1.2116 -4.39668,8.397 -3.58684,12.0842 0.65943,3.0024 6.57752,8.9662 8.89742,8.9662 0.73438,0 1.89138,-1.9863 2.57111,-4.4141 z m 61.82483,-9.0347 c 29.86544,-6.3532 55.40294,-11.5512 56.75,-11.5512 1.51041,0 2.44921,0.575 2.44921,1.5 0,0.825 -0.45,1.5 -1,1.5 -1.88496,0 -0.99955,2.6262 1.75,5.1907 3.50282,3.2671 7.05189,5.0993 8.67269,4.4773 2.33734,-0.8969 3.8471,-9.2029 3.34354,-18.3947 -0.67043,-12.2376 -3.83093,-21.11708 -9.84254,-27.65278 l -4.70991,-5.12051 -2.19951,1.98881 c -2.77382,2.5081 -3.58741,4.10365 -4.40498,8.63872 -0.56676,3.1438 -0.37024,3.70172 1.47373,4.18393 6.67656,1.74595 -0.71467,3.55243 -56.66003,13.84873 -31.85764,5.863 -58.04306,10.7005 -58.18983,10.75 -0.14676,0.049 0.86574,2.3248 2.25,5.0566 1.93328,3.8151 2.51685,6.4972 2.51685,11.5673 0,5.8163 0.20795,6.5393 1.75,6.0845 0.9625,-0.2839 26.18535,-5.7142 56.05078,-12.0674 z m 77.95632,-3.8042 c 3.71392,-7.5304 3.37026,-18.9086 -0.92221,-30.5336 -3.35575,-9.08815 -6.56025,-13.922 -10.03149,-15.13208 -5.4005,-1.88262 -6.22626,-1.37254 -3.33691,2.06125 7.20693,8.56494 10.94732,21.46863 10.24908,35.35743 -0.24886,4.95 -0.81755,10.1211 -1.26376,11.4913 -0.79583,2.4438 -0.76498,2.461 1.61844,0.898 1.33636,-0.8764 2.99544,-2.7404 3.68685,-4.1423 z m -25.50711,-2.4093 c -0.6875,-0.2774 -1.8125,-0.2774 -2.5,0 -0.6875,0.2774 -0.125,0.5044 1.25,0.5044 1.375,0 1.9375,-0.227 1.25,-0.5044 z m 116.6757,-37.28786 c 46.95606,-9.32259 85.81346,-17.38898 86.34978,-17.9253 0.53788,-0.53788 0.67443,-2.57807 0.30452,-4.54983 -0.50507,-2.69226 -1.16705,-3.5747 -2.68165,-3.5747 -2.04377,0 -171.16329,32.95958 -171.68049,33.45868 -0.22121,0.21347 1.99319,9.54131 2.26507,9.54131 0.0375,0 38.48671,-7.62757 85.44277,-16.95016 z m 84.00402,-12.16116 c 0.0387,-0.33623 -1.07369,-0.39264 -2.4719,-0.12536 -2.44873,0.46811 -2.47762,0.55732 -0.78597,2.42657 1.67721,1.8533 1.78842,1.85894 2.4719,0.12536 0.39363,-0.99838 0.74732,-2.09034 0.78597,-2.42657 z m 136.94377,-31.9643 c 56.30502,-11.26279 85.71036,-16.74053 86.36287,-16.08802 1.61443,1.61443 -0.0875,3.11621 -4.29373,3.78882 -2.16844,0.34674 -3.94262,0.93483 -3.94262,1.30686 0,1.53002 5.95876,9.92568 8.11818,11.43819 3.48462,2.44072 4.82434,2.0116 6.54013,-2.09487 1.94939,-4.66554 1.37573,-20.32007 -1.0209,-27.85899 -1.86695,-5.87277 -6.20637,-12.72572 -9.5341,-15.05655 -2.18374,-1.52955 -2.4396,-1.47807 -4.90455,0.98688 -2.15023,2.15023 -2.67356,3.74607 -3.02176,9.21453 l -0.42114,6.6139 2.85351,-0.33756 c 3.30085,-0.39048 4.75228,2.62333 1.6975,3.52474 -0.99378,0.29325 -36.68187,7.33709 -79.30687,15.65298 -42.625,8.31589 -79.525,15.55406 -82,16.08482 l -4.5,0.96501 -0.0265,4.46744 c -0.0146,2.4571 0.43544,4.46785 1,4.46833 0.56457,4.9e-4 39.44455,-7.68394 86.39996,-17.07651 z m 99.44121,-2.7235 c 4.48145,-7.67329 2.95729,-21.96522 -3.82142,-35.83333 -3.44362,-7.04506 -4.94131,-8.31757 -9.83216,-8.35389 -1.61313,-0.012 -1.51518,0.37107 0.79779,3.11988 3.80487,4.52183 6.34043,9.91621 8.03058,17.08499 1.70044,7.2124 1.985,21.40329 0.50715,25.29035 -0.85375,2.24552 -0.74998,2.59028 0.69585,2.31184 0.93458,-0.17999 2.56458,-1.80891 3.62221,-3.61984 z m 51.68525,-26.26618 c 31.6259,-5.86865 43.8378,-8.5102 44.7373,-9.67711 2.2358,-2.90033 2.6276,-8.05181 0.822,-10.80753 -3.4897,-5.32589 -3.0133,-5.36953 -50.1963,4.59777 -24.12462,5.09627 -44.0109,9.3808 -44.19174,9.52119 -0.18084,0.14039 0.4393,2.88229 1.37809,6.09312 0.93879,3.21083 1.86013,6.40037 2.04742,7.08787 0.18728,0.6875 0.69214,1.25152 1.12191,1.25338 0.42976,0.002 20.35638,-3.62905 44.28132,-8.06869 z"
       id="path3781"
       inkscape:connector-curvature="0" />
  </g>
</svg>
