<?xml version="1.0" encoding="UTF-8" standalone="no"?>
<!-- Created with Inkscape (http://www.inkscape.org/) -->

<svg
   xmlns:dc="http://purl.org/dc/elements/1.1/"
   xmlns:cc="http://creativecommons.org/ns#"
   xmlns:rdf="http://www.w3.org/1999/02/22-rdf-syntax-ns#"
   xmlns:svg="http://www.w3.org/2000/svg"
   xmlns="http://www.w3.org/2000/svg"
   xmlns:sodipodi="http://sodipodi.sourceforge.net/DTD/sodipodi-0.dtd"
   xmlns:inkscape="http://www.inkscape.org/namespaces/inkscape"
   width="238.43355"
   height="220.64949"
   id="svg2"
   version="1.1"
   inkscape:version="0.48.3.1 r9886"
   sodipodi:docname="Overhead-squat-1.svg">
  <defs
     id="defs4" />
  <sodipodi:namedview
     id="base"
     pagecolor="#ffffff"
     bordercolor="#666666"
     borderopacity="1.0"
     inkscape:pageopacity="0.0"
     inkscape:pageshadow="2"
     inkscape:zoom="1.979899"
     inkscape:cx="207.08514"
     inkscape:cy="125.66578"
     inkscape:document-units="px"
     inkscape:current-layer="layer1"
     showgrid="false"
     fit-margin-top="0"
     fit-margin-left="0"
     fit-margin-right="0"
     fit-margin-bottom="0"
     inkscape:window-width="1855"
     inkscape:window-height="1056"
     inkscape:window-x="65"
     inkscape:window-y="24"
     inkscape:window-maximized="1" />
  <metadata
     id="metadata7">
    <rdf:RDF>
      <cc:Work
         rdf:about="">
        <dc:format>image/svg+xml</dc:format>
        <dc:type
           rdf:resource="http://purl.org/dc/dcmitype/StillImage" />
        <dc:title></dc:title>
      </cc:Work>
    </rdf:RDF>
  </metadata>
  <g
     inkscape:label="Ebene 1"
     inkscape:groupmode="layer"
     id="layer1"
     transform="translate(-557.59642,-858.17242)">
    <path
       style="fill:#000000"
       d=""
       id="path3414"
       inkscape:connector-curvature="0" />
    <path
       style="fill:#000000"
       d=""
       id="path3412"
       inkscape:connector-curvature="0" />
    <path
       style="fill:#000000"
       d="m 635.27997,1077.671 c -3.42375,-1.9249 -3.91616,-6.9773 -0.7771,-7.9736 1.08509,-0.3444 4.05028,-3.0578 6.58931,-6.0297 l 4.6164,-5.4036 0.91922,-11.2876 c 1.37916,-16.9356 1.70655,-17.6022 1.61473,-3.2877 l -0.0834,13 -3.56459,5.1734 c -1.96052,2.8454 -5.25208,6.1367 -7.31458,7.314 -4.33575,2.4749 -4.82636,5.0986 -1.30575,6.9828 2.99962,1.6053 10.01232,0.8316 12.44898,-1.3736 0.9559,-0.8651 3.16088,-1.8574 4.89996,-2.2052 4.75231,-0.9505 5.85463,-2.8063 3.97187,-6.6867 l -1.55493,-3.2047 -1.04338,2.6529 c -0.9466,2.4068 -3.16675,4.7852 -3.16675,3.3926 0,-1.0923 2.506,-5.0494 3.67513,-5.8033 0.69653,-0.4491 1.16938,-3.3001 1.16099,-7 -0.01,-4.37 0.9162,-8.9973 3.08779,-15.4283 2.72522,-8.0705 3.02451,-10.0191 2.46441,-16.0456 -0.53512,-5.7576 -0.30965,-7.5022 1.40359,-10.8604 1.94617,-3.8148 2.83676,-7.2606 3.59461,-13.9079 0.18812,-1.65 1.31442,-5.2012 2.50289,-7.8915 1.18847,-2.6904 2.03704,-5.0056 1.88572,-5.1449 -1.58043,-1.4555 -9.01562,-3.4636 -12.82393,-3.4636 -3.76926,0 -4.88365,0.3771 -5.17162,1.75 -0.33037,1.5751 -0.46885,1.5501 -1.3851,-0.25 -0.7629,-1.4988 -0.56437,-2.8771 0.79219,-5.5 1.79327,-3.4672 1.81024,-3.4742 1.81178,-0.75 10e-4,2.6118 0.24031,2.7507 4.75155,2.7646 2.6125,0.01 6.76407,0.7157 9.22572,1.5728 2.49449,0.8685 4.61309,1.1462 4.78606,0.6272 0.17069,-0.512 0.99032,-1.7823 1.8214,-2.8228 1.40121,-1.7543 1.46244,-1.6374 0.84224,1.6082 -0.36785,1.925 -1.27385,3.8514 -2.01334,4.2808 -1.45994,0.8478 -6.41208,15.4871 -6.41208,18.9551 0,1.173 -0.87637,3.9622 -1.94749,6.1984 -1.44283,3.0121 -2.04071,6.7866 -2.30723,14.5657 -0.29229,8.5314 -0.87582,11.8124 -3.11237,17.5 -2.37645,6.0433 -2.67968,7.9567 -2.21878,14 0.29362,3.85 0.82351,8.2401 1.17754,9.7558 0.79066,3.3849 -0.66779,5.3094 -4.62325,6.1005 -1.6427,0.3286 -4.26353,1.5413 -5.82407,2.6951 -3.73755,2.7633 -9.86077,3.4174 -13.39435,1.4308 z m 74.14559,0.2382 c -1.43243,-0.6712 -3.23243,-1.7423 -4,-2.3802 -0.76758,-0.638 -2.93353,-1.557 -4.81324,-2.0423 -4.63648,-1.197 -5.83918,-3.316 -4.29927,-7.5746 2.21384,-6.1222 1.52024,-15.4812 -1.78308,-24.0598 -2.5738,-6.6841 -3,-9.1365 -3,-17.2624 0,-6.4303 -0.45222,-10.1826 -1.40842,-11.6863 -0.77464,-1.2181 -1.92871,-4.9148 -2.56461,-8.2148 -1.68205,-8.7289 -4.01432,-15.4874 -6.04549,-17.5185 -0.97781,-0.9778 -2.08321,-3.2862 -2.45644,-5.1297 l -0.67859,-3.3518 2.36417,2.8523 c 2.35496,2.8411 2.37912,2.846 6.1989,1.25 2.1091,-0.8813 6.02977,-1.6023 8.7126,-1.6023 4.76468,0 4.87788,-0.07 4.87788,-3.0321 0,-1.6677 -0.675,-4.6476 -1.5,-6.6221 -0.825,-1.9745 -1.5,-5.5478 -1.5,-7.9406 0,-2.6221 -1.0438,-6.5551 -2.62722,-9.8993 -2.48298,-5.2441 -2.79868,-5.5226 -5.75,-5.0713 -8.44581,1.2913 -12.65983,1.4381 -18.62278,0.6489 -8.5769,-1.1352 -10.00845,0.1143 -10.98008,9.5838 -0.63982,6.2356 -4.4207,17.2653 -5.53608,16.1499 -0.25624,-0.2563 0.28312,-3.1325 1.19857,-6.3916 0.91546,-3.2591 1.73492,-7.8402 1.82104,-10.1802 0.10478,-2.8474 0.88329,-5.0282 2.35371,-6.5933 1.89867,-2.0211 2.12992,-3.1412 1.70232,-8.2454 -0.45371,-5.416 -0.21035,-5.3722 0.95548,0.1719 0.68434,3.2543 4.77171,4.4214 15.48504,4.4214 11.23024,0 14.68286,-1.0969 15.38655,-4.8881 1.03728,-5.5886 2.02661,-12.66981 1.93517,-13.85111 -0.0528,-0.6816 0.25613,-1.0217 0.6864,-0.7558 1.04167,0.6438 1.99188,-1.9932 1.99188,-5.5278 0,-1.5725 0.45643,-3.1413 1.01429,-3.486 1.84485,-1.1402 4.98571,-8.3596 4.98571,-11.4598 0,-2.7073 0.20544,-2.9201 1.83601,-1.9017 3.0943,1.9324 10.44217,0.2332 13.70115,-3.1685 1.74446,-1.8208 2.30425,-2.9612 1.45359,-2.9612 -0.76089,0 0.9627,-1.1691 3.83021,-2.5981 2.8675,-1.4289 5.6709,-3.4524 6.22978,-4.4967 0.55887,-1.0443 2.68859,-2.7728 4.7327,-3.8412 4.57796,-2.3927 7.11504,-4.7108 14.46656,-13.2177 4.56527,-5.2827 5.75,-7.3534 5.75,-10.05 0,-4.5444 -1.51431,-5.7963 -7.01144,-5.7963 -5.35629,0 -8.98856,2.6424 -8.98856,6.539 0,2.1963 0.94188,2.9439 3.25,2.5794 0.4125,-0.065 0.75,0.3612 0.75,0.9473 0,2.3667 -2.18553,4.853 -6.47646,7.3676 -2.48716,1.4576 -6.31246,5.0737 -8.50065,8.0357 -3.90452,5.2854 -6.02289,7.3671 -6.02289,5.9188 0,-0.4017 0.74474,-1.5533 1.65499,-2.5591 1.56957,-1.7343 1.49468,-1.8287 -1.45108,-1.8287 -1.70833,0 -6.27067,1.653 -10.13851,3.6734 -6.17682,3.2265 -7.23465,4.2029 -8.6943,8.0249 -1.5995,4.1883 -1.70502,4.2662 -2.81307,2.0766 -0.86983,-1.7188 -0.86836,-2.3474 0.006,-2.5714 1.7622,-0.4515 3.70721,-5.3322 2.57579,-6.4636 -0.52573,-0.5258 -3.02228,-0.7916 -5.54787,-0.5907 -2.52555,0.2009 -4.59195,0.2383 -4.59195,0.083 0,-0.1551 1.23046,-0.7498 2.73435,-1.3216 1.92734,-0.7328 3.92029,-0.7076 6.75264,0.085 3.63058,1.0165 4.71226,0.8297 11.21084,-1.9357 3.9559,-1.6834 8.50194,-3.0607 10.10232,-3.0607 1.95965,0 3.69183,-0.9213 5.30482,-2.8216 1.31726,-1.5519 4.53253,-4.2735 7.14503,-6.048 2.6125,-1.7746 4.73503,-3.5424 4.71673,-3.9284 -0.0183,-0.3861 -0.87793,-1.7145 -1.91029,-2.952 -1.87289,-2.245 -1.94271,-2.2498 -31.71673,-2.1598 -19.33618,0.058 -28.75458,0.4052 -26.75694,0.9852 1.79899,0.5224 3.56884,1.9619 4.25,3.4569 1.42031,3.1173 1.52097,10.4071 0.19198,13.9026 -0.63805,1.6782 -0.63074,3.4712 0.0212,5.1859 0.85407,2.2464 1.42194,2.5356 3.97524,2.025 3.13722,-0.6275 3.78095,0.1521 1.77884,2.1542 -0.93333,0.9333 -0.65556,1.2175 1.25,1.2789 1.3475,0.043 2,0.2241 1.45,0.4014 -0.55,0.1774 -3.475,1.0809 -6.5,2.0078 -3.025,0.9269 -6.54877,2.6588 -7.83059,3.8486 -2.23563,2.0752 -2.38493,2.089 -3.66416,0.3396 -0.73346,-1.0031 -4.40969,-2.8892 -8.16941,-4.1914 -3.75971,-1.3022 -6.03251,-2.394 -5.05066,-2.4262 1.43833,-0.047 1.58811,-0.4269 0.77092,-1.9539 -0.90347,-1.6881 -0.66153,-1.8793 2.21482,-1.75 l 3.22905,0.1452 -0.30713,-9.209 c -0.34789,-10.4308 0.47434,-12.8055 5.13587,-14.8332 2.79011,-1.2137 -0.41513,-1.3842 -26.66845,-1.4187 -29.74464,-0.039 -29.84569,-0.032 -31.71673,2.2109 -1.03236,1.2375 -1.89199,2.5634 -1.91029,2.9465 -0.0183,0.3831 2.47411,2.3609 5.53868,4.395 3.06458,2.0342 6.26633,4.7582 7.11501,6.0535 1.09614,1.6729 2.4834,2.355 4.78973,2.355 1.78568,0 6.30332,1.3859 10.03921,3.0799 6.17086,2.798 7.18461,2.9811 11.07637,2.0012 2.85004,-0.7177 5.14132,-0.7527 6.84579,-0.1047 3.60413,1.3703 3.22289,1.5906 -2.03005,1.1728 -6.08366,-0.4839 -7.2981,0.8698 -3.86255,4.3053 1.99676,1.9968 2.40757,2.9925 1.57727,3.8228 -1.71689,1.7169 -1.5455,2.0177 4.87727,8.5612 3.3,3.362 6,6.5737 6,7.1371 0,0.566 2.57337,1.0802 5.75,1.1492 l 5.75,0.1247 -5.40398,0.7848 c -2.97219,0.4316 -5.89719,0.5927 -6.5,0.358 -0.60281,-0.2346 -2.15692,-2.2797 -3.45357,-4.5445 -1.84009,-3.214 -2.57415,-3.8138 -3.34433,-2.7328 -0.79037,1.1093 -0.88454,1.0622 -0.47312,-0.2366 0.32234,-1.0176 -0.57369,-2.4255 -2.40566,-3.7799 -1.60564,-1.1871 -2.91934,-3.0672 -2.91934,-4.1781 0,-3.261 -2.61246,-7.3808 -5.66469,-8.9331 -1.55942,-0.793 -4.51387,-2.4646 -6.56544,-3.7146 -2.05157,-1.25 -5.1049,-2.2727 -6.78518,-2.2727 -2.787,0 -2.95712,0.183 -1.93885,2.0856 2.32762,4.3493 -0.0342,2.8448 -4.03409,-2.5697 -2.29512,-3.1068 -6.5449,-7.1612 -9.46279,-9.0277 -4.83695,-3.0942 -6.54896,-5.0731 -6.54896,-7.57 0,-0.505 0.3375,-0.8649 0.75,-0.7998 2.30812,0.3645 3.25,-0.3831 3.25,-2.5794 0,-3.6436 -3.6549,-6.539 -8.2543,-6.539 -5.798,0 -7.7457,1.4259 -7.7457,5.6706 0,3.0885 1.10129,4.8148 7.75,12.1479 4.2625,4.7013 9.07165,9.2529 10.68701,10.1147 1.61535,0.8617 3.90703,2.4668 5.09262,3.5668 5.39879,5.009 6.78638,5.922 11.71804,7.7101 3.92748,1.424 4.38164,1.7599 1.80052,1.3317 l -3.45181,-0.5725 2.95181,3.0868 c 2.76633,2.8929 3.33991,3.0666 9.12805,2.7654 l 6.17624,-0.3215 0.62555,4.1868 c 0.34406,2.3027 1.68032,5.741 2.96947,7.6407 1.28916,1.8997 2.80744,5.4156 3.37396,7.8132 0.56652,2.3976 1.33272,5.4843 1.70266,6.85931 0.57272,2.1287 0.36096,2.0137 -1.42575,-0.77421 -1.1541,-1.8008 -2.09837,-4.5252 -2.09837,-6.0542 0,-1.529 -1.35,-4.9088 -3,-7.5105 -1.65,-2.6018 -3,-5.8887 -3,-7.3042 0,-2.2561 -0.31316,-2.4951 -2.53747,-1.9369 -5.93419,1.4894 -11.14256,-1.4504 -22.88989,-12.92 -1.68995,-1.65 -4.827,-3.8944 -6.97123,-4.9875 -3.54085,-1.8051 -15.83797,-15.0394 -19.60141,-21.0952 -1.27655,-2.0542 -2.28207,-2.414 -6.75,-2.4155 -4.04985,0 -5.25,0.3485 -5.25,1.5304 0,0.8427 -0.99572,1.9006 -2.21271,2.3508 -2.48205,0.9182 -5.78729,0.3473 -5.78729,-0.9996 0,-0.4859 -4.6125,-0.9776 -10.25,-1.0927 l -10.25,-0.2093 9.75,-0.3269 9.75,-0.3269 0,-3.0241 0,-3.0242 -9.65052,0.7084 c -7.16124,0.5257 -9.4675,0.4123 -8.94098,-0.4396 0.44723,-0.7237 3.96956,-1.1481 9.52807,-1.1481 6.61875,0 9.12908,-0.3742 10.06343,-1.5 1.99336,-2.4018 5.87844,-1.8609 7.18195,1 1.01823,2.2348 1.73502,2.5 6.75632,2.5 4.37976,0 5.9945,-0.4406 7.3297,-2 2.52399,-2.9478 10.79544,-3.1576 13.89513,-0.3524 1.58118,1.431 8.37103,1.608 63.76952,1.6624 56.45312,0.056 62.16427,-0.088 63.8369,-1.6014 3.1452,-2.8464 11.25885,-2.6802 14.23048,0.2914 1.24345,1.2434 3.33333,2 5.52475,2 2.8396,0 3.70951,-0.486 4.47525,-2.5 0.71412,-1.8783 1.67611,-2.5 3.86826,-2.5 1.67108,0 3.1637,0.6409 3.49337,1.5 0.44688,1.1646 2.53941,1.5223 9.35699,1.5997 4.82976,0.055 9.90638,0.498 11.28138,0.985 1.58437,0.561 -1.62033,0.7011 -8.75,0.3825 l -11.25,-0.5027 0,3.0178 0,3.0177 11.25,0.2124 11.25,0.2124 -10.88116,0.3227 c -6.92046,0.2053 -11.56842,0.8042 -12.76926,1.6453 -2.01151,1.4089 -6.84958,1.0074 -6.84958,-0.5684 0,-0.5183 0.43681,-0.6725 0.97068,-0.3425 1.41893,0.8769 2.38151,-4.0324 1.41798,-7.2319 -0.78109,-2.5937 -0.84699,-2.5158 -1.15962,1.3714 l -0.33147,4.1214 -4.44878,-0.5015 c -2.73615,-0.3084 -4.44879,-0.1008 -4.44879,0.5392 0,2.2628 -16.68023,20.7925 -20.52009,22.7954 -2.18895,1.1417 -6.90491,4.8709 -10.47991,8.2872 -7.8859,7.5357 -11.20005,9.4243 -16.74975,9.5447 -3.13711,0.068 -4.24982,0.4991 -4.25,1.6464 -1.4e-4,0.8548 -1.37366,3.7199 -3.05226,6.3668 -1.67861,2.6469 -3.41964,6.7803 -3.86896,9.1854 -0.44932,2.4051 -1.36705,5.0357 -2.0394,5.8459 -0.67235,0.81011 -1.39713,3.40221 -1.61063,5.76031 -0.2135,2.3581 -0.64372,5.8671 -0.95603,7.7979 -0.41549,2.5686 -0.0837,4.0443 1.23676,5.5 2.69661,2.9729 4.29027,7.143 4.29027,11.2264 0,4.9265 1.94267,15.1907 3.45658,18.2631 0.88541,1.7969 1.01814,5.0312 0.47194,11.5 -0.82328,9.7503 0.0317,20.055 2.56032,30.8588 0.88292,3.7723 1.42662,7.3723 1.20822,8 -0.35052,1.0074 -1.80379,-3.9465 -3.33221,-11.3588 -0.28352,-1.375 -0.91148,-3.4 -1.39545,-4.5 -0.73185,-1.6634 -1.41513,-6.8737 -2.03269,-15.5 -0.0591,-0.825 0.40022,-3.4879 1.02062,-5.9175 0.62041,-2.4296 0.84805,-5.6921 0.50588,-7.25 -0.55187,-2.5126 -1.05749,-2.8325 -4.47757,-2.8325 -2.12049,0 -5.00974,0.4389 -6.42054,0.9753 -2.4996,0.9503 -2.56496,1.212 -2.55952,10.25 0.007,11.3297 1.17703,15.8607 5.68834,22.0247 3.08032,4.2088 3.4893,6.5332 0.64993,3.6938 -1.8628,-1.8627 -2.68202,11.5178 -0.93914,15.3393 3.30213,7.2402 5.78,17.9995 5.13533,22.2984 -0.44862,2.9917 -0.25164,4.5104 0.66031,5.091 1.63607,1.0417 4.10431,5.3562 3.44267,6.0178 -0.27255,0.2726 -1.27839,-1.0088 -2.2352,-2.8474 l -1.73966,-3.3429 -1.23596,2.9991 c -1.59279,3.8649 -0.40956,6.0554 3.71667,6.8807 1.77094,0.3542 4.01866,1.3668 4.99493,2.2503 2.28032,2.0637 9.93094,2.9355 12.70977,1.4483 3.08276,-1.6499 2.68997,-4.746 -0.83322,-6.5679 -1.63881,-0.8474 -4.88484,-4.1198 -7.2134,-7.2718 l -4.23374,-5.731 -0.3886,-11.0039 c -0.42669,-12.0825 0.78735,-14.0416 1.4332,-2.3128 0.72141,13.1009 1.17421,14.7032 5.6607,20.0303 2.32182,2.7569 5.23399,5.3988 6.47149,5.8709 2.64593,1.0093 3.1386,5.9254 0.78922,7.8753 -2.11199,1.7528 -8.61282,2.1731 -11.64363,0.7529 z m -21.89559,-89.2204 c 0,-3.7441 -0.0471,-3.8029 -2.33943,-2.9232 -1.20265,0.4615 -1.29936,1.1609 -0.48397,3.5 1.38617,3.9763 2.8234,3.6827 2.8234,-0.5768 z m -7.85713,-88.95451 c 1.06189,-1.35 2.50624,-2.2336 3.20967,-1.9637 0.70343,0.2699 2.59938,-0.1978 4.21321,-1.0394 1.87194,-0.9761 2.31342,-1.5323 1.21943,-1.5362 -0.94315,0 -2.19096,-0.8959 -2.77291,-1.9833 -1.05402,-1.9694 -1.06575,-1.9694 -3.03519,0 -2.34803,2.348 -6.65969,2.5743 -8.98334,0.4714 -1.48333,-1.3424 -2.01446,-1.3307 -4.89796,0.1078 l -3.23421,1.6134 2.68352,1.3923 c 3.27732,1.7003 5.16122,1.7733 5.67896,0.2201 0.21489,-0.6447 0.98198,0.2553 1.70465,2 0.72267,1.7446 1.53208,3.1721 1.7987,3.1721 0.26662,0 1.35358,-1.1045 2.41547,-2.4545 z m 1.04095,-7.2955 c 0.82159,-0.9625 2.29642,-4.3795 3.27739,-7.5933 3.37642,-11.0615 -0.0665,-16.8913 -8.98713,-15.2178 -2.98923,0.5608 -3.56085,1.1696 -4.55126,4.8477 -0.93035,3.4551 -0.8291,5.1894 0.5669,9.7099 2.98338,9.6607 6.17407,12.3773 9.6941,8.2535 z m -98.68382,-27.75 c 0,-6.9789 -1.89092,-6.709 -2.30226,0.3286 -0.21836,3.7359 0.0592,5.1714 1,5.1714 0.91183,0 1.30226,-1.649 1.30226,-5.5 z m 189.89301,3.9182 c 0.97373,-2.5375 0.69918,-8.4182 -0.39301,-8.4182 -1.99044,0 -2.25129,0.5768 -2.37463,5.2507 -0.12406,4.7013 1.47626,6.5328 2.76764,3.1675 z m -187.23625,-3.9151 c -0.19672,-2.4733 -0.76246,-4.2468 -1.25721,-3.941 -1.03992,0.6427 -1.22384,6.7803 -0.23288,7.7712 1.45208,1.4521 1.83244,0.4744 1.49009,-3.8302 z m 12.84324,0.4969 c 0,-0.5556 -2.66667,-1 -6,-1 -3.33333,0 -6,0.4444 -6,1 0,0.5556 2.66667,1 6,1 3.33333,0 6,-0.4444 6,-1 z m 141,0.035 c 0,-0.9656 -33.62838,-2.0347 -64.0011,-2.0347 -28.94199,0 -58.10637,1.0171 -57.49572,2.0051 0.57047,0.9231 121.49682,0.9525 121.49682,0.03 z m 27,-0.035 c 0,-0.55 -1.8,-1 -4,-1 -2.2,0 -4,0.45 -4,1 0,0.55 1.8,1 4,1 2.2,0 4,-0.45 4,-1 z m -120,202.38231 c 0,-0.55 0.66069,-1.8735 1.4682,-2.9412 0.8075,-1.0676 1.46819,-1.4911 1.46819,-0.9411 0,0.55 -0.66069,1.8735 -1.46819,2.9411 -0.80751,1.0677 -1.4682,1.4912 -1.4682,0.9412 z m 62.16244,-1.9251 c -1.67549,-3.6773 -1.35583,-4.4618 0.45586,-1.1188 0.84602,1.5611 1.3511,3.0255 1.1224,3.2542 -0.2287,0.2287 -0.93892,-0.7322 -1.57826,-2.1354 z m -56.08349,-15.0405 c 0.048,-1.165 0.28494,-1.4019 0.60416,-0.6042 0.28887,0.7219 0.25335,1.5844 -0.079,1.9167 -0.33229,0.3323 -0.56864,-0.2584 -0.52522,-1.3125 z m 50.74818,-6.9167 c -0.37008,-1.1 -0.68158,-4.925 -0.69222,-8.5 -0.0156,-5.2471 0.17046,-6.0274 0.96535,-4.0481 0.54158,1.3486 0.85308,5.1736 0.69222,8.5 -0.17995,3.7212 -0.55136,5.2786 -0.96535,4.0481 z m -50.15641,-3.75 c -0.30352,-1.7875 -0.18557,-5.05 0.26211,-7.25 0.71725,-3.5246 0.81823,-3.1384 0.84981,3.25 0.0197,3.9875 -0.0982,7.25 -0.26212,7.25 -0.16386,0 -0.54628,-1.4625 -0.8498,-3.25 z m 44.92928,-7.35 c -0.37483,-3.6585 -0.47777,-6.8556 -0.22877,-7.1046 0.24901,-0.249 0.77195,2.5281 1.1621,6.1713 0.39015,3.6432 0.4931,6.8402 0.22877,7.1045 -0.26433,0.2644 -0.78727,-2.5127 -1.1621,-6.1712 z m -48.12527,-7.9 c 0.26592,-2.2 1.03831,-6.025 1.7164,-8.5 0.69825,-2.5486 1.19759,-9.9206 1.15149,-17 l -0.0814,-12.5 1.45372,5.5 c 0.79955,3.025 1.40579,6.175 1.34721,7 -0.0586,0.825 -0.28535,4.2 -0.50391,7.5 -0.21857,3.3 -0.61103,6.675 -0.87214,7.5 -4.03924,12.7625 -4.67709,14.3529 -4.21137,10.5 z m 4.60422,1.9167 c 0.048,-1.165 0.28494,-1.4019 0.60416,-0.6042 0.28887,0.7219 0.25335,1.5844 -0.079,1.9167 -0.33229,0.3323 -0.56864,-0.2584 -0.52522,-1.3125 z m 43.19573,-12.5448 c 0.31296,-0.8955 0.11499,-2.0822 -0.43996,-2.6372 -0.67865,-0.6786 -0.67663,-1.2144 0.006,-1.6363 1.54162,-0.9528 2.56276,3.414 1.11129,4.7523 -0.96345,0.8883 -1.1173,0.7796 -0.67748,-0.4788 z m -39.71505,-0.7754 c -0.43195,-0.6989 -0.29208,-1.7641 0.31084,-2.367 1.47541,-1.4754 2.036,-0.6634 1.17651,1.7041 -0.51854,1.4284 -0.9072,1.6016 -1.48735,0.6629 z m 0.64037,-9.2965 c -0.66,-0.66 -1.18198,-2.1225 -1.15996,-3.25 0.0346,-1.7706 0.24335,-1.6752 1.53193,0.7 1.98309,3.6554 4.10577,3.4738 5.84359,-0.5 1.16942,-2.6741 1.43575,-2.8639 1.50287,-1.0714 0.15641,4.1774 -4.94071,6.8991 -7.71843,4.1214 z m 34.05,0.5377 c -0.6875,-0.2774 -1.22148,-1.4794 -1.18661,-2.671 0.0634,-2.1667 0.0634,-2.1667 0.96777,0.083 1.1515,2.8648 3.41676,2.8763 5.41214,0.027 1.08745,-1.5526 1.5567,-1.7636 1.5567,-0.7 0,3.0819 -3.2735,4.663 -6.75,3.2602 z m -35.21937,-8.3377 c 0,-1.375 0.43621,-3.175 0.96937,-4 0.76733,-1.1874 0.96937,-0.9789 0.96937,1 0,1.375 -0.43621,3.175 -0.96937,4 -0.76733,1.1874 -0.96937,0.9789 -0.96937,-1 z m 6.20137,-8 c 0,-1.925 0.2058,-2.7125 0.45733,-1.75 0.25152,0.9625 0.25152,2.5375 0,3.5 -0.25153,0.9625 -0.45733,0.175 -0.45733,-1.75 z m 31.48678,-0.1581 c -0.97968,-1.712 -1.57813,-3.3159 -1.32991,-3.5641 0.68348,-0.6835 3.84964,4.51 3.45514,5.6675 -0.1892,0.5551 -1.14556,-0.3914 -2.12523,-2.1034 z m -20.56933,-13.4692 c -2.54047,-2.7073 -2.39324,-4.4736 0.16007,-1.9203 1.96987,1.9698 6.07407,1.9953 7.69048,0.048 0.68469,-0.825 1.72398,-1.5 2.30954,-1.5 0.58555,0 -0.22874,1.35 -1.80954,3 -3.45651,3.6078 -5.24016,3.6874 -8.35055,0.3727 z m -1.64945,-9.5841 c 1.65,-0.4852 5.09923,-0.6619 7.66496,-0.3926 3.4786,0.3651 4.80575,0.1227 5.21861,-0.9532 0.65684,-1.7117 6.18582,-1.9486 7.19946,-0.3084 0.48516,0.7849 -0.25907,0.9934 -2.41657,0.6767 -1.71471,-0.2516 -3.27272,0.01 -3.46225,0.5763 -0.19632,0.5889 -3.97183,1.0875 -8.77441,1.1586 -6.31618,0.093 -7.6776,-0.096 -5.4298,-0.7574 z m -5,-3.4631 c -1.1,-0.2434 -2.675,-0.7032 -3.5,-1.0217 -2.31771,-0.8948 2.61808,-2.1073 8.5,-2.0881 2.75,0.01 4.2125,0.2221 3.25,0.4736 -0.9625,0.2516 -1.75,0.9316 -1.75,1.5113 0,0.6611 1.85089,0.876 4.96629,0.5767 2.73146,-0.2625 4.72991,-0.095 4.44099,0.3727 -0.53186,0.8606 -12.22806,0.9896 -15.90728,0.1755 z m 2.5,-8.1127 c 0,-0.4329 0.90973,-0.8557 2.02161,-0.9395 1.11189,-0.084 1.76033,0.2705 1.44099,0.7872 -0.7025,1.1367 -3.4626,1.2581 -3.4626,0.1523 z m 6,10e-4 c 0,-0.4321 0.9,-0.7857 2,-0.7857 1.1,0 2,0.3536 2,0.7857 0,0.4321 -0.9,0.7857 -2,0.7857 -1.1,0 -2,-0.3536 -2,-0.7857 z m 6.5374,-0.1538 c -0.31934,-0.5167 0.2166,-0.902 1.19099,-0.8561 0.97438,0.046 3.57161,-0.2568 5.77161,-0.6724 3.76709,-0.7116 3.88355,-0.6636 2,0.8244 -2.19594,1.7348 -8.04177,2.1941 -8.9626,0.7041 z m -11.79041,-8.6608 c -0.34055,-0.5511 -1.13736,-3.9775 -1.77069,-7.6144 -0.99276,-5.70091 -1.48408,-6.69591 -3.56391,-7.21791 -1.32681,-0.3325 -2.41239,-1.0839 -2.41239,-1.6693 0,-0.5853 0.5625,-0.8021 1.25,-0.4816 0.6875,0.3205 2.00919,0.8531 2.9371,1.1835 1.69607,0.6041 4.09861,5.78151 3.13158,6.74851 -0.2849,0.2849 0.013,2.1271 0.66208,4.0937 1.1673,3.537 1.00574,6.9635 -0.23377,4.9579 z m 14.83348,-5.3992 c 0.918,-7.1739 2.01871,-10.00001 3.89478,-10.00001 0.83861,0 1.52475,-0.45 1.52475,-1 0,-0.55 0.45,-1 1,-1 1.74396,0 1.07814,1.8404 -0.89203,2.4657 -2.12252,0.6737 -3.15041,3.20311 -3.61475,8.89521 -0.17323,2.1235 -0.83282,4.3735 -1.46576,5 -0.8671,0.8583 -0.9773,-0.2168 -0.44699,-4.3609 z m -8.52284,-5.691 c 0.0317,-2.09491 0.42995,-5.60901 0.885,-7.80901 0.74747,-3.6137 0.83848,-3.3055 0.94237,3.191 0.0632,3.95501 -0.335,7.46911 -0.885,7.80901 -0.60307,0.3727 -0.97713,-0.8939 -0.94237,-3.191 z m -12.59875,0.6245 c -1.07627,-1.7415 0.14952,-2.1103 1.52106,-0.4577 0.78875,0.9504 0.86462,1.5242 0.20152,1.5242 -0.58488,0 -1.36004,-0.4799 -1.72258,-1.0665 z m 24.54112,0.6017 c 0,-0.2557 1.0125,-1.0043 2.25,-1.6637 2.04022,-1.0872 2.12204,-1.0438 0.87756,0.4648 -1.27783,1.549 -3.12756,2.2581 -3.12756,1.1989 z m -22.00953,-9.04671 c -0.7661,-0.9231 -2.11239,-1.3066 -3.38165,-0.9633 -1.94933,0.5272 -1.96918,0.4832 -0.26244,-0.5811 1.23232,-0.7684 2.17932,-0.8184 2.84752,-0.1502 1.01648,1.0165 6.54987,-1.2415 8.00097,-3.2649 0.38301,-0.5341 0.9849,-0.6826 1.33752,-0.3299 0.35263,0.3526 -0.63541,1.4331 -2.19563,2.401 -1.56022,0.968 -3.34002,2.3589 -3.95511,3.091 -0.92393,1.0997 -1.33964,1.0645 -2.39118,-0.2026 z m 19.51508,-0.4824 c -0.99854,-1.1033 -2.22792,-2.0061 -2.73197,-2.0061 -0.50404,0 -1.59144,-0.675 -2.41644,-1.5 -0.825,-0.825 -1.31199,-1.5 -1.08221,-1.5 1.15415,0 6.67138,3.2304 7.76235,4.5449 1.92037,2.3139 0.52513,2.734 -1.53173,0.4612 z m 3.49445,-1.0061 c 0,-0.55 0.47656,-1 1.05902,-1 0.58246,0 0.7809,0.45 0.44098,1 -0.33992,0.55 -0.81648,1 -1.05902,1 -0.24254,0 -0.44098,-0.45 -0.44098,-1 z m -29.81612,-5.5042 c 0.62755,-1.3773 1.27505,-2.3702 1.4389,-2.2064 0.60844,0.6085 -0.88762,4.7106 -1.71797,4.7106 -0.47406,0 -0.34848,-1.1269 0.27907,-2.5042 z m 34.8513,0.5699 c -1.26687,-2.3671 -1.32568,-3.3633 -0.15589,-2.6403 0.88235,0.5453 2.25839,4.5746 1.56227,4.5746 -0.20415,0 -0.83703,-0.8704 -1.40638,-1.9343 z m -10.78518,-1.7891 c -5.12226,-0.6357 -3.86949,-2.4857 1.42824,-2.1091 4.51174,0.3207 4.80055,0.1723 8.11478,-4.1675 1.89009,-2.475 4.17238,-4.6291 5.07176,-4.7868 1.35757,-0.2382 1.33064,-0.098 -0.15861,0.8242 -1.13266,0.7015 -1.57839,1.7898 -1.20932,2.9527 0.32148,1.0129 0.12135,2.1278 -0.44472,2.4777 -0.62528,0.3864 -0.80463,-0.071 -0.45697,-1.1659 0.55296,-1.7412 -0.40517,-0.8186 -5.13903,4.9481 -0.7901,0.9625 -2.00346,1.678 -2.69634,1.59 -0.69289,-0.088 -2.72229,-0.3416 -4.50979,-0.5634 z m -43,-19.9516 c -2.3375,-1.3611 -4.25,-2.8682 -4.25,-3.3489 0,-1.2557 7.13595,1.8394 9.47222,4.1084 2.82023,2.7391 0.10835,2.3447 -5.22222,-0.7595 z m 68.68561,0.2526 c 1.16096,-1.3989 7.06439,-3.9149 7.06439,-3.0109 0,0.6402 -6.29935,4.425 -7.37244,4.4296 -0.47985,0 -0.34123,-0.6364 0.30805,-1.4187 z"
       id="path4231"
       inkscape:connector-curvature="0" />
  </g>
</svg>
