<?xml version="1.0" encoding="UTF-8" standalone="no"?>
<!-- Created with Inkscape (http://www.inkscape.org/) -->

<svg
   xmlns:dc="http://purl.org/dc/elements/1.1/"
   xmlns:cc="http://creativecommons.org/ns#"
   xmlns:rdf="http://www.w3.org/1999/02/22-rdf-syntax-ns#"
   xmlns:svg="http://www.w3.org/2000/svg"
   xmlns="http://www.w3.org/2000/svg"
   xmlns:sodipodi="http://sodipodi.sourceforge.net/DTD/sodipodi-0.dtd"
   xmlns:inkscape="http://www.inkscape.org/namespaces/inkscape"
   width="242.71664"
   height="288.68674"
   id="svg2"
   version="1.1"
   inkscape:version="0.48.3.1 r9886"
   sodipodi:docname="Overhead-curl-1.svg">
  <defs
     id="defs4" />
  <sodipodi:namedview
     id="base"
     pagecolor="#ffffff"
     bordercolor="#666666"
     borderopacity="1.0"
     inkscape:pageopacity="0.0"
     inkscape:pageshadow="2"
     inkscape:zoom="2.8"
     inkscape:cx="78.280992"
     inkscape:cy="159.21707"
     inkscape:document-units="px"
     inkscape:current-layer="layer1"
     showgrid="false"
     fit-margin-top="0"
     fit-margin-left="0"
     fit-margin-right="0"
     fit-margin-bottom="0"
     inkscape:window-width="1855"
     inkscape:window-height="1056"
     inkscape:window-x="65"
     inkscape:window-y="24"
     inkscape:window-maximized="1" />
  <metadata
     id="metadata7">
    <rdf:RDF>
      <cc:Work
         rdf:about="">
        <dc:format>image/svg+xml</dc:format>
        <dc:type
           rdf:resource="http://purl.org/dc/dcmitype/StillImage" />
        <dc:title></dc:title>
      </cc:Work>
    </rdf:RDF>
  </metadata>
  <g
     inkscape:label="Ebene 1"
     inkscape:groupmode="layer"
     id="layer1"
     transform="translate(-819.1521,-1128.3915)">
    <path
       style="fill:#000000"
       d=""
       id="path3414"
       inkscape:connector-curvature="0" />
    <path
       style="fill:#000000"
       d=""
       id="path3412"
       inkscape:connector-curvature="0" />
    <path
       style="fill:#000000"
       d="m 919.33806,1415.1357 c -3.75837,-2.889 -7.3858,-17.0041 -7.12404,-27.7211 0.10098,-4.1345 -0.50637,-9.4696 -1.44596,-12.7016 -2.07488,-7.1374 -2.07809,-13.9857 -0.009,-19.6697 3.79284,-10.4204 7.06438,-39.5364 4.32426,-38.4849 -0.729,0.2797 -1.92683,-0.4544 -2.66187,-1.6314 -1.12811,-1.8063 -1.10032,-2.6265 0.17823,-5.2618 2.23003,-4.5964 4.05138,-16.7868 3.25388,-21.7784 -0.4571,-2.8611 -0.35703,-4.0022 0.29322,-3.3435 2.42272,2.4542 1.25667,16.4288 -2.15324,25.8056 -0.73516,2.0216 -0.69133,3.1346 0.15684,3.9828 0.90282,0.9028 1.31317,0.6568 1.76099,-1.0556 0.79422,-3.0371 2.35062,-2.8264 2.35062,0.3182 0,4.4365 8.74249,6.8291 15.87189,4.3438 3.52754,-1.2297 5.12811,-3.5031 5.12811,-7.2838 0,-2.0935 0.59877,-2.6327 3.53529,-3.1836 2.55174,-0.4787 3.96331,-1.4909 5.07374,-3.6382 1.91038,-3.6943 3.07812,-2.963 1.23186,0.7714 -0.81937,1.6573 -2.70218,3.1453 -4.84089,3.8258 -2.83582,0.9023 -3.56332,1.6829 -3.83366,4.1136 -0.18352,1.65 -0.91074,3.675 -1.61605,4.5 -0.70531,0.825 -1.55012,3.8934 -1.87736,6.8187 -0.54552,4.8766 -1.29108,7.0225 -4.40587,12.6813 -2.53616,4.6075 -4.64573,14.2632 -4.40166,20.1466 0.17,4.098 -0.47408,8.5469 -1.93253,13.3485 -3.20173,10.541 -2.4509,18.5753 2.53151,27.0885 2.06538,3.529 4.18536,6.6862 4.71107,7.016 1.35373,0.8492 3.96412,6.0942 3.34244,6.7159 -0.28484,0.2848 -0.51789,0.027 -0.51789,-0.5719 0,-0.5994 -1.29849,-2.3882 -2.88553,-3.9753 -1.58704,-1.587 -4.61283,-6.1828 -6.72398,-10.2129 -3.46052,-6.6059 -3.84102,-8.0771 -3.86447,-14.9414 -0.0171,-5.0046 0.59343,-9.2193 1.78147,-12.298 1.12115,-2.9053 1.68132,-6.5127 1.47522,-9.5 -0.3315,-4.8048 -0.33518,-4.8093 -1.58342,-1.9327 -0.68813,1.5858 -1.48131,4.7151 -1.76262,6.9541 -0.75097,5.9769 -1.77289,6.0278 -1.2262,0.061 0.25708,-2.8059 1.413,-7.0809 2.5687,-9.5 1.1557,-2.4192 3.09302,-7.3235 4.30515,-10.8985 1.21213,-3.5749 3.25894,-8.5375 4.54847,-11.0279 1.28953,-2.4904 2.62843,-6.5987 2.97534,-9.1297 l 0.63075,-4.6018 -5.19756,1.0277 c -4.27812,0.8459 -5.8089,0.7361 -8.65337,-0.6203 -5.35768,-2.5549 -5.73751,-2.2792 -5.03973,3.6578 0.34533,2.9382 0.14215,6.8427 -0.45531,8.75 -2.56454,8.187 -2.70709,11.1577 -0.85578,17.8341 1.00373,3.6197 1.64359,6.7628 1.4219,6.9845 -0.44102,0.441 -2.45903,-4.4331 -2.45903,-5.9394 0,-0.5142 -0.43257,-0.9349 -0.96126,-0.9349 -1.36764,0 -4.03874,9.5899 -4.03874,14.5 0,2.2753 0.72754,6.5812 1.61676,9.5685 0.88921,2.9873 1.71739,9.4815 1.8404,14.4315 0.16348,6.5785 0.9117,11.0179 2.78098,16.5 2.24499,6.584 3.0075,7.7287 6.24333,9.3724 2.94651,1.4967 4.17076,1.6515 6.10227,0.7714 1.32894,-0.6055 2.41626,-1.8356 2.41626,-2.7337 0,-1.2859 -0.69032,-1.5182 -3.25,-1.0938 -1.7875,0.2964 -4.15,0.1531 -5.25,-0.3184 -1.46988,-0.6301 -0.6216,-0.876 3.20031,-0.9276 3.84425,-0.052 5.44105,0.3599 6.12353,1.5794 0.59683,1.0665 1.67501,1.4531 3.04969,1.0936 2.54114,-0.6645 2.89439,1.0818 0.37647,1.8611 -0.9625,0.2979 -2.53139,0.9587 -3.48643,1.4686 -2.96093,1.5807 -10.07008,1.0313 -12.68727,-0.9806 z m 53.9237,-18.0222 c -1.925,-0.385 -4.45868,-1.2202 -5.6304,-1.8562 -1.17172,-0.636 -4.63072,-1.0906 -7.68666,-1.0102 -9.02244,0.2374 -9.95662,-1.5877 -7.10541,-13.8819 1.86836,-8.0562 1.26878,-13.7183 -2.17164,-20.5076 -2.50081,-4.9351 -2.89802,-9.3207 -1.49906,-16.5509 0.58244,-3.0102 0.4251,-4.9972 -0.54356,-6.8643 -0.7498,-1.4452 -1.36327,-4.0632 -1.36327,-5.8176 0,-1.8374 -1.29193,-5.2271 -3.04704,-7.9946 -1.67586,-2.6426 -2.87206,-5.3182 -2.65821,-5.9458 0.7056,-2.0708 7.64671,10.0802 8.17922,14.3184 0.28504,2.2686 1.19501,5.4335 2.02214,7.033 0.82714,1.5995 1.46836,3.718 1.42494,4.7078 -0.046,1.0489 -0.28937,1.2782 -0.58333,0.5497 -0.27741,-0.6875 -0.98184,-1.25 -1.56539,-1.25 -1.85163,0 -0.17172,14.5435 2.2602,19.5672 1.90139,3.9278 2.09683,5.5006 1.51841,12.2204 -0.36512,4.2418 -0.75095,10.1874 -0.8574,13.2124 l -0.19354,5.5 7.70374,0.5 c 4.23706,0.275 8.26456,1.0625 8.95,1.75 2.54278,2.5504 15.49044,0.6825 14.56264,-2.1009 -0.3663,-1.0988 -1.43015,-1.7523 -6.71638,-4.1252 -1.925,-0.8641 -5.91474,-4.2835 -8.86608,-7.5987 l -5.36608,-6.0276 -0.92951,-15.6988 c -0.51124,-8.6343 -0.67297,-19.2988 -0.35941,-23.6988 0.61644,-8.6503 -0.41072,-12.3645 -2.39435,-8.658 -1.64397,3.0718 -4.60341,4.4427 -5.98831,2.774 -0.88927,-1.0715 -0.63978,-1.2514 1.23783,-0.8925 1.88113,0.3596 2.60736,-0.1679 3.63007,-2.637 0.70316,-1.6976 1.67389,-3.0865 2.15716,-3.0865 0.48327,0 0.87868,-2.1 0.87868,-4.6667 0,-2.5666 0.24354,-4.4231 0.54119,-4.1254 0.29766,0.2976 0.70638,9.2601 0.90827,19.9166 0.36512,19.2717 1.19623,34.1032 2.17848,38.8755 0.73797,3.5855 12.78789,15 15.835,15 2.62553,0 5.68842,3.442 4.89735,5.5035 -0.42518,1.108 -8.11773,4.696 -9.39372,4.3815 -0.25661,-0.063 -2.04157,-0.4299 -3.96657,-0.8148 z m -57,-2.3575 c 0,-1.2126 3.27469,-6.7127 3.9966,-6.7127 0.98792,0 -1.67005,5.6802 -3.05992,6.5391 -0.51518,0.3184 -0.93668,0.3965 -0.93668,0.1736 z m 40.62354,-10.2514 c -0.96498,-2.5146 -0.68031,-3.1635 0.49853,-1.1363 0.58369,1.0038 0.8506,2.0357 0.59313,2.2931 -0.25747,0.2575 -0.74872,-0.2631 -1.09166,-1.1568 z m -33.62354,-41.4613 c 0,-0.55 0.42344,-1 0.94098,-1 0.51754,0 1.2191,0.45 1.55902,1 0.33992,0.55 -0.0835,1 -0.94098,1 -0.85746,0 -1.55902,-0.45 -1.55902,-1 z m -2.98469,-6.5589 c 0.008,-0.5176 0.34592,-1.3911 0.75,-1.9411 1.04658,-1.4245 7.23469,-3.5049 7.23469,-2.4322 0,0.4918 -1.2375,1.1816 -2.75,1.5331 -1.5125,0.3514 -3.3125,1.346 -4,2.2102 -0.6875,0.8641 -1.24311,1.1477 -1.23469,0.63 z m 22.98469,-22.4706 c -1.06112,-0.7066 -0.31443,-0.8203 2.55201,-0.3885 4.36221,0.657 8.48892,-0.7813 14.07035,-4.9042 2.79471,-2.0644 2.97834,-2.5034 1.75,-4.1833 -0.7548,-1.0322 -1.37236,-2.8608 -1.37236,-4.0635 0,-2.1221 -2.09073,-8.213 -3.98006,-11.5951 -0.51673,-0.925 -0.57389,-2.9236 -0.12869,-4.5 0.88597,-3.1371 0.45696,-5.1305 -1.53217,-7.1197 -1.09266,-1.0926 -2.45331,-1.0351 -7.91484,0.3346 -3.73176,0.9359 -7.97364,1.3822 -9.76979,1.0281 -1.74595,-0.3443 -4.795,-0.6011 -6.77567,-0.5707 -2.07311,0.032 -4.14064,-0.5947 -4.87245,-1.4765 -1.54691,-1.8639 -3.02633,-1.9883 -3.02633,-0.2544 0,0.7025 -1.35,2.4619 -3,3.9098 -2.86229,2.5116 -3,2.5369 -3,0.5514 0,-1.1446 0.68407,-2.8369 1.52016,-3.7608 1.3607,-1.5035 1.35452,-2.394 -0.0589,-8.4885 -1.0157,-4.3796 -2.62835,-8.0817 -4.52016,-10.3768 -1.6176,-1.9625 -2.9411,-4.0708 -2.9411,-4.6853 0,-0.6144 -0.95108,-1.9744 -2.11351,-3.0221 -2.19459,-1.9781 -7.19599,-11.4288 -6.44541,-12.1794 0.23525,-0.2353 1.79042,1.9802 3.45593,4.9233 1.66551,2.9431 3.94502,5.9174 5.06559,6.6096 1.12057,0.6921 2.0374,2.0928 2.0374,3.1125 0,1.0197 1.34377,3.5449 2.98615,5.6116 2.83672,3.5695 4.99611,9.0409 5.00827,12.6899 0.003,1.0487 1.40401,2.1232 3.75558,2.8813 2.0625,0.6648 4.12146,1.4223 4.57547,1.6832 2.19557,1.2616 13.69719,1.1523 18.67453,-0.1776 5.0972,-1.3619 5.68309,-1.3361 8,0.3528 2.12873,1.5517 2.50135,2.6217 2.50909,7.205 0.008,4.7008 2.62579,14.4727 5.77098,21.5419 0.70631,1.5876 0.53166,2.7716 -0.65972,4.4725 -0.89119,1.2724 -1.62035,1.9693 -1.62035,1.5488 0,-0.4206 -1.95204,0.3793 -4.33786,1.7775 -4.51757,2.6474 -10.89728,3.3538 -13.66214,1.5126 z m -22,-36.9705 c 0,-0.55 -0.19844,-1 -0.44098,-1 -0.24254,0 -0.7191,0.45 -1.05902,1 -0.33992,0.55 -0.14148,1 0.44098,1 0.58246,0 1.05902,-0.45 1.05902,-1 z m 9.08333,21.5972 c 0.22917,-0.2215 4.69167,-0.9178 9.91667,-1.5473 5.225,-0.6296 10.625,-1.3767 12,-1.6604 2.00099,-0.4128 2.17774,-0.3088 0.88554,0.5212 -2.12797,1.3668 -24.11696,3.9575 -22.80221,2.6865 z m 6.91667,-3.2664 c 0,-1.1343 10.41135,-6.3197 12.77215,-6.3612 1.52167,-0.027 1.54085,-0.1398 0.16075,-0.9473 -1.02484,-0.5997 -4.12587,-0.2588 -8.96188,0.9852 -4.06713,1.0461 -7.58884,1.708 -7.82603,1.4708 -0.23718,-0.2372 0.19566,-0.6326 0.96188,-0.8788 5.09728,-1.6377 8.99396,-2.5763 13.06969,-3.1483 4.06847,-0.5709 4.64364,-0.4319 4.42336,1.069 -0.15573,1.061 -2.48608,2.6337 -6.05263,4.0847 -3.18967,1.2977 -6.41768,2.8726 -7.17335,3.4997 -0.75567,0.6272 -1.37394,0.7289 -1.37394,0.2262 z m -15.52402,-4.6396 c 3.6368,-2.1924 8.68052,-7.629 8.03967,-8.6659 -0.34852,-0.5639 -1.58213,-1.0253 -2.74133,-1.0253 -1.15921,0 -1.85519,-0.2525 -1.54663,-0.561 0.30856,-0.3086 3.20937,-0.014 6.44623,0.6545 4.91803,1.0158 7.03072,0.9582 12.85564,-0.3507 3.83374,-0.8614 7.14535,-1.3935 7.35913,-1.1825 1.04381,1.0305 -6.25651,2.7621 -13.45132,3.1906 -6.98847,0.4163 -8.18752,0.7613 -9,2.5901 -0.99155,2.2318 -6.97228,6.6996 -8.83525,6.6002 -0.60617,-0.032 -0.21293,-0.5948 0.87386,-1.25 z m -0.39703,-5.2745 c 0.048,-1.165 0.28494,-1.4019 0.60416,-0.6042 0.28887,0.7219 0.25335,1.5844 -0.0789,1.9167 -0.3323,0.3323 -0.56864,-0.2584 -0.52522,-1.3125 z m 0.93636,-3.1077 c 0.008,-0.4449 0.45153,-1.484 0.98469,-2.309 0.8354,-1.2927 0.97149,-1.2663 0.98469,0.191 0.008,0.93 -0.43469,1.9691 -0.98469,2.309 -0.55,0.3399 -0.99311,0.254 -0.98469,-0.191 z m 14.26237,-8.559 c -0.53197,-0.6875 -1.27237,-2.1011 -1.64534,-3.1414 -0.57521,-1.6044 -0.447,-1.6997 0.84477,-0.6276 0.83759,0.6951 1.52289,1.8508 1.52289,2.5681 0,0.7174 0.7875,1.5101 1.75,1.7616 1.47646,0.3858 1.4956,0.4754 0.12244,0.5733 -0.89515,0.064 -2.0628,-0.4465 -2.59476,-1.134 z m 14.88021,-5.75 c 0,-1.375 0.22698,-1.9375 0.50439,-1.25 0.27741,0.6875 0.27741,1.8125 0,2.5 -0.27741,0.6875 -0.50439,0.125 -0.50439,-1.25 z m 2.52612,-5.0203 c -0.33722,-2.8472 -0.13377,-6.0932 0.46415,-7.4055 0.74685,-1.6392 0.75272,-3.7894 0.0197,-7.2053 -0.64123,-2.988 -0.68231,-4.9977 -0.10634,-5.2022 0.51619,-0.1834 0.97015,-1.9834 1.00881,-4 0.0552,-2.8788 0.24317,-3.2369 0.87486,-1.6667 0.44252,1.1 0.62995,2.3041 0.4165,2.6759 -0.21344,0.3717 -0.61318,6.6403 -0.88829,13.9301 -0.27512,7.2898 -0.65519,13.4092 -0.8446,13.5986 -0.18941,0.1894 -0.61455,-1.9368 -0.94475,-4.7249 z m -20.81808,0.2764 c -3.56136,-4.298 -3.96359,-5.4922 -0.8549,-2.5382 1.86252,1.7699 3.14422,3.4602 2.84822,3.7562 -0.296,0.296 -1.19299,-0.2521 -1.99332,-1.218 z m 5.85265,0.6724 c 0.42978,-0.4039 1.66353,-0.8933 2.74166,-1.0875 2.36832,-0.4266 3.7999,-6.0266 2.44898,-9.5798 -1.17923,-3.1016 -1.18537,-10.3619 -0.007,-8.2612 1.40754,2.5092 2.22463,13.5361 1.20228,16.2251 -0.67139,1.7659 -1.8952,2.664 -4.06401,2.9823 -1.70684,0.2505 -2.7517,0.125 -2.32192,-0.2789 z m 12.12751,-6.373 c 0.87903,-2.4445 1.75445,-4.2883 1.94538,-4.0974 0.57906,0.5791 -2.05521,8.5419 -2.82583,8.5419 -0.39478,0 10e-4,-2 0.88045,-4.4445 z m -26.03359,-0.2386 c 0.72187,-0.2889 1.58437,-0.2534 1.91667,0.079 0.33229,0.3323 -0.25834,0.5686 -1.3125,0.5252 -1.16495,-0.048 -1.4019,-0.2849 -0.60417,-0.6042 z m -5.8125,-2.6705 c 2.61976,-1.3875 4.43864,-1.1651 3.45729,0.4227 -0.31643,0.512 -1.78627,0.9243 -3.26631,0.9162 l -2.69098,-0.015 2.5,-1.3241 z m 16.88967,-0.3964 c 0.81433,-1.5518 2.0231,-2.214 3.89551,-2.134 2.08543,0.089 2.25115,0.229 0.71482,0.6032 -1.1,0.268 -2.85298,1.2283 -3.89551,2.134 -1.8096,1.5722 -1.84199,1.5448 -0.71482,-0.6032 z m -10.88967,-2.25 c -1.17323,-0.7582 -0.91378,-0.9727 1.19098,-0.9847 1.48004,-0.01 2.9691,0.4347 3.30902,0.9847 0.78917,1.2769 -2.52414,1.2769 -4.5,0 z m 7,-0.8928 c 0,-0.4385 0.9,-1.6117 2,-2.6072 1.1,-0.9955 2,-2.3994 2,-3.1198 0,-0.7204 1.0125,-1.8411 2.25,-2.4905 2.18331,-1.1457 2.19813,-1.1222 0.5,0.7935 -0.9625,1.0859 -1.75,2.3372 -1.75,2.7809 0,0.4436 -1.125,1.8492 -2.5,3.1235 -1.375,1.2743 -2.5,1.9581 -2.5,1.5196 z m -14,-0.8392 c 1.375,-0.2528 3.0625,-0.9216 3.75,-1.4863 0.90822,-0.7459 1.25,-0.583 1.25,0.5959 0,1.2323 -0.90159,1.5897 -3.75,1.4862 -2.76437,-0.1004 -3.09291,-0.257 -1.25,-0.5958 z m 32,-1.9633 c 0,-0.9324 -1.20919,-2.9574 -2.68709,-4.5 -1.4779,-1.5426 -2.2654,-2.7969 -1.75,-2.7874 2.57045,0.047 8.04589,8.9827 5.50448,8.9827 -0.58707,0 -1.06739,-0.7629 -1.06739,-1.6953 z m -34.84211,-2.3047 c 0,-1.375 0.22698,-1.9375 0.50439,-1.25 0.27741,0.6875 0.27741,1.8125 0,2.5 -0.27741,0.6875 -0.50439,0.125 -0.50439,-1.25 z m 13.41101,-3.319 c 0.62987,-1.6414 9.4311,-6.0154 9.4311,-4.6871 0,0.5324 -1.09188,1.242 -2.4264,1.577 -1.33453,0.3349 -3.20427,1.4685 -4.15499,2.519 -1.98803,2.1968 -3.59365,2.5298 -2.84971,0.5911 z m -10.40251,-5.5274 c -4.90242,-4.5259 -5.55788,-6.483 -0.99197,-2.9619 2.92211,2.2535 6.6779,6.8083 5.61394,6.8083 -0.25057,0 -2.33046,-1.7309 -4.62197,-3.8464 z m 33.36726,-0.6536 c 0.34575,-1.65 0.9907,-5.7 1.43322,-9 1.26047,-9.3995 2.2215,-13.5 3.16397,-13.5 1.07756,0 1.12789,-0.4242 -0.64166,5.4089 -0.81905,2.6999 -1.48918,6.8108 -1.48918,9.1352 0,2.3245 -0.69637,5.7404 -1.54749,7.5911 -1.53931,3.347 -1.54416,3.3489 -0.91886,0.3648 z m -7.72115,0.8169 c 0.72187,-0.2889 1.58437,-0.2534 1.91667,0.079 0.33229,0.3323 -0.25834,0.5686 -1.3125,0.5252 -1.16495,-0.048 -1.4019,-0.2849 -0.60417,-0.6042 z m -61.55334,-5.0669 c -3.29767,-2.6125 -7.29252,-5.7726 -8.87746,-7.0225 -2.3529,-1.8556 -2.05593,-1.7856 1.6183,0.3812 2.475,1.4595 6.36235,4.1587 8.63855,5.9981 4.68615,3.787 7.00873,4.1312 16.73861,2.4807 6.10829,-1.0361 8.79479,-0.9199 7.53951,0.3261 -0.47149,0.468 -15.10112,2.5864 -17.86157,2.5864 -0.9901,0 -4.49827,-2.1375 -7.79594,-4.75 z m 73.96802,0.5057 c 0.16684,-2.2003 0.90824,-2.9558 3.74045,-3.8114 10.25448,-3.0982 11.81525,-4.0435 16.4808,-9.982 4.90853,-6.2477 5.08793,-7.0151 1.01639,-4.3473 -1.35565,0.8883 -2.46482,1.1855 -2.46482,0.6605 0,-1.2443 4.88459,-3.4649 6.04467,-2.7479 0.49214,0.3042 1.55976,-1.0384 2.37248,-2.9836 1.34312,-3.2145 1.30392,-4.0416 -0.43042,-9.0826 -2.14618,-6.238 -3.59995,-8.2936 -12.21599,-17.2736 -5.81197,-6.0574 -6.17087,-6.2647 -8.89414,-5.1367 -3.66046,1.5162 -8.03376,0.522 -7.20492,-1.6379 0.3306,-0.8615 1.62905,-1.9572 2.88544,-2.4349 1.72986,-0.6577 2.14456,-1.4031 1.70845,-3.0708 -0.52359,-2.0022 -0.31219,-2.136 2.32722,-1.4736 1.59671,0.4008 3.06159,0.8872 3.2553,1.0809 0.82925,0.8292 -1.35367,2.803 -4.72017,4.268 -2.4819,1.08 -3.09894,1.6982 -1.95334,1.9568 1.67015,0.377 9.23928,-2.9822 10.19159,-4.5231 0.72492,-1.1729 -0.50139,-2.6034 -3.36617,-3.9265 -1.54876,-0.7153 -1.8975,-1.1804 -0.91653,-1.2223 0.87091,-0.037 19.97512,-8.826 42.45377,-19.5306 22.4787,-10.7045 41.0786,-19.2545 41.3332,-19 0.6785,0.6786 2.6898,-0.3245 -39.8705,19.884 -21.72494,10.3155 -39.71191,18.9652 -39.97098,19.2215 -0.25907,0.2564 0.13933,0.8434 0.88535,1.3044 1.51829,0.9384 0.72962,6.053 -0.93336,6.053 -2.14631,0 -0.6638,2.1323 6.43228,9.2514 5.49835,5.5162 7.74384,8.5753 8.6932,11.843 0.70398,2.4231 1.91627,5.4127 2.69396,6.6437 1.25837,1.9917 1.17162,2.703 -0.78818,6.463 -2.57324,4.9368 -4.6833,7.7528 -10.08974,13.4652 -2.96906,3.137 -5.48027,4.6253 -10.16541,6.0243 -4.54602,1.3575 -6.5611,2.525 -7.48011,4.3337 l -1.25786,2.4757 0.20809,-2.7443 z m -34.22718,-2.2557 c -1.375,-0.786 -2.05,-1.4291 -1.5,-1.4291 0.55,0 2.125,0.6431 3.5,1.4291 1.375,0.786 2.05,1.4291 1.5,1.4291 -0.55,0 -2.125,-0.6431 -3.5,-1.4291 z m -17.55887,-2.0816 c -1.9136,-1.5592 -1.91277,-1.5716 0.0589,-0.8714 1.1,0.3906 3.07736,0.9422 4.39413,1.2257 2.13581,0.4599 2.33959,0.2303 1.88867,-2.1286 -0.278,-1.4542 -0.27997,-2.6441 -0.004,-2.6441 0.85232,0 3.1562,3.4308 3.18977,4.75 0.0465,1.8278 -7.18574,1.5761 -9.52707,-0.3316 z m -11.40886,-2.0008 c -3.36303,-1.4587 -4.98539,-3.0039 -5.01696,-4.7784 -0.008,-0.4734 0.83406,0.1882 1.87219,1.4702 1.45585,1.7979 2.88513,2.3302 6.25,2.3277 2.39937,0 5.15,-0.374 6.1125,-0.8271 1.0549,-0.4967 1.75,-0.4231 1.75,0.1852 0,0.8772 -5.22515,3.2747 -6.89922,3.1657 -0.33043,-0.022 -2.16126,-0.716 -4.06851,-1.5433 z m 68.05106,-1.7769 c 1.19443,-1.0301 5.91667,-1.5566 5.91667,-0.6598 0,0.5605 -1.425,1.0191 -3.16667,1.0191 -1.74166,0 -2.97916,-0.1617 -2.75,-0.3593 z m -23.69032,-2.2225 c 0.33385,-0.87 0.60699,-1.7489 0.60699,-1.9532 0,-0.3942 8.90004,-4.465 9.76198,-4.465 0.27925,0 -0.63643,0.9 -2.03485,2 -1.39842,1.1 -3.20401,2 -4.01241,2 -1.7677,0 -3.96514,2.4162 -3.03938,3.342 0.3619,0.3619 0.0848,0.658 -0.61566,0.658 -0.75057,0 -1.02437,-0.6496 -0.66667,-1.5818 z m 18.60699,1.2699 c 0,-0.1716 1.35,-1.3101 3,-2.53 3.50328,-2.5901 3.96404,-2.1341 0.81144,0.8029 -1.92196,1.7906 -3.81144,2.6468 -3.81144,1.7271 z m -87.54112,-1.7546 c -0.36253,-0.5866 -0.44468,-1.281 -0.18255,-1.5432 0.26212,-0.2621 0.74306,0.2179 1.06875,1.0666 0.67618,1.7621 0.0998,2.072 -0.8862,0.4766 z m 45.17054,-3.1835 c -3.12099,-3.0238 -4.62189,-3.75 -7.75,-3.75 -4.73049,0 -4.88223,1.0647 -0.62942,4.4164 3.61144,2.8463 3.45954,3.0755 -1.00634,1.5187 -1.82529,-0.6363 -3.52182,-2.1924 -4.21517,-3.8663 -1.34436,-3.2456 -4.69601,-5.3188 -8.59864,-5.3188 -2.01495,0 -2.33687,-0.2225 -1.22336,-0.8457 1.85165,-1.0362 7.42922,0.4561 9.83202,2.6306 1.16587,1.055 1.98588,1.2346 2.42123,0.5302 0.94413,-1.5276 5.16096,-1.3126 8.54148,0.4355 2.36044,1.2207 3.42405,1.2762 5.70034,0.2976 3.80792,-1.6372 3.58636,-1.3288 4.35851,-6.0668 l 0.6896,-4.2314 0.12516,3.75 c 0.13195,3.9532 -2.50121,7.75 -5.37483,7.75 -2.04738,0 -1.88287,1.3435 0.41965,3.4273 1.2231,1.1069 3.30949,1.6722 5.75,1.5581 6.22417,-0.2912 9.33035,-0.035 9.33035,0.7696 0,0.4153 -3.2625,0.7528 -7.25,0.75 -7.02022,0 -7.37267,-0.1239 -11.12058,-3.755 z m -45.56603,-0.679 c -0.0349,-0.786 0.37453,-2.811 0.90976,-4.5 0.53523,-1.6891 1.23889,-5.2157 1.56367,-7.837 0.42853,-3.4586 1.94273,-6.7504 5.51986,-12 2.71114,-3.9787 4.93249,-7.7166 4.93633,-8.3064 0.004,-0.5898 -1.76092,-2.2298 -3.92171,-3.6445 -3.83039,-2.5079 -4.5998,-2.6025 -30.75,-3.7811 -24.63854,-1.1106 -28.43239,-1.4319 -27.23797,-2.3074 0.96233,-0.7053 56.24409,2.2057 56.80369,2.9912 1.70935,2.3993 6.38833,4.1389 12.88849,4.7917 6.26061,0.6287 7.22449,0.5118 7.22449,-0.876 0,-1.3233 -1.2759,-1.6015 -7.34501,-1.6015 -6.05178,0 -7.6607,-0.3488 -9.13797,-1.9812 -1.73552,-1.9177 -1.71646,-2.0118 0.59502,-2.9366 2.32168,-0.9289 2.32715,-0.9572 0.19698,-1.0188 -1.20504,-0.035 -2.4691,0.3866 -2.80902,0.9366 -0.33992,0.55 -1.15398,0.9857 -1.80902,0.9682 -1.83898,-0.049 2.4663,-2.9682 4.3777,-2.9682 0.92754,0 2.24663,0.675 2.93132,1.5 0.8601,1.0364 0.89795,1.5 0.12244,1.5 -0.61734,0 -1.12244,0.45 -1.12244,1 0,1.9118 2.86714,0.9844 4.88417,-1.5799 1.98001,-2.5171 2.16636,-2.5514 7.6668,-1.4095 3.1006,0.6437 6.44602,1.8626 7.43425,2.7088 1.72611,1.4779 1.71824,1.7274 -0.20001,6.3433 -1.61092,3.8763 -2.74192,5.1029 -5.85257,6.3476 -5.41432,2.1664 -7.26953,5.5433 -8.05284,14.6582 -0.36502,4.2476 -1.1838,8.5573 -1.81949,9.5772 -1.04869,1.6825 -1.09912,1.6468 -0.5441,-0.3849 0.33644,-1.2315 0.74848,-5.1224 0.91564,-8.6463 0.39116,-8.2459 3.61217,-14.4106 8.80856,-16.8589 3.92907,-1.8512 7.13461,-6.6147 6.16013,-9.1542 -0.78733,-2.0517 -3.97053,-2.9682 -9.40054,-2.7064 -8.61636,0.4155 -6.95611,2.2613 3,3.3353 1.90082,0.2051 2.5,0.8476 2.5,2.6807 0,2.3601 -0.16372,2.4062 -7.75,2.1847 -4.66131,-0.1361 -7.75,0.1731 -7.75,0.7758 0,0.5511 -2.05625,4.0055 -4.56945,7.6764 -3.53125,5.158 -4.88026,8.2964 -5.93744,13.8133 -1.39704,7.2904 -3.31565,13.2816 -3.42972,10.7098 z m 60.91655,-0.5952 c -0.69572,-0.8383 -1.07128,-1.7178 -0.83459,-1.9545 0.2367,-0.2367 0.97964,0.4492 1.65098,1.5242 1.45181,2.3247 0.96763,2.5799 -0.81639,0.4303 z m 8.02006,-2.3269 c 0,-1.6116 -0.61027,-2.1489 -2.44098,-2.1489 -1.34254,0 -2.7191,-0.45 -3.05902,-1 -0.33992,-0.55 -1.47992,-1 -2.53334,-1 -1.13729,0 -2.57751,-1.2806 -3.54554,-3.1525 -0.89664,-1.7339 -2.89166,-4.214 -4.43339,-5.5113 -2.10756,-1.7734 -2.9751,-3.609 -3.49613,-7.3972 -1.20736,-8.7787 2.2173,-13.3959 10.688,-14.4101 l 4.3204,-0.5173 -3.46346,1.0781 c -5.21627,1.6237 -8.76729,4.5644 -9.99172,8.2745 -1.15051,3.4861 -0.50431,7.0378 1.10005,6.0463 0.54107,-0.3344 0.6759,0.4554 0.31989,1.8739 -0.46469,1.8514 -0.0236,2.9175 1.80111,4.3528 1.32908,1.0454 2.97646,2.9471 3.66084,4.2259 1.51709,2.8347 9.37814,6.4923 12.09807,5.629 2.58805,-0.8214 3.47522,-4.3148 3.47522,-13.6843 0,-5.2458 0.26846,-6.9951 0.8441,-5.5 1.51544,3.9358 0.004,14.932 -2.76976,20.1484 -1.79845,3.3824 -2.57434,4.194 -2.57434,2.6927 z m 22.8125,1.168 c 0.72187,-0.2889 1.58437,-0.2534 1.91667,0.079 0.33229,0.3323 -0.25834,0.5687 -1.3125,0.5253 -1.16495,-0.048 -1.4019,-0.285 -0.60417,-0.6042 z m 6.1875,-1.3421 c 2.05522,-0.4818 4.63518,-2.1783 6.25,-4.1099 1.5125,-1.8091 2.75,-2.7092 2.75,-2.0002 0,0.709 -1.31538,2.6045 -2.92308,4.2122 -2.13405,2.1341 -3.82111,2.8955 -6.25,2.8207 l -3.32692,-0.1023 3.5,-0.8205 z m -26,-2.1026 c 0,-0.7534 1.31165,-0.9181 3.95062,-0.4961 3.33544,0.5334 4.33021,0.2522 6.38828,-1.8059 1.3407,-1.3407 4.16513,-2.7617 6.27651,-3.1578 2.16219,-0.4057 4.62458,-1.7191 5.63782,-3.0072 0.98942,-1.2578 2.6907,-2.57 3.78063,-2.9159 1.8174,-0.5769 1.85669,-0.8075 0.47392,-2.7817 -0.82928,-1.1839 -1.50778,-3.757 -1.50778,-5.7179 0,-2.4666 -0.89094,-4.6321 -2.8913,-7.0275 -2.69459,-3.2266 -3.28992,-3.4622 -8.75,-3.4622 -5.00967,0 -6.40214,-0.4348 -9.60867,-3 -2.06248,-1.65 -3.74998,-3.7875 -3.75,-4.75 -3e-5,-1.9645 1.98711,-2.4557 2.02274,-0.5 0.0125,0.6875 0.72267,-0.169 1.5781,-1.9034 1.1593,-2.3504 2.45266,-3.3217 5.07941,-3.8144 1.93825,-0.3637 3.71873,-0.4665 3.95663,-0.2286 0.23789,0.2379 -0.91267,0.7016 -2.55681,1.0304 -1.64414,0.3288 -3.72081,1.7142 -4.61482,3.0786 -1.40466,2.1438 -1.4423,2.8617 -0.27706,5.2841 1.26635,2.6327 1.73441,2.8039 7.6903,2.8136 6.14593,0.01 6.44355,0.1314 9.63265,3.93 1.91964,2.2865 3.55228,5.555 3.9184,7.8446 0.94075,5.8832 3.13486,9.3557 6.79005,10.7463 2.54049,0.9666 2.86783,1.3494 1.45128,1.697 -1.006,0.2469 -3.11033,-0.082 -4.67628,-0.7304 -3.58776,-1.4861 -6.38645,-0.628 -7.75613,2.3781 -0.79008,1.7341 -2.14542,2.4824 -5.25005,2.8988 -2.30176,0.3088 -5.1823,1.4982 -6.40118,2.6433 -2.4269,2.28 -10.58726,3.0154 -10.58726,0.9542 z m 0,-25.9199 c 0,-0.5763 -1.19071,-2.1513 -2.64602,-3.5 -1.45532,-1.3488 -2.14785,-2.4523 -1.53896,-2.4523 1.49165,0 5.18498,4.052 5.18498,5.6886 0,0.7213 -0.225,1.3114 -0.5,1.3114 -0.275,0 -0.5,-0.4715 -0.5,-1.0477 z m 15,-19.9332 c 0,-0.5605 1.425,-1.0191 3.16667,-1.0191 3.64127,0 3.50932,0.4365 -0.41667,1.3784 -1.63254,0.3916 -2.75,0.2456 -2.75,-0.3593 z"
       id="path3973"
       inkscape:connector-curvature="0" />
  </g>
</svg>
