<?xml version="1.0" encoding="UTF-8" standalone="no"?>
<!-- Created with Inkscape (http://www.inkscape.org/) -->

<svg
   xmlns:dc="http://purl.org/dc/elements/1.1/"
   xmlns:cc="http://creativecommons.org/ns#"
   xmlns:rdf="http://www.w3.org/1999/02/22-rdf-syntax-ns#"
   xmlns:svg="http://www.w3.org/2000/svg"
   xmlns="http://www.w3.org/2000/svg"
   xmlns:sodipodi="http://sodipodi.sourceforge.net/DTD/sodipodi-0.dtd"
   xmlns:inkscape="http://www.inkscape.org/namespaces/inkscape"
   width="238.43355"
   height="220.64949"
   id="svg2"
   version="1.1"
   inkscape:version="0.48.3.1 r9886"
   sodipodi:docname="One-leg-squat-2.svg">
  <defs
     id="defs4" />
  <sodipodi:namedview
     id="base"
     pagecolor="#ffffff"
     bordercolor="#666666"
     borderopacity="1.0"
     inkscape:pageopacity="0.0"
     inkscape:pageshadow="2"
     inkscape:zoom="1.979899"
     inkscape:cx="207.08514"
     inkscape:cy="125.66578"
     inkscape:document-units="px"
     inkscape:current-layer="layer1"
     showgrid="false"
     fit-margin-top="0"
     fit-margin-left="0"
     fit-margin-right="0"
     fit-margin-bottom="0"
     inkscape:window-width="1855"
     inkscape:window-height="1056"
     inkscape:window-x="65"
     inkscape:window-y="24"
     inkscape:window-maximized="1" />
  <metadata
     id="metadata7">
    <rdf:RDF>
      <cc:Work
         rdf:about="">
        <dc:format>image/svg+xml</dc:format>
        <dc:type
           rdf:resource="http://purl.org/dc/dcmitype/StillImage" />
        <dc:title></dc:title>
      </cc:Work>
    </rdf:RDF>
  </metadata>
  <g
     inkscape:label="Ebene 1"
     inkscape:groupmode="layer"
     id="layer1"
     transform="translate(-557.59642,-858.17242)">
    <path
       style="fill:#000000"
       d=""
       id="path3414"
       inkscape:connector-curvature="0" />
    <path
       style="fill:#000000"
       d=""
       id="path3412"
       inkscape:connector-curvature="0" />
    <path
       style="fill:#000000"
       d="m 632.9943,1076.3504 c -2.50284,-1.6971 -3.31093,-2.9092 -3.06777,-4.6018 0.31988,-2.2267 7.85443,-12.9172 11.43455,-16.2242 2.18878,-2.0217 1.85399,-2.9659 -4.94933,-13.9577 -6.17581,-9.9779 -6.71706,-13.7315 -2.86087,-19.8401 2.15446,-3.4129 3.22391,-4.0748 8.75,-5.4152 3.46255,-0.8399 8.09554,-2.2116 10.29554,-3.0482 2.2,-0.8365 4.76514,-1.5407 5.70031,-1.5649 0.93517,-0.024 2.08574,-0.7326 2.55683,-1.5744 1.15084,-2.0564 -1.0718,-14.77455 -3.13135,-17.91775 -0.89419,-1.3647 -1.62579,-3.117 -1.62579,-3.894 0,-0.7771 -0.66738,-1.9667 -1.48307,-2.6436 -0.81569,-0.677 -2.24786,-3.6571 -3.18262,-6.6225 -1.64967,-5.2333 -1.80721,-5.3916 -5.36771,-5.3916 -5.82457,0 -10.05318,-1.99132 -15.2375,-7.17563 -2.65339,-2.65339 -5.22259,-4.82434 -5.70933,-4.82434 -0.48675,0 -1.14216,-0.81027 -1.45648,-1.80059 -0.31432,-0.99033 -2.10093,-2.35365 -3.97024,-3.0296 -1.86931,-0.67595 -5.20265,-3.12819 -7.40741,-5.44941 -6.36623,-6.7025 -15.18564,-17.13495 -15.18564,-17.96304 0,-0.41655 -2.36675,-0.75736 -5.25945,-0.75736 -4.17645,0 -5.51665,0.41183 -6.50848,2 -1.47682,2.36478 -3.98522,2.56163 -6.87244,0.53934 -1.36404,-0.95541 -5.33243,-1.57543 -11.47251,-1.79246 l -9.38712,-0.3318 9.75,-0.20754 9.75,-0.20754 0,-3.02018 0,-3.02019 -9.75,0.53689 c -6.49542,0.35767 -9.08239,0.22097 -7.75,-0.40953 1.1,-0.52053 5.4324,-0.97805 9.62755,-1.0167 5.4931,-0.0506 7.97592,-0.49004 8.87245,-1.57029 1.99336,-2.40185 5.87844,-1.8609 7.18195,1 1.01151,2.22002 1.74738,2.5 6.57084,2.5 3.91755,0 6.14054,-0.55753 7.97434,-2 3.28226,-2.58183 10.55146,-2.72137 13.02296,-0.25 1.62943,1.62933 6.05966,1.75 64.25,1.75 58.19039,0 62.62058,-0.12067 64.24991,-1.75 2.47138,-2.47138 9.7406,-2.33183 13.02287,0.25 1.47818,1.16274 4.05678,2 6.15961,2 2.93802,0 3.79545,-0.46931 4.56752,-2.5 1.09197,-2.87209 4.98477,-3.42821 7,-1 0.88381,1.06493 3.31222,1.51672 8.37244,1.55763 3.92016,0.0317 8.92756,0.46789 11.12756,0.96931 2.90493,0.66209 0.92011,0.78961 -7.25,0.46578 l -11.25,-0.44589 0,2.94383 0,2.94384 11.25,0.31899 11.25,0.319 -11.12756,0.21375 c -8.47478,0.1628 -11.42433,0.57136 -12.37244,1.71376 -1.24646,1.5019 -5.12166,2.04501 -6.28571,0.88095 -0.34048,-0.34047 0.0345,-1.27262 0.83333,-2.07143 1.65306,-1.65306 1.894,-6.07877 0.45238,-8.30952 -0.70991,-1.09851 -0.97347,-0.36246 -0.98469,2.75 l -0.0153,4.25 -4.5,0 c -2.475,0 -4.5,0.34081 -4.5,0.75736 0,0.81625 -8.77325,11.20963 -15.00969,17.78149 -2.108,2.22137 -5.10568,4.69215 -6.66151,5.49063 -2.91502,1.49602 -8.57593,6.33962 -13.19659,11.2913 -3.26273,3.49646 -8.24255,5.67559 -13.00433,5.69069 -3.29427,0.01 -3.80421,0.4012 -5.54543,4.25 -1.8581,4.1071 -2.94149,6.3742 -6.56538,13.7385 -2.27146,4.616 -4.40472,15.20325 -3.58423,17.78835 0.46385,1.4615 1.85862,2.25 4.85889,2.7469 2.31455,0.3834 5.04629,1.1376 6.07054,1.6761 1.69549,0.8915 1.51834,1.2617 -1.97802,4.1339 -7.45903,6.1275 -10.38425,9.8793 -10.38425,13.3187 l 0,3.2473 -4.25,-1.5852 c -5.16755,-1.9275 -16.38436,-2.1765 -19.58565,-0.4348 -1.2846,0.6989 -2.55015,1.0563 -2.81233,0.7941 -0.78035,-0.7804 5.28537,-3.4483 9.4331,-4.1491 3.47783,-0.5875 6.9732,0.1687 13.32892,2.8838 1.24301,0.5311 1.76581,-0.069 2.27429,-2.6117 0.44938,-2.2469 2.56136,-5.1104 6.61244,-8.9652 l 5.95217,-5.6639 -3.12569,-1.0897 c -1.71913,-0.5992 -3.9104,-1.0896 -4.86948,-1.0896 -0.95909,0 -1.98956,-0.6404 -2.28993,-1.4232 -0.45489,-1.1854 -1.17645,-1.1019 -4.31843,0.5 -5.33542,2.7202 -16.9761,2.6645 -22.40897,-0.1072 -3.31026,-1.6887 -4.07235,-1.7894 -4.52943,-0.5982 -0.30225,0.7876 -2.20245,1.7421 -4.22266,2.1211 -2.02022,0.379 -4.0428,0.9176 -4.49464,1.1968 -0.45184,0.2793 1.90723,3.3495 5.24238,6.8227 5.11757,5.3294 6.06391,6.8746 6.06391,9.9015 0,1.9726 -0.49814,3.5865 -1.10699,3.5865 -0.60884,0 -0.85283,-0.6623 -0.5422,-1.4718 0.31064,-0.8095 0.0898,-2.8345 -0.49083,-4.5 -1.14298,-3.2787 -4.25188,-4.0805 -6.895,-1.7782 -0.78926,0.6875 -0.43547,0.1026 0.78621,-1.2997 l 2.22122,-2.5498 -4.36896,-3.652 c -4.11241,-3.4375 -4.59604,-3.5931 -8.2362,-2.6483 -7.03113,1.825 -9.44531,3.1501 -10.91441,5.991 -2.15602,4.1693 -1.6446,9.7821 1.37847,15.1286 6.4051,11.3278 9.40145,15.7802 10.61964,15.7802 0.71729,0 1.92176,0.7487 2.67661,1.6638 1.24816,1.513 1.16263,1.5519 -0.94462,0.4289 -1.91106,-1.0184 -2.74336,-0.9555 -4.75,0.3593 -1.33812,0.8768 -2.43294,2.0325 -2.43294,2.5682 0,0.5357 -1.55618,2.6966 -3.45818,4.8019 -1.90201,2.1052 -3.95102,5.124 -4.55336,6.7083 -0.96126,2.5283 -0.81351,3.0973 1.20818,4.6528 4.43251,3.4106 11.72251,1.8077 14.28114,-3.1402 2.38719,-4.6163 3.56691,-3.6404 1.25296,1.0364 -3.12457,6.3154 -10.51204,7.9026 -16.83286,3.6166 z m 54.10212,-66.0854 c 4.45656,-2.2444 4.50749,-2.3283 5.27556,-8.6884 0.42656,-3.53215 1.6348,-8.22215 2.68498,-10.42215 1.05018,-2.2 3.28868,-6.8513 4.97444,-10.3362 3.18457,-6.5834 3.7706,-9.60966 2.06502,-10.66377 -0.55,-0.33992 -1,-1.11992 -1,-1.73333 0,-0.61341 1.0415,-0.13686 2.31445,1.05902 3.47212,3.26188 10.53532,3.01308 14.73298,-0.51905 2.87474,-2.41894 3.00992,-2.76113 1.32672,-3.35847 -1.52563,-0.54141 -1.28229,-0.79643 1.30853,-1.3713 1.75047,-0.38842 5.12547,-2.37574 7.5,-4.41628 2.37452,-2.04054 6.16231,-4.89815 8.41731,-6.35024 2.25499,-1.4521 6.30499,-5.26188 9,-8.46619 2.695,-3.20431 5.91251,-6.65026 7.15001,-7.65767 3.13291,-2.5504 3.1487,-8.94361 0.0275,-11.12979 -3.07126,-2.1512 -7.42117,-1.94661 -10.87312,0.51139 -3.49975,2.49204 -4.01301,6.82923 -0.90437,7.64216 4.05461,1.06031 2.61036,3.38358 -5.97148,9.60592 -2.45932,1.78314 -5.64287,4.96691 -7.07456,7.07502 -1.4317,2.10812 -3.46953,4.29293 -4.52852,4.85514 -1.58562,0.8418 -1.70483,0.78672 -0.67544,-0.31206 1.94873,-2.08011 1.4741,-3.82358 -1,-3.6733 -3.23419,0.19646 -14.77625,6.56575 -17.94363,9.90189 -1.4815,1.56043 -3.2815,2.82346 -4,2.80673 -0.80838,-0.0188 -0.64394,-0.41634 0.43137,-1.04283 5.03987,-2.93626 4.06542,-7.81581 -1.61018,-8.06294 -2.45196,-0.10677 -2.62879,-0.23147 -0.81861,-0.57728 1.26992,-0.2426 3.66719,0.0324 5.32727,0.6111 2.56721,0.89494 3.99893,0.60757 9.57937,-1.92272 3.60857,-1.63621 7.8982,-2.97492 9.53252,-2.97492 2.16966,0 4.44769,-1.34918 8.44227,-5 3.00894,-2.75 6.05443,-5 6.76776,-5 0.71334,0 1.84401,-0.65914 2.51261,-1.46475 0.97709,-1.17733 0.79152,-2.06037 -0.94565,-4.5 l -2.1613,-3.03525 -59.74385,0 -59.74384,0 -2.18806,2.95951 c -1.20343,1.62773 -2.18806,3.15997 -2.18806,3.40498 0,0.245 1.9125,1.57493 4.25,2.95538 2.3375,1.38045 5.80077,4.12321 7.69617,6.09502 2.65065,2.75753 4.24417,3.58511 6.90315,3.58511 1.90135,0 6.30068,1.34358 9.77629,2.98572 5.13506,2.42621 6.80515,2.801 8.91194,2 1.42596,-0.54214 3.80085,-0.93352 5.27755,-0.86972 1.97802,0.0855 2.15834,0.22735 0.6849,0.53894 -1.1,0.23261 -3.0125,0.63898 -4.25,0.90305 -3.01969,0.64435 -2.83582,2.01077 0.83285,6.18916 1.9517,2.22286 2.90021,4.20961 2.58508,5.4147 -0.32974,1.26091 0.30834,2.43172 1.89008,3.46812 1.50418,0.9856 2.61091,2.9163 2.99058,5.2173 0.33149,2.009 1.07924,4.9047 1.66166,6.4348 2.07459,5.4503 0.10567,3.5892 -2.16278,-2.0443 -1.27071,-3.1558 -3.03873,-6.8628 -3.92893,-8.2378 -1.62584,-2.51124 -1.79065,-3.02546 -2.00319,-6.24997 -0.0844,-1.28056 -0.98716,-1.75411 -3.36535,-1.76531 -2.44983,-0.0115 -2.88069,-0.25074 -1.75,-0.97154 2.38792,-1.52225 0.10174,-4.06365 -7.10257,-7.89547 -5.82228,-3.09675 -11.89743,-4.90049 -11.89743,-3.53241 0,0.30042 0.48406,1.45069 1.07569,2.55617 2.04305,3.81746 -2.37584,0.34394 -4.96089,-3.89957 -1.31185,-2.15349 -4.68685,-5.45139 -7.5,-7.32866 -7.7094,-5.14464 -9.55652,-8.17218 -5.6148,-9.20296 5.426,-1.41893 -0.27947,-9.71025 -6.68186,-9.71025 -6.91403,0 -10.05922,7.68891 -5.06814,12.38988 1.2375,1.16556 4.46023,4.72581 7.16161,7.91165 5.48677,6.47074 9.30229,9.51475 12.54695,10.00992 1.19876,0.18294 2.71098,1.42521 3.3605,2.76059 0.64952,1.33538 3.54632,3.627 6.43733,5.0925 2.89102,1.46549 4.69102,2.8974 4,3.18203 -0.84085,0.34634 -0.29716,1.3937 1.64383,3.16671 2.56462,2.34266 3.57452,2.61088 8.72743,2.31797 5.76739,-0.32785 5.83357,-0.30046 6.44704,2.66872 0.34091,1.65 2.60062,6.9672 5.02158,11.8159 2.91897,5.8462 4.61525,10.7307 5.03552,14.50015 0.34857,3.1261 1.35774,6.5145 2.2426,7.5296 4.23097,4.854 15.74545,5.9817 23.12561,2.2649 z m -18.94715,-2.6106 c -0.12073,-0.275 -0.34895,-1.4 -0.50715,-2.5 -0.15821,-1.1 -0.62608,-2.9 -1.03971,-3.9999 -0.64289,-1.70965 -0.50664,-1.67115 0.93849,0.2654 0.92982,1.246 1.49647,3.271 1.25923,4.5 -0.23724,1.229 -0.53013,2.0095 -0.65086,1.7345 z m 17.94715,-2.7743 c 0,-1.7092 0.44322,-3.3816 0.98494,-3.7164 0.61542,-0.3802 0.74912,0.6293 0.35636,2.691 -0.84223,4.4213 -1.3413,4.8028 -1.3413,1.0254 z m -14,-1.2257 c -0.825,-0.5331 -1.05,-0.9693 -0.5,-0.9693 0.55,0 1.675,0.4362 2.5,0.9693 0.825,0.5332 1.05,0.9694 0.5,0.9694 -0.55,0 -1.675,-0.4362 -2.5,-0.9694 z m 4.618,0.191 c -0.55953,-0.9054 0.26075,-11.40305 0.94444,-12.08665 0.24066,-0.2407 0.43756,1.9015 0.43756,4.7604 0,3.69815 0.43287,5.36415 1.5,5.77365 0.825,0.3166 1.5,0.9775 1.5,1.4686 0,1.1141 -3.70151,1.185 -4.382,0.084 z m -9.618,-7.41585 c 0,-0.8811 1.88078,-2.9852 4.17952,-4.6757 4.64806,-3.4182 6.71834,-3.3801 2.36586,0.044 -1.51797,1.194 -3.61167,3.0852 -4.65267,4.2026 -1.55725,1.6715 -1.89271,1.7476 -1.89271,0.4295 z m 15.5,-2.9847 c -2.2,-2.0785 -3.55,-3.775 -3,-3.7699 1.59401,0.015 8.94423,6.5996 7.92318,7.0982 -0.50775,0.2479 -2.72318,-1.2498 -4.92318,-3.3283 z m -19.5,-2.0402 c 0,-0.8977 0.47994,-1.9288 1.06653,-2.2913 1.71501,-1.0599 1.88329,-0.1107 0.35171,1.9838 -1.1861,1.6221 -1.41824,1.6724 -1.41824,0.3075 z m 6.26375,-5.4678 c 1.52006,-0.2298 3.77006,-0.2237 5,0.014 1.22994,0.2374 -0.0138,0.4255 -2.76375,0.418 -2.75,-0.01 -3.75631,-0.2018 -2.23625,-0.4316 z m 11.48625,0.012 c 1.2375,-0.2383 3.2625,-0.2383 4.5,0 1.2375,0.2384 0.225,0.4334 -2.25,0.4334 -2.475,0 -3.4875,-0.195 -2.25,-0.4334 z m 11.77241,-3.5194 c 0.71326,-4.754 3.21463,-10.77487 4.47642,-10.77487 0.53459,0 0.0315,2.36247 -1.11791,5.24997 -3.57254,8.9745 -3.97554,9.6375 -3.35851,5.5248 z m 15.48767,-12.66721 c -1.66238,-0.46269 -2.08469,-0.94346 -1.27067,-1.44656 1.11588,-0.68965 5.26059,0.78694 5.26059,1.87413 0,0.55964 -0.72042,0.48244 -3.98992,-0.42757 z m -33.04579,-2.53292 c -0.80536,-0.78393 -4.03672,-2.284 -7.1808,-3.33349 -3.94993,-1.31849 -5.39579,-2.2289 -4.67868,-2.94601 0.71711,-0.71711 0.20153,-1.69566 -1.66835,-3.16651 -3.0809,-2.42344 -2.49559,-2.86875 0.87114,-0.66279 1.29204,0.84658 3.22325,1.20805 4.57107,0.85559 2.2855,-0.59767 2.3193,-0.78464 1.63253,-9.02931 -0.82234,-9.87207 0.27029,-13.54481 4.55792,-15.3208 4.01309,-1.66227 9.37413,-0.47002 11.3336,2.52051 1.79125,2.73379 2.13576,10.9616 0.62533,14.93434 -1.81759,4.78063 1.93456,8.69235 6.22195,6.48656 1.85685,-0.95532 2.03158,-0.92652 1,0.16481 -0.6875,0.72733 -1.25,1.93397 -1.25,2.68143 0,0.79693 0.517,1.06713 1.25,0.65329 0.80737,-0.45582 0.8959,-0.3724 0.25,0.23559 -0.55,0.51773 -3.636,1.79832 -6.85777,2.84576 -3.22177,1.04745 -6.08242,2.48987 -6.35699,3.20539 -0.65459,1.70583 -2.49514,1.65286 -4.32095,-0.12436 z m 4.39909,-2.6831 c 0.81223,-1.15962 1.91626,-1.8368 2.45339,-1.50483 0.53713,0.33196 2.37397,0.016 4.08187,-0.70209 l 3.10526,-1.30567 -2.79491,-2.06636 c -2.74205,-2.02729 -2.83874,-2.03087 -5.11273,-0.1895 -2.83886,2.29876 -5.43638,2.39388 -7.55366,0.2766 -1.46702,-1.46701 -1.91011,-1.45318 -5.32143,0.16614 -2.34346,1.11241 -3.16582,1.91707 -2.22117,2.17338 0.825,0.22384 2.54177,0.91578 3.81504,1.53765 1.7659,0.86246 2.49567,0.83839 3.07655,-0.1015 0.52819,-0.85463 1.1145,-0.45747 1.91353,1.29621 1.40378,3.08097 2.61618,3.19267 4.55826,0.41997 z m -0.0581,-6.14159 c 4.48191,-3.31986 6.9481,-18.32992 3.66217,-22.28922 -1.50861,-1.81777 -10.29733,-1.97535 -11.75552,-0.21078 -4.06864,4.92353 0.48941,23.41332 5.84694,23.7182 0.30738,0.0175 1.31826,-0.5307 2.24641,-1.2182 z m -37.60468,4.80634 c -2.08967,-1.24033 -4.33967,-2.81465 -5,-3.4985 -2.00867,-2.08021 6.59919,1.83147 8.77162,3.9861 2.56594,2.54491 0.99541,2.34187 -3.77162,-0.4876 z m 67.7994,-0.4194 c 1.1,-1.06039 3.12147,-2.26492 4.49216,-2.67673 2.18352,-0.65602 2.33113,-0.55473 1.19195,0.81791 -0.71512,0.86166 -2.73659,2.06619 -4.49216,2.67673 -3.16873,1.102 -3.1774,1.09605 -1.19195,-0.81791 z M 581.63149,929.65575 c -0.0419,-7.16595 -1.89126,-7.57573 -2.34612,-0.51985 -0.26861,4.16669 0.24304,5.58494 2.34612,6.50327 0.0193,0.008 0.0193,-2.68412 0,-5.98342 z m 2.70904,0.24873 c -0.28062,-2.6125 -0.65344,-4.9156 -0.8285,-5.118 -0.75953,-0.87818 -1.57467,5.09811 -1.00497,7.368 1.08061,4.30548 2.36793,2.7257 1.83347,-2.25 z m 187.1489,3.16821 c 1.09322,-2.84889 0.63714,-7.1483 -0.89301,-8.41821 -0.825,-0.68469 -1.52705,-1.07729 -1.56011,-0.87245 -0.64496,3.99592 -0.2002,10.87377 0.70312,10.87319 0.62866,-4.1e-4 1.41616,-0.71254 1.75,-1.58253 z m -174.39301,-3.41821 c 0,-0.55556 -2.66667,-1 -6,-1 -3.33333,0 -6,0.44444 -6,1 0,0.55556 2.66667,1 6,1 3.33333,0 6,-0.44444 6,-1 z m 141,0.15972 c 0,-1.74135 -64.79898,-2.69558 -101.75,-1.49837 -38.74377,1.25529 -19.86669,2.33865 40.75,2.33865 33.55,0 61,-0.37813 61,-0.84028 z m 27,-0.15972 c 0,-0.55 -1.8,-1 -4,-1 -2.2,0 -4,0.45 -4,1 0,0.55 1.8,1 4,1 2.2,0 4,-0.45 4,-1 z m -56.26894,148.30702 c -1.46625,-0.3821 -5.73106,-6.9063 -5.73106,-8.7672 0,-1.7153 1.94637,-0.083 3.03485,2.5443 1.92169,4.6393 7.71347,6.2408 13.25798,3.6658 4.72346,-2.1936 3.30224,-5.6374 -7.48323,-18.133 -2.3784,-2.7555 -2.92926,-2.971 -4.75,-1.8585 -1.1771,0.7193 -2.0596,0.8345 -2.0596,0.2691 0,-0.5442 1.125,-1.2718 2.5,-1.6169 1.375,-0.3451 2.5,-1.0946 2.5,-1.6656 0,-0.5709 1.6604,-3.5396 3.68978,-6.5969 7.38768,-11.1301 10.13859,-18.9001 7.31022,-20.6482 -0.55,-0.3399 -1,-1.0965 -1,-1.6814 0,-2.0678 2.86532,1.2918 3.47702,4.0768 0.81993,3.7331 -0.0255,5.6421 -7.69928,17.386 -2.07776,3.1798 -3.77774,6.4903 -3.77774,7.3566 0,0.8664 2.62316,5.0148 5.82925,9.2186 3.20608,4.2039 6.13665,8.869 6.51237,10.3668 0.61079,2.4351 0.26255,2.9379 -3.28941,4.75 -3.72994,1.9029 -8.25661,2.3928 -12.32115,1.3337 z m -55.23106,-13.9274 c 0,-2.6471 0.54514,-4.7828 1.3481,-5.2816 1.07525,-0.6679 0.93371,-1.2234 -0.69931,-2.7448 -1.51345,-1.41 -2.22084,-3.726 -2.71239,-8.8804 -0.80669,-8.4591 -3.71461,-13.7826 -7.1864,-13.1562 -1.2375,0.2233 -2.25,0.071 -2.25,-0.3388 0,-1.2703 5.13143,-1.8006 8.38748,-0.8667 1.70462,0.4888 4.45229,0.9275 6.10592,0.9748 l 3.0066,0.086 -2.84532,0.853 c -1.6284,0.4882 -3.87378,0.4621 -5.25,-0.061 -1.39215,-0.5293 -2.40468,-0.5387 -2.40468,-0.022 0,0.4905 0.5331,1.0696 1.18466,1.2868 0.68643,0.2288 1.49955,3.6914 1.93337,8.2331 0.41179,4.311 1.16133,8.1083 1.66563,8.4384 2.11614,1.3852 3.38078,5.1972 2.19728,6.6232 -0.66538,0.8017 -0.88865,2.6207 -0.52493,4.2767 0.40219,1.8312 0.16103,3.2722 -0.66155,3.9529 -1.0258,0.849 -1.29446,0.149 -1.29446,-3.3729 z m 45.98602,3.5977 c -0.3476,-0.5624 -0.53458,-2.2499 -0.41551,-3.75 0.11908,-1.5 -0.14376,-3.5736 -0.58409,-4.6079 -0.51842,-1.2178 -0.17341,-3.0452 0.97887,-5.1849 0.97872,-1.8173 2.08276,-6.2344 2.45343,-9.8156 0.43339,-4.1872 1.33738,-7.2445 2.5326,-8.5652 2.08767,-2.3068 1.70313,-2.5369 -1.6708,-0.9996 -1.558,0.7098 -3.12466,0.7305 -4.79705,0.063 -2.48214,-0.9903 -2.48187,-0.9908 0.51653,-1.0678 1.65,-0.042 4.04442,-0.3568 5.32094,-0.6986 2.28341,-0.6115 2.25915,-0.6869 -1.5,-4.6649 l -3.82094,-4.0433 4,3.0371 c 2.2,1.6704 5.35,3.7577 7,4.6385 l 3,1.6014 -2.91667,0.04 c -1.60416,0.022 -2.62921,0.3275 -2.27788,0.6788 0.35133,0.3513 -0.47367,1.9608 -1.83333,3.5767 -2.03908,2.4233 -2.47212,4.008 -2.47212,9.0468 0,4.9374 -0.42642,6.5627 -2.2238,8.4759 -1.68842,1.7973 -1.9171,2.5567 -0.9499,3.1545 1.2416,0.7673 1.35228,1.6771 0.89506,7.3573 -0.24672,3.0651 -0.33356,3.1865 -1.23534,1.7274 z m -53.86724,-3.0086 c 0.976,-5.1586 2.6383,-7.364 1.86085,-2.4688 -0.34939,2.2 -1.05868,4.436 -1.5762,4.9688 -0.58992,0.6073 -0.69611,-0.3253 -0.28465,-2.5 z m 62.04155,1.2812 c -1.46484,-5.4031 -1.73843,-7.6861 -0.80891,-6.75 1.10026,1.1081 2.68931,8.5 1.82726,8.5 -0.29915,0 -0.7574,-0.7875 -1.01835,-1.75 z m -61.93689,-20.4501 c -1.49789,-2.3101 -2.68791,-5.3476 -2.64449,-6.75 0.0769,-2.4848 0.10645,-2.4733 1.15719,0.4501 0.59304,1.65 2.13816,4.6875 3.4336,6.75 1.29544,2.0625 2.00025,3.75 1.56624,3.75 -0.434,0 -2.01465,-1.89 -3.51254,-4.2001 z m 61.54366,-0.5499 c 0.86739,-0.9625 1.88699,-2.9917 2.26577,-4.5094 0.37878,-1.5177 1.15447,-3.0473 1.72375,-3.3992 0.68012,-0.4203 0.79037,0.3545 0.3215,2.2595 -0.90858,3.6915 -3.29186,7.3991 -4.75616,7.3991 -0.673,0 -0.49252,-0.7095 0.44514,-1.75 z m -51.84998,-8.3841 c -0.29434,-0.4762 0.8414,-0.8659 2.52386,-0.8659 1.68246,0 3.05902,0.1726 3.05902,0.3835 0,0.8485 -5.08502,1.288 -5.58288,0.4824 z m 39.58288,0.1341 c -2.35046,-0.7527 -2.30207,-0.8066 0.80902,-0.9003 1.9724,-0.059 3.05937,0.3043 2.69098,0.9003 -0.33992,0.55 -0.70398,0.9552 -0.80902,0.9004 -0.10504,-0.055 -1.31598,-0.46 -2.69098,-0.9004 z m 19.73168,-3.2568 c -0.30065,-0.7835 -0.2009,-1.984 0.22168,-2.6677 0.59239,-0.9585 0.89348,-0.917 1.31496,0.1814 0.30065,0.7835 0.2009,1.9839 -0.22168,2.6677 -0.59239,0.9585 -0.89348,0.917 -1.31496,-0.1814 z m -75.99152,-1.3756 c -0.3921,-0.6229 0.16622,-2.2501 1.24071,-3.6161 1.07449,-1.366 1.77063,-2.6666 1.54698,-2.8903 -0.22365,-0.2236 1.33967,-0.4066 3.47404,-0.4066 2.1404,0 3.34645,0.3396 2.68939,0.7574 -0.6552,0.4166 -2.14868,0.7643 -3.31884,0.7727 -2.40798,0.017 -3.97911,1.5805 -4.53829,4.5153 -0.2398,1.2586 -0.64536,1.5802 -1.09399,0.8676 z m 65.9142,-7.9565 c -4.75444,-3.2307 -4.05335,-4.4388 0.82595,-1.4232 2.5687,1.5875 4.71053,2.1086 7.5526,1.8376 4.01413,-0.3828 5.28737,0.4539 2.3853,1.5675 -3.23036,1.2397 -7.06091,0.5343 -10.76385,-1.9819 z m 8.34564,-5.9773 c -3.575,-1.8155 -5.97447,-3.3309 -5.33216,-3.3674 1.53163,-0.087 11.08289,4.7213 11.85276,5.967 0.32859,0.5316 0.45838,0.907 0.28842,0.8341 -0.16996,-0.073 -3.23402,-1.6181 -6.80902,-3.4337 z"
       id="path4229"
       inkscape:connector-curvature="0" />
  </g>
</svg>
