<?xml version="1.0" encoding="UTF-8" standalone="no"?>
<!-- Created with Inkscape (http://www.inkscape.org/) -->

<svg
   xmlns:dc="http://purl.org/dc/elements/1.1/"
   xmlns:cc="http://creativecommons.org/ns#"
   xmlns:rdf="http://www.w3.org/1999/02/22-rdf-syntax-ns#"
   xmlns:svg="http://www.w3.org/2000/svg"
   xmlns="http://www.w3.org/2000/svg"
   xmlns:sodipodi="http://sodipodi.sourceforge.net/DTD/sodipodi-0.dtd"
   xmlns:inkscape="http://www.inkscape.org/namespaces/inkscape"
   width="242.71664"
   height="288.68674"
   id="svg2"
   version="1.1"
   inkscape:version="0.48.3.1 r9886"
   sodipodi:docname="Prone-incline-biceps-curl-2.svg">
  <defs
     id="defs4" />
  <sodipodi:namedview
     id="base"
     pagecolor="#ffffff"
     bordercolor="#666666"
     borderopacity="1.0"
     inkscape:pageopacity="0.0"
     inkscape:pageshadow="2"
     inkscape:zoom="2.8"
     inkscape:cx="78.280992"
     inkscape:cy="159.21707"
     inkscape:document-units="px"
     inkscape:current-layer="layer1"
     showgrid="false"
     fit-margin-top="0"
     fit-margin-left="0"
     fit-margin-right="0"
     fit-margin-bottom="0"
     inkscape:window-width="1855"
     inkscape:window-height="1056"
     inkscape:window-x="65"
     inkscape:window-y="24"
     inkscape:window-maximized="1" />
  <metadata
     id="metadata7">
    <rdf:RDF>
      <cc:Work
         rdf:about="">
        <dc:format>image/svg+xml</dc:format>
        <dc:type
           rdf:resource="http://purl.org/dc/dcmitype/StillImage" />
        <dc:title></dc:title>
      </cc:Work>
    </rdf:RDF>
  </metadata>
  <g
     inkscape:label="Ebene 1"
     inkscape:groupmode="layer"
     id="layer1"
     transform="translate(-819.1521,-1128.3915)">
    <path
       style="fill:#000000"
       d=""
       id="path3414"
       inkscape:connector-curvature="0" />
    <path
       style="fill:#000000"
       d=""
       id="path3412"
       inkscape:connector-curvature="0" />
    <path
       style="fill:#000000"
       d="m 919.29346,1415.1804 c -3.75837,-2.889 -7.3858,-17.0041 -7.12404,-27.7211 0.10098,-4.1345 -0.50637,-9.4696 -1.44596,-12.7016 -2.07488,-7.1374 -2.07809,-13.9857 -0.009,-19.6697 3.79284,-10.4204 7.06438,-39.5364 4.32426,-38.4849 -0.729,0.2797 -1.92683,-0.4544 -2.66187,-1.6314 -1.12811,-1.8063 -1.10032,-2.6265 0.17823,-5.2618 2.1134,-4.356 4.0709,-16.7166 3.35044,-21.1563 -0.33708,-2.0772 0.0404,-6.1651 0.85984,-9.3111 2.57644,-9.8916 -0.20058,-20.2891 -7.50837,-28.1121 -1.61543,-1.7293 -3.23743,-4.1338 -3.60444,-5.3433 -1.22663,-4.0424 -5.42692,-8.6991 -7.8465,-8.6991 -1.27026,0 -3.83486,-1.0325 -5.69911,-2.2945 -5.40291,-3.6575 -15.10897,-8.7055 -16.73839,-8.7055 -0.82152,0 -2.29533,-0.7255 -3.27514,-1.6122 -0.9798,-0.8867 -4.82767,-2.2507 -8.55082,-3.0312 -6.35585,-1.3323 -10.47768,-3.558 -19.34583,-10.4466 -1.38635,-1.0769 -4.81673,-2.321 -7.62307,-2.7646 -7.28657,-1.1518 -14.09531,-5.3816 -15.17208,-9.4253 -0.5034,-1.8905 -0.46505,-4.3744 0.0929,-6.0157 0.74845,-2.2017 0.5746,-3.2108 -0.81838,-4.75 -0.97279,-1.0749 -1.27552,-1.9544 -0.67273,-1.9544 0.60278,0 1.37408,0.45 1.714,1 0.96642,1.5637 2.30874,1.178 2.95183,-0.8482 0.74778,-2.3561 4.67293,-4.1518 9.07499,-4.1518 3.98084,0 11.47318,2.7529 11.47318,4.2156 0,0.5678 -0.75473,0.6773 -1.75,0.2539 -8.62271,-3.6684 -15.34937,-2.9938 -18.29479,1.8348 -2.54453,4.1713 -3.40814,8.9809 -2.0637,11.493 1.33485,2.4942 8.80244,6.2027 12.48996,6.2027 3.26684,0 5.03632,0.8535 13.61853,6.5692 3.97416,2.6467 9.02584,4.9641 13,5.9636 3.575,0.8991 7.97484,2.5414 9.77743,3.6495 2.3498,1.4445 4.54332,1.914 7.75,1.659 4.56448,-0.363 6.30102,0.7208 2.22257,1.3872 -1.9638,0.3209 -1.77305,0.5776 1.49961,2.0184 2.06228,0.9079 5.39002,2.9019 7.39497,4.4312 3.96144,3.0215 10.0494,3.6507 12.84828,1.3278 0.82893,-0.6879 1.50714,-0.8539 1.50714,-0.3689 0,0.4851 -0.95039,1.4754 -2.11198,2.2009 l -2.11197,1.3189 2.54085,2.6716 c 1.39747,1.4694 3.6086,4.5616 4.91363,6.8717 1.30503,2.31 3.56656,5.1391 5.02562,6.2868 1.64078,1.2906 2.42807,2.6724 2.06366,3.6221 -0.32405,0.8444 0.37142,2.8347 1.5455,4.4227 1.17408,1.588 2.13469,4.2262 2.13469,5.8627 0,7.0519 3.00027,9.667 12.11745,10.5619 l 4.61744,0.4532 -1.40649,-4.0824 c -1.85695,-5.3898 -1.03264,-6.0444 1.05169,-0.8352 0.89675,2.2412 2.27561,4.3225 3.06415,4.6251 0.78853,0.3026 3.93756,0.03 6.99783,-0.605 6.86183,-1.4245 8.01557,-3.1794 7.17051,-10.907 -0.41183,-3.7659 -0.11336,-7.2401 0.90967,-10.5885 1.22523,-4.0101 1.30907,-6.0121 0.42928,-10.25 -0.60133,-2.8966 -1.44201,-5.2665 -1.86817,-5.2665 -0.42617,0 -0.1357,-3.2625 0.64549,-7.25 0.78119,-3.9875 1.57878,-8.7216 1.77244,-10.5203 0.19365,-1.7986 1.73509,-5.5179 3.4254,-8.265 1.69032,-2.7471 3.07331,-5.1894 3.07331,-5.4274 0,-1.3853 -7.66902,2.4929 -8.48713,4.292 -0.54292,1.1939 -1.61052,2.1707 -2.37244,2.1707 -1.17535,0 -1.1773,-0.2564 -0.0129,-1.692 1.16888,-1.441 1.16412,-1.5664 -0.0321,-0.8454 -0.89595,0.5399 -1.17213,0.4704 -0.76275,-0.192 0.94037,-1.5214 9.30061,-5.2706 11.75297,-5.2706 1.1591,0 4.15236,-1.8 6.65169,-4 2.96885,-2.6133 5.50594,-4 7.31828,-4 2.17003,0 3.56726,-1.0806 6.417,-4.9627 2.09786,-2.8579 6.05721,-6.4316 9.33517,-8.426 3.13071,-1.9048 6.91824,-4.7467 8.41671,-6.3154 2.5506,-2.6701 2.6492,-3.0973 1.5453,-6.6941 -1.17396,-3.8253 -1.15979,-3.8586 3.2755,-7.6924 4.3418,-3.7528 9.5129,-5.6766 12.3413,-4.5913 0.771,0.2959 2.6177,2.1321 4.1039,4.0806 l 2.7022,3.5427 -1.8464,3.7011 c -1.9302,3.8693 -7.027,8.2948 -5.7648,5.0056 0.3537,-0.9218 -0.5199,-3.5736 -2.0214,-6.1358 -3.0634,-5.2271 -5.9013,-5.8681 -10.0163,-2.2623 -2.4554,2.1515 -2.5004,2.3776 -1.0286,5.1668 1.4754,2.7959 1.4241,3.04 -1.238,5.8849 -1.52744,1.6325 -5.8147,4.9542 -9.5272,7.3816 -3.7125,2.4275 -6.75,4.8261 -6.75,5.3304 0,2.1288 -6.19565,7.7283 -9.71911,8.784 -6.64751,1.9916 -20.9472,17.936 -18.38437,20.4988 0.66772,0.6677 1.83818,0.4521 3.51695,-0.6478 3.46343,-2.2694 4.60582,-2.0148 1.72575,0.3846 -1.29844,1.0817 -3.18061,1.9667 -4.18262,1.9667 -1.002,0 -2.15793,1.0125 -2.56872,2.25 -0.82361,2.4811 -0.7022,15.5271 0.18846,20.25 0.82602,4.3802 0.72426,6.4768 -0.55819,11.5 -0.63187,2.475 -1.1417,5.2875 -1.13295,6.25 0.0935,10.285 0.435,12.3881 2.34841,14.4605 1.61864,1.7532 1.9094,2.9946 1.40538,6 -0.58679,3.4991 2.14624,14.1416 5.63645,21.9486 0.71289,1.5947 0.53658,2.7712 -0.67435,4.5 -0.90178,1.2875 -1.74344,2.1619 -1.87035,1.943 -0.12691,-0.2188 -2.12531,0.5687 -4.4409,1.75 -4.43842,2.2644 -10.769,2.7971 -13.28984,1.1184 -1.06112,-0.7066 -0.31443,-0.8203 2.55201,-0.3885 4.36221,0.657 8.48892,-0.7813 14.07035,-4.9042 2.79471,-2.0644 2.97834,-2.5034 1.75,-4.1833 -0.7548,-1.0322 -1.37236,-2.8608 -1.37236,-4.0635 0,-2.1221 -2.09073,-8.213 -3.98006,-11.5951 -0.51673,-0.925 -0.57389,-2.9236 -0.12869,-4.5 0.88597,-3.1371 0.45696,-5.1305 -1.53217,-7.1197 -1.09266,-1.0926 -2.45331,-1.0351 -7.91484,0.3346 -3.74519,0.9392 -7.96717,1.3821 -9.76979,1.0247 -1.74595,-0.3461 -4.68265,-0.6 -6.526,-0.5642 -1.84335,0.036 -3.86835,-0.3401 -4.5,-0.8352 -0.63165,-0.4952 -2.38595,-1.1959 -3.89845,-1.5573 -2.34841,-0.561 -2.75,-0.3442 -2.75,1.4846 0,1.868 0.22346,1.9755 1.75,0.8416 0.9625,-0.7149 0.50632,-0.071 -1.01372,1.4308 -2.56168,2.531 -2.74822,3.2567 -2.55167,9.9274 0.19829,6.7299 -1.07161,14.4537 -3.45306,21.0024 -0.73516,2.0216 -0.69133,3.1346 0.15684,3.9828 0.90282,0.9028 1.31317,0.6568 1.76099,-1.0556 0.79422,-3.0371 2.35062,-2.8264 2.35062,0.3182 0,4.4365 8.74249,6.8291 15.87189,4.3438 3.52754,-1.2297 5.12811,-3.5031 5.12811,-7.2837 0,-2.0936 0.59877,-2.6328 3.53529,-3.1837 2.55174,-0.4787 3.96331,-1.4909 5.07374,-3.6382 1.91038,-3.6943 3.07812,-2.963 1.23186,0.7714 -0.81937,1.6573 -2.70218,3.1453 -4.84089,3.8258 -2.83582,0.9023 -3.56332,1.6829 -3.83366,4.1136 -0.18352,1.65 -0.91074,3.675 -1.61605,4.5 -0.70531,0.825 -1.55012,3.8934 -1.87736,6.8187 -0.54552,4.8766 -1.29108,7.0225 -4.40587,12.6813 -2.53616,4.6075 -4.64573,14.2632 -4.40166,20.1466 0.17,4.098 -0.47408,8.5469 -1.93253,13.3485 -3.20173,10.541 -2.4509,18.5753 2.53151,27.0885 2.06538,3.529 4.18536,6.6862 4.71107,7.016 1.35373,0.8492 3.96412,6.0942 3.34244,6.7159 -0.28484,0.2848 -0.51789,0.028 -0.51789,-0.5719 0,-0.5994 -1.29849,-2.3882 -2.88553,-3.9753 -1.58704,-1.587 -4.61283,-6.1828 -6.72398,-10.2129 -3.46052,-6.6059 -3.84102,-8.077 -3.86447,-14.9414 -0.0171,-5.0046 0.59343,-9.2193 1.78147,-12.298 1.12115,-2.9053 1.68132,-6.5127 1.47522,-9.5 -0.3315,-4.8048 -0.33518,-4.8093 -1.58342,-1.9327 -0.68813,1.5858 -1.48131,4.7152 -1.76262,6.9541 -0.75097,5.9769 -1.77289,6.0278 -1.2262,0.061 0.25708,-2.8059 1.413,-7.0809 2.5687,-9.5 1.1557,-2.4192 3.09302,-7.3234 4.30515,-10.8985 1.21213,-3.5749 3.25894,-8.5375 4.54847,-11.0279 1.28953,-2.4904 2.62843,-6.5987 2.97534,-9.1297 l 0.63075,-4.6018 -5.19756,1.0277 c -4.27812,0.8459 -5.8089,0.7361 -8.65337,-0.6203 -5.41018,-2.5799 -5.72199,-2.3171 -4.98452,4.2012 0.41376,3.6572 0.22685,6.9363 -0.49878,8.75 -2.52398,6.3089 -2.73675,10.5496 -0.86752,17.2907 1.00374,3.6197 1.64359,6.7628 1.4219,6.9845 -0.44102,0.441 -2.45903,-4.4332 -2.45903,-5.9394 0,-0.5142 -0.41807,-0.9349 -0.92904,-0.9349 -1.29839,0 -4.07319,10.0149 -4.06014,14.6539 0.006,2.1154 0.70911,6.0961 1.56258,8.8461 0.85346,2.75 1.67858,9.275 1.8336,14.5 0.20748,6.9933 0.95557,11.479 2.83515,17 2.24215,6.586 3.0025,7.7282 6.23932,9.3724 2.94651,1.4967 4.17076,1.6515 6.10227,0.7714 1.32894,-0.6055 2.41626,-1.8418 2.41626,-2.7474 0,-1.2792 -0.6397,-1.5185 -2.86847,-1.0727 -1.57766,0.3155 -4.16516,0.1855 -5.75,-0.289 -2.44096,-0.7309 -2.00998,-0.8759 2.81878,-0.9488 4.31951,-0.065 5.92394,0.3137 6.62353,1.5638 0.59683,1.0665 1.67501,1.4531 3.04969,1.0936 2.54114,-0.6645 2.89439,1.0818 0.37647,1.8611 -0.9625,0.2979 -2.53139,0.9588 -3.48643,1.4686 -2.96093,1.5807 -10.07008,1.0313 -12.68727,-0.9806 z m 101.39294,-245.033 c 1.3871,-2.6824 1.2991,-2.9942 -1.8864,-6.6793 l -3.3416,-3.8656 -3.8706,1.9397 c -3.4268,1.7172 -3.6112,1.9825 -1.6083,2.3139 2.279,0.377 7.2377,6.5588 7.2377,9.0231 0,1.9278 1.7875,0.5203 3.4692,-2.7318 z m -47.46924,227.0108 c -1.925,-0.385 -4.45868,-1.2202 -5.6304,-1.8562 -1.17172,-0.636 -4.63072,-1.0906 -7.68666,-1.0102 -9.02244,0.2374 -9.95662,-1.5877 -7.10541,-13.8819 1.86836,-8.0562 1.26878,-13.7183 -2.17164,-20.5076 -2.50081,-4.9351 -2.89802,-9.3207 -1.49906,-16.5509 0.58244,-3.0102 0.4251,-4.9972 -0.54356,-6.8643 -0.7498,-1.4452 -1.36327,-4.0632 -1.36327,-5.8176 0,-1.8265 -1.28228,-5.2119 -3,-7.9205 -3.27241,-5.16 -3.95642,-7.6996 -1.53182,-5.6874 2.54814,2.1148 6.5228,10.1418 7.03318,14.2039 0.26998,2.1487 1.16762,5.2155 1.99475,6.815 0.82714,1.5995 1.46836,3.718 1.42494,4.7078 -0.046,1.0489 -0.28937,1.2782 -0.58333,0.5497 -0.27741,-0.6875 -0.98184,-1.25 -1.56539,-1.25 -1.86012,0 -0.17033,14.5464 2.27708,19.6021 1.94966,4.0274 2.11874,5.4706 1.49027,12.7204 -0.38989,4.4976 -0.78332,10.4275 -0.87429,13.1775 l -0.16539,5 7.5,0.5085 c 4.125,0.2797 8.48292,1.0672 9.68426,1.75 2.75349,1.5651 8.43832,1.5984 11.79458,0.069 3.91547,-1.784 3.13131,-2.8877 -4.47884,-6.3038 -1.925,-0.8641 -5.91474,-4.2835 -8.86608,-7.5987 l -5.36608,-6.0276 -0.92951,-15.6988 c -0.51124,-8.6343 -0.67297,-19.2988 -0.35941,-23.6988 0.61644,-8.6503 -0.41072,-12.3645 -2.39435,-8.658 -1.64397,3.0718 -4.60341,4.4427 -5.98831,2.774 -0.88927,-1.0715 -0.63978,-1.2514 1.23783,-0.8925 1.88113,0.3596 2.60736,-0.1679 3.63007,-2.637 0.70316,-1.6976 1.67389,-3.0865 2.15716,-3.0865 0.48327,0 0.87868,-2.1 0.87868,-4.6667 0,-2.5666 0.25101,-4.4156 0.55779,-4.1088 0.30678,0.3067 0.71357,8.8192 0.90397,18.9166 0.34047,18.0561 1.16134,33.5641 2.07731,39.2449 0.62964,3.905 12.57483,15.614 15.92895,15.614 2.6211,0 5.68258,3.444 4.89227,5.5035 -0.42518,1.108 -8.11773,4.696 -9.39372,4.3815 -0.25661,-0.063 -2.04157,-0.4299 -3.96657,-0.8148 z m -57,-2.3575 c 0,-1.2126 3.27469,-6.7127 3.9966,-6.7127 0.98792,0 -1.67005,5.6801 -3.05992,6.5391 -0.51518,0.3184 -0.93668,0.3965 -0.93668,0.1736 z m 40.62354,-10.2514 c -0.96498,-2.5146 -0.68031,-3.1635 0.49853,-1.1363 0.58369,1.0037 0.8506,2.0357 0.59313,2.2931 -0.25747,0.2575 -0.74872,-0.2631 -1.09166,-1.1568 z m -33.62354,-41.4613 c 0,-0.55 0.42344,-1 0.94098,-1 0.51754,0 1.2191,0.45 1.55902,1 0.33992,0.55 -0.0835,1 -0.94098,1 -0.85746,0 -1.55902,-0.45 -1.55902,-1 z m -2.98469,-6.5589 c 0.008,-0.5176 0.34592,-1.3911 0.75,-1.9411 1.04658,-1.4245 7.23469,-3.5049 7.23469,-2.4322 0,0.4918 -1.2375,1.1816 -2.75,1.5331 -1.5125,0.3514 -3.3125,1.346 -4,2.2102 -0.6875,0.8641 -1.24311,1.1477 -1.23469,0.63 z m 10.06802,-37.8439 c 0.22917,-0.2215 4.69167,-0.9178 9.91667,-1.5473 5.225,-0.6295 10.625,-1.3767 12,-1.6604 2.00099,-0.4128 2.17774,-0.3088 0.88554,0.5212 -2.12797,1.3668 -24.11696,3.9575 -22.80221,2.6865 z m 6.91667,-3.3577 c 0,-1.1839 10.27472,-6.2257 12.77734,-6.2699 1.51848,-0.027 1.53692,-0.1391 0.15556,-0.9473 -1.02484,-0.5997 -4.12587,-0.2588 -8.96188,0.9852 -4.06713,1.0461 -7.58884,1.708 -7.82603,1.4708 -0.23718,-0.2372 0.19566,-0.6326 0.96188,-0.8788 5.09728,-1.6377 8.99396,-2.5763 13.06969,-3.1483 4.06847,-0.5709 4.64364,-0.4319 4.42336,1.069 -0.15573,1.061 -2.48608,2.6337 -6.05263,4.0847 -3.18967,1.2977 -6.41768,2.8726 -7.17335,3.4997 -0.83141,0.69 -1.37394,0.7433 -1.37394,0.1349 z m -15.52402,-4.5483 c 3.6368,-2.1924 8.68052,-7.629 8.03967,-8.6659 -0.34852,-0.5639 -1.58213,-1.0253 -2.74133,-1.0253 -1.15921,0 -1.85519,-0.2525 -1.54663,-0.561 0.30856,-0.3086 3.20937,-0.014 6.44623,0.6545 4.91803,1.0158 7.03072,0.9582 12.85564,-0.3507 3.83374,-0.8614 7.14535,-1.3935 7.35913,-1.1825 1.01047,0.9976 -6.16713,2.7473 -13.10665,3.195 -6.77626,0.4372 -7.91152,0.7934 -9.30434,2.9191 -1.62592,2.4814 -7.18789,6.3616 -8.9777,6.263 -0.55,-0.03 -0.11081,-0.591 0.97598,-1.2462 z m -0.39703,-5.2745 c 0.048,-1.165 0.28494,-1.4019 0.60416,-0.6042 0.28887,0.7219 0.25335,1.5844 -0.0789,1.9167 -0.3323,0.3323 -0.56864,-0.2584 -0.52522,-1.3125 z m 0.93636,-3.1077 c 0.008,-0.4449 0.45153,-1.484 0.98469,-2.309 0.8354,-1.2927 0.97149,-1.2663 0.98469,0.191 0.008,0.93 -0.43469,1.9691 -0.98469,2.309 -0.55,0.3399 -0.99311,0.254 -0.98469,-0.191 z m 21.98469,-11.25 c 0,-0.5175 0.44485,-1.2159 0.98855,-1.5519 0.56686,-0.3504 0.7345,0.051 0.39301,0.941 -0.66479,1.7324 -1.38156,2.0494 -1.38156,0.6109 z m -11,-8.059 c -1.375,-1.0755 -2.18367,-1.9655 -1.79705,-1.9778 1.4203,-0.045 5.79705,2.3245 5.79705,3.1383 0,1.3286 -1.30011,0.9514 -4,-1.1605 z m 12.29966,-6 c 0,-3.025 0.18747,-4.2625 0.41659,-2.75 0.22913,1.5125 0.22913,3.9875 0,5.5 -0.22912,1.5125 -0.41659,0.275 -0.41659,-2.75 z m -22.79966,-1 c -0.33992,-0.55 -1.51803,-1 -2.61803,-1 -1.1,0 -1.72189,-0.45 -1.38197,-1 0.75022,-1.2139 4.5,-1.3412 4.5,-0.1528 0,0.4659 1.0125,1.3355 2.25,1.9323 l 2.25,1.0851 -2.19098,0.068 c -1.20504,0.037 -2.4691,-0.3823 -2.80902,-0.9323 z m 8.16667,-0.6667 c -1.27064,-1.2706 -0.65794,-2.1438 1.16905,-1.666 1.06668,0.2789 3.11708,-0.5981 4.89436,-2.0936 1.68225,-1.4155 3.53381,-2.5737 4.11459,-2.5737 0.58077,0 1.43214,-0.6722 1.89192,-1.4938 0.69217,-1.2368 1.43185,-1.2968 4.29969,-0.3484 1.90505,0.63 4.02622,1.2881 4.71372,1.4624 0.6875,0.1744 1.18872,1.5687 1.11382,3.0984 -0.11465,2.3416 -0.20449,2.4273 -0.56812,0.5423 -0.96786,-5.0171 -9.16292,-4.1891 -15.32105,1.5481 -2.32548,2.1665 -5.01571,2.8166 -6.30798,1.5243 z m -6.16667,-4.3333 c -0.33992,-0.55 -1.88638,-1 -3.43657,-1 -1.5502,0 -3.43614,-0.7487 -4.19099,-1.6637 -1.2304,-1.4915 -1.16278,-1.5521 0.65338,-0.5848 1.14398,0.6093 2.66754,0.7207 3.5,0.256 0.97575,-0.5448 2.48849,-0.011 4.47418,1.5798 2.17715,1.7437 2.53619,2.4041 1.30902,2.4077 -0.93004,0 -1.9691,-0.445 -2.30902,-0.995 z m 12.90499,-7.75 c 1.90937,-2.2552 5.59501,-3.0993 5.59501,-1.2814 0,0.5328 -0.69176,0.7032 -1.53725,0.3787 -0.84548,-0.3244 -2.53298,0.2522 -3.75,1.2814 l -2.21275,1.8713 1.90499,-2.25 z m -15.57876,-2.5103 c -0.84028,-0.6819 -2.79867,-3.0397 -4.35199,-5.2397 -1.55333,-2.2 -4.77048,-5.8637 -7.14923,-8.1416 -2.37876,-2.2778 -4.32501,-4.6111 -4.32501,-5.185 0,-1.3541 9.54365,7.9513 14.46311,14.102 3.72631,4.659 4.42563,6.9493 1.36312,4.4643 z m 9.6149,-1.2574 c 1.06762,-0.8152 3.04301,-1.4823 4.38976,-1.4823 1.34674,0 3.04642,-0.7875 3.77706,-1.75 1.263,-1.6638 1.33001,-1.6626 1.36025,0.025 0.0336,1.8755 -2.21687,3.0219 -7.9682,4.0589 -3.2477,0.5855 -3.36007,0.5242 -1.55887,-0.8513 z m 15.05887,-2.4823 c 0.33992,-0.55 1.06803,-1 1.61803,-1 0.55,0 0.72189,0.45 0.38197,1 -0.33992,0.55 -1.06803,1 -1.61803,1 -0.55,0 -0.72189,-0.45 -0.38197,-1 z m -4,-1 c -0.33992,-0.55 -0.16803,-1 0.38197,-1 0.55,0 1.27811,0.45 1.61803,1 0.33992,0.55 0.16803,1 -0.38197,1 -0.55,0 -1.27811,-0.45 -1.61803,-1 z m -38.36278,-6.0578 c -3.52902,-2.1513 -3.77708,-3.8902 -0.28861,-2.0232 1.11095,0.5945 2.98699,1.081 4.16898,1.081 1.21449,0 1.97694,0.5164 1.75324,1.1875 -0.65694,1.9708 -2.10127,1.9079 -5.63361,-0.2453 z m 51.86278,0.6351 c 0,-0.3065 2.85966,-1.854 6.35479,-3.4388 4.1576,-1.8851 7.35582,-4.1846 9.25,-6.6505 1.59237,-2.073 3.68271,-4.6059 4.64521,-5.6286 1.9168,-2.0366 2.32975,-3.3357 0.75,-2.3594 -0.55,0.3399 -1,0.2319 -1,-0.2401 0,-0.472 1.59195,-1.4338 3.53766,-2.1374 2.19279,-0.7929 4.5323,-2.7822 6.15405,-5.2328 1.43902,-2.1745 3.10957,-3.7739 3.71234,-3.5542 1.93023,0.7034 6.72244,-2.713 9.58804,-6.8355 3.92075,-5.6405 12.48935,-14.6705 13.58735,-14.3191 3.6494,1.168 12.4206,-7.236 12.4206,-11.9006 0,-3.6616 -5.5827,-9.9858 -9.3364,-10.5765 -3.6371,-0.5723 -9.9893,1.9206 -13.5121,5.3029 -2.0571,1.9749 -2.3046,2.0268 -1.9948,0.4179 0.1946,-1.0103 2.3029,-3.2066 4.6853,-4.8807 5.0758,-3.567 11.8272,-4.0582 15.0977,-1.0984 2.3184,2.0981 -0.07,3.6564 23.4257,-15.2858 9.783,-7.8871 18.009,-14.1186 18.2799,-13.8477 0.2709,0.2709 -8.3122,7.5924 -19.0736,16.2701 l -19.5661,15.7775 1.5972,2.4377 c 0.8784,1.3406 1.5972,4.0111 1.5972,5.9343 0,2.8343 -0.9116,4.4221 -4.8124,8.3825 -2.6974,2.7385 -5.7264,4.8859 -6.8918,4.8859 -2.3346,0 -8.7725,6.3776 -12.7298,12.6104 -1.5824,2.4925 -4.70698,5.3216 -7.93786,7.1875 -6.20054,3.5808 -14.77488,11.637 -20.08619,18.8724 -2.64595,3.6045 -5.10645,5.6603 -8.48435,7.0888 -6.01855,2.5452 -9.25764,3.5312 -9.25764,2.8182 z m -64.35747,-6.1326 c -5.62998,-2.0643 -10.64253,-5.392 -10.64253,-7.0652 0,-1.124 0.47433,-1.0155 2.07351,0.4744 2.51928,2.347 13.39872,6.4551 17.1325,6.4692 1.48831,0.01 2.47425,0.3852 2.19098,0.8436 -0.77417,1.2526 -6.39893,0.875 -10.75445,-0.722 z m 38.85747,-3.1113 c -8.37246,-0.6916 -15.90899,-2.5744 -19.38872,-4.8438 -4.21049,-2.7459 -9.94793,-3.9984 -13.84057,-3.0214 -2.39333,0.6007 -2.52147,0.812 -1.00658,1.6597 3.50215,1.9599 1.61591,2.9375 -2.01413,1.0439 -4.89523,-2.5536 -10.69852,-4.0075 -16.08756,-4.0304 -3.29062,-0.014 -5.58361,-0.8644 -9.5,-3.5233 -2.83934,-1.9277 -6.96244,-3.8162 -9.16244,-4.1967 -2.2,-0.3805 -5.6803,-1.5364 -7.734,-2.5688 -3.50295,-1.7608 -4.15477,-2.8418 -4.97706,-8.2545 -0.19729,-1.2986 -2.19207,-2.6303 -6.28894,-4.1984 -8.70629,-3.3324 -10.0782,-3.1468 -12.54944,1.6972 -1.14954,2.2533 -2.31508,3.8719 -2.59008,3.5969 -0.99401,-0.994 3.7229,-8.6973 5.40984,-8.8349 7.05185,-0.5755 17.86752,3.85 18.83555,7.7069 0.32033,1.2763 0.31076,2.7601 -0.0213,3.2973 -1.06606,1.7249 4.19342,4.8498 9.3036,5.5277 3.24934,0.431 6.69904,1.8554 10.01069,4.1334 3.79404,2.6099 6.1177,3.4839 9.32699,3.5084 2.35075,0.018 6.68613,0.8656 9.63417,1.8836 4.67892,1.6158 5.69554,1.6759 8,0.4736 1.45196,-0.7576 3.59586,-1.3803 4.76421,-1.3836 3.03973,-0.01 9.82926,2.5357 13.08841,4.9052 3.3703,2.4503 17.70041,4.308 15.53731,2.0141 -0.6875,-0.729 -1.25,-1.7856 -1.25,-2.348 0,-0.5624 0.70052,-0.022 1.5567,1.2 0.85619,1.2224 2.37609,2.2225 3.37756,2.2225 1.00147,0 2.38105,0.675 3.06574,1.5 1.00492,1.2109 0.98033,1.4676 -0.12756,1.3319 -0.75484,-0.093 -3.17244,-0.3168 -5.37244,-0.4985 z m 8.5,-2.3144 c 0,-0.9168 8.79487,-4.5708 9.4189,-3.9134 0.20588,0.2169 -1.82916,1.3782 -4.52229,2.5807 -2.69314,1.2024 -4.89661,1.8021 -4.89661,1.3327 z m -2,-3.8701 c 0,-1.6116 -0.61027,-2.1489 -2.44098,-2.1489 -1.34254,0 -2.7191,-0.45 -3.05902,-1 -0.33992,-0.55 -1.47992,-1 -2.53334,-1 -1.13729,0 -2.57751,-1.2806 -3.54554,-3.1525 -0.89664,-1.7339 -2.89166,-4.214 -4.43339,-5.5113 -2.10756,-1.7734 -2.9751,-3.609 -3.49613,-7.3972 -1.20736,-8.7787 2.2173,-13.3959 10.688,-14.4101 l 4.3204,-0.5173 -3.46346,1.0781 c -5.21627,1.6237 -8.76729,4.5644 -9.99172,8.2745 -1.15051,3.4861 -0.50431,7.0378 1.10005,6.0463 0.54107,-0.3344 0.6759,0.4554 0.31989,1.8739 -0.46469,1.8514 -0.0236,2.9175 1.80111,4.3528 1.32908,1.0454 2.97646,2.9471 3.66084,4.2259 1.51709,2.8347 9.37814,6.4923 12.09807,5.629 2.58805,-0.8214 3.47522,-4.3148 3.47522,-13.6843 0,-5.2458 0.26846,-6.9951 0.8441,-5.5 1.51544,3.9358 0.004,14.932 -2.76976,20.1484 -1.79845,3.3824 -2.57434,4.194 -2.57434,2.6927 z m 24.5,0.8511 c -0.34806,-0.5632 0.45676,-1 1.84242,-1 2.75614,0 14.65758,-9.4654 14.65758,-11.6574 0,-0.7384 0.45,-1.3426 1,-1.3426 2.19957,0 0.7313,2.4356 -4.61476,7.655 -6.64034,6.4831 -11.36273,8.8085 -12.88524,6.345 z m -44.5,-1.2642 c 3.46804,-1.5659 3.29505,-1.3101 4.06007,-6.0044 l 0.6896,-4.2314 0.12516,3.75 c 0.13721,4.1108 -2.56443,7.8007 -5.62483,7.6823 -1.27445,-0.049 -1.07065,-0.3744 0.75,-1.1965 z m 23,-1.7358 c 0,-1.2737 4.02911,-1.2737 6,0 1.11575,0.7211 0.53938,0.9733 -2.25,0.9847 -2.0625,0.01 -3.75,-0.4347 -3.75,-0.9847 z m -112.35398,-12.4523 c -3.75863,-3.4833 -3.27498,-3.9142 1.07791,-0.9603 4.74853,3.2224 4.92064,3.4126 3.08876,3.4126 -0.83636,0 -2.71136,-1.1035 -4.16667,-2.4523 z m 1.84504,-2.5622 c -0.37424,-0.6055 0.49356,-2.875 1.92844,-5.0432 4.127,-6.2363 4.40629,-4.9464 0.56173,2.5945 -1.06112,2.0814 -2.0912,3.0943 -2.49017,2.4487 z m 110.50894,-11.0332 c 0,-0.5763 -1.19071,-2.1513 -2.64602,-3.5 -1.45532,-1.3488 -2.14785,-2.4523 -1.53896,-2.4523 1.49165,0 5.18498,4.052 5.18498,5.6886 0,0.7213 -0.225,1.3114 -0.5,1.3114 -0.275,0 -0.5,-0.4715 -0.5,-1.0477 z"
       id="path3975"
       inkscape:connector-curvature="0" />
  </g>
</svg>
