<?xml version="1.0" encoding="UTF-8" standalone="no"?>
<!-- Created with Inkscape (http://www.inkscape.org/) -->

<svg
   xmlns:dc="http://purl.org/dc/elements/1.1/"
   xmlns:cc="http://creativecommons.org/ns#"
   xmlns:rdf="http://www.w3.org/1999/02/22-rdf-syntax-ns#"
   xmlns:svg="http://www.w3.org/2000/svg"
   xmlns="http://www.w3.org/2000/svg"
   xmlns:sodipodi="http://sodipodi.sourceforge.net/DTD/sodipodi-0.dtd"
   xmlns:inkscape="http://www.inkscape.org/namespaces/inkscape"
   width="123.30688"
   height="219.07024"
   id="svg2"
   version="1.1"
   inkscape:version="0.48.3.1 r9886"
   sodipodi:docname="Overhead-curl-2.svg">
  <defs
     id="defs4" />
  <sodipodi:namedview
     id="base"
     pagecolor="#ffffff"
     bordercolor="#666666"
     borderopacity="1.0"
     inkscape:pageopacity="0.0"
     inkscape:pageshadow="2"
     inkscape:zoom="3.959798"
     inkscape:cx="140.55683"
     inkscape:cy="106.83904"
     inkscape:document-units="px"
     inkscape:current-layer="layer1"
     showgrid="false"
     fit-margin-top="0"
     fit-margin-left="0"
     fit-margin-right="0"
     fit-margin-bottom="0"
     inkscape:window-width="1855"
     inkscape:window-height="1056"
     inkscape:window-x="65"
     inkscape:window-y="24"
     inkscape:window-maximized="1" />
  <metadata
     id="metadata7">
    <rdf:RDF>
      <cc:Work
         rdf:about="">
        <dc:format>image/svg+xml</dc:format>
        <dc:type
           rdf:resource="http://purl.org/dc/dcmitype/StillImage" />
        <dc:title></dc:title>
      </cc:Work>
    </rdf:RDF>
  </metadata>
  <g
     inkscape:label="Ebene 1"
     inkscape:groupmode="layer"
     id="layer1"
     transform="translate(-806.30078,-1133.3002)">
    <path
       style="fill:#000000"
       d=""
       id="path3414"
       inkscape:connector-curvature="0" />
    <path
       style="fill:#000000"
       d=""
       id="path3412"
       inkscape:connector-curvature="0" />
    <path
       style="fill:#000000"
       d="m 915.04848,1350.7863 c -3.15134,-2.0983 -4.97251,-4.3509 -4.97251,-6.1506 0,-0.837 1.16278,-0.1698 2.84771,1.6339 3.69333,3.9537 7.39217,4.8911 10.71332,2.715 3.61377,-2.3679 4.02903,-4.3129 1.57559,-7.3801 -1.17551,-1.4695 -3.71214,-5.0431 -5.63695,-7.9413 l -3.49967,-5.2694 -0.0239,-12.2306 c -0.0131,-6.7268 -0.47928,-14.0306 -1.0359,-16.2306 -0.55663,-2.2 -1.22112,-7.15 -1.47665,-11 -0.66487,-10.0176 -0.81036,-10.3644 -7.18651,-17.1297 -7.11803,-7.5525 -10.63583,-9.8446 -14.64082,-9.5394 -5.31041,0.4046 -12.04476,8.7741 -10.83875,13.4703 0.54027,2.1039 10.1914,7.2309 15.47862,8.2228 3.26845,0.6131 7.39503,3.476 5.01041,3.476 -1.75845,0 -0.24903,21.0723 1.80021,25.1318 1.00834,1.9976 2.06828,6.7226 2.35542,10.5 l 0.52208,6.8682 -1.40964,-6 c -0.7753,-3.3 -2.33237,-8.025 -3.46016,-10.5 -1.50995,-3.3137 -2.05779,-6.609 -2.07806,-12.5 -0.0372,-10.8129 -1.38367,-15.5 -4.45261,-15.5 -1.28822,0 -3.38275,-0.8426 -4.65452,-1.8724 -1.8131,-1.4681 -2.96905,-1.684 -5.35419,-1 -4.19068,1.2019 -4.15885,1.2104 -7.03957,-1.8776 -2.16814,-2.3241 -2.71779,-2.5177 -3.5493,-1.25 -1.98344,3.0239 -2.14507,6.0957 -0.53277,10.1252 1.4883,3.7197 1.49895,4.292 0.10847,5.8285 -0.848,0.9371 -1.54186,2.1625 -1.54186,2.7232 0,1.084 -6.1559,4.0229 -9.5,4.5353 -1.65923,0.2543 -2.0515,1.1995 -2.30226,5.5472 -0.29158,5.0555 -0.21036,5.2406 2.29966,5.2406 1.43106,0 3.92957,0.6866 5.55226,1.5257 2.57627,1.3322 2.95034,2.0733 2.95034,5.845 0,6.2752 -2.33013,8.0061 -11.3939,8.4638 -5.51123,0.2783 -8.14932,-0.073 -11.16155,-1.4874 -3.65773,-1.7171 -3.96623,-2.1852 -4.24271,-6.437 -0.35262,-5.4229 0.90718,-6.8468 6.75119,-7.6306 l 4.03147,-0.5408 -0.12378,-5.3693 c -0.11734,-5.0899 -0.26007,-5.3702 -2.74225,-5.3841 -3.59731,-0.02 -6.9985,-1.9811 -8.86477,-5.1106 -1.32911,-2.2287 -1.35835,-2.8471 -0.1936,-4.094 1.20096,-1.2856 1.56645,-1.2285 2.93204,0.4579 1.6037,1.9805 10.55236,3.6015 16.25786,2.945 2.29762,-0.2644 2.75,-0.7952 2.75,-3.227 0,-3.8202 -3.87953,-6.6266 -6.91483,-5.0022 -1.12692,0.6031 -3.74459,1.0329 -5.81706,0.9551 -2.07246,-0.078 -4.89311,0.174 -6.26811,0.5596 l -2.5,0.7012 2.5,-2.0315 c 2.96196,-2.4069 6,-3.3736 6,-1.9093 0,0.6599 1.64955,0.8163 4.49611,0.4261 6.04468,-0.8285 9.30336,0.7586 10.08225,4.9104 0.33638,1.7931 0.31354,4.1992 -0.0508,5.3471 -0.52576,1.6565 -0.236,2.0869 1.40502,2.0869 1.13707,0 2.06739,-0.5271 2.06739,-1.1713 0,-0.6441 0.67087,-1.9125 1.49081,-2.8185 1.3231,-1.4621 1.30279,-2.1459 -0.18054,-6.0788 -0.91925,-2.4373 -2.35238,-5.2383 -3.18475,-6.2244 -1.36546,-1.6178 -1.35032,-1.7305 0.15485,-1.1529 2.10703,0.8085 2.94092,-0.092 10.0492,-10.8589 6.919,-10.4796 10.83589,-18.5641 10.11079,-20.8686 -0.28959,-0.9204 0.30675,-4.9704 1.32521,-9 1.61165,-6.3767 1.71447,-8.5656 0.79308,-16.8828 -1.25167,-11.2986 -2.71428,-13.9755 -9.52044,-17.4244 -2.70919,-1.3729 -5.2886,-3.1038 -5.73201,-3.8464 -0.44341,-0.7427 -1.7062,-1.8593 -2.8062,-2.4813 -1.57078,-0.8882 -1.65394,-1.1374 -0.3875,-1.1613 0.88687,-0.017 3.31124,1.3196 5.3875,2.9696 2.07626,1.65 4.13536,3 4.57579,3 1.21238,0 6.54232,5.2297 7.64376,7.5 0.53366,1.1 1.55806,5.9084 2.27644,10.6852 1.06311,7.0692 1.06923,9.7672 0.0329,14.5 -0.70029,3.1982 -1.58106,8.0648 -1.95725,10.8148 -0.3762,2.75 -1.44621,6.4402 -2.37781,8.2003 -0.93159,1.7602 -1.6938,3.3574 -1.6938,3.5492 0,0.1919 1.58798,0.1635 3.52885,-0.063 2.70877,-0.3162 3.28482,-0.706 2.47877,-1.6772 -0.82583,-0.9951 -0.3515,-1.1249 2.22115,-0.6079 1.97601,0.397 3.65276,1.5149 4.23482,2.8233 0.52997,1.1914 2.00785,2.7249 3.28418,3.408 1.27633,0.6831 3.17969,2.6202 4.2297,4.3047 1.05001,1.6845 3.50963,4.5618 5.46582,6.394 3.35323,3.1406 3.55671,3.6949 3.55671,9.6879 0,3.4962 0.69314,9.3455 1.5403,12.9984 1.1435,4.9306 1.36742,9.1517 0.86922,16.3853 -0.78,11.325 0.13016,14.1378 7.08189,21.8865 6.15474,6.8602 6.37911,8.3939 1.85265,12.6634 -4.17468,3.9377 -7.48227,4.4906 -11.37155,1.9009 z m -49.04762,-24.6601 c 1.88369,-0.6565 3.60053,-1.7316 3.8152,-2.3892 0.38,-1.164 -0.61026,-1.141 -7.74009,0.1794 -2.09838,0.3887 -2.17871,0.3268 -0.5,-0.3853 1.1,-0.4666 3.34563,-1.2514 4.99029,-1.7441 5.74439,-1.7207 4.06819,-5.2464 -3.24029,-6.8155 -2.84843,-0.6116 -3.25,-0.4409 -3.25,1.3816 0,1.1438 -0.3375,2.0803 -0.75,2.0812 -0.4125,9e-4 -0.75,-3.4474 -0.75,-7.6629 0,-5.5858 -0.37026,-7.7889 -1.36523,-8.1234 -1.10173,-0.3703 -1.28108,1.0987 -0.92926,7.6111 0.23978,4.4385 0.0666,7.8417 -0.38477,7.5627 -0.45141,-0.279 -0.82074,-1.1557 -0.82074,-1.9482 0,-1.8324 -2.1337,-1.8298 -6.53212,0.01 -3.51159,1.4672 -4.50215,3.7927 -2.21788,5.2068 0.6875,0.4256 3.95,1.3462 7.25,2.0458 5.45944,1.1574 5.57212,1.2298 1.25069,0.8044 -2.61212,-0.2571 -5.93329,-0.7647 -7.38038,-1.1279 -4.34687,-1.091 -2.32314,1.9178 2.20984,3.2855 5.06153,1.5272 12.01197,1.5399 16.34474,0.03 z m -4.11587,-25.5433 c 3.98133,-1.1213 2.41406,-2.4845 -3.05707,-2.659 -2.88857,-0.092 -7.22431,-0.5324 -9.63498,-0.9785 -6.70327,-1.2403 -4.87871,1.6873 1.95743,3.1408 6.25007,1.3288 7.56418,1.3897 10.73462,0.4967 z m 21.92015,-19.7545 c -0.3323,-0.3323 -1.1948,-0.3678 -1.91667,-0.079 -0.79773,0.3193 -0.56078,0.5562 0.60417,0.6042 1.05416,0.043 1.64479,-0.1929 1.3125,-0.5252 z m -3.82885,-2.6458 c -0.0548,-0.6875 -0.39913,-2.3179 -0.76513,-3.6231 l -0.66545,-2.3731 -1.43866,2.6881 c -1.25395,2.3431 -1.252,2.8062 0.0151,3.6078 2.01349,1.2737 2.97156,1.1731 2.85411,-0.2997 z m -69.82618,62.3727 c -1.33422,-0.3728 -2.60922,-1.2279 -2.83333,-1.9003 -0.48792,-1.4637 1.37844,-1.6475 2.25919,-0.2224 1.13021,1.8287 7.95356,1.0332 12.66909,-1.4771 2.55924,-1.3624 6.53871,-2.714 8.84325,-3.0035 2.30455,-0.2896 4.59454,-0.7764 5.08887,-1.0819 1.63986,-1.0135 0.93138,-4.6101 -1.47042,-7.4644 -2.65205,-3.1518 -6.56355,-16.3408 -7.55462,-25.4731 -0.90469,-8.3363 -4.91357,-17.7758 -7.2858,-17.1554 -2.60319,0.6807 -2.24395,0.2213 2.04805,-2.619 3.89994,-2.5808 5.9061,-3.0462 12.16158,-2.821 5.22755,0.1882 1.66035,2.0569 -4,2.0954 -7.25378,0.049 -7.52036,0.6276 -4.19113,9.0915 1.60276,4.0747 3.20779,10.3857 3.56674,14.0246 0.90372,9.1613 3.32494,16.718 6.73678,21.0258 1.58818,2.0053 2.88761,4.5937 2.88761,5.752 0,3.0509 -3.51198,6.1061 -7.0189,6.1061 -1.66039,0 -5.54873,1.35 -8.64076,3 -5.55696,2.9654 -8.54179,3.443 -13.2662,2.1227 z m 94.39583,-1.5282 c -1.22031,-1.8624 -1.35876,-3.1605 -0.61324,-5.75 l 0.96289,-3.3445 0.0902,3.9213 c 0.0496,2.1567 0.83493,4.7442 1.74518,5.75 0.95313,1.0532 1.17495,1.8287 0.52305,1.8287 -0.62256,0 -1.8412,-1.0825 -2.70807,-2.4055 z m -96.88129,-4.7586 c 0.50123,-0.8596 3.16132,-3.4899 5.91132,-5.8451 2.75,-2.3551 5.31053,-5.0828 5.69007,-6.0615 0.90635,-2.3372 -0.57284,-7.7144 -4.65704,-16.9293 -4.94098,-11.148 -9.26192,-28.9597 -8.1246,-33.4912 0.79991,-3.1871 5.09705,-7.4247 12.27537,-12.1054 2.8511,-1.8591 5.43904,-3.7931 5.751,-4.2979 0.68202,-1.1035 4.5652,-0.2435 4.5652,1.0111 0,0.4859 0.47235,0.8834 1.04966,0.8834 1.60401,0 0.007,-11.85 -2.18473,-16.2102 -1.93498,-3.8495 -2.35677,-10.8181 -0.86493,-14.2898 0.60651,-1.4114 0.88011,-0.1461 0.92972,4.2997 0.0423,3.7909 0.73146,7.5741 1.73055,9.5 0.9589,1.8484 1.82052,6.3686 2.03962,10.7003 0.20865,4.125 0.81153,8.8047 1.33973,10.3992 1.59828,4.825 0.99349,6.3306 -1.01602,2.5295 -3.12064,-5.9029 -4.22497,-6.3756 -9.47236,-4.0544 -5.48542,2.4265 -14.25309,9.611 -15.14034,12.4064 -0.3506,1.1047 0.0521,4.3059 0.89496,7.1139 0.84282,2.808 2.28008,8.2554 3.1939,12.1054 0.91383,3.85 2.9173,9.25 4.45216,12 2.66924,4.7825 3.48911,7.5321 4.66915,15.6592 0.48392,3.3327 0.13713,4.0225 -3.88744,7.7322 -6.37443,5.8758 -10.22801,8.8021 -9.14495,6.9445 z m 11.41132,-3.4873 c 0,-0.55 1.125,-2.0568 2.5,-3.3486 1.375,-1.2917 2.5,-1.8986 2.5,-1.3486 0,0.55 -1.125,2.0569 -2.5,3.3486 -1.375,1.2918 -2.5,1.8986 -2.5,1.3486 z m 22.31152,-40.9792 c -0.34413,-0.8968 0.16325,-3.0955 1.12753,-4.8861 2.10196,-3.9031 1.51681,-5.3553 -4.34119,-10.7736 -4.61186,-4.2657 -5.47521,-6.6583 -1.45122,-4.0217 3.22997,2.1164 8.35336,9.01 8.35336,11.2395 0,0.8951 -0.70382,2.6323 -1.56406,3.8605 -0.89664,1.2801 -1.2946,3.082 -0.93261,4.2225 0.75502,2.3788 -0.29531,2.6952 -1.19181,0.3589 z m 13.34478,-7.5757 c -0.616,-2.3556 0.31433,-4.1426 1.06394,-2.0437 1.67068,4.6779 9.85068,-5.2364 14.13855,-17.1363 1.7611,-4.8874 3.02075,-9.0675 2.79923,-9.289 -0.22153,-0.2215 -2.37271,0.2832 -4.7804,1.1217 -6.29072,2.1907 -14.64052,1.9955 -18.62762,-0.4354 -3.76051,-2.2929 -4.25796,-3.3427 -1,-2.1105 4.69162,1.7745 12.82706,2.2805 17.73485,1.1031 2.72447,-0.6536 4.91414,-1.4842 4.86594,-1.846 -0.31434,-2.3589 0.37695,-2.2445 1.69355,0.2803 0.96905,1.8583 1.29828,4.0632 0.89594,6 -1.04053,5.009 -5.60909,14.8676 -8.21097,17.7186 -1.33343,1.4611 -2.4835,3.0361 -2.55571,3.5 -0.11592,0.7448 -6.2276,5.3435 -7.10138,5.3435 -0.18642,0 -0.59859,-0.9928 -0.91592,-2.2063 z m -5.20584,-8.8652 c -1.58382,-2.2854 -3.02419,-5.3418 -3.20081,-6.7919 -0.57593,-4.7283 -3.23811,-12.9822 -4.63913,-14.3832 -0.90488,-0.9049 -1.32898,-3.5541 -1.25049,-7.8113 0.15239,-8.2663 -0.93415,-16.9162 -2.29594,-18.278 -1.42028,-1.4203 -1.36143,-7.3623 0.0817,-8.2542 0.81107,-0.5013 0.94438,0.095 0.45628,2.0392 -0.53204,2.1199 -0.0758,3.5522 1.99723,6.2701 2.62968,3.4476 2.80071,3.5091 8.04373,2.8929 3.03119,-0.3562 5.35692,-0.2324 5.35692,0.2853 0,0.9041 -9.33153,2.6859 -11.75,2.2435 -0.81349,-0.1487 -1.25,1.0463 -1.25,3.4223 0,2.8343 0.33546,3.5221 1.5,3.0752 1.63957,-0.6292 2.08703,0.8808 0.54367,1.8346 -0.52598,0.3251 -0.73261,1.174 -0.45919,1.8866 0.27343,0.7125 0.0438,2.4878 -0.51025,3.9452 -0.7755,2.0397 -0.61225,3.4028 0.70919,5.9216 0.94412,1.7997 2.06647,3.5317 2.49413,3.8489 0.42765,0.3172 1.23307,3.4053 1.78982,6.8624 0.55895,3.4708 2.05046,7.8135 3.33059,9.6973 2.01329,2.9629 2.48469,3.2113 3.58263,1.8884 1.41968,-1.7106 10.01941,-2.1598 10.01941,-0.5234 0,0.55 -0.3375,1.0347 -0.75,1.077 -7.4763,0.7677 -9.82226,1.2309 -10.32091,2.0377 -0.32943,0.5331 -1.89481,-0.9007 -3.47863,-3.1862 z m 2.54954,-4.8538 c 0,-0.4879 2.3625,-1.1868 5.25,-1.5532 2.8875,-0.3664 6.0375,-0.8889 7,-1.1612 0.9625,-0.2723 1.75,-0.023 1.75,0.5533 0,1.1388 -1.93741,1.663 -9.25,2.5027 -2.6125,0.3 -4.75,0.1463 -4.75,-0.3416 z m 3,-3.4422 c 0,-0.7258 5.03937,-1.3778 5.45468,-0.7058 0.22382,0.3621 -0.91192,0.7589 -2.52386,0.8818 -1.61195,0.1228 -2.93082,0.044 -2.93082,-0.176 z m -2.5,-5.985 c -2.81803,-1.2985 -2.59248,-1.3519 3.71847,-0.8806 4.26257,0.3184 7.83836,0.038 9.78207,-0.7671 1.68497,-0.698 3.35666,-0.9759 3.71486,-0.6177 2.57055,2.5705 -12.30504,4.528 -17.2154,2.2654 z m 22.03102,-9.375 c 0.76423,-3.9911 -0.23933,-7.5628 -1.85302,-6.5951 -0.6479,0.3886 -0.52118,-0.1021 0.2816,-1.0904 1.37043,-1.6872 1.52315,-1.6166 2.5,1.1567 0.68605,1.9478 1.55128,2.7853 2.5404,2.459 1.26187,-0.4163 1.24441,-0.1939 -0.11002,1.4012 -0.88551,1.0429 -2.14258,2.7961 -2.79349,3.8961 -1.03044,1.7414 -1.10356,1.5826 -0.56547,-1.2275 z m -20.09005,-0.6517 c -0.32842,-1.3085 -0.44606,-3.671 -0.26142,-5.25 0.27401,-2.3431 0.53762,-1.9059 1.4342,2.3792 1.06651,5.0972 0.0256,7.6454 -1.17278,2.8708 z m -9.78551,-0.9888 c -0.41404,-1.5774 -0.51649,-3.1043 -0.22767,-3.3931 0.8052,-0.8052 1.78952,2.4153 1.36092,4.4527 -0.28049,1.3332 -0.57825,1.0548 -1.13325,-1.0596 z m 23.89691,-1.5741 c -0.96669,-1.0682 -1.59893,-2.3491 -1.40499,-2.8465 0.19394,-0.4973 1.39935,0.3767 2.67868,1.9422 2.59236,3.1723 1.48824,3.9562 -1.27369,0.9043 z m -14.15341,-8.6045 c -0.35154,-1.4006 -0.36011,-2.8256 -0.019,-3.1666 0.34105,-0.3411 0.62009,0.3325 0.62009,1.4968 0,1.1644 0.7875,2.5757 1.75,3.1363 1.64731,0.9595 1.64843,1.0211 0.019,1.0497 -1.03437,0.018 -1.98816,-0.9944 -2.3701,-2.5162 z m 14.60104,-0.4534 c 0,-0.55 0.70156,-1 1.55902,-1 0.85746,0 1.2809,0.45 0.94098,1 -0.33992,0.55 -1.04148,1 -1.55902,1 -0.51754,0 -0.94098,-0.45 -0.94098,-1 z m 5.14306,-1.5 c -0.13092,-4.1192 1.44364,-10.5072 2.92638,-11.8723 0.94805,-0.8728 1.0498,-0.6756 0.45014,0.8723 -0.42612,1.1 -1.33871,4.7 -2.02797,8 -0.83222,3.9844 -1.28524,4.9922 -1.34855,3 z m -26.14306,-0.4181 c 0,-1.0119 3.89079,-3.5374 4.48771,-2.9129 0.17402,0.182 -0.76452,1.1395 -2.08565,2.1277 -1.32113,0.9882 -2.40206,1.3415 -2.40206,0.7852 z m 11.97994,-0.6061 c -1.97634,-2.3813 -0.52661,-2.7451 2.1284,-0.5341 1.84989,1.5406 2.02298,1.9993 0.76411,2.025 -0.89516,0.018 -2.19679,-0.6526 -2.89251,-1.4909 z m -0.45501,-4.1875 c -1.08628,-0.2869 -2.53447,-1.2566 -3.21819,-2.155 -1.50318,-1.975 -1.6919,-5.1333 -0.30674,-5.1333 0.55,0 1,0.8842 1,1.9648 0,1.0807 0.7875,2.3784 1.75,2.8839 3.1466,1.6525 9.77908,2.2808 12.63085,1.1966 2.16241,-0.8221 2.69755,-0.7778 2.37576,0.1968 -0.43078,1.3047 -10.461,2.042 -14.23168,1.0462 z m -32.38303,-14.5947 c -0.11588,-3.1085 0.44896,-4.346 3.08096,-6.75 1.77258,-1.619 3.80842,-2.9436 4.52411,-2.9436 0.71568,0 3.59089,-1.575 6.38935,-3.5 2.79846,-1.925 5.47243,-3.5 5.94217,-3.5 0.46973,0 -0.10117,-1.619 -1.26868,-3.5978 -1.45042,-2.4582 -2.2717,-5.919 -2.59308,-10.9268 -0.40902,-6.3734 -0.17318,-7.8098 1.80893,-11.0169 3.04637,-4.9291 7.39268,-6.6936 13.62164,-5.5299 7.09069,1.3247 8.71527,3.8153 7.85768,12.0463 -0.37392,3.5888 -1.14108,6.9751 -1.70481,7.5251 -0.69488,0.678 -0.83952,0.3559 -0.44915,-1 0.91282,-3.1706 1.04117,-10.7828 0.22437,-13.3073 -0.86301,-2.6673 -4.21247,-4.1927 -9.20623,-4.1927 -7.20374,0 -10.36916,4.2685 -10.36916,13.9825 0,10.057 3.8832,16.1005 9.28777,14.4546 2.84357,-0.8659 5.72658,-3.3954 6.76687,-5.9371 0.7711,-1.884 0.82226,-1.8668 0.88197,0.2955 0.0848,3.0697 -4.20272,7.2045 -7.47061,7.2045 -2.43611,0 -2.57535,0.2338 -1.93586,3.25 0.37897,1.7875 0.75223,3.475 0.82945,3.75 0.0772,0.275 -0.30959,0.6146 -0.85959,0.7547 -0.55,0.1401 -1.35037,-1.0974 -1.77859,-2.75 -0.42823,-1.6526 -0.95342,-3.0047 -1.1671,-3.0047 -0.21367,0 -2.51882,0.9132 -5.12254,2.0292 -4.42007,1.8947 -4.60806,2.1214 -2.83448,3.4183 1.04476,0.7639 1.57365,1.7149 1.1753,2.1132 -0.39834,0.3984 -1.29763,0.2635 -1.99842,-0.2997 -1.81678,-1.46 -6.73424,-0.68 -9.72266,1.5422 -1.67001,1.2419 -2.7616,3.2447 -3.15961,5.7971 l -0.60809,3.8997 -0.14191,-3.8064 z m 28.8581,-4.1936 c 0.68469,-0.825 1.69489,-1.5 2.24489,-1.5 0.55783,0 0.44954,0.6633 -0.24489,1.5 -0.68469,0.825 -1.69489,1.5 -2.24489,1.5 -0.55783,0 -0.44954,-0.6633 0.24489,-1.5 z m -7,-2.2181 c -1.925,-0.8552 -3.00566,-1.7333 -2.40148,-1.9513 1.5729,-0.5674 6.40148,1.4274 6.40148,2.6447 0,0.5636 -0.1125,0.988 -0.25,0.9431 -0.1375,-0.045 -1.825,-0.7813 -3.75,-1.6365 z m 14,-1.2819 c 3.59874,-1.1525 6,-1.1525 6,0 0,0.55 -1.9125,0.9551 -4.25,0.9003 -3.61042,-0.085 -3.87378,-0.2201 -1.75,-0.9003 z m 10.8125,-2.6831 c 0.72187,-0.2889 1.58438,-0.2534 1.91667,0.079 0.33229,0.3323 -0.25834,0.5687 -1.3125,0.5253 -1.16495,-0.048 -1.4019,-0.285 -0.60417,-0.6042 z m -8.8125,-9.7351 c 0,-1.88 -0.27314,-4.13 -0.60699,-5 -0.33384,-0.87 -0.16636,-1.5818 0.37219,-1.5818 0.53855,0 1.28285,1.899 1.65399,4.22 0.37115,2.321 1.21616,4.5642 1.87781,4.9847 0.76138,0.484 0.37703,0.7703 -1.047,0.78 -1.89749,0.013 -2.25,-0.5202 -2.25,-3.4029 z"
       id="path4039"
       inkscape:connector-curvature="0" />
  </g>
</svg>
