<?xml version="1.0" encoding="UTF-8" standalone="no"?>
<!-- Created with Inkscape (http://www.inkscape.org/) -->

<svg
   xmlns:dc="http://purl.org/dc/elements/1.1/"
   xmlns:cc="http://creativecommons.org/ns#"
   xmlns:rdf="http://www.w3.org/1999/02/22-rdf-syntax-ns#"
   xmlns:svg="http://www.w3.org/2000/svg"
   xmlns="http://www.w3.org/2000/svg"
   xmlns:sodipodi="http://sodipodi.sourceforge.net/DTD/sodipodi-0.dtd"
   xmlns:inkscape="http://www.inkscape.org/namespaces/inkscape"
   width="123.30688"
   height="219.07024"
   id="svg2"
   version="1.1"
   inkscape:version="0.48.3.1 r9886"
   sodipodi:docname="Pile-squat-1.svg">
  <defs
     id="defs4" />
  <sodipodi:namedview
     id="base"
     pagecolor="#ffffff"
     bordercolor="#666666"
     borderopacity="1.0"
     inkscape:pageopacity="0.0"
     inkscape:pageshadow="2"
     inkscape:zoom="3.959798"
     inkscape:cx="140.55683"
     inkscape:cy="106.83904"
     inkscape:document-units="px"
     inkscape:current-layer="layer1"
     showgrid="false"
     fit-margin-top="0"
     fit-margin-left="0"
     fit-margin-right="0"
     fit-margin-bottom="0"
     inkscape:window-width="1855"
     inkscape:window-height="1056"
     inkscape:window-x="65"
     inkscape:window-y="24"
     inkscape:window-maximized="1" />
  <metadata
     id="metadata7">
    <rdf:RDF>
      <cc:Work
         rdf:about="">
        <dc:format>image/svg+xml</dc:format>
        <dc:type
           rdf:resource="http://purl.org/dc/dcmitype/StillImage" />
        <dc:title></dc:title>
      </cc:Work>
    </rdf:RDF>
  </metadata>
  <g
     inkscape:label="Ebene 1"
     inkscape:groupmode="layer"
     id="layer1"
     transform="translate(-806.30078,-1133.3002)">
    <path
       style="fill:#000000"
       d=""
       id="path3414"
       inkscape:connector-curvature="0" />
    <path
       style="fill:#000000"
       d=""
       id="path3412"
       inkscape:connector-curvature="0" />
    <path
       style="fill:#000000"
       d="m 914.34335,1350.0884 c -2.02614,-1.2974 -3.52048,-3.2105 -3.86908,-4.9536 -0.3154,-1.5769 -1.41627,-3.109 -2.47553,-3.4453 -3.38518,-1.0744 -4.86942,-4.7773 -5.23236,-13.0538 -0.29634,-6.7579 -0.87374,-8.9171 -3.98481,-14.9015 -2.00104,-3.8491 -4.57277,-8.1648 -5.71495,-9.5904 -1.39654,-1.743 -2.38515,-5.0765 -3.01849,-10.1778 -0.75478,-6.0795 -1.63299,-8.613 -4.42273,-12.7585 -1.91452,-2.845 -3.48094,-5.6801 -3.48094,-6.3003 0,-1.2129 -7.34964,-8.2879 -9.27702,-8.9304 -3.30945,-1.1032 8.97778,-8.934 16.70225,-10.6446 1.60888,-0.3563 3.06816,-1.0862 3.24285,-1.6221 0.17468,-0.5359 -1.68655,-4.0833 -4.13607,-7.8832 -2.44952,-3.7998 -4.17219,-7.3643 -3.82816,-7.9209 0.34403,-0.5567 0.99482,-0.014 1.44619,1.2064 0.45137,1.2201 1.89943,3.6596 3.21792,5.4209 3.4657,4.6298 9.06107,18.188 11.05429,26.7857 0.9457,4.0792 3.74391,11.4668 6.21824,16.4168 4.05047,8.1031 4.58652,10.0125 5.37925,19.1599 0.7722,8.9105 1.34778,11.0489 4.68037,17.3883 2.08994,3.9756 5.64885,9.3036 7.90869,11.8401 6.03176,6.77 6.2446,8.3111 1.73526,12.5645 -4.36106,4.1134 -7.36617,4.4598 -12.14517,1.3998 z m 10.16625,-1.9252 c 3.3534,-2.6378 3.31369,-4.078 -0.22452,-8.1426 -2.87948,-3.3079 -11.14062,-17.2469 -11.14062,-18.7976 0,-0.4586 -1.16224,-2.215 -2.58276,-3.9032 -1.58536,-1.8841 -3.71839,-7.0305 -5.52347,-13.3267 -1.61739,-5.6415 -3.18547,-11.0448 -3.48462,-12.0073 -0.29916,-0.9625 -0.11715,-1.75 0.40446,-1.75 0.52161,0 2.3509,5.039 4.0651,11.1977 3.69344,13.2698 5.12129,15.4612 5.12129,7.8601 0,-7.085 -3.26609,-17.7446 -7.02817,-22.938 -1.66986,-2.3052 -3.30693,-5.5453 -3.63793,-7.2003 l -0.60181,-3.009 -1.905,2.0447 c -2.31798,2.4881 -3.75948,2.7536 -1.60036,0.2948 3.00309,-3.4199 3.03881,-6.1295 0.18876,-14.3167 -3.02559,-8.6915 -3.66599,-9.1089 -9.94761,-6.4843 -3.24614,1.3563 -3.46788,1.7437 -3.46788,6.059 0,2.6021 -0.40688,4.3586 -0.93416,4.0327 -0.51378,-0.3175 -0.6799,-2.1441 -0.36915,-4.059 0.64132,-3.9521 -0.73483,-4.5441 -4.47418,-1.925 -3.18665,2.232 -2.77329,3.9071 1.88678,7.6462 2.26012,1.8134 5.01603,5.2231 6.12425,7.5771 1.10822,2.3541 4.04151,6.5341 6.51841,9.289 2.4769,2.7549 4.29323,5.2192 4.03629,5.4761 -0.25694,0.2569 -1.28415,-0.4356 -2.28269,-1.539 -2.75295,-3.0419 -3.26322,-2.4602 -2.40663,2.7439 0.43002,2.6125 0.80868,5.2506 0.84147,5.8625 0.0328,0.6119 1.45593,2.8619 3.16254,5 1.70661,2.1381 4.62007,6.8909 6.47435,10.5616 2.84655,5.6351 3.42443,7.948 3.71192,14.8566 0.28482,6.8447 0.65689,8.3576 2.27565,9.2533 2.60111,1.4393 4.36467,3.8346 4.40335,5.9807 0.0341,1.8925 5.4822,5.7254 8.14694,5.7316 0.88833,0 2.80083,-0.929 4.25,-2.0689 z m -37.11514,-72.5897 c -2.08924,-0.843 -1.39428,-2.5183 0.76091,-1.8342 1.64707,0.5227 2.37059,-0.1436 3.99873,-3.6826 1.97619,-4.2957 1.98424,-4.3004 1.37779,-0.8209 -0.57002,3.2705 -2.94495,7.0998 -4.29242,6.9211 -0.32725,-0.043 -1.15751,-0.306 -1.84501,-0.5834 z m -77.17586,64.785 c -1.33422,-0.3728 -2.60922,-1.2279 -2.83333,-1.9003 -0.48792,-1.4637 1.37844,-1.6475 2.25919,-0.2224 1.13021,1.8287 7.95356,1.0332 12.66909,-1.4771 2.55924,-1.3624 6.53871,-2.714 8.84325,-3.0035 2.30454,-0.2896 4.59454,-0.7764 5.08887,-1.082 1.15171,-0.7117 1.11311,-5.815 -0.0827,-10.9374 -1.0291,-4.4082 0.24868,-10.183 3.78843,-17.1215 1.86013,-3.6461 2.57752,-8.2169 2.25672,-14.3785 l -0.13016,-2.5 -1.96673,2.3608 c -3.18702,3.8256 -2.2464,0.7661 1.03327,-3.3608 1.68494,-2.1202 3,-4.9761 3,-6.5151 0,-3.484 1.87957,-5.0249 6.96078,-5.7065 3.85999,-0.5177 4.03922,-0.6995 4.03922,-4.0972 l 0,-3.5554 -2.80472,2.6871 c -1.54259,1.4779 -3.13343,2.6871 -3.53518,2.6871 -1.0734,0 1.35643,-4.239 3.51591,-6.1338 1.78032,-1.5621 1.67672,-1.708 -2.36014,-3.3232 -2.32221,-0.9292 -5.26247,-2.8119 -6.53393,-4.1838 -1.43999,-1.5538 -3.15459,-2.3746 -4.54684,-2.1768 -1.85322,0.2633 -2.28764,1.0437 -2.5426,4.5676 -0.18193,2.5146 0.12432,4.25 0.75,4.25 0.58163,0 1.0575,1.1671 1.0575,2.5936 0,1.7526 0.64852,2.7632 2,3.1166 2.55677,0.6687 2.60448,2.2898 0.0674,2.2898 -1.10972,0 -2.22831,-0.9317 -2.62707,-2.188 -0.65258,-2.0561 -0.80491,-1.9807 -2.52548,1.25 -1.00705,1.8909 -1.84987,5.3104 -1.87292,7.5989 -0.0231,2.2885 -0.93513,7.0135 -2.02684,10.5 -1.0917,3.4865 -2.4984,10.1641 -3.126,14.8391 -0.6276,4.675 -1.42188,9.2446 -1.76508,10.1548 -1.30454,3.4594 -19.124,21.6713 -19.124,19.5451 0,-0.2211 3.99288,-4.5027 8.87306,-9.5147 l 8.87306,-9.1129 1.12694,-7.577 c 0.61982,-4.1673 1.12694,-8.4 1.12694,-9.4059 0,-1.0059 0.9,-4.6461 2,-8.0894 1.1,-3.4433 2,-8.2493 2,-10.6799 0,-2.4307 0.66033,-5.6963 1.46739,-7.257 0.80707,-1.5607 1.68827,-6.2522 1.95824,-10.4255 0.38227,-5.9094 1.28033,-9.2966 4.05968,-15.3122 l 3.56883,-7.7242 -4.03686,-3.5506 c -2.29411,-2.0178 -5.32776,-6.2557 -7.02707,-9.8165 -2.76013,-5.7838 -2.99021,-7.1136 -2.99021,-17.2822 0,-7.8219 0.45941,-12.0942 1.5844,-14.734 0.87142,-2.0449 1.97477,-6.3941 2.45191,-9.665 0.91899,-6.3 3.39976,-10.664 6.55384,-11.5291 2.27461,-0.6238 15.40985,-7.9973 15.40985,-8.6504 0,-0.2499 -0.97355,-1.7712 -2.16345,-3.3806 -1.65716,-2.2414 -2.27133,-4.7899 -2.62446,-10.8901 -0.4047,-6.9909 -0.18601,-8.4088 1.79005,-11.6062 3.26949,-5.2901 7.595,-6.5694 15.13286,-4.4757 5.40822,1.5022 6.843,6.9794 4.90621,18.7292 -0.0227,0.1375 -0.40242,0.25 -0.8439,0.25 -0.44149,0 -0.50733,-2.5875 -0.14633,-5.75 0.98049,-8.5895 -0.5199,-11.3706 -6.86703,-12.7285 -4.93707,-1.0562 -8.75743,0.966 -11.14583,5.8998 -3.72843,7.7019 -1.31609,20.0536 4.30245,22.0295 3.40566,1.1977 7.49531,-0.756 9.38022,-4.481 1.18747,-2.3468 1.25046,-2.3621 1.26447,-0.3087 0.0189,2.7761 -5.37681,7.3389 -8.67862,7.3389 -2.17393,0 -2.43942,0.3242 -1.84254,2.25 1.57841,5.0926 1.73248,6.75 0.62748,6.75 -0.62787,0 -1.41158,-1.35 -1.74158,-3 -0.71207,-3.5604 -1.19535,-3.6297 -6.48605,-0.9306 -3.6705,1.8726 -3.89012,2.191 -2.30867,3.3474 1.13782,0.832 1.36999,1.5114 0.66531,1.9469 -0.59532,0.3679 -1.36504,0.2116 -1.71051,-0.3474 -0.34546,-0.559 -1.83906,-1.002 -3.3191,-0.9845 -5.00587,0.059 -8.19098,4.2492 -8.19098,10.7753 0,2.1663 -0.96093,6.111 -2.1354,8.7661 -1.81711,4.1079 -2.11049,6.526 -1.96831,16.2229 0.14474,9.8713 0.49066,12.034 2.58624,16.1694 1.33053,2.6257 3.77692,5.9165 5.43643,7.3129 3.7677,3.1703 8.08104,9.4359 8.08104,11.7387 0,0.9559 -0.64829,2.276 -1.44064,2.9336 -0.79235,0.6576 -1.60668,2.4002 -1.80963,3.8725 -0.31706,2.3 -0.48512,2.4203 -1.19405,0.8546 -0.57387,-1.2674 -0.16262,-2.7182 1.35081,-4.7652 1.59634,-2.1592 1.9214,-3.3977 1.22045,-4.6502 -0.78469,-1.4022 -1.41745,-0.6625 -3.54118,4.1396 -3.14108,7.1025 -3.1458,7.2147 -0.33576,7.9677 3.43255,0.9199 3.75,0.7946 3.75,-1.4805 0,-2.0605 0.0455,-2.0545 1.91102,0.25 1.70119,2.1016 2.88442,2.3983 10.77663,2.702 7.65369,0.2945 9.1993,0.071 11.30655,-1.6354 2.19518,-1.7776 2.29318,-2.158 0.97337,-3.7784 -1.31434,-1.6137 -1.29017,-1.7354 0.2315,-1.1656 1.28564,0.4815 1.5558,0.2229 1.11027,-1.0627 -0.32385,-0.9345 -1.31343,-2.3221 -2.19908,-3.0836 -1.45949,-1.2549 -1.43997,-1.3256 0.2085,-0.755 1.2714,0.44 2.58511,-0.2812 4.36512,-2.3967 1.40049,-1.6643 4.43527,-4.3257 6.74396,-5.9141 4.03061,-2.7732 12.47606,-14.0365 14.4832,-19.3157 1.15345,-3.0338 0.73665,-21.5331 -0.69885,-31.018 -1.27203,-8.4048 -3.14614,-11.3569 -8.79653,-13.8563 -2.42861,-1.0743 -4.41566,-2.3747 -4.41566,-2.8896 0,-0.515 -2.25,-2.0766 -5,-3.4701 l -5,-2.5337 0.11822,-5.2331 0.11821,-5.2332 0.99607,4.7834 c 0.80676,3.8743 1.59202,5.0885 4.13179,6.3887 1.72464,0.8829 4.53173,2.7803 6.23798,4.2166 1.70625,1.4362 4.48014,3.3557 6.16421,4.2656 4.28399,2.3144 6.59424,6.3021 6.78813,11.7169 0.0912,2.5458 0.67894,5.8963 1.30617,7.4455 0.76556,1.8908 0.93188,6.657 0.50598,14.5 -0.59464,10.9504 -0.85846,12.0887 -4.2056,18.146 -1.96414,3.5544 -5.16641,7.9009 -7.11616,9.6587 -1.94975,1.7578 -5.78198,5.2196 -8.51606,7.6929 l -4.97106,4.4969 1.61746,5.0579 c 1.45528,4.5508 1.46298,5.1862 0.0768,6.3366 -1.32966,1.1035 -1.44406,0.9743 -0.83542,-0.9434 0.38788,-1.222 0.24147,-3.0185 -0.32534,-3.9921 -0.79914,-1.3727 -1.03851,-0.5351 -1.06592,3.7298 l -0.0353,5.5 -4.62063,0.2686 c -2.54135,0.1477 -5.01412,0.5118 -5.49506,0.809 -0.48094,0.2972 -0.87443,2.7639 -0.87443,5.4814 0,4.6294 0.1608,4.941 2.54966,4.941 1.40231,0 3.87731,0.6866 5.5,1.5257 2.6002,1.3446 2.95034,2.0567 2.95034,6 0,3.2232 -0.59187,5.0662 -2.11674,6.591 -1.90888,1.9089 -2.97658,2.0757 -10.87321,1.6981 -6.02498,-0.288 -9.57587,-0.9555 -11.38326,-2.1398 l -2.62679,-1.7211 -7.9e-4,6.2731 c -6.1e-4,4.8674 -0.66086,7.6683 -2.94662,12.4999 -3.82105,8.077 -5.19351,13.1412 -4.11009,15.1658 0.47306,0.884 1.17395,3.7004 1.55754,6.2586 0.59229,3.95 0.38103,4.9676 -1.4013,6.75 -1.20472,1.2047 -3.38473,2.0987 -5.11764,2.0987 -1.66039,0 -5.54873,1.35 -8.64076,3 -5.55697,2.9654 -8.54179,3.443 -13.2662,2.1227 z m 56.45798,-53.5717 c 1.90733,-0.7969 3.46788,-1.977 3.46788,-2.6224 0,-0.8829 -0.34085,-0.8906 -1.37641,-0.031 -1.62339,1.3473 -9.74093,1.7271 -18.01809,0.8431 -6.2354,-0.666 -6.54794,0.4134 -0.6055,2.091 5.23453,1.4778 12.62404,1.3524 16.53212,-0.2805 z m 1.46235,-4.548 c 4.06908,-2.1777 1.98313,-5.0197 -4.74447,-6.4641 -2.84843,-0.6116 -3.25,-0.4409 -3.25,1.3816 0,1.1437 -0.3375,2.0805 -0.75,2.0818 -0.4125,10e-4 -0.60057,-3.1488 -0.41794,-7 0.21275,-4.4865 -0.0499,-7.0023 -0.73095,-7.0023 -1.56306,0 -2.32944,4.1183 -1.74886,9.398 0.30097,2.737 0.12847,4.3991 -0.4213,4.0593 -0.51202,-0.3164 -0.93095,-1.2238 -0.93095,-2.0163 0,-1.8324 -2.1337,-1.8298 -6.53212,0.01 -3.45934,1.4454 -4.50843,3.7899 -2.30517,5.1516 3.94514,2.4382 17.55892,2.6891 21.83176,0.4024 z m 0.30978,-22.7867 c 1.64948,-1.8226 1.54131,-1.8477 -3.79746,-0.88 -3.70013,0.6706 -7.70221,0.6581 -12.25104,-0.038 -7.32102,-1.121 -8.72951,-0.8488 -5.98658,1.1569 1.09364,0.7997 5.30135,1.3573 11.05163,1.4644 7.94749,0.1482 9.53028,-0.097 10.98345,-1.703 z m -49.26262,71.3927 c -0.058,-1.2405 7.18239,-10.609 8.19904,-10.609 0.45633,0 0.40318,0.7875 -0.11812,1.75 -1.42983,2.64 -8.03326,9.8792 -8.08092,8.859 z m 16.95837,-46.7179 c 0,-1.3798 0.66705,-3.3823 1.48234,-4.45 1.37622,-1.8021 1.43834,-1.6905 0.86776,1.5589 -0.76832,4.3756 -2.3501,6.3215 -2.3501,2.8911 z m 17.8125,-32.5742 c 0.72187,-0.2889 1.58438,-0.2534 1.91667,0.079 0.33229,0.3323 -0.25834,0.5686 -1.3125,0.5252 -1.16495,-0.048 -1.4019,-0.2849 -0.60417,-0.6041 z m 6.1875,-0.3169 c -1.925,-0.4052 -2.825,-0.8478 -2,-0.9835 2.44832,-0.4028 5.43337,0.092 6.45,1.07 1.06189,1.0211 0.78655,1.0157 -4.45,-0.087 z m -14,-0.4296 c 0,-0.275 0.9,-0.9817 2,-1.5704 1.1,-0.5887 2,-0.8454 2,-0.5704 0,0.275 -0.9,0.9817 -2,1.5704 -1.1,0.5887 -2,0.8454 -2,0.5704 z m 5.5,-1.5704 c 0.33992,-0.55 0.81648,-1 1.05902,-1 0.24254,0 0.44098,0.45 0.44098,1 0,0.55 -0.47656,1 -1.05902,1 -0.58246,0 -0.7809,-0.45 -0.44098,-1 z m 4.10699,-3.5818 c -1.10895,-2.8899 -0.5648,-3.9462 0.98815,-1.9182 1.48023,1.933 1.78064,1.7411 8.9682,-5.7301 4.09016,-4.2515 7.43666,-8.4612 7.43666,-9.355 0,-1.7009 0.12504,-1.7019 -12,0.1008 -3.39469,0.5047 -5.72812,0.1685 -9.5,-1.3688 -2.75,-1.1208 -4.4375,-2.0624 -3.75,-2.0924 1.51879,-0.066 1.74291,-8.6318 0.25,-9.5545 -1.73306,-1.0711 -1.08739,-6.4126 1.03125,-8.5312 1.11719,-1.1172 3.36719,-2.2985 5,-2.625 2.13571,-0.4272 2.9909,-1.1901 3.0477,-2.7188 0.0534,-1.4365 0.25265,-1.639 0.61503,-0.625 0.88257,2.4695 3.49587,4 6.82979,4 2.47619,0 3.84031,0.8696 6.44116,4.106 2.57783,3.2077 2.8332,3.8563 1.16737,2.9648 -1.17277,-0.6276 -2.83058,-2.2069 -3.68403,-3.5094 -1.17168,-1.7882 -2.65834,-2.4562 -6.07001,-2.7276 l -4.51828,-0.3593 0.50578,8.5127 0.50577,8.5128 -1.64835,-8.25 c -1.77884,-8.9031 -2.93665,-9.961 -7.11363,-6.5 -1.73382,1.4366 -1.95989,2.2872 -1.2625,4.75 0.6728,2.376 1.34908,2.9507 3.25123,2.763 2.30648,-0.2277 2.32581,-0.1789 0.48753,1.2303 -1.72237,1.3203 -1.79192,1.8754 -0.69402,5.5399 0.67109,2.2399 1.8787,4.3252 2.68356,4.6341 0.80487,0.3088 4.27735,0.2602 7.71662,-0.1081 6.11041,-0.6544 6.28226,-0.7541 7.52441,-4.3644 0.69915,-2.0322 1.36398,-4.5575 1.4774,-5.612 0.11342,-1.0544 0.76872,-2.1044 1.45622,-2.3333 1.76483,-0.5876 1.55518,4.7629 -0.2818,7.1916 -1.90694,2.5212 -1.87194,4.5589 0.0783,4.5589 0.85058,0 2.31308,-1.4067 3.25,-3.126 0.93692,-1.7193 2.65442,-4.3068 3.81666,-5.75 3.18543,-3.9555 3.7234,-6.6807 1.87549,-9.501 -0.88945,-1.3574 -1.87742,-4.9896 -2.1955,-8.0715 -0.53441,-5.178 -0.70635,-5.4875 -2.26448,-4.0775 -1.81931,1.6465 -5.11923,1.8865 -12.33614,0.8973 -3.88977,-0.5331 -4.73749,-1.0615 -5.57984,-3.4779 -0.54629,-1.567 -0.61813,-3.081 -0.15965,-3.3644 0.45848,-0.2833 1.09512,0.5268 1.41474,1.8003 0.45063,1.7954 1.67511,2.5679 5.45229,3.4398 6.41696,1.4812 9.03331,0.7571 12.82904,-3.5507 l 3.14911,-3.5739 -0.51612,6.4298 c -0.38445,4.7895 -0.0747,7.4498 1.21422,10.4278 2.9322,6.7748 2.73825,8.4245 -1.5652,13.3135 -2.16212,2.4563 -3.93113,4.8636 -3.93113,5.3497 0,1.9922 -8.11283,13.542 -11.02397,15.6943 -1.72329,1.2741 -2.87527,2.5745 -2.55996,2.8898 0.50441,0.5044 -5.60259,5.2506 -6.75603,5.2506 -0.24533,0 -0.71921,-0.7118 -1.05305,-1.5818 z m -5.71531,-9.7061 c -1.98458,-2.8667 -3.93349,-6.3371 -4.33092,-7.7121 -0.39743,-1.375 -2.04855,-5.7609 -3.66916,-9.7465 -2.73437,-6.7246 -2.84075,-7.4511 -1.47716,-10.088 1.74975,-3.3837 2.23231,-14.6022 0.78509,-18.2518 -1.14462,-2.8866 1.09759,-9.2668 4.14199,-11.7861 2.47045,-2.0444 2.04506,0.2139 -0.84152,4.4675 -3.03497,4.4723 -3.08007,5.3977 -0.42742,8.77 1.83617,2.3343 2.77152,2.6349 8.2,2.6349 8.16135,0 6.32834,1.9958 -2.1007,2.2872 l -6.15369,0.2128 -0.009,4.3724 c -0.008,3.9695 0.14526,4.246 1.66555,3 1.45073,-1.1889 1.43433,-1.0031 -0.12267,1.3893 -1.30763,2.0092 -1.60256,3.644 -1.0825,6 0.39314,1.7811 1.06362,6.5014 1.48996,10.4897 0.66243,6.1968 1.30349,7.9295 4.40787,11.9141 2.94801,3.7839 4.66684,7.4915 3.38269,7.2966 -0.1375,-0.021 -1.87374,-2.3834 -3.85832,-5.25 z m -6.90746,-22.7502 c -0.66898,-1.6151 -1.56184,-2.7229 -1.98412,-2.462 -0.42229,0.261 -0.0405,2.0791 0.8484,4.0403 1.89372,4.178 2.92591,2.7436 1.13572,-1.5783 z m 9.51578,19.4821 c -2.64821,-1.2939 -2.70684,-1.4075 -0.5,-0.9686 1.375,0.2735 4.75,0.5103 7.5,0.5263 3.60051,0.021 4.58016,0.3003 3.5,0.9983 -2.16322,1.398 -7.02808,1.1404 -10.5,-0.556 z m 11.5,-16.444 c -1.29269,-0.8354 -1.26629,-0.9715 0.19098,-0.9847 0.93004,-0.01 1.9691,0.4347 2.30902,0.9847 0.78218,1.2656 -0.54163,1.2656 -2.5,0 z m -29.83948,-2.547 c -0.63829,-1.4009 -1.10832,-3.9884 -1.04452,-5.75 0.0638,-1.7617 0.3218,-2.4155 0.57333,-1.453 0.25152,0.9625 1.32432,1.75 2.38399,1.75 1.05968,0 1.92668,0.45 1.92668,1 0,0.55 -0.675,1 -1.5,1 -1.75544,0 -1.91127,1.363 -0.46482,4.0657 0.56936,1.0639 0.64159,1.9343 0.16052,1.9343 -0.48107,0 -1.3969,-1.1462 -2.03518,-2.547 z m 51.85479,-4.644 c -0.008,-1.48 0.43469,-2.9691 0.98469,-3.309 1.2769,-0.7892 1.2769,2.5241 0,4.5 -0.7582,1.1732 -0.97271,0.9138 -0.98469,-1.191 z m -10.61032,-2.6635 c 2.11633,-2.3835 2.59501,-2.6013 2.59501,-1.1807 0,0.5307 -1.0125,1.4961 -2.25,2.1455 -2.23794,1.1744 -2.23979,1.1692 -0.34501,-0.9648 z m -3.40499,-3.5385 c 0,-0.2162 0.675,-0.652 1.5,-0.9686 0.825,-0.3166 1.5,-0.1398 1.5,0.393 0,0.5327 -0.675,0.9686 -1.5,0.9686 -0.825,0 -1.5,-0.1769 -1.5,-0.393 z m -21,-1.4379 c 0,-1.2966 2.74049,-3.4286 3.87382,-3.0136 0.51759,0.1895 -0.14228,1.153 -1.46638,2.1412 -1.32409,0.9882 -2.40744,1.3808 -2.40744,0.8724 z m 12,-1.6691 c -1.58383,-1.9084 -0.0985,-1.889 2.44113,0.032 1.55395,1.1754 1.62824,1.4682 0.37244,1.4682 -0.86277,0 -2.12888,-0.675 -2.81357,-1.5 z m 13.83679,-13.707 c 1.12648,-1.4385 1.08715,-2.0635 -0.25,-3.9725 -1.87978,-2.6838 -2.0706,-6.9367 -0.38679,-8.6205 1.45618,-1.4562 3.8,-1.5795 3.8,-0.2 0,0.55 -0.5625,0.8875 -1.25,0.75 -1.94783,-0.3896 -2.06653,4.8373 -0.1754,7.7235 0.93298,1.4239 1.52286,2.7022 1.31086,2.8407 -0.212,0.1384 -1.28546,0.9119 -2.38546,1.7188 -1.83782,1.348 -1.8916,1.3286 -0.66321,-0.24 z m -16.83679,-7.793 c 1.95837,-1.2656 3.28218,-1.2656 2.5,0 -0.33992,0.55 -1.37898,0.9931 -2.30902,0.9847 -1.45727,-0.013 -1.48367,-0.1493 -0.19098,-0.9847 z m -7.5,-2.6277 -3,-1.4653 3.46875,0.5653 c 1.90781,0.3108 3.91031,1.0068 4.45,1.5465 1.45835,1.4583 -1.37057,1.0865 -4.91875,-0.6465 z m 12.5,-0.3723 c 0.825,-0.5332 3.3,-0.9446 5.5,-0.9144 3.14267,0.043 3.57133,0.2392 2,0.9144 -2.91858,1.2542 -9.44067,1.2542 -7.5,0 z m 0,-8.941 c 0,-0.5175 0.44485,-1.2159 0.98855,-1.5519 0.56686,-0.3504 0.7345,0.051 0.39301,0.941 -0.66479,1.7324 -1.38156,2.0493 -1.38156,0.6109 z"
       id="path4037"
       inkscape:connector-curvature="0" />
  </g>
</svg>
