<?xml version="1.0" encoding="UTF-8" standalone="no"?>
<!-- Created with Inkscape (http://www.inkscape.org/) -->

<svg
   xmlns:dc="http://purl.org/dc/elements/1.1/"
   xmlns:cc="http://creativecommons.org/ns#"
   xmlns:rdf="http://www.w3.org/1999/02/22-rdf-syntax-ns#"
   xmlns:svg="http://www.w3.org/2000/svg"
   xmlns="http://www.w3.org/2000/svg"
   xmlns:xlink="http://www.w3.org/1999/xlink"
   xmlns:sodipodi="http://sodipodi.sourceforge.net/DTD/sodipodi-0.dtd"
   xmlns:inkscape="http://www.inkscape.org/namespaces/inkscape"
   width="158.67973"
   height="207.53627"
   id="svg2"
   version="1.1"
   inkscape:version="0.48.3.1 r9886"
   sodipodi:docname="Preacher-curl-3-1.svg">
  <defs
     id="defs4">
    <radialGradient
       gradientUnits="userSpaceOnUse"
       gradientTransform="matrix(1,0,0,0.91819829,-19.285714,-7.9105395)"
       r="209.56604"
       fy="287.50052"
       fx="398.1105"
       cy="287.50052"
       cx="398.1105"
       id="radialGradient5255"
       xlink:href="#linearGradient5249"
       inkscape:collect="always" />
    <linearGradient
       id="linearGradient5249"
       inkscape:collect="always">
      <stop
         id="stop5251"
         offset="0"
         style="stop-color:#e3e3e3;stop-opacity:1;" />
      <stop
         id="stop5253"
         offset="1"
         style="stop-color:#e3e3e3;stop-opacity:0;" />
    </linearGradient>
  </defs>
  <sodipodi:namedview
     id="base"
     pagecolor="#ffffff"
     bordercolor="#666666"
     borderopacity="1.0"
     inkscape:pageopacity="0.0"
     inkscape:pageshadow="2"
     inkscape:zoom="1.979899"
     inkscape:cx="6.7015943"
     inkscape:cy="57.509452"
     inkscape:document-units="px"
     inkscape:current-layer="layer1"
     showgrid="false"
     showguides="true"
     inkscape:guide-bbox="true"
     fit-margin-top="0"
     fit-margin-left="0"
     fit-margin-right="0"
     fit-margin-bottom="0"
     inkscape:window-width="1201"
     inkscape:window-height="886"
     inkscape:window-x="83"
     inkscape:window-y="39"
     inkscape:window-maximized="0">
    <sodipodi:guide
       orientation="-0.70710678,0.70710678"
       position="-2012.3955,517.67525"
       id="guide2985" />
  </sodipodi:namedview>
  <metadata
     id="metadata7">
    <rdf:RDF>
      <cc:Work
         rdf:about="">
        <dc:format>image/svg+xml</dc:format>
        <dc:type
           rdf:resource="http://purl.org/dc/dcmitype/StillImage" />
        <dc:title></dc:title>
      </cc:Work>
    </rdf:RDF>
  </metadata>
  <g
     inkscape:label="Ebene 1"
     inkscape:groupmode="layer"
     id="layer1"
     transform="translate(-583.82397,-336.78688)">
    <path
       style="fill:#000000"
       d="m 633.89793,541.42397 c -4.02249,-3.46 -6.62369,-13.4624 -6.38573,-24.55507 0.0754,-3.5158 -0.61653,-9.46777 -1.53768,-13.22659 -1.54447,-6.30233 -1.55013,-7.20013 -0.0728,-11.53577 2.5395,-7.45304 2.27081,-8.34528 -2.51315,-8.34528 -3.44259,0 -4.65061,-0.58461 -7.39163,-3.5771 -1.80207,-1.9674 -3.81867,-5.51358 -4.48134,-7.88039 l -1.20484,-4.30328 -5.15353,0.13038 c -4.53033,0.11462 -5.15353,-0.11147 -5.15353,-1.86961 0,-1.62993 1.20271,-2.29756 6.5,-3.60814 12.38747,-3.06473 13.77866,-3.1646 14.45374,-1.0376 0.70744,2.22895 -1.33453,7.33745 -2.61628,6.54528 -0.47855,-0.29575 -0.61119,-0.95664 -0.29476,-1.46864 0.66384,-1.07411 -0.13445,-1.14699 -3.2927,-0.30061 -2.77532,0.74375 -2.883,3.20912 -0.35641,8.15955 2.97353,5.82612 5.24575,7.38226 10.2542,7.02265 4.03661,-0.28983 4.52024,-0.6388 6.66943,-4.81249 2.04428,-3.96994 2.27585,-5.61902 1.96597,-14 -0.2828,-7.64841 -0.80153,-10.29717 -2.66148,-13.59007 -6.2097,-10.9938 -16.7779,-7.81603 -18.62305,5.59981 -0.37732,2.74341 -1.09387,5.24009 -1.59234,5.54816 -1.23205,0.76144 -1.12027,-1.01579 0.4959,-7.88481 1.53214,-6.51192 5.60054,-11.67309 9.20154,-11.67309 1.22626,0 2.37957,-0.43852 2.56291,-0.97448 0.54024,-1.57937 4.60591,-0.003 5.12646,1.98743 0.39441,1.5082 1.06668,1.70221 3.84246,1.10887 4.2197,-0.90198 9.05971,-0.0417 9.64389,1.71413 0.35337,1.06209 -0.7059,1.19221 -5.1675,0.63477 -3.08659,-0.38564 -5.61198,-0.51946 -5.61198,-0.29739 0,0.22208 0.9,2.16908 2,4.32667 1.1,2.15759 2,4.50273 2,5.21144 0,1.80351 1.97853,1.59909 5.53927,-0.57233 2.13766,-1.30359 2.99474,-2.56326 2.88913,-4.24626 -0.27406,-4.3675 -1.67744,-10.35678 -3.07281,-13.11401 -1.20682,-2.38465 -1.69299,-2.60106 -3.93145,-1.75 -1.40489,0.53414 -3.3583,0.97116 -4.34093,0.97116 -2.9914,0 -7.43743,-5.18796 -10.52662,-12.28328 l -2.93091,-6.73175 -1.31284,3.12233 c -2.1231,5.04936 -1.60421,9.69796 1.67792,15.0321 3.76409,6.11744 2.05145,6.39766 -2.20387,0.3606 -1.74454,-2.475 -3.48383,-4.5 -3.86508,-4.5 -1.36596,0 -6.23832,2.89409 -7.03061,4.17605 -1.22477,1.98171 0.0687,6.00388 2.91471,9.06352 3.47753,3.73857 1.90831,4.81888 -1.81634,1.25044 -2.48742,-2.3831 -2.98957,-3.65204 -2.98957,-7.55466 0,-5.17535 0.73911,-6.10752 6.25,-7.88258 3.4636,-1.11563 3.75,-1.49811 3.75,-5.0082 0,-2.09018 0.6981,-5.47111 1.55133,-7.51319 0.85324,-2.04208 1.07824,-3.42048 0.5,-3.06311 -0.57823,0.35737 -1.05133,0.19976 -1.05133,-0.35024 0,-0.55 0.3986,-1.24634 0.88578,-1.54744 0.48717,-0.30109 0.65514,-3.42061 0.37326,-6.93228 -0.42901,-5.34457 -0.20674,-6.69324 1.36422,-8.27771 1.23034,-1.24091 1.949,-3.55558 2.08655,-6.7203 0.35526,-8.17405 8.94718,-20.3819 15.9779,-22.70225 3.64054,-1.20149 4.03745,-2.63507 1.88304,-6.80123 -1.99352,-3.85504 -2.97801,-14.03022 -1.6822,-17.38636 2.29119,-5.93418 12.48499,-8.67714 19.24875,-5.17946 4.37158,2.26063 7.20087,9.14903 7.50774,18.27892 0.23381,6.9564 0.40255,7.43827 3.15144,9 11.87547,6.74681 16.20352,11.78768 16.20352,18.87218 0,2.47586 0.35557,2.99768 1.78751,2.62322 3.39354,-0.88743 6.98802,3.23605 8.21568,9.42477 0.62515,3.15145 1.80591,8.49527 2.62391,11.87515 1.32039,5.45566 1.31827,6.54975 -0.0189,9.75 -0.82837,1.98262 -1.97911,3.60476 -2.55717,3.60476 -1.56698,0 -1.21983,3.82038 0.90867,10 1.42056,4.12426 2.47546,5.63781 4.21736,6.05093 1.27762,0.30301 3.99599,1.31551 6.04082,2.25 5.76032,2.63247 6.43117,2.31012 7.10935,-3.41604 0.88192,-7.4465 4.09426,-13.48757 7.87234,-14.80462 1.70438,-0.59415 3.91607,-1.08027 4.91486,-1.08027 3.20796,0 8.65263,5.7826 10.40106,11.04663 1.80982,5.44887 1.6436,5.34172 6.24111,4.02318 1.78387,-0.51161 3.2434,-0.55631 3.2434,-0.0993 0,0.45697 -1.61612,1.21305 -3.59137,1.68019 -1.97526,0.46714 -3.43776,1.29934 -3.25,1.84934 0.18775,0.55 0.56637,0.9452 0.84137,0.87822 4.87151,-1.18655 6,-1.26979 6,-0.44259 0,0.53556 -1.52831,1.26046 -3.39625,1.61088 -3.27466,0.61433 -3.42136,0.83972 -4.09756,6.29532 -0.82702,6.6725 -2.78368,11.76019 -5.72823,14.89452 -2.56951,2.73512 -8.22246,3.04146 -11.66245,0.632 -2.37477,-1.66335 -7.08804,-10.58472 -7.10574,-13.44987 -0.006,-1.04981 -1.50729,-1.92421 -4.46396,-2.60079 -4.31632,-0.98771 -4.48316,-0.93616 -5.39008,1.66542 -1.70151,4.88097 -10.73597,7.58526 -15.44091,4.62192 -1.3774,-0.86753 -2.97102,-1.09904 -4.21482,-0.6123 -1.63885,0.64133 -1.14227,1.00495 2.75,2.01368 2.6125,0.67706 4.75,1.68385 4.75,2.2373 0,1.53591 -6.09991,5e-4 -8.45193,-2.12742 -1.84852,-1.67241 -2.60946,-1.73702 -7.80992,-0.66314 -3.16902,0.65439 -5.98617,0.96549 -6.26034,0.69133 -0.27416,-0.27416 -1.05633,0.19302 -1.73814,1.03818 -2.59281,3.21399 -12.93365,4.5832 -17.96429,2.37862 -2.85559,-1.25141 -8.24864,2.81265 -9.74364,7.34256 -2.40444,7.28552 1.48485,9.68799 5.45488,3.36956 1.10736,-1.7624 2.53864,-3.02331 3.18062,-2.80203 1.53456,0.52896 2.62995,-2.40835 1.43505,-3.84812 -0.65991,-0.79518 0.10524,-1.12329 2.61942,-1.12329 l 3.55163,0 -0.63667,10.40556 c -0.35017,5.72306 -0.63667,12.81056 -0.63667,15.75 0,3.09225 -0.44593,5.34444 -1.0582,5.34444 -0.72191,0 -0.87373,-4.5285 -0.47773,-14.25 0.52462,-12.87902 0.43401,-14.06325 -0.9418,-12.30887 -0.83725,1.06762 -1.52227,3.44195 -1.52227,5.27628 0,5.89624 -2.37805,16.28259 -3.72805,16.28259 -0.80047,0 -1.27753,1.39005 -1.28701,3.75 -0.008,2.0625 -0.66353,5.55 -1.4561,7.75 -0.79258,2.2 -1.46081,7.19548 -1.48495,11.10106 -0.0493,7.98079 1.8934,12.67676 9.1578,22.13628 4.11053,5.35263 4.40909,7.82205 1.07099,8.85834 -0.97497,0.30267 -2.55407,0.96747 -3.50911,1.47732 -3.3137,1.76903 -9.49207,1.0646 -12.36931,-1.41029 z m 10.57678,-0.62365 c 2.35267,-1.48787 0.3286,-2.45988 -4.50357,-2.16273 -5.97607,0.3675 -5.73788,-1.46664 0.28253,-2.17551 4.07295,-0.47957 4.99175,-0.24867 6.44601,1.61994 1.25926,1.61805 1.98732,1.88896 2.82723,1.052 0.84098,-0.838 0.38926,-1.99262 -1.76054,-4.5 -9.50723,-11.08855 -12.94027,-22.40051 -9.8746,-32.53702 0.97072,-3.20966 1.97514,-7.18574 2.23204,-8.83574 0.2569,-1.65 0.69014,-4.44803 0.96275,-6.21785 0.27262,-1.76982 1.19672,-3.9189 2.05355,-4.77574 0.90413,-0.90412 1.79066,-4.12494 2.11258,-7.67516 l 0.55469,-6.11729 -3.24904,2.89302 c -2.84051,2.52926 -3.18591,3.36454 -2.74701,6.64302 0.59119,4.41602 -0.85711,5.07784 -1.79248,0.8191 -0.35406,-1.612 -1.28235,-3.46091 -2.06289,-4.10869 -2.09701,-1.74037 -3.75736,3.31249 -3.13467,9.53959 0.48227,4.82285 0.45324,4.89371 -0.81942,2 l -1.3194,-3 -0.66192,3 c -0.36405,1.65 -1.39256,4.73171 -2.28558,6.84825 -1.51151,3.58246 -1.50028,4.32719 0.16266,10.78254 1.01917,3.95632 1.65401,9.38968 1.47824,12.65175 -0.21155,3.92627 0.42721,8.06709 2.03894,13.21746 1.29085,4.125 2.50394,8.07331 2.69576,8.77402 0.70043,2.55864 7.53728,4.0528 10.36414,2.26504 z M 631.50367,522.2116 c 0,-1.5955 3.21106,-6.43793 3.9615,-5.97413 1.04096,0.64334 -1.69451,6.52379 -3.03474,6.52379 -0.50972,0 -0.92676,-0.24735 -0.92676,-0.54966 z m 4,-26.71857 c 0,-4.02752 1.50546,-8.73177 2.79436,-8.73177 0.94472,0 -0.91122,10.4502 -2.05996,11.59893 -0.40392,0.40392 -0.7344,-0.8863 -0.7344,-2.86716 z m -23.77285,-30.40207 c 4.27507,-0.91867 7.77285,-2.09245 7.77285,-2.60841 0,-0.51596 -1.0125,-0.69669 -2.25,-0.40162 -1.2375,0.29507 -5.0625,1.0774 -8.5,1.73851 -3.4375,0.66112 -6.25,1.59348 -6.25,2.07193 0,1.15401 0.22161,1.13478 9.22715,-0.80041 z m 115.33871,-3.24747 c 0.58622,-0.0452 2.15203,-1.99473 3.47958,-4.33223 2.02232,-3.56084 2.41703,-5.62833 2.43414,-12.75 0.0323,-13.45537 -4.42625,-22 -11.47958,-22 -5.65437,0 -8.53982,4.3715 -10.42379,15.79221 l -0.54309,3.2922 3.73344,-0.66429 c 2.05339,-0.36536 4.18344,-0.72185 4.73344,-0.79221 0.55,-0.0704 1,0.98267 1,2.34005 0,2.02557 -0.71701,2.66913 -4,3.59025 -2.2,0.61726 -3.98611,1.53167 -3.96913,2.03204 0.11955,3.52347 2.13034,7.96843 4.96384,10.97282 2.66587,2.82664 3.89329,3.43673 6.16681,3.06522 1.56116,-0.25511 3.31812,-0.50083 3.90434,-0.54606 z m -2.56586,-1.42859 c 0,-0.1905 0.6597,-1.66876 1.466,-3.28503 3.73245,-7.48188 2.69805,-21.90061 -2.07583,-28.93532 -2.42647,-3.5756 -2.62013,-5.31148 -0.44241,-3.96558 2.09766,1.29643 4.99,8.38291 5.99875,14.69746 1.45384,9.10069 -0.86829,21.83483 -3.98169,21.83483 -0.53065,0 -0.96482,-0.15586 -0.96482,-0.34636 z m -81.82237,-3.61547 c 1.54835,-0.94161 2.54526,-1.98194 2.21536,-2.31185 -0.77304,-0.77304 -9.39299,3.39363 -9.39299,4.54033 0,1.09409 3.50202,0.007 7.17763,-2.22848 z m 16.07237,-0.94066 c 2.24083,-0.85397 2.74297,-1.65433 2.71205,-4.32276 -0.0309,-2.66407 -0.77218,-3.78251 -3.97525,-5.99762 -4.97926,-3.44346 -6.98268,-8.20725 -7.00186,-16.64925 -0.0137,-6.04395 -1.57955,-13.05583 -3.2996,-14.77588 -0.37694,-0.37693 -0.68534,1.21622 -0.68534,3.54035 0,2.68948 -0.3807,3.9904 -1.04721,3.57847 -0.5892,-0.36414 -0.948,-3.34219 -0.82037,-6.80902 0.29063,-7.89468 -0.55755,-14.35018 -2.49458,-18.98615 -1.71094,-4.09484 -1.86328,-4.17632 -4.60593,-2.46351 -2.60943,1.62962 -4.07155,-0.0673 -1.53191,-1.7779 6.31682,-4.25482 5.92299,-3.15011 5.23498,-14.68424 -0.24522,-4.11083 -0.0258,-4.75 1.6306,-4.75 2.11778,0 4.56553,2.67199 4.58038,5 0.006,0.98243 -0.65152,0.63953 -1.90637,-0.99376 l -1.91593,-2.49376 0.32145,6.45287 c 0.1768,3.54908 -0.14912,7.48567 -0.72427,8.74799 -0.57514,1.26231 -0.86012,2.4664 -0.63328,2.67576 0.50342,0.46462 24.45934,-2.99189 25.59966,-3.69367 0.44703,-0.27512 0.89834,1.90757 1.00292,4.85042 0.10458,2.94285 1.34208,8.99716 2.75,13.45402 1.40792,4.45685 2.55986,9.27107 2.55986,10.69825 0,3.86442 9.17263,23.17287 10.72539,22.57702 1.49953,-0.57543 1.73384,1.323 0.27461,2.22486 -1.48782,0.91952 -1.20945,3.5 0.37756,3.5 2.46604,0 3.84248,2.57249 2.13477,3.98977 -2.34112,1.94296 -1.80228,3.01023 1.51979,3.01023 4.19457,0 9.96788,-2.5768 9.96788,-4.44897 0,-0.85307 -0.5625,-1.56534 -1.25,-1.58283 -0.76339,-0.0194 -0.56875,-0.54895 0.5,-1.36025 2.47372,-1.87782 2.25846,-2.30791 -2.32564,-4.64654 -4.60097,-2.34724 -6.92276,-6.63565 -7.55888,-13.96141 -0.50918,-5.86396 -3.41502,-14.80503 -5.01062,-15.41732 -0.68886,-0.26434 -1.51836,0.35712 -1.84334,1.38102 -0.53041,1.67119 -0.96673,1.51731 -4.26478,-1.50411 -4.07989,-3.73767 -4.04114,-5.6589 0.0493,-2.44141 l 2.60131,2.04619 0.67436,-3.59466 c 1.02794,-5.47938 -0.099,-12.33918 -2.57802,-15.69218 -1.6809,-2.27354 -1.92155,-3.20405 -0.97927,-3.78641 1.98958,-1.22963 0.23694,-7.85826 -2.83064,-10.70575 -1.47605,-1.37014 -4.03373,-3.74391 -5.68373,-5.27503 -4.16054,-3.86081 -7.28252,-4.67259 -9.04164,-2.35104 -0.76711,1.01239 -1.40907,2.53849 -1.42656,3.39133 -0.0411,2.00327 -2.32636,6.93143 -3.21893,6.94157 -0.37797,0.004 -0.43159,-1.5672 -0.11921,-3.4922 0.53078,-3.27078 0.39242,-3.5 -2.11253,-3.5 -4.01901,0 -8.33662,-2.63664 -10.26235,-6.26693 l -1.71503,-3.23307 -0.65275,3.80085 c -0.70879,4.12718 -2.95105,7.45022 -2.95105,4.37347 0,-1.56411 -0.25747,-1.5912 -2.75,-0.28928 -6.06579,3.16834 -12.72102,12.78101 -13.69736,19.7842 -0.5962,4.27639 -0.48833,4.6267 1.28202,4.16374 1.32142,-0.34555 1.77465,-1.11097 1.43253,-2.41923 -0.27525,-1.05256 -0.11047,-1.90268 0.36618,-1.88915 1.27361,0.0362 4.36663,6.68342 4.36663,9.38441 0,1.27974 1.575,5.40232 3.5,9.16129 1.925,3.75897 3.5,7.40894 3.5,8.11104 0,1.47089 4.49427,15.36822 6.40917,19.81866 0.70995,1.65 1.87328,4.48754 2.58519,6.30563 1.81611,4.63808 3.62226,2.59277 2.01391,-2.28057 -1.2555,-3.80421 -0.59037,-6.05882 1.03139,-3.4961 2.19451,3.46778 2.20872,7.83982 0.0345,10.60393 -1.64332,2.08914 -1.83951,2.89408 -0.85384,3.50326 0.70384,0.435 1.27971,1.14481 1.27971,1.57738 0,1.0807 5.91896,0.3312 6.33333,-0.80198 0.53054,-1.45084 2.16667,-1.05536 2.16667,0.52372 0,0.7894 -1.55104,1.99614 -3.44676,2.68164 -1.89572,0.6855 -3.19114,1.65996 -2.87872,2.16547 0.61147,0.98939 4.1549,0.49979 8.57548,-1.18487 z m 26.87307,-20.72674 c -0.65887,-1.44607 -0.91931,-2.90786 -0.57875,-3.24842 0.7682,-0.7682 3.45568,2.78494 3.45568,4.56878 0,2.19899 -1.61009,1.46004 -2.87693,-1.32036 z m -45.72662,-21.16141 c -2.05765,-1.7963 -3.30144,-3.98067 -3.69077,-6.48177 -0.35034,-2.2507 -0.20773,-3.53787 0.35355,-3.19098 0.51742,0.31978 0.94077,1.43935 0.94077,2.48793 0,1.04858 1.35,3.28753 3,4.97546 1.65,1.68793 3,3.50344 3,4.03448 0,1.30095 -0.054,1.27362 -3.60355,-1.82512 z m 11.19049,-29.11329 c -0.95377,-1.05391 -2.82601,-2.19024 -4.16054,-2.52519 -2.08757,-0.52394 -3.54265,-2.57088 -1.82753,-2.57088 1.7306,0 7.32797,3.36696 7.84732,4.72036 0.90504,2.35852 0.0851,2.5242 -1.85925,0.37571 z m 4.41306,-0.94108 c 0,-1.12641 3.04256,-3.68796 5.36262,-4.51482 1.48901,-0.53068 1.62405,-0.9513 0.67324,-2.09696 -0.65416,-0.78822 -0.98697,-2.4704 -0.73957,-3.73817 l 0.44981,-2.30504 0.74358,2.25 c 0.86478,2.61674 0.92259,2.63399 3.47841,1.03785 3.04431,-1.9012 3.42202,-0.26887 0.59252,2.56063 -1.40834,1.40834 -2.56061,3.03106 -2.56061,3.60606 0,0.575 -0.85186,1.04546 -1.89301,1.04546 -1.04116,0 -2.15203,0.675 -2.46862,1.5 -0.60295,1.57127 -3.63837,2.11771 -3.63837,0.65499 z m -23.85676,-3.0453 c -0.85112,-0.5393 -0.97792,-1.09383 -0.34025,-1.48793 1.3712,-0.84745 4.32675,0.35929 3.63225,1.48302 -0.68653,1.11083 -1.54462,1.11211 -3.292,0.005 z m 45.35676,70.58177 c 5.89192,-1.17 10.46137,-3.09565 9.49167,-3.99997 -0.27042,-0.25219 -4.54167,0.58017 -9.49167,1.84969 -4.95,1.26952 -10.0125,2.06832 -11.25,1.77511 -1.2375,-0.29321 -2.25,-0.0718 -2.25,0.49197 0,1.49623 2.13993,2.17602 5,1.58835 1.375,-0.28253 5.2,-1.04985 8.5,-1.70515 z m -5.89922,-2.61432 c 1.59457,-0.50758 4.64103,-1.21316 6.76992,-1.56796 l 3.8707,-0.64509 -0.46986,-4.88989 c -0.68598,-7.13919 -4.41614,-11.6484 -10.37513,-12.54201 -4.06768,-0.60998 -4.883,-0.40015 -7.11406,1.83092 -1.49135,1.49134 -3.00945,4.69371 -3.71937,7.84585 -1.16458,5.17086 -1.12472,5.38814 1.36875,7.45966 2.32587,1.93229 4.54692,3.13927 6.16905,3.35243 0.33042,0.0434 1.90542,-0.33634 3.5,-0.84391 z m 44.76911,-4.16282 c 2.29327,-0.63676 3.50323,-1.4412 2.96989,-1.97454 -0.53333,-0.53333 -2.49101,-0.4607 -4.80521,0.17829 -2.14787,0.59305 -5.62182,0.80378 -7.71989,0.46829 -4.02043,-0.6429 -5.48272,0.95326 -1.56468,1.70791 4.17441,0.80402 7.2321,0.69955 11.11989,-0.37995 z m -58.36989,-6.39661 c 0,-2.16878 0.92895,-4.46825 2.6142,-6.47106 l 2.61421,-3.10681 -4.26735,0.68238 c -2.97062,0.47502 -4.06293,0.35163 -3.59465,-0.40606 0.60457,-0.97823 14.23053,-4.53143 17.42662,-4.54429 0.7832,-0.003 1.03934,-0.6295 0.64962,-1.58854 -0.35388,-0.87083 -1.08524,-4.50833 -1.62524,-8.08333 -0.54001,-3.575 -1.84939,-9.2 -2.90974,-12.5 -1.06035,-3.3 -1.92336,-7.2375 -1.91779,-8.75 0.006,-1.55728 -0.53202,-2.73474 -1.23988,-2.71481 -2.67056,0.0752 -19.7923,2.67577 -20.14117,3.0592 -0.20298,0.22308 0.23213,2.65561 0.96692,5.40561 0.73479,2.75 1.35584,6.30515 1.38012,7.90033 0.0243,1.59518 1.28163,5.42018 2.79413,8.5 2.19714,4.47391 2.79706,7.208 2.98407,13.59967 0.23681,8.09388 1.76319,13.92874 3.38199,12.92827 0.48616,-0.30047 0.88394,-2.06022 0.88394,-3.91056 z m -20,-6.05262 c 0,-0.9056 -5.03428,-16.67477 -7.01231,-21.96509 -1.02822,-2.75 -2.34597,-6.8 -2.92833,-9 -1.57635,-5.95503 -2.40968,-6.91807 -4.85421,-5.60979 -7.43479,3.97897 -7.06431,9.90128 1.80537,28.85979 l 3.85974,8.25 4.56487,0 c 2.51068,0 4.56487,-0.24071 4.56487,-0.53491 z m 38,-5.5104 c 0,-0.66178 -1.37591,-0.79656 -3.75,-0.36734 -5.18939,0.9382 -5.32933,1.41265 -0.41667,1.41265 2.29167,0 4.16667,-0.47039 4.16667,-1.04531 z m 15.81837,-20.87404 c -2.24348,-10.84974 -4.62535,-15.50076 -8.14484,-15.90427 -2.54356,-0.29162 -2.71714,-0.12638 -1.75524,1.67094 0.5871,1.097 1.48795,4.9638 2.00189,8.59287 0.66512,4.69659 1.67592,7.47953 3.50713,9.65579 1.41498,1.68161 2.57269,3.88614 2.57269,4.89896 0,1.01282 0.31855,2.66579 0.70789,3.67327 0.57745,1.49427 0.88941,1.20185 1.69306,-1.58697 0.72057,-2.50054 0.5641,-5.45513 -0.58258,-11.00059 z m -33.01837,-38.28065 c 1.54813,-1.54813 1.5791,-14.80265 0.0465,-19.91787 -1.46574,-4.89222 -3.76377,-6.95268 -8.77665,-7.86935 -5.68413,-1.03942 -11.63228,1.71833 -12.5309,5.8097 -0.76207,3.4697 0.22266,10.05081 1.8003,12.0317 0.59319,0.74479 2.10092,1.74289 3.35051,2.21798 1.32554,0.50397 2.05521,1.42875 1.7516,2.21996 -0.28622,0.74588 0.68374,2.56029 2.15546,4.03201 2.04426,2.04426 3.65865,2.67587 6.8395,2.67587 2.29,0 4.70364,-0.54 5.36364,-1.2 z m 43.59318,143.8872 c -2.38083,-1.21752 -4.52676,-1.59713 -6.53507,-1.15604 -1.69669,0.37266 -4.31263,0.109 -6.04724,-0.6095 l -3.05703,-1.26626 0.7852,-6.5777 c 1.44482,-12.10327 1.04305,-19.19413 -1.34781,-23.78786 -1.55779,-2.9931 -2.17091,-5.88388 -2.12094,-10 0.11654,-9.60088 1.5242,-10.70426 2.21572,-1.73679 0.37107,4.81184 1.47778,9.9194 2.79421,12.89539 1.91759,4.33504 2.09102,5.89747 1.44184,12.98966 -0.40586,4.43405 -0.80186,9.8619 -0.88,12.0619 l -0.14206,4 6.07019,0.11859 c 3.33861,0.0652 7.00768,0.62031 8.15348,1.23353 2.56082,1.3705 10.15022,1.81344 12.52633,0.73107 1.02221,-0.46564 1.75,-0.38725 1.75,0.1885 0,1.461 -5.02788,3.13066 -8.78098,2.91598 -1.80454,-0.10322 -4.87617,-1.00343 -6.82584,-2.00047 z m 15.14794,-4.62067 c -0.36254,-0.58659 -1.81086,-1.06653 -3.21851,-1.06653 -3.66806,0 -15.0287,-11.70643 -15.72475,-16.20337 -1.1666,-7.53703 -1.664,-33.79663 -0.64017,-33.79663 0.57327,0 1.06871,1.9125 1.10097,4.25 0.0323,2.3375 0.40462,10.37748 0.82746,17.86663 l 0.7688,13.61662 6.21004,6.13338 c 4.0679,4.01768 7.02256,6.13337 8.56555,6.13337 1.29553,0 2.63925,0.73941 2.98604,1.64313 0.73736,1.92153 0.0865,2.97981 -0.87543,1.4234 z m -24.87445,-4.7332 c -0.36667,-0.36666 -0.62609,-2.05416 -0.57648,-3.75 l 0.0902,-3.08333 0.96682,3.35966 c 0.96623,3.35763 0.77631,4.73052 -0.48053,3.47367 z m -65.99977,-24.4723 c 1.41317,-2.59107 1.83293,-5.53733 1.83235,-12.86103 -7.4e-4,-9.45749 -0.26019,-10.45225 -5.28154,-20.25 -0.21141,-0.4125 0.07,-0.75 0.62541,-0.75 0.55538,0 2.2452,2.5251 3.75515,5.61133 3.57481,7.30665 4.29629,18.47829 1.66766,25.82265 -0.97126,2.71369 -2.36582,5.12615 -3.09903,5.36103 -0.95213,0.30501 -0.80924,-0.53345 0.5,-2.93398 z"
       id="path3115"
       inkscape:connector-curvature="0" />
  </g>
</svg>
