<?xml version="1.0" encoding="UTF-8" standalone="no"?>
<!-- Created with Inkscape (http://www.inkscape.org/) -->

<svg
   xmlns:dc="http://purl.org/dc/elements/1.1/"
   xmlns:cc="http://creativecommons.org/ns#"
   xmlns:rdf="http://www.w3.org/1999/02/22-rdf-syntax-ns#"
   xmlns:svg="http://www.w3.org/2000/svg"
   xmlns="http://www.w3.org/2000/svg"
   xmlns:sodipodi="http://sodipodi.sourceforge.net/DTD/sodipodi-0.dtd"
   xmlns:inkscape="http://www.inkscape.org/namespaces/inkscape"
   width="115.93029"
   height="206.35931"
   id="svg2"
   version="1.1"
   inkscape:version="0.48.3.1 r9886"
   sodipodi:docname="Pile-squat-2.svg">
  <defs
     id="defs4" />
  <sodipodi:namedview
     id="base"
     pagecolor="#ffffff"
     bordercolor="#666666"
     borderopacity="1.0"
     inkscape:pageopacity="0.0"
     inkscape:pageshadow="2"
     inkscape:zoom="2.8"
     inkscape:cx="-97.315615"
     inkscape:cy="170.65168"
     inkscape:document-units="px"
     inkscape:current-layer="layer1"
     showgrid="false"
     fit-margin-top="0"
     fit-margin-left="0"
     fit-margin-right="0"
     fit-margin-bottom="0"
     inkscape:window-width="1855"
     inkscape:window-height="1056"
     inkscape:window-x="65"
     inkscape:window-y="24"
     inkscape:window-maximized="1" />
  <metadata
     id="metadata7">
    <rdf:RDF>
      <cc:Work
         rdf:about="">
        <dc:format>image/svg+xml</dc:format>
        <dc:type
           rdf:resource="http://purl.org/dc/dcmitype/StillImage" />
        <dc:title></dc:title>
      </cc:Work>
    </rdf:RDF>
  </metadata>
  <g
     inkscape:label="Ebene 1"
     inkscape:groupmode="layer"
     id="layer1"
     transform="translate(-798.83465,-1128.0459)">
    <path
       style="fill:#000000"
       d=""
       id="path3414"
       inkscape:connector-curvature="0" />
    <path
       style="fill:#000000"
       d=""
       id="path3412"
       inkscape:connector-curvature="0" />
    <path
       style="fill:#000000"
       d="m 830.08465,1332.4658 c -2.9471,-1.7969 -3.7305,-3.0313 -3.3584,-5.2912 0.071,-0.4291 -0.5828,-2.1557 -1.4521,-3.8368 -0.9609,-1.8581 -1.7583,-6.6495 -2.0337,-12.2198 -0.2492,-5.0397 -1.1726,-13.2132 -2.0519,-18.1632 -1.4881,-8.3764 -1.4801,-9.4157 0.1163,-15 3.0642,-10.7192 3.708,-18.4275 1.9756,-23.6537 -1.1461,-3.4575 -2.1728,-4.8119 -3.9942,-5.2691 -1.7696,-0.4441 -2.4516,-1.2985 -2.4516,-3.0712 0,-2.1333 -0.3613,-2.3906 -2.75,-1.958 -2.3062,0.4175 -3.7587,-0.4624 -9,-5.4522 -5.5907,-5.3224 -6.25,-6.3634 -6.25,-9.868 0,-4.3337 1.6817,-6.3847 6.5,-7.9273 2.6015,-0.8328 3.0708,-1.5475 3.5334,-5.3804 0.2933,-2.4311 1.1972,-5.7701 2.0087,-7.4201 1.1628,-2.3645 1.2875,-4.449 0.5885,-9.8399 -0.7806,-6.0198 -0.6581,-7.1464 1.0222,-9.3968 1.05,-1.4064 3.0201,-2.9515 4.3781,-3.4336 2.1363,-0.7583 2.031,-0.5265 -0.7809,1.7194 -4.68,3.738 -4.502,9.2157 0.7146,21.9873 5.65,13.833 6.1565,14.4636 11.6175,14.4636 2.7693,0 4.2952,0.3895 3.9179,1 -0.3399,0.55 -2.132,1 -3.9823,1 -4.8606,0 -8.5388,-3.6641 -11.9614,-11.9156 -1.7779,-4.2863 -3.3058,-6.735 -3.8578,-6.1829 -0.5027,0.5027 -1.149,3.8411 -1.4362,7.4188 -0.486,6.0555 -0.3059,6.825 2.6078,11.1424 1.7214,2.5506 3.136,5.8525 3.1435,7.3374 0.01,1.485 0.3024,3.7789 0.6553,5.0976 l 0.6416,2.3976 2.6958,-3.303 c 2.3282,-2.8526 3.4486,-3.3655 8.2158,-3.7608 3.4499,-0.2861 5.778,-0.04 6.208,0.6554 0.4732,0.7657 -1.0194,1.1131 -4.7822,1.1131 -4.8806,0 -5.7491,0.3316 -8.059,3.0767 -3.1972,3.7996 -3.1963,4.0307 0.036,9.5462 2.0853,3.5583 2.6934,6.0629 2.9581,12.1835 0.1832,4.2375 1.027,9.6711 1.875,12.0748 2.1623,6.1285 1.8434,7.348 -0.6848,2.6188 l -2.1384,-4 -1.8854,6 c -1.9892,6.3303 -1.9226,8.1962 0.7275,20.3837 0.9181,4.2225 1.3533,9.1461 1.0165,11.5 -0.6964,4.8667 4.2459,20.2204 7.2066,22.3877 2.4184,1.7703 8.8,1.2109 8.8,-0.7714 0,-1.0192 -0.8388,-1.4144 -2.617,-1.233 -1.4393,0.1468 -3.6893,-0.1387 -5,-0.6345 -1.9365,-0.7326 -1.4132,-0.9123 2.7925,-0.9592 3.3478,-0.037 5.5983,0.4517 6.3725,1.3845 1.4982,1.8053 3.952,1.8811 3.952,0.1222 0,-0.726 -1.4871,-3.0885 -3.3046,-5.25 -6.9936,-8.3174 -9.0547,-13.1972 -9.507,-22.5089 -0.3191,-6.569 -0.038,-9.3103 1.1974,-11.7004 1.8014,-3.4834 2.3067,-14.3132 0.5876,-12.5941 -0.5646,0.5646 -1.3023,3.3546 -1.6393,6.2 -0.337,2.8454 -1.0575,5.1734 -1.6012,5.1734 -1.4402,0 0,-7.8132 2.227,-12.1237 1.032,-1.9931 2.3165,-5.1431 2.8546,-7 0.538,-1.857 1.679,-4.9995 2.5356,-6.9835 1.5365,-3.5589 1.5179,-3.6451 -1.3964,-6.4371 -2.2044,-2.112 -2.9537,-3.7464 -2.9537,-6.4428 0,-1.9871 0.54,-4.1529 1.2,-4.8129 2.1943,-2.1943 2.7297,-1.24 1.0035,1.7884 -1.5366,2.6954 -1.5562,3.259 -0.2003,5.75 0.8267,1.5189 3.6266,3.8158 6.222,5.1042 5.9834,2.9704 11.8032,2.2828 15.9731,-1.8871 3.1701,-3.1701 3.5035,-5.5085 1.245,-8.733 -0.8562,-1.2224 -1.097,-2.2225 -0.5352,-2.2225 1.5464,0 3.0919,3.4888 3.0919,6.9797 0,5.4416 -3.8778,8.0311 -14,9.3488 -1.1977,0.1559 -1.5943,2.41 -1.9677,11.1834 l -0.4676,10.9881 -0.5324,-11.5 c -0.5082,-10.9782 -0.6344,-11.5145 -2.7823,-11.8195 -1.7902,-0.2543 -2.25,0.1646 -2.25,2.05 0,1.3032 -0.5183,2.8878 -1.1517,3.5212 -0.6335,0.6334 -1.4466,6.0109 -1.8071,11.95 -0.3604,5.9391 -1.1957,11.7878 -1.8561,12.9973 -0.6605,1.2094 -1.2397,5.8277 -1.2872,10.263 -0.097,9.0365 1.2352,12.551 8.1973,21.6304 3.6897,4.8119 5.1087,9.4076 2.9048,9.4076 -0.55,0 -1.1125,-0.1043 -1.25,-0.2318 -0.1375,-0.1275 -1.3627,0.5475 -2.7225,1.5 -3.2628,2.2853 -7.7688,2.1869 -11.7775,-0.2572 z m -15.3453,-89.96 c 1.5795,-0.8453 1.6596,-1.5825 0.7333,-6.75 -0.572,-3.1905 -1.5824,-6.3535 -2.2453,-7.0288 -0.663,-0.6752 -1.81,-2.6061 -2.5491,-4.2908 -1.1258,-2.5667 -1.7488,-2.9645 -3.8436,-2.4545 -6.3039,1.5345 -8.3932,5.0014 -5.8632,9.7288 0.9635,1.8002 10.7323,11.5919 11.6789,11.7062 0.1737,0.021 1.1137,-0.3889 2.089,-0.9109 z m 12.1175,70.3214 c 0.012,-0.4798 0.8943,-1.9974 1.9601,-3.3724 1.8415,-2.3758 1.9096,-2.3899 1.3697,-0.2828 -0.569,2.2207 -3.3716,5.2972 -3.3298,3.6552 z m 75.9778,-9.3022 c -1.925,-0.385 -4.4829,-1.2332 -5.6843,-1.885 -1.2013,-0.6519 -4.5988,-1.1852 -7.55,-1.1852 -2.9511,0 -5.9057,-0.54 -6.5657,-1.2 -1.6468,-1.6467 -1.5037,-6.4144 0.3832,-12.7682 1.8382,-6.1898 1.3958,-9.6516 -2.2512,-17.6177 -2.1757,-4.7523 -2.4966,-6.5654 -2.0012,-11.3055 0.5694,-5.4471 0.4842,-5.7151 -2.4241,-7.627 -1.6577,-1.0899 -3.2632,-3.1792 -3.5677,-4.643 -0.6063,-2.9148 -2.6151,-3.8033 -8.648,-3.8249 -2.2818,-0.01 -3.5612,-0.4146 -3.191,-1.0137 0.7708,-1.2473 7.4975,-1.2873 9.4434,-0.056 1.0367,0.6559 1.7411,0.3217 2.5,-1.1863 0.5811,-1.1548 1.6198,-2.2854 2.3082,-2.5125 0.8245,-0.2719 0.6538,0.6357 -0.5,2.6594 -1.5843,2.7789 -1.6081,3.336 -0.2484,5.8339 0.8267,1.5189 3.6267,3.8158 6.222,5.1043 5.9834,2.9703 11.8032,2.2828 15.9731,-1.8871 3.3371,-3.3372 3.527,-5.7638 0.7291,-9.3207 -1.1399,-1.4492 -1.6154,-2.6349 -1.0567,-2.6349 1.7057,0 4.1293,4.2777 4.1293,7.2883 0,6.7773 -5.0936,10.1623 -14.2906,9.4971 l -5.9698,-0.4319 0.5803,6.9227 c 0.3488,4.1597 1.296,7.9806 2.3733,9.5733 1.7979,2.6579 1.9797,6.6945 1.0878,24.1505 l -0.281,5.5 7,0.6355 c 3.85,0.3496 9.2232,1.1918 11.9405,1.8716 3.8324,0.9589 5.3681,0.969 6.8473,0.045 1.0488,-0.6549 2.13,-0.9679 2.4025,-0.6953 0.4451,0.4451 -5.1664,3.806 -5.8906,3.528 -0.1648,-0.063 -1.8747,-0.4299 -3.7997,-0.8148 z m 6.247,-7.2501 c -3.9521,-1.0677 -14.4742,-11.7553 -15.3787,-15.6206 -0.8418,-3.5974 -1.0447,-25.7092 -0.2284,-24.8929 0.352,0.3519 0.9309,6.503 1.2865,13.669 l 0.6466,13.0291 5.4635,5.559 c 3.032,3.085 6.6966,5.8116 8.2343,6.1268 2.5065,0.5137 4.4681,2.0073 3.5793,2.7255 -0.1925,0.1556 -1.8139,-0.1126 -3.6031,-0.5959 z m -21.5803,-3.4868 c -0.3667,-0.3666 -0.628,-1.8291 -0.5808,-3.25 0.084,-2.5366 0.1019,-2.5299 0.967,0.3664 0.909,3.0436 0.7749,4.0448 -0.3862,2.8836 z m -54.1667,-27.3333 c -0.3399,-0.55 0.1101,-1 1,-1 0.8899,0 1.3399,0.45 1,1 -0.3399,0.55 -0.7899,1 -1,1 -0.2101,0 -0.6601,-0.45 -1,-1 z m -1.48,-14.5242 c 0.6958,-0.8383 1.4709,-1.3182 1.7226,-1.0665 0.6935,0.6935 -0.7155,2.5907 -1.9241,2.5907 -0.6631,0 -0.5872,-0.5738 0.2015,-1.5242 z m 16.15,-0.2052 c -2.6704,-0.3282 -3.6113,-1.0824 -4.75,-3.8078 -0.781,-1.8692 -1.42,-4.2875 -1.42,-5.374 0,-1.0865 -0.8286,-2.5634 -1.8413,-3.2821 -1.8397,-1.3056 -4.1686,-4.9502 -4.1476,-6.491 0.01,-0.4486 1.1606,0.6428 2.5655,2.4254 1.8061,2.2917 4.1615,3.7083 8.0404,4.8359 5.265,1.5306 5.6663,1.5101 9.9647,-0.5104 7.3977,-3.4773 8.383,-9.783 2.2428,-14.3541 -5.9046,-4.3956 -18.4759,-2.7665 -20.9749,2.7183 l -1.1549,2.5347 -1.3585,-2.6186 c -1.6046,-3.0928 -7.3362,-19.9591 -7.3362,-21.5881 0,-0.62 -0.9515,-3.0929 -2.1145,-5.4953 -1.1629,-2.4023 -1.8485,-4.6338 -1.5235,-4.9588 0.325,-0.325 0.8997,0.261 1.2772,1.3022 0.3774,1.0412 1.513,3.0876 2.5235,4.5475 1.0105,1.4599 1.8373,3.4118 1.8373,4.3376 0,0.9257 1.4315,5.9148 3.181,11.0867 2.8204,8.3373 3.359,9.2491 4.75,8.0409 0.863,-0.7494 2.6114,-1.9023 3.8855,-2.5619 2.8719,-1.4868 12.1835,-3.0282 12.1835,-2.0168 0,0.4083 1.0748,1.0121 2.3886,1.3418 2.9782,0.7475 8.6114,7.0306 8.6114,9.605 0,3.5744 -2.1913,6.7515 -6.2171,9.0142 -3.2749,1.8405 -4.9924,2.1531 -9.3568,1.7026 l -5.3456,-0.5517 0.5833,3.1736 c 0.6696,3.6429 2.7714,5.6736 5.8723,5.6736 2.7008,0 5.9015,-3.4173 5.1166,-5.4627 -0.3245,-0.8455 -0.1541,-1.5373 0.3787,-1.5373 0.5327,0 0.9686,1.5592 0.9686,3.4648 0,3.2591 -2.2588,5.851 -4.6843,5.3752 -0.4486,-0.088 -2.3142,-0.3442 -4.1457,-0.5694 z m 34.18,-9.2706 c -0.33,-1.65 -0.9938,-3 -1.475,-3 -0.4813,0 -0.875,-1.3245 -0.875,-2.9433 0,-1.719 -0.7659,-3.4868 -1.8413,-4.25 -2.0175,-1.4317 -4.1587,-4.9786 -4.1587,-6.8888 0,-0.6675 1.0205,0.3154 2.2679,2.1842 1.7069,2.5574 3.6834,3.8592 7.9902,5.2626 5.6868,1.8532 5.7506,1.8515 10.2624,-0.2693 2.5724,-1.2092 5.0378,-3.2266 5.6886,-4.655 2.4758,-5.4337 -2.553,-11.274 -10.4763,-12.167 -7.4552,-0.8404 -11.6461,1.2154 -15.2844,7.4975 -0.086,0.149 -2.135,-0.6426 -4.5526,-1.7591 -4.2359,-1.9561 -4.2776,-2.0177 -1.1458,-1.694 3.7881,0.3914 4.0074,-0.3743 1.1962,-4.1767 -1.2517,-1.6929 -2.5925,-6.0709 -3.4331,-11.2095 -0.7586,-4.6374 -1.8521,-10.2316 -2.43,-12.4316 -0.5778,-2.2 -1.3039,-5.2867 -1.6134,-6.8594 -0.5557,-2.8238 -0.6307,-2.8518 -6.0162,-2.25 -17.9702,2.0081 -16.6702,1.6849 -16.0277,3.9851 0.3264,1.1684 1.0863,5.2743 1.6887,9.1243 0.6025,3.85 1.4992,7.675 1.9928,8.5 3.1739,5.3048 5.1276,15 3.0227,15 -0.6215,0 -1.13,-1.52 -1.13,-3.3779 0,-4.3263 -2.8765,-11.44 -3.934,-9.7289 -0.4202,0.6799 -0.5454,2.4445 -0.2783,3.9214 0.2671,1.477 0.1146,2.3383 -0.339,1.9141 -0.4536,-0.4242 -0.9203,-5.1714 -1.0372,-10.5493 -0.1672,-7.6908 -0.6842,-10.7813 -2.4222,-14.4787 -2.3834,-5.0705 -3.0713,-5.5118 -4.9893,-3.2007 -0.6847,0.825 -1.7182,1.5 -2.2968,1.5 -0.5785,0 0.01,-1.125 1.2968,-2.5 1.2917,-1.375 2.9366,-2.5 3.6552,-2.5 1.8685,0 2.8343,-4.8647 1.6099,-8.1086 -0.5721,-1.5157 -0.7354,-4.2464 -0.3628,-6.0681 1.1947,-5.8415 2.143,-1.3457 1.7308,8.2059 l -0.3958,9.1733 2.904,-0.5808 c 8.5788,-1.7157 21.0652,-2.8152 21.9478,-1.9325 0.5316,0.5315 1.4126,3.8565 1.9577,7.3886 0.5451,3.5322 1.4086,7.3222 1.9189,8.4222 0.5103,1.1 1.6083,5.4462 2.44,9.6583 1.6608,8.4116 4.891,15.1169 5.9512,12.354 0.8209,-2.1392 8.3431,-5.463 12.4252,-5.4903 1.8052,-0.012 4.7512,0.5918 6.5467,1.342 3.8967,1.6282 8.6712,7.0035 8.6712,9.7624 0,3.402 -2.7828,7.541 -5.9529,8.8541 -2.7087,1.122 -3.0471,1.7263 -3.0471,5.4408 0,5.2854 -1.3221,6.5787 -6.725,6.5787 -4.0056,0 -4.3693,-0.2216 -4.925,-3 z m 8.8212,0.345 c 1.0059,-0.9102 1.8288,-2.9352 1.8288,-4.5 0,-2.467 -0.382,-2.845 -2.875,-2.845 -1.5813,0 -4.2813,-0.2812 -6,-0.625 -2.6741,-0.5348 -3.125,-0.3338 -3.125,1.393 0,1.1099 0.675,2.277 1.5,2.5936 0.825,0.3166 1.5,1.7148 1.5,3.107 0,2.0768 0.4797,2.5314 2.6712,2.5314 1.4692,0 3.4942,-0.7447 4.5,-1.655 z m -32.1712,-23.2623 c -2.2006,-0.632 -1.8747,-0.8707 2.7214,-1.9932 2.8717,-0.7014 5.7967,-1.0566 6.5,-0.7893 0.7032,0.2673 -0.7301,0.8319 -3.1851,1.2548 -3.5183,0.6061 -4.0477,0.9315 -2.5,1.5367 2.4952,0.9755 -0.1314,0.9688 -3.5363,-0.01 z m 23.6171,-12.027 c -2.2138,-6.1564 -4.2672,-8.1679 -5.3571,-5.2479 -0.7328,1.9632 -0.877,1.9314 -4.0258,-0.8858 -1.7962,-1.6071 -2.8638,-2.922 -2.3724,-2.922 0.4913,0 1.4535,0.675 2.1382,1.5 1.8194,2.1922 2.6786,1.8606 3.8445,-1.4837 1.3555,-3.8886 0.1005,-11.7495 -2.6091,-16.3419 -1.258,-2.1322 -1.5865,-3.3626 -0.819,-3.0681 0.9793,0.3758 1.1244,-0.5218 0.6154,-3.8073 -0.6668,-4.3047 -2.8478,-8.799 -4.27,-8.799 -0.4165,0 -2.4457,-1.5939 -4.5095,-3.5421 -6.4034,-6.0447 -10.2753,-5.4545 -11.8936,1.8129 -0.3394,1.524 -1.057,3.0428 -1.5948,3.3751 -0.6108,0.3775 -0.7167,-0.5842 -0.2823,-2.5621 0.6568,-2.9906 0.5577,-3.1318 -1.7854,-2.5437 -3.4354,0.8622 -8.402,-1.9271 -10.8653,-6.1022 -1.1157,-1.8908 -2.3291,-3.4379 -2.6966,-3.4379 -0.3675,0 -0.7162,1.8332 -0.775,4.0738 -0.059,2.2405 -0.6642,4.603 -1.3455,5.25 -0.9739,0.9249 -1.0884,0.68 -0.5358,-1.1462 0.6862,-2.2679 0.6361,-2.2875 -2.1376,-0.8324 -6.5674,3.445 -13.7806,13.1677 -14.7673,19.9048 -0.3826,2.6125 -1.1267,4.75 -1.6534,4.75 -0.5268,0 -0.7242,-1.125 -0.4388,-2.5 0.2855,-1.375 0.7546,-3.6327 1.0424,-5.0171 0.7079,-3.4047 6.8293,-12.8285 9.9042,-15.2472 1.3698,-1.0775 3.859,-2.526 5.5316,-3.2187 3.4715,-1.438 3.8446,-3.5621 1.4418,-8.2086 -0.8988,-1.7382 -1.6652,-5.8654 -1.75,-9.4247 -0.1407,-5.9049 0.069,-6.5529 3.1085,-9.5982 2.9853,-2.9912 3.7646,-3.259 9.2668,-3.1842 4.9012,0.067 6.4806,0.5251 8.5779,2.4901 3.895,3.6497 5.5621,8.5954 5.6467,16.7527 0.06,5.7516 0.4202,7.4683 1.6627,7.9169 3.4107,1.2314 14.8524,10.4297 15.9385,12.8135 0.6314,1.3858 1.148,4.2984 1.148,6.4726 0,3.8459 0.094,3.9529 3.4769,3.9529 4.6407,0 5.9023,2.1299 8.5712,14.4701 1.9469,9.0021 2.1709,16.6442 0.536,18.2792 -1.2883,1.2882 -1.6761,-0.7566 -0.7676,-4.0468 0.7285,-2.6384 0.4834,-5.5697 -1.0091,-12.0674 -2.1823,-9.5013 -5.2218,-14.9686 -8.5918,-15.4547 -2.5369,-0.3658 -2.5754,-0.257 -1.1944,3.3753 0.5616,1.4772 1.4356,5.6123 1.9421,9.189 0.5671,4.0042 1.6676,7.3202 2.8639,8.6293 1.0686,1.1693 2.1839,3.026 2.4785,4.126 0.2946,1.1 0.8266,3.0125 1.1823,4.25 1.2667,4.4068 -1.1242,2.1629 -2.8709,-2.6943 z m -28.9328,-48.6491 c 2.4701,-2.4701 2.5632,-2.95 1.9592,-10.0951 -0.7131,-8.4359 -3.5179,-15.8508 -6.2934,-16.6377 -5.6425,-1.5996 -8.4128,-1.6745 -11.666,-0.3152 -4.4374,1.8541 -5.6841,4.1837 -5.6841,10.6211 0,4.0934 0.4888,5.6 2.4545,7.5658 1.35,1.35 2.8762,2.4545 3.3916,2.4545 0.5154,0 1.2229,1.139 1.5723,2.531 0.7194,2.8664 5.931,6.4597 9.377,6.4653 1.2625,0 3.4625,-1.1633 4.8889,-2.5897 z m -18.9972,45.7887 c -1.4779,-1.5426 -2.6516,-3.6801 -2.6082,-4.75 0.058,-1.4162 0.2269,-1.5373 0.6228,-0.4453 0.2991,0.825 1.9269,2.9625 3.6172,4.75 1.6904,1.7875 2.6193,3.25 2.0643,3.25 -0.5549,0 -2.2182,-1.2621 -3.6961,-2.8047 z m -11.5711,-12.4851 c -0.064,-0.9844 -1.0474,-3.6156 -2.1858,-5.8469 -1.1383,-2.2314 -1.8188,-4.308 -1.5121,-4.6147 0.8938,-0.8939 4.7579,8.6623 4.2632,10.5432 -0.4058,1.5426 -0.4606,1.5347 -0.5653,-0.082 z m 22.7779,-16.0453 c -1.4333,-1.1907 -3.4583,-2.7079 -4.5,-3.3716 -1.5504,-0.9879 -1.322,-1.0216 1.259,-0.186 3.0179,0.977 7.1171,4.4579 6.2576,5.3138 -0.2258,0.2248 -1.5832,-0.5655 -3.0166,-1.7562 z m 5.7352,-0.456 c -0.7381,-1.1943 2.8805,-4.539 4.3725,-4.0417 0.6329,0.211 0.053,1.372 -1.3367,2.6778 -1.3496,1.268 -2.7158,1.8817 -3.0358,1.3639 z m 6.4343,-4.3999 c -0.035,-1.48 -0.5134,-2.9691 -1.0634,-3.309 -0.55,-0.3399 -0.9635,-1.604 -0.9188,-2.809 0.073,-1.9588 0.2131,-1.8929 1.3256,0.6216 1.0968,2.4788 1.3983,2.6271 2.5413,1.25 0.7132,-0.8594 2.0292,-1.5476 2.9243,-1.5293 1.2924,0.026 1.1645,0.4196 -0.621,1.9092 -1.2368,1.0317 -2.6708,2.9292 -3.1867,4.2167 -0.9344,2.3319 -0.9382,2.3305 -1.0013,-0.3502 z m -30.2509,0.5079 c 0.7219,-0.2889 1.5844,-0.2534 1.9167,0.079 0.3322,0.3323 -0.2584,0.5687 -1.3125,0.5253 -1.165,-0.048 -1.4019,-0.285 -0.6042,-0.6042 z"
       id="path4103"
       inkscape:connector-curvature="0" />
  </g>
</svg>
