<?xml version="1.0" encoding="UTF-8" standalone="no"?>
<!-- Created with Inkscape (http://www.inkscape.org/) -->

<svg
   xmlns:dc="http://purl.org/dc/elements/1.1/"
   xmlns:cc="http://creativecommons.org/ns#"
   xmlns:rdf="http://www.w3.org/1999/02/22-rdf-syntax-ns#"
   xmlns:svg="http://www.w3.org/2000/svg"
   xmlns="http://www.w3.org/2000/svg"
   xmlns:sodipodi="http://sodipodi.sourceforge.net/DTD/sodipodi-0.dtd"
   xmlns:inkscape="http://www.inkscape.org/namespaces/inkscape"
   width="115.93029"
   height="206.35931"
   id="svg2"
   version="1.1"
   inkscape:version="0.48.3.1 r9886"
   sodipodi:docname="Preacher-hammer-curl-1.svg">
  <defs
     id="defs4" />
  <sodipodi:namedview
     id="base"
     pagecolor="#ffffff"
     bordercolor="#666666"
     borderopacity="1.0"
     inkscape:pageopacity="0.0"
     inkscape:pageshadow="2"
     inkscape:zoom="2.8"
     inkscape:cx="-97.315615"
     inkscape:cy="170.65168"
     inkscape:document-units="px"
     inkscape:current-layer="layer1"
     showgrid="false"
     fit-margin-top="0"
     fit-margin-left="0"
     fit-margin-right="0"
     fit-margin-bottom="0"
     inkscape:window-width="1855"
     inkscape:window-height="1056"
     inkscape:window-x="65"
     inkscape:window-y="24"
     inkscape:window-maximized="1" />
  <metadata
     id="metadata7">
    <rdf:RDF>
      <cc:Work
         rdf:about="">
        <dc:format>image/svg+xml</dc:format>
        <dc:type
           rdf:resource="http://purl.org/dc/dcmitype/StillImage" />
        <dc:title></dc:title>
      </cc:Work>
    </rdf:RDF>
  </metadata>
  <g
     inkscape:label="Ebene 1"
     inkscape:groupmode="layer"
     id="layer1"
     transform="translate(-798.83465,-1128.0459)">
    <path
       style="fill:#000000"
       d=""
       id="path3414"
       inkscape:connector-curvature="0" />
    <path
       style="fill:#000000"
       d=""
       id="path3412"
       inkscape:connector-curvature="0" />
    <path
       style="fill:#000000"
       d="m 830.10096,1332.501 c -2.94708,-1.7969 -3.73053,-3.0313 -3.35836,-5.2912 0.0707,-0.4291 -0.58279,-2.1557 -1.45213,-3.8368 -0.96086,-1.8581 -1.75828,-6.6495 -2.0337,-12.2198 -0.24918,-5.0397 -1.17256,-13.2132 -2.05193,-18.1632 -1.48808,-8.3764 -1.48002,-9.4157 0.11631,-15 3.0642,-10.7192 3.70803,-18.4275 1.97564,-23.6537 -1.14607,-3.4575 -2.17284,-4.8119 -3.99422,-5.2691 -1.76963,-0.4441 -2.45161,-1.2985 -2.45161,-3.0712 0,-2.1333 -0.36132,-2.3906 -2.75,-1.958 -2.30617,0.4175 -3.75871,-0.4624 -9,-5.4522 -5.59069,-5.3224 -6.25,-6.3634 -6.25,-9.868 0,-4.4592 1.67834,-6.391 7.04793,-8.1122 3.26307,-1.046 3.51657,-1.4059 3.15734,-4.483 -0.22914,-1.9628 0.38358,-4.9549 1.48239,-7.2391 1.68349,-3.4996 1.74278,-4.4499 0.58608,-9.3935 -1.4485,-6.1907 -0.88013,-11.8301 1.27569,-12.6573 0.79149,-0.3038 1.19627,-0.9451 0.8995,-1.4253 -0.92305,-1.4936 2.16095,-10.2328 5.43031,-15.388 1.71642,-2.7065 3.12076,-5.3707 3.12076,-5.9205 0,-1.6252 5.24094,-6.6098 6.93709,-6.5978 0.99509,0.01 0.41067,0.9193 -1.6086,2.511 -4.06995,3.2082 -6.77218,10.1333 -6.05129,15.5079 0.68174,5.0828 3.17176,8.97 5.74585,8.97 1.08732,0 1.97695,0.45 1.97695,1 0,1.5962 -3.70086,1.1563 -5.51232,-0.6552 -2.27687,-2.2768 -3.48768,-5.7945 -3.48768,-10.1324 0,-3.3865 -0.10105,-3.5113 -1.36418,-1.6849 -0.7503,1.0849 -2.06254,4.3743 -2.91609,7.3098 l -1.55191,5.3374 2.49988,-0.6274 c 1.61123,-0.4044 2.27138,-0.2577 1.85707,0.4126 -0.35354,0.5721 -1.2215,1.0401 -1.9288,1.0401 -2.23633,0 -4.59597,3.5368 -4.59597,6.8888 0,3.2963 7.49666,23.1679 10.42799,27.6416 2.20829,3.3703 5.48354,3.2341 24.48597,-1.0182 27.89594,-6.2425 39.31787,-9.2699 40.19458,-10.6536 1.27753,-2.0163 1.04443,-8.5754 -0.54489,-15.3324 -0.77281,-3.2855 -1.18922,-6.323 -0.92536,-6.75 0.26386,-0.4269 -0.22181,-0.7762 -1.07927,-0.7762 -1.10998,0 -1.55902,0.9911 -1.55902,3.441 0,4.6525 -1.64354,5.4208 -1.81543,0.8486 -0.0932,-2.4801 -1.01515,-4.5466 -2.91052,-6.5237 -2.50625,-2.6144 -2.77405,-3.5875 -2.77405,-10.0798 0,-3.9524 0.36307,-8.1836 0.80681,-9.4028 0.68475,-1.8813 0.38215,-2.3287 -2,-2.9573 -1.54374,-0.4074 -3.33538,-0.6355 -3.9814,-0.5068 -0.64603,0.1286 -1.40049,-0.1317 -1.67658,-0.5784 -0.72139,-1.1672 3.38476,-1.1972 6.51538,-0.048 2.18296,0.8016 3.04099,0.6016 4.75,-1.1074 1.14719,-1.1472 2.57041,-2.0858 3.16271,-2.0858 0.59231,0 -0.29671,1.3736 -1.9756,3.0525 -5.26464,5.2647 -6.52599,15.598 -2.62981,21.5444 2.38948,3.6468 7.21633,3.0176 10.12905,-1.3204 4.1863,-6.2347 3.8279,-17.8891 -0.66199,-21.5265 -1.18808,-0.9625 -1.74629,-1.75 -1.24048,-1.75 1.81903,0 4.06719,2.5632 5.17406,5.8992 2.40736,7.2556 0.93576,15.1209 -3.85436,20.6008 -1.66614,1.906 -1.6577,2.3524 0.17967,9.5 2.04879,7.9701 1.97504,16.6573 -0.15257,17.9723 -0.67552,0.4175 -6.82055,2.0251 -13.65564,3.5726 -6.83508,1.5474 -11.92607,3.1233 -11.31332,3.502 0.65573,0.4053 0.0804,0.948 -1.39831,1.3192 -3.23936,0.813 -6.26005,5.888 -7.01645,11.7882 -0.77346,6.0333 0.3313,6.9148 9.83175,7.845 5.75701,0.5637 8.23877,1.3214 10.84913,3.3124 1.86153,1.4199 4.568,2.8786 6.01437,3.2416 1.44636,0.363 2.38131,1.062 2.07765,1.5534 -0.96843,1.5669 -2.86646,0.9803 -8.43407,-2.6067 -4.36565,-2.8126 -6.42113,-3.5012 -10.46628,-3.5062 -2.76855,0 -6.3394,-0.687 -7.93523,-1.5193 -1.59583,-0.8322 -3.69546,-1.2611 -4.66584,-0.9531 -0.97039,0.308 -2.05376,0.092 -2.40751,-0.4807 -1.97096,-3.1891 -2.51853,0.8958 -2.84306,21.2093 -0.1955,12.2375 -0.26778,8.6047 -0.16062,-8.0728 l 0.19484,-30.3228 -2.60815,0.6275 c -1.43448,0.3452 -3.17065,1.3639 -3.85815,2.264 -1.89038,2.4747 -1.54011,11.7537 0.60565,16.0439 1.0206,2.0406 2.14356,5.2187 2.49546,7.0625 0.68853,3.6076 -0.19745,11.3595 -1.22601,10.727 -0.34381,-0.2115 -0.72335,0.9709 -0.84343,2.6275 -0.12007,1.6566 -0.75322,3.6565 -1.40699,4.4442 -0.65377,0.7878 -1.4812,6.251 -1.83873,12.1406 -0.35753,5.8896 -1.19042,11.6979 -1.85086,12.9074 -0.66045,1.2094 -1.23965,5.8277 -1.28713,10.263 -0.0967,9.0365 1.23515,12.551 8.19723,21.6304 3.68975,4.8119 5.10878,9.4076 2.90481,9.4076 -0.55,0 -1.1125,-0.1043 -1.25,-0.2318 -0.1375,-0.1275 -1.36263,0.5475 -2.72251,1.5 -3.26279,2.2853 -7.76877,2.1869 -11.77749,-0.2572 z m 10.25,-2.011 c 0,-1.0192 -0.83878,-1.4144 -2.61695,-1.233 -1.43933,0.1468 -3.68933,-0.1387 -5,-0.6345 -1.9365,-0.7326 -1.41322,-0.9123 2.79251,-0.9592 3.34778,-0.037 5.59824,0.4517 6.37244,1.3845 1.49821,1.8053 3.952,1.8811 3.952,0.1222 0,-0.726 -1.48704,-3.0885 -3.30453,-5.25 -6.99369,-8.3174 -9.05474,-13.1972 -9.50704,-22.5089 -0.31908,-6.569 -0.0385,-9.3103 1.19743,-11.7004 1.80137,-3.4834 2.30662,-14.3132 0.58757,-12.5941 -0.56462,0.5646 -1.3023,3.3546 -1.6393,6.2 -0.33699,2.8454 -1.05755,5.1734 -1.60123,5.1734 -1.33251,0 -0.0577,-7.6671 1.91217,-11.5 5.33976,-10.3902 7.3833,-21.2816 4.74776,-25.3039 -1.20267,-1.8355 -1.26185,-2.3202 -0.24219,-1.9836 0.74215,0.245 1.90523,1.5349 2.58462,2.8665 1.17404,2.301 1.23599,2.2178 1.25,-1.6801 0.0145,-4.0359 -3.89916,-13.0726 -6.33762,-14.6336 -0.6312,-0.4041 -3.24514,-0.7416 -5.80875,-0.75 -3.98668,-0.013 -5.03569,0.4299 -7.25,3.0614 -3.19716,3.7996 -3.19629,4.0307 0.036,9.5462 2.08529,3.5583 2.6934,6.0629 2.95808,12.1835 0.18324,4.2375 1.02703,9.6711 1.87509,12.0748 2.16229,6.1285 1.84337,7.348 -0.68488,2.6188 l -2.13841,-4 -1.88538,6 c -1.98917,6.3303 -1.92258,8.1962 0.7275,20.3837 0.91814,4.2225 1.35335,9.1461 1.0165,11.5 -0.69642,4.8667 4.24597,20.2204 7.20663,22.3877 2.41838,1.7703 8.79997,1.2109 8.79997,-0.7714 z m -13.47776,-17.6276 c 0.0122,-0.4798 0.89425,-1.9974 1.96005,-3.3724 1.84157,-2.3758 1.90961,-2.3899 1.3697,-0.2828 -0.56899,2.2207 -3.3716,5.2972 -3.32975,3.6552 z m 6.47776,-47.3724 c -0.33992,-0.55 0.11008,-1 1,-1 0.88992,0 1.33992,0.45 1,1 -0.33992,0.55 -0.78992,1 -1,1 -0.21008,0 -0.66008,-0.45 -1,-1 z m -2.5,-12.7226 c 0,-1.2582 2.85836,-3.7524 3.5303,-3.0804 0.26508,0.265 -0.4208,1.2989 -1.52417,2.2975 -1.10337,0.9985 -2.00613,1.3508 -2.00613,0.7829 z m -16.09531,-10.2264 c 1.57956,-0.8453 1.65965,-1.5825 0.7333,-6.75 -0.57195,-3.1905 -1.58233,-6.3535 -2.24529,-7.0288 -0.66296,-0.6752 -1.81003,-2.6061 -2.54904,-4.2908 -1.12589,-2.5667 -1.74884,-2.9645 -3.84366,-2.4545 -6.30386,1.5345 -8.39318,5.0014 -5.86315,9.7288 0.96344,1.8002 10.73231,11.5919 11.67889,11.7062 0.17366,0.021 1.11369,-0.3889 2.08895,-0.9109 z m 15.774,-8.577 6.82131,-0.026 0.30673,-5.3527 c 0.27678,-4.8303 0.13035,-5.2796 -1.5,-4.603 -0.9937,0.4125 -3.85217,0.9688 -6.35216,1.2364 -6.14111,0.6572 -9.51028,-2.2709 -13.39829,-11.6443 -1.77789,-4.2863 -3.30572,-6.735 -3.85775,-6.1829 -0.50271,0.5027 -1.14899,3.8412 -1.43617,7.4188 -0.48608,6.0555 -0.30599,6.825 2.60775,11.1424 1.72144,2.5507 3.13603,5.8525 3.14354,7.3374 0.008,1.485 0.30237,3.7789 0.65525,5.0976 0.64158,2.3976 0.64163,2.3976 3.41503,-1 2.65611,-3.2539 3.06204,-3.3988 9.59476,-3.4237 z m 21.71432,0.9442 c 0.33384,-0.87 0.60699,-2.9245 0.60699,-4.5657 0,-3.4098 1.32058,-6.3329 4.37496,-9.6839 l 2.12504,-2.3314 -3,0.7437 c -8.52104,2.1123 -7.97529,1.6235 -8.30936,7.4413 -0.40394,7.0344 2.49915,12.8345 4.20237,8.396 z m 50.60699,68.652 c -1.925,-0.385 -4.48292,-1.2332 -5.68426,-1.885 -1.20134,-0.6519 -4.59884,-1.1852 -7.55,-1.1852 -2.95116,0 -5.90574,-0.54 -6.56574,-1.2 -1.64675,-1.6467 -1.50366,-6.4144 0.3832,-12.7682 1.82511,-6.1458 1.3819,-9.7612 -2.11827,-17.2793 -2.42989,-5.2192 -2.97607,-10.7743 -1.54883,-15.7525 0.51045,-1.7804 0.89273,-0.2505 1.32816,5.3154 0.39521,5.0519 1.25326,8.7646 2.42663,10.5 1.82323,2.6964 2.00533,6.6636 1.11012,24.1846 l -0.28101,5.5 7,0.6491 c 3.85,0.3571 9.30475,1.1928 12.12167,1.8572 4.48389,1.0575 5.45115,0.9921 7.76749,-0.5256 3.11621,-2.0418 2.21556,-3.9098 -2.32282,-4.8174 -1.7724,-0.3545 -5.21672,-2.9939 -8.9125,-6.8297 -7.18598,-7.4582 -7.14212,-7.262 -7.5772,-33.8987 -0.19028,-11.6501 -0.73715,-19.3663 -1.4695,-20.7347 -0.64154,-1.1987 -2.55678,-2.8985 -4.25609,-3.7772 -1.69931,-0.8788 -5.20508,-3.1175 -7.7906,-4.975 -2.58551,-1.8575 -6.69433,-4.2614 -9.13069,-5.342 -3.79423,-1.6828 -4.05746,-1.9749 -1.8348,-2.0354 1.48497,-0.04 5.30108,1.7473 8.92134,4.1794 3.4795,2.3375 7.71177,4.9889 9.40503,5.8919 1.69327,0.903 3.80928,2.478 4.70224,3.5 2.40313,2.7503 4.06135,8.7731 3.27645,11.9004 -0.82906,3.3033 -0.78221,6.7953 0.33168,24.7171 l 0.85518,13.7594 5.44874,5.5173 c 3.46659,3.5102 6.79382,5.8794 9.14625,6.5129 3.63104,0.9777 5.66016,3.7795 4.3143,5.9572 -0.52206,0.8447 -7.44643,4.2582 -7.86829,3.8788 -0.0703,-0.063 -1.70288,-0.4299 -3.62788,-0.8148 z m -15.33333,-10.7369 c -0.36667,-0.3666 -0.62799,-1.8291 -0.58072,-3.25 0.0844,-2.5366 0.10189,-2.5299 0.96694,0.3664 0.90899,3.0436 0.77489,4.0448 -0.38622,2.8836 z m -10.35833,-51.5278 c -1.20542,-0.5825 -2.44064,-1.7079 -2.74494,-2.5009 -0.36103,-0.9408 0.36049,-0.723 2.07652,0.6268 1.44639,1.1377 3.46054,2.0686 4.47589,2.0686 2.38411,0 3.43694,-4.0676 1.85241,-7.1569 -1.07078,-2.0876 -1.03722,-2.1795 0.30764,-0.8431 5.26251,5.2294 0.7947,11.0733 -5.96752,7.8055 z m -52.07176,-30.1489 c -4.41708,-4.6704 -5.13979,-6.0337 -5.73845,-10.8253 -0.37671,-3.015 -0.24109,-7.473 0.30138,-9.9066 0.97149,-4.3582 0.98791,-4.3138 1.0934,2.9602 l 0.10709,7.3848 2.22984,-2.8348 c 1.31884,-1.6766 2.1033,-3.8766 1.9201,-5.3848 -0.29506,-2.4292 -0.24138,-2.459 1.13262,-0.628 1.34973,1.7987 1.55443,1.5847 3.18758,-3.3322 1.32235,-3.9812 1.58684,-6.8701 1.09155,-11.9222 -0.77283,-7.8829 0.99443,-6.6869 1.95583,1.3237 0.80374,6.6969 -2.04306,14.8341 -6.88296,19.674 -1.99901,1.999 -3.63456,4.5162 -3.63456,5.5938 0,2.3584 7.58207,11.2408 9.59526,11.2408 1.88313,0 8.27102,-13.7453 9.05875,-19.4924 0.33981,-2.4792 1.00667,-4.5076 1.48191,-4.5076 2.8059,0 -3.41819,19.0245 -7.93368,24.25 -2.30708,2.6699 -3.4909,2.1954 -8.96566,-3.5934 z m 47.03415,-3.7516 c -3.66277,-1.8131 -4.76784,-3.2011 -8.25,-10.3624 -3.81378,-7.8432 -5.20534,-14.5426 -3.02073,-14.5426 0.55,0 1,1.6439 1,3.6532 0,4.052 4.73162,14.9104 7.63756,17.5272 2.44136,2.1984 6.77783,3.8188 7.97939,2.9815 0.5225,-0.364 1.70899,-2.9119 2.63665,-5.6619 l 1.68665,-5 -0.56622,4.5 c -0.5511,4.3798 -2.68058,9.0008 -4.14708,8.9992 -0.39982,-4e-4 -2.63012,-0.9428 -4.95622,-2.0942 z m -4.27073,-13.0958 c 0,-0.8749 0.89012,-3.5524 1.97804,-5.95 2.78865,-6.1456 2.54839,-7.5202 -1.72804,-9.8861 l -3.75,-2.0747 3.25,0.5258 c 3.65849,0.5919 3.99054,0.052 1.59501,-2.5955 -0.91024,-1.0058 -1.16076,-1.8287 -0.5567,-1.8287 3.96604,0 5.42563,9.8186 2.56131,17.2298 -1.91062,4.9435 -3.34962,6.9109 -3.34962,4.5794 z m -25.01287,-5.3229 c -4.76984,-5.0773 -3.36052,-21.0101 2.20313,-24.907 1.97186,-1.3812 1.94238,-1.4594 -1.15369,-3.0604 -1.74748,-0.9036 -4.09004,-3.1901 -5.20568,-5.081 -1.11565,-1.8908 -2.35987,-3.4379 -2.76495,-3.4379 -0.80185,0 -0.85292,9.5771 -0.0549,10.2958 0.26893,0.2422 1.83896,1.1603 3.48896,2.0402 l 3,1.5999 -4.61815,-0.5858 c -2.92726,-0.3713 -4.8711,-0.1765 -5.30901,0.532 -0.37998,0.6149 -1.16942,1.1179 -1.7543,1.1179 -1.92989,0 1.21637,-2.8642 3.50408,-3.19 2.13378,-0.3038 2.12231,-0.366 -0.57262,-3.1055 -3.07977,-3.1306 -3.47897,-4.1982 -1.25,-3.3429 2.05214,0.7875 1.99586,-3.502 -0.0991,-7.5532 -0.89883,-1.7382 -1.66518,-5.8654 -1.75,-9.4247 -0.14066,-5.9025 0.07,-6.5537 3.10235,-9.5921 3.00568,-3.0116 3.71611,-3.249 9.33527,-3.1198 6.88963,0.1583 9.93675,2.1723 12.60075,8.3282 2.22923,5.1512 2.0527,18.9354 -0.29337,22.9069 -1.29197,2.1872 -1.5063,3.3827 -0.74322,4.1458 0.76309,0.7631 1.26128,0.1275 1.72758,-2.204 0.73419,-3.671 5.16656,-8.8546 7.55683,-8.8376 0.99509,0.01 0.41066,0.9193 -1.60861,2.511 -4.20074,3.3113 -6.82273,10.0477 -5.38386,13.8323 1.55483,4.0895 1.28418,11.2921 -0.5616,14.9453 -3.98837,7.8938 -9.02177,9.8426 -13.39589,5.1866 z m 10.61343,-3.2098 c 4.11639,-6.1306 3.8371,-17.8816 -0.50868,-21.4024 -1.10376,-0.8942 -1.72597,-1.9067 -1.38269,-2.25 0.34328,-0.3432 0.16817,-0.6241 -0.38912,-0.6241 -0.5573,0 -2.64171,1.5815 -4.63203,3.5145 -5.83291,5.6648 -7.31351,15.8296 -3.21653,22.0824 2.38948,3.6468 7.21634,3.0176 10.12905,-1.3204 z m 0.0837,-27.8699 c 2.47009,-2.4701 2.56324,-2.95 1.95925,-10.0951 -0.71309,-8.4359 -3.5179,-15.8508 -6.29346,-16.6377 -5.64247,-1.5996 -8.41274,-1.6745 -11.66601,-0.3152 -4.43734,1.8541 -5.68408,4.1837 -5.68408,10.6211 0,4.0934 0.48879,5.6 2.45455,7.5658 1.34999,1.35 2.87621,2.4545 3.39159,2.4545 0.51537,0 1.2229,1.139 1.57229,2.531 0.71942,2.8664 5.93095,6.4597 9.37702,6.4653 1.2625,0 3.46248,-1.1633 4.88885,-2.5897 z m -33.73014,25.5078 c -0.61391,-1.1472 -0.92784,-2.2741 -0.69762,-2.5043 0.23022,-0.2302 0.93203,0.7084 1.55958,2.0857 1.37807,3.0245 0.70709,3.3503 -0.86196,0.4186 z m 39.71251,-2.5811 c -1.36907,-1.369 -0.58842,-2.041 1.83333,-1.5781 1.375,0.2629 2.5,0.8755 2.5,1.3614 0,1.029 -3.35331,1.1968 -4.33333,0.2167 z m 5.08333,-9.4134 c -2.34567,-1.3662 -2.21692,-5.1874 0.25,-7.4199 1.13419,-1.0264 2,-1.31 2,-0.655 0,0.6353 1.125,1.155 2.5,1.155 1.55556,0 2.5,0.5667 2.5,1.5 0,0.825 -0.45,1.5 -1,1.5 -0.55,0 -1,-0.45 -1,-1 0,-1.619 -5.00788,-1.143 -5.65267,0.5372 -0.32444,0.8455 0.20943,2.4205 1.18638,3.5 1.97917,2.187 1.80072,2.388 -0.78371,0.8827 z m 3.5,-15.6546 c -2.47375,-2.5681 -2.74556,-3.2653 -1.27305,-3.2653 1.019,0 4.58235,4.8609 3.90851,5.3318 -0.212,0.1481 -1.39796,-0.7818 -2.63546,-2.0665 z"
       id="path4101"
       inkscape:connector-curvature="0" />
  </g>
</svg>
