<?xml version="1.0" encoding="UTF-8" standalone="no"?>
<!-- Created with Inkscape (http://www.inkscape.org/) -->

<svg
   xmlns:dc="http://purl.org/dc/elements/1.1/"
   xmlns:cc="http://creativecommons.org/ns#"
   xmlns:rdf="http://www.w3.org/1999/02/22-rdf-syntax-ns#"
   xmlns:svg="http://www.w3.org/2000/svg"
   xmlns="http://www.w3.org/2000/svg"
   xmlns:xlink="http://www.w3.org/1999/xlink"
   xmlns:sodipodi="http://sodipodi.sourceforge.net/DTD/sodipodi-0.dtd"
   xmlns:inkscape="http://www.inkscape.org/namespaces/inkscape"
   width="158.67973"
   height="207.53627"
   id="svg2"
   version="1.1"
   inkscape:version="0.48.3.1 r9886"
   sodipodi:docname="Preacher-curl-3-1.svg">
  <defs
     id="defs4">
    <radialGradient
       gradientUnits="userSpaceOnUse"
       gradientTransform="matrix(1,0,0,0.91819829,-19.285714,-7.9105395)"
       r="209.56604"
       fy="287.50052"
       fx="398.1105"
       cy="287.50052"
       cx="398.1105"
       id="radialGradient5255"
       xlink:href="#linearGradient5249"
       inkscape:collect="always" />
    <linearGradient
       id="linearGradient5249"
       inkscape:collect="always">
      <stop
         id="stop5251"
         offset="0"
         style="stop-color:#e3e3e3;stop-opacity:1;" />
      <stop
         id="stop5253"
         offset="1"
         style="stop-color:#e3e3e3;stop-opacity:0;" />
    </linearGradient>
  </defs>
  <sodipodi:namedview
     id="base"
     pagecolor="#ffffff"
     bordercolor="#666666"
     borderopacity="1.0"
     inkscape:pageopacity="0.0"
     inkscape:pageshadow="2"
     inkscape:zoom="1.979899"
     inkscape:cx="6.7015943"
     inkscape:cy="57.509452"
     inkscape:document-units="px"
     inkscape:current-layer="layer1"
     showgrid="false"
     showguides="true"
     inkscape:guide-bbox="true"
     fit-margin-top="0"
     fit-margin-left="0"
     fit-margin-right="0"
     fit-margin-bottom="0"
     inkscape:window-width="1201"
     inkscape:window-height="886"
     inkscape:window-x="83"
     inkscape:window-y="39"
     inkscape:window-maximized="0">
    <sodipodi:guide
       orientation="-0.70710678,0.70710678"
       position="-2012.3955,517.67525"
       id="guide2985" />
  </sodipodi:namedview>
  <metadata
     id="metadata7">
    <rdf:RDF>
      <cc:Work
         rdf:about="">
        <dc:format>image/svg+xml</dc:format>
        <dc:type
           rdf:resource="http://purl.org/dc/dcmitype/StillImage" />
        <dc:title></dc:title>
      </cc:Work>
    </rdf:RDF>
  </metadata>
  <g
     inkscape:label="Ebene 1"
     inkscape:groupmode="layer"
     id="layer1"
     transform="translate(-583.82397,-336.78688)">
    <path
       style="fill:#000000"
       d="m 633.89792,541.92906 c -4.04368,-3.47823 -6.60431,-13.39311 -6.39244,-24.75185 0.0715,-3.83467 -0.76272,-10.05779 -1.99566,-14.88675 l -2.11857,-8.29761 2.55795,-7.93042 c 4.33278,-13.43288 3.25216,-25.59585 -2.40549,-27.07536 -1.34456,-0.35161 -2.04005,-1.35865 -2.04005,-2.95391 0,-2.10479 -0.38008,-2.36464 -2.91466,-1.99264 -2.46079,0.36116 -3.86154,-0.48335 -8.99521,-5.4232 -5.71876,-5.50283 -6.08084,-6.12631 -6.08534,-10.47853 -0.005,-5.09391 0.74984,-6.04997 6.15185,-7.78886 3.42339,-1.10198 3.68317,-1.47707 4.07263,-5.88032 0.22879,-2.58679 0.71608,-5.37826 1.08285,-6.20326 1.11672,-2.51186 -0.66123,-3.92833 -6.26471,-4.99101 -2.94197,-0.55793 -5.98584,-1.54292 -6.76416,-2.18887 -1.70364,-1.4139 -4.23273,-6.15716 -5.3382,-10.0117 -1.15749,-4.03595 0.41423,-3.46921 1.91892,0.69193 2.21258,6.11878 5.80398,9.51064 9.97492,9.4207 2.01361,-0.0434 3.13236,-0.29467 2.48612,-0.55833 -0.84216,-0.34359 -0.63593,-1.66675 0.72803,-4.67105 3.45514,-7.61039 1.86464,-25.02532 -2.62593,-28.75217 -0.78491,-0.65141 -1.41289,-1.91679 -1.39551,-2.81195 0.0234,-1.2042 0.66485,-0.90798 2.46612,1.13883 5.07952,5.77192 6.97596,19.51909 4.03895,29.27803 -0.80483,2.67425 -1.21609,5.10826 -0.91392,5.40893 1.20349,1.19747 4.31375,-4.33049 5.41141,-9.61787 2.13556,-10.28697 -1.09881,-22.21633 -7.23521,-26.68563 -5.79061,-4.21746 -13.10011,1.60132 -14.40932,11.47065 -0.35601,2.68373 -0.97211,4.87951 -1.36912,4.87951 -0.7018,0 0.30278,-8.29251 1.4378,-11.86866 0.90202,-2.84201 5.78863,-6.96478 8.92327,-7.52845 5.44124,-0.97845 11.299,4.23598 13.16753,11.72141 l 0.705,2.82431 2.51128,-4.32431 c 3.56115,-6.13212 9.05392,-11.60956 12.92232,-12.88625 3.64053,-1.20149 4.03745,-2.63507 1.88304,-6.80123 -1.99352,-3.85504 -2.97801,-14.03022 -1.6822,-17.38636 2.29119,-5.93418 12.48499,-8.67714 19.24875,-5.17946 4.38548,2.26782 7.20086,9.14624 7.50972,18.34747 0.23768,7.08058 0.37665,7.47213 3.05139,8.59677 1.5413,0.64807 3.43404,1.93943 4.20609,2.86969 1.09713,1.32196 2.33746,1.55137 5.67862,1.05033 2.35118,-0.35258 4.79401,-0.32021 5.42851,0.0719 0.63449,0.39214 3.02894,0.84104 5.32099,0.99754 2.29206,0.15651 5.40488,0.60576 6.91738,0.99833 2.60387,0.67584 2.75,0.53167 2.75,-2.71314 0,-4.80552 2.63853,-13.15281 4.76616,-15.07829 0.98235,-0.88901 3.61818,-1.90935 5.85739,-2.26741 3.61045,-0.57734 4.47785,-0.29408 7.66282,2.50236 1.97534,1.73437 4.10317,4.81841 4.72853,6.85341 0.62536,2.03501 1.30057,4.22827 1.50046,4.87391 0.27541,0.88953 1.70767,0.86141 5.91274,-0.11609 4.61756,-1.07339 5.73787,-1.06275 6.67247,0.0634 2.00756,2.41896 0.19079,4.06129 -5.79548,5.23902 l -5.87082,1.15501 -0.21879,5.02847 c -0.24989,5.74332 -2.34277,11.39846 -5.43752,14.69267 -1.55791,1.65832 -3.25564,2.26365 -6.34868,2.26365 -3.56942,0 -4.6949,-0.53849 -7.28058,-3.48342 -1.68216,-1.91588 -3.60993,-5.40338 -4.28393,-7.75 -0.67399,-2.34662 -1.32446,-4.40925 -1.44548,-4.58362 -0.12102,-0.17438 -2.73677,-0.90208 -5.81278,-1.61712 l -5.59275,-1.30008 0.62054,5.61712 c 0.43088,3.90034 1.33568,6.38749 2.96041,8.13769 1.39863,1.50665 2.91312,5.12698 3.76497,9 0.78381,3.56369 1.97547,8.73209 2.64812,11.48534 1.02506,4.19566 0.97801,5.59228 -0.29063,8.62858 -1.50722,3.60728 -1.56394,3.63407 -13.36541,6.31318 -14.5397,3.30073 -14.75656,3.37559 -10.06192,3.47338 4.35277,0.0907 10.73642,3.06252 15.49496,7.21353 1.80663,1.57598 3.85994,2.86542 4.56291,2.86542 1.81562,0 6.32501,4.97064 7.62126,8.40082 0.62306,1.64874 0.8416,5.31761 0.50634,8.5 -0.32444,3.07955 -0.18668,12.63166 0.30612,21.22692 l 0.896,15.62774 6.19878,6.12226 c 4.13311,4.08208 7.00049,6.12226 8.60458,6.12226 2.69625,0 5.65893,3.47233 4.82249,5.65206 -1.54651,4.03014 -12.01979,5.09726 -18.27586,1.86212 -2.06957,-1.07022 -4.2145,-1.41236 -6.16646,-0.98364 -1.69972,0.37332 -4.31403,0.11022 -6.05009,-0.60888 l -3.05703,-1.26626 0.7852,-6.5777 c 1.44482,-12.10327 1.04305,-19.19413 -1.34781,-23.78786 -1.55779,-2.9931 -2.17091,-5.88388 -2.12094,-10 0.11654,-9.60088 1.5242,-10.70426 2.21572,-1.73679 0.37107,4.81184 1.47778,9.9194 2.79421,12.89539 1.91759,4.33504 2.09102,5.89747 1.44184,12.98966 -0.40586,4.43405 -0.80186,9.8619 -0.88,12.0619 l -0.14206,4 5.64678,0.0859 c 3.10573,0.0473 6.93073,0.5718 8.5,1.16565 4.91755,1.86092 9.26966,2.24363 11.89764,1.04624 3.42979,-1.56272 2.70198,-4.06316 -1.42857,-4.90795 -2.35117,-0.48087 -5.20138,-2.61208 -9.41435,-7.03948 l -6.04228,-6.34982 -0.70347,-12.64168 c -0.38692,-6.95292 -0.98888,-13.10346 -1.33769,-13.66786 -0.34882,-0.5644 -0.17169,-4.28744 0.39363,-8.27342 1.40181,-9.88406 -0.25714,-14.31984 -6.80949,-18.20758 -2.58621,-1.53449 -6.9243,-4.33211 -9.64021,-6.21692 -2.85091,-1.97851 -6.80231,-3.70651 -9.3489,-4.0884 -3.84253,-0.57622 -4.72946,-0.34288 -6.88323,1.81089 -1.35978,1.35979 -2.907,4.45506 -3.43826,6.87838 -0.53125,2.42331 -1.20741,5.20262 -1.50256,6.17622 -0.40069,1.32177 0.39001,2.15737 3.12135,3.2986 2.01189,0.84062 4.4076,1.45471 5.3238,1.36465 4.79945,-0.47179 8.27136,0.32838 11.77626,2.71405 2.13925,1.45612 4.98523,2.94316 6.32439,3.30452 1.33916,0.36137 2.63693,1.2633 2.88393,2.0043 0.73724,2.21172 -5.32314,0.48078 -10.29616,-2.94075 -3.47905,-2.39363 -5.44209,-3.01554 -9.51853,-3.01554 -2.82456,0 -6.06823,-0.49915 -7.20817,-1.10922 -1.13993,-0.61008 -3.55035,-1.17873 -5.35649,-1.26368 l -3.2839,-0.15445 -0.67332,6.70455 c -0.37032,3.68751 -0.38944,7.16387 -0.0425,7.72524 0.84367,1.36507 -0.54622,30.09756 -1.45592,30.09756 -0.39207,0 -0.48671,-13.94824 -0.2103,-30.99609 l 0.50255,-30.9961 -3.03369,1.05755 c -2.56891,0.89553 -3.11961,1.69926 -3.59453,5.2461 -0.72069,5.38237 -0.2598,8.60441 1.80081,12.58918 3.57145,6.90643 3.11999,13.37824 -1.85551,26.59936 -0.82793,2.2 -1.53185,7.375 -1.56427,11.5 -0.0324,4.125 -0.70743,9.3 -1.5,11.5 -0.79258,2.2 -1.46081,7.19548 -1.48495,11.10106 -0.0493,7.98079 1.8934,12.67676 9.1578,22.13628 4.11053,5.35263 4.40909,7.82205 1.07099,8.85834 -0.97497,0.30267 -2.55407,0.96747 -3.50911,1.47732 -3.3137,1.76903 -9.49207,1.0646 -12.36931,-1.41029 z m 10.57678,-0.62365 c 2.35267,-1.48787 0.3286,-2.45988 -4.50357,-2.16273 -5.97607,0.3675 -5.73788,-1.46664 0.28253,-2.17551 4.07295,-0.47957 4.99174,-0.24867 6.44601,1.61994 1.25926,1.61805 1.98732,1.88896 2.82723,1.052 0.84098,-0.838 0.38925,-1.99262 -1.76054,-4.5 -5.48315,-6.39514 -9.49284,-14.16888 -10.57901,-20.50988 -0.89429,-5.22081 -0.77731,-7.10624 0.74618,-12.02714 2.10372,-6.79509 3.26634,-17.71329 1.63301,-15.33574 -0.56676,0.825 -1.32208,3.6476 -1.67848,6.27244 -0.80336,5.91652 -2.3844,7.21353 -2.3844,1.95605 0,-2.16706 1.10559,-6.06811 2.49655,-8.80901 5.0799,-10.01001 7.37766,-22.94527 4.57394,-25.74899 -2.26932,-2.26932 -0.93736,-2.89405 1.42951,-0.67049 l 2.5,2.34863 0,-2.495 c 0,-1.37225 -1.2375,-4.93819 -2.75,-7.92432 -2.46001,-4.85678 -3.1848,-5.52056 -6.87321,-6.29464 -4.92633,-1.03389 -9.08813,0.58751 -11.20496,4.36533 -1.28595,2.295 -1.14532,2.91096 1.71502,7.51171 2.69659,4.33736 3.17381,6.15384 3.54669,13.5 0.23697,4.66856 0.95205,9.94123 1.58907,11.71704 1.56363,4.35889 0.51102,6.6593 -1.15366,2.52125 -0.71908,-1.7875 -1.58754,-3.25 -1.9299,-3.25 -1.15561,0 -2.93905,7.69705 -2.93905,12.68452 0,2.72386 0.7125,7.35173 1.58334,10.28416 0.9167,3.08686 1.45845,7.89991 1.28671,11.4315 -0.20814,4.2801 0.40214,8.33724 2.04573,13.59982 1.2883,4.125 2.4993,8.07331 2.69112,8.77402 0.70043,2.55864 7.53728,4.0528 10.36414,2.26504 z m -12.97104,-18.58872 c 0,-1.5955 3.21106,-6.43793 3.9615,-5.97413 1.04096,0.64334 -1.69451,6.52379 -3.03474,6.52379 -0.50972,0 -0.92676,-0.24735 -0.92676,-0.54966 z m 6.16667,-47.45034 c 0.50335,-1.51005 2.11144,-1.66567 2.58333,-0.25 0.22917,0.6875 -0.33333,1.25 -1.25,1.25 -0.91667,0 -1.51667,-0.45 -1.33333,-1 z m -3.13525,-12.75 c 0.0457,-1.09066 4.96858,-4.51059 4.96858,-3.45167 0,1.00337 -3.29503,4.20167 -4.32874,4.20167 -0.36919,0 -0.65712,-0.3375 -0.63984,-0.75 z m -14.86837,-16.25 c -0.18532,-3.025 -0.97282,-6.21043 -1.75,-7.07874 -0.77718,-0.86831 -1.41305,-1.89664 -1.41305,-2.28518 0,-0.38855 -0.70465,-1.78187 -1.56588,-3.09628 -1.40149,-2.13895 -1.90014,-2.2793 -4.75,-1.33696 -4.18925,1.38522 -5.78446,3.51267 -5.03046,6.70885 0.83861,3.55487 10.31341,12.96046 12.84634,12.75251 1.78296,-0.14638 1.96343,-0.76106 1.66305,-5.6642 z m 6.13492,0.44765 c 2.54662,-2.95177 7.78411,-4.37702 12.45203,-3.3885 2.69004,0.56967 3.25,0.38696 3.25,-1.06045 0,-0.96178 0.29531,-3.22526 0.65625,-5.02995 l 0.65625,-3.28125 -3.40625,0.72073 c -9.02947,1.91055 -9.30106,1.88665 -12.41868,-1.09272 -1.65004,-1.57687 -4.31899,-5.89632 -5.93098,-9.59879 l -2.93091,-6.73175 -1.31284,3.12233 c -2.12507,5.05405 -1.60441,9.69764 1.68716,15.04712 1.65,2.6816 3,6.18206 3,7.77882 0,2.94589 0.85134,6.06676 1.65495,6.06676 0.24254,0 1.4319,-1.14856 2.64302,-2.55235 z m 31.60235,-8.12092 c 0.0584,-1.86046 1.19636,-4.47661 2.75051,-6.32361 l 2.65083,-3.15034 -3.90083,0.704 c -2.14546,0.3872 -4.46333,1.15043 -5.15083,1.69605 -1.9329,1.53404 -1.58612,10.71829 0.49139,13.01391 1.70985,1.88936 1.75333,1.88173 2.40032,-0.42126 0.36241,-1.29002 0.70379,-3.77345 0.75861,-5.51875 z m 7.56081,-12.26457 c 18.08699,-4.28905 25.3401,-6.42079 26.33723,-7.74066 1.69147,-2.23896 1.04187,-10.35116 -1.46714,-18.3215 l -1.73136,-5.5 -0.7525,7.5 c -0.95299,9.49831 -2.33702,15.05372 -4.02504,16.15624 -1.7263,1.12752 -5.68443,0.21154 -8.82232,-2.04163 -3.50481,-2.51664 -9.31523,-14.58505 -9.96215,-20.69168 l -0.53785,-5.07707 -7.5,1.4561 c -4.125,0.80086 -7.65896,1.59449 -7.85323,1.76364 -0.19428,0.16914 -0.73606,3.72112 -1.20395,7.89329 -1.21784,10.85951 -7.59976,24.54111 -11.44745,24.54111 -2.16658,0 -9.43094,-7.48863 -11.02873,-11.36921 -1.0528,-2.55697 -1.51466,-6.28761 -1.36182,-11 0.17234,-5.31364 -0.10102,-7.13079 -1.07271,-7.13079 -1.10083,0 -1.94395,2.25528 -4.11223,11 -0.45279,1.82611 1.31676,6.89667 5.72079,16.39262 l 4.35611,9.39263 5.75161,-0.65196 c 3.16338,-0.35859 16.98412,-3.31559 30.71274,-6.57113 z m -24.11912,-9.98217 c 3.62932,-7.93966 5.79844,-19.19514 6.08601,-31.57999 0.0639,-2.75 0.45101,-5.53141 0.86035,-6.1809 0.98714,-1.56629 0.15092,-1.96384 -5.82502,-2.76926 -4.27789,-0.57657 -5.30701,-0.38008 -6.83136,1.30431 -1.73135,1.91312 -1.71995,2.05789 0.32313,4.10097 1.1648,1.1648 1.85627,2.54103 1.5366,3.05828 -0.31968,0.51725 -0.11887,2.65753 0.44623,4.75618 1.35744,5.04112 -1.59403,13.04878 -6.95196,18.86144 -2.7079,2.93773 -3.69089,4.78144 -3.31521,6.21804 0.5208,1.99153 8.06647,10.15094 9.3874,10.15094 0.36492,0 2.29265,-3.56401 4.28383,-7.92001 z m 42.97466,-4.07999 c 1.83047,-7.19262 1.87022,-13.82069 0.14992,-25 -2.40805,-15.64876 -2.56703,-16 -7.24184,-16 -2.10361,0 -4.35184,0.52709 -4.99607,1.17132 -0.89509,0.89509 -1.646,0.56786 -3.18418,-1.38762 -4.07033,-5.17458 -9.92609,-4.05914 -10.0127,1.90728 -0.0175,1.20504 -0.4818,2.4691 -1.0318,2.80902 -1.67001,1.03212 -1.12006,2.5 0.93664,2.5 1.43381,0 2.04354,-0.84384 2.34835,-3.25 0.37416,-2.95356 0.48179,-3.04477 1.17999,-1 0.8072,2.36396 2.01967,2.89288 2.99902,1.30825 0.79275,-1.2827 7.21407,-0.78018 8.67298,0.67873 0.90434,0.90434 0.85786,1.56431 -0.19994,2.83889 -1.20553,1.45256 -1.02798,1.93988 1.41702,3.88946 4.06898,3.2445 4.59758,8.89661 1.54967,16.57012 -1.30301,3.2805 -2.76548,5.96455 -3.24992,5.96455 -1.08026,0 -0.35183,-4.15115 1.66703,-9.5 1.35759,-3.59687 1.35149,-4.17637 -0.0605,-5.75 -0.86366,-0.9625 -2.37398,-1.75 -3.35628,-1.75 -0.9823,0 -2.10752,-0.52023 -2.50049,-1.15607 -0.5137,-0.83119 0.31281,-0.98937 2.94098,-0.56287 4.31424,0.7001 4.57668,-0.063 0.93544,-2.72002 -2.57196,-1.87676 -2.9155,-1.88554 -10.71068,-0.27367 -4.42943,0.9159 -8.21331,2.14472 -8.40864,2.73069 -0.24163,0.72489 -0.8112,0.68692 -1.78205,-0.11882 -1.72069,-1.42804 -2.017,-1.18811 -2.90571,2.35281 -0.84829,3.37984 0.13307,3.46212 10.02712,0.84067 l 7,-1.85466 0.60452,6.63097 c 0.73529,8.06529 5.551,18.32684 9.66167,20.58756 4.2243,2.3232 6.52451,1.57482 7.55048,-2.45659 z m -54.90429,-10.25 c -0.68285,-3.28702 1.13829,-3.74109 2.15512,-0.53734 0.62402,1.96612 0.90386,1.71542 2.51151,-2.25 1.95247,-4.81594 2.38946,-9.67565 1.05873,-11.77402 -0.66275,-1.04508 -1.75387,-0.86331 -5.37325,0.89512 -4.29492,2.08663 -4.49584,2.36618 -3.69859,5.14602 0.46367,1.61673 0.60259,5.93892 0.3087,9.60487 l -0.53435,6.66535 2.07171,-2.5 c 1.45383,-1.75438 1.90133,-3.32018 1.50042,-5.25 z m -5.41238,-9.33333 c 0,-1.76593 -2.15276,-1.45839 -2.77083,0.39583 -0.21771,0.65312 0.31666,1.1875 1.1875,1.1875 0.87083,0 1.58333,-0.7125 1.58333,-1.58333 z m 91.49545,-3.00626 c 6.51822,-7.03328 5.10819,-28.64402 -2.24638,-34.42913 -2.70694,-2.12928 -7.26066,-2.58063 -10.19456,-1.01045 -2.19416,1.17427 -4.6192,6.94351 -5.56237,13.233 l -0.69415,4.62897 4.2602,-0.95721 c 4.65935,-1.04689 6.35212,-0.24466 5.77768,2.73813 -0.24052,1.24894 -1.69252,2.09132 -4.59378,2.66507 -2.33315,0.4614 -4.23769,1.37493 -4.23232,2.03006 0.0196,2.38445 4.85246,11.51572 6.64704,12.5589 3.40819,1.98116 8.25605,1.32932 10.83864,-1.45734 z m -4.49545,0.32656 c 0,-0.23633 0.7555,-1.94413 1.67889,-3.79511 1.82006,-3.6484 2.35483,-13.93327 1.04467,-20.09128 -0.42705,-2.00718 -1.91179,-5.32244 -3.29943,-7.36724 -2.82816,-4.16753 -2.30432,-6.28139 0.65273,-2.63395 5.77449,7.12269 6.63941,32.12271 1.17314,33.90883 -0.6875,0.22465 -1.25,0.21508 -1.25,-0.0213 z m -82.25,-3.28774 c 5.72855,-2.67776 7.8075,-4.44923 5.22148,-4.44923 -1.94961,0 -12.97148,6.03094 -12.97148,7.09773 0,0.58791 0.3375,0.88985 0.75,0.67097 0.4125,-0.21888 3.5625,-1.71264 7,-3.31947 z m 3.25,-6.84378 c 0,-0.54781 1.20919,-2.25814 2.68709,-3.80073 1.89546,-1.97844 3.67255,-2.80472 6.03212,-2.80472 4.46151,0 10.28079,2.51827 10.28079,4.44897 0,2.03532 3.60988,2.01004 4.39301,-0.0308 1.35111,-3.52094 0.67086,-5.41821 -1.94267,-5.41821 -3.89709,0 -8.22831,-2.67911 -10.13151,-6.26693 l -1.71503,-3.23307 -0.60937,3.53397 c -0.8417,4.88139 -2.13851,6.90607 -2.94704,4.60113 -0.55526,-1.58294 -0.90444,-1.53212 -4.05334,0.58993 -3.21148,2.16421 -10.97772,11.36014 -10.98901,13.01197 -0.003,0.40535 2.01996,-0.24682 4.49496,-1.44926 2.475,-1.20245 4.5,-2.63448 4.5,-3.18229 z m 30.02523,1.83028 c 7.94001,-1.5062 12.15501,-3.58827 9.98244,-4.93099 -0.55422,-0.34253 -1.00767,-0.18397 -1.00767,0.35235 0,0.53631 -4.46597,1.78591 -9.92437,2.77687 -5.45841,0.99097 -9.70685,2.15372 -9.44099,2.5839 0.64357,1.04132 0.86671,1.02452 10.39059,-0.78213 z m 38.53195,-6.55445 c 2.44355,-0.61529 4.44282,-1.51529 4.44282,-2 0,-1.14364 -1.65046,-1.1061 -6.13494,0.13953 -2.67771,0.74378 -5.24528,0.63399 -9.75,-0.41689 -3.36328,-0.7846 -6.11506,-1.02503 -6.11506,-0.53428 0,0.49074 1.2375,1.17254 2.75,1.51511 1.5125,0.34257 4.1,0.98556 5.75,1.42886 4.15894,1.11738 4.09014,1.11839 9.05718,-0.13233 z m 30.70913,-6.54775 c 0.42147,-0.25945 0.54597,-0.82826 0.27666,-1.26401 -0.67057,-1.08499 -10.54297,0.95311 -10.54297,2.17653 0,0.93171 8.49734,0.17642 10.26631,-0.91252 z m -72.46631,-0.53353 c 1.54813,-1.54813 1.5791,-14.80265 0.0465,-19.91787 -1.46574,-4.89222 -3.76377,-6.95268 -8.77665,-7.86935 -5.68413,-1.03942 -11.63228,1.71833 -12.5309,5.8097 -0.76207,3.4697 0.22266,10.05081 1.8003,12.0317 0.59319,0.74479 2.10092,1.74289 3.35051,2.21798 1.32554,0.50397 2.05521,1.42875 1.7516,2.21996 -0.28622,0.74588 0.68374,2.56029 2.15546,4.03201 2.04426,2.04426 3.65865,2.67587 6.8395,2.67587 2.29,0 4.70364,-0.54 5.36364,-1.2 z m 33.86667,134.53333 c -0.36667,-0.36666 -0.62609,-2.05416 -0.57648,-3.75 l 0.0902,-3.08333 0.96682,3.35966 c 0.96623,3.35763 0.77631,4.73052 -0.48053,3.47367 z m -11.80589,-52.24725 c -3.44499,-2.79291 -1.57271,-3.6723 2.07569,-0.97493 2.88417,2.13236 3.20627,2.17469 4.75595,0.625 1.39596,-1.39596 1.46765,-2.08942 0.44749,-4.32844 -1.26916,-2.7855 -0.9695,-4.03846 0.71662,-2.99638 1.67656,1.03617 2.42783,6.54111 1.10948,8.12963 -1.69809,2.04606 -6.3042,1.81595 -9.10523,-0.45488 z m -96.2026,-52.53447 c -1.21879,-3.1761 0.5372,-4.20059 10.62668,-6.19986 8.63728,-1.71151 10.34391,-1.8084 11.04882,-0.62722 1.99724,3.34666 -0.14349,4.2725 -17.95689,7.76615 -2.30312,0.45169 -3.27955,0.20511 -3.71861,-0.93907 z m 16.59182,-3.65476 c 7.00995,-1.82061 3.78617,-2.52193 -4.75,-1.03335 -4.675,0.81525 -8.5,1.90557 -8.5,2.42293 0,0.99847 6.80176,0.28514 13.25,-1.38958 z"
       id="path3113"
       inkscape:connector-curvature="0" />
  </g>
</svg>
