<?xml version="1.0" encoding="UTF-8" standalone="no"?>
<!-- Created with Inkscape (http://www.inkscape.org/) -->

<svg
   xmlns:dc="http://purl.org/dc/elements/1.1/"
   xmlns:cc="http://creativecommons.org/ns#"
   xmlns:rdf="http://www.w3.org/1999/02/22-rdf-syntax-ns#"
   xmlns:svg="http://www.w3.org/2000/svg"
   xmlns="http://www.w3.org/2000/svg"
   xmlns:sodipodi="http://sodipodi.sourceforge.net/DTD/sodipodi-0.dtd"
   xmlns:inkscape="http://www.inkscape.org/namespaces/inkscape"
   width="159.73195"
   height="161.53748"
   id="svg2"
   version="1.1"
   inkscape:version="0.48.3.1 r9886"
   sodipodi:docname="Prone-incline-biceps-curl-1.svg">
  <defs
     id="defs4" />
  <sodipodi:namedview
     id="base"
     pagecolor="#ffffff"
     bordercolor="#666666"
     borderopacity="1.0"
     inkscape:pageopacity="0.0"
     inkscape:pageshadow="2"
     inkscape:zoom="3.959798"
     inkscape:cx="57.918228"
     inkscape:cy="85.626459"
     inkscape:document-units="px"
     inkscape:current-layer="layer1"
     showgrid="false"
     fit-margin-top="0"
     fit-margin-left="0"
     fit-margin-right="0"
     fit-margin-bottom="0"
     inkscape:window-width="1855"
     inkscape:window-height="1056"
     inkscape:window-x="65"
     inkscape:window-y="24"
     inkscape:window-maximized="1" />
  <metadata
     id="metadata7">
    <rdf:RDF>
      <cc:Work
         rdf:about="">
        <dc:format>image/svg+xml</dc:format>
        <dc:type
           rdf:resource="http://purl.org/dc/dcmitype/StillImage" />
        <dc:title></dc:title>
      </cc:Work>
    </rdf:RDF>
  </metadata>
  <g
     inkscape:label="Ebene 1"
     inkscape:groupmode="layer"
     id="layer1"
     transform="translate(-866.35999,-1191.5505)">
    <path
       style="fill:#000000"
       d=""
       id="path3414"
       inkscape:connector-curvature="0" />
    <path
       style="fill:#000000"
       d=""
       id="path3412"
       inkscape:connector-curvature="0" />
    <path
       style="fill:#000000"
       d="m 919.88494,1346.8333 -32.7921,-6.1569 0.2921,-5 c 0.2871,-4.9143 0.3518,-5.0057 3.7762,-5.3308 3.1398,-0.2981 16.3433,1.2077 21.5841,2.4615 2.001,0.4788 2.1081,-0.1001 3.2981,-17.8179 0.6765,-10.0721 1.646,-23.7128 2.1546,-30.3128 1.66,-21.5446 1.5075,-23.9098 -2.5727,-39.8992 -0.4839,-1.8963 -0.3852,-2.6799 0.2855,-2.2654 0.564,0.3485 1.8008,4.1281 2.7486,8.3991 2.647,11.9281 4.0645,15.7391 7.6831,20.6563 2.78,3.7775 3.8901,4.5377 6.6744,4.5702 3.24277,0.038 7.0447,-2.905 7.127,-5.5167 0.018,-0.5807 1.1825,-2.6057 2.5871,-4.5 4.2569,-5.741 6.6327,-12.0912 7.1891,-19.215 0.493,-6.3124 0.4011,-6.7264 -1.3571,-6.1155 -1.7286,0.6006 -1.7191,0.5256 0.1142,-0.9002 1.5991,-1.2437 1.9889,-2.6992 1.9446,-7.2621 -0.051,-5.2364 -0.3449,-5.9638 -3.5698,-8.829 -1.933,-1.7174 -4.3831,-3.7016 -5.4447,-4.4095 -1.0616,-0.7078 -0.01,-0.2814 2.3436,0.9475 7.2479,3.7894 7.6712,4.6854 7.9571,16.8418 l 0.2544,10.8184 14.7574,14.5814 c 10.4594,10.3347 15.4351,14.5838 17.0843,14.5897 1.2798,0.01 3.6423,-1.3072 5.25,-2.9149 2.3703,-2.3703 2.9231,-3.7796 2.9231,-7.4528 0,-4.0599 -0.403,-4.8537 -3.8841,-7.6512 -2.986,-2.3996 -4.0358,-4.0704 -4.5405,-7.2263 -0.4881,-3.0526 -1.6562,-4.997 -4.5562,-7.5842 -4.5035,-4.0178 -11.5543,-6.9991 -10.5861,-4.4761 1.5086,3.9316 1.5396,6.1446 0.1412,10.1055 -1.7177,4.8655 -4.1041,7.778 -5.0797,6.1996 -0.3481,-0.5632 -1.0518,-0.7651 -1.5637,-0.4487 -0.512,0.3164 -0.9309,0.099 -0.9309,-0.4837 0,-0.5824 0.8029,-1.059 1.7843,-1.059 2.4195,0 5.2157,-5.016 5.2157,-9.3564 0,-2.5887 -1.2265,-5.3022 -4.5369,-10.0378 -4.3421,-6.2115 -9.6689,-11.6058 -11.4604,-11.6058 -0.4641,0 -1.1348,-1.325 -1.4905,-2.9444 -0.5577,-2.5389 -7.3776,-10.0556 -9.1235,-10.0556 -0.3331,0 -0.3232,1.125 0.022,2.5 0.8511,3.3912 -0.4827,3.0846 -2.9107,-0.669 -3.16653,-4.8955 -17.5441,-9.1987 -18.7406,-5.6092 -0.3185,0.9557 -1.2514,0.9628 -4.2825,0.033 -2.1313,-0.6541 -3.9581,-1.0915 -4.0595,-0.9718 -0.1014,0.1196 0.1901,2.9175 0.6476,6.2175 0.5045,3.6386 0.4587,6.3739 -0.1165,6.95 -0.5982,0.5991 -0.9488,-0.8783 -0.9493,-4 -8e-4,-4.67 -1.897,-11.0425 -4.8448,-16.2814 -3.2711,-5.8133 -12.5163,-5.7981 -17.3722,0.029 -4.2289,5.0742 -5.0929,9.3227 -2.894,14.2301 1.8023,4.0223 12.9558,15.5727 15.0376,15.5727 1.3887,0 1.3711,6.3905 -0.031,11.4423 -0.602,2.1683 -2.4211,5.1814 -4.0423,6.696 l -2.9478,2.7536 2.0795,4.3041 c 1.1962,2.4756 1.4228,3.4544 0.5335,2.304 -6.5499,-8.4731 -8.7059,-12.181 -9.486,-16.3138 -0.9622,-5.0972 0.2017,-12.7549 2.3942,-15.7533 1.1329,-1.5493 0.9487,-2.0886 -1.3833,-4.0509 -2.7993,-2.3555 -5.0422,-8.098 -5.0422,-12.9102 0,-4.6846 4.446,-11.0252 9.4187,-13.4324 3.8604,-1.8688 4.9884,-2.0069 8.5536,-1.0469 3.3351,0.8981 4.6734,2.0268 7.1223,6.0068 3.5299,5.7367 5.0848,6.4084 12.7706,5.5164 5.7421,-0.6665 10.5579,0.4658 17.2891,4.065 1.4599,0.7806 3.4421,1.4193 4.4049,1.4193 2.1925,0 9.4326,7.4908 9.4645,9.7921 0.013,0.9393 1.8644,3.0579 4.1143,4.7079 2.2499,1.65 5.0814,4.4451 6.2923,6.2113 2.4946,3.6385 6.9014,7.3676 9.0855,7.6881 4.7829,0.702 14.4843,11.6379 14.4843,16.3274 0,0.6025 1.2457,2.1479 2.7682,3.4343 3.0453,2.573 6.1492,7.1114 9.2417,13.5129 1.68539,3.4888 2.80856,4.4371 6.84176,5.7767 5.4168,1.7992 8.9452,5.0873 11.9981,11.1808 1.2767,2.5482 2.9731,4.3582 4.4266,4.723 4.4158,1.1083 5.2867,4.6351 3.3076,13.3935 -2.7227,12.0484 -2.9447,12.5971 -5.7281,14.1594 -2.2586,1.2677 -3.3961,1.2824 -8.2945,0.1074 -5.2376,-1.2565 -7.5614,-3.0704 -7.5614,-5.9021 0,-0.5604 1.5535,-1.7561 3.4524,-2.6572 3.0155,-1.4309 3.5323,-2.2278 4.084,-6.2969 0.3474,-2.5622 0.8499,-5.4483 1.1166,-6.4135 0.3046,-1.1026 -0.1913,-1.9738 -1.3341,-2.3438 -1.0004,-0.3238 -3.8402,-1.4129 -6.3106,-2.4201 -2.4704,-1.0072 -4.65077,-1.672 -4.84536,-1.4774 -0.1946,0.1946 1.15126,1.6987 2.99086,3.3424 1.8396,1.6437 3.1089,3.2244 2.8205,3.5127 -0.2883,0.2884 -5.013,-3.5531 -10.49926,-8.5366 -18.0461,-16.3922 -26.8662,-24.4926 -34.975,-32.1208 -7.4879,-7.0441 -8.0561,-7.3875 -8.8762,-5.3637 -2.5037,6.1784 -10.0753,20.4493 -11.8911,22.4122 -1.4195,1.5344 -3.21853,2.2451 -5.6571,2.2347 -4.5061,-0.019 -4.9879,-0.3649 -9.2846,-6.6588 l -3.5322,-5.174 -0.177,10.174 c -0.4117,23.6647 -2.7768,54.47 -4.3319,56.4241 -1.251,1.5719 -5.5552,1.5404 -13.2499,-0.097 -3.3001,-0.7022 -7.9374,-1.0868 -10.3053,-0.8546 -4.241,0.4159 -4.2954,0.469 -3.6446,3.5619 0.3633,1.7268 0.9506,3.4307 1.3052,3.7864 0.3546,0.3557 14.7266,3.2315 31.9379,6.3908 34.4521,6.3239 36.2068,6.3528 36.2068,0.5975 0,-2.7134 -0.3178,-2.9503 -4.75,-3.5421 -8.8161,-1.177 -17.25003,-2.9555 -17.25003,-3.6377 0,-0.3728 1.06783,-0.4737 2.37303,-0.2242 2.7006,0.5162 11.3875,-2.5084 26.627,-9.2712 5.775,-2.5628 15,-6.3721 20.5,-8.465 l 10,-3.8055 -0.3032,-4.1056 c -0.3151,-4.2682 -0.2296,-4.3615 5.05856,-5.5206 1.847,-0.4048 3.2214,-1.6688 4.1684,-3.8335 1.3444,-3.0728 1.417,-3.1069 1.4946,-0.7021 0.045,1.3901 -0.6504,3.5725 -1.545,4.8497 -1.2896,1.8411 -2.2341,2.2007 -4.55927,1.7356 l -2.93279,-0.5865 0.6712,4.4753 c 0.5724,3.8172 0.3973,4.5717 -1.1907,5.1302 -2.2869,0.8042 -29.4746,11.7707 -42.1762,17.0122 -10.2641,4.2356 -10.347,3.7848 1.0644,5.7883 3.6489,0.6406 3.75,0.7741 3.75,4.9525 0,3.6312 -0.3933,4.4733 -2.5471,5.4547 -1.4009,0.6383 -2.8634,1.1186 -3.25,1.0674 -0.3866,-0.051 -15.4594,-2.8637 -33.4951,-6.25 z m 98.50996,-28.9069 c 1.5504,-1.2111 5.7822,-15.6355 5.7822,-19.7089 0,-1.2273 -1.4264,-2.9147 -3.6571,-4.3265 -2.1534,-1.3628 -4.7233,-4.3499 -6.25,-7.2646 -2.1719,-4.1461 -3.5455,-5.4038 -8.4588,-7.7444 -6.79786,-3.2384 -7.45646,-3.8378 -10.11576,-9.2056 l -1.9816,-4 -0.3358,4 c -0.3678,4.3809 -4.0621,9.1823 -7.4623,9.6985 -3.7196,0.5647 7.6165,8.7948 17.66146,12.8223 l 9.0998,3.6487 -0.2998,5.9152 c -0.3881,7.6562 -1.7759,11.092 -4.7854,11.8473 -3.6212,0.9089 -2.9087,3.2381 1.3353,4.3653 5.2845,1.4036 7.6255,1.3919 9.4678,-0.047 z m -120.88856,-74.9866 c 2.2586,-3.028 3.7432,-14.7634 1.8677,-14.7634 -0.5739,0 -2.376,-1.1213 -4.0047,-2.4917 -3.6299,-3.0544 -4.6382,-2.1901 -6.2585,5.3648 -1.196,5.5771 -0.7207,9.2014 1.6971,12.9381 1.8518,2.8619 4.0371,2.5201 6.6984,-1.0478 z m 70.6708,-5.7634 c 0,-0.55 -0.4766,-1 -1.0591,-1 -0.5824,0 -0.7809,0.45 -0.4409,1 0.3399,0.55 0.8164,1 1.059,1 0.2425,0 0.441,-0.45 0.441,-1 z m -42.8784,91.75 c 0.4197,-2.8875 1.4955,-15.144 2.3907,-27.2367 0.8952,-12.0926 1.8212,-22.1801 2.0577,-22.4166 0.9385,-0.9386 0.4486,10.0032 -2.0488,45.7608 l -0.5139,7.3575 2.7463,-0.6331 c 1.5105,-0.3482 13.2327,-4.5081 26.0493,-9.2443 21.8605,-8.0781 23.3839,-8.8038 24.6104,-11.7243 1.6637,-3.9612 1.3278,-4.4712 -3.4473,-5.2347 -2.9531,-0.4722 -5.3562,-2.0136 -9.7481,-6.2527 -3.2058,-3.0942 -10.4255,-9.6293 -16.0437,-14.5222 -5.6182,-4.893 -10.0137,-9.0976 -9.7678,-9.3435 0.8404,-0.8404 15.1863,10.4502 24.3096,19.1322 6.5109,6.196 10.4373,9.122 13.76,10.2541 3.6408,1.2406 4.4994,1.9388 3.9581,3.2189 -0.3802,0.899 -0.9011,2.5956 -1.1574,3.7701 -0.2975,1.3631 -1.9691,2.7426 -4.6214,3.8141 -12.8896,5.2068 -49.9093,18.5504 -51.4653,18.5504 -1.6396,0 -1.7515,-0.55 -1.0684,-5.25 z m 44.3784,-52.9993 c -10.45,-10.5861 -15.625,-16.1008 -11.5,-12.2548 20.1616,18.7979 32.583,31.509 30.7851,31.5032 -0.1568,-5e-4 -8.8352,-8.6623 -19.2851,-19.2484 z m -83.8424,-9.0566 c -5.9713,-5.7375 -5.9368,-5.6496 -7.7325,-19.6941 -0.6681,-5.225 -1.6887,-10.1036 -2.2681,-10.8413 -1.8099,-2.3044 -0.8451,-8.4636 1.6769,-10.7043 2.4481,-2.1751 2.3975,-3.7925 -0.2144,-6.8505 -1.3602,-1.5925 -1.3794,-1.824 -0.1196,-1.4455 0.825,0.2478 2.3246,2.1135 3.3324,4.1461 1.3568,2.7364 2.4598,3.6955 4.25,3.6955 1.3297,0 2.4177,0.4586 2.4177,1.0191 0,0.8965 -2.6389,0.6819 -6.6769,-0.5432 -2.1814,-0.6617 -3.5415,2.3623 -3.036,6.7502 1.2382,10.748 4.5928,26.9314 6.0104,28.9958 3.1242,4.5494 6.2486,7.6191 8.3848,8.2378 3.4184,0.9901 12.6402,-8.712 14.2113,-14.9516 1.0165,-4.037 0.9641,-5.0078 -0.3486,-6.4584 -0.8498,-0.9389 -1.545,-2.0639 -1.545,-2.4999 0,-0.6361 5.2428,3.4174 12.4333,9.6127 0.5133,0.4423 0.6381,1.0994 0.2772,1.4603 -0.3609,0.3608 -2.2265,-0.5417 -4.1459,-2.0057 l -3.4898,-2.6618 -2.1398,4.9741 c -2.2236,5.1689 -11.6094,15.0706 -14.2853,15.0706 -0.8085,0 -3.9549,-2.3876 -6.9921,-5.3059 z m 52.3424,-5.6333 c 0,-0.5165 -1.82213,-3.0444 -4.04923,-5.6175 -5.18097,-5.9862 -4.29457,-7.1875 0.9902,-1.3421 3.39143,3.7511 5.26023,7.8988 3.55903,7.8988 -0.275,0 -0.5,-0.4226 -0.5,-0.9392 z m -9.8496,-14.4007 c -4.1013,-4.3656 -5.4514,-14.6107 -2.7709,-21.0261 1.2375,-2.9617 1.1883,-3.5507 -0.4777,-5.7179 -1.0216,-1.3289 -1.8389,-3.3161 -1.8162,-4.4161 0.041,-2 0.041,-2 0.883,0 0.9875,2.3459 4.6226,5.5754 5.4003,4.7978 0.2958,-0.2959 1.713,-0.2431 3.1492,0.1174 6.858,1.7212 8.9938,20.93 2.99417,26.9296 -2.298,2.298 -4.77637,2.0675 -7.36187,-0.6847 z m 7.35857,-2.0336 c 2.19533,-3.3505 2.97913,-11.6173 1.52053,-16.0369 -1.61813,-4.9031 -4.8643,-7.9716 -6.7647,-6.3944 -4.3028,3.5709 -5.6825,14.1369 -2.6253,20.1045 2.7346,5.3379 5.3834,6.1211 7.86947,2.3268 z m -27.28007,2.7042 c -2.5076,-1.0089 -4.2289,-6.2314 -4.2289,-12.8307 0,-10.1694 3.3457,-15.2205 9.3373,-14.0965 2.9651,0.5563 3.3691,1.0096 3.443,3.8634 0.079,3.0492 0,3.1194 -1.3142,1.2331 -3.7667,-5.3891 -4.6248,-5.5096 -7.9053,-1.11 -2.8839,3.8677 -2.9839,16.3807 -0.1559,19.5053 1.0478,1.1576 2.7353,2.1047 3.75,2.1047 1.0148,0 1.8451,0.45 1.8451,1 0,1.0395 -2.5672,1.2175 -4.7711,0.3307 z m -39.7198,-5.3206 c -2.3084,-2.5508 -3.052,-10.2804 -1.532,-15.9254 1.1846,-4.399 6.4938,-10.9471 7.8094,-9.6315 0.3832,0.3832 -0.1297,1.1593 -1.1398,1.7246 -2.8607,1.601 -5.6004,8.7306 -5.6248,14.6379 -0.027,6.5901 1.2643,9.1843 4.5723,9.1843 1.4279,0 2.2554,0.4342 1.9057,1 -1.0144,1.6415 -4.0657,1.1373 -5.9908,-0.9899 z m 90.6908,-2.2101 c -1.8875,-1.8876 -1.4026,-2.9788 0.8001,-1.8 1.1,0.5887 2,1.5045 2,2.0352 0,1.3244 -1.3542,1.2106 -2.8001,-0.2352 z m -45.8562,-1.5937 c -0.3174,-1.2135 -0.9745,-2.2063 -1.4604,-2.2063 -1.0492,0 -1.1881,-3.3619 -0.1806,-4.3694 0.3866,-0.3866 1.267,1.208 1.9566,3.5434 0.6895,2.3354 1.0304,4.4695 0.7575,4.7425 -0.2729,0.2729 -0.7558,-0.4967 -1.0731,-1.7102 z"
       id="path3911"
       inkscape:connector-curvature="0" />
  </g>
</svg>
