<?xml version="1.0" encoding="UTF-8" standalone="no"?>
<!-- Created with Inkscape (http://www.inkscape.org/) -->

<svg
   xmlns:dc="http://purl.org/dc/elements/1.1/"
   xmlns:cc="http://creativecommons.org/ns#"
   xmlns:rdf="http://www.w3.org/1999/02/22-rdf-syntax-ns#"
   xmlns:svg="http://www.w3.org/2000/svg"
   xmlns="http://www.w3.org/2000/svg"
   xmlns:sodipodi="http://sodipodi.sourceforge.net/DTD/sodipodi-0.dtd"
   xmlns:inkscape="http://www.inkscape.org/namespaces/inkscape"
   width="159.73195"
   height="161.53748"
   id="svg2"
   version="1.1"
   inkscape:version="0.48.3.1 r9886"
   sodipodi:docname="One-arm-snatch-2.svg">
  <defs
     id="defs4" />
  <sodipodi:namedview
     id="base"
     pagecolor="#ffffff"
     bordercolor="#666666"
     borderopacity="1.0"
     inkscape:pageopacity="0.0"
     inkscape:pageshadow="2"
     inkscape:zoom="3.959798"
     inkscape:cx="57.918228"
     inkscape:cy="85.626459"
     inkscape:document-units="px"
     inkscape:current-layer="layer1"
     showgrid="false"
     fit-margin-top="0"
     fit-margin-left="0"
     fit-margin-right="0"
     fit-margin-bottom="0"
     inkscape:window-width="1855"
     inkscape:window-height="1056"
     inkscape:window-x="65"
     inkscape:window-y="24"
     inkscape:window-maximized="1" />
  <metadata
     id="metadata7">
    <rdf:RDF>
      <cc:Work
         rdf:about="">
        <dc:format>image/svg+xml</dc:format>
        <dc:type
           rdf:resource="http://purl.org/dc/dcmitype/StillImage" />
        <dc:title></dc:title>
      </cc:Work>
    </rdf:RDF>
  </metadata>
  <g
     inkscape:label="Ebene 1"
     inkscape:groupmode="layer"
     id="layer1"
     transform="translate(-866.35999,-1191.5505)">
    <path
       style="fill:#000000"
       d=""
       id="path3414"
       inkscape:connector-curvature="0" />
    <path
       style="fill:#000000"
       d=""
       id="path3412"
       inkscape:connector-curvature="0" />
    <path
       style="fill:#000000"
       d="m 920.21245,1346.6129 -32.7921,-6.1569 0.2921,-5 0.29211,-5 4.10527,-0.3004 c 2.2579,-0.1653 8.3154,0.3772 13.4611,1.2055 5.14571,0.8283 9.47983,1.382 9.6314,1.2305 0.15156,-0.1516 0.64022,-3.679 1.0859,-7.8388 0.67788,-6.3268 0.55746,-7.7361 -0.73666,-8.6211 -2.39788,-1.64 0.8292,-1.4505 3.85512,0.2263 1.32116,0.7322 3.23366,1.1137 4.25,0.848 1.0661,-0.2788 1.84787,0.043 1.84787,0.7612 0,0.8918 -1.13354,1.0632 -4,0.6048 l -4,-0.6396 0,6.8118 c 0,3.9647 -0.50155,7.3134 -1.2,8.0118 -1.52069,1.5207 -5.67875,1.4747 -13.3,-0.147 -3.3,-0.7022 -7.93735,-1.0868 -10.30523,-0.8546 -4.24104,0.4159 -4.29538,0.469 -3.64465,3.5619 0.36332,1.7268 0.95068,3.4307 1.30523,3.7864 0.35456,0.3557 14.72663,3.2315 31.93795,6.3908 34.45209,6.3239 36.2067,6.3529 36.2067,0.5975 0,-2.7134 -0.31771,-2.9503 -4.75,-3.5421 -8.81608,-1.177 -17.25,-2.9555 -17.25,-3.6377 0,-0.3728 1.06789,-0.4737 2.37309,-0.2242 2.70519,0.5171 11.42325,-2.5209 26.62691,-9.2789 5.775,-2.5669 15,-6.391 20.5,-8.4979 l 10,-3.8307 -0.30311,-4.0728 c -0.31502,-4.2326 -0.22581,-4.3294 5.05855,-5.4876 1.847,-0.4048 3.2214,-1.6688 4.1685,-3.8335 1.3443,-3.0728 1.4169,-3.1069 1.4945,-0.7021 0.045,1.3901 -0.6504,3.5725 -1.545,4.8497 -1.2896,1.8411 -2.234,2.2007 -4.5593,1.7356 l -2.93275,-0.5865 0.67112,4.4753 c 0.57243,3.8172 0.39732,4.5717 -1.19069,5.1302 -1.89817,0.6675 -26.74337,10.7027 -42.67906,17.2384 -9.73078,3.9909 -9.85302,3.5571 1.56724,5.5621 3.64894,0.6406 3.75,0.7741 3.75,4.9525 0,3.6312 -0.39325,4.4733 -2.54705,5.4547 -1.40088,0.6383 -2.86338,1.1186 -3.25,1.0674 -0.38662,-0.051 -15.4594,-2.8637 -33.49506,-6.25 z m 5.49095,-18.371 c 1.19561,-7.6243 2.16381,-8.2286 1.5893,-0.9919 -0.39699,5.0005 -0.24279,5.7053 1.12594,5.1459 0.87225,-0.3565 2.85073,-1.0277 4.39662,-1.4916 1.54588,-0.4639 12.70785,-4.5302 24.80436,-9.0362 20.53108,-7.6478 22.08052,-8.3994 23.29976,-11.3024 1.66211,-3.9574 1.32567,-4.4677 -3.44882,-5.2311 -2.95643,-0.4728 -5.34741,-2.0088 -9.73279,-6.2527 -3.19745,-3.0942 -9.602,-8.871 -14.23233,-12.8373 l -8.41879,-7.2114 -2.29142,5.7114 c -1.26029,3.1413 -2.81693,6.7232 -3.45922,7.9599 -2.0998,4.043 -1.95324,1.6334 0.2353,-3.8685 3.06674,-7.7096 4.84021,-14.3681 5.96085,-22.38 0.5385,-3.85 1.7011,-9.1747 2.58355,-11.8326 1.19925,-3.6121 1.51007,-7.5897 1.23077,-15.75 -0.20553,-6.0046 -0.029,-10.9174 0.3922,-10.9174 0.42123,0 0.76588,2.0646 0.76588,4.5879 l 0,4.5879 3.75,-0.5929 c 2.83102,-0.4475 4.35899,-0.1182 6.23506,1.3437 1.36678,1.0652 2.15704,2.2646 1.75613,2.6655 -0.40091,0.401 -1.60146,-0.061 -2.6679,-1.0258 -1.40881,-1.2749 -2.77759,-1.5705 -5.00613,-1.0811 -2.78105,0.6109 -3.06716,1.0362 -3.06716,4.5593 0,3.6876 0.77692,4.6507 15.25,18.9056 10.78463,10.622 15.93135,15.0244 17.57692,15.035 1.27981,0.01 3.64231,-1.3005 5.25,-2.9082 2.37037,-2.3703 2.92308,-3.7796 2.92308,-7.4528 0,-4.0599 -0.40299,-4.8537 -3.88406,-7.6512 -2.98599,-2.3996 -4.03582,-4.0704 -4.54047,-7.2263 -0.48813,-3.0526 -1.6562,-4.997 -4.55619,-7.5842 -4.50354,-4.0178 -11.55432,-6.9991 -10.58617,-4.4761 1.50869,3.9316 1.53963,6.1446 0.14127,10.1055 -1.71768,4.8655 -4.10417,7.778 -5.07972,6.1996 -0.34807,-0.5632 -1.05176,-0.7651 -1.56376,-0.4487 -0.51199,0.3164 -0.9309,0.099 -0.9309,-0.4837 0,-0.5824 0.80298,-1.059 1.78439,-1.059 2.41947,0 5.21561,-5.016 5.21561,-9.3564 0,-2.5887 -1.22644,-5.3022 -4.53685,-10.0378 -4.34213,-6.2115 -9.66888,-11.6058 -11.46042,-11.6058 -0.4641,0 -1.13483,-1.325 -1.49051,-2.9444 -0.55764,-2.5389 -7.37759,-10.0556 -9.12351,-10.0556 -0.33304,0 -0.32317,1.125 0.0219,2.5 0.85114,3.3912 -0.48266,3.0846 -2.91064,-0.669 -3.2732,-5.0604 -18.49997,-9.4482 -18.49997,-5.331 0,1.845 0.0722,1.846 -4.48596,-0.059 -2.05162,-0.8572 -3.85001,-1.4197 -3.99644,-1.25 -0.14643,0.1697 0.077,2.7836 0.49657,5.8086 0.41954,3.025 0.51848,6.8037 0.21988,8.3972 -0.50943,2.7184 -0.37917,2.856 2.11152,2.2309 3.67768,-0.923 3.32594,0.656 -0.59557,2.6736 -1.7875,0.9197 -4.44706,2.6357 -5.91013,3.8134 -4.0495,3.2596 -8.28968,1.9793 -15.72285,-4.7473 -9.42097,-8.5255 -11.42409,-15.7554 -6.63115,-23.9339 3.49396,-5.962 9.77392,-8.9796 15.48639,-7.4414 3.33507,0.8981 4.67339,2.0268 7.12231,6.0068 3.52986,5.7367 5.08476,6.4084 12.77058,5.5164 5.74206,-0.6665 10.55786,0.4658 17.28914,4.065 1.45986,0.7806 3.44204,1.4193 4.40484,1.4193 2.19248,0 9.43266,7.4908 9.46451,9.7921 0.013,0.9393 1.86443,3.0579 4.1143,4.7079 2.24987,1.65 5.08142,4.4451 6.29235,6.2113 2.49453,3.6385 6.90137,7.3676 9.08542,7.6881 4.78292,0.702 14.48429,11.6379 14.48429,16.3274 0,0.6025 1.24572,2.1479 2.76826,3.4343 3.04533,2.573 6.14921,7.1114 9.2417,13.5129 1.68538,3.4888 2.80858,4.4371 6.84178,5.7767 5.4169,1.7992 8.9453,5.0873 11.9982,11.1808 1.2766,2.5482 2.973,4.3582 4.4265,4.723 4.4158,1.1083 5.2867,4.6351 3.3075,13.3935 -2.7226,12.0484 -2.9446,12.5971 -5.7279,14.1594 -2.2587,1.2677 -3.3962,1.2824 -8.2945,0.1074 -5.2376,-1.2565 -7.5615,-3.0704 -7.5615,-5.9021 0,-0.5604 1.5536,-1.7561 3.4524,-2.6571 3.0155,-1.431 3.5324,-2.2279 4.0841,-6.297 0.3474,-2.5622 0.8498,-5.4483 1.1165,-6.4135 0.3047,-1.1026 -0.1912,-1.9738 -1.3341,-2.3438 -1.0004,-0.3238 -3.8402,-1.4129 -6.3106,-2.4201 -2.4704,-1.0072 -4.65082,-1.672 -4.84543,-1.4774 -0.19461,0.1946 1.15133,1.6987 2.99093,3.3424 1.8396,1.6437 3.1089,3.2244 2.8206,3.5127 -0.2884,0.2884 -5.0131,-3.5579 -10.49936,-8.5471 -5.48629,-4.9893 -12.00008,-10.8745 -14.47508,-13.0782 -4.87127,-4.3373 -15.38514,-14.1387 -23.72526,-22.1175 -2.87389,-2.7494 -5.43091,-4.7933 -5.68226,-4.5419 -1.05925,1.0592 -4.52577,15.9361 -4.02028,17.2534 0.3037,0.7914 -0.12495,3.0596 -0.95257,5.0403 l -1.50476,3.6014 5.23697,3.4761 c 2.88034,1.9119 9.80895,7.7891 15.39693,13.0605 7.3235,6.9086 11.44652,10.0228 14.76831,11.1546 3.60572,1.2286 4.45794,1.9259 3.91704,3.2049 -0.38022,0.899 -0.90105,2.5956 -1.15741,3.7701 -0.29751,1.3631 -1.96903,2.7426 -4.6214,3.8141 -12.99904,5.2511 -49.916,18.5504 -51.4932,18.5504 -1.70006,0 -1.78258,-0.4895 -0.96327,-5.7141 z m 93.0191,-10.5359 c 1.5503,-1.2111 5.782,-15.6355 5.782,-19.7089 0,-1.2273 -1.4264,-2.9147 -3.6571,-4.3265 -2.1533,-1.3628 -4.7232,-4.3499 -6.2499,-7.2646 -2.1718,-4.1461 -3.5455,-5.4038 -8.4588,-7.7444 -6.79785,-3.2384 -7.45652,-3.8378 -10.11579,-9.2056 l -1.98165,-4 -0.33577,4 c -0.36774,4.3809 -4.06209,9.1823 -7.46232,9.6985 -3.71955,0.5647 7.61656,8.7948 17.66153,12.8223 l 9.0999,3.6487 -0.2999,5.9152 c -0.3881,7.6562 -1.7759,11.092 -4.7854,11.8474 -3.6212,0.9088 -2.9087,3.238 1.3353,4.3652 5.2845,1.4036 7.6256,1.3919 9.4679,-0.047 z m -50.21794,-80.75 c 0,-0.55 -0.47656,-1 -1.05902,-1 -0.58246,0 -0.7809,0.45 -0.44098,1 0.33992,0.55 0.81648,1 1.05902,1 0.24254,0 0.44098,-0.45 0.44098,-1 z m -58.83276,-14.0514 c 3.12976,-5.8358 1.70552,-17.5003 -3.03198,-24.832 -3.74307,-5.7927 -12.49218,-5.7521 -17.35312,0.081 -6.31188,7.5736 -5.39479,13.4898 3.51295,22.6625 8.85108,9.1144 12.83951,9.6082 16.87215,2.0889 z m 18.49354,97.8618 c -5.164,-8.1469 -1.55311,-24.7894 5.55891,-25.6208 1.95489,-0.2285 3.10289,0.3731 4.35315,2.2812 0.93394,1.4254 1.45321,2.8365 1.15392,3.1358 -0.29928,0.2993 -0.83325,-0.3668 -1.18661,-1.4801 -0.35335,-1.1133 -1.54103,-2.3094 -2.63929,-2.658 -5.82114,-1.8475 -10.79721,11.7516 -7.40354,20.2332 0.91195,2.2792 2.36807,4.4164 3.23584,4.7494 2.08807,0.8013 6.07019,-3.0135 7.19856,-6.896 0.65023,-2.2373 0.91205,-2.4924 0.97809,-0.953 0.0496,1.1562 -0.93685,3.6312 -2.19211,5.5 -2.88712,4.2984 -6.93165,5.0612 -9.05692,1.7083 z m -20.5882,-3.4453 c -2.74674,-3.4919 -2.82081,-13.1206 -0.14624,-19.0107 1.37355,-3.025 1.58387,-4.4442 0.77804,-5.25 -3.39736,-3.3974 -7.25666,0.818 -8.90431,9.7258 -0.86324,4.667 -0.7638,6.349 0.56223,9.5099 0.90117,2.1482 2.49805,4.0721 3.62433,4.3667 2.52303,0.6597 2.64295,2.2932 0.16836,2.2932 -7.10812,0 -8.87337,-18.4275 -2.49177,-26.0116 2.72813,-3.2422 5.77831,-3.4726 7.88213,-0.5955 0.80245,1.0974 1.50138,1.3405 1.91767,0.6669 0.36026,-0.5829 1.1569,-1.0598 1.77031,-1.0598 0.61341,0 0.15833,1.0186 -1.01129,2.2637 -3.16744,3.3715 -5.22204,9.0693 -5.22204,14.4817 0,5.6608 2.29716,9.6717 5.11697,8.9343 2.27699,-0.5955 2.53239,0.8571 0.30124,1.7133 -2.18493,0.8385 -2.03651,0.9077 -4.34563,-2.0279 z m -28.56341,-4.355 c -2.30845,-2.5508 -3.05202,-10.2804 -1.53198,-15.9254 1.18452,-4.399 6.49379,-10.947 7.80935,-9.6315 0.38324,0.3833 -0.12967,1.1593 -1.13979,1.7246 -2.86075,1.601 -5.60038,8.7306 -5.62479,14.6379 -0.0272,6.5901 1.26424,9.1843 4.57224,9.1843 1.42791,0 2.25547,0.4342 1.9058,1 -1.01449,1.6415 -4.06576,1.1373 -5.99083,-0.9899 z m 11.49083,-3.6003 c -2.21419,-0.9098 -2.58157,-1.2542 -1,-0.9376 1.375,0.2753 3.5125,0.5066 4.75,0.5142 1.2375,0.01 2.25,0.4636 2.25,1.0136 0,1.3271 -1.75324,1.1547 -6,-0.5902 z m 49.25218,-3.9098 c 0.0111,-2.2 0.21589,-2.9822 0.45508,-1.7383 0.23919,1.2439 0.23011,3.0439 -0.0202,4 -0.25029,0.9561 -0.446,-0.062 -0.4349,-2.2617 z m -54.58551,0.8333 c -0.36667,-0.3666 -0.66667,-2.1266 -0.66667,-3.9111 0,-2.3317 0.79377,-3.9123 2.82157,-5.6186 2.91812,-2.4554 3.00711,-4.0528 0.39296,-7.0536 -0.88191,-1.0123 -1.06156,-1.75 -0.42622,-1.75 0.60405,0 1.75945,0.944 2.56754,2.0977 l 1.46925,2.0976 1.22724,-2.2931 c 0.97127,-1.8148 0.96343,-4.5988 -0.0376,-13.3477 -0.86714,-7.5788 -0.95649,-12.1609 -0.28416,-14.5735 1.25876,-4.5171 0.56067,-17.4422 -1.18902,-22.0146 -0.9604,-2.5097 -1.1025,-4.8276 -0.49043,-8 0.47396,-2.4565 0.88135,-4.8039 0.9053,-5.2164 0.024,-0.4125 0.38105,-0.7454 0.79355,-0.7398 0.4125,0.01 0.84569,4.8431 0.96265,10.75 0.24395,12.3204 0.922,16.4302 2.34075,14.1876 1.52216,-2.406 1.17253,0.8489 -1.00626,9.3679 -1.80044,7.0396 -1.84082,8.1644 -0.51737,14.41 0.78953,3.7259 1.44332,9.3408 1.45287,12.4776 0.0152,4.9848 -0.30353,5.9297 -2.52953,7.5 -6.18771,4.3651 -6.56278,4.8394 -6.75697,8.545 -0.10788,2.0585 -0.23364,3.7448 -0.27947,3.7472 -0.0458,0 -0.38334,-0.2955 -0.75,-0.6622 z m 30.33333,-5.3333 c 0,-0.8737 2.09166,-1.4401 4.19617,-1.1364 1.43611,0.2073 6.80162,-12.6386 8.2495,-19.7506 0.82713,-4.0629 2.10912,-8.3379 2.84887,-9.5 0.99341,-1.5607 1.09507,-3.0279 0.38888,-5.613 -1.78627,-6.5389 -1.96721,-19.5505 -0.31627,-22.7431 1.37676,-2.6624 1.35521,-3.0501 -0.24579,-4.421 -0.9652,-0.8264 -2.39987,-1.572 -3.18814,-1.6569 -4.39661,-0.4734 -6.11643,-0.5199 -13.20466,-0.3573 -7.2363,0.166 -7.84978,0.3502 -8.90912,2.6752 -0.92949,2.0401 -0.78888,3.1447 0.76842,6.0364 1.86728,3.4673 12.68219,12.21 14.49391,11.7167 1.19497,-0.3253 1.12167,9.0324 -0.19777,25.25 -0.58172,7.15 -1.04717,13.7794 -1.03434,14.7319 0.0182,1.3507 -0.49431,1.1306 -2.3281,-1 -2.46192,-2.8603 -2.57203,-4.3486 -0.17452,-2.3588 1.1789,0.9784 1.50252,-1.2103 2.08605,-14.1075 0.37987,-8.3961 0.90874,-16.0235 1.17527,-16.9497 0.33732,-1.1723 -1.22472,-2.9469 -5.13959,-5.839 -3.09331,-2.2851 -5.88707,-3.8919 -6.20837,-3.5706 -0.32129,0.3213 0.0157,4.4404 0.74892,9.1536 1.188,7.6368 1.13952,9.5972 -0.44538,18.0121 -0.97815,5.1934 -2.1802,9.6908 -2.6712,9.9943 -1.3323,0.8234 -1.08413,-2.4277 0.69513,-9.1062 1.25417,-4.7076 1.44731,-8.5502 0.91903,-18.285 -0.58978,-10.8679 -0.96381,-12.7594 -3.16392,-16 -1.73749,-2.5592 -2.35922,-4.586 -2.04765,-6.6751 0.24608,-1.65 0.041,-4.0795 -0.45581,-5.3989 -0.80153,-2.1288 -0.72276,-2.2491 0.69966,-1.0686 1.16238,0.9647 4.53767,1.2574 12.28185,1.0651 5.87344,-0.1459 10.81783,-0.4039 10.98755,-0.5733 0.75666,-0.7555 -2.84203,-7.5259 -4.00755,-7.5396 -0.96214,-0.011 -0.92298,-0.2545 0.15033,-0.9335 1.07411,-0.6795 1.91886,-0.1494 3.25,2.0395 0.98925,1.6267 1.79864,3.584 1.79864,4.3494 0,0.7655 1.8,2.8175 4,4.5599 2.2,1.7424 4,3.6068 4,4.143 0,0.5363 -0.41373,0.7193 -0.91941,0.4068 -0.99344,-0.614 -2.51362,3.5897 -3.57812,9.8944 -0.91497,5.419 1.4063,15.8764 3.19467,14.3922 0.71657,-0.5947 1.30286,-1.6746 1.30286,-2.3998 0,-0.7252 0.45516,-1.5999 1.01146,-1.9437 1.21486,-0.7508 -2.35369,8.5736 -4.58378,11.9771 -1.67911,2.5627 -4.79542,14.4956 -3.99467,15.2964 0.8218,0.8218 -4.52703,10.6478 -6.78339,12.4614 -2.36204,1.8985 -5.64962,2.3478 -5.64962,0.7722 z m 54.5,-25.2493 c -10.45,-10.5861 -15.625,-16.1008 -11.5,-12.2548 20.16168,18.7979 32.58306,31.509 30.78518,31.5032 -0.15685,-5e-4 -8.83518,-8.6623 -19.28518,-19.2484 z m -70.89062,-13.2241 c -2.06764,-3.1556 -2.11631,-5.6954 -0.0527,-2.7491 2.0009,2.8567 2.85878,2.8008 4.26135,-0.2775 0.62649,-1.375 1.58354,-2.5 2.12679,-2.5 0.99433,0 -2.46392,6.5847 -3.93612,7.4946 -0.43447,0.2685 -1.51417,-0.6171 -2.39934,-1.968 z m 45.25054,-4.0266 c -0.96339,-1.5051 0.65161,-10.4255 2.13614,-11.7989 1.04487,-0.9666 1.14054,-0.8107 0.49012,0.7989 -0.44449,1.1 -1.07322,4.25 -1.39717,7 -0.32396,2.75 -0.87705,4.55 -1.22909,4 z m -27.35992,-14.2468 c -8.30626,-0.4213 -11.42788,-2.2532 -3.83957,-2.2532 6.98008,0 14.33957,1.0962 14.33957,2.1359 0,0.4753 -0.7875,0.776 -1.75,0.6682 -0.9625,-0.1077 -4.9,-0.3556 -8.75,-0.5509 z m -2.45996,-13.7807 c -0.0448,-2.2688 2.56388,-6.4725 4.01666,-6.4725 0.51882,0 0.9433,0.675 0.9433,1.5 0,0.825 -0.43563,1.5 -0.96806,1.5 -0.53244,0 -1.63942,1.2375 -2.45997,2.75 -1.27394,2.3482 -1.49774,2.4538 -1.53193,0.7225 z m 29.97527,-0.1635 c -0.008,-1.205 0.43469,-2.4691 0.98469,-2.809 1.27319,-0.7869 1.27319,1.5299 0,3.5 -0.78809,1.2195 -0.97224,1.0903 -0.98469,-0.691 z m -10.26531,-8.3242 c 1.7875,-1.6261 3.25,-3.413 3.25,-3.9707 0,-0.5578 0.45,-1.0141 1,-1.0141 1.16344,0 1.29936,2.0405 0.23469,3.5231 -0.93385,1.3004 -5.9119,4.4863 -6.94951,4.4476 -0.43185,-0.016 0.67732,-1.3598 2.46482,-2.9859 z m -8.24558,-1.5745 c -1.37743,-1.4863 -2.46889,-3.6491 -2.42547,-4.8063 0.0534,-1.4221 0.24966,-1.6179 0.60569,-0.604 0.28971,0.825 1.89719,2.6689 3.57218,4.0976 2.0034,1.7088 2.65307,2.8401 1.89872,3.3063 -0.64352,0.3977 -2.24567,-0.4771 -3.65112,-1.9936 z"
       id="path3909"
       inkscape:connector-curvature="0" />
  </g>
</svg>
