<?xml version="1.0" encoding="UTF-8" standalone="no"?>
<!-- Created with Inkscape (http://www.inkscape.org/) -->

<svg
   xmlns:dc="http://purl.org/dc/elements/1.1/"
   xmlns:cc="http://creativecommons.org/ns#"
   xmlns:rdf="http://www.w3.org/1999/02/22-rdf-syntax-ns#"
   xmlns:svg="http://www.w3.org/2000/svg"
   xmlns="http://www.w3.org/2000/svg"
   xmlns:sodipodi="http://sodipodi.sourceforge.net/DTD/sodipodi-0.dtd"
   xmlns:inkscape="http://www.inkscape.org/namespaces/inkscape"
   width="900.73254"
   height="672.10138"
   id="svg2"
   version="1.1"
   inkscape:version="0.48.3.1 r9886"
   sodipodi:docname="Pullover-on-stability-ball-with-weight-1.svg">
  <defs
     id="defs4" />
  <sodipodi:namedview
     id="base"
     pagecolor="#ffffff"
     bordercolor="#666666"
     borderopacity="1.0"
     inkscape:pageopacity="0.0"
     inkscape:pageshadow="2"
     inkscape:zoom="0.49497475"
     inkscape:cx="188.29998"
     inkscape:cy="85.175376"
     inkscape:document-units="px"
     inkscape:current-layer="layer1"
     showgrid="false"
     fit-margin-top="0"
     fit-margin-left="0"
     fit-margin-right="0"
     fit-margin-bottom="0"
     inkscape:window-width="1378"
     inkscape:window-height="738"
     inkscape:window-x="-206"
     inkscape:window-y="176"
     inkscape:window-maximized="0" />
  <metadata
     id="metadata7">
    <rdf:RDF>
      <cc:Work
         rdf:about="">
        <dc:format>image/svg+xml</dc:format>
        <dc:type
           rdf:resource="http://purl.org/dc/dcmitype/StillImage" />
        <dc:title></dc:title>
      </cc:Work>
    </rdf:RDF>
  </metadata>
  <g
     inkscape:label="Ebene 1"
     inkscape:groupmode="layer"
     id="layer1"
     transform="translate(-1274.42,11.560739)">
    <path
       style="fill:#000000"
       d="m 1382.5867,656.57121 c -4.526,-1.5316 -9.251,-3.6956 -10.5,-4.8088 -1.249,-1.1132 -4.1633,-2.5625 -6.4763,-3.2207 -5.3823,-1.5316 -7.0414,-3.2518 -8.4213,-8.7318 -0.8157,-3.2395 -2.1714,-5.2714 -5.0253,-7.5317 -5.067,-4.0131 -6.848,-7.6064 -6.848,-13.8158 0,-4.7235 0.2323,-5.1848 3.75,-7.4461 3.1212,-2.0063 5.5513,-2.5229 14.4924,-3.0805 8.7233,-0.5441 12.913,-1.4069 22.2913,-4.5906 6.3519,-2.1563 12.5429,-4.43 13.7576,-5.0528 1.2148,-0.6227 8.5087,-7.2855 16.2087,-14.8061 7.7,-7.5207 15.8,-15.2013 18,-17.0682 l 4,-3.3943 0.3094,-26.1519 c 0.305,-25.78451 0.2629,-26.41752 -2.9935,-45.06261 -3.2718,-18.73299 -3.3032,-19.2162 -3.3467,-51.41073 -0.024,-17.875 -0.4155,-33.85 -0.8697,-35.5 -0.4543,-1.65 -1.9446,-6.98079 -3.3118,-11.8462 -1.8265,-6.49951 -2.3108,-10.01443 -1.8256,-13.25 0.7128,-4.7528 0.4451,-4.96463 -4.2185,-3.3389 -6.1882,2.15725 -7.344,11.85289 -3.0318,25.4351 3.7347,11.76345 4.1,16.04805 2.273,26.65568 -2.0515,11.91059 -7.9149,35.32447 -10.4686,41.80324 -1.0805,2.74117 -2.5164,9.94692 -3.1909,16.01278 -1.4228,12.79547 -0.1216,31.6713 3.1729,46.02834 2.341,10.2019 2.4849,16.8361 0.5068,23.3563 -3.8803,12.7899 -7.8445,15.1437 -25.505,15.1437 -10.3996,0 -13.7603,-0.4001 -20,-2.3808 -10.2494,-3.2535 -13.9161,-3.0183 -24,1.5391 l -8.5,3.8417 -15.5,0.142 c -8.525,0.078 -17.9383,0.4642 -20.9183,0.8579 -7.7901,1.0291 -11.7692,-0.5055 -16.9342,-6.5313 -6.9394,-8.0957 -6.7006,-15.629 0.6119,-19.3046 1.5073,-0.7576 7.706,-2.5944 13.7748,-4.0817 7.6075,-1.8644 13.5079,-4.0712 19,-7.1061 4.3812,-2.421 13.3184,-7.1547 19.8605,-10.5193 13.7213,-7.05686 22.0795,-14.11828 23.4986,-19.85265 0.4905,-1.98236 1.4276,-10.19688 2.0824,-18.25449 1.0359,-12.74687 0.9601,-16.77434 -0.5832,-31 -1.9116,-17.62057 -2.4166,-51.09982 -1.031,-68.3498 0.551,-6.85957 0.3564,-14.56766 -0.6198,-24.54469 -2.2233,-22.72301 -0.3487,-31.21568 8.9036,-40.33725 5.1849,-5.11167 11.5528,-7.79223 25.1037,-10.5674 6.9895,-1.43142 11.7532,-3.22531 19.5,-7.34319 5.638,-2.99697 15.4958,-7.08186 21.9061,-9.07753 6.4104,-1.99566 14.5399,-4.92275 18.0656,-6.50463 9.232,-4.14212 15.96,-5.88446 27.0801,-7.01288 8.779,-0.89084 10.1619,-1.31154 13.2635,-4.03479 8.0136,-7.036 12.9262,-7.74402 36.4357,-5.25123 12.6354,1.33978 41.6508,1.13983 49.44,-0.34069 2.2964,-0.43649 7.4666,-0.20028 12.3939,0.56623 6.8389,1.06388 12.5005,1.08937 29.6347,0.13342 17.7931,-0.99272 21.9684,-0.95696 26.106,0.22356 5.4021,1.54129 16.3416,3.13148 17.9254,2.60568 0.55,-0.1826 7.4,-2.04255 15.2222,-4.13324 16.7049,-4.46483 18.3425,-5.23289 24.2778,-11.38659 2.475,-2.5661 7.087,-5.98345 10.249,-7.5941 4.3733,-2.22773 6.6085,-4.22304 9.3411,-8.3386 2.8437,-4.28282 4.9796,-6.13386 10.251,-8.88347 10.1063,-5.2716 19.8633,-7.0927 38.2497,-7.13919 17.7855,-0.045 16.1883,1.26383 12.8617,-10.53942 -2.7769,-9.85283 -3.6776,-19.3488 -2.9877,-31.5 0.6953,-12.2474 -0.3728,-25.7777 -2.5217,-31.94316 -1.8866,-5.41287 -1.7592,-8.97265 0.5569,-15.55684 1.1406,-3.24267 1.9481,-8.2166 1.9673,-12.11901 0.041,-8.24601 2.1811,-20.79585 6.2048,-36.380991 3.7966,-14.70532 5.5749,-18.7837 14.7667,-33.865925 7.9889,-13.108394 10.7827,-19.493984 8.7819,-20.071954 -15.4924,-4.47517 -26.4417,-9.7219 -27.8567,-13.34852 -1.4468,-3.708 -0.363,-14.29715 2.0131,-19.6686404 2.255,-5.09787003 4.0209,-5.82867003 18.6229,-7.70682 5.6569,-0.72761 9.7429,-1.79477 11,-2.87291 3.9224,-3.36408 6.9328,-4.20272 16.8998,-4.70802 11.369,-0.57638 23.2469,1.45468 29.9812,5.12662 2.1345,1.1639 4.8345,2.62374 6,3.24410997 1.1654,0.62037 4.3777,1.37437 7.1383,1.67557 l 5.0193,0.54762003 -0.3691,-3.87117 c -0.2966,-3.10991 0.1331,-4.37349 2.1852,-6.42557 3.2173,-3.2173396 7.1963,-3.3033296 23.329,-0.50414 6.4989,1.12764 14.5163,2.4683 17.8163,2.97925 11.8429,1.83366 23.619,5.99917997 26.3863,9.33353 0.6824,0.8222 2.0991,5.68505 3.1484,10.8063404 1.0492,5.12129 2.3068,9.44448 2.7947,9.6071 3.9768,1.32559 4.6712,3.04418 4.4528,11.02041 -0.1198,4.37527 -1.0198,10.35887 -2,13.29687 -2.0358,6.10183 -1.1563,5.74236 -19.2822,7.88125 -16.7797,1.98002 -22.2799,2.904844 -23.2913,3.916274 -1.6188,1.61881 -2.8913,18.978965 -2.4269,33.108725 0.3681,11.196851 1.0659,16.006861 4.0904,28.194031 5.0726,20.43991 6.2857,32.9013 4.268,43.84317 -0.8583,4.65454 -1.8433,11.8378 -2.1888,15.9628 -0.5929,7.078 -0.414,8.03453 3.1802,17 3.7973,9.47203 3.8095,9.54928 4.1725,26.23856 l 0.3641,16.73857 4.9539,-5.42038 c 8.101,-8.86381 15.0124,-10.30595 28.3091,-5.90702 7.7441,2.56197 28.0394,16.70633 37.0688,25.83425 9.729,9.83521 13.725,16.40508 16.6514,27.37649 2.1065,7.89741 2.1639,9.02129 1.0371,20.29157 -1.5035,15.03731 -5.0089,25.91675 -11.4567,35.55696 -7.6567,11.44769 -17.6429,18.31839 -29.7157,20.44497 l -6.0001,1.0569 6.1057,6.64457 c 16.2356,17.66832 25.8373,36.93484 28.9226,58.03505 1.7159,11.73484 0.7407,35.36542 -1.8648,45.18857 -11.921,44.94431 -54.9184,81.84218 -106.6795,91.54618 -14.0247,2.6293 -49.9806,2.6617 -62.874,0.057 -27.7227,-5.6011 -52.1805,-18.1511 -72.3196,-37.10917 -25.2696,-23.78774 -36.525,-49.07903 -36.525,-82.07277 0,-25.76492 7.0103,-47.06009 21.7593,-66.09842 4.4604,-5.75758 5.065,-6.99958 3.6522,-7.50345 -3.93,-1.40168 -32.656,-1.89312 -38.0166,-0.65038 -6.0042,1.39192 -9.9153,5.24106 -12.0726,11.88133 -0.6485,1.996 -1.9496,4.32257 -2.8914,5.17017 -0.9418,0.8476 -11.8373,5.73622 -24.2123,10.86359 l -22.5,9.3225 -24.0444,-0.32396 c -27.0693,-0.36472 -32.4509,0.27259 -45.806,5.42448 -5.5979,2.15948 -10.559,3.40607 -13.5,3.39218 -6.402,-0.0302 -12.5269,-3.02369 -15.3413,-7.4977 l -2.3083,-3.66972 -19,0.48567 c -24.7432,0.63247 -29.5,2.3214 -29.5,10.47406 0,1.59601 1.9953,10.78244 4.4341,20.41429 9.1551,36.15856 8.2678,59.53329 -3.2301,85.08426 l -3.704,8.2311 0.1132,14.00004 c 0.096,11.8152 0.8516,18.2914 4.8451,41.5 6.1491,35.7365 5.8628,45.7796 -1.4583,51.156 -2.4586,1.8055 -5.2986,2.2839 -28.7086,4.8356 -13.6648,1.4895 -22.7337,4.1102 -35.1324,10.1523 -11.2511,5.4829 -30.1555,10.8708 -38.0157,10.8348 -2.5538,-0.012 -8.3464,-1.2745 -12.8724,-2.8061 z m 31.2236,-7.4117 c 9.4728,-2.3195 15.5708,-4.5169 22.5,-8.1076 9.4482,-4.8962 9.6402,-4.9457 31.8546,-8.2243 23.8423,-3.5189 24.6861,-3.8224 27.5801,-9.9211 2.3333,-4.9171 2.0122,-8.9084 -3.075,-38.2305 -4.2216,-24.3327 -4.6553,-28.3295 -4.75,-43.7774 l -0.1042,-17.00004 4.8292,-10.87196 c 6.5144,-14.6658 7.9143,-21.77937 7.8965,-40.12804 -0.017,-17.77033 -0.9757,-23.88338 -6.3405,-40.43375 -3.4926,-10.7747 -3.9873,-13.41027 -3.7078,-19.75233 0.1774,-4.02521 -0.033,-7.31753 -0.4673,-7.31625 -0.4344,0.001 -2.6064,0.9291 -4.8267,2.06182 -7.6492,3.90233 -11.9548,-0.0731 -5.0897,-4.69944 7.141,-4.81233 15.0663,-5.76021 50.7063,-6.06454 l 33,-0.28178 2.2757,-5.50618 c 5.0473,-12.21194 4.9258,-18.94394 -0.8182,-45.31844 -3.2689,-15.00925 -5.9635,-20.82382 -13.4575,-29.03908 -8.5748,-9.40002 -8.8062,-9.46358 -21.7883,-5.98534 -27.3113,7.31739 -51.2933,17.54692 -61.7117,26.32317 -3.025,2.5482 -9.8941,7.3536 -15.2646,10.67867 -5.3706,3.32507 -11.0501,7.60508 -12.6213,9.51114 -3.2694,3.96643 -5.6606,10.69071 -7.2726,20.45179 -1.0815,6.54861 -1.0048,7.09614 2.2501,16.07503 l 3.3697,9.29551 -0.4806,17 c -1.0225,36.16049 -0.5256,49.8635 2.3854,65.78089 3.6356,19.87925 5.9118,63.62765 3.9973,76.82955 -0.5854,4.0375 -1.39,5.0312 -10.0304,12.3896 -5.1667,4.4 -12.1318,10.851 -15.478,14.3356 -13.4379,13.9937 -32.102,22.0539 -55.8428,24.116 -5.5558,0.4826 -10.7563,1.421 -11.5568,2.0854 -4.1006,3.4031 0.7489,13.0241 7.122,14.1295 2.7167,0.4712 3.3898,1.7475 3.4073,6.461 0.018,4.9775 1.0832,5.9792 7.9123,7.4438 3.2529,0.6976 6.5676,2.2757 8.6851,4.1349 7.4396,6.5321 13.4858,6.8014 34.9124,1.5547 z m -13.692,-3.0109 c -0.8689,-0.6875 -1.8617,-2.8656 -2.2064,-4.8401 -0.7879,-4.5131 -4.0003,-7.5749 -9.6701,-9.2164 -2.8752,-0.8325 -4.5394,-1.9245 -4.7718,-3.1312 -0.314,-1.6305 0.1397,-1.7862 3.7819,-1.2977 2.2763,0.3053 5.7031,1.7483 7.6152,3.2067 4.5894,3.5005 11.7571,13.2826 11.0613,15.0959 -0.6776,1.7657 -3.6898,1.8605 -5.8101,0.1828 z m -27.253,-9.67 c -0.6606,-1.0688 4.0978,-5.08 6.0263,-5.08 2.5212,0 2.6978,2.2852 0.318,4.1149 -2.5966,1.9965 -5.4396,2.429 -6.3443,0.9651 z m -5.5495,-12.1116 c 0,-2.1578 4.1209,-4.0701 8.1478,-3.7809 3.5548,0.2552 4.4077,0.7018 4.6554,2.4376 0.2834,1.9866 -0.124,2.1211 -6.25,2.0635 -3.6043,-0.034 -6.5532,-0.358 -6.5532,-0.7202 z m 101,-7.0312 c -1.2613,-0.8679 -1.0272,-1.3827 1.4711,-3.2347 1.6341,-1.2114 4.2815,-3.4653 5.883,-5.0086 2.8956,-2.7904 2.908,-2.8531 2.2267,-11.25 -0.7402,-9.122 0.1723,-10.7559 2.9774,-5.3314 4.5437,8.7867 1.9433,21.5265 -4.9848,24.4212 -4.1279,1.7248 -5.5436,1.8002 -7.5734,0.4035 z m -0.7919,-105.21571 c -5.2381,-5.57566 -7.5379,-19.19902 -7.6342,-45.22153 -0.072,-19.35799 -0.01,-20 1.9261,-20 1.9116,0 2.0258,0.86127 2.5838,19.5 0.6114,20.42086 0.6857,20.82563 6.5402,35.61739 2.0079,5.07324 3.3781,9.93473 3.0448,10.80334 -0.874,2.27757 -3.98,1.94144 -6.4607,-0.6992 z m -22.2081,-113.58683 c 0,-1.14989 2.002,-3.16343 5.22,-5.25 3.5189,-2.2817 6.2074,-5.08985 8.25,-8.61719 1.6665,-2.87786 3.5925,-5.24036 4.28,-5.25 2.6128,-0.0366 1.176,5.3936 -2.7859,10.52897 -6.4449,8.35385 -14.9641,13.24319 -14.9641,8.58822 z m 23.147,-0.45757 c -1.8923,-2.2801 8e-4,-5.08736 5.086,-7.54182 8.3342,-4.02263 22.5206,-5.43154 23.5385,-2.33771 0.3282,0.99758 -0.6943,1.15587 -4.4223,0.68459 -6.8606,-0.86728 -15.8354,2.36144 -19.8828,7.15296 -2.6641,3.15378 -3.1903,3.40253 -4.3194,2.04198 z m 4.055,-40.64575 c -3.8839,-2.81349 -6.8833,-6.68346 -5.9237,-7.64308 0.2423,-0.24222 3.8412,0.92132 7.9976,2.58565 4.1565,1.66433 8.6073,3.03294 9.8907,3.04136 3.2704,0.0215 5.2351,1.49541 4.5105,3.38377 -0.467,1.21679 -2.0255,1.60092 -6.4957,1.60092 -4.934,0 -6.5414,-0.47815 -9.9794,-2.96862 z m 22.541,0.37834 c -1.6806,-1.68061 -0.2747,-2.76853 9.507,-7.35709 19.6166,-9.20207 31.7449,-12.13431 32.5521,-7.8701 0.4274,2.2575 -2.8501,3.86843 -11.0489,5.43064 -3.7273,0.71019 -10.8676,3.13322 -15.8674,5.38451 -9.7084,4.37147 -13.9481,5.60675 -15.1428,4.41204 z m -195.3514,211.94062 c 2.938,-1.4011 4.9447,-1.5141 13.3125,-0.75 12.8527,1.1736 19.1305,0.3176 26.6541,-3.6343 8.342,-4.3817 15.7105,-4.9666 25.1432,-1.9957 9.7621,3.0745 21.5433,3.74 28.8107,1.6273 5.1157,-1.4872 6.0829,-2.2234 9.3136,-7.0891 4.5156,-6.8011 4.5956,-9.9292 0.741,-29.0085 -2.6114,-12.92596 -2.8298,-15.7646 -2.8475,-37.00004 l -0.019,-23 4.1312,-8 c 6.8016,-13.17106 9.5671,-23.18392 10.1256,-36.66063 0.4432,-10.69303 0.2495,-12.43561 -2.3341,-21 -1.5496,-5.13665 -2.9844,-12.48937 -3.1884,-16.33937 l -0.3708,-7 -6.0376,0.34416 c -11.0227,0.62832 -10.2641,-3.89848 0.9676,-5.77374 3.6886,-0.61585 10.643,-2.30425 15.4543,-3.75202 l 8.7478,-2.63229 4.0791,-7.59305 c 2.2435,-4.17619 5.282,-8.86109 6.7522,-10.41091 4.1052,-4.32752 39.3317,-26.38089 51.5681,-32.28395 5.9923,-2.89077 14.1657,-6.30045 18.1632,-7.57707 7.1669,-2.28881 7.2604,-2.36291 6.7106,-5.32113 -0.9656,-5.19564 -4.0675,-10.2011 -8.6473,-13.95389 l -4.4259,-3.62674 -15.3478,0.98079 c -19.4471,1.24274 -23.8367,2.21781 -37.3478,8.2961 -6.05,2.72174 -15.8456,6.26617 -21.768,7.87653 -7.1331,1.93956 -13.7156,4.58056 -19.5,7.82375 -6.1616,3.45468 -11.0546,5.36996 -16.6224,6.50654 -16.7067,3.41049 -26.4455,10.58692 -30.0897,22.173 -1.4766,4.69436 -1.6684,7.42279 -1.0767,15.31783 0.3959,5.28335 1.0207,13.6765 1.3883,18.65144 0.3677,4.97494 0.2777,20.4691 -0.2,34.43147 -0.7206,21.06503 -0.5919,27.86591 0.7563,39.95466 1.8754,16.81617 2.1546,49.40726 0.4906,57.2693 -0.6169,2.91457 -1.7572,6.54393 -2.534,8.06523 -1.5523,3.04012 -14.292,11.67183 -25.6644,17.38873 -3.949,1.9852 -10.6672,5.8431 -14.9292,8.5731 -9.491,6.0794 -15.7206,8.5149 -26.6744,10.4286 -12.5383,2.1906 -16.9365,5.3177 -14.1678,10.0734 0.9301,1.5977 1.0335,1.5532 1.061,-0.4568 0.042,-3.0835 3.544,-5.0809 10.3002,-5.8749 4.8056,-0.5648 5.7302,-0.4226 5.7302,0.8815 0,0.9421 -1.8722,2.2466 -4.75,3.3099 -5.8778,2.1715 -7.25,3.1858 -7.25,5.3586 0,1.7815 3.4257,5.4046 6,6.3456 2.8016,1.0242 5.923,0.7106 9.3916,-0.9434 z m 77.8499,-23.6003 c 0.2245,-0.6875 2.8336,-2.0377 5.798,-3.0004 7.5586,-2.4546 7.9956,-3.1005 6.7748,-10.0133 -1.1049,-6.25664 -0.6684,-8.73634 1.5378,-8.73634 0.9958,0 1.6678,1.99943 2.2687,6.75004 1.7375,13.7365 0.142,16.25 -10.3149,16.25 -4.7291,0 -6.3626,-0.3368 -6.0644,-1.25 z m 10.4831,-87.50187 c -2.4738,-2.73351 -3.6363,-6.66013 -4.6731,-15.78497 -1.0341,-9.10052 0.3374,-37.25211 1.8905,-38.80521 2.2148,-2.21481 3.1355,3.9034 2.9501,19.60459 -0.1787,15.1374 -0.013,16.77939 2.4453,24.23742 3.1811,9.65051 3.3675,12.5 0.8176,12.5 -1.0148,0 -2.5585,-0.78832 -3.4304,-1.75183 z m -17.7246,-91.06641 c 0,-1.07653 1.575,-4.24698 3.5,-7.04544 2.069,-3.00789 3.5,-6.30035 3.5,-8.0532 0,-3.34559 1.7768,-5.04478 3.0965,-2.96124 1.6732,2.64167 0.8251,7.41927 -2.3746,13.37812 -2.2649,4.2178 -3.8903,6.09492 -5.4719,6.31955 -1.6759,0.23801 -2.25,-0.17994 -2.25,-1.63779 z m 37,-14.87368 c -5.197,-0.87216 -8.7822,-2.44733 -11.0397,-4.85035 -4.0652,-4.32717 -1.1618,-4.91489 6.5205,-1.31991 6.3469,2.97008 7.1119,3.10913 10.922,1.98535 6.1212,-1.80538 6.9864,-1.78831 7.3858,0.1457 0.6547,3.17039 -6.4916,5.26381 -13.7886,4.03921 z m 16.984,-6.82733 c -1.0203,-1.22933 0.1788,-2.91872 7.145,-10.06707 4.604,-4.72441 10.4232,-10.10096 12.9316,-11.9479 4.8592,-3.57793 14.0016,-8.46578 15.8346,-8.46578 2.801,0 0.538,2.85155 -5.154,6.49412 -3.4327,2.19676 -10.5162,8.31064 -15.7412,13.58638 -10.9038,11.00963 -13.1939,12.59579 -15.016,10.40025 z m 450.516,207.50339 c 19.6459,-1.8113 36.187,-6.0827 52.1928,-13.4779 17.1804,-7.9378 37.6342,-24.17984 48.3002,-38.35426 28.6218,-38.03679 26.0609,-91.52757 -6.1137,-127.69968 -10.23,-11.5011 -14.8184,-15.07149 -21.8793,-17.02526 -5.3933,-1.49233 -7.5259,-2.77872 -12.5253,-7.5555 l -6.0253,-5.75695 -9.4747,4.70903 c -5.2111,2.58997 -13.9747,7.45236 -19.4747,10.80531 -27.2334,16.60217 -37.1056,18.88018 -81,18.69063 -21.7998,-0.0941 -25.0543,-0.33675 -35.5,-2.64648 -6.325,-1.39856 -15.0643,-3.30508 -19.4207,-4.23671 l -7.9207,-1.69386 -2.8743,3.37874 c -18.0948,21.27071 -26.7843,43.77896 -26.7843,69.37875 0,29.81591 12.3668,56.38552 35.783,76.87841 30.1211,26.36063 69.8498,38.55803 112.717,34.60573 z M 1571.1189,404.53876 c 4.6394,-3.30356 10.213,-4.10051 36.1969,-5.17577 13.475,-0.55762 28.185,-1.42892 32.689,-1.93624 15.4105,-1.7358 42.7896,-12.76282 47.5571,-19.15376 2.7497,-3.6861 4.8851,-13.39895 3.6564,-16.63083 -0.5317,-1.39852 -2.6865,-4.61295 -4.7884,-7.14317 -5.3093,-6.3912 -5.7576,-7.53874 -6.4854,-16.60042 -0.9254,-11.52192 -2.0189,-14.50819 -8.5,-23.21303 -5.4767,-7.35579 -28.9266,-32.86101 -31.8012,-34.58835 -0.7335,-0.44077 -9.3197,-0.46873 -19.0806,-0.0621 -15.6216,0.65071 -17.2749,0.87527 -13.8057,1.87514 5.699,1.64249 5.7665,3.48838 0.1276,3.48838 -2.9407,0 -7.7461,-1.26975 -13.3333,-3.52316 -9.522,-3.84034 -13.4537,-3.94813 -21.7355,-0.59591 -5.1662,2.09109 -16.0173,2.02018 -46.3121,-0.30264 -12.8217,-0.98308 -23.551,-1.54855 -23.843,-1.25659 -0.2919,0.29195 0.855,1.24742 2.5486,2.12326 5.8195,3.00936 10.4032,8.01125 13.7596,15.01487 1.8408,3.84106 3.3469,7.55894 3.3469,8.26196 0,2.53068 2.5844,1.20542 4.4672,-2.29076 1.0571,-1.96293 2.6802,-3.97476 3.6069,-4.47073 0.9268,-0.49596 8.6017,-1.58414 17.0554,-2.41818 25.0487,-2.47127 23.7027,-2.1695 29.4492,-6.60288 5.3263,-4.10918 11.4428,-6.52868 14.0122,-5.54273 2.6171,1.00429 1.4335,2.26552 -4.5485,4.8466 -4.4564,1.92286 -6.1156,3.20015 -6.5847,5.06924 -0.3449,1.37428 -1.6015,2.79143 -2.7924,3.14923 -1.1909,0.35781 -9.847,1.01588 -19.2358,1.46239 -12.9032,0.61364 -17.9727,1.23994 -20.7662,2.56553 -2.0326,0.96453 -3.9399,2.14898 -4.2385,2.6321 -0.7245,1.17225 -0.3771,1.12565 4.539,-0.60884 2.8631,-1.01016 4.7856,-1.18207 5.993,-0.53589 4.7862,2.56153 18.8662,14.63173 21.3184,18.27548 4.6992,6.98256 10.8066,30.32776 12.2297,46.74765 0.9397,10.84256 -3.6357,31.17209 -8.1346,36.14327 -2.0213,2.23349 -5.9322,2.44073 -6.732,0.35673 -0.3676,-0.95797 -1.9076,-1.5 -4.2619,-1.5 -3.5877,0 -3.6393,0.052 -1.927,1.94413 3.2301,3.56917 11.4777,3.66805 16.3537,0.19606 z m 11.3363,-13.47223 c -0.8185,-0.98622 -0.7421,-1.82999 0.2943,-3.25 1.24,-1.69909 3.1495,-1.98193 16.733,-2.47851 15.27,-0.55824 15.3841,-0.57992 27.6522,-5.25 7.9517,-3.02701 13.8897,-4.68945 16.75,-4.68945 4.3883,0 4.4311,-0.0334 4.4311,-3.46249 0,-1.90437 0.945,-5.98838 2.1001,-9.07559 2.2982,-6.14239 4.8335,-8.26851 13.174,-11.0478 3.3358,-1.11158 5.8851,-2.91997 8.4617,-6.00249 2.0283,-2.4264 4.0424,-4.41163 4.4759,-4.41163 0.4336,0 0.7883,1.26581 0.7883,2.81291 0,4.41366 -6.8281,9.89164 -16.37,13.13323 -5.0961,1.73124 -5.1356,1.77737 -5.9687,6.97629 -0.4613,2.87844 -0.6029,5.46929 -0.3148,5.75743 1.1595,1.15953 10.5796,-2.98212 17.4811,-7.68577 4.0302,-2.74675 7.9677,-4.99409 8.75,-4.99409 2.7716,0 1.3649,3.02907 -2.8117,6.05461 -4.8392,3.50552 -21.3024,11.94539 -23.3012,11.94539 -0.7325,0 -1.4743,1.2375 -1.6483,2.75 -0.3086,2.68212 -0.4548,2.7417 -5.9225,2.41382 -4.8126,-0.28859 -7.2897,0.34078 -17.5,4.44631 l -11.8939,4.78249 -14.5,0.12119 c -9.0331,0.0755 -15.3236,0.56703 -16.6843,1.30369 -2.7278,1.47677 -2.8296,1.47313 -4.1763,-0.14954 z m 41.018,-37.41796 c -0.5968,-1.5125 -2.0016,-6.42551 -3.1216,-10.9178 -2.7734,-11.12384 -4.8853,-15.70617 -10.9015,-23.65478 -2.8239,-3.73083 -5.1343,-6.9845 -5.1343,-7.23038 0,-0.24587 0.8476,-0.44704 1.8836,-0.44704 1.927,0 7.9831,6.01391 10.1689,10.09811 0.6697,1.25129 2.9566,7.2536 5.0822,13.33848 3.7034,10.60198 3.8414,10.82917 3.3097,5.44705 -0.3052,-3.089 -1.1845,-8.00281 -1.9539,-10.91957 -1.4967,-5.6739 -1.138,-7.74629 1.0296,-5.94733 2.5734,2.13571 5.3752,22.39713 4.0638,29.38751 -0.803,4.28032 -2.9121,4.6833 -4.4265,0.84575 z m -13.6813,-45.65909 c -2.9388,-6.19299 -4.7973,-7.05039 -21.7261,-10.02305 -3.7689,-0.66181 -5.0655,-2.84908 -2.3147,-3.90468 2.6965,-1.03473 15.0571,1.50989 19.3371,3.98083 4.7352,2.73376 9.7839,9.46379 8.8755,11.83122 -0.9403,2.45021 -2.4354,1.77488 -4.1718,-1.88432 z m 254.7592,60.13531 c 11.1878,-2.41614 12.6805,-3.05755 32,-13.75069 30.3018,-16.77178 34.6416,-19.95841 38.756,-28.45765 5.2957,-10.93939 6.2644,-22.99749 3.1413,-39.10306 -1.8819,-9.70495 -3.5731,-12.91763 -10.7465,-20.41482 -6.904,-7.21554 -7.5691,-10.16259 -8.2883,-36.7226 l -0.6288,-23.22259 -5.9774,-11.61318 c -5.1955,-10.09388 -5.7772,-11.76549 -4.4465,-12.77741 0.9795,-0.74491 1.9606,-4.40566 2.724,-10.16422 0.6562,-4.95 1.7069,-12.5796 2.3349,-16.95466 1.3681,-9.53113 0.3612,-18.15675 -4.2077,-36.04534 -2.6377,-10.32714 -3.1365,-14.36989 -3.5783,-29.000001 -0.2824,-9.35 -0.1016,-19.99857 0.4018,-23.663485 l 0.9152,-6.66348 -4.7084,1.85589 c -4.7422,1.8692 -5.9266,1.73479 -5.9266,-0.67253 0,-2.70259 4.9306,-4.298944 19.5693,-6.335874 8.2881,-1.15326 16.2278,-2.41717 17.6438,-2.80868 1.5226,-0.421 4.8015,-3.57187 8.0252,-7.71184 8.5572,-10.98935 8.3569,-10.15486 5.37,-22.37579 -1.4282,-5.84332 -2.8315,-11.8562404 -3.1185,-13.3620504 -0.3708,-1.94537 -1.703,-3.34045 -4.6027,-4.81976 -2.2445,-1.14506 -4.2351,-1.9278 -4.4234,-1.73942 -0.1884,0.18838 0.9883,4.38227 2.615,9.3197604 3.8906,11.8097 3.966,15.50339 0.4739,23.22726 -4.4226,9.7818 -7.7946,7.64614 -3.5526,-2.25 2.6898,-6.27514 2.4719,-9.49247 -1.3193,-19.47573 -3.1589,-8.3183404 -3.3065,-8.5083504 -7.9497,-10.2323304 -2.6021,-0.96613 -4.731,-1.48369003 -4.731,-1.15013 0,0.33356 1.6356,4.22906 3.6347,8.65668 3.4479,7.6361504 3.6046,8.4422104 3.0471,15.6714204 -0.6721,8.71612 -1.3479,11.03009 -3.2214,11.03009 -2.1595,0 -2.6193,-3.42387 -1.4,-10.42554 1.1043,-6.34131 1.0451,-6.77144 -1.6273,-11.82754 -1.5253,-2.88581 -3.7092,-7.9176404 -4.8532,-11.1818504 -2.209,-6.30328 -2.4922,-6.50578 -11.0027,-7.86766 -3.5724,-0.57167 -3.7437,-0.50231 -1.9179,0.7765 1.1026,0.77233 3.6734,4.69415997 5.7128,8.71516 l 3.708,7.3109304 -0.6908,9.7943 c -0.5797,8.22026 -0.9478,9.74366 -2.29,9.4792 -1.3224,-0.26053 -1.6017,-1.87009 -1.613,-9.2943 -0.025,-16.7021404 -5.3106,-23.9736304 -20.7351,-28.5273604 -5.5524,-1.63923 -8.3622,6.03786997 -3.0012,8.2003 10.3535,4.17627 11.75,6.3176 11.75,18.0173004 0,9.43358 -1.5801,11.53994 -11.5,15.33056 -3.6918,1.41072 -7.6879,3.60328 -8.8801,4.87235 -3.1682,3.37234 -4.3561,8.38208 -2.9778,12.55821 2.0268,6.141414 0.4125,28.359619 -3.638,50.06944 -5.0448,27.03949 -5.2619,31.15872 -2.4451,46.39201 1.5738,8.51097 2.7554,12.60799 3.6362,12.60799 1.7939,0 1.6204,2.41075 -0.7081,9.83909 -2.4033,7.66686 -2.5202,13.44914 -0.3898,19.28518 1.3688,3.74962 1.4761,6.87974 0.75,21.87573 -1.3737,28.37073 -0.9652,42.15144 1.5563,52.5 4.0933,16.80006 6.1344,22.00082 14.1209,35.98039 4.3865,7.6782 7.9755,14.7828 7.9755,15.78802 0,2.93795 -6.7011,12.57872 -10.2451,14.73955 -3.5939,2.19124 -7.2689,2.58744 -8.3141,0.89635 -0.3724,-0.60263 1.349,-3.19013 3.8254,-5.75 7.5529,-7.80743 7.5722,-8.00213 1.6616,-16.76122 -2.8261,-4.18809 -6.0079,-9.58044 -7.0706,-11.98301 -2.2121,-5.00072 -15.1605,-22.63029 -19.4698,-26.50868 -1.5881,-1.42923 -8.1273,-5.81767 -14.5316,-9.75209 -12.3077,-7.56114 -21.3284,-14.91227 -22.3853,-18.24219 -1.3388,-4.21812 5.5394,-8.29343 16.0316,-9.49872 l 6.9979,-0.80388 -4.5,-0.76706 c -8.094,-1.37968 -37,-2.24076 -37,-1.10219 0,0.57318 1.5429,1.3316 3.4286,1.68537 4.0807,0.76553 8.1671,3.80646 7.2056,5.3621 -0.4895,0.79211 -2.0269,0.68665 -5.4091,-0.37102 -15.742,-4.9229 -54.6356,-3.13922 -68.7822,3.15437 l -3.9429,1.75414 4,0.72426 c 12.699,2.29938 12.8975,2.2945 18.315,-0.45076 5.546,-2.81037 6.698,-2.01588 2.7711,1.91106 -3.2546,3.25458 -6.8799,4.00171 -12.7939,2.63661 -2.7196,-0.62777 -6.7105,-1.1414 -8.8685,-1.1414 -3.0599,0 -3.9297,-0.38527 -3.9508,-1.75 -0.02,-1.31886 -0.8273,-0.88772 -3.2754,1.75 -1.7866,1.925 -3.9119,4.41243 -4.723,5.52763 -0.811,1.11519 -2.6639,2.9421 -4.1176,4.05979 l -2.643,2.03216 5.9786,2.37472 c 5.3688,2.13248 6.4362,2.25234 10.4641,1.17506 2.4669,-0.65981 4.8808,-0.95523 5.3642,-0.6565 0.4833,0.29874 1.3245,-0.28961 1.8692,-1.30743 2.3036,-4.30423 13.11,-9.4193 13.11,-6.20543 0,0.55 -0.6561,1 -1.4579,1 -0.8019,0 -3.2769,1.73032 -5.5,3.84516 -6.0004,5.708 -5.6919,9.01188 1.4579,15.61303 3.025,2.7929 5.5,5.88972 5.5,6.88183 0,2.06542 -4.3797,9.90028 -6.5335,11.68775 -2.257,1.87315 -2.8022,-0.98021 -1.0078,-5.27474 1.842,-4.40853 1.4053,-5.73733 -4.1395,-12.5947 -2.8096,-3.47466 -4.3192,-6.32782 -4.3192,-8.16313 0,-2.70194 -0.1236,-2.77484 -2.9163,-1.7207 -2.2031,0.83159 -4.0983,0.77473 -7.75,-0.23252 -2.6585,-0.73331 -6.9446,-1.30069 -9.5245,-1.26084 -3.362,0.0519 -4.7784,-0.3439 -5,-1.39732 -0.2093,-0.99468 -2.5065,0.48356 -7.107,4.57321 -6.0704,5.39633 -6.5225,6.04297 -4.2253,6.04297 1.8659,0 2.8507,0.73148 3.585,2.66284 1.4439,3.79775 -0.5489,5.63885 -2.8659,2.64779 -2.9356,-3.78955 -6.088,-3.75182 -20.111,0.24073 -7.1968,2.04903 -13.085,4.05201 -13.085,4.45107 0,0.39906 1.8353,1.99746 4.0785,3.552 7.195,4.98614 12.345,11.87244 20.6321,27.58825 8.6863,16.47291 13.7985,30.60976 14.8774,41.14061 l 0.6663,6.50377 22.1229,0.48523 c 12.1675,0.26688 24.8228,0.98727 28.1228,1.60089 3.3,0.61361 10.5,1.85015 16,2.74785 10.1014,1.64876 16.283,2.74864 24.5,4.35924 2.475,0.48513 15.75,0.74666 29.5,0.58118 22.3099,-0.2685 26.2627,-0.57357 36.7353,-2.83523 z m -116.2353,-12.72435 c -2.8396,-1.19032 -5.6992,-1.68213 -7.75,-1.33283 -2.8153,0.47949 -3.25,0.2711 -3.25,-1.55775 0,-1.8189 0.5885,-2.10979 4.25,-2.10047 2.3375,0.006 6.4769,0.68634 9.1987,1.51198 5.8721,1.78124 9.4391,0.9372 15.1205,-3.57782 3.715,-2.95229 10.581,-4.12903 11.875,-2.03522 1.2507,2.02367 -0.7251,4.09024 -3.9105,4.09024 -2.2098,0 -4.6596,1.11872 -7.643,3.49029 -5.1877,4.12384 -10.5736,4.57889 -17.8907,1.51158 z m 35,-16.38441 c 0,-1.15919 2.6061,-3.12244 14.2672,-10.74798 0.5303,-0.34678 -0.6619,-2.14678 -2.6492,-4 -3.2452,-3.02614 -3.7156,-4.13371 -4.6164,-10.86948 -0.9028,-6.75085 -1.35,-7.79966 -4.4773,-10.5 -5.014,-4.32952 -8.5243,-9.48844 -8.5243,-12.52761 0,-4.47042 1.0212,-4.06033 5.8465,2.34775 5.158,6.84992 8.9931,9.16112 16.9035,10.1868 l 5.25,0.68074 0,-5.44197 c 0,-5.3927 -0.037,-5.45849 -4.0493,-7.26792 -2.2271,-1.00428 -5.4029,-3.36772 -7.0574,-5.2521 -2.4833,-2.82831 -2.8938,-3.97573 -2.3526,-6.57591 0.74,-3.5552 3.0734,-7.64978 4.3595,-7.64978 0.4698,0 0.6362,1.93322 0.3699,4.29604 -0.4031,3.57577 -0.05,4.81185 2.1045,7.37263 2.0969,2.49195 4.2331,3.48899 11.2418,5.24682 11.1239,2.78996 15.7309,4.71352 14.8198,6.18774 -0.4822,0.78021 -2.7207,0.9389 -7.0245,0.49797 -5.6213,-0.57592 -6.4321,-0.43169 -7.3642,1.31007 -2.43,4.54041 0.015,11.97329 5.7215,17.39228 2.9446,2.79632 2.9697,2.80049 9.7574,1.61847 14.3466,-2.49837 28.6049,0.56371 31.8506,6.84015 2.0855,4.03301 4.6518,5.98115 8.9231,6.7739 5.1417,0.95432 4.7668,3.83256 -0.5569,4.2742 -3.5042,0.29071 -4.2051,-0.1763 -11.1142,-7.40628 l -7.3741,-7.71655 -8.9265,0.57832 c -13.2065,0.85561 -22.7994,4.40353 -37.4428,13.8481 -11.9502,7.70759 -17.8856,9.86583 -17.8856,6.5036 z m 25.8666,-17.75079 c 2.8234,-1.17332 5.1334,-2.47157 5.1334,-2.88499 0,-0.41341 -1.0741,-1.45543 -2.3869,-2.3156 -1.3128,-0.86017 -3.3745,-3.16193 -4.5816,-5.11501 -1.9822,-3.20727 -2.6255,-3.55107 -6.6445,-3.55107 -4.8747,0 -5.787,1.03373 -5.787,6.55714 0,4.09843 3.8683,9.44286 6.8347,9.44286 1.2642,0 4.6086,-0.96 7.4319,-2.13333 z m -52.3666,10.6207 c -4.3604,-2.24906 -6.5,-5.24387 -6.5,-9.09815 0,-4.54839 1.7951,-4.24802 5.5097,0.92188 1.6553,2.3039 4.4572,4.8639 6.2263,5.6889 1.7692,0.825 3.0801,1.95 2.9132,2.5 -0.5,1.64749 -4.944,1.6406 -8.1492,-0.0126 z m 11.4296,-15.56038 c -6.0126,-6.24085 -7.3698,-8.84935 -6.7625,-12.99695 0.6067,-4.14368 2.509,-3.07398 5.0814,2.85737 2.9573,6.81903 7.2882,10.8803 12.5309,11.75071 5.5067,0.91425 6.4296,1.33321 5.9751,2.71241 -0.2408,0.73077 -2.5824,1.37578 -5.6406,1.55372 l -5.2288,0.30425 -5.9555,-6.18151 z m -71.5958,-0.49953 c -0.9079,-2.36583 0.6963,-4.54894 5.2621,-7.16101 3.9909,-2.28324 9.4041,-3.03367 9.4041,-1.30371 0,0.52951 -2.5875,2.70114 -5.75,4.82585 -8.2898,5.56947 -8.1909,5.52909 -8.9162,3.63887 z m 158.8166,-5.6491 c -5.3834,-7.91763 -9.7893,-12.39585 -17.9033,-18.19719 -5.1075,-3.65178 -6.7945,-6.5002 -6.072,-10.25208 0.5522,-2.86735 3.2829,-2.19308 3.6391,0.89858 0.3614,3.1368 3.107,5.32157 14.1037,11.22278 8.5981,4.61407 11.7436,8.89616 12.7449,17.35015 0.8865,7.48517 -0.9208,7.20148 -6.5124,-1.02224 z m -137.9549,-4.52836 c 0.2935,-1.50141 1.2917,-1.70033 7.0272,-1.4003 5.8232,0.30461 7.5748,-0.0604 13.5848,-2.83055 7.22,-3.32789 12.6925,-3.76731 12.6925,-1.01915 0,1.03227 -0.8236,1.40418 -2.6411,1.1927 -1.9975,-0.2324 -3.1717,0.43778 -4.8181,2.75 l -2.177,3.0573 -12.0052,0 c -10.8973,0 -11.9737,-0.16151 -11.6631,-1.75 z m -3.7494,-3.33713 c -0.3695,-0.59793 -0.1711,-1.58793 0.441,-2.2 1.9443,-1.94429 1.2166,-4.80358 -2.5168,-9.88952 -2.403,-3.27351 -3.7945,-6.40741 -4.1175,-9.27294 -0.4792,-4.25152 -0.4071,-4.37567 4.0628,-6.99522 4.4846,-2.62814 17.1665,-5.40914 18.5109,-4.05924 1.304,1.30931 -3.9669,4.40207 -8.6196,5.05764 -10.0403,1.41468 -12.0287,6.29679 -5.7069,14.01171 3.8566,4.70651 4.2615,7.06148 1.9743,11.48436 -1.5979,3.09006 -2.8982,3.6915 -4.0282,1.86321 z m 41.2205,-4.57954 c -1.5252,-1.52521 -0.4723,-3.2171 2.3938,-3.84659 2.1694,-0.47649 3.536,-1.66954 4.6941,-4.09809 1.6886,-3.54104 3.4991,-3.9935 4.076,-1.01862 0.1865,0.96204 -1.3955,3.4302 -3.6324,5.66714 -3.77,3.77004 -6.0568,4.77084 -7.5315,3.29616 z m 13.3334,-13.28665 c 0,-4.33029 0.3847,-4.73185 9.9185,-10.3523 8.2155,-4.84332 9.5649,-7.23476 9.667,-17.13227 0.071,-6.88862 0.463,-8.82156 2.3164,-11.42441 2.5971,-3.64728 6.2166,-4.86034 9.7282,-3.26036 3.1778,1.44791 2.3807,2.69694 -2.1951,3.43949 -6.149,0.99784 -6.435,1.64907 -6.435,14.65063 0,13.52527 -0.1829,13.8623 -8.9163,16.43065 -6.259,1.84069 -8.7055,3.76082 -10.6153,8.33159 -1.8538,4.43691 -3.4684,4.11896 -3.4684,-0.68302 z m -4.6888,-6.678 c -0.3454,-0.90016 0.4338,-3.57125 1.7384,-5.95961 1.3005,-2.38056 2.1588,-4.48389 1.9074,-4.67405 -6.0457,-4.57343 -12.0147,-10.45994 -12.9871,-12.80767 -2.0691,-4.99527 -0.21,-7.28449 10.1358,-12.48044 9.8068,-4.9253 17.0063,-6.11557 21.6723,-3.58301 3.569,1.93718 1.9248,2.78993 -6.7788,3.51578 -8.3715,0.69816 -17.9357,3.63389 -20.0198,6.1451 -2.0093,2.42102 -0.1525,6.61292 5.6008,12.64466 6.0515,6.34438 7.0249,10.25728 3.3932,13.64066 -1.2349,1.15055 -1.779,2.53287 -1.393,3.53895 0.43,1.1206 0.1072,1.65095 -1.0048,1.65095 -0.9011,0 -1.9201,-0.73409 -2.2644,-1.63132 z m 139.1887,-4.53954 c 0.5461,-3.65876 0.2518,-4.87113 -1.9005,-7.82914 -9.7742,-13.43294 -10.0314,-13.95395 -10.4376,-21.14267 -0.5081,-8.99161 0.7819,-11.94563 6.411,-14.68046 8.9427,-4.3447 8.4038,-10.92228 -2.3594,-28.7959 -6.6296,-11.00919 -7.4322,-12.85675 -6.6059,-15.20638 1.2067,-3.43115 3.8595,-3.52624 3.9904,-0.14303 0.1117,2.88945 0.8023,4.31043 7.6604,15.76177 6.5513,10.93912 8.7417,16.95937 8.7417,24.02627 0,7.40322 -1.3621,9.24146 -7.3475,9.91609 -5.6634,0.63835 -7.0976,2.62343 -6.3955,8.85197 0.4623,4.10157 1.3108,5.78059 9.3052,18.41234 2.8545,4.51038 3.432,6.30969 3.2093,10 -0.2324,3.85123 -0.6065,4.54745 -2.5947,4.82914 -2.2044,0.31231 -2.2901,0.10788 -1.6769,-4 z m -83.1186,1.72224 c -0.3057,-0.79674 -2.702,-2.16144 -5.325,-3.03266 -8.0227,-2.66471 -11.5638,-8.56062 -9.0203,-15.01872 l 1.1815,-3 1.3629,4.54907 c 1.6243,5.42148 4.2884,8.01697 10.6228,10.34905 4.5277,1.66696 6.6872,4.35208 5.3023,6.59293 -0.9243,1.49562 -3.4864,1.22248 -4.1242,-0.43967 z m 56.9875,-84.03255 c -0.3477,-0.90611 -0.2763,-3.98103 0.1586,-6.83315 1.0028,-6.57546 1.0084,-12.55072 0.014,-15.43568 -1.2362,-3.5885 2.1051,-2.83343 4.0427,0.91357 1.6516,3.19372 1.5868,6.851 -0.3142,17.75503 -0.8014,4.59683 -2.8084,6.44882 -3.9015,3.60023 z m 13.6312,-22.34052 c 0,-1.78863 1.9723,-5.65535 5.3872,-10.56143 5.1624,-7.41672 6.4813,-10.69205 8.2933,-20.59567 0.9793,-5.3522 2.6843,-5.90289 3.1618,-1.02121 0.7904,8.07996 -5.455,24.86642 -11.8125,31.75 -3.687,3.99208 -5.0298,4.10643 -5.0298,0.42831 z m -9.0845,-16.84703 c -0.6371,-1.64492 -0.918,-6.60244 -0.6703,-11.83128 0.3489,-7.36465 1.0837,-10.65528 4.0441,-18.10966 3.1649,-7.96911 5.0171,-14.3313 7.1735,-24.640341 0.3415,-1.6323 1.234,-2.75 2.1961,-2.75 2.4175,0 1.2671,8.054481 -3.1423,22.000001 -4.9282,15.58641 -6.6988,24.37485 -6.328,31.40989 0.3486,6.61697 -1.4118,8.7262 -3.2731,3.92139 z m -178.6034,206.29374 c -1.5141,-7.39187 -3.4582,-13.19362 -10.0943,-30.12502 -8.5625,-21.84653 -13.4945,-30.16075 -22.1787,-37.38775 -7.7104,-6.41666 -10.9735,-8.11225 -15.612,-8.11225 l -3.6723,0 6.4469,7.25 c 13.2431,14.89292 24.0556,30.27404 25.7735,36.66353 0.5304,1.97256 1.1776,6.9104 1.4382,10.97298 0.3897,6.07396 0.9094,7.85091 2.9242,10 3.3206,3.54175 8.6624,12.45749 8.6624,14.45791 0,1.49478 0.2669,1.49592 3.3737,0.0144 2.5913,-1.23571 3.2727,-2.10162 2.9384,-3.73382 z m 274.6479,-6.51784 c 7.1249,-2.70726 12.2698,-7.17191 17.8103,-15.45572 6.9183,-10.34377 11.3715,-24.14136 11.9927,-37.1578 0.8504,-17.82062 -3.2061,-27.71882 -16.2224,-39.58408 -18.522,-16.88408 -32.6729,-24.94613 -44.9714,-25.62117 l -7.0692,-0.38802 -6.8317,8.03993 c -8.3665,9.84634 -8.3238,10.84932 0.9007,21.13665 3.537,3.94459 6.431,7.65597 6.431,8.24751 0,0.75982 0.3193,0.7562 1.0878,-0.0123 0.6855,-0.68545 1.1478,-7.41751 1.25,-18.19989 0.089,-9.41164 0.4299,-17.11211 0.7572,-17.11217 0.3272,-6e-5 1.4522,0.9463 2.5,2.10303 1.6909,1.86677 1.905,3.74933 1.905,16.75 0,8.05577 -0.399,20.05182 -0.8866,26.65787 l -0.8865,12.01102 2.7082,3.21851 c 2.8279,3.36071 2.7016,5.25946 -0.3498,5.25946 -1.511,0 -1.8877,1.15278 -2.3695,7.25 -0.7214,9.12855 -3.8125,19.1156 -7.686,24.83216 -1.6464,2.42981 -3.0016,4.98665 -3.0116,5.68186 -0.03,2.1199 4.291,7.98741 7.1087,9.65192 7.8834,4.6568 26.9011,6.08512 35.8331,2.69124 z m -112.5786,-86.35718 c -0.7378,-4.5375 -1.3566,-10.05 -1.3751,-12.25 -0.05,-5.91212 -0.9333,-8.24045 -3.347,-8.81982 -1.1876,-0.28507 -6.2093,-1.97212 -11.1593,-3.74901 -8.6324,-3.09873 -9.2985,-3.18825 -16.3061,-2.19151 -4.0184,0.57155 -7.5599,1.29299 -7.8701,1.60319 -0.3102,0.31021 -0.2482,1.82234 0.1378,3.36031 1.2234,4.87433 8.6582,10.76288 21.903,17.34773 6.9819,3.47118 13.9414,7.70136 15.7642,9.58199 1.7949,1.85192 3.3379,3.36712 3.4288,3.36712 0.091,0 -0.4384,-3.7125 -1.1762,-8.25 z m -2.9897,-25.75831 c -1.5268,-1.52673 -11.6119,-4.86399 -16.5342,-5.47129 -4.0971,-0.50548 -3.9989,-0.42309 1.6425,1.37828 3.3,1.05374 7.8,2.60091 10,3.43814 4.8128,1.8316 6.2625,2.02567 4.8917,0.65487 z m 0.4785,-39.99169 c -1.4729,-10.0956 -1.3324,-21.06825 0.3835,-29.95237 1.1121,-5.75772 0.9964,-7.91085 -1.0747,-20 -2.1586,-12.5997 -2.2464,-14.59718 -1.2545,-28.54763 0.7317,-10.2904 2.0274,-18.92467 4.1268,-27.500001 3.6421,-14.87664 4.915,-31.476895 2.9514,-38.490169 -0.7024,-2.50874 -1.5528,-4.72896 -1.8899,-4.93382 -0.3371,-0.20486 -3.6309,-0.69361 -7.3198,-1.08612 l -6.7069,-0.71366 -5.8629,5.5923 c -5.5348,5.279304 -5.9598,6.027144 -7.5921,13.361884 -0.951,4.273265 -2.3633,16.544585 -3.1385,27.269585 -2.3796,32.922971 -3.1801,39.505111 -5.4207,44.570201 -3.6914,8.34515 -3.6494,11.06404 0.3516,22.77355 1.9981,5.84779 5.2311,14.09233 7.1845,18.32121 4.0921,8.85912 5.3457,17.48948 5.3742,36.99714 l 0.018,12.1621 3.75,0.66427 c 2.0625,0.36534 6.45,1.68862 9.75,2.94062 l 6,2.27637 0.8052,-13.60273 c 0.5634,-9.51826 0.4328,-16.15501 -0.4349,-22.10273 z m -53.9278,22.08013 c -3.0727,-8.1051 -5.0486,-30.78207 -2.9688,-34.07177 1.7899,-2.83108 3.0226,0.45641 3.994,10.65193 0.5473,5.74436 2.1518,13.77673 3.745,18.74809 l 2.7874,8.69783 8,0.463 c 4.4,0.25465 8.7442,0.69735 9.6539,0.98378 1.4281,0.44968 1.752,-0.78784 2.3725,-9.06384 0.3952,-5.27154 0.4151,-11.92564 0.044,-14.78689 -0.818,-6.30915 -10.4358,-35.70226 -11.6823,-35.70226 -0.4885,0 -0.8882,0.45 -0.8882,1 0,0.55 -0.5625,0.99108 -1.25,0.98018 -1.5104,-0.024 -14.75,-19.17569 -14.75,-21.33653 0,-3.06893 2.2682,-2.78761 5.8684,0.72783 l 3.6878,3.60108 3.6684,-7.23628 c 5.2861,-10.42713 6.3784,-15.69627 8.2379,-39.73628 3.3604,-43.445546 3.9074,-45.984626 11.5222,-53.48493 l 4.9555,-4.88101 -14.1133,-2.8405 c -7.7623,-1.56228 -14.2317,-2.71744 -14.3764,-2.56703 -0.1448,0.15041 -4.7792,9.09021 -10.2987,19.866224 -13.6988,26.744505 -19.0973,43.562706 -20.0387,62.427486 -0.5757,11.53745 -0.922,13.4026 -3.0405,16.37776 -3.246,4.55853 -3.8824,11.68699 -1.445,16.1864 1.6059,2.96471 1.9177,6.5838 2.3613,27.4156 0.5091,23.90903 0.5239,24.0398 3.8986,34.5 l 3.3875,10.5 9.2019,-1.41987 9.2018,-1.41988 -1.7363,-4.58012 z m -21.9424,-62.51503 c 0,-0.7892 0.5163,-2.7017 1.1474,-4.25 0.6311,-1.54831 1.4186,-4.57847 1.75,-6.7337 0.6683,-4.3461 2.5848,-5.78804 3.5695,-2.68561 1.1883,3.74409 -2.9408,15.10421 -5.49,15.10421 -0.5373,0 -0.9769,-0.64571 -0.9769,-1.4349 z m 42.4599,-97.629986 c -1.2703,-2.05532 0.6339,-7.824084 3.6476,-11.050174 2.3812,-2.54914 3.2295,-2.95764 3.8975,-1.87685 0.5503,0.89052 0.1366,2.3886 -1.1642,4.21539 -1.1098,1.55866 -2.4492,4.39601 -2.9764,6.305224 -0.9665,3.50048 -2.1927,4.36719 -3.4045,2.40641 z m -5.8054,100.064886 c -0.9715,-3.63945 -2.6545,-5.51009 -2.6545,-2.95034 0,1.13325 2.8345,6.95034 3.3867,6.95034 0.1845,0 -0.145,-1.8 -0.7322,-4 z m 127.569,-113.40464 c 0.9276,-1.40449 3.0315,-11.40831 2.6021,-12.37308 -0.1791,-0.40245 -2.6522,2.72377 -5.4958,6.94717 l -5.1702,7.6789 3.6702,-0.57881 c 2.0186,-0.31834 3.9957,-1.07172 4.3937,-1.67418 z m -83.6786,-4.84536 c 1.1697,-3.87181 5.7127,-7.9099 12.3129,-10.94452 3.4968,-1.60774 6.1479,-3.13305 5.8914,-3.38957 -0.9634,-0.96346 -26.842,-4.2936 -42.2492,-5.43678 -8.8,-0.65294 -23.425,-1.02785 -32.5,-0.83314 -14.1574,0.30375 -16.5,0.14104 -16.5,-1.14599 0,-4.80362 58.7871,-3.10228 88.4583,2.56004 5.1711,0.98684 7.7778,1.10387 8.5,0.38164 0.5729,-0.57292 1.0417,-3.48395 1.0417,-6.46895 0,-8.1430104 -2.4597,-10.1652404 -14.5696,-11.9783004 -35.4527,-5.30792003 -68.3375,-5.86529003 -85.0618,-1.44171 -4.6155,1.22078 -6.3578,5.03923 -6.3641,13.9472804 l 0,6.5 4.5,2.19341 c 11.563,5.63607 35.158,11.85489 61.8498,16.30145 14.0919,2.34756 13.9111,2.35057 14.6952,-0.24486 z m -16.5449,-45.3010304 c 0,-0.53784 -6.3532,-3.44897 -7.5269,-3.44897 -1.7074,0 1.0618,2.09455 3.8261,2.89398 1.7604,0.5091 3.3133,0.96623 3.4508,1.01583 0.1375,0.0496 0.25,-0.15777 0.25,-0.46084 z m -13,-1.86437 c -1.375,-0.73443 -3.625,-1.64462 -5,-2.02265 l -2.5,-0.68732 2.5,2.04045 c 1.375,1.12225 3.625,2.03244 5,2.02265 l 2.5,-0.0178 -2.5,-1.33532 z m -14.7617,-0.29186 c -1.2439,-0.23919 -3.0439,-0.23011 -4,0.0202 -0.9561,0.25029 0.062,0.446 2.2617,0.4349 2.2,-0.0111 2.9822,-0.21589 1.7383,-0.45508 z"
       id="path3465"
       inkscape:connector-curvature="0" />
  </g>
</svg>
