<?xml version="1.0" encoding="UTF-8" standalone="no"?>
<!-- Created with Inkscape (http://www.inkscape.org/) -->

<svg
   xmlns:dc="http://purl.org/dc/elements/1.1/"
   xmlns:cc="http://creativecommons.org/ns#"
   xmlns:rdf="http://www.w3.org/1999/02/22-rdf-syntax-ns#"
   xmlns:svg="http://www.w3.org/2000/svg"
   xmlns="http://www.w3.org/2000/svg"
   xmlns:sodipodi="http://sodipodi.sourceforge.net/DTD/sodipodi-0.dtd"
   xmlns:inkscape="http://www.inkscape.org/namespaces/inkscape"
   width="900.73254"
   height="672.10138"
   id="svg2"
   version="1.1"
   inkscape:version="0.48.3.1 r9886"
   sodipodi:docname="Pullover-on-stability-ball-with-weight-1.svg">
  <defs
     id="defs4" />
  <sodipodi:namedview
     id="base"
     pagecolor="#ffffff"
     bordercolor="#666666"
     borderopacity="1.0"
     inkscape:pageopacity="0.0"
     inkscape:pageshadow="2"
     inkscape:zoom="0.49497475"
     inkscape:cx="188.29998"
     inkscape:cy="85.175376"
     inkscape:document-units="px"
     inkscape:current-layer="layer1"
     showgrid="false"
     fit-margin-top="0"
     fit-margin-left="0"
     fit-margin-right="0"
     fit-margin-bottom="0"
     inkscape:window-width="1378"
     inkscape:window-height="738"
     inkscape:window-x="-206"
     inkscape:window-y="176"
     inkscape:window-maximized="0" />
  <metadata
     id="metadata7">
    <rdf:RDF>
      <cc:Work
         rdf:about="">
        <dc:format>image/svg+xml</dc:format>
        <dc:type
           rdf:resource="http://purl.org/dc/dcmitype/StillImage" />
        <dc:title></dc:title>
      </cc:Work>
    </rdf:RDF>
  </metadata>
  <g
     inkscape:label="Ebene 1"
     inkscape:groupmode="layer"
     id="layer1"
     transform="translate(-1274.42,11.560739)">
    <path
       style="fill:#000000"
       d="m 1383.4235,657.7344 c -4.526,-1.53162 -9.251,-3.69558 -10.5,-4.80881 -1.249,-1.11324 -4.1633,-2.56256 -6.4762,-3.22071 -5.3862,-1.53267 -7.0721,-3.28232 -8.5742,-8.89817 -0.8731,-3.26447 -2.3057,-5.42452 -5.072,-7.64725 -5.0142,-4.02898 -6.6485,-7.35586 -6.6485,-13.53387 0,-4.72428 0.2318,-5.1842 3.75,-7.44198 3.116,-1.99963 5.5253,-2.51195 14.25,-3.03013 8.5392,-0.50717 12.9277,-1.41432 23.5,-4.85769 l 13,-4.23405 14.5,-14.0104 c 7.975,-7.70572 16.525,-15.79297 19,-17.97167 l 4.5,-3.96127 0.3097,-26.16829 c 0.3057,-25.82229 0.2665,-26.41106 -2.9642,-44.52833 -3.2438,-18.19103 -3.275,-18.66842 -3.3908,-51.86004 l -0.1169,-33.5 -3.2731,-10.93574 c -2.6351,-8.80404 -3.1453,-11.89888 -2.6176,-15.87665 0.5736,-4.32414 0.4502,-4.86216 -0.9888,-4.31 -0.9042,0.34701 -2.729,0.90322 -4.0551,1.23603 -1.8986,0.47654 -2.7629,1.80363 -4.0675,6.24574 -1.6039,5.46091 -1.5839,5.91142 0.626,14.14062 5.1247,19.08324 5.2992,20.60176 3.5599,30.99151 -1.9831,11.84641 -7.7489,34.97416 -10.3888,41.67155 -4.943,12.54048 -5.1507,37.78393 -0.4964,60.33694 3.1886,15.45096 2.8892,22.64859 -1.2793,30.75929 -4.0574,7.89463 -7.7093,9.60325 -21.5567,10.08571 -9.2462,0.32216 -11.935,0.0184 -19.7946,-2.2361 -12.5161,-3.59022 -16.4976,-3.41861 -26.3799,1.13702 l -8.1259,3.74593 -15.5,0.14993 c -8.525,0.0825 -17.9382,0.47034 -20.9183,0.86194 -7.8047,1.0256 -11.7698,-0.51008 -16.9647,-6.57047 -5.8827,-6.86282 -6.6757,-12.21175 -2.4809,-16.73461 2.4026,-2.59055 4.7966,-3.57909 14.8639,-6.13778 7.3987,-1.88046 15.0675,-4.63765 20,-7.19067 4.4,-2.27742 13.382,-6.89239 19.96,-10.25548 14.0245,-7.17018 22.9895,-14.68229 24.4178,-20.46066 0.4968,-2.00973 1.4528,-10.204 2.1244,-18.20949 1.0752,-12.81525 1.0053,-16.4617 -0.5847,-30.5 -1.9643,-17.34282 -2.4987,-52.92478 -1.007,-67.0555 0.563,-5.33339 0.4284,-12.69595 -0.3932,-21.5 -1.9035,-20.39734 -1.5728,-27.90126 1.5349,-34.82595 5.0946,-11.35237 14.7772,-17.61444 31.7593,-20.53981 6.2209,-1.07163 11.0719,-2.84788 20.1885,-7.39235 6.6,-3.28998 18.075,-8.00492 25.5,-10.47764 7.425,-2.47272 17.3951,-5.88183 22.1557,-7.57579 5.6344,-2.00484 12.2468,-3.44843 18.9433,-4.13562 8.9967,-0.92324 10.6083,-1.38089 12.8443,-3.64742 1.4062,-1.42545 4.9833,-3.71216 7.9491,-5.08158 5.7929,-2.67483 8.4189,-2.69665 29.6076,-0.246 13.4542,1.55609 41.5742,1.27102 46.5131,-0.47153 3.8013,-1.34117 5.2931,-1.33913 13.7317,0.0188 7.7938,1.25415 12.2322,1.34331 25.1112,0.50443 8.6042,-0.56044 17.4902,-1.26151 19.7466,-1.55794 2.2564,-0.29643 7.4314,0.13461 11.5,0.95786 12.7303,2.57591 18.0325,2.29398 32.6721,-1.7373 16.1795,-4.4553 18.1336,-5.41616 25.7253,-12.64978 3.3,-3.14434 8.066,-6.63082 10.5912,-7.74771 3.4843,-1.54115 5.5335,-3.44745 8.5,-7.90722 3.3465,-5.03107 4.9878,-6.41675 11.4088,-9.63182 9.9802,-4.99719 18.855,-6.65488 38.2999,-7.15387 10.0215,-0.25718 18.461,-1.0026 22.1283,-1.95449 8.3021,-2.15494 27.517,-3.90022 34.347,-3.11973 8.2495,0.94272 20.7953,3.96255 28.4815,6.85563 l 6.6505,2.50323 9.1649,-8.28196 c 6.6865,-6.0423 11.7133,-9.55587 18.5884,-12.9927 10.1682,-5.08302 26.3306,-11.6008 28.7668,-11.6008 2.5333,0 10.5451,-2.9939 22.0727,-8.24825 9.3956,-4.28256 11.9564,-5.03122 17.5568,-5.13281 6.3199,-0.11464 6.7252,0.0291 11.2173,3.97838 2.5633,2.25353 9.2878,6.39038 14.9432,9.19301 19.0219,9.42651 34.3673,21.16553 41.8437,32.0099 l 3.3154,4.80882 13.8957,1.74928 c 19.2685,2.42565 31.1036,5.63884 43.1113,11.70462 l 10.1166,5.11046 8.861,-8.53854 c 15.0229,-14.47618 30.0883,-23.55765 39.1689,-23.61113 3.4684,-0.0204 5.5864,1.10074 15.1991,8.0455 10.8783,7.85909 11.187,8.18802 11.8531,12.62956 1.0891,7.26295 -0.3858,19.50561 -3.4958,29.01609 -2.6055,7.96754 -2.7199,8.87194 -1.2296,9.71816 4.6738,2.65376 7.1433,6.41184 7.1433,10.87039 0,5.66133 -7.1318,30.53016 -10.3324,36.02962 -1.3339,2.29182 -2.7378,5.61726 -3.1199,7.38988 -1.604,7.4413 -9.8573,11.91369 -20.3757,11.04142 -4.818,-0.39955 -5.4273,-0.22294 -6.1947,1.79534 -1.8666,4.90958 -10.1555,7.22414 -14.4984,4.0485 -1.7271,-1.26288 -2.4615,-0.88683 -7.9274,4.05956 -12.133,10.97975 -26.2894,18.25183 -37.0515,19.03327 l -6,0.43567 -9.7301,-7.57942 c -5.3515,-4.16868 -10.4961,-9.03694 -11.4324,-10.81835 -2.273,-4.3242 -2.0534,-15.33927 0.4662,-23.39019 l 1.9251,-6.15127 -2.3644,-1.0773 c -2.0494,-0.93375 -2.3651,-1.77965 -2.37,-6.34873 -0.01,-6.57556 -1.3611,-11.57319 -4.2549,-15.70252 -1.8118,-2.58551 -4.1492,-3.86655 -12.2395,-6.70805 -5.5,-1.93172 -10.9001,-3.73415 -12.0003,-4.00538 -1.8295,-0.45107 -2.2358,0.64359 -4.7603,12.82567 -5.9899,28.90371 -19.5876,45.57416 -40.0301,49.0758 l -6.467,1.10776 7.6288,8.83254 c 13.9713,16.17568 22.3692,32.68779 26.3463,51.80274 2.6737,12.85032 2.0634,38.33981 -1.2091,50.5 -5.6587,21.02722 -19.1509,41.74295 -37.2812,57.2411 -20.9892,17.94202 -44.3917,29.0646 -71.2271,33.85232 -13.7065,2.44539 -44.1552,2.48567 -57.5,0.0761 -31.5256,-5.69238 -57.6761,-19.25398 -79.4978,-41.22734 -24.3763,-24.5458 -35.4772,-55.04425 -32.4775,-89.22818 1.9239,-21.92327 10.0456,-41.58179 24.8769,-60.21398 1.8291,-2.29796 1.8529,-2.55493 0.2942,-3.17971 -2.9751,-1.19248 -37.4368,-0.76546 -40.8194,0.50579 -3.8702,1.45451 -7.8969,6.16243 -8.7955,10.28338 -0.373,1.7102 -1.8937,4.2463 -3.3795,5.63577 -2.2074,2.0643 -20.5762,10.29979 -43.7014,19.59313 -3.3066,1.32882 -8.5073,1.61426 -30,1.64654 -28.1745,0.0423 -32.1192,0.59623 -44.3307,6.2248 -10.7055,4.93449 -22.6919,3.03492 -27.2351,-4.31616 l -2.0973,-3.39356 -16.8692,0 c -18.3758,0 -25.4475,1.01634 -29.5555,4.24774 -2.5149,1.97819 -2.6345,2.45028 -2.0724,8.17584 0.3281,3.34203 1.9639,10.80142 3.6351,16.57642 4.7454,16.39776 6.2936,26.9006 6.3385,43 0.049,17.49479 -1.5658,25.7776 -8.0904,41.5 -4.0051,9.65116 -4.6157,12.1036 -4.9794,20 -0.4253,9.23178 1.6939,26.08728 7.2167,57.39953 4.7585,26.97952 2.6917,38.44889 -7.3952,41.03806 -1.9608,0.50332 -10.5401,1.61867 -19.0651,2.47857 -18.6723,1.88343 -26.4923,3.94044 -40.6089,10.68204 -11.6426,5.56007 -30.4707,10.91617 -38.2478,10.8805 -2.5538,-0.0117 -8.3464,-1.27443 -12.8724,-2.80604 z m 21.8455,-5.19637 c 14.2502,-2.90402 25.2951,-6.57487 33.7907,-11.23057 7.1278,-3.90618 8.253,-4.18277 29.8491,-7.3372 23.9519,-3.49853 24.7747,-3.79293 27.673,-9.90056 2.3277,-4.90536 2.0137,-8.87322 -3.0261,-38.23048 -5.0645,-29.50166 -6.6527,-50.25791 -4.4996,-58.80848 0.6479,-2.5729 2.9444,-8.81263 5.1035,-13.86607 5.9317,-13.88362 7.2175,-20.70587 7.181,-38.10293 -0.038,-18.24175 -1.179,-25.83982 -5.931,-39.5 -3.0902,-8.88319 -3.6606,-11.84672 -3.7048,-19.24597 -0.059,-9.83476 -0.1314,-9.90416 -6.9193,-6.60632 -5.0905,2.47314 -7.9268,1.94294 -7.453,-1.39324 0.4274,-3.01023 7.168,-6.29521 17.3708,-8.46554 6.5835,-1.40043 13.2834,-1.66876 38.9951,-1.56172 l 31.0458,0.12925 2.197,-5.67823 c 3.7195,-9.61361 4.3886,-14.56305 3.1833,-23.54856 -1.8301,-13.64342 -6.6703,-34.10092 -9.2923,-39.27529 -3.1914,-6.29789 -9.2141,-13.56642 -14.4033,-17.38256 l -4.0893,-3.00733 -13.0432,3.53392 c -28.2762,7.66116 -48.5882,16.40661 -60.7569,26.15913 -3.7878,3.03571 -11.0521,7.98248 -16.1429,10.99282 -5.99,3.54209 -10.1453,6.7747 -11.7763,9.16149 -3.0966,4.53132 -5.9972,13.6578 -6.9325,21.81271 -0.6303,5.49543 -0.3717,6.93355 2.5175,14 l 3.2199,7.87544 -0.3863,17.5 c -0.8455,38.29879 -0.3453,51.47167 2.5251,66.5 2.1149,11.07282 2.9084,19.4362 3.7951,40 0.6167,14.3 0.7915,29.375 0.3887,33.5 l -0.7325,7.5 -10.5729,8.97886 c -5.8151,4.93837 -12.1828,10.90484 -14.1505,13.25883 -7.2011,8.61491 -22.9803,17.53336 -37.6247,21.2657 -4.3919,1.11935 -12.6244,2.438 -18.2944,2.93034 -5.67,0.49233 -10.9641,1.43875 -11.7646,2.10316 -4.2894,3.55988 0.9647,13.28593 7.7272,14.304 2.0053,0.30188 2.3595,1.00568 2.6312,5.22858 0.1726,2.68386 0.7697,5.42895 1.3268,6.10019 0.5571,0.67125 3.4804,1.7327 6.4962,2.35879 3.5312,0.73306 6.7092,2.2146 8.9265,4.16141 3.2779,2.87811 9.8061,5.59902 13.7794,5.74324 1.0136,0.0368 6.3117,-0.84377 11.7735,-1.95681 z m -4.3664,-5.05639 c -1.0242,-0.59654 -1.75,-2.21108 -1.75,-3.89286 0,-4.23446 -4.2637,-8.70282 -9.7948,-10.26503 -3.1375,-0.88615 -4.8087,-1.94159 -5.0488,-3.18856 -0.3166,-1.64388 0.1297,-1.79842 3.7797,-1.30884 2.2763,0.30531 5.7032,1.74834 7.6152,3.20672 4.5894,3.5005 11.7571,13.28262 11.0613,15.09588 -0.6366,1.65883 -3.3408,1.82151 -5.8626,0.35269 z m -26.5662,-10.63553 c 0.1817,-0.94359 1.5488,-2.3995 3.0379,-3.23535 2.2099,-1.24037 2.9439,-1.28272 3.9929,-0.23038 1.0478,1.05096 0.8232,1.64503 -1.2146,3.21312 -3.1836,2.44978 -6.2652,2.58362 -5.8162,0.25261 z m -6.1838,-11.25438 c 0,-2.21412 4.0732,-4.13504 8.1478,-3.84248 3.5547,0.25523 4.4078,0.70188 4.6554,2.43749 0.2826,1.98133 -0.1399,2.125 -6.25,2.125 -3.6043,0 -6.5532,-0.32401 -6.5532,-0.72001 z m 101,-7.0794 c -1.2762,-0.86682 -1.1433,-1.27475 0.8915,-2.73469 1.3153,-0.94375 3.9599,-3.19045 5.8768,-4.99269 l 3.4853,-3.27679 -0.6871,-7.87691 c -0.7668,-8.79021 0.3567,-11.05243 2.9748,-5.98969 4.56,8.81816 1.9727,21.55398 -4.9679,24.45395 -4.1194,1.7212 -5.538,1.79927 -7.5734,0.41682 z m -0.7919,-105.22906 c -5.2381,-5.57566 -7.5379,-19.19902 -7.6341,-45.22153 -0.072,-19.35799 -0.01,-20 1.926,-20 1.9153,0 2.0229,0.8471 2.5413,20 0.5328,19.68772 0.5932,20.13272 3.8628,28.5 5.5602,14.22896 6.2118,16.25564 5.6753,17.65367 -0.7937,2.06839 -3.992,1.60047 -6.3713,-0.93214 z m -21.5414,-111.3882 c -1.6341,-1.63411 -0.2774,-3.57137 4.916,-7.01963 3.9578,-2.62781 6.2808,-5.08428 7.981,-8.43944 2.7405,-5.40804 4.1897,-6.68055 5.0512,-4.43541 1.4767,3.8483 -3.9693,11.90775 -11.9559,17.69321 -4.1589,3.01271 -4.9063,3.28727 -5.9923,2.20127 z m 22.4842,-2.65148 c -1.6477,-1.98542 0.9522,-5.03546 6.5686,-7.7059 3.7102,-1.76407 6.6617,-2.29567 13.1831,-2.37445 4.7979,-0.058 8.5516,0.32749 8.75,0.8985 0.2102,0.60497 -2.5166,1.01173 -6.9026,1.0297 -8.136,0.0333 -14.466,2.58101 -17.3504,6.98316 -1.8481,2.82053 -2.6865,3.05123 -4.2487,1.16899 z m 6.0893,-38.79197 c -4.0664,-2.01285 -9.0601,-7.40334 -7.9171,-8.5463 0.2977,-0.29769 4.1573,0.85322 8.5768,2.55758 4.4196,1.70436 9.1485,3.09884 10.5088,3.09884 3.0291,0 4.1759,1.59069 2.555,3.5438 -1.7672,2.12931 -8.7753,1.79538 -13.7235,-0.65392 z m 19.9525,-2.13988 c 0.9472,-3.29448 31.8973,-15.78471 39.0573,-15.76193 3.1105,0.01 3.75,0.36167 3.75,2.06296 0,2.43438 -4.1072,4.36558 -11.5,5.40729 -2.75,0.3875 -9.5872,2.6929 -15.1939,5.12311 -10.0639,4.36225 -16.8396,5.69463 -16.1134,3.16857 z M 1300.5959,570.8874 c 3.0086,-1.43472 4.9245,-1.54205 13.3872,-0.75 12.8017,1.19815 18.9842,0.35479 26.5277,-3.61867 8.2752,-4.35885 16.6678,-5.00577 25.1418,-1.93799 8.4986,3.07667 22.5262,3.79732 29.41,1.5109 4.406,-1.46344 5.7447,-2.54674 8.7607,-7.0892 4.4668,-6.72747 4.5427,-9.91364 0.6887,-28.9407 -2.613,-12.90074 -2.8366,-15.77024 -2.8475,-36.54537 l -0.012,-22.54536 5.2204,-11.00125 c 10.0037,-21.08119 12.0056,-38.87908 6.3564,-56.51145 -2.0808,-6.49474 -3.0768,-11.62304 -3.0768,-15.84249 l 0,-6.23906 -5.7057,0.48217 c -6.401,0.54093 -8.2943,0.1143 -8.2943,-1.869 0,-1.92569 2.541,-3.01423 10.0194,-4.29228 3.5857,-0.61278 10.1107,-2.18054 14.5,-3.4839 l 7.9806,-2.36976 5.0178,-8.68405 c 2.7598,-4.77623 6.3598,-9.73271 8,-11.01441 5.7,-4.45413 35.0363,-22.85965 43.9822,-27.59432 7.3537,-3.89199 20.8434,-9.49762 29.6586,-12.32466 1.4124,-0.45292 1.5153,-1.16996 0.6933,-4.82832 -1.1072,-4.92813 -4.3818,-9.61343 -9.387,-13.43108 l -3.4774,-2.65233 -16.2437,1.09733 c -18.8139,1.27095 -23.916,2.43488 -37.5665,8.56989 -5.4928,2.46869 -13.7423,5.4253 -18.3321,6.57024 -10.5041,2.62026 -12.5683,3.44058 -22.0831,8.77591 -5.5869,3.13285 -10.0345,4.76932 -16,5.88717 -14.0183,2.62683 -23.6934,8.41697 -27.9915,16.7517 -3.8871,7.53783 -4.5436,12.95624 -3.0404,25.09468 1.0187,8.22617 1.2231,19.32148 0.8105,44 -0.4321,25.84776 -0.2272,35.70918 0.9451,45.5 1.766,14.74807 2.0024,48.59487 0.3926,56.20078 -0.6169,2.91457 -1.7671,6.56308 -2.556,8.1078 -1.579,3.09189 -13.8138,11.39578 -25.3497,17.20516 -4.0085,2.01867 -10.9298,5.95929 -15.3805,8.75693 -9.9569,6.25876 -15.4194,8.3961 -26.313,10.2958 -12.6276,2.20206 -17.1454,5.3972 -14.3706,10.16335 0.9302,1.59769 1.0335,1.55318 1.061,-0.45677 0.042,-3.08349 3.544,-5.08089 10.3003,-5.87495 4.7288,-0.55578 5.7301,-0.41103 5.7301,0.82836 0,0.87567 -1.9804,2.24246 -4.75,3.27821 -2.6125,0.97702 -5.3125,2.21825 -6,2.75831 -1.9095,1.5 -1.4954,4.16513 1,6.43543 4.0642,3.69759 7.8679,4.16674 13.1933,1.62725 z m 80.2474,-22.05102 c -4.1771,-0.6229 -2.7567,-2.54222 3.3488,-4.52497 7.5586,-2.45467 7.9956,-3.10055 6.7748,-10.01333 -1.0927,-6.1877 -0.6682,-8.73634 1.4552,-8.73634 1.5363,0 3.7882,13.24718 2.975,17.50126 -0.8228,4.30448 -7.2655,6.86022 -14.5538,5.77338 z m 7.4402,-89.8354 c -1.1079,-1.40842 -2.5555,-5.12092 -3.2169,-8.25 -2.2821,-10.797 -1.0553,-45.18924 1.6119,-45.18924 2.1943,0 2.5632,3.03696 2.3893,19.66504 -0.1516,14.48591 0.056,16.55911 2.4386,24.33496 1.4323,4.675 2.6137,9.2875 2.6252,10.25 0.032,2.64045 -3.5208,2.14795 -5.8481,-0.81076 z m -16.4642,-88.10591 c -1.3933,-1.39325 -0.5568,-4.18461 2.5271,-8.43329 1.7565,-2.42002 3.4517,-5.97504 3.7669,-7.90004 0.7075,-4.32001 3.3925,-4.78219 3.8639,-0.66511 0.3919,3.42233 -2.0911,9.97904 -5.459,14.41511 -2.4824,3.26976 -3.4697,3.81256 -4.6989,2.58333 z m 31.5687,-17.58426 c -3.4952,-1.1207 -8.2354,-4.9779 -8.2354,-6.70132 0,-1.72276 2.7621,-1.20198 8.1763,1.54157 3.9331,1.99309 6.0554,2.46743 9.2167,2.05999 2.2589,-0.29112 5.218,-0.66882 6.5758,-0.83932 3.4592,-0.43435 3.8418,2.49966 0.5231,4.01173 -3.1064,1.41539 -11.7359,1.37682 -16.2565,-0.0727 z m 21.4376,-6.15883 c -0.642,-1.67313 2.9675,-5.77302 13.8575,-15.74024 7.6821,-7.03107 18.4444,-13.85 21.8595,-13.85 3.2866,0 1.3582,2.61139 -4.6756,6.33169 -7.4808,4.61254 -10.3314,7.03781 -13.9797,11.89406 -2.8233,3.75811 -13.7998,12.77425 -15.5518,12.77425 -0.5329,0 -1.2124,-0.63439 -1.5099,-1.40976 z m 469.827,204.42608 c 19.7354,-4.23823 35.5889,-10.85273 51.4441,-21.46376 24.6785,-16.51598 40.0108,-36.91448 46.7375,-62.18076 2.3,-8.63892 2.6282,-11.80757 2.6282,-25.3718 0,-13.58499 -0.3265,-16.72667 -2.6426,-25.42862 -4.9999,-18.78526 -15.4515,-36.25721 -30.514,-51.01053 -6.3282,-6.19822 -7.947,-7.21936 -15.1611,-9.56343 -7.9718,-2.59024 -8.1159,-2.60032 -11.1142,-0.77696 -6.3642,3.87027 -17.384,6.77954 -25.6798,6.77954 -6.1663,0 -9.1547,0.52901 -13.3237,2.35856 -2.9559,1.29722 -11.6744,4.21814 -19.3744,6.49095 -16.7229,4.93609 -28.7413,6.24152 -57.5,6.24562 -20.4916,0.003 -28.103,-0.78259 -44.5,-4.5925 -5.5,-1.27795 -12.0367,-2.62482 -14.526,-2.99305 -4.4701,-0.66122 -4.5763,-0.60978 -8.5842,4.16046 -16.8342,20.03621 -25.3898,42.89276 -25.3898,67.82996 0,28.712 10.5911,52.5896 32.5434,73.36935 21.3764,20.23449 46.9852,32.53922 78.3851,37.66307 12.8945,2.10413 43.5379,1.2829 56.5715,-1.5161 z m -323.3849,-144.8461 c 5.3763,-4.12497 11.6417,-5.07132 40.8849,-6.17551 32.7377,-1.23614 44.3856,-3.65142 63.2745,-13.1205 12.2755,-6.15375 13.4786,-7.21696 15.3152,-13.53489 2.3706,-8.15432 2.0877,-11.79249 -1.2397,-15.94538 -7.1904,-8.97421 -8.0593,-10.97542 -8.7831,-20.22835 -1.1319,-14.46813 -4.7742,-20.256 -27.592,-43.84528 l -12.4011,-12.82031 -12.5369,0.31486 c -11.7103,0.2941 -26.6049,1.76374 -21.0369,2.0757 3.3717,0.18891 5.4272,1.60921 4.5,3.10947 -1.1457,1.85382 -9.7155,0.38044 -17.8019,-3.06064 -8.0963,-3.44528 -11.6293,-3.62934 -19.4441,-1.013 -9.5183,3.18664 -10.8544,3.2247 -38.999,1.11099 -14.9204,-1.12056 -28.8441,-2.01749 -30.9415,-1.99318 l -3.8135,0.0442 4,2.06614 c 6.291,3.24951 10.4654,7.7778 14.1203,15.31726 1.8588,3.83448 3.3797,7.54698 3.3797,8.25 0,2.41988 2.7593,1.27342 3.97,-1.6495 2.488,-6.00638 3.0192,-6.16313 28.9043,-8.5287 14.0149,-1.28079 15.6489,-1.63759 19.3318,-4.22132 8.7152,-6.11418 11.28,-7.3419 14.7939,-7.08157 5.0001,0.37044 4.2716,1.95799 -1.9199,4.18367 -3.879,1.3944 -5.8763,2.8107 -7.2521,5.14264 -1.0444,1.77004 -2.8954,3.51089 -4.1134,3.86855 -1.218,0.35766 -9.9205,1.00932 -19.3389,1.44813 -15.178,0.70715 -17.5364,1.05253 -20.75,3.03863 -1.9941,1.23244 -3.6257,2.40484 -3.6257,2.60534 0,0.2005 2.2923,-0.3162 5.094,-1.14821 l 5.0939,-1.51274 7.6298,5.81664 c 10.2646,7.82545 14.3654,12.04714 16.8616,17.35884 3.1852,6.77782 8.1247,27.66444 9.3911,39.70998 1.0252,9.75094 0.9368,11.61701 -0.9523,20.11873 -2.6155,11.7711 -6.1365,19.68279 -9.1911,20.65226 -1.5783,0.50094 -2.6378,0.22523 -3.4611,-0.90061 -1.3415,-1.83462 -9.0471,-2.37196 -7.9226,-0.55247 1.9958,3.22931 12.857,3.95034 16.5718,1.10014 z m 11.9726,-13.56449 c -1.5799,-1.90371 -0.4115,-4.2402 2.7342,-5.46758 1.4729,-0.57473 8.9781,-1.19434 16.6781,-1.37692 l 14,-0.33195 11.7156,-4.71464 c 7.7704,-3.12699 13.1954,-4.71464 16.1101,-4.71464 l 4.3945,0 0.5683,-5.50596 c 0.6692,-6.48442 4.1917,-13.41095 7.7115,-15.16363 1.375,-0.68468 5.0882,-2.36453 8.2515,-3.733 4.1704,-1.80414 6.328,-3.46529 7.8488,-6.04277 2.6847,-4.55022 5.1465,-4.76191 4.7131,-0.40526 -0.4064,4.08436 -5.2726,8.04983 -14.411,11.74368 l -6.9024,2.79002 -0.8944,5.18077 c -0.4918,2.84942 -0.6785,5.39653 -0.4148,5.66025 1.1745,1.17456 10.1412,-2.65995 16.0054,-6.84458 3.5341,-2.5219 7.6358,-5.04534 9.1148,-5.60764 2.327,-0.88476 2.689,-0.76959 2.689,0.85563 0,1.1564 -2.0173,3.21693 -5.25,5.36253 -5.8981,3.91465 -20.9806,11.70996 -22.6567,11.70996 -0.6013,0 -1.0933,1.125 -1.0933,2.5 0,2.3929 -0.2608,2.5 -6.0879,2.5 -4.9285,0 -8.3088,0.89356 -17.75,4.692 l -11.6621,4.692 -15,0.558 c -9.0172,0.33544 -15.8555,1.04818 -17.145,1.78699 -1.7271,0.98957 -2.3636,0.96555 -3.2673,-0.12326 z m 41.8959,-36.63645 c -0.661,-1.23499 -2.2939,-6.34581 -3.6286,-11.35736 -3.1135,-11.68986 -7.0155,-19.92008 -12.2154,-25.76537 -2.2768,-2.5594 -4.1396,-5.1469 -4.1396,-5.75 0,-2.16125 2.9954,-1.03447 6.4599,2.43001 4.5143,4.5143 7.0777,9.55494 11.1745,21.97344 1.8144,5.5 3.3139,8.96853 3.3323,7.70784 0.031,-2.14334 -2.4432,-15.56508 -3.5872,-19.45784 -0.7806,-2.65614 2.5028,-2.19031 3.5243,0.5 1.5237,4.01323 3.3814,20.52772 2.8447,25.28898 -0.6529,5.79242 -2.1151,7.51304 -3.7649,4.4303 z m -14.3299,-46.6555 c -2.9837,-5.7359 -5.805,-7.32112 -16.0666,-9.02748 -7.8076,-1.2983 -9.6088,-1.91454 -9.3449,-3.19729 0.4947,-2.40543 12.7131,-1.77315 18.336,0.94887 4.9982,2.41957 11.6815,9.38058 11.2318,11.69853 -0.5302,2.73292 -2.6257,2.51984 -4.1563,-0.42263 z m 482.633,56.96625 c 7.5442,-3.96439 23.7133,-17.49916 23.7133,-19.84987 0,-2.2065 -4.482,-10.65746 -6.729,-12.68772 -1.8818,-1.70028 -2.0812,-1.59624 -6.1192,3.19263 -7.0945,8.41366 -22.8744,20.85155 -32.3323,25.4847 l -8.6804,4.25232 4.6804,3.51889 4.6805,3.51889 6.9837,-1.9232 c 3.841,-1.05775 10.0523,-3.53574 13.803,-5.50664 z m -241.415,3.15618 c 13.5006,-1.9864 35.3922,-8.76345 38.4103,-11.89081 2.0042,-2.07675 3.4229,-2.35788 14.718,-2.91646 6.875,-0.33999 14.75,-1.22969 17.5,-1.97711 21.6985,-5.89742 34.5,-18.95705 34.5,-35.19577 0,-5.48627 0.6836,-8.45606 1.9465,-8.45606 1.4111,0 3.0535,5.135 3.0535,9.54705 0,5.176 0.3118,5.27009 8.3265,2.51263 10.3237,-3.55185 23.7801,-14.75094 32.5141,-27.05968 2.5367,-3.575 5.2978,-7.04819 6.1358,-7.7182 2.0126,-1.60914 7.0231,-1.63183 7.0255,-0.0318 0,2.06045 9.05,7.46846 15.9981,9.5634 19.7558,5.95663 30.0121,6.34516 45.5,1.72368 15.9599,-4.76234 28.6554,-3.5539 34.8713,3.31927 2.3026,2.54612 1.4818,5.54919 -1.2774,4.67346 -1.7338,-0.55029 -1.9828,0.10609 -2.6199,6.9047 -0.9058,9.66586 -0.239,12.04028 4.9348,17.57144 2.341,2.50271 5.0796,6.78771 6.0858,9.52222 4.2353,11.50978 4.211,11.47183 7.3474,11.47183 3.4034,0 4.158,-1.3512 4.158,-7.4451 0,-3.57101 -0.8341,-5.41143 -5.026,-11.09015 -2.7643,-3.74474 -4.8737,-7.26562 -4.6875,-7.82418 0.6891,-2.06739 2.314,-1.54779 6.2135,1.98692 9.0356,8.19039 18.7655,15.37251 20.8257,15.37251 2.2917,0 7.6743,-4.30602 7.6743,-6.13934 0,-1.67383 -3.1461,-7.86066 -3.9973,-7.86066 -0.4232,0 -1.0048,0.9 -1.2924,2 -0.7583,2.89967 -2.7103,2.45483 -2.7103,-0.61765 0,-1.7647 1.3848,-3.96414 4.25,-6.75 6.6613,-6.47688 7.7355,-8.50542 7.7485,-14.63235 0.01,-4.08156 0.6471,-6.53159 2.4754,-9.5 3.6985,-6.00482 3.3311,-8.90435 -1.5791,-12.46123 -6.4034,-4.6386 -14.1153,-7.0279 -26.3024,-8.14903 -12.1917,-1.12156 -10.7406,-0.52232 -34.4767,-14.23753 -6.2614,-3.61795 -16.2821,-8.64541 -22.2682,-11.17214 -9.7367,-4.10982 -12.4894,-4.79217 -26.1157,-6.47354 -8.3775,-1.03372 -19.2818,-2.19186 -24.2318,-2.57364 -4.95,-0.38178 -9.45,-1.02672 -10,-1.4332 -0.55,-0.40647 -2.6819,-1.28075 -4.7376,-1.94283 -6.1017,-1.96521 -13.3397,0.0922 -21.4559,6.09893 -8.9262,6.60623 -10.2681,7.24549 -34.3065,16.34255 -25.2543,9.55724 -23.1805,8.51724 -42.5,21.31342 -11.9828,7.93679 -18.2597,12.89527 -25,19.74916 -9.2673,9.42345 -12.4655,11.66054 -18.5,12.94068 -5.5448,1.17625 -10.6796,4.19797 -13.7054,8.06535 -3.1664,4.04691 -7.8538,6.95525 -8.7841,5.45005 -0.6524,-1.05561 0.8869,-4.52895 3.1702,-7.15338 1.2567,-1.44455 1.0951,-1.89732 -1.3785,-3.86217 -2.5178,-1.99988 -3.5465,-2.16423 -10.136,-1.61929 -14.6572,1.21214 -25.2418,5.12225 -37.9265,14.0106 -8.7487,6.13038 -14.7029,9.02719 -16.8564,8.20082 -2.8164,-1.08074 -1.1671,-3.21744 6.1664,-7.98887 l 7.5239,-4.89528 -3.4057,-3.11948 c -3.3777,-3.09388 -3.9518,-4.63492 -5.1711,-13.88159 -0.5298,-4.01762 -1.3602,-5.46306 -5.1411,-8.94813 -5.079,-4.68165 -7.3557,-8.46103 -7.3557,-12.21057 0,-3.46378 1.4305,-3.20393 3.8555,0.70034 5.0723,8.16667 12.5541,12.73011 20.8945,12.74442 l 3.25,0.006 -0.041,-5.25 -0.041,-5.25 -5.0456,-2.36829 c -8.3001,-3.89581 -10.5593,-10.08473 -6.1944,-16.96847 1.9178,-3.02441 2.8099,-2.03862 2.4659,2.725 -0.4565,6.3223 2.9535,9.32076 14.1243,12.41972 12.5353,3.4775 14.983,4.47654 14.1741,5.78528 -0.4184,0.67699 -3.2058,0.96486 -7.2806,0.75187 -6.341,-0.33144 -6.639,-0.24216 -7.5219,2.2533 -1.5518,4.38625 0.095,9.39049 4.8201,14.64579 l 4.3967,4.89017 7.7331,-1.49727 c 9.2047,-1.78218 21.4807,-0.49279 26.8393,2.81905 2.7211,1.68173 3.5267,1.7967 5.0066,0.71455 1.6334,-1.19433 1.4114,-1.80272 -3.0034,-8.23018 -6.4786,-9.43202 -7.8294,-10.85724 -16.161,-17.05021 -7.0585,-5.24661 -8.8845,-7.96706 -8.0961,-12.06122 0.5546,-2.87991 3.2833,-2.18998 3.6413,0.92066 0.379,3.29385 3.8438,6.10414 14.1836,11.5042 6.3864,3.33539 7.8449,4.59937 9.8231,8.51306 1.2777,2.52786 2.6277,6.67438 3,9.21449 l 0.6769,4.61839 7.1735,-4.59281 7.1736,-4.5928 -3.404,-7.46961 c -3.5894,-7.87641 -15.4798,-24.61487 -20.4659,-28.8104 -1.6216,-1.36445 -8.0822,-5.66629 -14.3569,-9.55964 -12.1823,-7.55884 -21.1088,-14.88748 -22.1573,-18.19119 -1.4274,-4.49735 5.5668,-8.46884 16.9225,-9.60898 l 7.1145,-0.71431 -9.5,-1.1945 c -17.5197,-2.20287 -42.2368,-1.32106 -29.5714,1.05499 4.435,0.832 8.4775,4.02335 7.002,5.52775 -0.7712,0.78632 -2.2067,0.68909 -5.1481,-0.3487 -10.1279,-3.57333 -34.5987,-3.88568 -52.7632,-0.67347 -13.4669,2.3815 -19.311,4.78105 -23.8861,9.80758 -1.7233,1.89326 -4.9405,5.38162 -7.1493,7.7519 l -4.0161,4.3096 6.2189,2.19547 c 5.3285,1.8811 6.7281,2.02743 9.7748,1.02192 1.9558,-0.64545 4.0986,-0.99265 4.7619,-0.77155 0.6633,0.2211 2.2534,-0.84275 3.5335,-2.36411 3.1003,-3.68455 8.9347,-7.20933 10.7685,-6.50566 2.0705,0.79454 1.8403,2.62863 -0.33,2.62863 -0.9925,0 -3.4675,1.52319 -5.5,3.38487 -5.811,5.32265 -4.9974,9.86508 3.0546,17.05359 2.3375,2.08685 4.2458,4.5294 4.2406,5.4279 -0.015,2.6348 -5.895,12.13364 -7.5109,12.13364 -1.8661,0 -1.856,-0.85526 0.064,-5.45128 1.9232,-4.60278 1.5625,-5.72407 -4.0345,-12.54163 -2.8487,-3.46998 -4.5095,-6.4763 -4.5095,-8.16313 0,-2.53493 -0.1478,-2.61445 -2.9166,-1.56933 -2.3017,0.86879 -4.1466,0.73334 -8.75,-0.64243 -6.5108,-1.94578 -6.7584,-1.97112 -10.491,-1.07348 -1.9959,0.47997 -2.7429,0.23027 -3,-1.00277 -0.2574,-1.23433 -2.0298,-0.14186 -7.1402,4.40108 -6.0704,5.39633 -6.5225,6.04297 -4.2252,6.04297 1.8658,0 2.8506,0.73148 3.5849,2.66284 1.4356,3.77594 -0.6533,5.72048 -2.7792,2.58716 -2.2592,-3.32963 -8.5951,-2.93594 -22.4851,1.39713 l -11.7025,3.65065 6.5356,4.9476 c 7.6492,5.7906 12.8342,13.24774 22.1015,31.78706 6.4986,13.00032 10.9253,26.41568 11.951,36.21756 l 0.6017,5.75 18.921,0 c 19.8411,0 37.132,1.94322 64.2941,7.22561 15.12,2.94049 44.5971,3.53158 60.3717,1.2106 z m -102.8717,-14.38071 c -2.7218,-1.10852 -5.7843,-1.62748 -7.75,-1.31328 -2.8124,0.44952 -3.25,0.23254 -3.25,-1.61138 0,-1.8419 0.5763,-2.12937 4.25,-2.12002 2.3375,0.006 6.4769,0.68634 9.1987,1.51198 5.8721,1.78124 9.4391,0.9372 15.1205,-3.57782 3.715,-2.95229 10.581,-4.12903 11.875,-2.03522 1.2593,2.03751 -0.7264,4.09024 -3.9566,4.09024 -2.305,0 -4.5601,1.05413 -7.4876,3.5 -3.5091,2.9318 -4.945,3.49093 -8.8446,3.44413 -2.5605,-0.0307 -6.6804,-0.88061 -9.1554,-1.88863 z m 11.1693,-23.10741 c -4.8491,-1.06061 -9.1693,-5.57249 -9.1693,-9.57616 0,-4.85002 1.514,-4.89877 4.7024,-0.1514 1.5684,2.33541 4.5451,5.19609 6.6148,6.35706 2.8527,1.60018 3.451,2.35134 2.473,3.10492 -0.7315,0.56363 -2.7324,0.67863 -4.6209,0.26558 z m 15.2768,-10.90671 c -2.9079,-1.17771 -12.3302,-11.73134 -13.0561,-14.62374 -0.7532,-3.00103 0.3387,-7.70334 1.6068,-6.91961 0.516,0.31891 2.3397,3.51632 4.0526,7.10538 3.394,7.11152 7.2984,10.37545 12.4506,10.40816 3.8862,0.0247 5.9495,1.37475 5.1771,3.38751 -0.6722,1.75179 -6.5764,2.12245 -10.231,0.6423 z m -78.4461,-6.38639 c 0,-3.68044 7.156,-8.65499 12.4503,-8.65499 3.9573,0 3.0843,1.44296 -3.8795,6.41222 -7.308,5.21487 -8.5708,5.54532 -8.5708,2.24277 z m 21.1905,-9.40499 c 0.2853,-1.4808 1.4888,-1.75 7.8233,-1.75 6.4011,0 8.5205,-0.48492 14.6219,-3.34534 7.5133,-3.52237 10.622,-3.77081 11.1761,-0.89318 0.2606,1.35313 -0.3607,1.73852 -2.803,1.73852 -2.2589,0 -3.845,0.84035 -5.6622,3 l -2.5244,3 -11.4844,0 c -10.3993,0 -11.4526,-0.16535 -11.1473,-1.75 z m -3.7443,-3.33713 c -0.3696,-0.59793 -0.1711,-1.58793 0.4409,-2.2 1.9519,-1.95191 1.2121,-4.80979 -2.5838,-9.98079 -2.9572,-4.02857 -3.7073,-5.95563 -3.75,-9.63398 -0.053,-4.59114 -0.045,-4.60223 5.4467,-7.32865 5.9426,-2.95027 17,-4.85788 17,-2.93281 0,1.51796 -4.7289,3.84401 -9.5346,4.68987 -9.2804,1.63349 -10.8688,6.03823 -4.9654,13.7697 3.8643,5.06088 4.2494,7.35385 1.9743,11.75345 -1.5979,3.09006 -2.8982,3.6915 -4.0281,1.86321 z m 41.2205,-4.57954 c -1.5252,-1.52521 -0.4724,-3.2171 2.3937,-3.84659 2.1694,-0.47649 3.536,-1.66954 4.6941,-4.09809 1.6886,-3.54104 3.4991,-3.9935 4.076,-1.01862 0.1865,0.96204 -1.3954,3.4302 -3.6324,5.66714 -3.77,3.77004 -6.0568,4.77084 -7.5314,3.29616 z m 14,-10 c -0.3667,-0.36666 -0.6667,-2.16666 -0.6667,-4 0,-3.99579 2.1397,-6.35697 8.8356,-9.75002 8.8523,-4.48582 12.0167,-10.42159 10.8729,-20.39578 -0.9112,-7.94567 5.039,-14.71744 11.0686,-12.59695 3.827,1.34588 3.3863,2.68206 -1.1988,3.6347 -6.4062,1.33101 -6.5783,1.7189 -6.5783,14.82458 0,11.45895 -0.075,11.8637 -2.547,13.80842 -1.4008,1.10189 -3.9883,2.31375 -5.75,2.69302 -5.8668,1.26306 -8.8131,3.44332 -10.8374,8.0197 -2.0799,4.70198 -2.1624,4.79891 -3.1989,3.76233 z m 169.9079,-2.22822 c -2.4296,-0.95187 -3.2662,-3.30644 -2.749,-7.73674 0.3363,-2.88088 0.7719,-3.42494 2.5401,-3.17275 1.5756,0.2247 2.1343,1.00964 2.1343,2.99859 0,4.29426 1.7317,5.35256 6.4467,3.9399 2.206,-0.66093 4.7037,-2.19899 5.5505,-3.4179 8.4211,-12.12238 10.672,-14.54272 15.4266,-16.5881 2.7209,-1.17046 5.651,-2.12811 6.5116,-2.12811 3.1811,0 1.4166,2.76272 -3.4598,5.41674 -3.0567,1.66369 -6.5358,4.76093 -8.884,7.90893 -8.4291,11.30012 -16.3317,15.59447 -23.517,12.77944 z m -175.5746,-9.04795 c 0,-1.06856 0.9626,-3.57437 2.1392,-5.56847 l 2.1392,-3.62563 -6.5789,-6.18153 c -6.7651,-6.35658 -8.6434,-10.04926 -6.8326,-13.43281 0.5703,-1.06565 5.1358,-4.03256 10.1455,-6.59314 7.5794,-3.874 10.0327,-4.65558 14.6138,-4.65558 5.5528,0 9.8577,1.40802 8.924,2.91878 -0.2782,0.45013 -3.7783,1.12299 -7.778,1.49524 -3.9997,0.37224 -10.0893,1.5946 -13.5325,2.71635 -10.252,3.33999 -10.6954,7.56712 -1.7071,16.27278 4.6267,4.48128 5.4674,5.84813 5.4674,8.88948 0,2.47361 -0.6304,4.03554 -2.0224,5.01051 -1.271,0.89026 -1.7886,2.0259 -1.393,3.0567 0.4606,1.2004 0.064,1.64016 -1.4776,1.64016 -1.4197,0 -2.107,-0.63378 -2.107,-1.94284 z m 299.683,-1.0664 c -6.9024,-5.19405 -15.6892,-7.49609 -28.433,-7.44909 -11.3894,0.042 -13.2539,-0.63366 -9.7571,-3.53578 2.1136,-1.75411 18.5694,-1.49896 26.8263,0.41595 11.8879,2.75698 19.8621,8.05725 18.2892,12.1563 -0.7948,2.07108 -2.6194,1.65284 -6.9254,-1.58738 z m -243.3833,-1.3467 c -0.4398,-0.74576 -3.1263,-2.12001 -5.97,-3.05389 -7.4395,-2.44319 -10.8373,-8.62317 -8.2966,-15.09017 l 1.1786,-3 1.3202,4.35682 c 1.6698,5.51051 4.8052,8.8643 9.6421,10.31346 4.4453,1.33186 7.3133,4.11741 6.4787,6.29247 -0.7294,1.90066 -3.2764,2.00675 -4.353,0.18131 z m 177.7003,-23.09182 c 0,-1.73736 2.235,-2.55224 7,-2.55224 4.7125,0 7,0.8125 7,2.48637 0,0.90241 -2.0355,1.29155 -7,1.33827 -5.2124,0.049 -7,-0.2759 -7,-1.2724 z m -253,-3.55224 c -0.825,-0.53316 -4.3125,-0.97627 -7.75,-0.98469 -4.7511,-0.0116 -6.25,-0.35888 -6.25,-1.44792 0,-2.3227 3.4885,-2.76334 9.4833,-1.19787 5.8956,1.53957 8.5786,1.20117 14.4181,-1.81851 1.8064,-0.93416 3.5399,-1.44306 3.8521,-1.13088 0.9414,0.94144 -3.0375,4.76447 -6.4714,6.21789 -3.7881,1.60335 -5.2489,1.67596 -7.2821,0.36198 z m -44.0348,114.51801 2.8658,-1.48199 -1.3533,-5.8012 c -1.3414,-5.75025 -2.2914,-8.45223 -10.4543,-29.73482 -7.6716,-20.00152 -13.3425,-28.3082 -25.3834,-37.18157 -4.908,-3.61687 -6.6077,-4.31843 -10.4624,-4.31843 l -4.6024,0 4.5697,4.75 c 11.8869,12.35564 24.7984,30.00791 27.4605,37.54312 0.8174,2.31379 1.6543,7.52178 1.8598,11.57331 0.3312,6.5311 0.7274,7.77848 3.494,11 1.7163,1.99847 4.3401,6.20619 5.8307,9.35051 1.4906,3.14432 2.8449,5.73182 3.0098,5.75 0.1648,0.0182 1.5893,-0.63384 3.1655,-1.44893 z m 366.7047,-2.54696 c 7.2598,-3.1124 16.5051,-10.04824 27.0487,-20.29183 9.0409,-8.78364 10.0942,-10.16039 9.139,-11.94529 -0.7143,-1.33469 -0.8436,-5.79551 -0.3821,-13.18143 0.7998,-12.80059 0.4839,-13.46461 -6.7962,-14.28518 -3.8635,-0.43547 -11.0953,0.94846 -24.7426,4.73494 -4.285,1.18889 -7.9367,6.87742 -7.9367,12.36366 0,5.00442 -2.6723,11.16372 -5.3784,12.39673 -4.5828,2.08806 -8.7022,23.48123 -5.6277,29.22603 2.2516,4.20711 6.4921,4.49096 14.676,0.98237 z m -89.1527,-7.62381 c 3.5196,-1.19373 6.7831,-3.48624 11.1135,-7.80677 8.841,-8.82083 14.8722,-21.52704 17.3445,-36.54047 0.5888,-3.575 1.3103,-7.625 1.6034,-9 l 0.5329,-2.5 -1.7361,2.5 c -9.8744,14.21922 -26.8643,27.63112 -39.2159,30.95705 -2.9913,0.80546 -5.6165,2.56297 -8.4944,5.68679 -2.2908,2.48658 -6.583,6.90577 -9.5383,9.82041 l -5.3731,5.29935 3.8656,1.27576 c 9.6012,3.16869 21.1136,3.28724 29.8979,0.30788 z m 182.4938,-25.59724 c 1.0898,-1.7875 1.9832,-4.21804 1.9853,-5.40121 0,-2.03976 -0.1573,-2.0008 -3.1042,0.75201 -2.4398,2.27911 -2.9731,3.44021 -2.481,5.40121 0.813,3.23899 1.2181,3.15436 3.5999,-0.75201 z m -102.5367,-2.70034 c 2.0339,-3.93302 1.9232,-6.34936 -0.4706,-10.27549 -1.0979,-1.80079 -1.9979,-4.00919 -2,-4.90754 0,-1.6619 -2.7408,-2.82833 -6.6944,-2.85298 -2.0715,-0.0129 -2.1126,0.13598 -0.7562,2.73635 0.8272,1.58568 1.4372,5.58684 1.4407,9.45031 0.01,5.322 0.3662,6.90998 1.7562,7.71959 3.0323,1.76613 5.1482,1.17762 6.7243,-1.87024 z m -249.1537,-2.66161 6.3603,-2.61195 -4.8405,-4.84043 c -2.6622,-2.66224 -4.8404,-5.31186 -4.8404,-5.88805 0,-1.18347 -6.9129,-1.4105 -8.596,-0.28231 -3.2405,2.17216 -2.2639,9.60699 1.8369,13.98469 2.6137,2.79016 2.3841,2.7984 10.0797,-0.36195 z m 357.3741,-12.6273 c -0.9224,-6.87697 -2.6947,-6.96077 -2.6947,-0.12742 0,3.31834 0.3126,6.34591 0.6946,6.72795 1.3327,1.33272 2.533,-2.62808 2.0001,-6.60053 z m 3.527,-13.09988 c -0.9844,-2.11788 -1.0264,-2.10486 -2.1132,0.6546 -0.8235,2.09098 -0.8083,3.37693 0.059,4.99734 1.1561,2.16014 1.1771,2.15363 2.1132,-0.6546 0.6092,-1.82749 0.5882,-3.60513 -0.059,-4.99734 z m -275.3348,-3.89405 c 6.5686,-5.62825 11.7423,-10.55771 11.4972,-10.95435 -0.2451,-0.39665 -2.6726,-1.93322 -5.3944,-3.41461 -5.0613,-2.7547 -7.0424,-5.74517 -5.0956,-7.69193 0.7903,-0.79033 1.8556,-0.37779 3.8493,1.49064 1.5161,1.42087 4.6958,3.55568 7.066,4.74404 l 4.3094,2.16064 6.6906,-4.93441 c 3.6798,-2.71393 10.5156,-6.84351 15.1906,-9.17685 4.675,-2.33333 8.8648,-4.74813 9.3106,-5.36621 0.4458,-0.61808 0.5441,-5.73628 0.2184,-11.37378 -0.3266,-5.65483 -0.1991,-10.25 0.2845,-10.25 0.4821,0 1.696,0.90552 2.6976,2.01226 1.3328,1.47277 1.945,4.15378 2.2835,10 0.2543,4.39326 0.8471,7.98774 1.3172,7.98774 1.513,0 22.755,-5.93991 26.0498,-7.28433 l 3.1861,-1.30006 -7.9239,-5.06052 c -8.9558,-5.71962 -16.8683,-8.94721 -24.3756,-9.94309 l -5.1209,-0.6793 -4.5569,4.88365 c -3.5604,3.81572 -14.9849,17.54211 -15.9806,19.20058 -0.1047,0.1743 -3.2267,0.95221 -6.9378,1.72867 -7.4814,1.56533 -10.452,3.58589 -10.452,7.10939 0,4.40405 -3.449,2.47701 -16.4033,-9.16501 -16.309,-14.65678 -28.2566,-21.47187 -40.1555,-22.90538 l -4.9412,-0.59528 6,1.86096 c 11.065,3.43193 15.9761,5.66788 16.3151,7.42796 0.4632,2.40559 -0.9645,2.20078 -12.3254,-1.76816 -10.7797,-3.76591 -13.6718,-4.09331 -21.4405,-2.42722 -5.4855,1.17645 -6.0071,2.16413 -3.6003,6.81836 2.4207,4.68101 7.7117,8.52342 21.1834,15.38353 13.1222,6.68219 15.7756,8.78534 21.0878,16.71525 4.6032,6.8714 12.2799,21.45746 12.2799,23.33219 0,0.9173 0.4374,1.66781 0.972,1.66781 0.5346,0 6.3463,-4.60493 12.9149,-10.23318 z m 272.4978,-37.69867 0.1153,-9.43184 -4.5,-3.45259 -4.5,-3.45258 -0.6957,6.19157 c -0.8401,7.47763 -2.7312,14.19986 -6.7067,23.84072 -2.1006,5.09376 -2.5978,7.23657 -1.6793,7.23657 0.7177,0 3.7297,1.30637 6.6933,2.90305 l 5.3884,2.90304 2.8847,-8.65304 c 2.2993,-6.89688 2.9082,-10.56729 3,-18.0849 z m -22.3677,14.68185 c 10.3849,-24.08965 10.2981,-38.75 -0.2295,-38.75 -3.4341,0 -15.4523,6.06057 -21.7875,10.98703 -5.7559,4.47602 -20,18.04016 -20,19.04534 0,1.04058 16.1108,9.19891 22.8952,11.59388 3.6326,1.28236 8.9119,2.34106 11.7317,2.35266 l 5.1268,0.0211 2.2633,-5.25 z m -234.6392,-14.28395 c 4.0101,-0.60134 5.0225,-1.31452 8.6081,-6.06363 5.9608,-7.89504 15.9534,-18.31969 19.14,-19.96752 1.5261,-0.7892 5.2937,-1.4349 8.3724,-1.4349 4.8206,0 5.9153,-0.36927 7.8859,-2.66024 2.8273,-3.28698 5.004,-2.38366 4.1062,1.70405 -0.5759,2.62212 -0.2362,3.05269 4.1914,5.31197 2.65,1.35221 8.3913,5.03154 12.7585,8.17631 l 7.9403,5.71775 3.4848,-1.87492 c 1.9167,-1.03121 5.0557,-3.12259 6.9757,-4.64752 1.9199,-1.52492 4.5897,-3.0484 5.9328,-3.38549 2.9164,-0.73198 16.915,0.157 19.6679,1.24901 1.5222,0.6038 1.208,-0.25165 -1.4537,-3.95791 -7.0369,-9.79875 -12.9791,-14.23342 -30.5982,-22.83559 -13.6597,-6.66908 -17.0031,-8.7224 -18.5947,-11.4199 -2.2671,-3.84243 -4.3188,-4.66323 -11.6564,-4.66323 -4.4573,0 -6.9069,0.79391 -14.2101,4.60549 -4.8534,2.53302 -15.2072,6.69157 -23.0085,9.24121 -20.8924,6.82813 -30.5178,12.06659 -41.3027,22.47842 l -8.8825,8.5752 6.8825,4.12425 c 3.7854,2.26834 10.2455,6.57461 14.3559,9.5695 7.4093,5.39847 7.5052,5.43405 11.1667,4.14222 2.0312,-0.71666 5.7382,-1.6097 8.2377,-1.98453 z m -12.2153,-31.34445 c -1.8487,-1.1718 -1.0506,-5.5272 1.0875,-5.93471 1.0665,-0.20326 1.75,0.28099 1.75,1.23979 0,0.86532 0.1433,1.57332 0.3185,1.57332 2.0796,0 12.7573,-4.04186 18.767,-7.10392 4.2055,-2.14284 9.0942,-3.89608 10.8638,-3.89608 4.2947,0 3.528,1.9604 -1.4393,3.6801 -2.1325,0.73832 -4.5822,1.9599 -5.4437,2.71463 -4.0486,3.54698 -17.3077,8.58714 -22.5663,8.57809 -1.1,-0.002 -2.6019,-0.38495 -3.3375,-0.85122 z m 55.5408,-16.65302 c -1.3868,-1.9055 -2.6984,-2.46858 -5.75,-2.46858 -3.2866,0 -3.9533,-0.33727 -3.9533,-2 0,-1.67731 0.6667,-2 4.132,-2 5.4272,0 10.868,3.2949 10.868,6.58156 0,3.21458 -2.9201,3.15229 -5.2967,-0.11298 z"
       id="path3463"
       inkscape:connector-curvature="0" />
  </g>
</svg>
