<?xml version="1.0" encoding="UTF-8" standalone="no"?>
<!-- Created with Inkscape (http://www.inkscape.org/) -->

<svg
   xmlns:dc="http://purl.org/dc/elements/1.1/"
   xmlns:cc="http://creativecommons.org/ns#"
   xmlns:rdf="http://www.w3.org/1999/02/22-rdf-syntax-ns#"
   xmlns:svg="http://www.w3.org/2000/svg"
   xmlns="http://www.w3.org/2000/svg"
   xmlns:xlink="http://www.w3.org/1999/xlink"
   xmlns:sodipodi="http://sodipodi.sourceforge.net/DTD/sodipodi-0.dtd"
   xmlns:inkscape="http://www.inkscape.org/namespaces/inkscape"
   width="224.60159"
   height="123.25436"
   id="svg2"
   version="1.1"
   inkscape:version="0.48.3.1 r9886"
   sodipodi:docname="Push-ups-2.svg"
   inkscape:export-filename="/home/christian/Dokumente/Website/opentraining/cc_exercises/Push-ups-2.png"
   inkscape:export-xdpi="149.35077"
   inkscape:export-ydpi="149.35077">
  <defs
     id="defs4">
    <radialGradient
       gradientUnits="userSpaceOnUse"
       gradientTransform="matrix(1,0,0,0.91819829,-19.285714,-7.9105395)"
       r="209.56604"
       fy="287.50052"
       fx="398.1105"
       cy="287.50052"
       cx="398.1105"
       id="radialGradient5255"
       xlink:href="#linearGradient5249"
       inkscape:collect="always" />
    <linearGradient
       id="linearGradient5249"
       inkscape:collect="always">
      <stop
         id="stop5251"
         offset="0"
         style="stop-color:#e3e3e3;stop-opacity:1;" />
      <stop
         id="stop5253"
         offset="1"
         style="stop-color:#e3e3e3;stop-opacity:0;" />
    </linearGradient>
  </defs>
  <sodipodi:namedview
     id="base"
     pagecolor="#ffffff"
     bordercolor="#666666"
     borderopacity="1.0"
     inkscape:pageopacity="0.0"
     inkscape:pageshadow="2"
     inkscape:zoom="2.8"
     inkscape:cx="90.136241"
     inkscape:cy="46.549994"
     inkscape:document-units="px"
     inkscape:current-layer="layer1"
     showgrid="false"
     showguides="true"
     inkscape:guide-bbox="true"
     fit-margin-top="0"
     fit-margin-left="0"
     fit-margin-right="0"
     fit-margin-bottom="0"
     inkscape:window-width="1615"
     inkscape:window-height="1026"
     inkscape:window-x="65"
     inkscape:window-y="24"
     inkscape:window-maximized="1">
    <sodipodi:guide
       orientation="-0.70710678,0.70710678"
       position="-1688.915,548.61389"
       id="guide2985" />
  </sodipodi:namedview>
  <metadata
     id="metadata7">
    <rdf:RDF>
      <cc:Work
         rdf:about="">
        <dc:format>image/svg+xml</dc:format>
        <dc:type
           rdf:resource="http://purl.org/dc/dcmitype/StillImage" />
        <dc:title />
      </cc:Work>
    </rdf:RDF>
  </metadata>
  <g
     inkscape:label="Ebene 1"
     inkscape:groupmode="layer"
     id="layer1"
     transform="translate(-260.34359,-452.00741)">
    <path
       style="fill:#000000"
       d="m 320.9272,574.48444 c -0.3584,-0.54697 -0.57342,-0.61561 -1.92857,-0.61561 -0.88594,0 -1.71429,-0.13826 -1.97635,-0.32988 -0.2914,-0.21308 -0.87081,-0.28956 -1.63636,-0.216 -1.0668,0.1025 -1.26013,0.039 -1.93524,-0.63616 -0.50599,-0.50599 -0.75003,-0.99292 -0.75003,-1.49651 0,-0.46793 -0.22973,-0.97621 -0.61562,-1.3621 -0.99701,-0.99701 -0.66015,-2.43614 0.82633,-3.53021 0.41315,-0.30409 1.19029,-1.30137 1.72695,-2.2162 0.73489,-1.25272 2.01534,-2.65692 5.18705,-5.68836 l 4.21128,-4.02505 1.90402,-0.22422 c 6.81837,-0.80295 8.12759,-1.11253 9.18767,-2.17262 0.88897,-0.88897 1.13007,-2.48662 0.72339,-4.79359 -0.41772,-2.36964 -0.9662,-3.74058 -2.39982,-5.99828 -1.9577,-3.08304 -3.7393,-6.58347 -4.00104,-7.86107 -0.13387,-0.65351 -0.34862,-3.01658 -0.47721,-5.25125 -0.1286,-2.23467 -0.42288,-4.91394 -0.65396,-5.95393 -0.39449,-1.7754 -0.49823,-1.95832 -1.69818,-2.99428 -1.32729,-1.1459 -2.68507,-3.38544 -3.56922,-5.88712 -0.25148,-0.71153 -1.11975,-2.99547 -1.92952,-5.07543 l -1.47231,-3.78173 -1.42128,-0.57765 c -1.61419,-0.65606 -3.05315,-1.93492 -4.00061,-3.5555 -0.35632,-0.60945 -1.15506,-1.82836 -1.77497,-2.70869 -1.75495,-2.49213 -2.29421,-3.45796 -2.59739,-4.65201 -0.26811,-1.05592 -0.35193,-1.13477 -1.85779,-1.74729 -1.85493,-0.75451 -3.82041,-1.97935 -5.47034,-3.40899 -0.65154,-0.56455 -1.261,-1.02227 -1.35434,-1.01712 -0.19598,0.0108 -0.61404,0.60388 -4.37105,6.20131 -2.84258,4.23503 -4.90434,7.97205 -5.62978,10.20419 -0.29055,0.89397 -0.39106,1.90415 -0.33896,3.40664 0.0825,2.38082 0.0521,2.43307 -2.20458,3.78188 -0.53326,0.31874 -1.16049,0.90271 -1.39384,1.29775 -0.25561,0.43273 -1.02938,1.02133 -1.94645,1.48071 -0.8372,0.41935 -1.96571,1.12234 -2.50782,1.5622 -1.62502,1.31856 -2.65856,1.84968 -3.60129,1.85064 -1.6658,0.002 -2.07941,-1.39181 -1.02887,-3.46647 l 0.69592,-1.37432 -2.41643,0.9417 c -3.30852,1.28937 -3.24869,1.25019 -5.48635,3.59302 l -1.9879,2.08135 -1.33641,-0.13074 c -3.60315,-0.3525 -5.23293,-1.01761 -5.54554,-2.26314 -0.0852,-0.33958 0.13549,-1.49988 0.52385,-2.7539 0.36911,-1.19189 0.74302,-2.79462 0.83088,-3.56161 0.25876,-2.25854 1.39237,-3.52074 5.05493,-5.62826 2.5771,-1.48295 3.17872,-1.6475 7.57808,-2.07296 1.93523,-0.18716 4.12296,-0.54419 4.8616,-0.7934 1.29261,-0.43612 1.36494,-0.50809 1.92829,-1.91862 0.94881,-2.37567 1.77674,-5.93089 1.77674,-7.62953 l 0,-1.57842 -0.84422,-0.27861 c -1.90101,-0.62739 -7.06815,-4.48775 -10.20313,-7.62274 -2.29011,-2.2901 -4.55978,-5.72973 -5.25792,-7.96821 -0.44697,-1.43315 -0.55241,-2.34438 -0.54732,-4.73005 0.008,-3.56629 0.40132,-5.24828 1.98161,-8.4658 2.05028,-4.17442 5.53797,-6.99132 10.11835,-8.17226 3.45512,-0.89083 8.13428,-0.52753 10.83551,0.84129 1.44684,0.73317 3.69751,3.08336 4.67109,4.87764 0.46989,0.86599 0.91776,1.35579 1.37693,1.50584 0.61105,0.19968 0.82415,0.0911 2.08691,-1.06296 3.25791,-2.97755 7.82905,-5.57586 10.83109,-6.15658 1.08672,-0.21022 3.66555,-0.2583 8.86481,-0.16528 10.9759,0.19636 17.78308,1.08261 23.01267,2.99608 2.99083,1.09433 4.9763,1.47371 10.43532,1.99403 1.64285,0.15658 1.80385,0.12501 2.95494,-0.57943 1.22775,-0.75135 3.33129,-1.27915 5.09804,-1.27915 0.67283,0 1.46082,-0.29346 2.64489,-0.98499 0.92758,-0.54175 2.55367,-1.33787 3.6135,-1.76916 1.74913,-0.7118 2.22564,-0.79391 5.16289,-0.88959 5.28907,-0.17228 8.49701,0.71165 15.51586,4.27534 4.20783,2.13645 3.82259,2.02482 9.36136,2.71249 0.59048,0.0733 1.46374,0.44435 2.05664,0.87384 0.95945,0.69502 1.20752,0.75336 3.6015,0.84691 3.23724,0.12649 5.03885,0.545 8.93122,2.07465 1.70445,0.66982 3.67343,1.34938 4.37548,1.51011 1.42066,0.32527 1.11487,0.4444 7.95771,-3.10035 3.51827,-1.82254 6.55784,-2.79661 9.64458,-3.09072 3.62008,-0.34492 6.04581,0.12765 11.40933,2.22269 l 1.72371,0.6733 4.30929,-0.18895 c 4.16466,-0.1826 4.38932,-0.21962 6.69434,-1.10315 1.60676,-0.61587 2.7908,-1.26053 3.62842,-1.97551 1.36349,-1.16386 2.06849,-1.45466 4.41987,-1.82321 2.26807,-0.35548 3.71369,0.007 4.79142,1.19926 1.07456,1.18941 1.46536,2.38674 1.4957,4.58254 l 0.0242,1.74842 1.23121,-0.72172 c 0.67718,-0.39693 1.34203,-0.81001 1.47747,-0.91796 0.49047,-0.39091 3.42709,-1.22936 4.3058,-1.22936 0.49508,0 1.50179,0.30474 2.2371,0.67718 1.79849,0.91097 2.42827,2.19107 2.75617,5.60206 0.21751,2.26293 0.17392,2.82833 -0.53861,6.97795 -1.03631,6.03592 -1.28722,9.51177 -0.95525,13.2335 0.30245,3.39031 0.0921,4.43303 -1.34791,6.68065 -0.80626,1.25853 -4.52405,4.92727 -5.53239,5.45943 -0.30391,0.16039 -1.07958,0.27106 -1.72371,0.24593 -0.64414,-0.0252 -1.86221,0.0423 -2.70684,0.14998 -1.69447,0.21591 -3.32439,-0.21709 -4.11796,-1.09398 -0.34723,-0.38368 -0.64869,-0.44013 -1.74579,-0.32689 -1.50808,0.15564 -2.43432,-0.27106 -2.82629,-1.30202 -0.12696,-0.33392 -0.49866,-0.70897 -0.82601,-0.83343 -0.32736,-0.12446 -0.75185,-0.44994 -0.94332,-0.72331 -0.19147,-0.27337 -0.8462,-0.71053 -1.45496,-0.97148 -1.45373,-0.62314 -2.05541,-1.53945 -2.06305,-3.14181 -0.005,-1.06625 -0.12919,-1.39527 -0.82557,-2.18839 -0.71246,-0.81147 -0.80451,-1.06584 -0.70429,-1.94626 0.0634,-0.55703 0.51243,-1.95691 0.99781,-3.11085 0.82918,-1.97127 0.86417,-2.16023 0.57884,-3.12655 l -0.30367,-1.02848 -1.22608,0.68028 c -0.67434,0.37415 -2.00174,1.16196 -2.94978,1.75068 -0.94805,0.58872 -2.49939,1.42865 -3.44743,1.86652 -1.79887,0.83084 -8.73361,3.14754 -10.30303,3.44197 -0.61494,0.11537 -1.0321,0.38313 -1.29791,0.83311 -0.37929,0.64208 -3.80921,2.73443 -5.8535,3.57078 -0.52583,0.21512 -1.91096,0.46196 -3.07806,0.54853 -1.77059,0.13131 -2.42785,0.30962 -3.96884,1.07668 -3.94574,1.96409 -9.06967,3.33007 -13.42033,3.57771 -1.35435,0.0771 -3.03886,0.30844 -3.74336,0.51412 -1.05589,0.30826 -1.63986,0.32699 -3.3243,0.10663 -1.12386,-0.14703 -3.09609,-0.37811 -4.38271,-0.51352 -1.28663,-0.1354 -3.44443,-0.42565 -4.79512,-0.645 -2.83604,-0.46056 -5.78364,-0.34849 -7.59472,0.28876 -0.95414,0.33573 -1.79577,0.39573 -4.30929,0.30721 -3.0328,-0.1068 -3.18526,-0.13893 -5.24598,-1.1059 -2.82532,-1.32576 -4.90131,-1.96666 -6.98849,-2.15748 -1.33266,-0.12184 -2.08152,-0.35776 -3.30184,-1.0402 -1.55467,-0.86941 -1.60994,-0.88051 -3.69383,-0.74123 -2.56385,0.17136 -3.74373,0.56779 -5.39011,1.81107 -0.68987,0.52095 -2.18784,1.36025 -3.32885,1.86512 -1.87598,0.83008 -2.43703,0.95231 -5.86164,1.27701 -2.5153,0.23849 -4.22212,0.52977 -5.08251,0.86734 -0.71248,0.27954 -1.74949,0.50826 -2.30445,0.50826 -0.97885,0 -1.00383,0.0203 -0.83475,0.67717 0.32721,1.27138 0.86221,4.8615 0.86314,5.79222 4.4e-4,0.58599 0.3534,1.63131 0.95577,2.83181 0.52515,1.04661 1.19708,2.7887 1.49317,3.87131 0.37544,1.37276 0.83716,2.36416 1.52587,3.27635 1.74213,2.30745 2.02274,3.72609 1.40265,7.09143 -0.26776,1.45316 -0.24011,1.7123 0.41032,3.84518 0.85683,2.80972 1.0608,4.81985 1.25867,12.40421 0.10333,3.96096 0.0603,6.61925 -0.12944,8.00295 -0.15631,1.13955 -0.34807,3.56784 -0.42615,5.39621 -0.0826,1.93478 -0.32979,4.06453 -0.59135,5.09526 -0.35398,1.39493 -0.39504,1.96778 -0.19344,2.69795 0.3486,1.26252 0.12259,2.64622 -0.61402,3.75932 -1.26981,1.91882 -5.21471,3.86327 -9.31362,4.5907 -4.50222,0.79901 -5.56877,1.32618 -8.75912,4.32938 -2.31168,2.17608 -3.76965,2.92062 -5.7191,2.92062 -1.30692,0 -1.52714,-0.072 -1.88334,-0.61561 z m 3.45781,-0.8572 c 0.34947,-0.13285 1.43708,-1.03776 2.4169,-2.01088 1.81092,-1.79851 4.23345,-3.53397 5.90905,-4.23316 0.50949,-0.2126 1.83921,-0.50912 2.95493,-0.65894 5.2037,-0.69876 8.17103,-2.06681 9.68505,-4.46517 0.48581,-0.76958 0.59273,-1.26216 0.59273,-2.73074 0,-0.98548 0.12547,-2.17889 0.27883,-2.65202 0.15335,-0.47313 0.36151,-2.63319 0.46256,-4.80014 0.10105,-2.16695 0.31928,-6.04531 0.48497,-8.61856 0.42989,-6.6771 0.007,-12.47709 -1.26079,-17.29082 -0.62839,-2.38608 -0.71824,-3.1259 -0.65949,-5.43097 l 0.068,-2.6686 -1.37949,-2.6951 c -0.75872,-1.4823 -1.52102,-3.13834 -1.694,-3.68007 -0.17299,-0.54174 -0.76364,-1.87146 -1.31257,-2.95493 -0.93743,-1.85034 -1.00847,-2.14194 -1.16989,-4.80178 -0.25332,-4.17449 -0.73193,-5.32494 -3.49323,-8.39694 -3.26879,-3.63658 -3.82488,-4.69514 -3.49431,-6.65172 0.18959,-1.12215 0.7749,-1.28645 0.99772,-0.28007 0.38263,1.72821 0.74073,2.35137 2.59538,4.51631 1.0917,1.27434 2.28013,2.73016 2.64098,3.23514 0.5207,0.72871 0.81871,0.91924 1.44426,0.92342 1.62115,0.0109 3.31925,-0.5287 4.22696,-1.34297 1.04479,-0.93724 1.79517,-1.21973 2.66202,-1.00216 0.47687,0.11968 0.59293,0.27394 0.49316,0.65546 -0.12432,0.47542 -0.053,0.49143 1.51322,0.33936 3.52699,-0.34245 5.43702,-1.06299 7.91135,-2.98448 2.09288,-1.62526 3.76701,-2.08055 8.38392,-2.28006 2.09923,-0.0907 4.02216,-0.28357 4.27316,-0.42855 0.4228,-0.24422 0.4024,-0.29809 -0.27725,-0.73208 -0.40349,-0.25765 -1.19334,-0.78972 -1.75521,-1.18236 -0.68145,-0.47621 -1.43344,-0.75347 -2.25856,-0.83276 -0.97023,-0.0932 -1.22061,-0.20479 -1.16109,-0.51732 0.17465,-0.91712 3.22966,-0.461 4.78222,0.714 0.55998,0.4238 1.25656,0.72108 1.69099,0.72166 0.6307,8.8e-4 0.89224,-0.22435 1.78846,-1.53988 1.32174,-1.94015 1.87586,-3.40418 2.34814,-6.20411 0.41768,-2.47613 0.29782,-3.79438 -0.59039,-6.4939 -1.40944,-4.2836 -3.68737,-7.02482 -8.47111,-10.19395 -1.62521,-1.07667 -3.46373,-2.21545 -4.0856,-2.53061 -1.04845,-0.53135 -1.20065,-0.54808 -2.09308,-0.23006 -0.67929,0.24206 -2.24537,0.34612 -5.32359,0.35375 -5.23516,0.013 -8.6255,-0.32078 -11.76784,-1.15845 -1.28663,-0.34298 -3.89309,-0.85738 -5.79215,-1.14309 -1.89906,-0.2857 -3.45039,-0.63027 -3.44743,-0.76571 0.004,-0.1535 0.97926,-0.21546 2.59098,-0.16451 2.75337,0.087 3.0489,0.13669 6.59532,1.10794 1.25733,0.34434 3.36273,0.75566 4.67865,0.91406 2.85173,0.34325 10.45812,0.44425 11.50365,0.15274 0.73576,-0.20514 0.73286,-0.20837 -0.719,-0.80029 -0.87411,-0.35638 -1.95858,-0.59539 -2.7087,-0.59697 -1.73887,-0.004 -7.72147,-0.65442 -10.23888,-1.11374 -1.15118,-0.21004 -3.53361,-0.87097 -5.29426,-1.46875 -7.6856,-2.60939 -25.5911,-3.69876 -32.25804,-1.96257 -2.49482,0.6497 -3.91402,1.45263 -5.8972,3.33646 -1.8458,1.75332 -2.5201,2.60269 -2.26708,2.8557 0.0686,0.0686 0.73183,-0.0516 1.47376,-0.26733 1.86286,-0.54155 1.96754,-0.52006 1.53557,0.31529 -0.43802,0.84704 -0.94905,1.00811 -3.21736,1.0141 -1.2538,0.003 -2.19363,-0.16901 -3.44743,-0.63209 -1.61823,-0.59766 -1.7588,-0.71084 -2.29706,-1.84928 -0.82707,-1.7493 -2.75257,-3.75293 -4.20847,-4.37925 -2.62473,-1.12913 -7.17713,-1.19207 -10.15777,-0.14044 -2.85207,1.00627 -6.55203,3.96061 -7.95149,6.34911 -1.218,2.07881 -2.10721,7.55901 -1.63819,10.09619 0.59224,3.20372 2.25567,6.09411 5.19471,9.02638 2.17297,2.16797 8.06366,6.93173 9.338,7.55157 0.49002,0.23835 1.66141,0.47374 2.62278,0.52705 1.57653,0.0874 1.80627,0.0383 2.48296,-0.53112 1.33716,-1.12515 3.32446,-5.62952 4.54608,-10.30405 0.61344,-2.34732 0.58032,-2.55017 -0.66577,-4.07683 -0.63279,-0.77529 -0.63685,-0.8003 -0.12986,-0.8003 0.73863,0 2.41326,1.59266 2.75116,2.61647 0.23653,0.7167 0.19448,1.22224 -0.25202,3.02921 -0.29475,1.19292 -0.49944,2.48834 -0.45486,2.87871 0.0796,0.69653 0.10635,0.70844 1.43541,0.63824 2.15916,-0.11406 4.88602,-0.55297 5.79494,-0.93274 1.56063,-0.65206 3.31612,-0.32078 3.31612,0.62578 0,0.41801 -0.14042,0.45155 -1.36248,0.32542 -1.15597,-0.11931 -1.44522,-0.0634 -1.9084,0.3689 -0.30026,0.28024 -0.84814,0.58453 -1.21752,0.6762 l -0.6716,0.16667 0.72988,1.06084 c 1.44255,2.09667 5.85521,5.3053 8.30587,6.03954 0.97723,0.29278 1.06034,0.27738 1.51652,-0.28099 0.37325,-0.45685 0.54992,-0.52462 0.77953,-0.29901 0.23146,0.22742 0.20419,0.52339 -0.12367,1.3428 -0.59669,1.49129 -0.34867,2.34834 1.33789,4.62299 0.80134,1.08077 1.72735,2.49738 2.05779,3.14801 1.23443,2.43061 3.01191,3.54384 6.44696,4.03768 2.3821,0.34245 3.51983,0.82928 3.71014,1.58756 0.35984,1.43369 -0.39944,2.05345 -1.07073,0.87399 -0.36299,-0.63774 -0.57993,-0.75785 -1.37122,-0.75916 -0.79592,-9.5e-4 -0.91829,0.0669 -0.79834,0.44483 0.078,0.24551 0.29675,0.99347 0.48628,1.66215 0.65134,2.29794 2.33137,6.96204 2.94137,8.16581 0.94121,1.8574 2.40743,3.56283 4.25817,4.9529 0.92736,0.69652 1.80034,1.26747 1.93993,1.26878 0.1396,9.5e-4 0.37931,-0.33007 0.53267,-0.73638 0.15335,-0.4063 0.44601,-0.73872 0.65033,-0.73872 0.30831,0 0.35997,0.371 0.3037,2.18136 -0.0373,1.19977 -0.14931,2.31324 -0.24891,2.4744 -0.26447,0.42793 -0.78563,-0.0794 -0.95584,-0.93038 -0.16226,-0.81133 -1.31253,-1.69277 -1.70146,-1.30384 -0.17076,0.17077 -0.16329,0.74974 0.0233,1.80819 0.15099,0.85636 0.44566,3.10612 0.65481,4.99948 0.58156,5.26478 1.05696,6.80431 2.95888,9.58197 2.43086,3.55018 3.46256,6.99137 3.25958,10.87211 -0.0972,1.85782 -0.057,2.26186 0.21437,2.15771 0.56236,-0.21579 0.37817,0.6458 -0.26561,1.24243 -1.12019,1.03817 -6.18963,2.43165 -10.34891,2.84472 -2.36035,0.23441 -2.28117,0.18828 -4.09197,2.38386 -0.21389,0.25933 -1.4882,1.43555 -2.83182,2.61383 -1.34361,1.17827 -2.83076,2.7075 -3.30479,3.39829 -0.47402,0.69078 -1.49901,1.99405 -2.27776,2.89617 -0.77875,0.90213 -1.41591,1.78659 -1.41591,1.96548 0,0.17889 0.24932,0.42483 0.55405,0.54655 0.65336,0.26097 0.8168,0.0923 2.71917,-2.80714 1.75113,-2.66887 3.25554,-4.25654 5.51046,-5.81535 1.04901,-0.7252 2.5914,-2.01622 3.42751,-2.86896 1.0994,-1.12127 1.69869,-1.55044 2.16498,-1.55044 0.96233,0 0.79122,0.57769 -0.40178,1.35642 -0.5756,0.37572 -1.36318,1.05996 -1.75017,1.52054 -0.38701,0.46057 -1.55051,1.40186 -2.58557,2.09174 -1.03507,0.68988 -2.19694,1.54399 -2.58194,1.89804 -0.84271,0.77495 -3.37262,4.24305 -3.9724,5.44549 -0.23644,0.47402 -0.81689,1.26602 -1.28989,1.75998 l -0.86001,0.89814 0.51778,0.51778 c 0.31533,0.31533 0.83067,0.51688 1.31807,0.51547 0.70204,-0.002 0.9895,-0.23848 2.34153,-1.92606 0.84769,-1.05806 1.82983,-2.50285 2.18254,-3.21064 0.44722,-0.89746 1.13581,-1.68507 2.27554,-2.60273 0.89884,-0.7237 2.07751,-1.7805 2.61924,-2.34842 0.54174,-0.56793 1.40052,-1.24707 1.9084,-1.50922 0.50787,-0.26214 0.92342,-0.63255 0.92342,-0.82311 0,-0.86753 2.27603,-1.86212 3.42601,-1.49714 0.81052,0.25725 0.5998,0.62241 -0.35915,0.62241 -0.84437,0 -2.08189,0.85768 -2.08189,1.44287 0,0.12873 -0.5018,0.52812 -1.11511,0.88754 -2.05854,1.20639 -5.50765,4.5545 -6.89716,6.69518 -0.71672,1.10419 -1.72465,2.47419 -2.23984,3.04445 l -0.93672,1.03683 0.57369,0.46454 c 0.8122,0.65769 1.89988,0.59425 2.59063,-0.15108 0.70867,-0.76467 1.17908,-0.79053 1.12003,-0.0616 -0.0753,0.92944 -0.0111,1.08439 0.56368,1.36162 0.71274,0.34373 1.23047,0.35885 2.01926,0.0589 z m -0.60335,-4.15072 c 0,-0.79582 1.84995,-3.06639 3.9208,-4.81225 1.1052,-0.93175 2.16587,-1.99655 2.35702,-2.3662 0.37392,-0.72309 1.52865,-1.33162 2.2597,-1.19083 0.70971,0.13668 0.52225,0.53478 -0.47236,1.0031 -0.52111,0.24537 -0.98022,0.6691 -1.06721,0.98498 -0.084,0.3049 -1.09709,1.3198 -2.25138,2.25534 -1.15429,0.93554 -2.60145,2.34836 -3.21591,3.13962 -1.17059,1.50739 -1.53066,1.73939 -1.53066,0.98624 z m 15.68609,-43.78104 c -0.34021,-0.3402 -0.1531,-2.44924 0.30726,-3.46324 0.25801,-0.56832 0.93212,-1.64655 1.498,-2.39607 l 1.02889,-1.36274 -0.6533,-0.77639 c -1.23527,-1.46803 -0.3837,-2.23755 0.97384,-0.88001 1.30116,1.30115 1.18635,1.93702 -0.74614,4.13261 l -1.60492,1.82343 0.0659,1.4689 c 0.0522,1.16394 -0.0132,1.48523 -0.31547,1.54754 -0.20976,0.0433 -0.45908,8.9e-4 -0.55405,-0.0941 z m -7.31377,-7.47598 c 0,-0.13436 -0.61631,-1.68311 -1.36956,-3.44166 -1.02343,-2.3893 -1.35015,-3.4322 -1.29278,-4.12656 0.0518,-0.62765 0.19662,-0.92916 0.44613,-0.92916 0.27624,0 0.35086,0.23518 0.29598,0.93275 -0.0585,0.74432 0.17311,1.36615 1.14674,3.07806 1.39644,2.45532 1.9016,3.75643 1.68132,4.33047 -0.16558,0.4315 -0.90783,0.55912 -0.90783,0.1561 z m 7.69788,-4.25488 c -0.68615,-0.8457 -1.80015,-1.98001 -2.47555,-2.5207 -1.91069,-1.52959 -4.23898,-5.16523 -4.23644,-6.61521 0.002,-1.03928 0.83651,-1.98389 2.0361,-2.30425 1.07028,-0.28584 1.13814,-0.35485 1.21056,-1.23123 0.06,-0.72691 0.18958,-0.94452 0.59665,-1.00263 0.44262,-0.0632 0.54125,0.0833 0.66332,0.98497 0.19384,1.43195 -0.20967,1.96452 -1.88967,2.4941 -1.6964,0.53474 -2.05838,1.0679 -1.50985,2.22383 0.59185,1.24723 2.62669,3.40744 4.62973,4.91497 2.21193,1.66475 2.41111,1.90098 2.63496,3.12507 0.311,1.7008 -0.24261,1.67781 -1.65981,-0.0689 z m 11.41838,-20.43309 c -0.19163,-0.30474 -0.49808,-0.98235 -0.68101,-1.50584 -0.36413,-1.04198 -1.47238,-2.12627 -2.17328,-2.12627 -0.54275,0 -0.81697,0.88955 -0.47259,1.53302 0.1795,0.33539 0.16138,0.57602 -0.0638,0.84732 -0.27859,0.33568 -0.36563,0.31574 -0.76283,-0.1748 -0.38238,-0.47222 -0.42406,-0.82192 -0.28323,-2.37612 l 0.16515,-1.82243 -1.27504,-1.22897 c -1.20904,-1.16536 -1.40976,-1.70292 -0.63586,-1.70292 0.54473,0 2.06863,1.46083 2.58998,2.48279 0.26063,0.51086 0.69794,0.99995 0.97181,1.08688 0.87508,0.27773 1.97287,1.37765 3.22079,3.22698 0.66793,0.98983 1.21441,1.91549 1.21441,2.05704 0,0.51442 -1.45396,0.27669 -1.81452,-0.29668 z m 5.0488,-2.58557 c -0.28267,-0.23701 -0.65507,-0.87012 -0.82757,-1.40691 -0.46094,-1.4344 -2.65295,-2.80321 -2.65295,-1.65666 0,0.24499 0.1627,0.66053 0.36154,0.92343 0.53499,0.70733 0.45384,1.0936 -0.22975,1.0936 -0.79426,0 -1.10081,-0.61567 -1.28416,-2.57914 -0.0818,-0.87529 -0.35114,-1.92447 -0.59867,-2.33151 -0.5112,-0.84058 -1.85442,-1.49171 -3.07727,-1.49171 -0.45553,0 -1.30545,-0.12763 -1.88868,-0.28362 -0.97816,-0.26162 -1.13605,-0.23394 -2.03505,0.35681 -0.53604,0.35224 -1.88625,0.90209 -3.00047,1.22188 -2.1506,0.61726 -2.56712,0.83986 -2.10545,1.12518 0.91661,0.5665 4.50067,3.8475 4.50067,4.1201 0,1.21861 -1.79854,0.29784 -4.33042,-2.21699 l -2.12143,-2.10716 -1.55826,0 c -1.05679,0 -1.67713,0.11887 -1.92762,0.36936 -0.55265,0.55265 -0.65079,0.46277 -0.65079,-0.596 l 0,-0.96539 1.66215,-0.15504 c 7.09072,-0.66144 7.96368,-0.93845 10.1941,-3.23485 2.46027,-2.53306 4.64213,-3.9596 4.64213,-3.03511 0,0.14454 -0.67813,0.9081 -1.50696,1.69678 -0.82883,0.78869 -1.45716,1.5834 -1.39628,1.76603 0.0609,0.18262 0.63466,0.48002 1.27507,0.66091 1.09062,0.30803 1.32346,0.28168 3.67406,-0.41577 1.40361,-0.41648 3.74158,-0.87394 5.30498,-1.03803 2.68658,-0.28197 2.83601,-0.32857 3.84054,-1.19799 0.79967,-0.69212 1.48403,-1.00796 2.91316,-1.34452 1.02739,-0.24195 1.98628,-0.36677 2.13089,-0.2774 0.49448,0.30561 0.26361,0.86265 -0.41424,0.99946 -1.8611,0.37563 -3.35841,0.95634 -4.07202,1.57928 -0.69146,0.60361 -1.16662,0.74158 -3.76566,1.09344 -2.80927,0.38034 -5.03243,0.89985 -5.69313,1.33038 -0.21785,0.14195 -0.12108,0.55804 0.36936,1.58832 0.36549,0.7678 0.77439,1.40193 0.90865,1.40919 0.13427,0.008 0.82653,0.41432 1.53838,0.90459 1.36536,0.94036 3.38217,3.62058 3.16003,4.1995 -0.17324,0.45144 -0.72746,0.40822 -1.33888,-0.10444 z m -29.08996,-1.38204 c 0,-0.61783 0.34255,-1.28975 1.34957,-2.64713 1.59336,-2.14776 1.79044,-2.90796 1.28703,-4.96453 -0.76498,-3.12512 -0.77006,-3.5331 -0.062,-4.9804 0.66456,-1.3583 1.96433,-2.70124 2.3711,-2.44984 0.36053,0.22281 0.26033,1.25216 -0.15547,1.59724 -1.43216,1.18859 -1.71744,2.73321 -0.9698,5.25077 0.53968,1.81733 0.45938,2.50024 -0.5218,4.43765 -2.17945,4.30346 -3.29867,5.57793 -3.29867,3.75624 z m -14.44291,-2.01299 c -0.19403,-0.50566 0.49017,-1.22232 1.74848,-1.83146 1.39024,-0.673 5.25525,-0.71295 6.51987,-0.0674 1.84509,0.94187 1.54653,2.11969 -0.32219,1.27108 -1.81834,-0.82575 -6.02401,-0.47687 -6.57094,0.54508 -0.2979,0.55662 -1.17315,0.60924 -1.37522,0.0827 z m -5.90105,-5.68147 c -0.41776,-1.66446 1.15492,-2.77468 4.29943,-3.03515 1.19258,-0.0988 2.2949,-0.25784 2.44962,-0.35346 0.15471,-0.0956 0.5703,-0.75135 0.92352,-1.45717 0.35324,-0.70583 0.88328,-1.54732 1.17788,-1.86996 1.20438,-1.3191 4.84491,-2.35854 4.84491,-1.38332 0,0.24758 -0.24761,0.36936 -0.75096,0.36936 -2.14378,0 -4.8655,3.21911 -4.52567,5.3527 0.12389,0.77783 0.0488,1.01914 -0.4678,1.50353 -0.7691,0.72111 -2.19888,0.85773 -2.32936,0.22256 -0.0488,-0.23742 0.058,-0.47611 0.23732,-0.53043 1.2844,-0.38907 1.27871,-0.47766 -0.0434,-0.67461 -2.44228,-0.36383 -3.99518,0.14498 -4.65775,1.52612 -0.50578,1.05435 -0.94457,1.17935 -1.15778,0.32983 z m 1.83323,-8.10673 c -0.69092,-0.37521 -1.80887,-2.38467 -2.07344,-3.72692 -0.14501,-0.73567 -0.23955,-0.79462 -1.67525,-1.04464 -1.90239,-0.33129 -5.52684,-1.63606 -6.18183,-2.22542 -0.27087,-0.24372 -0.82492,-0.54902 -1.23123,-0.67844 -0.47367,-0.15089 -0.76696,-0.42718 -0.81742,-0.77008 -0.11588,-0.78754 0.60084,-0.68505 2.0543,0.29378 2.90712,1.95776 3.72603,2.24951 6.31407,2.24951 1.30889,0 2.47025,0.0902 2.58081,0.20044 0.11055,0.11026 0.16526,0.97404 0.12157,1.91956 -0.0785,1.70051 -0.0697,1.72831 0.8226,2.5698 0.4961,0.4679 1.00492,0.85071 1.13072,0.85071 0.12578,0 0.2287,0.16621 0.2287,0.36937 0,0.45906 -0.41878,0.45653 -1.2736,-0.008 z m 20.97317,0.14445 c -0.47402,-0.0968 -1.30345,-0.41645 -1.84318,-0.71042 -0.53973,-0.29395 -1.18501,-0.53446 -1.43396,-0.53446 -0.67202,0 -0.4133,-0.8441 0.28931,-0.94398 0.33819,-0.048 1.1028,0.2452 1.84432,0.70739 1.21609,0.758 1.34185,0.78377 3.15121,0.64571 3.85016,-0.29376 5.0474,-0.96947 5.64411,-3.18547 0.34248,-1.27186 0.17797,-1.55888 -1.37257,-2.39479 -1.32977,-0.7169 -1.85238,-1.32417 -1.46926,-1.70728 0.16032,-0.16034 0.86723,0.17276 2.07179,0.97624 2.08205,1.38879 2.22033,1.55079 2.22551,2.60727 0.005,0.9049 -1.53956,2.99107 -2.78208,3.75899 -1.29973,0.80328 -4.36286,1.1814 -6.3252,0.7808 z m -8.51019,-3.53387 c -0.0931,-0.24256 0.19377,-0.68999 0.79651,-1.24239 0.91794,-0.84128 0.94196,-0.90678 0.94196,-2.56796 0,-1.90301 0.25791,-2.39453 1.53704,-2.92921 1.22314,-0.51128 5.54221,-0.89003 6.67403,-0.58526 1.15632,0.31136 1.98196,1.11986 1.5672,1.53463 -0.21119,0.21118 -0.52905,0.16989 -1.27231,-0.16527 -1.15774,-0.52208 -3.82075,-0.40942 -5.68329,0.24041 -1.36108,0.47488 -1.71294,0.92538 -1.72045,2.2028 -0.008,1.32395 -0.37115,2.83638 -0.7796,3.24482 -0.53888,0.53888 -1.88967,0.71415 -2.06109,0.26743 z m 33.23314,-1.51003 c -0.41987,-0.18278 -1.1103,-0.7602 -1.5343,-1.28315 -0.42402,-0.52295 -1.17127,-1.44947 -1.6606,-2.05893 -0.7219,-0.89914 -1.1495,-1.18092 -2.26758,-1.49428 -1.72909,-0.48461 -2.10933,-1.10796 -0.5137,-0.84215 1.69672,0.28266 2.75524,0.95864 4.40116,2.81059 1.07084,1.20489 1.8549,1.84581 2.61151,2.13476 0.59467,0.22712 1.08123,0.56408 1.08123,0.74884 0,0.43172 -1.10885,0.4235 -2.11772,-0.0156 z m -48.02603,-1.73862 c -0.22618,-0.58939 0.36748,-2.63171 1.17698,-4.04909 1.03138,-1.80588 3.73507,-4.4314 5.38147,-5.2259 0.74489,-0.35946 2.05715,-0.79143 2.91612,-0.95993 2.15168,-0.42209 8.12046,-0.15055 10.87358,0.49469 1.1512,0.2698 2.56402,0.49339 3.13962,0.49687 0.76329,0.005 1.04654,0.10629 1.04654,0.37569 0,0.50703 -2.68458,0.49563 -5.85097,-0.0249 -2.8954,-0.47593 -6.20662,-0.33123 -9.06193,0.39603 -4.31743,1.09968 -6.36318,2.74457 -8.1194,6.52844 -0.59595,1.28401 -1.14605,2.33456 -1.22246,2.33456 -0.0764,0 -0.2022,-0.16493 -0.27955,-0.3665 z m 26.61413,-5.07234 c -0.36112,-0.58429 0.31703,-0.73922 2.20801,-0.50445 2.14136,0.26585 2.9584,0.10896 4.39969,-0.84484 0.67575,-0.44719 1.04941,-0.56431 1.22861,-0.38512 0.36188,0.36189 -0.12158,0.88074 -1.39525,1.49731 -0.85069,0.41181 -1.52478,0.5048 -3.6592,0.5048 -1.61845,0 -2.67952,-0.1021 -2.78186,-0.2677 z m -64.42871,54.77552 c 0.31706,-0.0849 0.99142,-0.77733 1.53116,-1.57215 0.87896,-1.29431 1.20733,-1.54455 3.69989,-2.81953 1.50444,-0.76953 3.34027,-1.60728 4.07965,-1.86166 0.73937,-0.25439 2.18981,-0.90556 3.22321,-1.44706 1.03339,-0.5415 1.9708,-0.92774 2.08313,-0.85831 0.40173,0.24827 -0.67817,1.78853 -1.96168,2.79793 -0.71855,0.5651 -1.52151,1.38014 -1.78435,1.8112 -0.54182,0.88861 -0.63186,2.04355 -0.17193,2.20535 0.48075,0.16913 1.46836,-0.27793 2.27776,-1.03107 0.40631,-0.37805 1.4036,-1.05418 2.2162,-1.50251 0.81262,-0.44832 2.10574,-1.37883 2.87363,-2.06777 0.76789,-0.68895 1.69912,-1.4821 2.06942,-1.76255 0.63579,-0.48152 0.68419,-0.66105 0.86946,-3.22484 0.27875,-3.85748 1.21622,-6.14941 4.96143,-12.12983 0.79948,-1.27663 2.22713,-3.79153 3.17254,-5.58867 1.68718,-3.20713 1.71135,-3.27917 1.30683,-3.89654 -0.35365,-0.53974 -0.59161,-0.62882 -1.67661,-0.62764 -0.69546,8.9e-4 -1.7077,0.12189 -2.24944,0.26919 -1.04218,0.28336 -2.33932,1.32249 -2.33932,1.87399 0,0.18079 -0.31397,1.02115 -0.69772,1.86748 -0.93437,2.06071 -1.861,2.81353 -3.72233,3.02412 l -1.45502,0.16461 -0.29688,1.26295 c -0.26346,1.12083 -2.09458,6.72399 -2.56538,7.84999 -0.1281,0.30639 -0.0659,0.43093 0.21554,0.43093 0.60562,0 0.47478,0.38218 -0.3759,1.09797 -1.84331,1.55105 -1.98544,1.58136 -10.30939,2.19818 -0.8708,0.0645 -2.18836,0.46355 -3.69024,1.11759 -3.59923,1.56738 -4.88024,2.61897 -5.27218,4.32795 l -0.16941,0.73872 0.46184,-0.73872 c 0.9255,-1.48036 5.66989,-4.55554 7.02828,-4.55554 0.97487,0 0.8003,0.32541 -0.51294,0.95612 -2.11702,1.01674 -4.73296,2.76079 -5.33418,3.55631 -0.76614,1.01373 -2.90227,6.03138 -2.78582,6.54375 0.0572,0.25178 0.23427,0.0613 0.49006,-0.52719 0.22025,-0.50677 1.26528,-2.13314 2.32227,-3.61415 2.06896,-2.89892 3.06524,-3.73814 5.16509,-4.35077 0.70033,-0.20433 1.75302,-0.69659 2.33932,-1.09392 0.9954,-0.6746 1.68161,-0.91621 1.68161,-0.5921 0,0.60052 -0.83004,1.18026 -3.00228,2.09687 -1.38863,0.58596 -2.93602,1.4369 -3.43863,1.89098 -0.96824,0.87474 -3.67916,4.88443 -4.28879,6.34349 -0.32199,0.77062 -0.32059,0.88384 0.0124,1.01164 0.54154,0.20781 1.11373,-0.0739 1.11373,-0.54826 0,-0.70127 1.52876,-3.12469 2.73075,-4.32885 1.18943,-1.19159 3.42162,-2.44484 6.05028,-3.3969 0.83424,-0.30215 1.82456,-0.8706 2.20071,-1.26321 0.80795,-0.84333 1.08425,-0.89674 1.08425,-0.2096 0,0.8116 -1.11931,1.62488 -3.34441,2.43002 -3.80068,1.37524 -4.78342,2.13025 -6.72741,5.16842 -1.15809,1.8099 -1.22406,2.1691 -0.45514,2.47816 0.69388,0.27891 0.68437,0.27824 1.36691,0.0954 z m 206.21521,-18.78538 c 0.10041,-0.01 0.51353,-0.60338 0.91802,-1.32011 0.43381,-0.76867 1.18761,-1.62186 1.83788,-2.08021 1.24634,-0.8785 2.79591,-3.04946 3.08198,-4.31783 0.11092,-0.49178 0.0539,-1.81722 -0.1358,-3.16 -0.61613,-4.36005 -0.40948,-7.96959 0.80896,-14.13265 0.85308,-4.31496 0.86563,-6.96455 0.0406,-8.62098 -1.10973,-2.2285 -2.75666,-2.79691 -5.63078,-1.94339 -0.92933,0.27598 -1.77011,0.79153 -2.81495,1.72607 -1.05139,0.9404 -2.0436,1.54712 -3.3715,2.06168 -2.6763,1.03705 -3.63538,1.22569 -7.10933,1.39837 -3.05801,0.15201 -3.09414,0.14744 -4.81702,-0.60874 -2.4192,-1.06179 -3.78786,-1.34106 -6.63029,-1.3529 -3.82221,-0.0159 -6.26753,0.68615 -11.19764,3.21488 -4.45093,2.28298 -7.05927,3.19662 -9.78761,3.42837 -1.94973,0.16561 -2.20407,0.57128 -0.36194,0.57729 1.38291,0.005 1.90514,0.27578 1.67676,0.87095 -0.15055,0.39233 -0.45304,0.41737 -3.29863,0.27308 -3.83207,-0.1943 -5.636,-0.60699 -8.12625,-1.85906 -1.28644,-0.64681 -2.8848,-1.1752 -4.86373,-1.60786 -1.62119,-0.35444 -3.14786,-0.68919 -3.3926,-0.74388 -0.24475,-0.0547 -0.41027,-0.0251 -0.36782,0.0659 0.0424,0.0909 0.59266,1.218 1.2227,2.50464 1.21111,2.47328 1.58108,3.4915 1.80835,4.97693 l 0.13982,0.91389 2.76088,-0.0212 c 1.51848,-0.0116 3.26977,0.058 3.89174,0.15478 1.37188,0.21341 3.02102,1.09671 3.13298,1.67808 0.0911,0.47306 -0.65182,0.88143 -0.90282,0.49626 -0.0879,-0.13489 -0.41643,-0.38045 -0.73004,-0.54568 -0.66652,-0.35116 -6.49894,-0.84027 -7.47181,-0.62658 l -0.66449,0.14594 -8.8e-4,3.0008 c -4.4e-4,1.7566 -0.15885,3.75771 -0.38211,4.82637 -0.4251,2.03475 -1.80057,5.15771 -3.03362,6.8877 l -0.81004,1.1365 1.04911,0.0834 c 1.51462,0.12038 5.15198,-0.41361 7.56674,-1.11085 3.47018,-1.00199 5.85423,-2.32138 8.34902,-4.62059 2.59083,-2.38771 4.37933,-3.63397 5.07193,-3.53423 0.98002,0.14113 0.62396,0.80989 -1.05829,1.98773 -0.92518,0.64778 -2.11661,1.63151 -2.64764,2.18609 l -0.96547,1.00833 1.37862,-0.15234 c 3.10091,-0.34266 5.52967,-1.78378 7.12,-4.22471 1.18015,-1.81138 1.31945,-1.94576 2.54995,-2.45989 l 0.91478,-0.38222 -0.37961,0.73408 c -0.42658,0.82492 -0.47783,1.09457 -0.17213,0.90563 0.11412,-0.0705 1.46256,-0.46949 2.99655,-0.88659 3.58954,-0.976 5.67479,-1.85433 9.13723,-3.8487 3.8802,-2.235 6.26083,-3.41196 8.24832,-4.07786 1.49782,-0.50184 2.16946,-0.56811 5.75861,-0.56811 4.25843,0 5.28852,0.21401 5.11732,1.06316 -0.0723,0.35892 -0.37548,0.40267 -2.26741,0.3273 l -2.18387,-0.087 0.14867,0.91618 c 0.084,0.51739 0.7031,1.71818 1.42243,2.75873 l 1.27376,1.84256 -0.11455,2.37889 c -0.14153,2.93908 -0.58269,3.74572 -3.23301,5.91138 -1.84281,1.50581 -2.37954,2.34404 -2.37954,3.71621 0,1.23542 0.4898,1.56606 2.24827,1.51769 1.40896,-0.0388 1.69424,0.0376 2.562,0.6857 0.97529,0.72844 0.98008,0.72922 3.93141,0.63944 1.62522,-0.0495 3.0371,-0.0975 3.13752,-0.10686 z m -8.43177,-3.10726 c 0,-0.57619 0.67155,-1.75614 1.0911,-1.91713 0.6111,-0.23449 0.71492,0.3121 0.2536,1.33514 -0.43836,0.97211 -1.3447,1.36438 -1.3447,0.58199 z m 5.57761,-0.73943 c -0.63593,-0.2332 -1.09071,-0.27115 -1.3819,-0.11531 -0.57536,0.30793 -1.38087,-0.25962 -1.16539,-0.82113 0.18957,-0.49403 2.05376,-0.55737 3.28634,-0.11166 0.67208,0.24301 1.04925,0.21825 2.20001,-0.14451 1.61099,-0.50781 2.22744,-0.26224 1.46274,0.58273 -0.85787,0.94794 -2.76091,1.2116 -4.4018,0.60988 z m -56.91961,-4.5426 c -0.2958,-0.4786 0.1375,-0.68038 2.39594,-1.11577 1.25549,-0.24203 3.05008,-0.69945 3.98798,-1.01649 1.94783,-0.65841 3.34274,-0.75598 3.34274,-0.23379 0,0.46609 -1.47956,1.02237 -5.01642,1.88603 -3.10496,0.75821 -4.45339,0.89562 -4.71024,0.48002 z m 26.38921,-7.05901 c -0.43633,-0.43633 -0.11389,-0.82081 0.68831,-0.82081 1.23666,0 4.24865,-1.02689 5.65966,-1.92957 1.47493,-0.94357 2.17489,-1.01998 2.06199,-0.22507 -0.18213,1.28242 -7.51028,3.87512 -8.40996,2.97545 z m 0.57457,-4.83034 c 0,-0.21966 0.80623,-0.40296 2.64713,-0.60185 4.94819,-0.53457 10.92642,-2.80561 12.93605,-4.91421 1.06496,-1.11742 1.4077,-1.15691 1.4077,-0.16222 0,1.67903 -4.26913,3.82921 -10.71164,5.39502 -2.76399,0.67176 -6.27924,0.83034 -6.27924,0.28326 z m -13.11252,-0.68884 c -0.23702,-0.13805 -0.43093,-0.42259 -0.43093,-0.63231 0,-0.31954 0.23171,-0.35441 1.43037,-0.21529 1.14858,0.13331 1.71861,0.0603 2.89338,-0.37051 1.97704,-0.72504 2.5711,-0.84394 2.5711,-0.51459 0,0.42983 -0.94502,1.26836 -1.86052,1.65088 -0.95755,0.40009 -3.96519,0.45354 -4.6034,0.0818 z m 48.20805,-6.9467 c -0.19618,-0.46952 -0.51359,-0.91388 -0.70536,-0.98748 -0.44557,-0.17098 -2.11007,0.19976 -2.45772,0.54742 -0.44781,0.4478 -1.15188,0.31246 -1.15188,-0.22143 0,-1.2778 3.23252,-1.8612 4.61081,-0.83216 0.50659,0.37822 0.68346,0.72111 0.68346,1.32503 0,1.11789 -0.54357,1.21149 -0.97931,0.16862 z m -13.85693,-0.567 c -0.1693,-0.0777 -0.30781,-0.3612 -0.30781,-0.63009 0,-0.45949 0.11481,-0.47922 1.9084,-0.32798 2.06604,0.1742 3.16651,-0.0154 5.1714,-0.89137 1.01166,-0.44196 1.35789,-0.50005 1.59101,-0.26693 0.45397,0.45397 -0.41687,1.16136 -2.02221,1.64268 -1.36128,0.40813 -5.76636,0.73722 -6.34079,0.47369 z m -76.15115,26.12494 c 2.41779,-0.67176 6.32762,-0.71811 10.58852,-0.12552 5.75283,0.80006 8.13871,0.8972 9.47758,0.38588 2.60674,-0.99552 4.54817,-4.85547 5.64056,-11.21453 0.31394,-1.82744 0.31421,-2.51483 0.002,-5.48433 -0.42545,-4.05009 -0.85637,-5.31339 -2.8553,-8.37068 -0.81909,-1.25278 -1.53455,-2.3271 -1.58991,-2.38739 -0.0554,-0.0603 -2.19808,-0.29627 -4.76159,-0.52438 -5.61814,-0.49995 -5.70714,-0.54013 -9.74056,-4.39862 -2.90062,-2.77481 -4.18106,-3.59919 -7.50025,-4.82887 -1.1512,-0.42648 -2.09308,-0.87535 -2.09308,-0.99748 0,-0.12213 0.38783,-0.28178 0.86185,-0.35477 l 0.86185,-0.13273 -1.3076,-0.67923 c -1.85884,-0.96556 -4.7734,-2.00256 -7.04828,-2.50777 -3.80589,-0.84523 -10.46974,-0.14986 -13.54598,1.41352 l -1.1366,0.57765 1.31382,0.44658 c 1.22775,0.41732 1.40052,0.42083 2.63755,0.0535 1.62768,-0.48337 4.0316,-0.53619 3.88188,-0.0853 -0.10495,0.31608 -0.57558,0.49195 -2.25946,0.84433 -0.53145,0.11121 -0.99594,0.31302 -1.0322,0.44846 -0.0632,0.23616 1.44689,1.40098 4.3378,3.34591 1.76646,1.18844 2.81395,2.30384 2.62528,2.7955 -0.25979,0.677 -0.79855,0.42469 -3.33084,-1.55989 -2.75147,-2.15635 -6.5672,-4.31636 -8.35101,-4.72734 -1.95876,-0.4513 -6.17013,-0.26323 -5.8461,0.26106 0.0674,0.10906 0.48728,0.26672 0.93306,0.35034 1.95178,0.36616 13.0276,7.29685 14.80501,9.26422 1.18537,1.31206 2.64147,4.37539 3.39291,7.13795 0.45209,1.66204 0.56976,2.72697 0.5714,5.17114 l 0.002,3.07805 -1.67989,2.95495 c -0.92394,1.62521 -2.08745,3.38371 -2.58557,3.90777 -0.93074,0.97923 -2.99614,2.11854 -3.8483,2.12281 -0.97606,0.005 0.0222,0.44484 1.6246,0.71601 3.11456,0.52705 4.47978,-0.0852 6.48916,-2.91025 0.40631,-0.57123 1.09141,-1.53096 1.52248,-2.13272 1.02633,-1.43278 1.79759,-3.49757 2.12359,-5.68532 0.21689,-1.45545 0.19012,-2.10508 -0.15246,-3.69929 -0.49944,-2.32413 -0.52794,-3.10916 -0.10785,-2.96913 0.6612,0.2204 1.2002,2.43816 1.2107,4.98154 0.0151,3.63252 -0.91047,6.24871 -3.70382,10.47034 -0.76172,1.1512 -1.46886,2.22312 -1.57142,2.38206 -0.12246,0.18976 0.25794,0.50396 1.10801,0.91517 0.71196,0.34442 1.59006,0.86635 1.95133,1.15984 1.49175,1.21192 4.94222,1.46414 8.08484,0.591 z m -6.34081,-2.61487 c -0.8748,-0.25259 -0.95741,-0.42 -0.49248,-0.99808 0.20274,-0.25209 1.07399,-0.47244 2.55258,-0.64558 2.81459,-0.32959 3.81114,-0.73972 4.4569,-1.83421 l 0.50667,-0.85874 -1.90421,-0.13052 c -1.98159,-0.13582 -3.45729,-0.6831 -3.45729,-1.28217 0,-0.52914 0.33165,-0.62837 1.25433,-0.37528 0.4613,0.12654 1.77405,0.33407 2.91721,0.46118 1.76015,0.19571 2.36014,0.15906 3.91774,-0.2393 2.58861,-0.66206 4.49223,-0.60817 6.31602,0.1788 5.27401,2.27577 5.68625,2.38667 9.29574,2.5008 3.10338,0.0981 3.38586,0.14543 3.38586,0.56691 0,0.6745 -0.89676,0.80756 -4.28369,0.6356 -3.18614,-0.16176 -5.82121,-0.70599 -9.21061,-1.9023 -3.17758,-1.12155 -4.09737,-1.28324 -5.04567,-0.88702 -0.44183,0.18461 -1.75738,1.21953 -2.92345,2.29983 -1.16606,1.0803 -2.50958,2.14899 -2.9856,2.37487 -0.94157,0.4468 -2.99705,0.51144 -4.30005,0.13521 z m 9.41687,-14.9949 c -0.44793,-0.72478 1.96106,-5.68169 2.94465,-6.05912 0.8809,-0.33805 0.8174,0.26536 -0.23868,2.26772 -0.60686,1.15061 -1.10338,2.24828 -1.10338,2.43925 0,1.12111 -1.14718,2.08901 -1.60259,1.35215 z m 72.53493,13.52718 c 0.27909,-0.39195 1.16755,-1.22057 1.97433,-1.84139 0.81535,-0.6274 1.68394,-1.55418 1.95554,-2.08657 0.85015,-1.66642 0.66811,-2.80201 -0.98883,-6.16875 -0.81261,-1.65113 -1.47746,-3.151 -1.47746,-3.33306 0,-0.25021 -0.2855,-0.29711 -1.16967,-0.19214 -1.65867,0.19691 -5.04106,1.03905 -5.32874,1.32672 -0.15876,0.15877 -0.0991,0.69613 0.17317,1.55988 0.55647,1.76532 0.52991,2.10215 -0.26649,3.38082 -0.82743,1.32849 -1.2881,2.34578 -1.2881,2.84449 0,0.20472 0.36013,0.8205 0.8003,1.3684 0.65309,0.81296 0.80085,1.21488 0.80338,2.18522 0.004,1.31463 0.59304,2.18154 1.83315,2.69521 0.37372,0.1548 0.93691,0.62963 1.25152,1.05516 l 0.57204,0.77372 0.3242,-1.42754 c 0.17832,-0.78515 0.55257,-1.74823 0.83166,-2.14017 z m -2.72258,0.67921 c 0,-0.60238 0.21041,-1.07911 0.7144,-1.61865 0.39293,-0.42062 0.82962,-0.76477 0.97045,-0.76477 0.56754,0 0.55009,0.56956 -0.0364,1.18967 -0.34186,0.36144 -0.65869,0.93306 -0.70407,1.27026 -0.0464,0.3449 -0.27101,0.64902 -0.51342,0.69522 -0.34335,0.0655 -0.43093,-0.0914 -0.43093,-0.77173 z m 1.72257,-4.35419 -2.04706,-1.47829 -0.44975,0.73955 c -0.50152,0.82469 -1.19572,0.9874 -1.19572,0.28027 0,-0.58794 0.91301,-1.75692 1.37222,-1.75692 0.19332,0 0.35149,0.11081 0.35149,0.24624 0,0.13544 0.32874,0.24625 0.73052,0.24625 0.51616,0 1.09449,0.32326 1.97101,1.10173 1.03407,0.91841 1.35828,1.07818 1.9483,0.96017 0.88299,-0.17659 1.28373,0.33289 0.63499,0.80727 -0.74835,0.5472 -1.17535,0.39959 -3.316,-1.14627 z m -33.17252,-16.63241 c 2.51412,-0.37196 4.59072,-0.81076 5.10177,-1.078 5.76763,-3.0161 8.76903,-4.28694 12.26035,-5.19125 1.60996,-0.417 2.78046,-0.53055 5.5405,-0.53748 3.2293,-0.008 3.75582,0.0583 6.82361,0.86111 4.76989,1.24816 5.26932,1.29361 7.4978,0.68224 2.81969,-0.77358 3.72946,-1.30937 4.09286,-2.41047 0.69411,-2.10317 0.20529,-4.26905 -1.26283,-5.59541 -0.83024,-0.75006 -1.1424,-0.87721 -2.1409,-0.87208 -2.0207,0.0104 -3.22735,0.43083 -4.70297,1.63862 -0.76499,0.62613 -1.83412,1.33373 -2.37586,1.57246 -1.72753,0.76123 -6.76165,1.74548 -9.6651,1.88966 -2.48243,0.12328 -2.77025,0.18494 -2.77025,0.59347 0,0.81749 -1.15842,0.51693 -3.09554,-0.80317 -1.01616,-0.69249 -2.64684,-1.54636 -3.62373,-1.89749 -1.55535,-0.55905 -2.15885,-0.63811 -4.85422,-0.63602 -3.40621,0.003 -5.49881,0.4916 -9.47425,2.21362 -2.33925,1.01328 -5.4873,2.871 -5.08972,3.00354 0.15497,0.0516 0.28178,0.30419 0.28178,0.56119 0,0.64489 -0.89328,0.82191 -3.18366,0.63089 -2.60308,-0.21708 -4.40704,-0.72166 -7.15862,-2.00226 -1.28663,-0.59882 -2.89337,-1.20413 -3.57054,-1.34516 -1.02595,-0.21366 -6.52549,-0.7191 -6.52549,-0.59974 0,0.0205 0.28118,0.54032 0.62485,1.15519 0.34366,0.61489 0.70646,1.59843 0.80622,2.18566 l 0.18138,1.0677 3.28294,0.24974 c 3.09945,0.23578 3.31245,0.28576 3.81086,0.8944 0.41669,0.50881 0.89112,0.7049 2.25163,0.93061 2.54632,0.42243 7.86094,1.86709 9.97291,2.71091 1.01577,0.40584 2.04427,0.7417 2.28557,0.74636 0.24131,0.005 2.3467,-0.2738 4.67865,-0.61884 z m -6.41016,-2.76076 c -1.01518,-0.1715 -0.62411,-0.75854 0.61561,-0.92412 2.62495,-0.35058 5.10734,-1.13668 7.28142,-2.30582 3.26742,-1.7571 4.84612,-2.08961 4.84612,-1.02068 0,0.32151 -0.27243,0.4773 -1.04654,0.59848 -0.57559,0.0901 -2.43166,0.81694 -4.12459,1.61522 -3.57943,1.68782 -5.9167,2.31656 -7.57202,2.03692 z m 42.52767,-4.62305 c -0.94773,-0.69921 -1.45886,-0.7513 -2.43237,-0.24788 -0.75977,0.39289 -1.00397,0.29397 -1.00397,-0.40669 0,-0.63508 1.12349,-1.00843 2.44199,-0.81153 1.31819,0.19688 2.23666,0.75737 2.23666,1.36494 0,0.72154 -0.36154,0.75098 -1.24231,0.10116 z m -64.51918,0.83408 c -0.73072,-1.85385 -0.85059,-2.03257 -2.10206,-3.13415 -0.70301,-0.61882 -1.48451,-1.06115 -2.03631,-1.15256 -0.49251,-0.0816 -1.72655,-0.34931 -2.7423,-0.59492 -1.01576,-0.24562 -1.88124,-0.41491 -1.92329,-0.37622 -0.042,0.0387 0.95524,0.90271 2.2162,1.92001 1.26096,1.0173 2.62509,2.2066 3.03138,2.64286 0.75975,0.81578 2.86994,1.95549 3.62852,1.95976 0.3962,0.002 0.39095,-0.09 -0.0722,-1.26478 z"
       id="path3181"
       inkscape:connector-curvature="0" />
  </g>
</svg>
