<?xml version="1.0" encoding="UTF-8" standalone="no"?>
<!-- Created with Inkscape (http://www.inkscape.org/) -->

<svg
   xmlns:dc="http://purl.org/dc/elements/1.1/"
   xmlns:cc="http://creativecommons.org/ns#"
   xmlns:rdf="http://www.w3.org/1999/02/22-rdf-syntax-ns#"
   xmlns:svg="http://www.w3.org/2000/svg"
   xmlns="http://www.w3.org/2000/svg"
   xmlns:xlink="http://www.w3.org/1999/xlink"
   xmlns:sodipodi="http://sodipodi.sourceforge.net/DTD/sodipodi-0.dtd"
   xmlns:inkscape="http://www.inkscape.org/namespaces/inkscape"
   width="899.60358"
   height="471.13065"
   id="svg2"
   version="1.1"
   inkscape:version="0.48.3.1 r9886"
   sodipodi:docname="Push-up-1.svg">
  <defs
     id="defs4">
    <radialGradient
       gradientUnits="userSpaceOnUse"
       gradientTransform="matrix(1,0,0,0.91819829,-19.285714,-7.9105395)"
       r="209.56604"
       fy="287.50052"
       fx="398.1105"
       cy="287.50052"
       cx="398.1105"
       id="radialGradient5255"
       xlink:href="#linearGradient5249"
       inkscape:collect="always" />
    <linearGradient
       id="linearGradient5249"
       inkscape:collect="always">
      <stop
         id="stop5251"
         offset="0"
         style="stop-color:#e3e3e3;stop-opacity:1;" />
      <stop
         id="stop5253"
         offset="1"
         style="stop-color:#e3e3e3;stop-opacity:0;" />
    </linearGradient>
  </defs>
  <sodipodi:namedview
     id="base"
     pagecolor="#ffffff"
     bordercolor="#666666"
     borderopacity="1.0"
     inkscape:pageopacity="0.0"
     inkscape:pageshadow="2"
     inkscape:zoom="0.70000001"
     inkscape:cx="280.12518"
     inkscape:cy="-52.116835"
     inkscape:document-units="px"
     inkscape:current-layer="layer1"
     showgrid="false"
     showguides="true"
     inkscape:guide-bbox="true"
     fit-margin-top="0"
     fit-margin-left="0"
     fit-margin-right="0"
     fit-margin-bottom="0"
     inkscape:window-width="1615"
     inkscape:window-height="1026"
     inkscape:window-x="65"
     inkscape:window-y="24"
     inkscape:window-maximized="1">
    <sodipodi:guide
       orientation="-0.70710678,0.70710678"
       position="-3103.1326,527.06324"
       id="guide2985" />
  </sodipodi:namedview>
  <metadata
     id="metadata7">
    <rdf:RDF>
      <cc:Work
         rdf:about="">
        <dc:format>image/svg+xml</dc:format>
        <dc:type
           rdf:resource="http://purl.org/dc/dcmitype/StillImage" />
        <dc:title />
      </cc:Work>
    </rdf:RDF>
  </metadata>
  <g
     inkscape:label="Ebene 1"
     inkscape:groupmode="layer"
     id="layer1"
     transform="translate(-1674.5611,-82.580487)">
    <path
       style="fill:#000000"
       d="m 1907.758,552.82478 c -52.1231,-3.33423 -62.4647,-4.7975 -84.6931,-11.98344 -10.7238,-3.46678 -27.7726,-10.68837 -37.2058,-15.75974 -2.6944,-1.44855 -5.4394,-2.63372 -6.1,-2.63372 -2.793,0 -9.9085,-6.56755 -14.0473,-12.96549 -5.0047,-7.7364 -9.0466,-17.24066 -12.9857,-30.53451 -3.8947,-13.14441 -4.5243,-32.85994 -1.5142,-47.42253 4.69,-22.68993 12.9251,-37.80611 30.0461,-55.15222 6.325,-6.40813 12.748,-12.57333 14.2733,-13.70045 l 2.7734,-2.0493 0.6274,-15.93795 c 0.57,-14.4776 0.4214,-16.74592 -1.6218,-24.75616 -3.6281,-14.22455 -2.0574,-23.83171 7.1904,-43.97959 10.0663,-21.93106 11.7026,-32.78461 6.697,-44.42055 -1.6758,-3.8953 -2.9002,-5.20689 -6.2614,-6.7072 -6.5101,-2.90585 -23.2563,-15.94249 -33.2275,-25.8671 -9.8205,-9.77455 -17.3429,-20.3101 -21.3544,-29.90815 -2.3146,-5.53812 -2.5511,-7.38586 -2.5726,-20.0988 -0.027,-15.97991 1.7958,-23.84677 8.2261,-35.5 4.6048,-8.34509 15.9259,-19.604128 23.9362,-23.804948 16.7674,-8.79336 41.8608,-9.46493 56.474,-1.51141 6.0069,3.26935 13.6541,11.519708 17.518,18.899708 2.5245,4.82167 3.2436,5.43277 8.2441,7.00562 5.2306,1.64521 5.5259,1.6422 6.5281,-0.0665 7.3225,-12.48387 21.781,-23.022218 37.0098,-26.975338 13.4618,-3.49442 62.5474,-1.19814 96.392,4.50933 12.2455,2.06504 17.123,3.42392 35.1479,9.792218 5.7728,2.03954 13.5665,3.66393 24.2908,5.06276 l 15.7907,2.05968 5.4048,-3.05027 c 4.2795,-2.41522 7.446,-3.2833 15.2093,-4.16954 7.2652,-0.82939 10.816,-1.74778 13.71,-3.546068 5.3888,-3.34837 16.0266,-7.70925 22.4711,-9.21187 8.5398,-1.99115 27.658,-0.78512 38.4724,2.42697 9.6086,2.85392 25.1115,9.840258 36.1786,16.303818 8.1154,4.73962 14.7433,6.81624 26.2163,8.2139 8.5326,1.03947 12.5583,2.52843 15.4373,5.70975 1.3568,1.49918 3.4546,1.91222 10.9977,2.16525 12.3527,0.41438 19.3741,2.12819 36.1862,8.83255 7.7223,3.07951 15.7225,5.82472 17.7783,6.10045 3.1999,0.4292 6.2283,-0.72955 21.0471,-8.05325 21.2798,-10.51679 30.1727,-13.52224 43.5048,-14.70287 14.5657,-1.28987 23.0213,0.3276 42.7021,8.16842 l 10.0274,3.9949 15.5376,-0.68692 c 12.6241,-0.55811 16.9941,-1.16097 23.3057,-3.21513 7.3083,-2.37855 9.7237,-3.68519 19.4534,-10.52361 3.0173,-2.12072 5.9689,-3.04325 12.5567,-3.92469 10.594,-1.41746 15.1826,-0.31987 19.5744,4.68211 3.7015,4.21579 5.1344,9.02707 5.1417,17.26498 0,3.4375 0.2465,6.25 0.5409,6.25 0.2944,0 3.8552,-1.75895 7.9129,-3.90878 13.0792,-6.92962 21.2909,-7.43725 29.6108,-1.83048 7.9595,5.36395 10.0546,23.11921 5.4102,45.85174 -4.2169,20.64032 -5.6264,35.58548 -4.8706,51.64266 l 0.6709,14.25513 -3.1925,6.48491 c -3.4661,7.04078 -5.6085,9.46556 -17.5516,19.86498 -7.5714,6.5928 -8.0454,6.84133 -12.1632,6.3772 -2.3566,-0.26563 -6.2147,-0.10968 -8.5735,0.34655 -6.8242,1.31992 -13.5619,0.0541 -17.3321,-3.25619 -2.863,-2.51376 -3.7977,-2.7968 -7.3568,-2.22768 -5.2717,0.84298 -9.659,-0.98307 -11.307,-4.70609 -0.7045,-1.59167 -1.6055,-2.89395 -2.0021,-2.89395 -0.3966,0 -2.3384,-1.42003 -4.3151,-3.15562 -1.9767,-1.73558 -5.0209,-3.87308 -6.7649,-4.75 -4.9137,-2.47076 -7.9949,-7.74822 -7.353,-12.59438 0.4597,-3.47082 0.1276,-4.41629 -2.51,-7.1467 -4.2474,-4.39678 -4.1267,-8.29991 0.5659,-18.29949 3.2984,-7.02877 3.7159,-8.7047 3.1346,-12.58138 -0.3689,-2.45983 -1.1471,-4.47243 -1.7293,-4.47243 -0.5822,0 -6.3925,3.15637 -12.9117,7.01415 -6.5193,3.85778 -15.3529,8.36631 -19.6302,10.01895 -8.0696,3.11786 -34.4291,10.9669 -36.8302,10.9669 -0.7532,0 -3.0744,1.69299 -5.1581,3.76221 -2.0838,2.06922 -8.1889,5.9574 -13.5671,8.64042 -8.7531,4.3667 -10.787,4.97092 -19.398,5.76249 -7.6279,0.70119 -11.0902,1.57564 -16.7216,4.2232 -14.6553,6.89003 -31.777,11.21297 -49.8851,12.59512 -6.855,0.52323 -14.4331,1.38946 -16.8402,1.92496 -2.8356,0.6308 -6.8415,0.63157 -11.3767,0.002 -3.85,-0.53429 -11.5,-1.5769 -17,-2.31691 -5.5,-0.74001 -14.7855,-2.16657 -20.6346,-3.17014 -10.9505,-1.87888 -17.2254,-1.55836 -28.3654,1.44892 -10.3514,2.79441 -24.2679,0.81289 -37.3986,-5.32508 -9.4091,-4.3983 -17.7588,-6.86703 -27.2493,-8.0567 -2.7902,-0.34976 -6.5823,-1.86325 -9.4875,-3.78666 -4.6178,-3.05727 -5.2352,-3.19254 -13.4785,-2.95326 -9.6998,0.28157 -15.5981,1.98771 -20.1694,5.83422 -1.7056,1.43516 -6.9521,4.40328 -11.6589,6.59581 -7.9956,3.72454 -9.4446,4.0526 -22.0578,4.99379 -8.3467,0.62284 -15.9811,1.80114 -20,3.08681 -4.2627,1.36371 -9.3395,2.10683 -14.7499,2.15902 l -8.2499,0.0796 -10e-5,7.72717 c 0,5.69891 0.6241,9.3855 2.378,14.04499 1.3079,3.47479 2.6855,9.22257 3.0613,12.77282 0.4784,4.51838 1.9051,8.95851 4.7555,14.79939 2.2396,4.58941 4.2887,10.26639 4.5535,12.61551 l 0.4814,4.27114 10.6351,4.62113 c 31.8676,13.847 56.2404,31.95787 64.8041,48.15439 6.4581,12.21417 12.7978,38.84687 13.9239,58.49346 1.104,19.26133 -1.7439,30.36644 -12.741,49.68212 -7.9407,13.94747 -23.1511,27.94619 -42.6019,39.20831 -3.9875,2.30878 -7.25,4.55909 -7.25,5.00067 0,0.44158 -0.9,1.84059 -2,3.1089 -1.1,1.26831 -2,2.84645 -2,3.50699 0,0.66053 -1.0546,2.33894 -2.3436,3.72979 -1.9179,2.06949 -3.6623,2.66126 -9.6031,3.25787 -6.4781,0.65057 -7.566,0.50241 -10.1075,-1.37663 -2.3078,-1.70623 -3.3474,-1.9158 -5.4806,-1.10476 -5.141,1.95458 -16.1167,4.00051 -26.9652,5.02645 -11.0345,1.04352 -80.7501,2.05682 -92,1.33719 z m 71.5,-6.37111 c 9.625,-0.53084 20.0755,-1.24209 23.2233,-1.58056 l 5.7232,-0.61539 -3.3815,-4.42858 c -1.8598,-2.43573 -5.4995,-9.48044 -8.0881,-15.65493 -9.418,-22.46393 -12.1842,-26.17417 -19.3144,-25.90612 -3.5751,0.1344 -7.9947,2.42812 -8.6477,4.48806 -0.2078,0.65545 -1.1231,3.87159 -2.0339,7.14698 -1.1794,4.24114 -2.7483,7.0475 -5.4508,9.75 l -3.7948,3.79475 -8.7891,0 c -7.1308,0 -10.0147,-0.49028 -15.2841,-2.59834 -5.4752,-2.19044 -8.0386,-2.59469 -16.3284,-2.57508 -9.3867,0.0222 -11.9014,-0.7156 -8.0837,-2.37177 0.9625,-0.41755 7.6532,-0.96608 14.8682,-1.21897 l 13.1182,-0.45979 1.6716,-3.50538 c 0.9194,-1.92795 3.8582,-6.94006 6.5307,-11.13802 2.6726,-4.19796 5.6792,-10.2751 6.6814,-13.50477 1.3651,-4.39912 3.3667,-7.59463 7.9796,-12.73899 5.906,-6.58653 8.4003,-11.83702 8.4003,-17.68234 0,-1.0493 1.4121,-6.53179 3.138,-12.18332 3.035,-9.93846 3.1005,-10.54009 1.9972,-18.34204 -0.8163,-5.77214 -2.4089,-10.78496 -5.5992,-17.62386 -2.4521,-5.25653 -6.1006,-14.05733 -8.1077,-19.55733 l -3.6493,-10 0.8557,-14 c 0.4706,-7.7 0.7485,-19.6116 0.6176,-26.47022 -0.2232,-11.68895 -0.3894,-12.62142 -2.6516,-14.88369 -3.016,-3.016 -7.846,-3.0315 -27.9963,-0.0898 -26.5179,3.87129 -50.4521,9.76717 -73.6044,18.13147 -13.2457,4.78534 -32.7163,13.28386 -39.377,17.18728 -14.4817,8.48686 -33.8078,26.665 -42.2914,39.7793 -12.4332,19.21965 -18.8958,47.29939 -15.4459,67.11061 3.0977,17.78807 11.6385,38.8446 18.6489,45.97701 3.6945,3.7588 22.6833,13.59855 38.4654,19.93226 10.5066,4.21651 28.7684,9.32787 40,11.19575 26.4989,4.40688 88.674,6.69444 126,4.63581 z m 40.341,-3.83009 c 1.5422,-1.7041 1.4571,-2.39798 -1.292,-10.53102 -1.6187,-4.78869 -4.7466,-11.9738 -6.9508,-15.96692 -2.2043,-3.99311 -4.3104,-9.26665 -4.6803,-11.71898 -0.37,-2.45233 -1.5153,-5.8619 -2.5452,-7.57681 -2.0067,-3.3412 -2.457,-6.38197 -0.9452,-6.38197 1.6667,0 4.7135,4.75028 6.9093,10.77237 1.3148,3.60594 4.1248,8.15805 7.2181,11.6929 6.8109,7.78319 7.5502,9.02321 10.4329,17.49868 3.0652,9.01222 6.6783,14.03605 10.0945,14.03605 3.2152,0 3.9458,-2.07811 2.0319,-5.77923 -0.8418,-1.62786 -2.511,-6.86917 -3.7095,-11.64735 -1.4703,-5.86255 -3.4823,-10.70143 -6.1871,-14.88051 -2.2046,-3.4061 -4.3969,-7.59349 -4.8719,-9.30531 -0.475,-1.71182 -2.3221,-5.04146 -4.1047,-7.3992 -1.7825,-2.35774 -3.6808,-4.88227 -4.2185,-5.61007 -0.6536,-0.88481 -0.5878,-1.71301 0.1987,-2.49946 0.9015,-0.90157 1.7865,-0.77628 3.7902,0.53661 2.9341,1.92252 8.4886,10.13535 8.4886,12.55121 0,0.86632 2.021,5.02752 4.491,9.24711 3.3791,5.77236 5.1265,10.38188 7.0574,18.61641 2.7709,11.81684 4.2444,14.84702 6.7519,13.88483 3.0563,-1.17283 3.1429,-7.40166 0.2871,-20.65487 -3.0906,-14.34343 -5.6382,-20.27086 -12.0569,-28.05308 -5.0403,-6.1111 -5.3793,-7.00709 -2.6509,-7.00709 2.1195,0 7.7361,6.45293 12.46,14.31541 2.2655,3.77053 3.8644,8.64764 5.6464,17.22235 l 2.486,11.96224 0.6536,-5.5 c 1.5267,-12.84786 -3.2157,-26.77636 -12.4347,-36.52028 -2.855,-3.01753 -9.4264,-8.7474 -14.6031,-12.73306 -5.1768,-3.98567 -10.87,-9.36899 -12.6516,-11.96296 -3.762,-5.47746 -5.111,-12.56372 -3.518,-18.47975 0.6038,-2.24224 0.9626,-10.89066 0.8251,-19.88592 -0.2616,-17.11558 0.4112,-20.86902 5.5622,-31.0341 5.9485,-11.73889 6.5035,-17.82553 4.138,-45.38393 -0.3327,-3.87626 0.012,-9.44817 0.8552,-13.80372 1.625,-8.39876 1.3365,-10.3864 -3.657,-25.19628 -9.9519,-29.51528 -9.8689,-29.13228 -9.102,-41.9818 0.8825,-14.78627 -0.4751,-19.99096 -8.0258,-30.76737 -9.5073,-13.569 -10.7949,-16.09261 -11.5398,-22.61641 -0.3852,-3.37393 -0.762,-5.49041 -0.8372,-4.70328 -0.1677,1.75342 -11.9827,21.85557 -13.338,22.69315 -0.5352,0.33079 -1.4294,0.14513 -1.9872,-0.41259 -1.5652,-1.56529 0.061,-6.99522 3.1553,-10.53598 8.5437,-9.77608 9.1349,-12.20853 6.3781,-26.23933 -1.5888,-8.0862 -1.5788,-8.59256 0.25,-12.67049 2.476,-5.52094 7.1083,-10.7659 9.5085,-10.7659 2.9487,0 2.3093,3.31667 -1.524,7.90472 -4.4088,5.27702 -5.0462,8.50578 -3.1351,15.88085 0.8555,3.30172 1.5692,7.28816 1.586,8.85877 0.026,2.44484 0.1787,2.60087 1.0614,1.08463 1.3318,-2.28753 2.9081,-1.29553 2.9081,1.83005 0,2.87852 0.4421,2.91416 18,1.45099 17.2234,-1.43529 20.8748,-2.82468 29.9011,-11.37765 4.1794,-3.96023 9.0184,-8.1976 10.7533,-9.41639 2.9623,-2.08103 7.3456,-3.01297 7.3456,-1.56175 0,0.35981 -2.7,3.09757 -6,6.0839 -3.3,2.98633 -6,6.03203 -6,6.76823 0,1.54615 6.2235,3.84028 9.9582,3.67087 1.398,-0.0634 5.4668,-1.05232 9.0418,-2.19756 3.575,-1.14524 12.2741,-2.68134 19.3313,-3.41356 12.1018,-1.25562 13.0114,-1.50424 16,-4.37288 4.9761,-4.77637 20.1687,-8.03773 20.1687,-4.32955 0,0.86026 -2.7508,2.06226 -7.4515,3.25602 -4.8582,1.23375 -8.4068,2.80754 -10.1963,4.52193 -2.4412,2.33886 -4.2708,2.82471 -16.5484,4.39456 -7.5921,0.97075 -15.6795,2.51889 -17.9721,3.44032 l -4.1684,1.67532 2.4184,3.56364 c 1.3301,1.96 2.4183,4.35205 2.4183,5.31568 0,0.98002 0.9915,2.00522 2.25,2.32662 3.5877,0.91616 9.4753,6.3474 13.8264,12.75462 4.0806,6.00896 4.3038,7.88762 0.9372,7.88762 -2.1768,0 -6.0136,-4.47648 -6.0136,-7.0162 0,-2.07095 -5.3838,-7.58941 -8.0963,-8.29873 -2.4397,-0.63802 -2.6213,2.86449 -0.2824,5.44894 1.8326,2.02498 1.2097,4.86599 -1.0668,4.86599 -2.4356,0 -4.2882,-4.06106 -4.83,-10.58785 -0.9321,-11.22793 -1.7707,-11.96469 -17.9416,-15.76236 l -6.7172,-1.5775 -5.3395,2.80877 c -2.9368,1.54483 -8.6371,3.61687 -12.6674,4.60455 l -7.3279,1.79578 9.3846,8.76391 c 7.2872,6.80524 9.1215,9.03706 8.2078,9.98609 -2.3167,2.40599 -6.5192,-0.12736 -15.1204,-9.11469 l -8.6121,-8.99875 -6.441,0.29102 c -9.7369,0.43995 -9.992,1.71019 -2.5121,12.50738 8.0039,11.55357 11.1014,17.6346 12.3582,24.26169 0.5686,2.99843 1.5019,5.9175 2.0739,6.48682 1.3926,1.38599 12.5208,1.16033 17.0777,-0.3463 2.006,-0.66327 5.0654,-2.56109 6.7985,-4.21738 2.6494,-2.53186 3.8203,-2.96284 7.3526,-2.7063 3.4185,0.24826 4.1711,0.65775 4.0388,2.19749 -0.151,1.75808 0.4185,1.85135 8.0271,1.31441 10.4261,-0.73579 19.338,-3.97624 27.4737,-9.98975 9.0912,-6.71974 16.5169,-8.70527 32.7697,-8.76213 8.7236,-0.0305 13.8622,-0.48927 15.8921,-1.41879 1.65,-0.75552 2.478,-1.41022 1.8398,-1.45489 -0.6381,-0.0447 -3.5306,-1.95497 -6.4279,-4.24511 -4.0933,-3.23562 -6.3427,-4.26718 -10.0898,-4.62723 -3.8813,-0.37294 -4.8221,-0.82872 -4.8221,-2.33611 0,-3.77545 13.2953,-1.43581 18.5481,3.264 1.1265,1.00785 3.3765,2.09495 5,2.41578 2.6414,0.52196 3.3352,0.0679 6.5959,-4.31662 5.4772,-7.36497 7.78,-12.50009 9.8954,-22.06561 2.4487,-11.07323 2.4335,-15.00411 -0.093,-24.12315 -5.3328,-19.24394 -13.7331,-30.17127 -33.5975,-43.7044 -16.8965,-11.51119 -17.458,-11.75585 -23.5982,-10.28284 -6.5861,1.57998 -38.876,0.66051 -51.2502,-1.45937 -4.95,-0.84802 -12.7361,-2.6634 -17.3025,-4.03419 -4.5664,-1.37079 -13.6789,-3.27779 -20.25,-4.23778 -8.1955,-1.1973 -11.9475,-2.15104 -11.9475,-3.03701 0,-1.55063 -0.8648,-1.53422 12.5764,-0.23873 6.008,0.57907 13.7239,1.96168 17.1464,3.07246 11.2578,3.65374 24.5129,5.82847 42.7772,7.01834 12.314,0.80222 19.5795,0.85789 23,0.17622 l 5,-0.99642 -5,-2.30074 c -3.63,-1.67034 -7.8769,-2.50825 -15.5,-3.05806 -22.7082,-1.63786 -41.6297,-5.43784 -58.5211,-11.75269 -8.3717,-3.12973 -36.3461,-7.732218 -62.4789,-10.279318 -17.4038,-1.6963 -43.1254,-0.77916 -53.1541,1.89528 -13.6867,3.64999 -22.9613,9.695038 -27.6362,18.012748 l -2.2727,4.04382 3.5315,-0.57309 c 3.9888,-0.64728 4.5268,0.4779 1.5268,3.19286 -2.5854,2.33979 -9.705,3.40101 -16.0684,2.39509 -7.3113,-1.15575 -15.5747,-5.1987 -16.4505,-8.04852 -1.4386,-4.6811 -9.5469,-14.807838 -13.8979,-17.357738 -12.7317,-7.46126 -34.2234,-6.9975 -50.2493,1.08432 -8.455,4.263858 -21.2285,16.669368 -24.2671,23.567988 -2.6053,5.91484 -5.2871,20.82582 -5.2795,29.3546 0.012,13.66012 7.137,28.22678 20.2986,41.5 9.3663,9.44577 30.6691,26.98167 35.3734,29.11852 5.7674,2.61972 15.4489,2.53185 18.8856,-0.17143 1.4354,-1.1291 4.8637,-6.55516 7.6185,-12.05791 4.9309,-9.84963 12.4803,-31.58035 12.2577,-35.28365 -0.063,-1.04196 -1.4869,-3.60307 -3.1651,-5.69136 -3.4538,-4.2978 -3.6527,-4.91417 -1.5861,-4.91417 2.3007,0 8.6885,6.12354 10.2257,9.80262 1.2396,2.96661 1.1681,4.15378 -0.6489,10.77678 -1.1231,4.0936 -2.042,9.24842 -2.042,11.45516 l 0,4.01224 8.25,-0.64477 c 8.0796,-0.63144 10.9352,-1.1056 21.4441,-3.56065 3.9741,-0.92842 5.7943,-0.93989 7.75,-0.0488 3.0942,1.40983 3.7173,5.71081 0.688,4.74935 -4.3839,-1.39138 -9.1756,-0.84962 -11.4591,1.2956 -1.266,1.18934 -3.0604,2.16247 -3.9874,2.16247 -0.9271,0 -1.6856,0.38248 -1.6856,0.84996 0,1.67679 5.7865,8.7922 10.5975,13.03123 5.7766,5.08997 8.494,6.58881 17.4962,9.65066 l 6.7107,2.28245 -2.6138,-5.65715 c -1.737,-3.75949 -2.7484,-7.9214 -3.015,-12.40715 -0.3638,-6.12065 -0.2229,-6.75 1.5116,-6.75 3.2444,0 4.3128,2.12097 4.3128,8.56144 0,5.70084 0.3671,6.71814 4.9098,13.60816 2.7004,4.09568 5.3906,9.22054 5.9783,11.38855 2.6062,9.61505 8.6038,14.46087 23.449,18.94606 10.2481,3.09625 12.9182,5.19534 12.4719,9.80475 -0.2337,2.41334 -0.793,3.19104 -2.2953,3.19104 -1.2036,0 -2.1234,-0.78808 -2.3343,-2 -0.4502,-2.58676 -2.9511,-4.5 -5.8823,-4.5 -2.1552,0 -2.279,0.30303 -1.7363,4.25 0.6192,4.50361 3.5153,18.92667 5.9736,29.75 2.4124,10.62106 6.9352,18.6319 15.2107,26.94082 l 7.4108,7.44082 2.0203,-3.19082 c 3.6408,-5.75036 6.1109,-2.8647 3.3832,3.95248 -0.9109,2.27658 -1.4102,5.31317 -1.1096,6.74797 0.3007,1.4348 0.1429,3.2368 -0.3506,4.00445 -1.4394,2.23899 -4.0992,0.49358 -4.0992,-2.69002 0,-3.56963 -4.617,-8.44344 -5.9521,-6.28319 -0.4657,0.75356 -0.7477,11.76677 -0.6266,24.4738 0.2366,24.82961 0.9519,29.23928 6.1984,38.20954 4.7112,8.05493 7.5087,18.22581 8.0931,29.42364 0.4667,8.94169 0.1327,12.63617 -2.2151,24.5 -3.1115,15.72326 -3.8035,17.37238 -12.9514,30.86486 -3.6005,5.31034 -6.5463,10.23861 -6.5463,10.9517 0,0.71309 -2.6904,5.49255 -5.9788,10.62101 -7.2565,11.31691 -7.8605,12.94605 -5.4526,14.70674 2.4388,1.78332 9.4783,1.68213 12.1288,-0.17434 1.1782,-0.82529 2.915,-3.86279 3.8595,-6.75 4.286,-13.10159 7.2614,-15.74946 17.6973,-15.74946 5.8636,0 6.5933,0.25062 9.4629,3.25 1.7102,1.7875 4.974,7.525 7.2529,12.75 7.5472,17.30398 12.4792,26.43364 16.6073,30.74194 4.5742,4.77393 5.4091,5.03564 7.7637,2.43376 z m -27.341,-84.86304 c 0,-1.56722 2.7849,-2.75888 8.5,-3.63714 4.3784,-0.67284 9,0.99522 9,3.24831 0,1.03433 -2.1185,1.41153 -8.75,1.55788 -6.812,0.15034 -8.75,-0.10858 -8.75,-1.16905 z m 6,-110.33821 c 0,-5.61557 2.3054,-10.11011 8.7636,-17.0858 l 5.4071,-5.84027 -2.0853,-2.92856 c -2.7653,-3.88346 -2.7385,-6.35601 0.064,-5.93937 2.5228,0.37503 5.4765,4.12927 6.444,8.19061 0.6227,2.6143 0.01,3.50861 -6.9004,10 -7.2771,6.84023 -7.5966,7.33107 -7.8888,12.11995 -0.2325,3.81112 -0.7182,5.06956 -2.0545,5.32332 -1.4401,0.27348 -1.75,-0.40643 -1.75,-3.83988 z m -24.7799,-29.72445 c 0.053,-0.9625 -1.3254,-6.44113 -3.0622,-12.17472 -3.3634,-11.10335 -4.0031,-18.12892 -1.8158,-19.94416 2.0364,-1.69009 2.5915,-0.38858 2.0155,4.72577 -0.4199,3.72784 0.056,5.92442 2.4148,11.14311 3.2902,7.27999 5.5851,15.61268 4.6959,17.0513 -1.0435,1.68856 -4.3503,1.06485 -4.2482,-0.8013 z m 32.1182,-10.52836 c -1.7389,-2.8719 -5.4692,-7.8556 -8.2894,-11.07487 -6.2289,-7.11023 -11.9713,-18.17424 -12.7089,-24.48646 -0.444,-3.7993 -0.1428,-5.16839 1.6303,-7.41031 1.1962,-1.5125 2.7047,-2.75251 3.3523,-2.75558 0.6476,-0.003 2.8374,-0.46662 4.8663,-1.03013 3.1645,-0.87889 3.7332,-1.4823 4,-4.24442 0.2367,-2.4495 0.7897,-3.21987 2.3111,-3.21987 1.6338,0 2.0559,0.76827 2.3049,4.19518 0.3929,5.40777 -1.8712,7.76793 -8.2965,8.64861 -5.5063,0.75474 -7.5084,2.05824 -7.5084,4.88868 0,4.22781 6.7016,14.39287 15.25,23.13147 8.5656,8.75613 8.75,9.04677 8.75,13.79035 0,6.36145 -1.6229,6.23743 -5.6617,-0.43265 z m 62.282,-60.01008 c -0.9692,-0.70865 -3.1927,-4.19615 -4.9412,-7.75 -2.3543,-4.78532 -3.9077,-6.71157 -5.9879,-7.42531 -3.6018,-1.23578 -4.8542,0.53923 -4.0316,5.71375 0.4865,3.06101 0.2924,3.75 -1.0565,3.75 -2.5133,0 -3.6112,-4.18619 -2.666,-10.1655 1.0386,-6.56971 0.158,-8.99779 -4.9145,-13.55143 -3.8564,-3.46198 -4.3729,-5.28307 -1.4983,-5.28307 2.3526,0 8.3188,5.92405 9.6367,9.56851 0.6824,1.88732 1.6851,3.43149 2.2281,3.43149 2.6968,0 8.2267,5.34454 13.29,12.84443 4.4927,6.65482 5.3487,8.52469 4.2272,9.23469 -1.8601,1.17755 -2.2146,1.14715 -4.286,-0.36756 z M 1896.258,196.95169 c 0,-6.46937 6.3285,-10.44507 16.6849,-10.48185 8.525,-0.0303 10.8209,-1.12131 13.0909,-6.22082 3.7289,-8.37699 12.0004,-14.15071 19.4945,-13.60765 5.6837,0.41187 5.3742,2.17494 -0.5003,2.85026 -8.1469,0.93655 -16.3036,10.71376 -15.9644,19.13601 0.1604,3.98247 -0.2036,4.98822 -2.4434,6.75 -3.3688,2.64987 -8.3622,2.80709 -8.3622,0.26328 0,-1.05742 1.1408,-2.22982 2.75,-2.82638 2.4564,-0.91057 1.9794,-1.10184 -4.4669,-1.79121 -6.0517,-0.64718 -7.8238,-0.47339 -10.9763,1.07638 -2.411,1.18531 -3.9619,2.74481 -4.3241,4.34817 -0.3587,1.5883 -1.3702,2.61653 -2.7736,2.81955 -1.8007,0.26049 -2.2091,-0.16756 -2.2091,-2.31574 z m 86.5,-28.16909 c -1.1,-0.29766 -2.769,-1.2228 -3.709,-2.05588 -0.94,-0.83308 -3.1873,-1.81701 -4.994,-2.18652 -1.9466,-0.39813 -3.4191,-1.36861 -3.6142,-2.38208 -0.5112,-2.65446 5.2285,-2.18239 9.6024,0.78976 3.1497,2.14023 4.8052,2.5 11.5042,2.5 14.508,0 19.5754,-2.57764 22.1978,-11.29121 1.6194,-5.38055 1.1751,-6.16197 -5.7372,-10.09227 -3.1295,-1.77947 -4.75,-3.36873 -4.75,-4.65867 0,-2.0441 2.4245,-2.6982 3.5072,-0.94623 0.3439,0.55639 3.0418,2.55749 5.9954,4.44689 8.8161,5.63955 9.4624,8.68291 3.4107,16.05982 -6.5988,8.04382 -10.5753,9.88808 -21.8688,10.14254 -5.2494,0.11828 -10.4445,-0.0285 -11.5445,-0.32615 z m -78.3282,-1.59405 c -2.5155,-1.20588 -6.4937,-8.24437 -7.6298,-13.49899 -0.8079,-3.73653 -2.2578,-4.71354 -8.541,-5.75552 -5.6767,-0.94141 -18.8604,-6.1316 -21.501,-8.46456 -1.1,-0.97187 -3.35,-2.19911 -5,-2.72719 -3.3263,-1.06459 -4.5339,-3.96041 -2.0491,-4.91391 0.9808,-0.37638 4.1975,1.11982 8.3239,3.87169 11.3541,7.57218 12.8761,8.13961 22.2252,8.28596 4.675,0.0732 9.0984,0.20705 9.8296,0.29746 1.0215,0.12629 1.1872,1.61299 0.7153,6.41439 -0.7174,7.29899 0.442,10.25746 5.192,13.24805 4.5986,2.89533 3.3043,5.57698 -1.5651,3.24262 z m 46.8282,-12.62302 c 0,-0.4853 1.8,-2.68236 4,-4.88236 3.858,-3.85792 4,-4.23423 4,-10.59459 0,-5.83999 0.2721,-6.77284 2.3774,-8.15226 3.6043,-2.36169 7.8022,-3.30755 18.0026,-4.0563 7.8056,-0.57297 9.8918,-0.39702 13.0475,1.10044 4.0418,1.91797 5.4502,3.98978 3.8202,5.61974 -0.6905,0.6905 -2.1001,0.45515 -4.3828,-0.73176 -6.2088,-3.22841 -25.5062,-0.89578 -27.7173,3.35041 -0.4952,0.95097 -1.2112,4.7141 -1.5911,8.36251 -0.8324,7.99449 -2.972,10.86652 -8.0954,10.86652 -1.9036,0 -3.4611,-0.39706 -3.4611,-0.88235 z m 127.3739,-4.03137 c -1.7194,-1.04843 -5.6905,-5.31346 -8.8247,-9.47783 -4.843,-6.43489 -6.3254,-7.73189 -9.8738,-8.63939 -6.1404,-1.57034 -6.6754,-1.80578 -6.6754,-2.93768 0,-1.40568 1.7397,-1.29786 7.7216,0.47856 4.287,1.27311 6.1996,2.74692 12.1941,9.39646 4.6726,5.18325 8.4939,8.44044 11.1483,9.50251 2.2213,0.88878 3.764,2.06037 3.4284,2.60353 -0.9931,1.60687 -5.7582,1.12289 -9.1185,-0.92616 z m -183.1097,-12.01878 c 1.7869,-13.32235 17.1696,-30.29986 31.4671,-34.72937 8.1097,-2.51245 31.855,-1.90988 45.4218,1.15265 6.1137,1.38007 12.6302,2.50922 14.4813,2.50922 2.325,0 3.3656,0.46379 3.3656,1.5 0,2.07369 -9.2615,1.99996 -20.1395,-0.16031 -16.5199,-3.28072 -36.501,-1.36128 -49.4768,4.75287 -8.5492,4.02837 -13.5609,9.30911 -18.873,19.88627 -4.898,9.7524 -7.1142,11.55786 -6.2465,5.08867 z m 104.4858,-13.70183 c -0.9625,-0.28178 -1.75,-1.14109 -1.75,-1.90958 0,-1.12022 2.043,-1.35353 10.3035,-1.17668 9.7447,0.20863 10.53,0.0714 14.4786,-2.52941 4.9353,-3.25073 5.2179,-3.30133 5.2179,-0.93414 0,1.09404 -1.6894,2.76767 -4.25,4.2103 -3.4811,1.96126 -5.8781,2.43581 -13.25,2.62313 -4.95,0.12578 -9.7875,-0.002 -10.75,-0.28362 z m 23.25,406.32546 c 0,-0.71988 -0.6688,-2.18238 -1.4862,-3.25 -1.3598,-1.77591 -1.394,-1.6645 -0.4022,1.30887 1.132,3.39349 1.8884,4.17108 1.8884,1.94113 z m 48.0807,-11.89531 c 18.8926,-12.4439 31.1265,-27.37901 39.4851,-48.20331 3.568,-8.88914 3.6498,-9.39447 3.6575,-22.59251 0.01,-8.3091 -0.6569,-17.34222 -1.7209,-23.49249 -2.3049,-13.32324 -8.5577,-34.21 -12.0306,-40.18694 -4.1698,-7.17642 -16.7249,-19.15091 -27.4718,-26.20149 -9.3827,-6.15562 -28.6144,-16.11023 -38.6832,-20.02302 l -5.1832,-2.01423 -1.6444,4.9508 c -1.5365,4.62612 -1.5285,5.61304 0.1231,15.04904 1.4963,8.54941 1.6014,11.57987 0.6852,19.75829 -0.5953,5.31302 -1.9924,12.13504 -3.1047,15.16004 -10.104,27.47752 -9.3831,24.45598 -8.6307,36.17368 0.4693,7.30816 0.2768,12.72902 -0.6103,17.19218 -1.2574,6.32601 -1.2178,6.66867 1.3423,11.60309 4.0059,7.7213 8.4831,12.66204 16.3744,18.06962 l 7.1684,4.91227 2.9647,-5.22542 c 3.4023,-5.9968 9.6134,-12.72542 11.7466,-12.72542 2.3972,0 1.6433,2.48231 -1.4481,4.76791 -2.9169,2.15657 -9.1173,13.17894 -9.0801,16.14181 0.011,0.87466 2.5328,4.96528 5.6041,9.09028 3.0713,4.125 5.9439,8.42755 6.3835,9.56123 0.4397,1.13368 1.1257,7.09618 1.5246,13.25 0.4954,7.64409 1.106,11.18877 1.9272,11.18877 0.6611,0 5.4407,-2.79188 10.6213,-6.20418 z M 1822.258,346.46744 c 5.225,-2.4083 13.7419,-6.05867 18.9263,-8.11193 l 9.4263,-3.73319 2.9319,-7.33722 c 3.2087,-8.03015 3.315,-12.87963 0.6603,-30.12378 l -1.1988,-7.78655 -6.2864,6.03655 c -3.4575,3.32011 -6.7754,6.03656 -7.373,6.03656 -0.5976,0 -1.0866,-1.41439 -1.0866,-3.14309 0,-2.46328 0.9175,-3.92324 4.2419,-6.75 9.001,-7.65368 12.3908,-11.71699 13.5063,-16.19009 0.6058,-2.42925 2.0462,-12.59081 3.201,-22.58125 2.2279,-19.27332 4.4121,-27.59927 8.5215,-32.48307 4.1393,-4.91924 4.1929,-7.19286 0.2967,-12.58722 l -3.4419,-4.76528 -6.9877,0.0557 c -9.6183,0.0767 -13.0239,2.16313 -16.327,10.0028 -5.4503,12.93574 -8.1428,15.3138 -17.7995,15.7209 -4.2322,0.17842 -5.1057,0.50734 -4.5695,1.72059 1.4228,3.21892 1.5108,8.23494 0.293,16.68792 -0.6983,4.84664 -1.3879,10.6371 -1.5324,12.86768 -0.3591,5.54229 -3.2591,12.70445 -8.249,20.37227 -4.498,6.91214 -7.7901,16.13045 -8.7857,24.6009 -0.4624,3.93411 -0.073,7.08258 1.5274,12.35167 2.1927,7.21882 4.3658,21.07803 3.6623,23.35617 -0.2146,0.69486 -0.6583,4.55129 -0.986,8.56984 l -0.5958,7.30646 4.2622,-2.85731 c 2.3442,-1.57151 8.5372,-4.82773 13.7622,-7.23603 z m 6.9743,-43.55053 c -0.8675,-1.04527 -1.2614,-3.99786 -1.1393,-8.54059 0.1595,-5.93928 -0.2455,-7.79882 -2.8019,-12.86288 -1.6435,-3.25592 -3.4484,-6.2042 -4.0107,-6.55173 -0.5623,-0.34753 -1.0224,-1.7633 -1.0224,-3.14617 0,-7.17532 8.9704,4.29441 10.9617,14.01584 0.5764,2.81407 1.1584,7.99372 1.2932,11.51032 0.2551,6.65467 -0.84,8.51587 -3.2806,5.57521 z m 45.4647,24.00861 c 20.4503,-5.83296 55.5736,-12.42245 66.561,-12.48753 5.466,-0.0324 6.3141,-0.99416 4.566,-5.17791 -1.4811,-3.54488 -11.1186,-41.13243 -11.7375,-45.77784 -0.2015,-1.51291 -1.6809,-3.32781 -3.8285,-4.69694 -9.8537,-6.28194 -10.8156,-7.24536 -14.414,-14.43822 l -3.6437,-7.28331 -7.2211,-2.09778 c -7.2194,-2.09728 -15.5443,-6.77271 -23.3865,-13.13429 l -4.1653,-3.37892 -3.4817,6.24755 c -4.9512,8.88426 -6.5898,15.38515 -7.6629,30.40074 -0.8202,11.47772 -1.4077,14.36994 -4.5548,22.42377 -4.017,10.27986 -4.0596,13.09301 -0.382,25.18614 2.3971,7.88213 2.385,10.57051 -0.088,19.49434 -2.4401,8.80551 -2.4694,9.6367 -0.311,8.80843 0.9289,-0.35645 7.1164,-2.19616 13.75,-4.08823 z m 656.2774,-55.91002 c 8.8209,-0.10036 9.29,-0.35018 12.8398,-6.83734 0.8336,-1.52334 3.3922,-4.12914 5.6859,-5.79067 2.2937,-1.66153 5.9844,-5.57813 8.2016,-8.70355 3.7989,-5.355 4.0296,-6.08766 4.0018,-12.70932 -0.016,-3.86471 -0.4086,-11.30226 -0.872,-16.52789 -1.0141,-11.43719 0.3254,-24.61825 4.5001,-44.2838 4.8086,-22.6508 3.7214,-33.50259 -4.008,-40.00642 -6.1198,-5.1495 -18.8958,-2.89886 -27.1394,4.7809 -8.1106,7.55594 -21.8179,12.06797 -39.7949,13.09931 l -10.6313,0.60992 -10.5,-4.34188 -10.5,-4.34187 -14.5,0.046 c -13.0846,0.0415 -15.3297,0.31762 -23,2.82857 -4.675,1.53041 -13.9659,5.63979 -20.6465,9.13196 -12.8858,6.73586 -27.4325,11.46485 -35.3535,11.49306 -6.7545,0.0241 -8.2163,1.61407 -2.0304,2.20846 9.9567,0.95671 9.3332,4.779 -0.7786,4.77292 -12.7046,-0.008 -24.8481,-2.62645 -35.1828,-7.58737 -8.3528,-4.00953 -32.5665,-11.18362 -33.7504,-9.99966 -0.2124,0.21234 1.2804,3.6947 3.3173,7.73856 4.6547,9.24122 7.4249,17.22384 7.4249,21.39556 l 0,3.22997 13.75,0.41337 c 11.3294,0.3406 14.5883,0.79171 18.5119,2.56248 4.9835,2.24919 6.7698,4.61943 4.8946,6.4947 -0.8122,0.8122 -1.584,0.68525 -2.8828,-0.47419 -2.6731,-2.38627 -8.5467,-3.5785 -21.3632,-4.33627 l -11.5895,-0.68523 -0.6524,12.87605 c -0.3588,7.08183 -1.3262,15.69016 -2.1497,19.12962 -1.6931,7.07119 -7.0976,18.42946 -12.1318,25.49643 l -3.3837,4.75 4.7745,0 c 8.1147,0 20.8021,-1.94348 29.9646,-4.59005 13.4477,-3.88435 21.6608,-8.37074 31.7575,-17.34743 4.95,-4.40091 11.1818,-9.19252 13.8484,-10.64802 4.5079,-2.46058 4.9643,-2.53039 6.5,-0.99428 1.0628,1.06309 1.2835,1.90661 0.6192,2.36594 -0.5679,0.39261 -4.3929,3.02466 -8.5,5.849 -4.1072,2.82434 -8.5585,6.31184 -9.8919,7.75 l -2.4243,2.61484 2.6251,0 c 4.3949,0 12.9947,-2.13078 17.2235,-4.26749 6.3606,-3.21379 10.1563,-6.52174 13.5476,-11.80669 3.7571,-5.85487 8.3277,-9.92582 11.1442,-9.92582 1.9365,0 1.9577,0.12301 0.4232,2.46482 -0.8882,1.35565 -1.615,2.63593 -1.615,2.84508 0,0.85311 25.7207,-6.53634 32.1419,-9.23426 3.8031,-1.59788 12.7392,-6.13192 19.8581,-10.07564 24.2574,-13.43808 31.4061,-15.46821 52.1869,-14.82021 13.4184,0.41843 17.8131,1.49297 17.8131,4.35539 0,1.17328 -1.7178,1.46482 -8.6308,1.46482 l -8.6309,0 0.56,3.45045 c 0.3079,1.89774 2.5043,6.28524 4.8808,9.75 l 4.3209,6.29955 -0.3073,9.5 c -0.387,11.96199 -2.2813,15.53955 -12.2209,23.08121 -9.1052,6.90854 -12.1939,13.49764 -8.6188,18.38676 1.0821,1.47995 2.5214,1.81204 7.1919,1.65942 5.0222,-0.16412 6.4066,0.21649 9.897,2.72109 4.4762,3.21189 7.2813,4.19892 9.5581,3.36321 0.825,-0.30282 5.1974,-0.59265 9.7164,-0.64407 z m -23.7164,-12.84511 c 0,-2.83892 2.6324,-6.72251 4.5567,-6.72251 1.9359,0 1.822,2.55036 -0.2723,6.09571 -2.0501,3.47064 -4.2844,3.79751 -4.2844,0.6268 z m 20.5009,-2.20561 c -2.1004,-0.92495 -3.5586,-1.02118 -4.8666,-0.32116 -2.3028,1.23239 -5.2217,-1.22241 -4.3024,-3.6182 0.7893,-2.05691 6.3931,-2.07151 11.4955,-0.0299 3.4806,1.39267 4.3085,1.39413 8.2702,0.0146 5.912,-2.0587 8.1316,-2.00471 7.7228,0.18785 -0.8024,4.30394 -11.9122,6.58837 -18.3195,3.7669 z m -217.1222,-20.9725 c -0.3441,-0.89686 -0.362,-1.89435 -0.04,-2.21664 0.3223,-0.3223 4.7654,-1.35203 9.8735,-2.2883 5.1082,-0.93627 12.7495,-2.73613 16.9808,-3.99968 7.4764,-2.23267 10.8068,-2.23887 10.8068,-0.0201 0,1.65237 -6.3286,3.94433 -17.9649,6.50612 -16.7525,3.68817 -18.93,3.91179 -19.6564,2.01864 z m 101.288,-25.21107 c -1.8503,-1.85028 -0.4452,-3.33333 3.1582,-3.33333 4.9077,0 16.934,-4.08451 21.838,-7.41685 6.0662,-4.12211 11.4459,-2.70654 6.5506,1.72367 -5.5866,5.05578 -28.8587,11.71464 -31.5468,9.02651 z m 3,-18 c -1.6521,-1.65208 -0.2732,-2.33333 4.7229,-2.33333 17.4546,0 49.54,-11.00317 55.4686,-19.02209 2.6648,-3.60428 5.1418,-3.90485 5.1418,-0.62393 0,6.8059 -16.8686,15.18663 -41.5,20.61813 -8.7373,1.92668 -22.4828,2.71174 -23.8333,1.36122 z m -48.6667,-3.58372 c -1.925,-0.68728 -3.5,-1.92461 -3.5,-2.74961 0,-1.20985 1.2065,-1.43332 6.2372,-1.1553 4.6583,0.25743 7.872,-0.24162 12.6953,-1.97142 6.7211,-2.41047 8.056,-2.30966 6.9677,0.52619 -1.7106,4.45781 -15.6047,7.77634 -22.4002,5.35014 z m 184.2449,-21.99961 c -0.5501,-0.6875 -1.3105,-2.2625 -1.6899,-3.5 -0.5552,-1.81106 -1.4082,-2.24309 -4.3724,-2.21457 -2.0254,0.0195 -4.8076,0.67855 -6.1826,1.46457 -3.4591,1.97745 -5,1.84084 -5,-0.4433 0,-2.95538 3.8531,-5.0567 9.2722,-5.0567 5.9333,0 10.4946,2.22238 11.3212,5.51595 1.0939,4.35839 -1.065,7.08825 -3.3485,4.23405 z m -54.8517,-6.16793 c -1.0463,-2.7266 0.3134,-3.09912 10.0019,-2.74014 8.1891,0.30342 9.9401,0.0423 15.5485,-2.31817 4.2174,-1.77509 6.6531,-2.32708 7.321,-1.65915 3.6544,3.6544 -5.7512,7.18186 -20.9979,7.87506 -9.8598,0.44828 -11.3116,0.30673 -11.8735,-1.1576 z m -217.7009,98.91667 c 10.6177,-3.15312 18.6754,-16.51309 23.109,-38.31568 2.5295,-12.43924 2.5831,-13.39342 1.4487,-25.80001 -1.4631,-16.00208 -2.9258,-20.4159 -10.7605,-32.47052 l -6.2312,-9.58746 -17.8791,-1.80831 c -21.0536,-2.12937 -21.3637,-2.27442 -35.7478,-16.71804 -10.9718,-11.01732 -16.4254,-14.73732 -28.4155,-19.38314 -9.337,-3.61779 -10.4527,-4.94474 -4.7159,-5.60911 2.8449,-0.32945 2.6727,-0.51725 -3.3285,-3.63097 -3.4807,-1.80596 -11.1307,-4.94674 -17,-6.97953 -10.6276,-3.680788 -10.7392,-3.695968 -27.1715,-3.695968 -10.6433,0 -18.4522,0.48699 -22,1.372 -6.2475,1.55849 -15.0018,5.061758 -14.9962,6.001138 0,0.34477 1.9146,1.40814 4.25,2.36305 3.8668,1.58103 4.6849,1.60337 9.1552,0.25 5.606,-1.69722 14.1727,-1.97213 15.0922,-0.48432 0.7327,1.18561 -3.5789,2.99813 -7.132,2.99813 -1.3753,0 -3.3873,0.47451 -4.4709,1.05446 -1.7974,0.96194 -1.4281,1.46649 4.2089,5.75 3.3986,2.58255 8.1888,6.12073 10.6448,7.86262 6.9094,4.90034 10.248,8.49052 10.248,11.02001 0,3.79379 -1.2087,3.17746 -14,-7.13846 -10.4041,-8.39078 -24.1623,-16.06994 -31.5,-17.58179 -6.1658,-1.27041 -14.7781,-1.42165 -19.899,-0.34945 -2.7826,0.58262 -2.69,0.68058 2.3079,2.44065 6.8389,2.40841 18.5194,9.17136 34.8634,20.18569 17.9807,12.11732 23.4398,17.26862 27.685,26.12403 5.7885,12.0749 8.0247,22.27215 8.0344,36.63749 l 0.01,12.50525 -6.4938,10.99475 c -9.5712,16.2051 -14.5159,20.95658 -23.9241,22.98903 -5.2086,1.12523 -1.7036,2.48982 8.1658,3.17914 9.4538,0.66029 14.2941,-0.76288 17.3777,-5.10952 1.0309,-1.45315 4.0744,-5.43699 6.7634,-8.85299 10.0167,-12.72504 14.0593,-26.4249 11.7845,-39.93573 -0.6737,-4.00135 -1.5027,-8.33307 -1.8422,-9.62605 -1.0236,-3.89808 2.7768,-2.24457 4.2541,1.85087 1.8629,5.16477 1.7457,22.52179 -0.1962,29.06095 -2.3028,7.75438 -8.2899,19.21397 -14.7046,28.14543 -4.9289,6.86272 -5.3268,7.77241 -3.6346,8.3095 1.0451,0.33172 4.5962,2.40338 7.8912,4.60369 3.295,2.20031 7.4657,4.42354 9.2682,4.9405 4.8419,1.38864 18.4277,1.07704 25.2906,-0.58007 8.9968,-2.17237 25.2816,-1.81472 44.2817,0.97252 9.195,1.34889 18.0683,2.63146 19.7183,2.85017 1.65,0.2187 3.4808,0.46507 4.0685,0.54748 0.5876,0.0824 3.3434,-0.52574 6.1238,-1.35143 z m -96.6923,-12.69419 c -5.725,-1.24839 -6.3352,-1.88086 -4.434,-4.59528 1.3334,-1.90369 2.4733,-2.21004 8.2407,-2.21485 9.2554,-0.008 14.0441,-1.55703 18.1037,-5.85722 l 3.4337,-3.6372 -7.1299,-0.71899 c -7.1131,-0.71729 -14.2279,-2.96213 -14.1988,-4.47998 0.051,-2.65075 1.8297,-3.50833 5.1158,-2.46602 1.8529,0.5877 6.8442,1.53404 11.092,2.10297 6.3006,0.84389 8.8609,0.74291 13.9007,-0.54821 4.0572,-1.03943 8.9574,-1.448 14.2768,-1.1904 7.1008,0.34386 9.3331,0.96661 18.1067,5.05143 12.4808,5.8108 20.4211,7.71553 32.2426,7.73442 8.4808,0.0136 9.25,0.176 9.25,1.95351 0,6.09403 -29.7602,2.41643 -55,-6.7966 -13.7628,-5.02372 -15.9412,-4.50061 -28.396,6.81895 -10.3702,9.42498 -14.7379,10.99486 -24.604,8.84347 z m 35.6667,-56.47122 c -2.4055,-2.40556 1.6752,-13.65281 7.531,-20.75699 2.8214,-3.42279 5.8023,-4.72884 5.8023,-2.54216 0,0.5688 -1.5733,4.0563 -3.4963,7.75 -1.9231,3.6937 -4.3728,8.85332 -5.4438,11.46582 -1.8632,4.5446 -2.9354,5.54116 -4.3932,4.08333 z m 272.3333,65.62683 c 0,-5.12517 3.6116,-10.56503 10.8468,-16.33791 11.3687,-9.07086 12.7748,-15.40754 6.301,-28.39445 -2.1187,-4.25029 -4.6767,-9.92262 -5.6845,-12.60518 l -1.8323,-4.87737 -6.3909,0.59679 c -9.2229,0.86125 -18.2401,3.57012 -18.2401,5.47954 0,0.85692 0.5274,4.11113 1.1719,7.23158 1.0782,5.22014 0.9995,5.94421 -0.9849,9.0602 -2.3598,3.70558 -6.187,11.61696 -6.187,12.78955 0,0.4054 1.585,2.58881 3.5223,4.85202 3.1627,3.69502 3.4562,4.52729 2.876,8.15602 -0.6027,3.76879 -0.3852,4.277 3.2278,7.54194 2.1306,1.92546 5.2239,4.84058 6.8739,6.47805 3.8082,3.77924 4.5,3.78373 4.5,0.0292 z m -7,-6.81011 c 0,-3.25924 4.242,-9.15005 6.5889,-9.15005 2.081,0 1.7152,3.32899 -0.5191,4.72433 -1.0616,0.66298 -2.0741,2.45488 -2.25,3.982 -0.468,4.06319 -3.8198,4.45255 -3.8198,0.44372 z m 8.3501,-16.23264 c -3.7675,-2.83463 -7.3845,-5.58251 -8.0378,-6.1064 -0.8326,-0.66775 -1.6625,-0.0345 -2.7757,2.11823 -0.8733,1.68892 -2.2514,3.07076 -3.0622,3.07076 -2.2464,0 -1.76,-3.55643 0.9111,-6.66174 1.8194,-2.11513 2.7093,-2.51706 3.75,-1.69365 0.7505,0.59379 2.5774,1.36906 4.0599,1.72284 1.4824,0.35377 4.7738,2.44214 7.3142,4.64082 3.4999,3.02917 5.1825,3.85614 6.9456,3.41364 2.4251,-0.60866 4.4239,1.14624 2.9077,2.55283 -2.8315,2.62675 -5.2895,2.00117 -12.0128,-3.05733 z M 2368.758,164.5007 c 11.1153,-1.62578 12.9953,-2.24136 25.5,-8.34954 23.0855,-11.27657 38.6671,-15.70328 55.2742,-15.70328 11.0492,0 17.6907,1.09954 31.2258,5.16963 13.5339,4.0697 20.4498,4.12704 31.5,0.26119 7.8169,-2.73468 8.596,-3.25321 9.6936,-6.45224 3.129,-9.11952 0.3644,-19.92552 -6.1237,-23.93538 -3.252,-2.00986 -4.4235,-2.18517 -10.368,-1.55158 -7.6777,0.8183 -9.2385,1.48815 -14.5623,6.24987 -2.1232,1.89907 -5.4771,4.12833 -7.453,4.95391 -7.3021,3.05103 -24.8138,6.36784 -36.8587,6.98128 -10.7095,0.54542 -12.2304,0.84242 -12.6564,2.47162 -0.7491,2.86473 -2.6212,2.28098 -11.4764,-3.57859 -11.9334,-7.89639 -17.4838,-9.75653 -30.8302,-10.33225 -10.3215,-0.44524 -11.962,-0.2448 -22.4533,2.74344 -6.2251,1.77307 -14.9393,4.90143 -19.3649,6.9519 -9.8306,4.55468 -18.698,10.02213 -16.2967,10.0482 2.7289,0.0296 2.0546,2.90446 -0.8523,3.63404 -3.0794,0.77289 -14.759,-0.1952 -21.2822,-1.76403 -2.5385,-0.6105 -9.7905,-3.50353 -16.1155,-6.42897 -9.3422,-4.32095 -13.0948,-5.50706 -20,-6.32143 -13.4869,-1.59061 -18.1116,-1.91148 -17.7679,-1.23274 2.2544,4.45156 3.8788,8.42673 4.9577,12.13213 l 1.3102,4.5 11.6912,1.0065 c 10.4859,0.90274 11.9807,1.27543 14.5,3.61528 1.9207,1.78388 4.8641,2.99834 9.3088,3.84079 9.4784,1.79652 28.3577,7.39544 37,10.97284 8.4191,3.48499 9.4507,3.48872 32.5,0.11741 z m -32.5,-11.50751 c 0,-0.87852 1.2873,-1.64003 3.25,-1.92265 14.7551,-2.12457 17.9405,-3.03494 29.0662,-8.30703 12.9083,-6.11672 19.1838,-7.36896 19.1838,-3.82799 0,1.60831 -0.9036,2.11691 -4.7349,2.66495 -2.6042,0.37251 -9.5792,2.92044 -15.5,5.66205 -13.1029,6.06729 -16.9539,7.17259 -25.0151,7.17978 -4.8049,0.004 -6.25,-0.33076 -6.25,-1.44911 z m 167.0644,-12.96772 c -2.1749,-2.62063 -6.5879,-3.53741 -9.573,-1.98873 -3.6362,1.88646 -4.4914,1.78103 -4.4914,-0.55368 0,-2.78456 3.5676,-4.34402 8.632,-3.77319 5.2939,0.59669 9.368,3.10219 9.368,5.76106 0,2.29978 -2.2267,2.61354 -3.9356,0.55454 z m -247.6114,1.17241 c -3.6592,-12.07434 -9.6385,-18.06225 -20.2444,-20.27366 -3.7283,-0.77737 -8.6754,-2.08259 -10.9936,-2.90051 -2.3182,-0.81791 -4.215,-1.33953 -4.215,-1.15915 0,0.18037 4.3919,3.95358 9.7597,8.38489 5.3678,4.43132 10.7543,9.40229 11.97,11.0466 1.316,1.78 4.3467,3.81062 7.4903,5.01864 6.744,2.59153 7.052,2.58576 6.233,-0.11681 z"
       id="path3012"
       inkscape:connector-curvature="0" />
  </g>
</svg>
