<?xml version="1.0" encoding="UTF-8" standalone="no"?>
<!-- Created with Inkscape (http://www.inkscape.org/) -->

<svg
   xmlns:dc="http://purl.org/dc/elements/1.1/"
   xmlns:cc="http://creativecommons.org/ns#"
   xmlns:rdf="http://www.w3.org/1999/02/22-rdf-syntax-ns#"
   xmlns:svg="http://www.w3.org/2000/svg"
   xmlns="http://www.w3.org/2000/svg"
   xmlns:xlink="http://www.w3.org/1999/xlink"
   xmlns:sodipodi="http://sodipodi.sourceforge.net/DTD/sodipodi-0.dtd"
   xmlns:inkscape="http://www.inkscape.org/namespaces/inkscape"
   width="899.25549"
   height="613.89337"
   id="svg2"
   version="1.1"
   inkscape:version="0.48.3.1 r9886"
   sodipodi:docname="One-arm-bicep-concentration-on-stability-ball-2.svg">
  <defs
     id="defs4">
    <radialGradient
       gradientUnits="userSpaceOnUse"
       gradientTransform="matrix(1,0,0,0.91819829,-19.285714,-7.9105395)"
       r="209.56604"
       fy="287.50052"
       fx="398.1105"
       cy="287.50052"
       cx="398.1105"
       id="radialGradient5255"
       xlink:href="#linearGradient5249"
       inkscape:collect="always" />
    <linearGradient
       id="linearGradient5249"
       inkscape:collect="always">
      <stop
         id="stop5251"
         offset="0"
         style="stop-color:#e3e3e3;stop-opacity:1;" />
      <stop
         id="stop5253"
         offset="1"
         style="stop-color:#e3e3e3;stop-opacity:0;" />
    </linearGradient>
  </defs>
  <sodipodi:namedview
     id="base"
     pagecolor="#ffffff"
     bordercolor="#666666"
     borderopacity="1.0"
     inkscape:pageopacity="0.0"
     inkscape:pageshadow="2"
     inkscape:zoom="0.7"
     inkscape:cx="-92.240629"
     inkscape:cy="269.92609"
     inkscape:document-units="px"
     inkscape:current-layer="layer1"
     showgrid="false"
     showguides="true"
     inkscape:guide-bbox="true"
     fit-margin-top="0"
     fit-margin-left="0"
     fit-margin-right="0"
     fit-margin-bottom="0"
     inkscape:window-width="1201"
     inkscape:window-height="886"
     inkscape:window-x="83"
     inkscape:window-y="39"
     inkscape:window-maximized="0">
    <sodipodi:guide
       orientation="-0.70710678,0.70710678"
       position="-1956.8878,842.87268"
       id="guide2985" />
  </sodipodi:namedview>
  <metadata
     id="metadata7">
    <rdf:RDF>
      <cc:Work
         rdf:about="">
        <dc:format>image/svg+xml</dc:format>
        <dc:type
           rdf:resource="http://purl.org/dc/dcmitype/StillImage" />
        <dc:title></dc:title>
      </cc:Work>
    </rdf:RDF>
  </metadata>
  <g
     inkscape:label="Ebene 1"
     inkscape:groupmode="layer"
     id="layer1"
     transform="translate(-528.31624,-255.6272)">
    <path
       style="fill:#000000"
       d="m 728.79051,866.67449 c -2.14546,-2.1116 -3.91366,-2.8108 -7.61677,-3.0119 -2.65247,-0.144 -5.90289,-0.9697 -7.22317,-1.8347 -1.43037,-0.9372 -3.36937,-1.3297 -4.79789,-0.9712 -3.06385,0.769 -8.93192,-1.6624 -10.33374,-4.2818 -0.59427,-1.1104 -1.08049,-3.3287 -1.08049,-4.9296 0,-1.6408 -0.87262,-3.7005 -2,-4.7208 -3.59544,-3.2538 -2.1237,-8.1684 3.88358,-12.9685 2.04332,-1.6327 5.71792,-5.8895 8.16578,-9.4594 2.44785,-3.57 6.92564,-8.4449 9.95064,-10.8332 3.025,-2.3883 9.49088,-7.8066 14.36863,-12.0406 4.87775,-4.2341 9.82775,-8.2227 11,-8.8638 1.17225,-0.641 8.8981,-1.6259 17.16854,-2.1886 16.79708,-1.1429 23.52919,-3.0017 26.80866,-7.4022 1.69,-2.2677 2.04938,-4.2178 2.02713,-11 -0.0331,-10.105 -2.21719,-17.9158 -7.57459,-27.0889 -4.15151,-7.1084 -9.93625,-19.2149 -12.49732,-26.1548 -1.05979,-2.8718 -1.56108,-9.359 -1.77728,-23 -0.39657,-25.0202 -1.34711,-29.6934 -7.17884,-35.2936 -5.78635,-5.5566 -8.44454,-11.3825 -16.34493,-35.8223 l -6.5,-20.1078 -6.25407,-3.2494 c -6.55857,-3.4075 -10.45731,-7.5171 -14.25607,-15.0269 -1.25196,-2.475 -5.11906,-8.8426 -8.59356,-14.1502 -3.47449,-5.3076 -6.83094,-11.6902 -7.45877,-14.1836 -1.14139,-4.53286 -1.14223,-4.53353 -8.28952,-6.6876 -3.93141,-1.18486 -10.96469,-3.93439 -15.62953,-6.11005 -9.91318,-4.62348 -8.11766,-5.69263 -17.01473,10.13149 -8.45396,15.03596 -17.46536,34.30576 -20.04964,42.87376 -1.87047,6.2013 -2.10818,8.5862 -1.49512,15 0.40092,4.1944 0.73263,8.665 0.73713,9.9346 0.009,2.6554 -2.72469,6.0495 -5.83,7.2375 -1.17363,0.449 -3.62288,3.1142 -5.44276,5.9228 -1.81989,2.8086 -4.90964,6.0583 -6.86612,7.2216 -1.95648,1.1633 -5.58224,4.0289 -8.05724,6.3679 -6.00212,5.6724 -11.78477,9.4418 -14.48456,9.4418 -5.12848,0 -7.06684,-7.0427 -3.97499,-14.4425 l 1.54045,-3.6868 -10.13952,5.2083 c -9.37561,4.8159 -10.54384,5.755 -15.50623,12.4652 -8.30669,11.2323 -9.20166,11.735 -19.4103,10.9035 -15.11767,-1.2315 -17.12636,-3.5784 -14.64299,-17.1091 0.89221,-4.8612 1.62128,-11.1502 1.62016,-13.9756 -0.003,-6.7901 4.08372,-12.893 13.49797,-20.1589 9.5194,-7.347 15.08373,-9.7651 29.07177,-12.6337 13.27737,-2.7229 19.98097,-4.8556 22.53898,-7.1706 1.96237,-1.7759 4.3975,-11.0151 6.21924,-23.5966 l 1.25926,-8.6968 -4.04462,-0.622 c -6.84967,-1.0534 -13.55194,-3.5 -26.04462,-9.5073 -37.56618,-18.06406 -51.74323,-36.21629 -51.91922,-66.47706 -0.0753,-12.94213 1.25103,-19.11422 6.46053,-30.06492 5.17504,-10.87826 15.1754,-20.54671 27.34439,-26.43683 10.00568,-4.84303 18.2325,-6.38472 31.07348,-5.8231 8.06499,0.35274 9.69838,0.76534 15.04406,3.80021 3.29822,1.87248 8.50732,5.95187 11.57578,9.06531 3.06845,3.11344 6.7495,5.88456 8.1801,6.15803 2.21885,0.42416 3.03939,-0.17844 5.5838,-4.10073 5.04196,-7.77234 15.72927,-19.65188 22.06685,-24.52854 9.3654,-7.20651 18.6664,-11.03079 36.59023,-15.04478 30.92117,-6.92469 66.2948,-11.21939 83.78161,-10.1719 5.62012,0.33666 14.71839,0.89638 20.21839,1.24383 14.23228,0.89909 26.05427,-0.73493 32.15771,-4.4448 2.66326,-1.61881 7.31729,-3.98733 10.34229,-5.26335 3.025,-1.27603 6.35501,-3.39224 7.40002,-4.70269 3.57182,-4.47909 16.53562,-14.87279 22.54628,-18.07643 12.83853,-6.84285 33.57993,-10.88605 49.54953,-9.65888 4.4023,0.33829 14.25485,1.58871 21.89465,2.77871 13.7837,2.14701 13.9566,2.14928 22.5,0.29637 11.9727,-2.5967 16.5998,-2.92814 21.5458,-1.54334 3.851,1.07821 5.1035,0.91953 12.6686,-1.60486 8.17427,-2.7277 9.01967,-2.80586 32.14727,-2.97236 27.7852,-0.20002 22.8003,1.8033 43.1444,-17.33881 12.3051,-11.57805 26.6522,-22.31408 33.1034,-24.77155 1.65,-0.62854 6.15,-2.38185 10,-3.89626 6.5815,-2.58886 8.1358,-2.77789 26,-3.16214 18.7024,-0.40228 19.1566,-0.46391 29,-3.93506 21.2655,-7.49901 32.3485,-14.43087 40.0384,-25.04208 8.7674,-12.09794 26.1384,-18.64723 34.5044,-13.00905 3.9074,2.63334 7.8882,9.81671 8.6699,15.64507 0.3028,2.25771 0.9146,4.10493 1.3594,4.10493 0.4449,0 2.693,-2.23455 4.9959,-4.96567 2.3029,-2.73112 7.1482,-6.89362 10.7672,-9.25 6.0962,-3.96929 7.0739,-4.28404 13.296,-4.28037 5.7777,0.003 7.0893,0.3527 9.3876,2.5 7.5635,7.0667 10.3246,16.40668 11.5879,39.19782 0.5396,9.73598 1.3009,19.57518 1.6918,21.86488 l 0.7107,4.1631 12.4769,4.3447 c 73.6223,25.63679 110.2234,78.75163 107.7277,156.33266 -0.5449,16.93988 -4.1544,39.49742 -8.2556,51.59288 -9.7819,28.84956 -36.3988,54.82746 -66.4582,64.86276 -24.5043,8.1808 -85.8975,14.265 -118.2369,11.7175 -22.0375,-1.7359 -36.9296,-3.8134 -47.7631,-6.6632 -18.2275,-4.7947 -45.2676,-16.8381 -59.9789,-26.7141 -31.7816,-21.3355 -48.5387,-59.84159 -46.7613,-107.45296 0.2926,-7.8375 0.2961,-14.25 0.01,-14.25 -0.2883,0 -2.8289,1.30888 -5.6459,2.90862 -2.8169,1.59974 -9.6217,4.77118 -15.1217,7.04765 -5.5,2.27647 -10.675,4.56187 -11.5,5.07866 -5.3577,3.35617 -9.018,4.52475 -23.5574,7.52101 -8.943,1.84297 -20.4636,4.05546 -25.60127,4.91665 -10.1306,1.69811 -20.4112,5.41641 -25.6451,9.27535 -4.4023,3.2458 -14.1395,7.12932 -22.1702,8.84218 -5.3703,1.14542 -8.6901,1.18179 -18.7459,0.2054 -12.71555,-1.23466 -15.32375,-0.94367 -38.10825,4.2517 -5.3155,1.21204 -10.3572,4.54072 -13.9527,9.21191 -3.3081,4.29784 -12.61184,11.88024 -17.86674,14.56109 -2.12123,1.08218 -8.5808,3.42282 -14.35459,5.20144 -5.77379,1.77862 -12.9728,4.74091 -15.9978,6.58288 -8.59911,5.23614 -16.29845,7.53349 -27.25,8.13095 -6.21299,0.33894 -9.74215,0.93687 -9.72835,1.64817 0.0119,0.614 2.51361,4.2663 5.55934,8.1163 8.11205,10.2542 12.8417,17.4206 14.81541,22.4485 0.96044,2.4467 2.34157,10.5467 3.06918,18 1.02842,10.5348 1.8948,14.778 3.8918,19.0609 1.41288,3.0301 3.25013,8.7479 4.08278,12.7062 1.05829,5.0309 2.87512,9.3842 6.03687,14.4648 4.02747,6.4717 4.52297,7.9122 4.52297,13.1494 0,3.2349 -0.67644,8.492 -1.5032,11.6826 -1.4401,5.5575 -1.39269,6.2562 1.1295,16.6443 2.61283,10.7616 2.62793,11.047 2.00154,37.8433 -0.37903,16.2146 -1.22836,30.5952 -2.12619,36 -0.82227,4.95 -1.95059,14.175 -2.50738,20.5 -0.55679,6.325 -1.94814,14.3498 -3.09189,17.8328 -1.5936,4.8529 -1.93113,7.657 -1.44443,12 0.53151,4.7426 0.26045,6.3991 -1.66141,10.1529 -5.07564,9.9138 -19.01418,16.173 -42.29654,18.9936 -11.18036,1.3544 -16.75993,3.957 -27.12436,12.652 -13.62248,11.4282 -23.51487,14.3358 -29.32358,8.6187 z m 15.6007,-5.0115 c 1.18401,-0.9562 5.15481,-4.2812 8.82399,-7.389 10.82263,-9.1668 18.76812,-12.6084 33.16706,-14.3663 14.42995,-1.7617 23.55148,-4.3932 29.05991,-8.3835 5.91237,-4.2829 8.29628,-8.1173 8.29628,-13.3441 0,-2.4396 0.85716,-7.7871 1.90481,-11.8834 1.04765,-4.0962 2.20934,-12.1557 2.58155,-17.9099 0.3722,-5.7543 1.29175,-14.0623 2.04343,-18.4623 4.16686,-24.3909 4.30042,-60.4404 0.29454,-79.5 -1.61554,-7.6866 -1.86785,-11.4355 -1.32178,-19.6399 l 0.6749,-10.1399 -5.08872,-11.8073 c -2.7988,-6.4939 -5.08873,-12.3717 -5.08873,-13.0616 0,-0.6899 -1.66861,-4.9887 -3.70802,-9.5528 -3.472,-7.7703 -3.71527,-8.9668 -3.8221,-18.7985 -0.18098,-16.6562 -1.99254,-21.4732 -12.98996,-34.5404 -3.68433,-4.3778 -7.60651,-9.9533 -8.71598,-12.3901 -4.23204,-9.29498 -0.95171,-24.14012 5.49905,-24.88588 3.55889,-0.41144 3.4937,1.14601 -0.28119,6.7169 -1.63999,2.42027 -2.9818,4.74054 -2.9818,5.15616 0,1.24894 9.43091,2.14935 14.63673,1.39745 7.99834,-1.15525 19.87666,-5.27809 22.16749,-7.6941 1.17859,-1.243 3.47017,-3.72249 5.09241,-5.50999 3.22186,-3.55008 9.10337,-4.68072 9.10337,-1.75 0,1.97372 0.38427,1.93032 9.07485,-1.025 9.6266,-3.27363 16.67481,-8.02446 21.97738,-14.81378 2.3446,-3.00209 6.0221,-6.51649 8.1722,-7.80978 9.0033,-5.41568 19.6381,-13.95334 21.6697,-17.39651 l 2.1789,-3.69296 -4.4479,0.66699 c -2.4463,0.36685 -4.683,0.28642 -4.9705,-0.17873 -1.1646,-1.88444 1.3633,-3.4745 5.9686,-3.7542 l 4.8768,-0.29618 2.9239,-7.34993 c 2.3604,-5.93345 3.0077,-9.30032 3.3586,-17.47036 0.5488,-12.77738 -1.0364,-18.60137 -7.8265,-28.75343 -9.3608,-13.99549 -18.1146,-19.58947 -40.21259,-25.69704 l -14.2047,-3.92599 -11.21418,2.51514 c -18.22532,4.08761 -31.01905,5.49663 -48.59953,5.35246 -14.70825,-0.12061 -19.27982,0.14594 -29.47503,1.7186 -2.48086,0.38268 -3.25,0.13561 -3.25,-1.04399 0,-0.84992 0.3375,-1.54712 0.75,-1.54933 0.4125,-0.002 5.025,-0.71697 10.25,-1.58836 6.66188,-1.11101 12.49295,-1.40361 19.51828,-0.9794 5.51005,0.33272 14.51005,0.14742 20,-0.41177 13.09612,-1.33393 32.60087,-5.01464 31.97132,-6.03327 -1.30496,-2.11148 -14.10835,-3.18585 -24.91328,-2.09053 -14.02822,1.42206 -25.62311,1.40379 -36.59995,-0.0577 -7.22579,-0.96205 -12.0367,-0.86601 -27.61334,0.55123 -51.35819,4.67282 -86.05115,13.62094 -99.87766,25.76078 -7.01267,6.15721 -17.42964,22.86079 -14.24879,22.84789 0.69488,-0.003 3.06342,-1.11378 5.26342,-2.46879 5.44774,-3.35536 6.65798,-3.27773 5.39473,0.34605 -1.63076,4.678 -7.41975,6.63957 -19.383,6.5678 l -10.01173,-0.06 -6.68479,-6.71733 c -8.5888,-8.6306 -13.62567,-10.93 -23.73494,-10.8353 -23.52422,0.22035 -44.46708,14.53413 -53.17464,36.34318 -2.3866,5.9775 -2.75936,16.9721 -0.99329,29.29696 2.04499,14.27126 11.62485,27.75295 26.96955,37.95408 11.1668,7.42368 39.46082,20.81986 44.90915,21.26286 6.45089,0.5245 14.13193,-1.6946 16.37573,-4.73105 3.7737,-5.10682 7.8247,-27.46836 7.83041,-43.2239 l 0.003,-7.77061 -4.59885,-3.22939 c -4.00758,-2.81419 -4.3168,-3.27207 -2.40506,-3.56138 3.29967,-0.49935 7.65829,1.67433 11.00851,5.49001 2.87349,3.27273 2.99826,3.80696 3.06569,13.12678 0.10261,14.18431 -0.49983,13.69418 11.77698,9.5813 5.691,-1.90656 12.07132,-4.60739 14.1785,-6.00185 4.85563,-3.21331 11.0499,-4.18293 12.85181,-2.01176 1.97572,2.3806 0.45994,3.64751 -4.36402,3.64751 -3.57606,0 -4.75956,0.4988 -6.52497,2.75 -1.18612,1.5125 -3.04957,3.23231 -4.14102,3.82181 -1.87122,1.01066 -1.75401,1.27999 2.05441,4.72067 2.22137,2.00688 6.63967,4.95919 9.81844,6.5607 7.0727,3.56342 21.32404,8.14682 25.33102,8.14682 2.58143,0 2.94838,-0.35813 2.94838,-2.87756 0,-2.88206 2.10542,-5.68368 3.34201,-4.4471 0.36189,0.3619 0.65799,4.55283 0.65799,9.31319 0,10.61001 1.7103,15.99601 7.16406,22.56081 2.26203,2.7229 5.34749,7.6507 6.85658,10.9507 4.71264,10.3053 9.64917,13.6269 25.47936,17.144 9.38598,2.0853 11.5,3.5228 11.5,7.82 0,4.0175 -1.90315,5.7053 -3.43814,3.049 -2.05591,-3.5577 -4.58871,-5.513 -7.14132,-5.513 -2.386,0 -2.52735,0.2437 -1.8847,3.25 0.38211,1.7875 1.73895,6.625 3.01521,10.75 1.27626,4.125 3.06084,10.425 3.96574,14 3.37367,13.3283 10.60604,24.3851 21.69598,33.1685 l 4.04225,3.2015 1.95589,-2.685 c 1.07575,-1.4768 2.64345,-2.685 3.48379,-2.685 1.2447,0 1.37586,0.695 0.70766,3.75 -0.45112,2.0625 -0.88856,5.55 -0.9721,7.75 -0.23344,6.1479 -0.33219,6.5 -1.82327,6.5 -1.50779,0 -2.60699,-2.0942 -2.60699,-4.9668 0,-2.1055 -4.8327,-5.6143 -6.02758,-4.3763 -0.44758,0.4637 -0.39746,6.6931 0.11139,13.8431 2.15892,30.3359 3.82029,38.0858 10.26541,47.8856 4.45008,6.7663 8.23088,16.5117 9.71246,25.0348 1.15921,6.6686 0.77484,19.2361 -0.70639,23.0961 -0.45869,1.1953 -0.32069,1.5801 0.40567,1.1312 2.18288,-1.3491 2.39952,1.5525 0.28404,3.8044 -3.59539,3.8271 -22.53792,8.2181 -38.66404,8.9625 -9.10678,0.4204 -11.31012,1.2728 -14.35917,5.5548 -1.16451,1.6354 -6.88631,6.6665 -12.71512,11.1803 -7.1495,5.5365 -12.17796,10.3725 -15.45408,14.8626 -2.67094,3.6607 -6.65542,8.1017 -8.85442,9.8689 -4.14646,3.3322 -5.15313,6.4616 -2.41638,7.5118 2.77509,1.0649 3.26827,0.7169 7.28881,-5.143 9.00029,-13.118 14.72872,-18.9075 24.88035,-25.1459 5.40255,-3.32 10.8295,-7.398 12.05988,-9.0621 2.08051,-2.8141 8.77448,-7.042 11.14933,-7.042 0.57191,0 1.03984,0.7882 1.03984,1.7517 0,1.0536 -1.77866,2.6953 -4.46328,4.1195 -2.4548,1.3022 -5.15053,3.4166 -5.99052,4.6986 -0.83999,1.282 -4.79401,4.2284 -8.78673,6.5475 -3.99271,2.3192 -8.67766,5.2862 -10.411,6.5933 -3.43383,2.5894 -14.26849,15.3365 -16.30551,19.1836 -0.69727,1.3169 -3.00208,4.2758 -5.1218,6.5755 -3.62549,3.9332 -3.76371,4.31 -2.33089,6.3557 2.80432,4.0037 6.8003,2.9036 12.98753,-3.5754 3.02005,-3.1625 6.88397,-8.14 8.58649,-11.0611 1.70252,-2.921 4.65898,-6.521 6.56991,-8 1.91093,-1.4789 6.72586,-5.4151 10.69985,-8.7471 3.97399,-3.332 8.63708,-6.6429 10.36244,-7.3575 1.72535,-0.7147 3.40886,-2.156 3.74112,-3.2029 0.84107,-2.6499 5.60114,-4.8814 10.41273,-4.8814 2.93303,0 4.04966,0.4136 4.04966,1.5 0,1.079 -1.10355,1.5 -3.93191,1.5 -3.23395,0 -4.31396,0.5365 -6.08421,3.0226 -1.18377,1.6624 -4.02691,3.9684 -6.31809,5.1244 -2.29119,1.1559 -6.41579,3.9969 -9.16579,6.3134 -2.75,2.3164 -6.18607,4.9785 -7.63571,5.9157 -1.44965,0.9373 -4.59965,4.48 -7,7.8727 -2.40036,3.3927 -6.72785,8.7039 -9.61664,11.8027 -5.03102,5.3968 -5.1752,5.7041 -3.42126,7.2913 2.56994,2.3258 8.42885,2.1376 10.67361,-0.3428 2.37873,-2.6285 3.68639,-2.5341 3.46087,0.25 -0.32312,3.989 -0.002,4.7973 2.28913,5.7566 2.93308,1.2283 7.69428,0.419 10.40276,-1.7682 z m -4.64582,-13.2385 c 0.008,-3.2436 6.40095,-10.6828 14.32442,-16.6678 3.39275,-2.5628 8.00957,-6.6109 10.2596,-8.9959 3.14784,-3.3366 4.81924,-4.3363 7.25,-4.3363 4.21959,0 4.30868,2.8201 0.11559,3.6587 -1.91171,0.3824 -3.55636,1.6006 -4.42273,3.2759 -0.75859,1.467 -4.22654,4.6234 -7.70654,7.0143 -3.48001,2.3909 -9.36456,7.543 -13.0768,11.4491 -5.96624,6.2778 -6.74882,6.8119 -6.74354,4.602 z m 66.99306,-165.3127 c 0,-4.7047 0.5532,-6.2878 4.00219,-11.4527 2.2012,-3.2963 4.6762,-6.5527 5.5,-7.2364 1.87816,-1.5587 1.86565,-3.9277 -0.034,-6.4393 -1.82317,-2.4105 -1.91112,-5.5589 -0.15528,-5.5589 2.57264,0 6.68709,5.4707 6.68709,8.8913 0,2.6621 -1.17121,4.5015 -6.20191,9.7405 -5.94662,6.1928 -6.20388,6.6721 -6.25,11.6453 -0.0382,4.1196 -0.40813,5.257 -1.79809,5.5281 -1.49466,0.2917 -1.75,-0.4551 -1.75,-5.1179 z m -27.09776,-28.4282 c -0.87876,-2.6175 -3.09135,-9.1403 -4.91685,-14.4951 -2.78842,-8.1794 -3.13597,-10.1381 -2.17369,-12.25 1.82757,-4.0111 3.53389,-3.1272 2.91212,1.5084 -0.45392,3.3843 0.18331,5.4685 4.01639,13.1367 4.75494,9.5124 6.03647,16.0253 3.25979,16.5667 -1.00545,0.196 -2.02678,-1.2767 -3.09776,-4.4667 z m 31.94822,-8.9885 c -1.80066,-2.6238 -6.22854,-7.7479 -9.83974,-11.3868 -4.13684,-4.1687 -7.9429,-9.2934 -10.28826,-13.8528 -5.94528,-11.5576 -4.79641,-17.7677 3.68195,-19.9026 4.03363,-1.0157 4.49915,-1.4417 4.78211,-4.3768 0.24279,-2.5183 0.83328,-3.3253 2.6184,-3.5783 2.18998,-0.3105 2.28972,-0.061 2,5 l -0.30492,5.3267 -5.89428,2 c -6.56414,2.2273 -8.20523,3.9753 -7.26171,7.7346 1.0502,4.1843 9.01213,13.9044 16.08624,19.6385 8.1695,6.622 9.56975,8.5666 9.56975,13.2904 0,5.449 -1.46266,5.4794 -5.14954,0.1071 z M 709.23292,534.41558 c -2.05008,-3.31709 4.91422,-10.09749 12.68673,-12.35172 8.6837,-2.51851 13.01706,-2.88458 17.30514,-1.4619 4.02149,1.33423 5.78462,4.12088 3.22804,5.10193 -0.76109,0.29206 -3.1578,0.0575 -5.32602,-0.52122 -5.96317,-1.59166 -18.57703,2.33188 -22.23481,6.91614 -2.69809,3.38148 -4.53603,4.13391 -5.65908,2.31677 z m 54.03252,-3.90601 c -0.80582,-2.53891 0.20502,-6.31305 3.63851,-13.58504 1.55811,-3.3 2.83328,-7.17521 2.83371,-8.61158 4.3e-4,-1.43636 -1.85143,-6.56411 -4.11526,-11.39499 -3.56097,-7.59891 -4.03306,-9.38888 -3.50068,-13.27301 0.74806,-5.45772 4.50555,-12.57533 6.88011,-13.03262 2.57479,-0.49586 2.20293,4.45191 -0.68812,9.15586 -2.74993,4.47432 -2.35563,7.09298 2.50959,16.66711 1.60333,3.15515 2.91515,7.31813 2.91515,9.25107 0,3.31741 -3.76004,17.98792 -6.14814,23.98816 -1.26774,3.18527 -3.44548,3.60575 -4.32487,0.83504 z m 89.8118,-8.69331 c -5.20072,-6.8224 -7.12567,-8.39173 -10.29334,-8.39173 -2.38562,0 -3.04545,0.43626 -3.04545,2.01357 0,1.10746 0.55123,2.89623 1.22496,3.97504 0.9751,1.56139 0.96063,2.22152 -0.071,3.23643 -1.89245,1.86183 -5.15396,-2.48431 -5.15396,-6.86794 0,-6.01983 -2.42302,-10.10278 -7.44279,-12.54157 -4.74269,-2.30417 -6.0504,-4.81553 -2.50755,-4.81553 2.95898,0 7.34795,2.49674 10.08122,5.73488 1.30302,1.54369 4.27606,3.37625 6.60677,4.07236 4.61736,1.37905 19.59374,13.68514 18.97021,15.58782 -0.19915,0.60772 -1.52494,1.24347 -2.94618,1.41279 -1.99483,0.23766 -3.23143,-0.54133 -5.42289,-3.41612 z m -36.46922,-2.35922 c -1.44673,-0.43757 -5.27173,-2.58385 -8.5,-4.76952 -10.67628,-7.22825 -11.59404,-7.52787 -17.96358,-5.86455 -3.06893,0.80141 -6.18361,2.27711 -6.92151,3.27933 -1.49238,2.02697 -2.21249,1.08424 -2.7226,-3.56429 -0.24306,-2.21501 0.6364,-2.68622 12.23812,-6.55708 19.50113,-6.50647 22.31345,-8.4227 29.00258,-19.76155 5.15627,-8.74049 10.2774,-14.28512 12.43079,-13.45879 1.67093,0.64119 1.6826,0.84232 0.16978,2.92623 -8.59941,11.84567 -8.78421,13.14034 -1.93236,13.53722 4.63718,0.26861 6.08195,-0.21819 14,-4.71718 4.85607,-2.75918 13.14295,-6.38398 18.41529,-8.05511 8.57835,-2.719 9.83985,-3.43207 12.00025,-6.78282 2.6175,-4.05989 12.9994,-10.4068 16.3353,-9.98651 3.8185,0.48108 2.5662,2.60109 -3.0573,5.17557 -3.1596,1.44655 -7.5635,4.58195 -9.8011,6.978 -3.2599,3.49087 -5.8426,4.99414 -13.06323,7.60348 -9.90701,3.58012 -15.83982,6.3544 -19.20357,8.9799 l -2.20356,1.71995 2.94206,2.81867 c 1.61813,1.55027 3.20256,3.63945 3.52095,4.64261 0.37763,1.18978 1.54672,1.82393 3.36257,1.82393 3.79506,0 10.5915,3.83239 16.45148,9.27673 4.6873,4.35479 4.7905,4.56706 2.75,5.65907 -2.6837,1.43631 -5.39143,0.10603 -7.68413,-3.7752 -1.86739,-3.16124 -4.43694,-5.01374 -8.61741,-6.21268 -2.33631,-0.67005 -2.81839,-0.50466 -2.81839,0.9669 0,0.97636 0.9,2.58969 2,3.58518 2.74104,2.48061 2.52701,4.5 -0.47695,4.5 -2.74116,0 -4.98496,-2.76593 -6.0842,-7.5 -1.0963,-4.72143 -4.59707,-10.41278 -6.86687,-11.16375 -1.13959,-0.37703 -6.34698,-0.588 -11.57198,-0.4688 -9.31415,0.21247 -9.56847,0.28284 -13,3.59695 -1.925,1.85914 -6.82932,5.17589 -10.89849,7.37057 l -7.3985,3.99033 7.34521,3.69898 c 12.25065,6.16933 15.29011,8.36313 13.90285,10.03467 -1.3166,1.58641 -2.17986,1.65363 -6.0815,0.47356 z m -133.86957,-3.59825 c 0,-1.96116 0.46616,-4.43677 1.03591,-5.50135 1.26079,-2.35581 9.21558,-6.51426 14.27802,-7.46398 4.91411,-0.92189 8.68607,-3.99364 8.68607,-7.07363 0,-8.29318 10.0365,-19.3953 17.53367,-19.3953 3.56347,0 2.68735,2.18603 -1.28908,3.21643 -6.82883,1.76952 -13.87071,15.3977 -11.43572,22.13156 1.65654,4.58107 1.52965,5.4044 -1.26342,8.19746 -2.54442,2.54443 -7.54545,3.36768 -7.54545,1.24211 0,-0.66683 1.2375,-2.22536 2.75,-3.46339 l 2.75,-2.25096 -3.47707,0.95871 c -1.91239,0.52729 -4.2493,0.71362 -5.19313,0.41406 -2.22448,-0.70602 -9.25051,2.88888 -11.26372,5.76314 -0.86134,1.22974 -1.56608,3.26076 -1.56608,4.51339 0,1.61082 -0.58544,2.27749 -2,2.27749 -1.62607,0 -2,-0.66667 -2,-3.56574 z m -3.30712,-30.84309 c -1.42954,-1.32485 -4.03978,-4.75011 -5.80052,-7.61168 l -3.20135,-5.20286 -5.59551,0.60232 c -5.98739,0.6445 -20.17707,-1.26775 -23.77976,-3.20464 -1.20134,-0.64587 -3.5157,-1.17431 -5.14301,-1.17431 -1.8394,0 -3.20079,-0.63074 -3.59852,-1.66722 -1.34944,-3.51658 1.22043,-3.65118 10.11892,-0.52999 12.11206,4.24838 13.94282,4.47343 20.80687,2.55775 3.3,-0.92099 7.30555,-1.71638 8.90122,-1.76753 2.78471,-0.0893 2.95445,0.168 4.22692,6.40699 1.42861,7.00451 3.58094,9.69182 8.55998,10.68762 3.73564,0.74713 3.70304,3.31238 -0.0421,3.31238 -1.62942,0 -3.9692,-1.03355 -5.45314,-2.40883 z m 74.30712,-15.52115 c -0.825,-0.57167 -3.2205,-1.04629 -5.32332,-1.05471 -3.09735,-0.0124 -3.76,-0.3476 -3.48979,-1.76531 0.45921,-2.40936 3.95661,-2.69522 9.68728,-0.79179 4.68549,1.55627 5.07292,1.52589 13.1728,-1.03286 9.8326,-3.10612 12.52893,-4.70455 14.55941,-8.63106 1.89583,-3.66614 2.19825,-10.11984 0.56636,-12.08616 -0.6842,-0.8244 -2.90718,-1.81093 -4.93996,-2.19228 -5.22962,-0.98109 -7.23278,-2.27115 -7.23278,-4.65802 0,-1.59614 0.40178,-1.89724 1.75,-1.31145 0.9625,0.41819 4.225,1.62872 7.25,2.69005 6.57683,2.30752 10,5.23361 10,8.54791 0,4.01102 -6.05021,14.22115 -9.95356,16.79729 -7.19803,4.75057 -22.46778,7.96814 -26.04644,5.48839 z m -85.27282,-6.71683 c -2.1551,-11.2737 8.67735,-32.60988 20.18924,-39.76581 9.35865,-5.81745 25.28721,-9.43401 46.58358,-10.57677 22.77169,-1.22191 21.9317,2.23735 -0.997,4.10585 -21.41629,1.74526 -38.6988,7.85954 -49.39289,17.47445 -6.35233,5.7113 -9.71272,12.07183 -12.00343,22.72011 -1.80661,8.39798 -3.48619,10.7152 -4.3795,6.04217 z m 56.84045,1.75624 c -0.33037,-0.53455 0.56715,-2.69036 1.99449,-4.79067 2.0715,-3.04818 2.47841,-4.57546 2.01653,-7.56876 -1.92195,-12.45544 -2.0721,-11.27184 1.80518,-14.22919 4.2989,-3.27893 19.47254,-8.52081 24.66516,-8.52081 2.19753,0 4.69916,0.79101 6.09023,1.92571 2.15389,1.75695 2.20472,1.98645 0.57992,2.61883 -0.97947,0.38121 -3.12818,0.42365 -4.77492,0.0943 -3.92689,-0.78537 -16.9021,3.32892 -21.45848,6.80424 l -3.4582,2.63769 0.60981,8.70962 c 0.54058,7.72076 0.3971,8.89487 -1.26377,10.34133 -2.4734,2.15411 -6.0539,3.19455 -6.80595,1.97771 z m 114.89015,-35.69187 c -2.17678,-1.47127 -6.04523,-4.41711 -8.59656,-6.5463 -4.16179,-3.47319 -5.2097,-3.87126 -10.19098,-3.87126 -5.50361,0 -8.11618,-1.23116 -5.08271,-2.39522 5.41016,-2.07607 11.8975,-0.0721 21.86896,6.75556 4.30261,2.94606 8.18701,4.76357 11.12112,5.20357 5.71958,0.8577 5.29266,2.83476 -0.698,3.2324 -3.50108,0.23238 -5.31781,-0.28075 -8.42183,-2.37875 z m -77.78011,-4.07323 c -1.91676,-1.91675 -0.24923,-3.16472 5.07233,-3.7961 9.39476,-1.11466 12.63456,-2.31805 16.23127,-6.02891 3.49875,-3.60979 6.01873,-4.53359 6.01873,-2.20641 0,1.68615 -4.6355,6.02651 -8.5,7.9588 -1.65,0.82501 -5.7,2.03238 -9,2.68303 -3.3,0.65065 -6.70755,1.38196 -7.57233,1.62513 -0.86479,0.24317 -1.87729,0.13718 -2.25,-0.23554 z M 561.56646,663.11499 c 0.7304,-0.5857 2.42639,-3.2324 3.76885,-5.8816 2.74607,-5.4191 7.00538,-8.8441 20.15525,-16.2071 8.93907,-5.0052 20.39839,-11.782 23.44993,-13.8677 5.43442,-3.7144 1.05657,5.743 -5.61295,12.1255 -4.46013,4.2683 -7.03883,9.8049 -5.92209,12.715 0.96716,2.5204 4.84304,1.5267 8.38683,-2.1502 1.89539,-1.9666 6.48367,-5.8342 10.19617,-8.5946 3.7125,-2.7605 6.75,-5.3862 6.75,-5.835 0,-0.4488 2.3625,-3.1294 5.25,-5.9569 l 5.25,-5.1411 0.0665,-10.6984 c 0.0627,-10.0874 0.34664,-11.5265 4.97173,-25.1984 2.97443,-8.7925 8.36055,-21.3578 13.68351,-31.9224 4.82805,-9.58234 8.77826,-18.13234 8.77824,-19 -2e-5,-0.86766 -1.56291,-2.82459 -3.4731,-4.34873 -3.31129,-2.64208 -3.69559,-2.7168 -8.24997,-1.60395 -10.27945,2.51175 -13.68197,5.88341 -14.74505,14.6113 -0.7995,6.56398 -3.35592,12.98868 -6.13667,15.42258 -1.04235,0.9123 -4.11761,2.3014 -6.83391,3.0869 l -4.93874,1.4282 -2.78161,13.2106 c -1.52989,7.2658 -3.06502,13.6691 -3.41141,14.2296 -0.34638,0.5604 0.20278,1.6621 1.22035,2.4481 1.74622,1.3488 1.59738,1.6523 -2.64986,5.4032 -5.61582,4.9596 -10.42353,6.6052 -26.5131,9.0751 -11.01885,1.6915 -13.83348,2.5315 -20.80017,6.2078 -10.33233,5.4525 -18.50037,12.9668 -19.29605,17.7517 l -0.58201,3.5 1.98071,-3 c 5.95225,-9.0153 26.21061,-23.4505 26.21061,-18.6765 0,0.4529 -3.1099,2.9484 -6.91089,5.5455 -14.48957,9.9003 -15.58462,11.2838 -20.09317,25.3865 -2.73387,8.5515 -3.70366,12.9368 -3.01354,13.6269 0.69012,0.6902 1.01759,0.4301 1.01759,-0.8082 0,-2.3023 11.30541,-23.5952 14.6181,-27.5321 1.36118,-1.6177 5.49146,-4.3664 9.1784,-6.1081 3.68693,-1.7418 8.18167,-4.4645 9.98831,-6.0504 3.63462,-3.1907 5.2152,-3.6254 5.2152,-1.4345 0,1.7162 -4.51372,5.2088 -11.64687,9.0122 -9.50662,5.0689 -11.99653,7.8922 -18.38178,20.8423 -6.57567,13.3364 -7.22486,16.0165 -3.75839,15.516 1.55282,-0.2242 2.39751,-1.2276 2.83157,-3.3636 1.1389,-5.6043 7.22579,-15.5027 12.45776,-20.2586 2.84215,-2.5835 8.94252,-6.695 13.55639,-9.1366 4.61387,-2.4415 9.45316,-5.704 10.75398,-7.25 2.79986,-3.3274 4.18734,-3.5803 4.18734,-0.763 0,3.0184 -4.16693,6.3716 -13.78208,11.0907 -4.70535,2.3093 -10.1668,5.8118 -12.13655,7.7832 -3.97673,3.9801 -11.08138,16.7394 -11.08138,19.9012 0,3.1297 5.35089,3.6555 8.82802,0.8676 z m 756.87614,-61.5257 c 33.4076,-7.1176 45.0585,-11.579 60.4834,-23.1606 5.8457,-4.3892 13.6233,-11.2482 17.2834,-15.2423 13.669,-14.91597 16.9423,-22.11263 22.1783,-48.76186 2.5648,-13.05348 2.8417,-16.44532 2.7762,-34 -0.053,-14.07119 -0.5711,-22.284 -1.8628,-29.5 -8.817,-49.25438 -34.04,-82.59176 -79.0627,-104.49768 -10.6125,-5.16352 -28.0365,-12.00232 -30.5797,-12.00232 -1.6702,0 -0.9652,3.97358 2.591,14.60277 3.3573,10.03439 3.4645,10.78854 2.4436,17.17966 -1.2302,7.70075 -3.8158,14.07504 -7.4712,18.41929 -1.406,1.67092 -3.2423,4.36454 -4.0807,5.98581 -1.5116,2.92303 -1.5053,2.93759 0.7422,1.73474 1.2466,-0.66717 6.4492,-5.19761 11.5613,-10.06765 5.1191,-4.87669 10.1627,-8.85462 11.2267,-8.85462 4.7103,0 3.5259,9.06075 -2.0059,15.34521 -5.1239,5.82112 -15.8923,11.048 -30.1423,14.6309 -6.2067,1.56058 -13.2541,3.55438 -15.6608,4.43065 -4.9971,1.81952 -10.3867,2.05834 -13.1444,0.58246 -1.3466,-0.72069 -3.1215,-0.58136 -6.1842,0.48544 -5.3514,1.86396 -8.7768,1.91753 -11.3231,0.17708 -1.0849,-0.74154 -3.4729,-1.63787 -5.3067,-1.99183 -1.8338,-0.35397 -4.6032,-1.54725 -6.1544,-2.65174 -1.5511,-1.10449 -3.9811,-2.00817 -5.4,-2.00817 -3.9793,0 -8.6354,-4.7674 -9.2782,-9.5 -0.4415,-3.25074 -1.1323,-4.28097 -3.6882,-5.5 -4.3798,-2.08893 -5.6645,-5.33587 -4.5502,-11.5 2.1448,-11.86509 2.2293,-16.07565 0.3792,-18.89923 l -1.7755,-2.70982 -13.5993,13.37941 c -13.6423,13.42176 -22.9821,20.75431 -40.2953,31.63537 -6.7178,4.22203 -9.3992,6.48706 -9.6468,8.14881 -0.4052,2.71955 -15.7937,17.91043 -21.8004,21.52038 -2.2789,1.36954 -6.9076,3.5734 -10.2862,4.89745 -4.2685,1.67282 -8.2895,4.3948 -13.1779,8.92074 -3.8693,3.58235 -8.9832,7.74582 -11.3642,9.25215 -5.0626,3.20289 -5.213,3.75098 -6.134,22.35474 -1.4545,29.37837 5.3416,56.26333 19.0945,75.53651 17.5512,24.59625 47.3989,41.41215 87.5111,49.30275 25.6726,5.0501 40.4306,6.0903 80.5,5.6739 30.0889,-0.3127 31.4174,-0.4111 45.2042,-3.3484 z M 915.46448,499.78933 c 5.6017,-2.6673 8.9396,-6.11869 9.9396,-10.27728 0.3423,-1.42314 1.8753,-5.0985 3.40685,-8.16748 7.2767,-14.58142 7.799,-29.34103 1.5071,-42.58994 -2.56605,-5.40348 -3.32835,-7.98133 -2.58105,-8.72859 1.66735,-1.66743 5.68135,3.98938 7.98555,11.25383 4.0836,12.87424 2.1181,31.00036 -5.3771,49.58812 l -3.45025,8.55654 4.17155,0.0146 c 2.2944,0.008 6.1444,0.70155 8.5555,1.5412 7.2838,2.53652 18.8557,-0.23341 31.1066,-7.44585 12.295,-7.23849 18.3862,-9.18135 47.36667,-15.10825 10.9214,-2.23357 21.0464,-4.67738 22.5,-5.43068 7.2402,-3.75212 11.0973,-10.05138 14.276,-23.31521 1.7613,-7.34956 2.0142,-10.76329 1.5746,-21.25576 -0.4632,-11.05527 -0.9479,-13.71357 -4.1944,-23 -2.019,-5.775 -4.7442,-12.3526 -6.0562,-14.61689 -2.2739,-3.92434 -10.1984,-11.83924 -16.8577,-16.83718 l -3.0994,-2.32621 -17,3.46202 c -21.91867,4.46369 -24.45887,4.25793 -39.07187,-3.16484 -12.2834,-6.23941 -20.8712,-8.47308 -32.6781,-8.49954 -8.2106,-0.0184 -9.69225,-0.97021 -4.718,-3.03064 1.6677,-0.69076 2.8627,-1.4253 2.6557,-1.63232 -1.292,-1.29199 -21.47745,-2.13148 -30.56845,-1.27131 -16.298,1.54206 -39.04342,10.87284 -49.63442,20.36137 l -4.98481,4.46592 5.31672,0.0448 c 4.14606,0.0349 6.0239,-0.49458 8.52844,-2.40489 3.46251,-2.64098 11.37117,-6.49261 13.40487,-6.52834 3.0265,-0.0532 0.8086,3.08762 -4,5.66457 -2.88753,1.54741 -5.02503,3.24856 -4.75003,3.78034 0.275,0.53178 4.07743,2.21896 8.44983,3.74927 11.9946,4.19802 20.5502,8.45759 20.5502,10.23132 0,2.14505 -0.3102,2.07282 -10.7383,-2.50057 -17.11692,-7.5069 -36.38062,-9.00923 -48.22254,-3.76074 l -5.46082,2.4203 23.46082,6.27021 c 29.82474,7.97108 34.64984,9.54029 40.24454,13.08831 8.2199,5.2129 20.2898,24.77633 23.3161,37.79173 1.8002,7.74226 1.4966,10.616 -2.5669,24.29411 -3.5676,12.00915 -6.5617,18.01711 -12.1195,24.31931 l -4.2949,4.87012 4.4408,-0.69349 c 2.4424,-0.38142 6.7924,-1.8133 9.6667,-3.18195 z m 26.27395,-8.79363 c 0,-2.39407 2.7349,-4.54906 8.9472,-7.04993 8.2214,-3.30968 14.3954,-8.19669 15.9351,-12.61342 0.8864,-2.54278 0.8321,-3.01222 -0.298,-2.57853 -3.2297,1.23933 -13.3816,2.81913 -16.1172,2.50809 -2.188,-0.24879 -2.9671,-0.86254 -2.9671,-2.33738 0,-1.56762 0.7566,-2.05837 3.5,-2.26998 9.052,-0.69823 18.8115,-3.59274 26,-7.71115 10.9485,-6.27261 12.2758,-6.52428 32.99997,-6.25725 l 18.5,0.23838 10.25,-3.55105 c 5.6375,-1.95308 10.25,-3.45238 10.25,-3.33179 0,0.1206 0.2623,0.90288 0.5829,1.73841 0.82,2.13691 -5.2791,5.04065 -17.2647,8.21951 -8.0193,2.12691 -12.7498,2.6862 -25.8182,3.05255 -27.20087,0.76253 -26.28987,0.35815 -36.97997,16.41586 -8.1667,12.26733 -11.7736,14.96636 -20.9895,15.70613 -3.5918,0.28831 -6.5305,0.20801 -6.5305,-0.17845 z m 25.9925,-64.58518 c -2.2884,-4.27587 4.0256,-24.98599 7.6176,-24.98599 1.8367,0 1.7507,1.26836 -0.6101,9 -1.0916,3.575 -1.9882,8.21708 -1.9924,10.31574 -0.013,6.56316 -2.8317,9.74995 -5.0151,5.67025 z m 107.30267,30.8661 c 17.1592,-8.65892 28.1844,-18.27503 38.6762,-33.73312 8.8624,-13.05742 14.0824,-18.69602 16.4627,-17.78264 2.4333,0.93376 1.9569,2.04221 -3.7969,8.83369 -2.9495,3.48149 -6.554,8.24063 -8.0099,10.57586 l -2.6472,4.24588 4.2599,-1.67577 c 11.1032,-4.36778 20.3748,-13.64362 23.7375,-23.74834 2.2822,-6.85815 4.8956,-10.89421 8.1988,-12.66203 1.8767,-1.00434 1.9725,-0.85981 1.34,2.02015 l -0.6813,3.10188 9.8325,-6.1189 c 13.2523,-8.2471 20.3016,-14.08947 36.8325,-30.5261 19.2352,-19.12558 26.6885,-23.88928 46.9262,-29.99235 9.7671,-2.94545 15.8699,-3.19924 15.3971,-0.6403 -0.2241,1.21294 -2.7017,2.49965 -8.0733,4.19273 -4.2957,1.35396 -7.75,3.00665 -7.75,3.7079 0,1.33951 5.1433,6.85326 11.0533,11.84937 3.1053,2.62512 3.7115,3.91459 4.8509,10.31915 1.8328,10.30195 0.8989,14.86991 -4.5548,22.27819 -2.496,3.39052 -5.394,7.56815 -6.44,9.28362 -2.5412,4.16737 -2.5182,10.75812 0.046,13.07831 1.8746,1.69652 2.1772,1.67714 7.3612,-0.47148 5.2908,-2.19293 5.5164,-2.20411 10.5746,-0.52406 l 5.1684,1.71669 6.4074,-3.09021 c 3.524,-1.69962 7.716,-3.09021 9.3154,-3.09021 3.687,0 5.9702,-2.52643 7.8111,-8.64323 0.7999,-2.6578 2.8228,-6.5352 4.4953,-8.61645 4.22,-5.25118 7.9116,-14.02645 7.9116,-18.80653 0,-2.20505 -1.5578,-8.04274 -3.4617,-12.97264 -4.875,-12.62293 -6.529,-22.56659 -7.4864,-45.00702 -0.9642,-22.60018 -2.5858,-30.2572 -7.5147,-35.48333 -3.9189,-4.15524 -7.3548,-5.06179 -13.0942,-3.45485 -7.0218,1.96599 -12.897,6.28974 -17.2433,12.68988 -6.9585,10.2469 -15.6397,16.82641 -32.2908,24.4732 l -9.4089,4.32097 -13.5,0.0938 c -25.5129,0.17735 -41.8665,7.71087 -64.8432,29.87094 -10.954,10.56472 -20.6434,17.53147 -31.4754,22.63086 -5.796,2.72864 -5.932,2.86763 -2.1814,2.22917 6.3382,-1.07895 8,-0.9415 8,0.66172 0,1.93468 -3.1033,3.35869 -13.5,6.19478 -7.5354,2.05556 -10.3725,2.29027 -25,2.06827 -9.075,-0.13773 -21.5573,0.25293 -27.7385,0.86814 l -11.2384,1.11855 7.0098,7.50605 c 3.9851,4.26721 8.1746,9.98529 9.7092,13.25169 l 2.6994,5.74564 4.5293,-1.95894 c 14.2497,-6.16317 34.5415,-7.81782 32.8279,-2.67687 -0.3074,0.92223 -2.4327,1.34899 -6.8719,1.37991 -4.3024,0.03 -10.1766,1.16625 -17.7704,3.43745 -11.0724,3.31155 -11.3304,3.4547 -10.7876,5.98574 0.3058,1.42618 1.2401,5.74306 2.0762,9.59306 3.0157,13.88603 1.464,33.54782 -3.5756,45.30465 -1.0282,2.39864 -1.8694,4.52869 -1.8694,4.73344 0,0.67305 12.9626,-4.49046 19.2952,-7.686 z m -6.8638,-18.96312 c -0.8855,-1.43267 1.1645,-3.07565 8.5686,-6.8673 3.025,-1.54912 9.3028,-5.33772 13.9507,-8.41912 8.0731,-5.35214 12.6906,-7.0543 11.8073,-4.35255 -0.6409,1.96014 -8.9777,7.92034 -19.5664,13.98842 -11.0496,6.33225 -13.7096,7.35054 -14.7602,5.65055 z m 192.975,-43.27224 c -0.6461,-1.68371 2.1181,-8.61673 3.4356,-8.61673 1.6312,0 2.0754,2.71533 1.051,6.4254 -0.9956,3.6058 -3.4785,4.81846 -4.4866,2.19133 z m 10.8436,-7.27901 c -4.195,-1.6927 3.3687,-6.33772 10.3199,-6.33772 3.8023,0 8.2855,-1.91594 10.3754,-4.43406 1.5775,-1.90079 5.0547,-2.07485 5.0547,-0.25303 0,3.86469 -10.5194,9.9168 -16.5328,9.51182 -1.9025,-0.12812 -4.0009,0.3089 -4.6631,0.97116 -1.2542,1.25423 -2.4392,1.39521 -4.5541,0.54183 z m -113.25,-7.81867 c 0,-0.81452 1.2375,-1.78033 2.75,-2.14624 4.104,-0.99288 12.4829,-6.82315 18.6072,-12.94743 5.4627,-5.46274 8.6428,-6.84398 8.6428,-3.75396 0,4.14494 -21.5969,20.32858 -27.1283,20.32858 -1.8696,0 -2.8717,-0.51682 -2.8717,-1.48095 z m -51.5,-3.51905 c -1.0563,-1.70903 0.2965,-2.71185 4.5828,-3.39725 5.2668,-0.8422 9.0279,-2.80453 14.0209,-7.31538 2.9079,-2.62712 4.2826,-3.30106 5.0889,-2.49478 2.3491,2.34913 -5.5383,10.13903 -12.9406,12.78066 -4.4857,1.60078 -9.8938,1.81543 -10.752,0.42675 z m 50.5026,-13.25 c 10e-4,-0.6875 3.5774,-2.51254 7.9467,-4.05565 15.0142,-5.30257 40.1739,-24.13512 45.0729,-33.7379 2.3916,-4.68788 4.9778,-5.27736 4.9778,-1.13459 0,3.91746 -4.3214,9.32088 -13.0632,16.3341 -18.4725,14.81972 -44.9457,28.13112 -44.9342,22.59404 z m 69.9974,-55.60011 c 0,-1.48987 0.8098,-2.29064 2.75,-2.71911 8.7199,-1.92574 15.753,-4.9899 20.6968,-9.01705 6.07,-4.9446 7.8415,-5.4645 7.3727,-2.16373 -0.6033,4.24788 -17.6842,13.83428 -27.5695,15.47294 -2.8108,0.46593 -3.25,0.25333 -3.25,-1.57305 z m 36.9681,-9.68831 c -2.7267,-3.28543 6.4673,-9.43954 14.1269,-9.456 3.0758,-0.007 5.905,2.78338 5.905,5.82316 0,2.75037 -1.7352,2.76871 -4.6302,0.049 -2.8218,-2.65097 -6.0008,-2.01864 -10.7309,2.13449 -2.9917,2.62669 -3.55,2.79994 -4.6708,1.44939 z m -20.7909,97.09664 c 0.3536,-5.55442 0.9551,-7.21078 4.3665,-12.02431 7.295,-10.29356 8.4224,-12.71789 8.4398,-18.14905 0.018,-5.56888 -0.7759,-6.9789 -8.9436,-15.88486 -2.522,-2.75 -5.5632,-6.35 -6.7582,-8 l -2.1727,-3 -9.4035,4.75436 c -5.1719,2.61489 -10.2542,5.69449 -11.2941,6.84356 -1.8618,2.05722 -1.8488,2.16432 0.8489,6.99616 3.2298,5.78475 3.2779,6.69018 0.7397,13.90592 -2.9065,8.26266 -2.6577,9.57761 2.5,13.21311 3.7523,2.64485 4.5,3.70941 4.5,6.40681 0,3.98112 3.2741,6.84849 8.8354,7.73778 2.1477,0.34342 4.4684,1.30343 5.1571,2.13335 2.1687,2.61305 2.7628,1.69284 3.1847,-4.93283 z m -8.1772,-2.03456 c 0,-4.3297 2.4682,-9.52366 4.5257,-9.52366 1.9022,0 1.8837,2.44557 -0.041,5.38285 -0.8334,1.27187 -1.3959,3.3751 -1.25,4.67383 0.1775,1.58112 -0.3131,2.48172 -1.4848,2.72566 -1.4117,0.29388 -1.75,-0.3361 -1.75,-3.25868 z m -11,-15.30115 c 0,-3.40493 2.7017,-7.52491 4.2905,-6.54294 0.6346,0.39217 2.7836,0.59535 4.7757,0.45152 2.1981,-0.15871 5.2312,0.57728 7.7156,1.87221 3.3288,1.73507 4.4935,1.9197 6.234,0.98821 1.1773,-0.63004 2.8415,-0.87648 3.6984,-0.54766 1.3748,0.52752 1.3473,0.83065 -0.2331,2.577 -2.308,2.55029 -4.349,2.47929 -13.4811,-0.46896 l -7.5,-2.42132 -1.3857,3.43471 c -1.686,4.17907 -4.1143,4.56697 -4.1143,0.65723 z m -230.07137,-5.15725 c 2.1775,-1.37803 -4.3147,-9.34708 -10.2972,-12.63968 -4.683,-2.57736 -5.1288,-2.63655 -11.6927,-1.55254 -3.7532,0.61983 -9.4373,1.15615 -12.6314,1.19182 l -5.8073,0.0649 5.5,2.07093 c 3.025,1.13901 9.1,3.6316 13.5,5.53907 15.1498,6.56773 18.2488,7.3379 21.4286,5.32555 z m 20.62267,-4.12118 c 10.9433,-2.92047 11.5755,-2.98221 14.2656,-1.39313 2.4597,1.45296 3.6899,1.5141 9.749,0.48451 3.8137,-0.64804 16.1591,-1.43027 27.4341,-1.73827 l 20.5,-0.56001 15.9827,-7.99102 c 14.6427,-7.32104 16.7807,-8.74623 25.5,-16.99873 27.5318,-26.05772 50.7576,-37.87195 77.3313,-39.33598 19.2912,-1.0628 24.6623,-2.83087 36.936,-12.1585 l 5.75,-4.36984 0,-5.47368 c 0,-6.7515 -1.7783,-11.20362 -5.8401,-14.6214 -4.9863,-4.19569 -7.9328,-4.32883 -15.9975,-0.72284 -6.2684,2.80283 -7.6698,3.96697 -12.1236,10.0712 -3.6788,5.04211 -6.9875,8.16454 -12.2782,11.58707 -9.2403,5.97751 -23.7858,13.3881 -32.2043,16.40732 -4.7581,1.70644 -6.5563,2.84237 -6.5563,4.14166 0,2.98823 -2.8508,3.14619 -11.3682,0.62991 -13.2808,-3.92348 -26.9308,-2.72513 -41.2892,3.62482 -8.9191,3.94446 -23.9274,15.07014 -34.748,25.75872 -5.5521,5.48429 -9.2881,9.39261 -8.3022,8.68516 1.2736,-0.91399 2.1022,-0.97645 2.8628,-0.2158 4.7719,4.77188 -17.2254,10.23481 -35.0344,8.70063 -14.1826,-1.22179 -18.4545,-0.94272 -30.8089,2.01263 l -11.18807,2.67635 3.5721,4.67757 c 1.9647,2.57266 4.03407,5.69007 4.59857,6.92757 0.5646,1.2375 1.2019,2.25 1.4162,2.25 0.2144,0 5.5426,-1.37516 11.8406,-3.05592 z m 59.4893,-14.19408 c 0.022,-0.6875 4.0622,-3.20023 8.9774,-5.58385 6.4199,-3.11328 11.2666,-6.45726 17.2094,-11.87345 10.3591,-9.44128 15.552,-13.2927 17.9226,-13.2927 3.4518,0 2.086,3.51099 -2.0811,5.34947 -2.162,0.9539 -7.6745,5.13385 -12.25,9.28877 -4.5754,4.15492 -10.233,8.88378 -12.5725,10.50856 -8.2073,5.70011 -17.3052,8.66293 -17.2058,5.6032 z m 141.9594,-64.72695 c 0,-2.56211 3.881,-5.06327 8.9015,-5.73666 5.7029,-0.76493 9.0985,0.29842 9.0985,2.84924 0,1.79502 -0.3966,1.99432 -2.75,1.38195 -4.8957,-1.2739 -8.2704,-0.84704 -10.5991,1.34065 -2.8481,2.6756 -4.6509,2.73949 -4.6509,0.16482 z"
       id="path3676"
       inkscape:connector-curvature="0" />
  </g>
</svg>
