<?xml version="1.0" encoding="UTF-8" standalone="no"?>
<!-- Created with Inkscape (http://www.inkscape.org/) -->

<svg
   xmlns:dc="http://purl.org/dc/elements/1.1/"
   xmlns:cc="http://creativecommons.org/ns#"
   xmlns:rdf="http://www.w3.org/1999/02/22-rdf-syntax-ns#"
   xmlns:svg="http://www.w3.org/2000/svg"
   xmlns="http://www.w3.org/2000/svg"
   xmlns:xlink="http://www.w3.org/1999/xlink"
   xmlns:sodipodi="http://sodipodi.sourceforge.net/DTD/sodipodi-0.dtd"
   xmlns:inkscape="http://www.inkscape.org/namespaces/inkscape"
   width="224.60159"
   height="123.25436"
   id="svg2"
   version="1.1"
   inkscape:version="0.48.3.1 r9886"
   sodipodi:docname="Push-ups-2.svg"
   inkscape:export-filename="/home/christian/Dokumente/Website/opentraining/cc_exercises/Push-ups-2.png"
   inkscape:export-xdpi="149.35077"
   inkscape:export-ydpi="149.35077">
  <defs
     id="defs4">
    <radialGradient
       gradientUnits="userSpaceOnUse"
       gradientTransform="matrix(1,0,0,0.91819829,-19.285714,-7.9105395)"
       r="209.56604"
       fy="287.50052"
       fx="398.1105"
       cy="287.50052"
       cx="398.1105"
       id="radialGradient5255"
       xlink:href="#linearGradient5249"
       inkscape:collect="always" />
    <linearGradient
       id="linearGradient5249"
       inkscape:collect="always">
      <stop
         id="stop5251"
         offset="0"
         style="stop-color:#e3e3e3;stop-opacity:1;" />
      <stop
         id="stop5253"
         offset="1"
         style="stop-color:#e3e3e3;stop-opacity:0;" />
    </linearGradient>
  </defs>
  <sodipodi:namedview
     id="base"
     pagecolor="#ffffff"
     bordercolor="#666666"
     borderopacity="1.0"
     inkscape:pageopacity="0.0"
     inkscape:pageshadow="2"
     inkscape:zoom="2.8"
     inkscape:cx="90.136241"
     inkscape:cy="46.549994"
     inkscape:document-units="px"
     inkscape:current-layer="layer1"
     showgrid="false"
     showguides="true"
     inkscape:guide-bbox="true"
     fit-margin-top="0"
     fit-margin-left="0"
     fit-margin-right="0"
     fit-margin-bottom="0"
     inkscape:window-width="1615"
     inkscape:window-height="1026"
     inkscape:window-x="65"
     inkscape:window-y="24"
     inkscape:window-maximized="1">
    <sodipodi:guide
       orientation="-0.70710678,0.70710678"
       position="-1688.915,548.61389"
       id="guide2985" />
  </sodipodi:namedview>
  <metadata
     id="metadata7">
    <rdf:RDF>
      <cc:Work
         rdf:about="">
        <dc:format>image/svg+xml</dc:format>
        <dc:type
           rdf:resource="http://purl.org/dc/dcmitype/StillImage" />
        <dc:title></dc:title>
      </cc:Work>
    </rdf:RDF>
  </metadata>
  <g
     inkscape:label="Ebene 1"
     inkscape:groupmode="layer"
     id="layer1"
     transform="translate(-260.34359,-452.00741)">
    <path
       style="fill:#000000"
       d="m 320.69936,574.63142 c -0.36704,-0.56017 -0.58725,-0.63046 -1.97509,-0.63046 -0.90731,0 -1.75564,-0.1416 -2.02401,-0.33784 -0.29843,-0.21821 -0.89182,-0.29654 -1.67583,-0.22121 -1.09253,0.10498 -1.29053,0.0399 -1.98192,-0.6515 -0.51819,-0.51819 -0.76812,-1.01687 -0.76812,-1.53261 0,-0.47921 -0.23527,-0.99975 -0.63046,-1.39494 -1.02106,-1.02106 -0.67608,-2.49491 0.84625,-3.61536 0.42312,-0.31142 1.21977,-1.33277 1.77034,-2.26965 0.74265,-1.26376 2.06382,-2.72255 5.11855,-5.65174 2.26462,-2.17157 4.20515,-4.03711 4.31228,-4.14566 0.10712,-0.10854 2.09308,-0.33109 4.41321,-0.49454 4.71027,-0.33185 5.9811,-0.62314 7.07425,-1.62159 0.99098,-0.90512 1.42412,-2.93428 1.21357,-5.68546 -0.19126,-2.4992 -0.56821,-3.79035 -2.32436,-7.96155 -0.75883,-1.80237 -1.46697,-3.69711 -1.57364,-4.21054 -0.10668,-0.51342 -0.33073,-0.92214 -0.4979,-0.90827 -0.16716,0.0138 -0.9075,0.0422 -1.64519,0.063 l -1.34125,0.0378 -1.16499,1.61943 c -1.54519,2.14792 -2.85377,2.91366 -5.28533,3.09276 -2.46958,0.18191 -6.12336,-0.4705 -8.20863,-1.46571 -2.06808,-0.987 -3.29132,-2.21931 -4.50988,-4.54334 l -0.9713,-1.85246 -2.90012,-1.06587 c -3.02171,-1.11055 -3.36466,-1.36366 -4.85214,-3.58101 -0.77107,-1.14943 -1.46178,-1.31962 -2.14016,-0.52734 -0.58393,0.68199 -1.48486,0.94496 -4.66987,1.36308 -3.62292,0.47561 -4.15591,0.80626 -5.00424,3.10448 -1.45658,3.94602 -2.1313,4.44643 -5.78674,4.29184 -2.23998,-0.0947 -2.54205,-0.17385 -4.41323,-1.15578 -6.95305,-3.64872 -13.90907,-10.70876 -14.85239,-15.07453 -0.14496,-0.67089 -0.31066,-0.81215 -1.10285,-0.94025 -0.51275,-0.0829 -1.35782,-0.44098 -1.87795,-0.79573 -1.16955,-0.79766 -1.20066,-1.2982 -0.26997,-4.3427 0.37165,-1.21573 0.69947,-2.60761 0.72848,-3.09306 0.029,-0.48545 0.0654,-1.06896 0.0808,-1.29669 0.0429,-0.6325 2.14111,-2.83736 3.57697,-3.75875 0.70428,-0.45193 2.15659,-1.68725 3.22736,-2.74513 3.30651,-3.26676 6.87885,-4.66284 11.76565,-4.59806 l 2.78042,0.0368 1.42297,-2.58251 c 2.55024,-4.62835 3.96404,-7.68035 5.11679,-11.04576 1.38112,-4.03216 2.20137,-5.60678 4.30954,-8.27286 2.70915,-3.42608 4.36962,-4.39092 9.7574,-5.66962 0.93815,-0.22265 2.57125,-0.80473 3.62914,-1.2935 3.078,-1.42212 5.52446,-1.13 6.58007,0.7857 0.31637,0.57415 1.18626,1.72871 1.93308,2.56569 1.29423,1.45048 1.3886,1.65289 2.01395,4.31973 0.45197,1.92747 0.65609,3.50728 0.65609,5.07795 l 0,2.28003 -1.31969,1.39537 c -1.2589,1.33111 -1.29733,1.41172 -0.83444,1.7502 0.87307,0.6384 2.48556,0.39723 6.47983,-0.96915 l 3.87027,-1.32397 5.92632,-0.0446 c 5.80416,-0.0437 5.9835,-0.0608 8.70034,-0.82931 1.52571,-0.43157 3.81249,-1.19221 5.08173,-1.6903 1.9675,-0.77209 2.32771,-1.00302 2.4433,-1.56643 0.20398,-0.9942 2.42428,-3.58061 3.58274,-4.17352 0.56122,-0.28724 1.69605,-1.04246 2.52184,-1.67827 2.24645,-1.72966 4.79176,-3.14551 7.04946,-3.92132 2.64757,-0.90979 6.99003,-1.1063 10.70822,-0.48457 2.23665,0.37399 3.59029,0.72856 9.34039,2.44662 1.42456,0.42564 2.0869,0.46789 5.05831,0.32265 3.20796,-0.15682 3.48644,-0.13278 4.50977,0.38929 1.03012,0.52553 1.18333,0.53802 2.75941,0.22481 2.67246,-0.5311 6.97195,-0.37839 10.74732,0.38171 4.74291,0.9549 5.27003,0.91744 7.22255,-0.51322 0.88212,-0.64636 2.09471,-1.6044 2.69459,-2.12894 1.70636,-1.49212 5.26386,-3.84348 7.55042,-4.9905 2.40893,-1.20843 5.57227,-2.04057 7.76688,-2.04311 1.47281,-0.002 5.87841,0.52906 8.13282,0.97979 1.18389,0.23669 5.55933,-0.5494 8.49527,-1.52628 3.04073,-1.01175 8.98439,-4.52004 10.5917,-6.25184 0.41609,-0.44832 1.15655,-1.02097 1.6454,-1.27254 1.22878,-0.63233 3.79885,-1.10102 5.18236,-0.94508 2.22887,0.25123 4.06903,2.52077 4.68756,5.78123 l 0.31463,1.6585 1.60614,-1.21589 c 0.93792,-0.71001 2.29498,-1.44512 3.26187,-1.76687 1.45776,-0.48511 1.81031,-0.51638 2.94902,-0.26155 1.87583,0.4198 2.75523,1.0588 3.67896,2.67334 1.4733,2.57508 1.79065,4.35563 1.91055,10.71968 0.12711,6.74718 0.38799,9.20176 1.40724,13.23964 0.57832,2.29124 0.72495,3.32179 0.60372,4.24323 -0.23129,1.75778 -1.05612,3.69349 -2.00671,4.7093 -0.45429,0.48545 -1.36058,1.59129 -2.01402,2.45742 -1.2208,1.61825 -1.40475,1.71852 -3.55638,1.93868 -5.04007,0.51571 -4.82725,0.52695 -6.20178,-0.32752 -0.99128,-0.61622 -1.37465,-0.7346 -1.74212,-0.53796 -0.25911,0.13868 -0.89334,0.25213 -1.40936,0.25213 -0.7666,0 -1.11385,-0.18457 -1.89788,-1.00873 -0.52777,-0.55481 -1.06888,-1.00874 -1.20249,-1.00874 -0.1336,0 -0.56377,-0.26726 -0.9558,-0.59392 -0.39208,-0.32666 -1.13133,-0.73031 -1.64278,-0.897 -1.84385,-0.60093 -2.97896,-1.98553 -2.97896,-3.63381 0,-0.69996 -0.16382,-0.97494 -0.86876,-1.45796 -1.56254,-1.07068 -1.70937,-1.98014 -0.85495,-5.29613 l 0.55903,-2.16976 -0.49826,-1.15106 -0.49826,-1.15106 -2.4056,1.55553 c -1.32307,0.85554 -3.30506,2.38542 -4.40436,3.39974 -2.62083,2.41815 -5.43162,4.2624 -10.25719,6.73004 -2.95073,1.5089 -3.98109,2.15803 -4.08731,2.5751 -0.15024,0.58956 -2.75368,2.95003 -4.82793,4.37737 -0.7112,0.48937 -2.19925,1.131 -3.50544,1.51148 -1.80116,0.52468 -2.64263,0.94264 -4.07669,2.02492 -3.45501,2.60744 -8.9878,5.13421 -13.73437,6.27234 -1.05793,0.25367 -2.21648,0.65318 -2.57457,0.8878 -0.70161,0.45971 -3.40858,0.72198 -11.51562,1.11569 -4.67798,0.22718 -5.95615,0.49293 -8.70036,1.80894 -0.91078,0.43678 -2.54278,0.90097 -4.09986,1.16612 -2.47948,0.42225 -2.67294,0.42152 -4.66538,-0.0176 -5.06317,-1.11584 -5.65439,-1.20354 -7.24842,-1.07518 -2.10646,0.16963 -4.77407,0.8677 -7.94378,2.07878 -2.40296,0.91812 -2.61101,1.05871 -4.41322,2.98197 -1.04026,1.11014 -2.85007,2.98619 -4.0218,4.16902 l -2.13043,2.15057 -0.005,1.6392 c -0.003,0.90155 0.21822,2.49031 0.49123,3.53057 0.39488,1.50473 0.49588,2.71624 0.49402,5.92632 l -0.003,4.03494 -1.34834,3.12814 c -1.04464,2.42356 -1.53908,4.04241 -2.19518,7.18724 -0.46586,2.23251 -1.09266,5.19393 -1.39299,6.58094 -0.30033,1.38701 -0.62426,3.61994 -0.71984,4.96206 -0.14436,2.0272 -0.28442,2.60743 -0.82747,3.42804 -1.30319,1.96924 -5.38433,3.99643 -9.52525,4.73138 -4.65215,0.82568 -5.7343,1.35914 -9.00761,4.44043 -2.36744,2.22857 -3.86057,2.99107 -5.85703,2.99107 -1.33844,0 -1.56398,-0.0738 -1.92877,-0.63046 z m 3.53522,-0.8756 c 0.35461,-0.13482 1.51863,-1.10495 2.58671,-2.15584 3.4315,-3.37629 5.39209,-4.32755 10.89346,-5.28544 4.07248,-0.70909 6.63493,-2.04166 7.95329,-4.13601 0.46772,-0.74302 0.60215,-1.40549 0.72258,-3.56078 0.0836,-1.4949 0.38081,-3.46467 0.68272,-4.5236 0.29414,-1.03161 1.55441,-6.13833 2.80061,-11.34827 l 2.26583,-9.4726 -0.41078,-2.64793 c -0.98358,-6.34011 -0.98443,-6.36276 -0.4279,-11.52472 0.48223,-4.47284 0.49278,-4.97 0.13849,-6.52324 -0.28337,-1.24227 -0.61423,-1.93676 -1.2669,-2.65918 -1.35573,-1.50062 -2.24906,-1.65905 -9.05822,-1.60632 l -5.83518,0.0452 -3.24343,1.52641 c -3.7414,1.76077 -7.87188,3.34119 -8.73227,3.34119 -0.8411,0 -1.56456,-0.58877 -1.36439,-1.11039 0.12936,-0.33711 0.34996,-0.39187 1.04971,-0.26059 0.97713,0.18331 1.14033,-0.0859 0.4376,-0.72187 -0.31458,-0.28468 -1.04819,-0.42802 -2.4588,-0.48041 -1.81744,-0.0675 -2.01045,-0.12308 -2.01045,-0.57903 0,-0.46798 0.15612,-0.50177 2.16366,-0.46836 1.64645,0.0274 2.41107,0.16223 3.19869,0.56404 0.87949,0.44869 1.21953,0.49306 2.2627,0.29523 1.62039,-0.30731 3.70607,-1.13766 5.11254,-2.03543 2.8642,-1.82826 3.78346,-1.9907 9.32849,-1.64847 1.59506,0.0985 3.67904,0.0853 4.63107,-0.0293 l 1.73096,-0.20829 0.48083,-1.29061 c 0.54267,-1.45658 2.01111,-3.1226 2.75226,-3.1226 0.65222,0 0.62703,0.11402 -0.27243,1.23327 -0.42055,0.52332 -0.9875,1.53802 -1.25988,2.25486 -0.46332,1.21935 -0.46686,1.30355 -0.055,1.30639 0.24215,0.002 0.93417,0.28538 1.53781,0.63046 1.29888,0.74253 3.51882,0.83992 5.96363,0.26165 1.52291,-0.36022 2.07714,-0.22987 1.82428,0.42908 -0.14143,0.36855 -1.8871,0.81459 -4.24434,1.08447 l -1.41132,0.16158 0.3356,1.42585 c 0.36404,1.54665 0.4185,4.6755 0.1181,6.78474 -0.10371,0.72818 -0.13767,1.32396 -0.0755,1.32396 0.0622,0 1.21627,-1.05885 2.56459,-2.353 2.00365,-1.92315 2.8846,-2.56617 4.82232,-3.51988 1.30396,-0.64178 3.27869,-1.46438 4.3883,-1.82797 2.23166,-0.73128 2.3562,-0.8454 4.11764,-3.77351 2.25894,-3.75508 3.32179,-6.99371 3.32179,-10.12187 0,-3.1996 -1.01077,-5.74913 -3.76954,-9.50824 -0.97625,-1.33023 -4.33888,-4.01202 -5.92523,-4.72553 -0.99007,-0.44532 -0.99768,-0.44454 -1.73592,0.17664 -1.60057,1.3468 -3.67141,2.01523 -4.09914,1.32316 -0.18704,-0.30264 -0.0761,-0.38894 2.13072,-1.65817 l 1.40618,-0.80873 -1.37991,-0.60975 c -1.59889,-0.70653 -6.12395,-2.186 -6.68598,-2.186 -0.21035,0 -1.08293,0.35359 -1.93906,0.78577 -1.72241,0.86947 -6.1638,2.62405 -8.89464,3.51385 -1.64066,0.53458 -2.21926,0.57674 -8.19597,0.59725 l -6.43068,0.0221 -3.96044,1.57545 c -4.32145,1.71908 -4.87961,1.8044 -7.79424,1.19128 -2.69833,-0.56761 -6.01177,-0.75101 -7.09707,-0.39283 -0.85575,0.28243 -2.50905,1.81346 -2.75498,2.55125 -0.16986,0.50961 -0.71154,0.0374 -0.71154,-0.62027 0,-0.8081 0.83495,-1.7874 2.21198,-2.5944 1.05903,-0.62063 1.45112,-0.69301 4.26065,-0.78655 l 3.09427,-0.10301 1.24968,-1.32136 c 0.81873,-0.86568 1.35339,-1.7032 1.5504,-2.42862 0.4033,-1.48506 0.15723,-4.12779 -0.62882,-6.75347 -0.52854,-1.76549 -0.79513,-2.25411 -1.61068,-2.95219 -0.53753,-0.4601 -1.21599,-1.39136 -1.5077,-2.06946 -0.64976,-1.51041 -1.00729,-1.8231 -2.27965,-1.99375 -0.82844,-0.11112 -1.18675,1.4e-4 -2.16251,0.67147 -0.80777,0.55577 -1.96627,0.99536 -3.74536,1.4212 -4.46166,1.0679 -4.70599,1.15811 -6.43346,2.37538 -2.67516,1.88505 -4.1179,3.6014 -5.73104,6.81792 -0.78866,1.57252 -1.88282,4.16099 -2.43148,5.75216 -2.07685,6.02312 -2.92313,7.74512 -5.17413,10.5283 -0.93945,1.16157 -1.00543,1.36105 -0.4502,1.36105 0.72991,0 2.76654,1.21471 3.95246,2.35736 l 1.18681,1.14353 1.07307,-1.28166 c 1.05763,-1.26323 1.0736,-1.31104 1.11103,-3.32659 0.0493,-2.65194 0.64202,-4.26873 2.71461,-7.40406 2.00512,-3.0333 2.52217,-4.47103 3.3157,-9.21986 0.34327,-2.05429 0.83697,-4.21622 1.09711,-4.8043 0.85304,-1.92844 2.81542,-3.71551 2.81542,-2.5639 0,0.20409 -0.28309,1.0112 -0.62909,1.79356 -1.04059,2.35296 -1.41731,3.88024 -1.64322,6.66179 -0.28876,3.55525 -0.93519,5.48671 -2.65869,7.94378 -1.84079,2.62431 -2.51929,3.97697 -3.04535,6.07119 -0.48045,1.9127 -0.32097,3.29498 0.62341,5.40317 l 0.50836,1.13483 0.0178,-0.81373 c 0.0147,-0.67013 0.24914,-0.99659 1.32869,-1.84992 2.90505,-2.29631 5.64912,-3.13536 8.22952,-2.51634 1.80631,0.43334 2.56442,1.20647 2.56442,2.61524 0,1.14672 -0.48424,1.88017 -1.02192,1.54787 -0.16273,-0.10058 -0.23504,-0.52035 -0.16663,-0.9674 0.24208,-1.58214 -1.06138,-2.81925 -2.89348,-2.74619 -1.56083,0.0622 -4.63255,1.71695 -5.82508,3.13792 -0.91428,1.08944 -0.99971,1.32256 -1.09652,2.99256 -0.0959,1.65378 -0.0661,1.79603 0.3426,1.63792 0.75979,-0.2939 1.8346,-0.46178 1.8346,-0.28656 0,0.0915 -0.17923,0.44003 -0.39829,0.77435 -0.28584,0.43625 -0.79525,0.69027 -1.80434,0.89977 -1.57972,0.32794 -2.77515,0.20244 -4.98486,-0.52329 -1.36183,-0.44727 -1.57646,-0.61602 -2.14356,-1.68535 -1.00041,-1.88635 -2.93173,-3.69694 -4.54049,-4.25664 -2.05691,-0.71561 -6.55596,-0.67389 -8.97441,0.0832 -3.41384,1.06872 -7.16871,4.16981 -8.71215,7.19519 -0.74182,1.45407 -1.226,4.11473 -1.28417,7.05669 -0.0419,2.11902 0.0522,2.88687 0.52359,4.27074 1.27712,3.74967 3.65505,6.47282 9.48662,10.86386 5.40351,4.06871 6.44961,4.5245 9.30248,4.05317 1.2572,-0.2077 2.10186,-1.34883 3.31398,-4.47715 0.84008,-2.16809 2.39145,-7.8339 2.39593,-8.75016 9.1e-4,-0.2232 -0.46159,-0.93247 -1.02819,-1.57615 -0.85418,-0.9704 -0.9468,-1.17033 -0.5422,-1.17033 0.74659,0 2.45591,1.35856 2.82232,2.24318 0.21293,0.51405 0.26982,1.24908 0.1633,2.10991 -0.0899,0.72658 -0.23161,2.12787 -0.31489,3.11398 l -0.1514,1.79293 2.53895,-0.34915 c 1.39644,-0.19203 3.34141,-0.61075 4.32218,-0.93049 1.664,-0.54247 1.75343,-0.60817 1.33773,-0.98282 -0.24502,-0.22081 -0.75755,-0.47935 -1.13898,-0.57455 -0.72187,-0.18016 -0.79596,-0.31454 -0.54043,-0.98041 0.42507,-1.10772 1.85619,-0.10548 3.7899,2.65414 0.76411,1.09046 1.67103,2.20428 2.01538,2.47515 0.34436,0.27087 1.65457,0.86038 2.91157,1.31003 3.22823,1.15476 3.72771,1.54846 4.42077,3.48446 0.80973,2.26193 1.19403,2.75401 2.68129,3.43318 3.13711,1.43258 6.78838,1.93602 9.13347,1.25931 1.3156,-0.37962 1.74787,-0.68578 3.5174,-2.49118 1.10961,-1.1321 2.15421,-2.28533 2.32134,-2.56273 0.29946,-0.49708 0.30623,-0.49629 0.46854,0.0547 0.20359,0.69109 0.82558,0.90585 1.99059,0.6873 l 0.89367,-0.16765 0,-1.74975 c 0,-1.88344 0.35804,-2.87641 1.46298,-4.0574 0.35687,-0.38143 0.79784,-0.6935 0.97994,-0.6935 0.49505,0 0.405,0.78246 -0.34044,2.95784 -0.45871,1.33866 -0.6785,2.51919 -0.6935,3.72503 -0.0192,1.54713 0.0926,1.999 0.90542,3.65666 1.57088,3.20375 3.00887,6.87042 3.23983,8.26109 0.28726,1.72966 -0.10053,7.63075 -0.54922,8.35753 -0.78255,1.26756 -4.64873,2.3528 -10.77058,3.02329 l -2.1089,0.23097 -1.92604,2.00321 c -1.05932,1.10177 -2.72042,2.69816 -3.69133,3.54756 -0.9709,0.8494 -2.16247,2.1227 -2.64792,2.82956 -0.48546,0.70686 -1.53517,2.02688 -2.33271,2.93337 -0.79752,0.9065 -1.45005,1.8106 -1.45005,2.00914 0,0.19854 0.25534,0.46297 0.56741,0.58761 0.66912,0.26726 0.8365,0.0945 2.78475,-2.87484 1.79928,-2.74226 3.33832,-4.36343 5.65395,-5.95569 1.08014,-0.74271 2.65859,-2.06488 3.50768,-2.93815 1.1226,-1.15457 1.72464,-1.58776 2.20662,-1.58776 0.98804,0 0.81412,0.59075 -0.40899,1.38913 -0.58947,0.38479 -1.39604,1.08553 -1.79237,1.55722 -0.39634,0.47168 -1.5879,1.43566 -2.64793,2.14219 -1.06003,0.70651 -2.24993,1.58123 -2.64421,1.94382 -0.86304,0.79364 -3.45396,4.34538 -4.06821,5.57683 -0.24214,0.48545 -0.83659,1.29654 -1.321,1.80243 l -0.88076,0.9198 0.53027,0.53026 c 0.32294,0.32294 0.85071,0.52935 1.34985,0.52791 0.71898,-0.002 1.01338,-0.24423 2.39803,-1.97252 0.86813,-1.08358 1.87395,-2.56321 2.23516,-3.28807 0.45801,-0.91911 1.16322,-1.72571 2.33043,-2.66551 0.92053,-0.74116 2.12761,-1.82344 2.68242,-2.40506 0.5548,-0.58162 1.43429,-1.27715 1.95442,-1.54562 0.52013,-0.26847 0.94569,-0.6478 0.94569,-0.84297 0,-0.88844 2.33093,-1.90704 3.50865,-1.53324 0.83006,0.26345 0.61427,0.63742 -0.36782,0.63742 -0.86474,0 -2.1321,0.87836 -2.1321,1.47767 0,0.13183 -0.51649,0.54238 -1.14778,0.91234 -1.89065,1.10799 -5.84868,4.87696 -6.84638,6.51934 -0.49972,0.82264 -1.47771,2.17957 -2.1733,3.01541 l -1.26471,1.5197 0.57426,0.46501 c 0.81955,0.66364 1.93635,0.59364 2.63985,-0.16546 0.72578,-0.78312 1.20753,-0.80959 1.14705,-0.063 -0.0772,0.95185 -0.0114,1.11054 0.57728,1.39446 0.72862,0.35138 1.26006,0.36753 2.06197,0.0627 z m -0.61192,-4.26918 c 0,-0.77773 2.08556,-3.30789 4.15053,-5.03529 1.05579,-0.8832 2.08049,-1.91693 2.27713,-2.29718 0.3843,-0.74314 1.56597,-1.367 2.31578,-1.22259 0.70178,0.13514 0.54421,0.54238 -0.37842,0.97803 -0.45631,0.21546 -0.96473,0.66252 -1.12981,0.99346 -0.16509,0.33095 -1.3007,1.44625 -2.52359,2.47844 -1.2229,1.0322 -2.68344,2.48598 -3.24565,3.23062 -1.08007,1.43054 -1.46597,1.66075 -1.46597,0.87451 z m 20.8663,-12.36031 c -0.38248,-0.2452 -0.75985,-0.51023 -0.83859,-0.58898 -0.26516,-0.26517 1.44281,-6.77679 1.74905,-6.66823 0.326,0.11557 0.32197,0.21404 -0.0947,2.31795 -0.16482,0.8322 -0.24972,2.39259 -0.18866,3.46752 0.061,1.07494 0.1014,1.94613 0.0897,1.93599 -0.0117,-0.0102 -0.33428,-0.21905 -0.71675,-0.46425 z m -30.64788,-28.56574 c -0.40951,-0.40951 -0.38772,-2.04244 0.041,-3.0684 0.85099,-2.0367 4.69694,-5.20924 4.69694,-3.87451 0,0.17771 -0.68912,1.00046 -1.53139,1.82832 -1.89521,1.8628 -2.07668,2.17672 -2.24358,3.88111 -0.13736,1.40272 -0.4251,1.77131 -0.96293,1.23348 z m -4.59289,-4.06507 c -3.96167,-1.51038 -5.83517,-3.14065 -6.71366,-5.84202 -0.49115,-1.5103 -0.86493,-1.9795 -2.00961,-2.52269 -1.6048,-0.76153 -0.72262,-1.49679 0.91165,-0.75983 1.26194,0.56905 1.5528,0.92312 2.27654,2.77127 0.95101,2.42853 1.62881,2.9634 5.9108,4.66439 2.40141,0.95395 3.15485,1.44292 3.15485,2.04749 0,0.7032 -1.01624,0.59999 -3.53057,-0.35861 z m 31.65659,-1.37263 c 0.21947,-2.94963 -0.55791,-3.94675 -3.38895,-4.34692 -1.81579,-0.25666 -2.00056,-0.36574 -1.6279,-0.96104 0.92534,-1.47816 5.02868,0.5761 6.00005,3.0038 0.33563,0.83882 0.36508,1.28727 0.15806,2.40713 -0.29698,1.60646 -0.41837,1.85145 -0.91739,1.85145 -0.30501,0 -0.34398,-0.34021 -0.22387,-1.95442 z m -26.83179,-5.18228 c -0.86976,-1.31905 -1.54641,-2.62479 -1.54641,-2.98415 0,-0.35142 -0.12559,-1.26426 -0.27907,-2.02853 -0.23924,-1.1912 -0.21629,-1.51226 0.16064,-2.24867 0.7438,-1.45316 1.89535,-2.74613 2.90408,-3.26076 1.18791,-0.60602 1.30504,-0.7916 1.52564,-2.41718 0.21334,-1.57215 0.80566,-2.89187 1.48963,-3.31902 0.65051,-0.40624 4.99313,-1.24241 8.06918,-1.55371 2.47641,-0.25061 4.05096,-0.0955 4.22142,0.41586 0.1117,0.33511 -0.66599,0.4879 -3.59096,0.70554 -4.18973,0.31176 -7.02018,1.01594 -7.87263,1.95861 -0.54805,0.60605 -1.12365,2.07055 -0.90123,2.29297 0.0756,0.0756 0.4579,-0.0282 0.84952,-0.23074 0.96005,-0.49647 1.49366,-0.46353 1.49366,0.0922 0,0.65532 -0.86964,1.37044 -2.90012,2.38481 -0.97091,0.48504 -1.95613,1.09337 -2.18938,1.35185 -0.8198,0.90847 -1.71448,3.21358 -1.717,4.4238 -0.004,1.5664 0.31182,2.31937 1.65164,3.94682 1.22929,1.49321 1.53403,2.81552 0.64887,2.81552 -0.31531,0 -0.98232,-0.77537 -2.01748,-2.34521 z m 15.14815,-2.74891 c -0.40943,-0.40942 -0.38386,-2.26389 0.0392,-2.84245 0.42045,-0.575 1.30589,-0.34343 1.06702,0.27905 -0.23599,0.61497 0.31721,1.10074 1.25356,1.10074 1.30945,0 2.05945,-0.40407 2.73431,-1.47312 0.79921,-1.26601 2.57808,-2.16321 4.31238,-2.17498 1.06637,-0.007 1.26091,0.0641 1.26091,0.46274 0,0.37302 -0.3675,0.56385 -1.7619,0.91485 -1.62086,0.40802 -1.8732,0.56634 -3.15229,1.97768 -0.76473,0.84379 -1.70986,1.65205 -2.10032,1.79613 -0.96702,0.35686 -3.2811,0.33112 -3.65286,-0.0407 z m 18.97393,-0.47727 c -0.26887,-0.30051 -0.97683,-0.75705 -1.57325,-1.01451 -0.85665,-0.36982 -1.18792,-0.7022 -1.57739,-1.58265 -0.46119,-1.04261 -0.451,-1.91881 0.0224,-1.91881 0.11368,0 0.55605,0.61064 0.98307,1.35697 0.54844,0.95858 1.0166,1.44657 1.59465,1.66219 1.94199,0.72438 1.98915,0.75729 1.90728,1.33088 -0.10792,0.75621 -0.75748,0.83565 -1.35669,0.16593 z m -46.9193,-3.36482 c -0.1401,-0.36507 0.15492,-1.96636 0.55377,-3.00572 0.12089,-0.31505 -0.21699,-0.23731 -1.50302,0.34581 -2.02892,0.91995 -2.74686,0.97599 -2.63328,0.20555 0.0623,-0.42295 0.53504,-0.72846 2.08879,-1.35002 1.19932,-0.47977 2.39157,-1.17092 2.96,-1.71589 1.12286,-1.07654 6.7031,-4.85896 7.91636,-5.36589 1.15156,-0.48116 1.41261,-0.44411 1.31831,0.1871 -0.0556,0.37211 -0.77624,0.95854 -2.32334,1.89062 -1.23352,0.74315 -2.73926,1.75803 -3.3461,2.25529 -1.31648,1.07876 -3.00222,3.4856 -3.78004,5.39701 -0.59247,1.45595 -0.99405,1.82694 -1.25145,1.15614 z m 12.76391,-13.01583 c 0,-0.28403 0.30837,-0.80219 0.68527,-1.15149 0.79603,-0.73774 3.98442,-2.48161 6.44695,-3.52612 1.48503,-0.6299 1.63016,-0.74686 1.102,-0.88812 -0.33455,-0.0894 -0.93802,-0.40646 -1.34104,-0.70443 -0.58382,-0.43163 -1.34644,-0.59818 -3.75161,-0.81933 l -3.01883,-0.27756 -2.84285,1.42574 c -1.56357,0.78415 -3.34428,1.49446 -3.95713,1.57847 -1.0052,0.13778 -1.18961,0.0774 -1.88358,-0.61657 -0.48119,-0.48117 -0.7121,-0.91835 -0.61657,-1.16731 0.20769,-0.54125 0.68475,-0.50011 1.23359,0.10636 0.32503,0.35914 0.77672,0.50437 1.56877,0.50437 1.29277,0 1.85288,-0.25419 3.18445,-1.44513 1.1783,-1.05387 4.30022,-2.58982 5.26398,-2.58982 0.71425,0 0.92374,0.43256 0.44253,0.91377 -0.17599,0.17599 0.40559,0.35834 1.82834,0.57329 1.3034,0.1969 2.49613,0.55325 3.17816,0.9495 1.16002,0.67397 1.95729,0.65689 2.67144,-0.0573 0.38313,-0.38312 0.90221,-0.3029 0.90221,0.13942 0,0.1206 -0.19859,0.41964 -0.44132,0.66452 -0.42061,0.42433 -0.41765,0.4357 0.063,0.24235 0.2774,-0.11159 1.63919,-0.60157 3.0262,-1.08884 1.38702,-0.48727 2.62965,-0.98542 2.76142,-1.10698 0.4936,-0.45538 -1.27453,-0.20316 -2.09885,0.2994 -1.37276,0.83691 -2.26684,-0.0359 -0.93243,-0.91031 0.489,-0.3204 1.21495,-0.3889 3.59362,-0.33913 1.63947,0.0343 4.56959,-0.0704 6.51141,-0.23255 1.94181,-0.16221 4.70041,-0.29592 6.1302,-0.29714 3.30729,-0.003 5.80193,-0.39055 7.45006,-1.15794 1.56889,-0.73049 2.2519,-0.78448 2.1333,-0.16863 -0.11798,0.6126 -1.65362,1.27916 -4.21256,1.82852 -2.68219,0.57581 -4.20031,0.72374 -10.11399,0.98558 l -4.6654,0.20655 -4.28712,1.44389 c -4.56728,1.53824 -8.79006,3.43791 -12.81829,5.76648 -2.69648,1.55872 -3.19538,1.70181 -3.19538,0.91646 z m 35.18087,-2.50779 c -0.33439,-0.54106 0.33738,-1.13674 1.30492,-1.15712 0.52992,-0.0112 2.47209,-0.49848 4.31592,-1.08293 3.32699,-1.05458 3.36663,-1.07616 5.229,-2.84522 1.21714,-1.15617 2.01085,-1.73106 2.25867,-1.63596 0.99196,0.38065 0.0718,2.08681 -1.79285,3.32453 -3.46938,2.30284 -10.65806,4.46071 -11.31566,3.3967 z m -6.82762,-10.36973 c -0.26264,-0.42495 0.27839,-0.65425 3.18744,-1.35091 3.05182,-0.73085 4.52159,-0.82175 4.52159,-0.27964 0,0.40574 -0.71464,0.66994 -3.78276,1.39842 -2.40908,0.57202 -3.67013,0.64657 -3.92627,0.23213 z m -37.01922,-8.00371 c -0.26267,-0.29024 -0.4441,-0.97726 -0.4804,-1.81913 -0.048,-1.11398 0.0195,-1.36876 0.38298,-1.44349 0.34242,-0.0704 0.44132,0.0789 0.44132,0.66601 0,0.51453 0.20981,0.92177 0.65549,1.27234 0.61503,0.48378 0.71228,0.49188 1.57614,0.13124 0.50637,-0.2114 1.02848,-0.49192 1.16025,-0.62339 0.358,-0.35719 1.14743,-0.28829 1.14743,0.10016 0,0.5281 -0.83171,1.15511 -2.24406,1.69176 -1.60814,0.61105 -2.10418,0.61565 -2.63915,0.0245 z m -41.5186,37.44283 c 0,-0.19071 -0.074,-0.71709 -0.1646,-1.16974 l -0.1646,-0.82301 -0.45529,0.85452 c -0.62025,1.16414 -0.58698,1.48499 0.15402,1.48499 0.36682,0 0.63047,-0.145 0.63047,-0.34676 z m -0.66041,-3.30273 c 0.53496,-0.71035 1.31462,-3.59806 1.04441,-3.86826 -0.12671,-0.12671 -1.35255,2.48108 -2.17062,4.61763 -0.65128,1.701 -0.62027,2.59661 0.0396,1.14201 0.28134,-0.62022 0.77034,-1.47134 1.08667,-1.89138 z m 120.44771,-0.51772 c 0.90156,-0.20735 2.37999,-0.71365 3.28545,-1.1251 2.91682,-1.32543 5.1899,-1.74717 11.5934,-2.15096 6.5484,-0.41293 7.02645,-0.47915 8.37049,-1.15943 1.28618,-0.65099 2.06976,-1.77614 2.84361,-4.08315 1.47374,-4.39362 1.47403,-9.05979 0,-13.93542 -1.27668,-4.22549 -1.69809,-4.96314 -4.40591,-7.71238 l -2.39575,-2.43239 -4.73237,0.48362 -4.73241,0.48364 -1.8271,-0.76062 c -1.0049,-0.41835 -2.35213,-1.19449 -2.99382,-1.72478 -1.35015,-1.1157 -4.1662,-2.6467 -6.07719,-3.30401 -0.72872,-0.25065 -2.31786,-0.6034 -3.53154,-0.7839 -1.21362,-0.1805 -2.20657,-0.41459 -2.20657,-0.5202 0,-0.10561 0.42554,-0.33527 0.94569,-0.51034 l 0.94565,-0.31832 -1.51306,-0.46685 c -2.23075,-0.68827 -5.75435,-1.20311 -8.24199,-1.20427 -3.8054,-0.002 -10.10434,1.9533 -12.71925,3.94779 l -0.93638,0.71422 1.30646,0.29012 c 1.25501,0.27869 1.37335,0.25642 3.00501,-0.56545 1.02721,-0.5174 2.07232,-0.85587 2.64424,-0.85634 1.54858,-9.2e-4 1.13926,0.68435 -0.72664,1.21715 -0.57302,0.16362 -1.18114,0.46531 -1.35137,0.67044 -0.25495,0.30718 -0.20464,0.41347 0.28531,0.60287 0.32716,0.12646 2.14715,0.97815 4.04443,1.89264 3.44534,1.66064 4.2046,2.31117 3.50916,3.00662 -0.20332,0.20332 -1.01063,-0.10508 -2.98822,-1.14151 -6.16879,-3.23299 -9.99955,-4.29073 -12.20389,-3.36969 -0.80876,0.33792 -1.9294,1.3177 -1.70535,1.491 0.0569,0.0441 1.00344,0.33582 2.10334,0.64842 2.40457,0.68339 8.80098,3.20857 11.67486,4.60902 3.08714,1.50437 4.52823,3.07796 6.62258,7.23144 1.51222,2.99905 2.04411,4.68771 2.20013,6.98516 0.1168,1.71965 0.0341,2.39197 -0.5416,4.39238 -0.74816,2.60049 -1.75692,4.97218 -2.91638,6.85654 -0.41584,0.67583 -0.75607,1.29925 -0.75607,1.38536 0,0.30646 2.28814,-0.16334 3.29345,-0.6762 1.36991,-0.69889 2.79683,-2.9721 3.78362,-6.02776 1.33239,-4.12586 1.25339,-6.91521 -0.29247,-10.32452 -0.83445,-1.84039 -0.87233,-2.04946 -0.3711,-2.04946 0.57329,0 1.30734,1.24206 1.91351,3.23777 0.48223,1.58753 0.54417,2.25423 0.44495,4.78827 -0.12382,3.16294 -0.80391,5.71222 -2.4404,9.14809 -0.41473,0.87079 -0.69729,1.6752 -0.62782,1.78755 0.0694,0.11236 0.43332,0.20429 0.80861,0.20429 0.37527,0 1.13462,0.24347 1.68736,0.54105 1.97364,1.06252 3.28985,1.1931 5.92258,0.5876 z m -4.40186,-3.20917 c 0.24083,-0.79712 0.29226,-0.82715 2.2259,-1.29975 2.79155,-0.68227 3.98638,-1.43937 4.61496,-2.92432 l 0.26689,-0.63046 -2.7178,0 c -1.49482,0 -2.79487,-0.0766 -2.88907,-0.17014 -0.0942,-0.0936 -0.10479,-0.37728 -0.0236,-0.63046 0.13092,-0.40777 0.4862,-0.46522 3.11228,-0.50318 2.85785,-0.0413 3.03715,-0.0769 4.98202,-0.98889 2.76136,-1.29488 4.95516,-1.42139 8.70035,-0.50176 3.70077,0.90875 6.13364,0.85365 10.40259,-0.2356 0.61594,-0.15718 0.69347,-0.10789 0.69347,0.44093 0,0.49614 -0.18632,0.67301 -0.94565,0.89767 -2.95121,0.87311 -8.66949,1.07091 -12.54616,0.43395 -3.13825,-0.51562 -4.87688,-0.48839 -5.7543,0.0902 -0.39084,0.2577 -1.27797,1.24992 -1.97137,2.20495 -1.53359,2.11216 -2.88944,3.54924 -3.79922,4.02685 -0.4146,0.21764 -1.43246,0.35749 -2.60191,0.35749 -1.87467,0 -1.91676,-0.0136 -1.74945,-0.56742 z m 7.48608,-17.65286 c 0.19637,-2.65045 1.76697,-6.01289 2.48085,-5.31134 0.23818,0.23404 0.15918,0.69329 -0.36037,2.09495 -0.36598,0.98735 -0.66542,2.17849 -0.66542,2.64699 0,1.2983 -0.40747,2.14555 -1.03184,2.14555 -0.50672,0 -0.53282,-0.0971 -0.42322,-1.57615 z m -121.12185,14.48148 c 0.28324,-0.54294 0.26877,-0.56659 -0.19484,-0.31848 -1.1656,0.62381 -2.56357,2.42449 -2.56357,3.30205 0,0.31021 2.387,-2.27162 2.75841,-2.98357 z m 148.60765,-0.19526 c 5.22382,-1.63145 9.11239,-4.19129 11.79206,-7.76272 2.22699,-2.96809 3.96197,-4.69516 4.71662,-4.69516 0.99552,0 0.67307,0.69501 -1.26758,2.73228 -1.01842,1.0691 -1.99598,2.21351 -2.17243,2.54316 -0.31335,0.58553 -0.30153,0.59551 0.51189,0.43283 3.00981,-0.60196 5.39582,-2.60916 6.9355,-5.83437 0.76688,-1.60636 1.3023,-2.39862 1.83215,-2.71098 0.99372,-0.58579 1.08195,-0.56055 0.78363,0.22412 -0.13918,0.36599 -0.2068,0.71162 -0.15037,0.76809 0.17939,0.17939 6.02846,-2.79764 7.60306,-3.86976 0.83221,-0.56663 2.76141,-2.0768 4.28714,-3.35593 7.06563,-5.92369 11.84201,-8.05629 18.1782,-8.11638 2.31702,-0.022 3.00112,0.0523 3.30822,0.35943 0.64004,0.64006 0.19024,0.87069 -2.06453,1.05852 -1.4745,0.12283 -2.14729,0.27926 -2.14729,0.49931 0,0.48799 1.1753,2.14509 2.45579,3.46246 0.995,1.02368 1.19134,1.40842 1.48,2.90011 0.42069,2.17423 0.43548,3.6455 0.0456,4.54506 -0.16816,0.38796 -1.02534,1.47994 -1.90486,2.42662 -0.87951,0.94668 -1.70656,2.00378 -1.83788,2.34912 -0.4067,1.06974 -0.2824,2.31665 0.28786,2.88688 0.46026,0.46029 0.71031,0.50522 1.987,0.35705 1.32959,-0.15433 1.60185,-0.0959 3.03855,0.6518 l 1.57813,0.82132 1.61709,-0.4309 c 0.99392,-0.26484 1.95632,-0.36727 2.49736,-0.26576 1.07245,0.20118 1.71494,-0.28735 2.14045,-1.62751 0.15981,-0.50336 0.77681,-1.42587 1.37108,-2.05002 1.41927,-1.49063 2.39318,-3.46616 2.38905,-4.84616 -0.004,-0.5941 -0.29531,-1.98803 -0.65227,-3.09763 -1.26217,-3.92344 -1.39678,-4.98042 -1.60546,-12.6092 -0.22476,-8.21433 -0.43974,-9.44776 -1.95561,-11.21871 -1.14564,-1.33843 -1.69016,-1.60112 -3.21438,-1.5507 -2.26895,0.075 -3.52126,0.66506 -4.98599,2.3491 -1.13538,1.3054 -1.70828,1.70284 -4.09754,2.84272 -2.95975,1.41202 -5.27171,2.24871 -7.31692,2.64794 -0.69351,0.13537 -2.09426,0.42416 -3.11283,0.64175 -1.7662,0.3773 -1.97569,0.3703 -4.52393,-0.15159 -2.40821,-0.4932 -2.90343,-0.51879 -5.01662,-0.25909 -4.4777,0.55028 -7.96606,2.20979 -12.78076,6.08018 -3.22423,2.59189 -6.55153,4.41861 -9.17809,5.03891 -0.72816,0.17197 -1.32395,0.36496 -1.32395,0.42888 0,0.064 0.77726,0.0396 1.72725,-0.054 1.42988,-0.14089 1.7529,-0.10327 1.8764,0.21848 0.226,0.58895 -0.26981,0.84138 -2.34272,1.19269 -3.30276,0.55974 -7.0748,0.42872 -9.92584,-0.34477 -2.07162,-0.56203 -3.01014,-0.67456 -5.62608,-0.67456 l -3.13969,0 0.99801,1.19788 c 1.38183,1.65853 3.18768,4.54029 3.55566,5.67413 0.1688,0.52013 0.36542,0.94569 0.43689,0.94569 0.0715,0 1.28262,-0.23745 2.69142,-0.52766 3.93855,-0.81134 7.65721,-0.42018 7.41392,0.77984 -0.0491,0.24234 -0.30043,0.349 -0.69928,0.2968 -2.37607,-0.31096 -3.61768,-0.29576 -5.87537,0.0719 -3.76559,0.61328 -3.44193,0.30841 -2.89233,2.72437 0.72194,3.17345 0.70583,7.80878 -0.0361,10.39872 -0.31788,1.10961 -0.85851,2.57263 -1.2014,3.25116 l -0.62345,1.23369 1.02386,-0.16373 c 0.56316,-0.0901 1.96339,-0.45713 3.11167,-0.81575 z m -0.30798,-5.96333 c 0,-0.51401 0.36619,-0.7617 2.14357,-1.45001 0.83221,-0.32228 2.61871,-1.1437 3.96995,-1.82539 2.31249,-1.16658 3.28392,-1.40713 3.32545,-0.82341 0.0309,0.4323 -2.19171,1.75581 -5.05402,3.00971 -3.11732,1.36563 -4.38495,1.68048 -4.38495,1.0891 z m 55.98481,-4.99398 c 0,-0.62211 0.68161,-2.00494 0.98823,-2.00494 0.41019,0 0.53911,0.8319 0.25999,1.67768 -0.32084,0.97219 -1.24822,1.21533 -1.24822,0.32726 z m 3.16715,-1.08027 c -0.30549,-0.22338 -0.4152,-0.5034 -0.30733,-0.78448 0.14322,-0.3732 0.39809,-0.41575 1.7432,-0.291 2.52234,0.23392 2.88226,0.20199 3.96821,-0.35204 1.11274,-0.56767 1.51612,-0.49838 1.51612,0.26042 0,0.31499 -0.37015,0.67319 -1.0585,1.02436 -0.88669,0.45236 -1.30623,0.51264 -2.58487,0.37137 -2.05707,-0.22728 -1.98006,-0.22592 -2.41627,-0.043 -0.21205,0.089 -0.59932,0.005 -0.86056,-0.18569 z m -33.87053,-5.89337 c -0.68494,-0.25425 -0.25503,-0.78682 0.86227,-1.06815 1.47166,-0.37057 3.06349,-1.28454 4.95104,-2.8427 1.5661,-1.29279 2.19352,-1.49961 2.19352,-0.72306 0,1.38923 -6.54443,5.17678 -8.00683,4.63391 z m -14.10392,-3.50492 c -0.19345,-0.50419 0.38005,-0.90169 1.0688,-0.74077 0.80784,0.18877 2.22992,-0.30145 3.65352,-1.25948 1.47943,-0.99557 1.75305,-1.06069 1.75305,-0.41722 0,0.62596 -1.15498,1.6777 -2.52186,2.29643 -1.42607,0.64555 -3.72522,0.71595 -3.95351,0.12104 z m 13.78868,-1.54059 c 0,-0.39734 0.28072,-0.5407 1.50449,-0.76827 4.39281,-0.81693 11.86607,-5.16473 13.12747,-7.63732 0.62693,-1.22887 0.90886,-1.39408 1.25989,-0.7382 0.78828,1.4729 -2.12108,4.04274 -7.69585,6.79781 -3.78118,1.86866 -5.10789,2.37201 -6.99812,2.65508 -1.0785,0.16151 -1.19788,0.13071 -1.19788,-0.3091 z m 19.45861,-12.70681 c 0.0757,-0.53533 0.23102,-0.61391 1.33232,-0.67391 2.02199,-0.11018 3.8268,-0.70109 5.18373,-1.69716 1.25516,-0.92138 2.01775,-1.02111 2.01775,-0.26388 0,0.94658 -4.27928,2.83566 -6.99885,3.08962 -1.60141,0.14953 -1.61957,0.14416 -1.53495,-0.45467 z m 18.00804,-1.20289 c -0.56725,-1.09695 -1.23135,-1.20367 -2.71146,-0.43573 -0.6942,0.36015 -1.36495,0.59127 -1.49062,0.51361 -0.42551,-0.26298 -0.23154,-1.10657 0.33892,-1.47398 1.894,-1.21979 4.83491,-0.42258 5.0379,1.36564 0.10555,0.93007 -0.69873,0.95093 -1.17474,0.0305 z m -182.21704,35.20913 c 0.003,-0.79585 -1.22965,-3.95148 -1.54886,-3.96512 -0.0873,-0.004 -0.57435,0.5004 -1.08229,1.12026 -0.89915,1.09731 -0.9133,1.14679 -0.53654,1.87539 0.44674,0.86388 0.69336,1.0514 1.90368,1.4474 1.27062,0.41571 1.26062,0.4195 1.26401,-0.47793 z m 170.97752,-9.90631 c 0,-1.6031 0.4534,-2.51405 2.21925,-4.45861 2.45347,-2.70185 2.43199,-4.05067 -0.12295,-7.71522 -0.90276,-1.29481 -1.88967,-2.79133 -2.19315,-3.32561 l -0.55178,-0.97142 -3.08016,1.00273 c -1.88523,0.61372 -3.08017,1.13242 -3.08017,1.33699 0,0.18385 0.29863,0.98654 0.66357,1.78376 l 0.66361,1.44949 -0.56143,1.3546 c -0.30882,0.74503 -0.62153,1.80251 -0.69496,2.34994 -0.12475,0.9302 -0.0572,1.0648 1.03268,2.05666 0.977,0.88913 1.16616,1.20958 1.16616,1.97516 0,1.20011 0.53126,1.91203 1.97197,2.64264 0.64922,0.32921 1.39654,0.8378 1.66074,1.13019 0.71236,0.78829 0.90662,0.6573 0.90662,-0.6113 z m -2.10153,-0.79049 c -0.56444,-0.56442 0.41805,-3.11027 1.20029,-3.11027 0.64961,0 0.72257,0.53322 0.17441,1.27469 -0.29375,0.39731 -0.5341,1.01067 -0.5341,1.36304 0,0.6029 -0.45465,0.85849 -0.8406,0.47254 z m 1.02976,-5.14785 c -1.21367,-0.70438 -2.20663,-1.3852 -2.20663,-1.51293 0,-0.53806 1.29513,-0.16279 2.67695,0.77565 1.23083,0.8359 1.62395,0.98173 2.30367,0.85457 0.87319,-0.16333 1.12388,0.25424 0.51698,0.86112 -0.50255,0.50257 -0.98794,0.35826 -3.29097,-0.97841 z m -3.86949,-0.0767 c -0.32766,-0.85389 0.79265,-2.62275 1.32438,-2.09103 0.25663,0.25664 -0.4635,2.25086 -0.85923,2.37952 -0.17333,0.0564 -0.38261,-0.0735 -0.46515,-0.28849 z m -35.94785,-9.3448 c 3.71601,-1.28915 4.8113,-1.77748 5.54807,-2.47351 2.32793,-2.19929 6.55835,-5.00003 10.24873,-6.78516 3.71509,-1.79706 6.285,-2.25931 12.23093,-2.19993 4.04189,0.0403 5.00173,-0.0295 7.18191,-0.52284 2.91148,-0.6588 5.54875,-1.55859 7.25562,-2.47547 l 1.19788,-0.64347 0,-1.6757 c 0,-3.1033 -1.97922,-5.70908 -4.29031,-5.64849 -2.21175,0.058 -3.47537,0.58323 -4.83803,2.01104 -2.74185,2.87281 -9.41396,6.0179 -16.78355,7.91139 -0.80303,0.20633 -1.0718,0.39941 -1.0718,0.77002 0,0.73872 -0.92393,0.63204 -3.20311,-0.36981 -4.84145,-2.12813 -9.44803,-1.7693 -14.89612,1.16037 -3.22476,1.73407 -9.39852,6.47999 -7.92995,6.09596 0.43889,-0.11478 0.55863,-0.0382 0.55863,0.3571 0,0.89061 -1.29848,1.19577 -5.04367,1.18535 -2.91883,-0.008 -3.75108,-0.10706 -5.83428,-0.69352 -2.70096,-0.76034 -3.95026,-0.82401 -7.68723,-0.39174 l -2.55152,0.29514 0.78624,1.03267 c 0.43243,0.56796 1.00598,1.52255 1.27451,2.12129 0.4502,1.00365 0.54861,1.07826 1.26092,0.95583 0.42496,-0.073 1.87973,-0.25963 3.23294,-0.41464 2.33406,-0.26739 2.49432,-0.2551 3.12326,0.23963 0.53923,0.42417 1.02367,0.52148 2.59601,0.52148 2.66834,0 8.12793,0.46973 10.10375,0.86929 0.90156,0.18233 1.9229,0.34106 2.26964,0.35274 0.34674,0.0116 2.71399,-0.70159 5.26053,-1.58502 z m -7.74402,-1.77879 c 0.0577,-0.29047 0.73388,-0.67604 1.97913,-1.12864 2.98288,-1.08418 3.00301,-1.0954 6.03547,-3.3667 3.00713,-2.25231 3.85771,-2.66442 4.46268,-2.16232 0.55365,0.45949 0.33259,0.70928 -1.17234,1.32468 -0.76011,0.31082 -2.5199,1.41404 -3.91066,2.45159 -2.74726,2.04957 -4.36311,2.86052 -6.25947,3.14145 -1.08242,0.16036 -1.21255,0.13053 -1.13481,-0.26006 z m 42.73827,-13.42013 c -0.32601,-0.326 -0.13961,-1.07407 0.33023,-1.32553 1.31789,-0.70532 4.55588,0.0923 4.55588,1.12225 0,0.52813 -0.4478,0.47968 -1.70777,-0.18473 l -1.07738,-0.56812 -0.97171,0.55684 c -0.53445,0.30627 -1.04258,0.48595 -1.12925,0.39929 z m -64.49287,14.74231 c -0.85606,-1.62793 -1.84918,-2.73706 -3.05975,-3.41714 -1.20942,-0.6794 -1.59881,-0.7572 -4.46328,-0.89176 l -3.13834,-0.14742 2.88612,1.56618 c 1.58735,0.8614 3.29057,1.87565 3.78495,2.2539 0.89523,0.68493 2.25024,1.13014 3.58629,1.17833 0.65079,0.0234 0.68045,-0.0164 0.40401,-0.54209 z"
       id="path3213"
       inkscape:connector-curvature="0" />
  </g>
</svg>
