<?xml version="1.0" encoding="UTF-8" standalone="no"?>
<!-- Created with Inkscape (http://www.inkscape.org/) -->

<svg
   xmlns:dc="http://purl.org/dc/elements/1.1/"
   xmlns:cc="http://creativecommons.org/ns#"
   xmlns:rdf="http://www.w3.org/1999/02/22-rdf-syntax-ns#"
   xmlns:svg="http://www.w3.org/2000/svg"
   xmlns="http://www.w3.org/2000/svg"
   xmlns:xlink="http://www.w3.org/1999/xlink"
   xmlns:sodipodi="http://sodipodi.sourceforge.net/DTD/sodipodi-0.dtd"
   xmlns:inkscape="http://www.inkscape.org/namespaces/inkscape"
   width="899.60358"
   height="471.13065"
   id="svg2"
   version="1.1"
   inkscape:version="0.48.3.1 r9886"
   sodipodi:docname="Push-up-1.svg">
  <defs
     id="defs4">
    <radialGradient
       gradientUnits="userSpaceOnUse"
       gradientTransform="matrix(1,0,0,0.91819829,-19.285714,-7.9105395)"
       r="209.56604"
       fy="287.50052"
       fx="398.1105"
       cy="287.50052"
       cx="398.1105"
       id="radialGradient5255"
       xlink:href="#linearGradient5249"
       inkscape:collect="always" />
    <linearGradient
       id="linearGradient5249"
       inkscape:collect="always">
      <stop
         id="stop5251"
         offset="0"
         style="stop-color:#e3e3e3;stop-opacity:1;" />
      <stop
         id="stop5253"
         offset="1"
         style="stop-color:#e3e3e3;stop-opacity:0;" />
    </linearGradient>
  </defs>
  <sodipodi:namedview
     id="base"
     pagecolor="#ffffff"
     bordercolor="#666666"
     borderopacity="1.0"
     inkscape:pageopacity="0.0"
     inkscape:pageshadow="2"
     inkscape:zoom="0.70000001"
     inkscape:cx="280.12518"
     inkscape:cy="-52.116835"
     inkscape:document-units="px"
     inkscape:current-layer="layer1"
     showgrid="false"
     showguides="true"
     inkscape:guide-bbox="true"
     fit-margin-top="0"
     fit-margin-left="0"
     fit-margin-right="0"
     fit-margin-bottom="0"
     inkscape:window-width="1615"
     inkscape:window-height="1026"
     inkscape:window-x="65"
     inkscape:window-y="24"
     inkscape:window-maximized="1">
    <sodipodi:guide
       orientation="-0.70710678,0.70710678"
       position="-3103.1326,527.06324"
       id="guide2985" />
  </sodipodi:namedview>
  <metadata
     id="metadata7">
    <rdf:RDF>
      <cc:Work
         rdf:about="">
        <dc:format>image/svg+xml</dc:format>
        <dc:type
           rdf:resource="http://purl.org/dc/dcmitype/StillImage" />
        <dc:title></dc:title>
      </cc:Work>
    </rdf:RDF>
  </metadata>
  <g
     inkscape:label="Ebene 1"
     inkscape:groupmode="layer"
     id="layer1"
     transform="translate(-1674.5611,-82.580487)">
    <path
       style="fill:#000000"
       d="m 1907.818,553.47692 c -2.475,-0.20214 -12.15,-0.85569 -21.5,-1.45233 -42.4872,-2.71117 -63.7199,-7.86035 -95.1708,-23.08002 -6.694,-3.23933 -12.589,-5.88969 -13.1,-5.88969 -2.06,0 -9.2457,-6.16363 -12.212,-10.47498 -7.1722,-10.42452 -14.7329,-29.87781 -16.9696,-43.66197 -2.6449,-16.30034 -0.2337,-38.75672 5.8412,-54.40175 l 2.7667,-7.12498 -6.6659,-1.56439 c -8.6891,-2.03921 -29.117,-10.83835 -39.1215,-16.8512 -26.5741,-15.97151 -37.0003,-32.80021 -37.1239,-59.92073 -0.03,-6.66442 0.5592,-12.87441 1.6142,-17 6.7747,-26.49473 28.2083,-43.92967 57.1416,-46.48128 13.4271,-1.18412 23.5353,2.73236 34.1491,13.23128 5.12,5.06462 5.5033,5.25 10.855,5.25 l 5.5476,0 -3.9541,-7.25 c -8.5319,-15.64359 -8.9819,-26.01172 -1.757,-40.48668 4.669,-9.35414 8.9234,-22.87574 10.6861,-33.96309 1.4473,-9.10322 2.9303,-14.92858 5.1092,-20.06934 2.162,-5.10083 10.7365,-16.04496 17.2908,-22.06909 2.596,-2.38601 5.5428,-6.2577 6.5484,-8.60376 1.7395,-4.05792 2.1475,-4.34568 8.3822,-5.91179 3.6046,-0.90544 7.7418,-1.64625 9.1939,-1.64625 4.2808,0 8.4697,3.15944 11.14,8.40228 1.3733,2.69625 5.9771,8.32125 10.2308,12.5 14.2488,13.99784 16.447,22.83797 11.2138,45.09772 -1.6163,6.875 -2.8705,12.5727 -2.7872,12.66156 0.083,0.0889 2.5598,-0.27736 5.5034,-0.81382 3.9194,-0.71431 14.6257,-0.37642 40,1.26241 19.0564,1.23078 37.0695,2.14721 40.029,2.0365 10.2527,-0.38351 31.6628,-4.13875 41.0926,-7.20745 5.2104,-1.69562 16.1536,-4.19426 24.3181,-5.55252 17.124,-2.84878 23.4244,-5.03428 29.7083,-10.30527 5.5837,-4.68364 9.3095,-6.6366 15.599,-8.17655 3.0795,-0.75402 6.7593,-2.75013 9.901,-5.37092 11.5352,-9.6225 21.39,-14.95048 30.6381,-16.56457 23.0865,-4.02928 37.4018,-2.59815 66.677,6.66586 l 11.3151,3.5806 12.8936,-0.71715 c 12.0268,-0.66895 13.1969,-0.57025 17.4084,1.46848 4.1886,2.02767 4.9324,2.09312 10.2914,0.9057 9.2622,-2.05227 25.9406,-1.43439 41.16,1.52485 7.361,1.43126 14.786,2.59863 16.5,2.59415 3.037,-0.008 10.0268,-4.73565 25.1164,-16.98827 6.0046,-4.87567 19.5402,-13.24914 26.1267,-16.16265 6.8655,-3.03693 18.9903,-5.81545 25.4369,-5.82913 5.7367,-0.0122 24.7482,2.3334 30.9365,3.81685 4.0448,0.96962 27.7032,-3.98001 36.8936,-7.71861 9.5576,-3.88797 26.1573,-14.25377 33.1064,-20.67347 5.3532,-4.94542 7.7508,-6.28392 14.4538,-8.069 16.723,-4.45351 27.2712,3.27885 30.0869,22.05514 l 0.6882,4.58948 6.3945,-4.56307 c 7.8011,-5.56667 16.4964,-8.79959 21.3017,-7.91986 7.5628,1.38457 11.1978,3.62407 14.6552,9.02892 6.2472,9.7659 7.4903,16.65947 8.4645,46.94181 0.894,27.78769 1.1842,30.26482 5.4643,46.63484 2.2383,8.56075 2.3916,10.23294 1.3747,15 -1.6328,7.65521 -5.1138,14.88757 -8.8391,18.36516 -1.7675,1.65 -4.7716,5.11382 -6.6758,7.69739 -3.6643,4.97183 -5.4386,5.93378 -11.8689,6.43485 -21.2496,1.65584 -19.7419,1.7169 -23.6659,-0.95847 -3.2287,-2.20126 -4.3917,-2.43355 -9.7509,-1.9476 -5.9861,0.5428 -6.1407,0.49263 -9.5169,-3.0872 -1.8876,-2.00143 -3.8504,-3.63897 -4.3617,-3.63897 -0.5113,0 -2.6284,-1.35 -4.7046,-3 -2.0763,-1.65 -4.6306,-3 -5.6763,-3 -1.0456,0 -3.7117,-1.6888 -5.9245,-3.75288 -3.1935,-2.97887 -4.1444,-4.6804 -4.6104,-8.25 -0.4705,-3.60308 -1.3528,-5.15872 -4.438,-7.82504 -3.463,-2.99276 -3.8508,-3.80764 -3.8508,-8.09107 0,-2.61973 0.6701,-6.97217 1.4892,-9.67208 2.1393,-7.05222 1.7405,-13.04703 -1.15,-17.28387 -0.1407,-0.20621 -2.6371,1.19224 -5.5475,3.10767 -2.9104,1.91544 -6.3119,4.01659 -7.5588,4.66924 -1.2468,0.65264 -6.8718,5.26139 -12.5,10.24165 -11.6203,10.28271 -20.3579,15.95349 -39.8686,25.87501 -10.7675,5.47547 -13.7642,7.44602 -14.2466,9.3683 -0.643,2.56167 -9.5728,10.54629 -18.2711,16.33707 -2.9742,1.98002 -8.3433,4.24797 -12.6973,5.36335 -5.9947,1.5357 -9.0438,3.0684 -14.8467,7.46313 -12.8966,9.76699 -38.9605,21.31869 -54.2454,24.04196 -2.1685,0.38635 -5.4242,1.57654 -7.2349,2.64485 -3.4844,2.05583 -13.7317,3.09946 -42.8224,4.36124 -15.5566,0.67475 -23.087,2.19257 -32,6.44989 -3.3,1.57626 -10.1767,3.61999 -15.2816,4.5416 -10.0109,1.80732 -11.0596,1.72084 -30.2184,-2.49205 -7.5367,-1.65727 -11.3048,-1.95719 -18.2333,-1.45125 -7.0161,0.51233 -9.6294,0.2955 -13.2906,-1.10271 -2.5065,-0.95725 -5.564,-1.48779 -6.7943,-1.17898 -1.2304,0.3088 -5.8246,3.56073 -10.2094,7.22651 -4.3848,3.66577 -11.6574,9.13158 -16.1613,12.14623 l -8.189,5.48118 7.689,5.71982 c 9.8334,7.31508 18.8262,16.98859 22.8579,24.58797 6.4488,12.15543 12.7971,38.81534 13.9239,58.47326 1.104,19.26133 -1.7439,30.36644 -12.741,49.68212 -7.9285,13.92594 -24.3215,29.02811 -42.1216,38.80483 -3.7234,2.04506 -7.2819,4.67532 -7.9079,5.84503 -0.6261,1.16971 -1.7422,2.73068 -2.4803,3.46881 -0.7381,0.73814 -1.3421,1.91921 -1.3421,2.62462 0,0.7054 -1.0546,2.42052 -2.3436,3.81137 -1.918,2.06949 -3.6623,2.66126 -9.6031,3.25787 -6.4781,0.65057 -7.566,0.50241 -10.1075,-1.37663 -2.3078,-1.70623 -3.3475,-1.9158 -5.4806,-1.10476 -5.141,1.95458 -16.1167,4.00051 -26.9652,5.02645 -10.7987,1.02122 -81.6676,2.1037 -90.5,1.38233 z m 69.5,-6.4154 c 9.9,-0.52523 20.5755,-1.23438 23.7232,-1.57588 l 5.7232,-0.62092 -3.3814,-4.42858 c -1.8598,-2.43573 -5.4995,-9.48044 -8.0882,-15.65493 -9.418,-22.46393 -12.1841,-26.17417 -19.3143,-25.90612 -3.5751,0.1344 -7.9947,2.42812 -8.6478,4.48806 -0.2077,0.65545 -1.123,3.87159 -2.0338,7.14698 -1.1794,4.24114 -2.7483,7.0475 -5.4508,9.75 l -3.7948,3.79475 -8.7892,0 c -7.1307,0 -10.0147,-0.49028 -15.284,-2.59834 -5.4752,-2.19044 -8.0386,-2.59469 -16.3285,-2.57508 -9.3866,0.0222 -11.9013,-0.7156 -8.0836,-2.37177 0.9625,-0.41755 7.6532,-0.96608 14.8682,-1.21897 l 13.1182,-0.45979 1.6716,-3.50538 c 0.9194,-1.92795 3.8582,-6.94006 6.5307,-11.13802 2.6725,-4.19796 5.6791,-10.2751 6.6814,-13.50477 1.3658,-4.40133 3.3671,-7.59504 7.9902,-12.75091 5.1193,-5.70906 6.4374,-7.94144 7.7516,-13.12788 0.871,-3.437 2.4897,-9.84909 3.5972,-14.24909 1.1075,-4.4 3.3566,-13.0437 4.9979,-19.20823 l 2.9843,-11.20822 -1.6258,-8.29178 c -0.8941,-4.56047 -1.7065,-8.40488 -1.8053,-8.54314 -0.099,-0.13825 -3.7415,0.66949 -8.0949,1.79497 -9.32,2.40948 -32.2746,3.68442 -40.0781,2.22601 -3.8238,-0.71464 -6.936,-0.59136 -12,0.47534 -7.9841,1.68182 -18.4494,1.12993 -25.7255,-1.35667 -3.9894,-1.36334 -7.2446,-4.03976 -17.7003,-14.5531 l -12.812,-12.88253 -9.3304,0.65586 c -8.2746,0.58165 -9.7941,0.41932 -13.4279,-1.43452 -2.2536,-1.1497 -5.8965,-4.13419 -8.0954,-6.63218 -3.2809,-3.7273 -4.6029,-4.53611 -7.3717,-4.51001 -1.8557,0.0175 -4.226,0.67679 -5.2674,1.46511 -1.0414,0.78832 -6.7076,3.03745 -12.5915,4.99807 -13.9603,4.65177 -15.9065,6.56892 -17.0538,16.79934 -1.5038,13.40923 -4.0596,16.8214 -14.1628,18.90818 l -5.7292,1.18335 -3.0282,7.55707 c -6.7621,16.87553 -9.6042,37.26004 -7.1554,51.32204 3.1147,17.8857 10.9195,37.31374 18.1346,45.14116 3.2933,3.57291 7.2858,6.07201 17.8606,11.17986 23.7381,11.46601 41.6361,17.55051 61.1191,20.77768 26.5993,4.40591 87.5007,6.65901 125.5,4.64298 z m 39.6388,-14.26278 c -1.6139,-4.74507 -4.76,-11.93465 -6.9914,-15.97685 -2.2313,-4.0422 -4.3596,-9.3559 -4.7296,-11.80823 -0.3699,-2.45233 -1.5152,-5.8619 -2.5452,-7.57681 -2.0066,-3.3412 -2.457,-6.38197 -0.9452,-6.38197 1.6668,0 4.7136,4.75028 6.9094,10.77237 1.3147,3.60594 4.1248,8.15805 7.2181,11.6929 6.8109,7.78319 7.5502,9.02321 10.4329,17.49868 3.0652,9.01222 6.6783,14.03605 10.0945,14.03605 3.2152,0 3.9458,-2.07811 2.0319,-5.77923 -0.8418,-1.62786 -2.5111,-6.86917 -3.7095,-11.64735 -1.4703,-5.86255 -3.4823,-10.70143 -6.1872,-14.88051 -2.2045,-3.4061 -4.3969,-7.59349 -4.8719,-9.30531 -0.475,-1.71182 -2.322,-5.04146 -4.1046,-7.3992 -1.7825,-2.35774 -3.6809,-4.88227 -4.2185,-5.61007 -0.6536,-0.88481 -0.5878,-1.71301 0.1987,-2.49946 0.9015,-0.90157 1.7864,-0.77628 3.7902,0.53661 2.9341,1.92252 8.4886,10.13535 8.4886,12.55121 0,0.86632 2.021,5.02752 4.491,9.24711 3.379,5.77236 5.1265,10.38188 7.0574,18.61641 2.7709,11.81684 4.2444,14.84702 6.7518,13.88483 3.0564,-1.17283 3.143,-7.40166 0.2872,-20.65487 -3.0907,-14.34343 -5.6382,-20.27086 -12.0569,-28.05308 -5.0533,-6.12676 -5.3819,-7.00709 -2.6155,-7.00709 2.0355,0 8.5122,7.47951 12.7962,14.77735 1.9509,3.3234 5.7469,17.05662 7.3864,26.72265 0.093,0.55 0.515,-1.25 0.937,-4 1.732,-11.28532 -2.7913,-25.3978 -11.2036,-34.95464 -2.3095,-2.62377 -8.8561,-8.36558 -14.5481,-12.75959 -13.6465,-10.53474 -15.2829,-12.98749 -15.2829,-22.90783 0,-9.87077 3.2737,-25.73198 6.8891,-33.37794 1.5604,-3.3 5.329,-9.10221 8.3747,-12.8938 5.8099,-7.23277 13.7413,-23.43302 18.2807,-37.33913 1.3392,-4.10269 3.1829,-12.65923 4.097,-19.01453 1.5551,-10.81121 1.5525,-12.59146 -0.04,-27.65381 -2.2469,-21.2549 -4.3913,-34.09068 -6.6154,-39.59873 -0.9993,-2.475 -2.0609,-6.24331 -2.3589,-8.37403 -0.6724,-4.80748 -2.8683,-7.32062 -7.5273,-8.61478 -5.3902,-1.4973 -8.5619,-1.23786 -14.024,1.14717 l -4.9431,2.15835 3.8608,1.91015 c 4.7957,2.37276 13.0062,11.00306 13.0062,13.67128 0,3.79402 -2.084,3.22469 -6.6058,-1.80463 -3.033,-3.37339 -5.8852,-5.45993 -8.5581,-6.26076 -3.6189,-1.08426 -3.9688,-1.47514 -3.5957,-4.01694 l 0.4132,-2.81581 -10.0768,0.0174 c -10.9091,0.0188 -19.653,1.51985 -29.0768,4.99155 -3.3,1.21571 -11.7073,4.15409 -18.683,6.52972 -15.3401,5.22422 -15.5489,5.33214 -22.5138,11.63961 -8.7847,7.95544 -17.1416,10.77261 -21.7067,7.31747 -1.8713,-1.41633 -1.8713,-1.45096 0,-2.04955 1.047,-0.33488 2.9929,-1.04765 4.3244,-1.58393 l 2.4208,-0.97505 -2.4223,-2.42235 c -2.9402,-2.94023 -12.0518,-4.99953 -15.0414,-3.39952 -2.6261,1.40544 -5.878,0.24503 -5.878,-2.09751 0,-1.04359 0.9436,-2.4024 2.0968,-3.01957 2.8998,-1.55195 13.4208,-0.27911 18.3447,2.21935 6.8566,3.4791 11.0181,2.95192 19.7546,-2.50248 4.2328,-2.64267 11.3784,-6.35788 15.879,-8.25602 14.4709,-6.10303 41.5761,-12.37067 53.8059,-12.44173 3.0905,-0.018 8.094,-0.9033 11.119,-1.96739 9.4498,-3.32411 19.1553,-2.16718 26.586,3.16914 2.9671,2.13076 4.5081,4.07084 4.9361,6.21438 0.3423,1.71406 1.7625,6.55892 3.1559,10.76636 l 2.5335,7.64987 3.0325,-0.86973 c 1.668,-0.47836 3.8043,-1.4458 4.7474,-2.14988 0.9432,-0.70408 3.6484,-2.74264 6.0118,-4.53014 5.1037,-3.8602 7.2677,-4.17767 6.8164,-1 -0.2798,1.9699 -11.601,11.42828 -18.3173,15.30322 -1.6468,0.95013 -1.7362,1.78211 -0.9139,8.5 l 0.9116,7.44678 6.0985,0.5 c 6.4842,0.53162 9.4015,2.10281 9.4015,5.06343 0,2.64313 -1.8574,3.37553 -3.8917,1.53453 -1.8242,-1.65084 -6.7752,-2.12429 -8.7072,-0.83265 -0.6581,0.43996 -1.3698,6.5515 -1.7742,15.23469 -0.3714,7.975 -0.9543,15.80257 -1.2953,17.3946 -0.593,2.76858 -0.494,2.86559 2.2742,2.22814 4.5769,-1.05394 20.4505,-9.24406 25.3942,-13.10231 2.475,-1.93159 7.5501,-5.91582 11.2779,-8.85384 8.2444,-6.49762 20.29,-13.49964 27.1469,-15.78035 4.0834,-1.35819 5.5171,-2.4666 7.3366,-5.67191 l 2.2613,-3.98384 -4.7613,-0.71041 c -9.0453,-1.34959 -14.2614,-4.67482 -14.2614,-9.09151 0,-3.21607 1.5133,-3.0631 5.6528,0.57143 3.03,2.66035 4.1365,3 9.7734,3 l 6.3567,0 1.7392,-4.25 c 2.3062,-5.63517 3.136,-21.78799 1.4838,-28.88212 -1.5172,-6.51423 -7.086,-17.47956 -12.5059,-24.62478 -6.2594,-8.25205 -17.5868,-16.0649 -31.9098,-22.00916 -6.8265,-2.83308 -13.528,-5.43123 -14.8924,-5.77365 -1.7553,-0.44056 -4.9243,0.55123 -10.8392,3.39229 -4.5972,2.20818 -10.0461,4.31977 -12.1086,4.69244 -3.3239,0.60057 -3.75,0.447 -3.75,-1.35161 0,-1.64617 1.4958,-2.52731 7.925,-4.66842 11.9903,-3.99313 12.0516,-4.98424 0.4375,-7.0754 -9.29,-1.6727 -9.918,-1.67132 -14.2897,0.0313 -8.2166,3.20006 -17.4015,5.38185 -27.0728,6.43088 -7.2607,0.78755 -13.7429,2.50141 -27.5,7.27082 l -18,6.24038 -18,-0.0425 c -22.045,-0.0521 -39.1964,-0.8447 -48.2039,-2.22759 -15.034,-2.30813 -25.4662,-2.34595 -39.4193,-0.14292 -7.3572,1.16161 -17.6518,3.25631 -22.8768,4.6549 -12.8699,3.4449 -18.5744,3.57323 -21.0863,0.47437 -1.0525,-1.29845 -1.9137,-2.9378 -1.9137,-3.64303 0,-2.09456 3.1472,-2.67295 5.071,-0.93193 1.6351,1.47972 2.4142,1.48171 9.4624,0.0241 4.2243,-0.87361 7.7715,-1.58838 7.8826,-1.58838 0.1111,0 0.235,-2.18046 0.2752,-4.84548 0.086,-5.72964 0.9328,-7.49163 7.8742,-16.39164 6.1965,-7.94496 7.1713,-11.84799 4.9359,-19.76288 -0.8543,-3.025 -1.8394,-7.3 -2.1891,-9.5 -0.5621,-3.53635 -0.4559,-3.85146 0.9164,-2.71852 2.9438,2.43031 5.9203,11.17579 6.019,17.68462 0.083,5.49236 -0.3883,7.12576 -3.937,13.63682 -4.2597,7.81541 -7.682,17.0026 -7.1365,19.15789 0.2469,0.97541 1.5488,1.08941 5.3688,0.47012 l 5.0429,-0.81754 1.0963,-5.20669 c 0.603,-2.86369 1.9031,-8.97463 2.8891,-13.57988 1.5065,-7.03578 1.6143,-9.41539 0.6752,-14.89818 -1.7261,-10.07646 -6.0701,-17.88712 -13.2089,-23.74985 -4.6789,-3.84253 -6.2991,-5.89167 -7.0994,-8.97879 -0.5702,-2.2 -1.2164,-4.53892 -1.436,-5.19759 -0.2195,-0.65867 -2.2515,-1.69641 -4.5157,-2.30607 -6.9158,-1.86223 -10.072,-0.0938 -21.9455,12.2961 -5.7975,6.0496 -11.5541,12.37211 -12.7926,14.05001 -4.0654,5.50804 -6.2407,13.15409 -6.7088,23.58081 -0.509,11.33849 -2.1235,16.30942 -9.4089,28.96988 -6.1512,10.68924 -8.5821,18.64644 -7.776,25.45316 0.5328,4.49848 6.7601,19.6537 8.0758,19.6537 1.0216,0 4.3067,-7.54232 5.0089,-11.5 1.438,-8.10463 10.8942,-19.5 16.1817,-19.5 3.9163,0 3.5723,1.77094 -0.9483,4.8812 -5.7609,3.96363 -7.6007,6.98129 -8.8004,14.43459 -0.5475,3.40132 -1.8053,7.08421 -2.7953,8.18421 -1.8215,2.02402 -4.077,7.65145 -4.077,10.17228 0,1.09012 0.5227,1.03134 2.5312,-0.28469 2.9989,-1.96491 3.9338,-1.37622 3.0987,1.95114 -0.4055,1.61565 -2.2079,3.22553 -5.3701,4.79657 -4.0661,2.02006 -6.221,2.36096 -14.7854,2.33906 l -10.0257,-0.0256 -6.0514,-6.05145 c -3.3283,-3.3283 -8.2668,-7.13375 -10.9744,-8.45656 -9.6185,-4.69916 -26.9961,-2.49164 -41.6834,5.29512 -8.2197,4.35784 -18.2994,15.32783 -23.201,25.25023 -3.4615,7.00706 -3.993,9.02977 -4.3359,16.5 -0.5202,11.33194 1.8943,24.71754 5.9443,32.95528 3.965,8.0648 13.6805,17.95011 23.8888,24.30639 4.1447,2.58069 15.1697,8.19318 24.5,12.47221 16.0621,7.36627 17.3366,7.77923 23.9643,7.76443 8.2486,-0.0184 14.3039,-2.51688 16.3004,-6.72572 2.4306,-5.12381 4.2213,-16.21991 5.1698,-32.03578 0.5204,-8.67742 0.6859,-16.45555 0.3677,-17.28474 -0.3182,-0.82919 -2.6619,-2.95448 -5.2082,-4.72287 -4.1898,-2.90975 -4.4069,-3.24681 -2.2847,-3.54725 3.461,-0.49001 7.7706,1.63011 11.1596,5.49001 2.719,3.09672 2.9954,4.05966 2.9954,10.43396 0,5.99658 1.582,15.90802 2.5391,15.90802 2.1148,0 19.3179,-6.96294 23.5511,-9.53229 3.0746,-1.86613 7.4192,-3.68543 9.6546,-4.04289 3.4908,-0.55819 4.2251,-0.34967 5.2029,1.47747 1.1645,2.17586 1.0881,2.26777 -2.7235,3.2771 -0.7325,0.19395 1.0959,2.67676 4.2927,5.82923 l 5.5685,5.49138 12.5548,-0.22269 c 16.1733,-0.28688 17.6696,0.32504 24.1686,9.8839 6.3168,9.29092 11.3867,14.16438 17.5778,16.89665 10.0991,4.45695 22.1561,3.53788 34.4819,-2.62845 11.1291,-5.56769 15.3521,-9.97376 19.7663,-20.62334 4.2348,-10.21668 10.2508,-20.16444 12.7821,-21.13581 2.6331,-1.01041 2.9233,1.74253 0.6529,6.19295 -1.1384,2.23141 -2.0698,4.25462 -2.0698,4.49602 0,0.24139 4.3875,-1.04662 9.75,-2.86226 9.3676,-3.17167 10.0201,-3.58897 16.6366,-10.6387 3.7877,-4.03565 9.6992,-11.67163 13.1367,-16.96883 3.4375,-5.29721 6.7542,-9.94289 7.3704,-10.32375 1.4767,-0.91265 2.4743,1.83219 1.7355,4.77551 -0.7841,3.12436 -9.5458,16.45388 -14.2058,21.6119 -7.5865,8.39743 -12.4873,34.48297 -9.0518,48.18132 2.0746,8.27236 2.1103,25.18912 0.072,33.86558 -1.4317,6.09258 -8.3781,28.99366 -10.7307,35.3771 -0.5832,1.5824 -4.357,7.80008 -8.3863,13.81707 -4.0294,6.01696 -7.3261,11.50434 -7.3261,12.19416 0,0.68982 -2.6905,5.45024 -5.9789,10.5787 -7.2564,11.31691 -7.8604,12.94605 -5.4525,14.70674 2.4388,1.78332 9.4783,1.68213 12.1287,-0.17434 1.1783,-0.82529 2.9151,-3.86279 3.8596,-6.75 4.286,-13.10159 7.2613,-15.74946 17.6973,-15.74946 5.8635,0 6.5933,0.25062 9.4629,3.25 1.7102,1.7875 4.9743,7.525 7.2535,12.75 12.3255,28.25484 19.3718,37.84344 24.316,33.0892 1.7129,-1.64707 1.6656,-2.07385 -1.1478,-10.34534 z m -26.1388,-74.4312 c 0,-3.15632 12.8248,-4.62368 16.5573,-1.89442 2.9904,2.18663 1.2147,2.86436 -8.04,3.0686 -6.6132,0.14595 -8.5173,-0.11654 -8.5173,-1.17418 z m 10.5909,-58.16569 c -0.29,-0.46917 1.9337,-5.30667 4.9416,-10.75 5.8203,-10.533 9.9079,-21.74212 10.8878,-29.85657 0.7247,-6.00113 1.961,-7.5651 3.5835,-4.53339 1.5708,2.93513 0.6571,8.67601 -3.6381,22.85763 -3.7002,12.21717 -6.3,18.06969 -9.4072,21.17685 -2.0178,2.01783 -5.4369,2.61142 -6.3676,1.10548 z m -125.1743,-31.39697 c -2.3948,-7.50188 1.3702,-17.63203 9.6189,-25.88069 4.7138,-4.7138 8.9645,-6.35344 8.9645,-3.4579 0,0.77627 -2.8513,4.03877 -6.3363,7.25 -9.3363,8.60294 -10.0764,10.03359 -8.6773,16.77307 0.6322,3.04521 0.8673,5.99322 0.5225,6.55113 -1.0964,1.77403 -3.3487,1.09399 -4.0923,-1.23561 z m -13.8915,-9.72385 c -2.8381,-2.96228 -2.8904,-2.97309 -13.4371,-2.77577 -9.0982,0.17021 -11.1508,-0.0999 -14.588,-1.91974 -5.4785,-2.90064 -6.8401,-4.6248 -11.3531,-14.37662 -4.3699,-9.44247 -6.0722,-11.37927 -11.1469,-12.68239 -2.7964,-0.71809 -3.5,-1.38856 -3.5,-3.3352 0,-3.43914 3.1145,-3.58748 8,-0.38103 4.9927,3.27671 9.7593,9.60721 13.4829,17.90634 4.1402,9.22771 5.7793,10.03826 20.3005,10.03826 l 11.8644,0 3.4967,3.81241 c 2.8235,3.07825 3.2671,4.08924 2.3037,5.25 -1.6571,1.99668 -2.1804,1.84845 -5.4231,-1.53626 z m 10.7575,-23.77615 c -5.6551,-5.30977 -6.5833,-7.61782 -5.843,-14.53012 0.6132,-5.72657 0.44,-6.61828 -1.9784,-10.18198 -5.6933,-8.38956 -5.426,-10.04434 3.3727,-20.87827 3.198,-3.9378 7.7105,-9.97213 10.0276,-13.40963 4.3406,-6.43929 5.7569,-7.408 6.8118,-4.65911 0.9288,2.42049 -1.8155,7.23032 -8.1927,14.35905 -9.5933,10.72386 -10.796,15.36172 -6.3071,24.32202 1.4302,2.85494 1.7376,4.92143 1.2644,8.5 -0.7665,5.79614 1.1028,8.59338 9.2074,13.7778 2.9977,1.9176 5.1773,3.92838 4.8435,4.46839 -0.3337,0.54002 -2.7827,0.98185 -5.442,0.98185 -3.8981,0 -5.4029,-0.53299 -7.7642,-2.75 z m 146.6124,-11.5 c -0.058,-0.6875 -0.1888,-4.05444 -0.2914,-7.48209 -0.3223,-10.77782 -6.0729,-15.26991 -15.1232,-11.81356 -3.6122,1.37952 -4.8473,1.48601 -6.0132,0.51844 -6.6731,-5.53818 11.8848,-8.41868 19.4647,-3.02126 5.7462,4.09158 9.0169,15.53866 6.0329,21.11421 -1.1552,2.15854 -3.9071,2.62121 -4.0698,0.68426 z m -225.895,-17.63854 c 0,-0.9112 18.935,-14.64644 27,-19.58551 6.4523,-3.95144 12.554,-10.05072 17.533,-17.52595 4.3899,-6.5908 10.6784,-12.10742 18,-15.79047 2.4202,-1.21745 10.6182,-3.07451 20.5,-4.64379 19.4335,-3.08613 21.877,-3.69565 32.7287,-8.16392 9.9814,-4.10988 15.5612,-4.33406 34.6275,-1.39123 7.089,1.09418 17.2755,1.98941 22.6367,1.98941 10.2157,0 14.4852,-0.99415 34.1896,-7.96088 9.662,-3.41614 27.5037,-6.47935 31.9943,-5.49304 4.9334,1.08355 2.4766,2.92223 -4.7903,3.58511 -8.703,0.79388 -30.0449,6.12691 -35.3503,8.8335 -5.6313,2.87291 -14.5549,5.03531 -20.7793,5.03531 -3.9392,0 -5.2899,0.36794 -5.2899,1.44098 0,2.01665 -0.8165,2.36625 -9.332,3.99554 -9.2641,1.77251 -12.5558,3.41652 -16.0727,8.02749 -5.7384,7.52343 -10.4738,10.56404 -14.2159,9.12807 -1.2884,-0.49439 -0.6585,-1.47448 3.0396,-4.72963 2.5655,-2.25832 5.5221,-5.7868 6.5701,-7.84108 2.1551,-4.22426 3.7829,-5.00104 16.0109,-7.64021 l 8.5,-1.83456 -12,-1.3334 c -18.0398,-2.00452 -32.7652,-1.09087 -44.3543,2.75202 -5.1449,1.70602 -15.7199,4.1683 -23.5,5.47173 -14.664,2.45672 -21.6152,4.66173 -28.887,9.16337 -5.2837,3.27088 -10.7587,8.37953 -10.7587,10.03885 0,2.02405 -10.4979,12.76596 -18.2832,18.70812 -15.5024,11.83232 -29.7168,19.37277 -29.7168,15.76417 z m 156.2562,-2.03756 c -6.1221,-1.54529 -7.6977,-4.81588 -5.0839,-10.55274 1.5162,-3.32758 3.2435,-2.7182 3.6394,1.28393 0.2686,2.7144 0.8439,3.29434 4.1515,4.18499 3.6526,0.98354 4.2453,0.78239 12.1621,-4.12778 15.3349,-9.51104 23.8747,-12.33156 23.8747,-7.88535 0,2.5694 -3.0004,4.46209 -11.8394,7.46845 -4.044,1.37543 -9.1379,4.041 -11.639,6.09046 -4.7739,3.91179 -9.4714,5.00053 -15.2654,3.53804 z m -53.2562,-30.49234 c 0,-1.65361 1.0278,-3.0478 3.25,-4.40852 5.9563,-3.64723 14.75,-4.9535 14.75,-2.19105 0,0.4224 -1.2618,1.02038 -2.8041,1.32884 -1.5423,0.30846 -5.1875,2.16471 -8.1005,4.125 -6.2621,4.21404 -7.0954,4.3486 -7.0954,1.14573 z m -75.5411,-18.64809 c -0.3625,-0.58659 -0.5016,-1.1907 -0.309,-1.34246 0.1926,-0.15176 3.5001,-2.32782 7.3501,-4.83569 3.85,-2.50787 8.7034,-5.8119 10.7852,-7.34228 3.6229,-2.6632 4.4407,-2.81192 19.0736,-3.46817 15.767,-0.70711 19.052,-1.51311 20.1402,-4.94148 0.8855,-2.79004 4.2068,-3.36261 14.7302,-2.53938 9.1528,0.71601 14.6051,2.03504 13.3987,3.24141 -0.3572,0.35721 -5.5697,0.53592 -11.5834,0.39714 -10.2508,-0.23655 -11.0156,-0.11816 -12.2392,1.89478 -2.2568,3.71243 -7.4703,5.08264 -22.4657,5.90447 l -14.1604,0.77606 -6.8396,5.03503 c -10.5581,7.77245 -16.1452,10.02864 -17.8807,7.22057 z m -7.9332,-70.88381 c -1.9764,-3.82192 -2.0415,-10.04966 -0.1051,-10.04966 0.7813,0 1.7029,1.28551 2.048,2.8567 1.2547,5.71269 9.3223,6.34686 14.0655,1.10565 2.4338,-2.68938 4.6874,-2.54112 4.2855,0.28193 -0.4498,3.15874 -10.0381,8.75572 -14.9997,8.75572 -3.1617,0 -4.0142,-0.47504 -5.2942,-2.95034 z m 208.4743,347.64147 c 0,-0.71988 -0.6688,-2.18238 -1.4862,-3.25 -1.3598,-1.77591 -1.394,-1.6645 -0.4022,1.30887 1.1319,3.39349 1.8884,4.17108 1.8884,1.94113 z m 48.0807,-11.89531 c 18.8923,-12.44371 31.1255,-27.37783 39.4855,-48.20331 3.564,-8.87824 3.6506,-9.41064 3.6733,-22.59251 0.015,-8.45939 -0.628,-17.23098 -1.7212,-23.49249 -2.3136,-13.25165 -8.5817,-34.23357 -11.9373,-39.95963 -3.9962,-6.81886 -13.309,-16.31055 -22.4866,-22.91847 l -8.1243,-5.84956 -5.235,2.03194 c -2.8793,1.11757 -6.5591,2.43345 -8.1774,2.92418 -2.6306,0.79772 -3.1244,1.63301 -4.661,7.88431 -1.9592,7.97014 -8.041,24.69176 -11.4207,31.40068 -1.2527,2.48653 -4.7321,7.66153 -7.7321,11.5 -3.0001,3.83847 -6.8251,9.45404 -8.5001,12.47904 -3.0682,5.54115 -7.2438,21.05057 -7.2438,26.9059 0,7.54084 5.9531,15.77786 16.6861,23.08797 l 7.1861,4.89434 3.0404,-5.38722 c 3.4212,-6.06219 9.4067,-12.50099 11.6208,-12.50099 2.3694,0 1.6864,2.46143 -1.2947,4.66542 -3.0774,2.27524 -7.7025,10.22965 -8.6256,14.83458 -0.5102,2.54522 0.2473,4.13695 4.9969,10.5 3.0791,4.125 5.958,8.42755 6.3976,9.56123 0.4397,1.13368 1.1257,7.09618 1.5246,13.25 0.4954,7.64409 1.1059,11.18877 1.9272,11.18877 0.6611,0 5.4407,-2.79188 10.6213,-6.20418 z M 1949.518,396.98205 c 5.2917,-0.59005 12.7743,-2.06032 16.628,-3.26726 l 7.0069,-2.19445 0.098,-11.48273 c 0.076,-8.92572 0.49,-12.20645 1.8582,-14.73273 0.9681,-1.7875 1.4866,-3.25 1.1521,-3.25 -0.3344,0 -3.6839,1.35 -7.4433,3 -3.7593,1.65 -7.3952,3 -8.0797,3 -3.1483,0 -9.9983,5.25179 -11.4721,8.79541 -2.4495,5.88971 -6.491,11.12958 -12.1223,15.71685 -2.8735,2.34069 -4.9473,4.53299 -4.6085,4.87177 0.8977,0.89774 6.0863,0.75816 16.9826,-0.45686 z m 242.5564,-71.30967 c 14.0722,-5.5657 22.9789,-7.14249 48.3642,-8.56208 20.1985,-1.12953 23.8966,-1.85948 29.1387,-5.75146 3.8879,-2.88664 6.2202,-7.21582 9.3221,-17.30396 1.9405,-6.31065 2.3151,-9.7994 2.3624,-22 0.054,-14.02576 -0.069,-14.90883 -3.7588,-27 -4.4608,-14.61568 -6.5191,-18.10312 -17.1045,-28.98065 l -7.8732,-8.09046 -17.7747,1.687 -17.7747,1.687 -5.833,-2.18141 c -3.2082,-1.19977 -8.5312,-4.21601 -11.829,-6.70276 -10.5845,-7.98154 -22.8623,-13.42395 -34.3741,-15.23715 -9.2475,-1.45656 -12.1496,-2.63974 -8.8718,-3.61702 5.2691,-1.57094 5.347,-1.74486 1.4117,-3.15024 -5.5342,-1.9764 -17.8383,-4.17071 -27.6617,-4.93316 -9.7442,-0.7563 -18.7441,0.77291 -33.8328,5.7487 -9.3394,3.07981 -21.7362,10.04036 -20.7434,11.64688 0.2901,0.46937 2.3945,1.10381 4.6763,1.40987 3.3223,0.44561 5.3022,-0.0296 9.937,-2.38484 5.9463,-3.02165 12.1298,-4.17341 12.8946,-2.40176 0.418,0.96834 -1.2336,2.02678 -7.3578,4.71539 -1.6094,0.70654 -3.0588,1.73461 -3.221,2.28461 -0.1621,0.55 5.6087,3.7 12.8241,7 14.0168,6.41072 17.823,8.78203 17.823,11.10396 0,3.08744 -3.2993,2.40731 -12.5724,-2.59172 -12.6602,-6.82489 -30.7171,-13.01224 -37.9746,-13.01224 -5.6624,0 -19.0597,3.20672 -20.8415,4.98854 -0.682,0.68195 0.1575,1.01146 2.5767,1.01146 5.2751,0 19.0671,4.25549 36.201,11.1698 25.958,10.47522 30.4919,13.34301 37.5571,23.75574 8.2073,12.09609 14.3941,27.10079 15.6046,37.84566 0.5655,5.01917 0.1358,7.27719 -3.469,18.2288 -6.3835,19.39375 -9.834,24.63554 -18.5819,28.22839 -2.9713,1.22034 -2.9492,1.23523 2.3075,1.55612 9.1889,0.56094 22.1925,-4.88156 22.1925,-9.28838 0,-0.72935 1.7619,-4.65159 3.9154,-8.71609 5.8497,-11.04093 7.3922,-17.36268 6.8747,-28.17452 -0.3474,-7.25699 -1.0819,-10.69666 -3.6178,-16.94317 -3.2904,-8.10472 -3.3499,-11.03805 -0.1655,-8.15619 4.7459,4.29494 8.6915,20.37371 7.6041,30.98727 -0.9571,9.34237 -4.2875,20.99718 -8.6854,30.39499 -2.159,4.61364 -3.9255,8.50106 -3.9255,8.63871 0,0.13766 1.5739,0.54555 3.4975,0.90642 1.9236,0.36087 5.8611,1.78752 8.75,3.17033 8.0118,3.83496 16.8459,3.01076 32.0089,-2.98638 z m -29.2564,-6.07045 c 0,-0.24912 0.4845,-1.5162 1.0766,-2.81573 0.8293,-1.82015 2.3908,-2.63424 6.799,-3.54475 8.7537,-1.80805 15.4438,-5.53598 17.4374,-9.71676 0.9279,-1.94572 1.687,-3.63823 1.687,-3.76115 0,-0.12292 -3.6038,-0.0598 -8.0085,0.1402 -9.742,0.4424 -12.9915,-0.24346 -12.9915,-2.74208 0,-1.67141 1.1145,-1.89777 11.2548,-2.28591 10.3438,-0.39593 11.9786,-0.7417 20.1975,-4.2718 10.769,-4.62537 17.6235,-5.00715 30.2582,-1.68531 12.3564,3.24865 18.478,3.5876 29.2895,1.62173 12.5238,-2.27721 13.3749,-2.29463 13.7832,-0.28213 0.472,2.32689 -7.3028,4.51222 -20.5408,5.77355 -10.3851,0.9895 -23.5394,0.2489 -36.8981,-2.07742 -11.6053,-2.02096 -14.7952,-0.59567 -22.6058,10.10051 -5.3361,7.30745 -10.6293,12.84506 -13.9388,14.58242 -2.4494,1.28583 -16.7997,2.10982 -16.7997,0.96463 z m 28.3929,-64.11794 c -1.3024,-5.18903 5.4632,-24.42911 8.5903,-24.42911 1.9853,0 1.8703,2.08058 -0.5007,9.05138 -1.3653,4.01441 -2.4825,8.82469 -2.4825,10.68951 0,6.50444 -4.2578,10.06445 -5.6071,4.68822 z m 98.6071,51.0376 c 11.4282,-3.04141 27.2546,-10.55193 35.8487,-17.01223 3.8806,-2.91709 9.0629,-8.39461 13.5648,-14.3375 10.6676,-14.08234 17.833,-19.88475 19.2604,-15.59666 0.1868,0.56118 -3.0148,4.70913 -7.1146,9.21766 -4.0999,4.50853 -7.9313,9.08864 -8.5143,10.17801 -1.0407,1.94457 -0.9642,1.9523 4.1975,0.4237 11.8526,-3.51009 18.4412,-9.33002 23.8542,-21.07144 2.7965,-6.06604 4.6521,-8.75301 7.0529,-10.21298 3.7832,-2.30074 4.4662,-2.07437 2.8505,0.94473 -0.6392,1.19421 -0.9537,2.37962 -0.6991,2.63425 0.7695,0.76949 21.7445,-9.89959 28.6991,-14.59793 3.575,-2.4152 10.325,-7.63537 15,-11.60037 18.282,-15.50551 30.4672,-22.91284 46,-27.9633 6.8574,-2.22966 10.9283,-2.85399 21.066,-3.23071 10.8759,-0.40416 12.7938,-0.23923 14.2592,1.22617 0.9312,0.93122 1.4665,2.05979 1.1896,2.50793 -0.277,0.44814 -4.1061,1.1337 -8.5092,1.52346 -4.4031,0.38977 -8.0056,1.13417 -8.0056,1.65424 0,2.13119 3.4462,7.34905 8.4453,12.78682 5.1799,5.63442 5.3374,5.98387 6.552,14.54086 1.675,11.79946 0.7745,14.48881 -8.0303,23.9849 -6.4821,6.99089 -6.967,7.82783 -6.967,12.02379 0,6.7933 2.3271,8.65407 9.8408,7.86873 5.205,-0.54402 6.3957,-0.30455 10.5286,2.11752 3.9237,2.29941 5.3292,2.62039 8.8953,2.03143 2.3294,-0.38471 7.1603,-0.76885 10.7353,-0.85363 l 6.5,-0.15416 3.1564,-6.28245 c 1.736,-3.45534 4.3401,-7.21356 5.7869,-8.3516 3.6796,-2.89442 8.5567,-12.96136 8.5567,-17.66228 0,-2.11935 -1.1201,-7.14658 -2.4891,-11.17162 -4.7717,-14.02917 -5.7041,-21.12546 -6.5082,-49.53205 -0.804,-28.40367 -1.4116,-32.46434 -5.7639,-38.52079 -4.3595,-6.06651 -7.0293,-7.50674 -13.4533,-7.25748 -8.0878,0.31382 -12.4175,2.47355 -19.2855,9.61991 -5.2224,5.43406 -7.5165,6.91501 -17.7015,11.42739 -6.4358,2.85133 -14.7608,5.89778 -18.5,6.76988 -3.7392,0.87209 -9.303,2.23261 -12.3641,3.02336 -7.2399,1.87023 -14.358,1.81804 -24.2063,-0.17749 -6.6613,-1.34976 -9.4075,-1.43107 -16.7085,-0.49474 -17.9351,2.30007 -30.7491,8.69658 -50.8397,25.3781 -7.5768,6.29112 -20.2427,13.04335 -29.68,15.82247 l -6,1.76691 6.8233,0.0712 c 5.8271,0.0608 6.7762,0.31625 6.5,1.74932 -0.4187,2.1736 -3.8773,3.0536 -17.3233,4.40778 -11.6518,1.1735 -21.413,0.27966 -29.8979,-2.73774 -2.3856,-0.84839 -9.9152,-1.71172 -17.9945,-2.06321 l -13.8924,-0.6044 5.016,6.40974 c 6.1905,7.91075 10.6669,15.26796 12.1818,20.02165 l 1.151,3.6119 8.718,-1.82248 c 17.0715,-3.56876 33.4228,-1.46776 29.1013,3.73927 -0.7771,0.93639 -1.8172,0.86715 -4.6303,-0.30825 -3.9437,-1.64777 -8.0625,-1.41972 -23.3453,1.29257 l -8.5923,1.52491 1.8252,8.67509 c 3.6824,17.50336 1.8192,37.42732 -4.7039,50.30013 -1.3587,2.68123 -2.1253,4.87382 -1.7035,4.87244 0.4217,-0.001 5.0418,-1.14024 10.2668,-2.53077 z m 3.1557,-24.03652 c 0.2513,-1.30497 3.3579,-3.09216 10.3517,-5.95527 5.4959,-2.24992 12.567,-5.56272 15.7134,-7.36179 3.1464,-1.79907 6.4841,-3.12301 7.4171,-2.94209 3.2247,0.62532 2.4613,2.68654 -1.9531,5.27356 -7.052,4.13273 -24.316,11.62129 -28.2712,12.26314 -3.1486,0.51095 -3.5705,0.34553 -3.2579,-1.27755 z m 209.8444,-18.38314 c 0,-2.92822 2.1395,-7.04705 3.6605,-7.04705 1.3971,0 1.8437,4.52255 0.7325,7.41821 -0.8886,2.31564 -4.393,2.01956 -4.393,-0.37116 z m 10.8303,-4.75325 c -2.2414,-2.69678 0.3081,-3.57793 8.5631,-2.95962 6.7915,0.50869 8.8125,0.28807 12.4578,-1.35993 2.3932,-1.08192 4.7557,-1.71717 5.25,-1.41167 1.8336,1.1332 0.8033,3.52533 -2.3512,5.45937 -2.7618,1.6932 -4.7274,1.9539 -13.0836,1.7353 -6.1624,-0.16121 -10.2079,-0.70756 -10.8361,-1.46345 z m -126.8303,-22.77475 c 0,-0.81452 1.2375,-1.7382 2.75,-2.05262 5.2041,-1.08185 12.946,-5.29989 19.048,-10.37797 6.6749,-5.55492 9.5402,-6.46786 9.0215,-2.87446 -0.964,6.67912 -30.8195,21.50544 -30.8195,15.30505 z m -51.8148,-12.26905 c 0.213,-1.12361 1.4026,-1.84452 3.3233,-2.01406 7.0219,-0.61984 9.6477,-1.49784 14.5364,-4.86063 3.5808,-2.46318 5.4924,-3.23797 6.2123,-2.51799 1.7088,1.70879 -1.7778,5.86602 -7.242,8.63495 -6.2866,3.18563 -17.3852,3.68532 -16.83,0.75773 z m 52.4328,-3.96528 c -1.7924,-1.7924 -0.021,-3.14197 5.5671,-4.24135 16.8245,-3.31004 45.1065,-20.09052 48.7709,-28.9372 1.6314,-3.93844 3.8514,-4.72175 4.6267,-1.6325 0.9068,3.61291 -2.2315,8.07134 -9.5827,13.61366 -13.5689,10.22999 -46.2996,24.27977 -49.382,21.19739 z m 71.762,-47.73683 c -0.9296,-2.42238 0.5392,-3.54789 4.6298,-3.54789 6.8305,0 13.8702,-2.07185 18.9781,-5.58544 5.196,-3.57425 9.0121,-4.41378 9.0121,-1.98265 0,2.95488 -10.944,8.61312 -21.5,11.11594 -7.6546,1.81489 -10.4236,1.8149 -11.12,4e-5 z m 68.62,-3.52002 c 0,-0.61533 -1.0847,-2.20347 -2.4105,-3.52921 -2.0705,-2.07052 -2.8655,-2.2799 -5.6377,-1.48483 -1.7751,0.50908 -4.0487,1.6688 -5.0524,2.57716 -3.011,2.72491 -6.3588,0.14056 -4.1341,-3.19129 1.4415,-2.15892 5.1809,-3.3997 10.2459,-3.3997 4.3795,0 5.5873,0.4447 8.1396,2.99698 1.6483,1.64834 2.8461,3.78067 2.6616,4.73852 -0.3693,1.91782 -3.8124,3.08499 -3.8124,1.29237 z m -43,92.43229 c 0,-5.64722 2.5755,-10.76527 8.0316,-15.96016 6.7318,-6.4095 8.5292,-12.82858 5.5732,-19.90324 -0.7673,-1.83646 -3.6435,-6.4345 -6.3914,-10.21789 -2.748,-3.78338 -5.977,-8.76507 -7.1754,-11.07043 -1.1985,-2.30536 -2.7098,-4.0283 -3.3585,-3.82877 -8.3458,2.567 -20.4706,6.73631 -21.5161,7.39862 -1.07,0.6779 -0.8208,1.86429 1.25,5.95096 3.0794,6.0769 3.1894,8.05109 0.7218,12.96059 -1.0257,2.04059 -2.181,5.45049 -2.5674,7.57756 -0.6649,3.66022 -0.4578,4.09527 3.8648,8.12071 3.6971,3.44283 4.5674,4.90248 4.5674,7.66009 0,4.49133 2.0061,7.16379 7.2195,9.61759 2.3543,1.10807 5.1377,2.96407 6.1855,4.12445 2.8251,3.12885 3.595,2.60847 3.595,-2.43008 z m -7.342,-2.1355 c -2.0184,-2.01832 0.2975,-10.70986 3.1446,-11.80243 2.9393,-1.12792 3.7081,1.29565 1.4009,4.4163 -1.2004,1.62375 -1.9419,3.57974 -1.6476,4.34665 0.5892,1.53542 -1.8469,4.09051 -2.8979,3.03948 z m 3.1128,-19.82466 c -4.228,-2.475 -8.1121,-4.5 -8.6313,-4.5 -0.5191,0 -1.4145,1.35 -1.9897,3 -0.5752,1.65 -1.4889,3 -2.0304,3 -1.5773,0 -2.2539,-3.51621 -1.2066,-6.27078 1.206,-3.17207 2.9265,-4.2899 4.3743,-2.84209 0.6121,0.61208 2.1775,1.11287 3.4786,1.11287 2.9529,0 5.9484,1.51176 9.4341,4.76118 2.1898,2.04138 3.3669,2.40853 6.2316,1.94365 3.8895,-0.63118 5.4028,0.58508 3.5322,2.83897 -1.9967,2.4059 -5.1102,1.68756 -13.1928,-3.0438 z m -134.5192,-40.36654 c 1.5135,-0.59689 5.5916,-3.4944 9.0626,-6.43891 3.4709,-2.94452 10.9354,-8.40295 16.5876,-12.12985 23.2223,-15.31203 39.4175,-20.23341 63.0982,-19.17419 16.2875,0.72852 27.629,-0.84825 42.9398,-5.96984 14.2976,-4.78264 16.6761,-6.37411 17.4735,-11.69126 1.8662,-12.4448 -8.1694,-24.88963 -18.727,-23.22272 -8.5499,1.34991 -11.4344,2.69859 -15.0675,7.04499 -8.1605,9.76256 -38.8654,24.41166 -61.7837,29.47655 -3.6313,0.80251 -5.4996,1.68259 -5.2045,2.45163 0.2532,0.65984 -0.1874,1.73731 -0.9791,2.39437 -1.1479,0.95267 -3.5365,0.34917 -11.7924,-2.97941 -12.5483,-5.05917 -22.681,-6.07608 -34.8592,-3.49844 -9.0531,1.91619 -25.2992,9.84316 -34.8736,17.01592 -9.5245,7.13545 -17.5728,14.51721 -15.1321,13.87893 1.3468,-0.35217 2.0057,-0.0336 2.0057,0.96969 0,3.35468 -3.0769,4.23286 -16.0735,4.58747 -11.3325,0.30921 -13.9761,0.0402 -23.5044,-2.39153 -9.5958,-2.44897 -11.8608,-2.67508 -21.329,-2.1292 -5.8262,0.33589 -12.2379,0.90155 -14.2483,1.257 l -3.6553,0.64628 3.3132,4.34048 c 1.8222,2.38727 3.811,5.84912 4.4196,7.693 l 1.1064,3.35252 12.5209,-1.44972 c 12.2056,-1.41321 12.5766,-1.39895 14.7356,0.56646 1.9798,1.80223 4.0717,2.082 19.7148,2.63663 9.625,0.34126 22,1.4327 27.5,2.42543 l 10,1.80495 15,-5.19099 c 8.25,-2.85505 16.2383,-5.67936 17.7517,-6.27624 z m -43.0997,-1.55515 c 0.2185,-1.05348 2.8702,-2.55756 7.1234,-4.04051 9.6203,-3.35425 13.6364,-5.63365 23.8952,-13.56215 9.0356,-6.98317 12.4948,-8.70178 15.3272,-7.61488 2.8394,1.08959 1.5823,3.54059 -2.3606,4.60229 -4.0056,1.07859 -5.5259,2.01117 -18.2468,11.19247 -9.2049,6.64364 -14.9056,9.42429 -21.281,10.38033 -4.1871,0.6279 -4.7606,0.50468 -4.4574,-0.95755 z m 173.2857,-50.62866 c -3.5732,-2.35541 -8.1627,-2.50846 -10.5459,-0.35169 -0.9711,0.87888 -2.2441,1.30232 -2.8287,0.94098 -1.8229,-1.12662 -1.1703,-3.42254 1.4634,-5.14819 4.4054,-2.88654 16.4736,0.0975 16.4736,4.07329 0,2.36491 -1.4736,2.52176 -4.5624,0.48561 z m -256.0487,53.80035 c -3.6632,-5.90593 -6.0877,-8.38341 -11.0504,-11.29173 -3.7031,-2.17016 -5.8099,-2.57181 -15.5608,-2.96662 -12.2854,-0.49743 -12.2987,-0.47026 -2.2778,4.66637 3.3,1.69154 9.0151,5.06762 12.7001,7.50238 5.9075,3.90316 11.299,5.87176 17.0625,6.23003 1.532,0.0952 1.4177,-0.44632 -0.8736,-4.14043 z"
       id="path3010"
       inkscape:connector-curvature="0" />
  </g>
</svg>
