<?xml version="1.0" encoding="UTF-8" standalone="no"?>
<!-- Created with Inkscape (http://www.inkscape.org/) -->

<svg
   xmlns:dc="http://purl.org/dc/elements/1.1/"
   xmlns:cc="http://creativecommons.org/ns#"
   xmlns:rdf="http://www.w3.org/1999/02/22-rdf-syntax-ns#"
   xmlns:svg="http://www.w3.org/2000/svg"
   xmlns="http://www.w3.org/2000/svg"
   xmlns:xlink="http://www.w3.org/1999/xlink"
   xmlns:sodipodi="http://sodipodi.sourceforge.net/DTD/sodipodi-0.dtd"
   xmlns:inkscape="http://www.inkscape.org/namespaces/inkscape"
   width="899.25549"
   height="613.89337"
   id="svg2"
   version="1.1"
   inkscape:version="0.48.3.1 r9886"
   sodipodi:docname="Push-up-with-feet-on-an-exercise-ball-1.svg">
  <defs
     id="defs4">
    <radialGradient
       gradientUnits="userSpaceOnUse"
       gradientTransform="matrix(1,0,0,0.91819829,-19.285714,-7.9105395)"
       r="209.56604"
       fy="287.50052"
       fx="398.1105"
       cy="287.50052"
       cx="398.1105"
       id="radialGradient5255"
       xlink:href="#linearGradient5249"
       inkscape:collect="always" />
    <linearGradient
       id="linearGradient5249"
       inkscape:collect="always">
      <stop
         id="stop5251"
         offset="0"
         style="stop-color:#e3e3e3;stop-opacity:1;" />
      <stop
         id="stop5253"
         offset="1"
         style="stop-color:#e3e3e3;stop-opacity:0;" />
    </linearGradient>
  </defs>
  <sodipodi:namedview
     id="base"
     pagecolor="#ffffff"
     bordercolor="#666666"
     borderopacity="1.0"
     inkscape:pageopacity="0.0"
     inkscape:pageshadow="2"
     inkscape:zoom="0.7"
     inkscape:cx="-92.240629"
     inkscape:cy="269.92609"
     inkscape:document-units="px"
     inkscape:current-layer="layer1"
     showgrid="false"
     showguides="true"
     inkscape:guide-bbox="true"
     fit-margin-top="0"
     fit-margin-left="0"
     fit-margin-right="0"
     fit-margin-bottom="0"
     inkscape:window-width="1201"
     inkscape:window-height="886"
     inkscape:window-x="83"
     inkscape:window-y="39"
     inkscape:window-maximized="0">
    <sodipodi:guide
       orientation="-0.70710678,0.70710678"
       position="-1956.8878,842.87268"
       id="guide2985" />
  </sodipodi:namedview>
  <metadata
     id="metadata7">
    <rdf:RDF>
      <cc:Work
         rdf:about="">
        <dc:format>image/svg+xml</dc:format>
        <dc:type
           rdf:resource="http://purl.org/dc/dcmitype/StillImage" />
        <dc:title></dc:title>
      </cc:Work>
    </rdf:RDF>
  </metadata>
  <g
     inkscape:label="Ebene 1"
     inkscape:groupmode="layer"
     id="layer1"
     transform="translate(-528.31624,-255.6272)">
    <path
       style="fill:#000000"
       d="m 726.64765,865.96031 c -2.14546,-2.1116 -3.91366,-2.8108 -7.61677,-3.0119 -2.65247,-0.144 -5.88102,-0.9554 -7.17456,-1.8029 -1.31356,-0.8607 -3.22168,-1.265 -4.32201,-0.9157 -2.77473,0.8806 -8.64999,-1.2692 -10.43562,-3.8185 -0.8267,-1.1803 -1.5031,-3.5511 -1.5031,-5.2685 0,-1.8525 -0.81344,-3.8587 -2,-4.9325 -3.62199,-3.2779 -2.11396,-8.2036 3.98001,-13 2.09636,-1.65 5.65548,-5.8017 7.90915,-9.226 2.80029,-4.2549 7.08681,-8.6058 13.53924,-13.7427 5.19291,-4.1341 12.11962,-9.9959 15.39267,-13.0261 6.70802,-6.2105 6.50034,-6.1495 25.49807,-7.488 12.63213,-0.89 14.33015,-1.246 19.76837,-4.1445 3.95815,-2.1097 6.14503,-3.951 6.53424,-5.5018 0.82751,-3.297 0.0345,-26.6078 -0.95779,-28.1545 -0.62092,-0.9678 -1.66589,-0.5439 -4.24817,1.7234 -5.04731,4.4316 -12.94988,6.4069 -25.91579,6.4777 -17.76719,0.097 -26.09482,-3.5948 -35.23603,-15.6215 -2.84155,-3.7386 -5.21247,-5.8249 -7.02634,-6.1831 -1.50569,-0.2973 -6.94542,-1.2869 -12.08828,-2.1991 -9.18761,-1.6297 -9.44441,-1.7523 -14.72826,-7.0362 -2.95769,-2.9577 -6.05892,-5.3776 -6.89164,-5.3776 -0.83271,0 -2.69184,1.3219 -4.1314,2.9376 -2.59605,2.9136 -11.67078,7.1379 -18.39805,8.5644 -5.55857,1.1786 -10.84172,4.2856 -12.34124,7.2578 -0.76035,1.5071 -1.63836,5.3398 -1.95114,8.5172 -1.18004,11.9875 -6.7383,17.1475 -19.78316,18.3656 -8.99185,0.8397 -16.62833,-1.3356 -33.55832,-9.5594 -32.10875,-15.5968 -46.34445,-30.1412 -50.97766,-52.0832 -1.87955,-8.9012 -1.39967,-26.8358 0.9155,-34.2151 l 1.47931,-4.7152 -3.35935,-1.9821 c -4.39027,-2.5903 -4.8837,-5.0701 -2.99255,-15.0395 0.86274,-4.548 1.56861,-10.6435 1.56861,-13.5455 0,-6.9433 4.01211,-12.9758 13.5,-20.2985 9.51939,-7.347 15.08372,-9.7651 29.07176,-12.6337 23.59494,-4.8389 28.52562,-7.7062 39.07265,-22.722 5.06819,-7.2156 7.18672,-12.3846 12.34792,-30.1274 6.80396,-23.3902 11.27749,-29.8359 26.08251,-37.5807 4.58372,-2.3979 11.21936,-6.3354 14.74586,-8.75 5.45053,-3.7321 7.1539,-4.3903 11.36131,-4.3903 6.07268,0 7.48652,0.73 14.13899,7.3002 2.89571,2.8599 6.48976,6.0133 7.98677,7.0077 5.00297,3.3229 13.16956,22.3913 14.21553,33.1921 0.66816,6.8995 0.62489,7.0769 -3.01404,12.3587 -4.17837,6.0647 -3.76179,7.55 2.05613,7.3313 3.83994,-0.1443 7.0275,-1.5413 25.22382,-11.0548 11.69337,-6.1136 12.05614,-6.215 37.89558,-10.5939 5.05163,-0.856 11.13991,-2.3945 13.5295,-3.4188 5.82352,-2.4963 19.1032,-14.7186 19.90815,-18.323 0.83576,-3.7424 2.26943,-5.312 9.07014,-9.9303 3.89679,-2.6462 8.17641,-7.081 13.16746,-13.6448 12.02636,-15.8161 23.78652,-26.2558 37.16519,-32.9924 7.5279,-3.7905 11.51982,-4.8591 23.47477,-6.2842 10.77023,-1.2838 18.64403,-3.7361 24.07062,-7.4967 2.04458,-1.4169 5.90261,-3.175 8.5734,-3.9069 2.67079,-0.7319 7.78098,-2.6779 11.35598,-4.3244 8.46554,-3.8988 42.8428,-16.2236 55,-19.7184 5.22501,-1.502 10.85791,-3.5513 12.51771,-4.5541 4.8102,-2.9063 9.3444,-9.8745 15.501,-23.8222 7.9931,-18.1082 11.8896,-24.7025 19.3718,-32.784 9.5161,-10.2783 22.8485,-18.929 50.6095,-32.8379 6.325,-3.169 13.975,-7.5217 17,-9.6727 12.6374,-8.9859 24.4671,-23.4191 27.043,-32.9944 3.4248,-12.7317 8.5655,-19.6855 17.2287,-23.3052 8.1997,-3.426 19.0169,-0.3813 25.9638,7.308 l 3.3648,3.7245 4.4008,-2.7817 c 3.3284,-2.1039 5.6441,-2.7817 9.5035,-2.7817 10.8861,0 21.8401,8.2932 38.9474,29.4869 l 12.0973,14.9869 14.7941,1.2265 c 32.3572,2.6825 71.3381,15.8085 96.7797,32.5884 44.7406,29.5085 66.5323,75.2636 64.5908,135.6184 -0.5424,16.8614 -4.1135,39.2549 -8.2275,51.5929 -2.3384,7.0128 -9.8814,21.0284 -14.6318,27.1873 -10.5105,13.6267 -28.6245,27.8346 -43.8546,34.3977 -18.7581,8.0836 -54.3292,13.7557 -97,15.4676 -23.9009,0.9588 -58.3927,-2.2369 -77,-7.1342 -25.2566,-6.6473 -56.7162,-22.3436 -71.5523,-35.6999 -11.0815,-9.9761 -26.3688,-35.7864 -30.3111,-51.1755 -1.0872,-4.2441 -2.1867,-7.9264 -2.4432,-8.183 -0.2566,-0.2565 -3.5919,1.5553 -7.4117,4.0264 -6.0005,3.8817 -7.734,5.737 -12.7434,13.6392 -5.8216,9.1831 -25.8509,31.1982 -30.7882,33.8405 -1.3428,0.7187 -3.172,2.9624 -4.0648,4.9861 -3.2285,7.3175 -30.14392,29.4379 -45.71195,37.5683 -5.50912,2.8771 -9.70975,6.1961 -15.98217,12.6276 -10.18474,10.4432 -11.94747,11.1561 -28.49119,11.5235 -6.6,0.1465 -12.24017,0.3029 -12.53372,0.3474 -0.29355,0.045 -2.97818,1.6559 -5.96586,3.5807 -2.98767,1.9249 -7.31327,4.2182 -9.61243,5.0962 -3.86319,1.4754 -4.45142,1.4678 -7.7545,-0.1 -3.4445,-1.6345 -3.69881,-1.619 -7.00722,0.4257 -7.88635,4.874 -12.4607,12.1508 -23.6222,37.578 -2.89713,6.6 -6.2826,13.8 -7.52326,16 -1.99054,3.5297 -2.32413,5.8811 -2.83737,20 -0.37721,10.3767 -1.26837,18.9874 -2.53563,24.5 -2.15784,9.3867 -9.40415,29.0977 -17.03052,46.3254 -6.5034,14.691 -11.13421,28.6551 -12.11815,36.542 -1.07622,8.6267 -4.16734,11.7559 -16.3031,16.5041 -10.43459,4.0826 -14.52203,5.0772 -27.15604,6.6077 -11.15703,1.3517 -16.49699,3.8488 -27,12.6263 -13.70675,11.4549 -23.63217,14.3685 -29.44794,8.6445 z m 15.6007,-5.0115 c 1.18401,-0.9562 5.15481,-4.2812 8.82399,-7.389 10.28623,-8.7125 19.03426,-12.702 30.52325,-13.9199 19.68828,-2.0873 31.0282,-6.3626 37.20373,-14.0267 2.28317,-2.8334 3.20266,-5.4763 4.33158,-12.4501 1.92982,-11.9214 6.52045,-25.4265 13.68766,-40.2677 6.96922,-14.4312 11.12346,-29.4636 13.31441,-48.179 2.52226,-21.5454 1.75611,-31.3708 -3.74335,-48.0061 -2.69749,-8.1596 -3.1241,-10.8404 -3.02358,-19 0.21666,-17.5874 -3.43147,-21 -22.44968,-21 -14.97077,0 -21.14915,1.2406 -24.32077,4.8834 -2.69541,3.0958 -24.73486,17.5775 -34.10749,22.4114 -6.44552,3.3242 -10.89251,3.1961 -10.89251,-0.3138 0,-1.5344 0.67628,-1.981 3,-1.981 1.65,0 3,-0.4224 3,-0.9387 0,-1.2365 -7.22167,-2.2304 -13.5,-1.8579 -4.43221,0.2629 -5,0.07 -5,-1.7034 0,-1.7366 0.96623,-2.1184 7.33642,-2.8987 4.56896,-0.5597 8.93579,-0.5327 11.57632,0.072 3.99868,0.915 4.87927,0.6583 15.47785,-4.5133 7.69364,-3.7541 12.52773,-6.8368 15.32749,-9.7745 6.56839,-6.8919 8.89552,-7.4637 40.94797,-10.061 5.92957,-0.4805 7.216,-0.2409 11.64371,2.169 6.90925,3.7604 8.35308,7.3062 8.61842,21.1648 0.17872,9.3342 0.66434,12.1635 3.49161,20.3422 1.80622,5.225 3.58804,9.8273 3.95962,10.2275 0.37157,0.4001 3.49682,-5.4054 6.94499,-12.9012 11.11968,-24.1724 15.26943,-28.9057 35.9926,-41.0543 1.95401,-1.1454 4.08002,-18.5152 3.15444,-25.772 -1.17334,-9.1992 -4.81567,-21.2971 -8.59581,-28.5506 -4.30656,-8.2637 -22.37639,-28.5201 -30.12636,-33.7719 -11.37378,-7.7075 -14.44268,-8.5764 -37.74927,-10.6888 -6.90934,-0.6263 -7.03886,-0.5933 -10,2.5434 -8.53138,9.0373 -25.26745,17.51 -37.51262,18.991 -14.26689,1.7255 -25.11341,4.0005 -29.33107,6.1522 -2.20989,1.1274 -9.22411,5.2574 -15.58715,9.1778 l -11.56916,7.128 -17.03157,0.6547 c -18.51469,0.7118 -22.5477,1.6886 -27.05584,6.553 -1.42226,1.5346 -3.21249,4.2898 -3.9783,6.1227 -1.58905,3.8031 -3.43429,3.416 -3.43429,-0.7205 0,-4.1414 5.05763,-10.4278 10.41593,-12.9465 5.01393,-2.3568 15.5286,-5.1059 19.62029,-5.1297 1.96461,-0.011 3.36145,-1.2679 6.19771,-5.5747 6.30265,-9.5705 5.98788,-16.6631 -1.44996,-32.6716 -3.63376,-7.8209 -4.7536,-9.3052 -9.29419,-12.3191 -2.83945,-1.8847 -5.99529,-4.9729 -7.013,-6.8627 -3.6685,-6.812 -9.66028,-7.3575 -16.32333,-1.4862 -2.5594,2.2552 -6.00345,4.7919 -7.65345,5.637 -5.90301,3.0235 -20.56302,13.5485 -23.15877,16.6267 -3.51163,4.1643 -4.69753,7.1875 -8.97302,22.8746 -4.33794,15.9162 -8.21264,23.963 -16.49818,34.2625 -10.88784,13.5344 -16.14782,16.2794 -37.46508,19.5517 -11.82828,1.8157 -13.53814,2.3637 -21.99712,7.0498 -10.82347,5.996 -17.10889,11.9174 -17.95251,16.9127 -0.50977,3.0186 -0.42882,3.217 0.60541,1.4845 3.85409,-6.4565 18.60078,-18.624 24.30773,-20.0564 4.57751,-1.1488 2.92148,1.21 -4.14968,5.9109 -3.72967,2.4795 -8.89858,6.372 -11.48646,8.6499 -4.3984,3.8716 -4.96811,4.964 -8.73637,16.7511 -2.73387,8.5515 -3.70366,12.9368 -3.01354,13.6269 0.69012,0.6901 1.01759,0.43 1.01759,-0.8083 0,-2.3022 11.30541,-23.5952 14.61809,-27.5321 1.36118,-1.6176 5.49146,-4.3663 9.17839,-6.1081 3.68694,-1.7417 8.18168,-4.4644 9.98832,-6.0504 3.63462,-3.1906 5.2152,-3.6253 5.2152,-1.4344 0,1.7455 -4.55832,5.2384 -11.95336,9.1594 -8.85916,4.6973 -12.42823,8.8595 -18.59618,21.6866 -9.07333,18.8691 -6.32094,18.1089 5.43662,-1.5016 3.33324,-5.5595 10.82438,-11.7687 20.18736,-16.7327 4.6052,-2.4416 9.4374,-5.7041 10.73822,-7.25 2.79986,-3.3274 4.18734,-3.5803 4.18734,-0.763 0,2.9206 -4.30998,6.5294 -12.44851,10.4233 -9.96005,4.7654 -12.6736,7.2515 -3.2275,2.957 8.0559,-3.6625 15.73153,-5.4122 23.78646,-5.4223 3.26998,0 5.68864,-0.7375 8.31876,-2.5223 4.05509,-2.7519 6.19207,-2.5129 4.57349,0.5115 -1.34496,2.513 -1.26792,3.005 0.47055,3.005 0.81028,0 3.51575,0.9923 6.01214,2.2052 l 4.5389,2.2051 1.70153,-2.4551 c 0.93585,-1.3504 3.18038,-3.7755 4.98786,-5.3892 3.0798,-2.7496 3.28716,-3.3466 3.2997,-9.5 0.0142,-6.9599 2.00925,-13.5078 9.77007,-32.066 3.34006,-7.987 4.07301,-11.0239 4.60209,-19.0684 0.34611,-5.2626 1.27245,-12.0376 2.05854,-15.0556 2.98632,-11.4653 12.98506,-29.876 16.22544,-29.876 2.34366,0 1.43861,2.9505 -2.8358,9.2449 -6.58958,9.7036 -8.71204,17.1474 -9.06951,31.8084 l -0.30347,12.4467 -5.669,12.6652 c -3.11795,6.9659 -6.17263,14.5356 -6.78818,16.8216 -1.2501,4.6425 -1.2933,12.7039 -0.10992,20.5132 0.0833,0.55 1.72664,3.475 3.65177,6.5 2.25563,3.5443 3.29498,4.5986 2.92299,2.9651 -0.43246,-1.8991 0.27826,-3.6554 2.83354,-7.0019 3.77588,-4.9451 13.98057,-12.816 18.97714,-14.6371 4.16448,-1.5178 12.55213,-1.6295 16.59281,-0.2209 3.87121,1.3495 5.12811,3.5135 5.12811,8.8291 0,3.399 -0.32794,4.0657 -2,4.0657 -1.59908,0 -2,-0.6667 -2,-3.3257 0,-3.5654 -2.77213,-6.921 -6.70083,-8.1111 -6.07278,-1.8397 -20.09907,6.9785 -24.78005,15.579 -2.47528,4.5479 -2.65035,5.5722 -2.02191,11.8301 l 0.68802,6.851 3.45008,-2.0356 c 3.99438,-2.3568 5.15482,-1.8173 3.57048,1.66 -2.1184,4.6494 -6.54187,6.0535 -19.03237,6.0412 -10.27508,-0.01 -11.42556,-0.1958 -12.39277,-2 -1.6643,-3.1046 -10.73277,-11.2325 -14.69889,-13.1744 -5.07245,-2.4836 -18.09071,-2.9315 -26.18106,-0.9007 -15.69512,3.9396 -28.46804,13.3251 -36.18151,26.5862 -5.79474,9.9624 -7.10208,15.5919 -6.30578,27.1536 1.25227,18.1821 4.94538,27.1752 15.59237,37.969 8.32679,8.4416 15.82795,13.3029 34.49422,22.3546 21.57466,10.4621 23.45564,10.913 33.31183,7.986 3.89782,-1.1575 5.54813,-2.2586 6.68757,-4.4621 2.74011,-5.2987 5.48013,-19.2709 6.65881,-33.9553 l 1.16021,-14.4542 -4.88183,-4.2958 c -4.27161,-3.7588 -4.59165,-4.2958 -2.56034,-4.2958 3.53191,0 8.93086,2.9204 11.14344,6.0277 1.59793,2.244 1.98031,4.412 1.98031,11.2275 0,4.6455 0.47605,9.812 1.05789,11.481 l 1.05788,3.0347 6.69212,-1.9599 c 3.68066,-1.0779 10.4409,-3.8183 15.02276,-6.0898 7.43233,-3.6847 8.13959,-4.2698 6.55887,-5.4256 -0.97448,-0.7126 -3.03577,-1.2956 -4.58065,-1.2956 -2.32946,0 -2.80887,-0.4267 -2.80887,-2.5 0,-3.9844 4.53327,-3.3291 10.37721,1.5 2.66231,2.2 5.24156,4 5.73167,4 0.49012,0 0.89112,0.5908 0.89112,1.3129 0,1.8617 4.9499,6.3496 8.5,7.7067 1.65,0.6307 7.45311,2.0006 12.8958,3.0441 10.59414,2.0312 14.05617,3.6342 15.12553,7.0035 0.37016,1.1663 1.97779,4.0538 3.57251,6.4167 3.51398,5.2068 7.98313,7.2057 19.2761,8.6217 9.26452,1.1617 15.83399,0.5118 23.4416,-2.3189 5.49236,-2.0437 12.18846,-7.7281 12.18846,-10.347 0,-0.8215 -2.42739,-5.5202 -5.39421,-10.4415 -2.96681,-4.9212 -5.94942,-11.2621 -6.62802,-14.0909 -1.91626,-7.9878 -0.79724,-22.7976 2.44868,-32.4073 3.78703,-11.2116 9.36153,-22.5 11.11113,-22.5 2.38043,0 1.73501,4.5655 -1.96165,13.876 -4.62664,11.6529 -5.98959,19.3858 -5.27747,29.9425 0.65432,9.7 2.37691,15.306 8.9668,29.1815 5.98057,12.5926 6.67766,15.3067 7.7052,30 0.9709,13.8834 0.21769,20.407 -2.59496,22.4749 -4.24301,3.1196 -24.11363,7.318 -37.52243,7.9279 -9.58957,0.4362 -11.75747,1.2498 -14.83128,5.5666 -1.16451,1.6354 -6.88631,6.6665 -12.71512,11.1803 -7.1495,5.5365 -12.17796,10.3725 -15.45408,14.8627 -2.67094,3.6607 -6.65542,8.1017 -8.85442,9.8688 -4.33781,3.486 -5.16231,6.6145 -2.00712,7.616 2.68049,0.8507 3.47427,0.2276 7.40598,-5.8134 7.60175,-11.68 14.2011,-18.3405 24.35392,-24.5797 5.40255,-3.32 10.8295,-7.3979 12.05988,-9.0621 2.08051,-2.814 8.77448,-7.042 11.14933,-7.042 0.57191,0 1.03984,0.7883 1.03984,1.7517 0,1.0537 -1.77866,2.6953 -4.46328,4.1195 -2.4548,1.3023 -5.15053,3.4166 -5.99052,4.6986 -0.83999,1.282 -4.79401,4.2284 -8.78673,6.5476 -3.99271,2.3191 -8.67766,5.2861 -10.411,6.5932 -3.43383,2.5894 -14.26849,15.3366 -16.30551,19.1837 -0.69727,1.3168 -3.00208,4.2758 -5.1218,6.5754 -3.62549,3.9332 -3.76371,4.3101 -2.33089,6.3557 2.80432,4.0037 6.8003,2.9037 12.98753,-3.5754 3.02005,-3.1625 6.88397,-8.14 8.58649,-11.061 1.70252,-2.9211 4.65898,-6.5211 6.56991,-8 1.91093,-1.479 6.72586,-5.4152 10.69985,-8.7472 3.97399,-3.3319 8.63708,-6.6428 10.36244,-7.3575 1.72535,-0.7147 3.40886,-2.1559 3.74112,-3.2028 0.84107,-2.65 5.60114,-4.8815 10.41273,-4.8815 2.93303,0 4.04966,0.4136 4.04966,1.5 0,1.079 -1.10355,1.5 -3.93191,1.5 -3.23395,0 -4.31396,0.5365 -6.08421,3.0226 -1.18377,1.6625 -4.02691,3.9684 -6.31809,5.1244 -2.29119,1.1559 -6.41579,3.997 -9.16579,6.3134 -2.75,2.3164 -6.18607,4.9785 -7.63571,5.9158 -1.44965,0.9372 -4.59965,4.4799 -7,7.8726 -2.40036,3.3927 -6.72785,8.704 -9.61664,11.8028 -5.03102,5.3967 -5.1752,5.704 -3.42126,7.2913 2.56994,2.3257 8.42885,2.1375 10.67361,-0.3429 2.37873,-2.6285 3.68639,-2.534 3.46087,0.25 -0.32312,3.989 -0.002,4.7973 2.28913,5.7567 2.93308,1.2283 7.69428,0.419 10.40276,-1.7683 z m -4.64582,-13.2385 c 0.008,-3.2437 6.40095,-10.6828 14.32442,-16.6679 3.39275,-2.5627 8.00957,-6.6109 10.2596,-8.9958 3.14784,-3.3366 4.81924,-4.3363 7.25,-4.3363 4.21959,0 4.30868,2.8201 0.11559,3.6587 -1.91171,0.3823 -3.55636,1.6005 -4.42273,3.2759 -0.75859,1.467 -4.22654,4.6234 -7.70654,7.0143 -3.48001,2.3908 -9.36456,7.5429 -13.0768,11.4491 -5.96624,6.2778 -6.74882,6.8119 -6.74354,4.602 z m 79.55203,-46.25 c 1.40828,-10.8319 4.03115,-20.5187 6.234,-23.0236 3.15519,-3.5878 3.41464,-0.024 0.74958,10.2962 -1.45391,5.6301 -3.07603,12.5175 -3.60472,15.3052 -0.84668,4.4646 -2.13699,6.6067 -4.00965,6.6569 -0.31451,0.01 -0.0306,-4.1472 0.63079,-9.2347 z m -1.8923,-37.4167 c -1.22414,-1.2241 -0.69594,-3.3921 3.93541,-16.153 5.19329,-14.3093 8.02096,-25.5224 8.93464,-35.4303 0.65999,-7.1569 1.84707,-8.501 3.55066,-4.0202 1.16444,3.0627 0.40585,8.6006 -3.72262,27.176 -4.71789,21.2274 -9.40503,31.7206 -12.69809,28.4275 z m -18,-32 c -0.36667,-0.3666 -0.66667,-1.6365 -0.66667,-2.8218 0,-4.7252 3.46666,-11.5654 11.66247,-23.0115 4.72581,-6.6 9.89644,-14.7462 11.4903,-18.1027 l 2.89791,-6.1027 -1.54925,-9.3973 c -0.85209,-5.1685 -1.7159,-10.1639 -1.91957,-11.1008 -0.43609,-2.0061 1.92604,-5.6219 2.9825,-4.5655 1.23159,1.2316 3.32751,14.8931 3.38303,22.0511 0.0671,8.6507 -0.99728,11.0836 -11.54516,26.3883 -6.16682,8.9479 -9.06987,14.1695 -10.11316,18.1901 -1.80802,6.9678 -4.5804,10.5148 -6.6224,8.4728 z m -66.34729,-5.0833 c -1.27587,-4.8818 -0.64557,-9.6731 1.94281,-14.7683 2.83674,-5.5841 9.07354,-12.4817 11.28595,-12.4817 2.34401,0 1.70185,1.9872 -2.39622,7.415 -6.40973,8.4896 -7.43779,11.1414 -6.67776,17.2245 0.61939,4.9574 0.51537,5.3605 -1.38315,5.3605 -1.39863,0 -2.28197,-0.8764 -2.77163,-2.75 z m -14.81938,-8.9645 c -6.78691,-0.9386 -15.35,-3.6399 -20.91835,-6.5987 -4.85813,-2.5815 -6.70288,-4.3577 -10.29784,-9.9149 -4.12506,-6.3767 -8.20203,-9.7719 -11.73415,-9.7719 -0.85231,0 -1.54966,-0.675 -1.54966,-1.5 0,-2.0238 6.1376,-1.9973 10.08409,0.043 1.69059,0.8742 4.90755,4.5432 7.41929,8.4618 4.35187,6.7894 4.56089,6.9553 11.21557,8.9039 3.72958,1.092 10.27673,2.7312 14.54922,3.6426 14.98592,3.1967 16.00674,8.777 1.23183,6.7337 z m 10.75963,-27.5292 c -7.10278,-7.1556 -10.1801,-12.8065 -11.94775,-21.9398 -0.78538,-4.058 3.97532,-13.6605 8.88511,-17.9215 l 4.15389,-3.6051 0.0955,-7.8949 c 0.062,-5.1284 0.6125,-8.6867 1.57086,-10.1542 3.73946,-5.7263 43.09417,-18.1056 45.44853,-14.2962 0.40396,0.6537 0.53878,1.3842 0.29958,1.6234 -0.23919,0.2392 -6.18667,2.0113 -13.21662,3.9379 -14.44423,3.9588 -24.98951,8.5806 -26.64799,11.6795 -1.62467,3.0358 -2.92301,7.9696 -2.34381,8.9067 0.27445,0.4441 2.0466,-0.1057 3.93811,-1.2217 3.50768,-2.0696 5.50494,-1.8424 5.50494,0.6261 0,0.7581 -2.53194,3.544 -5.62652,6.1909 -12.16638,10.4064 -12.27235,10.5346 -13.85825,16.7727 -0.83338,3.2781 -1.51523,7.005 -1.51523,8.2821 0,4.5392 3.11991,9.8355 9.0967,15.4423 4.50299,4.2242 5.97528,6.2592 5.73144,7.9217 -0.18048,1.2304 -0.7866,2.3877 -1.34694,2.5717 -0.56034,0.1841 -4.26005,-2.9307 -8.22157,-6.9216 z m -52.46394,-22.1942 -0.29569,-6.438 -5.90031,3.9712 c -6.03988,4.0651 -7.86887,4.4286 -8.40406,1.6703 -0.19917,-1.0265 2.65214,-3.4958 8.25,-7.1447 4.70491,-3.0668 8.55437,-6.1829 8.55437,-6.9245 0,-1.6007 21.56459,-23.185 25.91703,-25.9408 3.07042,-1.9441 5.08297,-1.6836 5.08297,0.6578 0,0.7125 -3.25189,4.1734 -7.22642,7.691 -7.64051,6.7621 -12.14685,11.4985 -15.02096,15.7878 -2.23673,3.3381 -6.4514,14.4966 -7.31161,19.3578 -1.11649,6.3094 -3.30624,4.6947 -3.64532,-2.6879 z m 169.89181,-47.2079 c -0.37813,-0.3782 -0.6875,-2.4439 -0.6875,-4.5907 0,-7.2377 7.87483,-15.8701 19.5,-21.3759 10.55955,-5.0011 11.68815,-1.7071 1.39839,4.0814 -9.32869,5.2479 -12.76604,8.809 -15.43312,15.989 -2.15488,5.8011 -3.37148,7.3025 -4.77777,5.8962 z m -130.22644,-2.4172 c -1.68046,-2.719 7.87388,-9.3015 33.03894,-22.762 16.38477,-8.7641 32.41378,-16.2998 45,-21.1558 10.38117,-4.0052 23.63588,-12.4661 34.31671,-21.9055 5.6697,-5.0107 11.18967,-9.5819 12.26659,-10.1583 2.01953,-1.0808 3.9167,-0.5476 3.9167,1.1007 0,3.7269 -26.44758,24.6791 -38.42178,30.4385 -3.99433,1.9212 -12.14922,5.3059 -18.12197,7.5216 -13.91162,5.1608 -36.44823,17.4676 -64.40203,35.1686 -4.77273,3.0222 -6.55417,3.4333 -7.59316,1.7522 z m -36.23855,-13.4937 c -2.53529,-1.7758 -2.99838,-5.4433 -0.68733,-5.4433 0.84435,0 2.54984,0.6648 3.78996,1.4774 4.03426,2.6433 8.86274,0.3449 17.49367,-8.3274 8.48972,-8.5303 16.31673,-13.4145 18.30726,-11.4239 0.91889,0.9189 0.8714,1.572 -0.20896,2.8738 -1.29523,1.5606 -0.91863,1.6333 5.11767,0.9868 3.97363,-0.4255 8.26161,-0.2541 10.9905,0.4395 9.2402,2.3483 9.7069,2.3325 12.46084,-0.4214 3.22144,-3.2215 3.51388,-3.2289 3.51388,-0.09 0,1.7639 -0.97026,3.1063 -3.25,4.4963 -3.95262,2.4099 -6.85066,2.5054 -10.99498,0.3623 -2.77959,-1.4374 -4.48778,-1.4906 -14.67856,-0.4574 -11.26212,1.1417 -11.65079,1.2639 -16.55467,5.2032 -13.99648,11.2435 -20.30898,13.8195 -25.29928,10.3242 z m 149.51154,-17.0426 c -1.27383,-1.2738 -0.79903,-2.4003 1.01595,-2.4105 2.66652,-0.015 11.97901,-4.616 16.61568,-8.2096 2.27388,-1.7623 8.23645,-6.9339 13.25016,-11.4924 8.69115,-7.9021 11.51523,-9.5032 12.87662,-7.3004 1.6314,2.6397 -18.93214,20.1766 -30.5147,26.0234 -6.01143,3.0346 -12.05253,4.5807 -13.24371,3.3895 z m -71.37242,-7.9007 c -1.7046,-4.4421 4.25063,-7.5 14.60625,-7.5 5.58411,0 7.03212,0.3089 7.03212,1.5 0,1.1762 -1.37361,1.5 -6.3625,1.5 -5.56388,0 -6.83633,0.3766 -10.1375,3 -4.37211,3.4745 -4.37982,3.4768 -5.13837,1.5 z m 38.04487,-19.6513 c -0.83913,-1.3577 3.15329,-4.886 13.42728,-11.8661 7.50909,-5.1017 10.16622,-6.0414 10.16622,-3.5952 0,1.4343 -11.13353,10.8949 -17.10786,14.5371 -3.85387,2.3495 -5.46304,2.5788 -6.48564,0.9242 z M 666.0286,545.24841 c -1.9883,-3.0345 -3.03718,-10.0467 -1.63264,-10.9147 0.56591,-0.3498 1.85483,1.0544 2.86428,3.1203 2.55552,5.2302 6.69154,5.6385 11.7881,1.1636 2.73598,-2.4022 3.9359,-2.9186 4.79199,-2.0626 2.30988,2.3099 -8.93539,11.1553 -14.18185,11.1553 -1.10923,0 -2.74268,-1.1079 -3.62988,-2.4619 z m -23.03601,102.7119 c -1.29118,-5.5384 -10.01889,-18.4766 -12.1698,-18.0408 -0.78948,0.1599 -2.82605,2.2131 -4.52573,4.5625 l -3.09031,4.2717 5.35987,5.4273 c 3.66656,3.7127 6.33436,5.5508 8.44443,5.8182 6.80816,0.863 6.66911,0.9104 5.98154,-2.0389 z m 271.88624,-19.8811 c 2.86922,-1.4472 5.49152,-3.0597 5.82733,-3.5835 0.33581,-0.5237 1.64437,-6.3203 2.90791,-12.8814 2.05711,-10.6817 2.17002,-12.6416 1.07974,-18.7424 -1.48448,-8.3066 -5.97886,-18.8751 -12.89876,-30.3314 -2.8597,-4.7344 -5.19946,-9.366 -5.19946,-10.2924 0,-6.7042 12.25346,9.7712 18.93734,25.4622 6.58956,15.4696 7.43522,23.0462 4.20885,37.7082 -2.08147,9.4591 -2.19838,9.2918 6.49278,9.2918 9.26997,0 14.13417,-1.7669 19.00919,-6.905 2.39781,-2.5273 5.84684,-6.17 7.6645,-8.095 1.81766,-1.925 8.0034,-5.9375 13.74609,-8.9166 17.22937,-8.9382 31.07536,-18.989 39.24386,-28.4873 4.0595,-4.7204 5.0418,-6.707 6.3488,-12.8402 2.7269,-12.7967 0.3525,-30.3666 -5.9132,-43.7559 -5.1712,-11.0503 -23.15028,-27.2835 -35.13942,-31.727 -4.89092,-1.8127 -3.21938,-2.1019 -24.46209,4.233 -6.1941,1.8471 -10.67658,2.494 -17.28212,2.494 -10.40535,0 -13.5926,-1.1014 -19.85414,-6.8611 -2.47475,-2.2764 -4.83725,-4.1389 -5.25,-4.1389 -0.41274,0 -0.75044,-0.9589 -0.75044,-2.1308 0,-1.8886 0.40986,-2.0644 3.6049,-1.5459 2.50085,0.4058 5.28465,2.1736 9.08955,5.7722 l 5.48466,5.1871 7.66045,-0.5958 c 6.67751,-0.5193 15.77219,-2.8793 25.51708,-6.6214 l 2.85664,-1.097 -2.7557,-3.7342 c -9.40109,-12.7392 -19.44255,-18.8838 -29.36109,-17.9666 -3.07807,0.2846 -8.69646,1.7637 -12.48531,3.2869 -5.87618,2.3622 -6.64791,2.9455 -5.25,3.9677 0.90135,0.659 1.63882,1.8729 1.63882,2.6975 0,1.2715 -2.31614,1.4825 -15.25,1.3897 -13.57986,-0.098 -15.99508,0.1479 -22.05331,2.2399 -7.0851,2.4466 -18.50408,9.5883 -26.29294,16.4443 -3.70544,3.2617 -14.40375,17.4154 -14.40375,19.0559 0,0.242 1.52335,0.096 3.38521,-0.3236 5.15517,-1.1627 13.35081,0.5461 21.11479,4.4025 7.78569,3.8671 14.82272,9.2404 13.95027,10.6521 -1.14594,1.8541 -4.3371,0.8178 -10.77479,-3.4991 -7.62032,-5.11 -14.67821,-7.0386 -23.43949,-6.4048 -4.98866,0.3608 -7.01358,1.1153 -11.75368,4.3797 -3.14968,2.169 -7.33855,5.3369 -9.30861,7.0397 l -3.58191,3.0959 10.4541,0.5869 c 12.08449,0.6784 19.92571,2.5343 28.65891,6.7832 5.0773,2.4703 8.95177,5.8735 21.32173,18.7284 13.03666,13.5478 15.66119,16.8281 19.07191,23.8378 7.83458,16.1015 10.64206,34.3671 7.55018,49.1218 -1.5528,7.4101 -1.23067,7.5858 6.63462,3.6189 z m 20.21676,-17.3689 c -1.10362,-1.7857 0.3638,-2.7245 5.09128,-3.2574 5.56044,-0.6267 8.5075,-2.6681 14.20178,-9.8375 9.61552,-12.1063 12.25807,-15.1059 16.23436,-18.428 2.289,-1.9124 4.79423,-3.4771 5.56719,-3.4771 2.83418,0 1.26222,2.6811 -4.59461,7.8365 -3.3,2.9048 -6,5.649 -6,6.0983 0,1.1464 12.58463,-3.5287 18,-6.6867 2.475,-1.4433 7.66127,-5.616 11.52504,-9.2726 12.21557,-11.5606 23.47497,-18.8208 23.47497,-15.1369 0,0.4612 -3.7125,3.7879 -8.25,7.3927 -4.5375,3.6047 -11.37591,9.3214 -15.19646,12.7038 -4.17823,3.6991 -9.95661,7.5518 -14.5,9.6678 -17.35224,8.0816 -20.53433,9.9603 -21.93296,12.9492 -1.80746,3.8627 -4.96968,7.2993 -8.32093,9.0429 -3.09017,1.6078 -14.37171,1.9065 -15.29966,0.405 z m 16.65557,-41.3125 c -0.82183,-0.9903 -0.17983,-2.6478 2.6145,-6.75 2.0371,-2.9906 5.50969,-9.0171 7.71687,-13.3922 4.30378,-8.531 6.51306,-10.5407 6.51306,-5.9247 0,5.3231 -12.05663,27.3794 -14.96645,27.3794 -0.43376,0 -1.27885,-0.5906 -1.87798,-1.3125 z m 345.84444,34.3805 c 18.3991,-1.6669 52.96,-10.5071 65.1875,-16.6742 7.6375,-3.852 24.1815,-16.8821 31.3065,-24.657 13.646,-14.8907 16.9272,-22.11 22.1512,-48.7368 2.5522,-13.0087 2.8394,-16.5055 2.7923,-34 -0.038,-14.2505 -0.5387,-22.1921 -1.8587,-29.5 -7.5051,-41.5522 -26.8062,-71.8993 -59.5788,-93.6755 -17.2857,-11.4859 -44.8787,-22.5815 -70.5,-28.3493 -13.4611,-3.0303 -31.3737,-4.4674 -28.113,-2.2553 1.0379,0.704 4.1879,2.8055 7,4.6699 10.2624,6.8036 13.4691,10.0262 16.8182,16.9014 3.1485,6.4638 3.281,7.2333 3.6275,21.0682 l 0.3595,14.3595 -3.4068,3.6405 c -1.8737,2.0023 -4.6547,5.6005 -6.18,7.996 l -2.7732,4.3554 5.3339,-0.6724 c 14.8176,-1.8677 21.4432,-5.1594 33.4953,-16.6407 9.2784,-8.8391 12.3386,-10.5883 12.3386,-7.0527 0,2.0224 -6.4035,12.2635 -10.0164,16.0192 -3.9454,4.1014 -11.2132,8.1203 -19.3119,10.6793 -8.8064,2.7824 -23.8417,5.4464 -30.7734,5.4525 -3.7456,0 -5.1856,0.5621 -7.7409,3.004 -1.7266,1.65 -3.5116,3 -3.9668,3 -2.363,0 -11.1097,-3.1976 -12.1389,-4.4377 -1.7982,-2.1666 -8.402,-5.3528 -12.714,-6.1342 -5.2704,-0.955 -9.0591,-3.0246 -12.7293,-6.9533 -1.9702,-2.1089 -4.7562,-3.7376 -7.6084,-4.4478 -9.7513,-2.4281 -12.8603,-5.1513 -14.444,-12.6514 -0.9265,-4.3878 -4.7719,-7.7892 -7.9142,-7.0005 -1.3579,0.3408 -7.1855,5.3134 -12.9503,11.0503 -10.7364,10.6845 -17.4441,20.1673 -25.2227,35.6578 -2.0485,4.0792 -5.1122,9.2168 -6.8084,11.4168 -5.7349,7.4382 -22.1236,24.782 -28.1604,29.8016 -7.7929,6.4796 -9.4853,9.1222 -9.4934,14.8234 -0.012,8.0434 -1.0039,10.3238 -9.4765,21.7756 l -8.2774,11.1878 2.3145,9.7936 c 2.8684,12.1372 5.9094,19.1056 12.9655,29.7103 11.1491,16.7562 27.7752,30.306 48.5748,39.5872 22.543,10.0591 48.4343,15.6621 83.8925,18.1547 10.2292,0.7191 55.1882,0.5321 64,-0.2662 z m -259.3423,-55.94 c 8.9387,-8.6597 14.1853,-15.2897 20.2103,-25.5396 6.2253,-10.5908 7.7814,-14.7089 10.1237,-26.7918 1.8748,-9.6716 3.9639,-14.7966 6.0313,-14.7966 1.5427,0 1.1124,8.6823 -0.9168,18.5 -1.0232,4.95 -1.6933,9.1848 -1.4892,9.4107 0.8532,0.9443 7.8392,-3.7195 11.5106,-7.6844 5.0463,-5.4498 14.1821,-23.8461 13.3975,-26.978 -1.0083,-4.0248 3.3821,-10.2664 15.3723,-21.854 13.0035,-12.5669 27.1473,-31.5561 37.5352,-50.3943 3.1845,-5.775 7.4274,-12.525 9.4287,-15 14.1622,-17.5146 36.5001,-32.5362 49.4675,-33.2654 5.1317,-0.2886 6.3387,1.4217 1.9212,2.7222 -1.7875,0.5262 -3.25,1.3137 -3.25,1.75 0,0.4363 0.1753,0.7932 0.3895,0.7932 0.2143,0 4.1518,0.7112 8.75,1.5804 9.5103,1.7977 12.9247,3.5959 18.6763,9.8356 4.8819,5.2962 6.6245,10.9045 5.6964,18.3328 -0.9392,7.5166 0.1699,12.6994 3.4745,16.237 4.0095,4.2922 7.314,4.028 10.5373,-0.8427 2.4821,-3.7506 6.0155,-6.1431 9.0727,-6.1431 3.3216,0 7.4096,-3.2408 9.9304,-7.8724 1.464,-2.6899 3.7369,-5.4661 5.0508,-6.1693 3.3369,-1.7858 3.8237,-4.2208 2.0493,-10.2489 -0.8433,-2.8652 -1.7004,-8.8415 -1.9045,-13.2807 -0.586,-12.742 -2.7282,-16.1701 -15.1089,-24.1785 -12.3587,-7.9942 -20.7581,-15.9345 -34.1174,-32.2526 -11.8785,-14.5093 -17.9584,-20.3964 -23.8061,-23.0513 -5.117,-2.3231 -11.473,-2.4873 -14.4898,-0.3742 -3.7243,2.6086 -8.1868,12.8598 -10.2021,23.4363 -2.0754,10.8914 -5.2591,18.0606 -10.6901,24.0721 -3.3158,3.6701 -14.7938,11.8765 -45.0572,32.2144 -14.3864,9.6681 -38.5844,29.0574 -44.5642,35.7084 -5.9832,6.6548 -9.5969,13.0803 -14.5467,25.8651 -8.4327,21.7809 -14.6493,27.1882 -48.9074,42.5404 -5.6469,2.5305 -14.1414,7.1792 -18.87648,10.3304 l -8.60932,5.7294 2.77382,2.0157 c 1.52561,1.1086 5.34867,4.143 8.49568,6.743 l 5.7219,4.7272 7.8594,-4.4789 c 4.3227,-2.4634 13.0441,-6.6652 19.3808,-9.3373 14.7496,-6.2198 16.0278,-6.6158 15.9969,-4.9557 -0.013,0.7246 -6.5764,4.9007 -14.5844,9.2802 -8.008,4.3796 -16.8249,9.2564 -19.5931,10.8374 l -5.0332,2.8746 3.5116,3.6626 c 8.5319,8.8986 13.0269,21.9767 14.2338,41.4126 0.4013,6.4625 1.0276,11.75 1.3918,11.75 0.3642,0 3.8542,-3.0924 7.7557,-6.872 z m 28.5829,-86.2874 c -0.7528,-0.7528 0.1936,-2.716 3.2309,-6.7026 2.3626,-3.1009 4.9105,-7.6308 5.662,-10.0664 1.4617,-4.7368 3.2235,-6.1895 4.253,-3.5068 2.1387,5.5734 -9.6563,23.7655 -13.1459,20.2758 z m 26.7594,-30.7336 c 0,-0.4912 0.5625,-1.1337 1.25,-1.4279 0.6875,-0.2942 5.0047,-2.1202 9.5938,-4.0578 12.2884,-5.1883 18.3335,-10.3137 25.8359,-21.905 5.9918,-9.2575 8.5281,-11.8418 10.0894,-10.2805 1.0759,1.0759 -4.7225,11.3422 -10.5056,18.6008 -10.0801,12.6519 -21.4012,19.9358 -31.0135,19.9536 -2.8875,0 -5.25,-0.3921 -5.25,-0.8832 z m 158.0675,-36.9809 c -1.6063,-3.0014 -1.3417,-7.1261 0.4572,-7.1261 1.4663,0 2.9735,2.7183 3.6523,6.587 0.4528,2.5801 -2.7896,3.0055 -4.1095,0.5391 z m 3.9325,-11.4912 c 0,-2.1001 3.8383,-6.4999 7.1762,-8.226 1.994,-1.0311 3.8329,-3.3712 5.485,-6.98 2.8563,-6.2391 5.3388,-7.2047 5.3388,-2.0768 0,4.097 -3.3669,9.3107 -8.0238,12.425 -1.9119,1.2786 -3.8824,3.2018 -4.379,4.2738 -1.0309,2.2257 -5.5972,2.7021 -5.5972,0.584 z m -84.6221,-40.0923 c -0.3823,-0.9964 1.3589,-3.6513 4.9112,-7.4881 3.307,-3.572 6.1818,-7.8622 7.2032,-10.7495 3.0059,-8.4975 3.4386,-9.305 4.9862,-9.305 4.2096,0 -0.9208,13.1521 -8.7654,22.4707 -4.6817,5.5614 -7.4913,7.271 -8.3352,5.0719 z m 25.2888,-26.2093 c -1.1416,-1.1415 -0.7334,-5.3036 0.8133,-8.2947 3.2359,-6.2574 11.2383,-9.1775 14.9577,-5.458 2.4308,2.4307 0.8645,3.5873 -3.892,2.874 -4.2684,-0.6401 -4.2809,-0.6328 -6.2908,3.702 -1.1077,2.3889 -2.279,5.1309 -2.603,6.0934 -0.6083,1.8069 -1.8215,2.2471 -2.9852,1.0833 z m -209.18319,157.7513 c 7.12742,-4.5014 39.27769,-20.7524 48.34289,-24.4359 7.2519,-2.9468 14.9176,-9.2374 19.6785,-16.1487 1.8944,-2.75 5.2418,-9.8635 7.4387,-15.8077 5.8863,-15.9266 8.3183,-19.7287 19.508,-30.4976 14.1805,-13.6472 48.8462,-39.2792 70.047,-51.793 16.8343,-9.9364 20.66,-15.3146 23.8677,-33.5528 0.8076,-4.5919 1.9556,-9.6157 2.551,-11.164 1.7023,-4.4263 1.3119,-6.3542 -2.0658,-10.2012 -4.0559,-4.6195 -7.7482,-6.4837 -12.8417,-6.4837 -8.0429,0 -15.0566,5.5069 -17.0416,13.3805 -0.5712,2.2657 -1.6994,5.9195 -2.5072,8.1195 -1.7535,4.7759 -13.4476,19.5577 -20.1162,25.4276 -6.0937,5.3639 -18.7133,12.9792 -31.1022,18.7686 -9.8825,4.6181 -29.7872,17.6824 -40.4098,26.5226 -5.675,4.7228 -14.0396,15.4592 -17.9371,23.0231 -1.0605,2.0581 -3.6654,8.6739 -5.7887,14.7018 -2.1232,6.028 -5.0196,12.9377 -6.4362,15.3551 -2.4169,4.1241 -3.3342,4.7066 -14.8733,9.4449 -6.7636,2.7774 -17.34779,6.4449 -23.52035,8.1501 -9.78742,2.7037 -21.57868,7.3672 -34.52716,13.6555 -4.00236,1.9437 -4.86225,3.4367 -2,3.4727 5.94645,0.075 18.44211,9.8653 24.47658,19.1781 3.98416,6.1486 6.67484,6.3046 15.25694,0.8845 z m 40.18319,-34.7513 c -1.6422,-1.6421 -0.2759,-3.1272 4.8203,-5.2395 3.0707,-1.2727 6.6004,-3.6658 8.0151,-5.434 1.3904,-1.7379 2.989,-3.7223 3.5524,-4.4098 1.386,-1.6914 4.9455,-1.5893 4.9455,0.1419 0,0.7655 -2.0349,3.6551 -4.5221,6.4214 -5.7828,6.4319 -14.4877,10.8436 -16.8112,8.52 z m 125.6359,-133.9871 c -0.4297,-1.1197 0.5234,-2.7151 2.9507,-4.9396 5.3007,-4.8577 14.4112,-5.9743 13.5409,-1.6596 -0.268,1.3286 -1.1489,1.6749 -3.6386,1.4304 -3.7531,-0.3686 -7.7033,1.8223 -8.6472,4.796 -0.7755,2.4435 -3.3245,2.6695 -4.2058,0.3728 z m 80.4974,91.4538 c 1.6512,-1.6512 1.5387,-15.0627 -0.16,-19.0821 -1.9158,-4.533 -6.2908,-8.5546 -10.5274,-9.6771 -1.9869,-0.5265 -7.8756,-2.124 -13.0858,-3.5502 -9.1867,-2.5146 -9.5875,-2.5415 -13.25,-0.8899 -2.0773,0.9367 -3.7768,2.0063 -3.7768,2.3769 0,0.3706 1.1124,1.7189 2.4721,2.9962 1.3596,1.2773 3.1551,4.6719 3.9899,7.5435 0.8348,2.8716 2.0848,5.6882 2.7779,6.2591 0.693,0.571 4.7784,2.0581 9.0785,3.3049 7.1662,2.0776 7.9802,2.5837 9.7567,6.0659 1.3645,2.6747 2.898,4.0763 5.1815,4.7357 4.5517,1.3146 6.1636,1.2968 7.5434,-0.083 z m -12.7664,-12.9766 c -1.1144,-1.8279 -2.0278,-3.9155 -2.0299,-4.6391 -0.01,-2.183 1.9775,-5.1843 3.4264,-5.1843 1.244,0 1.7485,1.8045 2.7678,9.8988 0.4634,3.6797 -1.901,3.6368 -4.1643,-0.075 z m -12.6081,-6.2642 c -0.4129,-1.645 -0.057,-3.4732 0.9873,-5.0665 2.5216,-3.8484 3.7323,-3.0458 3.392,2.2483 -0.2271,3.5318 -0.742,4.824 -2.0191,5.0665 -1.1462,0.2176 -1.9283,-0.5274 -2.3602,-2.2483 z"
       id="path3674"
       inkscape:connector-curvature="0" />
  </g>
</svg>
