<?xml version="1.0" encoding="UTF-8" standalone="no"?>
<!-- Created with Inkscape (http://www.inkscape.org/) -->

<svg
   xmlns:dc="http://purl.org/dc/elements/1.1/"
   xmlns:cc="http://creativecommons.org/ns#"
   xmlns:rdf="http://www.w3.org/1999/02/22-rdf-syntax-ns#"
   xmlns:svg="http://www.w3.org/2000/svg"
   xmlns="http://www.w3.org/2000/svg"
   xmlns:xlink="http://www.w3.org/1999/xlink"
   xmlns:sodipodi="http://sodipodi.sourceforge.net/DTD/sodipodi-0.dtd"
   xmlns:inkscape="http://www.inkscape.org/namespaces/inkscape"
   width="824.38434"
   height="898.66858"
   id="svg2"
   version="1.1"
   inkscape:version="0.48.3.1 r9886"
   sodipodi:docname="Rear-deltoid-row-1.svg">
  <defs
     id="defs4">
    <radialGradient
       gradientUnits="userSpaceOnUse"
       gradientTransform="matrix(1,0,0,0.91819829,-19.285714,-7.9105395)"
       r="209.56604"
       fy="287.50052"
       fx="398.1105"
       cy="287.50052"
       cx="398.1105"
       id="radialGradient5255"
       xlink:href="#linearGradient5249"
       inkscape:collect="always" />
    <linearGradient
       id="linearGradient5249"
       inkscape:collect="always">
      <stop
         id="stop5251"
         offset="0"
         style="stop-color:#e3e3e3;stop-opacity:1;" />
      <stop
         id="stop5253"
         offset="1"
         style="stop-color:#e3e3e3;stop-opacity:0;" />
    </linearGradient>
  </defs>
  <sodipodi:namedview
     id="base"
     pagecolor="#ffffff"
     bordercolor="#666666"
     borderopacity="1.0"
     inkscape:pageopacity="0.0"
     inkscape:pageshadow="2"
     inkscape:zoom="0.35"
     inkscape:cx="-514.56275"
     inkscape:cy="96.465911"
     inkscape:document-units="px"
     inkscape:current-layer="layer1"
     showgrid="false"
     showguides="true"
     inkscape:guide-bbox="true"
     fit-margin-top="0"
     fit-margin-left="0"
     fit-margin-right="0"
     fit-margin-bottom="0"
     inkscape:window-width="1201"
     inkscape:window-height="886"
     inkscape:window-x="83"
     inkscape:window-y="39"
     inkscape:window-maximized="0">
    <sodipodi:guide
       orientation="-0.70710678,0.70710678"
       position="-2735.0374,171.54905"
       id="guide2985" />
  </sodipodi:namedview>
  <metadata
     id="metadata7">
    <rdf:RDF>
      <cc:Work
         rdf:about="">
        <dc:format>image/svg+xml</dc:format>
        <dc:type
           rdf:resource="http://purl.org/dc/dcmitype/StillImage" />
        <dc:title></dc:title>
      </cc:Work>
    </rdf:RDF>
  </metadata>
  <g
     inkscape:label="Ebene 1"
     inkscape:groupmode="layer"
     id="layer1"
     transform="translate(-1306.4659,700.47161)">
    <path
       style="fill:#000000"
       d="m 1560.2151,197.19505 c -10.9048,-0.89355 -17.2743,-2.1401 -32.5,-6.36048 -11.5411,-3.19906 -20.6548,-3.22837 -41.8129,-0.13446 -18.5898,2.71835 -29.7328,3.23632 -35.6051,1.65507 -5.0399,-1.35712 -10.3094,-5.84764 -13.7487,-11.71638 -2.5253,-4.30914 -2.5767,-4.75087 -2.048,-17.61285 0.417,-10.14523 1.3681,-16.77344 4.1173,-28.69285 3.8654,-16.75895 7.7426,-37.171921 9.7819,-51.500001 0.7921,-5.56536 1.2876,-19.68556 1.2982,-37 0.018,-29.66784 -1.0267,-38.5836497 -5.5847,-47.6477397 -1.0088,-2.00626 -2.8042,-6.95626 -3.9897,-11.0000003 -3.073,-10.48189 -3.802,-41.38304 -1.4593,-61.85226 2.8109,-24.55936 3.7594,-27.928569 11.8235,-41.999999 15.2268,-26.56997 21.7226,-41.49764 21.7333,-49.94417 0,-4.24591 0.9401,-11.11238 2.5599,-18.80583 l 0.6843,-3.25 -21.9435,0 c -31.3817,0 -31.3598,-0.008 -49.8997,19.00352 -5.9076,6.05801 -13.8345,13.59135 -17.6154,16.74075 -10.8604,9.0466 -19.4655,23.61656 -32.327,54.735469 -3.0562,7.39464 -8.0007,13.71203 -12.5896,16.085 -3.1978,1.65365 -11.5363,1.89466 -15.3525,0.44374 -4.5092,-1.71442 -9.3683,-6.26864 -14.2781,-13.38228 l -4.7442,-6.873789 0.037,-10.12621 c 0.02,-5.56941 0.1811,-12.1512 0.3573,-14.6262 0.1761,-2.475 -0.012,-9.6983 -0.4177,-16.05177 -0.9171,-14.35583 0.9003,-24.62486 6.5392,-36.94823 8.3717,-18.296 12.4904,-34.63469 13.4864,-53.5 1.101,-20.85618 3.1772,-27.5018 10.5686,-33.82854 6.1157,-5.23481 9.8517,-6.67146 17.3492,-6.67146 7.7859,0 14.7865,2.27748 31.5801,10.27385 17.3201,8.24709 20.8671,9.24284 32.5,9.12393 7.8582,-0.0803 14.7058,-1.10941 31.9715,-4.80485 12.0843,-2.58644 22.0968,-4.82786 22.2498,-4.98093 0.1531,-0.15308 0.574,-9.77184 0.9354,-21.37504 l 0.657,-21.09673 -4.7172,-2.82011 -4.7173,-2.82012 0.6739,-17.5 c 0.8772,-22.78033 -2.0166,-51.00996 -6.817,-66.5 -2.9086,-9.38581 -3.0975,-10.952 -3.0763,-25.5 0.02,-13.57652 0.4252,-17.42348 3.2673,-31 4.1608,-19.87675 7.3338,-27.94612 17.1826,-43.69782 8.3122,-13.29418 13.2413,-19.1361 20.8903,-24.75885 6.9818,-5.13236 32.3768,-17.93258 43.7532,-22.05365 5.6393,-2.0428 12.2836,-5.26447 14.7651,-7.15926 8.9909,-6.86504 15.55,-8.00707 21.7583,-3.78841 l 3.7409,2.54201 4.7413,-3.24178 c 2.6076,-1.78298 9.3902,-7.69606 15.0724,-13.14017 9.245,-8.8577 11.5054,-10.45561 21.5,-15.19842 6.1428,-2.91502 17.2438,-7.42304 24.6688,-10.01783 26.1597,-9.14196 48.8176,-20.06301 68.5,-33.0169 14.4454,-9.5072 17.962,-11.19397 29.3695,-14.08774 11.6292,-2.94997 14.2456,-2.5819 33.8292,4.75898 l 13.1988,4.94752 11.3819,-0.68047 c 13.6221,-0.81441 18.1424,0.34162 27.8515,7.12282 3.503,2.44662 7.2004,4.45325 8.2164,4.45918 2.2434,0.0131 14.1211,-6.13535 25.6527,-13.27909 l 8.5,-5.26566 0.6419,-9.47223 c 0.9918,-14.63549 5.3931,-23.77683 16.2056,-33.65883 6.3103,-5.76726 18.1402,-12.19104 28.0291,-15.22015 3.7822,-1.15853 12.1086,-2.61838 18.5031,-3.24412 9.9163,-0.97038 12.7912,-0.9002 19.5452,0.47714 21.1837,4.31998 47.434,23.45864 56.9106,41.49258 4.6707,8.88838 6.7262,22.83917 4.7043,31.92777 -5.3312,23.96418 -27.839,74.10373 -40.2905,89.75338 -11.2164,14.0973 -22.2739,19.57283 -35.3181,17.489 -10.2659,-1.63997 -17.3522,-5.80206 -27.3358,-16.05539 -8.3278,-8.55275 -8.8848,-8.93361 -13.0651,-8.93361 -6.9168,0 -16.1392,1.92505 -21.0289,4.38948 l -4.4985,2.26731 -0.1621,6.91895 c -0.1466,6.26087 0.1852,7.53742 3.4886,13.4216 3.4841,6.20599 3.6671,7.00536 4.0112,17.52128 0.3356,10.25615 0.1366,11.69386 -2.8752,20.7769 -1.7797,5.36705 -5.3597,13.45868 -7.9555,17.98138 l -4.7197,8.2231 1.8919,5.5 c 3.9172,11.38798 9.8173,36.71687 9.7934,42.04319 -0.022,4.83269 -1,10.9891 -2.571,16.17832 -0.3612,1.19316 2.4113,4.81968 9.0337,11.816 15.957,16.85822 18.4849,23.22186 19.4495,48.96249 0.6605,17.62472 0.5306,17.12505 7.3363,28.21892 1.9296,3.1454 4.9852,9.8954 6.7903,15 4.7384,13.40012 8.6292,20.34593 13.336,23.80731 5.9205,4.35399 11.3415,3.85584 33.7293,-3.09951 22.4403,-6.97166 41.1145,-4.93365 52.0149,5.67664 l 3.5945,3.49883 26.9055,-0.30109 c 35.6936,-0.39945 32.1439,-1.84852 56.7824,23.17993 10.2526,10.41492 19.0823,20.09667 19.6216,21.515 0.5392,1.41834 1.5139,7.69682 2.166,13.95218 1.0517,10.08986 0.9812,12.34689 -0.6248,19.9997 -0.9956,4.74448 -2.6665,9.71484 -3.713,11.04525 -1.0465,1.33042 -4.762,3.82656 -8.2567,5.54699 l -6.354,3.12805 -36.358,1.51956 c -19.9969,0.83575 -36.4956,1.64797 -36.6637,1.80492 -0.1681,0.15695 0.2555,36.91144 0.9413,81.676629 0.6858,44.7652 0.95,82.16514 0.5871,83.11098 -0.7929,2.06616 -4.0295,2.25991 -5.6256,0.33675 -0.8162,-0.98352 -1.5628,-25.02829 -2.585,-83.25 -0.7905,-45.026869 -1.4541,-81.867039 -1.4746,-81.867039 -4.1899,0 -19.5252,0.67732 -24.7816,1.09454 l -7.2441,0.57499 -0.2559,80.665239 -0.2559,80.6652303 -3,0 -3,0 -0.6193,-7.5 c -0.3406,-4.125 -0.6781,-40.4775503 -0.75,-80.7834403 l -0.1307,-73.283449 -14.25,0.65487 c -7.8375,0.36018 -43.275,1.84146 -78.75,3.29174 -60.9675,2.49244 -64.483,2.73628 -64.1893,4.45222 1.0029,5.8587 6.8296,18.30832 10.0986,21.5774 2.819,2.81895 12.1188,8.47534 21.1374,12.85623 0.3007,0.14606 1.0972,-5.24047 1.77,-11.97005 0.6729,-6.72959 1.581,-12.59322 2.0181,-13.03029 0.437,-0.43707 14.7032,-0.67555 31.7026,-0.52995 l 30.9079,0.26472 0.7421,4.34893 c 2.612,15.30756 2.6331,79.154299 0.032,96.651069 l -0.7434,5 -29.488,0.28012 c -16.2184,0.15407 -30.448,0.0462 -31.6215,-0.23981 -1.7494,-0.42633 -2.261,-1.54081 -2.8419,-6.19033 -0.3897,-3.11871 -1.0046,-5.20731 -1.3665,-4.64133 -0.3619,0.56598 -3.0056,2.21307 -5.8748,3.6602 -4.425,2.23182 -6.5191,2.63115 -13.7978,2.63115 -8.0114,0 -8.745,-0.17699 -11.0522,-2.66647 -2.1721,-2.34383 -3.4105,-2.72085 -10.2342,-3.11587 -4.2697,-0.24716 -12.3763,0.0525 -18.0146,0.66586 -12.4696,1.35654 -14.3415,0.74418 -22.1121,-7.23372 -4.372,-4.48864 -5.5389,-6.40398 -6,-9.848 -0.5823,-4.35003 -3.0482,-6.22592 -5.2672,-4.00694 -0.5404,0.54034 -1.4033,6.32004 -1.9177,12.84378 -0.5145,6.52375 -1.1581,12.87386 -1.4305,14.11136 l -0.4951,2.25 -30.9219,0 c -19.9414,0 -31.1458,-0.36223 -31.5524,-1.02006 -0.3467,-0.56104 -1.312,-6.52354 -2.1451,-13.25 -2.8414,-22.94218 -1.3658,-86.029089 2.1451,-91.709879 0.9884,-1.59926 60.9737,-1.37785 62.2943,0.22994 0.5647,0.6875 1.6061,9.6875 2.3141,20 1.1635,16.946269 1.4613,18.749999 3.0957,18.749999 1.6573,0 1.8083,-1.15515 1.8083,-13.825669 0,-12.17257 -0.2989,-14.68124 -2.5,-20.98122 -1.375,-3.93555 -2.5,-8.10967 -2.5,-9.27582 0,-2.00806 -0.3572,-2.08967 -6.75,-1.54211 -3.7125,0.318 -45.162,2.03874 -92.1102,3.82389 l -85.3602,3.24571 0.8602,59.027609 c 0.4732,32.46519 0.8603,70.0526103 0.8603,83.5276103 l 0,24.4999997 -2.9958,0 c -2.887,0 -3.019,-0.19972 -3.6359,-5.5 -0.352,-3.025 -0.9182,-27.7749997 -1.2581,-55 -0.3398,-27.225 -0.91,-62.2125 -1.267,-77.749999 l -0.6491,-28.25 -8.5309,0 -8.5309,0 -4.8161,4.99668 -4.8162,4.99669 0.043,23.75331 c 0.024,13.064329 0.4324,47.153319 0.9083,75.753319 0.6114,36.73752 0.5505,52.38173 -0.2074,53.30056 -0.59,0.7153 -2.2362,1.1653 -3.6583,1 l -2.5856,-0.30056 -0.6087,-25.4999997 c -0.3347,-14.0250003 -0.6722,-40.7775003 -0.75,-59.4500003 -0.081,-19.544 -0.5138,-33.54689 -1.019,-33 -0.4828,0.5225 -1.4297,6.8 -2.1043,13.95 -1.5764,16.70925 -2.8798,24.36385 -8.514,50 -13.7634,62.62463 -14.5716,68.94149 -12.2395,95.65358 1.3892,15.91173 1.8443,18.28837 4.6117,24.08707 2.5161,5.27202 4.1813,7.230161 9.2238,10.846411 3.3844,2.42712 9.8089,7.23495 14.2767,10.68407 4.684,3.61605 13.7859,9.06459 21.498,12.86909 11.6567,5.75043 15.8956,7.22486 33,11.47841 10.7939,2.68425 21.2906,4.88066 23.3261,4.88091 6.5778,8.1e-4 13.5471,2.02108 16.2311,4.70508 2.2276,2.22763 2.5681,3.4249 2.5681,9.03061 0,7.58124 -1.8027,12.00636 -6.6111,16.22813 -1.8639,1.63655 -3.3889,3.68663 -3.3889,4.55575 0,5.40083 -6.7861,10.57904 -18.9613,14.46853 -12.1248,3.87338 -30.8878,4.85325 -55.0387,2.87431 z m 42.0263,-7.89588 c 9.0363,-1.10257 17.0051,-3.31885 20.8009,-5.78514 2.0188,-1.31169 2.2838,-2.18219 2,-6.56856 l -0.3272,-5.05649 3.8274,-0.6331 c 4.9797,-0.82371 7.6919,-3.64729 8.3717,-8.71563 1.1899,-8.87132 -0.8487,-10.61902 -13.6991,-11.74452 -9.8472,-0.86247 -43.5835,-9.39876 -53.5619,-13.55278 -4.3205,-1.79864 -13.0491,-6.71873 -19.3968,-10.93352 -6.3477,-4.2148 -14.086,-9.28492 -17.1963,-11.26693 -7.9921,-5.093 -12.6567,-9.41993 -14.9041,-13.8253 -4.7788,-9.367131 -7.837,-61.632061 -4.8895,-83.561741 0.5782,-4.3023 3.4889,-16.3723597 6.4682,-26.8223597 9.6716,-33.9235303 10.4535,-37.9655603 11.6075,-60.0000003 1.1161,-21.31209 4.876,-50.178359 7.2878,-55.950409 0.9743,-2.33184 3.255,-4.64267 6.8555,-6.94585 6.0981,-3.90093 11.33,-11.16374 17.3635,-24.10374 3.9242,-8.41635 4.1803,-10.46296 3.3155,-26.5 -0.3839,-7.121 -0.4608,-6.90621 14.3045,-40 5.7199,-12.8204 6.7857,-16.23751 9.2004,-29.5 1.5021,-8.25 2.9234,-18.825 3.1585,-23.5 0.2351,-4.675 0.5852,-11.5633 0.7779,-15.30733 0.307,-5.96201 0.1492,-6.72448 -1.2701,-6.14018 -20.4594,8.42248 -39.221,11.49168 -58.4297,9.55844 -14.1646,-1.42558 -31.7802,-5.35107 -42.4062,-9.44987 l -8.7847,-3.38853 -0.7567,7.61374 c -1.6104,16.20156 -1.1511,39.99086 1.0929,56.61373 2.8366,21.01222 2.7706,30.5847 -0.312,45.23408 -1.3617,6.47126 -2.9376,17.61592 -3.502,24.76592 -0.5644,7.15 -1.424,14.67042 -1.9103,16.71205 -0.4863,2.04163 -5.3941,11.94163 -10.9062,22 -10.0184,18.28123 -17.7507,34.976139 -18.7144,40.406329 -1.2717,7.16546 -3.4913,36.42311 -3.4913,46.02068 0,7.4134 0.7683,14.40396 2.5502,23.2045 2.9021,14.3327703 4.8756,19.3896403 10.4471,26.7690603 3.414,4.5217597 3.7316,5.3675197 2.4234,6.4531897 -1.1403,0.94636 -1.7862,0.96863 -2.6631,0.0918 -2.1124,-2.11246 -2.4673,-1.20937 -1.608,4.09238 2.2361,13.79686 2.8948,29.01989 1.8795,43.43999 -1.1644,16.54015 -6.6609,51.138261 -11.1619,70.259801 -8.4954,36.09103 -3.0463,51.53604 18.1328,51.39534 4.125,-0.0274 10.0876,-0.76666 13.2501,-1.64278 18.3944,-5.09581 38.36,-4.83779 60.6072,0.78325 7.8965,1.99515 18.2465,4.23351 23,4.97412 10.6197,1.65459 29.8226,1.89078 41.169,0.50635 z m 8.6719,-19.18102 c -2.6907,-0.71358 -3.7112,-1.48708 -3.4918,-2.64665 0.7219,-3.81502 11.7936,-1.57634 11.7936,2.38465 0,1.6876 -2.615,1.77013 -8.3018,0.262 z m -139.2768,-25.65851 c -5.9393,-2.73083 -8.4214,-6.35927 -8.4214,-12.31106 0,-5.85053 1.5418,-9.10682 7.4747,-15.78696 2.4861,-2.79924 4.9678,-6.86793 5.6484,-9.26069 1.8474,-6.49398 2.8794,-6.75361 2.8536,-0.71783 -0.018,4.20713 -0.6951,6.59025 -2.9687,10.45 -1.62,2.75 -4.1371,7.40546 -5.5937,10.34547 -3.3456,6.75297 -2.5528,8.88167 4.7691,12.80543 2.9242,1.567 5.3166,3.5241 5.3166,4.3491 0,2.2188 -4.3948,2.28006 -9.0786,0.12654 z m 1.5786,-136.2806107 c 0,-0.63474 1.7923,-2.68824 3.983,-4.56332 5.9453,-5.089 11.3617,-17.0447603 14.6251,-32.2826103 3.0298,-14.14667 3.6582,-15.46305 6.624,-13.8758 1.7246,0.92301 1.9411,1.76565 1.4715,5.72899 -1.486,12.54175 -12.231,38.8885203 -17.7559,43.5374103 -3.1658,2.66381 -8.9477,3.6042297 -8.9477,1.45533 z M 1522.8572,-129.9169 c -1.3529,-1.7875 -4.3008,-6.75888 -6.5509,-11.04751 -4.5875,-8.74351 -5.3085,-13.98062 -2.1569,-15.66731 3.3013,-1.76681 3.7863,-1.22122 4.4968,5.05808 0.8911,7.87698 1.8561,10.27794 6.7204,16.72225 3.9075,5.17673 4.4333,8.18449 1.4308,8.18449 -0.8143,0 -2.5874,-1.4625 -3.9402,-3.25 z m -1.1421,-51.75 c -0.9821,-1.58917 0.2958,-2.8628 5.5376,-5.51902 7.2983,-3.69835 9.4724,-3.17095 6.8819,1.66942 -1.8568,3.46958 -10.9184,6.27835 -12.4195,3.8496 z m 12.1384,-18.5 c -1.1457,-2.98558 0.4387,-4.49969 4.7186,-4.50938 5.5536,-0.0126 13.1362,-4.45711 20.5227,-12.02927 3.1983,-3.27874 6.3338,-5.96135 6.9677,-5.96135 0.6625,0 1.1526,1.57367 1.1526,3.70094 0,3.20976 -0.7989,4.47791 -6.0201,9.55532 -7.3557,7.15326 -14.5418,10.72052 -21.6229,10.73397 -3.6557,0.007 -5.3095,-0.424 -5.7186,-1.49023 z m -20.1403,-10.75 c 3.7052,-15.54944 4.6312,-21.96587 5.178,-35.87975 0.516,-13.13007 0.3231,-16.86608 -1.2062,-23.36026 -1.9081,-8.10214 -1.476,-10.67145 1.9062,-11.33695 2.3186,-0.45621 4.4699,5.15068 5.6804,14.80472 1.7028,13.58042 -2.5714,49.58059 -6.6203,55.75994 -2.0251,3.09078 -5.6739,3.09987 -4.9381,0.0123 z m 411.1557,166.499999 c 1.0421,-13.2381 0.8144,-68.182239 -0.3222,-77.749999 l -0.8316,-7 -26.5,0 -26.5,0 -1.3279,9.5 c -1.8454,13.20171 -2.0209,56.138349 -0.2974,72.749999 l 1.3748,13.25 26.779,0 26.7791,0 0.8462,-10.75 z m -162.3352,6.90713 c 1.8403,-9.20135 2.7958,-46.26061 1.7231,-66.824969 -0.6264,-12.00769 -1.3909,-22.84466 -1.6987,-24.08216 l -0.5598,-2.25 -26.3916,0 c -14.5154,0 -26.3971,0.1125 -26.4038,0.25 -0.01,0.1375 -0.6725,7 -1.4795,15.25 -2.2879,23.390219 -1.8943,50.673009 1.0856,75.249999 l 0.6366,5.25 26.2597,0 26.2598,0 0.5686,-2.84287 z m 91.0197,-3.22501 c 2.0695,-1.0442 3.627,-3.3204 5.75,-8.40327 2.823,-6.75884 3.9886,-15.31245 1.9117,-14.02885 -0.55,0.33992 -1,2.36492 -1,4.5 0,5.81737 -1.5313,5.6572 -4.531,-0.47392 -3.5921,-7.34205 -4.4813,-19.53188 -2.0379,-27.93707 1.206,-4.14849 2.2638,-5.95796 3.7029,-6.33429 1.6079,-0.42049 1.8829,-1.05443 1.3624,-3.14077 -0.9988,-4.003039 -3.2955,-5.984519 -11.9964,-10.349669 -13.8848,-6.9659 -14.8201,-8.03971 -19.829,-22.76428 -3.7829,-11.12049 -5.4287,-18.39331 -6.6103,-29.21059 -1.6809,-15.38865 -1.3118,-23.74485 2.9401,-66.55705 5.6796,-57.18682 5.3291,-65.27037 -3.4708,-80.0573 -5.4723,-9.19527 -5.8369,-11.68644 -1.5859,-10.83624 2.3738,0.47476 3.0692,0.19478 3.5898,-1.44541 0.3551,-1.11882 2.8461,-5.49141 5.5356,-9.71686 5.8407,-9.17636 10.2513,-20.78829 11.9774,-31.53382 1.0022,-6.23905 1.016,-11.07891 0.067,-23.5 -0.6573,-8.6035 -1.2894,-18.11773 -1.4046,-21.14273 l -0.2094,-5.5 -2.3,4.66908 c -3.0074,6.10506 -4.6748,7.51164 -6.8069,5.74214 -4.4542,-3.69659 1.9577,-17.55924 18.5602,-40.12762 11.8584,-16.11946 21.4904,-32.41405 25.5857,-43.2836 5.4559,-14.48081 3.0544,-28.90393 -7.0489,-42.33406 -5.0961,-6.77414 -5.9665,-9.16594 -3.3354,-9.16594 0.5701,0 2.3436,0.93064 3.941,2.06809 l 2.9043,2.0681 -0.01,-3.3181 c -0.01,-3.4325 -2.3907,-7.92571 -5.3551,-10.09334 -1.5443,-1.12922 -1.6084,-2.46465 -0.6944,-14.47447 0.9171,-12.05165 0.832,-13.78824 -0.9556,-19.49038 -2.3812,-7.59559 -2.4754,-9.7599 -0.4246,-9.7599 0.916,0 2.4695,2.06153 3.75,4.97643 1.2025,2.73704 2.4834,4.98704 2.8465,5 0.3631,0.013 2.2008,-2.78893 4.0838,-6.22643 2.3348,-4.26217 4.1126,-6.35163 5.5898,-6.56955 3.2093,-0.47343 2.8013,2.84818 -1.2477,10.15707 -6.3294,11.42546 -8.3857,24.41972 -5.1063,32.2684 1.6727,4.00331 0.7552,4.05132 13.9616,-0.73049 5.9657,-2.16008 9.7227,-2.87543 15.1013,-2.87543 8.0364,0 8.1626,0.0693 21.4329,11.76375 9.3477,8.23778 13.8294,10.97149 20.9972,12.80779 5.6126,1.43787 6.1386,1.41227 9.8462,-0.4792 5.3808,-2.74506 14.3784,-11.1396 21.4146,-19.97916 9.8003,-12.31228 28.9065,-53.10738 34.7011,-74.09308 1.1363,-4.11395 2.0657,-9.74869 2.0657,-12.52164 0,-6.98587 -3.0667,-17.35939 -7.1054,-24.03518 -8.6289,-14.26314 -28.1592,-28.76773 -46.2499,-34.34849 -13.093,-4.03903 -32.3361,-2.19946 -46.5158,4.44675 -8.6941,4.07503 -19.5517,14.40108 -25.1289,23.89877 -3.4298,5.84082 -3.504,6.20172 -3.7012,18 -0.1106,6.62183 -0.2231,12.79505 -0.25,13.71826 -0.027,0.92321 -0.7773,2.40706 -1.6676,3.29743 -1.4866,1.48656 -1.7639,1.48764 -3.393,0.0133 -1.5939,-1.44246 -2.136,-1.45438 -5.336,-0.11734 -1.9589,0.81852 -6.9397,3.53873 -11.0682,6.04492 -4.1285,2.50619 -11.2273,6.09966 -15.775,7.98549 l -8.2685,3.42878 -4.1365,-3.81285 c -10.8152,-9.9691 -15.8886,-11.53767 -32.4036,-10.01832 l -11.9253,1.0971 -7.8448,-4.52491 c -10.4664,-6.03701 -15.4645,-7.68853 -23.2303,-7.67598 -12.7785,0.0206 -26.0626,5.69416 -46.6005,19.90265 -18.2973,12.6584 -26.2156,16.45224 -57.8995,27.74097 -8.25,2.93942 -16.575,6.05882 -18.5,6.932 l -3.5,1.58761 4,-0.50047 c 2.2,-0.27526 6.7,-0.79658 10,-1.1585 7.5865,-0.83203 17.8795,-3.94781 19.5027,-5.90361 1.3655,-1.64543 5.5517,-2.02694 6.4416,-0.58707 1.2139,1.96427 -0.952,4.31773 -6.5954,7.16655 -7.3676,3.71912 -13.8504,5.32259 -30.3489,7.50657 -7.5377,0.9978 -14.5943,2.51545 -16.7944,3.61195 -2.0869,1.04011 -8.3869,5.59553 -14,10.12317 -5.613,4.52764 -14.073,10.79024 -18.7998,13.91689 -11.5634,7.64882 -11.5427,7.61869 -10.0831,14.68559 1.548,7.49442 4.9021,15.65451 10.9674,26.6818 26.496,48.17265 29.5847,53.37382 35.8041,60.29126 5.82,6.47323 10.7224,8.14099 20.0064,6.80605 3.523,-0.50657 7.9079,-0.63919 9.7441,-0.2947 1.8363,0.34448 11.6224,4.70873 21.747,9.69832 24.5485,12.098 31.0901,14.27023 40.3343,13.3936 9.3545,-0.88708 23.7941,-4.0115 27.2834,-5.90357 l 2.7906,-1.51316 -5.1685,-0.04 c -3.7914,-0.0294 -7.1144,-0.97261 -12.4718,-3.54004 -8.2813,-3.96872 -12.9107,-4.39162 -16.5695,-1.51363 -2.825,2.22209 -4.2902,1.86004 -4.2902,-1.06013 0,-2.68668 5.6371,-5.91796 10.3321,-5.92254 2.1076,-0.002 7.2383,1.17196 11.4015,2.60892 8.5899,2.96481 15.9149,2.92043 19.2709,-0.11675 1.9719,-1.78452 4.3148,-8.17023 3.4884,-9.50751 -0.2377,-0.38461 -2.8084,-0.31482 -5.7126,0.15511 -7.4662,1.2081 -14.4487,-0.48329 -21.9138,-5.3082 -7.577,-4.89728 -20.0348,-17.35396 -28.8665,-28.86406 l -6.5,-8.47125 -12,-0.62688 c -15.6106,-0.81549 -46.4249,-7.09042 -47.2563,-9.62312 -0.6159,-1.8762 7.5879,-1.58674 21.2563,0.75 11.9434,2.04183 26.5,2.67627 26.5,1.15499 0,-1.35883 -2.9057,-3.54509 -12.75,-9.59316 -5.0875,-3.12563 -9.25,-6.1057 -9.25,-6.62239 0,-2.15708 5.346,-0.62157 15.1102,4.34005 14.5263,7.38143 18.3793,10.26961 28.5069,21.36874 13.6439,14.95287 25.9017,27.05156 29.0639,28.68681 1.5727,0.81324 5.5096,1.96855 8.7488,2.56735 10.5379,1.94804 18.415,-1.98947 20.715,-10.35476 0.6174,-2.24545 1.0767,-11.02326 1.0316,-19.71465 -0.088,-17.0015 0.5117,-19.14059 4.5707,-16.29759 1.5666,1.09733 2.2687,2.95884 2.7235,7.22152 1.7791,16.67412 3.2165,21.20406 12.6567,39.88745 8.4796,16.78235 9.9715,21.35564 6.9665,21.35564 -1.4625,0 -15.168,-19.09494 -18.6374,-25.96624 l -3.0436,-6.02806 -5.301,32.46619 c -8.9358,54.72759 -9.6529,63.07114 -6.6482,77.35518 0.805,3.82681 2.3364,11.99707 3.4032,18.15616 l 1.9395,11.19833 -2.4036,5.25016 c -4.9419,10.79446 -4.8933,22.71971 0.1329,32.63858 2.4998,4.93307 2.5191,5.1511 1.4321,16.215 -2.0761,21.13209 -2.2631,33.67418 -0.6177,41.43703 0.842,3.97228 4.5328,14.77228 8.2017,24 12.3262,31.0012 15.4483,42.5052 15.4483,56.92138 0,5.92411 0.5019,8.41323 2.4859,12.3284 l 2.4859,4.90563 -0.6329,27.811129 c -0.4597,20.20229 -0.2847,30.2485 0.64,36.71999 1.1742,8.21878 1.5816,9.2439 5.2597,13.23412 4.8655,5.2785 9.4641,6.8272 15.2299,5.12916 2.2173,-0.65301 9.5193,-1.16511 16.2265,-1.138 l 12.195,0.0493 -2.195,-2.78639 c -1.2072,-1.53251 -3.1377,-2.81128 -4.29,-2.84171 -3.6433,-0.0962 -5.5584,-3.29138 -5.2141,-8.69939 0.3796,-5.96242 3.0169,-6.90125 3.8091,-1.35594 0.4612,3.22814 0.9272,3.64058 6,5.30991 6.3374,2.08546 8.9606,4.12949 7.3573,5.73281 -1.0205,1.02054 1.3107,7.29011 4.0209,10.81364 1.3078,1.70028 9.8839,1.1325 13.9601,-0.92424 z m -55.8383,-9.0991 c -3.2057,-1.77302 -6.5,-5.07102 -6.5,-6.50733 0,-2.17936 4.076,-1.50515 7.7245,1.27772 3.3497,2.55493 4.2968,2.63624 10.0255,0.86069 1.8361,-0.56906 2.25,-0.31441 2.25,1.38408 0,1.1448 -0.8704,2.54729 -1.9342,3.11664 -2.5208,1.34906 -9.0223,1.27497 -11.5658,-0.1318 z m 43.3515,-7.58302 c 1.6202,-2.0625 3.2467,-4.7625 3.6145,-6 0.9311,-3.13259 2.5348,-2.81569 2.5303,0.5 -0.01,4.30295 -3.4975,9.25 -6.5287,9.25 l -2.5618,0 2.9457,-3.75 z m -48.8515,-23.67668 c 0,-7.40987 0.3962,-12.57332 0.9648,-12.57332 2.2119,0 3.0927,4.44713 2.8202,14.23791 -0.2456,8.82248 -0.527,10.28498 -2.035,10.57369 -1.5916,0.30473 -1.75,-0.80271 -1.75,-12.23828 z m 25.9354,-8.09146 c -3.9973,-8.65208 -4.7238,-11.481859 -2.9479,-11.481859 2.2329,0 9.0125,13.256159 9.0125,17.622119 0,4.51737 -2.1433,2.34728 -6.0646,-6.14026 z M 1773.4997,-202.9169 c -3.1607,-3.4456 -6.9811,-11.70912 -9.9132,-21.44253 -3.9562,-13.13285 -3.936,-26.71737 0.057,-38.30747 3.3436,-9.7051 4.2383,-11.14223 5.5979,-8.99164 1.516,2.39781 1.0598,9.06129 -1.0263,14.99164 -1.0641,3.025 -1.9494,7.80355 -1.9674,10.61901 -0.074,11.60243 5.0966,31.80668 10.499,41.02514 2.3492,4.00868 2.4038,4.35585 0.6849,4.35585 -1.0274,0 -2.7967,-1.0125 -3.9319,-2.25 z m 1.723,-110.24092 c -2.4032,-2.89566 -0.7032,-8.71256 9.3546,-32.00908 3.1029,-7.18714 3.3296,-12.85324 0.6876,-17.18618 -2.4074,-3.94821 -4.1661,-4.89675 -10.7197,-5.78152 -6.0171,-0.81233 -7.2341,-1.94081 -10.7838,-9.99961 -2.6986,-6.12673 -2.9749,-9.57028 -0.8247,-10.27823 1.8943,-0.62367 6.2784,4.36444 6.2784,7.14338 0,2.91998 3.3247,5.5969 6.9725,5.61403 4.5515,0.0214 13.2274,2.82724 15.5821,5.03938 5.1634,4.85077 3.9466,17.46097 -3.0586,31.69781 -2.503,5.08699 -5.2724,12.51199 -6.1541,16.5 -1.4654,6.62799 -3.5265,10.75094 -5.3744,10.75094 -0.3974,0 -1.2794,-0.67091 -1.9599,-1.49092 z m -80.2804,-132.50908 c -1.8315,-1.44065 -4.0568,-2 -7.9568,-2 -7.7438,0 -14.0362,-2.44492 -18.225,-7.08141 -2.9608,-3.27735 -3.5454,-4.67096 -3.5454,-8.45286 0,-3.22972 0.4592,-4.70469 1.6009,-5.14283 2.1052,-0.80784 3.3649,1.33372 3.3838,5.75279 0.023,5.47333 3.359,8.02166 11.3381,8.66215 l 6.4605,0.51858 -0.5208,-4.62014 c -0.5766,-5.11567 0.736,-7.63628 3.9765,-7.63628 1.6713,0 1.8856,0.44528 1.3239,2.75 -1.4842,6.08939 -0.7223,7.33757 9.0526,14.82957 1.5924,1.22051 2.4144,2.56307 1.9899,3.25 -1.1338,1.83452 -6.0788,1.37247 -8.8782,-0.82957 z m 39.0466,-30.96329 c -4.9285,-3.87675 -9.8115,-20.55626 -10.1488,-34.66631 l -0.1704,-7.12959 -6.2236,-6.65309 c -10.3566,-11.07119 -12.6984,-18.63056 -7.953,-25.67226 2.3876,-3.54297 12.1088,-10.91546 14.3928,-10.91546 2.3407,0 1.425,2.77452 -1.7075,5.17394 -9.8671,7.5578 -10.2058,7.98095 -9.6582,12.06367 0.6246,4.65663 6.2614,12.25663 15.5015,20.90033 7.675,7.17953 14.0125,10.34982 24.8256,12.41871 8.534,1.63281 9.7328,2.29548 9.2033,5.08713 -0.7662,4.03905 -12.5111,2.65982 -23.1154,-2.71449 -3.1789,-1.61111 -5.9914,-2.92929 -6.25,-2.92929 -0.2585,0 -0.4634,3.0375 -0.4553,6.75 0.019,8.631 2.3883,18.72146 5.506,23.44848 2.2044,3.34212 2.2899,3.84797 0.8879,5.25 -1.918,1.91803 -1.6418,1.94256 -4.6349,-0.41177 z m 70.8583,-29.48866 c -1.282,-1.3833 -3.5106,-6.64504 -5.1135,-12.07279 -2.0722,-7.01727 -4.4154,-12.07614 -8.6587,-18.69381 -3.1997,-4.99014 -6.0932,-9.9413 -6.4301,-11.00258 -2.9612,-9.33012 13.5958,8.75211 23.3387,25.48848 2.9848,5.12745 5.2885,7.95982 6.7779,8.33365 1.241,0.31146 6.524,-0.59635 11.74,-2.01735 10.6279,-2.89535 15.7136,-3.29517 15.7136,-1.23534 0,0.74157 -1.9125,2.12058 -4.25,3.06447 -11.2473,4.54168 -28.0038,10.58722 -29.3448,10.58722 -0.8254,0 -2.5232,-1.10338 -3.7731,-2.45195 z m 117.7365,-42.63052 c -0.6223,-0.77964 -2.2739,-3.69417 -3.6702,-6.47672 -1.3963,-2.78256 -4.4161,-7.43434 -6.7108,-10.3373 -8.7328,-11.04789 -11.9876,-16.38324 -11.9876,-19.65077 0,-2.60031 1.5418,-4.96069 8.0567,-12.33422 4.9472,-5.59916 8.8068,-9.11852 10,-9.11852 3.3734,0 2.0503,3.44239 -5.6411,14.67681 -2.4286,3.54728 -4.4156,7.4575 -4.4156,8.68938 0,1.23187 2.5405,6.26593 5.6455,11.18679 7.2255,11.45114 10.5726,18.72357 10.1721,22.10213 -0.2586,2.18216 -0.5277,2.41665 -1.449,1.26242 z m -214.358,-41.4048 c -3.2289,-3.89063 2.7382,-7.2248 21.5665,-12.05044 16.5011,-4.22917 23.9353,-4.41543 40.7973,-1.02213 15.4654,3.11227 22.2177,3.3458 31.9986,1.10669 5.0661,-1.15977 9.9087,-1.61773 13.5831,-1.28455 5.7987,0.5258 17.0235,3.72606 17.0367,4.85725 0,0.34075 -5.9553,0.86564 -13.2428,1.16642 -7.8719,0.3249 -15.2425,1.18964 -18.1589,2.13045 -7.7036,2.48511 -18.0287,2.01716 -31.2528,-1.41642 -19.0893,-4.95645 -32.6401,-3.78111 -51.3746,4.456 -9.2011,4.04549 -9.2889,4.06197 -10.9531,2.05673 z m 66.5964,523.905479 c -0.3338,-0.86998 -0.607,-6.71998 -0.607,-13 0,-10.75154 -0.1167,-11.41821 -2,-11.41821 -1.8974,0 -2,0.66667 -2,13 l 0,13 2.607,0 c 1.9664,0 2.4579,-0.38868 2,-1.58179 z m 87.393,-11.41821 c 0,-9.2171 -0.1513,-10 -1.9326,-10 -1.0629,0 -2.1623,0.7875 -2.443,1.75 -1.2049,4.13101 -1.8004,11.49834 -1.1916,14.74333 0.5399,2.87785 1.098,3.50667 3.1125,3.50667 2.4426,0 2.4547,-0.0492 2.4547,-10 z m -524.3658,-11.9186 c 4.7334,-2.88627 7.4064,-7.1993 14.3048,-23.081399 10.9371,-25.18037 13.4487,-29.3651 24.907,-41.5 19.2083,-20.34255 29.392,-30.46777 36.46,-36.25068 l 7.0269,-5.74932 27.7018,-0.35213 27.7018,-0.35212 0.6317,-6.04457 c 0.3475,-3.32451 0.6412,-8.11605 0.6527,-10.64787 0.018,-4.00317 -4.0088,-39.0905 -4.5799,-39.90533 -0.2629,-0.37512 -27.9779,3.40041 -39.322,5.35671 -18.0877,3.11926 -25.9335,1.68323 -46.619,-8.5328 -13.3575,-6.59694 -24.29,-10.02189 -31.9899,-10.02189 -6.3204,0 -14.0845,5.37277 -17.5782,12.16414 -2.8812,5.60079 -3.9621,11.88609 -4.9561,28.82 -1.0295,17.53821 -2.4139,23.46556 -10.1391,43.40898 -2.7924,7.20879 -5.7738,17.01172 -6.6254,21.78431 -1.3843,7.75821 -1.3906,9.8239 -0.059,19.5 1.2632,9.17729 1.289,11.88673 0.1697,17.82257 -1.539,8.16148 -1.6757,14.39279 -0.3614,16.47104 0.5117,0.80907 1.1005,1.25907 1.3085,1 0.208,-0.25907 1.4166,-1.97356 2.6858,-3.80996 2.7572,-3.98946 9.6215,-9.16108 12.1596,-9.16108 2.1722,0 4.1191,3.22685 3.2746,5.42756 -0.3319,0.86484 -1.7099,1.57244 -3.0622,1.57244 -7.6546,0 -11.6691,9.45936 -7.8717,18.547909 2.2785,5.45313 8.4913,7.00145 14.1786,3.53349 z m -4.6342,-80.382759 c 0,-4.04439 2.7978,-13.40321 11.4692,-38.36535 8.3602,-24.06639 8.6862,-26.84503 4.6268,-39.43672 -4.2736,-13.25616 -4.0724,-16.69372 0.6809,-11.63411 3.5532,3.78227 6.0318,10.7917 7.0211,19.85574 1.4016,12.84252 -0.7728,22.95805 -8.0431,37.41722 -1.3729,2.73052 -3.6958,8.56458 -5.162,12.96458 -6.0109,18.03922 -7.8337,22.5 -9.1943,22.5 -0.9157,0 -1.3986,-1.13992 -1.3986,-3.30136 z m 41.7089,-56.32312 c -1.0348,-1.03475 -0.8565,-6.30364 0.3616,-10.69045 2.2326,-8.03987 7.3045,-9.58568 16.8589,-5.1382 6.7717,3.15217 20.0706,11.51935 20.0706,12.62767 0,0.454 -1.3589,0.82546 -3.0198,0.82546 -2.8281,0 -5.5718,-1.48848 -13.8781,-7.52898 -4.0638,-2.9553 -9.1072,-3.22784 -11.4675,-0.61969 -0.9215,1.01823 -2.2467,3.83073 -2.9448,6.25 -0.8935,3.09619 -1.862,4.48519 -3.2707,4.69085 -1.1008,0.1607 -2.3204,-0.0268 -2.7102,-0.41666 z m 293.6243,80.08368 c 48.3083,-1.90256 90.4958,-3.4592 93.75,-3.4592 5.1081,0 5.9168,-0.255 5.9168,-1.86561 0,-2.88849 -4.8588,-24.05503 -6.7746,-29.51215 l -1.7123,-4.87777 -12.5066,0.60499 c -6.8785,0.33274 -36.9364,1.14421 -66.7953,1.80326 -50.6413,1.11777 -54.4026,1.08445 -55.983,-0.49598 -1.3059,-1.30591 -1.4448,-2.0911 -0.6058,-3.4255 1.5368,-2.44418 7.5635,-2.79001 74.6276,-4.2823 31.7625,-0.70678 57.75,-1.45737 57.75,-1.66798 0,-0.21062 -1.7786,-4.56177 -3.9524,-9.66922 -10.5025,-24.67554 -11.4743,-31.49391 -8.0076,-56.18252 l 2.3104,-16.45437 -3.2978,-7.50419 c -3.2404,-7.37333 -3.2902,-7.70879 -2.8582,-19.23743 0.3461,-9.23478 0.9047,-12.77201 2.6232,-16.61157 l 2.1835,-4.87834 -1.9525,-6.32136 c -5.4021,-17.49018 -6.2234,-32.44287 -3.3577,-61.13365 0.9455,-9.46642 1.469,-17.46179 1.1633,-17.76749 -0.3057,-0.30569 -5.6855,-0.10178 -11.955,0.45314 -26.9907,2.38894 -31.9245,1.32598 -58.9904,-12.70916 l -16.5912,-8.60346 -3.6588,2.91933 c -4.4173,3.52459 -4.5516,5.77974 -0.6181,10.38156 2.2807,2.66826 2.9593,4.4455 2.9593,7.75 0,2.35827 0.4133,4.28777 0.9185,4.28777 1.9234,0 4.9278,6.74222 5.57,12.5 0.9689,8.68761 1.8749,11.22171 10.5463,29.5 9.554,20.13845 10.1134,22.48206 6.4152,26.87707 l -2.7085,3.21884 2.1465,8.20204 c 4.5975,17.56756 7.112,37.89661 7.112,57.49755 l 0,18.36479 9.75,-0.56318 c 5.3625,-0.30974 17.3521,-0.83867 26.6436,-1.17538 15.5877,-0.56489 16.8434,-0.48172 16.2457,1.07593 -0.3563,0.92848 -0.9024,2.70244 -1.2135,3.94214 -0.5462,2.17622 -1.0864,2.27653 -15.6548,2.9071 -8.2989,0.3592 -19.5174,0.6531 -24.93,0.6531 l -9.841,0 0,4.52852 c 0,7.27005 -9.5864,24.38914 -17.5953,31.42103 -6.7906,5.96219 -8.9068,6.39184 -27.9047,5.66527 l -17,-0.65016 -16.5,4.54253 c -9.075,2.49838 -19.3488,4.8248 -22.8307,5.16981 -9.2014,0.91173 -9.5546,1.50006 -8.5557,14.2517 1.2176,15.5432 0.9878,17.33759 -3.3883,26.45757 l -3.9672,8.26805 7.6209,-0.36796 c 4.1916,-0.20238 47.146,-1.9246 95.4542,-3.82716 z m 308.1668,-12.47599 c 134.456,-5.30235 134.3031,-5.29107 139.7141,-10.30585 3.4123,-3.16239 5.2661,-13.2693 4.4296,-24.15086 -1.0963,-14.26263 -0.2674,-12.89658 -20.0218,-32.9992 -16.8776,-17.17507 -18.4948,-18.54727 -23.5534,-19.98431 -5.7524,-1.63415 -26.2743,-2.11794 -37.9729,-0.89519 l -6.1979,0.6478 5.8418,3.29213 c 3.213,1.81067 6.6491,4.18424 7.6359,5.27459 2.3571,2.60461 3.2039,9.32487 1.6482,13.08069 -3.0809,7.43799 -18.4343,9.8214 -39.6347,6.15276 -14.9062,-2.57946 -17.3889,-2.64005 -17.3889,-0.42435 0,2.61343 -8.1316,9.75184 -12.6512,11.10593 -5.6031,1.67874 -25.343,1.50687 -33.8484,-0.29471 -8.4024,-1.77977 -12.3066,-1.84391 -21.2318,-0.34881 -12.2805,2.05716 -19.6275,-2.05057 -27.3657,-15.30015 -2.1979,-3.7633 -7.6877,-10.6561 -12.1995,-15.31732 l -8.2034,-8.47496 -20.3796,0.94222 c -11.2087,0.51822 -20.4909,1.07141 -20.6269,1.2293 -0.1361,0.15789 -1.2114,10.63708 -2.3895,23.28708 -1.1782,12.65 -2.4044,23.98706 -2.7249,25.19346 -0.5818,2.18987 -0.5626,2.19265 11.7691,1.69934 6.7935,-0.27176 66.5248,-1.82621 132.7363,-3.45433 89.911,-2.21088 120.7301,-2.67333 121.7499,-1.8269 2.0918,1.73601 1.6253,4.82469 -0.8844,5.8552 -1.2375,0.50814 -61.65,2.358 -134.25,4.11078 -92.949,2.24408 -132.2173,3.51758 -132.7347,4.30467 -0.9202,1.40005 -0.9683,12.44965 -0.1071,24.58256 l 0.6581,9.27203 10.5919,-0.62264 c 5.8255,-0.34245 67.7418,-2.87639 137.5918,-5.63096 z m -380,-43.69012 c 6.05,-1.38059 14.6,-3.38268 19,-4.44908 6.3897,-1.54864 11.5138,-1.93207 25.4564,-1.90486 l 17.4564,0.0341 5.1553,-5.32264 c 9.8604,-10.18025 14.5543,-21.57826 11.9931,-29.12215 -1.0514,-3.09676 -1.2486,-8.35821 -0.8445,-22.53425 0.4525,-15.87514 0.231,-20.19355 -1.564,-30.49418 -1.1501,-6.6 -3.2467,-15.7116 -4.6591,-20.24799 l -2.568,-8.24799 -4.9034,2.48473 c -16.0997,8.15833 -29.3915,11.83437 -42.2114,11.67413 -8.8952,-0.11117 -9.7417,0.0443 -10.3296,1.8965 -0.3522,1.10968 -2.4046,3.18508 -4.5608,4.612 l -3.9204,2.59439 -0.01,13.11712 c 0,7.21441 -0.4315,15.71653 -0.9519,18.8936 -0.8795,5.3699 -0.7651,6.03858 1.6241,9.5 5.2496,7.60543 11.4283,21.57196 11.1245,25.14621 -0.16,1.88249 -0.8173,3.59547 -1.4608,3.80664 -0.6434,0.21116 -3.0242,-3.18027 -5.2906,-7.53651 -2.2663,-4.35625 -5.1804,-8.91607 -6.4757,-10.13294 l -2.3551,-2.21249 -0.7269,5.3263 c -0.9178,6.72504 -5.2738,19.18442 -11.6513,33.3263 -2.7284,6.05 -5.1961,11.54066 -5.4839,12.20147 -0.6579,1.51056 3.2545,0.9915 18.1534,-2.40838 z m 46.729,-7.96238 c -2.1346,-0.85884 -3.9627,-5.52331 -4.6367,-11.83071 -0.7632,-7.14102 0.5232,-10.20983 2.9472,-7.0309 0.8258,1.08301 1.9435,3.78301 2.4838,6 0.5404,2.217 1.6562,5.30487 2.4796,6.86194 1.9171,3.62517 1.8937,5.30282 -0.085,6.06197 -0.87,0.33385 -1.6575,0.57146 -1.75,0.52804 -0.092,-0.0434 -0.7402,-0.30907 -1.4393,-0.59034 z m -16.5623,-33.99738 c -1.3114,-1.31137 -0.6146,-4.43564 2.8625,-12.83545 2.8267,-6.8286 5.1634,-17.0292 5.4399,-23.74788 0.085,-2.05828 2.011,-0.34045 3.0089,2.6834 3.6768,11.14061 -2.0112,34.5666 -8.3929,34.5666 -1.2384,0 -2.5517,-0.3 -2.9184,-0.66667 z m 351.2477,29.08424 c 5.1106,-2.04486 8.2741,-5.8184 7.4916,-8.93628 -0.5041,-2.00827 -0.1124,-2.3551 3.3137,-2.93392 2.3328,-0.39413 6.8611,-0.009 11.3328,0.9643 16.0685,3.49681 20.7302,3.92723 29.186,2.69478 9.1642,-1.33569 12.7615,-3.18898 12.7615,-6.57452 0,-3.44365 -2.653,-5.1656 -11,-7.13969 -8.8872,-2.10185 -14.2829,-4.63044 -16.4339,-7.70136 -3.1192,-4.45324 -1.0288,-5.19944 3.6163,-1.29088 1.6341,1.375 3.724,2.4811 4.6444,2.45801 2.4383,-0.0612 -11.8902,-13.32623 -17.1395,-15.86737 -7.5425,-3.65126 -18.2304,-2.96662 -36.9926,2.36967 -18.0125,5.12303 -29.8095,7.53969 -36.8051,7.53969 -4.1308,0 -4.8896,-0.29377 -4.8896,-1.89301 0,-1.04116 0.6961,-2.16011 1.5468,-2.48656 1.2274,-0.47101 0.8098,-1.33056 -2.0231,-4.16337 -5.304,-5.3041 -7.8629,-9.91119 -11.3724,-20.47583 -1.9128,-5.75796 -4.9776,-12.22502 -7.7572,-16.36842 -7.4998,-11.17955 -7.6999,-11.96456 -8.4424,-33.11281 -0.7427,-21.15512 -1.6398,-24.90682 -7.9528,-33.25968 -3.6493,-4.82826 -16.2493,-15.24032 -18.443,-15.24032 -1.4536,0 -3.5559,4.21873 -3.5559,7.1357 0,1.12288 2.0398,4.3642 4.5329,7.20295 4.3793,4.9864 6.3821,9.07976 5.0797,10.38215 -0.3452,0.34521 -2.9868,-1.8794 -5.8701,-4.94357 -5.0882,-5.40731 -5.4631,-5.60499 -12.7425,-6.71912 -10.696,-1.63708 -12,-1.97414 -12,-3.10191 0,-1.59278 5.0804,-3.10333 9.3907,-2.79212 l 3.9432,0.28471 4.3878,-9.71916 c 5.626,-12.46184 6.7574,-19.28291 5.2964,-31.93049 -1.0303,-8.91858 -4.7005,-26.13773 -6.7284,-31.56712 -0.7812,-2.0916 -1.2726,-1.68154 -6.3184,5.2726 -9.4856,13.0732 -10.1711,16.41344 -10.979,53.49538 -0.7162,32.87468 -1.0328,35.41768 -5.9686,47.93995 -1.1595,2.94159 -3.7766,7.78491 -5.8159,10.76294 -8.92,13.02622 -9.0142,12.35124 3.2292,23.14747 11.3235,9.98502 17.2483,16.44547 28.5669,31.14964 13.633,17.71084 17.2543,20.68432 13.3709,10.97875 -0.8938,-2.23395 -1.2989,-4.38056 -0.9001,-4.77024 1.5209,-1.48609 7.239,7.04801 12.5253,18.69358 7.488,16.49575 13.26,24.9726 18.9619,27.84791 3.8379,1.93532 6.0756,2.25593 16,2.29237 6.346,0.0233 15.3631,0.68417 20.0381,1.46858 10.3397,1.73488 25.1555,1.21088 30.9144,-1.09338 z m -9.4144,-13.58455 c -3.562,-1.97006 -6.5,-5.13739 -6.5,-7.00733 0,-2.58832 2.2366,-2.27362 8.346,1.17431 2.9237,1.65 6.2919,3 7.4849,3 2.4229,0 2.769,1.00011 0.9691,2.8 -1.4933,1.49332 -7.6241,1.51297 -10.3,0.033 z m 14.8359,-20.40024 c -1.1142,-2.90346 1.395,-3.64681 12.7946,-3.79032 10.1871,-0.12826 11.3515,0.0381 11.6776,1.66882 0.3096,1.54862 -0.1215,1.72316 -2.9729,1.20362 -1.9228,-0.35032 -5.4526,0.0426 -8.3352,0.92789 -6.6203,2.03317 -12.3818,2.02879 -13.1641,-0.01 z m -114.6176,-5.8586 c 0.3811,-0.30974 -10.822,-15.80366 -16.5987,-22.95628 -5.0798,-6.28966 -16.9976,-17.07325 -17.8865,-16.18432 -0.2046,0.20459 0.1671,3.11196 0.8259,6.46081 0.7453,3.78796 1.028,11.41303 0.7483,20.17834 l -0.4497,14.08952 16.5712,-0.7053 c 9.1142,-0.38792 16.6695,-0.78516 16.7895,-0.88277 z m -299.8741,-45.58989 c 9.5951,-2.29869 27.6455,-9.18457 30.7903,-11.74585 2.0732,-1.68851 2.1048,-2.07392 1.0989,-13.41952 -1.2143,-13.69694 -0.1916,-18.8443 6.4709,-32.56796 5.3347,-10.98851 10.9894,-15.65732 14.5957,-12.05096 2.0744,2.0744 1.3684,4.12207 -4.9465,14.34739 -8.8356,14.30668 -9.806,16.78716 -9.8315,25.13118 -0.027,8.704 0.9227,9.92073 8.4774,10.86462 10.1676,1.27035 24.5486,-1.83555 35.5006,-7.66716 7.9178,-4.21598 18.5686,-13.14868 18.1939,-15.25901 -0.1683,-0.94816 -3.5193,-8.78738 -7.4466,-17.42048 -6.883,-15.13054 -7.1622,-16.04626 -7.7424,-25.39513 -0.4586,-7.39033 -1.0368,-10.17917 -2.4292,-11.71782 -2.6638,-2.94342 -5.5757,-1.14082 -5.5757,3.45159 0,2.77138 -0.3912,3.46482 -1.9547,3.46482 -1.4471,0 -2.1274,-0.92104 -2.6201,-3.54719 -0.5488,-2.92525 -0.113,-4.43585 2.4853,-8.61575 3.3967,-5.46412 3.3506,-6.84827 -0.3683,-11.06326 -2.2809,-2.58525 -2.551,-2.6502 -5.2237,-1.25616 -1.6431,0.85697 -5.5669,1.47261 -9.4088,1.4762 -10.1605,0.01 -16.8787,-3.77946 -29.974,-16.90508 -15.4394,-15.47511 -28.0247,-35.08876 -22.515,-35.08876 0.7814,0 5.3481,5.2875 10.1483,11.75 23.0304,31.00574 44.3615,42.82494 52.8945,29.30788 1.3393,-2.12156 3.0204,-4.09197 3.7358,-4.37869 0.7154,-0.28671 -2.0447,-0.55682 -6.1336,-0.60024 -5.3242,-0.0565 -8.636,-0.66071 -11.6685,-2.1287 -6.8211,-3.30208 -15.663,-14.21139 -24.6443,-30.40672 -2.7583,-4.97394 -6.2489,-10.84353 -7.7568,-13.04353 -4.4088,-6.43235 -13.7957,-22.15973 -16.9018,-28.31817 -8.6143,-17.07952 -11.6891,-34.61334 -7.0943,-40.4547 1.1,-1.39842 2,-2.81515 2,-3.14828 0,-1.25368 -7.3288,2.52875 -14.4848,7.47569 -6.8755,4.75305 -7.4678,5.44646 -8.0674,9.44531 -0.8142,5.42927 -0.1361,8.90915 3.7593,19.2912 2.2481,5.9918 2.8081,8.59381 2.0191,9.38278 -1.8166,1.81658 -4.2216,0.0908 -6.2436,-4.48021 -2.21,-4.99614 -5.1923,-21.98352 -4.2778,-24.3667 0.5295,-1.37973 0.062,-1.50571 -3.2695,-0.88075 -17.9407,3.36569 -41.2484,16.76488 -50.5065,29.03524 -7.3069,9.68438 -14.7584,27.83595 -20.7387,50.51859 -3.4181,12.96492 -3.5605,14.19363 -3.5928,31 -0.03,15.73839 0.235,18.55696 2.6353,28 1.4679,5.775 4.2661,14.30802 6.2182,18.96227 3.2846,7.83127 4.5388,14.03773 2.8368,14.03773 -0.3918,0 -1.7718,-1.2375 -3.0666,-2.75 l -2.3542,-2.75 0.6973,4.5 c 0.3836,2.475 0.976,13.24281 1.3166,23.92847 l 0.6193,19.42848 7,3.78657 c 12.8931,6.97434 33.6503,12.78493 54.5,15.25625 7.0294,0.83319 24.7122,-0.46727 32.8442,-2.41548 z m -53.2394,-33.81472 c -0.2823,-0.45674 0.1316,-3.26924 0.9197,-6.25 4.3065,-16.28781 4.0111,-29.21106 -1.1155,-48.79396 -4.9039,-18.73283 -4.0588,-45.55974 1.8164,-57.65257 2.1625,-4.45111 2.1988,-4.47304 7.4088,-4.47304 2.8796,0 6.288,-0.40013 7.5743,-0.88918 4.0853,-1.5532 11.6211,-10.2618 18.5646,-21.45365 8.1279,-13.10107 13.7176,-19.56654 15.4329,-17.85119 1.3117,1.3117 0.7082,2.5749 -9.5935,20.0816 -11.1705,18.98309 -20.689,28.11242 -29.3109,28.11242 -2.8331,0 -3.4905,0.50577 -4.8745,3.75 -0.8798,2.0625 -2.3019,7.125 -3.1601,11.25 -1.914,9.19913 -1.0924,16.69752 4.2943,39.18817 3.3881,14.14665 3.6246,16.11085 3.1068,25.81183 -0.8218,15.39491 -5.0869,30 -8.7609,30 -0.984,0 -2.0201,-0.37369 -2.3024,-0.83043 z m 69.3952,-48.75283 c -12.08,-2.12632 -15.152,-2.91382 -19.6523,-5.03781 -5.9842,-2.82438 -8.5924,-6.21609 -8.1569,-10.60715 0.432,-4.35535 2.1951,-4.4779 4.6465,-0.32297 1.1465,1.94319 3.5476,4.42278 5.3357,5.51021 8.2395,5.01071 31.4794,6.77374 41.9205,3.18019 4.7928,-1.64957 17.4427,-7.70822 20.5652,-9.84973 0.6373,-0.43707 -7.6877,-0.7935 -18.5,-0.79207 -21.9984,0.003 -27.5151,-0.98804 -26.9656,-4.84375 0.264,-1.85219 0.7969,-2.08367 3.8069,-1.65366 5.3207,0.76009 26.0495,0.53779 39.5107,-0.42372 10.3889,-0.74206 12.1865,-0.64604 13.3128,0.71108 3.8128,4.59412 -8.9313,15.68272 -24.7039,21.49482 -5.1898,1.9124 -8.9955,2.50788 -17.6196,2.75693 -6.05,0.17472 -12.125,0.11966 -13.5,-0.12237 z"
       id="path3177"
       inkscape:connector-curvature="0" />
  </g>
</svg>
