<?xml version="1.0" encoding="UTF-8" standalone="no"?>
<!-- Created with Inkscape (http://www.inkscape.org/) -->

<svg
   xmlns:dc="http://purl.org/dc/elements/1.1/"
   xmlns:cc="http://creativecommons.org/ns#"
   xmlns:rdf="http://www.w3.org/1999/02/22-rdf-syntax-ns#"
   xmlns:svg="http://www.w3.org/2000/svg"
   xmlns="http://www.w3.org/2000/svg"
   xmlns:xlink="http://www.w3.org/1999/xlink"
   xmlns:sodipodi="http://sodipodi.sourceforge.net/DTD/sodipodi-0.dtd"
   xmlns:inkscape="http://www.inkscape.org/namespaces/inkscape"
   width="824.38434"
   height="898.66858"
   id="svg2"
   version="1.1"
   inkscape:version="0.48.3.1 r9886"
   sodipodi:docname="Rear-deltoid-row-1.svg">
  <defs
     id="defs4">
    <radialGradient
       gradientUnits="userSpaceOnUse"
       gradientTransform="matrix(1,0,0,0.91819829,-19.285714,-7.9105395)"
       r="209.56604"
       fy="287.50052"
       fx="398.1105"
       cy="287.50052"
       cx="398.1105"
       id="radialGradient5255"
       xlink:href="#linearGradient5249"
       inkscape:collect="always" />
    <linearGradient
       id="linearGradient5249"
       inkscape:collect="always">
      <stop
         id="stop5251"
         offset="0"
         style="stop-color:#e3e3e3;stop-opacity:1;" />
      <stop
         id="stop5253"
         offset="1"
         style="stop-color:#e3e3e3;stop-opacity:0;" />
    </linearGradient>
  </defs>
  <sodipodi:namedview
     id="base"
     pagecolor="#ffffff"
     bordercolor="#666666"
     borderopacity="1.0"
     inkscape:pageopacity="0.0"
     inkscape:pageshadow="2"
     inkscape:zoom="0.35"
     inkscape:cx="-514.56275"
     inkscape:cy="96.465911"
     inkscape:document-units="px"
     inkscape:current-layer="layer1"
     showgrid="false"
     showguides="true"
     inkscape:guide-bbox="true"
     fit-margin-top="0"
     fit-margin-left="0"
     fit-margin-right="0"
     fit-margin-bottom="0"
     inkscape:window-width="1201"
     inkscape:window-height="886"
     inkscape:window-x="83"
     inkscape:window-y="39"
     inkscape:window-maximized="0">
    <sodipodi:guide
       orientation="-0.70710678,0.70710678"
       position="-2735.0374,171.54905"
       id="guide2985" />
  </sodipodi:namedview>
  <metadata
     id="metadata7">
    <rdf:RDF>
      <cc:Work
         rdf:about="">
        <dc:format>image/svg+xml</dc:format>
        <dc:type
           rdf:resource="http://purl.org/dc/dcmitype/StillImage" />
        <dc:title></dc:title>
      </cc:Work>
    </rdf:RDF>
  </metadata>
  <g
     inkscape:label="Ebene 1"
     inkscape:groupmode="layer"
     id="layer1"
     transform="translate(-1306.4659,700.47161)">
    <path
       style="fill:#000000"
       d="m 1561.984,197.20182 c -10.9048,-0.8936 -17.2743,-2.1401 -32.5,-6.3605 -11.5412,-3.1991 -20.6549,-3.2284 -41.8129,-0.1345 -18.5898,2.7184 -29.7328,3.2364 -35.6051,1.6551 -5.0449,-1.3584 -10.3101,-5.8487 -13.7592,-11.7342 -2.5429,-4.3391 -2.5879,-4.7308 -2.025,-17.6128 0.4352,-9.9596 1.4426,-16.9579 4.1277,-28.6751 3.8635,-16.8588 7.7408,-37.320535 9.759,-51.499965 0.7921,-5.56536 1.2875,-19.68556 1.2982,-37 0.018,-29.69633 -1.0364,-38.7231898 -5.5671,-47.6477398 -1.0186,-2.00626 -2.8219,-6.9562602 -4.0074,-11.0000002 -3.0729,-10.48189 -3.8019,-41.38304 -1.4592,-61.85226 2.8109,-24.559355 3.7593,-27.928565 11.8234,-41.999995 15.2268,-26.56997 21.7226,-41.49764 21.7334,-49.94417 0,-4.24591 0.9401,-11.11238 2.5599,-18.80583 l 0.6843,-3.25 -21.9435,0 c -31.3817,0 -31.3598,-0.008 -49.8997,19.00352 -5.9076,6.05801 -13.8346,13.59135 -17.6154,16.74075 -10.8604,9.0466 -19.4655,23.61656 -32.327,54.73547 -3.0562,7.394635 -8.0008,13.712025 -12.5896,16.084995 -3.1978,1.65365 -11.5363,1.89466 -15.3525,0.44374 -4.5093,-1.71442 -9.3683,-6.26864 -14.2781,-13.38228 l -4.7442,-6.873785 0.037,-10.12621 c 0.02,-5.56941 0.1811,-12.1512 0.3572,-14.6262 0.1762,-2.475 -0.012,-9.6983 -0.4176,-16.05177 -0.9171,-14.35583 0.9003,-24.62486 6.5391,-36.94823 8.3718,-18.296 12.4905,-34.63469 13.4865,-53.5 1.101,-20.85618 3.1772,-27.5018 10.5686,-33.82854 6.1157,-5.23481 9.8517,-6.67146 17.3492,-6.67146 7.7859,0 14.7865,2.27748 31.5801,10.27385 17.3201,8.24709 20.867,9.24284 32.5,9.12393 7.8582,-0.0803 14.7057,-1.10941 31.9715,-4.80485 12.0843,-2.58644 22.0967,-4.82786 22.2498,-4.98093 0.1531,-0.15308 0.574,-9.77184 0.9353,-21.37504 l 0.657,-21.09673 -4.7172,-2.82011 -4.7172,-2.82012 0.6739,-17.5 c 0.8772,-22.78033 -2.0166,-51.00996 -6.817,-66.5 -2.9086,-9.38581 -3.0976,-10.952 -3.0764,-25.5 0.02,-13.57652 0.4253,-17.42348 3.2673,-31 4.1609,-19.87675 7.3339,-27.94612 17.1827,-43.69782 8.3122,-13.29418 13.2413,-19.1361 20.8903,-24.75885 6.9818,-5.13236 32.3767,-17.93258 43.7532,-22.05365 5.6392,-2.0428 12.2835,-5.26447 14.7651,-7.15926 8.148,-6.22146 14.7343,-7.8025 20.3678,-4.88928 3.3672,1.74121 5.3617,0.90009 14.6882,-6.19431 l 6.0743,-4.62056 -0.074,-16.06313 c -0.071,-15.27746 0.089,-16.64516 3.2607,-27.96251 3.1334,-11.17961 3.2651,-12.27018 2.1784,-18.02957 -0.6362,-3.3716 -1.215,-8.62089 -1.2863,-11.66508 -0.1207,-5.1555 0.1959,-5.95781 4.6184,-11.70515 2.6113,-3.39366 6.229,-7.29998 8.0392,-8.68073 3.5044,-2.67292 10.9407,-4.50141 18.5018,-4.54937 8.6509,-0.0549 31.7678,-4.58112 36.8226,-7.20979 5.546,-2.8841 13.6992,-5.0354 27.7909,-7.33288 11.2422,-1.8329 24.0878,-1.42776 34,1.07233 3.3,0.83235 14.55,3.50388 25,5.93674 l 19,4.42339 4,-1.91807 c 2.2,-1.05494 5.6195,-2.83241 7.599,-3.94992 8.1275,-4.58854 26.2872,-3.37767 37.9458,2.53018 9.6241,4.8769 19.4347,15.6595 22.9899,25.26782 2.0748,5.60725 2.2474,5.77129 9.6419,9.16284 l 7.5293,3.45338 4.647,-2.63259 4.6471,-2.63259 0.6382,-9.32079 c 0.3509,-5.12643 1.4412,-11.34579 2.4227,-13.82079 4.7897,-12.07763 14.2092,-22.06935 27.0931,-28.73881 10.7974,-5.58939 19.5771,-8.07646 33.2257,-9.41206 9.9163,-0.97037 12.7912,-0.90019 19.5451,0.47714 21.1838,4.31998 47.4341,23.45864 56.9106,41.49258 4.6707,8.88839 6.7263,22.83917 4.7044,31.92777 -5.3312,23.96418 -27.839,74.10374 -40.2905,89.75339 -11.2164,14.0973 -22.274,19.57283 -35.3182,17.489 -10.2658,-1.63997 -17.3521,-5.80206 -27.3358,-16.05539 -8.4138,-8.64115 -8.8464,-8.93361 -13.2133,-8.93361 -7.3453,0 -15.7992,1.95816 -23.0324,5.33495 -8.0031,3.73621 -8.2988,4.76676 -4.2304,14.74264 3.6674,8.99266 5.094,14.23316 6.3079,23.17102 1.4085,10.37075 0.2851,15.24785 -7.1549,31.06306 l -6.027,12.81168 2.0873,7.18832 c 5.3019,18.25879 10.1655,39.70775 10.143,44.73152 -0.022,4.83269 -1,10.9891 -2.571,16.17832 -0.3613,1.19316 2.4113,4.81968 9.0336,11.816 15.9571,16.85822 18.4849,23.22186 19.4496,48.96249 0.6605,17.62472 0.5306,17.12505 7.3363,28.21892 1.9295,3.1454 4.9852,9.8954 6.7902,15 4.7385,13.40012 8.6293,20.34593 13.3361,23.80731 5.9205,4.35399 11.3415,3.85584 33.7293,-3.09951 22.4403,-6.97166 41.1145,-4.93365 52.0149,5.67664 l 3.5944,3.49883 26.9055,-0.30109 c 35.6443,-0.39889 32.0898,-1.84616 56.7259,23.0965 10.2533,10.38091 19.0961,20.06752 19.6505,21.5258 0.5544,1.45828 1.5416,7.76945 2.1936,14.02481 1.0517,10.08986 0.9813,12.34689 -0.6247,19.9997 -0.9957,4.74448 -2.6666,9.71484 -3.7131,11.04525 -1.0465,1.33042 -4.762,3.82656 -8.2567,5.54699 l -6.354,3.12805 -36.358,1.51956 c -19.9969,0.83575 -36.4955,1.64797 -36.6636,1.80492 -0.1682,0.15695 0.2554,36.91144 0.9413,81.676625 0.6858,44.7652 0.95,82.16514 0.587,83.11098 -0.7928,2.06616 -4.0294,2.25991 -5.6255,0.33675 -0.8163,-0.98352 -1.5629,-25.02829 -2.585,-83.25 -0.7906,-45.026865 -1.4541,-81.867035 -1.4746,-81.867035 -4.1899,0 -19.5252,0.67732 -24.7816,1.09454 l -7.2441,0.57499 -0.2559,80.665235 -0.2559,80.66523 -3,0 -3,0 -0.6508,-8.4999998 c -0.3579,-4.675 -0.6954,-41.0770702 -0.75,-80.8934802 l -0.099,-72.393475 -8.75,0.59252 c -4.8125,0.32588 -95.537,4.09794 -201.61,8.38236 l -192.86,7.78984 0.86,59.011115 c 0.473,32.45612 0.86,70.03612 0.86,83.5111202 l 0,24.4999998 -2.9958,0 c -2.887,0 -3.019,-0.19972 -3.6359,-5.5 -0.352,-3.025 -0.9182,-27.7749998 -1.258,-55 -0.3399,-27.225 -0.9111,-62.25467 -1.2694,-77.843695 l -0.6514,-28.3437 -8.9573,0.3437 -8.9574,0.3437 -4.3874,4.84675 -4.3874,4.84674 0.045,23.15326 c 0.024,12.734285 0.4324,46.778245 0.9064,75.653245 0.5868,35.74623 0.5335,52.8989 -0.167,53.75 -1.4242,1.73035 -5.4475,1.56929 -6.1441,-0.24597 -0.3157,-0.82278 -0.887,-27.6361298 -1.2695,-59.58523 -0.3825,-31.94911 -1.0214,-57.48842 -1.4198,-56.75404 -0.3984,0.73438 -1.2747,6.96024 -1.9473,13.83524 -1.6049,16.40368 -2.9598,24.29468 -8.4993,49.5 -13.7633,62.62463 -14.5716,68.94149 -12.2395,95.65358 1.3893,15.91173 1.8443,18.28837 4.6117,24.08707 2.5162,5.272025 4.1814,7.230165 9.2239,10.846415 3.3843,2.42712 9.8088,7.23495 14.2766,10.68407 4.6841,3.61605 13.7859,9.06459 21.498,12.86909 11.6567,5.75044 15.8957,7.22484 33,11.47844 10.7939,2.6842 21.2907,4.8806 23.3261,4.8809 6.5778,8e-4 13.5471,2.0211 16.2311,4.7051 2.2276,2.2276 2.5681,3.4249 2.5681,9.0306 0,7.5812 -1.8027,12.0063 -6.611,16.2281 -1.8639,1.6365 -3.389,3.6866 -3.389,4.5557 0,5.4009 -6.7861,10.5791 -18.9613,14.4686 -12.1247,3.8734 -30.8878,4.8532 -55.0387,2.8743 z m 42.0262,-7.8959 c 9.0364,-1.1026 17.0052,-3.3188 20.801,-5.7851 2.0187,-1.3117 2.2838,-2.1822 2,-6.5686 l -0.3272,-5.0565 3.8274,-0.6331 c 4.9797,-0.8237 7.6918,-3.6473 8.3716,-8.7156 1.1899,-8.8713 -0.8486,-10.619 -13.699,-11.7445 -9.8473,-0.8625 -43.5835,-9.3988 -53.5619,-13.5528 -4.3205,-1.7987 -13.0491,-6.71874 -19.3968,-10.93353 -6.3477,-4.2148 -14.0861,-9.28492 -17.1963,-11.26693 -7.9921,-5.093 -12.6567,-9.41993 -14.9041,-13.8253 -4.7788,-9.367135 -7.837,-61.632065 -4.8895,-83.561745 0.5782,-4.3023 3.4889,-16.3723598 6.4682,-26.82236 9.6715,-33.92353 10.4535,-37.96556 11.6074,-60 1.1161,-21.31209 4.8761,-50.178355 7.2878,-55.950405 0.9743,-2.33184 3.2551,-4.64267 6.8556,-6.94585 6.0981,-3.90093 11.33,-11.16374 17.3635,-24.10374 3.9242,-8.41635 4.1803,-10.46296 3.3155,-26.5 -0.3841,-7.12278 -0.4266,-7.00388 14.3118,-40 6.0938,-13.64273 6.6606,-15.56419 9.5863,-32.5 3.6404,-21.07251 4.7659,-42.98304 2.1525,-41.90126 -20.1445,8.33841 -39.156,11.43983 -58.3091,9.51219 -14.1646,-1.42558 -31.7802,-5.35107 -42.4062,-9.44987 l -8.7847,-3.38853 -0.7568,7.61374 c -1.6103,16.20156 -1.151,39.99086 1.093,56.61373 2.8366,21.01222 2.7705,30.5847 -0.312,45.23408 -1.3618,6.47126 -2.9377,17.61592 -3.502,24.76592 -0.5644,7.15 -1.4241,14.67042 -1.9103,16.71205 -0.4863,2.04163 -5.3941,11.94163 -10.9062,22 -10.0184,18.28123 -17.7508,34.976135 -18.7145,40.406325 -1.2717,7.16546 -3.4912,36.42311 -3.4912,46.02068 0,7.4134 0.7683,14.40396 2.5502,23.2045 2.902,14.3327702 4.8756,19.3896402 10.4471,26.76906 3.4139,4.52176 3.7316,5.36752 2.4234,6.45319 -1.1403,0.94636 -1.7863,0.96863 -2.6631,0.0918 -2.0785,-2.07853 -2.5131,-1.23118 -1.6736,3.26281 2.1567,11.54392 2.9602,29.85138 1.9438,44.28771 -1.1633,16.52433 -6.6615,51.127665 -11.1607,70.241635 -8.4954,36.091 -3.0462,51.5361 18.1329,51.3954 4.125,-0.027 10.0875,-0.7667 13.2501,-1.6428 18.3944,-5.0958 38.3599,-4.8378 60.6071,0.7832 7.8965,1.9952 18.2465,4.2335 23,4.9741 10.6198,1.6546 29.8227,1.8908 41.169,0.5064 z m 8.672,-19.181 c -2.6908,-0.7136 -3.7113,-1.4871 -3.4918,-2.6467 0.7218,-3.815 11.7936,-1.5763 11.7936,2.3847 0,1.6876 -2.6151,1.7701 -8.3018,0.262 z m -139.2768,-25.6585 c -5.9394,-2.7309 -8.4214,-6.3593 -8.4214,-12.31108 0,-5.85053 1.5418,-9.10682 7.4747,-15.78696 2.4861,-2.79924 4.9677,-6.86793 5.6484,-9.26069 1.8473,-6.49398 2.8794,-6.75361 2.8535,-0.71783 -0.018,4.20713 -0.695,6.59025 -2.9687,10.45 -1.6199,2.75 -4.137,7.40546 -5.5936,10.34547 -3.3457,6.75299 -2.5529,8.88169 4.7691,12.80539 2.9241,1.567 5.3166,3.5241 5.3166,4.3491 0,2.2188 -4.3948,2.2801 -9.0786,0.1266 z M 1474.984,8.185785 c 0,-0.6347398 1.7923,-2.6882398 3.9829,-4.5633198 5.9454,-5.089 11.3618,-17.0447602 14.6252,-32.2826102 3.0298,-14.14667 3.6582,-15.46305 6.624,-13.8758 1.7246,0.92301 1.9411,1.76565 1.4715,5.72899 -1.486,12.54175 -12.2311,38.8885202 -17.756,43.5374102 -3.1657,2.6638098 -8.9476,3.6042298 -8.9476,1.4553298 z m 49.6421,-138.095925 c -1.3529,-1.7875 -4.3008,-6.75888 -6.5509,-11.04751 -4.5875,-8.74351 -5.3085,-13.98062 -2.1569,-15.66731 3.3013,-1.76681 3.7863,-1.22122 4.4967,5.05808 0.8912,7.87698 1.8561,10.27794 6.7204,16.72225 3.9076,5.17673 4.4334,8.18449 1.4309,8.18449 -0.8143,0 -2.5874,-1.4625 -3.9402,-3.25 z m -1.1421,-51.75 c -0.9822,-1.58917 0.2957,-2.8628 5.5375,-5.51902 7.2984,-3.69835 9.4725,-3.17095 6.882,1.66942 -1.8569,3.46958 -10.9185,6.27835 -12.4195,3.8496 z m 12.1384,-18.5 c -1.1457,-2.98558 0.4387,-4.49969 4.7186,-4.50938 5.5536,-0.0126 13.1362,-4.45711 20.5227,-12.02927 3.1983,-3.27874 6.3338,-5.96135 6.9677,-5.96135 0.6625,0 1.1526,1.57367 1.1526,3.70094 0,3.20976 -0.799,4.47791 -6.0201,9.55532 -7.3558,7.15326 -14.5418,10.72052 -21.6229,10.73397 -3.6558,0.007 -5.3095,-0.424 -5.7186,-1.49023 z m -20.1404,-10.75 c 3.7052,-15.54944 4.6312,-21.96587 5.1781,-35.87975 0.516,-13.13007 0.3231,-16.86608 -1.2063,-23.36026 -1.908,-8.10214 -1.476,-10.67145 1.9062,-11.33695 2.3186,-0.45621 4.4699,5.15068 5.6804,14.80472 1.7029,13.58042 -2.5713,49.58059 -6.6202,55.75994 -2.0252,3.09078 -5.6739,3.09987 -4.9382,0.0123 z m -175.8638,121.331395 c 4.4886,-2.73702 7.5829,-7.317915 11.8761,-17.581395 2.0705,-4.95 6.6334,-14.98202 10.1396,-22.29339 5.9642,-12.43679 7.0583,-14.01551 16.9789,-24.5 19.7307,-20.85229 29.6254,-30.68768 36.6772,-36.45729 l 7.0269,-5.74932 27.7018,-0.35213 27.7017,-0.35212 0.6318,-6.04457 c 0.3475,-3.32451 0.6412,-8.11605 0.6526,-10.64787 0.018,-4.00317 -4.0087,-39.0905 -4.5798,-39.90533 -0.2629,-0.37512 -27.978,3.40041 -39.322,5.35671 -18.0877,3.11926 -25.9335,1.68323 -46.619,-8.5328 -13.3576,-6.59694 -24.29,-10.02189 -31.99,-10.02189 -6.3204,0 -14.0844,5.37277 -17.5781,12.16414 -2.8812,5.60079 -3.9621,11.88609 -4.9561,28.82 -1.0295,17.53821 -2.414,23.46556 -10.1392,43.40898 -2.7923,7.20879 -5.7723,17.00341 -6.6221,21.76583 -1.3847,7.76019 -1.3886,9.78125 -0.038,19.47145 1.2881,9.24208 1.3122,11.83332 0.1665,17.84105 -1.5577,8.16743 -1.7022,14.41188 -0.3819,16.49959 0.5117,0.80907 1.1005,1.25907 1.3085,1 0.208,-0.25907 1.4166,-1.97356 2.6858,-3.80996 2.7572,-3.98946 9.6215,-9.16108 12.1596,-9.16108 2.1722,0 4.1191,3.22685 3.2746,5.42756 -0.3319,0.86484 -1.7099,1.57244 -3.0622,1.57244 -7.6546,0 -11.6691,9.45936 -7.8717,18.547905 2.2785,5.45313 8.4913,7.00145 14.1786,3.53349 z m -4.6342,-80.819005 c 0,-2.07349 4.0413,-15.67239 9.0767,-30.54304 4.9922,-14.74298 9.3104,-29.14855 9.596,-32.01238 0.4072,-4.08322 -0.1489,-7.27955 -2.5767,-14.8104 -4.2736,-13.25616 -4.0724,-16.69372 0.6808,-11.63411 3.5533,3.78227 6.0319,10.7917 7.0211,19.85574 1.4017,12.84252 -0.7727,22.95805 -8.043,37.41722 -1.373,2.73052 -3.6959,8.56458 -5.162,12.96458 -6.0109,18.03922 -7.8337,22.5 -9.1944,22.5 -0.9486,0 -1.3985,-1.20246 -1.3985,-3.73761 z m 41.7088,-55.88687 c -1.0347,-1.03475 -0.8565,-6.30364 0.3617,-10.69045 2.2326,-8.03987 7.3045,-9.58568 16.8589,-5.1382 6.7717,3.15217 20.0706,11.51935 20.0706,12.62767 0,0.454 -1.3589,0.82546 -3.0199,0.82546 -2.828,0 -5.5717,-1.48848 -13.878,-7.52898 -4.0638,-2.9553 -9.1072,-3.22784 -11.4676,-0.61969 -0.9214,1.01823 -2.2466,3.83073 -2.9447,6.25 -0.8935,3.09619 -1.862,4.48519 -3.2708,4.69085 -1.1007,0.1607 -2.3203,-0.0268 -2.7102,-0.41666 z m 465.7912,73.08977 c 278.9271,-11.12299 270.1375,-10.61968 275.7141,-15.78793 3.4123,-3.16239 5.2661,-13.2693 4.4297,-24.15086 -1.0964,-14.26263 -0.2675,-12.89658 -20.0219,-32.9992 -16.8776,-17.17507 -18.4948,-18.54727 -23.5534,-19.98431 -5.7524,-1.63415 -26.2743,-2.11794 -37.9729,-0.89519 l -6.1979,0.6478 5.8418,3.29213 c 3.213,1.81067 6.6492,4.18424 7.6359,5.27459 2.3572,2.60461 3.2039,9.32487 1.6482,13.08069 -3.0809,7.43799 -18.4343,9.8214 -39.6347,6.15276 -14.9063,-2.57946 -17.3889,-2.64005 -17.3889,-0.42435 0,2.61343 -8.1316,9.75184 -12.6512,11.10593 -5.6031,1.67874 -25.343,1.50687 -33.8484,-0.29471 -8.4024,-1.77977 -12.3066,-1.84391 -21.2318,-0.34881 -12.2805,2.05716 -19.6276,-2.05057 -27.3657,-15.30015 -2.1979,-3.7633 -7.6922,-10.71706 -12.2095,-15.45279 l -8.2133,-8.61041 -90.49,3.13058 c -49.7696,1.72183 -93.0776,3.12347 -96.2401,3.11477 l -5.75,-0.0158 0,4.52852 c 0,7.27005 -9.5864,24.38914 -17.5953,31.42103 -6.7906,5.96219 -8.9068,6.39184 -27.9047,5.66527 l -17,-0.65016 -16.5,4.54253 c -9.075,2.49838 -19.3488,4.8248 -22.8307,5.16981 -9.2015,0.91173 -9.5546,1.50006 -8.5557,14.2517 1.2186,15.55563 0.9897,17.3336 -3.4119,26.5068 l -3.9909,8.31727 6.1446,-0.39981 c 3.3795,-0.2199 124.4946,-5.11935 269.1446,-10.88767 z m -216.3,-30.66529 c -1.609,-1.60895 -1.5125,-3.29578 0.2732,-4.7778 2.0939,-1.73773 469.2057,-13.5336 471.1759,-11.8985 2.079,1.72544 1.6033,4.81585 -0.8991,5.84044 -1.8375,0.75235 -438.6767,12.15018 -462.3,12.06213 -4.1157,-0.0153 -7.5495,-0.52572 -8.25,-1.22627 z m -27.7,-18.50691 c 6.05,-1.38059 14.6,-3.38268 19,-4.44908 6.3897,-1.54864 11.5138,-1.93207 25.4564,-1.90486 l 17.4563,0.0341 5.1554,-5.32264 c 9.8604,-10.18025 14.5543,-21.57826 11.9931,-29.12215 -1.0514,-3.09676 -1.2486,-8.35821 -0.8445,-22.53425 0.4525,-15.87514 0.231,-20.19355 -1.564,-30.49418 -1.1501,-6.6 -3.2467,-15.7116 -4.6591,-20.24799 l -2.568,-8.24799 -4.9034,2.48473 c -16.0997,8.15833 -29.3915,11.83437 -42.2114,11.67413 -8.8952,-0.11117 -9.7418,0.0443 -10.3297,1.8965 -0.3522,1.10968 -2.4045,3.18508 -4.5607,4.612 l -3.9204,2.59439 -0.01,13.11712 c 0,7.21441 -0.4315,15.71653 -0.9519,18.8936 -0.8795,5.3699 -0.7652,6.03858 1.6241,9.5 5.2496,7.60543 11.4283,21.57196 11.1245,25.14621 -0.16,1.88249 -0.8174,3.59547 -1.4608,3.80664 -0.6435,0.21116 -3.0242,-3.18027 -5.2906,-7.53651 -2.2664,-4.35625 -5.1805,-8.91607 -6.4758,-10.13294 l -2.3551,-2.21249 -0.7269,5.3263 c -0.9178,6.72504 -5.2737,19.18442 -11.6512,33.3263 -2.7284,6.05 -5.1962,11.54066 -5.484,12.20147 -0.6579,1.51056 3.2546,0.9915 18.1535,-2.40838 z m 46.729,-7.96238 c -2.1346,-0.85884 -3.9627,-5.52331 -4.6368,-11.83071 -0.7631,-7.14102 0.5233,-10.20983 2.9473,-7.0309 0.8258,1.08301 1.9435,3.78301 2.4838,6 0.5403,2.217 1.6561,5.30487 2.4796,6.86194 1.9171,3.62517 1.8936,5.30282 -0.085,6.06197 -0.87,0.33385 -1.6575,0.57146 -1.75,0.52804 -0.092,-0.0434 -0.7402,-0.30907 -1.4393,-0.59034 z m -16.5623,-33.99738 c -1.3114,-1.31137 -0.6147,-4.43564 2.8625,-12.83545 2.8267,-6.8286 5.1633,-17.0292 5.4399,-23.74788 0.087,-2.10159 2.0216,-0.30827 3.0589,2.83487 3.6577,11.08291 -2.0663,34.41513 -8.4429,34.41513 -1.2385,0 -2.5518,-0.3 -2.9184,-0.66667 z m 351.2477,29.08424 c 5.1106,-2.04486 8.2741,-5.8184 7.4915,-8.93628 -0.504,-2.00827 -0.1123,-2.3551 3.3137,-2.93392 2.3329,-0.39413 6.8612,-0.009 11.3329,0.9643 16.0684,3.49681 20.7301,3.92723 29.186,2.69478 9.1641,-1.33569 12.7615,-3.18898 12.7615,-6.57452 0,-3.44365 -2.653,-5.1656 -11,-7.13969 -8.8872,-2.10185 -14.283,-4.63044 -16.4339,-7.70136 -3.1192,-4.45324 -1.0288,-5.19944 3.6163,-1.29088 1.6341,1.375 3.724,2.4811 4.6443,2.45801 2.4384,-0.0612 -11.8902,-13.32623 -17.1395,-15.86737 -7.5425,-3.65126 -18.2303,-2.96662 -36.9926,2.36967 -18.0125,5.12303 -29.8094,7.53969 -36.8051,7.53969 -4.1307,0 -4.8895,-0.29377 -4.8895,-1.89301 0,-1.04116 0.696,-2.16011 1.5468,-2.48656 1.2274,-0.47101 0.8097,-1.33056 -2.0231,-4.16337 -5.3041,-5.3041 -7.8629,-9.91119 -11.3724,-20.47583 -1.9128,-5.75796 -4.9777,-12.22502 -7.7572,-16.36842 -7.4998,-11.17955 -7.7,-11.96456 -8.4424,-33.11281 -0.7427,-21.15512 -1.6398,-24.90682 -7.9529,-33.25968 -3.6492,-4.82826 -16.2492,-15.24032 -18.4429,-15.24032 -1.4536,0 -3.5559,4.21873 -3.5559,7.1357 0,1.12288 2.0398,4.3642 4.5329,7.20295 4.3793,4.9864 6.382,9.07976 5.0796,10.38215 -0.3452,0.34521 -2.9867,-1.8794 -5.8701,-4.94357 -5.0882,-5.40731 -5.4631,-5.60499 -12.7424,-6.71912 -10.696,-1.63708 -12,-1.97414 -12,-3.10191 0,-1.59278 5.0804,-3.10333 9.3907,-2.79212 l 3.9432,0.28471 4.4041,-9.75539 c 7.6909,-17.03571 7.7804,-26.26141 0.5471,-56.39318 l -3.6487,-15.19977 -2.9047,3.94977 c -1.5976,2.17238 -3.2892,3.94978 -3.7592,3.94978 -2.5935,0 -1.4178,-3.74746 5.9076,-18.82972 10.5151,-21.64974 11.633,-26.04547 10.143,-39.88463 -1.0999,-10.21532 -3.5389,-17.80902 -6.513,-20.27728 -1.0459,-0.86802 -1.8704,0.56667 -3.9993,6.95927 -2.8639,8.59946 -12.9903,23.96538 -28.0902,42.62465 -10.4217,12.87823 -13.4223,14.61862 -31.6706,18.36931 -3.5598,0.73166 -5.75,1.6935 -5.75,2.52513 0,0.73881 2.0068,3.10975 4.4595,5.26874 3.3821,2.97703 4.1794,4.2056 3.3,5.08499 -1.682,1.68205 -3.8085,1.42703 -7.6552,-0.91808 l -3.3956,-2.07015 0.6493,6.32388 c 1.1597,11.29343 5.21,24.04763 10.6347,33.48816 2.7925,4.85965 5.2404,9.73573 5.4398,10.83573 0.1994,1.1 0.8313,5.11334 1.4042,8.91853 0.5968,3.96394 2.2918,9.30214 3.969,12.5 1.61,3.06981 4.3374,8.23238 6.0608,11.47239 2.8622,5.38097 3.1335,6.69329 3.1335,15.15982 0,7.57133 0.544,10.93353 2.9701,18.3579 5.0875,15.56825 7.4495,19.49702 18.94,31.50339 5.8364,6.09838 14.6138,16.26297 19.5054,22.58797 15.3435,19.83963 18.9599,22.97728 14.9593,12.97875 -0.8938,-2.23395 -1.2989,-4.38056 -0.9001,-4.77024 1.5208,-1.48609 7.239,7.04801 12.5253,18.69358 7.488,16.49575 13.26,24.9726 18.9619,27.84791 3.8378,1.93532 6.0756,2.25593 16,2.29237 6.3459,0.0233 15.3631,0.68417 20.0381,1.46858 10.3397,1.73488 25.1555,1.21088 30.9144,-1.09338 z m -9.4144,-13.58455 c -3.562,-1.97006 -6.5,-5.13739 -6.5,-7.00733 0,-2.58832 2.2366,-2.27362 8.346,1.17431 2.9236,1.65 6.2918,3 7.4849,3 2.4228,0 2.769,1.00011 0.9691,2.8 -1.4933,1.49332 -7.6242,1.51297 -10.3,0.033 z m 14.8358,-20.40024 c -1.1141,-2.90346 1.3951,-3.64681 12.7946,-3.79032 10.1872,-0.12826 11.3515,0.0381 11.6776,1.66882 0.3097,1.54862 -0.1214,1.72316 -2.9729,1.20362 -1.9227,-0.35032 -5.4525,0.0426 -8.3351,0.92789 -6.6203,2.03317 -12.3818,2.02879 -13.1642,-0.01 z m -143.1317,-122.00239 c -8.4495,-5.91826 -12.1095,-30.56353 -7.3293,-49.35303 2.5419,-9.99162 4.9207,-14.46031 7.9303,-14.8975 3.5383,-0.51398 3.5669,2.18557 0.083,7.8473 -3.7837,6.1493 -6.8883,16.51147 -6.8883,22.9911 0,9.99729 6.3698,25.97723 12.0199,30.15454 l 3.0221,2.23436 -2.271,1.26098 c -2.9958,1.66347 -3.8992,1.63076 -6.5669,-0.23775 z m -52.0137,118.6917 c 43.2797,-1.46823 78.9727,-2.9519 79.3179,-3.29703 0.7232,-0.72324 -7.1783,-12.07442 -15.6174,-22.43555 -3.1852,-3.91078 -8.7834,-9.53578 -12.4404,-12.5 -3.6569,-2.96423 -8.694,-8.08951 -11.1934,-11.38951 -8.1723,-10.78966 -10.9077,-19.17527 -11.9066,-36.5 -0.5584,-9.68598 -1.0141,-11.97322 -2.8887,-14.5 -3.9028,-5.26061 -5.2379,-8.81934 -6.8814,-18.34321 -2.243,-12.99743 -4.2504,-18.30757 -10.8598,-28.72777 -4.3618,-6.87674 -6.1001,-10.74707 -7.1861,-16 -1.2965,-6.27045 -3.5345,-24.92937 -3.5345,-29.46735 0,-1.55427 -0.7742,-1.30541 -5.1958,1.67012 -2.8578,1.9231 -6.4578,3.74892 -8,4.05738 l -2.8042,0.56083 0,15.85458 c 0,19.10312 -1.8153,45.91527 -3.2258,47.64542 -0.7747,0.95024 -8.3097,1.25 -31.4214,1.25 l -30.4023,0 -0.9753,-2.5651 c -0.5363,-1.4108 -0.9752,-4.18055 -0.9752,-6.15499 0,-3.33836 -0.1226,-3.48209 -1.75,-2.05141 -4.6622,4.09865 -10.063,5.7715 -18.6334,5.7715 -7.4119,0 -8.8143,-0.29165 -11.2899,-2.34791 -3.5906,-2.98237 -8.3267,-4.2772 -8.3267,-2.27648 0,3.2515 4.5064,15.88942 9.4936,26.62439 7.0075,15.0835 7.479,17.69064 3.9564,21.87707 l -2.7085,3.21884 2.1465,8.20204 c 4.5879,17.53091 7.112,37.90243 7.112,57.39871 l 0,18.26595 13.75,-0.5855 c 7.5625,-0.32203 49.1607,-1.78678 92.4404,-3.25502 z m -219.3462,-48.1378 c 9.595,-2.29869 27.6455,-9.18457 30.7903,-11.74585 2.0747,-1.68974 2.1053,-2.06812 1.0914,-13.50762 -1.2236,-13.80532 -0.2322,-18.79612 6.4514,-32.47646 5.3755,-11.00296 11.0205,-15.65651 14.6227,-12.05436 2.0744,2.0744 1.3684,4.12207 -4.9466,14.34739 -8.8066,14.2598 -9.8084,16.80639 -9.8161,24.95261 0,3.85 0.3706,7.59504 0.8317,8.32232 1.9873,3.13432 13.6947,3.98476 24.131,1.75289 13.184,-2.81949 23.8759,-8.28227 33.8845,-17.31252 l 4.1704,-3.76269 -6.007,-12.31379 c -6.1038,-12.51227 -10.0479,-23.43367 -10.0479,-27.82293 0,-3.3987 -1.7066,-3.73784 -12.4395,-2.47205 -6.6581,0.78523 -10.2506,0.80159 -12.242,0.0557 -3.9197,-1.46805 -15.3154,-12.92762 -15.3322,-15.41808 -0.032,-4.79333 -1.1636,-6.64626 -3.8668,-6.3327 -2.6177,0.30365 -2.6197,0.31096 -3.7932,14.02626 -0.6458,7.54735 -1.46,14.18485 -1.8093,14.75 -0.4125,0.66759 -11.4683,1.02759 -31.557,1.02759 l -30.9219,0 -0.5112,-2.25 c -1.6711,-7.35619 -2.6984,-21.23767 -3.2126,-43.41378 l -0.5836,-25.16378 -3.8853,2.02518 c -2.137,1.11385 -4.7555,1.79764 -5.8189,1.51955 -2.9572,-0.77331 -4.7132,1.21481 -6.8742,7.78283 -4.2855,13.02499 -3.9061,20.16832 2.4967,47 3.2929,13.79898 3.5346,15.84072 3.019,25.5 -0.8217,15.39491 -5.0868,30 -8.7609,30 -2.7155,0 -2.9445,-1.17299 -1.3826,-7.08043 4.3065,-16.28781 4.011,-29.21106 -1.1155,-48.79396 -4.8849,-18.66013 -4.0597,-45.55784 1.7656,-57.54812 l 2.1224,-4.36858 6.6015,-0.37958 c 4.9159,-0.28265 7.3934,-0.96764 9.7029,-2.68267 2.9985,-2.22662 3.1429,-2.69065 4.3485,-13.9746 0.6859,-6.41933 1.6685,-12.45914 2.1837,-13.42179 0.7468,-1.39537 2.2738,-1.75027 7.5309,-1.75027 6.5686,0 6.6109,-0.0181 10.968,-4.69682 3.4152,-3.66743 4.6383,-4.43237 5.5805,-3.49019 0.9422,0.94218 0.8319,1.84101 -0.5032,4.10111 -0.9404,1.59197 -1.7098,3.16255 -1.7098,3.49019 0,0.32764 5.6181,0.59571 12.4846,0.59571 l 12.4847,0 -3.8103,-5.0343 c -5.329,-7.04074 -11.4256,-18.8943 -15.0674,-29.29538 -3.8663,-11.04217 -4.3206,-21.83824 -1.0916,-25.94319 1.1,-1.39842 2,-2.81515 2,-3.14828 0,-1.25368 -7.3288,2.52875 -14.4848,7.47569 -6.8755,4.75305 -7.4678,5.44646 -8.0675,9.44531 -0.8141,5.42927 -0.136,8.90915 3.7594,19.2912 2.2481,5.9918 2.808,8.59381 2.0191,9.38278 -1.8166,1.81658 -4.2216,0.0908 -6.2436,-4.48021 -2.21,-4.99614 -5.1923,-21.98352 -4.2778,-24.3667 0.5294,-1.37973 0.062,-1.50571 -3.2696,-0.88075 -17.9406,3.36569 -41.2483,16.76488 -50.5064,29.03524 -7.3069,9.68438 -14.7584,27.83595 -20.7387,50.51859 -3.4182,12.96492 -3.5606,14.19363 -3.5929,31 -0.03,15.73839 0.2351,18.55696 2.6354,28 1.4679,5.775 4.2661,14.30802 6.2182,18.96227 3.2845,7.83127 4.5388,14.03773 2.8368,14.03773 -0.3919,0 -1.7719,-1.2375 -3.0666,-2.75 l -2.3542,-2.75 0.6973,4.5 c 0.3835,2.475 0.976,13.24281 1.3166,23.92847 l 0.6193,19.42848 7,3.78657 c 12.893,6.97434 33.6502,12.78493 54.5,15.25625 7.0294,0.83319 24.7121,-0.46727 32.8442,-2.41548 z m 192.501,-82.23429 c 0.3092,-1.2375 1.0618,-12.08323 1.6726,-24.10162 1.0482,-20.6257 0.158,-56.49799 -1.6476,-66.39838 l -0.5928,-3.25 -26.3887,0 c -14.5138,0 -26.3981,0.3375 -26.4096,0.75 -0.011,0.4125 -0.6725,6.15 -1.4688,12.75 -2.3483,19.46255 -1.7871,60.49342 1.0772,78.75 l 0.5883,3.75 26.3037,0 26.3037,0 0.562,-2.25 z m -160.685,-7.5 c 1.0865,-11.32026 1.0897,-69.43118 0,-79.5 l -0.8353,-7.75 -26.3473,0 c -24.2301,0 -26.3886,0.14063 -26.8615,1.75 -1.4602,4.96919 -2.9232,28.11673 -2.9232,46.25 0,18.13327 1.463,41.28081 2.9232,46.25 0.4729,1.60937 2.6312,1.75 26.8571,1.75 l 26.3428,0 0.8398,-8.75 z m 87.9939,3.60689 c 4.0661,-1.02388 4.7446,-1.62364 6.5046,-5.75 1.0807,-2.53379 2.6121,-5.91353 3.4031,-7.51053 1.6215,-3.2737 1.9481,-10.59636 0.4726,-10.59636 -0.531,0 -1.2719,2.30929 -1.6463,5.13176 l -0.6807,5.13177 -1.8568,-2.38177 c -2.1747,-2.78951 -4.446,-10.22953 -5.3733,-17.60118 -0.9472,-7.52961 2.114,-19.1399 5.2542,-19.92805 2.6815,-0.67301 2.6516,-0.49984 0.8366,-4.84382 -1.1511,-2.75489 -2.698,-4.00114 -7.8872,-6.35402 -7.5694,-3.43211 -16.9944,-9.68994 -21.0437,-13.97212 -4.332,-4.58121 -8.9871,-24.18257 -5.7431,-24.18257 0.4918,0 2.0318,2.8125 3.4222,6.25 l 2.528,6.25 -0.1722,-21.5 c -0.2083,-26.02522 0.8633,-31.80027 9.1856,-49.5 l 5.6423,-12 -0.013,-12.5 c -0.011,-10.41087 -0.3802,-13.4781 -2.2103,-18.35235 -2.9232,-7.78551 -10.5619,-19.94738 -16.4838,-26.24428 -2.6361,-2.80314 -4.793,-5.62977 -4.793,-6.28138 0,-2.37568 3.0776,-2.26655 7.3925,0.26213 5.0639,2.96765 9.9712,9.17988 17.1075,21.65652 5.1271,8.96396 8.4675,12.33772 22.2329,22.45497 7.8787,5.79064 12.7375,7.54355 22.7671,8.21369 7.1475,0.47757 9.0124,0.19545 17.5,-2.64741 5.225,-1.75007 13.7272,-5.40493 18.8938,-8.12191 5.1666,-2.71699 9.918,-4.93998 10.5587,-4.93998 0.6406,0 5.5759,3.14691 10.9672,6.99313 5.3913,3.84622 11.4399,7.41683 13.4413,7.93469 2.0015,0.51786 6.114,1.53745 9.139,2.26575 3.4798,0.8378 5.5,1.84855 5.5,2.75174 0,3.70582 -15.8303,3.83144 -27.3044,0.21667 l -6.3044,-1.98612 -4.3506,5.54312 c -6.1622,7.8513 -7.9514,14.67395 -7.9409,30.28102 0.01,10.7848 0.3866,13.73494 2.7647,21.5 1.516,4.95 3.3697,10.2375 4.1193,11.75 1.2962,2.61521 1.2452,2.75 -1.04,2.75 -2.8846,0 -4.8813,-3.52577 -9.0611,-16 -2.7179,-8.11104 -2.8467,-9.32368 -2.8146,-26.5 0.036,-19.44519 0.8135,-23.37818 5.9516,-30.11461 2.9107,-3.81605 2.9468,-3.99244 0.9731,-4.74982 -0.829,-0.31813 -4.9623,0.99606 -9.185,2.92041 -13.6058,6.20036 -20.5568,7.87559 -32.8077,7.90679 -12.6829,0.0323 -15.9437,-1.07282 -28.25,-9.5741 l -7.25,-5.00837 -0.01,3.80985 c -0.01,5.5016 -3.5712,19.54031 -6.3583,25.06625 -2.9844,5.91698 -9.0391,24.59709 -10.7751,33.2436 -0.8421,4.19433 -1.2491,13.23965 -1.1475,25.5 l 0.1575,19 4.9318,4.56319 c 2.7125,2.50976 7.1293,5.37567 9.8152,6.36871 2.6859,0.99303 6.4026,2.67038 8.2594,3.72744 1.8569,1.05706 3.5432,1.75477 3.7475,1.55045 0.2044,-0.20431 0.8836,-5.28509 1.5094,-11.29063 0.6259,-6.00554 1.5159,-11.93166 1.9778,-13.16916 l 0.8398,-2.25 31.0057,0 31.0057,0 0.4549,2.25 c 0.2502,1.2375 0.7006,4.72227 1.0008,7.74392 0.3003,3.02166 0.8917,5.61095 1.3142,5.75397 0.4225,0.14303 2.2307,1.15165 4.0182,2.24138 2.5098,1.53009 3.25,2.66793 3.25,4.99603 0,1.65809 -0.1882,3.0147 -0.4182,3.0147 -0.23,0 -1.072,0.25088 -1.8711,0.55751 -0.799,0.30663 -2.2073,-0.19694 -3.1294,-1.11905 -2.2666,-2.26667 -2.7615,-1.45627 -1.8347,3.00458 l 0.7781,3.7449 5.9876,-4.45901 c 3.2933,-2.45245 7.2995,-5.85945 8.9029,-7.57111 2.9049,-3.1011 2.9105,-3.13169 1.5889,-8.64057 -2.047,-8.53298 0.4385,-8.55691 5.4226,-0.0522 4.222,7.20436 13.2952,9.25502 21.7677,4.91978 5.0986,-2.60885 14.504,-11.21168 20.8172,-19.04077 8.6581,-10.73693 19.6661,-27.50085 23.2087,-35.34406 1.6148,-3.575 3.8574,-8.44665 4.9837,-10.82588 2.1896,-4.62521 2.1234,-4.97769 -2.2002,-11.72466 l -1.9549,-3.05053 3.0672,-12.21838 3.0672,-12.21838 -2.0916,-6.88632 c -2.5019,-8.23691 -2.5983,-10.07585 -0.528,-10.07585 0.916,0 2.4694,2.06153 3.75,4.97643 1.2025,2.73704 2.4113,4.98123 2.6863,4.98709 1.021,0.0217 9.825,-14.597 10.9689,-18.21352 0.8293,-2.62156 1.7647,-3.75 3.1086,-3.75 4.2459,0 1.7136,7.12621 -8.9571,25.20661 -7.29,12.35214 -8.336,17.33707 -5.583,26.6074 l 1.5374,5.17701 5.9523,-3.00472 c 7.6389,-3.85611 16.6188,-5.95288 25.5742,-5.97152 7.9714,-0.0166 8.1094,0.0592 21.3742,11.74897 9.3478,8.23778 13.8295,10.97149 20.9973,12.80779 5.6368,1.44408 6.1275,1.41793 9.9456,-0.5299 5.3053,-2.70659 16.1652,-12.94016 22.3294,-21.04164 9.1705,-12.05277 28.3167,-53.53146 33.6868,-72.9799 1.136,-4.11395 2.0654,-9.74869 2.0654,-12.52165 0,-6.98586 -3.0667,-17.35938 -7.1054,-24.03517 -8.629,-14.26314 -28.1593,-28.76773 -46.2499,-34.3485 -13.093,-4.03903 -32.3361,-2.19945 -46.5158,4.44676 -8.6942,4.07502 -19.5517,14.40108 -25.1289,23.89877 -3.4298,5.84081 -3.504,6.20171 -3.7012,18 -0.1106,6.62183 -0.2231,12.79504 -0.25,13.71825 -0.08,2.74914 -3.0024,5.1048 -4.6435,3.74286 -1.0532,-0.87412 -2.3435,-0.76319 -5.4143,0.46548 -5.9509,2.38108 -9.868,2.01868 -14.991,-1.38691 -5.468,-3.63492 -5.851,-3.67143 -5.2448,-0.5 0.3871,2.02465 0.079,2.5 -1.6218,2.5 -2.331,0 -5.5738,-5.58098 -8.5823,-14.77048 -4.8827,-14.91449 -23.756,-28.22952 -40.0137,-28.22952 -7.9871,0 -12.7079,1.95955 -26.7505,11.10374 -12.1482,7.91055 -18.862,11.1678 -22.0766,10.71061 -4.1358,-0.58819 -2.3935,-3.58462 4.7897,-8.23742 3.85,-2.49377 6.6307,-4.54376 6.1793,-4.55553 -0.4514,-0.0118 -9.5191,-2.25675 -20.1505,-4.98886 -33.0831,-8.50184 -43.9322,-8.67517 -66.5288,-1.06289 -17.5567,5.91444 -23.4219,7.16784 -37.0529,7.91826 -13.5107,0.7438 -15.0806,1.29624 -25.7334,9.05524 -6.2853,4.57795 -6.8809,6.538 -4.8047,15.81133 l 1.7342,7.74552 -2.5875,9.50001 c -5.7351,21.05693 -6.7629,27.05668 -6.081,35.5 1.1041,13.67273 8.3834,55.00679 13.5712,77.06085 5.42,23.04142 5.658,25.19275 3.472,31.38838 -1.3738,3.89373 -1.3372,4.48457 0.5,8.08588 2.4191,4.74181 2.5146,8.22249 0.3177,11.57538 -1.3418,2.04795 -1.7531,5.9647 -2.1227,20.21481 -0.7238,27.91376 1.37,35.33807 11.3337,40.1869 3.8727,1.88464 4.3884,1.90216 12,0.40774 5.6354,-1.10644 10.5035,-1.3733 16.7034,-0.91567 5.128,0.37852 8.75,0.26501 8.75,-0.27421 0,-1.53365 -3.9583,-4.61553 -7.3265,-5.70425 -3.0671,-0.99141 -3.1835,-1.23543 -3.4712,-7.27581 -0.2394,-5.02544 0,-6.25 1.2047,-6.25 0.9223,0 1.7533,1.33752 2.1523,3.46437 0.7201,3.83833 1.7404,4.95984 5.4407,5.98029 6.7095,1.85032 8.153,2.80939 7.5921,5.04422 -0.302,1.20326 0.102,3.048 0.8976,4.09943 0.7957,1.05143 1.461,2.55126 1.4785,3.33295 0.056,2.48657 3.2425,5.07874 6.244,5.07874 1.5962,0 4.945,-0.5144 7.4419,-1.14311 z m -52.6541,-9.5606 c -2.3164,-0.84287 -7,-5.51537 -7,-6.98338 0,-2.09825 3.2216,-1.52635 7.4014,1.31389 3.4639,2.35381 4.2389,2.51225 7.4568,1.52465 4.5129,-1.38506 6.2564,-0.0406 3.6632,2.82492 -1.801,1.99009 -7.7931,2.67656 -11.5214,1.31992 z m 40,-5.1413 c 0,-0.46476 0.9621,-1.70226 2.138,-2.75 1.1759,-1.04775 2.8571,-3.47999 3.7359,-5.40499 l 1.598,-3.5 0.3213,3.6978 c 0.4061,4.67401 -2.1303,8.8022 -5.4082,8.8022 -1.3118,0 -2.385,-0.38026 -2.385,-0.84501 z m -46.0689,-14.40499 c -0.5904,-2.14302 -0.5877,-24.75 0,-24.75 2.1862,0 3.4669,3.80987 3.8714,11.51709 0.4997,9.52007 -0.1835,13.48291 -2.3246,13.48291 -0.8145,0 -1.5119,-0.1125 -1.5498,-0.25 z m 25.1778,-21.11889 c -4.6337,-10.56559 -4.6501,-10.63111 -2.6578,-10.63111 1.8606,0 8.4769,11.78167 9.2331,16.44157 0.4499,2.77215 0.2412,3.55843 -0.9445,3.55843 -0.9619,0 -3.0339,-3.44737 -5.6308,-9.36889 z m 50.3795,-58.00842 c -4.0208,-6.13652 -4.6316,-16.44338 -1.3578,-22.91253 1.1718,-2.31559 3.0193,-5.47129 4.1055,-7.01268 1.7312,-2.45675 1.8385,-3.34417 0.8694,-7.19282 -2.772,-11.00837 -0.9108,-16.98517 7.6305,-24.50344 6.2053,-5.46219 7.7727,-3.9213 3.2728,3.21762 -6.3464,10.06846 -6.3318,10.0125 -4.4387,17.01074 3.0173,11.15414 4.3878,18.17709 4.4091,22.59374 0.017,3.55222 -0.2852,4.2644 -1.6948,3.99293 -1.649,-0.31757 -3.0757,-2.52154 -5.0349,-7.77767 -0.8985,-2.41065 -0.9734,-2.36582 -3.634,2.17413 -3.8094,6.50016 -4.1956,10.26008 -1.7028,16.57431 2.4872,6.29992 2.4786,6.21298 0.6103,6.21298 -0.8123,0 -2.1779,-1.06979 -3.0346,-2.37731 z m 25.4422,-4.87269 c -4.0203,-9.11462 -2.2712,-17.31896 5.6699,-26.59642 3.5027,-4.09206 3.574,-4.342 2.8988,-10.15946 -0.8709,-7.50347 1.5174,-13.04181 7.6596,-17.76251 6.8719,-5.28154 7.6002,-4.04963 2.6849,4.54139 -3.7773,6.60201 -3.9212,10.21807 -0.8797,22.10451 2.159,8.43773 2.3857,14.62249 0.5359,14.62249 -0.55,0 -2.2874,-2.4024 -3.8609,-5.33867 l -2.8609,-5.33866 -3.4744,3.33866 c -6.4579,6.2056 -7.7423,11.50996 -4.8038,19.83867 1.849,5.24066 1.8646,6 0.1231,6 -0.7572,0 -2.4189,-2.3625 -3.6925,-5.25 z m 191.438,-48.83247 c -0.6223,-0.77964 -2.2739,-3.69417 -3.6702,-6.47672 -1.3963,-2.78256 -4.4162,-7.43434 -6.7108,-10.3373 -8.7329,-11.04789 -11.9876,-16.38324 -11.9876,-19.65077 0,-2.60031 1.5418,-4.96069 8.0567,-12.33422 4.9472,-5.59917 8.8068,-9.11852 10,-9.11852 3.3734,0 2.0502,3.44239 -5.6411,14.67681 -2.4286,3.54728 -4.4156,7.4575 -4.4156,8.68938 0,1.23187 2.5405,6.26593 5.6455,11.18679 7.2255,11.45114 10.5725,18.72357 10.1721,22.10213 -0.2586,2.18216 -0.5278,2.41665 -1.449,1.26242 z m -299.3999,-4.16753 c -3.2051,-5.20317 -5.8618,-15.08792 -7.5568,-28.11659 -1.2815,-9.85065 -1.3563,-13.23871 -0.3996,-18.10158 1.827,-9.28658 7.1985,-18.53183 10.767,-18.53183 2.0768,0 1.0876,6.05256 -2.2836,13.97259 -2.6039,6.11746 -2.7255,7.07766 -2.2174,17.50001 0.6116,12.54296 2.8755,24.26678 5.7562,29.80819 2.5018,4.81253 2.4879,6.71921 -0.049,6.71921 -1.1956,0 -2.8285,-1.32121 -4.0166,-3.25 z m 211.7499,-9.36473 c -0.3381,-0.33811 2.1159,-3.78741 5.4533,-7.66513 9.487,-11.02274 10.689,-15.97928 6.6581,-27.45664 -1.2047,-3.43008 -1.9037,-6.52317 -1.5533,-6.87354 1.4574,-1.45737 3.9699,0.91078 6.2043,5.84772 4.0718,8.99669 4.0796,11.22735 0.073,20.79591 -4.6653,11.14227 -8.5812,15.96641 -12.9603,15.96641 -1.7933,0 -3.5372,-0.27663 -3.8753,-0.61473 z m -88.1118,-42.0095 c -9.6466,-13.22347 -18.7211,-19.28608 -31.9927,-21.37417 -9.1238,-1.43551 -14.0834,-0.55698 -23.2128,4.11187 -4.1799,2.13759 -8.0051,3.88653 -8.5005,3.88653 -1.0312,0 -1.2048,-4.04412 -0.2775,-6.46082 3.0325,-7.90259 33.0881,-8.7949 47.648,-1.4146 10.6983,5.42289 17.5326,12.71988 19.8001,21.14058 1.595,5.92324 0.7945,5.9488 -3.4646,0.11061 z m 93.9365,-5.62577 c -0.2167,-0.6875 -0.6807,-3.3907 -1.031,-6.00711 -0.5268,-3.93394 -1.2636,-5.23174 -4.2585,-7.50001 -8.6851,-6.57809 -11.7325,-11.24289 -7.3445,-11.24289 2.8899,0 14.2509,8.0419 16.8374,11.91828 2.3212,3.47887 2.3525,7.9429 0.086,12.33173 -1.0446,2.02314 -3.7119,2.33402 -4.2899,0.5 z m -214.8766,-29.41667 c -1.3005,-1.30051 -0.6386,-5.64275 1.3509,-8.86183 2.345,-3.79426 6.0464,-6.47151 8.9472,-6.47151 3.1498,0 2.4863,3.1704 -1.4648,7 -1.925,1.86579 -3.5,4.11406 -3.5,4.99617 0,2.89184 -3.5545,5.11598 -5.3333,3.33717 z m 66.3333,-1.94494 c -6.4079,-2.38332 -7.1339,-2.42758 -19.4725,-1.18722 -2.1462,0.21575 -3.067,-0.17158 -3.3122,-1.39334 -0.4983,-2.48251 4.1529,-4.4367 12.4425,-5.22774 6.3835,-0.60915 7.8401,-0.39588 13.4644,1.97135 9.3679,3.94287 16.8705,2.45159 15.3519,-3.05145 -1.7056,-6.18033 -1.6949,-8.59854 0.046,-10.52262 2.1035,-2.3244 6.4795,-2.67056 6.4795,-0.51256 0,0.80565 -0.9,1.94648 -2,2.53518 -2.7048,1.44759 -2.5261,2.6368 1,6.65278 4.7213,5.37724 3.9921,9.19909 -2.2529,11.80844 -5.289,2.20988 -14.0881,1.77581 -21.7471,-1.07282 z m -80.403,216.61341 c -0.087,-11.67488 -0.2752,-12.99838 -1.847,-13 -1.577,-0.002 -1.75,1.28323 -1.75,12.9982 0,11.97445 0.1457,13 1.847,13 1.7063,0 1.8397,-0.99048 1.75,-12.9982 z m 87.403,-0.002 c 0,-9.11111 -0.1667,-10 -1.875,-10 -2.2538,0 -3.125,3.47321 -3.125,12.45833 0,6.69504 0.3555,7.54167 3.1667,7.54167 1.6555,0 1.8333,-0.9697 1.8333,-10 z m -86.5811,-21.25 c 0.2513,-1.2375 0.6814,-4.26917 0.9557,-6.73703 0.458,-4.12121 0.2185,-4.74368 -2.938,-7.63487 l -3.4366,-3.14784 0.011,6.13487 c 0.017,9.5948 0.936,13.63487 3.1008,13.63487 1.1165,0 2.0313,-0.89211 2.3071,-2.25 z m 0.4624,-27.19282 c 1.7473,-6.9394 1.4646,-9.0739 -4.2741,-32.26443 -5.6961,-23.01872 -8.6072,-38.08696 -8.6072,-44.5523 0,-2.14891 -0.3375,-3.74186 -0.75,-3.53989 -0.4125,0.20198 -4.2204,2.00607 -8.4619,4.00908 -10.2556,4.84306 -16.6383,9.34535 -17.3675,12.25079 -1.1556,4.60426 1.8218,13.81911 9.1628,28.35766 9.3379,18.49336 13.7317,24.49838 18.4253,25.18191 3.1558,0.45957 3.5051,0.86361 4.32,4.99683 0.8692,4.40832 4.0129,10.00317 5.6207,10.00317 0.4472,0 1.3166,-1.99927 1.9319,-4.44282 z"
       id="path3179"
       inkscape:connector-curvature="0" />
  </g>
</svg>
