<?xml version="1.0" encoding="UTF-8" standalone="no"?>
<!-- Created with Inkscape (http://www.inkscape.org/) -->

<svg
   xmlns:dc="http://purl.org/dc/elements/1.1/"
   xmlns:cc="http://creativecommons.org/ns#"
   xmlns:rdf="http://www.w3.org/1999/02/22-rdf-syntax-ns#"
   xmlns:svg="http://www.w3.org/2000/svg"
   xmlns="http://www.w3.org/2000/svg"
   xmlns:sodipodi="http://sodipodi.sourceforge.net/DTD/sodipodi-0.dtd"
   xmlns:inkscape="http://www.inkscape.org/namespaces/inkscape"
   width="82.408188"
   height="176.7916"
   id="svg2"
   version="1.1"
   inkscape:version="0.48.3.1 r9886"
   sodipodi:docname="Reverse-plate-curls-1.svg">
  <defs
     id="defs4" />
  <sodipodi:namedview
     id="base"
     pagecolor="#ffffff"
     bordercolor="#666666"
     borderopacity="1.0"
     inkscape:pageopacity="0.0"
     inkscape:pageshadow="2"
     inkscape:zoom="1.979899"
     inkscape:cx="2.7859518"
     inkscape:cy="13.743348"
     inkscape:document-units="px"
     inkscape:current-layer="layer1"
     showgrid="false"
     fit-margin-top="0"
     fit-margin-left="0"
     fit-margin-right="0"
     fit-margin-bottom="0"
     inkscape:window-width="1378"
     inkscape:window-height="738"
     inkscape:window-x="-223"
     inkscape:window-y="134"
     inkscape:window-maximized="0" />
  <metadata
     id="metadata7">
    <rdf:RDF>
      <cc:Work
         rdf:about="">
        <dc:format>image/svg+xml</dc:format>
        <dc:type
           rdf:resource="http://purl.org/dc/dcmitype/StillImage" />
        <dc:title></dc:title>
      </cc:Work>
    </rdf:RDF>
  </metadata>
  <g
     inkscape:label="Ebene 1"
     inkscape:groupmode="layer"
     id="layer1"
     transform="translate(-832.17056,-657.6952)">
    <path
       style="fill:#000000"
       d="m 871.76426,827.72835 c -1.17315,-3.71714 -2.42931,-10.93292 -2.79147,-16.03506 -0.36216,-5.10215 -1.06205,-9.52606 -1.5553,-9.83091 -0.49326,-0.30484 -3.57492,-0.62656 -6.84814,-0.71493 l -5.9513,-0.16066 0.0242,3 c 0.0133,1.65 0.86906,6.825 1.90172,11.5 1.84796,8.36603 1.88738,10.2767 0.174,8.43333 -0.76079,-0.8185 -3.87438,-16.04541 -4.52089,-22.10924 -0.12934,-1.21317 -0.6838,-2.79489 -1.23213,-3.51493 -0.64876,-0.85193 -0.6807,-4.45242 -0.0914,-10.30916 0.49804,-4.95 0.86078,-11.36803 0.80609,-14.26229 -0.0583,-3.08503 0.57257,-6.5618 1.52475,-8.40313 2.22635,-4.30527 2.59254,-8.11689 0.71043,-7.39466 -1.90065,0.72935 -10.56127,-2.14413 -14.53644,-4.82299 -5.52887,-3.72591 -7.26667,-7.97422 -7.20631,-17.61693 0.0417,-6.65771 0.56104,-9.64953 2.39626,-13.80374 1.76135,-3.98699 2.05847,-5.58832 1.19679,-6.45 -2.01931,-2.01931 -1.23468,-5.57596 2.05722,-9.32523 3.07697,-3.50447 3.40278,-3.6259 8.25,-3.07483 4.90682,0.55784 5.09027,0.48486 6.627,-2.63624 1.17804,-2.3926 2.57958,-3.46459 5.50418,-4.20996 2.15803,-0.55 5.54993,-2.0125 7.53755,-3.25 3.89376,-2.42427 4.87779,-2.71227 4.87779,-1.42763 0,1.45481 -7.66004,5.89127 -11.37538,6.58827 -1.9873,0.37282 -4.05378,1.52273 -4.61247,2.56665 -1.43972,2.69014 -1.29705,3.02271 1.29672,3.02271 1.26988,0 3.17409,0.63267 4.23158,1.40592 1.6519,1.2079 2.30566,1.2079 4.64148,0 4.34977,-2.24935 6.6037,-1.69043 12.47719,3.09408 3.03832,2.475 6.07682,4.5 6.75221,4.5 0.6754,0 2.25053,1.17601 3.50029,2.61336 l 2.27229,2.61336 1.89335,-3.11336 c 1.04134,-1.71235 2.57496,-3.11336 3.40804,-3.11336 1.95295,0 1.963,1.614 0.0147,2.36163 -0.825,0.31658 -1.5,1.43221 -1.5,2.47918 0,1.43692 0.94875,2.05528 3.87013,2.52243 2.12857,0.34037 4.44324,1.30942 5.14371,2.15344 1.12916,1.36055 0.60523,1.4618 -4.62012,0.89281 -6.62973,-0.7219 -14.23433,-4.8699 -22.45785,-12.24986 -4.14271,-3.71774 -5.26343,-4.2466 -7.81265,-3.68669 -1.63689,0.35952 -3.73685,1.81464 -4.66659,3.2336 -1.55689,2.37612 -1.56508,2.84282 -0.10365,5.90747 1.58074,3.31485 1.5977,3.32128 4.44849,1.68515 3.56668,-2.04699 6.60064,-1.14145 5.69853,1.70084 -0.73306,2.30966 1.96702,3.93298 3.68471,2.21529 1.09502,-1.09502 6.25095,3.77749 12.31529,11.63829 2.32894,3.01885 4.29493,4.27984 8.78898,5.63727 5.3591,1.61872 5.92299,1.6273 7.59349,0.11551 2.9352,-2.65632 4.713,-11.9309 3.29979,-17.21471 -0.65024,-2.43119 -1.18226,-7.15889 -1.18226,-10.506 0,-5.5876 -0.27825,-6.3639 -3.4,-9.48565 -1.87,-1.87 -4.03581,-3.4 -4.81291,-3.4 -0.7771,0 -2.70629,-1.35 -4.28709,-3 -1.5808,-1.65 -3.36797,-3 -3.97148,-3 -1.38331,0 -4.52852,-5.2362 -4.52852,-7.53915 0,-1.39037 -0.37981,-1.24772 -1.93206,0.72565 -2.35288,2.9912 -9.28382,5.30352 -11.82319,3.94449 -4.76256,-2.54885 -5.74475,-4.97026 -5.74475,-14.16265 0,-10.33376 1.58325,-13.42044 8.04422,-15.68291 5.19114,-1.8178 10.0443,-0.85076 13.60624,2.71119 2.36535,2.36535 2.84954,3.69083 2.84954,7.80073 0,2.72316 -0.64102,6.76803 -1.42448,8.9886 -1.45894,4.13509 -1.48807,5.23315 -0.23117,8.71405 0.75999,2.10473 8.39679,8.21473 12.65197,10.1225 4.93991,2.21477 7.34489,5.92973 7.15134,11.04665 -0.0977,2.58174 -0.37788,4.8944 -0.62272,5.13925 -0.24485,0.24484 0.16448,1.62562 0.9096,3.06838 3.63773,7.04362 0.98331,21.50765 -4.58526,24.98527 -1.64241,1.02571 -2.66657,1.04206 -4.98998,0.0797 -1.60789,-0.66601 -3.21551,-0.91884 -3.5725,-0.56185 -0.71117,0.71117 -2.35679,9.75772 -2.44033,13.41533 -0.0288,1.26236 1.1661,4.13651 2.6554,6.387 3.4662,5.23777 4.58913,12.97272 2.82758,19.47684 -0.72111,2.66253 -1.55648,10.69096 -1.85637,17.84096 -0.58396,13.92235 -2.45053,25.31513 -4.01403,24.5 -0.52748,-0.275 -0.8426,-0.84934 -0.70028,-1.27632 0.14233,-0.42697 0.62082,-4.15538 1.06331,-8.28535 0.68494,-6.39272 0.58737,-7.42569 -0.65629,-6.94846 -0.80345,0.30832 -4.6789,0.8326 -8.6121,1.16508 -5.55217,0.46933 -7.856,0.24008 -10.30282,-1.02522 -1.73335,-0.89638 -3.46528,-1.62976 -3.84874,-1.62976 -1.32906,0 0.59158,16.66861 2.58989,22.4768 2.23906,6.50795 2.39388,7.5232 1.14722,7.5232 -0.47342,0 -1.82061,-3.0413 -2.99376,-6.75844 z m 22.29204,-24.64027 c 1.65449,-1.07787 1.9628,-2.5733 2.11055,-10.23695 0.0963,-4.9924 0.73558,-10.02583 1.44083,-11.34359 1.81888,-3.39861 0.62434,-14.29244 -2.0399,-18.60326 -2.27995,-3.68905 -3.40679,-3.76868 -10.66688,-0.75378 -4.82764,2.00477 -20.27657,1.60086 -20.28447,-0.53034 -0.001,-0.34835 3.53587,-0.48858 7.86037,-0.31161 5.51001,0.22549 8.98832,-0.14854 11.62447,-1.25 2.06897,-0.86447 4.58024,-1.57176 5.58062,-1.57176 1.76594,0 3.56965,-1.70057 2.71267,-2.55756 -0.23348,-0.23347 -3.09103,0.28698 -6.35014,1.15655 -6.56776,1.75236 -19.86548,1.3811 -21.80858,-0.60888 -0.83755,-0.85776 0.93361,-0.96853 7.0784,-0.44269 6.53217,0.55898 9.4226,0.33373 14.24191,-1.10988 3.47857,-1.042 6.23053,-2.47506 6.47988,-3.37437 0.23839,-0.85974 0.72563,-3.13817 1.08275,-5.06317 0.35712,-1.925 0.85963,-4.25153 1.11668,-5.17008 0.33653,-1.20256 -0.55237,-2.03881 -3.17541,-2.98732 -2.50526,-0.90591 -4.22091,-2.45049 -5.49422,-4.94639 -2.92,-5.72367 -6.88519,-9.89621 -9.40444,-9.89621 -2.11934,0 -2.3131,0.50966 -2.75627,7.25 -0.35983,5.47297 -1.23326,8.74188 -3.56344,13.33664 -2.85862,5.63677 -9.00432,12.41336 -11.2577,12.41336 -0.53086,0 -0.9652,1.24987 -0.9652,2.77749 0,1.52763 -0.74227,3.83723 -1.64949,5.13247 -0.96229,1.37387 -1.78983,4.9036 -1.98635,8.47251 -0.18529,3.36464 -0.62612,10.08693 -0.97964,14.93841 -0.40108,5.50412 -0.26169,9.20195 0.3707,9.83434 0.5574,0.5574 3.83401,1.26922 7.28135,1.58181 l 6.26788,0.56835 -0.70277,-4.40269 c -0.38652,-2.42148 -1.39098,-5.45423 -2.23212,-6.73945 -1.77003,-2.70449 -1.11475,-4.02659 1.08916,-2.1975 1.71276,1.42146 3.52741,7.20311 3.5357,11.26509 0.005,2.23372 0.87026,3.19146 4.75558,5.26121 4.2133,2.24447 5.54093,2.4649 11.75,1.95094 3.85,-0.31869 7.87189,-1.14745 8.93752,-1.84169 z m -12.9886,-55.53567 c 0.50264,-3.00305 3.33811,-7.61193 4.17074,-6.77929 0.16423,0.16422 -0.83634,2.52948 -2.22349,5.25613 -2.3588,4.6366 -2.48486,4.73521 -1.94725,1.52316 z m 0.55108,-7.91063 c 0,-0.46476 0.9,-1.6595 2,-2.65499 2.24954,-2.03581 2.63642,-0.92217 0.60795,1.75 -1.42121,1.87221 -2.60795,2.28402 -2.60795,0.90499 z m -19.31695,10.59501 c 4.91687,-5.09742 6.63888,-8.34455 8.75404,-16.50721 1.56528,-6.04063 1.29307,-13.67349 -0.52776,-14.79883 -0.45539,-0.28144 -1.74784,0.0628 -2.87211,0.76487 -2.76807,1.72869 -5.12945,0.14412 -6.96251,-4.67206 -1.07927,-2.8357 -1.15301,-4.18175 -0.30357,-5.54191 1.62283,-2.59857 -2.9246,-4.35546 -8.30096,-3.20707 -3.89793,0.8326 -3.96678,0.92372 -3.78316,5.00687 0.1591,3.53802 -0.238,4.46149 -2.66017,6.18622 -1.56595,1.11506 -3.82039,1.91302 -5.00986,1.77325 -6.22233,-0.73116 -9.78298,19.82968 -4.73603,27.34799 3.2644,4.86287 8.3471,7.37784 13.10614,6.48504 7.95029,-1.49149 16.70808,-13.28557 18.19639,-24.50503 0.36802,-2.77422 1.08926,-4.78438 1.60277,-4.46702 1.39871,0.86445 -0.1551,11.25533 -2.40591,16.08922 -1.07672,2.31238 -4.19269,6.47488 -6.92438,9.25 -3.72145,3.78062 -4.50359,5.04567 -3.11955,5.04567 1.01594,0 3.69192,-1.9125 5.94663,-4.25 z m -18.03741,-35.21435 c 1.49891,-1.04988 1.95156,-2.19195 1.59923,-4.03504 -0.31072,-1.62542 0.16246,-3.29323 1.28684,-4.53565 1.73272,-1.91463 1.69578,-1.96496 -1.44246,-1.96496 -4.24078,0 -6.74473,1.43309 -8.52748,4.88055 -1.28428,2.48352 -1.27873,3.07854 0.0464,4.97036 1.75719,2.50873 4.10698,2.73737 7.03751,0.68474 z m 36.21111,-29.58961 c 1.84622,-1.12557 3.58488,-2.91882 3.86369,-3.98502 0.27882,-1.06619 0.85497,-1.72343 1.28034,-1.46053 0.42538,0.26289 0.75333,-0.0797 0.72878,-0.76125 -0.0246,-0.68158 0.0263,-2.53184 0.11291,-4.11168 0.13345,-2.43345 0.38678,-2.68219 1.65753,-1.62756 1.29142,1.07178 1.5,0.68069 1.5,-2.81246 0,-6.80194 -1.33229,-8.93472 -6.19904,-9.92364 -5.40778,-1.09886 -10.48646,0.32648 -12.58721,3.53263 -1.08735,1.65951 -1.591,4.94027 -1.64125,10.69115 -0.0596,6.82111 0.26635,8.67185 1.83249,10.40463 2.39551,2.65041 5.1667,2.66617 9.45176,0.0537 z m 8.75249,22.47805 c -0.84547,-2.20326 0.0831,-3.13179 1.60743,-1.60742 0.83857,0.83857 0.8724,1.49426 0.11611,2.25055 -0.75629,0.75629 -1.25843,0.56892 -1.72354,-0.64313 z m -14.61556,-6.41228 c 0.58523,-1.09351 2.16105,-2.26353 3.50184,-2.60004 1.34078,-0.33652 2.37898,-0.90433 2.3071,-1.26181 -0.30226,-1.50319 1.49086,-6.14996 2.37318,-6.14996 0.85407,0 0.56728,1.79243 -0.92002,5.75 -0.32821,0.87335 0.76777,1.25 3.63723,1.25 2.25884,0 4.10699,0.45 4.10699,1 0,0.55324 -2.62585,1 -5.87755,1 -4.00455,0 -6.27427,0.47801 -7.12245,1.5 -1.8138,2.1855 -3.25018,1.83598 -2.00632,-0.48819 z m 15.00632,0.42245 c 0,-1.62994 2.26525,-4.43426 3.58187,-4.43426 1.27165,0 1.2264,0.39172 -0.28518,2.46858 -1.67515,2.30158 -3.29669,3.26844 -3.29669,1.96568 z m -22.25,-1.82631 c -0.9625,-0.73064 -1.75,-1.61633 -1.75,-1.96819 0,-1.25482 2.54036,-0.56372 5,1.36024 2.28459,1.78703 2.32767,1.9547 0.5,1.94596 -1.1,-0.005 -2.7875,-0.60736 -3.75,-1.33801 z m 5.49055,-4.59438 c -1.43548,-2.29857 -1.60686,-4.01357 -0.40106,-4.01357 0.72692,0 3.16051,4.27122 3.16051,5.54705 0,1.16531 -1.6449,0.2512 -2.75945,-1.53348 z"
       id="path3203"
       inkscape:connector-curvature="0" />
  </g>
</svg>
