<?xml version="1.0" encoding="UTF-8" standalone="no"?>
<!-- Created with Inkscape (http://www.inkscape.org/) -->

<svg
   xmlns:dc="http://purl.org/dc/elements/1.1/"
   xmlns:cc="http://creativecommons.org/ns#"
   xmlns:rdf="http://www.w3.org/1999/02/22-rdf-syntax-ns#"
   xmlns:svg="http://www.w3.org/2000/svg"
   xmlns="http://www.w3.org/2000/svg"
   xmlns:sodipodi="http://sodipodi.sourceforge.net/DTD/sodipodi-0.dtd"
   xmlns:inkscape="http://www.inkscape.org/namespaces/inkscape"
   width="82.408188"
   height="176.7916"
   id="svg2"
   version="1.1"
   inkscape:version="0.48.3.1 r9886"
   sodipodi:docname="One-armed-biased-push-up-2.svg">
  <defs
     id="defs4" />
  <sodipodi:namedview
     id="base"
     pagecolor="#ffffff"
     bordercolor="#666666"
     borderopacity="1.0"
     inkscape:pageopacity="0.0"
     inkscape:pageshadow="2"
     inkscape:zoom="1.979899"
     inkscape:cx="2.7859518"
     inkscape:cy="13.743348"
     inkscape:document-units="px"
     inkscape:current-layer="layer1"
     showgrid="false"
     fit-margin-top="0"
     fit-margin-left="0"
     fit-margin-right="0"
     fit-margin-bottom="0"
     inkscape:window-width="1378"
     inkscape:window-height="738"
     inkscape:window-x="-223"
     inkscape:window-y="134"
     inkscape:window-maximized="0" />
  <metadata
     id="metadata7">
    <rdf:RDF>
      <cc:Work
         rdf:about="">
        <dc:format>image/svg+xml</dc:format>
        <dc:type
           rdf:resource="http://purl.org/dc/dcmitype/StillImage" />
        <dc:title></dc:title>
      </cc:Work>
    </rdf:RDF>
  </metadata>
  <g
     inkscape:label="Ebene 1"
     inkscape:groupmode="layer"
     id="layer1"
     transform="translate(-832.17056,-657.6952)">
    <path
       style="fill:#000000"
       d="m 871.68837,827.23525 c -1.21491,-3.84945 -2.03174,-8.01195 -1.81518,-9.25 0.45246,-2.58673 0.49197,-2.50114 3.60968,7.81995 2.40649,7.96658 2.47645,8.42905 1.27518,8.42905 -0.47342,0 -1.85478,-3.14955 -3.06968,-6.999 z m -15.37795,-3.751 c -0.23453,-0.4125 -0.97674,-3.73293 -1.64936,-7.37874 -0.99871,-5.4133 -1.75667,-7.02334 -4.13375,-8.78078 -1.60093,-1.18363 -4.3579,-4.95069 -6.12658,-8.37126 -2.70488,-5.23113 -3.22105,-7.33136 -3.24886,-13.21922 -0.0182,-3.85 0.52865,-8.35 1.21518,-10 0.80136,-1.92598 0.95508,-4.07225 0.42937,-5.99508 -0.48338,-1.76799 -0.39567,-4.11625 0.21407,-5.73165 0.73606,-1.95003 0.6845,-4.03935 -0.17937,-7.26927 -1.92876,-7.21142 -1.55416,-17.9136 0.78769,-22.504 1.1,-2.15618 2,-4.80094 2,-5.87726 0,-1.07631 0.89953,-4.05544 1.99895,-6.62029 1.40989,-3.28914 1.81909,-5.78817 1.3886,-8.48033 -0.3357,-2.09933 -0.0828,-5.41563 0.5621,-7.36956 1.28706,-3.89984 7.12588,-9.64155 9.83515,-9.67156 2.73345,-0.0303 11.2152,-5.81886 11.2152,-7.6541 0,-0.91818 -0.7875,-2.54092 -1.75,-3.60609 -1.4023,-1.55188 -1.73776,-3.70521 -1.68837,-10.83795 0.0739,-10.68069 1.67488,-13.61886 8.53417,-15.66266 12.09159,-3.60282 19.24411,6.06204 14.47972,19.56575 -2.55601,7.2445 -1.07639,10.13866 8.23659,16.11087 10.04083,6.43897 10.91116,7.29425 12.00806,11.80043 4.49531,18.46718 4.89193,22.77692 3.26006,35.42367 -0.74067,5.74012 -1.58927,7.66909 -6.37886,14.5 -5.82184,8.30308 -19.54197,22.3684 -21.84479,22.39439 -3.22603,0.0364 -3.81691,1.41924 -2.35744,5.51711 4.55854,12.79934 -1.5698,27.52461 -12.70276,30.52241 -3.47541,0.93583 -4.95805,0.79987 -9.49243,-0.87048 -4.80157,-1.76877 -5.32667,-1.80411 -4.93178,-0.33194 0.24307,0.90617 0.73013,2.99759 1.08237,4.64759 0.35224,1.65 0.87439,3.7875 1.16033,4.75 0.50413,1.69689 -1.06358,2.51202 -1.92326,1 z M 873.534,810.4827 c 5.7539,-2.94577 7.25934,-7.09566 6.87062,-18.93945 -0.18397,-5.60505 -0.6855,-10.54202 -1.11452,-10.97104 -1.14039,-1.14039 -2.76974,1.90199 -1.96122,3.66204 2.4957,5.43277 0.66689,21.73078 -2.55718,22.78918 -1.02794,0.33745 -1.11055,1.9e-4 -0.34869,-1.42348 1.55667,-2.90891 2.46635,-10.80487 1.74007,-15.10369 -0.59807,-3.53993 -0.90658,-3.8631 -3.35149,-3.51065 -2.05379,0.29606 -3.49224,-0.44003 -6.06176,-3.10196 -2.79936,-2.90002 -3.35891,-4.21997 -3.30941,-7.80667 0.0651,-4.71899 -1.93106,-7.84273 -5.01178,-7.84273 -1.57032,0 -1.70379,0.32962 -0.80983,2 2.35643,4.40304 -2.51663,7.82696 -9.52176,6.69018 -3.27505,-0.53147 -3.44284,-0.40487 -4.14591,3.12797 -2.48982,12.51091 3.32608,24.78551 14.1268,29.81498 6.01227,2.79967 10.81588,2.99091 15.45606,0.61532 z m 0.0848,-27.68112 c 0,-1.8619 4.70331,-5.86873 5.96995,-5.0859 2.57981,1.59441 16.26518,-10.15128 22.46335,-19.27955 2.50285,-3.68603 5.23831,-7.64536 6.07881,-8.79851 3.7977,-5.2104 5.7851,-25.69719 3.08025,-31.75224 -0.7742,-1.73312 -1.62856,-5.04256 -1.89856,-7.3543 -0.68061,-5.82725 -3.9836,-9.98645 -10.30906,-12.98141 -6.04211,-2.86081 -11.19191,-8.10129 -12.01747,-12.22908 l -0.54996,-2.7498 -2.75819,2.75819 c -1.51701,1.517 -4.4009,3.06636 -6.40866,3.44302 -3.39326,0.63658 -3.65046,0.93706 -3.65046,4.26467 0,3.28381 -0.11379,3.42422 -1.37604,1.69799 -1.32054,-1.80595 -1.62642,-1.7327 -7.5838,1.8161 -3.41427,2.03387 -6.61075,3.44888 -7.10329,3.14447 -1.72946,-1.06886 -4.78234,1.55567 -5.56095,4.7807 -0.43266,1.79208 -0.83981,5.73332 -0.9048,8.75832 -0.12486,5.81234 -3.49264,19.20715 -6.09386,24.23736 -1.64284,3.1769 -1.28168,11.90448 0.76564,18.5021 0.70757,2.28018 0.64399,4.85373 -0.21469,8.69074 -0.97136,4.34046 -0.9626,6.07256 0.043,8.50021 1.08095,2.60965 1.64227,2.95846 3.89586,2.42093 4.72744,-1.12758 6.35442,-2.36517 5.49258,-4.17803 -0.43753,-0.92032 -0.74869,-3.68619 -0.69148,-6.14637 0.0687,-2.95563 -0.41455,-4.85224 -1.42459,-5.5908 -1.21113,-0.8856 -1.38208,-2.24116 -0.82313,-6.52694 0.38801,-2.97506 1.05197,-8.1092 1.47546,-11.4092 0.42349,-3.3 1.71473,-8.10381 2.86942,-10.67514 2.07139,-4.61265 2.0748,-4.74 0.25497,-9.5294 -1.45982,-3.84193 -1.6611,-5.83589 -0.96514,-9.56117 0.99124,-5.30585 3.5049,-10.73429 4.97055,-10.73429 1.45675,0 1.21879,0.74634 -1.52568,4.78519 -4.59985,6.76928 -2.3795,15.21481 4,15.21481 3.06649,0 3.23462,1.18755 0.35575,2.51287 -3.24001,1.49157 -5.75199,8.99866 -4.8476,14.48713 0.58865,3.57231 0.77596,3.88154 0.9086,1.5 l 0.16708,-3 1.91617,3.5 c 2.18898,3.99831 2.56326,5.96326 0.8,4.2 -2.02245,-2.02245 -2.54275,-1.37941 -2.63583,3.25768 -0.10408,5.18534 1.79039,9.39346 5.04121,11.19782 3.51701,1.95212 15.46956,1.74777 16.60655,-0.28392 0.6497,-1.16095 1.11927,-1.29191 1.63578,-0.45619 1.14853,1.85836 -1.40548,4.07546 -4.82016,4.18429 -1.72015,0.0548 -4.22262,0.40555 -5.56104,0.77938 -2.25383,0.62953 -2.12841,0.78039 1.69885,2.0435 4.00382,1.32138 4.2391,1.27382 7.56568,-1.52938 1.88834,-1.59125 4.35601,-4.91818 5.48371,-7.39318 5.82124,-12.77608 6.84708,-15.68552 6.18491,-17.54147 -0.38432,-1.07719 -0.79375,-4.87331 -0.90983,-8.43582 -0.11609,-3.56251 -0.37025,-6.63646 -0.5648,-6.83102 -0.19456,-0.19455 -1.24015,0.12067 -2.32355,0.70048 -1.18352,0.6334 -4.62972,0.80583 -8.63335,0.43196 -5.16525,-0.48234 -6.99008,-1.08846 -8.11583,-2.6957 -2.08892,-2.98234 -1.78775,-4.24199 0.51578,-2.15731 1.1689,1.05783 3.70687,1.83564 6.25,1.91542 2.35506,0.0739 4.88733,0.52021 5.62727,0.99184 0.80768,0.51481 2.40629,0.32405 4,-0.47731 1.46006,-0.73415 2.76035,-1.38043 2.88953,-1.43616 0.12918,-0.0557 -0.65832,-1.85329 -1.75,-3.99457 -1.87729,-3.68219 -2.53673,-6.47034 -1.53034,-6.47034 0.25,0 1.6,1.14545 3,2.54545 2.28323,2.28323 2.54704,3.33916 2.56077,10.25 0.008,4.23751 0.45153,8.37955 0.98469,9.20455 0.82843,1.2819 0.9716,1.24555 0.98469,-0.25 0.008,-0.9625 0.44411,-1.75 0.96819,-1.75 1.13511,0 0.18609,9.97159 -1.10602,11.62139 -0.48305,0.61676 -1.5401,3.34999 -2.349,6.07384 -1.38991,4.68034 -9.41256,17.32923 -12.74572,20.09551 -1.2502,1.03757 -2.34448,0.99232 -5.89369,-0.24375 -5.06551,-1.76413 -6.19196,-1.89563 -5.41078,-0.63166 0.31114,0.50343 -0.56231,2.25589 -1.94098,3.89435 -3.25217,3.86499 -3.21415,7.84246 0.10812,11.31016 2.54849,2.66004 5.38519,2.89576 5.38519,0.44749 z m -11.19179,-31.08439 c -0.25389,-2.17475 -0.009,-3.38575 0.6406,-3.17299 1.33153,0.43584 2.00832,6.69005 0.72395,6.69005 -0.52467,0 -1.13872,-1.58268 -1.36455,-3.51706 z m 7.19179,2.01706 c 0,-0.825 0.3949,-1.5 0.87755,-1.5 0.48266,0 1.43776,0.675 2.12245,1.5 1.04007,1.2532 0.89568,1.5 -0.87756,1.5 -1.21995,0 -2.12244,-0.63782 -2.12244,-1.5 z m 12.50869,-4.25 c 0.365,-1.82439 0.23755,-3.25 -0.29056,-3.25 -0.51743,0 -0.7519,-1.0125 -0.52105,-2.25 0.5709,-3.06031 -1.58432,-5.6827 -5.19922,-6.32623 -1.64882,-0.29352 -3.65679,-1.18395 -4.46215,-1.97872 -1.28286,-1.26602 -1.19726,-1.44505 0.69099,-1.44505 1.18539,0 2.43338,0.45 2.7733,1 0.33992,0.55 1.88638,1 3.43657,1 3.68924,0 4.91873,1.67307 4.54501,6.18478 -0.23528,2.84047 0.0183,3.56064 1.1066,3.14301 1.97563,-0.75812 1.74891,0.66314 -0.66554,4.17221 l -2.06417,3 0.65022,-3.25 z m -17.21213,-2.57917 c -0.36016,-0.58276 0.238,-0.7643 1.46288,-0.44399 1.96008,0.51257 2.04222,0.23706 1.51832,-5.09248 -0.30463,-3.0989 -0.6782,-5.78332 -0.83017,-5.96538 -0.15196,-0.18206 -1.10874,0.11449 -2.12616,0.659 -2.91787,1.56159 -5.64757,-0.90382 -4.37836,-3.95446 1.28041,-3.07759 4.57583,-6.87352 5.96722,-6.87352 1.86898,0 1.20642,1.45222 -1.91029,4.18709 -2.5253,2.21591 -4.10141,5.81291 -2.54705,5.81291 2.01722,0 5.50416,-2.69298 5.98918,-4.62547 1.17206,-4.66984 2.11959,-2.25296 1.83353,4.67681 -0.32064,7.76751 0.77169,10.94866 3.75952,10.94866 1.08065,0 1.96482,0.42449 1.96482,0.94331 0,1.24866 -9.91939,0.99613 -10.70344,-0.27248 z m 36.70344,-1.58927 c 0,-0.50514 1.5778,-1.89358 3.50623,-3.08541 2.0342,-1.25721 3.21716,-2.6347 2.81768,-3.28106 -0.3787,-0.61275 -0.81014,-2.03682 -0.95875,-3.16459 -0.14861,-1.12778 -0.55465,-3.42445 -0.9023,-5.10372 -0.46729,-2.25715 -0.0234,-4.00604 1.70252,-6.70767 1.28404,-2.00995 2.7209,-3.6735 3.19303,-3.69678 1.20641,-0.0595 -0.2228,5.13414 -1.93632,7.03641 -1.82971,2.03126 -1.8017,5.6698 0.0713,9.26091 1.71877,3.29543 0.91356,5.50847 -2.91758,8.01873 -2.79218,1.82951 -4.57579,2.1114 -4.57579,0.72318 z m -13.75758,-9.77853 c 1.48334,-1.48333 3.00785,-2.38609 3.38781,-2.00613 0.97052,0.97052 -2.61079,4.7031 -4.51249,4.7031 -1.1517,0 -0.85085,-0.72144 1.12468,-2.69697 z m -10.05566,-4.60424 c -2.02472,-2.15521 -2.91418,-4.69879 -1.64312,-4.69879 0.29901,0 1.74762,1.11639 3.21914,2.48086 1.83962,1.70579 2.35296,2.8034 1.64312,3.51324 -0.70985,0.70985 -1.71558,0.30517 -3.21914,-1.29531 z m 6.81324,0.87445 c 0,-0.23471 1.35,-1.10022 3,-1.92335 3.07562,-1.53432 3.9352,-0.98509 1.8,1.15011 -1.12255,1.12255 -4.8,1.71495 -4.8,0.77324 z m 17.03596,-13.60073 c -0.0439,-1.86538 2.72104,-5.97251 4.02074,-5.97251 1.53286,0 1.08844,1.31082 -1.5257,4.5 -1.5955,1.94646 -2.4717,2.46358 -2.49504,1.47251 z m -29.46093,-16.03194 c -1.05873,-1.06732 -2.85873,-1.96909 -4,-2.00396 -1.89849,-0.058 -1.87111,-0.14495 0.32181,-1.02209 1.82209,-0.72882 2.83673,-0.56063 4.23124,0.7014 1.47283,1.33288 2.126,1.4181 3.31378,0.43233 1.55894,-1.29381 10.10802,-1.8317 11.23296,-0.70676 1.21022,1.21022 -0.62926,1.98428 -4.38031,1.84327 -2.04293,-0.0768 -4.72911,0.52521 -5.96928,1.3378 -2.70237,1.77066 -2.3769,1.81053 -4.7502,-0.58199 z m 16.45677,-0.16752 c -0.0367,-1.993 4.28984,-5.16584 6.18349,-4.53462 0.78896,0.26298 0.32207,0.93664 -1.21795,1.75736 -1.37354,0.73199 -3.04553,2.04489 -3.71554,2.91755 -1.10013,1.43288 -1.22128,1.41929 -1.25,-0.14029 z m -8,-6.33192 c -0.0175,-0.58238 0.62889,-1.93238 1.4364,-3 0.8075,-1.06762 1.4825,-1.46464 1.5,-0.88226 0.0175,0.58238 -0.62889,1.93238 -1.4364,3 -0.80751,1.06762 -1.48251,1.46464 -1.5,0.88226 z m -15.5318,71.24659 c -2.71527,-1.61249 -8.44807,-2.58077 -9.0938,-1.53595 -0.28833,0.46652 0.85232,0.84823 2.53478,0.84823 1.68246,0 3.84652,0.8325 4.80902,1.85 1.08501,1.14701 2.13,1.50334 2.75,0.93772 0.64725,-0.59047 0.2945,-1.33124 -1,-2.1 z m 3.5,-3.1743 c 0,-0.26762 -1.4625,-1.10551 -3.25,-1.86198 -5.32136,-2.25201 -6.91475,-4.83476 -7.50287,-12.16154 -0.6085,-7.58053 -1.37395,-7.38858 -3.2596,0.81741 l -1.33446,5.8073 3.08588,3.08588 c 1.79926,1.79926 4.6859,3.39516 6.92346,3.82769 5.32246,1.02885 5.33759,1.03023 5.33759,0.48524 z m 11.85675,-78.56738 c 1.84622,-1.12557 3.58488,-2.91882 3.86369,-3.98501 0.27882,-1.0662 0.85497,-1.72344 1.28034,-1.46054 0.42538,0.26289 0.75333,-0.0797 0.72878,-0.76125 -0.0246,-0.68158 0.0263,-2.53184 0.11291,-4.11168 0.13345,-2.43345 0.38677,-2.68219 1.65753,-1.62756 1.29142,1.07178 1.5,0.68069 1.5,-2.81246 0,-6.80195 -1.33229,-8.93472 -6.19904,-9.92364 -5.40778,-1.09887 -10.48646,0.32648 -12.58721,3.53263 -1.08735,1.65951 -1.591,4.94027 -1.64125,10.69115 -0.0596,6.82111 0.26635,8.67185 1.83249,10.40463 2.39551,2.65041 5.1667,2.66617 9.45176,0.0537 z m 12.89548,137.47286 c -0.33793,-0.33794 -0.40102,-1.17056 -0.14019,-1.85027 0.26083,-0.67972 0.81915,-4.46385 1.24071,-8.4092 0.66738,-6.24596 0.56484,-7.11725 -0.79314,-6.73944 -4.40932,1.22675 -10.05961,1.66199 -10.05961,0.7749 0,-1.27179 2.46422,-2.19489 5.85928,-2.19489 1.48264,0 3.71732,-0.71557 4.96597,-1.59015 1.95076,-1.36637 2.18408,-2.17557 1.65793,-5.75 -0.33679,-2.28792 -0.0766,-6.85985 0.57812,-10.15985 0.65475,-3.3 1.31033,-8.68384 1.45685,-11.96409 0.14652,-3.28025 0.71328,-6.11305 1.25946,-6.29511 1.60775,-0.53592 1.92487,6.36012 0.52901,11.50376 -0.70978,2.61549 -1.50026,10.28711 -1.75662,17.04803 -0.61764,16.28881 -2.74932,27.67476 -4.79777,25.62631 z"
       id="path3205"
       inkscape:connector-curvature="0" />
  </g>
</svg>
