<?xml version="1.0" encoding="UTF-8" standalone="no"?>
<!-- Created with Inkscape (http://www.inkscape.org/) -->

<svg
   xmlns:dc="http://purl.org/dc/elements/1.1/"
   xmlns:cc="http://creativecommons.org/ns#"
   xmlns:rdf="http://www.w3.org/1999/02/22-rdf-syntax-ns#"
   xmlns:svg="http://www.w3.org/2000/svg"
   xmlns="http://www.w3.org/2000/svg"
   xmlns:sodipodi="http://sodipodi.sourceforge.net/DTD/sodipodi-0.dtd"
   xmlns:inkscape="http://www.inkscape.org/namespaces/inkscape"
   width="143.76321"
   height="262.50412"
   id="svg2"
   version="1.1"
   inkscape:version="0.48.3.1 r9886"
   sodipodi:docname="Seated-triceps-press-2.svg">
  <defs
     id="defs4" />
  <sodipodi:namedview
     id="base"
     pagecolor="#ffffff"
     bordercolor="#666666"
     borderopacity="1.0"
     inkscape:pageopacity="0.0"
     inkscape:pageshadow="2"
     inkscape:zoom="1.979899"
     inkscape:cx="38.27074"
     inkscape:cy="111.85669"
     inkscape:document-units="px"
     inkscape:current-layer="layer1"
     showgrid="false"
     fit-margin-top="0"
     fit-margin-left="0"
     fit-margin-right="0"
     fit-margin-bottom="0"
     inkscape:window-width="1378"
     inkscape:window-height="738"
     inkscape:window-x="-220"
     inkscape:window-y="178"
     inkscape:window-maximized="0" />
  <metadata
     id="metadata7">
    <rdf:RDF>
      <cc:Work
         rdf:about="">
        <dc:format>image/svg+xml</dc:format>
        <dc:type
           rdf:resource="http://purl.org/dc/dcmitype/StillImage" />
        <dc:title></dc:title>
      </cc:Work>
    </rdf:RDF>
  </metadata>
  <g
     inkscape:label="Ebene 1"
     inkscape:groupmode="layer"
     id="layer1"
     transform="translate(-2503.9355,-134.0862)">
    <path
       style="fill:#000000"
       d="m 2559.6144,393.97111 c -1.5125,-1.12845 -2.75,-2.93654 -2.75,-4.01798 0,-1.08144 -0.6749,-3.27129 -1.4997,-4.86634 -1.957,-3.78438 -2.7334,-8.97895 -2.5419,-17.00751 0.085,-3.5788 -0.6976,-10.33357 -1.7397,-15.0106 -1.8628,-8.35974 -1.8624,-8.61354 0.019,-14.99308 4.3627,-14.79012 3.6577,-28.43835 -1.5069,-29.17232 -1.8884,-0.26837 -2.3308,-1.13364 -2.8799,-5.63249 -0.3568,-2.92347 -0.8608,-5.52746 -1.12,-5.78665 -0.2592,-0.25919 -2.8923,0.49691 -5.8513,1.68021 -2.959,1.18331 -8.305,3.19949 -11.88,4.4804 -3.575,1.28092 -9.5984,3.49392 -13.3852,4.91778 -6.4868,2.439 -6.9932,2.49117 -8.75,0.90127 -2.3449,-2.12209 -2.3975,-5.60317 -0.1148,-7.59332 0.9625,-0.83914 4.8198,-2.53133 8.5719,-3.76043 3.752,-1.2291 6.9799,-2.74978 7.1732,-3.37929 0.1933,-0.62951 0.5432,-6.09456 0.7777,-12.14456 l 0.4263,-11 -5.3495,-4.29727 c -4.1938,-3.36885 -5.3496,-4.90875 -5.3496,-7.12756 0,-3.57934 1.2821,-4.58758 7.5,-5.89794 7.1044,-1.49718 7.8412,0.28069 0.8241,1.98836 -7.8495,1.91025 -8.2386,4.16787 -1.629,9.45154 2.6427,2.11253 9.0482,7.44622 14.2345,11.85264 7.378,6.26856 9.257,7.46976 8.6365,5.52095 -1.3782,-4.3281 -1.8324,-10.70352 -0.6405,-8.99072 0.5741,0.825 1.0507,2.5125 1.0591,3.75 0.01,1.2375 0.2699,2.25 0.581,2.25 1.1424,0 4.9959,-2.30606 7.1843,-4.29928 2.8079,-2.55752 2.8676,-4.30595 0.171,-5.01112 -1.6237,-0.42461 -2.3815,0.15201 -3.4608,2.63337 -1.3293,3.05612 -1.3834,3.07964 -1.4211,0.61816 -0.021,-1.40738 0.5234,-3.29801 1.2109,-4.20141 1.1258,-1.47929 1.831,-1.50505 7.0954,-0.25914 3.2151,0.76087 6.432,1.15832 7.1489,0.88323 0.7169,-0.27508 1.5805,-0.0519 1.9191,0.49602 0.8253,1.33544 -2.9847,2.46458 -5.8715,1.74006 -1.648,-0.41363 -2.4878,-0.08 -2.9188,1.1597 -0.3329,0.95723 -2.0052,3.9786 -3.7164,6.71416 -2.7975,4.47222 -3.0711,5.60276 -2.714,11.21162 0.2185,3.43082 0.696,6.53664 1.0612,6.90181 0.3651,0.36518 1.8474,-0.74255 3.2939,-2.46161 2.4149,-2.86991 3.1275,-3.12557 8.7124,-3.12557 4.2563,0 6.6313,0.49684 7.9111,1.65499 1.7167,1.55363 1.8287,1.52579 1.8287,-0.45469 0,-3.27016 6.25,-4.13094 9.9785,-1.3743 l 2.8129,2.07966 0.5907,-2.20283 c 0.3248,-1.21156 0.5967,-3.72454 0.6043,-5.58441 0.011,-2.6419 0.9549,-4.32285 4.3168,-7.68482 3.9193,-3.91926 4.1201,-4.35246 2.25,-4.85477 -1.1292,-0.30334 -3.5157,-0.55767 -5.3032,-0.56518 -1.7875,-0.008 -3.25,-0.52776 -3.25,-1.15611 0,-0.80243 1.8302,-0.95116 6.1492,-0.49973 6.8687,0.71791 15.919,4.83735 23.9299,10.89219 2.7288,2.0625 5.3417,3.75 5.8063,3.75 1.8997,0 6.2603,4.41293 7.6521,7.74399 1.036,2.47958 1.3159,5.40908 0.9225,9.65761 -0.3105,3.35412 -0.1811,13.2312 0.2875,21.94908 l 0.8521,15.85067 6.5906,6.39933 c 4.4466,4.31751 7.3846,6.39932 9.0312,6.39932 2.631,0 5.5367,3.9643 4.3331,5.91176 -2.5173,4.0731 -12.0399,4.95793 -18.3324,1.70341 -2.2124,-1.14431 -4.3781,-1.48893 -6.663,-1.06028 -8.0672,1.51342 -10.1468,-1.82989 -7.8929,-12.68925 1.7322,-8.34572 1.3296,-13.37679 -1.6214,-20.26106 -1.3972,-3.2597 -2.0448,-6.94221 -2.0448,-11.62847 0,-9.73483 1.6209,-9.51704 2.2398,0.30095 0.3645,5.78374 1.1796,9.48795 2.7478,12.48751 1.9672,3.7628 2.1519,5.17475 1.5699,12 -0.3627,4.25449 -0.7491,9.98543 -0.8585,12.73543 l -0.199,5 5.8483,0.16941 c 3.2166,0.0932 7.0416,0.63362 8.5,1.201 7.4856,2.91213 19.715,0.20088 13.0922,-2.90253 -6.3189,-2.96101 -9.0689,-4.93815 -13.2892,-9.55447 l -4.8487,-5.30366 -0.7945,-12.97758 c -0.437,-7.13767 -1.0616,-13.40966 -1.3879,-13.93775 -0.3264,-0.52809 -0.144,-4.54478 0.4054,-8.92597 1.1957,-9.53655 -0.274,-14.40021 -5.1644,-17.08976 -1.6787,-0.92328 -4.6369,-2.90884 -6.5737,-4.41237 -4.024,-3.12385 -12.7876,-7.5923 -16.1661,-8.24295 -1.2555,-0.24178 -3.1847,0.10406 -4.2872,0.76852 -2.807,1.69177 -6.8342,9.97314 -6.8342,14.05355 0,4.13207 2.3684,5.33243 11.6279,5.89332 3.9679,0.24035 7.1016,1.05679 8.8903,2.31622 4.6651,3.28481 4.895,3.41533 7.8946,4.48278 2.2106,0.78664 2.6331,1.31638 1.7523,2.19711 -0.8807,0.88072 -2.3666,0.50915 -6.1628,-1.54112 -4.6067,-2.488 -5.0023,-2.55287 -5.0023,-0.82015 0,1.03483 -0.5625,2.32606 -1.25,2.86939 -1.3129,1.03762 -15.9356,5.63466 -21.5,6.75915 l -3.25,0.65677 0,13.39539 0,13.39539 8.2155,-3.02916 c 11.047,-4.07314 16.1503,-2.94435 14.8752,3.29016 -0.6005,2.9366 -1.3385,3.44059 -9.6206,6.57062 -7.5969,2.8711 -18.5548,7.08875 -23.2201,8.93736 -0.6875,0.27242 -1.2479,-0.11534 -1.2453,-0.86168 0,-0.81534 4.2937,-2.91129 10.75,-5.25098 17.121,-6.20449 21.2453,-8.23001 21.2453,-10.43405 0,-3.0898 -3.0908,-3.10482 -12.0937,-0.0588 -4.6235,1.56431 -8.9688,2.85379 -9.6563,2.8655 -0.9435,0.0161 -1.2554,-3.59565 -1.2722,-14.7287 -0.022,-14.31845 -0.074,-14.68263 -1.794,-12.44739 -2.7134,3.52631 -5.5461,14.09292 -5.34,19.91903 0.1015,2.87191 -0.7759,8.92708 -1.9498,13.45595 -3.5603,13.73505 -1.3307,23.14183 8.2484,34.80025 3.2358,3.93814 3.7334,7.81387 1.1076,8.62654 -0.9625,0.29789 -2.5314,0.95877 -3.4864,1.46862 -3.0811,1.64485 -10.072,1.00662 -13.0136,-1.18809 z m 10.3438,-0.93508 c 3.1323,-1.67638 1.4064,-2.64453 -4.1245,-2.31368 -3.5143,0.21022 -4.997,-0.053 -4.7346,-0.8403 0.2102,-0.63051 2.5772,-1.23887 5.26,-1.35191 3.8604,-0.16267 5.2223,0.21991 6.5296,1.83437 1.9618,2.4227 4.4939,1.5133 3.0322,-1.089 -0.5219,-0.92912 -2.2362,-3.16589 -3.8096,-4.9706 -8.0478,-9.23081 -11.4916,-24.05252 -7.8215,-33.66243 1.0079,-2.63912 1.5569,-6.36738 1.3608,-9.24024 l -0.3288,-4.81604 -0.7863,4 c -0.4325,2.2 -0.994,5.0125 -1.2478,6.25 -0.2538,1.2375 -0.964,2.25 -1.5783,2.25 -1.6149,0 -0.3251,-8.07498 1.9432,-12.16471 4.9656,-8.95325 7.2226,-21.8545 4.7821,-27.33529 -0.7594,-1.70541 -0.4857,-1.63176 1.858,0.5 l 2.7485,2.5 -0.6834,-4 c -0.3759,-2.2 -1.8948,-6.025 -3.3754,-8.5 -2.5944,-4.33694 -2.8848,-4.51109 -8.0143,-4.80605 -4.0251,-0.23146 -5.8057,0.13142 -7.3056,1.48881 -3.9572,3.58121 -4.0352,4.90493 -0.6797,11.54725 2.5664,5.08043 3.2219,7.69291 3.4547,13.76999 0.158,4.125 0.9594,9.37182 1.7808,11.65959 1.9153,5.33393 0.6995,6.70217 -1.4755,1.66053 l -1.648,-3.82012 -1.2568,3 c -2.1682,5.1754 -2.3543,13.69254 -0.4393,20.11439 1.0503,3.52236 1.718,8.87193 1.6628,13.32294 -0.061,4.93951 0.5619,9.37893 1.8554,13.21846 1.0711,3.17961 1.9475,6.43765 1.9475,7.24008 0,1.91447 4.7408,5.60413 7.2006,5.60413 1.062,0 2.8139,-0.47258 3.8932,-1.05017 z m -13.0541,-18.44983 c -0.038,-1.18723 3.7036,-7.5 4.4456,-7.5 0.2831,0 0.5125,0.5625 0.5097,1.25 -0.01,1.50077 -4.9091,7.68493 -4.9553,6.25 z m 5.9603,-49.5 c 0,-0.55 0.9,-1 2,-1 1.1,0 2,0.45 2,1 0,0.55 -0.9,1 -2,1 -1.1,0 -2,-0.45 -2,-1 z m -2.2903,-12.62361 c -0.353,-0.35304 0.4916,-1.53346 1.8769,-2.62315 3.2693,-2.57162 4.0969,-1.74398 1.0853,1.0853 -1.2762,1.19886 -2.6091,1.8909 -2.9622,1.53785 z m 29.2422,-2.84219 c 10.6395,-2.95416 12.0588,-3.77742 11.3282,-6.57097 -0.4124,-1.57704 -1.3819,-1.96323 -4.9288,-1.96323 -2.4286,0 -6.0648,-0.6891 -8.0805,-1.53134 -2.0158,-0.84224 -4.2506,-1.30666 -4.9662,-1.03204 -0.7157,0.27462 -2.7102,-0.87804 -4.4323,-2.56146 l -3.1311,-3.06077 -2.0397,2.03966 c -1.9806,1.9806 -1.9913,2.18927 -0.3706,7.20764 0.918,2.84239 1.6691,6.66789 1.6691,8.50113 0,3.18007 0.1263,3.29325 2.75,2.46447 1.5125,-0.47777 7.0034,-2.04966 12.2019,-3.49309 z m -72.9519,-4.10618 c 5.225,-1.94906 12.425,-4.58891 16,-5.86632 11.1034,-3.96743 12,-4.55242 12,-7.8292 0,-2.40986 -0.3187,-2.81723 -1.75,-2.2368 -5.9454,2.41106 -12.1658,4.25512 -12.6661,3.7549 -0.3211,-0.32117 -0.5839,-3.9243 -0.5839,-8.00697 0,-6.47515 -0.2873,-7.66273 -2.25,-9.30007 -1.2375,-1.03236 -2.5728,-1.89199 -2.9672,-1.91029 -0.3945,-0.0183 -0.8445,5.00417 -1,11.16103 l -0.2828,11.1943 -8,3.19767 c -7.3992,2.95754 -8.0235,3.43107 -8.3134,6.3057 -0.1723,1.70942 -0.1723,3.10168 0,3.09392 0.1724,-0.008 4.5884,-1.6088 9.8134,-3.55787 z m 21.75,-16.12533 c 3.1728,-0.75562 2.856,-1.5652 -2.25,-5.74918 l -4.5,-3.68741 0,5.68358 c 0,5.43405 0.099,5.65296 2.25,4.98622 1.2375,-0.38355 3.2625,-0.9385 4.5,-1.23321 z m 8.6316,-8.85463 c 0.3415,-0.88992 0.1738,-1.29132 -0.3931,-0.94098 -0.5437,0.33602 -0.9885,1.0344 -0.9885,1.55194 0,1.43843 0.7168,1.12146 1.3816,-0.61096 z m 72.2851,72.88527 c -0.3667,-0.36666 -0.6206,-2.05416 -0.5643,-3.75 l 0.1023,-3.08333 0.8211,3.49322 c 0.8555,3.63956 0.7666,4.46588 -0.3591,3.34011 z m -12.1667,-53.74866 c -3.9197,-3.14283 -2.5981,-4.45642 1.4629,-1.454 2.4646,1.82215 3.479,2.07419 4.8286,1.19966 1.8045,-1.1693 1.9452,-2.27557 0.8055,-6.33033 l -0.7027,-2.5 2.0528,2.36078 c 2.5385,2.91919 2.6105,5.32463 0.2242,7.48423 -2.5329,2.29223 -5.1504,2.06272 -8.6713,-0.76034 z m -51.5,-15.49823 c 0,-0.57658 1.2375,-1.31949 2.75,-1.65091 1.5125,-0.33142 3.3125,-0.77587 4,-0.98767 0.6875,-0.2118 1.25,0.0205 1.25,0.51614 0,0.82087 -0.7905,1.16019 -6.25,2.68273 -0.9625,0.26843 -1.75,0.0163 -1.75,-0.56029 z m 21.0318,-3.75465 c -0.052,-1.89979 1.1134,-4.33179 2.0752,-4.33179 1.3106,0 1.0915,1.35528 -0.5752,3.55887 -0.8075,1.06762 -1.4825,1.41543 -1.5,0.77292 z m -17.6722,-3.17669 c 2.7722,-3.06318 12.6942,-7.50127 13.954,-6.24153 0.7819,0.78191 0.6635,1.08643 -0.4224,1.08643 -0.8299,0 -4.1244,1.575 -7.3212,3.5 -6.4084,3.85894 -8.7758,4.48987 -6.2104,1.6551 z m 4.3526,0.73272 c 1.1659,-1.16592 11.5322,-4.86356 12.1379,-4.32957 0.9027,0.79584 -1.2011,2.44552 -3.1591,2.47719 -1.2051,0.0195 -3.316,0.67854 -4.691,1.46456 -3.0933,1.76829 -5.9243,2.02435 -4.2878,0.38782 z m 15.1235,-10.02664 -2.4205,-3.13882 -6.3196,2.24372 c -5.7813,2.05257 -6.9555,2.14915 -13.783,1.13369 -4.1048,-0.61051 -8.3612,-1.59061 -9.4588,-2.17799 -1.6615,-0.88922 -2.4019,-0.59547 -4.4234,1.75512 -2.7627,3.21227 -3.1243,2.56569 -0.9341,-1.66981 0.8569,-1.65694 1.1005,-3.13827 0.57,-3.4661 -0.5095,-0.31488 -1.2352,-3.15292 -1.6127,-6.30675 -0.3775,-3.15383 -1.444,-6.63424 -2.3702,-7.73424 -5.3865,-6.3978 -11.0066,-19.21847 -10.2193,-23.31275 0.1388,-0.72201 -0.9449,-3.3558 -2.4083,-5.85285 -2.2853,-3.89958 -2.7377,-6.04221 -3.207,-15.18725 -0.858,-16.7235 -0.3732,-24.98507 2.0039,-34.14715 1.213,-4.675 2.2148,-11.38399 2.2263,-14.90887 0.012,-3.52488 0.4878,-6.56798 1.0583,-6.76245 1.7991,-0.6132 0.8854,14.61254 -1.3405,22.33948 -2.2984,7.97886 -2.6214,13.66839 -1.6934,29.83184 0.5954,10.36919 2.6384,18.5 4.6485,18.5 0.4664,0 0.8481,2.22344 0.8481,4.94098 0,2.71754 0.45,5.2191 1,5.55902 0.55,0.33992 1,1.40312 1,2.36267 0,2.80692 5.1455,12.40657 8.1948,15.28854 2.4496,2.31513 2.806,3.39262 2.8115,8.5 0.01,5.48134 0.1995,5.95873 3.0811,7.59879 1.6911,0.9625 4.7257,1.80324 6.7436,1.86831 2.018,0.0651 5.019,0.42692 6.669,0.8041 2.9879,0.68303 7.5196,-0.0618 12.75,-2.0957 2.3764,-0.92406 2.7533,-1.63031 2.7745,-5.19803 0.013,-2.27077 0.4823,-6.11541 1.0421,-8.54364 0.7852,-3.40679 0.7226,-4.60215 -0.2745,-5.23469 -0.7106,-0.45085 -0.9388,-0.82662 -0.5069,-0.83504 0.4318,-0.008 0.2758,-0.96712 -0.3468,-2.13044 -0.9211,-1.72107 -1.7661,-2.01224 -4.5352,-1.56287 -3.0213,0.49029 -3.4032,0.30125 -3.4032,-1.68487 0,-1.23042 -0.4802,-2.71738 -1.0672,-3.30435 -0.7563,-0.75629 -0.5989,-1.24692 0.5401,-1.68403 0.9692,-0.3719 1.5444,-0.12683 1.4488,0.61722 -0.5377,4.18258 0.023,4.83513 3.5783,4.16805 2.7399,-0.514 3.5,-0.3299 3.5,0.8477 0,0.82737 0.7227,1.78161 1.6059,2.12055 1.3444,0.5159 1.5437,-0.0366 1.2236,-3.39301 -0.2565,-2.68919 0.018,-4.00926 0.8328,-4.00926 1.1251,0 1.7881,-2.97545 2.674,-12 0.189,-1.925 0.4156,-0.3275 0.5037,3.55 0.088,3.8775 -0.2711,7.48112 -0.798,8.00804 -0.527,0.52692 -1.0311,2.97942 -1.1204,5.45 -0.183,5.06378 -1.8352,13.06086 -2.9615,14.3344 -1.2962,1.46577 0.208,9.0946 2.1015,10.65756 1.6564,1.36733 3.8089,7 2.675,7 -0.2642,0 -1.5695,-1.41247 -2.9009,-3.13882 z m -19.3357,-3.86118 c -0.3399,-0.55 0.3085,-1 1.441,-1 1.1324,0 2.059,0.45 2.059,1 0,0.55 -0.6484,1 -1.441,1 -0.7925,0 -1.7191,-0.45 -2.059,-1 z m -6.3395,-3.54705 c -1.3935,-3.0585 -1.4744,-4.45295 -0.2583,-4.45295 0.7155,0 3.0978,5.1135 3.0978,6.64922 0,1.35328 -1.8873,-0.10653 -2.8395,-2.19627 z m 3.9601,-4.82454 -2.228,-2.37159 2.5958,0.49621 c 1.4276,0.27291 2.3557,0.73622 2.0623,1.02958 -0.2933,0.29335 -0.032,1.13728 0.5804,1.87538 1.9454,2.34398 -0.6869,1.44376 -3.0105,-1.02958 z m 9.2771,-1.12841 c 0.3346,-1.65 0.6793,-5.11939 0.7659,-7.70975 0.09,-2.68494 0.5662,-4.45724 1.108,-4.12241 1.3482,0.83323 0.3595,12.11222 -1.1918,13.59705 -1.0459,1.00102 -1.1752,0.66653 -0.6821,-1.76489 z m -4.8977,-0.5 c -0.7822,-1.2656 0.5416,-1.2656 2.5,0 1.2927,0.8354 1.2663,0.97149 -0.191,0.98469 -0.93,0.008 -1.9691,-0.43469 -2.309,-0.98469 z m -13.8878,-1.56824 c -0.6815,-1.77596 0.451,-1.83723 2.7594,-0.14929 1.6463,1.20378 1.6323,1.29163 -0.228,1.43176 -1.0901,0.0821 -2.2292,-0.495 -2.5314,-1.28247 z m 23.3878,0.56824 c 0,-0.55 0.45,-1 1,-1 0.55,0 1,0.45 1,1 0,0.55 -0.45,1 -1,1 -0.55,0 -1,-0.45 -1,-1 z m -22.2826,-5.61592 c -0.3387,-0.33876 -1.9741,-0.90126 -3.6341,-1.25 l -3.0182,-0.63408 2.3742,-1.11191 c 1.9933,-0.93354 2.8303,-0.73878 5.2175,1.21403 1.9772,1.61749 2.3609,2.33691 1.2599,2.36192 -0.8709,0.0198 -1.8605,-0.2412 -2.1993,-0.57996 z m 11.2826,-5.38408 c 1.0965,-2.04875 6,-2.86601 6,-1 0,0.55 -1.125,1 -2.5,1 -1.375,0 -2.5,0.45 -2.5,1 0,0.55 -0.4658,1 -1.0352,1 -0.7018,0 -0.6905,-0.64401 0.035,-2 z m -10.3687,-0.70201 c -0.3861,-0.3861 -2.2611,-0.597 -4.1666,-0.46867 -4.3853,0.29533 -4.5602,-1.42914 -0.2147,-2.11608 2.3416,-0.37015 3.8013,0.0174 5.2222,1.3865 1.0847,1.04514 1.4972,1.90026 0.9167,1.90026 -0.5806,0 -1.3715,-0.3159 -1.7576,-0.70201 z m 8.3687,-4.73897 c 0,-0.24254 0.45,-0.7191 1,-1.05902 0.55,-0.33992 1,-0.14148 1,0.44098 0,0.58246 -0.45,1.05902 -1,1.05902 -0.55,0 -1,-0.19844 -1,-0.44098 z m -12.3312,-4.30902 c -2.5777,-4.30313 -4.6985,-8.55365 -4.4112,-8.8409 0.464,-0.46408 6.7424,7.70479 6.7424,8.77268 0,1.02559 -1.7275,1.07614 -2.3312,0.0682 z m -9.0367,-6.10563 c -1.0274,-2.88299 -1.6231,-5.4867 -1.3238,-5.78602 1.0033,-1.00332 3.8154,5.74328 3.5017,8.40114 -0.2617,2.21722 -0.6012,1.80956 -2.1779,-2.61512 z m 15.3679,4.01639 c 0,-0.46157 1.4625,-0.75127 3.25,-0.64377 6.48,0.38973 9.7782,-4.85874 6.6851,-10.63817 -0.5856,-1.09433 -0.886,-2.52605 -0.6675,-3.1816 0.6702,-2.01068 2.7981,3.06226 3.3937,8.09047 0.5519,4.65994 0.5091,4.74893 -2.8715,5.97137 -3.9109,1.41419 -9.7898,1.65542 -9.7898,0.4017 z m 23.5553,-5.47319 c 0.3707,-3.04488 0.1541,-5.33276 -0.5898,-6.22911 -0.8473,-1.02092 -0.8898,-2.23683 -0.1523,-4.35256 0.5629,-1.61473 0.8781,-3.08663 0.7004,-3.27089 -0.1776,-0.18426 -0.6022,-2.10877 -0.9433,-4.2767 -0.3412,-2.16793 -0.7766,-4.09797 -0.9676,-4.28899 -0.4612,-0.46114 -9.7624,6.52554 -11.3424,8.51991 -0.6818,0.86062 -1.5356,1.26878 -1.8974,0.90701 -0.3618,-0.36177 1.2608,-2.41151 3.6057,-4.55498 2.8612,-2.61534 3.8142,-4.05033 2.8975,-4.36272 -0.7514,-0.25603 -2.2188,0.47656 -3.261,1.62798 l -1.895,2.09348 0.5514,-2.25 c 0.3676,-1.50023 0.098,-2.25 -0.8081,-2.25 -2.8728,0 -6.6702,-2.51586 -8.2182,-5.44469 l -1.6148,-3.05531 -0.8937,4.5 c -1.1149,5.61419 -2.7796,7.37804 -7.2321,7.66288 -2.943,0.18827 -3.4946,-0.10432 -3.4946,-1.85364 0,-2.74095 -2.0957,-10.04338 -3.2455,-11.30924 -0.5463,-0.60137 -0.6273,2.38837 -0.2032,7.5 0.7816,9.42002 0.1283,10.05575 -1.9803,1.92699 -1.1949,-4.60663 -1.1924,-5.7585 0.018,-8.09905 1.6487,-3.18822 1.8316,-6.44995 0.411,-7.32794 -0.55,-0.33992 -1,-1.29303 -1,-2.11803 0,-0.825 0.4594,-1.21606 1.021,-0.86902 1.0531,0.65088 4.0167,-5.36382 4.2647,-8.65522 0.1477,-1.96087 3.1543,-2.57281 4.2143,-0.85773 0.3399,0.55 -0.3085,1 -1.441,1 -1.3463,0 -2.059,0.64876 -2.059,1.87427 0,1.03085 -0.6642,3.75683 -1.476,6.05773 -1.3808,3.91354 -1.3232,4.63739 0.8931,11.21887 2.8582,8.48758 3.6526,9.44706 6.4008,7.73079 3.3922,-2.11846 4.3308,-8.95482 1.6381,-11.93029 -0.9936,-1.09787 -1.6057,-3.92993 -1.7169,-7.9438 -0.1567,-5.65231 0.082,-6.45701 2.5443,-8.5749 l 2.7172,-2.33722 -6.2503,-0.29772 c -6.1713,-0.29397 -6.2523,-0.33567 -6.4089,-3.29773 -0.094,-1.77579 0.03,-2.1284 0.3046,-0.86408 0.3102,1.43035 1.4926,2.3418 3.5794,2.75916 3.6126,0.72252 19.3084,-0.40051 18.0919,-1.29447 -0.4495,-0.33033 -0.7998,-1.72561 -0.7784,-3.10061 0.029,-1.87797 -0.7172,-2.79209 -3,-3.67392 -4.5025,-1.7393 -5.5373,-1.56717 -5.5542,0.92392 -0.01,1.2375 -0.4515,2.925 -0.9847,3.75 -0.6699,1.03663 -0.9741,-1.01026 -0.9847,-6.62617 l -0.015,-8.12617 -5.25,-0.44171 c -2.8875,-0.24293 -6.6,-1.09222 -8.25,-1.8873 -2.6727,-1.28791 -3,-1.93501 -3,-5.93213 0,-4.30883 0.1767,-4.57563 4.4619,-6.73652 2.7009,-1.36199 6.28,-2.25 9.0685,-2.25 5.5813,0 14.2673,2.4489 15.9722,4.50316 0.6833,0.82326 2.2222,1.49684 3.4198,1.49684 2.982,0 4.5776,1.84746 4.5776,5.3 0,3.05281 2.4318,5.8636 11.1421,12.87839 3.2896,2.64928 5.1283,5.16725 6.5721,9 4.1081,10.90555 4.3425,12.34921 3.7069,22.83237 -0.5011,8.26424 -1.2077,11.63067 -3.646,17.37009 -3.5681,8.39858 -5.7751,11.9868 -5.7751,9.38916 0,-0.92124 1.8484,-5.18387 4.1076,-9.4725 3.664,-6.95559 4.0495,-8.33738 3.5704,-12.79751 -0.2955,-2.75 -0.1631,-7.25 0.294,-10 0.5908,-3.55338 0.4498,-5.86797 -0.4874,-8 -0.7253,-1.65 -1.9039,-4.8 -2.619,-7 -0.9064,-2.78818 -3.8096,-6.43847 -9.583,-12.04895 -6.0235,-5.85364 -8.2826,-8.7311 -8.2826,-10.55 0,-2.94163 -1.6791,-4.90105 -4.2,-4.90105 -1.1906,0 -1.8108,0.76178 -1.8318,2.25 -0.032,2.24403 -1.7958,5.3133 -3.2182,5.59923 -0.4125,0.0829 -1.5375,0.19563 -2.5,0.25045 -1.1569,0.0659 -0.9341,0.32795 0.6573,0.77321 3.1418,0.879 9.7793,8.79509 10.5876,12.62711 0.6181,2.92982 0.5758,2.91069 -1.809,-0.81797 -3.4877,-5.45299 -7.7743,-9.68203 -9.814,-9.68203 -0.9646,0 -2.032,-0.45 -2.3719,-1 -0.3399,-0.55 -1.2936,-1 -2.1194,-1 -1.1173,0 -1.4219,0.93247 -1.191,3.64563 0.2853,3.35139 0.6599,3.74833 4.6403,4.91808 4.7531,1.39684 7.365,4.01651 6.5873,6.60694 -0.3197,1.06489 0.8967,2.96441 3.3549,5.23884 3.2092,2.96922 4.0688,4.63586 5.1208,9.92854 1.1936,6.00496 0.4559,15.6705 -1.4287,18.71983 -0.3202,0.51818 -0.1779,0.94214 0.3163,0.94214 1.6432,0 3.2194,-5.02762 3.2282,-10.29705 0.01,-2.86162 0.2935,-7.57455 0.6417,-10.47317 0.5844,-4.86592 0.7402,-5.1172 2.0301,-3.27548 1.202,1.71609 1.1878,2.3997 -0.1019,4.89369 -2.0126,3.89202 -1.0822,21.22303 0.9874,18.39264 1.6853,-2.30473 2.898,-0.97612 1.4975,1.64064 -0.6041,1.1289 -1.1525,6.90494 -1.2185,12.83564 -0.066,5.9307 -0.5151,11.68309 -0.9979,12.78309 -0.5753,1.31077 -0.6759,0.34157 -0.2918,-2.81243 z m -7.4277,-26.34127 c 0.947,-1.1411 1.3634,-4.47325 1.3432,-10.75 -0.045,-13.95211 -2.8785,-17.60973 -12.6295,-16.30184 -2.2208,0.29788 -5.1118,1.55045 -6.4243,2.7835 -2.8394,2.66749 -4.3116,8.75112 -2.4031,9.93062 0.7026,0.43426 1.0023,1.50677 0.6659,2.38334 -0.5662,1.47565 2.6762,5.60808 4.4004,5.60808 0.3866,0 0.986,1.12746 1.3318,2.50547 1.1141,4.43869 10.9365,7.18934 13.7156,3.84083 z m -14.2421,-49.41516 c 2.7411,-0.58787 5.5758,-1.79713 6.2992,-2.68723 1.1525,-1.41803 1.0677,-1.51279 -0.6847,-0.7655 -3.9667,1.69154 -17.2222,1.80423 -21.9692,0.18678 -2.492,-0.84909 -4.5308,-1.35648 -4.5308,-1.12755 0,1.04676 5.5302,3.87492 8.8361,4.51877 5.4297,1.05751 6.5906,1.04544 12.0494,-0.12527 z m 4.1145,-5.26116 c 9.4206,-4.51031 -10.1977,-10.53901 -20.41,-6.27201 -4.6,1.922 -5.1048,3.21862 -2.0358,5.22951 5.1532,3.37646 16.4728,3.90221 22.4458,1.0425 z m 10,83.94665 c 0,-0.21085 0.9006,-0.61888 2.0014,-0.90674 1.1007,-0.28785 1.7492,-0.11534 1.441,0.38337 -0.5383,0.87091 -3.4424,1.31244 -3.4424,0.52337 z m -33.3118,-12.26175 c -0.2887,-0.2887 -0.068,-1.83611 0.4909,-3.43871 1.0734,-3.07912 2.7878,-3.12726 2.5577,-0.0718 -0.1488,1.97505 -2.2102,4.34887 -3.0486,3.51052 z m 17.8118,-4.03756 c -7.8538,-2.01379 -9.6528,-3.70211 -3,-2.81553 6.9622,0.92782 8.2341,1.36289 8.8762,3.03628 0.3086,0.80406 0.4627,1.42948 0.3424,1.38981 -0.1202,-0.0397 -2.9186,-0.76442 -6.2186,-1.61056 z m 25.5137,0.63268 c 0.026,-2.73635 1.2201,-5.95 2.2113,-5.95 0.58,0 0.7098,1.142 0.3127,2.75 -0.7868,3.18576 -2.5449,5.41468 -2.524,3.2 z m 1.5535,-12.84133 c -0.3141,-0.50818 -0.1897,-1.95483 0.2764,-3.21477 0.8393,-2.26908 0.8523,-2.26499 1.3678,0.43151 0.5187,2.71346 -0.5594,4.53848 -1.6442,2.78326 z m 1.6408,-12.60867 c 0.078,-6.93692 1.5598,-12.5 3.3305,-12.5 1.8872,0 1.869,1.4169 -0.039,3 -0.914,0.75862 -1.5274,3.05248 -1.5703,5.87245 -0.039,2.54515 -0.4544,5.52755 -0.924,6.62755 -0.6182,1.44842 -0.8382,0.62105 -0.7977,-3 z m -36.208,-23 c 0,-2.9675 -0.3423,-3.49767 -2.25,-3.48469 -2.6836,0.0183 -4.2453,0.94658 -5.0211,2.98469 -0.3141,0.825 -0.6065,-0.56924 -0.65,-3.09831 -0.076,-4.4142 0.072,-4.65755 3.6876,-6.07783 2.0716,-0.81374 4.3216,-1.2945 5,-1.06836 1.5188,0.50626 1.744,14.2445 0.2335,14.2445 -0.55,0 -1,-1.575 -1,-3.5 z m -1.4182,-5.5 c 0.8513,0 1.4182,-1.01333 1.4182,-2.53518 0,-2.31349 -0.1968,-2.43157 -2.25,-1.3503 -3.5385,1.86344 -5.4072,5.7354 -2.1682,4.49247 0.87,-0.33385 2.22,-0.60699 3,-0.60699 z m -15.5818,-12.87755 c 0,-0.48266 0.675,-1.43776 1.5,-2.12245 1.6282,-1.35129 1.8317,-1.02807 0.893,1.41821 -0.6425,1.67447 -2.393,2.18961 -2.393,0.70424 z"
       id="path3527"
       inkscape:connector-curvature="0" />
  </g>
</svg>
