<?xml version="1.0" encoding="UTF-8" standalone="no"?>
<!-- Created with Inkscape (http://www.inkscape.org/) -->

<svg
   xmlns:dc="http://purl.org/dc/elements/1.1/"
   xmlns:cc="http://creativecommons.org/ns#"
   xmlns:rdf="http://www.w3.org/1999/02/22-rdf-syntax-ns#"
   xmlns:svg="http://www.w3.org/2000/svg"
   xmlns="http://www.w3.org/2000/svg"
   xmlns:sodipodi="http://sodipodi.sourceforge.net/DTD/sodipodi-0.dtd"
   xmlns:inkscape="http://www.inkscape.org/namespaces/inkscape"
   width="143.76321"
   height="262.50412"
   id="svg2"
   version="1.1"
   inkscape:version="0.48.3.1 r9886"
   sodipodi:docname="Seated-triceps-press-2.svg">
  <defs
     id="defs4" />
  <sodipodi:namedview
     id="base"
     pagecolor="#ffffff"
     bordercolor="#666666"
     borderopacity="1.0"
     inkscape:pageopacity="0.0"
     inkscape:pageshadow="2"
     inkscape:zoom="1.979899"
     inkscape:cx="38.27074"
     inkscape:cy="111.85669"
     inkscape:document-units="px"
     inkscape:current-layer="layer1"
     showgrid="false"
     fit-margin-top="0"
     fit-margin-left="0"
     fit-margin-right="0"
     fit-margin-bottom="0"
     inkscape:window-width="1378"
     inkscape:window-height="738"
     inkscape:window-x="-220"
     inkscape:window-y="178"
     inkscape:window-maximized="0" />
  <metadata
     id="metadata7">
    <rdf:RDF>
      <cc:Work
         rdf:about="">
        <dc:format>image/svg+xml</dc:format>
        <dc:type
           rdf:resource="http://purl.org/dc/dcmitype/StillImage" />
        <dc:title></dc:title>
      </cc:Work>
    </rdf:RDF>
  </metadata>
  <g
     inkscape:label="Ebene 1"
     inkscape:groupmode="layer"
     id="layer1"
     transform="translate(-2503.9355,-134.0862)">
    <path
       style="fill:#000000"
       d="m 2559.6145,394.47621 c -1.5125,-1.12845 -2.75,-2.93654 -2.75,-4.01798 0,-1.08144 -0.6749,-3.27129 -1.4997,-4.86634 -1.957,-3.78438 -2.7334,-8.97895 -2.5419,-17.00751 0.085,-3.5788 -0.6976,-10.33357 -1.7397,-15.0106 -1.8628,-8.35974 -1.8624,-8.61354 0.019,-14.99308 4.3627,-14.79012 3.6577,-28.43835 -1.5069,-29.17232 -1.8884,-0.26837 -2.3308,-1.13364 -2.8799,-5.63249 -0.3568,-2.92347 -0.8608,-5.52746 -1.12,-5.78665 -0.2592,-0.25919 -2.8923,0.49691 -5.8513,1.68021 -2.959,1.18331 -8.305,3.19949 -11.88,4.4804 -3.575,1.28092 -9.5984,3.49392 -13.3852,4.91778 -6.4868,2.439 -6.9932,2.49117 -8.75,0.90127 -2.3449,-2.12209 -2.3975,-5.60317 -0.1148,-7.59332 0.9625,-0.83914 4.8198,-2.53133 8.5719,-3.76043 3.752,-1.2291 6.9799,-2.74978 7.1732,-3.37929 0.1933,-0.62951 0.5432,-6.09456 0.7777,-12.14456 l 0.4263,-11 -5.3495,-4.29727 c -4.1938,-3.36885 -5.3496,-4.90875 -5.3496,-7.12756 0,-3.57934 1.2821,-4.58758 7.5,-5.89794 7.1044,-1.49718 7.8412,0.28069 0.8241,1.98836 -7.8495,1.91025 -8.2386,4.16787 -1.629,9.45154 2.6427,2.11253 9.0482,7.44622 14.2345,11.85264 7.378,6.26856 9.257,7.46976 8.6365,5.52095 -1.3782,-4.3281 -1.8324,-10.70352 -0.6405,-8.99072 0.5741,0.825 1.0507,2.5125 1.0591,3.75 0.01,1.2375 0.2699,2.25 0.581,2.25 1.1424,0 4.9959,-2.30606 7.1843,-4.29928 2.8079,-2.55752 2.8676,-4.30595 0.171,-5.01112 -1.6237,-0.42461 -2.3815,0.15201 -3.4608,2.63337 -1.3293,3.05612 -1.3834,3.07964 -1.4211,0.61816 -0.022,-1.40738 0.5234,-3.29801 1.2109,-4.20141 1.1258,-1.47929 1.831,-1.50505 7.0955,-0.25914 3.215,0.76087 6.4319,1.15832 7.1488,0.88323 0.7169,-0.27508 1.5805,-0.0519 1.9191,0.49602 0.8253,1.33544 -2.9847,2.46458 -5.8714,1.74006 -1.6481,-0.41363 -2.4879,-0.08 -2.9189,1.1597 -0.3329,0.95723 -2.0052,3.9786 -3.7164,6.71416 -2.7975,4.47222 -3.0711,5.60276 -2.714,11.21162 0.2185,3.43082 0.696,6.53664 1.0612,6.90181 0.3651,0.36518 1.8474,-0.74255 3.2939,-2.46161 2.4149,-2.86991 3.1275,-3.12557 8.7124,-3.12557 4.2563,0 6.6313,0.49684 7.9111,1.65499 1.7167,1.55363 1.8287,1.52579 1.8287,-0.45469 0,-3.27016 6.25,-4.13094 9.9785,-1.3743 l 2.8129,2.07966 0.5907,-2.20283 c 0.3248,-1.21156 0.5967,-3.72454 0.6043,-5.58441 0.011,-2.6419 0.9549,-4.32285 4.3168,-7.68482 3.9193,-3.91926 4.1201,-4.35246 2.25,-4.85477 -1.1292,-0.30334 -3.5157,-0.55767 -5.3032,-0.56518 -1.7875,-0.008 -3.25,-0.52776 -3.25,-1.15611 0,-1.53928 11.2936,-0.35796 14.8547,1.55381 1.4549,0.78107 4.4453,2.28965 6.6453,3.3524 2.2,1.06275 6.1414,3.57567 8.7587,5.58426 2.6172,2.00859 5.144,3.65199 5.6151,3.65199 1.9099,0 6.2681,4.40379 7.6637,7.74399 1.036,2.47958 1.3159,5.40908 0.9225,9.65761 -0.3105,3.35412 -0.1811,13.2312 0.2875,21.94908 l 0.8521,15.85067 6.5906,6.39933 c 4.4466,4.31751 7.3846,6.39932 9.0312,6.39932 2.631,0 5.5367,3.9643 4.3331,5.91176 -2.5173,4.0731 -12.0399,4.95793 -18.3324,1.70341 -2.2124,-1.14431 -4.3781,-1.48893 -6.663,-1.06028 -8.0672,1.51342 -10.1468,-1.82989 -7.8929,-12.68925 1.7322,-8.34572 1.3296,-13.37679 -1.6214,-20.26106 -1.3972,-3.2597 -2.0448,-6.94221 -2.0448,-11.62847 0,-9.73483 1.6209,-9.51704 2.2398,0.30095 0.3645,5.78374 1.1796,9.48795 2.7478,12.48751 1.9672,3.7628 2.1519,5.17475 1.5699,12 -0.3627,4.25449 -0.7491,9.98543 -0.8585,12.73543 l -0.199,5 5.8483,0.16941 c 3.2166,0.0932 7.0416,0.63362 8.5,1.201 7.4856,2.91213 19.715,0.20088 13.0922,-2.90253 -6.3189,-2.96101 -9.0689,-4.93815 -13.2892,-9.55447 l -4.8487,-5.30366 -0.7945,-12.97758 c -0.437,-7.13767 -1.0616,-13.40966 -1.3879,-13.93775 -0.3264,-0.52809 -0.144,-4.54478 0.4054,-8.92597 1.1958,-9.53655 -0.274,-14.40021 -5.1644,-17.08976 -1.6787,-0.92328 -4.6369,-2.90884 -6.5737,-4.41237 -4.024,-3.12385 -12.7876,-7.5923 -16.1661,-8.24295 -1.2555,-0.24178 -3.1847,0.10406 -4.2872,0.76852 -2.807,1.69177 -6.8342,9.97314 -6.8342,14.05355 0,4.13207 2.3684,5.33243 11.6279,5.89332 3.9679,0.24035 7.1016,1.05679 8.8903,2.31622 4.6652,3.28481 4.895,3.41533 7.8946,4.48278 2.2106,0.78664 2.6331,1.31638 1.7523,2.19711 -0.8807,0.88072 -2.3666,0.50915 -6.1628,-1.54112 -4.6067,-2.488 -5.0023,-2.55287 -5.0023,-0.82015 0,1.03483 -0.5625,2.32606 -1.25,2.86939 -1.3129,1.03762 -15.9355,5.63466 -21.5,6.75915 l -3.25,0.65677 0,13.39539 0,13.39539 8.2155,-3.02916 c 11.047,-4.07314 16.1503,-2.94435 14.8752,3.29016 -0.6005,2.9366 -1.3385,3.44059 -9.6206,6.57062 -7.5969,2.8711 -18.5548,7.08875 -23.2201,8.93736 -0.6875,0.27242 -1.2479,-0.11534 -1.2453,-0.86168 0,-0.81534 4.2937,-2.91129 10.75,-5.25098 17.121,-6.20449 21.2453,-8.23001 21.2453,-10.43405 0,-3.0898 -3.0908,-3.10482 -12.0937,-0.0588 -4.6235,1.56431 -8.9688,2.85379 -9.6563,2.8655 -0.9435,0.0161 -1.2554,-3.59565 -1.2722,-14.7287 -0.022,-14.31845 -0.074,-14.68263 -1.794,-12.44739 -2.8354,3.68489 -5.2719,13.50154 -5.5678,22.43242 -0.1544,4.65869 -0.8781,9.3558 -1.6587,10.76497 -0.8648,1.56104 -1.3985,5.69248 -1.4211,11 -0.033,7.85054 0.223,8.95844 3.3562,14.5 1.8659,3.3 4.6784,7.56503 6.25,9.47784 3.2358,3.93814 3.7334,7.81387 1.1076,8.62654 -0.9625,0.29789 -2.5314,0.95877 -3.4864,1.46862 -3.0811,1.64485 -10.072,1.00662 -13.0136,-1.18809 z m 10.3438,-0.93508 c 3.1323,-1.67638 1.4064,-2.64453 -4.1245,-2.31368 -3.5143,0.21022 -4.997,-0.053 -4.7346,-0.8403 0.2102,-0.63051 2.5772,-1.23887 5.26,-1.35191 3.8604,-0.16267 5.2223,0.21991 6.5296,1.83437 1.9618,2.4227 4.4939,1.5133 3.0322,-1.089 -0.5219,-0.92912 -2.2864,-3.22465 -3.9211,-5.10118 -8.0281,-9.21571 -11.3985,-23.87388 -7.71,-33.53185 1.0079,-2.63912 1.5569,-6.36738 1.3608,-9.24024 l -0.3288,-4.81604 -0.7863,4 c -0.4325,2.2 -0.994,5.0125 -1.2478,6.25 -0.2538,1.2375 -0.964,2.25 -1.5783,2.25 -1.6149,0 -0.3251,-8.07498 1.9432,-12.16471 4.9656,-8.95325 7.2226,-21.8545 4.7821,-27.33529 -0.7594,-1.70541 -0.4857,-1.63176 1.858,0.5 l 2.7485,2.5 -0.6834,-4 c -0.3759,-2.2 -1.8948,-6.025 -3.3754,-8.5 -2.5944,-4.33694 -2.8848,-4.51109 -8.0143,-4.80605 -4.0251,-0.23146 -5.8057,0.13142 -7.3056,1.48881 -3.9572,3.58121 -4.0352,4.90493 -0.6797,11.54725 2.5664,5.08043 3.2219,7.69291 3.4547,13.76999 0.158,4.125 0.9594,9.37182 1.7808,11.65959 1.9153,5.33393 0.6995,6.70217 -1.4755,1.66053 l -1.648,-3.82012 -1.2568,3 c -2.1682,5.1754 -2.3543,13.69254 -0.4393,20.11439 1.0503,3.52236 1.718,8.87193 1.6628,13.32294 -0.061,4.93951 0.5619,9.37893 1.8554,13.21846 1.0711,3.17961 1.9475,6.43765 1.9475,7.24008 0,1.91447 4.7408,5.60413 7.2006,5.60413 1.062,0 2.8139,-0.47258 3.8932,-1.05017 z m -13.0541,-18.44983 c -0.038,-1.18723 3.7036,-7.5 4.4456,-7.5 0.2831,0 0.5125,0.5625 0.5097,1.25 -0.01,1.50077 -4.9091,7.68493 -4.9553,6.25 z m 5.9603,-49.5 c 0,-0.55 0.9,-1 2,-1 1.1,0 2,0.45 2,1 0,0.55 -0.9,1 -2,1 -1.1,0 -2,-0.45 -2,-1 z m -2.2903,-12.62361 c -0.353,-0.35304 0.4916,-1.53346 1.8769,-2.62315 3.2693,-2.57162 4.0969,-1.74398 1.0853,1.0853 -1.2762,1.19886 -2.6091,1.8909 -2.9622,1.53785 z m 29.2422,-2.84219 c 10.6395,-2.95416 12.0588,-3.77742 11.3282,-6.57097 -0.4124,-1.57704 -1.3819,-1.96323 -4.9288,-1.96323 -2.4286,0 -6.0648,-0.6891 -8.0805,-1.53134 -2.0158,-0.84224 -4.2506,-1.30666 -4.9662,-1.03204 -0.7157,0.27462 -2.7102,-0.87804 -4.4323,-2.56146 l -3.1311,-3.06077 -2.0397,2.03966 c -1.9806,1.9806 -1.9913,2.18927 -0.3706,7.20764 0.918,2.84239 1.6691,6.66789 1.6691,8.50113 0,3.18007 0.1263,3.29325 2.75,2.46447 1.5125,-0.47777 7.0034,-2.04966 12.2019,-3.49309 z m -72.9519,-4.10618 c 5.225,-1.94906 12.425,-4.58891 16,-5.86632 11.1034,-3.96743 12,-4.55242 12,-7.8292 0,-2.40986 -0.3187,-2.81723 -1.75,-2.2368 -5.9454,2.41106 -12.1658,4.25512 -12.6661,3.7549 -0.3211,-0.32117 -0.5839,-3.9243 -0.5839,-8.00697 0,-6.47515 -0.2873,-7.66273 -2.25,-9.30007 -1.2375,-1.03236 -2.5728,-1.89199 -2.9672,-1.91029 -0.3945,-0.0183 -0.8445,5.00417 -1,11.16103 l -0.2828,11.1943 -8,3.19767 c -7.3992,2.95754 -8.0235,3.43107 -8.3134,6.3057 -0.1723,1.70942 -0.1723,3.10168 0,3.09392 0.1724,-0.008 4.5884,-1.6088 9.8134,-3.55787 z m 21.75,-16.12533 c 3.1728,-0.75562 2.856,-1.5652 -2.25,-5.74918 l -4.5,-3.68741 0,5.68358 c 0,5.43405 0.099,5.65296 2.25,4.98622 1.2375,-0.38355 3.2625,-0.9385 4.5,-1.23321 z m 8.6316,-8.85463 c 0.3415,-0.88992 0.1738,-1.29132 -0.3931,-0.94098 -0.5437,0.33602 -0.9885,1.0344 -0.9885,1.55194 0,1.43843 0.7168,1.12146 1.3816,-0.61096 z m 72.2851,72.88527 c -0.3667,-0.36666 -0.6206,-2.05416 -0.5643,-3.75 l 0.1023,-3.08333 0.8211,3.49322 c 0.8555,3.63956 0.7666,4.46588 -0.3591,3.34011 z m -12.1667,-53.74866 c -3.9197,-3.14283 -2.5981,-4.45642 1.4629,-1.454 2.4646,1.82215 3.479,2.07419 4.8286,1.19966 1.8045,-1.1693 1.9452,-2.27557 0.8055,-6.33033 l -0.7027,-2.5 2.0528,2.36078 c 2.5385,2.91919 2.6105,5.32463 0.2242,7.48423 -2.5329,2.29223 -5.1504,2.06272 -8.6713,-0.76034 z m -51.5,-15.49823 c 0,-0.57658 1.2375,-1.31949 2.75,-1.65091 1.5125,-0.33142 3.3125,-0.77587 4,-0.98767 0.6875,-0.2118 1.25,0.0205 1.25,0.51614 0,0.82087 -0.7905,1.16019 -6.25,2.68273 -0.9625,0.26843 -1.75,0.0163 -1.75,-0.56029 z m 21.0318,-3.75465 c -0.052,-1.89979 1.1134,-4.33179 2.0752,-4.33179 1.3106,0 1.0915,1.35528 -0.5752,3.55887 -0.8075,1.06762 -1.4825,1.41543 -1.5,0.77292 z m -17.6722,-3.17669 c 2.7722,-3.06318 12.6942,-7.50127 13.954,-6.24153 0.7819,0.78191 0.6635,1.08643 -0.4224,1.08643 -0.8299,0 -4.1244,1.575 -7.3212,3.5 -6.4084,3.85894 -8.7758,4.48987 -6.2104,1.6551 z m 4.3526,0.73272 c 1.1659,-1.16592 11.5322,-4.86356 12.1379,-4.32957 0.9027,0.79584 -1.2011,2.44552 -3.1591,2.47719 -1.2051,0.0195 -3.316,0.67854 -4.691,1.46456 -3.0933,1.76829 -5.9243,2.02435 -4.2878,0.38782 z m 15.1235,-10.02664 -2.4205,-3.13882 -6.3196,2.24372 c -5.7813,2.05257 -6.9555,2.14915 -13.783,1.13369 -4.1048,-0.61051 -8.3612,-1.59061 -9.4588,-2.17799 -1.6615,-0.88922 -2.4019,-0.59547 -4.4234,1.75512 -2.7473,3.19437 -3.1263,2.56945 -0.9703,-1.59978 0.8031,-1.55295 1.1406,-3.1431 0.75,-3.53367 -0.3905,-0.39056 -0.7304,-1.01012 -0.7552,-1.37678 -0.2564,-3.78902 -1.9237,-8.52551 -3.5268,-10.01907 -2.4527,-2.28502 -9.2843,-18.77697 -8.56,-20.66442 0.2914,-0.75934 -0.1799,-2.80329 -1.0474,-4.54211 -1.0489,-2.10253 -1.483,-5.21806 -1.2962,-9.30128 0.447,-9.76774 0.027,-15.71379 -1.5526,-21.97056 -0.8095,-3.20692 -1.4719,-6.49825 -1.4719,-7.31407 0,-2.74879 4.9601,-12.35516 6.3795,-12.35516 0.7736,0 1.6744,-0.69795 2.0017,-1.55101 0.3273,-0.85305 2.6482,-2.45916 5.1575,-3.56913 4.0853,-1.80714 5.7657,-1.94401 16.0736,-1.30925 8.2679,0.50914 12.0686,1.16258 13.4893,2.31913 4.0961,3.33444 5.7706,20.0031 2.7989,27.86026 -1.1759,3.10912 0.508,2.84361 1.9432,-0.30639 0.6407,-1.40601 1.5959,-2.28997 2.1227,-1.96436 0.5269,0.32561 1.3553,-0.88651 1.8409,-2.69361 0.7353,-2.73614 0.5744,-3.43663 -0.9622,-4.18845 -2.8021,-1.37107 -2.204,-2.91411 0.9049,-2.33446 2.3723,0.4423 3.2763,-0.17026 6.5818,-4.45984 2.1075,-2.7349 4.044,-4.76039 4.3034,-4.50107 0.2593,0.25932 -1.69,3.97579 -4.3319,8.25881 -4.3214,7.00596 -4.7998,8.37188 -4.7682,13.61334 0.041,6.78453 -1.0494,7.66054 -2.0635,1.6581 -0.603,-3.56937 -0.854,-3.90014 -1.7477,-2.30326 -0.7495,1.33927 -0.7167,1.97359 0.1163,2.25126 1.9229,0.64095 1.307,3.07382 -1.0902,4.30693 -1.2375,0.63656 -3.4828,2.30708 -4.9896,3.71228 -1.5067,1.4052 -3.0203,2.27411 -3.3636,1.9309 -0.3432,-0.34322 1.1146,-2.22076 3.2396,-4.17232 l 3.8636,-3.54831 -2.75,-0.005 c -1.5125,-0.003 -2.7503,-0.34227 -2.7507,-0.75477 -4e-4,-0.4125 -1.1453,-0.81614 -2.5441,-0.89696 -4.4535,-0.25733 -8.4991,-2.53891 -10.1849,-5.7439 l -1.6354,-3.10912 -0.8398,3.93289 c -0.4619,2.16308 -0.6823,4.40547 -0.4898,4.98307 0.5033,1.50982 -3.85,3.51586 -6.2613,2.88529 -1.7829,-0.46624 -2.044,-1.33081 -2.044,-6.76866 0,-3.42878 -0.502,-7.67427 -1.1156,-9.43441 -0.6136,-1.76015 -0.8751,-3.44084 -0.581,-3.73487 1.1859,-1.18597 3.1065,4.52716 3.6351,10.81344 0.5264,6.25916 0.6763,6.59239 2.3962,5.32781 2.6334,-1.93613 3.4136,-9.02027 1.256,-11.40437 -1.1432,-1.26324 -1.7341,-3.85157 -1.8522,-8.1143 -0.1662,-5.99405 -0.028,-6.38073 3.2562,-9.12263 l 3.4298,-2.86326 -5.7444,0 c -5.5772,0 -12.6881,2.07564 -12.6723,3.69897 0,0.44057 1.2418,1.41662 2.75,2.16901 1.5082,0.75239 3.6797,1.85275 4.8255,2.44524 1.3599,0.70317 2.0834,2.05126 2.0834,3.88202 0,3.68045 -0.6345,3.49912 -3.803,-1.08682 -2.8768,-4.16386 -5.2388,-5.25364 -8.651,-3.9914 -1.9427,0.71866 -2.2269,1.585 -2.3287,7.10076 -0.064,3.45522 -0.3218,5.49472 -0.5733,4.53222 -0.2516,-0.9625 -0.8744,-1.75 -1.384,-1.75 -1.1919,0 -1.1883,0.0514 0.5126,7.33586 0.7915,3.39028 1.8941,8.75781 2.45,11.92786 0.556,3.17004 2.224,8.46689 3.7067,11.77077 3.3965,7.56843 2.5091,8.82956 -1.3986,1.98752 l -2.9495,-5.1644 -0.4654,3.17079 c -0.2839,1.93421 0.2528,4.57938 1.3761,6.78264 1.0128,1.98651 1.8414,4.75778 1.8414,6.15836 0,1.40058 1.125,4.65982 2.5,7.24275 1.375,2.58293 2.5,5.29172 2.5,6.01954 0,0.72781 0.7326,2.36926 1.628,3.64765 1.2757,1.82119 1.8135,2.03171 2.4847,0.97251 0.6173,-0.97412 0.8986,-0.65331 1.0067,1.14815 0.2279,3.79775 0.4844,7.28193 0.6994,9.5 0.2521,2.60149 5.3611,5.46833 10.0122,5.61831 2.018,0.0651 5.019,0.42692 6.669,0.8041 3.0155,0.68934 7.5346,-0.0649 12.88,-2.14956 l 2.8801,-1.12321 -0.512,-8.20677 c -0.2816,-4.51373 -0.122,-8.8224 0.3546,-9.57482 1.0382,-1.63873 1.0341,-1.66512 1.4916,9.59671 0.2648,6.51681 0.6837,8.24385 2.3041,9.5 1.7653,1.3685 4.0514,7.03524 2.8382,7.03524 -0.2642,0 -1.5695,-1.41247 -2.9009,-3.13882 z m -10.7081,-69.51488 c 0.947,-1.1411 1.3634,-4.47325 1.3432,-10.75 -0.045,-13.95211 -2.8785,-17.60973 -12.6295,-16.30184 -2.2208,0.29788 -5.1118,1.55045 -6.4243,2.7835 -2.8394,2.66749 -4.3116,8.75112 -2.4031,9.93062 0.7026,0.43426 1.0023,1.50677 0.6659,2.38334 -0.5662,1.47565 2.6762,5.60808 4.4004,5.60808 0.3866,0 0.986,1.12746 1.3318,2.50547 1.1141,4.43869 10.9365,7.18934 13.7156,3.84083 z m -9.6276,64.6537 c -1.3729,-1.51704 -1.4707,-1.99232 -0.405,-1.9682 1.5456,0.035 4.905,2.31461 4.905,3.32844 0,1.37756 -2.7839,0.53606 -4.5,-1.36024 z m -2.3636,-8.5 c -2.8766,-3.16124 -3.0775,-3.95164 -0.9224,-3.63042 0.3927,0.0585 0.4288,-0.63699 0.08,-1.54562 -0.4271,-1.11301 -0.2499,-1.41469 0.5431,-0.92459 1.4009,0.8658 4.4992,6.60063 3.5661,6.60063 -0.3565,0 -0.088,0.675 0.5967,1.5 2.5787,3.10708 -0.8146,1.3505 -3.8635,-2 z m 10.2757,0.5 c 0.3083,-1.375 0.5667,-4.88906 0.5743,-7.80902 0.01,-3.28163 0.3955,-5.073 1.0136,-4.69098 1.6315,1.00829 1.1976,10.87405 -0.5742,13.05887 -1.5194,1.8735 -1.5547,1.85402 -1.0137,-0.55887 z m -4.9121,-1 c -0.7822,-1.2656 0.5416,-1.2656 2.5,0 1.2927,0.8354 1.2663,0.97149 -0.191,0.98469 -0.93,0.008 -1.9691,-0.43469 -2.309,-0.98469 z m -12.25,-1.03116 c -1.2375,-0.49742 -2.25,-1.14389 -2.25,-1.43662 0,-0.97061 1.5915,-0.55204 3.5589,0.93598 2.2123,1.67331 1.9029,1.79163 -1.3089,0.50064 z m 28.7015,-6.96884 c -0.043,-1.375 -0.1629,-4.63785 -0.2653,-7.25078 -0.1178,-3.00574 0.2336,-4.75049 0.9568,-4.75 1.6164,0.001 2.1231,-1.77975 2.8869,-10.14695 0.5399,-5.91447 1.3062,-8.33115 3.9185,-12.35783 9.5124,-14.66241 13.0856,-29.85554 8.8016,-37.4241 -1.731,-3.05821 -1.815,-3.0845 -7.7414,-2.42456 -3.2952,0.36694 -8.0202,1.71656 -10.5,2.99915 l -4.5086,2.33198 2.8893,-2.38711 c 3.2378,-2.67501 15.5926,-6.06214 18.9962,-5.2079 1.232,0.30921 2.9515,2.10159 3.876,4.04021 1.384,2.90226 1.5129,4.7871 0.7714,11.28116 -1.2336,10.80473 -4.7677,19.6472 -10.4298,26.096 -2.6199,2.98394 -3.1614,4.55084 -3.6632,10.6011 -0.3239,3.9048 -1.3948,8.7885 -2.3798,10.85267 -0.985,2.06417 -1.7909,5.94663 -1.7909,8.62768 0,5.12296 -1.6688,9.82296 -1.8177,5.11928 z m -33.4515,0.10809 c -3.3746,-0.51302 -4.0256,-0.99893 -4.1638,-3.10809 -0.1444,-2.20304 -0.1064,-2.23274 0.3195,-0.25 0.4956,2.30685 3.6783,3.13659 4.8374,1.26112 0.3781,-0.61178 1.4798,-0.41977 2.8889,0.5035 1.2527,0.82082 2.5792,1.19082 2.9478,0.82222 0.3686,-0.36859 0.6702,-0.14517 0.6702,0.49649 0,1.22716 -0.9953,1.26363 -7.5,0.27476 z m 13.3402,-0.60122 c -1.0761,-1.07609 3.7711,-5.50687 6.0245,-5.50687 1.1744,0 2.1353,0.45 2.1353,1 0,0.55 -0.9404,1 -2.0897,1 -1.1493,0 -2.8435,0.93086 -3.7647,2.06859 -0.9213,1.13772 -1.9587,1.78495 -2.3054,1.43828 z m -8.7924,-4.4562 c -0.7988,-0.50529 -1.8542,-0.67032 -2.3454,-0.36674 -1.2118,0.74892 -5.7024,-1.74098 -5.7024,-3.16178 0,-0.62694 0.6671,-2.0134 1.4823,-3.08102 1.3834,-1.81149 1.4418,-1.72407 0.875,1.30887 -0.6323,3.38382 0.59,4.20299 3.5107,2.35272 0.8991,-0.56956 2.0132,-0.22152 3.25,1.01531 2.7958,2.79573 2.1467,3.96772 -1.0702,1.93264 z m 17.9522,-2.31867 c 0,-1.02599 -1.2029,-3.44253 -2.6731,-5.37008 -2.6196,-3.43449 -3.1036,-3.55088 -7.8269,-1.88229 -1.6202,0.57237 -1.5252,0.31328 0.5,-1.36431 1.375,-1.13897 3.3178,-2.08085 4.3174,-2.09308 1.2557,-0.0154 1.6585,-0.56306 1.3033,-1.77224 -0.2827,-0.9625 -0.8176,-3.55 -1.1887,-5.75 -0.5487,-3.2535 -0.4329,-3.77159 0.6206,-2.77611 0.7123,0.67313 1.3294,2.80931 1.3713,4.74705 0.042,1.93775 0.4294,3.5245 0.8613,3.52612 0.4318,0.002 0.3193,0.87336 -0.25,1.9372 -1.2723,2.37735 -1.3248,3.36274 -0.14,2.6305 0.4924,-0.3043 1.2157,0.23164 1.6074,1.19098 0.6529,1.59938 0.7848,1.57814 1.5875,-0.25574 0.7414,-1.69385 0.8619,-1.54078 0.7867,1 -0.1947,6.58311 -0.1579,6.64336 3.6232,5.93402 2.6082,-0.48929 3.4992,-0.30973 3.4968,0.70469 0,0.91264 -1.3204,1.37735 -4,1.41001 -3.2514,0.0396 -3.9968,-0.29915 -3.9968,-1.81672 z m -7.9542,-3.81765 c 0.614,-1.1471 1.3154,-1.88651 1.5588,-1.64312 0.6999,0.69989 -0.719,3.72877 -1.7468,3.72877 -0.5108,0 -0.4263,-0.93781 0.188,-2.08565 z m 11.9542,-1.91435 c -0.7931,-0.49019 -1.2171,-1.11625 -0.9421,-1.39125 0.275,-0.275 1.149,-0.0989 1.9421,0.39125 0.7931,0.49019 1.2171,1.11625 0.9421,1.39125 -0.275,0.275 -1.149,0.0989 -1.9421,-0.39125 z m -23.2126,-3.75632 c -0.942,-1.50903 -2.4593,-3.75618 -3.372,-4.99368 -0.9126,-1.2375 -1.2508,-2.25 -0.7514,-2.25 1.0181,0 7.336,7.90757 7.336,9.18178 0,1.66161 -1.5489,0.72717 -3.2126,-1.9381 z m 19.7126,-1.24368 c -1.676,-0.72021 -1.4735,-0.87082 1.25,-0.92971 1.7875,-0.0387 3.25,0.37971 3.25,0.92971 0,1.18717 -1.7373,1.18717 -4.5,0 z m 8.1419,-4.5 c 0.3347,-3.3 0.7772,-6.1875 0.9833,-6.41667 0.7979,-0.88704 0.1845,8.52551 -0.6788,10.41667 -0.6025,1.31978 -0.7061,-0.0407 -0.3045,-4 z m -33.9283,-9 c 0.298,-3.3 0.9343,-6.4275 1.4141,-6.95 1.3177,-1.43508 0.9175,4.35492 -0.6186,8.95 l -1.3372,4 0.5417,-6 z m 11.4631,-2.95837 c -5.2685,-1.275 -8.1018,-2.9499 -6.9457,-4.10598 0.3287,-0.32873 1.5067,-0.11123 2.6176,0.48333 1.111,0.59456 2.837,1.09282 3.8357,1.10724 0.9986,0.0144 3.6157,0.878 5.8157,1.91906 4.7421,2.24401 2.5157,2.49343 -5.3233,0.59635 z m 27.8631,-12.54163 c -0.018,-1.925 0.8594,-4.9625 1.9492,-6.75 2.1103,-3.4611 3.7058,-4.41689 2.5039,-1.5 -0.3965,0.9625 -1.5534,4 -2.5709,6.75 -1.8379,4.96781 -1.8501,4.97746 -1.8822,1.5 z"
       id="path3529"
       inkscape:connector-curvature="0" />
  </g>
</svg>
