<?xml version="1.0" encoding="UTF-8" standalone="no"?>
<!-- Created with Inkscape (http://www.inkscape.org/) -->

<svg
   xmlns:dc="http://purl.org/dc/elements/1.1/"
   xmlns:cc="http://creativecommons.org/ns#"
   xmlns:rdf="http://www.w3.org/1999/02/22-rdf-syntax-ns#"
   xmlns:svg="http://www.w3.org/2000/svg"
   xmlns="http://www.w3.org/2000/svg"
   xmlns:xlink="http://www.w3.org/1999/xlink"
   xmlns:sodipodi="http://sodipodi.sourceforge.net/DTD/sodipodi-0.dtd"
   xmlns:inkscape="http://www.inkscape.org/namespaces/inkscape"
   width="901.03943"
   height="413.93198"
   id="svg2"
   version="1.1"
   inkscape:version="0.48.3.1 r9886"
   sodipodi:docname="Side-plank-1.svg">
  <defs
     id="defs4">
    <radialGradient
       gradientUnits="userSpaceOnUse"
       gradientTransform="matrix(1,0,0,0.91819829,-19.285714,-7.9105395)"
       r="209.56604"
       fy="287.50052"
       fx="398.1105"
       cy="287.50052"
       cx="398.1105"
       id="radialGradient5255"
       xlink:href="#linearGradient5249"
       inkscape:collect="always" />
    <linearGradient
       id="linearGradient5249"
       inkscape:collect="always">
      <stop
         id="stop5251"
         offset="0"
         style="stop-color:#e3e3e3;stop-opacity:1;" />
      <stop
         id="stop5253"
         offset="1"
         style="stop-color:#e3e3e3;stop-opacity:0;" />
    </linearGradient>
  </defs>
  <sodipodi:namedview
     id="base"
     pagecolor="#ffffff"
     bordercolor="#666666"
     borderopacity="1.0"
     inkscape:pageopacity="0.0"
     inkscape:pageshadow="2"
     inkscape:zoom="0.7"
     inkscape:cx="232.96711"
     inkscape:cy="134.60279"
     inkscape:document-units="px"
     inkscape:current-layer="layer1"
     showgrid="false"
     showguides="true"
     inkscape:guide-bbox="true"
     fit-margin-top="0"
     fit-margin-left="0"
     fit-margin-right="0"
     fit-margin-bottom="0"
     inkscape:window-width="1201"
     inkscape:window-height="886"
     inkscape:window-x="83"
     inkscape:window-y="39"
     inkscape:window-maximized="0">
    <sodipodi:guide
       orientation="-0.70710678,0.70710678"
       position="-2686.814,93.416931"
       id="guide2985" />
  </sodipodi:namedview>
  <metadata
     id="metadata7">
    <rdf:RDF>
      <cc:Work
         rdf:about="">
        <dc:format>image/svg+xml</dc:format>
        <dc:type
           rdf:resource="http://purl.org/dc/dcmitype/StillImage" />
        <dc:title></dc:title>
      </cc:Work>
    </rdf:RDF>
  </metadata>
  <g
     inkscape:label="Ebene 1"
     inkscape:groupmode="layer"
     id="layer1"
     transform="translate(-1258.2425,293.86713)">
    <path
       style="fill:#000000"
       d="m 2058.9835,115.98003 c -19.2004,-8.87369 -19.9811,-9.81108 -20.6875,-24.840821 -0.3013,-6.41109 -1.0995,-12.650739 -1.7738,-13.865879 -2.0522,-3.69833 -7.5328,-7.18731 -16.3264,-10.39356 -12.1238,-4.42049 -19.5494,-8.65491 -26.1241,-14.89709 -4.6859,-4.449 -6.4724,-7.12427 -9.3489,-14 -8.6337,-20.63739 -8.5303,-20.2162 -8.2013,-33.4096802 0.2263,-9.07288 -0.2678,-15.4948998 -1.9796,-25.7318298 -2.0326,-12.15496 -2.1959,-15.35082 -1.4983,-29.32706 l 0.7829,-15.68554 -3.0017,0.53168 c -1.651,0.29243 -10.3455,1.03105 -19.3212,1.64138 -15.9597,1.08524 -16.8084,1.04021 -38.5,-2.04244 -26.684,-3.79215 -31.8803,-3.9675 -50.9021,-1.7177 -8.4108,0.99479 -21.8486,1.74119 -31.3473,1.74119 l -16.6258,0 -7.9161,4.11843 c -5.8701,3.05399 -8.6304,5.18625 -10.6796,8.25 -3.4871,5.21327 -10.7138,9.18352 -19.2316,10.56545 -3.5629,0.57806 -13.3984,1.05441 -21.8566,1.05857 l -15.3785,0.008 -9.1215,3.86498 c -7.4317,3.149 -10.8162,3.98786 -18.2698,4.52826 -5.0317,0.36481 -11.7817,1.38323 -15,2.26316 -7.0577,1.92964 -30.1799,2.21545 -35.5609,0.43957 -3.1764,-1.04831 -5.1601,-0.70544 -18.9196,3.27001 -25.4552,7.35465 -47.7796,8.76317 -65.0106,4.10174 -16.6242,-4.49729 -28.1662,-6.65795 -32.1815,-6.02434 -2.1015,0.33162 -6.9716,2.18959 -10.8224,4.12881 -14.2726,7.18754 -28.6156,12.43817 -37.0947,13.57942 -9.5729,1.28847 -48.4093,0.56435 -59.2619,-1.10496 -3.85,-0.59219 -10.375,-1.94051 -14.5,-2.99626 -4.125,-1.05575 -12.2339,-2.44902 -18.0198,-3.09617 -9.8013,-1.09627 -11.0751,-1.02679 -18.6507,1.01732 -4.472,1.20668 -11.2131,3.79849 -14.9802,5.75958 -3.7671,1.96109 -8.8743,4.5787298 -11.3493,5.8169598 -4.6284,2.31554 -14.1891,4.45278 -28.8864,6.45739001 -4.6125,0.62911 -11.3395,2.05595999 -14.9489,3.17078999 -9.4125,2.90721 -19.0175,2.29703 -22.9359,-1.45705 -1.5611,-1.49601999 -3.6107,-2.71966 -4.5548,-2.71966 -1.869,0 -12.674,-9.9505698 -12.674,-11.6717398 0,-1.99718 -4.1453,-6.32826 -6.0568,-6.32826 -3.0069,0 -7.6946,-5.07823 -8.3642,-9.06104 -0.4428,-2.63363 0.019,-4.78044 1.7717,-8.24326 2.0319,-4.01353 2.1657,-4.85215 0.9367,-5.87207 -0.7885,-0.65441 -2.3285,-2.9439 -3.4222,-5.08776 -2.2258,-4.36303 -1.914,-7.68245 1.3224,-14.07463 1.069,-2.11131 2.4116,-6.61131 2.9836,-10 0.7037,-4.16803 1.9765,-7.35543 3.9344,-9.8526 1.5919,-2.03025 2.8944,-4.63058 2.8944,-5.77852 0,-3.09097 5.6097,-13.64332 8.2279,-15.4775 1.2497,-0.8754 8.1221,-3.92229 15.2721,-6.77087 l 13,-5.17925 12,0.0393 c 7.816,0.0256 16.3356,0.81147 24.4352,2.25405 10.0442,1.78893 13.3129,2.01469 17,1.17411 2.5106,-0.57238 8.6148,-1.67311 13.5648,-2.44606 12.1911,-1.90368 20.0728,-5.87346 32.1565,-16.1962 19.0224,-16.25031 31.0167,-19.91248 60.3435,-18.42443 17.4237,0.88409 23.8429,0.12351 31.4373,-3.72483 9.8619,-4.99744 15.6049,-6.48979 26.0627,-6.77253 12.6117,-0.34099 16.2026,-1.33829 25.5,-7.08222 11.6343,-7.18776 19.3279,-10.7844 35.1701,-16.44158 l 14.6297,-5.22417 0.6916,-5.62895 c 0.9808,-7.98149 3.6619,-12.07348 13.9619,-21.30874 10.7345,-9.62488 19.7544,-15.68193 30.8841,-20.73931 11.6941,-5.31387 13.7142,-5.75747 38.6626,-8.49003 19.0105,-2.0822 24.9038,-3.14999 38,-6.88501 9.2251,-2.63101 17.6804,-5.71483 20.8861,-7.61758 10.4107,-6.17924 16.7045,-8.84091 26.3709,-11.15229 9.3982,-2.24722 10.2993,-2.28869 24.5,-1.12726 19.9278,1.62982 25.8613,1.50212 38.743,-0.83383 13.7085,-2.48589 16.1758,-3.25835 25.5224,-7.99038 9.0971,-4.60577 9.0301,-4.59369 36.3571,-6.54995 18.6892,-1.3379 22.2698,-1.85478 24.5557,-3.54482 6.2663,-4.63288 33.007,-6.38686 44.2815,-2.90451 12.1118,3.74094 25.6803,14.99201 31.2399,25.90426 1.292,2.53578 3.6927,5.39387 5.3349,6.35132 3.3073,1.92816 23.447,22.96995 28.2954,29.56276 l 3.0861,4.19638 6.6635,-0.002 c 8.977,-0.002 12.8862,-2.0482 16.3845,-8.57564 3.9752,-7.41755 26.6417,-29.23004 34.2348,-32.94499 14.4963,-7.09237 37.5187,-1.28588 51.8924,13.08777 14.4247,14.42466 20.6572,34.19459 16.186,51.34258 -6.0147,23.06712 -30.9369,52.0121 -59.1408,68.6867 -15.6797,9.2701 -21.6069,10.29011 -31.0204,5.33834 -8.4995,-4.47099 -14.2303,-9.56043 -16.6787,-14.81214 -1.185,-2.54159 -2.2178,-4.75042 -2.2952,-4.90851 -0.077,-0.15809 -1.3238,0.25164 -2.7699,0.91051 -3.0464,1.38802 -3.274,3.50059 -1.4862,13.79502 0.8663,4.98822 1.9731,7.5964 4.5711,10.77172 1.8855,2.3044 5.4189,8.6044 7.8522,14 4.0507,8.98254 4.4233,10.48512 4.4157,17.81019 -0.016,15.45305 -5.0935,33.2074 -12.6237,44.1413 l -3.8583,5.60243 -0.02,18.62813 c -0.011,10.24548 -0.3831,19.5717698 -0.8267,20.7250898 -0.6669,1.73405001 -0.29,2.31089001 2.178,3.33317001 5.6013,2.32011999 11.9423,9.46088019 13.5505,15.25946019 0.8101,2.92073 2.1846,7.8684 3.0544,10.99481 2.4848,8.93097 5.5959,10.63394 24.3027,13.30284 14.8128,2.11334 21.6066,6.27457 22.6353,13.86422 0.2348,1.7317 1.1497,7.87355 2.0333,13.64855 2.2034,14.401703 2.0602,19.125203 -0.7511,24.783243 -1.289,2.59422 -3.4091,7.788037 -4.7114,11.541827 -1.3023,3.75379 -3.4602,7.91741 -4.7952,9.2525 -3.5561,3.556 -11.2669,5.57786 -23.1498,6.0701 l -10.5,0.43495 -8.8395,-4.08527 z m 20.3396,-1.99735 c 3.025,-1.06409 7.5591,-1.9494 10.0757,-1.96735 3.4328,-0.0245 5.1068,-0.59802 6.7023,-2.2963 2.3896,-2.54368 5.2209,-8.75134 5.2241,-11.454231 10e-4,-0.98017 1.3929,-4.42052 3.0927,-7.64524 l 3.0905,-5.86312 -1.8426,-4.63688 c -1.3193,-3.319879 -1.8427,-7.242239 -1.8427,-13.809819 0,-7.72105 -0.3295,-9.62041 -2.0818,-12 -3.9628,-5.38149 -21.0179,-9.32706 -40.3171,-9.32706 -8.7168,0 -13.217,-0.37845 -13.6949,-1.1517 -1.1904,-1.92614 2.698,-3.8483 7.7849,-3.8483 2.6449,0 4.8089,-0.18833 4.8089,-0.41851 0,-0.23019 -1.575,-3.70499 -3.5,-7.72179 -1.925,-4.0168 -3.5,-8.80082 -3.5,-10.63115 0,-4.06594 -1.8983,-7.87407 -5.6608,-11.3563602 -6.0817,-5.62881 -9.8856,-6.14922 -17.3392,-2.37219 -5.9424,3.0112202 -6,3.0160902 -6,0.50627 0,-2.10774 5.727,-6.82214 10.8808,-8.95690999 4.1363,-1.71332001 5.5856,-8.16170001 4.8255,-21.47110981 -0.7416,-12.98641 -3.4955,-30.24151 -5.4389,-34.07825 -4.4184,-8.72313 -19.2887,-25.5 -22.6022,-25.5 -0.7812,0 -1.9806,-0.675 -2.6652,-1.5 -2.1975,-2.64778 2.98,-1.78294 8.5,1.41983 9.0055,5.22514 16.4429,12.79821 20.135,20.50234 1.8507,3.86177 3.365,7.5966 3.365,8.29962 0,4.24972 5.6047,-2.31796 9.5058,-11.13905 7.8057,-17.65015 7.3075,-31.87099 -1.7107,-48.82998 -3.5311,-6.64039 -12.3972,-16.27078 -16.3702,-17.78128 -1.4646,-0.55685 -2.4249,-1.72383 -2.4249,-2.94673 0,-2.45973 2.6298,-2.67278 5.7774,-0.46805 2.2168,1.55271 2.2226,1.54243 2.2226,-4 0,-5.26048 -0.1333,-5.5567 -2.5,-5.5567 -1.8656,0 -2.5,-0.52797 -2.5,-2.08045 0,-1.49864 1.1186,-2.51984 4,-3.65169 2.2,-0.86418 4,-1.90412 4,-2.31097 0,-0.97648 -6.5311,-3.51205 -11.25,-4.36762 -2.735,-0.49587 -3.75,-1.18001 -3.75,-2.52759 0,-3.55394 6.7902,-4.18081 11.5,-1.06168 4.1459,2.74574 8.0967,2.63438 8.8697,-0.25 0.3316,-1.2375 0.6091,-7.65974 0.6166,-14.27164 0.02,-17.8012 3.9624,-30.47836 9.4777,-30.47836 3.9186,0 3.9001,1.65861 -0.098,8.77298 -3.7213,6.62216 -3.7862,6.92186 -4.1617,19.22702 -0.6616,21.68656 3.1191,33.55347 12.7955,40.16266 8.7237,5.95843 8.8729,5.94451 26.1919,-2.44341 23.6289,-11.44403 28.1748,-15.41492 45.2509,-39.52686 13.8673,-19.58103 17.4232,-29.09455 15.4585,-41.35775 -2.9705,-18.54153 -19.8791,-37.629 -37.5774,-42.41969 -5.5092,-1.49128 -7.3492,-1.57173 -12.8337,-0.56117 -3.5213,0.64884 -8.3347,2.02769 -10.6963,3.06412 -5.6828,2.49395 -20.1538,16.13335 -29.2815,27.59878 -9.7714,12.27397 -12.6027,13.96993 -23.3341,13.97747 -9.4729,0.007 -7.901,1.13904 -20.1195,-14.49415 -6.1533,-7.87285 -13.1001,-14.88946 -19.1755,-19.36797 l -3.6167,-2.66609 -1.4526,2.18772 c -2.2722,3.42214 -4.0321,1.48379 -3.2696,-3.60111 0.8291,-5.52904 -1.8872,-11.02985 -8.9038,-18.0312 -9.8799,-9.85839 -22.3434,-14.13276 -38.6361,-13.25032 -12.9521,0.70152 -21.6348,3.57184 -28.056,9.27477 -2.7584,2.44981 -5.4643,4.4542 -6.0132,4.4542 -2.1913,0 -2.0853,-3.21481 0.1882,-5.71101 1.6422,-1.80296 1.8719,-2.42882 0.7434,-2.02535 -0.8982,0.32114 -8.0982,0.88981 -16,1.26372 -17.9366,0.84874 -21.0864,1.51403 -32.8668,6.94208 -5.4897,2.52946 -13.0882,5.0872 -18,6.05899 -7.8972,1.56242 -13.2742,3.36759 -10.25,3.44116 0.6875,0.0167 1.25,0.93041 1.25,2.03041 0,1.69544 -0.6667,2 -4.3779,2 -2.4079,0 -6.1204,-0.73018 -8.25,-1.62261 -10.2169,-4.28139 -33.2944,-5.65019 -47.1185,-2.79475 -8.5192,1.75969 -17.8464,5.66504 -24.5574,10.28235 -4.3133,2.9676 -19.0444,7.95829 -35.3691,11.98253 -4.3049,1.06121 -16.8271,2.93306 -27.8271,4.15967 -21.336,2.37916 -31.8661,4.53052 -29.4584,6.01853 0.7702,0.47604 1.1885,1.06519 0.9294,1.3092 -2.1488,2.02394 -11.3435,8.3913 -20.471,14.17625 -7.8151,4.9531 -13.8377,9.83081 -20.8007,16.84631 -5.3903,5.43103 -9.5283,10.14685 -9.1956,10.4796 0.3328,0.33275 0.918,0.1564 1.3006,-0.39188 0.3826,-0.54828 2.7207,-2.54797 5.1957,-4.44375 2.475,-1.89578 8.1,-6.4273 12.5,-10.07004 4.4,-3.64274 10.925,-8.31422 14.5,-10.38106 3.575,-2.06684 9.48,-5.96119 13.1223,-8.65412 5.8797,-4.3472 10.9209,-6.27291 10.8541,-4.14623 -0.039,1.24925 -13.61,11.40956 -22.8195,17.08466 -4.7613,2.93406 -11.1319,7.44159 -14.1569,10.01673 -3.025,2.57513 -7.1875,5.93493 -9.25,7.46623 -4.3755,3.24853 -4.6397,4.24227 -1.3477,5.06851 4.1862,1.05067 8.3263,-0.47926 13.6928,-5.06006 7.2814,-6.21523 12.525,-8.62166 27.8115,-12.76339 7.3163,-1.98228 14.2036,-4.0865 15.3052,-4.67605 1.4536,-0.77795 2.3162,-0.7538 3.1455,0.088 1.4601,1.48219 -0.937,3.34743 -7.2707,5.65764 -13.3203,4.85856 -15.5872,5.97841 -16.723,8.26095 -2.0923,4.20461 -0.9053,5.05567 4.9505,3.54953 2.8522,-0.73361 9.4609,-2.05258 14.6859,-2.93105 13.2391,-2.22589 18.5362,-4.99449 23.7786,-12.42813 2.3217,-3.29225 4.2214,-6.8472 4.2214,-7.8999 0,-2.10576 3.594,-7.18372 5.0844,-7.18372 0.5419,0 0.6574,1.76223 0.273,4.16623 -0.6052,3.78484 -0.4954,4.1007 1.1994,3.45032 1.0261,-0.39376 6.729,-1.21106 12.6729,-1.81623 9.0667,-0.92311 16.3674,-0.73156 45.3308,1.18929 37.4517,2.48379 44.1877,2.21481 53.1962,-2.12424 l 4.2568,-2.05032 -3.1851,-2.97529 c -3.1734,-2.96445 -3.2,-2.96958 -7.2902,-1.40753 -5.3448,2.04122 -5.7375,1.99122 -5.3578,-0.68223 0.2432,-1.71234 2.7767,-3.56428 10.6023,-7.75 5.9196,-3.16624 13.2677,-8.152 17.3175,-11.75 7.1499,-6.35246 8.8998,-7.31587 8.8998,-4.90004 0,3.65241 -11.1418,15.22452 -17.7567,18.44251 l -3.2566,1.58427 2.6716,2.78852 c 4.5857,4.78651 7.8816,5.33657 31.8417,5.31418 24.0741,-0.0225 28.4804,-0.72171 47.6328,-7.55852 l 8.6328,-3.08165 -1.0345,-3.16964 c -1.5643,-4.79332 -1.5437,-4.74749 -5.0011,-11.16963 -3.8679,-7.18491 -7.3423,-9.2256 -18.3324,-10.76777 -6.7607,-0.94868 -7.4656,-1.25646 -7.1963,-3.14197 0.4347,-3.0425 6.8746,-3.27187 14.3796,-0.51214 7.944,2.9212 16.0913,11.01995 17.0373,16.93578 0.4549,2.84508 1.9441,5.51828 4.8816,8.76281 4.9073,5.42027 4.4594,5.49768 15.9991,-2.7652 7.4376,-5.32557 10.5011,-6.23952 10.5011,-3.13283 0,1.17226 -1.2081,2.37907 -3.2128,3.20944 -7.5271,3.11785 -23.4584,23.5472 -25.8382,33.13359 -0.6787,2.73375 -1.0145,9.25965 -0.7976,15.5 0.3582,10.30558 0.5663,11.18097 4.7449,19.95979 4.6302,9.72765 4.868,12.98851 0.8586,11.77252 -7.1523,-2.1692 -9.7921,-9.47634 -10.4599,-28.95402 -0.5373,-15.67115 0.9287,-25.41966 5.0869,-33.82569 3.1878,-6.44416 2.1317,-6.70412 -10.6404,-2.61936 -13.5073,4.31987 -15.0942,5.85365 -15.7415,15.21484 -0.4903,7.08898 -0.5563,7.23664 -3.3817,7.55934 -2.7183,0.31047 -2.8388,0.16867 -2.1241,-2.5 0.4167,-1.55602 0.7177,-4.80261 0.669,-7.21463 -0.049,-2.41203 0.3853,-5.27096 0.9645,-6.35317 0.982,-1.83483 0.7938,-1.92876 -2.7873,-1.39126 -2.1123,0.31702 -6.0002,0.86788 -8.64,1.22414 -7.2105,0.97312 -8.3004,2.61777 -7.7504,11.69509 0.2604,4.29651 -1.2548,6.7107 -4.2118,6.7107 -1.8374,0 -1.9632,-0.45313 -1.4137,-5.09243 0.5557,-4.69233 0.4685,-4.99088 -1.1107,-3.80001 -5.8184,4.38767 -7.2138,6.33751 -7.2138,10.07953 0,3.37585 -0.2798,3.81291 -2.441,3.81291 -1.3426,0 -2.7159,-0.44481 -3.0519,-0.98847 -1.1696,-1.89241 3.2018,-9.53646 7.5826,-13.25956 2.4257,-2.06141 5.1978,-4.42391 6.1603,-5.24999 0.9625,-0.82609 1.75,-1.89264 1.75,-2.37012 0,-0.47748 -7.3125,-1.09013 -16.25,-1.36145 -15.9057,-0.48286 -16.3984,-0.43529 -23.25,2.24439 -8.9773,3.511 -16.0251,4.9852 -23.8334,4.9852 l -6.2349,0 -2.6851,6.90153 c -2.1198,5.44862 -6.7466,20.42768 -6.7466,21.84179 0,0.15594 1.6875,-0.41589 3.75,-1.27072 2.0625,-0.85484 6.1484,-4.23587 9.0798,-7.51342 6.1078,-6.82894 9.1702,-7.76585 9.1702,-2.80557 0,4.11875 -5.241,9.02396 -15.3505,14.36706 l -7.495,3.96122 -0.6715,6.6869 c -1.3711,13.65304 3.0061,33.90347 12.1762,56.33121 5.8995,14.42874 7.6126,17.10437 11.4418,17.87021 1.7002,0.34004 7.5681,2.03745 13.0399,3.77203 10.3374,3.27701 11.655,4.60816 7.3591,7.43471 -1.7307,1.13867 -2.8755,0.92283 -8.5,-1.60252 -6.2793,-2.81929 -10,-3.68205 -10,-2.31874 0,0.36062 2.1044,3.73562 4.6765,7.5 l 4.6765,6.84431 11.5735,-0.003 c 6.3654,-0.002 15.3985,-0.67103 20.0735,-1.48727 4.675,-0.81624 14.575,-1.91358 22,-2.43854 12.8786,-0.91054 22.8043,-0.30417 41.5,2.53526 l 4,0.6075 -4.25,-3.11315 c -4.0307,-2.95265 -5.6205,-6.1008 -3.0809,-6.1008 0.643,0 3.646,1.39786 6.6733,3.10636 5.1093,2.88348 5.7864,3.02181 9.4375,1.92792 l 3.9333,-1.17844 -2.2934,-2.44116 c -1.6314,-1.73655 -1.984,-2.75055 -1.2215,-3.51302 1.4516,-1.45165 5.8041,0.88982 10.2478,5.51302 3.6588,3.80648 5.8144,4.35782 9.1306,2.33532 1.7917,-1.09273 2.3501,-0.90401 4.4384,1.5 2.7241,3.13583 7.4299,3.59853 16.599,1.6321 4.7728,-1.02357 9.8859,-4.46778 9.8859,-6.65916 0,-0.47739 -3.0375,-2.10674 -6.75,-3.62078 -17.3907,-7.0923 -24.9794,-13.05123 -35.0917,-27.55527 -6.3077,-9.04714 -6.6328,-9.7986 -6.9301,-16.01965 -0.516,-10.79734 2.6466,-12.36121 4.6545,-2.30159 1.0178,5.09871 6.2978,15.567 11.622,23.04199 1.7444,2.44896 10.8502,7.30588 21.9216,11.69263 6.4805,2.56773 7.6391,2.71159 18,2.23485 6.0905,-0.28024 11.9252,-0.66379 12.966,-0.85233 1.0408,-0.18853 2.071,0.16007 2.2892,0.77469 0.5406,1.52247 -5.1337,4.05512 -11.0342,4.925 l -4.8527,0.71541 0.7056,6.62105 c 0.3881,3.64158 1.0727,7.31045 1.5212,8.15303 0.4486,0.84259 4.0022,4.36413 7.8971,7.82564 4.2356,3.76446 7.0815,7.08301 7.0815,8.25787 0,2.55666 -3.7451,9.88452 -5.0518,9.88452 -1.7961,0 -2.21,-2.95395 -0.8678,-6.19412 1.1717,-2.82876 1.1136,-3.27021 -0.557,-4.23204 -3.8862,-2.23757 -9.7248,-8.05951 -11.4449,-11.41236 l -1.7881,-3.4852 -1.2761,16.14245 c -1.4539,18.39039 -1.2282,20.65605 3.5273,35.41278 3.83,11.8846698 4.3664,18.94332981 1.9584,25.7684898 -1.8716,5.3046702 -1.9169,9.4091202 -0.1203,10.9001702 1.1489,0.95349 1.2944,0.38843 0.8699,-3.37756 -0.4155,-3.68608 -0.2148,-4.5226102 1.0851,-4.5226102 2.6062,0 3.7862,3.5960802 4.8735,14.8521602 0.6181,6.3987 1.7458,12.06249 2.8259,14.19279 3.6375,7.17448 17.5031,17.17903 31.3057,22.58822 3.314,1.29875 7.1317,3.37509 8.4838,4.6141 l 2.4584,2.25273 -0.6447,-2.68871 c -0.7373,-3.07492 0.7628,-4.55402 2.8564,-2.81646 3.3612,2.78952 5.7207,10.12818 6.5375,20.333269 0.8347,10.4291 2.8997,17.726171 5.9331,20.966231 0.9239,0.98688 3.7849,2.42786 6.3578,3.20217 l 4.6779,1.40784 0,-5.54444 c 0,-4.113421 -0.5403,-6.230401 -2.0931,-8.202171 -1.8083,-2.29609 -2.0464,-3.73937 -1.75,-10.60686 l 0.3431,-7.949119 -3.225,-0.66945 c -4.7737,-0.99095 -8.0034,-3.47943 -10.2622,-7.90709 -2.0638,-4.04534 -2.7249,-10.02521 -1.1083,-10.02521 0.4975,0 2.2937,2.46149 3.9916,5.46998 4.4037,7.80293 9.4999,10.03092 16.9799,7.42337 2.9708,-1.03559 3.1318,-1.33486 2.5077,-4.6613 -0.5802,-3.09304 -0.4431,-3.46879 1.0565,-2.89336 0.9478,0.36372 1.9,0.66131 2.1159,0.66131 1.3809,0 3.9447,7.55973 4.4968,13.25972 0.7947,8.205789 2.6673,10.740279 7.9354,10.740279 2.0231,0 3.9411,-0.26277 4.2623,-0.58393 0.3212,-0.32116 -0.3161,-3.13366 -1.4161,-6.25 -1.6395,-4.644559 -1.8933,-7.162069 -1.4078,-13.964019 0.6904,-9.67147 -0.034,-11.59307 -5.1762,-13.74184 -3.9111,-1.63415 -7.2505,-4.22041 -7.2505,-5.6152 0,-1.41877 3.2261,-0.95099 9,1.30496 3.6943,1.44345 7.3877,2.09123 11.25,1.97312 3.1625,-0.0967 5.75,0.23093 5.75,0.72809 0,1.42604 -2.2336,2.861 -5.5577,3.57056 -2.8834,0.61549 -3.0583,0.92135 -3.0679,5.36548 -0.01,2.59203 -0.3258,5.95028 -0.7114,7.46278 -0.8844,3.46882 0.1745,3.50438 7.1841,0.24124 5.416,-2.5213 7.1529,-2.51359 7.1529,0.0317 0,2.20129 -7.0847,6.47703 -10.7321,6.47703 -1.7974,0 -3.2679,0.14484 -3.2679,0.32186 0,2.07194 3.4991,9.655709 4.6608,10.101489 0.8407,0.32258 3.4764,-0.27516 5.8573,-1.32832 4.5148,-1.99712 5.4819,-1.8461 5.4819,0.85603 0,2.25161 -5.1253,5.04894 -9.2507,5.04894 -1.8931,0 -4.8891,0.7219 -6.6578,1.60423 -3.847,1.91912 -10.7296,1.21624 -14.2712,-1.45743 -2.9907,-2.25782 -10.8407,-5.25224 -11.9583,-4.56153 -0.4741,0.29302 -0.862,1.69057 -0.862,3.10567 0,5.39118 9.5849,11.30906 18.3168,11.30906 5.1955,0 13.9286,-2.00165 15.7619,-3.61267 2.4071,-2.11521 3.9213,-1.66383 3.9213,1.1689 0,4.224961 -6.9858,6.665081 -19.5219,6.818961 -7.2656,0.0892 -10.6365,-0.26409 -11.811,-1.23781 -1.4073,-1.16682 -1.7365,-1.12011 -2.2911,0.32507 -1.1254,2.93269 1.4658,9.38644 4.4102,10.98458 3.3596,1.82343 2.6632,1.85722 9.2138,-0.44703 z m -52.8497,-58.53595 c -1.4774,-1.87826 -3.7375,-2.90058 -8.7144,-3.94189 -7.0428,-1.47355 -9.1107,-2.62139 -7.9898,-4.43503 2.4624,-3.98424 21.5539,3.9707 21.5539,8.98096 0,2.71272 -2.4841,2.40333 -4.8497,-0.60404 z m 8.3497,-20.64157 c -9.922,-5.61654 -9.8066,-5.44679 -8.9762,-13.20082 0.39,-3.64191 1.0856,-6.62166 1.5456,-6.62166 0.9525,0 2.9166,6.44302 2.925,9.59501 0.01,2.56835 2.3138,4.71365 7.2696,6.76025 3.818,1.57671 5.176,3.35313 4.5705,5.97882 -0.2548,1.10509 -2.003,0.50645 -7.3345,-2.5116 z m -28.466,-26.5740302 c -1.9063,-0.96165 -4.268,-3.13856 -5.2481,-4.83758 -3.6421,-6.31321 -7.9229,-34.9477798 -4.7503,-31.7752098 0.5696,0.56962 2.3691,6.11821 3.9989,12.33021 3.5457,13.5143198 5.4466,16.85099981 11.9938,21.0523498 2.7344,1.75465 4.9717,3.59336 4.9717,4.08603 0,1.5454402 -7.3418,0.9724902 -10.966,-0.8558 z M 1843.3231,-88.56745 c -2.475,-0.7089 -6.8625,-1.32513 -9.75,-1.36939 -5.7262,-0.0878 -6.8322,-1.50822 -2.5,-3.21071 2.8678,-1.12704 23.2452,-0.62209 26.5,0.65666 2.0335,0.79896 2.2606,2.56297 0.55,4.27357 -1.5113,1.51128 -8.9126,1.33618 -14.8,-0.35013 z m 18,-0.77556 c 0,-0.72912 1.0869,-2.3468 2.4153,-3.59483 3.6897,-3.46626 3.9306,-6.31793 1.1013,-13.03987 -1.3841,-3.28864 -2.5166,-7.05722 -2.5166,-8.37462 0,-2.83765 3.5293,-7.66499 5.6039,-7.66499 2.2343,0 2.8323,2.86047 1.0173,4.86599 -2.2723,2.51094 -2.0233,4.86753 0.879,8.31673 3.2843,3.90316 4.0127,7.16187 2.6313,11.77247 -1.7004,5.67552 -4.7565,9.04481 -8.2041,9.04481 -1.7644,0 -2.9274,-0.52667 -2.9274,-1.32569 z m -42.5105,-2.69115 c -0.3845,-0.62217 0.1998,-2.1104 1.2984,-3.30719 1.5867,-1.72836 1.8011,-2.69024 1.0424,-4.67597 -2.2371,-5.85517 2.8488,-14.17105 6.708,-10.9682 1.3547,1.12433 1.2895,1.5225 -0.5738,3.50597 -1.8972,2.01941 -1.9901,2.65357 -0.9533,6.50416 1.01,3.75071 0.9155,4.58044 -0.7815,6.86233 -2.0895,2.80972 -5.6162,3.89747 -6.7402,2.0789 z m 63.7605,0.30885 c -2.3027,-0.29667 -3.25,-0.94141 -3.25,-2.21177 0,-1.49918 1.1881,-1.89997 7.25,-2.44549 11.7561,-1.05796 17.4998,-3.27816 20.411,-7.88986 2.8219,-4.47019 2.9176,-5.13083 1.8768,-12.96084 -0.7288,-5.48313 -0.6362,-5.83954 2.2743,-8.75 1.8088,-1.80888 4.0746,-3.03405 5.6109,-3.03405 3.3346,0 3.3497,2.32686 0.025,3.84173 -2.5241,1.15009 -2.5446,1.25325 -1.8785,9.46232 0.6,7.39466 0.4294,8.78453 -1.5646,12.74775 -2.7228,5.41196 -4.7153,7.75655 -8.0025,9.41677 -2.6651,1.346 -17.3337,2.52158 -22.7524,1.82344 z m 123.0869,-11.85633 c -0.9572,-2.49438 0.3395,-10.52848 2.5187,-15.60535 2.4509,-5.70987 8.7003,-12.83033 11.2607,-12.83033 2.9076,0 2.2775,3.33614 -0.9953,5.26943 -3.9759,2.34864 -6.121,7.3983 -6.121,14.40919 0,6.1408 -1.8584,10.32138 -4.5881,10.32138 -0.8111,0 -1.7448,-0.70395 -2.075,-1.56432 z m -185.9916,-18.97798 c -0.455,-1.18584 0.045,-2.35531 1.5162,-3.54669 1.8713,-1.51523 3.4991,-1.69299 11.0336,-1.20485 6.7561,0.43771 9.972,0.18639 13.6498,-1.06677 8.0255,-2.73455 10.4357,-1.73474 7.038,2.91948 -1.2337,1.68987 -3.1429,2.02428 -14.75,2.58351 -7.3331,0.35331 -14.34,0.96687 -15.5708,1.36346 -1.6542,0.533 -2.4149,0.25962 -2.9168,-1.04814 z m 51.1547,-0.3248 c -5.0455,-1.34261 -8.9802,-3.81505 -12.7998,-8.04295 -3.9416,-4.36281 -4.2891,-5.37113 -5.1234,-14.86503 -0.3033,-3.45129 -1.192,-7.50129 -1.9749,-9 -1.7573,-3.36422 -6.1348,-7.49498 -10.0598,-9.49297 -2.6284,-1.33794 -3.2125,-1.33881 -5.2439,-0.008 -2.0453,1.34015 -2.7342,1.32036 -6.5422,-0.18794 -2.3408,-0.92719 -5.606,-2.94815 -7.256,-4.49102 -1.65,-1.54287 -4.0125,-3.32504 -5.25,-3.96039 -3.8014,-1.95147 -2.4284,-6.0846 2.0213,-6.0846 0.6093,0 3.2778,2.34803 5.93,5.21785 l 4.8221,5.21786 6.7383,0.0908 c 7.6575,0.1032 11.1905,1.59826 17.0899,7.23205 3.2072,3.06281 4.1273,4.82973 5.0725,9.74144 0.635,3.3 1.3611,6.97544 1.6136,8.16764 0.524,2.47463 9.6747,12.8405 12.8222,14.525 6.6623,3.56557 17.2477,2.11507 23.2917,-3.19162 3.6421,-3.1978 13.0358,-6.44194 15.6966,-5.42088 3.4915,1.33983 1.5662,3.26491 -4.5934,4.59285 -5.5846,1.20396 -6.4158,1.70766 -7.858,4.76209 -0.8871,1.87865 -2.617,3.78717 -3.8442,4.24116 -3.2416,1.19915 -21.0359,1.89249 -24.5526,0.95666 z m -58,-9.08693 c -5.5221,-2.28408 -9.5,-10.15255 -9.5,-18.79135 0,-6.81101 -1.6905,-9.8095 -6.7134,-11.90821 -2.8499,-1.19077 -3.2418,-1.69556 -2.2468,-2.89436 1.8198,-2.19283 6.3535,-1.74364 9.2207,0.91359 2.7134,2.51471 5.2836,9.91028 6.3024,18.13436 0.5284,4.26599 1.2795,5.61698 5.1164,9.20282 5.5866,5.22113 4.423,8.07406 -2.1793,5.34315 z m 211.5084,-11.69232 c -1.7298,-1.45549 -5.4081,-6.00007 -8.1741,-10.09907 -3.3075,-4.9016 -6.5252,-8.36016 -9.4001,-10.10365 -5.0117,-3.03947 -5.7068,-5.15854 -1.6842,-5.13448 5.5245,0.033 10.4521,4.00171 13.9463,11.2322 2.4997,5.17257 4.3966,7.53991 8.2735,10.32515 5.3651,3.85445 5.9586,4.85595 3.4484,5.81921 -2.4916,0.95611 -3.0677,0.77282 -6.4098,-2.03936 z m -124.3181,-0.10365 c -0.2352,-0.4125 -0.9747,-2.44643 -1.6431,-4.51985 -0.9418,-2.92108 -2.6037,-4.69818 -7.3813,-7.89302 -9.4837,-6.34174 -10.6659,-7.66597 -10.6659,-11.94634 0,-6.70267 -1.2951,-8.5222 -7.0481,-9.90233 -2.8523,-0.68426 -7.6084,-0.9941 -10.569,-0.68853 -5.1655,0.53312 -5.3829,0.45891 -5.3829,-1.837 0,-3.43053 3.2726,-4.8178 9.7808,-4.1461 6.6135,0.68257 16.0522,5.09901 17.1857,8.04132 0.4539,1.17802 1.4,4.07246 2.1027,6.43209 1.1866,3.98509 7.5276,11.20976 9.8386,11.20976 0.4962,0 2.0439,1.94837 3.4395,4.32972 3.6029,6.14788 5.0347,7.0559 10.7169,6.79662 5.574,-0.25433 6.8258,1.69148 2.3887,3.71314 -2.8271,1.28814 -12.0922,1.58615 -12.7626,0.41052 z m 35.8412,-8.19901 c -1.3903,-2.24958 0.9025,-2.96588 14.4811,-4.52399 20.2215,-2.32035 23.5552,-3.1998 31.1862,-8.22715 3.7348,-2.46045 7.0444,-4.88447 7.3548,-5.3867 1.1624,-1.88067 2.4464,-0.81206 2.4464,2.03596 0,7.59433 -20.017,15.25292 -43.5419,16.65937 -8.3419,0.49873 -11.3611,0.3576 -11.9266,-0.55749 z m 65.2309,-23.62184 c -0.3603,-0.36037 0.2762,-1.91501 1.4146,-3.45475 l 2.0698,-2.79953 -3.2672,-5.71053 -3.2673,-5.71053 1.6384,-5.19746 c 0.9011,-2.8586 1.9294,-7.32089 2.2851,-9.91619 0.583,-4.25326 0.3251,-5.16666 -2.6143,-9.25968 -2.3647,-3.2928 -2.9598,-4.84225 -2.1649,-5.63709 2.5169,-2.51694 9.1434,7.3883 9.1434,13.66755 0,1.91984 -0.5044,5.84218 -1.1208,8.71632 -0.9887,4.61024 -0.8468,6.09888 1.2045,12.63967 2.1177,6.75259 2.1924,7.65121 0.8373,10.07352 -1.4271,2.55088 -4.7849,3.96233 -6.1586,2.5887 z m 18.2376,-6.7262 c 0,-0.71338 1.8271,-3.07588 4.0604,-5.25 2.2332,-2.17412 6.8892,-8.22795 10.3467,-13.45295 5.9272,-8.95741 14.2675,-18 16.6019,-18 1.7242,0 2.5255,3.32599 0.9209,3.82253 -3.3749,1.04429 -10.7076,10.21594 -14.7859,18.49394 -5.1488,10.45067 -9.8791,15.68353 -14.1774,15.68353 -1.764,0 -2.9666,-0.52579 -2.9666,-1.29705 z m -305.25,-38.2817 c -3.3252,-3.34545 4.3862,-5.42635 20.0492,-5.41024 12.7545,0.0131 18.2008,0.77763 18.2008,2.5549 0,1.01556 -1.9366,1.18036 -8.75,0.7446 -7.7661,-0.49668 -12.2754,-0.0974 -25.25,2.23591 -1.925,0.34618 -3.8375,0.28986 -4.25,-0.12517 z m 263.7144,-11.56228 c -7.4599,-4.75548 -12.1674,-6.55217 -20.7144,-7.90589 -5.6534,-0.8954 -7.75,-1.63092 -7.75,-2.71876 0,-1.23759 1.3184,-1.40397 7.75,-0.97803 13.9263,0.92229 27.75,6.75076 27.75,11.70021 0,3.46813 -1.4742,3.44769 -7.0356,-0.0975 z m 15.0229,1.12056 c -0.3469,-0.56126 0.5655,-2.4421 2.0276,-4.17965 2.3015,-2.73516 2.5713,-3.73904 2.0104,-7.47953 -0.5233,-3.48949 -0.3544,-4.32035 0.8782,-4.32035 3.7953,0 4.7921,8.52677 1.6074,13.75 -1.9476,3.19429 -5.2333,4.31724 -6.5236,2.22953 z m 77.1272,309.84339 c -0.3494,-1.7474 -0.7838,-3.32552 -0.9652,-3.50695 -0.8645,-0.86448 -6.6493,1.09502 -6.6493,2.25233 0,1.70751 3.9018,4.431699 6.3475,4.431699 1.6041,0 1.8028,-0.49828 1.267,-3.177079 z M 1319.3231,-4.5459402 c 4.125,-1.26713 12.8789,-2.80914 19.4532,-3.4267 12.0852,-1.13524 15.926,-2.4147998 27.0468,-9.0106098 5.9768,-3.54491 21.1234,-8.03407 27.1072,-8.03407 9.8231,0 28.5158,2.07888 36.4166,4.05 11.6418,2.90447 23.6612,3.93287 46.0696,3.9418 24.1118,0.01 24.0498,0.0243 47.3939,-11.25211 l 14.9874,-7.23969 9.0126,0.0441 c 7.6011,0.0372 11.4402,0.74193 24.5127,4.5 14.2145,4.08639 16.3388,4.44097 25.6148,4.27539 12.3376,-0.22025 25.8302,-2.43857 42.3194,-6.95775 6.8472,-1.87661 12.5857,-3.54832 12.7523,-3.71492 0.1666,-0.1666 -2.1171,-3.98129 -5.0749,-8.47708 -3.4202,-5.19858 -6.4035,-11.35857 -8.1955,-16.92193 -2.638,-8.1899 -2.8208,-9.86376 -2.8669,-26.24776 -0.057,-20.44496 1.4261,-19.00815 -14.0492,-13.60586 -11.4835,4.00878 -25.6208,7.05729 -40,8.62548 -5.5,0.59982 -11.125,1.55878 -12.5,2.13102 -2.2432,0.93355 -1.5312,1.29168 6.9319,3.48642 18.7947,4.87398 22.3306,8.36414 5.5681,5.49593 -20.8788,-3.57253 -47.7941,-1.0095 -62.3048,5.93302 -9.1076,4.35746 -18.425,4.90946 -34.3983,2.03789 -20.086,-3.61092 -24.4108,-2.99412 -51.659,7.36754 -27.9417,10.62532 -32.4988,11.77586 -48.1379,12.15351 -7.425,0.1793 -18.9,0.7799 -25.5,1.33467 -6.6,0.55477 -15.825,1.02361 -20.5,1.04187 -11.6026,0.0453 -20.9383,2.17185 -26.5824,6.05509 -4.5225,3.11162 -4.7375,3.15328 -12.8024,2.48148 -4.9463,-0.41203 -9.1777,-0.27876 -10.6589,0.33569 -1.351,0.56042 -5.0139,1.72196 -8.1398,2.58118 -7.1133,1.95522 -11.8165,5.72037 -11.8165,9.4596 0,3.01749 2.2261,5.42792 8.75,9.47441 3.311,2.05373 4.2533,3.24086 4.2653,5.37355 0.01,1.50561 0.3459,3.18873 0.75,3.74027 1.1534,1.57435 8.7164,6.4971898 9.9817,6.4971898 0.6268,0 1.7591,0.88456 2.5164,1.96568 3.1808,4.54127001 10.118,4.68907001 23.7366,0.5057 z m -16.6712,-4.41245 c -5.3526,-3.2637798 -10.9178,-15.0906498 -7.0788,-15.0436198 1.9462,0.0238 3.0979,1.18546 5.1185,5.16249 1.0698,2.1056 3.1167,4.19478 4.7883,4.88715 3.5566,1.47322 5.2241,4.1540598 3.5964,5.7818498 -1.5928,1.59273 -2.7536,1.45036 -6.4244,-0.78787 z M 1285.6267,-25.6684 c -0.7354,-1.91646 6.9985,-9.74425 8.9836,-9.0927 2.0903,0.68604 1.9145,5.21761 -0.3123,8.04844 -2.4668,3.13609 -7.63,3.75787 -8.6713,1.04426 z m 275.974,-13.59892 c -2.2054,-2.85027 -2.1285,-5.27094 0.4115,-12.95621 l 2.6724,-8.08603 -2.6994,-2.32192 c -3.1978,-2.75065 -4.7919,-8.38584 -2.3721,-8.38584 3.3175,0 14.71,15.8509 14.71,20.46676 0,2.44954 -2.9345,1.77117 -4.182,-0.96676 -0.6265,-1.375 -1.501,-2.5 -1.9434,-2.5 -2.2591,0 -4.9498,11.21748 -2.9824,12.43342 0.6093,0.37654 1.1078,1.33306 1.1078,2.1256 0,1.76944 -3.3948,1.90673 -4.7224,0.19098 z m -158.2776,-4.14301 c 0,-2.25901 0.5848,-3.66127 1.75,-4.19564 0.9625,-0.44145 12.1,-0.87144 24.75,-0.95554 24.3306,-0.16175 28.8732,-0.66195 50.7358,-5.58658 13.8329,-3.11591 16.7642,-3.19045 16.7642,-0.42629 0,5.48877 -22.4731,9.25599 -62.1988,10.42656 -21.1826,0.62417 -24.9664,0.96999 -26.5787,2.42914 -3.1509,2.85153 -5.2225,2.1805 -5.2225,-1.69165 z m 116.5,-0.96558 c -6.1966,-2.89882 -11.5,-7.76075 -11.5,-10.54262 0,-2.7815 0.7184,-2.66603 6.5542,1.05342 2.7202,1.73372 7.3083,4.20304 10.1958,5.48739 2.8875,1.28435 5.25,2.71862 5.25,3.18728 0,0.65905 -4.2758,3.21251 -5.2971,3.16335 -0.1116,-0.005 -2.4529,-1.06234 -5.2029,-2.34882 z m 173.5,7.7617 c 3.575,-0.86203 12.0476,-2.15996 18.828,-2.88428 10.6552,-1.13824 12.9793,-1.72175 17.1267,-4.29993 2.6393,-1.64064 7.8216,-4.19236 11.5164,-5.67049 5.9259,-2.37076 6.9128,-2.51646 8.3733,-1.23624 2.9409,2.57798 5.7683,2.7888 16.3074,1.21594 17.7165,-2.64401 20.8077,-4.01484 23.754,-10.53395 1.7475,-3.86672 3.065,-5.23025 6.708,-6.94267 2.4933,-1.17201 5.8431,-2.39287 7.4438,-2.71302 l 2.9104,-0.58209 -2.5552,-4.12819 c -3.3822,-5.46425 -7.4942,-14.40691 -13.6238,-29.62819 -8.5939,-21.34062 -11.7478,-31.7884 -13.8152,-45.76483 -1.6863,-11.40058 -1.8113,-14.70331 -0.8894,-23.5 1.4585,-13.91603 3.3159,-21.60438 6.9666,-28.83638 1.694,-3.35564 2.7882,-6.39314 2.4316,-6.74998 -0.3566,-0.35685 -3.6408,-0.64881 -7.2983,-0.64881 l -6.6499,0 -1.1408,6.32359 c -1.2406,6.8766 -2.4058,8.76947 -4.8264,7.84058 -1.8242,-0.70001 -2.1061,-6.29843 -0.5843,-11.60454 0.5405,-1.88494 0.878,-3.53094 0.75,-3.65777 -0.4364,-0.43201 -32.1473,-2.32086 -32.5305,-1.93767 -0.2098,0.20985 2.2463,4.4009 5.458,9.31344 3.2118,4.91255 6.2896,9.66669 6.8396,10.56475 0.55,0.89807 4.9939,2.77783 9.8755,4.17724 10.9236,3.13152 12.6245,4.01355 12.6245,6.54695 0,2.74004 -2.2586,3.36821 -5.7041,1.58645 -1.5866,-0.82042 -5.7897,-2.2408 -9.3403,-3.15639 -8.0405,-2.07339 -11.943,-4.98331 -15.8566,-11.82357 -1.682,-2.93975 -4.8673,-7.40036 -7.0786,-9.91248 -2.2112,-2.51211 -4.0204,-5.11278 -4.0204,-5.77925 0,-0.88326 -1.5589,-1.03706 -5.75,-0.56732 -12.6488,1.41767 -12.7842,1.47053 -18.3923,7.17931 -6.8874,7.01106 -12.0211,9.46455 -30.228,14.4465 -17.2706,4.72574 -20.4657,4.78792 -22.6399,0.44059 -1.5001,-2.99946 -1.5439,-3.0128 -6.5563,-2 -3.7258,0.75283 -6.0288,2.00835 -8.8023,4.79873 -3.52,3.54152 -3.9139,4.57897 -6.2643,16.5 -4.6749,23.71001 -3.5964,30.59154 7.0025,44.6801 2.9132,3.87242 5.8529,8.0816 6.5325,9.35374 1.1896,2.22637 1.6171,2.29893 11.4169,1.93789 5.5997,-0.2063 15.7136,-1.20001 22.4754,-2.20826 10.3192,-1.53866 12.6877,-1.62262 14.7432,-0.52258 1.3469,0.72083 5.646,5.49043 9.5537,10.59912 3.9077,5.10869 9.5618,11.14356 12.5648,13.41083 3.003,2.26728 5.2866,4.65055 5.0747,5.29617 -0.2119,0.64562 -2.1375,1.31945 -4.2792,1.4974 -3.7944,0.31529 -4.1754,0.0282 -14.9227,-11.24335 l -11.0287,-11.5669 -6.2432,-0.84021 c -6.4961,-0.87424 -11.9241,-0.36045 -23.7568,2.24868 -3.85,0.84893 -8.004,1.55132 -9.231,1.56087 -1.4972,0.0117 -2.3887,0.75739 -2.7106,2.26736 -3.0236,14.18229 -3.0122,24.74855 0.04,36.46461 2.9214,11.21599 9.9988,20.48367 21.9615,28.75795 4.5973,3.17978 5.4965,3.42004 12.9406,3.45756 4.4,0.0222 10.925,-0.66498 14.5,-1.52701 z m 74.6666,-15.06978 c -3.0565,-3.05651 2.6211,-17.35544 9.8424,-24.788 l 4.0091,-4.12635 -2.253,-3.95949 c -3.2442,-5.70147 -5.9804,-13.28264 -9.7626,-27.04957 -4.2704,-15.54438 -9.9718,-49.09517 -9.117,-53.65145 0.6754,-3.60027 3.0752,-7.63105 3.9954,-6.71084 0.2995,0.29946 1.0225,6.82375 1.6067,14.49842 1.4261,18.73559 1.8055,20.32315 11.4753,48.01148 7.3969,21.17988 8.3755,24.78526 8.182,30.14147 -0.2293,6.34286 -0.6604,7.22783 -6.7238,13.801 -2.0294,2.2 -4.2505,5.8 -4.9358,8 -1.8234,5.8536 -4.1503,8.00174 -6.3187,5.83333 z m -24.1718,-36.34164 c -0.3427,-0.55457 0.092,-4.51389 0.9658,-8.7985 l 1.5889,-7.7902 -4.1303,-10.95149 c -5.999,-15.90667 -8.9192,-28.24301 -8.9192,-37.6786 0,-8.468 2.0012,-14.7729 4.689,-14.7729 1.2205,0 1.3523,1.44102 0.8007,8.75 -0.8411,11.14474 0.9514,20.05287 7.697,38.25 4.7923,12.92796 4.981,13.82055 4.4543,21.06506 -0.6798,9.3522 -1.9421,12.93494 -4.5573,12.93494 -1.0811,0 -2.2461,-0.45374 -2.5889,-1.00831 z m -16.7383,-23.28911 c -1.927,-4.05758 -5.9657,-10.27974 -8.9749,-13.82702 -7.9518,-9.37355 -10.6471,-13.83208 -11.6693,-19.30333 -0.9933,-5.3172 0.1889,-10.57223 2.3785,-10.57223 1.7071,0 2.5092,2.27409 2.5092,7.11391 0,6.02214 2.2373,10.18836 10.5732,19.68875 4.1972,4.78354 8.5105,10.41646 9.5852,12.51762 2.0645,4.03658 2.195,10.74523 0.2216,11.39241 -0.616,0.20202 -2.6966,-2.95254 -4.6235,-7.01011 z m -48.0256,-12.62343 c -1.6134,-6.16955 5.7033,-24.07915 9.8371,-24.07915 2.2109,0 1.7333,4.47184 -1.068,10 -1.5231,3.00555 -2.5,6.6269 -2.5,9.26676 0,2.38328 -0.54,4.87324 -1.2,5.53324 -1.8189,1.81886 -4.5048,1.4369 -5.0691,-0.72085 z m -392.2309,75.48762 c 4.4,-0.82335 10.6442,-1.51269 13.876,-1.53188 4.2409,-0.0252 8.2757,-0.97355 14.5,-3.4082 4.7432,-1.85532 9.524,-3.71433 10.624,-4.13113 1.1,-0.41681 11.26,-1.03632 22.5779,-1.37669 l 20.5779,-0.61887 6.029,-3.72297 c 7.0572,-4.35787 17.232,-8.56864 29.8152,-12.33877 7.841,-2.3493 11.5755,-2.79772 29,-3.48215 24.1856,-0.95001 30.539,-2.50751 51,-12.50239 8.2132,-4.01204 10.0053,-4.48814 20.5,-5.44611 6.325,-0.57736 16.84,-2.02036 23.3668,-3.20667 11.4191,-2.07556 12.1044,-2.09362 18.1641,-0.47893 3.4635,0.92289 8.2664,1.67799 10.6731,1.67799 8.706,0 22.5155,-4.92733 32.1684,-11.47801 7.4603,-5.06271 7.6934,-2.24855 0.3776,4.55828 -2.8875,2.68659 -4.9258,4.89259 -4.5296,4.90222 2.4068,0.0585 30.2994,-7.27447 35.2796,-9.27501 3.3,-1.32561 6.7632,-2.67866 7.6961,-3.00678 1.4525,-0.51091 1.077,-1.5198 -2.6154,-7.02618 -6.1388,-9.15458 -8.7336,-18.44725 -8.6731,-31.06156 0.027,-5.56213 0.5348,-12.81296 1.1292,-16.11296 0.5944,-3.3 1.3319,-7.638 1.6388,-9.64001 l 0.5582,-3.64001 -4.8669,-0.4277 c -9.7578,-0.85751 -32.2993,6.51457 -46.2259,15.11795 -5.3026,3.27577 -13.691,7.83109 -18.641,10.12295 l -9,4.167 -9.6082,-0.63611 c -11.6654,-0.7723 -16.1058,0.12762 -29.5809,5.99512 l -10.1987,4.44081 -18.9838,0 c -10.441,0 -22.5038,0.47319 -26.8061,1.05153 -8.8475,1.18934 -20.2878,6.04148 -26.7789,11.35762 -8.8347,7.23554 -25.5142,17.23099 -40.389,24.20385 -8.61,4.03605 -16.2169,7.34924 -16.9044,7.36264 -2.1691,0.0423 -1.3688,-1.6642 2.2848,-4.87205 3.1932,-2.80372 3.3211,-3.10359 1.3231,-3.10359 -1.2164,0 -4.5822,1.63268 -7.4795,3.62818 -5.6249,3.87398 -9.0418,4.03735 -7.88,0.37675 0.5338,-1.68185 0.1823,-2.00606 -2.1811,-2.01194 -1.5495,-0.004 -6.555,-0.90304 -11.1232,-1.9982 -18.1072,-4.34093 -26.9531,-3.5974 -42.0537,3.53471 -13.1869,6.22829 -15.9896,9.43318 -17.6527,20.18634 -0.3586,2.31871 -1.9105,5.79948 -3.4487,7.73505 -2.3942,3.01266 -2.7235,4.1691 -2.2878,8.03416 0.3162,2.80609 0.112,4.51495 -0.5396,4.51495 -1.3637,0 -5.2116,6.23524 -5.2116,8.44496 0,0.93989 1.3708,3.07976 3.0463,4.75528 2.5327,2.53267 3.5867,2.94665 6.25,2.45496 1.762,-0.32529 6.8037,-1.26508 11.2037,-2.08843 z m -6.9286,-13.1382 c -1.9614,-1.96134 -1.974,-2.84962 -0.063,-4.43559 1.853,-1.53788 8.2401,-0.67301 10.309,1.39594 0.8008,0.8008 1.1836,2.16589 0.8506,3.03354 -0.8255,2.15124 -8.947,2.15572 -11.0967,0.006 z m 8.6786,-11.13234 c -2.1649,-0.8017 -1.4443,-6.91189 1.1834,-10.0348 1.5894,-1.8889 2.5433,-4.43024 2.75,-7.32673 0.378,-5.29619 1.5243,-5.59931 4.153,-1.09824 l 1.9486,3.33646 -2.7194,5.6898 c -3.3665,7.04356 -5.6875,10.03644 -7.3156,9.43351 z m 103.3252,-13.05429 c -3.5806,-3.58059 17.202,-12.86737 55.7541,-24.91392 l 14.1471,-4.42063 12.0118,0.59397 c 15.513,0.76711 18.188,1.21254 18.9325,3.15259 1.0761,2.80445 -1.3975,4.57304 -5.3566,3.82986 -13.9175,-2.61247 -28.1489,-2.19455 -40.0641,1.17652 -5.9064,1.67105 -41.5368,15.53162 -46.4279,18.06094 -3.8886,2.01084 -8.2771,3.2404 -8.9969,2.52067 z m 145.4785,-20.67715 c -1.9309,-2.32666 -0.1349,-8.62657 4.0688,-14.27188 2.1326,-2.8639 3.8775,-5.3709 3.8775,-5.5711 0,-0.20021 -1.9125,-2.36831 -4.25,-4.81802 -5.172,-5.42021 -10.2134,-15.25336 -8.9646,-17.48496 0.7691,-1.37417 1.0225,-1.35674 2.2897,0.15745 0.7837,0.93646 2.551,3.77624 3.9274,6.31062 1.819,3.34935 3.8676,5.34493 7.5,7.30611 4.5942,2.48042 5.0067,3.00516 5.1124,6.50257 0.098,3.23092 -0.6186,4.6082 -4.7513,9.13642 -3.4587,3.78974 -5.0485,6.47169 -5.4963,9.27217 -0.722,4.51548 -1.6413,5.47555 -3.3136,3.46062 z m -45.3871,-20.23146 c -3.0324,-3.03247 4.5874,-11.82125 14.5857,-16.8232 7.2806,-3.64232 9.2391,-4.14201 10.1919,-2.60037 1.2157,1.96702 -0.8409,4.06126 -5.5117,5.61266 -3.8021,1.26284 -6.1509,3.05794 -10.5349,8.05138 -5.3377,6.07977 -7.1893,7.30119 -8.731,5.75953 z m -89.9345,63.20418 c 6.5531,-1.90437 15.4722,-4.77099 19.8202,-6.37026 7.4537,-2.74158 7.729,-2.94654 4.8165,-3.58623 -7.9035,-1.7359 -26.2635,2.74368 -39.8688,9.72744 l -7,3.59317 5.1587,0.0492 c 3.059,0.0292 10.0081,-1.36008 17.0734,-3.41331 z m 533.9712,-8.62955 c -3.3209,-1.75256 -4.2282,-1.84762 -7.2399,-0.75857 -4.6496,1.68131 -2.5808,2.82777 5.0366,2.7911 l 6,-0.0289 -3.7967,-2.00365 z m -420.2033,-9.28738 c 2.75,-0.77935 8.15,-2.54997 12,-3.93471 3.85,-1.38474 11.2075,-2.95418 16.3501,-3.48766 6.2235,-0.6456 9.8899,-1.50972 10.9643,-2.58408 1.4855,-1.48551 1.3429,-1.61413 -1.79,-1.61413 -1.8722,0 -5.9864,-0.53337 -9.1426,-1.18528 -4.735,-0.97801 -7.6309,-0.89523 -16.5602,0.47336 -5.9519,0.91225 -15.9712,2.14186 -22.2651,2.73247 -10.2504,0.96187 -12.1524,1.45985 -18.2433,4.77664 -3.7399,2.03654 -6.8029,3.98769 -6.8066,4.33587 -0.013,1.27072 13.7169,2.71656 21.9934,2.31595 4.675,-0.22629 10.75,-1.04908 13.5,-1.82843 z m 120.1444,-138.48997 c 5.5795,-2.90237 11.2045,-6.41617 12.5,-7.80845 l 2.3556,-2.53141 -3.7084,1.53621 c -4.9389,2.04596 -17.3108,9.24989 -22.2916,12.98007 -4.7135,3.52991 -7.7605,6.88229 -10.6277,11.69297 -1.5377,2.58003 -0.2837,1.64792 4.7708,-3.54618 5.3446,-5.49215 9.0942,-8.21001 17.0013,-12.32321 z"
       id="path3243"
       inkscape:connector-curvature="0" />
  </g>
</svg>
