<?xml version="1.0" encoding="UTF-8" standalone="no"?>
<!-- Created with Inkscape (http://www.inkscape.org/) -->

<svg
   xmlns:dc="http://purl.org/dc/elements/1.1/"
   xmlns:cc="http://creativecommons.org/ns#"
   xmlns:rdf="http://www.w3.org/1999/02/22-rdf-syntax-ns#"
   xmlns:svg="http://www.w3.org/2000/svg"
   xmlns="http://www.w3.org/2000/svg"
   xmlns:xlink="http://www.w3.org/1999/xlink"
   xmlns:sodipodi="http://sodipodi.sourceforge.net/DTD/sodipodi-0.dtd"
   xmlns:inkscape="http://www.inkscape.org/namespaces/inkscape"
   width="901.03943"
   height="413.93198"
   id="svg2"
   version="1.1"
   inkscape:version="0.48.3.1 r9886"
   sodipodi:docname="Side-plank-1.svg">
  <defs
     id="defs4">
    <radialGradient
       gradientUnits="userSpaceOnUse"
       gradientTransform="matrix(1,0,0,0.91819829,-19.285714,-7.9105395)"
       r="209.56604"
       fy="287.50052"
       fx="398.1105"
       cy="287.50052"
       cx="398.1105"
       id="radialGradient5255"
       xlink:href="#linearGradient5249"
       inkscape:collect="always" />
    <linearGradient
       id="linearGradient5249"
       inkscape:collect="always">
      <stop
         id="stop5251"
         offset="0"
         style="stop-color:#e3e3e3;stop-opacity:1;" />
      <stop
         id="stop5253"
         offset="1"
         style="stop-color:#e3e3e3;stop-opacity:0;" />
    </linearGradient>
  </defs>
  <sodipodi:namedview
     id="base"
     pagecolor="#ffffff"
     bordercolor="#666666"
     borderopacity="1.0"
     inkscape:pageopacity="0.0"
     inkscape:pageshadow="2"
     inkscape:zoom="0.7"
     inkscape:cx="232.96711"
     inkscape:cy="134.60279"
     inkscape:document-units="px"
     inkscape:current-layer="layer1"
     showgrid="false"
     showguides="true"
     inkscape:guide-bbox="true"
     fit-margin-top="0"
     fit-margin-left="0"
     fit-margin-right="0"
     fit-margin-bottom="0"
     inkscape:window-width="1201"
     inkscape:window-height="886"
     inkscape:window-x="83"
     inkscape:window-y="39"
     inkscape:window-maximized="0">
    <sodipodi:guide
       orientation="-0.70710678,0.70710678"
       position="-2686.814,93.416931"
       id="guide2985" />
  </sodipodi:namedview>
  <metadata
     id="metadata7">
    <rdf:RDF>
      <cc:Work
         rdf:about="">
        <dc:format>image/svg+xml</dc:format>
        <dc:type
           rdf:resource="http://purl.org/dc/dcmitype/StillImage" />
        <dc:title></dc:title>
      </cc:Work>
    </rdf:RDF>
  </metadata>
  <g
     inkscape:label="Ebene 1"
     inkscape:groupmode="layer"
     id="layer1"
     transform="translate(-1258.2425,293.86713)">
    <path
       style="fill:#000000"
       d="m 2054.3248,113.19573 c -13.2584,-6.43996 -17.369,-10.38607 -17.5217,-16.820903 -0.055,-2.318358 -0.1676,-7.444188 -0.25,-11.390738 -0.2257,-10.80177 -3.8022,-14.66073 -18.3059,-19.75167 -11.2627,-3.95336 -20.0345,-9.11572 -26.3441,-15.50411 -4.9171,-4.97851 -6.0826,-7.0524 -10.9976,-19.56868 -5.2129,-13.2746 -5.4796,-14.38861 -5.1482,-21.5 0.6554,-14.0629298 0.5145,-16.5058598 -1.7308,-30 -1.8165,-10.9169 -2.1185,-15.48952 -1.5785,-23.89778 0.5869,-9.13849 0.4806,-10.32597 -0.8775,-9.80483 -5.1107,1.96119 -24.1758,7.66373 -28.7468,8.59842 -5.5573,1.13641 -24.4151,3.54535 -40.4206,5.16344 -22.2589,2.25029 -26.3929,3.10588 -32.3151,6.68807 -13.456,8.13919 -25.7122,11.98385 -41.8968,13.14259 -6.777,0.48521 -10.8133,1.24138 -12,2.24809 -0.9834,0.83432 -3.8131,2.08785 -6.2881,2.78562 -6.9993,1.97329 -13.8532,6.10283 -16.0628,9.6780202 -4.6181,7.47224 -14.833,9.32114 -41.604,7.53031 -15.4235,-1.03175 -16.4349,-0.9843 -22,1.03231 -3.9131,1.41799 -9.7832,2.36852 -17.8332,2.88767 -34.0912,2.1985699 -34.7562,2.2058099 -44.4834,0.4841099 -5.2158,-0.9232099 -9.9847,-2.0946299 -10.5974,-2.6031599 -0.7024,-0.58294 -6.621,0.27151 -16.0166,2.31229 -13.9848,3.0375499 -16.0111,3.2267098 -32.9026,3.0715299 -20.0279,-0.18399 -21.508,-0.4722 -45.2395,-8.8087099 -15.0092,-5.27247 -20.9834,-5.84164 -28.3176,-2.69782 -2.5059,1.07417 -11.0557,4.08655 -18.9996,6.69418 l -14.4433,4.7411599 -15,-0.56244 c -24.9227,-0.93449 -49.3743,-4.8480699 -66.234,-10.6010399 -9.434,-3.21911 -23.1867,-6.08203 -29.2165,-6.08203 -5.6789,0 -18.7009,3.62976 -26.8175,7.47516 -8.5012,4.02764 -14.5164,5.23237 -30.232,6.05489 -6.325,0.33103 -15.2231,1.2977199 -19.7735,2.1481999 -11.713,2.1891399 -18.5285,1.21972 -23.023,-3.2747599 -1.8719,-1.87192 -4.0912,-3.40349 -4.9319,-3.40349 -2.2549,0 -12.0681,-10.7971302 -12.7867,-14.0688902 -0.4548,-2.07085 -1.7926,-3.38578 -5.048,-4.96165 -2.436,-1.17926 -5.3308,-3.2905 -6.433,-4.69164 -2.6209,-3.33193 -2.6215,-9.75247 -10e-4,-14.0498 l 1.995,-3.27198 -2.5295,-4.0069 c -4.0353,-6.39239 -4.118,-8.96262 -0.5349,-16.61971 1.7406,-3.71944 3.4339,-8.7268 3.7629,-11.12746 0.3958,-2.88725 1.7333,-5.72339 3.9512,-8.37802 1.8441,-2.20725 3.3529,-5.12797 3.3529,-6.49049 0,-3.13453 4.4009,-10.71702 7.7485,-13.350229 1.4045,-1.10481 7.7732,-3.6905 14.1526,-5.74598 10.7307,-3.45749 12.4224,-3.72648 22.5989,-3.59342 9.3231,0.1219 13.4028,0.76438 26.761,4.21438 8.6686,2.23881 16.3186,3.87033 17,3.62561 0.6815,-0.24472 6.6693,-0.87268 13.3063,-1.39546 15.4597,-1.21771 22.0328,-3.76946 35.0636,-13.61199 5.5169,-4.16705 13.0121,-8.74929 17.3014,-10.57726 10.3203,-4.39822 23.8974,-4.98778 46.0677,-2.00036 17.3513,2.33804 20.4197,2.09819 33,-2.57952 6.9652,-2.58985 8.5696,-2.78999 22.5,-2.80683 l 15,-0.0181 13.1966,-6.3877 c 7.2581,-3.51324 17.3831,-7.59969 22.5,-9.08101 7.2277,-2.09239 9.2394,-3.05822 9.0166,-4.32887 -0.6612,-3.77024 3.0915,-13.07187 6.9722,-17.28195 8.1451,-8.83644 27.6076,-20.48787 43.3146,-25.93081 7.5361,-2.61145 9.3339,-2.80945 31,-3.41398 l 23,-0.64174 15.3758,-6.80307 c 11.4883,-5.08308 17.5561,-8.46697 24,-13.38426 8.8898,-6.78387 19.1565,-12.08318 28.3579,-14.63741 2.8965,-0.80403 11.1163,-1.75357 18.2663,-2.11008 18.7685,-0.93582 24.7497,-1.95364 38.6185,-6.57163 14.4574,-4.81399 14.8163,-4.98171 21.4329,-10.01548 6.9908,-5.31853 12.1846,-7.37814 24.9486,-9.89334 23.9687,-4.7232 32.7926,-7.0814 35.7227,-9.5469 3.4761,-2.9249 16.4569,-7.1136 26.9408,-8.6933 5.6777,-0.8555 9.5135,-0.8684 14.8029,-0.05 12.9138,1.9989 28.088,10.9558 35.0983,20.7175 1.8218,2.53676 5.5291,5.85779 8.3551,7.4846 2.7941,1.6084 10.7052,7.75246 17.5802,13.65344 17.3206,14.86669 19.9227,16.42139 27.4839,16.42139 9.0762,0 14.1867,-2.90893 18.0161,-10.2548 6.4185,-12.31233 24.8289,-32.76803 33.1732,-36.85853 5.7985,-2.8426 18.0282,-3.7133 26.7435,-1.904 16.1255,3.3477 31.4718,15.91546 39.6929,32.50624 3.9457,7.96279 4.3395,9.45943 4.7084,17.89539 0.2767,6.32645 -0.1003,11.22485 -1.2054,15.66079 -2.2417,8.99818 -10.3107,24.92223 -17.5537,34.64172 -12.0958,16.23155 -31.323,33.42211 -45.8866,41.0262 -5.7312,2.99243 -7.4067,3.42352 -11.8796,3.05664 -10.0187,-0.82176 -23.6791,-9.66359 -26.9223,-17.42575 -1.3795,-3.30145 -1.4544,-3.33497 -3.8885,-1.74009 -1.5211,0.99667 -2.4819,2.57163 -2.4819,4.06838 0,3.93096 2.1047,11.1698 3.6111,12.42002 0.7639,0.63397 1.3889,1.89505 1.3889,2.80239 0,0.90734 1.3781,3.32151 3.0624,5.36483 4.5113,5.47305 11.8054,21.7501 12.5221,27.943769 0.7466,6.45103 -1.7748,22.29233 -5.2201,32.7968 -1.3548,4.13069 -4.5723,10.58963 -7.1621,14.37744 l -4.7023,6.87744 0,17.62256 c 0,9.69241 -0.3758,18.9953702 -0.8351,20.6732502 -0.7382,2.69644 -0.5351,3.18738 1.7482,4.22774 3.8161,1.73873 11.2062,8.8676698 12.4363,11.9966898 0.5891,1.49869 1.7819,5.64988 2.6506,9.22488 3.5259,14.50958 4.9961,15.57661 25.3473,18.39627 12.385,1.71596 18.5464,4.50872 21.1877,9.60373 1.8027,3.47737 3.9356,17.19307 4.7272,30.39875 0.3713,6.1933 0.063,7.67604 -3.0168,14.5 -1.8867,4.180688 -4.2994,9.840481 -5.3615,12.577321 -1.2483,3.21682 -3.0872,5.75519 -5.2011,7.17979 -4.4617,3.00668 -15.4691,5.35268 -24.8802,5.3027 -7.3591,-0.0391 -8.4321,-0.34725 -18.8809,-5.42246 z m 21.6562,-0.0764 c 1.6382,-0.84714 6.0033,-1.8072 9.7003,-2.13346 3.9852,-0.35169 7.4918,-1.25133 8.6131,-2.20974 2.2483,-1.92178 5.5549,-8.79449 5.5889,-11.616543 0.013,-1.1 1.4002,-4.610558 3.0821,-7.801238 l 3.0579,-5.80125 -2.0496,-5.92234 c -1.6249,-4.6954 -1.9368,-7.42979 -1.5053,-13.19875 0.8468,-11.32202 -1.7723,-14.43332 -15.0965,-17.93384 -5.915,-1.55394 -12.1568,-2.21651 -24.2188,-2.57079 -14.7709,-0.43385 -16.25,-0.64024 -16.25,-2.26753 0,-2.23666 1.9372,-3.00422 7.5818,-3.00422 2.43,0 4.4182,-0.18305 4.4182,-0.40678 0,-0.22373 -1.35,-3.41568 -3,-7.09322 -1.65,-3.67754 -3.0098,-8.10699 -3.0219,-9.84322 -0.035,-5.08766 -3.4357,-11.25135 -8.0516,-14.5950799 -5.1967,-3.7645199 -8.9334,-3.9008799 -15.507,-0.56589 -5.8299,2.9577099 -5.0817,2.8267599 -5.7783,1.01135 -0.7161,-1.86593 2.3123,-4.7497699 9.0323,-8.6012699 4.7425,-2.7181 5.2632,-3.3833 6.25,-7.98473 1.5073,-7.0281902 1.3274,-13.1947602 -0.8824,-30.2500402 -2.112,-16.30013 -3.1385,-19.05095 -10.8482,-29.07027 -6.0609,-7.87657 -11.4378,-13.04544 -15.1851,-14.59765 -3.2791,-1.35824 -4.004,-3.0032 -1.3235,-3.0032 6.7233,0 21.7369,12.91471 26.8752,23.11815 1.8923,3.75756 3.4405,7.51816 3.4405,8.35689 0,2.4525 1.7154,1.7693 4.3311,-1.72504 7.8542,-10.4924 12.6,-28.38507 10.6715,-40.23417 -0.5196,-3.192589 -2.9393,-9.904759 -5.3771,-14.915949 -4.2575,-8.75174 -7.6955,-12.78372 -18.8755,-22.13597 -4.0624,-3.39831 0.1159,-4.85311 5.0352,-1.75316 2.6992,1.70087 2.7047,1.69897 0.9648,-0.32874 -0.9894,-1.15309 -1.75,-3.66074 -1.75,-5.76977 0,-2.05165 -0.4093,-3.47726 -0.9097,-3.16801 -1.6015,0.9898 -4.0903,-0.59353 -4.0903,-2.60225 0,-1.27654 1.2018,-2.44616 3.5,-3.40643 1.925,-0.80431 3.5,-1.88892 3.5,-2.41023 0,-1.09292 -9.2383,-4.02532 -12.6815,-4.02532 -1.6081,0 -2.3185,-0.57998 -2.3185,-1.89301 0,-3.39297 6.4433,-4.22918 11.8405,-1.53667 7.2189,3.60125 9.6414,0.0268 7.9332,-11.70543 -1.0948,-7.51904 -0.396,-22.90577 1.2654,-27.86489 1.4086,-4.20416 5.4145,-8.14694 7.4743,-7.35651 2.1276,0.81644 1.8802,2.29095 -1.6501,9.83495 -3.0703,6.56123 -3.1225,6.91784 -2.4674,16.86227 1.1977,18.17987 4.1826,29.62797 9.3153,35.72787 2.7276,3.24154 12.9908,8.93142 16.1103,8.93142 2.0099,0 16.131,-7.41194 25.1785,-13.21582 14.7155,-9.43973 19.8703,-15.29252 33.2265,-37.72541 12.1048,-20.33102 15.0215,-29.62356 12.7715,-40.6895 -3.8965,-19.1632 -21.7774,-37.3406 -40.7298,-41.4052 -5.9903,-1.2847 -13.5648,-0.1826 -21.1387,3.0756 -6.6933,2.8794 -19.7567,16.47671 -29.1114,30.30128 -9.3423,13.8062 -12.4429,16.02581 -23.0614,16.50887 -7.5768,0.34469 -7.7905,0.28674 -14.5731,-3.95232 -3.786,-2.36618 -10.7637,-7.9236 -15.506,-12.34982 -8.0713,-7.53323 -19.7235,-15.54768 -22.6048,-15.54768 -0.7,0 -1.2728,0.675 -1.2728,1.5 0,0.83334 -0.8888,1.5 -2,1.5 -1.7274,0 -2,-0.66666 -2,-4.89184 0,-4.39274 -0.4611,-5.40475 -4.5196,-9.91879 -9.2987,-10.3423 -20.7528,-15.3927 -34.746,-15.3201 -14.8594,0.077 -33.1329,6.5306 -37.7991,13.3495 -2.6617,3.8896 -4.8299,5.78123 -6.6264,5.78123 -1.7918,0 -1.6432,-2.56009 0.3227,-5.56043 1.6262,-2.4819 1.6228,-2.4868 -1.0155,-1.4837 -1.4559,0.5535 -7.0276,1.7303 -12.3816,2.6151 -19.2483,3.18101 -24.0935,4.92266 -35.5893,12.79302 -3.4186,2.34047 -10.5758,5.78224 -15.9602,7.67494 -8.2994,2.91743 -9.5127,3.61385 -8.0981,4.64827 0.9945,0.7272 1.4076,1.88466 1.0269,2.87695 -0.5437,1.4169 -1.698,1.57129 -7.8755,1.0534 -20.0353,-1.67969 -24.056,-1.76424 -32.3185,-0.67969 -18.5672,2.4372 -29.4504,6.7177 -40.1436,15.78895 -6.6263,5.62127 -18.086,11.57437 -35.9001,18.64949 l -9.124,3.6237 -18.876,0.0769 c -12.7405,0.0519 -20.1762,0.50536 -22.8761,1.39515 -2.2,0.72506 -3.2125,1.36548 -2.25,1.42315 2.7941,0.16741 2.0462,1.45316 -2.0975,3.60593 -2.1161,1.09941 -10.5536,5.46673 -18.75,9.70517 -14.8182,7.6627 -31.4547,19.7329 -32.2433,23.39336 -0.3007,1.39599 -0.1243,1.38595 1.5,-0.0854 4.267,-3.86504 27.4294,-18.089 34.4474,-21.15408 4.1836,-1.82717 10.7015,-5.13068 14.4841,-7.34113 7.0476,-4.11837 8.8731,-4.69568 9.85,-3.11507 0.7616,1.23229 -13.026,9.90994 -23.5305,14.80961 -4.7245,2.20365 -11.4822,5.98209 -15.0173,8.39654 -3.5351,2.41445 -8.5571,5.51414 -11.1601,6.88819 -5.1873,2.73823 -5.8635,4.32619 -2.5886,6.07887 3.8743,2.07345 9.6148,0.43097 16.1026,-4.6073 7.8396,-6.08798 10.1031,-6.96271 23.2651,-8.99089 6.0435,-0.93126 13.6547,-2.33093 16.9138,-3.11039 4.0443,-0.96723 6.2509,-1.09198 6.95,-0.39289 1.7903,1.79029 -0.5908,2.95917 -11.4449,5.61819 -12.2403,2.99862 -14.9308,4.44993 -14.9308,8.05419 0,2.40398 0.2473,2.55183 3.25,1.94329 1.7875,-0.36226 8.65,-1.07834 15.25,-1.59128 6.6,-0.51295 14.2355,-1.69847 16.9676,-2.63449 6.0967,-2.08868 13.8183,-9.75455 15.7141,-15.60065 0.8646,-2.66625 2.1308,-4.36091 3.6789,-4.92388 2.1418,-0.77884 2.3044,-0.63448 1.7543,1.55737 -0.3335,1.32869 -0.878,3.12375 -1.2101,3.98904 -0.5251,1.3686 0.1136,1.32647 4.9102,-0.3238 12.0127,-4.13296 21.4413,-5.4316 58.5665,-8.06656 34.7308,-2.46502 46.2113,-4.86669 51.4415,-10.76134 1.771,-1.99594 1.764,-2.07336 -0.244,-2.71069 -1.1369,-0.36084 -2.7207,-1.30964 -3.5195,-2.10844 -1.2698,-1.26981 -1.8676,-1.19921 -4.7559,0.56177 -3.7961,2.31442 -6.8036,2.62205 -6.8036,0.69593 0,-1.65191 2.6703,-4.04475 11.0807,-9.92934 3.6194,-2.53241 9.8545,-8.23602 13.8559,-12.67468 7.6472,-8.48287 9.7134,-9.79634 8.6319,-5.48721 -1.0725,4.27315 -5.5463,10.58566 -11.7467,16.57435 l -5.8574,5.65743 3.388,2.09391 c 5.0585,3.12633 10.7873,3.48515 25.6843,1.60875 23.2533,-2.92897 33.4071,-5.7533 49.4633,-13.75851 10.9311,-5.44996 10.7187,-5.21657 8.6966,-9.55626 -0.9331,-2.00257 -2.2885,-4.32993 -3.012,-5.1719 -0.7235,-0.84197 -2.3,-3.08153 -3.5034,-4.97679 -3.7141,-5.84941 -7.8491,-7.56892 -17.9312,-7.45651 -8.5227,0.095 -8.75,0.0371 -8.75,-2.23095 0,-2.9417 3.1398,-3.83841 10.7058,-3.05753 10.5579,1.08968 22.1639,9.26812 23.814,16.78115 0.6738,3.06747 5.274,7.50066 9.4183,9.07634 2.2092,0.83994 2.9279,0.54779 5.3664,-2.18133 4.0835,-4.5702 12.5967,-11.98524 13.7603,-11.98524 2.9983,0 1.3943,3.35613 -4.3518,9.10577 -4.9548,4.95787 -7.5869,8.80246 -11.7169,17.11491 -6.1068,12.29072 -6.9697,17.36198 -5.0342,29.58405 1.4748,9.3126 3.6591,14.58469 9.6805,23.36559 2.5158,3.66867 4.2739,7.15617 3.9069,7.75 -1.0959,1.77311 -5.0909,1.22806 -8.048,-1.09799 -9.2047,-7.24037 -13.5999,-39.48066 -7.6783,-56.32233 2.0885,-5.94011 2.0901,-6.01642 0.1615,-7.64557 -1.8401,-1.5543 -2.5546,-1.34268 -12.8835,3.81565 -13.0691,6.52679 -14.5907,8.54546 -12.8195,17.00741 1.1831,5.65223 0.1289,8.32251 -3.2856,8.32251 -1.5585,0 -1.7443,-1.02731 -1.6276,-9.00046 0.072,-4.95025 0.024,-9.00025 -0.1071,-9 -1.6469,0.003 -16.1159,4.51201 -17.1386,5.34072 -1.0437,0.84568 -1.2339,2.81779 -0.785,8.13795 0.6459,7.65481 -0.067,9.91062 -2.9574,9.36124 -1.3921,-0.26458 -2.01,-1.47588 -2.3802,-4.66615 l -0.5,-4.30882 -3.1883,3.31776 c -2.4442,2.54338 -3.2611,4.36808 -3.5,7.81776 -0.2626,3.79124 -0.6661,4.55033 -2.5617,4.81955 -1.9207,0.27279 -2.25,-0.13691 -2.25,-2.79966 0,-5.0938 6.2382,-15.32593 10.0888,-16.54807 1.0678,-0.33892 1.9112,-1.51679 1.9112,-2.66926 0,-1.84953 -0.4596,-2.01086 -4.4478,-1.56134 -3.8716,0.43639 -5.5232,1.50265 -12.75,8.23135 -8.3372,7.76259 -16.142,12.26298 -29.5918,17.06316 -4.7075,1.68008 -5.6198,2.49731 -8.29,7.42605 -3.1335,5.7838 -8.2717,20.02158 -9.3967,26.03822 -0.6284,3.36017 -0.5329,3.29309 2.3906,-1.6791 4.6904,-7.97716 9.0857,-10.249 9.0857,-4.69614 0,3.71726 -1.5798,6.21393 -8.2536,13.04402 l -6.0276,6.16878 0.5224,11.83122 c 0.7468,16.911939 7.5068,41.560049 16.395,59.778889 l 3.5422,7.26079 4.6608,-0.88903 c 4.9522,-0.9446 25.7509,-0.56267 26.8058,0.49224 0.3443,0.34425 -0.1204,1.76496 -1.0326,3.15712 -1.9736,3.01207 -4.7587,3.21772 -12.126,0.8954 -5.0958,-1.60631 -13.7849,-1.30824 -14.9095,0.51146 -0.2584,0.41805 1.3614,3.81769 3.5995,7.55476 l 4.0692,6.79467 5.1272,-0.67043 c 9.2818,-1.21368 28.0093,-5.74086 34.6272,-8.37079 3.575,-1.42067 8.975,-4.04193 12,-5.82502 7.0616,-4.16242 19.4298,-7.36041 28.4384,-7.35316 3.8839,0.003 11.7117,-0.53226 17.3952,-1.18974 l 10.3335,-1.19543 -4.5835,-2.32942 c -7.8253,-3.97692 -5.4204,-6.46666 3.6064,-3.73358 5.7808,1.75029 6.0849,1.74926 9.3922,-0.0318 3.9286,-2.11572 4.2671,-3.12141 1.361,-4.04377 -1.2271,-0.38947 -1.9185,-1.32431 -1.7138,-2.31739 0.5087,-2.46808 5.9472,-1.87924 9.9417,1.07641 4.8532,3.59114 6.4061,3.87947 9.1729,1.70315 3.1068,-2.44384 5.3103,-2.47056 6.8017,-0.0825 1.1205,1.79416 1.3655,1.79894 6.7585,0.13181 3.0777,-0.95142 6.8451,-2.31674 8.3719,-3.03405 2.7718,-1.3022 2.7751,-1.31584 2.1167,-8.88181 -0.3627,-4.16768 -1.0113,-8.2642 -1.4413,-9.10337 -0.43,-0.83918 -3.3486,-2.06416 -6.4858,-2.72219 -9.4727,-1.98692 -20.2069,-7.87365 -26.9677,-14.78933 -8.8609,-9.063929 -11.3156,-13.053719 -12.0907,-19.651479 -1.1909,-10.13808 2.126,-11.69324 4.535,-2.12627 1.0868,4.31591 10.5578,18.74263 14.861,22.636979 2.2716,2.0558 13.5902,6.32554 22.1058,8.33904 8.4509,1.99819 16.8486,1.90102 25.3202,-0.29299 3.7011,-0.95852 7.0761,-1.38955 7.5,-0.95783 1.3821,1.40752 -6.0862,6.61919 -12.2293,8.53411 -5.1676,1.61085 -5.9634,2.18029 -5.7367,4.10462 0.5001,4.2433 2.7584,7.3883 8.7367,12.16699 7.7085,6.1616 8.5827,8.37599 5.672,14.367 -3.3124,6.81791 -5.1576,5.33755 -3.9656,-3.18146 0.209,-1.49333 -1.0042,-3.09247 -4.2064,-5.54465 -2.475,-1.89534 -5.4,-4.87114 -6.5,-6.6129 -1.1,-1.74175 -2.2955,-3.18416 -2.6566,-3.20535 -0.8913,-0.0523 -2.2999,17.38827 -2.2988,28.46148 8e-4,7.52236 0.5468,10.64183 3.326,19 4.2237,12.7028202 4.927,19.5826602 2.6902,26.3172002 -2.057,6.1928898 -2.2907,10.8665198 -0.6241,12.4792998 0.9869,0.955 1.1734,0.27876 0.9035,-3.275 -0.2675,-3.52177 0.01,-4.5474 1.2942,-4.80105 2.2744,-0.44887 3.6214,3.96357 4.4354,14.529 0.8517,11.05522 3.3631,17.14121 9.1896,22.26991 5.4056,4.75825 18.0923,12.20489 25.5413,14.99193 2.985,1.11684 6.2333,2.92119 7.2183,4.00967 2.4883,2.74958 3.2077,2.47698 2.6944,-1.02096 -0.4973,-3.3881 0.7003,-3.85786 3.0935,-1.2134 3.24,3.58012 5.0211,9.82182 5.7681,20.2134 0.7582,10.54698 3.0949,18.236191 6.3669,20.951781 0.8059,0.66879 3.5111,1.83172 6.0117,2.58427 l 4.5464,1.36829 0,-5.08414 c 0,-3.42184 -0.6876,-6.196723 -2.103,-8.486981 -1.7665,-2.85823 -2.0466,-4.62923 -1.75,-11.06551 l 0.353,-7.66266 -3.2249,-0.6711 c -4.7751,-0.99369 -8.0038,-3.48195 -10.2622,-7.90874 -2.1131,-4.14204 -2.7125,-10.02517 -1.0214,-10.02517 0.5453,0 2.3967,2.49005 4.1143,5.53344 4.4204,7.83239 9.2984,9.96463 16.8078,7.34684 2.6479,-0.92304 3.1636,-1.58173 2.9362,-3.75 -0.2687,-2.561 0.1177,-3.13028 2.1246,-3.13028 1.9054,0 4.4336,6.601 5.0786,13.25972 0.7947,8.20579 2.6673,10.74028 7.9354,10.74028 2.0231,0 3.9245,-0.24621 4.2254,-0.54714 0.301,-0.30092 -0.3355,-3.33842 -1.4143,-6.75 -1.6037,-5.07127 -1.8443,-7.76748 -1.319,-14.77937 0.7186,-9.59153 0.7675,-9.49436 -6.677,-13.25157 -4.6111,-2.3272 -6.3825,-5.67192 -3.0039,-5.67192 1.0704,0 4.1096,0.95699 6.7538,2.12663 3.3002,1.45985 6.6323,2.08539 10.6271,1.99509 4.5487,-0.10282 5.8195,0.19396 5.8195,1.35897 0,0.9183 -1.6315,1.9031 -4.25,2.56522 l -4.25,1.07471 -0.1771,7.43969 c -0.1002,4.21134 0.2396,7.43969 0.7833,7.43969 0.5282,0 3.1804,-1.125 5.8938,-2.5 6.0637,-3.0727 7.2288,-3.12128 6.8196,-0.28436 -0.4341,3.00992 -6.3171,6.78436 -10.5744,6.78436 -2.349,0 -3.3097,0.40116 -2.9935,1.25 0.2561,0.6875 1.064,2.92188 1.7954,4.96528 1.7111,4.78124 3.1363,5.23955 8.6747,2.78965 5.5699,-2.46385 5.2782,-2.4793 5.2782,0.27946 0,2.89195 -4.57,5.71561 -9.2506,5.71561 -1.8931,0 -4.8892,0.7219 -6.6578,1.60423 -3.8539,1.92258 -10.7396,1.21425 -14.2712,-1.46807 -2.1305,-1.61817 -10.4209,-5.13616 -12.1038,-5.13616 -0.3941,0 -0.7166,1.40937 -0.7166,3.13192 0,5.96804 9.106,11.868081 18.3168,11.868081 5.1956,0 13.9287,-2.001653 15.762,-3.612671 2.407,-2.11521 3.9212,-1.66383 3.9212,1.168898 0,4.198653 -6.8057,6.572873 -19.4277,6.777453 -6.921,0.11218 -10.7484,-0.23773 -11.7586,-1.075 -2.8158,-2.33382 -3.5545,0.5339 -1.7817,6.9168 0.7244,2.60795 1.8119,3.96463 3.7445,4.67105 3.7398,1.36705 3.9293,1.35701 7.3014,-0.38679 z m -50.6137,-58.874091 c -1.4883,-2.27137 -3.2541,-2.91265 -14.2142,-5.16195 -1.4207,-0.29157 -2.25,-1.19188 -2.25,-2.44271 0,-1.60083 0.678,-1.98095 3.5333,-1.98095 5.9172,0 18.4667,7.25399 18.4667,10.67431 0,2.23147 -3.8574,1.47284 -5.5358,-1.0887 z m 9.5358,-20.17352 c -10.2338,-6.0691 -11.0735,-7.0135 -10.4367,-11.7379 0.3095,-2.2958 0.796,-5.29865 1.0812,-6.67298 0.5018,-2.41801 0.5644,-2.43608 1.937,-0.55887 0.7802,1.06695 1.4185,3.17462 1.4185,4.68369 0,5.33518 1.755,7.88298 6.9039,10.02277 3.1733,1.31876 5.1106,2.79842 5.4717,4.17915 0.9166,3.50522 -0.5737,3.52489 -6.3756,0.0841 z M 2007.2012,7.9601891 c -6.3788,-1.23719 -10.9366,-12.7292599 -12.0172,-30.3005601 -0.6796,-11.05003 0.6939,-9.76188 4.265,4 3.5472,13.6698302 5.4767,17.3011002 11.4876,21.6194802 2.7316,1.9624699 4.9665,3.9759199 4.9665,4.4743299 0,0.9053499 -4.5434,1.0133099 -8.7019,0.20675 z M 1823.9031,-49.640371 c 0,-0.715 0.5265,-1.82649 1.17,-2.46997 0.8933,-0.89329 0.8574,-2.1171 -0.1518,-5.17504 -2.1804,-6.6065 0.9655,-13.42643 5.4071,-11.72204 1.5943,0.61181 1.5934,0.82689 -0.016,3.55113 -1.5616,2.64363 -1.5792,3.2408 -0.1992,6.7579 1.6187,4.12548 1.4211,5.83376 -0.9957,8.60802 -1.7794,2.04267 -5.2145,2.33911 -5.2145,0.45 z m 9.4138,0.16056 c -0.9933,-1.60726 0.596,-2.70089 6.8471,-4.71155 13.166,-4.23486 24.7391,-5.4672 24.7391,-2.63431 0,3.03362 -6.0333,5.47758 -13.5321,5.48156 -3.8676,0.002 -9.3923,0.61599 -12.2771,1.3643 -2.8848,0.74831 -5.4844,0.97331 -5.777,0.5 z m 33.5862,-7.26684 c 0,-0.84996 0.8983,-3.01876 1.9963,-4.81955 2.7483,-4.50759 2.548,-6.09088 -1.6255,-12.85247 -2.9424,-4.76706 -3.5079,-6.48635 -2.9881,-9.08511 1.1718,-5.85882 6.6173,-9.47607 6.6173,-4.39561 0,1.34254 -0.45,2.7191 -1,3.05902 -1.9294,1.19244 -0.9716,4.46111 1.9374,6.61184 5.6912,4.20765 6.3929,12.1252 1.6943,19.11487 -2.364,3.51666 -6.6317,5.0399 -6.6317,2.36701 z m 16.6462,-8.35714 c -0.9487,-1.53512 1.2073,-2.86746 9.3887,-5.8019 10.6082,-3.80489 14.8582,-6.95222 17.0682,-12.63981 1.6668,-4.28968 1.6998,-5.12852 0.3734,-9.5 -2.1899,-7.217559 -1.8845,-10.040689 1.4466,-13.371789 1.6077,-1.6077 3.8577,-2.92308 5,-2.92308 2.7264,0 2.62,0.82369 -0.5309,4.11256 l -2.6079,2.722 1.723,5.187429 c 3.6829,11.08794 -0.4194,22.97222 -9.5073,27.5429 -8.189,4.11861 -21.0362,6.80353 -22.3538,4.67169 z m -62.6462,-14.61414 c 0,-3.48439 1.8563,-4.52145 11.1448,-6.22626 5.9064,-1.08404 10.04,-2.55682 14.1034,-5.02499 5.8472,-3.55163 7.7518,-3.66642 7.7518,-0.46716 0,3.7239 -4.7583,6.23408 -16.4767,8.69196 -3.8628,0.81022 -8.7246,2.35757 -10.8041,3.43856 -4.8797,2.5367 -5.7192,2.47621 -5.7192,-0.41211 z m -14.3542,-9.07492 c -3.1282,-2.89911 -5.6458,-8.27138 -5.6458,-12.047519 0,-1.41033 -0.6424,-4.10165 -1.4275,-5.98072 -1.1657,-2.79005 -2.2867,-3.66701 -6.1136,-4.78287 -4.394,-1.28126 -4.581,-1.4714 -3.001,-3.05141 2.2367,-2.23672 6.698,-2.13681 9.6904,0.21702 2.5536,2.00866 5.8441,8.60017 8.0361,16.097979 1.1149,3.81334 2.0023,4.8462 5.8156,6.76878 5.8108,2.92967 5.7926,4.64698 -0.053,5.02799 -3.735,0.24342 -5.0473,-0.16088 -7.3007,-2.24925 z m 58.1022,-3.92459 c -4.9594,-1.83549 -10.4116,-6.07172 -12.1559,-9.444799 -0.7731,-1.49516 -1.8994,-5.4094 -2.5029,-8.6983 -1.5409,-8.39873 -4.9757,-12.53247 -13.2286,-15.92027 -3.4764,-1.42706 -3.7546,-1.38715 -6.2133,0.89156 -2.4787,2.29718 -2.7803,2.33755 -8.1459,1.09028 -3.0645,-0.71237 -6.3435,-1.97239 -7.2866,-2.80003 -0.9431,-0.82765 -2.6866,-1.80046 -3.8745,-2.16182 -3.5305,-1.07401 -4.6741,-3.10291 -2.8034,-4.9736 2.5392,-2.53915 6.0083,-1.90056 9.9693,1.83509 4.1701,3.9329 7.717,4.74426 11.9226,2.72732 7.1833,-3.44504 19.8701,1.70551 23.5746,9.57074 1.0981,2.33151 1.9983,5.03151 2.0004,6 0.011,5.06691 11.0798,15.623159 17.6807,16.861479 6.762,1.26856 13.723,-1.89497 21.3448,-9.700409 6.7728,-6.93591 12.517,-10.39525 15.4148,-9.28325 2.9303,1.12447 1.5259,2.88488 -4.6935,5.88308 -5.3931,2.59988 -6.3317,3.46681 -7.0375,6.5 -1.1028,4.739349 -3.5233,6.537129 -12.7077,9.438479 -10.3758,3.27773 -16.5806,3.91535 -21.2574,2.18445 z m 140.6517,-12.023899 c -0.902,-2.35063 1.3667,-12.20443 4.0117,-17.42409 2.9985,-5.91717 8.0166,-11.17494 10.6656,-11.17494 2.9595,0 2.3186,3.26775 -1.0126,5.1629 -4.0113,2.28212 -6.0363,6.6718 -6.7421,14.61529 -0.3285,3.697 -1.0012,7.50931 -1.4949,8.47181 -1.0735,2.09273 -4.6699,2.32399 -5.4277,0.34903 z m -109.8844,-17.90832 c -1.4385,-3.4427 -3.3624,-4.65265 -12.4064,-7.80249 -6.9931,-2.43554 -7.8175,-3.20411 -8.6365,-8.05155 -0.3761,-2.22651 -1.5824,-4.9467 -2.6806,-6.04486 -1.7232,-1.72318 -2.7702,-1.90078 -7.6442,-1.29668 -3.1062,0.38499 -7.165,1.33108 -9.0197,2.10243 -4.5829,1.90599 -5.1279,1.79179 -5.1279,-1.07451 0,-3.63135 3.9373,-5.71887 11.7817,-6.24659 9.6158,-0.64688 14.172,1.09001 16.7183,6.37325 2.7954,5.80005 5.2949,8.32952 10.5,10.62614 2.475,1.09202 5.748,3.4747 7.2734,5.29485 3.5214,4.20198 5.8633,4.9271 9.627,2.98083 3.9903,-2.06349 6.3324,-1.99884 5.916,0.1633 -0.5364,2.78534 -6.6702,6.28517 -11.0153,6.28517 -3.4727,0 -4.0556,-0.36497 -5.2858,-3.30929 z m 35.4847,-19.98118 c 0,-1.76105 3.8396,-3.13946 21.0901,-7.57139 15.2789,-3.92538 17.2341,-4.86284 25.0305,-12.0016 3.6413,-3.33415 6.9038,-5.77883 7.25,-5.43264 1.7947,1.79466 0.261,5.38099 -3.9683,9.27939 -8.3012,7.65185 -26.8548,14.72409 -43.5969,16.61824 -4.8577,0.54958 -5.8054,0.40397 -5.8054,-0.892 z m 89,-3.1677 c -1.375,-0.75795 -5.2851,-4.50253 -8.6892,-8.32129 -3.8034,-4.26662 -7.9474,-7.76962 -10.75,-9.08699 -6.2862,-2.95485 -6.2977,-5.64347 -0.02,-4.78308 6.3817,0.87471 8.0929,2.03738 12.0092,8.15953 3.6015,5.63003 8.0623,9.63155 12.7049,11.39664 3.6493,1.38746 3.6463,4.10647 0,4.05332 -1.5125,-0.022 -3.875,-0.66018 -5.25,-1.41813 z m -27,-29.48281 c 0,-1.06754 0.45,-2.2191 1,-2.55902 1.8493,-1.14289 1.0032,-3.9716 -2.5097,-8.39073 -3.9454,-4.96332 -3.8375,-4.37841 -2.4195,-13.10927 1.3927,-8.57482 0.5737,-12.27781 -3.6151,-16.34597 -1.9006,-1.84583 -3.4557,-3.87311 -3.4557,-4.50505 0,-2.11436 3.5981,-1.17915 6.1596,1.60102 5.3732,5.8319 5.8404,7.19286 5.8404,17.01347 0,8.44188 0.2872,9.8702 3.0526,15.18379 2.9372,5.64359 2.9958,6.00119 1.551,9.45903 -1.6815,4.02451 -5.6036,5.18128 -5.6036,1.65273 z m -291,-5.43658 c 0,-0.75765 0.6444,-1.9123 1.4319,-2.56589 2.1397,-1.77581 18.9584,-4.93504 28.0345,-5.26603 7.1284,-0.25996 8.0066,-0.0924 8.349,1.59273 0.315,1.55069 -0.046,1.77563 -2.0456,1.27382 -3.4698,-0.87088 -20.5091,1.87522 -26.6468,4.29447 -6.049,2.38429 -9.123,2.61035 -9.123,0.6709 z m 315.5335,-0.56835 c -0.3216,-0.52025 1.1872,-3.28692 3.3528,-6.14816 2.1656,-2.86124 6.0507,-9.43167 8.6336,-14.60096 5.5659,-11.13931 11.7006,-19.30497 14.5034,-19.30497 2.9777,0 2.3884,2.21238 -1.6125,6.05384 -4.027,3.86634 -7.2868,9.78436 -9.8852,17.94616 -2.4862,7.80905 -6.1311,13.74468 -9.5148,15.49443 -3.3752,1.74538 -4.6632,1.87698 -5.4773,0.55966 z m -59.5335,-47.29763 c -6.2216,-2.58602 -9.0289,-3.15682 -16.4706,-3.34891 -9.3735,-0.24196 -11.8998,-1.53173 -6.8606,-3.50257 5.5444,-2.16845 27.3308,0.90638 33.0812,4.66894 1.2375,0.8097 2.25,2.36181 2.25,3.44914 0,2.79096 -2.9997,2.47434 -12,-1.2666 z m 19,0.11158 c 0,-0.62258 0.9414,-2.65516 2.092,-4.51683 1.7664,-2.85803 1.922,-3.8724 1,-6.51726 -1.432,-4.10774 -1.3792,-4.83395 0.3513,-4.83395 2.0668,0 4.5567,3.96414 4.5567,7.25463 0,1.54528 -0.652,4.37016 -1.4489,6.27749 -1.1166,2.67224 -2.0343,3.46788 -4,3.46788 -1.4031,0 -2.5511,-0.50938 -2.5511,-1.13196 z m 91.9847,306.881959 c -0.025,-3.73616 -1.3024,-4.83646 -4.8009,-4.13674 -3.7015,0.74028 -3.9413,1.62916 -1.1838,4.38674 2.7775,2.77742 6.0044,2.64262 5.9847,-0.25 z M 1501.9102,0.2913592 c 4.6711,-1.30255 13.6679,-4.51946 19.9929,-7.1487 10.5002,-4.3648102 12.239,-4.7892402 20,-4.8817302 8.0924,-0.0964 9.3154,0.20194 25.5,6.2210702 12.9718,4.82426 19.0758,6.55555 25.7603,7.30648 10.6902,1.20094 28.6025,-0.0695 45.6748,-3.23945 l 12.0419,-2.23594 -2.0298,-3.07673 c -4.5916,-6.9595502 -10.0793,-19.0263302 -12.0412,-26.4769102 -1.9176,-7.28222 -2.0203,-9.29985 -1.2478,-24.4934 0.9586,-18.85454 1.2329,-18.26171 -7.1519,-15.45663 -8.3787,2.80301 -28.4821,5.73669 -44.1571,6.44386 -8.167,0.36844 -15.4766,1.00231 -16.2434,1.4086 -0.901,0.47735 1.0448,1.53995 5.5,3.00354 9.9765,3.2774 20.2605,8.20625 18.177,8.71168 -0.9446,0.22912 -7.2446,-0.91697 -14,-2.54687 -6.7555,-1.62989 -15.4328,-3.25807 -19.2828,-3.61818 -11.0831,-1.03665 -29.1888,0.99641 -39.6887,4.45659 -5.0347,1.65916 -11.2312,2.99099 -13.9161,2.99099 -2.6619,0 -11.9398,-1.83538 -20.6175,-4.07863 -17.7162,-4.57975 -24.2288,-4.76785 -37.7777,-1.09113 -3.85,1.04477 -13.75,3.77224 -22,6.06106 -19.9189,5.52616 -26.529,6.46001 -39.9274,5.64079 -6.0899,-0.37236 -13.3226,-0.64633 -16.0726,-0.60882 -2.75,0.0375 -13.1,-0.4308 -23,-1.04069 -20.1842,-1.24343 -26.6836,-0.5648 -34.6912,3.62222 -5.5198,2.88622 -7.4955,3.02365 -14.2052,0.98812 -3.623,-1.09909 -5.8338,-1.23203 -8.5,-0.51114 -1.982,0.53587 -6.2069,1.46937 -9.3887,2.07445 -6.1722,1.17377 -10.1091,3.9097 -11.2384,7.81015 -0.5814,2.00805 0.3149,3.29532 5.9192,8.50099 4.5474,4.22401 6.6043,6.87105 6.6043,8.49915 0,2.67428 7.1303,9.8355102 10.7142,10.7607102 1.2178,0.31438 2.4639,1.35857 2.7692,2.32043 1.2119,3.81837 11.2051,5.28588 20.0166,2.93947 2.2,-0.58584 11.2,-1.39962 20,-1.80841 12.8746,-0.59807 16.8791,-1.14262 20.5,-2.78768 11.2679,-5.1191802 14.443,-6.2494502 23.3151,-8.2996002 9.2309,-2.13306 9.7196,-2.14707 19.8245,-0.5683 19.785,3.09112 22.407,3.64983 31.0549,6.6172202 9.6865,3.32375 25.5047,6.1975 45.8055,8.3217 18.5064,1.93644 18.4372,1.93824 28.0071,-0.73033 z m -202.7169,-8.04105 c -3.4286,-2.8849202 -7.8144,-11.7822702 -6.9361,-14.0710002 0.9295,-2.42233 3.1805,-0.7157 5.9324,4.49781 1.3014,2.46538 3.4491,5.02627 4.7728,5.69087 2.8468,1.42934 5.0924,4.2372702 4.3497,5.4389602 -1.0176,1.64647 -5.2844,0.82839 -8.1188,-1.55664 z m 260.0528,-7.1899902 c -1.85,-2.8234 -1.528,-4.92903 2.2371,-14.62916 l 1.8354,-4.72847 -2.78,-2.90171 c -2.1379,-2.23147 -2.7051,-3.68007 -2.4555,-6.27153 l 0.3245,-3.36982 3.555,3.73494 c 4.5792,4.81101 10.9405,15.56333 10.9405,18.49231 0,3.02631 -2.3295,2.89396 -4,-0.22725 -1.9046,-3.5588 -3.7408,-3.09487 -4.9474,1.25 -1.3114,4.72203 -1.3266,6.96263 -0.053,7.75 0.55,0.33992 1,1.26648 1,2.05902 0,2.40069 -3.8403,1.61435 -5.657,-1.15833 z m -42.9964,-8.85325 c -5.823,-3.92144 -9.3466,-7.94855 -9.3466,-10.6823 0,-2.72338 1.1119,-2.35701 7.8092,2.57332 3.3161,2.44116 7.899,5.39233 10.1842,6.55817 3.4221,1.74579 3.9439,2.37403 2.9584,3.56153 -1.9718,2.37579 -6.1723,1.648 -11.6052,-2.01072 z m -231.7751,-0.11887 c -2.245,-2.24497 -2.0176,-2.91522 2.1564,-6.35577 5.0701,-4.1792 7.2721,-4.07182 7.2721,0.35462 0,2.51163 -0.704,3.9812 -2.6348,5.5 -3.1557,2.48224 -4.6988,2.59607 -6.7937,0.50115 z m 117.404,-5.95818 c -0.9707,-1.16961 -1.0046,-2.11105 -0.1439,-4 1.0261,-2.25215 1.6903,-2.47039 7.5177,-2.47039 3.5157,0 13.0878,0.72063 21.2714,1.6014 16.6247,1.78924 31.0453,1.44716 47.1887,-1.11938 12.7692,-2.0301 17.6906,-1.74812 17.6906,1.01362 0,4.11279 -5.6941,4.92039 -35,4.9641 -14.85,0.0221 -32.6642,-0.33833 -39.5872,-0.80105 -10.9207,-0.72991 -12.798,-0.6306 -14.1786,0.75 -1.9924,1.99237 -3.144,2.0073 -4.7587,0.0617 z m 305.0245,29.6232102 c 15.6696,-0.71393 16.8272,-0.90914 23,-3.87851 7.7315,-3.71914 15.149,-5.81999 17.0958,-4.84203 0.7723,0.38796 2.5292,1.3561 3.9042,2.15142 1.5479,0.89532 5.2746,1.45165 9.7852,1.46078 6.8948,0.014 7.2297,-0.0889 6.25,-1.91952 -0.5694,-1.06384 -1.0352,-3.1171702 -1.0352,-4.5629502 0,-4.06161 4.9475,-13.21956 10.1157,-18.72437 l 4.6701,-4.97425 -2.8747,-6.33996 c -5.946,-13.11375 -14.0694,-50.60244 -15.6026,-72.005169 -0.4563,-6.36936 -0.231,-8.70807 1.0834,-11.25 2.4972,-4.82906 3.607,-3.89641 3.6184,3.04096 0.01,3.4375 0.4804,11.60869 1.055,18.15819 0.9351,10.660049 1.9297,14.685929 9.4896,38.409859 8.1632,25.61707 9.3231,30.18195 7.6687,30.18195 -0.427,0 -0.6037,1.81158 -0.3925,4.02572 0.3588,3.76221 0.027,4.36864 -5.0683,9.2644 -3.4004,3.26726 -5.936,6.73853 -6.7378,9.22428 -0.7071,2.19208 -1.7865,4.6136302 -2.3986,5.3812202 -0.939,1.1774 -0.1911,1.28044 4.7831,0.65896 8.3174,-1.0392 10.5677,-2.33553 12.7035,-7.3182502 2.0014,-4.6691 5.8378,-7.00286 13.137,-7.99167 2.0625,-0.2794 3.75,-0.68374 3.75,-0.89853 0,-0.21479 -1.748,-3.86804 -3.8844,-8.11833 -4.5806,-9.11288 -15.8804,-38.91677 -19.6119,-51.7278 -2.4954,-8.56682 -3.7397,-15.982 -5.1181,-30.499999 -0.6695,-7.05188 1.8258,-27.47368 4.2341,-34.65175 0.7661,-2.28347 3.8806,-8.35847 6.9211,-13.5 l 5.5282,-9.34825 -7.1399,-0.29594 c -9.4696,-0.39249 -11.3903,0.8703 -12.9561,8.51789 -1.775,8.66918 -2.9607,11.27805 -5.1257,11.27805 -1.0505,0 -2.1902,-0.7301 -2.5326,-1.62245 -0.5107,-1.33083 1.8459,-13.91747 3.3613,-17.95257 0.365,-0.97192 -9.72,-2.23843 -32.9067,-4.13254 -7.0764,-0.57807 -24.4666,2.06499 -34.4644,5.23812 -5.4286,1.72296 -8.706,3.50628 -11.9655,6.51077 -6.7938,6.26232 -13.3841,8.78281 -30.0832,11.50559 -22.3586,3.64556 -24.345,3.40016 -26.1685,-3.23299 -0.718,-2.6114 -0.862,-2.41807 -2.0018,2.68607 -8.5991,38.51032 -8.3273,42.54246 4.0871,60.628619 3.0687,4.47074 5.7601,8.67061 5.9809,9.33305 0.5572,1.67166 16.5409,2.85846 25.8461,1.9191 4.125,-0.41642 10.4718,-0.78494 14.104,-0.81895 7.8671,-0.0736 8.7994,0.6045 17.1746,12.4925 6.2892,8.92703 9.649,12.73718 14.6587,16.62322 2.9454,2.28477 3.2498,2.89211 2.1275,4.24438 -3.2344,3.89722 -7.3653,1.18645 -19.0498,-12.50089 l -10.0708,-11.79704 -7.5292,-1.67507 c -6.3012,-1.40189 -8.7496,-1.49354 -15.0129,-0.562 -4.1161,0.6122 -10.064,1.11308 -13.2176,1.11308 l -5.7338,0 -1.8704,8.53105 c -2.4946,11.3782 -1.8082,23.82672 1.9389,35.16231 3.1474,9.5216 9.6302,18.17409 18.7928,25.0826902 4.9312,3.71805 6.6184,4.39183 12.9296,5.16334 3.9922,0.488 8.8334,0.66649 10.7584,0.39663 1.925,-0.26986 10.925,-0.82895 20,-1.24242 z m 36.5482,-46.0157002 c -0.3135,-0.50716 0.1771,-4.32163 1.0901,-8.47661 l 1.6599,-7.55452 -4.5816,-13.77338 c -7.5369,-22.65711 -9.6343,-38.928249 -5.965,-46.273389 2.066,-4.13577 4.8693,-4.7576 4.5081,-1 -1.495,15.55396 0.4248,27.861779 7.2531,46.499999 3.4028,9.28819 3.6315,10.60938 3.2118,18.56102 -0.2486,4.70856 -0.9791,9.54606 -1.6234,10.75 -1.1832,2.21077 -4.5017,2.96788 -5.553,1.26688 z m -16.5515,-24.73442 c -1.8507,-4.21109 -6.2656,-11.52359 -9.8111,-16.25 -3.5454,-4.72641 -7.2777,-10.39348 -8.2939,-12.59348 -2.2582,-4.888629 -2.5076,-13.743959 -0.4355,-15.463649 2.3069,-1.91452 3.5438,-0.28914 3.5438,4.65665 0,7.13181 1.8012,11.525529 7.7663,18.945139 10.1598,12.63717 13.2337,18.09962 13.2337,23.5169 0,7.1303 -2.0577,6.1666 -6.0033,-2.81156 z m -46.9891,-15.8344 c -2.5371,-3.057 1.7577,-16.890239 6.9108,-22.259079 4.7752,-4.97514 5.8485,-1.37896 2.0106,6.73636 -1.6109,3.406269 -2.929,7.757399 -2.929,9.669169 0,6.24799 -3.1287,9.30417 -5.9924,5.85355 z m 83.5804,-49.366819 c -0.3305,-0.53465 -4.3104,-2.38691 -8.8444,-4.11613 -9.569,-3.64953 -12.8606,-6.41565 -16.7525,-14.07804 -1.5509,-3.05355 -4.6779,-7.90248 -6.9488,-10.77539 -4.1634,-5.26712 -4.4541,-7.1727 -1.094,-7.1727 3.0266,0 5.8291,3.05748 10.9996,12 7.098,12.27635 7.1293,12.30775 14.6677,14.75116 8.8333,2.86312 13.6211,5.77578 13.1924,8.0256 -0.3609,1.89388 -4.2627,2.91454 -5.22,1.3655 z m -468.9595,88.280059 c 10.9379,-0.23489 14.5742,-0.73268 21.7928,-2.98331 8.1402,-2.538 9.4328,-2.66386 21.3715,-2.08107 6.989,0.34116 16.3173,0.90209 20.7297,1.24649 7.7367,0.60389 8.2887,0.49903 15.5,-2.94456 9.4057,-4.49152 22.5755,-8.31707 35.4775,-10.30547 8.5501,-1.31771 11.9152,-1.36125 23.2083,-0.30029 7.2646,0.68248 16.4896,0.98059 20.5,0.66246 8.3704,-0.66398 22.7659,-4.61867 30.7917,-8.45897 5.1191,-2.44945 6.8159,-2.68082 24.5,-3.34077 10.45,-0.38998 22.2375,-1.04396 26.1943,-1.45331 5.668,-0.58635 7.9042,-0.40742 10.54,0.84337 1.8402,0.8732 6.2604,2.05325 9.8227,2.62233 9.1147,1.45608 17.357,-0.0963 29.7358,-5.60048 13.8312,-6.15004 14.5936,-5.20071 3.1883,3.97046 l -3.4811,2.79919 4.5,-0.55961 c 22.4838,-2.79606 40.803,-7.03048 40.3043,-9.31618 -0.1077,-0.49343 -1.7596,-3.55787 -3.671,-6.80987 -1.9113,-3.252 -4.4675,-9.28773 -5.6803,-13.412729 -1.9304,-6.56527 -2.1337,-8.99557 -1.6319,-19.5 0.3232,-6.76272 1.4693,-15.62828 2.6262,-20.31335 1.129,-4.57234 2.0527,-8.76516 2.0527,-9.31738 0,-1.20528 -2.9179,-0.42782 -8.8364,2.35434 -3.448,1.62087 -5.5758,1.92611 -10.3859,1.48995 -8.4863,-0.76951 -19.7898,2.2937 -33.1542,8.98465 -5.982,2.99496 -14.532,6.80161 -19,8.45922 -6.9763,2.58824 -8.9708,2.92504 -14.1235,2.38496 -19.4449,-2.03811 -20.5484,-1.97331 -31.6446,1.85808 -8.7816,3.03223 -11.7587,3.59862 -18.89,3.59374 -4.6559,-0.003 -11.1654,-0.46581 -14.4654,-1.02805 -3.3,-0.56224 -12.1423,-1.02278 -19.6496,-1.02341 -12.161,-10e-4 -14.3815,0.27435 -20.3609,2.52498 -3.6912,1.38937 -9.6988,4.50019 -13.3504,6.91295 -11.5066,7.60307 -23.4301,13.50107 -39.7386,19.656889 -8.6879,3.27934 -16.3821,5.96243 -17.0983,5.96243 -2.44,0 -1.3096,-1.98208 2.8479,-4.99373 4.112,-2.97871 4.1242,-3.00627 1.3375,-3.00627 -1.5468,0 -4.9727,1.38621 -7.613,3.08046 -5.4212,3.47882 -8.5029,3.52751 -8.1364,0.12855 0.1642,-1.5219 -0.3024,-2.20996 -1.5,-2.21207 -0.956,-0.002 -6.9132,-1.64555 -13.2382,-3.653039 -16.1833,-5.13643 -25.5193,-5.23738 -39.2678,-0.4246 -11.3967,3.989519 -16.8013,8.030219 -18.5507,13.869299 -0.6498,2.16889 -1.1815,4.88807 -1.1815,6.04262 0,1.15455 -1.3721,3.66201 -3.0492,5.57212 -2.5092,2.85779 -3.0122,4.23669 -2.8398,7.7848 0.1759,3.61909 -0.2982,4.85102 -2.9507,7.66762 -1.7381,1.84566 -3.1603,4.23774 -3.1603,5.31574 0,5.58132 5.2803,9.18807 12,8.19666 2.475,-0.36515 10.4079,-0.79078 17.6285,-0.94584 z m -14.6285,-12.71659 c -1.3929,-0.70471 -2.5,-2.13738 -2.5,-3.23526 0,-1.68729 0.6705,-1.9622 4.6657,-1.91291 5.1046,0.063 7.8343,1.65351 7.8343,4.56488 0,1.50558 -0.7429,1.87464 -3.75,1.86282 -2.0625,-0.008 -4.875,-0.5839 -6.25,-1.27953 z m 7.6667,-11.3724 c -0.3667,-0.36666 -0.6667,-2.31322 -0.6667,-4.32568 0,-2.60999 0.7168,-4.33237 2.5,-6.00765 1.9336,-1.81646 2.5,-3.34766 2.5,-6.75765 0,-5.3594 1.6619,-5.32422 4.3467,0.092 l 1.8466,3.72546 -4.2113,6.97008 c -4.1201,6.81885 -4.9607,7.65797 -6.3153,6.30341 z m 103.3333,-4.81301 c 0,-3.12434 12.8637,-7.81116 39.5,-14.39168 31.4275,-7.76416 29.2599,-7.51148 45.3537,-5.28684 13.9623,1.93002 17.1463,3.00928 17.1463,5.81203 0,2.466 -2.592,2.5512 -12.8632,0.42281 -11.7601,-2.43695 -24.2146,-2.66383 -33.9388,-0.61828 -7.3318,1.54228 -40.8937,11.68089 -46.7045,14.10882 -4.5074,1.88331 -8.4935,1.86132 -8.4935,-0.0469 z m 146,-9.85533 c 0,-3.83313 0.6578,-5.28908 4.5453,-10.06141 l 4.5452,-5.579759 -3.5501,-3.55016 c -6.0762,-6.07616 -12.0921,-20.47366 -8.5548,-20.47366 0.5421,0 2.3339,2.6708 3.9817,5.9351 2.7908,5.52855 7.1534,9.93093 11.2827,11.38563 1.3251,0.46682 1.75,1.73797 1.75,5.23548 0,4.221889 -0.3971,4.978559 -4.6201,8.801819 -3.5175,3.18462 -4.774,5.13 -5.2652,8.15165 -0.4292,2.64058 -1.2257,4.0806 -2.3799,4.30288 -1.438,0.27694 -1.7348,-0.43257 -1.7348,-4.14757 z m -44.3333,-20.331659 c -3.1551,-3.15512 3.4239,-10.56872 13.688,-15.42451 6.451,-3.05186 10.0746,-3.64128 11.1992,-1.82169 0.9798,1.58546 -0.6857,2.86604 -7.1392,5.48891 -4.0624,1.6511 -7.0354,3.81107 -10.1567,7.37918 -4.1887,4.78825 -6.0866,5.88284 -7.5913,4.37811 z m -79.9577,52.145939 c 8.9149,-2.09169 16.0166,-4.11433 15.7815,-4.49477 -0.2352,-0.38043 -4.0108,-0.99053 -8.3903,-1.35577 -6.1938,-0.51654 -9.9683,-0.21732 -16.9909,1.34692 -9.5744,2.13267 -21.9389,6.41651 -23.6081,8.17934 -2.1267,2.24589 16.9862,0.13032 33.2078,-3.67572 z m 527.791,1.68781 6,-1.80575 -3.8675,-0.63687 c -3.1245,-0.51451 -4.5619,-0.165 -7.4821,1.81934 -4.2841,2.91108 -2.8192,3.08175 5.3496,0.62328 z m -417.9262,-8.51975 c 5.0653,-1.50348 12.0357,-2.59569 19.3114,-3.02596 12.1715,-0.71979 16.93,-1.9828 11.6007,-3.0791 -1.6422,-0.33783 -5.3011,-1.28114 -8.1309,-2.09626 -4.2309,-1.21872 -9.4294,-1.3617 -29.2601,-0.80474 l -24.1151,0.67728 -7.0351,3.20668 -7.0351,3.20667 3.2952,0.76196 c 1.8124,0.41908 5.7702,1.34169 8.7952,2.05024 9.3576,2.19185 23.4778,1.80312 32.5738,-0.89677 z m 73.5687,-106.927569 2.2357,-3.21976 -2.2817,1.98881 c -1.255,1.09385 -2.7349,2.83565 -3.2889,3.87068 -1.5695,2.93274 0.729,1.11336 3.3349,-2.63973 z m 11.4362,-4.97262 c 7.0025,-6.40501 9.4671,-7.95013 18.5,-11.59807 5.7318,-2.31474 11.5463,-5.10678 12.9213,-6.20453 l 2.5,-1.99592 -3,0.67273 c -4.4512,0.99816 -22.2932,9.03748 -27.5647,12.4202 -4.0873,2.62283 -6.0679,4.66955 -13.3584,13.80446 -1.8975,2.37759 -1.8975,2.39557 0,1.35014 1.0577,-0.58275 5.5586,-4.3848 10.0018,-8.44901 z m 210.0874,-7.33787 c 2.2913,-1.31735 5.8095,-4.31085 7.8182,-6.65222 l 3.6523,-4.25705 -4.7129,-0.31069 c -3.5892,-0.23662 -5.8108,0.29912 -9.3182,2.2471 -9.8962,5.49617 -17.0674,8.49822 -23.6942,9.91888 -5.7094,1.224 -6.2536,1.49584 -3.1292,1.56318 4.3314,0.0934 10.7179,2.48224 10.7179,4.00901 0,1.27557 13.0151,-3.2693 18.6661,-6.51821 z m -40.4786,2.90762 c -0.7219,-0.28887 -1.5844,-0.25335 -1.9167,0.0789 -0.3322,0.3323 0.2584,0.56864 1.3125,0.52522 1.165,-0.048 1.4019,-0.28494 0.6042,-0.60416 z"
       id="path3241"
       inkscape:connector-curvature="0" />
  </g>
</svg>
