<?xml version="1.0" encoding="UTF-8" standalone="no"?>
<!-- Created with Inkscape (http://www.inkscape.org/) -->

<svg
   xmlns:dc="http://purl.org/dc/elements/1.1/"
   xmlns:cc="http://creativecommons.org/ns#"
   xmlns:rdf="http://www.w3.org/1999/02/22-rdf-syntax-ns#"
   xmlns:svg="http://www.w3.org/2000/svg"
   xmlns="http://www.w3.org/2000/svg"
   xmlns:sodipodi="http://sodipodi.sourceforge.net/DTD/sodipodi-0.dtd"
   xmlns:inkscape="http://www.inkscape.org/namespaces/inkscape"
   width="158.17458"
   height="215.85899"
   id="svg2"
   version="1.1"
   inkscape:version="0.48.3.1 r9886"
   sodipodi:docname="Seated-triceps-press-1.svg">
  <defs
     id="defs4" />
  <sodipodi:namedview
     id="base"
     pagecolor="#ffffff"
     bordercolor="#666666"
     borderopacity="1.0"
     inkscape:pageopacity="0.0"
     inkscape:pageshadow="2"
     inkscape:zoom="1.979899"
     inkscape:cx="0.67857017"
     inkscape:cy="73.269187"
     inkscape:document-units="px"
     inkscape:current-layer="layer1"
     showgrid="false"
     fit-margin-top="0"
     fit-margin-left="0"
     fit-margin-right="0"
     fit-margin-bottom="0"
     inkscape:window-width="898"
     inkscape:window-height="738"
     inkscape:window-x="65"
     inkscape:window-y="138"
     inkscape:window-maximized="0" />
  <metadata
     id="metadata7">
    <rdf:RDF>
      <cc:Work
         rdf:about="">
        <dc:format>image/svg+xml</dc:format>
        <dc:type
           rdf:resource="http://purl.org/dc/dcmitype/StillImage" />
        <dc:title></dc:title>
      </cc:Work>
    </rdf:RDF>
  </metadata>
  <g
     inkscape:label="Ebene 1"
     inkscape:groupmode="layer"
     id="layer1"
     transform="translate(-2676.1772,-142.14383)">
    <path
       style="fill:#000000"
       d="m 2694.8518,357.40238 c -5.7263,-1.38528 -7.0372,-5.15267 -8.1022,-23.28417 -0.2745,-4.675 -1.3764,-11.94998 -2.4485,-16.16661 -2.5468,-10.01675 -2.4587,-14.46292 0.4591,-23.15707 4.0348,-12.02233 5.3525,-18.6713 6.0797,-30.67632 0.3831,-6.325 0.6663,-12.4 0.6293,-13.5 -0.037,-1.1 0.409,-3.47038 0.991,-5.26752 0.582,-1.79713 1.0565,-5.39713 1.0544,-8 0,-5.58167 4.4985,-16.07166 7.723,-17.99095 1.6022,-0.95369 2.1142,-2.24835 2.1142,-5.34571 0,-3.69249 1.5602,-7.75582 4.5675,-11.89582 0.5993,-0.825 1.608,-3.85893 2.2416,-6.74206 1.9437,-8.84441 10.5561,-20.23327 16.8786,-22.31989 3.6405,-1.20149 4.0375,-2.63507 1.8831,-6.80123 -1.9936,-3.85504 -2.9781,-14.03022 -1.6822,-17.38636 2.2911,-5.93418 12.4849,-8.67714 19.2487,-5.17946 4.3716,2.26063 7.2009,9.14903 7.5077,18.27892 0.2339,6.9564 0.4026,7.43827 3.1515,9 11.8755,6.74681 16.2035,11.78768 16.2035,18.87219 0,2.47585 0.3556,2.99767 1.7875,2.62321 3.3973,-0.88841 6.9886,3.23557 8.2075,9.42477 0.6206,3.15145 2.2484,10.17623 3.6174,15.61061 2.7009,10.72142 2.5082,14.72099 -0.8215,17.05321 -2.0249,1.41828 -2.027,1.47688 -0.1708,4.64671 2.5026,4.27363 6.0004,6.6327 10.9831,7.40753 l 4.1033,0.63805 0.6133,-5.17821 c 0.8888,-7.50507 4.091,-13.54693 7.8798,-14.86772 1.7044,-0.59415 3.916,-1.08027 4.9148,-1.08027 3.208,0 8.6527,5.7826 10.4011,11.04663 1.8098,5.44887 1.6436,5.34172 6.2411,4.02318 1.7839,-0.51161 3.2434,-0.55631 3.2434,-0.0993 0,0.45697 -1.6161,1.21305 -3.5914,1.68019 -1.9752,0.46714 -3.5052,1.29934 -3.4,1.84934 0.1053,0.55 0.4839,0.9452 0.8414,0.87822 0.3575,-0.067 1.8875,-0.41306 3.4,-0.76906 1.5604,-0.36726 2.75,-0.22603 2.75,0.32647 0,0.53556 -1.5283,1.26046 -3.3962,1.61088 -3.2747,0.61433 -3.4214,0.83972 -4.0976,6.29532 -0.827,6.6725 -2.7837,11.76019 -5.7282,14.89452 -2.5695,2.73512 -8.2225,3.04146 -11.6625,0.632 -2.3786,-1.66602 -7.0881,-10.58648 -7.1057,-13.45922 -0.01,-1.12496 -1.6938,-1.95118 -5.7598,-2.82117 -8.1982,-1.75415 -9.3367,-2.13872 -8.8175,-2.97867 0.2538,-0.41069 3.7478,-0.0913 7.7645,0.70978 5.9214,1.18094 8.1311,1.22747 11.6802,0.24591 2.62,-0.7246 4.013,-1.5748 3.4699,-2.11788 -0.5431,-0.54309 -2.5005,-0.46742 -4.876,0.18849 -5.499,1.51835 -17.1257,-0.55263 -19.7083,-3.51052 -2.9389,-3.36575 -5.3856,-9.73429 -5.619,-14.62507 -0.2475,-5.18956 -2.9126,-13.00686 -4.9674,-14.57089 -0.8552,-0.65092 -1.7052,-4.11615 -2.1673,-8.8361 -0.5506,-5.62358 -1.3786,-8.60151 -3.0022,-10.7975 -1.6901,-2.28605 -1.9344,-3.22229 -0.9925,-3.80439 1.9896,-1.22963 0.2369,-7.85826 -2.8307,-10.70574 -1.476,-1.37015 -4.0337,-3.74392 -5.6837,-5.27504 -4.1605,-3.86081 -7.2825,-4.67259 -9.0416,-2.35104 -0.7672,1.01239 -1.4091,2.53849 -1.4266,3.39133 -0.041,2.00327 -2.3264,6.93143 -3.2189,6.94157 -0.378,0.004 -0.4316,-1.56724 -0.1192,-3.49224 0.5308,-3.27078 0.3924,-3.5 -2.1125,-3.5 -4.019,0 -8.3366,-2.63664 -10.2624,-6.26693 l -1.715,-3.23307 -0.6094,3.53396 c -0.8417,4.8814 -2.1385,6.90607 -2.947,4.60114 -0.5553,-1.58294 -0.9044,-1.53212 -4.0534,0.58993 -4.9778,3.35458 -10.6846,11.38062 -12.858,18.08349 -1.5481,4.77441 -1.6243,5.70908 -0.4279,5.25 0.8005,-0.30719 2.0515,-0.55852 2.7801,-0.55852 0.8322,0 1.1302,-0.74337 0.8015,-2 -0.2876,-1.1 -0.133,-1.98893 0.3437,-1.9754 1.2736,0.0362 4.3666,6.68342 4.3666,9.38441 0,1.27974 1.575,5.40232 3.5,9.16129 1.925,3.75897 3.5,7.40894 3.5,8.11104 0,1.43447 4.575,15.73299 6.0213,18.81866 3.0848,6.58148 5.2001,14.5 3.8734,14.5 -0.4921,0 -1.2322,-0.0301 -1.6447,-0.0669 -0.4125,-0.0368 -0.8545,-1.35595 -0.9823,-2.93148 -0.1278,-1.57552 -1.2893,-5.25792 -2.5812,-8.18311 -1.2919,-2.92517 -3.1705,-8.01851 -4.1745,-11.31851 -1.0041,-3.3 -2.2051,-6.4275 -2.6688,-6.95 -0.4638,-0.5225 -0.8573,-2.0975 -0.8746,-3.5 -0.017,-1.4025 -1.3672,-5.23854 -3,-8.52454 -1.6327,-3.286 -2.9686,-6.96169 -2.9686,-8.16821 0,-4.12943 -1.0204,-5.38556 -3.8543,-4.74461 -3.3189,0.75066 -6.1457,3.91175 -6.1457,6.87242 0,1.24492 0.6395,4.07614 1.4212,6.29162 0.7817,2.21547 1.9445,8.4112 2.5842,13.76829 2.0076,16.81483 3.698,18.60745 18.3036,19.41055 0.445,0.0245 0.5309,0.49448 0.191,1.04448 -0.3399,0.55 -2.5553,1 -4.923,1 l -4.305,0 2.364,4.66948 c 1.3002,2.56821 2.364,5.26821 2.364,6 0,1.94984 1.2683,1.67196 8.0136,-1.75579 4.8799,-2.47975 6.3597,-2.84875 7.5299,-1.87755 1.8928,1.57087 1.8623,3.87092 -0.061,4.60903 -0.8347,0.32032 -1.3972,1.10699 -1.25,1.74817 0.3571,1.55512 -0.3722,1.87393 -2.4569,1.07396 -2.8944,-1.11069 -8.2792,2.99904 -9.7437,7.43654 -2.4044,7.28552 1.4849,9.68799 5.4549,3.36956 1.1074,-1.7624 2.5387,-3.02331 3.1806,-2.80203 1.5346,0.52896 2.63,-2.40835 1.4351,-3.84812 -0.6583,-0.7932 0.058,-1.12325 2.4371,-1.12325 3.0879,0 3.4114,0.29225 3.8733,3.5 1.5023,10.43352 4.7527,48.16794 4.197,48.72367 -0.7742,0.77419 -2.5511,-9.58727 -4.0683,-23.72367 -0.856,-7.975 -1.8168,-16.91372 -2.135,-19.86382 -0.7406,-6.86372 -2.5529,-5.5069 -3.5109,2.62838 -0.3714,3.15449 -1.4212,11.36044 -2.3328,18.23544 -0.9116,6.875 -1.9077,15.875 -2.2136,20 l -0.5562,7.5 5.6036,7.49707 c 6.7664,9.05295 7.0707,11.50754 1.9804,15.97685 -2.848,2.50058 -4.185,3.0427 -6.25,2.53411 -4.5778,-1.12751 -8.4519,-3.9402 -10.5724,-7.67585 -1.13,-1.99066 -2.9153,-4.82516 -3.9674,-6.29889 -1.6988,-2.3796 -1.7929,-3.32491 -0.8405,-8.44608 1.1117,-5.97792 0.07,-13.57432 -2.8503,-20.78435 -1.1012,-2.71885 -1.0407,-4.00359 0.4044,-8.58789 2.5531,-8.09916 2.385,-8.71497 -2.3776,-8.71497 -3.1225,0 -4.7127,-0.64378 -6.7927,-2.75 l -2.7158,-2.75 -2.1765,7 c -1.197,3.85 -2.3962,10.6 -2.6648,15 -0.2686,4.4 -0.7942,11.90849 -1.1678,16.68554 -0.6697,8.56249 -0.6349,8.75262 2.4576,13.42144 1.7253,2.60475 3.1369,5.11266 3.1369,5.57312 0,0.46047 1.2904,2.61858 2.8676,4.79581 3.2611,4.5019 3.1874,8.17176 -0.2122,10.5529 -2.009,1.40713 -8.8399,1.79935 -13.1554,0.75536 z m 11.25,-2.91446 c 1.6483,-0.44172 2.25,-1.34547 2.25,-3.37935 0,-1.52701 -0.6581,-3.02893 -1.4625,-3.3376 -0.8044,-0.30866 -2.8114,-3.16931 -4.4601,-6.35698 -1.6487,-3.18768 -3.9598,-7.25828 -5.1357,-9.04578 -1.176,-1.7875 -1.6564,-3.25 -1.0677,-3.25 0.6484,0 0.9963,-2.06966 0.8826,-5.25 -0.1033,-2.8875 0.1949,-8.85 0.6625,-13.25 0.9337,-8.78481 -0.1581,-9.8139 -1.3956,-1.31541 l -0.774,5.31541 -0.1247,-7.23564 c -0.1094,-6.34291 0.2762,-8.01124 3.1252,-13.52198 5.6983,-11.02193 6.01,-12.14254 4.6451,-16.69832 -1.1483,-3.8326 -1.4032,-4.04 -4.3078,-3.50515 -1.698,0.31267 -4.0686,0.63774 -5.268,0.72238 -1.1994,0.0846 -1.9896,0.46321 -1.7559,0.84128 0.381,0.61651 -1.8547,9.82038 -5.9896,24.65715 -1.4129,5.07012 -0.8901,14.30138 0.9815,17.32974 0.5107,0.82637 3.221,26.78235 3.4063,32.62158 0.021,0.66608 1.0233,2.12858 2.227,3.25 2.2261,2.07394 8.6061,2.73665 13.5614,1.40867 z m -3.5335,-2.39467 c -0.852,-1.36428 -2.3314,-1.97504 -4.784,-1.97504 -2.1124,0 -3.3002,-0.40505 -2.9325,-1 0.3399,-0.55 2.0967,-1 3.904,-1 3.6254,0 7.6454,3.35063 5.9973,4.99867 -0.6019,0.60188 -1.4045,0.22582 -2.1848,-1.02363 z m -10.5196,-11.36817 c -0.4092,-1.04122 -0.5084,-2.12872 -0.2204,-2.41666 0.912,-0.91206 1.7145,0.58256 1.3324,2.48152 -0.3503,1.74033 -0.4038,1.73721 -1.112,-0.0649 z m -4.1255,-28.92021 c -1.0004,-4.66489 -0.3377,-10.11313 1.9626,-16.13642 2.3949,-6.27115 3.7225,-5.7409 1.7519,0.69976 -0.8835,2.8875 -1.8966,8.4 -2.2515,12.25 -0.6159,6.68229 -0.6823,6.82693 -1.463,3.18666 z m 6.777,-25.15211 c 0.3584,-0.93397 0.6516,-2.06318 0.6516,-2.50935 0,-0.44617 0.675,-1.07024 1.5,-1.38683 2.4137,-0.92623 1.8203,3.11986 -0.6516,4.44278 -1.8577,0.99421 -2.0626,0.91955 -1.5,-0.5466 z m 48.1897,55.34534 c 0.4229,-1.33249 -0.2945,-3.12444 -2.2056,-5.50894 -8.8878,-11.08923 -10.5709,-16.88397 -8.0149,-27.59423 1.4558,-6.10002 2.9346,-16.53851 1.9872,-14.02672 -0.2593,0.6875 -0.8235,1.25 -1.2539,1.25 -1.1866,0 0.552,-8.13654 1.9192,-8.98152 0.6568,-0.40591 1.4505,-3.56547 1.7639,-7.02126 l 0.5697,-6.28326 -3.249,2.89302 c -2.8405,2.52926 -3.1859,3.36454 -2.747,6.64302 0.5911,4.41602 -0.8571,5.07784 -1.7925,0.8191 -0.3541,-1.612 -1.2824,-3.46091 -2.0629,-4.10869 -2.97,-2.46487 -4.4353,8.24158 -1.9558,14.28959 0.3999,0.97534 0.2767,1.75 -0.2782,1.75 -0.5477,0 -1.2998,-1.62098 -1.6715,-3.60218 -0.8443,-4.50055 -1.1979,-4.13937 -3.1338,3.20081 -1.6045,6.08374 -1.5491,7.06863 1.0634,18.90137 0.85,3.85 1.7262,8.41848 1.947,10.15217 0.2208,1.7337 0.9274,4.13474 1.5701,5.33565 1.5196,2.83947 0.2664,4.0881 -1.5753,1.56948 -1.3923,-1.90412 -1.4182,-1.90176 -1.4182,0.12913 0,1.13777 0.7079,2.65618 1.5731,3.37423 0.8652,0.71805 2.4583,3.0408 3.5403,5.16167 1.082,2.12087 3.3469,4.69512 5.0331,5.72055 3.0034,1.82651 3.1339,1.82424 6.4153,-0.11184 1.8422,-1.08695 3.6316,-2.86496 3.9763,-3.95115 z M 2725.71,308.36821 c 0.3409,-2.0625 0.6247,-5.23906 0.6308,-7.05902 0.01,-1.94909 0.422,-3.05502 1.011,-2.69098 1.0962,0.6775 1.3264,7.68031 0.3697,11.25 -1.0254,3.82639 -2.6871,2.58727 -2.0115,-1.5 z m -2.541,-26.25 c 2.0443,-3.96994 2.2759,-5.61902 1.966,-14 -0.2828,-7.64841 -0.8015,-10.29717 -2.6615,-13.59007 -6.2097,-10.9938 -16.7779,-7.81603 -18.623,5.59981 -0.3774,2.74341 -1.1431,5.27048 -1.7017,5.6157 -0.6622,0.40927 -0.7839,-0.74339 -0.3498,-3.31266 0.6089,-3.60433 0.4347,-4.04556 -2.0429,-5.17443 -3.5484,-1.61677 -4.372,-0.6477 -5.3073,6.24495 -0.6656,4.90474 -0.5581,5.58225 0.8184,5.15736 0.8715,-0.26904 4.9265,-1.18627 9.0111,-2.03829 5.9674,-1.24476 7.5853,-1.29894 8.2347,-0.27575 1.0735,1.69147 1.0414,2.23469 -0.3074,5.19497 -0.6305,1.38363 -1.5378,2.27371 -2.0163,1.97795 -0.4786,-0.29575 -0.5674,-1.02753 -0.1974,-1.62616 0.45,-0.7282 -0.1238,-0.87533 -1.7337,-0.44456 -1.3235,0.35413 -2.7439,0.65002 -3.1564,0.65753 -2.4166,0.044 0.5891,8.44249 4.5844,12.80956 1.7044,1.863 2.9551,2.24012 6.633,2 4.2581,-0.27799 4.6729,-0.56839 6.8498,-4.79591 z m -5.1503,0.86103 c 1.4132,-2.59107 1.8329,-5.53733 1.8324,-12.86103 -8e-4,-9.45749 -0.2602,-10.45225 -5.2816,-20.25 -0.2114,-0.4125 0.07,-0.75 0.6254,-0.75 0.5554,0 2.2452,2.5251 3.7552,5.61133 3.5748,7.30665 4.2963,18.47829 1.6676,25.82265 -0.9712,2.71369 -2.3658,5.12615 -3.099,5.36103 -0.9521,0.30501 -0.8092,-0.53345 0.5,-2.93398 z m -14.4397,-12.53133 c 4.275,-0.91867 7.7728,-2.09245 7.7728,-2.60841 0,-0.51596 -1.0125,-0.69669 -2.25,-0.40162 -1.2375,0.29507 -5.0625,1.0774 -8.5,1.73851 -3.4375,0.66112 -6.25,1.59348 -6.25,2.07193 0,1.15401 0.2216,1.13478 9.2272,-0.80041 z m 115.3387,-3.24747 c 0.5862,-0.0452 2.152,-1.99473 3.4795,-4.33223 2.0224,-3.56084 2.4171,-5.62833 2.4342,-12.75 0.032,-13.45537 -4.4263,-22 -11.4796,-22 -5.6544,0 -8.5398,4.3715 -10.4238,15.79221 l -0.5431,3.2922 3.7335,-0.66429 c 2.0534,-0.36536 4.1834,-0.72185 4.7334,-0.79221 0.55,-0.0704 1,0.98267 1,2.34005 0,2.02557 -0.717,2.66913 -4,3.59025 -2.2,0.61726 -3.9861,1.53167 -3.9691,2.03204 0.1195,3.52347 2.1303,7.96843 4.9638,10.97282 2.6659,2.82664 3.8933,3.43673 6.1668,3.06522 1.5612,-0.25511 3.3181,-0.50083 3.9044,-0.54606 z m -2.5659,-1.42859 c 0,-0.1905 0.6597,-1.66876 1.466,-3.28503 3.7325,-7.48188 2.6981,-21.90061 -2.0758,-28.93532 -2.4265,-3.5756 -2.6202,-5.31148 -0.4424,-3.96558 2.0976,1.29643 4.99,8.38291 5.9987,14.69746 1.4539,9.10069 -0.8683,21.83483 -3.9817,21.83483 -0.5306,0 -0.9648,-0.15586 -0.9648,-0.34636 z m -81.4219,-3.69017 c 3.5721,-1.6701 6.235,-3.45684 5.9175,-3.97054 -0.6239,-1.00962 -13.4956,4.92442 -13.4956,6.2217 0,1.19409 0.5737,1.02366 7.5781,-2.25116 z m -27.9385,-13.10915 c 1.504,-1.56987 3.7524,-2.85432 4.9965,-2.85432 2.2132,0 2.2291,-0.0783 0.7419,-3.63764 -0.8359,-2.00071 -2.1537,-7.24252 -2.9283,-11.64847 -0.7746,-4.40595 -2.1458,-8.82557 -3.047,-9.82138 -1.5711,-1.73607 -1.7515,-1.69757 -4.385,0.93599 -4.1578,4.15778 -6.0177,8.53234 -6.0177,14.15396 0,2.79498 -0.6628,6.66801 -1.4728,8.60674 -1.7299,4.14028 -1.1153,5.52758 4.3044,9.7149 l 3.6293,2.80411 0.722,-2.69978 c 0.3971,-1.48488 1.9526,-3.98423 3.4567,-5.55411 z m 79.836,-18.77729 c 0.679,-2.13959 -4.896,-25.87473 -7.262,-30.91707 -1.2915,-2.75237 -2.4173,-3.74021 -4.5401,-3.98358 -2.5435,-0.29162 -2.7171,-0.12638 -1.7552,1.67094 0.5871,1.09701 1.4879,4.9638 2.0019,8.59287 0.6554,4.62781 1.6809,7.4854 3.4339,9.56874 1.757,2.08809 2.6853,4.68147 3.1252,8.73075 1.0332,9.50979 1.3929,10.61127 3.0232,9.25827 0.781,-0.64821 1.6689,-1.96262 1.9731,-2.92092 z m -79.6254,-16.07703 c -0.5752,-1.65 -1.2268,-3 -1.448,-3 -0.2212,0 -0.4022,1.35 -0.4022,3 0,1.9521 0.5058,3 1.448,3 1.1746,0 1.2505,-0.5664 0.4022,-3 z m 42.9498,-41.2 c 1.5481,-1.54813 1.5791,-14.80265 0.046,-19.91787 -1.4657,-4.89222 -3.7637,-6.95268 -8.7766,-7.86935 -5.6841,-1.03942 -11.6323,1.71833 -12.5309,5.8097 -0.7621,3.4697 0.2227,10.05081 1.8003,12.0317 0.5932,0.74479 2.1009,1.74289 3.3505,2.21798 1.3255,0.50397 2.0552,1.42875 1.7516,2.21996 -0.2862,0.74588 0.6837,2.56029 2.1555,4.03201 2.0442,2.04426 3.6586,2.67587 6.8395,2.67587 2.29,0 4.7036,-0.54 5.3636,-1.2 z m 38.8559,156.54572 c -0.9331,-2.75402 -3.6107,-22.78565 -3.6364,-27.20413 -0.018,-3.16095 -0.1811,-3.31786 -2.7674,-2.66871 -1.5114,0.37933 -2.9001,0.84175 -3.0859,1.0276 -0.1859,0.18585 0.1495,4.31177 0.7451,9.16871 0.5957,4.85695 1.0707,11.08081 1.0555,13.83081 -0.047,8.46939 -1.7892,2.92716 -3.1331,-9.96557 -0.9397,-9.01512 -1.586,-11.85843 -2.7791,-12.22558 -8.9131,-2.74293 -16.4358,-9.4934 -17.6213,-15.81249 -1.2159,-6.48179 3.4727,-8.90262 22.4429,-11.58755 8.4077,-1.18998 8.9242,-1.14882 13.3559,1.0645 9.701,4.84492 15.2922,13.57988 11.4266,17.85138 -1.9187,2.12009 -6.5183,3.76636 -13.0283,4.66302 l -4.8696,0.67071 0.5226,4.67079 c 0.2875,2.56893 1.0547,9.25518 1.705,14.85832 1.2302,10.60022 1.081,15.83052 -0.3325,11.65819 z m -4.4245,-34.42313 c 3.9978,-0.59257 9.9686,-1.64948 13.2686,-2.34868 5.7897,-1.2267 5.9886,-1.37298 5.675,-4.17259 -0.4508,-4.02519 -2.1396,-5.58544 -10.5386,-9.73644 l -7.3007,-3.60822 -9.9178,1.57327 c -12.6619,2.00855 -16.4294,3.51926 -16.3825,6.56904 0.053,3.47658 2.3244,6.90009 6.608,9.96221 4.3562,3.11406 7.4712,3.40924 18.588,1.76141 z m -26.4458,27.07741 c -0.4984,-1.21189 -6.8262,-53.59837 -6.7946,-56.25 0,-0.4125 -1.341,-0.75 -2.991,-0.75 -1.65,0 -3,-0.45 -3,-1 0,-0.55 0.6908,-1 1.5352,-1 3.2993,0 6.4659,-3.13621 6.4268,-6.36501 -0.03,-2.50098 -0.8342,-3.68566 -3.9752,-5.85786 -4.9793,-3.44346 -6.9827,-8.20725 -7.0019,-16.64925 -0.014,-6.04395 -1.5795,-13.05583 -3.2996,-14.77588 -0.3769,-0.37693 -0.6853,1.21622 -0.6853,3.54035 0,2.68948 -0.3807,3.9904 -1.0472,3.57847 -0.5892,-0.36414 -0.948,-3.34219 -0.8204,-6.80902 0.3163,-8.59251 -0.6715,-15.15275 -2.9863,-19.83129 -1.816,-3.67049 -1.8559,-4.28074 -0.4934,-7.54176 1.0952,-2.6212 1.2199,-4.23265 0.4772,-6.16843 -1.6356,-4.26346 -0.9652,-9.11535 1.2599,-9.11804 2.0966,-0.002 4.5414,2.67911 4.5562,4.99772 0.01,0.98243 -0.6516,0.63953 -1.9064,-0.99376 l -1.9159,-2.49376 0.3214,6.45287 c 0.1768,3.54908 -0.1491,7.48567 -0.7243,8.74799 -0.5751,1.26231 -0.8601,2.46449 -0.6332,2.67151 0.2268,0.20702 5.7086,-0.39297 12.1818,-1.33332 13.5275,-1.96511 13.3361,-2.04448 14.6963,6.09352 0.4923,2.94522 1.6001,7.3203 2.4618,9.72239 0.8617,2.40209 2.0082,7.10895 2.5478,10.45969 0.6768,4.2028 2.0543,7.65547 4.4413,11.13256 4.2127,6.13648 5.5834,9.59925 5.5834,14.10541 0,2.25088 0.4749,3.4349 1.3776,3.4349 2.466,0 3.8424,2.57249 2.1347,3.98977 -0.8317,0.69031 -1.5123,1.65002 -1.5123,2.13267 0,1.19929 5.2666,1.10689 8.5736,-0.15042 3.6346,-1.38187 4.4761,-0.24554 1.5656,2.11406 -2.7401,2.22149 -8.7897,2.49508 -11.398,0.51547 -1.4768,-1.1209 -3.115,-1.0577 -10.2208,0.39428 -4.6542,0.95102 -8.689,1.50227 -8.9662,1.22499 -0.2773,-0.27728 -1.4104,0.5721 -2.518,1.88752 -2.4029,2.85368 -2.2625,6.01647 1.5843,35.67555 2.2761,17.54832 2.7865,28.15921 1.1651,24.21611 z m 11.285,-65.48962 c 4.8683,-0.60825 9.9781,-2.84893 8.8564,-3.88356 -0.2348,-0.21662 -4.477,0.64484 -9.427,1.91436 -4.95,1.26952 -10.0125,2.06832 -11.25,1.77511 -1.2375,-0.29321 -2.25,-0.0656 -2.25,0.50575 0,1.34008 3.9043,1.97714 6.5651,1.07121 1.1358,-0.38672 4.5133,-1.00901 7.5055,-1.38287 z m -6.4698,-2.43324 c 1.5946,-0.50758 4.5867,-1.20297 6.6492,-1.54532 l 3.75,-0.62245 0,-5.56167 c 0,-4.90462 -0.2067,-5.47657 -1.75,-4.84126 -0.9625,0.39624 -5.7684,1.69954 -10.6797,2.89624 -4.9114,1.1967 -9.1174,2.73856 -9.3466,3.42634 -0.6355,1.90629 4.6539,6.66848 7.8771,7.09203 0.3304,0.0434 1.9054,-0.33634 3.5,-0.84391 z m -3.3275,-11.94344 c 10.1886,-1.85595 12.9132,-3.19689 11.2042,-5.51434 -5.6053,-7.60127 -6.699,-9.93365 -7.6343,-16.28133 -0.5542,-3.76092 -1.8752,-9.53803 -2.9355,-12.83803 -1.0604,-3.3 -1.9234,-7.2375 -1.9178,-8.75 0.012,-3.16015 0.4928,-3.07623 -9.6991,-1.69146 -13.3597,1.81519 -12.3277,1.12278 -10.7131,7.18802 0.7692,2.88939 1.4039,6.55859 1.4104,8.15377 0.01,1.59518 1.2494,5.42018 2.7619,8.5 2.1423,4.36216 2.7979,7.24425 2.9665,13.04131 0.1192,4.0929 0.4425,8.0304 0.7187,8.75 0.6382,1.66319 1.9309,1.61107 13.8381,-0.55794 z m -27.5962,-22.94885 c -1.4724,-1.53686 -2.6771,-3.11754 -2.6771,-3.51262 0,-1.2084 4.7916,2.34233 5.4396,4.03089 1.0024,2.61236 0.069,2.43725 -2.7625,-0.51827 z m 10.9098,-29.08878 c -0.9537,-1.05391 -2.826,-2.19024 -4.1605,-2.52519 -2.0876,-0.52394 -3.5427,-2.57088 -1.8275,-2.57088 1.7306,0 7.3279,3.36696 7.8473,4.72036 0.905,2.35852 0.085,2.5242 -1.8593,0.37571 z m 4.4131,-0.94108 c 0,-1.12641 3.0426,-3.68796 5.3626,-4.51482 1.489,-0.53068 1.6241,-0.9513 0.6733,-2.09696 -0.6542,-0.78822 -0.987,-2.47039 -0.7396,-3.73817 l 0.4498,-2.30504 0.7436,2.25 c 0.8648,2.61674 0.9226,2.63399 3.4784,1.03785 3.0443,-1.9012 3.422,-0.26887 0.5925,2.56063 -1.4083,1.40834 -2.5606,3.03106 -2.5606,3.60607 0,0.57499 -0.8519,1.04545 -1.893,1.04545 -1.0412,0 -2.152,0.675 -2.4686,1.5 -0.603,1.57127 -3.6384,2.11771 -3.6384,0.65499 z"
       id="path3634"
       inkscape:connector-curvature="0" />
  </g>
</svg>
