<?xml version="1.0" encoding="UTF-8" standalone="no"?>
<!-- Created with Inkscape (http://www.inkscape.org/) -->

<svg
   xmlns:dc="http://purl.org/dc/elements/1.1/"
   xmlns:cc="http://creativecommons.org/ns#"
   xmlns:rdf="http://www.w3.org/1999/02/22-rdf-syntax-ns#"
   xmlns:svg="http://www.w3.org/2000/svg"
   xmlns="http://www.w3.org/2000/svg"
   xmlns:sodipodi="http://sodipodi.sourceforge.net/DTD/sodipodi-0.dtd"
   xmlns:inkscape="http://www.inkscape.org/namespaces/inkscape"
   width="158.17458"
   height="215.85899"
   id="svg2"
   version="1.1"
   inkscape:version="0.48.3.1 r9886"
   sodipodi:docname="Spider-curl-1.svg">
  <defs
     id="defs4" />
  <sodipodi:namedview
     id="base"
     pagecolor="#ffffff"
     bordercolor="#666666"
     borderopacity="1.0"
     inkscape:pageopacity="0.0"
     inkscape:pageshadow="2"
     inkscape:zoom="1.979899"
     inkscape:cx="0.67857017"
     inkscape:cy="73.269187"
     inkscape:document-units="px"
     inkscape:current-layer="layer1"
     showgrid="false"
     fit-margin-top="0"
     fit-margin-left="0"
     fit-margin-right="0"
     fit-margin-bottom="0"
     inkscape:window-width="898"
     inkscape:window-height="738"
     inkscape:window-x="65"
     inkscape:window-y="138"
     inkscape:window-maximized="0" />
  <metadata
     id="metadata7">
    <rdf:RDF>
      <cc:Work
         rdf:about="">
        <dc:format>image/svg+xml</dc:format>
        <dc:type
           rdf:resource="http://purl.org/dc/dcmitype/StillImage" />
        <dc:title></dc:title>
      </cc:Work>
    </rdf:RDF>
  </metadata>
  <g
     inkscape:label="Ebene 1"
     inkscape:groupmode="layer"
     id="layer1"
     transform="translate(-2676.1772,-142.14383)">
    <path
       style="fill:#000000"
       d="m 2695.3569,357.40236 c -5.7263,-1.38528 -7.0372,-5.15267 -8.1022,-23.28417 -0.2745,-4.675 -1.3764,-11.94998 -2.4485,-16.16661 -2.5468,-10.01675 -2.4587,-14.46292 0.4591,-23.15707 4.0348,-12.02233 5.3525,-18.6713 6.0797,-30.67632 0.3831,-6.325 0.6663,-12.4 0.6293,-13.5 -0.037,-1.1 0.409,-3.47038 0.991,-5.26752 0.582,-1.79713 1.0583,-5.39545 1.0583,-7.99626 0,-5.46104 3.8405,-14.83478 7.1551,-17.46398 l 2.1782,-1.72777 -3.0275,-0.0222 c -5.2322,-0.0384 -9.2593,-4.30528 -11.5274,-12.21382 -1.1575,-4.03595 0.4142,-3.46921 1.9189,0.69193 2.2125,6.11878 5.804,9.51064 9.9749,9.4207 2.0136,-0.0434 3.1324,-0.29467 2.4861,-0.55833 -0.8421,-0.34359 -0.6359,-1.66675 0.728,-4.67105 3.4552,-7.61039 1.8647,-25.02532 -2.6259,-28.75217 -0.7849,-0.65141 -1.4129,-1.91679 -1.3955,-2.81195 0.023,-1.2042 0.6649,-0.90798 2.4661,1.13883 5.0795,5.77192 6.976,19.51909 4.039,29.27803 -0.8049,2.67425 -1.2161,5.10827 -0.9139,5.40893 1.2034,1.19747 4.3137,-4.33049 5.4114,-9.61787 2.1355,-10.28697 -1.0989,-22.21633 -7.2352,-26.68563 -5.7907,-4.21746 -13.1002,1.60132 -14.4094,11.47065 -0.356,2.68373 -0.9721,4.87951 -1.3691,4.87951 -0.7018,0 0.3028,-8.29251 1.4378,-11.86866 0.902,-2.84201 5.7886,-6.96478 8.9233,-7.52845 5.4412,-0.97845 11.299,4.23598 13.1675,11.72141 l 0.705,2.82431 2.5113,-4.32431 c 3.5611,-6.13212 9.0539,-11.60956 12.9223,-12.88625 3.6405,-1.20149 4.0375,-2.63507 1.8831,-6.80122 -1.9936,-3.85505 -2.9781,-14.03023 -1.6822,-17.38637 2.2911,-5.93418 12.4849,-8.67714 19.2487,-5.17946 4.3855,2.26782 7.2009,9.14624 7.5097,18.34746 0.2377,7.08059 0.3767,7.47214 3.0514,8.59678 1.5413,0.64806 3.4341,1.93943 4.2061,2.86969 1.0971,1.32196 2.3375,1.55137 5.6786,1.05034 2.3512,-0.35259 4.794,-0.32022 5.4285,0.0719 0.6345,0.39213 3.029,0.84103 5.321,0.99753 2.2921,0.15651 5.4049,0.60576 6.9174,0.99833 2.6039,0.67584 2.75,0.53167 2.75,-2.71314 0,-4.80552 2.6385,-13.15281 4.7662,-15.07829 0.9823,-0.88901 3.6181,-1.90935 5.8574,-2.26741 3.6104,-0.57734 4.4778,-0.29408 7.6628,2.50236 1.9753,1.73437 4.1031,4.81841 4.7285,6.85342 0.6254,2.035 1.3006,4.22826 1.5005,4.87389 0.2754,0.88954 1.7076,0.86142 5.9127,-0.11608 4.6176,-1.07339 5.7379,-1.06275 6.6725,0.0634 2.0075,2.41896 0.1908,4.06129 -5.7955,5.23901 l -5.8708,1.15502 -0.2188,5.02847 c -0.2499,5.74332 -2.3428,11.39846 -5.4375,14.69267 -1.5579,1.65832 -3.2557,2.26365 -6.3487,2.26365 -3.5694,0 -4.6949,-0.53849 -7.2806,-3.48342 -1.6822,-1.91588 -3.6099,-5.40338 -4.2839,-7.75 -0.674,-2.34662 -1.3245,-4.40925 -1.4455,-4.58362 -0.121,-0.17438 -2.7368,-0.90208 -5.8128,-1.61712 l -5.5927,-1.30008 0.6205,5.61712 c 0.4309,3.90033 1.3357,6.38749 2.9604,8.13769 1.3957,1.50351 2.9172,5.13505 3.7707,9 0.7869,3.56369 2.4101,10.28061 3.607,14.92649 2.5226,9.79123 2.1491,13.50899 -1.7212,17.1341 -2.78,2.60387 -14.771,7.69621 -19.944,8.46981 -1.544,0.23089 -5.2822,1.00373 -8.3072,1.71743 -5.41,1.2764 -5.4974,1.35433 -5.3437,4.76461 0.3584,7.95269 3.4152,37.51083 5.308,51.32574 2.1773,15.89244 2.5585,22.63055 1.193,21.09125 -0.4635,-0.5225 -2.2668,-13.775 -4.0073,-29.45 -1.7405,-15.675 -3.6811,-32.46878 -4.3123,-37.31951 -1.144,-8.79187 -1.1558,-8.81751 -3.7427,-8.17924 -1.4272,0.35215 -2.9058,0.94593 -3.2856,1.31951 -0.3798,0.37358 0.1591,8.10424 1.1976,17.17924 2.3447,20.49005 5.1125,52.21382 4.6002,52.72614 -0.7719,0.77186 -2.5504,-9.60693 -4.0658,-23.72614 -0.856,-7.975 -1.8168,-16.91372 -2.135,-19.86382 -0.7406,-6.86372 -2.5529,-5.5069 -3.5109,2.62838 -0.3714,3.15449 -1.4212,11.36044 -2.3328,18.23544 -0.9116,6.875 -1.9077,15.875 -2.2136,20 l -0.5562,7.5 5.6036,7.49707 c 6.7664,9.05295 7.0707,11.50754 1.9804,15.97685 -2.848,2.50058 -4.185,3.0427 -6.25,2.53411 -4.5778,-1.12751 -8.4519,-3.9402 -10.5724,-7.67585 -1.13,-1.99066 -2.9153,-4.82516 -3.9674,-6.29889 -1.6988,-2.3796 -1.7929,-3.32491 -0.8405,-8.44608 1.1373,-6.11578 -0.07,-15.10891 -2.6823,-19.97436 -1.4119,-2.6302 -1.1157,-5.08604 1.8832,-15.61285 2.8553,-10.02235 2.653,-22.93175 -0.5216,-33.29312 -0.2891,-0.94361 -0.9047,-1.02101 -2.2774,-0.28635 -1.2983,0.69485 -2.0957,2.62375 -2.5735,6.2256 -0.3808,2.87034 -2.4188,8.8492 -4.529,13.28634 -6.7999,14.29848 -7.3133,15.91821 -8.1033,25.56753 -2.4994,30.52487 -2.5896,27.30794 0.9141,32.59748 1.7287,2.60997 3.1432,5.14828 3.1432,5.64069 0,0.4924 1.125,2.37022 2.5,4.17294 3.184,4.17442 3.3032,8.91292 0.2775,11.03219 -2.131,1.49263 -8.8297,1.91686 -13.2775,0.84087 z m 11.25,-2.91446 c 1.6483,-0.44172 2.25,-1.34547 2.25,-3.37935 0,-1.52701 -0.6581,-3.02893 -1.4625,-3.3376 -0.8044,-0.30866 -2.8114,-3.16931 -4.4601,-6.35698 -1.6487,-3.18768 -3.9598,-7.25828 -5.1357,-9.04578 -1.176,-1.7875 -1.6564,-3.25 -1.0677,-3.25 0.6484,0 0.9963,-2.06966 0.8826,-5.25 -0.1033,-2.8875 0.1949,-8.85 0.6625,-13.25 0.9337,-8.78481 -0.1581,-9.8139 -1.3956,-1.31541 l -0.774,5.31541 -0.1247,-7.23564 c -0.1093,-6.33587 0.2793,-8.02217 3.1252,-13.56075 5.9962,-11.66973 6.4751,-13.39596 5.1197,-18.45361 -0.3843,-1.434 -1.3767,-2.25555 -2.7363,-2.26531 -1.744,-0.0125 -1.8596,-0.19227 -0.6334,-0.98469 2.591,-1.67441 4.069,-1.10038 5.1498,2 1.4172,4.0653 2.2968,3.77647 3.8068,-1.25 0.7022,-2.3375 1.6742,-5.55465 2.1601,-7.14922 1.3012,-4.27098 1.2421,-4.36437 -3.2454,-5.12252 -2.2707,-0.38364 -5.6744,-1.60954 -7.5636,-2.72423 -2.2884,-1.35019 -3.7686,-1.69314 -4.4343,-1.02741 -0.5496,0.54962 -1.4565,4.32347 -2.0152,8.38634 -0.8959,6.51476 -3.5221,17.49232 -8.2887,34.64676 -1.4786,5.32128 -1.1068,10.64217 1.3442,19.24028 0.5488,1.925 1.2299,8 1.5135,13.5 0.6768,13.12071 1.909,19.28305 4.2035,21.02073 1.9204,1.45435 9.1215,1.92035 13.1193,0.84898 z m -3.5335,-2.39467 c -0.852,-1.36428 -2.3314,-1.97504 -4.784,-1.97504 -2.1124,0 -3.3002,-0.40505 -2.9325,-1 0.3399,-0.55 2.0967,-1 3.904,-1 3.6254,0 7.6454,3.35063 5.9973,4.99867 -0.6019,0.60188 -1.4045,0.22582 -2.1848,-1.02363 z m -10.5196,-11.36817 c -0.4092,-1.04122 -0.5084,-2.12872 -0.2204,-2.41666 0.912,-0.91206 1.7145,0.58256 1.3324,2.48152 -0.3503,1.74033 -0.4038,1.73721 -1.112,-0.0649 z m -4.1255,-28.92021 c -1.0004,-4.66489 -0.3377,-10.11313 1.9626,-16.13642 2.3949,-6.27115 3.7225,-5.7409 1.7519,0.69976 -0.8835,2.8875 -1.8966,8.4 -2.2515,12.25 -0.6159,6.68229 -0.6823,6.82693 -1.463,3.18666 z m 6.777,-25.15211 c 0.3584,-0.93397 0.6516,-2.06318 0.6516,-2.50935 0,-0.44617 0.675,-1.07024 1.5,-1.38683 2.4137,-0.92623 1.8203,3.11986 -0.6516,4.44278 -1.8577,0.99421 -2.0626,0.91955 -1.5,-0.5466 z m 48.1897,55.34534 c 0.4229,-1.33249 -0.2945,-3.12444 -2.2056,-5.50894 -8.8878,-11.08923 -10.5709,-16.88397 -8.0149,-27.59423 1.4558,-6.10002 2.9346,-16.53851 1.9872,-14.02672 -0.2593,0.6875 -0.8235,1.25 -1.2539,1.25 -1.1866,0 0.552,-8.13654 1.9192,-8.98152 0.6568,-0.40591 1.4505,-3.56547 1.7639,-7.02126 l 0.5697,-6.28326 -3.249,2.89302 c -2.8405,2.52926 -3.1859,3.36454 -2.747,6.64302 0.5739,4.28705 -0.7522,5.0994 -1.7613,1.07892 -0.3687,-1.46909 -1.5425,-3.77978 -2.6084,-5.13486 -2.5052,-3.18489 -2.4501,-6.93719 0.1572,-10.69406 l 2.0819,-3 -0.6735,3 c -0.3705,1.65 -0.7478,4.35 -0.8386,6 -0.2309,4.19883 3.1183,4.07471 5.8143,-0.21548 1.1114,-1.76852 2.55,-3.03286 3.197,-2.80966 1.2883,0.44444 4.3237,-7.38546 4.3237,-11.153 0,-2.37646 -1.393,-3.11301 -2.5,-1.32186 -0.3399,0.55 -3.093,1 -6.118,1 -3.4121,0 -5.2654,-0.37963 -4.882,-1 0.3399,-0.55 2.504,-1.01431 4.809,-1.0318 5.265,-0.04 7.691,-1.83043 7.691,-5.67627 l 0,-2.98758 -9.8857,0 c -15.4293,0 -17.67,-2.02867 -20.6577,-18.70282 -0.7785,-4.34415 -2.1527,-8.71321 -3.0539,-9.70902 -1.5711,-1.73607 -1.7515,-1.69757 -4.385,0.93599 -4.1578,4.15778 -6.0177,8.53234 -6.0177,14.15396 0,2.79498 -0.6782,6.70489 -1.5071,8.68869 -1.6505,3.95035 -1.2733,4.92246 3.4238,8.82231 4.1891,3.47808 6.4662,4.43528 10.5833,4.44887 4.2621,0.0141 7.7009,-2.0758 8.9552,-5.44233 0.7266,-1.95041 0.7662,-1.94551 1.5934,0.19764 0.4665,1.2087 2.2214,2.90776 3.8998,3.77568 3.7738,1.95151 4.035,3.8116 0.4074,2.90113 -2.5046,-0.62861 -2.6063,-0.51078 -1.9265,2.23095 0.3947,1.59203 1.2941,9.1946 1.9986,16.8946 0.7045,7.7 1.6195,14.7875 2.0335,15.75 0.4295,0.99886 0.3252,1.75 -0.2431,1.75 -0.5477,0 -1.2998,-1.62098 -1.6715,-3.60218 -0.8443,-4.50055 -1.1979,-4.13937 -3.1338,3.20081 -1.6045,6.08374 -1.5491,7.06863 1.0634,18.90137 0.85,3.85 1.7262,8.41848 1.947,10.15217 0.2208,1.7337 0.9274,4.13474 1.5701,5.33565 1.5196,2.83947 0.2664,4.0881 -1.5753,1.56948 -1.3923,-1.90412 -1.4182,-1.90176 -1.4182,0.12913 0,1.13777 0.7079,2.65618 1.5731,3.37423 0.8652,0.71805 2.4583,3.0408 3.5403,5.16167 1.082,2.12087 3.3469,4.69512 5.0331,5.72055 3.0034,1.82651 3.1339,1.82424 6.4153,-0.11184 1.8422,-1.08695 3.6316,-2.86496 3.9763,-3.95115 z m -17.1799,-33.62989 c 0.3409,-2.0625 0.6247,-5.23906 0.6308,-7.05902 0.01,-1.94909 0.422,-3.05502 1.011,-2.69098 1.0962,0.6775 1.3264,7.68031 0.3697,11.25 -1.0254,3.82639 -2.6871,2.58727 -2.0115,-1.5 z m 18.2252,-63.01533 c 1.6959,-0.54973 7.7709,-1.75123 13.5,-2.67001 5.7291,-0.91878 11.9916,-2.28421 13.9166,-3.03428 1.925,-0.75008 5.6013,-2.17928 8.1696,-3.176 7.8254,-3.03694 8.198,-4.60214 4.7991,-20.15977 -3.4885,-15.96753 -4.879,-19.0971 -4.9739,-11.19461 -0.082,6.79984 -2.4402,17.02324 -4.1913,18.16788 -1.7089,1.11704 -5.6773,0.19148 -8.8035,-2.05327 -3.5048,-2.51664 -9.3152,-14.58505 -9.9621,-20.69168 l -0.5379,-5.07707 -7.5,1.4561 c -4.125,0.80086 -7.659,1.59449 -7.8532,1.76364 -0.1943,0.16914 -0.7361,3.72112 -1.204,7.89329 -1.2178,10.85951 -7.5997,24.54111 -11.4474,24.54111 -2.1666,0 -9.431,-7.48863 -11.0288,-11.36921 -1.0528,-2.55697 -1.5146,-6.28761 -1.3618,-11 0.2886,-8.89612 -1.6978,-9.78345 -3.7705,-1.68434 -0.7666,2.99554 -1.5767,5.62931 -1.8002,5.85282 -0.2235,0.22351 -0.024,1.41196 0.4432,2.64102 0.4673,1.22905 1.3764,6.64693 2.0203,12.03974 1.2778,10.70159 3.118,15.70867 6.4234,17.47767 5.0666,2.71161 17.2384,2.84558 25.1624,0.27697 z m -11.2414,-24.15468 c 3.6293,-7.93966 5.7985,-19.19514 6.086,-31.57999 0.064,-2.75 0.451,-5.53141 0.8604,-6.1809 0.9871,-1.56629 0.1509,-1.96384 -5.825,-2.76926 -4.2779,-0.57657 -5.3071,-0.38008 -6.8314,1.30431 -1.7314,1.91312 -1.72,2.05789 0.3231,4.10097 1.1648,1.1648 1.8563,2.54103 1.5366,3.05828 -0.3197,0.51725 -0.1189,2.65753 0.4463,4.75618 1.3574,5.04112 -1.5941,13.04878 -6.952,18.86144 -2.7079,2.93773 -3.6909,4.78144 -3.3152,6.21804 0.5208,1.99153 8.0665,10.15094 9.3874,10.15094 0.3649,0 2.2926,-3.56401 4.2838,-7.92001 z m 42.9747,-4.07999 c 1.8304,-7.19262 1.8702,-13.82069 0.1499,-25 -2.4081,-15.64876 -2.567,-16 -7.2418,-16 -2.1037,0 -4.3519,0.52709 -4.9961,1.17132 -0.8951,0.89509 -1.646,0.56786 -3.1842,-1.38762 -4.0703,-5.17458 -9.9261,-4.05914 -10.0127,1.90728 -0.017,1.20504 -0.4818,2.4691 -1.0318,2.80902 -1.67,1.03212 -1.1201,2.5 0.9366,2.5 1.4339,0 2.0436,-0.84383 2.3484,-3.25 0.3741,-2.95356 0.4818,-3.04477 1.18,-1 0.8072,2.36396 2.0197,2.89288 2.999,1.30825 0.7928,-1.2827 7.2141,-0.78018 8.673,0.67873 0.9043,0.90434 0.8578,1.56431 -0.2,2.83889 -1.2055,1.45256 -1.0279,1.93988 1.4171,3.88946 4.0689,3.24449 4.5975,8.89661 1.5496,16.57012 -1.303,3.2805 -2.7654,5.96455 -3.2499,5.96455 -1.0802,0 -0.3518,-4.15115 1.667,-9.5 1.3576,-3.59687 1.3515,-4.17637 -0.061,-5.75 -0.8636,-0.9625 -2.3739,-1.75 -3.3562,-1.75 -0.9823,0 -2.1076,-0.52023 -2.5005,-1.15607 -0.5137,-0.83119 0.3128,-0.98937 2.941,-0.56287 4.3142,0.7001 4.5766,-0.063 0.9354,-2.72002 -2.572,-1.87676 -2.9155,-1.88554 -10.7107,-0.27367 -4.4294,0.9159 -8.2133,2.14472 -8.4086,2.73069 -0.2417,0.72489 -0.8112,0.68692 -1.7821,-0.11882 -1.7207,-1.42804 -2.017,-1.18811 -2.9057,2.35281 -0.8483,3.37984 0.1331,3.46212 10.0271,0.84067 l 7,-1.85466 0.6046,6.63097 c 0.7352,8.06529 5.551,18.32684 9.6616,20.58756 4.2243,2.3232 6.5245,1.57482 7.5505,-2.45659 z m -54.9043,-10.25 c -0.6829,-3.28702 1.1383,-3.74109 2.1551,-0.53734 0.624,1.96612 0.9039,1.71542 2.5115,-2.25 1.9525,-4.81594 2.3895,-9.67565 1.0587,-11.77402 -0.6627,-1.04508 -1.7538,-0.86331 -5.3732,0.89512 -4.2949,2.08663 -4.4958,2.36618 -3.6986,5.14601 0.4637,1.61674 0.6026,5.93893 0.3087,9.60487 l -0.5343,6.66536 2.0717,-2.5 c 1.4538,-1.75438 1.9013,-3.32018 1.5004,-5.25 z m -5.4124,-9.33333 c 0,-1.76593 -2.1528,-1.45839 -2.7708,0.39583 -0.2177,0.65313 0.3166,1.1875 1.1875,1.1875 0.8708,0 1.5833,-0.7125 1.5833,-1.58333 z m 91.4955,-3.00626 c 6.5182,-7.03328 5.1081,-28.64402 -2.2464,-34.42913 -2.707,-2.12928 -7.2607,-2.58063 -10.1946,-1.01045 -2.1941,1.17427 -4.6192,6.94351 -5.5624,13.233 l -0.6941,4.62896 4.2602,-0.9572 c 4.6593,-1.04689 6.3521,-0.24466 5.7777,2.73813 -0.2405,1.24894 -1.6925,2.09132 -4.5938,2.66506 -2.3332,0.46141 -4.2377,1.37494 -4.2323,2.03007 0.02,2.38445 4.8524,11.51572 6.647,12.5589 3.4082,1.98116 8.2561,1.32932 10.8387,-1.45734 z m -4.4955,0.32656 c 0,-0.23633 0.7555,-1.94413 1.6789,-3.79511 1.8201,-3.6484 2.3548,-13.93327 1.0447,-20.09128 -0.4271,-2.00718 -1.9118,-5.32244 -3.2995,-7.36724 -2.8281,-4.16753 -2.3043,-6.28139 0.6528,-2.63395 5.7745,7.12269 6.6394,32.12271 1.1731,33.90883 -0.6875,0.22465 -1.25,0.21508 -1.25,-0.0212 z m -82.25,-3.28774 c 5.7286,-2.67776 7.8075,-4.44923 5.2215,-4.44923 -1.9496,0 -12.9715,6.03094 -12.9715,7.09773 0,0.58791 0.3375,0.88985 0.75,0.67097 0.4125,-0.21888 3.5625,-1.71264 7,-3.31947 z m 3.25,-6.84378 c 0,-0.54781 1.2092,-2.25814 2.6871,-3.80073 1.8955,-1.97844 3.6725,-2.80472 6.0321,-2.80472 4.4615,0 10.2808,2.51827 10.2808,4.44897 0,2.03532 3.6099,2.01004 4.393,-0.0308 1.3511,-3.52094 0.6709,-5.41821 -1.9427,-5.41821 -3.897,0 -8.2283,-2.67911 -10.1315,-6.26693 l -1.715,-3.23307 -0.6094,3.53396 c -0.8417,4.8814 -2.1385,6.90607 -2.947,4.60114 -0.5553,-1.58294 -0.9044,-1.53212 -4.0534,0.58993 -3.2114,2.16421 -10.9777,11.36014 -10.989,13.01197 0,0.40535 2.02,-0.24682 4.495,-1.44926 2.475,-1.20245 4.5,-2.63448 4.5,-3.18229 z m 30.0252,1.83028 c 7.94,-1.50619 12.155,-3.58827 9.9825,-4.93099 -0.5542,-0.34253 -1.0077,-0.18397 -1.0077,0.35235 0,0.53631 -4.466,1.78591 -9.9244,2.77687 -5.4584,0.99097 -9.7068,2.15372 -9.441,2.5839 0.6436,1.04131 0.8667,1.02452 10.3906,-0.78213 z m 38.532,-6.55445 c 2.4435,-0.61529 4.4428,-1.51529 4.4428,-2 0,-1.14364 -1.6505,-1.1061 -6.1349,0.13953 -2.6777,0.74378 -5.2453,0.63399 -9.75,-0.41689 -3.3633,-0.7846 -6.1151,-1.02503 -6.1151,-0.53428 0,0.49074 1.2375,1.17254 2.75,1.51511 1.5125,0.34257 4.1,0.98556 5.75,1.42886 4.1589,1.11738 4.0901,1.11839 9.0572,-0.13233 z m 30.7091,-6.54775 c 0.4215,-0.25945 0.546,-0.82826 0.2767,-1.26401 -0.6706,-1.08499 -10.543,0.95311 -10.543,2.17653 0,0.93171 8.4973,0.17642 10.2663,-0.91252 z m -72.4663,-0.53353 c 1.5481,-1.54813 1.5791,-14.80265 0.046,-19.91787 -1.4657,-4.89222 -3.7637,-6.95268 -8.7766,-7.86935 -5.6841,-1.03942 -11.6323,1.71833 -12.5309,5.8097 -0.7621,3.4697 0.2227,10.05081 1.8003,12.0317 0.5932,0.74479 2.1009,1.74289 3.3505,2.21798 1.3255,0.50397 2.0552,1.42875 1.7516,2.21996 -0.2862,0.74588 0.6837,2.56029 2.1555,4.03201 2.0442,2.04426 3.6586,2.67587 6.8395,2.67587 2.29,0 4.7036,-0.54 5.3636,-1.2 z m 38.8559,156.54572 c -0.9331,-2.75402 -3.6107,-22.78565 -3.6364,-27.20413 -0.018,-3.16095 -0.1811,-3.31786 -2.7674,-2.66871 -1.5114,0.37933 -2.9001,0.84175 -3.0859,1.0276 -0.1859,0.18585 0.1495,4.31177 0.7451,9.16871 0.5957,4.85695 1.0707,11.08081 1.0555,13.83081 -0.047,8.46939 -1.7892,2.92716 -3.1331,-9.96557 -0.9397,-9.01512 -1.586,-11.85843 -2.7791,-12.22558 -8.9131,-2.74293 -16.4358,-9.4934 -17.6213,-15.81249 -1.2159,-6.48179 3.4727,-8.90262 22.4429,-11.58755 8.4077,-1.18998 8.9242,-1.14882 13.3559,1.0645 9.701,4.84492 15.2922,13.57988 11.4266,17.85138 -1.9187,2.12009 -6.5183,3.76636 -13.0283,4.66302 l -4.8696,0.67071 0.5226,4.67079 c 0.2875,2.56893 1.0547,9.25518 1.705,14.85832 1.2302,10.60022 1.081,15.83052 -0.3325,11.65819 z m -4.4245,-34.42313 c 3.9978,-0.59257 9.9686,-1.64948 13.2686,-2.34868 5.7897,-1.2267 5.9886,-1.37298 5.675,-4.17259 -0.4508,-4.02519 -2.1396,-5.58544 -10.5386,-9.73644 l -7.3007,-3.60822 -9.9178,1.57327 c -12.6619,2.00855 -16.4294,3.51926 -16.3825,6.56904 0.053,3.47658 2.3244,6.90009 6.608,9.96221 4.3562,3.11406 7.4712,3.40924 18.588,1.76141 z M 2676.5151,202.6698 c -1.2188,-3.1761 0.5372,-4.20059 10.6267,-6.19986 8.6372,-1.71151 10.3439,-1.8084 11.0488,-0.62722 1.9972,3.34666 -0.1435,4.2725 -17.9569,7.76615 -2.3031,0.45169 -3.2796,0.20511 -3.7186,-0.93907 z m 16.5918,-3.65476 c 7.01,-1.82061 3.7862,-2.52193 -4.75,-1.03335 -4.675,0.81525 -8.5,1.90557 -8.5,2.42293 0,0.99847 6.8018,0.28514 13.25,-1.38958 z"
       id="path3632"
       inkscape:connector-curvature="0" />
  </g>
</svg>
