<?xml version="1.0" encoding="UTF-8" standalone="no"?>
<!-- Created with Inkscape (http://www.inkscape.org/) -->

<svg
   xmlns:dc="http://purl.org/dc/elements/1.1/"
   xmlns:cc="http://creativecommons.org/ns#"
   xmlns:rdf="http://www.w3.org/1999/02/22-rdf-syntax-ns#"
   xmlns:svg="http://www.w3.org/2000/svg"
   xmlns="http://www.w3.org/2000/svg"
   xmlns:xlink="http://www.w3.org/1999/xlink"
   xmlns:sodipodi="http://sodipodi.sourceforge.net/DTD/sodipodi-0.dtd"
   xmlns:inkscape="http://www.inkscape.org/namespaces/inkscape"
   width="225.13704"
   height="177.15356"
   id="svg2"
   version="1.1"
   inkscape:version="0.48.3.1 r9886"
   sodipodi:docname="Stability-ball-abdominal-crunch-1.svg">
  <defs
     id="defs4">
    <radialGradient
       gradientUnits="userSpaceOnUse"
       gradientTransform="matrix(1,0,0,0.91819829,-19.285714,-7.9105395)"
       r="209.56604"
       fy="287.50052"
       fx="398.1105"
       cy="287.50052"
       cx="398.1105"
       id="radialGradient5255"
       xlink:href="#linearGradient5249"
       inkscape:collect="always" />
    <linearGradient
       id="linearGradient5249"
       inkscape:collect="always">
      <stop
         id="stop5251"
         offset="0"
         style="stop-color:#e3e3e3;stop-opacity:1;" />
      <stop
         id="stop5253"
         offset="1"
         style="stop-color:#e3e3e3;stop-opacity:0;" />
    </linearGradient>
  </defs>
  <sodipodi:namedview
     id="base"
     pagecolor="#ffffff"
     bordercolor="#666666"
     borderopacity="1.0"
     inkscape:pageopacity="0.0"
     inkscape:pageshadow="2"
     inkscape:zoom="1.4"
     inkscape:cx="-87.787677"
     inkscape:cy="-2.0030298"
     inkscape:document-units="px"
     inkscape:current-layer="layer1"
     showgrid="false"
     showguides="true"
     inkscape:guide-bbox="true"
     fit-margin-top="0"
     fit-margin-left="0"
     fit-margin-right="0"
     fit-margin-bottom="0"
     inkscape:window-width="1201"
     inkscape:window-height="886"
     inkscape:window-x="83"
     inkscape:window-y="39"
     inkscape:window-maximized="0">
    <sodipodi:guide
       orientation="-0.70710678,0.70710678"
       position="-3269.6312,-111.74708"
       id="guide2985" />
  </sodipodi:namedview>
  <metadata
     id="metadata7">
    <rdf:RDF>
      <cc:Work
         rdf:about="">
        <dc:format>image/svg+xml</dc:format>
        <dc:type
           rdf:resource="http://purl.org/dc/dcmitype/StillImage" />
        <dc:title></dc:title>
      </cc:Work>
    </rdf:RDF>
  </metadata>
  <g
     inkscape:label="Ebene 1"
     inkscape:groupmode="layer"
     id="layer1"
     transform="translate(-1841.0597,262.25273)">
    <path
       style="fill:#000000"
       d="m 2027.46,-88.887417 c -2.2487,-2.08404 -2.646,-3.28527 -2.646,-8 0,-5.279753 -0.1232,-5.547753 -2.5497,-5.547753 -1.4023,0 -3.8773,-0.68656 -5.5,-1.52568 -3.4804,-1.79982 -3.6632,-3.57083 -1.3044,-12.64355 1.7317,-6.6611 2.3433,-22.38379 1.0548,-27.12063 -0.7039,-2.58791 -1.0282,-2.74272 -4.4798,-2.1386 -3.3652,0.58899 -5.6494,2.21404 -6.4381,4.58018 -0.4492,1.34736 -4.668,2.19923 -11.8121,2.38512 -3.5912,0.0934 -8.7661,0.49789 -11.5,0.89879 -6.1868,0.90723 -5.0349,-0.51986 2.3556,-2.9184 3.7874,-1.22921 6.8255,-1.5413 10.5156,-1.08025 6.6199,0.82711 8.999,-1.13272 10.7222,-8.83276 1.3174,-5.88699 0.029,-16.20497 -2.4681,-19.77062 -1.1065,-1.57969 -1.485,-1.6038 -4.0761,-0.25957 -1.5709,0.81503 -4.7479,1.95818 -7.0598,2.54034 -2.312,0.58216 -5.6638,2.39213 -7.4484,4.02215 -3.7233,3.40071 -4.5997,3.24813 -2.8905,-0.50323 1.0104,-2.21744 0.9144,-2.93643 -0.6175,-4.62923 -2.9853,-3.29871 -5.7161,-2.49788 -9.8164,2.87871 -2.048,2.68553 -4.4189,6.27658 -5.2688,7.98012 -0.8498,1.70354 -1.9389,3.34072 -2.4202,3.63817 -2.0747,1.28223 5.2578,11.6069 11.1128,15.64761 1.3139,0.90676 2.0932,1.95244 1.7318,2.32373 -1.2931,1.3286 -6.6388,-2.47356 -11.449,-8.14327 -8.0665,-9.50776 -10.7876,-12.1071 -13.0618,-12.47707 -1.1903,-0.19363 -7.3851,-4.77077 -13.7664,-10.17142 -15.4047,-13.03745 -16.8361,-15.71113 -16.9607,-31.68064 -0.078,-10.04447 0.1785,-11.94299 2.0295,-15 1.1656,-1.925 2.8969,-5.89575 3.8473,-8.82388 1.7183,-5.29391 1.7152,-5.33754 -0.5512,-7.75 -1.2536,-1.33437 -2.8682,-2.42612 -3.5881,-2.42612 -1.8076,0 -6.3425,-9.26497 -6.3425,-12.95806 0,-3.4166 5.0475,-9.04194 8.1131,-9.04194 0.9991,0 2.2927,-0.88969 2.8746,-1.97708 1.5345,-2.86708 4.3008,-4.04923 10.9084,-4.66146 4.9489,-0.45854 6.7109,-0.13289 11.4744,2.12058 3.9833,1.88443 5.8063,3.37423 6.2392,5.09884 0.3529,1.40604 1.5163,2.61778 2.7509,2.86508 8.1471,1.63197 7.5333,1.00967 7.2065,7.30621 -0.2911,5.6065 -5.0742,20.5796 -7.6807,24.04385 -0.7051,0.93719 -2.5998,3.13397 -4.2104,4.88174 l -2.9283,3.17775 3.6748,4.48461 c 2.1898,2.67235 3.919,6.03541 4.2792,8.32224 0.3324,2.1107 1.4355,4.91083 2.4513,6.2225 1.0159,1.31167 1.847,3.15194 1.847,4.08948 0,0.93755 1.1126,2.21156 2.4724,2.83114 1.408,0.64153 2.755,2.32505 3.1288,3.91051 0.3611,1.53121 1.8032,4.01682 3.2047,5.52358 3.4854,3.74696 2.3814,4.26637 -2.1759,1.02378 -2.2159,-1.57663 -3.9831,-3.77863 -4.2986,-5.35635 -0.3042,-1.52095 -1.5724,-3.15139 -2.9336,-3.77162 -1.5807,-0.72019 -2.3978,-1.92744 -2.3978,-3.54251 0,-2.35716 -2.2819,-5.59287 -3.9442,-5.59287 -0.4407,0 -1.0097,-2.16825 -1.2643,-4.81834 -0.2757,-2.86881 -1.3971,-6.0817 -2.7716,-7.94082 l -2.3085,-3.12249 -3.2188,2.45511 c -3.062,2.33548 -3.1764,2.66148 -2.3479,6.69082 0.4789,2.32965 1.1468,5.67097 1.4841,7.42517 0.6012,3.12699 3.4907,5.45198 4.1855,3.36778 0.6358,-1.90765 2.1832,-1.1058 2.3017,1.19277 0.087,1.69317 0.2292,1.81691 0.5733,0.5 0.5299,-2.02745 2.385,-2.27567 4.1107,-0.55 1.7022,1.70215 1.4869,2.79939 -0.55,2.80374 -1.1852,0.002 -0.7364,0.62182 1.3909,1.91895 1.7275,1.05336 3.4415,2.40168 3.809,2.99626 1.0772,1.74296 -1.4469,1.24602 -5.0819,-1.00051 -1.8524,-1.14486 -3.368,-1.61069 -3.368,-1.03518 0,2.01389 -4.0778,3.40233 -6.6074,2.24974 -1.9544,-0.89048 -2.527,-0.75036 -3.3699,0.82468 -0.5586,1.04359 -0.744,2.60503 -0.4121,3.46988 0.3319,0.86484 0.091,1.57244 -0.535,1.57244 -2.0994,0 -2.2514,-2.82106 -0.5328,-9.89194 0.9999,-4.11391 1.4185,-8.17897 1.0106,-9.81516 -0.3828,-1.53609 -0.9371,-4.2455 -1.2316,-6.02091 -0.4736,-2.85485 -0.7642,-3.10558 -2.5143,-2.16898 -4.0011,2.14134 -2.8074,-0.007 1.7438,-3.1383 8.3562,-5.74921 15.4587,-14.69707 17.4741,-22.01416 0.6742,-2.4478 1.8763,-5.93604 2.6714,-7.75164 1.8342,-4.18857 2.6088,-9.40252 1.5895,-10.69891 -0.4325,-0.55 -3.7113,-1.96339 -7.2863,-3.14087 -5.5591,-1.83098 -7.5013,-2.01461 -13.4171,-1.2686 -4.9993,0.63044 -8.5419,0.4969 -12.7777,-0.48165 -5.7922,-1.33814 -5.8836,-1.32469 -7.8329,1.15345 -2.4263,3.0846 -2.5116,6.51615 -0.2567,10.33338 2.1183,3.58602 3.2745,3.62493 7.2909,0.24539 3.8825,-3.26692 8.4666,-3.32725 14.0574,-0.18501 2.1649,1.21671 3.9361,2.50089 3.9361,2.85374 0,0.35285 -1.1424,1.71476 -2.5386,3.02647 -1.3963,1.3117 -3.0254,4.31804 -3.6204,6.68074 -0.9228,3.66488 -1.6882,4.56589 -5.2113,6.13456 -4.7191,2.10114 -10.4498,7.58356 -11.2469,10.75953 -0.6026,2.40089 0.1328,13.23485 1.418,20.88887 1.3755,8.19182 5.5006,13.30844 16.2812,20.19445 1.42,0.90706 3.121,2.86718 3.78,4.35582 1.1251,2.54176 3.8493,3.76981 12.138,5.47154 0.8865,0.18199 3.3975,-2.27947 6.1391,-6.0178 5.0933,-6.94495 4.9394,-8.50401 -0.8391,-8.50401 -2.6333,0 -3.3,-0.40404 -3.3,-2 0,-2.06584 1.4482,-2.7018 2.4525,-1.07694 0.3137,0.50769 2.013,1.23991 3.7761,1.62716 1.7632,0.38725 3.99,1.19386 4.9485,1.79246 1.6453,1.02748 1.6471,1.19771 0.033,3.04255 -1.2786,1.46123 -0.8685,1.34379 1.6256,-0.46553 2.7236,-1.97586 4.2933,-2.35919 8.5574,-2.08981 3.9726,0.25097 6.0957,-0.18563 8.874,-1.82486 3.6441,-2.15006 7.7852,-2.39897 8.4022,-0.50503 0.1792,0.55 -1.0291,1.04822 -2.6851,1.10716 -1.656,0.0589 -3.8278,0.84644 -4.8262,1.75 -0.9984,0.90356 -3.0725,1.64284 -4.609,1.64284 -2.38,0 -2.6079,0.22393 -1.5386,1.51233 0.9547,1.15031 1.5824,1.24069 2.6225,0.37756 0.752,-0.62413 1.3673,-0.88609 1.3673,-0.58214 0,0.57911 2.799,-0.20511 9.5,-2.66172 2.6594,-0.97496 4.3975,-1.13811 5.1861,-0.48682 0.7845,0.64797 1.9481,0.57175 3.4371,-0.22514 1.4893,-0.79707 4.9793,-1.02543 10.3139,-0.67487 8.5018,0.55871 14.4833,-0.45626 9.5629,-1.62268 -1.375,-0.32595 -7.5715,-0.49002 -13.7701,-0.36458 -9.4942,0.19212 -10.9911,0.0215 -9.5,-1.08302 2.784,-2.06211 27.741,-1.25722 29.4792,0.95074 0.71,0.90181 2.973,2.17243 5.0289,2.82359 5.3794,1.70384 6.5329,4.98807 7.3883,21.03675 0.885,16.60321 0.8612,22.99854 -0.1276,34.32774 l -0.7704,8.82775 4.7538,4.8264 c 3.7227,3.77945 5.6795,4.965213 9.0207,5.466263 4.609,0.69116 8.0849,3.57785 7.1722,5.95634 -1.2433,3.23992 -5.653,4.80799 -15.9113,5.65793 -16.9625,1.40542 -19.1268,1.2572 -22.1177,-1.51467 z m 12.3606,-0.60357 c 1.9214,-0.5807 6.7239,-1.02969 10.6724,-0.99775 8.0094,0.0648 12.321,-1.1326 12.321,-3.42168 0,-1.0694 -1.0223,-1.52475 -3.4233,-1.52475 -2.2599,0 -4.5538,-0.93375 -6.75,-2.74759 -10.0719,-8.318603 -10.9241,-10.050473 -10.1847,-20.699493 1.2,-17.28462 0.5359,-44.31978 -1.1998,-48.84293 -1.314,-3.42432 -5.6934,-4.42439 -18.4422,-4.2114 -17.7258,0.29615 -17.3128,0.24379 -16.5989,2.10439 1.0961,2.85618 3.5972,15.81866 3.5981,18.64702 0,3.87017 2.7443,3.59214 8.591,-0.87072 6.5537,-5.00254 13.4098,-7.79346 13.4098,-5.45874 0,0.5063 -1.3991,1.22784 -3.1091,1.60342 -3.091,0.67891 -3.0956,0.68955 -0.7931,1.8375 3.2242,1.60741 4.2873,7.29574 2.3759,12.71301 -2.0131,5.70571 -1.8517,9.26434 0.6419,14.15212 1.7963,3.521 2.0428,5.36397 1.6335,12.21017 -0.3149,5.26684 -1.2144,9.62388 -2.5936,12.56324 -1.1614,2.475003 -2.1215,6.178933 -2.1335,8.230953 -0.018,3.06911 0.3771,3.81611 2.228,4.21106 1.2375,0.26407 3.15,0.67044 4.25,0.90305 1.1,0.23262 2.003,0.47514 2.0066,0.53894 0,0.0638 1.5786,-0.35912 3.5,-0.93982 z m -13.5795,-18.465713 c 2.4362,-1.8431 3.8464,-16.3974 1.9441,-20.06416 -2.2315,-4.30119 -2.46,-8.11615 -0.9267,-15.4699 0.9142,-4.38459 1.1699,-7.72997 0.6321,-8.26782 -0.7825,-0.78251 -10.0766,2.95329 -10.0766,4.05033 0,0.20482 0.7372,1.79807 1.6383,3.54056 1.338,2.58739 1.534,5.0989 1.0692,13.70034 -0.3273,6.05827 -1.2356,12.11148 -2.1383,14.25006 -0.863,2.04484 -1.5692,5.08234 -1.5692,6.75 0,2.84277 0.2342,3.03013 3.75,3.00032 2.0625,-0.0175 4.6172,-0.68787 5.6771,-1.48973 z m -63.0608,-49.80157 c 0.3206,-1.27771 1.774,-4.07809 3.2296,-6.22307 3.3727,-4.9699 0.1617,-2.45563 -3.7626,2.94621 -3.1656,4.35748 -3.4855,5.59996 -1.4417,5.59996 0.7654,0 1.654,-1.0454 1.9747,-2.3231 z m -10.9252,-27.2087 c 1.8652,-1.41072 1.8381,-1.4682 -0.6909,-1.4682 -1.4477,0 -2.9614,-0.53263 -3.3637,-1.18362 -0.5007,-0.81022 -0.9494,-0.5736 -1.422,0.75 -0.4671,1.30796 -0.1686,2.15356 0.9225,2.61333 2.2573,0.9512 2.3815,0.93178 4.5541,-0.71151 z m -13.8999,-43.70136 c 0.3891,-1.79676 1.5656,-4.481 2.6143,-5.96498 1.88,-2.66017 1.8792,-2.71293 -0.059,-3.75 -3.3952,-1.81707 -7.8302,-1.22764 -10.4462,1.38837 -2.4219,2.42184 -2.4254,2.45371 -0.4659,4.22703 1.9476,1.76255 1.9776,2.92553 0.2329,9.04337 l -0.6304,2.21062 4.0232,-1.94379 c 3.0984,-1.497 4.1858,-2.69469 4.7307,-5.21062 z m 15.4547,-25.57216 c 0,-0.16793 -2.5129,-1.45767 -5.5893,-2.86609 -4.4625,-2.043 -6.6835,-2.47036 -10.9845,-2.11368 -5.348,0.44349 -9.9844,3.06619 -8.8022,4.97915 0.4998,0.80866 25.3651,0.80927 25.376,6.2e-4 z m -15.9959,161.809143 c -12.7408,-0.92338 -20.1194,-3.20612 -28.5,-8.817143 -11.3663,-7.61 -17.5338,-19.22894 -17.4754,-32.92158 0.065,-15.26554 10.3445,-31.09144 24.5837,-37.84853 7.0688,-3.35444 12.3917,-4.39249 12.3917,-2.41657 0,0.55 -1.0125,1.07697 -2.25,1.17105 -1.2375,0.0941 -2.9377,0.22288 -3.7783,0.28622 -2.9696,0.22378 -13.5309,8.70169 -18.0671,14.5032 -3.0497,3.90021 -5.1841,7.97494 -6.3453,12.11357 -1.6662,5.93823 -1.6663,6.79079 0,17.83119 2.2666,15.03308 4.6767,19.1943 14.5845,25.18063 9.5919,5.795573 14.7233,6.938143 31.4356,6.999653 11.7884,0.0434 15.1006,-0.29278 20.3682,-2.06731 9.4434,-3.181243 14.2906,-5.802723 16.9585,-9.171483 3.6387,-4.59449 7.3477,-14.57275 8.1208,-21.84672 0.723,-6.80342 0.8413,-6.86318 1.4845,-0.75006 0.3897,3.70361 -0.4527,7.16526 -4.2781,17.57815 -3.4652,9.43272 -15.1228,17.014413 -30.2563,19.677663 -4.6615,0.82033 -8.7004,1.4229 -8.9754,1.33905 -0.275,-0.0839 -4.775,-0.4623 -10,-0.84098 z m 13.25,-76.666103 c -0.6875,-0.27741 -1.25,-1.14189 -1.25,-1.92105 0,-0.77917 -0.4019,-1.41667 -0.893,-1.41667 -0.4912,0 -1.152,-0.675 -1.4686,-1.5 -0.8927,-2.32623 0.5107,-1.7266 4.7782,2.04163 2.9994,2.64844 3.4678,3.43988 2,3.37942 -1.0541,-0.0434 -2.4791,-0.30592 -3.1666,-0.58333 z m -3.0062,-7.00646 c -1.8033,-0.72074 -0.4917,-2.33126 1.8986,-2.33126 1.1181,0 1.8471,0.53155 1.6284,1.1875 -0.4694,1.40829 -1.792,1.83719 -3.527,1.14376 z m 1.6934,-21.65389 c -2.8669,-2.52748 -4.4328,-5.67737 -2.8224,-5.67737 1.0192,0 7.8852,6.54642 7.8852,7.51819 0,1.20604 -2.7347,0.21173 -5.0628,-1.84082 z"
       id="path3305"
       inkscape:connector-curvature="0" />
  </g>
</svg>
