<?xml version="1.0" encoding="UTF-8" standalone="no"?>
<!-- Created with Inkscape (http://www.inkscape.org/) -->

<svg
   xmlns:dc="http://purl.org/dc/elements/1.1/"
   xmlns:cc="http://creativecommons.org/ns#"
   xmlns:rdf="http://www.w3.org/1999/02/22-rdf-syntax-ns#"
   xmlns:svg="http://www.w3.org/2000/svg"
   xmlns="http://www.w3.org/2000/svg"
   xmlns:xlink="http://www.w3.org/1999/xlink"
   xmlns:sodipodi="http://sodipodi.sourceforge.net/DTD/sodipodi-0.dtd"
   xmlns:inkscape="http://www.inkscape.org/namespaces/inkscape"
   width="225.13704"
   height="177.15356"
   id="svg2"
   version="1.1"
   inkscape:version="0.48.3.1 r9886"
   sodipodi:docname="Stability-ball-abdominal-crunch-1.svg">
  <defs
     id="defs4">
    <radialGradient
       gradientUnits="userSpaceOnUse"
       gradientTransform="matrix(1,0,0,0.91819829,-19.285714,-7.9105395)"
       r="209.56604"
       fy="287.50052"
       fx="398.1105"
       cy="287.50052"
       cx="398.1105"
       id="radialGradient5255"
       xlink:href="#linearGradient5249"
       inkscape:collect="always" />
    <linearGradient
       id="linearGradient5249"
       inkscape:collect="always">
      <stop
         id="stop5251"
         offset="0"
         style="stop-color:#e3e3e3;stop-opacity:1;" />
      <stop
         id="stop5253"
         offset="1"
         style="stop-color:#e3e3e3;stop-opacity:0;" />
    </linearGradient>
  </defs>
  <sodipodi:namedview
     id="base"
     pagecolor="#ffffff"
     bordercolor="#666666"
     borderopacity="1.0"
     inkscape:pageopacity="0.0"
     inkscape:pageshadow="2"
     inkscape:zoom="1.4"
     inkscape:cx="-87.787677"
     inkscape:cy="-2.0030298"
     inkscape:document-units="px"
     inkscape:current-layer="layer1"
     showgrid="false"
     showguides="true"
     inkscape:guide-bbox="true"
     fit-margin-top="0"
     fit-margin-left="0"
     fit-margin-right="0"
     fit-margin-bottom="0"
     inkscape:window-width="1201"
     inkscape:window-height="886"
     inkscape:window-x="83"
     inkscape:window-y="39"
     inkscape:window-maximized="0">
    <sodipodi:guide
       orientation="-0.70710678,0.70710678"
       position="-3269.6312,-111.74708"
       id="guide2985" />
  </sodipodi:namedview>
  <metadata
     id="metadata7">
    <rdf:RDF>
      <cc:Work
         rdf:about="">
        <dc:format>image/svg+xml</dc:format>
        <dc:type
           rdf:resource="http://purl.org/dc/dcmitype/StillImage" />
        <dc:title></dc:title>
      </cc:Work>
    </rdf:RDF>
  </metadata>
  <g
     inkscape:label="Ebene 1"
     inkscape:groupmode="layer"
     id="layer1"
     transform="translate(-1841.0597,262.25273)">
    <path
       style="fill:#000000"
       d="m 2028.2782,-87.338076 c -2.3603,-2.20843 -2.75,-3.3591 -2.75,-8.12076 0,-5.279754 -0.1232,-5.547754 -2.5497,-5.547754 -1.4023,0 -3.8773,-0.68656 -5.5,-1.52568 -3.1793,-1.64409 -3.858,-4.95673 -2.0109,-9.81499 2.7437,-7.21629 3.4947,-27.7208 1.1542,-31.50792 -1.2074,-1.95365 -8.1424,-0.13842 -9.3166,2.43862 -1.4307,3.14014 -2.1974,3.30182 -11.3164,2.38654 -9.0144,-0.90478 -10.8619,-0.12953 -7.7692,3.26019 1.1358,1.24478 2.6244,4.51324 3.308,7.26324 1.109,4.46074 1.0096,5.75496 -0.9219,12 -1.1907,3.85 -3.1577,8.48351 -4.3712,10.2967 -2.9106,4.34903 -11.3403,9.418414 -21.2159,12.758604 -6.9882,2.3636 -9.9972,2.76168 -23.9904,3.17388 -21.4832,0.63283 -32.2777,-1.09755 -45.0312,-7.21865 -14.3853,-6.904244 -18.4516,-12.787094 -18.4632,-26.710844 0,-5.21986 0.3629,-6.90655 1.6623,-7.63373 1.3185,-0.73786 0.8471,-1.05369 -2.25,-1.50745 -2.1548,-0.31572 -5.7556,-0.84496 -8.0017,-1.17609 -5.1586,-0.7605 -11.0864,-4.21221 -9.6687,-5.62993 0.6861,-0.68604 2.3353,-0.34073 5.0937,1.06649 4.8641,2.48147 9.6503,2.62465 17.6987,0.52945 5.6941,-1.48232 9.4262,-3.44843 6.5459,-3.44843 -0.7228,0 -3.8503,-2.16552 -6.95,-4.81227 -8.5324,-7.28561 -14.4851,-10.30387 -23.3585,-11.84374 -7.2311,-1.25484 -8.0654,-1.22269 -10.2497,0.39498 -1.3078,0.96857 -2.8083,3.42703 -3.3343,5.46325 -0.8056,3.1184 -0.6597,3.97073 0.9252,5.40498 1.0348,0.93653 1.8815,2.2922 1.8815,3.0126 0,1.55521 2.6224,3.09128 6.468,3.78862 3.5575,0.6451 4.3506,1.4676 2.5113,2.60434 -2.7932,1.7263 -10.4697,-1.43596 -11.7033,-4.82103 -0.339,-0.93045 -1.4348,-2.7585 -2.435,-4.06233 -2.8965,-3.7757 -0.7701,-10.55866 4.2374,-13.51662 1.6465,-0.97266 2.9216,-2.58043 2.9216,-3.684 0,-1.07698 1.5243,-3.62147 3.3874,-5.65441 3.1857,-3.47624 3.8053,-3.71988 10.4087,-4.093 11.6678,-0.6593 19.2457,3.08601 19.0086,9.39482 -0.1606,4.27022 -2.1807,4.01817 -2.6123,-0.32593 -0.4189,-4.21594 -4.0698,-6.39045 -11.7665,-7.00827 -9.7764,-0.78476 -12.6891,0.67671 -14.8275,7.43987 -0.6272,1.98365 -0.2542,2.24178 4.1058,2.84137 7.9363,1.09137 11.6736,2.30441 15.2664,4.95509 1.8799,1.38692 4.0826,2.52168 4.8949,2.52168 0.8124,0 2.259,0.70772 3.2148,1.5727 1.571,1.42171 2.0245,1.42446 4.7238,0.0286 4.6528,-2.40603 10.3472,-2.92515 17.9747,-1.63861 6.9505,1.17235 13.5548,0.31705 16.8822,-2.18633 0.6744,-0.50742 1.4079,-0.47392 1.7502,0.0799 0.8559,1.38493 -7.7645,6.1437 -11.1292,6.1437 -1.574,0 -5.4533,-0.675 -8.6207,-1.5 -7.2264,-1.88224 -9.5075,-1.88005 -14.0392,0.0134 -3.1895,1.33267 -4.9504,3.47448 -2.8721,3.49341 1.1984,0.0109 5.4889,6.79753 4.8999,7.75056 -0.2939,0.47555 -2.3552,1.73718 -4.5806,2.80362 -2.2255,1.06645 -4.0515,2.23927 -4.0578,2.60628 -0.01,0.36701 1.9978,1.43465 4.4536,2.37254 4.1749,1.5944 4.735,1.59728 8.6161,0.0444 2.283,-0.91348 6.2362,-3.39679 8.7849,-5.51846 9.8935,-8.23604 34.2307,-17.29763 46.6386,-17.36521 l 7.2202,-0.0393 2.2416,-7.7577 c 1.2329,-4.26674 1.9814,-8.17878 1.6633,-8.69342 -1.0135,-1.64 -17.5165,-5.21007 -24.084,-5.21007 -2.3658,0 -6.044,-0.7365 -8.1737,-1.63666 -6.6152,-2.79611 -16.469,-1.49187 -22.858,3.02547 -4.5751,3.23481 -7.5319,4.61118 -9.9059,4.61118 -2.4592,0 -6.6082,2.59831 -6.6082,4.13841 0,1.33232 -7.1407,10.05425 -7.7404,9.4545 -0.2519,-0.25184 0.8242,-2.81607 2.3912,-5.69829 3.3795,-6.21575 9.3168,-10.89462 13.8249,-10.89462 2.1246,0 3.978,-0.85632 5.6,-2.58732 4.9196,-5.25034 13.4443,-6.70993 25.0378,-4.28692 2.9626,0.61917 7.1865,1.24292 9.3865,1.38612 6.2005,0.40359 16.9503,2.32259 20.1292,3.59337 3.7673,1.50596 6.6975,1.84773 19.8611,2.31654 6.0446,0.21527 11.6696,0.0442 12.5,-0.38007 0.8303,-0.4243 2.1038,-0.55925 2.8299,-0.29988 0.9198,0.32859 0.6165,0.96833 -1,2.10967 -1.6699,1.17897 -4.7025,1.67001 -10.8202,1.75201 -4.675,0.0627 -8.9273,-0.12954 -9.4495,-0.42711 -0.5222,-0.29757 -1.8722,-0.61571 -3,-0.70697 -1.1278,-0.0913 -2.838,-0.50736 -3.8005,-0.92467 -1.4341,-0.62179 -1.7523,-0.24304 -1.7629,2.09824 -0.019,4.15177 -3.5083,14.63824 -6.3903,19.20368 -2.327,3.68618 -2.3783,4.0406 -0.7925,5.46954 0.9326,0.84037 3.0156,1.85746 4.6287,2.26021 1.6132,0.40274 4.4017,1.72888 6.1966,2.94698 2.5212,1.71089 4.3563,2.13378 8.067,1.85895 5.4077,-0.40053 10.2654,-2.04023 11.8987,-4.01632 0.9034,-1.09301 2.2553,-1.00354 7.7158,0.5106 6.4038,1.77574 6.6844,1.77622 8.5751,0.0148 3.1942,-2.97588 4.6282,-11.59927 3.1654,-19.03489 -0.6797,-3.45482 -1.7847,-7.06515 -2.4556,-8.02293 -1.0912,-1.55794 -1.5083,-1.59172 -3.9585,-0.32053 -1.5064,0.7815 -4.291,1.84949 -6.1882,2.37331 -2.7596,0.76195 -3.4493,0.66858 -3.4493,-0.46702 0,-0.78066 0.6259,-1.41939 1.3908,-1.41939 0.7649,0 3.3524,-0.89012 5.75,-1.97804 3.0776,-1.3965 3.7151,-1.98449 2.1682,-2 -3.3444,-0.0335 -3.7451,-1.86456 -0.5999,-2.74135 1.535,-0.42792 9.633,-0.77861 17.9955,-0.77932 12.8983,-0.001 15.401,0.24741 16.5,1.63837 0.7125,0.90181 2.9775,2.17243 5.0334,2.82359 5.3876,1.7064 6.5442,4.99278 7.4037,21.03675 0.882,16.4634 0.8553,22.89043 -0.1429,34.32774 l -0.7705,8.82775 4.7539,4.8264 c 3.7634,3.820944 5.6642,4.962944 9.1238,5.481744 10.9796,1.64648 8.5576,10.11827 -3.1205,10.91572 -2.742,0.18724 -9.4855,0.68282 -14.9855,1.1013 -9.844,0.749 -10.0429,0.72073 -12.75,-1.81214 z m 12.2566,-0.72433 c 1.9214,-0.5807 6.7239,-1.02969 10.6724,-0.99775 8.0094,0.0648 12.321,-1.1326 12.321,-3.42168 0,-1.0694 -1.0223,-1.52475 -3.4233,-1.52475 -2.2599,0 -4.5538,-0.93375 -6.75,-2.74759 -10.1042,-8.345284 -10.9416,-10.056554 -10.1289,-20.699494 0.8811,-11.53724 0.4142,-42.4175 -0.7041,-46.57361 -1.5427,-5.73361 -4.4447,-6.72378 -18.9937,-6.48072 -17.7258,0.29615 -17.3128,0.24379 -16.5989,2.10439 1.0961,2.85618 3.5972,15.81866 3.5981,18.64702 10e-4,3.87017 2.7443,3.59214 8.591,-0.87072 6.5537,-5.00254 13.4098,-7.79346 13.4098,-5.45874 0,0.5063 -1.3991,1.22784 -3.1091,1.60342 -3.091,0.67891 -3.0956,0.68955 -0.7931,1.8375 3.2242,1.60741 4.2872,7.29574 2.3759,12.71301 -1.8935,5.36676 -1.8661,9.26605 0.092,13.05199 1.0446,2.01992 1.6135,6.07932 1.7098,12.20034 0.1194,7.59187 -0.2328,9.94894 -2.0435,13.6732 -1.2032,2.475004 -2.1976,6.178934 -2.2097,8.230954 -0.018,3.06911 0.3772,3.81611 2.228,4.21106 1.2375,0.26407 3.15,0.67044 4.25,0.90305 1.1,0.23262 2.003,0.47514 2.0066,0.53894 0,0.0638 1.5787,-0.35912 3.5,-0.93982 z m -88.1145,-5.93187 c 10.1842,-1.16154 21.5102,-4.56323 25.7482,-7.733324 9.7418,-7.28707 13.7326,-23.96699 7.6694,-32.05482 -1.9776,-2.63799 -2.2999,-2.71274 -10.1858,-2.36297 -7.5243,0.33374 -8.4039,0.16264 -11.567,-2.25 -1.8829,-1.43616 -4.016,-2.61288 -4.7402,-2.61494 -1.1996,-0.003 -3.0911,-1.10418 -10.7241,-6.241 -7.7892,-5.24192 -32.2637,0.77994 -42.4142,10.43584 -2.2166,2.10868 -6.4495,5.01755 -9.4062,6.46417 -5.4239,2.65363 -7.1971,2.62409 -13.8012,-0.22992 -1.3435,-0.58058 -0.9829,5.16222 0.8741,13.92214 2.1316,10.05539 7.1044,14.41866 23.1549,20.316774 8.1319,2.98825 29.9041,4.11449 45.3921,2.34805 z m 74.6079,-12.585814 c 1.7761,-1.34088 1.9767,-2.5406 1.792,-10.71819 -0.1144,-5.06457 -0.3346,-11.45831 -0.4894,-14.20831 -0.1547,-2.75 0.022,-8.02906 0.3929,-11.73124 0.3941,-3.93453 0.2817,-6.97385 -0.2706,-7.31517 -0.8522,-0.52673 -9.9249,3.37965 -9.9249,4.27333 0,0.20482 0.7372,1.79807 1.6383,3.54056 1.338,2.58739 1.534,5.0989 1.0692,13.70034 -0.3273,6.05827 -1.2356,12.11148 -2.1383,14.25006 -0.863,2.04484 -1.5692,5.08234 -1.5692,6.75 0,2.84277 0.2342,3.03013 3.75,3.00032 2.0625,-0.0175 4.65,-0.71126 5.75,-1.5417 z m -73.2598,-43.6765 c 1.4697,-2.24926 1.468,-2.25007 -5.135,-2.45142 l -6.6052,-0.20143 5,2.44228 c 2.75,1.34326 5.0608,2.4464 5.135,2.45143 0.074,0.005 0.7966,-1.00336 1.6052,-2.24086 z m 63.2598,-22.35563 c 12.5602,-0.14741 13.3048,-0.23202 11.5908,-1.31709 -2.293,-1.45161 -25.0908,-1.13483 -25.0908,0.34865 0,1.92963 1.244,2.71253 2.9478,1.85517 0.8537,-0.42961 5.6022,-0.82863 10.5522,-0.88673 z m -123.438,14.60563 c -0.029,-2.43784 3.4849,-9.34821 5.8029,-11.41054 3.41,-3.03391 3.6633,-1.04746 0.3971,3.11443 -1.6385,2.08786 -3.6998,5.14611 -4.5805,6.79611 -0.8808,1.65 -1.6096,2.325 -1.6195,1.5 z m 9.2227,-3.94339 c 1.0852,-2.87499 1.2709,-2.94188 7.9911,-2.87865 4.9794,0.0469 7.0308,0.45751 7.4257,1.48652 0.7975,2.07835 -0.5247,2.92703 -2.5701,1.64964 -1.4313,-0.89382 -2.0214,-0.71986 -3.0285,0.8927 -1.2384,1.98309 -1.2753,1.97987 -3.7295,-0.32577 -2.0946,-1.96773 -2.6232,-2.10022 -3.4108,-0.85485 -0.5126,0.81059 -0.9389,1.8113 -0.9473,2.2238 -0.01,0.4125 -0.6512,0.75 -1.4284,0.75 -1.1491,0 -1.2056,-0.54999 -0.3022,-2.94339 z m 20.7153,-3.05661 c 2.0414,-2.86687 4,-3.93153 4,-2.17431 0,1.00782 -4.3342,5.17431 -5.3825,5.17431 -0.4145,0 0.2076,-1.35 1.3825,-3 z m -4,-2.83333 c 0,-1.74167 0.4586,-3.16667 1.019,-3.16667 0.605,0 0.751,1.11746 0.3594,2.75 -0.9419,3.92599 -1.3784,4.05794 -1.3784,0.41667 z m 15.2106,1.29885 c -0.7092,-0.80604 -2.2842,-1.46837 -3.5,-1.47184 -1.4053,-0.004 -2.8312,-1.09703 -3.9143,-3.00034 -0.937,-1.6467 -2.8495,-3.51609 -4.25,-4.15419 -2.2253,-1.01391 -3.5202,-2.83915 -2.0142,-2.83915 1.9016,0 8.3011,3.49215 9.9679,5.43943 2.7786,3.24614 7.6329,4.67886 11.722,3.4597 2.499,-0.74507 4.5256,-0.56235 8.528,0.76886 2.8875,0.9604 5.25,2.15307 5.25,2.65039 0,1.09133 -7.0126,-0.0947 -8.6737,-1.46696 -1.0338,-0.85405 -5.2464,-0.19299 -10.6388,1.66948 -0.6531,0.22557 -1.7677,-0.24935 -2.4769,-1.05538 z m -24.6889,-1.6236 c 0.947,-3.1024 3.4269,-5.84192 5.2883,-5.84192 1.3136,0 1.3072,0.21744 -0.052,1.75 -0.8535,0.9625 -1.7159,2.64483 -1.9165,3.73852 -0.2006,1.09368 -1.1905,2.14754 -2.1998,2.34192 -1.5065,0.29013 -1.7071,-0.0659 -1.1202,-1.98852 z"
       id="path3307"
       inkscape:connector-curvature="0" />
  </g>
</svg>
