<?xml version="1.0" encoding="UTF-8" standalone="no"?>
<!-- Created with Inkscape (http://www.inkscape.org/) -->

<svg
   xmlns:dc="http://purl.org/dc/elements/1.1/"
   xmlns:cc="http://creativecommons.org/ns#"
   xmlns:rdf="http://www.w3.org/1999/02/22-rdf-syntax-ns#"
   xmlns:svg="http://www.w3.org/2000/svg"
   xmlns="http://www.w3.org/2000/svg"
   xmlns:sodipodi="http://sodipodi.sourceforge.net/DTD/sodipodi-0.dtd"
   xmlns:inkscape="http://www.inkscape.org/namespaces/inkscape"
   width="97.182617"
   height="243.94652"
   id="svg2"
   version="1.1"
   inkscape:version="0.48.3.1 r9886"
   sodipodi:docname="Spider-curl-2.svg">
  <defs
     id="defs4" />
  <sodipodi:namedview
     id="base"
     pagecolor="#ffffff"
     bordercolor="#666666"
     borderopacity="1.0"
     inkscape:pageopacity="0.0"
     inkscape:pageshadow="2"
     inkscape:zoom="2.8"
     inkscape:cx="8.1942913"
     inkscape:cy="156.36826"
     inkscape:document-units="px"
     inkscape:current-layer="layer1"
     showgrid="false"
     fit-margin-top="0"
     fit-margin-left="0"
     fit-margin-right="0"
     fit-margin-bottom="0"
     inkscape:window-width="898"
     inkscape:window-height="738"
     inkscape:window-x="65"
     inkscape:window-y="138"
     inkscape:window-maximized="0" />
  <metadata
     id="metadata7">
    <rdf:RDF>
      <cc:Work
         rdf:about="">
        <dc:format>image/svg+xml</dc:format>
        <dc:type
           rdf:resource="http://purl.org/dc/dcmitype/StillImage" />
        <dc:title></dc:title>
      </cc:Work>
    </rdf:RDF>
  </metadata>
  <g
     inkscape:label="Ebene 1"
     inkscape:groupmode="layer"
     id="layer1"
     transform="translate(-2709.1952,-110.43332)">
    <path
       style="fill:#000000"
       d="m 2793.6519,349.81371 c -10.1133,-4.11634 -11.629,-4.48071 -14.3564,-3.45123 -6.4684,2.44154 -10.5281,-3.7009 -9.4434,-14.28809 0.6432,-6.27802 0.5951,-6.46753 -1.6427,-6.46753 -3.6693,0 -6.7504,-2.73618 -6.7504,-5.99465 0,-1.58468 0.6907,-5.85934 1.5348,-9.49925 1.7693,-7.62887 1.266,-11.86456 -2.2409,-18.86058 -2.1434,-4.27584 -2.4057,-6.00421 -2.2005,-14.5 0.2679,-11.0883 -1.5222,-19.17286 -5.6145,-25.35676 -2.702,-4.08304 -4.5381,-4.10062 -5.1049,-0.0489 -1.1477,8.20539 -1.6891,10.24915 -3.5066,13.23778 -3.6562,6.01217 -5.8674,14.74957 -5.8674,23.18475 0,4.46639 -0.6016,9.34162 -1.3837,11.21345 -2.066,4.94476 -2.8862,14.50074 -1.6978,19.78091 0.9576,4.25415 6.5933,14.8982 8.2936,15.66396 0.3917,0.1764 1.6617,1.85708 2.8222,3.73485 2.391,3.86859 1.8901,7.44444 -1.0427,7.44444 -1.0304,0 -2.1517,0.45 -2.4916,1 -0.3399,0.55 -3.0319,1 -5.9823,1 -4.312,0 -5.9678,-0.50782 -8.441,-2.58889 -1.9007,-1.59935 -3.0767,-3.52947 -3.0767,-5.04966 0,-1.35343 -0.6521,-3.72171 -1.449,-5.26286 -1.6324,-3.15665 -1.6931,-3.69572 -1.5828,-14.05707 0.046,-4.32929 -0.8093,-11.30445 -2.0389,-16.62542 l -2.1183,-9.16694 2.1717,-7.37458 c 1.1944,-4.05602 2.5631,-10.44562 3.0415,-14.19912 0.4785,-3.75349 1.351,-8.28217 1.9389,-10.06373 1.1803,-3.57628 1.2149,-16.83979 0.042,-16.11493 -0.4059,0.25082 -1.5307,-0.41996 -2.4996,-1.49063 -1.6773,-1.85335 -1.6782,-2.1226 -0.02,-5.61704 1.9982,-4.21083 1.3271,-7.47131 -3.5954,-17.46909 -3.533,-7.17581 -5.8902,-16.33155 -5.8902,-22.879 0,-3.11638 -0.8772,-7.20939 -2.2082,-10.30333 -2.3569,-5.47874 -2.5231,-7.95363 -1.326,-19.73771 0.8296,-8.16586 3.9594,-14.32534 8.2792,-16.2936 1.2673,-0.5774 3.2115,-2.51799 4.3205,-4.31242 1.109,-1.79444 3.348,-3.85202 4.9755,-4.57241 2.918,-1.29163 3.0839,-1.73394 3.2147,-8.57157 0.018,-0.9625 -0.7066,-3.42305 -1.6111,-5.46788 -2.1021,-4.75218 -2.1087,-11.67454 -0.014,-14.66525 3.6889,-5.26659 15.1702,-6.92425 19.8566,-2.86687 4.0197,3.4802 5.9081,13.91123 4.0992,22.64277 -1.5115,7.29565 -1.364,8.10723 1.4725,8.10723 1.0676,0 1.941,0.50625 1.941,1.125 0,0.71667 -1.0889,0.90722 -3,0.525 -2.2809,-0.45618 -3,-0.23559 -3,0.92031 0,1.20865 0.7688,1.38366 3.75,0.85371 4.6739,-0.83083 3.2992,1.0388 -1.5087,2.052 -2.996,0.63136 -3.3045,0.45846 -3.8266,-2.14465 -0.4522,-2.25477 -1.1565,-2.87355 -3.4581,-3.03851 -4.417,-0.31656 -8.7362,-2.97722 -10.6488,-6.55979 l -1.726,-3.23307 -0.6643,4.5 c -0.3653,2.475 -0.4815,4.81834 -0.2582,5.20741 0.2234,0.38908 -1.0442,1.4574 -2.8168,2.37406 -4.1022,2.12129 -15.7908,14.22468 -16.3161,16.895 -2.3551,11.97181 -2.3822,20.20424 -0.082,25.02717 1.0481,2.198 2.2551,7.59636 2.6822,11.99636 1.0765,11.09027 2.053,15.04145 5.5652,22.51857 1.6744,3.56479 3.5442,7.71893 4.1551,9.23143 1.3864,3.43255 3.1536,3.57265 3.1536,0.25 0,-3.18407 3.3811,-6.67472 5.6295,-5.81192 1.3324,0.51128 1.2207,0.0283 -0.5463,-2.36163 -2.4337,-3.29179 -4.0202,-8.88573 -4.0631,-14.32645 -0.015,-1.925 -0.9906,-5.075 -2.1677,-7 -1.9553,-3.19779 -2.208,-3.32731 -2.926,-1.5 -0.5067,1.28952 -0.8086,1.46714 -0.85,0.5 -0.035,-0.825 0.6081,-2.78894 1.4298,-4.36431 2.0387,-3.90908 1.9784,-15.79786 -0.1005,-19.81805 -0.9513,-1.83971 -1.2093,-3.33199 -0.6395,-3.70034 1.9752,-1.27705 4.2338,-7.16256 4.2338,-11.03246 0,-4.08313 -2.0066,-6.35008 -4.75,-5.36638 -0.6875,0.24651 -1.25,-0.0393 -1.25,-0.63513 0,-1.94581 5.8506,-1.23101 6.9648,0.85093 1.1948,2.23256 1.2516,7.6551 0.1106,10.56574 -0.6226,1.58821 -0.1043,2.46327 2.5172,4.25 1.8157,1.2375 3.9586,2.25 4.7621,2.25 1.7947,0 11.8674,-5.06441 12.88,-6.47592 1.1079,-1.54435 0.91,-5.97939 -0.3218,-7.21121 -0.7442,-0.74413 -0.7595,-1.28961 -0.049,-1.72887 0.5974,-0.36922 1.5451,1.04988 2.2318,3.34181 1.0088,3.36687 0.943,4.36583 -0.4246,6.45302 -0.8899,1.35822 -2.6425,2.79051 -3.8947,3.18289 -1.2521,0.39237 -3.3498,1.5515 -4.6615,2.57584 -3.2401,2.53033 -6.9486,2.33963 -11.2424,-0.57811 -4.371,-2.97012 -6.4364,-1.8661 -4.2715,2.28319 1.6373,3.13803 1.8854,16.37968 0.3603,19.22932 -0.8093,1.51215 -0.5043,2.87721 1.3817,6.18426 1.4948,2.62116 2.6517,6.64307 3.0258,10.51886 0.7024,7.27894 2.8163,11.97324 5.9334,13.17635 2.4303,0.93806 1.3457,1.71991 -3.3024,2.3807 -1.8509,0.26313 -2.5827,1.05018 -2.8183,3.03119 l -0.3183,2.67579 4.0683,-2.12052 c 2.2376,-1.16629 4.0683,-2.55165 4.0683,-3.07857 0,-0.52693 0.5045,-0.64628 1.121,-0.26521 1.5008,0.92751 -4.091,6.12857 -7.5121,6.98721 -1.4273,0.35823 -2.3241,1.08979 -1.9929,1.62568 0.3312,0.5359 1.7221,0.69326 3.091,0.34971 1.7621,-0.44226 2.3655,-0.25499 2.0667,0.64139 -0.2321,0.69632 -1.5136,1.52416 -2.8478,1.83966 -2.055,0.48592 -2.1584,0.67644 -0.6759,1.24619 1.9057,0.73243 2.4061,2.73535 0.6833,2.73535 -0.5867,0 -2.5374,-1.12174 -4.3349,-2.49276 l -3.2682,-2.49276 -1.3449,2.51297 c -0.9634,1.80006 -1.0384,2.81948 -0.2644,3.59342 0.7739,0.77394 1.2696,0.48452 1.7472,-1.02021 0.9075,-2.85957 2.5319,-2.65644 2.5319,0.31663 0,1.94021 0.8796,2.75323 4.4569,4.11939 7.2963,2.7865 15.5431,0.33407 15.5431,-4.62224 0,-3.07219 2.7842,-5.91444 5.7936,-5.91444 1.8894,0 4.9898,-3.54995 3.9812,-4.55854 -1.0426,-1.04255 -7.602,1.7899 -8.0421,3.47265 -0.7339,2.80638 -5.1599,5.2702 -10.4971,5.84341 -6.1479,0.66027 -4.6674,-0.94835 2.0778,-2.25752 4.3435,-0.84303 5.3067,-1.44235 6.1364,-3.81807 1.2488,-3.57596 -0.9095,-7.81244 -4.4648,-8.7638 -1.4382,-0.38483 0.629,-0.6669 4.907,-0.66959 7.2457,-0.005 19.108,-2.83795 19.108,-4.56408 0,-0.44877 -0.4865,-1.7249 -1.081,-2.83585 -1.867,-3.48844 -0.1281,-3.24042 2.0234,0.28861 1.1276,1.84953 2.0518,2.90474 2.0539,2.34491 0,-0.55982 -1.2208,-2.80982 -2.7174,-5 -2.2282,-3.26098 -2.7652,-5.2498 -2.9652,-10.98213 -0.1726,-4.9469 0.01,-6.26675 0.6214,-4.5 0.476,1.375 0.9104,3.96932 0.9652,5.76515 0.1334,4.36846 5.7458,14.30788 7.6636,13.57195 0.8139,-0.31231 1.4348,0.0369 1.433,0.80591 0,0.8887 -4.328,2.53149 -12.5358,4.7604 -11.5331,3.13196 -14.4789,4.41207 -13.1686,5.72245 0.2711,0.27103 6.2355,-0.99641 13.2543,-2.81653 9.5379,-2.47337 12.8784,-3.7514 13.224,-5.05933 0.5897,-2.23135 1.8258,-2.24354 2.6766,-0.0264 0.4162,1.08456 0,2.2036 -1.109,3.0182 -1.5365,1.12351 -1.3124,1.21467 1.6956,0.68985 1.9063,-0.33261 3.9994,-0.76552 4.6514,-0.96203 0.652,-0.19651 1.3377,0.0997 1.5239,0.65829 0.5873,1.76198 5.7923,-3.16426 5.7589,-5.45051 -0.059,-4.03096 -2.4588,-5.99557 -6.4169,-5.25303 -1.9532,0.36643 -3.5513,1.1224 -3.5513,1.67994 0,0.55754 -0.4807,0.71663 -1.0682,0.35354 -0.5875,-0.3631 -0.8434,-1.24591 -0.5687,-1.96182 0.2748,-0.71591 -0.1302,-2.13289 -0.9,-3.14885 -0.7697,-1.01596 -1.4138,-3.2757 -1.4313,-5.02164 -0.017,-1.74594 -1.3273,-6.47094 -2.9108,-10.5 -2.4235,-6.16666 -2.8,-8.31358 -2.3801,-13.57101 0.2856,-3.57568 -0.045,-8.27789 -0.7733,-11 -0.6996,-2.615 -1.3597,-7.28997 -1.4667,-10.38881 -0.2442,-7.06569 -3.3548,-12.47882 -8.4034,-14.62342 -1.9786,-0.84052 -3.0562,-1.71932 -2.3946,-1.9529 0.6616,-0.23358 3.1968,0.45734 5.6339,1.53536 3.9003,1.72531 4.6365,2.57885 6.1472,7.12713 1.0864,3.2707 1.4803,6.42465 1.0734,8.59357 -0.3535,1.88457 -0.2031,4.24802 0.3343,5.25211 0.5374,1.00409 1.2817,6.9729 1.6541,13.26402 0.5127,8.66208 1.1582,12.27961 2.6593,14.90422 1.1474,2.00637 1.9983,5.37517 2.0204,8 0.021,2.49379 0.7581,5.78363 1.6377,7.31076 1.4687,2.54969 1.9473,2.72441 5.8566,2.13818 3.4143,-0.51201 4.3819,-0.31338 4.8871,1.00322 0.4158,1.08353 1.2859,1.43342 2.5595,1.02919 4.3485,-1.38015 6.6442,4.5362 2.5836,6.65836 -1.2375,0.64674 -3.375,2.41152 -4.75,3.92172 -1.4575,1.60078 -4.5046,3.27099 -7.307,4.0052 -4.4375,1.16258 -5.0301,1.09445 -7.7095,-0.88654 -1.5964,-1.18024 -3.1457,-2.1459 -3.443,-2.1459 -1.2091,0 -0.4346,4.84297 0.9595,6 1.8239,1.51369 1.9546,3.88862 0.25,4.54162 -0.9577,0.36686 -1.0655,2.7567 -0.4611,10.21862 0.9022,11.13902 0.9451,12.36825 0.7409,21.23976 -0.1648,7.15959 0.7799,26.73128 1.5242,31.58015 0.5906,3.84683 11.3177,15.41985 14.2928,15.41985 2.9467,0 7.6326,4.30825 6.8642,6.31082 -0.682,1.77712 -7.4666,4.99749 -9.1581,4.34695 -0.6717,-0.25832 -1.0545,1.99311 -1.0573,6.21866 0,3.64296 -0.357,7.33015 -0.788,8.19376 -0.6358,1.27406 1.1479,2.33215 9.4579,5.6104 5.6328,2.22212 10.4124,4.55304 10.6213,5.17981 0.5418,1.62529 -0.037,1.4574 -12.5939,-3.65355 z m -52.6929,-6.20685 c 0,-1.16636 -1.1677,-1.45883 -5.25,-1.31491 -2.8875,0.10181 -5.25,-0.19226 -5.25,-0.65348 0,-0.46122 2.3625,-1.03058 5.25,-1.26524 4.2444,-0.34494 5.5128,-0.0761 6.622,1.40348 1.5736,2.09911 4.128,2.44439 4.128,0.55799 0,-0.69968 -1.2637,-2.83718 -2.8083,-4.75 -4.3536,-5.3915 -8.927,-13.36178 -10.1084,-17.61652 -1.6488,-5.93798 -1.2891,-13.82585 0.9167,-20.10164 1.1,-3.1297 1.9841,-7.73096 1.9646,-10.22502 -0.035,-4.43589 -0.067,-4.48021 -1.4646,-2.03466 -0.786,1.375 -1.452,4.075 -1.4799,6 -0.054,3.69785 -1.4003,6.81181 -2.3097,5.3405 -0.8143,-1.31763 1.0051,-9.88956 2.8607,-13.47793 0.9001,-1.74065 2.5342,-5.90931 3.6312,-9.26369 1.0971,-3.35439 3.2584,-8.79888 4.8029,-12.09888 1.5445,-3.3 3.0946,-7.68264 3.4448,-9.73919 l 0.6366,-3.73919 -5.8555,0.61201 c -4.3883,0.45868 -6.6417,0.20542 -8.9936,-1.01081 -1.726,-0.89255 -3.3769,-1.62282 -3.6687,-1.62282 -0.2918,0 -0.248,2.06167 0.097,4.58148 0.4114,3.00161 0.011,7.05873 -1.1609,11.76529 -1.6786,6.74066 -1.6892,7.6728 -0.1724,15.11051 1.7379,8.52229 1.5944,10.88243 -0.3108,5.10972 -0.6475,-1.96185 -1.5749,-3.567 -2.0609,-3.567 -1.0923,0 -3.9612,9.40889 -3.9612,12.99111 0,1.44546 0.9547,6.40353 2.1216,11.01794 1.5537,6.14399 1.9589,9.94631 1.5139,14.20441 -0.4967,4.75197 -0.1534,7.02163 1.8784,12.41961 1.3673,3.63278 2.4861,7.42596 2.4861,8.42929 0,2.84129 3.9669,5.04524 8.5,4.72246 2.7623,-0.19669 4,-0.74896 4,-1.78482 z m -14.5,-18.49064 c 0,-1.45903 3.1433,-6.50936 4.0514,-6.50936 1.118,0 -1.4704,5.52288 -3.0443,6.4956 -0.5539,0.34234 -1.0071,0.34853 -1.0071,0.0138 z m 6,-51.50936 c 0,-0.55 0.9,-1 2,-1 1.1,0 2,0.45 2,1 0,0.55 -0.9,1 -2,1 -1.1,0 -2,-0.45 -2,-1 z m -2,-7.25531 c 0,-1.72944 0.8714,-2.52806 3.7373,-3.42506 3.9403,-1.23329 5.3045,-0.52582 5.1684,2.68037 -0.043,1.02165 -0.2244,1.10137 -0.568,0.25 -0.7633,-1.8918 -4.0895,-1.49819 -6.3377,0.75 -2,2 -2,2 -2,-0.25531 z m 49.1713,76.60032 c 3.8143,-3.45195 0.9566,-15.34501 -3.6872,-15.34501 -4.2907,0 -5.9476,9.86972 -2.4115,14.36514 2.4117,3.06598 3.5852,3.25453 6.0987,0.97987 z m 5.8287,-7.76917 c 0,-4.76659 -2.9821,-9.63058 -5.8226,-9.49689 -1.0733,0.0505 -1.2196,0.26313 -0.4064,0.59034 2.1269,0.85574 4.229,5.99549 4.229,10.34007 0,2.48447 0.3953,3.86436 1,3.49064 0.55,-0.33992 1,-2.55579 1,-4.92416 z m 7.5527,-10.20231 c 1.9445,-1.27408 2.2353,-1.92405 1.3423,-3 -0.6269,-0.75544 -1.8723,-1.38948 -2.7674,-1.40897 -2.8571,-0.0622 -5.841,-2.30299 -11.7186,-8.80003 l -5.7315,-6.33547 -0.936,-13.16453 c -1.2861,-18.08943 -1.2893,-18.27307 -0.4634,-26.16453 0.4783,-4.57004 0.3572,-7.52071 -0.3489,-8.5 -0.8267,-1.14672 -1.2023,-1.2014 -1.5946,-0.23214 -1.013,2.50273 -3.6672,4.37842 -5.5129,3.89578 -1.6224,-0.42429 -1.8055,-0.0581 -1.3359,2.67235 0.6777,3.9405 3.7962,26.76812 6.1016,44.66401 1.9362,15.03022 2.6222,16.29926 8.3327,15.41473 2.4053,-0.37257 4.2361,-0.0498 5.5799,0.98357 2.6107,2.00771 5.9647,1.99853 9.0527,-0.0248 z m -23.2023,-4.11363 c -0.3783,-1.50705 -1.2868,-3.33919 -2.0191,-4.07143 -1.5566,-1.55664 -1.7828,-5.87103 -0.3331,-6.35514 1.1974,-0.39987 -2.7856,-32.68967 -4.2659,-34.58333 -0.5375,-0.6875 -1.4245,-1.25 -1.9712,-1.25 -1.5758,0 0.195,12.99352 2.345,17.20805 2.2157,4.34311 2.4271,10.87586 0.7157,22.11874 -1.298,8.52747 -0.8492,9.62553 3.9473,9.6579 1.9759,0.0133 2.1802,-0.33864 1.5813,-2.72479 z m -8.4555,-63.77734 c -0.9332,-7.13332 -1.6799,-9.81777 -2.8312,-10.17917 -4.7174,-1.48085 -7.0637,-2.65393 -7.0637,-3.5317 0,-0.54212 0.7168,-0.7106 1.5929,-0.37441 0.8761,0.33619 2.7116,0.89201 4.0788,1.23517 2.2614,0.56757 2.4562,0.36475 2.1571,-2.24572 -0.3963,-3.45882 -2.9025,-4.22368 -6.378,-1.94647 -2.9669,1.94404 -3.2048,5.60776 -0.4747,7.31273 2.7382,1.71003 8.0031,11.17977 8.0145,14.41522 0,1.46752 0.29,3.39943 0.6329,4.29313 1.3734,3.57896 1.4749,0.2202 0.2714,-8.97878 z m 8.0838,-0.91797 c 0.6236,-1.88948 1.5395,-3.57698 2.0354,-3.75 0.4958,-0.17303 0.6339,-2.88887 0.3068,-6.03522 l -0.5946,-5.72064 -2.6132,1.83944 c -1.4372,1.01169 -3.6134,2.14992 -4.8359,2.52939 -2.005,0.62233 -2.1648,1.14978 -1.6303,5.3812 1.1132,8.81416 5.2505,12.06217 7.3318,5.75583 z m -1.6501,-15.65883 c 4.7149,-3.12306 5.4984,-4.27662 3.6714,-5.40576 -0.55,-0.33992 -1,-1.7468 -1,-3.1264 0,-1.90818 -0.4187,-2.3916 -1.75,-2.02033 -0.9625,0.26842 -2.875,0.80939 -4.25,1.20216 -1.375,0.39277 -2.8306,1.21598 -3.2347,1.82935 -1.5236,2.31281 -0.6084,10.61522 1.1702,10.61522 0.3969,0 2.8238,-1.39241 5.3931,-3.09424 z m 15.1714,-10.90576 c 2,-0.85943 2,-0.85943 0,-0.9144 -1.1,-0.0302 -2.675,0.38124 -3.5,0.9144 -1.3333,0.86167 -1.3333,0.96327 0,0.9144 0.825,-0.0302 2.4,-0.44171 3.5,-0.9144 z m 13.5,-9 c 0,-0.55 -0.675,-1 -1.5,-1 -0.825,0 -1.5,0.45 -1.5,1 0,0.55 0.675,1 1.5,1 0.825,0 1.5,-0.45 1.5,-1 z m -44.6577,-86.61988 c 1.0235,-7.14455 -0.6298,-15.8807 -3.6202,-19.13012 -3.6019,-3.91378 -15.0593,-2.22545 -17.6416,2.5996 -1.3681,2.55639 -1.4103,8.1504 -0.061,8.1504 0.5785,0 0.7566,1.04569 0.4118,2.4192 -0.4711,1.87725 -0.027,2.79922 1.9818,4.11554 1.4239,0.93299 3.1511,2.86906 3.8381,4.30239 0.7948,1.65815 2.886,3.22223 5.7492,4.30009 6.3242,2.38077 8.2309,1.00171 9.3423,-6.7571 z m -4.3423,91.05821 c 0,-0.30892 2.8125,-1.86327 6.25,-3.45411 6.9605,-3.22127 5.6128,-3.78081 -3.4501,-1.43237 -3.2938,0.85352 -6.5004,1.38131 -7.1258,1.17286 -1.8688,-0.62293 8.3989,-3.74625 14.4092,-4.38314 4.667,-0.49454 5.5834,-0.33289 5.5834,0.9849 0,0.98392 -2.0988,2.40516 -5.5834,3.78096 -3.0708,1.21243 -6.0108,2.58425 -6.5333,3.04849 -1.0672,0.94822 -3.55,1.14573 -3.55,0.28241 z m -9.5337,-8.40108 c 2.4194,-2.67337 1.2871,-5.41442 -1.9787,-4.79012 -1.7425,0.33309 -2.4876,0.0329 -2.4876,-1.00238 0,-1.11554 0.6743,-1.30602 2.75,-0.77688 6.3759,1.62533 17.7471,1.70962 22.211,0.16465 5.1462,-1.78111 6.2562,-1.47618 2.8207,0.77486 -2.6529,1.73825 -15.1099,3.80082 -15.5796,2.5796 -0.5841,-1.51862 -3.9771,0.22374 -5.0588,2.59777 -0.6052,1.32839 -1.8548,2.41525 -2.7768,2.41525 -1.5347,0 -1.5263,-0.16598 0.1,-1.96275 z m 1.765,-8.05505 c -5.1436,-0.75005 -8.2313,-2.30299 -8.2313,-4.13983 0,-0.502 0.9001,-0.43103 2.0002,0.15773 5.0876,2.72279 20.4209,3.10429 26.2853,0.65399 3.1297,-1.30767 3.7145,-1.33 3.7145,-0.1418 0,1.80355 -9.0152,4.52904 -14.4315,4.36295 -2.2377,-0.0686 -6.4394,-0.47048 -9.3372,-0.89304 z m 7.4214,-4.04078 c -1.459,-1.14762 -2.6527,-2.81435 -2.6527,-3.70384 0,-1.1509 0.9062,-0.69042 3.1424,1.59686 3.6738,3.75768 3.3546,5.13096 -0.4897,2.10698 z m -2.1938,-7.00795 c -0.3625,-0.58659 -0.393,-1.33269 -0.068,-1.65799 0.3253,-0.3253 0.1838,-1.08287 -0.3143,-1.68347 -0.6329,-0.76304 0.774,-1.16585 4.6704,-1.33713 3.067,-0.13481 5.2467,0.0845 4.8439,0.48725 -0.4028,0.4028 -1.2631,0.76211 -1.9118,0.79847 -3.4318,0.19237 -6.5039,1.75306 -6.0058,3.0511 0.632,1.64707 -0.2539,1.89634 -1.2147,0.34177 z m 17.5411,-2.73267 c 0,-2.57953 -0.2597,-2.76888 -3.3094,-2.41285 -3.2635,0.381 -3.3036,0.33679 -2.8915,-3.19278 0.4252,-3.64252 2.2009,-4.07508 2.2009,-0.53615 0,2.46511 2.1864,2.4975 4.3878,0.065 2.3233,-2.5673 2.9801,-7.5981 1.8231,-13.96415 -0.9513,-5.23399 0.1151,-11.15987 2.0083,-11.15987 1.1026,0 0.9726,3.40824 -0.1738,4.55457 -0.6061,0.60609 -0.5722,3.53036 0.093,8.01035 0.8731,5.88259 0.7824,7.68959 -0.5454,10.86756 -0.876,2.09647 -1.5927,5.33181 -1.5927,7.18964 0,1.85784 -0.45,3.37788 -1,3.37788 -0.55,0 -1,-1.25964 -1,-2.7992 z m -28.5573,-0.61904 c -1.0668,-0.78003 -1.6286,-1.72919 -1.2486,-2.10924 0.8008,-0.8007 6.8059,1.64481 6.8059,2.77159 0,1.26241 -3.4947,0.84589 -5.5573,-0.66235 z m 4.5573,-3.46518 c 0,-0.48589 1.125,-1.09848 2.5,-1.36133 1.6764,-0.32047 2.5,-0.0294 2.5,0.88342 0,0.78542 -1.0576,1.36133 -2.5,1.36133 -1.375,0 -2.5,-0.39754 -2.5,-0.88342 z m -6.9898,-4.62891 c 0.9547,-1.15031 1.5825,-1.24069 2.6225,-0.37756 1.9245,1.59721 1.7301,1.88989 -1.2551,1.88989 -2.2272,0 -2.4333,-0.22794 -1.3674,-1.51233 z m 11.3421,0.47165 c -1.1812,-0.45054 -2.4452,-1.3007 -2.809,-1.88924 -0.8688,-1.40578 0.027,-1.35551 2.4143,0.13553 1.576,0.98424 2.2766,0.89243 3.8152,-0.5 1.0366,-0.93809 2.4118,-1.70561 3.0559,-1.70561 0.6442,0 1.1713,-0.45 1.1713,-1 0,-0.55 1.125,-1 2.5,-1 2,0 2.5,-0.5 2.5,-2.5 0,-1.375 -0.45,-2.5 -1,-2.5 -0.55,0 -1,-0.525 -1,-1.16667 0,-0.64166 0.301,-0.86568 0.6689,-0.49782 0.3678,0.36787 1.5068,-0.0896 2.5311,-1.01649 1.7486,-1.58244 1.9672,-1.57602 3.5811,0.10514 1.6329,1.70091 1.6106,1.75807 -0.4469,1.14249 -2.5317,-0.75744 -3.7176,0.64997 -2.8503,3.38255 0.3993,1.25802 1.7022,2.03929 3.7375,2.24105 1.7185,0.17036 3.2864,0.8038 3.4842,1.40763 0.2428,0.74108 -0.8697,0.88628 -3.423,0.44677 -2.0804,-0.35811 -4.4576,-0.34216 -5.2826,0.0354 -0.825,0.37761 -2.85,1.28216 -4.5,2.01011 -1.65,0.72795 -3.675,1.85561 -4.5,2.50591 -0.9356,0.73746 -2.3081,0.87413 -3.6477,0.36321 z m -12.7816,-3.84497 c -0.6169,-0.99818 4.4459,-2.22211 5.7804,-1.39738 1.1071,0.68426 -1.3349,2.24773 -3.5421,2.26772 -0.93,0.008 -1.9373,-0.38323 -2.2383,-0.87034 z m 13.4442,-1.80765 c 0.01,-0.44368 1.5412,-2.6067 3.4068,-4.8067 3.7229,-4.39021 6.1188,-4.27387 2.6555,0.12894 -2.4209,3.07778 -6.085,5.90496 -6.0623,4.67776 z m 10.5545,-11.63232 c -1.589,-1.16188 -1.1804,-1.31629 3.3081,-1.25 5.3924,0.0796 6.6518,0.93252 2.8725,1.94533 -3.2788,0.87869 -4.1643,0.77907 -6.1806,-0.69533 z m -10.8827,-16.78992 c -1.0679,-0.62115 -3.9455,-0.79021 -7,-0.41126 -3.7366,0.46355 -4.7673,0.35184 -3.6867,-0.39956 0.825,-0.57366 2.34,-1.04991 3.3666,-1.05833 1.8692,-0.0153 1.8954,-1.00109 0.1399,-5.26531 -0.4144,-1.00644 -0.2788,-1.75 0.3191,-1.75 0.961,0 2.5106,3.22237 2.6252,5.45901 0.063,1.23471 6.4433,2.60584 9.0492,1.94478 1.9724,-0.50033 1.9732,-0.4859 0.059,1.04443 -2.2653,1.81092 -2.4763,1.82981 -4.8722,0.43624 z"
       id="path3698"
       inkscape:connector-curvature="0" />
  </g>
</svg>
