<?xml version="1.0" encoding="UTF-8" standalone="no"?>
<!-- Created with Inkscape (http://www.inkscape.org/) -->

<svg
   xmlns:dc="http://purl.org/dc/elements/1.1/"
   xmlns:cc="http://creativecommons.org/ns#"
   xmlns:rdf="http://www.w3.org/1999/02/22-rdf-syntax-ns#"
   xmlns:svg="http://www.w3.org/2000/svg"
   xmlns="http://www.w3.org/2000/svg"
   xmlns:sodipodi="http://sodipodi.sourceforge.net/DTD/sodipodi-0.dtd"
   xmlns:inkscape="http://www.inkscape.org/namespaces/inkscape"
   width="97.182617"
   height="243.94652"
   id="svg2"
   version="1.1"
   inkscape:version="0.48.3.1 r9886"
   sodipodi:docname="Standing-biceps-curl-1.svg">
  <defs
     id="defs4" />
  <sodipodi:namedview
     id="base"
     pagecolor="#ffffff"
     bordercolor="#666666"
     borderopacity="1.0"
     inkscape:pageopacity="0.0"
     inkscape:pageshadow="2"
     inkscape:zoom="2.8"
     inkscape:cx="8.1942913"
     inkscape:cy="156.36826"
     inkscape:document-units="px"
     inkscape:current-layer="layer1"
     showgrid="false"
     fit-margin-top="0"
     fit-margin-left="0"
     fit-margin-right="0"
     fit-margin-bottom="0"
     inkscape:window-width="898"
     inkscape:window-height="738"
     inkscape:window-x="65"
     inkscape:window-y="138"
     inkscape:window-maximized="0" />
  <metadata
     id="metadata7">
    <rdf:RDF>
      <cc:Work
         rdf:about="">
        <dc:format>image/svg+xml</dc:format>
        <dc:type
           rdf:resource="http://purl.org/dc/dcmitype/StillImage" />
        <dc:title></dc:title>
      </cc:Work>
    </rdf:RDF>
  </metadata>
  <g
     inkscape:label="Ebene 1"
     inkscape:groupmode="layer"
     id="layer1"
     transform="translate(-2709.1952,-110.43332)">
    <path
       style="fill:#000000"
       d="m 2793.6211,349.65544 c -10.1133,-4.11634 -11.629,-4.48071 -14.3564,-3.45123 -6.4684,2.44154 -10.5281,-3.7009 -9.4434,-14.28809 0.6432,-6.27802 0.5951,-6.46753 -1.6427,-6.46753 -3.6693,0 -6.7504,-2.73618 -6.7504,-5.99465 0,-1.58468 0.6907,-5.85934 1.5348,-9.49925 1.7693,-7.62887 1.266,-11.86456 -2.2409,-18.86058 -2.1434,-4.27584 -2.4057,-6.00421 -2.2005,-14.5 0.2679,-11.0883 -1.5222,-19.17286 -5.6145,-25.35676 -2.702,-4.08304 -4.5381,-4.10062 -5.1049,-0.0489 -1.1477,8.20539 -1.6891,10.24915 -3.5066,13.23778 -3.6562,6.01217 -5.8674,14.74957 -5.8674,23.18475 0,4.46639 -0.6016,9.34162 -1.3837,11.21345 -2.066,4.94476 -2.8862,14.50074 -1.6978,19.78091 0.9576,4.25415 6.5933,14.8982 8.2936,15.66396 0.3917,0.1764 1.6617,1.85708 2.8222,3.73485 2.391,3.86859 1.8901,7.44444 -1.0427,7.44444 -1.0304,0 -2.1517,0.45 -2.4916,1 -0.3399,0.55 -3.032,1 -5.9823,1 -4.312,0 -5.9678,-0.50782 -8.441,-2.58889 -1.9007,-1.59935 -3.0767,-3.52947 -3.0767,-5.04966 0,-1.35343 -0.6521,-3.72171 -1.449,-5.26286 -1.6324,-3.15665 -1.6931,-3.69572 -1.5828,-14.05707 0.046,-4.32929 -0.8093,-11.30445 -2.0389,-16.62542 l -2.1183,-9.16694 2.1717,-7.37458 c 1.1944,-4.05602 2.5631,-10.44562 3.0415,-14.19912 0.4785,-3.75349 1.351,-8.28217 1.9389,-10.06373 0.588,-1.78155 1.0051,-6.18856 0.9269,-9.79334 -0.1111,-5.12629 -0.4657,-6.52847 -1.6277,-6.43627 -2.535,0.20116 -3.9534,-3.0459 -2.41,-5.5173 2.0099,-3.21829 3.6218,-14.37978 3.3448,-23.16098 -0.1793,-5.6864 0.1667,-8.38511 1.2785,-9.97251 0.8384,-1.19699 1.5244,-2.49949 1.5244,-2.89444 0,-0.39495 -3.0984,-4.05971 -6.8853,-8.14391 -6.6974,-7.22312 -6.9169,-7.62737 -8.0426,-14.8094 -0.6365,-4.06097 -1.6333,-9.53527 -2.2152,-12.16511 -1.2416,-5.61167 -0.7167,-8.30406 2.6204,-13.44255 4.3218,-6.65462 5.9262,-8.19037 10.7157,-10.25725 2.5812,-1.11388 4.9256,-2.40149 5.2098,-2.86135 1.2262,-1.98406 0.7835,-9.95769 -0.7426,-13.3752 -2.1162,-4.73913 -2.1302,-11.66611 -0.03,-14.66525 3.6889,-5.26659 15.1702,-6.92425 19.8566,-2.86687 4.0197,3.4802 5.9081,13.91123 4.0992,22.64277 -0.7529,3.63398 -1.1663,6.94473 -0.9187,7.35723 0.2476,0.4125 1.4936,0.75 2.7688,0.75 1.2752,0 2.8596,0.65198 3.521,1.44885 0.6613,0.79686 2.8539,1.95983 4.8724,2.58436 2.0185,0.62454 4.795,2.37727 6.17,3.89495 2.1917,2.41912 2.9008,2.65184 5.75,1.88704 1.7875,-0.47981 3.25,-1.5183 3.25,-2.30774 0,-2.58012 7.0805,-6.50746 11.7321,-6.50746 3.5534,0 4.2679,0.32394 4.2679,1.9349 0,4.05026 1.7861,6.9338 3.9451,6.3692 2.6337,-0.68871 2.6721,-2.3041 0.055,-2.3041 -2.3448,0 -2.6772,-1.80293 -0.4873,-2.64326 1.9499,-0.74823 4.4873,1.36128 4.4873,3.73052 0,1.97134 -3.4459,4.37321 -4.945,3.44674 -0.497,-0.30717 -1.0922,0.23452 -1.3228,1.20376 -0.2363,0.99346 -1.2133,-0.96432 -2.2396,-4.48776 -1.0421,-3.57769 -2.3831,-6.25 -3.1363,-6.25 -2.597,0 -9.4328,3.27438 -10.328,4.94719 -0.6672,1.24652 -0.3715,2.17069 1.0965,3.42764 2.9103,2.4919 1.8975,3.92953 -3.9538,5.61221 -5.624,1.61732 -6.2273,2.37726 -3.1814,4.00742 1.0944,0.58566 2.6885,2.4162 3.5426,4.06788 1.7713,3.42526 2.6954,3.19241 4.9045,-1.23586 2.1422,-4.29424 1.9624,-5.82376 -0.6867,-5.84179 -1.8194,-0.0124 -1.963,-0.20082 -0.75,-0.98469 0.825,-0.53316 2.327,-0.97627 3.3379,-0.98469 1.6072,-0.0134 1.7495,0.51807 1.1339,4.23469 -0.9384,5.6646 -2.0141,7.58717 -6.6126,11.81852 -2.1329,1.96269 -4.9988,5.08762 -6.3687,6.94428 -3.5431,4.80251 -3.0975,1.7298 0.5095,-3.5128 1.65,-2.39819 3,-5.66333 3,-7.25586 0,-3.38398 -3.1943,-6.77168 -7.3606,-7.80618 -2.6077,-0.64749 -2.7993,-0.51716 -2.1674,1.47386 0.3813,1.20129 0.2075,2.76948 -0.3863,3.48488 -0.7743,0.93296 -0.7502,2.94042 0.085,7.10011 0.8871,4.41697 0.8863,6.84018 0,10.16564 -1.7058,6.37803 -1.5111,19.40239 0.3295,22.03011 0.9139,1.30481 1.4244,4.02117 1.3103,6.97251 -0.1673,4.32907 2.6977,14.68344 5.3499,19.33493 1.9767,3.46671 2.0941,4.34532 0.7209,5.39461 -1.1904,0.90967 -1.2997,2.78745 -0.6172,10.60539 0.941,10.78013 0.9794,11.85397 0.7681,21.5 -0.1222,5.58128 1.4194,33.80008 1.861,34.06606 0.06,0.0363 2.7659,2.84883 6.0124,6.25 3.4666,3.63188 6.7451,6.18394 7.9442,6.18394 2.9466,0 7.6326,4.30825 6.8641,6.31082 -0.6819,1.77712 -7.4666,4.99749 -9.1581,4.34695 -0.6717,-0.25832 -1.0545,1.99311 -1.0572,6.21866 0,3.64296 -0.3571,7.33015 -0.788,8.19376 -0.6359,1.27406 1.1478,2.33215 9.4578,5.6104 5.6328,2.22212 10.4124,4.55304 10.6213,5.17981 0.5418,1.62529 -0.037,1.4574 -12.5939,-3.65355 z m -52.6929,-6.20685 c 0,-1.16636 -1.1677,-1.45883 -5.25,-1.31491 -2.8875,0.10181 -5.25,-0.19226 -5.25,-0.65348 0,-0.46122 2.3625,-1.03058 5.25,-1.26524 4.2444,-0.34494 5.5128,-0.0761 6.622,1.40348 1.5736,2.09911 4.128,2.44439 4.128,0.55799 0,-0.69968 -1.2638,-2.83718 -2.8083,-4.75 -4.3536,-5.3915 -8.927,-13.36178 -10.1084,-17.61652 -1.6488,-5.93798 -1.2891,-13.82585 0.9167,-20.10164 1.1,-3.1297 1.9841,-7.73096 1.9646,-10.22502 -0.035,-4.43589 -0.067,-4.48021 -1.4646,-2.03466 -0.786,1.375 -1.452,4.075 -1.4799,6 -0.054,3.69785 -1.4003,6.81181 -2.3097,5.3405 -0.8143,-1.31763 1.0051,-9.88956 2.8607,-13.47793 0.9001,-1.74065 2.5342,-5.90931 3.6312,-9.26369 1.0971,-3.35439 3.2584,-8.79888 4.8029,-12.09888 1.5445,-3.3 3.0968,-7.69397 3.4495,-9.76438 l 0.6413,-3.76438 -5.3159,0.62478 c -3.8066,0.4474 -6.4102,0.16756 -9.1701,-0.98562 -2.1198,-0.88572 -4.0157,-1.6104 -4.213,-1.6104 -0.1973,0 -0.076,2.06167 0.2692,4.58148 0.4114,3.00161 0.011,7.05873 -1.1609,11.76529 -1.6786,6.74066 -1.6892,7.6728 -0.1724,15.11051 1.7379,8.52229 1.5944,10.88243 -0.3108,5.10972 -0.6475,-1.96185 -1.5749,-3.567 -2.0609,-3.567 -1.0923,0 -3.9612,9.40889 -3.9612,12.99111 0,1.44546 0.9547,6.40353 2.1216,11.01794 1.5537,6.14399 1.9589,9.94631 1.5139,14.20441 -0.4967,4.75197 -0.1534,7.02163 1.8784,12.41961 1.3673,3.63278 2.4861,7.42596 2.4861,8.42929 0,2.84129 3.9669,5.04524 8.5,4.72246 2.7623,-0.19669 4,-0.74896 4,-1.78482 z m -14.5,-18.49064 c 0,-1.45903 3.1433,-6.50936 4.0514,-6.50936 1.118,0 -1.4704,5.52288 -3.0443,6.4956 -0.5539,0.34234 -1.0071,0.34853 -1.0071,0.0138 z m 6,-51.50936 c 0,-0.55 0.9,-1 2,-1 1.1,0 2,0.45 2,1 0,0.55 -0.9,1 -2,1 -1.1,0 -2,-0.45 -2,-1 z m -2,-7.25531 c 0,-1.72944 0.8714,-2.52806 3.7373,-3.42506 3.9403,-1.23329 5.3045,-0.52582 5.1684,2.68037 -0.043,1.02165 -0.2244,1.10137 -0.568,0.25 -0.7633,-1.8918 -4.0895,-1.49819 -6.3377,0.75 -2,2 -2,2 -2,-0.25531 z m 49.1713,76.60032 c 3.8143,-3.45195 0.9566,-15.34501 -3.6872,-15.34501 -4.2907,0 -5.9476,9.86972 -2.4115,14.36514 2.4117,3.06598 3.5852,3.25453 6.0987,0.97987 z m 5.8287,-7.76917 c 0,-4.76659 -2.9821,-9.63058 -5.8226,-9.49689 -1.0733,0.0505 -1.2196,0.26313 -0.4064,0.59034 2.1269,0.85574 4.229,5.99549 4.229,10.34007 0,2.48447 0.3953,3.86436 1,3.49064 0.55,-0.33992 1,-2.55579 1,-4.92416 z m 7.5527,-10.20231 c 3.0103,-1.97245 1.9485,-3.82328 -2.7302,-4.75902 -3.409,-0.68181 -14.796,-12.05911 -15.9728,-15.95927 -0.3577,-1.18538 -0.7059,-5.98024 -0.7739,-10.65524 -0.068,-4.675 -0.5513,-10.3 -1.0741,-12.5 -0.6115,-2.5731 -0.589,-6.9747 0.063,-12.3389 1.0047,-8.26565 0.6482,-12.1611 -1.1131,-12.1611 -0.5024,0 -1.2091,1.17774 -1.5704,2.6172 -0.9308,3.70843 2.5838,62.62272 3.8255,64.12595 0.6515,0.78885 2.3545,1.03739 4.66,0.68011 2.4604,-0.38129 4.2789,-0.0665 5.6333,0.97504 2.6106,2.00771 5.9647,1.99853 9.0526,-0.0248 z m -22.5632,-4.62353 c -0.01,-1.7875 -0.6737,-14.05 -1.4843,-27.25 -0.8106,-13.2 -1.4809,-25.6875 -1.4895,-27.75 -0.011,-2.61949 -0.4573,-3.75 -1.4805,-3.75 -1.5264,0 -3.5352,-2.93021 -3.5352,-5.15676 0,-0.70854 0.7005,-0.28812 1.5567,0.93425 0.8562,1.22238 1.8687,2.22356 2.25,2.22484 0.3813,10e-4 0.5453,-3.37372 0.3643,-7.5 -0.181,-4.12628 -0.5787,-7.50233 -0.884,-7.50233 -0.3052,0 -2.2714,0.51425 -4.3692,1.14277 -2.9473,0.88303 -4.5079,0.85546 -6.866,-0.12132 -3.1587,-1.30839 -4.4058,-3.75925 -1.3018,-2.55841 4.0495,1.56664 7.1461,1.64222 9.8615,0.24071 2.8741,-1.48342 2.8869,-1.53155 2.5605,-9.65505 -0.2651,-6.60049 -0.5792,-7.95561 -1.6401,-7.07518 -1.3264,1.1008 -15.5006,3.07742 -21.0319,2.93294 l -3,-0.0784 3,-0.90337 c 1.65,-0.49685 5.925,-1.17278 9.5,-1.50206 3.575,-0.32928 7.85,-1.0063 9.5,-1.50447 l 3,-0.90578 -0.5,-8.42563 c -0.275,-4.63409 -0.7414,-8.66577 -1.0364,-8.95929 -0.2951,-0.29352 -2.9133,0.16308 -5.8184,1.01467 -3.2896,0.96433 -7.0478,1.33293 -9.9636,0.97723 -2.5749,-0.31411 -6.5857,-0.56168 -8.913,-0.55014 -2.3273,0.0115 -5.0777,-0.43188 -6.1119,-0.98539 -3.0255,-1.61918 -5.4028,0.80574 -5.1234,5.22585 0.7948,12.56966 -0.3866,23.04618 -3.2093,28.4605 -0.8478,1.62617 -0.8771,2.57672 -0.1031,3.35066 0.7739,0.77394 1.2696,0.48452 1.7472,-1.02021 0.9075,-2.85954 2.5319,-2.65641 2.5319,0.31666 0,1.94021 0.8796,2.75323 4.4569,4.11939 7.3622,2.81167 15.5431,0.33485 15.5431,-4.7058 0,-3.33341 2.3753,-5.83088 5.5457,-5.83088 1.6585,0 2.8836,-0.92941 3.9543,-3 2.1813,-4.2181 3.8299,-3.75977 1.7986,0.5 -0.918,1.925 -2.3855,3.5 -3.2613,3.5 -4.9918,0 -7.9315,6.33595 -4.0612,8.75299 2.8142,1.7575 8.0034,11.21766 8.0145,14.61086 0.01,1.57511 0.9716,4.5759 2.1477,6.66842 2.3444,4.17131 1.9757,7.33246 -0.7339,6.29268 -1.5039,-0.57711 -1.5972,0.0503 -0.9317,6.26475 0.4068,3.79834 1.5918,8.5766 2.6334,10.61835 2.2157,4.34311 2.4271,10.87586 0.7157,22.11874 -1.297,8.52074 -0.8477,9.62539 3.9282,9.6579 1.8771,0.0128 2.2483,-0.52337 2.2395,-3.23469 z m -3.3825,-4.33179 c -0.9356,-2.43803 -0.7194,-5.41821 0.393,-5.41821 0.55,0 1,0.8632 1,1.91821 0,1.05502 0.2731,2.63002 0.607,3.5 0.3338,0.86999 0.157,1.58179 -0.393,1.58179 -0.55,0 -1.2732,-0.7118 -1.607,-1.58179 z m -20.031,-90.54117 c 0.3817,-0.61762 3.4458,-2.39697 6.809,-3.95411 6.8373,-3.16556 5.4247,-3.70576 -3.5851,-1.37108 -3.2938,0.85352 -6.5004,1.38131 -7.1258,1.17286 -1.8688,-0.62293 8.3989,-3.74625 14.4092,-4.38314 4.667,-0.49454 5.5834,-0.33289 5.5834,0.9849 0,0.98175 -2.1065,2.41505 -5.5834,3.79913 -3.0708,1.22242 -6.4709,2.81925 -7.5558,3.54849 -2.4104,1.62024 -3.8903,1.72201 -2.9515,0.20295 z m -16.576,-3.87704 c 0,-0.55 0.5795,-1 1.2878,-1 2.4772,0 8.098,-5.55217 7.4171,-7.32656 -1.0891,-2.83834 -4.7433,-2.0319 -6.011,1.32656 -0.6228,1.65 -1.4837,3 -1.9131,3 -1.0497,0 -1.0168,-0.19102 0.7693,-4.46564 1.1868,-2.84045 1.9485,-3.54931 3.25,-3.02467 0.9349,0.37688 5.2999,0.92076 9.6999,1.20863 7.2911,0.47702 11.4342,-0.0828 17,-2.2971 1.7762,-0.70665 1.8471,-0.60769 0.6335,0.88437 -1.8051,2.21928 -7.9017,3.78998 -15.1073,3.89215 -5.0889,0.0721 -5.9677,0.37853 -6.8896,2.40175 -0.5811,1.27548 -2.8567,3.23738 -5.0568,4.35978 -4.5546,2.32359 -5.0798,2.43119 -5.0798,1.04073 z m 41.1152,30.97151 c 0.4323,-0.29067 0.52,-3.1058 0.1949,-6.25584 -0.4828,-4.67805 -0.8402,-5.52063 -1.9506,-4.59906 -0.9193,0.76296 -1.3497,3.43608 -1.3291,8.25583 0.025,5.83239 0.2365,6.76414 1.1646,5.12756 0.6237,-1.1 1.4878,-2.23782 1.9202,-2.52849 z m -0.5563,-14.40419 c 1.5558,-1.14829 1.693,-1.68424 0.6911,-2.7 -0.6875,-0.69703 -1.2618,-2.41482 -1.2762,-3.81732 -0.014,-1.4025 -0.9219,-4.35 -2.0165,-6.55 -1.0947,-2.2 -1.7578,-3.1757 -1.4738,-2.16821 0.2841,1.00748 0.5165,5.16998 0.5165,9.25 0,4.08001 0.364,7.41821 0.8089,7.41821 0.4448,0 1.6824,-0.64471 2.75,-1.43268 z m -11.1786,-32.93779 c 3.7358,-1.57544 3.8572,-1.77582 3.261,-5.38294 -0.3406,-2.06063 -0.6242,-4.7117 -0.6303,-5.89128 -0.01,-1.91178 -0.3639,-2.06004 -3.261,-1.36525 -1.7875,0.42869 -4.0375,1.10444 -5,1.50168 -2.3684,0.97744 -2.2281,-0.71208 0.1842,-2.21858 1.0839,-0.67688 2.1058,-2.65111 2.3245,-4.49055 l 0.3903,-3.28261 0.81,3.29742 c 1.1877,4.83513 3.9505,3.92218 4.3426,-1.43498 0.2872,-3.92369 0.1538,-4.14198 -2.7941,-4.57464 -1.7025,-0.24989 -3.3273,-0.0794 -3.6106,0.37893 -0.7281,1.17821 -4.3969,1.03909 -4.3969,-0.16673 0,-0.55 0.9,-1 2,-1 1.398,0 2.0096,-0.67727 2.0318,-2.25 0.029,-2.08352 0.1301,-2.12051 1.3602,-0.5 0.7307,0.9625 2.2914,1.75 3.4682,1.75 1.8087,0 2.1374,-0.58025 2.1245,-3.75 -0.018,-4.35864 -1.2619,-6.81476 -2.9297,-5.78397 -1.4115,0.87232 -6.055,-0.16232 -6.055,-1.34915 0,-0.46475 1.6725,-0.79368 3.7166,-0.73094 2.8983,0.0889 3.8013,-0.30298 4.1011,-1.77991 0.3461,-1.7053 -0.045,-1.82526 -3.9291,-1.20421 -2.3724,0.37937 -4.4822,0.85847 -4.6884,1.06468 -0.3792,0.37917 -0.4746,1.22211 -2.1355,18.86278 -0.8096,8.5991 -1.3722,10.57926 -4.4951,15.82167 -1.9633,3.29582 -3.5696,6.1184 -3.5696,6.27241 0,1.00733 14.2175,-0.46007 17.3803,-1.79383 z m -11.9533,-0.10806 c -1.6919,-1.27997 -1.7207,-1.46174 -0.236,-1.48967 0.93,-0.0175 1.9876,0.44814 2.3501,1.03473 1.0894,1.76258 -0.059,2.0097 -2.1141,0.45494 z m 7.6048,-4.71245 c -0.017,-0.93004 0.4481,-1.9876 1.0347,-2.35014 1.7626,-1.08933 2.0097,0.059 0.455,2.11412 -1.28,1.69187 -1.4618,1.72067 -1.4897,0.23602 z m -2.0318,-25.97569 c 0,-0.64166 0.301,-0.86568 0.6688,-0.49782 0.3679,0.36787 1.5069,-0.0896 2.5312,-1.01649 1.7486,-1.58244 1.9672,-1.57602 3.5811,0.10515 1.6329,1.7009 1.6106,1.75806 -0.4469,1.14248 -1.1913,-0.3564 -2.4553,-0.1797 -2.8091,0.39267 -0.875,1.41587 -3.5251,1.32115 -3.5251,-0.12599 z m -11.7715,30.41667 c 3.4062,-3.87453 6.1005,-11.0288 6.8728,-18.25 0.4412,-4.125 1.3015,-11.32098 1.9118,-15.99107 1.0486,-8.02359 0.9987,-8.58097 -0.9068,-10.12394 -1.5878,-1.28575 -2.9295,-1.45634 -6.3114,-0.80248 -2.3622,0.45671 -4.8049,0.84999 -5.4283,0.87394 -0.6233,0.024 -1.3608,0.9134 -1.6388,1.97654 -0.4383,1.67615 -0.1881,1.81231 1.8833,1.02475 1.8113,-0.68865 2.3889,-0.57077 2.3889,0.48756 0,0.76768 -1.3539,1.69316 -3.0087,2.05662 -1.6548,0.36345 -2.7307,1.11067 -2.3909,1.66048 0.3398,0.54981 1.7377,0.71856 3.1066,0.37501 1.7837,-0.4477 2.368,-0.25819 2.0625,0.66897 -0.2344,0.71149 -1.4404,1.44227 -2.6801,1.62395 -2.183,0.31994 -2.1974,0.39281 -0.4577,2.31524 1.7078,1.88706 1.8298,1.89542 2.475,0.16967 1.3973,-3.73768 2.0975,1.38739 0.939,6.87373 -0.8288,3.92506 -2.1649,6.42011 -5.1197,9.56103 -2.199,2.3375 -4.207,4.25 -4.4621,4.25 -1.1431,0 -0.2606,-2.0882 2.0361,-4.81763 1.4862,-1.76629 2.5,-4.22405 2.5,-6.06095 0,-4.0382 -4.4515,-9.02434 -9.0144,-10.09717 -3.0222,-0.71058 -3.1342,-0.83314 -0.8426,-0.92189 2.7899,-0.10805 4.1803,-2.09622 3.2186,-4.60236 -0.3166,-0.825 -0.1398,-1.5 0.3927,-1.5 0.5326,0 0.7533,-1.125 0.4905,-2.5 -0.2637,-1.37915 -0.01,-2.5 0.5691,-2.5 0.5758,0 1.2108,1.0125 1.4111,2.25 0.3336,2.062 0.5498,1.94804 2.5879,-1.36379 2.0957,-3.40536 2.605,-3.65284 8.8317,-4.29078 5.3451,-0.54762 6.948,-0.36914 8.3879,0.93403 1.641,1.485 2.3319,1.44671 8.8336,-0.48958 3.8794,-1.15533 7.3686,-2.61064 7.7539,-3.23403 0.3928,-0.63558 -0.554,-2.21245 -2.1554,-3.59 -2.585,-2.22347 -3.5017,-2.41038 -9.6603,-1.96974 -3.7424,0.26777 -6.8043,0.29852 -6.8043,0.0684 0,-0.23017 1.4315,-0.91751 3.1811,-1.52742 3.1766,-1.10737 3.1776,-1.11018 0.7678,-2.00162 -1.5698,-0.58072 -2.5359,-0.52447 -2.7644,0.16094 -0.4908,1.4725 -2.1841,1.32044 -2.1865,-0.19636 0,-0.6875 -1.3361,-1.34321 -2.9668,-1.45713 -4.4848,-0.31334 -8.7999,-2.955 -10.715,-6.55979 l -1.7177,-3.23308 -0.7092,4.69972 c -0.9165,6.07433 -1.2031,6.46749 -6.5443,8.97816 -5.0829,2.38922 -11.6574,10.41511 -12.8025,15.6287 -0.5705,2.59752 -0.09,4.33292 2.4392,8.81491 3.0717,5.44279 3.3317,8.864 0.3706,4.87694 -1.403,-1.88909 -1.4487,-1.83429 -0.8352,1.00157 1.6006,7.39869 4.1233,12.71943 7.6749,16.18746 4.0932,3.99695 5.1599,3.30097 1.694,-1.10526 -3.0027,-3.81737 -1.6731,-4.30629 1.4896,-0.54771 2.6547,3.15493 3.7038,7.75063 1.4515,6.35867 -0.6451,-0.39869 -0.4192,0.35116 0.502,1.66633 1.9541,2.78984 7.2599,5.83845 10.2659,5.89859 1.1523,0.0231 2.7873,-0.74558 3.6335,-1.70808 z m -9.2285,-3.17676 c 0,-0.50972 1.35,-1.60023 3,-2.42335 3.4893,-1.7407 4.0329,-0.48678 0.7775,1.79341 -2.5264,1.76956 -3.7775,1.9782 -3.7775,0.62994 z m -3.25,-16.54277 c -0.9625,-1.32368 -1.75,-2.71464 -1.75,-3.09102 0,-1.05414 2.9882,1.66993 4.0898,3.72831 1.4207,2.65466 -0.2836,2.19044 -2.3398,-0.63729 z m -7.6051,-30.0623 c 0.2358,-1.23602 1.3017,-2.06162 2.8653,-2.21937 1.3694,-0.13816 4.8939,-0.74225 7.8323,-1.34241 5.5335,-1.13024 5.6515,-1.3285 3.664,-6.15639 -0.4144,-1.00644 -0.2788,-1.75 0.3191,-1.75 0.961,0 2.5106,3.22237 2.6252,5.459 0.064,1.25019 6.5081,2.61449 8.9244,1.88943 1.3108,-0.39331 1.6474,-0.19395 1.1182,0.66229 -0.5093,0.82407 -2.1867,1.02903 -5.1253,0.62626 -6.1607,-0.84443 -13.3475,0.25309 -12.7004,1.93953 0.3879,1.01067 -0.3432,1.18813 -3.0709,0.74549 -2.3027,-0.37368 -4.1592,-0.10016 -5.2037,0.7667 -1.4129,1.17265 -1.575,1.09208 -1.2482,-0.62053 z m 43.5608,23.28183 c -0.2383,-1.2375 -0.4333,-0.225 -0.4333,2.25 0,2.475 0.195,3.4875 0.4333,2.25 0.2384,-1.2375 0.2384,-3.2625 0,-4.5 z m -27.1349,-1.32393 c -0.3435,-1.36846 -2.0749,-3.37247 -3.8476,-4.45335 -4.9131,-2.99562 -5.1191,-2.38293 -0.7221,2.14786 2.1994,2.26632 4.0344,4.85382 4.0778,5.75 0.053,1.10129 0.2471,1.21036 0.5977,0.33651 0.2853,-0.7111 0.2377,-2.41256 -0.1058,-3.78102 z m 27.4139,-11.67607 c 0.01,-0.4125 -0.4347,-0.75 -0.9847,-0.75 -0.55,0 -0.9931,1.0125 -0.9847,2.25 0.012,1.81944 0.2008,1.96296 0.9847,0.75 0.5332,-0.825 0.9763,-1.8375 0.9847,-2.25 z m 1.4421,-4.89414 c 12.4493,-3.24208 14.6889,-4.22186 13.0232,-5.69748 -1.2509,-1.10819 -25.6766,5.96718 -26.2078,7.59162 -0.5512,1.68512 -0.5697,1.68779 13.1846,-1.89414 z m -16.0515,-21.6048 c 2.4573,-8.42434 1.195,-19.7555 -2.6737,-24.00106 -3.569,-3.91676 -15.0393,-2.22458 -17.6211,2.5996 -1.3681,2.55639 -1.4103,8.1504 -0.061,8.1504 0.5785,0 0.7566,1.04569 0.4118,2.4192 -0.4711,1.87725 -0.027,2.79922 1.9818,4.11554 1.4239,0.93299 3.1511,2.86906 3.8381,4.30239 0.7995,1.66794 2.8691,3.20737 5.7492,4.27652 4.8401,1.7967 7.4791,1.2098 8.3753,-1.86259 z m 20.8217,53.66243 c -2.7708,-2.03768 -4.174,-3.82169 -4.1293,-5.25 0.066,-2.11329 0.091,-2.11708 1.0787,-0.16349 1.2429,2.45874 7.3399,6.5 9.8066,6.5 4.019,0 13.047,-14.27048 13.047,-20.62338 0,-2.98537 3.4275,-14.37662 4.3258,-14.37662 0.4991,0 0.6076,1.0125 0.2412,2.25 -0.3664,1.2375 -1.3161,5.7791 -2.1104,10.09245 -1.7487,9.49559 -5.3125,17.0447 -10.1064,21.40755 -4.4472,4.04743 -6.8283,4.07946 -12.1532,0.16349 z m 14.814,-16.16349 c 0.019,-3.79035 1.2078,-9.73273 1.8666,-9.32708 0.9702,0.59733 0.05,11.57708 -0.9701,11.57708 -0.4991,0 -0.9026,-1.0125 -0.8965,-2.25 z"
       id="path3696"
       inkscape:connector-curvature="0" />
  </g>
</svg>
