<?xml version="1.0" encoding="UTF-8" standalone="no"?>
<!-- Created with Inkscape (http://www.inkscape.org/) -->

<svg
   xmlns:dc="http://purl.org/dc/elements/1.1/"
   xmlns:cc="http://creativecommons.org/ns#"
   xmlns:rdf="http://www.w3.org/1999/02/22-rdf-syntax-ns#"
   xmlns:svg="http://www.w3.org/2000/svg"
   xmlns="http://www.w3.org/2000/svg"
   xmlns:xlink="http://www.w3.org/1999/xlink"
   xmlns:sodipodi="http://sodipodi.sourceforge.net/DTD/sodipodi-0.dtd"
   xmlns:inkscape="http://www.inkscape.org/namespaces/inkscape"
   width="301.54398"
   height="65.752541"
   id="svg2"
   version="1.1"
   inkscape:version="0.48.3.1 r9886"
   sodipodi:docname="Supermans-1.svg"
   inkscape:export-filename="/home/christian/Dokumente/Website/opentraining/cc_exercises/Supermans-2.png"
   inkscape:export-xdpi="214.32458"
   inkscape:export-ydpi="214.32458">
  <defs
     id="defs4">
    <radialGradient
       gradientUnits="userSpaceOnUse"
       gradientTransform="matrix(1,0,0,0.91819829,-19.285714,-7.9105395)"
       r="209.56604"
       fy="287.50052"
       fx="398.1105"
       cy="287.50052"
       cx="398.1105"
       id="radialGradient5255"
       xlink:href="#linearGradient5249"
       inkscape:collect="always" />
    <linearGradient
       id="linearGradient5249"
       inkscape:collect="always">
      <stop
         id="stop5251"
         offset="0"
         style="stop-color:#e3e3e3;stop-opacity:1;" />
      <stop
         id="stop5253"
         offset="1"
         style="stop-color:#e3e3e3;stop-opacity:0;" />
    </linearGradient>
    <linearGradient
       inkscape:collect="always"
       id="linearGradient5249-1">
      <stop
         style="stop-color:#e3e3e3;stop-opacity:1;"
         offset="0"
         id="stop5251-3" />
      <stop
         style="stop-color:#e3e3e3;stop-opacity:0;"
         offset="1"
         id="stop5253-6" />
    </linearGradient>
    <radialGradient
       inkscape:collect="always"
       xlink:href="#linearGradient5249-1"
       id="radialGradient5255-4"
       cx="398.1105"
       cy="287.50052"
       fx="398.1105"
       fy="287.50052"
       r="209.56604"
       gradientTransform="matrix(1,0,0,0.91819829,-19.285714,-7.9105395)"
       gradientUnits="userSpaceOnUse" />
  </defs>
  <sodipodi:namedview
     id="base"
     pagecolor="#ffffff"
     bordercolor="#666666"
     borderopacity="1.0"
     inkscape:pageopacity="0.0"
     inkscape:pageshadow="2"
     inkscape:zoom="2.8"
     inkscape:cx="245.54603"
     inkscape:cy="5.2724066"
     inkscape:document-units="px"
     inkscape:current-layer="layer1"
     showgrid="false"
     showguides="true"
     inkscape:guide-bbox="true"
     fit-margin-top="0"
     fit-margin-left="0"
     fit-margin-right="0"
     fit-margin-bottom="0"
     inkscape:window-width="1615"
     inkscape:window-height="1026"
     inkscape:window-x="65"
     inkscape:window-y="24"
     inkscape:window-maximized="1">
    <sodipodi:guide
       orientation="-0.70710678,0.70710678"
       position="-1727.0063,517.27796"
       id="guide2985" />
  </sodipodi:namedview>
  <metadata
     id="metadata7">
    <rdf:RDF>
      <cc:Work
         rdf:about="">
        <dc:format>image/svg+xml</dc:format>
        <dc:type
           rdf:resource="http://purl.org/dc/dcmitype/StillImage" />
        <dc:title />
      </cc:Work>
    </rdf:RDF>
  </metadata>
  <g
     inkscape:label="Ebene 1"
     inkscape:groupmode="layer"
     id="layer1"
     transform="translate(-298.4348,-478.17329)">
    <path
       style="fill:#000000"
       d="m 435.20686,541.37873 c -3.78414,-0.33502 -8.69926,-1.1133 -15.43267,-2.44369 -2.71264,-0.53595 -7.50948,-1.25674 -10.65966,-1.60174 l -5.72759,-0.62728 -1.01027,-1.15639 c -0.76571,-0.87645 -1.80554,-1.47045 -4.29568,-2.45386 -3.0422,-1.20144 -3.59425,-1.3141 -7.45669,-1.52174 -4.71019,-0.25323 -6.13583,-0.73044 -9.74399,-3.26166 -1.09709,-0.76964 -2.49587,-1.59608 -3.10841,-1.83651 -0.61254,-0.24045 -1.82965,-1.09831 -2.70469,-1.90639 -2.30263,-2.12637 -3.45457,-2.71667 -6.84128,-3.50572 -4.0909,-0.95312 -8.94808,-2.65759 -11.45518,-4.01985 -2.66542,-1.44827 -7.77388,-5.16904 -11.52485,-8.39416 -3.27739,-2.81795 -5.73245,-4.20681 -8.42389,-4.76556 -2.3138,-0.48034 -3.74487,-0.23028 -5.16129,0.90187 -3.05972,2.4456 -4.27056,3.2475 -4.90462,3.24812 -0.38036,3.2e-4 -1.53524,0.4454 -2.56638,0.9889 -2.13205,1.12383 -3.4894,1.10739 -5.07029,-0.0613 -0.76412,-0.56496 -1.05199,-0.62046 -1.69603,-0.32702 -0.42664,0.1944 -1.76492,0.35344 -2.97398,0.35344 -1.82014,0 -2.39996,0.13684 -3.37054,0.7955 -1.59641,1.08336 -2.80585,1.03121 -4.00994,-0.17288 -0.88369,-0.88369 -0.95608,-1.11328 -0.82766,-2.62516 0.19348,-2.27767 2.35341,-6.79294 4.02592,-8.41606 0.81651,-0.7924 2.04577,-1.53099 3.29909,-1.98221 5.64441,-2.03217 8.56834,-3.96292 9.8592,-6.51035 0.94019,-1.85538 4.85193,-5.57318 7.13592,-6.78213 1.07321,-0.56807 2.17696,-1.37725 2.45276,-1.79817 0.58354,-0.8906 4.09756,-2.73747 5.20855,-2.73747 1.90933,0 4.05694,1.77293 5.84709,4.82699 1.70045,2.90102 3.27567,4.15194 7.10645,5.64336 5.2277,2.0353 6.07669,2.18473 13.5815,2.39052 6.73744,0.18475 6.94336,0.21068 10.41769,1.31082 3.85851,1.22182 6.28168,2.7642 9.43774,6.00729 1.7462,1.79436 4.81159,3.522 8.23368,4.64044 1.81977,0.59475 2.59612,0.68163 4.61389,0.51631 1.3343,-0.10932 4.35905,-0.28832 6.72168,-0.39778 2.36263,-0.10946 4.47461,-0.34155 4.69329,-0.51576 0.25594,-0.20388 2.69349,-0.23545 6.84128,-0.0886 6.03627,0.2137 6.63481,0.18263 9.46658,-0.49153 4.29195,-1.0218 8.17677,-0.97576 11.87594,0.14074 3.57908,1.08026 5.04397,1.83206 7.21601,3.70338 l 1.7501,1.50779 2.06829,-0.29061 c 1.34547,-0.18905 2.75649,-0.17294 4.03753,0.0461 3.95254,0.67583 9.2416,-0.67633 13.20686,-3.37636 3.04246,-2.0717 4.30644,-2.73057 6.9404,-3.6179 2.16236,-0.72845 3.23039,-1.41197 6.34626,-4.06154 2.5111,-2.13532 3.90138,-2.83459 6.84689,-3.44373 3.80553,-0.78701 14.44573,-0.0726 17.28524,1.16074 l 1.36482,0.59274 0.33698,-0.73962 c 0.23807,-0.52248 0.23505,-1.39679 -0.0105,-2.97825 -0.99073,-6.38554 2.66057,-11.15392 9.67942,-12.64069 4.02433,-0.85245 7.32068,-0.45044 10.66342,1.30047 3.01704,1.58029 4.29057,2.7609 5.38413,4.99137 1.7716,3.61332 1.6485,7.29704 -0.50062,14.98163 -0.43406,1.55202 -0.70297,2.90808 -0.59758,3.01346 0.10536,0.10539 1.17724,0.2473 2.38191,0.31537 1.74173,0.0985 3.18781,-0.11931 7.0604,-1.063 4.40522,-1.07348 5.17402,-1.17265 8.05451,-1.03897 2.63463,0.12226 3.62398,0.32513 5.73003,1.17497 4.60584,1.85855 11.52929,1.98796 16.86457,0.3152 2.7003,-0.84661 8.45347,-0.83973 11.29708,0.0134 3.99535,1.19882 7.7837,2.60413 8.02983,2.97872 0.1368,0.20816 0.17507,0.69216 0.0851,1.07555 -0.1418,0.60422 0.0379,0.75388 1.34919,1.12348 1.23895,0.34922 1.61001,0.63207 2.04994,1.56277 0.46495,0.98356 0.48289,1.3246 0.13354,2.53582 -0.34065,1.18116 -0.64779,1.53551 -1.96904,2.27185 -2.8145,1.56853 -3.43429,1.74577 -6.81576,1.94905 -1.83761,0.11046 -4.48661,0.48567 -5.88669,0.83379 -3.21531,0.79945 -4.5031,0.80025 -6.52309,0.004 -2.82691,-1.11427 -3.2356,-0.98798 -8.2721,2.55589 -2.49524,1.75577 -5.12714,3.53716 -5.84869,3.95864 -2.20957,1.29072 -8.64519,2.78256 -14.37156,3.3315 -2.41395,0.23139 -3.21735,0.46272 -4.98869,1.43637 -2.62697,1.44395 -5.3729,1.77586 -8.52126,1.02997 -3.52737,-0.83567 -4.37975,-0.86318 -6.46714,-0.20874 -3.47983,1.09103 -6.37856,0.73349 -13.49004,-1.66393 l -4.06687,-1.37102 -1.37075,1.3405 c -2.84393,2.78114 -7.04693,4.73565 -10.76103,5.00418 -1.49829,0.10832 -2.29932,0.34939 -3.06267,0.9217 -1.26539,0.94873 -3.25439,1.94682 -4.5339,2.27516 -0.52503,0.13471 -4.35478,0.22381 -8.51056,0.19796 -8.06416,-0.0502 -11.76892,0.3988 -15.53251,1.88228 -1.1675,0.46018 -2.35713,0.6289 -4.43454,0.6289 -3.54498,0 -7.52402,0.52682 -8.6658,1.14735 -0.47778,0.25967 -1.62331,0.55231 -2.54559,0.65031 -0.9223,0.098 -2.56045,0.52117 -3.64036,0.94036 -1.0799,0.41919 -2.29702,0.73916 -2.7047,0.71106 -0.40767,-0.0281 -2.17312,-0.17784 -3.92322,-0.33278 z m 6.01517,-2.00261 c 1.21917,-0.4589 2.78358,-0.7955 3.69717,-0.7955 1.79963,0 1.98722,-0.35581 0.90978,-1.72557 -1.16335,-1.47896 -1.87164,-3.83766 -1.87164,-6.23282 0,-1.68882 0.10667,-2.22398 0.44326,-2.22398 0.60635,0 0.82921,0.71076 0.83131,2.65117 0.003,2.38809 0.48036,3.67857 1.99543,5.38969 l 1.34389,1.51779 1.79069,-0.36064 1.79069,-0.36065 -0.75866,-1.31624 c -2.08135,-3.61103 -3.47005,-11.18579 -3.21645,-17.54439 0.16727,-4.19435 0.774,-6.3551 2.2906,-8.15747 0.6564,-0.7801 0.75363,-1.06777 0.4302,-1.27287 -0.55626,-0.35276 -1.44759,-0.33872 -2.82716,0.0446 -1.96956,0.54714 -3.13764,3.75367 -3.15142,8.65109 -0.007,2.51274 -0.3149,3.55657 -0.8817,2.98976 -0.10736,-0.10735 -0.2599,-1.42788 -0.33898,-2.9345 -0.14698,-2.80025 0.27772,-5.59258 1.0925,-7.18314 0.41183,-0.80396 0.37728,-0.93555 -0.51141,-1.94772 -1.97002,-2.24373 -7.32037,-4.38909 -12.54835,-5.03157 -2.62571,-0.32267 -3.19465,-0.29115 -5.80486,0.32164 -2.23615,0.525 -4.43738,0.72747 -9.68578,0.89092 -6.352,0.19781 -6.82839,0.25447 -7.35451,0.87464 -0.5686,0.67026 -1.31454,2.90735 -1.65641,4.96755 l -0.18625,1.12241 3.42178,-0.24375 c 1.88197,-0.13406 3.76089,-0.28117 4.17539,-0.32692 0.59122,-0.0652 0.88821,-0.44522 1.37815,-1.76329 0.35202,-0.94697 0.96474,-1.90303 1.40416,-2.19095 0.84068,-0.55084 1.36562,-0.37679 0.85546,0.28364 -0.58492,0.75725 -1.37068,3.11014 -1.03865,3.11014 0.17857,0 1.17566,-0.42957 2.21574,-0.9546 2.1557,-1.08819 2.635,-1.17148 2.48938,-0.43255 -0.12867,0.65288 -3.72352,2.86511 -5.29476,3.25831 -0.64466,0.16133 -2.38922,0.37924 -3.87681,0.48422 -1.48758,0.10501 -4.19089,0.4377 -6.00735,0.73932 -3.24115,0.53819 -3.31648,0.5703 -4.04521,1.7247 -1.26488,2.00368 -2.10751,5.00258 -2.27947,8.11249 -0.21453,3.87986 0.54782,6.45902 2.866,9.69634 1.93501,2.70223 1.54757,2.5613 8.64031,3.14298 2.79446,0.22919 6.42861,0.81557 9.86417,1.59164 10.65484,2.40687 15.81298,2.788 19.40977,1.43417 z m -9.7529,-1.59638 c -0.65567,-0.24081 -1.67151,-0.80347 -2.25742,-1.25037 -0.79793,-0.60861 -1.44596,-0.81254 -2.58196,-0.81254 -0.98084,0 -3.17795,-0.56206 -6.21915,-1.591 -4.0842,-1.3818 -5.0314,-1.59013 -7.2038,-1.58437 -1.37569,0.004 -3.43201,0.20293 -4.56958,0.44285 -2.1917,0.46224 -2.54559,0.42028 -2.54559,-0.30182 0,-0.75048 1.36852,-1.40706 3.36306,-1.6135 3.09398,-0.32024 7.24536,0.3632 11.78084,1.93951 4.45197,1.54727 4.52596,1.5635 5.19726,1.13865 0.36878,-0.2334 0.26641,-0.50045 -0.54695,-1.42681 -0.97999,-1.11616 -1.08182,-2.0947 -0.21797,-2.0947 0.2289,0 1.0095,0.7452 1.73469,1.65599 3.72582,4.67942 6.80753,5.76723 10.20554,3.60244 1.68043,-1.07056 3.55352,-1.46579 3.94496,-0.83241 0.0983,0.1592 -1.16339,0.94673 -2.80395,1.75009 -3.25948,1.59615 -4.97088,1.82606 -7.27998,0.97799 z m 29.81244,-1.58321 c 1.21538,-0.42884 3.79276,-1.08934 5.72758,-1.4678 3.33011,-0.65138 3.77451,-0.66664 8.32857,-0.28575 6.61305,0.55308 10.89303,0.0172 12.98126,-1.62542 0.81472,-0.64086 0.82965,-0.70217 0.31089,-1.27542 -0.801,-0.88509 -0.31948,-1.08874 1.61495,-0.68299 3.40057,0.71328 7.83419,-0.63035 10.98815,-3.33001 2.03346,-1.74057 2.14355,-2.18215 0.72225,-2.89669 -1.81227,-0.9111 -3.14355,-1.04475 -6.78576,-0.68126 -3.95102,0.39432 -6.61892,1.09501 -6.89349,1.81046 -0.1095,0.28537 0.11636,1.06693 0.50189,1.73681 0.64267,1.11665 0.65387,1.21758 0.13462,1.21311 -0.31148,-0.003 -0.73637,-0.11297 -0.94418,-0.24512 -0.58139,-0.36968 -1.11052,-2.02735 -0.90655,-2.84003 0.1821,-0.72556 0.1695,-0.72837 -3.27595,-0.72837 -3.55872,0 -5.28415,-0.34793 -5.58262,-1.12574 -0.29113,-0.75867 0.38565,-0.85194 2.08528,-0.28742 1.84997,0.61447 4.8814,0.50391 10.76236,-0.39249 1.8376,-0.2801 4.7014,-0.51406 6.36399,-0.51991 3.26068,-0.0114 5.49603,0.6181 12.2472,3.44927 3.76847,1.58036 8.58137,2.3527 11.23948,1.80369 3.67587,-0.75923 5.62751,-0.81208 8.13998,-0.2204 3.72706,0.87771 6.09053,0.49522 9.73925,-1.57615 0.43752,-0.24837 2.58537,-0.68159 4.773,-0.96271 9.16049,-1.17715 12.28045,-2.23353 16.86455,-5.71019 1.13756,-0.86275 3.27369,-2.21268 4.74692,-2.99984 2.93826,-1.56996 2.88996,-1.5679 7.26421,-0.30781 1.13367,0.3266 1.78894,0.29838 4.06712,-0.17514 1.49367,-0.31043 4.43408,-0.67181 6.53426,-0.80304 2.91635,-0.18223 3.94442,-0.36452 4.3515,-0.77157 0.33452,-0.33453 0.41954,-0.63962 0.22841,-0.81943 -0.26363,-0.24793 -6.2096,-0.69705 -8.84534,-0.66809 -0.59567,0.006 -0.8564,-0.12821 -0.76445,-0.39509 0.0768,-0.22275 0.55514,-0.37988 1.06311,-0.34916 0.50794,0.0307 2.83474,0.11644 5.17071,0.19052 2.9723,0.0942 4.32232,0.25631 4.49753,0.53981 0.32949,0.53312 2.03593,-0.006 2.1677,-0.68497 0.0754,-0.38817 -0.43553,-0.52313 -2.61424,-0.6906 -1.48933,-0.11447 -3.4291,-0.36282 -4.31065,-0.55187 -0.88151,-0.18905 -2.8553,-0.43918 -4.38615,-0.55583 -1.53085,-0.11666 -2.78339,-0.35528 -2.78339,-0.5303 0,-0.58164 2.7973,-0.52851 6.35254,0.12069 4.26978,0.77967 8.74221,1.04361 7.95717,0.46959 -0.28447,-0.20802 -1.25794,-0.47416 -2.16318,-0.59141 -0.90527,-0.11724 -2.86306,-0.48092 -4.35065,-0.80817 -1.48758,-0.32725 -3.52803,-0.6831 -4.53433,-0.7908 -1.0063,-0.10768 -1.82965,-0.34717 -1.82965,-0.53219 0,-0.40798 2.46513,-0.16748 7.58862,0.74034 1.98606,0.3519 3.6924,0.55847 3.79184,0.45905 0.0994,-0.0995 -0.0936,-0.18708 -0.42909,-0.19475 -0.33544,-0.007 -1.18265,-0.22641 -1.88269,-0.48605 -1.6974,-0.62956 -8.46807,-1.76933 -10.65967,-1.79444 -1.30062,-0.0149 -2.97596,0.39397 -6.52309,1.59197 -5.52648,1.86653 -9.72563,2.7317 -15.75085,3.24524 -5.7099,0.48666 -9.59089,1.31023 -15.90998,3.37617 -2.88765,0.94408 -5.68256,1.71681 -6.21089,1.71718 -0.52834,3.2e-4 -1.96927,-0.42313 -3.2021,-0.9411 -3.61526,-1.51898 -6.05034,-1.77972 -12.13412,-1.29928 -3.61977,0.28585 -5.32972,0.31104 -5.55889,0.0819 -0.58584,-0.58586 0.0591,-1.02283 1.50978,-1.02283 0.77719,0 1.41309,-0.0745 1.41309,-0.16542 0,-0.47338 -1.79771,-2.89606 -3.49651,-4.71209 -1.17819,-1.25949 -2.44502,-2.26669 -3.26225,-2.59368 -2.21225,-0.88517 -6.28323,-0.64141 -8.58167,0.51383 -1.41682,0.71211 -1.52414,0.72214 -1.52414,0.14262 0,-0.24792 0.39377,-0.75252 0.87503,-1.12135 l 0.87505,-0.6706 -3.74726,0.0872 c -3.1902,0.0743 -3.73366,0.0163 -3.65567,-0.39009 0.0599,-0.3118 0.64203,-0.55038 1.67898,-0.68808 2.50625,-0.33278 6.18437,-0.29797 6.86247,0.0649 0.34064,0.18231 1.9421,0.3717 3.55882,0.42088 1.6167,0.0492 3.16015,0.19023 3.42986,0.31346 0.42614,0.19471 0.4627,-0.0585 0.27906,-1.93232 -0.11621,-1.18601 -0.31269,-2.53454 -0.43659,-2.99673 -0.27713,-1.03344 0.29744,-1.49476 0.76759,-0.6163 0.18528,0.34621 0.428,1.7074 0.53937,3.02488 0.21762,2.57452 0.21702,2.57355 3.07515,4.98729 l 1.21482,1.02592 0.94283,-0.94282 0.94283,-0.94284 -1.02108,-1.9798 c -0.71849,-1.39311 -0.92121,-2.07963 -0.68416,-2.31669 0.23706,-0.23706 0.56033,0.067 1.09082,1.02624 1.38201,2.49865 5.33808,4.73394 8.37826,4.73394 1.72559,0 3.05043,-1.01396 4.14367,-3.17136 1.86354,-3.67749 3.46422,-10.86671 3.29735,-14.80966 -0.10087,-2.38409 -0.20877,-2.74766 -1.30551,-4.39908 -2.45638,-3.69865 -6.41549,-5.52165 -11.33021,-5.21703 -5.55489,0.3443 -8.66088,1.93652 -10.30712,5.28369 -0.90713,1.84443 -1.03113,2.40719 -1.02425,4.64873 0.006,1.93475 0.17593,2.91852 0.70442,4.07611 0.63157,1.38338 0.64747,1.54471 0.17036,1.72779 -0.28942,0.11107 -0.57819,0.0461 -0.64171,-0.14448 -0.0634,-0.19055 -0.93827,0.49965 -1.94391,1.53375 -1.66807,1.71529 -1.94744,1.88018 -3.18607,1.88018 -1.76357,0 -2.5886,-0.45994 -2.5886,-1.44311 0,-0.95782 0.79021,-1.04964 1.27279,-0.1479 0.443,0.82771 1.04252,0.80462 2.06638,-0.0796 0.72579,-0.62675 0.7759,-0.7883 0.40227,-1.29672 -0.3323,-0.45216 -1.09323,-0.63872 -3.43646,-0.8425 -1.65533,-0.14396 -4.1552,-0.43865 -5.55528,-0.65486 -1.92335,-0.29704 -3.17575,-0.30821 -5.12366,-0.0457 -3.97235,0.53535 -5.79169,1.36046 -8.57593,3.88939 -2.38258,2.16409 -2.98906,2.51582 -9.75175,5.65523 -1.52265,0.70684 -3.55817,1.88142 -4.5234,2.61017 -2.07764,1.56864 -4.34183,2.32916 -8.45906,2.84131 -4.33089,0.53873 -4.19469,0.48253 -5.36746,2.2146 -1.94013,2.86538 -2.40395,7.23791 -1.48805,14.02836 0.80986,6.00428 2.84154,10.95861 4.60637,11.23283 2.37441,0.36893 4.74149,0.17156 6.8454,-0.57077 z m 19.49924,-4.21912 c -0.76349,-0.84368 -1.22888,-2.30914 -0.97315,-3.06434 0.12554,-0.37066 0.23658,-1.30503 0.24676,-2.07637 0.0238,-1.79619 0.80944,-2.22872 0.82414,-0.45371 0.0114,1.36938 0.32635,1.8755 1.81953,2.92366 0.56877,0.39926 1.03414,0.85937 1.03414,1.02246 0,0.47136 -1.38162,0.34399 -2.15659,-0.19881 -1.08236,-0.75812 -0.94989,0.26548 0.13683,1.05708 0.48694,0.35471 0.74824,0.76981 0.61762,0.98115 -0.32721,0.52944 -0.96881,0.45029 -1.54928,-0.19112 z m -4.05242,-2.70411 c -0.73435,-1.20438 -0.81058,-2.41964 -0.20391,-3.24934 0.61457,-0.84046 1.21922,-0.36327 0.83158,0.65629 -0.34052,0.89567 -0.0938,1.55363 0.92981,2.48004 0.74412,0.67341 0.61829,1.14715 -0.30467,1.14715 -0.36058,0 -0.88746,-0.43489 -1.25281,-1.03414 z m -16.95654,-2.82024 c -1.65575,-0.64272 -0.79254,-1.07652 2.19031,-1.10077 2.55546,-0.0208 3.18247,-0.15791 6.31368,-1.3811 3.9218,-1.53201 6.64906,-2.00412 6.95603,-1.20414 0.27838,0.72543 -0.35372,1.0692 -2.31899,1.26125 -0.96289,0.0941 -3.03284,0.70181 -4.59988,1.3505 -3.10082,1.28359 -6.80252,1.74916 -8.54115,1.07426 z m 71.69028,-0.0619 c 0,-0.34651 0.68219,-0.75403 2.94322,-1.75829 0.61963,-0.27524 0.14198,0.9315 -0.5996,1.51486 -0.93689,0.73695 -2.34362,0.88307 -2.34362,0.24343 z m -18.77375,-1.62694 c 0,-0.25644 0.44748,-0.53936 1.03415,-0.65388 0.56878,-0.11102 1.42792,-0.27697 1.90919,-0.36876 0.74188,-0.14151 0.87505,-0.32505 0.87505,-1.20601 0,-1.26073 0.66977,-1.91495 2.44394,-2.38723 0.95025,-0.25297 1.75703,-0.25847 2.82455,-0.0193 1.83777,0.41185 2.49707,0.75246 4.10388,2.12016 0.70761,0.60232 1.76763,1.15247 2.42217,1.25714 2.1985,0.35156 2.57578,1.20865 0.52509,1.19277 -0.65448,-0.005 -1.76054,-0.48832 -3.06741,-1.34019 -2.54302,-1.65761 -3.98908,-2.10692 -5.87215,-1.82454 -1.36545,0.20476 -1.47727,0.29645 -1.79343,1.47065 -0.41713,1.54902 -1.55447,2.21113 -3.79822,2.21113 -1.17619,0 -1.60681,-0.12115 -1.60681,-0.45203 z m 24.50539,-1.53673 c 0.01,-0.99371 8.25348,-7.08266 10.66727,-7.87928 0.80884,-0.26694 1.24833,-0.25847 1.79588,0.0345 0.70097,0.37514 0.70412,0.39601 0.0951,0.62901 -0.34643,0.13255 -1.63175,0.62464 -2.85626,1.09353 -1.5374,0.5887 -2.85357,1.40944 -4.25298,2.65207 -4.18897,3.71963 -5.45976,4.5289 -5.44906,3.47009 z m -49.00675,-1.37458 c -0.61253,-0.2696 -1.52079,-0.87605 -2.01839,-1.34766 -1.04672,-0.99209 -2.4364,-3.56235 -2.4364,-4.50623 0,-1.30801 0.83143,-0.58642 1.91261,1.65997 l 1.11029,2.30695 2.38649,0.80515 c 1.31257,0.44283 2.3865,0.94399 2.3865,1.1137 0,0.51208 -2.15185,0.49155 -3.3411,-0.0319 z m 9.05561,-0.15804 c -0.2678,-0.43331 -0.39161,-0.37826 2.39957,-1.06703 3.26537,-0.8058 5.58964,-1.88101 6.56063,-3.03497 0.92831,-1.10324 2.03075,-1.29863 2.03075,-0.35991 0,1.33325 -3.8126,3.60869 -7.27687,4.34299 -2.54639,0.53974 -3.43639,0.56823 -3.71408,0.11892 z m -7.71917,-6.08826 c -0.483,-0.48299 -0.49559,-1.20915 -0.021,-1.20915 0.19846,0 0.89745,0.16077 1.55331,0.35727 0.9442,0.28289 1.4819,0.25976 2.58251,-0.11109 1.30062,-0.43823 1.38334,-0.53498 1.28575,-1.50369 -0.12216,-1.21265 0.62721,-2.1683 2.79172,-3.56031 1.34805,-0.86695 2.56285,-1.1848 2.56285,-0.67058 0,0.13156 -0.63631,0.57676 -1.41399,0.98932 -2.06349,1.09469 -2.56351,1.77749 -2.56351,3.50072 0,1.36836 -0.081,1.51611 -1.1137,2.03201 -1.30811,0.65347 -5.06941,0.77002 -5.66394,0.1755 z m -38.0354,-1.42129 c -0.4808,-0.48079 -0.10762,-0.74994 1.93572,-1.39609 1.21188,-0.38322 3.39578,-0.74671 5.01163,-0.83412 1.57508,-0.0852 3.77146,-0.44557 4.88083,-0.80083 1.36846,-0.43823 2.12117,-0.54178 2.34095,-0.322 0.87892,0.87894 -3.33385,2.28624 -6.89338,2.30277 -1.3724,0.006 -2.9143,0.24843 -3.98769,0.62601 -1.82579,0.64225 -2.92788,0.78445 -3.28806,0.42426 z m 16.33421,-3.07349 c 0,-0.78905 1.42542,-1.76188 5.66933,-3.86936 2.33055,-1.15732 5.19435,-2.71594 6.36398,-3.46358 2.25517,-1.44157 4.4566,-2.70325 8.31545,-4.76574 1.90416,-1.01775 2.71789,-1.27231 4.13659,-1.29407 2.41108,-0.037 2.49916,0.46888 0.16453,0.9451 -2.70944,0.55268 -4.46714,1.45951 -8.36126,4.31372 -1.87085,1.37126 -4.47547,2.96233 -5.78804,3.53574 -1.31257,0.57339 -4.13464,1.93745 -6.27133,3.03128 -2.13664,1.0938 -3.9623,1.98875 -4.05704,1.98875 -0.0947,0 -0.17221,-0.18983 -0.17221,-0.42184 z m 14.21292,-0.7449 c -0.11669,-0.11666 -0.21214,-0.73954 -0.21214,-1.38416 0,-1.52876 1.41643,-3.49748 3.31817,-4.61198 2.35859,-1.38223 2.37858,-0.62035 0.0454,1.73087 -1.60507,1.61747 -2.15647,2.40865 -2.30147,3.30225 -0.18529,1.14166 -0.41312,1.39981 -0.84992,0.96302 z m -1.80315,-11.5272 c 0,-0.41307 0.83843,-0.67043 2.18409,-0.67043 0.6476,0 1.96037,-0.20468 2.91732,-0.45483 2.10152,-0.54936 2.72824,-0.16546 1.2255,0.75067 -0.85722,0.52263 -1.6115,0.65661 -3.70176,0.65756 -1.44383,5.1e-4 -2.62515,-0.12668 -2.62515,-0.28297 z m -80.50979,32.00687 c -0.9735,-2.20077 -1.38618,-5.67004 -0.99074,-8.32888 0.33844,-2.27543 2.05892,-7.31651 2.61421,-7.6597 1.22415,-0.75657 -2.23573,-1.03106 -6.07286,-0.48178 -1.4346,0.20535 -2.38109,0.0903 -5.25029,-0.63812 -5.62979,-1.4293 -5.93288,-1.58675 -9.57535,-4.97391 -8.08737,-7.52052 -13.94834,-9.88912 -20.18175,-8.15606 -2.02975,0.56431 -2.57638,0.42917 -1.99961,-0.49437 0.32373,-0.51838 0.1581,-0.60854 -1.76215,-0.95938 -5.3707,-0.98126 -12.32725,-4.10301 -15.04741,-6.75251 -1.03164,-1.00485 -1.95003,-2.34414 -2.64188,-3.85268 -1.18722,-2.58864 -2.02295,-3.49162 -3.74006,-4.04113 -2.72514,-0.8721 -6.32281,1.44271 -9.78793,6.29775 -2.6071,3.65286 -3.77467,4.50449 -9.04404,6.59669 -4.47627,1.77731 -5.16802,2.38776 -7.3057,6.44719 -1.23098,2.33761 -1.49454,3.10605 -1.327,3.86887 0.14515,0.66085 0.45243,1.01296 1.00499,1.15165 0.64351,0.16151 1.05226,-0.0519 2.13455,-1.114 1.45533,-1.4283 2.61758,-1.77525 2.26913,-0.67736 -0.18488,0.58249 -0.0571,0.6364 1.50725,0.6364 1.373,0 2.01882,-0.19744 3.28299,-1.00372 2.78722,-1.77767 4.6783,-2.45857 8.60945,-3.09992 2.11785,-0.34551 4.76615,-0.86618 5.88513,-1.15703 4.44983,-1.15663 7.91715,0.0622 13.967,4.90956 5.01355,4.01706 11.54695,8.33817 14.40774,9.52913 2.61384,1.08815 6.64085,2.26952 10.5709,3.1011 2.39693,0.50718 2.6385,0.63739 4.13659,2.22958 1.91082,2.03085 8.3407,6.40173 10.34147,7.02991 2.87356,0.90218 4.53909,1.08849 6.11972,0.68453 1.44873,-0.37023 1.62367,-0.33531 4.61389,0.92124 1.70943,0.71832 3.27899,1.31751 3.48791,1.33151 0.25584,0.0172 0.18199,-0.42185 -0.22615,-1.34456 z m -7.95608,-3.41073 c -0.73621,-0.87932 -1.96666,-1.96685 -2.73433,-2.41674 -1.51311,-0.88674 -1.63827,-1.11472 -0.93322,-1.69984 0.68762,-0.57069 2.13903,0.40148 4.01775,2.69109 1.44464,1.76058 1.9782,3.02424 1.27692,3.02424 -0.15871,0 -0.89091,-0.71945 -1.62712,-1.59875 z m -13.44552,-4.95894 c -0.4534,-0.45341 -0.21093,-0.71575 1.1375,-1.23072 1.76564,-0.6743 4.7866,-0.55885 4.9285,0.18837 0.0802,0.42269 -0.31499,0.54583 -2.22443,0.69302 -1.27711,0.0985 -2.61205,0.2692 -2.96652,0.37945 -0.35447,0.11023 -0.74824,0.0966 -0.87505,-0.0301 z m 9.95183,-3.41944 c -2.36373,-0.85579 -4.62426,-2.68745 -4.03897,-3.27272 0.0969,-0.0969 1.09441,0.27579 2.21665,0.82827 1.93539,0.95279 4.37596,1.36872 5.63316,0.96002 0.29584,-0.0961 0.50737,0.0909 0.5714,0.50552 0.19314,1.25031 -2.17284,1.77883 -4.38224,0.97891 z m -12.88707,-4.24909 c -2.25587,-0.30746 -7.46778,-1.77853 -9.22778,-2.60459 -1.05006,-0.49283 -3.40709,-2.16973 -5.23785,-3.72644 -5.02198,-4.27026 -5.60101,-4.82557 -5.32232,-5.10426 0.39304,-0.39304 3.2187,1.2388 6.74177,3.89344 1.75011,1.3187 3.82636,2.72933 4.6139,3.13476 2.18432,1.12445 8.56135,3.08847 9.84134,3.03095 1.73626,-0.078 1.93203,-0.0277 1.93203,0.49577 0,0.4787 -1.27643,1.15084 -2.00946,1.05815 -0.20737,-0.0262 -0.8066,-0.10623 -1.33163,-0.17778 z m -40.6133,-23.01549 c -1.03982,-1.16854 -2.90717,-1.33372 -3.4573,-0.3058 -0.18732,0.35002 -0.55033,0.6364 -0.80669,0.6364 -1.11485,0 -0.0161,-2.03177 1.27389,-2.35553 1.46678,-0.36814 4.30579,1.21749 4.30579,2.40485 0,0.81549 -0.33913,0.71757 -1.31569,-0.37992 z M 534.256,514.27013 c 2.49162,-1.0455 7.68653,-2.60791 10.57051,-3.17914 1.31256,-0.25997 4.82072,-0.70498 7.79587,-0.9889 6.69486,-0.63887 11.63623,-1.60956 17.9966,-3.53523 3.38557,-1.02503 5.49049,-1.49013 6.76818,-1.4955 1.44027,-0.006 1.72452,-0.0811 1.2728,-0.33591 -0.31988,-0.18048 -1.62861,-0.30902 -2.90825,-0.28565 -1.66719,0.0304 -2.29128,-0.0644 -2.20187,-0.33478 0.19675,-0.59486 4.95391,-0.68064 5.60158,-0.10102 0.38705,0.3464 3.46453,1.15565 4.39475,1.15565 0.0553,0 0.10064,0.19605 0.10064,0.43568 0,0.24241 0.45871,0.51559 1.03415,0.61587 0.56878,0.0992 1.51871,0.28278 2.11093,0.40813 0.81564,0.17265 1.04329,0.1275 0.93872,-0.18615 -0.1596,-0.47887 -3.24936,-1.59685 -7.58399,-2.74417 -3.93435,-1.04138 -8.00539,-0.90888 -12.09157,0.39353 -2.39919,0.7647 -3.22581,0.86522 -7.31858,0.89004 -4.51233,0.0274 -4.70493,8e-5 -8.75048,-1.23952 -5.4364,-1.66576 -7.69193,-1.68239 -13.94721,-0.10276 l -4.40125,1.11144 1.53745,1.00774 c 2.03473,1.33369 2.96934,2.14061 2.96934,2.56361 0,0.7044 -1.1885,0.29602 -4.09102,-1.4057 -2.59001,-1.51849 -5.71677,-2.90771 -5.9271,-2.6334 -0.038,0.0496 -0.54495,0.99426 -1.12649,2.09929 -1.34665,2.55888 -2.25071,3.07557 -4.90466,2.80308 -1.17775,-0.12092 -2.71315,-0.58239 -3.94252,-1.18493 l -2.01357,-0.9869 -0.80548,0.74811 c -1.21951,1.13262 -1.37835,1.85546 -0.70161,3.19255 0.32616,0.64442 0.77406,1.28503 0.99531,1.42357 0.22127,0.13855 2.28673,0.20764 4.58993,0.15356 4.42363,-0.10387 6.97033,0.34676 10.29042,1.82082 1.81992,0.80801 1.6141,0.81257 3.74847,-0.083 z m -2.79387,-0.6301 c 0,-0.51143 4.01185,-3.69738 4.65586,-3.69738 1.11635,0 -0.036,1.55704 -2.55091,3.44681 -1.03881,0.78058 -2.10495,0.9075 -2.10495,0.25057 z m -128.51144,-1.53166 2.42755,-0.35486 0.18002,-1.52006 c 0.099,-0.83604 0.47433,-2.09693 0.83401,-2.80196 0.35968,-0.70504 0.65397,-1.32522 0.65397,-1.37819 0,-0.0529 -2.8996,-0.0944 -6.44354,-0.0922 -6.24811,0.004 -6.5285,-0.0237 -9.24468,-0.91377 -3.19538,-1.04704 -5.96401,-2.71255 -8.49493,-5.11025 -2.59445,-2.45791 -4.87753,-3.82356 -8.45223,-5.05585 -3.88123,-1.33796 -7.45866,-1.80984 -11.94143,-1.57513 -3.19269,0.16715 -3.53587,0.12174 -6.52308,-0.86317 -4.49246,-1.48122 -8.6893,-3.15857 -10.05498,-4.01869 -0.74351,-0.46826 -1.67584,-1.58379 -2.54143,-3.04078 -2.00375,-3.37281 -3.38063,-4.71512 -4.8366,-4.71512 -1.8042,0 -4.65294,1.3939 -4.65294,2.27672 0,0.14788 0.43528,0.26889 0.96728,0.26889 1.10698,0 3.08636,0.92564 3.84009,1.79577 0.28141,0.32489 0.99651,1.51377 1.58909,2.64194 2.26713,4.31629 5.25741,6.262 14.2255,9.2562 4.47556,1.49426 5.03107,1.60929 6.84128,1.41657 6.30431,-0.67116 11.60573,1.7446 20.27487,9.23886 3.47583,3.00477 4.9205,3.73576 9.69685,4.90648 1.47455,0.36143 8.12029,0.15538 11.65533,-0.36137 z m -13.24631,-2.45353 c -1.47503,-0.37409 -2.96865,-1.24362 -3.34539,-1.94756 -0.54563,-1.01953 0.33615,-1.09061 2.07301,-0.16711 1.08827,0.57863 2.01488,0.81152 3.22897,0.81152 1.27038,0 1.7027,0.11641 1.7027,0.45851 0,0.25219 -0.10849,0.52558 -0.24109,0.60752 -0.5297,0.32737 -2.51839,0.46533 -3.4182,0.23712 z m -65.70815,-2.45204 c 0.61253,-0.39777 1.78952,-0.89066 2.61552,-1.09531 1.44187,-0.35725 2.93056,-1.35747 1.61881,-1.08765 -0.31628,0.065 -2.07853,0.42598 -3.91614,0.80205 -1.83759,0.37607 -3.59567,0.81993 -3.90685,0.98635 -0.658,0.35191 -0.44914,0.84639 0.50691,1.20005 0.85743,0.31719 1.68662,0.10046 3.08175,-0.80549 z m 258.53688,-1.39671 c -0.35001,-0.15041 -0.92277,-0.27347 -1.27279,-0.27347 -0.6364,0 -0.6364,0 0,0.27347 0.35002,0.15042 0.92278,0.27347 1.27279,0.27347 0.63641,0 0.63641,0 0,-0.27347 z m -2.32683,-0.53556 c -0.22967,-0.0919 -0.50412,-0.0806 -0.60985,0.0251 -0.10575,0.10573 0.0822,0.18093 0.41763,0.16712 0.37067,-0.0153 0.44609,-0.0906 0.19222,-0.19225 z"
       id="path3294"
       inkscape:connector-curvature="0" />
  </g>
</svg>
