<?xml version="1.0" encoding="UTF-8" standalone="no"?>
<!-- Created with Inkscape (http://www.inkscape.org/) -->

<svg
   xmlns:dc="http://purl.org/dc/elements/1.1/"
   xmlns:cc="http://creativecommons.org/ns#"
   xmlns:rdf="http://www.w3.org/1999/02/22-rdf-syntax-ns#"
   xmlns:svg="http://www.w3.org/2000/svg"
   xmlns="http://www.w3.org/2000/svg"
   xmlns:xlink="http://www.w3.org/1999/xlink"
   xmlns:sodipodi="http://sodipodi.sourceforge.net/DTD/sodipodi-0.dtd"
   xmlns:inkscape="http://www.inkscape.org/namespaces/inkscape"
   width="301.54398"
   height="65.752541"
   id="svg2"
   version="1.1"
   inkscape:version="0.48.3.1 r9886"
   sodipodi:docname="Supermans-1.svg"
   inkscape:export-filename="/home/christian/Dokumente/Website/opentraining/cc_exercises/Supermans-2.png"
   inkscape:export-xdpi="214.32458"
   inkscape:export-ydpi="214.32458">
  <defs
     id="defs4">
    <radialGradient
       gradientUnits="userSpaceOnUse"
       gradientTransform="matrix(1,0,0,0.91819829,-19.285714,-7.9105395)"
       r="209.56604"
       fy="287.50052"
       fx="398.1105"
       cy="287.50052"
       cx="398.1105"
       id="radialGradient5255"
       xlink:href="#linearGradient5249"
       inkscape:collect="always" />
    <linearGradient
       id="linearGradient5249"
       inkscape:collect="always">
      <stop
         id="stop5251"
         offset="0"
         style="stop-color:#e3e3e3;stop-opacity:1;" />
      <stop
         id="stop5253"
         offset="1"
         style="stop-color:#e3e3e3;stop-opacity:0;" />
    </linearGradient>
    <linearGradient
       inkscape:collect="always"
       id="linearGradient5249-1">
      <stop
         style="stop-color:#e3e3e3;stop-opacity:1;"
         offset="0"
         id="stop5251-3" />
      <stop
         style="stop-color:#e3e3e3;stop-opacity:0;"
         offset="1"
         id="stop5253-6" />
    </linearGradient>
    <radialGradient
       inkscape:collect="always"
       xlink:href="#linearGradient5249-1"
       id="radialGradient5255-4"
       cx="398.1105"
       cy="287.50052"
       fx="398.1105"
       fy="287.50052"
       r="209.56604"
       gradientTransform="matrix(1,0,0,0.91819829,-19.285714,-7.9105395)"
       gradientUnits="userSpaceOnUse" />
  </defs>
  <sodipodi:namedview
     id="base"
     pagecolor="#ffffff"
     bordercolor="#666666"
     borderopacity="1.0"
     inkscape:pageopacity="0.0"
     inkscape:pageshadow="2"
     inkscape:zoom="2.8"
     inkscape:cx="245.54603"
     inkscape:cy="5.2724066"
     inkscape:document-units="px"
     inkscape:current-layer="layer1"
     showgrid="false"
     showguides="true"
     inkscape:guide-bbox="true"
     fit-margin-top="0"
     fit-margin-left="0"
     fit-margin-right="0"
     fit-margin-bottom="0"
     inkscape:window-width="1615"
     inkscape:window-height="1026"
     inkscape:window-x="65"
     inkscape:window-y="24"
     inkscape:window-maximized="1">
    <sodipodi:guide
       orientation="-0.70710678,0.70710678"
       position="-1727.0063,517.27796"
       id="guide2985" />
  </sodipodi:namedview>
  <metadata
     id="metadata7">
    <rdf:RDF>
      <cc:Work
         rdf:about="">
        <dc:format>image/svg+xml</dc:format>
        <dc:type
           rdf:resource="http://purl.org/dc/dcmitype/StillImage" />
        <dc:title></dc:title>
      </cc:Work>
    </rdf:RDF>
  </metadata>
  <g
     inkscape:label="Ebene 1"
     inkscape:groupmode="layer"
     id="layer1"
     transform="translate(-298.4348,-478.17329)">
    <path
       style="fill:#000000"
       d="m 299.49514,543.10503 c -1.13482,-1.13483 -1.33666,-3.02048 -0.71121,-6.64474 0.78175,-4.53003 1.66751,-5.94651 5.56745,-8.90336 4.79326,-3.63415 6.66623,-5.85407 7.24756,-8.5901 0.53537,-2.51971 2.87851,-6.36665 5.48311,-9.00207 0.87429,-0.88464 1.89279,-2.20317 2.26331,-2.93009 0.37052,-0.72691 1.40729,-1.90164 2.30392,-2.61052 1.33646,-1.05661 1.90036,-1.28886 3.12921,-1.28886 1.95022,0 3.87093,0.99069 6.20291,3.19941 1.0272,0.9729 2.4672,2.07268 3.19999,2.44393 1.78818,0.90597 5.45519,1.48189 9.84346,1.54596 3.36826,0.0491 4.0408,-0.0623 9.84674,-1.63142 6.05175,-1.63561 6.35833,-1.68323 10.62486,-1.65027 5.12419,0.0396 6.53352,0.40141 11.16301,2.86596 3.19242,1.6995 5.70322,2.44171 9.60632,2.83967 2.73499,0.27885 4.49853,-0.10133 9.53203,-2.05502 2.03789,-0.79099 4.63576,-1.61894 5.77305,-1.83991 1.62581,-0.31588 2.1445,-0.57008 2.4266,-1.18924 0.23408,-0.51375 0.74471,-0.85317 1.46903,-0.97644 0.61063,-0.10393 3.7653,-0.62118 7.01037,-1.14944 4.68486,-0.76264 6.46907,-1.21061 8.66232,-2.17492 3.76375,-1.65484 6.27073,-2.25147 9.4019,-2.23757 5.48325,0.0244 9.11895,1.12596 13.08819,3.96569 1.59958,1.14439 1.80546,1.20058 4.09715,1.11834 1.90801,-0.0684 2.70386,0.0619 3.80307,0.62258 l 1.39011,0.70919 2.59693,-0.72642 c 1.42831,-0.39953 3.85854,-1.24757 5.40053,-1.88452 1.54198,-0.63695 5.16933,-1.68807 8.06077,-2.33583 6.63294,-1.48595 8.55813,-2.12346 12.60101,-4.1727 5.35951,-2.7166 7.22802,-3.14635 12.85807,-2.95725 3.85198,0.12938 5.12809,0.30187 6.62381,0.89529 1.01894,0.40428 3.11738,1.03491 4.66317,1.40143 1.54583,0.36651 3.45458,1.04379 4.2417,1.50507 1.38851,0.81373 1.44794,0.82012 1.99601,0.21451 0.31069,-0.3433 0.79177,-1.80995 1.06905,-3.25921 0.64015,-3.34576 1.61771,-5.29659 3.47203,-6.92884 2.41275,-2.12378 4.62257,-2.80913 8.97904,-2.78475 3.01564,0.0168 4.08139,0.1644 5.72629,0.79264 4.08733,1.56107 7.71947,4.74754 9.24529,8.11081 0.81678,1.8004 0.9188,5.66068 0.21907,8.28882 -0.43941,1.65041 -2.57749,5.90986 -3.98833,7.94555 l -0.64605,0.93218 1.29027,0.57775 c 1.05881,0.4741 2.01538,0.55147 5.33236,0.43126 12.06749,-0.43734 13.64497,-0.22872 18.04719,2.38658 4.22425,2.50959 11.9074,3.82964 17.72896,3.04607 2.74761,-0.36983 4.42956,-0.23469 8.18164,0.65736 2.16193,0.514 11.08352,5.05704 11.30571,5.75708 0.10133,0.31921 0.033,0.86288 -0.15179,1.20818 -0.29096,0.54369 -0.11796,0.7199 1.29154,1.31541 1.46076,0.61714 1.6503,0.8221 1.84927,1.9999 0.3131,1.8531 -0.52082,3.71675 -1.9243,4.30045 -2.80067,1.1648 -3.59162,1.34693 -5.6336,1.29716 -1.20422,-0.0294 -4.75322,-0.0689 -7.88667,-0.088 l -5.69724,-0.0347 -2.24044,-1.15942 c -1.23225,-0.6377 -2.60121,-1.15945 -3.04214,-1.15945 -0.44092,0 -3.61422,1.35508 -7.05176,3.01129 -7.43377,3.58158 -8.31442,3.76203 -18.10414,3.70964 -5.87211,-0.0315 -6.65095,0.0334 -8.4983,0.70694 -2.64399,0.96405 -6.7317,0.80864 -9.28969,-0.35315 -2.84204,-1.29082 -5.09108,-1.70338 -6.94849,-1.27465 -2.85806,0.65972 -5.60318,-0.0869 -12.00853,-3.26601 l -5.6175,-2.78809 -1.01798,0.76357 c -3.36528,2.52422 -8.13052,4.01308 -12.12181,3.78734 -2.46635,-0.1395 -2.86038,-0.0675 -4.8842,0.89148 -2.0071,0.95114 -2.48381,1.04016 -5.40138,1.00867 -2.10272,-0.0226 -5.03918,-0.39809 -8.56361,-1.09473 -5.73736,-1.13407 -10.69636,-1.38119 -14.80802,-0.73794 -6.30469,0.98638 -9.00026,1.3621 -10.78684,1.50354 -1.52664,0.12087 -2.3262,0.39893 -3.43325,1.19395 -1.167,0.83809 -1.9786,1.10197 -4.24145,1.37909 -1.53907,0.1885 -3.10146,0.44162 -3.47199,0.5625 -0.37052,0.12088 -5.44841,0.23705 -11.28418,0.25813 -5.83578,0.0211 -12.93935,0.22977 -15.7857,0.46368 l -5.17521,0.42532 -0.81052,-0.76145 c -0.68831,-0.64661 -1.39676,-0.81206 -4.69845,-1.09715 -2.91631,-0.25182 -4.24041,-0.23318 -5.29845,0.0747 -3.01001,0.87556 -6.85327,1.43995 -8.5464,1.25504 -0.96052,-0.1049 -2.93105,-0.62483 -4.37894,-1.1554 -1.44789,-0.53058 -3.39042,-1.07174 -4.31674,-1.20259 -0.92631,-0.13086 -2.25208,-0.60785 -2.94612,-1.05998 -2.04585,-1.33275 -4.71528,-1.87854 -8.00123,-1.63593 -3.40224,0.25122 -11.04629,-0.31456 -13.76373,-1.01873 -2.85428,-0.73961 -8.78183,-3.008 -13.18357,-5.04517 -4.69415,-2.17251 -6.7221,-2.67865 -9.9121,-2.47391 -3.13213,0.20099 -3.95811,0.72133 -6.31983,3.98126 -1.10874,1.53041 -2.38618,2.88498 -3.03156,3.21463 -0.61349,0.31333 -1.75623,1.15571 -2.53946,1.87196 -1.27889,1.16952 -1.60508,1.30175 -3.19999,1.29711 -0.97677,-0.002 -1.99386,-0.14304 -2.26021,-0.31157 -0.32926,-0.20834 -0.75113,-0.0965 -1.31815,0.34953 -0.45865,0.36077 -1.94599,0.97908 -3.30521,1.37402 -1.35922,0.39493 -2.47131,0.85317 -2.47131,1.01829 0,0.16514 -0.37205,0.6723 -0.82679,1.12703 -1.12975,1.12976 -3.26091,1.14864 -4.37082,0.0387 z m 3.01137,-1.15394 c 0.18704,-0.13611 0.64178,-0.82698 1.01054,-1.53528 0.36873,-0.7083 0.85328,-1.44134 1.07674,-1.62899 0.50511,-0.42416 1.21364,-0.0299 0.99064,0.5512 -0.12877,0.33553 0.14234,0.36078 1.24019,0.1155 1.8047,-0.40322 2.75013,-1.03188 4.54122,-3.0197 1.66752,-1.85068 4.26929,-3.52131 7.84375,-5.03657 1.37152,-0.58139 3.52429,-1.66729 4.78396,-2.41309 4.51728,-2.67449 7.10488,-2.43358 17.24649,1.60563 11.95008,4.7595 16.13766,5.62612 25.62834,5.30375 l 5.08101,-0.1726 1.77112,1.21831 c 0.97412,0.67008 2.40133,1.37669 3.1716,1.57025 0.77025,0.19359 2.6889,0.79736 4.26363,1.34175 1.57472,0.54437 3.46945,1.08341 4.21051,1.19783 2.06063,0.31818 6.18565,-0.36377 7.33344,-1.21237 0.9369,-0.69267 1.12986,-0.70935 4.12423,-0.35619 1.72772,0.20375 3.47143,0.37047 3.87488,0.37047 l 0.73358,0 -0.7306,-1.09473 c -3.0755,-4.60839 -4.07595,-9.02388 -3.26278,-14.39997 0.26623,-1.76 0.4453,-3.2429 0.39797,-3.29536 -0.0473,-0.0524 -1.58419,0.45281 -3.41523,1.12282 -4.71245,1.72436 -5.21631,1.81891 -9.72917,1.82578 -4.75118,0.007 -5.87271,-0.25619 -9.25603,-2.17419 -5.62125,-3.18662 -11.01007,-4.88301 -15.52488,-4.8872 -3.01152,-0.002 -5.26987,0.60286 -7.48334,2.0069 -1.87452,1.18903 -2.75666,1.3254 -2.51159,0.38826 0.15685,-0.59982 -0.17288,-0.64304 -6.10807,-0.80064 -9.7259,-0.25827 -12.70203,-1.26165 -16.89347,-5.69558 -2.2002,-2.32749 -2.72077,-2.70695 -3.93754,-2.87014 -1.9983,-0.26804 -2.96444,0.0683 -4.64416,1.61658 -1.98074,1.82578 -3.28133,3.93358 -4.5447,7.36531 -1.71139,4.64874 -2.22902,5.29162 -7.59925,9.43804 -1.86309,1.43851 -3.6322,2.98903 -3.93136,3.44562 -0.65489,0.99949 -2.28063,6.78328 -2.28096,8.11486 -3.5e-4,1.83354 1.31958,2.87408 2.52929,1.99374 z m 89.42068,-4.40698 c -0.64431,-0.52775 -2.00515,-1.22848 -3.02411,-1.5572 -2.32511,-0.75009 -2.65153,-1.03926 -1.95703,-1.73376 0.45013,-0.45013 0.72907,-0.47597 1.66979,-0.15468 1.56727,0.5353 5.14357,3.12942 5.27824,3.82864 0.1651,0.8573 -0.64524,0.69951 -1.96689,-0.383 z m -15.74098,-1.81942 c 0.407,-1.23083 4.81302,-3.00118 6.1717,-2.4798 0.825,0.31658 -0.0287,1.21552 -1.15921,1.2207 -0.48679,0.002 -1.54475,0.38118 -2.35102,0.84211 -1.57687,0.90144 -2.88969,1.10713 -2.66147,0.41699 z m 6.37663,-6.54702 c -2.28665,-0.80862 -2.48031,-2.19624 -0.20155,-1.44418 1.6838,0.5557 5.46616,0.44819 6.42907,-0.18274 0.41948,-0.27485 0.91961,-0.49972 1.1114,-0.49972 0.68615,0 0.33222,1.31141 -0.53884,1.99659 -1.09206,0.85903 -4.55159,0.92517 -6.80008,0.13005 z m -22.29126,-0.12496 c -1.78236,-0.43621 -11.88849,-5.16195 -12.04535,-5.63254 -0.0839,-0.25168 0.19431,-0.41124 0.71702,-0.41124 0.74701,0 2.48972,0.58291 11.32833,3.7892 2.62539,0.95238 10.35843,1.24794 12.60681,0.48184 1.40888,-0.48005 1.59378,-0.48208 1.77128,-0.0196 0.55843,1.45521 -2.38356,2.16362 -8.78198,2.11461 -2.42945,-0.0186 -4.9477,-0.16366 -5.59611,-0.32235 z m -41.31977,-10.61744 c -0.11219,-0.29237 0.0973,-0.93657 0.46552,-1.43158 0.52743,-0.70902 0.9981,-0.92164 2.21802,-1.00196 1.71306,-0.11279 3.60473,0.65233 3.60473,1.45796 0,0.64426 -0.80982,0.63906 -1.34736,-0.008 -0.43381,-0.5227 -2.57293,-0.68615 -3.23881,-0.24748 -0.20662,0.13611 -0.48209,0.58853 -0.61217,1.00537 -0.27497,0.88111 -0.79706,0.98953 -1.08993,0.22634 z m 95.1925,22.71901 c 1.99726,-0.22446 6.19001,-0.27073 11.28418,-0.12454 6.61598,0.18987 8.87459,0.13052 12.28681,-0.32285 4.45859,-0.59241 5.58632,-0.94737 7.42151,-2.33595 0.6381,-0.4828 1.3581,-0.87784 1.6,-0.87784 0.60426,0 0.57511,-0.10009 -0.54211,-1.86178 -0.9376,-1.47845 -1.46207,-3.18492 -1.84019,-5.98739 -0.12928,-0.95813 -0.0415,-1.3311 0.34813,-1.48065 0.71033,-0.27258 1.00327,0.31166 1.26259,2.51803 0.33132,2.8189 1.24538,4.5644 3.09198,5.90449 1.37485,0.99773 1.74853,1.12236 2.61781,0.87305 0.55773,-0.15997 1.15696,-0.43374 1.33164,-0.60842 0.19889,-0.19891 -0.27642,-1.53064 -1.27181,-3.56332 -2.77991,-5.67688 -4.63386,-15.20672 -3.92165,-20.15853 0.18204,-1.26578 0.63947,-2.92487 1.01647,-3.68688 0.377,-0.76199 0.62657,-1.44436 0.55456,-1.51636 -0.35102,-0.35101 -2.86453,-0.44378 -3.45544,-0.12754 -0.39456,0.21116 -0.91919,1.14742 -1.27266,2.27119 -0.50454,1.60404 -0.56371,2.55577 -0.36751,5.91014 0.16339,2.79342 0.12374,3.99823 -0.13161,3.99823 -0.64133,0 -1.07858,-1.76156 -1.25413,-5.05263 -0.15298,-2.86799 -0.007,-4.1514 0.75333,-6.65261 0.14259,-0.46868 0.0881,-0.7579 -0.14263,-0.7579 -0.20527,0 -1.0764,-0.53674 -1.93584,-1.19276 -1.75522,-1.33981 -2.90035,-1.87119 -5.34664,-2.48109 -5.37803,-1.3408 -11.14769,-1.04752 -15.29895,0.77769 -2.52373,1.10961 -11.12818,3.30234 -14.80334,3.77243 -1.66888,0.21346 -1.84559,0.32309 -2.33044,1.44577 -0.54261,1.25641 -0.7816,5.84 -0.32816,6.29394 0.13826,0.13842 2.05961,-0.24918 4.26967,-0.86134 l 4.01828,-1.113 0.22556,-1.72082 c 0.12404,-0.94646 0.44196,-2.06188 0.7065,-2.47871 0.58356,-0.91955 1.67185,-1.05986 1.30637,-0.16843 -0.40481,0.98739 -0.61122,3.45263 -0.28908,3.45263 0.16643,0 1.03632,-0.60631 1.9331,-1.34737 0.89677,-0.74105 1.84135,-1.34736 2.09908,-1.34736 0.63604,0 0.59295,0.88352 -0.0691,1.4183 -0.29576,0.23888 -1.22333,1.07967 -2.06125,1.86843 -1.16953,1.10088 -2.08157,1.5934 -3.9254,2.11981 -4.0634,1.16009 -8.38754,2.58045 -10.0503,3.30125 -1.48053,0.6418 -1.62347,0.81638 -2.16351,2.64232 -0.69317,2.34368 -0.75936,6.60378 -0.14291,9.19721 0.77765,3.27156 2.01161,5.40617 4.7105,8.14867 l 2.54961,2.5908 2.18947,-0.16057 c 1.20421,-0.0883 3.61962,-0.32129 5.36758,-0.51774 z m -6.87425,-2.29905 c -0.73239,-1.18503 1.12141,-2.44309 4.4223,-3.00116 4.34185,-0.73405 6.29192,-0.74421 10.38959,-0.0542 4.64894,0.78291 5.34858,0.81836 6.28278,0.31839 0.64141,-0.34327 0.60132,-0.42258 -0.69582,-1.3765 -0.75704,-0.55674 -1.37645,-1.22652 -1.37645,-1.48838 0,-0.93528 1.37719,-0.44936 3.44199,1.21446 2.88624,2.32579 4.45205,3.0252 6.77253,3.0252 1.85812,0 1.98086,-0.058 3.95512,-1.87312 1.56592,-1.43959 2.24141,-1.84891 2.91847,-1.76842 1.36855,0.16266 1.22743,0.6835 -0.50522,1.86464 -0.87639,0.59744 -2.10997,1.50687 -2.74128,2.02096 -0.99398,0.80941 -1.50054,0.95073 -3.77885,1.0542 -2.12877,0.0967 -2.90633,-0.0124 -4.07321,-0.5712 -1.1629,-0.55691 -1.84267,-0.65317 -3.5102,-0.49703 -1.3185,0.12343 -3.33287,-0.0256 -5.55789,-0.4112 -5.11372,-0.88624 -7.88323,-0.7652 -11.74247,0.51321 -1.75999,0.58303 -3.37558,1.13377 -3.59017,1.22389 -0.21461,0.0901 -0.48965,0.003 -0.61122,-0.1938 z m 132.7885,0.0967 c 1.05972,-0.47995 2.52355,-0.58223 9.01257,-0.62969 9.07395,-0.0663 9.52595,-0.15934 16.33681,-3.36022 2.50103,-1.1754 5.48406,-2.39707 6.62893,-2.71479 l 2.08157,-0.57768 2.6342,1.26508 c 2.6272,1.26172 2.64502,1.26494 6.69988,1.21057 2.23612,-0.03 5.38299,0.1092 6.99306,0.30927 3.04204,0.37803 4.26753,0.14357 4.26753,-0.81643 0,-0.31501 -0.78046,-0.58517 -2.44209,-0.8453 -1.34316,-0.21027 -3.36224,-0.67869 -4.48689,-1.04095 -1.12465,-0.36225 -2.29939,-0.65864 -2.61053,-0.65864 -0.31113,0 -0.56573,-0.15158 -0.56573,-0.33685 0,-0.48119 0.76443,-0.42251 4.02584,0.30903 1.58369,0.35522 3.78889,0.80918 4.90047,1.00879 1.11157,0.19961 2.20091,0.6069 2.42074,0.9051 0.31228,0.42357 0.60702,0.47309 1.34736,0.22631 1.5801,-0.5267 1.14499,-1.19904 -1.07337,-1.65869 -1.11158,-0.23031 -3.68842,-0.96456 -5.7263,-1.63165 -2.03791,-0.66709 -4.34948,-1.30186 -5.13683,-1.41062 -0.95663,-0.13213 -1.43158,-0.36457 -1.43158,-0.7006 0,-0.75465 2.74949,-0.29216 6.31809,1.06274 1.61977,0.615 4.0061,1.31188 5.30293,1.54863 1.29684,0.23676 2.64071,0.57663 2.98634,0.75526 0.47521,0.24561 0.59233,0.21416 0.48031,-0.12895 -0.0815,-0.24957 -1.50115,-0.92736 -3.15476,-1.50622 -1.65363,-0.57884 -4.06766,-1.43134 -5.3645,-1.89441 -1.29684,-0.46308 -2.85053,-0.94889 -3.45263,-1.07957 -0.60211,-0.13069 -1.09474,-0.39401 -1.09474,-0.58518 0,-0.52285 1.92721,-0.0709 6.85264,1.60695 2.40387,0.81888 4.46015,1.48567 4.56952,1.48175 0.83547,-0.03 -4.62093,-2.32313 -8.50066,-3.57259 -5.33714,-1.71883 -6.32733,-1.76632 -12.01621,-0.57636 -2.45518,0.51357 -4.73503,0.60036 -15.99996,0.60908 -13.02137,0.0104 -13.18677,0.0189 -18.82193,1.00523 l -5.68515,0.99507 -1.38853,-0.78898 c -5.86565,-3.33289 -7.69853,-3.89707 -14.32722,-4.41002 -5.5731,-0.43128 -6.09285,-0.53442 -6.09285,-1.209 0,-0.42863 0.32563,-0.50879 1.68441,-0.41463 0.9793,0.0679 1.68124,-0.0243 1.67681,-0.22012 -0.0134,-0.59314 -1.19953,-2.97517 -2.43211,-4.8842 -2.31453,-3.58479 -4.15006,-4.67783 -8.33366,-4.96256 -1.8877,-0.12846 -2.86427,-0.0333 -3.83656,0.37406 -1.60693,0.67318 -1.89569,0.68109 -1.89569,0.0518 0,-0.27198 0.4121,-0.71042 0.9158,-0.97434 l 0.91579,-0.47983 -1.33684,-0.38786 c -0.73528,-0.21332 -2.43581,-0.47886 -3.77896,-0.59007 -1.85967,-0.15398 -2.4421,-0.32305 -2.4421,-0.7089 0,-0.80276 7.36365,-0.36267 8.87757,0.53056 0.61029,0.36007 1.98822,0.76445 3.06207,0.89862 1.07384,0.13417 2.56404,0.45974 3.31155,0.72347 0.74752,0.26374 1.41112,0.42753 1.47465,0.36399 0.0635,-0.0635 0.21454,-1.51011 0.33553,-3.21459 0.29753,-4.19158 0.95964,-3.969 0.95964,0.32259 0,3.46037 0.0182,3.51066 2.11459,5.87224 1.69064,1.9044 2.38298,1.75362 1.78794,-0.38941 -0.44862,-1.6157 -0.47089,-3.38824 -0.0458,-3.65091 0.1759,-0.10871 0.4202,0.37497 0.5429,1.07485 0.49845,2.84327 3.12491,5.88905 6.35251,7.3667 1.47041,0.67316 1.9291,0.74306 2.97732,0.45363 2.46223,-0.67985 4.73519,-3.36482 8.10942,-9.57939 3.51135,-6.4671 3.95273,-9.13414 2.15984,-13.05034 -2.1729,-4.74624 -7.44243,-7.64688 -13.91649,-7.66042 -3.62589,-0.007 -5.52838,0.6932 -7.33396,2.70144 -2.40778,2.67803 -3.05964,4.34368 -3.06037,7.81987 -3.3e-4,2.07074 -0.12107,2.94738 -0.40562,2.94738 -0.22276,0 -0.46293,-0.17375 -0.5337,-0.38607 -0.0745,-0.22353 -1.02373,0.27283 -2.25459,1.17894 -1.61812,1.1912 -2.421,1.56501 -3.36127,1.56501 -1.56413,0 -2.73263,-0.80037 -2.73263,-1.87173 0,-0.99566 0.85663,-1.11109 1.10813,-0.14932 0.21021,0.80388 1.75255,0.90942 2.70796,0.18532 1.39975,-1.06088 -0.45606,-2.23528 -4.82661,-3.05441 -0.64842,-0.12152 -2.39157,-0.62112 -3.87368,-1.11022 -2.2267,-0.73481 -3.30901,-0.88878 -6.23156,-0.88649 -4.1702,0.003 -6.89223,0.72281 -11.51247,3.04325 -4.12211,2.07023 -7.06535,2.98997 -12.91244,4.03503 -3.81123,0.68117 -5.87432,1.25248 -8.41711,2.33085 -1.85263,0.78567 -4.58105,1.6916 -6.06315,2.01318 -1.4821,0.32158 -2.92209,0.69915 -3.19999,0.83907 -0.2779,0.13989 -0.7928,0.99628 -1.14423,1.90306 -0.95016,2.45167 -0.85216,7.32358 0.24658,12.25921 1.34698,6.05061 2.31619,8.52609 4.52869,11.56669 1.1756,1.6156 1.19959,1.62827 2.73536,1.44531 9.0869,-1.08256 11.4848,-0.99549 17.8116,0.64675 5.57361,1.44675 10.23842,1.50077 12.46876,0.14442 0.95863,-0.58299 1.03899,-0.7403 0.67547,-1.32239 -0.6347,-1.01633 -0.0837,-1.19843 1.48673,-0.49141 2.3096,1.03975 6.86331,0.88023 9.80152,-0.34335 1.26215,-0.52562 2.89428,-1.45652 3.62698,-2.06866 l 1.33217,-1.113 -1.10215,-0.84066 c -1.70164,-1.2979 -2.75223,-1.57018 -7.3172,-1.89644 -3.91876,-0.28007 -6.06299,-0.12871 -7.07986,0.49976 -0.39645,0.24502 -0.34033,1.17012 0.16886,2.78348 0.17958,0.56897 0.10539,0.75789 -0.29759,0.75789 -0.90529,0 -1.67002,-1.54636 -1.47687,-2.98638 l 0.17275,-1.28795 -2.57636,-0.3944 c -4.76819,-0.72993 -6.79963,-1.65616 -6.328,-2.88522 0.20825,-0.54268 0.30939,-0.53279 1.39159,0.13604 1.92344,1.18876 3.04777,1.36291 10.95932,1.69768 10.24014,0.43328 11.04012,0.66572 18.65226,5.41973 5.31802,3.32129 8.74614,4.40284 14.35818,4.52992 4.06323,0.092 6.85449,0.64536 8.01763,1.58944 1.24612,1.01143 5.84913,1.02221 8.06448,0.0189 z m -6.31371,-1.23706 c 0,-0.24857 0.62209,-0.63833 1.38243,-0.86613 0.76033,-0.2278 1.594,-0.49538 1.85262,-0.59462 0.88949,-0.34132 0.47181,0.75596 -0.50809,1.33481 -1.17286,0.69282 -2.72696,0.7646 -2.72696,0.12594 z m -53.42314,-2.16373 c -1.00984,-0.6743 -1.65069,-4.12115 -0.76621,-4.12115 0.24365,0 0.30482,-0.37067 0.17132,-1.03809 -0.23617,-1.18089 0.24592,-2.33033 0.97737,-2.33033 0.54481,0 0.57289,0.18237 0.18146,1.17895 -0.37278,0.94915 0.20553,2.37687 1.35434,3.34353 0.53826,0.45291 0.97866,0.98486 0.97866,1.18207 0,0.68697 -1.38531,0.35237 -2.20555,-0.53269 -0.75091,-0.81024 -0.82602,-0.8303 -0.82602,-0.22064 0,0.36888 0.30315,0.94503 0.67369,1.28034 1.10535,1.00035 0.65368,2.05442 -0.53906,1.25801 z m 60.00706,-0.054 c -0.32695,-0.52903 2.32639,-2.301 6.38447,-4.2637 4.6831,-2.265 6.51695,-2.7833 7.79215,-2.20227 0.74345,0.33874 0.8325,0.48605 0.4429,0.73255 -0.26824,0.16968 -0.95282,0.31085 -1.52129,0.31369 -1.96534,0.009 -4.70596,1.09617 -8.06113,3.19536 -3.64306,2.27931 -4.71155,2.75114 -5.0371,2.22437 z m -10.12076,-0.42321 c -0.37052,-0.20769 -1.36985,-1.02055 -2.22073,-1.80636 -3.36329,-3.10608 -6.63789,-3.64397 -7.77293,-1.27677 -0.63814,1.33088 -1.83023,1.85955 -3.74064,1.6589 -3.06375,-0.32177 -2.8859,-1.15933 0.3193,-1.50368 1.75923,-0.189 1.95213,-0.28554 1.86316,-0.93245 -0.16468,-1.19745 1.38897,-2.14152 3.52428,-2.14152 2.31051,0 4.72377,1.17539 6.20975,3.02449 0.61052,0.75971 1.7952,1.66993 2.71381,2.08508 0.89667,0.40525 1.63032,0.86138 1.63032,1.01362 0,0.40309 -1.73979,0.31955 -2.52632,-0.12131 z m -54.05117,-2.94819 c -0.47658,-0.89049 -0.44033,-3.50103 0.0555,-3.99687 0.6355,-0.6355 1.3957,-0.50797 1.1043,0.18525 -0.5747,1.36725 -0.54083,2.10952 0.13988,3.0655 0.90202,1.26677 0.89072,1.39766 -0.12075,1.39766 -0.47611,0 -0.97899,-0.27791 -1.17895,-0.65154 z m 22.55651,-5.2008 c 0,-0.43131 0.35148,-0.54765 1.65457,-0.54765 3.00097,0 6.80129,-0.92133 8.33069,-2.01966 1.52168,-1.09279 2.47787,-1.29758 2.47787,-0.5307 0,0.74675 -0.99691,1.57074 -3.02611,2.50125 -1.53973,0.70605 -2.50737,0.87708 -5.64755,0.99823 -3.33416,0.12861 -3.78947,0.0804 -3.78947,-0.40147 z m -38.23148,-0.52363 c -1.30355,-0.31459 -2.52633,-0.97447 -2.52633,-1.36335 0,-0.63395 0.70997,-0.69611 2.19444,-0.19211 2.011,0.68274 3.43525,0.65711 7.08448,-0.12749 5.99699,-1.28939 8.23684,-1.29009 8.23684,-0.002 0,0.58086 -0.25172,0.65099 -2.33654,0.65099 -1.28512,0 -3.59669,0.30209 -5.13684,0.67132 -2.82188,0.6765 -5.65132,0.81323 -7.51605,0.36321 z m 29.81044,-0.22421 c -1.68729,-0.73085 -2.99734,-2.07347 -3.91298,-4.01032 -0.8259,-1.74702 -1.04962,-3.68137 -0.46738,-4.04121 0.37237,-0.23014 0.66485,0.39326 1.57419,3.35529 0.6018,1.96027 0.67153,2.0376 2.8852,3.19999 3.06814,1.61107 3.00368,2.83153 -0.079,1.49625 z m 2.12491,-6.2653 c -0.78366,-0.37869 -1.23246,-1.15513 -0.94063,-1.62731 0.0968,-0.15657 0.84928,0.0131 1.67225,0.37723 1.19662,0.52932 1.81942,0.60763 3.10937,0.391 1.55693,-0.26148 1.60934,-0.30751 1.50698,-1.32357 -0.0868,-0.86135 0.0969,-1.20461 1.01053,-1.88879 1.46845,-1.09963 2.99357,-1.85689 4.00454,-1.98835 1.4889,-0.1936 1.18056,0.4678 -0.53008,1.13702 -2.38158,0.9317 -3.09644,1.68492 -2.93243,3.08979 0.19522,1.67213 -0.78154,2.24156 -3.79514,2.21253 -1.30193,-0.0126 -2.69936,-0.18334 -3.10539,-0.37955 z m -7.62664,-7.23272 c -0.12352,-0.12351 -0.22456,-0.6536 -0.22456,-1.17797 0,-1.7716 3.70579,-4.99746 5.74095,-4.99746 1.10664,0 0.67491,0.57137 -1.86308,2.46555 -1.68503,1.25759 -2.4256,2.05074 -2.65144,2.83971 -0.31007,1.08323 -0.56628,1.30576 -1.00187,0.87017 z m -30.47026,-1.83984 c 0.0948,-0.28542 0.92406,-0.54809 2.17044,-0.68748 2.6787,-0.29956 5.59571,-1.16252 7.86477,-2.32667 2.91401,-1.49502 3.30157,-1.58411 9.40135,-2.16067 4.67686,-0.44208 6.7953,-0.8294 11.23382,-2.0538 3.00852,-0.82995 6.47278,-1.59986 7.69835,-1.71091 2.75197,-0.24938 5.35062,0.0983 5.35062,0.71589 0,0.34553 -0.76014,0.44495 -3.28421,0.42947 -3.0565,-0.0187 -3.64618,0.0975 -8.50524,1.6769 -4.96111,1.61253 -5.45581,1.70717 -9.93681,1.90085 -5.5453,0.2397 -7.41777,0.67647 -12.05042,2.81087 -3.22163,1.48431 -3.65929,1.59596 -6.77019,1.72717 -2.71166,0.11437 -3.29755,0.055 -3.17248,-0.32162 z m 31.48887,-9.96824 c -0.53255,-0.0801 -0.88838,-0.3157 -0.81386,-0.539 0.18269,-0.54741 7.31706,-0.55885 7.31763,-0.0117 2.3e-4,0.21175 -0.23936,0.47702 -0.53241,0.58946 -0.5726,0.21973 -4.41795,0.1948 -5.97136,-0.0387 z M 316.4369,536.53446 c 0.67334,-0.71249 1.76475,-1.61706 2.42535,-2.01017 0.66062,-0.39311 1.49429,-1.04157 1.85262,-1.44104 0.46335,-0.51651 -0.37002,-0.21577 -2.8853,1.04122 -5.53149,2.76432 -6.50039,3.70543 -3.81489,3.70543 0.95287,0 1.44848,-0.26506 2.42222,-1.29544 z m 279.62358,-10.5112 c 0,-0.19471 -0.53373,-0.57704 -1.18604,-0.84959 -0.65237,-0.27258 -1.93112,-0.95402 -2.84174,-1.51431 -4.36553,-2.68613 -10.94104,-4.09299 -15.89485,-3.40075 -6.37933,0.89143 -10.21456,0.27282 -16.49712,-2.66095 -6.70255,-3.12989 -7.84774,-3.32292 -15.56033,-2.62277 l -4.31704,0.39191 2.11431,2.13326 c 1.61249,1.62696 2.0209,2.22666 1.72078,2.52678 -0.44456,0.44456 -0.24575,0.57009 -4.1273,-2.60594 -2.57705,-2.10863 -5.38946,-3.77805 -5.38946,-3.19912 0,0.17672 -1.21328,1.60304 -2.69617,3.16962 -3.37271,3.56303 -4.07579,3.77953 -7.32946,2.25697 -1.22538,-0.57345 -2.79064,-1.6341 -3.47835,-2.35703 -1.18572,-1.24644 -1.27843,-1.28342 -1.79286,-0.71497 -0.49313,0.54491 -0.49535,0.73453 -0.0245,2.0844 0.68624,1.96717 1.25225,2.32595 3.68044,2.33291 3.89433,0.0111 9.23987,1.75016 13.04548,4.24391 0.86203,0.56488 1.05772,0.55853 4.71577,-0.15335 5.67161,-1.10371 11.02045,-1.41528 17.29007,-1.00717 7.11024,0.46285 14.55408,0.20377 21.42275,-0.74561 6.13379,-0.84779 5.6325,-0.896 10.34944,0.99551 0.9863,0.39551 1.69734,0.5639 1.58011,0.3742 -0.11725,-0.1897 -0.37463,-0.34492 -0.57195,-0.34492 -0.19736,0 -1.53377,-0.53053 -2.96989,-1.17895 -1.4361,-0.64842 -3.04677,-1.18102 -3.57921,-1.18354 -1.35657,-0.007 -2.48394,-0.3485 -2.48394,-0.75364 0,-0.21563 0.86645,-0.28081 2.33549,-0.17569 1.88264,0.13469 2.64316,0.37087 3.9221,1.21801 0.87264,0.57801 2.11491,1.15003 2.76059,1.27117 0.69622,0.1306 1.23534,0.45481 1.32473,0.79663 0.25675,0.98173 4.47811,2.55884 4.47811,1.67302 z m -60.1177,-1.31648 c -0.35104,-0.56799 0.0379,-0.90966 2.7225,-2.39158 1.84159,-1.01659 2.64836,-1.30382 2.91453,-1.03765 0.50482,0.50482 -0.354,1.4061 -2.3687,2.48581 -2.06642,1.10742 -3.00036,1.377 -3.26833,0.94342 z m -142.45312,-4.07199 c 3.63717,-1.23362 5.17803,-1.92039 5.61311,-2.50178 0.32985,-0.44078 1.01194,-0.89321 1.51579,-1.00542 0.90886,-0.20241 0.91635,-0.22744 0.95075,-3.1778 l 0.0348,-2.97379 -3.26072,1.13115 c -5.63595,1.9551 -8.20343,2.4807 -12.11803,2.4807 -4.26254,0 -6.59685,-0.53572 -10.29055,-2.36169 -4.01742,-1.986 -6.37118,-2.69013 -10.10524,-3.02295 -4.24622,-0.3785 -7.17765,-0.019 -12.27728,1.50575 -4.38703,1.31167 -7.27772,1.48629 -13.99635,0.84553 -5.70303,-0.54391 -6.28149,-0.76702 -9.29461,-3.58485 -3.76135,-3.51758 -4.83206,-3.82731 -7.46292,-2.15887 -0.85974,0.54523 -1.7834,1.41681 -2.05256,1.93684 l -0.48942,0.94552 1.63371,-0.11564 c 2.49259,-0.17643 3.82905,0.44026 6.09947,2.81456 3.69302,3.86196 6.58116,4.86158 16.06775,5.56126 5.33349,0.39336 6.0288,0.33911 9.22391,-0.71984 6.91007,-2.2902 11.52656,-1.40869 24.50617,4.67947 2.82181,1.32359 2.89102,1.33705 7.11287,1.38318 3.45657,0.0378 3.74357,-0.0178 8.58947,-1.66133 z m -10.93961,-0.97689 c -1.46358,-0.36774 -2.35246,-1.21507 -1.82646,-1.74108 0.28283,-0.28283 0.66121,-0.28345 1.46741,-0.002 1.4915,0.51994 3.13616,0.47443 4.57458,-0.12656 1.52655,-0.63785 1.46382,-0.64996 1.46382,0.28277 0,1.33391 -3.16604,2.21877 -5.67935,1.58728 z"
       id="path3260"
       inkscape:connector-curvature="0" />
  </g>
</svg>
