<?xml version="1.0" encoding="UTF-8" standalone="no"?>
<!-- Created with Inkscape (http://www.inkscape.org/) -->

<svg
   xmlns:dc="http://purl.org/dc/elements/1.1/"
   xmlns:cc="http://creativecommons.org/ns#"
   xmlns:rdf="http://www.w3.org/1999/02/22-rdf-syntax-ns#"
   xmlns:svg="http://www.w3.org/2000/svg"
   xmlns="http://www.w3.org/2000/svg"
   xmlns:sodipodi="http://sodipodi.sourceforge.net/DTD/sodipodi-0.dtd"
   xmlns:inkscape="http://www.inkscape.org/namespaces/inkscape"
   width="837.17609"
   height="900.60382"
   id="svg2"
   version="1.1"
   inkscape:version="0.48.3.1 r9886"
   sodipodi:docname="T-bar-row-1.svg">
  <defs
     id="defs4" />
  <sodipodi:namedview
     id="base"
     pagecolor="#ffffff"
     bordercolor="#666666"
     borderopacity="1.0"
     inkscape:pageopacity="0.0"
     inkscape:pageshadow="2"
     inkscape:zoom="0.35"
     inkscape:cx="-209.33986"
     inkscape:cy="86.993129"
     inkscape:document-units="px"
     inkscape:current-layer="layer1"
     showgrid="false"
     fit-margin-top="0"
     fit-margin-left="0"
     fit-margin-right="0"
     fit-margin-bottom="0"
     inkscape:window-width="898"
     inkscape:window-height="738"
     inkscape:window-x="65"
     inkscape:window-y="138"
     inkscape:window-maximized="0" />
  <metadata
     id="metadata7">
    <rdf:RDF>
      <cc:Work
         rdf:about="">
        <dc:format>image/svg+xml</dc:format>
        <dc:type
           rdf:resource="http://purl.org/dc/dcmitype/StillImage" />
        <dc:title></dc:title>
      </cc:Work>
    </rdf:RDF>
  </metadata>
  <g
     inkscape:label="Ebene 1"
     inkscape:groupmode="layer"
     id="layer1"
     transform="translate(-2570.2168,287.23702)">
    <path
       style="fill:#000000"
       d="m 2816.9242,602.0381 c -6.5503,-6.56736 -11.7291,-12.58068 -11.7291,-13.61906 0,-1.02265 11.0415,-32.6869 24.5366,-70.36501 13.4952,-37.6781 24.4077,-68.59996 24.25,-68.71525 -0.1576,-0.11528 -29.0866,8.01553 -64.2866,18.06847 -35.2,10.05293 -65.0509,18.30576 -66.3354,18.33962 -2.5831,0.0681 -25.1646,-19.35029 -25.1646,-21.63964 0,-0.70961 16.3573,-28.85464 36.3497,-62.5445 19.9923,-33.68987 36.8964,-62.29163 37.5647,-63.55948 1.0707,-2.03128 0.9103,-2.54487 -1.3497,-4.32258 -2.5403,-1.99824 -2.5647,-2.15389 -2.5647,-16.3858 0,-8.09558 0.4189,-14.62729 0.9595,-14.96139 0.5277,-0.32614 7.3902,-0.95978 15.25,-1.4081 16.586,-0.94605 22.9696,-2.88174 30.0462,-9.11086 2.4539,-2.15996 10.4877,-7.17333 17.8529,-11.14082 22.619,-12.18434 26.7147,-15.49938 31.9033,-25.82273 2.1475,-4.27254 2.2181,-5.22675 1.7031,-23 -0.4164,-14.37011 -1.1181,-21.40128 -3.1183,-31.24698 -4.3873,-21.59533 -8.5967,-55.09599 -8.5967,-68.41661 0,-4.71325 -0.2644,-5.4038 -2.25,-5.87659 -11.534,-2.74638 -52.0532,-11.50929 -52.1945,-11.28789 -0.1002,0.15704 -1.45,3.21053 -2.9996,6.78553 -9.9829,23.03091 -27.9194,44.93496 -43.0022,52.51437 -9.3796,4.71343 -21.4021,2.48411 -27.1346,-5.03153 -2.3073,-3.02511 -2.8032,-3.23308 -5.7162,-2.39763 -1.7543,0.50313 -4.5427,0.91039 -6.1963,0.90502 -4.1634,-0.0135 -12.7584,-4.19939 -15.0801,-7.34419 -1.8785,-2.54441 -2.0263,-2.57363 -5.9265,-1.17166 -8.6082,3.09428 -15.7854,1.33545 -22.6783,-5.55748 -4.6977,-4.69767 -5.1623,-4.9169 -10.419,-4.9169 -5.9593,0 -10.2908,-1.71982 -14.6823,-5.8296 -2.5582,-2.3941 -3.3944,-2.58194 -10.5,-2.35853 -9.1233,0.28685 -13.6626,-1.74728 -18.7325,-8.39446 -5.6391,-7.39335 -6.9877,-13.74617 -6.9878,-32.91742 -1e-4,-9.349996 0.2249,-19.699995 0.4999,-22.999995 l 0.5,-6 -16.007,-4.08476 c -8.8038,-2.24662 -17.0546,-4.64543 -18.335,-5.33068 -2.7794,-1.4875 -6.1054,-8.35813 -6.136,-12.67563 -0.033,-4.68287 2.4955,-12.08754 5.4516,-15.96325 2.5311,-3.31846 9.0328,-7.44568 11.7293,-7.44568 0.7053,0 9.0715,2.3018 18.5913,5.11512 9.5199,2.81331 17.4012,4.95081 17.514,4.75 0.1128,-0.20082 1.9383,-3.96512 4.0567,-8.36512 13.3289,-27.6846111 34.2186,-48.569434 50.2343,-50.222404 4.4635,-0.46067 6.2296,-0.10679 10.9202,2.188084 3.2382,1.58433 6.4649,4.06395 7.6593,5.88597 1.9952,3.0437 2.3007,3.14835 9.1925,3.14835 6.3661,0 7.6127,0.33616 11.652,3.1420197 2.4878,1.7281096 5.1514,4.3156092 5.919,5.7499992 1.2606,2.3554 1.9636,2.60798 7.2589,2.60798 7.0392,0 11.2568,1.61174 15.6105,5.96546 2.8871,2.8870901 3.5556,3.1340601 5.9698,2.2053801 8.7923,-3.3822301 16.3364,-1.9406701 22.9359,4.38275 4.3735,4.190611 4.5008,4.236981 10.2099,3.719291 7.1872,-0.65171 12.1595,0.90719 17.084,5.35617 7.7376,6.99046 10.5244,18.97948 9.7522,41.95493 l -0.5105,15.19001 7.6236,1.5213 c 4.1929,0.83671 7.6548,1.45006 7.693,1.363 5.41,-12.32884 39.9305,-95.44063 39.9305,-96.137 0,-0.56171 -1.0801,-1.02129 -2.4002,-1.02129 -1.9004,0 -3.0866,1.24914 -5.6977,6 -3.7801,6.8781889 -6.4877,8.3527189 -15.5042,8.4435589 -4.4518,0.0448 -6.2999,-0.45529 -9,-2.43566 -5.3103,-3.8947492 -8.9784,-5.3045592 -15.8134,-6.0778489 -5.8329,-0.65992 -6.8102,-1.14437 -12.457,-6.17509 -5.8414,-5.204094 -6.159,-5.727934 -6.8018,-11.218924 -0.3708,-3.16796 -1.1531,-7.53823 -1.7384,-9.7117 -0.9813,-3.64432 -1.4906,-4.08621 -6.546,-5.6798 -3.0151,-0.95041 -6.1703,-2.41638 -7.0116,-3.25771 -2.15,-2.14997 -1.9014,-7.04932 0.5597,-11.03145 3.3773,-5.46456 4.6196,-5.66495 14.4726,-2.33441 l 8.7879,2.97049 6.5751,-5.88905 c 4.1041,-3.67598 6.5059,-6.58677 6.3912,-7.74573 -0.1012,-1.02117 -0.891,-6.13168 -1.7553,-11.35668 -0.9028,-5.45762 -1.542,-15.03168 -1.5022,-22.499991 0.059,-11.15384 -0.2967,-14.25077 -2.507,-21.80747 -1.4169,-4.8441 -3.7211,-11.06668 -5.1203,-13.82795 -4.4509,-8.78349 -4.4813,-20.56472 -0.07,-27.06542 l 2.2579,-3.3273 -2.3598,-5.20063 c -2.519,-5.5513 -3.2241,-5.9386 -16.8791,-9.2723 -4.9379,-1.20553 -8.5934,-3.92958 -12.4882,-9.30622 -3.5303,-4.87346 -3.7461,-9.46786 -0.7938,-16.90569 1.1541,-2.90786 3.1781,-11.93655 4.4977,-20.06375 1.3196,-8.1272 3.0144,-16.2272 3.7663,-18 2.4882,-5.8665 14.3874,-20.87014 19.8061,-24.97334 2.9322,-2.22041 8.7063,-5.65999 12.8313,-7.64352 7.3817,-3.54954 7.6971,-3.60641 20,-3.60641 9.5736,0 13.8532,0.44396 18.28,1.89633 12.9408,4.24568 24.4206,15.07966 32.9578,31.10367 l 4.2622,8 -0.043,12.5 c -0.049,14.2812 -1.6506,21.20612 -6.4309,27.80514 -1.6644,2.29765 -3.0262,4.41609 -3.0262,4.70764 0,0.29156 1.2247,2.38076 2.7216,4.64268 l 2.7216,4.11257 8.5284,-0.57492 c 6.4627,-0.43566 9.4973,-0.19545 12.5284,0.99172 2.2144,0.86727 9.3569,1.91424 16,2.3453 16.8947,1.09629 24.2017,3.90651 32.4254,12.47066 l 6.072,6.32345 15.7513,0.36159 c 15.1375,0.34749 16.0436,0.48718 23.2513,3.58452 4.125,1.77262 10.2,5.06775 13.5,7.32251 7.2912,4.98183 14.881,8.89019 25.2123,12.98309 13.2799,5.26107 13.6823,5.53915 16.589,11.46587 2.8445,5.79969 3.3918,10.29454 1.65,13.54919 -0.5768,1.07774 -2.6055,9.84657 -4.5083,19.48629 -3.8402,19.454901 -4.8718,22.514331 -9.9015,29.366201 -3.8481,5.24216 -3.4089,7.05649 1.7082,7.05649 4.0208,0 7.5407,2.0998 12.8599,7.67154 6.7124,7.03104 10.2125,12.68629 15.7564,25.45808 7.3105,16.841894 8.2784,20.713624 8.8422,35.3703829 0.7454,19.3798911 -1.9739,28.7781211 -16.0588,55.5000011 -3.9136,7.425 -9.6454,19.19033 -12.7374,26.145169 -6.4687,14.550396 -14.9747,30.851246 -18.6165,35.676816 -2.9959,3.96964 -4.9501,4.87479 -7.324,3.39227 -1.3879,-0.86673 -2.1209,-0.7066 -3.4406,0.75161 -1.5733,1.73848 -1.5643,1.88512 0.1461,2.3725 11.8551,3.37823 210.4315,49.01791 214.9236,49.39685 4.5791,0.38628 8.5693,-0.12044 16,-2.0319 18.5589,-4.77407 30.7236,-5.55298 38.8994,-2.49075 1.65,0.61801 7.7625,4.19801 13.5834,7.95555 5.8209,3.75754 11.471,6.83189 12.5559,6.83189 1.0848,0 4.7318,0.93188 8.1045,2.07085 4.5527,1.53748 7.2013,3.23075 10.2833,6.57433 6.6969,7.26529 8.4306,12.15773 8.4534,23.85482 0.018,9.3101 -0.212,10.48293 -3.3367,17 l -3.3563,7 -0.8291,36 c -0.4561,19.8 -1.0685,45.27474 -1.361,56.61054 l -0.5318,20.61054 31.4672,15.35824 31.4672,15.35824 0,18.14508 0,18.14508 -16.6647,5.75443 c -15.5814,5.38032 -16.8329,5.65881 -19.25,4.28371 -1.4219,-0.80889 -22.6972,-12.58418 -47.2784,-26.16731 l -44.693,-24.69659 -100.7629,28.58827 c -55.4195,15.72354 -100.881,28.70647 -101.0255,28.85094 -0.1445,0.14447 2.9414,18.91431 6.8575,41.71075 l 7.1203,41.44808 -3.64,5.6838 c -2.0021,3.1261 -4.0142,5.91503 -4.4715,6.19765 -0.5944,0.36737 -239.1479,73.35255 -252.2127,77.16419 -0.9492,0.27691 -5.9304,-3.97721 -13.25,-11.31597 z m 138.6045,-31.77761 c 116.9806,-35.66087 123.3065,-37.70742 125.9554,-40.74932 1.534,-1.76151 3.0484,-4.22761 3.3653,-5.48023 0.6185,-2.4441 -13.0578,-84.68103 -15.1009,-90.80298 -0.2509,-0.75211 -4.5685,-0.5362 -14.207,0.71046 -7.6155,0.98501 -14.5384,1.80872 -15.3841,1.83047 -1.3179,0.0339 -0.8129,5.00142 3.5304,34.73169 l 5.0682,34.69215 6.9551,3.76446 c 3.8253,2.07046 7.0978,4.19275 7.2723,4.71621 0.794,2.38202 -2.24,1.89513 -8.9835,-1.44162 l -7.316,-3.62004 -86.4944,24.1587 c -47.5719,13.28728 -89.4988,25.04073 -93.1708,26.11877 l -6.6764,1.96008 -1.7193,5.22957 c -0.9456,2.87626 -1.9214,5.77798 -2.1685,6.44827 -0.2768,0.75056 2.9243,0.0783 8.3332,-1.75 10.1096,-3.41727 11.6769,-3.59977 11.2307,-1.30774 -0.218,1.12029 -3.566,2.74787 -10.285,5 -9.9678,3.34109 -14.5383,4.11336 -14.5383,2.45652 0,-0.72621 41.9953,-129.33567 43.586,-133.48113 0.4066,-1.05934 -9.963,-10.40078 -23.1299,-20.83667 -2.1289,-1.68735 -2.1687,-1.63393 -5.2186,7 -1.6903,4.78518 -14.605,40.87532 -28.6993,80.20032 -14.0942,39.325 -26.1413,72.94801 -26.7713,74.7178 -1.1371,3.19464 -1.0739,3.29279 8.7939,13.64042 5.4665,5.73244 10.5393,10.24662 11.2728,10.03152 0.7334,-0.21511 56.7584,-17.28706 124.5,-37.93768 z m 0.1664,-40.12636 c 48.4,-13.50868 88.2906,-24.84573 88.6458,-25.19346 0.6565,-0.64269 -8.7959,-67.11569 -9.6677,-67.98752 -0.2618,-0.26172 -29.6034,2.49927 -65.2036,6.13554 l -64.7278,6.61138 -3.1935,-2.43584 -3.1936,-2.43584 -6.5134,19.74002 c -17.2742,52.35195 -29.6462,90.25572 -29.6462,90.8261 0,0.87333 -4.1834,2.00352 93.5,-25.26038 z m -164.1423,-68.09981 65.8578,-18.72589 4.485,-12.38447 4.4851,-12.38448 -2.3428,-2.28278 -2.3428,-2.28279 -53,12.18444 -53,12.18444 -3.1793,5.97023 c -1.7485,3.28362 -3.062,6.08742 -2.9188,6.23066 0.1433,0.14324 3.5736,-0.86643 7.623,-2.24371 4.9391,-1.6799 7.6937,-2.17292 8.3688,-1.49785 0.6354,0.63543 0.6562,1.35405 0.056,1.94983 -1.1902,1.18214 -17.7315,7.05648 -19.87,7.05648 -3.7963,0 -3.2801,-1.06353 28.0558,-57.81097 12.8503,-23.27104 23.3412,-42.62104 23.313,-43 -0.028,-0.37897 -4.3292,-4.24688 -9.5579,-8.59537 -8.0102,-6.66168 -9.7081,-7.68494 -10.7858,-6.5 -0.9027,0.99261 -69.5244,116.28676 -73.2355,123.04595 -0.5784,1.05341 18.7459,17.86238 20.5054,17.83628 0.8937,-0.0133 31.261,-8.45076 67.4827,-18.75 z m 174.9232,-22.22511 c 32.0205,-3.29957 68.2316,-7.19449 80.4691,-8.65538 l 22.25,-2.65615 0,-10.42408 0,-10.42408 -2.75,0.51789 c -1.5125,0.28483 -37.4,3.77561 -79.75,7.75728 -42.35,3.98166 -77.2799,7.49687 -77.6219,7.81157 -0.7671,0.70568 -2.0619,22.07217 -1.3377,22.07217 0.2868,0 26.72,-2.69965 58.7405,-5.99922 z m -62.4992,-7.71502 -0.2817,-11.71425 -24.5,-20.22236 -24.5,-20.22236 -0.6449,10.6866 -0.6449,10.68661 6.5125,6 c 8.6669,7.9849 42.5676,36.33524 43.559,36.42736 0.43,0.0399 0.655,-5.19877 0.5,-11.6416 z m 273.9419,-24.74197 101.007,-28.62773 45.8847,25.429 45.8847,25.429 0.5658,-14.13703 c 0.3111,-7.77537 0.3111,-14.41945 0,-14.76464 -0.3112,-0.34518 -18.4533,-9.71795 -40.3158,-20.82837 l -39.75,-20.20077 0.015,-3.17163 c 0.01,-1.74439 0.9014,-26.57162 1.9853,-55.17162 1.0839,-28.6 1.9773,-56.1625 1.9853,-61.25 l 0.015,-9.25 -4.25,-0.008 c -7.8695,-0.014 -17.2138,-2.09547 -22.6705,-5.04992 -2.9813,-1.61417 -5.6213,-2.7341 -5.8666,-2.48873 -0.2454,0.24538 -0.8588,21.50615 -1.3632,47.24617 -0.5043,25.74002 -1.2393,52.41266 -1.6333,59.27254 l -0.7164,12.47297 -102.1758,25.02748 c -56.1967,13.76512 -102.4168,25.27259 -102.7113,25.57216 -0.2946,0.29958 3.947,3.14789 9.4258,6.32959 l 9.9613,5.7849 0.014,13.67042 c 0.015,14.70637 0.5493,18.55212 2.4761,17.81274 0.6747,-0.25894 46.68,-13.35328 102.2338,-29.09853 z m -350.3658,9.79177 29.8579,-6.81004 -3.6079,-3.11874 -3.6078,-3.11873 0,-14.58501 c 0,-8.02175 0.4181,-14.84342 0.9292,-15.15927 0.511,-0.31584 11.8735,-1.69847 25.25,-3.07251 22.1279,-2.27299 34.4741,-4.10997 29.3208,-4.3626 -1.1,-0.0539 -19.775,1.69717 -41.5,3.89134 -21.725,2.19417 -40.2686,3.99178 -41.208,3.9947 -0.9394,0.003 -6.2075,-3.80912 -11.7069,-8.4712 l -9.9989,-8.4765 -5.4203,9.7265 c -9.5178,17.07942 -32.3481,58.61493 -33.9864,61.83203 l -1.5814,3.10552 18.7009,-4.28272 c 10.2856,-2.3555 32.137,-7.34724 48.5588,-11.09277 z m 561.6422,8.26301 12.5,-4.3694 0.2779,-14.19083 0.2779,-14.19084 -2.2779,0.72959 c -6.1366,1.9655 -24.0808,7.42291 -24.4068,7.42291 -0.2041,0 -0.3711,6.525 -0.3711,14.5 0,7.975 0.3375,14.49279 0.75,14.48399 0.4125,-0.009 6.375,-1.98225 13.25,-4.38542 z M 2990.584,411.81523 c 40.0889,-3.82317 73.0677,-7.13008 73.2863,-7.34869 0.3811,-0.38105 -12.6125,-8.14192 -26.9918,-16.1218 l -6.8166,-3.78291 -2.6834,2.50914 c -5.6201,5.25511 -16.0259,8.59322 -36.6834,11.76775 -17.0093,2.6139 -33.2652,6.32984 -39.2242,8.96625 -9.7412,4.30975 -29.0961,5.13302 -34.6788,1.47509 -1.4614,-0.9576 -4.7811,-2.13682 -7.3771,-2.6205 -2.5959,-0.48369 -9.2869,-3.10882 -14.8688,-5.83364 -7.7459,-3.78118 -10.6464,-5.75918 -12.25,-8.35389 -3.5921,-5.81211 -2.4124,-13.19181 2.7952,-17.48601 1.3768,-1.13534 1.1086,-1.24518 -1.8963,-0.77646 -1.925,0.30027 -8.4428,1.03817 -14.484,1.63978 -6.0413,0.60161 -11.0724,1.18215 -11.1803,1.2901 -0.108,0.10794 11.3598,9.75528 25.484,21.43852 l 25.6803,21.24227 4.5,-0.52689 c 2.475,-0.28979 37.3,-3.65494 77.3889,-7.47811 z m -39.7209,-10.63128 c 5.6033,-1.8553 15.9578,-4.23954 23.0099,-5.29831 7.0522,-1.05877 17.9971,-2.6867 24.3221,-3.61764 13.2605,-1.95173 20.9081,-4.51216 25.3612,-8.491 2.7753,-2.47973 3.1388,-3.422 3.1388,-8.13654 0,-3.44848 -0.734,-6.74504 -2.0778,-9.33203 -1.1428,-2.2 -4.3634,-8.38026 -7.1569,-13.73392 -6.7888,-13.01042 -7.7258,-18.70591 -6.2746,-38.1417 0.8659,-11.5967 2.0465,-18.50305 5.4836,-32.07793 6.2576,-24.71436 6.911,-30.41886 6.1812,-53.96089 -0.8203,-26.45998 -1.9358,-32.47842 -8.449,-45.58556 -5.5235,-11.11541 -8.1238,-22.29681 -6.8117,-29.29076 0.7398,-3.94355 8.8804,-17.95817 16.8831,-29.06535 l 5.6603,-7.8561 -1.4549,-3.48209 c -1.842,-4.40854 -5.9325,-9.58141 -12.2473,-15.48819 -8.8079,-8.238766 -18.0487,-11.607016 -34.3257,-12.511666 -5.8244,-0.32371 -12.1284,-0.29991 -14.009,0.0529 l -3.4192,0.64145 -2.8516,11.191136 c -1.5684,6.15514 -4.3685,15.9426 -6.2226,21.74992 -2.6221,8.21269 -3.3752,12.29178 -3.3895,18.35842 -0.021,9.0633 1.198,12.10671 7.4926,18.70034 5.4687,5.72855 12.6071,15.99993 11.9069,17.13284 -1.1371,1.83994 -4.0034,0.70892 -7.9034,-3.11866 l -4.0613,-3.98582 0.2643,21.73582 c 0.2836,23.32884 1.1949,31.57701 6.9113,62.55342 1.947,10.55032 4.2291,23.0074 5.0714,27.6824 1.0892,6.04592 1.3735,11.96459 0.9845,20.5 -0.5941,13.03348 -2.1567,19.84699 -8.2711,36.06475 l -3.7946,10.06475 -8.1343,4.26129 c -4.4739,2.34371 -12.1405,7.2236 -17.0369,10.84421 -11.6343,8.60285 -18.4834,11.69479 -32.4038,14.62829 -10.0765,2.12348 -11.7924,2.79072 -14.25,5.54122 -3.7155,4.15837 -3.5834,7.24915 0.456,10.67014 4.4359,3.75677 14.8023,8.34191 20.529,9.08015 2.6135,0.3369 5.7157,1.51132 6.9493,2.63077 5.0871,4.61671 18.3196,4.2619 33.9397,-0.91005 z m 44.0758,-37.30487 c 7.924,-5.74013 8.7143,-8.71667 4.7151,-17.75944 -2.5034,-5.66075 -2.9114,-9.81121 -0.9644,-9.81121 1.4548,0 5.5243,10.86305 6.1969,16.54203 1.0314,8.70896 -3.2215,13.95797 -11.3093,13.95797 -2.5997,0 -2.5578,-0.0901 1.3617,-2.92935 z m 9.4795,-95.74623 c -1.9963,-0.79573 -5.1581,-7.7596 -7.335,-16.15534 -2.3205,-8.94981 -3.9164,-36.16908 -2.1206,-36.16908 1.4206,0 2.1045,3.4139 3.6417,18.17815 1.0591,10.17234 1.9378,13.90284 5.0234,21.32547 4.8723,11.72066 5.0447,14.51656 0.7905,12.8208 z m -16.2928,-93.74064 c 2.2654,-2.72962 3.0557,-7.75291 1.9258,-12.24012 -0.6015,-2.38901 -1.2832,-4.34366 -1.5148,-4.34366 -0.2317,0 -2.2032,0.90915 -4.3813,2.02032 -2.1781,1.11118 -3.9602,1.59793 -3.9602,1.08166 0,-0.51627 2.0259,-3.31203 4.5019,-6.2128 2.4761,-2.90076 5.3614,-7.55001 6.4119,-10.33165 1.48,-3.91895 2.0703,-4.65373 2.6219,-3.26384 0.3915,0.98652 0.3728,3.46152 -0.042,5.5 -0.9486,4.6663 -0.9473,7.074 0.01,15.3512 1.0141,8.78359 0.2766,11.38787 -3.608,12.74205 -2.6266,0.91566 -2.9359,0.86792 -1.964,-0.30316 z m -1.4114,-55.83378 c -3.2628,-7.22708 -6.9345,-21.22516 -6.1224,-23.341366 1.0051,-2.61923 2.0367,-0.8172 4.9185,8.591366 1.4319,4.675 3.9803,10.66662 5.6631,13.31472 3.2212,5.06872 3.1987,6.68528 -0.093,6.68528 -1.4406,0 -2.6561,-1.46144 -4.3665,-5.25 z m 399.3573,275.12992 c 5.843,-1.71604 10.9265,-3.40354 11.2967,-3.75 0.3702,-0.34646 -12.4548,-7.01928 -28.5,-14.82851 l -29.1731,-14.19858 0,-19.30142 c 0,-10.61577 0.3642,-36.04716 0.8094,-56.51418 l 0.8093,-37.21278 -4.6038,2.57311 c -3.9607,2.21371 -5.5435,2.52001 -11.3317,2.19295 -7.7165,-0.43602 -11.5301,-2.57579 -16.282,-9.13557 -5.6562,-7.80825 -7.5885,-21.78072 -4.4528,-32.19974 1.8005,-5.98245 6.6317,-13.13684 11.3146,-16.7552 3.8884,-3.00447 2.2647,-3.85668 -2.5627,-1.34501 -8.0537,4.19037 -12.6693,14.97718 -13.7331,32.09501 -0.7258,11.67767 -4.4672,116.895 -4.4672,125.62679 l 0,6.69007 38.25,19.47529 c 21.0375,10.71142 39.0944,19.52762 40.1264,19.59157 1.032,0.064 6.657,-1.28776 12.5,-3.0038 z m -255.3764,-24.87529 c 45.1,-11.03245 82.4097,-20.18335 82.9105,-20.33531 0.5007,-0.15197 -5.6868,-3.98204 -13.75,-8.51128 l -14.6605,-8.23497 0,-13.92635 c 0,-12.24387 0.2114,-14.03819 1.75,-14.85206 0.9625,-0.50915 7.2038,-2.55218 13.8694,-4.54007 l 12.1195,-3.61436 21.072,9.89761 21.072,9.89761 0.5296,-5.14272 c 0.2913,-2.8285 0.6552,-24.25601 0.8086,-47.61668 l 0.2789,-42.47395 -4.5,-2.48898 c -3.4104,-1.88628 -32.9183,-8.82472 -121.8611,-28.65412 l -117.361,-26.16515 0.5615,3.45998 c 0.3088,1.90299 3.0865,8.71062 6.1726,15.12807 7.2497,15.07528 8.4752,22.61565 8.4789,52.1681 0,23.80667 -0.5841,28.46759 -7.005,55.61463 -3.1038,13.12259 -4.1375,19.81104 -4.639,30.01422 -0.8045,16.36679 -0.1838,19.04233 8.4102,36.25256 6.0551,12.1261 6.6957,13.995 6.8281,19.92218 l 0.1461,6.54077 7.2929,4.23558 c 4.0112,2.32956 7.7841,4.0664 8.3844,3.85964 0.6003,-0.20676 37.9914,-9.40249 83.0914,-20.43495 z m -257.0099,-2.68268 47.9901,-4.74896 14.0099,-9.31275 14.0099,-9.31276 -7.5,0.56498 c -10.5089,0.79165 -111.5612,6.48754 -115.0972,6.48754 l -2.9028,0 0,10.5 c 0,5.775 0.3375,10.51596 0.75,10.53546 0.4125,0.0195 22.3456,-2.10158 48.7401,-4.71351 z m -53.4901,-6.73645 0,-9.4145 -19.75,-17.32701 c -10.8625,-9.52986 -21.4375,-18.8457 -23.5,-20.70186 l -3.75,-3.37485 0,10.52387 0,10.52387 23.25,19.52221 c 12.7875,10.73721 23.3625,19.55384 23.5,19.59249 0.1375,0.0387 0.25,-4.16625 0.25,-9.34422 z m 68,-16.59462 c 64.574,-3.54933 68.0021,-3.81787 67.9928,-5.3262 0,-0.64057 -7.2325,-5.79176 -16.0635,-11.44709 l -16.0562,-10.28241 -1.9033,2.28241 c -1.0468,1.25533 -1.9182,2.60835 -1.9365,3.00673 -0.018,0.39838 -1.361,1.41088 -2.9836,2.25 -4.4229,2.28717 -12.8524,1.87136 -22.2481,-1.09744 -7.6458,-2.4159 -9.289,-2.58262 -20.8016,-2.11046 -8.6639,0.35534 -16.9207,1.47509 -26.9049,3.64871 -21.035,4.57943 -27.1062,5.2809 -34.9207,4.03479 -13.832,-2.20567 -22.1744,-8.82052 -22.1744,-17.58247 l 0,-4.33679 -6.25,0.62463 c -3.4375,0.34355 -6.3305,0.67961 -6.4288,0.7468 -0.098,0.0672 9.9463,9.01345 22.3213,19.88058 l 22.5001,19.75842 6.1787,-0.55478 c 3.3983,-0.30513 30.2537,-1.87807 59.6787,-3.49543 z m 348.7762,0.87004 c 6.9981,-1.72649 13.0644,-3.43955 13.4806,-3.8068 0.4162,-0.36726 -12.774,-7.55193 -29.3116,-15.96596 -16.5377,-8.41402 -30.2161,-15.13846 -30.3964,-14.94319 -0.1804,0.19527 -0.4902,4.80395 -0.6884,10.24151 l -0.3604,9.88648 15.5,8.7704 c 8.525,4.82372 16.2993,8.8123 17.2762,8.86352 0.977,0.0512 7.502,-1.31946 14.5,-3.04596 z m 19.2238,-15.19971 0,-8.33878 -21.8627,-10.12379 -21.8627,-10.12379 -9.1438,2.65602 c -5.0953,1.48001 -8.7636,3.03635 -8.2849,3.51501 1.0281,1.0281 59.3253,30.68033 60.4041,30.72386 0.4125,0.0166 0.75,-3.72219 0.75,-8.30853 z m -294.6307,-3.07741 c 1.5573,-4.07891 3.5946,-11.96454 4.5272,-17.52362 2.1886,-13.04552 1.5229,-20.19032 -4.8504,-52.06018 -5.512,-27.56241 -6.7574,-39.11196 -7.5485,-70 -0.6119,-23.89219 -0.9851,-27.11276 -3.6482,-31.47969 -1.0131,-1.66117 -1.8436,-3.79924 -1.8457,-4.75126 0,-0.97013 -0.9927,-1.96306 -2.2537,-2.25904 -11.3833,-2.67176 -24.2381,-5.35524 -24.4825,-5.1108 -0.166,0.16592 0.1471,3.40648 0.6956,7.20124 0.5485,3.79475 1.0062,13.78572 1.0171,22.20214 0.025,19.32183 -1.6541,27.72381 -6.6443,33.24742 -3.1083,3.44049 -3.5656,4.7231 -4.5968,12.89285 -0.9528,7.54847 -0.8433,12.13634 0.6518,27.31471 2.3582,23.94123 4.051,32.66596 8.0988,41.74243 4.4937,10.07625 5.7773,15.37379 5.0608,20.88592 l -0.5998,4.61408 16.2747,10.2397 c 8.951,5.63183 16.5081,10.24433 16.7935,10.25 0.2854,0.006 1.7931,-3.32699 3.3504,-7.4059 z m -125.3672,-5.6004 c 15.443,-4.4376 28.8824,-6.9834 36.8657,-6.9834 4.1757,0 12.4823,1.21378 20.3595,2.97501 15.8606,3.54621 19.4452,3.30097 23.7714,-1.62633 4.2709,-4.86429 4.6907,-7.69309 2.0378,-13.73241 -4.9652,-11.30366 -7.0019,-19.93709 -10.0777,-42.71921 -2.5445,-18.84705 -3.0699,-25.68208 -2.7018,-35.14706 0.3675,-9.45174 0.1915,-11.75 -0.9001,-11.75 -2.105,0 -1.7128,-0.7487 3.5785,-6.83223 7.3841,-8.48971 9.5745,-16.91452 9.5334,-36.66777 -0.018,-8.45879 -0.5918,-17.49848 -1.3167,-20.72939 -1.5066,-6.71569 2.2174,-5.23744 -32.1521,-12.76302 -12.925,-2.83007 -24.1969,-5.34111 -25.0487,-5.58008 -1.3568,-0.38066 -1.4481,0.65005 -0.7367,8.319 1.3164,14.19026 5.6567,45.40052 9.005,64.75349 2.6808,15.49491 3.1086,20.37051 3.0741,35.03297 -0.038,16.2168 -0.1618,17.27315 -2.5799,22.0451 -4.94,9.74863 -10.2982,14.40129 -26.408,22.93075 -17.0207,9.0117 -22.404,12.47552 -27.304,17.56847 -2.2346,2.3226 -5.4921,4.28017 -9.0018,5.40967 -10.0435,3.23218 -11.2848,6.22828 -5.1301,12.38293 6.9422,6.94226 18.3039,7.94916 35.1322,3.11351 z m 57.2479,-17.64568 c -2.4155,-0.97466 -1.215,-2.33772 2.0589,-2.33772 5.8568,0 7.0514,-1.721 6.3053,-9.08329 -0.3577,-3.52919 -0.8911,-9.11671 -1.1854,-12.41671 l -0.5351,-6 3.0531,8.45195 c 4.0165,11.11847 3.8971,18.44922 -0.3465,21.28274 -1.2253,0.81812 -7.4092,0.88626 -9.3503,0.10303 z m -5.9611,-100.13802 c -0.6661,-0.42332 -2.2274,-3.00393 -3.4695,-5.73469 -2.6497,-5.82532 -3.0016,-18.05292 -0.824,-28.63547 1.5639,-7.60062 2.5933,-9.82954 4.5398,-9.82954 1.881,0 1.8448,2.81161 -0.1417,11 -0.8673,3.575 -1.6481,9.65 -1.7352,13.5 -0.1323,5.8504 0.3044,7.94216 2.6588,12.73688 3.1783,6.47234 2.7512,9.36466 -1.0282,6.96282 z m 444.0624,46.71975 c 9.435,-2.61983 16.6487,-14.88531 16.6487,-28.30774 0,-8.38319 -1.1296,-12.36497 -5.2111,-18.36816 -8.4921,-12.49056 -24.7212,-10.09765 -32.2589,4.75645 -2.859,5.63397 -3.73,9.60961 -3.73,17.02552 0,10.71692 4.9004,20.1322 12.4138,23.85129 4.8529,2.40213 6.6771,2.55883 12.1375,1.04264 z m -35.9173,-29.9467 c 1.3054,-13.24716 5.8131,-22.87148 13.1953,-28.17302 l 4.4742,-3.21308 -2.3018,-1.7991 c -1.2659,-0.9895 -5.3997,-3.3715 -9.1861,-5.29332 -5.9925,-3.04158 -7.8271,-3.49423 -14.162,-3.49423 -7.2131,0 -16.8806,1.58349 -27.4215,4.49152 -12.2943,3.39173 -12.1213,3.42364 -127.8923,-23.59412 l -107.5644,-25.1026 -2.2046,2.76479 c -2.2666,2.84261 -10.3708,18.56059 -10.3708,20.11407 0,0.47804 53.1651,12.69611 118.1448,27.15127 70.5126,15.68603 119.7998,27.1155 122.25,28.34919 2.2578,1.1369 7.2487,4.14285 11.0908,6.67991 9.0585,5.98159 15.2791,8.07272 24.1352,8.11332 l 7.1208,0.0326 0.6924,-7.02725 z m -542.1014,-49.62272 c 6.8067,-3.42471 19.7251,-16.58513 26.9313,-27.43586 19.1008,-28.76089 30.639,-70.543235 26.8488,-97.225095 -2.5738,-18.11884 -11.6504,-27.73298 -23.2614,-24.63885 l -3.6488,0.97232 1.5683,4.73873 c 2.3678,7.15479 2.3087,35.00752 -0.098,46.23872 -4.2389,19.779909 -14.3044,45.018245 -23.9877,60.146855 -8.2826,12.94015 -17.0544,22.38111 -27.9991,30.13493 -1.7338,1.22829 -1.7151,1.41129 0.4214,4.12738 1.2296,1.56315 4.071,3.69686 6.3142,4.74157 5.0041,2.33048 9.6927,1.83123 16.9112,-1.8007 z m -28.683,-8.76726 c 11.7114,-5.45297 28.0897,-24.93209 37.9061,-45.08277 6.4558,-13.25218 13.8278,-35.023575 15.9181,-47.010235 1.9917,-11.42126 1.9785,-30.60631 -0.027,-39.42445 -3.3696,-14.81522 -12.9716,-21.915701 -24.2974,-17.967491 -3.6324,1.266241 -3.5956,1.091101 -1.7331,8.241721 5.5932,21.4737 1.1288,51.90257 -12.1278,82.660455 -8.6795,20.13843 -17.6786,33.50664 -30.8529,45.83266 l -8.3831,7.84331 2.7238,2.52817 c 1.4981,1.39049 3.6238,3.02471 4.7239,3.6316 3.4003,1.87603 10.6348,1.31474 16.1495,-1.25297 z m -28.5959,-7.28317 c 7.1642,-3.55216 19.9472,-16.41237 27.2209,-27.38543 10.6217,-16.02371 21.0018,-41.352106 25.3736,-61.914175 2.4941,-11.73042 2.5653,-36.19713 0.1283,-44.06283 -2.4044,-7.76044 -5.5529,-12.063461 -10.7465,-14.6871711 -4.0657,-2.05397 -9.9683,-2.97836 -11.1936,-1.75301 -0.2734,0.27334 0.1431,3.5358401 0.9255,7.2500001 2.0456,9.710981 1.1203,34.875871 -1.7008,46.253011 -5.3808,21.70064 -15.0333,44.639505 -24.9977,59.406055 -6.4994,9.63174 -17.3441,21.16625 -24.5965,26.1612 -3.0068,2.07085 -5.4669,4.05211 -5.4669,4.4028 0,0.8996 6.101,6.54691 8.5,7.86786 3.6337,2.00085 10.7493,1.33961 16.5537,-1.53831 z m -25.4631,-11.41141 c 6.5399,-3.21168 20.7971,-17.52158 27.2872,-27.38819 18.7405,-28.490216 30.3954,-69.659405 27.1391,-95.864425 -2.3371,-18.8066911 -8.2327,-26.6355807 -20.0581,-26.6355807 -4.4213,0 -5.0797,0.24262 -4.5319,1.6700696 3.3265,8.66864 3.919,31.9456611 1.2047,47.3299311 -4.9224,27.90061 -19.2167,59.468495 -35.5936,78.605795 -5.3156,6.21159 -13.9919,14.03796 -18.869,17.02048 -1.162,0.71062 2.4565,4.48333 6.0528,6.31065 5.2375,2.66129 10.4557,2.34622 17.3688,-1.04873 z m 276.6018,-9.13819 c 0.2887,-6.19679 1.0125,-10.35342 2.193,-12.59293 0.9691,-1.83861 1.5932,-3.51179 1.3868,-3.71817 -0.5662,-0.56626 -86.9575,-20.442566 -88.7323,-20.414916 -0.9583,0.0149 -2.6732,2.753116 -4.5406,7.250006 -2.2651,5.45456 -3.5279,7.30116 -5.1509,7.53257 -1.7821,0.25409 -2.4318,-0.54172 -3.7962,-4.64948 -2.2112,-6.65735 -6.9613,-13.628796 -10.9774,-16.110856 -2.8851,-1.78307 -16.7186,-5.22858 -24.9202,-6.20684 -2.8227,-0.33669 -2.8719,-0.24776 -6.1691,11.16061 -1.828,6.324996 -3.6183,12.248696 -3.9785,13.163766 -0.5333,1.35516 0.3327,1.87576 4.6691,2.80668 2.9281,0.62861 35.0239,7.82013 71.3239,15.98117 36.3,8.16104 66.5088,14.88553 67.1307,14.94332 0.7393,0.0687 1.2799,-3.09694 1.5617,-9.14493 z m -302.9392,1.13586 c 5.8773,-2.97756 21.3359,-18.76119 27.7482,-28.3316 10.3505,-15.448226 20.5814,-40.122775 25.1728,-60.710545 3.0213,-13.54782 3.2801,-38.083731 0.4958,-47.0188211 -2.0567,-6.6003392 -5.0186,-11.2878489 -8.9933,-14.2329489 -4.1768,-3.09476 -13.5615,-2.90467 -20.1451,0.40805 -6.3761,3.20828 -19.5701,16.3341589 -26.2737,26.137979 -5.6437,8.253581 -14.2579,24.095791 -14.2579,26.221191 0,0.84385 3.5488,2.10259 9.9698,3.53621 l 9.9697,2.22599 1.0247,3.68931 c 1.7198,6.19208 1.2226,13.24718 -1.317,18.68932 -3.0045,6.43808 -9.8147,12.74781 -12.916,11.96675 -1.2271,-0.30906 -5.8312,-1.60832 -10.2312,-2.88723 -5.7085,-1.65925 -8.1905,-2.00099 -8.665,-1.19307 -1.4462,2.46224 -3.0693,22.609389 -2.5454,31.596205 1.5619,26.79471 13.7898,38.60385 30.9636,29.90321 z m -12.2455,-11.63586 c 0,-0.4125 1.9093,-1.83643 4.2336,-3.16428 16.7768,-9.58482 33.879,-39.319985 42.4793,-73.857705 2.2744,-9.13406 2.673,-12.88242 2.6829,-25.22802 0.01,-10.440451 -0.4721,-16.4309411 -1.7157,-21.3969711 -1.5717,-6.2760196 -1.6154,-8.8639689 -0.1246,-7.3731392 1.6665,1.6664692 3.5683,12.7676592 4.0722,23.7701103 0.9919,21.65626 -4.155,42.91183 -16.6798,68.884649 -6.7688,14.036606 -12.3786,22.322276 -20.1176,29.713676 -7.1955,6.87239 -14.8579,11.34249 -14.8303,8.65168 z m 416.4766,-24.30132 c 2.9332,-5.803216 6.8893,-14.578216 8.7913,-19.499995 1.902,-4.92178 7.2918,-16.60386 11.9774,-25.96019 10.1067,-20.18116 12.6962,-27.89532 13.4557,-40.08364 0.8439,-13.5448411 -0.9971,-23.72679 -6.944,-38.404864 -5.0747,-12.52527 -10.0275,-20.96447 -16.5232,-28.15448 -4.1444,-4.58729 -5.4658,-4.90002 -3.971,-0.93975 0.9497,2.51604 0.6736,3.75665 -2.059,9.25 -1.7358,3.48932 -5.0684,8.55772 -7.4059,11.2631 -5.0091,5.79759 -17.9355,15.609534 -25.7661,19.558194 -6.9935,3.52658 -18.2355,7.0229393 -22.581,7.0229393 -2.9456,0 -3.8295,0.7110596 -7.6446,6.1498396 -2.3727,3.38242 -4.1567,6.41992 -3.9645,6.75 0.1922,0.33009 8.2922,3.4480901 18,6.9288901 9.7078,3.480801 18.4381,7.038041 19.4006,7.904991 2.3684,2.13323 2.2736,8.89526 -0.181,12.92085 -3.1085,5.09784 -5.7783,5.01867 -21.5529,-0.63907 -7.6911,-2.75853 -14.4623,-5.0155 -15.047,-5.0155 -0.5848,0 -2.842,1.83785 -5.0162,4.08411 -3.588,3.7071 -4.3259,4.04372 -7.9931,3.64649 -2.2221,-0.24069 -5.5971,-1.13899 -7.5,-1.99622 -1.9029,-0.85723 -5.0348,-1.82724 -6.9598,-2.15559 -4.3925,-0.74922 -14,-5.16704 -14,-6.43763 0,-0.52492 -1.7144,-0.7209 -3.8272,-0.43751 -2.7157,0.36424 -5.0348,-0.10276 -7.9854,-1.60802 -5.8793,-2.99942 -7.595,-6.00599 -6.8787,-12.054041 l 0.5798,-4.8956401 -5.9443,-2.0074 -5.9442,-2.0074 0,3.57572 c 0,2.8997401 -0.7013,4.1634201 -3.7098,6.6844301 -6.8245,5.718761 -27.2902,26.993061 -27.2902,28.368441 0,0.74706 0.4453,1.08307 0.9896,0.74668 2.2054,-1.36301 13.1004,1.74773 22.6843,6.47679 12.6193,6.22684 22.7756,15.46278 27.0576,24.60562 2.3731,5.06698 2.7505,7.08348 2.6426,14.119839 l -0.1259,8.20867 5.9168,-5.20867 c 6.0591,-5.33399 8.7116,-9.844689 13.7008,-23.298749 l 2.2584,-6.09009 -2.1129,-8.27572 c -1.1622,-4.55165 -1.9347,-8.454 -1.7168,-8.6719 0.69,-0.69008 10.0829,14.05906 9.9524,15.62779 -0.069,0.825 -1.9785,7.2677 -4.2442,14.3171 -2.4161,7.51744 -3.9732,14.133179 -3.7658,15.999999 l 0.3537,3.1829 0.748,-3 c 2.2155,-8.885589 4.385,-9.824869 20.6614,-8.945289 13.569,0.73327 23.273,2.523589 28.7083,5.296479 10.3838,5.2974 21.8177,17.791356 26.4776,28.932296 l 2.2099,5.28347 3.3776,-5.28347 c 1.8577,-2.90592 5.7776,-10.03157 8.7109,-15.8348 z m -15.6351,-25.698685 c -0.6685,-7.7576 2.0027,-13.26035 12.7991,-26.36654 10.6184,-12.89015 13.4325,-17.63516 15.0222,-25.32938 1.5224,-7.36898 0.026,-15.2498111 -4.6561,-24.5255811 -2.0759,-4.1123596 -3.0144,-7.4324189 -3.0144,-10.6640489 l 0,-4.69257 -6.75,6.51656 c -12.648,12.2106289 -25.8932,18.9586989 -37.6487,19.181059 -4.6104,0.0872 -7.0389,-0.2719101 -7.3211,-1.0826201 -0.2401,-0.68986 0.7945,-1.47531 2.3988,-1.82098 6.7527,-1.45505 12.4614,-3.7248 21.821,-8.67597 10.2306,-5.4119189 18.6558,-12.7988689 32.1405,-28.1799129 4.8339,-5.51364 7.3595,-6.55332 7.3595,-3.02956 0,0.80433 -1.0652,3.14027 -2.3671,5.19098 -1.3286,2.09266 -2.9019,6.8972 -3.5859,10.950544 l -1.2186,7.22197 4.3257,9.2780289 c 4.1439,8.88824 4.3261,9.67801 4.3358,18.7990511 0.01,8.69793 -0.2661,10.08208 -3.1849,16.01094 -1.7572,3.56946 -5.5973,9.26402 -8.5335,12.65458 -2.9363,3.39056 -7.5324,10.36063 -10.2137,15.48905 -2.6813,5.12842 -5.7343,10.5619 -6.7845,12.0744 -2.1585,3.10856 -4.698,3.6243 -4.9241,1 z m -78.0813,33.525995 c 0.9573,-4.84147 0.8571,-5.43291 -1.3675,-8.07673 -1.3202,-1.568996 -2.4004,-3.466636 -2.4004,-4.216976 0,-3.11304 -1.987,-2.12403 -6.1077,3.040036 -4.9916,6.25541 -7.3231,6.82905 -13.9712,3.43741 l -3.9993,-2.04027 -2.9609,2.10836 c -1.6285,1.1596 -2.9609,2.45251 -2.9609,2.87312 0,0.63805 28.1166,7.76938 31.6175,8.01929 0.6146,0.0439 1.5823,-2.27103 2.1504,-5.14424 z m -31.1996,-11.525996 9.5426,-7.75 -0.522,-4.146 c -0.852,-6.765339 -5.0264,-14.848619 -10.2563,-19.860149 -5.7381,-5.49845 -13.2291,-10.53721 -19.0251,-12.79703 -5.3596,-2.08966 -16.2083,-3.85169 -17.8968,-2.90676 -3.3725,1.8873 -10.1444,13.67376 -15.9404,27.74387 -3.504,8.506339 -6.2808,15.501809 -6.1706,15.545499 0.4643,0.18408 49.2678,11.731186 49.9632,11.821496 0.4195,0.0545 5.057,-3.38843 10.3054,-7.650926 z m -35.9259,-3 c -0.7749,-1.5125 -1.7201,-5.47117 -2.1003,-8.79705 -0.599,-5.239049 -0.4179,-6.374809 1.3549,-8.499999 l 2.0463,-2.45295 -0.2216,6.69052 c -0.2097,6.327209 -0.045,6.872819 3.0283,10.047609 4.0398,4.17287 4.1158,5.76187 0.2757,5.76187 -2.2365,0 -3.3239,-0.68219 -4.3833,-2.75 z m -13.2173,-43.183879 c 11.8662,-28.82936 21.5749,-52.7240011 21.5749,-53.0991811 0,-0.78572 -23.1533,-9.1470089 -23.7305,-8.5697489 -0.276,0.27597 -36.2066,85.05907 -39.9139,94.18209 -0.2412,0.593609 1.3552,1.616709 3.5475,2.273549 4.8445,1.45143 11.9715,8.32505 14.5416,14.024536 1.0275,2.27866 1.9891,4.02214 2.1369,3.8744 0.1477,-0.14775 9.9773,-23.856285 21.8435,-52.685645 z m -234.4036,21.25661 c 4.2393,-4.82832 6.0863,-9.44924 6.1319,-15.34166 0.063,-8.101 -0.2539,-8.45379 -9.4201,-10.49511 -4.5283,-1.00846 -16.2962,-4.23036 -26.1508,-7.15977 -9.8547,-2.9294 -18.308,-5.32619 -18.7852,-5.32619 -0.4772,0 -0.4018,0.87042 0.1675,1.93426 2.7845,5.20287 0.1297,18.98893 -4.6803,24.30389 -0.8831,0.97576 -1.4208,1.92845 -1.195,2.11709 0.2258,0.18864 7.8355,2.20041 16.9105,4.47059 9.075,2.27019 19.875,5.21848 24,6.55176 4.125,1.33327 8.0159,2.46875 8.6464,2.52327 0.6305,0.0545 2.5993,-1.55563 4.3751,-3.57813 z m -55.8729,-12.40225 c 5.3463,-2.86126 8.6206,-17.59847 5.3257,-23.97014 -1.8895,-3.65396 -3.4261,-3.70322 -7.5399,-0.24171 -6.576,5.53335 -9.0955,17.2743 -4.8618,22.65651 2.2477,2.85757 3.9455,3.23074 7.076,1.55534 z m 435.6314,-26.17048 c 0.9958,-1.21452 1.5695,-3.99255 1.3352,-6.46482 -0.063,-0.66815 -1.0152,-1.69648 -2.1152,-2.28518 -4.5546,-2.43757 -9.0109,4.12045 -5.4635,8.04029 2.0227,2.23507 4.7396,2.54391 6.2435,0.70971 z m -42.0603,-3.26622 c 2.072,-1.45131 2.0986,-1.67432 0.6215,-5.20965 -2.8169,-6.74178 -0.5607,-15.418671 6.1819,-23.7741311 7.1304,-8.8360489 7.8306,-12.6912789 3.996,-22.0000029 -1.3594,-3.3 -2.4823,-6.5625 -2.4954,-7.25 -0.044,-2.30903 1.8849,-1.27842 4.3234,2.31022 l 2.4193,3.56023 9.2494,-8.63521 c 5.0872,-4.74936 15.3773,-13.71888 22.8668,-19.93225 21.1314,-17.53065 24.1123,-22.82127 29.663,-52.645381 1.3725,-7.37418 3.0248,-15.76905 3.6719,-18.65526 1.0706,-4.77544 0.9926,-5.49533 -0.8677,-8 -2.454,-3.30421 -3.1653,-3.68246 -20.3498,-10.8209 -7.425,-3.08435 -15.75,-7.29 -18.5,-9.34591 -12.6946,-9.49046 -19.5598,-11.57176 -34.6822,-10.51445 -14.3304,1.00193 -15.701,0.54447 -25.213,-8.41526 -9.3341,-8.79213 -12.5791,-10.17976 -25.0903,-10.72917 -7.656,-0.33619 -7.8,-0.30367 -3.2199,0.72703 2.7496,0.61878 4.6342,1.55998 4.4186,2.20678 -0.2068,0.6203 -4.1643,1.83181 -8.7946,2.69224 -10.9198,2.02922 -15.2465,4.17215 -21.7288,10.76189 -2.9207,2.96904 -5.4991,5.20947 -5.7298,4.97874 -0.2307,-0.23074 -0.081,-2.40176 0.3325,-4.82449 0.6174,-3.61659 1.4752,-4.91331 4.7932,-7.24524 2.2226,-1.56216 6.9376,-3.89668 10.4777,-5.18784 l 6.4366,-2.34757 -6.5,-3.0933 c -6.9977,-3.33018 -10.5855,-3.73167 -17.5885,-1.96828 -5.3029,1.33528 -6.2228,0.73612 -13.0967,-8.53057 l -4.3795,-5.90397 3.1872,-3.09603 c 5.3698,-5.2162 7.2331,-10.72404 7.6878,-22.72397 0.6466,-17.0683 -4.0282,-29.16936 -15.3657,-39.77503 -11.3405,-10.60845 -22.9059,-14.71105 -39.0861,-13.86505 -7.5672,0.39565 -10.3227,1.02851 -16,3.6747 -7.9527,3.70675 -15.5613,10.71239 -21.4656,19.76456 -5.614,8.60714 -7.7455,14.8387 -9.4211,27.54273 -1.0981,8.32587 -2.3094,12.88935 -5.0067,18.86331 -4.2841,9.48833 -4.1503,9.90198 5.2506,16.22933 6.5229,4.39027 10.5333,5.9507 18.4676,7.18567 3.1817,0.49523 3.8451,1.07947 4.8718,4.2905 2.2118,6.91695 13.903,22.96757 22.1352,30.38874 6.0715,5.47339 7.8097,7.63998 7.8097,9.73442 0,2.64626 -1.566,5.09405 -3.259,5.09405 -0.4725,0 -0.5937,-0.42931 -0.2694,-0.95401 1.5125,-2.44728 -0.8563,-6.20726 -5.343,-8.48082 -5.1655,-2.61755 -13.9233,-11.34904 -16.6734,-16.62318 l -1.7947,-3.44199 -2.4923,5.46144 c -2.2855,5.00823 -2.3989,5.90695 -1.3663,10.83012 0.6194,2.95278 2.9585,9.34658 5.1981,14.20844 5.0624,10.98985 5.7411,14.82064 6.8211,38.499991 0.8385,18.38488 0.9652,19.19425 3.9144,25 3.1519,6.20493 11.7987,15.27573 18.4023,19.30487 3.9877,2.43304 17.3773,6.17655 22.2722,6.22693 2.9334,0.0302 2.9916,0.10623 1.1489,1.5 -1.0676,0.80751 -3.6551,1.4682 -5.75,1.4682 -7.3172,0 -3.1696,5.60742 6.6453,8.98426 7.2351,2.48922 7.5458,2.48987 7.5458,0.0157 0,-3.03737 2.1801,-2.40092 5.3396,1.55883 3.2593,4.08486 1.6392,3.36893 29.3707,12.979374 l 21.2102,7.35049 4.9377,-6.78878 c 6.5021,-8.939554 20.087,-25.099914 21.0997,-25.099914 0.4393,0 4.0696,-3.02839 8.0674,-6.72976 6.8816,-6.37134 9.9747,-11.0105 9.9747,-14.96063 0,-1.47246 -0.2503,-1.39722 -1.5567,0.46788 -1.4907,2.12825 -4.4013,2.93117 -5.7471,1.58539 -0.3504,-0.35042 0.2772,-1.92114 1.3947,-3.4905 2.827,-3.97022 3.3203,-8.60494 1.4665,-13.77837 -1.9444,-5.42638 -1.1652,-6.49786 2.0277,-2.78825 1.6607,1.92956 2.4149,4.02364 2.4149,6.70559 0,2.47021 0.8821,5.19963 2.4062,7.4455 l 2.4061,3.54567 3.0851,-7.41071 c 2.8232,-6.7817 5.0332,-17.10582 5.0828,-23.744605 l 0.02,-2.652796 -6.7083,2.012536 c -5.6387,1.691655 -8.8096,1.951135 -19.8873,1.627415 l -13.179,-0.385106 -0.5575,4.706976 c -0.3066,2.58884 -1.5133,6.58061 -2.6816,8.87059 -2.1805,4.27417 -10.166,12.97318 -11.9091,12.97318 -0.5364,0 0.39,-2.7519 2.0588,-6.11533 4.2442,-8.55438 5.864,-13.51744 5.864,-17.96776 0,-3.238565 -0.5679,-4.263895 -3.6691,-6.624271 -7.1802,-5.46509 -12.9108,-11.20051 -15.122,-15.13476 l -2.2433,-3.99141 3.364,-1.11021 c 1.8501,-0.61061 5.4735,-2.44807 8.0519,-4.08323 5.5403,-3.51355 5.6185,-3.52818 5.6185,-1.05094 0,1.05714 -1.8463,3.50245 -4.1029,5.43402 -3.8849,3.32533 -4.0221,3.62739 -2.5812,5.68457 2.5493,3.63958 11.3752,9.69966 17.4436,11.97725 5.0443,1.89321 7.3171,2.11018 18.7405,1.78909 10.8866,-0.306 13.6569,-0.71238 17.0405,-2.49963 3.9602,-2.09187 4.0661,-2.28971 5.3371,-9.9708 1.5897,-9.60711 3.8009,-14.86123 8.0375,-19.0978 4.7617,-4.76169 6.5034,-4.23944 3.5406,1.06162 -4.3665,7.81251 -5.4802,12.87087 -7.0743,32.13289 -2.2001,26.584171 -3.7964,29.682881 -28.3687,55.066701 -14.3527,14.82668 -21.3937,23.37008 -29.257,35.500004 -5.2956,8.1688189 -5.536,8.8339989 -6.1707,17.072209 l -0.6605,8.572201 3.302,1.77824 c 3.3826,1.82164 8.2735,1.86736 8.2735,0.0774 0,-0.55 -1.2645,-1.145 -2.8101,-1.32222 -2.2407,-0.25694 -2.7472,-0.76344 -2.5,-2.5 0.2116,-1.48599 1.1208,-2.272231 2.8623,-2.475111 2.6521,-0.30898 5.3177,1.878891 7.3761,6.054221 0.6082,1.23371 3.7981,3.69328 7.0888,5.4657 5.8616,3.15727 6.0107,3.18261 7.3549,1.25 1.6288,-2.34189 3.128,-2.5684 3.128,-0.47264 0,4.59985 8.1817,7.16234 12.7197,3.98378 z M 2945.2677,7.173564 c -2.5485,-3.2399101 -2.5972,-4.5803701 -0.2439,-6.7101501 2.711,-2.45342 4.5295,-2.19278 3.1169,0.44674 -0.946,1.76763 -0.711,2.53373 1.4788,4.81933 1.432,1.4946801 2.2973,3.0239101 1.9229,3.3982701 -1.4506,1.45059 -4.2928,0.5654 -6.2747,-1.95419 z m -20.0962,-35.889453 c -4.9773,-5.13533 -9.111,-6.08244 -18.3921,-4.21396 -8.084,1.62749 -13.6676,1.08353 -16.3433,-1.59219 -2.5411,-2.54112 -0.6865,-3.43662 5.2044,-2.51285 3.3572,0.52647 7.177,0.47883 9.7814,-0.122 8.3612,-1.92889 13.9995,-1.32007 19.1073,2.0632 2.7242,1.80443 4.9363,4.13142 5.2982,5.57322 1.0652,4.24395 -0.9798,4.59734 -4.6559,0.80458 z m 66.0236,-4.86699 c 0,-2.48893 6.4687,-9.58286 16.7397,-18.35766 6.1747,-5.27521 8.0008,-5.01244 3.234,0.46537 -5.8253,6.69414 -18.83,20.28359 -19.4108,20.28359 -0.3096,0 -0.5629,-1.07609 -0.5629,-2.3913 z m -109.5,-8.09918 c -5.1472,-1.80499 -10.9547,-8.25131 -14.8732,-16.50952 -2.4309,-5.12293 -3.1458,-8.08893 -3.3746,-14 l -0.2902,-7.5 2.34,7.02425 c 4.8685,14.61391 10.523,22.53323 18.2024,25.49309 4.0581,1.56406 19.2578,1.55584 28.771,-0.0156 4.2764,-0.70639 8.0325,-1.02717 8.3469,-0.71282 0.9992,0.9992 -7.0765,4.54079 -14.0328,6.15406 -8.2478,1.9128 -19.7377,1.94326 -25.0895,0.0665 z m 73.5,-5.22853 c 0,-0.47196 0.9,-2.6234 2,-4.78099 2.3072,-4.52535 2.3901,-5.35719 0.9156,-9.1849 l -1.0845,-2.8151 -1.9028,3.67856 c -1.9376,3.74584 -5.3913,5.7584 -7.0447,4.10506 -0.5534,-0.55341 0.4919,-2.72095 2.6449,-5.48438 4.3205,-5.54555 5.3252,-10.38169 3.0882,-14.86576 -1.9465,-3.90183 -1.9492,-3.93348 -0.3323,-3.93348 2.0912,0 4.7156,5.49869 4.7156,9.88012 0,2.3089 0.8642,5.48899 1.9963,7.34571 3.6175,5.93322 1.9503,15.9156 -2.7713,16.59372 -1.2238,0.17575 -2.225,-0.0666 -2.225,-0.53856 z m 62,-15.50853 c 0,-0.29564 2.6807,-6.10288 5.9571,-12.90499 6.5733,-13.6469 8.3953,-19.81036 6.9669,-23.567375 -1.2053,-3.170266 -1.1841,-3.300086 0.5408,-3.300086 1.8366,0 3.5352,3.077706 3.5352,6.405461 0,3.80706 -5.3959,17.83845 -9.3857,24.40635 -3.1169,5.13091 -7.6143,10.42358 -7.6143,8.96064 z M 2837.7665,-122.763 c -0.8643,-0.86428 -1.5714,-2.67393 -1.5714,-4.02144 0,-2.60201 -1.157,-3.309 -8.75,-5.3468 -3.9224,-1.05268 -4.25,-1.39769 -4.25,-4.47547 0,-1.83417 -0.2933,-4.80138 -0.6518,-6.59379 -1.0404,-5.20216 1.8781,-3.22323 3.449,2.33861 1.1912,4.21781 1.6072,4.67032 4.293,4.67032 3.3037,0 9.317,2.23188 10.3004,3.82303 0.3492,0.5649 0.077,2.25058 -0.604,3.74594 -1.1086,2.43316 -1.0049,2.87415 0.9873,4.19691 1.2244,0.81294 2.2261,1.87318 2.2261,2.35609 0,1.46274 -3.7516,0.98354 -5.4286,-0.6934 z m 67.2118,-3.68354 c -3.1119,-2.57161 -8.7832,-9.59837 -8.7832,-10.88253 0,-2.26129 3.8101,-0.39599 6.4329,3.14931 1.6131,2.18049 4.6506,5.10124 6.75,6.49055 2.0994,1.38931 3.8171,2.74463 3.8171,3.01183 0,1.42851 -5.879,0.16271 -8.2168,-1.76916 z m -52.761,-3.4117 c 0.035,-7.54629 3.394,-10.65638 12.8673,-11.91307 2.8796,-0.38198 6.8024,-1.7578 8.7174,-3.05738 4.3108,-2.9254 4.3931,-2.92331 4.3931,0.11144 0,2.96457 -2.6279,4.4744 -12.2226,7.02242 -7.4493,1.97825 -9.1897,3.37803 -10.4881,8.43524 -1.3898,5.41296 -3.2931,5.06419 -3.2671,-0.59865 z m 193.2316,-0.75383 c -1.7854,-3.25628 -3.0248,-6.14188 -2.7542,-6.41244 0.2706,-0.27057 1.6064,0.0159 2.9686,0.63649 2.694,1.22747 3.874,4.32703 3.3599,8.82562 -0.3088,2.70205 -0.5189,2.52276 -3.5743,-3.04967 z m -93.6838,0.53381 c -1.6361,-2.64737 6.7967,-5.02032 20.43,-5.74889 12.177,-0.65074 18.5,0.76422 18.5,4.13994 0,2.28173 -1.2227,2.29988 -7,0.10387 -5.5103,-2.09454 -12.7728,-1.97055 -21.5676,0.36823 -8.4543,2.24822 -9.598,2.37369 -10.3624,1.13685 z m -10.57,-7.56242 c 0,-1.59612 1.1507,-3.32677 3.3038,-4.96906 4.0665,-3.10167 10.4519,-5.85084 11.7402,-5.05463 1.8546,1.14622 0.9147,2.33096 -2.794,3.52168 -4.6627,1.49701 -6.8928,3.39187 -7.6791,6.52472 -0.848,3.37876 -4.5709,3.36027 -4.5709,-0.0227 z m 77,-7.6277 c -4.561,-1.55209 -7.2927,-1.77192 -16,-1.2876 l -10.5,0.58403 -4.1325,-7.35981 c -2.2728,-4.04789 -3.9492,-7.55844 -3.7252,-7.80122 0.2239,-0.24277 2.8058,1.9274 5.7374,4.8226 6.29,6.2119 9.73,7.27909 20.7292,6.43089 l 7.6198,-0.5876 3.8857,3.6107 c 4.3886,4.07807 4.0893,4.20955 -3.6144,1.58801 z m -165.0749,-8.06312 c -0.6421,-1.19979 -0.9623,-4.60459 -0.7289,-7.75 0.3344,-4.50742 1.1499,-6.627 4.1492,-10.78397 2.0531,-2.84565 4.8842,-8.00727 6.2913,-11.47027 1.4072,-3.463 3.2286,-7.20974 4.0477,-8.32609 1.4206,-1.93612 1.4645,-1.89137 0.9517,0.97026 -2.2456,12.53328 -2.9948,14.81666 -6.2675,19.10421 -4.4884,5.88017 -5.3686,8.33294 -5.3686,14.96089 0,5.69046 -1.1394,6.91143 -3.0749,3.29497 z m -15.4251,-25.33868 c -0.55,-0.1764 -4.3248,-1.08578 -8.3884,-2.02084 -18.04,-4.15112 -19.4219,-8.00857 -1.8054,-5.03965 5.6066,0.94488 12.6688,1.56522 15.6938,1.37853 l 5.5,-0.33943 3,-5.64605 c 1.65,-3.10533 3.9,-6.65493 5,-7.88802 2.0674,-2.31748 8.3452,-5.45406 9.2018,-4.59747 0.2671,0.26709 -1.5391,2.43095 -4.0138,4.80858 -3.3855,3.25272 -4.9102,5.74111 -6.1584,10.05123 -2.1619,7.46539 -5.0305,9.79903 -11.9145,9.69278 -2.8133,-0.0434 -5.5651,-0.22327 -6.1151,-0.39966 z m 170.5,205.428945 c 0,-1.12731 0.6686,-3.34255 1.4857,-4.92274 l 1.4858,-2.87308 -4.2358,-1.55961 c -2.3296,-0.85778 -8.5803,-3.08673 -13.8905,-4.95323 l -9.6547,-3.393621 -1.2405,4.430691 c -0.9455,3.37684 -0.9629,4.7083 -0.073,5.59785 1.1971,1.19716 22.625,9.50705 24.8734,9.64609 0.6875,0.0425 1.25,-0.84504 1.25,-1.97235 z M 2907.466,7.511744 c 4.7003,-3.0944001 3.0576,-9.1214501 -2.7992,-10.2705001 l -3.0282,-0.59412 -5.7006,13.8306501 -5.7006,13.830651 7.2498,-7.5 c 3.9874,-4.125 8.4778,-8.308511 9.9788,-9.296681 z m 20.7291,-10.5033201 c 0,-1.54 0.54,-3.34 1.2,-4 0.7529,-0.7529196 0.8461,-1.5344192 0.25,-2.0976092 -1.5983,-1.5101497 -72.902,-25.9691037 -73.6478,-25.2630437 -0.3838,0.36336 -1.3752,2.28313 -2.2031,4.26617 l -1.5052,3.60552 36.2031,13.056064 c 19.9116,7.1808389 36.9905,13.0958489 37.953,13.1444789 1.271,0.0642 1.75,-0.6779 1.75,-2.71158 z m -79.8891,-3.81927 c 3.2544,-0.5383 3.8466,-1.1513196 6,-6.2104389 1.314,-3.08725 2.5391,-5.96353 2.7224,-6.39174 0.1834,-0.4282 -0.3791,-0.77855 -1.25,-0.77855 -0.8708,0 -1.5833,0.45 -1.5833,1 0,1.61473 -1.847,1.15297 -4,-1 -3.0129,-3.012954 -2.6184,-8.633324 1.0074,-14.350624 4.1744,-6.58228 3.4587,-8.43005 -4.6826,-12.09052 -4.7222,-2.12315 -8.747,-5.09971 -14.4715,-10.70248 l -7.9301,-7.76135 -8.2116,6.52655 c -11.2686,8.95623 -13.7376,12.36669 -13.6152,18.80656 0.1925,10.12347 1.9587,14.9264 7.1181,19.356764 4.1001,3.52076 5.5558,4.1384 11.1707,4.73971 3.5509,0.38027 6.9842,0.36514 7.6294,-0.0336 0.6869,-0.42453 1.0197,-2.33442 0.8029,-4.608 -0.2037,-2.135684 -0.118,-3.883014 0.1905,-3.883014 1.3911,0 3.992,6.156704 3.992,9.449754 0,7.0010093 4.9683,9.6086289 15.1109,7.9309789 z m -22.9717,-22.4140029 c -1.2984,-1.0817 -3.6798,-1.96673 -5.292,-1.96673 -2.9189,0 -11.2255,-5.24882 -12.2649,-7.75 -0.8209,-1.97524 2.1897,-1.46324 6.7396,1.14616 6.8433,3.92465 8.3375,4.06824 11.8222,1.13602 3.1475,-2.64844 5.1199,-2.76013 2.9687,-0.16811 -0.742,0.89403 -0.9309,2.92149 -0.5147,5.52417 0.7302,4.56605 0.031,4.98604 -3.4589,2.07849 z m 185.8329,11.528944 c 5.2945,-2.77714 7.0266,-5.304044 7.0499,-10.284634 0.024,-5.07562 3.1374,-13.21104 5.0563,-13.21104 1.1734,0 1.0088,3.45442 -0.6549,13.75 -0.8571,5.30401 -0.1027,5.3706 7.3746,0.65098 14.9984,-9.46683 25.1246,-24.96957 20.192,-30.91302 -0.7218,-0.86973 -2.5805,-2.48428 -4.1303,-3.58789 l -2.818,-2.00658 -17.2709,15.20001 c -26.4542,23.28226 -30.8358,27.772654 -30.1029,30.850314 0.3347,1.40591 0.7715,2.85094 0.9707,3.21118 0.4484,0.81131 10.895,-1.85567 14.3335,-3.65932 z m -210.723,-32.425534 2.7491,-3.88715 -6.1766,-2.08586 c -5.7523,-1.9426 -6.3017,-1.97258 -7.9991,-0.43651 -1.0024,0.90715 -1.8225,2.83662 -1.8225,4.28771 0,2.18113 0.7365,2.92137 4.25,4.27138 5.8425,2.24493 5.9011,2.23095 8.9991,-2.14957 z"
       id="path3760"
       inkscape:connector-curvature="0" />
  </g>
</svg>
