<?xml version="1.0" encoding="UTF-8" standalone="no"?>
<!-- Created with Inkscape (http://www.inkscape.org/) -->

<svg
   xmlns:dc="http://purl.org/dc/elements/1.1/"
   xmlns:cc="http://creativecommons.org/ns#"
   xmlns:rdf="http://www.w3.org/1999/02/22-rdf-syntax-ns#"
   xmlns:svg="http://www.w3.org/2000/svg"
   xmlns="http://www.w3.org/2000/svg"
   xmlns:sodipodi="http://sodipodi.sourceforge.net/DTD/sodipodi-0.dtd"
   xmlns:inkscape="http://www.inkscape.org/namespaces/inkscape"
   width="837.17609"
   height="900.60382"
   id="svg2"
   version="1.1"
   inkscape:version="0.48.3.1 r9886"
   sodipodi:docname="T-bar-row-1.svg">
  <defs
     id="defs4" />
  <sodipodi:namedview
     id="base"
     pagecolor="#ffffff"
     bordercolor="#666666"
     borderopacity="1.0"
     inkscape:pageopacity="0.0"
     inkscape:pageshadow="2"
     inkscape:zoom="0.7"
     inkscape:cx="143.85821"
     inkscape:cy="385.08912"
     inkscape:document-units="px"
     inkscape:current-layer="layer1"
     showgrid="false"
     fit-margin-top="0"
     fit-margin-left="0"
     fit-margin-right="0"
     fit-margin-bottom="0"
     inkscape:window-width="898"
     inkscape:window-height="738"
     inkscape:window-x="264"
     inkscape:window-y="153"
     inkscape:window-maximized="0" />
  <metadata
     id="metadata7">
    <rdf:RDF>
      <cc:Work
         rdf:about="">
        <dc:format>image/svg+xml</dc:format>
        <dc:type
           rdf:resource="http://purl.org/dc/dcmitype/StillImage" />
        <dc:title />
      </cc:Work>
    </rdf:RDF>
  </metadata>
  <g
     inkscape:label="Ebene 1"
     inkscape:groupmode="layer"
     id="layer1"
     transform="translate(-2570.2168,287.23702)">
    <path
       style="fill:#000000"
       d="m 2815.7305,601.9247 -11.6797,-12.44896 24.7128,-69.0609 c 13.5921,-37.98349 24.5297,-69.24203 24.306,-69.46342 -0.2237,-0.22139 -29.4318,7.86862 -64.9068,17.9778 -35.475,10.10918 -64.9948,18.39476 -65.5995,18.41239 -1.8744,0.0547 -24.401,-20.97642 -24.3915,-22.77218 0.01,-0.93267 8.9618,-16.77076 19.904,-35.19576 19.7809,-33.30773 19.8829,-33.50956 17.777,-35.16571 -2.0184,-1.58744 -2.2776,-1.52556 -5.5151,1.31699 -4.4797,3.93326 -7.1402,4.84872 -14.0911,4.84872 -4.1342,0 -7.0417,-0.66524 -10.1849,-2.33035 -4.3485,-2.30367 -4.4447,-2.30969 -8.3989,-0.52622 -4.9422,2.22908 -12.2073,2.35763 -17.3331,0.30669 -3.7221,-1.48932 -4.0608,-1.45026 -8.6691,1 -9.903,5.26544 -21.5956,2.78231 -29.5897,-6.28387 -5.9373,-6.73348 -14.3387,-24.57832 -17.7335,-37.66625 -2.2937,-8.84308 -3.2278,-11.05565 -4.7639,-11.28381 -1.0509,-0.1561 -8.8857,0.57517 -17.4107,1.62504 -16.4621,2.02733 -18.5632,1.82887 -22.845,-2.15784 -3.4404,-3.20326 -5.0359,-6.8185 -5.7715,-13.07784 -0.8827,-7.50968 1.0225,-13.9096 5.534,-18.59041 l 3.5825,-3.717 17,-1.22927 c 9.35,-0.6761 17.7875,-1.44851 18.75,-1.71646 1.3778,-0.38358 1.7513,-1.58938 1.7559,-5.6698 0.016,-14.15395 4.8694,-34.5853 11.4454,-48.18261 6.7287,-13.91291 14.0359,-21.06483 23.3336,-22.83762 4.207,-0.80216 12.5492,0.97779 15.3994,3.28578 2.135,1.7288 2.3532,1.70978 6.6604,-0.5804 6.7379,-3.58255 15.436,-2.93782 22.1553,1.64221 2.3671,1.61347 2.6595,1.60562 5.5,-0.14769 3.8971,-2.40551 14.061,-2.51615 18.9058,-0.20579 3.4555,1.64777 3.4924,1.64011 7.0208,-1.45793 6.4576,-5.66981 16.8578,-6.58836 24.3755,-2.15284 3.0847,1.82003 3.6263,1.87653 5.1107,0.53317 8.201,-7.4218 23.1217,-5.19788 31.6028,4.71038 6.2942,7.35334 13.1951,21.92208 17.0722,36.04158 l 1.6011,5.83084 4.9622,-0.68247 c 2.7292,-0.37536 6.1692,-1.00528 7.6444,-1.39983 l 2.6824,-0.71736 8.2313,-50.43102 c 4.5273,-27.73705 8.2447,-50.66003 8.2611,-50.93995 0.036,-0.61303 -12.9915,-5.36612 -13.2966,-4.85137 -0.1175,0.19817 -1.2057,2.48637 -2.4183,5.0849 -2.5477,5.45958 -4.5934,6.32995 -12.8704,5.4757 -3.6476,-0.37647 -6.9542,-0.0442 -10.0467,1.0095 -4.5019,1.53397 -4.7314,1.50899 -9.8239,-1.06957 -2.8678,-1.45212 -6.1344,-2.64022 -7.259,-2.64022 -4.4625,0 -15.6809,-4.2716 -18.4248,-7.01559 -2.4125,-2.41249 -2.8253,-3.61735 -2.795,-8.15749 0.02,-2.9298 0.6758,-8.00821 1.4583,-11.28534 0.7824,-3.27713 1.3289,-6.00744 1.2144,-6.06735 -0.1146,-0.0599 -4.1472,-1.60604 -8.9614,-3.43585 -8.2612,-3.13999 -8.816,-3.53692 -9.8728,-7.06423 -1.4059,-4.69242 -0.2077,-8.63595 3.4547,-11.37035 l 2.7028,-2.01789 7.9197,2.59634 c 6.2091,2.03555 8.0291,2.31109 8.4265,1.27572 0.2787,-0.72634 0.797,-5.28902 1.1517,-10.13929 0.3547,-4.85028 1.3375,-12.64368 2.184,-17.318679 1.2638,-6.97928 1.3896,-12.16763 0.7032,-29 -1.0115,-24.80662 -0.8899,-29.10863 1.128,-39.88396 1.947,-10.39739 3.4848,-15.0047 9.1361,-27.3730596 4.4413,-9.7202004 4.4536,-9.7786004 3.2711,-15.4747804 -2.2101,-10.64579 1.1187,-29.21547 8.5157,-47.50513 l 3.5335,-8.73693 -3.7505,-8.76307 -3.7506,-8.76307 0,-15.000001 c 0,-14.48993 0.096,-15.18702 2.8217,-20.5 3.6256,-7.0669 7.1313,-10.78774 12.4054,-13.16665 4.9472,-2.23149 8.5795,-6.64615 10.3225,-12.54608 1.1773,-3.98477 1.0967,-4.40669 -1.4896,-7.79752 -1.5039,-1.97163 -4.5006,-7.35409 -6.6595,-11.96101 -3.7967,-8.10198 -4.0803,-8.42552 -8.6629,-9.88207 -2.6057,-0.82822 -6.3126,-1.81673 -8.2376,-2.1967 -5.6107,-1.10746 -8.7229,-3.1582 -12.995,-8.56286 -4.7791,-6.04604 -5.0058,-8.6431 -1.6115,-18.46278 1.3164,-3.80838 2.6948,-8.94933 3.0631,-11.42433 3.7781,-25.38631 4.2846,-26.83237 13.7586,-39.28081 7.0623,-9.27969 13.3342,-14.44655 23.6427,-19.47734 7.6363,-3.72666 7.652,-3.72949 20.6421,-3.71407 10.7885,0.0128 13.9661,0.37738 18.6788,2.14312 13.1786,4.93764 23.8976,15.23872 31.9873,30.74016 3.7944,7.27079 4.2636,8.95138 4.6393,16.61575 0.7165,14.61789 -2.8891,29.4781 -8.2274,33.90845 -0.8679,0.7203 -1.578,1.67484 -1.578,2.1212 0,0.88119 13.7631,17.9664 15.4617,19.1938 0.5711,0.41265 2.8383,1.24095 5.0383,1.84068 7.5827,2.06706 14.0206,6.05094 21.1296,13.07523 l 7.1297,7.04468 12.3703,3.47855 c 10.3327,2.90553 13.7624,4.40314 20.8209,9.09145 4.6477,3.0871 11.3977,6.67471 15,7.97246 10.7914,3.88773 20.8607,9.27143 26.0251,13.91465 2.677,2.4069 8.155,8.97876 12.1733,14.60411 6.2049,8.68663 7.9216,12.047171 11.392,22.300241 2.2475,6.63977 5.2696,13.62376 6.7159,15.51998 3.5919,4.70914 8.1433,7.90771 11.2524,7.90771 3.7624,0 7.3782,2.20141 12.6004,7.67154 6.4765,6.78392 10.5159,13.11705 15.1088,23.6883 5.9529,13.70145 8.7076,23.1463 9.6657,33.1401604 1.7607,18.3648996 -1.5435,30.7012196 -15.8026,58.9999996 -5.8199,11.55 -13.4828,27.49076 -17.0288,35.42391 -10.2065,22.834069 -18.2458,33.650469 -22.4299,30.177989 -1.1785,-0.97808 -2.2273,-0.15157 -5.841,4.60298 -7.986,10.50724 -14.7818,23.44144 -14.7818,28.1337 0,4.56986 3.5881,15.11437 8.0295,23.59646 5.9422,11.34838 7.1797,17.88321 7.8716,41.56496 l 0.5989,20.5 2.5,-0.22895 c 1.375,-0.12593 50.2,-7.1755 108.5,-15.66573 74.8071,-10.89415 107.6611,-16.05968 111.6448,-17.55354 5.155,-1.93307 5.7044,-2.43457 6.3319,-5.77904 1.6203,-8.63715 8.8708,-18.87309 15.9286,-22.4875 6.8561,-3.51108 13.8466,-3.01213 23.0177,1.64291 7.602,3.85854 7.839,3.90716 19.8853,4.07873 18.9346,0.26969 26.7506,3.94774 33.2235,15.63432 2.8283,5.10623 2.9682,5.92438 2.9682,17.3588 0,11.48618 -0.1338,12.25837 -3.1251,18.03414 l -3.1251,6.03414 -1.2496,56.42428 c -0.7103,32.06925 -0.8721,56.58867 -0.3749,56.80512 0.4811,0.20945 14.5997,7.20316 31.3747,15.54157 l 30.5,15.16075 0.2725,17.60888 c 0.2062,13.32577 -0.037,17.85398 -1,18.61652 -2.424,1.91944 -31.2821,11.40622 -33.4453,10.99475 -1.1951,-0.22731 -22.6984,-11.78109 -47.7853,-25.67505 -35.7178,-19.78177 -46.2013,-25.16642 -48.3272,-24.82229 -3.0841,0.49926 -198.4796,55.88366 -199.1508,56.44884 -0.2399,0.20198 2.7725,18.89387 6.6941,41.53753 l 7.1303,41.17029 -3.6603,5.93019 c -2.0132,3.26161 -4.5755,6.33068 -5.6942,6.82016 -3.8727,1.69465 -250.8882,76.87018 -252.5838,76.87018 -0.9365,0 -6.9586,-5.60204 -13.3823,-12.44897 z m 140.833,-31.39183 123.8013,-37.78052 2.6442,-4.66004 2.6441,-4.66004 -2.8452,-16.7793 c -5.7539,-33.93369 -12.6473,-72.47387 -13.0913,-73.19221 -0.4517,-0.73087 -29.553,2.57874 -30.4356,3.46136 -0.4334,0.43346 8.5027,64.11845 9.4848,67.59539 0.2554,0.90411 3.5992,3.29114 7.4307,5.30452 3.8315,2.01338 6.9663,4.31116 6.9663,5.10617 0,2.10752 -1.1708,1.83729 -9.2335,-2.13108 l -7.2665,-3.57655 -88,24.6004 c -48.4,13.53022 -90.3271,25.26694 -93.1713,26.08161 -5.5401,1.58684 -5.0783,0.90077 -8.8423,13.13604 -0.212,0.68916 3.1637,-0.0256 8.2652,-1.75 10.0255,-3.38882 11.5169,-3.5476 11.0605,-1.17755 -0.2361,1.22575 -3.2762,2.69642 -10.3234,4.9939 -12.2468,3.99268 -14.8909,4.18552 -13.9673,1.0187 0.3609,-1.2375 10.1333,-31.26493 21.7165,-66.72762 11.5831,-35.46269 21.1056,-65.05993 21.1612,-65.77164 0.055,-0.71171 -5.509,-5.97285 -12.3656,-11.69143 l -12.4665,-10.39741 -6.6085,18.16905 c -3.6347,9.99298 -17.1142,47.55925 -29.9543,83.4806 l -23.3458,65.31156 10.3161,10.35131 c 5.6738,5.69322 10.8356,10.15195 11.4705,9.9083 0.635,-0.24365 56.865,-17.44424 124.9557,-38.22352 z m -2.6756,-39.25017 c 49.3762,-13.80003 90.085,-25.38753 90.464,-25.75 0.6953,-0.66488 -8.754,-67.05731 -9.675,-67.97827 -0.2727,-0.27266 -29.6034,2.49362 -65.1795,6.1473 l -64.6837,6.64305 -3.2746,-2.49767 -3.2746,-2.49768 -3.1158,9.76212 c -3.2442,10.16432 -31.9426,97.82248 -32.743,100.01212 -0.2513,0.6875 0.03,1.25 0.6252,1.25 0.5952,0 41.4809,-11.29093 90.857,-25.09097 z m -100.7957,-86.16945 4.4295,-1.26665 4.451,-12.33332 4.4509,-12.33333 -2.3804,-2.29538 -2.3804,-2.29537 -52.8746,12.1781 -52.8747,12.1781 -2.8282,5.46414 c -1.5555,3.00527 -2.8494,5.77482 -2.8753,6.15456 -0.026,0.37973 3.19,-0.41061 7.1465,-1.75631 4.8258,-1.64138 7.5249,-2.1155 8.2,-1.44043 1.5421,1.54208 -0.066,2.58014 -9.2119,5.94545 -8.5161,3.13368 -12.1818,3.77506 -12.1818,2.13143 0,-1.94513 9.3554,-20.35376 20.3642,-40.07057 l 11.4461,-20.5 -3.4207,-0.7376 c -1.8814,-0.40568 -5.1946,-1.64258 -7.3627,-2.74867 l -3.942,-2.01107 -3.643,2.47223 c -3.157,2.14239 -5.9658,3.01396 -12.3963,3.84661 -1.0726,0.13889 -29.9247,47.08046 -41.0856,66.84519 -0.7637,1.35236 0.958,3.34655 9.1294,10.57412 l 10.0705,8.90743 62.6701,-17.82101 c 34.4685,-9.80156 64.6633,-18.391 67.0994,-19.08765 z m 127.6246,-6.24533 c 34.6797,-3.57045 68.1761,-7.1673 74.4364,-7.99299 6.2604,-0.82569 11.9735,-1.50126 12.696,-1.50126 1.0018,0 1.3136,-2.50351 1.3136,-10.54531 l 0,-10.54532 -3.25,0.54071 c -1.7875,0.29739 -37,3.71325 -78.25,7.5908 -41.25,3.87755 -76.0125,7.2632 -77.25,7.52366 -2.1694,0.4566 -2.25,0.87037 -2.25,11.54835 l 0,11.07479 4.75,-0.60085 c 2.6125,-0.33046 33.1243,-3.52212 67.804,-7.09258 z m -76.7723,-6.20691 -0.2817,-11.71266 -24.5,-20.24247 -24.5,-20.24248 -0.2907,11.20514 -0.2906,11.20513 6.2023,5.5 c 11.0185,9.77079 42.3551,35.85733 43.1607,35.92974 0.43,0.0386 0.655,-5.20044 0.5,-11.6424 z m 273.8873,-24.67148 101.169,-28.65479 45.831,25.4031 45.831,25.4031 0.7917,-14.04189 c 0.4355,-7.72303 0.4355,-14.36825 0,-14.76714 -0.4354,-0.39889 -18.6792,-9.81429 -40.5417,-20.92312 -28.4976,-14.48028 -39.7458,-20.67022 -39.7353,-21.8665 0.01,-0.91774 0.9014,-25.06862 1.9853,-53.66862 1.0839,-28.6 1.9773,-53.18222 1.9853,-54.62716 0.014,-2.51675 -0.1711,-2.60622 -4.4058,-2.12891 -2.7444,0.30933 -6.2517,-0.13091 -9.25,-1.16105 -2.6562,-0.91261 -8.317,-1.9338 -12.5795,-2.26931 l -7.75,-0.61 -0.067,13.89821 c -0.1594,32.85921 -1.6708,83.53163 -2.515,84.32027 -0.5047,0.47148 -46.5926,12.00916 -102.4176,25.63931 -55.825,13.63014 -101.8296,25.05689 -102.2324,25.39279 -0.4028,0.33589 3.7597,3.21943 9.25,6.40786 l 9.9824,5.79715 0,12.79542 c 0,14.03429 0.6805,19.37776 2.386,18.73556 0.6127,-0.23072 46.6401,-13.31415 102.283,-29.07428 z m -369.8337,13.86897 c 25.1156,-5.78335 46.3397,-10.76546 47.1647,-11.07136 1.1551,-0.42831 0.7528,-1.22625 -1.75,-3.47073 l -3.25,-2.91455 0,-14.45508 c 0,-7.95029 0.423,-14.71647 0.9399,-15.03596 0.5169,-0.31948 12.1044,-1.70151 25.75,-3.07118 13.6456,-1.36966 26.1601,-2.77734 27.8101,-3.12818 8.3655,-1.77874 -2.9095,-1.02165 -39.2045,2.63246 -22.0144,2.21636 -40.9032,4.02975 -41.9752,4.02975 -1.0721,0 -5.1568,-2.7 -9.0772,-6 -6.937,-5.83926 -9.2431,-7.07962 -9.2431,-4.97155 0,2.3322 -7.2939,16.16375 -10.9886,20.83793 -2.1856,2.76503 -5.9806,6.20336 -8.4333,7.64074 -3.9045,2.28814 -5.3559,4.25503 -11.6619,15.80315 -3.9613,7.25435 -8.531,15.55223 -10.1548,18.43973 -1.6238,2.8875 -2.646,5.25 -2.2716,5.25 0.3744,0 21.2298,-4.73183 46.3455,-10.51517 z m 581.6647,4.09912 12,-4.3056 0.2782,-14.25698 c 0.2275,-11.6592 0.032,-14.16232 -1.0755,-13.73751 -0.7446,0.28571 -6.8323,2.21392 -13.5282,4.28492 l -12.1745,3.76546 0,14.33288 c 0,10.82909 0.3056,14.31938 1.25,14.27766 0.6875,-0.0304 6.65,-1.99274 13.25,-4.36083 z m -403.6442,-13.03044 c 42.5457,-4.08746 77.5648,-7.6408 77.8203,-7.89631 0.2555,-0.2555 -7.24,-4.82132 -16.6567,-10.14625 l -17.1214,-9.68171 -2.4985,2.49853 c -5.3302,5.33021 -14.0039,7.94212 -42.1041,12.6789 -18.8305,3.1742 -31.4612,6.24192 -34.8926,8.47462 -3.0005,1.95236 -17.5019,3.86485 -24.8392,3.27588 -3.4982,-0.28081 -7.4261,-1.27618 -8.9335,-2.26389 -1.4797,-0.9695 -4.7542,-2.14831 -7.2767,-2.61956 -7.3435,-1.37192 -22.4022,-9.00522 -26.1034,-13.23192 -4.5513,-5.19745 -4.5797,-11.05778 -0.078,-16.18452 l 3.1716,-3.61231 -3.4216,0.55105 c -1.8819,0.30308 -8.3645,1.04328 -14.4057,1.64489 -6.0412,0.60161 -11.069,1.17885 -11.173,1.28277 -0.1039,0.10392 11.3639,9.72722 25.4841,21.38513 14.1201,11.6579 25.6729,21.21424 25.6729,21.23632 0,0.0221 34.8102,-3.30415 77.3558,-7.39162 z M 2949.01,402.37009 c 8.1241,-2.96492 23.8197,-6.30762 35.1528,-7.48652 21.2689,-2.21243 36.2886,-6.24232 40.0438,-10.74401 4.6049,-5.52022 3.6047,-11.97684 -3.9758,-25.66774 -8.5376,-15.41934 -9.4273,-18.68378 -9.2777,-34.0398 0.161,-16.52738 1.2754,-24.32936 6.2218,-43.55835 5.8041,-22.56352 6.3515,-27.56147 5.6688,-51.76658 -0.7619,-27.01561 -1.9642,-33.47378 -8.6155,-46.27587 -4.5753,-8.80647 -5.2771,-10.98365 -6.0709,-18.83396 -0.6739,-6.66479 -0.5732,-9.81782 0.4042,-12.6548 1.4866,-4.31491 7.2321,-13.6931 15.8268,-25.83379 5.659,-7.99366 5.8664,-8.49901 4.6714,-11.3838 -0.6877,-1.66033 -2.9915,-5.2214 -5.1194,-7.91349 -10.9832,-13.894719 -22.8278,-19.883629 -39.9619,-20.205559 l -7.0334,-0.13215 -4.4262,14.999999 c -2.4344,8.25 -5.8134,20.62134 -7.509,27.49186 -2.7251,11.04229 -3.0032,13.47284 -2.3969,20.94547 0.6009,7.40578 1.0486,8.86664 3.6118,11.78594 4.7566,5.41751 6.7566,10.43408 7.9232,19.87407 0.6051,4.89646 1.3003,9.85849 1.545,11.02672 0.369,1.76196 3.899,3.36082 20.7073,9.3789 11.1444,3.99017 20.8251,7.95785 21.5126,8.81708 1.5555,1.94399 1.6276,8.57822 0.125,11.4957 -3.4038,6.60891 -7.5655,8.09389 -14.5292,5.18426 -1.9746,-0.825 -4.0255,-1.5 -4.5577,-1.5 -1.3218,0 -0.039,16.0685 1.8175,22.76629 0.8029,2.89646 2.9906,8.62558 4.8617,12.73139 1.8964,4.16146 2.9844,7.72317 2.4584,8.04825 -2.1589,1.33427 -4.9847,-0.97773 -7.3778,-6.0363 -3.4476,-7.28752 -5.2922,-15.92939 -6.1171,-28.6582 -0.6466,-9.976 -0.8428,-10.71813 -3.1075,-11.75 -3.6436,-1.66012 -4.3233,-1.37369 -4.3233,1.82184 0,3.53278 -4.0175,8.61333 -7.5028,9.48808 -1.3798,0.34631 -5.4973,-0.0634 -9.15,-0.91054 -3.6526,-0.84711 -6.7473,-1.41884 -6.8769,-1.2705 -0.203,0.23216 2.9279,17.65652 8.0446,44.76969 1.7907,9.48936 1.8184,26.27113 0.059,36 -0.7459,4.125 -2.6935,10.875 -4.328,15 -1.6346,4.125 -3.7135,9.75 -4.6198,12.5 -1.5819,4.80011 -1.9803,5.17299 -9.9641,9.32719 -4.5739,2.37995 -12.3886,7.35609 -17.3659,11.05809 -11.3505,8.44224 -18.7363,11.77266 -32.1096,14.47892 -8.862,1.79335 -11.0859,2.63574 -13.8705,5.25388 -4.3283,4.06971 -4.3481,7.3315 -0.066,10.95267 4.6258,3.912 14.4461,8.29536 20.273,9.04895 2.7952,0.36151 5.9347,1.51221 7.1617,2.62493 1.2016,1.08968 3.6766,2.35873 5.5,2.8201 5.7544,1.45601 18.1854,0.0254 26.6625,-3.06831 z m 44.6954,-36.85934 c 4.2258,-2.57695 8.4574,-7.85131 8.4574,-10.5414 0,-1.23797 -1.125,-5.01951 -2.5,-8.4034 -2.8347,-6.97623 -3.1055,-9.19228 -1.1231,-9.19228 2.0895,0 5.8317,9.72952 6.3828,16.59484 0.3738,4.65744 0.09,6.70424 -1.2012,8.67553 -1.8005,2.74788 -6.1911,4.73202 -10.4577,4.72589 l -2.6008,-0.004 3.0426,-1.85544 z m -4.455,-192.80894 c 2.1976,-4.31042 2.2889,-5.43227 0.8607,-10.57494 l -1.0405,-3.74679 -4.0508,2.06656 c -2.228,1.1366 -4.2855,1.83184 -4.5724,1.54496 -0.51,-0.51005 0.165,-1.5066 6.147,-9.07419 1.6123,-2.03976 3.7155,-6.0243 4.6736,-8.85454 1.6617,-4.90838 1.7743,-5.01748 2.4403,-2.36383 0.3841,1.53013 0.2501,5.0489 -0.2977,7.81949 -0.5875,2.97087 -0.6472,6.53843 -0.1458,8.69628 1.2601,5.42234 1.0739,13.5529 -0.352,15.36676 -0.6875,0.87458 -2.2231,1.8784 -3.4124,2.2307 l -2.1624,0.64056 1.9124,-3.75102 z m -2.0947,-52.34207 c -3.2552,-6.38067 -7.2771,-22.656889 -6.1116,-24.732969 1.1419,-2.034 0.8284,-2.65425 4.6738,9.246899 1.4217,4.4 3.9145,10.16241 5.5397,12.80535 3.0977,5.03774 3.0647,6.69465 -0.1335,6.69465 -1.2351,0 -2.6516,-1.43272 -3.9684,-4.01393 z m 399.0824,273.91942 c 5.7336,-1.70198 10.7248,-3.38948 11.0916,-3.75 0.3667,-0.36052 -12.4583,-7.05754 -28.5,-14.88227 l -29.1669,-14.22678 0,-17.27322 c 0,-9.50027 0.3833,-34.99895 0.8517,-56.66372 l 0.8517,-39.3905 -3.3517,2.3905 c -2.8698,2.04676 -4.5132,2.3905 -11.4295,2.3905 -7.3606,0 -8.4133,-0.25582 -11.8552,-2.88111 -8.2872,-6.32093 -12.1991,-16.56598 -11.3052,-29.60744 0.6625,-9.66615 4.1782,-17.27854 10.8711,-23.53901 4.798,-4.48792 4.3343,-5.79962 -1.0634,-3.00836 -7.0014,3.62053 -11.4839,13.1831 -13.0334,27.80408 -1.2654,11.94068 -5.5249,135.5764 -4.6992,136.40202 1.6254,1.62547 76.4186,39.11292 78.2384,39.21426 1.1414,0.0636 6.7664,-1.27697 12.5,-2.97895 z m -717.1495,0.13234 c 7.1202,-3.63242 13.4554,-14.09417 18.9547,-31.30099 4.5623,-14.27524 6.2653,-26.65616 6.2911,-45.73684 0.035,-26.05776 -3.7986,-45.26842 -12.7095,-63.68587 -13.2824,-27.45302 -32.4141,-27.88909 -45.4122,-1.03509 -5.105,10.5469 -9.576,27.81668 -10.8067,41.7425 -0.5093,5.76315 -0.8255,10.61284 -0.7026,10.77708 0.1228,0.16424 4.7939,-0.32993 10.3802,-1.09815 l 10.157,-1.39676 2.4981,2.96887 c 3.8713,4.6008 5.4261,9.37818 5.4021,16.59954 -0.022,6.71991 -2.1751,13.3988 -5.0985,15.81687 -0.7906,0.65395 -6.0369,1.50578 -11.6585,1.89296 -5.6215,0.38718 -10.2199,0.97713 -10.2185,1.311 0.01,1.55115 5.2891,20.2034 7.1108,25.10705 5.1999,13.99744 13.4248,25.58552 20.2768,28.56805 4.4942,1.95623 11.1041,1.73064 15.5357,-0.53022 z m -9.9258,-11.62887 c 0,-0.32507 1.5876,-2.44579 3.528,-4.71272 7.059,-8.24686 11.5682,-21.61171 13.4375,-39.8273 3.5014,-34.12036 -2.1599,-64.70174 -15.9526,-86.17246 -5.3973,-8.4019 -5.5325,-8.69648 -3.9927,-8.69648 0.5611,0 3.115,3.23831 5.6754,7.19624 11.6619,18.02755 17.3044,40.22219 17.3044,68.06694 0,28.66675 -5.2656,50.38376 -14.766,60.89952 -3.1545,3.49174 -5.234,4.78147 -5.234,3.24626 z m 65.0752,11.03534 c 9.6631,-4.93384 19.6189,-25.7493 23.574,-49.28834 1.9491,-11.6001 2.1857,-38.73464 0.4461,-51.15596 -3.5497,-25.3462 -15.0089,-50.60192 -25.5091,-56.22147 -3.6933,-1.97656 -8.6264,-2.60602 -12.3854,-1.58036 -5.965,1.62756 -6.5059,2.53523 -3.7019,6.21147 4.2176,5.5296 11.5034,22.14436 13.9504,31.81301 6.2131,24.5495 6.1739,61.96878 -0.089,85.23651 -1.9599,7.28085 -9.4593,23.67117 -12.8872,28.16532 -3.1998,4.19516 -3.1241,4.84399 0.7772,6.66292 6.1719,2.8776 10.4141,2.91966 15.8251,0.1569 z m -28.4433,-1.07391 c 16.9215,-8.02976 29.2011,-52.34902 25.441,-91.82109 -1.9581,-20.55551 -5.004,-32.3818 -12.1981,-47.36124 -6.1958,-12.90086 -14.0887,-20.10161 -22.1046,-20.1661 -2.5658,-0.0206 -10.7702,2.72013 -10.7702,3.59793 0,0.2215 1.7878,3.02186 3.9729,6.22303 12.5405,18.37177 18.7292,46.25387 17.6808,79.65708 -0.865,27.56042 -5.7601,47.26636 -15.7904,63.56777 -3.3817,5.49589 -3.3841,5.40211 0.1733,6.82214 3.7899,1.51283 9.7961,1.28331 13.5953,-0.51952 z m 57.8241,-2.91653 c 10.0987,-4.79216 20.1758,-25.75864 24.0994,-50.14128 1.7832,-11.08182 2.0624,-37.45361 0.5225,-49.35387 -3.9107,-30.22055 -16.4838,-55.00396 -29.9517,-59.03906 -5.0223,-1.5047 -10.4791,-0.17643 -15.0395,3.66081 l -3.0033,2.52717 4.2868,5.82326 c 8.5921,11.67154 15.3702,31.96148 17.6616,52.8693 1.5547,14.1857 0.7724,42.60181 -1.487,54.01355 -2.082,10.51588 -6.7281,23.87599 -11.1001,31.91916 l -3.3881,6.2329 2.7217,1.47706 c 3.5762,1.9408 10.5998,1.94607 14.6777,0.011 z m 30.1165,-1.94345 c 9.9772,-5.84705 20.0359,-28.26895 23.3972,-52.15493 1.6213,-11.52169 1.3657,-37.32089 -0.4953,-49.98887 -3.8147,-25.96588 -15.7532,-50.24256 -27.0237,-54.95166 -5.6907,-2.3777 -12.5396,-1.4544 -16.6229,2.2409 -1.5521,1.4046 -1.3581,2.0089 2.6259,8.18039 17.3855,26.93119 22.7574,76.12231 12.5219,114.66376 -2.1966,8.27113 -8.3213,22.36805 -11.9049,27.40077 -1.6431,2.30745 -1.7919,3.08569 -0.7548,3.94642 4.5641,3.78785 12.4367,4.07385 18.2566,0.66322 z m 346.1775,-18.71264 c 45.2375,-11.11921 82.25,-20.46306 82.25,-20.76412 0,-0.30106 -6.0853,-3.91929 -13.5228,-8.04051 l -13.5229,-7.49314 0.2729,-14.48788 c 0.3193,-16.95549 -1.347,-14.91775 16.4427,-20.10808 l 11.17,-3.25894 20.7212,9.70298 c 11.3966,5.33664 20.8849,9.53927 21.085,9.33918 0.2001,-0.20008 0.6599,-15.53855 1.0218,-34.08549 l 0.6581,-33.7217 -2.413,0.56244 c -1.3272,0.30934 -52.813,8.4413 -114.413,18.07102 -61.6,9.62972 -113.1616,17.74769 -114.5813,18.03992 -2.3833,0.4906 -2.7817,1.39044 -5.1973,11.73894 -3.3306,14.26848 -4.5408,33.13406 -2.6862,41.87353 0.7765,3.65911 3.9868,11.35623 7.8278,18.76855 5.9678,11.51632 6.533,13.14611 6.7687,19.51862 l 0.2572,6.95309 6.3056,3.75908 c 3.468,2.0675 6.9805,3.77938 7.8055,3.80417 0.825,0.0248 38.5125,-9.05245 83.75,-20.17166 z m -255.8916,-2.33521 c 25.1029,-2.49559 46.8609,-5.01764 48.3511,-5.60454 1.4902,-0.58691 8.2402,-4.87498 15,-9.52904 l 12.2905,-8.46194 -7,0.59654 c -8.4585,0.72084 -111.2024,6.53642 -115.4789,6.53642 l -3.0211,0 0,10.5 c 0,10.01333 0.098,10.5 2.1084,10.5 1.1597,0 22.6472,-2.04185 47.75,-4.53744 z m -58.4334,-20.24578 c -2.5805,-2.35578 -4.9573,-4.01776 -5.2818,-3.6933 -0.3245,0.32445 -1.352,3.82691 -2.2835,7.78322 l -1.6936,7.1933 3.6576,3 c 2.0117,1.65 5.0118,4.2024 6.6669,5.672 l 3.0094,2.67201 0.3084,-9.17201 0.3085,-9.172 -4.6919,-4.28322 z m 75.575,-3.2509 c 62.182,-3.32617 65.0032,-3.55524 64.9928,-5.27715 0,-0.6538 -7.2751,-5.84314 -16.1581,-11.53186 -14.6804,-9.40137 -16.2439,-10.17531 -17.1719,-8.5 -1.8945,3.42013 -6.8567,7.34193 -9.5186,7.52283 -5.385,0.36595 -9.8657,-0.32045 -18.5774,-2.84591 -8.1219,-2.35448 -10.0293,-2.5393 -21,-2.03493 -8.3871,0.38558 -17.2508,1.67163 -29.0668,4.21732 -9.35,2.01442 -20.239,3.73485 -24.1978,3.8232 -6.2782,0.1401 -7.2667,0.41616 -7.7364,2.16062 -1.3696,5.08672 -0.5694,7.22293 4.4721,11.93869 l 5.0379,4.71238 6.2121,-0.58148 c 3.4167,-0.31981 31.6371,-1.94148 62.7121,-3.60371 z m 345.7762,0.89504 c 6.9981,-1.72649 13.0709,-3.44609 13.4951,-3.82134 0.4243,-0.37524 -12.7676,-7.55833 -29.3151,-15.96242 -16.5476,-8.40408 -30.2537,-15.11294 -30.4581,-14.90857 -0.2044,0.20438 -0.4619,4.8465 -0.5722,10.31583 l -0.2006,9.94425 15.3874,8.69254 c 8.463,4.7809 16.1866,8.73445 17.1636,8.78567 0.9769,0.0512 7.5019,-1.31946 14.5,-3.04596 z m -645.4834,-5.05122 c 4.3174,-5.78269 1.3767,-21.17536 -4.8214,-25.23646 -2.37,-1.55294 -2.4958,-1.49344 -5.0716,2.39886 -5.235,7.91057 -3.746,20.01679 2.9652,24.10859 3.695,2.25279 4.3924,2.12484 6.9278,-1.27099 z m 17.2072,0.19936 c 4.4,-0.56529 14.4574,-1.67393 22.3497,-2.46363 16.3017,-1.63116 16.3431,-1.65503 18.2216,-10.50913 0.9712,-4.5776 0.893,-6.30835 -0.4825,-10.67193 -0.903,-2.86453 -2.4174,-6.11052 -3.3653,-7.21332 -1.6613,-1.93268 -2.0666,-1.95572 -11.2235,-0.63808 -5.225,0.75186 -15.575,1.85626 -23,2.45423 -7.425,0.59796 -15.3798,1.32264 -17.6774,1.61039 l -4.1774,0.52317 3.0416,4.89284 c 2.6473,4.25866 3.0477,5.84175 3.0887,12.21386 0.026,4.04392 -0.5131,8.368 -1.2045,9.65996 -1.2298,2.2978 -1.1843,2.32864 2.5886,1.75418 2.1122,-0.32161 7.4404,-1.04725 11.8404,-1.61254 z m 647.5,-10.34785 0,-8.33878 -21.7785,-10.08483 -21.7786,-10.08482 -9.2357,2.60932 c -5.2104,1.47206 -8.858,2.98708 -8.369,3.47605 1.0332,1.03328 59.3279,30.68785 60.4118,30.73159 0.4125,0.0166 0.75,-3.72219 0.75,-8.30853 z m -294.2202,-3.91121 c 3.4769,-9.66147 6.4898,-26.152 5.5953,-30.62448 -0.3931,-1.96543 -1.2282,-3.12364 -2.2501,-3.12045 -0.8937,0.003 -9.95,1.3505 -20.125,2.99493 -10.175,1.64443 -18.7309,2.99215 -19.0132,2.99493 -0.2822,0.003 -0.5131,3.52462 -0.5131,7.8263 l 0,7.82123 15.9729,10.17877 c 8.7851,5.59832 16.286,10.17877 16.6686,10.17877 0.3826,0 2.0317,-3.7125 3.6646,-8.25 z m -123.7295,-5.26421 c 25.7793,-7.27927 37.6488,-8.02972 54.9497,-3.47421 4.675,1.23099 11.0563,2.28968 14.1808,2.35265 4.7641,0.096 6.1106,-0.28718 8.345,-2.37486 2.9913,-2.79495 5.4742,-7.09104 5.4742,-9.47183 0,-0.86998 -0.6232,-3.07341 -1.385,-4.89651 l -1.385,-3.31474 -6.365,0.98649 c -3.5007,0.54257 -7.1432,1.66002 -8.0944,2.48322 -1.0551,0.91316 -3.3945,1.42047 -6,1.30113 -2.3488,-0.10757 -5.3956,-0.19005 -6.7706,-0.18327 -2.2664,0.0112 -68.7179,10.33796 -75.25,11.69411 -2.4353,0.5056 -2.75,1.0196 -2.75,4.49149 l 0,3.92054 6.3024,0 c 4.18,0 10.4937,-1.18347 18.7479,-3.51421 z m 51.1656,-22.98579 c 39.5585,-6.325 72.807,-11.5 73.8857,-11.5 1.0786,0 2.2014,-0.62597 2.495,-1.39105 0.5175,-1.34878 -2.8936,-22.23932 -3.7754,-23.12113 -0.6336,-0.6335 -99.1619,13.66567 -100.1459,14.53391 -0.4536,0.40023 -1.321,3.93408 -1.9276,7.85299 -0.6066,3.9189 -1.5164,7.12528 -2.0219,7.12528 -0.5054,0 -2.9399,-1.77895 -5.41,-3.95322 -5.8507,-5.15002 -11.9827,-8.05731 -16.8815,-8.00382 -2.1639,0.0236 -8.4343,0.82967 -13.9343,1.7912 -8.832,1.54406 -9.9742,1.97705 -9.7793,3.70705 0.1214,1.07733 0.5274,7.02129 0.9024,13.20879 0.6267,10.34274 0.8425,11.25 2.675,11.25 1.0963,0 34.3593,-5.175 73.9178,-11.5 z m -28.0214,-66.07639 c 3.7048,-25.80799 6.7517,-47.84042 6.7708,-48.96096 0.029,-1.70443 -1.6118,-2.57705 -10.0418,-5.34019 -5.542,-1.81656 -10.1905,-3.14975 -10.3299,-2.96265 -0.3393,0.45553 -15.608,94.99478 -15.5999,96.59019 0,0.80138 1.5316,1.25351 4.2563,1.25977 4.2625,0.01 13.872,3.76052 15.2191,5.94024 0.3928,0.63556 1.2261,0.98493 1.8517,0.77639 0.6934,-0.23113 3.7676,-18.70016 7.8737,-47.30279 z m 282.4493,27.07885 c 64.8209,-10.17364 120.6286,-18.49864 124.0171,-18.5 3.3885,-10e-4 9.0135,0.89173 12.5,1.98464 11.7942,3.69708 13.8331,2.91069 13.8564,-5.34409 0.048,-17.19231 3.0944,-31.10777 8.5776,-39.18771 l 2.5074,-3.6948 -6.3285,0.40296 c -7.7434,0.49307 -18.0275,5.15025 -28.2738,12.80394 -8.5571,6.39191 -14.5003,9.48663 -22.158,11.53809 -4.5588,1.22129 -215.7602,32.49451 -219.4492,32.49451 -0.491,0 -0.8928,1.30029 -0.8928,2.88953 0,2.75422 -2.5254,17.666 -3.6175,21.36047 -0.2845,0.9625 -0.085,1.75 0.4439,1.75 0.5286,0 53.9964,-8.32389 118.8174,-18.49754 z m -254.3938,6.87947 c 18.3356,-2.64953 19.75,-3.00111 19.75,-4.90945 0,-1.13056 -0.7194,-7.43686 -1.5986,-14.01402 -1.0306,-7.70965 -1.4328,-15.95556 -1.132,-23.20846 0.3765,-9.0783 0.2025,-11.25 -0.9014,-11.25 -2.1539,0 -1.6488,-1.12718 2.4479,-5.46215 2.0988,-2.22082 4.3461,-5.29052 4.994,-6.82157 1.0122,-2.39207 0.9326,-2.87218 -0.566,-3.41255 -0.9591,-0.34586 -7.3433,-2.79378 -14.187,-5.43983 -6.8437,-2.64604 -12.6261,-4.62805 -12.8497,-4.40445 -0.6329,0.63291 1.8005,7.67004 3.9541,11.43506 1.9157,3.34895 1.8646,6.10549 -0.1131,6.10549 -1.2609,0 -5.2031,-7.76327 -7.4907,-14.75122 -1.3225,-4.03976 -2.2879,-5.394 -4.1848,-5.8701 -1.3562,-0.34038 -2.6053,-0.45233 -2.7758,-0.24878 -0.1704,0.20356 -1.26,6.69792 -2.4213,14.43191 -1.8786,12.51199 -1.9906,15.37759 -1.0162,26 0.7471,8.14387 0.7877,15.50513 0.1276,23.16097 -0.911,10.56521 -1.1885,11.55533 -4.7362,16.8985 l -3.7684,5.67572 3.3588,-0.53058 c 1.8473,-0.29182 12.2463,-1.81484 23.1088,-3.38449 z m 50.1748,-7.40274 c 11.5086,-1.6475 21.0266,-3.1043 21.1511,-3.23732 0.1866,-0.19953 -2.1157,-11.721 -4.0673,-20.35381 -0.3747,-1.65764 -1.4966,-2.25163 -5.2154,-2.76135 -3.0645,-0.42004 -6.0515,-1.705 -8.457,-3.63806 -3.1594,-2.53903 -4.5928,-2.99195 -9.5276,-3.01061 -6.8519,-0.0259 -13.0114,-2.51347 -16.1717,-6.5311 -1.8512,-2.35341 -2.0957,-3.53893 -1.5207,-7.37311 0.6086,-4.05841 0.5116,-4.42478 -0.8682,-3.27968 -2.1784,1.80793 -4.1489,16.89009 -3.4179,26.16095 0.3272,4.14969 1.1245,12.15023 1.7718,17.77897 1.1085,9.63978 1.2994,10.20522 3.2875,9.73733 1.1608,-0.27321 11.5268,-1.8447 23.0354,-3.49221 z m -73.6203,-10.47919 -0.055,-5 -0.8008,4.5 c -0.4403,2.475 -0.8024,5.625 -0.8045,7 0,2.27802 0.072,2.32242 0.8556,0.5 0.4727,-1.1 0.8347,-4.25 0.8045,-7 z m 467.7662,1.60719 c 18.228,-8.27896 19.8447,-43.22254 2.4112,-52.11642 -13.738,-7.0086 -28.9927,7.09867 -28.9763,26.79674 0.01,8.24365 1.1175,12.43818 4.8532,18.32885 3.1792,5.01307 9.596,8.8965 14.6412,8.86089 1.65,-0.0117 4.8318,-0.85317 7.0707,-1.87006 z m -352.5101,-21.16777 c 1.303,-1.30299 1.9464,-3.04936 1.75,-4.75 -0.2673,-2.31447 -0.7717,-2.68942 -3.6177,-2.68942 -5.3345,0 -9.1929,-6.9915 -9.1929,-16.65756 0,-6.43384 -2.8689,-27.87064 -4.1667,-31.13374 -0.6106,-1.53521 -2.5837,-4.01021 -4.3846,-5.5 -4.2797,-3.54022 -6.4487,-11.7094 -6.4487,-24.28744 0,-9.49428 2.3644,-21.02697 4.2297,-20.63109 0.5438,0.11541 1.7728,-2.49017 2.7311,-5.79017 0.9584,-3.3 3.3506,-11.43792 5.3161,-18.084259 4.5615,-15.42446 6.5254,-24.99608 7.3621,-35.88054 0.8182,-10.64441 -1.3192,-31.5352 -3.2264,-31.5352 -0.8682,0 -0.4446,-1.89646 1.3556,-6.06863 2.3638,-5.47831 2.4902,-6.37808 1.2997,-9.25 -2.3897,-5.76516 -2.3198,-8.9664196 0.3506,-16.0611496 4.2363,-11.2548804 3.3168,-25.7403204 -2.4947,-39.2978804 -3.2629,-7.61223 -4.7141,-16.52976 -5.9982,-36.85868 l -1.2005,-19.00455 2.3875,-4.479561 2.3874,-4.47955 0.3135,4.37315 0.3135,4.373151 3.6865,-0.52195 c 6.6932,-0.94764 8.7941,-2.367351 12.0557,-8.146631 3.5361,-6.26558 5.396,-7.23562 4.463,-2.32772 -1.409,7.41175 -7.1221,14.596341 -14.6336,18.402711 l -4.9814,2.52427 0.6591,9.37577 c 0.3625,5.15668 0.9068,10.0214 1.2096,10.8105 1.115,2.90577 20.5347,-0.30654 24.9141,-4.12118 1.1,-0.95814 3.9446,-4.20363 6.3213,-7.2122 4.5891,-5.80918 10.7316,-10.8103 11.8742,-9.66773 0.378,0.37804 -1.6014,3.03871 -4.3987,5.9126 -2.7974,2.87389 -5.4054,6.35026 -5.7956,7.72526 -0.3902,1.375 -1.3533,3.5206 -2.1402,4.76801 -1.2429,1.97022 -1.241,2.3408 0.014,2.82235 0.7945,0.30489 2.8129,-0.15321 4.4852,-1.01801 3.4395,-1.77864 4.5076,-1.97631 3.7106,-0.6867 -0.7991,1.29298 4.6028,2.09188 6.6687,0.98625 1.416,-0.75782 1.7606,-0.53904 1.7606,1.11767 0,3.04104 -3.4081,3.87166 -14.5855,3.55471 -6.8133,-0.1932 -12.0224,0.24701 -16.6535,1.40734 l -6.739,1.68848 3.0419,2.249 c 1.6731,1.23695 3.5627,3.45542 4.1992,4.92995 0.6365,1.47452 2.4449,4.19587 4.0188,6.04744 6.1515,7.23693 7.2033,13.7331 2.6207,16.18567 -2.8106,1.50417 -3.4113,0.59033 -1.9427,-2.95518 1.118,-2.69918 0.9721,-3.28909 -1.6154,-6.53203 -3.2803,-4.11111 -3.9672,-4.32886 -4.8529,-1.53831 -0.6432,2.02652 -5.1591,5.6392 -5.9991,4.79921 -0.2447,-0.24478 0.4443,-2.78556 1.5313,-5.64618 2.4776,-6.52055 2.4891,-6.33421 -0.5989,-9.66624 -1.9185,-2.0701 -2.4149,-3.41684 -1.9469,-5.28164 0.5928,-2.36179 0.4489,-2.46716 -2.5499,-1.86741 -1.7479,0.34959 -3.5242,0.63562 -3.9473,0.63562 -0.4231,0 0.5749,4.1625 2.2178,9.25 4.1175,12.75072 5.7637,21.04226 5.7841,29.1337 l 0.017,6.88369 9.75,-0.50912 c 10.7689,-0.56233 19.2253,-3.1525 23.6351,-7.23939 2.0675,-1.91614 2.6148,-3.35793 2.6148,-6.88823 0,-4.75052 3.2343,-13.63065 4.9645,-13.63065 1.3432,0 1.3174,5.44456 -0.049,10.36649 -0.5905,2.12658 -0.8027,4.94586 -0.4716,6.26507 0.5985,2.3847 0.6438,2.37034 7.8291,-2.48368 10.2736,-6.94021 15.469,-12.37163 18.9503,-19.81099 3.6343,-7.76622 3.2499,-9.23825 -3.8902,-14.89811 -12.198,-9.66914 -13.5764,-11.65087 -16.438,-23.632 -2.4081,-10.0823 -4.1542,-13.185731 -14.1929,-25.225861 -8.9714,-10.75996 -12.7955,-13.44592 -28.6083,-20.09391 -4.6234,-1.94379 -12.2734,-5.97752 -17,-8.96386 -9.3265,-5.89269 -14.9997,-8.24722 -28.0937,-11.65956 -8.2856,-2.15925 -8.6892,-2.40689 -16,-9.81685 -7.7782,-7.88365 -12.299,-10.51899 -23.1507,-13.49512 -4.5252,-1.24108 -6.0364,-2.20364 -7.5878,-4.83292 -1.0654,-1.80576 -4.9528,-7.28157 -8.6387,-12.16847 l -6.7017,-8.88529 2.9356,-2.68119 c 5.7336,-5.23686 8.2433,-12.9654 8.2433,-25.3849 0,-15.72113 -3.984,-25.64537 -14.5205,-36.17121 -11.7915,-11.7796 -23.1903,-16.08612 -40.221,-15.19565 -7.4903,0.39164 -10.3304,1.03431 -15.7233,3.55797 -8.2294,3.85099 -15.3802,10.47319 -21.6935,20.09001 -5.9898,9.12392 -7.5278,13.62648 -9.2789,27.16305 -1.0405,8.04355 -2.24,12.48365 -5.0598,18.72885 -2.9227,6.47315 -3.4782,8.59281 -2.655,10.13097 0.5726,1.06982 4.3876,4.18347 8.4779,6.91922 5.9893,4.00589 8.7962,5.20337 14.4202,6.15198 l 6.9833,1.17788 2.2078,5.43979 c 3.2556,8.0212 13.7124,22.01928 21.8382,29.23393 7.0582,6.26666 8.1417,8.36019 6.5176,12.59257 -0.992,2.58507 -2.1269,1.81394 -2.8276,-1.9213 -0.5168,-2.75468 -1.4734,-3.9195 -4.4778,-5.4522 -2.1013,-1.07201 -5.1457,-3.06417 -6.7654,-4.42702 l -2.9448,-2.4779 -1.1698,4.37378 c -1.427,5.33559 -6.455,11.28084 -11.192,13.23371 -10.1761,4.19525 -13.439,9.90561 -14.4746,25.33176 -0.8124,12.102251 0,16.277721 4.4614,22.821441 3.7102,5.44661 3.9724,11.5454 0.8545,19.8745 -6.7181,17.94615 -10.6816,43.88617 -8.1326,53.22502 0.8393,3.07483 0.6021,4.01973 -1.9521,7.7784304 -4.0681,5.98651 -7.4096,13.8934796 -9.9323,23.5029396 -2.4587,9.36566 -2.7079,17.70146 -1.4116,47.21863 0.6953,15.83246 0.5683,20.3337 -0.7623,27 -0.8781,4.4 -2.0607,12.274999 -2.6279,17.499999 -3.4302,31.60237 -4.2871,36.91775 -7.2113,44.73343 l -2.0289,5.42258 2.1697,2.30947 c 1.1933,1.2702 4.7557,3.0351 7.9166,3.92199 7.2259,2.02747 7.9255,2.01507 7.7547,-0.13747 -0.1811,-2.28233 3.4841,-2.03898 4.8611,0.32275 0.55,0.94333 1.9437,2.85314 3.097,4.244 2.0014,2.41358 2.2977,2.47269 6.5,1.29687 3.6066,-1.00914 5.6691,-0.96631 11.403,0.23681 7.8908,1.6557 9.0396,1.20178 10.0762,-3.98164 0.5645,-2.82219 0.3257,-3.20735 -2.6269,-4.23661 -1.7862,-0.6227 -4.1029,-1.13218 -5.1482,-1.13218 -6.431,0 -10.3637,-6.07419 -8.8905,-13.73172 1.0098,-5.24841 2.4931,-7.08653 7.5894,-9.4048 5.7263,-2.60485 8.9313,-2.40714 10.318,0.63652 1.2167,2.67019 5.182,3.51377 5.182,1.10241 0,-1.89617 -10.5135,-18.87012 -13.9992,-22.60157 -1.8523,-1.98294 -3.7744,-3.00084 -5.6662,-3.00084 l -2.863,0 -0.28,-12.25 c -0.1539,-6.737499 0.196,-14.724999 0.7777,-17.749999 1.179,-6.13144 4.1356,-13.99049 5.2654,-13.99625 0.404,-0.002 0.4785,2.80875 0.1654,6.24625 l -0.5692,6.25 10.0914,-21.30205 c 11.4204,-24.10727 14.0777,-31.2075 14.0777,-37.61564 0,-4.00902 -3.6751,-25.5884496 -4.4983,-26.4133296 -0.1817,-0.18206 -1.2689,0.17127 -2.416,0.78518 -2.6535,1.42007 -2.62,0.86839 0.2257,-3.72403 4.5065,-7.2725004 9.3331,-23.5996804 10.3402,-34.9785004 l 0.6416,-7.24837 -4.9395,-5.25163 c -6.1257,-6.51295 -14.3537,-17.9899 -14.3537,-20.02163 0,-1.95697 -1.9157,-2.65993 -5.4221,-1.98965 -2.6141,0.49972 -2.7194,0.39259 -1.6249,-1.65255 0.6437,-1.2028 2.1551,-2.63782 3.3587,-3.18893 2.0991,-0.96118 2.1883,-1.57261 2.1883,-14.99537 0,-13.441451 0.068,-13.908951 1.737,-11.853751 2.7978,3.44635 3.8081,9.094451 3.5266,19.715681 l -0.2636,9.95033 5,7.39212 c 11.7719,17.40379 20.9851,23.53995 34.0913,22.70541 3.5248,-0.22444 6.4087,-0.0651 6.4087,0.35413 0,1.22523 -3.6511,2.83258 -6.4343,2.83258 -3.4174,0 -3.2352,1.57217 0.597,5.15199 8.203,7.66275 21.385,12.18024 35.8373,12.28147 l 9.5,0.0665 -0.3232,-3.98988 c -0.1778,-2.19443 -0.4204,-4.087 -0.5391,-4.20571 -0.1187,-0.11871 -2.1186,0.43973 -4.4442,1.24098 -4.9427,1.70289 -11.854,0.63941 -13.8837,-2.13634 -1.9591,-2.67928 -0.7944,-3.18227 5.1941,-2.24318 7.5551,1.18475 11.9037,-0.002 12.3012,-3.35622 l 0.3051,-2.57477 -13.3051,-0.42787 c -12.5931,-0.40497 -13.6396,-0.59934 -19.5562,-3.63242 -7.1227,-3.65129 -11.9707,-9.3933 -15.2893,-18.10859 -1.9745,-5.18518 -3.8818,-18.066 -2.6752,-18.066 0.3155,0 1.3124,2.54104 2.2152,5.64675 6.0317,20.74837 14.1442,27.42271 35.9846,29.6055 6.2987,0.62952 11.7157,0.88119 12.0376,0.55926 0.322,-0.32193 0.2734,-5.11421 -0.1078,-10.64952 l -0.6932,-10.06419 -5.1643,-3.42892 c -8.9911,-5.96976 -17.4838,-13.60603 -19.4769,-17.51282 -6.6531,-13.041121 -6.7108,-31.497331 -0.1169,-37.406061 4.273,-3.82907 5.3718,-3.43005 2.7536,1 -1.8913,3.20001 -2.2163,5.2189 -2.2163,13.76538 0,9.29654 0.2355,10.49406 3.2806,16.684821 4.1416,8.41991 9.4605,13.25206 26.2844,23.87882 7.1426,4.51156 12.862,8.32728 12.71,8.47936 -0.3814,0.3814 -8.8439,-1.2494 -11.1836,-2.15517 -1.7215,-0.66646 -1.8396,-0.4039 -1.2055,2.67895 0.3866,1.87981 1.1144,11.51784 1.6174,21.41784 0.8904,17.52917 2.9296,33.5474604 5.1388,40.3680804 1.1322,3.49548 10.4599,14.6120296 11.2013,13.3494796 0.2318,-0.39466 0.734,-2.1749 1.1159,-3.95609 1.2397,-5.7802896 2.5407,-4.6191396 2.5407,2.26751 0,5.43106 -0.6492,8.12354 -3.5488,14.71844 -6.1175,13.91363 -6.4203,16.49118 -6.4336,54.75258 -0.01,22.147019 0.4346,37.722519 1.2352,43.499999 0.686,4.95 1.2298,13.725 1.2087,19.5 -0.052,14.31237 -2.3842,51.4205 -3.5803,56.97883 -0.535,2.48664 -1.2319,6.63202 -1.5485,9.21196 -0.5522,4.49895 -0.4379,4.77484 2.7958,6.74626 1.8543,1.13051 5.059,2.05716 7.1215,2.05921 4.0172,0.004 5.0383,-1.45259 1.75,-2.49626 -2.7481,-0.87221 -2.5081,-2.33436 0.5073,-3.09118 3.1093,-0.78038 6.4189,1.26826 12.5437,7.76431 4.9399,5.23947 5.1592,5.30418 12.958,3.82516 3.7287,-0.70712 5.6707,-0.67911 6.6037,0.0953 1.2559,1.04228 9.4729,3.62644 12.1373,3.81703 0.6875,0.0492 2.1773,-0.83784 3.3106,-1.97116 z M 2941.2727,97.006091 c -1.5218,-1.8337 -2.8884,-9.61982 -2.4133,-13.75026 1.6764,-14.57493 2.172,-15.76659 9.9397,-23.89692 8.2725,-8.65872 9.9303,-12.21896 11.2715,-24.20696 0.4863,-4.347 1.1026,-8.12197 1.3694,-8.38884 0.2669,-0.26686 1.0419,3.92385 1.7222,9.31268 1.7896,14.17557 1.0613,16.15955 -9.94,27.07742 -10.7094,10.62815 -11.7779,13.30446 -10.3985,26.0467 0.9054,8.36338 0.5203,10.301889 -1.551,7.80618 z m -129.4366,-82.39132 c -1.6102,-7.4932696 -5.9284,-15.7181096 -10.0466,-19.1359396 -2.0503,-1.70163 -2.1114,-4.1051604 -0.1044,-4.1051604 1.9428,0 10.2226,7.5958304 11.934,10.9481304 0.7166,1.40353 1.628,4.06108 2.0255,5.9056696 0.8083,3.75102 -0.2083,14.1462 -1.3834,14.1462 -0.4168,0 -1.5081,-3.4915 -2.4251,-7.7589 z m 139.963,-10.4910996 c -4.2919,-5.6576 -6.6363,-14.5664404 -6.6363,-25.2184504 0,-8.19822 0.2798,-9.81132 2,-11.53155 1.1,-1.1 3.0125,-2.01595 4.25,-2.03544 3.6376,-0.0573 6.5154,-2.2031 9.7097,-7.23996 1.6479,-2.59853 3.4562,-4.7246 4.0183,-4.7246 2.7581,0 -0.5286,11.4077 -4.403,15.28214 -0.9448,0.94482 -3.1482,1.72475 -4.8964,1.73317 -5.6228,0.0271 -6.1796,0.99274 -6.1689,10.69822 0.011,9.57398 1.8823,16.6379104 6.0268,22.7451004 2.2552,3.32329 2.2851,3.54137 0.4843,3.54137 -1.0555,0 -3.0285,-1.4625 -4.3845,-3.25 z M 2809.9384,-9.376329 c -4.1351,-4.71608 -5.0018,-8.26711 -4.6089,-18.88265 0.2248,-6.07072 0.8657,-10.79979 1.5576,-11.49166 0.9009,-0.90092 1.1757,0.81708 1.1757,7.351 0,4.68968 0.3114,9.81968 0.6919,11.4 1.0649,4.42211 4.1503,10.0604 5.8655,10.71859 0.8484,0.32557 1.5426,1.05607 1.5426,1.62334 0,1.6947104 -4.5711,1.1669704 -6.2244,-0.71862 z m 135.2464,-78.5 c 0.026,-5.02562 2.3157,-10.411841 7.9586,-18.721491 4.7936,-7.05878 7.0874,-12.90112 6.36,-16.19832 -0.4099,-1.85774 -0.2969,-2.02606 0.5573,-0.83019 1.528,2.13908 1.3513,9.46778 -0.3249,13.47943 -0.7848,1.87836 -3.2638,6.12007 -5.5088,9.42602 -5.538,8.155081 -6.2836,10.336271 -4.4354,12.974991 1.8312,2.61441 1.0319,4.11956 -2.1878,4.11956 -2.2085,0 -2.4389,-0.40474 -2.419,-4.25 z m -108.8015,-31.000001 c -0.6146,-1.2375 -1.2588,-3.14773 -1.4317,-4.24496 -0.2397,-1.52202 -1.7336,-2.35427 -6.3015,-3.51059 -5.8568,-1.48261 -5.989,-1.59166 -6.0628,-5.00504 -0.041,-1.91918 -0.4265,-5.00523 -0.8555,-6.8579 -1.2187,-5.26338 1.6314,-3.48698 3.3255,2.07265 1.3547,4.44614 1.5304,4.59454 6.1683,5.20979 2.6257,0.3483 5.807,1.46979 7.0696,2.49219 2.0869,1.68987 2.1774,2.11847 0.9952,4.71305 -1.1722,2.57269 -1.0946,2.99073 0.786,4.23944 2.7491,1.82533 2.6466,3.14137 -0.2446,3.14137 -1.4196,0 -2.768,-0.87974 -3.4485,-2.25 z m 10.7795,-4.82692 c 0,-6.75125 3.4265,-10.44669 10.5874,-11.41838 6.6716,-0.9053 11.0138,-2.3193 12.455,-4.05585 1.6732,-2.01604 2.9576,-1.80771 2.9576,0.47972 0,3.16245 -2.4477,4.70397 -11.1978,7.05209 -4.5662,1.22537 -8.8147,2.64461 -9.4411,3.15388 -0.6264,0.50927 -1.6454,2.93733 -2.2644,5.3957 -1.5054,5.97837 -3.0967,5.66637 -3.0967,-0.60716 z m 52,-9.4552 c 0,-3.35956 2.9982,-8.41561 5.8716,-9.90146 3.5449,-1.83318 10.914,-2.02021 18.1821,-0.46148 3.9065,0.83778 6.1,2.08154 9.072,5.14397 2.1558,2.22147 3.7529,4.20581 3.5491,4.40966 -0.2039,0.20384 -2.3516,-0.73503 -4.7727,-2.08639 -10.4176,-5.81458 -19.7205,-5.62433 -26.4081,0.54007 -4.636,4.27332 -5.494,4.64122 -5.494,2.35563 z m -46.0768,-19.61129 c -0.6386,-1.19334 -0.9539,-4.47245 -0.7113,-7.39781 0.3493,-4.21272 1.3632,-6.61283 5.1142,-12.10659 2.5732,-3.7687 4.6987,-7.52719 4.7234,-8.35219 0.025,-0.825 1.3843,-3.975 3.0213,-7 l 2.9765,-5.5 -0.5913,4.5 c -1.0767,8.19481 -3.47,14.94641 -6.5361,18.4384 -3.5346,4.02572 -4.9199,8.19437 -4.9199,14.805 0,5.07842 -1.2082,6.10459 -3.0767,2.61319 z m -20.4232,-26.33054 c -5.9772,-1.30995 -17.3271,-5.01978 -18.2834,-5.97613 -1.5243,-1.52427 3.9576,-1.57466 12.086,-0.11111 5.0948,0.91734 12.1735,1.53138 15.7304,1.36454 l 6.467,-0.30335 3,-5.64605 c 1.65,-3.10533 3.9,-6.65493 5,-7.88801 2.039,-2.28573 8.3408,-5.45849 9.1783,-4.62101 0.2541,0.25415 -1.5719,2.49609 -4.0579,4.98209 -3.2839,3.2839 -4.9617,6.0391 -6.1349,10.07476 -2.7707,9.53109 -8.0508,11.39734 -22.9855,8.12427 z m 181.2881,402.22395 c 2.0694,-2.50429 2.4867,-8.3323 0.7229,-10.09614 -2.1154,-2.11537 -3.752,-2.08904 -6.4602,0.10393 -2.8187,2.2824 -3.1164,7.98982 -0.5161,9.89125 2.3114,1.69009 4.9056,1.73198 6.2534,0.10096 z m -11.5045,-5.82762 c 0.3008,-2.24268 1.247,-4.85124 2.1027,-5.79679 1.4497,-1.60183 0.6876,-2.03412 -11.1652,-6.33315 -18.8318,-6.83033 -17.2237,-6.67987 -17.2064,-1.60983 0.026,7.49271 1.3288,8.79278 13.497,13.46476 6.0436,2.32043 11.2665,4.24904 11.6066,4.2858 0.3401,0.0368 0.8645,-1.7681 1.1653,-4.01079 z m 267.8475,-19.14475 c 3.6172,-5.61545 8.9469,-10.50812 12.3872,-11.37159 2.2364,-0.5613 3.5731,-2.41416 1.7317,-2.40046 -2.651,0.0197 -9.2514,2.56921 -11.9777,4.62651 -3.5057,2.64543 -7.7214,9.18654 -8.835,13.70825 -0.6679,2.71203 -0.6012,2.77979 1.4762,1.5 1.1965,-0.73719 3.5445,-3.46541 5.2176,-6.06271 z m 21.3516,-9.57266 c -0.8262,-1.01811 -9.8465,2.47127 -12.6324,4.88665 -3.3294,2.88658 -3.2997,2.88133 4.7608,-0.84346 4.461,-2.06149 8.0033,-3.88092 7.8716,-4.04319 z m -374.6215,-0.95497 c 0.516,-2.0625 1.2019,-4.92744 1.5241,-6.36653 l 0.5858,-2.61652 -46.2356,-15.66085 c -25.4295,-8.61347 -49.0818,-16.66104 -52.5605,-17.88348 l -6.325,-2.22262 -1.925,2.36078 c -2.3999,2.94316 -2.4826,7.3518 -0.175,9.32776 0.9625,0.82419 8.95,3.89267 17.75,6.81886 8.8,2.92618 16.9,5.68923 18,6.14009 1.1,0.45087 11.225,3.97539 22.5,7.83228 11.275,3.85688 25.675,9.0106 32,11.4527 6.325,2.4421 12.0452,4.46883 12.7115,4.50385 0.6663,0.035 1.6336,-1.62382 2.1497,-3.68632 z m 0.8825,-26.5 c -0.4159,-9.6815 -1.2829,-15.12969 -4.135,-25.98415 -1.9848,-7.55378 -3.6087,-15.62547 -3.6087,-17.93709 l 0,-4.20294 -3,2.87418 c -2.9159,2.79357 -3,2.81145 -3,0.63743 0,-3.76897 2.6349,-7.62328 8.9538,-13.09743 l 6.0462,-5.23789 0,-19.350159 0,-19.35017 -3.25,-2.47203 c -5.6495,-4.29716 -13.4716,-7.67285 -21.2104,-9.15352 -4.1189,-0.78809 -8.0629,-1.19647 -8.7643,-0.90751 -0.7014,0.28895 -3.67,4.2593 -6.5969,8.82299 -2.9268,4.56369 -8.4499,11.85502 -12.2735,16.20296 -8.7508,9.95103 -10.9106,14.35672 -11.5817,23.62573 -0.4597,6.348639 -0.122,8.494519 2.6412,16.779599 1.7426,5.225 3.4287,10.175 3.747,11 0.3182,0.825 -0.3717,0.375 -1.5331,-1 l -2.1118,-2.5 -0.033,4.32994 c -0.062,8.07961 3.0214,28.62478 4.4629,29.73601 0.7605,0.58627 5.7504,2.57146 11.0886,4.41154 8.9018,3.06841 9.8065,3.20793 10.9208,1.68404 1.982,-2.71048 4.4945,-2.07238 4.4945,1.14146 0,2.72134 0.4151,2.93884 14.25,7.46655 7.8375,2.56496 14.4232,4.67862 14.635,4.69701 0.2117,0.0184 0.1482,-5.47905 -0.1413,-12.21655 z m -43.7437,-36.56291 c 0,-1.42796 5.3619,-5.89788 9.6555,-8.04917 2.2855,-1.14517 5.098,-3.28036 6.25,-4.74488 l 2.0945,-2.66276 0,2.38486 c -0.01,4.79602 -3.4544,8.58543 -9.3751,10.30661 -3.0356,0.88249 -5.7938,2.04862 -6.1293,2.59139 -0.7354,1.1899 -2.4919,1.31252 -2.4919,0.17395 z m 13.4207,-33.722629 c -2.2577,-5.40342 -2.3345,-14.97065 -0.1379,-17.17198 1.7107,-1.71439 1.7713,-1.51612 1.5,4.90458 -0.269,6.36402 -0.1239,6.85517 2.9672,10.04467 4.0648,4.19421 4.1188,5.75827 0.199,5.75827 -2.5475,0 -3.2948,-0.58347 -4.5283,-3.53554 z m -33.5799,44.553589 c -0.7443,-18.04853 -1.3627,-22.7524 -3.5737,-27.18438 -1.1935,-2.39255 -1.4065,-4.94684 -0.935,-11.215889 0.9053,-12.03727 1.862,-14.25518 10.1881,-23.61778 4.1574,-4.675 9.7454,-11.78445 12.4177,-15.79879 4.2172,-6.33515 4.7916,-7.79897 4.3506,-11.08725 -0.3262,-2.43154 0.075,-4.91599 1.1197,-6.93645 2.0645,-3.99232 23.5443,-26.84483 28.3962,-30.21088 4.7708,-3.3098296 5.8816,-7.9535196 5.3976,-22.56465 l -0.202,-6.09803 -12.25,-0.63011 c -20.718,-1.06568 -26.7951,-3.38589 -39.3754,-15.03336 -3.8724,-3.58521 -8.1758,-6.80348 -9.5633,-7.15171 -2.4155,-0.60625 -2.5742,-0.36452 -3.7343,5.68904 -0.6664,3.4772 -3.3006,12.48361 -5.8537,20.01424 -4.5116,13.3075504 -4.6077,13.8411104 -3.421,19.0000004 0.6716,2.91937 1.9144,9.5712196 2.7619,14.7818896 2.5595,15.73593 -0.3148,25.82526 -13.1079,46.01165 -6.3999,10.09848 -9.5691,17.57461 -12.9245,30.48896 -2.8141,10.830889 -2.5358,15.193249 1.0565,16.559029 1.3048,0.49606 5.3056,5.34974 9.2089,11.17178 8.8912,13.26194 10.3815,16.24045 10.0089,20.00348 -0.3036,3.06592 -0.2284,3.11797 9.1939,6.36266 5.225,1.79929 9.95,3.30711 10.5,3.35071 0.6535,0.0518 0.7716,-5.45844 0.3408,-15.90416 z m 67.0423,-5.5628 c -0.5718,-9.87539 -1.2494,-19.41509 -1.5056,-21.19934 -0.4656,-3.24203 -0.4676,-3.24301 -3.0544,-1.54808 -2.5103,1.64483 -2.5699,1.92381 -1.9757,9.24409 0.3369,4.15145 1.9716,12.21869 3.6326,17.92721 1.661,5.70852 3.02,11.29602 3.02,12.41666 0,1.12065 0.2076,1.82991 0.4614,1.57613 0.2538,-0.25378 -0.01,-8.54128 -0.5783,-18.41667 z m 37.804,1.78309 c -0.2503,-0.95609 -0.446,0.0617 -0.4349,2.26166 0.011,2.2 0.2159,2.98225 0.4551,1.73834 0.2391,-1.24391 0.2301,-3.04391 -0.02,-4 z m -189.2423,3.51166 c 0.2102,-0.6875 0.6143,-2.60984 0.898,-4.27187 0.5082,-2.97671 0.4012,-3.06152 -7.1634,-5.67484 -7.0339,-2.42996 -7.8265,-2.52016 -9.4294,-1.07314 -0.9625,0.8689 -1.75,2.75238 -1.75,4.1855 0,2.32241 0.7882,2.89601 7.25,5.2762 8.3508,3.076 9.6693,3.27751 10.1948,1.55815 z M 2959.767,123.6445 c -0.3323,-0.33229 -0.5687,0.25834 -0.5252,1.3125 0.048,1.16495 0.2849,1.4019 0.6041,0.60417 0.2889,-0.72188 0.2534,-1.58438 -0.079,-1.91667 z m 87.3436,-21.77083 c 3.8155,-7.699999 8.7564,-18.604819 10.9799,-24.232929 2.2235,-5.62811 7.4866,-17.10311 11.6959,-25.5 10.3017,-20.55032 12.394,-26.86 13.094,-39.48686 0.7827,-14.1181296 -0.8634,-23.22399 -6.9933,-38.68666 -4.9477,-12.4803 -10.0263,-20.92671 -17.0423,-28.34355 -3.841,-4.06044 -4.837,-4.12077 -3.3583,-0.20342 1.0254,2.71651 0.7824,3.75546 -2.2425,9.58969 -4.4633,8.60854 -11.4499,16.10616 -21.9898,23.59822 -13.1664,9.35912 -24.1406,13.33947 -39.7611,14.4214504 l -9.1698,0.63516 -1.6111,4.21879 c -3.4042,8.91362 -3.5376,10.2624496 -1.4766,14.9217496 1.5194,3.43498 1.722,4.97798 0.9276,7.06736 -0.7826,2.0583 -0.727,2.55315 0.2417,2.15196 6.0473,-2.50463 8.8718,-2.91893 11.5109,-1.68838 2.7273,1.27175 2.7021,1.29341 -3.5246,3.02377 -6.8623,1.90695 -10.4972,4.4719 -9.8229,6.93143 0.2385,0.87022 0.7253,4.56956 1.0818,8.22075 0.6302,6.4556 0.7357,6.65827 3.8304,7.35468 l 3.1823,0.71614 -3.1744,0.90433 -3.1744,0.90432 0.1744,8.241 c 0.096,4.53255 -0.1819,11.7285 -0.6173,15.991 l -0.7917,7.75 5.358,0 c 14.6421,0 26.4968,4.80027 36.6869,14.85543 6.7334,6.644259 14.9757,19.595709 15.0475,23.644569 0.033,1.8385 0.1956,1.79812 2.0185,-0.5 1.0907,-1.375 5.1048,-8.8 8.9203,-16.5 z m -13.938,-31.749999 c 0.014,-6.30055 3.66,-13.02431 13.4192,-24.75 9.4484,-11.35236 12.9416,-17.22937 14.5763,-24.5235 1.4287,-6.37527 -0.2479,-15.0225096 -4.5811,-23.6270996 -2.225,-4.41822 -3.4242,-8.2254604 -3.4242,-10.8712504 l 0,-4.07178 -7.2049,6.20102 c -14.7744,12.7159504 -25.5521,18.0036904 -37.1938,18.2479004 -4.6214,0.0969 -7.0382,-0.25576 -7.3211,-1.06841 -0.2404,-0.69053 0.793,-1.47243 2.3988,-1.81508 19.0302,-4.06077 35.0853,-14.4438504 49.8237,-32.2218004 4.2177,-5.0875 7.8182,-9.25 8.0011,-9.25 0.1829,0 1.0444,-0.27314 1.9144,-0.60699 2.4444,-0.93799 1.9978,3.37411 -0.7822,7.55324 -1.3797,2.07409 -2.8771,6.58527 -3.5963,10.83467 l -1.2324,7.28091 3.4451,7.2544104 c 9.0995,19.1610096 7.1667,33.6728396 -6.6175,49.6837596 -3.0778,3.575 -8.5959,11.7875 -12.2625,18.25 -3.6665,6.4625 -7.2753,11.75 -8.0194,11.75 -0.9266,0 -1.3499,-1.3393 -1.3432,-4.25 z m -112.0463,-31.3361 c 0.6377,-3.89736 2.2569,-9.45454 3.598,-12.3493 1.3412,-2.89476 2.4385,-5.61174 2.4385,-6.03773 0,-0.91176 -10.9329,-13.3727596 -12.1605,-13.8601996 -0.4617,-0.18334 -0.8395,0.56994 -0.8395,1.6739396 0,1.10548 -1.4354,3.05228 -3.1949,4.33333 -1.7572,1.27933 -8.92,8.17606 -15.9174,15.32606 l -12.7224,13 7.4296,0.55053 c 6.4441,0.4775 8.8539,1.27336 18.1673,6 l 10.7378,5.44947 0.6519,-3.5 c 0.3586,-1.925 1.1738,-6.68875 1.8116,-10.5861 z"
       id="path2994"
       inkscape:connector-curvature="0" />
  </g>
</svg>
