<?xml version="1.0" encoding="UTF-8" standalone="no"?>
<!-- Created with Inkscape (http://www.inkscape.org/) -->

<svg
   xmlns:dc="http://purl.org/dc/elements/1.1/"
   xmlns:cc="http://creativecommons.org/ns#"
   xmlns:rdf="http://www.w3.org/1999/02/22-rdf-syntax-ns#"
   xmlns:svg="http://www.w3.org/2000/svg"
   xmlns="http://www.w3.org/2000/svg"
   xmlns:xlink="http://www.w3.org/1999/xlink"
   xmlns:sodipodi="http://sodipodi.sourceforge.net/DTD/sodipodi-0.dtd"
   xmlns:inkscape="http://www.inkscape.org/namespaces/inkscape"
   width="115.16484"
   height="253.91432"
   id="svg2"
   version="1.1"
   inkscape:version="0.48.3.1 r9886"
   sodipodi:docname="Tricep-dips-2.svg">
  <defs
     id="defs4">
    <radialGradient
       gradientUnits="userSpaceOnUse"
       gradientTransform="matrix(1,0,0,0.91819829,-19.285714,-7.9105395)"
       r="209.56604"
       fy="287.50052"
       fx="398.1105"
       cy="287.50052"
       cx="398.1105"
       id="radialGradient5255"
       xlink:href="#linearGradient5249"
       inkscape:collect="always" />
    <linearGradient
       id="linearGradient5249"
       inkscape:collect="always">
      <stop
         id="stop5251"
         offset="0"
         style="stop-color:#e3e3e3;stop-opacity:1;" />
      <stop
         id="stop5253"
         offset="1"
         style="stop-color:#e3e3e3;stop-opacity:0;" />
    </linearGradient>
  </defs>
  <sodipodi:namedview
     id="base"
     pagecolor="#ffffff"
     bordercolor="#666666"
     borderopacity="1.0"
     inkscape:pageopacity="0.0"
     inkscape:pageshadow="2"
     inkscape:zoom="2.8"
     inkscape:cx="-19.530333"
     inkscape:cy="107.24863"
     inkscape:document-units="px"
     inkscape:current-layer="layer1"
     showgrid="false"
     showguides="true"
     inkscape:guide-bbox="true"
     fit-margin-top="0"
     fit-margin-left="0"
     fit-margin-right="0"
     fit-margin-bottom="0"
     inkscape:window-width="1615"
     inkscape:window-height="1026"
     inkscape:window-x="65"
     inkscape:window-y="24"
     inkscape:window-maximized="1">
    <sodipodi:guide
       orientation="-0.70710678,0.70710678"
       position="-3517.75,443.5924"
       id="guide2985" />
  </sodipodi:namedview>
  <metadata
     id="metadata7">
    <rdf:RDF>
      <cc:Work
         rdf:about="">
        <dc:format>image/svg+xml</dc:format>
        <dc:type
           rdf:resource="http://purl.org/dc/dcmitype/StillImage" />
        <dc:title></dc:title>
      </cc:Work>
    </rdf:RDF>
  </metadata>
  <g
     inkscape:label="Ebene 1"
     inkscape:groupmode="layer"
     id="layer1"
     transform="translate(-2089.1785,-216.32596)">
    <path
       style="fill:#000000"
       d="m 2135.3436,467.6731 c -2.475,-1.40527 -5.625,-3.2883 -7,-4.18451 -1.375,-0.8962 -3.9371,-1.50872 -5.6936,-1.36115 -4.1704,0.35038 -11.7033,-3.02513 -13.7617,-6.16664 -1.4833,-2.26382 -7.5447,-24.14715 -7.5447,-27.23852 0,-0.72412 1.1946,-2.73628 2.6546,-4.47145 2.4325,-2.89078 3.0791,-3.1274 7.7252,-2.82673 4.4168,0.28583 5.1189,0.0703 5.4452,-1.67186 0.5612,-2.99565 4.222,-6.5 6.7903,-6.5 1.2467,0 2.5457,-0.45141 2.8866,-1.00314 0.341,-0.55173 0.6041,-5.49869 0.5846,-10.99324 -0.032,-9.01159 0.207,-10.34725 2.439,-13.63641 1.361,-2.00547 2.4745,-4.23805 2.4745,-4.9613 0,-0.72325 1.0141,-2.34796 2.2535,-3.61046 2.0885,-2.12728 2.2461,-3.13798 2.1522,-13.79545 -0.056,-6.325 -0.6316,-14.875 -1.2799,-19 -0.6482,-4.125 -1.2792,-9.25409 -1.4022,-11.39797 -0.2045,-3.56488 -0.558,-4.01386 -4.1363,-5.25398 -2.152,-0.7458 -4.1138,-1.15493 -4.3595,-0.90917 -1.0032,1.00319 -2.5408,15.5566 -2.3791,22.51783 0.1515,6.52125 0.4962,7.79385 2.748,10.1442 1.9679,2.0541 2.5026,3.52469 2.2687,6.23966 -0.1683,1.95368 0.018,3.87629 0.4143,4.27246 1.6244,1.62441 0.703,7.28567 -1.4288,8.77885 -1.8593,1.30232 -2.5128,1.31719 -4.8468,0.11025 -1.4837,-0.76726 -3.5541,-1.17945 -4.6009,-0.91597 -2.3314,0.58684 -14.4048,-9.01424 -14.3999,-11.45121 0,-0.89922 -3.4522,-4.89745 -7.6756,-8.88495 -8.7095,-8.22309 -8.1492,-9.8922 0.7366,-2.19427 5.7586,4.98877 5.8697,5.03361 8.3858,3.38499 2.4596,-1.61158 3.394,-3.44072 1.7576,-3.44072 -1.205,0 -12.8571,-10.9346 -11.6894,-10.96954 0.5601,-0.0168 3.2323,1.79903 5.9382,4.03507 2.7059,2.23604 5.8026,4.53798 6.8816,5.11542 1.8837,1.00815 1.9352,0.79115 1.295,-5.45787 -0.3667,-3.57926 -1.5592,-9.10165 -2.6499,-12.27197 -1.4984,-4.35511 -1.9832,-8.39905 -1.9832,-16.54256 0,-11.78195 0.8104,-15.20151 4.008,-16.91281 3.4459,-1.8442 18.4858,-2.14388 23.4256,-0.46677 3.8848,1.31894 15.548,3.56191 18.0664,3.47438 0.55,-0.0191 2.9718,-0.30561 5.3817,-0.63665 2.8167,-0.38691 4.1604,-0.24389 3.7622,0.40041 -0.6721,1.08757 -5.9288,2.36768 -9.1439,2.22673 -5.9845,-0.26236 -9.3071,-0.82972 -12,-2.04908 -1.8332,-0.8301 -7.8867,-1.50191 -15.5647,-1.72737 -10.3229,-0.30314 -12.7889,-0.0987 -13.8219,1.14603 -0.7682,0.92552 -1.453,5.91595 -1.76,12.82579 -0.4601,10.35298 -0.2846,11.91381 2.072,18.43178 1.416,3.91654 2.5774,8.41654 2.5808,10 0,1.58345 0.6373,4.0889 1.4088,5.56765 1.3715,2.62877 1.294,2.76235 -3.4804,6 -4.6316,3.14089 -6.1419,5.94719 -3.9346,7.31136 0.55,0.33992 1.0081,1.37898 1.018,2.30902 0.014,1.34521 8.6856,8.19098 10.3752,8.19098 0.2291,0 0.1765,-1.78916 -0.1168,-3.97592 -0.4867,-3.62902 -0.2941,-4.06684 2.2076,-5.01801 1.5075,-0.57315 3.4615,-0.92148 4.3422,-0.77408 3.0848,0.5163 2.3117,-3.1334 -1.4342,-6.77117 -2.2176,-2.15363 -3.311,-3.90008 -2.689,-4.29511 0.5765,-0.36614 1.3328,-3.59071 1.6807,-7.16571 2.2172,-22.78531 2.2029,-22.06414 0.4687,-23.63356 -1.1038,-0.99896 -1.8728,-1.14249 -2.3121,-0.43158 -1.3183,2.13298 -2.5403,0.98365 -2.5403,-2.38917 l 0,-3.45431 6.75,-0.29569 c 6.3943,-0.28011 12.25,1.17916 12.25,3.05273 0,2.05153 9.6813,5.63453 15.2472,5.64292 5.5337,0.008 7.3874,0.94417 4.2528,2.14703 -0.825,0.31659 -1.5,1.42746 -1.5,2.46862 0,1.04115 -0.6329,1.89301 -1.4064,1.89301 -0.914,0 -1.2233,-0.70014 -0.8833,-2 0.4246,-1.62369 0.031,-2 -2.0937,-2 -1.4391,0 -2.6166,0.21824 -2.6166,0.48498 0,0.26673 1.4007,2.76143 3.1127,5.54376 3.1246,5.07813 7.2904,14.90144 6.6085,15.58335 -0.2005,0.20055 -1.6526,-2.33013 -3.2268,-5.62373 -1.5742,-3.2936 -3.2083,-5.98836 -3.6314,-5.98836 -0.423,0 -1.8565,-2.1375 -3.1855,-4.75 -1.329,-2.6125 -2.9407,-4.63229 -3.5816,-4.48843 -0.6409,0.14387 -2.1622,0.41682 -3.3806,0.60656 -1.9863,0.30931 -2.1856,0.85093 -1.9279,5.23842 0.158,2.6914 0.2793,7.3139 0.2695,10.27224 -0.019,5.84847 2.1552,10.73636 5.2075,11.70511 1.9437,0.61692 5.0429,-1.27768 4.2332,-2.58782 -0.2642,-0.42752 0.6798,-1.53749 2.0978,-2.4666 1.4179,-0.92911 2.6516,-1.54083 2.7414,-1.35938 0.09,0.18144 0.9945,1.82356 2.0106,3.64913 2.1726,3.90334 1.7365,5.03599 -0.8419,2.1869 -0.9985,-1.10337 -2.4207,-2.00613 -3.1605,-2.00613 -1.6589,0 -1.7561,2.18888 -0.1677,3.77731 0.9031,0.90308 -0.025,1.10536 -3.9861,0.86844 -6.1103,-0.36551 -6.3506,0.0183 -6.0836,9.72065 0.1745,6.34574 0.3007,6.64453 3.8402,9.09742 5.0189,3.47809 7.717,3.33877 8.5473,-0.44135 0.8596,-3.91371 0.036,-6.24269 -3.5757,-10.1088 -1.6381,-1.75349 -2.7708,-3.39563 -2.5172,-3.64919 0.6014,-0.60142 5.5255,2.98737 5.5664,4.05695 0.017,0.45178 0.7064,1.49643 1.5314,2.32143 0.825,0.825 1.5533,2.70535 1.6184,4.17857 0.1192,2.69582 0.049,3.22533 -0.8569,6.42857 -0.4358,1.54143 0.3016,1.75 6.1876,1.75 7.4138,0 10.5509,-1.1554 10.5509,-3.88596 0,-2.68373 2.0604,-8.11404 3.0787,-8.11404 0.4857,0 0.6055,2.025 0.2662,4.5 -0.8867,6.46941 0.3098,5.55028 1.6273,-1.25 0.6127,-3.1625 1.9304,-7.55 2.9284,-9.75 2.8648,-6.31577 3.9017,-9.67395 4.4426,-14.38758 0.4538,-3.95518 0.3513,-4.23546 -1.0402,-2.84397 -1.2145,1.21444 -2.1675,1.32616 -4.4689,0.52387 -2.3688,-0.82577 -3.2971,-0.68329 -4.8797,0.74895 -1.0749,0.97279 -1.9544,2.37396 -1.9544,3.11372 0,0.73975 -0.6006,1.34501 -1.3347,1.34501 -0.7341,0 -2.5376,1.35 -4.0077,3 -1.4702,1.65 -3.3446,3 -4.1653,3 -2.0788,0 -1.8617,-1.28823 0.4617,-2.73918 1.0746,-0.67115 2.4397,-2.12793 3.0334,-3.23729 0.96,-1.7938 0.5778,-2.26078 -3.454,-4.21954 -4.3863,-2.13107 -6.3415,-4.59073 -2.7834,-3.50157 0.9625,0.29462 3.223,0.99372 5.0234,1.55354 l 3.2735,1.01787 -4.5235,-5.29473 c -6.541,-7.65633 -5.5527,-8.0415 1.8381,-0.71639 l 6.3615,6.30494 2.0802,-2.64459 c 1.1441,-1.45452 2.6074,-5.18412 3.2518,-8.288 1.1469,-5.52462 1.1154,-5.69175 -1.4975,-7.93924 -1.468,-1.2627 -3.6564,-2.3057 -4.8633,-2.31778 -1.2068,-0.0121 -4.1067,-0.89008 -6.4442,-1.95111 -3.5925,-1.6307 -4.25,-2.38194 -4.25,-4.85591 0,-3.57337 2.3202,-9.36192 4.4664,-11.14313 2.1323,-1.7697 3.2107,-0.4807 1.4355,1.71598 -0.7805,0.96587 -2.2826,3.46025 -3.3379,5.54306 -1.6541,3.26472 -1.7219,3.96405 -0.4914,5.07137 1.6694,1.50223 8.221,4.23659 12.2128,5.09711 1.6813,0.36244 3.145,1.54643 3.6927,2.98695 0.499,1.31258 1.8331,2.68033 2.9646,3.03946 2.6309,0.835 2.6676,3.54582 0.057,4.22843 -1.1,0.28766 -2,0.86428 -2,1.28138 0,0.4171 -0.2812,2.16462 -0.625,3.88337 -0.5396,2.69793 -0.341,3.125 1.453,3.125 4.1321,0 6.9818,-2.27039 9.7724,-7.78597 1.6467,-3.25452 2.832,-7.23182 2.857,-9.58594 0.03,-2.79725 0.7284,-4.71134 2.2926,-6.28035 1.7748,-1.78013 2.25,-3.39297 2.25,-7.63562 0,-2.95833 -0.3005,-5.67932 -0.6678,-6.04665 -0.3674,-0.36732 -2.3459,2.37089 -4.3968,6.08492 -4.7998,8.69211 -6.9884,10.70411 -10.6451,9.78633 -1.5346,-0.38517 -2.8665,-0.55101 -2.9597,-0.36852 -0.3792,0.74263 -5.6204,-4.85994 -6.9657,-7.44606 -1.5326,-2.94611 -0.997,-9.21345 0.8869,-10.37774 0.6691,-0.41356 0.7987,0.57324 0.373,2.84218 -0.5411,2.88412 -0.1323,4.19323 2.4018,7.69136 3.4509,4.7639 4.9354,5.5994 8.4027,4.72917 2.9295,-0.73525 8.174,-9.41707 10.1007,-16.72057 1.6631,-6.30457 0.3491,-9.95616 -5.4763,-15.21909 -3.4281,-3.09707 -4.7708,-3.66745 -8.6335,-3.66745 -6.2379,0 -9.9943,3.65907 -10.8693,10.58742 -0.7097,5.62055 -2.4187,9.54294 -4.451,10.21578 -1.0776,0.35676 -1.02,-0.0792 0.25,-1.89233 0.9075,-1.29574 1.6501,-3.90372 1.6501,-5.79552 0,-4.43068 4.2547,-11.67856 7.9892,-13.60978 3.4776,-1.79834 9.6849,-1.90647 12.6371,-0.22014 1.1694,0.66802 3.2408,2.56457 4.6031,4.21457 2.8262,3.42319 6.2504,12.91473 5.2455,14.54054 -0.3689,0.59702 0.1608,2.00437 1.1771,3.12746 1.3845,1.52978 1.848,3.61756 1.848,8.32335 0,5.43721 -0.3507,6.6321 -2.6097,8.89107 -1.9643,1.96429 -2.7521,3.99 -3.1857,8.19109 -0.3169,3.06977 -1.3925,6.72793 -2.3903,8.12924 -5.0813,7.13587 -5.3539,7.8 -4.8421,11.79725 1.3414,10.47588 1.7263,11.62499 4.2104,12.56943 3.3664,1.27991 3.3754,1.27105 1.7994,-1.76675 -1.0905,-2.102 -1.1364,-3.0142 -0.2078,-4.1331 0.9857,-1.18769 1.3038,-0.88733 1.8408,1.73827 0.9026,4.41322 3.7184,7.25233 6.8328,6.88948 4.0643,-0.47349 3.8639,-3.98628 -0.3926,-6.88532 -3.8007,-2.58853 -4.7678,-5.04189 -1.6681,-4.23127 1.038,0.27142 2.1528,0.0637 2.4775,-0.46158 0.7444,-1.20461 -4.4333,-8.1337 -6.1146,-8.18272 -1.3764,-0.0401 -1.4969,-4.63626 -0.25,-9.53644 0.6272,-2.46472 0.7845,-1.96963 0.8817,2.77475 0.1027,5.01088 0.4159,5.88857 2.3683,6.63524 4.1105,1.572 6.0553,4.64902 5.3419,8.45172 -0.4574,2.43825 -0.2005,3.88686 0.8812,4.96856 0.8398,0.83978 1.5269,2.44149 1.5269,3.55935 0,2.65332 -3.9759,6.34364 -5.9649,5.53637 -0.8443,-0.34268 -3.3281,-0.87713 -5.5197,-1.18765 -4.7467,-0.67259 -6.6366,-2.33767 -8.1191,-7.15329 l -1.1037,-3.58505 -1.2076,3 c -0.6642,1.65 -1.8844,4.35 -2.7116,6 -0.8272,1.65 -1.7563,5.93534 -2.0647,9.52298 -0.4536,5.27684 -0.2501,6.78078 1.0653,7.87245 2.0389,1.69214 2.0853,5.00376 0.1097,7.82438 -1.2877,1.83848 -1.3557,3.56795 -0.4506,11.47251 1.277,11.15329 1.0429,20.30661 -0.6078,23.77053 -0.665,1.39543 -1.5126,5.91215 -1.8834,10.03715 -0.7515,8.3583 -2.3287,13.82945 -5.571,19.32474 -2.963,5.02188 -5.4529,5.53826 -15.1272,3.1372 -2.3111,-0.57361 -2.8654,-0.21849 -4.2661,2.73334 -1.691,3.56346 -6.1075,6.81306 -9.2319,6.79267 -1.0151,-0.007 -3.8707,-1.16181 -6.3457,-2.56709 z m 9.6664,-0.88237 c 1.1924,-0.34137 2.6302,-1.95061 3.198,-3.57935 0.5674,-1.62753 1.4399,-2.95914 1.9389,-2.95914 1.189,0 4.0253,-13.85465 4.4015,-21.5 l 0.2952,-6 -7.5,-0.10187 c -4.125,-0.056 -9.1875,-0.45241 -11.25,-0.88084 -3.6321,-0.75448 -3.7533,-0.68837 -3.8535,2.10187 -0.3364,9.36649 0.4643,19.17786 1.7713,21.70535 0.8123,1.5708 1.1838,3.60289 0.8256,4.51575 -1.2515,3.18919 -3.5991,-6.01777 -5.0589,-19.84026 -1.7965,-17.01061 -2.8224,-22.78791 -4.3109,-24.27641 -1.5056,-1.50562 -3.6793,-0.19121 -5.9406,3.59232 -1.5326,2.56427 -1.5412,2.92171 -0.096,4 2.6775,1.9982 3.6279,4.77831 5.3617,15.68409 3.3876,21.30874 2.9676,20.18693 9.2971,24.8334 3.1222,2.29204 6.3693,3.97788 7.2156,3.74632 0.8464,-0.23156 2.5138,-0.70012 3.7053,-1.04123 z m 20.8336,-7.3038 c 3.7646,-2.76581 7.3285,-12.99551 9.1301,-26.20668 0.5632,-4.13059 0.4797,-4.36405 -1.0939,-3.05809 -0.937,0.77764 -4.9243,1.66503 -8.8608,1.97199 l -7.1572,0.55809 -0.7446,5 c -0.4095,2.75 -0.916,7.25 -1.1256,10 -0.2096,2.75 -0.6909,6.14191 -1.0696,7.53758 -0.5825,2.14678 -0.2566,2.70792 2.1165,3.64362 3.3415,1.31754 7.4165,1.57369 8.8051,0.55349 z m -41.5007,-1.73379 c 0.9494,-1.14403 0.9777,-2.15064 0.1193,-4.25 -0.6187,-1.51299 -1.2224,-3.99856 -1.3417,-5.52348 -0.1206,-1.54176 -0.706,-2.58488 -1.3186,-2.34978 -0.606,0.23254 -1.6236,-0.41268 -2.2613,-1.43383 -0.6377,-1.02114 -2.9679,-2.34359 -5.1782,-2.93876 -2.3649,-0.63678 -4.0188,-1.68361 -4.0188,-2.54359 0,-1.59843 1.5618,-1.97956 2.4202,-0.59062 0.296,0.47896 1.785,1.12245 3.309,1.42997 1.5239,0.30752 3.5459,0.85903 4.4933,1.22558 1.5111,0.58467 1.6857,0.0519 1.4229,-4.34162 -0.3643,-6.09026 -2.6829,-9.88468 -7.1911,-11.7683 -4.8289,-2.01766 -7.0339,-1.76638 -9.2528,1.05445 -1.63,2.0723 -1.8,3.16122 -1.0533,6.75 0.4897,2.35349 1.4882,7.44318 2.2189,11.3104 1.7371,9.19394 2.9504,11.25555 7.9636,13.53173 5.0597,2.2973 8.0143,2.4311 9.6686,0.43785 z m 28.639,-28.26621 c 0.626,-0.40408 2.1369,-4.44384 3.3575,-8.97724 1.2206,-4.53341 2.568,-8.02704 2.9942,-7.76363 0.4262,0.26341 1.8926,-0.4002 3.2586,-1.47469 3.6733,-2.88946 4.4002,-0.99715 0.7586,1.97497 -3.2106,2.62037 -4.9375,7.42227 -4.9833,13.85659 l -0.024,3.3507 4.25,-0.49045 c 5.4022,-0.62341 11.7675,-2.3108 12.7624,-3.3832 1.3863,-1.49426 1.8145,-10.80542 0.9833,-21.38195 -0.6539,-8.32183 -0.5288,-10.94798 0.6281,-13.1852 1.2953,-2.50491 1.2602,-3.04705 -0.3396,-5.24569 -1.746,-2.39957 -6.2842,-3.49356 -6.2842,-1.5149 0,0.55 -1.8551,1 -4.1224,1 -3.3354,0 -3.9098,0.25624 -3.0087,1.34201 1.8373,2.21378 0.4723,2.41856 -7.6363,1.14565 -7.4369,-1.16745 -7.7888,-1.13306 -9.2028,0.89923 -2.376,3.41513 -6.1041,6.87214 -6.7329,6.24334 -0.32,-0.32005 -0.013,-1.26777 0.683,-2.10606 1.0563,-1.27274 0.9561,-1.52861 -0.6075,-1.55107 -1.473,-0.0212 -1.1258,-0.65537 1.6276,-2.9731 1.925,-1.62041 2.896,-2.9583 2.1577,-2.9731 -0.7382,-0.0148 -2.4786,-0.92077 -3.8675,-2.01327 -1.3889,-1.09251 -2.9224,-1.74095 -3.4077,-1.44099 -1.3754,0.85002 -1.0366,-0.19984 0.4672,-1.44787 1.0269,-0.85229 1.9004,-0.64245 3.653,0.87755 1.2668,1.09872 2.6916,1.99768 3.1661,1.99768 0.4745,0 -0.5909,-1.29883 -2.3676,-2.88629 -3.7447,-3.34591 -5.666,-3.03954 -6.4806,1.03337 -0.3184,1.592 -0.9708,3.13673 -1.4498,3.43275 -0.4789,0.29601 -0.8708,1.86165 -0.8708,3.47919 0,1.94754 -0.5067,2.94098 -1.5,2.94098 -1.6265,0 -2.1482,7.10744 -1.6149,22 0.3631,10.13945 1.7368,13.81956 5.5752,14.9357 3.7483,1.08999 16.6243,1.30177 18.178,0.29899 z m -25.5668,-52.89421 c 0.6645,-1.80022 0.1301,-2.6218 -3.2121,-4.93789 -3.328,-2.30634 -4.1637,-2.53408 -4.919,-1.34047 -1.4709,2.32469 -1.0971,3.87213 1.583,6.55216 2.9174,2.91741 5.4085,2.81325 6.5481,-0.2738 z m 11.8106,-48.24647 c 1.101,-0.69732 0.9849,-1.00145 -0.5709,-1.49525 -1.0742,-0.34094 -3.2712,-1.85264 -4.8822,-3.35933 -2.712,-2.53647 -3.3735,-2.69632 -8.929,-2.15754 -3.3,0.32004 -5.354,0.65754 -4.5645,0.75 0.7896,0.0925 2.5069,1.18061 3.8163,2.41811 3.5301,3.33631 12.3814,5.58505 15.1303,3.84401 z m 27.3383,46.40599 0.2796,-4 -4,0.20793 -4,0.20792 3,-1.41282 c 1.65,-0.77705 3.8105,-1.43312 4.801,-1.45793 1.0875,-0.0272 2.3751,-1.41899 3.25,-3.51298 1.9758,-4.72863 1.8541,-4.99592 -1.1859,-2.6047 -1.4491,1.13992 -3.5442,2.07258 -4.6556,2.07258 -1.1114,0 -3.5363,1.15596 -5.3886,2.5688 -1.8523,1.41284 -4.0915,2.42534 -4.976,2.25 -1.96,-0.38855 6.8568,-6.23646 10.828,-7.18188 4.5229,-1.07674 8.6324,-5.20484 8.0764,-8.11298 -0.7009,-3.66672 0.6158,-3.09114 2.3335,1.02008 1.4689,3.5155 1.1368,6.01872 -0.6519,4.91327 -0.512,-0.31643 -0.9309,0.14416 -0.9309,1.02353 0,2.10322 -3.8031,9.51918 -4.8817,9.51918 -0.4625,0 -0.6336,1.08491 -0.3801,2.41091 0.2535,1.326 -0.047,3.2385 -0.6683,4.25 -0.9393,1.52993 -1.0821,1.16666 -0.8495,-2.16091 z m 4.8156,-4.12803 c 0.02,-0.47958 1.1709,-2.22197 2.558,-3.87197 2.4288,-2.88899 2.5107,-2.91174 2.2141,-0.6146 -0.2823,2.18568 -4.8545,6.48433 -4.7721,4.48657 z m -30.5379,-16.37497 c -0.3112,-0.5036 -0.1335,-1.72145 0.395,-2.70632 0.5285,-0.98488 1.2046,-2.57818 1.5025,-3.54068 0.2979,-0.9625 1.0539,-1.75 1.68,-1.75 0.6272,0 0.8658,0.71028 0.5314,1.58179 -0.3339,0.86998 -0.607,2.62184 -0.607,3.89301 0,2.37084 -2.4879,4.16277 -3.5019,2.5222 z m 1.5337,-9.747 c 0.044,-1.03223 2.5476,-4.25 3.307,-4.25 0.3401,0 0.1057,1.125 -0.5208,2.5 -1.059,2.32432 -2.8585,3.45456 -2.7862,1.75 z m 7.2796,-27.01373 c -1.0495,-3.35283 -0.6715,-6.51291 0.4148,-3.46841 0.2488,0.69732 1.1515,1.96696 2.0059,2.82143 1.3345,1.33448 1.3554,1.75176 0.1482,2.95898 -1.2072,1.20722 -1.5695,0.88118 -2.5689,-2.312 z m -19.3114,-1.23627 c -0.825,-0.53316 -2.6478,-0.97627 -4.0506,-0.98469 -2.9675,-0.0178 -7.9302,-2.12519 -7.9416,-3.3723 0,-0.47134 0.7797,-0.54211 1.7422,-0.15727 0.9625,0.38485 4.238,0.93647 7.2789,1.22583 4.4177,0.42037 5.8117,0.18542 6.9357,-1.16894 1.2106,-1.4586 1.2065,-1.82179 -0.029,-2.60353 -1.9654,-1.24366 -0.2571,-1.18149 2.0928,0.0761 2.2314,1.19423 1.6234,3.64308 -1.1209,4.51407 -1.0492,0.33305 -1.9076,1.25018 -1.9076,2.03812 0,1.66414 -0.8947,1.79316 -3,0.43261 z m -2.7288,-7.32869 c 0.212,-0.64422 1.4127,-1.32165 2.6681,-1.50541 2.7666,-0.40491 1.9521,1.36774 -0.9808,2.13471 -1.321,0.34543 -1.9329,0.1172 -1.6873,-0.6293 z"
       id="path3140"
       inkscape:connector-curvature="0" />
  </g>
</svg>
