<?xml version="1.0" encoding="UTF-8" standalone="no"?>
<!-- Created with Inkscape (http://www.inkscape.org/) -->

<svg
   xmlns:dc="http://purl.org/dc/elements/1.1/"
   xmlns:cc="http://creativecommons.org/ns#"
   xmlns:rdf="http://www.w3.org/1999/02/22-rdf-syntax-ns#"
   xmlns:svg="http://www.w3.org/2000/svg"
   xmlns="http://www.w3.org/2000/svg"
   xmlns:xlink="http://www.w3.org/1999/xlink"
   xmlns:sodipodi="http://sodipodi.sourceforge.net/DTD/sodipodi-0.dtd"
   xmlns:inkscape="http://www.inkscape.org/namespaces/inkscape"
   width="115.16484"
   height="253.91432"
   id="svg2"
   version="1.1"
   inkscape:version="0.48.3.1 r9886"
   sodipodi:docname="Tricep-dips-2-1.svg">
  <defs
     id="defs4">
    <radialGradient
       gradientUnits="userSpaceOnUse"
       gradientTransform="matrix(1,0,0,0.91819829,-19.285714,-7.9105395)"
       r="209.56604"
       fy="287.50052"
       fx="398.1105"
       cy="287.50052"
       cx="398.1105"
       id="radialGradient5255"
       xlink:href="#linearGradient5249"
       inkscape:collect="always" />
    <linearGradient
       id="linearGradient5249"
       inkscape:collect="always">
      <stop
         id="stop5251"
         offset="0"
         style="stop-color:#e3e3e3;stop-opacity:1;" />
      <stop
         id="stop5253"
         offset="1"
         style="stop-color:#e3e3e3;stop-opacity:0;" />
    </linearGradient>
  </defs>
  <sodipodi:namedview
     id="base"
     pagecolor="#ffffff"
     bordercolor="#666666"
     borderopacity="1.0"
     inkscape:pageopacity="0.0"
     inkscape:pageshadow="2"
     inkscape:zoom="2.8"
     inkscape:cx="-19.530333"
     inkscape:cy="107.24863"
     inkscape:document-units="px"
     inkscape:current-layer="layer1"
     showgrid="false"
     showguides="true"
     inkscape:guide-bbox="true"
     fit-margin-top="0"
     fit-margin-left="0"
     fit-margin-right="0"
     fit-margin-bottom="0"
     inkscape:window-width="1615"
     inkscape:window-height="1026"
     inkscape:window-x="65"
     inkscape:window-y="24"
     inkscape:window-maximized="1">
    <sodipodi:guide
       orientation="-0.70710678,0.70710678"
       position="-3517.75,443.5924"
       id="guide2985" />
  </sodipodi:namedview>
  <metadata
     id="metadata7">
    <rdf:RDF>
      <cc:Work
         rdf:about="">
        <dc:format>image/svg+xml</dc:format>
        <dc:type
           rdf:resource="http://purl.org/dc/dcmitype/StillImage" />
        <dc:title></dc:title>
      </cc:Work>
    </rdf:RDF>
  </metadata>
  <g
     inkscape:label="Ebene 1"
     inkscape:groupmode="layer"
     id="layer1"
     transform="translate(-2089.1785,-216.32596)">
    <path
       style="fill:#000000"
       d="m 2140.8437,429.28288 c -0.3596,-0.58185 0.6374,-1 2.3843,-1 3.0631,0 6.1157,-2.94178 6.1157,-5.89377 0,-0.79681 0.6166,-2.15918 1.3702,-3.02749 1.4934,-1.72082 4.3911,-17.30222 4.8455,-26.05511 l 0.2843,-5.47636 -7,-0.11679 c -3.85,-0.0642 -8.9125,-0.45193 -11.25,-0.86154 -4.1619,-0.72929 -4.2521,-0.68589 -4.3535,2.09316 -0.3232,8.86566 0.472,19.27199 1.6972,22.21002 1.5135,3.62928 1.8769,8.12853 0.6563,8.12684 -1.3677,-0.002 -4.1678,-14.34228 -4.8487,-24.83204 -0.4752,-7.321 -1.0687,-10.4858 -2.036,-10.85699 -0.7509,-0.28815 -1.3653,-1.08836 -1.3653,-1.77825 0,-0.80167 -0.9102,-1.08034 -2.5222,-0.77219 -1.7179,0.3284 -2.2302,0.84221 -1.6067,1.61133 0.8203,1.01178 1.8418,6.60846 5.2691,28.86838 0.9148,5.94168 1.5596,7.29184 5.4487,11.40908 2.4261,2.56843 4.4111,4.85361 4.4111,5.07818 0,0.79779 -4.5411,-1.0178 -7.1632,-2.86391 -1.824,-1.28424 -2.8801,-3.15959 -3.3519,-5.95164 -0.6477,-3.83418 -0.8461,-4.03204 -3.3368,-3.32757 -4.293,1.21426 -6.8453,0.78415 -11.4862,-1.93559 -4.812,-2.82003 -4.6712,-2.48382 -8.747,-20.88843 -2.0866,-9.422 -2.0984,-9.83028 -0.3625,-12.47957 1.8472,-2.81932 3.3302,-1.6793 1.6714,1.2849 -0.5403,0.96538 -0.5615,3.34616 -0.052,5.78767 0.4764,2.28123 1.4804,7.40592 2.2311,11.38822 1.1317,6.00364 1.9352,7.77335 4.7037,10.35954 4.1511,3.87767 7.4145,5.1639 11.0666,4.36176 3.1155,-0.68426 3.2826,-1.13159 1.84,-4.92591 -0.5425,-1.42684 -1.0891,-3.94223 -1.2146,-5.58974 -0.1302,-1.70884 -0.7038,-2.81299 -1.3355,-2.57061 -0.6089,0.23367 -1.6289,-0.41062 -2.2666,-1.43177 -0.6377,-1.02114 -2.9679,-2.34359 -5.1783,-2.93876 -2.3648,-0.63678 -4.0187,-1.68361 -4.0187,-2.54359 0,-1.59843 1.5618,-1.97956 2.4202,-0.59062 0.296,0.47896 1.785,1.12245 3.309,1.42997 1.5239,0.30752 3.5459,0.85903 4.4933,1.22558 1.5111,0.58467 1.6857,0.0519 1.4229,-4.34162 -0.3333,-5.57164 -2.6189,-9.84222 -5.9477,-11.11308 -1.2087,-0.46147 -4.7733,-2.96171 -7.9213,-5.55609 -4.2477,-3.5007 -5.8863,-5.58461 -6.3547,-8.08142 -0.3472,-1.85039 -0.9367,-3.26756 -1.3101,-3.14927 -0.3735,0.1183 -3.5137,-2.24744 -6.9784,-5.25719 -3.4647,-3.00976 -5.8062,-5.63671 -5.2033,-5.83768 0.6029,-0.20096 3.7678,1.94915 7.0332,4.77802 5.7825,5.00943 6.0009,5.10161 8.3859,3.53893 5.244,-3.436 5.5765,-8.1254 1.5315,-21.59844 -1.9713,-6.56589 -1.9713,-6.63955 0,-19 1.086,-6.8247 1.9404,-15.78355 1.8987,-19.90855 -0.059,-5.81185 0.4998,-8.96306 2.4819,-14 1.4067,-3.575 2.8599,-9.11224 3.2293,-12.30498 0.5152,-4.45354 1.3758,-6.60701 3.6963,-9.25 1.6636,-1.89476 3.4882,-3.44502 4.0546,-3.44502 0.5665,0 4.0073,-1.50972 7.6464,-3.35494 3.6391,-1.84522 8.2497,-3.88716 10.2457,-4.53764 6.8815,-2.24265 8.5067,-6.37234 6.7335,-17.10966 -1.4962,-9.05966 -0.2162,-13.86352 4.6913,-17.60666 3.1754,-2.42201 4.0731,-2.6146 9.9774,-2.14065 3.5685,0.28645 7.1884,1.102 8.0444,1.81235 3.2478,2.69546 4.8093,7.36942 4.8232,14.4372 0.014,7.33474 -2.0743,19.18133 -3.5418,20.08829 -1.5433,0.95384 -0.8988,2.41171 1.0662,2.41171 1.0578,0 3.2905,1.15049 4.9617,2.55665 1.6711,1.40616 4.6434,2.81711 6.605,3.13545 5.932,0.96262 9.449,8.11604 7.8538,15.97406 -0.7588,3.73772 -0.7945,3.6725 -1.4259,-2.60152 -0.5335,-5.30181 -1.1216,-6.84307 -3.3385,-8.75 -3.0898,-2.65775 -6.5794,-3.05852 -6.5794,-0.75562 0,0.85746 -0.4697,1.26872 -1.0438,0.91391 -0.5741,-0.35481 -1.5866,-0.21505 -2.25,0.31059 -0.6634,0.52563 -3.0062,1.27745 -5.2062,1.6707 -2.2,0.39325 -4.7875,1.42168 -5.75,2.28538 -2.1696,1.94691 -2.2833,0.46676 -0.1933,-2.51709 0.9831,-1.40352 2.5962,-2.22251 4.3776,-2.22251 1.5514,0 3.3894,-0.68516 4.0844,-1.52258 0.771,-0.92889 2.0373,-1.27704 3.2477,-0.89286 3.006,0.95405 1.2291,-1.24669 -3.3306,-4.12508 -4.8798,-3.08047 -5.3055,-3.06872 -4.5041,0.12431 0.4429,1.76467 0.2974,2.36682 -0.4589,1.89938 -0.637,-0.39366 -1.3408,0.20796 -1.6567,1.41621 -0.9676,3.6999 -2.5858,2.35152 -1.8547,-1.54543 0.7368,-3.92727 -0.2936,-5.31065 -3.9762,-5.33864 -2.2483,-0.0171 -11.1755,-8.65838 -10.0783,-9.75555 0.3843,-0.38432 1.785,0.68922 3.1127,2.38564 8.3687,10.69327 18.4885,3.85816 18.4748,-12.4783 -0.01,-9.35949 -1.387,-13.69669 -4.7596,-14.96775 -8.6452,-3.2581 -15.3131,-1.92638 -18.1446,3.62384 -1.9179,3.75947 -1.9915,6.06725 -0.5393,16.91523 0.4536,3.38816 0.271,6.27736 -0.517,8.17984 -1.2395,2.99226 -6.2076,6.08174 -9.78,6.08174 -1.0692,0 -2.8001,0.94607 -3.8466,2.10238 -2.4329,2.68833 -5.9577,4.45863 -10.52,5.28353 -5.2082,0.94168 -6.6852,3.14347 -7.4704,11.13627 -0.377,3.8378 -1.0336,7.42782 -1.4591,7.97782 -2.7885,3.60384 -4.9885,13.61869 -5.0527,23 -0.038,5.5 -0.7503,13.375 -1.5838,17.5 -1.6543,8.18741 -1.4809,10.80484 1.6568,25 l 2.0998,9.5 -3.2512,2.75 c -1.7881,1.5125 -3.6056,2.75 -4.0389,2.75 -1.1449,0 -0.9671,3.77116 0.2122,4.5 0.55,0.33992 1,1.38525 1,2.32295 0,0.9377 1.8,2.81738 4,4.17705 2.2,1.35967 4,2.76776 4,3.12908 0,0.36132 0.6941,0.9233 1.5425,1.24885 1.2549,0.48157 1.4402,-0.0111 0.994,-2.64301 -0.6894,-4.06607 1.5105,-7.12883 5.233,-7.28553 1.9902,-0.0838 2.8171,-0.70255 3.0501,-2.28216 0.1757,-1.19198 -0.1407,-2.16723 -0.7031,-2.16723 -3.5428,0 -6.2127,-16.44064 -3.6616,-22.54642 0.888,-2.12518 2.2965,-6.86259 3.1301,-10.52758 1.2874,-5.66009 1.3198,-7.54931 0.2153,-12.54481 -1.4006,-6.33504 -1.2637,-13.38119 0.2601,-13.38119 0.5168,0 0.9396,0.675 0.9396,1.5 0,2.95287 1.7888,1.41813 3.788,-3.25 1.6922,-3.95153 4.212,-14.38083 4.212,-17.43366 0,-0.44899 -1.0438,-0.81634 -2.3195,-0.81634 -1.6425,0 -2.7371,0.93129 -3.75,3.19064 -2.0441,4.55938 -3.1494,4.41444 -5.5304,-0.72526 -2.4044,-5.19022 -1.3535,-7.08138 1.41,-2.53729 l 1.8409,3.02708 1.7485,-3.66679 c 1.2258,-2.57041 1.9874,-3.28034 2.5474,-2.37434 0.9665,1.5638 4.4264,0.0282 5.9101,-2.62308 1.0533,-1.882 0.9699,8.04431 -0.09,10.70904 -0.3281,0.825 -0.8307,3.18152 -1.1168,5.2367 -0.57,4.09442 1.4473,6.31663 4.3325,4.77251 1.6195,-0.86674 7.0172,2.93533 7.0172,4.94282 0,1.56987 -2.1042,1.26366 -4.1713,-0.60702 -1.7082,-1.54592 -1.8287,-1.53464 -1.8287,0.17126 0,1.00444 0.7447,2.64918 1.655,3.65499 1.3654,1.50876 1.4004,1.82874 0.2,1.82874 -0.8003,0 -1.8825,-0.40298 -2.405,-0.89552 -0.5595,-0.52745 -1.9186,-0.52449 -3.3066,0.007 -1.9936,0.76368 -2.2381,1.3252 -1.5874,3.64552 0.4231,1.50853 0.8676,6.45717 0.9877,10.99696 0.1314,4.96816 0.7323,8.87347 1.5094,9.8098 3.7957,4.5736 18.7208,7.99648 28.0143,6.42471 11.5791,-1.95832 13.3657,-4.46985 11.6875,-16.4297 -0.8872,-6.32202 -0.7938,-8.16848 0.5968,-11.80975 0.9066,-2.37364 1.6483,-6.64922 1.6483,-9.50107 0,-4.36284 -0.2562,-5.08687 -1.6154,-4.56529 -1.2707,0.4876 -1.4752,0.17806 -0.9583,-1.4506 0.62,-1.95318 0.4571,-2.00906 -2.875,-0.98641 -4.0616,1.24654 -8.5513,-0.18374 -8.5513,-2.72421 0,-1.78218 1.1519,-1.96958 2.6847,-0.43677 2.4097,2.40974 5.7905,0.45236 9.9591,-5.76608 2.2791,-3.39978 4.355,-6.77478 4.6131,-7.5 0.2581,-0.72523 0.8289,-0.9831 1.2684,-0.57306 1.283,1.19698 0.6701,7.52669 -0.9714,10.0319 -2.1616,3.29892 -0.8623,20.50324 1.6686,22.09457 2.5128,1.58002 3.9122,-0.29877 4.495,-6.03503 0.2703,-2.66034 1.1113,-6.74141 1.869,-9.06907 0.9784,-3.00567 1.093,-4.98062 0.3956,-6.81509 -1.4012,-3.68526 -1.1521,-4.37139 0.5274,-1.45281 1.0857,1.8868 1.2973,4.58487 0.8626,11 -0.5025,7.41619 -0.2501,9.46126 1.9798,16.03893 2.1754,6.41652 2.4397,8.42644 1.7755,13.5 -0.4292,3.27859 -0.5207,9.4618 -0.2033,13.74047 0.5442,7.3373 0.7665,7.92772 3.9116,10.38915 2.9148,2.28114 3.2576,3.02055 2.7226,5.8723 -0.4226,2.2529 -0.1395,3.73506 0.9148,4.78942 1.9942,1.99415 1.9427,5.11106 -0.1184,7.17216 -1.3016,1.30159 -2.7116,1.50553 -6.75,0.97626 -4.7299,-0.6199 -9.6047,-2.7144 -9.6047,-4.12674 0,-0.33107 1.4049,-0.32098 3.1219,0.0224 2.647,0.52939 2.9393,0.40424 1.921,-0.82264 -0.8615,-1.03808 -0.9045,-1.95641 -0.1523,-3.24939 0.8919,-1.53296 1.0531,-1.56095 1.079,-0.18722 0.059,3.11897 4.0768,7.01683 6.8964,6.69009 4.1457,-0.4804 3.9888,-3.96474 -0.3103,-6.89322 -3.5423,-2.41299 -4.2352,-4.65617 -1.2774,-4.13549 3.0967,0.54511 2.8094,-1.8888 -0.6286,-5.32684 l -3.4997,-3.49967 -0.5428,-15.725 c -0.5485,-15.89194 -1.0481,-19.6449 -2.9351,-22.04858 -0.8204,-1.04493 -1.323,-0.78177 -2.3875,1.25 -1.6231,3.09772 -2.4144,3.19259 -4.7846,0.57357 -0.9955,-1.1 -2.1902,-2 -2.655,-2 -0.4647,0 -0.845,3.13312 -0.845,6.96249 0,6.58298 2.6124,16.44635 5.2342,19.76187 1.1645,1.47267 -0.02,13.27568 -1.3324,13.27568 -0.496,0 -0.9018,-2.95458 -0.9018,-6.56574 0,-6.47674 -1.1512,-10.43426 -3.0352,-10.43426 -1.5434,0 -1.1128,5.63232 0.5352,7 1.909,1.58429 1.9236,5.05774 0.032,7.55887 -2.0836,2.75479 -1.9616,5.67659 0.2182,5.2262 1.053,-0.21755 2.6462,0.8264 4,2.62096 3.178,4.21263 2.7967,5.11409 -1.1725,2.7722 l -3.4225,-2.01933 0.4353,12.05269 c 0.2943,8.14896 0.066,12.49744 -0.7044,13.42585 -0.6268,0.75524 -1.7281,5.75828 -2.4474,11.11786 -3.0271,22.55558 -8.3293,35.2447 -14.7271,35.2447 -1.2587,0 -4.0686,-0.90756 -6.2444,-2.0168 -2.6736,-1.3631 -4.0792,-1.64671 -4.3364,-0.875 -1.2943,3.88282 -8.9125,6.6718 -10.6306,3.8918 z m 23.9519,-4.59474 c 2.2546,-2.25461 4.7541,-7.30171 5.6482,-11.40526 0.4195,-1.925 1.845,-8 3.1679,-13.5 3.2405,-13.47278 3.2331,-13.48981 -5.6172,-12.85026 -3.933,0.2842 -7.6721,0.67434 -8.3092,0.86698 -0.6716,0.20304 -1.4328,3.63553 -1.8111,8.16676 -0.8344,9.99293 -3.2252,22.24377 -4.6842,24.00169 -1.309,1.57733 -1.411,1.44172 3.1537,4.19571 4.1907,2.52834 6.3161,2.66021 8.4519,0.52438 z m -10.7719,-40.18632 c 0.649,-0.41273 1.9429,-3.78773 2.8754,-7.49999 1.4214,-5.65853 2.3097,-7.23606 5.4955,-9.75929 2.1311,-1.68786 4.0664,-2.57883 4.4065,-2.02863 0.3335,0.53961 -0.5513,1.7396 -1.9661,2.66665 -3.5469,2.32397 -4.5519,4.57274 -5.1771,11.58388 l -0.5384,6.03766 4.3621,-0.49936 c 5.7329,-0.65629 11.8602,-2.31792 13.0929,-3.55061 1.0556,-1.05566 1.2286,-24.49067 0.2107,-28.54642 -0.3494,-1.39219 0.077,-3.72494 1.0113,-5.53165 1.5053,-2.91083 1.4938,-3.2917 -0.1686,-5.57628 -1.9322,-2.65543 -5.7547,-3.33725 -6.5846,-1.1745 -0.3376,0.87991 -1.6048,1.18036 -3.6883,0.87456 -1.7457,-0.25621 -4.2295,0.0991 -5.5196,0.78949 -1.4227,0.76141 -4.4809,1.07825 -7.7725,0.80528 -5.2423,-0.43472 -5.5057,-0.33521 -7.7386,2.92349 -2.3028,3.36077 -5.9806,6.11346 -5.9806,4.47628 0,-0.47348 1.1437,-1.93534 2.5416,-3.24857 3.3485,-3.14578 2.8255,-6.02812 -1.4841,-8.17914 -1.8933,-0.94501 -3.8282,-2.40751 -4.2996,-3.25 -0.4715,-0.84248 -1.7837,-1.53179 -2.916,-1.53179 -1.6805,0 -1.9467,-0.44617 -1.4491,-2.42889 0.3353,-1.33589 -0.074,-5.68008 -0.9102,-9.65375 -0.8359,-3.97367 -1.2967,-7.94317 -1.024,-8.82111 0.2727,-0.87794 0.072,-2.27125 -0.4453,-3.09625 -0.8254,-1.31577 -1.1492,-1.2918 -2.6365,0.19509 -1.2827,1.28232 -1.6515,3.23037 -1.5148,8 0.099,3.4677 -0.5992,10.12991 -1.5523,14.80491 -0.9532,4.675 -1.7354,12.21719 -1.7382,16.76041 0,7.65699 0.1932,8.45888 2.7116,10.97728 l 2.7169,2.71686 0.082,-2.97728 c 0.045,-1.6375 0.012,-5.60486 -0.074,-8.81635 -0.1129,-4.21827 0.3072,-6.35114 1.5132,-7.6838 0.9182,-1.0146 2.2819,-3.56202 3.0305,-5.66092 1.3398,-3.75661 1.3616,-3.76936 1.4012,-0.8162 0.022,1.65 -0.8156,4.40338 -1.8615,6.11862 -1.457,2.38934 -1.9712,5.42931 -2.1987,13 -0.1634,5.43476 0.086,11.19287 0.555,12.7958 0.6977,2.38627 0.5815,2.81057 -0.6414,2.3413 -1.1346,-0.43538 -1.3829,0.006 -1.0331,1.83558 0.2533,1.32478 0.8376,2.4087 1.2986,2.4087 0.4609,0 1.1336,1.57512 1.4947,3.50026 0.5298,2.82401 1.2631,3.67598 3.7953,4.40981 3.8609,1.11884 16.7046,1.3354 18.3187,0.30887 z m -26.7562,-7.46894 c 0.6893,-1.80456 0.3365,-2.69274 -1.7822,-4.48634 -5.2709,-4.46223 -9.598,-0.62911 -4.7559,4.21297 3.123,3.12294 5.4132,3.2187 6.5381,0.27337 z m 10.5762,-72.5 c 0,-0.6875 -0.45,-1.29437 -1,-1.34861 -0.55,-0.0542 -1.7425,-0.496 -2.65,-0.98169 -1.1635,-0.62264 -1.827,-0.42198 -2.25,0.6804 -1.117,2.91087 -0.6085,3.52744 2.65,3.21326 1.7875,-0.17235 3.25,-0.87586 3.25,-1.56336 z m -39.5,46.17514 c -4.7225,-4.60593 -4.7402,-5.80049 -0.036,-2.45101 2.8178,2.00645 6.7205,7.10263 5.3094,6.93289 -0.4252,-0.0511 -2.7981,-2.06799 -5.2731,-4.48188 z m 13,-13.45726 c 0,-3.31766 0.6197,-7.51532 1.3772,-9.32813 1.1553,-2.76507 1.161,-3.68615 0.035,-5.71788 -1.9475,-3.51531 -1.7184,-4.91687 1.6056,-9.82235 3.6432,-5.37656 4.0338,-11.49239 0.9818,-15.37239 -1.1,-1.39842 -2,-2.80602 -2,-3.128 0,-1.40424 3.5442,-8.59913 4.2359,-8.59913 1.2905,0 0.849,1.68468 -0.8002,3.05335 -1.9631,1.62926 -1.0766,5.80946 1.6349,7.70864 3.2183,2.2542 2.031,10.86199 -2.3985,17.38928 -2.2715,3.34722 -2.2777,3.43649 -0.5119,7.3685 0.983,2.18913 1.7992,5.41617 1.8136,7.17121 0.014,1.75504 0.4762,3.4691 1.0262,3.80902 0.55,0.33992 1,1.68992 1,3 0,1.31008 -0.45,2.66008 -1,3 -0.5929,0.36643 -1,-0.78729 -1,-2.83399 0,-2.03901 -0.574,-3.67229 -1.4022,-3.99012 -2.1788,-0.83607 -2.5978,0.21088 -2.5978,6.49078 0,3.22222 -0.4476,5.83333 -1,5.83333 -0.5561,0 -1,-2.67737 -1,-6.03212 z m 51.2,-2.16788 c -1.5497,-1.54969 -1.4578,-4.53529 0.2555,-8.3 1.3168,-2.89355 1.3595,-2.77831 1.2048,3.24801 -0.088,3.4364 -0.1828,6.2489 -0.2103,6.25 -0.027,10e-4 -0.59,-0.53801 -1.25,-1.19801 z m -13.5068,-2.61014 c -1.0763,-1.97186 -1.6827,-4.80194 -1.5,-7 l 0.3068,-3.68986 1.8068,3.31014 c 1.0763,1.97186 1.6827,4.80194 1.5,7 l -0.3068,3.68986 -1.8068,-3.31014 z m 22.7266,-4.93986 c 0.033,-3.4375 0.4027,-6.25 0.8205,-6.25 0.9314,0 0.8258,6.57944 -0.1605,10 -0.4743,1.6449 -0.7,0.36226 -0.66,-3.75 z m -11.1698,-5.90077 c -1.9569,-0.80764 -1.4647,-2.34923 0.75,-2.34923 1.1,0 2,-0.45 2,-1 0,-0.55 0.6605,-1 1.4678,-1 1.1016,0 1.2605,0.56135 0.6371,2.25 -0.8424,2.28187 -2.5858,3.03572 -4.8549,2.09923 z m -12.9,-3.34923 c -0.7287,-3.6434 -2.0899,-3.88468 -2.9343,-0.52013 -0.5171,2.06023 -0.9395,2.31018 -2.4961,1.47708 -2.1779,-1.16555 -4.373,-4.83685 -3.4462,-5.76364 0.3494,-0.34946 0.9484,-0.13426 1.331,0.47822 1.0699,1.71283 7.6612,-1.30448 9.2225,-4.22182 0.7211,-1.34734 1.9467,-2.44971 2.7236,-2.44971 1.0769,0 0.9041,0.82274 -0.7266,3.46135 -1.7895,2.89538 -1.9795,4.03997 -1.1622,7 0.7922,2.86922 0.7038,3.53865 -0.4673,3.53865 -0.8049,0 -1.7101,-1.32826 -2.0444,-3 z m 5.65,2.05902 c 0,-0.58246 0.45,-1.05902 1,-1.05902 0.55,0 1,0.19844 1,0.44098 0,0.24254 -0.45,0.7191 -1,1.05902 -0.55,0.33992 -1,0.14148 -1,-0.44098 z m 20.0789,-6.47569 c -0.043,-1.05416 0.193,-1.64479 0.5253,-1.3125 0.3323,0.3323 0.3678,1.1948 0.079,1.91667 -0.3192,0.79773 -0.5562,0.56078 -0.6041,-0.60417 z m -10.5789,-3.58333 c -0.3491,-1.1 -1.1151,-2 -1.7022,-2 -0.5872,0 0.098,-0.91658 1.5219,-2.03685 1.9213,-1.51127 3.0527,-1.78814 4.3849,-1.07299 0.9875,0.53011 2.5829,1.20757 3.5454,1.50546 3.0522,0.94463 1.9426,2.59289 -1.3079,1.9428 -2.5526,-0.51053 -3.1502,-0.25854 -3.6166,1.525 -0.7021,2.68477 -1.9969,2.74736 -2.8255,0.13658 z m -8.5,-2.12547 c 0,-1.11113 2.5118,-2.20852 3.9343,-1.71886 0.5502,0.18938 -0.11,0.86449 -1.467,1.50024 -1.3793,0.64622 -2.4673,0.74262 -2.4673,0.21862 z m -2.632,-5.7287 c 0.9302,-1.02784 3.4676,-2.66982 5.6387,-3.64883 3.2173,-1.4508 4.229,-1.54625 5.4703,-0.51607 2.1985,1.82455 1.8737,3.27715 -0.4541,2.03134 -1.5538,-0.83157 -2.3767,-0.65847 -3.8437,0.80856 -1.0267,1.02667 -3.3597,2.16528 -5.1846,2.53024 -3.1903,0.63807 -3.2528,0.59175 -1.6266,-1.20524 z m 18.632,-0.64583 c -0.6847,-0.825 -2.0898,-1.5 -3.1224,-1.5 -1.0327,0 -1.8776,-0.45 -1.8776,-1 0,-0.55 1.35,-1 3,-1 1.65,0 3,0.51289 3,1.13976 0,0.62686 0.7875,1.73755 1.75,2.46819 1.5534,1.17917 1.5671,1.33202 0.1224,1.36025 -0.8951,0.0175 -2.1877,-0.6432 -2.8724,-1.4682 z m -28.75,-5.8436 c -2.8875,-2.16559 -5.25,-4.5492 -5.25,-5.29692 0,-1.59147 1.6027,-1.81139 2.5094,-0.34433 0.8435,1.36483 7.2443,3.98485 9.7352,3.98485 1.6646,0 1.7914,-0.25169 0.7554,-1.5 -1.6807,-2.02509 0.1508,-1.99048 4.1517,0.0784 2.9008,1.50008 3.1714,1.4666 5.4503,-0.67431 3.2011,-3.00727 3.0408,-3.73759 -1.2101,-5.51375 -4.7322,-1.97725 -3.7328,-2.82854 1.6265,-1.38543 4.1598,1.12011 4.2119,1.18919 3.6314,4.81573 -0.8249,5.15309 -3.7,7.17931 -10.1873,7.17931 -3.5224,0 -5.4249,0.43756 -5.6392,1.29692 -0.212,0.85049 -2.1305,-0.0584 -5.5733,-2.64052 z m 43.4167,-11.32307 c -0.3667,-0.36666 -0.6667,-1.13166 -0.6667,-1.7 0,-0.6266 0.4658,-0.56756 1.1833,0.15 0.6509,0.65084 0.9509,1.41584 0.6667,1.7 -0.2842,0.28417 -0.8167,0.21667 -1.1833,-0.15 z m -24.5441,-1.2364 c -0.7576,-0.47984 -3.2326,-0.6699 -5.5,-0.42234 -3.6123,0.39439 -3.8751,0.29495 -2.1226,-0.80338 1.1,-0.68942 4.0902,-1.25401 6.6448,-1.25465 3.414,-8.6e-4 4.5119,-0.34771 4.143,-1.30887 -0.5922,-1.5433 1.5775,-1.70231 3.7122,-0.27206 1.2802,0.85771 1.154,1.29514 -0.8608,2.98468 -2.5829,2.16597 -3.9192,2.40509 -6.0166,1.07662 z m -38.1226,-6.65595 c 0,-2.11803 0.4049,-3.30878 1,-2.94098 0.55,0.33992 1,1.94148 1,3.55902 0,1.61754 -0.45,2.94098 -1,2.94098 -0.55,0 -1,-1.60156 -1,-3.55902 z m 47.731,2.90308 c 0.677,-0.27392 2.027,-0.29059 3,-0.037 0.9729,0.25354 0.419,0.47766 -1.231,0.49804 -1.65,0.0204 -2.4461,-0.18706 -1.769,-0.46099 z m -41.5575,-5.09406 c 0.5568,-2.0625 1.4711,-4.2 2.0318,-4.75 0.6886,-0.67547 0.8362,-0.35094 0.4546,1 -0.3107,1.1 -0.8601,3.2375 -1.2208,4.75 -0.3608,1.5125 -1.0209,2.75 -1.4669,2.75 -0.446,0 -0.3554,-1.6875 0.2013,-3.75 z m 12.8265,3.03911 c 0,-0.57432 0.7875,-1.66182 1.75,-2.41666 1.6188,-1.26952 1.64,-1.22246 0.283,0.62755 -0.8069,1.1 -1.5944,2.1875 -1.75,2.41667 -0.1557,0.22916 -0.283,-0.0532 -0.283,-0.62756 z m 44.1498,-2.45732 c -0.082,-1.46752 -0.4088,-3.49252 -0.7253,-4.5 -0.544,-1.73147 -0.5131,-1.73456 0.564,-0.0563 0.6267,0.97652 0.9531,3.00152 0.7253,4.5 l -0.4141,2.7245 -0.1499,-2.66821 z m -47.1498,-2.84536 c 0,-0.55746 0.5625,-1.93243 1.25,-3.05548 1.0564,-1.72572 0.9758,-2.19768 -0.521,-3.04789 -0.9741,-0.55329 -1.4949,-1.45277 -1.1574,-1.99886 0.3784,-0.61229 1.5472,-0.38115 3.0492,0.60302 1.3397,0.87775 2.7654,1.3921 3.1685,1.14302 0.403,-0.24909 1.5422,0.13901 2.5316,0.86244 1.8457,1.34966 0.6267,3.211 -1.3165,2.01005 -0.5476,-0.33842 -2.0617,0.53502 -3.3647,1.94098 -2.5186,2.71762 -3.6397,3.19282 -3.6397,1.54272 z m 18.2292,-1.97507 c -1.249,-1.58289 -2.9365,-4.76457 -3.75,-7.0704 -1.7522,-4.96613 -1.7496,-4.94096 -0.5049,-4.94096 1.2932,0 4.0257,5.37249 4.0257,7.91516 0,1.10796 0.9,2.49614 2,3.08484 1.1,0.5887 2,1.72954 2,2.53518 0,2.18913 -1.2349,1.69008 -3.7708,-1.52382 z m -26.2292,-6.86919 c 0,-1.55934 3.5934,-3.23542 5.4276,-2.5316 2.1915,0.84097 1.9674,2.38943 -0.3458,2.38943 -1.055,0 -2.63,0.27315 -3.5,0.60699 -0.87,0.33384 -1.5818,0.12468 -1.5818,-0.46482 z m 13.7505,-1.61731 c 0.6813,-3.56375 2.48,-4.39409 2.0762,-0.95839 -0.1797,1.52861 -0.8302,2.94433 -1.4456,3.14605 -0.7072,0.2318 -0.9392,-0.5732 -0.6306,-2.18766 z"
       id="path3138"
       inkscape:connector-curvature="0" />
  </g>
</svg>
