<?xml version="1.0" encoding="UTF-8" standalone="no"?>
<!-- Created with Inkscape (http://www.inkscape.org/) -->

<svg
   xmlns:dc="http://purl.org/dc/elements/1.1/"
   xmlns:cc="http://creativecommons.org/ns#"
   xmlns:rdf="http://www.w3.org/1999/02/22-rdf-syntax-ns#"
   xmlns:svg="http://www.w3.org/2000/svg"
   xmlns="http://www.w3.org/2000/svg"
   xmlns:xlink="http://www.w3.org/1999/xlink"
   xmlns:sodipodi="http://sodipodi.sourceforge.net/DTD/sodipodi-0.dtd"
   xmlns:inkscape="http://www.inkscape.org/namespaces/inkscape"
   width="277.12103"
   height="310.95618"
   id="svg2"
   version="1.1"
   inkscape:version="0.48.3.1 r9886"
   sodipodi:docname="Triceps-kickback-1.svg"
   inkscape:export-filename="/home/christian/Arbeitsfläche/Dropbox/Website/opentraining/cc_exercises/Bench-press-1.png"
   inkscape:export-xdpi="199.63289"
   inkscape:export-ydpi="199.63289">
  <defs
     id="defs4">
    <radialGradient
       gradientUnits="userSpaceOnUse"
       gradientTransform="matrix(1,0,0,0.91819829,-19.285714,-7.9105395)"
       r="209.56604"
       fy="287.50052"
       fx="398.1105"
       cy="287.50052"
       cx="398.1105"
       id="radialGradient5255"
       xlink:href="#linearGradient5249"
       inkscape:collect="always" />
    <linearGradient
       id="linearGradient5249"
       inkscape:collect="always">
      <stop
         id="stop5251"
         offset="0"
         style="stop-color:#e3e3e3;stop-opacity:1;" />
      <stop
         id="stop5253"
         offset="1"
         style="stop-color:#e3e3e3;stop-opacity:0;" />
    </linearGradient>
  </defs>
  <sodipodi:namedview
     id="base"
     pagecolor="#ffffff"
     bordercolor="#666666"
     borderopacity="1.0"
     inkscape:pageopacity="0.0"
     inkscape:pageshadow="2"
     inkscape:zoom="1.979899"
     inkscape:cx="224.81316"
     inkscape:cy="203.33"
     inkscape:document-units="px"
     inkscape:current-layer="layer1"
     showgrid="false"
     showguides="true"
     inkscape:guide-bbox="true"
     fit-margin-top="0"
     fit-margin-left="0"
     fit-margin-right="0"
     fit-margin-bottom="0"
     inkscape:window-width="1615"
     inkscape:window-height="1026"
     inkscape:window-x="65"
     inkscape:window-y="24"
     inkscape:window-maximized="1">
    <sodipodi:guide
       orientation="-0.70710678,0.70710678"
       position="-1703.1339,587.24364"
       id="guide2985" />
  </sodipodi:namedview>
  <metadata
     id="metadata7">
    <rdf:RDF>
      <cc:Work
         rdf:about="">
        <dc:format>image/svg+xml</dc:format>
        <dc:type
           rdf:resource="http://purl.org/dc/dcmitype/StillImage" />
        <dc:title />
      </cc:Work>
    </rdf:RDF>
  </metadata>
  <g
     inkscape:label="Ebene 1"
     inkscape:groupmode="layer"
     id="layer1"
     transform="translate(-274.56253,-302.93536)">
    <path
       style="fill:#000000"
       d="m 339.71422,611.54057 c -2.20647,-1.26132 -8.052,-2.31892 -12.99005,-2.35017 -13.63548,-0.0863 -15.05504,-2.38776 -13.63676,-22.10807 1.47996,-20.57797 1.26049,-26.69194 -1.52673,-42.52946 -3.66578,-20.82974 -3.16512,-26.14295 3.82682,-40.61198 7.01659,-14.52002 10.26709,-30.70803 5.82367,-29.00292 -1.44129,0.55308 -3.59652,1.00559 -4.78941,1.00559 -4.0884,0 -16.68159,14.78705 -19.2956,22.65709 -5.24571,15.79339 -14.0288,20.32997 -20.21209,10.43981 -3.52482,-5.63793 -3.05939,-16.72269 1.21028,-28.82422 1.27521,-3.61434 1.87361,-8.59738 1.32978,-11.07342 -1.50594,-6.85651 0.79099,-17.05571 4.65169,-20.65506 2.89605,-2.70001 4.72984,-3.04674 11.32311,-2.14099 4.32707,0.59445 10.26133,2.08104 13.18723,3.30355 2.92589,1.22252 7.43033,2.22276 10.00988,2.22276 4.16229,0 4.76359,-0.62984 5.34348,-5.59707 0.41828,-3.58282 -0.21433,-6.46485 -1.75787,-8.00837 -1.83063,-1.83064 -2.30496,-5.53059 -1.96971,-15.36481 0.24286,-7.12443 -0.22703,-13.81079 -1.0442,-14.85858 -2.81006,-3.60312 -3.33388,-9.46691 -1.72548,-19.31562 2.35275,-14.4066 4.16925,-18.04937 12.41587,-24.89846 6.08321,-5.05227 9.0479,-6.3245 16.4655,-7.06577 4.97556,-0.49723 11.29405,-2.06634 14.0411,-3.4869 4.5385,-2.34695 4.99466,-3.28711 4.99466,-10.29397 0,-6.8329 0.50259,-7.95046 4.41292,-9.81256 2.4271,-1.15578 7.76859,-3.8098 11.86996,-5.8978 4.10135,-2.08799 11.32249,-4.49953 16.04698,-5.35899 4.72447,-0.85944 14.55703,-3.55642 21.85013,-5.99331 l 13.26019,-4.43067 6.79855,3.60092 c 3.7392,1.98051 7.92422,3.59889 9.30006,3.59645 1.37583,-0.003 3.90323,1.05574 5.61644,2.35155 5.32113,4.0247 8.07823,2.94253 10.15391,-3.98549 1.37903,-4.60279 3.73278,-7.63623 8.23926,-10.61846 5.48272,-3.62831 7.30894,-4.02493 13.94813,-3.02932 10.44446,1.56625 15.51183,4.49877 19.52382,11.29859 6.41899,10.87937 3.79802,22.21441 -9.1454,39.55162 -6.43293,8.61664 -10.91612,9.80958 -19.73229,5.25056 -2.66252,-1.37685 -6.77883,-2.27949 -9.14734,-2.00587 -4.14661,0.47901 -4.34298,0.94773 -5.29369,12.63541 -0.54303,6.67586 -1.83214,13.71648 -2.86467,15.64581 -1.32648,2.47852 -1.38993,4.41867 -0.2162,6.61177 0.91363,1.70715 1.66115,6.26059 1.66115,10.11878 0,4.88446 1.16946,8.59998 3.8507,12.23419 2.11788,2.87063 4.34112,7.83361 4.94055,11.02886 0.59943,3.19522 2.39172,8.74954 3.98285,12.34293 1.59112,3.59338 3.79442,8.89542 4.89621,11.78229 1.88095,4.92836 2.35793,5.18491 7.81228,4.20169 3.19495,-0.57592 7.02526,-1.67421 8.51175,-2.44062 4.1701,-2.15003 11.45647,-1.65357 15.30623,1.04291 1.91314,1.34001 4.05963,2.33767 4.76998,2.21701 7.12513,-1.21019 18.39124,0.64926 23.08065,3.80945 10.02948,6.75887 15.66259,19.71567 11.45116,26.33895 -2.10627,3.31248 -9.83427,5.31566 -20.50715,5.31566 l -10.32607,0 0,23.97577 c 0,14.25288 -0.65076,24.37797 -1.6047,24.96753 -1.01191,0.62538 -1.67382,-3.63738 -1.79182,-11.53935 -0.10281,-6.89212 -0.28346,-17.76534 -0.40117,-24.16272 l -0.21405,-11.6316 -4.8141,-0.005 -4.8141,-0.005 0.50006,15.64736 c 0.27503,8.60606 -0.19402,18.53584 -1.04233,22.06618 -1.36354,5.67457 -1.56107,4.72371 -1.70358,-8.2007 -0.0887,-8.04072 -0.60939,-17.88944 -1.15718,-21.88603 l -0.99599,-7.26656 -33.90621,0.65636 c -18.6484,0.36259 -41.12734,1.34473 -49.95318,2.18411 -8.82584,0.8394 -24.89289,1.9877 -35.70454,2.55179 l -19.65755,1.02563 0,21.3914 c 0,11.76526 -0.67013,21.80556 -1.48917,22.31174 -2.42532,1.49894 -3.01772,-3.64591 -2.76329,-23.99907 0.19255,-15.40395 -0.23993,-19.63111 -2.16178,-21.12957 -2.94875,-2.29907 -6.42336,0.0817 -6.42336,4.40122 0,1.61559 -0.84694,4.79626 -1.8821,7.06818 -1.43968,3.15977 -1.43968,4.57322 0,6.01291 1.96723,1.96723 2.56563,20.18958 0.87068,26.51422 -1.59042,5.93462 -3.11531,4.09476 -2.65998,-3.2094 l 0.42517,-6.81996 -3.14947,6.41879 c -4.41848,9.00511 -5.38005,15.37163 -4.06398,26.90705 l 1.14104,10.00101 9.87459,6.4188 c 5.43103,3.53034 12.90329,7.19957 16.60503,8.15386 9.29544,2.39632 12.17131,5.08267 10.89937,10.1811 -2.3088,9.25471 -11.58858,14.59581 -25.20058,14.50448 -4.66192,-0.0313 -10.28149,-1.08884 -12.48795,-2.35018 z m 29.28574,-6.64816 c 4.60988,-2.36097 6.37706,-10.00064 2.40705,-10.40597 -1.10323,-0.11265 -3.46,-0.36691 -5.23727,-0.56505 -4.34515,-0.48445 -12.54162,-4.82556 -15.23215,-8.06747 -1.20056,-1.44656 -4.80428,-3.9675 -8.00828,-5.60206 -5.35331,-2.73105 -5.97819,-3.80093 -7.71009,-13.2003 -1.29893,-7.04951 -1.39116,-11.94913 -0.29676,-15.76507 1.05589,-3.68166 1.04933,-5.71622 -0.0196,-6.07253 -0.88411,-0.29471 -1.5582,-2.82252 -1.49798,-5.61736 0.17047,-7.91285 5.35096,-25.98092 7.34188,-25.60637 0.98307,0.18496 2.25923,-2.61444 2.83591,-6.22085 0.57671,-3.60641 2.83066,-9.59811 5.00881,-13.31485 2.17816,-3.71674 3.96029,-8.77536 3.96029,-11.2414 0,-2.46603 1.35624,-6.73529 3.01388,-9.48722 3.49102,-5.79564 10.56041,-28.06982 9.3067,-29.32352 -0.46608,-0.46609 -3.25763,0.0241 -6.20344,1.08933 -5.22456,1.88923 -21.46096,0.50102 -28.98409,-2.47815 -2.39821,-0.94967 -2.80823,-0.15309 -2.80823,5.45539 0,3.6121 0.86366,9.79662 1.91927,13.74338 1.61422,6.03533 1.48667,8.54825 -0.80235,15.80988 -1.4969,4.74867 -2.72162,9.89061 -2.72162,11.42651 0,1.53592 -2.5977,8.19341 -5.77268,14.79446 -5.57712,11.59531 -5.74565,12.47439 -4.97495,25.95097 0.43875,7.67199 1.62072,19.72599 2.62662,26.78666 1.45994,10.24777 1.38605,14.94651 -0.3663,23.29133 -2.17718,10.36783 -1.41851,17.10935 2.48048,22.0414 0.9089,1.14974 5.19025,2.00587 10.03084,2.00587 4.64482,0 10.8749,1.07765 13.84462,2.39475 6.16474,2.73411 18.68633,1.852 25.85941,-1.82176 z m -47.62516,-9.51345 c -2.74516,-2.74516 -3.5004,-13.52531 -0.94754,-13.52531 0.86577,0 1.99256,1.98581 2.50398,4.41292 0.51142,2.42711 1.60835,5.66682 2.43762,7.19936 2.78024,5.13807 0.38041,6.28752 -3.99406,1.91303 z m 9.90555,-6.44709 c -1.79182,-1.79181 -1.43708,-8.34347 0.51713,-9.55125 2.58502,-1.59763 2.96402,-0.43583 1.76707,5.41666 -0.59944,2.9309 -1.62733,4.79147 -2.2842,4.13459 z m 5.22447,-91.19117 c 0,-4.14503 0.70031,-5.75016 2.50872,-5.75016 1.85372,0 2.37742,1.3294 2.00587,5.09169 -0.72651,7.35648 -4.51459,7.909 -4.51459,0.65847 z m -12.83759,1.37628 c 0,-1.37597 0.72212,-2.05546 1.6047,-1.50999 0.88258,0.54547 1.6047,1.67125 1.6047,2.50175 0,0.83049 -0.72212,1.50999 -1.6047,1.50999 -0.88258,0 -1.6047,-1.1258 -1.6047,-2.50175 z m 16.20662,-18.35933 c -0.072,-3.01288 2.84856,-6.61903 7.47295,-9.22702 5.42305,-3.0584 7.69707,-2.43674 4.40265,1.20353 -1.59746,1.76516 -4.12642,3.2094 -5.61992,3.2094 -1.49351,0 -3.49907,1.62475 -4.45678,3.61056 -1.0504,2.17798 -1.76416,2.65551 -1.7989,1.20353 z m -2.79332,-12.03523 c 0.54652,-3.53034 1.00161,-9.84885 1.01131,-14.04112 0.009,-4.50182 0.74644,-7.62231 1.79777,-7.62231 2.62131,0 1.16756,23.40458 -1.61648,26.02469 -1.83155,1.72368 -2.02506,1.01604 -1.1926,-4.36126 z m 4.85456,55.36209 0.98416,-8.82584 -2.30161,7.04359 c -1.26586,3.87398 -2.69926,10.01195 -3.18529,13.63994 l -0.8837,6.59634 2.20112,-4.81409 c 1.21064,-2.64775 2.64402,-8.78573 3.18532,-13.63994 z m -55.73646,-15.19312 c 1.84963,-1.29552 4.14235,-5.45063 5.0949,-9.23359 1.78283,-7.08025 13.76464,-22.83072 20.13311,-26.4656 1.87813,-1.07197 5.40057,-1.97461 7.82767,-2.00587 4.21813,-0.0545 4.41292,-0.41104 4.41292,-8.08036 l 0,-8.02349 -6.01762,-0.0243 c -3.30969,-0.0128 -8.90607,-1.06476 -12.43641,-2.33661 -3.53034,-1.27184 -9.16356,-2.34415 -12.5183,-2.38289 -5.46079,-0.0631 -6.34111,0.50783 -8.40687,5.45188 -1.50406,3.59976 -1.9643,8.02527 -1.32195,12.71171 0.59043,4.30766 0.17708,9.33029 -1.03124,12.53054 -2.19549,5.81478 -3.58227,22.90018 -2.22448,27.40576 1.03096,3.42103 2.13992,3.4984 6.48827,0.4527 z m 6.97934,-43.6833 c 0,-2.88078 5.77985,-6.91856 9.75454,-6.8145 l 3.88538,0.10176 -3.97874,1.58748 c -2.18832,0.8731 -5.2573,2.74453 -6.81998,4.15874 -1.56266,1.41415 -2.8412,1.84913 -2.8412,0.96654 z m 146.8299,25.23059 c 63.31185,-2.25196 100.37607,-4.25954 103.73777,-5.61896 5.32942,-2.15514 4.54497,-8.6315 -2.05719,-16.98385 -6.13495,-7.76129 -7.68017,-8.57407 -19.20938,-10.10412 -5.75674,-0.76398 -5.78633,-0.73703 -5.61645,5.11132 l 0.17077,5.87935 -8.20699,0.82636 c -4.51384,0.45452 -9.29775,1.73165 -10.63093,2.83809 -1.71727,1.42522 -5.64042,1.70949 -13.45645,0.97508 -10.67628,-1.00318 -11.1992,-1.25879 -16.19564,-7.91677 -3.47463,-4.63009 -6.09857,-6.66485 -8.02348,-6.22192 -7.28712,1.67681 -55.98304,3.43449 -59.37917,2.14328 -3.10647,-1.1811 -3.99207,-0.80854 -5.13971,2.1621 -3.22976,8.36023 -8.02338,10.64231 -23.40748,11.14351 l -14.39694,0.46905 -0.0656,5.61645 c -0.0362,3.08904 -0.66392,7.33941 -1.39512,9.44525 l -1.32944,3.82881 17.4279,-0.9118 c 9.58535,-0.50149 39.81346,-1.70804 67.17356,-2.68123 z m -63.38559,-9.27963 c 0,-2.14744 25.83905,-3.26611 102.29953,-4.42896 34.69219,-0.5276 59.77501,-0.30765 59.77501,0.5242 0,1.51793 -31.99812,2.80316 -112.73006,4.52789 -33.9231,0.72474 -49.34448,0.52999 -49.34448,-0.62313 z m 13.23876,-14.49945 c 3.36084,-2.92776 3.7823,-15.13592 0.94663,-27.42065 -1.61365,-6.99071 -2.2408,-7.86195 -4.7086,-6.54122 -1.56585,0.838 -4.82216,1.52367 -7.23621,1.52367 -3.85608,0 -3.4399,-0.48061 3.42636,-3.95674 4.29856,-2.17621 7.86551,-3.80097 7.92656,-3.61058 0.061,0.1904 1.12038,2.87357 2.35408,5.96262 1.23368,3.08904 2.54937,10.24015 2.92373,15.89136 l 0.68065,10.27489 31.32401,-0.96059 c 17.22819,-0.52835 31.71657,-1.35321 32.19641,-1.83303 0.47982,-0.47985 -2.48139,-5.1413 -6.58048,-10.3588 -5.34827,-6.80749 -8.07893,-12.1699 -9.66978,-18.9892 -1.21927,-5.22655 -3.03287,-11.02757 -4.03022,-12.89114 -0.99736,-1.86355 -1.81336,-4.79156 -1.81336,-6.50668 0,-1.71513 -1.08317,-4.01737 -2.40705,-5.11608 -1.38676,-1.15093 -2.40704,-4.65081 -2.40704,-8.25698 l 0,-6.25931 -4.01176,2.62861 c -3.60422,2.36159 -4.01174,2.37222 -4.01174,0.1046 0,-2.81249 12.33986,-10.68273 16.74962,-10.68273 3.53151,0 13.73965,-10.01484 13.73965,-13.47947 0,-1.41213 0.72212,-2.56752 1.6047,-2.56752 2.63805,0 1.87471,2.25154 -3.52937,10.41021 -3.54433,5.35095 -7.07686,8.51418 -11.4082,10.21559 -6.22333,2.44459 -6.26635,2.52127 -5.31383,9.47065 0.52815,3.85337 2.05126,8.09711 3.38471,9.43054 1.33342,1.33343 2.4244,4.04011 2.4244,6.01484 0,1.97472 1.06022,4.99213 2.35603,6.70534 1.29579,1.71321 2.37896,4.65149 2.40704,6.52954 0.0706,4.72361 4.02486,13.75117 8.4357,19.25863 2.02918,2.53365 6.50535,8.80062 9.94703,13.92659 3.44171,5.12598 8.27137,10.36131 10.73261,11.63407 5.09623,2.63535 19.98944,3.12715 21.48369,0.7094 0.54547,-0.88258 4.55972,-1.6047 8.92056,-1.6047 4.36082,0 7.92877,-0.58701 7.92877,-1.30447 0,-0.71746 -2.12203,-3.33752 -4.71562,-5.82234 -3.86123,-3.69928 -5.53304,-4.2993 -9.22702,-3.31154 -2.48127,0.66347 -8.47668,1.29772 -13.32312,1.40942 -8.76241,0.20195 -8.82905,0.16717 -11.90266,-6.2157 -1.70002,-3.53034 -3.97143,-8.22408 -5.04761,-10.43054 -1.07619,-2.20647 -2.49,-7.26127 -3.1418,-11.23289 -0.65179,-3.97163 -1.86753,-9.02643 -2.70163,-11.2329 -1.36295,-3.60538 -1.67576,-3.72729 -3.08816,-1.20351 -2.84735,5.08782 -3.91956,2.95244 -4.02871,-8.0235 -0.0592,-5.95744 -0.30019,-14.62895 -0.53543,-19.27003 -0.23523,-4.64109 0.28641,-9.33482 1.15919,-10.43055 2.43804,-3.06075 3.50833,-18.84155 1.2779,-18.84155 -1.09957,0 -1.81682,-2.5985 -1.7703,-6.41371 0.0865,-7.09652 1.43245,-8.06609 4.46233,-3.21447 1.34485,2.15342 3.74221,3.2094 7.28629,3.2094 2.90508,0 7.90249,1.09491 11.10534,2.43315 7.70149,3.21788 10.49655,2.07768 17.16046,-7.00039 10.73689,-14.62656 11.09007,-29.20697 0.91488,-37.76882 -11.90711,-10.0192 -30.42058,-4.6638 -30.42058,8.79977 0,3.23101 -1.17475,4.74894 -4.85505,6.27336 -4.16159,1.72379 -5.28456,1.62235 -7.86214,-0.71034 -2.62212,-2.37298 -11.64292,-5.57481 -23.83998,-8.46169 -2.01346,-0.47656 -7.79038,0.61678 -12.83758,2.42964 -5.04721,1.81288 -13.37946,4.05255 -18.51612,4.97707 -5.13665,0.92451 -11.27462,2.74175 -13.63993,4.0383 -2.36532,1.29655 -6.10585,3.11657 -8.31232,4.0445 -2.20645,0.92792 -5.09491,2.30352 -6.41878,3.05686 -3.26263,1.85657 -4.59761,17.99773 -2.19025,26.48212 1.03796,3.65811 3.05273,10.77131 4.47726,15.80712 2.80764,9.92511 3.21934,17.17072 1.63755,28.81846 -1.13515,8.35873 0.63008,10.35335 9.71537,10.97794 7.91915,0.54442 10.07698,0.11521 12.72296,-2.53079 3.9681,-3.9681 3.04765,-9.82253 -2.29242,-14.58053 -2.73345,-2.43552 -4.81409,-5.89867 -4.81409,-8.01286 0,-2.0479 -0.86367,-6.95262 -1.91928,-10.89938 -1.61419,-6.03533 -1.48667,-8.54824 0.80236,-15.80988 1.49689,-4.74866 2.72161,-10.89882 2.72161,-13.66697 0,-3.95041 1.01839,-5.55966 4.73441,-7.48128 5.87698,-3.0391 6.49849,-3.04306 6.49849,-0.0412 0,1.32388 -1.40161,2.40705 -3.11469,2.40705 -4.5508,0 -5.4891,2.72193 -1.28714,3.73394 4.66261,1.12295 15.13461,-1.00411 21.25115,-4.31651 7.11346,-3.85226 20.05874,-3.24477 20.05874,0.94133 0,0.89104 -1.71658,1.29192 -3.81463,0.89086 -3.46056,-0.66151 -3.99227,0.0647 -5.72866,7.8236 -1.05271,4.70403 -1.4731,9.94202 -0.93419,11.63996 0.5389,1.69797 0.26205,3.53081 -0.61524,4.07303 -2.3588,1.45779 -5.254,-11.12612 -4.04387,-17.57659 l 1.04688,-5.58042 -7.63716,3.37827 c -5.46725,2.41843 -9.76698,3.17363 -15.1333,2.65799 l -7.49615,-0.72028 -2.83181,10.99281 c -3.43984,13.35309 -2.38831,23.78416 2.39762,23.78416 3.40721,0 4.21088,4.07089 1.06247,5.38192 -1.4146,0.58906 -1.06531,1.59085 1.18501,3.39866 1.75499,1.40987 3.31659,1.99683 3.47021,1.30433 0.15357,-0.69247 0.7173,-3.24488 1.25261,-5.67198 0.88007,-3.99023 1.64321,-4.41293 7.96738,-4.41293 3.96615,0 7.78439,0.95229 8.8196,2.19962 2.46312,2.96789 3.28862,27.80334 1.02694,30.89636 -1.25908,1.72189 -4.0431,2.26771 -9.7338,1.90836 l -7.97033,-0.50332 0.2437,-7.22114 0.24368,-7.22114 -2.3212,6.63371 c -1.80006,5.14437 -3.31793,6.83305 -6.7608,7.52162 -8.72282,1.74457 -21.0923,-2.90772 -21.0923,-7.93303 0,-1.21581 -0.80039,-2.21056 -1.77866,-2.21056 -1.10553,0 -1.38974,1.54956 -0.751,4.09453 0.71644,2.85451 0.0401,5.34995 -2.23309,8.23991 -2.28158,2.90057 -3.26074,3.38666 -3.26074,1.61877 0,-1.75804 -1.81954,-2.67808 -5.98185,-3.02463 -5.716,-0.47591 -6.04054,-0.81897 -7.30226,-7.71918 -1.75076,-9.57474 -0.29172,-22.19967 2.98387,-25.81917 1.93374,-2.13675 3.97858,-2.65946 7.67188,-1.96116 8.14004,1.53906 9.12004,3.10628 8.2083,13.1265 l -0.82232,9.03738 2.23542,-7.81213 c 2.15233,-7.5218 1.9339,-12.8714 -0.66389,-16.25834 -0.67693,-0.88258 -1.98382,-5.21527 -2.90417,-9.62819 -5.06581,-24.28938 -4.51693,-22.86391 -7.61221,-19.76862 -2.21635,2.21635 -2.21041,3.073 0.0589,8.50436 1.38797,3.32187 2.5006,7.21527 2.47253,8.652 -0.0784,4.0195 -4.44573,-2.37504 -6.65257,-9.74079 -1.89426,-6.32252 -4.77837,-7.06068 -3.45436,-0.88411 l 0.7736,3.60896 -3.25744,-3.69714 c -4.31877,-4.90169 -11.64828,-3.56204 -19.8966,3.63661 -9.75483,8.51342 -12.6915,28.42923 -6.02797,40.88015 2.03394,3.80046 1.5808,16.95281 -0.79161,22.9759 -1.40516,3.56748 5.79683,6.7595 18.77783,8.32257 9.89052,1.19096 21.93649,-1.40395 23.32593,-5.0248 0.44386,-1.15664 1.47673,-2.103 2.29529,-2.103 2.50109,0 -1.66405,25.61042 -5.78823,35.59047 -1.00415,2.42992 0.11891,2.60611 11.45098,1.79648 7.83634,-0.55989 13.62107,-1.81825 15.37255,-3.34404 z m 7.62232,-91.81205 c 0,-0.88258 1.04055,-1.6047 2.31234,-1.6047 1.27179,0 2.75863,0.72212 3.3041,1.6047 0.54547,0.88259 -0.49507,1.6047 -2.31233,1.6047 -1.81726,0 -3.30411,-0.72211 -3.30411,-1.6047 z m 12.83758,-0.45221 c 2.90289,-2.35751 3.52344,-7.19549 1.42571,-11.11516 -1.90669,-3.56267 -0.19959,-3.71494 3.55499,-0.31709 1.60117,1.44903 2.41972,3.70979 1.88832,5.21527 -1.33485,3.78157 -5.45083,8.28292 -7.5189,8.22287 -0.96643,-0.0281 -0.67399,-0.93074 0.64988,-2.00589 z m -5.57474,-3.55954 c -0.60783,-1.76516 -1.79556,-4.92746 -2.63939,-7.02734 -2.18755,-5.44378 -0.92023,-5.69406 2.87048,-0.56687 2.18926,2.96113 2.86473,5.44907 2.06412,7.60258 -1.18814,3.19581 -1.19188,3.19579 -2.29521,-0.008 z m -33.47291,-8.29094 c -1.69248,-1.69246 -1.24347,-16.28514 0.5349,-17.38423 1.00235,-0.6195 1.60469,2.65783 1.60469,8.73113 0,9.80786 -0.19524,10.59747 -2.13959,8.6531 z m 14.97718,-10.96543 c 0,-2.20646 0.72211,-4.01175 1.6047,-4.01175 0.88259,0 1.60469,1.80529 1.60469,4.01175 0,2.20645 -0.7221,4.01174 -1.60469,4.01174 -0.88259,0 -1.6047,-1.80529 -1.6047,-4.01174 z m 90.96925,-2.01023 c -0.71551,-1.10561 -1.91831,-5.79936 -2.67289,-10.43054 -1.06523,-6.53771 -0.8354,-9.25869 1.02796,-12.17011 2.96622,-4.63461 4.71778,-3.46736 2.10969,1.40589 -1.45471,2.71818 -1.45839,4.36982 -0.0161,7.06555 2.10551,3.93418 1.67704,17.41458 -0.44909,14.12921 z m -33.2001,-5.11621 c 0,-0.83049 0.7221,-1.95629 1.60469,-2.50176 0.88259,-0.54547 1.60471,-2.75443 1.60471,-4.9088 0,-2.15437 0.74477,-3.91703 1.65504,-3.91703 3.05271,0 3.53691,4.80074 0.89145,8.83823 -2.61497,3.99094 -5.75589,5.34935 -5.75589,2.48936 z m 19.63884,-7.61606 c 1.53423,-0.40164 4.42269,-0.41621 6.4188,-0.0324 1.99609,0.38384 0.74082,0.71246 -2.78952,0.73028 -3.53034,0.0178 -5.16352,-0.29625 -3.62928,-0.69789 z m -72.59389,-2.86798 c 0,-1.17906 9.21345,-5.66202 11.55437,-5.62197 3.12506,0.0534 -5.49043,6.30605 -8.74615,6.34742 -1.54453,0.0195 -2.80822,-0.30682 -2.80822,-0.72545 z m 50.548,-8.86704 c -0.54547,-0.88259 -0.26964,-1.60471 0.61294,-1.60471 0.88259,0 2.05098,0.72212 2.59645,1.60471 0.54547,0.88257 0.26964,1.60469 -0.61294,1.60469 -0.88259,0 -2.05098,-0.72212 -2.59645,-1.60469 z m -75.62141,91.26722 c 0.55161,-2.75808 1.00293,-8.83869 1.00293,-13.51245 0,-8.18114 -0.18364,-8.53807 -4.92885,-9.58029 -2.71085,-0.5954 -5.16172,-0.83331 -5.44636,-0.52868 -0.67723,0.72478 -1.43802,16.74527 -1.11221,23.42082 0.22526,4.61554 0.78506,5.21527 4.86804,5.21527 3.88337,0 4.77223,-0.79363 5.61645,-5.01467 z m 52.35328,-7.82291 0,-12.83759 -6.02808,0 -6.02808,0 0.0113,12.83025 0.0113,12.83025 6.01761,0.008 6.01609,0.008 0,-12.83758 z"
       id="path3006"
       inkscape:connector-curvature="0" />
  </g>
</svg>
