<?xml version="1.0" encoding="UTF-8" standalone="no"?>
<!-- Created with Inkscape (http://www.inkscape.org/) -->

<svg
   xmlns:dc="http://purl.org/dc/elements/1.1/"
   xmlns:cc="http://creativecommons.org/ns#"
   xmlns:rdf="http://www.w3.org/1999/02/22-rdf-syntax-ns#"
   xmlns:svg="http://www.w3.org/2000/svg"
   xmlns="http://www.w3.org/2000/svg"
   xmlns:xlink="http://www.w3.org/1999/xlink"
   xmlns:sodipodi="http://sodipodi.sourceforge.net/DTD/sodipodi-0.dtd"
   xmlns:inkscape="http://www.inkscape.org/namespaces/inkscape"
   width="277.12103"
   height="310.95618"
   id="svg2"
   version="1.1"
   inkscape:version="0.48.3.1 r9886"
   sodipodi:docname="Triceps-kickback-1.svg"
   inkscape:export-filename="/home/christian/Arbeitsfläche/Dropbox/Website/opentraining/cc_exercises/Bench-press-1.png"
   inkscape:export-xdpi="199.63289"
   inkscape:export-ydpi="199.63289">
  <defs
     id="defs4">
    <radialGradient
       gradientUnits="userSpaceOnUse"
       gradientTransform="matrix(1,0,0,0.91819829,-19.285714,-7.9105395)"
       r="209.56604"
       fy="287.50052"
       fx="398.1105"
       cy="287.50052"
       cx="398.1105"
       id="radialGradient5255"
       xlink:href="#linearGradient5249"
       inkscape:collect="always" />
    <linearGradient
       id="linearGradient5249"
       inkscape:collect="always">
      <stop
         id="stop5251"
         offset="0"
         style="stop-color:#e3e3e3;stop-opacity:1;" />
      <stop
         id="stop5253"
         offset="1"
         style="stop-color:#e3e3e3;stop-opacity:0;" />
    </linearGradient>
  </defs>
  <sodipodi:namedview
     id="base"
     pagecolor="#ffffff"
     bordercolor="#666666"
     borderopacity="1.0"
     inkscape:pageopacity="0.0"
     inkscape:pageshadow="2"
     inkscape:zoom="1.979899"
     inkscape:cx="224.81316"
     inkscape:cy="203.33"
     inkscape:document-units="px"
     inkscape:current-layer="layer1"
     showgrid="false"
     showguides="true"
     inkscape:guide-bbox="true"
     fit-margin-top="0"
     fit-margin-left="0"
     fit-margin-right="0"
     fit-margin-bottom="0"
     inkscape:window-width="1615"
     inkscape:window-height="1026"
     inkscape:window-x="65"
     inkscape:window-y="24"
     inkscape:window-maximized="1">
    <sodipodi:guide
       orientation="-0.70710678,0.70710678"
       position="-1703.1339,587.24364"
       id="guide2985" />
  </sodipodi:namedview>
  <metadata
     id="metadata7">
    <rdf:RDF>
      <cc:Work
         rdf:about="">
        <dc:format>image/svg+xml</dc:format>
        <dc:type
           rdf:resource="http://purl.org/dc/dcmitype/StillImage" />
        <dc:title></dc:title>
      </cc:Work>
    </rdf:RDF>
  </metadata>
  <g
     inkscape:label="Ebene 1"
     inkscape:groupmode="layer"
     id="layer1"
     transform="translate(-274.56253,-302.93536)">
    <path
       style="fill:#000000"
       d="m 339.66483,610.79551 c -2.19921,-1.25719 -8.02552,-2.3113 -12.94736,-2.34246 -13.59067,-0.0861 -15.00555,-2.37992 -13.59194,-22.0354 1.47511,-20.51035 1.25636,-26.60423 -1.52171,-42.3897 -3.65373,-20.76128 -3.15471,-26.05702 3.81426,-40.47851 6.99351,-14.4723 10.23332,-30.6071 5.80451,-28.9076 -1.43655,0.55124 -3.58469,1.00227 -4.77368,1.00227 -4.07495,0 -16.62675,14.73847 -19.23217,22.58264 -5.22849,15.74148 -13.9827,20.26316 -20.14567,10.40551 -3.51325,-5.61942 -3.04933,-16.66774 1.20631,-28.7295 1.27102,-3.60247 1.86745,-8.56913 1.32541,-11.03702 -1.50101,-6.83399 0.78839,-16.99967 4.63639,-20.58719 2.88651,-2.69113 4.7143,-3.03674 11.28592,-2.13395 4.31285,0.59249 10.22759,2.07419 13.14387,3.29269 2.91628,1.2185 7.40592,2.21545 9.97697,2.21545 4.14862,0 4.74796,-0.62778 5.32595,-5.57866 0.40581,-3.47609 -0.21264,-6.4426 -1.64092,-7.87086 -2.72905,-2.72908 -3.17281,-31.69622 -0.49921,-32.58743 4.6447,-1.54822 6.4158,15.95471 2.5958,25.653 -0.85032,2.1588 0.1358,3.31555 4.26669,5.00499 8.52485,3.48648 22.69354,4.63269 30.04382,2.43051 l 6.51756,-1.95272 0,-10.01228 c 0,-10.64802 1.1137,-15.56115 3.23078,-14.25271 1.99647,1.23389 0.26684,35.76266 -2.24234,44.76415 -1.22608,4.39841 -2.72717,9.2055 -3.33576,10.68242 -0.99792,2.42176 0.12252,2.5975 11.41653,1.79056 7.81057,-0.55803 13.5763,-1.81227 15.32202,-3.33304 3.34978,-2.91813 3.76987,-15.08617 0.94351,-27.33054 -1.60835,-6.96773 -2.23343,-7.83611 -4.69312,-6.51971 -1.56071,0.83525 -4.86427,1.50284 -7.34123,1.48352 -4.09212,-0.0321 -3.85137,-0.33096 2.63506,-3.27334 3.92627,-1.78104 7.40473,-3.50433 7.72996,-3.82954 0.32521,-0.32522 -1.98749,-4.4206 -5.13936,-9.10084 -3.15187,-4.68026 -5.73065,-10.13855 -5.73065,-12.12959 0,-1.99103 -0.71974,-3.62006 -1.59942,-3.62006 -0.87969,0 -1.59943,1.397 -1.59943,3.10446 0,1.70744 -0.65828,3.51129 -1.46282,4.00853 -2.19308,1.35539 -3.06255,-2.61068 -1.49885,-6.83706 0.91734,-2.47944 0.25181,-8.88917 -1.99284,-19.19311 -1.85358,-8.50874 -3.73507,-17.8096 -4.18108,-20.66858 -0.76291,-4.89029 -3.99495,-6.93834 -5.95207,-3.77165 -0.48489,0.78458 0.11659,4.56322 1.33662,8.39698 7.17143,22.53521 7.23951,22.84577 5.28175,24.09012 -3.17739,2.01953 -5.19479,1.47434 -10.07519,-2.72284 -5.45807,-4.69398 -3.29507,-5.37393 2.55024,-0.80167 6.01885,4.70803 6.49136,3.97187 3.3364,-5.19813 -1.58894,-4.61834 -2.90685,-8.75685 -2.9287,-9.19669 -0.0219,-0.43984 -0.94911,-3.83504 -2.06062,-7.54489 -2.05527,-6.8599 -5.08157,-8.21939 -3.67341,-1.65021 l 0.77107,3.59711 -3.17688,-3.59871 c -3.95215,-4.4769 -5.53505,-4.44276 -15.27729,0.32941 -5.32076,2.60634 -8.90777,5.77641 -11.23926,9.93281 -1.88339,3.35761 -4.77492,6.36485 -6.42561,6.68273 -2.79026,0.53736 -2.76063,0.27211 0.42135,-3.77312 1.88242,-2.39311 3.09255,-4.88513 2.68915,-5.53781 -2.67177,-4.32303 20.38804,-15.42494 38.3635,-18.46971 3.51874,-0.59601 12.37743,-3.88985 19.68597,-7.3196 7.30855,-3.42976 14.21862,-6.23593 15.35572,-6.23593 4.26593,0 11.91924,-3.51194 12.83096,-5.88783 0.66416,-1.73075 0.22573,-2.18903 -1.47119,-1.53786 -1.3295,0.51018 -2.41727,0.28626 -2.41727,-0.49759 0,-0.78386 2.46152,-2.23755 5.47005,-3.23047 7.48033,-2.46874 10.00171,-5.65839 6.21447,-7.8616 -3.12546,-1.81823 -0.74067,-2.38727 3.37919,-0.80634 4.16724,1.59912 2.97384,4.01962 -6.3759,12.93193 -6.42542,6.12482 -10.15732,8.48918 -13.39925,8.48918 -2.47139,0 -5.36481,1.04996 -6.42986,2.33325 -3.41464,4.11439 5.58084,4.89482 18.71649,1.62381 6.48222,-1.61418 12.10178,-3.44602 12.48788,-4.07073 0.38608,-0.62472 -1.15364,-2.35169 -3.42162,-3.83774 -5.99008,-3.92485 -3.36433,-5.02113 3.01344,-1.25816 10.19392,6.01456 15.8632,7.11471 23.24403,4.51061 5.73394,-2.02304 6.68324,-2.03528 6.68324,-0.0861 0,3.16934 -5.14093,5.58333 -11.89054,5.58333 -3.13673,0 -5.70313,0.76221 -5.70313,1.69382 0,0.93158 -0.62483,1.30764 -1.38851,0.83566 -0.76367,-0.47197 -2.28813,3.38107 -3.38766,8.56234 -1.74595,8.22726 -1.67137,9.8885 0.58877,13.11533 3.46886,4.95247 3.26328,6.65587 -0.55655,4.61156 -4.02542,-2.15434 -6.50242,-11.47741 -5.6748,-21.35912 0.56835,-6.78622 0.31522,-7.5943 -2.06398,-6.58835 -8.78362,3.7138 -22.13557,5.74355 -26.81673,4.07664 -5.92042,-2.10819 -15.08099,-2.30439 -15.08099,-0.32302 0,0.78434 -1.79934,1.87765 -3.99855,2.42962 -3.16818,0.79517 -3.99857,2.01334 -3.99857,5.86578 0,5.97594 -3.10774,4.6854 -3.41668,-1.41883 -0.19281,-3.81005 -0.29776,-3.8878 -0.91456,-0.67766 -0.38321,1.9945 0.71387,7.75243 2.43798,12.79539 1.72411,5.04298 3.64505,11.56613 4.26878,14.49589 l 1.13403,5.32685 7.79591,-1.07221 c 5.41931,-0.74534 10.18105,-0.27999 15.61999,1.52653 9.72414,3.22984 19.00532,1.53345 30.09788,-5.50125 4.16897,-2.64389 8.95048,-4.80705 10.62559,-4.80705 3.6953,0 13.92174,-9.86903 13.92174,-13.43517 0,-1.4075 0.71974,-2.55909 1.59943,-2.55909 2.62937,0 1.86854,2.24414 -3.51777,10.376 -3.53269,5.33335 -7.05361,8.48619 -11.37071,10.18202 -6.20288,2.43654 -6.24576,2.51298 -5.29637,9.43954 0.52642,3.84069 2.04453,8.07048 3.37359,9.39952 1.32904,1.32905 2.41644,4.02685 2.41644,5.99508 0,1.96823 1.05673,4.97573 2.34827,6.68331 1.29154,1.70758 2.37115,4.63619 2.39915,6.50807 0.0703,4.7081 4.01162,13.70599 8.40798,19.19534 2.02249,2.52532 6.48396,8.77171 9.91434,13.88083 3.43039,5.10914 8.24418,10.32726 10.69733,11.59583 5.07949,2.6267 19.92374,3.11688 21.41308,0.70706 0.54368,-0.87968 4.54474,-1.59941 8.89123,-1.59941 4.34651,0 7.90273,-0.58509 7.90273,-1.30018 0,-0.71512 -2.11506,-3.32656 -4.70014,-5.80322 -3.84853,-3.68712 -5.51484,-4.28516 -9.19668,-3.30065 -2.47311,0.66129 -8.44883,1.29345 -13.27934,1.40479 -8.72932,0.20119 -8.80172,0.16348 -11.89136,-6.19528 -5.75929,-11.85309 -7.22443,-15.95835 -8.98056,-25.16304 -1.81331,-9.50438 -4.05589,-12.85003 -5.71507,-8.52625 -1.97094,5.13621 -3.12113,2.1779 -3.22528,-8.29561 -0.0591,-5.93786 -0.2992,-14.58089 -0.53367,-19.20671 -0.23445,-4.62583 0.28547,-9.30414 1.15539,-10.39625 0.86992,-1.09213 1.92692,-5.76432 2.3489,-10.38266 0.60726,-6.64625 0.28029,-8.39698 -1.56824,-8.39698 -1.47255,0 -1.97676,-0.9348 -1.36465,-2.52995 0.53396,-1.39147 0.99479,-4.45037 1.02404,-6.79755 l 0.0533,-4.2676 3.00216,3.5987 c 1.93739,2.32237 4.77302,3.59871 7.99527,3.59871 2.74624,0 7.60502,1.09131 10.79735,2.42515 7.6762,3.20731 10.46207,2.07086 17.10407,-6.97738 10.70162,-14.57849 11.05364,-29.11098 0.91189,-37.64469 -11.86804,-9.98627 -30.32066,-4.64847 -30.32066,8.77084 0,3.23055 -1.17204,4.73382 -4.89217,6.27474 -4.62285,1.91486 -5.21713,1.7158 -10.79612,-3.61642 -8.50762,-8.13129 -16.97163,-11.75357 -22.05353,-9.43811 -2.19656,1.00082 -9.17801,1.82671 -15.51432,1.83529 -8.89676,0.0112 -13.46915,0.92275 -20.07636,3.99857 -4.70569,2.19062 -11.25686,3.98293 -14.55817,3.98293 -3.86064,0 -7.94149,1.41452 -11.437,3.96431 -2.98907,2.1804 -7.234,4.80684 -9.43321,5.83658 -2.19922,1.02974 -8.31701,3.8944 -13.59511,6.3659 -5.27811,2.47153 -13.15753,6.59159 -17.50984,9.1557 -6.50534,3.83256 -8.77043,4.41619 -12.73089,3.28036 -2.96875,-0.85144 -5.42551,-0.77379 -6.40157,0.20226 -1.04567,1.04566 -0.0843,1.58397 2.82887,1.58397 2.42706,0 4.02186,0.6326 3.544,1.40579 -0.47784,0.7732 -4.01371,1.05133 -7.85745,0.61808 -6.30828,-0.71102 -7.08718,-0.41967 -8.00057,2.99263 -0.55655,2.07918 -1.02175,6.77524 -1.03375,10.43571 -0.0286,8.73974 7.01955,15.3413 15.82891,14.82573 3.15781,-0.1848 6.64117,-0.23541 7.74077,-0.11243 2.89656,0.32391 2.64021,15.29421 -0.30375,17.73747 -1.26665,1.05123 -7.75214,2.32345 -14.41219,2.82715 -15.36468,1.16202 -18.47213,-0.95619 -18.47213,-12.59182 l 0,-7.74923 6.79755,-0.10144 c 5.54847,-0.0826 6.15549,-0.36008 3.30342,-1.5092 -5.23358,-2.10868 -7.00187,-6.76519 -5.86857,-15.45401 1.10246,-8.45225 2.75718,-11.34867 7.70776,-13.49158 2.47462,-1.07118 1.72151,-1.31572 -3.14332,-1.02066 l -6.3977,0.38806 -0.49207,-8.64548 c -0.31835,-5.59347 0.20274,-9.07484 1.47609,-9.86184 1.0825,-0.66901 6.79357,-1.70097 12.69127,-2.29327 14.47325,-1.45348 20.71234,1.49487 20.71234,9.78785 l 0,5.6991 4.89925,-4.12244 c 6.95171,-5.84949 42.55241,-22.621 50.79337,-23.92878 3.80058,-0.60313 8.4789,-2.0786 10.39625,-3.27881 4.88821,-3.05991 17.00407,-5.39082 34.06584,-6.55378 16.08338,-1.09626 20.94183,0.52844 27.85257,9.31399 4.93822,6.27793 8.65899,5.55547 10.9611,-2.1283 1.37451,-4.58766 3.72053,-7.61113 8.21218,-10.58356 5.46472,-3.61639 7.28493,-4.0117 13.90231,-3.01936 10.41013,1.56108 15.46085,4.48398 19.45966,11.26145 6.39789,10.84362 3.78553,22.14139 -9.11536,39.42164 -6.41179,8.58832 -10.88023,9.77733 -19.66745,5.23328 -2.65376,-1.3723 -6.75654,-2.27197 -9.11725,-1.99927 -4.133,0.47745 -4.32873,0.94462 -5.2763,12.59389 -0.54126,6.65394 -1.82611,13.67141 -2.85526,15.59439 -1.32213,2.47037 -1.38536,4.40415 -0.21549,6.59005 0.91063,1.70154 1.65569,6.24001 1.65569,10.08553 0,4.86841 1.1656,8.57171 3.83805,12.19398 2.11092,2.8612 4.32685,7.80787 4.92431,10.9926 0.59745,3.18473 2.38385,8.72081 3.96977,12.30238 1.58589,3.58158 3.78194,8.86619 4.88011,11.74357 1.87476,4.91217 2.35018,5.16787 7.7866,4.18788 3.18447,-0.57403 7.00218,-1.66871 8.48379,-2.43261 4.15638,-2.14296 11.41882,-1.64812 15.25592,1.03948 1.90685,1.33561 4.04628,2.33 4.75431,2.20973 7.1017,-1.20622 18.33079,0.64714 23.0048,3.79694 9.99651,6.73665 15.61112,19.65087 11.41351,26.25239 -2.09933,3.30159 -9.80194,5.29819 -20.43975,5.29819 l -10.29214,0 0,23.89697 c 0,14.20604 -0.64861,24.29785 -1.59941,24.88548 -1.00859,0.62333 -1.66833,-3.62543 -1.78594,-11.50144 -0.10247,-6.86946 -0.28252,-17.70696 -0.39986,-24.0833 l -0.21334,-11.59337 -4.79827,-0.005 -4.79829,-0.005 0.49843,15.59594 c 0.27412,8.57778 -0.19339,18.47492 -1.03892,21.99366 -1.35906,5.65592 -1.55593,4.70819 -1.69798,-8.17374 -0.0884,-8.01429 -0.60738,-17.83064 -1.15337,-21.81411 l -0.99273,-7.24268 -33.79477,0.65421 c -18.58712,0.36139 -40.99218,1.34031 -49.78901,2.17693 -8.79684,0.83665 -24.81109,1.98116 -35.5872,2.54341 l -19.59296,1.02226 0,21.3211 c 0,11.72659 -0.66794,21.73389 -1.48428,22.23841 -2.41734,1.494 -3.00778,-3.63394 -2.75421,-23.92019 0.19194,-15.35334 -0.23915,-19.56662 -2.15468,-21.06015 -2.93905,-2.29151 -6.40223,0.0814 -6.40223,4.38677 0,1.61026 -0.84417,4.78049 -1.87593,7.04495 -1.43494,3.14938 -1.43494,4.55819 0,5.99314 2.23435,2.23433 2.58319,25.22751 0.38275,25.22751 -0.82126,0 -1.73004,-1.97928 -2.01952,-4.39841 -0.45486,-3.80107 -1.03492,-3.09513 -4.2711,5.19813 -3.19158,8.17888 -3.60174,11.34928 -2.77643,21.46127 0.53259,6.52561 1.14723,11.92434 1.36588,11.99718 0.21863,0.0728 4.71596,3.07449 9.99407,6.67034 5.2781,3.59586 12.07801,7.02442 15.11091,7.61904 9.15804,1.79552 13.3392,5.3769 12.09564,10.36056 -2.34066,9.38038 -11.50155,14.70036 -25.15592,14.60875 -4.64658,-0.0312 -10.24769,-1.08526 -12.44689,-2.34244 z m 29.1895,-6.62631 c 4.59475,-2.35321 6.35609,-9.96777 2.39915,-10.37177 -1.09961,-0.11228 -3.44864,-0.3657 -5.22009,-0.56321 -4.33086,-0.48285 -12.50039,-4.80969 -15.18208,-8.04094 -1.19661,-1.44182 -4.78849,-3.95447 -7.98195,-5.58366 -5.33571,-2.72209 -5.95854,-3.78842 -7.68477,-13.15691 -1.29464,-7.02634 -1.38658,-11.90987 -0.29576,-15.71327 1.0524,-3.66956 1.04588,-5.69744 -0.0195,-6.05257 -0.8812,-0.29374 -1.55309,-2.81325 -1.49308,-5.5989 0.16993,-7.88684 5.33339,-25.89553 7.31776,-25.52221 0.97983,0.18434 2.25182,-2.60585 2.82661,-6.20041 0.5748,-3.59457 2.82135,-9.56656 4.99235,-13.27109 2.171,-3.70452 3.94727,-8.74654 3.94727,-11.20446 0,-2.45793 1.35178,-6.71316 3.00396,-9.45603 3.47956,-5.77661 10.52572,-27.97759 9.27613,-29.22717 -0.46456,-0.46455 -3.24693,0.0241 -6.18305,1.08576 -5.20741,1.88302 -21.39046,0.49937 -28.88885,-2.47001 -2.39032,-0.94656 -2.799,-0.15258 -2.799,5.43747 0,3.60023 0.86084,9.76442 1.91298,13.69821 1.60888,6.0155 1.48177,8.52015 -0.79973,15.75791 -1.49198,4.73308 -2.71266,10.46163 -2.71266,12.73015 0,2.26849 -0.57891,4.36446 -1.28647,4.65769 -0.70757,0.29323 -3.28512,5.27492 -5.72791,11.0704 -3.90193,9.25723 -4.36052,12.07441 -3.77529,23.19165 0.36638,6.95994 1.53416,18.77221 2.59506,26.24952 1.57094,11.072 1.52232,15.52883 -0.26195,24.01448 -2.17294,10.33413 -1.41784,17.0517 2.46944,21.96898 0.90594,1.14595 5.17322,1.99929 9.99788,1.99929 4.62955,0 10.83916,1.07409 13.79913,2.38686 6.14449,2.72513 18.62492,1.84592 25.77443,-1.81576 z m -47.46864,-9.48218 c -2.73616,-2.73617 -3.4889,-13.48087 -0.94442,-13.48087 0.86292,0 1.986,1.97929 2.49575,4.39841 0.50972,2.41914 1.60304,5.6482 2.42959,7.17572 2.77112,5.12117 0.37919,6.26684 -3.98092,1.90674 z m 9.87298,-6.42592 c -1.78591,-1.78592 -1.43234,-8.31605 0.51544,-9.51986 2.57652,-1.59237 2.9543,-0.4344 1.76127,5.39886 -0.59747,2.92128 -1.62199,4.77572 -2.27671,4.121 z m 5.20732,-90.89147 c 0,-4.13141 0.69798,-5.73127 2.50047,-5.73127 1.84762,0 2.36961,1.32503 1.99929,5.07496 -0.72413,7.33231 -4.49976,7.88301 -4.49976,0.65631 z m -12.66914,1.59943 c -0.0694,-1.68606 0.30858,-2.63072 0.84005,-2.09925 0.53148,0.53147 0.5883,1.91098 0.12635,3.06557 -0.51058,1.27591 -0.88957,0.89692 -0.9663,-0.96632 z m 16.02709,-18.52667 c -0.0717,-3.00299 2.83921,-6.59728 7.4484,-9.19669 5.4052,-3.04835 7.67175,-2.42874 4.38819,1.19957 -1.59223,1.75936 -4.11288,3.19884 -5.60149,3.19884 -1.48857,0 -3.48754,1.61942 -4.44212,3.59871 -1.04694,2.17081 -1.75836,2.64677 -1.79298,1.19957 z m -2.78417,-11.99569 c 0.54474,-3.51873 0.99835,-9.81646 1.00803,-13.99497 0.0112,-4.48702 0.74396,-7.59726 1.79185,-7.59726 2.6127,0 1.16373,23.32767 -1.61118,25.93916 -1.82551,1.71802 -2.01839,1.01272 -1.1887,-4.34693 z m 4.83863,55.18016 0.98094,-8.79684 -2.29404,7.02045 c -1.26172,3.86126 -2.6904,9.97905 -3.17484,13.59511 l -0.8808,6.57466 2.1939,-4.79827 c 1.20664,-2.63905 2.63532,-8.75685 3.17484,-13.59511 z m -55.55328,-15.14319 c 1.84356,-1.29128 4.12873,-5.43272 5.07816,-9.20324 1.77696,-7.05697 13.71939,-22.75569 20.06694,-26.37863 1.87194,-1.06845 5.38282,-1.96812 7.80195,-1.99927 4.20426,-0.0542 4.39841,-0.4097 4.39841,-8.05381 l 0,-7.99713 -5.99783,-0.0241 c -3.29882,-0.0129 -8.87682,-1.06128 -12.39555,-2.32893 -3.51873,-1.26767 -9.13344,-2.33645 -12.47716,-2.37506 -5.44286,-0.0628 -6.32027,0.50615 -8.37924,5.43396 -1.49913,3.58792 -1.95785,7.99888 -1.3176,12.66991 0.58849,4.29352 0.17649,9.29964 -1.02787,12.48938 -2.18826,5.79567 -3.5705,22.82493 -2.21716,27.3157 1.02758,3.40977 2.13289,3.4869 6.46695,0.4512 z m 6.95641,-43.53974 c 0,-2.8713 5.76084,-6.89582 9.72247,-6.7921 l 3.87262,0.10144 -3.96567,1.58227 c -2.18113,0.87022 -5.24001,2.73551 -6.79756,4.14507 -1.55753,1.40951 -2.83186,1.84304 -2.83186,0.96336 z m 146.34734,25.14768 c 63.10379,-2.24456 100.0462,-4.24555 103.39686,-5.6005 5.31192,-2.14806 4.53004,-8.60313 -2.05044,-16.92803 -6.11477,-7.73579 -7.65492,-8.5459 -19.14625,-10.07092 -5.7378,-0.76147 -5.7673,-0.73462 -5.59798,5.09453 l 0.17022,5.86001 -8.18003,0.82366 c -4.499,0.45302 -9.26719,1.72595 -10.59599,2.82875 -1.71162,1.42054 -5.62188,1.70388 -13.41224,0.97188 -10.64118,-0.99988 -11.16238,-1.25465 -16.1424,-7.89075 -3.46322,-4.61488 -6.07853,-6.64294 -7.99713,-6.20148 -7.26316,1.67131 -55.79905,3.4232 -59.18402,2.13624 -3.09626,-1.1772 -3.97893,-0.80588 -5.12282,2.155 -3.21914,8.33275 -7.997,10.60735 -23.33056,11.10688 l -14.34961,0.46752 -0.0654,5.59799 c -0.036,3.07889 -0.66173,7.31529 -1.39052,9.41421 l -1.32507,3.81623 17.37063,-0.90882 c 9.55384,-0.49983 39.68261,-1.70242 66.95279,-2.6724 z m -63.17726,-9.24914 c 0,-2.14038 25.75412,-3.25538 101.96332,-4.4144 34.57819,-0.52587 59.57857,-0.30665 59.57857,0.52247 0,1.51294 -31.89296,2.79395 -112.35959,4.51301 -33.81161,0.72235 -49.1823,0.52825 -49.1823,-0.62108 z m 82.79937,-25.08702 c 0.47825,-0.47825 -2.47324,-5.12439 -6.55886,-10.32474 -5.33069,-6.78512 -8.05238,-12.1299 -9.638,-18.92679 -1.21527,-5.20939 -3.02291,-10.99133 -4.01698,-12.84877 -0.99408,-1.85743 -1.80739,-4.77582 -1.80739,-6.4853 0,-1.7095 -1.07962,-4.00417 -2.39914,-5.09928 -1.39078,-1.15423 -2.39914,-4.64353 -2.39914,-8.30187 l 0,-6.31077 -4.74175,3.37641 c -6.7802,4.82795 -18.58888,5.84716 -29.17321,2.518 -9.63067,-3.02924 -19.96197,-1.71325 -19.31625,2.46045 1.19296,7.71084 3.18771,12.77305 7.9934,20.28557 3.50855,5.48476 5.0856,9.56826 4.4584,11.54433 -0.53375,1.68171 0.1462,5.21711 1.51109,7.85644 1.39177,2.69138 2.48155,8.80629 2.48155,13.92431 l 0,9.12551 31.36837,-0.96197 c 17.25259,-0.52909 31.75965,-1.35328 32.23791,-1.83153 z m -142.30155,-61.68201 0.47627,-5.59798 -12.87181,0.52166 c -12.8577,0.52108 -12.8718,0.52648 -12.8718,4.93155 0,2.42545 0.50836,4.91828 1.12969,5.5396 0.62132,0.62133 6.19932,0.92123 12.39554,0.66643 l 11.26585,-0.46326 0.47626,-5.598 z m 3.27396,-45.66723 c 0.30326,-0.26728 0.66313,-2.87688 0.79971,-5.79914 l 0.24835,-5.31319 -8.79683,-0.50003 c -4.83826,-0.27502 -11.136,-0.0625 -13.99497,0.47232 -4.67787,0.87505 -5.19812,1.52729 -5.19812,6.51678 0,5.50737 0.0402,5.53815 5.99784,4.60623 3.2988,-0.51599 7.79719,-0.21696 9.9964,0.66453 3.40565,1.36504 9.04245,1.03165 10.94762,-0.6475 z m 57.82764,28.50006 c 0,-0.76366 3.24578,-2.96542 7.21282,-4.89275 3.96708,-1.92736 8.56595,-5.72929 10.21975,-8.44873 1.68909,-2.77752 3.45849,-4.21376 4.03732,-3.27721 0.56672,0.91699 0.10636,3.15815 -1.02303,4.98037 -3.67542,5.92998 -20.44686,15.47626 -20.44686,11.63832 z m 13.59512,-2.02592 c -0.58709,-0.94991 1.28477,-1.59942 4.60949,-1.59942 3.07889,0 6.0428,0.71975 6.58647,1.59942 0.58709,0.94992 -1.28479,1.59943 -4.60949,1.59943 -3.07889,0 -6.0428,-0.71975 -6.58647,-1.59943 z m 18.55209,-0.45071 c 1.40682,-1.07164 2.48642,-2.60818 2.39914,-3.41456 -0.0874,-0.80638 0.74096,-1.76603 1.84056,-2.13257 1.09961,-0.36654 1.99929,0.002 1.99929,0.81839 0,1.87317 -5.35828,6.79585 -7.32335,6.72803 -0.81043,-0.028 -0.32245,-0.92768 1.08436,-1.99929 z m -5.76376,-3.12798 c -0.61574,-1.52845 -0.32655,-5.05375 0.64266,-7.83403 1.34101,-3.84682 1.28451,-5.63638 -0.2364,-7.48719 -1.7415,-2.11923 -1.30418,-2.29452 3.39943,-1.36265 2.96894,0.5882 6.43551,1.06947 7.70351,1.06947 2.97022,0 2.19143,8.25486 -0.87386,9.26257 -1.5657,0.51472 -1.8687,-0.22782 -1.09179,-2.67564 0.75114,-2.36667 0.38981,-3.38808 -1.19858,-3.38808 -1.29899,0 -3.33539,3.25729 -4.74968,7.59727 -1.85738,5.69974 -2.75537,6.90317 -3.59529,4.81828 z m -48.7754,-22.0121 c -1.8404,-1.18937 -1.27156,-1.55615 2.44253,-1.57494 5.46444,-0.0276 12.09782,-5.41677 18.35,-14.90803 3.97206,-6.0299 4.06213,-6.06692 13.5951,-5.58968 7.66325,0.38363 9.60506,-0.003 9.63883,-1.91872 0.0705,-4.00402 2.35728,-6.40076 6.04997,-6.34103 l 3.5043,0.0566 -3.61414,2.00714 c -2.82083,1.56657 -3.19077,2.4305 -1.6854,3.93589 3.25891,3.25891 -3.16021,6.8375 -11.49442,6.40808 -8.57539,-0.44188 -13.51288,1.98313 -16.73863,8.22105 -2.43599,4.71069 -11.48632,11.32228 -15.43866,11.27849 -1.21569,-0.0128 -3.28996,-0.72219 -4.60948,-1.57494 z m 121.05936,0.39552 c -0.71316,-1.10198 -1.912,-5.7803 -2.6641,-10.39627 -1.06173,-6.51622 -0.83266,-9.22826 1.02458,-12.13011 2.95646,-4.61937 4.70227,-3.45597 2.10275,1.40127 -1.44994,2.70925 -1.4536,4.35546 -0.016,7.04234 2.0986,3.92124 1.67153,17.35733 -0.44762,14.08277 z m -130.6559,-6.50972 c 0,-1.79155 14.01271,-8.67456 16.18551,-7.95029 0.95707,0.31902 -1.85076,2.53443 -6.2396,4.92313 -8.55688,4.65723 -9.94591,5.08001 -9.94591,3.02716 z m 117.1392,-6.18071 c 1.52919,-0.40031 4.40816,-0.41485 6.3977,-0.0324 1.98955,0.38257 0.7384,0.71011 -2.78034,0.72787 -3.51873,0.0178 -5.14656,-0.29527 -3.61736,-0.6956 z m -19.19583,-10.39143 c -1.05725,-2.80096 -1.56749,-5.44745 -1.13384,-5.88108 1.22539,-1.2254 5.44589,5.04442 5.50279,8.17475 0.0814,4.47874 -2.28073,3.23864 -4.36895,-2.29367 z"
       id="path3040"
       inkscape:connector-curvature="0" />
  </g>
</svg>
