<?xml version="1.0" encoding="UTF-8" standalone="no"?>
<!-- Created with Inkscape (http://www.inkscape.org/) -->

<svg
   xmlns:dc="http://purl.org/dc/elements/1.1/"
   xmlns:cc="http://creativecommons.org/ns#"
   xmlns:rdf="http://www.w3.org/1999/02/22-rdf-syntax-ns#"
   xmlns:svg="http://www.w3.org/2000/svg"
   xmlns="http://www.w3.org/2000/svg"
   xmlns:xlink="http://www.w3.org/1999/xlink"
   xmlns:sodipodi="http://sodipodi.sourceforge.net/DTD/sodipodi-0.dtd"
   xmlns:inkscape="http://www.inkscape.org/namespaces/inkscape"
   width="157.53035"
   height="208.53"
   id="svg2"
   version="1.1"
   inkscape:version="0.48.3.1 r9886"
   sodipodi:docname="Push-up-2.svg">
  <defs
     id="defs4">
    <radialGradient
       gradientUnits="userSpaceOnUse"
       gradientTransform="matrix(1,0,0,0.91819829,-19.285714,-7.9105395)"
       r="209.56604"
       fy="287.50052"
       fx="398.1105"
       cy="287.50052"
       cx="398.1105"
       id="radialGradient5255"
       xlink:href="#linearGradient5249"
       inkscape:collect="always" />
    <linearGradient
       id="linearGradient5249"
       inkscape:collect="always">
      <stop
         id="stop5251"
         offset="0"
         style="stop-color:#e3e3e3;stop-opacity:1;" />
      <stop
         id="stop5253"
         offset="1"
         style="stop-color:#e3e3e3;stop-opacity:0;" />
    </linearGradient>
  </defs>
  <sodipodi:namedview
     id="base"
     pagecolor="#ffffff"
     bordercolor="#666666"
     borderopacity="1.0"
     inkscape:pageopacity="0.0"
     inkscape:pageshadow="2"
     inkscape:zoom="1.979899"
     inkscape:cx="28.209945"
     inkscape:cy="63.204916"
     inkscape:document-units="px"
     inkscape:current-layer="layer1"
     showgrid="false"
     showguides="true"
     inkscape:guide-bbox="true"
     fit-margin-top="0"
     fit-margin-left="0"
     fit-margin-right="0"
     fit-margin-bottom="0"
     inkscape:window-width="1615"
     inkscape:window-height="1026"
     inkscape:window-x="65"
     inkscape:window-y="24"
     inkscape:window-maximized="1">
    <sodipodi:guide
       orientation="-0.70710678,0.70710678"
       position="-3502.1079,454.5054"
       id="guide2985" />
  </sodipodi:namedview>
  <metadata
     id="metadata7">
    <rdf:RDF>
      <cc:Work
         rdf:about="">
        <dc:format>image/svg+xml</dc:format>
        <dc:type
           rdf:resource="http://purl.org/dc/dcmitype/StillImage" />
        <dc:title></dc:title>
      </cc:Work>
    </rdf:RDF>
  </metadata>
  <g
     inkscape:label="Ebene 1"
     inkscape:groupmode="layer"
     id="layer1"
     transform="translate(-2073.5364,-272.62329)">
    <path
       style="fill:#000000"
       d="m 2095.5662,479.39479 c -7.4624,-3.10108 -7.9764,-3.44307 -8.2731,-5.50512 -0.1733,-1.20426 0.6229,-2.30802 2.1787,-3.02014 2.2052,-1.00937 2.3425,-0.94725 1.3653,0.61754 -1.2427,1.98981 -0.2984,5.44875 1.2297,4.50435 0.5581,-0.34492 1.7184,0.0766 2.5785,0.93662 3.0929,3.09286 7.4758,1.90949 16.7006,-4.50905 10.4144,-7.24631 11.3466,-8.61861 9.7436,-14.34411 -1.2037,-4.2992 -0.8669,-11.88124 0.9539,-21.46957 0.5625,-2.96257 1.0228,-9.52784 1.0228,-14.58948 0,-8.89145 0.086,-9.24229 2.5471,-10.36351 1.4008,-0.63829 3.3651,-1.16052 4.3651,-1.16052 0.9999,0 2.9622,-0.9 4.3607,-2 1.3984,-1.1 3.3716,-2.00168 4.3848,-2.00374 1.0133,-0.002 3.3594,-0.92862 5.2136,-2.05904 3.0716,-1.87263 3.3193,-2.37503 2.7875,-5.65236 -0.6552,-4.03738 -4.4721,-8.55066 -8.719,-10.30981 -2.3539,-0.97502 -3.8653,-0.81037 -9.0584,0.98681 -7.3531,2.54469 -17.7372,9.52864 -18.9635,12.75413 -0.4756,1.25086 -0.4926,5.31195 -0.038,9.02873 0.4546,3.71541 0.6142,9.55718 0.3547,12.98172 -0.2595,3.42454 0.036,9.72454 0.657,14 0.732,5.04134 0.8006,8.90737 0.1952,10.99942 -1.5191,5.24926 -12.6957,18.27414 -15.681,18.27414 -1.6224,0 1.332,-3.86345 9.641,-12.60773 1.6241,-1.70925 2.953,-3.46086 2.953,-3.89246 0,-1.42597 -11.9501,0.43409 -15.9725,2.48614 -8.5014,4.33712 -20.2921,1.24196 -18.2621,-4.79397 0.242,-0.71941 2.7562,-2.35291 5.5873,-3.63 6.7801,-3.05856 13.2823,-9.49271 14.6224,-14.46947 0.9939,-3.69108 0.8322,-7.27177 -1.5173,-33.59251 -0.2455,-2.75 -0.2075,-6.83775 0.084,-9.08389 0.4603,-3.5423 1.0894,-4.39334 4.7443,-6.41739 9.6621,-5.35085 12.388,-6.4451 16.4592,-6.60704 2.3555,-0.0937 4.8389,-0.60882 5.5186,-1.14472 0.6797,-0.53589 1.9108,-1.03578 2.7358,-1.11088 15.295,-1.39215 16.4815,-1.6477 16.8602,-3.6317 0.2096,-1.0976 1.2268,-3.07078 2.2604,-4.38486 1.9321,-2.45629 2.6762,-12.32212 1.1141,-14.77148 -0.4041,-0.63357 -2.9032,-1.47682 -5.5536,-1.87387 -3.0583,-0.45816 -5.2469,-1.40736 -5.9905,-2.59804 -0.6444,-1.03187 -2.2026,-1.87613 -3.4625,-1.87613 -2.5895,0 -3.8066,-2.14332 -2.6974,-4.75 0.6381,-1.49978 0.8386,-1.39254 1.402,0.75 0.7943,3.02041 5.3283,3.59902 5.8769,0.75 0.2359,-1.22491 -0.3028,-1.75 -1.7953,-1.75 -1.1728,0 -1.8542,-0.45 -1.5143,-1 0.3399,-0.55 1.4915,-1 2.559,-1 1.0676,0 1.941,-0.44143 1.941,-0.98095 0,-1.53077 4.5966,-2.30531 6.772,-1.1411 1.7918,0.95896 2.0069,0.63698 2.531,-3.78874 0.3151,-2.66022 1.4991,-6.35606 2.6312,-8.21298 1.1321,-1.85693 2.06,-4.42334 2.0621,-5.70315 0,-1.27981 1.2439,-3.56708 2.7596,-5.08283 2.616,-2.61598 2.6641,-2.82786 0.948,-4.17308 -1.0598,-0.83066 -2.3578,-4.10421 -3.1365,-7.90979 -1.4875,-7.26987 -0.3457,-14.38485 2.8804,-17.94975 2.7275,-3.01385 7.9477,-5.05763 12.9182,-5.05763 3.6235,0 4.7969,-0.43588 5.6961,-2.11593 1.0097,-1.88669 1.6875,-2.0423 6.2558,-1.43628 6.4718,0.8585 16.641,4.23878 18.9321,6.29309 2.2736,2.03857 2.2069,5.50555 -0.3618,18.81623 -4.3303,22.43903 -4.3247,22.5027 2.5581,29.12934 4.5752,4.40487 9.4183,13.32246 10.5641,19.45156 l 0.6801,3.638 -3.854,-0.19677 c -2.1197,-0.10823 -4.4126,-0.78923 -5.0953,-1.51333 -1.0133,-1.07488 -0.7375,-1.22745 1.5025,-0.83112 1.6013,0.28333 3.2003,-0.0649 3.8407,-0.83644 1.6911,-2.03767 -3.2678,-11.5275 -9.6532,-18.47321 -2.9872,-3.24927 -5.4312,-6.5763 -5.4312,-7.3934 0,-2.71925 -4.2296,-4.61307 -7.9315,-3.55137 -2.0191,0.57906 -3.9929,0.59529 -5.0279,0.0413 -1.5289,-0.81825 -10.3261,-0.53473 -15.5406,0.50085 -2.3175,0.46024 -8.5,10.23787 -8.5,13.44272 0,1.18401 -0.45,1.87463 -1,1.53472 -2.9934,-1.85001 2.5619,-13.18788 7.7853,-15.88896 2.7116,-1.40226 12.317,-2.0067 20.4105,-1.2844 l 3.6958,0.32984 -2.0844,-2.92721 c -1.1464,-1.60996 -3.2595,-3.67017 -4.6958,-4.57824 -2.8195,-1.78264 -3.0843,-3.02971 -3.0381,-14.3129 0.03,-7.42295 -1.8717,-13.12468 -4.9229,-14.75764 -3.2223,-1.72452 -9.1308,-1.25575 -12.8066,1.01605 -5.07,3.13341 -6.7111,7.06672 -6.0231,14.43521 1.0119,10.83554 3.2333,13.10912 10.2149,10.45473 2.9026,-1.10357 6.3781,-4.74411 6.4311,-6.73648 0.037,-1.40108 1.6439,-1.68916 2.4197,-0.43388 0.2774,0.44887 -0.1263,2.58637 -0.8971,4.75 -0.7708,2.16363 -1.4213,3.40587 -1.4454,2.76052 -0.031,-0.82993 -0.922,-0.73532 -3.0439,0.32324 -3.286,1.63926 -3.5989,2.35123 -1.8167,4.13345 1.9369,1.93689 -0.01,2.68792 -2.0844,0.80612 -1.8243,-1.65095 -2.1065,-1.60971 -6.059,0.88536 -2.9284,1.84862 -3.9909,3.11729 -3.6188,4.32108 0.2961,0.95757 -0.7819,3.64058 -2.4605,6.12447 -2.3543,3.48367 -2.8598,5.10018 -2.3854,7.62852 0.3826,2.0397 0.023,4.32695 -0.9867,6.27997 -2.0812,4.02466 -1.9619,8.42404 0.4115,15.17115 1.0641,3.025 1.9494,7.18468 1.9674,9.24373 0.028,3.21414 0.6101,4.16208 4.1151,6.7011 4.4575,3.22893 10.9128,4.65384 16.4108,3.6224 4.7617,-0.8933 4.4061,-2.10332 -1.0195,-3.46951 -3.6538,-0.92004 -4.8388,-1.79522 -6.148,-4.5408 -0.8921,-1.8706 -2.4553,-3.61903 -3.4739,-3.88539 -2.2498,-0.58834 -2.5087,-4.88155 -0.3999,-6.6317 0.7986,-0.66279 2.3511,-0.9197 3.45,-0.57092 1.1125,0.35308 3.4202,-0.10127 5.2067,-1.02509 2.7252,-1.40926 3.7712,-1.47354 6.9433,-0.42664 4.103,1.35409 5.948,0.77909 5.948,-1.85369 0,-0.94516 0.7092,-2.73095 1.5759,-3.96842 1.4564,-2.07923 1.4128,-2.58688 -0.5737,-6.69056 -1.1823,-2.44233 -1.9707,-5.46748 -1.7519,-6.72256 0.4339,-2.48875 1.1143,-1.43715 2.1479,3.3194 0.3306,1.52151 2.2342,3.75787 4.5856,5.38743 3.6291,2.51494 4.5622,2.72241 9.5877,2.13176 3.6754,-0.43197 5.3538,-0.30876 4.9389,0.36256 -0.3456,0.5593 -1.1984,1.0169 -1.8951,1.0169 -0.6967,0 -2.3235,1.125 -3.6153,2.5 -2.2334,2.37738 -4.7395,3.50556 -3.5648,1.60479 0.3043,-0.49237 -0.1692,-1.17248 -1.0523,-1.51135 -1.1132,-0.42719 -1.4388,-0.18148 -1.0617,0.80126 0.869,2.26447 -2.5266,4.5127 -8.6829,5.74907 -4.2187,0.84724 -6.3463,0.85469 -8.1594,0.0285 -1.4543,-0.66261 -3.3506,-0.78541 -4.6583,-0.30165 -2.1518,0.79598 -2.1399,0.83239 0.4869,1.49167 4.7442,1.19072 3.0762,7.63766 -1.9761,7.63766 -3.6701,0 -1.6792,2.82926 2.8489,4.04854 5.4511,1.46783 7.6744,0.92975 9.6412,-2.33334 1.4616,-2.42494 1.4884,-2.9025 0.2075,-3.69563 -2.6533,-1.64282 -0.6787,-1.79684 10.7504,-0.83854 10.6758,0.89514 11.4652,0.8309 14.7519,-1.20035 1.9098,-1.18036 4.0106,-1.96672 4.6683,-1.74748 1.9204,0.64013 -7.5237,6.58101 -11.0322,6.9399 -2.7022,0.27641 -1.3016,1.07266 9.0684,5.15542 25.8826,10.19021 27.7243,11.04469 26.4823,12.28668 -0.3981,0.39817 -2.8601,-0.22189 -5.471,-1.37791 -12.1508,-5.37998 -38.1628,-15.1598 -41.8257,-15.7254 -3.0495,-0.47087 -4.4051,-0.23641 -5.3725,0.92916 -1.1026,1.32854 -0.9805,1.55895 0.8258,1.55895 1.1657,0 3.8083,1.50822 5.8724,3.35161 2.0641,1.84338 5.0275,3.66128 6.5854,4.03976 1.5579,0.37849 9.4329,3.41923 17.5,6.75721 8.0671,3.33797 15.7925,6.52372 17.1675,7.07943 1.375,0.55571 1.9681,1.20904 1.3181,1.45184 -0.6501,0.2428 -4.7001,-0.99881 -9,-2.75914 -4.3,-1.76032 -13.6521,-5.37045 -20.7826,-8.02251 -14.2225,-5.2898 -14.4899,-5.26031 -14.5258,1.6018 -0.032,6.18734 -1.814,11.5 -3.8567,11.5 -0.9641,0 -2.266,0.51302 -2.8931,1.14006 -0.8534,0.8534 -0.3379,1.68793 2.05,3.31907 2.0328,1.38853 3.0703,2.84629 2.8599,4.01841 -0.4636,2.58204 -6.2187,9.52246 -7.8962,9.52246 -0.7654,0 -1.1867,0.3375 -0.9363,0.75 0.2504,0.4125 0.029,3.225 -0.491,6.25 -2.1697,12.61162 -2.4942,16 -1.5323,16 0.5385,0 5.2617,-1.37182 10.4959,-3.0485 5.2343,-1.67667 13.6058,-4.12517 18.6035,-5.4411 4.9976,-1.31594 10.0991,-2.6966 11.3366,-3.06814 1.6675,-0.50064 2.25,-0.2674 2.25,0.90097 0,1.70529 0.3047,1.60295 -21.5,7.22235 -7.7,1.98441 -15.9927,4.24396 -18.4281,5.02122 -2.4355,0.77726 -4.8549,1.4132 -5.3764,1.4132 -1.1113,0 -0.1769,-12.83468 1.3126,-18.02808 1.5756,-5.49388 1.2876,-6.52398 -1.892,-6.76625 -2.7614,-0.21041 -2.9142,0.004 -3.5975,5.03729 -0.3925,2.89137 -0.8344,5.93204 -0.9819,6.75704 -0.1475,0.825 -0.5803,4.45264 -0.9618,8.06142 l -0.6937,6.56142 -13.6906,4.36899 c -13.4885,4.3045 -18.9984,5.18871 -22.4406,3.60124 -1.5495,-0.7146 -1.75,-0.19224 -1.75,4.5603 l 0,5.36734 10.2271,6.98965 c 16.4724,11.25794 17.2796,11.67282 21.2584,10.92638 3.0561,-0.57332 3.5145,-1.03611 3.5145,-3.54803 0,-1.58879 -0.4037,-2.88871 -0.8971,-2.88871 -1.6019,0 -18.2785,-12.77344 -17.392,-13.32134 2.6381,-1.63042 37.3021,-13.27134 52.2891,-17.55981 20.3465,-5.82207 24,-6.63243 24,-5.32331 0,0.52496 -1.4625,1.23899 -3.25,1.58675 -5.1667,1.00518 -33.8325,10.15659 -60.9784,19.46703 -4.2507,1.45787 -7.7382,2.89524 -7.75,3.19414 -0.012,0.29891 3.1116,2.54891 6.941,5 7.3489,4.70385 8.5816,6.28419 9.3615,12.00149 0.4779,3.50312 0.4287,3.55793 -4.1702,4.64619 -4.5468,1.0759 -4.769,1.01446 -9.6539,-2.66959 -2.75,-2.07396 -6.125,-4.34311 -7.5,-5.04255 -1.375,-0.69944 -4.975,-3.1379 -8,-5.41879 -8.5705,-6.4623 -8.2504,-6.41262 -7.4624,-1.15791 0.8157,5.43933 0.327,6.20214 -7.4973,11.70326 -3.0472,2.14239 -6.6653,4.77476 -8.0403,5.84972 -3.8328,2.99645 -6.9933,3.23607 -12.5,0.94771 z m -2.8423,-28.39275 c 2.6633,-1.36936 7.0923,-2.67404 9.8423,-2.89927 2.75,-0.22523 5.3996,-0.45484 5.8879,-0.51024 0.503,-0.0571 0.5681,-3.46035 0.1502,-7.85073 -1.321,-13.87605 -1.5916,-35.61412 -0.4762,-38.25 1.7466,-4.12752 11.7048,-11.07957 19.1881,-13.39561 2.558,-0.7917 2.3061,-6.63038 -0.412,-9.54791 -1.9863,-2.13207 -2.7491,-2.27625 -9.3861,-1.7743 -5.7169,0.43237 -8.7603,1.33436 -14.5879,4.32357 -4.0502,2.07746 -7.723,4.25354 -8.1618,4.83573 -0.4388,0.58219 -0.5161,3.30852 -0.1718,6.05852 0.8063,6.44019 1.3624,11.77396 1.8721,17.95553 0.2247,2.72554 0.7072,7.74438 1.0722,11.15299 0.9549,8.91675 -0.7034,13.50738 -6.9033,19.11061 -2.7893,2.52078 -6.9653,5.42801 -9.28,6.46052 -5.1802,2.31069 -6.1475,3.72115 -3.753,5.47205 2.9279,2.14095 9.7349,1.62704 15.1193,-1.14146 z m -1.6577,-8.35445 c 0,-0.45385 1.3461,-2.02458 2.9913,-3.49049 2.9202,-2.60183 5.047,-3.42132 4.9707,-1.9153 -0.053,1.04896 -7.962,6.41872 -7.962,5.40579 z m 13.2103,-19.15579 c -1.7704,-5.54984 -2.2783,-11.24971 -1.2923,-14.5 0.8111,-2.67366 0.9201,-2.40171 1.0016,2.5 0.05,3.025 0.5676,7.21432 1.1494,9.30961 1.3665,4.92069 0.6093,7.29266 -0.8587,2.69039 z m -4.9603,-22.14211 c -1.6395,-1.64981 -1.5827,-3.33689 0.161,-4.784 1.796,-1.49058 2.3878,-0.33811 1.6606,3.234 -0.4583,2.2514 -0.8193,2.55859 -1.8216,1.55 z m 1.9446,-9.89122 c -2.2281,-2.07575 -2.9626,-4.96667 -1.262,-4.96667 0.5129,0 1.2051,0.85843 1.5381,1.90762 1.0346,3.25974 3.1728,3.08938 7.4781,-0.59583 5.141,-4.40046 6.1539,-3.86532 1.8012,0.9516 -4.17,4.61474 -6.7272,5.33819 -9.5554,2.70328 z m 41.3054,48.27745 c 4.4,-1.6418 9.8135,-3.48177 12.03,-4.08882 l 4.0299,-1.10373 1.1925,-11.22002 c 0.6559,-6.17101 0.9985,-11.41394 0.7615,-11.65096 -0.237,-0.23702 -2.2587,0.30038 -4.4927,1.19423 -5.3028,2.1218 -8.7914,2.0512 -14.1441,-0.28624 -3.6007,-1.57236 -5.3308,-1.7569 -9.7535,-1.04029 -2.957,0.47913 -5.657,1.15183 -6,1.49489 -0.343,0.34306 -0.641,4.52369 -0.6623,9.29028 -0.021,4.7666 -0.4106,10.93716 -0.8651,13.71236 -0.7705,4.70454 -0.6665,5.1256 1.5387,6.22529 3.183,1.58736 6.8606,1.01949 16.3651,-2.52699 z m 17.9856,-31.48571 c 4.4079,-1.75855 8.1809,-3.30264 8.3845,-3.43132 0.2035,-0.12867 0.082,-1.38213 -0.2703,-2.78546 -0.6207,-2.47302 -0.7429,-2.50866 -3.9741,-1.15859 -1.8336,0.7661 -5.3104,2.82481 -7.7263,4.57491 -3.5985,2.60674 -5.2068,3.13967 -8.896,2.94787 -2.4769,-0.12876 -5.6284,-0.12688 -7.0034,0.004 -2.2683,0.21623 -2.1293,0.41344 1.5,2.12821 4.8256,2.27997 7.362,1.95846 17.9856,-2.27981 z m 14.5144,-5.28432 c 0,-1.32434 -2.2909,-6.01633 -5.091,-10.42666 -4.374,-6.88944 -6.1036,-8.64993 -12.2813,-12.5003 -7.6515,-4.76896 -14.3707,-7.54713 -18.2534,-7.54713 -3.9471,0 -2.6617,1.34756 4.2169,4.42097 8.9498,3.99885 17.8035,9.90358 20.7203,13.81883 1.3358,1.79311 3.9436,6.03353 5.795,9.42315 3.4297,6.27915 4.8935,7.12007 4.8935,2.81114 z m -18.5837,-0.41651 c 2.3522,-1.61833 5.4707,-3.24211 6.9302,-3.60841 3.2558,-0.81716 3.2646,-1.08562 0.1829,-5.62068 -2.4343,-3.58237 -13.6576,-11.78612 -18.7979,-13.74048 -1.4488,-0.55085 -4.4472,-2.146 -6.663,-3.54478 -4.096,-2.58567 -9.4439,-3.36283 -10.5727,-1.53641 -0.3423,0.55376 0.3062,2.31072 1.441,3.90437 1.1347,1.59366 2.0632,4.08142 2.0632,5.52836 0,2.2794 0.2551,2.49431 1.9095,1.60886 1.3901,-0.74396 2.9543,-0.59043 5.75,0.56441 7.0982,2.932 10.1333,7.18055 10.5753,14.80319 0.3171,5.46881 1.2942,5.69216 7.1815,1.64157 z m 22.0821,-5.06012 c -0.3354,-0.54269 -1.418,-1.41927 -2.4059,-1.94797 -1.7038,-0.91185 -1.7138,-0.79023 -0.1943,2.36574 1.1838,2.45884 1.8116,2.96715 2.4059,1.94796 0.4423,-0.75846 0.5297,-1.82305 0.1943,-2.36573 z m -3.9474,-8.46534 c 2.2443,-5.37123 1.8734,-11.7271 -0.8705,-14.92045 -2.0358,-2.36917 -2.6554,-2.5717 -5.0651,-1.65553 -6.5422,2.48734 -15.3478,0.49253 -22.5068,-5.09871 -1.7614,-1.3757 -2.7336,-1.58365 -3.6905,-0.78944 -2.3875,1.98145 -0.3459,3.72528 10.9066,9.31576 10.1393,5.03742 11.5269,6.06502 14.9678,11.0842 2.0859,3.04263 4.0213,5.53205 4.301,5.53205 0.2797,0 1.1606,-1.56055 1.9575,-3.46788 z m 5.9413,-7.29788 c 1.0305,-9.34574 1.561,-11.31729 2.8391,-10.55101 0.6427,0.38538 0.5121,-0.10757 -0.2903,-1.09545 -2.3068,-2.84002 -6.1257,-3.93178 -7.8214,-2.23602 -1.2453,1.24527 -1.1567,1.71122 0.6732,3.5411 2.2486,2.24869 2.4824,3.56271 2.1309,11.97812 -0.3013,7.21296 1.6342,5.92965 2.4685,-1.63674 z m -14.8374,-23.77737 c 0.716,-1.86584 0.5792,-1.99942 -2.9049,-2.83525 -2.201,-0.52802 -2.7626,-0.30655 -2.8134,1.10933 -0.046,1.2953 -0.3224,1.12111 -1.0305,-0.65047 -0.6462,-1.61671 -1.2996,-2.08695 -1.9694,-1.41721 -0.5512,0.55126 -0.7244,1.72633 -0.3848,2.61126 0.5404,1.40835 2.1496,1.98164 7.2295,2.57564 0.7048,0.0824 1.5478,-0.54458 1.8735,-1.3933 z m 18.4382,-11.17949 c 0.5249,-1.41902 0.3202,-2.51938 -0.6127,-3.29364 -1.1238,-0.93268 -1.8037,-0.50203 -3.4369,2.17678 -2.6471,4.34182 -2.5753,4.80873 0.6089,3.95715 1.4588,-0.39015 3.0071,-1.66828 3.4407,-2.84029 z m -44.8025,-4.14773 c -0.3103,-2.31282 -0.071,-4.14749 0.5951,-4.55902 2.0602,-1.27324 1.1382,-2.57063 -1.8267,-2.57063 -3.4425,0 -4.5961,1.44286 -4.1968,5.2494 0.1798,1.71381 -0.1922,2.7506 -0.9868,2.7506 -2.3791,0 0.5469,1.83504 3.6246,2.27322 1.65,0.23491 3.0697,0.49454 3.1548,0.57695 0.085,0.0824 -0.079,-1.59183 -0.3642,-3.72052 z m 50.1146,-30.37965 c 0.2727,-1.7875 1.1744,-7.525 2.0038,-12.75 2.8811,-18.15083 2.8495,-17.45605 0.8752,-19.24284 -2.5184,-2.27909 -20.2594,-6.182 -21.6734,-4.768 -0.7545,0.75452 -0.711,1.56907 0.149,2.78836 4.0835,5.79 4.647,7.85592 4.7462,17.40049 l 0.1006,9.67801 5.3179,5.07199 c 2.9249,2.7896 5.918,5.07199 6.6514,5.07199 0.7361,0 1.5556,-1.45605 1.8293,-3.25 z m -5.3418,-1.43795 c -0.035,-0.65337 0.5889,-4.02837 1.386,-7.5 0.7972,-3.47163 1.7593,-9.79955 2.138,-14.06205 0.3786,-4.2625 1.0764,-7.75 1.5505,-7.75 1.2135,0 1.1109,1.34615 -1.0786,14.15328 -1.7601,10.29534 -3.8353,18.16798 -3.9959,15.15877 z m -73.4349,150.53924 c 1.4152,-5.4556 2.0009,-6.55525 2.9734,-5.58274 0.7722,0.77221 -2.5091,10.73145 -3.5358,10.73145 -0.4252,0 -0.1721,-2.31692 0.5624,-5.14871 z m 3.3715,-49.16016 c 0,-0.71988 0.7084,-2.18238 1.5742,-3.25 1.5194,-1.8735 1.5547,-1.85402 1.0137,0.55887 -0.3083,1.375 -0.5667,2.8375 -0.5742,3.25 -0.024,1.34178 -2.0137,0.78969 -2.0137,-0.55887 z m 11,-5.19113 c 0.6847,-0.825 2.6523,-1.46576 4.3724,-1.42392 l 3.1276,0.0761 -3.5,1.34784 c -4.6579,1.79375 -5.4887,1.79375 -4,0 z m -6.517,-3.48124 c 1.4673,-1.62137 1.5641,-2.25711 0.5326,-3.5 -0.8403,-1.01249 -0.8927,-1.51876 -0.1571,-1.51876 1.3335,0 2.5922,4.46174 1.6766,5.94316 -0.3592,0.58126 -1.3713,1.05684 -2.2491,1.05684 -1.395,0 -1.3702,-0.24949 0.197,-1.98124 z m 30.517,-48.3061 c 0,-1.32296 -0.6978,-3.80419 -1.5507,-5.51385 -1.2647,-2.53513 -1.3448,-3.8732 -0.4343,-7.25458 1.2457,-4.62597 0.7844,-5.85255 -1.4908,-3.96429 -0.8395,0.69671 -1.5242,0.81573 -1.5242,0.26495 0,-1.86567 2.489,-3.06969 5.25,-2.53965 2.484,0.47685 3.9807,2.29476 1.8893,2.29476 -1.2693,0 -2.2745,10.26482 -1.1183,11.42095 1.2786,1.27864 1.2638,6.28502 -0.021,7.07905 -0.5608,0.34659 -1,-0.4384 -1,-1.78734 z m 10.8181,-8.21266 c -0.6265,-1.375 -1.4839,-2.5 -1.9054,-2.5 -0.9711,0 -4.0862,-6.15988 -3.4412,-6.80483 0.7675,-0.7675 3.5285,1.91429 3.5285,3.42727 0,0.75766 0.5625,1.42737 1.25,1.48825 2.7927,0.2473 6.3061,-0.33666 7.2,-1.1967 1.4546,-1.39944 6.1619,-1.08652 7.4761,0.49698 1.6805,2.02482 0.3234,2.46906 -6.6482,2.17632 l -6.1622,-0.25875 0.5672,2.83573 c 0.7011,3.50567 -0.3355,3.69229 -1.8648,0.33573 z m 7.4319,0.7766 c -1.7875,-0.22182 -3.25,-0.82481 -3.25,-1.33996 0,-1.04144 5.9515,-1.27622 8.4125,-0.33185 1.7466,0.67024 1.1598,2.48798 -0.7215,2.23517 -0.6551,-0.088 -2.6535,-0.34153 -4.441,-0.56336 z m 21.3024,-8.21874 c -0.9667,-1.06817 -1.5956,-2.42832 -1.3975,-3.02256 0.1981,-0.59423 1.5537,0.27973 3.0124,1.94214 1.4757,1.68172 2.0956,3.02256 1.3975,3.02256 -0.6902,0 -2.0457,-0.87396 -3.0124,-1.94214 z m -25.5524,-1.94844 c 0,-0.50566 2.0075,-2.09587 4.4612,-3.5338 2.6962,-1.58009 4.2607,-3.13679 3.9545,-3.93481 -0.2787,-0.72621 0.1888,-1.89758 1.0388,-2.60304 0.85,-0.70546 1.5821,-1.11506 1.6267,-0.91021 1.0865,4.98059 0.4331,6.08883 -5.2941,8.97991 -3.1829,1.60673 -5.7871,2.5076 -5.7871,2.00195 z m -0.9799,-24.63359 c 0.6957,-0.83829 1.4708,-1.31823 1.7225,-1.06653 0.6935,0.6935 -0.7155,2.5907 -1.9241,2.5907 -0.6631,0 -0.5872,-0.57378 0.2016,-1.52417 z"
       id="path3076"
       inkscape:connector-curvature="0" />
  </g>
</svg>
