<?xml version="1.0" encoding="UTF-8" standalone="no"?>
<!-- Created with Inkscape (http://www.inkscape.org/) -->

<svg
   xmlns:dc="http://purl.org/dc/elements/1.1/"
   xmlns:cc="http://creativecommons.org/ns#"
   xmlns:rdf="http://www.w3.org/1999/02/22-rdf-syntax-ns#"
   xmlns:svg="http://www.w3.org/2000/svg"
   xmlns="http://www.w3.org/2000/svg"
   xmlns:xlink="http://www.w3.org/1999/xlink"
   xmlns:sodipodi="http://sodipodi.sourceforge.net/DTD/sodipodi-0.dtd"
   xmlns:inkscape="http://www.inkscape.org/namespaces/inkscape"
   width="157.53035"
   height="208.53"
   id="svg2"
   version="1.1"
   inkscape:version="0.48.3.1 r9886"
   sodipodi:docname="Tricep-dips-1.svg">
  <defs
     id="defs4">
    <radialGradient
       gradientUnits="userSpaceOnUse"
       gradientTransform="matrix(1,0,0,0.91819829,-19.285714,-7.9105395)"
       r="209.56604"
       fy="287.50052"
       fx="398.1105"
       cy="287.50052"
       cx="398.1105"
       id="radialGradient5255"
       xlink:href="#linearGradient5249"
       inkscape:collect="always" />
    <linearGradient
       id="linearGradient5249"
       inkscape:collect="always">
      <stop
         id="stop5251"
         offset="0"
         style="stop-color:#e3e3e3;stop-opacity:1;" />
      <stop
         id="stop5253"
         offset="1"
         style="stop-color:#e3e3e3;stop-opacity:0;" />
    </linearGradient>
  </defs>
  <sodipodi:namedview
     id="base"
     pagecolor="#ffffff"
     bordercolor="#666666"
     borderopacity="1.0"
     inkscape:pageopacity="0.0"
     inkscape:pageshadow="2"
     inkscape:zoom="1.979899"
     inkscape:cx="28.209945"
     inkscape:cy="63.204916"
     inkscape:document-units="px"
     inkscape:current-layer="layer1"
     showgrid="false"
     showguides="true"
     inkscape:guide-bbox="true"
     fit-margin-top="0"
     fit-margin-left="0"
     fit-margin-right="0"
     fit-margin-bottom="0"
     inkscape:window-width="1615"
     inkscape:window-height="1026"
     inkscape:window-x="65"
     inkscape:window-y="24"
     inkscape:window-maximized="1">
    <sodipodi:guide
       orientation="-0.70710678,0.70710678"
       position="-3502.1079,454.5054"
       id="guide2985" />
  </sodipodi:namedview>
  <metadata
     id="metadata7">
    <rdf:RDF>
      <cc:Work
         rdf:about="">
        <dc:format>image/svg+xml</dc:format>
        <dc:type
           rdf:resource="http://purl.org/dc/dcmitype/StillImage" />
        <dc:title></dc:title>
      </cc:Work>
    </rdf:RDF>
  </metadata>
  <g
     inkscape:label="Ebene 1"
     inkscape:groupmode="layer"
     id="layer1"
     transform="translate(-2073.5364,-272.62329)">
    <path
       style="fill:#000000"
       d="m 2097.2243,480.55915 c -5.5006,-1.62047 -9.705,-4.43573 -10.042,-6.7241 -0.1757,-1.19349 0.1137,-2.16999 0.6431,-2.16999 1.5159,0 20.1765,-18.95999 20.1765,-20.50019 0,-1.42597 -11.9501,0.43409 -15.9725,2.48614 -8.5014,4.33712 -20.2921,1.24196 -18.2621,-4.79397 0.242,-0.71941 2.7562,-2.35291 5.5873,-3.63 6.7801,-3.05856 13.2823,-9.49271 14.6224,-14.46947 0.9939,-3.69108 0.8322,-7.27177 -1.5173,-33.59251 -0.2455,-2.75 -0.2075,-6.83775 0.084,-9.08389 0.4603,-3.5423 1.0894,-4.39334 4.7443,-6.41739 9.6024,-5.3178 12.1918,-6.35052 16.1042,-6.4228 3.4588,-0.0639 4.4713,-0.59045 6.3955,-3.32592 1.4744,-2.09616 3.1203,-3.25 4.636,-3.25 2.8755,0 5.1482,-4.30803 6.6993,-12.69876 0.5885,-3.18356 2.3431,-8.2662 3.8991,-11.29476 3.4738,-6.76145 5.9783,-15.38186 5.9832,-20.59437 0,-3.91301 3.095,-10.41211 4.9524,-10.41211 0.542,0 3.0578,-1.46071 5.5906,-3.24601 4.1934,-2.9558 4.4052,-3.2932 2.3694,-3.77381 -3.9607,-0.93498 -5.9984,-4.98539 -6.5673,-13.05411 -0.4922,-6.98053 -0.3444,-7.70362 2.4632,-12.0522 2.5965,-4.02162 3.6584,-4.78725 8.1265,-5.85911 2.8268,-0.67814 6.3423,-1.00308 7.8121,-0.7221 1.7832,0.34087 3.0734,-0.0372 3.877,-1.13622 1.1158,-1.52601 1.7804,-1.528 9.039,-0.0271 8.7344,1.8061 15.1172,4.5066 16.7044,7.06749 0.7422,1.19743 0.696,3.9935 -0.1568,9.5 -0.6647,4.29173 -1.8728,12.07815 -2.6848,17.30315 -1.8115,11.65724 -6.0612,43.79206 -8.1993,62 -2.0503,17.45972 -2.9216,21 -5.1686,21 -0.9688,0 -2.2906,0.52906 -2.9372,1.17568 -0.9009,0.90091 -0.4548,1.61404 1.9085,3.05129 2.5217,1.53352 6.2478,2.02978 20.4297,2.72088 9.54,0.4649 17.9287,0.82092 18.6415,0.79117 0.7128,-0.0298 2.421,0.0237 3.796,0.11876 2.0025,0.13845 2.2015,0.36577 1,1.14222 -1.9769,1.27755 -11.5756,1.2469 -29.9746,-0.0957 -13.0152,-0.94973 -15.6322,-0.88554 -19.6453,0.48185 -2.5464,0.86764 -4.9586,1.37432 -5.3605,1.12595 -0.4019,-0.24837 -0.5156,0.67343 -0.2528,2.04846 0.8343,4.36405 2.9577,4.69542 28.8959,4.50939 14.5739,-0.10452 24.3373,0.20097 24.3373,0.7615 0,1.32477 -46.7712,2.03194 -50.2159,0.75925 -2.295,-0.84795 -3.1153,-0.62815 -5.2939,1.41849 -2.1127,1.98477 -3.4835,2.38252 -7.5948,2.20363 -3.1489,-0.13701 -4.7861,0.15506 -4.3971,0.78444 1.0639,1.72141 -5.9779,1.11894 -10.6212,-0.90869 -3.6007,-1.57236 -5.3308,-1.7569 -9.7535,-1.04029 -2.957,0.47913 -5.657,1.15183 -6,1.49489 -0.343,0.34306 -0.641,4.52369 -0.6623,9.29028 -0.021,4.7666 -0.4124,10.95225 -0.8691,13.74589 -0.8234,5.03676 -0.8043,5.09017 2.2809,6.36808 3.5942,1.48878 4.8076,1.277 15.6269,-2.72744 4.4,-1.62853 9.8506,-3.46875 12.1124,-4.08939 l 4.1124,-1.12843 0.6953,-8.56976 c 0.7581,-9.34288 1.2695,-11.4324 2.7981,-11.4324 0.9524,0 0.7209,4.64387 -0.851,17.07569 l -0.5786,4.57568 -13.6443,4.35472 c -13.4452,4.29118 -18.954,5.17355 -22.3943,3.58698 -1.5502,-0.71492 -1.75,-0.19072 -1.75,4.59222 l 0,5.39926 13.8521,9.28079 c 12.9083,8.6485 14.1005,9.23417 17.5,8.59644 3.1974,-0.59985 3.6479,-1.04111 3.6479,-3.57307 0,-1.58879 -0.4037,-2.88871 -0.8971,-2.88871 -1.6019,0 -18.2785,-12.77344 -17.392,-13.32134 2.6381,-1.63042 37.3021,-13.27134 52.2891,-17.55981 20.3465,-5.82207 24,-6.63243 24,-5.32331 0,0.52496 -1.4625,1.23899 -3.25,1.58675 -5.6642,1.10197 -41.4993,12.61321 -60.75,19.51457 -4.675,1.67598 -8.725,3.06646 -9,3.08993 -0.275,0.0235 0.4945,0.59856 1.71,1.27795 7.4481,4.16316 13.2582,8.336 14.1275,10.1464 0.5517,1.14887 1.2207,3.68409 1.4866,5.63381 0.4779,3.50312 0.4287,3.55793 -4.1702,4.64619 -4.5468,1.0759 -4.769,1.01446 -9.6539,-2.66959 -2.75,-2.07396 -6.125,-4.34311 -7.5,-5.04255 -1.375,-0.69944 -4.975,-3.1379 -8,-5.41879 -8.5705,-6.4623 -8.2504,-6.41262 -7.4624,-1.15791 0.8157,5.43933 0.327,6.20214 -7.4973,11.70326 -3.0472,2.14239 -6.6653,4.77476 -8.0403,5.84972 -3.2271,2.52293 -6.684,3.14479 -10.7776,1.93881 z m 14.0573,-7.9669 c 10.4144,-7.24631 11.3466,-8.61861 9.7436,-14.34411 -1.2037,-4.2992 -0.8669,-11.88124 0.9539,-21.46957 0.5625,-2.96257 1.0228,-9.52784 1.0228,-14.58948 0,-8.89145 0.086,-9.24229 2.5471,-10.36351 1.4008,-0.63829 3.1823,-1.16052 3.9589,-1.16052 0.7765,0 2.9942,-0.7875 4.9283,-1.75 2.8927,-1.43956 3.5209,-2.30754 3.5411,-4.89301 0.025,-3.21615 1.3798,-4.35699 5.1735,-4.35699 2.6908,0 8.7797,-6.6137 10.473,-11.37573 1.6313,-4.58786 1.667,-4.92088 0.4469,-4.16676 -0.5122,0.31654 -2.6,-0.5569 -4.6396,-1.94099 -2.0396,-1.38408 -4.1582,-2.51652 -4.7081,-2.51652 -0.55,0 -3.1939,-1.35 -5.8755,-3 -4.8511,-2.9849 -10.1614,-3.916 -11.3516,-1.99034 -0.3432,0.55531 0.3053,2.19099 1.441,3.63485 1.1358,1.44387 2.065,3.93035 2.065,5.52553 0,2.55363 0.2303,2.77707 1.9266,1.86923 2.6014,-1.39224 10.0094,1.79268 12.9935,5.58626 3.0703,3.90329 0.8585,4.26523 -3.3711,0.55162 -1.8797,-1.65037 -4.3542,-3.29794 -5.499,-3.66128 -5.0898,-1.61543 -25.101,8.85781 -27.1321,14.20012 -0.4756,1.25086 -0.4926,5.31195 -0.038,9.02873 0.4546,3.71541 0.6142,9.55718 0.3547,12.98172 -0.2595,3.42454 0.036,9.72454 0.657,14 0.732,5.04134 0.8006,8.90737 0.1952,10.99942 -1.4073,4.86286 -8.7847,13.57844 -17.5418,20.72374 -3.667,2.99205 -4.3889,6.29323 -1.2589,5.75656 0.9425,-0.16161 1.7137,0.1429 1.7137,0.67668 0,0.53378 0.7875,1.17631 1.75,1.42783 4.8057,1.25588 7.161,0.43941 15.5297,-5.38348 z m -0.6512,-11.0759 c 1.4152,-5.4556 2.0009,-6.55525 2.9734,-5.58274 0.7722,0.77221 -2.5091,10.73145 -3.5358,10.73145 -0.4252,0 -0.1721,-2.31692 0.5624,-5.14871 z m 3.3715,-49.16016 c 0,-0.71988 0.7084,-2.18238 1.5742,-3.25 1.5194,-1.8735 1.5547,-1.85402 1.0137,0.55887 -0.3083,1.375 -0.5667,2.8375 -0.5742,3.25 -0.024,1.34178 -2.0137,0.78969 -2.0137,-0.55887 z m 11,-5.19113 c 0.6847,-0.825 2.6523,-1.46576 4.3724,-1.42392 l 3.1276,0.0761 -3.5,1.34784 c -4.6579,1.79375 -5.4887,1.79375 -4,0 z m -6.517,-3.48124 c 1.4673,-1.62137 1.5641,-2.25711 0.5326,-3.5 -0.8403,-1.01249 -0.8927,-1.51876 -0.1571,-1.51876 1.3335,0 2.5922,4.46174 1.6766,5.94316 -0.3592,0.58126 -1.3713,1.05684 -2.2491,1.05684 -1.395,0 -1.3702,-0.24949 0.197,-1.98124 z m -25.8253,47.49148 c 2.6633,-1.36936 7.0923,-2.67404 9.8423,-2.89927 2.75,-0.22523 5.3996,-0.45484 5.8879,-0.51024 0.503,-0.0571 0.5681,-3.46035 0.1502,-7.85073 -1.321,-13.87605 -1.5916,-35.61412 -0.4762,-38.25 1.7466,-4.12752 11.7048,-11.07957 19.1881,-13.39561 2.558,-0.7917 2.3061,-6.63038 -0.412,-9.54791 -1.9863,-2.13207 -2.7491,-2.27625 -9.3861,-1.7743 -5.7169,0.43237 -8.7603,1.33436 -14.5879,4.32357 -4.0502,2.07746 -7.723,4.25354 -8.1618,4.83573 -0.4388,0.58219 -0.5161,3.30852 -0.1718,6.05852 0.3443,2.75 0.7869,6.8 0.9835,9 0.4738,5.30059 1.1924,12.6098 1.9811,20.15299 0.928,8.87429 -0.7455,13.48266 -6.9236,19.06614 -2.7893,2.52078 -6.9653,5.42801 -9.28,6.46052 -5.1802,2.31069 -6.1475,3.72115 -3.753,5.47205 2.9279,2.14095 9.7349,1.62704 15.1193,-1.14146 z m -1.6577,-8.35445 c 0,-0.45385 1.3461,-2.02458 2.9913,-3.49049 2.9202,-2.60183 5.047,-3.42132 4.9707,-1.9153 -0.053,1.04896 -7.962,6.41872 -7.962,5.40579 z m 13.2103,-19.15579 c -1.7704,-5.54984 -2.2783,-11.24971 -1.2923,-14.5 0.8111,-2.67366 0.9201,-2.40171 1.0016,2.5 0.05,3.025 0.5676,7.21432 1.1494,9.30961 1.3665,4.92069 0.6093,7.29266 -0.8587,2.69039 z m -4.9603,-22.14211 c -1.6395,-1.64981 -1.5827,-3.33689 0.161,-4.784 1.796,-1.49058 2.3878,-0.33811 1.6606,3.234 -0.4583,2.2514 -0.8193,2.55859 -1.8216,1.55 z m 1.933,-10.16305 c -2.2631,-2.40904 -2.8719,-4.69484 -1.2504,-4.69484 0.5129,0 1.2051,0.85843 1.5381,1.90762 1.0346,3.25974 3.1728,3.08938 7.4781,-0.59583 5.141,-4.40046 6.1539,-3.86532 1.8012,0.9516 -4.2949,4.75304 -6.7902,5.38721 -9.567,2.43145 z m 47.9769,19.62647 c -0.6516,-1.16443 -2.4283,-1.73511 -5.7996,-1.86285 l -4.8603,-0.18417 4,1.78869 c 5.3565,2.39527 7.9113,2.49437 6.6599,0.25833 z m 13.6325,-2.07131 c 1.8588,-1.61517 1.9298,-2.23077 0.9221,-7.98988 -1.0309,-5.89102 -0.9389,-6.56192 1.6457,-12 2.6915,-5.66322 6.3489,-17.61397 7.3509,-24.01939 0.2804,-1.7926 0.8629,-3.47746 1.2944,-3.74413 0.4315,-0.26668 0.3575,-2.3853 -0.1643,-4.70805 -1.3076,-5.81945 -0.46,-8.22592 3.7781,-10.72643 1.998,-1.17887 3.763,-2.0126 3.9222,-1.85276 0.1592,0.15985 -0.3943,1.86564 -1.2301,3.79064 -1.3411,3.08889 -1.6064,3.2677 -2.2585,1.5223 -0.7214,-1.93109 -0.7661,-1.92675 -1.8959,0.18426 -1.2925,2.41516 -1.5673,7.31341 -0.407,7.25693 1.7292,-0.0842 6.8666,-9.91025 8.338,-15.94761 1.5496,-6.35852 1.5391,-6.53487 -0.4347,-7.30199 -1.1125,-0.43236 -2.6783,-0.53455 -3.4795,-0.2271 -1.2077,0.46344 -1.2374,0.29482 -0.1741,-0.98648 0.745,-0.8976 2.0619,-1.29815 3.1415,-0.9555 1.6013,0.50825 1.8588,0.0331 1.8588,-3.43037 0,-4.25692 -1.7948,-9.35931 -3.0248,-8.59913 -0.4027,0.24892 -2.0244,-0.16924 -3.6037,-0.92925 -8.0674,-3.8823 -10.9976,-2.41232 -10.6311,5.33333 0.1322,2.79433 0.2846,6.09311 0.3386,7.33061 0.054,1.2375 -0.8666,6.00011 -2.0458,10.58357 -1.1793,4.58347 -1.9363,8.85847 -1.6822,9.5 0.2541,0.64154 0.7853,-0.29607 1.1805,-2.08357 0.3952,-1.7875 1.1623,-3.25 1.7048,-3.25 1.3119,0 0,7.1885 -1.5492,8.51141 -4.7064,4.00991 -7.6576,12.47734 -7.731,22.18141 -0.024,3.19395 -0.6924,7.60718 -1.4849,9.80718 -0.7926,2.2 -1.4438,4.675 -1.4471,5.5 0,0.825 -1.4544,2.69033 -3.2245,4.14518 -2.678,2.20094 -3.009,2.89763 -1.9709,4.14845 0.6862,0.82679 1.1449,3.02852 1.0194,4.89272 -0.1256,1.8642 0.1088,3.93489 0.5208,4.60155 1.1546,1.86808 9.0843,1.49468 11.4235,-0.5379 z m -7.7924,-4.08333 c 0,-0.45834 1.35,-0.83334 3,-0.83334 1.65,0 3,0.375 3,0.83334 0,0.45833 -1.35,0.83333 -3,0.83333 -1.65,0 -3,-0.375 -3,-0.83333 z m 1.75,-8.91593 c -0.9625,-0.21856 -1.75,-0.81439 -1.75,-1.32406 0,-1.20811 3.7102,-1.2046 4.4573,0.004 0.7487,1.2115 -0.5011,1.82082 -2.7073,1.31984 z m 5.2804,-25.1253 c -0.035,-2.71169 9.5125,-12.67407 10.545,-11.00351 0.3439,0.55652 -1.3841,2.89426 -3.84,5.19497 -2.456,2.3007 -4.9625,5.0831 -5.57,6.1831 -1.0586,1.91669 -1.1058,1.90108 -1.135,-0.37456 z m 7.7631,-14.87544 c -0.6938,-3.43842 2.7473,-15.23687 5.1087,-17.51592 2.0909,-2.01802 2.2189,-2.04066 1.323,-0.23408 -3.1203,6.29196 -5.7667,16.81486 -4.6735,18.58357 0.3115,0.50404 0.1228,0.91643 -0.4194,0.91643 -0.5421,0 -1.1446,-0.7875 -1.3388,-1.75 z m -0.2846,-21.5 c 0.1297,-1.2375 0.307,-3.375 0.3939,-4.75 0.133,-2.104 0.3108,-2.23838 1.1223,-0.84833 1.0225,1.75154 0.2352,7.84833 -1.0136,7.84833 -0.4061,0 -0.6323,-1.0125 -0.5026,-2.25 z m 9.5133,-6.5 c 0.012,-0.4125 0.8815,-1.86828 1.9316,-3.23506 2.4907,-3.24156 3.8102,-1.93068 1.3945,1.38524 -1.8061,2.47906 -3.3705,3.34912 -3.3261,1.84982 z m -31.3368,76.76658 c 1.5563,-3.13764 -0.2812,-4.50096 -4.1062,-3.04669 -1.8564,0.70579 -2.5792,1.70678 -2.5792,3.57178 0,2.23209 0.3779,2.54733 2.7268,2.27475 1.7107,-0.19851 3.1859,-1.24185 3.9586,-2.79984 z m 18.4367,-7.69158 c -0.8716,-1.49877 -1.0667,-1.54197 -1.0917,-0.24167 -0.032,1.68408 1.0192,3.2004 1.7279,2.49167 0.2338,-0.23375 -0.053,-1.24625 -0.6362,-2.25 z m 4.5866,-2.99135 c -1.2148,-1.91947 -2.6525,-3.56728 -3.195,-3.6618 -1.8154,-0.31632 -1.5554,2.79443 0.5155,6.16763 1.6577,2.70009 2.3219,3.114 3.4693,2.1618 1.2085,-1.003 1.0914,-1.69534 -0.7898,-4.66763 z m 7.2913,3.20153 c 0,-0.25565 -1.0125,-1.00432 -2.25,-1.66372 -2.0402,-1.08712 -2.122,-1.04378 -0.8776,0.46482 1.2779,1.54902 3.1276,2.25809 3.1276,1.1989 z m -2.8997,-9.47573 c 1.2382,-4.13253 0.4205,-15.05945 -1.1269,-15.05945 -0.4855,0 -1.1887,1.6875 -1.5627,3.75 -0.3739,2.0625 -1.3443,5.44024 -2.1563,7.50609 -1.3292,3.38151 -1.3114,4.00799 0.1785,6.28187 2.0394,3.11251 3.1726,2.51075 4.6674,-2.47851 z m 5.3072,-4.33276 c 0.2877,-2.32468 1.2326,-10.30169 2.0998,-17.72669 0.8671,-7.425 1.805,-14.4 2.0842,-15.5 0.3904,-1.53805 -0.086,-1.30707 -2.0632,1 -1.414,1.65 -2.7517,3.9 -2.9725,5 -0.2209,1.1 -1.0596,4.91907 -1.8639,8.48682 -1.031,4.57349 -1.1721,7.22809 -0.4784,9 0.5411,1.38225 0.9334,5.35599 0.8717,8.83054 -0.1255,7.06843 1.4822,7.69794 2.3223,0.90933 z m -24.4075,-2.65407 c 0,-1.36214 -1.67,-2.7174 -5.6943,-4.62122 -5.8899,-2.78636 -13.3422,-4.3789 -13.2573,-2.83307 0.043,0.78714 16.3434,9.12187 18.2016,9.30696 0.4125,0.0411 0.75,-0.79261 0.75,-1.85267 z m 0,-5.99225 c 0,-1.42173 -1.3294,-2.3612 -5.1255,-3.62207 -3.2426,-1.07701 -5.3049,-2.3882 -5.6137,-3.56912 -0.638,-2.43947 -2.2608,-1.40259 -2.2608,1.44448 0,1.726 1.2707,2.79623 5.75,4.84294 7.1037,3.24585 7.25,3.26409 7.25,0.90377 z m -24.3549,-2.55701 4.1451,0.0234 2.2176,-6.28186 c 1.2198,-3.45502 3.1053,-7.41024 4.1902,-8.78939 1.5294,-1.94434 1.8276,-3.36444 1.3278,-6.32281 -0.434,-2.56854 -0.092,-5.19734 1.0477,-8.04466 1.3442,-3.35968 1.4593,-4.74066 0.5594,-6.71574 -2.2968,-5.04083 -0.5827,-12.67139 4.0252,-17.91959 3.0995,-3.53016 7.8419,-4.807 7.8419,-2.11138 0,0.88786 -0.8135,1.20582 -2.3389,0.91421 -1.7184,-0.32848 -3.0468,0.39407 -5.0067,2.72335 -1.4673,1.74375 -2.4324,3.55126 -2.1448,4.01668 0.2877,0.46543 0.066,1.12888 -0.4933,1.47435 -0.559,0.34546 -1.0163,2.18317 -1.0163,4.08379 0,2.82558 0.5926,3.817 3.25,5.43725 3.0199,1.84126 3.0818,1.98183 0.875,1.9853 -2.1051,0.003 -2.3068,0.34472 -1.775,3.00374 0.4328,2.16375 0.2187,3 -0.768,3 -1.1421,0 -2.582,1.9974 -2.582,3.58179 0,0.23001 1.125,0.41821 2.5,0.41821 2.2326,0 2.5,-0.41072 2.5,-3.83924 0,-3.64165 0.1549,-3.83002 3.01,-3.66016 2.751,0.16365 2.8801,0.0355 1.5,-1.48951 -0.8305,-0.91771 -1.4578,-3.20814 -1.394,-5.08983 0.071,-2.10663 0.3072,-2.66877 0.6134,-1.46294 0.8559,3.3694 3.3341,6.40489 5.5966,6.85513 l 2.174,0.43265 -2.276,0.75037 -2.2759,0.75037 2.0666,3.50261 c 1.1366,1.92644 1.8158,3.7534 1.5093,4.05992 -0.7229,0.72285 -2.4509,-1.0298 -3.9193,-3.97519 -1.7058,-3.42146 -4.0447,-2.95452 -4.4155,0.88151 -0.2604,2.69472 0.083,3.31442 2.1175,3.82515 3.0004,0.75305 7.606,6.45916 5.2135,6.45916 -0.8469,0 -2.3104,-0.9 -3.2522,-2 -0.9419,-1.1 -2.2671,-2 -2.9449,-2 -1.7461,0 -2.7333,6.36508 -1.3794,8.8947 0.7451,1.39229 0.7761,2.1053 0.091,2.1053 -0.5694,0 -1.0352,0.9 -1.0352,2 0,1.11111 -0.6667,2 -1.5,2 -1.8601,0 -1.8581,-0.94281 0.01,-3.40766 1.2627,-1.66845 1.2547,-2.04585 -0.064,-3.00978 -1.2385,-0.90563 -1.3046,-1.68352 -0.3704,-4.36323 1.2042,-3.45342 0.059,-6.21933 -2.5743,-6.21933 -0.9717,0 -1.0311,1.07632 -0.2621,4.75 0.5468,2.6125 1.4474,5.3125 2.0012,6 0.7252,0.90014 0.5529,1.25 -0.6155,1.25 -2.2093,0 -2.1207,4.27387 0.1276,6.15165 1.8677,1.55996 7.331,4.11485 7.7746,3.63579 0.7765,-0.83852 2.1946,-7.73195 1.5026,-7.30428 -1.4541,0.89871 -2.0555,-2.56285 -0.8349,-4.8056 l 1.1851,-2.17756 0.5613,2.30836 c 0.5594,2.30046 0.5668,2.29875 2.1578,-0.5 0.8781,-1.5446 1.6839,-4.89877 1.7907,-7.45372 0.1068,-2.55496 1.0249,-7.50496 2.0404,-11 2.8738,-9.8914 2.9309,-10.81201 0.5482,-8.83458 -2.1418,1.77755 -3.1266,0.36084 -1.2261,-1.76393 0.8639,-0.96587 1.5697,-3.33113 1.5684,-5.25613 0,-1.925 0.1516,-4.175 0.3398,-5 0.2337,-1.02456 -0.4503,-1.5 -2.1579,-1.5 -2.0402,0 -2.4519,0.4381 -2.2384,2.38208 0.2221,2.02238 0.033,2.19265 -1.25,1.12756 -0.8314,-0.68999 -1.5116,-1.79839 -1.5116,-2.46311 0,-2.00223 4.6257,-3.87139 7.9402,-3.20849 1.7393,0.34786 3.0598,0.1912 3.0598,-0.36304 0,-1.20992 4.2566,-1.28976 5.55,-0.10411 0.5225,0.47899 2.1984,1.16529 3.7242,1.52512 2.4732,0.58324 2.6532,0.46164 1.6593,-1.1209 -0.6131,-0.97631 -2.6366,-2.90011 -4.4966,-4.27511 -3.4154,-2.52479 -4.3011,-4 -2.4017,-4 0.6776,0 0.6376,-0.74292 -0.116,-2.15093 -0.7692,-1.4374 -0.9251,-4.74184 -0.4698,-9.96118 0.7476,-8.5707 -0.7103,-13.55636 -4.8023,-16.4225 -4.3495,-3.04656 -13.3037,-1.00966 -16.0579,3.6529 -2.5297,4.28239 -3.1239,14.55104 -1.1143,19.25469 1.6165,3.78352 1.7514,3.86015 5.8399,3.31758 3.1169,-0.41363 4.8871,-1.39256 6.9352,-3.8352 2.5162,-3.00099 2.75,-3.09175 2.75,-1.06759 0,2.71161 -3.3232,6.21223 -5.8974,6.21223 -1.4922,0 -1.866,0.67149 -1.75,3.14344 0.089,1.89124 -0.406,3.33716 -1.2418,3.62974 -0.8031,0.28113 -1.1126,0.0388 -0.7337,-0.57435 1.4073,-2.27699 -1.3028,-2.05595 -3.5257,0.28756 -1.2933,1.36348 -3.0838,2.48683 -3.979,2.49633 -2.4546,0.0261 -3.9945,2.46145 -4.5702,7.22806 -0.285,2.35907 -1.1883,6.31422 -2.0074,8.78922 -0.8361,2.52624 -1.4373,7.67994 -1.3707,11.75 0.071,4.34511 -0.2906,7.25 -0.9027,7.25 -0.5618,0 -1.0354,-1.6875 -1.0526,-3.75 l -0.031,-3.75 -2.2945,3.7312 c -1.2619,2.05215 -3.0856,7.4131 -4.0526,11.9132 -2.0394,9.49044 -3.8976,12.8556 -7.0985,12.8556 -1.2529,0 -2.5392,0.68056 -2.8584,1.51237 -0.4693,1.22306 -0.059,1.36653 2.143,0.75 1.4979,-0.41931 4.5887,-0.75186 6.8685,-0.73901 z m 27.3549,-37.42554 c 0,-0.49619 1.35,-1.37278 3,-1.94798 3.6485,-1.27188 4.0082,0.0698 0.453,1.68964 -3.0661,1.397 -3.453,1.42595 -3.453,0.25834 z m -5,-7.18047 c 0,-0.46584 0.8704,-1.31282 1.9343,-1.88217 2.1439,-1.1474 6.7961,-1.43225 5.7137,-0.34984 -1.2286,1.22864 -7.648,3.10208 -7.648,2.23201 z m -1,-2.91735 c 0,-0.55 0.45,-1 1,-1 0.55,0 1,0.45 1,1 0,0.55 -0.45,1 -1,1 -0.55,0 -1,-0.45 -1,-1 z m 8,-12.87588 c 0,-1.98655 1.975,-6.12412 2.9232,-6.12412 0.614,0 0.5868,1.10723 -0.074,3.00184 -1.0498,3.01151 -2.8495,4.98348 -2.8495,3.12228 z m 7,-0.37397 c 0,-0.89767 0.4799,-1.92874 1.0665,-2.29127 1.715,-1.05993 1.8833,-0.11074 0.3517,1.98382 -1.1861,1.62209 -1.4182,1.67241 -1.4182,0.30745 z m -27.3377,55.99985 c -0.2774,-0.6875 -0.5044,-0.125 -0.5044,1.25 0,1.375 0.227,1.9375 0.5044,1.25 0.2774,-0.6875 0.2774,-1.8125 0,-2.5 z m 3.6022,-6.84648 c -0.643,-2.45903 -1.0712,-2.06426 -2.2611,2.08467 -0.8988,3.13382 -0.8631,3.19485 0.9224,1.57899 1.1163,-1.01027 1.6504,-2.47185 1.3387,-3.66366 z m 48.7242,-71.3513 c 0.9445,-6.1897 0.8666,-7.13923 -0.7143,-8.70238 -1.8705,-1.84957 -19.7446,-6.29529 -21.3418,-5.30819 -1.4949,0.92388 -1.089,2.66302 1.187,5.08565 1.8931,2.0151 2.1399,3.55282 2.3092,14.38979 l 0.1897,12.13359 3.0557,2.39141 c 1.6806,1.31528 3.6446,3.86888 4.3644,5.67466 0.7199,1.80579 2.1307,4.08828 3.1351,5.0722 1.0045,0.98393 1.8651,3.00893 1.9125,4.5 0.075,2.37127 1.0648,-3.53541 5.9024,-35.23673 z m -8.9218,21.75983 c -0.037,-0.65337 0.5854,-4.02837 1.3825,-7.5 0.7972,-3.47163 1.7593,-9.79955 2.138,-14.06205 0.3786,-4.2625 1.0764,-7.75 1.5505,-7.75 1.15,0 1.1107,0.6986 -0.6684,11.88067 -1.4222,8.93909 -4.2503,20.13631 -4.4026,17.43138 z m -16.6938,116.53298 c 0.7474,-8.44395 2.2372,-14.48616 3.8119,-15.45937 1.1392,-0.70407 1.069,0.26508 -1.0408,14.36434 -0.4873,3.25644 -0.4183,5.25 0.1817,5.25 0.532,0 5.2498,-1.37182 10.484,-3.0485 5.2343,-1.67667 13.6058,-4.12517 18.6035,-5.4411 4.9976,-1.31594 10.0991,-2.6966 11.3366,-3.06814 1.6675,-0.50064 2.25,-0.2674 2.25,0.90097 0,1.70529 0.3047,1.60295 -21.5,7.22235 -7.7,1.98441 -15.9927,4.24396 -18.4281,5.02122 -2.4355,0.77726 -4.8565,1.4132 -5.3801,1.4132 -0.5729,0 -0.6998,-2.84896 -0.3187,-7.15497 z"
       id="path3074"
       inkscape:connector-curvature="0" />
  </g>
</svg>
