<?xml version="1.0" encoding="UTF-8" standalone="no"?>
<!-- Created with Inkscape (http://www.inkscape.org/) -->

<svg
   xmlns:dc="http://purl.org/dc/elements/1.1/"
   xmlns:cc="http://creativecommons.org/ns#"
   xmlns:rdf="http://www.w3.org/1999/02/22-rdf-syntax-ns#"
   xmlns:svg="http://www.w3.org/2000/svg"
   xmlns="http://www.w3.org/2000/svg"
   xmlns:sodipodi="http://sodipodi.sourceforge.net/DTD/sodipodi-0.dtd"
   xmlns:inkscape="http://www.inkscape.org/namespaces/inkscape"
   width="162.72656"
   height="206.20009"
   id="svg2"
   version="1.1"
   inkscape:version="0.48.3.1 r9886"
   sodipodi:docname="Incline-pushdown-2.svg">
  <defs
     id="defs4" />
  <sodipodi:namedview
     id="base"
     pagecolor="#ffffff"
     bordercolor="#666666"
     borderopacity="1.0"
     inkscape:pageopacity="0.0"
     inkscape:pageshadow="2"
     inkscape:zoom="1.4"
     inkscape:cx="-97.328668"
     inkscape:cy="70.418345"
     inkscape:document-units="px"
     inkscape:current-layer="layer1"
     showgrid="false"
     fit-margin-top="0"
     fit-margin-left="0"
     fit-margin-right="0"
     fit-margin-bottom="0"
     inkscape:window-width="1855"
     inkscape:window-height="1056"
     inkscape:window-x="65"
     inkscape:window-y="24"
     inkscape:window-maximized="1" />
  <metadata
     id="metadata7">
    <rdf:RDF>
      <cc:Work
         rdf:about="">
        <dc:format>image/svg+xml</dc:format>
        <dc:type
           rdf:resource="http://purl.org/dc/dcmitype/StillImage" />
        <dc:title></dc:title>
      </cc:Work>
    </rdf:RDF>
  </metadata>
  <g
     inkscape:label="Ebene 1"
     inkscape:groupmode="layer"
     id="layer1"
     transform="translate(-763.92825,-689.33435)">
    <path
       style="fill:#000000"
       d=""
       id="path3414"
       inkscape:connector-curvature="0" />
    <path
       style="fill:#000000"
       d=""
       id="path3412"
       inkscape:connector-curvature="0" />
    <path
       style="fill:#000000"
       d="m 823.16383,886.7623 c -2.25056,-1.442 -3.28676,-3.016 -3.71247,-5.6394 -0.3248,-2.0015 -0.34797,-4.0316 -0.0515,-4.5113 0.29648,-0.4797 4.52117,-2.8722 9.38819,-5.3165 l 8.84912,-4.4443 -0.50675,-15.2773 c -0.27871,-8.40252 -0.66884,-15.80771 -0.86696,-16.45599 -0.3211,-1.05068 -11.9285,-9.3213 -13.08198,-9.3213 -0.25456,0 -5.00729,-2.7451 -10.56163,-6.10021 -8.34532,-5.04102 -10.46649,-5.93032 -12.21645,-5.12171 -1.16471,0.53818 -11.48758,5.34662 -22.93972,10.68541 l -20.82206,9.70689 -3.92792,-2.59938 c -3.47441,-2.29925 -3.92793,-3.05773 -3.92793,-6.56916 0,-3.822 0.21405,-4.08026 5.75,-6.93771 3.56249,-1.83882 4.98913,-2.99469 3.75,-3.03827 -1.1,-0.0387 -3.11707,-0.92864 -4.48238,-1.97768 -1.74813,-1.34319 -2.84567,-1.60584 -3.71062,-0.88801 -2.75804,2.28897 -9.80962,1.22895 -17.38477,-2.61334 -9.19793,-4.66541 -9.9505,-5.27317 -9.80623,-7.91927 0.0887,-1.62757 0.22161,-1.72597 0.5654,-0.4187 1.03756,3.94534 18.21378,11.27663 23.91418,10.20723 1.87243,-0.35127 3.40442,-0.76766 3.40442,-0.92531 0,-0.15765 -1.11958,-2.24507 -2.48795,-4.63871 -1.36838,-2.39364 -2.47174,-5.02707 -2.4519,-5.85207 0.0198,-0.825 1.36735,1.07906 2.99449,4.23123 3.8022,7.36581 6.5238,9.18911 12.68051,8.49515 7.86667,-0.88668 11.74427,-7.91461 11.71148,-21.22638 -0.0286,-11.6149 -4.5308,-21.42368 -11.48371,-25.01917 -2.39348,-1.23772 -3.1836,-1.24773 -5.45536,-0.0691 -1.56395,0.81138 -2.2146,1.65132 -1.58203,2.04227 0.59096,0.36523 1.06446,1.2 1.05223,1.85504 -0.0122,0.65505 -0.82022,0.15389 -1.79553,-1.11368 l -1.77331,-2.30467 -1.85733,2.05234 c -1.02154,1.12878 -2.67386,4.41588 -3.67182,7.30467 -0.99796,2.88878 -1.82917,4.3161 -1.84712,3.17181 -0.018,-1.14429 1.09047,-4.29429 2.46316,-7 1.3727,-2.70572 2.4977,-5.04236 2.5,-5.19254 0.002,-0.15017 -1.09423,0.44667 -2.43675,1.32632 -1.34252,0.87965 -2.6251,2.80252 -2.85017,4.27305 -0.38119,2.49052 -0.41949,2.45943 -0.55906,-0.45387 -0.17226,-3.59573 1.48205,-5.33845 5.51713,-5.81195 1.55817,-0.18285 3.28304,-0.39095 3.83304,-0.46244 0.55,-0.0715 -0.55568,-1.50092 -2.45707,-3.1765 -2.06244,-1.81751 -4.18037,-2.85737 -5.25,-2.57765 -0.98611,0.25787 -1.79293,0.061 -1.79293,-0.43752 0,-2.10459 5.32206,-0.73817 8.15364,2.09342 2.29166,2.29165 3.57643,2.85507 5.44249,2.38672 5.35488,-1.34399 11.03112,3.48791 14.34119,12.20796 l 1.60326,4.22362 12.97971,-4.96058 c 20.16333,-7.70603 27.47739,-11.15363 27.47862,-12.95253 10e-4,-2.1027 2.69704,-4.35171 6.91325,-5.7679 4.87376,-1.63705 4.94625,-0.69772 0.0959,1.243 -3.95866,1.58394 -4.89569,2.64842 -5.4088,6.14445 -0.24082,1.64076 -17.79869,9.07108 -34.74427,14.70344 -4.96661,1.65079 -6.83828,2.75051 -6.84532,4.02202 -0.012,2.17515 -0.16882,2.18535 5.6574,-0.36814 2.65812,-1.16498 8.43293,-3.35793 12.83293,-4.87322 4.4,-1.5153 11.78176,-4.16214 16.4039,-5.88186 9.2764,-3.4514 9.44144,-3.49457 8.6858,-2.27192 -0.29058,0.47017 -3.89246,2.08183 -8.00417,3.58145 -4.11171,1.49963 -7.99456,3.35161 -8.62855,4.11553 -0.63399,0.76391 -1.22117,3.65177 -1.30485,6.41746 -0.0837,2.76569 -0.44149,5.02901 -0.79514,5.02961 -1.35006,0.002 -1.76405,-3.17308 -0.96871,-7.43029 l 0.8271,-4.42725 -4.60769,1.7795 c -2.53423,0.97872 -7.80912,3.01905 -11.72198,4.53405 l -7.11428,2.75456 -0.52523,7.66296 c -0.55774,8.13717 -2.56908,14.24567 -5.83554,17.72265 -1.09663,1.16732 -5.46265,3.87346 -9.70227,6.01365 -4.23961,2.14019 -8.02717,4.33752 -8.41678,4.88295 -1.914,2.67946 2.48918,9.41494 6.20839,9.49689 1.66157,0.0366 42.98785,-19.19205 42.9595,-19.98858 -0.01,-0.275 -2.74205,-2.47803 -6.07168,-4.89562 l -6.05389,-4.39561 -3.54077,1.68848 c -1.94743,0.92866 -3.76821,1.46103 -4.04619,1.18305 -0.27798,-0.27798 0.67773,-1.0445 2.1238,-1.70337 1.44608,-0.65888 2.62923,-1.53441 2.62923,-1.94562 0,-0.41121 -2.02419,-2.02648 -4.49821,-3.58949 -2.47402,-1.563 -4.49902,-3.23421 -4.5,-3.71379 -9.8e-4,-0.47959 1.01071,-0.1534 2.24821,0.72486 1.2375,0.87826 4.725,3.04803 7.75,4.82171 3.025,1.77368 8.425,5.08577 12,7.36021 3.575,2.27444 11.27483,6.67544 17.11073,9.77999 5.8359,3.10456 11.1785,6.32877 11.87244,7.16492 0.69395,0.83615 1.72755,1.52028 2.2969,1.52028 0.56935,0 3.32675,1.72819 6.12756,3.84043 13.67831,10.31556 17.20482,10.49216 33.51614,1.67847 8.74392,-4.72472 9.95146,-6.5189 4.38741,-6.5189 -2.82873,0 -4.84826,-0.81832 -7.58334,-3.0728 -2.05031,-1.69005 -3.72784,-3.72618 -3.72784,-4.52475 0,-0.79858 -1.0279,-1.84276 -2.28421,-2.32041 -3.15891,-1.20101 -14.54026,0.17381 -18.41613,2.2246 -4.38443,2.31988 -7.41098,2.09608 -17.29966,-1.27924 -9.84613,-3.3608 -7.88005,-3.93793 3.5,-1.0274 11.8477,3.03013 16.5,2.33196 16.5,-2.47617 0,-1.32319 0.44933,-2.6835 0.9985,-3.0229 0.57603,-0.35601 0.89336,0.35946 0.75,1.69098 -0.22269,2.06833 0.11507,2.27561 3.2515,1.99545 1.925,-0.17195 5.3375,-0.38727 7.58333,-0.47848 3.76783,-0.15302 4.08334,-0.38256 4.08334,-2.97069 0,-1.54267 0.49982,-3.30468 1.11071,-3.91557 0.81429,-0.81429 0.95611,-0.51947 0.53138,1.1047 -0.37124,1.41962 0.19104,3.25742 1.56535,5.11627 1.51157,2.04451 1.69911,2.72987 0.63529,2.32164 -3.75419,-1.44061 0.50396,4.85509 5.12974,7.58437 5.05671,2.98352 8.39594,2.64116 12.16469,-1.24721 2.83715,-2.92719 3.19617,-3.93936 3.19617,-9.0109 0,-8.08746 -4.30647,-16.6444 -9.87705,-19.62569 -1.26183,-0.67531 -2.06924,-1.45284 -1.79424,-1.72784 0.275,-0.275 1.39203,-0.0226 2.48229,0.56089 1.69021,0.90457 2.07432,0.69422 2.60686,-1.42761 0.73731,-2.93767 -1.57969,-7.9523 -4.36247,-9.4416 -1.05815,-0.5663 -3.04285,-1.02964 -4.41046,-1.02964 l -2.48655,0 2.42081,4.55291 c 2.92442,5.50008 3.0242,7.05604 0.49492,7.71746 -1.05924,0.277 -3.1145,2.84923 -4.56724,5.71606 -1.45273,2.86684 -2.86747,4.9863 -3.14386,4.70991 -0.69016,-0.69016 3.31058,-8.37298 4.8727,-9.35729 0.84977,-0.53545 0.2807,-1.00585 -1.73571,-1.43474 l -3,-0.63809 3.34615,-0.77734 c 3.09768,-0.71962 3.30209,-1.00797 2.7527,-3.88311 -0.7793,-4.07841 -6.31417,-9.14218 -10.94156,-10.01028 -4.55946,-0.85536 -9.30073,1.16017 -8.8481,3.76136 0.24749,1.42227 -0.0519,1.58941 -1.5,0.83752 -1.25618,-0.65223 -3.03441,-0.41091 -5.81754,0.7895 -5.11738,2.2072 -6.71599,4.18468 -7.56075,9.35267 l -0.68057,4.16346 -0.12516,-4.17327 c -0.0944,-3.14908 0.51019,-4.92837 2.46372,-7.25 1.4239,-1.6922 3.23673,-3.07673 4.02852,-3.07673 0.79179,0 4.18603,-1.38638 7.54274,-3.08084 l 6.10311,-3.08085 -2.88163,-1.75709 c -4.10452,-2.50277 -5.78972,-4.71098 -4.29851,-5.63259 0.66555,-0.41133 1.58229,-0.011 2.10218,0.91801 0.50708,0.90608 2.69782,2.55341 4.86833,3.66072 2.1705,1.10731 3.94637,2.34458 3.94637,2.74949 0,0.98216 7.3118,3.22315 10.51637,3.22315 7.51912,0 13.11932,5.62313 12.07907,12.12851 -0.34049,2.12932 -0.21624,3.87149 0.27611,3.87149 0.49235,0 1.17722,0.7875 1.52192,1.75 0.34471,0.9625 1.73368,3.55 3.0866,5.75 4.79462,7.79659 4.08356,16.02727 -1.90169,22.01253 -1.39241,1.39241 -3.00043,3.40757 -3.57337,4.47812 -1.20979,2.2605 -12.88959,8.37916 -21.34049,11.17957 -5.57206,1.84644 -6.0686,1.8577 -11,0.24944 -2.84048,-0.92636 -5.72702,-2.12985 -6.41452,-2.67442 -0.98925,-0.78359 -1.25,2.37095 -1.25,15.12232 l 0,16.1124 -9.05803,4.5492 c -9.01918,4.5297 -9.05671,4.5643 -8.75,8.0587 0.23176,2.6405 1.0591,3.983 3.34115,5.4217 l 3.03311,1.9122 22.46689,-10.5482 c 12.35678,-5.8015 22.74556,-10.8464 23.08617,-11.2109 0.34061,-0.3645 0.41602,-2.2462 0.16757,-4.1816 -0.33688,-2.6243 -1.30366,-4.0774 -3.80284,-5.7156 l -3.35112,-2.1967 -7.56645,3.4959 -7.56645,3.4959 -0.0304,4.2197 c -0.0248,3.4411 -0.22466,3.8858 -1.08304,2.4101 -0.99778,-1.7152 -0.42061,-21.48963 0.65874,-22.56898 0.25009,-0.25009 0.45471,2.77029 0.45471,6.71198 0,3.9416 0.23488,7.1666 0.52196,7.1666 0.28707,0 3.49932,-1.35 7.13831,-3 7.73363,-3.5066 8.19438,-3.5534 12.28664,-1.25 3.4084,1.9186 4.36992,4.2272 3.87677,9.3082 -0.32127,3.31 -0.49473,3.4149 -23.32368,14.1014 -12.65,5.9216 -23.45,10.7756 -24,10.7867 -0.55,0.011 -2.40487,-0.8801 -4.12194,-1.9802 z m 23.95326,-59.43863 c -6.2959,-2.42376 -11.71341,-5.47871 -10.99309,-6.19903 0.22036,-0.22035 4.0198,1.1906 8.44321,3.13546 4.42341,1.94486 9.68372,3.53611 11.68958,3.53611 2.1767,0 3.39785,0.40316 3.02898,1 -1.00151,1.62048 -5.57054,1.06757 -12.16868,-1.47254 z m -40.46911,-18.14584 c -2.94921,-1.99011 -5.91707,-4.31566 -6.59522,-5.1679 -1.46906,-1.84615 -0.7938,-9.29431 1.19053,-13.13157 1.66375,-3.21735 13.30805,-17.27365 15.26237,-18.42381 3.33455,-1.96248 2.17546,0.62229 -2.48765,5.54741 -8.32611,8.79395 -9.81973,11.03667 -11.56146,17.35985 -2.03319,7.38131 -2.06659,8.4344 -0.26753,8.4344 1.36492,0 11.73141,8.88108 10.45896,8.96029 -0.35078,0.0218 -3.05078,-1.58856 -6,-3.57867 z m -42.77795,1.49411 c -0.0463,-0.34335 0.59074,-2.53743 1.41574,-4.87573 2.43172,-6.89223 1.97002,-18.88301 -1.00941,-26.21543 -1.38017,-3.39664 -3.48362,-7.2127 -4.67431,-8.48013 -1.1907,-1.26744 -1.66711,-2.30444 -1.05869,-2.30444 0.60842,0 2.07425,1.35947 3.2574,3.02106 6.20954,8.72048 8.3259,26.17474 4.24127,34.97894 -1.14826,2.475 -2.12566,4.21908 -2.172,3.87573 z m 83.91574,-5.96072 c -0.825,-1.87826 -2.5125,-3.85922 -3.75,-4.40214 -2.52161,-1.10629 -2.99118,-2.51287 -0.83889,-2.51287 0.7761,0 2.54547,1.34812 3.93193,2.99583 l 2.52082,2.99583 2.31807,-4.65248 c 1.27494,-2.55887 3.13899,-4.86821 4.14233,-5.13188 1.39381,-0.36628 1.6827,-1.09619 1.22431,-3.09335 l -0.59995,-2.61395 2.00345,2.5 c 2.16403,2.70036 2.68826,4.51378 1.00395,3.47282 -1.90758,-1.17895 -5.85651,2.46302 -7.07296,6.52314 -0.6598,2.20222 -1.54541,4.00404 -1.96802,4.00404 -0.42262,0 -0.91389,0.74925 -1.09172,1.66501 -0.21724,1.11874 -0.81545,0.54458 -1.82332,-1.75 z m -116.36163,-3.41501 c -0.31658,-0.825 -0.33192,-2.13501 -0.0341,-2.91113 0.44093,-1.14902 -0.16334,-1.25216 -3.25331,-0.55526 -2.08714,0.47073 -3.95848,0.6922 -4.15853,0.49215 -0.89822,-0.89822 4.05057,-2.5188 8.16722,-2.67451 2.49349,-0.0943 4.48733,-0.43693 4.43077,-0.76137 -0.0566,-0.32443 0.42707,-1.71488 1.07475,-3.08988 l 1.17759,-2.5 -0.3827,2.75 c -0.44511,3.19841 -0.44012,3.20017 3.68882,1.29927 1.73312,-0.79789 5.54036,-2.33982 8.46054,-3.4265 l 5.30941,-1.97577 0.84128,2.1765 c 1.21833,3.15194 -0.10583,4.08748 -12.22364,8.63617 -12.16785,4.56747 -12.30965,4.59498 -13.09809,2.54033 z m 17.73682,-5.83717 c 5.28895,-1.93701 7.7081,-3.91287 6.39654,-5.22443 -0.26144,-0.26144 -4.64606,1.13538 -9.74359,3.10405 -5.09753,1.96867 -9.86973,3.34858 -10.60488,3.06648 -1.06588,-0.40902 -1.11449,-0.0254 -0.23997,1.89401 1.07043,2.34933 1.18305,2.36989 4.70669,0.85926 1.98551,-0.85121 6.25385,-2.51593 9.48521,-3.69937 z m 79.13001,5.32078 c 0.52553,-1.65578 -0.13307,-2.36721 -3.68261,-3.97804 -5.39113,-2.44656 -6.50835,-2.46001 -11.07216,-0.13325 -3.74586,1.90975 -4.75043,1.80241 -4.75043,-0.5076 0,-0.71607 0.5974,-1.07271 1.32755,-0.79252 0.73015,0.28018 2.41765,0.095 3.75,-0.41159 1.33235,-0.50655 2.75919,-0.86242 3.17076,-0.79081 0.41157,0.0716 2.37278,-3.2184 4.35824,-7.31113 1.98546,-4.09273 4.61746,-9.04273 5.8489,-11 1.23143,-1.95727 2.65393,-5.32407 3.16109,-7.48178 0.50717,-2.15771 1.45308,-4.1001 2.10203,-4.31641 0.88641,-0.29547 0.91987,0.43165 0.1345,2.92311 -2.22113,7.04622 -2.19102,7.25037 1.26134,8.5535 1.78954,0.67547 2.98442,1.49741 2.65529,1.82654 -0.32912,0.32913 -1.50736,0.11195 -2.61831,-0.48261 -3.96447,-2.12172 -5.16592,-1.26186 -8.61973,6.16898 -5.11026,10.99465 -5.15339,11.37565 -1.37334,12.13166 1.76575,0.35315 3.9828,1.34106 4.92679,2.19536 1.13936,1.03111 1.93763,1.1952 2.37463,0.48812 0.36206,-0.58583 1.98174,-1.06514 3.59928,-1.06514 3.08833,0 3.85895,-1.68203 1.74098,-3.8 -0.78182,-0.78182 -0.82449,-1.2 -0.12244,-1.2 1.42877,0 2.90279,1.96652 3.59725,4.79918 0.42643,1.73939 0.15726,2.25916 -1.10557,2.13484 -4.29511,-0.42284 -7.16924,0.16207 -7.16924,1.45899 0,0.76616 -0.7118,1.66616 -1.58179,2 -2.40351,0.92232 -2.60577,0.7733 -1.91301,-1.4094 z m -35.85473,-7.04391 c -1.44059,-1.13317 -5.43877,-3.03563 -8.88486,-4.22771 -4.27537,-1.47893 -5.57846,-2.27237 -4.10235,-2.49788 1.18979,-0.18176 4.88945,1.04571 8.22148,2.72771 3.33202,1.682 6.74606,3.05818 7.58674,3.05818 0.84069,0 1.52852,0.675 1.52852,1.5 0,2.04381 -1.24241,1.88376 -4.34953,-0.5603 z m -48.37811,-6.9397 c 0,-2.475 0.19502,-3.4875 0.43337,-2.25 0.23836,1.2375 0.23836,3.2625 0,4.5 -0.23835,1.2375 -0.43337,0.225 -0.43337,-2.25 z m 3.72764,2 c 0,-0.55 0.45,-1 1,-1 0.55,0 1,0.45 1,1 0,0.55 -0.45,1 -1,1 -0.55,0 -1,-0.45 -1,-1 z m -10.82715,-6.3653 c -0.64507,-3.50091 -1.10102,-10.36341 -1.01324,-15.25 l 0.15962,-8.8847 0.72635,10.5 c 0.39949,5.775 1.06383,12.6375 1.47631,15.25 1.11684,7.07375 0.007,5.74505 -1.34904,-1.6153 z m 3.81726,1.32857 c -1.46134,-5.42701 -1.53516,-16.19049 -0.12758,-18.6025 0.81892,-1.40329 0.94617,-0.0169 0.5176,5.63923 -0.31257,4.125 -0.10126,9.5128 0.46957,11.97289 1.33567,5.75633 0.63968,6.55823 -0.85959,0.99038 z m 89.27892,-2.65626 c 0.97297,-0.25354 2.32297,-0.23687 3,0.037 0.67703,0.27393 -0.11903,0.48137 -1.76903,0.46099 -1.65,-0.0204 -2.20394,-0.2445 -1.23097,-0.49804 z m 8.36084,-6.20634 c 0.46924,-2.3462 0.18001,-3.02624 -1.51606,-3.56455 -1.15275,-0.36587 -2.54994,-0.38461 -3.10486,-0.0417 -0.55492,0.34296 -1.00895,0.18396 -1.00895,-0.35334 0,-0.5373 2.5875,-0.94665 5.75,-0.90966 3.1625,0.037 5.075,0.29251 4.25,0.56783 -2.01933,0.6739 -2.96627,2.2446 -2.98469,4.9507 -0.008,1.2375 -0.45406,2.25 -0.99031,2.25 -0.54248,0 -0.71776,-1.28618 -0.39513,-2.89933 z m -45.62987,-3.98566 c 0,-0.91525 4.38489,-4.11501 5.63913,-4.11501 0.39022,0 -0.34739,1.125 -1.63913,2.5 -2.39771,2.55224 -4,3.19917 -4,1.61501 z m 61.33126,-5.68747 c 0.0928,-3.26015 0.57356,-6.2207 1.06834,-6.57901 0.49477,-0.35831 0.0116,-2.15831 -1.07374,-4 -1.87402,-3.18002 -2.22123,-3.33074 -6.89959,-2.99498 -2.70945,0.19445 -5.82627,0.78236 -6.92627,1.30646 -1.63451,0.77878 -1.57168,0.57962 0.34384,-1.08983 1.92609,-1.67865 3.44107,-1.98587 8.5,-1.72366 5.51711,0.28596 7.76517,-0.29946 21.65616,-5.63947 8.525,-3.2772 18.32267,-7.00669 21.7726,-8.28775 3.44993,-1.28106 6.69924,-2.59288 7.22068,-2.91515 1.22384,-0.75637 2.54214,4.3963 1.3835,5.40747 -1.5906,1.38816 -30.37174,12.25673 -31.4794,11.88751 -0.953,-0.31767 10.94248,-5.23192 25.47571,-10.52449 4.54366,-1.65467 6.63687,-3.59801 5.30745,-4.92743 -0.95603,-0.95603 -45.67862,17.06121 -45.67961,18.40279 -10e-4,1.62742 1.87938,1.53337 4.99907,-0.25 4.55065,-2.60139 5.28141,-1.55297 1.21978,1.75 -3.40655,2.77025 -4.09295,3.98934 -4.64993,8.25861 -0.99598,7.63417 -2.43644,8.86893 -2.23859,1.91893 z m -71.82571,1.56633 c 0.99854,-1.10337 2.03241,-1.78925 2.29749,-1.52417 0.67193,0.67194 -1.82222,3.5303 -3.08047,3.5303 -0.5679,0 -0.21556,-0.90276 0.78298,-2.00613 z m 59.99445,-0.71779 c -1.1,-0.27055 -2.77923,-1.31565 -3.73161,-2.32244 -1.64565,-1.73966 -1.63323,-1.86176 0.25,-2.45948 1.27699,-0.4053 1.98161,-1.5149 1.98161,-3.12056 0,-1.47137 0.42613,-2.22827 1.04068,-1.84846 0.92062,0.56897 0.71759,2.22291 -0.75436,6.14529 -0.24158,0.64374 0.57243,1.31874 1.8089,1.5 1.23647,0.18126 2.43337,0.89207 2.65979,1.57957 0.42701,1.29661 0.0956,1.35018 -3.25501,0.52608 z m -78.5,-1.08899 c 0,-0.4471 1.39401,-2.1346 3.0978,-3.75 l 3.09779,-2.93709 -2.34779,3.70767 c -2.22473,3.51332 -3.8478,4.77009 -3.8478,2.97942 z m 54,-0.18709 c -0.79314,-0.49019 -1.21708,-1.11625 -0.94208,-1.39125 0.275,-0.275 1.14894,-0.0989 1.94208,0.39125 0.79314,0.49019 1.21708,1.11625 0.94208,1.39125 -0.275,0.275 -1.14894,0.0989 -1.94208,-0.39125 z m -31,-3.72889 c -0.825,-0.31405 -1.725,-0.90608 -2,-1.31562 -0.275,-0.40954 -2.525,-1.22963 -5,-1.82241 l -4.5,-1.07778 4.95535,0.37266 c 4.52104,0.34 5.19889,0.0965 7.73403,-2.77765 1.52827,-1.73267 2.78586,-2.65755 2.79465,-2.0553 0.009,0.60226 -0.83521,1.86533 -1.87555,2.80682 -1.16966,1.05852 -1.68837,2.48866 -1.3592,3.74742 0.47086,1.80056 1.06454,1.96244 5.14152,1.40193 3.29791,-0.45341 4.18246,-0.34181 3.1092,0.39225 -1.59873,1.09347 -6.51779,1.27257 -9,0.32768 z m 43.25,-1.43258 c 0.1375,-0.63882 -0.87046,-1.44553 -2.23992,-1.79271 -1.70038,-0.43107 -2.09391,-0.87597 -1.24105,-1.40307 1.49949,-0.92674 5.23097,0.10311 5.23097,1.44369 0,0.52342 1.2375,0.69242 2.75,0.37555 l 2.75,-0.5761 -2.5,1.52162 c -3.00779,1.83069 -5.09198,2.01981 -4.75,0.43102 z m 68.89373,-1.37104 c -3.11727,-2.62302 -5.1677,-5.77015 -7.14115,-10.9607 -1.47238,-3.87266 -0.44268,-2.96886 1.98606,1.74321 1.20481,2.3375 3.38775,5.53039 4.85096,7.0953 2.41168,2.57929 3.11438,2.79288 7.51628,2.28457 5.96009,-0.68823 7.3276,-1.7683 10.29349,-8.12987 1.2821,-2.75 2.33549,-4.19457 2.34086,-3.21016 0.013,2.37897 -3.31073,8.79257 -5.63382,10.87129 -1.02103,0.91363 -3.91307,1.9651 -6.42676,2.33661 -4.03653,0.59657 -4.94594,0.35944 -7.78592,-2.03025 z m -143.84524,-0.87165 c -1.76084,-0.64104 -3.56084,-1.55066 -4,-2.02136 -1.36497,-1.46299 5.11562,0.47301 6.6658,1.99132 1.65186,1.61792 1.69448,1.61744 -2.6658,0.03 z m -18.6758,-2.38249 c -0.53122,-1.55588 -0.1671,-3.47337 1.13937,-6 1.69277,-3.2737 2.38291,-3.72843 5.82902,-3.8407 3.11924,-0.10162 3.2674,-0.0394 0.73339,0.3078 -4.01817,0.55063 -5.55672,2.41532 -6.31703,7.6561 -0.5218,3.59673 -0.71029,3.85219 -1.38475,1.8768 z m 67.70386,0.23344 c -1.7454,-0.76453 -3.45946,-1.85282 -3.80902,-2.41842 -0.34956,-0.5656 -2.07151,-1.08965 -3.82655,-1.16455 -2.35242,-0.1004 -2.5997,-0.25007 -0.94098,-0.56955 3.14086,-0.60496 2.82573,-1.67249 -1.5,-5.08147 -5.4514,-4.29609 -13.61607,-8.31808 -18.10909,-8.92073 -4.91481,-0.65921 -8.1341,2.08767 -8.15456,6.95793 -0.008,1.7875 -0.27966,4.24209 -0.60478,5.45465 -0.47324,1.76501 -0.0799,2.33297 1.97264,2.84812 2.26036,0.56731 5.84735,3.44723 4.29358,3.44723 -0.59487,0 -17.69853,-8.93366 -18.64574,-9.73913 -0.27387,-0.23289 0.85113,-0.10142 2.5,0.29216 1.64887,0.39357 3.70838,1.33015 4.57669,2.08128 2.90112,2.50962 3.92126,1.58301 3.92126,-3.56173 0,-4.18079 0.4167,-5.25739 2.75,-7.10506 3.94133,-3.12101 11.57257,-2.22567 18.92547,2.22045 4.16052,2.51576 17.25542,12.63652 21.2412,16.41684 0.82863,0.78592 -1.48438,0.20238 -4.59012,-1.15802 z m 105.1441,-1.03274 c 5.29107,-12.49469 3.81933,-27.46616 -3.6107,-36.73033 -1.6834,-2.09895 -2.8424,-4.03461 -2.57555,-4.30145 0.95213,-0.95214 6.68791,7.08629 8.24981,11.56172 2.52711,7.24115 2.99388,17.72762 1.08184,24.30481 -0.90328,3.10717 -2.16289,5.97113 -2.79913,6.36435 -0.81333,0.50267 -0.91614,0.14664 -0.34627,-1.1991 z m -168.09723,-2.20925 c 0.91515,-1.48073 4.81227,-2.26467 4.35536,-0.87611 -0.21199,0.64422 -1.41263,1.32165 -2.6681,1.50541 -1.28106,0.1875 -2.02141,-0.0886 -1.68726,-0.6293 z m 34.43908,0.11209 c 0.72187,-0.28887 1.58438,-0.25335 1.91667,0.079 0.33229,0.33229 -0.25834,0.56864 -1.3125,0.52522 -1.16495,-0.048 -1.4019,-0.28494 -0.60417,-0.60417 z m -4,-1 c 0.72187,-0.28887 1.58438,-0.25335 1.91667,0.079 0.33229,0.33229 -0.25834,0.56864 -1.3125,0.52522 -1.16495,-0.048 -1.4019,-0.28494 -0.60417,-0.60417 z m 2.4375,-5.03314 c 1.5125,-0.22913 3.9875,-0.22913 5.5,0 1.5125,0.22912 0.275,0.41659 -2.75,0.41659 -3.025,0 -4.2625,-0.18747 -2.75,-0.41659 z m 145.03601,-8.78375 c 0.008,-2.75 0.20172,-3.75631 0.43157,-2.23625 0.22986,1.52006 0.22371,3.77006 -0.0136,5 -0.23741,1.22994 -0.42547,-0.0137 -0.41797,-2.76375 z m -29.56409,-3.78229 c -0.79271,-2.06575 1.0258,-11.54285 2.97874,-15.52363 2.27241,-4.63198 7.53338,-8.19408 12.10206,-8.19408 2.77739,0 4.28105,0.81375 7.22801,3.91164 3.51426,3.69426 6.96927,11.25835 6.96927,15.25791 0,1.68064 0.48972,1.62893 6.6954,-0.70688 7.66912,-2.88665 8.03409,-3.13318 6.66498,-4.50229 -0.67504,-0.67504 -2.13436,-0.5444 -4.43333,0.39688 -1.88488,0.77174 -4.55205,1.70355 -5.92705,2.0707 -4.04068,1.07892 -0.10094,-1.07791 5.34838,-2.928 5.05478,-1.71614 6.65162,-1.38626 6.65162,1.37413 0,1.26081 -1.90363,2.44274 -6.75,4.19098 -3.7125,1.33921 -7.13822,2.43493 -7.6127,2.43493 -0.47449,0 -1.66651,-2.5979 -2.64893,-5.7731 -3.4857,-11.26578 -10.11743,-16.37112 -17.3437,-13.35179 -5.09163,2.12742 -8.47619,9.36264 -8.82946,18.87489 -0.15023,4.04516 -0.33121,4.45366 -1.09329,2.46771 z"
       id="path3495"
       inkscape:connector-curvature="0" />
    <path
       style="fill:#000000"
       d="m 823.17049,886.78023 c -2.25056,-1.442 -3.28676,-3.016 -3.71247,-5.6394 -0.3248,-2.0015 -0.34797,-4.0316 -0.0515,-4.5113 0.29648,-0.4797 4.52117,-2.8722 9.38819,-5.3165 l 8.84912,-4.4443 -0.50675,-15.27731 c -0.27871,-8.4025 -0.66884,-15.80769 -0.86696,-16.45597 -0.3211,-1.05068 -11.9285,-9.3213 -13.08198,-9.3213 -0.25456,0 -5.00729,-2.7451 -10.56163,-6.10021 -8.34532,-5.04102 -10.46649,-5.93032 -12.21645,-5.12171 -1.16471,0.53818 -11.48758,5.34662 -22.93972,10.68541 l -20.82206,9.70689 -3.92792,-2.59938 c -3.47606,-2.30034 -3.92793,-3.05675 -3.92793,-6.57515 l 0,-3.97578 9,-4.52007 9,-4.52007 -0.0115,-11.23997 -0.0115,-11.23996 -4.23853,-1.98914 c -2.33119,-1.09402 -5.79323,-3.42609 -7.69342,-5.18238 -1.9002,-1.75628 -3.8127,-2.97211 -4.25,-2.70185 -0.43731,0.27027 -0.802,2.82735 -0.81042,5.68239 -0.008,2.85504 -0.4952,5.86598 -1.08172,6.69098 -0.77447,1.08936 -0.91005,-0.62885 -0.49523,-6.27624 0.55815,-7.59869 0.51323,-7.80265 -1.96772,-8.93305 -2.11898,-0.96547 -2.48939,-1.73375 -2.23947,-4.64493 0.23197,-2.70206 0.99498,-3.87509 3.38578,-5.2052 l 3.08633,-1.71707 5.23615,4.08 c 6.55141,5.10485 8.25834,3.77007 4.05925,-3.17425 -1.53957,-2.54609 -3.08436,-5.75426 -3.43287,-7.12926 -0.34851,-1.375 0.851,0.16704 2.66558,3.42676 4.44508,7.98516 7.30041,10.00226 12.83517,9.06717 7.06141,-1.19302 10.2785,-6.17847 11.62535,-18.01554 0.69301,-6.09068 -1.6738,-16.11765 -5.24147,-22.20542 -3.31998,-5.66512 -8.62939,-8.44854 -13.13761,-6.88731 -4.48476,1.5531 -6.24196,3.60424 -8.37221,9.7727 -1.01459,2.9379 -1.855,4.44164 -1.86759,3.34164 -0.0126,-1.1 1.04988,-4.30389 2.36101,-7.11976 2.05307,-4.40927 2.98844,-5.32288 6.74024,-6.58339 5.7556,-1.93374 10.01277,-0.76938 13.39372,3.66327 2.91035,3.81567 6.46262,12.43058 6.46262,15.67305 0,1.54781 0.3338,1.8488 1.25,1.12715 0.6875,-0.54151 5.525,-2.36983 10.75,-4.06292 5.225,-1.6931 13.74256,-4.45009 18.9279,-6.12665 8.15487,-2.63668 11.53084,-3.19577 9.98877,-1.65423 -0.22917,0.22909 -5.81667,2.00709 -12.41667,3.95111 -6.6,1.94403 -13.65435,4.11909 -15.67633,4.83348 l -3.67633,1.29889 6.67633,5.56954 c 3.67198,3.06325 7.92787,6.38671 9.45754,7.38546 1.52966,0.99875 2.59939,1.99773 2.37718,2.21994 -0.45986,0.45986 -9.66253,-4.28482 -11.10839,-5.72722 -0.5225,-0.52124 -2.3225,-1.009 -4,-1.0839 -2.35632,-0.10521 -2.53827,-0.23475 -0.8,-0.56955 2.96569,-0.57122 2.83913,-1.43875 -0.66542,-4.56133 -2.64558,-2.35722 -3.24721,-2.49583 -6.5,-1.49752 -3.56227,1.0933 -3.58458,1.13545 -3.58458,6.77343 0,3.12031 -0.67013,7.88231 -1.48918,10.58222 -1.84757,6.09037 -1.84922,6.23859 -0.0426,3.85006 0.80751,-1.06762 1.48251,-1.43373 1.5,-0.81357 0.0383,1.35913 -2.43839,3.56891 -3.17474,2.83256 -0.2874,-0.2874 -1.24279,0.57672 -2.12311,1.92025 -2.28564,3.48832 -9.93369,5.05177 -14.12148,2.88677 -2.35839,-1.21924 -2.78619,-1.25812 -1.88901,-0.17167 0.63792,0.77249 1.55739,2.94427 2.04326,4.82617 0.81032,3.13854 1.50034,3.64358 8.34015,6.10427 4.10121,1.47546 10.2564,4.09822 13.67822,5.82837 4.08321,2.06456 7.68847,3.14572 10.48978,3.14572 l 4.2683,0 -2.74443,-2.54479 c -2.42979,-2.25302 -2.67086,-3.02692 -2.10268,-6.75 0.35296,-2.31286 1.04353,-4.98831 1.5346,-5.94543 1.10783,-2.15922 10.62088,-9.30153 13.33295,-10.01024 1.1,-0.28745 2.7875,-0.84683 3.75,-1.24307 0.9625,-0.39625 1.75,-0.32793 1.75,0.15182 0,0.47975 -2.1375,1.63226 -4.75,2.56113 -6.5337,2.32306 -12.84248,8.97145 -13.7292,14.46826 -0.64666,4.00868 -0.51073,4.3079 3.18013,7 2.12062,1.54678 6.31793,5.56942 9.32737,8.9392 3.00943,3.36978 6.43456,6.4034 7.6114,6.74137 2.0455,0.58743 3.9265,3.39888 2.93644,4.38895 -0.77947,0.77947 -7.52542,-3.79391 -8.62397,-5.84658 -0.5624,-1.05084 -1.68535,-1.91062 -2.49545,-1.91062 -0.8101,0 -2.19244,-1.79827 -3.07186,-3.99616 l -1.59894,-3.99615 -5.39089,0.63359 c -4.70949,0.55351 -5.86514,0.31406 -9.14296,-1.89443 -2.06364,-1.39041 -7.35207,-3.7348 -11.75207,-5.20975 -12.066,-4.04472 -16.94671,-6.66185 -17.31955,-9.2871 -0.17575,-1.2375 -0.8353,-2.25 -1.46565,-2.25 -0.63036,0 -3.31151,-2.13285 -5.95812,-4.73966 -4.71134,-4.6405 -4.86897,-4.7078 -7.53435,-3.21658 -1.49728,0.83769 -2.85741,2.45399 -3.0225,3.59177 -0.28125,1.9383 0.62537,2.84154 6.87804,6.85234 0.86783,0.55667 4.97794,3.26213 9.13356,6.01213 4.15563,2.75 11.77059,7.60976 16.92213,10.79947 5.15154,3.18971 13.19144,8.17198 17.86644,11.07172 4.675,2.89974 13.27483,7.81835 19.11073,10.93025 5.8359,3.1119 11.1785,6.34213 11.87244,7.17828 0.69395,0.83615 1.72755,1.52028 2.2969,1.52028 0.56935,0 3.32675,1.72819 6.12756,3.84043 11.18397,8.43444 13.98963,9.31926 21.96939,6.92847 5.17834,-1.55147 18.86568,-8.8986 19.34146,-10.38217 0.20666,-0.64439 -1.41236,-1.35059 -3.84415,-1.67676 -4.7204,-0.63314 -8.78388,-3.23669 -10.57625,-6.77642 -0.66106,-1.3055 -2.01106,-2.665 -3,-3.0211 -2.73071,-0.98326 -13.42985,0.17307 -16.6443,1.79887 -3.46852,1.7543 -10.40808,1.00971 -12.61872,-1.35395 -1.39625,-1.4929 -1.35421,-1.56788 0.46494,-0.82925 3.60842,1.46514 10.24141,1.68064 12.61586,0.40987 2.37629,-1.27175 6.07146,-1.86793 13.63055,-2.19917 3.57237,-0.15654 4.15692,-0.46805 3.68261,-1.96245 -0.87144,-2.74569 0.95397,-2.1022 3.39232,1.19585 1.52534,2.06313 1.73579,2.79507 0.68806,2.39301 -3.75419,-1.44061 0.50396,4.85509 5.12974,7.58437 5.15019,3.03868 8.16838,2.63422 12.68285,-1.6996 l 3.90631,-3.75 -1.61413,3.2003 c -0.88777,1.76016 -2.22344,3.56016 -2.96816,4 -0.74472,0.43983 -1.87591,1.79415 -2.51374,3.00959 -1.31168,2.49949 -13.85162,9.11665 -22.13227,11.6789 -5.31076,1.64329 -5.70323,1.63147 -11.40655,-0.34347 -3.2486,-1.12493 -6.0611,-2.04532 -6.25,-2.04532 -0.1889,0 -0.34345,6.97048 -0.34345,15.48996 l 0,15.48992 -9.05803,4.5493 c -9.01918,4.5297 -9.05671,4.5642 -8.75,8.0587 0.23176,2.6404 1.0591,3.983 3.34115,5.4217 l 3.03311,1.9122 22.46689,-10.5482 c 12.35678,-5.8016 22.74556,-10.8465 23.08617,-11.2109 0.34061,-0.3645 0.40581,-2.3336 0.14489,-4.3759 -0.37144,-2.90733 -1.20479,-4.1442 -3.8395,-5.69872 l -3.3651,-1.98545 -7.52979,3.47897 -7.52979,3.479 -0.0634,4.2197 c -0.0575,3.8254 -0.15623,3.9869 -1.05708,1.7283 -0.92578,-2.3211 -0.35326,-20.86819 0.67594,-21.89738 0.24449,-0.24449 0.44453,2.78047 0.44453,6.72213 0,3.94167 0.23488,7.16667 0.52196,7.16667 0.28707,0 3.49932,-1.35 7.13831,-3 7.73363,-3.5066 8.19438,-3.55347 12.28664,-1.25 3.4084,1.91854 4.36992,4.22715 3.87677,9.30808 -0.32127,3.3101 -0.49473,3.4149 -23.32368,14.1015 -12.65,5.9216 -23.45,10.7756 -24,10.7866 -0.55,0.011 -2.40487,-0.88 -4.12194,-1.9801 z m -44.12806,-63.70884 c 11.4125,-5.36447 20.73688,-9.97939 20.72085,-10.2554 -0.016,-0.27601 -2.7534,-2.47987 -6.08303,-4.89746 l -6.05389,-4.39561 -3.54077,1.68848 c -1.94743,0.92866 -3.76821,1.46103 -4.04619,1.18305 -0.27798,-0.27798 0.67773,-1.0445 2.1238,-1.70337 1.44608,-0.65888 2.62923,-1.51657 2.62923,-1.90599 0,-0.38942 -3.88708,-3.25211 -8.63795,-6.36154 l -8.63794,-5.65351 0.70898,10.584 c 0.46524,6.94541 0.3483,11.01859 -0.34015,11.84813 -0.57702,0.69526 -4.54649,3.02988 -8.82103,5.18805 -4.27455,2.15816 -8.09069,4.37019 -8.4803,4.91562 -1.91502,2.68087 2.49506,9.42306 6.20839,9.49147 0.825,0.0152 10.8375,-4.36146 22.25,-9.72592 z m 68.08132,4.27022 c -6.2959,-2.42376 -11.71341,-5.47871 -10.99309,-6.19903 0.22036,-0.22035 4.0198,1.1906 8.44321,3.13546 4.42341,1.94486 9.68372,3.53611 11.68958,3.53611 2.1767,0 3.39785,0.40316 3.02898,1 -1.00151,1.62048 -5.57054,1.06757 -12.16868,-1.47254 z M 739.14228,813.22282 c -2.28259,-0.77897 -6.78259,-2.8941 -10,-4.70028 -4.46988,-2.50929 -5.89341,-3.86481 -6.0345,-5.74618 -0.10252,-1.36709 0.0378,-1.70216 0.31541,-0.75335 1.10992,3.79305 18.47189,11.36678 23.51696,10.25869 2.36823,-0.52015 2.87238,-1.16452 2.9707,-3.79701 0.15466,-4.14072 0.18417,-3.65871 -0.46955,-7.67054 -0.56551,-3.47048 -0.55865,-3.46627 0.81355,0.5 1.76509,5.10189 1.8899,9.97841 0.28758,11.23684 -2.30561,1.81079 -7.21491,2.1001 -11.40015,0.67183 z m 145.65015,-4.41957 c 0,-2.39111 -3.34849,-9.63019 -5.82465,-12.59228 -0.96699,-1.15675 -2.79057,-2.65571 -4.0524,-3.33102 -1.26183,-0.67531 -2.07252,-1.44956 -1.80153,-1.72056 0.271,-0.27099 1.88454,0.22702 3.58565,1.1067 l 3.09293,1.59942 0,-4.56552 c 0,-2.51103 -0.83817,-6.23509 -1.86259,-8.27568 -1.02443,-2.04059 -2.0953,-6.63516 -2.37971,-10.21016 -0.48055,-6.0403 -0.42273,-6.28783 0.81749,-3.5 0.73403,1.65 1.3549,4.63312 1.37971,6.62916 0.0248,1.99603 1.20307,6.1585 2.61838,9.24993 2.42819,5.30388 2.48605,5.79561 1.02621,8.72193 -1.47776,2.96224 -1.43071,3.25371 1.05028,6.50645 2.36651,3.10265 4.60063,12.39253 2.98028,12.39253 -0.34653,0 -0.63005,-0.9049 -0.63005,-2.0109 z m -35,-4.52234 c 0,-0.29329 1.13258,-2.76829 2.51685,-5.5 1.53575,-3.03067 3.18172,-4.96676 4.2225,-4.96676 1.39597,0 1.30744,0.27892 -0.48754,1.53618 -1.20626,0.8449 -2.72762,3.3199 -3.3808,5.5 -0.65317,2.1801 -1.56636,3.96382 -2.0293,3.96382 -0.46294,0 -0.84171,-0.23996 -0.84171,-0.53324 z m -105,-4.30009 c 0,-2.29167 0.42171,-4.16667 0.93713,-4.16667 0.51911,0 0.67901,1.67273 0.35846,3.75 -0.80127,5.19253 -1.29559,5.3515 -1.29559,0.41667 z m -7,1.83333 c 0,-0.55 0.70156,-1 1.55902,-1 0.85746,0 1.2809,0.45 0.94098,1 -0.33992,0.55 -1.04148,1 -1.55902,1 -0.51754,0 -0.94098,-0.45 -0.94098,-1 z m 81.625,-5.125 c -1.00254,-5.01272 -0.72997,-9.37951 0.81648,-13.08071 1.07075,-2.56265 1.32077,-6.22547 0.97211,-14.24153 -0.38219,-8.78682 -0.0927,-12.16475 1.55851,-18.18333 2.21977,-8.09113 2.57706,-12.912 1.0279,-13.86943 -0.55,-0.33992 -1,-1.04529 -1,-1.56749 0,-1.44309 3.94932,1.33244 4.53883,3.18983 0.28406,0.89501 -0.61522,5.17112 -1.99841,9.50248 -2.52631,7.91096 -3.4576,19.6903 -1.64528,20.81037 0.50628,0.3129 0.54156,2.18477 0.0812,4.30902 -0.44766,2.06568 -1.348,6.24182 -2.00076,9.28031 -0.65275,3.03848 -1.0268,8.1016 -0.8312,11.25136 0.38319,6.17077 -0.50215,7.68527 -1.51938,2.59912 z m -94.18387,0.57933 c 1.06762,-0.79988 3.2347,-1.45433 4.81574,-1.45433 3.7569,0 6.6653,-1.61538 7.63681,-4.24163 0.77792,-2.10293 0.7831,-2.10235 1.37286,0.15289 0.50267,1.92219 -0.0386,2.53399 -3.58727,4.05456 -2.2986,0.98492 -5.97927,2.04999 -8.17927,2.36681 -3.66656,0.52801 -3.83819,0.4548 -2.05887,-0.8783 z m 111.88108,0.29567 c -0.43771,-0.6875 -0.80176,-6.515 -0.80902,-12.94999 -0.009,-8.01107 -0.40731,-12.09412 -1.26319,-12.95001 -1.47487,-1.47487 -1.6297,-2.85 -0.3209,-2.85 1.4843,0 3.2647,10.54789 3.0086,17.82432 -0.20572,5.845 0.21112,8.5274 1.77551,11.42568 0.69528,1.28812 -1.55174,0.81823 -2.391,-0.5 z m 26.67779,0.47243 c 0,-0.611 1.16626,-2.3735 2.59169,-3.91667 l 2.59169,-2.80576 -2.26785,3.5 c -2.953,4.5574 -2.91553,4.51598 -2.91553,3.22243 z m 5.38,-7.67454 c -0.68937,-1.79649 0.42805,-3.78456 1.6891,-3.00518 1.26716,0.78314 1.18433,4.45729 -0.10048,4.45729 -0.56727,0 -1.28214,-0.65345 -1.58862,-1.45211 z m -132.20715,-7.91319 c -0.64507,-3.50091 -1.10102,-10.36341 -1.01324,-15.25 l 0.15962,-8.8847 0.72635,10.5 c 0.3995,5.775 1.06383,12.6375 1.47631,15.25 1.11684,7.07375 0.007,5.74505 -1.34904,-1.6153 z m 3.81726,1.32857 c -1.46134,-5.42701 -1.53516,-16.19049 -0.12758,-18.6025 0.81892,-1.40329 0.94617,-0.0168 0.5176,5.63923 -0.31257,4.125 -0.10126,9.5128 0.46957,11.97289 1.33567,5.75633 0.63968,6.55823 -0.85959,0.99038 z m 84.57255,0.91556 c 1.02664,-1.98529 1.49089,-4.86249 1.27568,-7.90596 -0.40605,-5.74235 0.6332,-5.67917 1.55646,0.0946 0.51615,3.22781 0.20437,4.845 -1.45021,7.52216 -2.63894,4.26989 -3.53769,4.45796 -1.38193,0.28918 z m -18.56266,-4.87883 c -0.79314,-0.49019 -1.21708,-1.11625 -0.94208,-1.39125 0.275,-0.275 1.14894,-0.0989 1.94208,0.39125 0.79314,0.49019 1.21708,1.11625 0.94208,1.39125 -0.275,0.275 -1.14894,0.0989 -1.94208,-0.39125 z m 54.27837,-2.12163 c -1.34164,-1.34164 -8.77313,-1.69672 -12.27837,-0.58665 l -2.5,0.79171 2.5,-1.50628 c 1.375,-0.82845 4.44282,-1.52223 6.81739,-1.54172 3.83252,-0.0315 4.25366,-0.26004 3.75,-2.03543 -0.31207,-1.1 -0.81781,-2.88455 -1.12388,-3.96565 -0.30606,-1.08112 -0.10139,-3.61388 0.45484,-5.62837 0.83289,-3.0165 0.66643,-4.33876 -0.94351,-7.49451 -1.47312,-2.88755 -1.95576,-5.8746 -1.95858,-12.12163 -0.004,-9.2279 -2.23889,-14.78984 -5.94242,-14.78984 -1.73209,0 -1.94957,-0.61613 -1.7647,-4.99959 0.11902,-2.82189 0.64644,-4.84399 1.21086,-4.64237 1.10727,0.39554 1.14632,2.05498 0.1238,5.26175 -0.56085,1.7589 -0.18755,2.21746 2.19271,2.69351 3.93813,0.78763 6.18349,6.8333 6.18349,16.64913 0,8.11738 1.61245,14.03757 3.82333,14.03757 0.99568,0 1.1266,0.37449 0.437,1.25 -1.9556,2.48284 -2.2396,6.73202 -0.81539,12.19991 0.79853,3.06576 1.72664,6.0187 2.06248,6.5621 0.83537,1.35165 -0.84447,1.25094 -2.22905,-0.13364 z m -71.86869,-1.53401 c 3.66978,-1.98715 8.59032,-3.42447 8.59032,-2.50927 0,0.70018 -9.02136,4.19946 -10.63421,4.12487 -0.47619,-0.022 0.44357,-0.74904 2.04389,-1.6156 z m 25.59032,0.63273 c 0,-0.57192 0.69441,-1.30633 1.54313,-1.63201 2.34537,-0.90001 2.62076,0.0715 0.41139,1.45125 -1.23707,0.77256 -1.95452,0.83892 -1.95452,0.18076 z m 23.84674,-2.68872 c -0.55627,-3.65273 0.34556,-4.2966 5.98505,-4.27306 3.85281,0.0161 7.01789,1.34153 5.47723,2.29371 -0.49748,0.30746 -1.55803,0.1456 -2.35677,-0.35969 -0.79874,-0.50529 -2.67688,-0.9256 -4.17366,-0.93402 -2.23231,-0.0126 -2.87609,0.56879 -3.58208,3.23469 l -0.86068,3.25 -0.48909,-3.21163 z m -25.34674,-2.28837 c -0.73784,-1.19384 1.22178,-1.19384 4,0 1.78583,0.7674 1.71184,0.86696 -0.69098,0.92971 -1.48004,0.0387 -2.9691,-0.37971 -3.30902,-0.92971 z m -20.5,-0.88499 c 0,-0.91525 4.38489,-4.11501 5.63913,-4.11501 0.39022,0 -0.34738,1.125 -1.63913,2.5 -2.39771,2.55224 -4,3.19917 -4,1.61501 z m -17.8508,-5.7194 c 2.97584,-6.72738 2.36295,-20.68135 -1.24791,-28.41183 -1.41712,-3.03392 -3.37822,-6.31785 -4.35799,-7.29762 -2.02231,-2.02232 -1.33112,-3.58488 0.80248,-1.81415 4.81866,3.99913 9.21898,22.01526 7.68232,31.45353 -0.9113,5.59723 -2.87683,10.67446 -4.13239,10.67446 -0.43079,0 0.13328,-2.07198 1.25349,-4.60439 z m -23.50045,-1.14561 c -2.5449,-2.0625 -4.16199,-3.90666 -3.59353,-4.09813 0.56845,-0.19147 2.02696,0.70853 3.24113,2 1.21417,1.29147 3.33169,3.11203 4.70561,4.04568 1.37392,0.93365 1.9976,1.72115 1.38595,1.75 -0.61164,0.0289 -3.19427,-1.63505 -5.73916,-3.69755 z m 84.28964,-2 c -0.10362,-2.8875 -0.24464,-6.64297 -0.31339,-8.34549 -0.0687,-1.70252 0.16066,-3.27204 0.50981,-3.48782 1.14721,-0.70902 2.00545,12.03608 0.98307,14.5989 -0.86186,2.16041 -1.01568,1.79975 -1.17949,-2.76559 z m -49.22996,-0.94733 c -1.30503,-0.33896 -1.61095,-1.03443 -1.12649,-2.56085 0.78336,-2.46814 5.41806,-7.71748 5.41806,-6.13659 0,0.59664 -0.85119,1.85511 -1.89152,2.7966 -1.16966,1.05852 -1.68837,2.48866 -1.3592,3.74742 0.47086,1.80056 1.06454,1.96244 5.14152,1.40193 3.29791,-0.45341 4.18246,-0.34181 3.1092,0.39225 -1.51787,1.03816 -6.00909,1.2118 -9.29157,0.35924 z m 85.57359,-1.42065 c -0.61489,-0.61489 -0.89009,-2.52739 -0.61155,-4.25 0.51927,-3.21139 -3.83426,-23.2101 -5.88048,-27.01302 -0.62709,-1.16545 -1.44444,-3.77092 -1.81634,-5.78994 -0.6599,-3.58253 -0.57741,-3.70781 3.42508,-5.20143 6.42756,-2.39858 10.93833,-3.05122 5.39191,-0.78012 -7.75843,3.17685 -8.21479,4.0382 -5.75294,10.85806 3.99834,11.07623 5.96738,19.30651 6.28733,26.28008 0.177,3.85789 0.26628,7.01435 0.19839,7.01435 -0.0679,0 -0.62651,-0.50309 -1.2414,-1.11798 z M 741.4308,758.31415 c -0.7049,-1.83696 0.21902,-4.5 1.56125,-4.5 1.97734,0 15.75444,-5.26532 15.37663,-5.87662 -0.214,-0.34627 1.59379,-0.70632 4.01732,-0.80012 4.1662,-0.16124 4.40643,-0.0228 4.40643,2.53861 0,2.55248 -0.63008,2.92396 -10.89529,6.42364 -12.15086,4.14255 -13.63905,4.37036 -14.46634,2.21449 z m 2.04474,-1.6875 c -0.31922,-0.79773 -0.55618,-0.56078 -0.60416,0.60417 -0.0434,1.05416 0.19293,1.64479 0.52522,1.3125 0.33229,-0.3323 0.36782,-1.1948 0.0789,-1.91667 z m 14.05469,-2.53336 c 6.10401,-2.05928 8.24096,-3.23243 8.25,-4.52914 0.007,-0.9625 -0.1376,-1.75 -0.32068,-1.75 -1.32037,0 -19.21957,6.71073 -19.41712,7.27982 -0.67891,1.95575 -0.0821,2.89708 1.5,2.36595 0.9625,-0.32311 5.45701,-1.8381 9.9878,-3.36663 z m 105.30116,1.5323 c -1.12143,-1.20371 -2.03896,-2.85371 -2.03896,-3.66667 0,-0.81296 0.1125,-1.28836 0.25,-1.05644 0.1375,0.23191 1.57169,1.88191 3.18709,3.66667 1.6154,1.78475 2.42043,3.245 1.78896,3.245 -0.63148,0 -2.06567,-0.98485 -3.18709,-2.18856 z M 736.41512,755.0275 c -0.53122,-1.55588 -0.1671,-3.47337 1.13937,-6 1.69277,-3.2737 2.38291,-3.72843 5.82902,-3.8407 3.11924,-0.10162 3.2674,-0.0394 0.73339,0.3078 -4.01817,0.55063 -5.55672,2.41532 -6.31703,7.65609 -0.52179,3.59673 -0.71028,3.8522 -1.38475,1.87681 z m 4.75073,-3.00855 c 0.91515,-1.48073 4.81227,-2.26467 4.35536,-0.87611 -0.21199,0.64422 -1.41263,1.32165 -2.6681,1.50541 -1.28107,0.1875 -2.02141,-0.0886 -1.68726,-0.6293 z m 12.89894,-7.2048 c 0,-2.475 0.19502,-3.4875 0.43337,-2.25 0.23836,1.2375 0.23836,3.2625 0,4.5 -0.23835,1.2375 -0.43337,0.225 -0.43337,-2.25 z m 81.3683,-0.21034 c -0.33734,-1.25931 -0.6195,-4.18633 -0.62701,-6.50448 -0.0104,-3.2001 0.46785,-4.4725 1.98635,-5.28518 1.1,-0.5887 2,-1.86454 2,-2.83518 0,-2.19104 1.89521,-4.17472 3.95,-4.13441 1.27593,0.025 1.24057,0.21063 -0.2,1.04969 -0.9625,0.5606 -1.75,1.82717 -1.75,2.8146 0,0.98743 -0.8318,2.54809 -1.84844,3.46814 -1.35854,1.22947 -1.86308,3.1444 -1.90368,7.22533 -0.061,6.12815 -0.66684,7.71198 -1.60722,4.20149 z m -51.64066,-5.33935 c 0,-1.15423 0.4263,-1.31112 1.67052,-0.61482 1.20481,0.67425 6.40955,-0.70664 18.66969,-4.95333 9.34954,-3.23851 17.03531,-5.99934 17.07948,-6.13518 1.13346,-3.4857 4.27384,-5.8307 9.58031,-7.15385 1.375,-0.34285 0.475,0.41641 -2,1.68724 -3.30817,1.69863 -4.44501,2.84876 -4.29237,4.34253 0.18335,1.79429 -2.03875,2.75685 -19,8.23033 -10.5642,3.40912 -19.77013,6.18678 -20.45763,6.17258 -0.6875,-0.0142 -1.25,-0.72317 -1.25,-1.5755 z m 124.36999,-16.60939 c -3.18768,-3.40249 -4.60394,-5.69587 -6.3444,-10.2736 -1.56136,-4.1067 -0.36685,-2.96969 2.1278,2.02536 1.26153,2.52597 3.75412,5.87495 5.53908,7.44217 2.73881,2.4047 3.8356,2.75876 7.02646,2.26822 5.77533,-0.88787 7.24314,-2.02477 9.85415,-7.63259 1.32406,-2.84376 2.41178,-4.36505 2.41715,-3.38064 0.012,2.20033 -3.34138,8.92678 -5.233,10.49668 -0.76392,0.634 -3.83431,1.43231 -6.82309,1.77403 -5.21174,0.59587 -5.56224,0.48457 -8.56415,-2.71963 z m -69.86999,-0.84092 c -0.33992,-0.55 -1.58148,-1 -2.75902,-1 -1.55629,0 -1.84076,-0.30022 -1.04164,-1.09934 1.37651,-1.37651 5.5814,-0.16392 4.65114,1.34127 -0.44298,0.71675 -0.0686,0.86387 1.07838,0.42374 0.96632,-0.37081 2.95264,-0.92296 4.41404,-1.22699 l 2.6571,-0.55279 -2.5,1.52162 c -2.90778,1.76981 -5.6196,2.01701 -6.5,0.59249 z m 81.01755,-1.5 c 5.32023,-13.93395 3.78055,-27.86505 -4.24217,-38.38338 -1.45603,-1.90896 -1.97019,-3.18301 -1.17885,-2.9211 2.27963,0.75448 6.71792,8.8494 8.36926,15.26458 2.55404,9.92196 1.62069,20.95038 -2.20332,26.03431 -1.50333,1.99864 -1.50591,1.99866 -0.74492,0.006 z m -71.34692,-5.0181 c 1.8788,-1.97001 11.30786,-3.14229 13.17506,-1.63801 0.75337,0.60695 9.31402,-1.8144 24.64626,-6.97111 12.92057,-4.34559 24.08963,-7.67172 24.82014,-7.39139 0.7305,0.28031 1.18412,1.47447 1.00805,2.65367 -0.26834,1.79707 -2.81818,3.01742 -15.75782,7.54165 -8.49072,2.96871 -16.10712,5.26842 -16.92533,5.11047 -0.81821,-0.15795 5.84201,-2.76218 14.80049,-5.78718 8.95847,-3.025 16.51796,-6.08191 16.79887,-6.79313 1.15453,-2.92319 2.33013,-3.24279 -34.15414,9.28545 -10.70347,3.67544 -14.3094,4.53464 -15.6134,3.72027 -1.84429,-1.15177 -9.26178,-0.53309 -12.46881,1.04001 -1.88,0.92217 -1.89976,0.87592 -0.32937,-0.7707 z m 81.10173,-11.4819 c 0,-2.475 0.19502,-3.4875 0.43337,-2.25 0.23836,1.2375 0.23836,3.2625 0,4.5 -0.23835,1.2375 -0.43337,0.225 -0.43337,-2.25 z m -29.7008,-5.88421 c -0.68803,-1.11326 1.2733,-11.92965 2.64939,-14.61089 1.28633,-2.50634 4.88513,-6.5049 5.85457,-6.5049 0.3998,0 -0.49477,1.30781 -1.98793,2.90623 -3.0322,3.24599 -4.87648,8.47274 -5.23766,14.84377 -0.25258,4.45523 -0.38674,4.80847 -1.27837,3.36579 z m 30.88784,-1.05009 c 0.24478,-0.39606 3.16655,-1.54412 6.49283,-2.55124 3.32627,-1.00711 6.04777,-2.18331 6.04777,-2.61377 0,-1.76726 -2.23667,-1.90789 -7.1479,-0.44941 -2.85573,0.84806 -5.36509,1.36907 -5.57636,1.15779 -0.54959,-0.54959 8.71921,-3.60907 10.93378,-3.60907 2.08331,0 3.52521,2.66529 2.17326,4.01717 -1.12885,1.12878 -13.51747,5.00979 -12.92338,4.04853 z m -2.84568,-3.51919 c -1.43844,-7.28431 -5.50478,-13.27734 -11.11372,-16.37953 -1.96711,-1.08797 -1.96491,-1.10666 0.13364,-1.13657 4.6158,-0.0658 13.34312,14.10138 12.13948,19.70617 -0.21068,0.98106 -0.72506,0.009 -1.1594,-2.19007 z m -16.80122,-17.22962 c 0.72187,-0.28887 1.58437,-0.25335 1.91667,0.0789 0.33229,0.3323 -0.25834,0.56864 -1.3125,0.52522 -1.16495,-0.048 -1.4019,-0.28494 -0.60417,-0.60416 z"
       id="path3497"
       inkscape:connector-curvature="0" />
    <path
       style="fill:#000000"
       d="m 784.59915,898.93533 c -1.0898,-2.83998 -0.6935,-3.23705 6.854,-6.86724 16.8769,-8.11748 17.9695,-8.35915 18.7054,-4.13737 0.2729,1.56557 -1.7579,2.87578 -11.1664,7.20406 -6.325,2.90976 -12.0144,5.31114 -12.643,5.3364 -0.6287,0.0253 -1.4162,-0.66586 -1.75,-1.53585 z m 2.0761,-2.60571 c -0.3192,-0.79773 -0.5562,-0.56078 -0.6042,0.60417 -0.043,1.05416 0.193,1.64479 0.5253,1.3125 0.3323,-0.3323 0.3678,-1.1948 0.079,-1.91667 z m 13.0669,-3.038 c 5.0875,-2.33005 9.25,-4.80751 9.25,-5.50547 0,-1.92621 -1.2253,-1.61405 -11.2486,2.86572 -10.7268,4.79415 -10.1398,4.42783 -9.2925,5.79872 0.953,1.54194 1.1432,1.48873 11.2911,-3.15897 z m -0.083,6.55883 c -0.3667,-0.36666 -0.653,-1.37916 -0.6363,-2.25 0.025,-1.3003 0.2201,-1.2571 1.0917,0.24167 1.0767,1.85169 0.7646,3.22835 -0.4554,2.00833 z m 19.8333,-10.17882 c 0,-9.58606 -0.2767,-11.22664 -2.7588,-16.35977 -1.5174,-3.13789 -3.5387,-6.14164 -4.4917,-6.675 -0.9531,-0.53335 -1.41,-1.29261 -1.0153,-1.68724 2.2609,-2.26092 8.2165,9.0288 9.6789,18.34774 0.9441,6.01646 0.4675,15.86651 -0.8058,16.65348 -0.334,0.20641 -0.6073,-4.41923 -0.6073,-10.27921 z m 6.2294,7.34549 c 2.9519,-15.32332 -2.3655,-30.78083 -11.8162,-34.3496 -2.0417,-0.77097 -3.4115,-0.52096 -6.5,1.18639 -4.8148,2.66164 -7.9512,8.59339 -9.3392,17.66321 l -0.9947,6.5 0.4621,-6.4141 c 0.2738,-3.79842 1.4552,-8.58307 2.8972,-11.73281 2.042,-4.46016 3.1313,-5.60383 6.7482,-7.085 8.1966,-3.35656 12.1486,-1.39458 16.9875,8.4336 3.0618,6.21888 3.3257,7.51034 3.3257,16.27658 0,5.98347 -0.4721,10.26493 -1.2706,11.52173 -1.096,1.72534 -1.1647,1.45069 -0.5,-2 z m 2.8206,-16.34442 c 0.5225,-0.46444 5.45,-2.74672 10.95,-5.07175 13.5919,-5.74575 21.9746,-9.33369 22.1258,-9.47023 0.069,-0.0625 0.437,-1.1261 0.8174,-2.3636 0.5208,-1.69455 0.2901,-2.25 -0.9348,-2.25 -0.8945,0 -1.3826,0.39453 -1.0846,0.87673 0.5607,0.90717 -4.6065,3.39514 -22.1738,10.67662 -5.6375,2.33669 -10.2418,3.9556 -10.2318,3.59759 0.01,-0.35802 5.2976,-2.89996 11.75,-5.64876 6.4525,-2.74879 12.7443,-6.077 13.9818,-7.39602 3.0586,-3.26004 2.8867,-7.57714 -0.7558,-18.97874 -1.6468,-5.15492 -3.0024,-9.87992 -3.0124,-10.5 -0.01,-0.62008 -1.3712,-3.12428 -3.0248,-5.56488 -3.0338,-4.47753 -8.1349,-7.29531 -12.457,-6.88115 -3.2581,0.3122 -6.7862,-1.27595 -8.962,-4.03426 -2.6835,-3.40183 -4.6977,-7.32076 -4.08,-7.93841 0.7495,-0.74952 3.542,1.86017 3.542,3.31013 0,1.66122 6.6396,7.48115 8.5348,7.48115 0.8059,0 1.4652,-0.51974 1.4652,-1.15499 0,-0.734 0.6379,-0.60071 1.75,0.36569 2.4799,2.15493 7.233,3.16773 7.3134,1.55835 0.035,-0.69798 0.4761,-0.24109 0.9805,1.0153 0.5044,1.2564 2.2368,3.9564 3.8497,6 4.2229,5.35026 8.5379,19.69744 9.0049,29.94065 0.088,1.92584 0.5049,2.14433 3.1015,1.625 3.1097,-0.62193 3.4612,-0.14026 3.0287,4.15 -0.1109,1.1 -0.6232,2.43801 -1.1385,2.97335 -0.597,0.62019 0.4321,1.39849 2.8365,2.14514 2.5928,0.8052 3.0898,1.20461 1.5884,1.27666 -1.2017,0.0577 -3.3987,-0.35665 -4.8823,-0.92071 -2.3287,-0.88538 -4.777,-0.13355 -17.9102,5.5 -14.6839,6.29869 -17.9905,7.4748 -15.9726,5.68114 z m 45.5842,-14.06318 c 1.2957,-1.04918 2.7637,-1.65549 3.2623,-1.34736 1.1024,0.68133 -2.2172,3.25496 -4.1984,3.25496 -0.8991,0 -0.5558,-0.69954 0.9361,-1.9076 z m 3.7382,-2.3424 c -0.07,-0.1375 -0.2361,-1.31097 -0.3686,-2.60771 -0.1932,-1.88978 0.5764,-2.7289 3.8776,-4.22804 4.4493,-2.0205 8.6186,-2.48904 8.6186,-0.96855 0,1.33403 10.02,0.6652 12.8491,-0.85766 1.932,-1.03998 2.2764,-1.88736 1.9396,-4.7727 -0.3954,-3.38639 -0.2287,-3.58824 4.8019,-5.81297 8.2335,-3.64124 10.5851,-3.80874 3.3526,-0.23879 -6.4931,3.20496 -6.55,3.26889 -5.8578,6.57682 0.66,3.15396 0.4423,3.50315 -3.8994,6.25662 -4.788,3.03642 -7.886,3.1938 -14.3772,0.73037 -1.879,-0.7131 -3.7216,-0.68125 -6.1056,0.10555 -2.8924,0.95458 -3.3422,1.5045 -2.9422,3.59696 0.2741,1.43392 0,2.4701 -0.6444,2.4701 -0.6141,0 -1.174,-0.1125 -1.2442,-0.25 z m -40.8724,-17.59501 c 0,-10.03301 -0.2677,-12.07844 -1.75,-13.37089 -0.9625,-0.83923 -8.6611,-5.67308 -17.1081,-10.74189 l -15.358,-9.21601 -22.9647,10.67165 -22.96467,10.67166 -3.9272,-2.59894 c -3.4754,-2.29989 -3.9273,-3.05643 -3.9273,-6.57472 l 0,-3.97578 9,-4.52007 9,-4.52007 -0.011,-11.23997 -0.011,-11.23996 -4.2386,-1.99722 c -2.3312,-1.09847 -5.1057,-2.78122 -6.1657,-3.73944 -1.06,-0.95822 -2.0558,-1.61371 -2.2128,-1.45664 -0.9989,0.99888 -3.0594,19.08358 -2.647,23.23211 0.398,4.0041 0.1393,5.33885 -1.2598,6.5 -2.3536,1.95337 -10.0602,1.73679 -14.4532,-0.40619 -6.7953,-3.31488 -12.5015,-7.28267 -12.8151,-8.91093 -0.2269,-1.17809 0.5168,-0.87444 2.609,1.06525 3.809,3.53128 17.9656,8.56252 21.5567,7.6612 2.5284,-0.63458 2.651,-0.9684 2.6843,-7.30655 0.019,-3.65287 0.6853,-10.24159 1.4803,-14.64159 0.795,-4.4 1.4543,-8.30593 1.4651,-8.67985 0.011,-0.37391 -2.0271,-1.70204 -4.5287,-2.9514 -4.2334,-2.11429 -4.5277,-2.51386 -4.25,-5.77125 0.228,-2.67434 1.0104,-3.91383 3.3174,-5.25574 l 3.019,-1.75604 4.981,3.94651 c 2.7396,2.17058 5.2592,3.9513 5.5993,3.95714 0.3401,0.006 0.8665,-1.83958 1.1698,-4.10095 0.5595,-4.17073 4.1721,-9.0378 8.2119,-11.0633 1.26317,-0.63334 0.99847,-0.14111 -0.7184,1.33605 -1.4951,1.28636 -3.1826,3.60562 -3.75,5.15393 -1.7913,4.88821 -0.7878,15.72833 1.4684,15.86232 0.55,0.0327 1.8876,0.6811 2.9725,1.44098 1.08487,0.75988 2.64217,1.3816 3.46067,1.3816 0.8185,0 6.2745,2.26228 12.1246,5.0273 5.8574,2.76852 11.3347,4.7593 12.1907,4.43082 0.8549,-0.32806 1.8237,-1.57784 2.1529,-2.77729 0.3742,-1.36349 0.8796,-1.77024 1.3486,-1.0853 0.4125,0.60254 3.5577,3.00126 6.9892,5.33048 5.9117,4.01263 11.0894,9.5787 9.9606,10.70757 -0.2852,0.28514 -2.4166,-1.54077 -4.7365,-4.05757 -2.3199,-2.51681 -4.8357,-4.57601 -5.5907,-4.57601 -0.7549,0 -1.3726,-0.45 -1.3726,-1 0,-0.56559 -2.8652,-1 -6.5956,-1 -4.8281,0 -7.307,-0.50087 -9.25,-1.86901 -1.4599,-1.02796 -6.2544,-3.1008 -10.6544,-4.60632 -12.36757,-4.23172 -16.95197,-6.6867 -17.31957,-9.27467 -0.1757,-1.2375 -0.8352,-2.25 -1.4656,-2.25 -0.6304,0 -3.2698,-2.09173 -5.8654,-4.64829 -4.557,-4.48851 -4.8246,-4.60464 -7.7843,-3.37868 -4.1444,1.71667 -4.3177,5.983 -0.3151,7.75888 1.5125,0.67108 5.2031,3.06506 8.2014,5.31996 2.9982,2.25491 7.4982,5.28094 10,6.72451 2.5017,1.44358 8.23737,5.00945 12.74587,7.92416 4.5085,2.9147 8.4305,5.29946 8.7156,5.29946 0.285,0 4.2463,2.40561 8.8027,5.34579 4.5564,2.94019 12.7844,7.74394 18.2844,10.67502 5.5,2.93107 10.2872,5.75815 10.6383,6.2824 0.351,0.52425 2.6522,2.133 5.1139,3.57499 9.4394,5.52952 17.3132,11.31103 14.5907,10.7135 -1.4614,-0.32074 -3.3739,-0.85823 -4.25,-1.19442 -1.3983,-0.53657 -1.5929,0.74579 -1.5929,10.49573 0,6.73799 -0.3934,11.10699 -1,11.10699 -0.6104,0 -1,-4.615 -1,-11.84501 z m -69.39287,-18.45644 c 4.89107,-2.3658 14.17757,-6.7533 20.63667,-9.75 6.4591,-2.9967 11.7335,-5.67355 11.7209,-5.94855 -0.013,-0.275 -2.7472,-2.47803 -6.0769,-4.89562 l -6.0539,-4.39561 -3.5407,1.68848 c -1.9475,0.92866 -3.7683,1.46103 -4.0462,1.18305 -0.278,-0.27798 0.6777,-1.0445 2.1238,-1.70337 1.446,-0.65888 2.6292,-1.51657 2.6292,-1.90599 0,-0.38942 -3.8693,-3.24047 -8.5984,-6.33567 l -8.59837,-5.62763 0.7092,11.35045 0.7092,11.35045 -8.8608,4.39573 c -4.8734,2.41765 -9.1303,4.76232 -9.4598,5.21038 -1.12,1.52331 0.3332,6.17901 2.47,7.91311 3.0615,2.48455 4.3402,2.25739 14.2361,-2.52921 z m 108.97837,26.16304 c 0.5012,-0.81094 -0.2965,-0.95078 -2.7734,-0.48612 -2.8148,0.52806 -3.8422,0.23884 -5.3945,-1.51858 -1.9146,-2.16747 -1.9137,-2.16972 0.5824,-1.43628 11.0443,3.24523 14.4486,2.40517 17.8317,-4.4002 2.314,-4.65482 2.3199,-4.7587 0.7758,-13.7064 -0.8558,-4.95882 -1.8407,-9.75807 -2.1887,-10.66502 -0.348,-0.90694 -0.1856,-1.64899 0.361,-1.64899 1.3101,0 3.5776,12.03877 3.5786,19 10e-4,9.96031 -0.5381,11.1999 -5.9671,13.71146 -5.3721,2.48526 -7.8943,2.91149 -6.8058,1.15013 z m -11.9375,-11.11159 c -0.3468,-2.8875 -0.6345,-8.00754 -0.6393,-11.37788 -0.01,-3.37033 -0.6837,-7.74337 -1.5087,-9.71788 -0.825,-1.9745 -1.5,-3.82054 -1.5,-4.10231 0,-0.57512 8.9733,4.20913 10.45,5.57157 2.2542,2.07978 7.1555,0.87871 10.5014,-2.57335 2.8233,-2.91292 3.4477,-4.43041 4.0115,-9.75 0.6456,-6.09142 0.6937,-6.17807 1.4515,-2.61533 0.9871,4.64101 -0.5203,9.35846 -4.266,13.35018 -1.5663,1.66925 -3.3909,4.0496 -4.0546,5.28965 -0.6636,1.24006 -3.6562,3.41449 -6.6502,4.83207 l -5.4436,2.57742 0,6.88293 c 0,8.12127 -1.4516,9.12908 -2.352,1.63293 z m 6.9222,-12.6282 c 6.2094,-3.39613 6.7964,-5.11184 1.7631,-5.1536 -2.1083,-0.0175 -4.7068,-0.6925 -5.7744,-1.5 -2.9884,-2.26027 -3.2519,-1.86442 -2.5175,3.7818 0.3756,2.8875 0.4775,5.925 0.2264,6.75 -0.3752,1.23303 -0.2816,1.2547 0.5261,0.1218 0.5404,-0.75801 3.1397,-2.55801 5.7763,-4 z m 80.35707,15.62323 c -3.3652,-2.93647 -4.5634,-4.62974 -6.4193,-9.07173 -2.0028,-4.79318 -1.0894,-4.73337 1.3712,0.0898 1.0558,2.0697 3.1977,5.0411 4.7597,6.6031 2.5349,2.53489 3.3197,2.77424 7.3052,2.22798 5.3714,-0.73624 9.3434,-4.18026 11.5349,-10.00176 1.5335,-4.0736 1.5382,-4.0764 1.0091,-0.60879 -0.848,5.55735 -4.6771,10.4568 -9.2412,11.82423 -5.6076,1.68007 -7.3863,1.49688 -10.3196,-1.06284 z m -51.13947,-3.94646 c -2.4121,-2.97555 -3.1039,-9.20915 -1.8644,-16.79857 1.4005,-8.57597 1.3647,-20.58253 -0.07,-23.31574 -0.6305,-1.20134 -2.804,-4.20926 -4.8301,-6.68426 -7.3938,-9.03184 -5.866,-9.20357 2.385,-0.26808 4.4657,4.83608 4.8686,5.69978 5.3256,11.41601 0.272,3.40126 -0.061,11.00284 -0.7389,16.89241 -1.3164,11.42825 -0.4957,17.16996 2.6253,18.36759 0.8382,0.32164 11.7289,-3.9379 24.2016,-9.46563 12.47277,-5.52773 23.57627,-10.13859 24.67447,-10.24636 1.3803,-0.13545 2.0957,0.49334 2.3173,2.03683 0.2673,1.86246 -0.6443,2.66841 -5.4968,4.85934 -3.1995,1.44461 -8.7423,3.97175 -12.3173,5.61587 -9.11567,4.19227 -16.18877,6.93659 -16.66087,6.4644 -0.2205,-0.22051 6.9255,-3.65146 15.87997,-7.62432 17.2403,-7.64906 18.3676,-8.28983 17.3838,-9.88166 -0.3687,-0.5965 -10.0248,3.20576 -23.6584,9.31587 -12.66947,5.67805 -24.02737,10.57233 -25.23997,10.87617 -1.5027,0.37657 -2.7496,-0.12001 -3.9167,-1.55987 z m 61.21217,1.04606 c 0,-0.33021 0.7546,-2.34284 1.677,-4.47251 1.1612,-2.68133 1.6743,-6.63988 1.6683,-12.87212 -0.01,-7.49177 -0.4315,-9.9217 -2.5325,-14.5 -1.3882,-3.025 -3.489,-6.35724 -4.6684,-7.40499 -1.1794,-1.04774 -2.1444,-2.36943 -2.1444,-2.93709 0,-0.56766 1.3487,0.26004 2.9971,1.83932 7.9268,7.59431 10.5155,30.22198 4.4486,38.88376 -0.7951,1.1352 -1.4457,1.79384 -1.4457,1.46363 z M 851.56615,828.74923 c -0.3349,-1.05523 0.06,-3.45164 0.8772,-5.32536 l 1.4863,-3.40675 -0.6095,5 c -0.7124,5.84482 -0.9339,6.31608 -1.754,3.73211 z m 120.71227,-4.73211 c 0.01,-2.75 0.2017,-3.75631 0.4316,-2.23625 0.2298,1.52006 0.2237,3.77006 -0.014,5 -0.2374,1.22994 -0.4254,-0.0137 -0.4179,-2.76375 z m -29.5175,-2.11277 c -1.1354,-1.76225 1.1628,-12.62852 3.5852,-16.95151 3.5374,-6.31288 10.7976,-8.9602 16.4942,-6.01436 3.0637,1.58429 7.7189,9.38504 8.8888,14.8952 l 0.7633,3.59463 4.25,-1.9067 c 2.3375,-1.04869 4.2483,-1.59121 4.2462,-1.2056 0,0.67922 -7.7637,4.20111 -9.2567,4.20111 -0.4067,0 -0.7395,-0.73529 -0.7395,-1.63398 0,-3.86025 -2.6178,-9.79898 -5.9308,-13.45451 -4.595,-5.07017 -8.3741,-5.863 -13.0151,-2.73053 -4.8549,3.27677 -7.1096,7.71911 -7.8921,15.54968 -0.3721,3.72314 -0.9991,6.26859 -1.3935,5.65657 z m -89.46777,-5.82881 c -0.6596,-0.75102 -3.0221,-1.67346 -5.25,-2.04986 -2.2279,-0.37639 -4.0507,-1.0948 -4.0507,-1.59646 0,-1.15531 -0.2855,-1.18606 5.8185,0.62664 3.176,0.94318 5.1815,2.10431 5.1815,3 0,1.76796 -0.1622,1.76984 -1.6993,0.0197 z m 37.1379,-5.90067 c 0.1903,-3.76324 0.9025,-7.36324 1.5828,-8 0.9733,-0.91105 1.079,-0.51849 0.4963,1.84225 -0.4073,1.65 -1.1195,5.25 -1.5828,8 -0.7974,4.73395 -0.8238,4.63592 -0.4963,-1.84225 z m -31.6014,2.92831 c -2.0343,-2.72954 -15.9259,-9.55955 -19.6402,-9.65635 -1.4833,-0.0386 -3.597,-0.45702 -4.697,-0.92971 -1.7722,-0.76156 -1.6868,-0.86743 0.75,-0.92971 3.2942,-0.0842 3.2941,-0.0834 0.6802,-5.20703 -1.1383,-2.23139 -1.8436,-4.28321 -1.5672,-4.5596 0.2764,-0.27639 1.6654,1.79222 3.0866,4.59691 1.4213,2.80468 3.139,5.10557 3.8173,5.11308 0.6782,0.008 2.1767,0.26699 3.3301,0.57661 1.6384,0.43986 2.3666,-0.0882 3.3303,-2.41488 0.6785,-1.6378 2.3223,-4.00072 3.6531,-5.25092 3.2031,-3.00911 3.0661,-4.28572 -1.0787,-10.05503 -1.9241,-2.67819 -3.0537,-4.86943 -2.5102,-4.86943 0.5434,0 2.6321,2.47609 4.6415,5.50242 l 3.6534,5.50243 -4.1432,5.90652 c -2.2788,3.24859 -4.1432,6.32664 -4.1432,6.84011 0,0.51347 1.6875,1.78719 3.75,2.8305 2.0625,1.0433 4.7087,2.7171 5.8805,3.71955 2.0966,1.79355 2.1476,1.77377 3.198,-1.23945 1.2,-3.44219 2.2771,-4.18194 1.4426,-0.99071 -0.3324,1.271 0.349,3.29957 1.7633,5.25 1.9233,2.65228 1.9741,2.88885 0.3066,1.42863 -2.4189,-2.11819 -3.0948,-2.18379 -3.5177,-0.34142 -0.2335,1.01718 -0.7853,0.78864 -1.9861,-0.82252 z m 114.29747,-0.0541 c 0.9021,-0.90211 7.8653,-3.55303 7.8653,-2.99436 0,0.31044 -1.5606,1.21648 -3.4679,2.01342 -3.4811,1.45452 -5.27,1.85357 -4.3974,0.98094 z M 826.48035,801.92066 c -0.8461,-2.14695 -1.9808,-4.69104 -2.5216,-5.65354 -1.119,-1.9917 0.2985,-2.40153 1.7295,-0.5 1.2297,1.63415 3.3707,9.01681 2.7849,9.60269 -0.25,0.24991 -1.1467,-1.3022 -1.9928,-3.44915 z m -81.48787,-2.40354 c 0,-2.2 0.3494,-4 0.7764,-4 0.4271,0 0.6048,1.8 0.395,4 -0.2098,2.2 -0.5592,4 -0.7764,4 -0.2173,0 -0.395,-1.8 -0.395,-4 z m -7,2 c 0,-0.55 0.7016,-1 1.559,-1 0.8575,0 1.2809,0.45 0.941,1 -0.3399,0.55 -1.0415,1 -1.559,1 -0.5176,0 -0.941,-0.45 -0.941,-1 z m 123.99997,0.33786 c 0,-0.95174 4.9924,-9.33786 5.559,-9.33786 0.2611,0 -0.6655,2.25 -2.059,5 -2.3218,4.58176 -3.5,6.04206 -3.5,4.33786 z m 17.7602,-5.21099 c -1.3297,-1.58023 -3.4332,-3.41669 -4.6745,-4.08102 -1.2414,-0.66434 -2.0353,-1.42961 -1.7643,-1.70061 0.9541,-0.95412 6.2051,2.49575 8.4585,5.55729 2.8724,3.90226 1.2287,4.08483 -2.0197,0.22434 z m -153.26017,-0.0697 c 3.6893,-1.48942 10.5,-2.78744 10.5,-2.00114 0,0.42801 -2.2721,1.26549 -5.0492,1.86107 -5.8158,1.24726 -8.3549,1.31251 -5.4508,0.14007 z m 13.1445,-18.53674 c 0.1606,-15.94691 1.7855,-28.12425 4.1032,-30.75091 0.8398,-0.95175 3.0581,-2.0177 4.9295,-2.36878 3.8626,-0.72462 11.7139,1.16062 13.4262,3.22386 2.3923,2.88246 3.8966,1.5504 3.8966,-3.45033 0,-3.83721 0.5053,-5.30041 2.467,-7.14331 2.1727,-2.04118 3.13877,-2.24829 8.09897,-1.73634 6.0702,0.62649 12.8883,4.16473 21.111,10.95534 2.4974,2.0625 5.0188,3.75 5.6031,3.75 0.5844,0 1.7729,0.60089 2.6412,1.3353 0.8683,0.73442 3.1537,1.94168 5.0787,2.68281 1.925,0.74112 4.772,2.39023 6.3267,3.66469 1.5547,1.27446 3.4569,2.3172 4.227,2.3172 0.7701,0 2.1214,1.10075 3.0029,2.4461 1.6245,2.47932 7.3581,4.79859 14.9434,6.04472 2.2,0.36142 5.0125,1.30922 6.25,2.10621 2.8554,1.83899 3.0712,3.91282 0.25,2.40297 -1.356,-0.7257 -2,-0.73703 -2,-0.0352 0,0.56935 -0.7046,1.03518 -1.5657,1.03518 -0.8612,0 -2.5487,0.5354 -3.75,1.18979 -2.685,1.46254 -11.9366,2.21851 -9.6843,0.79133 0.825,-0.52277 3.1609,-0.95739 5.191,-0.96581 2.03,-0.008 3.9691,-0.46531 4.309,-1.01531 0.3399,-0.55 1.4915,-1 2.559,-1 3.4176,0 2.0752,-1.88671 -1.809,-2.54258 -2.0625,-0.34826 -5.168,-1.26865 -6.9011,-2.04531 -1.7332,-0.77666 -3.8441,-1.41211 -4.691,-1.41211 -0.8469,0 -1.8225,-0.45734 -2.168,-1.01631 -0.3454,-0.55897 -1.0497,-0.75573 -1.5651,-0.43724 -0.5153,0.31849 -2.7558,0.60418 -4.979,0.63486 -2.2231,0.0307 -3.8044,0.29346 -3.5139,0.58395 0.2905,0.29048 -1.6003,1.52336 -4.2019,2.73971 -6.3107,2.9506 -8.1539,5.25138 -9.1241,11.38878 -0.4476,2.83107 -1.1594,5.47564 -1.5819,5.87682 -1.4686,1.39441 0.2814,-10.65475 1.8816,-12.95547 2.5001,-3.5946 13.4489,-9.8151 17.2757,-9.8151 4.1963,0 4.2776,-1.47006 0.1607,-2.90523 -1.7369,-0.60549 -3.7514,-1.94809 -4.4767,-2.98356 -0.7252,-1.03548 -2.5666,-2.18753 -4.092,-2.56013 -1.5253,-0.37259 -4.4584,-1.83357 -6.5181,-3.24663 -3.0827,-2.115 -4.4967,-2.46833 -7.9984,-1.99866 -4.6364,0.62187 -8.7568,4.28475 -8.7568,7.78442 0,1.79618 0.4612,1.9175 5,1.3154 5.8126,-0.77107 6.6026,0.0579 1.4191,1.4891 -3.4688,0.95779 -7.9818,-0.0591 -9.4862,-2.13747 -0.3119,-0.43092 -3.2369,-1.208 -6.5,-1.72687 l -5.9329,-0.94339 6.5785,0.32759 c 6.2369,0.31058 6.6752,0.18375 8.44,-2.44213 1.0767,-1.60202 3.4816,-3.2551 5.7041,-3.92098 l 3.8425,-1.15126 -1.9376,-2.7001 c -2.457,-3.42397 -14.081,-9.3351 -19.4972,-9.91491 -6.35317,-0.68013 -8.12067,1.18937 -8.17297,8.64433 -0.042,5.99434 0.01,6.10986 3.25,7.28162 1.81097,0.65485 3.29267,1.55024 3.29267,1.98975 0,1.29885 -0.6937,1.03113 -10.82247,-4.17688 -8.7985,-4.52402 -10.0253,-4.89528 -13.5067,-4.08744 -4.4328,1.02858 -3.9473,0.6412 -6.0956,4.86423 -1.3319,2.61821 -1.7509,6.89037 -2.0264,20.65883 -0.1911,9.54692 -0.7302,18.04276 -1.1981,18.87966 -0.494,0.88357 -0.7901,-4.49172 -0.7062,-12.81882 z m 93.35547,9.10197 c 0,-0.20765 0.6853,-0.9463 1.5229,-1.64144 1.2733,-1.05678 1.4197,-0.99492 0.893,0.37756 -0.5379,1.40173 -2.4159,2.38422 -2.4159,1.26388 z m 35.5,-1.81861 c -1.1,-0.58345 -3.8382,-2.8238 -6.0849,-4.97855 -3.0187,-2.89508 -5.0363,-3.97858 -7.7294,-4.15087 -2.0044,-0.12823 -4.1386,-0.72734 -4.7426,-1.33136 -0.7977,-0.79763 0.2673,-0.85002 3.8909,-0.19141 3.7594,0.68329 5.9353,1.84881 8.8276,4.72857 3.3648,3.35017 4.618,3.90892 10.1563,4.52811 9.4633,1.05802 11.3376,2.14763 3.9804,2.31395 -3.4641,0.0783 -7.1983,-0.33499 -8.2983,-0.91844 z m -50.6392,-5.75437 c 2.4423,-2.12022 8.8092,-2.94262 7.5971,-0.98129 -0.3631,0.5875 -1.3182,0.81568 -2.1224,0.50708 -0.8042,-0.3086 -2.8962,0.13298 -4.6488,0.98129 l -3.1867,1.54239 2.3608,-2.04947 z m -30.8608,-2.10049 c 0,-1.21812 6.0952,-3.9611 8.7179,-3.92325 0.9801,0.0142 -0.3857,1.13915 -3.0352,2.5 -5.4726,2.81092 -5.6827,2.86353 -5.6827,1.42325 z m 25.8125,-6.63208 c 0.7219,-0.28888 1.5844,-0.25335 1.9167,0.0789 0.3323,0.33229 -0.2584,0.56864 -1.3125,0.52522 -1.165,-0.048 -1.4019,-0.28495 -0.6042,-0.60417 z m -57.81247,-4.43558 c -4.0943,-2.46971 -7.4388,-5.77584 -6.6454,-6.56922 0.3056,-0.30562 1.9321,0.8208 3.6145,2.50316 1.6824,1.68236 3.9526,3.3425 5.0449,3.68918 1.0923,0.34669 1.986,1.05002 1.986,1.56296 0,1.23572 0.029,1.24441 -4,-1.18608 z m 45.81247,-0.56442 c 0.7219,-0.28888 1.5844,-0.25335 1.9167,0.0789 0.3323,0.33229 -0.2584,0.56864 -1.3125,0.52522 -1.165,-0.048 -1.4019,-0.28495 -0.6042,-0.60417 z m -50.31247,-10.31689 c -0.3399,-0.55 -0.168,-1 0.382,-1 0.55,0 1.2781,0.45 1.618,1 0.3399,0.55 0.168,1 -0.382,1 -0.55,0 -1.2781,-0.45 -1.618,-1 z m 24.69927,-3.05004 c -4.80777,-1.04599 -5.41587,-2.34459 -0.6993,-1.49344 2.2,0.39702 4.1875,0.90672 4.4167,1.13267 0.9112,0.89847 -0.5805,1.04325 -3.7174,0.36077 z m -0.6993,-5.94996 c -0.377,-0.61008 1.1366,-1 3.882,-1 2.475,0 4.7781,0.45 5.118,1 0.3771,0.61008 -1.1366,1 -3.882,1 -2.475,0 -4.7781,-0.45 -5.118,-1 z"
       id="path3493"
       inkscape:connector-curvature="0" />
  </g>
</svg>
